<?xml version="1.0" encoding="utf-8" standalone="no"?>
<!DOCTYPE svg PUBLIC "-//W3C//DTD SVG 1.1//EN"
  "http://www.w3.org/Graphics/SVG/1.1/DTD/svg11.dtd">
<svg xmlns:xlink="http://www.w3.org/1999/xlink" width="1152pt" height="341.979212pt" viewBox="0 0 1152 341.979212" xmlns="http://www.w3.org/2000/svg" version="1.1">
 <metadata>
  <rdf:RDF xmlns:dc="http://purl.org/dc/elements/1.1/" xmlns:cc="http://creativecommons.org/ns#" xmlns:rdf="http://www.w3.org/1999/02/22-rdf-syntax-ns#">
   <cc:Work>
    <dc:type rdf:resource="http://purl.org/dc/dcmitype/StillImage"/>
    <dc:date>2026-01-07T02:07:08.864726</dc:date>
    <dc:format>image/svg+xml</dc:format>
    <dc:creator>
     <cc:Agent>
      <dc:title>Matplotlib v3.10.1, https://matplotlib.org/</dc:title>
     </cc:Agent>
    </dc:creator>
   </cc:Work>
  </rdf:RDF>
 </metadata>
 <defs>
  <style type="text/css">*{stroke-linejoin: round; stroke-linecap: butt}</style>
 </defs>
 <g id="figure_1">
  <g id="patch_1">
   <path d="M 0 341.979212 
L 1152 341.979212 
L 1152 0 
L 0 0 
z
" style="fill: #ffffff"/>
  </g>
  <g id="axes_1">
   <g id="patch_2">
    <path d="M 0 341.979212 
L 1152 341.979212 
L 1152 0 
L 0 0 
z
" style="fill: #212830"/>
   </g>
   <g id="patch_3">
    <path d="M 1099.235501 324.414653 
L 1097.042566 323.620187 
L 1093.031186 322.169494 
L 1088.120675 320.404213 
L 1082.332177 318.349092 
L 1075.664516 316.01423 
L 1068.15492 313.389812 
L 1059.860804 310.486337 
L 1050.843357 307.318257 
L 1041.156878 303.904476 
L 1030.84861 300.269594 
L 1019.945931 296.433664 
L 1008.467028 292.410807 
L 996.430577 288.203994 
L 983.855857 283.815371 
L 970.768787 279.250751 
L 957.196856 274.517653 
L 943.165447 269.626192 
L 928.69375 264.585239 
L 913.799396 259.400381 
L 898.500704 254.07747 
L 882.81205 248.623877 
L 866.745416 243.046138 
L 850.313851 237.349146 
L 833.532202 231.538949 
L 816.413819 225.622834 
L 798.970448 219.608756 
L 781.213665 213.502978 
L 763.156233 207.311456 
L 744.809119 201.041559 
L 726.181886 194.700395 
L 707.28629 188.291867 
L 688.137604 181.823818 
L 668.74649 175.309544 
L 649.114261 168.758157 
L 629.24802 162.165414 
L 609.171774 155.529229 
L 588.912155 148.865481 
L 581.589399 146.475148 
L 580.966616 148.383036 
L 567.860859 144.104975 
L 547.263284 137.437533 
L 526.519788 130.774426 
L 505.659373 124.137637 
L 484.688177 117.559423 
L 463.598492 111.055868 
L 442.39749 104.630232 
L 421.105396 98.29825 
L 399.722928 92.088183 
L 378.233972 86.01075 
L 356.639383 80.058677 
L 334.962203 74.235666 
L 313.212275 68.563419 
L 291.37823 63.05354 
L 269.464509 57.697509 
L 247.502463 52.500761 
L 225.508294 47.500341 
L 203.453202 42.729366 
L 181.29719 38.179958 
L 159.036204 33.818136 
L 136.701177 29.62408 
L 114.323018 25.603918 
L 91.919355 21.773346 
L 69.498547 18.146968 
L 52.363636 15.54451 
L 52.363636 290.980478 
L 62.324623 291.014064 
L 89.089856 291.121869 
L 115.831455 291.268209 
L 142.513784 291.433716 
L 169.129292 291.594073 
L 195.682939 291.755608 
L 222.147026 291.936709 
L 248.478177 292.128557 
L 274.661683 292.299299 
L 300.718311 292.435984 
L 326.661363 292.561819 
L 352.468702 292.710871 
L 378.127931 292.896452 
L 403.631572 293.117147 
L 428.960096 293.378277 
L 454.072328 293.699086 
L 478.928651 294.093818 
L 503.518342 294.56264 
L 527.824637 295.089913 
L 551.812499 295.656402 
L 575.481602 296.248596 
L 598.824179 296.868366 
L 621.820338 297.527211 
L 644.473707 298.229208 
L 666.77875 298.962221 
L 688.702012 299.713063 
L 710.210256 300.487497 
L 731.291942 301.302361 
L 751.964166 302.162565 
L 772.234699 303.052431 
L 792.079016 303.955918 
L 811.454075 304.873415 
L 830.325279 305.817827 
L 848.704002 306.796754 
L 866.613258 307.804596 
L 884.045623 308.824366 
L 900.956448 309.839167 
L 917.304898 310.84983 
L 933.084518 311.876248 
L 948.318878 312.93689 
L 963.024444 314.023222 
L 977.177852 315.104679 
L 990.721645 316.160521 
L 1003.61836 317.193229 
L 1015.866912 318.205362 
L 1027.467179 319.188818 
L 1038.397496 320.138593 
L 1048.620231 321.055323 
L 1058.092161 321.941082 
L 1066.782701 322.798303 
L 1074.671237 323.616237 
L 1081.716902 324.371133 
L 1087.865287 325.044845 
L 1093.073398 325.636589 
L 1097.320521 326.144794 
L 1099.636364 326.434702 
L 1099.235501 324.414653 
" clip-path="url(#p86b9e9018d)" style="fill: none; stroke: #ff0000; stroke-width: 0.72; stroke-linejoin: miter"/>
   </g>
   <g id="patch_4">
    <path d="M 492.179422 224.880459 
L 492.179422 244.950079 
" clip-path="url(#p86b9e9018d)" style="fill: none; stroke: #ff0000; stroke-width: 0.72; stroke-linejoin: miter"/>
   </g>
   <g id="patch_5">
    <path d="M 512.249042 234.915269 
L 508.235118 234.915269 
" clip-path="url(#p86b9e9018d)" style="fill: none; stroke: #ff0000; stroke-width: 0.72; stroke-linejoin: miter"/>
   </g>
   <g id="patch_6">
    <path d="M 506.228156 234.915269 
L 502.214232 234.915269 
L 502.214232 224.880459 
L 506.228156 224.880459 
" clip-path="url(#p86b9e9018d)" style="fill: none; stroke: #ff0000; stroke-width: 0.72; stroke-linejoin: miter"/>
   </g>
   <g id="patch_7">
    <path d="M 508.235118 224.880459 
L 512.249042 224.880459 
L 512.249042 244.950079 
L 508.235118 244.950079 
" clip-path="url(#p86b9e9018d)" style="fill: none; stroke: #ff0000; stroke-width: 0.72; stroke-linejoin: miter"/>
   </g>
   <g id="patch_8">
    <path d="M 506.228156 244.950079 
L 502.214232 244.950079 
" clip-path="url(#p86b9e9018d)" style="fill: none; stroke: #ff0000; stroke-width: 0.72; stroke-linejoin: miter"/>
   </g>
   <g id="patch_9">
    <path d="M 375.206837 93.503597 
L 367.46758 91.370465 
L 369.600712 83.631209 
L 377.339969 85.76434 
L 375.206837 93.503597 
" clip-path="url(#p86b9e9018d)" style="fill: none; stroke: #ff0000; stroke-width: 0.72; stroke-linejoin: miter"/>
   </g>
   <g id="patch_10">
    <path d="M 239.536519 129.255539 
L 249.571329 139.29035 
L 239.536519 149.32516 
L 229.501709 139.29035 
L 239.536519 129.255539 
" clip-path="url(#p86b9e9018d)" style="fill: none; stroke: #ff0000; stroke-width: 0.72; stroke-linejoin: miter"/>
   </g>
   <g id="patch_11">
    <path d="M 390.834076 218.944381 
L 400.868886 208.90957 
L 410.903696 218.944381 
L 400.868886 228.979191 
L 390.834076 218.944381 
" clip-path="url(#p86b9e9018d)" style="fill: none; stroke: #ff0000; stroke-width: 0.72; stroke-linejoin: miter"/>
   </g>
   <g id="patch_12">
    <path d="M 390.834076 166.569861 
L 400.868886 156.535051 
L 410.903696 166.569861 
L 400.868886 176.604671 
L 390.834076 166.569861 
" clip-path="url(#p86b9e9018d)" style="fill: none; stroke: #ff0000; stroke-width: 0.72; stroke-linejoin: miter"/>
   </g>
   <g id="line2d_1">
    <path d="M 1061.77896 311.157815 
L 1061.123449 313.054708 
" clip-path="url(#p86b9e9018d)" style="fill: none; stroke: #ff0000; stroke-width: 0.72; stroke-linecap: square"/>
   </g>
   <g id="line2d_2">
    <path d="M 1059.745566 320.089432 
L 1059.636835 322.093446 
" clip-path="url(#p86b9e9018d)" style="fill: none; stroke: #ff0000; stroke-width: 0.72; stroke-linecap: square"/>
   </g>
   <g id="line2d_3">
    <path d="M 1023.916433 297.83062 
L 1023.255497 299.72563 
" clip-path="url(#p86b9e9018d)" style="fill: none; stroke: #ff0000; stroke-width: 0.72; stroke-linecap: square"/>
   </g>
   <g id="line2d_4">
    <path d="M 1019.787571 316.523759 
L 1019.64401 318.525579 
" clip-path="url(#p86b9e9018d)" style="fill: none; stroke: #ff0000; stroke-width: 0.72; stroke-linecap: square"/>
   </g>
   <g id="line2d_5">
    <path d="M 872.308166 244.977318 
L 871.64741 246.87239 
" clip-path="url(#p86b9e9018d)" style="fill: none; stroke: #ff0000; stroke-width: 0.72; stroke-linecap: square"/>
   </g>
   <g id="line2d_6">
    <path d="M 859.613192 305.400724 
L 859.472648 307.402759 
" clip-path="url(#p86b9e9018d)" style="fill: none; stroke: #ff0000; stroke-width: 0.72; stroke-linecap: square"/>
   </g>
   <g id="line2d_7">
    <path d="M 52.363636 139.29035 
L 552.987147 139.29035 
" clip-path="url(#p86b9e9018d)" style="fill: none; stroke: #ffffff; stroke-width: 0.72; stroke-linecap: square"/>
   </g>
   <g id="line2d_8">
    <path d="M 227.494747 139.29035 
L 251.578291 139.29035 
" clip-path="url(#p86b9e9018d)" style="fill: none; stroke: #ffffff; stroke-width: 0.72; stroke-linecap: square"/>
   </g>
   <g id="line2d_9">
    <path d="M 52.363636 256.342707 
L 1098.637615 324.198048 
" clip-path="url(#p86b9e9018d)" style="fill: none; stroke: #ffffff; stroke-width: 0.72; stroke-linecap: square"/>
   </g>
   <g id="line2d_10">
    <path d="M 400.868886 293.09324 
L 400.868886 92.421001 
" clip-path="url(#p86b9e9018d)" style="fill: none; stroke: #ffffff; stroke-width: 0.72; stroke-linecap: square"/>
   </g>
   <g id="line2d_11">
    <path d="M 400.868886 230.986153 
L 400.868886 206.902608 
" clip-path="url(#p86b9e9018d)" style="fill: none; stroke: #ffffff; stroke-width: 0.72; stroke-linecap: square"/>
   </g>
   <g id="line2d_12">
    <path d="M 400.868886 178.611633 
L 400.868886 154.528089 
" clip-path="url(#p86b9e9018d)" style="fill: none; stroke: #ffffff; stroke-width: 0.72; stroke-linecap: square"/>
   </g>
  </g>
 </g>
 <defs>
  <clipPath id="p86b9e9018d">
   <rect x="0" y="0" width="1152" height="341.979212"/>
  </clipPath>
 </defs>
</svg>
