<?xml version="1.0" encoding="utf-8" standalone="no"?>
<!DOCTYPE svg PUBLIC "-//W3C//DTD SVG 1.1//EN"
  "http://www.w3.org/Graphics/SVG/1.1/DTD/svg11.dtd">
<svg xmlns:xlink="http://www.w3.org/1999/xlink" width="1152pt" height="156.907635pt" viewBox="0 0 1152 156.907635" xmlns="http://www.w3.org/2000/svg" version="1.1">
 <metadata>
  <rdf:RDF xmlns:dc="http://purl.org/dc/elements/1.1/" xmlns:cc="http://creativecommons.org/ns#" xmlns:rdf="http://www.w3.org/1999/02/22-rdf-syntax-ns#">
   <cc:Work>
    <dc:type rdf:resource="http://purl.org/dc/dcmitype/StillImage"/>
    <dc:date>2026-01-07T02:07:24.079472</dc:date>
    <dc:format>image/svg+xml</dc:format>
    <dc:creator>
     <cc:Agent>
      <dc:title>Matplotlib v3.10.1, https://matplotlib.org/</dc:title>
     </cc:Agent>
    </dc:creator>
   </cc:Work>
  </rdf:RDF>
 </metadata>
 <defs>
  <style type="text/css">*{stroke-linejoin: round; stroke-linecap: butt}</style>
 </defs>
 <g id="figure_1">
  <g id="patch_1">
   <path d="M 0 156.907635 
L 1152 156.907635 
L 1152 0 
L 0 0 
z
" style="fill: #ffffff"/>
  </g>
  <g id="axes_1">
   <g id="patch_2">
    <path d="M 0 156.907635 
L 1152 156.907635 
L 1152 0 
L 0 0 
z
" style="fill: #212830"/>
   </g>
   <g id="patch_3">
    <path d="M 1099.462394 149.432274 
L 1079.322959 144.328252 
L 1052.712535 137.298916 
L 1024.223884 129.42169 
L 995.012197 121.01905 
L 965.57085 112.241603 
L 926.132772 100.29496 
L 867.375311 82.442373 
L 840.060784 74.37826 
L 839.560197 76.092238 
L 828.051148 72.774485 
L 808.735093 67.365608 
L 789.441025 62.163222 
L 770.178169 57.174667 
L 750.894884 52.429538 
L 731.566906 47.895949 
L 712.234497 43.589103 
L 692.859158 39.526904 
L 673.474083 35.690929 
L 654.016317 32.107576 
L 634.542776 28.747865 
L 615.025988 25.642012 
L 595.460704 22.762357 
L 575.859108 20.123221 
L 556.223405 17.702566 
L 536.578939 15.523427 
L 516.897955 13.591963 
L 497.229741 11.889259 
L 477.560978 10.432943 
L 457.913124 9.241946 
L 438.284075 8.308899 
L 418.680222 7.635214 
L 399.15134 7.2415 
L 379.66097 7.132165 
L 360.235421 7.327285 
L 340.908772 7.813042 
L 321.705519 8.622606 
L 302.606647 9.770339 
L 283.662897 11.246293 
L 264.887549 13.077838 
L 246.347731 15.240179 
L 228.131286 17.782452 
L 219.150686 19.190622 
L 210.269364 20.698937 
L 201.488594 22.30458 
L 184.248439 25.781617 
L 175.844781 27.63968 
L 167.594981 29.590346 
L 159.507957 31.635107 
L 151.578086 33.778582 
L 143.82152 36.018798 
L 136.219613 38.366088 
L 128.814586 40.788367 
L 121.613495 43.327335 
L 114.624336 45.961146 
L 107.891283 48.693751 
L 101.431697 51.52341 
L 95.309415 54.423925 
L 89.590962 57.371123 
L 84.311201 60.357165 
L 79.543193 63.278636 
L 75.332438 66.106056 
L 71.669582 68.806778 
L 68.51241 71.356043 
L 65.840466 73.691878 
L 61.606223 77.982452 
L 59.97127 79.866585 
L 57.414761 83.36369 
L 55.591588 86.45542 
L 54.274182 89.268807 
L 53.357376 91.790349 
L 52.751888 94.069249 
L 52.392492 95.991709 
L 52.388068 99.100964 
L 52.665333 101.180183 
L 52.974945 102.28994 
L 53.416817 103.44646 
L 54.004895 104.645943 
L 54.75966 105.889914 
L 55.698327 107.175839 
L 56.833933 108.495338 
L 58.190188 109.841154 
L 59.80433 111.208391 
L 61.734166 112.600339 
L 64.038292 114.03021 
L 66.734455 115.508047 
L 69.847251 117.019714 
L 73.486195 118.534345 
L 77.74418 120.051885 
L 82.617275 121.593486 
L 88.025902 123.134822 
L 93.945969 124.594827 
L 100.326012 125.981247 
L 107.007732 127.291004 
L 113.932714 128.48132 
L 128.509748 130.543353 
L 143.649813 132.440614 
L 159.221563 133.9666 
L 183.572559 136.054873 
L 200.397465 137.204161 
L 226.92157 138.678375 
L 245.313697 139.542683 
L 257.970367 140.053611 
L 257.907106 141.838074 
L 283.634436 142.663934 
L 313.546547 143.405788 
L 343.961585 143.921491 
L 384.977682 144.359166 
L 436.627902 144.682076 
L 488.437889 144.764073 
L 550.643716 144.654317 
L 654.133229 143.979383 
L 736.562567 143.356631 
L 798.226473 142.81701 
L 849.530639 142.634038 
L 900.811307 142.813661 
L 941.624498 143.300775 
L 982.201126 144.197587 
L 1012.322781 145.145184 
L 1041.834985 146.365789 
L 1060.847663 147.34224 
L 1087.211147 148.912659 
L 1099.636364 149.77547 
L 1099.462394 149.432274 
L 1099.462394 149.432274 
" clip-path="url(#p133f7215c3)" style="fill: none; stroke: #ff0000; stroke-width: 0.72; stroke-linejoin: miter"/>
   </g>
   <g id="patch_4">
    <path d="M 737.684048 56.647014 
L 730.726466 55.033021 
L 732.340459 48.07544 
L 739.29804 49.689432 
L 737.684048 56.647014 
" clip-path="url(#p133f7215c3)" style="fill: none; stroke: #ff0000; stroke-width: 0.72; stroke-linejoin: miter"/>
   </g>
   <g id="patch_5">
    <path d="M 342.436974 14.903143 
L 335.299646 15.170475 
L 335.032314 8.033147 
L 342.169642 7.765815 
L 342.436974 14.903143 
" clip-path="url(#p133f7215c3)" style="fill: none; stroke: #ff0000; stroke-width: 0.72; stroke-linejoin: miter"/>
   </g>
   <g id="patch_6">
    <path d="M 164.356414 37.723054 
L 157.461615 39.587101 
L 155.597568 32.692302 
L 162.492367 30.828255 
L 164.356414 37.723054 
" clip-path="url(#p133f7215c3)" style="fill: none; stroke: #ff0000; stroke-width: 0.72; stroke-linejoin: miter"/>
   </g>
   <g id="patch_7">
    <path d="M 75.534301 77.162702 
L 72.756992 79.407647 
L 67.144628 72.464373 
L 69.921937 70.219428 
L 75.534301 77.162702 
" clip-path="url(#p133f7215c3)" style="fill: none; stroke: #ff0000; stroke-width: 0.72; stroke-linejoin: miter"/>
   </g>
   <g id="patch_8">
    <path d="M 64.633799 103.685357 
L 67.535633 105.766845 
L 62.331914 113.021429 
L 59.43008 110.939941 
L 64.633799 103.685357 
" clip-path="url(#p133f7215c3)" style="fill: none; stroke: #ff0000; stroke-width: 0.72; stroke-linejoin: miter"/>
   </g>
   <g id="patch_9">
    <path d="M 202.388032 130.167088 
L 209.517902 130.588825 
L 209.096165 137.718695 
L 201.966295 137.296958 
L 202.388032 130.167088 
" clip-path="url(#p133f7215c3)" style="fill: none; stroke: #ff0000; stroke-width: 0.72; stroke-linejoin: miter"/>
   </g>
   <g id="line2d_1">
    <path d="M 1064.939163 140.55939 
L 1064.521617 142.295467 
" clip-path="url(#p133f7215c3)" style="fill: none; stroke: #ff0000; stroke-width: 0.72; stroke-linecap: square"/>
   </g>
   <g id="line2d_2">
    <path d="M 1064.045584 145.73569 
L 1063.976065 147.51992 
" clip-path="url(#p133f7215c3)" style="fill: none; stroke: #ff0000; stroke-width: 0.72; stroke-linecap: square"/>
   </g>
   <g id="line2d_3">
    <path d="M 1030.474286 131.17501 
L 1030.030904 132.904669 
" clip-path="url(#p133f7215c3)" style="fill: none; stroke: #ff0000; stroke-width: 0.72; stroke-linecap: square"/>
   </g>
   <g id="line2d_4">
    <path d="M 1028.384606 143.989069 
L 1028.306172 145.772929 
" clip-path="url(#p133f7215c3)" style="fill: none; stroke: #ff0000; stroke-width: 0.72; stroke-linecap: square"/>
   </g>
   <g id="line2d_5">
    <path d="M 893.548311 90.349559 
L 893.060305 92.067161 
" clip-path="url(#p133f7215c3)" style="fill: none; stroke: #ff0000; stroke-width: 0.72; stroke-linecap: square"/>
   </g>
   <g id="line2d_6">
    <path d="M 885.531676 140.934104 
L 885.480081 142.718942 
" clip-path="url(#p133f7215c3)" style="fill: none; stroke: #ff0000; stroke-width: 0.72; stroke-linecap: square"/>
   </g>
   <g id="patch_10">
    <path d="M 504.6879 75.992762 
L 504.580686 72.559473 
L 504.259471 69.139824 
L 503.725531 65.747401 
L 502.980986 62.395684 
L 502.028796 59.097987 
L 500.872742 55.867412 
L 499.517419 52.716796 
L 497.968211 49.658654 
L 496.231272 46.705136 
L 494.313504 43.867978 
L 492.222525 41.158451 
L 489.966644 38.58732 
L 487.554822 36.1648 
L 484.996643 33.900515 
L 482.302268 31.803462 
L 479.482404 29.881972 
L 476.548254 28.143679 
L 473.511474 26.59549 
L 470.38413 25.243554 
L 467.178646 24.093244 
L 463.907758 23.14913 
L 460.584462 22.414962 
L 457.22196 21.893657 
L 453.833611 21.587287 
L 450.432878 21.497069 
L 447.033272 21.623361 
L 443.648299 21.965661 
L 440.291407 22.522609 
L 436.975933 23.291993 
L 433.71505 24.270757 
L 430.521713 25.45501 
L 427.408609 26.840049 
L 424.388107 28.42037 
L 421.472206 30.189696 
L 418.672492 32.140996 
L 416.000087 34.266518 
L 413.46561 36.557817 
L 411.079129 39.005791 
L 408.850127 41.600712 
L 406.787458 44.332273 
L 404.899318 47.18962 
L 403.193208 50.161402 
L 401.675907 53.23581 
L 400.353443 56.400632 
L 399.231069 59.643292 
L 398.313246 62.950909 
L 397.603619 66.310341 
L 397.105008 69.70824 
L 396.819394 73.131108 
L 396.747912 76.565346 
L 396.890845 79.997308 
L 397.247626 83.41336 
L 397.816837 86.799931 
L 398.596217 90.143565 
L 399.582669 93.430978 
L 400.772275 96.64911 
L 402.160307 99.785174 
L 403.741252 102.826711 
L 405.508828 105.761638 
L 407.456013 108.578294 
L 409.57507 111.265489 
L 411.857581 113.812545 
L 414.294477 116.209345 
L 416.876077 118.446365 
L 419.592124 120.514717 
L 422.431826 122.406185 
L 425.383903 124.113254 
L 428.436625 125.629141 
L 431.577864 126.947824 
L 434.795141 128.064063 
L 438.075672 128.973425 
L 441.406424 129.672295 
L 444.774165 130.157898 
L 448.165515 130.428304 
L 451.566999 130.482439 
L 454.965103 130.320088 
L 458.346328 129.941896 
L 461.697239 129.349365 
L 465.004524 128.544849 
L 468.255042 127.531545 
L 471.43588 126.313479 
L 474.5344 124.89549 
L 477.538292 123.283211 
L 480.435621 121.483048 
L 483.214876 119.502154 
L 485.865015 117.348398 
L 488.37551 115.030337 
L 490.736387 112.55718 
L 492.938264 109.938754 
L 494.972396 107.185461 
L 496.830699 104.30824 
L 498.505792 101.318523 
L 499.991018 98.228187 
L 501.280478 95.04951 
L 502.369048 91.795121 
L 503.252403 88.47795 
L 503.927033 85.111175 
L 504.39026 81.708173 
L 504.640241 78.282464 
L 504.6879 75.992762 
L 504.6879 75.992762 
" clip-path="url(#p133f7215c3)" style="fill: none; stroke: #ff0000; stroke-width: 0.72; stroke-linejoin: miter"/>
   </g>
   <g id="line2d_7">
    <path d="M 63.500418 75.992762 
L 845.588732 75.992762 
" clip-path="url(#p133f7215c3)" style="fill: none; stroke: #ffffff; stroke-width: 0.72; stroke-linecap: square"/>
   </g>
   <g id="line2d_8">
    <path d="M 216.168356 75.992762 
L 237.595354 75.992762 
" clip-path="url(#p133f7215c3)" style="fill: none; stroke: #ffffff; stroke-width: 0.72; stroke-linecap: square"/>
   </g>
   <g id="patch_11">
    <path d="M 226.881855 67.064846 
L 235.809771 75.992762 
L 226.881855 84.920678 
L 217.953939 75.992762 
L 226.881855 67.064846 
" clip-path="url(#p133f7215c3)" style="fill: none; stroke: #ff0000; stroke-width: 0.72; stroke-linejoin: miter"/>
   </g>
   <g id="line2d_9">
    <path d="M 443.831076 75.992762 
L 465.258074 75.992762 
" clip-path="url(#p133f7215c3)" style="fill: none; stroke: #ffffff; stroke-width: 0.72; stroke-linecap: square"/>
   </g>
   <g id="patch_12">
    <path d="M 454.544575 67.064846 
L 463.472491 75.992762 
L 454.544575 84.920678 
L 445.616659 75.992762 
L 454.544575 67.064846 
" clip-path="url(#p133f7215c3)" style="fill: none; stroke: #ff0000; stroke-width: 0.72; stroke-linejoin: miter"/>
   </g>
   <g id="line2d_10">
    <path d="M 671.493796 75.992762 
L 692.920794 75.992762 
" clip-path="url(#p133f7215c3)" style="fill: none; stroke: #ffffff; stroke-width: 0.72; stroke-linecap: square"/>
   </g>
   <g id="patch_13">
    <path d="M 682.207295 67.064846 
L 691.135211 75.992762 
L 682.207295 84.920678 
L 673.279379 75.992762 
L 682.207295 67.064846 
" clip-path="url(#p133f7215c3)" style="fill: none; stroke: #ff0000; stroke-width: 0.72; stroke-linejoin: miter"/>
   </g>
   <g id="line2d_11">
    <path d="M 52.391409 96.041178 
L 1096.779854 148.764868 
" clip-path="url(#p133f7215c3)" style="fill: none; stroke: #ffffff; stroke-width: 0.72; stroke-linecap: square"/>
   </g>
   <g id="line2d_12">
    <path d="M 257.524142 106.39686 
L 278.923889 107.47718 
" clip-path="url(#p133f7215c3)" style="fill: none; stroke: #ffffff; stroke-width: 0.72; stroke-linecap: square"/>
   </g>
   <g id="patch_14">
    <path d="M 268.674149 98.020459 
L 277.140576 107.387153 
L 267.773882 115.853581 
L 259.307454 106.486886 
L 268.674149 98.020459 
" clip-path="url(#p133f7215c3)" style="fill: none; stroke: #ff0000; stroke-width: 0.72; stroke-linejoin: miter"/>
   </g>
   <g id="line2d_13">
    <path d="M 512.825488 119.285196 
L 534.225235 120.365516 
" clip-path="url(#p133f7215c3)" style="fill: none; stroke: #ffffff; stroke-width: 0.72; stroke-linecap: square"/>
   </g>
   <g id="patch_15">
    <path d="M 523.975495 110.908794 
L 532.441923 120.275489 
L 523.075229 128.741917 
L 514.608801 119.375222 
L 523.975495 110.908794 
" clip-path="url(#p133f7215c3)" style="fill: none; stroke: #ff0000; stroke-width: 0.72; stroke-linejoin: miter"/>
   </g>
   <g id="line2d_14">
    <path d="M 450.716416 21.496317 
L 450.716416 19.710734 
" clip-path="url(#p133f7215c3)" style="fill: none; stroke: #ff0000; stroke-width: 0.72; stroke-linecap: square"/>
   </g>
   <g id="line2d_15">
    <path d="M 450.716416 130.489207 
L 450.716416 132.274791 
" clip-path="url(#p133f7215c3)" style="fill: none; stroke: #ff0000; stroke-width: 0.72; stroke-linecap: square"/>
   </g>
   <g id="line2d_16">
    <path d="M 504.6879 75.992762 
L 506.473483 75.992762 
" clip-path="url(#p133f7215c3)" style="fill: none; stroke: #ff0000; stroke-width: 0.72; stroke-linecap: square"/>
   </g>
   <g id="line2d_17">
    <path d="M 396.744932 75.992762 
L 394.959349 75.992762 
" clip-path="url(#p133f7215c3)" style="fill: none; stroke: #ff0000; stroke-width: 0.72; stroke-linecap: square"/>
   </g>
   <g id="line2d_18">
    <path d="M 307.869761 143.278805 
L 307.869761 9.430552 
" clip-path="url(#p133f7215c3)" style="fill: none; stroke: #ffffff; stroke-width: 0.72; stroke-linecap: square"/>
   </g>
   <g id="line2d_19">
    <path d="M 307.869761 103.663528 
L 307.869761 82.23653 
" clip-path="url(#p133f7215c3)" style="fill: none; stroke: #ffffff; stroke-width: 0.72; stroke-linecap: square"/>
   </g>
   <g id="patch_16">
    <path d="M 298.941845 92.950029 
L 307.869761 84.022113 
L 316.797677 92.950029 
L 307.869761 101.877945 
L 298.941845 92.950029 
" clip-path="url(#p133f7215c3)" style="fill: none; stroke: #ff0000; stroke-width: 0.72; stroke-linejoin: miter"/>
   </g>
   <g id="line2d_20">
    <path d="M 307.869761 70.472827 
L 307.869761 49.045829 
" clip-path="url(#p133f7215c3)" style="fill: none; stroke: #ffffff; stroke-width: 0.72; stroke-linecap: square"/>
   </g>
   <g id="patch_17">
    <path d="M 298.941845 59.759328 
L 307.869761 50.831412 
L 316.797677 59.759328 
L 307.869761 68.687244 
L 298.941845 59.759328 
" clip-path="url(#p133f7215c3)" style="fill: none; stroke: #ff0000; stroke-width: 0.72; stroke-linejoin: miter"/>
   </g>
   <g id="line2d_21">
    <path d="M 682.842231 143.765492 
L 682.842231 37.509217 
" clip-path="url(#p133f7215c3)" style="fill: none; stroke: #ffffff; stroke-width: 0.72; stroke-linecap: square"/>
   </g>
   <g id="line2d_22">
    <path d="M 682.842231 113.807408 
L 682.842231 92.380409 
" clip-path="url(#p133f7215c3)" style="fill: none; stroke: #ffffff; stroke-width: 0.72; stroke-linecap: square"/>
   </g>
   <g id="patch_18">
    <path d="M 673.914315 103.093909 
L 682.842231 94.165993 
L 691.770147 103.093909 
L 682.842231 112.021824 
L 673.914315 103.093909 
" clip-path="url(#p133f7215c3)" style="fill: none; stroke: #ff0000; stroke-width: 0.72; stroke-linejoin: miter"/>
   </g>
   <g id="line2d_23">
    <path d="M 682.842231 88.8943 
L 682.842231 67.467301 
" clip-path="url(#p133f7215c3)" style="fill: none; stroke: #ffffff; stroke-width: 0.72; stroke-linecap: square"/>
   </g>
   <g id="patch_19">
    <path d="M 673.914315 78.180801 
L 682.842231 69.252885 
L 691.770147 78.180801 
L 682.842231 87.108717 
L 673.914315 78.180801 
" clip-path="url(#p133f7215c3)" style="fill: none; stroke: #ff0000; stroke-width: 0.72; stroke-linejoin: miter"/>
   </g>
   <g id="patch_20">
    <path d="M 354.516074 110.701059 
L 350.944908 110.701059 
" clip-path="url(#p133f7215c3)" style="fill: none; stroke: #ff0000; stroke-width: 0.72; stroke-linejoin: miter"/>
   </g>
   <g id="patch_21">
    <path d="M 349.159325 110.701059 
L 345.588158 110.701059 
L 345.588158 128.556891 
L 349.159325 128.556891 
" clip-path="url(#p133f7215c3)" style="fill: none; stroke: #ff0000; stroke-width: 0.72; stroke-linejoin: miter"/>
   </g>
   <g id="patch_22">
    <path d="M 350.944908 128.556891 
L 354.516074 128.556891 
L 354.516074 119.628975 
L 350.944908 119.628975 
" clip-path="url(#p133f7215c3)" style="fill: none; stroke: #ff0000; stroke-width: 0.72; stroke-linejoin: miter"/>
   </g>
   <g id="patch_23">
    <path d="M 349.159325 119.628975 
L 345.588158 119.628975 
" clip-path="url(#p133f7215c3)" style="fill: none; stroke: #ff0000; stroke-width: 0.72; stroke-linejoin: miter"/>
   </g>
   <g id="patch_24">
    <path d="M 367.907948 119.628975 
L 364.336782 119.628975 
" clip-path="url(#p133f7215c3)" style="fill: none; stroke: #ff0000; stroke-width: 0.72; stroke-linejoin: miter"/>
   </g>
   <g id="patch_25">
    <path d="M 362.551199 119.628975 
L 358.980032 119.628975 
L 358.980032 110.701059 
L 362.551199 110.701059 
" clip-path="url(#p133f7215c3)" style="fill: none; stroke: #ff0000; stroke-width: 0.72; stroke-linejoin: miter"/>
   </g>
   <g id="patch_26">
    <path d="M 364.336782 110.701059 
L 367.907948 110.701059 
L 367.907948 128.556891 
L 364.336782 128.556891 
" clip-path="url(#p133f7215c3)" style="fill: none; stroke: #ff0000; stroke-width: 0.72; stroke-linejoin: miter"/>
   </g>
   <g id="patch_27">
    <path d="M 362.551199 128.556891 
L 358.980032 128.556891 
" clip-path="url(#p133f7215c3)" style="fill: none; stroke: #ff0000; stroke-width: 0.72; stroke-linejoin: miter"/>
   </g>
  </g>
 </g>
 <defs>
  <clipPath id="p133f7215c3">
   <rect x="0" y="0" width="1152" height="156.907635"/>
  </clipPath>
 </defs>
</svg>
