  0
SECTION
  2
HEADER
  9
$ACADVER
  1
AC1021
  9
$ACADMAINTVER
 70
25
  9
$DWGCODEPAGE
  3
ANSI_1252
  9
$LASTSAVEDBY
  1
ezdxf
  9
$INSBASE
 10
0.0
 20
0.0
 30
0.0
  9
$EXTMIN
 10
1e+20
 20
1e+20
 30
1e+20
  9
$EXTMAX
 10
-1e+20
 20
-1e+20
 30
-1e+20
  9
$LIMMIN
 10
0.0
 20
0.0
  9
$LIMMAX
 10
420.0
 20
297.0
  9
$ORTHOMODE
 70
0
  9
$REGENMODE
 70
1
  9
$FILLMODE
 70
1
  9
$QTEXTMODE
 70
0
  9
$MIRRTEXT
 70
1
  9
$LTSCALE
 40
1.0
  9
$ATTMODE
 70
1
  9
$TEXTSIZE
 40
2.5
  9
$TRACEWID
 40
1.0
  9
$TEXTSTYLE
  7
OpenSans
  9
$CLAYER
  8
0
  9
$CELTYPE
  6
ByLayer
  9
$CECOLOR
 62
256
  9
$CELTSCALE
 40
1.0
  9
$DISPSILH
 70
0
  9
$DIMSCALE
 40
1.0
  9
$DIMASZ
 40
0.175
  9
$DIMEXO
 40
0.125
  9
$DIMDLI
 40
3.75
  9
$DIMRND
 40
0.0
  9
$DIMDLE
 40
0.0
  9
$DIMEXE
 40
0.375
  9
$DIMTP
 40
0.0
  9
$DIMTM
 40
0.0
  9
$DIMTXT
 40
0.25
  9
$DIMCEN
 40
2.5
  9
$DIMTSZ
 40
0.0
  9
$DIMTOL
 70
0
  9
$DIMLIM
 70
0
  9
$DIMTIH
 70
0
  9
$DIMTOH
 70
0
  9
$DIMSE1
 70
0
  9
$DIMSE2
 70
0
  9
$DIMTAD
 70
1
  9
$DIMZIN
 70
12
  9
$DIMBLK
  1
ARCHTICK
  9
$DIMASO
 70
1
  9
$DIMSHO
 70
1
  9
$DIMPOST
  1

  9
$DIMAPOST
  1

  9
$DIMALT
 70
0
  9
$DIMALTD
 70
3
  9
$DIMALTF
 40
0.03937007874
  9
$DIMLFAC
 40
100.0
  9
$DIMTOFL
 70
1
  9
$DIMTVP
 40
0.0
  9
$DIMTIX
 70
0
  9
$DIMSOXD
 70
0
  9
$DIMSAH
 70
0
  9
$DIMBLK1
  1

  9
$DIMBLK2
  1

  9
$DIMSTYLE
  2
EZDXF
  9
$DIMCLRD
 70
0
  9
$DIMCLRE
 70
0
  9
$DIMCLRT
 70
0
  9
$DIMTFAC
 40
0.5
  9
$DIMGAP
 40
0.1
  9
$DIMJUST
 70
0
  9
$DIMSD1
 70
0
  9
$DIMSD2
 70
0
  9
$DIMTOLJ
 70
0
  9
$DIMTZIN
 70
8
  9
$DIMALTZ
 70
0
  9
$DIMALTTZ
 70
0
  9
$DIMUPT
 70
1
  9
$DIMDEC
 70
2
  9
$DIMTDEC
 70
2
  9
$DIMALTU
 70
2
  9
$DIMALTTD
 70
3
  9
$DIMTXSTY
  7
OpenSansCondensed-Light
  9
$DIMAUNIT
 70
0
  9
$DIMADEC
 70
2
  9
$DIMALTRND
 40
0.0
  9
$DIMAZIN
 70
3
  9
$DIMDSEP
 70
46
  9
$DIMATFIT
 70
3
  9
$DIMFRAC
 70
0
  9
$DIMLDRBLK
  1

  9
$DIMLUNIT
 70
2
  9
$DIMLWD
 70
-2
  9
$DIMLWE
 70
-2
  9
$DIMTMOVE
 70
2
  9
$DIMFXL
 40
1.0
  9
$DIMFXLON
 70
0
  9
$DIMJOGANG
 40
0.785398163397
  9
$DIMTFILL
 70
0
  9
$DIMTFILLCLR
 70
0
  9
$DIMARCSYM
 70
0
  9
$DIMLTYPE
  6

  9
$DIMLTEX1
  6

  9
$DIMLTEX2
  6

  9
$LUNITS
 70
2
  9
$LUPREC
 70
4
  9
$SKETCHINC
 40
1.0
  9
$FILLETRAD
 40
10.0
  9
$AUNITS
 70
0
  9
$AUPREC
 70
2
  9
$MENU
  1
.
  9
$ELEVATION
 40
0.0
  9
$PELEVATION
 40
0.0
  9
$THICKNESS
 40
0.0
  9
$LIMCHECK
 70
0
  9
$CHAMFERA
 40
0.0
  9
$CHAMFERB
 40
0.0
  9
$CHAMFERC
 40
0.0
  9
$CHAMFERD
 40
0.0
  9
$SKPOLY
 70
0
  9
$TDCREATE
 40
2461048.0883333334
  9
$TDUCREATE
 40
2458532.153996898
  9
$TDUPDATE
 40
2461048.0883333334
  9
$TDUUPDATE
 40
2458532.1544311
  9
$TDINDWG
 40
0.0
  9
$TDUSRTIMER
 40
0.0
  9
$USRTIMER
 70
1
  9
$ANGBASE
 50
0.0
  9
$ANGDIR
 70
0
  9
$PDMODE
 70
0
  9
$PDSIZE
 40
0.0
  9
$PLINEWID
 40
0.0
  9
$SPLFRAME
 70
0
  9
$SPLINETYPE
 70
6
  9
$SPLINESEGS
 70
8
  9
$HANDSEED
  5
BC
  9
$SURFTAB1
 70
6
  9
$SURFTAB2
 70
6
  9
$SURFTYPE
 70
6
  9
$SURFU
 70
6
  9
$SURFV
 70
6
  9
$UCSBASE
  2

  9
$UCSNAME
  2

  9
$UCSORG
 10
0.0
 20
0.0
 30
0.0
  9
$UCSXDIR
 10
1.0
 20
0.0
 30
0.0
  9
$UCSYDIR
 10
0.0
 20
1.0
 30
0.0
  9
$UCSORTHOREF
  2

  9
$UCSORTHOVIEW
 70
0
  9
$UCSORGTOP
 10
0.0
 20
0.0
 30
0.0
  9
$UCSORGBOTTOM
 10
0.0
 20
0.0
 30
0.0
  9
$UCSORGLEFT
 10
0.0
 20
0.0
 30
0.0
  9
$UCSORGRIGHT
 10
0.0
 20
0.0
 30
0.0
  9
$UCSORGFRONT
 10
0.0
 20
0.0
 30
0.0
  9
$UCSORGBACK
 10
0.0
 20
0.0
 30
0.0
  9
$PUCSBASE
  2

  9
$PUCSNAME
  2

  9
$PUCSORG
 10
0.0
 20
0.0
 30
0.0
  9
$PUCSXDIR
 10
1.0
 20
0.0
 30
0.0
  9
$PUCSYDIR
 10
0.0
 20
1.0
 30
0.0
  9
$PUCSORTHOREF
  2

  9
$PUCSORTHOVIEW
 70
0
  9
$PUCSORGTOP
 10
0.0
 20
0.0
 30
0.0
  9
$PUCSORGBOTTOM
 10
0.0
 20
0.0
 30
0.0
  9
$PUCSORGLEFT
 10
0.0
 20
0.0
 30
0.0
  9
$PUCSORGRIGHT
 10
0.0
 20
0.0
 30
0.0
  9
$PUCSORGFRONT
 10
0.0
 20
0.0
 30
0.0
  9
$PUCSORGBACK
 10
0.0
 20
0.0
 30
0.0
  9
$USERI1
 70
0
  9
$USERI2
 70
0
  9
$USERI3
 70
0
  9
$USERI4
 70
0
  9
$USERI5
 70
0
  9
$USERR1
 40
0.0
  9
$USERR2
 40
0.0
  9
$USERR3
 40
0.0
  9
$USERR4
 40
0.0
  9
$USERR5
 40
0.0
  9
$WORLDVIEW
 70
1
  9
$SHADEDGE
 70
3
  9
$SHADEDIF
 70
70
  9
$TILEMODE
 70
1
  9
$MAXACTVP
 70
64
  9
$PINSBASE
 10
0.0
 20
0.0
 30
0.0
  9
$PLIMCHECK
 70
0
  9
$PEXTMIN
 10
1e+20
 20
1e+20
 30
1e+20
  9
$PEXTMAX
 10
-1e+20
 20
-1e+20
 30
-1e+20
  9
$PLIMMIN
 10
0.0
 20
0.0
  9
$PLIMMAX
 10
420.0
 20
297.0
  9
$UNITMODE
 70
0
  9
$VISRETAIN
 70
1
  9
$PLINEGEN
 70
0
  9
$PSLTSCALE
 70
1
  9
$TREEDEPTH
 70
3020
  9
$CMLSTYLE
  2
Standard
  9
$CMLJUST
 70
0
  9
$CMLSCALE
 40
20.0
  9
$PROXYGRAPHICS
 70
1
  9
$MEASUREMENT
 70
1
  9
$CELWEIGHT
370
-1
  9
$ENDCAPS
280
0
  9
$JOINSTYLE
280
0
  9
$LWDISPLAY
290
0
  9
$INSUNITS
 70
6
  9
$HYPERLINKBASE
  1

  9
$STYLESHEET
  1

  9
$XEDIT
290
1
  9
$CEPSNTYPE
380
0
  9
$PSTYLEMODE
290
1
  9
$FINGERPRINTGUID
  2
{0E5B316D-3F6F-4CD8-9370-80C1BC0BEC2B}
  9
$VERSIONGUID
  2
{486EBE85-0955-4BAE-AE2D-9C1B933DC17B}
  9
$EXTNAMES
290
1
  9
$PSVPSCALE
 40
0.0
  9
$OLESTARTUP
290
0
  9
$SORTENTS
280
127
  9
$INDEXCTL
280
0
  9
$HIDETEXT
280
1
  9
$XCLIPFRAME
290
1
  9
$HALOGAP
280
0
  9
$OBSCOLOR
 70
257
  9
$OBSLTYPE
280
0
  9
$INTERSECTIONDISPLAY
280
0
  9
$INTERSECTIONCOLOR
 70
257
  9
$DIMASSOC
280
2
  9
$PROJECTNAME
  1

  9
$CAMERADISPLAY
290
0
  9
$LENSLENGTH
 40
50.0
  9
$CAMERAHEIGHT
 40
0.0
  9
$STEPSPERSEC
 40
24.0
  9
$STEPSIZE
 40
100.0
  9
$3DDWFPREC
 40
2.0
  9
$PSOLWIDTH
 40
0.005
  9
$PSOLHEIGHT
 40
0.08
  9
$LOFTANG1
 40
1.570796326795
  9
$LOFTANG2
 40
1.570796326795
  9
$LOFTMAG1
 40
0.0
  9
$LOFTMAG2
 40
0.0
  9
$LOFTPARAM
 70
7
  9
$LOFTNORMALS
280
1
  9
$LATITUDE
 40
37.795
  9
$LONGITUDE
 40
-122.394
  9
$NORTHDIRECTION
 40
0.0
  9
$TIMEZONE
 70
-8000
  9
$LIGHTGLYPHDISPLAY
280
1
  9
$TILEMODELIGHTSYNCH
280
1
  9
$CMATERIAL
347
20
  9
$SOLIDHIST
280
0
  9
$SHOWHIST
280
1
  9
$DWFFRAME
280
2
  9
$DGNFRAME
280
2
  9
$REALWORLDSCALE
290
1
  9
$INTERFERECOLOR
 62
256
  9
$CSHADOW
280
0
  9
$SHADOWPLANELOCATION
 40
0.0
  0
ENDSEC
  0
SECTION
  2
CLASSES
  0
CLASS
  1
ACDBDICTIONARYWDFLT
  2
AcDbDictionaryWithDefault
  3
ObjectDBX Classes
 90
0
 91
0
280
0
281
0
  0
CLASS
  1
SUN
  2
AcDbSun
  3
SCENEOE
 90
1153
 91
0
280
0
281
0
  0
CLASS
  1
VISUALSTYLE
  2
AcDbVisualStyle
  3
ObjectDBX Classes
 90
4095
 91
0
280
0
281
0
  0
CLASS
  1
MATERIAL
  2
AcDbMaterial
  3
ObjectDBX Classes
 90
1153
 91
0
280
0
281
0
  0
CLASS
  1
SCALE
  2
AcDbScale
  3
ObjectDBX Classes
 90
1153
 91
0
280
0
281
0
  0
CLASS
  1
TABLESTYLE
  2
AcDbTableStyle
  3
ObjectDBX Classes
 90
4095
 91
0
280
0
281
0
  0
CLASS
  1
MLEADERSTYLE
  2
AcDbMLeaderStyle
  3
ACDB_MLEADERSTYLE_CLASS
 90
4095
 91
0
280
0
281
0
  0
CLASS
  1
DICTIONARYVAR
  2
AcDbDictionaryVar
  3
ObjectDBX Classes
 90
0
 91
0
280
0
281
0
  0
CLASS
  1
CELLSTYLEMAP
  2
AcDbCellStyleMap
  3
ObjectDBX Classes
 90
1152
 91
0
280
0
281
0
  0
CLASS
  1
MENTALRAYRENDERSETTINGS
  2
AcDbMentalRayRenderSettings
  3
SCENEOE
 90
1024
 91
0
280
0
281
0
  0
CLASS
  1
ACDBDETAILVIEWSTYLE
  2
AcDbDetailViewStyle
  3
ObjectDBX Classes
 90
1025
 91
0
280
0
281
0
  0
CLASS
  1
ACDBSECTIONVIEWSTYLE
  2
AcDbSectionViewStyle
  3
ObjectDBX Classes
 90
1025
 91
0
280
0
281
0
  0
CLASS
  1
RASTERVARIABLES
  2
AcDbRasterVariables
  3
ISM
 90
0
 91
0
280
0
281
0
  0
CLASS
  1
ACDBPLACEHOLDER
  2
AcDbPlaceHolder
  3
ObjectDBX Classes
 90
0
 91
0
280
0
281
0
  0
CLASS
  1
LAYOUT
  2
AcDbLayout
  3
ObjectDBX Classes
 90
0
 91
0
280
0
281
0
  0
ENDSEC
  0
SECTION
  2
TABLES
  0
TABLE
  2
VPORT
  5
8
330
0
100
AcDbSymbolTable
 70
1
  0
VPORT
  5
23
330
8
100
AcDbSymbolTableRecord
100
AcDbViewportTableRecord
  2
*Active
 70
0
 10
0.0
 20
0.0
 11
1.0
 21
1.0
 12
0.0
 22
0.0
 13
0.0
 23
0.0
 14
0.5
 24
0.5
 15
0.5
 25
0.5
 16
0.0
 26
0.0
 36
1.0
 17
0.0
 27
0.0
 37
0.0
 40
1000.0
 41
1.34
 42
50.0
 43
0.0
 44
0.0
 50
0.0
 51
0.0
 71
0
 72
1000
 73
1
 74
3
 75
0
 76
0
 77
0
 78
0
281
0
 65
0
146
0.0
  0
ENDTAB
  0
TABLE
  2
LTYPE
  5
2
330
0
100
AcDbSymbolTable
 70
21
  0
LTYPE
  5
24
330
2
100
AcDbSymbolTableRecord
100
AcDbLinetypeTableRecord
  2
ByBlock
 70
0
  3

 72
65
 73
0
 40
0.0
  0
LTYPE
  5
25
330
2
100
AcDbSymbolTableRecord
100
AcDbLinetypeTableRecord
  2
ByLayer
 70
0
  3

 72
65
 73
0
 40
0.0
  0
LTYPE
  5
26
330
2
100
AcDbSymbolTableRecord
100
AcDbLinetypeTableRecord
  2
Continuous
 70
0
  3

 72
65
 73
0
 40
0.0
  0
LTYPE
  5
2F
330
2
100
AcDbSymbolTableRecord
100
AcDbLinetypeTableRecord
  2
CENTER
 70
0
  3
Center ____ _ ____ _ ____ _ ____ _ ____ _ ____
 72
65
 73
4
 40
5.08
 49
3.175
 74
0
 49
-0.635
 74
0
 49
0.635
 74
0
 49
-0.635
 74
0
  0
LTYPE
  5
30
330
2
100
AcDbSymbolTableRecord
100
AcDbLinetypeTableRecord
  2
CENTERX2
 70
0
  3
Center (2x) ________  __  ________  __  ________
 72
65
 73
4
 40
8.89
 49
6.35
 74
0
 49
-0.635
 74
0
 49
1.27
 74
0
 49
-0.635
 74
0
  0
LTYPE
  5
31
330
2
100
AcDbSymbolTableRecord
100
AcDbLinetypeTableRecord
  2
CENTER2
 70
0
  3
Center (.5x) ____ _ ____ _ ____ _ ____ _ ____
 72
65
 73
4
 40
2.54
 49
1.587
 74
0
 49
-0.318
 74
0
 49
0.318
 74
0
 49
-0.318
 74
0
  0
LTYPE
  5
32
330
2
100
AcDbSymbolTableRecord
100
AcDbLinetypeTableRecord
  2
DASHED
 70
0
  3
Dashed __ __ __ __ __ __ __ __ __ __ __ __ __ _
 72
65
 73
2
 40
1.524
 49
1.27
 74
0
 49
-0.254
 74
0
  0
LTYPE
  5
33
330
2
100
AcDbSymbolTableRecord
100
AcDbLinetypeTableRecord
  2
DASHEDX2
 70
0
  3
Dashed (2x) ____  ____  ____  ____  ____  ____
 72
65
 73
2
 40
3.048
 49
2.54
 74
0
 49
-0.508
 74
0
  0
LTYPE
  5
34
330
2
100
AcDbSymbolTableRecord
100
AcDbLinetypeTableRecord
  2
DASHED2
 70
0
  3
Dashed (.5x) _ _ _ _ _ _ _ _ _ _ _ _ _ _
 72
65
 73
2
 40
0.762
 49
0.635
 74
0
 49
-0.127
 74
0
  0
LTYPE
  5
35
330
2
100
AcDbSymbolTableRecord
100
AcDbLinetypeTableRecord
  2
PHANTOM
 70
0
  3
Phantom ______  __  __  ______  __  __  ______
 72
65
 73
6
 40
6.35
 49
3.175
 74
0
 49
-0.635
 74
0
 49
0.635
 74
0
 49
-0.635
 74
0
 49
0.635
 74
0
 49
-0.635
 74
0
  0
LTYPE
  5
36
330
2
100
AcDbSymbolTableRecord
100
AcDbLinetypeTableRecord
  2
PHANTOMX2
 70
0
  3
Phantom (2x)____________    ____    ____    ____________
 72
65
 73
6
 40
10.795
 49
6.35
 74
0
 49
-0.635
 74
0
 49
1.27
 74
0
 49
-0.635
 74
0
 49
1.27
 74
0
 49
-0.635
 74
0
  0
LTYPE
  5
37
330
2
100
AcDbSymbolTableRecord
100
AcDbLinetypeTableRecord
  2
PHANTOM2
 70
0
  3
Phantom (.5x) ___ _ _ ___ _ _ ___ _ _ ___ _ _ ___
 72
65
 73
6
 40
3.175
 49
1.587
 74
0
 49
-0.318
 74
0
 49
0.318
 74
0
 49
-0.318
 74
0
 49
0.318
 74
0
 49
-0.318
 74
0
  0
LTYPE
  5
38
330
2
100
AcDbSymbolTableRecord
100
AcDbLinetypeTableRecord
  2
DASHDOT
 70
0
  3
Dash dot __ . __ . __ . __ . __ . __ . __ . __
 72
65
 73
4
 40
3.556
 49
2.54
 74
0
 49
-0.508
 74
0
 49
0.0
 74
0
 49
-0.508
 74
0
  0
LTYPE
  5
39
330
2
100
AcDbSymbolTableRecord
100
AcDbLinetypeTableRecord
  2
DASHDOTX2
 70
0
  3
Dash dot (2x) ____  .  ____  .  ____  .  ____
 72
65
 73
4
 40
6.096
 49
5.08
 74
0
 49
-0.508
 74
0
 49
0.0
 74
0
 49
-0.508
 74
0
  0
LTYPE
  5
3A
330
2
100
AcDbSymbolTableRecord
100
AcDbLinetypeTableRecord
  2
DASHDOT2
 70
0
  3
Dash dot (.5x) _ . _ . _ . _ . _ . _ . _ . _
 72
65
 73
4
 40
1.778
 49
1.27
 74
0
 49
-0.254
 74
0
 49
0.0
 74
0
 49
-0.254
 74
0
  0
LTYPE
  5
3B
330
2
100
AcDbSymbolTableRecord
100
AcDbLinetypeTableRecord
  2
DOT
 70
0
  3
Dot .  .  .  .  .  .  .  .  .  .  .  .  .  .  .  .
 72
65
 73
2
 40
0.508
 49
0.0
 74
0
 49
-0.508
 74
0
  0
LTYPE
  5
3C
330
2
100
AcDbSymbolTableRecord
100
AcDbLinetypeTableRecord
  2
DOTX2
 70
0
  3
Dot (2x) .    .    .    .    .    .    .    . 
 72
65
 73
2
 40
1.016
 49
0.0
 74
0
 49
-1.016
 74
0
  0
LTYPE
  5
3D
330
2
100
AcDbSymbolTableRecord
100
AcDbLinetypeTableRecord
  2
DOT2
 70
0
  3
Dot (.5) . . . . . . . . . . . . . . . . . . . 
 72
65
 73
2
 40
0.254
 49
0.0
 74
0
 49
-0.254
 74
0
  0
LTYPE
  5
3E
330
2
100
AcDbSymbolTableRecord
100
AcDbLinetypeTableRecord
  2
DIVIDE
 70
0
  3
Divide __ . . __ . . __ . . __ . . __ . . __
 72
65
 73
6
 40
4.064
 49
2.54
 74
0
 49
-0.508
 74
0
 49
0.0
 74
0
 49
-0.508
 74
0
 49
0.0
 74
0
 49
-0.508
 74
0
  0
LTYPE
  5
3F
330
2
100
AcDbSymbolTableRecord
100
AcDbLinetypeTableRecord
  2
DIVIDEX2
 70
0
  3
Divide (2x) ____  . .  ____  . .  ____  . .  ____
 72
65
 73
6
 40
6.604
 49
5.08
 74
0
 49
-0.508
 74
0
 49
0.0
 74
0
 49
-0.508
 74
0
 49
0.0
 74
0
 49
-0.508
 74
0
  0
LTYPE
  5
40
330
2
100
AcDbSymbolTableRecord
100
AcDbLinetypeTableRecord
  2
DIVIDE2
 70
0
  3
Divide(.5x) _ . _ . _ . _ . _ . _ . _ . _
 72
65
 73
6
 40
2.032
 49
1.27
 74
0
 49
-0.254
 74
0
 49
0.0
 74
0
 49
-0.254
 74
0
 49
0.0
 74
0
 49
-0.254
 74
0
  0
ENDTAB
  0
TABLE
  2
LAYER
  5
1
330
0
100
AcDbSymbolTable
 70
5
  0
LAYER
  5
27
330
1
100
AcDbSymbolTableRecord
100
AcDbLayerTableRecord
  2
0
 70
0
 62
7
  6
Continuous
370
-3
390
13
347
21
  0
LAYER
  5
28
330
1
100
AcDbSymbolTableRecord
100
AcDbLayerTableRecord
  2
Defpoints
 70
0
 62
7
  6
Continuous
290
0
370
-3
390
13
347
21
  0
LAYER
  5
8A
330
1
100
AcDbSymbolTableRecord
100
AcDbLayerTableRecord
  2
Layer
 70
0
 62
1
  6
Continuous
370
50
390
13
347
21
  0
LAYER
  5
8B
330
1
100
AcDbSymbolTableRecord
100
AcDbLayerTableRecord
  2
NumLabel
 70
0
 62
1
  6
Continuous
370
15
390
13
347
21
  0
LAYER
  5
BA
330
1
100
AcDbSymbolTableRecord
100
AcDbLayerTableRecord
  2
SplitMark
 70
0
 62
3
  6
Continuous
370
-3
390
13
347
21
  0
ENDTAB
  0
TABLE
  2
STYLE
  5
5
330
0
100
AcDbSymbolTable
 70
26
  0
STYLE
  5
29
330
5
100
AcDbSymbolTableRecord
100
AcDbTextStyleTableRecord
  2
Standard
 70
0
 40
0.0
 41
1.0
 50
0.0
 71
0
 42
2.5
  3
txt
  4

  0
STYLE
  5
41
330
5
100
AcDbSymbolTableRecord
100
AcDbTextStyleTableRecord
  2
OpenSans-Light
 70
0
 40
0.0
 41
1.0
 50
0.0
 71
0
 42
2.5
  3
OpenSans-Light.ttf
  4

  0
STYLE
  5
42
330
5
100
AcDbSymbolTableRecord
100
AcDbTextStyleTableRecord
  2
OpenSans-Light-Italic
 70
0
 40
0.0
 41
1.0
 50
0.0
 71
0
 42
2.5
  3
OpenSans-LightItalic.ttf
  4

  0
STYLE
  5
43
330
5
100
AcDbSymbolTableRecord
100
AcDbTextStyleTableRecord
  2
OpenSans
 70
0
 40
0.0
 41
1.0
 50
0.0
 71
0
 42
2.5
  3
OpenSans-Regular.ttf
  4

  0
STYLE
  5
44
330
5
100
AcDbSymbolTableRecord
100
AcDbTextStyleTableRecord
  2
OpenSans-Italic
 70
0
 40
0.0
 41
1.0
 50
0.0
 71
0
 42
2.5
  3
OpenSans-Italic.ttf
  4

  0
STYLE
  5
45
330
5
100
AcDbSymbolTableRecord
100
AcDbTextStyleTableRecord
  2
OpenSans-SemiBold
 70
0
 40
0.0
 41
1.0
 50
0.0
 71
0
 42
2.5
  3
OpenSans-SemiBold.ttf
  4

  0
STYLE
  5
46
330
5
100
AcDbSymbolTableRecord
100
AcDbTextStyleTableRecord
  2
OpenSans-SemiBoldItalic
 70
0
 40
0.0
 41
1.0
 50
0.0
 71
0
 42
2.5
  3
OpenSans-SemiBoldItalic.ttf
  4

  0
STYLE
  5
47
330
5
100
AcDbSymbolTableRecord
100
AcDbTextStyleTableRecord
  2
OpenSans-Bold
 70
0
 40
0.0
 41
1.0
 50
0.0
 71
0
 42
2.5
  3
OpenSans-Bold.ttf
  4

  0
STYLE
  5
48
330
5
100
AcDbSymbolTableRecord
100
AcDbTextStyleTableRecord
  2
OpenSans-BoldItalic
 70
0
 40
0.0
 41
1.0
 50
0.0
 71
0
 42
2.5
  3
OpenSans-BoldItalic.ttf
  4

  0
STYLE
  5
49
330
5
100
AcDbSymbolTableRecord
100
AcDbTextStyleTableRecord
  2
OpenSans-ExtraBold
 70
0
 40
0.0
 41
1.0
 50
0.0
 71
0
 42
2.5
  3
OpenSans-ExtraBold.ttf
  4

  0
STYLE
  5
4A
330
5
100
AcDbSymbolTableRecord
100
AcDbTextStyleTableRecord
  2
OpenSans-ExtraBoldItalic
 70
0
 40
0.0
 41
1.0
 50
0.0
 71
0
 42
2.5
  3
OpenSans-ExtraBoldItalic.ttf
  4

  0
STYLE
  5
4B
330
5
100
AcDbSymbolTableRecord
100
AcDbTextStyleTableRecord
  2
OpenSansCondensed-Bold
 70
0
 40
0.0
 41
1.0
 50
0.0
 71
0
 42
2.5
  3
OpenSansCondensed-Bold.ttf
  4

  0
STYLE
  5
4C
330
5
100
AcDbSymbolTableRecord
100
AcDbTextStyleTableRecord
  2
OpenSansCondensed-Light
 70
0
 40
0.0
 41
1.0
 50
0.0
 71
0
 42
2.5
  3
OpenSansCondensed-Light.ttf
  4

  0
STYLE
  5
4D
330
5
100
AcDbSymbolTableRecord
100
AcDbTextStyleTableRecord
  2
OpenSansCondensed-Italic
 70
0
 40
0.0
 41
1.0
 50
0.0
 71
0
 42
2.5
  3
OpenSansCondensed-LightItalic.ttf
  4

  0
STYLE
  5
4E
330
5
100
AcDbSymbolTableRecord
100
AcDbTextStyleTableRecord
  2
LiberationSans
 70
0
 40
0.0
 41
1.0
 50
0.0
 71
0
 42
2.5
  3
LiberationSans-Regular.ttf
  4

  0
STYLE
  5
4F
330
5
100
AcDbSymbolTableRecord
100
AcDbTextStyleTableRecord
  2
LiberationSans-Bold
 70
0
 40
0.0
 41
1.0
 50
0.0
 71
0
 42
2.5
  3
LiberationSans-Bold.ttf
  4

  0
STYLE
  5
50
330
5
100
AcDbSymbolTableRecord
100
AcDbTextStyleTableRecord
  2
LiberationSans-BoldItalic
 70
0
 40
0.0
 41
1.0
 50
0.0
 71
0
 42
2.5
  3
LiberationSans-BoldItalic.ttf
  4

  0
STYLE
  5
51
330
5
100
AcDbSymbolTableRecord
100
AcDbTextStyleTableRecord
  2
LiberationSans-Italic
 70
0
 40
0.0
 41
1.0
 50
0.0
 71
0
 42
2.5
  3
LiberationSans-Italic.ttf
  4

  0
STYLE
  5
52
330
5
100
AcDbSymbolTableRecord
100
AcDbTextStyleTableRecord
  2
LiberationSerif
 70
0
 40
0.0
 41
1.0
 50
0.0
 71
0
 42
2.5
  3
LiberationSerif-Regular.ttf
  4

  0
STYLE
  5
53
330
5
100
AcDbSymbolTableRecord
100
AcDbTextStyleTableRecord
  2
LiberationSerif-Bold
 70
0
 40
0.0
 41
1.0
 50
0.0
 71
0
 42
2.5
  3
LiberationSerif-Bold.ttf
  4

  0
STYLE
  5
54
330
5
100
AcDbSymbolTableRecord
100
AcDbTextStyleTableRecord
  2
LiberationSerif-BoldItalic
 70
0
 40
0.0
 41
1.0
 50
0.0
 71
0
 42
2.5
  3
LiberationSerif-BoldItalic.ttf
  4

  0
STYLE
  5
55
330
5
100
AcDbSymbolTableRecord
100
AcDbTextStyleTableRecord
  2
LiberationSerif-Italic
 70
0
 40
0.0
 41
1.0
 50
0.0
 71
0
 42
2.5
  3
LiberationSerif-Italic.ttf
  4

  0
STYLE
  5
56
330
5
100
AcDbSymbolTableRecord
100
AcDbTextStyleTableRecord
  2
LiberationMono
 70
0
 40
0.0
 41
1.0
 50
0.0
 71
0
 42
2.5
  3
LiberationMono-Regular.ttf
  4

  0
STYLE
  5
57
330
5
100
AcDbSymbolTableRecord
100
AcDbTextStyleTableRecord
  2
LiberationMono-Bold
 70
0
 40
0.0
 41
1.0
 50
0.0
 71
0
 42
2.5
  3
LiberationMono-Bold.ttf
  4

  0
STYLE
  5
58
330
5
100
AcDbSymbolTableRecord
100
AcDbTextStyleTableRecord
  2
LiberationMono-BoldItalic
 70
0
 40
0.0
 41
1.0
 50
0.0
 71
0
 42
2.5
  3
LiberationMono-BoldItalic.ttf
  4

  0
STYLE
  5
59
330
5
100
AcDbSymbolTableRecord
100
AcDbTextStyleTableRecord
  2
LiberationMono-Italic
 70
0
 40
0.0
 41
1.0
 50
0.0
 71
0
 42
2.5
  3
LiberationMono-Italic.ttf
  4

  0
ENDTAB
  0
TABLE
  2
VIEW
  5
7
330
0
100
AcDbSymbolTable
 70
0
  0
ENDTAB
  0
TABLE
  2
UCS
  5
6
330
0
100
AcDbSymbolTable
 70
0
  0
ENDTAB
  0
TABLE
  2
APPID
  5
3
330
0
100
AcDbSymbolTable
 70
3
  0
APPID
  5
2A
330
3
100
AcDbSymbolTableRecord
100
AcDbRegAppTableRecord
  2
ACAD
 70
0
  0
APPID
  5
B7
330
3
100
AcDbSymbolTableRecord
100
AcDbRegAppTableRecord
  2
HATCHBACKGROUNDCOLOR
 70
0
  0
APPID
  5
B8
330
3
100
AcDbSymbolTableRecord
100
AcDbRegAppTableRecord
  2
EZDXF
 70
0
  0
ENDTAB
  0
TABLE
  2
DIMSTYLE
  5
4
330
0
100
AcDbSymbolTable
 70
12
100
AcDbDimStyleTable
  0
DIMSTYLE
105
2B
330
4
100
AcDbSymbolTableRecord
100
AcDbDimStyleTableRecord
  2
Standard
 70
0
 40
1.0
 41
2.5
 42
0.625
 43
3.75
 44
1.25
 45
0.0
 46
0.0
 47
0.0
 48
0.0
 49
2.5
140
2.5
141
2.5
142
0.0
143
0.03937007874
144
1.0
145
0.0
146
1.0
147
0.625
148
0.0
 69
0
 70
0
 71
0
 72
0
 73
0
 74
0
 75
0
 76
0
 77
1
 78
8
 79
3
170
0
171
3
172
1
173
0
174
0
175
0
176
0
177
0
178
0
179
2
271
2
272
2
273
2
274
3
275
0
276
0
277
2
278
44
279
0
280
0
281
0
282
0
283
0
284
8
285
0
286
0
288
0
289
3
290
0
371
-2
372
-2
  0
DIMSTYLE
105
73
330
4
100
AcDbSymbolTableRecord
100
AcDbDimStyleTableRecord
  2
EZDXF
 70
0
 40
1.0
 41
0.175
 42
0.125
 43
3.75
 44
0.375
 45
0.0
 46
0.0
 47
0.0
 48
0.0
 49
2.5
140
0.25
141
2.5
142
0.0
143
0.03937007874
144
100.0
145
0.0
146
0.5
147
0.1
148
0.0
 69
0
 70
0
 71
0
 72
0
 73
0
 74
0
 75
0
 76
0
 77
1
 78
12
 79
3
170
0
171
3
172
1
173
0
174
0
175
0
176
0
177
0
178
0
179
2
271
2
272
2
273
2
274
3
275
0
276
0
277
2
278
46
279
2
280
0
281
0
282
0
283
0
284
8
285
0
286
0
288
1
289
3
290
0
340
4C
342
74
371
-2
372
-2
  0
DIMSTYLE
105
7C
330
4
100
AcDbSymbolTableRecord
100
AcDbDimStyleTableRecord
  2
EZ_M_100_H25_CM
 70
0
 40
1.0
 41
0.25
 42
0.125
 43
3.75
 44
0.375
 45
0.0
 46
0.0
 47
0.0
 48
0.0
 49
2.5
140
0.25
141
2.5
142
0.125
143
0.03937007874
144
100.0
145
0.0
146
0.5
147
0.1
148
0.0
 69
0
 70
0
 71
0
 72
0
 73
0
 74
0
 75
0
 76
0
 77
1
 78
12
 79
3
170
0
171
3
172
1
173
0
174
0
175
0
176
0
177
0
178
0
179
2
271
2
272
2
273
2
274
3
275
0
276
0
277
2
278
46
279
2
280
0
281
0
282
0
283
0
284
8
285
0
286
0
288
1
289
3
290
0
340
4C
371
-2
372
-2
  0
DIMSTYLE
105
7D
330
4
100
AcDbSymbolTableRecord
100
AcDbDimStyleTableRecord
  2
EZ_M_50_H25_CM
 70
0
 40
1.0
 41
0.125
 42
0.0625
 43
3.75
 44
0.1875
 45
0.0
 46
0.0
 47
0.0
 48
0.0
 49
2.5
140
0.125
141
2.5
142
0.0625
143
0.03937007874
144
100.0
145
0.0
146
0.5
147
0.05
148
0.0
 69
0
 70
0
 71
0
 72
0
 73
0
 74
0
 75
0
 76
0
 77
1
 78
12
 79
3
170
0
171
3
172
1
173
0
174
0
175
0
176
0
177
0
178
0
179
2
271
2
272
2
273
2
274
3
275
0
276
0
277
2
278
46
279
2
280
0
281
0
282
0
283
0
284
8
285
0
286
0
288
1
289
3
290
0
340
4C
371
-2
372
-2
  0
DIMSTYLE
105
7E
330
4
100
AcDbSymbolTableRecord
100
AcDbDimStyleTableRecord
  2
EZ_M_25_H25_CM
 70
0
 40
1.0
 41
0.0625
 42
0.03125
 43
3.75
 44
0.09375
 45
0.0
 46
0.0
 47
0.0
 48
0.0
 49
2.5
140
0.0625
141
2.5
142
0.03125
143
0.03937007874
144
100.0
145
0.0
146
0.5
147
0.025
148
0.0
 69
0
 70
0
 71
0
 72
0
 73
0
 74
0
 75
0
 76
0
 77
1
 78
12
 79
3
170
0
171
3
172
1
173
0
174
0
175
0
176
0
177
0
178
0
179
2
271
2
272
2
273
2
274
3
275
0
276
0
277
2
278
46
279
2
280
0
281
0
282
0
283
0
284
8
285
0
286
0
288
1
289
3
290
0
340
4C
371
-2
372
-2
  0
DIMSTYLE
105
7F
330
4
100
AcDbSymbolTableRecord
100
AcDbDimStyleTableRecord
  2
EZ_M_20_H25_CM
 70
0
 40
1.0
 41
0.05
 42
0.025
 43
3.75
 44
0.07500000000000001
 45
0.0
 46
0.0
 47
0.0
 48
0.0
 49
2.5
140
0.05
141
2.5
142
0.025
143
0.03937007874
144
100.0
145
0.0
146
0.5
147
0.020000000000000004
148
0.0
 69
0
 70
0
 71
0
 72
0
 73
0
 74
0
 75
0
 76
0
 77
1
 78
12
 79
3
170
0
171
3
172
1
173
0
174
0
175
0
176
0
177
0
178
0
179
2
271
2
272
2
273
2
274
3
275
0
276
0
277
2
278
46
279
2
280
0
281
0
282
0
283
0
284
8
285
0
286
0
288
1
289
3
290
0
340
4C
371
-2
372
-2
  0
DIMSTYLE
105
80
330
4
100
AcDbSymbolTableRecord
100
AcDbDimStyleTableRecord
  2
EZ_M_10_H25_CM
 70
0
 40
1.0
 41
0.025
 42
0.0125
 43
3.75
 44
0.037500000000000006
 45
0.0
 46
0.0
 47
0.0
 48
0.0
 49
2.5
140
0.025
141
2.5
142
0.0125
143
0.03937007874
144
100.0
145
0.0
146
0.5
147
0.010000000000000002
148
0.0
 69
0
 70
0
 71
0
 72
0
 73
0
 74
0
 75
0
 76
0
 77
1
 78
12
 79
3
170
0
171
3
172
1
173
0
174
0
175
0
176
0
177
0
178
0
179
2
271
2
272
2
273
2
274
3
275
0
276
0
277
2
278
46
279
2
280
0
281
0
282
0
283
0
284
8
285
0
286
0
288
1
289
3
290
0
340
4C
371
-2
372
-2
  0
DIMSTYLE
105
81
330
4
100
AcDbSymbolTableRecord
100
AcDbDimStyleTableRecord
  2
EZ_M_5_H25_CM
 70
0
 40
1.0
 41
0.0125
 42
0.00625
 43
3.75
 44
0.018750000000000003
 45
0.0
 46
0.0
 47
0.0
 48
0.0
 49
2.5
140
0.0125
141
2.5
142
0.00625
143
0.03937007874
144
100.0
145
0.0
146
0.5
147
0.005000000000000001
148
0.0
 69
0
 70
0
 71
0
 72
0
 73
0
 74
0
 75
0
 76
0
 77
1
 78
12
 79
3
170
0
171
3
172
1
173
0
174
0
175
0
176
0
177
0
178
0
179
2
271
2
272
2
273
2
274
3
275
0
276
0
277
2
278
46
279
2
280
0
281
0
282
0
283
0
284
8
285
0
286
0
288
1
289
3
290
0
340
4C
371
-2
372
-2
  0
DIMSTYLE
105
82
330
4
100
AcDbSymbolTableRecord
100
AcDbDimStyleTableRecord
  2
EZ_M_1_H25_CM
 70
0
 40
1.0
 41
0.0025
 42
0.00125
 43
3.75
 44
0.00375
 45
0.0
 46
0.0
 47
0.0
 48
0.0
 49
2.5
140
0.0025
141
2.5
142
0.00125
143
0.03937007874
144
100.0
145
0.0
146
0.5
147
0.001
148
0.0
 69
0
 70
0
 71
0
 72
0
 73
0
 74
0
 75
0
 76
0
 77
1
 78
12
 79
3
170
0
171
3
172
1
173
0
174
0
175
0
176
0
177
0
178
0
179
2
271
2
272
2
273
2
274
3
275
0
276
0
277
2
278
46
279
2
280
0
281
0
282
0
283
0
284
8
285
0
286
0
288
1
289
3
290
0
340
4C
371
-2
372
-2
  0
DIMSTYLE
105
83
330
4
100
AcDbSymbolTableRecord
100
AcDbDimStyleTableRecord
  2
EZ_RADIUS
 70
0
 40
1.0
 41
0.25
 42
0.125
 43
3.75
 44
0.375
 45
0.0
 46
0.0
 47
0.0
 48
0.0
 49
2.5
140
0.25
141
0.0
142
0.0
143
0.03937007874
144
100.0
145
0.0
146
0.5
147
0.1
148
0.0
 69
0
 70
0
 71
0
 72
0
 73
0
 74
0
 75
0
 76
0
 77
1
 78
12
 79
3
170
0
171
3
172
0
173
0
174
0
175
0
176
0
177
0
178
0
179
2
271
2
272
2
273
2
274
3
275
0
276
0
277
2
278
46
279
1
280
0
281
0
282
0
283
0
284
8
285
0
286
0
288
1
289
3
290
0
340
4C
342
84
371
-2
372
-2
  0
DIMSTYLE
105
88
330
4
100
AcDbSymbolTableRecord
100
AcDbDimStyleTableRecord
  2
EZ_RADIUS_INSIDE
 70
0
 40
1.0
 41
0.25
 42
0.125
 43
3.75
 44
0.375
 45
0.0
 46
0.0
 47
0.0
 48
0.0
 49
2.5
140
0.25
141
0.0
142
0.0
143
0.03937007874
144
100.0
145
0.0
146
0.5
147
0.1
148
0.0
 69
0
 70
0
 71
0
 72
0
 73
0
 74
0
 75
0
 76
0
 77
0
 78
12
 79
3
170
0
171
3
172
0
173
0
174
1
175
0
176
0
177
0
178
0
179
2
271
2
272
2
273
2
274
3
275
0
276
0
277
2
278
46
279
0
280
0
281
0
282
0
283
0
284
8
285
0
286
0
288
1
289
0
290
0
340
4C
342
84
371
-2
372
-2
  0
DIMSTYLE
105
89
330
4
100
AcDbSymbolTableRecord
100
AcDbDimStyleTableRecord
  2
EZ_CURVED
 70
0
 40
1.0
 41
0.25
 42
0.125
 43
3.75
 44
0.375
 45
0.0
 46
0.0
 47
0.0
 48
0.0
 49
2.5
140
0.25
141
2.5
142
0.0
143
0.03937007874
144
100.0
145
0.0
146
0.5
147
0.1
148
0.0
 69
0
 70
0
 71
0
 72
0
 73
0
 74
0
 75
0
 76
0
 77
1
 78
12
 79
2
 90
2
170
0
171
3
172
1
173
0
174
0
175
0
176
0
177
0
178
0
179
2
271
2
272
2
273
2
274
3
275
0
276
0
277
2
278
46
279
2
280
0
281
0
282
0
283
0
284
8
285
0
286
0
288
1
289
3
290
0
340
4C
371
-2
372
-2
  0
ENDTAB
  0
TABLE
  2
BLOCK_RECORD
  5
9
330
0
100
AcDbSymbolTable
 70
5
  0
BLOCK_RECORD
  5
17
330
9
100
AcDbSymbolTableRecord
100
AcDbBlockTableRecord
  2
*Model_Space
340
1A
 70
0
280
1
281
0
  0
BLOCK_RECORD
  5
1B
330
9
100
AcDbSymbolTableRecord
100
AcDbBlockTableRecord
  2
*Paper_Space
340
1E
 70
0
280
1
281
0
  0
BLOCK_RECORD
  5
74
330
9
100
AcDbSymbolTableRecord
100
AcDbBlockTableRecord
  2
_ARCHTICK
340
0
 70
0
280
1
281
0
  0
BLOCK_RECORD
  5
78
330
9
100
AcDbSymbolTableRecord
100
AcDbBlockTableRecord
  2
_CLOSEDFILLED
340
0
 70
0
280
1
281
0
  0
BLOCK_RECORD
  5
84
330
9
100
AcDbSymbolTableRecord
100
AcDbBlockTableRecord
  2
_CLOSEDBLANK
340
0
 70
0
280
1
281
0
  0
ENDTAB
  0
ENDSEC
  0
SECTION
  2
BLOCKS
  0
BLOCK
  5
18
330
17
100
AcDbEntity
  8
0
100
AcDbBlockBegin
  2
*Model_Space
 70
0
 10
0.0
 20
0.0
 30
0.0
  3
*Model_Space
  1

  0
ENDBLK
  5
19
330
17
100
AcDbEntity
  8
0
100
AcDbBlockEnd
  0
BLOCK
  5
1C
330
1B
100
AcDbEntity
  8
0
100
AcDbBlockBegin
  2
*Paper_Space
 70
0
 10
0.0
 20
0.0
 30
0.0
  3
*Paper_Space
  1

  0
ENDBLK
  5
1D
330
1B
100
AcDbEntity
  8
0
100
AcDbBlockEnd
  0
BLOCK
  5
75
330
74
100
AcDbEntity
  8
0
100
AcDbBlockBegin
  2
_ARCHTICK
 70
0
 10
0.0
 20
0.0
 30
0.0
  3
_ARCHTICK
  1

  0
LWPOLYLINE
  5
77
330
74
100
AcDbEntity
  8
0
  6
BYBLOCK
 62
0
100
AcDbPolyline
 90
2
 70
0
 43
0.15
 10
-0.5
 20
-0.5
 10
0.5
 20
0.5
  0
ENDBLK
  5
76
330
74
100
AcDbEntity
  8
0
100
AcDbBlockEnd
  0
BLOCK
  5
79
330
78
100
AcDbEntity
  8
0
100
AcDbBlockBegin
  2
_CLOSEDFILLED
 70
0
 10
0.0
 20
0.0
 30
0.0
  3
_CLOSEDFILLED
  1

  0
SOLID
  5
7B
330
78
100
AcDbEntity
  8
0
  6
BYBLOCK
 62
0
100
AcDbTrace
 10
-1.0
 20
0.16439898372402537
 30
0.0
 11
0.0
 21
0.0
 31
0.0
 12
-1.0
 22
-0.16439898372402537
 32
0.0
 13
-1.0
 23
-0.16439898372402537
 33
0.0
  0
ENDBLK
  5
7A
330
78
100
AcDbEntity
  8
0
100
AcDbBlockEnd
  0
BLOCK
  5
85
330
84
100
AcDbEntity
  8
0
100
AcDbBlockBegin
  2
_CLOSEDBLANK
 70
0
 10
0.0
 20
0.0
 30
0.0
  3
_CLOSEDBLANK
  1

  0
LWPOLYLINE
  5
87
330
84
100
AcDbEntity
  8
0
  6
BYBLOCK
 62
0
100
AcDbPolyline
 90
3
 70
1
 10
-1.0
 20
0.16439898372402537
 10
0.0
 20
0.0
 10
-1.0
 20
-0.16439898372402537
  0
ENDBLK
  5
86
330
84
100
AcDbEntity
  8
0
100
AcDbBlockEnd
  0
ENDSEC
  0
SECTION
  2
ENTITIES
  0
LWPOLYLINE
  5
8C
330
17
100
AcDbEntity
  8
Layer
100
AcDbPolyline
 90
261
 70
1
 10
929.2606566821114
 20
118.21002300171996
 10
926.217327498146
 20
119.30754733424172
 10
921.2281050151364
 20
121.09964376280139
 10
915.7101409411598
 20
123.06379229698305
 10
909.6608802731855
 20
125.17741928331765
 10
903.0551425770236
 20
127.43705167495874
 10
895.9320179170641
 20
129.87047425060018
 10
888.3687168441388
 20
132.46807163680558
 10
880.4465607616407
 20
135.21144798192108
 10
872.2312859254114
 20
138.0793297046978
 10
863.7844250288078
 20
141.05003444106762
 10
855.1475534967891
 20
144.10753227978756
 10
846.3556349686082
 20
147.2343805042519
 10
837.4375299298497
 20
150.4194255151409
 10
828.4121654510884
 20
153.6516427977505
 10
819.304171114911
 20
156.9176675222603
 10
810.1388634379763
 20
160.20653032593307
 10
800.9399107859865
 20
163.50488645297983
 10
791.7226243397802
 20
166.8022690544064
 10
782.4991133138617
 20
170.09237362161923
 10
773.2804663235888
 20
173.3674133425374
 10
764.0694289562214
 20
176.62152260132015
 10
754.8682501600266
 20
179.85143130805915
 10
745.6817889874808
 20
183.0527243159227
 10
736.5126103063976
 20
186.2200124972563
 10
727.3603354545985
 20
189.34970574716803
 10
718.22650862214
 20
192.4387695665825
 10
709.1135092143074
 20
195.4823125245944
 10
703.041323721605
 20
197.48113652427352
 10
702.7286512886296
 20
196.5312755083047
 10
699.7110137175305
 20
197.52462996120673
 10
690.63528186802
 20
200.46492469967077
 10
681.5713303055829
 20
203.35190345030668
 10
672.5168819895757
 20
206.18316925128562
 10
663.4669411324078
 20
208.95690992626004
 10
654.4161622595873
 20
211.67267243546087
 10
645.361356408511
 20
214.33008726350556
 10
636.3006592334659
 20
216.92853280947517
 10
627.2314876909909
 20
219.4675980815235
 10
618.1511904627343
 20
221.9466195464136
 10
609.05860037518
 20
224.3650156636143
 10
599.9535461767757
 20
226.7216712097167
 10
590.8353022266299
 20
229.01546060780464
 10
581.7027082093304
 20
231.24543458744452
 10
572.5553670902589
 20
233.41015402291293
 10
563.3937291279757
 20
235.507984203049
 10
554.2172941412216
 20
237.53785568244305
 10
545.0257323883066
 20
239.49885959560763
 10
535.8182845312292
 20
241.38970342430625
 10
526.5955084957814
 20
243.2096208579539
 10
517.357973157516
 20
244.95810928226766
 10
508.1059188861303
 20
246.6347225128245
 10
498.8398957364119
 20
248.23874616444166
 10
489.56091318425376
 20
249.76904132757886
 10
480.2694811399088
 20
251.2250560730031
 10
470.96442447891593
 20
252.60582672157602
 10
461.6433704704906
 20
253.91032224238347
 10
452.3056247746351
 20
255.13787823166558
 10
442.951766558157
 20
256.2888028647837
 10
433.58248340592525
 20
257.3644843420836
 10
424.1990951344052
 20
258.36651090602186
 10
414.80585230842115
 20
259.2960106259484
 10
405.40942007814937
 20
260.15181103054834
 10
396.01386375896493
 20
260.9311775462839
 10
386.61909485188113
 20
261.63209261470814
 10
377.22562279483844
 20
262.2552790333739
 10
367.83816342590717
 20
262.80144690732453
 10
358.4618721899622
 20
263.2701697354662
 10
349.0985573575139
 20
263.6596934297634
 10
339.7497461552129
 20
263.96977576894193
 10
330.4203147344256
 20
264.199866156113
 10
321.1143237489184
 20
264.3481042970784
 10
311.83247970056186
 20
264.4128954044393
 10
302.57542325259465
 20
264.3950811116325
 10
293.34944852380175
 20
264.295748058987
 10
284.1616643295217
 20
264.11311423233
 10
275.01388344417995
 20
263.84361738202546
 10
265.9067398092288
 20
263.4864105032567
 10
256.84490599941967
 20
263.042479861812
 10
247.83505790652282
 20
262.51138266590135
 10
238.88027181073
 20
261.891700655854
 10
229.98529923981556
 20
261.1841412323192
 10
221.1598068213557
 20
260.3881545418425
 10
212.41044785470652
 20
259.4995403586948
 10
203.73812575638598
 20
258.51525771154314
 10
195.14635406366216
 20
257.4374384502138
 10
186.64483341226378
 20
256.2686850694187
 10
178.24313611119587
 20
255.00924706675818
 10
169.95032441527218
 20
253.6596266537935
 10
161.7821691245122
 20
252.22220914150978
 10
153.7546057310376
 20
250.69560465478457
 10
145.87583104008527
 20
249.07913485438104
 10
138.1564661650092
 20
247.38083674914253
 10
130.61990849569233
 20
245.61196223284242
 10
123.29044542582966
 20
243.776783279612
 10
116.18560014758913
 20
241.87816838581463
 10
109.32255058650188
 20
239.92429545967968
 10
102.71856483307516
 20
237.92480567867563
 10
96.38588518647748
 20
235.89054985158032
 10
90.3375776752668
 20
233.83937056600251
 10
84.59137261874582
 20
231.78838733407642
 10
79.15834728964882
 20
229.7444567894024
 10
74.03551290935633
 20
227.7110864649903
 10
69.21347122705384
 20
225.69795909226588
 10
64.683854619067
 20
223.71649239819988
 10
60.43744711656666
 20
221.77273587644353
 10
56.46181124508064
 20
219.86875578527435
 10
52.74211481272272
 20
218.00669222021764
 10
49.2636814408757
 20
216.18818439844472
 10
46.01154949260996
 20
214.4110463450043
 10
42.96915742404326
 20
212.67089231990485
 10
40.12005929361396
 20
210.96478976755162
 10
37.449596007033506
 20
209.29224399471676
 10
34.94690799188754
 20
207.65395532069772
 10
32.603585575228124
 20
206.04775906492637
 10
30.411217651221875
 20
204.46855410265317
 10
28.359071741763785
 20
202.91054913024942
 10
26.43562283761463
 20
201.37330635585724
 10
24.630451557659114
 20
199.85957225952825
 10
22.93521898092274
 20
198.37392257754178
 10
21.344340845415616
 20
196.91838500297416
 10
19.856557756091377
 20
195.4942349560879
 10
18.474161351349153
 20
194.09787294520032
 10
17.2002271194051
 20
192.7240598539275
 10
16.035546872363227
 20
191.36555675362266
 10
14.976752394185382
 20
190.0162371390768
 10
14.017800849567266
 20
188.67508758878594
 10
13.150455225667883
 20
187.34232721356673
 10
12.367693880941943
 20
186.02253811516044
 10
11.666868578739354
 20
184.723335152605
 10
11.051434605105896
 20
183.4547714562849
 10
10.527072745660519
 20
182.2193557623754
 10
10.096317341939539
 20
181.00959369320094
 10
9.757224962306509
 20
179.81721479769288
 10
9.512022131282322
 20
178.69281736664078
 10
9.339939409663884
 20
177.54466389770036
 10
9.245989267277992
 20
176.24340922477958
 10
9.245590802109064
 20
175.19607531469921
 10
9.33227629882856
 20
174.0603959289499
 10
9.516742129513034
 20
172.94182574578804
 10
9.809881070012409
 20
171.84133357445427
 10
10.223319874303911
 20
170.75369647247453
 10
10.763440095574424
 20
169.6743113153373
 10
11.42757950428745
 20
168.60444234998533
 10
12.207276628643115
 20
167.55125344099662
 10
13.098034622570367
 20
166.52188466731772
 10
14.102671059259364
 20
165.52015061794964
 10
15.22780105986726
 20
164.54681232005674
 10
16.476404048419738
 20
163.60205273036024
 10
17.84851923855473
 20
162.68551358998192
 10
19.343401061337033
 20
161.7955142002385
 10
20.962359345024026
 20
160.92873107007446
 10
22.70559563210719
 20
160.08227992471282
 10
24.575552487255152
 20
159.25489663061876
 10
26.57617097920462
 20
158.4464123863021
 10
28.715036491396745
 20
157.65658277706524
 10
31.00011320675651
 20
156.88332418909317
 10
33.440067412257406
 20
156.12307342953682
 10
36.04515574568666
 20
155.37156070494024
 10
38.82598981428754
 20
154.62456006641352
 10
41.79560024470976
 20
153.87992104312124
 10
44.97037283516943
 20
153.13731041688658
 10
48.371645762615515
 20
152.3963656067499
 10
52.0225822092537
 20
151.65483240581182
 10
55.947400481498505
 20
150.91010869863413
 10
60.17134116116193
 20
150.16127682169017
 10
64.72366174058129
 20
149.4097903644128
 10
69.6360799422871
 20
148.65748520724006
 10
74.93852107865649
 20
147.90456546940516
 10
80.6555142548425
 20
147.15216067238268
 10
86.80571272677491
 20
146.40547607693279
 10
93.40132797008465
 20
145.67176203083585
 10
100.44412728143095
 20
144.95627305466007
 10
107.91939922346737
 20
144.26360212330445
 10
115.8002134234766
 20
143.60201773897336
 10
124.05577821885765
 20
142.97828132530117
 10
132.64767281825758
 20
142.39401177323714
 10
141.5310583707902
 20
141.85193508423623
 10
150.66939162910873
 20
141.35548660967783
 10
160.0316039201568
 20
140.90289270912496
 10
169.58584883442379
 20
140.49217823582592
 10
179.31327584017527
 20
140.12478087142813
 10
189.2094964901054
 20
139.7944238236402
 10
190.42432413907514
 20
139.75697664375252
 10
190.39351367745638
 20
138.75745139872123
 10
199.22031101881666
 20
138.48536389399078
 10
209.34722222263215
 20
138.18918530318828
 10
219.51469050805937
 20
137.91889061131573
 10
229.72898531481388
 20
137.6886716830555
 10
240.0240446250589
 20
137.4966157688692
 10
250.41748658506472
 20
137.32692481614848
 10
260.89111514240665
 20
137.16248390945586
 10
271.4091279952582
 20
136.99443230191207
 10
281.94147856242665
 20
136.82676244202122
 10
292.4670024488744
 20
136.67421189063404
 10
303.0050371402987
 20
136.54847565985855
 10
313.58951084568565
 20
136.44539735265232
 10
324.2318804516436
 20
136.3502930234224
 10
334.9124136547406
 20
136.25328175192487
 10
345.6151473185877
 20
136.1561675981792
 10
356.32904207862373
 20
136.0626030755942
 10
367.04430795214967
 20
135.97079471921552
 10
377.74600625537533
 20
135.87992553254387
 10
388.4255434085463
 20
135.7973126166372
 10
399.094338433684
 20
135.73003277678805
 10
409.7659807645358
 20
135.6723344237679
 10
420.4341758632779
 20
135.60841955860923
 10
431.10149007729734
 20
135.53137493901477
 10
441.7654267131148
 20
135.45023207691844
 10
452.42309905929017
 20
135.37844124123825
 10
463.08528447105044
 20
135.316137652828
 10
473.7454672002241
 20
135.25415740635933
 10
484.3842098578342
 20
135.18989827734373
 10
494.9912985805097
 20
135.1341331114712
 10
505.5751464125661
 20
135.09388243048338
 10
516.1434446254204
 20
135.06026899917114
 10
526.6829020228298
 20
135.0139357945332
 10
537.2075986470049
 20
134.94688650796428
 10
547.7259243255671
 20
134.8674531809934
 10
558.2249548081422
 20
134.78756297000263
 10
568.676035562007
 20
134.7009413510098
 10
579.0636928827087
 20
134.59072268512938
 10
589.4098971763814
 20
134.45049361552367
 10
599.7174572229801
 20
134.301357298693
 10
609.9653791869847
 20
134.17376355171498
 10
620.1909001345607
 20
134.0780490844083
 10
630.4066231215152
 20
133.99067693344648
 10
640.5928996476437
 20
133.8804619983514
 10
650.7708597893541
 20
133.7374296583865
 10
660.9519619966154
 20
133.57785826958144
 10
671.098062465116
 20
133.4164218730824
 10
681.1679429144369
 20
133.2425517630644
 10
691.1613609210186
 20
133.03175915460542
 10
701.1301277501277
 20
132.77496777783654
 10
711.1067382625093
 20
132.49150840097664
 10
721.0659352162497
 20
132.20543186840447
 10
730.957801313841
 20
131.91706073473665
 10
740.7485140075476
 20
131.6009424347309
 10
750.4748564582653
 20
131.23630942112482
 10
760.1892923607709
 20
130.82808868017844
 10
769.898361407236
 20
130.40087740502202
 10
779.5469613494878
 20
129.97279302715458
 10
789.0763435795371
 20
129.53276496855221
 10
798.4800820693383
 20
129.04994955625983
 10
807.8158906516649
 20
128.50354200520482
 10
817.1420415694474
 20
127.9062677191446
 10
826.4457866237537
 20
127.29205076119088
 10
835.645865524411
 20
126.67468835959991
 10
844.6861073804744
 20
126.03447064428333
 10
853.5679662468687
 20
125.3552690947533
 10
862.2891021180128
 20
124.643388845474
 10
870.8131324620343
 20
123.90861696555005
 10
879.0870552213398
 20
123.15544207819148
 10
887.0556646991622
 20
122.3806989557688
 10
894.6833405231396
 20
121.57433841098111
 10
901.9467476659681
 20
120.74767125297663
 10
908.7895738016723
 20
119.93738230198728
 10
915.135516097863
 20
119.17191678983303
 10
920.9338152990888
 20
118.45032192827006
 10
926.1847156159761
 20
117.77261152344076
 10
929.3916249060358
 20
117.35135529423448
  0
LWPOLYLINE
  5
8D
330
17
100
AcDbEntity
  8
Layer
100
AcDbPolyline
 90
5
 70
0
 10
612.9195139227668
 20
219.19902820653007
 10
609.0539050709103
 20
220.22716642897345
 10
610.0820432933538
 20
224.0927752808299
 10
613.9476521452102
 20
223.06463705838652
 10
612.9195139227668
 20
219.19902820653007
  0
LWPOLYLINE
  5
8E
330
17
100
AcDbEntity
  8
Layer
100
AcDbPolyline
 90
5
 70
0
 10
265.5773629836441
 20
259.4654733797608
 10
261.58215581100785
 20
259.26971933071985
 10
261.3864017619669
 20
263.2649265033561
 10
265.38160893460315
 20
263.46068055239704
 10
265.5773629836441
 20
259.4654733797608
  0
LWPOLYLINE
  5
8F
330
17
100
AcDbEntity
  8
Layer
100
AcDbPolyline
 90
5
 70
0
 10
107.89796133307831
 20
235.31356551959513
 10
104.0696230542435
 20
234.1543304171211
 10
102.91038795176948
 20
237.98266869595594
 10
106.7387262306043
 20
239.14190379842998
 10
107.89796133307831
 20
235.31356551959513
  0
LWPOLYLINE
  5
90
330
17
100
AcDbEntity
  8
Layer
100
AcDbPolyline
 90
5
 70
0
 10
28.229065286266437
 20
196.3650170275804
 10
26.725134270608887
 20
195.0466121200716
 10
23.429122001836927
 20
198.80643965921547
 10
24.933053017494476
 20
200.12484456672428
 10
28.229065286266437
 20
196.3650170275804
  0
LWPOLYLINE
  5
91
330
17
100
AcDbEntity
  8
Layer
100
AcDbPolyline
 90
5
 70
0
 10
18.85526275584192
 20
168.02522645702166
 10
20.519699773083026
 20
166.9163308732819
 10
17.747460813733653
 20
162.75523833017914
 10
16.083023796492547
 20
163.8641339139189
 10
18.85526275584192
 20
168.02522645702166
  0
LWPOLYLINE
  5
92
330
17
100
AcDbEntity
  8
Layer
100
AcDbPolyline
 90
5
 70
0
 10
142.53424919871833
 20
145.8033363723307
 10
146.5283602513133
 20
145.5863642553698
 10
146.3113881343524
 20
141.59225320277483
 10
142.31727708175742
 20
141.80922531973573
 10
142.53424919871833
 20
145.8033363723307
  0
LINE
  5
93
330
17
100
AcDbEntity
  8
Layer
100
AcDbLine
 10
910.5030347524457
 20
124.88316837701262
 30
0.0
 11
910.1793956601368
 21
123.93698777166846
 31
0.0
  0
LINE
  5
94
330
17
100
AcDbEntity
  8
Layer
100
AcDbLine
 10
909.5513212160472
 20
120.85159692918602
 30
0.0
 11
909.4791292467705
 21
119.85420617347792
 31
0.0
  0
LINE
  5
95
330
17
100
AcDbEntity
  8
Layer
100
AcDbLine
 10
891.5822981599956
 20
131.36437493797783
 30
0.0
 11
891.2584485048476
 21
130.41826638138377
 31
0.0
  0
LINE
  5
96
330
17
100
AcDbEntity
  8
Layer
100
AcDbLine
 10
889.6908398685459
 20
123.10761295521151
 30
0.0
 11
889.5983019284624
 21
122.11190379604649
 31
0.0
  0
LINE
  5
97
330
17
100
AcDbEntity
  8
Layer
100
AcDbLine
 10
816.1612084808187
 20
158.04548267751292
 30
0.0
 11
815.8309160168719
 21
157.10160403687104
 31
0.0
  0
LINE
  5
98
330
17
100
AcDbEntity
  8
Layer
100
AcDbLine
 10
809.9240354031546
 20
129.37039473789244
 30
0.0
 11
809.8410065634275
 21
128.3738475931102
 31
0.0
  0
LWPOLYLINE
  5
99
330
17
100
AcDbEntity
  8
Layer
100
AcDbPolyline
 90
300
 70
1
 10
411.6544882650675
 20
200.0
 10
411.6432886047599
 20
201.13316183682994
 10
411.6096945692918
 20
202.26582330129253
 10
411.55372099284347
 20
203.39748424197083
 10
411.47539259177057
 20
204.5276449492509
 10
411.37474395369003
 20
205.65580637597986
 10
411.2518195222071
 20
206.78147035783059
 10
411.1066735772901
 20
207.9041398332775
 10
410.9393702113024
 20
209.02331906308467
 10
410.74998330070065
 20
210.13851384921034
 10
410.538596473413
 20
211.24923175303104
 10
410.30530307191174
 20
212.3549823127884
 10
410.05020611199535
 20
213.45527726016337
 10
409.7734182373002
 20
214.54963073588178
 10
409.47506166955975
 20
215.63755950425605
 10
409.1552681546353
 20
216.7185831665685
 10
408.81417890434045
 20
217.79222437320192
 10
408.45194453408607
 20
218.85800903442367
 10
408.0687249963728
 20
219.91546652973048
 10
407.6646895101604
 20
220.964129915661
 10
407.24001648614546
 20
222.00353613198513
 10
406.7948934479804
 20
223.0332262061782
 10
406.3295169494682
 20
224.05274545609038
 10
405.8440924877696
 20
225.06164369072158
 10
405.33883441266175
 20
226.05947540901303
 10
404.813965831887
 20
227.04579999656804
 10
404.2697185126349
 20
228.0201819202149
 10
403.70633277920047
 20
228.9821909203261
 10
403.12405740686364
 20
229.9314022008089
 10
402.52314951203715
 20
230.86739661668315
 10
401.90387443873107
 20
231.78976085916415
 10
401.2665056413845
 20
232.69808763816806
 10
400.61132456411565
 20
233.5919758621597
 10
399.93862051644413
 20
234.4710308152633
 10
399.24869054554006
 20
235.334864331558
 10
398.5418393050562
 20
236.18309496648095
 10
397.81837892060173
 20
237.0153481652624
 10
397.07862885191616
 20
237.83125642831862
 10
396.32291575180506
 20
238.63045947352944
 10
395.5515733218991
 20
239.41260439532857
 10
394.7649421653013
 20
240.17734582053683
 10
393.9633696361858
 20
240.9243460608692
 10
393.14720968641626
 20
241.65327526204845
 10
392.31682270925063
 20
242.3638115494595
 10
391.4725753802017
 20
243.05564117028032
 10
390.6148404951235
 20
243.7284586320261
 10
389.7439968055949
 20
244.38196683744636
 10
388.86042885167416
 20
245.01587721571454
 10
387.96452679209614
 20
245.6299098498529
 10
387.0566862319897
 20
246.22379360033602
 10
386.1373080481894
 20
246.7972662248181
 10
385.2067982122198
 20
247.35007449393208
 10
384.2655676110294
 20
247.8819743031086
 10
383.31403186555497
 20
248.39273078036544
 10
382.35261114719486
 20
248.88211839002065
 10
381.38172999227334
 20
249.3499210322826
 10
380.4018171145769
 20
249.7959321386737
 10
379.41330521604664
 20
250.21995476324506
 10
378.4166307957093
 20
250.6218016695424
 10
377.41223395693123
 20
251.00129541328437
 10
376.4005582130817
 20
251.35826842071685
 10
375.38205029168915
 20
251.69256306260905
 10
374.35715993717963
 20
252.00403172385785
 10
373.3263397122818
 20
252.29253686867062
 10
372.29004479818826
 20
252.5579511012972
 10
371.2487327935602
 20
252.80015722228416
 10
370.20286351246455
 20
253.01904828022683
 10
369.1528987813336
 20
253.2145276189961
 10
368.0993022350349
 20
253.38650892041892
 10
367.0425391121432
 20
253.53491624239405
 10
365.98307604950463
 20
253.65968405242592
 10
364.9213808761824
 20
253.76075725656202
 10
363.85792240687726
 20
253.8380912237207
 10
362.79317023491166
 20
253.89165180539914
 10
361.7275945248706
 20
253.9214153507522
 10
360.6616658049906
 20
253.9273687170362
 10
359.5958547593872
 20
253.90950927541212
 10
358.5306320202142
 20
253.86784491210665
 10
357.4664679598462
 20
253.80239402492973
 10
356.40383248317477
 20
253.7131855151506
 10
355.3431948201118
 20
253.6002587747359
 10
354.2850233183914
 20
253.46366366895512
 10
353.22978523675977
 20
253.3034605143617
 10
352.17794653864775
 20
253.1197200521588
 10
351.12997168641385
 20
252.91252341696202
 10
350.0863234362511
 20
252.68196210097264
 10
349.04746263384703
 20
252.42813791357725
 10
348.0138480108867
 20
252.15116293639153
 10
346.9859359824903
 20
251.85115947376823
 10
345.9641804456725
 20
251.5282599987911
 10
344.94903257891497
 20
251.18260709477818
 10
343.9409406429379
 20
250.8143533923214
 10
342.9403497827614
 20
250.42366150188903
 10
341.9477018311415
 20
250.01070394202145
 10
340.9634351134694
 20
249.5756630631518
 10
339.9879842542195
 20
249.11873096708536
 10
339.02177998503106
 20
248.6401094221726
 10
338.0652489545097
 20
248.14000977421395
 10
337.11881353983097
 20
247.6186528531356
 10
336.1828916602308
 20
247.0762688754771
 10
335.2578965924639
 20
246.51309734273423
 10
334.34423678831257
 20
245.92938693560197
 10
333.4423156942257
 20
245.32539540416394
 10
332.5525315731684
 20
244.7013894540774
 10
331.67527732876
 20
244.05764462880342
 10
330.81094033177914
 20
243.39444518793468
 10
329.9599022491116
 20
242.71208398167445
 10
329.12253887521706
 20
242.01086232152213
 10
328.2992199661886
 20
241.29108984722268
 10
327.4903090764791
 20
240.55308439003832
 10
326.69616339836574
 20
239.79717183240325
 10
325.91713360422375
 20
239.02368596402312
 10
325.1535636916798
 20
238.23296833448282
 10
324.4057908317117
 20
237.42536810242802
 10
323.6741452197639
 20
236.60124188138633
 10
322.95894992994187
 20
235.76095358229682
 10
322.26052077235215
 20
234.9048742528173
 10
321.57916615364906
 20
234.03338191348007
 10
320.9151869408513
 20
233.14686139076863
 10
320.26887632848747
 20
232.24570414718926
 10
319.6405197091296
 20
231.3303081084121
 10
319.0303945473719
 20
230.40107748755847
 10
318.43877025731
 20
229.4584226067116
 10
317.8659080835755
 20
228.50275971573
 10
317.31206098597767
 20
227.53451080844343
 10
316.7774735278033
 20
226.55410343631195
 10
316.2623817678247
 20
225.5619705196315
 10
315.7670131560626
 20
224.55855015636843
 10
315.29158643335086
 20
223.54428542870772
 10
314.8363115347463
 20
222.51962420740037
 10
314.4013894968277
 20
221.4850189539963
 10
313.98701236892344
 20
220.44092652105016
 10
313.59336312830806
 20
219.3878079503879
 10
313.2206155994044
 20
218.3261282695238
 10
312.8689343770281
 20
217.25635628631744
 10
312.5384747537067
 20
216.1789643819613
 10
312.22938265110696
 20
215.09442830239053
 10
311.94179455560015
 20
214.0032269482069
 10
311.67583745799334
 20
212.90584216320988
 10
311.43162879745375
 20
211.8027585216279
 10
311.2092764096512
 20
210.69446311414399
 10
311.0088784791406
 20
209.58144533281026
 10
310.8305234960067
 20
208.46419665494628
 10
310.67429021678913
 20
207.34321042611631
 10
310.54024762970585
 20
206.21898164228202
 10
310.4284549241898
 20
205.09200673122592
 10
310.33896146475274
 20
203.9627833333432
 10
310.2718067691869
 20
202.83181008189737
 10
310.2270204911155
 20
201.69958638283808
 10
310.2046224068981
 20
200.56661219427744
 10
310.2046224068981
 20
199.4333878057226
 10
310.2270204911155
 20
198.30041361716192
 10
310.2718067691869
 20
197.16818991810263
 10
310.33896146475274
 20
196.0372166666568
 10
310.4284549241898
 20
194.90799326877405
 10
310.54024762970585
 20
193.781018357718
 10
310.67429021678913
 20
192.65678957388369
 10
310.8305234960067
 20
191.53580334505375
 10
311.0088784791406
 20
190.41855466718974
 10
311.2092764096512
 20
189.30553688585604
 10
311.43162879745375
 20
188.1972414783721
 10
311.67583745799334
 20
187.0941578367901
 10
311.94179455560015
 20
185.9967730517931
 10
312.22938265110696
 20
184.9055716976095
 10
312.5384747537067
 20
183.8210356180387
 10
312.8689343770281
 20
182.7436437136826
 10
313.2206155994044
 20
181.6738717304762
 10
313.59336312830806
 20
180.6121920496121
 10
313.98701236892344
 20
179.55907347894984
 10
314.4013894968277
 20
178.51498104600367
 10
314.8363115347463
 20
177.48037579259966
 10
315.2915864333508
 20
176.4557145712923
 10
315.7670131560626
 20
175.44144984363157
 10
316.2623817678247
 20
174.4380294803685
 10
316.7774735278033
 20
173.44589656368808
 10
317.31206098597767
 20
172.46548919155657
 10
317.86590808357556
 20
171.49724028426996
 10
318.43877025731
 20
170.54157739328843
 10
319.0303945473719
 20
169.59892251244153
 10
319.6405197091296
 20
168.6696918915879
 10
320.26887632848747
 20
167.75429585281074
 10
320.9151869408513
 20
166.8531386092314
 10
321.579166153649
 20
165.96661808651993
 10
322.26052077235215
 20
165.0951257471827
 10
322.9589499299419
 20
164.23904641770318
 10
323.6741452197639
 20
163.39875811861367
 10
324.40579083171167
 20
162.57463189757198
 10
325.1535636916798
 20
161.76703166551718
 10
325.91713360422375
 20
160.9763140359769
 10
326.69616339836574
 20
160.20282816759675
 10
327.4903090764791
 20
159.44691560996168
 10
328.2992199661886
 20
158.70891015277732
 10
329.12253887521706
 20
157.98913767847787
 10
329.9599022491116
 20
157.28791601832557
 10
330.81094033177914
 20
156.60555481206532
 10
331.67527732876
 20
155.94235537119658
 10
332.5525315731684
 20
155.2986105459226
 10
333.4423156942257
 20
154.67460459583606
 10
334.34423678831257
 20
154.07061306439803
 10
335.2578965924639
 20
153.48690265726577
 10
336.1828916602308
 20
152.9237311245229
 10
337.11881353983097
 20
152.3813471468644
 10
338.0652489545097
 20
151.85999022578605
 10
339.02177998503106
 20
151.3598905778274
 10
339.98798425421944
 20
150.88126903291464
 10
340.9634351134694
 20
150.4243369368482
 10
341.94770183114144
 20
149.98929605797858
 10
342.94034978276136
 20
149.57633849811097
 10
343.9409406429379
 20
149.1856466076786
 10
344.94903257891497
 20
148.81739290522182
 10
345.9641804456725
 20
148.47174000120893
 10
346.9859359824903
 20
148.14884052623177
 10
348.0138480108867
 20
147.84883706360847
 10
349.04746263384703
 20
147.57186208642275
 10
350.0863234362511
 20
147.31803789902736
 10
351.12997168641385
 20
147.08747658303798
 10
352.17794653864775
 20
146.8802799478412
 10
353.2297852367598
 20
146.6965394856383
 10
354.2850233183914
 20
146.53633633104488
 10
355.3431948201118
 20
146.3997412252641
 10
356.4038324831747
 20
146.2868144848494
 10
357.4664679598462
 20
146.19760597507027
 10
358.5306320202142
 20
146.13215508789335
 10
359.5958547593871
 20
146.09049072458788
 10
360.6616658049906
 20
146.0726312829638
 10
361.7275945248706
 20
146.0785846492478
 10
362.7931702349116
 20
146.10834819460086
 10
363.85792240687726
 20
146.1619087762793
 10
364.9213808761824
 20
146.23924274343798
 10
365.98307604950463
 20
146.34031594757408
 10
367.04253911214323
 20
146.46508375760595
 10
368.0993022350349
 20
146.61349107958108
 10
369.15289878133365
 20
146.7854723810039
 10
370.2028635124646
 20
146.98095171977317
 10
371.2487327935601
 20
147.19984277771584
 10
372.29004479818826
 20
147.4420488987028
 10
373.3263397122818
 20
147.70746313132938
 10
374.35715993717963
 20
147.99596827614215
 10
375.38205029168915
 20
148.30743693739095
 10
376.40055821308164
 20
148.64173157928315
 10
377.41223395693123
 20
148.99870458671563
 10
378.4166307957093
 20
149.3781983304576
 10
379.41330521604664
 20
149.78004523675494
 10
380.4018171145769
 20
150.2040678613263
 10
381.38172999227334
 20
150.6500789677174
 10
382.3526111471949
 20
151.11788160997935
 10
383.31403186555497
 20
151.60726921963456
 10
384.2655676110294
 20
152.1180256968914
 10
385.2067982122198
 20
152.64992550606792
 10
386.1373080481894
 20
153.2027337751819
 10
387.0566862319897
 20
153.77620639966398
 10
387.96452679209614
 20
154.37009015014706
 10
388.86042885167416
 20
154.98412278428546
 10
389.7439968055949
 20
155.61803316255364
 10
390.6148404951235
 20
156.2715413679739
 10
391.4725753802017
 20
156.94435882971965
 10
392.31682270925063
 20
157.6361884505405
 10
393.14720968641626
 20
158.34672473795155
 10
393.9633696361858
 20
159.0756539391308
 10
394.7649421653013
 20
159.82265417946317
 10
395.5515733218991
 20
160.58739560467143
 10
396.32291575180506
 20
161.36954052647056
 10
397.0786288519162
 20
162.16874357168138
 10
397.8183789206018
 20
162.98465183473763
 10
398.5418393050562
 20
163.81690503351902
 10
399.24869054554006
 20
164.66513566844196
 10
399.93862051644413
 20
165.5289691847367
 10
400.61132456411565
 20
166.4080241378403
 10
401.26650564138447
 20
167.3019123618319
 10
401.90387443873107
 20
168.21023914083582
 10
402.52314951203715
 20
169.13260338331685
 10
403.12405740686364
 20
170.0685977991911
 10
403.70633277920047
 20
171.0178090796739
 10
404.2697185126349
 20
171.9798180797851
 10
404.813965831887
 20
172.95420000343196
 10
405.33883441266175
 20
173.94052459098697
 10
405.8440924877697
 20
174.93835630927842
 10
406.3295169494682
 20
175.94725454390965
 10
406.7948934479804
 20
176.96677379382183
 10
407.24001648614546
 20
177.99646386801484
 10
407.6646895101604
 20
179.03587008433897
 10
408.0687249963728
 20
180.0845334702695
 10
408.45194453408607
 20
181.1419909655763
 10
408.81417890434045
 20
182.20777562679808
 10
409.1552681546353
 20
183.2814168334315
 10
409.47506166955975
 20
184.36244049574395
 10
409.7734182373002
 20
185.45036926411822
 10
410.05020611199535
 20
186.54472273983663
 10
410.30530307191174
 20
187.6450176872116
 10
410.538596473413
 20
188.75076824696896
 10
410.74998330070065
 20
189.86148615078966
 10
410.9393702113024
 20
190.97668093691536
 10
411.1066735772901
 20
192.0958601667225
 10
411.2518195222071
 20
193.21852964216941
 10
411.37474395369003
 20
194.3441936240201
 10
411.47539259177057
 20
195.47235505074906
 10
411.55372099284347
 20
196.60251575802917
 10
411.6096945692918
 20
197.73417669870744
 10
411.6432886047599
 20
198.86683816317006
 10
411.6544882650675
 20
200.0
  0
LINE
  5
9A
330
17
100
AcDbEntity
  8
Layer
 62
7
100
AcDbLine
 10
24.797915661575075
 20
200.00000000000003
 30
0.0
 11
692.0703529339332
 21
199.99999999999997
 31
0.0
  0
LINE
  5
9B
330
17
100
AcDbEntity
  8
Layer
 62
7
100
AcDbLine
 10
156.1524031160467
 20
200.00000000000003
 30
0.0
 11
168.1524031160467
 21
200.00000000000003
 31
0.0
  0
LWPOLYLINE
  5
9C
330
17
100
AcDbEntity
  8
Layer
100
AcDbPolyline
 90
5
 70
0
 10
162.1524031160467
 20
205.00000000000003
 10
167.1524031160467
 20
200.00000000000003
 10
162.1524031160467
 20
195.00000000000003
 10
157.1524031160467
 20
200.00000000000003
 10
162.1524031160467
 20
205.00000000000003
  0
LINE
  5
9D
330
17
100
AcDbEntity
  8
Layer
 62
7
100
AcDbLine
 10
352.43413429775416
 20
200.0
 30
0.0
 11
364.43413429775416
 21
200.0
 31
0.0
  0
LWPOLYLINE
  5
9E
330
17
100
AcDbEntity
  8
Layer
100
AcDbPolyline
 90
5
 70
0
 10
358.43413429775416
 20
205.0
 10
363.43413429775416
 20
200.0
 10
358.43413429775416
 20
195.0
 10
353.43413429775416
 20
200.0
 10
358.43413429775416
 20
205.0
  0
LINE
  5
9F
330
17
100
AcDbEntity
  8
Layer
 62
7
100
AcDbLine
 10
548.7158654794616
 20
199.99999999999997
 30
0.0
 11
560.7158654794616
 21
199.99999999999997
 31
0.0
  0
LWPOLYLINE
  5
A0
330
17
100
AcDbEntity
  8
Layer
100
AcDbPolyline
 90
5
 70
0
 10
554.7158654794616
 20
204.99999999999997
 10
559.7158654794616
 20
199.99999999999997
 10
554.7158654794616
 20
194.99999999999997
 10
549.7158654794616
 20
199.99999999999997
 10
554.7158654794616
 20
204.99999999999997
  0
LINE
  5
A1
330
17
100
AcDbEntity
  8
Layer
 62
7
100
AcDbLine
 10
9.358341268200888
 20
177.66744297462031
 30
0.0
 11
928.5481779037643
 21
118.4669662202721
 31
0.0
  0
LINE
  5
A2
330
17
100
AcDbEntity
  8
Layer
 62
7
100
AcDbLine
 10
191.10065050462183
 20
165.96231860921887
 30
0.0
 11
203.0758395942889
 21
165.19105583511484
 31
0.0
  0
LWPOLYLINE
  5
A3
330
17
100
AcDbEntity
  8
Layer
100
AcDbPolyline
 90
5
 70
0
 10
197.40960453866538
 20
170.56634934286149
 10
202.07790717014998
 20
165.25532773295686
 10
196.76688556024536
 20
160.58702510147225
 10
192.09858292876075
 20
165.89804671137688
 10
197.40960453866538
 20
170.56634934286149
  0
LINE
  5
A4
330
17
100
AcDbEntity
  8
Layer
 62
7
100
AcDbLine
 10
417.6548292850611
 20
151.37108308861832
 30
0.0
 11
429.6300183747282
 21
150.5998203145143
 31
0.0
  0
LWPOLYLINE
  5
A5
330
17
100
AcDbEntity
  8
Layer
100
AcDbPolyline
 90
5
 70
0
 10
423.96378331910466
 20
155.97511382226094
 10
428.63208595058927
 20
150.6640922123563
 10
423.32106434068464
 20
145.9957895808717
 10
418.65276170920004
 20
151.30681119077633
 10
423.96378331910466
 20
155.97511382226094
  0
LINE
  5
A6
330
17
100
AcDbEntity
  8
Layer
100
AcDbLine
 10
360.92815533980587
 20
253.9281129032258
 30
0.0
 11
360.92815533980587
 21
254.9281129032258
 31
0.0
  0
LINE
  5
A7
330
17
100
AcDbEntity
  8
Layer
100
AcDbLine
 10
360.92815533980587
 20
146.0718870967742
 30
0.0
 11
360.92815533980587
 21
145.0718870967742
 31
0.0
  0
LINE
  5
A8
330
17
100
AcDbEntity
  8
Layer
100
AcDbLine
 10
411.6544882650675
 20
200.0
 30
0.0
 11
412.6544882650675
 21
200.0
 31
0.0
  0
LINE
  5
A9
330
17
100
AcDbEntity
  8
Layer
100
AcDbLine
 10
310.2018224145442
 20
200.0
 30
0.0
 11
309.2018224145442
 21
200.0
 31
0.0
  0
LINE
  5
AA
330
17
100
AcDbEntity
  8
Layer
 62
7
100
AcDbLine
 10
210.92815533980587
 20
138.14715735505195
 30
0.0
 11
210.92815533980587
 21
259.33130458702044
 31
0.0
  0
LINE
  5
AB
330
17
100
AcDbEntity
  8
Layer
 62
7
100
AcDbLine
 10
210.92815533980587
 20
176.51160888624094
 30
0.0
 11
210.92815533980587
 21
188.51160888624094
 31
0.0
  0
LWPOLYLINE
  5
AC
330
17
100
AcDbEntity
  8
Layer
100
AcDbPolyline
 90
5
 70
0
 10
205.92815533980587
 20
182.51160888624094
 10
210.92815533980587
 20
187.51160888624094
 10
215.92815533980587
 20
182.51160888624094
 10
210.92815533980587
 20
177.51160888624094
 10
205.92815533980587
 20
182.51160888624094
  0
LINE
  5
AD
330
17
100
AcDbEntity
  8
Layer
 62
7
100
AcDbLine
 10
210.92815533980587
 20
208.96685305583145
 30
0.0
 11
210.92815533980587
 21
220.96685305583145
 31
0.0
  0
LWPOLYLINE
  5
AE
330
17
100
AcDbEntity
  8
Layer
100
AcDbPolyline
 90
5
 70
0
 10
205.92815533980587
 20
214.96685305583145
 10
210.92815533980587
 20
219.96685305583145
 10
215.92815533980587
 20
214.96685305583145
 10
210.92815533980587
 20
209.96685305583145
 10
205.92815533980587
 20
214.96685305583145
  0
LINE
  5
AF
330
17
100
AcDbEntity
  8
Layer
 62
7
100
AcDbLine
 10
660.9281553398059
 20
133.57823139826758
 30
0.0
 11
660.9281553398059
 21
209.71869400819634
 31
0.0
  0
LINE
  5
B0
330
17
100
AcDbEntity
  8
Layer
 62
7
100
AcDbLine
 10
660.9281553398059
 20
156.17739331174263
 30
0.0
 11
660.9281553398059
 21
168.17739331174263
 31
0.0
  0
LWPOLYLINE
  5
B1
330
17
100
AcDbEntity
  8
Layer
100
AcDbPolyline
 90
5
 70
0
 10
655.9281553398059
 20
162.17739331174263
 10
660.9281553398059
 20
167.17739331174263
 10
665.9281553398059
 20
162.17739331174263
 10
660.9281553398059
 20
157.17739331174263
 10
655.9281553398059
 20
162.17739331174263
  0
LINE
  5
B2
330
17
100
AcDbEntity
  8
Layer
 62
7
100
AcDbLine
 10
660.9281553398059
 20
175.11953209472128
 30
0.0
 11
660.9281553398059
 21
187.11953209472128
 31
0.0
  0
LWPOLYLINE
  5
B3
330
17
100
AcDbEntity
  8
Layer
100
AcDbPolyline
 90
5
 70
0
 10
655.9281553398059
 20
181.11953209472128
 10
660.9281553398059
 20
186.11953209472128
 10
665.9281553398059
 20
181.11953209472128
 10
660.9281553398059
 20
176.11953209472128
 10
655.9281553398059
 20
181.11953209472128
  0
LWPOLYLINE
  5
B4
330
17
100
AcDbEntity
  8
NumLabel
 62
1
100
AcDbPolyline
 90
7
 70
0
 10
268.57864077669905
 20
163.8252427184466
 10
273.57864077669905
 20
163.8252427184466
 10
273.57864077669905
 20
158.8252427184466
 10
268.57864077669905
 20
158.8252427184466
 10
273.57864077669905
 20
158.8252427184466
 10
273.57864077669905
 20
153.8252427184466
 10
268.57864077669905
 20
153.8252427184466
  0
LWPOLYLINE
  5
B5
330
17
100
AcDbEntity
  8
NumLabel
 62
1
100
AcDbPolyline
 90
4
 70
0
 10
278.07864077669905
 20
163.8252427184466
 10
276.07864077669905
 20
163.8252427184466
 10
276.07864077669905
 20
153.8252427184466
 10
278.07864077669905
 20
153.8252427184466
  0
LWPOLYLINE
  5
B6
330
17
100
AcDbEntity
  8
NumLabel
 62
1
100
AcDbPolyline
 90
4
 70
0
 10
279.07864077669905
 20
153.8252427184466
 10
281.07864077669905
 20
153.8252427184466
 10
281.07864077669905
 20
163.8252427184466
 10
279.07864077669905
 20
163.8252427184466
  0
ENDSEC
  0
SECTION
  2
OBJECTS
  0
DICTIONARY
  5
A
330
0
100
AcDbDictionary
280
0
281
1
  3
ACAD_COLOR
350
B
  3
ACAD_GROUP
350
C
  3
ACAD_LAYOUT
350
D
  3
ACAD_MATERIAL
350
E
  3
ACAD_MLEADERSTYLE
350
F
  3
ACAD_MLINESTYLE
350
10
  3
ACAD_PLOTSETTINGS
350
11
  3
ACAD_PLOTSTYLENAME
350
12
  3
ACAD_SCALELIST
350
14
  3
ACAD_TABLESTYLE
350
15
  3
ACAD_VISUALSTYLE
350
16
  3
EZDXF_META
350
2D
  0
DICTIONARY
  5
B
330
A
100
AcDbDictionary
280
0
281
1
  0
DICTIONARY
  5
C
330
A
100
AcDbDictionary
280
0
281
1
  0
DICTIONARY
  5
D
330
A
100
AcDbDictionary
280
0
281
1
  3
Model
350
1A
  3
Layout1
350
1E
  0
DICTIONARY
  5
E
330
A
100
AcDbDictionary
280
0
281
1
  3
ByBlock
350
1F
  3
ByLayer
350
20
  3
Global
350
21
  0
DICTIONARY
  5
F
330
A
100
AcDbDictionary
280
0
281
1
  3
Standard
350
2C
  0
DICTIONARY
  5
10
330
A
100
AcDbDictionary
280
0
281
1
  3
Standard
350
22
  0
DICTIONARY
  5
11
330
A
100
AcDbDictionary
280
0
281
1
  0
ACDBDICTIONARYWDFLT
  5
12
330
A
100
AcDbDictionary
280
0
281
1
  3
Normal
350
13
100
AcDbDictionaryWithDefault
340
13
  0
ACDBPLACEHOLDER
  5
13
330
12
  0
DICTIONARY
  5
14
330
A
100
AcDbDictionary
280
0
281
1
  0
DICTIONARY
  5
15
330
A
100
AcDbDictionary
280
0
281
1
  0
DICTIONARY
  5
16
330
A
100
AcDbDictionary
280
0
281
1
  3
2dWireframe
350
5A
  3
Basic
350
5B
  3
Brighten
350
5C
  3
ColorChange
350
5D
  3
Conceptual
350
5E
  3
Dim
350
5F
  3
EdgeColorOff
350
60
  3
Facepattern
350
61
  3
Flat
350
62
  3
FlatWithEdges
350
63
  3
Gouraud
350
64
  3
GouraudWithEdges
350
65
  3
Hidden
350
66
  3
JitterOff
350
67
  3
Linepattern
350
68
  3
Modeling
350
69
  3
OverhangOff
350
6A
  3
Realistic
350
6B
  3
Shaded
350
6C
  3
Shaded with edges
350
6D
  3
Shades of Gray
350
6E
  3
Sketchy
350
6F
  3
Thicken
350
70
  3
Wireframe
350
71
  3
X-Ray
350
72
  0
LAYOUT
  5
1A
330
D
100
AcDbPlotSettings
  1

  2
Adobe PDF
  4
A3
  6

 40
7.5
 41
20.0
 42
7.5
 43
20.0
 44
420.0
 45
297.0
 46
0.0
 47
0.0
 48
0.0
 49
0.0
140
0.0
141
0.0
142
1.0
143
1.0
 70
1024
 72
1
 73
0
 74
5
  7

 75
16
 76
0
 77
2
 78
300
147
1.0
148
0.0
149
0.0
100
AcDbLayout
  1
Model
 70
1
 71
0
 10
0.0
 20
0.0
 11
420.0
 21
297.0
 12
0.0
 22
0.0
 32
0.0
 14
1e+20
 24
1e+20
 34
1e+20
 15
-1e+20
 25
-1e+20
 35
-1e+20
146
0.0
 13
0.0
 23
0.0
 33
0.0
 16
1.0
 26
0.0
 36
0.0
 17
0.0
 27
1.0
 37
0.0
 76
1
330
17
  0
LAYOUT
  5
1E
330
D
100
AcDbPlotSettings
  1

  2
Adobe PDF
  4
A3
  6

 40
7.5
 41
20.0
 42
7.5
 43
20.0
 44
420.0
 45
297.0
 46
0.0
 47
0.0
 48
0.0
 49
0.0
140
0.0
141
0.0
142
1.0
143
1.0
 70
0
 72
1
 73
0
 74
5
  7

 75
16
 76
0
 77
2
 78
300
147
1.0
148
0.0
149
0.0
100
AcDbLayout
  1
Layout1
 70
1
 71
1
 10
0.0
 20
0.0
 11
420.0
 21
297.0
 12
0.0
 22
0.0
 32
0.0
 14
1e+20
 24
1e+20
 34
1e+20
 15
-1e+20
 25
-1e+20
 35
-1e+20
146
0.0
 13
0.0
 23
0.0
 33
0.0
 16
1.0
 26
0.0
 36
0.0
 17
0.0
 27
1.0
 37
0.0
 76
1
330
1B
  0
MATERIAL
  5
1F
102
{ACAD_REACTORS
330
E
102
}
330
E
100
AcDbMaterial
  1
ByBlock
  2

 70
0
 40
1.0
 71
1
 41
1.0
 91
-1023410177
 42
1.0
 72
1
  3

 73
1
 74
1
 75
1
 44
0.5
 73
0
 45
1.0
 46
1.0
 77
1
  4

 78
1
 79
1
170
1
 48
1.0
171
1
  6

172
1
173
1
174
1
140
1.0
141
1.0
175
1
  7

176
1
177
1
178
1
143
1.0
179
1
  8

270
1
271
1
272
1
145
1.0
146
1.0
273
1
  9

274
1
275
1
276
1
 42
1.0
 72
1
  3

 73
1
 74
1
 75
1
 94
63
  0
MATERIAL
  5
20
102
{ACAD_REACTORS
330
E
102
}
330
E
100
AcDbMaterial
  1
ByLayer
  2

 70
0
 40
1.0
 71
1
 41
1.0
 91
-1023410177
 42
1.0
 72
1
  3

 73
1
 74
1
 75
1
 44
0.5
 73
0
 45
1.0
 46
1.0
 77
1
  4

 78
1
 79
1
170
1
 48
1.0
171
1
  6

172
1
173
1
174
1
140
1.0
141
1.0
175
1
  7

176
1
177
1
178
1
143
1.0
179
1
  8

270
1
271
1
272
1
145
1.0
146
1.0
273
1
  9

274
1
275
1
276
1
 42
1.0
 72
1
  3

 73
1
 74
1
 75
1
 94
63
  0
MATERIAL
  5
21
102
{ACAD_REACTORS
330
E
102
}
330
E
100
AcDbMaterial
  1
Global
  2

 70
0
 40
1.0
 71
1
 41
1.0
 91
-1023410177
 42
1.0
 72
1
  3

 73
1
 74
1
 75
1
 44
0.5
 73
0
 45
1.0
 46
1.0
 77
1
  4

 78
1
 79
1
170
1
 48
1.0
171
1
  6

172
1
173
1
174
1
140
1.0
141
1.0
175
1
  7

176
1
177
1
178
1
143
1.0
179
1
  8

270
1
271
1
272
1
145
1.0
146
1.0
273
1
  9

274
1
275
1
276
1
 42
1.0
 72
1
  3

 73
1
 74
1
 75
1
 94
63
  0
MLINESTYLE
  5
22
102
{ACAD_REACTORS
330
10
102
}
330
10
100
AcDbMlineStyle
  2
Standard
 70
0
  3

 62
256
 51
90.0
 52
90.0
 71
2
 49
0.5
 62
256
  6
BYLAYER
 49
-0.5
 62
256
  6
BYLAYER
  0
MLEADERSTYLE
  5
2C
102
{ACAD_REACTORS
330
F
102
}
330
F
100
AcDbMLeaderStyle
179
2
170
2
171
1
172
0
 90
2
 40
0.0
 41
0.0
173
1
 91
-1056964608
 92
-2
290
1
 42
2.0
291
1
 43
8.0
  3
Standard
 44
4.0
300

342
29
174
1
175
1
176
0
178
1
 93
-1056964608
 45
4.0
292
0
297
0
 46
4.0
 94
-1056964608
 47
1.0
 49
1.0
140
1.0
294
1
141
0.0
177
0
142
1.0
295
0
296
0
143
3.75
271
0
272
9
273
9
  0
DICTIONARY
  5
2D
330
A
100
AcDbDictionary
281
1
  3
CREATED_BY_EZDXF
350
2E
  3
WRITTEN_BY_EZDXF
350
B9
  0
DICTIONARYVAR
  5
2E
330
2D
100
DictionaryVariables
280
0
  1
1.3.0 @ 2026-01-06T17:07:12.442100+00:00
  0
VISUALSTYLE
  5
5A
102
{ACAD_REACTORS
330
16
102
}
330
16
100
AcDbVisualStyle
  2
2dWireframe
 70
4
 90
0
 40
0.6
 62
7
290
0
291
0
  0
VISUALSTYLE
  5
5B
102
{ACAD_REACTORS
330
16
102
}
330
16
100
AcDbVisualStyle
  2
Basic
 70
7
 90
1
 40
0.6
 62
7
290
0
291
1
  0
VISUALSTYLE
  5
5C
102
{ACAD_REACTORS
330
16
102
}
330
16
100
AcDbVisualStyle
  2
Brighten
 70
12
 90
2
 40
0.6
 62
7
290
0
291
1
  0
VISUALSTYLE
  5
5D
102
{ACAD_REACTORS
330
16
102
}
330
16
100
AcDbVisualStyle
  2
ColorChange
 70
16
 90
2
 40
0.6
 62
8
290
0
291
1
  0
VISUALSTYLE
  5
5E
102
{ACAD_REACTORS
330
16
102
}
330
16
100
AcDbVisualStyle
  2
Conceptual
 70
9
 90
3
 40
0.6
 62
7
290
0
291
0
  0
VISUALSTYLE
  5
5F
102
{ACAD_REACTORS
330
16
102
}
330
16
100
AcDbVisualStyle
  2
Dim
 70
11
 90
2
 40
0.6
 62
7
290
0
291
1
  0
VISUALSTYLE
  5
60
102
{ACAD_REACTORS
330
16
102
}
330
16
100
AcDbVisualStyle
  2
EdgeColorOff
 70
22
 90
2
 40
0.6
 62
7
290
0
291
1
  0
VISUALSTYLE
  5
61
102
{ACAD_REACTORS
330
16
102
}
330
16
100
AcDbVisualStyle
  2
Facepattern
 70
15
 90
2
 40
0.6
 62
7
290
0
291
1
  0
VISUALSTYLE
  5
62
102
{ACAD_REACTORS
330
16
102
}
330
16
100
AcDbVisualStyle
  2
Flat
 70
0
 90
2
 40
0.6
 62
7
290
0
291
1
  0
VISUALSTYLE
  5
63
102
{ACAD_REACTORS
330
16
102
}
330
16
100
AcDbVisualStyle
  2
FlatWithEdges
 70
1
 90
2
 40
0.6
 62
7
290
0
291
1
  0
VISUALSTYLE
  5
64
102
{ACAD_REACTORS
330
16
102
}
330
16
100
AcDbVisualStyle
  2
Gouraud
 70
2
 90
2
 40
0.6
 62
7
290
0
291
1
  0
VISUALSTYLE
  5
65
102
{ACAD_REACTORS
330
16
102
}
330
16
100
AcDbVisualStyle
  2
GouraudWithEdges
 70
3
 90
2
 40
0.6
 62
7
290
0
291
1
  0
VISUALSTYLE
  5
66
102
{ACAD_REACTORS
330
16
102
}
330
16
100
AcDbVisualStyle
  2
Hidden
 70
6
 90
1
 40
0.6
 62
7
290
0
291
0
  0
VISUALSTYLE
  5
67
102
{ACAD_REACTORS
330
16
102
}
330
16
100
AcDbVisualStyle
  2
JitterOff
 70
20
 90
2
 40
0.6
 62
7
290
0
291
1
  0
VISUALSTYLE
  5
68
102
{ACAD_REACTORS
330
16
102
}
330
16
100
AcDbVisualStyle
  2
Linepattern
 70
14
 90
2
 40
0.6
 62
7
290
0
291
1
  0
VISUALSTYLE
  5
69
102
{ACAD_REACTORS
330
16
102
}
330
16
100
AcDbVisualStyle
  2
Modeling
 70
10
 90
2
 40
0.6
 62
7
290
0
291
0
  0
VISUALSTYLE
  5
6A
102
{ACAD_REACTORS
330
16
102
}
330
16
100
AcDbVisualStyle
  2
OverhangOff
 70
21
 90
2
 40
0.6
 62
7
290
0
291
1
  0
VISUALSTYLE
  5
6B
102
{ACAD_REACTORS
330
16
102
}
330
16
100
AcDbVisualStyle
  2
Realistic
 70
8
 90
2
 40
0.6
 62
7
290
0
291
0
  0
VISUALSTYLE
  5
6C
102
{ACAD_REACTORS
330
16
102
}
330
16
100
AcDbVisualStyle
  2
Shaded
 70
27
 90
2
 40
0.6
 62
7
290
0
291
0
  0
VISUALSTYLE
  5
6D
102
{ACAD_REACTORS
330
16
102
}
330
16
100
AcDbVisualStyle
  2
Shaded with edges
 70
26
 90
2
 40
0.6
 62
7
290
0
291
0
  0
VISUALSTYLE
  5
6E
102
{ACAD_REACTORS
330
16
102
}
330
16
100
AcDbVisualStyle
  2
Shades of Gray
 70
23
 90
2
 40
0.6
 62
7
290
0
291
0
  0
VISUALSTYLE
  5
6F
102
{ACAD_REACTORS
330
16
102
}
330
16
100
AcDbVisualStyle
  2
Sketchy
 70
24
 90
1
 40
0.6
 62
7
290
0
291
0
  0
VISUALSTYLE
  5
70
102
{ACAD_REACTORS
330
16
102
}
330
16
100
AcDbVisualStyle
  2
Thicken
 70
13
 90
2
 40
0.6
 62
7
290
0
291
1
  0
VISUALSTYLE
  5
71
102
{ACAD_REACTORS
330
16
102
}
330
16
100
AcDbVisualStyle
  2
Wireframe
 70
5
 90
0
 40
0.6
 62
7
290
0
291
0
  0
VISUALSTYLE
  5
72
102
{ACAD_REACTORS
330
16
102
}
330
16
100
AcDbVisualStyle
  2
X-Ray
 70
25
 90
2
 40
0.5
 62
7
290
0
291
0
  0
DICTIONARYVAR
  5
B9
330
2D
100
DictionaryVariables
280
0
  1
1.3.0 @ 2026-01-06T17:07:12.608432+00:00
  0
ENDSEC
  0
EOF
