  0
SECTION
  2
HEADER
  9
$ACADVER
  1
AC1021
  9
$ACADMAINTVER
 70
25
  9
$DWGCODEPAGE
  3
ANSI_1252
  9
$LASTSAVEDBY
  1
ezdxf
  9
$INSBASE
 10
0.0
 20
0.0
 30
0.0
  9
$EXTMIN
 10
1e+20
 20
1e+20
 30
1e+20
  9
$EXTMAX
 10
-1e+20
 20
-1e+20
 30
-1e+20
  9
$LIMMIN
 10
0.0
 20
0.0
  9
$LIMMAX
 10
420.0
 20
297.0
  9
$ORTHOMODE
 70
0
  9
$REGENMODE
 70
1
  9
$FILLMODE
 70
1
  9
$QTEXTMODE
 70
0
  9
$MIRRTEXT
 70
1
  9
$LTSCALE
 40
1.0
  9
$ATTMODE
 70
1
  9
$TEXTSIZE
 40
2.5
  9
$TRACEWID
 40
1.0
  9
$TEXTSTYLE
  7
OpenSans
  9
$CLAYER
  8
0
  9
$CELTYPE
  6
ByLayer
  9
$CECOLOR
 62
256
  9
$CELTSCALE
 40
1.0
  9
$DISPSILH
 70
0
  9
$DIMSCALE
 40
1.0
  9
$DIMASZ
 40
0.175
  9
$DIMEXO
 40
0.125
  9
$DIMDLI
 40
3.75
  9
$DIMRND
 40
0.0
  9
$DIMDLE
 40
0.0
  9
$DIMEXE
 40
0.375
  9
$DIMTP
 40
0.0
  9
$DIMTM
 40
0.0
  9
$DIMTXT
 40
0.25
  9
$DIMCEN
 40
2.5
  9
$DIMTSZ
 40
0.0
  9
$DIMTOL
 70
0
  9
$DIMLIM
 70
0
  9
$DIMTIH
 70
0
  9
$DIMTOH
 70
0
  9
$DIMSE1
 70
0
  9
$DIMSE2
 70
0
  9
$DIMTAD
 70
1
  9
$DIMZIN
 70
12
  9
$DIMBLK
  1
ARCHTICK
  9
$DIMASO
 70
1
  9
$DIMSHO
 70
1
  9
$DIMPOST
  1

  9
$DIMAPOST
  1

  9
$DIMALT
 70
0
  9
$DIMALTD
 70
3
  9
$DIMALTF
 40
0.03937007874
  9
$DIMLFAC
 40
100.0
  9
$DIMTOFL
 70
1
  9
$DIMTVP
 40
0.0
  9
$DIMTIX
 70
0
  9
$DIMSOXD
 70
0
  9
$DIMSAH
 70
0
  9
$DIMBLK1
  1

  9
$DIMBLK2
  1

  9
$DIMSTYLE
  2
EZDXF
  9
$DIMCLRD
 70
0
  9
$DIMCLRE
 70
0
  9
$DIMCLRT
 70
0
  9
$DIMTFAC
 40
0.5
  9
$DIMGAP
 40
0.1
  9
$DIMJUST
 70
0
  9
$DIMSD1
 70
0
  9
$DIMSD2
 70
0
  9
$DIMTOLJ
 70
0
  9
$DIMTZIN
 70
8
  9
$DIMALTZ
 70
0
  9
$DIMALTTZ
 70
0
  9
$DIMUPT
 70
1
  9
$DIMDEC
 70
2
  9
$DIMTDEC
 70
2
  9
$DIMALTU
 70
2
  9
$DIMALTTD
 70
3
  9
$DIMTXSTY
  7
OpenSansCondensed-Light
  9
$DIMAUNIT
 70
0
  9
$DIMADEC
 70
2
  9
$DIMALTRND
 40
0.0
  9
$DIMAZIN
 70
3
  9
$DIMDSEP
 70
46
  9
$DIMATFIT
 70
3
  9
$DIMFRAC
 70
0
  9
$DIMLDRBLK
  1

  9
$DIMLUNIT
 70
2
  9
$DIMLWD
 70
-2
  9
$DIMLWE
 70
-2
  9
$DIMTMOVE
 70
2
  9
$DIMFXL
 40
1.0
  9
$DIMFXLON
 70
0
  9
$DIMJOGANG
 40
0.785398163397
  9
$DIMTFILL
 70
0
  9
$DIMTFILLCLR
 70
0
  9
$DIMARCSYM
 70
0
  9
$DIMLTYPE
  6

  9
$DIMLTEX1
  6

  9
$DIMLTEX2
  6

  9
$LUNITS
 70
2
  9
$LUPREC
 70
4
  9
$SKETCHINC
 40
1.0
  9
$FILLETRAD
 40
10.0
  9
$AUNITS
 70
0
  9
$AUPREC
 70
2
  9
$MENU
  1
.
  9
$ELEVATION
 40
0.0
  9
$PELEVATION
 40
0.0
  9
$THICKNESS
 40
0.0
  9
$LIMCHECK
 70
0
  9
$CHAMFERA
 40
0.0
  9
$CHAMFERB
 40
0.0
  9
$CHAMFERC
 40
0.0
  9
$CHAMFERD
 40
0.0
  9
$SKPOLY
 70
0
  9
$TDCREATE
 40
2461048.0884837965
  9
$TDUCREATE
 40
2458532.153996898
  9
$TDUPDATE
 40
2461048.0884837965
  9
$TDUUPDATE
 40
2458532.1544311
  9
$TDINDWG
 40
0.0
  9
$TDUSRTIMER
 40
0.0
  9
$USRTIMER
 70
1
  9
$ANGBASE
 50
0.0
  9
$ANGDIR
 70
0
  9
$PDMODE
 70
0
  9
$PDSIZE
 40
0.0
  9
$PLINEWID
 40
0.0
  9
$SPLFRAME
 70
0
  9
$SPLINETYPE
 70
6
  9
$SPLINESEGS
 70
8
  9
$HANDSEED
  5
B2
  9
$SURFTAB1
 70
6
  9
$SURFTAB2
 70
6
  9
$SURFTYPE
 70
6
  9
$SURFU
 70
6
  9
$SURFV
 70
6
  9
$UCSBASE
  2

  9
$UCSNAME
  2

  9
$UCSORG
 10
0.0
 20
0.0
 30
0.0
  9
$UCSXDIR
 10
1.0
 20
0.0
 30
0.0
  9
$UCSYDIR
 10
0.0
 20
1.0
 30
0.0
  9
$UCSORTHOREF
  2

  9
$UCSORTHOVIEW
 70
0
  9
$UCSORGTOP
 10
0.0
 20
0.0
 30
0.0
  9
$UCSORGBOTTOM
 10
0.0
 20
0.0
 30
0.0
  9
$UCSORGLEFT
 10
0.0
 20
0.0
 30
0.0
  9
$UCSORGRIGHT
 10
0.0
 20
0.0
 30
0.0
  9
$UCSORGFRONT
 10
0.0
 20
0.0
 30
0.0
  9
$UCSORGBACK
 10
0.0
 20
0.0
 30
0.0
  9
$PUCSBASE
  2

  9
$PUCSNAME
  2

  9
$PUCSORG
 10
0.0
 20
0.0
 30
0.0
  9
$PUCSXDIR
 10
1.0
 20
0.0
 30
0.0
  9
$PUCSYDIR
 10
0.0
 20
1.0
 30
0.0
  9
$PUCSORTHOREF
  2

  9
$PUCSORTHOVIEW
 70
0
  9
$PUCSORGTOP
 10
0.0
 20
0.0
 30
0.0
  9
$PUCSORGBOTTOM
 10
0.0
 20
0.0
 30
0.0
  9
$PUCSORGLEFT
 10
0.0
 20
0.0
 30
0.0
  9
$PUCSORGRIGHT
 10
0.0
 20
0.0
 30
0.0
  9
$PUCSORGFRONT
 10
0.0
 20
0.0
 30
0.0
  9
$PUCSORGBACK
 10
0.0
 20
0.0
 30
0.0
  9
$USERI1
 70
0
  9
$USERI2
 70
0
  9
$USERI3
 70
0
  9
$USERI4
 70
0
  9
$USERI5
 70
0
  9
$USERR1
 40
0.0
  9
$USERR2
 40
0.0
  9
$USERR3
 40
0.0
  9
$USERR4
 40
0.0
  9
$USERR5
 40
0.0
  9
$WORLDVIEW
 70
1
  9
$SHADEDGE
 70
3
  9
$SHADEDIF
 70
70
  9
$TILEMODE
 70
1
  9
$MAXACTVP
 70
64
  9
$PINSBASE
 10
0.0
 20
0.0
 30
0.0
  9
$PLIMCHECK
 70
0
  9
$PEXTMIN
 10
1e+20
 20
1e+20
 30
1e+20
  9
$PEXTMAX
 10
-1e+20
 20
-1e+20
 30
-1e+20
  9
$PLIMMIN
 10
0.0
 20
0.0
  9
$PLIMMAX
 10
420.0
 20
297.0
  9
$UNITMODE
 70
0
  9
$VISRETAIN
 70
1
  9
$PLINEGEN
 70
0
  9
$PSLTSCALE
 70
1
  9
$TREEDEPTH
 70
3020
  9
$CMLSTYLE
  2
Standard
  9
$CMLJUST
 70
0
  9
$CMLSCALE
 40
20.0
  9
$PROXYGRAPHICS
 70
1
  9
$MEASUREMENT
 70
1
  9
$CELWEIGHT
370
-1
  9
$ENDCAPS
280
0
  9
$JOINSTYLE
280
0
  9
$LWDISPLAY
290
0
  9
$INSUNITS
 70
6
  9
$HYPERLINKBASE
  1

  9
$STYLESHEET
  1

  9
$XEDIT
290
1
  9
$CEPSNTYPE
380
0
  9
$PSTYLEMODE
290
1
  9
$FINGERPRINTGUID
  2
{6A630695-0A99-489A-A5CC-C7DB51E526A4}
  9
$VERSIONGUID
  2
{92CF96B3-3786-4DA4-923A-C00CB50824E3}
  9
$EXTNAMES
290
1
  9
$PSVPSCALE
 40
0.0
  9
$OLESTARTUP
290
0
  9
$SORTENTS
280
127
  9
$INDEXCTL
280
0
  9
$HIDETEXT
280
1
  9
$XCLIPFRAME
290
1
  9
$HALOGAP
280
0
  9
$OBSCOLOR
 70
257
  9
$OBSLTYPE
280
0
  9
$INTERSECTIONDISPLAY
280
0
  9
$INTERSECTIONCOLOR
 70
257
  9
$DIMASSOC
280
2
  9
$PROJECTNAME
  1

  9
$CAMERADISPLAY
290
0
  9
$LENSLENGTH
 40
50.0
  9
$CAMERAHEIGHT
 40
0.0
  9
$STEPSPERSEC
 40
24.0
  9
$STEPSIZE
 40
100.0
  9
$3DDWFPREC
 40
2.0
  9
$PSOLWIDTH
 40
0.005
  9
$PSOLHEIGHT
 40
0.08
  9
$LOFTANG1
 40
1.570796326795
  9
$LOFTANG2
 40
1.570796326795
  9
$LOFTMAG1
 40
0.0
  9
$LOFTMAG2
 40
0.0
  9
$LOFTPARAM
 70
7
  9
$LOFTNORMALS
280
1
  9
$LATITUDE
 40
37.795
  9
$LONGITUDE
 40
-122.394
  9
$NORTHDIRECTION
 40
0.0
  9
$TIMEZONE
 70
-8000
  9
$LIGHTGLYPHDISPLAY
280
1
  9
$TILEMODELIGHTSYNCH
280
1
  9
$CMATERIAL
347
20
  9
$SOLIDHIST
280
0
  9
$SHOWHIST
280
1
  9
$DWFFRAME
280
2
  9
$DGNFRAME
280
2
  9
$REALWORLDSCALE
290
1
  9
$INTERFERECOLOR
 62
256
  9
$CSHADOW
280
0
  9
$SHADOWPLANELOCATION
 40
0.0
  0
ENDSEC
  0
SECTION
  2
CLASSES
  0
CLASS
  1
ACDBDICTIONARYWDFLT
  2
AcDbDictionaryWithDefault
  3
ObjectDBX Classes
 90
0
 91
0
280
0
281
0
  0
CLASS
  1
SUN
  2
AcDbSun
  3
SCENEOE
 90
1153
 91
0
280
0
281
0
  0
CLASS
  1
VISUALSTYLE
  2
AcDbVisualStyle
  3
ObjectDBX Classes
 90
4095
 91
0
280
0
281
0
  0
CLASS
  1
MATERIAL
  2
AcDbMaterial
  3
ObjectDBX Classes
 90
1153
 91
0
280
0
281
0
  0
CLASS
  1
SCALE
  2
AcDbScale
  3
ObjectDBX Classes
 90
1153
 91
0
280
0
281
0
  0
CLASS
  1
TABLESTYLE
  2
AcDbTableStyle
  3
ObjectDBX Classes
 90
4095
 91
0
280
0
281
0
  0
CLASS
  1
MLEADERSTYLE
  2
AcDbMLeaderStyle
  3
ACDB_MLEADERSTYLE_CLASS
 90
4095
 91
0
280
0
281
0
  0
CLASS
  1
DICTIONARYVAR
  2
AcDbDictionaryVar
  3
ObjectDBX Classes
 90
0
 91
0
280
0
281
0
  0
CLASS
  1
CELLSTYLEMAP
  2
AcDbCellStyleMap
  3
ObjectDBX Classes
 90
1152
 91
0
280
0
281
0
  0
CLASS
  1
MENTALRAYRENDERSETTINGS
  2
AcDbMentalRayRenderSettings
  3
SCENEOE
 90
1024
 91
0
280
0
281
0
  0
CLASS
  1
ACDBDETAILVIEWSTYLE
  2
AcDbDetailViewStyle
  3
ObjectDBX Classes
 90
1025
 91
0
280
0
281
0
  0
CLASS
  1
ACDBSECTIONVIEWSTYLE
  2
AcDbSectionViewStyle
  3
ObjectDBX Classes
 90
1025
 91
0
280
0
281
0
  0
CLASS
  1
RASTERVARIABLES
  2
AcDbRasterVariables
  3
ISM
 90
0
 91
0
280
0
281
0
  0
CLASS
  1
ACDBPLACEHOLDER
  2
AcDbPlaceHolder
  3
ObjectDBX Classes
 90
0
 91
0
280
0
281
0
  0
CLASS
  1
LAYOUT
  2
AcDbLayout
  3
ObjectDBX Classes
 90
0
 91
0
280
0
281
0
  0
ENDSEC
  0
SECTION
  2
TABLES
  0
TABLE
  2
VPORT
  5
8
330
0
100
AcDbSymbolTable
 70
1
  0
VPORT
  5
23
330
8
100
AcDbSymbolTableRecord
100
AcDbViewportTableRecord
  2
*Active
 70
0
 10
0.0
 20
0.0
 11
1.0
 21
1.0
 12
0.0
 22
0.0
 13
0.0
 23
0.0
 14
0.5
 24
0.5
 15
0.5
 25
0.5
 16
0.0
 26
0.0
 36
1.0
 17
0.0
 27
0.0
 37
0.0
 40
1000.0
 41
1.34
 42
50.0
 43
0.0
 44
0.0
 50
0.0
 51
0.0
 71
0
 72
1000
 73
1
 74
3
 75
0
 76
0
 77
0
 78
0
281
0
 65
0
146
0.0
  0
ENDTAB
  0
TABLE
  2
LTYPE
  5
2
330
0
100
AcDbSymbolTable
 70
21
  0
LTYPE
  5
24
330
2
100
AcDbSymbolTableRecord
100
AcDbLinetypeTableRecord
  2
ByBlock
 70
0
  3

 72
65
 73
0
 40
0.0
  0
LTYPE
  5
25
330
2
100
AcDbSymbolTableRecord
100
AcDbLinetypeTableRecord
  2
ByLayer
 70
0
  3

 72
65
 73
0
 40
0.0
  0
LTYPE
  5
26
330
2
100
AcDbSymbolTableRecord
100
AcDbLinetypeTableRecord
  2
Continuous
 70
0
  3

 72
65
 73
0
 40
0.0
  0
LTYPE
  5
2F
330
2
100
AcDbSymbolTableRecord
100
AcDbLinetypeTableRecord
  2
CENTER
 70
0
  3
Center ____ _ ____ _ ____ _ ____ _ ____ _ ____
 72
65
 73
4
 40
5.08
 49
3.175
 74
0
 49
-0.635
 74
0
 49
0.635
 74
0
 49
-0.635
 74
0
  0
LTYPE
  5
30
330
2
100
AcDbSymbolTableRecord
100
AcDbLinetypeTableRecord
  2
CENTERX2
 70
0
  3
Center (2x) ________  __  ________  __  ________
 72
65
 73
4
 40
8.89
 49
6.35
 74
0
 49
-0.635
 74
0
 49
1.27
 74
0
 49
-0.635
 74
0
  0
LTYPE
  5
31
330
2
100
AcDbSymbolTableRecord
100
AcDbLinetypeTableRecord
  2
CENTER2
 70
0
  3
Center (.5x) ____ _ ____ _ ____ _ ____ _ ____
 72
65
 73
4
 40
2.54
 49
1.587
 74
0
 49
-0.318
 74
0
 49
0.318
 74
0
 49
-0.318
 74
0
  0
LTYPE
  5
32
330
2
100
AcDbSymbolTableRecord
100
AcDbLinetypeTableRecord
  2
DASHED
 70
0
  3
Dashed __ __ __ __ __ __ __ __ __ __ __ __ __ _
 72
65
 73
2
 40
1.524
 49
1.27
 74
0
 49
-0.254
 74
0
  0
LTYPE
  5
33
330
2
100
AcDbSymbolTableRecord
100
AcDbLinetypeTableRecord
  2
DASHEDX2
 70
0
  3
Dashed (2x) ____  ____  ____  ____  ____  ____
 72
65
 73
2
 40
3.048
 49
2.54
 74
0
 49
-0.508
 74
0
  0
LTYPE
  5
34
330
2
100
AcDbSymbolTableRecord
100
AcDbLinetypeTableRecord
  2
DASHED2
 70
0
  3
Dashed (.5x) _ _ _ _ _ _ _ _ _ _ _ _ _ _
 72
65
 73
2
 40
0.762
 49
0.635
 74
0
 49
-0.127
 74
0
  0
LTYPE
  5
35
330
2
100
AcDbSymbolTableRecord
100
AcDbLinetypeTableRecord
  2
PHANTOM
 70
0
  3
Phantom ______  __  __  ______  __  __  ______
 72
65
 73
6
 40
6.35
 49
3.175
 74
0
 49
-0.635
 74
0
 49
0.635
 74
0
 49
-0.635
 74
0
 49
0.635
 74
0
 49
-0.635
 74
0
  0
LTYPE
  5
36
330
2
100
AcDbSymbolTableRecord
100
AcDbLinetypeTableRecord
  2
PHANTOMX2
 70
0
  3
Phantom (2x)____________    ____    ____    ____________
 72
65
 73
6
 40
10.795
 49
6.35
 74
0
 49
-0.635
 74
0
 49
1.27
 74
0
 49
-0.635
 74
0
 49
1.27
 74
0
 49
-0.635
 74
0
  0
LTYPE
  5
37
330
2
100
AcDbSymbolTableRecord
100
AcDbLinetypeTableRecord
  2
PHANTOM2
 70
0
  3
Phantom (.5x) ___ _ _ ___ _ _ ___ _ _ ___ _ _ ___
 72
65
 73
6
 40
3.175
 49
1.587
 74
0
 49
-0.318
 74
0
 49
0.318
 74
0
 49
-0.318
 74
0
 49
0.318
 74
0
 49
-0.318
 74
0
  0
LTYPE
  5
38
330
2
100
AcDbSymbolTableRecord
100
AcDbLinetypeTableRecord
  2
DASHDOT
 70
0
  3
Dash dot __ . __ . __ . __ . __ . __ . __ . __
 72
65
 73
4
 40
3.556
 49
2.54
 74
0
 49
-0.508
 74
0
 49
0.0
 74
0
 49
-0.508
 74
0
  0
LTYPE
  5
39
330
2
100
AcDbSymbolTableRecord
100
AcDbLinetypeTableRecord
  2
DASHDOTX2
 70
0
  3
Dash dot (2x) ____  .  ____  .  ____  .  ____
 72
65
 73
4
 40
6.096
 49
5.08
 74
0
 49
-0.508
 74
0
 49
0.0
 74
0
 49
-0.508
 74
0
  0
LTYPE
  5
3A
330
2
100
AcDbSymbolTableRecord
100
AcDbLinetypeTableRecord
  2
DASHDOT2
 70
0
  3
Dash dot (.5x) _ . _ . _ . _ . _ . _ . _ . _
 72
65
 73
4
 40
1.778
 49
1.27
 74
0
 49
-0.254
 74
0
 49
0.0
 74
0
 49
-0.254
 74
0
  0
LTYPE
  5
3B
330
2
100
AcDbSymbolTableRecord
100
AcDbLinetypeTableRecord
  2
DOT
 70
0
  3
Dot .  .  .  .  .  .  .  .  .  .  .  .  .  .  .  .
 72
65
 73
2
 40
0.508
 49
0.0
 74
0
 49
-0.508
 74
0
  0
LTYPE
  5
3C
330
2
100
AcDbSymbolTableRecord
100
AcDbLinetypeTableRecord
  2
DOTX2
 70
0
  3
Dot (2x) .    .    .    .    .    .    .    . 
 72
65
 73
2
 40
1.016
 49
0.0
 74
0
 49
-1.016
 74
0
  0
LTYPE
  5
3D
330
2
100
AcDbSymbolTableRecord
100
AcDbLinetypeTableRecord
  2
DOT2
 70
0
  3
Dot (.5) . . . . . . . . . . . . . . . . . . . 
 72
65
 73
2
 40
0.254
 49
0.0
 74
0
 49
-0.254
 74
0
  0
LTYPE
  5
3E
330
2
100
AcDbSymbolTableRecord
100
AcDbLinetypeTableRecord
  2
DIVIDE
 70
0
  3
Divide __ . . __ . . __ . . __ . . __ . . __
 72
65
 73
6
 40
4.064
 49
2.54
 74
0
 49
-0.508
 74
0
 49
0.0
 74
0
 49
-0.508
 74
0
 49
0.0
 74
0
 49
-0.508
 74
0
  0
LTYPE
  5
3F
330
2
100
AcDbSymbolTableRecord
100
AcDbLinetypeTableRecord
  2
DIVIDEX2
 70
0
  3
Divide (2x) ____  . .  ____  . .  ____  . .  ____
 72
65
 73
6
 40
6.604
 49
5.08
 74
0
 49
-0.508
 74
0
 49
0.0
 74
0
 49
-0.508
 74
0
 49
0.0
 74
0
 49
-0.508
 74
0
  0
LTYPE
  5
40
330
2
100
AcDbSymbolTableRecord
100
AcDbLinetypeTableRecord
  2
DIVIDE2
 70
0
  3
Divide(.5x) _ . _ . _ . _ . _ . _ . _ . _
 72
65
 73
6
 40
2.032
 49
1.27
 74
0
 49
-0.254
 74
0
 49
0.0
 74
0
 49
-0.254
 74
0
 49
0.0
 74
0
 49
-0.254
 74
0
  0
ENDTAB
  0
TABLE
  2
LAYER
  5
1
330
0
100
AcDbSymbolTable
 70
4
  0
LAYER
  5
27
330
1
100
AcDbSymbolTableRecord
100
AcDbLayerTableRecord
  2
0
 70
0
 62
7
  6
Continuous
370
-3
390
13
347
21
  0
LAYER
  5
28
330
1
100
AcDbSymbolTableRecord
100
AcDbLayerTableRecord
  2
Defpoints
 70
0
 62
7
  6
Continuous
290
0
370
-3
390
13
347
21
  0
LAYER
  5
8A
330
1
100
AcDbSymbolTableRecord
100
AcDbLayerTableRecord
  2
Layer
 70
0
 62
1
  6
Continuous
370
50
390
13
347
21
  0
LAYER
  5
8B
330
1
100
AcDbSymbolTableRecord
100
AcDbLayerTableRecord
  2
NumLabel
 70
0
 62
1
  6
Continuous
370
15
390
13
347
21
  0
ENDTAB
  0
TABLE
  2
STYLE
  5
5
330
0
100
AcDbSymbolTable
 70
26
  0
STYLE
  5
29
330
5
100
AcDbSymbolTableRecord
100
AcDbTextStyleTableRecord
  2
Standard
 70
0
 40
0.0
 41
1.0
 50
0.0
 71
0
 42
2.5
  3
txt
  4

  0
STYLE
  5
41
330
5
100
AcDbSymbolTableRecord
100
AcDbTextStyleTableRecord
  2
OpenSans-Light
 70
0
 40
0.0
 41
1.0
 50
0.0
 71
0
 42
2.5
  3
OpenSans-Light.ttf
  4

  0
STYLE
  5
42
330
5
100
AcDbSymbolTableRecord
100
AcDbTextStyleTableRecord
  2
OpenSans-Light-Italic
 70
0
 40
0.0
 41
1.0
 50
0.0
 71
0
 42
2.5
  3
OpenSans-LightItalic.ttf
  4

  0
STYLE
  5
43
330
5
100
AcDbSymbolTableRecord
100
AcDbTextStyleTableRecord
  2
OpenSans
 70
0
 40
0.0
 41
1.0
 50
0.0
 71
0
 42
2.5
  3
OpenSans-Regular.ttf
  4

  0
STYLE
  5
44
330
5
100
AcDbSymbolTableRecord
100
AcDbTextStyleTableRecord
  2
OpenSans-Italic
 70
0
 40
0.0
 41
1.0
 50
0.0
 71
0
 42
2.5
  3
OpenSans-Italic.ttf
  4

  0
STYLE
  5
45
330
5
100
AcDbSymbolTableRecord
100
AcDbTextStyleTableRecord
  2
OpenSans-SemiBold
 70
0
 40
0.0
 41
1.0
 50
0.0
 71
0
 42
2.5
  3
OpenSans-SemiBold.ttf
  4

  0
STYLE
  5
46
330
5
100
AcDbSymbolTableRecord
100
AcDbTextStyleTableRecord
  2
OpenSans-SemiBoldItalic
 70
0
 40
0.0
 41
1.0
 50
0.0
 71
0
 42
2.5
  3
OpenSans-SemiBoldItalic.ttf
  4

  0
STYLE
  5
47
330
5
100
AcDbSymbolTableRecord
100
AcDbTextStyleTableRecord
  2
OpenSans-Bold
 70
0
 40
0.0
 41
1.0
 50
0.0
 71
0
 42
2.5
  3
OpenSans-Bold.ttf
  4

  0
STYLE
  5
48
330
5
100
AcDbSymbolTableRecord
100
AcDbTextStyleTableRecord
  2
OpenSans-BoldItalic
 70
0
 40
0.0
 41
1.0
 50
0.0
 71
0
 42
2.5
  3
OpenSans-BoldItalic.ttf
  4

  0
STYLE
  5
49
330
5
100
AcDbSymbolTableRecord
100
AcDbTextStyleTableRecord
  2
OpenSans-ExtraBold
 70
0
 40
0.0
 41
1.0
 50
0.0
 71
0
 42
2.5
  3
OpenSans-ExtraBold.ttf
  4

  0
STYLE
  5
4A
330
5
100
AcDbSymbolTableRecord
100
AcDbTextStyleTableRecord
  2
OpenSans-ExtraBoldItalic
 70
0
 40
0.0
 41
1.0
 50
0.0
 71
0
 42
2.5
  3
OpenSans-ExtraBoldItalic.ttf
  4

  0
STYLE
  5
4B
330
5
100
AcDbSymbolTableRecord
100
AcDbTextStyleTableRecord
  2
OpenSansCondensed-Bold
 70
0
 40
0.0
 41
1.0
 50
0.0
 71
0
 42
2.5
  3
OpenSansCondensed-Bold.ttf
  4

  0
STYLE
  5
4C
330
5
100
AcDbSymbolTableRecord
100
AcDbTextStyleTableRecord
  2
OpenSansCondensed-Light
 70
0
 40
0.0
 41
1.0
 50
0.0
 71
0
 42
2.5
  3
OpenSansCondensed-Light.ttf
  4

  0
STYLE
  5
4D
330
5
100
AcDbSymbolTableRecord
100
AcDbTextStyleTableRecord
  2
OpenSansCondensed-Italic
 70
0
 40
0.0
 41
1.0
 50
0.0
 71
0
 42
2.5
  3
OpenSansCondensed-LightItalic.ttf
  4

  0
STYLE
  5
4E
330
5
100
AcDbSymbolTableRecord
100
AcDbTextStyleTableRecord
  2
LiberationSans
 70
0
 40
0.0
 41
1.0
 50
0.0
 71
0
 42
2.5
  3
LiberationSans-Regular.ttf
  4

  0
STYLE
  5
4F
330
5
100
AcDbSymbolTableRecord
100
AcDbTextStyleTableRecord
  2
LiberationSans-Bold
 70
0
 40
0.0
 41
1.0
 50
0.0
 71
0
 42
2.5
  3
LiberationSans-Bold.ttf
  4

  0
STYLE
  5
50
330
5
100
AcDbSymbolTableRecord
100
AcDbTextStyleTableRecord
  2
LiberationSans-BoldItalic
 70
0
 40
0.0
 41
1.0
 50
0.0
 71
0
 42
2.5
  3
LiberationSans-BoldItalic.ttf
  4

  0
STYLE
  5
51
330
5
100
AcDbSymbolTableRecord
100
AcDbTextStyleTableRecord
  2
LiberationSans-Italic
 70
0
 40
0.0
 41
1.0
 50
0.0
 71
0
 42
2.5
  3
LiberationSans-Italic.ttf
  4

  0
STYLE
  5
52
330
5
100
AcDbSymbolTableRecord
100
AcDbTextStyleTableRecord
  2
LiberationSerif
 70
0
 40
0.0
 41
1.0
 50
0.0
 71
0
 42
2.5
  3
LiberationSerif-Regular.ttf
  4

  0
STYLE
  5
53
330
5
100
AcDbSymbolTableRecord
100
AcDbTextStyleTableRecord
  2
LiberationSerif-Bold
 70
0
 40
0.0
 41
1.0
 50
0.0
 71
0
 42
2.5
  3
LiberationSerif-Bold.ttf
  4

  0
STYLE
  5
54
330
5
100
AcDbSymbolTableRecord
100
AcDbTextStyleTableRecord
  2
LiberationSerif-BoldItalic
 70
0
 40
0.0
 41
1.0
 50
0.0
 71
0
 42
2.5
  3
LiberationSerif-BoldItalic.ttf
  4

  0
STYLE
  5
55
330
5
100
AcDbSymbolTableRecord
100
AcDbTextStyleTableRecord
  2
LiberationSerif-Italic
 70
0
 40
0.0
 41
1.0
 50
0.0
 71
0
 42
2.5
  3
LiberationSerif-Italic.ttf
  4

  0
STYLE
  5
56
330
5
100
AcDbSymbolTableRecord
100
AcDbTextStyleTableRecord
  2
LiberationMono
 70
0
 40
0.0
 41
1.0
 50
0.0
 71
0
 42
2.5
  3
LiberationMono-Regular.ttf
  4

  0
STYLE
  5
57
330
5
100
AcDbSymbolTableRecord
100
AcDbTextStyleTableRecord
  2
LiberationMono-Bold
 70
0
 40
0.0
 41
1.0
 50
0.0
 71
0
 42
2.5
  3
LiberationMono-Bold.ttf
  4

  0
STYLE
  5
58
330
5
100
AcDbSymbolTableRecord
100
AcDbTextStyleTableRecord
  2
LiberationMono-BoldItalic
 70
0
 40
0.0
 41
1.0
 50
0.0
 71
0
 42
2.5
  3
LiberationMono-BoldItalic.ttf
  4

  0
STYLE
  5
59
330
5
100
AcDbSymbolTableRecord
100
AcDbTextStyleTableRecord
  2
LiberationMono-Italic
 70
0
 40
0.0
 41
1.0
 50
0.0
 71
0
 42
2.5
  3
LiberationMono-Italic.ttf
  4

  0
ENDTAB
  0
TABLE
  2
VIEW
  5
7
330
0
100
AcDbSymbolTable
 70
0
  0
ENDTAB
  0
TABLE
  2
UCS
  5
6
330
0
100
AcDbSymbolTable
 70
0
  0
ENDTAB
  0
TABLE
  2
APPID
  5
3
330
0
100
AcDbSymbolTable
 70
3
  0
APPID
  5
2A
330
3
100
AcDbSymbolTableRecord
100
AcDbRegAppTableRecord
  2
ACAD
 70
0
  0
APPID
  5
AF
330
3
100
AcDbSymbolTableRecord
100
AcDbRegAppTableRecord
  2
HATCHBACKGROUNDCOLOR
 70
0
  0
APPID
  5
B0
330
3
100
AcDbSymbolTableRecord
100
AcDbRegAppTableRecord
  2
EZDXF
 70
0
  0
ENDTAB
  0
TABLE
  2
DIMSTYLE
  5
4
330
0
100
AcDbSymbolTable
 70
12
100
AcDbDimStyleTable
  0
DIMSTYLE
105
2B
330
4
100
AcDbSymbolTableRecord
100
AcDbDimStyleTableRecord
  2
Standard
 70
0
 40
1.0
 41
2.5
 42
0.625
 43
3.75
 44
1.25
 45
0.0
 46
0.0
 47
0.0
 48
0.0
 49
2.5
140
2.5
141
2.5
142
0.0
143
0.03937007874
144
1.0
145
0.0
146
1.0
147
0.625
148
0.0
 69
0
 70
0
 71
0
 72
0
 73
0
 74
0
 75
0
 76
0
 77
1
 78
8
 79
3
170
0
171
3
172
1
173
0
174
0
175
0
176
0
177
0
178
0
179
2
271
2
272
2
273
2
274
3
275
0
276
0
277
2
278
44
279
0
280
0
281
0
282
0
283
0
284
8
285
0
286
0
288
0
289
3
290
0
371
-2
372
-2
  0
DIMSTYLE
105
73
330
4
100
AcDbSymbolTableRecord
100
AcDbDimStyleTableRecord
  2
EZDXF
 70
0
 40
1.0
 41
0.175
 42
0.125
 43
3.75
 44
0.375
 45
0.0
 46
0.0
 47
0.0
 48
0.0
 49
2.5
140
0.25
141
2.5
142
0.0
143
0.03937007874
144
100.0
145
0.0
146
0.5
147
0.1
148
0.0
 69
0
 70
0
 71
0
 72
0
 73
0
 74
0
 75
0
 76
0
 77
1
 78
12
 79
3
170
0
171
3
172
1
173
0
174
0
175
0
176
0
177
0
178
0
179
2
271
2
272
2
273
2
274
3
275
0
276
0
277
2
278
46
279
2
280
0
281
0
282
0
283
0
284
8
285
0
286
0
288
1
289
3
290
0
340
4C
342
74
371
-2
372
-2
  0
DIMSTYLE
105
7C
330
4
100
AcDbSymbolTableRecord
100
AcDbDimStyleTableRecord
  2
EZ_M_100_H25_CM
 70
0
 40
1.0
 41
0.25
 42
0.125
 43
3.75
 44
0.375
 45
0.0
 46
0.0
 47
0.0
 48
0.0
 49
2.5
140
0.25
141
2.5
142
0.125
143
0.03937007874
144
100.0
145
0.0
146
0.5
147
0.1
148
0.0
 69
0
 70
0
 71
0
 72
0
 73
0
 74
0
 75
0
 76
0
 77
1
 78
12
 79
3
170
0
171
3
172
1
173
0
174
0
175
0
176
0
177
0
178
0
179
2
271
2
272
2
273
2
274
3
275
0
276
0
277
2
278
46
279
2
280
0
281
0
282
0
283
0
284
8
285
0
286
0
288
1
289
3
290
0
340
4C
371
-2
372
-2
  0
DIMSTYLE
105
7D
330
4
100
AcDbSymbolTableRecord
100
AcDbDimStyleTableRecord
  2
EZ_M_50_H25_CM
 70
0
 40
1.0
 41
0.125
 42
0.0625
 43
3.75
 44
0.1875
 45
0.0
 46
0.0
 47
0.0
 48
0.0
 49
2.5
140
0.125
141
2.5
142
0.0625
143
0.03937007874
144
100.0
145
0.0
146
0.5
147
0.05
148
0.0
 69
0
 70
0
 71
0
 72
0
 73
0
 74
0
 75
0
 76
0
 77
1
 78
12
 79
3
170
0
171
3
172
1
173
0
174
0
175
0
176
0
177
0
178
0
179
2
271
2
272
2
273
2
274
3
275
0
276
0
277
2
278
46
279
2
280
0
281
0
282
0
283
0
284
8
285
0
286
0
288
1
289
3
290
0
340
4C
371
-2
372
-2
  0
DIMSTYLE
105
7E
330
4
100
AcDbSymbolTableRecord
100
AcDbDimStyleTableRecord
  2
EZ_M_25_H25_CM
 70
0
 40
1.0
 41
0.0625
 42
0.03125
 43
3.75
 44
0.09375
 45
0.0
 46
0.0
 47
0.0
 48
0.0
 49
2.5
140
0.0625
141
2.5
142
0.03125
143
0.03937007874
144
100.0
145
0.0
146
0.5
147
0.025
148
0.0
 69
0
 70
0
 71
0
 72
0
 73
0
 74
0
 75
0
 76
0
 77
1
 78
12
 79
3
170
0
171
3
172
1
173
0
174
0
175
0
176
0
177
0
178
0
179
2
271
2
272
2
273
2
274
3
275
0
276
0
277
2
278
46
279
2
280
0
281
0
282
0
283
0
284
8
285
0
286
0
288
1
289
3
290
0
340
4C
371
-2
372
-2
  0
DIMSTYLE
105
7F
330
4
100
AcDbSymbolTableRecord
100
AcDbDimStyleTableRecord
  2
EZ_M_20_H25_CM
 70
0
 40
1.0
 41
0.05
 42
0.025
 43
3.75
 44
0.07500000000000001
 45
0.0
 46
0.0
 47
0.0
 48
0.0
 49
2.5
140
0.05
141
2.5
142
0.025
143
0.03937007874
144
100.0
145
0.0
146
0.5
147
0.020000000000000004
148
0.0
 69
0
 70
0
 71
0
 72
0
 73
0
 74
0
 75
0
 76
0
 77
1
 78
12
 79
3
170
0
171
3
172
1
173
0
174
0
175
0
176
0
177
0
178
0
179
2
271
2
272
2
273
2
274
3
275
0
276
0
277
2
278
46
279
2
280
0
281
0
282
0
283
0
284
8
285
0
286
0
288
1
289
3
290
0
340
4C
371
-2
372
-2
  0
DIMSTYLE
105
80
330
4
100
AcDbSymbolTableRecord
100
AcDbDimStyleTableRecord
  2
EZ_M_10_H25_CM
 70
0
 40
1.0
 41
0.025
 42
0.0125
 43
3.75
 44
0.037500000000000006
 45
0.0
 46
0.0
 47
0.0
 48
0.0
 49
2.5
140
0.025
141
2.5
142
0.0125
143
0.03937007874
144
100.0
145
0.0
146
0.5
147
0.010000000000000002
148
0.0
 69
0
 70
0
 71
0
 72
0
 73
0
 74
0
 75
0
 76
0
 77
1
 78
12
 79
3
170
0
171
3
172
1
173
0
174
0
175
0
176
0
177
0
178
0
179
2
271
2
272
2
273
2
274
3
275
0
276
0
277
2
278
46
279
2
280
0
281
0
282
0
283
0
284
8
285
0
286
0
288
1
289
3
290
0
340
4C
371
-2
372
-2
  0
DIMSTYLE
105
81
330
4
100
AcDbSymbolTableRecord
100
AcDbDimStyleTableRecord
  2
EZ_M_5_H25_CM
 70
0
 40
1.0
 41
0.0125
 42
0.00625
 43
3.75
 44
0.018750000000000003
 45
0.0
 46
0.0
 47
0.0
 48
0.0
 49
2.5
140
0.0125
141
2.5
142
0.00625
143
0.03937007874
144
100.0
145
0.0
146
0.5
147
0.005000000000000001
148
0.0
 69
0
 70
0
 71
0
 72
0
 73
0
 74
0
 75
0
 76
0
 77
1
 78
12
 79
3
170
0
171
3
172
1
173
0
174
0
175
0
176
0
177
0
178
0
179
2
271
2
272
2
273
2
274
3
275
0
276
0
277
2
278
46
279
2
280
0
281
0
282
0
283
0
284
8
285
0
286
0
288
1
289
3
290
0
340
4C
371
-2
372
-2
  0
DIMSTYLE
105
82
330
4
100
AcDbSymbolTableRecord
100
AcDbDimStyleTableRecord
  2
EZ_M_1_H25_CM
 70
0
 40
1.0
 41
0.0025
 42
0.00125
 43
3.75
 44
0.00375
 45
0.0
 46
0.0
 47
0.0
 48
0.0
 49
2.5
140
0.0025
141
2.5
142
0.00125
143
0.03937007874
144
100.0
145
0.0
146
0.5
147
0.001
148
0.0
 69
0
 70
0
 71
0
 72
0
 73
0
 74
0
 75
0
 76
0
 77
1
 78
12
 79
3
170
0
171
3
172
1
173
0
174
0
175
0
176
0
177
0
178
0
179
2
271
2
272
2
273
2
274
3
275
0
276
0
277
2
278
46
279
2
280
0
281
0
282
0
283
0
284
8
285
0
286
0
288
1
289
3
290
0
340
4C
371
-2
372
-2
  0
DIMSTYLE
105
83
330
4
100
AcDbSymbolTableRecord
100
AcDbDimStyleTableRecord
  2
EZ_RADIUS
 70
0
 40
1.0
 41
0.25
 42
0.125
 43
3.75
 44
0.375
 45
0.0
 46
0.0
 47
0.0
 48
0.0
 49
2.5
140
0.25
141
0.0
142
0.0
143
0.03937007874
144
100.0
145
0.0
146
0.5
147
0.1
148
0.0
 69
0
 70
0
 71
0
 72
0
 73
0
 74
0
 75
0
 76
0
 77
1
 78
12
 79
3
170
0
171
3
172
0
173
0
174
0
175
0
176
0
177
0
178
0
179
2
271
2
272
2
273
2
274
3
275
0
276
0
277
2
278
46
279
1
280
0
281
0
282
0
283
0
284
8
285
0
286
0
288
1
289
3
290
0
340
4C
342
84
371
-2
372
-2
  0
DIMSTYLE
105
88
330
4
100
AcDbSymbolTableRecord
100
AcDbDimStyleTableRecord
  2
EZ_RADIUS_INSIDE
 70
0
 40
1.0
 41
0.25
 42
0.125
 43
3.75
 44
0.375
 45
0.0
 46
0.0
 47
0.0
 48
0.0
 49
2.5
140
0.25
141
0.0
142
0.0
143
0.03937007874
144
100.0
145
0.0
146
0.5
147
0.1
148
0.0
 69
0
 70
0
 71
0
 72
0
 73
0
 74
0
 75
0
 76
0
 77
0
 78
12
 79
3
170
0
171
3
172
0
173
0
174
1
175
0
176
0
177
0
178
0
179
2
271
2
272
2
273
2
274
3
275
0
276
0
277
2
278
46
279
0
280
0
281
0
282
0
283
0
284
8
285
0
286
0
288
1
289
0
290
0
340
4C
342
84
371
-2
372
-2
  0
DIMSTYLE
105
89
330
4
100
AcDbSymbolTableRecord
100
AcDbDimStyleTableRecord
  2
EZ_CURVED
 70
0
 40
1.0
 41
0.25
 42
0.125
 43
3.75
 44
0.375
 45
0.0
 46
0.0
 47
0.0
 48
0.0
 49
2.5
140
0.25
141
2.5
142
0.0
143
0.03937007874
144
100.0
145
0.0
146
0.5
147
0.1
148
0.0
 69
0
 70
0
 71
0
 72
0
 73
0
 74
0
 75
0
 76
0
 77
1
 78
12
 79
2
 90
2
170
0
171
3
172
1
173
0
174
0
175
0
176
0
177
0
178
0
179
2
271
2
272
2
273
2
274
3
275
0
276
0
277
2
278
46
279
2
280
0
281
0
282
0
283
0
284
8
285
0
286
0
288
1
289
3
290
0
340
4C
371
-2
372
-2
  0
ENDTAB
  0
TABLE
  2
BLOCK_RECORD
  5
9
330
0
100
AcDbSymbolTable
 70
5
  0
BLOCK_RECORD
  5
17
330
9
100
AcDbSymbolTableRecord
100
AcDbBlockTableRecord
  2
*Model_Space
340
1A
 70
0
280
1
281
0
  0
BLOCK_RECORD
  5
1B
330
9
100
AcDbSymbolTableRecord
100
AcDbBlockTableRecord
  2
*Paper_Space
340
1E
 70
0
280
1
281
0
  0
BLOCK_RECORD
  5
74
330
9
100
AcDbSymbolTableRecord
100
AcDbBlockTableRecord
  2
_ARCHTICK
340
0
 70
0
280
1
281
0
  0
BLOCK_RECORD
  5
78
330
9
100
AcDbSymbolTableRecord
100
AcDbBlockTableRecord
  2
_CLOSEDFILLED
340
0
 70
0
280
1
281
0
  0
BLOCK_RECORD
  5
84
330
9
100
AcDbSymbolTableRecord
100
AcDbBlockTableRecord
  2
_CLOSEDBLANK
340
0
 70
0
280
1
281
0
  0
ENDTAB
  0
ENDSEC
  0
SECTION
  2
BLOCKS
  0
BLOCK
  5
18
330
17
100
AcDbEntity
  8
0
100
AcDbBlockBegin
  2
*Model_Space
 70
0
 10
0.0
 20
0.0
 30
0.0
  3
*Model_Space
  1

  0
ENDBLK
  5
19
330
17
100
AcDbEntity
  8
0
100
AcDbBlockEnd
  0
BLOCK
  5
1C
330
1B
100
AcDbEntity
  8
0
100
AcDbBlockBegin
  2
*Paper_Space
 70
0
 10
0.0
 20
0.0
 30
0.0
  3
*Paper_Space
  1

  0
ENDBLK
  5
1D
330
1B
100
AcDbEntity
  8
0
100
AcDbBlockEnd
  0
BLOCK
  5
75
330
74
100
AcDbEntity
  8
0
100
AcDbBlockBegin
  2
_ARCHTICK
 70
0
 10
0.0
 20
0.0
 30
0.0
  3
_ARCHTICK
  1

  0
LWPOLYLINE
  5
77
330
74
100
AcDbEntity
  8
0
  6
BYBLOCK
 62
0
100
AcDbPolyline
 90
2
 70
0
 43
0.15
 10
-0.5
 20
-0.5
 10
0.5
 20
0.5
  0
ENDBLK
  5
76
330
74
100
AcDbEntity
  8
0
100
AcDbBlockEnd
  0
BLOCK
  5
79
330
78
100
AcDbEntity
  8
0
100
AcDbBlockBegin
  2
_CLOSEDFILLED
 70
0
 10
0.0
 20
0.0
 30
0.0
  3
_CLOSEDFILLED
  1

  0
SOLID
  5
7B
330
78
100
AcDbEntity
  8
0
  6
BYBLOCK
 62
0
100
AcDbTrace
 10
-1.0
 20
0.16439898372402537
 30
0.0
 11
0.0
 21
0.0
 31
0.0
 12
-1.0
 22
-0.16439898372402537
 32
0.0
 13
-1.0
 23
-0.16439898372402537
 33
0.0
  0
ENDBLK
  5
7A
330
78
100
AcDbEntity
  8
0
100
AcDbBlockEnd
  0
BLOCK
  5
85
330
84
100
AcDbEntity
  8
0
100
AcDbBlockBegin
  2
_CLOSEDBLANK
 70
0
 10
0.0
 20
0.0
 30
0.0
  3
_CLOSEDBLANK
  1

  0
LWPOLYLINE
  5
87
330
84
100
AcDbEntity
  8
0
  6
BYBLOCK
 62
0
100
AcDbPolyline
 90
3
 70
1
 10
-1.0
 20
0.16439898372402537
 10
0.0
 20
0.0
 10
-1.0
 20
-0.16439898372402537
  0
ENDBLK
  5
86
330
84
100
AcDbEntity
  8
0
100
AcDbBlockEnd
  0
ENDSEC
  0
SECTION
  2
ENTITIES
  0
LWPOLYLINE
  5
8C
330
17
100
AcDbEntity
  8
Layer
100
AcDbPolyline
 90
261
 70
1
 10
159.7100265789985
 20
191.61905742946726
 10
159.01674782513712
 20
191.75578501712187
 10
157.88582330757635
 20
191.9835108433307
 10
156.67185216219357
 20
192.2381697455189
 10
155.40097323275737
 20
192.51142941244504
 10
154.09526085349123
 20
192.79862616434457
 10
152.7706168260937
 20
193.0956908276048
 10
151.43617061770448
 20
193.40191400688607
 10
150.09477175864436
 20
193.7133520972774
 10
148.75255150940157
 20
194.03062943027652
 10
147.4094486620865
 20
194.3541829825046
 10
146.06470815295654
 20
194.6809173713247
 10
144.72253282639548
 20
195.01136224500078
 10
143.3832220028014
 20
195.3480283166213
 10
142.04584328280183
 20
195.69103155006292
 10
140.70829802783445
 20
196.03657000586406
 10
139.3669571846965
 20
196.38220995421457
 10
138.02616837002728
 20
196.7328618629638
 10
136.68270605720286
 20
197.0878029904804
 10
135.33776777110242
 20
197.44414697557963
 10
133.99348882411607
 20
197.80200076593383
 10
132.65164375331034
 20
198.16217609743518
 10
131.3125771244981
 20
198.52352940484118
 10
129.97393867969578
 20
198.8816510057255
 10
128.63394455933894
 20
199.2397232125183
 10
127.29487742127938
 20
199.59882870647468
 10
125.95607872682564
 20
199.95420241581417
 10
124.61547172549457
 20
200.30651814646018
 10
123.2770042799383
 20
200.6561774682716
 10
122.44005012761181
 20
200.87159217372675
 10
122.19079428064695
 20
199.90315450265348
 10
121.69698239394421
 20
200.03026734751816
 10
120.36293183473748
 20
200.3672013324387
 10
119.03112244338817
 20
200.69895559294474
 10
117.69741393181269
 20
201.024540409866
 10
116.36260586799
 20
201.34514924249655
 10
115.03074816896614
 20
201.65968767650446
 10
113.70032171149649
 20
201.9665307176289
 10
112.36721197363383
 20
202.26584229230278
 10
111.03105721414369
 20
202.55864020636037
 10
109.69107281025445
 20
202.84572154515172
 10
108.35171132896488
 20
203.12743963264774
 10
107.01364568564077
 20
203.40216650525463
 10
105.6755025325688
 20
203.66948672765974
 10
104.33644988457999
 20
203.92892260826284
 10
102.99034492644074
 20
204.18202409176465
 10
101.65023995127913
 20
204.42968399212046
 10
100.31104590561887
 20
204.66751858467546
 10
98.96419828005669
 20
204.89763358104904
 10
97.6148607206602
 20
205.12235439140932
 10
96.26811011542316
 20
205.34073654081305
 10
94.92190946306593
 20
205.55102809973172
 10
93.57353905244676
 20
205.75325955313204
 10
92.22154184861711
 20
205.9483503230197
 10
90.86721678519766
 20
206.13723367430822
 10
89.51384498096704
 20
206.3197973020754
 10
88.16090046836615
 20
206.49469835840233
 10
86.80268051223598
 20
206.66237514993975
 10
85.44491541794486
 20
206.82460525451114
 10
84.08858619621486
 20
206.97988843967258
 10
82.73243804249186
 20
207.12777359798866
 10
81.3772185023001
 20
207.26791657862998
 10
80.01919221205654
 20
207.39983457768227
 10
78.65607590108853
 20
207.52539235818733
 10
77.2993453500715
 20
207.64538509453223
 10
75.9408463756537
 20
207.75599758062648
 10
74.5799015697203
 20
207.85986614367243
 10
73.2229021177656
 20
207.9565949277748
 10
71.86528955673498
 20
208.04441176176235
 10
70.50566651703151
 20
208.12416747390768
 10
69.14733352587471
 20
208.19641945780916
 10
67.78793198170638
 20
208.2601586027896
 10
66.42689991769184
 20
208.31621087830428
 10
65.06831523871709
 20
208.3651168243898
 10
63.71406521742747
 20
208.40539968516657
 10
62.35900694423139
 20
208.43519015923638
 10
60.99901716619838
 20
208.4561707107799
 10
59.64746798007819
 20
208.47031278915404
 10
58.29187305116929
 20
208.47226432529504
 10
56.9351601544961
 20
208.46677758510577
 10
55.583155964898154
 20
208.45249729838451
 10
54.23166608735305
 20
208.428232848294
 10
52.88546287905085
 20
208.39431610414397
 10
51.53846789206357
 20
208.3484459609943
 10
50.19217659520787
 20
208.29216380145763
 10
48.845291247459656
 20
208.22512816966645
 10
47.502558188574326
 20
208.14871831458274
 10
46.16301676740217
 20
208.06055700923508
 10
44.824048607845384
 20
207.96043687921934
 10
43.486231992486815
 20
207.8488379645736
 10
42.1502473955139
 20
207.72638493619058
 10
40.823966673255875
 20
207.59384795720325
 10
39.50517261277241
 20
207.44719914534906
 10
38.18618648279717
 20
207.28460137844607
 10
36.87489744866953
 20
207.10978533678738
 10
35.569353994034714
 20
206.9192839533169
 10
34.268409806470444
 20
206.7127065158104
 10
32.967874703170764
 20
206.48919229327828
 10
31.675956649424514
 20
206.25305175973529
 10
30.39848415730583
 20
206.00227253079615
 10
29.13297642387969
 20
205.73345131225864
 10
27.88063641520317
 20
205.4456509286596
 10
26.640382436115395
 20
205.13744982122506
 10
25.41632479719412
 20
204.80878647726297
 10
24.201211959447477
 20
204.45580563581495
 10
23.01348029989019
 20
204.08766740022637
 10
21.84670595572163
 20
203.69361527309798
 10
20.709391252897284
 20
203.2799252136804
 10
19.60946678814649
 20
202.8454457536128
 10
18.550948959457592
 20
202.39069703060662
 10
17.54911884594695
 20
201.92246118923583
 10
16.619399982795116
 20
201.44729881768393
 10
15.759913272373105
 20
200.96200680154072
 10
14.996140701427066
 20
200.49368787405226
 10
14.333114390106708
 20
200.0464640584669
 10
13.766909924111822
 20
199.62544884755425
 10
13.286561327309144
 20
199.23278908731487
 10
12.909462183758109
 20
198.90035361931544
 10
12.579950776342422
 20
198.56801005232487
 10
12.320794505933982
 20
198.2885256107832
 10
12.124894452712269
 20
198.05590697446104
 10
11.964392268785353
 20
197.83543409971094
 10
11.829203542566376
 20
197.62235685797927
 10
11.727134544002332
 20
197.44471619769558
 10
11.641889771830463
 20
197.2713759247086
 10
11.565325396523207
 20
197.0903195048914
 10
11.509853641854868
 20
196.9492738512213
 10
11.467590821688027
 20
196.82471071776834
 10
11.432339810709557
 20
196.69673176847866
 10
11.4089863921197
 20
196.60201769965272
 10
11.389080299330857
 20
196.48507574338635
 10
11.374552544039403
 20
196.37823165191705
 10
11.36639228002175
 20
196.321706576502
 10
11.374823367736944
 20
196.31446241124647
 10
11.382998244665657
 20
196.18549947778607
 10
11.385134705498572
 20
196.11946112208383
 10
11.383572523990871
 20
196.0840474513662
 10
11.386058077176742
 20
196.04363665282673
 10
11.40234731381448
 20
195.98060349003165
 10
11.435150071442912
 20
195.89869533510537
 10
11.486649859933557
 20
195.8011122245231
 10
11.561963729979823
 20
195.68696797139023
 10
11.664739390313144
 20
195.55769185114258
 10
11.795449216860767
 20
195.41775329265846
 10
11.959054043678535
 20
195.26826488071777
 10
12.165754944973735
 20
195.10813533120734
 10
12.435643400385402
 20
194.93255767840023
 10
12.787170854807762
 20
194.73798633125654
 10
13.212080993102063
 20
194.53004891603365
 10
13.702050136455547
 20
194.31687879316
 10
14.294157958916095
 20
194.09880727459517
 10
15.01801691354973
 20
193.87446469897006
 10
15.863310112093366
 20
193.64388938540478
 10
16.79899608405794
 20
193.4152173039317
 10
17.83641386306133
 20
193.20066365101334
 10
18.963915607703406
 20
192.99933026561652
 10
20.13862982305666
 20
192.81322084802218
 10
21.35288814755979
 20
192.6500282004559
 10
22.612946668597935
 20
192.51006245843092
 10
23.921815641370536
 20
192.38411678457862
 10
25.24487789162474
 20
192.2626035939424
 10
26.549441697146968
 20
192.1518981112025
 10
27.865256114781054
 20
192.0647664319382
 10
29.21788935712165
 20
191.9925712852569
 10
30.57794337024872
 20
191.92131389730596
 10
31.933851656796904
 20
191.8543933312024
 10
33.28486289353006
 20
191.79607570240762
 10
34.636308642877154
 20
191.74932745086528
 10
35.99770323901719
 20
191.71339517332942
 10
37.368701895762875
 20
191.6841360955877
 10
38.74702097045221
 20
191.65922676014407
 10
39.7203480153064
 20
191.64314813327647
 10
39.70383102479191
 20
190.64328454806878
 10
40.112893998971856
 20
190.636526482305
 10
41.48955744445793
 20
190.61600807247083
 10
42.86394443222379
 20
190.6018029000942
 10
44.234144949514395
 20
190.58846631171818
 10
45.60848442625687
 20
190.5836764624767
 10
46.99033774851339
 20
190.58201739116097
 10
48.376530829740155
 20
190.5797528426892
 10
49.766031517638105
 20
190.57945125243856
 10
51.157159213255554
 20
190.58055491148053
 10
52.54806499690383
 20
190.58320387717052
 10
53.9378134663114
 20
190.5879303238754
 10
55.32673653257011
 20
190.5956596288207
 10
56.71667411113806
 20
190.6068185713996
 10
58.10948685095964
 20
190.62064511885782
 10
59.505073665897356
 20
190.63554286052795
 10
60.90195702276527
 20
190.65058711639153
 10
62.29868158709547
 20
190.66542225567753
 10
63.69405427418418
 20
190.68029404051038
 10
65.08777411666799
 20
190.69646112650713
 10
66.48128868605014
 20
190.71484759620233
 10
67.87633787336391
 20
190.73493699894948
 10
69.27207324322215
 20
190.75525663988782
 10
70.66747427566511
 20
190.77607372516366
 10
72.0625120520037
 20
190.79785961043552
 10
73.45637554215612
 20
190.82073104915204
 10
74.84982052021317
 20
190.8455536205149
 10
76.24441911897655
 20
190.87213676391062
 10
77.63987520528119
 20
190.89907687367977
 10
79.03432643449159
 20
190.92506298359592
 10
80.42717280183291
 20
190.95142733935873
 10
81.81829234950487
 20
190.97982597360613
 10
83.20881577954918
 20
191.0109099384516
 10
84.600443475792
 20
191.04480460038013
 10
85.99439375353717
 20
191.08033015668465
 10
87.38925075797975
 20
191.1157115342283
 10
88.78364571633075
 20
191.15000429160148
 10
90.17636403907139
 20
191.18429486239745
 10
91.5663489218909
 20
191.22042567686916
 10
92.95547145272343
 20
191.25968648406874
 10
94.34583223429101
 20
191.30141302396666
 10
95.73654945741681
 20
191.34220643867192
 10
97.12700895755833
 20
191.3794756545734
 10
98.51816055720177
 20
191.41488484813885
 10
99.9081125509328
 20
191.45106831064862
 10
101.29697549635408
 20
191.4900527403964
 10
102.68718491001775
 20
191.53216456642517
 10
104.07922379844806
 20
191.57522440287187
 10
105.47045792034328
 20
191.61651340455518
 10
106.85993204935582
 20
191.65567805006535
 10
108.24768011543895
 20
191.69631557964746
 10
109.63525214954845
 20
191.7406814382815
 10
111.02569098438293
 20
191.78800726146775
 10
112.41734843863685
 20
191.8349694190193
 10
113.80904030599977
 20
191.87939574910453
 10
115.20157799787015
 20
191.92117329155428
 10
116.59545861811354
 20
191.9615453073005
 10
117.98961377386826
 20
192.0011806993244
 10
119.38212814532278
 20
192.04041261498375
 10
120.77245537825017
 20
192.081466177721
 10
122.16355072208746
 20
192.12364476401476
 10
123.55353697079569
 20
192.1622947497957
 10
124.94456930970054
 20
192.19680771939548
 10
126.33799834757257
 20
192.22984966707216
 10
127.73305683461425
 20
192.26317501408212
 10
129.12841920429662
 20
192.29666760919665
 10
130.5227287873676
 20
192.32971093293605
 10
131.91510392669016
 20
192.3607053311444
 10
133.3060466883739
 20
192.3882416010265
 10
134.69711951589082
 20
192.4132992553576
 10
136.08765311013383
 20
192.43659330311985
 10
137.4762867273408
 20
192.45578936505765
 10
138.86461280223548
 20
192.47148076437975
 10
140.25287514828182
 20
192.4877788181563
 10
141.64073529501724
 20
192.50336042865266
 10
143.02666572767419
 20
192.51340449440823
 10
144.41309358581665
 20
192.51954164024303
 10
145.79955624210623
 20
192.52190023002237
 10
147.18595747814305
 20
192.5225655497322
 10
148.56994237130223
 20
192.51841676984358
 10
149.9526793352378
 20
192.50977527215565
 10
151.33232353951615
 20
192.49767010727976
 10
152.70521079579106
 20
192.48150765972878
 10
154.06633211126993
 20
192.459782446155
 10
155.40771795794439
 20
192.4342423496305
 10
156.7125772252171
 20
192.40500988817232
 10
157.95735273272703
 20
192.37202915150544
 10
159.1122498812979
 20
192.3355039158686
 10
159.81639435573385
 20
192.3093981111
  0
LWPOLYLINE
  5
8D
330
17
100
AcDbEntity
  8
Layer
100
AcDbPolyline
 90
5
 70
0
 10
108.51337120057292
 20
199.01082450092778
 10
104.59509309208008
 20
199.8152476883769
 10
105.39951627952917
 20
203.7335257968697
 10
109.31779438802201
 20
202.9291026094206
 10
108.51337120057292
 20
199.01082450092778
  0
LWPOLYLINE
  5
8E
330
17
100
AcDbEntity
  8
Layer
100
AcDbPolyline
 90
5
 70
0
 10
53.01230504049373
 20
204.40661232582565
 10
49.01580170574101
 20
204.2393966109229
 10
48.84858599083829
 20
208.23589994567564
 10
52.845089325591005
 20
208.40311566057838
 10
53.01230504049373
 20
204.40661232582565
  0
LWPOLYLINE
  5
8F
330
17
100
AcDbEntity
  8
Layer
100
AcDbPolyline
 90
5
 70
0
 10
28.52734622934275
 20
201.50264975019965
 10
24.664432588549868
 20
200.4644309853065
 10
23.626213823656702
 20
204.3273446260994
 10
27.489127464449584
 20
205.36556339099255
 10
28.52734622934275
 20
201.50264975019965
  0
LWPOLYLINE
  5
90
330
17
100
AcDbEntity
  8
Layer
100
AcDbPolyline
 90
5
 70
0
 10
17.308569218893982
 20
196.12047584135655
 10
15.816245723411061
 20
194.78894642567337
 10
12.487422184203067
 20
198.51975516438068
 10
13.979745679685989
 20
199.85128458006386
 10
17.308569218893982
 20
196.12047584135655
  0
LWPOLYLINE
  5
91
330
17
100
AcDbEntity
  8
Layer
100
AcDbPolyline
 90
5
 70
0
 10
14.389082302208807
 20
199.69494801149324
 10
15.990157887293181
 20
198.49638346552723
 10
12.99374652237813
 20
194.4936945028163
 10
11.392670937293756
 20
195.69225904878232
 10
14.389082302208807
 20
199.69494801149324
  0
LWPOLYLINE
  5
92
330
17
100
AcDbEntity
  8
Layer
100
AcDbPolyline
 90
5
 70
0
 10
30.436979519294525
 20
195.9226641036179
 10
34.43326513123243
 20
195.75032342989843
 10
34.26092445751297
 20
191.75403781796055
 10
30.264638845575064
 20
191.92637849168003
 10
30.436979519294525
 20
195.9226641036179
  0
LINE
  5
93
330
17
100
AcDbEntity
  8
Layer
100
AcDbLine
 10
140.23193102440226
 20
196.15932140593102
 30
0.0
 11
140.02641126435032
 21
195.18066843974322
 31
0.0
  0
LINE
  5
94
330
17
100
AcDbEntity
  8
Layer
100
AcDbLine
 10
139.83136424732862
 20
193.48234068911643
 30
0.0
 11
139.80968198253362
 21
192.48257577705292
 31
0.0
  0
LINE
  5
95
330
17
100
AcDbEntity
  8
Layer
100
AcDbLine
 10
120.66339781787882
 20
200.29131425279678
 30
0.0
 11
120.4573381953654
 21
199.31277481466992
 31
0.0
  0
LINE
  5
96
330
17
100
AcDbEntity
  8
Layer
100
AcDbLine
 10
119.80507274620729
 20
193.05289838329185
 30
0.0
 11
119.80497355471002
 21
192.0528983882113
 31
0.0
  0
LINE
  5
97
330
17
100
AcDbEntity
  8
Layer
100
AcDbLine
 10
40.81596676002904
 20
207.59295837345033
 30
0.0
 11
40.68643319363984
 21
206.60138333585687
 31
0.0
  0
LINE
  5
98
330
17
100
AcDbEntity
  8
Layer
100
AcDbLine
 10
39.801494275430606
 20
191.64140851488136
 30
0.0
 11
39.81322305401962
 21
190.64147729937062
 31
0.0
  0
LWPOLYLINE
  5
99
330
17
100
AcDbEntity
  8
Layer
100
AcDbPolyline
 90
300
 70
1
 10
85.64499999999802
 20
200.0
 10
85.64088344643712
 20
200.3979548119222
 10
85.62853560350854
 20
200.79573389820234
 10
85.60796192367214
 20
201.19316161079385
 10
85.57917149168576
 20
201.5900624568069
 10
85.54217702059366
 20
201.9862611760011
 10
85.49699484611287
 20
202.38158281817553
 10
85.44364491941968
 20
202.77585282042176
 10
85.38215079833986
 20
203.16889708420592
 10
85.31253963694618
 20
203.56054205224578
 10
85.23484217356786
 20
203.95061478514873
 10
85.14909271721743
 20
204.33894303777691
 10
85.0553291324409
 20
204.72535533530584
 10
84.95359282259776
 20
205.10968104894286
 10
84.8439287115784
 20
205.49175047127207
 10
84.72638522396711
 20
205.87139489119227
 10
84.60101426365904
 20
206.248446668415
 10
84.4678711909409
 20
206.62273930748992
 10
84.32701479804548
 20
206.9941075313244
 10
84.17850728319063
 20
207.36238735416518
 10
84.02241422311423
 20
207.72741615401003
 10
83.85880454411742
 20
208.08903274441693
 10
83.68775049162866
 20
208.44707744567944
 10
83.50932759830214
 20
208.80139215533688
 10
83.32361465066475
 20
209.15182041798784
 10
83.13069365432612
 20
209.49820749437646
 10
82.93064979776732
 20
209.84040042972103
 10
82.7235714147239
 20
210.1782481212544
 10
82.50954994518037
 20
210.51160138494683
 10
82.28867989499267
 20
210.8403130213813
 10
82.06105879415726
 20
211.1642378807528
 10
81.82678715374446
 20
211.48323292696227
 10
81.58596842151566
 20
211.79715730077743
 10
81.33870893624368
 20
212.10587238203206
 10
81.0851178807566
 20
212.40924185083705
 10
80.82530723372561
 20
212.7071317477751
 10
80.5593917202185
 20
212.99941053305366
 10
80.28748876104021
 20
213.2859491445892
 10
80.0097184208831
 20
213.56662105499723
 10
79.72620335530986
 20
213.84130232746332
 10
79.43706875659215
 20
214.1098716704702
 10
79.14244229842932
 20
214.37221049135647
 10
78.8424540795712
 20
214.62820294868402
 10
78.53723656637023
 20
214.87773600339014
 10
78.226924534288
 20
215.12069946870253
 10
77.91165500838227
 20
215.35698605879458
 10
77.59156720280046
 20
215.5864914361599
 10
77.26680245930669
 20
215.80911425768463
 10
76.93750418486916
 20
216.02475621939791
 10
76.60381778833575
 20
216.23332209988
 10
76.26589061622552
 20
216.43471980230947
 10
75.92387188766463
 20
216.62886039513046
 10
75.5779126284954
 20
216.8156581513225
 10
75.22816560458752
 20
216.99503058625504
 10
74.87478525438097
 20
217.16689849411028
 10
74.51792762069034
 20
217.33118598285847
 10
74.1577502818007
 20
217.4878205077694
 10
73.79441228188553
 20
217.6367329034464
 10
73.42807406077718
 20
217.77785741436747
 10
73.05889738312126
 20
217.9111317239215
 10
72.68704526694587
 20
218.03649698192518
 10
72.31268191167747
 20
218.15389783060976
 10
71.93597262563496
 20
218.2632824290654
 10
71.55708375303428
 20
218.36460247613277
 10
71.1761826005354
 20
218.45781323173134
 10
70.79343736336445
 20
218.54287353661545
 10
70.40901705104346
 20
218.61974583054894
 10
70.0230914127605
 20
218.68839616889093
 10
69.63583086241313
 20
218.74879423758455
 10
69.2474064033586
 20
218.80091336654297
 10
68.85798955290342
 20
218.84473054142603
 10
68.46775226656621
 20
218.8802264138028
 10
68.076866862147
 20
218.90738530969531
 10
67.6855059436365
 20
218.9261952364997
 10
67.29384232499908
 20
218.93664788828175
 10
66.90204895386293
 20
218.93873864944476
 10
66.51029883515132
 20
218.93246659676743
 10
66.11876495468846
 20
218.91783449981165
 10
65.72762020281382
 20
218.89484881969955
 10
65.33703729803868
 20
218.86351970626035
 10
64.9471887107784
 20
218.82386099354864
 10
64.55824658719445
 20
218.77589019373548
 10
64.17038267317943
 20
218.71962848937565
 10
63.783768238518945
 20
218.65510072405397
 10
63.39857400126372
 20
218.58233539141506
 10
63.014970052345255
 20
218.50136462258138
 10
62.6331257804685
 20
218.41222417196505
 10
62.253209797314554
 20
218.31495340147967
 10
61.875389863086525
 20
218.20959526315914
 10
61.49983281243129
 20
218.09619628019146
 10
61.12670448077006
 20
217.97480652637518
 10
60.7561696310701
 20
217.84547960400826
 10
60.38839188109006
 20
217.708272620219
 10
60.023533631130974
 20
217.56324616174885
 10
59.66175599232482
 20
217.41046426819926
 10
59.30321871549246
 20
217.2499944037534
 10
58.94808012060211
 20
217.08190742738597
 10
58.596497026859694
 20
216.90627756157397
 10
58.248624683461955
 20
216.7231823595219
 10
57.90461670104273
 20
216.53270267091665
 10
57.564624983842826
 20
216.33492260622654
 10
57.22879966263341
 20
216.12992949956032
 10
56.89728902842247
 20
215.91781387010317
 10
56.570239466973646
 20
215.6986693821457
 10
56.24779539416646
 20
215.4725928037247
 10
55.9300991922263
 20
215.23968396389282
 10
55.61729114685242
 20
215.0000457086371
 10
55.30950938527176
 20
214.75378385546495
 10
55.00688981524582
 20
214.5010071466782
 10
54.70956606505763
 20
214.2418272013555
 10
54.417669424505284
 20
213.97635846606448
 10
54.131328786928
 20
213.7047181643254
 10
53.850670592290534
 20
213.42702624484852
 10
53.57581877135078
 20
213.14340532856812
 10
53.306894690935465
 20
212.85398065449658
 10
53.044017100347986
 20
212.55888002442236
 10
52.78730207893204
 20
212.25823374647626
 10
52.53686298481427
 20
211.95217457759105
 10
52.29281040484847
 20
211.64083766487985
 10
52.0552521057836
 20
211.3243604859588
 10
51.824292986676994
 20
211.0028827882409
 10
51.60003503257388
 20
210.6765465272275
 10
51.38257726947367
 20
210.34549580382472
 10
51.172015720602865
 20
210.00987680071256
 10
50.9684433640139
 20
209.66983771779476
 10
50.77195009152865
 20
209.32552870675784
 10
50.582622669044724
 20
208.97710180476832
 10
50.400544698222106
 20
208.62471086733757
 10
50.225796579567024
 20
208.26851150038334
 10
50.058455476929296
 20
207.90866099151862
 10
49.89859528342902
 20
207.54531824059794
 10
49.746286588827374
 20
207.1786436895516
 10
49.60159664835626
 20
206.808799251539
 10
49.46458935302017
 20
206.43594823945247
 10
49.33532520138384
 20
206.0602552938027
 10
49.21386127285768
 20
205.68188631001837
 10
49.10025120249318
 20
205.30100836519114
 10
48.99454515729917
 20
204.91778964429935
 10
48.896789814089445
 20
204.53239936594204
 10
48.80702833887166
 20
204.14500770761697
 10
48.72530036778637
 20
203.75578573057498
 10
48.65164198960487
 20
203.36490530428404
 10
48.586085729793396
 20
202.97253903053667
 10
48.52866053615081
 20
202.5788601672338
 10
48.47939176602601
 20
202.18404255187897
 10
48.43830117512095
 20
201.78826052481654
 10
48.4054069078838
 20
201.3916888522479
 10
48.380723489496965
 20
200.9945026490598
 10
48.36426181946314
 20
200.59687730149824
 10
48.356029166792396
 20
200.19898838972313
 10
48.356029166792396
 20
199.80101161027687
 10
48.36426181946314
 20
199.40312269850176
 10
48.380723489496965
 20
199.0054973509402
 10
48.4054069078838
 20
198.6083111477521
 10
48.43830117512095
 20
198.21173947518346
 10
48.47939176602601
 20
197.81595744812103
 10
48.52866053615081
 20
197.4211398327662
 10
48.586085729793396
 20
197.02746096946333
 10
48.65164198960487
 20
196.63509469571596
 10
48.72530036778637
 20
196.24421426942502
 10
48.80702833887166
 20
195.854992292383
 10
48.896789814089445
 20
195.46760063405796
 10
48.99454515729917
 20
195.08221035570065
 10
49.10025120249318
 20
194.69899163480886
 10
49.21386127285768
 20
194.31811368998163
 10
49.33532520138384
 20
193.9397447061973
 10
49.46458935302017
 20
193.56405176054756
 10
49.60159664835625
 20
193.191200748461
 10
49.746286588827374
 20
192.8213563104484
 10
49.89859528342902
 20
192.45468175940206
 10
50.058455476929296
 20
192.09133900848138
 10
50.22579657956702
 20
191.73148849961666
 10
50.400544698222106
 20
191.37528913266243
 10
50.582622669044724
 20
191.02289819523168
 10
50.77195009152865
 20
190.67447129324216
 10
50.96844336401391
 20
190.33016228220524
 10
51.17201572060287
 20
189.9901231992874
 10
51.38257726947367
 20
189.65450419617528
 10
51.60003503257388
 20
189.3234534727725
 10
51.824292986676994
 20
188.9971172117591
 10
52.055252105783595
 20
188.67563951404122
 10
52.29281040484847
 20
188.35916233512015
 10
52.53686298481426
 20
188.04782542240895
 10
52.78730207893204
 20
187.74176625352374
 10
53.04401710034799
 20
187.44111997557764
 10
53.306894690935465
 20
187.14601934550342
 10
53.575818771350775
 20
186.85659467143188
 10
53.850670592290534
 20
186.57297375515148
 10
54.131328786928
 20
186.2952818356746
 10
54.41766942450528
 20
186.02364153393552
 10
54.709566065057636
 20
185.7581727986445
 10
55.00688981524581
 20
185.4989928533218
 10
55.30950938527176
 20
185.24621614453505
 10
55.617291146852416
 20
184.9999542913629
 10
55.930099192226294
 20
184.76031603610718
 10
56.24779539416646
 20
184.5274071962753
 10
56.57023946697364
 20
184.3013306178543
 10
56.89728902842246
 20
184.08218612989683
 10
57.22879966263342
 20
183.87007050043968
 10
57.56462498384283
 20
183.66507739377346
 10
57.90461670104273
 20
183.46729732908332
 10
58.248624683461955
 20
183.2768176404781
 10
58.596497026859694
 20
183.09372243842603
 10
58.948080120602114
 20
182.91809257261403
 10
59.303218715492456
 20
182.7500055962466
 10
59.661755992324814
 20
182.58953573180077
 10
60.02353363113096
 20
182.43675383825115
 10
60.38839188109006
 20
182.291727379781
 10
60.756169631070094
 20
182.15452039599174
 10
61.12670448077006
 20
182.02519347362485
 10
61.499832812431286
 20
181.90380371980854
 10
61.875389863086525
 20
181.79040473684086
 10
62.253209797314554
 20
181.68504659852033
 10
62.6331257804685
 20
181.58777582803495
 10
63.014970052345255
 20
181.49863537741862
 10
63.398574001263725
 20
181.41766460858494
 10
63.78376823851895
 20
181.34489927594603
 10
64.17038267317943
 20
181.28037151062435
 10
64.55824658719446
 20
181.22410980626452
 10
64.94718871077839
 20
181.17613900645136
 10
65.33703729803867
 20
181.13648029373965
 10
65.72762020281382
 20
181.10515118030045
 10
66.11876495468846
 20
181.08216550018835
 10
66.51029883515132
 20
181.06753340323257
 10
66.90204895386293
 20
181.06126135055524
 10
67.29384232499908
 20
181.06335211171825
 10
67.6855059436365
 20
181.0738047635003
 10
68.076866862147
 20
181.09261469030469
 10
68.46775226656621
 20
181.1197735861972
 10
68.85798955290342
 20
181.15526945857397
 10
69.2474064033586
 20
181.19908663345703
 10
69.63583086241313
 20
181.25120576241545
 10
70.0230914127605
 20
181.31160383110907
 10
70.40901705104348
 20
181.38025416945106
 10
70.79343736336445
 20
181.45712646338455
 10
71.17618260053538
 20
181.54218676826866
 10
71.55708375303426
 20
181.63539752386723
 10
71.93597262563496
 20
181.7367175709346
 10
72.31268191167746
 20
181.84610216939024
 10
72.68704526694587
 20
181.96350301807482
 10
73.05889738312125
 20
182.0888682760785
 10
73.42807406077718
 20
182.22214258563253
 10
73.79441228188553
 20
182.3632670965536
 10
74.1577502818007
 20
182.5121794922306
 10
74.51792762069034
 20
182.66881401714153
 10
74.87478525438097
 20
182.83310150588972
 10
75.22816560458753
 20
183.00496941374496
 10
75.57791262849541
 20
183.1843418486775
 10
75.92387188766465
 20
183.37113960486954
 10
76.26589061622552
 20
183.56528019769053
 10
76.60381778833575
 20
183.76667790012
 10
76.93750418486916
 20
183.97524378060209
 10
77.26680245930667
 20
184.19088574231537
 10
77.59156720280046
 20
184.4135085638401
 10
77.91165500838227
 20
184.64301394120542
 10
78.226924534288
 20
184.87930053129747
 10
78.53723656637023
 20
185.12226399660986
 10
78.8424540795712
 20
185.37179705131598
 10
79.14244229842932
 20
185.62778950864353
 10
79.43706875659215
 20
185.8901283295298
 10
79.72620335530986
 20
186.15869767253668
 10
80.0097184208831
 20
186.43337894500277
 10
80.28748876104021
 20
186.7140508554108
 10
80.55939172021851
 20
187.00058946694634
 10
80.82530723372561
 20
187.2928682522249
 10
81.08511788075658
 20
187.59075814916295
 10
81.33870893624368
 20
187.8941276179679
 10
81.58596842151566
 20
188.20284269922257
 10
81.82678715374446
 20
188.5167670730377
 10
82.06105879415726
 20
188.8357621192472
 10
82.28867989499267
 20
189.1596869786187
 10
82.50954994518037
 20
189.48839861505317
 10
82.7235714147239
 20
189.8217518787456
 10
82.93064979776732
 20
190.15959957027897
 10
83.13069365432612
 20
190.50179250562354
 10
83.32361465066475
 20
190.84817958201216
 10
83.50932759830214
 20
191.19860784466312
 10
83.68775049162866
 20
191.55292255432056
 10
83.85880454411743
 20
191.91096725558307
 10
84.02241422311423
 20
192.27258384598994
 10
84.17850728319061
 20
192.6376126458348
 10
84.32701479804548
 20
193.0058924686756
 10
84.46787119094088
 20
193.37726069251005
 10
84.60101426365902
 20
193.751553331585
 10
84.72638522396711
 20
194.12860510880773
 10
84.8439287115784
 20
194.50824952872793
 10
84.95359282259776
 20
194.89031895105714
 10
85.0553291324409
 20
195.27464466469416
 10
85.14909271721743
 20
195.66105696222309
 10
85.23484217356786
 20
196.04938521485127
 10
85.31253963694618
 20
196.43945794775422
 10
85.38215079833986
 20
196.83110291579408
 10
85.44364491941968
 20
197.22414717957824
 10
85.49699484611287
 20
197.61841718182447
 10
85.54217702059366
 20
198.0137388239989
 10
85.57917149168576
 20
198.40993754319308
 10
85.60796192367214
 20
198.80683838920615
 10
85.62853560350854
 20
199.20426610179766
 10
85.64088344643712
 20
199.6020451880778
 10
85.64499999999802
 20
200.0
  0
LINE
  5
9A
330
17
100
AcDbEntity
  8
Layer
 62
7
100
AcDbLine
 10
14.27062696273996
 20
200.0
 30
0.0
 11
125.78181298543797
 21
200.0
 31
0.0
  0
LINE
  5
9B
330
17
100
AcDbEntity
  8
Layer
 62
7
100
AcDbLine
 10
34.47286416727957
 20
200.0
 30
0.0
 11
46.47286416727957
 21
200.0
 31
0.0
  0
LWPOLYLINE
  5
9C
330
17
100
AcDbEntity
  8
Layer
100
AcDbPolyline
 90
5
 70
0
 10
40.47286416727957
 20
205.0
 10
45.47286416727957
 20
200.0
 10
40.47286416727957
 20
195.0
 10
35.47286416727957
 20
200.0
 10
40.47286416727957
 20
205.0
  0
LINE
  5
9D
330
17
100
AcDbEntity
  8
Layer
 62
7
100
AcDbLine
 10
64.02621997408897
 20
200.0
 30
0.0
 11
76.02621997408897
 21
200.0
 31
0.0
  0
LWPOLYLINE
  5
9E
330
17
100
AcDbEntity
  8
Layer
100
AcDbPolyline
 90
5
 70
0
 10
70.02621997408897
 20
205.0
 10
75.02621997408897
 20
200.0
 10
70.02621997408897
 20
195.0
 10
65.02621997408897
 20
200.0
 10
70.02621997408897
 20
205.0
  0
LINE
  5
9F
330
17
100
AcDbEntity
  8
Layer
 62
7
100
AcDbLine
 10
93.57957578089838
 20
200.0
 30
0.0
 11
105.57957578089838
 21
200.0
 31
0.0
  0
LWPOLYLINE
  5
A0
330
17
100
AcDbEntity
  8
Layer
100
AcDbPolyline
 90
5
 70
0
 10
99.57957578089838
 20
205.0
 10
104.57957578089838
 20
200.0
 10
99.57957578089838
 20
195.0
 10
94.57957578089838
 20
200.0
 10
99.57957578089838
 20
205.0
  0
LINE
  5
A1
330
17
100
AcDbEntity
  8
Layer
 62
7
100
AcDbLine
 10
11.38484633397222
 20
196.45393712816463
 30
0.0
 11
157.20629648037107
 21
192.12605752286396
 31
0.0
  0
LINE
  5
A2
330
17
100
AcDbEntity
  8
Layer
 62
7
100
AcDbLine
 10
38.45006065700129
 20
195.65066031968323
 30
0.0
 11
50.44477897843389
 21
195.29466539066192
 31
0.0
  0
LWPOLYLINE
  5
A3
330
17
100
AcDbEntity
  8
Layer
100
AcDbPolyline
 90
5
 70
0
 10
44.59575103814314
 20
200.47046215576947
 10
49.44521911831451
 20
195.324331634747
 10
44.299088597292034
 20
190.47486355457565
 10
39.449620517120664
 20
195.6209940755981
 10
44.59575103814314
 20
200.47046215576947
  0
LINE
  5
A4
330
17
100
AcDbEntity
  8
Layer
 62
7
100
AcDbLine
 10
71.656853648213
 20
194.66510571163468
 30
0.0
 11
83.6515719696456
 21
194.30911078261335
 31
0.0
  0
LWPOLYLINE
  5
A5
330
17
100
AcDbEntity
  8
Layer
100
AcDbPolyline
 90
5
 70
0
 10
77.80254402935486
 20
199.48490754772092
 10
82.65201210952623
 20
194.33877702669847
 10
77.50588158850374
 20
189.4893089465271
 10
72.65641350833238
 20
194.63543946754956
 10
77.80254402935486
 20
199.48490754772092
  0
LINE
  5
A6
330
17
100
AcDbEntity
  8
Layer
100
AcDbLine
 10
66.99999999999811
 20
218.9389999999999
 30
0.0
 11
66.99999999999811
 21
219.9389999999999
 31
0.0
  0
LINE
  5
A7
330
17
100
AcDbEntity
  8
Layer
100
AcDbLine
 10
66.99999999999811
 20
181.0610000000001
 30
0.0
 11
66.99999999999811
 21
180.0610000000001
 31
0.0
  0
LINE
  5
A8
330
17
100
AcDbEntity
  8
Layer
100
AcDbLine
 10
85.64499999999802
 20
200.0
 30
0.0
 11
86.64499999999802
 21
200.0
 31
0.0
  0
LINE
  5
A9
330
17
100
AcDbEntity
  8
Layer
100
AcDbLine
 10
48.35499999999819
 20
200.0
 30
0.0
 11
47.35499999999819
 21
200.0
 31
0.0
  0
LWPOLYLINE
  5
AA
330
17
100
AcDbEntity
  8
NumLabel
 62
1
100
AcDbPolyline
 90
4
 70
0
 10
53.999999999998614
 20
202.50000000000026
 10
51.999999999998614
 20
202.50000000000026
 10
51.999999999998614
 20
192.50000000000026
 10
53.999999999998614
 20
192.50000000000026
  0
LWPOLYLINE
  5
AB
330
17
100
AcDbEntity
  8
NumLabel
 62
1
100
AcDbPolyline
 90
4
 70
0
 10
54.999999999998614
 20
192.50000000000026
 10
56.999999999998614
 20
192.50000000000026
 10
56.999999999998614
 20
202.50000000000026
 10
54.999999999998614
 20
202.50000000000026
  0
LWPOLYLINE
  5
AC
330
17
100
AcDbEntity
  8
NumLabel
 62
1
100
AcDbPolyline
 90
2
 70
0
 10
51.999999999998614
 20
197.50000000000026
 10
53.999999999998614
 20
197.50000000000026
  0
LWPOLYLINE
  5
AD
330
17
100
AcDbEntity
  8
NumLabel
 62
1
100
AcDbPolyline
 90
2
 70
0
 10
54.999999999998614
 20
197.50000000000026
 10
56.999999999998614
 20
197.50000000000026
  0
LWPOLYLINE
  5
AE
330
17
100
AcDbEntity
  8
NumLabel
 62
1
100
AcDbPolyline
 90
4
 70
0
 10
59.499999999998614
 20
197.50000000000026
 10
59.499999999998614
 20
202.50000000000026
 10
64.49999999999861
 20
202.50000000000026
 10
64.49999999999861
 20
192.50000000000026
  0
ENDSEC
  0
SECTION
  2
OBJECTS
  0
DICTIONARY
  5
A
330
0
100
AcDbDictionary
280
0
281
1
  3
ACAD_COLOR
350
B
  3
ACAD_GROUP
350
C
  3
ACAD_LAYOUT
350
D
  3
ACAD_MATERIAL
350
E
  3
ACAD_MLEADERSTYLE
350
F
  3
ACAD_MLINESTYLE
350
10
  3
ACAD_PLOTSETTINGS
350
11
  3
ACAD_PLOTSTYLENAME
350
12
  3
ACAD_SCALELIST
350
14
  3
ACAD_TABLESTYLE
350
15
  3
ACAD_VISUALSTYLE
350
16
  3
EZDXF_META
350
2D
  0
DICTIONARY
  5
B
330
A
100
AcDbDictionary
280
0
281
1
  0
DICTIONARY
  5
C
330
A
100
AcDbDictionary
280
0
281
1
  0
DICTIONARY
  5
D
330
A
100
AcDbDictionary
280
0
281
1
  3
Model
350
1A
  3
Layout1
350
1E
  0
DICTIONARY
  5
E
330
A
100
AcDbDictionary
280
0
281
1
  3
ByBlock
350
1F
  3
ByLayer
350
20
  3
Global
350
21
  0
DICTIONARY
  5
F
330
A
100
AcDbDictionary
280
0
281
1
  3
Standard
350
2C
  0
DICTIONARY
  5
10
330
A
100
AcDbDictionary
280
0
281
1
  3
Standard
350
22
  0
DICTIONARY
  5
11
330
A
100
AcDbDictionary
280
0
281
1
  0
ACDBDICTIONARYWDFLT
  5
12
330
A
100
AcDbDictionary
280
0
281
1
  3
Normal
350
13
100
AcDbDictionaryWithDefault
340
13
  0
ACDBPLACEHOLDER
  5
13
330
12
  0
DICTIONARY
  5
14
330
A
100
AcDbDictionary
280
0
281
1
  0
DICTIONARY
  5
15
330
A
100
AcDbDictionary
280
0
281
1
  0
DICTIONARY
  5
16
330
A
100
AcDbDictionary
280
0
281
1
  3
2dWireframe
350
5A
  3
Basic
350
5B
  3
Brighten
350
5C
  3
ColorChange
350
5D
  3
Conceptual
350
5E
  3
Dim
350
5F
  3
EdgeColorOff
350
60
  3
Facepattern
350
61
  3
Flat
350
62
  3
FlatWithEdges
350
63
  3
Gouraud
350
64
  3
GouraudWithEdges
350
65
  3
Hidden
350
66
  3
JitterOff
350
67
  3
Linepattern
350
68
  3
Modeling
350
69
  3
OverhangOff
350
6A
  3
Realistic
350
6B
  3
Shaded
350
6C
  3
Shaded with edges
350
6D
  3
Shades of Gray
350
6E
  3
Sketchy
350
6F
  3
Thicken
350
70
  3
Wireframe
350
71
  3
X-Ray
350
72
  0
LAYOUT
  5
1A
330
D
100
AcDbPlotSettings
  1

  2
Adobe PDF
  4
A3
  6

 40
7.5
 41
20.0
 42
7.5
 43
20.0
 44
420.0
 45
297.0
 46
0.0
 47
0.0
 48
0.0
 49
0.0
140
0.0
141
0.0
142
1.0
143
1.0
 70
1024
 72
1
 73
0
 74
5
  7

 75
16
 76
0
 77
2
 78
300
147
1.0
148
0.0
149
0.0
100
AcDbLayout
  1
Model
 70
1
 71
0
 10
0.0
 20
0.0
 11
420.0
 21
297.0
 12
0.0
 22
0.0
 32
0.0
 14
1e+20
 24
1e+20
 34
1e+20
 15
-1e+20
 25
-1e+20
 35
-1e+20
146
0.0
 13
0.0
 23
0.0
 33
0.0
 16
1.0
 26
0.0
 36
0.0
 17
0.0
 27
1.0
 37
0.0
 76
1
330
17
  0
LAYOUT
  5
1E
330
D
100
AcDbPlotSettings
  1

  2
Adobe PDF
  4
A3
  6

 40
7.5
 41
20.0
 42
7.5
 43
20.0
 44
420.0
 45
297.0
 46
0.0
 47
0.0
 48
0.0
 49
0.0
140
0.0
141
0.0
142
1.0
143
1.0
 70
0
 72
1
 73
0
 74
5
  7

 75
16
 76
0
 77
2
 78
300
147
1.0
148
0.0
149
0.0
100
AcDbLayout
  1
Layout1
 70
1
 71
1
 10
0.0
 20
0.0
 11
420.0
 21
297.0
 12
0.0
 22
0.0
 32
0.0
 14
1e+20
 24
1e+20
 34
1e+20
 15
-1e+20
 25
-1e+20
 35
-1e+20
146
0.0
 13
0.0
 23
0.0
 33
0.0
 16
1.0
 26
0.0
 36
0.0
 17
0.0
 27
1.0
 37
0.0
 76
1
330
1B
  0
MATERIAL
  5
1F
102
{ACAD_REACTORS
330
E
102
}
330
E
100
AcDbMaterial
  1
ByBlock
  2

 70
0
 40
1.0
 71
1
 41
1.0
 91
-1023410177
 42
1.0
 72
1
  3

 73
1
 74
1
 75
1
 44
0.5
 73
0
 45
1.0
 46
1.0
 77
1
  4

 78
1
 79
1
170
1
 48
1.0
171
1
  6

172
1
173
1
174
1
140
1.0
141
1.0
175
1
  7

176
1
177
1
178
1
143
1.0
179
1
  8

270
1
271
1
272
1
145
1.0
146
1.0
273
1
  9

274
1
275
1
276
1
 42
1.0
 72
1
  3

 73
1
 74
1
 75
1
 94
63
  0
MATERIAL
  5
20
102
{ACAD_REACTORS
330
E
102
}
330
E
100
AcDbMaterial
  1
ByLayer
  2

 70
0
 40
1.0
 71
1
 41
1.0
 91
-1023410177
 42
1.0
 72
1
  3

 73
1
 74
1
 75
1
 44
0.5
 73
0
 45
1.0
 46
1.0
 77
1
  4

 78
1
 79
1
170
1
 48
1.0
171
1
  6

172
1
173
1
174
1
140
1.0
141
1.0
175
1
  7

176
1
177
1
178
1
143
1.0
179
1
  8

270
1
271
1
272
1
145
1.0
146
1.0
273
1
  9

274
1
275
1
276
1
 42
1.0
 72
1
  3

 73
1
 74
1
 75
1
 94
63
  0
MATERIAL
  5
21
102
{ACAD_REACTORS
330
E
102
}
330
E
100
AcDbMaterial
  1
Global
  2

 70
0
 40
1.0
 71
1
 41
1.0
 91
-1023410177
 42
1.0
 72
1
  3

 73
1
 74
1
 75
1
 44
0.5
 73
0
 45
1.0
 46
1.0
 77
1
  4

 78
1
 79
1
170
1
 48
1.0
171
1
  6

172
1
173
1
174
1
140
1.0
141
1.0
175
1
  7

176
1
177
1
178
1
143
1.0
179
1
  8

270
1
271
1
272
1
145
1.0
146
1.0
273
1
  9

274
1
275
1
276
1
 42
1.0
 72
1
  3

 73
1
 74
1
 75
1
 94
63
  0
MLINESTYLE
  5
22
102
{ACAD_REACTORS
330
10
102
}
330
10
100
AcDbMlineStyle
  2
Standard
 70
0
  3

 62
256
 51
90.0
 52
90.0
 71
2
 49
0.5
 62
256
  6
BYLAYER
 49
-0.5
 62
256
  6
BYLAYER
  0
MLEADERSTYLE
  5
2C
102
{ACAD_REACTORS
330
F
102
}
330
F
100
AcDbMLeaderStyle
179
2
170
2
171
1
172
0
 90
2
 40
0.0
 41
0.0
173
1
 91
-1056964608
 92
-2
290
1
 42
2.0
291
1
 43
8.0
  3
Standard
 44
4.0
300

342
29
174
1
175
1
176
0
178
1
 93
-1056964608
 45
4.0
292
0
297
0
 46
4.0
 94
-1056964608
 47
1.0
 49
1.0
140
1.0
294
1
141
0.0
177
0
142
1.0
295
0
296
0
143
3.75
271
0
272
9
273
9
  0
DICTIONARY
  5
2D
330
A
100
AcDbDictionary
281
1
  3
CREATED_BY_EZDXF
350
2E
  3
WRITTEN_BY_EZDXF
350
B1
  0
DICTIONARYVAR
  5
2E
330
2D
100
DictionaryVariables
280
0
  1
1.3.0 @ 2026-01-06T17:07:25.453810+00:00
  0
VISUALSTYLE
  5
5A
102
{ACAD_REACTORS
330
16
102
}
330
16
100
AcDbVisualStyle
  2
2dWireframe
 70
4
 90
0
 40
0.6
 62
7
290
0
291
0
  0
VISUALSTYLE
  5
5B
102
{ACAD_REACTORS
330
16
102
}
330
16
100
AcDbVisualStyle
  2
Basic
 70
7
 90
1
 40
0.6
 62
7
290
0
291
1
  0
VISUALSTYLE
  5
5C
102
{ACAD_REACTORS
330
16
102
}
330
16
100
AcDbVisualStyle
  2
Brighten
 70
12
 90
2
 40
0.6
 62
7
290
0
291
1
  0
VISUALSTYLE
  5
5D
102
{ACAD_REACTORS
330
16
102
}
330
16
100
AcDbVisualStyle
  2
ColorChange
 70
16
 90
2
 40
0.6
 62
8
290
0
291
1
  0
VISUALSTYLE
  5
5E
102
{ACAD_REACTORS
330
16
102
}
330
16
100
AcDbVisualStyle
  2
Conceptual
 70
9
 90
3
 40
0.6
 62
7
290
0
291
0
  0
VISUALSTYLE
  5
5F
102
{ACAD_REACTORS
330
16
102
}
330
16
100
AcDbVisualStyle
  2
Dim
 70
11
 90
2
 40
0.6
 62
7
290
0
291
1
  0
VISUALSTYLE
  5
60
102
{ACAD_REACTORS
330
16
102
}
330
16
100
AcDbVisualStyle
  2
EdgeColorOff
 70
22
 90
2
 40
0.6
 62
7
290
0
291
1
  0
VISUALSTYLE
  5
61
102
{ACAD_REACTORS
330
16
102
}
330
16
100
AcDbVisualStyle
  2
Facepattern
 70
15
 90
2
 40
0.6
 62
7
290
0
291
1
  0
VISUALSTYLE
  5
62
102
{ACAD_REACTORS
330
16
102
}
330
16
100
AcDbVisualStyle
  2
Flat
 70
0
 90
2
 40
0.6
 62
7
290
0
291
1
  0
VISUALSTYLE
  5
63
102
{ACAD_REACTORS
330
16
102
}
330
16
100
AcDbVisualStyle
  2
FlatWithEdges
 70
1
 90
2
 40
0.6
 62
7
290
0
291
1
  0
VISUALSTYLE
  5
64
102
{ACAD_REACTORS
330
16
102
}
330
16
100
AcDbVisualStyle
  2
Gouraud
 70
2
 90
2
 40
0.6
 62
7
290
0
291
1
  0
VISUALSTYLE
  5
65
102
{ACAD_REACTORS
330
16
102
}
330
16
100
AcDbVisualStyle
  2
GouraudWithEdges
 70
3
 90
2
 40
0.6
 62
7
290
0
291
1
  0
VISUALSTYLE
  5
66
102
{ACAD_REACTORS
330
16
102
}
330
16
100
AcDbVisualStyle
  2
Hidden
 70
6
 90
1
 40
0.6
 62
7
290
0
291
0
  0
VISUALSTYLE
  5
67
102
{ACAD_REACTORS
330
16
102
}
330
16
100
AcDbVisualStyle
  2
JitterOff
 70
20
 90
2
 40
0.6
 62
7
290
0
291
1
  0
VISUALSTYLE
  5
68
102
{ACAD_REACTORS
330
16
102
}
330
16
100
AcDbVisualStyle
  2
Linepattern
 70
14
 90
2
 40
0.6
 62
7
290
0
291
1
  0
VISUALSTYLE
  5
69
102
{ACAD_REACTORS
330
16
102
}
330
16
100
AcDbVisualStyle
  2
Modeling
 70
10
 90
2
 40
0.6
 62
7
290
0
291
0
  0
VISUALSTYLE
  5
6A
102
{ACAD_REACTORS
330
16
102
}
330
16
100
AcDbVisualStyle
  2
OverhangOff
 70
21
 90
2
 40
0.6
 62
7
290
0
291
1
  0
VISUALSTYLE
  5
6B
102
{ACAD_REACTORS
330
16
102
}
330
16
100
AcDbVisualStyle
  2
Realistic
 70
8
 90
2
 40
0.6
 62
7
290
0
291
0
  0
VISUALSTYLE
  5
6C
102
{ACAD_REACTORS
330
16
102
}
330
16
100
AcDbVisualStyle
  2
Shaded
 70
27
 90
2
 40
0.6
 62
7
290
0
291
0
  0
VISUALSTYLE
  5
6D
102
{ACAD_REACTORS
330
16
102
}
330
16
100
AcDbVisualStyle
  2
Shaded with edges
 70
26
 90
2
 40
0.6
 62
7
290
0
291
0
  0
VISUALSTYLE
  5
6E
102
{ACAD_REACTORS
330
16
102
}
330
16
100
AcDbVisualStyle
  2
Shades of Gray
 70
23
 90
2
 40
0.6
 62
7
290
0
291
0
  0
VISUALSTYLE
  5
6F
102
{ACAD_REACTORS
330
16
102
}
330
16
100
AcDbVisualStyle
  2
Sketchy
 70
24
 90
1
 40
0.6
 62
7
290
0
291
0
  0
VISUALSTYLE
  5
70
102
{ACAD_REACTORS
330
16
102
}
330
16
100
AcDbVisualStyle
  2
Thicken
 70
13
 90
2
 40
0.6
 62
7
290
0
291
1
  0
VISUALSTYLE
  5
71
102
{ACAD_REACTORS
330
16
102
}
330
16
100
AcDbVisualStyle
  2
Wireframe
 70
5
 90
0
 40
0.6
 62
7
290
0
291
0
  0
VISUALSTYLE
  5
72
102
{ACAD_REACTORS
330
16
102
}
330
16
100
AcDbVisualStyle
  2
X-Ray
 70
25
 90
2
 40
0.5
 62
7
290
0
291
0
  0
DICTIONARYVAR
  5
B1
330
2D
100
DictionaryVariables
280
0
  1
1.3.0 @ 2026-01-06T17:07:25.519902+00:00
  0
ENDSEC
  0
EOF
