<?xml version="1.0" encoding="utf-8" standalone="no"?>
<!DOCTYPE svg PUBLIC "-//W3C//DTD SVG 1.1//EN"
  "http://www.w3.org/Graphics/SVG/1.1/DTD/svg11.dtd">
<svg xmlns:xlink="http://www.w3.org/1999/xlink" width="1152pt" height="325.92631pt" viewBox="0 0 1152 325.92631" xmlns="http://www.w3.org/2000/svg" version="1.1">
 <metadata>
  <rdf:RDF xmlns:dc="http://purl.org/dc/elements/1.1/" xmlns:cc="http://creativecommons.org/ns#" xmlns:rdf="http://www.w3.org/1999/02/22-rdf-syntax-ns#">
   <cc:Work>
    <dc:type rdf:resource="http://purl.org/dc/dcmitype/StillImage"/>
    <dc:date>2026-01-07T02:07:09.837523</dc:date>
    <dc:format>image/svg+xml</dc:format>
    <dc:creator>
     <cc:Agent>
      <dc:title>Matplotlib v3.10.1, https://matplotlib.org/</dc:title>
     </cc:Agent>
    </dc:creator>
   </cc:Work>
  </rdf:RDF>
 </metadata>
 <defs>
  <style type="text/css">*{stroke-linejoin: round; stroke-linecap: butt}</style>
 </defs>
 <g id="figure_1">
  <g id="patch_1">
   <path d="M 0 325.92631 
L 1152 325.92631 
L 1152 0 
L 0 0 
z
" style="fill: #ffffff"/>
  </g>
  <g id="axes_1">
   <g id="patch_2">
    <path d="M 0 325.92631 
L 1152 325.92631 
L 1152 0 
L 0 0 
z
" style="fill: #212830"/>
   </g>
   <g id="patch_3">
    <path d="M 1099.636364 42.217803 
L 1087.145459 40.346318 
L 1065.210473 37.255727 
L 1043.262358 34.37059 
L 1021.292952 31.693058 
L 999.301962 29.213897 
L 977.304654 26.922118 
L 955.320446 24.818613 
L 933.360872 22.911855 
L 911.431173 21.209455 
L 889.533416 19.713907 
L 867.66801 18.422964 
L 845.839681 17.328312 
L 824.067304 16.421907 
L 802.375804 15.706605 
L 780.775973 15.196974 
L 759.262787 14.901875 
L 737.832944 14.814832 
L 716.497227 14.922282 
L 695.274966 15.214818 
L 674.191675 15.689884 
L 653.27624 16.356531 
L 632.541635 17.235431 
L 611.976096 18.341892 
L 591.564011 19.665122 
L 571.318106 21.175668 
L 551.280607 22.853487 
L 531.497529 24.706601 
L 511.99651 26.760209 
L 492.777316 29.036394 
L 473.822894 31.533704 
L 455.131597 34.219252 
L 436.746075 37.048494 
L 418.738215 40.003288 
L 401.165243 43.104743 
L 384.036283 46.38776 
L 367.320783 49.85744 
L 351.000587 53.466698 
L 335.115941 57.146383 
L 319.743895 60.865839 
L 304.928015 64.649655 
L 290.650324 68.529667 
L 276.868106 72.502268 
L 263.556116 76.535176 
L 250.711657 80.596381 
L 238.343931 84.667192 
L 226.460995 88.742835 
L 215.062603 92.831288 
L 204.132512 96.949624 
L 193.641171 101.110018 
L 183.558447 105.31048 
L 173.866264 109.53601 
L 164.563144 113.770914 
L 155.653778 118.01137 
L 147.135316 122.265053 
L 138.994993 126.537601 
L 131.222313 130.819796 
L 123.818087 135.097376 
L 116.784142 139.366168 
L 110.112995 143.631784 
L 103.795091 147.894299 
L 97.832427 152.147962 
L 92.236116 156.387684 
L 87.015107 160.615494 
L 82.172903 164.831683 
L 77.708309 169.034724 
L 73.606681 173.231712 
L 69.842069 177.422917 
L 66.402982 181.576223 
L 63.317515 185.633728 
L 60.630988 189.570547 
L 58.359272 193.423891 
L 56.478764 197.246148 
L 54.957588 201.039564 
L 53.782007 204.757321 
L 52.953592 208.395308 
L 52.474508 212.070445 
L 52.363636 215.433196 
L 52.610496 218.787741 
L 53.242126 222.013263 
L 54.300979 225.151956 
L 55.825047 228.257071 
L 57.8136 231.343573 
L 60.235866 234.385126 
L 63.08275 237.350261 
L 66.383841 240.228752 
L 70.171289 243.026696 
L 74.4448 245.74782 
L 79.190289 248.385744 
L 84.410466 250.934382 
L 90.12231 253.399744 
L 96.329951 255.796262 
L 103.023802 258.133889 
L 110.193908 260.414003 
L 117.838547 262.63408 
L 125.959295 264.793202 
L 134.561792 266.891625 
L 143.65774 268.932615 
L 153.256246 270.923718 
L 163.361205 272.868106 
L 173.982265 274.76043 
L 185.145747 276.594967 
L 196.881494 278.376926 
L 209.210576 280.116117 
L 222.14984 281.815054 
L 235.727435 283.469595 
L 249.977613 285.079723 
L 280.590532 288.188427 
L 296.980903 289.682622 
L 314.106729 291.127523 
L 350.524248 293.858109 
L 369.756733 295.129792 
L 410.075282 297.460155 
L 452.518183 299.500932 
L 462.658493 299.921801 
L 462.573293 301.974586 
L 496.654954 303.302152 
L 542.363768 304.756652 
L 589.343949 305.976638 
L 637.212939 306.952265 
L 710.829436 307.993811 
L 786.00708 308.947655 
L 887.923828 309.814912 
L 991.074659 310.578751 
L 1068.545583 310.96365 
L 1099.636364 311.111478 
L 1099.636364 42.217803 
L 1099.636364 42.217803 
" clip-path="url(#pdc8864d9e3)" style="fill: none; stroke: #ff0000; stroke-width: 0.72; stroke-linejoin: miter"/>
   </g>
   <g id="patch_4">
    <path d="M 639.665428 246.646949 
L 649.938193 246.646949 
L 649.938193 256.919714 
L 639.665428 256.919714 
L 639.665428 267.192479 
L 649.938193 267.192479 
" clip-path="url(#pdc8864d9e3)" style="fill: none; stroke: #ff0000; stroke-width: 0.72; stroke-linejoin: miter"/>
   </g>
   <g id="patch_5">
    <path d="M 655.074575 246.646949 
L 665.34734 246.646949 
L 665.34734 256.919714 
L 655.074575 256.919714 
L 655.074575 267.192479 
L 665.34734 267.192479 
" clip-path="url(#pdc8864d9e3)" style="fill: none; stroke: #ff0000; stroke-width: 0.72; stroke-linejoin: miter"/>
   </g>
   <g id="patch_6">
    <path d="M 632.583369 25.463287 
L 624.377029 25.904876 
L 623.93544 17.698537 
L 632.141779 17.256947 
L 632.583369 25.463287 
" clip-path="url(#pdc8864d9e3)" style="fill: none; stroke: #ff0000; stroke-width: 0.72; stroke-linejoin: miter"/>
   </g>
   <g id="patch_7">
    <path d="M 275.179024 81.601123 
L 267.313864 83.984035 
L 264.930951 76.118876 
L 272.796111 73.735963 
L 275.179024 81.601123 
" clip-path="url(#pdc8864d9e3)" style="fill: none; stroke: #ff0000; stroke-width: 0.72; stroke-linejoin: miter"/>
   </g>
   <g id="patch_8">
    <path d="M 94.575366 167.65332 
L 91.47736 170.352785 
L 84.728697 162.607771 
L 87.826703 159.908306 
L 94.575366 167.65332 
" clip-path="url(#pdc8864d9e3)" style="fill: none; stroke: #ff0000; stroke-width: 0.72; stroke-linejoin: miter"/>
   </g>
   <g id="patch_9">
    <path d="M 74.445686 233.407779 
L 77.754521 235.844246 
L 71.663355 244.116331 
L 68.354521 241.679865 
L 74.445686 233.407779 
" clip-path="url(#pdc8864d9e3)" style="fill: none; stroke: #ff0000; stroke-width: 0.72; stroke-linejoin: miter"/>
   </g>
   <g id="patch_10">
    <path d="M 354.777763 285.903191 
L 362.97807 286.445388 
L 362.435874 294.645694 
L 354.235567 294.103498 
L 354.777763 285.903191 
" clip-path="url(#pdc8864d9e3)" style="fill: none; stroke: #ff0000; stroke-width: 0.72; stroke-linejoin: miter"/>
   </g>
   <g id="patch_11">
    <path d="M 965.487326 162.65363 
L 965.384235 157.443746 
L 965.075146 152.243063 
L 964.560603 147.060766 
L 963.841516 141.906007 
L 962.919155 136.787891 
L 961.795148 131.715455 
L 960.471481 126.69766 
L 958.950491 121.743366 
L 957.234865 116.861323 
L 955.327633 112.060154 
L 953.232162 107.348338 
L 950.952154 102.734196 
L 948.491636 98.225877 
L 945.854952 93.831343 
L 943.04676 89.558356 
L 940.072019 85.414462 
L 936.935983 81.40698 
L 933.64419 77.542986 
L 930.202454 73.829306 
L 926.616853 70.272498 
L 922.89372 66.878844 
L 919.03963 63.654336 
L 915.06139 60.604671 
L 910.966026 57.735233 
L 906.760771 55.051091 
L 902.453051 52.556985 
L 898.050474 50.25732 
L 893.560816 48.156157 
L 888.992006 46.257207 
L 884.352112 44.563824 
L 879.64933 43.078999 
L 874.891964 41.805353 
L 870.088418 40.745137 
L 865.247173 39.900222 
L 860.376781 39.272101 
L 855.485843 38.861883 
L 850.582996 38.670294 
L 845.676901 38.69767 
L 840.77622 38.943963 
L 835.88961 39.40874 
L 831.0257 40.091178 
L 826.19308 40.990073 
L 821.400287 42.103837 
L 816.655783 43.430503 
L 811.967948 44.967728 
L 807.345062 46.712797 
L 802.795289 48.662629 
L 798.326663 50.813779 
L 793.947078 53.162449 
L 789.664268 55.70449 
L 785.485796 58.435413 
L 781.419043 61.350396 
L 777.47119 64.444289 
L 773.64921 67.711629 
L 769.959853 71.146645 
L 766.409635 74.743271 
L 763.004825 78.495155 
L 759.751437 82.395671 
L 756.655216 86.437929 
L 753.721631 90.614792 
L 750.955863 94.918881 
L 748.362796 99.342597 
L 745.94701 103.878126 
L 743.712772 108.517457 
L 741.664026 113.252398 
L 739.804393 118.074587 
L 738.137155 122.975506 
L 736.665258 127.9465 
L 735.3913 132.97879 
L 734.317533 138.063489 
L 733.445851 143.191616 
L 732.777795 148.354115 
L 732.314545 153.541868 
L 732.056918 158.745714 
L 732.00537 163.956461 
L 732.159992 169.164907 
L 732.52051 174.361854 
L 733.086288 179.538123 
L 733.856327 184.684572 
L 734.829266 189.792113 
L 736.003388 194.851724 
L 737.376618 199.854471 
L 738.946532 204.791518 
L 740.710358 209.654145 
L 742.664978 214.433765 
L 744.806943 219.121936 
L 747.132469 223.71038 
L 749.637448 228.190991 
L 752.317457 232.555857 
L 755.167763 236.79727 
L 758.183332 240.907738 
L 761.358838 244.880002 
L 764.688672 248.707047 
L 768.166954 252.382113 
L 771.787541 255.898711 
L 775.544039 259.250629 
L 779.429813 262.431948 
L 783.438001 265.437049 
L 787.561524 268.260625 
L 791.793099 270.89769 
L 796.125253 273.343585 
L 800.550336 275.593992 
L 805.060531 277.644936 
L 809.647873 279.492794 
L 814.304262 281.134304 
L 819.021473 282.566565 
L 823.791175 283.78705 
L 828.604944 284.793602 
L 833.454279 285.584443 
L 838.330616 286.158177 
L 843.225342 286.51379 
L 848.129813 286.650655 
L 853.035367 286.56853 
L 857.933341 286.26756 
L 862.815084 285.748276 
L 867.671975 285.011596 
L 872.495435 284.05882 
L 877.276947 282.891631 
L 882.008065 281.512091 
L 886.680435 279.922636 
L 891.285803 278.126073 
L 895.816038 276.125575 
L 900.263137 273.924675 
L 904.619247 271.52726 
L 908.876675 268.937564 
L 913.027901 266.160161 
L 917.065595 263.199956 
L 920.982624 260.062177 
L 924.772072 256.752365 
L 928.427246 253.276366 
L 931.941691 249.640319 
L 935.309199 245.850646 
L 938.523823 241.914039 
L 941.579886 237.83745 
L 944.471991 233.628081 
L 947.195031 229.293363 
L 949.744194 224.840954 
L 952.114981 220.278716 
L 954.303203 215.614707 
L 956.304997 210.857164 
L 958.116826 206.014489 
L 959.735492 201.095235 
L 961.158134 196.108089 
L 962.382241 191.061859 
L 963.405651 185.965458 
L 964.226557 180.827887 
L 964.843508 175.658217 
L 965.255415 170.465581 
L 965.46155 165.259147 
L 965.487326 162.65363 
L 965.487326 162.65363 
" clip-path="url(#pdc8864d9e3)" style="fill: none; stroke: #ff0000; stroke-width: 0.72; stroke-linejoin: miter"/>
   </g>
   <g id="patch_12">
    <path d="M 394.651446 152.380865 
L 404.924211 162.65363 
L 394.651446 172.926395 
L 384.378681 162.65363 
L 394.651446 152.380865 
" clip-path="url(#pdc8864d9e3)" style="fill: none; stroke: #ff0000; stroke-width: 0.72; stroke-linejoin: miter"/>
   </g>
   <g id="patch_13">
    <path d="M 839.585197 152.380865 
L 849.857962 162.65363 
L 839.585197 172.926395 
L 829.312432 162.65363 
L 839.585197 152.380865 
" clip-path="url(#pdc8864d9e3)" style="fill: none; stroke: #ff0000; stroke-width: 0.72; stroke-linejoin: miter"/>
   </g>
   <g id="patch_14">
    <path d="M 477.670316 227.875281 
L 487.258041 238.790177 
L 476.343145 248.377901 
L 466.755421 237.463006 
L 477.670316 227.875281 
" clip-path="url(#pdc8864d9e3)" style="fill: none; stroke: #ff0000; stroke-width: 0.72; stroke-linejoin: miter"/>
   </g>
   <g id="patch_15">
    <path d="M 991.447027 261.132952 
L 1001.034752 272.047847 
L 990.119857 281.635572 
L 980.532132 270.720676 
L 991.447027 261.132952 
" clip-path="url(#pdc8864d9e3)" style="fill: none; stroke: #ff0000; stroke-width: 0.72; stroke-linejoin: miter"/>
   </g>
   <g id="patch_16">
    <path d="M 530.287408 202.400475 
L 540.560173 192.12771 
L 550.832938 202.400475 
L 540.560173 212.67324 
L 530.287408 202.400475 
" clip-path="url(#pdc8864d9e3)" style="fill: none; stroke: #ff0000; stroke-width: 0.72; stroke-linejoin: miter"/>
   </g>
   <g id="patch_17">
    <path d="M 530.287408 126.159771 
L 540.560173 115.887006 
L 550.832938 126.159771 
L 540.560173 136.432536 
L 530.287408 126.159771 
" clip-path="url(#pdc8864d9e3)" style="fill: none; stroke: #ff0000; stroke-width: 0.72; stroke-linejoin: miter"/>
   </g>
   <g id="line2d_1">
    <path d="M 84.674351 162.65363 
L 1099.636364 162.65363 
" clip-path="url(#pdc8864d9e3)" style="fill: none; stroke: #ffffff; stroke-width: 0.72; stroke-linecap: square"/>
   </g>
   <g id="line2d_2">
    <path d="M 382.324128 162.65363 
L 406.978764 162.65363 
" clip-path="url(#pdc8864d9e3)" style="fill: none; stroke: #ffffff; stroke-width: 0.72; stroke-linecap: square"/>
   </g>
   <g id="line2d_3">
    <path d="M 827.257879 162.65363 
L 851.912515 162.65363 
" clip-path="url(#pdc8864d9e3)" style="fill: none; stroke: #ffffff; stroke-width: 0.72; stroke-linecap: square"/>
   </g>
   <g id="line2d_4">
    <path d="M 52.658659 210.657794 
L 1099.636364 278.430503 
" clip-path="url(#pdc8864d9e3)" style="fill: none; stroke: #ffffff; stroke-width: 0.72; stroke-linecap: square"/>
   </g>
   <g id="line2d_5">
    <path d="M 464.705159 237.330289 
L 489.308303 238.922894 
" clip-path="url(#pdc8864d9e3)" style="fill: none; stroke: #ffffff; stroke-width: 0.72; stroke-linecap: square"/>
   </g>
   <g id="line2d_6">
    <path d="M 978.48187 270.587959 
L 1003.085014 272.180564 
" clip-path="url(#pdc8864d9e3)" style="fill: none; stroke: #ffffff; stroke-width: 0.72; stroke-linecap: square"/>
   </g>
   <g id="line2d_7">
    <path d="M 848.743126 38.654894 
L 848.743126 36.600341 
" clip-path="url(#pdc8864d9e3)" style="fill: none; stroke: #ff0000; stroke-width: 0.72; stroke-linecap: square"/>
   </g>
   <g id="line2d_8">
    <path d="M 848.743126 286.652367 
L 848.743126 288.70692 
" clip-path="url(#pdc8864d9e3)" style="fill: none; stroke: #ff0000; stroke-width: 0.72; stroke-linecap: square"/>
   </g>
   <g id="line2d_9">
    <path d="M 965.487326 162.65363 
L 967.541879 162.65363 
" clip-path="url(#pdc8864d9e3)" style="fill: none; stroke: #ff0000; stroke-width: 0.72; stroke-linecap: square"/>
   </g>
   <g id="line2d_10">
    <path d="M 731.998926 162.65363 
L 729.944373 162.65363 
" clip-path="url(#pdc8864d9e3)" style="fill: none; stroke: #ff0000; stroke-width: 0.72; stroke-linecap: square"/>
   </g>
   <g id="line2d_11">
    <path d="M 540.560173 304.702558 
L 540.560173 23.857688 
" clip-path="url(#pdc8864d9e3)" style="fill: none; stroke: #ffffff; stroke-width: 0.72; stroke-linecap: square"/>
   </g>
   <g id="line2d_12">
    <path d="M 540.560173 214.727793 
L 540.560173 190.073157 
" clip-path="url(#pdc8864d9e3)" style="fill: none; stroke: #ffffff; stroke-width: 0.72; stroke-linecap: square"/>
   </g>
   <g id="line2d_13">
    <path d="M 540.560173 138.487089 
L 540.560173 113.832453 
" clip-path="url(#pdc8864d9e3)" style="fill: none; stroke: #ffffff; stroke-width: 0.72; stroke-linecap: square"/>
   </g>
  </g>
 </g>
 <defs>
  <clipPath id="pdc8864d9e3">
   <rect x="0" y="0" width="1152" height="325.92631"/>
  </clipPath>
 </defs>
</svg>
