<?xml version="1.0" encoding="utf-8" standalone="no"?>
<!DOCTYPE svg PUBLIC "-//W3C//DTD SVG 1.1//EN"
  "http://www.w3.org/Graphics/SVG/1.1/DTD/svg11.dtd">
<svg xmlns:xlink="http://www.w3.org/1999/xlink" width="1152pt" height="184.722484pt" viewBox="0 0 1152 184.722484" xmlns="http://www.w3.org/2000/svg" version="1.1">
 <metadata>
  <rdf:RDF xmlns:dc="http://purl.org/dc/elements/1.1/" xmlns:cc="http://creativecommons.org/ns#" xmlns:rdf="http://www.w3.org/1999/02/22-rdf-syntax-ns#">
   <cc:Work>
    <dc:type rdf:resource="http://purl.org/dc/dcmitype/StillImage"/>
    <dc:date>2026-01-07T02:07:13.174590</dc:date>
    <dc:format>image/svg+xml</dc:format>
    <dc:creator>
     <cc:Agent>
      <dc:title>Matplotlib v3.10.1, https://matplotlib.org/</dc:title>
     </cc:Agent>
    </dc:creator>
   </cc:Work>
  </rdf:RDF>
 </metadata>
 <defs>
  <style type="text/css">*{stroke-linejoin: round; stroke-linecap: butt}</style>
 </defs>
 <g id="figure_1">
  <g id="patch_1">
   <path d="M 0 184.722484 
L 1152 184.722484 
L 1152 0 
L 0 0 
z
" style="fill: #ffffff"/>
  </g>
  <g id="axes_1">
   <g id="patch_2">
    <path d="M 0 184.722484 
L 1152 184.722484 
L 1152 0 
L 0 0 
z
" style="fill: #212830"/>
   </g>
   <g id="patch_3">
    <path d="M 1099.496444 175.358894 
L 1082.125104 169.140545 
L 1066.105299 163.613829 
L 1037.737293 153.876268 
L 1006.299501 142.825095 
L 962.287737 127.05913 
L 906.669401 107.117713 
L 873.792513 95.563147 
L 852.154423 88.134077 
L 842.008285 84.713466 
L 841.634335 85.822669 
L 830.381771 82.080034 
L 809.201415 75.219319 
L 788.195064 68.678636 
L 767.312377 62.472228 
L 746.503856 56.599954 
L 725.731027 51.066731 
L 704.960959 45.868272 
L 684.174926 41.00855 
L 663.354357 36.483284 
L 642.495585 32.296325 
L 621.589029 28.44491 
L 600.640759 24.932404 
L 579.647502 21.757941 
L 558.612535 18.927119 
L 537.509401 16.434982 
L 516.354959 14.274604 
L 495.156568 12.447902 
L 473.94804 10.950764 
L 452.753008 9.792908 
L 431.603166 8.974434 
L 410.521835 8.508418 
L 389.53565 8.396477 
L 368.670948 8.653145 
L 347.955936 9.281562 
L 327.422854 10.297374 
L 307.107704 11.704551 
L 287.050867 13.519394 
L 277.133833 14.579772 
L 267.302289 15.745232 
L 257.559216 17.018057 
L 247.911869 18.39659 
L 238.372477 19.881087 
L 228.94901 21.473987 
L 219.648308 23.173514 
L 210.48954 24.972733 
L 201.495869 26.870584 
L 192.681503 28.868209 
L 184.06204 30.95843 
L 175.665421 33.131065 
L 167.516827 35.382534 
L 159.633861 37.705871 
L 152.040411 40.084305 
L 144.765828 42.502961 
L 137.830183 44.952565 
L 131.24662 47.416927 
L 125.030169 49.875595 
L 119.191039 52.315257 
L 108.632126 57.095163 
L 99.506153 61.665038 
L 91.683609 65.996981 
L 84.994124 70.074095 
L 79.279764 73.912743 
L 74.389027 77.540907 
L 70.205726 80.982023 
L 66.624444 84.285117 
L 63.52609 87.45567 
L 60.839438 90.455546 
L 58.568309 93.296699 
L 56.716333 96.054536 
L 55.232589 98.776512 
L 54.058512 101.429155 
L 53.184193 103.971652 
L 52.626623 106.412205 
L 52.375873 108.865992 
L 52.422478 111.126333 
L 52.797782 113.470792 
L 53.137558 114.629462 
L 53.593657 115.780575 
L 54.862231 118.054029 
L 56.567577 120.254765 
L 58.689528 122.341579 
L 61.256691 124.303911 
L 64.275762 126.161567 
L 67.744778 127.935183 
L 71.711849 129.630939 
L 76.266039 131.267048 
L 81.507665 132.883898 
L 87.569437 134.51137 
L 94.648211 136.162198 
L 102.990348 137.853545 
L 112.887645 139.583522 
L 124.655028 141.337188 
L 138.524817 143.07806 
L 154.563644 144.742958 
L 172.578515 146.265465 
L 192.21248 147.596618 
L 213.066206 148.711792 
L 234.831422 149.619144 
L 258.549624 150.400906 
L 258.513945 151.570905 
L 291.709107 152.474151 
L 338.573259 153.291659 
L 373.994336 153.819283 
L 469.547728 154.69528 
L 600.545287 155.495397 
L 647.88441 155.737464 
L 694.884038 156.164106 
L 729.766222 156.506405 
L 764.665883 156.776332 
L 811.183926 157.436287 
L 857.544817 158.604408 
L 880.48338 159.342967 
L 926.349091 161.26558 
L 948.839372 162.462587 
L 982.59779 164.637086 
L 1004.549308 166.233339 
L 1025.834829 168.013799 
L 1046.03224 169.917737 
L 1064.693851 171.977336 
L 1088.757077 174.907739 
L 1099.636364 176.326008 
L 1099.496444 175.358894 
L 1099.496444 175.358894 
" clip-path="url(#pe4f881916a)" style="fill: none; stroke: #ff0000; stroke-width: 0.72; stroke-linejoin: miter"/>
   </g>
   <g id="patch_4">
    <path d="M 739.464752 59.546942 
L 734.944894 58.324802 
L 736.167034 53.804944 
L 740.686892 55.027084 
L 739.464752 59.546942 
" clip-path="url(#pe4f881916a)" style="fill: none; stroke: #ff0000; stroke-width: 0.72; stroke-linejoin: miter"/>
   </g>
   <g id="patch_5">
    <path d="M 344.137972 14.138761 
L 339.460453 14.347484 
L 339.251731 9.669965 
L 343.929249 9.461243 
L 344.137972 14.138761 
" clip-path="url(#pe4f881916a)" style="fill: none; stroke: #ff0000; stroke-width: 0.72; stroke-linejoin: miter"/>
   </g>
   <g id="patch_6">
    <path d="M 164.728198 41.085858 
L 160.237066 42.409672 
L 158.913252 37.918541 
L 163.404383 36.594727 
L 164.728198 41.085858 
" clip-path="url(#pe4f881916a)" style="fill: none; stroke: #ff0000; stroke-width: 0.72; stroke-linejoin: miter"/>
   </g>
   <g id="patch_7">
    <path d="M 74.201459 85.260098 
L 72.459154 86.823767 
L 68.549983 82.468005 
L 70.292287 80.904336 
L 74.201459 85.260098 
" clip-path="url(#pe4f881916a)" style="fill: none; stroke: #ff0000; stroke-width: 0.72; stroke-linejoin: miter"/>
   </g>
   <g id="patch_8">
    <path d="M 63.562798 118.751041 
L 65.46377 120.117418 
L 62.047826 124.86985 
L 60.146853 123.503473 
L 63.562798 118.751041 
" clip-path="url(#pe4f881916a)" style="fill: none; stroke: #ff0000; stroke-width: 0.72; stroke-linejoin: miter"/>
   </g>
   <g id="patch_9">
    <path d="M 203.946661 143.565201 
L 208.622928 143.800295 
L 208.387833 148.476562 
L 203.711566 148.241468 
L 203.946661 143.565201 
" clip-path="url(#pe4f881916a)" style="fill: none; stroke: #ff0000; stroke-width: 0.72; stroke-linejoin: miter"/>
   </g>
   <g id="line2d_1">
    <path d="M 1077.548401 167.543621 
L 1077.1652 168.649663 
" clip-path="url(#pe4f881916a)" style="fill: none; stroke: #ff0000; stroke-width: 0.72; stroke-linecap: square"/>
   </g>
   <g id="line2d_2">
    <path d="M 1076.422942 172.204697 
L 1076.331139 173.371635 
" clip-path="url(#pe4f881916a)" style="fill: none; stroke: #ff0000; stroke-width: 0.72; stroke-linecap: square"/>
   </g>
   <g id="line2d_3">
    <path d="M 1055.399549 159.960701 
L 1055.018375 161.067443 
" clip-path="url(#pe4f881916a)" style="fill: none; stroke: #ff0000; stroke-width: 0.72; stroke-linecap: square"/>
   </g>
   <g id="line2d_4">
    <path d="M 1053.181887 169.500636 
L 1053.068337 170.665659 
" clip-path="url(#pe4f881916a)" style="fill: none; stroke: #ff0000; stroke-width: 0.72; stroke-linecap: square"/>
   </g>
   <g id="line2d_5">
    <path d="M 967.095761 128.788464 
L 966.708934 129.893243 
" clip-path="url(#pe4f881916a)" style="fill: none; stroke: #ff0000; stroke-width: 0.72; stroke-linecap: square"/>
   </g>
   <g id="line2d_6">
    <path d="M 959.823427 161.979363 
L 959.72291 163.145582 
" clip-path="url(#pe4f881916a)" style="fill: none; stroke: #ff0000; stroke-width: 0.72; stroke-linecap: square"/>
   </g>
   <g id="patch_10">
    <path d="M 510.172404 81.681659 
L 510.058089 77.833081 
L 509.715599 73.999793 
L 509.146295 70.197025 
L 508.352438 66.439885 
L 507.337183 62.7433 
L 506.104562 59.121957 
L 504.659474 55.590243 
L 503.007659 52.16219 
L 501.15568 48.851416 
L 499.110895 45.671077 
L 496.881428 42.633807 
L 494.476137 39.751673 
L 491.904577 37.036126 
L 489.176965 34.497954 
L 486.304138 32.147243 
L 483.297511 29.99333 
L 480.169027 28.044774 
L 476.931116 26.309316 
L 473.596643 24.793851 
L 470.178856 23.5044 
L 466.691333 22.446086 
L 463.147929 21.623114 
L 459.562724 21.038752 
L 455.94996 20.695324 
L 452.323991 20.594193 
L 448.699224 20.735761 
L 445.090059 21.119465 
L 441.510835 21.743782 
L 437.975773 22.606231 
L 434.498916 23.703385 
L 431.09408 25.030885 
L 427.774791 26.583457 
L 424.554236 28.354934 
L 421.445211 30.338276 
L 418.460067 32.525604 
L 415.610666 34.908228 
L 412.908326 37.476682 
L 410.363785 40.220761 
L 407.987153 43.129564 
L 405.78787 46.191533 
L 403.774676 49.394503 
L 401.955568 52.72575 
L 400.337773 56.172037 
L 398.92772 59.719674 
L 397.73101 63.354566 
L 396.752398 67.06227 
L 395.995772 70.828057 
L 395.464137 74.636965 
L 395.159606 78.473861 
L 395.08339 82.323502 
L 395.235789 86.170593 
L 395.616201 89.99985 
L 396.223111 93.796058 
L 397.054111 97.544137 
L 398.105898 101.229194 
L 399.374293 104.836589 
L 400.854256 108.35199 
L 402.53991 111.761431 
L 404.424555 115.051365 
L 406.500704 118.208722 
L 408.76011 121.220958 
L 411.193795 124.076106 
L 413.79209 126.762821 
L 416.544673 129.27043 
L 419.440608 131.588969 
L 422.468388 133.709228 
L 425.615985 135.622783 
L 428.870894 137.322031 
L 432.220182 138.800221 
L 435.650543 140.051481 
L 439.148349 141.070838 
L 442.699702 141.854243 
L 446.290493 142.398585 
L 449.906457 142.701699 
L 453.533226 142.762382 
L 457.156392 142.580393 
L 460.76156 142.156455 
L 464.334408 141.492251 
L 467.860739 140.590422 
L 471.326544 139.454549 
L 474.718053 138.089146 
L 478.021793 136.499638 
L 481.224636 134.692339 
L 484.31386 132.674429 
L 487.277189 130.453927 
L 490.102851 128.039653 
L 492.77962 125.4412 
L 495.296861 122.668892 
L 497.644572 119.733742 
L 499.813427 116.647413 
L 501.794809 113.422165 
L 503.580845 110.070812 
L 505.16444 106.606671 
L 506.539303 103.043503 
L 507.69997 99.395464 
L 508.641831 95.67705 
L 509.361144 91.903032 
L 509.85505 88.088404 
L 510.121588 84.248323 
L 510.172404 81.681659 
L 510.172404 81.681659 
" clip-path="url(#pe4f881916a)" style="fill: none; stroke: #ff0000; stroke-width: 0.72; stroke-linejoin: miter"/>
   </g>
   <g id="line2d_7">
    <path d="M 69.425715 81.681659 
L 829.163063 81.681659 
" clip-path="url(#pe4f881916a)" style="fill: none; stroke: #ffffff; stroke-width: 0.72; stroke-linecap: square"/>
   </g>
   <g id="line2d_8">
    <path d="M 218.915044 81.681659 
L 232.961563 81.681659 
" clip-path="url(#pe4f881916a)" style="fill: none; stroke: #ffffff; stroke-width: 0.72; stroke-linecap: square"/>
   </g>
   <g id="patch_11">
    <path d="M 225.938304 75.828943 
L 231.79102 81.681659 
L 225.938304 87.534376 
L 220.085587 81.681659 
L 225.938304 75.828943 
" clip-path="url(#pe4f881916a)" style="fill: none; stroke: #ff0000; stroke-width: 0.72; stroke-linejoin: miter"/>
   </g>
   <g id="line2d_9">
    <path d="M 442.27113 81.681659 
L 456.317649 81.681659 
" clip-path="url(#pe4f881916a)" style="fill: none; stroke: #ffffff; stroke-width: 0.72; stroke-linecap: square"/>
   </g>
   <g id="patch_12">
    <path d="M 449.294389 75.828943 
L 455.147105 81.681659 
L 449.294389 87.534376 
L 443.441673 81.681659 
L 449.294389 75.828943 
" clip-path="url(#pe4f881916a)" style="fill: none; stroke: #ff0000; stroke-width: 0.72; stroke-linejoin: miter"/>
   </g>
   <g id="line2d_10">
    <path d="M 665.627216 81.681659 
L 679.673734 81.681659 
" clip-path="url(#pe4f881916a)" style="fill: none; stroke: #ffffff; stroke-width: 0.72; stroke-linecap: square"/>
   </g>
   <g id="patch_13">
    <path d="M 672.650475 75.828943 
L 678.503191 81.681659 
L 672.650475 87.534376 
L 666.797759 81.681659 
L 672.650475 75.828943 
" clip-path="url(#pe4f881916a)" style="fill: none; stroke: #ff0000; stroke-width: 0.72; stroke-linejoin: miter"/>
   </g>
   <g id="line2d_11">
    <path d="M 52.448098 107.853968 
L 1098.948228 175.161279 
" clip-path="url(#pe4f881916a)" style="fill: none; stroke: #ffffff; stroke-width: 0.72; stroke-linecap: square"/>
   </g>
   <g id="line2d_12">
    <path d="M 259.295052 121.157657 
L 273.312608 122.059218 
" clip-path="url(#pe4f881916a)" style="fill: none; stroke: #ffffff; stroke-width: 0.72; stroke-linecap: square"/>
   </g>
   <g id="patch_14">
    <path d="M 266.67948 115.767789 
L 272.144478 121.984088 
L 265.928179 127.449086 
L 260.463181 121.232787 
L 266.67948 115.767789 
" clip-path="url(#pe4f881916a)" style="fill: none; stroke: #ff0000; stroke-width: 0.72; stroke-linejoin: miter"/>
   </g>
   <g id="line2d_13">
    <path d="M 517.123663 137.740312 
L 531.141219 138.641873 
" clip-path="url(#pe4f881916a)" style="fill: none; stroke: #ffffff; stroke-width: 0.72; stroke-linecap: square"/>
   </g>
   <g id="patch_15">
    <path d="M 524.508091 132.350444 
L 529.973089 138.566743 
L 523.75679 144.031741 
L 518.291792 137.815442 
L 524.508091 132.350444 
" clip-path="url(#pe4f881916a)" style="fill: none; stroke: #ff0000; stroke-width: 0.72; stroke-linejoin: miter"/>
   </g>
   <g id="line2d_14">
    <path d="M 452.626308 20.59335 
L 452.626308 19.422807 
" clip-path="url(#pe4f881916a)" style="fill: none; stroke: #ff0000; stroke-width: 0.72; stroke-linecap: square"/>
   </g>
   <g id="line2d_15">
    <path d="M 452.626308 142.769969 
L 452.626308 143.940512 
" clip-path="url(#pe4f881916a)" style="fill: none; stroke: #ff0000; stroke-width: 0.72; stroke-linecap: square"/>
   </g>
   <g id="line2d_16">
    <path d="M 510.172404 81.681659 
L 511.342947 81.681659 
" clip-path="url(#pe4f881916a)" style="fill: none; stroke: #ff0000; stroke-width: 0.72; stroke-linecap: square"/>
   </g>
   <g id="line2d_17">
    <path d="M 395.080213 81.681659 
L 393.90967 81.681659 
" clip-path="url(#pe4f881916a)" style="fill: none; stroke: #ff0000; stroke-width: 0.72; stroke-linecap: square"/>
   </g>
   <g id="patch_16">
    <path d="M 347.511527 122.533618 
L 353.364243 122.533618 
L 353.364243 128.386334 
L 347.511527 128.386334 
L 353.364243 128.386334 
L 353.364243 134.23905 
L 347.511527 134.23905 
" clip-path="url(#pe4f881916a)" style="fill: none; stroke: #ff0000; stroke-width: 0.72; stroke-linejoin: miter"/>
   </g>
   <g id="patch_17">
    <path d="M 356.290601 122.533618 
L 362.143317 122.533618 
L 362.143317 128.386334 
L 356.290601 128.386334 
L 356.290601 134.23905 
L 362.143317 134.23905 
" clip-path="url(#pe4f881916a)" style="fill: none; stroke: #ff0000; stroke-width: 0.72; stroke-linejoin: miter"/>
   </g>
  </g>
 </g>
 <defs>
  <clipPath id="pe4f881916a">
   <rect x="0" y="0" width="1152" height="184.722484"/>
  </clipPath>
 </defs>
</svg>
