<?xml version="1.0" encoding="utf-8" standalone="no"?>
<!DOCTYPE svg PUBLIC "-//W3C//DTD SVG 1.1//EN"
  "http://www.w3.org/Graphics/SVG/1.1/DTD/svg11.dtd">
<svg xmlns:xlink="http://www.w3.org/1999/xlink" width="1152pt" height="320.482819pt" viewBox="0 0 1152 320.482819" xmlns="http://www.w3.org/2000/svg" version="1.1">
 <metadata>
  <rdf:RDF xmlns:dc="http://purl.org/dc/elements/1.1/" xmlns:cc="http://creativecommons.org/ns#" xmlns:rdf="http://www.w3.org/1999/02/22-rdf-syntax-ns#">
   <cc:Work>
    <dc:type rdf:resource="http://purl.org/dc/dcmitype/StillImage"/>
    <dc:date>2026-01-07T02:07:20.249162</dc:date>
    <dc:format>image/svg+xml</dc:format>
    <dc:creator>
     <cc:Agent>
      <dc:title>Matplotlib v3.10.1, https://matplotlib.org/</dc:title>
     </cc:Agent>
    </dc:creator>
   </cc:Work>
  </rdf:RDF>
 </metadata>
 <defs>
  <style type="text/css">*{stroke-linejoin: round; stroke-linecap: butt}</style>
 </defs>
 <g id="figure_1">
  <g id="patch_1">
   <path d="M 0 320.482819 
L 1152 320.482819 
L 1152 0 
L 0 0 
z
" style="fill: #ffffff"/>
  </g>
  <g id="axes_1">
   <g id="patch_2">
    <path d="M 0 320.482819 
L 1152 320.482819 
L 1152 0 
L 0 0 
z
" style="fill: #212830"/>
   </g>
   <g id="patch_3">
    <path d="M 1099.636364 265.471437 
L 1099.636363 40.947842 
L 1080.30585 38.264705 
L 1059.35313 35.533302 
L 1038.362784 32.970516 
L 1017.339118 30.571659 
L 996.291798 28.33738 
L 975.223178 26.270529 
L 954.130377 24.370694 
L 933.019114 22.63366 
L 911.904363 21.05956 
L 890.795449 19.652959 
L 869.692204 18.416576 
L 848.598563 17.347726 
L 827.528439 16.446856 
L 806.492515 15.718187 
L 785.490291 15.166549 
L 764.523138 14.790345 
L 743.604066 14.589075 
L 722.744269 14.567401 
L 701.945352 14.730522 
L 681.207851 15.078267 
L 660.545071 15.609683 
L 639.970777 16.329137 
L 619.486927 17.242956 
L 599.0968 18.351139 
L 578.815203 19.652529 
L 558.658447 21.152064 
L 538.629601 22.856447 
L 518.735523 24.764346 
L 498.996682 26.874839 
L 479.428622 29.194409 
L 460.036894 31.727636 
L 440.836309 34.47116 
L 421.851457 37.425432 
L 403.097717 40.595372 
L 384.588413 43.977488 
L 366.362654 47.557777 
L 348.466744 51.334048 
L 330.928078 55.308746 
L 313.777848 59.467534 
L 297.072662 63.789852 
L 280.862164 68.268658 
L 265.180514 72.890309 
L 250.076003 77.621178 
L 235.607723 82.431379 
L 221.814541 87.302777 
L 208.722255 92.203266 
L 196.361786 97.091717 
L 184.753453 101.941566 
L 173.892855 106.734211 
L 163.764899 111.44234 
L 154.353291 116.041135 
L 145.631914 120.52192 
L 137.560925 124.884782 
L 130.094643 129.125484 
L 123.19183 133.236499 
L 116.814746 137.218628 
L 110.923753 141.08091 
L 105.479015 144.832636 
L 100.442601 148.479713 
L 95.784191 152.023738 
L 91.478963 155.471082 
L 87.503281 158.834166 
L 83.827072 162.130907 
L 80.417825 165.368013 
L 74.283034 171.644927 
L 68.971441 177.57446 
L 66.629958 180.402533 
L 64.504475 183.159229 
L 62.591326 185.86908 
L 60.876124 188.557292 
L 59.34097 191.231567 
L 57.967471 193.888727 
L 55.666996 199.080765 
L 54.737929 201.587218 
L 53.962018 204.027779 
L 53.342481 206.41128 
L 52.878787 208.747678 
L 52.566343 211.04552 
L 52.387251 213.554573 
L 52.363636 215.564313 
L 52.473303 217.830472 
L 52.739001 220.079982 
L 53.179375 222.303444 
L 53.819734 224.507392 
L 54.683965 226.703021 
L 55.783423 228.893613 
L 57.113067 231.071776 
L 58.65737 233.221999 
L 60.405184 235.329747 
L 62.355302 237.38433 
L 64.518674 239.382221 
L 66.906849 241.32424 
L 69.527549 243.215201 
L 72.378031 245.060247 
L 75.455292 246.864884 
L 78.755692 248.631265 
L 82.2888 250.360311 
L 86.069084 252.0523 
L 90.121183 253.709526 
L 94.469184 255.338516 
L 99.136653 256.949063 
L 104.149127 258.551912 
L 115.323943 261.767464 
L 121.566912 263.387605 
L 128.316478 265.019382 
L 135.631064 266.667738 
L 143.57458 268.337421 
L 152.214683 270.030242 
L 161.62795 271.743094 
L 171.897206 273.470799 
L 183.101745 275.211026 
L 195.307528 276.959741 
L 208.56464 278.703708 
L 222.906552 280.423983 
L 238.340178 282.106071 
L 254.82901 283.737781 
L 272.304868 285.297904 
L 290.689736 286.768594 
L 309.885625 288.144696 
L 329.778446 289.418813 
L 350.276104 290.582229 
L 371.299819 291.639252 
L 392.769199 292.594789 
L 436.901227 294.210408 
L 461.876007 295.002967 
L 461.732731 299.701366 
L 504.951875 300.959326 
L 550.937974 301.951175 
L 668.258308 303.883009 
L 715.368264 304.422014 
L 880.929507 305.915418 
L 1099.636364 265.471437 
L 1099.636364 265.471437 
" clip-path="url(#p8300baf951)" style="fill: none; stroke: #ff0000; stroke-width: 0.72; stroke-linejoin: miter"/>
   </g>
   <g id="patch_4">
    <path d="M 654.700578 232.67769 
L 639.031966 232.67769 
L 639.031966 248.346302 
L 654.700578 248.346302 
L 654.700578 264.014913 
L 639.031966 264.014913 
" clip-path="url(#p8300baf951)" style="fill: none; stroke: #ff0000; stroke-width: 0.72; stroke-linejoin: miter"/>
   </g>
   <g id="patch_5">
    <path d="M 662.534884 232.67769 
L 662.534884 248.346302 
L 678.203495 248.346302 
L 678.203495 232.67769 
L 678.203495 264.014913 
" clip-path="url(#p8300baf951)" style="fill: none; stroke: #ff0000; stroke-width: 0.72; stroke-linejoin: miter"/>
   </g>
   <g id="patch_6">
    <path d="M 634.112197 29.137924 
L 621.589769 29.696707 
L 621.030986 17.174279 
L 633.553415 16.615496 
L 634.112197 29.137924 
" clip-path="url(#p8300baf951)" style="fill: none; stroke: #ff0000; stroke-width: 0.72; stroke-linejoin: miter"/>
   </g>
   <g id="patch_7">
    <path d="M 277.754173 82.252868 
L 265.730732 85.796921 
L 262.186679 73.77348 
L 274.21012 70.229427 
L 277.754173 82.252868 
" clip-path="url(#p8300baf951)" style="fill: none; stroke: #ff0000; stroke-width: 0.72; stroke-linejoin: miter"/>
   </g>
   <g id="patch_8">
    <path d="M 98.738203 169.804622 
L 94.073788 173.990801 
L 83.60834 162.329764 
L 88.272755 158.143585 
L 98.738203 169.804622 
" clip-path="url(#p8300baf951)" style="fill: none; stroke: #ff0000; stroke-width: 0.72; stroke-linejoin: miter"/>
   </g>
   <g id="patch_9">
    <path d="M 75.860362 228.463618 
L 80.949556 232.121619 
L 71.804553 244.844603 
L 66.71536 241.186601 
L 75.860362 228.463618 
" clip-path="url(#p8300baf951)" style="fill: none; stroke: #ff0000; stroke-width: 0.72; stroke-linejoin: miter"/>
   </g>
   <g id="patch_10">
    <path d="M 351.701239 278.103156 
L 364.220317 278.73254 
L 363.590933 291.251618 
L 351.071855 290.622234 
L 351.701239 278.103156 
" clip-path="url(#p8300baf951)" style="fill: none; stroke: #ff0000; stroke-width: 0.72; stroke-linejoin: miter"/>
   </g>
   <g id="patch_11">
    <path d="M 957.31003 159.332096 
L 957.213856 154.470816 
L 956.925501 149.618121 
L 956.445477 144.782582 
L 955.77463 139.972739 
L 954.914145 135.197086 
L 953.865542 130.464058 
L 952.630673 125.782013 
L 951.211719 121.159221 
L 949.611185 116.603846 
L 947.831899 112.123933 
L 945.877003 107.727394 
L 943.749949 103.421993 
L 941.454494 99.215335 
L 938.994692 95.114849 
L 936.374887 91.127776 
L 933.599707 87.261159 
L 930.674051 83.521825 
L 927.603087 79.916379 
L 924.39224 76.451189 
L 921.047179 73.132374 
L 917.573812 69.965796 
L 913.978273 66.957047 
L 910.266913 64.111441 
L 906.446286 61.434003 
L 902.523139 58.929463 
L 898.504402 56.602242 
L 894.397172 54.456453 
L 890.208702 52.495883 
L 885.94639 50.723996 
L 881.617763 49.14392 
L 877.230466 47.758448 
L 872.792248 46.570024 
L 868.310947 45.580749 
L 863.794477 44.79237 
L 859.250814 44.206278 
L 854.687984 43.823508 
L 850.114044 43.644738 
L 845.537073 43.670282 
L 840.965154 43.900096 
L 836.406362 44.333773 
L 831.868747 44.970548 
L 827.360323 45.809296 
L 822.889053 46.848536 
L 818.462834 48.086432 
L 814.089482 49.520798 
L 809.776722 51.149102 
L 805.532169 52.968466 
L 801.363321 54.975678 
L 797.27754 57.167194 
L 793.282042 59.539142 
L 789.383882 62.087333 
L 785.589947 64.807268 
L 781.906935 67.694143 
L 778.341352 70.742858 
L 774.899495 73.94803 
L 771.587443 77.303999 
L 768.411044 80.804837 
L 765.375909 84.444361 
L 762.487398 88.216143 
L 759.750612 92.113523 
L 757.170385 96.129618 
L 754.751274 100.257333 
L 752.497551 104.489381 
L 750.413196 108.818285 
L 748.501891 113.236402 
L 746.76701 117.735927 
L 745.211619 122.308916 
L 743.838464 126.947291 
L 742.64997 131.64286 
L 741.648235 136.387331 
L 740.835031 141.172325 
L 740.211791 145.989391 
L 739.779618 150.830021 
L 739.539274 155.685666 
L 739.491184 160.547751 
L 739.635433 165.40769 
L 739.971766 170.256898 
L 740.499589 175.086812 
L 741.217969 179.888902 
L 742.125639 184.654687 
L 743.220995 189.375749 
L 744.502103 194.043752 
L 745.966699 198.650451 
L 747.612198 203.18771 
L 749.435694 207.647516 
L 751.433965 212.021992 
L 753.603483 216.303413 
L 755.940416 220.484218 
L 758.440637 224.557022 
L 761.099731 228.514633 
L 763.913 232.350061 
L 766.875478 236.056533 
L 769.98193 239.627502 
L 773.226872 243.056662 
L 776.604573 246.337957 
L 780.109067 249.465592 
L 783.734164 252.434042 
L 787.473463 255.238066 
L 791.32036 257.872711 
L 795.268061 260.333324 
L 799.309593 262.615559 
L 803.437819 264.715387 
L 807.645448 266.629098 
L 811.925049 268.353312 
L 816.269065 269.884985 
L 820.669822 271.221411 
L 825.119549 272.360231 
L 829.610387 273.299432 
L 834.134405 274.037356 
L 838.683613 274.5727 
L 843.249977 274.904519 
L 847.825433 275.032226 
L 852.401898 274.955596 
L 856.971292 274.674765 
L 861.525544 274.190227 
L 866.056611 273.50284 
L 870.55649 272.613816 
L 875.017235 271.524726 
L 879.430966 270.237494 
L 883.789891 268.754393 
L 888.086309 267.078041 
L 892.312633 265.211401 
L 896.461399 263.157767 
L 900.52528 260.920768 
L 904.497098 258.504354 
L 908.36984 255.912793 
L 912.136666 253.150661 
L 915.790922 250.222837 
L 919.326155 247.134492 
L 922.736122 243.891079 
L 926.0148 240.498328 
L 929.1564 236.962229 
L 932.155371 233.289028 
L 935.006419 229.485213 
L 937.704507 225.557501 
L 940.244872 221.512828 
L 942.623025 217.358339 
L 944.834768 213.10137 
L 946.876194 208.749439 
L 948.743697 204.310233 
L 950.43398 199.791591 
L 951.944057 195.201494 
L 953.271262 190.548048 
L 954.41325 185.839472 
L 955.368005 181.084082 
L 956.13384 176.290276 
L 956.709403 171.466519 
L 957.093677 166.621333 
L 957.285984 161.763273 
L 957.31003 159.332096 
L 957.31003 159.332096 
" clip-path="url(#p8300baf951)" style="fill: none; stroke: #ff0000; stroke-width: 0.72; stroke-linejoin: miter"/>
   </g>
   <g id="patch_12">
    <path d="M 400.680612 143.663484 
L 416.349223 159.332096 
L 400.680612 175.000707 
L 385.012 159.332096 
L 400.680612 143.663484 
" clip-path="url(#p8300baf951)" style="fill: none; stroke: #ff0000; stroke-width: 0.72; stroke-linejoin: miter"/>
   </g>
   <g id="patch_13">
    <path d="M 840.72568 143.663484 
L 856.394292 159.332096 
L 840.72568 175.000707 
L 825.057069 159.332096 
L 840.72568 143.663484 
" clip-path="url(#p8300baf951)" style="fill: none; stroke: #ff0000; stroke-width: 0.72; stroke-linejoin: miter"/>
   </g>
   <g id="patch_14">
    <path d="M 264.39053 209.463931 
L 279.02116 226.105909 
L 262.379182 240.736539 
L 247.748552 224.094562 
L 264.39053 209.463931 
" clip-path="url(#p8300baf951)" style="fill: none; stroke: #ff0000; stroke-width: 0.72; stroke-linejoin: miter"/>
   </g>
   <g id="patch_15">
    <path d="M 502.548693 224.78145 
L 517.179323 241.423428 
L 500.537345 256.054058 
L 485.906715 239.412081 
L 502.548693 224.78145 
" clip-path="url(#p8300baf951)" style="fill: none; stroke: #ff0000; stroke-width: 0.72; stroke-linejoin: miter"/>
   </g>
   <g id="patch_16">
    <path d="M 362.670648 199.480181 
L 378.339259 183.811569 
L 394.007871 199.480181 
L 378.339259 215.148792 
L 362.670648 199.480181 
" clip-path="url(#p8300baf951)" style="fill: none; stroke: #ff0000; stroke-width: 0.72; stroke-linejoin: miter"/>
   </g>
   <g id="patch_17">
    <path d="M 362.670648 137.677454 
L 378.339259 122.008843 
L 394.007871 137.677454 
L 378.339259 153.346066 
L 362.670648 137.677454 
" clip-path="url(#p8300baf951)" style="fill: none; stroke: #ff0000; stroke-width: 0.72; stroke-linejoin: miter"/>
   </g>
   <g id="line2d_1">
    <path d="M 86.948038 159.332096 
L 1099.636363 159.332096 
" clip-path="url(#p8300baf951)" style="fill: none; stroke: #ffffff; stroke-width: 0.72; stroke-linecap: square"/>
   </g>
   <g id="line2d_2">
    <path d="M 381.878278 159.332096 
L 419.482945 159.332096 
" clip-path="url(#p8300baf951)" style="fill: none; stroke: #ffffff; stroke-width: 0.72; stroke-linecap: square"/>
   </g>
   <g id="line2d_3">
    <path d="M 821.923347 159.332096 
L 859.528014 159.332096 
" clip-path="url(#p8300baf951)" style="fill: none; stroke: #ffffff; stroke-width: 0.72; stroke-linecap: square"/>
   </g>
   <g id="line2d_4">
    <path d="M 52.531131 211.538844 
L 1045.818172 275.423671 
" clip-path="url(#p8300baf951)" style="fill: none; stroke: #ffffff; stroke-width: 0.72; stroke-linecap: square"/>
   </g>
   <g id="line2d_5">
    <path d="M 244.621291 223.893427 
L 282.148421 226.307044 
" clip-path="url(#p8300baf951)" style="fill: none; stroke: #ffffff; stroke-width: 0.72; stroke-linecap: square"/>
   </g>
   <g id="line2d_6">
    <path d="M 482.779454 239.210946 
L 520.306584 241.624563 
" clip-path="url(#p8300baf951)" style="fill: none; stroke: #ffffff; stroke-width: 0.72; stroke-linecap: square"/>
   </g>
   <g id="line2d_7">
    <path d="M 848.397601 43.630369 
L 848.397601 40.496646 
" clip-path="url(#p8300baf951)" style="fill: none; stroke: #ff0000; stroke-width: 0.72; stroke-linecap: square"/>
   </g>
   <g id="line2d_8">
    <path d="M 848.397601 275.033823 
L 848.397601 278.167545 
" clip-path="url(#p8300baf951)" style="fill: none; stroke: #ff0000; stroke-width: 0.72; stroke-linecap: square"/>
   </g>
   <g id="line2d_9">
    <path d="M 957.31003 159.332096 
L 960.443753 159.332096 
" clip-path="url(#p8300baf951)" style="fill: none; stroke: #ff0000; stroke-width: 0.72; stroke-linecap: square"/>
   </g>
   <g id="line2d_10">
    <path d="M 739.485172 159.332096 
L 736.35145 159.332096 
" clip-path="url(#p8300baf951)" style="fill: none; stroke: #ff0000; stroke-width: 0.72; stroke-linecap: square"/>
   </g>
   <g id="line2d_11">
    <path d="M 378.339259 291.952556 
L 378.339259 45.205079 
" clip-path="url(#p8300baf951)" style="fill: none; stroke: #ffffff; stroke-width: 0.72; stroke-linecap: square"/>
   </g>
   <g id="line2d_12">
    <path d="M 378.339259 218.282515 
L 378.339259 180.677847 
" clip-path="url(#p8300baf951)" style="fill: none; stroke: #ffffff; stroke-width: 0.72; stroke-linecap: square"/>
   </g>
   <g id="line2d_13">
    <path d="M 378.339259 156.479788 
L 378.339259 118.875121 
" clip-path="url(#p8300baf951)" style="fill: none; stroke: #ffffff; stroke-width: 0.72; stroke-linecap: square"/>
   </g>
  </g>
 </g>
 <defs>
  <clipPath id="p8300baf951">
   <rect x="0" y="0" width="1152" height="320.482819"/>
  </clipPath>
 </defs>
</svg>
