  0
SECTION
  2
HEADER
  9
$ACADVER
  1
AC1021
  9
$ACADMAINTVER
 70
25
  9
$DWGCODEPAGE
  3
ANSI_1252
  9
$LASTSAVEDBY
  1
ezdxf
  9
$INSBASE
 10
0.0
 20
0.0
 30
0.0
  9
$EXTMIN
 10
1e+20
 20
1e+20
 30
1e+20
  9
$EXTMAX
 10
-1e+20
 20
-1e+20
 30
-1e+20
  9
$LIMMIN
 10
0.0
 20
0.0
  9
$LIMMAX
 10
420.0
 20
297.0
  9
$ORTHOMODE
 70
0
  9
$REGENMODE
 70
1
  9
$FILLMODE
 70
1
  9
$QTEXTMODE
 70
0
  9
$MIRRTEXT
 70
1
  9
$LTSCALE
 40
1.0
  9
$ATTMODE
 70
1
  9
$TEXTSIZE
 40
2.5
  9
$TRACEWID
 40
1.0
  9
$TEXTSTYLE
  7
OpenSans
  9
$CLAYER
  8
0
  9
$CELTYPE
  6
ByLayer
  9
$CECOLOR
 62
256
  9
$CELTSCALE
 40
1.0
  9
$DISPSILH
 70
0
  9
$DIMSCALE
 40
1.0
  9
$DIMASZ
 40
0.175
  9
$DIMEXO
 40
0.125
  9
$DIMDLI
 40
3.75
  9
$DIMRND
 40
0.0
  9
$DIMDLE
 40
0.0
  9
$DIMEXE
 40
0.375
  9
$DIMTP
 40
0.0
  9
$DIMTM
 40
0.0
  9
$DIMTXT
 40
0.25
  9
$DIMCEN
 40
2.5
  9
$DIMTSZ
 40
0.0
  9
$DIMTOL
 70
0
  9
$DIMLIM
 70
0
  9
$DIMTIH
 70
0
  9
$DIMTOH
 70
0
  9
$DIMSE1
 70
0
  9
$DIMSE2
 70
0
  9
$DIMTAD
 70
1
  9
$DIMZIN
 70
12
  9
$DIMBLK
  1
ARCHTICK
  9
$DIMASO
 70
1
  9
$DIMSHO
 70
1
  9
$DIMPOST
  1

  9
$DIMAPOST
  1

  9
$DIMALT
 70
0
  9
$DIMALTD
 70
3
  9
$DIMALTF
 40
0.03937007874
  9
$DIMLFAC
 40
100.0
  9
$DIMTOFL
 70
1
  9
$DIMTVP
 40
0.0
  9
$DIMTIX
 70
0
  9
$DIMSOXD
 70
0
  9
$DIMSAH
 70
0
  9
$DIMBLK1
  1

  9
$DIMBLK2
  1

  9
$DIMSTYLE
  2
EZDXF
  9
$DIMCLRD
 70
0
  9
$DIMCLRE
 70
0
  9
$DIMCLRT
 70
0
  9
$DIMTFAC
 40
0.5
  9
$DIMGAP
 40
0.1
  9
$DIMJUST
 70
0
  9
$DIMSD1
 70
0
  9
$DIMSD2
 70
0
  9
$DIMTOLJ
 70
0
  9
$DIMTZIN
 70
8
  9
$DIMALTZ
 70
0
  9
$DIMALTTZ
 70
0
  9
$DIMUPT
 70
1
  9
$DIMDEC
 70
2
  9
$DIMTDEC
 70
2
  9
$DIMALTU
 70
2
  9
$DIMALTTD
 70
3
  9
$DIMTXSTY
  7
OpenSansCondensed-Light
  9
$DIMAUNIT
 70
0
  9
$DIMADEC
 70
2
  9
$DIMALTRND
 40
0.0
  9
$DIMAZIN
 70
3
  9
$DIMDSEP
 70
46
  9
$DIMATFIT
 70
3
  9
$DIMFRAC
 70
0
  9
$DIMLDRBLK
  1

  9
$DIMLUNIT
 70
2
  9
$DIMLWD
 70
-2
  9
$DIMLWE
 70
-2
  9
$DIMTMOVE
 70
2
  9
$DIMFXL
 40
1.0
  9
$DIMFXLON
 70
0
  9
$DIMJOGANG
 40
0.785398163397
  9
$DIMTFILL
 70
0
  9
$DIMTFILLCLR
 70
0
  9
$DIMARCSYM
 70
0
  9
$DIMLTYPE
  6

  9
$DIMLTEX1
  6

  9
$DIMLTEX2
  6

  9
$LUNITS
 70
2
  9
$LUPREC
 70
4
  9
$SKETCHINC
 40
1.0
  9
$FILLETRAD
 40
10.0
  9
$AUNITS
 70
0
  9
$AUPREC
 70
2
  9
$MENU
  1
.
  9
$ELEVATION
 40
0.0
  9
$PELEVATION
 40
0.0
  9
$THICKNESS
 40
0.0
  9
$LIMCHECK
 70
0
  9
$CHAMFERA
 40
0.0
  9
$CHAMFERB
 40
0.0
  9
$CHAMFERC
 40
0.0
  9
$CHAMFERD
 40
0.0
  9
$SKPOLY
 70
0
  9
$TDCREATE
 40
2461048.088414352
  9
$TDUCREATE
 40
2458532.153996898
  9
$TDUPDATE
 40
2461048.088414352
  9
$TDUUPDATE
 40
2458532.1544311
  9
$TDINDWG
 40
0.0
  9
$TDUSRTIMER
 40
0.0
  9
$USRTIMER
 70
1
  9
$ANGBASE
 50
0.0
  9
$ANGDIR
 70
0
  9
$PDMODE
 70
0
  9
$PDSIZE
 40
0.0
  9
$PLINEWID
 40
0.0
  9
$SPLFRAME
 70
0
  9
$SPLINETYPE
 70
6
  9
$SPLINESEGS
 70
8
  9
$HANDSEED
  5
AB
  9
$SURFTAB1
 70
6
  9
$SURFTAB2
 70
6
  9
$SURFTYPE
 70
6
  9
$SURFU
 70
6
  9
$SURFV
 70
6
  9
$UCSBASE
  2

  9
$UCSNAME
  2

  9
$UCSORG
 10
0.0
 20
0.0
 30
0.0
  9
$UCSXDIR
 10
1.0
 20
0.0
 30
0.0
  9
$UCSYDIR
 10
0.0
 20
1.0
 30
0.0
  9
$UCSORTHOREF
  2

  9
$UCSORTHOVIEW
 70
0
  9
$UCSORGTOP
 10
0.0
 20
0.0
 30
0.0
  9
$UCSORGBOTTOM
 10
0.0
 20
0.0
 30
0.0
  9
$UCSORGLEFT
 10
0.0
 20
0.0
 30
0.0
  9
$UCSORGRIGHT
 10
0.0
 20
0.0
 30
0.0
  9
$UCSORGFRONT
 10
0.0
 20
0.0
 30
0.0
  9
$UCSORGBACK
 10
0.0
 20
0.0
 30
0.0
  9
$PUCSBASE
  2

  9
$PUCSNAME
  2

  9
$PUCSORG
 10
0.0
 20
0.0
 30
0.0
  9
$PUCSXDIR
 10
1.0
 20
0.0
 30
0.0
  9
$PUCSYDIR
 10
0.0
 20
1.0
 30
0.0
  9
$PUCSORTHOREF
  2

  9
$PUCSORTHOVIEW
 70
0
  9
$PUCSORGTOP
 10
0.0
 20
0.0
 30
0.0
  9
$PUCSORGBOTTOM
 10
0.0
 20
0.0
 30
0.0
  9
$PUCSORGLEFT
 10
0.0
 20
0.0
 30
0.0
  9
$PUCSORGRIGHT
 10
0.0
 20
0.0
 30
0.0
  9
$PUCSORGFRONT
 10
0.0
 20
0.0
 30
0.0
  9
$PUCSORGBACK
 10
0.0
 20
0.0
 30
0.0
  9
$USERI1
 70
0
  9
$USERI2
 70
0
  9
$USERI3
 70
0
  9
$USERI4
 70
0
  9
$USERI5
 70
0
  9
$USERR1
 40
0.0
  9
$USERR2
 40
0.0
  9
$USERR3
 40
0.0
  9
$USERR4
 40
0.0
  9
$USERR5
 40
0.0
  9
$WORLDVIEW
 70
1
  9
$SHADEDGE
 70
3
  9
$SHADEDIF
 70
70
  9
$TILEMODE
 70
1
  9
$MAXACTVP
 70
64
  9
$PINSBASE
 10
0.0
 20
0.0
 30
0.0
  9
$PLIMCHECK
 70
0
  9
$PEXTMIN
 10
1e+20
 20
1e+20
 30
1e+20
  9
$PEXTMAX
 10
-1e+20
 20
-1e+20
 30
-1e+20
  9
$PLIMMIN
 10
0.0
 20
0.0
  9
$PLIMMAX
 10
420.0
 20
297.0
  9
$UNITMODE
 70
0
  9
$VISRETAIN
 70
1
  9
$PLINEGEN
 70
0
  9
$PSLTSCALE
 70
1
  9
$TREEDEPTH
 70
3020
  9
$CMLSTYLE
  2
Standard
  9
$CMLJUST
 70
0
  9
$CMLSCALE
 40
20.0
  9
$PROXYGRAPHICS
 70
1
  9
$MEASUREMENT
 70
1
  9
$CELWEIGHT
370
-1
  9
$ENDCAPS
280
0
  9
$JOINSTYLE
280
0
  9
$LWDISPLAY
290
0
  9
$INSUNITS
 70
6
  9
$HYPERLINKBASE
  1

  9
$STYLESHEET
  1

  9
$XEDIT
290
1
  9
$CEPSNTYPE
380
0
  9
$PSTYLEMODE
290
1
  9
$FINGERPRINTGUID
  2
{962C0C4E-21E6-4330-B70B-D3A3058E8402}
  9
$VERSIONGUID
  2
{0BB31864-D0A2-4EFF-A599-3FDDEB6C033F}
  9
$EXTNAMES
290
1
  9
$PSVPSCALE
 40
0.0
  9
$OLESTARTUP
290
0
  9
$SORTENTS
280
127
  9
$INDEXCTL
280
0
  9
$HIDETEXT
280
1
  9
$XCLIPFRAME
290
1
  9
$HALOGAP
280
0
  9
$OBSCOLOR
 70
257
  9
$OBSLTYPE
280
0
  9
$INTERSECTIONDISPLAY
280
0
  9
$INTERSECTIONCOLOR
 70
257
  9
$DIMASSOC
280
2
  9
$PROJECTNAME
  1

  9
$CAMERADISPLAY
290
0
  9
$LENSLENGTH
 40
50.0
  9
$CAMERAHEIGHT
 40
0.0
  9
$STEPSPERSEC
 40
24.0
  9
$STEPSIZE
 40
100.0
  9
$3DDWFPREC
 40
2.0
  9
$PSOLWIDTH
 40
0.005
  9
$PSOLHEIGHT
 40
0.08
  9
$LOFTANG1
 40
1.570796326795
  9
$LOFTANG2
 40
1.570796326795
  9
$LOFTMAG1
 40
0.0
  9
$LOFTMAG2
 40
0.0
  9
$LOFTPARAM
 70
7
  9
$LOFTNORMALS
280
1
  9
$LATITUDE
 40
37.795
  9
$LONGITUDE
 40
-122.394
  9
$NORTHDIRECTION
 40
0.0
  9
$TIMEZONE
 70
-8000
  9
$LIGHTGLYPHDISPLAY
280
1
  9
$TILEMODELIGHTSYNCH
280
1
  9
$CMATERIAL
347
20
  9
$SOLIDHIST
280
0
  9
$SHOWHIST
280
1
  9
$DWFFRAME
280
2
  9
$DGNFRAME
280
2
  9
$REALWORLDSCALE
290
1
  9
$INTERFERECOLOR
 62
256
  9
$CSHADOW
280
0
  9
$SHADOWPLANELOCATION
 40
0.0
  0
ENDSEC
  0
SECTION
  2
CLASSES
  0
CLASS
  1
ACDBDICTIONARYWDFLT
  2
AcDbDictionaryWithDefault
  3
ObjectDBX Classes
 90
0
 91
0
280
0
281
0
  0
CLASS
  1
SUN
  2
AcDbSun
  3
SCENEOE
 90
1153
 91
0
280
0
281
0
  0
CLASS
  1
VISUALSTYLE
  2
AcDbVisualStyle
  3
ObjectDBX Classes
 90
4095
 91
0
280
0
281
0
  0
CLASS
  1
MATERIAL
  2
AcDbMaterial
  3
ObjectDBX Classes
 90
1153
 91
0
280
0
281
0
  0
CLASS
  1
SCALE
  2
AcDbScale
  3
ObjectDBX Classes
 90
1153
 91
0
280
0
281
0
  0
CLASS
  1
TABLESTYLE
  2
AcDbTableStyle
  3
ObjectDBX Classes
 90
4095
 91
0
280
0
281
0
  0
CLASS
  1
MLEADERSTYLE
  2
AcDbMLeaderStyle
  3
ACDB_MLEADERSTYLE_CLASS
 90
4095
 91
0
280
0
281
0
  0
CLASS
  1
DICTIONARYVAR
  2
AcDbDictionaryVar
  3
ObjectDBX Classes
 90
0
 91
0
280
0
281
0
  0
CLASS
  1
CELLSTYLEMAP
  2
AcDbCellStyleMap
  3
ObjectDBX Classes
 90
1152
 91
0
280
0
281
0
  0
CLASS
  1
MENTALRAYRENDERSETTINGS
  2
AcDbMentalRayRenderSettings
  3
SCENEOE
 90
1024
 91
0
280
0
281
0
  0
CLASS
  1
ACDBDETAILVIEWSTYLE
  2
AcDbDetailViewStyle
  3
ObjectDBX Classes
 90
1025
 91
0
280
0
281
0
  0
CLASS
  1
ACDBSECTIONVIEWSTYLE
  2
AcDbSectionViewStyle
  3
ObjectDBX Classes
 90
1025
 91
0
280
0
281
0
  0
CLASS
  1
RASTERVARIABLES
  2
AcDbRasterVariables
  3
ISM
 90
0
 91
0
280
0
281
0
  0
CLASS
  1
ACDBPLACEHOLDER
  2
AcDbPlaceHolder
  3
ObjectDBX Classes
 90
0
 91
0
280
0
281
0
  0
CLASS
  1
LAYOUT
  2
AcDbLayout
  3
ObjectDBX Classes
 90
0
 91
0
280
0
281
0
  0
ENDSEC
  0
SECTION
  2
TABLES
  0
TABLE
  2
VPORT
  5
8
330
0
100
AcDbSymbolTable
 70
1
  0
VPORT
  5
23
330
8
100
AcDbSymbolTableRecord
100
AcDbViewportTableRecord
  2
*Active
 70
0
 10
0.0
 20
0.0
 11
1.0
 21
1.0
 12
0.0
 22
0.0
 13
0.0
 23
0.0
 14
0.5
 24
0.5
 15
0.5
 25
0.5
 16
0.0
 26
0.0
 36
1.0
 17
0.0
 27
0.0
 37
0.0
 40
1000.0
 41
1.34
 42
50.0
 43
0.0
 44
0.0
 50
0.0
 51
0.0
 71
0
 72
1000
 73
1
 74
3
 75
0
 76
0
 77
0
 78
0
281
0
 65
0
146
0.0
  0
ENDTAB
  0
TABLE
  2
LTYPE
  5
2
330
0
100
AcDbSymbolTable
 70
21
  0
LTYPE
  5
24
330
2
100
AcDbSymbolTableRecord
100
AcDbLinetypeTableRecord
  2
ByBlock
 70
0
  3

 72
65
 73
0
 40
0.0
  0
LTYPE
  5
25
330
2
100
AcDbSymbolTableRecord
100
AcDbLinetypeTableRecord
  2
ByLayer
 70
0
  3

 72
65
 73
0
 40
0.0
  0
LTYPE
  5
26
330
2
100
AcDbSymbolTableRecord
100
AcDbLinetypeTableRecord
  2
Continuous
 70
0
  3

 72
65
 73
0
 40
0.0
  0
LTYPE
  5
2F
330
2
100
AcDbSymbolTableRecord
100
AcDbLinetypeTableRecord
  2
CENTER
 70
0
  3
Center ____ _ ____ _ ____ _ ____ _ ____ _ ____
 72
65
 73
4
 40
5.08
 49
3.175
 74
0
 49
-0.635
 74
0
 49
0.635
 74
0
 49
-0.635
 74
0
  0
LTYPE
  5
30
330
2
100
AcDbSymbolTableRecord
100
AcDbLinetypeTableRecord
  2
CENTERX2
 70
0
  3
Center (2x) ________  __  ________  __  ________
 72
65
 73
4
 40
8.89
 49
6.35
 74
0
 49
-0.635
 74
0
 49
1.27
 74
0
 49
-0.635
 74
0
  0
LTYPE
  5
31
330
2
100
AcDbSymbolTableRecord
100
AcDbLinetypeTableRecord
  2
CENTER2
 70
0
  3
Center (.5x) ____ _ ____ _ ____ _ ____ _ ____
 72
65
 73
4
 40
2.54
 49
1.587
 74
0
 49
-0.318
 74
0
 49
0.318
 74
0
 49
-0.318
 74
0
  0
LTYPE
  5
32
330
2
100
AcDbSymbolTableRecord
100
AcDbLinetypeTableRecord
  2
DASHED
 70
0
  3
Dashed __ __ __ __ __ __ __ __ __ __ __ __ __ _
 72
65
 73
2
 40
1.524
 49
1.27
 74
0
 49
-0.254
 74
0
  0
LTYPE
  5
33
330
2
100
AcDbSymbolTableRecord
100
AcDbLinetypeTableRecord
  2
DASHEDX2
 70
0
  3
Dashed (2x) ____  ____  ____  ____  ____  ____
 72
65
 73
2
 40
3.048
 49
2.54
 74
0
 49
-0.508
 74
0
  0
LTYPE
  5
34
330
2
100
AcDbSymbolTableRecord
100
AcDbLinetypeTableRecord
  2
DASHED2
 70
0
  3
Dashed (.5x) _ _ _ _ _ _ _ _ _ _ _ _ _ _
 72
65
 73
2
 40
0.762
 49
0.635
 74
0
 49
-0.127
 74
0
  0
LTYPE
  5
35
330
2
100
AcDbSymbolTableRecord
100
AcDbLinetypeTableRecord
  2
PHANTOM
 70
0
  3
Phantom ______  __  __  ______  __  __  ______
 72
65
 73
6
 40
6.35
 49
3.175
 74
0
 49
-0.635
 74
0
 49
0.635
 74
0
 49
-0.635
 74
0
 49
0.635
 74
0
 49
-0.635
 74
0
  0
LTYPE
  5
36
330
2
100
AcDbSymbolTableRecord
100
AcDbLinetypeTableRecord
  2
PHANTOMX2
 70
0
  3
Phantom (2x)____________    ____    ____    ____________
 72
65
 73
6
 40
10.795
 49
6.35
 74
0
 49
-0.635
 74
0
 49
1.27
 74
0
 49
-0.635
 74
0
 49
1.27
 74
0
 49
-0.635
 74
0
  0
LTYPE
  5
37
330
2
100
AcDbSymbolTableRecord
100
AcDbLinetypeTableRecord
  2
PHANTOM2
 70
0
  3
Phantom (.5x) ___ _ _ ___ _ _ ___ _ _ ___ _ _ ___
 72
65
 73
6
 40
3.175
 49
1.587
 74
0
 49
-0.318
 74
0
 49
0.318
 74
0
 49
-0.318
 74
0
 49
0.318
 74
0
 49
-0.318
 74
0
  0
LTYPE
  5
38
330
2
100
AcDbSymbolTableRecord
100
AcDbLinetypeTableRecord
  2
DASHDOT
 70
0
  3
Dash dot __ . __ . __ . __ . __ . __ . __ . __
 72
65
 73
4
 40
3.556
 49
2.54
 74
0
 49
-0.508
 74
0
 49
0.0
 74
0
 49
-0.508
 74
0
  0
LTYPE
  5
39
330
2
100
AcDbSymbolTableRecord
100
AcDbLinetypeTableRecord
  2
DASHDOTX2
 70
0
  3
Dash dot (2x) ____  .  ____  .  ____  .  ____
 72
65
 73
4
 40
6.096
 49
5.08
 74
0
 49
-0.508
 74
0
 49
0.0
 74
0
 49
-0.508
 74
0
  0
LTYPE
  5
3A
330
2
100
AcDbSymbolTableRecord
100
AcDbLinetypeTableRecord
  2
DASHDOT2
 70
0
  3
Dash dot (.5x) _ . _ . _ . _ . _ . _ . _ . _
 72
65
 73
4
 40
1.778
 49
1.27
 74
0
 49
-0.254
 74
0
 49
0.0
 74
0
 49
-0.254
 74
0
  0
LTYPE
  5
3B
330
2
100
AcDbSymbolTableRecord
100
AcDbLinetypeTableRecord
  2
DOT
 70
0
  3
Dot .  .  .  .  .  .  .  .  .  .  .  .  .  .  .  .
 72
65
 73
2
 40
0.508
 49
0.0
 74
0
 49
-0.508
 74
0
  0
LTYPE
  5
3C
330
2
100
AcDbSymbolTableRecord
100
AcDbLinetypeTableRecord
  2
DOTX2
 70
0
  3
Dot (2x) .    .    .    .    .    .    .    . 
 72
65
 73
2
 40
1.016
 49
0.0
 74
0
 49
-1.016
 74
0
  0
LTYPE
  5
3D
330
2
100
AcDbSymbolTableRecord
100
AcDbLinetypeTableRecord
  2
DOT2
 70
0
  3
Dot (.5) . . . . . . . . . . . . . . . . . . . 
 72
65
 73
2
 40
0.254
 49
0.0
 74
0
 49
-0.254
 74
0
  0
LTYPE
  5
3E
330
2
100
AcDbSymbolTableRecord
100
AcDbLinetypeTableRecord
  2
DIVIDE
 70
0
  3
Divide __ . . __ . . __ . . __ . . __ . . __
 72
65
 73
6
 40
4.064
 49
2.54
 74
0
 49
-0.508
 74
0
 49
0.0
 74
0
 49
-0.508
 74
0
 49
0.0
 74
0
 49
-0.508
 74
0
  0
LTYPE
  5
3F
330
2
100
AcDbSymbolTableRecord
100
AcDbLinetypeTableRecord
  2
DIVIDEX2
 70
0
  3
Divide (2x) ____  . .  ____  . .  ____  . .  ____
 72
65
 73
6
 40
6.604
 49
5.08
 74
0
 49
-0.508
 74
0
 49
0.0
 74
0
 49
-0.508
 74
0
 49
0.0
 74
0
 49
-0.508
 74
0
  0
LTYPE
  5
40
330
2
100
AcDbSymbolTableRecord
100
AcDbLinetypeTableRecord
  2
DIVIDE2
 70
0
  3
Divide(.5x) _ . _ . _ . _ . _ . _ . _ . _
 72
65
 73
6
 40
2.032
 49
1.27
 74
0
 49
-0.254
 74
0
 49
0.0
 74
0
 49
-0.254
 74
0
 49
0.0
 74
0
 49
-0.254
 74
0
  0
ENDTAB
  0
TABLE
  2
LAYER
  5
1
330
0
100
AcDbSymbolTable
 70
4
  0
LAYER
  5
27
330
1
100
AcDbSymbolTableRecord
100
AcDbLayerTableRecord
  2
0
 70
0
 62
7
  6
Continuous
370
-3
390
13
347
21
  0
LAYER
  5
28
330
1
100
AcDbSymbolTableRecord
100
AcDbLayerTableRecord
  2
Defpoints
 70
0
 62
7
  6
Continuous
290
0
370
-3
390
13
347
21
  0
LAYER
  5
8A
330
1
100
AcDbSymbolTableRecord
100
AcDbLayerTableRecord
  2
Layer
 70
0
 62
1
  6
Continuous
370
50
390
13
347
21
  0
LAYER
  5
8B
330
1
100
AcDbSymbolTableRecord
100
AcDbLayerTableRecord
  2
NumLabel
 70
0
 62
1
  6
Continuous
370
15
390
13
347
21
  0
ENDTAB
  0
TABLE
  2
STYLE
  5
5
330
0
100
AcDbSymbolTable
 70
26
  0
STYLE
  5
29
330
5
100
AcDbSymbolTableRecord
100
AcDbTextStyleTableRecord
  2
Standard
 70
0
 40
0.0
 41
1.0
 50
0.0
 71
0
 42
2.5
  3
txt
  4

  0
STYLE
  5
41
330
5
100
AcDbSymbolTableRecord
100
AcDbTextStyleTableRecord
  2
OpenSans-Light
 70
0
 40
0.0
 41
1.0
 50
0.0
 71
0
 42
2.5
  3
OpenSans-Light.ttf
  4

  0
STYLE
  5
42
330
5
100
AcDbSymbolTableRecord
100
AcDbTextStyleTableRecord
  2
OpenSans-Light-Italic
 70
0
 40
0.0
 41
1.0
 50
0.0
 71
0
 42
2.5
  3
OpenSans-LightItalic.ttf
  4

  0
STYLE
  5
43
330
5
100
AcDbSymbolTableRecord
100
AcDbTextStyleTableRecord
  2
OpenSans
 70
0
 40
0.0
 41
1.0
 50
0.0
 71
0
 42
2.5
  3
OpenSans-Regular.ttf
  4

  0
STYLE
  5
44
330
5
100
AcDbSymbolTableRecord
100
AcDbTextStyleTableRecord
  2
OpenSans-Italic
 70
0
 40
0.0
 41
1.0
 50
0.0
 71
0
 42
2.5
  3
OpenSans-Italic.ttf
  4

  0
STYLE
  5
45
330
5
100
AcDbSymbolTableRecord
100
AcDbTextStyleTableRecord
  2
OpenSans-SemiBold
 70
0
 40
0.0
 41
1.0
 50
0.0
 71
0
 42
2.5
  3
OpenSans-SemiBold.ttf
  4

  0
STYLE
  5
46
330
5
100
AcDbSymbolTableRecord
100
AcDbTextStyleTableRecord
  2
OpenSans-SemiBoldItalic
 70
0
 40
0.0
 41
1.0
 50
0.0
 71
0
 42
2.5
  3
OpenSans-SemiBoldItalic.ttf
  4

  0
STYLE
  5
47
330
5
100
AcDbSymbolTableRecord
100
AcDbTextStyleTableRecord
  2
OpenSans-Bold
 70
0
 40
0.0
 41
1.0
 50
0.0
 71
0
 42
2.5
  3
OpenSans-Bold.ttf
  4

  0
STYLE
  5
48
330
5
100
AcDbSymbolTableRecord
100
AcDbTextStyleTableRecord
  2
OpenSans-BoldItalic
 70
0
 40
0.0
 41
1.0
 50
0.0
 71
0
 42
2.5
  3
OpenSans-BoldItalic.ttf
  4

  0
STYLE
  5
49
330
5
100
AcDbSymbolTableRecord
100
AcDbTextStyleTableRecord
  2
OpenSans-ExtraBold
 70
0
 40
0.0
 41
1.0
 50
0.0
 71
0
 42
2.5
  3
OpenSans-ExtraBold.ttf
  4

  0
STYLE
  5
4A
330
5
100
AcDbSymbolTableRecord
100
AcDbTextStyleTableRecord
  2
OpenSans-ExtraBoldItalic
 70
0
 40
0.0
 41
1.0
 50
0.0
 71
0
 42
2.5
  3
OpenSans-ExtraBoldItalic.ttf
  4

  0
STYLE
  5
4B
330
5
100
AcDbSymbolTableRecord
100
AcDbTextStyleTableRecord
  2
OpenSansCondensed-Bold
 70
0
 40
0.0
 41
1.0
 50
0.0
 71
0
 42
2.5
  3
OpenSansCondensed-Bold.ttf
  4

  0
STYLE
  5
4C
330
5
100
AcDbSymbolTableRecord
100
AcDbTextStyleTableRecord
  2
OpenSansCondensed-Light
 70
0
 40
0.0
 41
1.0
 50
0.0
 71
0
 42
2.5
  3
OpenSansCondensed-Light.ttf
  4

  0
STYLE
  5
4D
330
5
100
AcDbSymbolTableRecord
100
AcDbTextStyleTableRecord
  2
OpenSansCondensed-Italic
 70
0
 40
0.0
 41
1.0
 50
0.0
 71
0
 42
2.5
  3
OpenSansCondensed-LightItalic.ttf
  4

  0
STYLE
  5
4E
330
5
100
AcDbSymbolTableRecord
100
AcDbTextStyleTableRecord
  2
LiberationSans
 70
0
 40
0.0
 41
1.0
 50
0.0
 71
0
 42
2.5
  3
LiberationSans-Regular.ttf
  4

  0
STYLE
  5
4F
330
5
100
AcDbSymbolTableRecord
100
AcDbTextStyleTableRecord
  2
LiberationSans-Bold
 70
0
 40
0.0
 41
1.0
 50
0.0
 71
0
 42
2.5
  3
LiberationSans-Bold.ttf
  4

  0
STYLE
  5
50
330
5
100
AcDbSymbolTableRecord
100
AcDbTextStyleTableRecord
  2
LiberationSans-BoldItalic
 70
0
 40
0.0
 41
1.0
 50
0.0
 71
0
 42
2.5
  3
LiberationSans-BoldItalic.ttf
  4

  0
STYLE
  5
51
330
5
100
AcDbSymbolTableRecord
100
AcDbTextStyleTableRecord
  2
LiberationSans-Italic
 70
0
 40
0.0
 41
1.0
 50
0.0
 71
0
 42
2.5
  3
LiberationSans-Italic.ttf
  4

  0
STYLE
  5
52
330
5
100
AcDbSymbolTableRecord
100
AcDbTextStyleTableRecord
  2
LiberationSerif
 70
0
 40
0.0
 41
1.0
 50
0.0
 71
0
 42
2.5
  3
LiberationSerif-Regular.ttf
  4

  0
STYLE
  5
53
330
5
100
AcDbSymbolTableRecord
100
AcDbTextStyleTableRecord
  2
LiberationSerif-Bold
 70
0
 40
0.0
 41
1.0
 50
0.0
 71
0
 42
2.5
  3
LiberationSerif-Bold.ttf
  4

  0
STYLE
  5
54
330
5
100
AcDbSymbolTableRecord
100
AcDbTextStyleTableRecord
  2
LiberationSerif-BoldItalic
 70
0
 40
0.0
 41
1.0
 50
0.0
 71
0
 42
2.5
  3
LiberationSerif-BoldItalic.ttf
  4

  0
STYLE
  5
55
330
5
100
AcDbSymbolTableRecord
100
AcDbTextStyleTableRecord
  2
LiberationSerif-Italic
 70
0
 40
0.0
 41
1.0
 50
0.0
 71
0
 42
2.5
  3
LiberationSerif-Italic.ttf
  4

  0
STYLE
  5
56
330
5
100
AcDbSymbolTableRecord
100
AcDbTextStyleTableRecord
  2
LiberationMono
 70
0
 40
0.0
 41
1.0
 50
0.0
 71
0
 42
2.5
  3
LiberationMono-Regular.ttf
  4

  0
STYLE
  5
57
330
5
100
AcDbSymbolTableRecord
100
AcDbTextStyleTableRecord
  2
LiberationMono-Bold
 70
0
 40
0.0
 41
1.0
 50
0.0
 71
0
 42
2.5
  3
LiberationMono-Bold.ttf
  4

  0
STYLE
  5
58
330
5
100
AcDbSymbolTableRecord
100
AcDbTextStyleTableRecord
  2
LiberationMono-BoldItalic
 70
0
 40
0.0
 41
1.0
 50
0.0
 71
0
 42
2.5
  3
LiberationMono-BoldItalic.ttf
  4

  0
STYLE
  5
59
330
5
100
AcDbSymbolTableRecord
100
AcDbTextStyleTableRecord
  2
LiberationMono-Italic
 70
0
 40
0.0
 41
1.0
 50
0.0
 71
0
 42
2.5
  3
LiberationMono-Italic.ttf
  4

  0
ENDTAB
  0
TABLE
  2
VIEW
  5
7
330
0
100
AcDbSymbolTable
 70
0
  0
ENDTAB
  0
TABLE
  2
UCS
  5
6
330
0
100
AcDbSymbolTable
 70
0
  0
ENDTAB
  0
TABLE
  2
APPID
  5
3
330
0
100
AcDbSymbolTable
 70
3
  0
APPID
  5
2A
330
3
100
AcDbSymbolTableRecord
100
AcDbRegAppTableRecord
  2
ACAD
 70
0
  0
APPID
  5
A8
330
3
100
AcDbSymbolTableRecord
100
AcDbRegAppTableRecord
  2
HATCHBACKGROUNDCOLOR
 70
0
  0
APPID
  5
A9
330
3
100
AcDbSymbolTableRecord
100
AcDbRegAppTableRecord
  2
EZDXF
 70
0
  0
ENDTAB
  0
TABLE
  2
DIMSTYLE
  5
4
330
0
100
AcDbSymbolTable
 70
12
100
AcDbDimStyleTable
  0
DIMSTYLE
105
2B
330
4
100
AcDbSymbolTableRecord
100
AcDbDimStyleTableRecord
  2
Standard
 70
0
 40
1.0
 41
2.5
 42
0.625
 43
3.75
 44
1.25
 45
0.0
 46
0.0
 47
0.0
 48
0.0
 49
2.5
140
2.5
141
2.5
142
0.0
143
0.03937007874
144
1.0
145
0.0
146
1.0
147
0.625
148
0.0
 69
0
 70
0
 71
0
 72
0
 73
0
 74
0
 75
0
 76
0
 77
1
 78
8
 79
3
170
0
171
3
172
1
173
0
174
0
175
0
176
0
177
0
178
0
179
2
271
2
272
2
273
2
274
3
275
0
276
0
277
2
278
44
279
0
280
0
281
0
282
0
283
0
284
8
285
0
286
0
288
0
289
3
290
0
371
-2
372
-2
  0
DIMSTYLE
105
73
330
4
100
AcDbSymbolTableRecord
100
AcDbDimStyleTableRecord
  2
EZDXF
 70
0
 40
1.0
 41
0.175
 42
0.125
 43
3.75
 44
0.375
 45
0.0
 46
0.0
 47
0.0
 48
0.0
 49
2.5
140
0.25
141
2.5
142
0.0
143
0.03937007874
144
100.0
145
0.0
146
0.5
147
0.1
148
0.0
 69
0
 70
0
 71
0
 72
0
 73
0
 74
0
 75
0
 76
0
 77
1
 78
12
 79
3
170
0
171
3
172
1
173
0
174
0
175
0
176
0
177
0
178
0
179
2
271
2
272
2
273
2
274
3
275
0
276
0
277
2
278
46
279
2
280
0
281
0
282
0
283
0
284
8
285
0
286
0
288
1
289
3
290
0
340
4C
342
74
371
-2
372
-2
  0
DIMSTYLE
105
7C
330
4
100
AcDbSymbolTableRecord
100
AcDbDimStyleTableRecord
  2
EZ_M_100_H25_CM
 70
0
 40
1.0
 41
0.25
 42
0.125
 43
3.75
 44
0.375
 45
0.0
 46
0.0
 47
0.0
 48
0.0
 49
2.5
140
0.25
141
2.5
142
0.125
143
0.03937007874
144
100.0
145
0.0
146
0.5
147
0.1
148
0.0
 69
0
 70
0
 71
0
 72
0
 73
0
 74
0
 75
0
 76
0
 77
1
 78
12
 79
3
170
0
171
3
172
1
173
0
174
0
175
0
176
0
177
0
178
0
179
2
271
2
272
2
273
2
274
3
275
0
276
0
277
2
278
46
279
2
280
0
281
0
282
0
283
0
284
8
285
0
286
0
288
1
289
3
290
0
340
4C
371
-2
372
-2
  0
DIMSTYLE
105
7D
330
4
100
AcDbSymbolTableRecord
100
AcDbDimStyleTableRecord
  2
EZ_M_50_H25_CM
 70
0
 40
1.0
 41
0.125
 42
0.0625
 43
3.75
 44
0.1875
 45
0.0
 46
0.0
 47
0.0
 48
0.0
 49
2.5
140
0.125
141
2.5
142
0.0625
143
0.03937007874
144
100.0
145
0.0
146
0.5
147
0.05
148
0.0
 69
0
 70
0
 71
0
 72
0
 73
0
 74
0
 75
0
 76
0
 77
1
 78
12
 79
3
170
0
171
3
172
1
173
0
174
0
175
0
176
0
177
0
178
0
179
2
271
2
272
2
273
2
274
3
275
0
276
0
277
2
278
46
279
2
280
0
281
0
282
0
283
0
284
8
285
0
286
0
288
1
289
3
290
0
340
4C
371
-2
372
-2
  0
DIMSTYLE
105
7E
330
4
100
AcDbSymbolTableRecord
100
AcDbDimStyleTableRecord
  2
EZ_M_25_H25_CM
 70
0
 40
1.0
 41
0.0625
 42
0.03125
 43
3.75
 44
0.09375
 45
0.0
 46
0.0
 47
0.0
 48
0.0
 49
2.5
140
0.0625
141
2.5
142
0.03125
143
0.03937007874
144
100.0
145
0.0
146
0.5
147
0.025
148
0.0
 69
0
 70
0
 71
0
 72
0
 73
0
 74
0
 75
0
 76
0
 77
1
 78
12
 79
3
170
0
171
3
172
1
173
0
174
0
175
0
176
0
177
0
178
0
179
2
271
2
272
2
273
2
274
3
275
0
276
0
277
2
278
46
279
2
280
0
281
0
282
0
283
0
284
8
285
0
286
0
288
1
289
3
290
0
340
4C
371
-2
372
-2
  0
DIMSTYLE
105
7F
330
4
100
AcDbSymbolTableRecord
100
AcDbDimStyleTableRecord
  2
EZ_M_20_H25_CM
 70
0
 40
1.0
 41
0.05
 42
0.025
 43
3.75
 44
0.07500000000000001
 45
0.0
 46
0.0
 47
0.0
 48
0.0
 49
2.5
140
0.05
141
2.5
142
0.025
143
0.03937007874
144
100.0
145
0.0
146
0.5
147
0.020000000000000004
148
0.0
 69
0
 70
0
 71
0
 72
0
 73
0
 74
0
 75
0
 76
0
 77
1
 78
12
 79
3
170
0
171
3
172
1
173
0
174
0
175
0
176
0
177
0
178
0
179
2
271
2
272
2
273
2
274
3
275
0
276
0
277
2
278
46
279
2
280
0
281
0
282
0
283
0
284
8
285
0
286
0
288
1
289
3
290
0
340
4C
371
-2
372
-2
  0
DIMSTYLE
105
80
330
4
100
AcDbSymbolTableRecord
100
AcDbDimStyleTableRecord
  2
EZ_M_10_H25_CM
 70
0
 40
1.0
 41
0.025
 42
0.0125
 43
3.75
 44
0.037500000000000006
 45
0.0
 46
0.0
 47
0.0
 48
0.0
 49
2.5
140
0.025
141
2.5
142
0.0125
143
0.03937007874
144
100.0
145
0.0
146
0.5
147
0.010000000000000002
148
0.0
 69
0
 70
0
 71
0
 72
0
 73
0
 74
0
 75
0
 76
0
 77
1
 78
12
 79
3
170
0
171
3
172
1
173
0
174
0
175
0
176
0
177
0
178
0
179
2
271
2
272
2
273
2
274
3
275
0
276
0
277
2
278
46
279
2
280
0
281
0
282
0
283
0
284
8
285
0
286
0
288
1
289
3
290
0
340
4C
371
-2
372
-2
  0
DIMSTYLE
105
81
330
4
100
AcDbSymbolTableRecord
100
AcDbDimStyleTableRecord
  2
EZ_M_5_H25_CM
 70
0
 40
1.0
 41
0.0125
 42
0.00625
 43
3.75
 44
0.018750000000000003
 45
0.0
 46
0.0
 47
0.0
 48
0.0
 49
2.5
140
0.0125
141
2.5
142
0.00625
143
0.03937007874
144
100.0
145
0.0
146
0.5
147
0.005000000000000001
148
0.0
 69
0
 70
0
 71
0
 72
0
 73
0
 74
0
 75
0
 76
0
 77
1
 78
12
 79
3
170
0
171
3
172
1
173
0
174
0
175
0
176
0
177
0
178
0
179
2
271
2
272
2
273
2
274
3
275
0
276
0
277
2
278
46
279
2
280
0
281
0
282
0
283
0
284
8
285
0
286
0
288
1
289
3
290
0
340
4C
371
-2
372
-2
  0
DIMSTYLE
105
82
330
4
100
AcDbSymbolTableRecord
100
AcDbDimStyleTableRecord
  2
EZ_M_1_H25_CM
 70
0
 40
1.0
 41
0.0025
 42
0.00125
 43
3.75
 44
0.00375
 45
0.0
 46
0.0
 47
0.0
 48
0.0
 49
2.5
140
0.0025
141
2.5
142
0.00125
143
0.03937007874
144
100.0
145
0.0
146
0.5
147
0.001
148
0.0
 69
0
 70
0
 71
0
 72
0
 73
0
 74
0
 75
0
 76
0
 77
1
 78
12
 79
3
170
0
171
3
172
1
173
0
174
0
175
0
176
0
177
0
178
0
179
2
271
2
272
2
273
2
274
3
275
0
276
0
277
2
278
46
279
2
280
0
281
0
282
0
283
0
284
8
285
0
286
0
288
1
289
3
290
0
340
4C
371
-2
372
-2
  0
DIMSTYLE
105
83
330
4
100
AcDbSymbolTableRecord
100
AcDbDimStyleTableRecord
  2
EZ_RADIUS
 70
0
 40
1.0
 41
0.25
 42
0.125
 43
3.75
 44
0.375
 45
0.0
 46
0.0
 47
0.0
 48
0.0
 49
2.5
140
0.25
141
0.0
142
0.0
143
0.03937007874
144
100.0
145
0.0
146
0.5
147
0.1
148
0.0
 69
0
 70
0
 71
0
 72
0
 73
0
 74
0
 75
0
 76
0
 77
1
 78
12
 79
3
170
0
171
3
172
0
173
0
174
0
175
0
176
0
177
0
178
0
179
2
271
2
272
2
273
2
274
3
275
0
276
0
277
2
278
46
279
1
280
0
281
0
282
0
283
0
284
8
285
0
286
0
288
1
289
3
290
0
340
4C
342
84
371
-2
372
-2
  0
DIMSTYLE
105
88
330
4
100
AcDbSymbolTableRecord
100
AcDbDimStyleTableRecord
  2
EZ_RADIUS_INSIDE
 70
0
 40
1.0
 41
0.25
 42
0.125
 43
3.75
 44
0.375
 45
0.0
 46
0.0
 47
0.0
 48
0.0
 49
2.5
140
0.25
141
0.0
142
0.0
143
0.03937007874
144
100.0
145
0.0
146
0.5
147
0.1
148
0.0
 69
0
 70
0
 71
0
 72
0
 73
0
 74
0
 75
0
 76
0
 77
0
 78
12
 79
3
170
0
171
3
172
0
173
0
174
1
175
0
176
0
177
0
178
0
179
2
271
2
272
2
273
2
274
3
275
0
276
0
277
2
278
46
279
0
280
0
281
0
282
0
283
0
284
8
285
0
286
0
288
1
289
0
290
0
340
4C
342
84
371
-2
372
-2
  0
DIMSTYLE
105
89
330
4
100
AcDbSymbolTableRecord
100
AcDbDimStyleTableRecord
  2
EZ_CURVED
 70
0
 40
1.0
 41
0.25
 42
0.125
 43
3.75
 44
0.375
 45
0.0
 46
0.0
 47
0.0
 48
0.0
 49
2.5
140
0.25
141
2.5
142
0.0
143
0.03937007874
144
100.0
145
0.0
146
0.5
147
0.1
148
0.0
 69
0
 70
0
 71
0
 72
0
 73
0
 74
0
 75
0
 76
0
 77
1
 78
12
 79
2
 90
2
170
0
171
3
172
1
173
0
174
0
175
0
176
0
177
0
178
0
179
2
271
2
272
2
273
2
274
3
275
0
276
0
277
2
278
46
279
2
280
0
281
0
282
0
283
0
284
8
285
0
286
0
288
1
289
3
290
0
340
4C
371
-2
372
-2
  0
ENDTAB
  0
TABLE
  2
BLOCK_RECORD
  5
9
330
0
100
AcDbSymbolTable
 70
5
  0
BLOCK_RECORD
  5
17
330
9
100
AcDbSymbolTableRecord
100
AcDbBlockTableRecord
  2
*Model_Space
340
1A
 70
0
280
1
281
0
  0
BLOCK_RECORD
  5
1B
330
9
100
AcDbSymbolTableRecord
100
AcDbBlockTableRecord
  2
*Paper_Space
340
1E
 70
0
280
1
281
0
  0
BLOCK_RECORD
  5
74
330
9
100
AcDbSymbolTableRecord
100
AcDbBlockTableRecord
  2
_ARCHTICK
340
0
 70
0
280
1
281
0
  0
BLOCK_RECORD
  5
78
330
9
100
AcDbSymbolTableRecord
100
AcDbBlockTableRecord
  2
_CLOSEDFILLED
340
0
 70
0
280
1
281
0
  0
BLOCK_RECORD
  5
84
330
9
100
AcDbSymbolTableRecord
100
AcDbBlockTableRecord
  2
_CLOSEDBLANK
340
0
 70
0
280
1
281
0
  0
ENDTAB
  0
ENDSEC
  0
SECTION
  2
BLOCKS
  0
BLOCK
  5
18
330
17
100
AcDbEntity
  8
0
100
AcDbBlockBegin
  2
*Model_Space
 70
0
 10
0.0
 20
0.0
 30
0.0
  3
*Model_Space
  1

  0
ENDBLK
  5
19
330
17
100
AcDbEntity
  8
0
100
AcDbBlockEnd
  0
BLOCK
  5
1C
330
1B
100
AcDbEntity
  8
0
100
AcDbBlockBegin
  2
*Paper_Space
 70
0
 10
0.0
 20
0.0
 30
0.0
  3
*Paper_Space
  1

  0
ENDBLK
  5
1D
330
1B
100
AcDbEntity
  8
0
100
AcDbBlockEnd
  0
BLOCK
  5
75
330
74
100
AcDbEntity
  8
0
100
AcDbBlockBegin
  2
_ARCHTICK
 70
0
 10
0.0
 20
0.0
 30
0.0
  3
_ARCHTICK
  1

  0
LWPOLYLINE
  5
77
330
74
100
AcDbEntity
  8
0
  6
BYBLOCK
 62
0
100
AcDbPolyline
 90
2
 70
0
 43
0.15
 10
-0.5
 20
-0.5
 10
0.5
 20
0.5
  0
ENDBLK
  5
76
330
74
100
AcDbEntity
  8
0
100
AcDbBlockEnd
  0
BLOCK
  5
79
330
78
100
AcDbEntity
  8
0
100
AcDbBlockBegin
  2
_CLOSEDFILLED
 70
0
 10
0.0
 20
0.0
 30
0.0
  3
_CLOSEDFILLED
  1

  0
SOLID
  5
7B
330
78
100
AcDbEntity
  8
0
  6
BYBLOCK
 62
0
100
AcDbTrace
 10
-1.0
 20
0.16439898372402537
 30
0.0
 11
0.0
 21
0.0
 31
0.0
 12
-1.0
 22
-0.16439898372402537
 32
0.0
 13
-1.0
 23
-0.16439898372402537
 33
0.0
  0
ENDBLK
  5
7A
330
78
100
AcDbEntity
  8
0
100
AcDbBlockEnd
  0
BLOCK
  5
85
330
84
100
AcDbEntity
  8
0
100
AcDbBlockBegin
  2
_CLOSEDBLANK
 70
0
 10
0.0
 20
0.0
 30
0.0
  3
_CLOSEDBLANK
  1

  0
LWPOLYLINE
  5
87
330
84
100
AcDbEntity
  8
0
  6
BYBLOCK
 62
0
100
AcDbPolyline
 90
3
 70
1
 10
-1.0
 20
0.16439898372402537
 10
0.0
 20
0.0
 10
-1.0
 20
-0.16439898372402537
  0
ENDBLK
  5
86
330
84
100
AcDbEntity
  8
0
100
AcDbBlockEnd
  0
ENDSEC
  0
SECTION
  2
ENTITIES
  0
LWPOLYLINE
  5
8C
330
17
100
AcDbEntity
  8
Layer
100
AcDbPolyline
 90
152
 70
1
 10
362.5263156372366
 20
164.27859970553817
 10
362.52631578790823
 20
239.95042866518457
 10
356.02735996302636
 20
240.85250188427494
 10
348.97072297059646
 20
241.77240420547335
 10
341.9014359300156
 20
242.63551628762556
 10
334.82092970036996
 20
243.44341848290304
 10
327.73244787889297
 20
244.19589379385104
 10
320.6367932039316
 20
244.89198137264785
 10
313.53301370421036
 20
245.53181847418662
 10
306.42302070305135
 20
246.11682586668417
 10
299.3118370873975
 20
246.6469605114019
 10
292.2026069113426
 20
247.12068420541954
 10
285.0952958018496
 20
247.53708031093973
 10
277.9912179499551
 20
247.89705321810166
 10
270.8950423461611
 20
248.20045299346287
 10
263.8103623294049
 20
248.44585808840532
 10
256.73703430737066
 20
248.63164110479738
 10
249.67551683703635
 20
248.75833988351403
 10
242.63016873881298
 20
248.8261227619733
 10
235.6047573683942
 20
248.83341910327192
 10
228.59984432500704
 20
248.77847783886787
 10
221.61561170422056
 20
248.66135663230796
 10
214.65651720487062
 20
248.48237561610938
 10
207.7271896144389
 20
248.24006276634992
 10
200.82831296846177
 20
247.93228833212973
 10
193.96099244854653
 20
247.55905242874707
 10
187.13018802451506
 20
247.12074243307404
 10
180.34138751371418
 20
246.61569405570583
 10
173.59565562890967
 20
246.0416516039038
 10
166.89529291304058
 20
245.39906270377432
 10
160.24716182480924
 20
244.68823342100703
 10
153.6565076971806
 20
243.90698083460705
 10
147.12522650315918
 20
243.05376471175538
 10
140.65828076080686
 20
242.12971232596476
 10
134.26393579147586
 20
241.1346677571373
 10
127.94740467053015
 20
240.06697868857506
 10
121.71319468607945
 20
238.9278241456303
 10
115.57441207703579
 20
237.72190637807864
 10
109.54663860961895
 20
236.44995778079743
 10
103.63916214762085
 20
235.11116696044223
 10
97.86247805507156
 20
233.71035936205587
 10
92.23558344636072
 20
232.25443900186386
 10
86.77523180833663
 20
230.7457834033997
 10
81.4929885820417
 20
229.1890033111701
 10
76.40506740848102
 20
227.59540710001332
 10
71.53132426556982
 20
225.9750415359631
 10
66.88492398405953
 20
224.33403688160695
 10
62.47458113449645
 20
222.68321465958206
 10
58.31064023825729
 20
221.0363981393
 10
54.399945256457755
 20
219.40252993902016
 10
50.741088884643915
 20
217.78790525625567
 10
47.328981799480005
 20
216.2017196749827
 10
44.15806930652619
 20
214.65229773018115
 10
41.219549277096974
 20
213.1425524953433
 10
38.500068087554695
 20
211.6724859583191
 10
35.98427018968596
 20
210.24354134351407
 10
33.65820977723672
 20
208.8582194328638
 10
31.509137261987718
 20
207.51622089554337
 10
29.523720587925027
 20
206.21450518408992
 10
27.688582518925642
 20
204.94996544465735
 10
25.990961238535164
 20
203.72061816512124
 10
24.420584220832353
 20
202.52587357408956
 10
22.969041500113406
 20
201.36353418347863
 10
21.62839592399979
 20
200.22941677654177
 10
20.38867565210984
 20
199.1176176642183
 10
19.239035387594868
 20
198.02598522221288
 10
18.16886437876451
 20
196.95504804020516
 10
17.170591260497417
 20
195.9095643232148
 10
16.24042138154772
 20
194.89333683206368
 10
15.379145335276291
 20
193.9096140688475
 10
14.58881759532187
 20
192.95496196756392
 10
13.870961758447038
 20
192.02379236207744
 10
13.224534160556061
 20
191.10800159757358
 10
12.644928315786899
 20
190.19941404227737
 10
12.126218456026663
 20
189.29563760997723
 10
11.662205280160322
 20
188.39780407833462
 10
11.248956535980028
 20
187.51198989072083
 10
10.884883567580516
 20
186.64304710250983
 10
10.57073220267597
 20
185.7952284728895
 10
10.308206742484288
 20
184.96903658550713
 10
10.098502734902695
 20
184.1616246233127
 10
9.941537600773131
 20
183.36984976190504
 10
9.835814662803784
 20
182.59106441879203
 10
9.77546511092288
 20
181.7455461212553
 10
9.76746031887194
 20
181.0589914585908
 10
9.804910551127193
 20
180.29001585110143
 10
9.895460022391717
 20
179.52598108924454
 10
10.045542444384978
 20
178.77015548172417
 10
10.263696598470972
 20
178.02080160382548
 10
10.557780200409468
 20
177.27471305906636
 10
10.931345538074254
 20
176.53112152274562
 10
11.382525567239838
 20
175.79251329950503
 10
11.906098888877182
 20
175.06389239172356
 10
12.498375294624736
 20
174.34996838822224
 10
13.158963426712319
 20
173.65427891691448
 10
13.891407631305412
 20
172.9781016817235
 10
14.699402025013399
 20
172.32124493261315
 10
15.58537278282131
 20
171.682112096946
 10
16.548381723150214
 20
171.05888033591683
 10
17.58747914678139
 20
170.44958562229357
 10
18.70158221942154
 20
169.85337949685874
 10
19.893947959536604
 20
169.26991119838334
 10
21.169461532651553
 20
168.6990634329822
 10
22.53632166145195
 20
168.14008592950088
 10
24.00257733327635
 20
167.59078038754706
 10
25.57616530538229
 20
167.04782452208184
 10
27.26572065088243
 20
166.50756946646538
 10
29.080198892254998
 20
165.96684365106864
 10
31.03176498873154
 20
165.4239168260439
 10
33.135468633991934
 20
164.8779872532645
 10
35.40968526321217
 20
164.32818236699376
 10
37.874092482311596
 20
163.7728324891632
 10
40.550237695046604
 20
163.2103298603971
 10
43.46094797087065
 20
162.64005351137106
 10
46.632015191538926
 20
162.06304914033595
 10
50.09128613302903
 20
161.4810660404469
 10
53.86545514762764
 20
160.89488909511593
 10
57.97677846032539
 20
160.30586772249046
 10
62.44213821966616
 20
159.71845737311415
 10
67.2727632523584
 20
159.13904121847415
 10
72.47095728614784
 20
158.57250187223838
 10
78.02447335561249
 20
158.0229382738812
 10
83.9103456654617
 20
157.49749195574122
 10
90.10225442224848
 20
157.0021756035155
 10
96.56722653810058
 20
156.53872139600105
 10
103.26686677120676
 20
156.10961775549077
 10
110.17012420002047
 20
155.7178012401444
 10
117.25047620094412
 20
155.3618188428392
 10
124.48089410002416
 20
155.04001637457998
 10
131.84612627944085
 20
154.75334571171976
 10
139.34323086345728
 20
154.49592515894602
 10
146.95027122604745
 20
154.25352457745143
 10
147.75376679512578
 20
154.22902224125906
 10
147.70804604066396
 20
152.7297191989719
 10
154.57297966389797
 20
152.5203752796673
 10
162.26237886590326
 20
152.30609308766776
 10
169.9778546062676
 20
152.12376375721405
 10
177.74850186633577
 20
151.97208120890974
 10
185.58995432634575
 20
151.8381705207035
 10
193.48769119152257
 20
151.70827015158324
 10
201.41286197953508
 20
151.57540425435263
 10
209.34178448686447
 20
151.4426503158247
 10
217.256900635128
 20
151.32152335161294
 10
225.1739372643168
 20
151.22146825645893
 10
233.12149026373098
 20
151.1400099788836
 10
241.11108483251994
 20
151.06630412261313
 10
249.1288391179383
 20
150.99212950419576
 10
257.16281246096554
 20
150.9174769417801
 10
265.2029544431274
 20
150.84426456719444
 10
273.24044083752773
 20
150.77150559610646
 10
288.87533467500714
 20
150.63709620702042
 10
362.5263156372366
 20
164.27859970553817
  0
LWPOLYLINE
  5
8D
330
17
100
AcDbEntity
  8
NumLabel
 62
1
100
AcDbPolyline
 90
6
 70
0
 10
212.41473684210501
 20
174.74736842105267
 10
207.41473684210501
 20
174.74736842105267
 10
207.41473684210501
 20
169.74736842105267
 10
212.41473684210501
 20
169.74736842105267
 10
212.41473684210501
 20
164.74736842105267
 10
207.41473684210501
 20
164.74736842105267
  0
LWPOLYLINE
  5
8E
330
17
100
AcDbEntity
  8
NumLabel
 62
1
100
AcDbPolyline
 90
6
 70
0
 10
214.91473684210501
 20
174.74736842105267
 10
219.91473684210501
 20
174.74736842105267
 10
219.91473684210501
 20
169.74736842105267
 10
214.91473684210501
 20
169.74736842105267
 10
214.91473684210501
 20
164.74736842105267
 10
219.91473684210501
 20
164.74736842105267
  0
LWPOLYLINE
  5
8F
330
17
100
AcDbEntity
  8
Layer
100
AcDbPolyline
 90
5
 70
1
 10
205.6339195328379
 20
244.14267541647087
 10
201.6378959341471
 20
243.964362773323
 10
201.45958329099923
 20
247.96038637201377
 10
205.45560688969002
 20
248.13869901516165
 10
205.6339195328379
 20
244.14267541647087
  0
LWPOLYLINE
  5
90
330
17
100
AcDbEntity
  8
Layer
100
AcDbPolyline
 90
5
 70
1
 10
85.55996183856688
 20
226.21741777170882
 10
81.72316968240959
 20
225.08647747688775
 10
80.59222938758855
 20
228.92326963304504
 10
84.42902154374583
 20
230.0542099278661
 10
85.55996183856688
 20
226.21741777170882
  0
LWPOLYLINE
  5
91
330
17
100
AcDbEntity
  8
Layer
100
AcDbPolyline
 90
5
 70
1
 10
25.185986340792955
 20
196.70389156972226
 10
23.69752809578522
 20
195.36804275609535
 10
20.35790606171788
 20
199.0891883686147
 10
21.846364306725615
 20
200.42503718224162
 10
25.185986340792955
 20
196.70389156972226
  0
LWPOLYLINE
  5
92
330
17
100
AcDbEntity
  8
Layer
100
AcDbPolyline
 90
5
 70
1
 10
17.598077466993292
 20
176.39534141418807
 10
19.22208653073564
 20
175.22803915646614
 10
16.303830886430827
 20
171.16801649711027
 10
14.67982182268848
 20
172.3353187548322
 10
17.598077466993292
 20
176.39534141418807
  0
LWPOLYLINE
  5
93
330
17
100
AcDbEntity
  8
Layer
100
AcDbPolyline
 90
5
 70
1
 10
110.74940476470056
 20
159.69373025715373
 10
114.74435937957878
 20
159.49288796812306
 10
114.54351709054811
 20
155.49793335324483
 10
110.54856247566988
 20
155.6987756422755
 10
110.74940476470056
 20
159.69373025715373
  0
LWPOLYLINE
  5
94
330
17
100
AcDbEntity
  8
Layer
100
AcDbPolyline
 90
300
 70
1
 10
313.96514177693723
 20
200.0
 10
313.95718351698895
 20
200.80449321013037
 10
313.9333122512877
 20
201.60863117870656
 10
313.8935385207124
 20
202.41205882103904
 10
313.8378798882228
 20
203.2144213660984
 10
313.76636093110415
 20
204.01536451317213
 10
313.67901323011455
 20
204.81453458831396
 10
313.5758753555399
 20
205.61157870051628
 10
313.456992850162
 20
206.40614489753685
 10
313.32241820914874
 20
207.19788232131097
 10
313.17221085687305
 20
207.9864413628807
 10
313.0064371206732
 20
208.77147381677207
 10
312.8251702015644
 20
209.552633034753
 10
312.6284901419152
 20
210.3295740789034
 10
312.4164837901032
 20
211.10195387392994
 10
312.1892447621652
 20
211.8694313586585
 10
311.9468734004588
 20
212.6316676366372
 10
311.68947672935434
 20
213.38832612578352
 10
311.4171684079758
 20
214.13907270700946
 10
311.1300686800121
 20
214.88357587175915
 10
310.8283043206208
 20
215.6215068683936
 10
310.51200858044814
 20
216.35253984735834
 10
310.1813211267889
 20
217.0763520050693
 10
309.8363879819133
 20
217.79262372645374
 10
309.47736145858784
 20
218.50103872608338
 10
309.10440009281825
 20
219.20128418783705
 10
308.7176685738444
 20
219.89305090303162
 10
308.3173376714181
 20
220.57603340695962
 10
307.90358416039606
 20
221.24993011377413
 10
307.47659074268114
 20
221.91444344966033
 10
307.0365459665462
 20
222.5692799842359
 10
306.5836441433768
 20
223.21415056012162
 10
306.11808526186803
 20
223.848770420625
 10
305.64007489971624
 20
224.4728593354809
 10
305.14982413284065
 20
225.08614172459338
 10
304.6475494421788
 20
225.688346779724
 10
304.1334726180946
 20
226.27920858407316
 10
303.6078206624415
 20
226.8584662297015
 10
303.0708256883256
 20
227.4258639327395
 10
302.5227248176104
 20
227.98115114633438
 10
301.9637600762107
 20
228.5240826712846
 10
301.3941782872208
 20
229.05441876431289
 10
300.81423096192435
 20
229.5719252439301
 10
300.224174188734
 20
230.0763735938433
 10
299.6242685201101
 20
230.5675410638619
 10
299.0147788575078
 20
231.04521076825813
 10
298.3959743344043
 20
231.50917178153745
 10
297.76812819745686
 20
231.95921923157744
 10
297.1315176858451
 20
232.39515439009347
 10
296.48642390884953
 20
232.8167847603917
 10
295.833131721722
 20
233.2239241623699
 10
295.17192959990143
 20
233.61639281472966
 10
294.5031095116311
 20
233.99401741436253
 10
293.8269667890341
 20
234.35663121287584
 10
293.14379999770244
 20
234.7040740902242
 10
292.4539108048592
 20
235.03619262541386
 10
291.7576038461509
 20
235.35284016424924
 10
291.0551865911286
 20
235.65387688409115
 10
290.34696920747814
 20
235.93916985559866
 10
289.63326442405923
 20
236.20859310142686
 10
288.91438739281244
 20
236.46202765185495
 10
288.19065554959764
 20
236.69936159731995
 10
287.4623884740229
 20
236.92049013783281
 10
286.7299077483272
 20
237.125315629255
 10
285.9935368153789
 20
237.3137476264156
 10
285.25360083585224
 20
237.48570292304925
 10
284.5104265446458
 20
237.64110558853767
 10
283.7643421066053
 20
237.77988700143857
 10
283.01567697161545
 20
237.90198587978688
 10
282.26476172912413
 20
238.00734830815512
 10
281.51192796216327
 20
238.095927761461
 10
280.75750810093115
 20
238.16768512551158
 10
280.00183527600086
 20
238.2225887142749
 10
279.2452431712187
 20
238.2606142838718
 10
278.4880658763592
 20
238.28174504328118
 10
277.73063773960047
 20
238.28597166175456
 10
276.97329321988514
 20
238.2732922729362
 10
276.2163667392331
 20
238.2437124756873
 10
275.46019253506967
 20
238.19724533161354
 10
274.7051045126364
 20
238.1339113592977
 10
273.95143609754734
 20
238.05373852523903
 10
273.19952008855796
 20
237.9567622315041
 10
272.44968851061054
 20
237.84302530009415
 10
271.7022724682213
 20
237.71257795403636
 10
270.9576019992739
 20
237.56547779520645
 10
270.21600592928417
 20
237.40178977889354
 10
269.4778117261997
 20
237.22158618511764
 10
268.7433453557997
 20
237.02494658671282
 10
268.01293113775716
 20
236.81195781419007
 10
267.28689160242885
 20
236.5827139173955
 10
266.5655473484347
 20
236.33731612398043
 10
265.84921690109053
 20
236.0758727947022
 10
265.13821657175646
 20
235.79849937557512
 10
264.43286031816245
 20
235.50531834689266
 10
263.7334596057734
 20
235.19645916914374
 10
263.04032327025504
 20
234.87205822584647
 10
262.3537573811006
 20
234.5322587633252
 10
261.674065106479
 20
234.17721082745678
 10
261.00154657936463
 20
233.80707119741473
 10
260.3364987650069
 20
233.4220033164398
 10
259.67921532979886
 20
233.0221772196681
 10
259.02998651160203
 20
232.60776945904846
 10
258.3890989915862
 20
232.17896302538188
 10
257.7568357676383
 20
231.73594726751804
 10
257.1334760293992
 20
231.27891780874427
 10
256.519295034981
 20
230.80807646040364
 10
255.91456398942086
 20
230.32363113278083
 10
255.31954992492473
 20
229.82579574329483
 10
254.7345155829531
 20
229.31479012203903
 10
254.159719298202
 20
228.79083991471038
 10
253.59541488452965
 20
228.2541764829706
 10
253.04185152287923
 20
227.70503680228347
 10
252.49927365124788
 20
227.14366335727308
 10
251.96792085674946
 20
226.5703040346494
 10
251.44802776981984
 20
225.98521201374865
 10
250.93982396061065
 20
225.3886456547362
 10
250.4435338376175
 20
224.78086838452214
 10
249.95937654858756
 20
224.1621485804394
 10
249.48756588375008
 20
223.53275945173579
 10
249.02831018141265
 20
222.89297891893253
 10
248.58181223596486
 20
222.2430894911023
 10
248.14826920832996
 20
221.58337814112133
 10
247.72787253890422
 20
220.91413617895014
 10
247.32080786302222
 20
220.23565912299927
 10
246.92725492898552
 20
219.54824656963677
 10
246.54738751869078
 20
218.8522020608947
 10
246.1813733708927
 20
218.14783295043372
 10
245.8293741071352
 20
217.43545026782414
 10
245.49154516038402
 20
216.71536858120427
 10
245.16803570639175
 20
215.98790585837577
 10
244.8589885978261
 20
215.2533833263981
 10
244.56454030119022
 20
214.51212532974378
 10
244.2848208365628
 20
213.76445918707688
 10
244.01995372018501
 20
213.01071504671827
 10
243.77005590991914
 20
212.25122574086163
 10
243.53523775360327
 20
211.48632663860388
 10
243.31560294032485
 20
210.71635549785583
 10
243.11124845463445
 20
209.94165231619766
 10
242.92226453372012
 20
209.16255918074557
 10
242.74873462756125
 20
208.37942011709583
 10
242.5907353620793
 20
207.59258093741272
 10
242.44833650530205
 20
206.8023890877275
 10
242.32160093655602
 20
206.0091934945162
 10
242.21058461870052
 20
205.21334441062345
 10
242.11533657341636
 20
204.41519326060057
 10
242.03589885955896
 20
203.6150924855266
 10
241.9723065545865
 20
202.81339538738
 10
241.92458773907066
 20
202.0104559730307
 10
241.892763484297
 20
201.2066287979203
 10
241.87684784296061
 20
200.40226880950075
 10
241.87684784296061
 20
199.59773119049925
 10
241.892763484297
 20
198.7933712020797
 10
241.92458773907066
 20
197.98954402696933
 10
241.9723065545865
 20
197.18660461262
 10
242.03589885955896
 20
196.38490751447338
 10
242.11533657341636
 20
195.58480673939943
 10
242.21058461870052
 20
194.78665558937658
 10
242.32160093655602
 20
193.9908065054838
 10
242.44833650530205
 20
193.1976109122725
 10
242.5907353620793
 20
192.40741906258728
 10
242.74873462756125
 20
191.62057988290414
 10
242.92226453372012
 20
190.83744081925443
 10
243.11124845463445
 20
190.05834768380237
 10
243.31560294032485
 20
189.28364450214417
 10
243.53523775360327
 20
188.51367336139612
 10
243.7700559099191
 20
187.74877425913837
 10
244.01995372018501
 20
186.98928495328173
 10
244.2848208365628
 20
186.23554081292312
 10
244.56454030119022
 20
185.4878746702562
 10
244.8589885978261
 20
184.7466166736019
 10
245.16803570639175
 20
184.01209414162426
 10
245.49154516038402
 20
183.28463141879575
 10
245.8293741071352
 20
182.56454973217586
 10
246.1813733708927
 20
181.8521670495663
 10
246.54738751869078
 20
181.1477979391053
 10
246.92725492898552
 20
180.45175343036323
 10
247.32080786302222
 20
179.7643408770007
 10
247.72787253890422
 20
179.08586382104988
 10
248.14826920832994
 20
178.41662185887867
 10
248.58181223596483
 20
177.7569105088977
 10
249.02831018141265
 20
177.1070210810675
 10
249.48756588375008
 20
176.46724054826421
 10
249.95937654858756
 20
175.8378514195606
 10
250.4435338376175
 20
175.21913161547786
 10
250.93982396061065
 20
174.6113543452638
 10
251.44802776981984
 20
174.01478798625135
 10
251.96792085674943
 20
173.4296959653506
 10
252.49927365124785
 20
172.85633664272692
 10
253.04185152287923
 20
172.29496319771653
 10
253.59541488452965
 20
171.7458235170294
 10
254.15971929820202
 20
171.20916008528962
 10
254.7345155829531
 20
170.68520987796097
 10
255.31954992492473
 20
170.17420425670517
 10
255.91456398942086
 20
169.6763688672192
 10
256.519295034981
 20
169.1919235395964
 10
257.13347602939916
 20
168.72108219125573
 10
257.7568357676383
 20
168.26405273248196
 10
258.3890989915862
 20
167.82103697461815
 10
259.0299865116021
 20
167.39223054095154
 10
259.67921532979886
 20
166.97782278033188
 10
260.3364987650069
 20
166.5779966835602
 10
261.00154657936463
 20
166.19292880258527
 10
261.674065106479
 20
165.8227891725432
 10
262.3537573811006
 20
165.4677412366748
 10
263.04032327025504
 20
165.12794177415353
 10
263.7334596057734
 20
164.80354083085626
 10
264.43286031816245
 20
164.49468165310734
 10
265.13821657175646
 20
164.2015006244249
 10
265.84921690109053
 20
163.9241272052978
 10
266.5655473484347
 20
163.6626838760196
 10
267.28689160242885
 20
163.4172860826045
 10
268.01293113775716
 20
163.18804218580993
 10
268.7433453557997
 20
162.97505341328718
 10
269.4778117261997
 20
162.77841381488236
 10
270.21600592928417
 20
162.59821022110646
 10
270.9576019992739
 20
162.43452220479355
 10
271.70227246822134
 20
162.28742204596364
 10
272.44968851061054
 20
162.15697469990585
 10
273.19952008855796
 20
162.0432377684959
 10
273.95143609754734
 20
161.94626147476097
 10
274.70510451263635
 20
161.8660886407023
 10
275.46019253506967
 20
161.80275466838646
 10
276.216366739233
 20
161.7562875243127
 10
276.97329321988514
 20
161.7267077270638
 10
277.73063773960047
 20
161.71402833824544
 10
278.4880658763592
 20
161.71825495671882
 10
279.2452431712187
 20
161.7393857161282
 10
280.00183527600086
 20
161.7774112857251
 10
280.75750810093115
 20
161.83231487448842
 10
281.51192796216327
 20
161.904072238539
 10
282.26476172912413
 20
161.99265169184488
 10
283.01567697161545
 20
162.09801412021312
 10
283.7643421066053
 20
162.22011299856143
 10
284.51042654464584
 20
162.35889441146233
 10
285.25360083585224
 20
162.51429707695075
 10
285.9935368153789
 20
162.6862523735844
 10
286.7299077483272
 20
162.874684370745
 10
287.4623884740229
 20
163.07950986216719
 10
288.19065554959764
 20
163.30063840268002
 10
288.91438739281244
 20
163.53797234814505
 10
289.6332644240592
 20
163.79140689857314
 10
290.34696920747814
 20
164.06083014440134
 10
291.0551865911286
 20
164.34612311590885
 10
291.7576038461509
 20
164.64715983575076
 10
292.4539108048592
 20
164.96380737458614
 10
293.14379999770244
 20
165.2959259097758
 10
293.82696678903415
 20
165.64336878712416
 10
294.5031095116311
 20
166.0059825856375
 10
295.17192959990143
 20
166.38360718527034
 10
295.833131721722
 20
166.77607583763006
 10
296.48642390884953
 20
167.1832152396083
 10
297.1315176858451
 20
167.6048456099065
 10
297.76812819745686
 20
168.04078076842256
 10
298.3959743344043
 20
168.49082821846253
 10
299.0147788575078
 20
168.95478923174187
 10
299.6242685201101
 20
169.43245893613806
 10
300.224174188734
 20
169.9236264061567
 10
300.81423096192435
 20
170.4280747560699
 10
301.3941782872208
 20
170.94558123568711
 10
301.9637600762107
 20
171.4759173287154
 10
302.5227248176104
 20
172.01884885366562
 10
303.0708256883256
 20
172.5741360672605
 10
303.6078206624415
 20
173.1415337702985
 10
304.1334726180946
 20
173.72079141592687
 10
304.6475494421788
 20
174.311653220276
 10
305.1498241328406
 20
174.91385827540662
 10
305.6400748997162
 20
175.5271406645191
 10
306.11808526186803
 20
176.151229579375
 10
306.5836441433767
 20
176.78584943987838
 10
307.0365459665462
 20
177.4307200157641
 10
307.47659074268114
 20
178.08555655033967
 10
307.90358416039606
 20
178.75006988622587
 10
308.3173376714181
 20
179.42396659304038
 10
308.7176685738444
 20
180.10694909696838
 10
309.10440009281825
 20
180.79871581216295
 10
309.47736145858784
 20
181.49896127391665
 10
309.8363879819133
 20
182.2073762735463
 10
310.1813211267889
 20
182.92364799493072
 10
310.5120085804482
 20
183.64746015264166
 10
310.8283043206208
 20
184.37849313160638
 10
311.1300686800121
 20
185.11642412824085
 10
311.4171684079758
 20
185.8609272929905
 10
311.68947672935434
 20
186.61167387421645
 10
311.9468734004588
 20
187.36833236336278
 10
312.1892447621652
 20
188.13056864134148
 10
312.4164837901032
 20
188.89804612607006
 10
312.6284901419152
 20
189.67042592109658
 10
312.8251702015644
 20
190.447366965247
 10
313.0064371206732
 20
191.22852618322793
 10
313.17221085687305
 20
192.0135586371193
 10
313.32241820914874
 20
192.80211767868903
 10
313.456992850162
 20
193.59385510246318
 10
313.5758753555399
 20
194.38842129948372
 10
313.67901323011455
 20
195.18546541168604
 10
313.76636093110415
 20
195.98463548682787
 10
313.8378798882228
 20
196.7855786339016
 10
313.8935385207124
 20
197.58794117896093
 10
313.9333122512877
 20
198.3913688212934
 10
313.95718351698895
 20
199.19550678986963
 10
313.96514177693723
 20
200.0
  0
LWPOLYLINE
  5
95
330
17
100
AcDbEntity
  8
Layer
100
AcDbPolyline
 90
5
 70
1
 10
126.8866704423765
 20
205.00000000000003
 10
131.8866704423765
 20
200.00000000000003
 10
126.8866704423765
 20
195.00000000000003
 10
121.8866704423765
 20
200.00000000000003
 10
126.8866704423765
 20
205.00000000000003
  0
LWPOLYLINE
  5
96
330
17
100
AcDbEntity
  8
Layer
100
AcDbPolyline
 90
5
 70
1
 10
275.40780166903704
 20
205.0
 10
280.40780166903704
 20
200.0
 10
275.40780166903704
 20
195.0
 10
270.40780166903704
 20
200.0
 10
275.40780166903704
 20
205.0
  0
LWPOLYLINE
  5
97
330
17
100
AcDbEntity
  8
Layer
100
AcDbPolyline
 90
5
 70
1
 10
80.93941984838438
 20
182.86078098914092
 10
85.60819043556289
 20
177.55017074131658
 10
80.29758018773856
 20
172.88140015413805
 10
75.62880960056005
 20
178.1920104019624
 10
80.93941984838438
 20
182.86078098914092
  0
LWPOLYLINE
  5
98
330
17
100
AcDbEntity
  8
Layer
100
AcDbPolyline
 90
5
 70
1
 10
161.32440327949473
 20
177.69069365211146
 10
165.99317386667326
 20
172.38008340428712
 10
160.68256361884892
 20
167.7113128171086
 10
156.0137930316704
 20
173.02192306493293
 10
161.32440327949473
 20
177.69069365211146
  0
LWPOLYLINE
  5
99
330
17
100
AcDbEntity
  8
Layer
100
AcDbPolyline
 90
5
 70
1
 10
122.91999999999962
 20
186.66069323538284
 10
127.91999999999962
 20
191.66069323538284
 10
132.91999999999962
 20
186.66069323538284
 10
127.91999999999962
 20
181.66069323538284
 10
122.91999999999962
 20
186.66069323538284
  0
LWPOLYLINE
  5
9A
330
17
100
AcDbEntity
  8
Layer
100
AcDbPolyline
 90
5
 70
1
 10
122.91999999999962
 20
208.30743688029116
 10
127.91999999999962
 20
213.30743688029116
 10
132.91999999999962
 20
208.30743688029116
 10
127.91999999999962
 20
203.30743688029116
 10
122.91999999999962
 20
208.30743688029116
  0
LINE
  5
9B
330
17
100
AcDbEntity
  8
Layer
 62
7
100
AcDbLine
 10
21.372582957936118
 20
200.00000000000003
 30
0.0
 11
362.5263157894732
 21
200.0
 31
0.0
  0
LINE
  5
9C
330
17
100
AcDbEntity
  8
Layer
 62
7
100
AcDbLine
 10
120.8866704423765
 20
200.00000000000003
 30
0.0
 11
132.8866704423765
 21
200.00000000000003
 31
0.0
  0
LINE
  5
9D
330
17
100
AcDbEntity
  8
Layer
 62
7
100
AcDbLine
 10
269.40780166903704
 20
200.0
 30
0.0
 11
281.40780166903704
 21
200.0
 31
0.0
  0
LINE
  5
9E
330
17
100
AcDbEntity
  8
Layer
 62
7
100
AcDbLine
 10
9.823915730421334
 20
182.42435622068282
 30
0.0
 11
344.3370445403664
 21
160.90961531372548
 31
0.0
  0
LINE
  5
9F
330
17
100
AcDbEntity
  8
Layer
 62
7
100
AcDbLine
 10
74.63087151705977
 20
178.25619436802697
 30
0.0
 11
86.60612851906316
 21
177.485986775252
 31
0.0
  0
LINE
  5
A0
330
17
100
AcDbEntity
  8
Layer
 62
7
100
AcDbLine
 10
155.0158549481701
 20
173.0861070309975
 30
0.0
 11
166.99111195017355
 21
172.31589943822254
 31
0.0
  0
LINE
  5
A1
330
17
100
AcDbEntity
  8
Layer
100
AcDbLine
 10
277.9199999999996
 20
238.2865
 30
0.0
 11
277.9199999999996
 21
239.2865
 31
0.0
  0
LINE
  5
A2
330
17
100
AcDbEntity
  8
Layer
100
AcDbLine
 10
277.9199999999996
 20
161.7135
 30
0.0
 11
277.9199999999996
 21
160.7135
 31
0.0
  0
LINE
  5
A3
330
17
100
AcDbEntity
  8
Layer
100
AcDbLine
 10
313.96514177693723
 20
200.0
 30
0.0
 11
314.96514177693723
 21
200.0
 31
0.0
  0
LINE
  5
A4
330
17
100
AcDbEntity
  8
Layer
100
AcDbLine
 10
241.87485822306203
 20
200.0
 30
0.0
 11
240.87485822306203
 21
200.0
 31
0.0
  0
LINE
  5
A5
330
17
100
AcDbEntity
  8
Layer
 62
7
100
AcDbLine
 10
127.91999999999962
 20
154.90615898298984
 30
0.0
 11
127.91999999999962
 21
240.06197113268416
 31
0.0
  0
LINE
  5
A6
330
17
100
AcDbEntity
  8
Layer
 62
7
100
AcDbLine
 10
127.91999999999962
 20
180.66069323538284
 30
0.0
 11
127.91999999999962
 21
192.66069323538284
 31
0.0
  0
LINE
  5
A7
330
17
100
AcDbEntity
  8
Layer
 62
7
100
AcDbLine
 10
127.91999999999962
 20
202.30743688029116
 30
0.0
 11
127.91999999999962
 21
214.30743688029116
 31
0.0
  0
ENDSEC
  0
SECTION
  2
OBJECTS
  0
DICTIONARY
  5
A
330
0
100
AcDbDictionary
280
0
281
1
  3
ACAD_COLOR
350
B
  3
ACAD_GROUP
350
C
  3
ACAD_LAYOUT
350
D
  3
ACAD_MATERIAL
350
E
  3
ACAD_MLEADERSTYLE
350
F
  3
ACAD_MLINESTYLE
350
10
  3
ACAD_PLOTSETTINGS
350
11
  3
ACAD_PLOTSTYLENAME
350
12
  3
ACAD_SCALELIST
350
14
  3
ACAD_TABLESTYLE
350
15
  3
ACAD_VISUALSTYLE
350
16
  3
EZDXF_META
350
2D
  0
DICTIONARY
  5
B
330
A
100
AcDbDictionary
280
0
281
1
  0
DICTIONARY
  5
C
330
A
100
AcDbDictionary
280
0
281
1
  0
DICTIONARY
  5
D
330
A
100
AcDbDictionary
280
0
281
1
  3
Model
350
1A
  3
Layout1
350
1E
  0
DICTIONARY
  5
E
330
A
100
AcDbDictionary
280
0
281
1
  3
ByBlock
350
1F
  3
ByLayer
350
20
  3
Global
350
21
  0
DICTIONARY
  5
F
330
A
100
AcDbDictionary
280
0
281
1
  3
Standard
350
2C
  0
DICTIONARY
  5
10
330
A
100
AcDbDictionary
280
0
281
1
  3
Standard
350
22
  0
DICTIONARY
  5
11
330
A
100
AcDbDictionary
280
0
281
1
  0
ACDBDICTIONARYWDFLT
  5
12
330
A
100
AcDbDictionary
280
0
281
1
  3
Normal
350
13
100
AcDbDictionaryWithDefault
340
13
  0
ACDBPLACEHOLDER
  5
13
330
12
  0
DICTIONARY
  5
14
330
A
100
AcDbDictionary
280
0
281
1
  0
DICTIONARY
  5
15
330
A
100
AcDbDictionary
280
0
281
1
  0
DICTIONARY
  5
16
330
A
100
AcDbDictionary
280
0
281
1
  3
2dWireframe
350
5A
  3
Basic
350
5B
  3
Brighten
350
5C
  3
ColorChange
350
5D
  3
Conceptual
350
5E
  3
Dim
350
5F
  3
EdgeColorOff
350
60
  3
Facepattern
350
61
  3
Flat
350
62
  3
FlatWithEdges
350
63
  3
Gouraud
350
64
  3
GouraudWithEdges
350
65
  3
Hidden
350
66
  3
JitterOff
350
67
  3
Linepattern
350
68
  3
Modeling
350
69
  3
OverhangOff
350
6A
  3
Realistic
350
6B
  3
Shaded
350
6C
  3
Shaded with edges
350
6D
  3
Shades of Gray
350
6E
  3
Sketchy
350
6F
  3
Thicken
350
70
  3
Wireframe
350
71
  3
X-Ray
350
72
  0
LAYOUT
  5
1A
330
D
100
AcDbPlotSettings
  1

  2
Adobe PDF
  4
A3
  6

 40
7.5
 41
20.0
 42
7.5
 43
20.0
 44
420.0
 45
297.0
 46
0.0
 47
0.0
 48
0.0
 49
0.0
140
0.0
141
0.0
142
1.0
143
1.0
 70
1024
 72
1
 73
0
 74
5
  7

 75
16
 76
0
 77
2
 78
300
147
1.0
148
0.0
149
0.0
100
AcDbLayout
  1
Model
 70
1
 71
0
 10
0.0
 20
0.0
 11
420.0
 21
297.0
 12
0.0
 22
0.0
 32
0.0
 14
1e+20
 24
1e+20
 34
1e+20
 15
-1e+20
 25
-1e+20
 35
-1e+20
146
0.0
 13
0.0
 23
0.0
 33
0.0
 16
1.0
 26
0.0
 36
0.0
 17
0.0
 27
1.0
 37
0.0
 76
1
330
17
  0
LAYOUT
  5
1E
330
D
100
AcDbPlotSettings
  1

  2
Adobe PDF
  4
A3
  6

 40
7.5
 41
20.0
 42
7.5
 43
20.0
 44
420.0
 45
297.0
 46
0.0
 47
0.0
 48
0.0
 49
0.0
140
0.0
141
0.0
142
1.0
143
1.0
 70
0
 72
1
 73
0
 74
5
  7

 75
16
 76
0
 77
2
 78
300
147
1.0
148
0.0
149
0.0
100
AcDbLayout
  1
Layout1
 70
1
 71
1
 10
0.0
 20
0.0
 11
420.0
 21
297.0
 12
0.0
 22
0.0
 32
0.0
 14
1e+20
 24
1e+20
 34
1e+20
 15
-1e+20
 25
-1e+20
 35
-1e+20
146
0.0
 13
0.0
 23
0.0
 33
0.0
 16
1.0
 26
0.0
 36
0.0
 17
0.0
 27
1.0
 37
0.0
 76
1
330
1B
  0
MATERIAL
  5
1F
102
{ACAD_REACTORS
330
E
102
}
330
E
100
AcDbMaterial
  1
ByBlock
  2

 70
0
 40
1.0
 71
1
 41
1.0
 91
-1023410177
 42
1.0
 72
1
  3

 73
1
 74
1
 75
1
 44
0.5
 73
0
 45
1.0
 46
1.0
 77
1
  4

 78
1
 79
1
170
1
 48
1.0
171
1
  6

172
1
173
1
174
1
140
1.0
141
1.0
175
1
  7

176
1
177
1
178
1
143
1.0
179
1
  8

270
1
271
1
272
1
145
1.0
146
1.0
273
1
  9

274
1
275
1
276
1
 42
1.0
 72
1
  3

 73
1
 74
1
 75
1
 94
63
  0
MATERIAL
  5
20
102
{ACAD_REACTORS
330
E
102
}
330
E
100
AcDbMaterial
  1
ByLayer
  2

 70
0
 40
1.0
 71
1
 41
1.0
 91
-1023410177
 42
1.0
 72
1
  3

 73
1
 74
1
 75
1
 44
0.5
 73
0
 45
1.0
 46
1.0
 77
1
  4

 78
1
 79
1
170
1
 48
1.0
171
1
  6

172
1
173
1
174
1
140
1.0
141
1.0
175
1
  7

176
1
177
1
178
1
143
1.0
179
1
  8

270
1
271
1
272
1
145
1.0
146
1.0
273
1
  9

274
1
275
1
276
1
 42
1.0
 72
1
  3

 73
1
 74
1
 75
1
 94
63
  0
MATERIAL
  5
21
102
{ACAD_REACTORS
330
E
102
}
330
E
100
AcDbMaterial
  1
Global
  2

 70
0
 40
1.0
 71
1
 41
1.0
 91
-1023410177
 42
1.0
 72
1
  3

 73
1
 74
1
 75
1
 44
0.5
 73
0
 45
1.0
 46
1.0
 77
1
  4

 78
1
 79
1
170
1
 48
1.0
171
1
  6

172
1
173
1
174
1
140
1.0
141
1.0
175
1
  7

176
1
177
1
178
1
143
1.0
179
1
  8

270
1
271
1
272
1
145
1.0
146
1.0
273
1
  9

274
1
275
1
276
1
 42
1.0
 72
1
  3

 73
1
 74
1
 75
1
 94
63
  0
MLINESTYLE
  5
22
102
{ACAD_REACTORS
330
10
102
}
330
10
100
AcDbMlineStyle
  2
Standard
 70
0
  3

 62
256
 51
90.0
 52
90.0
 71
2
 49
0.5
 62
256
  6
BYLAYER
 49
-0.5
 62
256
  6
BYLAYER
  0
MLEADERSTYLE
  5
2C
102
{ACAD_REACTORS
330
F
102
}
330
F
100
AcDbMLeaderStyle
179
2
170
2
171
1
172
0
 90
2
 40
0.0
 41
0.0
173
1
 91
-1056964608
 92
-2
290
1
 42
2.0
291
1
 43
8.0
  3
Standard
 44
4.0
300

342
29
174
1
175
1
176
0
178
1
 93
-1056964608
 45
4.0
292
0
297
0
 46
4.0
 94
-1056964608
 47
1.0
 49
1.0
140
1.0
294
1
141
0.0
177
0
142
1.0
295
0
296
0
143
3.75
271
0
272
9
273
9
  0
DICTIONARY
  5
2D
330
A
100
AcDbDictionary
281
1
  3
CREATED_BY_EZDXF
350
2E
  3
WRITTEN_BY_EZDXF
350
AA
  0
DICTIONARYVAR
  5
2E
330
2D
100
DictionaryVariables
280
0
  1
1.3.0 @ 2026-01-06T17:07:19.493038+00:00
  0
VISUALSTYLE
  5
5A
102
{ACAD_REACTORS
330
16
102
}
330
16
100
AcDbVisualStyle
  2
2dWireframe
 70
4
 90
0
 40
0.6
 62
7
290
0
291
0
  0
VISUALSTYLE
  5
5B
102
{ACAD_REACTORS
330
16
102
}
330
16
100
AcDbVisualStyle
  2
Basic
 70
7
 90
1
 40
0.6
 62
7
290
0
291
1
  0
VISUALSTYLE
  5
5C
102
{ACAD_REACTORS
330
16
102
}
330
16
100
AcDbVisualStyle
  2
Brighten
 70
12
 90
2
 40
0.6
 62
7
290
0
291
1
  0
VISUALSTYLE
  5
5D
102
{ACAD_REACTORS
330
16
102
}
330
16
100
AcDbVisualStyle
  2
ColorChange
 70
16
 90
2
 40
0.6
 62
8
290
0
291
1
  0
VISUALSTYLE
  5
5E
102
{ACAD_REACTORS
330
16
102
}
330
16
100
AcDbVisualStyle
  2
Conceptual
 70
9
 90
3
 40
0.6
 62
7
290
0
291
0
  0
VISUALSTYLE
  5
5F
102
{ACAD_REACTORS
330
16
102
}
330
16
100
AcDbVisualStyle
  2
Dim
 70
11
 90
2
 40
0.6
 62
7
290
0
291
1
  0
VISUALSTYLE
  5
60
102
{ACAD_REACTORS
330
16
102
}
330
16
100
AcDbVisualStyle
  2
EdgeColorOff
 70
22
 90
2
 40
0.6
 62
7
290
0
291
1
  0
VISUALSTYLE
  5
61
102
{ACAD_REACTORS
330
16
102
}
330
16
100
AcDbVisualStyle
  2
Facepattern
 70
15
 90
2
 40
0.6
 62
7
290
0
291
1
  0
VISUALSTYLE
  5
62
102
{ACAD_REACTORS
330
16
102
}
330
16
100
AcDbVisualStyle
  2
Flat
 70
0
 90
2
 40
0.6
 62
7
290
0
291
1
  0
VISUALSTYLE
  5
63
102
{ACAD_REACTORS
330
16
102
}
330
16
100
AcDbVisualStyle
  2
FlatWithEdges
 70
1
 90
2
 40
0.6
 62
7
290
0
291
1
  0
VISUALSTYLE
  5
64
102
{ACAD_REACTORS
330
16
102
}
330
16
100
AcDbVisualStyle
  2
Gouraud
 70
2
 90
2
 40
0.6
 62
7
290
0
291
1
  0
VISUALSTYLE
  5
65
102
{ACAD_REACTORS
330
16
102
}
330
16
100
AcDbVisualStyle
  2
GouraudWithEdges
 70
3
 90
2
 40
0.6
 62
7
290
0
291
1
  0
VISUALSTYLE
  5
66
102
{ACAD_REACTORS
330
16
102
}
330
16
100
AcDbVisualStyle
  2
Hidden
 70
6
 90
1
 40
0.6
 62
7
290
0
291
0
  0
VISUALSTYLE
  5
67
102
{ACAD_REACTORS
330
16
102
}
330
16
100
AcDbVisualStyle
  2
JitterOff
 70
20
 90
2
 40
0.6
 62
7
290
0
291
1
  0
VISUALSTYLE
  5
68
102
{ACAD_REACTORS
330
16
102
}
330
16
100
AcDbVisualStyle
  2
Linepattern
 70
14
 90
2
 40
0.6
 62
7
290
0
291
1
  0
VISUALSTYLE
  5
69
102
{ACAD_REACTORS
330
16
102
}
330
16
100
AcDbVisualStyle
  2
Modeling
 70
10
 90
2
 40
0.6
 62
7
290
0
291
0
  0
VISUALSTYLE
  5
6A
102
{ACAD_REACTORS
330
16
102
}
330
16
100
AcDbVisualStyle
  2
OverhangOff
 70
21
 90
2
 40
0.6
 62
7
290
0
291
1
  0
VISUALSTYLE
  5
6B
102
{ACAD_REACTORS
330
16
102
}
330
16
100
AcDbVisualStyle
  2
Realistic
 70
8
 90
2
 40
0.6
 62
7
290
0
291
0
  0
VISUALSTYLE
  5
6C
102
{ACAD_REACTORS
330
16
102
}
330
16
100
AcDbVisualStyle
  2
Shaded
 70
27
 90
2
 40
0.6
 62
7
290
0
291
0
  0
VISUALSTYLE
  5
6D
102
{ACAD_REACTORS
330
16
102
}
330
16
100
AcDbVisualStyle
  2
Shaded with edges
 70
26
 90
2
 40
0.6
 62
7
290
0
291
0
  0
VISUALSTYLE
  5
6E
102
{ACAD_REACTORS
330
16
102
}
330
16
100
AcDbVisualStyle
  2
Shades of Gray
 70
23
 90
2
 40
0.6
 62
7
290
0
291
0
  0
VISUALSTYLE
  5
6F
102
{ACAD_REACTORS
330
16
102
}
330
16
100
AcDbVisualStyle
  2
Sketchy
 70
24
 90
1
 40
0.6
 62
7
290
0
291
0
  0
VISUALSTYLE
  5
70
102
{ACAD_REACTORS
330
16
102
}
330
16
100
AcDbVisualStyle
  2
Thicken
 70
13
 90
2
 40
0.6
 62
7
290
0
291
1
  0
VISUALSTYLE
  5
71
102
{ACAD_REACTORS
330
16
102
}
330
16
100
AcDbVisualStyle
  2
Wireframe
 70
5
 90
0
 40
0.6
 62
7
290
0
291
0
  0
VISUALSTYLE
  5
72
102
{ACAD_REACTORS
330
16
102
}
330
16
100
AcDbVisualStyle
  2
X-Ray
 70
25
 90
2
 40
0.5
 62
7
290
0
291
0
  0
DICTIONARYVAR
  5
AA
330
2D
100
DictionaryVariables
280
0
  1
1.3.0 @ 2026-01-06T17:07:19.509573+00:00
  0
ENDSEC
  0
EOF
