<?xml version="1.0" encoding="utf-8" standalone="no"?>
<!DOCTYPE svg PUBLIC "-//W3C//DTD SVG 1.1//EN"
  "http://www.w3.org/Graphics/SVG/1.1/DTD/svg11.dtd">
<svg xmlns:xlink="http://www.w3.org/1999/xlink" width="1152pt" height="214.257857pt" viewBox="0 0 1152 214.257857" xmlns="http://www.w3.org/2000/svg" version="1.1">
 <metadata>
  <rdf:RDF xmlns:dc="http://purl.org/dc/elements/1.1/" xmlns:cc="http://creativecommons.org/ns#" xmlns:rdf="http://www.w3.org/1999/02/22-rdf-syntax-ns#">
   <cc:Work>
    <dc:type rdf:resource="http://purl.org/dc/dcmitype/StillImage"/>
    <dc:date>2026-01-07T02:07:15.110279</dc:date>
    <dc:format>image/svg+xml</dc:format>
    <dc:creator>
     <cc:Agent>
      <dc:title>Matplotlib v3.10.1, https://matplotlib.org/</dc:title>
     </cc:Agent>
    </dc:creator>
   </cc:Work>
  </rdf:RDF>
 </metadata>
 <defs>
  <style type="text/css">*{stroke-linejoin: round; stroke-linecap: butt}</style>
 </defs>
 <g id="figure_1">
  <g id="patch_1">
   <path d="M 0 214.257857 
L 1152 214.257857 
L 1152 0 
L 0 0 
z
" style="fill: #ffffff"/>
  </g>
  <g id="axes_1">
   <g id="patch_2">
    <path d="M 0 214.257857 
L 1152 214.257857 
L 1152 0 
L 0 0 
z
" style="fill: #212830"/>
   </g>
   <g id="patch_3">
    <path d="M 1099.636364 112.486217 
L 1084.703995 107.519667 
L 1056.596367 98.415074 
L 1028.719899 89.735256 
L 1001.0077 81.499086 
L 973.394066 73.706365 
L 945.827879 66.363598 
L 918.265425 59.465091 
L 904.479046 56.184631 
L 876.872325 49.95793 
L 863.052421 47.010956 
L 849.220192 44.176692 
L 835.372345 41.454755 
L 821.5075 38.84381 
L 807.628857 36.343827 
L 793.737258 33.956657 
L 779.830038 31.682645 
L 765.906994 29.520269 
L 751.971529 27.470053 
L 738.023898 25.5341 
L 724.05771 23.713486 
L 710.066612 22.005283 
L 682.0242 18.917108 
L 667.980884 17.539467 
L 639.850043 15.115375 
L 611.70582 13.128628 
L 583.579496 11.592115 
L 569.535064 10.991656 
L 555.513248 10.505974 
L 541.513915 10.138294 
L 527.53795 9.887553 
L 513.593848 9.753415 
L 499.689047 9.738994 
L 485.824783 9.847754 
L 472.001427 10.079583 
L 458.227666 10.433851 
L 444.512615 10.913478 
L 430.857774 11.522674 
L 417.265339 12.26144 
L 403.744963 13.129023 
L 390.307479 14.128724 
L 376.955174 15.264995 
L 363.69255 16.536958 
L 350.533003 17.944031 
L 337.486974 19.490535 
L 324.558373 21.179503 
L 311.756873 23.008729 
L 299.098731 24.978546 
L 286.594464 27.092197 
L 274.253112 29.347331 
L 262.10023 31.734723 
L 250.166579 34.252954 
L 238.470904 36.903561 
L 227.03392 39.677013 
L 215.892825 42.559763 
L 205.080979 45.547071 
L 194.621628 48.62972 
L 184.546564 51.785425 
L 174.894819 54.994415 
L 165.69289 58.244421 
L 156.958175 61.513975 
L 148.710744 64.775888 
L 140.964142 68.012483 
L 133.716026 71.211123 
L 126.95629 74.353622 
L 120.673543 77.423709 
L 114.850326 80.415669 
L 109.460598 83.329311 
L 99.863002 88.908047 
L 91.664047 94.151016 
L 84.655504 99.098918 
L 78.656565 103.778517 
L 73.530191 108.241002 
L 69.121163 112.536735 
L 65.291242 116.63169 
L 62.003825 120.490789 
L 59.279423 124.180925 
L 57.084273 127.805238 
L 55.331932 131.370013 
L 53.974872 134.808203 
L 53.026946 138.0939 
L 52.499421 141.260047 
L 52.363636 144.352342 
L 52.626287 147.458219 
L 52.933751 148.995307 
L 53.38018 150.520177 
L 53.980018 152.035851 
L 54.738695 153.541865 
L 55.651518 155.033318 
L 56.7082 156.501601 
L 57.901817 157.938487 
L 59.231682 159.337344 
L 60.703966 160.695114 
L 62.324825 162.011678 
L 64.098038 163.290053 
L 68.094172 165.749187 
L 72.688627 168.098412 
L 77.944917 170.345404 
L 83.982084 172.514364 
L 90.933 174.65852 
L 98.972881 176.81712 
L 108.363016 179.007008 
L 119.430191 181.250876 
L 132.561443 183.54615 
L 148.174921 185.873009 
L 166.578721 188.182986 
L 187.86152 190.392246 
L 199.511777 191.432272 
L 224.56238 193.32985 
L 251.483733 194.954503 
L 279.804515 196.295813 
L 309.214535 197.372472 
L 325.856266 197.900586 
L 325.780706 200.378406 
L 354.577867 201.216592 
L 385.218665 201.877466 
L 463.389869 203.164658 
L 510.587689 203.669634 
L 605.093897 204.518864 
L 1099.636364 112.486217 
L 1099.636364 112.486217 
" clip-path="url(#p22d9edbb3e)" style="fill: none; stroke: #ff0000; stroke-width: 0.72; stroke-linejoin: miter"/>
   </g>
   <g id="patch_4">
    <path d="M 964.140155 78.052155 
L 957.75873 76.32666 
L 959.484225 69.945235 
L 965.86565 71.67073 
L 964.140155 78.052155 
" clip-path="url(#p22d9edbb3e)" style="fill: none; stroke: #ff0000; stroke-width: 0.72; stroke-linejoin: miter"/>
   </g>
   <g id="patch_5">
    <path d="M 439.661506 17.747116 
L 433.057486 18.041804 
L 432.762798 11.437784 
L 439.366818 11.143096 
L 439.661506 17.747116 
" clip-path="url(#p22d9edbb3e)" style="fill: none; stroke: #ff0000; stroke-width: 0.72; stroke-linejoin: miter"/>
   </g>
   <g id="patch_6">
    <path d="M 201.682521 53.440598 
L 195.341654 55.309644 
L 193.472608 48.968777 
L 199.813475 47.099731 
L 201.682521 53.440598 
" clip-path="url(#p22d9edbb3e)" style="fill: none; stroke: #ff0000; stroke-width: 0.72; stroke-linejoin: miter"/>
   </g>
   <g id="patch_7">
    <path d="M 81.701219 112.012169 
L 79.241322 114.219857 
L 73.722102 108.070113 
L 76.182 105.862425 
L 81.701219 112.012169 
" clip-path="url(#p22d9edbb3e)" style="fill: none; stroke: #ff0000; stroke-width: 0.72; stroke-linejoin: miter"/>
   </g>
   <g id="patch_8">
    <path d="M 67.373605 155.464284 
L 70.05752 157.393424 
L 65.234671 164.103212 
L 62.550756 162.174072 
L 67.373605 155.464284 
" clip-path="url(#p22d9edbb3e)" style="fill: none; stroke: #ff0000; stroke-width: 0.72; stroke-linejoin: miter"/>
   </g>
   <g id="patch_9">
    <path d="M 253.215507 188.422626 
L 259.817761 188.754547 
L 259.485839 195.356801 
L 252.883586 195.024879 
L 253.215507 188.422626 
" clip-path="url(#p22d9edbb3e)" style="fill: none; stroke: #ff0000; stroke-width: 0.72; stroke-linejoin: miter"/>
   </g>
   <g id="patch_10">
    <path d="M 657.913009 106.849565 
L 657.765025 101.868441 
L 657.321661 96.907107 
L 656.584678 91.985274 
L 655.557004 87.122496 
L 654.242723 82.338094 
L 652.647055 77.651075 
L 650.776341 73.080062 
L 648.638012 68.643213 
L 646.240565 64.358158 
L 643.593524 60.24192 
L 640.707406 56.310853 
L 637.593677 52.580575 
L 634.264708 49.065907 
L 630.733726 45.780811 
L 627.014757 42.738341 
L 623.122579 39.950583 
L 619.072654 37.428613 
L 614.881073 35.182451 
L 610.564489 33.22102 
L 606.140051 31.552114 
L 601.625338 30.182364 
L 597.038286 29.11721 
L 592.39712 28.360885 
L 587.720279 27.916393 
L 583.026344 27.785502 
L 578.333964 27.96873 
L 573.661781 28.46535 
L 569.028358 29.273388 
L 564.452104 30.389635 
L 559.9512 31.809655 
L 555.543528 33.527807 
L 551.246599 35.537265 
L 547.077485 37.830045 
L 543.05275 40.397038 
L 539.188384 43.228045 
L 535.49974 46.311819 
L 532.001473 49.636108 
L 528.707482 53.187705 
L 525.630853 56.952499 
L 522.78381 60.915533 
L 520.177664 65.061062 
L 517.822769 69.372616 
L 515.728481 73.833064 
L 513.903121 78.424687 
L 512.353941 83.129241 
L 511.087095 87.928035 
L 510.107617 92.802004 
L 509.419399 97.731783 
L 509.025174 102.697788 
L 508.926509 107.680287 
L 509.123796 112.659486 
L 509.61625 117.615602 
L 510.401916 122.528945 
L 511.477672 127.379994 
L 512.839245 132.149476 
L 514.481223 136.818442 
L 516.397085 141.368343 
L 518.579218 145.781101 
L 521.018953 150.039185 
L 523.706597 154.125678 
L 526.631472 158.024344 
L 529.781957 161.719693 
L 533.145535 165.197045 
L 536.708844 168.442584 
L 540.457726 171.443415 
L 544.377287 174.187616 
L 548.451954 176.664285 
L 552.66554 178.863581 
L 557.001303 180.776768 
L 561.442018 182.396243 
L 565.970042 183.715573 
L 570.567385 184.729517 
L 575.215783 185.434045 
L 579.896766 185.826358 
L 584.591738 185.904899 
L 589.282045 185.669355 
L 593.949053 185.120661 
L 598.574221 184.260999 
L 603.139172 183.093782 
L 607.62577 181.623649 
L 612.01619 179.85644 
L 616.292989 177.799177 
L 620.439176 175.460033 
L 624.438276 172.8483 
L 628.274403 169.974356 
L 631.932316 166.849619 
L 635.397481 163.486503 
L 638.656131 159.89837 
L 641.695321 156.099475 
L 644.502975 152.104912 
L 647.067938 147.93055 
L 649.380021 143.592974 
L 651.430036 139.109417 
L 653.209841 134.497693 
L 654.712363 129.776123 
L 655.931633 124.963467 
L 656.862806 120.078845 
L 657.502184 115.141663 
L 657.847226 110.171536 
L 657.913009 106.849565 
L 657.913009 106.849565 
" clip-path="url(#p22d9edbb3e)" style="fill: none; stroke: #ff0000; stroke-width: 0.72; stroke-linejoin: miter"/>
   </g>
   <g id="line2d_1">
    <path d="M 75.081533 106.849565 
L 1082.654019 106.849565 
" clip-path="url(#p22d9edbb3e)" style="fill: none; stroke: #ffffff; stroke-width: 0.72; stroke-linecap: square"/>
   </g>
   <g id="line2d_2">
    <path d="M 273.12547 106.849565 
L 292.957244 106.849565 
" clip-path="url(#p22d9edbb3e)" style="fill: none; stroke: #ffffff; stroke-width: 0.72; stroke-linecap: square"/>
   </g>
   <g id="patch_11">
    <path d="M 283.041357 98.586325 
L 291.304596 106.849565 
L 283.041357 115.112804 
L 274.778118 106.849565 
L 283.041357 98.586325 
" clip-path="url(#p22d9edbb3e)" style="fill: none; stroke: #ff0000; stroke-width: 0.72; stroke-linejoin: miter"/>
   </g>
   <g id="line2d_3">
    <path d="M 568.951889 106.849565 
L 588.783663 106.849565 
" clip-path="url(#p22d9edbb3e)" style="fill: none; stroke: #ffffff; stroke-width: 0.72; stroke-linecap: square"/>
   </g>
   <g id="patch_12">
    <path d="M 578.867776 98.586325 
L 587.131016 106.849565 
L 578.867776 115.112804 
L 570.604537 106.849565 
L 578.867776 98.586325 
" clip-path="url(#p22d9edbb3e)" style="fill: none; stroke: #ff0000; stroke-width: 0.72; stroke-linejoin: miter"/>
   </g>
   <g id="line2d_4">
    <path d="M 864.778308 106.849565 
L 884.610082 106.849565 
" clip-path="url(#p22d9edbb3e)" style="fill: none; stroke: #ffffff; stroke-width: 0.72; stroke-linecap: square"/>
   </g>
   <g id="patch_13">
    <path d="M 874.694195 98.586325 
L 882.957435 106.849565 
L 874.694195 115.112804 
L 866.430956 106.849565 
L 874.694195 98.586325 
" clip-path="url(#p22d9edbb3e)" style="fill: none; stroke: #ff0000; stroke-width: 0.72; stroke-linejoin: miter"/>
   </g>
   <g id="line2d_5">
    <path d="M 52.475637 141.593301 
L 714.445372 184.168932 
" clip-path="url(#p22d9edbb3e)" style="fill: none; stroke: #ffffff; stroke-width: 0.72; stroke-linecap: square"/>
   </g>
   <g id="line2d_6">
    <path d="M 181.40618 149.885673 
L 201.197063 151.158555 
" clip-path="url(#p22d9edbb3e)" style="fill: none; stroke: #ffffff; stroke-width: 0.72; stroke-linecap: square"/>
   </g>
   <g id="patch_14">
    <path d="M 191.831989 142.275913 
L 199.547823 151.052481 
L 190.771254 158.768315 
L 183.05542 149.991746 
L 191.831989 142.275913 
" clip-path="url(#p22d9edbb3e)" style="fill: none; stroke: #ff0000; stroke-width: 0.72; stroke-linejoin: miter"/>
   </g>
   <g id="line2d_7">
    <path d="M 341.538583 160.184842 
L 361.329466 161.457724 
" clip-path="url(#p22d9edbb3e)" style="fill: none; stroke: #ffffff; stroke-width: 0.72; stroke-linecap: square"/>
   </g>
   <g id="patch_15">
    <path d="M 351.964392 152.575081 
L 359.680225 161.35165 
L 350.903657 169.067484 
L 343.187823 160.290915 
L 351.964392 152.575081 
" clip-path="url(#p22d9edbb3e)" style="fill: none; stroke: #ff0000; stroke-width: 0.72; stroke-linejoin: miter"/>
   </g>
   <g id="line2d_8">
    <path d="M 583.417703 27.784411 
L 583.417703 26.131763 
" clip-path="url(#p22d9edbb3e)" style="fill: none; stroke: #ff0000; stroke-width: 0.72; stroke-linecap: square"/>
   </g>
   <g id="line2d_9">
    <path d="M 583.417703 185.914719 
L 583.417703 187.567367 
" clip-path="url(#p22d9edbb3e)" style="fill: none; stroke: #ff0000; stroke-width: 0.72; stroke-linecap: square"/>
   </g>
   <g id="line2d_10">
    <path d="M 657.913009 106.849565 
L 659.565657 106.849565 
" clip-path="url(#p22d9edbb3e)" style="fill: none; stroke: #ff0000; stroke-width: 0.72; stroke-linecap: square"/>
   </g>
   <g id="line2d_11">
    <path d="M 508.922397 106.849565 
L 507.269749 106.849565 
" clip-path="url(#p22d9edbb3e)" style="fill: none; stroke: #ff0000; stroke-width: 0.72; stroke-linecap: square"/>
   </g>
   <g id="line2d_12">
    <path d="M 335.52052 200.675419 
L 335.52052 19.747429 
" clip-path="url(#p22d9edbb3e)" style="fill: none; stroke: #ffffff; stroke-width: 0.72; stroke-linecap: square"/>
   </g>
   <g id="line2d_13">
    <path d="M 335.52052 144.043846 
L 335.52052 124.212072 
" clip-path="url(#p22d9edbb3e)" style="fill: none; stroke: #ffffff; stroke-width: 0.72; stroke-linecap: square"/>
   </g>
   <g id="patch_16">
    <path d="M 327.25728 134.127959 
L 335.52052 125.864719 
L 343.783759 134.127959 
L 335.52052 142.391198 
L 327.25728 134.127959 
" clip-path="url(#p22d9edbb3e)" style="fill: none; stroke: #ff0000; stroke-width: 0.72; stroke-linejoin: miter"/>
   </g>
   <g id="line2d_14">
    <path d="M 335.52052 96.210776 
L 335.52052 76.379002 
" clip-path="url(#p22d9edbb3e)" style="fill: none; stroke: #ffffff; stroke-width: 0.72; stroke-linecap: square"/>
   </g>
   <g id="patch_17">
    <path d="M 327.25728 86.294889 
L 335.52052 78.031649 
L 343.783759 86.294889 
L 335.52052 94.558128 
L 327.25728 86.294889 
" clip-path="url(#p22d9edbb3e)" style="fill: none; stroke: #ff0000; stroke-width: 0.72; stroke-linejoin: miter"/>
   </g>
   <g id="line2d_15">
    <path d="M 1079.212069 116.287107 
L 1079.212069 105.72445 
" clip-path="url(#p22d9edbb3e)" style="fill: none; stroke: #ffffff; stroke-width: 0.72; stroke-linecap: square"/>
   </g>
   <g id="line2d_16">
    <path d="M 1079.212069 120.921666 
L 1079.212069 101.089891 
" clip-path="url(#p22d9edbb3e)" style="fill: none; stroke: #ffffff; stroke-width: 0.72; stroke-linecap: square"/>
   </g>
   <g id="patch_18">
    <path d="M 1070.94883 111.005779 
L 1079.212069 102.742539 
L 1087.475309 111.005779 
L 1079.212069 119.269018 
L 1070.94883 111.005779 
" clip-path="url(#p22d9edbb3e)" style="fill: none; stroke: #ff0000; stroke-width: 0.72; stroke-linejoin: miter"/>
   </g>
   <g id="patch_19">
    <path d="M 443.916192 160.073841 
L 452.179432 160.073841 
L 452.179432 168.337081 
L 443.916192 168.337081 
L 452.179432 168.337081 
L 452.179432 176.60032 
L 443.916192 176.60032 
" clip-path="url(#p22d9edbb3e)" style="fill: none; stroke: #ff0000; stroke-width: 0.72; stroke-linejoin: miter"/>
   </g>
   <g id="patch_20">
    <path d="M 459.616347 160.073841 
L 456.311052 160.073841 
L 456.311052 176.60032 
L 459.616347 176.60032 
" clip-path="url(#p22d9edbb3e)" style="fill: none; stroke: #ff0000; stroke-width: 0.72; stroke-linejoin: miter"/>
   </g>
   <g id="patch_21">
    <path d="M 461.268995 176.60032 
L 464.574291 176.60032 
L 464.574291 160.073841 
L 461.268995 160.073841 
" clip-path="url(#p22d9edbb3e)" style="fill: none; stroke: #ff0000; stroke-width: 0.72; stroke-linejoin: miter"/>
   </g>
   <g id="patch_22">
    <path d="M 456.311052 168.337081 
L 459.616347 168.337081 
" clip-path="url(#p22d9edbb3e)" style="fill: none; stroke: #ff0000; stroke-width: 0.72; stroke-linejoin: miter"/>
   </g>
   <g id="patch_23">
    <path d="M 461.268995 168.337081 
L 464.574291 168.337081 
" clip-path="url(#p22d9edbb3e)" style="fill: none; stroke: #ff0000; stroke-width: 0.72; stroke-linejoin: miter"/>
   </g>
  </g>
 </g>
 <defs>
  <clipPath id="p22d9edbb3e">
   <rect x="0" y="0" width="1152" height="214.257857"/>
  </clipPath>
 </defs>
</svg>
