<?xml version="1.0" encoding="utf-8" standalone="no"?>
<!DOCTYPE svg PUBLIC "-//W3C//DTD SVG 1.1//EN"
  "http://www.w3.org/Graphics/SVG/1.1/DTD/svg11.dtd">
<svg xmlns:xlink="http://www.w3.org/1999/xlink" width="1152pt" height="321.325886pt" viewBox="0 0 1152 321.325886" xmlns="http://www.w3.org/2000/svg" version="1.1">
 <metadata>
  <rdf:RDF xmlns:dc="http://purl.org/dc/elements/1.1/" xmlns:cc="http://creativecommons.org/ns#" xmlns:rdf="http://www.w3.org/1999/02/22-rdf-syntax-ns#">
   <cc:Work>
    <dc:type rdf:resource="http://purl.org/dc/dcmitype/StillImage"/>
    <dc:date>2026-01-07T02:07:16.205362</dc:date>
    <dc:format>image/svg+xml</dc:format>
    <dc:creator>
     <cc:Agent>
      <dc:title>Matplotlib v3.10.1, https://matplotlib.org/</dc:title>
     </cc:Agent>
    </dc:creator>
   </cc:Work>
  </rdf:RDF>
 </metadata>
 <defs>
  <style type="text/css">*{stroke-linejoin: round; stroke-linecap: butt}</style>
 </defs>
 <g id="figure_1">
  <g id="patch_1">
   <path d="M 0 321.325886 
L 1152 321.325886 
L 1152 0 
L 0 0 
z
" style="fill: #ffffff"/>
  </g>
  <g id="axes_1">
   <g id="patch_2">
    <path d="M 0 321.325886 
L 1152 321.325886 
L 1152 0 
L 0 0 
z
" style="fill: #212830"/>
   </g>
   <g id="patch_3">
    <path d="M 1099.636364 40.956144 
L 1080.433363 38.290734 
L 1059.490922 35.560701 
L 1038.511099 32.999226 
L 1017.498001 30.601602 
L 996.461162 28.368463 
L 975.403044 26.30267 
L 954.320955 24.403826 
L 933.220458 22.667703 
L 912.116307 21.09442 
L 891.017863 19.688545 
L 869.925187 18.452808 
L 848.842098 17.384519 
L 827.782327 16.484121 
L 806.756502 15.755832 
L 785.764386 15.20449 
L 764.807311 14.828496 
L 743.89805 14.627352 
L 723.047757 14.605722 
L 702.258258 14.768804 
L 681.530107 15.116427 
L 660.87636 15.647647 
L 640.310698 16.36684 
L 619.835335 17.280321 
L 599.453561 18.388092 
L 579.179892 19.689018 
L 559.030576 21.188048 
L 539.009002 22.891862 
L 519.121932 24.799141 
L 499.389497 26.909006 
L 479.827341 29.227938 
L 460.441288 31.760487 
L 441.245878 34.503339 
L 422.265513 37.456988 
L 403.515916 40.626305 
L 385.010616 44.007767 
L 366.788021 47.587521 
L 348.894277 51.363433 
L 331.357407 55.337825 
L 314.208487 59.496399 
L 297.503391 63.818814 
L 281.292092 68.297972 
L 265.609366 72.92007 
L 250.502955 77.651672 
L 236.03145 82.463103 
L 222.234481 87.335998 
L 209.1381 92.238179 
L 196.772495 97.128832 
L 185.157981 101.981449 
L 174.290938 106.77712 
L 164.15622 111.488573 
L 154.73684 116.091361 
L 146.006627 120.576901 
L 137.92644 124.944954 
L 130.45092 129.191117 
L 123.538256 133.308224 
L 117.150319 137.297382 
L 111.247669 141.167586 
L 105.790902 144.927893 
L 100.742236 148.584145 
L 96.070729 152.138477 
L 91.751055 155.5978 
L 87.759824 158.974524 
L 84.068609 162.285202 
L 80.645997 165.535417 
L 74.490103 171.834523 
L 69.15445 177.791864 
L 66.795975 180.641336 
L 64.650535 183.42526 
L 62.71646 186.166504 
L 60.981852 188.886999 
L 59.429885 191.592342 
L 58.042131 194.278721 
L 56.80605 196.929543 
L 55.716264 199.532093 
L 54.77462 202.075557 
L 53.986522 204.559037 
L 53.35635 206.990039 
L 52.884577 209.376318 
L 52.567128 211.724016 
L 52.387776 214.237019 
L 52.363636 216.346702 
L 52.478617 218.671691 
L 52.755275 220.986974 
L 53.213848 223.282089 
L 53.879796 225.558743 
L 54.77504 227.822256 
L 55.908101 230.072403 
L 57.27218 232.301827 
L 58.851838 234.497315 
L 60.636604 236.646271 
L 62.625426 238.738662 
L 64.827759 240.770026 
L 67.253107 242.740307 
L 69.907379 244.654059 
L 72.787678 246.517363 
L 75.891647 248.33687 
L 79.217135 250.116009 
L 82.774064 251.856128 
L 86.577028 253.55775 
L 90.649615 255.222933 
L 95.015243 256.858205 
L 99.697468 258.473603 
L 104.722171 260.080181 
L 115.917464 263.301352 
L 122.169267 264.92366 
L 128.926344 266.557145 
L 136.247107 268.206799 
L 144.195674 269.87746 
L 152.840098 271.571048 
L 162.256931 273.28447 
L 172.528463 275.012489 
L 183.733836 276.752784 
L 195.939408 278.501411 
L 209.195386 280.245171 
L 223.534767 281.965092 
L 238.964207 283.646681 
L 255.447715 285.277824 
L 272.917111 286.837333 
L 291.293952 288.307352 
L 310.480588 289.682765 
L 330.363291 290.956211 
L 350.849646 292.118967 
L 371.861019 293.175356 
L 393.317533 294.130307 
L 437.41931 295.744811 
L 462.374712 296.536754 
L 462.296817 299.091124 
L 505.471623 300.347811 
L 551.411494 301.338673 
L 668.629576 303.268833 
L 715.696391 303.807346 
L 905.995927 305.469249 
L 1000.833242 306.129394 
L 1099.636364 306.720164 
L 1099.636364 40.956144 
L 1099.636364 40.956144 
" clip-path="url(#p27a0dfd672)" style="fill: none; stroke: #ff0000; stroke-width: 0.72; stroke-linejoin: miter"/>
   </g>
   <g id="patch_4">
    <path d="M 639.411148 239.15566 
L 639.411148 251.933447 
L 652.188935 251.933447 
L 652.188935 239.15566 
L 652.188935 264.711234 
" clip-path="url(#p27a0dfd672)" style="fill: none; stroke: #ff0000; stroke-width: 0.72; stroke-linejoin: miter"/>
   </g>
   <g id="patch_5">
    <path d="M 664.966722 239.15566 
L 664.966722 264.711234 
" clip-path="url(#p27a0dfd672)" style="fill: none; stroke: #ff0000; stroke-width: 0.72; stroke-linejoin: miter"/>
   </g>
   <g id="patch_6">
    <path d="M 633.204281 26.916348 
L 622.992213 27.372036 
L 622.536525 17.159968 
L 632.748592 16.70428 
L 633.204281 26.916348 
" clip-path="url(#p27a0dfd672)" style="fill: none; stroke: #ff0000; stroke-width: 0.72; stroke-linejoin: miter"/>
   </g>
   <g id="patch_7">
    <path d="M 276.431508 80.387745 
L 266.626365 83.277928 
L 263.736182 73.472786 
L 273.541325 70.582603 
L 276.431508 80.387745 
" clip-path="url(#p27a0dfd672)" style="fill: none; stroke: #ff0000; stroke-width: 0.72; stroke-linejoin: miter"/>
   </g>
   <g id="patch_8">
    <path d="M 96.634893 168.17856 
L 92.831052 171.592398 
L 84.296457 162.082797 
L 88.100297 158.668959 
L 96.634893 168.17856 
" clip-path="url(#p27a0dfd672)" style="fill: none; stroke: #ff0000; stroke-width: 0.72; stroke-linejoin: miter"/>
   </g>
   <g id="patch_9">
    <path d="M 74.986923 232.563102 
L 79.137171 235.54621 
L 71.679401 245.921831 
L 67.529153 242.938723 
L 74.986923 232.563102 
" clip-path="url(#p27a0dfd672)" style="fill: none; stroke: #ff0000; stroke-width: 0.72; stroke-linejoin: miter"/>
   </g>
   <g id="patch_10">
    <path d="M 353.307724 282.007405 
L 363.51706 282.520669 
L 363.003796 292.730005 
L 352.79446 292.216741 
L 353.307724 282.007405 
" clip-path="url(#p27a0dfd672)" style="fill: none; stroke: #ff0000; stroke-width: 0.72; stroke-linejoin: miter"/>
   </g>
   <g id="patch_11">
    <path d="M 958.853926 160.114594 
L 958.756571 155.19754 
L 958.464677 150.289169 
L 957.978759 145.398151 
L 957.299676 140.533124 
L 956.428628 135.702679 
L 955.367151 130.915348 
L 954.117122 126.179585 
L 952.680748 121.503755 
L 951.060566 116.896115 
L 949.259436 112.364804 
L 947.280541 107.917822 
L 945.127374 103.563025 
L 942.803739 99.308103 
L 940.313739 95.160571 
L 937.661772 91.127754 
L 934.852521 87.216774 
L 931.890949 83.434539 
L 928.782284 79.787727 
L 925.532019 76.28278 
L 922.145892 72.925888 
L 918.629884 69.722979 
L 914.990204 66.67971 
L 911.233281 63.801456 
L 907.36575 61.093299 
L 903.394441 58.560023 
L 899.326367 56.206103 
L 895.168714 54.035694 
L 890.928825 52.05263 
L 886.614186 50.260414 
L 882.232419 48.66221 
L 877.791261 47.260841 
L 873.298557 46.058783 
L 868.762241 45.058158 
L 864.190324 44.260733 
L 859.590881 43.667916 
L 854.972035 43.280756 
L 850.341943 43.099934 
L 845.708782 43.125772 
L 841.080736 43.358222 
L 836.465977 43.796875 
L 831.872656 44.440956 
L 827.308884 45.289327 
L 822.782723 46.34049 
L 818.302165 47.592589 
L 813.875123 49.043412 
L 809.509417 50.690397 
L 805.212756 52.530635 
L 800.992729 54.560876 
L 796.856788 56.777535 
L 792.812239 59.176697 
L 788.866223 61.754125 
L 785.025711 64.505266 
L 781.297485 67.425262 
L 777.688129 70.508956 
L 774.204018 73.750902 
L 770.851305 77.145374 
L 767.635911 80.686377 
L 764.563515 84.367658 
L 761.639543 88.182715 
L 758.869159 92.124811 
L 756.257256 96.186983 
L 753.808446 100.362056 
L 751.527055 104.642658 
L 749.417111 109.021229 
L 747.482342 113.490036 
L 745.726163 118.041185 
L 744.151677 122.666641 
L 742.761664 127.358232 
L 741.558579 132.107675 
L 740.544547 136.90658 
L 739.721359 141.746473 
L 739.090468 146.618806 
L 738.65299 151.514973 
L 738.409695 156.426328 
L 738.361015 161.344197 
L 738.507034 166.259895 
L 738.847496 171.164739 
L 739.381799 176.050067 
L 740.108999 180.907253 
L 741.027812 185.727716 
L 742.136615 190.502944 
L 743.43345 195.224504 
L 744.916027 199.884056 
L 746.581727 204.473372 
L 748.427609 208.984346 
L 750.450412 213.409011 
L 752.646564 217.739554 
L 755.012187 221.968325 
L 757.543102 226.087858 
L 760.23484 230.090875 
L 763.082647 233.970308 
L 766.081493 237.719305 
L 769.226082 241.331244 
L 772.510861 244.799748 
L 775.930028 248.11869 
L 779.477545 251.282208 
L 783.147146 254.284716 
L 786.932351 257.120911 
L 790.826475 259.785783 
L 794.822639 262.274628 
L 798.913787 264.583048 
L 803.092694 266.706967 
L 807.351978 268.642634 
L 811.684118 270.386631 
L 816.081463 271.935877 
L 820.536246 273.287636 
L 825.040601 274.439521 
L 829.586571 275.389498 
L 834.166128 276.135889 
L 838.771185 276.677375 
L 843.393609 277.013001 
L 848.025235 277.142173 
L 852.657884 277.064664 
L 857.283374 276.780611 
L 861.893536 276.290514 
L 866.480229 275.59524 
L 871.035351 274.696016 
L 875.550858 273.594431 
L 880.018776 272.29243 
L 884.431212 270.792313 
L 888.780376 269.096728 
L 893.058584 267.208672 
L 897.258283 265.131477 
L 901.372055 262.868812 
L 905.392633 260.424674 
L 909.312919 257.803379 
L 913.125988 255.009557 
L 916.825106 252.048142 
L 920.40374 248.924363 
L 923.85557 245.643738 
L 927.174499 242.212061 
L 930.354666 238.635392 
L 933.390455 234.920048 
L 936.276503 231.072591 
L 939.007715 227.099815 
L 941.579266 223.008737 
L 943.986615 218.806583 
L 946.225511 214.500773 
L 948.291998 210.098911 
L 950.182428 205.608773 
L 951.893462 201.038288 
L 953.422078 196.395528 
L 954.765576 191.688693 
L 955.921584 186.926095 
L 956.888059 182.116145 
L 957.663296 177.267338 
L 958.245925 172.388238 
L 958.634917 167.487462 
L 958.829585 162.573664 
L 958.853926 160.114594 
L 958.853926 160.114594 
" clip-path="url(#p27a0dfd672)" style="fill: none; stroke: #ff0000; stroke-width: 0.72; stroke-linejoin: miter"/>
   </g>
   <g id="patch_12">
    <path d="M 398.532583 147.336807 
L 411.310369 160.114594 
L 398.532583 172.892381 
L 385.754796 160.114594 
L 398.532583 147.336807 
" clip-path="url(#p27a0dfd672)" style="fill: none; stroke: #ff0000; stroke-width: 0.72; stroke-linejoin: miter"/>
   </g>
   <g id="patch_13">
    <path d="M 841.681705 147.336807 
L 854.459492 160.114594 
L 841.681705 172.892381 
L 828.903919 160.114594 
L 841.681705 147.336807 
" clip-path="url(#p27a0dfd672)" style="fill: none; stroke: #ff0000; stroke-width: 0.72; stroke-linejoin: miter"/>
   </g>
   <g id="patch_14">
    <path d="M 479.685636 226.891853 
L 491.616947 240.463423 
L 478.045378 252.394734 
L 466.114067 238.823164 
L 479.685636 226.891853 
" clip-path="url(#p27a0dfd672)" style="fill: none; stroke: #ff0000; stroke-width: 0.72; stroke-linejoin: miter"/>
   </g>
   <g id="patch_15">
    <path d="M 991.88203 259.834574 
L 1003.813341 273.406144 
L 990.241772 285.337455 
L 978.310461 271.765886 
L 991.88203 259.834574 
" clip-path="url(#p27a0dfd672)" style="fill: none; stroke: #ff0000; stroke-width: 0.72; stroke-linejoin: miter"/>
   </g>
   <g id="patch_16">
    <path d="M 452.493035 200.380192 
L 465.270822 187.602406 
L 478.048609 200.380192 
L 465.270822 213.157979 
L 452.493035 200.380192 
" clip-path="url(#p27a0dfd672)" style="fill: none; stroke: #ff0000; stroke-width: 0.72; stroke-linejoin: miter"/>
   </g>
   <g id="patch_17">
    <path d="M 452.493035 129.931192 
L 465.270822 117.153405 
L 478.048609 129.931192 
L 465.270822 142.708978 
L 452.493035 129.931192 
" clip-path="url(#p27a0dfd672)" style="fill: none; stroke: #ff0000; stroke-width: 0.72; stroke-linejoin: miter"/>
   </g>
   <g id="line2d_1">
    <path d="M 86.488711 160.114594 
L 1099.636364 160.114594 
" clip-path="url(#p27a0dfd672)" style="fill: none; stroke: #ffffff; stroke-width: 0.72; stroke-linecap: square"/>
   </g>
   <g id="line2d_2">
    <path d="M 383.199238 160.114594 
L 413.865927 160.114594 
" clip-path="url(#p27a0dfd672)" style="fill: none; stroke: #ffffff; stroke-width: 0.72; stroke-linecap: square"/>
   </g>
   <g id="line2d_3">
    <path d="M 826.348361 160.114594 
L 857.01505 160.114594 
" clip-path="url(#p27a0dfd672)" style="fill: none; stroke: #ffffff; stroke-width: 0.72; stroke-linecap: square"/>
   </g>
   <g id="line2d_4">
    <path d="M 52.53152 212.222949 
L 1099.636364 279.569153 
" clip-path="url(#p27a0dfd672)" style="fill: none; stroke: #ffffff; stroke-width: 0.72; stroke-linecap: square"/>
   </g>
   <g id="line2d_5">
    <path d="M 463.563779 238.659139 
L 494.167235 240.627448 
" clip-path="url(#p27a0dfd672)" style="fill: none; stroke: #ffffff; stroke-width: 0.72; stroke-linecap: square"/>
   </g>
   <g id="line2d_6">
    <path d="M 975.760173 271.60186 
L 1006.363629 273.570169 
" clip-path="url(#p27a0dfd672)" style="fill: none; stroke: #ffffff; stroke-width: 0.72; stroke-linecap: square"/>
   </g>
   <g id="line2d_7">
    <path d="M 848.604428 43.0854 
L 848.604428 40.529843 
" clip-path="url(#p27a0dfd672)" style="fill: none; stroke: #ff0000; stroke-width: 0.72; stroke-linecap: square"/>
   </g>
   <g id="line2d_8">
    <path d="M 848.604428 277.143788 
L 848.604428 279.699346 
" clip-path="url(#p27a0dfd672)" style="fill: none; stroke: #ff0000; stroke-width: 0.72; stroke-linecap: square"/>
   </g>
   <g id="line2d_9">
    <path d="M 958.853926 160.114594 
L 961.409484 160.114594 
" clip-path="url(#p27a0dfd672)" style="fill: none; stroke: #ff0000; stroke-width: 0.72; stroke-linecap: square"/>
   </g>
   <g id="line2d_10">
    <path d="M 738.354929 160.114594 
L 735.799372 160.114594 
" clip-path="url(#p27a0dfd672)" style="fill: none; stroke: #ff0000; stroke-width: 0.72; stroke-linecap: square"/>
   </g>
   <g id="line2d_11">
    <path d="M 465.270822 299.181816 
L 465.270822 31.129568 
" clip-path="url(#p27a0dfd672)" style="fill: none; stroke: #ffffff; stroke-width: 0.72; stroke-linecap: square"/>
   </g>
   <g id="line2d_12">
    <path d="M 465.270822 215.713537 
L 465.270822 185.046848 
" clip-path="url(#p27a0dfd672)" style="fill: none; stroke: #ffffff; stroke-width: 0.72; stroke-linecap: square"/>
   </g>
   <g id="line2d_13">
    <path d="M 465.270822 145.264536 
L 465.270822 114.597847 
" clip-path="url(#p27a0dfd672)" style="fill: none; stroke: #ffffff; stroke-width: 0.72; stroke-linecap: square"/>
   </g>
  </g>
 </g>
 <defs>
  <clipPath id="p27a0dfd672">
   <rect x="0" y="0" width="1152" height="321.325886"/>
  </clipPath>
 </defs>
</svg>
