  0
SECTION
  2
HEADER
  9
$ACADVER
  1
AC1021
  9
$ACADMAINTVER
 70
25
  9
$DWGCODEPAGE
  3
ANSI_1252
  9
$LASTSAVEDBY
  1
ezdxf
  9
$INSBASE
 10
0.0
 20
0.0
 30
0.0
  9
$EXTMIN
 10
1e+20
 20
1e+20
 30
1e+20
  9
$EXTMAX
 10
-1e+20
 20
-1e+20
 30
-1e+20
  9
$LIMMIN
 10
0.0
 20
0.0
  9
$LIMMAX
 10
420.0
 20
297.0
  9
$ORTHOMODE
 70
0
  9
$REGENMODE
 70
1
  9
$FILLMODE
 70
1
  9
$QTEXTMODE
 70
0
  9
$MIRRTEXT
 70
1
  9
$LTSCALE
 40
1.0
  9
$ATTMODE
 70
1
  9
$TEXTSIZE
 40
2.5
  9
$TRACEWID
 40
1.0
  9
$TEXTSTYLE
  7
OpenSans
  9
$CLAYER
  8
0
  9
$CELTYPE
  6
ByLayer
  9
$CECOLOR
 62
256
  9
$CELTSCALE
 40
1.0
  9
$DISPSILH
 70
0
  9
$DIMSCALE
 40
1.0
  9
$DIMASZ
 40
0.175
  9
$DIMEXO
 40
0.125
  9
$DIMDLI
 40
3.75
  9
$DIMRND
 40
0.0
  9
$DIMDLE
 40
0.0
  9
$DIMEXE
 40
0.375
  9
$DIMTP
 40
0.0
  9
$DIMTM
 40
0.0
  9
$DIMTXT
 40
0.25
  9
$DIMCEN
 40
2.5
  9
$DIMTSZ
 40
0.0
  9
$DIMTOL
 70
0
  9
$DIMLIM
 70
0
  9
$DIMTIH
 70
0
  9
$DIMTOH
 70
0
  9
$DIMSE1
 70
0
  9
$DIMSE2
 70
0
  9
$DIMTAD
 70
1
  9
$DIMZIN
 70
12
  9
$DIMBLK
  1
ARCHTICK
  9
$DIMASO
 70
1
  9
$DIMSHO
 70
1
  9
$DIMPOST
  1

  9
$DIMAPOST
  1

  9
$DIMALT
 70
0
  9
$DIMALTD
 70
3
  9
$DIMALTF
 40
0.03937007874
  9
$DIMLFAC
 40
100.0
  9
$DIMTOFL
 70
1
  9
$DIMTVP
 40
0.0
  9
$DIMTIX
 70
0
  9
$DIMSOXD
 70
0
  9
$DIMSAH
 70
0
  9
$DIMBLK1
  1

  9
$DIMBLK2
  1

  9
$DIMSTYLE
  2
EZDXF
  9
$DIMCLRD
 70
0
  9
$DIMCLRE
 70
0
  9
$DIMCLRT
 70
0
  9
$DIMTFAC
 40
0.5
  9
$DIMGAP
 40
0.1
  9
$DIMJUST
 70
0
  9
$DIMSD1
 70
0
  9
$DIMSD2
 70
0
  9
$DIMTOLJ
 70
0
  9
$DIMTZIN
 70
8
  9
$DIMALTZ
 70
0
  9
$DIMALTTZ
 70
0
  9
$DIMUPT
 70
1
  9
$DIMDEC
 70
2
  9
$DIMTDEC
 70
2
  9
$DIMALTU
 70
2
  9
$DIMALTTD
 70
3
  9
$DIMTXSTY
  7
OpenSansCondensed-Light
  9
$DIMAUNIT
 70
0
  9
$DIMADEC
 70
2
  9
$DIMALTRND
 40
0.0
  9
$DIMAZIN
 70
3
  9
$DIMDSEP
 70
46
  9
$DIMATFIT
 70
3
  9
$DIMFRAC
 70
0
  9
$DIMLDRBLK
  1

  9
$DIMLUNIT
 70
2
  9
$DIMLWD
 70
-2
  9
$DIMLWE
 70
-2
  9
$DIMTMOVE
 70
2
  9
$DIMFXL
 40
1.0
  9
$DIMFXLON
 70
0
  9
$DIMJOGANG
 40
0.785398163397
  9
$DIMTFILL
 70
0
  9
$DIMTFILLCLR
 70
0
  9
$DIMARCSYM
 70
0
  9
$DIMLTYPE
  6

  9
$DIMLTEX1
  6

  9
$DIMLTEX2
  6

  9
$LUNITS
 70
2
  9
$LUPREC
 70
4
  9
$SKETCHINC
 40
1.0
  9
$FILLETRAD
 40
10.0
  9
$AUNITS
 70
0
  9
$AUPREC
 70
2
  9
$MENU
  1
.
  9
$ELEVATION
 40
0.0
  9
$PELEVATION
 40
0.0
  9
$THICKNESS
 40
0.0
  9
$LIMCHECK
 70
0
  9
$CHAMFERA
 40
0.0
  9
$CHAMFERB
 40
0.0
  9
$CHAMFERC
 40
0.0
  9
$CHAMFERD
 40
0.0
  9
$SKPOLY
 70
0
  9
$TDCREATE
 40
2461048.0883333334
  9
$TDUCREATE
 40
2458532.153996898
  9
$TDUPDATE
 40
2461048.0883333334
  9
$TDUUPDATE
 40
2458532.1544311
  9
$TDINDWG
 40
0.0
  9
$TDUSRTIMER
 40
0.0
  9
$USRTIMER
 70
1
  9
$ANGBASE
 50
0.0
  9
$ANGDIR
 70
0
  9
$PDMODE
 70
0
  9
$PDSIZE
 40
0.0
  9
$PLINEWID
 40
0.0
  9
$SPLFRAME
 70
0
  9
$SPLINETYPE
 70
6
  9
$SPLINESEGS
 70
8
  9
$HANDSEED
  5
AB
  9
$SURFTAB1
 70
6
  9
$SURFTAB2
 70
6
  9
$SURFTYPE
 70
6
  9
$SURFU
 70
6
  9
$SURFV
 70
6
  9
$UCSBASE
  2

  9
$UCSNAME
  2

  9
$UCSORG
 10
0.0
 20
0.0
 30
0.0
  9
$UCSXDIR
 10
1.0
 20
0.0
 30
0.0
  9
$UCSYDIR
 10
0.0
 20
1.0
 30
0.0
  9
$UCSORTHOREF
  2

  9
$UCSORTHOVIEW
 70
0
  9
$UCSORGTOP
 10
0.0
 20
0.0
 30
0.0
  9
$UCSORGBOTTOM
 10
0.0
 20
0.0
 30
0.0
  9
$UCSORGLEFT
 10
0.0
 20
0.0
 30
0.0
  9
$UCSORGRIGHT
 10
0.0
 20
0.0
 30
0.0
  9
$UCSORGFRONT
 10
0.0
 20
0.0
 30
0.0
  9
$UCSORGBACK
 10
0.0
 20
0.0
 30
0.0
  9
$PUCSBASE
  2

  9
$PUCSNAME
  2

  9
$PUCSORG
 10
0.0
 20
0.0
 30
0.0
  9
$PUCSXDIR
 10
1.0
 20
0.0
 30
0.0
  9
$PUCSYDIR
 10
0.0
 20
1.0
 30
0.0
  9
$PUCSORTHOREF
  2

  9
$PUCSORTHOVIEW
 70
0
  9
$PUCSORGTOP
 10
0.0
 20
0.0
 30
0.0
  9
$PUCSORGBOTTOM
 10
0.0
 20
0.0
 30
0.0
  9
$PUCSORGLEFT
 10
0.0
 20
0.0
 30
0.0
  9
$PUCSORGRIGHT
 10
0.0
 20
0.0
 30
0.0
  9
$PUCSORGFRONT
 10
0.0
 20
0.0
 30
0.0
  9
$PUCSORGBACK
 10
0.0
 20
0.0
 30
0.0
  9
$USERI1
 70
0
  9
$USERI2
 70
0
  9
$USERI3
 70
0
  9
$USERI4
 70
0
  9
$USERI5
 70
0
  9
$USERR1
 40
0.0
  9
$USERR2
 40
0.0
  9
$USERR3
 40
0.0
  9
$USERR4
 40
0.0
  9
$USERR5
 40
0.0
  9
$WORLDVIEW
 70
1
  9
$SHADEDGE
 70
3
  9
$SHADEDIF
 70
70
  9
$TILEMODE
 70
1
  9
$MAXACTVP
 70
64
  9
$PINSBASE
 10
0.0
 20
0.0
 30
0.0
  9
$PLIMCHECK
 70
0
  9
$PEXTMIN
 10
1e+20
 20
1e+20
 30
1e+20
  9
$PEXTMAX
 10
-1e+20
 20
-1e+20
 30
-1e+20
  9
$PLIMMIN
 10
0.0
 20
0.0
  9
$PLIMMAX
 10
420.0
 20
297.0
  9
$UNITMODE
 70
0
  9
$VISRETAIN
 70
1
  9
$PLINEGEN
 70
0
  9
$PSLTSCALE
 70
1
  9
$TREEDEPTH
 70
3020
  9
$CMLSTYLE
  2
Standard
  9
$CMLJUST
 70
0
  9
$CMLSCALE
 40
20.0
  9
$PROXYGRAPHICS
 70
1
  9
$MEASUREMENT
 70
1
  9
$CELWEIGHT
370
-1
  9
$ENDCAPS
280
0
  9
$JOINSTYLE
280
0
  9
$LWDISPLAY
290
0
  9
$INSUNITS
 70
6
  9
$HYPERLINKBASE
  1

  9
$STYLESHEET
  1

  9
$XEDIT
290
1
  9
$CEPSNTYPE
380
0
  9
$PSTYLEMODE
290
1
  9
$FINGERPRINTGUID
  2
{5708F2F8-94CE-431F-A36E-09AC31FCE446}
  9
$VERSIONGUID
  2
{8E39364E-9380-417C-B89D-68A8E707D18D}
  9
$EXTNAMES
290
1
  9
$PSVPSCALE
 40
0.0
  9
$OLESTARTUP
290
0
  9
$SORTENTS
280
127
  9
$INDEXCTL
280
0
  9
$HIDETEXT
280
1
  9
$XCLIPFRAME
290
1
  9
$HALOGAP
280
0
  9
$OBSCOLOR
 70
257
  9
$OBSLTYPE
280
0
  9
$INTERSECTIONDISPLAY
280
0
  9
$INTERSECTIONCOLOR
 70
257
  9
$DIMASSOC
280
2
  9
$PROJECTNAME
  1

  9
$CAMERADISPLAY
290
0
  9
$LENSLENGTH
 40
50.0
  9
$CAMERAHEIGHT
 40
0.0
  9
$STEPSPERSEC
 40
24.0
  9
$STEPSIZE
 40
100.0
  9
$3DDWFPREC
 40
2.0
  9
$PSOLWIDTH
 40
0.005
  9
$PSOLHEIGHT
 40
0.08
  9
$LOFTANG1
 40
1.570796326795
  9
$LOFTANG2
 40
1.570796326795
  9
$LOFTMAG1
 40
0.0
  9
$LOFTMAG2
 40
0.0
  9
$LOFTPARAM
 70
7
  9
$LOFTNORMALS
280
1
  9
$LATITUDE
 40
37.795
  9
$LONGITUDE
 40
-122.394
  9
$NORTHDIRECTION
 40
0.0
  9
$TIMEZONE
 70
-8000
  9
$LIGHTGLYPHDISPLAY
280
1
  9
$TILEMODELIGHTSYNCH
280
1
  9
$CMATERIAL
347
20
  9
$SOLIDHIST
280
0
  9
$SHOWHIST
280
1
  9
$DWFFRAME
280
2
  9
$DGNFRAME
280
2
  9
$REALWORLDSCALE
290
1
  9
$INTERFERECOLOR
 62
256
  9
$CSHADOW
280
0
  9
$SHADOWPLANELOCATION
 40
0.0
  0
ENDSEC
  0
SECTION
  2
CLASSES
  0
CLASS
  1
ACDBDICTIONARYWDFLT
  2
AcDbDictionaryWithDefault
  3
ObjectDBX Classes
 90
0
 91
0
280
0
281
0
  0
CLASS
  1
SUN
  2
AcDbSun
  3
SCENEOE
 90
1153
 91
0
280
0
281
0
  0
CLASS
  1
VISUALSTYLE
  2
AcDbVisualStyle
  3
ObjectDBX Classes
 90
4095
 91
0
280
0
281
0
  0
CLASS
  1
MATERIAL
  2
AcDbMaterial
  3
ObjectDBX Classes
 90
1153
 91
0
280
0
281
0
  0
CLASS
  1
SCALE
  2
AcDbScale
  3
ObjectDBX Classes
 90
1153
 91
0
280
0
281
0
  0
CLASS
  1
TABLESTYLE
  2
AcDbTableStyle
  3
ObjectDBX Classes
 90
4095
 91
0
280
0
281
0
  0
CLASS
  1
MLEADERSTYLE
  2
AcDbMLeaderStyle
  3
ACDB_MLEADERSTYLE_CLASS
 90
4095
 91
0
280
0
281
0
  0
CLASS
  1
DICTIONARYVAR
  2
AcDbDictionaryVar
  3
ObjectDBX Classes
 90
0
 91
0
280
0
281
0
  0
CLASS
  1
CELLSTYLEMAP
  2
AcDbCellStyleMap
  3
ObjectDBX Classes
 90
1152
 91
0
280
0
281
0
  0
CLASS
  1
MENTALRAYRENDERSETTINGS
  2
AcDbMentalRayRenderSettings
  3
SCENEOE
 90
1024
 91
0
280
0
281
0
  0
CLASS
  1
ACDBDETAILVIEWSTYLE
  2
AcDbDetailViewStyle
  3
ObjectDBX Classes
 90
1025
 91
0
280
0
281
0
  0
CLASS
  1
ACDBSECTIONVIEWSTYLE
  2
AcDbSectionViewStyle
  3
ObjectDBX Classes
 90
1025
 91
0
280
0
281
0
  0
CLASS
  1
RASTERVARIABLES
  2
AcDbRasterVariables
  3
ISM
 90
0
 91
0
280
0
281
0
  0
CLASS
  1
ACDBPLACEHOLDER
  2
AcDbPlaceHolder
  3
ObjectDBX Classes
 90
0
 91
0
280
0
281
0
  0
CLASS
  1
LAYOUT
  2
AcDbLayout
  3
ObjectDBX Classes
 90
0
 91
0
280
0
281
0
  0
ENDSEC
  0
SECTION
  2
TABLES
  0
TABLE
  2
VPORT
  5
8
330
0
100
AcDbSymbolTable
 70
1
  0
VPORT
  5
23
330
8
100
AcDbSymbolTableRecord
100
AcDbViewportTableRecord
  2
*Active
 70
0
 10
0.0
 20
0.0
 11
1.0
 21
1.0
 12
0.0
 22
0.0
 13
0.0
 23
0.0
 14
0.5
 24
0.5
 15
0.5
 25
0.5
 16
0.0
 26
0.0
 36
1.0
 17
0.0
 27
0.0
 37
0.0
 40
1000.0
 41
1.34
 42
50.0
 43
0.0
 44
0.0
 50
0.0
 51
0.0
 71
0
 72
1000
 73
1
 74
3
 75
0
 76
0
 77
0
 78
0
281
0
 65
0
146
0.0
  0
ENDTAB
  0
TABLE
  2
LTYPE
  5
2
330
0
100
AcDbSymbolTable
 70
21
  0
LTYPE
  5
24
330
2
100
AcDbSymbolTableRecord
100
AcDbLinetypeTableRecord
  2
ByBlock
 70
0
  3

 72
65
 73
0
 40
0.0
  0
LTYPE
  5
25
330
2
100
AcDbSymbolTableRecord
100
AcDbLinetypeTableRecord
  2
ByLayer
 70
0
  3

 72
65
 73
0
 40
0.0
  0
LTYPE
  5
26
330
2
100
AcDbSymbolTableRecord
100
AcDbLinetypeTableRecord
  2
Continuous
 70
0
  3

 72
65
 73
0
 40
0.0
  0
LTYPE
  5
2F
330
2
100
AcDbSymbolTableRecord
100
AcDbLinetypeTableRecord
  2
CENTER
 70
0
  3
Center ____ _ ____ _ ____ _ ____ _ ____ _ ____
 72
65
 73
4
 40
5.08
 49
3.175
 74
0
 49
-0.635
 74
0
 49
0.635
 74
0
 49
-0.635
 74
0
  0
LTYPE
  5
30
330
2
100
AcDbSymbolTableRecord
100
AcDbLinetypeTableRecord
  2
CENTERX2
 70
0
  3
Center (2x) ________  __  ________  __  ________
 72
65
 73
4
 40
8.89
 49
6.35
 74
0
 49
-0.635
 74
0
 49
1.27
 74
0
 49
-0.635
 74
0
  0
LTYPE
  5
31
330
2
100
AcDbSymbolTableRecord
100
AcDbLinetypeTableRecord
  2
CENTER2
 70
0
  3
Center (.5x) ____ _ ____ _ ____ _ ____ _ ____
 72
65
 73
4
 40
2.54
 49
1.587
 74
0
 49
-0.318
 74
0
 49
0.318
 74
0
 49
-0.318
 74
0
  0
LTYPE
  5
32
330
2
100
AcDbSymbolTableRecord
100
AcDbLinetypeTableRecord
  2
DASHED
 70
0
  3
Dashed __ __ __ __ __ __ __ __ __ __ __ __ __ _
 72
65
 73
2
 40
1.524
 49
1.27
 74
0
 49
-0.254
 74
0
  0
LTYPE
  5
33
330
2
100
AcDbSymbolTableRecord
100
AcDbLinetypeTableRecord
  2
DASHEDX2
 70
0
  3
Dashed (2x) ____  ____  ____  ____  ____  ____
 72
65
 73
2
 40
3.048
 49
2.54
 74
0
 49
-0.508
 74
0
  0
LTYPE
  5
34
330
2
100
AcDbSymbolTableRecord
100
AcDbLinetypeTableRecord
  2
DASHED2
 70
0
  3
Dashed (.5x) _ _ _ _ _ _ _ _ _ _ _ _ _ _
 72
65
 73
2
 40
0.762
 49
0.635
 74
0
 49
-0.127
 74
0
  0
LTYPE
  5
35
330
2
100
AcDbSymbolTableRecord
100
AcDbLinetypeTableRecord
  2
PHANTOM
 70
0
  3
Phantom ______  __  __  ______  __  __  ______
 72
65
 73
6
 40
6.35
 49
3.175
 74
0
 49
-0.635
 74
0
 49
0.635
 74
0
 49
-0.635
 74
0
 49
0.635
 74
0
 49
-0.635
 74
0
  0
LTYPE
  5
36
330
2
100
AcDbSymbolTableRecord
100
AcDbLinetypeTableRecord
  2
PHANTOMX2
 70
0
  3
Phantom (2x)____________    ____    ____    ____________
 72
65
 73
6
 40
10.795
 49
6.35
 74
0
 49
-0.635
 74
0
 49
1.27
 74
0
 49
-0.635
 74
0
 49
1.27
 74
0
 49
-0.635
 74
0
  0
LTYPE
  5
37
330
2
100
AcDbSymbolTableRecord
100
AcDbLinetypeTableRecord
  2
PHANTOM2
 70
0
  3
Phantom (.5x) ___ _ _ ___ _ _ ___ _ _ ___ _ _ ___
 72
65
 73
6
 40
3.175
 49
1.587
 74
0
 49
-0.318
 74
0
 49
0.318
 74
0
 49
-0.318
 74
0
 49
0.318
 74
0
 49
-0.318
 74
0
  0
LTYPE
  5
38
330
2
100
AcDbSymbolTableRecord
100
AcDbLinetypeTableRecord
  2
DASHDOT
 70
0
  3
Dash dot __ . __ . __ . __ . __ . __ . __ . __
 72
65
 73
4
 40
3.556
 49
2.54
 74
0
 49
-0.508
 74
0
 49
0.0
 74
0
 49
-0.508
 74
0
  0
LTYPE
  5
39
330
2
100
AcDbSymbolTableRecord
100
AcDbLinetypeTableRecord
  2
DASHDOTX2
 70
0
  3
Dash dot (2x) ____  .  ____  .  ____  .  ____
 72
65
 73
4
 40
6.096
 49
5.08
 74
0
 49
-0.508
 74
0
 49
0.0
 74
0
 49
-0.508
 74
0
  0
LTYPE
  5
3A
330
2
100
AcDbSymbolTableRecord
100
AcDbLinetypeTableRecord
  2
DASHDOT2
 70
0
  3
Dash dot (.5x) _ . _ . _ . _ . _ . _ . _ . _
 72
65
 73
4
 40
1.778
 49
1.27
 74
0
 49
-0.254
 74
0
 49
0.0
 74
0
 49
-0.254
 74
0
  0
LTYPE
  5
3B
330
2
100
AcDbSymbolTableRecord
100
AcDbLinetypeTableRecord
  2
DOT
 70
0
  3
Dot .  .  .  .  .  .  .  .  .  .  .  .  .  .  .  .
 72
65
 73
2
 40
0.508
 49
0.0
 74
0
 49
-0.508
 74
0
  0
LTYPE
  5
3C
330
2
100
AcDbSymbolTableRecord
100
AcDbLinetypeTableRecord
  2
DOTX2
 70
0
  3
Dot (2x) .    .    .    .    .    .    .    . 
 72
65
 73
2
 40
1.016
 49
0.0
 74
0
 49
-1.016
 74
0
  0
LTYPE
  5
3D
330
2
100
AcDbSymbolTableRecord
100
AcDbLinetypeTableRecord
  2
DOT2
 70
0
  3
Dot (.5) . . . . . . . . . . . . . . . . . . . 
 72
65
 73
2
 40
0.254
 49
0.0
 74
0
 49
-0.254
 74
0
  0
LTYPE
  5
3E
330
2
100
AcDbSymbolTableRecord
100
AcDbLinetypeTableRecord
  2
DIVIDE
 70
0
  3
Divide __ . . __ . . __ . . __ . . __ . . __
 72
65
 73
6
 40
4.064
 49
2.54
 74
0
 49
-0.508
 74
0
 49
0.0
 74
0
 49
-0.508
 74
0
 49
0.0
 74
0
 49
-0.508
 74
0
  0
LTYPE
  5
3F
330
2
100
AcDbSymbolTableRecord
100
AcDbLinetypeTableRecord
  2
DIVIDEX2
 70
0
  3
Divide (2x) ____  . .  ____  . .  ____  . .  ____
 72
65
 73
6
 40
6.604
 49
5.08
 74
0
 49
-0.508
 74
0
 49
0.0
 74
0
 49
-0.508
 74
0
 49
0.0
 74
0
 49
-0.508
 74
0
  0
LTYPE
  5
40
330
2
100
AcDbSymbolTableRecord
100
AcDbLinetypeTableRecord
  2
DIVIDE2
 70
0
  3
Divide(.5x) _ . _ . _ . _ . _ . _ . _ . _
 72
65
 73
6
 40
2.032
 49
1.27
 74
0
 49
-0.254
 74
0
 49
0.0
 74
0
 49
-0.254
 74
0
 49
0.0
 74
0
 49
-0.254
 74
0
  0
ENDTAB
  0
TABLE
  2
LAYER
  5
1
330
0
100
AcDbSymbolTable
 70
4
  0
LAYER
  5
27
330
1
100
AcDbSymbolTableRecord
100
AcDbLayerTableRecord
  2
0
 70
0
 62
7
  6
Continuous
370
-3
390
13
347
21
  0
LAYER
  5
28
330
1
100
AcDbSymbolTableRecord
100
AcDbLayerTableRecord
  2
Defpoints
 70
0
 62
7
  6
Continuous
290
0
370
-3
390
13
347
21
  0
LAYER
  5
8A
330
1
100
AcDbSymbolTableRecord
100
AcDbLayerTableRecord
  2
Layer
 70
0
 62
1
  6
Continuous
370
50
390
13
347
21
  0
LAYER
  5
8B
330
1
100
AcDbSymbolTableRecord
100
AcDbLayerTableRecord
  2
NumLabel
 70
0
 62
1
  6
Continuous
370
15
390
13
347
21
  0
ENDTAB
  0
TABLE
  2
STYLE
  5
5
330
0
100
AcDbSymbolTable
 70
26
  0
STYLE
  5
29
330
5
100
AcDbSymbolTableRecord
100
AcDbTextStyleTableRecord
  2
Standard
 70
0
 40
0.0
 41
1.0
 50
0.0
 71
0
 42
2.5
  3
txt
  4

  0
STYLE
  5
41
330
5
100
AcDbSymbolTableRecord
100
AcDbTextStyleTableRecord
  2
OpenSans-Light
 70
0
 40
0.0
 41
1.0
 50
0.0
 71
0
 42
2.5
  3
OpenSans-Light.ttf
  4

  0
STYLE
  5
42
330
5
100
AcDbSymbolTableRecord
100
AcDbTextStyleTableRecord
  2
OpenSans-Light-Italic
 70
0
 40
0.0
 41
1.0
 50
0.0
 71
0
 42
2.5
  3
OpenSans-LightItalic.ttf
  4

  0
STYLE
  5
43
330
5
100
AcDbSymbolTableRecord
100
AcDbTextStyleTableRecord
  2
OpenSans
 70
0
 40
0.0
 41
1.0
 50
0.0
 71
0
 42
2.5
  3
OpenSans-Regular.ttf
  4

  0
STYLE
  5
44
330
5
100
AcDbSymbolTableRecord
100
AcDbTextStyleTableRecord
  2
OpenSans-Italic
 70
0
 40
0.0
 41
1.0
 50
0.0
 71
0
 42
2.5
  3
OpenSans-Italic.ttf
  4

  0
STYLE
  5
45
330
5
100
AcDbSymbolTableRecord
100
AcDbTextStyleTableRecord
  2
OpenSans-SemiBold
 70
0
 40
0.0
 41
1.0
 50
0.0
 71
0
 42
2.5
  3
OpenSans-SemiBold.ttf
  4

  0
STYLE
  5
46
330
5
100
AcDbSymbolTableRecord
100
AcDbTextStyleTableRecord
  2
OpenSans-SemiBoldItalic
 70
0
 40
0.0
 41
1.0
 50
0.0
 71
0
 42
2.5
  3
OpenSans-SemiBoldItalic.ttf
  4

  0
STYLE
  5
47
330
5
100
AcDbSymbolTableRecord
100
AcDbTextStyleTableRecord
  2
OpenSans-Bold
 70
0
 40
0.0
 41
1.0
 50
0.0
 71
0
 42
2.5
  3
OpenSans-Bold.ttf
  4

  0
STYLE
  5
48
330
5
100
AcDbSymbolTableRecord
100
AcDbTextStyleTableRecord
  2
OpenSans-BoldItalic
 70
0
 40
0.0
 41
1.0
 50
0.0
 71
0
 42
2.5
  3
OpenSans-BoldItalic.ttf
  4

  0
STYLE
  5
49
330
5
100
AcDbSymbolTableRecord
100
AcDbTextStyleTableRecord
  2
OpenSans-ExtraBold
 70
0
 40
0.0
 41
1.0
 50
0.0
 71
0
 42
2.5
  3
OpenSans-ExtraBold.ttf
  4

  0
STYLE
  5
4A
330
5
100
AcDbSymbolTableRecord
100
AcDbTextStyleTableRecord
  2
OpenSans-ExtraBoldItalic
 70
0
 40
0.0
 41
1.0
 50
0.0
 71
0
 42
2.5
  3
OpenSans-ExtraBoldItalic.ttf
  4

  0
STYLE
  5
4B
330
5
100
AcDbSymbolTableRecord
100
AcDbTextStyleTableRecord
  2
OpenSansCondensed-Bold
 70
0
 40
0.0
 41
1.0
 50
0.0
 71
0
 42
2.5
  3
OpenSansCondensed-Bold.ttf
  4

  0
STYLE
  5
4C
330
5
100
AcDbSymbolTableRecord
100
AcDbTextStyleTableRecord
  2
OpenSansCondensed-Light
 70
0
 40
0.0
 41
1.0
 50
0.0
 71
0
 42
2.5
  3
OpenSansCondensed-Light.ttf
  4

  0
STYLE
  5
4D
330
5
100
AcDbSymbolTableRecord
100
AcDbTextStyleTableRecord
  2
OpenSansCondensed-Italic
 70
0
 40
0.0
 41
1.0
 50
0.0
 71
0
 42
2.5
  3
OpenSansCondensed-LightItalic.ttf
  4

  0
STYLE
  5
4E
330
5
100
AcDbSymbolTableRecord
100
AcDbTextStyleTableRecord
  2
LiberationSans
 70
0
 40
0.0
 41
1.0
 50
0.0
 71
0
 42
2.5
  3
LiberationSans-Regular.ttf
  4

  0
STYLE
  5
4F
330
5
100
AcDbSymbolTableRecord
100
AcDbTextStyleTableRecord
  2
LiberationSans-Bold
 70
0
 40
0.0
 41
1.0
 50
0.0
 71
0
 42
2.5
  3
LiberationSans-Bold.ttf
  4

  0
STYLE
  5
50
330
5
100
AcDbSymbolTableRecord
100
AcDbTextStyleTableRecord
  2
LiberationSans-BoldItalic
 70
0
 40
0.0
 41
1.0
 50
0.0
 71
0
 42
2.5
  3
LiberationSans-BoldItalic.ttf
  4

  0
STYLE
  5
51
330
5
100
AcDbSymbolTableRecord
100
AcDbTextStyleTableRecord
  2
LiberationSans-Italic
 70
0
 40
0.0
 41
1.0
 50
0.0
 71
0
 42
2.5
  3
LiberationSans-Italic.ttf
  4

  0
STYLE
  5
52
330
5
100
AcDbSymbolTableRecord
100
AcDbTextStyleTableRecord
  2
LiberationSerif
 70
0
 40
0.0
 41
1.0
 50
0.0
 71
0
 42
2.5
  3
LiberationSerif-Regular.ttf
  4

  0
STYLE
  5
53
330
5
100
AcDbSymbolTableRecord
100
AcDbTextStyleTableRecord
  2
LiberationSerif-Bold
 70
0
 40
0.0
 41
1.0
 50
0.0
 71
0
 42
2.5
  3
LiberationSerif-Bold.ttf
  4

  0
STYLE
  5
54
330
5
100
AcDbSymbolTableRecord
100
AcDbTextStyleTableRecord
  2
LiberationSerif-BoldItalic
 70
0
 40
0.0
 41
1.0
 50
0.0
 71
0
 42
2.5
  3
LiberationSerif-BoldItalic.ttf
  4

  0
STYLE
  5
55
330
5
100
AcDbSymbolTableRecord
100
AcDbTextStyleTableRecord
  2
LiberationSerif-Italic
 70
0
 40
0.0
 41
1.0
 50
0.0
 71
0
 42
2.5
  3
LiberationSerif-Italic.ttf
  4

  0
STYLE
  5
56
330
5
100
AcDbSymbolTableRecord
100
AcDbTextStyleTableRecord
  2
LiberationMono
 70
0
 40
0.0
 41
1.0
 50
0.0
 71
0
 42
2.5
  3
LiberationMono-Regular.ttf
  4

  0
STYLE
  5
57
330
5
100
AcDbSymbolTableRecord
100
AcDbTextStyleTableRecord
  2
LiberationMono-Bold
 70
0
 40
0.0
 41
1.0
 50
0.0
 71
0
 42
2.5
  3
LiberationMono-Bold.ttf
  4

  0
STYLE
  5
58
330
5
100
AcDbSymbolTableRecord
100
AcDbTextStyleTableRecord
  2
LiberationMono-BoldItalic
 70
0
 40
0.0
 41
1.0
 50
0.0
 71
0
 42
2.5
  3
LiberationMono-BoldItalic.ttf
  4

  0
STYLE
  5
59
330
5
100
AcDbSymbolTableRecord
100
AcDbTextStyleTableRecord
  2
LiberationMono-Italic
 70
0
 40
0.0
 41
1.0
 50
0.0
 71
0
 42
2.5
  3
LiberationMono-Italic.ttf
  4

  0
ENDTAB
  0
TABLE
  2
VIEW
  5
7
330
0
100
AcDbSymbolTable
 70
0
  0
ENDTAB
  0
TABLE
  2
UCS
  5
6
330
0
100
AcDbSymbolTable
 70
0
  0
ENDTAB
  0
TABLE
  2
APPID
  5
3
330
0
100
AcDbSymbolTable
 70
3
  0
APPID
  5
2A
330
3
100
AcDbSymbolTableRecord
100
AcDbRegAppTableRecord
  2
ACAD
 70
0
  0
APPID
  5
A8
330
3
100
AcDbSymbolTableRecord
100
AcDbRegAppTableRecord
  2
HATCHBACKGROUNDCOLOR
 70
0
  0
APPID
  5
A9
330
3
100
AcDbSymbolTableRecord
100
AcDbRegAppTableRecord
  2
EZDXF
 70
0
  0
ENDTAB
  0
TABLE
  2
DIMSTYLE
  5
4
330
0
100
AcDbSymbolTable
 70
12
100
AcDbDimStyleTable
  0
DIMSTYLE
105
2B
330
4
100
AcDbSymbolTableRecord
100
AcDbDimStyleTableRecord
  2
Standard
 70
0
 40
1.0
 41
2.5
 42
0.625
 43
3.75
 44
1.25
 45
0.0
 46
0.0
 47
0.0
 48
0.0
 49
2.5
140
2.5
141
2.5
142
0.0
143
0.03937007874
144
1.0
145
0.0
146
1.0
147
0.625
148
0.0
 69
0
 70
0
 71
0
 72
0
 73
0
 74
0
 75
0
 76
0
 77
1
 78
8
 79
3
170
0
171
3
172
1
173
0
174
0
175
0
176
0
177
0
178
0
179
2
271
2
272
2
273
2
274
3
275
0
276
0
277
2
278
44
279
0
280
0
281
0
282
0
283
0
284
8
285
0
286
0
288
0
289
3
290
0
371
-2
372
-2
  0
DIMSTYLE
105
73
330
4
100
AcDbSymbolTableRecord
100
AcDbDimStyleTableRecord
  2
EZDXF
 70
0
 40
1.0
 41
0.175
 42
0.125
 43
3.75
 44
0.375
 45
0.0
 46
0.0
 47
0.0
 48
0.0
 49
2.5
140
0.25
141
2.5
142
0.0
143
0.03937007874
144
100.0
145
0.0
146
0.5
147
0.1
148
0.0
 69
0
 70
0
 71
0
 72
0
 73
0
 74
0
 75
0
 76
0
 77
1
 78
12
 79
3
170
0
171
3
172
1
173
0
174
0
175
0
176
0
177
0
178
0
179
2
271
2
272
2
273
2
274
3
275
0
276
0
277
2
278
46
279
2
280
0
281
0
282
0
283
0
284
8
285
0
286
0
288
1
289
3
290
0
340
4C
342
74
371
-2
372
-2
  0
DIMSTYLE
105
7C
330
4
100
AcDbSymbolTableRecord
100
AcDbDimStyleTableRecord
  2
EZ_M_100_H25_CM
 70
0
 40
1.0
 41
0.25
 42
0.125
 43
3.75
 44
0.375
 45
0.0
 46
0.0
 47
0.0
 48
0.0
 49
2.5
140
0.25
141
2.5
142
0.125
143
0.03937007874
144
100.0
145
0.0
146
0.5
147
0.1
148
0.0
 69
0
 70
0
 71
0
 72
0
 73
0
 74
0
 75
0
 76
0
 77
1
 78
12
 79
3
170
0
171
3
172
1
173
0
174
0
175
0
176
0
177
0
178
0
179
2
271
2
272
2
273
2
274
3
275
0
276
0
277
2
278
46
279
2
280
0
281
0
282
0
283
0
284
8
285
0
286
0
288
1
289
3
290
0
340
4C
371
-2
372
-2
  0
DIMSTYLE
105
7D
330
4
100
AcDbSymbolTableRecord
100
AcDbDimStyleTableRecord
  2
EZ_M_50_H25_CM
 70
0
 40
1.0
 41
0.125
 42
0.0625
 43
3.75
 44
0.1875
 45
0.0
 46
0.0
 47
0.0
 48
0.0
 49
2.5
140
0.125
141
2.5
142
0.0625
143
0.03937007874
144
100.0
145
0.0
146
0.5
147
0.05
148
0.0
 69
0
 70
0
 71
0
 72
0
 73
0
 74
0
 75
0
 76
0
 77
1
 78
12
 79
3
170
0
171
3
172
1
173
0
174
0
175
0
176
0
177
0
178
0
179
2
271
2
272
2
273
2
274
3
275
0
276
0
277
2
278
46
279
2
280
0
281
0
282
0
283
0
284
8
285
0
286
0
288
1
289
3
290
0
340
4C
371
-2
372
-2
  0
DIMSTYLE
105
7E
330
4
100
AcDbSymbolTableRecord
100
AcDbDimStyleTableRecord
  2
EZ_M_25_H25_CM
 70
0
 40
1.0
 41
0.0625
 42
0.03125
 43
3.75
 44
0.09375
 45
0.0
 46
0.0
 47
0.0
 48
0.0
 49
2.5
140
0.0625
141
2.5
142
0.03125
143
0.03937007874
144
100.0
145
0.0
146
0.5
147
0.025
148
0.0
 69
0
 70
0
 71
0
 72
0
 73
0
 74
0
 75
0
 76
0
 77
1
 78
12
 79
3
170
0
171
3
172
1
173
0
174
0
175
0
176
0
177
0
178
0
179
2
271
2
272
2
273
2
274
3
275
0
276
0
277
2
278
46
279
2
280
0
281
0
282
0
283
0
284
8
285
0
286
0
288
1
289
3
290
0
340
4C
371
-2
372
-2
  0
DIMSTYLE
105
7F
330
4
100
AcDbSymbolTableRecord
100
AcDbDimStyleTableRecord
  2
EZ_M_20_H25_CM
 70
0
 40
1.0
 41
0.05
 42
0.025
 43
3.75
 44
0.07500000000000001
 45
0.0
 46
0.0
 47
0.0
 48
0.0
 49
2.5
140
0.05
141
2.5
142
0.025
143
0.03937007874
144
100.0
145
0.0
146
0.5
147
0.020000000000000004
148
0.0
 69
0
 70
0
 71
0
 72
0
 73
0
 74
0
 75
0
 76
0
 77
1
 78
12
 79
3
170
0
171
3
172
1
173
0
174
0
175
0
176
0
177
0
178
0
179
2
271
2
272
2
273
2
274
3
275
0
276
0
277
2
278
46
279
2
280
0
281
0
282
0
283
0
284
8
285
0
286
0
288
1
289
3
290
0
340
4C
371
-2
372
-2
  0
DIMSTYLE
105
80
330
4
100
AcDbSymbolTableRecord
100
AcDbDimStyleTableRecord
  2
EZ_M_10_H25_CM
 70
0
 40
1.0
 41
0.025
 42
0.0125
 43
3.75
 44
0.037500000000000006
 45
0.0
 46
0.0
 47
0.0
 48
0.0
 49
2.5
140
0.025
141
2.5
142
0.0125
143
0.03937007874
144
100.0
145
0.0
146
0.5
147
0.010000000000000002
148
0.0
 69
0
 70
0
 71
0
 72
0
 73
0
 74
0
 75
0
 76
0
 77
1
 78
12
 79
3
170
0
171
3
172
1
173
0
174
0
175
0
176
0
177
0
178
0
179
2
271
2
272
2
273
2
274
3
275
0
276
0
277
2
278
46
279
2
280
0
281
0
282
0
283
0
284
8
285
0
286
0
288
1
289
3
290
0
340
4C
371
-2
372
-2
  0
DIMSTYLE
105
81
330
4
100
AcDbSymbolTableRecord
100
AcDbDimStyleTableRecord
  2
EZ_M_5_H25_CM
 70
0
 40
1.0
 41
0.0125
 42
0.00625
 43
3.75
 44
0.018750000000000003
 45
0.0
 46
0.0
 47
0.0
 48
0.0
 49
2.5
140
0.0125
141
2.5
142
0.00625
143
0.03937007874
144
100.0
145
0.0
146
0.5
147
0.005000000000000001
148
0.0
 69
0
 70
0
 71
0
 72
0
 73
0
 74
0
 75
0
 76
0
 77
1
 78
12
 79
3
170
0
171
3
172
1
173
0
174
0
175
0
176
0
177
0
178
0
179
2
271
2
272
2
273
2
274
3
275
0
276
0
277
2
278
46
279
2
280
0
281
0
282
0
283
0
284
8
285
0
286
0
288
1
289
3
290
0
340
4C
371
-2
372
-2
  0
DIMSTYLE
105
82
330
4
100
AcDbSymbolTableRecord
100
AcDbDimStyleTableRecord
  2
EZ_M_1_H25_CM
 70
0
 40
1.0
 41
0.0025
 42
0.00125
 43
3.75
 44
0.00375
 45
0.0
 46
0.0
 47
0.0
 48
0.0
 49
2.5
140
0.0025
141
2.5
142
0.00125
143
0.03937007874
144
100.0
145
0.0
146
0.5
147
0.001
148
0.0
 69
0
 70
0
 71
0
 72
0
 73
0
 74
0
 75
0
 76
0
 77
1
 78
12
 79
3
170
0
171
3
172
1
173
0
174
0
175
0
176
0
177
0
178
0
179
2
271
2
272
2
273
2
274
3
275
0
276
0
277
2
278
46
279
2
280
0
281
0
282
0
283
0
284
8
285
0
286
0
288
1
289
3
290
0
340
4C
371
-2
372
-2
  0
DIMSTYLE
105
83
330
4
100
AcDbSymbolTableRecord
100
AcDbDimStyleTableRecord
  2
EZ_RADIUS
 70
0
 40
1.0
 41
0.25
 42
0.125
 43
3.75
 44
0.375
 45
0.0
 46
0.0
 47
0.0
 48
0.0
 49
2.5
140
0.25
141
0.0
142
0.0
143
0.03937007874
144
100.0
145
0.0
146
0.5
147
0.1
148
0.0
 69
0
 70
0
 71
0
 72
0
 73
0
 74
0
 75
0
 76
0
 77
1
 78
12
 79
3
170
0
171
3
172
0
173
0
174
0
175
0
176
0
177
0
178
0
179
2
271
2
272
2
273
2
274
3
275
0
276
0
277
2
278
46
279
1
280
0
281
0
282
0
283
0
284
8
285
0
286
0
288
1
289
3
290
0
340
4C
342
84
371
-2
372
-2
  0
DIMSTYLE
105
88
330
4
100
AcDbSymbolTableRecord
100
AcDbDimStyleTableRecord
  2
EZ_RADIUS_INSIDE
 70
0
 40
1.0
 41
0.25
 42
0.125
 43
3.75
 44
0.375
 45
0.0
 46
0.0
 47
0.0
 48
0.0
 49
2.5
140
0.25
141
0.0
142
0.0
143
0.03937007874
144
100.0
145
0.0
146
0.5
147
0.1
148
0.0
 69
0
 70
0
 71
0
 72
0
 73
0
 74
0
 75
0
 76
0
 77
0
 78
12
 79
3
170
0
171
3
172
0
173
0
174
1
175
0
176
0
177
0
178
0
179
2
271
2
272
2
273
2
274
3
275
0
276
0
277
2
278
46
279
0
280
0
281
0
282
0
283
0
284
8
285
0
286
0
288
1
289
0
290
0
340
4C
342
84
371
-2
372
-2
  0
DIMSTYLE
105
89
330
4
100
AcDbSymbolTableRecord
100
AcDbDimStyleTableRecord
  2
EZ_CURVED
 70
0
 40
1.0
 41
0.25
 42
0.125
 43
3.75
 44
0.375
 45
0.0
 46
0.0
 47
0.0
 48
0.0
 49
2.5
140
0.25
141
2.5
142
0.0
143
0.03937007874
144
100.0
145
0.0
146
0.5
147
0.1
148
0.0
 69
0
 70
0
 71
0
 72
0
 73
0
 74
0
 75
0
 76
0
 77
1
 78
12
 79
2
 90
2
170
0
171
3
172
1
173
0
174
0
175
0
176
0
177
0
178
0
179
2
271
2
272
2
273
2
274
3
275
0
276
0
277
2
278
46
279
2
280
0
281
0
282
0
283
0
284
8
285
0
286
0
288
1
289
3
290
0
340
4C
371
-2
372
-2
  0
ENDTAB
  0
TABLE
  2
BLOCK_RECORD
  5
9
330
0
100
AcDbSymbolTable
 70
5
  0
BLOCK_RECORD
  5
17
330
9
100
AcDbSymbolTableRecord
100
AcDbBlockTableRecord
  2
*Model_Space
340
1A
 70
0
280
1
281
0
  0
BLOCK_RECORD
  5
1B
330
9
100
AcDbSymbolTableRecord
100
AcDbBlockTableRecord
  2
*Paper_Space
340
1E
 70
0
280
1
281
0
  0
BLOCK_RECORD
  5
74
330
9
100
AcDbSymbolTableRecord
100
AcDbBlockTableRecord
  2
_ARCHTICK
340
0
 70
0
280
1
281
0
  0
BLOCK_RECORD
  5
78
330
9
100
AcDbSymbolTableRecord
100
AcDbBlockTableRecord
  2
_CLOSEDFILLED
340
0
 70
0
280
1
281
0
  0
BLOCK_RECORD
  5
84
330
9
100
AcDbSymbolTableRecord
100
AcDbBlockTableRecord
  2
_CLOSEDBLANK
340
0
 70
0
280
1
281
0
  0
ENDTAB
  0
ENDSEC
  0
SECTION
  2
BLOCKS
  0
BLOCK
  5
18
330
17
100
AcDbEntity
  8
0
100
AcDbBlockBegin
  2
*Model_Space
 70
0
 10
0.0
 20
0.0
 30
0.0
  3
*Model_Space
  1

  0
ENDBLK
  5
19
330
17
100
AcDbEntity
  8
0
100
AcDbBlockEnd
  0
BLOCK
  5
1C
330
1B
100
AcDbEntity
  8
0
100
AcDbBlockBegin
  2
*Paper_Space
 70
0
 10
0.0
 20
0.0
 30
0.0
  3
*Paper_Space
  1

  0
ENDBLK
  5
1D
330
1B
100
AcDbEntity
  8
0
100
AcDbBlockEnd
  0
BLOCK
  5
75
330
74
100
AcDbEntity
  8
0
100
AcDbBlockBegin
  2
_ARCHTICK
 70
0
 10
0.0
 20
0.0
 30
0.0
  3
_ARCHTICK
  1

  0
LWPOLYLINE
  5
77
330
74
100
AcDbEntity
  8
0
  6
BYBLOCK
 62
0
100
AcDbPolyline
 90
2
 70
0
 43
0.15
 10
-0.5
 20
-0.5
 10
0.5
 20
0.5
  0
ENDBLK
  5
76
330
74
100
AcDbEntity
  8
0
100
AcDbBlockEnd
  0
BLOCK
  5
79
330
78
100
AcDbEntity
  8
0
100
AcDbBlockBegin
  2
_CLOSEDFILLED
 70
0
 10
0.0
 20
0.0
 30
0.0
  3
_CLOSEDFILLED
  1

  0
SOLID
  5
7B
330
78
100
AcDbEntity
  8
0
  6
BYBLOCK
 62
0
100
AcDbTrace
 10
-1.0
 20
0.16439898372402537
 30
0.0
 11
0.0
 21
0.0
 31
0.0
 12
-1.0
 22
-0.16439898372402537
 32
0.0
 13
-1.0
 23
-0.16439898372402537
 33
0.0
  0
ENDBLK
  5
7A
330
78
100
AcDbEntity
  8
0
100
AcDbBlockEnd
  0
BLOCK
  5
85
330
84
100
AcDbEntity
  8
0
100
AcDbBlockBegin
  2
_CLOSEDBLANK
 70
0
 10
0.0
 20
0.0
 30
0.0
  3
_CLOSEDBLANK
  1

  0
LWPOLYLINE
  5
87
330
84
100
AcDbEntity
  8
0
  6
BYBLOCK
 62
0
100
AcDbPolyline
 90
3
 70
1
 10
-1.0
 20
0.16439898372402537
 10
0.0
 20
0.0
 10
-1.0
 20
-0.16439898372402537
  0
ENDBLK
  5
86
330
84
100
AcDbEntity
  8
0
100
AcDbBlockEnd
  0
ENDSEC
  0
SECTION
  2
ENTITIES
  0
LWPOLYLINE
  5
8C
330
17
100
AcDbEntity
  8
Layer
100
AcDbPolyline
 90
160
 70
1
 10
465.86407765945603
 20
251.91582560449336
 10
457.37824261171886
 20
253.1046478472391
 10
448.2024309530083
 20
254.31343129670176
 10
439.01105161471594
 20
255.44834996989755
 10
429.8063183626513
 20
256.5094395383887
 10
420.58910390652113
 20
257.49686191428
 10
411.35958643126656
 20
258.4115411405018
 10
402.1211321397771
 20
259.25492880274584
 10
392.88023494572553
 20
260.02637907276676
 10
383.6409426722741
 20
260.72351885240766
 10
374.4032378398091
 20
261.3447252520831
 10
365.16814811179654
 20
261.89092312439203
 10
355.9409288306082
 20
262.3624012650921
 10
346.7264571620172
 20
262.75808429727147
 10
337.5256697750209
 20
263.0760670362232
 10
328.33964190313037
 20
263.3165420133713
 10
319.17351531770163
 20
263.47931644003825
 10
310.0316899062872
 20
263.5624622842396
 10
300.91492620598774
 20
263.56408593663747
 10
291.82367775171394
 20
263.4846690946878
 10
282.76389935396935
 20
263.32497876830234
 10
273.742117224155
 20
263.08318739626765
 10
264.75976045862194
 20
262.75613132521903
 10
255.81782607117967
 20
262.3433590598052
 10
246.92169448595556
 20
261.84561999996424
 10
238.0781807645589
 20
261.26168233053295
 10
229.28962994885694
 20
260.58945103839335
 10
220.55992213980127
 20
259.82956745589854
 10
211.89821982643358
 20
258.98191250036405
 10
203.31121422615826
 20
258.04294967474607
 10
194.8005751852451
 20
257.0101470912357
 10
186.37107317204675
 20
255.88529890683768
 10
178.0327639426157
 20
254.66968675976378
 10
169.7939332075279
 20
253.36247074982077
 10
161.66213653330996
 20
251.96463139518667
 10
153.65342475352085
 20
250.48020915744567
 10
145.78553813462128
 20
248.90888647171278
 10
138.06852103428102
 20
247.2498436348917
 10
130.51426334167755
 20
245.51022492393201
 10
123.14639314833298
 20
243.70008949294038
 10
115.98791096798445
 20
241.82314814804664
 10
109.05517400760812
 20
239.88371793207716
 10
102.36686296769867
 20
237.89284781348607
 10
95.94389658390827
 20
235.86160428661887
 10
89.80082419641315
 20
233.79946881799833
 10
83.94986691820378
 20
231.72241905574234
 10
78.40647197802173
 20
229.647750273881
 10
73.18060606591672
 20
227.5844328875743
 10
68.27000102328441
 20
225.53814906919578
 10
63.66659987159545
 20
223.51951722861844
 10
59.36248309897047
 20
221.53948950546473
 10
55.3474931078577
 20
219.603007098739
 10
51.607214154707094
 20
217.71126009848356
 10
48.12466878736501
 20
215.86629882183757
 10
44.88359204353657
 20
214.07040210856258
 10
41.868317454252804
 20
212.32214398612462
 10
39.06211325703566
 20
210.6173721860951
 10
36.44834819344493
 20
208.95272366084973
 10
34.011657036206486
 20
207.3267810235024
 10
31.740005969596837
 20
205.73945228844687
 10
29.62379258524436
 20
204.18814882870743
 10
27.65385597071463
 20
202.66765464257207
 10
25.818910719272367
 20
201.1717059771993
 10
24.106612968487184
 20
199.69909925555007
 10
22.505234935107296
 20
198.2518674320027
 10
21.005528562353334
 20
196.835008366886
 10
19.60188193897949
 20
195.45140467206053
 10
18.29355531905003
 20
194.1028952863003
 10
17.08290962010193
 20
192.78522261953634
 10
15.972629157869903
 20
191.49220581243267
 10
14.962966516188487
 20
190.21561213713449
 10
14.049907474376369
 20
188.94814903119465
 10
13.22688879676167
 20
187.68835573040084
 10
12.485780782368124
 20
186.4370865600241
 10
11.82026119440377
 20
185.1998759787257
 10
11.227809302525259
 20
183.9832337857262
 10
10.710575089062331
 20
182.7945981506177
 10
10.272631874614547
 20
181.63534475947338
 10
9.9162736765756
 20
180.4998785651088
 10
9.640674548490267
 20
179.38234539024396
 10
9.442794085559171
 20
178.28136183372143
 10
9.317004034622016
 20
177.17366674108496
 10
9.265524716612106
 20
176.1219485012815
 10
9.287179216647019
 20
175.04115128665765
 10
9.389734018429124
 20
173.96684553182376
 10
9.58140900863259
 20
172.90516243779342
 10
9.873128656911717
 20
171.8566707790373
 10
10.275352045343311
 20
170.81798724547895
 10
10.792973561854296
 20
169.78698603230274
 10
11.423064624492724
 20
168.76582860187125
 10
12.158006392021832
 20
167.76083627334378
 10
12.99334219109977
 20
166.7781955980947
 10
13.930395000474618
 20
165.82184949229537
 10
14.97451075992052
 20
164.8931288981792
 10
16.129032791975135
 20
163.99223980635833
 10
17.394991904254482
 20
163.1181558033341
 10
18.77139832113909
 20
162.2686859365921
 10
20.25857093609983
 20
161.44059805950587
 10
21.856346033176862
 20
160.6315436731667
 10
23.568038492641165
 20
159.84056738901407
 10
25.398669776831014
 20
159.06747792318797
 10
27.356903363421225
 20
158.31177687843388
 10
29.45160626889782
 20
157.5710572546477
 10
31.69211671391747
 20
156.84138519795815
 10
34.089132365162925
 20
156.11823350324232
 10
36.65388354112076
 20
155.39735522313973
 10
39.40067196090769
 20
154.67652808180355
 10
42.34720073521629
 20
153.95508525699802
 10
45.51570502087378
 20
153.2323216747677
 10
48.93025553679888
 20
152.5060278932044
 10
52.616636605707356
 20
151.77384242551219
 10
56.6019855529006
 20
151.03488270843604
 10
60.917257495833496
 20
150.29054152504165
 10
65.59582738692586
 20
149.5428539775936
 10
70.66951220081609
 20
148.79239488506988
 10
76.16473498192113
 20
148.04055027730644
 10
82.1015271814208
 20
147.29273882811447
 10
88.492982648225
 20
146.55663445113865
 10
95.34136034705693
 20
145.83794583647892
 10
102.63164244152105
 20
145.14154498199744
 10
110.33579533287443
 20
144.47608845529243
 10
118.42163387362194
 20
143.84876475832402
 10
126.84911188648027
 20
143.2614598406303
 10
135.5715391711919
 20
142.71710152084106
 10
144.55086795927883
 20
142.21927174741512
 10
153.75477155796054
 20
141.7661565374011
 10
163.15028921583516
 20
141.35571229716513
 10
172.71813947804293
 20
140.98927621772506
 10
182.45401706963855
 20
140.66000522234864
 10
188.12567910106327
 20
140.48246515150424
 10
188.09439141783471
 20
139.48295473090914
 10
192.30194755588022
 20
139.351245026518
 10
202.26162445479682
 20
139.05424713848447
 10
212.2550016199114
 20
138.78269355966077
 10
222.28886408484342
 20
138.55151056628222
 10
232.39897945173658
 20
138.35889621125858
 10
242.6040782240968
 20
138.18877018949354
 10
252.8856182582476
 20
138.0238250502533
 10
263.20704703742183
 20
137.85519201487884
 10
273.5380050501474
 20
137.6868342512607
 10
283.85680711678333
 20
137.53345691426085
 10
294.1834712958184
 20
137.4069085139148
 10
304.55335538800455
 20
137.30350049985444
 10
314.9793544412883
 20
137.2089561282191
 10
325.4424506316013
 20
137.1131182860626
 10
335.92697497908017
 20
137.01694100827086
 10
346.421145487725
 20
136.92351001853785
 10
356.91445634873344
 20
136.83128332168448
 10
367.39197925488173
 20
136.73997163309508
 10
377.8456760286227
 20
136.6569353996805
 10
388.287570092489
 20
136.5889428844289
 10
398.73138289717866
 20
136.53029667037143
 10
409.1708879724869
 20
136.465645749217
 10
419.61036896689717
 20
136.3883664027678
 10
430.0485321205839
 20
136.30742618117472
 10
440.482566831421
 20
136.23635679911575
 10
450.92389057837534
 20
136.1755523800199
 10
461.36657613763566
 20
136.11586521382256
 10
465.8640776711386
 20
136.08923851816516
 10
465.86407765945603
 20
251.91582560449336
  0
LWPOLYLINE
  5
8D
330
17
100
AcDbEntity
  8
NumLabel
 62
1
100
AcDbPolyline
 90
7
 70
0
 10
265.2838834951457
 20
164.4135922330097
 10
270.2838834951457
 20
164.4135922330097
 10
270.2838834951457
 20
159.4135922330097
 10
265.2838834951457
 20
159.4135922330097
 10
270.2838834951457
 20
159.4135922330097
 10
270.2838834951457
 20
154.4135922330097
 10
265.2838834951457
 20
154.4135922330097
  0
LWPOLYLINE
  5
8E
330
17
100
AcDbEntity
  8
NumLabel
 62
1
100
AcDbPolyline
 90
2
 70
0
 10
275.2838834951457
 20
164.4135922330097
 10
275.2838834951457
 20
154.4135922330097
  0
LWPOLYLINE
  5
8F
330
17
100
AcDbEntity
  8
Layer
100
AcDbPolyline
 90
5
 70
1
 10
262.332606832583
 20
258.63981011990444
 10
258.3368632584053
 20
258.4553289842357
 10
258.1523821227365
 20
262.4510725584134
 10
262.14812569691424
 20
262.63555369408215
 10
262.332606832583
 20
258.63981011990444
  0
LWPOLYLINE
  5
90
330
17
100
AcDbEntity
  8
Layer
100
AcDbPolyline
 90
5
 70
1
 10
106.68634288823147
 20
235.00503612461165
 10
102.85261719851799
 20
233.86374416545704
 10
101.71132523936338
 20
237.69746985517048
 10
105.54505092907685
 20
238.8387618143251
 10
106.68634288823147
 20
235.00503612461165
  0
LWPOLYLINE
  5
91
330
17
100
AcDbEntity
  8
Layer
100
AcDbPolyline
 90
5
 70
1
 10
28.136643614541192
 20
196.60207330590637
 10
26.653046942983956
 20
195.26082727473076
 10
23.299931865044975
 20
198.96981895362384
 10
24.783528536602212
 20
200.31106498479946
 10
28.136643614541192
 20
196.60207330590637
  0
LWPOLYLINE
  5
92
330
17
100
AcDbEntity
  8
Layer
100
AcDbPolyline
 90
5
 70
1
 10
18.85329378201663
 20
168.1870816784517
 10
20.500545486756618
 20
167.0528145929594
 10
17.664877773025868
 20
162.93468533110945
 10
16.01762606828588
 20
164.06895241660175
 10
18.85329378201663
 20
168.1870816784517
  0
LWPOLYLINE
  5
93
330
17
100
AcDbEntity
  8
Layer
100
AcDbPolyline
 90
5
 70
1
 10
140.82437408907745
 20
146.43203412417034
 10
144.81824135625394
 20
146.21061991465285
 10
144.59682714673644
 20
142.21675264747637
 10
140.60295987955996
 20
142.43816685699386
 10
140.82437408907745
 20
146.43203412417034
  0
LWPOLYLINE
  5
94
330
17
100
AcDbEntity
  8
Layer
100
AcDbPolyline
 90
300
 70
1
 10
406.421049950348
 20
200.0
 10
406.41001852494156
 20
201.11628612728975
 10
406.37692911988904
 20
202.23207933405044
 10
406.32179634654034
 20
203.3468869174128
 10
406.24464454997604
 20
204.46021660973113
 10
406.1455077982576
 20
205.57157679595485
 10
406.0244298673838
 20
206.68047673071175
 10
405.88146422196036
 20
207.78642675500748
 10
405.71667399159173
 20
208.88893851244504
 10
405.53013194300456
 20
209.98752516486934
 10
405.3219204479161
 20
211.08170160734116
 10
405.09213144666126
 20
212.1709846823458
 10
404.84086640759415
 20
213.2548933931419
 10
404.5682362822826
 20
214.3329491161561
 10
404.2743614565151
 20
215.40467581232957
 10
403.9593716971419
 20
216.46960023732365
 10
403.6234060947732
 20
217.52725215049108
 10
403.2666130023614
 20
218.57716452252117
 10
402.8891499696918
 20
219.61887374166662
 10
402.49118367381374
 20
220.65191981846158
 10
402.0728898454402
 20
221.67584658884
 10
401.6344531913504
 20
222.69020191556478
 10
401.1760673128282
 20
223.69453788787888
 10
400.69793462017356
 20
224.68841101929019
 10
400.20026624332354
 20
225.67138244340248
 10
399.68328193862334
 20
226.6430181077067
 10
399.1472099917883
 20
227.6028889652461
 10
398.59228711709915
 20
228.55057116407153
 10
398.0187583528755
 20
229.48564623440228
 10
397.42687695327425
 20
230.40770127341074
 10
396.81690427645924
 20
231.31632912754856
 10
396.1891096691932
 20
232.21112857233433
 10
395.5437703479015
 20
233.09170448952284
 10
394.8811712762614
 20
233.95766804157824
 10
394.20160503937
 20
234.8086368433739
 10
393.505371714547
 20
235.64423513104262
 10
392.79277873882876
 20
236.46409392790366
 10
392.0641407732131
 20
237.26785120739228
 10
391.3197795637137
 20
238.05515205292056
 10
390.560023799286
 20
238.8256488145985
 10
389.78520896668755
 20
239.57900126274654
 10
388.99567720233654
 20
240.31487673813135
 10
388.19177714123384
 20
241.03295029885868
 10
387.3738637630158
 20
241.73290486385872
 10
386.54229823520495
 20
242.4144313529001
 10
385.69744775372885
 20
243.07722882307104
 10
384.8396853807767
 20
243.72100460166718
 10
383.9693898800653
 20
244.34547441542776
 10
383.086945549588
 20
244.9503625160625
 10
382.19274205191925
 20
245.53540180201455
 10
381.28717424215085
 20
246.1003339364047
 10
380.37064199353483
 20
246.6449094611059
 10
379.44355002091066
 20
247.16888790689686
 10
378.5063077019948
 20
247.67203789964654
 10
377.5593288966108
 20
248.15413726248238
 10
376.60303176394063
 20
248.61497311389738
 10
375.6378385778771
 20
249.05434196175264
 10
374.66417554056005
 20
249.4720497931337
 10
373.6824725941769
 20
249.86791216002115
 10
372.69316323111275
 20
250.24175426073776
 10
371.6966843025321
 20
250.59341101713594
 10
370.69347582547783
 20
250.9227271474916
 10
369.68398078857194
 20
251.2295572350722
 10
368.66864495640425
 20
251.51376579234872
 10
367.6479166726954
 20
251.775227320823
 10
366.6222466623207
 20
252.01382636644456
 10
365.5920878322831
 20
252.2294575705917
 10
364.5578950717217
 20
252.42202571659487
 10
363.52012505104585
 20
252.59144577178188
 10
362.4792360202823
 20
252.73764292502568
 10
361.4356876067248
 20
252.860552619779
 10
360.38994061197565
 20
252.96012058258077
 10
359.3424568084688
 20
253.03630284702152
 10
358.293698735564
 20
253.08906577315787
 10
357.2441294953025
 20
253.118386062367
 10
356.19421254791416
 20
253.12425076763458
 10
355.1444115071667
 20
253.1066572992719
 10
354.0951899356465
 20
253.06561342605923
 10
353.04701114006275
 20
253.00113727181565
 10
352.00033796666423
 20
252.91325730739572
 10
350.9556325968592
 20
252.80201233811783
 10
349.9133563431293
 20
252.66745148662878
 10
348.8739694453269
 20
252.5096341712125
 10
347.8379308674462
 20
252.32863007955274
 10
346.80569809495745
 20
252.12451913796093
 10
345.77772693279445
 20
251.89739147608287
 10
344.7544713040839
 20
251.64734738710018
 10
343.7363830497055
 20
251.37449728344353
 10
342.7239117287722
 20
251.07896164803765
 10
341.7175044201169
 20
250.76087098109943
 10
340.7176055248757
 20
250.42036574251281
 10
339.7246565702524
 20
250.05759628980553
 10
338.7390960145528
 20
249.67272281175553
 10
337.76135905357347
 20
249.26591525765608
 10
336.7918774284321
 20
248.83735326227094
 10
335.83107923492224
 20
248.38722606651282
 10
334.8793887344786
 20
247.91573243387973
 10
333.937226166835
 20
247.42308056268678
 10
333.00500756445837
 20
246.90948799413152
 10
332.08314456884045
 20
246.37518151623408
 10
331.17204424872864
 20
245.8203970636937
 10
330.2721089203758
 20
245.2453796137068
 10
329.3837359698887
 20
244.6503830777919
 10
328.50731767775346
 20
244.03567018966947
 10
327.6432410456158
 20
243.40151238924597
 10
326.7918876253918
 20
242.74818970275385
 10
325.953633350785
 20
242.07599061909963
 10
325.1288483712856
 20
241.3852119624755
 10
324.3178968887216
 20
240.67615876129
 10
323.5211369964386
 20
239.94914411347614
 10
322.7389205211754
 20
239.20448904823607
 10
321.971592867707
 20
238.44252238428373
 10
321.2194928663241
 20
237.66358058464763
 10
320.48295262321494
 20
236.86800760809842
 10
319.7622973738163
 20
236.05615475726628
 10
319.0578453391991
 20
235.2283805235155
 10
318.36990758555066
 20
234.38505042864492
 10
317.6987878868167
 20
233.52653686348376
 10
317.04478259056356
 20
232.65321892345418
 10
316.4081804871189
 20
231.76548224117366
 10
315.78926268205055
 20
230.86371881617023
 10
315.18830247203806
 20
229.94832684178675
 10
314.6055652241924
 20
229.01971052934977
 10
314.04130825887745
 20
228.07827992968117
 10
313.49578073608467
 20
227.12445075203152
 10
312.9692235454109
 20
226.15864418051422
 10
312.46186919968835
 20
225.18128668812267
 10
311.97394173231345
 20
224.1928098484118
 10
311.50565659832006
 20
223.1936501449273
 10
311.05722057924066
 20
222.18424877846667
 10
310.62883169179725
 20
221.16505147225755
 10
310.22067910046286
 20
220.13650827513882
 10
309.8329430339319
 20
219.09907336283163
 10
309.4657947055361
 20
218.05320483738828
 10
309.1193962376417
 20
216.99936452490718
 10
308.7939005900605
 20
215.93801777160354
 10
308.48945149250744
 20
214.86963323832546
 10
308.2061833811334
 20
213.7946826936066
 10
307.94422133916214
 20
212.71364080534644
 10
307.70368104165675
 20
211.62698493121022
 10
307.4846687044411
 20
210.53519490784137
 10
307.287281037198
 20
209.43875283897904
 10
307.1116052007645
 20
208.33814288257474
 10
306.95771876864444
 20
207.23385103700184
 10
306.8256896927543
 20
206.12636492645217
 10
306.7155762734171
 20
205.01617358561523
 10
306.62742713361916
 20
203.9037672437339
 10
306.56128119753896
 20
202.78963710813332
 10
306.51716767335984
 20
201.67427514731725
 10
306.49510604037226
 20
200.5581738737289
 10
306.49510604037226
 20
199.44182612627114
 10
306.51716767335984
 20
198.32572485268275
 10
306.56128119753896
 20
197.21036289186668
 10
306.62742713361916
 20
196.0962327562661
 10
306.7155762734171
 20
194.98382641438477
 10
306.8256896927543
 20
193.87363507354783
 10
306.95771876864444
 20
192.7661489629982
 10
307.1116052007645
 20
191.66185711742526
 10
307.287281037198
 20
190.561247161021
 10
307.4846687044411
 20
189.46480509215866
 10
307.70368104165675
 20
188.37301506878978
 10
307.94422133916214
 20
187.28635919465356
 10
308.2061833811334
 20
186.2053173063934
 10
308.48945149250744
 20
185.13036676167454
 10
308.7939005900605
 20
184.06198222839646
 10
309.1193962376417
 20
183.00063547509282
 10
309.4657947055361
 20
181.94679516261172
 10
309.8329430339319
 20
180.90092663716837
 10
310.22067910046286
 20
179.86349172486118
 10
310.62883169179725
 20
178.83494852774245
 10
311.05722057924066
 20
177.81575122153336
 10
311.50565659832006
 20
176.80634985507274
 10
311.97394173231345
 20
175.8071901515882
 10
312.46186919968835
 20
174.81871331187733
 10
312.9692235454109
 20
173.84135581948578
 10
313.49578073608467
 20
172.87554924796848
 10
314.04130825887745
 20
171.9217200703188
 10
314.6055652241924
 20
170.98028947065026
 10
315.18830247203806
 20
170.05167315821325
 10
315.78926268205055
 20
169.13628118382977
 10
316.4081804871189
 20
168.23451775882634
 10
317.04478259056356
 20
167.34678107654582
 10
317.6987878868167
 20
166.47346313651627
 10
318.36990758555066
 20
165.61494957135506
 10
319.0578453391991
 20
164.7716194764845
 10
319.7622973738163
 20
163.94384524273374
 10
320.48295262321494
 20
163.13199239190158
 10
321.2194928663241
 20
162.33641941535237
 10
321.971592867707
 20
161.5574776157163
 10
322.7389205211753
 20
160.79551095176393
 10
323.5211369964386
 20
160.05085588652386
 10
324.3178968887216
 20
159.32384123871
 10
325.1288483712855
 20
158.6147880375245
 10
325.953633350785
 20
157.92400938090037
 10
326.7918876253917
 20
157.25181029724615
 10
327.6432410456158
 20
156.59848761075403
 10
328.50731767775346
 20
155.96432981033053
 10
329.3837359698886
 20
155.3496169222081
 10
330.2721089203758
 20
154.7546203862932
 10
331.17204424872864
 20
154.1796029363063
 10
332.08314456884045
 20
153.62481848376592
 10
333.00500756445837
 20
153.09051200586848
 10
333.937226166835
 20
152.57691943731322
 10
334.8793887344786
 20
152.08426756612027
 10
335.8310792349222
 20
151.61277393348718
 10
336.7918774284321
 20
151.16264673772906
 10
337.76135905357347
 20
150.73408474234395
 10
338.7390960145528
 20
150.32727718824447
 10
339.7246565702524
 20
149.94240371019447
 10
340.7176055248757
 20
149.57963425748719
 10
341.7175044201169
 20
149.23912901890057
 10
342.7239117287722
 20
148.92103835196235
 10
343.7363830497055
 20
148.62550271655647
 10
344.7544713040839
 20
148.35265261289982
 10
345.77772693279445
 20
148.10260852391713
 10
346.80569809495745
 20
147.87548086203907
 10
347.8379308674462
 20
147.67136992044726
 10
348.8739694453269
 20
147.4903658287875
 10
349.9133563431293
 20
147.33254851337122
 10
350.9556325968591
 20
147.19798766188217
 10
352.0003379666642
 20
147.08674269260428
 10
353.04701114006275
 20
146.99886272818435
 10
354.09518993564643
 20
146.93438657394077
 10
355.14441150716664
 20
146.8933427007281
 10
356.19421254791416
 20
146.87574923236542
 10
357.2441294953025
 20
146.881613937633
 10
358.293698735564
 20
146.91093422684213
 10
359.3424568084688
 20
146.96369715297848
 10
360.38994061197565
 20
147.03987941741923
 10
361.4356876067248
 20
147.139447380221
 10
362.4792360202823
 20
147.26235707497432
 10
363.52012505104585
 20
147.40855422821812
 10
364.5578950717217
 20
147.57797428340513
 10
365.5920878322831
 20
147.77054242940832
 10
366.62224666232066
 20
147.9861736335554
 10
367.6479166726953
 20
148.22477267917697
 10
368.6686449564042
 20
148.48623420765128
 10
369.68398078857194
 20
148.7704427649278
 10
370.69347582547783
 20
149.0772728525084
 10
371.6966843025321
 20
149.40658898286406
 10
372.69316323111275
 20
149.75824573926224
 10
373.6824725941769
 20
150.13208783997885
 10
374.66417554056005
 20
150.5279502068663
 10
375.6378385778771
 20
150.94565803824736
 10
376.60303176394063
 20
151.38502688610262
 10
377.5593288966108
 20
151.84586273751762
 10
378.5063077019948
 20
152.32796210035346
 10
379.44355002091066
 20
152.83111209310314
 10
380.37064199353483
 20
153.3550905388941
 10
381.28717424215085
 20
153.8996660635953
 10
382.19274205191925
 20
154.46459819798542
 10
383.08694554958794
 20
155.04963748393746
 10
383.96938988006525
 20
155.65452558457224
 10
384.83968538077664
 20
156.27899539833282
 10
385.69744775372885
 20
156.92277117692896
 10
386.5422982352049
 20
157.58556864709988
 10
387.3738637630158
 20
158.26709513614128
 10
388.19177714123384
 20
158.96704970114132
 10
388.99567720233654
 20
159.68512326186865
 10
389.7852089666876
 20
160.42099873725346
 10
390.560023799286
 20
161.1743511854015
 10
391.3197795637137
 20
161.94484794707947
 10
392.0641407732131
 20
162.73214879260772
 10
392.79277873882876
 20
163.53590607209634
 10
393.505371714547
 20
164.35576486895735
 10
394.20160503937
 20
165.1913631566261
 10
394.8811712762614
 20
166.04233195842173
 10
395.5437703479015
 20
166.90829551047716
 10
396.1891096691932
 20
167.78887142766567
 10
396.81690427645924
 20
168.68367087245144
 10
397.42687695327425
 20
169.59229872658926
 10
398.0187583528755
 20
170.51435376559772
 10
398.59228711709915
 20
171.44942883592847
 10
399.1472099917883
 20
172.3971110347539
 10
399.68328193862334
 20
173.3569818922933
 10
400.20026624332354
 20
174.32861755659752
 10
400.69793462017356
 20
175.31158898070984
 10
401.1760673128282
 20
176.30546211212112
 10
401.6344531913504
 20
177.30979808443524
 10
402.0728898454402
 20
178.32415341115995
 10
402.49118367381374
 20
179.3480801815384
 10
402.8891499696918
 20
180.38112625833335
 10
403.2666130023614
 20
181.42283547747883
 10
403.6234060947732
 20
182.4727478495089
 10
403.9593716971419
 20
183.53039976267635
 10
404.2743614565151
 20
184.59532418767043
 10
404.5682362822826
 20
185.6670508838439
 10
404.84086640759415
 20
186.7451066068581
 10
405.09213144666126
 20
187.8290153176542
 10
405.3219204479161
 20
188.91829839265884
 10
405.53013194300456
 20
190.01247483513066
 10
405.71667399159173
 20
191.11106148755496
 10
405.88146422196036
 20
192.21357324499255
 10
406.0244298673838
 20
193.31952326928825
 10
406.1455077982576
 20
194.42842320404512
 10
406.24464454997604
 20
195.53978339026884
 10
406.32179634654034
 20
196.65311308258717
 10
406.37692911988904
 20
197.76792066594953
 10
406.41001852494156
 20
198.88371387271022
 10
406.421049950348
 20
200.0
  0
LWPOLYLINE
  5
95
330
17
100
AcDbEntity
  8
Layer
100
AcDbPolyline
 90
5
 70
1
 10
160.1277732894394
 20
205.00000000000003
 10
165.1277732894394
 20
200.00000000000003
 10
160.1277732894394
 20
195.00000000000003
 10
155.1277732894394
 20
200.00000000000003
 10
160.1277732894394
 20
205.00000000000003
  0
LWPOLYLINE
  5
96
330
17
100
AcDbEntity
  8
Layer
100
AcDbPolyline
 90
5
 70
1
 10
353.88469781659086
 20
205.0
 10
358.88469781659086
 20
200.0
 10
353.88469781659086
 20
195.0
 10
348.88469781659086
 20
200.0
 10
353.88469781659086
 20
205.0
  0
LWPOLYLINE
  5
97
330
17
100
AcDbEntity
  8
Layer
100
AcDbPolyline
 90
5
 70
1
 10
195.09648351291577
 20
170.7278927325259
 10
199.76500212845542
 20
165.4170609769193
 10
194.4541703728488
 20
160.74854236137963
 10
189.78565175730915
 20
166.05937411698625
 10
195.09648351291577
 20
170.7278927325259
  0
LWPOLYLINE
  5
98
330
17
100
AcDbEntity
  8
Layer
100
AcDbPolyline
 90
5
 70
1
 10
418.74050309986666
 20
156.33321901774875
 10
423.40902171540637
 20
151.02238726214213
 10
418.09818995979975
 20
146.35386864660248
 10
413.42967134426004
 20
151.6647004022091
 10
418.74050309986666
 20
156.33321901774875
  0
LWPOLYLINE
  5
99
330
17
100
AcDbEntity
  8
Layer
100
AcDbPolyline
 90
5
 70
1
 10
201.45669902912624
 20
182.69657896839686
 10
206.45669902912624
 20
187.69657896839686
 10
211.45669902912624
 20
182.69657896839686
 10
206.45669902912624
 20
177.69657896839686
 10
201.45669902912624
 20
182.69657896839686
  0
LWPOLYLINE
  5
9A
330
17
100
AcDbEntity
  8
Layer
100
AcDbPolyline
 90
5
 70
1
 10
201.45669902912624
 20
214.63057274939376
 10
206.45669902912624
 20
219.63057274939376
 10
211.45669902912624
 20
214.63057274939376
 10
206.45669902912624
 20
209.63057274939376
 10
201.45669902912624
 20
214.63057274939376
  0
LINE
  5
9B
330
17
100
AcDbEntity
  8
Layer
 62
7
100
AcDbLine
 10
24.456490271338396
 20
200.00000000000003
 30
0.0
 11
465.86407766990294
 21
200.0
 31
0.0
  0
LINE
  5
9C
330
17
100
AcDbEntity
  8
Layer
 62
7
100
AcDbLine
 10
154.1277732894394
 20
200.00000000000003
 30
0.0
 11
166.1277732894394
 21
200.00000000000003
 31
0.0
  0
LINE
  5
9D
330
17
100
AcDbEntity
  8
Layer
 62
7
100
AcDbLine
 10
347.88469781659086
 20
200.0
 30
0.0
 11
359.88469781659086
 21
200.0
 31
0.0
  0
LINE
  5
9E
330
17
100
AcDbEntity
  8
Layer
 62
7
100
AcDbLine
 10
9.373533532076465
 20
177.671460059818
 30
0.0
 11
465.86407766990294
 21
148.28980054179846
 31
0.0
  0
LINE
  5
9F
330
17
100
AcDbEntity
  8
Layer
 62
7
100
AcDbLine
 10
188.7877167201945
 20
166.12360543099294
 30
0.0
 11
200.76293716557007
 21
165.3528296629126
 31
0.0
  0
LINE
  5
A0
330
17
100
AcDbEntity
  8
Layer
 62
7
100
AcDbLine
 10
412.43173630714546
 20
151.7289317162158
 30
0.0
 11
424.40695675252095
 21
150.95815594813544
 31
0.0
  0
LINE
  5
A1
330
17
100
AcDbEntity
  8
Layer
100
AcDbLine
 10
356.45669902912624
 20
253.12498387096775
 30
0.0
 11
356.45669902912624
 21
254.12498387096775
 31
0.0
  0
LINE
  5
A2
330
17
100
AcDbEntity
  8
Layer
100
AcDbLine
 10
356.45669902912624
 20
146.87501612903225
 30
0.0
 11
356.45669902912624
 21
145.87501612903225
 31
0.0
  0
LINE
  5
A3
330
17
100
AcDbEntity
  8
Layer
100
AcDbLine
 10
406.421049950348
 20
200.0
 30
0.0
 11
407.421049950348
 21
200.0
 31
0.0
  0
LINE
  5
A4
330
17
100
AcDbEntity
  8
Layer
100
AcDbLine
 10
306.4923481079045
 20
200.0
 30
0.0
 11
305.4923481079045
 21
200.0
 31
0.0
  0
LINE
  5
A5
330
17
100
AcDbEntity
  8
Layer
 62
7
100
AcDbLine
 10
206.45669902912624
 20
138.94025289056714
 30
0.0
 11
206.45669902912624
 21
258.3868988272235
 31
0.0
  0
LINE
  5
A6
330
17
100
AcDbEntity
  8
Layer
 62
7
100
AcDbLine
 10
206.45669902912624
 20
176.69657896839686
 30
0.0
 11
206.45669902912624
 21
188.69657896839686
 31
0.0
  0
LINE
  5
A7
330
17
100
AcDbEntity
  8
Layer
 62
7
100
AcDbLine
 10
206.45669902912624
 20
208.63057274939376
 30
0.0
 11
206.45669902912624
 21
220.63057274939376
 31
0.0
  0
ENDSEC
  0
SECTION
  2
OBJECTS
  0
DICTIONARY
  5
A
330
0
100
AcDbDictionary
280
0
281
1
  3
ACAD_COLOR
350
B
  3
ACAD_GROUP
350
C
  3
ACAD_LAYOUT
350
D
  3
ACAD_MATERIAL
350
E
  3
ACAD_MLEADERSTYLE
350
F
  3
ACAD_MLINESTYLE
350
10
  3
ACAD_PLOTSETTINGS
350
11
  3
ACAD_PLOTSTYLENAME
350
12
  3
ACAD_SCALELIST
350
14
  3
ACAD_TABLESTYLE
350
15
  3
ACAD_VISUALSTYLE
350
16
  3
EZDXF_META
350
2D
  0
DICTIONARY
  5
B
330
A
100
AcDbDictionary
280
0
281
1
  0
DICTIONARY
  5
C
330
A
100
AcDbDictionary
280
0
281
1
  0
DICTIONARY
  5
D
330
A
100
AcDbDictionary
280
0
281
1
  3
Model
350
1A
  3
Layout1
350
1E
  0
DICTIONARY
  5
E
330
A
100
AcDbDictionary
280
0
281
1
  3
ByBlock
350
1F
  3
ByLayer
350
20
  3
Global
350
21
  0
DICTIONARY
  5
F
330
A
100
AcDbDictionary
280
0
281
1
  3
Standard
350
2C
  0
DICTIONARY
  5
10
330
A
100
AcDbDictionary
280
0
281
1
  3
Standard
350
22
  0
DICTIONARY
  5
11
330
A
100
AcDbDictionary
280
0
281
1
  0
ACDBDICTIONARYWDFLT
  5
12
330
A
100
AcDbDictionary
280
0
281
1
  3
Normal
350
13
100
AcDbDictionaryWithDefault
340
13
  0
ACDBPLACEHOLDER
  5
13
330
12
  0
DICTIONARY
  5
14
330
A
100
AcDbDictionary
280
0
281
1
  0
DICTIONARY
  5
15
330
A
100
AcDbDictionary
280
0
281
1
  0
DICTIONARY
  5
16
330
A
100
AcDbDictionary
280
0
281
1
  3
2dWireframe
350
5A
  3
Basic
350
5B
  3
Brighten
350
5C
  3
ColorChange
350
5D
  3
Conceptual
350
5E
  3
Dim
350
5F
  3
EdgeColorOff
350
60
  3
Facepattern
350
61
  3
Flat
350
62
  3
FlatWithEdges
350
63
  3
Gouraud
350
64
  3
GouraudWithEdges
350
65
  3
Hidden
350
66
  3
JitterOff
350
67
  3
Linepattern
350
68
  3
Modeling
350
69
  3
OverhangOff
350
6A
  3
Realistic
350
6B
  3
Shaded
350
6C
  3
Shaded with edges
350
6D
  3
Shades of Gray
350
6E
  3
Sketchy
350
6F
  3
Thicken
350
70
  3
Wireframe
350
71
  3
X-Ray
350
72
  0
LAYOUT
  5
1A
330
D
100
AcDbPlotSettings
  1

  2
Adobe PDF
  4
A3
  6

 40
7.5
 41
20.0
 42
7.5
 43
20.0
 44
420.0
 45
297.0
 46
0.0
 47
0.0
 48
0.0
 49
0.0
140
0.0
141
0.0
142
1.0
143
1.0
 70
1024
 72
1
 73
0
 74
5
  7

 75
16
 76
0
 77
2
 78
300
147
1.0
148
0.0
149
0.0
100
AcDbLayout
  1
Model
 70
1
 71
0
 10
0.0
 20
0.0
 11
420.0
 21
297.0
 12
0.0
 22
0.0
 32
0.0
 14
1e+20
 24
1e+20
 34
1e+20
 15
-1e+20
 25
-1e+20
 35
-1e+20
146
0.0
 13
0.0
 23
0.0
 33
0.0
 16
1.0
 26
0.0
 36
0.0
 17
0.0
 27
1.0
 37
0.0
 76
1
330
17
  0
LAYOUT
  5
1E
330
D
100
AcDbPlotSettings
  1

  2
Adobe PDF
  4
A3
  6

 40
7.5
 41
20.0
 42
7.5
 43
20.0
 44
420.0
 45
297.0
 46
0.0
 47
0.0
 48
0.0
 49
0.0
140
0.0
141
0.0
142
1.0
143
1.0
 70
0
 72
1
 73
0
 74
5
  7

 75
16
 76
0
 77
2
 78
300
147
1.0
148
0.0
149
0.0
100
AcDbLayout
  1
Layout1
 70
1
 71
1
 10
0.0
 20
0.0
 11
420.0
 21
297.0
 12
0.0
 22
0.0
 32
0.0
 14
1e+20
 24
1e+20
 34
1e+20
 15
-1e+20
 25
-1e+20
 35
-1e+20
146
0.0
 13
0.0
 23
0.0
 33
0.0
 16
1.0
 26
0.0
 36
0.0
 17
0.0
 27
1.0
 37
0.0
 76
1
330
1B
  0
MATERIAL
  5
1F
102
{ACAD_REACTORS
330
E
102
}
330
E
100
AcDbMaterial
  1
ByBlock
  2

 70
0
 40
1.0
 71
1
 41
1.0
 91
-1023410177
 42
1.0
 72
1
  3

 73
1
 74
1
 75
1
 44
0.5
 73
0
 45
1.0
 46
1.0
 77
1
  4

 78
1
 79
1
170
1
 48
1.0
171
1
  6

172
1
173
1
174
1
140
1.0
141
1.0
175
1
  7

176
1
177
1
178
1
143
1.0
179
1
  8

270
1
271
1
272
1
145
1.0
146
1.0
273
1
  9

274
1
275
1
276
1
 42
1.0
 72
1
  3

 73
1
 74
1
 75
1
 94
63
  0
MATERIAL
  5
20
102
{ACAD_REACTORS
330
E
102
}
330
E
100
AcDbMaterial
  1
ByLayer
  2

 70
0
 40
1.0
 71
1
 41
1.0
 91
-1023410177
 42
1.0
 72
1
  3

 73
1
 74
1
 75
1
 44
0.5
 73
0
 45
1.0
 46
1.0
 77
1
  4

 78
1
 79
1
170
1
 48
1.0
171
1
  6

172
1
173
1
174
1
140
1.0
141
1.0
175
1
  7

176
1
177
1
178
1
143
1.0
179
1
  8

270
1
271
1
272
1
145
1.0
146
1.0
273
1
  9

274
1
275
1
276
1
 42
1.0
 72
1
  3

 73
1
 74
1
 75
1
 94
63
  0
MATERIAL
  5
21
102
{ACAD_REACTORS
330
E
102
}
330
E
100
AcDbMaterial
  1
Global
  2

 70
0
 40
1.0
 71
1
 41
1.0
 91
-1023410177
 42
1.0
 72
1
  3

 73
1
 74
1
 75
1
 44
0.5
 73
0
 45
1.0
 46
1.0
 77
1
  4

 78
1
 79
1
170
1
 48
1.0
171
1
  6

172
1
173
1
174
1
140
1.0
141
1.0
175
1
  7

176
1
177
1
178
1
143
1.0
179
1
  8

270
1
271
1
272
1
145
1.0
146
1.0
273
1
  9

274
1
275
1
276
1
 42
1.0
 72
1
  3

 73
1
 74
1
 75
1
 94
63
  0
MLINESTYLE
  5
22
102
{ACAD_REACTORS
330
10
102
}
330
10
100
AcDbMlineStyle
  2
Standard
 70
0
  3

 62
256
 51
90.0
 52
90.0
 71
2
 49
0.5
 62
256
  6
BYLAYER
 49
-0.5
 62
256
  6
BYLAYER
  0
MLEADERSTYLE
  5
2C
102
{ACAD_REACTORS
330
F
102
}
330
F
100
AcDbMLeaderStyle
179
2
170
2
171
1
172
0
 90
2
 40
0.0
 41
0.0
173
1
 91
-1056964608
 92
-2
290
1
 42
2.0
291
1
 43
8.0
  3
Standard
 44
4.0
300

342
29
174
1
175
1
176
0
178
1
 93
-1056964608
 45
4.0
292
0
297
0
 46
4.0
 94
-1056964608
 47
1.0
 49
1.0
140
1.0
294
1
141
0.0
177
0
142
1.0
295
0
296
0
143
3.75
271
0
272
9
273
9
  0
DICTIONARY
  5
2D
330
A
100
AcDbDictionary
281
1
  3
CREATED_BY_EZDXF
350
2E
  3
WRITTEN_BY_EZDXF
350
AA
  0
DICTIONARYVAR
  5
2E
330
2D
100
DictionaryVariables
280
0
  1
1.3.0 @ 2026-01-06T17:07:12.923361+00:00
  0
VISUALSTYLE
  5
5A
102
{ACAD_REACTORS
330
16
102
}
330
16
100
AcDbVisualStyle
  2
2dWireframe
 70
4
 90
0
 40
0.6
 62
7
290
0
291
0
  0
VISUALSTYLE
  5
5B
102
{ACAD_REACTORS
330
16
102
}
330
16
100
AcDbVisualStyle
  2
Basic
 70
7
 90
1
 40
0.6
 62
7
290
0
291
1
  0
VISUALSTYLE
  5
5C
102
{ACAD_REACTORS
330
16
102
}
330
16
100
AcDbVisualStyle
  2
Brighten
 70
12
 90
2
 40
0.6
 62
7
290
0
291
1
  0
VISUALSTYLE
  5
5D
102
{ACAD_REACTORS
330
16
102
}
330
16
100
AcDbVisualStyle
  2
ColorChange
 70
16
 90
2
 40
0.6
 62
8
290
0
291
1
  0
VISUALSTYLE
  5
5E
102
{ACAD_REACTORS
330
16
102
}
330
16
100
AcDbVisualStyle
  2
Conceptual
 70
9
 90
3
 40
0.6
 62
7
290
0
291
0
  0
VISUALSTYLE
  5
5F
102
{ACAD_REACTORS
330
16
102
}
330
16
100
AcDbVisualStyle
  2
Dim
 70
11
 90
2
 40
0.6
 62
7
290
0
291
1
  0
VISUALSTYLE
  5
60
102
{ACAD_REACTORS
330
16
102
}
330
16
100
AcDbVisualStyle
  2
EdgeColorOff
 70
22
 90
2
 40
0.6
 62
7
290
0
291
1
  0
VISUALSTYLE
  5
61
102
{ACAD_REACTORS
330
16
102
}
330
16
100
AcDbVisualStyle
  2
Facepattern
 70
15
 90
2
 40
0.6
 62
7
290
0
291
1
  0
VISUALSTYLE
  5
62
102
{ACAD_REACTORS
330
16
102
}
330
16
100
AcDbVisualStyle
  2
Flat
 70
0
 90
2
 40
0.6
 62
7
290
0
291
1
  0
VISUALSTYLE
  5
63
102
{ACAD_REACTORS
330
16
102
}
330
16
100
AcDbVisualStyle
  2
FlatWithEdges
 70
1
 90
2
 40
0.6
 62
7
290
0
291
1
  0
VISUALSTYLE
  5
64
102
{ACAD_REACTORS
330
16
102
}
330
16
100
AcDbVisualStyle
  2
Gouraud
 70
2
 90
2
 40
0.6
 62
7
290
0
291
1
  0
VISUALSTYLE
  5
65
102
{ACAD_REACTORS
330
16
102
}
330
16
100
AcDbVisualStyle
  2
GouraudWithEdges
 70
3
 90
2
 40
0.6
 62
7
290
0
291
1
  0
VISUALSTYLE
  5
66
102
{ACAD_REACTORS
330
16
102
}
330
16
100
AcDbVisualStyle
  2
Hidden
 70
6
 90
1
 40
0.6
 62
7
290
0
291
0
  0
VISUALSTYLE
  5
67
102
{ACAD_REACTORS
330
16
102
}
330
16
100
AcDbVisualStyle
  2
JitterOff
 70
20
 90
2
 40
0.6
 62
7
290
0
291
1
  0
VISUALSTYLE
  5
68
102
{ACAD_REACTORS
330
16
102
}
330
16
100
AcDbVisualStyle
  2
Linepattern
 70
14
 90
2
 40
0.6
 62
7
290
0
291
1
  0
VISUALSTYLE
  5
69
102
{ACAD_REACTORS
330
16
102
}
330
16
100
AcDbVisualStyle
  2
Modeling
 70
10
 90
2
 40
0.6
 62
7
290
0
291
0
  0
VISUALSTYLE
  5
6A
102
{ACAD_REACTORS
330
16
102
}
330
16
100
AcDbVisualStyle
  2
OverhangOff
 70
21
 90
2
 40
0.6
 62
7
290
0
291
1
  0
VISUALSTYLE
  5
6B
102
{ACAD_REACTORS
330
16
102
}
330
16
100
AcDbVisualStyle
  2
Realistic
 70
8
 90
2
 40
0.6
 62
7
290
0
291
0
  0
VISUALSTYLE
  5
6C
102
{ACAD_REACTORS
330
16
102
}
330
16
100
AcDbVisualStyle
  2
Shaded
 70
27
 90
2
 40
0.6
 62
7
290
0
291
0
  0
VISUALSTYLE
  5
6D
102
{ACAD_REACTORS
330
16
102
}
330
16
100
AcDbVisualStyle
  2
Shaded with edges
 70
26
 90
2
 40
0.6
 62
7
290
0
291
0
  0
VISUALSTYLE
  5
6E
102
{ACAD_REACTORS
330
16
102
}
330
16
100
AcDbVisualStyle
  2
Shades of Gray
 70
23
 90
2
 40
0.6
 62
7
290
0
291
0
  0
VISUALSTYLE
  5
6F
102
{ACAD_REACTORS
330
16
102
}
330
16
100
AcDbVisualStyle
  2
Sketchy
 70
24
 90
1
 40
0.6
 62
7
290
0
291
0
  0
VISUALSTYLE
  5
70
102
{ACAD_REACTORS
330
16
102
}
330
16
100
AcDbVisualStyle
  2
Thicken
 70
13
 90
2
 40
0.6
 62
7
290
0
291
1
  0
VISUALSTYLE
  5
71
102
{ACAD_REACTORS
330
16
102
}
330
16
100
AcDbVisualStyle
  2
Wireframe
 70
5
 90
0
 40
0.6
 62
7
290
0
291
0
  0
VISUALSTYLE
  5
72
102
{ACAD_REACTORS
330
16
102
}
330
16
100
AcDbVisualStyle
  2
X-Ray
 70
25
 90
2
 40
0.5
 62
7
290
0
291
0
  0
DICTIONARYVAR
  5
AA
330
2D
100
DictionaryVariables
280
0
  1
1.3.0 @ 2026-01-06T17:07:12.948839+00:00
  0
ENDSEC
  0
EOF
