<?xml version="1.0" encoding="utf-8" standalone="no"?>
<!DOCTYPE svg PUBLIC "-//W3C//DTD SVG 1.1//EN"
  "http://www.w3.org/Graphics/SVG/1.1/DTD/svg11.dtd">
<svg xmlns:xlink="http://www.w3.org/1999/xlink" width="1152pt" height="164.50854pt" viewBox="0 0 1152 164.50854" xmlns="http://www.w3.org/2000/svg" version="1.1">
 <metadata>
  <rdf:RDF xmlns:dc="http://purl.org/dc/elements/1.1/" xmlns:cc="http://creativecommons.org/ns#" xmlns:rdf="http://www.w3.org/1999/02/22-rdf-syntax-ns#">
   <cc:Work>
    <dc:type rdf:resource="http://purl.org/dc/dcmitype/StillImage"/>
    <dc:date>2026-01-07T02:07:23.779335</dc:date>
    <dc:format>image/svg+xml</dc:format>
    <dc:creator>
     <cc:Agent>
      <dc:title>Matplotlib v3.10.1, https://matplotlib.org/</dc:title>
     </cc:Agent>
    </dc:creator>
   </cc:Work>
  </rdf:RDF>
 </metadata>
 <defs>
  <style type="text/css">*{stroke-linejoin: round; stroke-linecap: butt}</style>
 </defs>
 <g id="figure_1">
  <g id="patch_1">
   <path d="M 0 164.50854 
L 1152 164.50854 
L 1152 0 
L 0 0 
z
" style="fill: #ffffff"/>
  </g>
  <g id="axes_1">
   <g id="patch_2">
    <path d="M 0 164.50854 
L 1152 164.50854 
L 1152 0 
L 0 0 
z
" style="fill: #212830"/>
   </g>
   <g id="patch_3">
    <path d="M 1099.437353 156.648173 
L 1071.852623 148.828644 
L 1044.59648 140.920702 
L 1025.151974 135.090655 
L 995.063788 125.800548 
L 964.477902 116.083071 
L 852.570025 80.422748 
L 840.543344 76.742111 
L 840.035015 78.419811 
L 822.123987 73.042376 
L 802.290443 67.294389 
L 782.510449 61.791502 
L 762.775119 56.538894 
L 743.0369 51.558651 
L 723.26894 46.827284 
L 703.493306 42.356696 
L 683.677724 38.158057 
L 663.843886 34.219709 
L 643.94541 30.559173 
L 624.023499 27.157322 
L 604.05813 24.034931 
L 584.046799 21.174414 
L 563.989563 18.584303 
L 543.893383 16.247129 
L 523.777777 14.179517 
L 503.634165 12.384461 
L 483.503661 10.851654 
L 463.387005 9.593378 
L 443.305978 8.626755 
L 423.267401 7.94706 
L 403.283782 7.559647 
L 383.398123 7.479797 
L 363.595106 7.715201 
L 343.904002 8.281074 
L 324.360679 9.172576 
L 304.997408 10.413762 
L 285.81611 12.018947 
L 266.873256 13.981154 
L 248.200633 16.318021 
L 229.890504 19.004373 
L 220.909726 20.486878 
L 203.321078 23.727265 
L 194.746021 25.480149 
L 186.328526 27.317087 
L 170.013294 31.208271 
L 162.164145 33.245339 
L 154.533229 35.344583 
L 147.129784 37.50302 
L 139.949505 39.720845 
L 133.001163 41.992622 
L 119.780377 46.684592 
L 113.532187 49.110286 
L 107.524751 51.582344 
L 101.781931 54.102934 
L 96.310401 56.67091 
L 91.14901 59.269247 
L 86.33829 61.882393 
L 81.894844 64.507384 
L 77.866939 67.071131 
L 74.280974 69.555418 
L 71.126256 71.940002 
L 68.368534 74.210696 
L 65.991102 76.322793 
L 62.108126 80.259688 
L 59.199026 83.721504 
L 57.009945 86.861163 
L 55.37824 89.754615 
L 54.167351 92.403845 
L 53.294184 94.860694 
L 52.701421 97.142389 
L 52.513637 98.054739 
L 52.371488 100.242994 
L 52.422826 102.351381 
L 52.826798 104.535753 
L 53.1987 105.672923 
L 53.701312 106.837686 
L 54.353161 108.033193 
L 55.168337 109.257955 
L 56.154927 110.504304 
L 57.326547 111.764726 
L 58.707244 113.034243 
L 60.338204 114.315352 
L 62.26399 115.618039 
L 64.497513 116.947107 
L 67.053276 118.290766 
L 70.010208 119.63121 
L 73.437053 120.97157 
L 77.329355 122.325656 
L 81.628138 123.674118 
L 86.324275 124.962591 
L 91.385554 126.196136 
L 96.700578 127.371489 
L 102.233687 128.46069 
L 113.97683 130.417011 
L 126.360886 132.260246 
L 139.357686 133.850529 
L 160.292368 136.114627 
L 175.290704 137.462656 
L 191.379057 138.707587 
L 208.555487 139.880879 
L 226.720856 140.934087 
L 245.823765 141.819005 
L 257.979249 142.302642 
L 257.915538 144.054503 
L 286.062865 144.967226 
L 317.426319 145.673715 
L 349.27707 146.19048 
L 403.037718 146.731947 
L 446.252912 146.973898 
L 522.25037 147.123473 
L 630.515479 146.838906 
L 780.752938 146.353206 
L 834.155796 146.439877 
L 887.436999 147.001701 
L 929.853102 147.849538 
L 950.826307 148.457493 
L 982.278289 149.593543 
L 1002.966527 150.49481 
L 1023.311423 151.532559 
L 1043.089894 152.696987 
L 1062.003185 154.003824 
L 1087.676754 155.994561 
L 1099.636364 157.03088 
L 1099.437353 156.648173 
L 1099.437353 156.648173 
" clip-path="url(#pf4821855ee)" style="fill: none; stroke: #ff0000; stroke-width: 0.72; stroke-linejoin: miter"/>
   </g>
   <g id="patch_4">
    <path d="M 738.194041 57.599922 
L 731.379297 55.948105 
L 733.031114 49.133361 
L 739.845858 50.785178 
L 738.194041 57.599922 
" clip-path="url(#pf4821855ee)" style="fill: none; stroke: #ff0000; stroke-width: 0.72; stroke-linejoin: miter"/>
   </g>
   <g id="patch_5">
    <path d="M 343.097615 15.332277 
L 336.09147 15.620631 
L 335.803115 8.614485 
L 342.809261 8.326131 
L 343.097615 15.332277 
" clip-path="url(#pf4821855ee)" style="fill: none; stroke: #ff0000; stroke-width: 0.72; stroke-linejoin: miter"/>
   </g>
   <g id="patch_6">
    <path d="M 164.72949 39.81216 
L 157.968647 41.67233 
L 156.108477 34.911488 
L 162.86932 33.051318 
L 164.72949 39.81216 
" clip-path="url(#pf4821855ee)" style="fill: none; stroke: #ff0000; stroke-width: 0.72; stroke-linejoin: miter"/>
   </g>
   <g id="patch_7">
    <path d="M 75.677844 79.547189 
L 72.972436 81.777228 
L 67.397339 75.013707 
L 70.102748 72.783668 
L 75.677844 79.547189 
" clip-path="url(#pf4821855ee)" style="fill: none; stroke: #ff0000; stroke-width: 0.72; stroke-linejoin: miter"/>
   </g>
   <g id="patch_8">
    <path d="M 64.267247 106.393671 
L 67.174944 108.352651 
L 62.277492 115.621894 
L 59.369795 113.662913 
L 64.267247 106.393671 
" clip-path="url(#pf4821855ee)" style="fill: none; stroke: #ff0000; stroke-width: 0.72; stroke-linejoin: miter"/>
   </g>
   <g id="patch_9">
    <path d="M 202.515779 132.454169 
L 209.512583 132.91672 
L 209.050033 139.913525 
L 202.053228 139.450974 
L 202.515779 132.454169 
" clip-path="url(#pf4821855ee)" style="fill: none; stroke: #ff0000; stroke-width: 0.72; stroke-linejoin: miter"/>
   </g>
   <g id="line2d_1">
    <path d="M 1065.777638 147.088907 
L 1065.326382 148.78285 
" clip-path="url(#pf4821855ee)" style="fill: none; stroke: #ff0000; stroke-width: 0.72; stroke-linecap: square"/>
   </g>
   <g id="line2d_2">
    <path d="M 1064.743861 152.452147 
L 1064.648289 154.202559 
" clip-path="url(#pf4821855ee)" style="fill: none; stroke: #ff0000; stroke-width: 0.72; stroke-linecap: square"/>
   </g>
   <g id="line2d_3">
    <path d="M 1032.135058 137.198898 
L 1031.662181 138.886934 
" clip-path="url(#pf4821855ee)" style="fill: none; stroke: #ff0000; stroke-width: 0.72; stroke-linecap: square"/>
   </g>
   <g id="line2d_4">
    <path d="M 1029.768273 150.143819 
L 1029.662765 151.893661 
" clip-path="url(#pf4821855ee)" style="fill: none; stroke: #ff0000; stroke-width: 0.72; stroke-linecap: square"/>
   </g>
   <g id="line2d_5">
    <path d="M 898.406129 94.87167 
L 897.895776 96.548756 
" clip-path="url(#pf4821855ee)" style="fill: none; stroke: #ff0000; stroke-width: 0.72; stroke-linecap: square"/>
   </g>
   <g id="line2d_6">
    <path d="M 889.565663 145.286146 
L 889.490026 147.037533 
" clip-path="url(#pf4821855ee)" style="fill: none; stroke: #ff0000; stroke-width: 0.72; stroke-linecap: square"/>
   </g>
   <g id="patch_10">
    <path d="M 508.581826 77.18974 
L 508.467688 73.537441 
L 508.125726 69.899651 
L 507.557299 66.290825 
L 506.764666 62.725301 
L 505.750975 59.217243 
L 504.520255 55.780589 
L 503.077394 52.428994 
L 501.428125 49.175772 
L 499.579 46.033849 
L 497.537367 43.015708 
L 495.311336 40.133339 
L 492.909752 37.398195 
L 490.342155 34.821142 
L 487.618748 32.412418 
L 484.750349 30.181593 
L 481.748355 28.137531 
L 478.624693 26.288351 
L 475.391773 24.641402 
L 472.06244 23.203227 
L 468.64992 21.979538 
L 465.167772 20.975198 
L 461.62983 20.194198 
L 458.05015 19.639639 
L 454.442955 19.313725 
L 450.822575 19.217752 
L 447.203394 19.3521 
L 443.599792 19.716236 
L 440.026084 20.308712 
L 436.496471 21.127175 
L 433.024973 22.168374 
L 429.625385 23.428172 
L 426.311211 24.901562 
L 423.09562 26.582693 
L 419.991387 28.464884 
L 417.010844 30.540658 
L 414.165834 32.801768 
L 411.46766 35.239229 
L 408.927041 37.84336 
L 406.554071 40.603813 
L 404.358179 43.50962 
L 402.348087 46.549238 
L 400.531783 49.71059 
L 398.916482 52.981116 
L 397.508602 56.347823 
L 396.313737 59.797334 
L 395.336633 63.315944 
L 394.581173 66.889675 
L 394.050357 70.504327 
L 393.746296 74.145541 
L 393.670197 77.798849 
L 393.822362 81.449737 
L 394.202187 85.083701 
L 394.808162 88.686301 
L 395.637881 92.243227 
L 396.688046 95.740345 
L 397.954486 99.163762 
L 399.432169 102.499876 
L 401.115224 105.735435 
L 402.996965 108.857581 
L 405.069914 111.853912 
L 407.325838 114.712524 
L 409.755772 117.422058 
L 412.350062 119.971749 
L 415.098403 122.35147 
L 417.989874 124.551763 
L 421.012987 126.563888 
L 424.155733 128.379851 
L 427.405625 129.992437 
L 430.749751 131.395239 
L 434.174825 132.582684 
L 437.667239 133.550054 
L 441.213119 134.293505 
L 444.798376 134.810085 
L 448.408766 135.097741 
L 452.029946 135.155329 
L 455.647527 134.982621 
L 459.247139 134.580304 
L 462.814479 133.949975 
L 466.335376 133.094139 
L 469.795839 132.016196 
L 473.182121 130.720429 
L 476.480768 129.211986 
L 479.678676 127.49686 
L 482.763138 125.581864 
L 485.7219 123.474608 
L 488.543207 121.183463 
L 491.21585 118.717532 
L 493.729211 116.086612 
L 496.073304 113.301156 
L 498.238816 110.37223 
L 500.217144 107.311471 
L 502.000427 104.131038 
L 503.581582 100.843569 
L 504.954325 97.462123 
L 506.113204 94.000136 
L 507.053613 90.471362 
L 507.771817 86.88982 
L 508.264962 83.269739 
L 508.531089 79.625503 
L 508.581826 77.18974 
L 508.581826 77.18974 
" clip-path="url(#pf4821855ee)" style="fill: none; stroke: #ff0000; stroke-width: 0.72; stroke-linejoin: miter"/>
   </g>
   <g id="line2d_7">
    <path d="M 65.110196 77.18974 
L 842.020708 77.18974 
" clip-path="url(#pf4821855ee)" style="fill: none; stroke: #ffffff; stroke-width: 0.72; stroke-linecap: square"/>
   </g>
   <g id="line2d_8">
    <path d="M 216.810958 77.18974 
L 237.84719 77.18974 
" clip-path="url(#pf4821855ee)" style="fill: none; stroke: #ffffff; stroke-width: 0.72; stroke-linecap: square"/>
   </g>
   <g id="patch_11">
    <path d="M 227.329074 68.424644 
L 236.094171 77.18974 
L 227.329074 85.954837 
L 218.563977 77.18974 
L 227.329074 68.424644 
" clip-path="url(#pf4821855ee)" style="fill: none; stroke: #ff0000; stroke-width: 0.72; stroke-linejoin: miter"/>
   </g>
   <g id="line2d_9">
    <path d="M 443.047336 77.18974 
L 464.083568 77.18974 
" clip-path="url(#pf4821855ee)" style="fill: none; stroke: #ffffff; stroke-width: 0.72; stroke-linecap: square"/>
   </g>
   <g id="patch_12">
    <path d="M 453.565452 68.424644 
L 462.330549 77.18974 
L 453.565452 85.954837 
L 444.800355 77.18974 
L 453.565452 68.424644 
" clip-path="url(#pf4821855ee)" style="fill: none; stroke: #ff0000; stroke-width: 0.72; stroke-linejoin: miter"/>
   </g>
   <g id="line2d_10">
    <path d="M 669.283714 77.18974 
L 690.319947 77.18974 
" clip-path="url(#pf4821855ee)" style="fill: none; stroke: #ffffff; stroke-width: 0.72; stroke-linecap: square"/>
   </g>
   <g id="patch_13">
    <path d="M 679.80183 68.424644 
L 688.566927 77.18974 
L 679.80183 85.954837 
L 671.036734 77.18974 
L 679.80183 68.424644 
" clip-path="url(#pf4821855ee)" style="fill: none; stroke: #ff0000; stroke-width: 0.72; stroke-linejoin: miter"/>
   </g>
   <g id="line2d_11">
    <path d="M 52.449406 98.849345 
L 1097.009003 155.969221 
" clip-path="url(#pf4821855ee)" style="fill: none; stroke: #ffffff; stroke-width: 0.72; stroke-linecap: square"/>
   </g>
   <g id="line2d_12">
    <path d="M 257.685477 110.072313 
L 278.690327 111.220926 
" clip-path="url(#pf4821855ee)" style="fill: none; stroke: #ffffff; stroke-width: 0.72; stroke-linecap: square"/>
   </g>
   <g id="patch_14">
    <path d="M 268.666491 101.894598 
L 276.939923 111.125208 
L 267.709313 119.398641 
L 259.435881 110.168031 
L 268.666491 101.894598 
" clip-path="url(#pf4821855ee)" style="fill: none; stroke: #ff0000; stroke-width: 0.72; stroke-linejoin: miter"/>
   </g>
   <g id="line2d_13">
    <path d="M 513.136562 124.041199 
L 534.141413 125.189812 
" clip-path="url(#pf4821855ee)" style="fill: none; stroke: #ffffff; stroke-width: 0.72; stroke-linecap: square"/>
   </g>
   <g id="patch_15">
    <path d="M 524.117576 115.863485 
L 532.391009 125.094095 
L 523.160399 133.367527 
L 514.886966 124.136917 
L 524.117576 115.863485 
" clip-path="url(#pf4821855ee)" style="fill: none; stroke: #ff0000; stroke-width: 0.72; stroke-linejoin: miter"/>
   </g>
   <g id="line2d_14">
    <path d="M 451.124426 19.216952 
L 451.124426 17.463933 
" clip-path="url(#pf4821855ee)" style="fill: none; stroke: #ff0000; stroke-width: 0.72; stroke-linecap: square"/>
   </g>
   <g id="line2d_15">
    <path d="M 451.124426 135.162529 
L 451.124426 136.915548 
" clip-path="url(#pf4821855ee)" style="fill: none; stroke: #ff0000; stroke-width: 0.72; stroke-linecap: square"/>
   </g>
   <g id="line2d_16">
    <path d="M 508.581826 77.18974 
L 510.334846 77.18974 
" clip-path="url(#pf4821855ee)" style="fill: none; stroke: #ff0000; stroke-width: 0.72; stroke-linecap: square"/>
   </g>
   <g id="line2d_17">
    <path d="M 393.667025 77.18974 
L 391.914006 77.18974 
" clip-path="url(#pf4821855ee)" style="fill: none; stroke: #ff0000; stroke-width: 0.72; stroke-linecap: square"/>
   </g>
   <g id="line2d_18">
    <path d="M 310.882877 145.544333 
L 310.882877 10.006969 
" clip-path="url(#pf4821855ee)" style="fill: none; stroke: #ffffff; stroke-width: 0.72; stroke-linecap: square"/>
   </g>
   <g id="line2d_19">
    <path d="M 310.882877 105.205984 
L 310.882877 84.169751 
" clip-path="url(#pf4821855ee)" style="fill: none; stroke: #ffffff; stroke-width: 0.72; stroke-linecap: square"/>
   </g>
   <g id="patch_16">
    <path d="M 302.117781 94.687868 
L 310.882877 85.922771 
L 319.647974 94.687868 
L 310.882877 103.452964 
L 302.117781 94.687868 
" clip-path="url(#pf4821855ee)" style="fill: none; stroke: #ff0000; stroke-width: 0.72; stroke-linejoin: miter"/>
   </g>
   <g id="line2d_20">
    <path d="M 310.882877 71.38155 
L 310.882877 50.345318 
" clip-path="url(#pf4821855ee)" style="fill: none; stroke: #ffffff; stroke-width: 0.72; stroke-linecap: square"/>
   </g>
   <g id="patch_17">
    <path d="M 302.117781 60.863434 
L 310.882877 52.098337 
L 319.647974 60.863434 
L 310.882877 69.628531 
L 302.117781 60.863434 
" clip-path="url(#pf4821855ee)" style="fill: none; stroke: #ff0000; stroke-width: 0.72; stroke-linejoin: miter"/>
   </g>
   <g id="line2d_21">
    <path d="M 679.016942 146.662508 
L 679.016942 37.214341 
" clip-path="url(#pf4821855ee)" style="fill: none; stroke: #ffffff; stroke-width: 0.72; stroke-linecap: square"/>
   </g>
   <g id="line2d_22">
    <path d="M 679.016942 115.455378 
L 679.016942 94.419146 
" clip-path="url(#pf4821855ee)" style="fill: none; stroke: #ffffff; stroke-width: 0.72; stroke-linecap: square"/>
   </g>
   <g id="patch_18">
    <path d="M 670.251845 104.937262 
L 679.016942 96.172165 
L 687.782039 104.937262 
L 679.016942 113.702359 
L 670.251845 104.937262 
" clip-path="url(#pf4821855ee)" style="fill: none; stroke: #ff0000; stroke-width: 0.72; stroke-linejoin: miter"/>
   </g>
   <g id="line2d_23">
    <path d="M 679.016942 89.457703 
L 679.016942 68.421471 
" clip-path="url(#pf4821855ee)" style="fill: none; stroke: #ffffff; stroke-width: 0.72; stroke-linecap: square"/>
   </g>
   <g id="patch_19">
    <path d="M 670.251845 78.939587 
L 679.016942 70.17449 
L 687.782039 78.939587 
L 679.016942 87.704684 
L 670.251845 78.939587 
" clip-path="url(#pf4821855ee)" style="fill: none; stroke: #ff0000; stroke-width: 0.72; stroke-linejoin: miter"/>
   </g>
   <g id="patch_20">
    <path d="M 354.748568 112.230024 
L 351.242529 112.230024 
" clip-path="url(#pf4821855ee)" style="fill: none; stroke: #ff0000; stroke-width: 0.72; stroke-linejoin: miter"/>
   </g>
   <g id="patch_21">
    <path d="M 349.48951 112.230024 
L 345.983471 112.230024 
L 345.983471 129.760218 
L 349.48951 129.760218 
" clip-path="url(#pf4821855ee)" style="fill: none; stroke: #ff0000; stroke-width: 0.72; stroke-linejoin: miter"/>
   </g>
   <g id="patch_22">
    <path d="M 351.242529 129.760218 
L 354.748568 129.760218 
L 354.748568 120.995121 
L 351.242529 120.995121 
" clip-path="url(#pf4821855ee)" style="fill: none; stroke: #ff0000; stroke-width: 0.72; stroke-linejoin: miter"/>
   </g>
   <g id="patch_23">
    <path d="M 349.48951 120.995121 
L 345.983471 120.995121 
" clip-path="url(#pf4821855ee)" style="fill: none; stroke: #ff0000; stroke-width: 0.72; stroke-linejoin: miter"/>
   </g>
   <g id="patch_24">
    <path d="M 367.896213 112.230024 
L 359.131117 112.230024 
L 359.131117 120.995121 
L 367.896213 120.995121 
L 367.896213 129.760218 
L 359.131117 129.760218 
" clip-path="url(#pf4821855ee)" style="fill: none; stroke: #ff0000; stroke-width: 0.72; stroke-linejoin: miter"/>
   </g>
  </g>
 </g>
 <defs>
  <clipPath id="pf4821855ee">
   <rect x="0" y="0" width="1152" height="164.50854"/>
  </clipPath>
 </defs>
</svg>
