<?xml version="1.0" encoding="utf-8" standalone="no"?>
<!DOCTYPE svg PUBLIC "-//W3C//DTD SVG 1.1//EN"
  "http://www.w3.org/Graphics/SVG/1.1/DTD/svg11.dtd">
<svg xmlns:xlink="http://www.w3.org/1999/xlink" width="1152pt" height="335.570033pt" viewBox="0 0 1152 335.570033" xmlns="http://www.w3.org/2000/svg" version="1.1">
 <metadata>
  <rdf:RDF xmlns:dc="http://purl.org/dc/elements/1.1/" xmlns:cc="http://creativecommons.org/ns#" xmlns:rdf="http://www.w3.org/1999/02/22-rdf-syntax-ns#">
   <cc:Work>
    <dc:type rdf:resource="http://purl.org/dc/dcmitype/StillImage"/>
    <dc:date>2026-01-07T02:07:06.524283</dc:date>
    <dc:format>image/svg+xml</dc:format>
    <dc:creator>
     <cc:Agent>
      <dc:title>Matplotlib v3.10.1, https://matplotlib.org/</dc:title>
     </cc:Agent>
    </dc:creator>
   </cc:Work>
  </rdf:RDF>
 </metadata>
 <defs>
  <style type="text/css">*{stroke-linejoin: round; stroke-linecap: butt}</style>
 </defs>
 <g id="figure_1">
  <g id="patch_1">
   <path d="M 0 335.570033 
L 1152 335.570033 
L 1152 0 
L 0 0 
z
" style="fill: #ffffff"/>
  </g>
  <g id="axes_1">
   <g id="patch_2">
    <path d="M 0 335.570033 
L 1152 335.570033 
L 1152 0 
L 0 0 
z
" style="fill: #212830"/>
   </g>
   <g id="patch_3">
    <path d="M 1099.636364 41.627339 
L 1094.684749 40.891419 
L 1072.020931 37.719374 
L 1049.374424 34.758838 
L 1026.745658 32.022919 
L 1004.130536 29.51256 
L 981.528396 27.220384 
L 958.946817 25.132477 
L 936.408577 23.235929 
L 913.946074 21.532643 
L 891.576011 20.042905 
L 869.288138 18.781545 
L 847.067273 17.738238 
L 824.92019 16.886671 
L 802.87663 16.206539 
L 780.974839 15.694552 
L 759.249817 15.366627 
L 737.712887 15.253183 
L 716.34077 15.376695 
L 695.097688 15.720851 
L 673.987806 16.23562 
L 653.070314 16.884381 
L 632.413361 17.683507 
L 612.038405 18.684673 
L 591.914147 19.926081 
L 571.992669 21.403422 
L 552.249981 23.070762 
L 532.719021 24.867027 
L 513.485086 26.767519 
L 494.620739 28.817988 
L 476.11107 31.099041 
L 457.866343 33.63793 
L 439.827582 36.36797 
L 422.042206 39.196061 
L 404.618244 42.099467 
L 387.615829 45.137771 
L 371.008376 48.376988 
L 354.735493 51.828739 
L 338.766558 55.454716 
L 323.113699 59.207324 
L 307.817074 63.056679 
L 292.920034 66.998819 
L 278.451562 71.051654 
L 264.412038 75.242092 
L 250.779854 79.583722 
L 237.531295 84.066941 
L 224.660817 88.663011 
L 212.186701 93.343841 
L 200.134371 98.09771 
L 188.515531 102.928669 
L 177.326627 107.837129 
L 166.569166 112.806749 
L 156.263331 117.818376 
L 146.430403 122.872114 
L 137.070397 127.979512 
L 128.170969 133.138912 
L 119.731018 138.331389 
L 111.76375 143.537487 
L 104.282037 148.749332 
L 97.296284 153.960419 
L 90.815561 159.169146 
L 84.831297 164.388076 
L 79.311752 169.621554 
L 74.238804 174.824363 
L 69.653698 179.913813 
L 65.629978 184.852735 
L 62.197912 189.691804 
L 59.32077 194.506331 
L 56.946173 199.301912 
L 55.055062 204.014775 
L 53.658647 208.595165 
L 52.765078 213.038657 
L 52.363636 217.603689 
L 52.464394 221.439634 
L 53.073656 225.339587 
L 54.250666 229.098664 
L 56.050707 232.804141 
L 58.476387 236.487411 
L 61.488081 240.116772 
L 65.077728 243.647619 
L 69.291237 247.064811 
L 74.172197 250.38056 
L 79.715734 253.605961 
L 85.899128 256.731872 
L 92.72864 259.743342 
L 100.230854 262.643786 
L 108.411614 265.454103 
L 117.249591 268.191421 
L 126.719666 270.858631 
L 136.805339 273.451251 
L 147.495003 275.96373 
L 158.782149 278.389303 
L 170.667603 280.725233 
L 183.146617 282.976905 
L 196.201094 285.146006 
L 209.816912 287.221849 
L 224.000661 289.192888 
L 238.76194 291.064305 
L 254.092661 292.849362 
L 269.974595 294.55092 
L 286.40237 296.164027 
L 303.377563 297.692317 
L 338.923065 300.538618 
L 376.493564 303.116438 
L 415.995832 305.446601 
L 457.321817 307.534975 
L 462.54652 307.770657 
L 462.460884 309.669071 
L 500.298745 311.306223 
L 544.955838 312.973143 
L 591.07456 314.436219 
L 638.541997 315.652073 
L 687.29171 316.615523 
L 737.260073 317.335566 
L 866.781162 318.738094 
L 1055.051149 320.07639 
L 1099.636364 320.31685 
L 1099.636364 41.627339 
L 1099.636364 41.627339 
" clip-path="url(#p436c22975d)" style="fill: none; stroke: #ff0000; stroke-width: 0.72; stroke-linejoin: miter"/>
   </g>
   <g id="patch_4">
    <path d="M 644.503821 252.940242 
L 644.503821 271.943689 
" clip-path="url(#p436c22975d)" style="fill: none; stroke: #ff0000; stroke-width: 0.72; stroke-linejoin: miter"/>
   </g>
   <g id="patch_5">
    <path d="M 654.005545 252.940242 
L 663.507268 252.940242 
L 663.507268 262.441965 
L 654.005545 262.441965 
L 663.507268 262.441965 
L 663.507268 271.943689 
L 654.005545 271.943689 
" clip-path="url(#p436c22975d)" style="fill: none; stroke: #ff0000; stroke-width: 0.72; stroke-linejoin: miter"/>
   </g>
   <g id="patch_6">
    <path d="M 632.580987 25.285822 
L 624.988773 25.658965 
L 624.61563 18.06675 
L 632.207845 17.693608 
L 632.580987 25.285822 
" clip-path="url(#p436c22975d)" style="fill: none; stroke: #ff0000; stroke-width: 0.72; stroke-linejoin: miter"/>
   </g>
   <g id="patch_7">
    <path d="M 275.146939 79.970941 
L 267.863158 82.14522 
L 265.688879 74.861439 
L 272.97266 72.68716 
L 275.146939 79.970941 
" clip-path="url(#p436c22975d)" style="fill: none; stroke: #ff0000; stroke-width: 0.72; stroke-linejoin: miter"/>
   </g>
   <g id="patch_8">
    <path d="M 94.176348 168.847267 
L 91.312713 171.346234 
L 85.065296 164.187147 
L 87.92893 161.68818 
L 94.176348 168.847267 
" clip-path="url(#p436c22975d)" style="fill: none; stroke: #ff0000; stroke-width: 0.72; stroke-linejoin: miter"/>
   </g>
   <g id="patch_9">
    <path d="M 73.712832 238.583259 
L 76.85919 240.715315 
L 71.529049 248.581213 
L 68.38269 246.449156 
L 73.712832 238.583259 
" clip-path="url(#p436c22975d)" style="fill: none; stroke: #ff0000; stroke-width: 0.72; stroke-linejoin: miter"/>
   </g>
   <g id="patch_10">
    <path d="M 354.955005 294.077751 
L 362.5399 294.578076 
L 362.039575 302.162971 
L 354.45468 301.662645 
L 354.955005 294.077751 
" clip-path="url(#p436c22975d)" style="fill: none; stroke: #ff0000; stroke-width: 0.72; stroke-linejoin: miter"/>
   </g>
   <g id="patch_11">
    <path d="M 969.804869 167.424733 
L 969.698008 162.02876 
L 969.377614 156.642317 
L 968.844252 151.274917 
L 968.098865 145.936038 
L 967.14277 140.635111 
L 965.977654 135.381496 
L 964.605575 130.184473 
L 963.028956 125.05322 
L 961.250583 119.996798 
L 959.273595 115.024139 
L 957.101485 110.144024 
L 954.738088 105.365072 
L 952.187579 100.695723 
L 949.454461 96.144224 
L 946.543563 91.718613 
L 943.460024 87.426705 
L 940.20929 83.276082 
L 936.797103 79.274073 
L 933.229489 75.427746 
L 929.512749 71.743894 
L 925.653446 68.229024 
L 921.658397 64.889342 
L 917.534657 61.730748 
L 913.289509 58.758818 
L 908.930451 55.978803 
L 904.46518 53.395611 
L 899.901584 51.013806 
L 895.247721 48.837593 
L 890.511812 46.870815 
L 885.702219 45.116948 
L 880.827437 43.579087 
L 875.896076 42.259948 
L 870.916845 41.161863 
L 865.898537 40.286769 
L 860.850015 39.636213 
L 855.780196 39.211343 
L 850.698033 39.012909 
L 845.612501 39.041263 
L 840.532583 39.296354 
L 835.46725 39.777732 
L 830.425448 40.484546 
L 825.416081 41.415548 
L 820.447995 42.569094 
L 815.529966 43.943146 
L 810.670679 45.535278 
L 805.878715 47.342679 
L 801.162539 49.362155 
L 796.530478 51.590141 
L 791.990714 54.022701 
L 787.551265 56.65554 
L 783.21997 59.484008 
L 779.004479 62.503109 
L 774.912238 65.707511 
L 770.950473 69.091555 
L 767.126181 72.649265 
L 763.446117 76.374356 
L 759.91678 80.260252 
L 756.544402 84.300087 
L 753.334941 88.486729 
L 750.294063 92.812782 
L 747.427139 97.270607 
L 744.739234 101.852331 
L 742.235093 106.549861 
L 739.91914 111.354903 
L 737.795464 116.258968 
L 735.867816 121.253397 
L 734.139601 126.329369 
L 732.61387 131.47792 
L 731.293319 136.689955 
L 730.18028 141.956271 
L 729.276717 147.267567 
L 728.584228 152.614462 
L 728.104035 157.987514 
L 727.836986 163.377232 
L 727.783552 168.774099 
L 727.943829 174.168583 
L 728.317533 179.551156 
L 728.904003 184.912313 
L 729.702205 190.242585 
L 730.710729 195.532559 
L 731.927793 200.772892 
L 733.351248 205.954329 
L 734.97858 211.067719 
L 736.806915 216.104031 
L 738.833025 221.054372 
L 741.053329 225.909997 
L 743.463909 230.662332 
L 746.060505 235.302984 
L 748.838533 239.823757 
L 751.793086 244.216666 
L 754.918946 248.473953 
L 758.210592 252.5881 
L 761.662212 256.551841 
L 765.267709 260.358175 
L 769.020715 264.000379 
L 772.914603 267.472023 
L 776.942495 270.766973 
L 781.097279 273.879412 
L 785.371615 276.803842 
L 789.757956 279.535098 
L 794.248554 282.068357 
L 798.835479 284.399145 
L 803.51063 286.523345 
L 808.26575 288.437206 
L 813.092441 290.137348 
L 817.982179 291.620767 
L 822.926327 292.884846 
L 827.916155 293.92735 
L 832.94285 294.746439 
L 837.997534 295.340666 
L 843.07128 295.708981 
L 848.155127 295.850735 
L 853.240096 295.765676 
L 858.317209 295.453956 
L 863.377496 294.916124 
L 868.412023 294.15313 
L 873.411896 293.166323 
L 878.368287 291.957444 
L 883.272441 290.528629 
L 888.115697 288.882401 
L 892.889503 287.021668 
L 897.585426 284.949715 
L 902.195173 282.670203 
L 906.710603 280.187156 
L 911.123742 277.50496 
L 915.426795 274.628353 
L 919.612163 271.562414 
L 923.672454 268.312558 
L 927.600497 264.884525 
L 931.389355 261.284369 
L 935.032337 257.518448 
L 938.523008 253.593414 
L 941.855204 249.516197 
L 945.02304 245.294 
L 948.020921 240.934278 
L 950.843552 236.444732 
L 953.485949 231.833289 
L 955.943445 227.108096 
L 958.211699 222.277496 
L 960.286706 217.350021 
L 962.164801 212.334373 
L 963.842667 207.239411 
L 965.317342 202.074132 
L 966.586219 196.847659 
L 967.647059 191.569223 
L 968.497989 186.248145 
L 969.137504 180.893824 
L 969.564476 175.515714 
L 969.778151 170.123316 
L 969.804869 167.424733 
L 969.804869 167.424733 
" clip-path="url(#p436c22975d)" style="fill: none; stroke: #ff0000; stroke-width: 0.72; stroke-linejoin: miter"/>
   </g>
   <g id="patch_12">
    <path d="M 392.877172 157.92301 
L 402.378895 167.424733 
L 392.877172 176.926456 
L 383.375449 167.424733 
L 392.877172 157.92301 
" clip-path="url(#p436c22975d)" style="fill: none; stroke: #ff0000; stroke-width: 0.72; stroke-linejoin: miter"/>
   </g>
   <g id="patch_13">
    <path d="M 841.22159 157.92301 
L 850.723313 167.424733 
L 841.22159 176.926456 
L 831.719867 167.424733 
L 841.22159 157.92301 
" clip-path="url(#p436c22975d)" style="fill: none; stroke: #ff0000; stroke-width: 0.72; stroke-linejoin: miter"/>
   </g>
   <g id="patch_14">
    <path d="M 460.723256 232.91689 
L 469.588482 243.015071 
L 459.4903 251.880296 
L 450.625075 241.782115 
L 460.723256 232.91689 
" clip-path="url(#p436c22975d)" style="fill: none; stroke: #ff0000; stroke-width: 0.72; stroke-linejoin: miter"/>
   </g>
   <g id="patch_15">
    <path d="M 954.806905 265.041039 
L 963.672131 275.13922 
L 953.573949 284.004445 
L 944.708724 273.906264 
L 954.806905 265.041039 
" clip-path="url(#p436c22975d)" style="fill: none; stroke: #ff0000; stroke-width: 0.72; stroke-linejoin: miter"/>
   </g>
   <g id="patch_16">
    <path d="M 554.237451 207.867005 
L 563.739174 198.365282 
L 573.240897 207.867005 
L 563.739174 217.368728 
L 554.237451 207.867005 
" clip-path="url(#p436c22975d)" style="fill: none; stroke: #ff0000; stroke-width: 0.72; stroke-linejoin: miter"/>
   </g>
   <g id="patch_17">
    <path d="M 554.237451 127.829633 
L 563.739174 118.32791 
L 573.240897 127.829633 
L 563.739174 137.331356 
L 554.237451 127.829633 
" clip-path="url(#p436c22975d)" style="fill: none; stroke: #ff0000; stroke-width: 0.72; stroke-linejoin: miter"/>
   </g>
   <g id="line2d_1">
    <path d="M 81.628653 167.424733 
L 1099.636364 167.424733 
" clip-path="url(#p436c22975d)" style="fill: none; stroke: #ffffff; stroke-width: 0.72; stroke-linecap: square"/>
   </g>
   <g id="line2d_2">
    <path d="M 381.475104 167.424733 
L 404.27924 167.424733 
" clip-path="url(#p436c22975d)" style="fill: none; stroke: #ffffff; stroke-width: 0.72; stroke-linecap: square"/>
   </g>
   <g id="line2d_3">
    <path d="M 829.819522 167.424733 
L 852.623658 167.424733 
" clip-path="url(#p436c22975d)" style="fill: none; stroke: #ffffff; stroke-width: 0.72; stroke-linecap: square"/>
   </g>
   <g id="line2d_4">
    <path d="M 52.513645 215.897852 
L 1099.636364 283.979293 
" clip-path="url(#p436c22975d)" style="fill: none; stroke: #ffffff; stroke-width: 0.72; stroke-linecap: square"/>
   </g>
   <g id="line2d_5">
    <path d="M 448.728734 241.658819 
L 471.484822 243.138366 
" clip-path="url(#p436c22975d)" style="fill: none; stroke: #ffffff; stroke-width: 0.72; stroke-linecap: square"/>
   </g>
   <g id="line2d_6">
    <path d="M 942.812383 273.782969 
L 965.568471 275.262516 
" clip-path="url(#p436c22975d)" style="fill: none; stroke: #ffffff; stroke-width: 0.72; stroke-linecap: square"/>
   </g>
   <g id="line2d_7">
    <path d="M 848.790871 38.99696 
L 848.790871 37.096615 
" clip-path="url(#p436c22975d)" style="fill: none; stroke: #ff0000; stroke-width: 0.72; stroke-linecap: square"/>
   </g>
   <g id="line2d_8">
    <path d="M 848.790871 295.852507 
L 848.790871 297.752852 
" clip-path="url(#p436c22975d)" style="fill: none; stroke: #ff0000; stroke-width: 0.72; stroke-linecap: square"/>
   </g>
   <g id="line2d_9">
    <path d="M 969.804869 167.424733 
L 971.705213 167.424733 
" clip-path="url(#p436c22975d)" style="fill: none; stroke: #ff0000; stroke-width: 0.72; stroke-linecap: square"/>
   </g>
   <g id="line2d_10">
    <path d="M 727.776872 167.424733 
L 725.876528 167.424733 
" clip-path="url(#p436c22975d)" style="fill: none; stroke: #ff0000; stroke-width: 0.72; stroke-linecap: square"/>
   </g>
   <g id="line2d_11">
    <path d="M 563.739174 313.596179 
L 563.739174 22.100459 
" clip-path="url(#p436c22975d)" style="fill: none; stroke: #ffffff; stroke-width: 0.72; stroke-linecap: square"/>
   </g>
   <g id="line2d_12">
    <path d="M 563.739174 219.269073 
L 563.739174 196.464937 
" clip-path="url(#p436c22975d)" style="fill: none; stroke: #ffffff; stroke-width: 0.72; stroke-linecap: square"/>
   </g>
   <g id="line2d_13">
    <path d="M 563.739174 139.231701 
L 563.739174 116.427565 
" clip-path="url(#p436c22975d)" style="fill: none; stroke: #ffffff; stroke-width: 0.72; stroke-linecap: square"/>
   </g>
  </g>
 </g>
 <defs>
  <clipPath id="p436c22975d">
   <rect x="0" y="0" width="1152" height="335.570033"/>
  </clipPath>
 </defs>
</svg>
