  0
SECTION
  2
HEADER
  9
$ACADVER
  1
AC1021
  9
$ACADMAINTVER
 70
25
  9
$DWGCODEPAGE
  3
ANSI_1252
  9
$LASTSAVEDBY
  1
ezdxf
  9
$INSBASE
 10
0.0
 20
0.0
 30
0.0
  9
$EXTMIN
 10
1e+20
 20
1e+20
 30
1e+20
  9
$EXTMAX
 10
-1e+20
 20
-1e+20
 30
-1e+20
  9
$LIMMIN
 10
0.0
 20
0.0
  9
$LIMMAX
 10
420.0
 20
297.0
  9
$ORTHOMODE
 70
0
  9
$REGENMODE
 70
1
  9
$FILLMODE
 70
1
  9
$QTEXTMODE
 70
0
  9
$MIRRTEXT
 70
1
  9
$LTSCALE
 40
1.0
  9
$ATTMODE
 70
1
  9
$TEXTSIZE
 40
2.5
  9
$TRACEWID
 40
1.0
  9
$TEXTSTYLE
  7
OpenSans
  9
$CLAYER
  8
0
  9
$CELTYPE
  6
ByLayer
  9
$CECOLOR
 62
256
  9
$CELTSCALE
 40
1.0
  9
$DISPSILH
 70
0
  9
$DIMSCALE
 40
1.0
  9
$DIMASZ
 40
0.175
  9
$DIMEXO
 40
0.125
  9
$DIMDLI
 40
3.75
  9
$DIMRND
 40
0.0
  9
$DIMDLE
 40
0.0
  9
$DIMEXE
 40
0.375
  9
$DIMTP
 40
0.0
  9
$DIMTM
 40
0.0
  9
$DIMTXT
 40
0.25
  9
$DIMCEN
 40
2.5
  9
$DIMTSZ
 40
0.0
  9
$DIMTOL
 70
0
  9
$DIMLIM
 70
0
  9
$DIMTIH
 70
0
  9
$DIMTOH
 70
0
  9
$DIMSE1
 70
0
  9
$DIMSE2
 70
0
  9
$DIMTAD
 70
1
  9
$DIMZIN
 70
12
  9
$DIMBLK
  1
ARCHTICK
  9
$DIMASO
 70
1
  9
$DIMSHO
 70
1
  9
$DIMPOST
  1

  9
$DIMAPOST
  1

  9
$DIMALT
 70
0
  9
$DIMALTD
 70
3
  9
$DIMALTF
 40
0.03937007874
  9
$DIMLFAC
 40
100.0
  9
$DIMTOFL
 70
1
  9
$DIMTVP
 40
0.0
  9
$DIMTIX
 70
0
  9
$DIMSOXD
 70
0
  9
$DIMSAH
 70
0
  9
$DIMBLK1
  1

  9
$DIMBLK2
  1

  9
$DIMSTYLE
  2
EZDXF
  9
$DIMCLRD
 70
0
  9
$DIMCLRE
 70
0
  9
$DIMCLRT
 70
0
  9
$DIMTFAC
 40
0.5
  9
$DIMGAP
 40
0.1
  9
$DIMJUST
 70
0
  9
$DIMSD1
 70
0
  9
$DIMSD2
 70
0
  9
$DIMTOLJ
 70
0
  9
$DIMTZIN
 70
8
  9
$DIMALTZ
 70
0
  9
$DIMALTTZ
 70
0
  9
$DIMUPT
 70
1
  9
$DIMDEC
 70
2
  9
$DIMTDEC
 70
2
  9
$DIMALTU
 70
2
  9
$DIMALTTD
 70
3
  9
$DIMTXSTY
  7
OpenSansCondensed-Light
  9
$DIMAUNIT
 70
0
  9
$DIMADEC
 70
2
  9
$DIMALTRND
 40
0.0
  9
$DIMAZIN
 70
3
  9
$DIMDSEP
 70
46
  9
$DIMATFIT
 70
3
  9
$DIMFRAC
 70
0
  9
$DIMLDRBLK
  1

  9
$DIMLUNIT
 70
2
  9
$DIMLWD
 70
-2
  9
$DIMLWE
 70
-2
  9
$DIMTMOVE
 70
2
  9
$DIMFXL
 40
1.0
  9
$DIMFXLON
 70
0
  9
$DIMJOGANG
 40
0.785398163397
  9
$DIMTFILL
 70
0
  9
$DIMTFILLCLR
 70
0
  9
$DIMARCSYM
 70
0
  9
$DIMLTYPE
  6

  9
$DIMLTEX1
  6

  9
$DIMLTEX2
  6

  9
$LUNITS
 70
2
  9
$LUPREC
 70
4
  9
$SKETCHINC
 40
1.0
  9
$FILLETRAD
 40
10.0
  9
$AUNITS
 70
0
  9
$AUPREC
 70
2
  9
$MENU
  1
.
  9
$ELEVATION
 40
0.0
  9
$PELEVATION
 40
0.0
  9
$THICKNESS
 40
0.0
  9
$LIMCHECK
 70
0
  9
$CHAMFERA
 40
0.0
  9
$CHAMFERB
 40
0.0
  9
$CHAMFERC
 40
0.0
  9
$CHAMFERD
 40
0.0
  9
$SKPOLY
 70
0
  9
$TDCREATE
 40
2461048.0884722224
  9
$TDUCREATE
 40
2458532.153996898
  9
$TDUPDATE
 40
2461048.0884837965
  9
$TDUUPDATE
 40
2458532.1544311
  9
$TDINDWG
 40
0.0
  9
$TDUSRTIMER
 40
0.0
  9
$USRTIMER
 70
1
  9
$ANGBASE
 50
0.0
  9
$ANGDIR
 70
0
  9
$PDMODE
 70
0
  9
$PDSIZE
 40
0.0
  9
$PLINEWID
 40
0.0
  9
$SPLFRAME
 70
0
  9
$SPLINETYPE
 70
6
  9
$SPLINESEGS
 70
8
  9
$HANDSEED
  5
B2
  9
$SURFTAB1
 70
6
  9
$SURFTAB2
 70
6
  9
$SURFTYPE
 70
6
  9
$SURFU
 70
6
  9
$SURFV
 70
6
  9
$UCSBASE
  2

  9
$UCSNAME
  2

  9
$UCSORG
 10
0.0
 20
0.0
 30
0.0
  9
$UCSXDIR
 10
1.0
 20
0.0
 30
0.0
  9
$UCSYDIR
 10
0.0
 20
1.0
 30
0.0
  9
$UCSORTHOREF
  2

  9
$UCSORTHOVIEW
 70
0
  9
$UCSORGTOP
 10
0.0
 20
0.0
 30
0.0
  9
$UCSORGBOTTOM
 10
0.0
 20
0.0
 30
0.0
  9
$UCSORGLEFT
 10
0.0
 20
0.0
 30
0.0
  9
$UCSORGRIGHT
 10
0.0
 20
0.0
 30
0.0
  9
$UCSORGFRONT
 10
0.0
 20
0.0
 30
0.0
  9
$UCSORGBACK
 10
0.0
 20
0.0
 30
0.0
  9
$PUCSBASE
  2

  9
$PUCSNAME
  2

  9
$PUCSORG
 10
0.0
 20
0.0
 30
0.0
  9
$PUCSXDIR
 10
1.0
 20
0.0
 30
0.0
  9
$PUCSYDIR
 10
0.0
 20
1.0
 30
0.0
  9
$PUCSORTHOREF
  2

  9
$PUCSORTHOVIEW
 70
0
  9
$PUCSORGTOP
 10
0.0
 20
0.0
 30
0.0
  9
$PUCSORGBOTTOM
 10
0.0
 20
0.0
 30
0.0
  9
$PUCSORGLEFT
 10
0.0
 20
0.0
 30
0.0
  9
$PUCSORGRIGHT
 10
0.0
 20
0.0
 30
0.0
  9
$PUCSORGFRONT
 10
0.0
 20
0.0
 30
0.0
  9
$PUCSORGBACK
 10
0.0
 20
0.0
 30
0.0
  9
$USERI1
 70
0
  9
$USERI2
 70
0
  9
$USERI3
 70
0
  9
$USERI4
 70
0
  9
$USERI5
 70
0
  9
$USERR1
 40
0.0
  9
$USERR2
 40
0.0
  9
$USERR3
 40
0.0
  9
$USERR4
 40
0.0
  9
$USERR5
 40
0.0
  9
$WORLDVIEW
 70
1
  9
$SHADEDGE
 70
3
  9
$SHADEDIF
 70
70
  9
$TILEMODE
 70
1
  9
$MAXACTVP
 70
64
  9
$PINSBASE
 10
0.0
 20
0.0
 30
0.0
  9
$PLIMCHECK
 70
0
  9
$PEXTMIN
 10
1e+20
 20
1e+20
 30
1e+20
  9
$PEXTMAX
 10
-1e+20
 20
-1e+20
 30
-1e+20
  9
$PLIMMIN
 10
0.0
 20
0.0
  9
$PLIMMAX
 10
420.0
 20
297.0
  9
$UNITMODE
 70
0
  9
$VISRETAIN
 70
1
  9
$PLINEGEN
 70
0
  9
$PSLTSCALE
 70
1
  9
$TREEDEPTH
 70
3020
  9
$CMLSTYLE
  2
Standard
  9
$CMLJUST
 70
0
  9
$CMLSCALE
 40
20.0
  9
$PROXYGRAPHICS
 70
1
  9
$MEASUREMENT
 70
1
  9
$CELWEIGHT
370
-1
  9
$ENDCAPS
280
0
  9
$JOINSTYLE
280
0
  9
$LWDISPLAY
290
0
  9
$INSUNITS
 70
6
  9
$HYPERLINKBASE
  1

  9
$STYLESHEET
  1

  9
$XEDIT
290
1
  9
$CEPSNTYPE
380
0
  9
$PSTYLEMODE
290
1
  9
$FINGERPRINTGUID
  2
{1D78C0B2-6F25-47E7-A9D9-694DD40700B0}
  9
$VERSIONGUID
  2
{383B4FC4-4457-4C96-9261-5788C32BFE57}
  9
$EXTNAMES
290
1
  9
$PSVPSCALE
 40
0.0
  9
$OLESTARTUP
290
0
  9
$SORTENTS
280
127
  9
$INDEXCTL
280
0
  9
$HIDETEXT
280
1
  9
$XCLIPFRAME
290
1
  9
$HALOGAP
280
0
  9
$OBSCOLOR
 70
257
  9
$OBSLTYPE
280
0
  9
$INTERSECTIONDISPLAY
280
0
  9
$INTERSECTIONCOLOR
 70
257
  9
$DIMASSOC
280
2
  9
$PROJECTNAME
  1

  9
$CAMERADISPLAY
290
0
  9
$LENSLENGTH
 40
50.0
  9
$CAMERAHEIGHT
 40
0.0
  9
$STEPSPERSEC
 40
24.0
  9
$STEPSIZE
 40
100.0
  9
$3DDWFPREC
 40
2.0
  9
$PSOLWIDTH
 40
0.005
  9
$PSOLHEIGHT
 40
0.08
  9
$LOFTANG1
 40
1.570796326795
  9
$LOFTANG2
 40
1.570796326795
  9
$LOFTMAG1
 40
0.0
  9
$LOFTMAG2
 40
0.0
  9
$LOFTPARAM
 70
7
  9
$LOFTNORMALS
280
1
  9
$LATITUDE
 40
37.795
  9
$LONGITUDE
 40
-122.394
  9
$NORTHDIRECTION
 40
0.0
  9
$TIMEZONE
 70
-8000
  9
$LIGHTGLYPHDISPLAY
280
1
  9
$TILEMODELIGHTSYNCH
280
1
  9
$CMATERIAL
347
20
  9
$SOLIDHIST
280
0
  9
$SHOWHIST
280
1
  9
$DWFFRAME
280
2
  9
$DGNFRAME
280
2
  9
$REALWORLDSCALE
290
1
  9
$INTERFERECOLOR
 62
256
  9
$CSHADOW
280
0
  9
$SHADOWPLANELOCATION
 40
0.0
  0
ENDSEC
  0
SECTION
  2
CLASSES
  0
CLASS
  1
ACDBDICTIONARYWDFLT
  2
AcDbDictionaryWithDefault
  3
ObjectDBX Classes
 90
0
 91
0
280
0
281
0
  0
CLASS
  1
SUN
  2
AcDbSun
  3
SCENEOE
 90
1153
 91
0
280
0
281
0
  0
CLASS
  1
VISUALSTYLE
  2
AcDbVisualStyle
  3
ObjectDBX Classes
 90
4095
 91
0
280
0
281
0
  0
CLASS
  1
MATERIAL
  2
AcDbMaterial
  3
ObjectDBX Classes
 90
1153
 91
0
280
0
281
0
  0
CLASS
  1
SCALE
  2
AcDbScale
  3
ObjectDBX Classes
 90
1153
 91
0
280
0
281
0
  0
CLASS
  1
TABLESTYLE
  2
AcDbTableStyle
  3
ObjectDBX Classes
 90
4095
 91
0
280
0
281
0
  0
CLASS
  1
MLEADERSTYLE
  2
AcDbMLeaderStyle
  3
ACDB_MLEADERSTYLE_CLASS
 90
4095
 91
0
280
0
281
0
  0
CLASS
  1
DICTIONARYVAR
  2
AcDbDictionaryVar
  3
ObjectDBX Classes
 90
0
 91
0
280
0
281
0
  0
CLASS
  1
CELLSTYLEMAP
  2
AcDbCellStyleMap
  3
ObjectDBX Classes
 90
1152
 91
0
280
0
281
0
  0
CLASS
  1
MENTALRAYRENDERSETTINGS
  2
AcDbMentalRayRenderSettings
  3
SCENEOE
 90
1024
 91
0
280
0
281
0
  0
CLASS
  1
ACDBDETAILVIEWSTYLE
  2
AcDbDetailViewStyle
  3
ObjectDBX Classes
 90
1025
 91
0
280
0
281
0
  0
CLASS
  1
ACDBSECTIONVIEWSTYLE
  2
AcDbSectionViewStyle
  3
ObjectDBX Classes
 90
1025
 91
0
280
0
281
0
  0
CLASS
  1
RASTERVARIABLES
  2
AcDbRasterVariables
  3
ISM
 90
0
 91
0
280
0
281
0
  0
CLASS
  1
ACDBPLACEHOLDER
  2
AcDbPlaceHolder
  3
ObjectDBX Classes
 90
0
 91
0
280
0
281
0
  0
CLASS
  1
LAYOUT
  2
AcDbLayout
  3
ObjectDBX Classes
 90
0
 91
0
280
0
281
0
  0
ENDSEC
  0
SECTION
  2
TABLES
  0
TABLE
  2
VPORT
  5
8
330
0
100
AcDbSymbolTable
 70
1
  0
VPORT
  5
23
330
8
100
AcDbSymbolTableRecord
100
AcDbViewportTableRecord
  2
*Active
 70
0
 10
0.0
 20
0.0
 11
1.0
 21
1.0
 12
0.0
 22
0.0
 13
0.0
 23
0.0
 14
0.5
 24
0.5
 15
0.5
 25
0.5
 16
0.0
 26
0.0
 36
1.0
 17
0.0
 27
0.0
 37
0.0
 40
1000.0
 41
1.34
 42
50.0
 43
0.0
 44
0.0
 50
0.0
 51
0.0
 71
0
 72
1000
 73
1
 74
3
 75
0
 76
0
 77
0
 78
0
281
0
 65
0
146
0.0
  0
ENDTAB
  0
TABLE
  2
LTYPE
  5
2
330
0
100
AcDbSymbolTable
 70
21
  0
LTYPE
  5
24
330
2
100
AcDbSymbolTableRecord
100
AcDbLinetypeTableRecord
  2
ByBlock
 70
0
  3

 72
65
 73
0
 40
0.0
  0
LTYPE
  5
25
330
2
100
AcDbSymbolTableRecord
100
AcDbLinetypeTableRecord
  2
ByLayer
 70
0
  3

 72
65
 73
0
 40
0.0
  0
LTYPE
  5
26
330
2
100
AcDbSymbolTableRecord
100
AcDbLinetypeTableRecord
  2
Continuous
 70
0
  3

 72
65
 73
0
 40
0.0
  0
LTYPE
  5
2F
330
2
100
AcDbSymbolTableRecord
100
AcDbLinetypeTableRecord
  2
CENTER
 70
0
  3
Center ____ _ ____ _ ____ _ ____ _ ____ _ ____
 72
65
 73
4
 40
5.08
 49
3.175
 74
0
 49
-0.635
 74
0
 49
0.635
 74
0
 49
-0.635
 74
0
  0
LTYPE
  5
30
330
2
100
AcDbSymbolTableRecord
100
AcDbLinetypeTableRecord
  2
CENTERX2
 70
0
  3
Center (2x) ________  __  ________  __  ________
 72
65
 73
4
 40
8.89
 49
6.35
 74
0
 49
-0.635
 74
0
 49
1.27
 74
0
 49
-0.635
 74
0
  0
LTYPE
  5
31
330
2
100
AcDbSymbolTableRecord
100
AcDbLinetypeTableRecord
  2
CENTER2
 70
0
  3
Center (.5x) ____ _ ____ _ ____ _ ____ _ ____
 72
65
 73
4
 40
2.54
 49
1.587
 74
0
 49
-0.318
 74
0
 49
0.318
 74
0
 49
-0.318
 74
0
  0
LTYPE
  5
32
330
2
100
AcDbSymbolTableRecord
100
AcDbLinetypeTableRecord
  2
DASHED
 70
0
  3
Dashed __ __ __ __ __ __ __ __ __ __ __ __ __ _
 72
65
 73
2
 40
1.524
 49
1.27
 74
0
 49
-0.254
 74
0
  0
LTYPE
  5
33
330
2
100
AcDbSymbolTableRecord
100
AcDbLinetypeTableRecord
  2
DASHEDX2
 70
0
  3
Dashed (2x) ____  ____  ____  ____  ____  ____
 72
65
 73
2
 40
3.048
 49
2.54
 74
0
 49
-0.508
 74
0
  0
LTYPE
  5
34
330
2
100
AcDbSymbolTableRecord
100
AcDbLinetypeTableRecord
  2
DASHED2
 70
0
  3
Dashed (.5x) _ _ _ _ _ _ _ _ _ _ _ _ _ _
 72
65
 73
2
 40
0.762
 49
0.635
 74
0
 49
-0.127
 74
0
  0
LTYPE
  5
35
330
2
100
AcDbSymbolTableRecord
100
AcDbLinetypeTableRecord
  2
PHANTOM
 70
0
  3
Phantom ______  __  __  ______  __  __  ______
 72
65
 73
6
 40
6.35
 49
3.175
 74
0
 49
-0.635
 74
0
 49
0.635
 74
0
 49
-0.635
 74
0
 49
0.635
 74
0
 49
-0.635
 74
0
  0
LTYPE
  5
36
330
2
100
AcDbSymbolTableRecord
100
AcDbLinetypeTableRecord
  2
PHANTOMX2
 70
0
  3
Phantom (2x)____________    ____    ____    ____________
 72
65
 73
6
 40
10.795
 49
6.35
 74
0
 49
-0.635
 74
0
 49
1.27
 74
0
 49
-0.635
 74
0
 49
1.27
 74
0
 49
-0.635
 74
0
  0
LTYPE
  5
37
330
2
100
AcDbSymbolTableRecord
100
AcDbLinetypeTableRecord
  2
PHANTOM2
 70
0
  3
Phantom (.5x) ___ _ _ ___ _ _ ___ _ _ ___ _ _ ___
 72
65
 73
6
 40
3.175
 49
1.587
 74
0
 49
-0.318
 74
0
 49
0.318
 74
0
 49
-0.318
 74
0
 49
0.318
 74
0
 49
-0.318
 74
0
  0
LTYPE
  5
38
330
2
100
AcDbSymbolTableRecord
100
AcDbLinetypeTableRecord
  2
DASHDOT
 70
0
  3
Dash dot __ . __ . __ . __ . __ . __ . __ . __
 72
65
 73
4
 40
3.556
 49
2.54
 74
0
 49
-0.508
 74
0
 49
0.0
 74
0
 49
-0.508
 74
0
  0
LTYPE
  5
39
330
2
100
AcDbSymbolTableRecord
100
AcDbLinetypeTableRecord
  2
DASHDOTX2
 70
0
  3
Dash dot (2x) ____  .  ____  .  ____  .  ____
 72
65
 73
4
 40
6.096
 49
5.08
 74
0
 49
-0.508
 74
0
 49
0.0
 74
0
 49
-0.508
 74
0
  0
LTYPE
  5
3A
330
2
100
AcDbSymbolTableRecord
100
AcDbLinetypeTableRecord
  2
DASHDOT2
 70
0
  3
Dash dot (.5x) _ . _ . _ . _ . _ . _ . _ . _
 72
65
 73
4
 40
1.778
 49
1.27
 74
0
 49
-0.254
 74
0
 49
0.0
 74
0
 49
-0.254
 74
0
  0
LTYPE
  5
3B
330
2
100
AcDbSymbolTableRecord
100
AcDbLinetypeTableRecord
  2
DOT
 70
0
  3
Dot .  .  .  .  .  .  .  .  .  .  .  .  .  .  .  .
 72
65
 73
2
 40
0.508
 49
0.0
 74
0
 49
-0.508
 74
0
  0
LTYPE
  5
3C
330
2
100
AcDbSymbolTableRecord
100
AcDbLinetypeTableRecord
  2
DOTX2
 70
0
  3
Dot (2x) .    .    .    .    .    .    .    . 
 72
65
 73
2
 40
1.016
 49
0.0
 74
0
 49
-1.016
 74
0
  0
LTYPE
  5
3D
330
2
100
AcDbSymbolTableRecord
100
AcDbLinetypeTableRecord
  2
DOT2
 70
0
  3
Dot (.5) . . . . . . . . . . . . . . . . . . . 
 72
65
 73
2
 40
0.254
 49
0.0
 74
0
 49
-0.254
 74
0
  0
LTYPE
  5
3E
330
2
100
AcDbSymbolTableRecord
100
AcDbLinetypeTableRecord
  2
DIVIDE
 70
0
  3
Divide __ . . __ . . __ . . __ . . __ . . __
 72
65
 73
6
 40
4.064
 49
2.54
 74
0
 49
-0.508
 74
0
 49
0.0
 74
0
 49
-0.508
 74
0
 49
0.0
 74
0
 49
-0.508
 74
0
  0
LTYPE
  5
3F
330
2
100
AcDbSymbolTableRecord
100
AcDbLinetypeTableRecord
  2
DIVIDEX2
 70
0
  3
Divide (2x) ____  . .  ____  . .  ____  . .  ____
 72
65
 73
6
 40
6.604
 49
5.08
 74
0
 49
-0.508
 74
0
 49
0.0
 74
0
 49
-0.508
 74
0
 49
0.0
 74
0
 49
-0.508
 74
0
  0
LTYPE
  5
40
330
2
100
AcDbSymbolTableRecord
100
AcDbLinetypeTableRecord
  2
DIVIDE2
 70
0
  3
Divide(.5x) _ . _ . _ . _ . _ . _ . _ . _
 72
65
 73
6
 40
2.032
 49
1.27
 74
0
 49
-0.254
 74
0
 49
0.0
 74
0
 49
-0.254
 74
0
 49
0.0
 74
0
 49
-0.254
 74
0
  0
ENDTAB
  0
TABLE
  2
LAYER
  5
1
330
0
100
AcDbSymbolTable
 70
4
  0
LAYER
  5
27
330
1
100
AcDbSymbolTableRecord
100
AcDbLayerTableRecord
  2
0
 70
0
 62
7
  6
Continuous
370
-3
390
13
347
21
  0
LAYER
  5
28
330
1
100
AcDbSymbolTableRecord
100
AcDbLayerTableRecord
  2
Defpoints
 70
0
 62
7
  6
Continuous
290
0
370
-3
390
13
347
21
  0
LAYER
  5
8A
330
1
100
AcDbSymbolTableRecord
100
AcDbLayerTableRecord
  2
Layer
 70
0
 62
1
  6
Continuous
370
50
390
13
347
21
  0
LAYER
  5
8B
330
1
100
AcDbSymbolTableRecord
100
AcDbLayerTableRecord
  2
NumLabel
 70
0
 62
1
  6
Continuous
370
15
390
13
347
21
  0
ENDTAB
  0
TABLE
  2
STYLE
  5
5
330
0
100
AcDbSymbolTable
 70
26
  0
STYLE
  5
29
330
5
100
AcDbSymbolTableRecord
100
AcDbTextStyleTableRecord
  2
Standard
 70
0
 40
0.0
 41
1.0
 50
0.0
 71
0
 42
2.5
  3
txt
  4

  0
STYLE
  5
41
330
5
100
AcDbSymbolTableRecord
100
AcDbTextStyleTableRecord
  2
OpenSans-Light
 70
0
 40
0.0
 41
1.0
 50
0.0
 71
0
 42
2.5
  3
OpenSans-Light.ttf
  4

  0
STYLE
  5
42
330
5
100
AcDbSymbolTableRecord
100
AcDbTextStyleTableRecord
  2
OpenSans-Light-Italic
 70
0
 40
0.0
 41
1.0
 50
0.0
 71
0
 42
2.5
  3
OpenSans-LightItalic.ttf
  4

  0
STYLE
  5
43
330
5
100
AcDbSymbolTableRecord
100
AcDbTextStyleTableRecord
  2
OpenSans
 70
0
 40
0.0
 41
1.0
 50
0.0
 71
0
 42
2.5
  3
OpenSans-Regular.ttf
  4

  0
STYLE
  5
44
330
5
100
AcDbSymbolTableRecord
100
AcDbTextStyleTableRecord
  2
OpenSans-Italic
 70
0
 40
0.0
 41
1.0
 50
0.0
 71
0
 42
2.5
  3
OpenSans-Italic.ttf
  4

  0
STYLE
  5
45
330
5
100
AcDbSymbolTableRecord
100
AcDbTextStyleTableRecord
  2
OpenSans-SemiBold
 70
0
 40
0.0
 41
1.0
 50
0.0
 71
0
 42
2.5
  3
OpenSans-SemiBold.ttf
  4

  0
STYLE
  5
46
330
5
100
AcDbSymbolTableRecord
100
AcDbTextStyleTableRecord
  2
OpenSans-SemiBoldItalic
 70
0
 40
0.0
 41
1.0
 50
0.0
 71
0
 42
2.5
  3
OpenSans-SemiBoldItalic.ttf
  4

  0
STYLE
  5
47
330
5
100
AcDbSymbolTableRecord
100
AcDbTextStyleTableRecord
  2
OpenSans-Bold
 70
0
 40
0.0
 41
1.0
 50
0.0
 71
0
 42
2.5
  3
OpenSans-Bold.ttf
  4

  0
STYLE
  5
48
330
5
100
AcDbSymbolTableRecord
100
AcDbTextStyleTableRecord
  2
OpenSans-BoldItalic
 70
0
 40
0.0
 41
1.0
 50
0.0
 71
0
 42
2.5
  3
OpenSans-BoldItalic.ttf
  4

  0
STYLE
  5
49
330
5
100
AcDbSymbolTableRecord
100
AcDbTextStyleTableRecord
  2
OpenSans-ExtraBold
 70
0
 40
0.0
 41
1.0
 50
0.0
 71
0
 42
2.5
  3
OpenSans-ExtraBold.ttf
  4

  0
STYLE
  5
4A
330
5
100
AcDbSymbolTableRecord
100
AcDbTextStyleTableRecord
  2
OpenSans-ExtraBoldItalic
 70
0
 40
0.0
 41
1.0
 50
0.0
 71
0
 42
2.5
  3
OpenSans-ExtraBoldItalic.ttf
  4

  0
STYLE
  5
4B
330
5
100
AcDbSymbolTableRecord
100
AcDbTextStyleTableRecord
  2
OpenSansCondensed-Bold
 70
0
 40
0.0
 41
1.0
 50
0.0
 71
0
 42
2.5
  3
OpenSansCondensed-Bold.ttf
  4

  0
STYLE
  5
4C
330
5
100
AcDbSymbolTableRecord
100
AcDbTextStyleTableRecord
  2
OpenSansCondensed-Light
 70
0
 40
0.0
 41
1.0
 50
0.0
 71
0
 42
2.5
  3
OpenSansCondensed-Light.ttf
  4

  0
STYLE
  5
4D
330
5
100
AcDbSymbolTableRecord
100
AcDbTextStyleTableRecord
  2
OpenSansCondensed-Italic
 70
0
 40
0.0
 41
1.0
 50
0.0
 71
0
 42
2.5
  3
OpenSansCondensed-LightItalic.ttf
  4

  0
STYLE
  5
4E
330
5
100
AcDbSymbolTableRecord
100
AcDbTextStyleTableRecord
  2
LiberationSans
 70
0
 40
0.0
 41
1.0
 50
0.0
 71
0
 42
2.5
  3
LiberationSans-Regular.ttf
  4

  0
STYLE
  5
4F
330
5
100
AcDbSymbolTableRecord
100
AcDbTextStyleTableRecord
  2
LiberationSans-Bold
 70
0
 40
0.0
 41
1.0
 50
0.0
 71
0
 42
2.5
  3
LiberationSans-Bold.ttf
  4

  0
STYLE
  5
50
330
5
100
AcDbSymbolTableRecord
100
AcDbTextStyleTableRecord
  2
LiberationSans-BoldItalic
 70
0
 40
0.0
 41
1.0
 50
0.0
 71
0
 42
2.5
  3
LiberationSans-BoldItalic.ttf
  4

  0
STYLE
  5
51
330
5
100
AcDbSymbolTableRecord
100
AcDbTextStyleTableRecord
  2
LiberationSans-Italic
 70
0
 40
0.0
 41
1.0
 50
0.0
 71
0
 42
2.5
  3
LiberationSans-Italic.ttf
  4

  0
STYLE
  5
52
330
5
100
AcDbSymbolTableRecord
100
AcDbTextStyleTableRecord
  2
LiberationSerif
 70
0
 40
0.0
 41
1.0
 50
0.0
 71
0
 42
2.5
  3
LiberationSerif-Regular.ttf
  4

  0
STYLE
  5
53
330
5
100
AcDbSymbolTableRecord
100
AcDbTextStyleTableRecord
  2
LiberationSerif-Bold
 70
0
 40
0.0
 41
1.0
 50
0.0
 71
0
 42
2.5
  3
LiberationSerif-Bold.ttf
  4

  0
STYLE
  5
54
330
5
100
AcDbSymbolTableRecord
100
AcDbTextStyleTableRecord
  2
LiberationSerif-BoldItalic
 70
0
 40
0.0
 41
1.0
 50
0.0
 71
0
 42
2.5
  3
LiberationSerif-BoldItalic.ttf
  4

  0
STYLE
  5
55
330
5
100
AcDbSymbolTableRecord
100
AcDbTextStyleTableRecord
  2
LiberationSerif-Italic
 70
0
 40
0.0
 41
1.0
 50
0.0
 71
0
 42
2.5
  3
LiberationSerif-Italic.ttf
  4

  0
STYLE
  5
56
330
5
100
AcDbSymbolTableRecord
100
AcDbTextStyleTableRecord
  2
LiberationMono
 70
0
 40
0.0
 41
1.0
 50
0.0
 71
0
 42
2.5
  3
LiberationMono-Regular.ttf
  4

  0
STYLE
  5
57
330
5
100
AcDbSymbolTableRecord
100
AcDbTextStyleTableRecord
  2
LiberationMono-Bold
 70
0
 40
0.0
 41
1.0
 50
0.0
 71
0
 42
2.5
  3
LiberationMono-Bold.ttf
  4

  0
STYLE
  5
58
330
5
100
AcDbSymbolTableRecord
100
AcDbTextStyleTableRecord
  2
LiberationMono-BoldItalic
 70
0
 40
0.0
 41
1.0
 50
0.0
 71
0
 42
2.5
  3
LiberationMono-BoldItalic.ttf
  4

  0
STYLE
  5
59
330
5
100
AcDbSymbolTableRecord
100
AcDbTextStyleTableRecord
  2
LiberationMono-Italic
 70
0
 40
0.0
 41
1.0
 50
0.0
 71
0
 42
2.5
  3
LiberationMono-Italic.ttf
  4

  0
ENDTAB
  0
TABLE
  2
VIEW
  5
7
330
0
100
AcDbSymbolTable
 70
0
  0
ENDTAB
  0
TABLE
  2
UCS
  5
6
330
0
100
AcDbSymbolTable
 70
0
  0
ENDTAB
  0
TABLE
  2
APPID
  5
3
330
0
100
AcDbSymbolTable
 70
3
  0
APPID
  5
2A
330
3
100
AcDbSymbolTableRecord
100
AcDbRegAppTableRecord
  2
ACAD
 70
0
  0
APPID
  5
AF
330
3
100
AcDbSymbolTableRecord
100
AcDbRegAppTableRecord
  2
HATCHBACKGROUNDCOLOR
 70
0
  0
APPID
  5
B0
330
3
100
AcDbSymbolTableRecord
100
AcDbRegAppTableRecord
  2
EZDXF
 70
0
  0
ENDTAB
  0
TABLE
  2
DIMSTYLE
  5
4
330
0
100
AcDbSymbolTable
 70
12
100
AcDbDimStyleTable
  0
DIMSTYLE
105
2B
330
4
100
AcDbSymbolTableRecord
100
AcDbDimStyleTableRecord
  2
Standard
 70
0
 40
1.0
 41
2.5
 42
0.625
 43
3.75
 44
1.25
 45
0.0
 46
0.0
 47
0.0
 48
0.0
 49
2.5
140
2.5
141
2.5
142
0.0
143
0.03937007874
144
1.0
145
0.0
146
1.0
147
0.625
148
0.0
 69
0
 70
0
 71
0
 72
0
 73
0
 74
0
 75
0
 76
0
 77
1
 78
8
 79
3
170
0
171
3
172
1
173
0
174
0
175
0
176
0
177
0
178
0
179
2
271
2
272
2
273
2
274
3
275
0
276
0
277
2
278
44
279
0
280
0
281
0
282
0
283
0
284
8
285
0
286
0
288
0
289
3
290
0
371
-2
372
-2
  0
DIMSTYLE
105
73
330
4
100
AcDbSymbolTableRecord
100
AcDbDimStyleTableRecord
  2
EZDXF
 70
0
 40
1.0
 41
0.175
 42
0.125
 43
3.75
 44
0.375
 45
0.0
 46
0.0
 47
0.0
 48
0.0
 49
2.5
140
0.25
141
2.5
142
0.0
143
0.03937007874
144
100.0
145
0.0
146
0.5
147
0.1
148
0.0
 69
0
 70
0
 71
0
 72
0
 73
0
 74
0
 75
0
 76
0
 77
1
 78
12
 79
3
170
0
171
3
172
1
173
0
174
0
175
0
176
0
177
0
178
0
179
2
271
2
272
2
273
2
274
3
275
0
276
0
277
2
278
46
279
2
280
0
281
0
282
0
283
0
284
8
285
0
286
0
288
1
289
3
290
0
340
4C
342
74
371
-2
372
-2
  0
DIMSTYLE
105
7C
330
4
100
AcDbSymbolTableRecord
100
AcDbDimStyleTableRecord
  2
EZ_M_100_H25_CM
 70
0
 40
1.0
 41
0.25
 42
0.125
 43
3.75
 44
0.375
 45
0.0
 46
0.0
 47
0.0
 48
0.0
 49
2.5
140
0.25
141
2.5
142
0.125
143
0.03937007874
144
100.0
145
0.0
146
0.5
147
0.1
148
0.0
 69
0
 70
0
 71
0
 72
0
 73
0
 74
0
 75
0
 76
0
 77
1
 78
12
 79
3
170
0
171
3
172
1
173
0
174
0
175
0
176
0
177
0
178
0
179
2
271
2
272
2
273
2
274
3
275
0
276
0
277
2
278
46
279
2
280
0
281
0
282
0
283
0
284
8
285
0
286
0
288
1
289
3
290
0
340
4C
371
-2
372
-2
  0
DIMSTYLE
105
7D
330
4
100
AcDbSymbolTableRecord
100
AcDbDimStyleTableRecord
  2
EZ_M_50_H25_CM
 70
0
 40
1.0
 41
0.125
 42
0.0625
 43
3.75
 44
0.1875
 45
0.0
 46
0.0
 47
0.0
 48
0.0
 49
2.5
140
0.125
141
2.5
142
0.0625
143
0.03937007874
144
100.0
145
0.0
146
0.5
147
0.05
148
0.0
 69
0
 70
0
 71
0
 72
0
 73
0
 74
0
 75
0
 76
0
 77
1
 78
12
 79
3
170
0
171
3
172
1
173
0
174
0
175
0
176
0
177
0
178
0
179
2
271
2
272
2
273
2
274
3
275
0
276
0
277
2
278
46
279
2
280
0
281
0
282
0
283
0
284
8
285
0
286
0
288
1
289
3
290
0
340
4C
371
-2
372
-2
  0
DIMSTYLE
105
7E
330
4
100
AcDbSymbolTableRecord
100
AcDbDimStyleTableRecord
  2
EZ_M_25_H25_CM
 70
0
 40
1.0
 41
0.0625
 42
0.03125
 43
3.75
 44
0.09375
 45
0.0
 46
0.0
 47
0.0
 48
0.0
 49
2.5
140
0.0625
141
2.5
142
0.03125
143
0.03937007874
144
100.0
145
0.0
146
0.5
147
0.025
148
0.0
 69
0
 70
0
 71
0
 72
0
 73
0
 74
0
 75
0
 76
0
 77
1
 78
12
 79
3
170
0
171
3
172
1
173
0
174
0
175
0
176
0
177
0
178
0
179
2
271
2
272
2
273
2
274
3
275
0
276
0
277
2
278
46
279
2
280
0
281
0
282
0
283
0
284
8
285
0
286
0
288
1
289
3
290
0
340
4C
371
-2
372
-2
  0
DIMSTYLE
105
7F
330
4
100
AcDbSymbolTableRecord
100
AcDbDimStyleTableRecord
  2
EZ_M_20_H25_CM
 70
0
 40
1.0
 41
0.05
 42
0.025
 43
3.75
 44
0.07500000000000001
 45
0.0
 46
0.0
 47
0.0
 48
0.0
 49
2.5
140
0.05
141
2.5
142
0.025
143
0.03937007874
144
100.0
145
0.0
146
0.5
147
0.020000000000000004
148
0.0
 69
0
 70
0
 71
0
 72
0
 73
0
 74
0
 75
0
 76
0
 77
1
 78
12
 79
3
170
0
171
3
172
1
173
0
174
0
175
0
176
0
177
0
178
0
179
2
271
2
272
2
273
2
274
3
275
0
276
0
277
2
278
46
279
2
280
0
281
0
282
0
283
0
284
8
285
0
286
0
288
1
289
3
290
0
340
4C
371
-2
372
-2
  0
DIMSTYLE
105
80
330
4
100
AcDbSymbolTableRecord
100
AcDbDimStyleTableRecord
  2
EZ_M_10_H25_CM
 70
0
 40
1.0
 41
0.025
 42
0.0125
 43
3.75
 44
0.037500000000000006
 45
0.0
 46
0.0
 47
0.0
 48
0.0
 49
2.5
140
0.025
141
2.5
142
0.0125
143
0.03937007874
144
100.0
145
0.0
146
0.5
147
0.010000000000000002
148
0.0
 69
0
 70
0
 71
0
 72
0
 73
0
 74
0
 75
0
 76
0
 77
1
 78
12
 79
3
170
0
171
3
172
1
173
0
174
0
175
0
176
0
177
0
178
0
179
2
271
2
272
2
273
2
274
3
275
0
276
0
277
2
278
46
279
2
280
0
281
0
282
0
283
0
284
8
285
0
286
0
288
1
289
3
290
0
340
4C
371
-2
372
-2
  0
DIMSTYLE
105
81
330
4
100
AcDbSymbolTableRecord
100
AcDbDimStyleTableRecord
  2
EZ_M_5_H25_CM
 70
0
 40
1.0
 41
0.0125
 42
0.00625
 43
3.75
 44
0.018750000000000003
 45
0.0
 46
0.0
 47
0.0
 48
0.0
 49
2.5
140
0.0125
141
2.5
142
0.00625
143
0.03937007874
144
100.0
145
0.0
146
0.5
147
0.005000000000000001
148
0.0
 69
0
 70
0
 71
0
 72
0
 73
0
 74
0
 75
0
 76
0
 77
1
 78
12
 79
3
170
0
171
3
172
1
173
0
174
0
175
0
176
0
177
0
178
0
179
2
271
2
272
2
273
2
274
3
275
0
276
0
277
2
278
46
279
2
280
0
281
0
282
0
283
0
284
8
285
0
286
0
288
1
289
3
290
0
340
4C
371
-2
372
-2
  0
DIMSTYLE
105
82
330
4
100
AcDbSymbolTableRecord
100
AcDbDimStyleTableRecord
  2
EZ_M_1_H25_CM
 70
0
 40
1.0
 41
0.0025
 42
0.00125
 43
3.75
 44
0.00375
 45
0.0
 46
0.0
 47
0.0
 48
0.0
 49
2.5
140
0.0025
141
2.5
142
0.00125
143
0.03937007874
144
100.0
145
0.0
146
0.5
147
0.001
148
0.0
 69
0
 70
0
 71
0
 72
0
 73
0
 74
0
 75
0
 76
0
 77
1
 78
12
 79
3
170
0
171
3
172
1
173
0
174
0
175
0
176
0
177
0
178
0
179
2
271
2
272
2
273
2
274
3
275
0
276
0
277
2
278
46
279
2
280
0
281
0
282
0
283
0
284
8
285
0
286
0
288
1
289
3
290
0
340
4C
371
-2
372
-2
  0
DIMSTYLE
105
83
330
4
100
AcDbSymbolTableRecord
100
AcDbDimStyleTableRecord
  2
EZ_RADIUS
 70
0
 40
1.0
 41
0.25
 42
0.125
 43
3.75
 44
0.375
 45
0.0
 46
0.0
 47
0.0
 48
0.0
 49
2.5
140
0.25
141
0.0
142
0.0
143
0.03937007874
144
100.0
145
0.0
146
0.5
147
0.1
148
0.0
 69
0
 70
0
 71
0
 72
0
 73
0
 74
0
 75
0
 76
0
 77
1
 78
12
 79
3
170
0
171
3
172
0
173
0
174
0
175
0
176
0
177
0
178
0
179
2
271
2
272
2
273
2
274
3
275
0
276
0
277
2
278
46
279
1
280
0
281
0
282
0
283
0
284
8
285
0
286
0
288
1
289
3
290
0
340
4C
342
84
371
-2
372
-2
  0
DIMSTYLE
105
88
330
4
100
AcDbSymbolTableRecord
100
AcDbDimStyleTableRecord
  2
EZ_RADIUS_INSIDE
 70
0
 40
1.0
 41
0.25
 42
0.125
 43
3.75
 44
0.375
 45
0.0
 46
0.0
 47
0.0
 48
0.0
 49
2.5
140
0.25
141
0.0
142
0.0
143
0.03937007874
144
100.0
145
0.0
146
0.5
147
0.1
148
0.0
 69
0
 70
0
 71
0
 72
0
 73
0
 74
0
 75
0
 76
0
 77
0
 78
12
 79
3
170
0
171
3
172
0
173
0
174
1
175
0
176
0
177
0
178
0
179
2
271
2
272
2
273
2
274
3
275
0
276
0
277
2
278
46
279
0
280
0
281
0
282
0
283
0
284
8
285
0
286
0
288
1
289
0
290
0
340
4C
342
84
371
-2
372
-2
  0
DIMSTYLE
105
89
330
4
100
AcDbSymbolTableRecord
100
AcDbDimStyleTableRecord
  2
EZ_CURVED
 70
0
 40
1.0
 41
0.25
 42
0.125
 43
3.75
 44
0.375
 45
0.0
 46
0.0
 47
0.0
 48
0.0
 49
2.5
140
0.25
141
2.5
142
0.0
143
0.03937007874
144
100.0
145
0.0
146
0.5
147
0.1
148
0.0
 69
0
 70
0
 71
0
 72
0
 73
0
 74
0
 75
0
 76
0
 77
1
 78
12
 79
2
 90
2
170
0
171
3
172
1
173
0
174
0
175
0
176
0
177
0
178
0
179
2
271
2
272
2
273
2
274
3
275
0
276
0
277
2
278
46
279
2
280
0
281
0
282
0
283
0
284
8
285
0
286
0
288
1
289
3
290
0
340
4C
371
-2
372
-2
  0
ENDTAB
  0
TABLE
  2
BLOCK_RECORD
  5
9
330
0
100
AcDbSymbolTable
 70
5
  0
BLOCK_RECORD
  5
17
330
9
100
AcDbSymbolTableRecord
100
AcDbBlockTableRecord
  2
*Model_Space
340
1A
 70
0
280
1
281
0
  0
BLOCK_RECORD
  5
1B
330
9
100
AcDbSymbolTableRecord
100
AcDbBlockTableRecord
  2
*Paper_Space
340
1E
 70
0
280
1
281
0
  0
BLOCK_RECORD
  5
74
330
9
100
AcDbSymbolTableRecord
100
AcDbBlockTableRecord
  2
_ARCHTICK
340
0
 70
0
280
1
281
0
  0
BLOCK_RECORD
  5
78
330
9
100
AcDbSymbolTableRecord
100
AcDbBlockTableRecord
  2
_CLOSEDFILLED
340
0
 70
0
280
1
281
0
  0
BLOCK_RECORD
  5
84
330
9
100
AcDbSymbolTableRecord
100
AcDbBlockTableRecord
  2
_CLOSEDBLANK
340
0
 70
0
280
1
281
0
  0
ENDTAB
  0
ENDSEC
  0
SECTION
  2
BLOCKS
  0
BLOCK
  5
18
330
17
100
AcDbEntity
  8
0
100
AcDbBlockBegin
  2
*Model_Space
 70
0
 10
0.0
 20
0.0
 30
0.0
  3
*Model_Space
  1

  0
ENDBLK
  5
19
330
17
100
AcDbEntity
  8
0
100
AcDbBlockEnd
  0
BLOCK
  5
1C
330
1B
100
AcDbEntity
  8
0
100
AcDbBlockBegin
  2
*Paper_Space
 70
0
 10
0.0
 20
0.0
 30
0.0
  3
*Paper_Space
  1

  0
ENDBLK
  5
1D
330
1B
100
AcDbEntity
  8
0
100
AcDbBlockEnd
  0
BLOCK
  5
75
330
74
100
AcDbEntity
  8
0
100
AcDbBlockBegin
  2
_ARCHTICK
 70
0
 10
0.0
 20
0.0
 30
0.0
  3
_ARCHTICK
  1

  0
LWPOLYLINE
  5
77
330
74
100
AcDbEntity
  8
0
  6
BYBLOCK
 62
0
100
AcDbPolyline
 90
2
 70
0
 43
0.15
 10
-0.5
 20
-0.5
 10
0.5
 20
0.5
  0
ENDBLK
  5
76
330
74
100
AcDbEntity
  8
0
100
AcDbBlockEnd
  0
BLOCK
  5
79
330
78
100
AcDbEntity
  8
0
100
AcDbBlockBegin
  2
_CLOSEDFILLED
 70
0
 10
0.0
 20
0.0
 30
0.0
  3
_CLOSEDFILLED
  1

  0
SOLID
  5
7B
330
78
100
AcDbEntity
  8
0
  6
BYBLOCK
 62
0
100
AcDbTrace
 10
-1.0
 20
0.16439898372402537
 30
0.0
 11
0.0
 21
0.0
 31
0.0
 12
-1.0
 22
-0.16439898372402537
 32
0.0
 13
-1.0
 23
-0.16439898372402537
 33
0.0
  0
ENDBLK
  5
7A
330
78
100
AcDbEntity
  8
0
100
AcDbBlockEnd
  0
BLOCK
  5
85
330
84
100
AcDbEntity
  8
0
100
AcDbBlockBegin
  2
_CLOSEDBLANK
 70
0
 10
0.0
 20
0.0
 30
0.0
  3
_CLOSEDBLANK
  1

  0
LWPOLYLINE
  5
87
330
84
100
AcDbEntity
  8
0
  6
BYBLOCK
 62
0
100
AcDbPolyline
 90
3
 70
1
 10
-1.0
 20
0.16439898372402537
 10
0.0
 20
0.0
 10
-1.0
 20
-0.16439898372402537
  0
ENDBLK
  5
86
330
84
100
AcDbEntity
  8
0
100
AcDbBlockEnd
  0
ENDSEC
  0
SECTION
  2
ENTITIES
  0
LWPOLYLINE
  5
8C
330
17
100
AcDbEntity
  8
Layer
100
AcDbPolyline
 90
261
 70
1
 10
395.6782461370631
 20
175.99352993798956
 10
393.89948468040313
 20
176.36899922510054
 10
390.9992253867341
 20
176.9932677996211
 10
387.8835223868608
 20
177.690282359123
 10
384.6215752539991
 20
178.43721695111162
 10
381.2698687065308
 20
179.22135668603897
 10
377.87037277698016
 20
180.03140134464218
 10
374.44408708025077
 20
180.8658196196562
 10
371.00115589955533
 20
181.7136368169942
 10
367.5565253213117
 20
182.57646119489954
 10
364.10806056685783
 20
183.455932856237
 10
360.6563141593234
 20
184.34343888955542
 10
357.21269573497295
 20
185.24004305370298
 10
353.7766111597721
 20
186.15257761542676
 10
350.3434001210737
 20
187.08199436635712
 10
346.90804732147365
 20
188.0184390328627
 10
343.46612640075386
 20
188.9543973131372
 10
340.02496016049196
 20
189.90347580250884
 10
336.5756860053078
 20
190.86407655449597
 10
333.1230104949922
 20
191.8282433850049
 10
329.6727654110424
 20
192.7960852967764
 10
326.2283197574196
 20
193.76997973429346
 10
322.7884116577842
 20
194.7475684200394
 10
319.3509248632429
 20
195.71640991869995
 10
315.9108375730822
 20
196.68491841085216
 10
312.4705605169789
 20
197.65679323890882
 10
309.03091085204994
 20
198.61901939576651
 10
305.58725566855827
 20
199.5732137007403
 10
302.1473884301722
 20
200.52093331702986
 10
299.99802051093343
 20
201.10475616485027
 10
299.735893001319
 20
200.13972291739017
 10
298.45740297905377
 20
200.48700916215117
 10
295.02376256583057
 20
201.40301214154286
 10
291.592449694042
 20
202.30641148343244
 10
288.15826240969227
 20
203.19335792172117
 10
284.7208218854441
 20
204.06754814351848
 10
281.2874796754776
 20
204.92676777875698
 10
277.8562557289743
 20
205.76635283799777
 10
274.41940054093845
 20
206.58618120815356
 10
270.9755282904501
 20
207.38902493924843
 10
267.52372067186343
 20
208.1767395793293
 10
264.0708435901105
 20
208.95112569277399
 10
260.61986270051943
 20
209.70765283230983
 10
257.16733407549015
 20
210.44525498402732
 10
253.7128453908224
 20
211.16235802100854
 10
250.24546714898167
 20
211.8622210672166
 10
246.78442507123356
 20
212.54956023094144
 10
243.32641878653175
 20
213.21124296194753
 10
239.85384274221775
 20
213.85222313909563
 10
236.37445792768074
 20
214.47938261102334
 10
232.89797241695456
 20
215.09068087291672
 10
229.4219494045028
 20
215.68114177456584
 10
225.94126946760844
 20
216.25062742229346
 10
222.45291402477136
 20
216.80147027656258
 10
218.9589056765572
 20
217.33626051466246
 10
215.46471038800115
 20
217.85503225554896
 10
211.9708881067746
 20
218.35403440021335
 10
208.46744082719349
 20
218.833966160702
 10
204.96259683255005
 20
219.30011614190104
 10
201.46016577827305
 20
219.74838603991586
 10
197.9574568990371
 20
220.17757423909083
 10
194.45540648635972
 20
220.58686844804637
 10
190.94870756860624
 20
220.97467166546187
 10
187.43177416698148
 20
221.34588717611285
 10
183.92333316097705
 20
221.70326108374417
 10
180.41444988369255
 20
222.03601480627376
 10
176.8991395159924
 20
222.3514038592172
 10
173.39011351746757
 20
222.64848580281884
 10
169.88052480547123
 20
222.92242641207298
 10
166.36675075979727
 20
223.17549359211944
 10
162.85408489099672
 20
223.40922824203957
 10
159.33977188752857
 20
223.62089331308553
 10
155.82218224125876
 20
223.81267091937104
 10
152.30811721487638
 20
223.98599597250362
 10
148.8014019266874
 20
224.13698565662597
 10
145.29507833645718
 20
224.26074334559044
 10
141.77941135627177
 20
224.36178225468566
 10
138.27579349392389
 20
224.44500886298064
 10
134.76962009657734
 20
224.49670676302816
 10
131.25786387949563
 20
224.5292118292391
 10
127.7558948124339
 20
224.53878574736004
 10
124.25523417580297
 20
224.52248842435375
 10
120.76410679358139
 20
224.48093709639
 10
117.27313177772439
 20
224.40850069173166
 10
113.78314464579836
 20
224.30905034829104
 10
110.29318047255134
 20
224.18184487038323
 10
106.80947833352798
 20
224.0300073988996
 10
103.33352008765574
 20
223.84758648375168
 10
99.85940789984767
 20
223.63419538900973
 10
96.38884921871141
 20
223.39108688545477
 10
92.9225241190181
 20
223.1197767006481
 10
89.47399030333162
 20
222.82132531279262
 10
86.04256752201866
 20
222.48577024120087
 10
82.6147832368657
 20
222.1093517597297
 10
79.20068724233782
 20
221.70019807653105
 10
75.80039295463216
 20
221.2499944688268
 10
72.41118520098867
 20
220.75779344436395
 10
69.02735336753936
 20
220.22238147762678
 10
65.6595736487921
 20
219.6528282422961
 10
62.32304009226641
 20
219.0435616624163
 10
59.0142569945569
 20
218.38628090193922
 10
55.73635765388762
 20
217.67841015002318
 10
52.48657793036651
 20
216.9161986751303
 10
49.27449406548938
 20
216.09891623327462
 10
46.09011830252601
 20
215.21927339594018
 10
42.96010229836642
 20
214.29381563492598
 10
39.887658183351036
 20
213.3008441559302
 10
36.88175510079286
 20
212.2515956264064
 10
33.9672182611457
 20
211.14380159378825
 10
31.15519881540709
 20
209.97849820095058
 10
28.48134483592594
 20
208.77017625799658
 10
25.982573531752593
 20
207.53239153245164
 10
23.67591754778155
 20
206.26827834347569
 10
21.60395732993055
 20
205.03264770707145
 10
19.79021138821028
 20
203.84079042383888
 10
18.23064660786801
 20
202.70971889258348
 10
16.904515400255804
 20
201.65199821801798
 10
15.811404214716788
 20
200.70648761754393
 10
14.88978424089467
 20
199.7988410100261
 10
14.12760342980522
 20
198.99249349770932
 10
13.513667474149315
 20
198.27130079808785
 10
13.010717236390349
 20
197.58958031992086
 10
12.593554109055049
 20
196.9440033534431
 10
12.256432027285797
 20
196.36246402999947
 10
11.979866130957049
 20
195.808955908295
 10
11.745882691517863
 20
195.27134856125943
 10
11.557044632924374
 20
194.7973425053085
 10
11.407388606872303
 20
194.3592766812651
 10
11.287670248954214
 20
193.93539664862323
 10
11.197461708450959
 20
193.5617592517515
 10
11.129423269871864
 20
193.18082588522157
 10
11.078280190475482
 20
192.82463018619123
 10
11.044357485867863
 20
192.53191271104984
 10
11.066900574792896
 20
192.28732170830773
 10
11.086579052422735
 20
191.90631662052644
 10
11.107286195379402
 20
191.5740250625065
 10
11.14530557913713
 20
191.25813993636956
 10
11.218520858313951
 20
190.92468514932054
 10
11.341376976531592
 20
190.55754228642937
 10
11.518227914554387
 20
190.16115881289315
 10
11.753953604824972
 20
189.7393016273744
 10
12.057616862869509
 20
189.29165133794055
 10
12.43722867091546
 20
188.81985156219176
 10
12.89896537452077
 20
188.32857216671806
 10
13.456159915252357
 20
187.82048914458122
 10
14.12961397735316
 20
187.29676035877094
 10
14.951794556658768
 20
186.75419190947684
 10
15.9537369198448
 20
186.18596321494425
 10
17.139532946923737
 20
185.58916157684027
 10
18.517489537084344
 20
184.97243275239714
 10
20.14839544336101
 20
184.35060162414854
 10
22.08236020573355
 20
183.72438430127357
 10
24.314225161182605
 20
183.084476174571
 10
26.798776342049337
 20
182.44371037772908
 10
29.52725036883575
 20
181.8423471891382
 10
32.47161000587238
 20
181.27651207233188
 10
35.547252000490445
 20
180.7478525123421
 10
38.72408873608235
 20
180.2783916752518
 10
42.00060921322718
 20
179.87046652685814
 10
45.37939026795142
 20
179.49990288774248
 10
48.801336159507926
 20
179.13967922962328
 10
52.20272090557859
 20
178.80578181630923
 10
55.62045516756777
 20
178.53391032403002
 10
59.105917511022184
 20
178.30130439274052
 10
62.61540770459921
 20
178.07055211688345
 10
66.12180093701282
 20
177.8507079429433
 10
69.62145850463217
 20
177.65301747371373
 10
73.12171654114674
 20
177.48533498394715
 10
76.64059888395184
 20
177.34558522531793
 10
80.18025721116527
 20
177.22289051862174
 10
83.73488090362754
 20
177.11129607907412
 10
86.24250972278742
 20
177.0364660194977
 10
86.21268203787525
 20
176.03691096387905
 10
87.26784594941866
 20
176.0054232013965
 10
90.81828393024038
 20
175.90521958948653
 10
94.35995454065015
 20
175.8214448704471
 10
97.89530743182732
 20
175.73996524349138
 10
101.43849892229574
 20
175.68043765857726
 10
104.9990185850899
 20
175.62875322570045
 10
108.57215867433084
 20
175.5753386935606
 10
112.15356944062505
 20
175.52687457138853
 10
115.73930063231609
 20
175.48197572399943
 10
119.32481703849285
 20
175.44106451526278
 10
122.90794868387516
 20
175.4055440207581
 10
126.48929188280906
 20
175.37779236988163
 10
130.07292166116102
 20
175.3588499580154
 10
133.66314490015634
 20
175.34668779673518
 10
137.26003876640223
 20
175.33719240982148
 10
140.86008675990922
 20
175.32803059129415
 10
144.4598644175334
 20
175.31833496162838
 10
148.0568737067808
 20
175.30877860359536
 10
151.6501821279672
 20
175.3026173088822
 10
155.2427315892532
 20
175.30218383118554
 10
158.83846776878647
 20
175.30608569677264
 10
162.43613945079255
 20
175.3105575811814
 10
166.03323337225913
 20
175.31632347973408
 10
169.6294984185985
 20
175.32459896676755
 10
173.22325779942443
 20
175.33571464394112
 10
176.81588131600057
 20
175.351873414795
 10
180.41074716012815
 20
175.37252553925805
 10
184.0071140823278
 20
175.39406399679908
 10
187.60161851079624
 20
175.41318280858775
 10
191.19294045551732
 20
175.433337573874
 10
194.7802399581385
 20
175.45879864245342
 10
198.36614378347238
 20
175.49120352935478
 10
201.9543020931694
 20
175.53080794355165
 10
205.5475172112152
 20
175.57452387378
 10
209.14254968175428
 20
175.6178312016826
 10
212.73698518851882
 20
175.6583564522164
 10
216.32815959989426
 20
175.69894631511414
 10
219.9130591891629
 20
175.74438383473313
 10
223.49543313614237
 20
175.79791375754593
 10
227.0791718336782
 20
175.8577246699183
 10
230.66233757126253
 20
175.91509809956705
 10
234.2456472439901
 20
175.9634145780842
 10
237.8321976371882
 20
176.00693349800608
 10
241.41683173798236
 20
176.05250517051704
 10
244.99890050883283
 20
176.1053377784387
 10
248.5833014101632
 20
176.16616419795002
 10
252.17095549987707
 20
176.2293452620195
 10
255.75628848305956
 20
176.28798909409448
 10
259.33905287094586
 20
176.34125070259228
 10
262.9186742928447
 20
176.39839037875137
 10
266.4974750237101
 20
176.46513896923705
 10
270.08191196707287
 20
176.539380099571
 10
273.6682698585344
 20
176.61261897620923
 10
277.2545511357265
 20
176.6793233671167
 10
280.8436178356674
 20
176.73918653494005
 10
284.43649338181353
 20
176.79538843977815
 10
288.0302702577072
 20
176.84968615764456
 10
291.6210737365167
 20
176.90302004061235
 10
295.20586172430944
 20
176.96111700515928
 10
298.7900621440722
 20
177.0220451467608
 10
302.3709029133663
 20
177.07391895252889
 10
305.9557926924931
 20
177.1151173229225
 10
309.54781209169295
 20
177.15245368344463
 10
313.1439922710048
 20
177.19046394118232
 10
316.7406315265389
 20
177.2288912746219
 10
320.33364857069034
 20
177.2661885693334
 10
323.9208017020484
 20
177.29826830603056
 10
327.50468076629966
 20
177.3214930065759
 10
331.08922285724043
 20
177.3383298831602
 10
334.6709993721961
 20
177.35064008233624
 10
338.2480592382939
 20
177.35246136574756
 10
341.8265401101188
 20
177.34525987269924
 10
345.404130478038
 20
177.339625217574
 10
348.97792269318677
 20
177.3321702076583
 10
352.54746729958595
 20
177.31051546586116
 10
356.1182339259716
 20
177.27878126623222
 10
359.69014900855507
 20
177.23729857259298
 10
363.2600669451141
 20
177.19148278272152
 10
366.82377079037275
 20
177.13335042094337
 10
370.3846792454908
 20
177.0636789713485
 10
373.93712658850995
 20
176.9852023486809
 10
377.4710826590837
 20
176.89653634659808
 10
380.9754047011237
 20
176.7939242748218
 10
384.4285167383222
 20
176.6821741303529
 10
387.78680298311406
 20
176.56219390492933
 10
390.98931306266627
 20
176.43466577744178
 10
393.95983961032255
 20
176.30112114761192
 10
395.77346392613924
 20
176.2096881054746
  0
LWPOLYLINE
  5
8D
330
17
100
AcDbEntity
  8
Layer
100
AcDbPolyline
 90
5
 70
0
 10
262.61590925033016
 20
205.1750861555716
 10
258.7086885071497
 20
206.03160589501738
 10
259.56520824659555
 20
209.93882663819784
 10
263.472428989776
 20
209.08230689875205
 10
262.61590925033016
 20
205.1750861555716
  0
LWPOLYLINE
  5
8E
330
17
100
AcDbEntity
  8
Layer
100
AcDbPolyline
 90
5
 70
0
 10
117.60304619605803
 20
220.4162811332211
 10
113.60467078545086
 20
220.30228957277973
 10
113.49067922500949
 20
224.30066498338692
 10
117.48905463561665
 20
224.4146565438283
 10
117.60304619605803
 20
220.4162811332211
  0
LWPOLYLINE
  5
8F
330
17
100
AcDbEntity
  8
Layer
100
AcDbPolyline
 90
5
 70
0
 10
52.61143065743653
 20
212.82043131129262
 10
48.73503658320307
 20
211.833735318979
 10
47.748340590889455
 20
215.71012939321247
 10
51.624734665122915
 20
216.6968253855261
 10
52.61143065743653
 20
212.82043131129262
  0
LWPOLYLINE
  5
90
330
17
100
AcDbEntity
  8
Layer
100
AcDbPolyline
 90
5
 70
0
 10
20.80019146338205
 20
198.4129806414928
 10
19.290272289837517
 20
197.10143800422836
 10
16.01141569667638
 20
200.8762359380897
 10
17.52133487022091
 20
202.18777857535414
 10
20.80019146338205
 20
198.4129806414928
  0
LWPOLYLINE
  5
91
330
17
100
AcDbEntity
  8
Layer
100
AcDbPolyline
 90
5
 70
0
 10
16.310491491942035
 20
191.933079910507
 10
17.895467506501465
 20
190.71330491762046
 10
14.846030024285167
 20
186.7508648812219
 10
13.261054009725736
 20
187.97063987410843
 10
16.310491491942035
 20
191.933079910507
  0
LWPOLYLINE
  5
92
330
17
100
AcDbEntity
  8
Layer
100
AcDbPolyline
 90
5
 70
0
 10
65.19765206829845
 20
181.90927048844227
 10
69.19128893075643
 20
181.68373864852438
 10
68.96575709083854
 20
177.69010178606638
 10
64.97212022838056
 20
177.91563362598427
 10
65.19765206829845
 20
181.90927048844227
  0
LINE
  5
93
330
17
100
AcDbEntity
  8
Layer
100
AcDbLine
 10
376.2019921893026
 20
180.43770933389297
 30
0.0
 11
375.99642837030325
 21
179.45906562123835
 31
0.0
  0
LINE
  5
94
330
17
100
AcDbEntity
  8
Layer
100
AcDbLine
 10
375.8147904986354
 20
177.9383916111939
 30
0.0
 11
375.7841699279497
 21
176.93886053081127
 31
0.0
  0
LINE
  5
95
330
17
100
AcDbEntity
  8
Layer
100
AcDbLine
 10
356.80548140960525
 20
185.34818857160116
 30
0.0
 11
356.57993783533465
 21
184.37395549060605
 31
0.0
  0
LINE
  5
96
330
17
100
AcDbEntity
  8
Layer
100
AcDbLine
 10
355.81008273579346
 20
178.28144690250832
 30
0.0
 11
355.78620066087007
 21
177.28173211993413
 31
0.0
  0
LINE
  5
97
330
17
100
AcDbEntity
  8
Layer
100
AcDbLine
 10
279.3502117694005
 20
205.4007972256972
 30
0.0
 11
279.1079255351888
 21
204.43059241190193
 31
0.0
  0
LINE
  5
98
330
17
100
AcDbEntity
  8
Layer
100
AcDbLine
 10
275.777947417101
 20
177.65180461348325
 30
0.0
 11
275.7752360911453
 21
176.6518082891342
 31
0.0
  0
LWPOLYLINE
  5
99
330
17
100
AcDbEntity
  8
Layer
100
AcDbPolyline
 90
300
 70
1
 10
179.36714285714112
 20
200.0
 10
179.36218179741925
 20
200.47832743748862
 10
179.34730080891805
 20
200.9564436590463
 10
179.32250646266309
 20
201.43413754200913
 10
179.28780970713967
 20
201.91119815020605
 10
179.2432258634583
 20
202.38741482710225
 10
179.18877461858924
 20
202.86257728881927
 10
179.12448001666937
 20
203.33647571699038
 10
179.05037044838494
 20
203.8089008514105
 10
178.96647863843504
 20
204.27964408243957
 10
178.87284163108126
 20
204.74849754311873
 10
178.76950077379007
 20
205.21525420095853
 10
178.65650169897492
 20
205.67970794935857
 10
178.53389430384615
 20
206.14165369861848
 10
178.40173272837794
 20
206.6008874664997
 10
178.2600753314015
 20
207.05720646829826
 10
178.10898466483553
 20
207.51040920638889
 10
177.94852744606501
 20
207.96029555920063
 10
177.77877452848068
 20
208.4066668695849
 10
177.5998008701922
 20
208.8493260325369
 10
177.41168550092877
 20
209.28807758223164
 10
177.2145114871418
 20
209.7227277783361
 10
177.00836589532508
 20
210.1530846915596
 10
176.79333975356874
 20
210.57895828840432
 10
176.56952801136373
 20
211.0001605150787
 10
176.33702949767488
 20
211.4165053805368
 10
176.09594687730072
 20
211.82780903860657
 10
175.84638660553964
 20
212.23388986917132
 10
175.58845888118225
 20
212.6345685583679
 10
175.32227759785064
 20
213.02966817776672
 10
175.0479602937063
 20
213.4190142624984
 10
174.7656280995483
 20
213.8024348882924
 10
174.47540568532565
 20
214.17976074739414
 10
174.17742120508638
 20
214.5508252233264
 10
173.87180624038834
 20
214.91546446446247
 10
173.55869574219656
 20
215.2735174563785
 10
173.23822797129256
 20
215.62482609295284
 10
172.91054443722248
 20
215.96923524618137
 10
172.57578983581033
 20
216.3065928346775
 10
172.2341119852643
 20
216.63674989082716
 10
171.88566176090458
 20
216.95956062656865
 10
171.530593028541
 20
217.27488249776857
 10
171.16906257653017
 20
217.58257626716528
 10
170.80123004654217
 20
217.8825060658521
 10
170.42725786306738
 20
218.17453945327338
 10
170.04731116169427
 20
218.45854747570624
 10
169.6615577161902
 20
218.73440472320314
 10
169.27016786441732
 20
219.0019893849693
 10
168.87331443311612
 20
219.2611833031509
 10
168.47117266158995
 20
219.51187202501023
 10
168.06392012432434
 20
219.753944853465
 10
167.65173665257518
 20
219.98729489596866
 10
167.23480425496012
 20
220.2118191117116
 10
166.81330703708886
 20
220.42741835712076
 10
166.3874311202671
 20
220.6339974296387
 10
165.95736455931092
 20
220.83146510976243
 10
165.52329725950668
 20
221.0197342013234
 10
165.08542089275448
 20
221.1987215699907
 10
164.64392881293125
 20
221.36834817998107
 10
164.19901597051083
 20
221.52853912895873
 10
163.7508788264797
 20
221.67922368111016
 10
163.299715265585
 20
221.82033529837906
 10
162.84572450895453
 20
221.9518116698477
 10
162.38910702612603
 20
222.07359473925166
 10
161.93006444652562
 20
222.1856307306158
 10
161.46879947043385
 20
222.28787017200034
 10
161.00551577947903
 20
222.38026791734603
 10
160.54041794669712
 20
222.4627831664097
 10
160.07371134619805
 20
222.53537948278026
 10
159.60560206247828
 20
222.59802480996802
 10
159.13629679941965
 20
222.6506914855601
 10
158.66600278901487
 20
222.6933562534351
 10
158.19492769985962
 20
222.72600027403266
 10
157.72327954545196
 20
222.74860913267224
 10
157.25126659233945
 20
222.76117284591828
 10
156.77909726815446
 20
222.76368586598878
 10
156.30698006957843
 20
222.75614708320472
 10
155.83512347027565
 20
222.73855982648044
 10
155.36373582883704
 20
222.71093186185337
 10
154.89302529677494
 20
222.6732753890549
 10
154.42319972660928
 20
222.62560703612343
 10
153.95446658008575
 20
222.5679478520616
 10
153.48703283656644
 20
222.50032329754197
 10
153.0211049016337
 20
222.4227632336641
 10
152.55688851594718
 20
222.33530190876883
 10
152.0945886643946
 20
222.237977943315
 10
151.63440948557613
 20
222.13083431282607
 10
151.1765541816625
 20
222.013918328913
 10
150.72122492866686
 20
221.88728161838299
 10
150.26862278716925
 20
221.7509801004424
 10
149.81894761353408
 20
221.60507396200458
 10
149.37239797165915
 20
221.44962763111278
 10
148.92917104529542
 20
221.2847097484907
 10
148.48946255097627
 20
221.11039313723276
 10
148.05346665159445
 20
220.92675477064725
 10
147.62137587066533
 20
220.7338757382672
 10
147.19338100731397
 20
220.53184121004355
 10
146.76967105202343
 20
220.3207403987365
 10
146.35043310318207
 20
220.10066652052151
 10
145.93585228446605
 20
219.87171675382794
 10
145.526111663094
 20
219.63399219642753
 10
145.12139216898967
 20
219.38759782079262
 10
144.7218725148883
 20
219.13264242774324
 10
144.32772911742222
 20
218.8692385984036
 10
143.93913601922014
 20
218.59750264448965
 10
143.55626481205493
 20
218.31755455694895
 10
143.1792845610734
 20
218.02951795297614
 10
142.8083617301419
 20
217.73352002142693
 10
142.44366010834074
 20
217.4296914666552
 10
142.08534073763929
 20
217.11816645079767
 10
141.73356184178456
 20
216.79908253453152
 10
141.38847875643398
 20
216.47258061633158
 10
141.05024386056357
 20
216.13880487025355
 10
140.7190065091816
 20
215.79790268227072
 10
140.39491296737782
 20
215.4500245851925
 10
140.0781063457366
 20
215.0953241921934
 10
139.7687265371436
 20
214.73395812898178
 10
139.46691015501293
 20
214.36608596463822
 10
139.17279047296242
 20
213.99187014115452
 10
138.8864973659639
 20
213.6114759017037
 10
138.60815725299392
 20
213.22507121767336
 10
138.33789304121075
 20
212.83282671449427
 10
138.0758240716821
 20
212.43491559629686
 10
137.82206606668734
 20
212.03151356942928
 10
137.57673107861794
 20
211.6227987648704
 10
137.33992744049814
 20
211.20895165957208
 10
137.11175971814825
 20
210.79015499676575
 10
136.89232866401127
 20
210.36659370526812
 10
136.68173117266346
 20
209.93845481782176
 10
136.48006023802844
 20
209.5059273885068
 10
136.28740491231372
 20
209.06920240925982
 10
136.1038502666876
 20
208.6284727255374
 10
135.92947735371436
 20
208.18393295116078
 10
135.76436317156356
 20
207.73577938238006
 10
135.60858063000987
 20
207.28420991119515
 10
135.4621985182382
 20
206.82942393797234
 10
135.32528147446828
 20
206.37162228339466
 10
135.19788995741226
 20
205.9110070997851
 10
135.08008021957787
 20
205.44778178184194
 10
134.97190428242882
 20
204.98215087682524
 10
134.87340991341372
 20
204.5143199942346
 10
134.78464060487318
 20
204.04449571501777
 10
134.7056355548349
 20
203.57288550035042
 10
134.6364296497049
 20
203.09969760002696
 10
134.57705344886264
 20
202.62514096050336
 10
134.5275331711669
 20
202.14942513263233
 10
134.48789068337828
 20
201.6727601791315
 10
134.4581434905034
 20
201.19535658182573
 10
134.43830472806522
 20
200.71742514870405
 10
134.42838315630274
 20
200.23917692083307
 10
134.42838315630274
 20
199.76082307916693
 10
134.43830472806522
 20
199.28257485129595
 10
134.4581434905034
 20
198.8046434181743
 10
134.48789068337828
 20
198.3272398208685
 10
134.5275331711669
 20
197.85057486736767
 10
134.57705344886264
 20
197.37485903949667
 10
134.6364296497049
 20
196.90030239997304
 10
134.7056355548349
 20
196.42711449964958
 10
134.78464060487318
 20
195.95550428498223
 10
134.87340991341372
 20
195.4856800057654
 10
134.97190428242882
 20
195.01784912317476
 10
135.08008021957787
 20
194.55221821815806
 10
135.19788995741226
 20
194.0889929002149
 10
135.32528147446828
 20
193.62837771660534
 10
135.4621985182382
 20
193.17057606202766
 10
135.60858063000987
 20
192.71579008880485
 10
135.76436317156356
 20
192.26422061761994
 10
135.92947735371436
 20
191.81606704883922
 10
136.1038502666876
 20
191.3715272744626
 10
136.28740491231372
 20
190.93079759074018
 10
136.48006023802844
 20
190.49407261149324
 10
136.68173117266346
 20
190.06154518217824
 10
136.89232866401127
 20
189.63340629473188
 10
137.11175971814825
 20
189.20984500323425
 10
137.33992744049814
 20
188.79104834042792
 10
137.57673107861794
 20
188.3772012351296
 10
137.82206606668734
 20
187.9684864305707
 10
138.0758240716821
 20
187.56508440370314
 10
138.33789304121075
 20
187.16717328550575
 10
138.6081572529939
 20
186.77492878232664
 10
138.8864973659639
 20
186.3885240982963
 10
139.17279047296242
 20
186.00812985884548
 10
139.46691015501293
 20
185.63391403536178
 10
139.7687265371436
 20
185.26604187101822
 10
140.0781063457366
 20
184.9046758078066
 10
140.39491296737782
 20
184.5499754148075
 10
140.7190065091816
 20
184.20209731772928
 10
141.05024386056357
 20
183.86119512974645
 10
141.38847875643398
 20
183.52741938366842
 10
141.73356184178456
 20
183.20091746546848
 10
142.08534073763929
 20
182.88183354920233
 10
142.44366010834074
 20
182.5703085333448
 10
142.8083617301419
 20
182.26647997857307
 10
143.1792845610734
 20
181.97048204702386
 10
143.55626481205493
 20
181.68244544305105
 10
143.93913601922014
 20
181.40249735551035
 10
144.32772911742222
 20
181.13076140159643
 10
144.7218725148883
 20
180.86735757225676
 10
145.12139216898967
 20
180.61240217920738
 10
145.526111663094
 20
180.36600780357247
 10
145.93585228446605
 20
180.12828324617206
 10
146.35043310318207
 20
179.89933347947849
 10
146.76967105202343
 20
179.6792596012635
 10
147.19338100731397
 20
179.46815878995645
 10
147.62137587066533
 20
179.2661242617328
 10
148.05346665159442
 20
179.07324522935275
 10
148.48946255097624
 20
178.88960686276724
 10
148.92917104529542
 20
178.7152902515093
 10
149.37239797165913
 20
178.55037236888722
 10
149.81894761353408
 20
178.39492603799542
 10
150.26862278716925
 20
178.2490198995576
 10
150.72122492866686
 20
178.11271838161701
 10
151.1765541816625
 20
177.986081671087
 10
151.63440948557613
 20
177.86916568717393
 10
152.0945886643946
 20
177.762022056685
 10
152.5568885159472
 20
177.66469809123117
 10
153.0211049016337
 20
177.5772367663359
 10
153.48703283656644
 20
177.49967670245803
 10
153.95446658008575
 20
177.4320521479384
 10
154.42319972660928
 20
177.37439296387657
 10
154.89302529677494
 20
177.3267246109451
 10
155.363735828837
 20
177.28906813814663
 10
155.83512347027565
 20
177.26144017351956
 10
156.30698006957843
 20
177.24385291679528
 10
156.77909726815446
 20
177.23631413401122
 10
157.25126659233945
 20
177.23882715408172
 10
157.72327954545196
 20
177.25139086732776
 10
158.19492769985962
 20
177.27399972596734
 10
158.66600278901487
 20
177.3066437465649
 10
159.13629679941965
 20
177.3493085144399
 10
159.60560206247828
 20
177.40197519003198
 10
160.07371134619805
 20
177.46462051721974
 10
160.54041794669715
 20
177.5372168335903
 10
161.00551577947903
 20
177.61973208265397
 10
161.46879947043382
 20
177.71212982799966
 10
161.9300644465256
 20
177.8143692693842
 10
162.38910702612603
 20
177.92640526074834
 10
162.84572450895453
 20
178.0481883301523
 10
163.299715265585
 20
178.17966470162094
 10
163.75087882647966
 20
178.32077631888984
 10
164.19901597051083
 20
178.47146087104127
 10
164.64392881293125
 20
178.63165182001893
 10
165.08542089275448
 20
178.8012784300093
 10
165.52329725950668
 20
178.9802657986766
 10
165.95736455931092
 20
179.16853489023757
 10
166.3874311202671
 20
179.3660025703613
 10
166.81330703708886
 20
179.57258164287924
 10
167.23480425496012
 20
179.7881808882884
 10
167.65173665257518
 20
180.01270510403134
 10
168.06392012432434
 20
180.246055146535
 10
168.47117266158992
 20
180.48812797498977
 10
168.8733144331161
 20
180.7388166968491
 10
169.27016786441732
 20
180.9980106150307
 10
169.6615577161902
 20
181.26559527679686
 10
170.04731116169427
 20
181.54145252429376
 10
170.42725786306738
 20
181.82546054672662
 10
170.80123004654217
 20
182.1174939341479
 10
171.16906257653017
 20
182.41742373283472
 10
171.530593028541
 20
182.72511750223143
 10
171.88566176090458
 20
183.04043937343135
 10
172.2341119852643
 20
183.36325010917284
 10
172.57578983581033
 20
183.6934071653225
 10
172.9105444372225
 20
184.03076475381863
 10
173.23822797129256
 20
184.37517390704716
 10
173.55869574219653
 20
184.7264825436215
 10
173.87180624038834
 20
185.08453553553753
 10
174.17742120508638
 20
185.4491747766736
 10
174.47540568532565
 20
185.82023925260586
 10
174.7656280995483
 20
186.1975651117076
 10
175.0479602937063
 20
186.5809857375016
 10
175.32227759785064
 20
186.97033182223325
 10
175.58845888118225
 20
187.3654314416321
 10
175.84638660553964
 20
187.76611013082868
 10
176.09594687730072
 20
188.17219096139343
 10
176.33702949767488
 20
188.5834946194632
 10
176.56952801136373
 20
188.9998394849213
 10
176.79333975356874
 20
189.42104171159568
 10
177.00836589532508
 20
189.8469153084404
 10
177.2145114871418
 20
190.2772722216639
 10
177.41168550092877
 20
190.71192241776836
 10
177.59980087019218
 20
191.1506739674631
 10
177.77877452848065
 20
191.5933331304151
 10
177.94852744606501
 20
192.03970444079934
 10
178.10898466483553
 20
192.4895907936111
 10
178.2600753314015
 20
192.94279353170174
 10
178.40173272837794
 20
193.3991125335003
 10
178.53389430384615
 20
193.85834630138152
 10
178.65650169897492
 20
194.32029205064143
 10
178.76950077379007
 20
194.78474579904147
 10
178.87284163108126
 20
195.25150245688127
 10
178.96647863843504
 20
195.72035591756043
 10
179.05037044838494
 20
196.1910991485895
 10
179.12448001666937
 20
196.66352428300962
 10
179.18877461858924
 20
197.13742271118073
 10
179.2432258634583
 20
197.61258517289775
 10
179.28780970713967
 20
198.08880184979395
 10
179.32250646266309
 20
198.56586245799085
 10
179.34730080891805
 20
199.0435563409537
 10
179.36218179741925
 20
199.52167256251138
 10
179.36714285714112
 20
200.0
  0
LINE
  5
9A
330
17
100
AcDbEntity
  8
Layer
 62
7
100
AcDbLine
 10
15.094040106049988
 20
200.00000000000003
 30
0.0
 11
304.0381812552173
 21
199.99999999999997
 31
0.0
  0
LINE
  5
9B
330
17
100
AcDbEntity
  8
Layer
 62
7
100
AcDbLine
 10
70.78286833588345
 20
200.0
 30
0.0
 11
82.78286833588345
 21
200.0
 31
0.0
  0
LWPOLYLINE
  5
9C
330
17
100
AcDbEntity
  8
Layer
100
AcDbPolyline
 90
5
 70
0
 10
76.78286833588345
 20
205.0
 10
81.78286833588345
 20
200.0
 10
76.78286833588345
 20
195.0
 10
71.78286833588345
 20
200.0
 10
76.78286833588345
 20
205.0
  0
LINE
  5
9D
330
17
100
AcDbEntity
  8
Layer
 62
7
100
AcDbLine
 10
153.56611068063364
 20
200.0
 30
0.0
 11
165.56611068063364
 21
200.0
 31
0.0
  0
LWPOLYLINE
  5
9E
330
17
100
AcDbEntity
  8
Layer
100
AcDbPolyline
 90
5
 70
0
 10
159.56611068063364
 20
205.0
 10
164.56611068063364
 20
200.0
 10
159.56611068063364
 20
195.0
 10
154.56611068063364
 20
200.0
 10
159.56611068063364
 20
205.0
  0
LINE
  5
9F
330
17
100
AcDbEntity
  8
Layer
 62
7
100
AcDbLine
 10
236.34935302538383
 20
200.0
 30
0.0
 11
248.34935302538383
 21
200.0
 31
0.0
  0
LWPOLYLINE
  5
A0
330
17
100
AcDbEntity
  8
Layer
100
AcDbPolyline
 90
5
 70
0
 10
242.34935302538383
 20
205.0
 10
247.34935302538383
 20
200.0
 10
242.34935302538383
 20
195.0
 10
237.34935302538383
 20
200.0
 10
242.34935302538383
 20
205.0
  0
LINE
  5
A1
330
17
100
AcDbEntity
  8
Layer
 62
7
100
AcDbLine
 10
11.085155143259215
 20
192.87251210181995
 30
0.0
 11
393.6782189726208
 21
176.4166257350092
 31
0.0
  0
LINE
  5
A2
330
17
100
AcDbEntity
  8
Layer
 62
7
100
AcDbLine
 10
85.50570770310357
 20
189.67157546166627
 30
0.0
 11
97.49462316612055
 21
189.15591470047508
 31
0.0
  0
LWPOLYLINE
  5
A3
330
17
100
AcDbEntity
  8
Layer
100
AcDbPolyline
 90
5
 70
0
 10
91.71502408510838
 20
194.40912652399442
 10
96.4955468775358
 20
189.19888643057436
 10
91.28530678411573
 20
184.41836363814696
 10
86.50478399168831
 20
189.628603731567
 10
91.71502408510838
 20
194.40912652399442
  0
LINE
  5
A4
330
17
100
AcDbEntity
  8
Layer
 62
7
100
AcDbLine
 10
177.9069757225435
 20
185.69726199278617
 30
0.0
 11
189.89589118556052
 21
185.181601231595
 31
0.0
  0
LWPOLYLINE
  5
A5
330
17
100
AcDbEntity
  8
Layer
100
AcDbPolyline
 90
5
 70
0
 10
184.11629210454834
 20
190.43481305511432
 10
188.89681489697574
 20
185.22457296169426
 10
183.6865748035557
 20
180.44405016926686
 10
178.90605201112828
 20
185.6542902626869
 10
184.11629210454834
 20
190.43481305511432
  0
LINE
  5
A6
330
17
100
AcDbEntity
  8
Layer
100
AcDbLine
 10
156.89714285714118
 20
222.76399999999992
 30
0.0
 11
156.89714285714118
 21
223.76399999999992
 31
0.0
  0
LINE
  5
A7
330
17
100
AcDbEntity
  8
Layer
100
AcDbLine
 10
156.89714285714118
 20
177.23600000000008
 30
0.0
 11
156.89714285714118
 21
176.23600000000008
 31
0.0
  0
LINE
  5
A8
330
17
100
AcDbEntity
  8
Layer
100
AcDbLine
 10
179.36714285714112
 20
200.0
 30
0.0
 11
180.36714285714112
 21
200.0
 31
0.0
  0
LINE
  5
A9
330
17
100
AcDbEntity
  8
Layer
100
AcDbLine
 10
134.42714285714123
 20
200.0
 30
0.0
 11
133.42714285714123
 21
200.0
 31
0.0
  0
LWPOLYLINE
  5
AA
330
17
100
AcDbEntity
  8
NumLabel
 62
1
100
AcDbPolyline
 90
4
 70
0
 10
120.23999999999876
 20
190.6714285714288
 10
118.23999999999876
 20
190.6714285714288
 10
118.23999999999876
 20
180.6714285714288
 10
120.23999999999876
 20
180.6714285714288
  0
LWPOLYLINE
  5
AB
330
17
100
AcDbEntity
  8
NumLabel
 62
1
100
AcDbPolyline
 90
4
 70
0
 10
121.23999999999876
 20
180.6714285714288
 10
123.23999999999876
 20
180.6714285714288
 10
123.23999999999876
 20
190.6714285714288
 10
121.23999999999876
 20
190.6714285714288
  0
LWPOLYLINE
  5
AC
330
17
100
AcDbEntity
  8
NumLabel
 62
1
100
AcDbPolyline
 90
2
 70
0
 10
118.23999999999876
 20
185.6714285714288
 10
120.23999999999876
 20
185.6714285714288
  0
LWPOLYLINE
  5
AD
330
17
100
AcDbEntity
  8
NumLabel
 62
1
100
AcDbPolyline
 90
2
 70
0
 10
121.23999999999876
 20
185.6714285714288
 10
123.23999999999876
 20
185.6714285714288
  0
LWPOLYLINE
  5
AE
330
17
100
AcDbEntity
  8
NumLabel
 62
1
100
AcDbPolyline
 90
2
 70
0
 10
128.23999999999876
 20
190.6714285714288
 10
128.23999999999876
 20
180.6714285714288
  0
ENDSEC
  0
SECTION
  2
OBJECTS
  0
DICTIONARY
  5
A
330
0
100
AcDbDictionary
280
0
281
1
  3
ACAD_COLOR
350
B
  3
ACAD_GROUP
350
C
  3
ACAD_LAYOUT
350
D
  3
ACAD_MATERIAL
350
E
  3
ACAD_MLEADERSTYLE
350
F
  3
ACAD_MLINESTYLE
350
10
  3
ACAD_PLOTSETTINGS
350
11
  3
ACAD_PLOTSTYLENAME
350
12
  3
ACAD_SCALELIST
350
14
  3
ACAD_TABLESTYLE
350
15
  3
ACAD_VISUALSTYLE
350
16
  3
EZDXF_META
350
2D
  0
DICTIONARY
  5
B
330
A
100
AcDbDictionary
280
0
281
1
  0
DICTIONARY
  5
C
330
A
100
AcDbDictionary
280
0
281
1
  0
DICTIONARY
  5
D
330
A
100
AcDbDictionary
280
0
281
1
  3
Model
350
1A
  3
Layout1
350
1E
  0
DICTIONARY
  5
E
330
A
100
AcDbDictionary
280
0
281
1
  3
ByBlock
350
1F
  3
ByLayer
350
20
  3
Global
350
21
  0
DICTIONARY
  5
F
330
A
100
AcDbDictionary
280
0
281
1
  3
Standard
350
2C
  0
DICTIONARY
  5
10
330
A
100
AcDbDictionary
280
0
281
1
  3
Standard
350
22
  0
DICTIONARY
  5
11
330
A
100
AcDbDictionary
280
0
281
1
  0
ACDBDICTIONARYWDFLT
  5
12
330
A
100
AcDbDictionary
280
0
281
1
  3
Normal
350
13
100
AcDbDictionaryWithDefault
340
13
  0
ACDBPLACEHOLDER
  5
13
330
12
  0
DICTIONARY
  5
14
330
A
100
AcDbDictionary
280
0
281
1
  0
DICTIONARY
  5
15
330
A
100
AcDbDictionary
280
0
281
1
  0
DICTIONARY
  5
16
330
A
100
AcDbDictionary
280
0
281
1
  3
2dWireframe
350
5A
  3
Basic
350
5B
  3
Brighten
350
5C
  3
ColorChange
350
5D
  3
Conceptual
350
5E
  3
Dim
350
5F
  3
EdgeColorOff
350
60
  3
Facepattern
350
61
  3
Flat
350
62
  3
FlatWithEdges
350
63
  3
Gouraud
350
64
  3
GouraudWithEdges
350
65
  3
Hidden
350
66
  3
JitterOff
350
67
  3
Linepattern
350
68
  3
Modeling
350
69
  3
OverhangOff
350
6A
  3
Realistic
350
6B
  3
Shaded
350
6C
  3
Shaded with edges
350
6D
  3
Shades of Gray
350
6E
  3
Sketchy
350
6F
  3
Thicken
350
70
  3
Wireframe
350
71
  3
X-Ray
350
72
  0
LAYOUT
  5
1A
330
D
100
AcDbPlotSettings
  1

  2
Adobe PDF
  4
A3
  6

 40
7.5
 41
20.0
 42
7.5
 43
20.0
 44
420.0
 45
297.0
 46
0.0
 47
0.0
 48
0.0
 49
0.0
140
0.0
141
0.0
142
1.0
143
1.0
 70
1024
 72
1
 73
0
 74
5
  7

 75
16
 76
0
 77
2
 78
300
147
1.0
148
0.0
149
0.0
100
AcDbLayout
  1
Model
 70
1
 71
0
 10
0.0
 20
0.0
 11
420.0
 21
297.0
 12
0.0
 22
0.0
 32
0.0
 14
1e+20
 24
1e+20
 34
1e+20
 15
-1e+20
 25
-1e+20
 35
-1e+20
146
0.0
 13
0.0
 23
0.0
 33
0.0
 16
1.0
 26
0.0
 36
0.0
 17
0.0
 27
1.0
 37
0.0
 76
1
330
17
  0
LAYOUT
  5
1E
330
D
100
AcDbPlotSettings
  1

  2
Adobe PDF
  4
A3
  6

 40
7.5
 41
20.0
 42
7.5
 43
20.0
 44
420.0
 45
297.0
 46
0.0
 47
0.0
 48
0.0
 49
0.0
140
0.0
141
0.0
142
1.0
143
1.0
 70
0
 72
1
 73
0
 74
5
  7

 75
16
 76
0
 77
2
 78
300
147
1.0
148
0.0
149
0.0
100
AcDbLayout
  1
Layout1
 70
1
 71
1
 10
0.0
 20
0.0
 11
420.0
 21
297.0
 12
0.0
 22
0.0
 32
0.0
 14
1e+20
 24
1e+20
 34
1e+20
 15
-1e+20
 25
-1e+20
 35
-1e+20
146
0.0
 13
0.0
 23
0.0
 33
0.0
 16
1.0
 26
0.0
 36
0.0
 17
0.0
 27
1.0
 37
0.0
 76
1
330
1B
  0
MATERIAL
  5
1F
102
{ACAD_REACTORS
330
E
102
}
330
E
100
AcDbMaterial
  1
ByBlock
  2

 70
0
 40
1.0
 71
1
 41
1.0
 91
-1023410177
 42
1.0
 72
1
  3

 73
1
 74
1
 75
1
 44
0.5
 73
0
 45
1.0
 46
1.0
 77
1
  4

 78
1
 79
1
170
1
 48
1.0
171
1
  6

172
1
173
1
174
1
140
1.0
141
1.0
175
1
  7

176
1
177
1
178
1
143
1.0
179
1
  8

270
1
271
1
272
1
145
1.0
146
1.0
273
1
  9

274
1
275
1
276
1
 42
1.0
 72
1
  3

 73
1
 74
1
 75
1
 94
63
  0
MATERIAL
  5
20
102
{ACAD_REACTORS
330
E
102
}
330
E
100
AcDbMaterial
  1
ByLayer
  2

 70
0
 40
1.0
 71
1
 41
1.0
 91
-1023410177
 42
1.0
 72
1
  3

 73
1
 74
1
 75
1
 44
0.5
 73
0
 45
1.0
 46
1.0
 77
1
  4

 78
1
 79
1
170
1
 48
1.0
171
1
  6

172
1
173
1
174
1
140
1.0
141
1.0
175
1
  7

176
1
177
1
178
1
143
1.0
179
1
  8

270
1
271
1
272
1
145
1.0
146
1.0
273
1
  9

274
1
275
1
276
1
 42
1.0
 72
1
  3

 73
1
 74
1
 75
1
 94
63
  0
MATERIAL
  5
21
102
{ACAD_REACTORS
330
E
102
}
330
E
100
AcDbMaterial
  1
Global
  2

 70
0
 40
1.0
 71
1
 41
1.0
 91
-1023410177
 42
1.0
 72
1
  3

 73
1
 74
1
 75
1
 44
0.5
 73
0
 45
1.0
 46
1.0
 77
1
  4

 78
1
 79
1
170
1
 48
1.0
171
1
  6

172
1
173
1
174
1
140
1.0
141
1.0
175
1
  7

176
1
177
1
178
1
143
1.0
179
1
  8

270
1
271
1
272
1
145
1.0
146
1.0
273
1
  9

274
1
275
1
276
1
 42
1.0
 72
1
  3

 73
1
 74
1
 75
1
 94
63
  0
MLINESTYLE
  5
22
102
{ACAD_REACTORS
330
10
102
}
330
10
100
AcDbMlineStyle
  2
Standard
 70
0
  3

 62
256
 51
90.0
 52
90.0
 71
2
 49
0.5
 62
256
  6
BYLAYER
 49
-0.5
 62
256
  6
BYLAYER
  0
MLEADERSTYLE
  5
2C
102
{ACAD_REACTORS
330
F
102
}
330
F
100
AcDbMLeaderStyle
179
2
170
2
171
1
172
0
 90
2
 40
0.0
 41
0.0
173
1
 91
-1056964608
 92
-2
290
1
 42
2.0
291
1
 43
8.0
  3
Standard
 44
4.0
300

342
29
174
1
175
1
176
0
178
1
 93
-1056964608
 45
4.0
292
0
297
0
 46
4.0
 94
-1056964608
 47
1.0
 49
1.0
140
1.0
294
1
141
0.0
177
0
142
1.0
295
0
296
0
143
3.75
271
0
272
9
273
9
  0
DICTIONARY
  5
2D
330
A
100
AcDbDictionary
281
1
  3
CREATED_BY_EZDXF
350
2E
  3
WRITTEN_BY_EZDXF
350
B1
  0
DICTIONARYVAR
  5
2E
330
2D
100
DictionaryVariables
280
0
  1
1.3.0 @ 2026-01-06T17:07:24.973089+00:00
  0
VISUALSTYLE
  5
5A
102
{ACAD_REACTORS
330
16
102
}
330
16
100
AcDbVisualStyle
  2
2dWireframe
 70
4
 90
0
 40
0.6
 62
7
290
0
291
0
  0
VISUALSTYLE
  5
5B
102
{ACAD_REACTORS
330
16
102
}
330
16
100
AcDbVisualStyle
  2
Basic
 70
7
 90
1
 40
0.6
 62
7
290
0
291
1
  0
VISUALSTYLE
  5
5C
102
{ACAD_REACTORS
330
16
102
}
330
16
100
AcDbVisualStyle
  2
Brighten
 70
12
 90
2
 40
0.6
 62
7
290
0
291
1
  0
VISUALSTYLE
  5
5D
102
{ACAD_REACTORS
330
16
102
}
330
16
100
AcDbVisualStyle
  2
ColorChange
 70
16
 90
2
 40
0.6
 62
8
290
0
291
1
  0
VISUALSTYLE
  5
5E
102
{ACAD_REACTORS
330
16
102
}
330
16
100
AcDbVisualStyle
  2
Conceptual
 70
9
 90
3
 40
0.6
 62
7
290
0
291
0
  0
VISUALSTYLE
  5
5F
102
{ACAD_REACTORS
330
16
102
}
330
16
100
AcDbVisualStyle
  2
Dim
 70
11
 90
2
 40
0.6
 62
7
290
0
291
1
  0
VISUALSTYLE
  5
60
102
{ACAD_REACTORS
330
16
102
}
330
16
100
AcDbVisualStyle
  2
EdgeColorOff
 70
22
 90
2
 40
0.6
 62
7
290
0
291
1
  0
VISUALSTYLE
  5
61
102
{ACAD_REACTORS
330
16
102
}
330
16
100
AcDbVisualStyle
  2
Facepattern
 70
15
 90
2
 40
0.6
 62
7
290
0
291
1
  0
VISUALSTYLE
  5
62
102
{ACAD_REACTORS
330
16
102
}
330
16
100
AcDbVisualStyle
  2
Flat
 70
0
 90
2
 40
0.6
 62
7
290
0
291
1
  0
VISUALSTYLE
  5
63
102
{ACAD_REACTORS
330
16
102
}
330
16
100
AcDbVisualStyle
  2
FlatWithEdges
 70
1
 90
2
 40
0.6
 62
7
290
0
291
1
  0
VISUALSTYLE
  5
64
102
{ACAD_REACTORS
330
16
102
}
330
16
100
AcDbVisualStyle
  2
Gouraud
 70
2
 90
2
 40
0.6
 62
7
290
0
291
1
  0
VISUALSTYLE
  5
65
102
{ACAD_REACTORS
330
16
102
}
330
16
100
AcDbVisualStyle
  2
GouraudWithEdges
 70
3
 90
2
 40
0.6
 62
7
290
0
291
1
  0
VISUALSTYLE
  5
66
102
{ACAD_REACTORS
330
16
102
}
330
16
100
AcDbVisualStyle
  2
Hidden
 70
6
 90
1
 40
0.6
 62
7
290
0
291
0
  0
VISUALSTYLE
  5
67
102
{ACAD_REACTORS
330
16
102
}
330
16
100
AcDbVisualStyle
  2
JitterOff
 70
20
 90
2
 40
0.6
 62
7
290
0
291
1
  0
VISUALSTYLE
  5
68
102
{ACAD_REACTORS
330
16
102
}
330
16
100
AcDbVisualStyle
  2
Linepattern
 70
14
 90
2
 40
0.6
 62
7
290
0
291
1
  0
VISUALSTYLE
  5
69
102
{ACAD_REACTORS
330
16
102
}
330
16
100
AcDbVisualStyle
  2
Modeling
 70
10
 90
2
 40
0.6
 62
7
290
0
291
0
  0
VISUALSTYLE
  5
6A
102
{ACAD_REACTORS
330
16
102
}
330
16
100
AcDbVisualStyle
  2
OverhangOff
 70
21
 90
2
 40
0.6
 62
7
290
0
291
1
  0
VISUALSTYLE
  5
6B
102
{ACAD_REACTORS
330
16
102
}
330
16
100
AcDbVisualStyle
  2
Realistic
 70
8
 90
2
 40
0.6
 62
7
290
0
291
0
  0
VISUALSTYLE
  5
6C
102
{ACAD_REACTORS
330
16
102
}
330
16
100
AcDbVisualStyle
  2
Shaded
 70
27
 90
2
 40
0.6
 62
7
290
0
291
0
  0
VISUALSTYLE
  5
6D
102
{ACAD_REACTORS
330
16
102
}
330
16
100
AcDbVisualStyle
  2
Shaded with edges
 70
26
 90
2
 40
0.6
 62
7
290
0
291
0
  0
VISUALSTYLE
  5
6E
102
{ACAD_REACTORS
330
16
102
}
330
16
100
AcDbVisualStyle
  2
Shades of Gray
 70
23
 90
2
 40
0.6
 62
7
290
0
291
0
  0
VISUALSTYLE
  5
6F
102
{ACAD_REACTORS
330
16
102
}
330
16
100
AcDbVisualStyle
  2
Sketchy
 70
24
 90
1
 40
0.6
 62
7
290
0
291
0
  0
VISUALSTYLE
  5
70
102
{ACAD_REACTORS
330
16
102
}
330
16
100
AcDbVisualStyle
  2
Thicken
 70
13
 90
2
 40
0.6
 62
7
290
0
291
1
  0
VISUALSTYLE
  5
71
102
{ACAD_REACTORS
330
16
102
}
330
16
100
AcDbVisualStyle
  2
Wireframe
 70
5
 90
0
 40
0.6
 62
7
290
0
291
0
  0
VISUALSTYLE
  5
72
102
{ACAD_REACTORS
330
16
102
}
330
16
100
AcDbVisualStyle
  2
X-Ray
 70
25
 90
2
 40
0.5
 62
7
290
0
291
0
  0
DICTIONARYVAR
  5
B1
330
2D
100
DictionaryVariables
280
0
  1
1.3.0 @ 2026-01-06T17:07:25.080037+00:00
  0
ENDSEC
  0
EOF
