  0
SECTION
  2
HEADER
  9
$ACADVER
  1
AC1021
  9
$ACADMAINTVER
 70
25
  9
$DWGCODEPAGE
  3
ANSI_1252
  9
$LASTSAVEDBY
  1
ezdxf
  9
$INSBASE
 10
0.0
 20
0.0
 30
0.0
  9
$EXTMIN
 10
1e+20
 20
1e+20
 30
1e+20
  9
$EXTMAX
 10
-1e+20
 20
-1e+20
 30
-1e+20
  9
$LIMMIN
 10
0.0
 20
0.0
  9
$LIMMAX
 10
420.0
 20
297.0
  9
$ORTHOMODE
 70
0
  9
$REGENMODE
 70
1
  9
$FILLMODE
 70
1
  9
$QTEXTMODE
 70
0
  9
$MIRRTEXT
 70
1
  9
$LTSCALE
 40
1.0
  9
$ATTMODE
 70
1
  9
$TEXTSIZE
 40
2.5
  9
$TRACEWID
 40
1.0
  9
$TEXTSTYLE
  7
OpenSans
  9
$CLAYER
  8
0
  9
$CELTYPE
  6
ByLayer
  9
$CECOLOR
 62
256
  9
$CELTSCALE
 40
1.0
  9
$DISPSILH
 70
0
  9
$DIMSCALE
 40
1.0
  9
$DIMASZ
 40
0.175
  9
$DIMEXO
 40
0.125
  9
$DIMDLI
 40
3.75
  9
$DIMRND
 40
0.0
  9
$DIMDLE
 40
0.0
  9
$DIMEXE
 40
0.375
  9
$DIMTP
 40
0.0
  9
$DIMTM
 40
0.0
  9
$DIMTXT
 40
0.25
  9
$DIMCEN
 40
2.5
  9
$DIMTSZ
 40
0.0
  9
$DIMTOL
 70
0
  9
$DIMLIM
 70
0
  9
$DIMTIH
 70
0
  9
$DIMTOH
 70
0
  9
$DIMSE1
 70
0
  9
$DIMSE2
 70
0
  9
$DIMTAD
 70
1
  9
$DIMZIN
 70
12
  9
$DIMBLK
  1
ARCHTICK
  9
$DIMASO
 70
1
  9
$DIMSHO
 70
1
  9
$DIMPOST
  1

  9
$DIMAPOST
  1

  9
$DIMALT
 70
0
  9
$DIMALTD
 70
3
  9
$DIMALTF
 40
0.03937007874
  9
$DIMLFAC
 40
100.0
  9
$DIMTOFL
 70
1
  9
$DIMTVP
 40
0.0
  9
$DIMTIX
 70
0
  9
$DIMSOXD
 70
0
  9
$DIMSAH
 70
0
  9
$DIMBLK1
  1

  9
$DIMBLK2
  1

  9
$DIMSTYLE
  2
EZDXF
  9
$DIMCLRD
 70
0
  9
$DIMCLRE
 70
0
  9
$DIMCLRT
 70
0
  9
$DIMTFAC
 40
0.5
  9
$DIMGAP
 40
0.1
  9
$DIMJUST
 70
0
  9
$DIMSD1
 70
0
  9
$DIMSD2
 70
0
  9
$DIMTOLJ
 70
0
  9
$DIMTZIN
 70
8
  9
$DIMALTZ
 70
0
  9
$DIMALTTZ
 70
0
  9
$DIMUPT
 70
1
  9
$DIMDEC
 70
2
  9
$DIMTDEC
 70
2
  9
$DIMALTU
 70
2
  9
$DIMALTTD
 70
3
  9
$DIMTXSTY
  7
OpenSansCondensed-Light
  9
$DIMAUNIT
 70
0
  9
$DIMADEC
 70
2
  9
$DIMALTRND
 40
0.0
  9
$DIMAZIN
 70
3
  9
$DIMDSEP
 70
46
  9
$DIMATFIT
 70
3
  9
$DIMFRAC
 70
0
  9
$DIMLDRBLK
  1

  9
$DIMLUNIT
 70
2
  9
$DIMLWD
 70
-2
  9
$DIMLWE
 70
-2
  9
$DIMTMOVE
 70
2
  9
$DIMFXL
 40
1.0
  9
$DIMFXLON
 70
0
  9
$DIMJOGANG
 40
0.785398163397
  9
$DIMTFILL
 70
0
  9
$DIMTFILLCLR
 70
0
  9
$DIMARCSYM
 70
0
  9
$DIMLTYPE
  6

  9
$DIMLTEX1
  6

  9
$DIMLTEX2
  6

  9
$LUNITS
 70
2
  9
$LUPREC
 70
4
  9
$SKETCHINC
 40
1.0
  9
$FILLETRAD
 40
10.0
  9
$AUNITS
 70
0
  9
$AUPREC
 70
2
  9
$MENU
  1
.
  9
$ELEVATION
 40
0.0
  9
$PELEVATION
 40
0.0
  9
$THICKNESS
 40
0.0
  9
$LIMCHECK
 70
0
  9
$CHAMFERA
 40
0.0
  9
$CHAMFERB
 40
0.0
  9
$CHAMFERC
 40
0.0
  9
$CHAMFERD
 40
0.0
  9
$SKPOLY
 70
0
  9
$TDCREATE
 40
2461048.088460648
  9
$TDUCREATE
 40
2458532.153996898
  9
$TDUPDATE
 40
2461048.088460648
  9
$TDUUPDATE
 40
2458532.1544311
  9
$TDINDWG
 40
0.0
  9
$TDUSRTIMER
 40
0.0
  9
$USRTIMER
 70
1
  9
$ANGBASE
 50
0.0
  9
$ANGDIR
 70
0
  9
$PDMODE
 70
0
  9
$PDSIZE
 40
0.0
  9
$PLINEWID
 40
0.0
  9
$SPLFRAME
 70
0
  9
$SPLINETYPE
 70
6
  9
$SPLINESEGS
 70
8
  9
$HANDSEED
  5
B9
  9
$SURFTAB1
 70
6
  9
$SURFTAB2
 70
6
  9
$SURFTYPE
 70
6
  9
$SURFU
 70
6
  9
$SURFV
 70
6
  9
$UCSBASE
  2

  9
$UCSNAME
  2

  9
$UCSORG
 10
0.0
 20
0.0
 30
0.0
  9
$UCSXDIR
 10
1.0
 20
0.0
 30
0.0
  9
$UCSYDIR
 10
0.0
 20
1.0
 30
0.0
  9
$UCSORTHOREF
  2

  9
$UCSORTHOVIEW
 70
0
  9
$UCSORGTOP
 10
0.0
 20
0.0
 30
0.0
  9
$UCSORGBOTTOM
 10
0.0
 20
0.0
 30
0.0
  9
$UCSORGLEFT
 10
0.0
 20
0.0
 30
0.0
  9
$UCSORGRIGHT
 10
0.0
 20
0.0
 30
0.0
  9
$UCSORGFRONT
 10
0.0
 20
0.0
 30
0.0
  9
$UCSORGBACK
 10
0.0
 20
0.0
 30
0.0
  9
$PUCSBASE
  2

  9
$PUCSNAME
  2

  9
$PUCSORG
 10
0.0
 20
0.0
 30
0.0
  9
$PUCSXDIR
 10
1.0
 20
0.0
 30
0.0
  9
$PUCSYDIR
 10
0.0
 20
1.0
 30
0.0
  9
$PUCSORTHOREF
  2

  9
$PUCSORTHOVIEW
 70
0
  9
$PUCSORGTOP
 10
0.0
 20
0.0
 30
0.0
  9
$PUCSORGBOTTOM
 10
0.0
 20
0.0
 30
0.0
  9
$PUCSORGLEFT
 10
0.0
 20
0.0
 30
0.0
  9
$PUCSORGRIGHT
 10
0.0
 20
0.0
 30
0.0
  9
$PUCSORGFRONT
 10
0.0
 20
0.0
 30
0.0
  9
$PUCSORGBACK
 10
0.0
 20
0.0
 30
0.0
  9
$USERI1
 70
0
  9
$USERI2
 70
0
  9
$USERI3
 70
0
  9
$USERI4
 70
0
  9
$USERI5
 70
0
  9
$USERR1
 40
0.0
  9
$USERR2
 40
0.0
  9
$USERR3
 40
0.0
  9
$USERR4
 40
0.0
  9
$USERR5
 40
0.0
  9
$WORLDVIEW
 70
1
  9
$SHADEDGE
 70
3
  9
$SHADEDIF
 70
70
  9
$TILEMODE
 70
1
  9
$MAXACTVP
 70
64
  9
$PINSBASE
 10
0.0
 20
0.0
 30
0.0
  9
$PLIMCHECK
 70
0
  9
$PEXTMIN
 10
1e+20
 20
1e+20
 30
1e+20
  9
$PEXTMAX
 10
-1e+20
 20
-1e+20
 30
-1e+20
  9
$PLIMMIN
 10
0.0
 20
0.0
  9
$PLIMMAX
 10
420.0
 20
297.0
  9
$UNITMODE
 70
0
  9
$VISRETAIN
 70
1
  9
$PLINEGEN
 70
0
  9
$PSLTSCALE
 70
1
  9
$TREEDEPTH
 70
3020
  9
$CMLSTYLE
  2
Standard
  9
$CMLJUST
 70
0
  9
$CMLSCALE
 40
20.0
  9
$PROXYGRAPHICS
 70
1
  9
$MEASUREMENT
 70
1
  9
$CELWEIGHT
370
-1
  9
$ENDCAPS
280
0
  9
$JOINSTYLE
280
0
  9
$LWDISPLAY
290
0
  9
$INSUNITS
 70
6
  9
$HYPERLINKBASE
  1

  9
$STYLESHEET
  1

  9
$XEDIT
290
1
  9
$CEPSNTYPE
380
0
  9
$PSTYLEMODE
290
1
  9
$FINGERPRINTGUID
  2
{18FE9CCD-387C-43D8-A9A4-095530DE2280}
  9
$VERSIONGUID
  2
{69E9C52B-2D5C-45EE-98DD-B442A23BE72F}
  9
$EXTNAMES
290
1
  9
$PSVPSCALE
 40
0.0
  9
$OLESTARTUP
290
0
  9
$SORTENTS
280
127
  9
$INDEXCTL
280
0
  9
$HIDETEXT
280
1
  9
$XCLIPFRAME
290
1
  9
$HALOGAP
280
0
  9
$OBSCOLOR
 70
257
  9
$OBSLTYPE
280
0
  9
$INTERSECTIONDISPLAY
280
0
  9
$INTERSECTIONCOLOR
 70
257
  9
$DIMASSOC
280
2
  9
$PROJECTNAME
  1

  9
$CAMERADISPLAY
290
0
  9
$LENSLENGTH
 40
50.0
  9
$CAMERAHEIGHT
 40
0.0
  9
$STEPSPERSEC
 40
24.0
  9
$STEPSIZE
 40
100.0
  9
$3DDWFPREC
 40
2.0
  9
$PSOLWIDTH
 40
0.005
  9
$PSOLHEIGHT
 40
0.08
  9
$LOFTANG1
 40
1.570796326795
  9
$LOFTANG2
 40
1.570796326795
  9
$LOFTMAG1
 40
0.0
  9
$LOFTMAG2
 40
0.0
  9
$LOFTPARAM
 70
7
  9
$LOFTNORMALS
280
1
  9
$LATITUDE
 40
37.795
  9
$LONGITUDE
 40
-122.394
  9
$NORTHDIRECTION
 40
0.0
  9
$TIMEZONE
 70
-8000
  9
$LIGHTGLYPHDISPLAY
280
1
  9
$TILEMODELIGHTSYNCH
280
1
  9
$CMATERIAL
347
20
  9
$SOLIDHIST
280
0
  9
$SHOWHIST
280
1
  9
$DWFFRAME
280
2
  9
$DGNFRAME
280
2
  9
$REALWORLDSCALE
290
1
  9
$INTERFERECOLOR
 62
256
  9
$CSHADOW
280
0
  9
$SHADOWPLANELOCATION
 40
0.0
  0
ENDSEC
  0
SECTION
  2
CLASSES
  0
CLASS
  1
ACDBDICTIONARYWDFLT
  2
AcDbDictionaryWithDefault
  3
ObjectDBX Classes
 90
0
 91
0
280
0
281
0
  0
CLASS
  1
SUN
  2
AcDbSun
  3
SCENEOE
 90
1153
 91
0
280
0
281
0
  0
CLASS
  1
VISUALSTYLE
  2
AcDbVisualStyle
  3
ObjectDBX Classes
 90
4095
 91
0
280
0
281
0
  0
CLASS
  1
MATERIAL
  2
AcDbMaterial
  3
ObjectDBX Classes
 90
1153
 91
0
280
0
281
0
  0
CLASS
  1
SCALE
  2
AcDbScale
  3
ObjectDBX Classes
 90
1153
 91
0
280
0
281
0
  0
CLASS
  1
TABLESTYLE
  2
AcDbTableStyle
  3
ObjectDBX Classes
 90
4095
 91
0
280
0
281
0
  0
CLASS
  1
MLEADERSTYLE
  2
AcDbMLeaderStyle
  3
ACDB_MLEADERSTYLE_CLASS
 90
4095
 91
0
280
0
281
0
  0
CLASS
  1
DICTIONARYVAR
  2
AcDbDictionaryVar
  3
ObjectDBX Classes
 90
0
 91
0
280
0
281
0
  0
CLASS
  1
CELLSTYLEMAP
  2
AcDbCellStyleMap
  3
ObjectDBX Classes
 90
1152
 91
0
280
0
281
0
  0
CLASS
  1
MENTALRAYRENDERSETTINGS
  2
AcDbMentalRayRenderSettings
  3
SCENEOE
 90
1024
 91
0
280
0
281
0
  0
CLASS
  1
ACDBDETAILVIEWSTYLE
  2
AcDbDetailViewStyle
  3
ObjectDBX Classes
 90
1025
 91
0
280
0
281
0
  0
CLASS
  1
ACDBSECTIONVIEWSTYLE
  2
AcDbSectionViewStyle
  3
ObjectDBX Classes
 90
1025
 91
0
280
0
281
0
  0
CLASS
  1
RASTERVARIABLES
  2
AcDbRasterVariables
  3
ISM
 90
0
 91
0
280
0
281
0
  0
CLASS
  1
ACDBPLACEHOLDER
  2
AcDbPlaceHolder
  3
ObjectDBX Classes
 90
0
 91
0
280
0
281
0
  0
CLASS
  1
LAYOUT
  2
AcDbLayout
  3
ObjectDBX Classes
 90
0
 91
0
280
0
281
0
  0
ENDSEC
  0
SECTION
  2
TABLES
  0
TABLE
  2
VPORT
  5
8
330
0
100
AcDbSymbolTable
 70
1
  0
VPORT
  5
23
330
8
100
AcDbSymbolTableRecord
100
AcDbViewportTableRecord
  2
*Active
 70
0
 10
0.0
 20
0.0
 11
1.0
 21
1.0
 12
0.0
 22
0.0
 13
0.0
 23
0.0
 14
0.5
 24
0.5
 15
0.5
 25
0.5
 16
0.0
 26
0.0
 36
1.0
 17
0.0
 27
0.0
 37
0.0
 40
1000.0
 41
1.34
 42
50.0
 43
0.0
 44
0.0
 50
0.0
 51
0.0
 71
0
 72
1000
 73
1
 74
3
 75
0
 76
0
 77
0
 78
0
281
0
 65
0
146
0.0
  0
ENDTAB
  0
TABLE
  2
LTYPE
  5
2
330
0
100
AcDbSymbolTable
 70
21
  0
LTYPE
  5
24
330
2
100
AcDbSymbolTableRecord
100
AcDbLinetypeTableRecord
  2
ByBlock
 70
0
  3

 72
65
 73
0
 40
0.0
  0
LTYPE
  5
25
330
2
100
AcDbSymbolTableRecord
100
AcDbLinetypeTableRecord
  2
ByLayer
 70
0
  3

 72
65
 73
0
 40
0.0
  0
LTYPE
  5
26
330
2
100
AcDbSymbolTableRecord
100
AcDbLinetypeTableRecord
  2
Continuous
 70
0
  3

 72
65
 73
0
 40
0.0
  0
LTYPE
  5
2F
330
2
100
AcDbSymbolTableRecord
100
AcDbLinetypeTableRecord
  2
CENTER
 70
0
  3
Center ____ _ ____ _ ____ _ ____ _ ____ _ ____
 72
65
 73
4
 40
5.08
 49
3.175
 74
0
 49
-0.635
 74
0
 49
0.635
 74
0
 49
-0.635
 74
0
  0
LTYPE
  5
30
330
2
100
AcDbSymbolTableRecord
100
AcDbLinetypeTableRecord
  2
CENTERX2
 70
0
  3
Center (2x) ________  __  ________  __  ________
 72
65
 73
4
 40
8.89
 49
6.35
 74
0
 49
-0.635
 74
0
 49
1.27
 74
0
 49
-0.635
 74
0
  0
LTYPE
  5
31
330
2
100
AcDbSymbolTableRecord
100
AcDbLinetypeTableRecord
  2
CENTER2
 70
0
  3
Center (.5x) ____ _ ____ _ ____ _ ____ _ ____
 72
65
 73
4
 40
2.54
 49
1.587
 74
0
 49
-0.318
 74
0
 49
0.318
 74
0
 49
-0.318
 74
0
  0
LTYPE
  5
32
330
2
100
AcDbSymbolTableRecord
100
AcDbLinetypeTableRecord
  2
DASHED
 70
0
  3
Dashed __ __ __ __ __ __ __ __ __ __ __ __ __ _
 72
65
 73
2
 40
1.524
 49
1.27
 74
0
 49
-0.254
 74
0
  0
LTYPE
  5
33
330
2
100
AcDbSymbolTableRecord
100
AcDbLinetypeTableRecord
  2
DASHEDX2
 70
0
  3
Dashed (2x) ____  ____  ____  ____  ____  ____
 72
65
 73
2
 40
3.048
 49
2.54
 74
0
 49
-0.508
 74
0
  0
LTYPE
  5
34
330
2
100
AcDbSymbolTableRecord
100
AcDbLinetypeTableRecord
  2
DASHED2
 70
0
  3
Dashed (.5x) _ _ _ _ _ _ _ _ _ _ _ _ _ _
 72
65
 73
2
 40
0.762
 49
0.635
 74
0
 49
-0.127
 74
0
  0
LTYPE
  5
35
330
2
100
AcDbSymbolTableRecord
100
AcDbLinetypeTableRecord
  2
PHANTOM
 70
0
  3
Phantom ______  __  __  ______  __  __  ______
 72
65
 73
6
 40
6.35
 49
3.175
 74
0
 49
-0.635
 74
0
 49
0.635
 74
0
 49
-0.635
 74
0
 49
0.635
 74
0
 49
-0.635
 74
0
  0
LTYPE
  5
36
330
2
100
AcDbSymbolTableRecord
100
AcDbLinetypeTableRecord
  2
PHANTOMX2
 70
0
  3
Phantom (2x)____________    ____    ____    ____________
 72
65
 73
6
 40
10.795
 49
6.35
 74
0
 49
-0.635
 74
0
 49
1.27
 74
0
 49
-0.635
 74
0
 49
1.27
 74
0
 49
-0.635
 74
0
  0
LTYPE
  5
37
330
2
100
AcDbSymbolTableRecord
100
AcDbLinetypeTableRecord
  2
PHANTOM2
 70
0
  3
Phantom (.5x) ___ _ _ ___ _ _ ___ _ _ ___ _ _ ___
 72
65
 73
6
 40
3.175
 49
1.587
 74
0
 49
-0.318
 74
0
 49
0.318
 74
0
 49
-0.318
 74
0
 49
0.318
 74
0
 49
-0.318
 74
0
  0
LTYPE
  5
38
330
2
100
AcDbSymbolTableRecord
100
AcDbLinetypeTableRecord
  2
DASHDOT
 70
0
  3
Dash dot __ . __ . __ . __ . __ . __ . __ . __
 72
65
 73
4
 40
3.556
 49
2.54
 74
0
 49
-0.508
 74
0
 49
0.0
 74
0
 49
-0.508
 74
0
  0
LTYPE
  5
39
330
2
100
AcDbSymbolTableRecord
100
AcDbLinetypeTableRecord
  2
DASHDOTX2
 70
0
  3
Dash dot (2x) ____  .  ____  .  ____  .  ____
 72
65
 73
4
 40
6.096
 49
5.08
 74
0
 49
-0.508
 74
0
 49
0.0
 74
0
 49
-0.508
 74
0
  0
LTYPE
  5
3A
330
2
100
AcDbSymbolTableRecord
100
AcDbLinetypeTableRecord
  2
DASHDOT2
 70
0
  3
Dash dot (.5x) _ . _ . _ . _ . _ . _ . _ . _
 72
65
 73
4
 40
1.778
 49
1.27
 74
0
 49
-0.254
 74
0
 49
0.0
 74
0
 49
-0.254
 74
0
  0
LTYPE
  5
3B
330
2
100
AcDbSymbolTableRecord
100
AcDbLinetypeTableRecord
  2
DOT
 70
0
  3
Dot .  .  .  .  .  .  .  .  .  .  .  .  .  .  .  .
 72
65
 73
2
 40
0.508
 49
0.0
 74
0
 49
-0.508
 74
0
  0
LTYPE
  5
3C
330
2
100
AcDbSymbolTableRecord
100
AcDbLinetypeTableRecord
  2
DOTX2
 70
0
  3
Dot (2x) .    .    .    .    .    .    .    . 
 72
65
 73
2
 40
1.016
 49
0.0
 74
0
 49
-1.016
 74
0
  0
LTYPE
  5
3D
330
2
100
AcDbSymbolTableRecord
100
AcDbLinetypeTableRecord
  2
DOT2
 70
0
  3
Dot (.5) . . . . . . . . . . . . . . . . . . . 
 72
65
 73
2
 40
0.254
 49
0.0
 74
0
 49
-0.254
 74
0
  0
LTYPE
  5
3E
330
2
100
AcDbSymbolTableRecord
100
AcDbLinetypeTableRecord
  2
DIVIDE
 70
0
  3
Divide __ . . __ . . __ . . __ . . __ . . __
 72
65
 73
6
 40
4.064
 49
2.54
 74
0
 49
-0.508
 74
0
 49
0.0
 74
0
 49
-0.508
 74
0
 49
0.0
 74
0
 49
-0.508
 74
0
  0
LTYPE
  5
3F
330
2
100
AcDbSymbolTableRecord
100
AcDbLinetypeTableRecord
  2
DIVIDEX2
 70
0
  3
Divide (2x) ____  . .  ____  . .  ____  . .  ____
 72
65
 73
6
 40
6.604
 49
5.08
 74
0
 49
-0.508
 74
0
 49
0.0
 74
0
 49
-0.508
 74
0
 49
0.0
 74
0
 49
-0.508
 74
0
  0
LTYPE
  5
40
330
2
100
AcDbSymbolTableRecord
100
AcDbLinetypeTableRecord
  2
DIVIDE2
 70
0
  3
Divide(.5x) _ . _ . _ . _ . _ . _ . _ . _
 72
65
 73
6
 40
2.032
 49
1.27
 74
0
 49
-0.254
 74
0
 49
0.0
 74
0
 49
-0.254
 74
0
 49
0.0
 74
0
 49
-0.254
 74
0
  0
ENDTAB
  0
TABLE
  2
LAYER
  5
1
330
0
100
AcDbSymbolTable
 70
4
  0
LAYER
  5
27
330
1
100
AcDbSymbolTableRecord
100
AcDbLayerTableRecord
  2
0
 70
0
 62
7
  6
Continuous
370
-3
390
13
347
21
  0
LAYER
  5
28
330
1
100
AcDbSymbolTableRecord
100
AcDbLayerTableRecord
  2
Defpoints
 70
0
 62
7
  6
Continuous
290
0
370
-3
390
13
347
21
  0
LAYER
  5
8A
330
1
100
AcDbSymbolTableRecord
100
AcDbLayerTableRecord
  2
Layer
 70
0
 62
1
  6
Continuous
370
50
390
13
347
21
  0
LAYER
  5
8B
330
1
100
AcDbSymbolTableRecord
100
AcDbLayerTableRecord
  2
NumLabel
 70
0
 62
1
  6
Continuous
370
15
390
13
347
21
  0
ENDTAB
  0
TABLE
  2
STYLE
  5
5
330
0
100
AcDbSymbolTable
 70
26
  0
STYLE
  5
29
330
5
100
AcDbSymbolTableRecord
100
AcDbTextStyleTableRecord
  2
Standard
 70
0
 40
0.0
 41
1.0
 50
0.0
 71
0
 42
2.5
  3
txt
  4

  0
STYLE
  5
41
330
5
100
AcDbSymbolTableRecord
100
AcDbTextStyleTableRecord
  2
OpenSans-Light
 70
0
 40
0.0
 41
1.0
 50
0.0
 71
0
 42
2.5
  3
OpenSans-Light.ttf
  4

  0
STYLE
  5
42
330
5
100
AcDbSymbolTableRecord
100
AcDbTextStyleTableRecord
  2
OpenSans-Light-Italic
 70
0
 40
0.0
 41
1.0
 50
0.0
 71
0
 42
2.5
  3
OpenSans-LightItalic.ttf
  4

  0
STYLE
  5
43
330
5
100
AcDbSymbolTableRecord
100
AcDbTextStyleTableRecord
  2
OpenSans
 70
0
 40
0.0
 41
1.0
 50
0.0
 71
0
 42
2.5
  3
OpenSans-Regular.ttf
  4

  0
STYLE
  5
44
330
5
100
AcDbSymbolTableRecord
100
AcDbTextStyleTableRecord
  2
OpenSans-Italic
 70
0
 40
0.0
 41
1.0
 50
0.0
 71
0
 42
2.5
  3
OpenSans-Italic.ttf
  4

  0
STYLE
  5
45
330
5
100
AcDbSymbolTableRecord
100
AcDbTextStyleTableRecord
  2
OpenSans-SemiBold
 70
0
 40
0.0
 41
1.0
 50
0.0
 71
0
 42
2.5
  3
OpenSans-SemiBold.ttf
  4

  0
STYLE
  5
46
330
5
100
AcDbSymbolTableRecord
100
AcDbTextStyleTableRecord
  2
OpenSans-SemiBoldItalic
 70
0
 40
0.0
 41
1.0
 50
0.0
 71
0
 42
2.5
  3
OpenSans-SemiBoldItalic.ttf
  4

  0
STYLE
  5
47
330
5
100
AcDbSymbolTableRecord
100
AcDbTextStyleTableRecord
  2
OpenSans-Bold
 70
0
 40
0.0
 41
1.0
 50
0.0
 71
0
 42
2.5
  3
OpenSans-Bold.ttf
  4

  0
STYLE
  5
48
330
5
100
AcDbSymbolTableRecord
100
AcDbTextStyleTableRecord
  2
OpenSans-BoldItalic
 70
0
 40
0.0
 41
1.0
 50
0.0
 71
0
 42
2.5
  3
OpenSans-BoldItalic.ttf
  4

  0
STYLE
  5
49
330
5
100
AcDbSymbolTableRecord
100
AcDbTextStyleTableRecord
  2
OpenSans-ExtraBold
 70
0
 40
0.0
 41
1.0
 50
0.0
 71
0
 42
2.5
  3
OpenSans-ExtraBold.ttf
  4

  0
STYLE
  5
4A
330
5
100
AcDbSymbolTableRecord
100
AcDbTextStyleTableRecord
  2
OpenSans-ExtraBoldItalic
 70
0
 40
0.0
 41
1.0
 50
0.0
 71
0
 42
2.5
  3
OpenSans-ExtraBoldItalic.ttf
  4

  0
STYLE
  5
4B
330
5
100
AcDbSymbolTableRecord
100
AcDbTextStyleTableRecord
  2
OpenSansCondensed-Bold
 70
0
 40
0.0
 41
1.0
 50
0.0
 71
0
 42
2.5
  3
OpenSansCondensed-Bold.ttf
  4

  0
STYLE
  5
4C
330
5
100
AcDbSymbolTableRecord
100
AcDbTextStyleTableRecord
  2
OpenSansCondensed-Light
 70
0
 40
0.0
 41
1.0
 50
0.0
 71
0
 42
2.5
  3
OpenSansCondensed-Light.ttf
  4

  0
STYLE
  5
4D
330
5
100
AcDbSymbolTableRecord
100
AcDbTextStyleTableRecord
  2
OpenSansCondensed-Italic
 70
0
 40
0.0
 41
1.0
 50
0.0
 71
0
 42
2.5
  3
OpenSansCondensed-LightItalic.ttf
  4

  0
STYLE
  5
4E
330
5
100
AcDbSymbolTableRecord
100
AcDbTextStyleTableRecord
  2
LiberationSans
 70
0
 40
0.0
 41
1.0
 50
0.0
 71
0
 42
2.5
  3
LiberationSans-Regular.ttf
  4

  0
STYLE
  5
4F
330
5
100
AcDbSymbolTableRecord
100
AcDbTextStyleTableRecord
  2
LiberationSans-Bold
 70
0
 40
0.0
 41
1.0
 50
0.0
 71
0
 42
2.5
  3
LiberationSans-Bold.ttf
  4

  0
STYLE
  5
50
330
5
100
AcDbSymbolTableRecord
100
AcDbTextStyleTableRecord
  2
LiberationSans-BoldItalic
 70
0
 40
0.0
 41
1.0
 50
0.0
 71
0
 42
2.5
  3
LiberationSans-BoldItalic.ttf
  4

  0
STYLE
  5
51
330
5
100
AcDbSymbolTableRecord
100
AcDbTextStyleTableRecord
  2
LiberationSans-Italic
 70
0
 40
0.0
 41
1.0
 50
0.0
 71
0
 42
2.5
  3
LiberationSans-Italic.ttf
  4

  0
STYLE
  5
52
330
5
100
AcDbSymbolTableRecord
100
AcDbTextStyleTableRecord
  2
LiberationSerif
 70
0
 40
0.0
 41
1.0
 50
0.0
 71
0
 42
2.5
  3
LiberationSerif-Regular.ttf
  4

  0
STYLE
  5
53
330
5
100
AcDbSymbolTableRecord
100
AcDbTextStyleTableRecord
  2
LiberationSerif-Bold
 70
0
 40
0.0
 41
1.0
 50
0.0
 71
0
 42
2.5
  3
LiberationSerif-Bold.ttf
  4

  0
STYLE
  5
54
330
5
100
AcDbSymbolTableRecord
100
AcDbTextStyleTableRecord
  2
LiberationSerif-BoldItalic
 70
0
 40
0.0
 41
1.0
 50
0.0
 71
0
 42
2.5
  3
LiberationSerif-BoldItalic.ttf
  4

  0
STYLE
  5
55
330
5
100
AcDbSymbolTableRecord
100
AcDbTextStyleTableRecord
  2
LiberationSerif-Italic
 70
0
 40
0.0
 41
1.0
 50
0.0
 71
0
 42
2.5
  3
LiberationSerif-Italic.ttf
  4

  0
STYLE
  5
56
330
5
100
AcDbSymbolTableRecord
100
AcDbTextStyleTableRecord
  2
LiberationMono
 70
0
 40
0.0
 41
1.0
 50
0.0
 71
0
 42
2.5
  3
LiberationMono-Regular.ttf
  4

  0
STYLE
  5
57
330
5
100
AcDbSymbolTableRecord
100
AcDbTextStyleTableRecord
  2
LiberationMono-Bold
 70
0
 40
0.0
 41
1.0
 50
0.0
 71
0
 42
2.5
  3
LiberationMono-Bold.ttf
  4

  0
STYLE
  5
58
330
5
100
AcDbSymbolTableRecord
100
AcDbTextStyleTableRecord
  2
LiberationMono-BoldItalic
 70
0
 40
0.0
 41
1.0
 50
0.0
 71
0
 42
2.5
  3
LiberationMono-BoldItalic.ttf
  4

  0
STYLE
  5
59
330
5
100
AcDbSymbolTableRecord
100
AcDbTextStyleTableRecord
  2
LiberationMono-Italic
 70
0
 40
0.0
 41
1.0
 50
0.0
 71
0
 42
2.5
  3
LiberationMono-Italic.ttf
  4

  0
ENDTAB
  0
TABLE
  2
VIEW
  5
7
330
0
100
AcDbSymbolTable
 70
0
  0
ENDTAB
  0
TABLE
  2
UCS
  5
6
330
0
100
AcDbSymbolTable
 70
0
  0
ENDTAB
  0
TABLE
  2
APPID
  5
3
330
0
100
AcDbSymbolTable
 70
3
  0
APPID
  5
2A
330
3
100
AcDbSymbolTableRecord
100
AcDbRegAppTableRecord
  2
ACAD
 70
0
  0
APPID
  5
B6
330
3
100
AcDbSymbolTableRecord
100
AcDbRegAppTableRecord
  2
HATCHBACKGROUNDCOLOR
 70
0
  0
APPID
  5
B7
330
3
100
AcDbSymbolTableRecord
100
AcDbRegAppTableRecord
  2
EZDXF
 70
0
  0
ENDTAB
  0
TABLE
  2
DIMSTYLE
  5
4
330
0
100
AcDbSymbolTable
 70
12
100
AcDbDimStyleTable
  0
DIMSTYLE
105
2B
330
4
100
AcDbSymbolTableRecord
100
AcDbDimStyleTableRecord
  2
Standard
 70
0
 40
1.0
 41
2.5
 42
0.625
 43
3.75
 44
1.25
 45
0.0
 46
0.0
 47
0.0
 48
0.0
 49
2.5
140
2.5
141
2.5
142
0.0
143
0.03937007874
144
1.0
145
0.0
146
1.0
147
0.625
148
0.0
 69
0
 70
0
 71
0
 72
0
 73
0
 74
0
 75
0
 76
0
 77
1
 78
8
 79
3
170
0
171
3
172
1
173
0
174
0
175
0
176
0
177
0
178
0
179
2
271
2
272
2
273
2
274
3
275
0
276
0
277
2
278
44
279
0
280
0
281
0
282
0
283
0
284
8
285
0
286
0
288
0
289
3
290
0
371
-2
372
-2
  0
DIMSTYLE
105
73
330
4
100
AcDbSymbolTableRecord
100
AcDbDimStyleTableRecord
  2
EZDXF
 70
0
 40
1.0
 41
0.175
 42
0.125
 43
3.75
 44
0.375
 45
0.0
 46
0.0
 47
0.0
 48
0.0
 49
2.5
140
0.25
141
2.5
142
0.0
143
0.03937007874
144
100.0
145
0.0
146
0.5
147
0.1
148
0.0
 69
0
 70
0
 71
0
 72
0
 73
0
 74
0
 75
0
 76
0
 77
1
 78
12
 79
3
170
0
171
3
172
1
173
0
174
0
175
0
176
0
177
0
178
0
179
2
271
2
272
2
273
2
274
3
275
0
276
0
277
2
278
46
279
2
280
0
281
0
282
0
283
0
284
8
285
0
286
0
288
1
289
3
290
0
340
4C
342
74
371
-2
372
-2
  0
DIMSTYLE
105
7C
330
4
100
AcDbSymbolTableRecord
100
AcDbDimStyleTableRecord
  2
EZ_M_100_H25_CM
 70
0
 40
1.0
 41
0.25
 42
0.125
 43
3.75
 44
0.375
 45
0.0
 46
0.0
 47
0.0
 48
0.0
 49
2.5
140
0.25
141
2.5
142
0.125
143
0.03937007874
144
100.0
145
0.0
146
0.5
147
0.1
148
0.0
 69
0
 70
0
 71
0
 72
0
 73
0
 74
0
 75
0
 76
0
 77
1
 78
12
 79
3
170
0
171
3
172
1
173
0
174
0
175
0
176
0
177
0
178
0
179
2
271
2
272
2
273
2
274
3
275
0
276
0
277
2
278
46
279
2
280
0
281
0
282
0
283
0
284
8
285
0
286
0
288
1
289
3
290
0
340
4C
371
-2
372
-2
  0
DIMSTYLE
105
7D
330
4
100
AcDbSymbolTableRecord
100
AcDbDimStyleTableRecord
  2
EZ_M_50_H25_CM
 70
0
 40
1.0
 41
0.125
 42
0.0625
 43
3.75
 44
0.1875
 45
0.0
 46
0.0
 47
0.0
 48
0.0
 49
2.5
140
0.125
141
2.5
142
0.0625
143
0.03937007874
144
100.0
145
0.0
146
0.5
147
0.05
148
0.0
 69
0
 70
0
 71
0
 72
0
 73
0
 74
0
 75
0
 76
0
 77
1
 78
12
 79
3
170
0
171
3
172
1
173
0
174
0
175
0
176
0
177
0
178
0
179
2
271
2
272
2
273
2
274
3
275
0
276
0
277
2
278
46
279
2
280
0
281
0
282
0
283
0
284
8
285
0
286
0
288
1
289
3
290
0
340
4C
371
-2
372
-2
  0
DIMSTYLE
105
7E
330
4
100
AcDbSymbolTableRecord
100
AcDbDimStyleTableRecord
  2
EZ_M_25_H25_CM
 70
0
 40
1.0
 41
0.0625
 42
0.03125
 43
3.75
 44
0.09375
 45
0.0
 46
0.0
 47
0.0
 48
0.0
 49
2.5
140
0.0625
141
2.5
142
0.03125
143
0.03937007874
144
100.0
145
0.0
146
0.5
147
0.025
148
0.0
 69
0
 70
0
 71
0
 72
0
 73
0
 74
0
 75
0
 76
0
 77
1
 78
12
 79
3
170
0
171
3
172
1
173
0
174
0
175
0
176
0
177
0
178
0
179
2
271
2
272
2
273
2
274
3
275
0
276
0
277
2
278
46
279
2
280
0
281
0
282
0
283
0
284
8
285
0
286
0
288
1
289
3
290
0
340
4C
371
-2
372
-2
  0
DIMSTYLE
105
7F
330
4
100
AcDbSymbolTableRecord
100
AcDbDimStyleTableRecord
  2
EZ_M_20_H25_CM
 70
0
 40
1.0
 41
0.05
 42
0.025
 43
3.75
 44
0.07500000000000001
 45
0.0
 46
0.0
 47
0.0
 48
0.0
 49
2.5
140
0.05
141
2.5
142
0.025
143
0.03937007874
144
100.0
145
0.0
146
0.5
147
0.020000000000000004
148
0.0
 69
0
 70
0
 71
0
 72
0
 73
0
 74
0
 75
0
 76
0
 77
1
 78
12
 79
3
170
0
171
3
172
1
173
0
174
0
175
0
176
0
177
0
178
0
179
2
271
2
272
2
273
2
274
3
275
0
276
0
277
2
278
46
279
2
280
0
281
0
282
0
283
0
284
8
285
0
286
0
288
1
289
3
290
0
340
4C
371
-2
372
-2
  0
DIMSTYLE
105
80
330
4
100
AcDbSymbolTableRecord
100
AcDbDimStyleTableRecord
  2
EZ_M_10_H25_CM
 70
0
 40
1.0
 41
0.025
 42
0.0125
 43
3.75
 44
0.037500000000000006
 45
0.0
 46
0.0
 47
0.0
 48
0.0
 49
2.5
140
0.025
141
2.5
142
0.0125
143
0.03937007874
144
100.0
145
0.0
146
0.5
147
0.010000000000000002
148
0.0
 69
0
 70
0
 71
0
 72
0
 73
0
 74
0
 75
0
 76
0
 77
1
 78
12
 79
3
170
0
171
3
172
1
173
0
174
0
175
0
176
0
177
0
178
0
179
2
271
2
272
2
273
2
274
3
275
0
276
0
277
2
278
46
279
2
280
0
281
0
282
0
283
0
284
8
285
0
286
0
288
1
289
3
290
0
340
4C
371
-2
372
-2
  0
DIMSTYLE
105
81
330
4
100
AcDbSymbolTableRecord
100
AcDbDimStyleTableRecord
  2
EZ_M_5_H25_CM
 70
0
 40
1.0
 41
0.0125
 42
0.00625
 43
3.75
 44
0.018750000000000003
 45
0.0
 46
0.0
 47
0.0
 48
0.0
 49
2.5
140
0.0125
141
2.5
142
0.00625
143
0.03937007874
144
100.0
145
0.0
146
0.5
147
0.005000000000000001
148
0.0
 69
0
 70
0
 71
0
 72
0
 73
0
 74
0
 75
0
 76
0
 77
1
 78
12
 79
3
170
0
171
3
172
1
173
0
174
0
175
0
176
0
177
0
178
0
179
2
271
2
272
2
273
2
274
3
275
0
276
0
277
2
278
46
279
2
280
0
281
0
282
0
283
0
284
8
285
0
286
0
288
1
289
3
290
0
340
4C
371
-2
372
-2
  0
DIMSTYLE
105
82
330
4
100
AcDbSymbolTableRecord
100
AcDbDimStyleTableRecord
  2
EZ_M_1_H25_CM
 70
0
 40
1.0
 41
0.0025
 42
0.00125
 43
3.75
 44
0.00375
 45
0.0
 46
0.0
 47
0.0
 48
0.0
 49
2.5
140
0.0025
141
2.5
142
0.00125
143
0.03937007874
144
100.0
145
0.0
146
0.5
147
0.001
148
0.0
 69
0
 70
0
 71
0
 72
0
 73
0
 74
0
 75
0
 76
0
 77
1
 78
12
 79
3
170
0
171
3
172
1
173
0
174
0
175
0
176
0
177
0
178
0
179
2
271
2
272
2
273
2
274
3
275
0
276
0
277
2
278
46
279
2
280
0
281
0
282
0
283
0
284
8
285
0
286
0
288
1
289
3
290
0
340
4C
371
-2
372
-2
  0
DIMSTYLE
105
83
330
4
100
AcDbSymbolTableRecord
100
AcDbDimStyleTableRecord
  2
EZ_RADIUS
 70
0
 40
1.0
 41
0.25
 42
0.125
 43
3.75
 44
0.375
 45
0.0
 46
0.0
 47
0.0
 48
0.0
 49
2.5
140
0.25
141
0.0
142
0.0
143
0.03937007874
144
100.0
145
0.0
146
0.5
147
0.1
148
0.0
 69
0
 70
0
 71
0
 72
0
 73
0
 74
0
 75
0
 76
0
 77
1
 78
12
 79
3
170
0
171
3
172
0
173
0
174
0
175
0
176
0
177
0
178
0
179
2
271
2
272
2
273
2
274
3
275
0
276
0
277
2
278
46
279
1
280
0
281
0
282
0
283
0
284
8
285
0
286
0
288
1
289
3
290
0
340
4C
342
84
371
-2
372
-2
  0
DIMSTYLE
105
88
330
4
100
AcDbSymbolTableRecord
100
AcDbDimStyleTableRecord
  2
EZ_RADIUS_INSIDE
 70
0
 40
1.0
 41
0.25
 42
0.125
 43
3.75
 44
0.375
 45
0.0
 46
0.0
 47
0.0
 48
0.0
 49
2.5
140
0.25
141
0.0
142
0.0
143
0.03937007874
144
100.0
145
0.0
146
0.5
147
0.1
148
0.0
 69
0
 70
0
 71
0
 72
0
 73
0
 74
0
 75
0
 76
0
 77
0
 78
12
 79
3
170
0
171
3
172
0
173
0
174
1
175
0
176
0
177
0
178
0
179
2
271
2
272
2
273
2
274
3
275
0
276
0
277
2
278
46
279
0
280
0
281
0
282
0
283
0
284
8
285
0
286
0
288
1
289
0
290
0
340
4C
342
84
371
-2
372
-2
  0
DIMSTYLE
105
89
330
4
100
AcDbSymbolTableRecord
100
AcDbDimStyleTableRecord
  2
EZ_CURVED
 70
0
 40
1.0
 41
0.25
 42
0.125
 43
3.75
 44
0.375
 45
0.0
 46
0.0
 47
0.0
 48
0.0
 49
2.5
140
0.25
141
2.5
142
0.0
143
0.03937007874
144
100.0
145
0.0
146
0.5
147
0.1
148
0.0
 69
0
 70
0
 71
0
 72
0
 73
0
 74
0
 75
0
 76
0
 77
1
 78
12
 79
2
 90
2
170
0
171
3
172
1
173
0
174
0
175
0
176
0
177
0
178
0
179
2
271
2
272
2
273
2
274
3
275
0
276
0
277
2
278
46
279
2
280
0
281
0
282
0
283
0
284
8
285
0
286
0
288
1
289
3
290
0
340
4C
371
-2
372
-2
  0
ENDTAB
  0
TABLE
  2
BLOCK_RECORD
  5
9
330
0
100
AcDbSymbolTable
 70
5
  0
BLOCK_RECORD
  5
17
330
9
100
AcDbSymbolTableRecord
100
AcDbBlockTableRecord
  2
*Model_Space
340
1A
 70
0
280
1
281
0
  0
BLOCK_RECORD
  5
1B
330
9
100
AcDbSymbolTableRecord
100
AcDbBlockTableRecord
  2
*Paper_Space
340
1E
 70
0
280
1
281
0
  0
BLOCK_RECORD
  5
74
330
9
100
AcDbSymbolTableRecord
100
AcDbBlockTableRecord
  2
_ARCHTICK
340
0
 70
0
280
1
281
0
  0
BLOCK_RECORD
  5
78
330
9
100
AcDbSymbolTableRecord
100
AcDbBlockTableRecord
  2
_CLOSEDFILLED
340
0
 70
0
280
1
281
0
  0
BLOCK_RECORD
  5
84
330
9
100
AcDbSymbolTableRecord
100
AcDbBlockTableRecord
  2
_CLOSEDBLANK
340
0
 70
0
280
1
281
0
  0
ENDTAB
  0
ENDSEC
  0
SECTION
  2
BLOCKS
  0
BLOCK
  5
18
330
17
100
AcDbEntity
  8
0
100
AcDbBlockBegin
  2
*Model_Space
 70
0
 10
0.0
 20
0.0
 30
0.0
  3
*Model_Space
  1

  0
ENDBLK
  5
19
330
17
100
AcDbEntity
  8
0
100
AcDbBlockEnd
  0
BLOCK
  5
1C
330
1B
100
AcDbEntity
  8
0
100
AcDbBlockBegin
  2
*Paper_Space
 70
0
 10
0.0
 20
0.0
 30
0.0
  3
*Paper_Space
  1

  0
ENDBLK
  5
1D
330
1B
100
AcDbEntity
  8
0
100
AcDbBlockEnd
  0
BLOCK
  5
75
330
74
100
AcDbEntity
  8
0
100
AcDbBlockBegin
  2
_ARCHTICK
 70
0
 10
0.0
 20
0.0
 30
0.0
  3
_ARCHTICK
  1

  0
LWPOLYLINE
  5
77
330
74
100
AcDbEntity
  8
0
  6
BYBLOCK
 62
0
100
AcDbPolyline
 90
2
 70
0
 43
0.15
 10
-0.5
 20
-0.5
 10
0.5
 20
0.5
  0
ENDBLK
  5
76
330
74
100
AcDbEntity
  8
0
100
AcDbBlockEnd
  0
BLOCK
  5
79
330
78
100
AcDbEntity
  8
0
100
AcDbBlockBegin
  2
_CLOSEDFILLED
 70
0
 10
0.0
 20
0.0
 30
0.0
  3
_CLOSEDFILLED
  1

  0
SOLID
  5
7B
330
78
100
AcDbEntity
  8
0
  6
BYBLOCK
 62
0
100
AcDbTrace
 10
-1.0
 20
0.16439898372402537
 30
0.0
 11
0.0
 21
0.0
 31
0.0
 12
-1.0
 22
-0.16439898372402537
 32
0.0
 13
-1.0
 23
-0.16439898372402537
 33
0.0
  0
ENDBLK
  5
7A
330
78
100
AcDbEntity
  8
0
100
AcDbBlockEnd
  0
BLOCK
  5
85
330
84
100
AcDbEntity
  8
0
100
AcDbBlockBegin
  2
_CLOSEDBLANK
 70
0
 10
0.0
 20
0.0
 30
0.0
  3
_CLOSEDBLANK
  1

  0
LWPOLYLINE
  5
87
330
84
100
AcDbEntity
  8
0
  6
BYBLOCK
 62
0
100
AcDbPolyline
 90
3
 70
1
 10
-1.0
 20
0.16439898372402537
 10
0.0
 20
0.0
 10
-1.0
 20
-0.16439898372402537
  0
ENDBLK
  5
86
330
84
100
AcDbEntity
  8
0
100
AcDbBlockEnd
  0
ENDSEC
  0
SECTION
  2
ENTITIES
  0
LWPOLYLINE
  5
8C
330
17
100
AcDbEntity
  8
Layer
100
AcDbPolyline
 90
172
 70
1
 10
457.698921865709
 20
199.4786541861875
 10
457.698921865709
 20
199.4786541861875
 10
454.041811989188
 20
200.5768648133889
 10
448.43491047817963
 20
202.2332928417347
 10
442.83469475520224
 20
203.8567356554565
 10
437.24582608802575
 20
205.4488917595093
 10
431.6628028416154
 20
207.00575160076238
 10
426.08268801587144
 20
208.53080650403703
 10
420.5101308855186
 20
210.02230060027108
 10
414.9430098049985
 20
211.47578343619566
 10
409.3736739133767
 20
212.89088861892506
 10
403.79921834291997
 20
214.27021496367541
 10
398.21852051866716
 20
215.61562590299147
 10
392.63643557548596
 20
216.92862906576008
 10
387.0548858606002
 20
218.20491546493687
 10
381.46976422459034
 20
219.44379288117622
 10
375.8808082199257
 20
220.64411280373983
 10
370.28000445373493
 20
221.80840717705192
 10
364.6806241986414
 20
222.94095575120622
 10
359.0810902040222
 20
224.0300524778768
 10
353.46691464554453
 20
225.08019757550397
 10
347.84435197098963
 20
226.09751910186182
 10
342.22121646353224
 20
227.07996425891878
 10
336.5954017338147
 20
228.02306641857362
 10
330.9628537580157
 20
228.92695776994498
 10
325.3218184077405
 20
229.7935567681713
 10
319.67385293253255
 20
230.62474255862838
 10
314.0217948938023
 20
231.42040794664507
 10
308.3652253008604
 20
232.1777756961611
 10
302.69707799952175
 20
232.8979492499467
 10
297.0243910352045
 20
233.58559980949136
 10
291.3509497165176
 20
234.23675083573502
 10
285.67415509198395
 20
234.8504195117282
 10
279.99531031534696
 20
235.42646201613576
 10
274.3126002445909
 20
235.9633951697354
 10
268.62257808731044
 20
236.4649355611039
 10
262.9390801367431
 20
236.9333194270647
 10
257.2572463618859
 20
237.35925034778296
 10
251.57298003051096
 20
237.74914509773708
 10
245.89775028007344
 20
238.10167459358814
 10
240.22652770797205
 20
238.4119703047437
 10
234.55640518342767
 20
238.68222941034236
 10
228.8929356452907
 20
238.9139007324843
 10
223.2358191304283
 20
239.1039775762709
 10
217.58386299196553
 20
239.25372438808728
 10
211.94223411268493
 20
239.3644398214625
 10
206.3156382835576
 20
239.43287950787317
 10
200.70101249836176
 20
239.4541835253396
 10
195.0905943776412
 20
239.43154805499597
 10
189.50047197835377
 20
239.36931312792632
 10
183.92331895965526
 20
239.2555198344007
 10
178.35680556477922
 20
239.10049559811947
 10
172.81437086799966
 20
238.9000215455299
 10
167.29012704517558
 20
238.6517628230604
 10
161.79284187493897
 20
238.35636979203758
 10
156.3176480906837
 20
238.008161776475
 10
150.86536188682487
 20
237.6099710582065
 10
145.4374948917932
 20
237.161560471845
 10
140.04141374812457
 20
236.66562628979207
 10
134.68091539844858
 20
236.11635138599908
 10
129.352748457799
 20
235.51391093168252
 10
124.06331940285331
 20
234.8611380226589
 10
118.81901095593724
 20
234.15969535714453
 10
113.63353656790301
 20
233.41017608708194
 10
108.51082805747527
 20
232.60569357355973
 10
103.44771848482887
 20
231.74571210303424
 10
98.45725025288522
 20
230.8381938795685
 10
93.54448630124605
 20
229.877661663674
 10
88.71307906994127
 20
228.86753600898606
 10
83.96645599775229
 20
227.81060715989372
 10
79.31719860690575
 20
226.7170765425315
 10
74.78133399388187
 20
225.5859630953911
 10
70.36023553103311
 20
224.4152489372096
 10
66.05910196965718
 20
223.20599343937388
 10
61.8753136772099
 20
221.9574629693847
 10
57.81489481943504
 20
220.67225045731794
 10
53.868568929184875
 20
219.34730720529592
 10
50.05375194713744
 20
217.99764453753397
 10
46.37035288795201
 20
216.60453637255748
 10
42.81959329327546
 20
215.17824773383094
 10
39.417886694302155
 20
213.71727492640633
 10
36.17053975557383
 20
212.2223477589568
 10
33.10317273417331
 20
210.7044336828004
 10
30.242504884600493
 20
209.17358584196273
 10
27.600500444796353
 20
207.6321378243435
 10
25.208157985655504
 20
206.12592827685953
 10
23.08314710370624
 20
204.66686969511662
 10
21.219575204898376
 20
203.26820606749857
 10
19.59685891845507
 20
201.93948861320578
 10
18.205067741276338
 20
200.70864395287037
 10
16.996901330896662
 20
199.5206198074685
 10
15.950212189800425
 20
198.42314912951022
 10
15.054545217477227
 20
197.4023017279771
 10
14.28307711513392
 20
196.4268743093158
 10
13.61529855057043
 20
195.49566611807472
 10
13.043369375492347
 20
194.62331593653926
 10
12.553367597544053
 20
193.78417349192608
 10
12.128556825461203
 20
192.96880071274325
 10
11.764602645734726
 20
192.2018761549617
 10
11.456149820568868
 20
191.46628032757246
 10
11.194587726043977
 20
190.75234288790313
 10
10.977405323233455
 20
190.08058042158027
 10
10.799804655956763
 20
189.42308710001478
 10
10.65671591395511
 20
188.79658707048318
 10
10.556663556927646
 20
188.29712743076465
 10
10.5137900162336
 20
187.6510693170144
 10
10.491434390288731
 20
187.05984564141647
 10
10.491595392963234
 20
186.4644374146358
 10
10.529606716385842
 20
185.8710036648237
 10
10.61960828594934
 20
185.26298117548578
 10
10.772274096736481
 20
184.63339546017977
 10
10.993292706118524
 20
183.98502168366713
 10
11.29069563932623
 20
183.31875099345334
 10
11.675306018169408
 20
182.63302793442898
 10
12.155576446661144
 20
181.928866490657
 10
12.736789359303714
 20
181.21074405234327
 10
13.428096744713542
 20
180.4828819379743
 10
14.245033996574563
 20
179.74806477823012
 10
15.213398471634832
 20
179.0047088420911
 10
16.36054567410565
 20
178.24666908213592
 10
17.694429974684937
 20
177.4705451213334
 10
19.224613529044007
 20
176.6834140853837
 10
21.000355133599413
 20
175.89716911142378
 10
23.064209070467996
 20
175.11045024386345
 10
25.413657669462765
 20
174.31440289345522
 10
28.01217785923535
 20
173.52075719093153
 10
30.85259089502526
 20
172.7641504976291
 10
33.913853243419396
 20
172.0413451984026
 10
37.12596614627222
 20
171.35420185191734
 10
40.46549017106153
 20
170.72070226840984
 10
43.933679091368816
 20
170.14125173555703
 10
47.53623914480451
 20
169.59348547844766
 10
51.22781682255007
 20
169.0542296238752
 10
54.95984312215472
 20
168.53787672784847
 10
58.76887319465956
 20
168.07437362807207
 10
62.705810373544864
 20
167.64278215346917
 10
66.74268657413691
 20
167.2109486369992
 10
70.86488295250547
 20
166.78678472553452
 10
75.07890230248637
 20
166.38051193691803
 10
79.400782790258
 20
165.99959545346377
 10
83.85525248580015
 20
165.64241454792554
 10
88.45266413562501
 20
165.300130445315
 10
93.1940797492635
 20
164.96937830569317
 10
98.0769446723443
 20
164.64769380370325
 10
103.08431597579585
 20
164.3378608806911
 10
108.21802846349624
 20
164.04996602815962
 10
113.46730846673013
 20
163.7746372080518
 10
118.8390283302052
 20
163.53057682232043
 10
124.32840820298149
 20
163.30606884239296
 10
127.25183008407156
 20
163.19497395047676
 10
127.19486870252258
 20
161.69605587365868
 10
129.86403584656054
 20
161.59462308447036
 10
135.53897847348154
 20
161.40106331906492
 10
141.28323621913543
 20
161.22464736211427
 10
147.08323387630037
 20
161.06504017277962
 10
152.93108528003648
 20
160.92377610220865
 10
158.8254704675393
 20
160.80070980924174
 10
164.76199024811444
 20
160.69129539341196
 10
170.72586646359787
 20
160.59113821922512
 10
176.70299281929454
 20
160.5006075618363
 10
182.69234042691795
 20
160.42235660788913
 10
188.7019815344495
 20
160.3552930437008
 10
194.73595544471127
 20
160.29527853763489
 10
200.78801609916633
 20
160.23994859532175
 10
206.84954745637373
 20
160.18858206550223
 10
212.91481865427951
 20
160.14099479684842
 10
218.9766607193593
 20
160.09816263570147
 10
225.03879393581565
 20
160.06431845831082
 10
231.11158010417813
 20
160.03970688729257
 10
237.198138042359
 20
160.02062953768066
 10
246.67916908458852
 20
159.9997492800952
 10
457.698921865709
 20
199.4786541861875
  0
LWPOLYLINE
  5
8D
330
17
100
AcDbEntity
  8
Layer
100
AcDbPolyline
 90
5
 70
0
 10
399.8564516607301
 20
211.10613557546287
 10
395.9678563223418
 20
212.04359293143403
 10
396.905313678313
 20
215.93218826982235
 10
400.7939090167013
 20
214.99473091385119
 10
399.8564516607301
 20
211.10613557546287
  0
LWPOLYLINE
  5
8E
330
17
100
AcDbEntity
  8
Layer
100
AcDbPolyline
 90
5
 70
0
 10
175.46583020150356
 20
234.9932795396115
 10
171.46844578287497
 20
234.84864963362563
 10
171.32381587688909
 20
238.84603405225423
 10
175.32120029551768
 20
238.9906639582401
 10
175.46583020150356
 20
234.9932795396115
  0
LWPOLYLINE
  5
8F
330
17
100
AcDbEntity
  8
Layer
100
AcDbPolyline
 90
5
 70
0
 10
74.2028082785046
 20
221.29483940058003
 10
70.33611787071301
 20
220.2707762725003
 10
69.3120547426333
 20
224.13746668029194
 10
73.17874515042489
 20
225.16152980837165
 10
74.2028082785046
 20
221.29483940058003
  0
LWPOLYLINE
  5
90
330
17
100
AcDbEntity
  8
Layer
100
AcDbPolyline
 90
5
 70
0
 10
23.709742043255577
 20
198.84427365240126
 10
22.162987809221182
 20
197.5763811729312
 10
18.993256610546094
 20
201.4432667580172
 10
20.54001084458049
 20
202.71115923748724
 10
23.709742043255577
 20
198.84427365240126
  0
LWPOLYLINE
  5
91
330
17
100
AcDbEntity
  8
Layer
100
AcDbPolyline
 90
5
 70
0
 10
17.195849678521004
 20
183.68581193346932
 10
18.866370567965237
 20
182.58610290016532
 10
16.11709798470522
 20
178.4098006765547
 10
14.446577095260984
 20
179.50950970985872
 10
17.195849678521004
 20
183.68581193346932
  0
LWPOLYLINE
  5
92
330
17
100
AcDbEntity
  8
Layer
100
AcDbPolyline
 90
5
 70
0
 10
95.74705943808263
 20
168.8098639305459
 10
99.73840781226312
 20
168.5469225760069
 10
99.47546645772414
 20
164.55557420182643
 10
95.48411808354365
 20
164.81851555636544
 10
95.74705943808263
 20
168.8098639305459
  0
LWPOLYLINE
  5
93
330
17
100
AcDbEntity
  8
Layer
100
AcDbPolyline
 90
300
 70
1
 10
269.0057224770641
 20
200.0
 10
268.99862669343554
 20
200.68149157433706
 10
268.97734247584793
 20
201.36268222117965
 10
268.94187922281264
 20
202.04327114591447
 10
268.892252593904
 20
202.72295781963166
 10
268.82848450284416
 20
203.4014421118301
 10
268.750603107827
 20
204.07842442294645
 10
268.65864279908413
 20
204.75360581664998
 10
268.5526441836991
 20
205.42668815184433
 10
268.43265406767654
 20
206.09737421431834
 10
268.2987254352737
 20
206.7653678479874
 10
268.1509174256045
 20
207.43037408566764
 10
267.98929530652504
 20
208.09209927932523
 10
267.81393044581324
 20
208.75025122974296
 10
267.62490027965487
 20
209.40453931554728
 10
267.42228827844986
 20
210.05467462153842
 10
267.2061839099542
 20
210.70037006626734
 10
266.9766825997734
 20
211.34134052880273
 10
266.7338856892254
 20
211.97730297463235
 10
266.4779003905909
 20
212.6079765806432
 10
266.20883973977135
 20
213.2330828591251
 10
265.9268225463759
 20
213.85234578074287
 10
265.63197334125795
 20
214.46549189642332
 10
265.32442232152624
 20
215.0722504581025
 10
265.0043052930531
 20
215.6723535382806
 10
264.67176361050673
 20
216.2655361483309
 10
264.3269441149326
 20
216.85153635551168
 10
263.96999906891295
 20
217.43009539862797
 10
263.6010860893317
 20
218.0009578022934
 10
263.2203680777753
 20
218.56387148974102
 10
262.82801314859995
 20
219.11858789413307
 10
262.4241945546972
 20
219.6648620683213
 10
262.0090906109901
 20
220.2024527930086
 10
261.5828846156946
 20
220.7311226832648
 10
261.14576476938
 20
221.25063829334897
 10
260.697924091865
 20
221.76077021979268
 10
260.2395603369856
 20
222.26129320269803
 10
259.7708759052724
 20
222.75198622520602
 10
259.2920777545766
 20
223.23263261109153
 10
258.8033773086827
 20
223.7030201204413
 10
258.30499036395014
 20
224.1629410433731
 10
257.79713699402356
 20
224.61219229175475
 10
257.2800414526545
 20
225.0505754888818
 10
256.7539320746771
 20
225.4778970570755
 10
256.2190411751822
 20
225.89396830316082
 10
255.6756049469332
 20
226.29860550178844
 10
255.1238633560701
 20
226.69162997656244
 10
254.56406003614728
 20
227.07286817893885
 10
253.99644218055175
 20
227.44215176485977
 10
253.42126043334937
 20
227.79931766908945
 10
252.83876877860774
 20
228.14420817721918
 10
252.2492244282438
 20
228.47667099530963
 10
251.65288770844623
 20
228.7965593171396
 10
251.05002194472303
 20
229.10373188903134
 10
250.440893345624
 20
229.39805307222437
 10
249.82577088519093
 20
229.67939290276968
 10
249.2049261841859
 20
229.94762714891812
 10
248.57863339015134
 20
230.20263736597775
 10
247.94716905635428
 20
230.44431094861548
 10
247.3108120196681
 20
230.67254118058065
 10
246.66984327744595
 20
230.88722728182773
 10
246.02454586344047
 20
231.08827445301813
 10
245.37520472282375
 20
231.2755939173807
 10
244.72210658636382
 20
231.44910295991326
 10
244.06553984381227
 20
231.6087249639071
 10
243.40579441655953
 20
231.7543894447788
 10
242.74316162961364
 20
231.88603208119426
 10
242.07793408295947
 20
232.0035947434711
 10
241.41040552235467
 20
232.10702551924717
 10
240.74087070961994
 20
232.1962787364036
 10
240.06962529248042
 20
232.2713149832323
 10
239.39696567401597
 20
232.332101125839
 10
238.72318888177793
 20
232.3786103227743
 10
238.0485924366302
 20
232.41082203688615
 10
237.3734742213723
 20
232.4287220443884
 10
236.69813234920272
 20
232.43230244114164
 10
236.02286503208057
 20
232.42156164614346
 10
235.34797044904352
 20
232.39650440222653
 10
234.6737466145404
 20
232.35714177396443
 10
234.0004912468363
 20
232.30349114278565
 10
233.32850163654876
 20
232.23557619929858
 10
232.6580745153724
 20
232.15342693283046
 10
231.98950592505057
 20
232.05707961818467
 10
231.32309108665183
 20
231.94657679962313
 10
230.65912427020845
 20
231.82196727207975
 10
229.9978986647752
 20
231.68330605961393
 10
229.3397062489651
 20
231.53065439111367
 10
228.68483766202013
 20
231.36407967325843
 10
228.03358207547302
 20
231.18365546075435
 10
227.38622706545715
 20
230.98946142385455
 10
226.74305848572115
 20
230.78158331317894
 10
226.10436034140392
 20
230.56011292184914
 10
225.47041466362592
 20
230.32514804495534
 10
224.84150138495212
 20
230.07679243637267
 10
224.2178982157818
 20
229.81515576294635
 10
223.59988052171926
 20
229.540353556066
 10
222.98772120198032
 20
229.25250716065023
 10
222.38169056888756
 20
228.95174368156395
 10
221.78205622850817
 20
228.63819592749277
 10
221.1890829624864
 20
228.31200235229812
 10
220.60303261112364
 20
227.9733069938801
 10
220.0241639577571
 20
227.62225941057432
 10
219.4527326144883
 20
227.25901461511114
 10
218.88899090931193
 20
226.88373300616655
 10
218.33318777469503
 20
226.49658029753436
 10
217.7855686376554
 20
226.097727444952
 10
217.24637531138777
 20
225.68735057061096
 10
216.71584588848614
 20
225.26563088538637
 10
216.1942146358087
 20
224.83275460881933
 10
215.68171189103205
 20
224.3889128868876
 10
215.17856396094078
 20
223.93430170760095
 10
214.68499302149658
 20
223.46912181445833
 10
214.20121701973176
 20
222.99357861780518
 10
213.72744957750984
 20
222.50788210413006
 10
213.26389989719624
 20
222.01224674334048
 10
212.81077266928025
 20
221.50689139405912
 10
212.36826798198973
 20
220.99203920698181
 10
211.93658123293756
 20
220.46791752634076
 10
211.51590304283962
 20
219.93475778951546
 10
211.1064191713421
 20
219.39279542483663
 10
210.70831043499524
 20
218.84226974762768
 10
210.32175262740975
 20
218.28342385452973
 10
209.94691644163143
 20
217.716504516157
 10
209.58396739476785
 20
217.14176206812988
 10
209.23306575490068
 20
216.55945030053377
 10
208.89436647031576
 20
215.96982634585254
 10
208.56801910108246
 20
215.3731505654259
 10
208.2541677530119
 20
214.76968643448143
 10
207.95295101402417
 20
214.15970042579113
 10
207.6645018929516
 20
213.54346189200464
 10
207.38894776080585
 20
212.92124294671066
 10
207.12641029453457
 20
212.29331834427924
 10
206.87700542329208
 20
211.65996535853805
 10
206.64084327724848
 20
211.02146366033594
 10
206.41802813895927
 20
210.37809519404829
 10
206.208658397317
 20
209.73014405307825
 10
206.0128265041056
 20
209.0778963544091
 10
205.83061893317617
 20
208.42164011226305
 10
205.6621161422627
 20
207.76166511092228
 10
205.50739253745414
 20
207.0982627767683
 10
205.3665164403387
 20
206.4317260495964
 10
205.23955005783506
 20
205.76234925326145
 10
205.12654945472343
 20
205.090427965713
 10
205.02756452888912
 20
204.41625888847628
 10
204.9426389892888
 20
203.74013971563718
 10
204.87181033665001
 20
203.0623690023889
 10
204.81510984691184
 20
202.38324603319836
 10
204.7725625574144
 20
201.7030706896507
 10
204.74418725584295
 20
201.02214331802986
 10
204.72999647193188
 20
200.34076459669427
 10
204.72999647193188
 20
199.65923540330573
 10
204.74418725584295
 20
198.97785668197017
 10
204.7725625574144
 20
198.29692931034933
 10
204.81510984691184
 20
197.61675396680164
 10
204.87181033665001
 20
196.93763099761108
 10
204.9426389892888
 20
196.25986028436282
 10
205.02756452888912
 20
195.58374111152372
 10
205.12654945472343
 20
194.909572034287
 10
205.23955005783503
 20
194.23765074673858
 10
205.3665164403387
 20
193.5682739504036
 10
205.50739253745414
 20
192.9017372232317
 10
205.6621161422627
 20
192.23833488907772
 10
205.83061893317617
 20
191.57835988773695
 10
206.0128265041056
 20
190.9221036455909
 10
206.208658397317
 20
190.26985594692178
 10
206.41802813895927
 20
189.62190480595171
 10
206.64084327724848
 20
188.97853633966406
 10
206.87700542329208
 20
188.34003464146195
 10
207.12641029453457
 20
187.70668165572073
 10
207.38894776080588
 20
187.07875705328934
 10
207.6645018929516
 20
186.45653810799536
 10
207.95295101402417
 20
185.84029957420887
 10
208.2541677530119
 20
185.23031356551857
 10
208.56801910108243
 20
184.6268494345741
 10
208.89436647031576
 20
184.0301736541475
 10
209.23306575490068
 20
183.4405496994662
 10
209.58396739476785
 20
182.85823793187012
 10
209.94691644163143
 20
182.283495483843
 10
210.32175262740975
 20
181.7165761454703
 10
210.70831043499524
 20
181.15773025237232
 10
211.1064191713421
 20
180.60720457516337
 10
211.51590304283962
 20
180.06524221048454
 10
211.93658123293756
 20
179.53208247365924
 10
212.36826798198973
 20
179.00796079301816
 10
212.81077266928025
 20
178.49310860594088
 10
213.2638998971962
 20
177.98775325665952
 10
213.72744957750984
 20
177.49211789586994
 10
214.20121701973176
 20
177.00642138219484
 10
214.68499302149658
 20
176.53087818554167
 10
215.17856396094078
 20
176.06569829239905
 10
215.68171189103205
 20
175.6110871131124
 10
216.1942146358087
 20
175.16724539118067
 10
216.71584588848614
 20
174.73436911461363
 10
217.24637531138777
 20
174.31264942938904
 10
217.7855686376554
 20
173.902272555048
 10
218.33318777469503
 20
173.50341970246564
 10
218.88899090931193
 20
173.11626699383348
 10
219.4527326144883
 20
172.74098538488886
 10
220.0241639577571
 20
172.37774058942568
 10
220.60303261112367
 20
172.0266930061199
 10
221.1890829624864
 20
171.68799764770188
 10
221.78205622850817
 20
171.36180407250723
 10
222.3816905688876
 20
171.04825631843605
 10
222.98772120198032
 20
170.74749283934977
 10
223.59988052171923
 20
170.459646443934
 10
224.21789821578176
 20
170.18484423705365
 10
224.84150138495212
 20
169.92320756362733
 10
225.47041466362592
 20
169.67485195504466
 10
226.10436034140392
 20
169.43988707815086
 10
226.74305848572115
 20
169.2184166868211
 10
227.38622706545712
 20
169.01053857614545
 10
228.033582075473
 20
168.81634453924565
 10
228.68483766202013
 20
168.63592032674157
 10
229.3397062489651
 20
168.46934560888633
 10
229.9978986647752
 20
168.31669394038607
 10
230.65912427020845
 20
168.17803272792025
 10
231.32309108665183
 20
168.05342320037687
 10
231.98950592505057
 20
167.94292038181533
 10
232.6580745153724
 20
167.84657306716954
 10
233.32850163654876
 20
167.76442380070142
 10
234.0004912468363
 20
167.69650885721438
 10
234.67374661454036
 20
167.64285822603557
 10
235.3479704490435
 20
167.60349559777347
 10
236.02286503208055
 20
167.57843835385654
 10
236.69813234920272
 20
167.56769755885836
 10
237.3734742213723
 20
167.57127795561158
 10
238.0485924366302
 20
167.58917796311385
 10
238.72318888177793
 20
167.6213896772257
 10
239.39696567401595
 20
167.667898874161
 10
240.06962529248042
 20
167.7286850167677
 10
240.74087070961997
 20
167.8037212635964
 10
241.4104055223547
 20
167.89297448075283
 10
242.07793408295947
 20
167.9964052565289
 10
242.74316162961364
 20
168.11396791880574
 10
243.4057944165595
 20
168.2456105552212
 10
244.06553984381227
 20
168.3912750360929
 10
244.7221065863638
 20
168.55089704008674
 10
245.37520472282372
 20
168.7244060826193
 10
246.02454586344044
 20
168.91172554698187
 10
246.66984327744595
 20
169.11277271817227
 10
247.31081201966808
 20
169.32745881941935
 10
247.94716905635428
 20
169.55568905138452
 10
248.57863339015134
 20
169.79736263402225
 10
249.2049261841859
 20
170.05237285108188
 10
249.82577088519093
 20
170.32060709723032
 10
250.44089334562403
 20
170.60194692777563
 10
251.05002194472303
 20
170.89626811096866
 10
251.65288770844626
 20
171.20344068286042
 10
252.2492244282438
 20
171.52332900469037
 10
252.83876877860774
 20
171.85579182278082
 10
253.42126043334937
 20
172.20068233091055
 10
253.99644218055172
 20
172.55784823514023
 10
254.56406003614728
 20
172.92713182106115
 10
255.1238633560701
 20
173.30837002343753
 10
255.6756049469332
 20
173.70139449821156
 10
256.2190411751822
 20
174.10603169683918
 10
256.7539320746771
 20
174.5221029429245
 10
257.2800414526545
 20
174.9494245111182
 10
257.79713699402356
 20
175.38780770824525
 10
258.30499036395014
 20
175.8370589566269
 10
258.8033773086827
 20
176.2969798795587
 10
259.2920777545766
 20
176.76736738890847
 10
259.7708759052725
 20
177.24801377479398
 10
260.2395603369856
 20
177.73870679730197
 10
260.697924091865
 20
178.23922978020732
 10
261.14576476938
 20
178.74936170665103
 10
261.5828846156946
 20
179.2688773167352
 10
262.0090906109901
 20
179.79754720699137
 10
262.4241945546972
 20
180.3351379316787
 10
262.82801314859995
 20
180.8814121058669
 10
263.2203680777753
 20
181.43612851025895
 10
263.6010860893317
 20
181.9990421977066
 10
263.96999906891295
 20
182.56990460137203
 10
264.3269441149326
 20
183.14846364448832
 10
264.67176361050673
 20
183.7344638516691
 10
265.00430529305316
 20
184.3276464617194
 10
265.32442232152624
 20
184.9277495418975
 10
265.63197334125795
 20
185.5345081035767
 10
265.9268225463759
 20
186.14765421925716
 10
266.20883973977135
 20
186.7669171408749
 10
266.4779003905909
 20
187.39202341935678
 10
266.7338856892254
 20
188.02269702536765
 10
266.9766825997734
 20
188.65865947119727
 10
267.2061839099542
 20
189.29962993373263
 10
267.42228827844986
 20
189.94532537846158
 10
267.62490027965487
 20
190.59546068445272
 10
267.81393044581324
 20
191.24974877025704
 10
267.98929530652504
 20
191.90790072067477
 10
268.1509174256045
 20
192.56962591433236
 10
268.2987254352737
 20
193.23463215201264
 10
268.43265406767654
 20
193.90262578568166
 10
268.5526441836991
 20
194.57331184815567
 10
268.65864279908413
 20
195.24639418335002
 10
268.750603107827
 20
195.92157557705355
 10
268.8284845028441
 20
196.5985578881699
 10
268.892252593904
 20
197.2770421803683
 10
268.94187922281264
 20
197.95672885408553
 10
268.97734247584793
 20
198.63731777882032
 10
268.99862669343554
 20
199.31850842566294
 10
269.0057224770641
 20
200.0
  0
LINE
  5
94
330
17
100
AcDbEntity
  8
Layer
 62
7
100
AcDbLine
 10
17.48440913842697
 20
200.00000000000003
 30
0.0
 11
455.9628077929149
 21
199.99999999999997
 31
0.0
  0
LINE
  5
95
330
17
100
AcDbEntity
  8
Layer
 62
7
100
AcDbLine
 10
103.08008886932456
 20
200.00000000000003
 30
0.0
 11
115.08008886932454
 21
200.00000000000003
 31
0.0
  0
LWPOLYLINE
  5
96
330
17
100
AcDbEntity
  8
Layer
100
AcDbPolyline
 90
5
 70
0
 10
109.08008886932454
 20
205.00000000000003
 10
114.08008886932454
 20
200.00000000000003
 10
109.08008886932454
 20
195.00000000000003
 10
104.08008886932454
 20
200.00000000000003
 10
109.08008886932454
 20
205.00000000000003
  0
LINE
  5
97
330
17
100
AcDbEntity
  8
Layer
 62
7
100
AcDbLine
 10
230.7236084656709
 20
200.0
 30
0.0
 11
242.7236084656709
 21
200.0
 31
0.0
  0
LWPOLYLINE
  5
98
330
17
100
AcDbEntity
  8
Layer
100
AcDbPolyline
 90
5
 70
0
 10
236.7236084656709
 20
205.0
 10
241.7236084656709
 20
200.0
 10
236.7236084656709
 20
195.0
 10
231.7236084656709
 20
200.0
 10
236.7236084656709
 20
205.0
  0
LINE
  5
99
330
17
100
AcDbEntity
  8
Layer
 62
7
100
AcDbLine
 10
358.3671280620173
 20
199.99999999999997
 30
0.0
 11
370.3671280620173
 21
199.99999999999997
 31
0.0
  0
LWPOLYLINE
  5
9A
330
17
100
AcDbEntity
  8
Layer
100
AcDbPolyline
 90
5
 70
0
 10
364.3671280620173
 20
204.99999999999997
 10
369.3671280620173
 20
199.99999999999997
 10
364.3671280620173
 20
194.99999999999997
 10
359.3671280620173
 20
199.99999999999997
 10
364.3671280620173
 20
204.99999999999997
  0
LINE
  5
9B
330
17
100
AcDbEntity
  8
Layer
 62
7
100
AcDbLine
 10
10.533387020824904
 20
187.94637508406953
 30
0.0
 11
310.16155582170217
 21
171.87643416942802
 31
0.0
  0
LINE
  5
9C
330
17
100
AcDbEntity
  8
Layer
 62
7
100
AcDbLine
 10
68.3620345979997
 20
184.84485444447836
 30
0.0
 11
80.34481278657495
 21
184.20218276826614
 31
0.0
  0
LWPOLYLINE
  5
9D
330
17
100
AcDbEntity
  8
Layer
100
AcDbPolyline
 90
5
 70
0
 10
74.62120355737575
 20
189.51634285161194
 10
79.34624793752701
 20
184.25573874128384
 10
74.0856438271989
 20
179.53069436113256
 10
69.36059944704763
 20
184.79129847146066
 10
74.62120355737575
 20
189.51634285161194
  0
LINE
  5
9E
330
17
100
AcDbEntity
  8
Layer
 62
7
100
AcDbLine
 10
140.0237410388132
 20
181.00142612812547
 30
0.0
 11
152.00651922738845
 21
180.35875445191323
 31
0.0
  0
LWPOLYLINE
  5
9F
330
17
100
AcDbEntity
  8
Layer
100
AcDbPolyline
 90
5
 70
0
 10
146.28290999818924
 20
185.67291453525905
 10
151.00795437834051
 20
180.41231042493095
 10
145.7473502680124
 20
175.68726604477968
 10
141.02230588786114
 20
180.94787015510778
 10
146.28290999818924
 20
185.67291453525905
  0
LINE
  5
A0
330
17
100
AcDbEntity
  8
Layer
100
AcDbLine
 10
236.8669724770642
 20
232.43274999999994
 30
0.0
 11
236.8669724770642
 21
233.43274999999994
 31
0.0
  0
LINE
  5
A1
330
17
100
AcDbEntity
  8
Layer
100
AcDbLine
 10
236.8669724770642
 20
167.56725000000006
 30
0.0
 11
236.8669724770642
 21
166.56725000000006
 31
0.0
  0
LINE
  5
A2
330
17
100
AcDbEntity
  8
Layer
100
AcDbLine
 10
269.0057224770641
 20
200.0
 30
0.0
 11
270.0057224770641
 21
200.0
 31
0.0
  0
LINE
  5
A3
330
17
100
AcDbEntity
  8
Layer
100
AcDbLine
 10
204.72822247706424
 20
200.0
 30
0.0
 11
203.72822247706424
 21
200.0
 31
0.0
  0
LINE
  5
A4
330
17
100
AcDbEntity
  8
Layer
 62
7
100
AcDbLine
 10
156.8669724770642
 20
160.84160043308185
 30
0.0
 11
156.8669724770642
 21
238.0430973718199
 31
0.0
  0
LINE
  5
A5
330
17
100
AcDbEntity
  8
Layer
 62
7
100
AcDbLine
 10
156.8669724770642
 20
183.81212436164017
 30
0.0
 11
156.8669724770642
 21
195.81212436164017
 31
0.0
  0
LWPOLYLINE
  5
A6
330
17
100
AcDbEntity
  8
Layer
100
AcDbPolyline
 90
5
 70
0
 10
151.8669724770642
 20
189.81212436164017
 10
156.8669724770642
 20
194.81212436164017
 10
161.8669724770642
 20
189.81212436164017
 10
156.8669724770642
 20
184.81212436164017
 10
151.8669724770642
 20
189.81212436164017
  0
LINE
  5
A7
330
17
100
AcDbEntity
  8
Layer
 62
7
100
AcDbLine
 10
156.8669724770642
 20
203.0725734432616
 30
0.0
 11
156.8669724770642
 21
215.0725734432616
 31
0.0
  0
LWPOLYLINE
  5
A8
330
17
100
AcDbEntity
  8
Layer
100
AcDbPolyline
 90
5
 70
0
 10
151.8669724770642
 20
209.0725734432616
 10
156.8669724770642
 20
214.0725734432616
 10
161.8669724770642
 20
209.0725734432616
 10
156.8669724770642
 20
204.0725734432616
 10
151.8669724770642
 20
209.0725734432616
  0
LINE
  5
A9
330
17
100
AcDbEntity
  8
Layer
 62
7
100
AcDbLine
 10
366.8669724770642
 20
182.48524079673666
 30
0.0
 11
366.8669724770642
 21
222.4987379498558
 31
0.0
  0
LINE
  5
AA
330
17
100
AcDbEntity
  8
Layer
 62
7
100
AcDbLine
 10
366.8669724770642
 20
192.43996480032837
 30
0.0
 11
366.8669724770642
 21
204.43996480032837
 31
0.0
  0
LWPOLYLINE
  5
AB
330
17
100
AcDbEntity
  8
Layer
100
AcDbPolyline
 90
5
 70
0
 10
361.8669724770642
 20
198.43996480032837
 10
366.8669724770642
 20
203.43996480032837
 10
371.8669724770642
 20
198.43996480032837
 10
366.8669724770642
 20
193.43996480032837
 10
361.8669724770642
 20
198.43996480032837
  0
LINE
  5
AC
330
17
100
AcDbEntity
  8
Layer
 62
7
100
AcDbLine
 10
366.8669724770642
 20
200.5440139462641
 30
0.0
 11
366.8669724770642
 21
212.5440139462641
 31
0.0
  0
LWPOLYLINE
  5
AD
330
17
100
AcDbEntity
  8
Layer
100
AcDbPolyline
 90
5
 70
0
 10
361.8669724770642
 20
206.5440139462641
 10
366.8669724770642
 20
211.5440139462641
 10
371.8669724770642
 20
206.5440139462641
 10
366.8669724770642
 20
201.5440139462641
 10
361.8669724770642
 20
206.5440139462641
  0
LWPOLYLINE
  5
AE
330
17
100
AcDbEntity
  8
NumLabel
 62
1
100
AcDbPolyline
 90
2
 70
0
 10
182.1651376146789
 20
180.14908256880733
 10
180.1651376146789
 20
180.14908256880733
  0
LWPOLYLINE
  5
AF
330
17
100
AcDbEntity
  8
NumLabel
 62
1
100
AcDbPolyline
 90
4
 70
0
 10
179.1651376146789
 20
180.14908256880733
 10
177.1651376146789
 20
180.14908256880733
 10
177.1651376146789
 20
170.14908256880733
 10
179.1651376146789
 20
170.14908256880733
  0
LWPOLYLINE
  5
B0
330
17
100
AcDbEntity
  8
NumLabel
 62
1
100
AcDbPolyline
 90
4
 70
0
 10
180.1651376146789
 20
170.14908256880733
 10
182.1651376146789
 20
170.14908256880733
 10
182.1651376146789
 20
175.14908256880733
 10
180.1651376146789
 20
175.14908256880733
  0
LWPOLYLINE
  5
B1
330
17
100
AcDbEntity
  8
NumLabel
 62
1
100
AcDbPolyline
 90
2
 70
0
 10
179.1651376146789
 20
175.14908256880733
 10
177.1651376146789
 20
175.14908256880733
  0
LWPOLYLINE
  5
B2
330
17
100
AcDbEntity
  8
NumLabel
 62
1
100
AcDbPolyline
 90
2
 70
0
 10
189.6651376146789
 20
180.14908256880733
 10
187.6651376146789
 20
180.14908256880733
  0
LWPOLYLINE
  5
B3
330
17
100
AcDbEntity
  8
NumLabel
 62
1
100
AcDbPolyline
 90
4
 70
0
 10
186.6651376146789
 20
180.14908256880733
 10
184.6651376146789
 20
180.14908256880733
 10
184.6651376146789
 20
170.14908256880733
 10
186.6651376146789
 20
170.14908256880733
  0
LWPOLYLINE
  5
B4
330
17
100
AcDbEntity
  8
NumLabel
 62
1
100
AcDbPolyline
 90
4
 70
0
 10
187.6651376146789
 20
170.14908256880733
 10
189.6651376146789
 20
170.14908256880733
 10
189.6651376146789
 20
175.14908256880733
 10
187.6651376146789
 20
175.14908256880733
  0
LWPOLYLINE
  5
B5
330
17
100
AcDbEntity
  8
NumLabel
 62
1
100
AcDbPolyline
 90
2
 70
0
 10
186.6651376146789
 20
175.14908256880733
 10
184.6651376146789
 20
175.14908256880733
  0
ENDSEC
  0
SECTION
  2
OBJECTS
  0
DICTIONARY
  5
A
330
0
100
AcDbDictionary
280
0
281
1
  3
ACAD_COLOR
350
B
  3
ACAD_GROUP
350
C
  3
ACAD_LAYOUT
350
D
  3
ACAD_MATERIAL
350
E
  3
ACAD_MLEADERSTYLE
350
F
  3
ACAD_MLINESTYLE
350
10
  3
ACAD_PLOTSETTINGS
350
11
  3
ACAD_PLOTSTYLENAME
350
12
  3
ACAD_SCALELIST
350
14
  3
ACAD_TABLESTYLE
350
15
  3
ACAD_VISUALSTYLE
350
16
  3
EZDXF_META
350
2D
  0
DICTIONARY
  5
B
330
A
100
AcDbDictionary
280
0
281
1
  0
DICTIONARY
  5
C
330
A
100
AcDbDictionary
280
0
281
1
  0
DICTIONARY
  5
D
330
A
100
AcDbDictionary
280
0
281
1
  3
Model
350
1A
  3
Layout1
350
1E
  0
DICTIONARY
  5
E
330
A
100
AcDbDictionary
280
0
281
1
  3
ByBlock
350
1F
  3
ByLayer
350
20
  3
Global
350
21
  0
DICTIONARY
  5
F
330
A
100
AcDbDictionary
280
0
281
1
  3
Standard
350
2C
  0
DICTIONARY
  5
10
330
A
100
AcDbDictionary
280
0
281
1
  3
Standard
350
22
  0
DICTIONARY
  5
11
330
A
100
AcDbDictionary
280
0
281
1
  0
ACDBDICTIONARYWDFLT
  5
12
330
A
100
AcDbDictionary
280
0
281
1
  3
Normal
350
13
100
AcDbDictionaryWithDefault
340
13
  0
ACDBPLACEHOLDER
  5
13
330
12
  0
DICTIONARY
  5
14
330
A
100
AcDbDictionary
280
0
281
1
  0
DICTIONARY
  5
15
330
A
100
AcDbDictionary
280
0
281
1
  0
DICTIONARY
  5
16
330
A
100
AcDbDictionary
280
0
281
1
  3
2dWireframe
350
5A
  3
Basic
350
5B
  3
Brighten
350
5C
  3
ColorChange
350
5D
  3
Conceptual
350
5E
  3
Dim
350
5F
  3
EdgeColorOff
350
60
  3
Facepattern
350
61
  3
Flat
350
62
  3
FlatWithEdges
350
63
  3
Gouraud
350
64
  3
GouraudWithEdges
350
65
  3
Hidden
350
66
  3
JitterOff
350
67
  3
Linepattern
350
68
  3
Modeling
350
69
  3
OverhangOff
350
6A
  3
Realistic
350
6B
  3
Shaded
350
6C
  3
Shaded with edges
350
6D
  3
Shades of Gray
350
6E
  3
Sketchy
350
6F
  3
Thicken
350
70
  3
Wireframe
350
71
  3
X-Ray
350
72
  0
LAYOUT
  5
1A
330
D
100
AcDbPlotSettings
  1

  2
Adobe PDF
  4
A3
  6

 40
7.5
 41
20.0
 42
7.5
 43
20.0
 44
420.0
 45
297.0
 46
0.0
 47
0.0
 48
0.0
 49
0.0
140
0.0
141
0.0
142
1.0
143
1.0
 70
1024
 72
1
 73
0
 74
5
  7

 75
16
 76
0
 77
2
 78
300
147
1.0
148
0.0
149
0.0
100
AcDbLayout
  1
Model
 70
1
 71
0
 10
0.0
 20
0.0
 11
420.0
 21
297.0
 12
0.0
 22
0.0
 32
0.0
 14
1e+20
 24
1e+20
 34
1e+20
 15
-1e+20
 25
-1e+20
 35
-1e+20
146
0.0
 13
0.0
 23
0.0
 33
0.0
 16
1.0
 26
0.0
 36
0.0
 17
0.0
 27
1.0
 37
0.0
 76
1
330
17
  0
LAYOUT
  5
1E
330
D
100
AcDbPlotSettings
  1

  2
Adobe PDF
  4
A3
  6

 40
7.5
 41
20.0
 42
7.5
 43
20.0
 44
420.0
 45
297.0
 46
0.0
 47
0.0
 48
0.0
 49
0.0
140
0.0
141
0.0
142
1.0
143
1.0
 70
0
 72
1
 73
0
 74
5
  7

 75
16
 76
0
 77
2
 78
300
147
1.0
148
0.0
149
0.0
100
AcDbLayout
  1
Layout1
 70
1
 71
1
 10
0.0
 20
0.0
 11
420.0
 21
297.0
 12
0.0
 22
0.0
 32
0.0
 14
1e+20
 24
1e+20
 34
1e+20
 15
-1e+20
 25
-1e+20
 35
-1e+20
146
0.0
 13
0.0
 23
0.0
 33
0.0
 16
1.0
 26
0.0
 36
0.0
 17
0.0
 27
1.0
 37
0.0
 76
1
330
1B
  0
MATERIAL
  5
1F
102
{ACAD_REACTORS
330
E
102
}
330
E
100
AcDbMaterial
  1
ByBlock
  2

 70
0
 40
1.0
 71
1
 41
1.0
 91
-1023410177
 42
1.0
 72
1
  3

 73
1
 74
1
 75
1
 44
0.5
 73
0
 45
1.0
 46
1.0
 77
1
  4

 78
1
 79
1
170
1
 48
1.0
171
1
  6

172
1
173
1
174
1
140
1.0
141
1.0
175
1
  7

176
1
177
1
178
1
143
1.0
179
1
  8

270
1
271
1
272
1
145
1.0
146
1.0
273
1
  9

274
1
275
1
276
1
 42
1.0
 72
1
  3

 73
1
 74
1
 75
1
 94
63
  0
MATERIAL
  5
20
102
{ACAD_REACTORS
330
E
102
}
330
E
100
AcDbMaterial
  1
ByLayer
  2

 70
0
 40
1.0
 71
1
 41
1.0
 91
-1023410177
 42
1.0
 72
1
  3

 73
1
 74
1
 75
1
 44
0.5
 73
0
 45
1.0
 46
1.0
 77
1
  4

 78
1
 79
1
170
1
 48
1.0
171
1
  6

172
1
173
1
174
1
140
1.0
141
1.0
175
1
  7

176
1
177
1
178
1
143
1.0
179
1
  8

270
1
271
1
272
1
145
1.0
146
1.0
273
1
  9

274
1
275
1
276
1
 42
1.0
 72
1
  3

 73
1
 74
1
 75
1
 94
63
  0
MATERIAL
  5
21
102
{ACAD_REACTORS
330
E
102
}
330
E
100
AcDbMaterial
  1
Global
  2

 70
0
 40
1.0
 71
1
 41
1.0
 91
-1023410177
 42
1.0
 72
1
  3

 73
1
 74
1
 75
1
 44
0.5
 73
0
 45
1.0
 46
1.0
 77
1
  4

 78
1
 79
1
170
1
 48
1.0
171
1
  6

172
1
173
1
174
1
140
1.0
141
1.0
175
1
  7

176
1
177
1
178
1
143
1.0
179
1
  8

270
1
271
1
272
1
145
1.0
146
1.0
273
1
  9

274
1
275
1
276
1
 42
1.0
 72
1
  3

 73
1
 74
1
 75
1
 94
63
  0
MLINESTYLE
  5
22
102
{ACAD_REACTORS
330
10
102
}
330
10
100
AcDbMlineStyle
  2
Standard
 70
0
  3

 62
256
 51
90.0
 52
90.0
 71
2
 49
0.5
 62
256
  6
BYLAYER
 49
-0.5
 62
256
  6
BYLAYER
  0
MLEADERSTYLE
  5
2C
102
{ACAD_REACTORS
330
F
102
}
330
F
100
AcDbMLeaderStyle
179
2
170
2
171
1
172
0
 90
2
 40
0.0
 41
0.0
173
1
 91
-1056964608
 92
-2
290
1
 42
2.0
291
1
 43
8.0
  3
Standard
 44
4.0
300

342
29
174
1
175
1
176
0
178
1
 93
-1056964608
 45
4.0
292
0
297
0
 46
4.0
 94
-1056964608
 47
1.0
 49
1.0
140
1.0
294
1
141
0.0
177
0
142
1.0
295
0
296
0
143
3.75
271
0
272
9
273
9
  0
DICTIONARY
  5
2D
330
A
100
AcDbDictionary
281
1
  3
CREATED_BY_EZDXF
350
2E
  3
WRITTEN_BY_EZDXF
350
B8
  0
DICTIONARYVAR
  5
2E
330
2D
100
DictionaryVariables
280
0
  1
1.3.0 @ 2026-01-06T17:07:23.793384+00:00
  0
VISUALSTYLE
  5
5A
102
{ACAD_REACTORS
330
16
102
}
330
16
100
AcDbVisualStyle
  2
2dWireframe
 70
4
 90
0
 40
0.6
 62
7
290
0
291
0
  0
VISUALSTYLE
  5
5B
102
{ACAD_REACTORS
330
16
102
}
330
16
100
AcDbVisualStyle
  2
Basic
 70
7
 90
1
 40
0.6
 62
7
290
0
291
1
  0
VISUALSTYLE
  5
5C
102
{ACAD_REACTORS
330
16
102
}
330
16
100
AcDbVisualStyle
  2
Brighten
 70
12
 90
2
 40
0.6
 62
7
290
0
291
1
  0
VISUALSTYLE
  5
5D
102
{ACAD_REACTORS
330
16
102
}
330
16
100
AcDbVisualStyle
  2
ColorChange
 70
16
 90
2
 40
0.6
 62
8
290
0
291
1
  0
VISUALSTYLE
  5
5E
102
{ACAD_REACTORS
330
16
102
}
330
16
100
AcDbVisualStyle
  2
Conceptual
 70
9
 90
3
 40
0.6
 62
7
290
0
291
0
  0
VISUALSTYLE
  5
5F
102
{ACAD_REACTORS
330
16
102
}
330
16
100
AcDbVisualStyle
  2
Dim
 70
11
 90
2
 40
0.6
 62
7
290
0
291
1
  0
VISUALSTYLE
  5
60
102
{ACAD_REACTORS
330
16
102
}
330
16
100
AcDbVisualStyle
  2
EdgeColorOff
 70
22
 90
2
 40
0.6
 62
7
290
0
291
1
  0
VISUALSTYLE
  5
61
102
{ACAD_REACTORS
330
16
102
}
330
16
100
AcDbVisualStyle
  2
Facepattern
 70
15
 90
2
 40
0.6
 62
7
290
0
291
1
  0
VISUALSTYLE
  5
62
102
{ACAD_REACTORS
330
16
102
}
330
16
100
AcDbVisualStyle
  2
Flat
 70
0
 90
2
 40
0.6
 62
7
290
0
291
1
  0
VISUALSTYLE
  5
63
102
{ACAD_REACTORS
330
16
102
}
330
16
100
AcDbVisualStyle
  2
FlatWithEdges
 70
1
 90
2
 40
0.6
 62
7
290
0
291
1
  0
VISUALSTYLE
  5
64
102
{ACAD_REACTORS
330
16
102
}
330
16
100
AcDbVisualStyle
  2
Gouraud
 70
2
 90
2
 40
0.6
 62
7
290
0
291
1
  0
VISUALSTYLE
  5
65
102
{ACAD_REACTORS
330
16
102
}
330
16
100
AcDbVisualStyle
  2
GouraudWithEdges
 70
3
 90
2
 40
0.6
 62
7
290
0
291
1
  0
VISUALSTYLE
  5
66
102
{ACAD_REACTORS
330
16
102
}
330
16
100
AcDbVisualStyle
  2
Hidden
 70
6
 90
1
 40
0.6
 62
7
290
0
291
0
  0
VISUALSTYLE
  5
67
102
{ACAD_REACTORS
330
16
102
}
330
16
100
AcDbVisualStyle
  2
JitterOff
 70
20
 90
2
 40
0.6
 62
7
290
0
291
1
  0
VISUALSTYLE
  5
68
102
{ACAD_REACTORS
330
16
102
}
330
16
100
AcDbVisualStyle
  2
Linepattern
 70
14
 90
2
 40
0.6
 62
7
290
0
291
1
  0
VISUALSTYLE
  5
69
102
{ACAD_REACTORS
330
16
102
}
330
16
100
AcDbVisualStyle
  2
Modeling
 70
10
 90
2
 40
0.6
 62
7
290
0
291
0
  0
VISUALSTYLE
  5
6A
102
{ACAD_REACTORS
330
16
102
}
330
16
100
AcDbVisualStyle
  2
OverhangOff
 70
21
 90
2
 40
0.6
 62
7
290
0
291
1
  0
VISUALSTYLE
  5
6B
102
{ACAD_REACTORS
330
16
102
}
330
16
100
AcDbVisualStyle
  2
Realistic
 70
8
 90
2
 40
0.6
 62
7
290
0
291
0
  0
VISUALSTYLE
  5
6C
102
{ACAD_REACTORS
330
16
102
}
330
16
100
AcDbVisualStyle
  2
Shaded
 70
27
 90
2
 40
0.6
 62
7
290
0
291
0
  0
VISUALSTYLE
  5
6D
102
{ACAD_REACTORS
330
16
102
}
330
16
100
AcDbVisualStyle
  2
Shaded with edges
 70
26
 90
2
 40
0.6
 62
7
290
0
291
0
  0
VISUALSTYLE
  5
6E
102
{ACAD_REACTORS
330
16
102
}
330
16
100
AcDbVisualStyle
  2
Shades of Gray
 70
23
 90
2
 40
0.6
 62
7
290
0
291
0
  0
VISUALSTYLE
  5
6F
102
{ACAD_REACTORS
330
16
102
}
330
16
100
AcDbVisualStyle
  2
Sketchy
 70
24
 90
1
 40
0.6
 62
7
290
0
291
0
  0
VISUALSTYLE
  5
70
102
{ACAD_REACTORS
330
16
102
}
330
16
100
AcDbVisualStyle
  2
Thicken
 70
13
 90
2
 40
0.6
 62
7
290
0
291
1
  0
VISUALSTYLE
  5
71
102
{ACAD_REACTORS
330
16
102
}
330
16
100
AcDbVisualStyle
  2
Wireframe
 70
5
 90
0
 40
0.6
 62
7
290
0
291
0
  0
VISUALSTYLE
  5
72
102
{ACAD_REACTORS
330
16
102
}
330
16
100
AcDbVisualStyle
  2
X-Ray
 70
25
 90
2
 40
0.5
 62
7
290
0
291
0
  0
DICTIONARYVAR
  5
B8
330
2D
100
DictionaryVariables
280
0
  1
1.3.0 @ 2026-01-06T17:07:23.849776+00:00
  0
ENDSEC
  0
EOF
