  0
SECTION
  2
HEADER
  9
$ACADVER
  1
AC1021
  9
$ACADMAINTVER
 70
25
  9
$DWGCODEPAGE
  3
ANSI_1252
  9
$LASTSAVEDBY
  1
ezdxf
  9
$INSBASE
 10
0.0
 20
0.0
 30
0.0
  9
$EXTMIN
 10
1e+20
 20
1e+20
 30
1e+20
  9
$EXTMAX
 10
-1e+20
 20
-1e+20
 30
-1e+20
  9
$LIMMIN
 10
0.0
 20
0.0
  9
$LIMMAX
 10
420.0
 20
297.0
  9
$ORTHOMODE
 70
0
  9
$REGENMODE
 70
1
  9
$FILLMODE
 70
1
  9
$QTEXTMODE
 70
0
  9
$MIRRTEXT
 70
1
  9
$LTSCALE
 40
1.0
  9
$ATTMODE
 70
1
  9
$TEXTSIZE
 40
2.5
  9
$TRACEWID
 40
1.0
  9
$TEXTSTYLE
  7
OpenSans
  9
$CLAYER
  8
0
  9
$CELTYPE
  6
ByLayer
  9
$CECOLOR
 62
256
  9
$CELTSCALE
 40
1.0
  9
$DISPSILH
 70
0
  9
$DIMSCALE
 40
1.0
  9
$DIMASZ
 40
0.175
  9
$DIMEXO
 40
0.125
  9
$DIMDLI
 40
3.75
  9
$DIMRND
 40
0.0
  9
$DIMDLE
 40
0.0
  9
$DIMEXE
 40
0.375
  9
$DIMTP
 40
0.0
  9
$DIMTM
 40
0.0
  9
$DIMTXT
 40
0.25
  9
$DIMCEN
 40
2.5
  9
$DIMTSZ
 40
0.0
  9
$DIMTOL
 70
0
  9
$DIMLIM
 70
0
  9
$DIMTIH
 70
0
  9
$DIMTOH
 70
0
  9
$DIMSE1
 70
0
  9
$DIMSE2
 70
0
  9
$DIMTAD
 70
1
  9
$DIMZIN
 70
12
  9
$DIMBLK
  1
ARCHTICK
  9
$DIMASO
 70
1
  9
$DIMSHO
 70
1
  9
$DIMPOST
  1

  9
$DIMAPOST
  1

  9
$DIMALT
 70
0
  9
$DIMALTD
 70
3
  9
$DIMALTF
 40
0.03937007874
  9
$DIMLFAC
 40
100.0
  9
$DIMTOFL
 70
1
  9
$DIMTVP
 40
0.0
  9
$DIMTIX
 70
0
  9
$DIMSOXD
 70
0
  9
$DIMSAH
 70
0
  9
$DIMBLK1
  1

  9
$DIMBLK2
  1

  9
$DIMSTYLE
  2
EZDXF
  9
$DIMCLRD
 70
0
  9
$DIMCLRE
 70
0
  9
$DIMCLRT
 70
0
  9
$DIMTFAC
 40
0.5
  9
$DIMGAP
 40
0.1
  9
$DIMJUST
 70
0
  9
$DIMSD1
 70
0
  9
$DIMSD2
 70
0
  9
$DIMTOLJ
 70
0
  9
$DIMTZIN
 70
8
  9
$DIMALTZ
 70
0
  9
$DIMALTTZ
 70
0
  9
$DIMUPT
 70
1
  9
$DIMDEC
 70
2
  9
$DIMTDEC
 70
2
  9
$DIMALTU
 70
2
  9
$DIMALTTD
 70
3
  9
$DIMTXSTY
  7
OpenSansCondensed-Light
  9
$DIMAUNIT
 70
0
  9
$DIMADEC
 70
2
  9
$DIMALTRND
 40
0.0
  9
$DIMAZIN
 70
3
  9
$DIMDSEP
 70
46
  9
$DIMATFIT
 70
3
  9
$DIMFRAC
 70
0
  9
$DIMLDRBLK
  1

  9
$DIMLUNIT
 70
2
  9
$DIMLWD
 70
-2
  9
$DIMLWE
 70
-2
  9
$DIMTMOVE
 70
2
  9
$DIMFXL
 40
1.0
  9
$DIMFXLON
 70
0
  9
$DIMJOGANG
 40
0.785398163397
  9
$DIMTFILL
 70
0
  9
$DIMTFILLCLR
 70
0
  9
$DIMARCSYM
 70
0
  9
$DIMLTYPE
  6

  9
$DIMLTEX1
  6

  9
$DIMLTEX2
  6

  9
$LUNITS
 70
2
  9
$LUPREC
 70
4
  9
$SKETCHINC
 40
1.0
  9
$FILLETRAD
 40
10.0
  9
$AUNITS
 70
0
  9
$AUPREC
 70
2
  9
$MENU
  1
.
  9
$ELEVATION
 40
0.0
  9
$PELEVATION
 40
0.0
  9
$THICKNESS
 40
0.0
  9
$LIMCHECK
 70
0
  9
$CHAMFERA
 40
0.0
  9
$CHAMFERB
 40
0.0
  9
$CHAMFERC
 40
0.0
  9
$CHAMFERD
 40
0.0
  9
$SKPOLY
 70
0
  9
$TDCREATE
 40
2461048.088460648
  9
$TDUCREATE
 40
2458532.153996898
  9
$TDUPDATE
 40
2461048.088460648
  9
$TDUUPDATE
 40
2458532.1544311
  9
$TDINDWG
 40
0.0
  9
$TDUSRTIMER
 40
0.0
  9
$USRTIMER
 70
1
  9
$ANGBASE
 50
0.0
  9
$ANGDIR
 70
0
  9
$PDMODE
 70
0
  9
$PDSIZE
 40
0.0
  9
$PLINEWID
 40
0.0
  9
$SPLFRAME
 70
0
  9
$SPLINETYPE
 70
6
  9
$SPLINESEGS
 70
8
  9
$HANDSEED
  5
AE
  9
$SURFTAB1
 70
6
  9
$SURFTAB2
 70
6
  9
$SURFTYPE
 70
6
  9
$SURFU
 70
6
  9
$SURFV
 70
6
  9
$UCSBASE
  2

  9
$UCSNAME
  2

  9
$UCSORG
 10
0.0
 20
0.0
 30
0.0
  9
$UCSXDIR
 10
1.0
 20
0.0
 30
0.0
  9
$UCSYDIR
 10
0.0
 20
1.0
 30
0.0
  9
$UCSORTHOREF
  2

  9
$UCSORTHOVIEW
 70
0
  9
$UCSORGTOP
 10
0.0
 20
0.0
 30
0.0
  9
$UCSORGBOTTOM
 10
0.0
 20
0.0
 30
0.0
  9
$UCSORGLEFT
 10
0.0
 20
0.0
 30
0.0
  9
$UCSORGRIGHT
 10
0.0
 20
0.0
 30
0.0
  9
$UCSORGFRONT
 10
0.0
 20
0.0
 30
0.0
  9
$UCSORGBACK
 10
0.0
 20
0.0
 30
0.0
  9
$PUCSBASE
  2

  9
$PUCSNAME
  2

  9
$PUCSORG
 10
0.0
 20
0.0
 30
0.0
  9
$PUCSXDIR
 10
1.0
 20
0.0
 30
0.0
  9
$PUCSYDIR
 10
0.0
 20
1.0
 30
0.0
  9
$PUCSORTHOREF
  2

  9
$PUCSORTHOVIEW
 70
0
  9
$PUCSORGTOP
 10
0.0
 20
0.0
 30
0.0
  9
$PUCSORGBOTTOM
 10
0.0
 20
0.0
 30
0.0
  9
$PUCSORGLEFT
 10
0.0
 20
0.0
 30
0.0
  9
$PUCSORGRIGHT
 10
0.0
 20
0.0
 30
0.0
  9
$PUCSORGFRONT
 10
0.0
 20
0.0
 30
0.0
  9
$PUCSORGBACK
 10
0.0
 20
0.0
 30
0.0
  9
$USERI1
 70
0
  9
$USERI2
 70
0
  9
$USERI3
 70
0
  9
$USERI4
 70
0
  9
$USERI5
 70
0
  9
$USERR1
 40
0.0
  9
$USERR2
 40
0.0
  9
$USERR3
 40
0.0
  9
$USERR4
 40
0.0
  9
$USERR5
 40
0.0
  9
$WORLDVIEW
 70
1
  9
$SHADEDGE
 70
3
  9
$SHADEDIF
 70
70
  9
$TILEMODE
 70
1
  9
$MAXACTVP
 70
64
  9
$PINSBASE
 10
0.0
 20
0.0
 30
0.0
  9
$PLIMCHECK
 70
0
  9
$PEXTMIN
 10
1e+20
 20
1e+20
 30
1e+20
  9
$PEXTMAX
 10
-1e+20
 20
-1e+20
 30
-1e+20
  9
$PLIMMIN
 10
0.0
 20
0.0
  9
$PLIMMAX
 10
420.0
 20
297.0
  9
$UNITMODE
 70
0
  9
$VISRETAIN
 70
1
  9
$PLINEGEN
 70
0
  9
$PSLTSCALE
 70
1
  9
$TREEDEPTH
 70
3020
  9
$CMLSTYLE
  2
Standard
  9
$CMLJUST
 70
0
  9
$CMLSCALE
 40
20.0
  9
$PROXYGRAPHICS
 70
1
  9
$MEASUREMENT
 70
1
  9
$CELWEIGHT
370
-1
  9
$ENDCAPS
280
0
  9
$JOINSTYLE
280
0
  9
$LWDISPLAY
290
0
  9
$INSUNITS
 70
6
  9
$HYPERLINKBASE
  1

  9
$STYLESHEET
  1

  9
$XEDIT
290
1
  9
$CEPSNTYPE
380
0
  9
$PSTYLEMODE
290
1
  9
$FINGERPRINTGUID
  2
{5150B733-9885-4E2E-B361-1E4C73D851C1}
  9
$VERSIONGUID
  2
{090F4934-425E-46D5-BD86-C7DB71A857FC}
  9
$EXTNAMES
290
1
  9
$PSVPSCALE
 40
0.0
  9
$OLESTARTUP
290
0
  9
$SORTENTS
280
127
  9
$INDEXCTL
280
0
  9
$HIDETEXT
280
1
  9
$XCLIPFRAME
290
1
  9
$HALOGAP
280
0
  9
$OBSCOLOR
 70
257
  9
$OBSLTYPE
280
0
  9
$INTERSECTIONDISPLAY
280
0
  9
$INTERSECTIONCOLOR
 70
257
  9
$DIMASSOC
280
2
  9
$PROJECTNAME
  1

  9
$CAMERADISPLAY
290
0
  9
$LENSLENGTH
 40
50.0
  9
$CAMERAHEIGHT
 40
0.0
  9
$STEPSPERSEC
 40
24.0
  9
$STEPSIZE
 40
100.0
  9
$3DDWFPREC
 40
2.0
  9
$PSOLWIDTH
 40
0.005
  9
$PSOLHEIGHT
 40
0.08
  9
$LOFTANG1
 40
1.570796326795
  9
$LOFTANG2
 40
1.570796326795
  9
$LOFTMAG1
 40
0.0
  9
$LOFTMAG2
 40
0.0
  9
$LOFTPARAM
 70
7
  9
$LOFTNORMALS
280
1
  9
$LATITUDE
 40
37.795
  9
$LONGITUDE
 40
-122.394
  9
$NORTHDIRECTION
 40
0.0
  9
$TIMEZONE
 70
-8000
  9
$LIGHTGLYPHDISPLAY
280
1
  9
$TILEMODELIGHTSYNCH
280
1
  9
$CMATERIAL
347
20
  9
$SOLIDHIST
280
0
  9
$SHOWHIST
280
1
  9
$DWFFRAME
280
2
  9
$DGNFRAME
280
2
  9
$REALWORLDSCALE
290
1
  9
$INTERFERECOLOR
 62
256
  9
$CSHADOW
280
0
  9
$SHADOWPLANELOCATION
 40
0.0
  0
ENDSEC
  0
SECTION
  2
CLASSES
  0
CLASS
  1
ACDBDICTIONARYWDFLT
  2
AcDbDictionaryWithDefault
  3
ObjectDBX Classes
 90
0
 91
0
280
0
281
0
  0
CLASS
  1
SUN
  2
AcDbSun
  3
SCENEOE
 90
1153
 91
0
280
0
281
0
  0
CLASS
  1
VISUALSTYLE
  2
AcDbVisualStyle
  3
ObjectDBX Classes
 90
4095
 91
0
280
0
281
0
  0
CLASS
  1
MATERIAL
  2
AcDbMaterial
  3
ObjectDBX Classes
 90
1153
 91
0
280
0
281
0
  0
CLASS
  1
SCALE
  2
AcDbScale
  3
ObjectDBX Classes
 90
1153
 91
0
280
0
281
0
  0
CLASS
  1
TABLESTYLE
  2
AcDbTableStyle
  3
ObjectDBX Classes
 90
4095
 91
0
280
0
281
0
  0
CLASS
  1
MLEADERSTYLE
  2
AcDbMLeaderStyle
  3
ACDB_MLEADERSTYLE_CLASS
 90
4095
 91
0
280
0
281
0
  0
CLASS
  1
DICTIONARYVAR
  2
AcDbDictionaryVar
  3
ObjectDBX Classes
 90
0
 91
0
280
0
281
0
  0
CLASS
  1
CELLSTYLEMAP
  2
AcDbCellStyleMap
  3
ObjectDBX Classes
 90
1152
 91
0
280
0
281
0
  0
CLASS
  1
MENTALRAYRENDERSETTINGS
  2
AcDbMentalRayRenderSettings
  3
SCENEOE
 90
1024
 91
0
280
0
281
0
  0
CLASS
  1
ACDBDETAILVIEWSTYLE
  2
AcDbDetailViewStyle
  3
ObjectDBX Classes
 90
1025
 91
0
280
0
281
0
  0
CLASS
  1
ACDBSECTIONVIEWSTYLE
  2
AcDbSectionViewStyle
  3
ObjectDBX Classes
 90
1025
 91
0
280
0
281
0
  0
CLASS
  1
RASTERVARIABLES
  2
AcDbRasterVariables
  3
ISM
 90
0
 91
0
280
0
281
0
  0
CLASS
  1
ACDBPLACEHOLDER
  2
AcDbPlaceHolder
  3
ObjectDBX Classes
 90
0
 91
0
280
0
281
0
  0
CLASS
  1
LAYOUT
  2
AcDbLayout
  3
ObjectDBX Classes
 90
0
 91
0
280
0
281
0
  0
ENDSEC
  0
SECTION
  2
TABLES
  0
TABLE
  2
VPORT
  5
8
330
0
100
AcDbSymbolTable
 70
1
  0
VPORT
  5
23
330
8
100
AcDbSymbolTableRecord
100
AcDbViewportTableRecord
  2
*Active
 70
0
 10
0.0
 20
0.0
 11
1.0
 21
1.0
 12
0.0
 22
0.0
 13
0.0
 23
0.0
 14
0.5
 24
0.5
 15
0.5
 25
0.5
 16
0.0
 26
0.0
 36
1.0
 17
0.0
 27
0.0
 37
0.0
 40
1000.0
 41
1.34
 42
50.0
 43
0.0
 44
0.0
 50
0.0
 51
0.0
 71
0
 72
1000
 73
1
 74
3
 75
0
 76
0
 77
0
 78
0
281
0
 65
0
146
0.0
  0
ENDTAB
  0
TABLE
  2
LTYPE
  5
2
330
0
100
AcDbSymbolTable
 70
21
  0
LTYPE
  5
24
330
2
100
AcDbSymbolTableRecord
100
AcDbLinetypeTableRecord
  2
ByBlock
 70
0
  3

 72
65
 73
0
 40
0.0
  0
LTYPE
  5
25
330
2
100
AcDbSymbolTableRecord
100
AcDbLinetypeTableRecord
  2
ByLayer
 70
0
  3

 72
65
 73
0
 40
0.0
  0
LTYPE
  5
26
330
2
100
AcDbSymbolTableRecord
100
AcDbLinetypeTableRecord
  2
Continuous
 70
0
  3

 72
65
 73
0
 40
0.0
  0
LTYPE
  5
2F
330
2
100
AcDbSymbolTableRecord
100
AcDbLinetypeTableRecord
  2
CENTER
 70
0
  3
Center ____ _ ____ _ ____ _ ____ _ ____ _ ____
 72
65
 73
4
 40
5.08
 49
3.175
 74
0
 49
-0.635
 74
0
 49
0.635
 74
0
 49
-0.635
 74
0
  0
LTYPE
  5
30
330
2
100
AcDbSymbolTableRecord
100
AcDbLinetypeTableRecord
  2
CENTERX2
 70
0
  3
Center (2x) ________  __  ________  __  ________
 72
65
 73
4
 40
8.89
 49
6.35
 74
0
 49
-0.635
 74
0
 49
1.27
 74
0
 49
-0.635
 74
0
  0
LTYPE
  5
31
330
2
100
AcDbSymbolTableRecord
100
AcDbLinetypeTableRecord
  2
CENTER2
 70
0
  3
Center (.5x) ____ _ ____ _ ____ _ ____ _ ____
 72
65
 73
4
 40
2.54
 49
1.587
 74
0
 49
-0.318
 74
0
 49
0.318
 74
0
 49
-0.318
 74
0
  0
LTYPE
  5
32
330
2
100
AcDbSymbolTableRecord
100
AcDbLinetypeTableRecord
  2
DASHED
 70
0
  3
Dashed __ __ __ __ __ __ __ __ __ __ __ __ __ _
 72
65
 73
2
 40
1.524
 49
1.27
 74
0
 49
-0.254
 74
0
  0
LTYPE
  5
33
330
2
100
AcDbSymbolTableRecord
100
AcDbLinetypeTableRecord
  2
DASHEDX2
 70
0
  3
Dashed (2x) ____  ____  ____  ____  ____  ____
 72
65
 73
2
 40
3.048
 49
2.54
 74
0
 49
-0.508
 74
0
  0
LTYPE
  5
34
330
2
100
AcDbSymbolTableRecord
100
AcDbLinetypeTableRecord
  2
DASHED2
 70
0
  3
Dashed (.5x) _ _ _ _ _ _ _ _ _ _ _ _ _ _
 72
65
 73
2
 40
0.762
 49
0.635
 74
0
 49
-0.127
 74
0
  0
LTYPE
  5
35
330
2
100
AcDbSymbolTableRecord
100
AcDbLinetypeTableRecord
  2
PHANTOM
 70
0
  3
Phantom ______  __  __  ______  __  __  ______
 72
65
 73
6
 40
6.35
 49
3.175
 74
0
 49
-0.635
 74
0
 49
0.635
 74
0
 49
-0.635
 74
0
 49
0.635
 74
0
 49
-0.635
 74
0
  0
LTYPE
  5
36
330
2
100
AcDbSymbolTableRecord
100
AcDbLinetypeTableRecord
  2
PHANTOMX2
 70
0
  3
Phantom (2x)____________    ____    ____    ____________
 72
65
 73
6
 40
10.795
 49
6.35
 74
0
 49
-0.635
 74
0
 49
1.27
 74
0
 49
-0.635
 74
0
 49
1.27
 74
0
 49
-0.635
 74
0
  0
LTYPE
  5
37
330
2
100
AcDbSymbolTableRecord
100
AcDbLinetypeTableRecord
  2
PHANTOM2
 70
0
  3
Phantom (.5x) ___ _ _ ___ _ _ ___ _ _ ___ _ _ ___
 72
65
 73
6
 40
3.175
 49
1.587
 74
0
 49
-0.318
 74
0
 49
0.318
 74
0
 49
-0.318
 74
0
 49
0.318
 74
0
 49
-0.318
 74
0
  0
LTYPE
  5
38
330
2
100
AcDbSymbolTableRecord
100
AcDbLinetypeTableRecord
  2
DASHDOT
 70
0
  3
Dash dot __ . __ . __ . __ . __ . __ . __ . __
 72
65
 73
4
 40
3.556
 49
2.54
 74
0
 49
-0.508
 74
0
 49
0.0
 74
0
 49
-0.508
 74
0
  0
LTYPE
  5
39
330
2
100
AcDbSymbolTableRecord
100
AcDbLinetypeTableRecord
  2
DASHDOTX2
 70
0
  3
Dash dot (2x) ____  .  ____  .  ____  .  ____
 72
65
 73
4
 40
6.096
 49
5.08
 74
0
 49
-0.508
 74
0
 49
0.0
 74
0
 49
-0.508
 74
0
  0
LTYPE
  5
3A
330
2
100
AcDbSymbolTableRecord
100
AcDbLinetypeTableRecord
  2
DASHDOT2
 70
0
  3
Dash dot (.5x) _ . _ . _ . _ . _ . _ . _ . _
 72
65
 73
4
 40
1.778
 49
1.27
 74
0
 49
-0.254
 74
0
 49
0.0
 74
0
 49
-0.254
 74
0
  0
LTYPE
  5
3B
330
2
100
AcDbSymbolTableRecord
100
AcDbLinetypeTableRecord
  2
DOT
 70
0
  3
Dot .  .  .  .  .  .  .  .  .  .  .  .  .  .  .  .
 72
65
 73
2
 40
0.508
 49
0.0
 74
0
 49
-0.508
 74
0
  0
LTYPE
  5
3C
330
2
100
AcDbSymbolTableRecord
100
AcDbLinetypeTableRecord
  2
DOTX2
 70
0
  3
Dot (2x) .    .    .    .    .    .    .    . 
 72
65
 73
2
 40
1.016
 49
0.0
 74
0
 49
-1.016
 74
0
  0
LTYPE
  5
3D
330
2
100
AcDbSymbolTableRecord
100
AcDbLinetypeTableRecord
  2
DOT2
 70
0
  3
Dot (.5) . . . . . . . . . . . . . . . . . . . 
 72
65
 73
2
 40
0.254
 49
0.0
 74
0
 49
-0.254
 74
0
  0
LTYPE
  5
3E
330
2
100
AcDbSymbolTableRecord
100
AcDbLinetypeTableRecord
  2
DIVIDE
 70
0
  3
Divide __ . . __ . . __ . . __ . . __ . . __
 72
65
 73
6
 40
4.064
 49
2.54
 74
0
 49
-0.508
 74
0
 49
0.0
 74
0
 49
-0.508
 74
0
 49
0.0
 74
0
 49
-0.508
 74
0
  0
LTYPE
  5
3F
330
2
100
AcDbSymbolTableRecord
100
AcDbLinetypeTableRecord
  2
DIVIDEX2
 70
0
  3
Divide (2x) ____  . .  ____  . .  ____  . .  ____
 72
65
 73
6
 40
6.604
 49
5.08
 74
0
 49
-0.508
 74
0
 49
0.0
 74
0
 49
-0.508
 74
0
 49
0.0
 74
0
 49
-0.508
 74
0
  0
LTYPE
  5
40
330
2
100
AcDbSymbolTableRecord
100
AcDbLinetypeTableRecord
  2
DIVIDE2
 70
0
  3
Divide(.5x) _ . _ . _ . _ . _ . _ . _ . _
 72
65
 73
6
 40
2.032
 49
1.27
 74
0
 49
-0.254
 74
0
 49
0.0
 74
0
 49
-0.254
 74
0
 49
0.0
 74
0
 49
-0.254
 74
0
  0
ENDTAB
  0
TABLE
  2
LAYER
  5
1
330
0
100
AcDbSymbolTable
 70
4
  0
LAYER
  5
27
330
1
100
AcDbSymbolTableRecord
100
AcDbLayerTableRecord
  2
0
 70
0
 62
7
  6
Continuous
370
-3
390
13
347
21
  0
LAYER
  5
28
330
1
100
AcDbSymbolTableRecord
100
AcDbLayerTableRecord
  2
Defpoints
 70
0
 62
7
  6
Continuous
290
0
370
-3
390
13
347
21
  0
LAYER
  5
8A
330
1
100
AcDbSymbolTableRecord
100
AcDbLayerTableRecord
  2
Layer
 70
0
 62
1
  6
Continuous
370
50
390
13
347
21
  0
LAYER
  5
8B
330
1
100
AcDbSymbolTableRecord
100
AcDbLayerTableRecord
  2
NumLabel
 70
0
 62
1
  6
Continuous
370
15
390
13
347
21
  0
ENDTAB
  0
TABLE
  2
STYLE
  5
5
330
0
100
AcDbSymbolTable
 70
26
  0
STYLE
  5
29
330
5
100
AcDbSymbolTableRecord
100
AcDbTextStyleTableRecord
  2
Standard
 70
0
 40
0.0
 41
1.0
 50
0.0
 71
0
 42
2.5
  3
txt
  4

  0
STYLE
  5
41
330
5
100
AcDbSymbolTableRecord
100
AcDbTextStyleTableRecord
  2
OpenSans-Light
 70
0
 40
0.0
 41
1.0
 50
0.0
 71
0
 42
2.5
  3
OpenSans-Light.ttf
  4

  0
STYLE
  5
42
330
5
100
AcDbSymbolTableRecord
100
AcDbTextStyleTableRecord
  2
OpenSans-Light-Italic
 70
0
 40
0.0
 41
1.0
 50
0.0
 71
0
 42
2.5
  3
OpenSans-LightItalic.ttf
  4

  0
STYLE
  5
43
330
5
100
AcDbSymbolTableRecord
100
AcDbTextStyleTableRecord
  2
OpenSans
 70
0
 40
0.0
 41
1.0
 50
0.0
 71
0
 42
2.5
  3
OpenSans-Regular.ttf
  4

  0
STYLE
  5
44
330
5
100
AcDbSymbolTableRecord
100
AcDbTextStyleTableRecord
  2
OpenSans-Italic
 70
0
 40
0.0
 41
1.0
 50
0.0
 71
0
 42
2.5
  3
OpenSans-Italic.ttf
  4

  0
STYLE
  5
45
330
5
100
AcDbSymbolTableRecord
100
AcDbTextStyleTableRecord
  2
OpenSans-SemiBold
 70
0
 40
0.0
 41
1.0
 50
0.0
 71
0
 42
2.5
  3
OpenSans-SemiBold.ttf
  4

  0
STYLE
  5
46
330
5
100
AcDbSymbolTableRecord
100
AcDbTextStyleTableRecord
  2
OpenSans-SemiBoldItalic
 70
0
 40
0.0
 41
1.0
 50
0.0
 71
0
 42
2.5
  3
OpenSans-SemiBoldItalic.ttf
  4

  0
STYLE
  5
47
330
5
100
AcDbSymbolTableRecord
100
AcDbTextStyleTableRecord
  2
OpenSans-Bold
 70
0
 40
0.0
 41
1.0
 50
0.0
 71
0
 42
2.5
  3
OpenSans-Bold.ttf
  4

  0
STYLE
  5
48
330
5
100
AcDbSymbolTableRecord
100
AcDbTextStyleTableRecord
  2
OpenSans-BoldItalic
 70
0
 40
0.0
 41
1.0
 50
0.0
 71
0
 42
2.5
  3
OpenSans-BoldItalic.ttf
  4

  0
STYLE
  5
49
330
5
100
AcDbSymbolTableRecord
100
AcDbTextStyleTableRecord
  2
OpenSans-ExtraBold
 70
0
 40
0.0
 41
1.0
 50
0.0
 71
0
 42
2.5
  3
OpenSans-ExtraBold.ttf
  4

  0
STYLE
  5
4A
330
5
100
AcDbSymbolTableRecord
100
AcDbTextStyleTableRecord
  2
OpenSans-ExtraBoldItalic
 70
0
 40
0.0
 41
1.0
 50
0.0
 71
0
 42
2.5
  3
OpenSans-ExtraBoldItalic.ttf
  4

  0
STYLE
  5
4B
330
5
100
AcDbSymbolTableRecord
100
AcDbTextStyleTableRecord
  2
OpenSansCondensed-Bold
 70
0
 40
0.0
 41
1.0
 50
0.0
 71
0
 42
2.5
  3
OpenSansCondensed-Bold.ttf
  4

  0
STYLE
  5
4C
330
5
100
AcDbSymbolTableRecord
100
AcDbTextStyleTableRecord
  2
OpenSansCondensed-Light
 70
0
 40
0.0
 41
1.0
 50
0.0
 71
0
 42
2.5
  3
OpenSansCondensed-Light.ttf
  4

  0
STYLE
  5
4D
330
5
100
AcDbSymbolTableRecord
100
AcDbTextStyleTableRecord
  2
OpenSansCondensed-Italic
 70
0
 40
0.0
 41
1.0
 50
0.0
 71
0
 42
2.5
  3
OpenSansCondensed-LightItalic.ttf
  4

  0
STYLE
  5
4E
330
5
100
AcDbSymbolTableRecord
100
AcDbTextStyleTableRecord
  2
LiberationSans
 70
0
 40
0.0
 41
1.0
 50
0.0
 71
0
 42
2.5
  3
LiberationSans-Regular.ttf
  4

  0
STYLE
  5
4F
330
5
100
AcDbSymbolTableRecord
100
AcDbTextStyleTableRecord
  2
LiberationSans-Bold
 70
0
 40
0.0
 41
1.0
 50
0.0
 71
0
 42
2.5
  3
LiberationSans-Bold.ttf
  4

  0
STYLE
  5
50
330
5
100
AcDbSymbolTableRecord
100
AcDbTextStyleTableRecord
  2
LiberationSans-BoldItalic
 70
0
 40
0.0
 41
1.0
 50
0.0
 71
0
 42
2.5
  3
LiberationSans-BoldItalic.ttf
  4

  0
STYLE
  5
51
330
5
100
AcDbSymbolTableRecord
100
AcDbTextStyleTableRecord
  2
LiberationSans-Italic
 70
0
 40
0.0
 41
1.0
 50
0.0
 71
0
 42
2.5
  3
LiberationSans-Italic.ttf
  4

  0
STYLE
  5
52
330
5
100
AcDbSymbolTableRecord
100
AcDbTextStyleTableRecord
  2
LiberationSerif
 70
0
 40
0.0
 41
1.0
 50
0.0
 71
0
 42
2.5
  3
LiberationSerif-Regular.ttf
  4

  0
STYLE
  5
53
330
5
100
AcDbSymbolTableRecord
100
AcDbTextStyleTableRecord
  2
LiberationSerif-Bold
 70
0
 40
0.0
 41
1.0
 50
0.0
 71
0
 42
2.5
  3
LiberationSerif-Bold.ttf
  4

  0
STYLE
  5
54
330
5
100
AcDbSymbolTableRecord
100
AcDbTextStyleTableRecord
  2
LiberationSerif-BoldItalic
 70
0
 40
0.0
 41
1.0
 50
0.0
 71
0
 42
2.5
  3
LiberationSerif-BoldItalic.ttf
  4

  0
STYLE
  5
55
330
5
100
AcDbSymbolTableRecord
100
AcDbTextStyleTableRecord
  2
LiberationSerif-Italic
 70
0
 40
0.0
 41
1.0
 50
0.0
 71
0
 42
2.5
  3
LiberationSerif-Italic.ttf
  4

  0
STYLE
  5
56
330
5
100
AcDbSymbolTableRecord
100
AcDbTextStyleTableRecord
  2
LiberationMono
 70
0
 40
0.0
 41
1.0
 50
0.0
 71
0
 42
2.5
  3
LiberationMono-Regular.ttf
  4

  0
STYLE
  5
57
330
5
100
AcDbSymbolTableRecord
100
AcDbTextStyleTableRecord
  2
LiberationMono-Bold
 70
0
 40
0.0
 41
1.0
 50
0.0
 71
0
 42
2.5
  3
LiberationMono-Bold.ttf
  4

  0
STYLE
  5
58
330
5
100
AcDbSymbolTableRecord
100
AcDbTextStyleTableRecord
  2
LiberationMono-BoldItalic
 70
0
 40
0.0
 41
1.0
 50
0.0
 71
0
 42
2.5
  3
LiberationMono-BoldItalic.ttf
  4

  0
STYLE
  5
59
330
5
100
AcDbSymbolTableRecord
100
AcDbTextStyleTableRecord
  2
LiberationMono-Italic
 70
0
 40
0.0
 41
1.0
 50
0.0
 71
0
 42
2.5
  3
LiberationMono-Italic.ttf
  4

  0
ENDTAB
  0
TABLE
  2
VIEW
  5
7
330
0
100
AcDbSymbolTable
 70
0
  0
ENDTAB
  0
TABLE
  2
UCS
  5
6
330
0
100
AcDbSymbolTable
 70
0
  0
ENDTAB
  0
TABLE
  2
APPID
  5
3
330
0
100
AcDbSymbolTable
 70
3
  0
APPID
  5
2A
330
3
100
AcDbSymbolTableRecord
100
AcDbRegAppTableRecord
  2
ACAD
 70
0
  0
APPID
  5
AB
330
3
100
AcDbSymbolTableRecord
100
AcDbRegAppTableRecord
  2
HATCHBACKGROUNDCOLOR
 70
0
  0
APPID
  5
AC
330
3
100
AcDbSymbolTableRecord
100
AcDbRegAppTableRecord
  2
EZDXF
 70
0
  0
ENDTAB
  0
TABLE
  2
DIMSTYLE
  5
4
330
0
100
AcDbSymbolTable
 70
12
100
AcDbDimStyleTable
  0
DIMSTYLE
105
2B
330
4
100
AcDbSymbolTableRecord
100
AcDbDimStyleTableRecord
  2
Standard
 70
0
 40
1.0
 41
2.5
 42
0.625
 43
3.75
 44
1.25
 45
0.0
 46
0.0
 47
0.0
 48
0.0
 49
2.5
140
2.5
141
2.5
142
0.0
143
0.03937007874
144
1.0
145
0.0
146
1.0
147
0.625
148
0.0
 69
0
 70
0
 71
0
 72
0
 73
0
 74
0
 75
0
 76
0
 77
1
 78
8
 79
3
170
0
171
3
172
1
173
0
174
0
175
0
176
0
177
0
178
0
179
2
271
2
272
2
273
2
274
3
275
0
276
0
277
2
278
44
279
0
280
0
281
0
282
0
283
0
284
8
285
0
286
0
288
0
289
3
290
0
371
-2
372
-2
  0
DIMSTYLE
105
73
330
4
100
AcDbSymbolTableRecord
100
AcDbDimStyleTableRecord
  2
EZDXF
 70
0
 40
1.0
 41
0.175
 42
0.125
 43
3.75
 44
0.375
 45
0.0
 46
0.0
 47
0.0
 48
0.0
 49
2.5
140
0.25
141
2.5
142
0.0
143
0.03937007874
144
100.0
145
0.0
146
0.5
147
0.1
148
0.0
 69
0
 70
0
 71
0
 72
0
 73
0
 74
0
 75
0
 76
0
 77
1
 78
12
 79
3
170
0
171
3
172
1
173
0
174
0
175
0
176
0
177
0
178
0
179
2
271
2
272
2
273
2
274
3
275
0
276
0
277
2
278
46
279
2
280
0
281
0
282
0
283
0
284
8
285
0
286
0
288
1
289
3
290
0
340
4C
342
74
371
-2
372
-2
  0
DIMSTYLE
105
7C
330
4
100
AcDbSymbolTableRecord
100
AcDbDimStyleTableRecord
  2
EZ_M_100_H25_CM
 70
0
 40
1.0
 41
0.25
 42
0.125
 43
3.75
 44
0.375
 45
0.0
 46
0.0
 47
0.0
 48
0.0
 49
2.5
140
0.25
141
2.5
142
0.125
143
0.03937007874
144
100.0
145
0.0
146
0.5
147
0.1
148
0.0
 69
0
 70
0
 71
0
 72
0
 73
0
 74
0
 75
0
 76
0
 77
1
 78
12
 79
3
170
0
171
3
172
1
173
0
174
0
175
0
176
0
177
0
178
0
179
2
271
2
272
2
273
2
274
3
275
0
276
0
277
2
278
46
279
2
280
0
281
0
282
0
283
0
284
8
285
0
286
0
288
1
289
3
290
0
340
4C
371
-2
372
-2
  0
DIMSTYLE
105
7D
330
4
100
AcDbSymbolTableRecord
100
AcDbDimStyleTableRecord
  2
EZ_M_50_H25_CM
 70
0
 40
1.0
 41
0.125
 42
0.0625
 43
3.75
 44
0.1875
 45
0.0
 46
0.0
 47
0.0
 48
0.0
 49
2.5
140
0.125
141
2.5
142
0.0625
143
0.03937007874
144
100.0
145
0.0
146
0.5
147
0.05
148
0.0
 69
0
 70
0
 71
0
 72
0
 73
0
 74
0
 75
0
 76
0
 77
1
 78
12
 79
3
170
0
171
3
172
1
173
0
174
0
175
0
176
0
177
0
178
0
179
2
271
2
272
2
273
2
274
3
275
0
276
0
277
2
278
46
279
2
280
0
281
0
282
0
283
0
284
8
285
0
286
0
288
1
289
3
290
0
340
4C
371
-2
372
-2
  0
DIMSTYLE
105
7E
330
4
100
AcDbSymbolTableRecord
100
AcDbDimStyleTableRecord
  2
EZ_M_25_H25_CM
 70
0
 40
1.0
 41
0.0625
 42
0.03125
 43
3.75
 44
0.09375
 45
0.0
 46
0.0
 47
0.0
 48
0.0
 49
2.5
140
0.0625
141
2.5
142
0.03125
143
0.03937007874
144
100.0
145
0.0
146
0.5
147
0.025
148
0.0
 69
0
 70
0
 71
0
 72
0
 73
0
 74
0
 75
0
 76
0
 77
1
 78
12
 79
3
170
0
171
3
172
1
173
0
174
0
175
0
176
0
177
0
178
0
179
2
271
2
272
2
273
2
274
3
275
0
276
0
277
2
278
46
279
2
280
0
281
0
282
0
283
0
284
8
285
0
286
0
288
1
289
3
290
0
340
4C
371
-2
372
-2
  0
DIMSTYLE
105
7F
330
4
100
AcDbSymbolTableRecord
100
AcDbDimStyleTableRecord
  2
EZ_M_20_H25_CM
 70
0
 40
1.0
 41
0.05
 42
0.025
 43
3.75
 44
0.07500000000000001
 45
0.0
 46
0.0
 47
0.0
 48
0.0
 49
2.5
140
0.05
141
2.5
142
0.025
143
0.03937007874
144
100.0
145
0.0
146
0.5
147
0.020000000000000004
148
0.0
 69
0
 70
0
 71
0
 72
0
 73
0
 74
0
 75
0
 76
0
 77
1
 78
12
 79
3
170
0
171
3
172
1
173
0
174
0
175
0
176
0
177
0
178
0
179
2
271
2
272
2
273
2
274
3
275
0
276
0
277
2
278
46
279
2
280
0
281
0
282
0
283
0
284
8
285
0
286
0
288
1
289
3
290
0
340
4C
371
-2
372
-2
  0
DIMSTYLE
105
80
330
4
100
AcDbSymbolTableRecord
100
AcDbDimStyleTableRecord
  2
EZ_M_10_H25_CM
 70
0
 40
1.0
 41
0.025
 42
0.0125
 43
3.75
 44
0.037500000000000006
 45
0.0
 46
0.0
 47
0.0
 48
0.0
 49
2.5
140
0.025
141
2.5
142
0.0125
143
0.03937007874
144
100.0
145
0.0
146
0.5
147
0.010000000000000002
148
0.0
 69
0
 70
0
 71
0
 72
0
 73
0
 74
0
 75
0
 76
0
 77
1
 78
12
 79
3
170
0
171
3
172
1
173
0
174
0
175
0
176
0
177
0
178
0
179
2
271
2
272
2
273
2
274
3
275
0
276
0
277
2
278
46
279
2
280
0
281
0
282
0
283
0
284
8
285
0
286
0
288
1
289
3
290
0
340
4C
371
-2
372
-2
  0
DIMSTYLE
105
81
330
4
100
AcDbSymbolTableRecord
100
AcDbDimStyleTableRecord
  2
EZ_M_5_H25_CM
 70
0
 40
1.0
 41
0.0125
 42
0.00625
 43
3.75
 44
0.018750000000000003
 45
0.0
 46
0.0
 47
0.0
 48
0.0
 49
2.5
140
0.0125
141
2.5
142
0.00625
143
0.03937007874
144
100.0
145
0.0
146
0.5
147
0.005000000000000001
148
0.0
 69
0
 70
0
 71
0
 72
0
 73
0
 74
0
 75
0
 76
0
 77
1
 78
12
 79
3
170
0
171
3
172
1
173
0
174
0
175
0
176
0
177
0
178
0
179
2
271
2
272
2
273
2
274
3
275
0
276
0
277
2
278
46
279
2
280
0
281
0
282
0
283
0
284
8
285
0
286
0
288
1
289
3
290
0
340
4C
371
-2
372
-2
  0
DIMSTYLE
105
82
330
4
100
AcDbSymbolTableRecord
100
AcDbDimStyleTableRecord
  2
EZ_M_1_H25_CM
 70
0
 40
1.0
 41
0.0025
 42
0.00125
 43
3.75
 44
0.00375
 45
0.0
 46
0.0
 47
0.0
 48
0.0
 49
2.5
140
0.0025
141
2.5
142
0.00125
143
0.03937007874
144
100.0
145
0.0
146
0.5
147
0.001
148
0.0
 69
0
 70
0
 71
0
 72
0
 73
0
 74
0
 75
0
 76
0
 77
1
 78
12
 79
3
170
0
171
3
172
1
173
0
174
0
175
0
176
0
177
0
178
0
179
2
271
2
272
2
273
2
274
3
275
0
276
0
277
2
278
46
279
2
280
0
281
0
282
0
283
0
284
8
285
0
286
0
288
1
289
3
290
0
340
4C
371
-2
372
-2
  0
DIMSTYLE
105
83
330
4
100
AcDbSymbolTableRecord
100
AcDbDimStyleTableRecord
  2
EZ_RADIUS
 70
0
 40
1.0
 41
0.25
 42
0.125
 43
3.75
 44
0.375
 45
0.0
 46
0.0
 47
0.0
 48
0.0
 49
2.5
140
0.25
141
0.0
142
0.0
143
0.03937007874
144
100.0
145
0.0
146
0.5
147
0.1
148
0.0
 69
0
 70
0
 71
0
 72
0
 73
0
 74
0
 75
0
 76
0
 77
1
 78
12
 79
3
170
0
171
3
172
0
173
0
174
0
175
0
176
0
177
0
178
0
179
2
271
2
272
2
273
2
274
3
275
0
276
0
277
2
278
46
279
1
280
0
281
0
282
0
283
0
284
8
285
0
286
0
288
1
289
3
290
0
340
4C
342
84
371
-2
372
-2
  0
DIMSTYLE
105
88
330
4
100
AcDbSymbolTableRecord
100
AcDbDimStyleTableRecord
  2
EZ_RADIUS_INSIDE
 70
0
 40
1.0
 41
0.25
 42
0.125
 43
3.75
 44
0.375
 45
0.0
 46
0.0
 47
0.0
 48
0.0
 49
2.5
140
0.25
141
0.0
142
0.0
143
0.03937007874
144
100.0
145
0.0
146
0.5
147
0.1
148
0.0
 69
0
 70
0
 71
0
 72
0
 73
0
 74
0
 75
0
 76
0
 77
0
 78
12
 79
3
170
0
171
3
172
0
173
0
174
1
175
0
176
0
177
0
178
0
179
2
271
2
272
2
273
2
274
3
275
0
276
0
277
2
278
46
279
0
280
0
281
0
282
0
283
0
284
8
285
0
286
0
288
1
289
0
290
0
340
4C
342
84
371
-2
372
-2
  0
DIMSTYLE
105
89
330
4
100
AcDbSymbolTableRecord
100
AcDbDimStyleTableRecord
  2
EZ_CURVED
 70
0
 40
1.0
 41
0.25
 42
0.125
 43
3.75
 44
0.375
 45
0.0
 46
0.0
 47
0.0
 48
0.0
 49
2.5
140
0.25
141
2.5
142
0.0
143
0.03937007874
144
100.0
145
0.0
146
0.5
147
0.1
148
0.0
 69
0
 70
0
 71
0
 72
0
 73
0
 74
0
 75
0
 76
0
 77
1
 78
12
 79
2
 90
2
170
0
171
3
172
1
173
0
174
0
175
0
176
0
177
0
178
0
179
2
271
2
272
2
273
2
274
3
275
0
276
0
277
2
278
46
279
2
280
0
281
0
282
0
283
0
284
8
285
0
286
0
288
1
289
3
290
0
340
4C
371
-2
372
-2
  0
ENDTAB
  0
TABLE
  2
BLOCK_RECORD
  5
9
330
0
100
AcDbSymbolTable
 70
5
  0
BLOCK_RECORD
  5
17
330
9
100
AcDbSymbolTableRecord
100
AcDbBlockTableRecord
  2
*Model_Space
340
1A
 70
0
280
1
281
0
  0
BLOCK_RECORD
  5
1B
330
9
100
AcDbSymbolTableRecord
100
AcDbBlockTableRecord
  2
*Paper_Space
340
1E
 70
0
280
1
281
0
  0
BLOCK_RECORD
  5
74
330
9
100
AcDbSymbolTableRecord
100
AcDbBlockTableRecord
  2
_ARCHTICK
340
0
 70
0
280
1
281
0
  0
BLOCK_RECORD
  5
78
330
9
100
AcDbSymbolTableRecord
100
AcDbBlockTableRecord
  2
_CLOSEDFILLED
340
0
 70
0
280
1
281
0
  0
BLOCK_RECORD
  5
84
330
9
100
AcDbSymbolTableRecord
100
AcDbBlockTableRecord
  2
_CLOSEDBLANK
340
0
 70
0
280
1
281
0
  0
ENDTAB
  0
ENDSEC
  0
SECTION
  2
BLOCKS
  0
BLOCK
  5
18
330
17
100
AcDbEntity
  8
0
100
AcDbBlockBegin
  2
*Model_Space
 70
0
 10
0.0
 20
0.0
 30
0.0
  3
*Model_Space
  1

  0
ENDBLK
  5
19
330
17
100
AcDbEntity
  8
0
100
AcDbBlockEnd
  0
BLOCK
  5
1C
330
1B
100
AcDbEntity
  8
0
100
AcDbBlockBegin
  2
*Paper_Space
 70
0
 10
0.0
 20
0.0
 30
0.0
  3
*Paper_Space
  1

  0
ENDBLK
  5
1D
330
1B
100
AcDbEntity
  8
0
100
AcDbBlockEnd
  0
BLOCK
  5
75
330
74
100
AcDbEntity
  8
0
100
AcDbBlockBegin
  2
_ARCHTICK
 70
0
 10
0.0
 20
0.0
 30
0.0
  3
_ARCHTICK
  1

  0
LWPOLYLINE
  5
77
330
74
100
AcDbEntity
  8
0
  6
BYBLOCK
 62
0
100
AcDbPolyline
 90
2
 70
0
 43
0.15
 10
-0.5
 20
-0.5
 10
0.5
 20
0.5
  0
ENDBLK
  5
76
330
74
100
AcDbEntity
  8
0
100
AcDbBlockEnd
  0
BLOCK
  5
79
330
78
100
AcDbEntity
  8
0
100
AcDbBlockBegin
  2
_CLOSEDFILLED
 70
0
 10
0.0
 20
0.0
 30
0.0
  3
_CLOSEDFILLED
  1

  0
SOLID
  5
7B
330
78
100
AcDbEntity
  8
0
  6
BYBLOCK
 62
0
100
AcDbTrace
 10
-1.0
 20
0.16439898372402537
 30
0.0
 11
0.0
 21
0.0
 31
0.0
 12
-1.0
 22
-0.16439898372402537
 32
0.0
 13
-1.0
 23
-0.16439898372402537
 33
0.0
  0
ENDBLK
  5
7A
330
78
100
AcDbEntity
  8
0
100
AcDbBlockEnd
  0
BLOCK
  5
85
330
84
100
AcDbEntity
  8
0
100
AcDbBlockBegin
  2
_CLOSEDBLANK
 70
0
 10
0.0
 20
0.0
 30
0.0
  3
_CLOSEDBLANK
  1

  0
LWPOLYLINE
  5
87
330
84
100
AcDbEntity
  8
0
  6
BYBLOCK
 62
0
100
AcDbPolyline
 90
3
 70
1
 10
-1.0
 20
0.16439898372402537
 10
0.0
 20
0.0
 10
-1.0
 20
-0.16439898372402537
  0
ENDBLK
  5
86
330
84
100
AcDbEntity
  8
0
100
AcDbBlockEnd
  0
ENDSEC
  0
SECTION
  2
ENTITIES
  0
LWPOLYLINE
  5
8C
330
17
100
AcDbEntity
  8
Layer
100
AcDbPolyline
 90
157
 70
1
 10
312.63761468710516
 20
233.08220101050307
 10
307.29443721672976
 20
233.7775864290237
 10
301.4504343199656
 20
234.49614019206106
 10
295.60119603848045
 20
235.17741208823148
 10
289.7496175989649
 20
235.81830861110984
 10
283.8935894794705
 20
236.41816661544186
 10
278.03452268416015
 20
236.97724538026876
 10
272.1724311362913
 20
237.49447288467417
 10
266.30568379914797
 20
237.97212720510262
 10
260.44405634082045
 20
238.41157988140264
 10
254.58446350751836
 20
238.80639143463955
 10
248.72518857512745
 20
239.16113850797242
 10
242.87529595874327
 20
239.47450469212112
 10
237.0311606630933
 20
239.7425957898913
 10
231.19083659387812
 20
239.96712522086608
 10
225.3593873113241
 20
240.14917586514233
 10
219.53757404874344
 20
240.28619752570688
 10
213.72468794624808
 20
240.37865648424997
 10
207.92443862196106
 20
240.42749755839083
 10
202.14130782077095
 20
240.4304830912326
 10
196.37430694027856
 20
240.38375843147517
 10
190.6181092923668
 20
240.28908789501227
 10
184.8843753555205
 20
240.1495869046867
 10
179.16921225763554
 20
239.95676117084162
 10
173.4723771421073
 20
239.71763304381827
 10
167.80365858888428
 20
239.4285829405256
 10
162.15947450483728
 20
239.088066115564
 10
156.54779869604226
 20
238.6966311529139
 10
150.96651741582514
 20
238.2496607560479
 10
145.41666583437734
 20
237.7488047580233
 10
139.9006089332255
 20
237.1941725505166
 10
134.4257007123739
 20
236.58768140481092
 10
128.99592807547907
 20
235.92473203199862
 10
123.6101039908662
 20
235.20576033326273
 10
118.27615238743039
 20
234.43398387780104
 10
113.00263186632928
 20
233.61080579824446
 10
107.80159847843777
 20
232.7364685890709
 10
102.67844260668772
 20
231.8072310435085
 10
97.6358090650217
 20
230.82446456050857
 10
92.68722715874199
 20
229.79453561081147
 10
87.83914224876611
 20
228.71465530613253
 10
83.09825390570276
 20
227.59013346778977
 10
78.47206820898421
 20
226.42548566047662
 10
73.97296961956658
 20
225.22967784814796
 10
69.61447521870346
 20
224.00469467601462
 10
65.40021406603466
 20
222.75257707207433
 10
61.33560064374089
 20
221.47633253035204
 10
57.4184858748207
 20
220.17709378243248
 10
53.65181223313141
 20
218.85900021981377
 10
50.02756712426046
 20
217.52188733261443
 10
46.556458054546596
 20
216.1775832544799
 10
43.234534311883095
 20
214.81230279338035
 10
40.05938599422106
 20
213.43415553762907
 10
37.03899853305998
 20
212.04248718968705
 10
34.17412845757494
 20
210.63780944238286
 10
31.47988677284644
 20
209.22728605854255
 10
28.972075031032546
 20
207.8173852432617
 10
26.655244725617223
 20
206.40860452827826
 10
24.549736403521507
 20
205.03414158644517
 10
22.66540985372211
 20
203.7013817682756
 10
20.995779850763228
 20
202.41847063249412
 10
19.52344095985515
 20
201.19055565700387
 10
18.239467172198175
 20
200.03801292772914
 10
17.105611232332365
 20
198.91972848641157
 10
16.105568094756194
 20
197.8724687450109
 10
15.230745227944482
 20
196.8868848655566
 10
14.461862853752649
 20
195.94143209867028
 10
13.784948483522129
 20
195.03489375942792
 10
13.19517592445726
 20
194.17647866162937
 10
12.682039035093709
 20
193.34594119628628
 10
12.232333570792207
 20
192.5345367053149
 10
11.841681141998862
 20
191.7586069609956
 10
11.504534728798603
 20
191.00633034622905
 10
11.213703789599322
 20
190.27281290900234
 10
10.967202706361263
 20
189.57352325719555
 10
10.761546324064284
 20
188.8908889687366
 10
10.593669387471436
 20
188.2365002696864
 10
10.471564220727004
 20
187.67453440694766
 10
10.4020943510657
 20
187.03693692284193
 10
10.35644450590678
 20
186.34384269862403
 10
10.344660658125036
 20
185.78680748860802
 10
10.369634986019662
 20
185.17177709545547
 10
10.443725660806393
 20
184.54669332508695
 10
10.575163152110292
 20
183.90818623336628
 10
10.769494036248659
 20
183.25866857608906
 10
11.034778809119501
 20
182.59786979578539
 10
11.381020860288942
 20
181.923498840549
 10
11.815394938827893
 20
181.23603590410988
 10
12.34118384944091
 20
180.53958790003892
 10
12.963380022374025
 20
179.8385883163526
 10
13.692007996475468
 20
179.13606096940208
 10
14.545771690675707
 20
178.4310434178674
 10
15.546010026863712
 20
177.7188121112621
 10
16.699026363614337
 20
176.99778257595034
 10
18.010757386847644
 20
176.27381815446242
 10
19.517390415556406
 20
175.55375010214536
 10
21.251106050517052
 20
174.8350288968363
 10
23.209453605303764
 20
174.11167343061325
 10
25.364949930726226
 20
173.39320093025722
 10
27.716042307188843
 20
172.70335984817402
 10
30.24981138436874
 20
172.03992606643524
 10
32.91605305247762
 20
171.4046724125291
 10
35.700599895041705
 20
170.80943247052164
 10
38.60762757622555
 20
170.25323131215404
 10
41.64401453362592
 20
169.71914658638
 10
44.77851638195324
 20
169.19083767555693
 10
47.97891086400688
 20
168.6788388026298
 10
51.27805466086764
 20
168.2036997486875
 10
54.71811892757336
 20
167.74976534724723
 10
58.28290855422887
 20
167.29417226555216
 10
61.96765844127694
 20
166.8424937054
 10
65.78368622866591
 20
166.40229304204792
 10
69.74969672920105
 20
165.97931234368536
 10
73.89026950388097
 20
165.57253912242342
 10
78.21831901766433
 20
165.1760352021509
 10
82.73881522554245
 20
164.78855844882722
 10
87.452745962627
 20
164.4100081113263
 10
92.34857233692554
 20
164.04366408284994
 10
97.42458482525981
 20
163.69769094468154
 10
102.66726016759924
 20
163.36722207766022
 10
108.07492653996047
 20
163.06703148579342
 10
113.6357825623511
 20
162.78914012523342
 10
119.3256346184115
 20
162.5288997446955
 10
125.12643824868607
 20
162.29183013264574
 10
128.7005821932157
 20
162.16114193079486
 10
128.66404171607047
 20
161.16180975702576
 10
130.98926591986083
 20
161.0767842579732
 10
136.96635274106717
 20
160.88191023444398
 10
143.01156694459792
 20
160.70920350185477
 10
149.12324010503806
 20
160.55706483787682
 10
155.29290957425022
 20
160.41860159415916
 10
161.49696456781027
 20
160.28899147544087
 10
167.71538498339515
 20
160.1712321540251
 10
173.94919055278902
 20
160.07036071186462
 10
180.21194035414433
 20
159.98529860084398
 10
186.5104249918822
 20
159.9098505105493
 10
192.83629433808653
 20
159.83883025072316
 10
199.17585713336865
 20
159.76992243465787
 10
205.51877538549633
 20
159.70374517612046
 10
211.85529947802752
 20
159.64389616617729
 10
218.19252497508373
 20
159.5958098656768
 10
224.54550430742998
 20
159.55906356210414
 10
230.91921206489695
 20
159.52828387272558
 10
237.30688783508845
 20
159.50049576191932
 10
243.7042111833011
 20
159.47528117076044
 10
250.10559028272755
 20
159.45137554048463
 10
256.5045417648754
 20
159.42621472738392
 10
262.89413754533234
 20
159.4020253826753
 10
269.2707593761289
 20
159.38445405017228
 10
275.64130097443643
 20
159.37714727066472
 10
282.0136821202917
 20
159.3779759564287
 10
288.3869891842304
 20
159.37893416011835
 10
294.76164450990234
 20
159.3747080131863
 10
301.1362776350288
 20
159.36748063208992
 10
307.5083405342122
 20
159.3645820946325
 10
312.6376146725978
 20
159.36838848642896
 10
312.63761468710516
 20
233.08220101050307
  0
LWPOLYLINE
  5
8D
330
17
100
AcDbEntity
  8
NumLabel
 62
1
100
AcDbPolyline
 90
2
 70
0
 10
184.4770642201835
 20
179.7362385321101
 10
182.4770642201835
 20
179.7362385321101
  0
LWPOLYLINE
  5
8E
330
17
100
AcDbEntity
  8
NumLabel
 62
1
100
AcDbPolyline
 90
4
 70
0
 10
181.4770642201835
 20
179.7362385321101
 10
179.4770642201835
 20
179.7362385321101
 10
179.4770642201835
 20
169.7362385321101
 10
181.4770642201835
 20
169.7362385321101
  0
LWPOLYLINE
  5
8F
330
17
100
AcDbEntity
  8
NumLabel
 62
1
100
AcDbPolyline
 90
4
 70
0
 10
182.4770642201835
 20
169.7362385321101
 10
184.4770642201835
 20
169.7362385321101
 10
184.4770642201835
 20
174.7362385321101
 10
182.4770642201835
 20
174.7362385321101
  0
LWPOLYLINE
  5
90
330
17
100
AcDbEntity
  8
NumLabel
 62
1
100
AcDbPolyline
 90
2
 70
0
 10
181.4770642201835
 20
174.7362385321101
 10
179.4770642201835
 20
174.7362385321101
  0
LWPOLYLINE
  5
91
330
17
100
AcDbEntity
  8
NumLabel
 62
1
100
AcDbPolyline
 90
7
 70
0
 10
186.9770642201835
 20
179.7362385321101
 10
191.9770642201835
 20
179.7362385321101
 10
191.9770642201835
 20
174.7362385321101
 10
186.9770642201835
 20
174.7362385321101
 10
191.9770642201835
 20
174.7362385321101
 10
191.9770642201835
 20
169.7362385321101
 10
186.9770642201835
 20
169.7362385321101
  0
LWPOLYLINE
  5
92
330
17
100
AcDbEntity
  8
Layer
100
AcDbPolyline
 90
5
 70
1
 10
177.89181797191458
 20
235.89960400291886
 10
173.89533901161406
 20
235.73180674467136
 10
173.72754175336655
 20
239.72828570497188
 10
177.72402071366707
 20
239.89608296321938
 10
177.89181797191458
 20
235.89960400291886
  0
LWPOLYLINE
  5
93
330
17
100
AcDbEntity
  8
Layer
100
AcDbPolyline
 90
5
 70
1
 10
75.15371195202235
 20
221.40655397518907
 10
71.30295344414188
 20
220.32412203091445
 10
70.22052149986726
 20
224.17488053879492
 10
74.07128000774773
 20
225.25731248306954
 10
75.15371195202235
 20
221.40655397518907
  0
LWPOLYLINE
  5
94
330
17
100
AcDbEntity
  8
Layer
100
AcDbPolyline
 90
5
 70
1
 10
23.804190227213194
 20
198.2496584429915
 10
22.268921804315685
 20
196.96788199225844
 10
19.06448067748308
 20
200.8060530495022
 10
20.59974910038059
 20
202.08782950023524
 10
23.804190227213194
 20
198.2496584429915
  0
LWPOLYLINE
  5
95
330
17
100
AcDbEntity
  8
Layer
100
AcDbPolyline
 90
5
 70
1
 10
17.312871300422724
 20
182.5983415960613
 10
18.944547247349195
 20
181.44178048473964
 10
16.05314446904504
 20
177.36259061742345
 10
14.42146852211857
 20
178.5191517287451
 10
17.312871300422724
 20
182.5983415960613
  0
LWPOLYLINE
  5
96
330
17
100
AcDbEntity
  8
Layer
100
AcDbPolyline
 90
5
 70
1
 10
96.76665137617543
 20
167.74709484969407
 10
100.75873032649191
 20
167.49548870024597
 10
100.50712417704382
 20
163.50340974992952
 10
96.51504522672734
 20
163.7550158993776
 10
96.76665137617543
 20
167.74709484969407
  0
LWPOLYLINE
  5
97
330
17
100
AcDbEntity
  8
Layer
100
AcDbPolyline
 90
300
 70
1
 10
274.0558371559633
 20
200.0
 10
274.0483191192542
 20
200.72167788712028
 10
274.02576832888025
 20
201.44303710160165
 10
273.9881947426357
 20
202.16375911152213
 10
273.93561495195854
 20
202.88352566633122
 10
273.86805217460403
 20
203.60201893738068
 10
273.78553624439274
 20
204.31892165826832
 10
273.68810359803655
 20
205.0339172649343
 10
273.5757972590492
 20
205.74669003544662
 10
273.4486668187485
 20
206.45692522941522
 10
273.306768414358
 20
207.1643092269724
 10
273.1501647042184
 20
207.86852966725846
 10
272.97892484011965
 20
208.5692755863516
 10
272.793124436765
 20
209.26623755458078
 10
272.59284553838216
 20
209.9591078131611
 10
272.37817658249463
 20
210.64758041009142
 10
272.14921236087
 20
211.33135133525428
 10
271.9060539776631
 20
212.01011865465807
 10
271.6488088047706
 20
212.6835826437626
 10
271.37759043441923
 20
213.35144591982908
 10
271.0925186290062
 20
214.01341357323588
 10
270.7937192682156
 20
214.66919329770244
 10
270.4813242934338
 20
215.31849551936338
 10
270.15547164948714
 20
215.96103352463624
 10
269.8163052237302
 20
216.596523586826
 10
269.46397478250867
 20
217.2246850914111
 10
269.09863590502687
 20
217.84524065995447
 10
268.7204499146484
 20
218.45791627258643
 10
268.3295838076602
 20
219.06244138900396
 10
267.92621017953184
 20
219.65854906793376
 10
267.510507148702
 20
220.24597608500588
 10
267.08265827792667
 20
220.82446304898636
 10
266.6428524932227
 20
221.39375451631696
 10
266.1912840004435
 20
221.95359910391196
 10
265.72815219952344
 20
222.50374960016168
 10
265.25366159642806
 20
223.0439630740944
 10
264.7680217128502
 20
223.57400098264762
 10
264.27144699369114
 20
224.0936292760021
 10
263.76415671236776
 20
224.60261850093167
 10
263.24637487398746
 20
225.1007439021232
 10
262.7183301164339
 20
225.58778552142235
 10
262.18025560940697
 20
226.0635282949608
 10
261.6323889514615
 20
226.52776214812246
 10
261.07497206509066
 20
226.98028208830647
 10
260.5082510898995
 20
227.42088829544625
 10
259.9324762739168
 20
227.8493862102443
 10
259.34790186309255
 20
228.26558662008406
 10
258.7547859890302
 20
228.66930574258117
 10
258.1533905550028
 20
229.06036530673626
 10
257.543981120304
 20
229.43859263165456
 10
256.92682678298473
 20
229.80382070279694
 10
256.3022000610266
 20
230.15588824572873
 10
255.67037677200616
 20
230.49463979733414
 10
255.03163591130124
 20
230.8199257744642
 10
254.38625952889464
 20
231.13160253998856
 10
253.7345326048288
 20
231.42953246622164
 10
253.07674292336642
 20
231.7135839956951
 10
252.41318094591338
 20
231.98363169924988
 10
251.74413968275888
 20
232.23955633142228
 10
251.06991456369045
 20
232.48124488309927
 10
250.39080330754044
 20
232.70859063142024
 10
249.70710579072178
 20
232.92149318690278
 10
249.0191239148111
 20
233.11985853777185
 10
248.32716147323725
 20
233.30359909147268
 10
247.63152401713495
 20
233.47263371334935
 10
246.93251872042177
 20
233.62688776247126
 10
246.23045424415898
 20
233.7662931245928
 10
245.52564060025534
 20
233.89078824223049
 10
244.8183890145747
 20
234.000318141845
 10
244.10901178950735
 20
234.09483445811617
 10
243.3978221660661
 20
234.17429545529933
 10
242.68513418556785
 20
234.23866604565515
 10
241.97126255096182
 20
234.287917804943
 10
241.2565224878655
 20
234.32202898497243
 10
240.54122960537006
 20
234.34098452320669
 10
239.82569975667604
 20
234.34477604941364
 10
239.1102488996217
 20
234.3334018893621
 10
238.39519295716465
 20
234.30686706556094
 10
237.68084767787954
 20
234.26518329504134
 10
236.967528496532
 20
234.20836898418293
 10
236.25555039479178
 20
234.13644922058597
 10
235.5452277621456
 20
234.04945576199353
 10
234.83687425707163
 20
233.94742702226785
 10
234.13080266853677
 20
233.83040805442823
 10
233.42732477787774
 20
233.69845053075662
 10
232.72675122112742
 20
233.55161271998074
 10
232.02939135184647
 20
233.38995946154418
 10
231.3355531045217
 20
233.2135621369751
 10
230.64554285859074
 20
233.02249863836627
 10
229.95966530315368
 20
232.81685333398002
 10
229.27822330243072
 20
232.59671703099363
 10
228.60151776202602
 20
232.36218693540138
 10
227.92984749605617
 20
232.1133666090912
 10
227.26350909520235
 20
231.85036592411464
 10
226.60279679574415
 20
231.57330101417034
 10
225.94800234963324
 20
231.28229422332294
 10
225.2994148956638
 20
230.97747405197902
 10
224.657320831797
 20
230.6589751001452
 10
224.02200368869578
 20
230.32693800799257
 10
223.39374400452562
 20
229.98150939375375
 10
222.7728192010768
 20
229.6228417889806
 10
222.1595034612628
 20
229.25109357119047
 10
221.55406760804877
 20
228.8664288939312
 10
220.95677898486377
 20
228.46901761429547
 10
220.36790133754945
 20
228.05903521791686
 10
219.78769469789725
 20
227.63666274148008
 10
219.2164152688258
 20
227.20208669278048
 10
218.65431531124878
 20
226.75549896836736
 10
218.1016430326837
 20
226.29709676880782
 10
217.55864247765044
 20
225.8270825116087
 10
217.02555341990796
 20
225.34566374183447
 10
216.50261125657713
 20
224.85305304046142
 10
215.99004690419585
 20
224.3494679305077
 10
215.48808669675284
 20
223.83513078098136
 10
214.99695228574495
 20
223.31026870868845
 10
214.5168605423021
 20
222.77511347794464
 10
214.04802346142307
 20
222.22990139823457
 10
213.59064806836446
 20
221.67487321986434
 10
213.14493632722417
 20
221.1102740276528
 10
212.71108505175982
 20
220.53635313270908
 10
212.28928581848126
 20
219.95336396234393
 10
211.87972488205577
 20
219.3615639481631
 10
211.4825830930632
 20
218.76121441239306
 10
211.09803581813765
 20
218.15258045248822
 10
210.72625286253026
 20
217.53593082407158
 10
210.36739839512808
 20
216.91153782225965
 10
210.02163087596176
 20
216.27967716142462
 10
209.68910298623405
 20
215.6406278534467
 10
209.36996156089995
 20
214.99467208451034
 10
209.06434752382873
 20
214.34209509049873
 10
208.77239582557576
 20
213.6831850310416
 10
208.49423538379224
 20
213.01823286227216
 10
208.22998902629868
 20
212.34753220834895
 10
207.97977343684775
 20
211.67137923179973
 10
207.74369910359985
 20
210.9900725027445
 10
207.52187027033483
 20
210.30391286705523
 10
207.31438489042068
 20
209.61320331351084
 10
207.12133458356027
 20
208.91824884000593
 10
206.94280459533448
 20
208.21935631887223
 10
206.77887375956027
 20
207.51683436137245
 10
206.62961446347992
 20
206.8109931814262
 10
206.49509261579675
 20
206.10214445862832
 10
206.37536761757175
 20
205.39060120061987
 10
206.2704923359937
 20
204.67667760487285
 10
206.18051308103466
 20
203.96068891994938
 10
206.10546958500055
 20
203.2429513062968
 10
206.04539498498664
 20
202.52378169664016
 10
206.00031580824518
 20
201.80349765603364
 10
205.97025196047156
 20
201.08241724163275
 10
205.95521671701462
 20
200.36085886224924
 10
205.95521671701462
 20
199.63914113775076
 10
205.97025196047156
 20
198.91758275836725
 10
206.00031580824518
 20
198.19650234396636
 10
206.04539498498664
 20
197.47621830335984
 10
206.10546958500055
 20
196.75704869370318
 10
206.18051308103466
 20
196.03931108005062
 10
206.2704923359937
 20
195.32332239512715
 10
206.37536761757175
 20
194.60939879938013
 10
206.49509261579675
 20
193.89785554137168
 10
206.62961446347992
 20
193.1890068185738
 10
206.7788737595603
 20
192.48316563862755
 10
206.94280459533448
 20
191.78064368112777
 10
207.12133458356027
 20
191.08175115999407
 10
207.31438489042068
 20
190.38679668648916
 10
207.52187027033483
 20
189.69608713294477
 10
207.74369910359985
 20
189.0099274972555
 10
207.97977343684772
 20
188.32862076820027
 10
208.22998902629868
 20
187.65246779165105
 10
208.49423538379224
 20
186.98176713772784
 10
208.77239582557579
 20
186.3168149689584
 10
209.06434752382873
 20
185.65790490950127
 10
209.36996156089995
 20
185.00532791548966
 10
209.68910298623405
 20
184.3593721465533
 10
210.02163087596176
 20
183.72032283857538
 10
210.36739839512808
 20
183.08846217774035
 10
210.72625286253026
 20
182.46406917592842
 10
211.09803581813765
 20
181.84741954751175
 10
211.4825830930632
 20
181.23878558760694
 10
211.87972488205574
 20
180.6384360518369
 10
212.28928581848126
 20
180.04663603765607
 10
212.71108505175982
 20
179.46364686729092
 10
213.14493632722417
 20
178.8897259723472
 10
213.59064806836446
 20
178.32512678013566
 10
214.04802346142307
 20
177.7700986017654
 10
214.5168605423021
 20
177.22488652205536
 10
214.99695228574495
 20
176.68973129131155
 10
215.48808669675284
 20
176.16486921901864
 10
215.99004690419585
 20
175.6505320694923
 10
216.50261125657713
 20
175.14694695953858
 10
217.02555341990796
 20
174.65433625816553
 10
217.55864247765044
 20
174.1729174883913
 10
218.1016430326837
 20
173.70290323119218
 10
218.65431531124878
 20
173.24450103163264
 10
219.2164152688258
 20
172.79791330721952
 10
219.78769469789725
 20
172.36333725851992
 10
220.36790133754945
 20
171.94096478208314
 10
220.95677898486377
 20
171.53098238570453
 10
221.55406760804877
 20
171.1335711060688
 10
222.1595034612628
 20
170.74890642880953
 10
222.7728192010768
 20
170.3771582110194
 10
223.39374400452562
 20
170.01849060624625
 10
224.0220036886958
 20
169.67306199200743
 10
224.65732083179702
 20
169.34102489985477
 10
225.2994148956638
 20
169.02252594802098
 10
225.94800234963324
 20
168.7177057766771
 10
226.60279679574415
 20
168.42669898582966
 10
227.26350909520232
 20
168.1496340758854
 10
227.92984749605617
 20
167.8866333909088
 10
228.601517762026
 20
167.63781306459862
 10
229.27822330243072
 20
167.40328296900637
 10
229.95966530315368
 20
167.18314666601998
 10
230.64554285859074
 20
166.97750136163373
 10
231.3355531045217
 20
166.7864378630249
 10
232.02939135184647
 20
166.61004053845582
 10
232.72675122112742
 20
166.44838728001926
 10
233.42732477787777
 20
166.30154946924338
 10
234.13080266853677
 20
166.16959194557177
 10
234.83687425707163
 20
166.05257297773215
 10
235.5452277621456
 20
165.95054423800647
 10
236.25555039479175
 20
165.86355077941403
 10
236.967528496532
 20
165.79163101581707
 10
237.68084767787954
 20
165.73481670495866
 10
238.39519295716465
 20
165.69313293443906
 10
239.11024889962167
 20
165.6665981106379
 10
239.82569975667604
 20
165.65522395058636
 10
240.54122960537006
 20
165.65901547679331
 10
241.2565224878655
 20
165.67797101502757
 10
241.97126255096182
 20
165.712082195057
 10
242.68513418556785
 20
165.76133395434485
 10
243.3978221660661
 20
165.82570454470067
 10
244.10901178950735
 20
165.90516554188383
 10
244.8183890145747
 20
165.999681858155
 10
245.52564060025534
 20
166.10921175776951
 10
246.23045424415898
 20
166.2337068754072
 10
246.93251872042177
 20
166.37311223752874
 10
247.63152401713495
 20
166.52736628665065
 10
248.32716147323725
 20
166.69640090852732
 10
249.01912391481108
 20
166.88014146222815
 10
249.70710579072178
 20
167.07850681309722
 10
250.3908033075404
 20
167.29140936857976
 10
251.06991456369045
 20
167.51875511690073
 10
251.74413968275888
 20
167.76044366857772
 10
252.41318094591338
 20
168.01636830075012
 10
253.07674292336642
 20
168.2864160043049
 10
253.7345326048288
 20
168.57046753377836
 10
254.38625952889467
 20
168.86839746001144
 10
255.03163591130127
 20
169.1800742255358
 10
255.67037677200616
 20
169.50536020266586
 10
256.3022000610266
 20
169.84411175427127
 10
256.92682678298473
 20
170.19617929720306
 10
257.543981120304
 20
170.56140736834544
 10
258.1533905550028
 20
170.93963469326374
 10
258.75478598903015
 20
171.33069425741883
 10
259.34790186309255
 20
171.7344133799159
 10
259.93247627391673
 20
172.1506137897557
 10
260.5082510898995
 20
172.57911170455372
 10
261.07497206509066
 20
173.0197179116935
 10
261.6323889514615
 20
173.47223785187754
 10
262.18025560940697
 20
173.9364717050392
 10
262.7183301164339
 20
174.41221447857765
 10
263.24637487398746
 20
174.8992560978768
 10
263.76415671236776
 20
175.39738149906833
 10
264.27144699369114
 20
175.9063707239979
 10
264.7680217128502
 20
176.4259990173524
 10
265.25366159642806
 20
176.9560369259056
 10
265.72815219952344
 20
177.49625039983832
 10
266.1912840004435
 20
178.04640089608804
 10
266.6428524932227
 20
178.606245483683
 10
267.08265827792667
 20
179.17553695101364
 10
267.510507148702
 20
179.75402391499412
 10
267.92621017953184
 20
180.34145093206624
 10
268.3295838076602
 20
180.93755861099604
 10
268.7204499146484
 20
181.54208372741357
 10
269.09863590502687
 20
182.15475934004553
 10
269.46397478250867
 20
182.7753149085889
 10
269.8163052237302
 20
183.403476413174
 10
270.15547164948714
 20
184.0389664753638
 10
270.4813242934338
 20
184.68150448063662
 10
270.7937192682156
 20
185.33080670229756
 10
271.0925186290062
 20
185.98658642676412
 10
271.37759043441923
 20
186.64855408017092
 10
271.6488088047706
 20
187.3164173562374
 10
271.9060539776631
 20
187.9898813453419
 10
272.14921236087
 20
188.6686486647457
 10
272.37817658249463
 20
189.35241958990855
 10
272.59284553838216
 20
190.0408921868389
 10
272.793124436765
 20
190.73376244541922
 10
272.9789248401196
 20
191.4307244136484
 10
273.1501647042184
 20
192.13147033274154
 10
273.306768414358
 20
192.8356907730276
 10
273.4486668187485
 20
193.54307477058478
 10
273.5757972590492
 20
194.25330996455338
 10
273.68810359803655
 20
194.96608273506573
 10
273.78553624439274
 20
195.68107834173168
 10
273.86805217460403
 20
196.39798106261932
 10
273.93561495195854
 20
197.11647433366875
 10
273.9881947426357
 20
197.83624088847787
 10
274.02576832888025
 20
198.55696289839833
 10
274.0483191192542
 20
199.27832211287972
 10
274.0558371559633
 20
200.0
  0
LWPOLYLINE
  5
98
330
17
100
AcDbEntity
  8
Layer
100
AcDbPolyline
 90
5
 70
1
 10
110.52785281197859
 20
205.00000000000003
 10
115.52785281197859
 20
200.00000000000003
 10
110.52785281197859
 20
195.00000000000003
 10
105.52785281197859
 20
200.00000000000003
 10
110.52785281197859
 20
205.00000000000003
  0
LWPOLYLINE
  5
99
330
17
100
AcDbEntity
  8
Layer
100
AcDbPolyline
 90
5
 70
1
 10
239.26824462705076
 20
205.0
 10
244.26824462705076
 20
200.0
 10
239.26824462705076
 20
195.0
 10
234.26824462705076
 20
200.0
 10
239.26824462705076
 20
205.0
  0
LWPOLYLINE
  5
9A
330
17
100
AcDbEntity
  8
Layer
100
AcDbPolyline
 90
5
 70
1
 10
134.8571402110412
 20
184.9464040742575
 10
139.56563462601108
 20
179.67098178365384
 10
134.29021233540743
 20
174.96248736868398
 10
129.58171792043757
 20
180.23790965928762
 10
134.8571402110412
 20
184.9464040742575
  0
LWPOLYLINE
  5
9B
330
17
100
AcDbEntity
  8
Layer
100
AcDbPolyline
 90
5
 70
1
 10
281.962270475707
 20
176.5931694214463
 10
286.6707648906769
 20
171.31774713084266
 10
281.39534260007326
 20
166.6092527158728
 10
276.6868481851034
 20
171.88467500647644
 10
281.962270475707
 20
176.5931694214463
  0
LWPOLYLINE
  5
9C
330
17
100
AcDbEntity
  8
Layer
100
AcDbPolyline
 90
5
 70
1
 10
155.0045871559633
 20
189.78632405207085
 10
160.0045871559633
 20
194.78632405207085
 10
165.0045871559633
 20
189.78632405207085
 10
160.0045871559633
 20
184.78632405207085
 10
155.0045871559633
 20
189.78632405207085
  0
LWPOLYLINE
  5
9D
330
17
100
AcDbEntity
  8
Layer
100
AcDbPolyline
 90
5
 70
1
 10
155.0045871559633
 20
209.47159979211713
 10
160.0045871559633
 20
214.47159979211713
 10
165.0045871559633
 20
209.47159979211713
 10
160.0045871559633
 20
204.47159979211713
 10
155.0045871559633
 20
209.47159979211713
  0
LINE
  5
9E
330
17
100
AcDbEntity
  8
Layer
 62
7
100
AcDbLine
 10
18.2009249352638
 20
200.00000000000003
 30
0.0
 11
312.63761467889907
 21
200.0
 31
0.0
  0
LINE
  5
9F
330
17
100
AcDbEntity
  8
Layer
 62
7
100
AcDbLine
 10
104.52785281197859
 20
200.00000000000003
 30
0.0
 11
116.52785281197859
 21
200.00000000000003
 31
0.0
  0
LINE
  5
A0
330
17
100
AcDbEntity
  8
Layer
 62
7
100
AcDbLine
 10
233.26824462705076
 20
200.0
 30
0.0
 11
245.26824462705076
 21
200.0
 31
0.0
  0
LINE
  5
A1
330
17
100
AcDbEntity
  8
Layer
 62
7
100
AcDbLine
 10
10.4000262028689
 20
187.00553656288162
 30
0.0
 11
312.63761467889907
 21
169.84324254296683
 31
0.0
  0
LINE
  5
A2
330
17
100
AcDbEntity
  8
Layer
 62
7
100
AcDbLine
 10
128.58332624988023
 20
180.294602446851
 30
0.0
 11
140.56402629656841
 21
179.61428899609047
 31
0.0
  0
LINE
  5
A3
330
17
100
AcDbEntity
  8
Layer
 62
7
100
AcDbLine
 10
275.68845651454603
 20
171.94136779403982
 30
0.0
 11
287.6691565612342
 21
171.26105434327928
 31
0.0
  0
LINE
  5
A4
330
17
100
AcDbEntity
  8
Layer
100
AcDbLine
 10
240.0045871559633
 20
234.34524999999996
 30
0.0
 11
240.0045871559633
 21
235.34524999999996
 31
0.0
  0
LINE
  5
A5
330
17
100
AcDbEntity
  8
Layer
100
AcDbLine
 10
240.0045871559633
 20
165.65475000000004
 30
0.0
 11
240.0045871559633
 21
164.65475000000004
 31
0.0
  0
LINE
  5
A6
330
17
100
AcDbEntity
  8
Layer
100
AcDbLine
 10
274.0558371559633
 20
200.0
 30
0.0
 11
275.0558371559633
 21
200.0
 31
0.0
  0
LINE
  5
A7
330
17
100
AcDbEntity
  8
Layer
100
AcDbLine
 10
205.95333715596334
 20
200.0
 30
0.0
 11
204.95333715596334
 21
200.0
 31
0.0
  0
LINE
  5
A8
330
17
100
AcDbEntity
  8
Layer
 62
7
100
AcDbLine
 10
160.0045871559633
 20
160.3201690220169
 30
0.0
 11
160.0045871559633
 21
238.9377548221711
 31
0.0
  0
LINE
  5
A9
330
17
100
AcDbEntity
  8
Layer
 62
7
100
AcDbLine
 10
160.0045871559633
 20
183.78632405207085
 30
0.0
 11
160.0045871559633
 21
195.78632405207085
 31
0.0
  0
LINE
  5
AA
330
17
100
AcDbEntity
  8
Layer
 62
7
100
AcDbLine
 10
160.0045871559633
 20
203.47159979211713
 30
0.0
 11
160.0045871559633
 21
215.47159979211713
 31
0.0
  0
ENDSEC
  0
SECTION
  2
OBJECTS
  0
DICTIONARY
  5
A
330
0
100
AcDbDictionary
280
0
281
1
  3
ACAD_COLOR
350
B
  3
ACAD_GROUP
350
C
  3
ACAD_LAYOUT
350
D
  3
ACAD_MATERIAL
350
E
  3
ACAD_MLEADERSTYLE
350
F
  3
ACAD_MLINESTYLE
350
10
  3
ACAD_PLOTSETTINGS
350
11
  3
ACAD_PLOTSTYLENAME
350
12
  3
ACAD_SCALELIST
350
14
  3
ACAD_TABLESTYLE
350
15
  3
ACAD_VISUALSTYLE
350
16
  3
EZDXF_META
350
2D
  0
DICTIONARY
  5
B
330
A
100
AcDbDictionary
280
0
281
1
  0
DICTIONARY
  5
C
330
A
100
AcDbDictionary
280
0
281
1
  0
DICTIONARY
  5
D
330
A
100
AcDbDictionary
280
0
281
1
  3
Model
350
1A
  3
Layout1
350
1E
  0
DICTIONARY
  5
E
330
A
100
AcDbDictionary
280
0
281
1
  3
ByBlock
350
1F
  3
ByLayer
350
20
  3
Global
350
21
  0
DICTIONARY
  5
F
330
A
100
AcDbDictionary
280
0
281
1
  3
Standard
350
2C
  0
DICTIONARY
  5
10
330
A
100
AcDbDictionary
280
0
281
1
  3
Standard
350
22
  0
DICTIONARY
  5
11
330
A
100
AcDbDictionary
280
0
281
1
  0
ACDBDICTIONARYWDFLT
  5
12
330
A
100
AcDbDictionary
280
0
281
1
  3
Normal
350
13
100
AcDbDictionaryWithDefault
340
13
  0
ACDBPLACEHOLDER
  5
13
330
12
  0
DICTIONARY
  5
14
330
A
100
AcDbDictionary
280
0
281
1
  0
DICTIONARY
  5
15
330
A
100
AcDbDictionary
280
0
281
1
  0
DICTIONARY
  5
16
330
A
100
AcDbDictionary
280
0
281
1
  3
2dWireframe
350
5A
  3
Basic
350
5B
  3
Brighten
350
5C
  3
ColorChange
350
5D
  3
Conceptual
350
5E
  3
Dim
350
5F
  3
EdgeColorOff
350
60
  3
Facepattern
350
61
  3
Flat
350
62
  3
FlatWithEdges
350
63
  3
Gouraud
350
64
  3
GouraudWithEdges
350
65
  3
Hidden
350
66
  3
JitterOff
350
67
  3
Linepattern
350
68
  3
Modeling
350
69
  3
OverhangOff
350
6A
  3
Realistic
350
6B
  3
Shaded
350
6C
  3
Shaded with edges
350
6D
  3
Shades of Gray
350
6E
  3
Sketchy
350
6F
  3
Thicken
350
70
  3
Wireframe
350
71
  3
X-Ray
350
72
  0
LAYOUT
  5
1A
330
D
100
AcDbPlotSettings
  1

  2
Adobe PDF
  4
A3
  6

 40
7.5
 41
20.0
 42
7.5
 43
20.0
 44
420.0
 45
297.0
 46
0.0
 47
0.0
 48
0.0
 49
0.0
140
0.0
141
0.0
142
1.0
143
1.0
 70
1024
 72
1
 73
0
 74
5
  7

 75
16
 76
0
 77
2
 78
300
147
1.0
148
0.0
149
0.0
100
AcDbLayout
  1
Model
 70
1
 71
0
 10
0.0
 20
0.0
 11
420.0
 21
297.0
 12
0.0
 22
0.0
 32
0.0
 14
1e+20
 24
1e+20
 34
1e+20
 15
-1e+20
 25
-1e+20
 35
-1e+20
146
0.0
 13
0.0
 23
0.0
 33
0.0
 16
1.0
 26
0.0
 36
0.0
 17
0.0
 27
1.0
 37
0.0
 76
1
330
17
  0
LAYOUT
  5
1E
330
D
100
AcDbPlotSettings
  1

  2
Adobe PDF
  4
A3
  6

 40
7.5
 41
20.0
 42
7.5
 43
20.0
 44
420.0
 45
297.0
 46
0.0
 47
0.0
 48
0.0
 49
0.0
140
0.0
141
0.0
142
1.0
143
1.0
 70
0
 72
1
 73
0
 74
5
  7

 75
16
 76
0
 77
2
 78
300
147
1.0
148
0.0
149
0.0
100
AcDbLayout
  1
Layout1
 70
1
 71
1
 10
0.0
 20
0.0
 11
420.0
 21
297.0
 12
0.0
 22
0.0
 32
0.0
 14
1e+20
 24
1e+20
 34
1e+20
 15
-1e+20
 25
-1e+20
 35
-1e+20
146
0.0
 13
0.0
 23
0.0
 33
0.0
 16
1.0
 26
0.0
 36
0.0
 17
0.0
 27
1.0
 37
0.0
 76
1
330
1B
  0
MATERIAL
  5
1F
102
{ACAD_REACTORS
330
E
102
}
330
E
100
AcDbMaterial
  1
ByBlock
  2

 70
0
 40
1.0
 71
1
 41
1.0
 91
-1023410177
 42
1.0
 72
1
  3

 73
1
 74
1
 75
1
 44
0.5
 73
0
 45
1.0
 46
1.0
 77
1
  4

 78
1
 79
1
170
1
 48
1.0
171
1
  6

172
1
173
1
174
1
140
1.0
141
1.0
175
1
  7

176
1
177
1
178
1
143
1.0
179
1
  8

270
1
271
1
272
1
145
1.0
146
1.0
273
1
  9

274
1
275
1
276
1
 42
1.0
 72
1
  3

 73
1
 74
1
 75
1
 94
63
  0
MATERIAL
  5
20
102
{ACAD_REACTORS
330
E
102
}
330
E
100
AcDbMaterial
  1
ByLayer
  2

 70
0
 40
1.0
 71
1
 41
1.0
 91
-1023410177
 42
1.0
 72
1
  3

 73
1
 74
1
 75
1
 44
0.5
 73
0
 45
1.0
 46
1.0
 77
1
  4

 78
1
 79
1
170
1
 48
1.0
171
1
  6

172
1
173
1
174
1
140
1.0
141
1.0
175
1
  7

176
1
177
1
178
1
143
1.0
179
1
  8

270
1
271
1
272
1
145
1.0
146
1.0
273
1
  9

274
1
275
1
276
1
 42
1.0
 72
1
  3

 73
1
 74
1
 75
1
 94
63
  0
MATERIAL
  5
21
102
{ACAD_REACTORS
330
E
102
}
330
E
100
AcDbMaterial
  1
Global
  2

 70
0
 40
1.0
 71
1
 41
1.0
 91
-1023410177
 42
1.0
 72
1
  3

 73
1
 74
1
 75
1
 44
0.5
 73
0
 45
1.0
 46
1.0
 77
1
  4

 78
1
 79
1
170
1
 48
1.0
171
1
  6

172
1
173
1
174
1
140
1.0
141
1.0
175
1
  7

176
1
177
1
178
1
143
1.0
179
1
  8

270
1
271
1
272
1
145
1.0
146
1.0
273
1
  9

274
1
275
1
276
1
 42
1.0
 72
1
  3

 73
1
 74
1
 75
1
 94
63
  0
MLINESTYLE
  5
22
102
{ACAD_REACTORS
330
10
102
}
330
10
100
AcDbMlineStyle
  2
Standard
 70
0
  3

 62
256
 51
90.0
 52
90.0
 71
2
 49
0.5
 62
256
  6
BYLAYER
 49
-0.5
 62
256
  6
BYLAYER
  0
MLEADERSTYLE
  5
2C
102
{ACAD_REACTORS
330
F
102
}
330
F
100
AcDbMLeaderStyle
179
2
170
2
171
1
172
0
 90
2
 40
0.0
 41
0.0
173
1
 91
-1056964608
 92
-2
290
1
 42
2.0
291
1
 43
8.0
  3
Standard
 44
4.0
300

342
29
174
1
175
1
176
0
178
1
 93
-1056964608
 45
4.0
292
0
297
0
 46
4.0
 94
-1056964608
 47
1.0
 49
1.0
140
1.0
294
1
141
0.0
177
0
142
1.0
295
0
296
0
143
3.75
271
0
272
9
273
9
  0
DICTIONARY
  5
2D
330
A
100
AcDbDictionary
281
1
  3
CREATED_BY_EZDXF
350
2E
  3
WRITTEN_BY_EZDXF
350
AD
  0
DICTIONARYVAR
  5
2E
330
2D
100
DictionaryVariables
280
0
  1
1.3.0 @ 2026-01-06T17:07:23.187192+00:00
  0
VISUALSTYLE
  5
5A
102
{ACAD_REACTORS
330
16
102
}
330
16
100
AcDbVisualStyle
  2
2dWireframe
 70
4
 90
0
 40
0.6
 62
7
290
0
291
0
  0
VISUALSTYLE
  5
5B
102
{ACAD_REACTORS
330
16
102
}
330
16
100
AcDbVisualStyle
  2
Basic
 70
7
 90
1
 40
0.6
 62
7
290
0
291
1
  0
VISUALSTYLE
  5
5C
102
{ACAD_REACTORS
330
16
102
}
330
16
100
AcDbVisualStyle
  2
Brighten
 70
12
 90
2
 40
0.6
 62
7
290
0
291
1
  0
VISUALSTYLE
  5
5D
102
{ACAD_REACTORS
330
16
102
}
330
16
100
AcDbVisualStyle
  2
ColorChange
 70
16
 90
2
 40
0.6
 62
8
290
0
291
1
  0
VISUALSTYLE
  5
5E
102
{ACAD_REACTORS
330
16
102
}
330
16
100
AcDbVisualStyle
  2
Conceptual
 70
9
 90
3
 40
0.6
 62
7
290
0
291
0
  0
VISUALSTYLE
  5
5F
102
{ACAD_REACTORS
330
16
102
}
330
16
100
AcDbVisualStyle
  2
Dim
 70
11
 90
2
 40
0.6
 62
7
290
0
291
1
  0
VISUALSTYLE
  5
60
102
{ACAD_REACTORS
330
16
102
}
330
16
100
AcDbVisualStyle
  2
EdgeColorOff
 70
22
 90
2
 40
0.6
 62
7
290
0
291
1
  0
VISUALSTYLE
  5
61
102
{ACAD_REACTORS
330
16
102
}
330
16
100
AcDbVisualStyle
  2
Facepattern
 70
15
 90
2
 40
0.6
 62
7
290
0
291
1
  0
VISUALSTYLE
  5
62
102
{ACAD_REACTORS
330
16
102
}
330
16
100
AcDbVisualStyle
  2
Flat
 70
0
 90
2
 40
0.6
 62
7
290
0
291
1
  0
VISUALSTYLE
  5
63
102
{ACAD_REACTORS
330
16
102
}
330
16
100
AcDbVisualStyle
  2
FlatWithEdges
 70
1
 90
2
 40
0.6
 62
7
290
0
291
1
  0
VISUALSTYLE
  5
64
102
{ACAD_REACTORS
330
16
102
}
330
16
100
AcDbVisualStyle
  2
Gouraud
 70
2
 90
2
 40
0.6
 62
7
290
0
291
1
  0
VISUALSTYLE
  5
65
102
{ACAD_REACTORS
330
16
102
}
330
16
100
AcDbVisualStyle
  2
GouraudWithEdges
 70
3
 90
2
 40
0.6
 62
7
290
0
291
1
  0
VISUALSTYLE
  5
66
102
{ACAD_REACTORS
330
16
102
}
330
16
100
AcDbVisualStyle
  2
Hidden
 70
6
 90
1
 40
0.6
 62
7
290
0
291
0
  0
VISUALSTYLE
  5
67
102
{ACAD_REACTORS
330
16
102
}
330
16
100
AcDbVisualStyle
  2
JitterOff
 70
20
 90
2
 40
0.6
 62
7
290
0
291
1
  0
VISUALSTYLE
  5
68
102
{ACAD_REACTORS
330
16
102
}
330
16
100
AcDbVisualStyle
  2
Linepattern
 70
14
 90
2
 40
0.6
 62
7
290
0
291
1
  0
VISUALSTYLE
  5
69
102
{ACAD_REACTORS
330
16
102
}
330
16
100
AcDbVisualStyle
  2
Modeling
 70
10
 90
2
 40
0.6
 62
7
290
0
291
0
  0
VISUALSTYLE
  5
6A
102
{ACAD_REACTORS
330
16
102
}
330
16
100
AcDbVisualStyle
  2
OverhangOff
 70
21
 90
2
 40
0.6
 62
7
290
0
291
1
  0
VISUALSTYLE
  5
6B
102
{ACAD_REACTORS
330
16
102
}
330
16
100
AcDbVisualStyle
  2
Realistic
 70
8
 90
2
 40
0.6
 62
7
290
0
291
0
  0
VISUALSTYLE
  5
6C
102
{ACAD_REACTORS
330
16
102
}
330
16
100
AcDbVisualStyle
  2
Shaded
 70
27
 90
2
 40
0.6
 62
7
290
0
291
0
  0
VISUALSTYLE
  5
6D
102
{ACAD_REACTORS
330
16
102
}
330
16
100
AcDbVisualStyle
  2
Shaded with edges
 70
26
 90
2
 40
0.6
 62
7
290
0
291
0
  0
VISUALSTYLE
  5
6E
102
{ACAD_REACTORS
330
16
102
}
330
16
100
AcDbVisualStyle
  2
Shades of Gray
 70
23
 90
2
 40
0.6
 62
7
290
0
291
0
  0
VISUALSTYLE
  5
6F
102
{ACAD_REACTORS
330
16
102
}
330
16
100
AcDbVisualStyle
  2
Sketchy
 70
24
 90
1
 40
0.6
 62
7
290
0
291
0
  0
VISUALSTYLE
  5
70
102
{ACAD_REACTORS
330
16
102
}
330
16
100
AcDbVisualStyle
  2
Thicken
 70
13
 90
2
 40
0.6
 62
7
290
0
291
1
  0
VISUALSTYLE
  5
71
102
{ACAD_REACTORS
330
16
102
}
330
16
100
AcDbVisualStyle
  2
Wireframe
 70
5
 90
0
 40
0.6
 62
7
290
0
291
0
  0
VISUALSTYLE
  5
72
102
{ACAD_REACTORS
330
16
102
}
330
16
100
AcDbVisualStyle
  2
X-Ray
 70
25
 90
2
 40
0.5
 62
7
290
0
291
0
  0
DICTIONARYVAR
  5
AD
330
2D
100
DictionaryVariables
280
0
  1
1.3.0 @ 2026-01-06T17:07:23.207543+00:00
  0
ENDSEC
  0
EOF
