<?xml version="1.0" encoding="utf-8" standalone="no"?>
<!DOCTYPE svg PUBLIC "-//W3C//DTD SVG 1.1//EN"
  "http://www.w3.org/Graphics/SVG/1.1/DTD/svg11.dtd">
<svg xmlns:xlink="http://www.w3.org/1999/xlink" width="1152pt" height="184.117399pt" viewBox="0 0 1152 184.117399" xmlns="http://www.w3.org/2000/svg" version="1.1">
 <metadata>
  <rdf:RDF xmlns:dc="http://purl.org/dc/elements/1.1/" xmlns:cc="http://creativecommons.org/ns#" xmlns:rdf="http://www.w3.org/1999/02/22-rdf-syntax-ns#">
   <cc:Work>
    <dc:type rdf:resource="http://purl.org/dc/dcmitype/StillImage"/>
    <dc:date>2026-01-07T02:07:12.507478</dc:date>
    <dc:format>image/svg+xml</dc:format>
    <dc:creator>
     <cc:Agent>
      <dc:title>Matplotlib v3.10.1, https://matplotlib.org/</dc:title>
     </cc:Agent>
    </dc:creator>
   </cc:Work>
  </rdf:RDF>
 </metadata>
 <defs>
  <style type="text/css">*{stroke-linejoin: round; stroke-linecap: butt}</style>
 </defs>
 <g id="figure_1">
  <g id="patch_1">
   <path d="M 0 184.117399 
L 1152 184.117399 
L 1152 0 
L 0 0 
z
" style="fill: #ffffff"/>
  </g>
  <g id="axes_1">
   <g id="patch_2">
    <path d="M 0 184.117399 
L 1152 184.117399 
L 1152 0 
L 0 0 
z
" style="fill: #212830"/>
   </g>
   <g id="patch_3">
    <path d="M 1099.487301 174.771125 
L 1077.179634 166.841119 
L 1034.578795 152.15669 
L 994.977959 138.111696 
L 911.473376 108.289536 
L 880.109328 97.364926 
L 859.296832 90.28699 
L 842.013673 84.547974 
L 841.657802 85.629067 
L 827.893621 81.151948 
L 807.271997 74.643675 
L 786.670495 68.395746 
L 766.052168 62.41374 
L 745.395182 56.702358 
L 724.683364 51.267588 
L 703.911004 46.118825 
L 683.07247 41.267365 
L 662.166765 36.725113 
L 641.190235 32.501676 
L 620.146137 28.603365 
L 599.038967 25.036011 
L 577.873201 21.807297 
L 556.636516 18.925419 
L 535.326599 16.391187 
L 513.955803 14.192802 
L 492.567527 12.331722 
L 471.183516 10.824684 
L 449.82738 9.669576 
L 428.530001 8.873313 
L 407.319922 8.442715 
L 386.219701 8.389248 
L 365.261911 8.710171 
L 344.484899 9.42346 
L 323.916447 10.533197 
L 303.600579 12.043809 
L 293.555763 12.949769 
L 283.597599 13.961153 
L 273.727116 15.081424 
L 263.948311 16.308154 
L 254.272227 17.638381 
L 244.709757 19.071822 
L 235.271217 20.607905 
L 225.974555 22.243915 
L 216.83791 23.981434 
L 207.870609 25.821234 
L 199.084743 27.754168 
L 190.50694 29.767429 
L 182.164843 31.856155 
L 174.078398 34.017081 
L 166.267155 36.240899 
L 158.750767 38.516637 
L 151.543169 40.831944 
L 138.119135 45.500859 
L 131.935487 47.827177 
L 120.616635 52.432736 
L 110.628122 56.900265 
L 101.869608 61.186622 
L 94.209153 65.27904 
L 87.503699 69.201429 
L 81.615828 72.969686 
L 76.453491 76.59518 
L 71.92863 80.118065 
L 67.944613 83.531841 
L 64.440607 86.809384 
L 61.417279 89.962285 
L 58.886611 93.044218 
L 56.807994 96.087553 
L 55.119436 99.068383 
L 53.822167 101.918311 
L 52.945958 104.65233 
L 52.47102 107.238855 
L 52.363636 109.911922 
L 52.462298 111.204506 
L 52.67225 112.477617 
L 53.005889 113.730153 
L 53.476448 114.968057 
L 54.091191 116.196569 
L 54.847087 117.41425 
L 55.734507 118.612947 
L 56.748331 119.784533 
L 57.891767 120.924666 
L 59.172344 122.03248 
L 62.155139 124.150934 
L 65.699185 126.150432 
L 69.811574 128.055523 
L 74.522966 129.874658 
L 79.900804 131.620036 
L 86.030841 133.325583 
L 93.024128 135.01831 
L 101.050665 136.705606 
L 110.325251 138.40551 
L 121.097631 140.117064 
L 133.639502 141.830363 
L 148.146268 143.515293 
L 164.670145 145.118003 
L 183.035914 146.580903 
L 202.925566 147.862864 
L 223.982133 148.943026 
L 245.927747 149.828641 
L 258.573889 150.247261 
L 258.538822 151.38488 
L 291.683359 152.339295 
L 315.02627 152.819911 
L 386.70867 153.899046 
L 483.93081 154.753989 
L 712.683013 156.286883 
L 747.716696 156.710785 
L 782.52156 157.098464 
L 828.492383 157.901629 
L 873.78707 159.170334 
L 896.000587 159.945137 
L 939.935227 161.884042 
L 961.263816 163.055461 
L 992.93876 165.136988 
L 1013.336965 166.638697 
L 1032.96471 168.285218 
L 1051.451299 170.024232 
L 1068.399723 171.882878 
L 1090.010029 174.497627 
L 1099.636364 175.748426 
L 1099.487301 174.771125 
L 1099.487301 174.771125 
" clip-path="url(#p7bd9b362ff)" style="fill: none; stroke: #ff0000; stroke-width: 0.72; stroke-linejoin: miter"/>
   </g>
   <g id="patch_4">
    <path d="M 739.440701 59.829554 
L 735.041022 58.659369 
L 736.211207 54.259691 
L 740.610886 55.429876 
L 739.440701 59.829554 
" clip-path="url(#p7bd9b362ff)" style="fill: none; stroke: #ff0000; stroke-width: 0.72; stroke-linejoin: miter"/>
   </g>
   <g id="patch_5">
    <path d="M 344.110016 13.999927 
L 339.562834 14.222726 
L 339.340035 9.675544 
L 343.887217 9.452745 
L 344.110016 13.999927 
" clip-path="url(#p7bd9b362ff)" style="fill: none; stroke: #ff0000; stroke-width: 0.72; stroke-linejoin: miter"/>
   </g>
   <g id="patch_6">
    <path d="M 164.645745 41.488644 
L 160.288487 42.808039 
L 158.969092 38.45078 
L 163.326351 37.131386 
L 164.645745 41.488644 
" clip-path="url(#p7bd9b362ff)" style="fill: none; stroke: #ff0000; stroke-width: 0.72; stroke-linejoin: miter"/>
   </g>
   <g id="patch_7">
    <path d="M 73.969854 85.818295 
L 72.258141 87.31885 
L 68.506754 83.039568 
L 70.218467 81.539013 
L 73.969854 85.818295 
" clip-path="url(#p7bd9b362ff)" style="fill: none; stroke: #ff0000; stroke-width: 0.72; stroke-linejoin: miter"/>
   </g>
   <g id="patch_8">
    <path d="M 63.300973 118.07349 
L 65.195368 119.33559 
L 62.040118 124.071576 
L 60.145724 122.809476 
L 63.300973 118.07349 
" clip-path="url(#p7bd9b362ff)" style="fill: none; stroke: #ff0000; stroke-width: 0.72; stroke-linejoin: miter"/>
   </g>
   <g id="patch_9">
    <path d="M 204.067357 143.36554 
L 208.613291 143.612489 
L 208.366343 148.158424 
L 203.820408 147.911475 
L 204.067357 143.36554 
" clip-path="url(#p7bd9b362ff)" style="fill: none; stroke: #ff0000; stroke-width: 0.72; stroke-linejoin: miter"/>
   </g>
   <g id="line2d_1">
    <path d="M 1078.13814 167.176023 
L 1077.769787 168.252927 
" clip-path="url(#p7bd9b362ff)" style="fill: none; stroke: #ff0000; stroke-width: 0.72; stroke-linecap: square"/>
   </g>
   <g id="line2d_2">
    <path d="M 1077.054938 171.764594 
L 1076.972772 172.899783 
" clip-path="url(#p7bd9b362ff)" style="fill: none; stroke: #ff0000; stroke-width: 0.72; stroke-linecap: square"/>
   </g>
   <g id="line2d_3">
    <path d="M 1056.603328 159.799378 
L 1056.234736 160.8762 
" clip-path="url(#p7bd9b362ff)" style="fill: none; stroke: #ff0000; stroke-width: 0.72; stroke-linecap: square"/>
   </g>
   <g id="line2d_4">
    <path d="M 1054.450548 169.196888 
L 1054.345225 170.330164 
" clip-path="url(#p7bd9b362ff)" style="fill: none; stroke: #ff0000; stroke-width: 0.72; stroke-linecap: square"/>
   </g>
   <g id="line2d_5">
    <path d="M 970.762117 129.432028 
L 970.386191 130.506312 
" clip-path="url(#p7bd9b362ff)" style="fill: none; stroke: #ff0000; stroke-width: 0.72; stroke-linecap: square"/>
   </g>
   <g id="line2d_6">
    <path d="M 963.663221 162.068845 
L 963.568721 163.203074 
" clip-path="url(#p7bd9b362ff)" style="fill: none; stroke: #ff0000; stroke-width: 0.72; stroke-linecap: square"/>
   </g>
   <g id="patch_10">
    <path d="M 510.369048 81.681106 
L 510.254359 77.814228 
L 509.910747 73.962713 
L 509.339578 70.141862 
L 508.54312 66.366858 
L 507.524538 62.652696 
L 506.287879 59.014133 
L 504.838056 55.465626 
L 503.180829 52.021273 
L 501.322782 48.694757 
L 499.271297 45.499295 
L 497.034525 42.447583 
L 494.621353 39.551745 
L 492.041367 36.823285 
L 489.304818 34.273045 
L 486.422579 31.911156 
L 483.406099 29.747002 
L 480.267365 27.78918 
L 477.018846 26.04547 
L 473.673447 24.522799 
L 470.244462 23.227217 
L 466.745511 22.163871 
L 463.190498 21.336985 
L 459.593546 20.749845 
L 455.968945 20.404784 
L 452.331095 20.303172 
L 448.694451 20.445413 
L 445.073461 20.830942 
L 441.48251 21.458228 
L 437.935865 22.324777 
L 434.447617 23.427148 
L 431.031624 24.76096 
L 427.701459 26.320915 
L 424.470352 28.100815 
L 421.35114 30.093588 
L 418.356216 32.291316 
L 415.497478 34.68527 
L 412.786284 37.265936 
L 410.233407 40.023064 
L 407.848987 42.945697 
L 405.642498 46.022226 
L 403.622708 49.240426 
L 401.797639 52.587513 
L 400.174544 56.050187 
L 398.759871 59.614693 
L 397.55924 63.266868 
L 396.577421 66.992202 
L 395.818316 70.775895 
L 395.284939 74.602914 
L 394.979411 78.458055 
L 394.902944 82.326001 
L 395.055844 86.191384 
L 395.437501 90.038849 
L 396.046401 93.853108 
L 396.880123 97.619008 
L 397.935356 101.321588 
L 399.207907 104.946136 
L 400.69272 108.478252 
L 402.383896 111.903905 
L 404.274716 115.209482 
L 406.357668 118.381853 
L 408.624477 121.408412 
L 411.066136 124.277135 
L 413.672944 126.976625 
L 416.434546 129.496158 
L 419.339969 131.825722 
L 422.37767 133.956063 
L 425.53558 135.878716 
L 428.801153 137.586044 
L 432.161416 139.071263 
L 435.603016 140.328472 
L 439.112283 141.352676 
L 442.675272 142.139807 
L 446.277828 142.686737 
L 449.90564 142.991292 
L 453.544292 143.052264 
L 457.17933 142.869409 
L 460.79631 142.443455 
L 464.380864 141.776094 
L 467.918749 140.869976 
L 471.39591 139.728702 
L 474.798531 138.356807 
L 478.113096 136.75974 
L 481.326434 134.943848 
L 484.425779 132.916343 
L 487.398817 130.685282 
L 490.233738 128.259529 
L 492.919277 125.648721 
L 495.444766 122.86323 
L 497.800169 119.914124 
L 499.976131 116.813119 
L 501.964004 113.572535 
L 503.755893 110.205248 
L 505.344677 106.724634 
L 506.724044 103.144523 
L 507.888514 99.479139 
L 508.833461 95.743043 
L 509.55513 91.95108 
L 510.050655 88.118314 
L 510.318066 84.259974 
L 510.369048 81.681106 
L 510.369048 81.681106 
" clip-path="url(#p7bd9b362ff)" style="fill: none; stroke: #ff0000; stroke-width: 0.72; stroke-linejoin: miter"/>
   </g>
   <g id="line2d_7">
    <path d="M 70.064659 81.681106 
L 829.526961 81.681106 
" clip-path="url(#p7bd9b362ff)" style="fill: none; stroke: #ffffff; stroke-width: 0.72; stroke-linecap: square"/>
   </g>
   <g id="line2d_8">
    <path d="M 219.566985 81.681106 
L 233.224896 81.681106 
" clip-path="url(#p7bd9b362ff)" style="fill: none; stroke: #ffffff; stroke-width: 0.72; stroke-linecap: square"/>
   </g>
   <g id="patch_11">
    <path d="M 226.39594 75.99031 
L 232.086737 81.681106 
L 226.39594 87.371902 
L 220.705144 81.681106 
L 226.39594 75.99031 
" clip-path="url(#p7bd9b362ff)" style="fill: none; stroke: #ff0000; stroke-width: 0.72; stroke-linejoin: miter"/>
   </g>
   <g id="line2d_9">
    <path d="M 442.966854 81.681106 
L 456.624765 81.681106 
" clip-path="url(#p7bd9b362ff)" style="fill: none; stroke: #ffffff; stroke-width: 0.72; stroke-linecap: square"/>
   </g>
   <g id="patch_12">
    <path d="M 449.79581 75.99031 
L 455.486606 81.681106 
L 449.79581 87.371902 
L 444.105014 81.681106 
L 449.79581 75.99031 
" clip-path="url(#p7bd9b362ff)" style="fill: none; stroke: #ff0000; stroke-width: 0.72; stroke-linejoin: miter"/>
   </g>
   <g id="line2d_10">
    <path d="M 666.366724 81.681106 
L 680.024635 81.681106 
" clip-path="url(#p7bd9b362ff)" style="fill: none; stroke: #ffffff; stroke-width: 0.72; stroke-linecap: square"/>
   </g>
   <g id="patch_13">
    <path d="M 673.195679 75.99031 
L 678.886476 81.681106 
L 673.195679 87.371902 
L 667.504883 81.681106 
L 673.195679 75.99031 
" clip-path="url(#p7bd9b362ff)" style="fill: none; stroke: #ff0000; stroke-width: 0.72; stroke-linejoin: miter"/>
   </g>
   <g id="line2d_11">
    <path d="M 52.491964 107.099112 
L 1098.676387 174.478683 
" clip-path="url(#p7bd9b362ff)" style="fill: none; stroke: #ffffff; stroke-width: 0.72; stroke-linecap: square"/>
   </g>
   <g id="line2d_12">
    <path d="M 259.343656 120.421408 
L 272.973328 121.299228 
" clip-path="url(#p7bd9b362ff)" style="fill: none; stroke: #ffffff; stroke-width: 0.72; stroke-linecap: square"/>
   </g>
   <g id="patch_14">
    <path d="M 266.524251 115.181288 
L 271.837522 121.226076 
L 265.792734 126.539348 
L 260.479462 120.49456 
L 266.524251 115.181288 
" clip-path="url(#p7bd9b362ff)" style="fill: none; stroke: #ff0000; stroke-width: 0.72; stroke-linejoin: miter"/>
   </g>
   <g id="line2d_13">
    <path d="M 517.198392 137.028558 
L 530.828064 137.906378 
" clip-path="url(#p7bd9b362ff)" style="fill: none; stroke: #ffffff; stroke-width: 0.72; stroke-linecap: square"/>
   </g>
   <g id="patch_15">
    <path d="M 524.378987 131.788438 
L 529.692258 137.833226 
L 523.64747 143.146498 
L 518.334198 137.10171 
L 524.378987 131.788438 
" clip-path="url(#p7bd9b362ff)" style="fill: none; stroke: #ff0000; stroke-width: 0.72; stroke-linejoin: miter"/>
   </g>
   <g id="line2d_14">
    <path d="M 452.634403 20.302325 
L 452.634403 19.164166 
" clip-path="url(#p7bd9b362ff)" style="fill: none; stroke: #ff0000; stroke-width: 0.72; stroke-linecap: square"/>
   </g>
   <g id="line2d_15">
    <path d="M 452.634403 143.059887 
L 452.634403 144.198046 
" clip-path="url(#p7bd9b362ff)" style="fill: none; stroke: #ff0000; stroke-width: 0.72; stroke-linecap: square"/>
   </g>
   <g id="line2d_16">
    <path d="M 510.369048 81.681106 
L 511.507208 81.681106 
" clip-path="url(#p7bd9b362ff)" style="fill: none; stroke: #ff0000; stroke-width: 0.72; stroke-linecap: square"/>
   </g>
   <g id="line2d_17">
    <path d="M 394.899758 81.681106 
L 393.761598 81.681106 
" clip-path="url(#p7bd9b362ff)" style="fill: none; stroke: #ff0000; stroke-width: 0.72; stroke-linecap: square"/>
   </g>
   <g id="line2d_18">
    <path d="M 281.910514 152.079491 
L 281.910514 14.152632 
" clip-path="url(#p7bd9b362ff)" style="fill: none; stroke: #ffffff; stroke-width: 0.72; stroke-linecap: square"/>
   </g>
   <g id="line2d_19">
    <path d="M 281.910514 108.414636 
L 281.910514 94.756725 
" clip-path="url(#p7bd9b362ff)" style="fill: none; stroke: #ffffff; stroke-width: 0.72; stroke-linecap: square"/>
   </g>
   <g id="patch_16">
    <path d="M 276.219718 101.58568 
L 281.910514 95.894884 
L 287.601311 101.58568 
L 281.910514 107.276476 
L 276.219718 101.58568 
" clip-path="url(#p7bd9b362ff)" style="fill: none; stroke: #ff0000; stroke-width: 0.72; stroke-linejoin: miter"/>
   </g>
   <g id="line2d_20">
    <path d="M 281.910514 71.475399 
L 281.910514 57.817488 
" clip-path="url(#p7bd9b362ff)" style="fill: none; stroke: #ffffff; stroke-width: 0.72; stroke-linecap: square"/>
   </g>
   <g id="patch_17">
    <path d="M 276.219718 64.646444 
L 281.910514 58.955647 
L 287.601311 64.646444 
L 281.910514 70.33724 
L 276.219718 64.646444 
" clip-path="url(#p7bd9b362ff)" style="fill: none; stroke: #ff0000; stroke-width: 0.72; stroke-linejoin: miter"/>
   </g>
   <g id="line2d_21">
    <path d="M 794.08218 157.279657 
L 794.08218 70.619684 
" clip-path="url(#p7bd9b362ff)" style="fill: none; stroke: #ffffff; stroke-width: 0.72; stroke-linecap: square"/>
   </g>
   <g id="line2d_22">
    <path d="M 794.08218 131.558211 
L 794.08218 117.9003 
" clip-path="url(#p7bd9b362ff)" style="fill: none; stroke: #ffffff; stroke-width: 0.72; stroke-linecap: square"/>
   </g>
   <g id="patch_18">
    <path d="M 788.391384 124.729256 
L 794.08218 119.03846 
L 799.772977 124.729256 
L 794.08218 130.420052 
L 788.391384 124.729256 
" clip-path="url(#p7bd9b362ff)" style="fill: none; stroke: #ff0000; stroke-width: 0.72; stroke-linejoin: miter"/>
   </g>
   <g id="line2d_23">
    <path d="M 794.08218 109.999041 
L 794.08218 96.34113 
" clip-path="url(#p7bd9b362ff)" style="fill: none; stroke: #ffffff; stroke-width: 0.72; stroke-linecap: square"/>
   </g>
   <g id="patch_19">
    <path d="M 788.391384 103.170085 
L 794.08218 97.479289 
L 799.772977 103.170085 
L 794.08218 108.860882 
L 788.391384 103.170085 
" clip-path="url(#p7bd9b362ff)" style="fill: none; stroke: #ff0000; stroke-width: 0.72; stroke-linejoin: miter"/>
   </g>
   <g id="patch_20">
    <path d="M 347.525948 122.853741 
L 353.216744 122.853741 
L 353.216744 128.544537 
L 347.525948 128.544537 
L 353.216744 128.544537 
L 353.216744 134.235333 
L 347.525948 134.235333 
" clip-path="url(#p7bd9b362ff)" style="fill: none; stroke: #ff0000; stroke-width: 0.72; stroke-linejoin: miter"/>
   </g>
   <g id="patch_21">
    <path d="M 358.338461 122.853741 
L 356.062142 122.853741 
L 356.062142 134.235333 
L 358.338461 134.235333 
" clip-path="url(#p7bd9b362ff)" style="fill: none; stroke: #ff0000; stroke-width: 0.72; stroke-linejoin: miter"/>
   </g>
   <g id="patch_22">
    <path d="M 359.47662 134.235333 
L 361.752939 134.235333 
L 361.752939 122.853741 
L 359.47662 122.853741 
" clip-path="url(#p7bd9b362ff)" style="fill: none; stroke: #ff0000; stroke-width: 0.72; stroke-linejoin: miter"/>
   </g>
  </g>
 </g>
 <defs>
  <clipPath id="p7bd9b362ff">
   <rect x="0" y="0" width="1152" height="184.117399"/>
  </clipPath>
 </defs>
</svg>
