  0
SECTION
  2
HEADER
  9
$ACADVER
  1
AC1021
  9
$ACADMAINTVER
 70
25
  9
$DWGCODEPAGE
  3
ANSI_1252
  9
$LASTSAVEDBY
  1
ezdxf
  9
$INSBASE
 10
0.0
 20
0.0
 30
0.0
  9
$EXTMIN
 10
1e+20
 20
1e+20
 30
1e+20
  9
$EXTMAX
 10
-1e+20
 20
-1e+20
 30
-1e+20
  9
$LIMMIN
 10
0.0
 20
0.0
  9
$LIMMAX
 10
420.0
 20
297.0
  9
$ORTHOMODE
 70
0
  9
$REGENMODE
 70
1
  9
$FILLMODE
 70
1
  9
$QTEXTMODE
 70
0
  9
$MIRRTEXT
 70
1
  9
$LTSCALE
 40
1.0
  9
$ATTMODE
 70
1
  9
$TEXTSIZE
 40
2.5
  9
$TRACEWID
 40
1.0
  9
$TEXTSTYLE
  7
OpenSans
  9
$CLAYER
  8
0
  9
$CELTYPE
  6
ByLayer
  9
$CECOLOR
 62
256
  9
$CELTSCALE
 40
1.0
  9
$DISPSILH
 70
0
  9
$DIMSCALE
 40
1.0
  9
$DIMASZ
 40
0.175
  9
$DIMEXO
 40
0.125
  9
$DIMDLI
 40
3.75
  9
$DIMRND
 40
0.0
  9
$DIMDLE
 40
0.0
  9
$DIMEXE
 40
0.375
  9
$DIMTP
 40
0.0
  9
$DIMTM
 40
0.0
  9
$DIMTXT
 40
0.25
  9
$DIMCEN
 40
2.5
  9
$DIMTSZ
 40
0.0
  9
$DIMTOL
 70
0
  9
$DIMLIM
 70
0
  9
$DIMTIH
 70
0
  9
$DIMTOH
 70
0
  9
$DIMSE1
 70
0
  9
$DIMSE2
 70
0
  9
$DIMTAD
 70
1
  9
$DIMZIN
 70
12
  9
$DIMBLK
  1
ARCHTICK
  9
$DIMASO
 70
1
  9
$DIMSHO
 70
1
  9
$DIMPOST
  1

  9
$DIMAPOST
  1

  9
$DIMALT
 70
0
  9
$DIMALTD
 70
3
  9
$DIMALTF
 40
0.03937007874
  9
$DIMLFAC
 40
100.0
  9
$DIMTOFL
 70
1
  9
$DIMTVP
 40
0.0
  9
$DIMTIX
 70
0
  9
$DIMSOXD
 70
0
  9
$DIMSAH
 70
0
  9
$DIMBLK1
  1

  9
$DIMBLK2
  1

  9
$DIMSTYLE
  2
EZDXF
  9
$DIMCLRD
 70
0
  9
$DIMCLRE
 70
0
  9
$DIMCLRT
 70
0
  9
$DIMTFAC
 40
0.5
  9
$DIMGAP
 40
0.1
  9
$DIMJUST
 70
0
  9
$DIMSD1
 70
0
  9
$DIMSD2
 70
0
  9
$DIMTOLJ
 70
0
  9
$DIMTZIN
 70
8
  9
$DIMALTZ
 70
0
  9
$DIMALTTZ
 70
0
  9
$DIMUPT
 70
1
  9
$DIMDEC
 70
2
  9
$DIMTDEC
 70
2
  9
$DIMALTU
 70
2
  9
$DIMALTTD
 70
3
  9
$DIMTXSTY
  7
OpenSansCondensed-Light
  9
$DIMAUNIT
 70
0
  9
$DIMADEC
 70
2
  9
$DIMALTRND
 40
0.0
  9
$DIMAZIN
 70
3
  9
$DIMDSEP
 70
46
  9
$DIMATFIT
 70
3
  9
$DIMFRAC
 70
0
  9
$DIMLDRBLK
  1

  9
$DIMLUNIT
 70
2
  9
$DIMLWD
 70
-2
  9
$DIMLWE
 70
-2
  9
$DIMTMOVE
 70
2
  9
$DIMFXL
 40
1.0
  9
$DIMFXLON
 70
0
  9
$DIMJOGANG
 40
0.785398163397
  9
$DIMTFILL
 70
0
  9
$DIMTFILLCLR
 70
0
  9
$DIMARCSYM
 70
0
  9
$DIMLTYPE
  6

  9
$DIMLTEX1
  6

  9
$DIMLTEX2
  6

  9
$LUNITS
 70
2
  9
$LUPREC
 70
4
  9
$SKETCHINC
 40
1.0
  9
$FILLETRAD
 40
10.0
  9
$AUNITS
 70
0
  9
$AUPREC
 70
2
  9
$MENU
  1
.
  9
$ELEVATION
 40
0.0
  9
$PELEVATION
 40
0.0
  9
$THICKNESS
 40
0.0
  9
$LIMCHECK
 70
0
  9
$CHAMFERA
 40
0.0
  9
$CHAMFERB
 40
0.0
  9
$CHAMFERC
 40
0.0
  9
$CHAMFERD
 40
0.0
  9
$SKPOLY
 70
0
  9
$TDCREATE
 40
2461048.088425926
  9
$TDUCREATE
 40
2458532.153996898
  9
$TDUPDATE
 40
2461048.0884375
  9
$TDUUPDATE
 40
2458532.1544311
  9
$TDINDWG
 40
0.0
  9
$TDUSRTIMER
 40
0.0
  9
$USRTIMER
 70
1
  9
$ANGBASE
 50
0.0
  9
$ANGDIR
 70
0
  9
$PDMODE
 70
0
  9
$PDSIZE
 40
0.0
  9
$PLINEWID
 40
0.0
  9
$SPLFRAME
 70
0
  9
$SPLINETYPE
 70
6
  9
$SPLINESEGS
 70
8
  9
$HANDSEED
  5
BB
  9
$SURFTAB1
 70
6
  9
$SURFTAB2
 70
6
  9
$SURFTYPE
 70
6
  9
$SURFU
 70
6
  9
$SURFV
 70
6
  9
$UCSBASE
  2

  9
$UCSNAME
  2

  9
$UCSORG
 10
0.0
 20
0.0
 30
0.0
  9
$UCSXDIR
 10
1.0
 20
0.0
 30
0.0
  9
$UCSYDIR
 10
0.0
 20
1.0
 30
0.0
  9
$UCSORTHOREF
  2

  9
$UCSORTHOVIEW
 70
0
  9
$UCSORGTOP
 10
0.0
 20
0.0
 30
0.0
  9
$UCSORGBOTTOM
 10
0.0
 20
0.0
 30
0.0
  9
$UCSORGLEFT
 10
0.0
 20
0.0
 30
0.0
  9
$UCSORGRIGHT
 10
0.0
 20
0.0
 30
0.0
  9
$UCSORGFRONT
 10
0.0
 20
0.0
 30
0.0
  9
$UCSORGBACK
 10
0.0
 20
0.0
 30
0.0
  9
$PUCSBASE
  2

  9
$PUCSNAME
  2

  9
$PUCSORG
 10
0.0
 20
0.0
 30
0.0
  9
$PUCSXDIR
 10
1.0
 20
0.0
 30
0.0
  9
$PUCSYDIR
 10
0.0
 20
1.0
 30
0.0
  9
$PUCSORTHOREF
  2

  9
$PUCSORTHOVIEW
 70
0
  9
$PUCSORGTOP
 10
0.0
 20
0.0
 30
0.0
  9
$PUCSORGBOTTOM
 10
0.0
 20
0.0
 30
0.0
  9
$PUCSORGLEFT
 10
0.0
 20
0.0
 30
0.0
  9
$PUCSORGRIGHT
 10
0.0
 20
0.0
 30
0.0
  9
$PUCSORGFRONT
 10
0.0
 20
0.0
 30
0.0
  9
$PUCSORGBACK
 10
0.0
 20
0.0
 30
0.0
  9
$USERI1
 70
0
  9
$USERI2
 70
0
  9
$USERI3
 70
0
  9
$USERI4
 70
0
  9
$USERI5
 70
0
  9
$USERR1
 40
0.0
  9
$USERR2
 40
0.0
  9
$USERR3
 40
0.0
  9
$USERR4
 40
0.0
  9
$USERR5
 40
0.0
  9
$WORLDVIEW
 70
1
  9
$SHADEDGE
 70
3
  9
$SHADEDIF
 70
70
  9
$TILEMODE
 70
1
  9
$MAXACTVP
 70
64
  9
$PINSBASE
 10
0.0
 20
0.0
 30
0.0
  9
$PLIMCHECK
 70
0
  9
$PEXTMIN
 10
1e+20
 20
1e+20
 30
1e+20
  9
$PEXTMAX
 10
-1e+20
 20
-1e+20
 30
-1e+20
  9
$PLIMMIN
 10
0.0
 20
0.0
  9
$PLIMMAX
 10
420.0
 20
297.0
  9
$UNITMODE
 70
0
  9
$VISRETAIN
 70
1
  9
$PLINEGEN
 70
0
  9
$PSLTSCALE
 70
1
  9
$TREEDEPTH
 70
3020
  9
$CMLSTYLE
  2
Standard
  9
$CMLJUST
 70
0
  9
$CMLSCALE
 40
20.0
  9
$PROXYGRAPHICS
 70
1
  9
$MEASUREMENT
 70
1
  9
$CELWEIGHT
370
-1
  9
$ENDCAPS
280
0
  9
$JOINSTYLE
280
0
  9
$LWDISPLAY
290
0
  9
$INSUNITS
 70
6
  9
$HYPERLINKBASE
  1

  9
$STYLESHEET
  1

  9
$XEDIT
290
1
  9
$CEPSNTYPE
380
0
  9
$PSTYLEMODE
290
1
  9
$FINGERPRINTGUID
  2
{99B31E8F-0B17-4375-8737-C274203A4457}
  9
$VERSIONGUID
  2
{7A56BD57-2BC9-4A63-96CB-682626963E19}
  9
$EXTNAMES
290
1
  9
$PSVPSCALE
 40
0.0
  9
$OLESTARTUP
290
0
  9
$SORTENTS
280
127
  9
$INDEXCTL
280
0
  9
$HIDETEXT
280
1
  9
$XCLIPFRAME
290
1
  9
$HALOGAP
280
0
  9
$OBSCOLOR
 70
257
  9
$OBSLTYPE
280
0
  9
$INTERSECTIONDISPLAY
280
0
  9
$INTERSECTIONCOLOR
 70
257
  9
$DIMASSOC
280
2
  9
$PROJECTNAME
  1

  9
$CAMERADISPLAY
290
0
  9
$LENSLENGTH
 40
50.0
  9
$CAMERAHEIGHT
 40
0.0
  9
$STEPSPERSEC
 40
24.0
  9
$STEPSIZE
 40
100.0
  9
$3DDWFPREC
 40
2.0
  9
$PSOLWIDTH
 40
0.005
  9
$PSOLHEIGHT
 40
0.08
  9
$LOFTANG1
 40
1.570796326795
  9
$LOFTANG2
 40
1.570796326795
  9
$LOFTMAG1
 40
0.0
  9
$LOFTMAG2
 40
0.0
  9
$LOFTPARAM
 70
7
  9
$LOFTNORMALS
280
1
  9
$LATITUDE
 40
37.795
  9
$LONGITUDE
 40
-122.394
  9
$NORTHDIRECTION
 40
0.0
  9
$TIMEZONE
 70
-8000
  9
$LIGHTGLYPHDISPLAY
280
1
  9
$TILEMODELIGHTSYNCH
280
1
  9
$CMATERIAL
347
20
  9
$SOLIDHIST
280
0
  9
$SHOWHIST
280
1
  9
$DWFFRAME
280
2
  9
$DGNFRAME
280
2
  9
$REALWORLDSCALE
290
1
  9
$INTERFERECOLOR
 62
256
  9
$CSHADOW
280
0
  9
$SHADOWPLANELOCATION
 40
0.0
  0
ENDSEC
  0
SECTION
  2
CLASSES
  0
CLASS
  1
ACDBDICTIONARYWDFLT
  2
AcDbDictionaryWithDefault
  3
ObjectDBX Classes
 90
0
 91
0
280
0
281
0
  0
CLASS
  1
SUN
  2
AcDbSun
  3
SCENEOE
 90
1153
 91
0
280
0
281
0
  0
CLASS
  1
VISUALSTYLE
  2
AcDbVisualStyle
  3
ObjectDBX Classes
 90
4095
 91
0
280
0
281
0
  0
CLASS
  1
MATERIAL
  2
AcDbMaterial
  3
ObjectDBX Classes
 90
1153
 91
0
280
0
281
0
  0
CLASS
  1
SCALE
  2
AcDbScale
  3
ObjectDBX Classes
 90
1153
 91
0
280
0
281
0
  0
CLASS
  1
TABLESTYLE
  2
AcDbTableStyle
  3
ObjectDBX Classes
 90
4095
 91
0
280
0
281
0
  0
CLASS
  1
MLEADERSTYLE
  2
AcDbMLeaderStyle
  3
ACDB_MLEADERSTYLE_CLASS
 90
4095
 91
0
280
0
281
0
  0
CLASS
  1
DICTIONARYVAR
  2
AcDbDictionaryVar
  3
ObjectDBX Classes
 90
0
 91
0
280
0
281
0
  0
CLASS
  1
CELLSTYLEMAP
  2
AcDbCellStyleMap
  3
ObjectDBX Classes
 90
1152
 91
0
280
0
281
0
  0
CLASS
  1
MENTALRAYRENDERSETTINGS
  2
AcDbMentalRayRenderSettings
  3
SCENEOE
 90
1024
 91
0
280
0
281
0
  0
CLASS
  1
ACDBDETAILVIEWSTYLE
  2
AcDbDetailViewStyle
  3
ObjectDBX Classes
 90
1025
 91
0
280
0
281
0
  0
CLASS
  1
ACDBSECTIONVIEWSTYLE
  2
AcDbSectionViewStyle
  3
ObjectDBX Classes
 90
1025
 91
0
280
0
281
0
  0
CLASS
  1
RASTERVARIABLES
  2
AcDbRasterVariables
  3
ISM
 90
0
 91
0
280
0
281
0
  0
CLASS
  1
ACDBPLACEHOLDER
  2
AcDbPlaceHolder
  3
ObjectDBX Classes
 90
0
 91
0
280
0
281
0
  0
CLASS
  1
LAYOUT
  2
AcDbLayout
  3
ObjectDBX Classes
 90
0
 91
0
280
0
281
0
  0
ENDSEC
  0
SECTION
  2
TABLES
  0
TABLE
  2
VPORT
  5
8
330
0
100
AcDbSymbolTable
 70
1
  0
VPORT
  5
23
330
8
100
AcDbSymbolTableRecord
100
AcDbViewportTableRecord
  2
*Active
 70
0
 10
0.0
 20
0.0
 11
1.0
 21
1.0
 12
0.0
 22
0.0
 13
0.0
 23
0.0
 14
0.5
 24
0.5
 15
0.5
 25
0.5
 16
0.0
 26
0.0
 36
1.0
 17
0.0
 27
0.0
 37
0.0
 40
1000.0
 41
1.34
 42
50.0
 43
0.0
 44
0.0
 50
0.0
 51
0.0
 71
0
 72
1000
 73
1
 74
3
 75
0
 76
0
 77
0
 78
0
281
0
 65
0
146
0.0
  0
ENDTAB
  0
TABLE
  2
LTYPE
  5
2
330
0
100
AcDbSymbolTable
 70
21
  0
LTYPE
  5
24
330
2
100
AcDbSymbolTableRecord
100
AcDbLinetypeTableRecord
  2
ByBlock
 70
0
  3

 72
65
 73
0
 40
0.0
  0
LTYPE
  5
25
330
2
100
AcDbSymbolTableRecord
100
AcDbLinetypeTableRecord
  2
ByLayer
 70
0
  3

 72
65
 73
0
 40
0.0
  0
LTYPE
  5
26
330
2
100
AcDbSymbolTableRecord
100
AcDbLinetypeTableRecord
  2
Continuous
 70
0
  3

 72
65
 73
0
 40
0.0
  0
LTYPE
  5
2F
330
2
100
AcDbSymbolTableRecord
100
AcDbLinetypeTableRecord
  2
CENTER
 70
0
  3
Center ____ _ ____ _ ____ _ ____ _ ____ _ ____
 72
65
 73
4
 40
5.08
 49
3.175
 74
0
 49
-0.635
 74
0
 49
0.635
 74
0
 49
-0.635
 74
0
  0
LTYPE
  5
30
330
2
100
AcDbSymbolTableRecord
100
AcDbLinetypeTableRecord
  2
CENTERX2
 70
0
  3
Center (2x) ________  __  ________  __  ________
 72
65
 73
4
 40
8.89
 49
6.35
 74
0
 49
-0.635
 74
0
 49
1.27
 74
0
 49
-0.635
 74
0
  0
LTYPE
  5
31
330
2
100
AcDbSymbolTableRecord
100
AcDbLinetypeTableRecord
  2
CENTER2
 70
0
  3
Center (.5x) ____ _ ____ _ ____ _ ____ _ ____
 72
65
 73
4
 40
2.54
 49
1.587
 74
0
 49
-0.318
 74
0
 49
0.318
 74
0
 49
-0.318
 74
0
  0
LTYPE
  5
32
330
2
100
AcDbSymbolTableRecord
100
AcDbLinetypeTableRecord
  2
DASHED
 70
0
  3
Dashed __ __ __ __ __ __ __ __ __ __ __ __ __ _
 72
65
 73
2
 40
1.524
 49
1.27
 74
0
 49
-0.254
 74
0
  0
LTYPE
  5
33
330
2
100
AcDbSymbolTableRecord
100
AcDbLinetypeTableRecord
  2
DASHEDX2
 70
0
  3
Dashed (2x) ____  ____  ____  ____  ____  ____
 72
65
 73
2
 40
3.048
 49
2.54
 74
0
 49
-0.508
 74
0
  0
LTYPE
  5
34
330
2
100
AcDbSymbolTableRecord
100
AcDbLinetypeTableRecord
  2
DASHED2
 70
0
  3
Dashed (.5x) _ _ _ _ _ _ _ _ _ _ _ _ _ _
 72
65
 73
2
 40
0.762
 49
0.635
 74
0
 49
-0.127
 74
0
  0
LTYPE
  5
35
330
2
100
AcDbSymbolTableRecord
100
AcDbLinetypeTableRecord
  2
PHANTOM
 70
0
  3
Phantom ______  __  __  ______  __  __  ______
 72
65
 73
6
 40
6.35
 49
3.175
 74
0
 49
-0.635
 74
0
 49
0.635
 74
0
 49
-0.635
 74
0
 49
0.635
 74
0
 49
-0.635
 74
0
  0
LTYPE
  5
36
330
2
100
AcDbSymbolTableRecord
100
AcDbLinetypeTableRecord
  2
PHANTOMX2
 70
0
  3
Phantom (2x)____________    ____    ____    ____________
 72
65
 73
6
 40
10.795
 49
6.35
 74
0
 49
-0.635
 74
0
 49
1.27
 74
0
 49
-0.635
 74
0
 49
1.27
 74
0
 49
-0.635
 74
0
  0
LTYPE
  5
37
330
2
100
AcDbSymbolTableRecord
100
AcDbLinetypeTableRecord
  2
PHANTOM2
 70
0
  3
Phantom (.5x) ___ _ _ ___ _ _ ___ _ _ ___ _ _ ___
 72
65
 73
6
 40
3.175
 49
1.587
 74
0
 49
-0.318
 74
0
 49
0.318
 74
0
 49
-0.318
 74
0
 49
0.318
 74
0
 49
-0.318
 74
0
  0
LTYPE
  5
38
330
2
100
AcDbSymbolTableRecord
100
AcDbLinetypeTableRecord
  2
DASHDOT
 70
0
  3
Dash dot __ . __ . __ . __ . __ . __ . __ . __
 72
65
 73
4
 40
3.556
 49
2.54
 74
0
 49
-0.508
 74
0
 49
0.0
 74
0
 49
-0.508
 74
0
  0
LTYPE
  5
39
330
2
100
AcDbSymbolTableRecord
100
AcDbLinetypeTableRecord
  2
DASHDOTX2
 70
0
  3
Dash dot (2x) ____  .  ____  .  ____  .  ____
 72
65
 73
4
 40
6.096
 49
5.08
 74
0
 49
-0.508
 74
0
 49
0.0
 74
0
 49
-0.508
 74
0
  0
LTYPE
  5
3A
330
2
100
AcDbSymbolTableRecord
100
AcDbLinetypeTableRecord
  2
DASHDOT2
 70
0
  3
Dash dot (.5x) _ . _ . _ . _ . _ . _ . _ . _
 72
65
 73
4
 40
1.778
 49
1.27
 74
0
 49
-0.254
 74
0
 49
0.0
 74
0
 49
-0.254
 74
0
  0
LTYPE
  5
3B
330
2
100
AcDbSymbolTableRecord
100
AcDbLinetypeTableRecord
  2
DOT
 70
0
  3
Dot .  .  .  .  .  .  .  .  .  .  .  .  .  .  .  .
 72
65
 73
2
 40
0.508
 49
0.0
 74
0
 49
-0.508
 74
0
  0
LTYPE
  5
3C
330
2
100
AcDbSymbolTableRecord
100
AcDbLinetypeTableRecord
  2
DOTX2
 70
0
  3
Dot (2x) .    .    .    .    .    .    .    . 
 72
65
 73
2
 40
1.016
 49
0.0
 74
0
 49
-1.016
 74
0
  0
LTYPE
  5
3D
330
2
100
AcDbSymbolTableRecord
100
AcDbLinetypeTableRecord
  2
DOT2
 70
0
  3
Dot (.5) . . . . . . . . . . . . . . . . . . . 
 72
65
 73
2
 40
0.254
 49
0.0
 74
0
 49
-0.254
 74
0
  0
LTYPE
  5
3E
330
2
100
AcDbSymbolTableRecord
100
AcDbLinetypeTableRecord
  2
DIVIDE
 70
0
  3
Divide __ . . __ . . __ . . __ . . __ . . __
 72
65
 73
6
 40
4.064
 49
2.54
 74
0
 49
-0.508
 74
0
 49
0.0
 74
0
 49
-0.508
 74
0
 49
0.0
 74
0
 49
-0.508
 74
0
  0
LTYPE
  5
3F
330
2
100
AcDbSymbolTableRecord
100
AcDbLinetypeTableRecord
  2
DIVIDEX2
 70
0
  3
Divide (2x) ____  . .  ____  . .  ____  . .  ____
 72
65
 73
6
 40
6.604
 49
5.08
 74
0
 49
-0.508
 74
0
 49
0.0
 74
0
 49
-0.508
 74
0
 49
0.0
 74
0
 49
-0.508
 74
0
  0
LTYPE
  5
40
330
2
100
AcDbSymbolTableRecord
100
AcDbLinetypeTableRecord
  2
DIVIDE2
 70
0
  3
Divide(.5x) _ . _ . _ . _ . _ . _ . _ . _
 72
65
 73
6
 40
2.032
 49
1.27
 74
0
 49
-0.254
 74
0
 49
0.0
 74
0
 49
-0.254
 74
0
 49
0.0
 74
0
 49
-0.254
 74
0
  0
ENDTAB
  0
TABLE
  2
LAYER
  5
1
330
0
100
AcDbSymbolTable
 70
5
  0
LAYER
  5
27
330
1
100
AcDbSymbolTableRecord
100
AcDbLayerTableRecord
  2
0
 70
0
 62
7
  6
Continuous
370
-3
390
13
347
21
  0
LAYER
  5
28
330
1
100
AcDbSymbolTableRecord
100
AcDbLayerTableRecord
  2
Defpoints
 70
0
 62
7
  6
Continuous
290
0
370
-3
390
13
347
21
  0
LAYER
  5
8A
330
1
100
AcDbSymbolTableRecord
100
AcDbLayerTableRecord
  2
Layer
 70
0
 62
1
  6
Continuous
370
50
390
13
347
21
  0
LAYER
  5
8B
330
1
100
AcDbSymbolTableRecord
100
AcDbLayerTableRecord
  2
NumLabel
 70
0
 62
1
  6
Continuous
370
15
390
13
347
21
  0
LAYER
  5
B9
330
1
100
AcDbSymbolTableRecord
100
AcDbLayerTableRecord
  2
SplitMark
 70
0
 62
3
  6
Continuous
370
-3
390
13
347
21
  0
ENDTAB
  0
TABLE
  2
STYLE
  5
5
330
0
100
AcDbSymbolTable
 70
26
  0
STYLE
  5
29
330
5
100
AcDbSymbolTableRecord
100
AcDbTextStyleTableRecord
  2
Standard
 70
0
 40
0.0
 41
1.0
 50
0.0
 71
0
 42
2.5
  3
txt
  4

  0
STYLE
  5
41
330
5
100
AcDbSymbolTableRecord
100
AcDbTextStyleTableRecord
  2
OpenSans-Light
 70
0
 40
0.0
 41
1.0
 50
0.0
 71
0
 42
2.5
  3
OpenSans-Light.ttf
  4

  0
STYLE
  5
42
330
5
100
AcDbSymbolTableRecord
100
AcDbTextStyleTableRecord
  2
OpenSans-Light-Italic
 70
0
 40
0.0
 41
1.0
 50
0.0
 71
0
 42
2.5
  3
OpenSans-LightItalic.ttf
  4

  0
STYLE
  5
43
330
5
100
AcDbSymbolTableRecord
100
AcDbTextStyleTableRecord
  2
OpenSans
 70
0
 40
0.0
 41
1.0
 50
0.0
 71
0
 42
2.5
  3
OpenSans-Regular.ttf
  4

  0
STYLE
  5
44
330
5
100
AcDbSymbolTableRecord
100
AcDbTextStyleTableRecord
  2
OpenSans-Italic
 70
0
 40
0.0
 41
1.0
 50
0.0
 71
0
 42
2.5
  3
OpenSans-Italic.ttf
  4

  0
STYLE
  5
45
330
5
100
AcDbSymbolTableRecord
100
AcDbTextStyleTableRecord
  2
OpenSans-SemiBold
 70
0
 40
0.0
 41
1.0
 50
0.0
 71
0
 42
2.5
  3
OpenSans-SemiBold.ttf
  4

  0
STYLE
  5
46
330
5
100
AcDbSymbolTableRecord
100
AcDbTextStyleTableRecord
  2
OpenSans-SemiBoldItalic
 70
0
 40
0.0
 41
1.0
 50
0.0
 71
0
 42
2.5
  3
OpenSans-SemiBoldItalic.ttf
  4

  0
STYLE
  5
47
330
5
100
AcDbSymbolTableRecord
100
AcDbTextStyleTableRecord
  2
OpenSans-Bold
 70
0
 40
0.0
 41
1.0
 50
0.0
 71
0
 42
2.5
  3
OpenSans-Bold.ttf
  4

  0
STYLE
  5
48
330
5
100
AcDbSymbolTableRecord
100
AcDbTextStyleTableRecord
  2
OpenSans-BoldItalic
 70
0
 40
0.0
 41
1.0
 50
0.0
 71
0
 42
2.5
  3
OpenSans-BoldItalic.ttf
  4

  0
STYLE
  5
49
330
5
100
AcDbSymbolTableRecord
100
AcDbTextStyleTableRecord
  2
OpenSans-ExtraBold
 70
0
 40
0.0
 41
1.0
 50
0.0
 71
0
 42
2.5
  3
OpenSans-ExtraBold.ttf
  4

  0
STYLE
  5
4A
330
5
100
AcDbSymbolTableRecord
100
AcDbTextStyleTableRecord
  2
OpenSans-ExtraBoldItalic
 70
0
 40
0.0
 41
1.0
 50
0.0
 71
0
 42
2.5
  3
OpenSans-ExtraBoldItalic.ttf
  4

  0
STYLE
  5
4B
330
5
100
AcDbSymbolTableRecord
100
AcDbTextStyleTableRecord
  2
OpenSansCondensed-Bold
 70
0
 40
0.0
 41
1.0
 50
0.0
 71
0
 42
2.5
  3
OpenSansCondensed-Bold.ttf
  4

  0
STYLE
  5
4C
330
5
100
AcDbSymbolTableRecord
100
AcDbTextStyleTableRecord
  2
OpenSansCondensed-Light
 70
0
 40
0.0
 41
1.0
 50
0.0
 71
0
 42
2.5
  3
OpenSansCondensed-Light.ttf
  4

  0
STYLE
  5
4D
330
5
100
AcDbSymbolTableRecord
100
AcDbTextStyleTableRecord
  2
OpenSansCondensed-Italic
 70
0
 40
0.0
 41
1.0
 50
0.0
 71
0
 42
2.5
  3
OpenSansCondensed-LightItalic.ttf
  4

  0
STYLE
  5
4E
330
5
100
AcDbSymbolTableRecord
100
AcDbTextStyleTableRecord
  2
LiberationSans
 70
0
 40
0.0
 41
1.0
 50
0.0
 71
0
 42
2.5
  3
LiberationSans-Regular.ttf
  4

  0
STYLE
  5
4F
330
5
100
AcDbSymbolTableRecord
100
AcDbTextStyleTableRecord
  2
LiberationSans-Bold
 70
0
 40
0.0
 41
1.0
 50
0.0
 71
0
 42
2.5
  3
LiberationSans-Bold.ttf
  4

  0
STYLE
  5
50
330
5
100
AcDbSymbolTableRecord
100
AcDbTextStyleTableRecord
  2
LiberationSans-BoldItalic
 70
0
 40
0.0
 41
1.0
 50
0.0
 71
0
 42
2.5
  3
LiberationSans-BoldItalic.ttf
  4

  0
STYLE
  5
51
330
5
100
AcDbSymbolTableRecord
100
AcDbTextStyleTableRecord
  2
LiberationSans-Italic
 70
0
 40
0.0
 41
1.0
 50
0.0
 71
0
 42
2.5
  3
LiberationSans-Italic.ttf
  4

  0
STYLE
  5
52
330
5
100
AcDbSymbolTableRecord
100
AcDbTextStyleTableRecord
  2
LiberationSerif
 70
0
 40
0.0
 41
1.0
 50
0.0
 71
0
 42
2.5
  3
LiberationSerif-Regular.ttf
  4

  0
STYLE
  5
53
330
5
100
AcDbSymbolTableRecord
100
AcDbTextStyleTableRecord
  2
LiberationSerif-Bold
 70
0
 40
0.0
 41
1.0
 50
0.0
 71
0
 42
2.5
  3
LiberationSerif-Bold.ttf
  4

  0
STYLE
  5
54
330
5
100
AcDbSymbolTableRecord
100
AcDbTextStyleTableRecord
  2
LiberationSerif-BoldItalic
 70
0
 40
0.0
 41
1.0
 50
0.0
 71
0
 42
2.5
  3
LiberationSerif-BoldItalic.ttf
  4

  0
STYLE
  5
55
330
5
100
AcDbSymbolTableRecord
100
AcDbTextStyleTableRecord
  2
LiberationSerif-Italic
 70
0
 40
0.0
 41
1.0
 50
0.0
 71
0
 42
2.5
  3
LiberationSerif-Italic.ttf
  4

  0
STYLE
  5
56
330
5
100
AcDbSymbolTableRecord
100
AcDbTextStyleTableRecord
  2
LiberationMono
 70
0
 40
0.0
 41
1.0
 50
0.0
 71
0
 42
2.5
  3
LiberationMono-Regular.ttf
  4

  0
STYLE
  5
57
330
5
100
AcDbSymbolTableRecord
100
AcDbTextStyleTableRecord
  2
LiberationMono-Bold
 70
0
 40
0.0
 41
1.0
 50
0.0
 71
0
 42
2.5
  3
LiberationMono-Bold.ttf
  4

  0
STYLE
  5
58
330
5
100
AcDbSymbolTableRecord
100
AcDbTextStyleTableRecord
  2
LiberationMono-BoldItalic
 70
0
 40
0.0
 41
1.0
 50
0.0
 71
0
 42
2.5
  3
LiberationMono-BoldItalic.ttf
  4

  0
STYLE
  5
59
330
5
100
AcDbSymbolTableRecord
100
AcDbTextStyleTableRecord
  2
LiberationMono-Italic
 70
0
 40
0.0
 41
1.0
 50
0.0
 71
0
 42
2.5
  3
LiberationMono-Italic.ttf
  4

  0
ENDTAB
  0
TABLE
  2
VIEW
  5
7
330
0
100
AcDbSymbolTable
 70
0
  0
ENDTAB
  0
TABLE
  2
UCS
  5
6
330
0
100
AcDbSymbolTable
 70
0
  0
ENDTAB
  0
TABLE
  2
APPID
  5
3
330
0
100
AcDbSymbolTable
 70
3
  0
APPID
  5
2A
330
3
100
AcDbSymbolTableRecord
100
AcDbRegAppTableRecord
  2
ACAD
 70
0
  0
APPID
  5
B6
330
3
100
AcDbSymbolTableRecord
100
AcDbRegAppTableRecord
  2
HATCHBACKGROUNDCOLOR
 70
0
  0
APPID
  5
B7
330
3
100
AcDbSymbolTableRecord
100
AcDbRegAppTableRecord
  2
EZDXF
 70
0
  0
ENDTAB
  0
TABLE
  2
DIMSTYLE
  5
4
330
0
100
AcDbSymbolTable
 70
12
100
AcDbDimStyleTable
  0
DIMSTYLE
105
2B
330
4
100
AcDbSymbolTableRecord
100
AcDbDimStyleTableRecord
  2
Standard
 70
0
 40
1.0
 41
2.5
 42
0.625
 43
3.75
 44
1.25
 45
0.0
 46
0.0
 47
0.0
 48
0.0
 49
2.5
140
2.5
141
2.5
142
0.0
143
0.03937007874
144
1.0
145
0.0
146
1.0
147
0.625
148
0.0
 69
0
 70
0
 71
0
 72
0
 73
0
 74
0
 75
0
 76
0
 77
1
 78
8
 79
3
170
0
171
3
172
1
173
0
174
0
175
0
176
0
177
0
178
0
179
2
271
2
272
2
273
2
274
3
275
0
276
0
277
2
278
44
279
0
280
0
281
0
282
0
283
0
284
8
285
0
286
0
288
0
289
3
290
0
371
-2
372
-2
  0
DIMSTYLE
105
73
330
4
100
AcDbSymbolTableRecord
100
AcDbDimStyleTableRecord
  2
EZDXF
 70
0
 40
1.0
 41
0.175
 42
0.125
 43
3.75
 44
0.375
 45
0.0
 46
0.0
 47
0.0
 48
0.0
 49
2.5
140
0.25
141
2.5
142
0.0
143
0.03937007874
144
100.0
145
0.0
146
0.5
147
0.1
148
0.0
 69
0
 70
0
 71
0
 72
0
 73
0
 74
0
 75
0
 76
0
 77
1
 78
12
 79
3
170
0
171
3
172
1
173
0
174
0
175
0
176
0
177
0
178
0
179
2
271
2
272
2
273
2
274
3
275
0
276
0
277
2
278
46
279
2
280
0
281
0
282
0
283
0
284
8
285
0
286
0
288
1
289
3
290
0
340
4C
342
74
371
-2
372
-2
  0
DIMSTYLE
105
7C
330
4
100
AcDbSymbolTableRecord
100
AcDbDimStyleTableRecord
  2
EZ_M_100_H25_CM
 70
0
 40
1.0
 41
0.25
 42
0.125
 43
3.75
 44
0.375
 45
0.0
 46
0.0
 47
0.0
 48
0.0
 49
2.5
140
0.25
141
2.5
142
0.125
143
0.03937007874
144
100.0
145
0.0
146
0.5
147
0.1
148
0.0
 69
0
 70
0
 71
0
 72
0
 73
0
 74
0
 75
0
 76
0
 77
1
 78
12
 79
3
170
0
171
3
172
1
173
0
174
0
175
0
176
0
177
0
178
0
179
2
271
2
272
2
273
2
274
3
275
0
276
0
277
2
278
46
279
2
280
0
281
0
282
0
283
0
284
8
285
0
286
0
288
1
289
3
290
0
340
4C
371
-2
372
-2
  0
DIMSTYLE
105
7D
330
4
100
AcDbSymbolTableRecord
100
AcDbDimStyleTableRecord
  2
EZ_M_50_H25_CM
 70
0
 40
1.0
 41
0.125
 42
0.0625
 43
3.75
 44
0.1875
 45
0.0
 46
0.0
 47
0.0
 48
0.0
 49
2.5
140
0.125
141
2.5
142
0.0625
143
0.03937007874
144
100.0
145
0.0
146
0.5
147
0.05
148
0.0
 69
0
 70
0
 71
0
 72
0
 73
0
 74
0
 75
0
 76
0
 77
1
 78
12
 79
3
170
0
171
3
172
1
173
0
174
0
175
0
176
0
177
0
178
0
179
2
271
2
272
2
273
2
274
3
275
0
276
0
277
2
278
46
279
2
280
0
281
0
282
0
283
0
284
8
285
0
286
0
288
1
289
3
290
0
340
4C
371
-2
372
-2
  0
DIMSTYLE
105
7E
330
4
100
AcDbSymbolTableRecord
100
AcDbDimStyleTableRecord
  2
EZ_M_25_H25_CM
 70
0
 40
1.0
 41
0.0625
 42
0.03125
 43
3.75
 44
0.09375
 45
0.0
 46
0.0
 47
0.0
 48
0.0
 49
2.5
140
0.0625
141
2.5
142
0.03125
143
0.03937007874
144
100.0
145
0.0
146
0.5
147
0.025
148
0.0
 69
0
 70
0
 71
0
 72
0
 73
0
 74
0
 75
0
 76
0
 77
1
 78
12
 79
3
170
0
171
3
172
1
173
0
174
0
175
0
176
0
177
0
178
0
179
2
271
2
272
2
273
2
274
3
275
0
276
0
277
2
278
46
279
2
280
0
281
0
282
0
283
0
284
8
285
0
286
0
288
1
289
3
290
0
340
4C
371
-2
372
-2
  0
DIMSTYLE
105
7F
330
4
100
AcDbSymbolTableRecord
100
AcDbDimStyleTableRecord
  2
EZ_M_20_H25_CM
 70
0
 40
1.0
 41
0.05
 42
0.025
 43
3.75
 44
0.07500000000000001
 45
0.0
 46
0.0
 47
0.0
 48
0.0
 49
2.5
140
0.05
141
2.5
142
0.025
143
0.03937007874
144
100.0
145
0.0
146
0.5
147
0.020000000000000004
148
0.0
 69
0
 70
0
 71
0
 72
0
 73
0
 74
0
 75
0
 76
0
 77
1
 78
12
 79
3
170
0
171
3
172
1
173
0
174
0
175
0
176
0
177
0
178
0
179
2
271
2
272
2
273
2
274
3
275
0
276
0
277
2
278
46
279
2
280
0
281
0
282
0
283
0
284
8
285
0
286
0
288
1
289
3
290
0
340
4C
371
-2
372
-2
  0
DIMSTYLE
105
80
330
4
100
AcDbSymbolTableRecord
100
AcDbDimStyleTableRecord
  2
EZ_M_10_H25_CM
 70
0
 40
1.0
 41
0.025
 42
0.0125
 43
3.75
 44
0.037500000000000006
 45
0.0
 46
0.0
 47
0.0
 48
0.0
 49
2.5
140
0.025
141
2.5
142
0.0125
143
0.03937007874
144
100.0
145
0.0
146
0.5
147
0.010000000000000002
148
0.0
 69
0
 70
0
 71
0
 72
0
 73
0
 74
0
 75
0
 76
0
 77
1
 78
12
 79
3
170
0
171
3
172
1
173
0
174
0
175
0
176
0
177
0
178
0
179
2
271
2
272
2
273
2
274
3
275
0
276
0
277
2
278
46
279
2
280
0
281
0
282
0
283
0
284
8
285
0
286
0
288
1
289
3
290
0
340
4C
371
-2
372
-2
  0
DIMSTYLE
105
81
330
4
100
AcDbSymbolTableRecord
100
AcDbDimStyleTableRecord
  2
EZ_M_5_H25_CM
 70
0
 40
1.0
 41
0.0125
 42
0.00625
 43
3.75
 44
0.018750000000000003
 45
0.0
 46
0.0
 47
0.0
 48
0.0
 49
2.5
140
0.0125
141
2.5
142
0.00625
143
0.03937007874
144
100.0
145
0.0
146
0.5
147
0.005000000000000001
148
0.0
 69
0
 70
0
 71
0
 72
0
 73
0
 74
0
 75
0
 76
0
 77
1
 78
12
 79
3
170
0
171
3
172
1
173
0
174
0
175
0
176
0
177
0
178
0
179
2
271
2
272
2
273
2
274
3
275
0
276
0
277
2
278
46
279
2
280
0
281
0
282
0
283
0
284
8
285
0
286
0
288
1
289
3
290
0
340
4C
371
-2
372
-2
  0
DIMSTYLE
105
82
330
4
100
AcDbSymbolTableRecord
100
AcDbDimStyleTableRecord
  2
EZ_M_1_H25_CM
 70
0
 40
1.0
 41
0.0025
 42
0.00125
 43
3.75
 44
0.00375
 45
0.0
 46
0.0
 47
0.0
 48
0.0
 49
2.5
140
0.0025
141
2.5
142
0.00125
143
0.03937007874
144
100.0
145
0.0
146
0.5
147
0.001
148
0.0
 69
0
 70
0
 71
0
 72
0
 73
0
 74
0
 75
0
 76
0
 77
1
 78
12
 79
3
170
0
171
3
172
1
173
0
174
0
175
0
176
0
177
0
178
0
179
2
271
2
272
2
273
2
274
3
275
0
276
0
277
2
278
46
279
2
280
0
281
0
282
0
283
0
284
8
285
0
286
0
288
1
289
3
290
0
340
4C
371
-2
372
-2
  0
DIMSTYLE
105
83
330
4
100
AcDbSymbolTableRecord
100
AcDbDimStyleTableRecord
  2
EZ_RADIUS
 70
0
 40
1.0
 41
0.25
 42
0.125
 43
3.75
 44
0.375
 45
0.0
 46
0.0
 47
0.0
 48
0.0
 49
2.5
140
0.25
141
0.0
142
0.0
143
0.03937007874
144
100.0
145
0.0
146
0.5
147
0.1
148
0.0
 69
0
 70
0
 71
0
 72
0
 73
0
 74
0
 75
0
 76
0
 77
1
 78
12
 79
3
170
0
171
3
172
0
173
0
174
0
175
0
176
0
177
0
178
0
179
2
271
2
272
2
273
2
274
3
275
0
276
0
277
2
278
46
279
1
280
0
281
0
282
0
283
0
284
8
285
0
286
0
288
1
289
3
290
0
340
4C
342
84
371
-2
372
-2
  0
DIMSTYLE
105
88
330
4
100
AcDbSymbolTableRecord
100
AcDbDimStyleTableRecord
  2
EZ_RADIUS_INSIDE
 70
0
 40
1.0
 41
0.25
 42
0.125
 43
3.75
 44
0.375
 45
0.0
 46
0.0
 47
0.0
 48
0.0
 49
2.5
140
0.25
141
0.0
142
0.0
143
0.03937007874
144
100.0
145
0.0
146
0.5
147
0.1
148
0.0
 69
0
 70
0
 71
0
 72
0
 73
0
 74
0
 75
0
 76
0
 77
0
 78
12
 79
3
170
0
171
3
172
0
173
0
174
1
175
0
176
0
177
0
178
0
179
2
271
2
272
2
273
2
274
3
275
0
276
0
277
2
278
46
279
0
280
0
281
0
282
0
283
0
284
8
285
0
286
0
288
1
289
0
290
0
340
4C
342
84
371
-2
372
-2
  0
DIMSTYLE
105
89
330
4
100
AcDbSymbolTableRecord
100
AcDbDimStyleTableRecord
  2
EZ_CURVED
 70
0
 40
1.0
 41
0.25
 42
0.125
 43
3.75
 44
0.375
 45
0.0
 46
0.0
 47
0.0
 48
0.0
 49
2.5
140
0.25
141
2.5
142
0.0
143
0.03937007874
144
100.0
145
0.0
146
0.5
147
0.1
148
0.0
 69
0
 70
0
 71
0
 72
0
 73
0
 74
0
 75
0
 76
0
 77
1
 78
12
 79
2
 90
2
170
0
171
3
172
1
173
0
174
0
175
0
176
0
177
0
178
0
179
2
271
2
272
2
273
2
274
3
275
0
276
0
277
2
278
46
279
2
280
0
281
0
282
0
283
0
284
8
285
0
286
0
288
1
289
3
290
0
340
4C
371
-2
372
-2
  0
ENDTAB
  0
TABLE
  2
BLOCK_RECORD
  5
9
330
0
100
AcDbSymbolTable
 70
5
  0
BLOCK_RECORD
  5
17
330
9
100
AcDbSymbolTableRecord
100
AcDbBlockTableRecord
  2
*Model_Space
340
1A
 70
0
280
1
281
0
  0
BLOCK_RECORD
  5
1B
330
9
100
AcDbSymbolTableRecord
100
AcDbBlockTableRecord
  2
*Paper_Space
340
1E
 70
0
280
1
281
0
  0
BLOCK_RECORD
  5
74
330
9
100
AcDbSymbolTableRecord
100
AcDbBlockTableRecord
  2
_ARCHTICK
340
0
 70
0
280
1
281
0
  0
BLOCK_RECORD
  5
78
330
9
100
AcDbSymbolTableRecord
100
AcDbBlockTableRecord
  2
_CLOSEDFILLED
340
0
 70
0
280
1
281
0
  0
BLOCK_RECORD
  5
84
330
9
100
AcDbSymbolTableRecord
100
AcDbBlockTableRecord
  2
_CLOSEDBLANK
340
0
 70
0
280
1
281
0
  0
ENDTAB
  0
ENDSEC
  0
SECTION
  2
BLOCKS
  0
BLOCK
  5
18
330
17
100
AcDbEntity
  8
0
100
AcDbBlockBegin
  2
*Model_Space
 70
0
 10
0.0
 20
0.0
 30
0.0
  3
*Model_Space
  1

  0
ENDBLK
  5
19
330
17
100
AcDbEntity
  8
0
100
AcDbBlockEnd
  0
BLOCK
  5
1C
330
1B
100
AcDbEntity
  8
0
100
AcDbBlockBegin
  2
*Paper_Space
 70
0
 10
0.0
 20
0.0
 30
0.0
  3
*Paper_Space
  1

  0
ENDBLK
  5
1D
330
1B
100
AcDbEntity
  8
0
100
AcDbBlockEnd
  0
BLOCK
  5
75
330
74
100
AcDbEntity
  8
0
100
AcDbBlockBegin
  2
_ARCHTICK
 70
0
 10
0.0
 20
0.0
 30
0.0
  3
_ARCHTICK
  1

  0
LWPOLYLINE
  5
77
330
74
100
AcDbEntity
  8
0
  6
BYBLOCK
 62
0
100
AcDbPolyline
 90
2
 70
0
 43
0.15
 10
-0.5
 20
-0.5
 10
0.5
 20
0.5
  0
ENDBLK
  5
76
330
74
100
AcDbEntity
  8
0
100
AcDbBlockEnd
  0
BLOCK
  5
79
330
78
100
AcDbEntity
  8
0
100
AcDbBlockBegin
  2
_CLOSEDFILLED
 70
0
 10
0.0
 20
0.0
 30
0.0
  3
_CLOSEDFILLED
  1

  0
SOLID
  5
7B
330
78
100
AcDbEntity
  8
0
  6
BYBLOCK
 62
0
100
AcDbTrace
 10
-1.0
 20
0.16439898372402537
 30
0.0
 11
0.0
 21
0.0
 31
0.0
 12
-1.0
 22
-0.16439898372402537
 32
0.0
 13
-1.0
 23
-0.16439898372402537
 33
0.0
  0
ENDBLK
  5
7A
330
78
100
AcDbEntity
  8
0
100
AcDbBlockEnd
  0
BLOCK
  5
85
330
84
100
AcDbEntity
  8
0
100
AcDbBlockBegin
  2
_CLOSEDBLANK
 70
0
 10
0.0
 20
0.0
 30
0.0
  3
_CLOSEDBLANK
  1

  0
LWPOLYLINE
  5
87
330
84
100
AcDbEntity
  8
0
  6
BYBLOCK
 62
0
100
AcDbPolyline
 90
3
 70
1
 10
-1.0
 20
0.16439898372402537
 10
0.0
 20
0.0
 10
-1.0
 20
-0.16439898372402537
  0
ENDBLK
  5
86
330
84
100
AcDbEntity
  8
0
100
AcDbBlockEnd
  0
ENDSEC
  0
SECTION
  2
ENTITIES
  0
LWPOLYLINE
  5
8C
330
17
100
AcDbEntity
  8
Layer
100
AcDbPolyline
 90
261
 70
1
 10
628.9856468140684
 20
145.5581961482872
 10
626.6258697883637
 20
146.38236707777185
 10
622.7815709679102
 20
147.72094990453587
 10
618.5653640288724
 20
149.17962600717863
 10
613.9810842308992
 20
150.74029328464545
 10
609.014745997785
 20
152.39970273301876
 10
603.6986593749355
 20
154.1768806442542
 10
598.0901763743902
 20
156.06498393264707
 10
592.2485458588556
 20
158.04979200665719
 10
586.2219656628239
 20
160.1164763501812
 10
580.0540142175519
 20
162.25026354616355
 10
573.7747269254623
 20
164.43927294116156
 10
567.4106370832302
 20
166.6712519080808
 10
560.9824596302082
 20
168.93867689145185
 10
554.5028835746681
 20
171.2334910385226
 10
547.9885294499256
 20
173.54495559312412
 10
541.4567382831674
 20
175.8644096016714
 10
534.9246525639974
 20
178.1837778555314
 10
528.4018054914504
 20
180.49553580829888
 10
521.8969322653584
 20
182.79438763882615
 10
515.4180383128767
 20
185.07477867325915
 10
508.96670064860007
 20
187.33294678643009
 10
502.543772234008
 20
189.5665564180588
 10
496.15212961509667
 20
191.771223034454
 10
489.792374696234
 20
193.94410055346435
 10
483.4636303497913
 20
196.08328813135853
 10
477.16659754787025
 20
198.18555197577874
 10
476.57068007440955
 20
198.38171385731798
 10
476.2580083076092
 20
197.43185262205995
 10
470.59385229563475
 20
199.29637608387162
 10
464.3651604449451
 20
201.31400412778711
 10
458.16378825585787
 20
203.28665248939762
 10
451.98622392630557
 20
205.21365137544197
 10
445.8307645746455
 20
207.09369861830703
 10
439.69229920870475
 20
208.92545998773736
 10
433.56608097954756
 20
210.70972019043361
 10
427.45043499889596
 20
212.44643525635365
 10
421.34343626522946
 20
214.13441012426048
 10
415.24095609888343
 20
215.7732445274107
 10
409.13926718069615
 20
217.36361862048827
 10
403.0370354886735
 20
218.90640375705792
 10
396.93453336537004
 20
220.4013387904735
 10
390.83018450284504
 20
221.84729029158555
 10
384.72111840935406
 20
223.2446299818399
 10
378.6067808420111
 20
224.59383491307457
 10
372.4870093394379
 20
225.8948697051688
 10
366.36254854014345
 20
227.14765813254903
 10
360.23189392179927
 20
228.35095024410987
 10
354.09280182477505
 20
229.50581869883845
 10
347.947327868737
 20
230.6129968129706
 10
341.7967015807832
 20
231.67151027653716
 10
335.6395671762133
 20
232.68069586236635
 10
329.4754015830416
 20
233.641166693744
 10
323.3053945231186
 20
234.5529403231803
 10
317.12982892527975
 20
235.41541321192312
 10
310.9464100327892
 20
236.22815928254627
 10
304.75254341999795
 20
236.99200031667377
 10
298.54855681699075
 20
237.70829990937403
 10
292.3378314716063
 20
238.37744764769076
 10
286.12142365760155
 20
238.99821587156296
 10
279.898246948198
 20
239.57059872533574
 10
273.6699694577398
 20
240.09568688316284
 10
267.4403448561536
 20
240.57326716513185
 10
261.2114261976145
 20
241.00258989122892
 10
254.98475691967894
 20
241.38321031765088
 10
248.76082545778502
 20
241.71471111588272
 10
242.54282551673953
 20
241.997755573085
 10
236.3349199549262
 20
242.2310716867613
 10
230.13635943415605
 20
242.41280777261858
 10
223.9471676995349
 20
242.54364967045927
 10
217.77144017474788
 20
242.6239039714878
 10
211.61209701503049
 20
242.65198463875157
 10
205.46940207817806
 20
242.62667932332252
 10
199.34409812833968
 20
242.5481888776173
 10
193.24025737171496
 20
242.4163765284883
 10
187.1611525632299
 20
242.2295101810239
 10
181.10637417787396
 20
241.98631879585753
 10
175.07864914183756
 20
241.68732615819783
 10
169.08105821965984
 20
241.33138790615288
 10
163.1176284455949
 20
240.9184722219049
 10
157.19070960046605
 20
240.44629393043795
 10
151.3014274299245
 20
239.91493107989814
 10
145.4562197769448
 20
239.32470902709733
 10
139.6586012892606
 20
238.6732436433699
 10
133.91009511921777
 20
237.95967462466962
 10
128.21480732495283
 20
237.1848569878159
 10
122.58009313604474
 20
236.34901185736055
 10
117.01040142804186
 20
235.45013571479038
 10
111.5088280610598
 20
234.48917090421548
 10
106.0864812109489
 20
233.4701478386636
 10
100.75633032617031
 20
232.3938603739194
 10
95.52712041305307
 20
231.25973893982007
 10
90.40748932726507
 20
230.07070890013196
 10
85.41203877135143
 20
228.83212842785233
 10
80.55533093778598
 20
227.54683254312454
 10
75.84685329429513
 20
226.21771693390917
 10
71.2997611895509
 20
224.85403884696916
 10
66.93004514391083
 20
223.46398563050258
 10
62.749394835874085
 20
222.05359369448328
 10
58.766403941119336
 20
220.63114251518638
 10
54.989424906601414
 20
219.2072084684572
 10
51.42439212157254
 20
217.7888877360227
 10
48.06982487932973
 20
216.3809998420748
 10
44.92242114128328
 20
214.9910005038491
 10
41.97687149037611
 20
213.62501756506438
 10
39.22867146569402
 20
212.28738169872773
 10
36.66700732500135
 20
210.97554140910526
 10
34.28040068262402
 20
209.69214809036336
 10
32.059887347483226
 20
208.43888546551776
 10
29.996392323594165
 20
207.2157443957664
 10
28.08268004642639
 20
206.02176264416536
 10
26.31150440874302
 20
204.85575643370018
 10
24.673824787621697
 20
203.7159687238037
 10
23.16586743747439
 20
202.60790544675342
 10
21.782764844456466
 20
201.53088712026624
 10
20.51738555083631
 20
200.4830299873374
 10
19.359149805252372
 20
199.46056103259866
 10
18.298809155110007
 20
198.46558165806474
 10
17.321324335962316
 20
197.49064627972
 10
16.41917700222797
 20
196.54621727491892
 10
15.588295992772288
 20
195.6336409802928
 10
14.82627649961546
 20
194.75214608371888
 10
14.132451466812938
 20
193.89939261338608
 10
13.507210487682357
 20
193.07290967409295
 10
12.947641967445549
 20
192.26314157603244
 10
12.447757319413512
 20
191.4621334117445
 10
12.00235196371736
 20
190.67031149029305
 10
11.605880025135775
 20
189.8864878893298
 10
11.25440832731752
 20
189.11477696914176
 10
10.946620172831643
 20
188.36155841346826
 10
10.682508818880706
 20
187.62780007286514
 10
10.46277227606737
 20
186.91577660425267
 10
10.289839885737877
 20
186.23275038637414
 10
10.163689549372492
 20
185.5508682303932
 10
10.079181970831456
 20
184.87822846412166
 10
10.035012947465617
 20
184.2198081922352
 10
10.031094458188761
 20
183.55959028193732
 10
10.070481004538635
 20
182.89751880874192
 10
10.15754246149217
 20
182.23814482403364
 10
10.297644259491875
 20
181.58401030428067
 10
10.49844499201177
 20
180.93292263229554
 10
10.767785045100851
 20
180.28114568006507
 10
11.109974100374103
 20
179.62767276444674
 10
11.524422311981027
 20
178.97516150535162
 10
12.007979170668932
 20
178.32847587043642
 10
12.559379334171837
 20
177.69184696958905
 10
13.181498664292178
 20
177.06748671490476
 10
13.881092599625873
 20
176.4550054465611
 10
14.662162764052482
 20
175.85427661819995
 10
15.526945993045103
 20
175.26586850107122
 10
16.481319804700576
 20
174.68903096680538
 10
17.531158701099116
 20
174.12113177763334
 10
18.675229215745077
 20
173.56089733394523
 10
19.910043016094733
 20
173.01066142777057
 10
21.240326052188323
 20
172.4735468076658
 10
22.67032944977035
 20
171.94873967871763
 10
24.196042829170835
 20
171.43581316275424
 10
25.82118949759584
 20
170.93417851857498
 10
27.553420481320757
 20
170.44072517808422
 10
29.40075648112017
 20
169.95020579590982
 10
31.365654409169395
 20
169.45916859926785
 10
33.452925091420866
 20
168.96910822064683
 10
35.6828486889159
 20
168.48232428504966
 10
38.07751944967373
 20
167.99478907808034
 10
40.64919216511939
 20
167.50185500982687
 10
43.41380485161545
 20
167.00402693245556
 10
46.39237722681119
 20
166.50331503312293
 10
49.60876851238902
 20
166.0019273905351
 10
53.086896043985774
 20
165.5002418037103
 10
56.84525323134079
 20
164.9982856232669
 10
60.89710014337598
 20
164.4991535585815
 10
65.25096016409304
 20
164.00754712256077
 10
69.90664714916826
 20
163.52763310377816
 10
74.85480300312474
 20
163.06377929600836
 10
80.07622301345344
 20
162.6204516690788
 10
85.55129803736952
 20
162.20451603450903
 10
91.2536635160227
 20
161.81590702048317
 10
97.15089435072107
 20
161.4556822175465
 10
103.21711477056681
 20
161.12691898323035
 10
109.43000021215573
 20
160.82825936422262
 10
115.76668597891191
 20
160.55836793940784
 10
122.21450308432817
 20
160.31815972063453
 10
128.77131378346746
 20
160.10301697426965
 10
131.5637393734882
 20
160.0182794096399
 10
131.53340783357626
 20
159.01873951664584
 10
135.39036758803343
 20
158.90169763733115
 10
142.08878702881344
 20
158.7077929031882
 10
148.80441239312108
 20
158.5303316297514
 10
155.54190354110807
 20
158.37928587871843
 10
162.32565783739977
 20
158.25351370840002
 10
169.16842189447377
 20
158.14248390093755
 10
176.05772212293226
 20
158.03517131442365
 10
182.9694301390499
 20
157.92603496618773
 10
189.88387610687462
 20
157.8174466320059
 10
196.78654229792156
 20
157.71850092545526
 10
203.6908535314474
 20
157.63707761947347
 10
210.62089741485843
 20
157.57128591975132
 10
217.58588981220953
 20
157.51222826914653
 10
224.57401924115615
 20
157.4533354580053
 10
231.57564288548315
 20
157.39452543917764
 10
238.58255280351932
 20
157.33699859064944
 10
245.58708954602992
 20
157.27959676116708
 10
252.57936331669512
 20
157.22286906057445
 10
259.5544857584148
 20
157.17205163036814
 10
266.52112549506955
 20
157.1314740816293
 10
273.488762563293
 20
157.09751576922332
 10
280.45357263785434
 20
157.06023367516622
 10
287.4190460233609
 20
157.0150966510876
 10
294.3849345069478
 20
156.96762599778657
 10
301.34939581594267
 20
156.92694158806788
 10
308.32012914783627
 20
156.89399845724265
 10
315.294016545316
 20
156.86320781091183
 10
322.25889722796245
 20
156.83191966596976
 10
329.2076891440615
 20
156.8056251775095
 10
336.14597290443305
 20
156.78823612720205
 10
343.0793586520681
 20
156.77475567019565
 10
349.99833274941267
 20
156.75314166966177
 10
356.9138252017188
 20
156.71864212589617
 10
363.83294802248895
 20
156.67753859218539
 10
370.74739414589175
 20
156.63851682974342
 10
377.6374501931051
 20
156.5971631261203
 10
384.4934797221776
 20
156.5414333903942
 10
391.33208839274175
 20
156.4674851415091
 10
398.15631611724734
 20
156.3909757590809
 10
404.95318613046516
 20
156.33356927575227
 10
411.751016095828
 20
156.30149650822648
 10
418.5596901446994
 20
156.27655783548943
 10
425.36543397738103
 20
156.23580267397736
 10
432.1836415297005
 20
156.17227837534344
 10
439.02297772419126
 20
156.09780285633929
 10
445.8565430193337
 20
156.02279524612513
 10
452.6549426240687
 20
155.94015561041923
 10
459.4188592124368
 20
155.83211844789676
 10
466.18571690168153
 20
155.69094123833884
 10
472.9803422201274
 20
155.53020417762974
 10
479.785724783079
 20
155.3678417319692
 10
486.5666581167759
 20
155.20453920706976
 10
493.29904475815886
 20
155.02175238711834
 10
500.0091327087262
 20
154.804124771699
 10
506.73468606686174
 20
154.554711971877
 10
513.4814711705342
 20
154.29076637893624
 10
520.2112354641592
 20
154.02521439618053
 10
526.8817938921196
 20
153.74988401806004
 10
533.4883002693687
 20
153.44197963867802
 10
540.0731510933902
 20
153.08703339253572
 10
546.6787941319238
 20
152.6953518705407
 10
553.2968808012839
 20
152.29048602636294
 10
559.8697997859258
 20
151.88033568558717
 10
566.3576850627007
 20
151.4505361817224
 10
572.7613702501517
 20
150.98912147784878
 10
579.0786775001224
 20
150.50097079775773
 10
585.2830605269595
 20
149.9923368779762
 10
591.3371067983079
 20
149.4666507221816
 10
597.2010484878213
 20
148.92186720439122
 10
602.848262940045
 20
148.35041616237305
 10
608.2607341202898
 20
147.7599047033352
 10
613.3961055110447
 20
147.1771846423334
 10
618.195810341013
 20
146.62277880879657
 10
622.6175497258843
 20
146.09607999241848
 10
626.6543914627835
 20
145.59737317853768
 10
629.1346497360133
 20
145.28517765476786
  0
LWPOLYLINE
  5
8D
330
17
100
AcDbEntity
  8
Layer
100
AcDbPolyline
 90
5
 70
0
 10
416.13209387151437
 20
211.40734790583332
 10
412.26140600636336
 20
212.41619648246535
 10
413.27025458299545
 20
216.28688434761636
 10
417.14094244814646
 20
215.27803577098433
 10
416.13209387151437
 20
211.40734790583332
  0
LWPOLYLINE
  5
8E
330
17
100
AcDbEntity
  8
Layer
100
AcDbPolyline
 90
5
 70
0
 10
182.75886036166574
 20
238.06338613669053
 10
178.76377452017888
 20
237.86517130588467
 10
178.56555968937303
 20
241.86025714737153
 10
182.5606455308599
 20
242.05847197817738
 10
182.75886036166574
 20
238.06338613669053
  0
LWPOLYLINE
  5
8F
330
17
100
AcDbEntity
  8
Layer
100
AcDbPolyline
 90
5
 70
0
 10
77.03785546880974
 20
222.3988928446756
 10
73.20649628384322
 20
221.2496814647403
 10
72.05728490390791
 20
225.0810406497068
 10
75.88864408887443
 20
226.23025202964212
 10
77.03785546880974
 20
222.3988928446756
  0
LWPOLYLINE
  5
90
330
17
100
AcDbEntity
  8
Layer
100
AcDbPolyline
 90
5
 70
0
 10
23.997980870553935
 20
196.88624540403353
 10
22.499218321200328
 20
195.561967932861
 10
19.18852464326903
 20
199.30887430624503
 10
20.687287192622637
 20
200.63315177741757
 10
23.997980870553935
 20
196.88624540403353
  0
LWPOLYLINE
  5
91
330
17
100
AcDbEntity
  8
Layer
100
AcDbPolyline
 90
5
 70
0
 10
16.962607846625065
 20
180.33516103042098
 10
18.618429905731563
 20
179.2134421224158
 10
15.814132635718646
 20
175.07388697464955
 10
14.158310576612145
 20
176.19560588265472
 10
16.962607846625065
 20
180.33516103042098
  0
LWPOLYLINE
  5
92
330
17
100
AcDbEntity
  8
Layer
100
AcDbPolyline
 90
5
 70
0
 10
98.7467621949064
 20
165.37506941832638
 10
102.74090174642215
 20
165.15862255875712
 10
102.5244548868529
 20
161.16448300724133
 10
98.53031533533714
 20
161.3809298668106
 10
98.7467621949064
 20
165.37506941832638
  0
LINE
  5
93
330
17
100
AcDbEntity
  8
Layer
100
AcDbLine
 10
610.1286351187147
 20
152.0275174236521
 30
0.0
 11
609.8175651939077
 21
151.0771303962361
 31
0.0
  0
LINE
  5
94
330
17
100
AcDbEntity
  8
Layer
100
AcDbLine
 10
609.3139190739737
 20
148.64660125757183
 30
0.0
 11
609.2216816522864
 21
147.65086421495442
 31
0.0
  0
LINE
  5
95
330
17
100
AcDbEntity
  8
Layer
100
AcDbLine
 10
591.1764682742108
 20
158.41743765097914
 30
0.0
 11
590.8611852985875
 21
157.4684399453538
 31
0.0
  0
LINE
  5
96
330
17
100
AcDbEntity
  8
Layer
100
AcDbLine
 10
589.416594168894
 20
150.63713133044746
 30
0.0
 11
589.3207036767577
 21
149.6417394410301
 31
0.0
  0
LINE
  5
97
330
17
100
AcDbEntity
  8
Layer
100
AcDbLine
 10
515.7080701735232
 20
184.9726954998704
 30
0.0
 11
515.3816820484245
 21
184.0274596606247
 31
0.0
  0
LINE
  5
98
330
17
100
AcDbEntity
  8
Layer
100
AcDbLine
 10
509.5200616782802
 20
155.44596410779135
 30
0.0
 11
509.4480413118241
 21
154.44856094616836
 31
0.0
  0
LWPOLYLINE
  5
99
330
17
100
AcDbEntity
  8
Layer
100
AcDbPolyline
 90
300
 70
1
 10
284.15606651376146
 20
200.0
 10
284.1477039708914
 20
200.8020505126867
 10
284.1226200349449
 20
201.60374686244563
 10
284.08082578228175
 20
202.4047350427374
 10
284.02233966806756
 20
203.20466135973038
 10
283.94718751812377
 20
204.0031725884818
 10
283.8554025175242
 20
204.79991612891203
 10
283.7470251959413
 20
205.59454016150292
 10
283.6221034097494
 20
206.38669380265122
 10
283.48069232089244
 20
207.17602725960901
 10
283.3228543725265
 20
207.9621919849424
 10
283.14865926144614
 20
208.74484083044007
 10
282.95818390730875
 20
209.52362820040435
 10
282.75151241866854
 20
210.2982102042564
 10
282.5287360558368
 20
211.0682448083887
 10
282.28995319058413
 20
211.83339198719744
 10
282.03526926270166
 20
212.5933138732282
 10
281.7647967334423
 20
213.3476749063688
 10
281.4786550358609
 20
214.09614198202314
 10
281.1769705220759
 20
214.8383845982008
 10
280.85987640747584
 20
215.57407500145746
 10
280.5275127118951
 20
216.3028883316216
 10
280.18002619778525
 20
217.02450276524354
 10
279.8175703054088
 20
217.73859965770365
 10
279.44030508508433
 20
218.44486368391688
 10
279.04839712651255
 20
219.14298297757142
 10
278.64201948521537
 20
219.83264926884
 10
278.22135160611924
 20
220.51355802050335
 10
277.7865792443172
 20
221.18540856242504
 10
277.33789438304495
 20
221.8479042243192
 10
276.87549514890617
 20
222.50075246675146
 10
276.39958572438564
 20
223.14366501031648
 10
275.9103762576878
 20
223.7763579629337
 10
275.4080827699413
 20
224.39855194520626
 10
274.8929270598103
 20
225.0099722137871
 10
274.3651366055541
 20
225.6103487826978
 10
273.82494446457935
 20
226.1994165425468
 10
273.2725891705286
 20
226.7769153775943
 10
272.7083146279501
 20
227.34259028061197
 10
272.132370004597
 20
227.89619146548705
 10
271.54500962140145
 20
228.43747447752082
 10
270.94649284017373
 20
228.9662003013729
 10
270.3370839490756
 20
229.48213546660372
 10
269.71705204591774
 20
229.98505215076847
 10
269.086670919334
 20
230.47472828001713
 10
268.4462189278839
 20
230.95094762715593
 10
267.7959788771374
 20
231.41349990712735
 10
267.13623789479595
 20
231.86218086986585
 10
266.46728730390487
 20
232.29679239048923
 10
265.78942249421334
 20
232.7171425567848
 10
265.10294279173866
 20
233.12304575395245
 10
264.4081513265923
 20
233.51432274656696
 10
263.705354899126
 20
233.89080075772324
 10
262.99486384445765
 20
234.2523135453299
 10
262.2769918954359
 20
234.59870147551698
 10
261.55205604410446
 20
234.92981159312563
 10
260.8203764017275
 20
235.24549768924908
 10
260.08227605743747
 20
235.54562036579424
 10
259.3380809355681
 20
235.8300470970359
 10
258.58811965173516
 20
236.09865228813652
 10
257.83272336772933
 20
236.3513173306052
 10
257.07222564528445
 20
236.58793065467208
 10
256.3069622987858
 20
236.80838777855413
 10
255.53727124698415
 20
237.01259135459156
 10
254.76349236378027
 20
237.20045121223382
 10
253.98596732814627
 20
237.37188439785618
 10
253.20503947324966
 20
237.52681521138993
 10
252.42105363484708
 20
237.6651752397493
 10
251.63435599901473
 20
237.78690338704075
 10
250.84529394928214
 20
237.89194590154125
 10
250.05421591323744
 20
237.98025639943342
 10
249.26147120867162
 20
238.05179588528745
 10
248.46740988932956
 20
238.10653276928034
 10
247.67238259033607
 20
238.14444288114498
 10
246.87674037336555
 20
238.1655094808432
 10
246.0808345716227
 20
238.16972326595766
 10
245.2850166347039
 20
238.1570823757994
 10
244.48963797340696
 20
238.12759239222973
 10
243.69504980455784
 20
238.08126633719516
 10
242.90160299592335
 20
238.0181246669775
 10
242.10964791127776
 20
237.9381952631608
 10
241.31953425569202
 20
237.84151342031967
 10
240.53161092111375
 20
237.7281218304342
 10
239.7462258323066
 20
237.5980705640384
 10
238.96372579321633
 20
237.45141704811041
 10
238.18445633383186
 20
237.2882260407144
 10
237.40876155760918
 20
237.1085696024052
 10
236.63698398952474
 20
236.91252706440847
 10
235.8694644248262
 20
236.70018499359014
 10
235.10654177854673
 20
236.47163715423102
 10
234.34855293584982
 20
236.22698446662307
 10
233.59583260327014
 20
235.9663349625059
 10
232.84871316091662
 20
235.68980373736295
 10
232.10752451570272
 20
235.39751289959855
 10
231.37259395566886
 20
235.08959151661836
 10
230.6442460054612
 20
234.76617555783676
 10
229.92280228303076
 20
234.4274078346366
 10
229.20858135761583
 20
234.07343793730774
 10
228.501898609071
 20
233.7044221689922
 10
227.80306608860403
 20
233.32052347666504
 10
227.11239238098307
 20
232.9219113791816
 10
226.43018246827415
 20
232.50876189242277
 10
225.7567375951697
 20
232.08125745157125
 10
225.09235513596744
 20
231.63958683055336
 10
224.43732846325824
 20
231.18394505868181
 10
223.791946818381
 20
230.71453333453624
 10
223.15649518370188
 20
230.23155893711956
 10
222.53125415677403
 20
229.73523513432934
 10
221.91649982643372
 20
229.22578108878486
 10
221.31250365088715
 20
228.70342176105086
 10
220.71953233784234
 20
228.1683878103015
 10
220.13784772673822
 20
227.62091549246762
 10
219.56770667312398
 20
227.06124655591273
 10
219.0093609352388
 20
226.48962813468395
 10
218.4630570628424
 20
225.90631263938437
 10
217.9290362883458
 20
225.3115576457157
 10
217.40753442028972
 20
224.70562578074012
 10
216.8987817392182
 20
224.08878460691153
 10
216.4030028959932
 20
223.46130650392746
 10
215.92041681259522
 20
222.823468548454
 10
215.45123658545327
 20
222.17555239177642
 10
214.99566939134772
 20
221.5178441354299
 10
214.55391639592673
 20
220.8506342048652
 10
214.12617266487723
 20
220.17421722120497
 10
213.7126270777894
 20
219.48889187114722
 10
213.31346224475266
 20
218.7949607750739
 10
212.9288544257204
 20
218.09273035342204
 10
212.5589734526783
 20
217.38251069137723
 10
212.2039826546515
 20
216.6646154019488
 10
211.86403878558298
 20
215.9393614874869
 10
211.53929195511557
 20
215.20706919970348
 10
211.22988556230754
 20
214.46806189825796
 10
210.93595623231187
 20
213.72266590797074
 10
210.6576337560462
 20
212.97121037472735
 10
210.39504103288098
 20
212.21402712013696
 10
210.14829401637044
 20
211.45145049500923
 10
209.91750166305087
 20
210.68381723171436
 10
209.70276588432844
 20
209.91146629549172
 10
209.50418150147797
 20
209.13473873477216
 10
209.32183620377253
 20
208.3539775305807
 10
209.15581050976238
 20
207.5695274450858
 10
209.0061777317202
 20
206.78173486936205
 10
208.87300394326834
 20
205.99094767043363
 10
208.7563479502029
 20
205.197515037666
 10
208.65626126452636
 20
204.40178732857376
 10
208.5727880817016
 20
203.60411591411258
 10
208.50596526113623
 20
202.80485302352375
 10
208.4558223099067
 20
202.00435158879958
 10
208.42238136972873
 20
201.20296508883857
 10
208.40565720718004
 20
200.4010473933592
 10
208.40565720718004
 20
199.59895260664084
 10
208.42238136972873
 20
198.79703491116143
 10
208.4558223099067
 20
197.99564841120045
 10
208.50596526113623
 20
197.19514697647625
 10
208.5727880817016
 20
196.3958840858874
 10
208.65626126452636
 20
195.59821267142624
 10
208.7563479502029
 20
194.802484962334
 10
208.87300394326834
 20
194.00905232956637
 10
209.0061777317202
 20
193.21826513063795
 10
209.15581050976238
 20
192.4304725549142
 10
209.32183620377253
 20
191.6460224694193
 10
209.50418150147797
 20
190.86526126522784
 10
209.70276588432844
 20
190.08853370450828
 10
209.91750166305087
 20
189.31618276828564
 10
210.14829401637044
 20
188.5485495049908
 10
210.39504103288098
 20
187.78597287986304
 10
210.6576337560462
 20
187.02878962527265
 10
210.93595623231187
 20
186.27733409202926
 10
211.22988556230754
 20
185.53193810174204
 10
211.53929195511557
 20
184.79293080029652
 10
211.86403878558298
 20
184.0606385125131
 10
212.2039826546515
 20
183.3353845980512
 10
212.5589734526783
 20
182.61748930862277
 10
212.92885442572037
 20
181.907269646578
 10
213.31346224475266
 20
181.2050392249261
 10
213.7126270777894
 20
180.51110812885278
 10
214.12617266487723
 20
179.82578277879503
 10
214.5539163959267
 20
179.1493657951348
 10
214.99566939134772
 20
178.48215586457013
 10
215.45123658545327
 20
177.8244476082236
 10
215.92041681259522
 20
177.176531451546
 10
216.4030028959932
 20
176.53869349607254
 10
216.89878173921818
 20
175.9112153930885
 10
217.40753442028972
 20
175.29437421925988
 10
217.9290362883458
 20
174.6884423542843
 10
218.46305706284238
 20
174.09368736061563
 10
219.00936093523876
 20
173.51037186531605
 10
219.56770667312395
 20
172.93875344408727
 10
220.13784772673822
 20
172.37908450753238
 10
220.71953233784234
 20
171.8316121896985
 10
221.31250365088718
 20
171.29657823894914
 10
221.91649982643372
 20
170.77421891121514
 10
222.53125415677403
 20
170.26476486567066
 10
223.15649518370185
 20
169.76844106288047
 10
223.79194681838098
 20
169.28546666546376
 10
224.43732846325824
 20
168.81605494131819
 10
225.09235513596744
 20
168.36041316944664
 10
225.75673759516968
 20
167.91874254842875
 10
226.43018246827415
 20
167.4912381075772
 10
227.1123923809831
 20
167.0780886208184
 10
227.80306608860406
 20
166.67947652333496
 10
228.501898609071
 20
166.2955778310078
 10
229.20858135761586
 20
165.92656206269226
 10
229.92280228303076
 20
165.5725921653634
 10
230.64424600546118
 20
165.23382444216327
 10
231.37259395566886
 20
164.91040848338164
 10
232.10752451570272
 20
164.60248710040145
 10
232.84871316091662
 20
164.31019626263705
 10
233.59583260327014
 20
164.0336650374941
 10
234.34855293584982
 20
163.77301553337693
 10
235.10654177854673
 20
163.52836284576898
 10
235.8694644248262
 20
163.29981500640986
 10
236.63698398952474
 20
163.08747293559153
 10
237.40876155760918
 20
162.8914303975948
 10
238.18445633383186
 20
162.7117739592856
 10
238.96372579321633
 20
162.54858295188959
 10
239.7462258323066
 20
162.4019294359616
 10
240.53161092111375
 20
162.2718781695658
 10
241.31953425569202
 20
162.15848657968033
 10
242.10964791127776
 20
162.0618047368392
 10
242.90160299592335
 20
161.98187533302251
 10
243.69504980455784
 20
161.91873366280484
 10
244.48963797340693
 20
161.87240760777027
 10
245.28501663470388
 20
161.8429176242006
 10
246.08083457162266
 20
161.83027673404234
 10
246.87674037336552
 20
161.83449051915676
 10
247.67238259033607
 20
161.85555711885502
 10
248.46740988932956
 20
161.89346723071966
 10
249.26147120867162
 20
161.94820411471255
 10
250.05421591323744
 20
162.01974360056658
 10
250.84529394928214
 20
162.10805409845875
 10
251.63435599901476
 20
162.21309661295925
 10
252.42105363484708
 20
162.3348247602507
 10
253.20503947324966
 20
162.47318478861007
 10
253.98596732814627
 20
162.62811560214382
 10
254.76349236378027
 20
162.79954878776618
 10
255.53727124698412
 20
162.9874086454084
 10
256.3069622987858
 20
163.19161222144587
 10
257.07222564528445
 20
163.41206934532792
 10
257.83272336772933
 20
163.6486826693948
 10
258.5881196517351
 20
163.90134771186348
 10
259.3380809355681
 20
164.1699529029641
 10
260.08227605743747
 20
164.45437963420576
 10
260.8203764017275
 20
164.75450231075092
 10
261.55205604410446
 20
165.07018840687437
 10
262.2769918954359
 20
165.40129852448302
 10
262.9948638444577
 20
165.7476864546701
 10
263.705354899126
 20
166.10919924227676
 10
264.4081513265923
 20
166.48567725343307
 10
265.10294279173866
 20
166.87695424604755
 10
265.78942249421334
 20
167.2828574432152
 10
266.4672873039048
 20
167.70320760951074
 10
267.13623789479595
 20
168.13781913013415
 10
267.7959788771374
 20
168.58650009287265
 10
268.4462189278839
 20
169.04905237284407
 10
269.086670919334
 20
169.52527171998287
 10
269.71705204591774
 20
170.0149478492315
 10
270.3370839490756
 20
170.51786453339628
 10
270.94649284017373
 20
171.0337996986271
 10
271.54500962140145
 20
171.56252552247918
 10
272.132370004597
 20
172.10380853451295
 10
272.70831462795013
 20
172.65740971938803
 10
273.2725891705286
 20
173.2230846224057
 10
273.82494446457935
 20
173.8005834574532
 10
274.3651366055541
 20
174.38965121730217
 10
274.8929270598103
 20
174.99002778621286
 10
275.4080827699413
 20
175.6014480547937
 10
275.91037625768774
 20
176.2236420370663
 10
276.3995857243856
 20
176.85633498968352
 10
276.87549514890617
 20
177.4992475332485
 10
277.3378943830449
 20
178.1520957756808
 10
277.7865792443172
 20
178.81459143757493
 10
278.22135160611924
 20
179.48644197949665
 10
278.64201948521537
 20
180.16735073116
 10
279.04839712651255
 20
180.85701702242858
 10
279.44030508508433
 20
181.55513631608312
 10
279.8175703054088
 20
182.26140034229635
 10
280.1800261977853
 20
182.97549723475646
 10
280.5275127118951
 20
183.6971116683784
 10
280.85987640747584
 20
184.4259249985425
 10
281.1769705220759
 20
185.1616154017992
 10
281.4786550358609
 20
185.90385801797686
 10
281.76479673344227
 20
186.6523250936312
 10
282.0352692627016
 20
187.4066861267718
 10
282.28995319058413
 20
188.16660801280256
 10
282.5287360558368
 20
188.9317551916113
 10
282.75151241866854
 20
189.7017897957436
 10
282.95818390730875
 20
190.47637179959565
 10
283.14865926144614
 20
191.25515916955993
 10
283.3228543725265
 20
192.0378080150576
 10
283.48069232089244
 20
192.82397274039099
 10
283.6221034097494
 20
193.6133061973488
 10
283.7470251959413
 20
194.40545983849708
 10
283.8554025175242
 20
195.20008387108797
 10
283.94718751812377
 20
195.99682741151818
 10
284.02233966806756
 20
196.7953386402696
 10
284.08082578228175
 20
197.59526495726257
 10
284.1226200349449
 20
198.39625313755437
 10
284.1477039708914
 20
199.1979494873133
 10
284.15606651376146
 20
200.0
  0
LINE
  5
9A
330
17
100
AcDbEntity
  8
Layer
 62
7
100
AcDbLine
 10
19.97021725303108
 20
200.00000000000003
 30
0.0
 11
468.4216696846943
 21
199.99999999999997
 31
0.0
  0
LINE
  5
9B
330
17
100
AcDbEntity
  8
Layer
 62
7
100
AcDbLine
 10
107.56050773936371
 20
200.00000000000003
 30
0.0
 11
119.56050773936371
 21
200.00000000000003
 31
0.0
  0
LWPOLYLINE
  5
9C
330
17
100
AcDbEntity
  8
Layer
100
AcDbPolyline
 90
5
 70
0
 10
113.56050773936371
 20
205.00000000000003
 10
118.56050773936371
 20
200.00000000000003
 10
113.56050773936371
 20
195.00000000000003
 10
108.56050773936371
 20
200.00000000000003
 10
113.56050773936371
 20
205.00000000000003
  0
LINE
  5
9D
330
17
100
AcDbEntity
  8
Layer
 62
7
100
AcDbLine
 10
238.19594346886268
 20
200.0
 30
0.0
 11
250.19594346886268
 21
200.0
 31
0.0
  0
LWPOLYLINE
  5
9E
330
17
100
AcDbEntity
  8
Layer
100
AcDbPolyline
 90
5
 70
0
 10
244.19594346886268
 20
205.0
 10
249.19594346886268
 20
200.0
 10
244.19594346886268
 20
195.0
 10
239.19594346886268
 20
200.0
 10
244.19594346886268
 20
205.0
  0
LINE
  5
9F
330
17
100
AcDbEntity
  8
Layer
 62
7
100
AcDbLine
 10
368.8313791983616
 20
199.99999999999997
 30
0.0
 11
380.8313791983616
 21
199.99999999999997
 31
0.0
  0
LWPOLYLINE
  5
A0
330
17
100
AcDbEntity
  8
Layer
100
AcDbPolyline
 90
5
 70
0
 10
374.8313791983616
 20
204.99999999999997
 10
379.8313791983616
 20
199.99999999999997
 10
374.8313791983616
 20
194.99999999999997
 10
369.8313791983616
 20
199.99999999999997
 10
374.8313791983616
 20
204.99999999999997
  0
LINE
  5
A1
330
17
100
AcDbEntity
  8
Layer
 62
7
100
AcDbLine
 10
10.078122772781995
 20
184.86243917527528
 30
0.0
 11
628.0860580369517
 21
145.8723846968301
 31
0.0
  0
LINE
  5
A2
330
17
100
AcDbEntity
  8
Layer
 62
7
100
AcDbLine
 10
131.58387674176555
 20
177.19665416448873
 30
0.0
 11
143.56006579233912
 21
176.44107767933176
 31
0.0
  0
LWPOLYLINE
  5
A3
330
17
100
AcDbEntity
  8
Layer
100
AcDbPolyline
 90
5
 70
0
 10
137.8867948025344
 20
181.80894469298255
 10
142.56205003812465
 20
176.50404238642815
 10
137.25714773157026
 20
171.8287871508379
 10
132.58189249598001
 20
177.1336894573923
 10
137.8867948025344
 20
181.80894469298255
  0
LINE
  5
A4
330
17
100
AcDbEntity
  8
Layer
 62
7
100
AcDbLine
 10
282.842309356611
 20
167.65377584294077
 30
0.0
 11
294.8184984071845
 21
166.8981993577838
 31
0.0
  0
LWPOLYLINE
  5
A5
330
17
100
AcDbEntity
  8
Layer
100
AcDbPolyline
 90
5
 70
0
 10
289.1452274173798
 20
172.2660663714346
 10
293.82048265297004
 20
166.9611640648802
 10
288.5155803464157
 20
162.28590882928995
 10
283.8403251108254
 20
167.59081113584435
 10
289.1452274173798
 20
172.2660663714346
  0
LINE
  5
A6
330
17
100
AcDbEntity
  8
Layer
100
AcDbLine
 10
246.27981651376146
 20
238.17024999999998
 30
0.0
 11
246.27981651376146
 21
239.17024999999998
 31
0.0
  0
LINE
  5
A7
330
17
100
AcDbEntity
  8
Layer
100
AcDbLine
 10
246.27981651376146
 20
161.82975000000002
 30
0.0
 11
246.27981651376146
 21
160.82975000000002
 31
0.0
  0
LINE
  5
A8
330
17
100
AcDbEntity
  8
Layer
100
AcDbLine
 10
284.15606651376146
 20
200.0
 30
0.0
 11
285.15606651376146
 21
200.0
 31
0.0
  0
LINE
  5
A9
330
17
100
AcDbEntity
  8
Layer
100
AcDbLine
 10
208.40356651376146
 20
200.0
 30
0.0
 11
207.40356651376146
 21
200.0
 31
0.0
  0
LINE
  5
AA
330
17
100
AcDbEntity
  8
Layer
 62
7
100
AcDbLine
 10
166.27981651376146
 20
158.18935403946352
 30
0.0
 11
166.27981651376146
 21
241.13742626334704
 31
0.0
  0
LINE
  5
AB
330
17
100
AcDbEntity
  8
Layer
 62
7
100
AcDbLine
 10
166.27981651376146
 20
183.17117931782275
 30
0.0
 11
166.27981651376146
 21
195.17117931782275
 31
0.0
  0
LWPOLYLINE
  5
AC
330
17
100
AcDbEntity
  8
Layer
100
AcDbPolyline
 90
5
 70
0
 10
161.27981651376146
 20
189.17117931782275
 10
166.27981651376146
 20
194.17117931782275
 10
171.27981651376146
 20
189.17117931782275
 10
166.27981651376146
 20
184.17117931782275
 10
161.27981651376146
 20
189.17117931782275
  0
LINE
  5
AD
330
17
100
AcDbEntity
  8
Layer
 62
7
100
AcDbLine
 10
166.27981651376146
 20
204.1556009849878
 30
0.0
 11
166.27981651376146
 21
216.1556009849878
 31
0.0
  0
LWPOLYLINE
  5
AE
330
17
100
AcDbEntity
  8
Layer
100
AcDbPolyline
 90
5
 70
0
 10
161.27981651376146
 20
210.1556009849878
 10
166.27981651376146
 20
215.1556009849878
 10
171.27981651376146
 20
210.1556009849878
 10
166.27981651376146
 20
205.1556009849878
 10
161.27981651376146
 20
210.1556009849878
  0
LINE
  5
AF
330
17
100
AcDbEntity
  8
Layer
 62
7
100
AcDbLine
 10
376.2798165137615
 20
156.60531156213005
 30
0.0
 11
376.2798165137615
 21
225.0885366433176
 31
0.0
  0
LINE
  5
B0
330
17
100
AcDbEntity
  8
Layer
 62
7
100
AcDbLine
 10
376.2798165137615
 20
176.5244403405457
 30
0.0
 11
376.2798165137615
 21
188.5244403405457
 31
0.0
  0
LWPOLYLINE
  5
B1
330
17
100
AcDbEntity
  8
Layer
100
AcDbPolyline
 90
5
 70
0
 10
371.2798165137615
 20
182.5244403405457
 10
376.2798165137615
 20
187.5244403405457
 10
381.2798165137615
 20
182.5244403405457
 10
376.2798165137615
 20
177.5244403405457
 10
371.2798165137615
 20
182.5244403405457
  0
LINE
  5
B2
330
17
100
AcDbEntity
  8
Layer
 62
7
100
AcDbLine
 10
376.2798165137615
 20
193.16940786490196
 30
0.0
 11
376.2798165137615
 21
205.16940786490196
 31
0.0
  0
LWPOLYLINE
  5
B3
330
17
100
AcDbEntity
  8
Layer
100
AcDbPolyline
 90
5
 70
0
 10
371.2798165137615
 20
199.16940786490196
 10
376.2798165137615
 20
204.16940786490196
 10
381.2798165137615
 20
199.16940786490196
 10
376.2798165137615
 20
194.16940786490196
 10
371.2798165137615
 20
199.16940786490196
  0
LWPOLYLINE
  5
B4
330
17
100
AcDbEntity
  8
NumLabel
 62
1
100
AcDbPolyline
 90
6
 70
0
 10
189.10091743119267
 20
178.9105504587156
 10
184.10091743119267
 20
178.9105504587156
 10
184.10091743119267
 20
173.9105504587156
 10
189.10091743119267
 20
173.9105504587156
 10
189.10091743119267
 20
168.9105504587156
 10
184.10091743119267
 20
168.9105504587156
  0
LWPOLYLINE
  5
B5
330
17
100
AcDbEntity
  8
NumLabel
 62
1
100
AcDbPolyline
 90
4
 70
0
 10
191.60091743119267
 20
173.9105504587156
 10
191.60091743119267
 20
178.9105504587156
 10
196.60091743119267
 20
178.9105504587156
 10
196.60091743119267
 20
168.9105504587156
  0
ENDSEC
  0
SECTION
  2
OBJECTS
  0
DICTIONARY
  5
A
330
0
100
AcDbDictionary
280
0
281
1
  3
ACAD_COLOR
350
B
  3
ACAD_GROUP
350
C
  3
ACAD_LAYOUT
350
D
  3
ACAD_MATERIAL
350
E
  3
ACAD_MLEADERSTYLE
350
F
  3
ACAD_MLINESTYLE
350
10
  3
ACAD_PLOTSETTINGS
350
11
  3
ACAD_PLOTSTYLENAME
350
12
  3
ACAD_SCALELIST
350
14
  3
ACAD_TABLESTYLE
350
15
  3
ACAD_VISUALSTYLE
350
16
  3
EZDXF_META
350
2D
  0
DICTIONARY
  5
B
330
A
100
AcDbDictionary
280
0
281
1
  0
DICTIONARY
  5
C
330
A
100
AcDbDictionary
280
0
281
1
  0
DICTIONARY
  5
D
330
A
100
AcDbDictionary
280
0
281
1
  3
Model
350
1A
  3
Layout1
350
1E
  0
DICTIONARY
  5
E
330
A
100
AcDbDictionary
280
0
281
1
  3
ByBlock
350
1F
  3
ByLayer
350
20
  3
Global
350
21
  0
DICTIONARY
  5
F
330
A
100
AcDbDictionary
280
0
281
1
  3
Standard
350
2C
  0
DICTIONARY
  5
10
330
A
100
AcDbDictionary
280
0
281
1
  3
Standard
350
22
  0
DICTIONARY
  5
11
330
A
100
AcDbDictionary
280
0
281
1
  0
ACDBDICTIONARYWDFLT
  5
12
330
A
100
AcDbDictionary
280
0
281
1
  3
Normal
350
13
100
AcDbDictionaryWithDefault
340
13
  0
ACDBPLACEHOLDER
  5
13
330
12
  0
DICTIONARY
  5
14
330
A
100
AcDbDictionary
280
0
281
1
  0
DICTIONARY
  5
15
330
A
100
AcDbDictionary
280
0
281
1
  0
DICTIONARY
  5
16
330
A
100
AcDbDictionary
280
0
281
1
  3
2dWireframe
350
5A
  3
Basic
350
5B
  3
Brighten
350
5C
  3
ColorChange
350
5D
  3
Conceptual
350
5E
  3
Dim
350
5F
  3
EdgeColorOff
350
60
  3
Facepattern
350
61
  3
Flat
350
62
  3
FlatWithEdges
350
63
  3
Gouraud
350
64
  3
GouraudWithEdges
350
65
  3
Hidden
350
66
  3
JitterOff
350
67
  3
Linepattern
350
68
  3
Modeling
350
69
  3
OverhangOff
350
6A
  3
Realistic
350
6B
  3
Shaded
350
6C
  3
Shaded with edges
350
6D
  3
Shades of Gray
350
6E
  3
Sketchy
350
6F
  3
Thicken
350
70
  3
Wireframe
350
71
  3
X-Ray
350
72
  0
LAYOUT
  5
1A
330
D
100
AcDbPlotSettings
  1

  2
Adobe PDF
  4
A3
  6

 40
7.5
 41
20.0
 42
7.5
 43
20.0
 44
420.0
 45
297.0
 46
0.0
 47
0.0
 48
0.0
 49
0.0
140
0.0
141
0.0
142
1.0
143
1.0
 70
1024
 72
1
 73
0
 74
5
  7

 75
16
 76
0
 77
2
 78
300
147
1.0
148
0.0
149
0.0
100
AcDbLayout
  1
Model
 70
1
 71
0
 10
0.0
 20
0.0
 11
420.0
 21
297.0
 12
0.0
 22
0.0
 32
0.0
 14
1e+20
 24
1e+20
 34
1e+20
 15
-1e+20
 25
-1e+20
 35
-1e+20
146
0.0
 13
0.0
 23
0.0
 33
0.0
 16
1.0
 26
0.0
 36
0.0
 17
0.0
 27
1.0
 37
0.0
 76
1
330
17
  0
LAYOUT
  5
1E
330
D
100
AcDbPlotSettings
  1

  2
Adobe PDF
  4
A3
  6

 40
7.5
 41
20.0
 42
7.5
 43
20.0
 44
420.0
 45
297.0
 46
0.0
 47
0.0
 48
0.0
 49
0.0
140
0.0
141
0.0
142
1.0
143
1.0
 70
0
 72
1
 73
0
 74
5
  7

 75
16
 76
0
 77
2
 78
300
147
1.0
148
0.0
149
0.0
100
AcDbLayout
  1
Layout1
 70
1
 71
1
 10
0.0
 20
0.0
 11
420.0
 21
297.0
 12
0.0
 22
0.0
 32
0.0
 14
1e+20
 24
1e+20
 34
1e+20
 15
-1e+20
 25
-1e+20
 35
-1e+20
146
0.0
 13
0.0
 23
0.0
 33
0.0
 16
1.0
 26
0.0
 36
0.0
 17
0.0
 27
1.0
 37
0.0
 76
1
330
1B
  0
MATERIAL
  5
1F
102
{ACAD_REACTORS
330
E
102
}
330
E
100
AcDbMaterial
  1
ByBlock
  2

 70
0
 40
1.0
 71
1
 41
1.0
 91
-1023410177
 42
1.0
 72
1
  3

 73
1
 74
1
 75
1
 44
0.5
 73
0
 45
1.0
 46
1.0
 77
1
  4

 78
1
 79
1
170
1
 48
1.0
171
1
  6

172
1
173
1
174
1
140
1.0
141
1.0
175
1
  7

176
1
177
1
178
1
143
1.0
179
1
  8

270
1
271
1
272
1
145
1.0
146
1.0
273
1
  9

274
1
275
1
276
1
 42
1.0
 72
1
  3

 73
1
 74
1
 75
1
 94
63
  0
MATERIAL
  5
20
102
{ACAD_REACTORS
330
E
102
}
330
E
100
AcDbMaterial
  1
ByLayer
  2

 70
0
 40
1.0
 71
1
 41
1.0
 91
-1023410177
 42
1.0
 72
1
  3

 73
1
 74
1
 75
1
 44
0.5
 73
0
 45
1.0
 46
1.0
 77
1
  4

 78
1
 79
1
170
1
 48
1.0
171
1
  6

172
1
173
1
174
1
140
1.0
141
1.0
175
1
  7

176
1
177
1
178
1
143
1.0
179
1
  8

270
1
271
1
272
1
145
1.0
146
1.0
273
1
  9

274
1
275
1
276
1
 42
1.0
 72
1
  3

 73
1
 74
1
 75
1
 94
63
  0
MATERIAL
  5
21
102
{ACAD_REACTORS
330
E
102
}
330
E
100
AcDbMaterial
  1
Global
  2

 70
0
 40
1.0
 71
1
 41
1.0
 91
-1023410177
 42
1.0
 72
1
  3

 73
1
 74
1
 75
1
 44
0.5
 73
0
 45
1.0
 46
1.0
 77
1
  4

 78
1
 79
1
170
1
 48
1.0
171
1
  6

172
1
173
1
174
1
140
1.0
141
1.0
175
1
  7

176
1
177
1
178
1
143
1.0
179
1
  8

270
1
271
1
272
1
145
1.0
146
1.0
273
1
  9

274
1
275
1
276
1
 42
1.0
 72
1
  3

 73
1
 74
1
 75
1
 94
63
  0
MLINESTYLE
  5
22
102
{ACAD_REACTORS
330
10
102
}
330
10
100
AcDbMlineStyle
  2
Standard
 70
0
  3

 62
256
 51
90.0
 52
90.0
 71
2
 49
0.5
 62
256
  6
BYLAYER
 49
-0.5
 62
256
  6
BYLAYER
  0
MLEADERSTYLE
  5
2C
102
{ACAD_REACTORS
330
F
102
}
330
F
100
AcDbMLeaderStyle
179
2
170
2
171
1
172
0
 90
2
 40
0.0
 41
0.0
173
1
 91
-1056964608
 92
-2
290
1
 42
2.0
291
1
 43
8.0
  3
Standard
 44
4.0
300

342
29
174
1
175
1
176
0
178
1
 93
-1056964608
 45
4.0
292
0
297
0
 46
4.0
 94
-1056964608
 47
1.0
 49
1.0
140
1.0
294
1
141
0.0
177
0
142
1.0
295
0
296
0
143
3.75
271
0
272
9
273
9
  0
DICTIONARY
  5
2D
330
A
100
AcDbDictionary
281
1
  3
CREATED_BY_EZDXF
350
2E
  3
WRITTEN_BY_EZDXF
350
B8
  0
DICTIONARYVAR
  5
2E
330
2D
100
DictionaryVariables
280
0
  1
1.3.0 @ 2026-01-06T17:07:20.978402+00:00
  0
VISUALSTYLE
  5
5A
102
{ACAD_REACTORS
330
16
102
}
330
16
100
AcDbVisualStyle
  2
2dWireframe
 70
4
 90
0
 40
0.6
 62
7
290
0
291
0
  0
VISUALSTYLE
  5
5B
102
{ACAD_REACTORS
330
16
102
}
330
16
100
AcDbVisualStyle
  2
Basic
 70
7
 90
1
 40
0.6
 62
7
290
0
291
1
  0
VISUALSTYLE
  5
5C
102
{ACAD_REACTORS
330
16
102
}
330
16
100
AcDbVisualStyle
  2
Brighten
 70
12
 90
2
 40
0.6
 62
7
290
0
291
1
  0
VISUALSTYLE
  5
5D
102
{ACAD_REACTORS
330
16
102
}
330
16
100
AcDbVisualStyle
  2
ColorChange
 70
16
 90
2
 40
0.6
 62
8
290
0
291
1
  0
VISUALSTYLE
  5
5E
102
{ACAD_REACTORS
330
16
102
}
330
16
100
AcDbVisualStyle
  2
Conceptual
 70
9
 90
3
 40
0.6
 62
7
290
0
291
0
  0
VISUALSTYLE
  5
5F
102
{ACAD_REACTORS
330
16
102
}
330
16
100
AcDbVisualStyle
  2
Dim
 70
11
 90
2
 40
0.6
 62
7
290
0
291
1
  0
VISUALSTYLE
  5
60
102
{ACAD_REACTORS
330
16
102
}
330
16
100
AcDbVisualStyle
  2
EdgeColorOff
 70
22
 90
2
 40
0.6
 62
7
290
0
291
1
  0
VISUALSTYLE
  5
61
102
{ACAD_REACTORS
330
16
102
}
330
16
100
AcDbVisualStyle
  2
Facepattern
 70
15
 90
2
 40
0.6
 62
7
290
0
291
1
  0
VISUALSTYLE
  5
62
102
{ACAD_REACTORS
330
16
102
}
330
16
100
AcDbVisualStyle
  2
Flat
 70
0
 90
2
 40
0.6
 62
7
290
0
291
1
  0
VISUALSTYLE
  5
63
102
{ACAD_REACTORS
330
16
102
}
330
16
100
AcDbVisualStyle
  2
FlatWithEdges
 70
1
 90
2
 40
0.6
 62
7
290
0
291
1
  0
VISUALSTYLE
  5
64
102
{ACAD_REACTORS
330
16
102
}
330
16
100
AcDbVisualStyle
  2
Gouraud
 70
2
 90
2
 40
0.6
 62
7
290
0
291
1
  0
VISUALSTYLE
  5
65
102
{ACAD_REACTORS
330
16
102
}
330
16
100
AcDbVisualStyle
  2
GouraudWithEdges
 70
3
 90
2
 40
0.6
 62
7
290
0
291
1
  0
VISUALSTYLE
  5
66
102
{ACAD_REACTORS
330
16
102
}
330
16
100
AcDbVisualStyle
  2
Hidden
 70
6
 90
1
 40
0.6
 62
7
290
0
291
0
  0
VISUALSTYLE
  5
67
102
{ACAD_REACTORS
330
16
102
}
330
16
100
AcDbVisualStyle
  2
JitterOff
 70
20
 90
2
 40
0.6
 62
7
290
0
291
1
  0
VISUALSTYLE
  5
68
102
{ACAD_REACTORS
330
16
102
}
330
16
100
AcDbVisualStyle
  2
Linepattern
 70
14
 90
2
 40
0.6
 62
7
290
0
291
1
  0
VISUALSTYLE
  5
69
102
{ACAD_REACTORS
330
16
102
}
330
16
100
AcDbVisualStyle
  2
Modeling
 70
10
 90
2
 40
0.6
 62
7
290
0
291
0
  0
VISUALSTYLE
  5
6A
102
{ACAD_REACTORS
330
16
102
}
330
16
100
AcDbVisualStyle
  2
OverhangOff
 70
21
 90
2
 40
0.6
 62
7
290
0
291
1
  0
VISUALSTYLE
  5
6B
102
{ACAD_REACTORS
330
16
102
}
330
16
100
AcDbVisualStyle
  2
Realistic
 70
8
 90
2
 40
0.6
 62
7
290
0
291
0
  0
VISUALSTYLE
  5
6C
102
{ACAD_REACTORS
330
16
102
}
330
16
100
AcDbVisualStyle
  2
Shaded
 70
27
 90
2
 40
0.6
 62
7
290
0
291
0
  0
VISUALSTYLE
  5
6D
102
{ACAD_REACTORS
330
16
102
}
330
16
100
AcDbVisualStyle
  2
Shaded with edges
 70
26
 90
2
 40
0.6
 62
7
290
0
291
0
  0
VISUALSTYLE
  5
6E
102
{ACAD_REACTORS
330
16
102
}
330
16
100
AcDbVisualStyle
  2
Shades of Gray
 70
23
 90
2
 40
0.6
 62
7
290
0
291
0
  0
VISUALSTYLE
  5
6F
102
{ACAD_REACTORS
330
16
102
}
330
16
100
AcDbVisualStyle
  2
Sketchy
 70
24
 90
1
 40
0.6
 62
7
290
0
291
0
  0
VISUALSTYLE
  5
70
102
{ACAD_REACTORS
330
16
102
}
330
16
100
AcDbVisualStyle
  2
Thicken
 70
13
 90
2
 40
0.6
 62
7
290
0
291
1
  0
VISUALSTYLE
  5
71
102
{ACAD_REACTORS
330
16
102
}
330
16
100
AcDbVisualStyle
  2
Wireframe
 70
5
 90
0
 40
0.6
 62
7
290
0
291
0
  0
VISUALSTYLE
  5
72
102
{ACAD_REACTORS
330
16
102
}
330
16
100
AcDbVisualStyle
  2
X-Ray
 70
25
 90
2
 40
0.5
 62
7
290
0
291
0
  0
DICTIONARYVAR
  5
B8
330
2D
100
DictionaryVariables
280
0
  1
1.3.0 @ 2026-01-06T17:07:21.122875+00:00
  0
ENDSEC
  0
EOF
