  0
SECTION
  2
HEADER
  9
$ACADVER
  1
AC1021
  9
$ACADMAINTVER
 70
25
  9
$DWGCODEPAGE
  3
ANSI_1252
  9
$LASTSAVEDBY
  1
ezdxf
  9
$INSBASE
 10
0.0
 20
0.0
 30
0.0
  9
$EXTMIN
 10
1e+20
 20
1e+20
 30
1e+20
  9
$EXTMAX
 10
-1e+20
 20
-1e+20
 30
-1e+20
  9
$LIMMIN
 10
0.0
 20
0.0
  9
$LIMMAX
 10
420.0
 20
297.0
  9
$ORTHOMODE
 70
0
  9
$REGENMODE
 70
1
  9
$FILLMODE
 70
1
  9
$QTEXTMODE
 70
0
  9
$MIRRTEXT
 70
1
  9
$LTSCALE
 40
1.0
  9
$ATTMODE
 70
1
  9
$TEXTSIZE
 40
2.5
  9
$TRACEWID
 40
1.0
  9
$TEXTSTYLE
  7
OpenSans
  9
$CLAYER
  8
0
  9
$CELTYPE
  6
ByLayer
  9
$CECOLOR
 62
256
  9
$CELTSCALE
 40
1.0
  9
$DISPSILH
 70
0
  9
$DIMSCALE
 40
1.0
  9
$DIMASZ
 40
0.175
  9
$DIMEXO
 40
0.125
  9
$DIMDLI
 40
3.75
  9
$DIMRND
 40
0.0
  9
$DIMDLE
 40
0.0
  9
$DIMEXE
 40
0.375
  9
$DIMTP
 40
0.0
  9
$DIMTM
 40
0.0
  9
$DIMTXT
 40
0.25
  9
$DIMCEN
 40
2.5
  9
$DIMTSZ
 40
0.0
  9
$DIMTOL
 70
0
  9
$DIMLIM
 70
0
  9
$DIMTIH
 70
0
  9
$DIMTOH
 70
0
  9
$DIMSE1
 70
0
  9
$DIMSE2
 70
0
  9
$DIMTAD
 70
1
  9
$DIMZIN
 70
12
  9
$DIMBLK
  1
ARCHTICK
  9
$DIMASO
 70
1
  9
$DIMSHO
 70
1
  9
$DIMPOST
  1

  9
$DIMAPOST
  1

  9
$DIMALT
 70
0
  9
$DIMALTD
 70
3
  9
$DIMALTF
 40
0.03937007874
  9
$DIMLFAC
 40
100.0
  9
$DIMTOFL
 70
1
  9
$DIMTVP
 40
0.0
  9
$DIMTIX
 70
0
  9
$DIMSOXD
 70
0
  9
$DIMSAH
 70
0
  9
$DIMBLK1
  1

  9
$DIMBLK2
  1

  9
$DIMSTYLE
  2
EZDXF
  9
$DIMCLRD
 70
0
  9
$DIMCLRE
 70
0
  9
$DIMCLRT
 70
0
  9
$DIMTFAC
 40
0.5
  9
$DIMGAP
 40
0.1
  9
$DIMJUST
 70
0
  9
$DIMSD1
 70
0
  9
$DIMSD2
 70
0
  9
$DIMTOLJ
 70
0
  9
$DIMTZIN
 70
8
  9
$DIMALTZ
 70
0
  9
$DIMALTTZ
 70
0
  9
$DIMUPT
 70
1
  9
$DIMDEC
 70
2
  9
$DIMTDEC
 70
2
  9
$DIMALTU
 70
2
  9
$DIMALTTD
 70
3
  9
$DIMTXSTY
  7
OpenSansCondensed-Light
  9
$DIMAUNIT
 70
0
  9
$DIMADEC
 70
2
  9
$DIMALTRND
 40
0.0
  9
$DIMAZIN
 70
3
  9
$DIMDSEP
 70
46
  9
$DIMATFIT
 70
3
  9
$DIMFRAC
 70
0
  9
$DIMLDRBLK
  1

  9
$DIMLUNIT
 70
2
  9
$DIMLWD
 70
-2
  9
$DIMLWE
 70
-2
  9
$DIMTMOVE
 70
2
  9
$DIMFXL
 40
1.0
  9
$DIMFXLON
 70
0
  9
$DIMJOGANG
 40
0.785398163397
  9
$DIMTFILL
 70
0
  9
$DIMTFILLCLR
 70
0
  9
$DIMARCSYM
 70
0
  9
$DIMLTYPE
  6

  9
$DIMLTEX1
  6

  9
$DIMLTEX2
  6

  9
$LUNITS
 70
2
  9
$LUPREC
 70
4
  9
$SKETCHINC
 40
1.0
  9
$FILLETRAD
 40
10.0
  9
$AUNITS
 70
0
  9
$AUPREC
 70
2
  9
$MENU
  1
.
  9
$ELEVATION
 40
0.0
  9
$PELEVATION
 40
0.0
  9
$THICKNESS
 40
0.0
  9
$LIMCHECK
 70
0
  9
$CHAMFERA
 40
0.0
  9
$CHAMFERB
 40
0.0
  9
$CHAMFERC
 40
0.0
  9
$CHAMFERD
 40
0.0
  9
$SKPOLY
 70
0
  9
$TDCREATE
 40
2461048.0883564814
  9
$TDUCREATE
 40
2458532.153996898
  9
$TDUPDATE
 40
2461048.0883564814
  9
$TDUUPDATE
 40
2458532.1544311
  9
$TDINDWG
 40
0.0
  9
$TDUSRTIMER
 40
0.0
  9
$USRTIMER
 70
1
  9
$ANGBASE
 50
0.0
  9
$ANGDIR
 70
0
  9
$PDMODE
 70
0
  9
$PDSIZE
 40
0.0
  9
$PLINEWID
 40
0.0
  9
$SPLFRAME
 70
0
  9
$SPLINETYPE
 70
6
  9
$SPLINESEGS
 70
8
  9
$HANDSEED
  5
AB
  9
$SURFTAB1
 70
6
  9
$SURFTAB2
 70
6
  9
$SURFTYPE
 70
6
  9
$SURFU
 70
6
  9
$SURFV
 70
6
  9
$UCSBASE
  2

  9
$UCSNAME
  2

  9
$UCSORG
 10
0.0
 20
0.0
 30
0.0
  9
$UCSXDIR
 10
1.0
 20
0.0
 30
0.0
  9
$UCSYDIR
 10
0.0
 20
1.0
 30
0.0
  9
$UCSORTHOREF
  2

  9
$UCSORTHOVIEW
 70
0
  9
$UCSORGTOP
 10
0.0
 20
0.0
 30
0.0
  9
$UCSORGBOTTOM
 10
0.0
 20
0.0
 30
0.0
  9
$UCSORGLEFT
 10
0.0
 20
0.0
 30
0.0
  9
$UCSORGRIGHT
 10
0.0
 20
0.0
 30
0.0
  9
$UCSORGFRONT
 10
0.0
 20
0.0
 30
0.0
  9
$UCSORGBACK
 10
0.0
 20
0.0
 30
0.0
  9
$PUCSBASE
  2

  9
$PUCSNAME
  2

  9
$PUCSORG
 10
0.0
 20
0.0
 30
0.0
  9
$PUCSXDIR
 10
1.0
 20
0.0
 30
0.0
  9
$PUCSYDIR
 10
0.0
 20
1.0
 30
0.0
  9
$PUCSORTHOREF
  2

  9
$PUCSORTHOVIEW
 70
0
  9
$PUCSORGTOP
 10
0.0
 20
0.0
 30
0.0
  9
$PUCSORGBOTTOM
 10
0.0
 20
0.0
 30
0.0
  9
$PUCSORGLEFT
 10
0.0
 20
0.0
 30
0.0
  9
$PUCSORGRIGHT
 10
0.0
 20
0.0
 30
0.0
  9
$PUCSORGFRONT
 10
0.0
 20
0.0
 30
0.0
  9
$PUCSORGBACK
 10
0.0
 20
0.0
 30
0.0
  9
$USERI1
 70
0
  9
$USERI2
 70
0
  9
$USERI3
 70
0
  9
$USERI4
 70
0
  9
$USERI5
 70
0
  9
$USERR1
 40
0.0
  9
$USERR2
 40
0.0
  9
$USERR3
 40
0.0
  9
$USERR4
 40
0.0
  9
$USERR5
 40
0.0
  9
$WORLDVIEW
 70
1
  9
$SHADEDGE
 70
3
  9
$SHADEDIF
 70
70
  9
$TILEMODE
 70
1
  9
$MAXACTVP
 70
64
  9
$PINSBASE
 10
0.0
 20
0.0
 30
0.0
  9
$PLIMCHECK
 70
0
  9
$PEXTMIN
 10
1e+20
 20
1e+20
 30
1e+20
  9
$PEXTMAX
 10
-1e+20
 20
-1e+20
 30
-1e+20
  9
$PLIMMIN
 10
0.0
 20
0.0
  9
$PLIMMAX
 10
420.0
 20
297.0
  9
$UNITMODE
 70
0
  9
$VISRETAIN
 70
1
  9
$PLINEGEN
 70
0
  9
$PSLTSCALE
 70
1
  9
$TREEDEPTH
 70
3020
  9
$CMLSTYLE
  2
Standard
  9
$CMLJUST
 70
0
  9
$CMLSCALE
 40
20.0
  9
$PROXYGRAPHICS
 70
1
  9
$MEASUREMENT
 70
1
  9
$CELWEIGHT
370
-1
  9
$ENDCAPS
280
0
  9
$JOINSTYLE
280
0
  9
$LWDISPLAY
290
0
  9
$INSUNITS
 70
6
  9
$HYPERLINKBASE
  1

  9
$STYLESHEET
  1

  9
$XEDIT
290
1
  9
$CEPSNTYPE
380
0
  9
$PSTYLEMODE
290
1
  9
$FINGERPRINTGUID
  2
{AC665712-E826-467D-A6DC-E5A00210A5C7}
  9
$VERSIONGUID
  2
{063423F3-2AEF-4A74-9E3C-9ADF58725576}
  9
$EXTNAMES
290
1
  9
$PSVPSCALE
 40
0.0
  9
$OLESTARTUP
290
0
  9
$SORTENTS
280
127
  9
$INDEXCTL
280
0
  9
$HIDETEXT
280
1
  9
$XCLIPFRAME
290
1
  9
$HALOGAP
280
0
  9
$OBSCOLOR
 70
257
  9
$OBSLTYPE
280
0
  9
$INTERSECTIONDISPLAY
280
0
  9
$INTERSECTIONCOLOR
 70
257
  9
$DIMASSOC
280
2
  9
$PROJECTNAME
  1

  9
$CAMERADISPLAY
290
0
  9
$LENSLENGTH
 40
50.0
  9
$CAMERAHEIGHT
 40
0.0
  9
$STEPSPERSEC
 40
24.0
  9
$STEPSIZE
 40
100.0
  9
$3DDWFPREC
 40
2.0
  9
$PSOLWIDTH
 40
0.005
  9
$PSOLHEIGHT
 40
0.08
  9
$LOFTANG1
 40
1.570796326795
  9
$LOFTANG2
 40
1.570796326795
  9
$LOFTMAG1
 40
0.0
  9
$LOFTMAG2
 40
0.0
  9
$LOFTPARAM
 70
7
  9
$LOFTNORMALS
280
1
  9
$LATITUDE
 40
37.795
  9
$LONGITUDE
 40
-122.394
  9
$NORTHDIRECTION
 40
0.0
  9
$TIMEZONE
 70
-8000
  9
$LIGHTGLYPHDISPLAY
280
1
  9
$TILEMODELIGHTSYNCH
280
1
  9
$CMATERIAL
347
20
  9
$SOLIDHIST
280
0
  9
$SHOWHIST
280
1
  9
$DWFFRAME
280
2
  9
$DGNFRAME
280
2
  9
$REALWORLDSCALE
290
1
  9
$INTERFERECOLOR
 62
256
  9
$CSHADOW
280
0
  9
$SHADOWPLANELOCATION
 40
0.0
  0
ENDSEC
  0
SECTION
  2
CLASSES
  0
CLASS
  1
ACDBDICTIONARYWDFLT
  2
AcDbDictionaryWithDefault
  3
ObjectDBX Classes
 90
0
 91
0
280
0
281
0
  0
CLASS
  1
SUN
  2
AcDbSun
  3
SCENEOE
 90
1153
 91
0
280
0
281
0
  0
CLASS
  1
VISUALSTYLE
  2
AcDbVisualStyle
  3
ObjectDBX Classes
 90
4095
 91
0
280
0
281
0
  0
CLASS
  1
MATERIAL
  2
AcDbMaterial
  3
ObjectDBX Classes
 90
1153
 91
0
280
0
281
0
  0
CLASS
  1
SCALE
  2
AcDbScale
  3
ObjectDBX Classes
 90
1153
 91
0
280
0
281
0
  0
CLASS
  1
TABLESTYLE
  2
AcDbTableStyle
  3
ObjectDBX Classes
 90
4095
 91
0
280
0
281
0
  0
CLASS
  1
MLEADERSTYLE
  2
AcDbMLeaderStyle
  3
ACDB_MLEADERSTYLE_CLASS
 90
4095
 91
0
280
0
281
0
  0
CLASS
  1
DICTIONARYVAR
  2
AcDbDictionaryVar
  3
ObjectDBX Classes
 90
0
 91
0
280
0
281
0
  0
CLASS
  1
CELLSTYLEMAP
  2
AcDbCellStyleMap
  3
ObjectDBX Classes
 90
1152
 91
0
280
0
281
0
  0
CLASS
  1
MENTALRAYRENDERSETTINGS
  2
AcDbMentalRayRenderSettings
  3
SCENEOE
 90
1024
 91
0
280
0
281
0
  0
CLASS
  1
ACDBDETAILVIEWSTYLE
  2
AcDbDetailViewStyle
  3
ObjectDBX Classes
 90
1025
 91
0
280
0
281
0
  0
CLASS
  1
ACDBSECTIONVIEWSTYLE
  2
AcDbSectionViewStyle
  3
ObjectDBX Classes
 90
1025
 91
0
280
0
281
0
  0
CLASS
  1
RASTERVARIABLES
  2
AcDbRasterVariables
  3
ISM
 90
0
 91
0
280
0
281
0
  0
CLASS
  1
ACDBPLACEHOLDER
  2
AcDbPlaceHolder
  3
ObjectDBX Classes
 90
0
 91
0
280
0
281
0
  0
CLASS
  1
LAYOUT
  2
AcDbLayout
  3
ObjectDBX Classes
 90
0
 91
0
280
0
281
0
  0
ENDSEC
  0
SECTION
  2
TABLES
  0
TABLE
  2
VPORT
  5
8
330
0
100
AcDbSymbolTable
 70
1
  0
VPORT
  5
23
330
8
100
AcDbSymbolTableRecord
100
AcDbViewportTableRecord
  2
*Active
 70
0
 10
0.0
 20
0.0
 11
1.0
 21
1.0
 12
0.0
 22
0.0
 13
0.0
 23
0.0
 14
0.5
 24
0.5
 15
0.5
 25
0.5
 16
0.0
 26
0.0
 36
1.0
 17
0.0
 27
0.0
 37
0.0
 40
1000.0
 41
1.34
 42
50.0
 43
0.0
 44
0.0
 50
0.0
 51
0.0
 71
0
 72
1000
 73
1
 74
3
 75
0
 76
0
 77
0
 78
0
281
0
 65
0
146
0.0
  0
ENDTAB
  0
TABLE
  2
LTYPE
  5
2
330
0
100
AcDbSymbolTable
 70
21
  0
LTYPE
  5
24
330
2
100
AcDbSymbolTableRecord
100
AcDbLinetypeTableRecord
  2
ByBlock
 70
0
  3

 72
65
 73
0
 40
0.0
  0
LTYPE
  5
25
330
2
100
AcDbSymbolTableRecord
100
AcDbLinetypeTableRecord
  2
ByLayer
 70
0
  3

 72
65
 73
0
 40
0.0
  0
LTYPE
  5
26
330
2
100
AcDbSymbolTableRecord
100
AcDbLinetypeTableRecord
  2
Continuous
 70
0
  3

 72
65
 73
0
 40
0.0
  0
LTYPE
  5
2F
330
2
100
AcDbSymbolTableRecord
100
AcDbLinetypeTableRecord
  2
CENTER
 70
0
  3
Center ____ _ ____ _ ____ _ ____ _ ____ _ ____
 72
65
 73
4
 40
5.08
 49
3.175
 74
0
 49
-0.635
 74
0
 49
0.635
 74
0
 49
-0.635
 74
0
  0
LTYPE
  5
30
330
2
100
AcDbSymbolTableRecord
100
AcDbLinetypeTableRecord
  2
CENTERX2
 70
0
  3
Center (2x) ________  __  ________  __  ________
 72
65
 73
4
 40
8.89
 49
6.35
 74
0
 49
-0.635
 74
0
 49
1.27
 74
0
 49
-0.635
 74
0
  0
LTYPE
  5
31
330
2
100
AcDbSymbolTableRecord
100
AcDbLinetypeTableRecord
  2
CENTER2
 70
0
  3
Center (.5x) ____ _ ____ _ ____ _ ____ _ ____
 72
65
 73
4
 40
2.54
 49
1.587
 74
0
 49
-0.318
 74
0
 49
0.318
 74
0
 49
-0.318
 74
0
  0
LTYPE
  5
32
330
2
100
AcDbSymbolTableRecord
100
AcDbLinetypeTableRecord
  2
DASHED
 70
0
  3
Dashed __ __ __ __ __ __ __ __ __ __ __ __ __ _
 72
65
 73
2
 40
1.524
 49
1.27
 74
0
 49
-0.254
 74
0
  0
LTYPE
  5
33
330
2
100
AcDbSymbolTableRecord
100
AcDbLinetypeTableRecord
  2
DASHEDX2
 70
0
  3
Dashed (2x) ____  ____  ____  ____  ____  ____
 72
65
 73
2
 40
3.048
 49
2.54
 74
0
 49
-0.508
 74
0
  0
LTYPE
  5
34
330
2
100
AcDbSymbolTableRecord
100
AcDbLinetypeTableRecord
  2
DASHED2
 70
0
  3
Dashed (.5x) _ _ _ _ _ _ _ _ _ _ _ _ _ _
 72
65
 73
2
 40
0.762
 49
0.635
 74
0
 49
-0.127
 74
0
  0
LTYPE
  5
35
330
2
100
AcDbSymbolTableRecord
100
AcDbLinetypeTableRecord
  2
PHANTOM
 70
0
  3
Phantom ______  __  __  ______  __  __  ______
 72
65
 73
6
 40
6.35
 49
3.175
 74
0
 49
-0.635
 74
0
 49
0.635
 74
0
 49
-0.635
 74
0
 49
0.635
 74
0
 49
-0.635
 74
0
  0
LTYPE
  5
36
330
2
100
AcDbSymbolTableRecord
100
AcDbLinetypeTableRecord
  2
PHANTOMX2
 70
0
  3
Phantom (2x)____________    ____    ____    ____________
 72
65
 73
6
 40
10.795
 49
6.35
 74
0
 49
-0.635
 74
0
 49
1.27
 74
0
 49
-0.635
 74
0
 49
1.27
 74
0
 49
-0.635
 74
0
  0
LTYPE
  5
37
330
2
100
AcDbSymbolTableRecord
100
AcDbLinetypeTableRecord
  2
PHANTOM2
 70
0
  3
Phantom (.5x) ___ _ _ ___ _ _ ___ _ _ ___ _ _ ___
 72
65
 73
6
 40
3.175
 49
1.587
 74
0
 49
-0.318
 74
0
 49
0.318
 74
0
 49
-0.318
 74
0
 49
0.318
 74
0
 49
-0.318
 74
0
  0
LTYPE
  5
38
330
2
100
AcDbSymbolTableRecord
100
AcDbLinetypeTableRecord
  2
DASHDOT
 70
0
  3
Dash dot __ . __ . __ . __ . __ . __ . __ . __
 72
65
 73
4
 40
3.556
 49
2.54
 74
0
 49
-0.508
 74
0
 49
0.0
 74
0
 49
-0.508
 74
0
  0
LTYPE
  5
39
330
2
100
AcDbSymbolTableRecord
100
AcDbLinetypeTableRecord
  2
DASHDOTX2
 70
0
  3
Dash dot (2x) ____  .  ____  .  ____  .  ____
 72
65
 73
4
 40
6.096
 49
5.08
 74
0
 49
-0.508
 74
0
 49
0.0
 74
0
 49
-0.508
 74
0
  0
LTYPE
  5
3A
330
2
100
AcDbSymbolTableRecord
100
AcDbLinetypeTableRecord
  2
DASHDOT2
 70
0
  3
Dash dot (.5x) _ . _ . _ . _ . _ . _ . _ . _
 72
65
 73
4
 40
1.778
 49
1.27
 74
0
 49
-0.254
 74
0
 49
0.0
 74
0
 49
-0.254
 74
0
  0
LTYPE
  5
3B
330
2
100
AcDbSymbolTableRecord
100
AcDbLinetypeTableRecord
  2
DOT
 70
0
  3
Dot .  .  .  .  .  .  .  .  .  .  .  .  .  .  .  .
 72
65
 73
2
 40
0.508
 49
0.0
 74
0
 49
-0.508
 74
0
  0
LTYPE
  5
3C
330
2
100
AcDbSymbolTableRecord
100
AcDbLinetypeTableRecord
  2
DOTX2
 70
0
  3
Dot (2x) .    .    .    .    .    .    .    . 
 72
65
 73
2
 40
1.016
 49
0.0
 74
0
 49
-1.016
 74
0
  0
LTYPE
  5
3D
330
2
100
AcDbSymbolTableRecord
100
AcDbLinetypeTableRecord
  2
DOT2
 70
0
  3
Dot (.5) . . . . . . . . . . . . . . . . . . . 
 72
65
 73
2
 40
0.254
 49
0.0
 74
0
 49
-0.254
 74
0
  0
LTYPE
  5
3E
330
2
100
AcDbSymbolTableRecord
100
AcDbLinetypeTableRecord
  2
DIVIDE
 70
0
  3
Divide __ . . __ . . __ . . __ . . __ . . __
 72
65
 73
6
 40
4.064
 49
2.54
 74
0
 49
-0.508
 74
0
 49
0.0
 74
0
 49
-0.508
 74
0
 49
0.0
 74
0
 49
-0.508
 74
0
  0
LTYPE
  5
3F
330
2
100
AcDbSymbolTableRecord
100
AcDbLinetypeTableRecord
  2
DIVIDEX2
 70
0
  3
Divide (2x) ____  . .  ____  . .  ____  . .  ____
 72
65
 73
6
 40
6.604
 49
5.08
 74
0
 49
-0.508
 74
0
 49
0.0
 74
0
 49
-0.508
 74
0
 49
0.0
 74
0
 49
-0.508
 74
0
  0
LTYPE
  5
40
330
2
100
AcDbSymbolTableRecord
100
AcDbLinetypeTableRecord
  2
DIVIDE2
 70
0
  3
Divide(.5x) _ . _ . _ . _ . _ . _ . _ . _
 72
65
 73
6
 40
2.032
 49
1.27
 74
0
 49
-0.254
 74
0
 49
0.0
 74
0
 49
-0.254
 74
0
 49
0.0
 74
0
 49
-0.254
 74
0
  0
ENDTAB
  0
TABLE
  2
LAYER
  5
1
330
0
100
AcDbSymbolTable
 70
4
  0
LAYER
  5
27
330
1
100
AcDbSymbolTableRecord
100
AcDbLayerTableRecord
  2
0
 70
0
 62
7
  6
Continuous
370
-3
390
13
347
21
  0
LAYER
  5
28
330
1
100
AcDbSymbolTableRecord
100
AcDbLayerTableRecord
  2
Defpoints
 70
0
 62
7
  6
Continuous
290
0
370
-3
390
13
347
21
  0
LAYER
  5
8A
330
1
100
AcDbSymbolTableRecord
100
AcDbLayerTableRecord
  2
Layer
 70
0
 62
1
  6
Continuous
370
50
390
13
347
21
  0
LAYER
  5
8B
330
1
100
AcDbSymbolTableRecord
100
AcDbLayerTableRecord
  2
NumLabel
 70
0
 62
1
  6
Continuous
370
15
390
13
347
21
  0
ENDTAB
  0
TABLE
  2
STYLE
  5
5
330
0
100
AcDbSymbolTable
 70
26
  0
STYLE
  5
29
330
5
100
AcDbSymbolTableRecord
100
AcDbTextStyleTableRecord
  2
Standard
 70
0
 40
0.0
 41
1.0
 50
0.0
 71
0
 42
2.5
  3
txt
  4

  0
STYLE
  5
41
330
5
100
AcDbSymbolTableRecord
100
AcDbTextStyleTableRecord
  2
OpenSans-Light
 70
0
 40
0.0
 41
1.0
 50
0.0
 71
0
 42
2.5
  3
OpenSans-Light.ttf
  4

  0
STYLE
  5
42
330
5
100
AcDbSymbolTableRecord
100
AcDbTextStyleTableRecord
  2
OpenSans-Light-Italic
 70
0
 40
0.0
 41
1.0
 50
0.0
 71
0
 42
2.5
  3
OpenSans-LightItalic.ttf
  4

  0
STYLE
  5
43
330
5
100
AcDbSymbolTableRecord
100
AcDbTextStyleTableRecord
  2
OpenSans
 70
0
 40
0.0
 41
1.0
 50
0.0
 71
0
 42
2.5
  3
OpenSans-Regular.ttf
  4

  0
STYLE
  5
44
330
5
100
AcDbSymbolTableRecord
100
AcDbTextStyleTableRecord
  2
OpenSans-Italic
 70
0
 40
0.0
 41
1.0
 50
0.0
 71
0
 42
2.5
  3
OpenSans-Italic.ttf
  4

  0
STYLE
  5
45
330
5
100
AcDbSymbolTableRecord
100
AcDbTextStyleTableRecord
  2
OpenSans-SemiBold
 70
0
 40
0.0
 41
1.0
 50
0.0
 71
0
 42
2.5
  3
OpenSans-SemiBold.ttf
  4

  0
STYLE
  5
46
330
5
100
AcDbSymbolTableRecord
100
AcDbTextStyleTableRecord
  2
OpenSans-SemiBoldItalic
 70
0
 40
0.0
 41
1.0
 50
0.0
 71
0
 42
2.5
  3
OpenSans-SemiBoldItalic.ttf
  4

  0
STYLE
  5
47
330
5
100
AcDbSymbolTableRecord
100
AcDbTextStyleTableRecord
  2
OpenSans-Bold
 70
0
 40
0.0
 41
1.0
 50
0.0
 71
0
 42
2.5
  3
OpenSans-Bold.ttf
  4

  0
STYLE
  5
48
330
5
100
AcDbSymbolTableRecord
100
AcDbTextStyleTableRecord
  2
OpenSans-BoldItalic
 70
0
 40
0.0
 41
1.0
 50
0.0
 71
0
 42
2.5
  3
OpenSans-BoldItalic.ttf
  4

  0
STYLE
  5
49
330
5
100
AcDbSymbolTableRecord
100
AcDbTextStyleTableRecord
  2
OpenSans-ExtraBold
 70
0
 40
0.0
 41
1.0
 50
0.0
 71
0
 42
2.5
  3
OpenSans-ExtraBold.ttf
  4

  0
STYLE
  5
4A
330
5
100
AcDbSymbolTableRecord
100
AcDbTextStyleTableRecord
  2
OpenSans-ExtraBoldItalic
 70
0
 40
0.0
 41
1.0
 50
0.0
 71
0
 42
2.5
  3
OpenSans-ExtraBoldItalic.ttf
  4

  0
STYLE
  5
4B
330
5
100
AcDbSymbolTableRecord
100
AcDbTextStyleTableRecord
  2
OpenSansCondensed-Bold
 70
0
 40
0.0
 41
1.0
 50
0.0
 71
0
 42
2.5
  3
OpenSansCondensed-Bold.ttf
  4

  0
STYLE
  5
4C
330
5
100
AcDbSymbolTableRecord
100
AcDbTextStyleTableRecord
  2
OpenSansCondensed-Light
 70
0
 40
0.0
 41
1.0
 50
0.0
 71
0
 42
2.5
  3
OpenSansCondensed-Light.ttf
  4

  0
STYLE
  5
4D
330
5
100
AcDbSymbolTableRecord
100
AcDbTextStyleTableRecord
  2
OpenSansCondensed-Italic
 70
0
 40
0.0
 41
1.0
 50
0.0
 71
0
 42
2.5
  3
OpenSansCondensed-LightItalic.ttf
  4

  0
STYLE
  5
4E
330
5
100
AcDbSymbolTableRecord
100
AcDbTextStyleTableRecord
  2
LiberationSans
 70
0
 40
0.0
 41
1.0
 50
0.0
 71
0
 42
2.5
  3
LiberationSans-Regular.ttf
  4

  0
STYLE
  5
4F
330
5
100
AcDbSymbolTableRecord
100
AcDbTextStyleTableRecord
  2
LiberationSans-Bold
 70
0
 40
0.0
 41
1.0
 50
0.0
 71
0
 42
2.5
  3
LiberationSans-Bold.ttf
  4

  0
STYLE
  5
50
330
5
100
AcDbSymbolTableRecord
100
AcDbTextStyleTableRecord
  2
LiberationSans-BoldItalic
 70
0
 40
0.0
 41
1.0
 50
0.0
 71
0
 42
2.5
  3
LiberationSans-BoldItalic.ttf
  4

  0
STYLE
  5
51
330
5
100
AcDbSymbolTableRecord
100
AcDbTextStyleTableRecord
  2
LiberationSans-Italic
 70
0
 40
0.0
 41
1.0
 50
0.0
 71
0
 42
2.5
  3
LiberationSans-Italic.ttf
  4

  0
STYLE
  5
52
330
5
100
AcDbSymbolTableRecord
100
AcDbTextStyleTableRecord
  2
LiberationSerif
 70
0
 40
0.0
 41
1.0
 50
0.0
 71
0
 42
2.5
  3
LiberationSerif-Regular.ttf
  4

  0
STYLE
  5
53
330
5
100
AcDbSymbolTableRecord
100
AcDbTextStyleTableRecord
  2
LiberationSerif-Bold
 70
0
 40
0.0
 41
1.0
 50
0.0
 71
0
 42
2.5
  3
LiberationSerif-Bold.ttf
  4

  0
STYLE
  5
54
330
5
100
AcDbSymbolTableRecord
100
AcDbTextStyleTableRecord
  2
LiberationSerif-BoldItalic
 70
0
 40
0.0
 41
1.0
 50
0.0
 71
0
 42
2.5
  3
LiberationSerif-BoldItalic.ttf
  4

  0
STYLE
  5
55
330
5
100
AcDbSymbolTableRecord
100
AcDbTextStyleTableRecord
  2
LiberationSerif-Italic
 70
0
 40
0.0
 41
1.0
 50
0.0
 71
0
 42
2.5
  3
LiberationSerif-Italic.ttf
  4

  0
STYLE
  5
56
330
5
100
AcDbSymbolTableRecord
100
AcDbTextStyleTableRecord
  2
LiberationMono
 70
0
 40
0.0
 41
1.0
 50
0.0
 71
0
 42
2.5
  3
LiberationMono-Regular.ttf
  4

  0
STYLE
  5
57
330
5
100
AcDbSymbolTableRecord
100
AcDbTextStyleTableRecord
  2
LiberationMono-Bold
 70
0
 40
0.0
 41
1.0
 50
0.0
 71
0
 42
2.5
  3
LiberationMono-Bold.ttf
  4

  0
STYLE
  5
58
330
5
100
AcDbSymbolTableRecord
100
AcDbTextStyleTableRecord
  2
LiberationMono-BoldItalic
 70
0
 40
0.0
 41
1.0
 50
0.0
 71
0
 42
2.5
  3
LiberationMono-BoldItalic.ttf
  4

  0
STYLE
  5
59
330
5
100
AcDbSymbolTableRecord
100
AcDbTextStyleTableRecord
  2
LiberationMono-Italic
 70
0
 40
0.0
 41
1.0
 50
0.0
 71
0
 42
2.5
  3
LiberationMono-Italic.ttf
  4

  0
ENDTAB
  0
TABLE
  2
VIEW
  5
7
330
0
100
AcDbSymbolTable
 70
0
  0
ENDTAB
  0
TABLE
  2
UCS
  5
6
330
0
100
AcDbSymbolTable
 70
0
  0
ENDTAB
  0
TABLE
  2
APPID
  5
3
330
0
100
AcDbSymbolTable
 70
3
  0
APPID
  5
2A
330
3
100
AcDbSymbolTableRecord
100
AcDbRegAppTableRecord
  2
ACAD
 70
0
  0
APPID
  5
A8
330
3
100
AcDbSymbolTableRecord
100
AcDbRegAppTableRecord
  2
HATCHBACKGROUNDCOLOR
 70
0
  0
APPID
  5
A9
330
3
100
AcDbSymbolTableRecord
100
AcDbRegAppTableRecord
  2
EZDXF
 70
0
  0
ENDTAB
  0
TABLE
  2
DIMSTYLE
  5
4
330
0
100
AcDbSymbolTable
 70
12
100
AcDbDimStyleTable
  0
DIMSTYLE
105
2B
330
4
100
AcDbSymbolTableRecord
100
AcDbDimStyleTableRecord
  2
Standard
 70
0
 40
1.0
 41
2.5
 42
0.625
 43
3.75
 44
1.25
 45
0.0
 46
0.0
 47
0.0
 48
0.0
 49
2.5
140
2.5
141
2.5
142
0.0
143
0.03937007874
144
1.0
145
0.0
146
1.0
147
0.625
148
0.0
 69
0
 70
0
 71
0
 72
0
 73
0
 74
0
 75
0
 76
0
 77
1
 78
8
 79
3
170
0
171
3
172
1
173
0
174
0
175
0
176
0
177
0
178
0
179
2
271
2
272
2
273
2
274
3
275
0
276
0
277
2
278
44
279
0
280
0
281
0
282
0
283
0
284
8
285
0
286
0
288
0
289
3
290
0
371
-2
372
-2
  0
DIMSTYLE
105
73
330
4
100
AcDbSymbolTableRecord
100
AcDbDimStyleTableRecord
  2
EZDXF
 70
0
 40
1.0
 41
0.175
 42
0.125
 43
3.75
 44
0.375
 45
0.0
 46
0.0
 47
0.0
 48
0.0
 49
2.5
140
0.25
141
2.5
142
0.0
143
0.03937007874
144
100.0
145
0.0
146
0.5
147
0.1
148
0.0
 69
0
 70
0
 71
0
 72
0
 73
0
 74
0
 75
0
 76
0
 77
1
 78
12
 79
3
170
0
171
3
172
1
173
0
174
0
175
0
176
0
177
0
178
0
179
2
271
2
272
2
273
2
274
3
275
0
276
0
277
2
278
46
279
2
280
0
281
0
282
0
283
0
284
8
285
0
286
0
288
1
289
3
290
0
340
4C
342
74
371
-2
372
-2
  0
DIMSTYLE
105
7C
330
4
100
AcDbSymbolTableRecord
100
AcDbDimStyleTableRecord
  2
EZ_M_100_H25_CM
 70
0
 40
1.0
 41
0.25
 42
0.125
 43
3.75
 44
0.375
 45
0.0
 46
0.0
 47
0.0
 48
0.0
 49
2.5
140
0.25
141
2.5
142
0.125
143
0.03937007874
144
100.0
145
0.0
146
0.5
147
0.1
148
0.0
 69
0
 70
0
 71
0
 72
0
 73
0
 74
0
 75
0
 76
0
 77
1
 78
12
 79
3
170
0
171
3
172
1
173
0
174
0
175
0
176
0
177
0
178
0
179
2
271
2
272
2
273
2
274
3
275
0
276
0
277
2
278
46
279
2
280
0
281
0
282
0
283
0
284
8
285
0
286
0
288
1
289
3
290
0
340
4C
371
-2
372
-2
  0
DIMSTYLE
105
7D
330
4
100
AcDbSymbolTableRecord
100
AcDbDimStyleTableRecord
  2
EZ_M_50_H25_CM
 70
0
 40
1.0
 41
0.125
 42
0.0625
 43
3.75
 44
0.1875
 45
0.0
 46
0.0
 47
0.0
 48
0.0
 49
2.5
140
0.125
141
2.5
142
0.0625
143
0.03937007874
144
100.0
145
0.0
146
0.5
147
0.05
148
0.0
 69
0
 70
0
 71
0
 72
0
 73
0
 74
0
 75
0
 76
0
 77
1
 78
12
 79
3
170
0
171
3
172
1
173
0
174
0
175
0
176
0
177
0
178
0
179
2
271
2
272
2
273
2
274
3
275
0
276
0
277
2
278
46
279
2
280
0
281
0
282
0
283
0
284
8
285
0
286
0
288
1
289
3
290
0
340
4C
371
-2
372
-2
  0
DIMSTYLE
105
7E
330
4
100
AcDbSymbolTableRecord
100
AcDbDimStyleTableRecord
  2
EZ_M_25_H25_CM
 70
0
 40
1.0
 41
0.0625
 42
0.03125
 43
3.75
 44
0.09375
 45
0.0
 46
0.0
 47
0.0
 48
0.0
 49
2.5
140
0.0625
141
2.5
142
0.03125
143
0.03937007874
144
100.0
145
0.0
146
0.5
147
0.025
148
0.0
 69
0
 70
0
 71
0
 72
0
 73
0
 74
0
 75
0
 76
0
 77
1
 78
12
 79
3
170
0
171
3
172
1
173
0
174
0
175
0
176
0
177
0
178
0
179
2
271
2
272
2
273
2
274
3
275
0
276
0
277
2
278
46
279
2
280
0
281
0
282
0
283
0
284
8
285
0
286
0
288
1
289
3
290
0
340
4C
371
-2
372
-2
  0
DIMSTYLE
105
7F
330
4
100
AcDbSymbolTableRecord
100
AcDbDimStyleTableRecord
  2
EZ_M_20_H25_CM
 70
0
 40
1.0
 41
0.05
 42
0.025
 43
3.75
 44
0.07500000000000001
 45
0.0
 46
0.0
 47
0.0
 48
0.0
 49
2.5
140
0.05
141
2.5
142
0.025
143
0.03937007874
144
100.0
145
0.0
146
0.5
147
0.020000000000000004
148
0.0
 69
0
 70
0
 71
0
 72
0
 73
0
 74
0
 75
0
 76
0
 77
1
 78
12
 79
3
170
0
171
3
172
1
173
0
174
0
175
0
176
0
177
0
178
0
179
2
271
2
272
2
273
2
274
3
275
0
276
0
277
2
278
46
279
2
280
0
281
0
282
0
283
0
284
8
285
0
286
0
288
1
289
3
290
0
340
4C
371
-2
372
-2
  0
DIMSTYLE
105
80
330
4
100
AcDbSymbolTableRecord
100
AcDbDimStyleTableRecord
  2
EZ_M_10_H25_CM
 70
0
 40
1.0
 41
0.025
 42
0.0125
 43
3.75
 44
0.037500000000000006
 45
0.0
 46
0.0
 47
0.0
 48
0.0
 49
2.5
140
0.025
141
2.5
142
0.0125
143
0.03937007874
144
100.0
145
0.0
146
0.5
147
0.010000000000000002
148
0.0
 69
0
 70
0
 71
0
 72
0
 73
0
 74
0
 75
0
 76
0
 77
1
 78
12
 79
3
170
0
171
3
172
1
173
0
174
0
175
0
176
0
177
0
178
0
179
2
271
2
272
2
273
2
274
3
275
0
276
0
277
2
278
46
279
2
280
0
281
0
282
0
283
0
284
8
285
0
286
0
288
1
289
3
290
0
340
4C
371
-2
372
-2
  0
DIMSTYLE
105
81
330
4
100
AcDbSymbolTableRecord
100
AcDbDimStyleTableRecord
  2
EZ_M_5_H25_CM
 70
0
 40
1.0
 41
0.0125
 42
0.00625
 43
3.75
 44
0.018750000000000003
 45
0.0
 46
0.0
 47
0.0
 48
0.0
 49
2.5
140
0.0125
141
2.5
142
0.00625
143
0.03937007874
144
100.0
145
0.0
146
0.5
147
0.005000000000000001
148
0.0
 69
0
 70
0
 71
0
 72
0
 73
0
 74
0
 75
0
 76
0
 77
1
 78
12
 79
3
170
0
171
3
172
1
173
0
174
0
175
0
176
0
177
0
178
0
179
2
271
2
272
2
273
2
274
3
275
0
276
0
277
2
278
46
279
2
280
0
281
0
282
0
283
0
284
8
285
0
286
0
288
1
289
3
290
0
340
4C
371
-2
372
-2
  0
DIMSTYLE
105
82
330
4
100
AcDbSymbolTableRecord
100
AcDbDimStyleTableRecord
  2
EZ_M_1_H25_CM
 70
0
 40
1.0
 41
0.0025
 42
0.00125
 43
3.75
 44
0.00375
 45
0.0
 46
0.0
 47
0.0
 48
0.0
 49
2.5
140
0.0025
141
2.5
142
0.00125
143
0.03937007874
144
100.0
145
0.0
146
0.5
147
0.001
148
0.0
 69
0
 70
0
 71
0
 72
0
 73
0
 74
0
 75
0
 76
0
 77
1
 78
12
 79
3
170
0
171
3
172
1
173
0
174
0
175
0
176
0
177
0
178
0
179
2
271
2
272
2
273
2
274
3
275
0
276
0
277
2
278
46
279
2
280
0
281
0
282
0
283
0
284
8
285
0
286
0
288
1
289
3
290
0
340
4C
371
-2
372
-2
  0
DIMSTYLE
105
83
330
4
100
AcDbSymbolTableRecord
100
AcDbDimStyleTableRecord
  2
EZ_RADIUS
 70
0
 40
1.0
 41
0.25
 42
0.125
 43
3.75
 44
0.375
 45
0.0
 46
0.0
 47
0.0
 48
0.0
 49
2.5
140
0.25
141
0.0
142
0.0
143
0.03937007874
144
100.0
145
0.0
146
0.5
147
0.1
148
0.0
 69
0
 70
0
 71
0
 72
0
 73
0
 74
0
 75
0
 76
0
 77
1
 78
12
 79
3
170
0
171
3
172
0
173
0
174
0
175
0
176
0
177
0
178
0
179
2
271
2
272
2
273
2
274
3
275
0
276
0
277
2
278
46
279
1
280
0
281
0
282
0
283
0
284
8
285
0
286
0
288
1
289
3
290
0
340
4C
342
84
371
-2
372
-2
  0
DIMSTYLE
105
88
330
4
100
AcDbSymbolTableRecord
100
AcDbDimStyleTableRecord
  2
EZ_RADIUS_INSIDE
 70
0
 40
1.0
 41
0.25
 42
0.125
 43
3.75
 44
0.375
 45
0.0
 46
0.0
 47
0.0
 48
0.0
 49
2.5
140
0.25
141
0.0
142
0.0
143
0.03937007874
144
100.0
145
0.0
146
0.5
147
0.1
148
0.0
 69
0
 70
0
 71
0
 72
0
 73
0
 74
0
 75
0
 76
0
 77
0
 78
12
 79
3
170
0
171
3
172
0
173
0
174
1
175
0
176
0
177
0
178
0
179
2
271
2
272
2
273
2
274
3
275
0
276
0
277
2
278
46
279
0
280
0
281
0
282
0
283
0
284
8
285
0
286
0
288
1
289
0
290
0
340
4C
342
84
371
-2
372
-2
  0
DIMSTYLE
105
89
330
4
100
AcDbSymbolTableRecord
100
AcDbDimStyleTableRecord
  2
EZ_CURVED
 70
0
 40
1.0
 41
0.25
 42
0.125
 43
3.75
 44
0.375
 45
0.0
 46
0.0
 47
0.0
 48
0.0
 49
2.5
140
0.25
141
2.5
142
0.0
143
0.03937007874
144
100.0
145
0.0
146
0.5
147
0.1
148
0.0
 69
0
 70
0
 71
0
 72
0
 73
0
 74
0
 75
0
 76
0
 77
1
 78
12
 79
2
 90
2
170
0
171
3
172
1
173
0
174
0
175
0
176
0
177
0
178
0
179
2
271
2
272
2
273
2
274
3
275
0
276
0
277
2
278
46
279
2
280
0
281
0
282
0
283
0
284
8
285
0
286
0
288
1
289
3
290
0
340
4C
371
-2
372
-2
  0
ENDTAB
  0
TABLE
  2
BLOCK_RECORD
  5
9
330
0
100
AcDbSymbolTable
 70
5
  0
BLOCK_RECORD
  5
17
330
9
100
AcDbSymbolTableRecord
100
AcDbBlockTableRecord
  2
*Model_Space
340
1A
 70
0
280
1
281
0
  0
BLOCK_RECORD
  5
1B
330
9
100
AcDbSymbolTableRecord
100
AcDbBlockTableRecord
  2
*Paper_Space
340
1E
 70
0
280
1
281
0
  0
BLOCK_RECORD
  5
74
330
9
100
AcDbSymbolTableRecord
100
AcDbBlockTableRecord
  2
_ARCHTICK
340
0
 70
0
280
1
281
0
  0
BLOCK_RECORD
  5
78
330
9
100
AcDbSymbolTableRecord
100
AcDbBlockTableRecord
  2
_CLOSEDFILLED
340
0
 70
0
280
1
281
0
  0
BLOCK_RECORD
  5
84
330
9
100
AcDbSymbolTableRecord
100
AcDbBlockTableRecord
  2
_CLOSEDBLANK
340
0
 70
0
280
1
281
0
  0
ENDTAB
  0
ENDSEC
  0
SECTION
  2
BLOCKS
  0
BLOCK
  5
18
330
17
100
AcDbEntity
  8
0
100
AcDbBlockBegin
  2
*Model_Space
 70
0
 10
0.0
 20
0.0
 30
0.0
  3
*Model_Space
  1

  0
ENDBLK
  5
19
330
17
100
AcDbEntity
  8
0
100
AcDbBlockEnd
  0
BLOCK
  5
1C
330
1B
100
AcDbEntity
  8
0
100
AcDbBlockBegin
  2
*Paper_Space
 70
0
 10
0.0
 20
0.0
 30
0.0
  3
*Paper_Space
  1

  0
ENDBLK
  5
1D
330
1B
100
AcDbEntity
  8
0
100
AcDbBlockEnd
  0
BLOCK
  5
75
330
74
100
AcDbEntity
  8
0
100
AcDbBlockBegin
  2
_ARCHTICK
 70
0
 10
0.0
 20
0.0
 30
0.0
  3
_ARCHTICK
  1

  0
LWPOLYLINE
  5
77
330
74
100
AcDbEntity
  8
0
  6
BYBLOCK
 62
0
100
AcDbPolyline
 90
2
 70
0
 43
0.15
 10
-0.5
 20
-0.5
 10
0.5
 20
0.5
  0
ENDBLK
  5
76
330
74
100
AcDbEntity
  8
0
100
AcDbBlockEnd
  0
BLOCK
  5
79
330
78
100
AcDbEntity
  8
0
100
AcDbBlockBegin
  2
_CLOSEDFILLED
 70
0
 10
0.0
 20
0.0
 30
0.0
  3
_CLOSEDFILLED
  1

  0
SOLID
  5
7B
330
78
100
AcDbEntity
  8
0
  6
BYBLOCK
 62
0
100
AcDbTrace
 10
-1.0
 20
0.16439898372402537
 30
0.0
 11
0.0
 21
0.0
 31
0.0
 12
-1.0
 22
-0.16439898372402537
 32
0.0
 13
-1.0
 23
-0.16439898372402537
 33
0.0
  0
ENDBLK
  5
7A
330
78
100
AcDbEntity
  8
0
100
AcDbBlockEnd
  0
BLOCK
  5
85
330
84
100
AcDbEntity
  8
0
100
AcDbBlockBegin
  2
_CLOSEDBLANK
 70
0
 10
0.0
 20
0.0
 30
0.0
  3
_CLOSEDBLANK
  1

  0
LWPOLYLINE
  5
87
330
84
100
AcDbEntity
  8
0
  6
BYBLOCK
 62
0
100
AcDbPolyline
 90
3
 70
1
 10
-1.0
 20
0.16439898372402537
 10
0.0
 20
0.0
 10
-1.0
 20
-0.16439898372402537
  0
ENDBLK
  5
86
330
84
100
AcDbEntity
  8
0
100
AcDbBlockEnd
  0
ENDSEC
  0
SECTION
  2
ENTITIES
  0
LWPOLYLINE
  5
8C
330
17
100
AcDbEntity
  8
Layer
100
AcDbPolyline
 90
162
 70
1
 10
436.30909089384534
 20
248.62889677251349
 10
428.4905021382559
 20
249.71412871566366
 10
419.9543963862219
 20
250.8268839025562
 10
411.4030701768763
 20
251.87093309442764
 10
402.83818326746655
 20
252.84819681234893
 10
394.26361248190653
 20
253.7584173318898
 10
385.6803691387648
 20
254.60042815751993
 10
377.08736967808784
 20
255.37438979458494
 10
368.48687023669623
 20
256.0820261506856
 10
359.88486941941227
 20
256.72329058071927
 10
351.2851854161772
 20
257.2963205683989
 10
342.6878598983588
 20
257.80000235246916
 10
334.09444120996716
 20
258.2354322828108
 10
325.5105132602982
 20
258.6024311557695
 10
316.94040432322225
 20
258.8992787732083
 10
308.3840373794386
 20
259.1240033515189
 10
299.84195219404626
 20
259.2772558054963
 10
291.3193379375947
 20
259.35923978998784
 10
282.82073918503846
 20
259.3680537247508
 10
274.3469156972972
 20
259.30157890531376
 10
265.89809469568496
 20
259.1598848800086
 10
257.4795808496557
 20
258.9433556040465
 10
249.09694404845033
 20
258.65020714404096
 10
240.75110593220901
 20
258.27786564073654
 10
232.44340824890793
 20
257.82633078141
 10
224.17974724333752
 20
257.2960628089955
 10
215.96674138095017
 20
256.68504375941376
 10
207.80579511538957
 20
255.99055247539593
 10
199.6996583527626
 20
255.21312597849436
 10
191.65651270798872
 20
254.353118574848
 10
183.6827422583677
 20
253.40788963823516
 10
175.78074039832916
 20
252.3755859881377
 10
167.9564153922931
 20
251.25755502614925
 10
160.21970041097904
 20
250.05359271027658
 10
152.57702942934574
 20
248.76171681871713
 10
145.03393195428725
 20
247.38336594781484
 10
137.60601413630752
 20
245.92417580835496
 10
130.31207511162836
 20
244.38501196870294
 10
123.16358316905755
 20
242.76493758514977
 10
116.17319772299086
 20
241.06977752654967
 10
109.36364176245502
 20
239.30780796641324
 10
102.75531029915206
 20
237.48192637026446
 10
96.3624225501975
 20
235.59777054804118
 10
90.20440150317731
 20
233.66895627366836
 10
84.30509348123428
 20
231.70756567120048
 10
78.68070895222388
 20
229.72110055283088
 10
73.34188496170685
 20
227.72268388162794
 10
68.30087558305428
 20
225.72892917351314
 10
63.56596043169151
 20
223.75063861002513
 10
59.135720992230915
 20
221.7955424602313
 10
55.003978785153606
 20
219.87475474873654
 10
51.163759872540254
 20
217.9982143646265
 10
47.60439180697182
 20
216.16941307457773
 10
44.30997049047011
 20
214.38847254287504
 10
41.26202884166611
 20
212.65719877745863
 10
38.443481947592375
 20
210.97848668120105
 10
35.83875952577756
 20
209.35186346012017
 10
33.431798202442735
 20
207.77366572930077
 10
31.20656684122838
 20
206.24021796466153
 10
29.14767582571693
 20
204.7491437567315
 10
27.242466129241166
 20
203.2995336378928
 10
25.480577907690815
 20
201.8885318122888
 10
23.852494698723206
 20
200.5110806891624
 10
22.34674750725253
 20
199.16053000556477
 10
20.950610390263705
 20
197.83468643562813
 10
19.651474049189574
 20
196.53450285110745
 10
18.439736705527366
 20
195.2653560203679
 10
17.310225130655112
 20
194.03122609556118
 10
16.263007473932817
 20
192.83493485131197
 10
15.300386416978597
 20
191.6718492914115
 10
14.42439220289043
 20
190.53506218385994
 10
13.63448729544018
 20
189.41537264888848
 10
12.926001659359372
 20
188.30407680573285
 10
12.292153940570074
 20
187.19904461620635
 10
11.725429379126297
 20
186.1018769287059
 10
11.220629178585057
 20
185.01919004756596
 10
10.775494854607757
 20
183.95599740558987
 10
10.39074088840141
 20
182.91652420426647
 10
10.06860603204666
 20
181.9010759946853
 10
9.810958503036261
 20
180.90668876039283
 10
9.618064843392006
 20
179.93035988103256
 10
9.4883010037247
 20
178.9697604957572
 10
9.415172096371236
 20
177.94509010206463
 10
9.40529404467469
 20
177.0778981831524
 10
9.452547793494489
 20
176.12590772604858
 10
9.566113636032014
 20
175.17737246282593
 10
9.754357503698088
 20
174.23663418503529
 10
10.027667203960732
 20
173.30334483124702
 10
10.39483740167816
 20
172.37576081615794
 10
10.859137044118143
 20
171.45422628565342
 10
11.417667213761206
 20
170.54173752578373
 10
12.064140971887923
 20
169.64351493963582
 10
12.794339340842328
 20
168.76455350729944
 10
13.60784426108927
 20
167.90889533566894
 10
14.50840184685103
 20
167.07842621061764
 10
15.499738936579263
 20
166.27323323280578
 10
16.584133068079893
 20
165.4914780084149
 10
17.76039253599953
 20
164.73061464849172
 10
19.027602958548925
 20
163.98784877566564
 10
20.384995150442933
 20
163.2616906989055
 10
21.836639429647903
 20
162.55155990373297
 10
23.388493141637127
 20
161.85722577274223
 10
25.050096027541883
 20
161.17786657691727
 10
26.83094602286019
 20
160.51082114405835
 10
28.740644563073715
 20
159.85197991344006
 10
30.789766440266476
 20
159.19681512308046
 10
32.98952090552501
 20
158.5413300412884
 10
35.35482439314245
 20
157.88335128522104
 10
37.90390840354178
 20
157.2218872609376
 10
40.65886411046512
 20
156.5559003546921
 10
43.6435005525849
 20
155.88335165895455
 10
46.883969699148
 20
155.20226332884468
 10
50.408041368624254
 20
154.51184436550417
 10
54.24691849773228
 20
153.81335435713376
 10
58.43410684944939
 20
153.1089327732392
 10
63.001856251627544
 20
152.39952473718694
 10
67.9772449361459
 20
151.68673144263275
 10
73.3807484906344
 20
150.97593061765406
 10
79.22578252350243
 20
150.27485828639433
 10
85.51504198580318
 20
149.58942178579713
 10
92.23389365719837
 20
148.92455373855165
 10
99.35454368829136
 20
148.28888917042073
 10
106.84498684238224
 20
147.6897084496109
 10
114.6654408435009
 20
147.1290929759087
 10
122.76957302702777
 20
146.61004167950784
 10
131.11968854097725
 20
146.13611066600345
 10
139.68374399340252
 20
145.70553658488274
 10
148.42921655298784
 20
145.31630883087684
 10
157.33740772353656
 20
144.96958618465413
 10
166.40440965610992
 20
144.6582625996772
 10
175.60401197525482
 20
144.36511485687882
 10
176.5756769333853
 20
144.33548424983294
 10
176.5451964268637
 20
143.33594888841637
 10
184.84562946994566
 20
143.08282815719159
 10
194.14228280608828
 20
142.82375177715366
 10
203.47053169787722
 20
142.60330575150104
 10
212.8663330515754
 20
142.41989880604783
 10
222.34866504151356
 20
142.25796625777008
 10
231.89953477799367
 20
142.10087547036935
 10
241.48341069558762
 20
141.9402012959242
 10
251.07111498093008
 20
141.77967385836268
 10
260.6415106156342
 20
141.63321397062106
 10
270.2143669404238
 20
141.51223128675667
 10
279.82480857617156
 20
141.41372900478814
 10
289.48661604515877
 20
141.3245965978997
 10
299.18248435512146
 20
141.2348972494471
 10
308.8978528055627
 20
141.14462097040825
 10
318.62074739234464
 20
141.05608569231796
 10
328.3404219850461
 20
140.9680987896984
 10
338.04270270060726
 20
140.88095419890504
 10
347.72056181882687
 20
140.801684039773
 10
357.3860912119986
 20
140.7363792972629
 10
367.0524784718192
 20
140.67969108326577
 10
376.71386589934997
 20
140.61753198593357
 10
386.37613061702604
 20
140.54392800679508
 10
396.03932807821025
 20
140.46732117531798
 10
405.7009052041098
 20
140.4006412607718
 10
415.37241311790575
 20
140.3445410823678
 10
425.0488481527061
 20
140.29035655508187
 10
434.71213404852267
 20
140.23451160116866
 10
436.3090909108671
 20
140.2265379090053
 10
436.30909089384534
 20
248.62889677251349
  0
LWPOLYLINE
  5
8D
330
17
100
AcDbEntity
  8
NumLabel
 62
1
100
AcDbPolyline
 90
7
 70
0
 10
248.7330909090909
 20
167.36909090909091
 10
253.7330909090909
 20
167.36909090909091
 10
253.7330909090909
 20
162.36909090909091
 10
248.7330909090909
 20
162.36909090909091
 10
253.7330909090909
 20
162.36909090909091
 10
253.7330909090909
 20
157.36909090909091
 10
248.7330909090909
 20
157.36909090909091
  0
LWPOLYLINE
  5
8E
330
17
100
AcDbEntity
  8
NumLabel
 62
1
100
AcDbPolyline
 90
4
 70
0
 10
256.2330909090909
 20
162.36909090909091
 10
256.2330909090909
 20
167.36909090909091
 10
261.2330909090909
 20
167.36909090909091
 10
261.2330909090909
 20
157.36909090909091
  0
LWPOLYLINE
  5
8F
330
17
100
AcDbEntity
  8
Layer
100
AcDbPolyline
 90
5
 70
1
 10
246.1100597357593
 20
254.51294447406588
 10
242.11403613706852
 20
254.334631830918
 10
241.93572349392065
 20
258.3306554296087
 10
245.93174709261143
 20
258.50896807275666
 10
246.1100597357593
 20
254.51294447406588
  0
LWPOLYLINE
  5
90
330
17
100
AcDbEntity
  8
Layer
100
AcDbPolyline
 90
5
 70
1
 10
100.64747013838505
 20
232.69046503389396
 10
96.8106779893142
 20
231.55952471503164
 10
95.67973767045189
 20
235.3963168641025
 10
99.51652981952273
 20
236.5272571829648
 10
100.64747013838505
 20
232.69046503389396
  0
LWPOLYLINE
  5
91
330
17
100
AcDbEntity
  8
Layer
100
AcDbPolyline
 90
5
 70
1
 10
27.299940209793892
 20
196.88670357160197
 10
25.811481964786157
 20
195.55085475797506
 10
22.471859930718818
 20
199.27200037049442
 10
23.960318175726552
 20
200.60784918412133
 10
27.299940209793892
 20
196.88670357160197
  0
LWPOLYLINE
  5
92
330
17
100
AcDbEntity
  8
Layer
100
AcDbPolyline
 90
5
 70
1
 10
18.564266581607573
 20
170.22811877197182
 10
20.188275645349922
 20
169.0608165142499
 10
17.270020001045108
 20
165.00079385489403
 10
15.64601093730276
 20
166.16809611261596
 10
18.564266581607573
 20
170.22811877197182
  0
LWPOLYLINE
  5
93
330
17
100
AcDbEntity
  8
Layer
100
AcDbPolyline
 90
5
 70
1
 10
132.1962416136051
 20
150.08703981282616
 10
136.19119622848334
 20
149.8861975237955
 10
135.99035393945266
 20
145.89124290891726
 10
131.99539932457444
 20
146.09208519794794
 10
132.1962416136051
 20
150.08703981282616
  0
LWPOLYLINE
  5
94
330
17
100
AcDbEntity
  8
Layer
100
AcDbPolyline
 90
300
 70
1
 10
379.7163268602852
 20
200.0
 10
379.70623221479696
 20
201.01960817855814
 10
379.67595273584345
 20
202.03876612684778
 10
379.6255017939902
 20
203.0570238134094
 10
379.55490166695296
 20
204.07393160431374
 10
379.4641835297602
 20
205.0890404617075
 10
379.3533874409876
 20
206.1019021420957
 10
379.22256232506885
 20
207.1120693942735
 10
379.07176595069234
 20
208.1190961568197
 10
378.90106490529183
 20
209.12253775506497
 10
378.71053456564357
 20
210.1219510974475
 10
378.50025906458194
 20
211.11689487116993
 10
378.27033125384867
 20
212.10692973707066
 10
378.0208526630922
 20
213.09161852362345
 10
377.7519334550352
 20
214.07052641998033
 10
377.4636923768295
 20
215.0432211679716
 10
377.15625670762097
 20
216.00927325297909
 10
376.8297622023464
 20
216.9682560935975
 10
376.48435303178815
 20
217.91974623000087
 10
376.12018171891225
 20
218.8633235109305
 10
375.7374090715187
 20
219.79857127922196
 10
375.33620411123303
 20
220.72507655578906
 10
374.9167439988713
 20
221.6424302219838
 10
374.47921395621097
 20
222.5502272002518
 10
374.02380718420176
 20
223.448066633003
 10
373.550724777654
 20
224.3355520596191
 10
373.0601756364407
 20
225.21229159151937
 10
372.55237637325297
 20
226.07789808520783
 10
372.0275512179504
 20
226.93198931322465
 10
371.4859319185471
 20
227.7741881329272
 10
370.9277576388785
 20
228.60412265302557
 10
370.35327485299325
 20
229.42142639779928
 10
369.7627372363172
 20
230.22573846892266
 10
369.1564055536376
 20
231.01670370482745
 10
368.53454754395665
 20
231.793972837532
 10
367.89743780226524
 20
232.5572026468684
 10
367.2453576582901
 20
233.30605611203862
 10
366.57859505226594
 20
234.04020256043347
 10
365.8974444077894
 20
234.75931781364847
 10
365.20220650181
 20
235.4630843306317
 10
364.4931883318152
 20
236.1511913479011
 10
363.7707029802692
 20
236.82333501676882
 10
363.0350694763645
 20
237.47921853751234
 10
362.28661265514745
 20
238.11855229043275
 10
361.5256630140804
 20
238.74105396374276
 10
360.7525565671032
 20
239.34644867822755
 10
359.9676346962591
 20
239.93446910862377
 10
359.17124400094974
 20
240.50485560166283
 10
358.3637361448868
 20
241.05735629072643
 10
357.54546770080736
 20
241.5917272070638
 10
356.716799993021
 20
242.10773238752142
 10
355.8780989378597
 20
242.60514397873777
 10
355.02973488209886
 20
243.08374233775686
 10
354.1720824394232
 20
243.54331612901643
 10
353.3055203250074
 20
243.98366241766786
 10
352.43043118828655
 20
244.40458675918623
 10
351.5472014439886
 20
244.80590328523192
 10
350.65622110150474
 20
245.18743478572446
 10
349.75788359267204
 20
245.5490127870939
 10
348.85258559804527
 20
245.89047762667357
 10
347.9407268717336
 20
246.21167852320298
 10
347.0227100648807
 20
246.51247364340838
 10
346.09894054786525
 20
246.79273016463245
 10
345.1698262313008
 20
247.0523243334849
 10
344.23577738591393
 20
247.2911415204887
 10
343.2972064613802
 20
247.50907627069705
 10
342.354527904198
 20
247.7060323502593
 10
341.40815797468076
 20
247.88192278891532
 10
340.4585145631479
 20
248.0366699183989
 10
339.5060170053964
 20
248.17020540673397
 10
338.55108589753394
 20
248.28247028840806
 10
337.59414291025524
 20
248.3734149904098
 10
336.6356106026445
 20
248.44299935411897
 10
335.6759122355849
 20
248.4911926530395
 10
334.71547158485885
 20
248.51797360636718
 10
333.75471275402015
 20
248.52333038838702
 10
332.79405998712195
 20
248.50726063369487
 10
331.83393748138275
 20
248.469771438242
 10
330.8747691998725
 20
248.41087935620172
 10
329.91697868430253
 20
248.33061039265965
 10
328.9609888680018
 20
248.22899999213038
 10
328.0072218891608
 20
248.10609302290638
 10
327.0560989044278
 20
247.96194375724525
 10
326.1080399029377
 20
247.79661584740472
 10
325.16346352085657
 20
247.61018229753566
 10
324.22278685652384
 20
247.40272543144533
 10
323.28642528627336
 20
247.17433685624565
 10
322.35479228101485
 20
246.92511742190206
 10
321.42829922365695
 20
246.6551771767009
 10
320.5073552274519
 20
246.3646353186554
 10
319.59236695534287
 20
246.0536201428709
 10
318.68373844039274
 20
245.72226898489365
 10
317.7818709073748
 20
245.37072816006707
 10
316.8871625956032
 20
244.99915289892314
 10
316.00000858308107
 20
244.6077072786369
 10
315.1208006120461
 20
244.19656415057463
 10
314.24992691598754
 20
243.76590506396752
 10
313.38777204821355
 20
243.3159201857447
 10
312.534716712043
 20
242.84680821656076
 10
311.6911375926979
 20
242.35877630305527
 10
310.8574071909696
 20
241.85203994638258
 10
310.033893658733
 20
241.3268229070526
 10
309.22096063638116
 20
240.78335710612436
 10
308.41896709225176
 20
240.22188252279648
 10
307.6282671641168
 20
239.6426470884387
 10
306.8492100028054
 20
239.04590657711273
 10
306.08213961802875
 20
238.43192449262946
 10
305.3273947264748
 20
237.80097195219307
 10
304.5853086022407
 20
237.1533275666834
 10
303.8562089296683
 20
236.4892773176291
 10
303.1404176586481
 20
235.80911443092646
 10
302.438250862455
 20
235.11313924735884
 10
301.7500185981794
 20
234.4016590899748
 10
301.0760247698147
 20
233.67498812838284
 10
300.4165669940617
 20
232.93344724002299
 10
299.7719364689098
 20
232.17736386847633
 10
299.1424178450518
 20
231.40707187887514
 10
298.52828910019025
 20
230.6229114104774
 10
297.92982141629057
 20
229.82522872647093
 10
297.34727905983425
 20
229.01437606107328
 10
296.78091926512684
 20
228.1907114639951
 10
296.23099212070986
 20
227.35459864233533
 10
295.6977404589293
 20
226.5064067999785
 10
295.1813997487073
 20
225.6465104745646
 10
294.68219799156594
 20
224.77528937210388
 10
294.2003556209481
 20
223.8931281993093
 10
293.73608540488016
 20
223.00041649372093
 10
293.2895923520198
 20
222.09754845169707
 10
292.86107362112995
 20
221.1849227543483
 10
292.45071843401877
 20
220.26294239149115
 10
292.058707991985
 20
219.33201448369903
 10
291.6852153958043
 20
218.3925501025293
 10
291.3304055692928
 20
217.44496408900577
 10
290.99443518648167
 20
216.48967487043626
 10
290.677452602434
 20
215.52710427564728
 10
290.37959778773546
 20
214.557677348716
 10
290.10100226668726
 20
213.58182216128287
 10
289.84178905922874
 20
212.59996962352722
 10
289.60207262661515
 20
211.61255329388945
 10
289.38195882087484
 20
210.6200091876238
 10
289.18154483806796
 20
209.62277558426638
 10
289.00091917536747
 20
208.62129283410314
 10
288.84016159198114
 20
207.61600316372363
 10
288.6993430739323
 20
206.60735048074628
 10
288.57852580271435
 20
205.59578017780112
 10
288.4777631278331
 20
204.5817389358571
 10
288.39709954324917
 20
203.56567452698022
 10
288.33657066773077
 20
202.54803561661006
 10
288.29620322912535
 20
201.52927156544175
 10
288.2760150525574
 20
200.50983223100087
 10
288.2760150525574
 20
199.49016776899916
 10
288.29620322912535
 20
198.47072843455828
 10
288.33657066773077
 20
197.45196438338994
 10
288.39709954324917
 20
196.43432547301978
 10
288.4777631278331
 20
195.41826106414288
 10
288.57852580271435
 20
194.40421982219888
 10
288.6993430739323
 20
193.39264951925375
 10
288.84016159198114
 20
192.38399683627637
 10
289.00091917536747
 20
191.37870716589688
 10
289.18154483806796
 20
190.37722441573362
 10
289.38195882087484
 20
189.37999081237618
 10
289.60207262661515
 20
188.38744670611055
 10
289.84178905922874
 20
187.40003037647278
 10
290.10100226668726
 20
186.41817783871713
 10
290.37959778773546
 20
185.442322651284
 10
290.67745260243396
 20
184.47289572435272
 10
290.99443518648167
 20
183.51032512956374
 10
291.3304055692928
 20
182.55503591099426
 10
291.6852153958043
 20
181.60744989747067
 10
292.058707991985
 20
180.66798551630097
 10
292.45071843401877
 20
179.73705760850885
 10
292.86107362112995
 20
178.8150772456517
 10
293.2895923520198
 20
177.90245154830296
 10
293.73608540488016
 20
176.9995835062791
 10
294.2003556209481
 20
176.1068718006907
 10
294.68219799156594
 20
175.22471062789612
 10
295.1813997487073
 20
174.35348952543538
 10
295.6977404589293
 20
173.4935932000215
 10
296.23099212070986
 20
172.64540135766467
 10
296.78091926512684
 20
171.8092885360049
 10
297.34727905983425
 20
170.98562393892672
 10
297.92982141629057
 20
170.1747712735291
 10
298.52828910019025
 20
169.3770885895226
 10
299.1424178450518
 20
168.59292812112486
 10
299.7719364689098
 20
167.82263613152364
 10
300.4165669940617
 20
167.06655275997701
 10
301.0760247698147
 20
166.32501187161716
 10
301.7500185981794
 20
165.59834091002523
 10
302.438250862455
 20
164.88686075264116
 10
303.1404176586481
 20
164.19088556907354
 10
303.8562089296683
 20
163.5107226823709
 10
304.5853086022407
 20
162.84667243331663
 10
305.3273947264748
 20
162.19902804780693
 10
306.08213961802875
 20
161.56807550737057
 10
306.8492100028054
 20
160.95409342288727
 10
307.6282671641168
 20
160.35735291156132
 10
308.41896709225176
 20
159.77811747720355
 10
309.22096063638116
 20
159.21664289387564
 10
310.033893658733
 20
158.6731770929474
 10
310.8574071909696
 20
158.14796005361742
 10
311.6911375926979
 20
157.64122369694473
 10
312.534716712043
 20
157.15319178343924
 10
313.38777204821355
 20
156.6840798142553
 10
314.2499269159876
 20
156.23409493603248
 10
315.1208006120461
 20
155.8034358494254
 10
316.000008583081
 20
155.3922927213631
 10
316.8871625956031
 20
155.0008471010769
 10
317.7818709073748
 20
154.62927183993293
 10
318.68373844039274
 20
154.27773101510635
 10
319.5923669553428
 20
153.9463798571291
 10
320.5073552274519
 20
153.6353646813446
 10
321.42829922365695
 20
153.3448228232991
 10
322.35479228101485
 20
153.07488257809794
 10
323.28642528627336
 20
152.82566314375435
 10
324.22278685652384
 20
152.59727456855467
 10
325.16346352085657
 20
152.38981770246434
 10
326.1080399029377
 20
152.20338415259528
 10
327.0560989044278
 20
152.03805624275475
 10
328.0072218891608
 20
151.89390697709362
 10
328.9609888680017
 20
151.77100000786962
 10
329.91697868430253
 20
151.66938960734035
 10
330.87476919987245
 20
151.58912064379828
 10
331.83393748138275
 20
151.530228561758
 10
332.79405998712195
 20
151.49273936630513
 10
333.75471275402015
 20
151.47666961161298
 10
334.71547158485885
 20
151.4820263936328
 10
335.6759122355849
 20
151.5088073469605
 10
336.6356106026445
 20
151.55700064588103
 10
337.59414291025524
 20
151.6265850095902
 10
338.55108589753394
 20
151.71752971159194
 10
339.5060170053964
 20
151.82979459326603
 10
340.4585145631479
 20
151.9633300816011
 10
341.40815797468076
 20
152.11807721108468
 10
342.354527904198
 20
152.2939676497407
 10
343.29720646138014
 20
152.49092372930295
 10
344.23577738591393
 20
152.7088584795113
 10
345.1698262313008
 20
152.9476756665151
 10
346.09894054786525
 20
153.20726983536755
 10
347.0227100648807
 20
153.48752635659162
 10
347.9407268717336
 20
153.78832147679702
 10
348.85258559804527
 20
154.10952237332643
 10
349.75788359267204
 20
154.4509872129061
 10
350.65622110150474
 20
154.81256521427554
 10
351.54720144398857
 20
155.19409671476808
 10
352.43043118828655
 20
155.59541324081377
 10
353.3055203250074
 20
156.01633758233214
 10
354.1720824394232
 20
156.45668387098357
 10
355.02973488209886
 20
156.91625766224314
 10
355.8780989378597
 20
157.39485602126226
 10
356.716799993021
 20
157.89226761247858
 10
357.5454677008073
 20
158.4082727929362
 10
358.3637361448868
 20
158.94264370927357
 10
359.1712440009497
 20
159.49514439833715
 10
359.9676346962591
 20
160.0655308913762
 10
360.7525565671032
 20
160.65355132177245
 10
361.5256630140804
 20
161.25894603625724
 10
362.28661265514745
 20
161.88144770956725
 10
363.0350694763645
 20
162.52078146248766
 10
363.7707029802692
 20
163.17666498323118
 10
364.4931883318152
 20
163.8488086520989
 10
365.20220650181
 20
164.5369156693683
 10
365.8974444077894
 20
165.24068218635153
 10
366.57859505226594
 20
165.95979743956653
 10
367.2453576582901
 20
166.6939438879614
 10
367.89743780226524
 20
167.44279735313157
 10
368.5345475439566
 20
168.20602716246796
 10
369.1564055536376
 20
168.98329629517255
 10
369.7627372363172
 20
169.77426153107731
 10
370.35327485299325
 20
170.57857360220072
 10
370.9277576388785
 20
171.39587734697443
 10
371.4859319185471
 20
172.2258118670728
 10
372.0275512179504
 20
173.06801068677532
 10
372.55237637325297
 20
173.92210191479217
 10
373.0601756364407
 20
174.78770840848063
 10
373.550724777654
 20
175.6644479403809
 10
374.02380718420176
 20
176.551933366997
 10
374.47921395621097
 20
177.4497727997482
 10
374.9167439988713
 20
178.3575697780162
 10
375.33620411123303
 20
179.27492344421097
 10
375.7374090715187
 20
180.201428720778
 10
376.12018171891225
 20
181.13667648906946
 10
376.48435303178815
 20
182.0802537699991
 10
376.8297622023464
 20
183.03174390640248
 10
377.15625670762097
 20
183.9907267470209
 10
377.4636923768295
 20
184.95677883202836
 10
377.7519334550352
 20
185.92947358001967
 10
378.0208526630922
 20
186.90838147637655
 10
378.27033125384867
 20
187.89307026292934
 10
378.50025906458194
 20
188.88310512883007
 10
378.71053456564357
 20
189.8780489025525
 10
378.90106490529183
 20
190.87746224493506
 10
379.07176595069234
 20
191.8809038431803
 10
379.22256232506885
 20
192.88793060572652
 10
379.3533874409876
 20
193.89809785790433
 10
379.4641835297602
 20
194.91095953829247
 10
379.55490166695296
 20
195.92606839568623
 10
379.6255017939902
 20
196.94297618659058
 10
379.67595273584345
 20
197.9612338731522
 10
379.70623221479696
 20
198.98039182144186
 10
379.7163268602852
 20
200.0
  0
LWPOLYLINE
  5
95
330
17
100
AcDbEntity
  8
Layer
100
AcDbPolyline
 90
5
 70
1
 10
150.36043221701024
 20
205.00000000000003
 10
155.36043221701024
 20
200.00000000000003
 10
150.36043221701024
 20
195.00000000000003
 10
145.36043221701024
 20
200.00000000000003
 10
150.36043221701024
 20
205.00000000000003
  0
LWPOLYLINE
  5
96
330
17
100
AcDbEntity
  8
Layer
100
AcDbPolyline
 90
5
 70
1
 10
331.2270546354202
 20
205.0
 10
336.2270546354202
 20
200.0
 10
331.2270546354202
 20
195.0
 10
326.2270546354202
 20
200.0
 10
331.2270546354202
 20
205.0
  0
LWPOLYLINE
  5
97
330
17
100
AcDbEntity
  8
Layer
100
AcDbPolyline
 90
5
 70
1
 10
183.4230272910444
 20
172.5884821347759
 10
188.09179787822293
 20
167.27787188695154
 10
182.7811876303986
 20
162.60910129977302
 10
178.11241704322006
 20
167.91971154759736
 10
183.4230272910444
 20
172.5884821347759
  0
LWPOLYLINE
  5
98
330
17
100
AcDbEntity
  8
Layer
100
AcDbPolyline
 90
5
 70
1
 10
392.35021831469084
 20
159.15099942884
 10
397.01898890186936
 20
153.84038918101567
 10
391.708378654045
 20
149.17161859383714
 10
387.0396080668665
 20
154.48222884166148
 10
392.35021831469084
 20
159.15099942884
  0
LWPOLYLINE
  5
99
330
17
100
AcDbEntity
  8
Layer
100
AcDbPolyline
 90
5
 70
1
 10
178.99490909090906
 20
183.67641411623936
 10
183.99490909090906
 20
188.67641411623936
 10
188.99490909090906
 20
183.67641411623936
 10
183.99490909090906
 20
178.67641411623936
 10
178.99490909090906
 20
183.67641411623936
  0
LWPOLYLINE
  5
9A
330
17
100
AcDbEntity
  8
Layer
100
AcDbPolyline
 90
5
 70
1
 10
178.99490909090906
 20
212.87725126563265
 10
183.99490909090906
 20
217.87725126563265
 10
188.99490909090906
 20
212.87725126563265
 10
183.99490909090906
 20
207.87725126563265
 10
178.99490909090906
 20
212.87725126563265
  0
LINE
  5
9B
330
17
100
AcDbEntity
  8
Layer
 62
7
100
AcDbLine
 10
23.28268393807025
 20
200.00000000000003
 30
0.0
 11
436.30909090909086
 21
200.0
 31
0.0
  0
LINE
  5
9C
330
17
100
AcDbEntity
  8
Layer
 62
7
100
AcDbLine
 10
144.36043221701024
 20
200.00000000000003
 30
0.0
 11
156.36043221701024
 21
200.00000000000003
 31
0.0
  0
LINE
  5
9D
330
17
100
AcDbEntity
  8
Layer
 62
7
100
AcDbLine
 10
325.2270546354202
 20
200.0
 30
0.0
 11
337.2270546354202
 21
200.0
 31
0.0
  0
LINE
  5
9E
330
17
100
AcDbEntity
  8
Layer
 62
7
100
AcDbLine
 10
9.473757099052477
 20
178.76597366144293
 30
0.0
 11
436.30909090909086
 21
151.31338413370833
 31
0.0
  0
LINE
  5
9F
330
17
100
AcDbEntity
  8
Layer
 62
7
100
AcDbLine
 10
177.1144789597198
 20
167.98389551366193
 30
0.0
 11
189.0897359617232
 21
167.21368792088697
 31
0.0
  0
LINE
  5
A0
330
17
100
AcDbEntity
  8
Layer
 62
7
100
AcDbLine
 10
386.0416699833662
 20
154.54641280772603
 30
0.0
 11
398.01692698536965
 21
153.77620521495106
 31
0.0
  0
LINE
  5
A1
330
17
100
AcDbEntity
  8
Layer
100
AcDbLine
 10
333.99490909090906
 20
248.524
 30
0.0
 11
333.99490909090906
 21
249.524
 31
0.0
  0
LINE
  5
A2
330
17
100
AcDbEntity
  8
Layer
100
AcDbLine
 10
333.99490909090906
 20
151.476
 30
0.0
 11
333.99490909090906
 21
150.476
 31
0.0
  0
LINE
  5
A3
330
17
100
AcDbEntity
  8
Layer
100
AcDbLine
 10
379.7163268602852
 20
200.0
 30
0.0
 11
380.7163268602852
 21
200.0
 31
0.0
  0
LINE
  5
A4
330
17
100
AcDbEntity
  8
Layer
100
AcDbLine
 10
288.2734913215329
 20
200.0
 30
0.0
 11
287.2734913215329
 21
200.0
 31
0.0
  0
LINE
  5
A5
330
17
100
AcDbEntity
  8
Layer
 62
7
100
AcDbLine
 10
183.99490909090906
 20
143.10877077528053
 30
0.0
 11
183.99490909090906
 21
253.4448946065915
 31
0.0
  0
LINE
  5
A6
330
17
100
AcDbEntity
  8
Layer
 62
7
100
AcDbLine
 10
183.99490909090906
 20
177.67641411623936
 30
0.0
 11
183.99490909090906
 21
189.67641411623936
 31
0.0
  0
LINE
  5
A7
330
17
100
AcDbEntity
  8
Layer
 62
7
100
AcDbLine
 10
183.99490909090906
 20
206.87725126563265
 30
0.0
 11
183.99490909090906
 21
218.87725126563265
 31
0.0
  0
ENDSEC
  0
SECTION
  2
OBJECTS
  0
DICTIONARY
  5
A
330
0
100
AcDbDictionary
280
0
281
1
  3
ACAD_COLOR
350
B
  3
ACAD_GROUP
350
C
  3
ACAD_LAYOUT
350
D
  3
ACAD_MATERIAL
350
E
  3
ACAD_MLEADERSTYLE
350
F
  3
ACAD_MLINESTYLE
350
10
  3
ACAD_PLOTSETTINGS
350
11
  3
ACAD_PLOTSTYLENAME
350
12
  3
ACAD_SCALELIST
350
14
  3
ACAD_TABLESTYLE
350
15
  3
ACAD_VISUALSTYLE
350
16
  3
EZDXF_META
350
2D
  0
DICTIONARY
  5
B
330
A
100
AcDbDictionary
280
0
281
1
  0
DICTIONARY
  5
C
330
A
100
AcDbDictionary
280
0
281
1
  0
DICTIONARY
  5
D
330
A
100
AcDbDictionary
280
0
281
1
  3
Model
350
1A
  3
Layout1
350
1E
  0
DICTIONARY
  5
E
330
A
100
AcDbDictionary
280
0
281
1
  3
ByBlock
350
1F
  3
ByLayer
350
20
  3
Global
350
21
  0
DICTIONARY
  5
F
330
A
100
AcDbDictionary
280
0
281
1
  3
Standard
350
2C
  0
DICTIONARY
  5
10
330
A
100
AcDbDictionary
280
0
281
1
  3
Standard
350
22
  0
DICTIONARY
  5
11
330
A
100
AcDbDictionary
280
0
281
1
  0
ACDBDICTIONARYWDFLT
  5
12
330
A
100
AcDbDictionary
280
0
281
1
  3
Normal
350
13
100
AcDbDictionaryWithDefault
340
13
  0
ACDBPLACEHOLDER
  5
13
330
12
  0
DICTIONARY
  5
14
330
A
100
AcDbDictionary
280
0
281
1
  0
DICTIONARY
  5
15
330
A
100
AcDbDictionary
280
0
281
1
  0
DICTIONARY
  5
16
330
A
100
AcDbDictionary
280
0
281
1
  3
2dWireframe
350
5A
  3
Basic
350
5B
  3
Brighten
350
5C
  3
ColorChange
350
5D
  3
Conceptual
350
5E
  3
Dim
350
5F
  3
EdgeColorOff
350
60
  3
Facepattern
350
61
  3
Flat
350
62
  3
FlatWithEdges
350
63
  3
Gouraud
350
64
  3
GouraudWithEdges
350
65
  3
Hidden
350
66
  3
JitterOff
350
67
  3
Linepattern
350
68
  3
Modeling
350
69
  3
OverhangOff
350
6A
  3
Realistic
350
6B
  3
Shaded
350
6C
  3
Shaded with edges
350
6D
  3
Shades of Gray
350
6E
  3
Sketchy
350
6F
  3
Thicken
350
70
  3
Wireframe
350
71
  3
X-Ray
350
72
  0
LAYOUT
  5
1A
330
D
100
AcDbPlotSettings
  1

  2
Adobe PDF
  4
A3
  6

 40
7.5
 41
20.0
 42
7.5
 43
20.0
 44
420.0
 45
297.0
 46
0.0
 47
0.0
 48
0.0
 49
0.0
140
0.0
141
0.0
142
1.0
143
1.0
 70
1024
 72
1
 73
0
 74
5
  7

 75
16
 76
0
 77
2
 78
300
147
1.0
148
0.0
149
0.0
100
AcDbLayout
  1
Model
 70
1
 71
0
 10
0.0
 20
0.0
 11
420.0
 21
297.0
 12
0.0
 22
0.0
 32
0.0
 14
1e+20
 24
1e+20
 34
1e+20
 15
-1e+20
 25
-1e+20
 35
-1e+20
146
0.0
 13
0.0
 23
0.0
 33
0.0
 16
1.0
 26
0.0
 36
0.0
 17
0.0
 27
1.0
 37
0.0
 76
1
330
17
  0
LAYOUT
  5
1E
330
D
100
AcDbPlotSettings
  1

  2
Adobe PDF
  4
A3
  6

 40
7.5
 41
20.0
 42
7.5
 43
20.0
 44
420.0
 45
297.0
 46
0.0
 47
0.0
 48
0.0
 49
0.0
140
0.0
141
0.0
142
1.0
143
1.0
 70
0
 72
1
 73
0
 74
5
  7

 75
16
 76
0
 77
2
 78
300
147
1.0
148
0.0
149
0.0
100
AcDbLayout
  1
Layout1
 70
1
 71
1
 10
0.0
 20
0.0
 11
420.0
 21
297.0
 12
0.0
 22
0.0
 32
0.0
 14
1e+20
 24
1e+20
 34
1e+20
 15
-1e+20
 25
-1e+20
 35
-1e+20
146
0.0
 13
0.0
 23
0.0
 33
0.0
 16
1.0
 26
0.0
 36
0.0
 17
0.0
 27
1.0
 37
0.0
 76
1
330
1B
  0
MATERIAL
  5
1F
102
{ACAD_REACTORS
330
E
102
}
330
E
100
AcDbMaterial
  1
ByBlock
  2

 70
0
 40
1.0
 71
1
 41
1.0
 91
-1023410177
 42
1.0
 72
1
  3

 73
1
 74
1
 75
1
 44
0.5
 73
0
 45
1.0
 46
1.0
 77
1
  4

 78
1
 79
1
170
1
 48
1.0
171
1
  6

172
1
173
1
174
1
140
1.0
141
1.0
175
1
  7

176
1
177
1
178
1
143
1.0
179
1
  8

270
1
271
1
272
1
145
1.0
146
1.0
273
1
  9

274
1
275
1
276
1
 42
1.0
 72
1
  3

 73
1
 74
1
 75
1
 94
63
  0
MATERIAL
  5
20
102
{ACAD_REACTORS
330
E
102
}
330
E
100
AcDbMaterial
  1
ByLayer
  2

 70
0
 40
1.0
 71
1
 41
1.0
 91
-1023410177
 42
1.0
 72
1
  3

 73
1
 74
1
 75
1
 44
0.5
 73
0
 45
1.0
 46
1.0
 77
1
  4

 78
1
 79
1
170
1
 48
1.0
171
1
  6

172
1
173
1
174
1
140
1.0
141
1.0
175
1
  7

176
1
177
1
178
1
143
1.0
179
1
  8

270
1
271
1
272
1
145
1.0
146
1.0
273
1
  9

274
1
275
1
276
1
 42
1.0
 72
1
  3

 73
1
 74
1
 75
1
 94
63
  0
MATERIAL
  5
21
102
{ACAD_REACTORS
330
E
102
}
330
E
100
AcDbMaterial
  1
Global
  2

 70
0
 40
1.0
 71
1
 41
1.0
 91
-1023410177
 42
1.0
 72
1
  3

 73
1
 74
1
 75
1
 44
0.5
 73
0
 45
1.0
 46
1.0
 77
1
  4

 78
1
 79
1
170
1
 48
1.0
171
1
  6

172
1
173
1
174
1
140
1.0
141
1.0
175
1
  7

176
1
177
1
178
1
143
1.0
179
1
  8

270
1
271
1
272
1
145
1.0
146
1.0
273
1
  9

274
1
275
1
276
1
 42
1.0
 72
1
  3

 73
1
 74
1
 75
1
 94
63
  0
MLINESTYLE
  5
22
102
{ACAD_REACTORS
330
10
102
}
330
10
100
AcDbMlineStyle
  2
Standard
 70
0
  3

 62
256
 51
90.0
 52
90.0
 71
2
 49
0.5
 62
256
  6
BYLAYER
 49
-0.5
 62
256
  6
BYLAYER
  0
MLEADERSTYLE
  5
2C
102
{ACAD_REACTORS
330
F
102
}
330
F
100
AcDbMLeaderStyle
179
2
170
2
171
1
172
0
 90
2
 40
0.0
 41
0.0
173
1
 91
-1056964608
 92
-2
290
1
 42
2.0
291
1
 43
8.0
  3
Standard
 44
4.0
300

342
29
174
1
175
1
176
0
178
1
 93
-1056964608
 45
4.0
292
0
297
0
 46
4.0
 94
-1056964608
 47
1.0
 49
1.0
140
1.0
294
1
141
0.0
177
0
142
1.0
295
0
296
0
143
3.75
271
0
272
9
273
9
  0
DICTIONARY
  5
2D
330
A
100
AcDbDictionary
281
1
  3
CREATED_BY_EZDXF
350
2E
  3
WRITTEN_BY_EZDXF
350
AA
  0
DICTIONARYVAR
  5
2E
330
2D
100
DictionaryVariables
280
0
  1
1.3.0 @ 2026-01-06T17:07:14.828218+00:00
  0
VISUALSTYLE
  5
5A
102
{ACAD_REACTORS
330
16
102
}
330
16
100
AcDbVisualStyle
  2
2dWireframe
 70
4
 90
0
 40
0.6
 62
7
290
0
291
0
  0
VISUALSTYLE
  5
5B
102
{ACAD_REACTORS
330
16
102
}
330
16
100
AcDbVisualStyle
  2
Basic
 70
7
 90
1
 40
0.6
 62
7
290
0
291
1
  0
VISUALSTYLE
  5
5C
102
{ACAD_REACTORS
330
16
102
}
330
16
100
AcDbVisualStyle
  2
Brighten
 70
12
 90
2
 40
0.6
 62
7
290
0
291
1
  0
VISUALSTYLE
  5
5D
102
{ACAD_REACTORS
330
16
102
}
330
16
100
AcDbVisualStyle
  2
ColorChange
 70
16
 90
2
 40
0.6
 62
8
290
0
291
1
  0
VISUALSTYLE
  5
5E
102
{ACAD_REACTORS
330
16
102
}
330
16
100
AcDbVisualStyle
  2
Conceptual
 70
9
 90
3
 40
0.6
 62
7
290
0
291
0
  0
VISUALSTYLE
  5
5F
102
{ACAD_REACTORS
330
16
102
}
330
16
100
AcDbVisualStyle
  2
Dim
 70
11
 90
2
 40
0.6
 62
7
290
0
291
1
  0
VISUALSTYLE
  5
60
102
{ACAD_REACTORS
330
16
102
}
330
16
100
AcDbVisualStyle
  2
EdgeColorOff
 70
22
 90
2
 40
0.6
 62
7
290
0
291
1
  0
VISUALSTYLE
  5
61
102
{ACAD_REACTORS
330
16
102
}
330
16
100
AcDbVisualStyle
  2
Facepattern
 70
15
 90
2
 40
0.6
 62
7
290
0
291
1
  0
VISUALSTYLE
  5
62
102
{ACAD_REACTORS
330
16
102
}
330
16
100
AcDbVisualStyle
  2
Flat
 70
0
 90
2
 40
0.6
 62
7
290
0
291
1
  0
VISUALSTYLE
  5
63
102
{ACAD_REACTORS
330
16
102
}
330
16
100
AcDbVisualStyle
  2
FlatWithEdges
 70
1
 90
2
 40
0.6
 62
7
290
0
291
1
  0
VISUALSTYLE
  5
64
102
{ACAD_REACTORS
330
16
102
}
330
16
100
AcDbVisualStyle
  2
Gouraud
 70
2
 90
2
 40
0.6
 62
7
290
0
291
1
  0
VISUALSTYLE
  5
65
102
{ACAD_REACTORS
330
16
102
}
330
16
100
AcDbVisualStyle
  2
GouraudWithEdges
 70
3
 90
2
 40
0.6
 62
7
290
0
291
1
  0
VISUALSTYLE
  5
66
102
{ACAD_REACTORS
330
16
102
}
330
16
100
AcDbVisualStyle
  2
Hidden
 70
6
 90
1
 40
0.6
 62
7
290
0
291
0
  0
VISUALSTYLE
  5
67
102
{ACAD_REACTORS
330
16
102
}
330
16
100
AcDbVisualStyle
  2
JitterOff
 70
20
 90
2
 40
0.6
 62
7
290
0
291
1
  0
VISUALSTYLE
  5
68
102
{ACAD_REACTORS
330
16
102
}
330
16
100
AcDbVisualStyle
  2
Linepattern
 70
14
 90
2
 40
0.6
 62
7
290
0
291
1
  0
VISUALSTYLE
  5
69
102
{ACAD_REACTORS
330
16
102
}
330
16
100
AcDbVisualStyle
  2
Modeling
 70
10
 90
2
 40
0.6
 62
7
290
0
291
0
  0
VISUALSTYLE
  5
6A
102
{ACAD_REACTORS
330
16
102
}
330
16
100
AcDbVisualStyle
  2
OverhangOff
 70
21
 90
2
 40
0.6
 62
7
290
0
291
1
  0
VISUALSTYLE
  5
6B
102
{ACAD_REACTORS
330
16
102
}
330
16
100
AcDbVisualStyle
  2
Realistic
 70
8
 90
2
 40
0.6
 62
7
290
0
291
0
  0
VISUALSTYLE
  5
6C
102
{ACAD_REACTORS
330
16
102
}
330
16
100
AcDbVisualStyle
  2
Shaded
 70
27
 90
2
 40
0.6
 62
7
290
0
291
0
  0
VISUALSTYLE
  5
6D
102
{ACAD_REACTORS
330
16
102
}
330
16
100
AcDbVisualStyle
  2
Shaded with edges
 70
26
 90
2
 40
0.6
 62
7
290
0
291
0
  0
VISUALSTYLE
  5
6E
102
{ACAD_REACTORS
330
16
102
}
330
16
100
AcDbVisualStyle
  2
Shades of Gray
 70
23
 90
2
 40
0.6
 62
7
290
0
291
0
  0
VISUALSTYLE
  5
6F
102
{ACAD_REACTORS
330
16
102
}
330
16
100
AcDbVisualStyle
  2
Sketchy
 70
24
 90
1
 40
0.6
 62
7
290
0
291
0
  0
VISUALSTYLE
  5
70
102
{ACAD_REACTORS
330
16
102
}
330
16
100
AcDbVisualStyle
  2
Thicken
 70
13
 90
2
 40
0.6
 62
7
290
0
291
1
  0
VISUALSTYLE
  5
71
102
{ACAD_REACTORS
330
16
102
}
330
16
100
AcDbVisualStyle
  2
Wireframe
 70
5
 90
0
 40
0.6
 62
7
290
0
291
0
  0
VISUALSTYLE
  5
72
102
{ACAD_REACTORS
330
16
102
}
330
16
100
AcDbVisualStyle
  2
X-Ray
 70
25
 90
2
 40
0.5
 62
7
290
0
291
0
  0
DICTIONARYVAR
  5
AA
330
2D
100
DictionaryVariables
280
0
  1
1.3.0 @ 2026-01-06T17:07:14.847233+00:00
  0
ENDSEC
  0
EOF
