  0
SECTION
  2
HEADER
  9
$ACADVER
  1
AC1021
  9
$ACADMAINTVER
 70
25
  9
$DWGCODEPAGE
  3
ANSI_1252
  9
$LASTSAVEDBY
  1
ezdxf
  9
$INSBASE
 10
0.0
 20
0.0
 30
0.0
  9
$EXTMIN
 10
1e+20
 20
1e+20
 30
1e+20
  9
$EXTMAX
 10
-1e+20
 20
-1e+20
 30
-1e+20
  9
$LIMMIN
 10
0.0
 20
0.0
  9
$LIMMAX
 10
420.0
 20
297.0
  9
$ORTHOMODE
 70
0
  9
$REGENMODE
 70
1
  9
$FILLMODE
 70
1
  9
$QTEXTMODE
 70
0
  9
$MIRRTEXT
 70
1
  9
$LTSCALE
 40
1.0
  9
$ATTMODE
 70
1
  9
$TEXTSIZE
 40
2.5
  9
$TRACEWID
 40
1.0
  9
$TEXTSTYLE
  7
OpenSans
  9
$CLAYER
  8
0
  9
$CELTYPE
  6
ByLayer
  9
$CECOLOR
 62
256
  9
$CELTSCALE
 40
1.0
  9
$DISPSILH
 70
0
  9
$DIMSCALE
 40
1.0
  9
$DIMASZ
 40
0.175
  9
$DIMEXO
 40
0.125
  9
$DIMDLI
 40
3.75
  9
$DIMRND
 40
0.0
  9
$DIMDLE
 40
0.0
  9
$DIMEXE
 40
0.375
  9
$DIMTP
 40
0.0
  9
$DIMTM
 40
0.0
  9
$DIMTXT
 40
0.25
  9
$DIMCEN
 40
2.5
  9
$DIMTSZ
 40
0.0
  9
$DIMTOL
 70
0
  9
$DIMLIM
 70
0
  9
$DIMTIH
 70
0
  9
$DIMTOH
 70
0
  9
$DIMSE1
 70
0
  9
$DIMSE2
 70
0
  9
$DIMTAD
 70
1
  9
$DIMZIN
 70
12
  9
$DIMBLK
  1
ARCHTICK
  9
$DIMASO
 70
1
  9
$DIMSHO
 70
1
  9
$DIMPOST
  1

  9
$DIMAPOST
  1

  9
$DIMALT
 70
0
  9
$DIMALTD
 70
3
  9
$DIMALTF
 40
0.03937007874
  9
$DIMLFAC
 40
100.0
  9
$DIMTOFL
 70
1
  9
$DIMTVP
 40
0.0
  9
$DIMTIX
 70
0
  9
$DIMSOXD
 70
0
  9
$DIMSAH
 70
0
  9
$DIMBLK1
  1

  9
$DIMBLK2
  1

  9
$DIMSTYLE
  2
EZDXF
  9
$DIMCLRD
 70
0
  9
$DIMCLRE
 70
0
  9
$DIMCLRT
 70
0
  9
$DIMTFAC
 40
0.5
  9
$DIMGAP
 40
0.1
  9
$DIMJUST
 70
0
  9
$DIMSD1
 70
0
  9
$DIMSD2
 70
0
  9
$DIMTOLJ
 70
0
  9
$DIMTZIN
 70
8
  9
$DIMALTZ
 70
0
  9
$DIMALTTZ
 70
0
  9
$DIMUPT
 70
1
  9
$DIMDEC
 70
2
  9
$DIMTDEC
 70
2
  9
$DIMALTU
 70
2
  9
$DIMALTTD
 70
3
  9
$DIMTXSTY
  7
OpenSansCondensed-Light
  9
$DIMAUNIT
 70
0
  9
$DIMADEC
 70
2
  9
$DIMALTRND
 40
0.0
  9
$DIMAZIN
 70
3
  9
$DIMDSEP
 70
46
  9
$DIMATFIT
 70
3
  9
$DIMFRAC
 70
0
  9
$DIMLDRBLK
  1

  9
$DIMLUNIT
 70
2
  9
$DIMLWD
 70
-2
  9
$DIMLWE
 70
-2
  9
$DIMTMOVE
 70
2
  9
$DIMFXL
 40
1.0
  9
$DIMFXLON
 70
0
  9
$DIMJOGANG
 40
0.785398163397
  9
$DIMTFILL
 70
0
  9
$DIMTFILLCLR
 70
0
  9
$DIMARCSYM
 70
0
  9
$DIMLTYPE
  6

  9
$DIMLTEX1
  6

  9
$DIMLTEX2
  6

  9
$LUNITS
 70
2
  9
$LUPREC
 70
4
  9
$SKETCHINC
 40
1.0
  9
$FILLETRAD
 40
10.0
  9
$AUNITS
 70
0
  9
$AUPREC
 70
2
  9
$MENU
  1
.
  9
$ELEVATION
 40
0.0
  9
$PELEVATION
 40
0.0
  9
$THICKNESS
 40
0.0
  9
$LIMCHECK
 70
0
  9
$CHAMFERA
 40
0.0
  9
$CHAMFERB
 40
0.0
  9
$CHAMFERC
 40
0.0
  9
$CHAMFERD
 40
0.0
  9
$SKPOLY
 70
0
  9
$TDCREATE
 40
2461048.088263889
  9
$TDUCREATE
 40
2458532.153996898
  9
$TDUPDATE
 40
2461048.088263889
  9
$TDUUPDATE
 40
2458532.1544311
  9
$TDINDWG
 40
0.0
  9
$TDUSRTIMER
 40
0.0
  9
$USRTIMER
 70
1
  9
$ANGBASE
 50
0.0
  9
$ANGDIR
 70
0
  9
$PDMODE
 70
0
  9
$PDSIZE
 40
0.0
  9
$PLINEWID
 40
0.0
  9
$SPLFRAME
 70
0
  9
$SPLINETYPE
 70
6
  9
$SPLINESEGS
 70
8
  9
$HANDSEED
  5
AB
  9
$SURFTAB1
 70
6
  9
$SURFTAB2
 70
6
  9
$SURFTYPE
 70
6
  9
$SURFU
 70
6
  9
$SURFV
 70
6
  9
$UCSBASE
  2

  9
$UCSNAME
  2

  9
$UCSORG
 10
0.0
 20
0.0
 30
0.0
  9
$UCSXDIR
 10
1.0
 20
0.0
 30
0.0
  9
$UCSYDIR
 10
0.0
 20
1.0
 30
0.0
  9
$UCSORTHOREF
  2

  9
$UCSORTHOVIEW
 70
0
  9
$UCSORGTOP
 10
0.0
 20
0.0
 30
0.0
  9
$UCSORGBOTTOM
 10
0.0
 20
0.0
 30
0.0
  9
$UCSORGLEFT
 10
0.0
 20
0.0
 30
0.0
  9
$UCSORGRIGHT
 10
0.0
 20
0.0
 30
0.0
  9
$UCSORGFRONT
 10
0.0
 20
0.0
 30
0.0
  9
$UCSORGBACK
 10
0.0
 20
0.0
 30
0.0
  9
$PUCSBASE
  2

  9
$PUCSNAME
  2

  9
$PUCSORG
 10
0.0
 20
0.0
 30
0.0
  9
$PUCSXDIR
 10
1.0
 20
0.0
 30
0.0
  9
$PUCSYDIR
 10
0.0
 20
1.0
 30
0.0
  9
$PUCSORTHOREF
  2

  9
$PUCSORTHOVIEW
 70
0
  9
$PUCSORGTOP
 10
0.0
 20
0.0
 30
0.0
  9
$PUCSORGBOTTOM
 10
0.0
 20
0.0
 30
0.0
  9
$PUCSORGLEFT
 10
0.0
 20
0.0
 30
0.0
  9
$PUCSORGRIGHT
 10
0.0
 20
0.0
 30
0.0
  9
$PUCSORGFRONT
 10
0.0
 20
0.0
 30
0.0
  9
$PUCSORGBACK
 10
0.0
 20
0.0
 30
0.0
  9
$USERI1
 70
0
  9
$USERI2
 70
0
  9
$USERI3
 70
0
  9
$USERI4
 70
0
  9
$USERI5
 70
0
  9
$USERR1
 40
0.0
  9
$USERR2
 40
0.0
  9
$USERR3
 40
0.0
  9
$USERR4
 40
0.0
  9
$USERR5
 40
0.0
  9
$WORLDVIEW
 70
1
  9
$SHADEDGE
 70
3
  9
$SHADEDIF
 70
70
  9
$TILEMODE
 70
1
  9
$MAXACTVP
 70
64
  9
$PINSBASE
 10
0.0
 20
0.0
 30
0.0
  9
$PLIMCHECK
 70
0
  9
$PEXTMIN
 10
1e+20
 20
1e+20
 30
1e+20
  9
$PEXTMAX
 10
-1e+20
 20
-1e+20
 30
-1e+20
  9
$PLIMMIN
 10
0.0
 20
0.0
  9
$PLIMMAX
 10
420.0
 20
297.0
  9
$UNITMODE
 70
0
  9
$VISRETAIN
 70
1
  9
$PLINEGEN
 70
0
  9
$PSLTSCALE
 70
1
  9
$TREEDEPTH
 70
3020
  9
$CMLSTYLE
  2
Standard
  9
$CMLJUST
 70
0
  9
$CMLSCALE
 40
20.0
  9
$PROXYGRAPHICS
 70
1
  9
$MEASUREMENT
 70
1
  9
$CELWEIGHT
370
-1
  9
$ENDCAPS
280
0
  9
$JOINSTYLE
280
0
  9
$LWDISPLAY
290
0
  9
$INSUNITS
 70
6
  9
$HYPERLINKBASE
  1

  9
$STYLESHEET
  1

  9
$XEDIT
290
1
  9
$CEPSNTYPE
380
0
  9
$PSTYLEMODE
290
1
  9
$FINGERPRINTGUID
  2
{A137630E-9256-418B-9E6C-9D79DB3F3F88}
  9
$VERSIONGUID
  2
{4429DEF3-8C96-41A5-BC0E-0ADDF21D161E}
  9
$EXTNAMES
290
1
  9
$PSVPSCALE
 40
0.0
  9
$OLESTARTUP
290
0
  9
$SORTENTS
280
127
  9
$INDEXCTL
280
0
  9
$HIDETEXT
280
1
  9
$XCLIPFRAME
290
1
  9
$HALOGAP
280
0
  9
$OBSCOLOR
 70
257
  9
$OBSLTYPE
280
0
  9
$INTERSECTIONDISPLAY
280
0
  9
$INTERSECTIONCOLOR
 70
257
  9
$DIMASSOC
280
2
  9
$PROJECTNAME
  1

  9
$CAMERADISPLAY
290
0
  9
$LENSLENGTH
 40
50.0
  9
$CAMERAHEIGHT
 40
0.0
  9
$STEPSPERSEC
 40
24.0
  9
$STEPSIZE
 40
100.0
  9
$3DDWFPREC
 40
2.0
  9
$PSOLWIDTH
 40
0.005
  9
$PSOLHEIGHT
 40
0.08
  9
$LOFTANG1
 40
1.570796326795
  9
$LOFTANG2
 40
1.570796326795
  9
$LOFTMAG1
 40
0.0
  9
$LOFTMAG2
 40
0.0
  9
$LOFTPARAM
 70
7
  9
$LOFTNORMALS
280
1
  9
$LATITUDE
 40
37.795
  9
$LONGITUDE
 40
-122.394
  9
$NORTHDIRECTION
 40
0.0
  9
$TIMEZONE
 70
-8000
  9
$LIGHTGLYPHDISPLAY
280
1
  9
$TILEMODELIGHTSYNCH
280
1
  9
$CMATERIAL
347
20
  9
$SOLIDHIST
280
0
  9
$SHOWHIST
280
1
  9
$DWFFRAME
280
2
  9
$DGNFRAME
280
2
  9
$REALWORLDSCALE
290
1
  9
$INTERFERECOLOR
 62
256
  9
$CSHADOW
280
0
  9
$SHADOWPLANELOCATION
 40
0.0
  0
ENDSEC
  0
SECTION
  2
CLASSES
  0
CLASS
  1
ACDBDICTIONARYWDFLT
  2
AcDbDictionaryWithDefault
  3
ObjectDBX Classes
 90
0
 91
0
280
0
281
0
  0
CLASS
  1
SUN
  2
AcDbSun
  3
SCENEOE
 90
1153
 91
0
280
0
281
0
  0
CLASS
  1
VISUALSTYLE
  2
AcDbVisualStyle
  3
ObjectDBX Classes
 90
4095
 91
0
280
0
281
0
  0
CLASS
  1
MATERIAL
  2
AcDbMaterial
  3
ObjectDBX Classes
 90
1153
 91
0
280
0
281
0
  0
CLASS
  1
SCALE
  2
AcDbScale
  3
ObjectDBX Classes
 90
1153
 91
0
280
0
281
0
  0
CLASS
  1
TABLESTYLE
  2
AcDbTableStyle
  3
ObjectDBX Classes
 90
4095
 91
0
280
0
281
0
  0
CLASS
  1
MLEADERSTYLE
  2
AcDbMLeaderStyle
  3
ACDB_MLEADERSTYLE_CLASS
 90
4095
 91
0
280
0
281
0
  0
CLASS
  1
DICTIONARYVAR
  2
AcDbDictionaryVar
  3
ObjectDBX Classes
 90
0
 91
0
280
0
281
0
  0
CLASS
  1
CELLSTYLEMAP
  2
AcDbCellStyleMap
  3
ObjectDBX Classes
 90
1152
 91
0
280
0
281
0
  0
CLASS
  1
MENTALRAYRENDERSETTINGS
  2
AcDbMentalRayRenderSettings
  3
SCENEOE
 90
1024
 91
0
280
0
281
0
  0
CLASS
  1
ACDBDETAILVIEWSTYLE
  2
AcDbDetailViewStyle
  3
ObjectDBX Classes
 90
1025
 91
0
280
0
281
0
  0
CLASS
  1
ACDBSECTIONVIEWSTYLE
  2
AcDbSectionViewStyle
  3
ObjectDBX Classes
 90
1025
 91
0
280
0
281
0
  0
CLASS
  1
RASTERVARIABLES
  2
AcDbRasterVariables
  3
ISM
 90
0
 91
0
280
0
281
0
  0
CLASS
  1
ACDBPLACEHOLDER
  2
AcDbPlaceHolder
  3
ObjectDBX Classes
 90
0
 91
0
280
0
281
0
  0
CLASS
  1
LAYOUT
  2
AcDbLayout
  3
ObjectDBX Classes
 90
0
 91
0
280
0
281
0
  0
ENDSEC
  0
SECTION
  2
TABLES
  0
TABLE
  2
VPORT
  5
8
330
0
100
AcDbSymbolTable
 70
1
  0
VPORT
  5
23
330
8
100
AcDbSymbolTableRecord
100
AcDbViewportTableRecord
  2
*Active
 70
0
 10
0.0
 20
0.0
 11
1.0
 21
1.0
 12
0.0
 22
0.0
 13
0.0
 23
0.0
 14
0.5
 24
0.5
 15
0.5
 25
0.5
 16
0.0
 26
0.0
 36
1.0
 17
0.0
 27
0.0
 37
0.0
 40
1000.0
 41
1.34
 42
50.0
 43
0.0
 44
0.0
 50
0.0
 51
0.0
 71
0
 72
1000
 73
1
 74
3
 75
0
 76
0
 77
0
 78
0
281
0
 65
0
146
0.0
  0
ENDTAB
  0
TABLE
  2
LTYPE
  5
2
330
0
100
AcDbSymbolTable
 70
21
  0
LTYPE
  5
24
330
2
100
AcDbSymbolTableRecord
100
AcDbLinetypeTableRecord
  2
ByBlock
 70
0
  3

 72
65
 73
0
 40
0.0
  0
LTYPE
  5
25
330
2
100
AcDbSymbolTableRecord
100
AcDbLinetypeTableRecord
  2
ByLayer
 70
0
  3

 72
65
 73
0
 40
0.0
  0
LTYPE
  5
26
330
2
100
AcDbSymbolTableRecord
100
AcDbLinetypeTableRecord
  2
Continuous
 70
0
  3

 72
65
 73
0
 40
0.0
  0
LTYPE
  5
2F
330
2
100
AcDbSymbolTableRecord
100
AcDbLinetypeTableRecord
  2
CENTER
 70
0
  3
Center ____ _ ____ _ ____ _ ____ _ ____ _ ____
 72
65
 73
4
 40
5.08
 49
3.175
 74
0
 49
-0.635
 74
0
 49
0.635
 74
0
 49
-0.635
 74
0
  0
LTYPE
  5
30
330
2
100
AcDbSymbolTableRecord
100
AcDbLinetypeTableRecord
  2
CENTERX2
 70
0
  3
Center (2x) ________  __  ________  __  ________
 72
65
 73
4
 40
8.89
 49
6.35
 74
0
 49
-0.635
 74
0
 49
1.27
 74
0
 49
-0.635
 74
0
  0
LTYPE
  5
31
330
2
100
AcDbSymbolTableRecord
100
AcDbLinetypeTableRecord
  2
CENTER2
 70
0
  3
Center (.5x) ____ _ ____ _ ____ _ ____ _ ____
 72
65
 73
4
 40
2.54
 49
1.587
 74
0
 49
-0.318
 74
0
 49
0.318
 74
0
 49
-0.318
 74
0
  0
LTYPE
  5
32
330
2
100
AcDbSymbolTableRecord
100
AcDbLinetypeTableRecord
  2
DASHED
 70
0
  3
Dashed __ __ __ __ __ __ __ __ __ __ __ __ __ _
 72
65
 73
2
 40
1.524
 49
1.27
 74
0
 49
-0.254
 74
0
  0
LTYPE
  5
33
330
2
100
AcDbSymbolTableRecord
100
AcDbLinetypeTableRecord
  2
DASHEDX2
 70
0
  3
Dashed (2x) ____  ____  ____  ____  ____  ____
 72
65
 73
2
 40
3.048
 49
2.54
 74
0
 49
-0.508
 74
0
  0
LTYPE
  5
34
330
2
100
AcDbSymbolTableRecord
100
AcDbLinetypeTableRecord
  2
DASHED2
 70
0
  3
Dashed (.5x) _ _ _ _ _ _ _ _ _ _ _ _ _ _
 72
65
 73
2
 40
0.762
 49
0.635
 74
0
 49
-0.127
 74
0
  0
LTYPE
  5
35
330
2
100
AcDbSymbolTableRecord
100
AcDbLinetypeTableRecord
  2
PHANTOM
 70
0
  3
Phantom ______  __  __  ______  __  __  ______
 72
65
 73
6
 40
6.35
 49
3.175
 74
0
 49
-0.635
 74
0
 49
0.635
 74
0
 49
-0.635
 74
0
 49
0.635
 74
0
 49
-0.635
 74
0
  0
LTYPE
  5
36
330
2
100
AcDbSymbolTableRecord
100
AcDbLinetypeTableRecord
  2
PHANTOMX2
 70
0
  3
Phantom (2x)____________    ____    ____    ____________
 72
65
 73
6
 40
10.795
 49
6.35
 74
0
 49
-0.635
 74
0
 49
1.27
 74
0
 49
-0.635
 74
0
 49
1.27
 74
0
 49
-0.635
 74
0
  0
LTYPE
  5
37
330
2
100
AcDbSymbolTableRecord
100
AcDbLinetypeTableRecord
  2
PHANTOM2
 70
0
  3
Phantom (.5x) ___ _ _ ___ _ _ ___ _ _ ___ _ _ ___
 72
65
 73
6
 40
3.175
 49
1.587
 74
0
 49
-0.318
 74
0
 49
0.318
 74
0
 49
-0.318
 74
0
 49
0.318
 74
0
 49
-0.318
 74
0
  0
LTYPE
  5
38
330
2
100
AcDbSymbolTableRecord
100
AcDbLinetypeTableRecord
  2
DASHDOT
 70
0
  3
Dash dot __ . __ . __ . __ . __ . __ . __ . __
 72
65
 73
4
 40
3.556
 49
2.54
 74
0
 49
-0.508
 74
0
 49
0.0
 74
0
 49
-0.508
 74
0
  0
LTYPE
  5
39
330
2
100
AcDbSymbolTableRecord
100
AcDbLinetypeTableRecord
  2
DASHDOTX2
 70
0
  3
Dash dot (2x) ____  .  ____  .  ____  .  ____
 72
65
 73
4
 40
6.096
 49
5.08
 74
0
 49
-0.508
 74
0
 49
0.0
 74
0
 49
-0.508
 74
0
  0
LTYPE
  5
3A
330
2
100
AcDbSymbolTableRecord
100
AcDbLinetypeTableRecord
  2
DASHDOT2
 70
0
  3
Dash dot (.5x) _ . _ . _ . _ . _ . _ . _ . _
 72
65
 73
4
 40
1.778
 49
1.27
 74
0
 49
-0.254
 74
0
 49
0.0
 74
0
 49
-0.254
 74
0
  0
LTYPE
  5
3B
330
2
100
AcDbSymbolTableRecord
100
AcDbLinetypeTableRecord
  2
DOT
 70
0
  3
Dot .  .  .  .  .  .  .  .  .  .  .  .  .  .  .  .
 72
65
 73
2
 40
0.508
 49
0.0
 74
0
 49
-0.508
 74
0
  0
LTYPE
  5
3C
330
2
100
AcDbSymbolTableRecord
100
AcDbLinetypeTableRecord
  2
DOTX2
 70
0
  3
Dot (2x) .    .    .    .    .    .    .    . 
 72
65
 73
2
 40
1.016
 49
0.0
 74
0
 49
-1.016
 74
0
  0
LTYPE
  5
3D
330
2
100
AcDbSymbolTableRecord
100
AcDbLinetypeTableRecord
  2
DOT2
 70
0
  3
Dot (.5) . . . . . . . . . . . . . . . . . . . 
 72
65
 73
2
 40
0.254
 49
0.0
 74
0
 49
-0.254
 74
0
  0
LTYPE
  5
3E
330
2
100
AcDbSymbolTableRecord
100
AcDbLinetypeTableRecord
  2
DIVIDE
 70
0
  3
Divide __ . . __ . . __ . . __ . . __ . . __
 72
65
 73
6
 40
4.064
 49
2.54
 74
0
 49
-0.508
 74
0
 49
0.0
 74
0
 49
-0.508
 74
0
 49
0.0
 74
0
 49
-0.508
 74
0
  0
LTYPE
  5
3F
330
2
100
AcDbSymbolTableRecord
100
AcDbLinetypeTableRecord
  2
DIVIDEX2
 70
0
  3
Divide (2x) ____  . .  ____  . .  ____  . .  ____
 72
65
 73
6
 40
6.604
 49
5.08
 74
0
 49
-0.508
 74
0
 49
0.0
 74
0
 49
-0.508
 74
0
 49
0.0
 74
0
 49
-0.508
 74
0
  0
LTYPE
  5
40
330
2
100
AcDbSymbolTableRecord
100
AcDbLinetypeTableRecord
  2
DIVIDE2
 70
0
  3
Divide(.5x) _ . _ . _ . _ . _ . _ . _ . _
 72
65
 73
6
 40
2.032
 49
1.27
 74
0
 49
-0.254
 74
0
 49
0.0
 74
0
 49
-0.254
 74
0
 49
0.0
 74
0
 49
-0.254
 74
0
  0
ENDTAB
  0
TABLE
  2
LAYER
  5
1
330
0
100
AcDbSymbolTable
 70
4
  0
LAYER
  5
27
330
1
100
AcDbSymbolTableRecord
100
AcDbLayerTableRecord
  2
0
 70
0
 62
7
  6
Continuous
370
-3
390
13
347
21
  0
LAYER
  5
28
330
1
100
AcDbSymbolTableRecord
100
AcDbLayerTableRecord
  2
Defpoints
 70
0
 62
7
  6
Continuous
290
0
370
-3
390
13
347
21
  0
LAYER
  5
8A
330
1
100
AcDbSymbolTableRecord
100
AcDbLayerTableRecord
  2
Layer
 70
0
 62
1
  6
Continuous
370
50
390
13
347
21
  0
LAYER
  5
8B
330
1
100
AcDbSymbolTableRecord
100
AcDbLayerTableRecord
  2
NumLabel
 70
0
 62
1
  6
Continuous
370
15
390
13
347
21
  0
ENDTAB
  0
TABLE
  2
STYLE
  5
5
330
0
100
AcDbSymbolTable
 70
26
  0
STYLE
  5
29
330
5
100
AcDbSymbolTableRecord
100
AcDbTextStyleTableRecord
  2
Standard
 70
0
 40
0.0
 41
1.0
 50
0.0
 71
0
 42
2.5
  3
txt
  4

  0
STYLE
  5
41
330
5
100
AcDbSymbolTableRecord
100
AcDbTextStyleTableRecord
  2
OpenSans-Light
 70
0
 40
0.0
 41
1.0
 50
0.0
 71
0
 42
2.5
  3
OpenSans-Light.ttf
  4

  0
STYLE
  5
42
330
5
100
AcDbSymbolTableRecord
100
AcDbTextStyleTableRecord
  2
OpenSans-Light-Italic
 70
0
 40
0.0
 41
1.0
 50
0.0
 71
0
 42
2.5
  3
OpenSans-LightItalic.ttf
  4

  0
STYLE
  5
43
330
5
100
AcDbSymbolTableRecord
100
AcDbTextStyleTableRecord
  2
OpenSans
 70
0
 40
0.0
 41
1.0
 50
0.0
 71
0
 42
2.5
  3
OpenSans-Regular.ttf
  4

  0
STYLE
  5
44
330
5
100
AcDbSymbolTableRecord
100
AcDbTextStyleTableRecord
  2
OpenSans-Italic
 70
0
 40
0.0
 41
1.0
 50
0.0
 71
0
 42
2.5
  3
OpenSans-Italic.ttf
  4

  0
STYLE
  5
45
330
5
100
AcDbSymbolTableRecord
100
AcDbTextStyleTableRecord
  2
OpenSans-SemiBold
 70
0
 40
0.0
 41
1.0
 50
0.0
 71
0
 42
2.5
  3
OpenSans-SemiBold.ttf
  4

  0
STYLE
  5
46
330
5
100
AcDbSymbolTableRecord
100
AcDbTextStyleTableRecord
  2
OpenSans-SemiBoldItalic
 70
0
 40
0.0
 41
1.0
 50
0.0
 71
0
 42
2.5
  3
OpenSans-SemiBoldItalic.ttf
  4

  0
STYLE
  5
47
330
5
100
AcDbSymbolTableRecord
100
AcDbTextStyleTableRecord
  2
OpenSans-Bold
 70
0
 40
0.0
 41
1.0
 50
0.0
 71
0
 42
2.5
  3
OpenSans-Bold.ttf
  4

  0
STYLE
  5
48
330
5
100
AcDbSymbolTableRecord
100
AcDbTextStyleTableRecord
  2
OpenSans-BoldItalic
 70
0
 40
0.0
 41
1.0
 50
0.0
 71
0
 42
2.5
  3
OpenSans-BoldItalic.ttf
  4

  0
STYLE
  5
49
330
5
100
AcDbSymbolTableRecord
100
AcDbTextStyleTableRecord
  2
OpenSans-ExtraBold
 70
0
 40
0.0
 41
1.0
 50
0.0
 71
0
 42
2.5
  3
OpenSans-ExtraBold.ttf
  4

  0
STYLE
  5
4A
330
5
100
AcDbSymbolTableRecord
100
AcDbTextStyleTableRecord
  2
OpenSans-ExtraBoldItalic
 70
0
 40
0.0
 41
1.0
 50
0.0
 71
0
 42
2.5
  3
OpenSans-ExtraBoldItalic.ttf
  4

  0
STYLE
  5
4B
330
5
100
AcDbSymbolTableRecord
100
AcDbTextStyleTableRecord
  2
OpenSansCondensed-Bold
 70
0
 40
0.0
 41
1.0
 50
0.0
 71
0
 42
2.5
  3
OpenSansCondensed-Bold.ttf
  4

  0
STYLE
  5
4C
330
5
100
AcDbSymbolTableRecord
100
AcDbTextStyleTableRecord
  2
OpenSansCondensed-Light
 70
0
 40
0.0
 41
1.0
 50
0.0
 71
0
 42
2.5
  3
OpenSansCondensed-Light.ttf
  4

  0
STYLE
  5
4D
330
5
100
AcDbSymbolTableRecord
100
AcDbTextStyleTableRecord
  2
OpenSansCondensed-Italic
 70
0
 40
0.0
 41
1.0
 50
0.0
 71
0
 42
2.5
  3
OpenSansCondensed-LightItalic.ttf
  4

  0
STYLE
  5
4E
330
5
100
AcDbSymbolTableRecord
100
AcDbTextStyleTableRecord
  2
LiberationSans
 70
0
 40
0.0
 41
1.0
 50
0.0
 71
0
 42
2.5
  3
LiberationSans-Regular.ttf
  4

  0
STYLE
  5
4F
330
5
100
AcDbSymbolTableRecord
100
AcDbTextStyleTableRecord
  2
LiberationSans-Bold
 70
0
 40
0.0
 41
1.0
 50
0.0
 71
0
 42
2.5
  3
LiberationSans-Bold.ttf
  4

  0
STYLE
  5
50
330
5
100
AcDbSymbolTableRecord
100
AcDbTextStyleTableRecord
  2
LiberationSans-BoldItalic
 70
0
 40
0.0
 41
1.0
 50
0.0
 71
0
 42
2.5
  3
LiberationSans-BoldItalic.ttf
  4

  0
STYLE
  5
51
330
5
100
AcDbSymbolTableRecord
100
AcDbTextStyleTableRecord
  2
LiberationSans-Italic
 70
0
 40
0.0
 41
1.0
 50
0.0
 71
0
 42
2.5
  3
LiberationSans-Italic.ttf
  4

  0
STYLE
  5
52
330
5
100
AcDbSymbolTableRecord
100
AcDbTextStyleTableRecord
  2
LiberationSerif
 70
0
 40
0.0
 41
1.0
 50
0.0
 71
0
 42
2.5
  3
LiberationSerif-Regular.ttf
  4

  0
STYLE
  5
53
330
5
100
AcDbSymbolTableRecord
100
AcDbTextStyleTableRecord
  2
LiberationSerif-Bold
 70
0
 40
0.0
 41
1.0
 50
0.0
 71
0
 42
2.5
  3
LiberationSerif-Bold.ttf
  4

  0
STYLE
  5
54
330
5
100
AcDbSymbolTableRecord
100
AcDbTextStyleTableRecord
  2
LiberationSerif-BoldItalic
 70
0
 40
0.0
 41
1.0
 50
0.0
 71
0
 42
2.5
  3
LiberationSerif-BoldItalic.ttf
  4

  0
STYLE
  5
55
330
5
100
AcDbSymbolTableRecord
100
AcDbTextStyleTableRecord
  2
LiberationSerif-Italic
 70
0
 40
0.0
 41
1.0
 50
0.0
 71
0
 42
2.5
  3
LiberationSerif-Italic.ttf
  4

  0
STYLE
  5
56
330
5
100
AcDbSymbolTableRecord
100
AcDbTextStyleTableRecord
  2
LiberationMono
 70
0
 40
0.0
 41
1.0
 50
0.0
 71
0
 42
2.5
  3
LiberationMono-Regular.ttf
  4

  0
STYLE
  5
57
330
5
100
AcDbSymbolTableRecord
100
AcDbTextStyleTableRecord
  2
LiberationMono-Bold
 70
0
 40
0.0
 41
1.0
 50
0.0
 71
0
 42
2.5
  3
LiberationMono-Bold.ttf
  4

  0
STYLE
  5
58
330
5
100
AcDbSymbolTableRecord
100
AcDbTextStyleTableRecord
  2
LiberationMono-BoldItalic
 70
0
 40
0.0
 41
1.0
 50
0.0
 71
0
 42
2.5
  3
LiberationMono-BoldItalic.ttf
  4

  0
STYLE
  5
59
330
5
100
AcDbSymbolTableRecord
100
AcDbTextStyleTableRecord
  2
LiberationMono-Italic
 70
0
 40
0.0
 41
1.0
 50
0.0
 71
0
 42
2.5
  3
LiberationMono-Italic.ttf
  4

  0
ENDTAB
  0
TABLE
  2
VIEW
  5
7
330
0
100
AcDbSymbolTable
 70
0
  0
ENDTAB
  0
TABLE
  2
UCS
  5
6
330
0
100
AcDbSymbolTable
 70
0
  0
ENDTAB
  0
TABLE
  2
APPID
  5
3
330
0
100
AcDbSymbolTable
 70
3
  0
APPID
  5
2A
330
3
100
AcDbSymbolTableRecord
100
AcDbRegAppTableRecord
  2
ACAD
 70
0
  0
APPID
  5
A8
330
3
100
AcDbSymbolTableRecord
100
AcDbRegAppTableRecord
  2
HATCHBACKGROUNDCOLOR
 70
0
  0
APPID
  5
A9
330
3
100
AcDbSymbolTableRecord
100
AcDbRegAppTableRecord
  2
EZDXF
 70
0
  0
ENDTAB
  0
TABLE
  2
DIMSTYLE
  5
4
330
0
100
AcDbSymbolTable
 70
12
100
AcDbDimStyleTable
  0
DIMSTYLE
105
2B
330
4
100
AcDbSymbolTableRecord
100
AcDbDimStyleTableRecord
  2
Standard
 70
0
 40
1.0
 41
2.5
 42
0.625
 43
3.75
 44
1.25
 45
0.0
 46
0.0
 47
0.0
 48
0.0
 49
2.5
140
2.5
141
2.5
142
0.0
143
0.03937007874
144
1.0
145
0.0
146
1.0
147
0.625
148
0.0
 69
0
 70
0
 71
0
 72
0
 73
0
 74
0
 75
0
 76
0
 77
1
 78
8
 79
3
170
0
171
3
172
1
173
0
174
0
175
0
176
0
177
0
178
0
179
2
271
2
272
2
273
2
274
3
275
0
276
0
277
2
278
44
279
0
280
0
281
0
282
0
283
0
284
8
285
0
286
0
288
0
289
3
290
0
371
-2
372
-2
  0
DIMSTYLE
105
73
330
4
100
AcDbSymbolTableRecord
100
AcDbDimStyleTableRecord
  2
EZDXF
 70
0
 40
1.0
 41
0.175
 42
0.125
 43
3.75
 44
0.375
 45
0.0
 46
0.0
 47
0.0
 48
0.0
 49
2.5
140
0.25
141
2.5
142
0.0
143
0.03937007874
144
100.0
145
0.0
146
0.5
147
0.1
148
0.0
 69
0
 70
0
 71
0
 72
0
 73
0
 74
0
 75
0
 76
0
 77
1
 78
12
 79
3
170
0
171
3
172
1
173
0
174
0
175
0
176
0
177
0
178
0
179
2
271
2
272
2
273
2
274
3
275
0
276
0
277
2
278
46
279
2
280
0
281
0
282
0
283
0
284
8
285
0
286
0
288
1
289
3
290
0
340
4C
342
74
371
-2
372
-2
  0
DIMSTYLE
105
7C
330
4
100
AcDbSymbolTableRecord
100
AcDbDimStyleTableRecord
  2
EZ_M_100_H25_CM
 70
0
 40
1.0
 41
0.25
 42
0.125
 43
3.75
 44
0.375
 45
0.0
 46
0.0
 47
0.0
 48
0.0
 49
2.5
140
0.25
141
2.5
142
0.125
143
0.03937007874
144
100.0
145
0.0
146
0.5
147
0.1
148
0.0
 69
0
 70
0
 71
0
 72
0
 73
0
 74
0
 75
0
 76
0
 77
1
 78
12
 79
3
170
0
171
3
172
1
173
0
174
0
175
0
176
0
177
0
178
0
179
2
271
2
272
2
273
2
274
3
275
0
276
0
277
2
278
46
279
2
280
0
281
0
282
0
283
0
284
8
285
0
286
0
288
1
289
3
290
0
340
4C
371
-2
372
-2
  0
DIMSTYLE
105
7D
330
4
100
AcDbSymbolTableRecord
100
AcDbDimStyleTableRecord
  2
EZ_M_50_H25_CM
 70
0
 40
1.0
 41
0.125
 42
0.0625
 43
3.75
 44
0.1875
 45
0.0
 46
0.0
 47
0.0
 48
0.0
 49
2.5
140
0.125
141
2.5
142
0.0625
143
0.03937007874
144
100.0
145
0.0
146
0.5
147
0.05
148
0.0
 69
0
 70
0
 71
0
 72
0
 73
0
 74
0
 75
0
 76
0
 77
1
 78
12
 79
3
170
0
171
3
172
1
173
0
174
0
175
0
176
0
177
0
178
0
179
2
271
2
272
2
273
2
274
3
275
0
276
0
277
2
278
46
279
2
280
0
281
0
282
0
283
0
284
8
285
0
286
0
288
1
289
3
290
0
340
4C
371
-2
372
-2
  0
DIMSTYLE
105
7E
330
4
100
AcDbSymbolTableRecord
100
AcDbDimStyleTableRecord
  2
EZ_M_25_H25_CM
 70
0
 40
1.0
 41
0.0625
 42
0.03125
 43
3.75
 44
0.09375
 45
0.0
 46
0.0
 47
0.0
 48
0.0
 49
2.5
140
0.0625
141
2.5
142
0.03125
143
0.03937007874
144
100.0
145
0.0
146
0.5
147
0.025
148
0.0
 69
0
 70
0
 71
0
 72
0
 73
0
 74
0
 75
0
 76
0
 77
1
 78
12
 79
3
170
0
171
3
172
1
173
0
174
0
175
0
176
0
177
0
178
0
179
2
271
2
272
2
273
2
274
3
275
0
276
0
277
2
278
46
279
2
280
0
281
0
282
0
283
0
284
8
285
0
286
0
288
1
289
3
290
0
340
4C
371
-2
372
-2
  0
DIMSTYLE
105
7F
330
4
100
AcDbSymbolTableRecord
100
AcDbDimStyleTableRecord
  2
EZ_M_20_H25_CM
 70
0
 40
1.0
 41
0.05
 42
0.025
 43
3.75
 44
0.07500000000000001
 45
0.0
 46
0.0
 47
0.0
 48
0.0
 49
2.5
140
0.05
141
2.5
142
0.025
143
0.03937007874
144
100.0
145
0.0
146
0.5
147
0.020000000000000004
148
0.0
 69
0
 70
0
 71
0
 72
0
 73
0
 74
0
 75
0
 76
0
 77
1
 78
12
 79
3
170
0
171
3
172
1
173
0
174
0
175
0
176
0
177
0
178
0
179
2
271
2
272
2
273
2
274
3
275
0
276
0
277
2
278
46
279
2
280
0
281
0
282
0
283
0
284
8
285
0
286
0
288
1
289
3
290
0
340
4C
371
-2
372
-2
  0
DIMSTYLE
105
80
330
4
100
AcDbSymbolTableRecord
100
AcDbDimStyleTableRecord
  2
EZ_M_10_H25_CM
 70
0
 40
1.0
 41
0.025
 42
0.0125
 43
3.75
 44
0.037500000000000006
 45
0.0
 46
0.0
 47
0.0
 48
0.0
 49
2.5
140
0.025
141
2.5
142
0.0125
143
0.03937007874
144
100.0
145
0.0
146
0.5
147
0.010000000000000002
148
0.0
 69
0
 70
0
 71
0
 72
0
 73
0
 74
0
 75
0
 76
0
 77
1
 78
12
 79
3
170
0
171
3
172
1
173
0
174
0
175
0
176
0
177
0
178
0
179
2
271
2
272
2
273
2
274
3
275
0
276
0
277
2
278
46
279
2
280
0
281
0
282
0
283
0
284
8
285
0
286
0
288
1
289
3
290
0
340
4C
371
-2
372
-2
  0
DIMSTYLE
105
81
330
4
100
AcDbSymbolTableRecord
100
AcDbDimStyleTableRecord
  2
EZ_M_5_H25_CM
 70
0
 40
1.0
 41
0.0125
 42
0.00625
 43
3.75
 44
0.018750000000000003
 45
0.0
 46
0.0
 47
0.0
 48
0.0
 49
2.5
140
0.0125
141
2.5
142
0.00625
143
0.03937007874
144
100.0
145
0.0
146
0.5
147
0.005000000000000001
148
0.0
 69
0
 70
0
 71
0
 72
0
 73
0
 74
0
 75
0
 76
0
 77
1
 78
12
 79
3
170
0
171
3
172
1
173
0
174
0
175
0
176
0
177
0
178
0
179
2
271
2
272
2
273
2
274
3
275
0
276
0
277
2
278
46
279
2
280
0
281
0
282
0
283
0
284
8
285
0
286
0
288
1
289
3
290
0
340
4C
371
-2
372
-2
  0
DIMSTYLE
105
82
330
4
100
AcDbSymbolTableRecord
100
AcDbDimStyleTableRecord
  2
EZ_M_1_H25_CM
 70
0
 40
1.0
 41
0.0025
 42
0.00125
 43
3.75
 44
0.00375
 45
0.0
 46
0.0
 47
0.0
 48
0.0
 49
2.5
140
0.0025
141
2.5
142
0.00125
143
0.03937007874
144
100.0
145
0.0
146
0.5
147
0.001
148
0.0
 69
0
 70
0
 71
0
 72
0
 73
0
 74
0
 75
0
 76
0
 77
1
 78
12
 79
3
170
0
171
3
172
1
173
0
174
0
175
0
176
0
177
0
178
0
179
2
271
2
272
2
273
2
274
3
275
0
276
0
277
2
278
46
279
2
280
0
281
0
282
0
283
0
284
8
285
0
286
0
288
1
289
3
290
0
340
4C
371
-2
372
-2
  0
DIMSTYLE
105
83
330
4
100
AcDbSymbolTableRecord
100
AcDbDimStyleTableRecord
  2
EZ_RADIUS
 70
0
 40
1.0
 41
0.25
 42
0.125
 43
3.75
 44
0.375
 45
0.0
 46
0.0
 47
0.0
 48
0.0
 49
2.5
140
0.25
141
0.0
142
0.0
143
0.03937007874
144
100.0
145
0.0
146
0.5
147
0.1
148
0.0
 69
0
 70
0
 71
0
 72
0
 73
0
 74
0
 75
0
 76
0
 77
1
 78
12
 79
3
170
0
171
3
172
0
173
0
174
0
175
0
176
0
177
0
178
0
179
2
271
2
272
2
273
2
274
3
275
0
276
0
277
2
278
46
279
1
280
0
281
0
282
0
283
0
284
8
285
0
286
0
288
1
289
3
290
0
340
4C
342
84
371
-2
372
-2
  0
DIMSTYLE
105
88
330
4
100
AcDbSymbolTableRecord
100
AcDbDimStyleTableRecord
  2
EZ_RADIUS_INSIDE
 70
0
 40
1.0
 41
0.25
 42
0.125
 43
3.75
 44
0.375
 45
0.0
 46
0.0
 47
0.0
 48
0.0
 49
2.5
140
0.25
141
0.0
142
0.0
143
0.03937007874
144
100.0
145
0.0
146
0.5
147
0.1
148
0.0
 69
0
 70
0
 71
0
 72
0
 73
0
 74
0
 75
0
 76
0
 77
0
 78
12
 79
3
170
0
171
3
172
0
173
0
174
1
175
0
176
0
177
0
178
0
179
2
271
2
272
2
273
2
274
3
275
0
276
0
277
2
278
46
279
0
280
0
281
0
282
0
283
0
284
8
285
0
286
0
288
1
289
0
290
0
340
4C
342
84
371
-2
372
-2
  0
DIMSTYLE
105
89
330
4
100
AcDbSymbolTableRecord
100
AcDbDimStyleTableRecord
  2
EZ_CURVED
 70
0
 40
1.0
 41
0.25
 42
0.125
 43
3.75
 44
0.375
 45
0.0
 46
0.0
 47
0.0
 48
0.0
 49
2.5
140
0.25
141
2.5
142
0.0
143
0.03937007874
144
100.0
145
0.0
146
0.5
147
0.1
148
0.0
 69
0
 70
0
 71
0
 72
0
 73
0
 74
0
 75
0
 76
0
 77
1
 78
12
 79
2
 90
2
170
0
171
3
172
1
173
0
174
0
175
0
176
0
177
0
178
0
179
2
271
2
272
2
273
2
274
3
275
0
276
0
277
2
278
46
279
2
280
0
281
0
282
0
283
0
284
8
285
0
286
0
288
1
289
3
290
0
340
4C
371
-2
372
-2
  0
ENDTAB
  0
TABLE
  2
BLOCK_RECORD
  5
9
330
0
100
AcDbSymbolTable
 70
5
  0
BLOCK_RECORD
  5
17
330
9
100
AcDbSymbolTableRecord
100
AcDbBlockTableRecord
  2
*Model_Space
340
1A
 70
0
280
1
281
0
  0
BLOCK_RECORD
  5
1B
330
9
100
AcDbSymbolTableRecord
100
AcDbBlockTableRecord
  2
*Paper_Space
340
1E
 70
0
280
1
281
0
  0
BLOCK_RECORD
  5
74
330
9
100
AcDbSymbolTableRecord
100
AcDbBlockTableRecord
  2
_ARCHTICK
340
0
 70
0
280
1
281
0
  0
BLOCK_RECORD
  5
78
330
9
100
AcDbSymbolTableRecord
100
AcDbBlockTableRecord
  2
_CLOSEDFILLED
340
0
 70
0
280
1
281
0
  0
BLOCK_RECORD
  5
84
330
9
100
AcDbSymbolTableRecord
100
AcDbBlockTableRecord
  2
_CLOSEDBLANK
340
0
 70
0
280
1
281
0
  0
ENDTAB
  0
ENDSEC
  0
SECTION
  2
BLOCKS
  0
BLOCK
  5
18
330
17
100
AcDbEntity
  8
0
100
AcDbBlockBegin
  2
*Model_Space
 70
0
 10
0.0
 20
0.0
 30
0.0
  3
*Model_Space
  1

  0
ENDBLK
  5
19
330
17
100
AcDbEntity
  8
0
100
AcDbBlockEnd
  0
BLOCK
  5
1C
330
1B
100
AcDbEntity
  8
0
100
AcDbBlockBegin
  2
*Paper_Space
 70
0
 10
0.0
 20
0.0
 30
0.0
  3
*Paper_Space
  1

  0
ENDBLK
  5
1D
330
1B
100
AcDbEntity
  8
0
100
AcDbBlockEnd
  0
BLOCK
  5
75
330
74
100
AcDbEntity
  8
0
100
AcDbBlockBegin
  2
_ARCHTICK
 70
0
 10
0.0
 20
0.0
 30
0.0
  3
_ARCHTICK
  1

  0
LWPOLYLINE
  5
77
330
74
100
AcDbEntity
  8
0
  6
BYBLOCK
 62
0
100
AcDbPolyline
 90
2
 70
0
 43
0.15
 10
-0.5
 20
-0.5
 10
0.5
 20
0.5
  0
ENDBLK
  5
76
330
74
100
AcDbEntity
  8
0
100
AcDbBlockEnd
  0
BLOCK
  5
79
330
78
100
AcDbEntity
  8
0
100
AcDbBlockBegin
  2
_CLOSEDFILLED
 70
0
 10
0.0
 20
0.0
 30
0.0
  3
_CLOSEDFILLED
  1

  0
SOLID
  5
7B
330
78
100
AcDbEntity
  8
0
  6
BYBLOCK
 62
0
100
AcDbTrace
 10
-1.0
 20
0.16439898372402537
 30
0.0
 11
0.0
 21
0.0
 31
0.0
 12
-1.0
 22
-0.16439898372402537
 32
0.0
 13
-1.0
 23
-0.16439898372402537
 33
0.0
  0
ENDBLK
  5
7A
330
78
100
AcDbEntity
  8
0
100
AcDbBlockEnd
  0
BLOCK
  5
85
330
84
100
AcDbEntity
  8
0
100
AcDbBlockBegin
  2
_CLOSEDBLANK
 70
0
 10
0.0
 20
0.0
 30
0.0
  3
_CLOSEDBLANK
  1

  0
LWPOLYLINE
  5
87
330
84
100
AcDbEntity
  8
0
  6
BYBLOCK
 62
0
100
AcDbPolyline
 90
3
 70
1
 10
-1.0
 20
0.16439898372402537
 10
0.0
 20
0.0
 10
-1.0
 20
-0.16439898372402537
  0
ENDBLK
  5
86
330
84
100
AcDbEntity
  8
0
100
AcDbBlockEnd
  0
ENDSEC
  0
SECTION
  2
ENTITIES
  0
LWPOLYLINE
  5
8C
330
17
100
AcDbEntity
  8
Layer
100
AcDbPolyline
 90
139
 70
1
 10
559.9999999851052
 20
266.1971473639171
 10
557.394359907251
 20
266.5844032059284
 10
545.4681978257199
 20
268.25359771516344
 10
533.5511452562649
 20
269.8114922948374
 10
521.6434284103191
 20
271.2511885772608
 10
509.7428910481769
 20
272.572190624646
 10
497.8491852373603
 20
273.7783800986832
 10
485.96629945196213
 20
274.87707930537147
 10
474.1062191931572
 20
275.87508105892505
 10
462.28599327608345
 20
276.7713851413235
 10
450.5144111261094
 20
277.55531524452704
 10
438.7860789143336
 20
278.2190685704834
 10
427.0930076622634
 20
278.7680781378383
 10
415.43876250788503
 20
279.2161901377343
 10
403.83899282977376
 20
279.5740891128608
 10
392.3138247830363
 20
279.84350727589083
 10
380.8816767808837
 20
280.01606786350544
 10
369.5485057118794
 20
280.0757643809511
 10
358.30206322136183
 20
280.0107702641867
 10
347.1235216404427
 20
279.8296680792292
 10
336.0150724754473
 20
279.5587862979097
 10
325.0078624266205
 20
279.21739505172496
 10
314.1377536779016
 20
278.79687849160763
 10
303.4160376680886
 20
278.2700448981623
 10
292.82624367837036
 20
277.6167907797304
 10
282.34315690050204
 20
276.8393835487332
 10
271.9541528899991
 20
275.96199538433984
 10
261.67656438972756
 20
275.0167641058733
 10
251.5552769640998
 20
274.01668655104663
 10
241.62847367412422
 20
272.93768826124096
 10
231.88830964756065
 20
271.73735190043055
 10
222.2875631192214
 20
270.4013366086539
 10
212.79520022759658
 20
268.96473402148183
 10
203.43617357703116
 20
267.4765350861178
 10
194.2673306403838
 20
265.94870385403186
 10
185.32031414058667
 20
264.34988656850146
 10
176.58113448817727
 20
262.6453448442918
 10
168.0180122242926
 20
260.82896335986726
 10
159.61483397319688
 20
258.92090009811284
 10
151.3779812532788
 20
256.9462015725946
 10
143.32858629200416
 20
254.92059298888995
 10
135.48946095210823
 20
252.8461585233222
 10
127.87585670969196
 20
250.71347416388707
 10
120.48797360528948
 20
248.50838063844927
 10
113.31444074219189
 20
246.2237265031405
 10
106.34277964384484
 20
243.8645653377751
 10
99.57007249071637
 20
241.4460203118325
 10
93.00593913359972
 20
238.98287229961247
 10
86.66375805012058
 20
236.4812897315201
 10
80.54968800408528
 20
233.93914049728923
 10
74.6618592865081
 20
231.35620915345623
 10
69.00106412279672
 20
228.7410942548397
 10
63.577924114659936
 20
226.10387401639878
 10
58.40363786581105
 20
223.44449424118585
 10
53.47821216818414
 20
220.75687789676803
 10
48.79515209617375
 20
218.04189619752825
 10
44.35387826133086
 20
215.30950958387592
 10
40.161340003190276
 20
212.56995481608172
 10
36.22431052632612
 20
209.8273759379725
 10
32.54826495661939
 20
207.08519604409693
 10
29.137976698838656
 20
204.34425792596966
 10
25.98893511568366
 20
201.59795067366088
 10
23.08443837919407
 20
198.8439884691883
 10
20.414950119682373
 20
196.1061641324815
 10
18.00217424904349
 20
193.4279921900146
 10
15.884810736922475
 20
190.82903107361543
 10
14.07878808482451
 20
188.28261472053663
 10
12.564777179754174
 20
185.74911256694404
 10
11.315215974616194
 20
183.22558019463736
 10
10.320075080873039
 20
180.7455760730257
 10
9.585253034406094
 20
178.33528178313733
 10
9.115038709094335
 20
175.99702563180526
 10
8.903791979847085
 20
173.59481313988053
 10
8.956812848720745
 20
171.57626092518205
 10
9.27741864734827
 20
169.52402597508484
 10
9.896785521119796
 20
167.54592344961992
 10
10.844003744113877
 20
165.59602577720025
 10
12.12044583831829
 20
163.65781438646877
 10
13.70526032771221
 20
161.74797106712592
 10
15.594205498059637
 20
159.88996723658502
 10
17.811439525639344
 20
158.09177126526242
 10
20.379899913645147
 20
156.34695681708604
 10
23.29702203986011
 20
154.64968532265837
 10
26.550849460689506
 20
153.00476735691285
 10
30.144677755341093
 20
151.4200703167174
 10
34.092495232833244
 20
149.89379776730092
 10
38.39737795146357
 20
148.41495186356528
 10
43.04810091952248
 20
146.9745194997692
 10
48.031446896509465
 20
145.570979515904
 10
53.33873313513817
 20
144.2066900700783
 10
58.96385195621991
 20
142.88457240237196
 10
64.90337760894334
 20
141.60818675132776
 10
71.15774505833178
 20
140.37897292237457
 10
77.72445637103573
 20
139.19409698139222
 10
84.59398747536369
 20
138.0526723706467
 10
91.75890805279022
 20
136.9603211908178
 10
99.22268512978707
 20
135.92312071113767
 10
106.9903702917922
 20
134.9383427617349
 10
115.05770759027217
 20
133.99900937185396
 10
123.41510399022275
 20
133.10361488938253
 10
132.0597335129554
 20
132.2547655694013
 10
140.99242519787776
 20
131.45054829589756
 10
150.20840681301866
 20
130.68437464602033
 10
159.69719108986686
 20
129.9527665752234
 10
169.4515780518542
 20
129.256970233581
 10
179.4675519558781
 20
128.59626551695374
 10
189.73818094482004
 20
127.9674751449099
 10
200.25444866079988
 20
127.37008606019981
 10
211.01017915154907
 20
126.8050580147973
 10
222.00102241594658
 20
126.27114124991257
 10
224.75036748728365
 20
126.14712090408436
 10
224.70530425938466
 20
125.14813676732777
 10
233.1774021295896
 20
124.76596591398591
 10
244.61635595627578
 20
124.28663404822338
 10
256.26487551510104
 20
123.83479051362012
 10
268.1158267914127
 20
123.40946657100324
 10
280.15897080400936
 20
123.01000022454636
 10
292.3844359550435
 20
122.6395661520997
 10
304.78666151521617
 20
122.3023875835143
 10
317.3627668548387
 20
121.99975939373873
 10
330.1079333980752
 20
121.72989813313404
 10
343.015856962202
 20
121.49277219293404
 10
356.08340514788057
 20
121.28870363530942
 10
369.3102258005807
 20
121.1138707754751
 10
382.6931170568669
 20
120.95823759490861
 10
396.22080566809956
 20
120.80885981910102
 10
409.8724357331302
 20
120.65736797353412
 10
423.6247658049382
 20
120.50811828747547
 10
437.46685704547775
 20
120.3758322435544
 10
451.4049708617158
 20
120.26896377655352
 10
465.445888491962
 20
120.17507660276023
 10
479.5747128796655
 20
120.07272736000635
 10
493.75963659972126
 20
119.9574371295508
 10
507.97995340240584
 20
119.84632123930585
 10
522.2383646581724
 20
119.7531333822676
 10
536.5383531255181
 20
119.67159359330454
 10
550.8654394486657
 20
119.59136559837944
 10
560.0000000073035
 20
119.54505890334065
 10
559.9999999851052
 20
266.1971473639171
  0
LWPOLYLINE
  5
8D
330
17
100
AcDbEntity
  8
NumLabel
 62
1
100
AcDbPolyline
 90
2
 70
0
 10
320.50000000000006
 20
155.0
 10
320.50000000000006
 20
145.0
  0
LWPOLYLINE
  5
8E
330
17
100
AcDbEntity
  8
NumLabel
 62
1
100
AcDbPolyline
 90
6
 70
0
 10
325.50000000000006
 20
155.0
 10
330.50000000000006
 20
155.0
 10
330.50000000000006
 20
150.0
 10
325.50000000000006
 20
150.0
 10
325.50000000000006
 20
145.0
 10
330.50000000000006
 20
145.0
  0
LWPOLYLINE
  5
8F
330
17
100
AcDbEntity
  8
Layer
100
AcDbPolyline
 90
5
 70
1
 10
314.2259621409382
 20
274.79638563128384
 10
310.230784463543
 20
274.6000305293816
 10
310.0344293616408
 20
278.5952082067768
 10
314.02960703903597
 20
278.79156330867903
 10
314.2259621409382
 20
274.79638563128384
  0
LWPOLYLINE
  5
90
330
17
100
AcDbEntity
  8
Layer
100
AcDbPolyline
 90
5
 70
1
 10
126.13689674539725
 20
246.01996416791516
 10
122.30402304263268
 20
244.87581418707535
 10
121.15987306179287
 20
248.70868788983992
 10
124.99274676455744
 20
249.85283787067974
 10
126.13689674539725
 20
246.01996416791516
  0
LWPOLYLINE
  5
91
330
17
100
AcDbEntity
  8
Layer
100
AcDbPolyline
 90
5
 70
1
 10
30.906490948919952
 20
199.25143380460685
 10
29.39958811853556
 20
197.9364266336076
 10
26.11207019103739
 20
201.70368370956857
 10
27.61897302142178
 20
203.01869088056782
 10
30.906490948919952
 20
199.25143380460685
  0
LWPOLYLINE
  5
92
330
17
100
AcDbEntity
  8
Layer
100
AcDbPolyline
 90
5
 70
1
 10
20.138172675222307
 20
162.55493662575734
 10
21.79385069058904
 20
161.4330051174061
 10
18.98902191971095
 20
157.2938100789893
 10
17.33334390434422
 20
158.41574158734053
 10
20.138172675222307
 20
162.55493662575734
  0
LWPOLYLINE
  5
93
330
17
100
AcDbEntity
  8
Layer
100
AcDbPolyline
 90
5
 70
1
 10
168.13352435854281
 20
133.3526064847148
 10
172.12485030627667
 20
133.08932492640454
 10
171.8615687479664
 20
129.0979989786707
 10
167.87024280023255
 20
129.36128053698096
 10
168.13352435854281
 20
133.3526064847148
  0
LWPOLYLINE
  5
94
330
17
100
AcDbEntity
  8
Layer
100
AcDbPolyline
 90
300
 70
1
 10
492.44200899798005
 20
200.0
 10
492.4277811094516
 20
201.43692460855323
 10
492.38510372650126
 20
202.87321471165038
 10
492.31399569426
 20
204.30823608401516
 10
492.214488412033
 20
205.74135506060705
 10
492.08662581943486
 20
207.17193881642993
 10
491.930464376987
 20
208.59935564596978
 10
491.7460730411863
 20
210.0229752421381
 10
491.5335332340558
 20
211.44216897459776
 10
491.29293880719115
 20
212.85631016734845
 10
491.0243960003182
 20
214.26477437544915
 10
490.72802339438067
 20
215.66693966075545
 10
490.40395185917805
 20
217.0621868665499
 10
490.0523244955774
 20
218.44989989094424
 10
489.67329657232375
 20
219.82946595893262
 10
489.26703545747796
 20
221.20027589297578
 10
488.8337205445115
 20
222.56172438199673
 10
488.3735431730918
 20
223.9132102486691
 10
487.88670654459145
 20
225.25413671487993
 10
487.3734256323606
 20
226.58391166525047
 10
486.8339270868006
 20
227.9019479085973
 10
486.2684491352818
 20
229.2076634372196
 10
485.6772414769486
 20
230.50048168389728
 10
485.0605651724598
 20
231.77983177648696
 10
484.41869252871135
 20
233.04514879000294
 10
483.7519069785932
 20
234.29587399607215
 10
483.06050295583356
 20
235.53145510965294
 10
482.3447857649851
 20
236.75134653290863
 10
481.6050714466109
 20
237.95500959612798
 10
480.8416866377303
 20
239.14191279558685
 10
480.0549684275846
 20
240.31153202824498
 10
479.2452642087885
 20
241.4633508231754
 10
478.41293152393087
 20
242.59686056962326
 10
477.5583379076942
 20
243.71156074159413
 10
476.68186072456166
 20
244.8069591188722
 10
475.78388700218346
 20
245.88257200437073
 10
474.8648132604764
 20
246.9379244377193
 10
473.9250453365319
 20
247.97255040499263
 10
472.96499820540953
 20
248.98599304448953
 10
471.9850957968961
 20
249.97780484847
 10
470.98577080830967
 20
250.94754786076203
 10
469.96746451343313
 20
251.89479387015072
 10
468.93062656765983
 20
252.81912459946443
 10
467.8757148094384
 20
253.7201318902741
 10
466.80319505810434
 20
254.59741788312442
 10
465.71354090818716
 20
255.45059519321762
 10
464.6072335202844
 20
256.27928708147147
 10
463.48476140859475
 20
257.0831276208767
 10
462.34662022520394
 20
257.86176185808023
 10
461.19331254121846
 20
258.6148459701223
 10
460.02534762484464
 20
259.3420474162592
 10
458.8432412165101
 20
260.0430450848039
 10
457.64751530112693
 20
260.7175294349199
 10
456.43869787759843
 20
261.36520263330567
 10
455.21732272566925
 20
261.9857786857095
 10
453.9839291702233
 20
262.5789835632166
 10
452.73906184313324
 20
263.14455532325246
 10
451.48327044276624
 20
263.6822442252494
 10
450.2171094912528
 20
264.19181284092485
 10
448.94113808962516
 20
264.67303615912294
 10
447.6559196709343
 20
265.1257016851735
 10
446.36202175145337
 20
265.54960953472323
 10
445.06001568007906
 20
265.94457252199925
 10
443.7504763860395
 20
266.31041624246495
 10
442.4339821250218
 20
266.64697914983253
 10
441.11111422383095
 20
266.9541126273965
 10
439.7824568236918
 20
267.2316810536594
 10
438.44859662230897
 20
267.47956186221813
 10
437.1101226147977
 20
267.69764559588566
 10
435.76762583360016
 20
267.88583595502456
 10
434.42169908750213
 20
268.04404984007004
 10
433.07293669986524
 20
268.1722173882243
 10
431.7219342461907
 20
268.2702820043062
 10
430.36928829112975
 20
268.33820038574186
 10
429.01559612505764
 20
268.375942541686
 10
427.6614555003269
 20
268.3834918062651
 10
426.3074643673168
 20
268.36084484593647
 10
424.9542206103953
 20
268.3080116609602
 10
423.60232178391
 20
268.2250155809834
 10
422.25236484832527
 20
268.1118932547387
 10
420.904945906621
 20
267.96869463386065
 10
419.5606599410704
 20
267.7954829508292
 10
418.2201005505127
 20
267.5923346910474
 10
416.8838596882365
 20
267.35933955906796
 10
415.55252740058984
 20
267.096600438982
 10
414.22669156643246
 20
266.8042333489886
 10
412.9069376375449
 20
266.4823673901642
 10
411.5938483801095
 20
266.13114468945537
 10
410.28800361737746
 20
265.7507203369193
 10
408.9899799736349
 20
265.3412623172409
 10
407.7003506195821
 20
264.9029514355547
 10
406.41968501923725
 20
264.4359812376073
 10
405.1485486784772
 20
263.9405579242922
 10
403.8875028953262
 20
263.41690026059797
 10
402.63710451210204
 20
262.86523947900724
 10
401.3979056695307
 20
262.2858191773913
 10
400.17045356293625
 20
261.678895211444
 10
398.9552902006146
 20
261.0447355817031
 10
397.7529521644985
 20
260.3836203152088
 10
396.56397037321733
 20
259.6958413418516
 10
395.388869847659
 20
258.9817023654643
 10
394.2281694791352
 20
258.24151872971515
 10
393.0823818002536
 20
257.4756172788606
 10
391.95201275859785
 20
256.6843362134204
 10
390.8375614933157
 20
255.86802494083756
 10
389.7395201147127
 20
255.02704392118991
 10
388.65837348695067
 20
254.16176450802118
 10
387.59459901394473
 20
253.27256878436162
 10
386.5486664285558
 20
252.3598493940109
 10
385.5210375851694
 20
251.4240093681577
 10
384.51216625575375
 20
250.4654619474125
 10
383.52249792948703
 20
249.48463039933205
 10
382.5524696160419
 20
248.48194783151644
 10
381.6025096526141
 20
247.457857000361
 10
380.6730375147811
 20
246.4128101155474
 10
379.7644636312731
 20
245.34726864036068
 10
378.8771892027398
 20
244.2617030879201
 10
378.01160602459106
 20
243.15659281341374
 10
377.1680963139911
 20
242.0324258024286
 10
376.3470325410824
 20
240.8896984554702
 10
375.54877726451315
 20
239.72891536876585
 10
374.7736829713417
 20
238.55058911144928
 10
374.0220919213881
 20
237.35523999922447
 10
373.29433599610195
 20
236.14339586460895
 10
372.5907365520126
 20
234.9155918238577
 10
371.91160427882744
 20
233.67237004067113
 10
371.25723906223993
 20
232.41427948679046
 10
370.6279298515086
 20
231.14187569958764
 10
370.02395453186523
 20
229.85572053675546
 10
369.44557980180826
 20
228.5563819282071
 10
368.8930610553366
 20
227.24443362529416
 10
368.3666422691747
 20
225.92045494745446
 10
367.86655589503914
 20
224.58503052640054
 10
367.39302275699475
 20
223.238750047963
 10
366.9462519539449
 20
221.88220799170182
 10
366.526440767299
 20
220.5160033684008
 10
366.13377457385894
 20
219.14073945556135
 10
365.7684267639617
 20
217.75702353101212
 10
365.4305586649152
 20
216.3654666047522
 10
365.1203194697607
 20
214.96668314914635
 10
364.83784617139304
 20
213.56129082759116
 10
364.58326350206886
 20
212.14991022177242
 10
364.3566838783282
 20
210.73316455763367
 10
364.1582073513544
 20
209.31167943017718
 10
363.9879215627944
 20
207.8860825272188
 10
363.8459017060587
 20
206.4570033522187
 10
363.7322104931181
 20
205.0250729463103
 10
363.64689812681155
 20
203.59092360965042
 10
363.59000227867847
 20
202.1551886222131
 10
363.56154807232366
 20
200.71850196415127
 10
363.56154807232366
 20
199.28149803584873
 10
363.59000227867847
 20
197.8448113777869
 10
363.64689812681155
 20
196.4090763903496
 10
363.7322104931181
 20
194.9749270536897
 10
363.8459017060587
 20
193.5429966477813
 10
363.9879215627944
 20
192.11391747278122
 10
364.1582073513544
 20
190.68832056982285
 10
364.3566838783282
 20
189.26683544236636
 10
364.58326350206886
 20
187.85008977822758
 10
364.83784617139304
 20
186.43870917240884
 10
365.1203194697607
 20
185.03331685085365
 10
365.4305586649152
 20
183.6345333952478
 10
365.7684267639617
 20
182.2429764689879
 10
366.13377457385894
 20
180.85926054443868
 10
366.526440767299
 20
179.48399663159924
 10
366.9462519539449
 20
178.11779200829818
 10
367.39302275699475
 20
176.761249952037
 10
367.86655589503914
 20
175.41496947359946
 10
368.3666422691747
 20
174.07954505254554
 10
368.8930610553366
 20
172.7555663747058
 10
369.44557980180826
 20
171.44361807179294
 10
370.02395453186523
 20
170.14427946324457
 10
370.6279298515086
 20
168.85812430041238
 10
371.25723906223993
 20
167.58572051320957
 10
371.9116042788274
 20
166.32762995932887
 10
372.5907365520126
 20
165.08440817614226
 10
373.29433599610195
 20
163.85660413539105
 10
374.0220919213881
 20
162.64476000077553
 10
374.77368297134166
 20
161.44941088855072
 10
375.5487772645131
 20
160.27108463123415
 10
376.3470325410824
 20
159.11030154452982
 10
377.1680963139911
 20
157.96757419757142
 10
378.01160602459106
 20
156.8434071865863
 10
378.8771892027398
 20
155.73829691207987
 10
379.76446363127314
 20
154.65273135963932
 10
380.6730375147811
 20
153.58718988445264
 10
381.6025096526141
 20
152.54214299963903
 10
382.5524696160419
 20
151.51805216848356
 10
383.52249792948703
 20
150.51536960066795
 10
384.5121662557537
 20
149.5345380525875
 10
385.5210375851694
 20
148.57599063184227
 10
386.5486664285558
 20
147.6401506059891
 10
387.59459901394473
 20
146.72743121563838
 10
388.65837348695067
 20
145.83823549197882
 10
389.7395201147127
 20
144.9729560788101
 10
390.83756149331566
 20
144.13197505916247
 10
391.95201275859785
 20
143.3156637865796
 10
393.0823818002536
 20
142.52438272113938
 10
394.2281694791352
 20
141.75848127028485
 10
395.388869847659
 20
141.01829763453568
 10
396.56397037321733
 20
140.30415865814842
 10
397.7529521644985
 20
139.61637968479118
 10
398.9552902006146
 20
138.95526441829688
 10
400.17045356293625
 20
138.321104788556
 10
401.3979056695307
 20
137.71418082260874
 10
402.63710451210204
 20
137.13476052099278
 10
403.8875028953262
 20
136.58309973940206
 10
405.1485486784772
 20
136.0594420757078
 10
406.41968501923725
 20
135.56401876239275
 10
407.7003506195821
 20
135.09704856444532
 10
408.9899799736349
 20
134.65873768275915
 10
410.28800361737746
 20
134.2492796630807
 10
411.5938483801095
 20
133.86885531054466
 10
412.9069376375449
 20
133.5176326098358
 10
414.22669156643246
 20
133.1957666510114
 10
415.5525274005899
 20
132.903399561018
 10
416.8838596882365
 20
132.64066044093204
 10
418.2201005505127
 20
132.40766530895257
 10
419.5606599410704
 20
132.2045170491708
 10
420.9049459066209
 20
132.03130536613935
 10
422.2523648483252
 20
131.88810674526138
 10
423.60232178391
 20
131.77498441901662
 10
424.9542206103952
 20
131.69198833903982
 10
426.3074643673168
 20
131.63915515406353
 10
427.6614555003269
 20
131.6165081937349
 10
429.01559612505764
 20
131.62405745831398
 10
430.36928829112975
 20
131.66179961425817
 10
431.7219342461907
 20
131.72971799569382
 10
433.07293669986524
 20
131.82778261177572
 10
434.42169908750213
 20
131.95595015992996
 10
435.76762583360016
 20
132.11416404497544
 10
437.1101226147977
 20
132.30235440411434
 10
438.44859662230897
 20
132.5204381377819
 10
439.7824568236918
 20
132.7683189463406
 10
441.11111422383095
 20
133.04588737260352
 10
442.4339821250218
 20
133.3530208501675
 10
443.75047638603945
 20
133.689583757535
 10
445.06001568007906
 20
134.05542747800078
 10
446.36202175145337
 20
134.45039046527677
 10
447.6559196709342
 20
134.8742983148265
 10
448.94113808962516
 20
135.32696384087703
 10
450.2171094912528
 20
135.80818715907517
 10
451.48327044276624
 20
136.3177557747506
 10
452.73906184313324
 20
136.8554446767475
 10
453.9839291702233
 20
137.42101643678342
 10
455.21732272566925
 20
138.01422131429052
 10
456.4386978775985
 20
138.63479736669436
 10
457.64751530112693
 20
139.28247056508008
 10
458.8432412165101
 20
139.95695491519606
 10
460.02534762484464
 20
140.65795258374075
 10
461.1933125412184
 20
141.3851540298777
 10
462.3466202252039
 20
142.13823814191974
 10
463.48476140859475
 20
142.91687237912328
 10
464.6072335202844
 20
143.72071291852853
 10
465.71354090818716
 20
144.54940480678238
 10
466.80319505810434
 20
145.40258211687558
 10
467.8757148094384
 20
146.2798681097259
 10
468.93062656765983
 20
147.18087540053557
 10
469.96746451343313
 20
148.10520612984928
 10
470.98577080830967
 20
149.05245213923797
 10
471.9850957968961
 20
150.02219515153
 10
472.9649982054096
 20
151.01400695551047
 10
473.9250453365319
 20
152.0274495950074
 10
474.8648132604764
 20
153.06207556228074
 10
475.7838870021834
 20
154.1174279956292
 10
476.6818607245616
 20
155.19304088112779
 10
477.5583379076942
 20
156.28843925840584
 10
478.41293152393087
 20
157.4031394303767
 10
479.2452642087885
 20
158.5366491768246
 10
480.0549684275846
 20
159.68846797175502
 10
480.8416866377303
 20
160.85808720441315
 10
481.6050714466109
 20
162.04499040387202
 10
482.3447857649851
 20
163.24865346709137
 10
483.06050295583356
 20
164.46854489034706
 10
483.7519069785932
 20
165.70412600392785
 10
484.41869252871135
 20
166.95485120999706
 10
485.0605651724598
 20
168.22016822351304
 10
485.6772414769486
 20
169.49951831610275
 10
486.2684491352818
 20
170.79233656278043
 10
486.8339270868006
 20
172.09805209140268
 10
487.3734256323606
 20
173.4160883347495
 10
487.88670654459145
 20
174.74586328512004
 10
488.3735431730918
 20
176.0867897513309
 10
488.8337205445115
 20
177.43827561800325
 10
489.26703545747796
 20
178.7997241070242
 10
489.67329657232375
 20
180.17053404106738
 10
490.0523244955774
 20
181.55010010905576
 10
490.40395185917805
 20
182.9378131334501
 10
490.72802339438067
 20
184.33306033924455
 10
491.0243960003182
 20
185.73522562455085
 10
491.29293880719115
 20
187.14368983265155
 10
491.5335332340558
 20
188.55783102540224
 10
491.7460730411863
 20
189.97702475786193
 10
491.930464376987
 20
191.40064435403025
 10
492.08662581943486
 20
192.82806118357004
 10
492.21448841203295
 20
194.25864493939292
 10
492.31399569426
 20
195.6917639159848
 10
492.38510372650126
 20
197.1267852883496
 10
492.4277811094516
 20
198.56307539144677
 10
492.44200899798005
 20
199.99999999999997
  0
LWPOLYLINE
  5
95
330
17
100
AcDbEntity
  8
Layer
100
AcDbPolyline
 90
5
 70
1
 10
188.08893949476885
 20
205.00000000000003
 10
193.08893949476885
 20
200.00000000000003
 10
188.08893949476885
 20
195.00000000000003
 10
183.08893949476885
 20
200.00000000000003
 10
188.08893949476885
 20
205.00000000000003
  0
LWPOLYLINE
  5
96
330
17
100
AcDbEntity
  8
Layer
100
AcDbPolyline
 90
5
 70
1
 10
424.01689062406354
 20
205.0
 10
429.01689062406354
 20
200.0
 10
424.01689062406354
 20
195.0
 10
419.01689062406354
 20
200.0
 10
424.01689062406354
 20
205.0
  0
LWPOLYLINE
  5
97
330
17
100
AcDbEntity
  8
Layer
100
AcDbPolyline
 90
5
 70
1
 10
223.79092899384835
 20
165.53669544475784
 10
228.4559909382124
 20
160.22282707461108
 10
223.14212256806564
 20
155.55776513024702
 10
218.4770606237016
 20
160.87163350039378
 10
223.79092899384835
 20
165.53669544475784
  0
LWPOLYLINE
  5
98
330
17
100
AcDbEntity
  8
Layer
100
AcDbPolyline
 90
5
 70
1
 10
483.78779343921894
 20
148.63231481287664
 10
488.452855383583
 20
143.31844644272988
 10
483.13898701343624
 20
138.65338449836582
 10
478.47392506907215
 20
143.9672528685126
 10
483.78779343921894
 20
148.63231481287664
  0
LWPOLYLINE
  5
99
330
17
100
AcDbEntity
  8
Layer
100
AcDbPolyline
 90
5
 70
1
 10
273.0
 20
178.71845408459242
 10
278.0
 20
183.71845408459242
 10
283.0
 20
178.71845408459242
 10
278.0
 20
173.71845408459242
 10
273.0
 20
178.71845408459242
  0
LWPOLYLINE
  5
9A
330
17
100
AcDbEntity
  8
Layer
100
AcDbPolyline
 90
5
 70
1
 10
273.0
 20
220.83574692598773
 10
278.0
 20
225.83574692598773
 10
283.0
 20
220.83574692598773
 10
278.0
 20
215.83574692598773
 10
273.0
 20
220.83574692598773
  0
LINE
  5
9B
330
17
100
AcDbEntity
  8
Layer
 62
7
100
AcDbLine
 10
24.30363874190573
 20
200.00000000000006
 30
0.0
 11
560.0
 21
199.99999999999997
 31
0.0
  0
LINE
  5
9C
330
17
100
AcDbEntity
  8
Layer
 62
7
100
AcDbLine
 10
182.08893949476885
 20
200.00000000000003
 30
0.0
 11
194.08893949476885
 21
200.00000000000003
 31
0.0
  0
LINE
  5
9D
330
17
100
AcDbEntity
  8
Layer
 62
7
100
AcDbLine
 10
418.01689062406354
 20
200.0
 30
0.0
 11
430.01689062406354
 21
200.0
 31
0.0
  0
LINE
  5
9E
330
17
100
AcDbEntity
  8
Layer
 62
7
100
AcDbLine
 10
8.982729520228531
 20
174.49245896976612
 30
0.0
 11
560.0
 21
138.666620474366
 31
0.0
  0
LINE
  5
9F
330
17
100
AcDbEntity
  8
Layer
 62
7
100
AcDbLine
 10
217.47916759225052
 20
160.93651414297204
 30
0.0
 11
229.45388396966348
 21
160.15794643203282
 31
0.0
  0
LINE
  5
A0
330
17
100
AcDbEntity
  8
Layer
 62
7
100
AcDbLine
 10
477.4760320376211
 20
144.03213351109085
 30
0.0
 11
489.45074841503407
 21
143.25356580015162
 31
0.0
  0
LINE
  5
A1
330
17
100
AcDbEntity
  8
Layer
100
AcDbLine
 10
428.0
 20
268.38443548387096
 30
0.0
 11
428.0
 21
269.38443548387096
 31
0.0
  0
LINE
  5
A2
330
17
100
AcDbEntity
  8
Layer
100
AcDbLine
 10
428.0
 20
131.61556451612904
 30
0.0
 11
428.0
 21
130.61556451612904
 31
0.0
  0
LINE
  5
A3
330
17
100
AcDbEntity
  8
Layer
100
AcDbLine
 10
492.44200899798005
 20
200.0
 30
0.0
 11
493.44200899798005
 21
200.0
 31
0.0
  0
LINE
  5
A4
330
17
100
AcDbEntity
  8
Layer
100
AcDbLine
 10
363.55799100201995
 20
200.0
 30
0.0
 11
362.55799100201995
 21
200.0
 31
0.0
  0
LINE
  5
A5
330
17
100
AcDbEntity
  8
Layer
 62
7
100
AcDbLine
 10
278.0
 20
123.08161243629793
 30
0.0
 11
278.0
 21
276.4725885742822
 31
0.0
  0
LINE
  5
A6
330
17
100
AcDbEntity
  8
Layer
 62
7
100
AcDbLine
 10
278.0
 20
172.71845408459242
 30
0.0
 11
278.0
 21
184.71845408459242
 31
0.0
  0
LINE
  5
A7
330
17
100
AcDbEntity
  8
Layer
 62
7
100
AcDbLine
 10
278.0
 20
214.83574692598773
 30
0.0
 11
278.0
 21
226.83574692598773
 31
0.0
  0
ENDSEC
  0
SECTION
  2
OBJECTS
  0
DICTIONARY
  5
A
330
0
100
AcDbDictionary
280
0
281
1
  3
ACAD_COLOR
350
B
  3
ACAD_GROUP
350
C
  3
ACAD_LAYOUT
350
D
  3
ACAD_MATERIAL
350
E
  3
ACAD_MLEADERSTYLE
350
F
  3
ACAD_MLINESTYLE
350
10
  3
ACAD_PLOTSETTINGS
350
11
  3
ACAD_PLOTSTYLENAME
350
12
  3
ACAD_SCALELIST
350
14
  3
ACAD_TABLESTYLE
350
15
  3
ACAD_VISUALSTYLE
350
16
  3
EZDXF_META
350
2D
  0
DICTIONARY
  5
B
330
A
100
AcDbDictionary
280
0
281
1
  0
DICTIONARY
  5
C
330
A
100
AcDbDictionary
280
0
281
1
  0
DICTIONARY
  5
D
330
A
100
AcDbDictionary
280
0
281
1
  3
Model
350
1A
  3
Layout1
350
1E
  0
DICTIONARY
  5
E
330
A
100
AcDbDictionary
280
0
281
1
  3
ByBlock
350
1F
  3
ByLayer
350
20
  3
Global
350
21
  0
DICTIONARY
  5
F
330
A
100
AcDbDictionary
280
0
281
1
  3
Standard
350
2C
  0
DICTIONARY
  5
10
330
A
100
AcDbDictionary
280
0
281
1
  3
Standard
350
22
  0
DICTIONARY
  5
11
330
A
100
AcDbDictionary
280
0
281
1
  0
ACDBDICTIONARYWDFLT
  5
12
330
A
100
AcDbDictionary
280
0
281
1
  3
Normal
350
13
100
AcDbDictionaryWithDefault
340
13
  0
ACDBPLACEHOLDER
  5
13
330
12
  0
DICTIONARY
  5
14
330
A
100
AcDbDictionary
280
0
281
1
  0
DICTIONARY
  5
15
330
A
100
AcDbDictionary
280
0
281
1
  0
DICTIONARY
  5
16
330
A
100
AcDbDictionary
280
0
281
1
  3
2dWireframe
350
5A
  3
Basic
350
5B
  3
Brighten
350
5C
  3
ColorChange
350
5D
  3
Conceptual
350
5E
  3
Dim
350
5F
  3
EdgeColorOff
350
60
  3
Facepattern
350
61
  3
Flat
350
62
  3
FlatWithEdges
350
63
  3
Gouraud
350
64
  3
GouraudWithEdges
350
65
  3
Hidden
350
66
  3
JitterOff
350
67
  3
Linepattern
350
68
  3
Modeling
350
69
  3
OverhangOff
350
6A
  3
Realistic
350
6B
  3
Shaded
350
6C
  3
Shaded with edges
350
6D
  3
Shades of Gray
350
6E
  3
Sketchy
350
6F
  3
Thicken
350
70
  3
Wireframe
350
71
  3
X-Ray
350
72
  0
LAYOUT
  5
1A
330
D
100
AcDbPlotSettings
  1

  2
Adobe PDF
  4
A3
  6

 40
7.5
 41
20.0
 42
7.5
 43
20.0
 44
420.0
 45
297.0
 46
0.0
 47
0.0
 48
0.0
 49
0.0
140
0.0
141
0.0
142
1.0
143
1.0
 70
1024
 72
1
 73
0
 74
5
  7

 75
16
 76
0
 77
2
 78
300
147
1.0
148
0.0
149
0.0
100
AcDbLayout
  1
Model
 70
1
 71
0
 10
0.0
 20
0.0
 11
420.0
 21
297.0
 12
0.0
 22
0.0
 32
0.0
 14
1e+20
 24
1e+20
 34
1e+20
 15
-1e+20
 25
-1e+20
 35
-1e+20
146
0.0
 13
0.0
 23
0.0
 33
0.0
 16
1.0
 26
0.0
 36
0.0
 17
0.0
 27
1.0
 37
0.0
 76
1
330
17
  0
LAYOUT
  5
1E
330
D
100
AcDbPlotSettings
  1

  2
Adobe PDF
  4
A3
  6

 40
7.5
 41
20.0
 42
7.5
 43
20.0
 44
420.0
 45
297.0
 46
0.0
 47
0.0
 48
0.0
 49
0.0
140
0.0
141
0.0
142
1.0
143
1.0
 70
0
 72
1
 73
0
 74
5
  7

 75
16
 76
0
 77
2
 78
300
147
1.0
148
0.0
149
0.0
100
AcDbLayout
  1
Layout1
 70
1
 71
1
 10
0.0
 20
0.0
 11
420.0
 21
297.0
 12
0.0
 22
0.0
 32
0.0
 14
1e+20
 24
1e+20
 34
1e+20
 15
-1e+20
 25
-1e+20
 35
-1e+20
146
0.0
 13
0.0
 23
0.0
 33
0.0
 16
1.0
 26
0.0
 36
0.0
 17
0.0
 27
1.0
 37
0.0
 76
1
330
1B
  0
MATERIAL
  5
1F
102
{ACAD_REACTORS
330
E
102
}
330
E
100
AcDbMaterial
  1
ByBlock
  2

 70
0
 40
1.0
 71
1
 41
1.0
 91
-1023410177
 42
1.0
 72
1
  3

 73
1
 74
1
 75
1
 44
0.5
 73
0
 45
1.0
 46
1.0
 77
1
  4

 78
1
 79
1
170
1
 48
1.0
171
1
  6

172
1
173
1
174
1
140
1.0
141
1.0
175
1
  7

176
1
177
1
178
1
143
1.0
179
1
  8

270
1
271
1
272
1
145
1.0
146
1.0
273
1
  9

274
1
275
1
276
1
 42
1.0
 72
1
  3

 73
1
 74
1
 75
1
 94
63
  0
MATERIAL
  5
20
102
{ACAD_REACTORS
330
E
102
}
330
E
100
AcDbMaterial
  1
ByLayer
  2

 70
0
 40
1.0
 71
1
 41
1.0
 91
-1023410177
 42
1.0
 72
1
  3

 73
1
 74
1
 75
1
 44
0.5
 73
0
 45
1.0
 46
1.0
 77
1
  4

 78
1
 79
1
170
1
 48
1.0
171
1
  6

172
1
173
1
174
1
140
1.0
141
1.0
175
1
  7

176
1
177
1
178
1
143
1.0
179
1
  8

270
1
271
1
272
1
145
1.0
146
1.0
273
1
  9

274
1
275
1
276
1
 42
1.0
 72
1
  3

 73
1
 74
1
 75
1
 94
63
  0
MATERIAL
  5
21
102
{ACAD_REACTORS
330
E
102
}
330
E
100
AcDbMaterial
  1
Global
  2

 70
0
 40
1.0
 71
1
 41
1.0
 91
-1023410177
 42
1.0
 72
1
  3

 73
1
 74
1
 75
1
 44
0.5
 73
0
 45
1.0
 46
1.0
 77
1
  4

 78
1
 79
1
170
1
 48
1.0
171
1
  6

172
1
173
1
174
1
140
1.0
141
1.0
175
1
  7

176
1
177
1
178
1
143
1.0
179
1
  8

270
1
271
1
272
1
145
1.0
146
1.0
273
1
  9

274
1
275
1
276
1
 42
1.0
 72
1
  3

 73
1
 74
1
 75
1
 94
63
  0
MLINESTYLE
  5
22
102
{ACAD_REACTORS
330
10
102
}
330
10
100
AcDbMlineStyle
  2
Standard
 70
0
  3

 62
256
 51
90.0
 52
90.0
 71
2
 49
0.5
 62
256
  6
BYLAYER
 49
-0.5
 62
256
  6
BYLAYER
  0
MLEADERSTYLE
  5
2C
102
{ACAD_REACTORS
330
F
102
}
330
F
100
AcDbMLeaderStyle
179
2
170
2
171
1
172
0
 90
2
 40
0.0
 41
0.0
173
1
 91
-1056964608
 92
-2
290
1
 42
2.0
291
1
 43
8.0
  3
Standard
 44
4.0
300

342
29
174
1
175
1
176
0
178
1
 93
-1056964608
 45
4.0
292
0
297
0
 46
4.0
 94
-1056964608
 47
1.0
 49
1.0
140
1.0
294
1
141
0.0
177
0
142
1.0
295
0
296
0
143
3.75
271
0
272
9
273
9
  0
DICTIONARY
  5
2D
330
A
100
AcDbDictionary
281
1
  3
CREATED_BY_EZDXF
350
2E
  3
WRITTEN_BY_EZDXF
350
AA
  0
DICTIONARYVAR
  5
2E
330
2D
100
DictionaryVariables
280
0
  1
1.3.0 @ 2026-01-06T17:07:06.001957+00:00
  0
VISUALSTYLE
  5
5A
102
{ACAD_REACTORS
330
16
102
}
330
16
100
AcDbVisualStyle
  2
2dWireframe
 70
4
 90
0
 40
0.6
 62
7
290
0
291
0
  0
VISUALSTYLE
  5
5B
102
{ACAD_REACTORS
330
16
102
}
330
16
100
AcDbVisualStyle
  2
Basic
 70
7
 90
1
 40
0.6
 62
7
290
0
291
1
  0
VISUALSTYLE
  5
5C
102
{ACAD_REACTORS
330
16
102
}
330
16
100
AcDbVisualStyle
  2
Brighten
 70
12
 90
2
 40
0.6
 62
7
290
0
291
1
  0
VISUALSTYLE
  5
5D
102
{ACAD_REACTORS
330
16
102
}
330
16
100
AcDbVisualStyle
  2
ColorChange
 70
16
 90
2
 40
0.6
 62
8
290
0
291
1
  0
VISUALSTYLE
  5
5E
102
{ACAD_REACTORS
330
16
102
}
330
16
100
AcDbVisualStyle
  2
Conceptual
 70
9
 90
3
 40
0.6
 62
7
290
0
291
0
  0
VISUALSTYLE
  5
5F
102
{ACAD_REACTORS
330
16
102
}
330
16
100
AcDbVisualStyle
  2
Dim
 70
11
 90
2
 40
0.6
 62
7
290
0
291
1
  0
VISUALSTYLE
  5
60
102
{ACAD_REACTORS
330
16
102
}
330
16
100
AcDbVisualStyle
  2
EdgeColorOff
 70
22
 90
2
 40
0.6
 62
7
290
0
291
1
  0
VISUALSTYLE
  5
61
102
{ACAD_REACTORS
330
16
102
}
330
16
100
AcDbVisualStyle
  2
Facepattern
 70
15
 90
2
 40
0.6
 62
7
290
0
291
1
  0
VISUALSTYLE
  5
62
102
{ACAD_REACTORS
330
16
102
}
330
16
100
AcDbVisualStyle
  2
Flat
 70
0
 90
2
 40
0.6
 62
7
290
0
291
1
  0
VISUALSTYLE
  5
63
102
{ACAD_REACTORS
330
16
102
}
330
16
100
AcDbVisualStyle
  2
FlatWithEdges
 70
1
 90
2
 40
0.6
 62
7
290
0
291
1
  0
VISUALSTYLE
  5
64
102
{ACAD_REACTORS
330
16
102
}
330
16
100
AcDbVisualStyle
  2
Gouraud
 70
2
 90
2
 40
0.6
 62
7
290
0
291
1
  0
VISUALSTYLE
  5
65
102
{ACAD_REACTORS
330
16
102
}
330
16
100
AcDbVisualStyle
  2
GouraudWithEdges
 70
3
 90
2
 40
0.6
 62
7
290
0
291
1
  0
VISUALSTYLE
  5
66
102
{ACAD_REACTORS
330
16
102
}
330
16
100
AcDbVisualStyle
  2
Hidden
 70
6
 90
1
 40
0.6
 62
7
290
0
291
0
  0
VISUALSTYLE
  5
67
102
{ACAD_REACTORS
330
16
102
}
330
16
100
AcDbVisualStyle
  2
JitterOff
 70
20
 90
2
 40
0.6
 62
7
290
0
291
1
  0
VISUALSTYLE
  5
68
102
{ACAD_REACTORS
330
16
102
}
330
16
100
AcDbVisualStyle
  2
Linepattern
 70
14
 90
2
 40
0.6
 62
7
290
0
291
1
  0
VISUALSTYLE
  5
69
102
{ACAD_REACTORS
330
16
102
}
330
16
100
AcDbVisualStyle
  2
Modeling
 70
10
 90
2
 40
0.6
 62
7
290
0
291
0
  0
VISUALSTYLE
  5
6A
102
{ACAD_REACTORS
330
16
102
}
330
16
100
AcDbVisualStyle
  2
OverhangOff
 70
21
 90
2
 40
0.6
 62
7
290
0
291
1
  0
VISUALSTYLE
  5
6B
102
{ACAD_REACTORS
330
16
102
}
330
16
100
AcDbVisualStyle
  2
Realistic
 70
8
 90
2
 40
0.6
 62
7
290
0
291
0
  0
VISUALSTYLE
  5
6C
102
{ACAD_REACTORS
330
16
102
}
330
16
100
AcDbVisualStyle
  2
Shaded
 70
27
 90
2
 40
0.6
 62
7
290
0
291
0
  0
VISUALSTYLE
  5
6D
102
{ACAD_REACTORS
330
16
102
}
330
16
100
AcDbVisualStyle
  2
Shaded with edges
 70
26
 90
2
 40
0.6
 62
7
290
0
291
0
  0
VISUALSTYLE
  5
6E
102
{ACAD_REACTORS
330
16
102
}
330
16
100
AcDbVisualStyle
  2
Shades of Gray
 70
23
 90
2
 40
0.6
 62
7
290
0
291
0
  0
VISUALSTYLE
  5
6F
102
{ACAD_REACTORS
330
16
102
}
330
16
100
AcDbVisualStyle
  2
Sketchy
 70
24
 90
1
 40
0.6
 62
7
290
0
291
0
  0
VISUALSTYLE
  5
70
102
{ACAD_REACTORS
330
16
102
}
330
16
100
AcDbVisualStyle
  2
Thicken
 70
13
 90
2
 40
0.6
 62
7
290
0
291
1
  0
VISUALSTYLE
  5
71
102
{ACAD_REACTORS
330
16
102
}
330
16
100
AcDbVisualStyle
  2
Wireframe
 70
5
 90
0
 40
0.6
 62
7
290
0
291
0
  0
VISUALSTYLE
  5
72
102
{ACAD_REACTORS
330
16
102
}
330
16
100
AcDbVisualStyle
  2
X-Ray
 70
25
 90
2
 40
0.5
 62
7
290
0
291
0
  0
DICTIONARYVAR
  5
AA
330
2D
100
DictionaryVariables
280
0
  1
1.3.0 @ 2026-01-06T17:07:06.022616+00:00
  0
ENDSEC
  0
EOF
