  0
SECTION
  2
HEADER
  9
$ACADVER
  1
AC1021
  9
$ACADMAINTVER
 70
25
  9
$DWGCODEPAGE
  3
ANSI_1252
  9
$LASTSAVEDBY
  1
ezdxf
  9
$INSBASE
 10
0.0
 20
0.0
 30
0.0
  9
$EXTMIN
 10
1e+20
 20
1e+20
 30
1e+20
  9
$EXTMAX
 10
-1e+20
 20
-1e+20
 30
-1e+20
  9
$LIMMIN
 10
0.0
 20
0.0
  9
$LIMMAX
 10
420.0
 20
297.0
  9
$ORTHOMODE
 70
0
  9
$REGENMODE
 70
1
  9
$FILLMODE
 70
1
  9
$QTEXTMODE
 70
0
  9
$MIRRTEXT
 70
1
  9
$LTSCALE
 40
1.0
  9
$ATTMODE
 70
1
  9
$TEXTSIZE
 40
2.5
  9
$TRACEWID
 40
1.0
  9
$TEXTSTYLE
  7
OpenSans
  9
$CLAYER
  8
0
  9
$CELTYPE
  6
ByLayer
  9
$CECOLOR
 62
256
  9
$CELTSCALE
 40
1.0
  9
$DISPSILH
 70
0
  9
$DIMSCALE
 40
1.0
  9
$DIMASZ
 40
0.175
  9
$DIMEXO
 40
0.125
  9
$DIMDLI
 40
3.75
  9
$DIMRND
 40
0.0
  9
$DIMDLE
 40
0.0
  9
$DIMEXE
 40
0.375
  9
$DIMTP
 40
0.0
  9
$DIMTM
 40
0.0
  9
$DIMTXT
 40
0.25
  9
$DIMCEN
 40
2.5
  9
$DIMTSZ
 40
0.0
  9
$DIMTOL
 70
0
  9
$DIMLIM
 70
0
  9
$DIMTIH
 70
0
  9
$DIMTOH
 70
0
  9
$DIMSE1
 70
0
  9
$DIMSE2
 70
0
  9
$DIMTAD
 70
1
  9
$DIMZIN
 70
12
  9
$DIMBLK
  1
ARCHTICK
  9
$DIMASO
 70
1
  9
$DIMSHO
 70
1
  9
$DIMPOST
  1

  9
$DIMAPOST
  1

  9
$DIMALT
 70
0
  9
$DIMALTD
 70
3
  9
$DIMALTF
 40
0.03937007874
  9
$DIMLFAC
 40
100.0
  9
$DIMTOFL
 70
1
  9
$DIMTVP
 40
0.0
  9
$DIMTIX
 70
0
  9
$DIMSOXD
 70
0
  9
$DIMSAH
 70
0
  9
$DIMBLK1
  1

  9
$DIMBLK2
  1

  9
$DIMSTYLE
  2
EZDXF
  9
$DIMCLRD
 70
0
  9
$DIMCLRE
 70
0
  9
$DIMCLRT
 70
0
  9
$DIMTFAC
 40
0.5
  9
$DIMGAP
 40
0.1
  9
$DIMJUST
 70
0
  9
$DIMSD1
 70
0
  9
$DIMSD2
 70
0
  9
$DIMTOLJ
 70
0
  9
$DIMTZIN
 70
8
  9
$DIMALTZ
 70
0
  9
$DIMALTTZ
 70
0
  9
$DIMUPT
 70
1
  9
$DIMDEC
 70
2
  9
$DIMTDEC
 70
2
  9
$DIMALTU
 70
2
  9
$DIMALTTD
 70
3
  9
$DIMTXSTY
  7
OpenSansCondensed-Light
  9
$DIMAUNIT
 70
0
  9
$DIMADEC
 70
2
  9
$DIMALTRND
 40
0.0
  9
$DIMAZIN
 70
3
  9
$DIMDSEP
 70
46
  9
$DIMATFIT
 70
3
  9
$DIMFRAC
 70
0
  9
$DIMLDRBLK
  1

  9
$DIMLUNIT
 70
2
  9
$DIMLWD
 70
-2
  9
$DIMLWE
 70
-2
  9
$DIMTMOVE
 70
2
  9
$DIMFXL
 40
1.0
  9
$DIMFXLON
 70
0
  9
$DIMJOGANG
 40
0.785398163397
  9
$DIMTFILL
 70
0
  9
$DIMTFILLCLR
 70
0
  9
$DIMARCSYM
 70
0
  9
$DIMLTYPE
  6

  9
$DIMLTEX1
  6

  9
$DIMLTEX2
  6

  9
$LUNITS
 70
2
  9
$LUPREC
 70
4
  9
$SKETCHINC
 40
1.0
  9
$FILLETRAD
 40
10.0
  9
$AUNITS
 70
0
  9
$AUPREC
 70
2
  9
$MENU
  1
.
  9
$ELEVATION
 40
0.0
  9
$PELEVATION
 40
0.0
  9
$THICKNESS
 40
0.0
  9
$LIMCHECK
 70
0
  9
$CHAMFERA
 40
0.0
  9
$CHAMFERB
 40
0.0
  9
$CHAMFERC
 40
0.0
  9
$CHAMFERD
 40
0.0
  9
$SKPOLY
 70
0
  9
$TDCREATE
 40
2461048.0883680554
  9
$TDUCREATE
 40
2458532.153996898
  9
$TDUPDATE
 40
2461048.0883796294
  9
$TDUUPDATE
 40
2458532.1544311
  9
$TDINDWG
 40
0.0
  9
$TDUSRTIMER
 40
0.0
  9
$USRTIMER
 70
1
  9
$ANGBASE
 50
0.0
  9
$ANGDIR
 70
0
  9
$PDMODE
 70
0
  9
$PDSIZE
 40
0.0
  9
$PLINEWID
 40
0.0
  9
$SPLFRAME
 70
0
  9
$SPLINETYPE
 70
6
  9
$SPLINESEGS
 70
8
  9
$HANDSEED
  5
BB
  9
$SURFTAB1
 70
6
  9
$SURFTAB2
 70
6
  9
$SURFTYPE
 70
6
  9
$SURFU
 70
6
  9
$SURFV
 70
6
  9
$UCSBASE
  2

  9
$UCSNAME
  2

  9
$UCSORG
 10
0.0
 20
0.0
 30
0.0
  9
$UCSXDIR
 10
1.0
 20
0.0
 30
0.0
  9
$UCSYDIR
 10
0.0
 20
1.0
 30
0.0
  9
$UCSORTHOREF
  2

  9
$UCSORTHOVIEW
 70
0
  9
$UCSORGTOP
 10
0.0
 20
0.0
 30
0.0
  9
$UCSORGBOTTOM
 10
0.0
 20
0.0
 30
0.0
  9
$UCSORGLEFT
 10
0.0
 20
0.0
 30
0.0
  9
$UCSORGRIGHT
 10
0.0
 20
0.0
 30
0.0
  9
$UCSORGFRONT
 10
0.0
 20
0.0
 30
0.0
  9
$UCSORGBACK
 10
0.0
 20
0.0
 30
0.0
  9
$PUCSBASE
  2

  9
$PUCSNAME
  2

  9
$PUCSORG
 10
0.0
 20
0.0
 30
0.0
  9
$PUCSXDIR
 10
1.0
 20
0.0
 30
0.0
  9
$PUCSYDIR
 10
0.0
 20
1.0
 30
0.0
  9
$PUCSORTHOREF
  2

  9
$PUCSORTHOVIEW
 70
0
  9
$PUCSORGTOP
 10
0.0
 20
0.0
 30
0.0
  9
$PUCSORGBOTTOM
 10
0.0
 20
0.0
 30
0.0
  9
$PUCSORGLEFT
 10
0.0
 20
0.0
 30
0.0
  9
$PUCSORGRIGHT
 10
0.0
 20
0.0
 30
0.0
  9
$PUCSORGFRONT
 10
0.0
 20
0.0
 30
0.0
  9
$PUCSORGBACK
 10
0.0
 20
0.0
 30
0.0
  9
$USERI1
 70
0
  9
$USERI2
 70
0
  9
$USERI3
 70
0
  9
$USERI4
 70
0
  9
$USERI5
 70
0
  9
$USERR1
 40
0.0
  9
$USERR2
 40
0.0
  9
$USERR3
 40
0.0
  9
$USERR4
 40
0.0
  9
$USERR5
 40
0.0
  9
$WORLDVIEW
 70
1
  9
$SHADEDGE
 70
3
  9
$SHADEDIF
 70
70
  9
$TILEMODE
 70
1
  9
$MAXACTVP
 70
64
  9
$PINSBASE
 10
0.0
 20
0.0
 30
0.0
  9
$PLIMCHECK
 70
0
  9
$PEXTMIN
 10
1e+20
 20
1e+20
 30
1e+20
  9
$PEXTMAX
 10
-1e+20
 20
-1e+20
 30
-1e+20
  9
$PLIMMIN
 10
0.0
 20
0.0
  9
$PLIMMAX
 10
420.0
 20
297.0
  9
$UNITMODE
 70
0
  9
$VISRETAIN
 70
1
  9
$PLINEGEN
 70
0
  9
$PSLTSCALE
 70
1
  9
$TREEDEPTH
 70
3020
  9
$CMLSTYLE
  2
Standard
  9
$CMLJUST
 70
0
  9
$CMLSCALE
 40
20.0
  9
$PROXYGRAPHICS
 70
1
  9
$MEASUREMENT
 70
1
  9
$CELWEIGHT
370
-1
  9
$ENDCAPS
280
0
  9
$JOINSTYLE
280
0
  9
$LWDISPLAY
290
0
  9
$INSUNITS
 70
6
  9
$HYPERLINKBASE
  1

  9
$STYLESHEET
  1

  9
$XEDIT
290
1
  9
$CEPSNTYPE
380
0
  9
$PSTYLEMODE
290
1
  9
$FINGERPRINTGUID
  2
{85C0F755-991C-4D2B-A2BA-2F318F809717}
  9
$VERSIONGUID
  2
{64D7B3AA-E7E3-4A31-AC9B-8F06DD7E5999}
  9
$EXTNAMES
290
1
  9
$PSVPSCALE
 40
0.0
  9
$OLESTARTUP
290
0
  9
$SORTENTS
280
127
  9
$INDEXCTL
280
0
  9
$HIDETEXT
280
1
  9
$XCLIPFRAME
290
1
  9
$HALOGAP
280
0
  9
$OBSCOLOR
 70
257
  9
$OBSLTYPE
280
0
  9
$INTERSECTIONDISPLAY
280
0
  9
$INTERSECTIONCOLOR
 70
257
  9
$DIMASSOC
280
2
  9
$PROJECTNAME
  1

  9
$CAMERADISPLAY
290
0
  9
$LENSLENGTH
 40
50.0
  9
$CAMERAHEIGHT
 40
0.0
  9
$STEPSPERSEC
 40
24.0
  9
$STEPSIZE
 40
100.0
  9
$3DDWFPREC
 40
2.0
  9
$PSOLWIDTH
 40
0.005
  9
$PSOLHEIGHT
 40
0.08
  9
$LOFTANG1
 40
1.570796326795
  9
$LOFTANG2
 40
1.570796326795
  9
$LOFTMAG1
 40
0.0
  9
$LOFTMAG2
 40
0.0
  9
$LOFTPARAM
 70
7
  9
$LOFTNORMALS
280
1
  9
$LATITUDE
 40
37.795
  9
$LONGITUDE
 40
-122.394
  9
$NORTHDIRECTION
 40
0.0
  9
$TIMEZONE
 70
-8000
  9
$LIGHTGLYPHDISPLAY
280
1
  9
$TILEMODELIGHTSYNCH
280
1
  9
$CMATERIAL
347
20
  9
$SOLIDHIST
280
0
  9
$SHOWHIST
280
1
  9
$DWFFRAME
280
2
  9
$DGNFRAME
280
2
  9
$REALWORLDSCALE
290
1
  9
$INTERFERECOLOR
 62
256
  9
$CSHADOW
280
0
  9
$SHADOWPLANELOCATION
 40
0.0
  0
ENDSEC
  0
SECTION
  2
CLASSES
  0
CLASS
  1
ACDBDICTIONARYWDFLT
  2
AcDbDictionaryWithDefault
  3
ObjectDBX Classes
 90
0
 91
0
280
0
281
0
  0
CLASS
  1
SUN
  2
AcDbSun
  3
SCENEOE
 90
1153
 91
0
280
0
281
0
  0
CLASS
  1
VISUALSTYLE
  2
AcDbVisualStyle
  3
ObjectDBX Classes
 90
4095
 91
0
280
0
281
0
  0
CLASS
  1
MATERIAL
  2
AcDbMaterial
  3
ObjectDBX Classes
 90
1153
 91
0
280
0
281
0
  0
CLASS
  1
SCALE
  2
AcDbScale
  3
ObjectDBX Classes
 90
1153
 91
0
280
0
281
0
  0
CLASS
  1
TABLESTYLE
  2
AcDbTableStyle
  3
ObjectDBX Classes
 90
4095
 91
0
280
0
281
0
  0
CLASS
  1
MLEADERSTYLE
  2
AcDbMLeaderStyle
  3
ACDB_MLEADERSTYLE_CLASS
 90
4095
 91
0
280
0
281
0
  0
CLASS
  1
DICTIONARYVAR
  2
AcDbDictionaryVar
  3
ObjectDBX Classes
 90
0
 91
0
280
0
281
0
  0
CLASS
  1
CELLSTYLEMAP
  2
AcDbCellStyleMap
  3
ObjectDBX Classes
 90
1152
 91
0
280
0
281
0
  0
CLASS
  1
MENTALRAYRENDERSETTINGS
  2
AcDbMentalRayRenderSettings
  3
SCENEOE
 90
1024
 91
0
280
0
281
0
  0
CLASS
  1
ACDBDETAILVIEWSTYLE
  2
AcDbDetailViewStyle
  3
ObjectDBX Classes
 90
1025
 91
0
280
0
281
0
  0
CLASS
  1
ACDBSECTIONVIEWSTYLE
  2
AcDbSectionViewStyle
  3
ObjectDBX Classes
 90
1025
 91
0
280
0
281
0
  0
CLASS
  1
RASTERVARIABLES
  2
AcDbRasterVariables
  3
ISM
 90
0
 91
0
280
0
281
0
  0
CLASS
  1
ACDBPLACEHOLDER
  2
AcDbPlaceHolder
  3
ObjectDBX Classes
 90
0
 91
0
280
0
281
0
  0
CLASS
  1
LAYOUT
  2
AcDbLayout
  3
ObjectDBX Classes
 90
0
 91
0
280
0
281
0
  0
ENDSEC
  0
SECTION
  2
TABLES
  0
TABLE
  2
VPORT
  5
8
330
0
100
AcDbSymbolTable
 70
1
  0
VPORT
  5
23
330
8
100
AcDbSymbolTableRecord
100
AcDbViewportTableRecord
  2
*Active
 70
0
 10
0.0
 20
0.0
 11
1.0
 21
1.0
 12
0.0
 22
0.0
 13
0.0
 23
0.0
 14
0.5
 24
0.5
 15
0.5
 25
0.5
 16
0.0
 26
0.0
 36
1.0
 17
0.0
 27
0.0
 37
0.0
 40
1000.0
 41
1.34
 42
50.0
 43
0.0
 44
0.0
 50
0.0
 51
0.0
 71
0
 72
1000
 73
1
 74
3
 75
0
 76
0
 77
0
 78
0
281
0
 65
0
146
0.0
  0
ENDTAB
  0
TABLE
  2
LTYPE
  5
2
330
0
100
AcDbSymbolTable
 70
21
  0
LTYPE
  5
24
330
2
100
AcDbSymbolTableRecord
100
AcDbLinetypeTableRecord
  2
ByBlock
 70
0
  3

 72
65
 73
0
 40
0.0
  0
LTYPE
  5
25
330
2
100
AcDbSymbolTableRecord
100
AcDbLinetypeTableRecord
  2
ByLayer
 70
0
  3

 72
65
 73
0
 40
0.0
  0
LTYPE
  5
26
330
2
100
AcDbSymbolTableRecord
100
AcDbLinetypeTableRecord
  2
Continuous
 70
0
  3

 72
65
 73
0
 40
0.0
  0
LTYPE
  5
2F
330
2
100
AcDbSymbolTableRecord
100
AcDbLinetypeTableRecord
  2
CENTER
 70
0
  3
Center ____ _ ____ _ ____ _ ____ _ ____ _ ____
 72
65
 73
4
 40
5.08
 49
3.175
 74
0
 49
-0.635
 74
0
 49
0.635
 74
0
 49
-0.635
 74
0
  0
LTYPE
  5
30
330
2
100
AcDbSymbolTableRecord
100
AcDbLinetypeTableRecord
  2
CENTERX2
 70
0
  3
Center (2x) ________  __  ________  __  ________
 72
65
 73
4
 40
8.89
 49
6.35
 74
0
 49
-0.635
 74
0
 49
1.27
 74
0
 49
-0.635
 74
0
  0
LTYPE
  5
31
330
2
100
AcDbSymbolTableRecord
100
AcDbLinetypeTableRecord
  2
CENTER2
 70
0
  3
Center (.5x) ____ _ ____ _ ____ _ ____ _ ____
 72
65
 73
4
 40
2.54
 49
1.587
 74
0
 49
-0.318
 74
0
 49
0.318
 74
0
 49
-0.318
 74
0
  0
LTYPE
  5
32
330
2
100
AcDbSymbolTableRecord
100
AcDbLinetypeTableRecord
  2
DASHED
 70
0
  3
Dashed __ __ __ __ __ __ __ __ __ __ __ __ __ _
 72
65
 73
2
 40
1.524
 49
1.27
 74
0
 49
-0.254
 74
0
  0
LTYPE
  5
33
330
2
100
AcDbSymbolTableRecord
100
AcDbLinetypeTableRecord
  2
DASHEDX2
 70
0
  3
Dashed (2x) ____  ____  ____  ____  ____  ____
 72
65
 73
2
 40
3.048
 49
2.54
 74
0
 49
-0.508
 74
0
  0
LTYPE
  5
34
330
2
100
AcDbSymbolTableRecord
100
AcDbLinetypeTableRecord
  2
DASHED2
 70
0
  3
Dashed (.5x) _ _ _ _ _ _ _ _ _ _ _ _ _ _
 72
65
 73
2
 40
0.762
 49
0.635
 74
0
 49
-0.127
 74
0
  0
LTYPE
  5
35
330
2
100
AcDbSymbolTableRecord
100
AcDbLinetypeTableRecord
  2
PHANTOM
 70
0
  3
Phantom ______  __  __  ______  __  __  ______
 72
65
 73
6
 40
6.35
 49
3.175
 74
0
 49
-0.635
 74
0
 49
0.635
 74
0
 49
-0.635
 74
0
 49
0.635
 74
0
 49
-0.635
 74
0
  0
LTYPE
  5
36
330
2
100
AcDbSymbolTableRecord
100
AcDbLinetypeTableRecord
  2
PHANTOMX2
 70
0
  3
Phantom (2x)____________    ____    ____    ____________
 72
65
 73
6
 40
10.795
 49
6.35
 74
0
 49
-0.635
 74
0
 49
1.27
 74
0
 49
-0.635
 74
0
 49
1.27
 74
0
 49
-0.635
 74
0
  0
LTYPE
  5
37
330
2
100
AcDbSymbolTableRecord
100
AcDbLinetypeTableRecord
  2
PHANTOM2
 70
0
  3
Phantom (.5x) ___ _ _ ___ _ _ ___ _ _ ___ _ _ ___
 72
65
 73
6
 40
3.175
 49
1.587
 74
0
 49
-0.318
 74
0
 49
0.318
 74
0
 49
-0.318
 74
0
 49
0.318
 74
0
 49
-0.318
 74
0
  0
LTYPE
  5
38
330
2
100
AcDbSymbolTableRecord
100
AcDbLinetypeTableRecord
  2
DASHDOT
 70
0
  3
Dash dot __ . __ . __ . __ . __ . __ . __ . __
 72
65
 73
4
 40
3.556
 49
2.54
 74
0
 49
-0.508
 74
0
 49
0.0
 74
0
 49
-0.508
 74
0
  0
LTYPE
  5
39
330
2
100
AcDbSymbolTableRecord
100
AcDbLinetypeTableRecord
  2
DASHDOTX2
 70
0
  3
Dash dot (2x) ____  .  ____  .  ____  .  ____
 72
65
 73
4
 40
6.096
 49
5.08
 74
0
 49
-0.508
 74
0
 49
0.0
 74
0
 49
-0.508
 74
0
  0
LTYPE
  5
3A
330
2
100
AcDbSymbolTableRecord
100
AcDbLinetypeTableRecord
  2
DASHDOT2
 70
0
  3
Dash dot (.5x) _ . _ . _ . _ . _ . _ . _ . _
 72
65
 73
4
 40
1.778
 49
1.27
 74
0
 49
-0.254
 74
0
 49
0.0
 74
0
 49
-0.254
 74
0
  0
LTYPE
  5
3B
330
2
100
AcDbSymbolTableRecord
100
AcDbLinetypeTableRecord
  2
DOT
 70
0
  3
Dot .  .  .  .  .  .  .  .  .  .  .  .  .  .  .  .
 72
65
 73
2
 40
0.508
 49
0.0
 74
0
 49
-0.508
 74
0
  0
LTYPE
  5
3C
330
2
100
AcDbSymbolTableRecord
100
AcDbLinetypeTableRecord
  2
DOTX2
 70
0
  3
Dot (2x) .    .    .    .    .    .    .    . 
 72
65
 73
2
 40
1.016
 49
0.0
 74
0
 49
-1.016
 74
0
  0
LTYPE
  5
3D
330
2
100
AcDbSymbolTableRecord
100
AcDbLinetypeTableRecord
  2
DOT2
 70
0
  3
Dot (.5) . . . . . . . . . . . . . . . . . . . 
 72
65
 73
2
 40
0.254
 49
0.0
 74
0
 49
-0.254
 74
0
  0
LTYPE
  5
3E
330
2
100
AcDbSymbolTableRecord
100
AcDbLinetypeTableRecord
  2
DIVIDE
 70
0
  3
Divide __ . . __ . . __ . . __ . . __ . . __
 72
65
 73
6
 40
4.064
 49
2.54
 74
0
 49
-0.508
 74
0
 49
0.0
 74
0
 49
-0.508
 74
0
 49
0.0
 74
0
 49
-0.508
 74
0
  0
LTYPE
  5
3F
330
2
100
AcDbSymbolTableRecord
100
AcDbLinetypeTableRecord
  2
DIVIDEX2
 70
0
  3
Divide (2x) ____  . .  ____  . .  ____  . .  ____
 72
65
 73
6
 40
6.604
 49
5.08
 74
0
 49
-0.508
 74
0
 49
0.0
 74
0
 49
-0.508
 74
0
 49
0.0
 74
0
 49
-0.508
 74
0
  0
LTYPE
  5
40
330
2
100
AcDbSymbolTableRecord
100
AcDbLinetypeTableRecord
  2
DIVIDE2
 70
0
  3
Divide(.5x) _ . _ . _ . _ . _ . _ . _ . _
 72
65
 73
6
 40
2.032
 49
1.27
 74
0
 49
-0.254
 74
0
 49
0.0
 74
0
 49
-0.254
 74
0
 49
0.0
 74
0
 49
-0.254
 74
0
  0
ENDTAB
  0
TABLE
  2
LAYER
  5
1
330
0
100
AcDbSymbolTable
 70
5
  0
LAYER
  5
27
330
1
100
AcDbSymbolTableRecord
100
AcDbLayerTableRecord
  2
0
 70
0
 62
7
  6
Continuous
370
-3
390
13
347
21
  0
LAYER
  5
28
330
1
100
AcDbSymbolTableRecord
100
AcDbLayerTableRecord
  2
Defpoints
 70
0
 62
7
  6
Continuous
290
0
370
-3
390
13
347
21
  0
LAYER
  5
8A
330
1
100
AcDbSymbolTableRecord
100
AcDbLayerTableRecord
  2
Layer
 70
0
 62
1
  6
Continuous
370
50
390
13
347
21
  0
LAYER
  5
8B
330
1
100
AcDbSymbolTableRecord
100
AcDbLayerTableRecord
  2
NumLabel
 70
0
 62
1
  6
Continuous
370
15
390
13
347
21
  0
LAYER
  5
B9
330
1
100
AcDbSymbolTableRecord
100
AcDbLayerTableRecord
  2
SplitMark
 70
0
 62
3
  6
Continuous
370
-3
390
13
347
21
  0
ENDTAB
  0
TABLE
  2
STYLE
  5
5
330
0
100
AcDbSymbolTable
 70
26
  0
STYLE
  5
29
330
5
100
AcDbSymbolTableRecord
100
AcDbTextStyleTableRecord
  2
Standard
 70
0
 40
0.0
 41
1.0
 50
0.0
 71
0
 42
2.5
  3
txt
  4

  0
STYLE
  5
41
330
5
100
AcDbSymbolTableRecord
100
AcDbTextStyleTableRecord
  2
OpenSans-Light
 70
0
 40
0.0
 41
1.0
 50
0.0
 71
0
 42
2.5
  3
OpenSans-Light.ttf
  4

  0
STYLE
  5
42
330
5
100
AcDbSymbolTableRecord
100
AcDbTextStyleTableRecord
  2
OpenSans-Light-Italic
 70
0
 40
0.0
 41
1.0
 50
0.0
 71
0
 42
2.5
  3
OpenSans-LightItalic.ttf
  4

  0
STYLE
  5
43
330
5
100
AcDbSymbolTableRecord
100
AcDbTextStyleTableRecord
  2
OpenSans
 70
0
 40
0.0
 41
1.0
 50
0.0
 71
0
 42
2.5
  3
OpenSans-Regular.ttf
  4

  0
STYLE
  5
44
330
5
100
AcDbSymbolTableRecord
100
AcDbTextStyleTableRecord
  2
OpenSans-Italic
 70
0
 40
0.0
 41
1.0
 50
0.0
 71
0
 42
2.5
  3
OpenSans-Italic.ttf
  4

  0
STYLE
  5
45
330
5
100
AcDbSymbolTableRecord
100
AcDbTextStyleTableRecord
  2
OpenSans-SemiBold
 70
0
 40
0.0
 41
1.0
 50
0.0
 71
0
 42
2.5
  3
OpenSans-SemiBold.ttf
  4

  0
STYLE
  5
46
330
5
100
AcDbSymbolTableRecord
100
AcDbTextStyleTableRecord
  2
OpenSans-SemiBoldItalic
 70
0
 40
0.0
 41
1.0
 50
0.0
 71
0
 42
2.5
  3
OpenSans-SemiBoldItalic.ttf
  4

  0
STYLE
  5
47
330
5
100
AcDbSymbolTableRecord
100
AcDbTextStyleTableRecord
  2
OpenSans-Bold
 70
0
 40
0.0
 41
1.0
 50
0.0
 71
0
 42
2.5
  3
OpenSans-Bold.ttf
  4

  0
STYLE
  5
48
330
5
100
AcDbSymbolTableRecord
100
AcDbTextStyleTableRecord
  2
OpenSans-BoldItalic
 70
0
 40
0.0
 41
1.0
 50
0.0
 71
0
 42
2.5
  3
OpenSans-BoldItalic.ttf
  4

  0
STYLE
  5
49
330
5
100
AcDbSymbolTableRecord
100
AcDbTextStyleTableRecord
  2
OpenSans-ExtraBold
 70
0
 40
0.0
 41
1.0
 50
0.0
 71
0
 42
2.5
  3
OpenSans-ExtraBold.ttf
  4

  0
STYLE
  5
4A
330
5
100
AcDbSymbolTableRecord
100
AcDbTextStyleTableRecord
  2
OpenSans-ExtraBoldItalic
 70
0
 40
0.0
 41
1.0
 50
0.0
 71
0
 42
2.5
  3
OpenSans-ExtraBoldItalic.ttf
  4

  0
STYLE
  5
4B
330
5
100
AcDbSymbolTableRecord
100
AcDbTextStyleTableRecord
  2
OpenSansCondensed-Bold
 70
0
 40
0.0
 41
1.0
 50
0.0
 71
0
 42
2.5
  3
OpenSansCondensed-Bold.ttf
  4

  0
STYLE
  5
4C
330
5
100
AcDbSymbolTableRecord
100
AcDbTextStyleTableRecord
  2
OpenSansCondensed-Light
 70
0
 40
0.0
 41
1.0
 50
0.0
 71
0
 42
2.5
  3
OpenSansCondensed-Light.ttf
  4

  0
STYLE
  5
4D
330
5
100
AcDbSymbolTableRecord
100
AcDbTextStyleTableRecord
  2
OpenSansCondensed-Italic
 70
0
 40
0.0
 41
1.0
 50
0.0
 71
0
 42
2.5
  3
OpenSansCondensed-LightItalic.ttf
  4

  0
STYLE
  5
4E
330
5
100
AcDbSymbolTableRecord
100
AcDbTextStyleTableRecord
  2
LiberationSans
 70
0
 40
0.0
 41
1.0
 50
0.0
 71
0
 42
2.5
  3
LiberationSans-Regular.ttf
  4

  0
STYLE
  5
4F
330
5
100
AcDbSymbolTableRecord
100
AcDbTextStyleTableRecord
  2
LiberationSans-Bold
 70
0
 40
0.0
 41
1.0
 50
0.0
 71
0
 42
2.5
  3
LiberationSans-Bold.ttf
  4

  0
STYLE
  5
50
330
5
100
AcDbSymbolTableRecord
100
AcDbTextStyleTableRecord
  2
LiberationSans-BoldItalic
 70
0
 40
0.0
 41
1.0
 50
0.0
 71
0
 42
2.5
  3
LiberationSans-BoldItalic.ttf
  4

  0
STYLE
  5
51
330
5
100
AcDbSymbolTableRecord
100
AcDbTextStyleTableRecord
  2
LiberationSans-Italic
 70
0
 40
0.0
 41
1.0
 50
0.0
 71
0
 42
2.5
  3
LiberationSans-Italic.ttf
  4

  0
STYLE
  5
52
330
5
100
AcDbSymbolTableRecord
100
AcDbTextStyleTableRecord
  2
LiberationSerif
 70
0
 40
0.0
 41
1.0
 50
0.0
 71
0
 42
2.5
  3
LiberationSerif-Regular.ttf
  4

  0
STYLE
  5
53
330
5
100
AcDbSymbolTableRecord
100
AcDbTextStyleTableRecord
  2
LiberationSerif-Bold
 70
0
 40
0.0
 41
1.0
 50
0.0
 71
0
 42
2.5
  3
LiberationSerif-Bold.ttf
  4

  0
STYLE
  5
54
330
5
100
AcDbSymbolTableRecord
100
AcDbTextStyleTableRecord
  2
LiberationSerif-BoldItalic
 70
0
 40
0.0
 41
1.0
 50
0.0
 71
0
 42
2.5
  3
LiberationSerif-BoldItalic.ttf
  4

  0
STYLE
  5
55
330
5
100
AcDbSymbolTableRecord
100
AcDbTextStyleTableRecord
  2
LiberationSerif-Italic
 70
0
 40
0.0
 41
1.0
 50
0.0
 71
0
 42
2.5
  3
LiberationSerif-Italic.ttf
  4

  0
STYLE
  5
56
330
5
100
AcDbSymbolTableRecord
100
AcDbTextStyleTableRecord
  2
LiberationMono
 70
0
 40
0.0
 41
1.0
 50
0.0
 71
0
 42
2.5
  3
LiberationMono-Regular.ttf
  4

  0
STYLE
  5
57
330
5
100
AcDbSymbolTableRecord
100
AcDbTextStyleTableRecord
  2
LiberationMono-Bold
 70
0
 40
0.0
 41
1.0
 50
0.0
 71
0
 42
2.5
  3
LiberationMono-Bold.ttf
  4

  0
STYLE
  5
58
330
5
100
AcDbSymbolTableRecord
100
AcDbTextStyleTableRecord
  2
LiberationMono-BoldItalic
 70
0
 40
0.0
 41
1.0
 50
0.0
 71
0
 42
2.5
  3
LiberationMono-BoldItalic.ttf
  4

  0
STYLE
  5
59
330
5
100
AcDbSymbolTableRecord
100
AcDbTextStyleTableRecord
  2
LiberationMono-Italic
 70
0
 40
0.0
 41
1.0
 50
0.0
 71
0
 42
2.5
  3
LiberationMono-Italic.ttf
  4

  0
ENDTAB
  0
TABLE
  2
VIEW
  5
7
330
0
100
AcDbSymbolTable
 70
0
  0
ENDTAB
  0
TABLE
  2
UCS
  5
6
330
0
100
AcDbSymbolTable
 70
0
  0
ENDTAB
  0
TABLE
  2
APPID
  5
3
330
0
100
AcDbSymbolTable
 70
3
  0
APPID
  5
2A
330
3
100
AcDbSymbolTableRecord
100
AcDbRegAppTableRecord
  2
ACAD
 70
0
  0
APPID
  5
B6
330
3
100
AcDbSymbolTableRecord
100
AcDbRegAppTableRecord
  2
HATCHBACKGROUNDCOLOR
 70
0
  0
APPID
  5
B7
330
3
100
AcDbSymbolTableRecord
100
AcDbRegAppTableRecord
  2
EZDXF
 70
0
  0
ENDTAB
  0
TABLE
  2
DIMSTYLE
  5
4
330
0
100
AcDbSymbolTable
 70
12
100
AcDbDimStyleTable
  0
DIMSTYLE
105
2B
330
4
100
AcDbSymbolTableRecord
100
AcDbDimStyleTableRecord
  2
Standard
 70
0
 40
1.0
 41
2.5
 42
0.625
 43
3.75
 44
1.25
 45
0.0
 46
0.0
 47
0.0
 48
0.0
 49
2.5
140
2.5
141
2.5
142
0.0
143
0.03937007874
144
1.0
145
0.0
146
1.0
147
0.625
148
0.0
 69
0
 70
0
 71
0
 72
0
 73
0
 74
0
 75
0
 76
0
 77
1
 78
8
 79
3
170
0
171
3
172
1
173
0
174
0
175
0
176
0
177
0
178
0
179
2
271
2
272
2
273
2
274
3
275
0
276
0
277
2
278
44
279
0
280
0
281
0
282
0
283
0
284
8
285
0
286
0
288
0
289
3
290
0
371
-2
372
-2
  0
DIMSTYLE
105
73
330
4
100
AcDbSymbolTableRecord
100
AcDbDimStyleTableRecord
  2
EZDXF
 70
0
 40
1.0
 41
0.175
 42
0.125
 43
3.75
 44
0.375
 45
0.0
 46
0.0
 47
0.0
 48
0.0
 49
2.5
140
0.25
141
2.5
142
0.0
143
0.03937007874
144
100.0
145
0.0
146
0.5
147
0.1
148
0.0
 69
0
 70
0
 71
0
 72
0
 73
0
 74
0
 75
0
 76
0
 77
1
 78
12
 79
3
170
0
171
3
172
1
173
0
174
0
175
0
176
0
177
0
178
0
179
2
271
2
272
2
273
2
274
3
275
0
276
0
277
2
278
46
279
2
280
0
281
0
282
0
283
0
284
8
285
0
286
0
288
1
289
3
290
0
340
4C
342
74
371
-2
372
-2
  0
DIMSTYLE
105
7C
330
4
100
AcDbSymbolTableRecord
100
AcDbDimStyleTableRecord
  2
EZ_M_100_H25_CM
 70
0
 40
1.0
 41
0.25
 42
0.125
 43
3.75
 44
0.375
 45
0.0
 46
0.0
 47
0.0
 48
0.0
 49
2.5
140
0.25
141
2.5
142
0.125
143
0.03937007874
144
100.0
145
0.0
146
0.5
147
0.1
148
0.0
 69
0
 70
0
 71
0
 72
0
 73
0
 74
0
 75
0
 76
0
 77
1
 78
12
 79
3
170
0
171
3
172
1
173
0
174
0
175
0
176
0
177
0
178
0
179
2
271
2
272
2
273
2
274
3
275
0
276
0
277
2
278
46
279
2
280
0
281
0
282
0
283
0
284
8
285
0
286
0
288
1
289
3
290
0
340
4C
371
-2
372
-2
  0
DIMSTYLE
105
7D
330
4
100
AcDbSymbolTableRecord
100
AcDbDimStyleTableRecord
  2
EZ_M_50_H25_CM
 70
0
 40
1.0
 41
0.125
 42
0.0625
 43
3.75
 44
0.1875
 45
0.0
 46
0.0
 47
0.0
 48
0.0
 49
2.5
140
0.125
141
2.5
142
0.0625
143
0.03937007874
144
100.0
145
0.0
146
0.5
147
0.05
148
0.0
 69
0
 70
0
 71
0
 72
0
 73
0
 74
0
 75
0
 76
0
 77
1
 78
12
 79
3
170
0
171
3
172
1
173
0
174
0
175
0
176
0
177
0
178
0
179
2
271
2
272
2
273
2
274
3
275
0
276
0
277
2
278
46
279
2
280
0
281
0
282
0
283
0
284
8
285
0
286
0
288
1
289
3
290
0
340
4C
371
-2
372
-2
  0
DIMSTYLE
105
7E
330
4
100
AcDbSymbolTableRecord
100
AcDbDimStyleTableRecord
  2
EZ_M_25_H25_CM
 70
0
 40
1.0
 41
0.0625
 42
0.03125
 43
3.75
 44
0.09375
 45
0.0
 46
0.0
 47
0.0
 48
0.0
 49
2.5
140
0.0625
141
2.5
142
0.03125
143
0.03937007874
144
100.0
145
0.0
146
0.5
147
0.025
148
0.0
 69
0
 70
0
 71
0
 72
0
 73
0
 74
0
 75
0
 76
0
 77
1
 78
12
 79
3
170
0
171
3
172
1
173
0
174
0
175
0
176
0
177
0
178
0
179
2
271
2
272
2
273
2
274
3
275
0
276
0
277
2
278
46
279
2
280
0
281
0
282
0
283
0
284
8
285
0
286
0
288
1
289
3
290
0
340
4C
371
-2
372
-2
  0
DIMSTYLE
105
7F
330
4
100
AcDbSymbolTableRecord
100
AcDbDimStyleTableRecord
  2
EZ_M_20_H25_CM
 70
0
 40
1.0
 41
0.05
 42
0.025
 43
3.75
 44
0.07500000000000001
 45
0.0
 46
0.0
 47
0.0
 48
0.0
 49
2.5
140
0.05
141
2.5
142
0.025
143
0.03937007874
144
100.0
145
0.0
146
0.5
147
0.020000000000000004
148
0.0
 69
0
 70
0
 71
0
 72
0
 73
0
 74
0
 75
0
 76
0
 77
1
 78
12
 79
3
170
0
171
3
172
1
173
0
174
0
175
0
176
0
177
0
178
0
179
2
271
2
272
2
273
2
274
3
275
0
276
0
277
2
278
46
279
2
280
0
281
0
282
0
283
0
284
8
285
0
286
0
288
1
289
3
290
0
340
4C
371
-2
372
-2
  0
DIMSTYLE
105
80
330
4
100
AcDbSymbolTableRecord
100
AcDbDimStyleTableRecord
  2
EZ_M_10_H25_CM
 70
0
 40
1.0
 41
0.025
 42
0.0125
 43
3.75
 44
0.037500000000000006
 45
0.0
 46
0.0
 47
0.0
 48
0.0
 49
2.5
140
0.025
141
2.5
142
0.0125
143
0.03937007874
144
100.0
145
0.0
146
0.5
147
0.010000000000000002
148
0.0
 69
0
 70
0
 71
0
 72
0
 73
0
 74
0
 75
0
 76
0
 77
1
 78
12
 79
3
170
0
171
3
172
1
173
0
174
0
175
0
176
0
177
0
178
0
179
2
271
2
272
2
273
2
274
3
275
0
276
0
277
2
278
46
279
2
280
0
281
0
282
0
283
0
284
8
285
0
286
0
288
1
289
3
290
0
340
4C
371
-2
372
-2
  0
DIMSTYLE
105
81
330
4
100
AcDbSymbolTableRecord
100
AcDbDimStyleTableRecord
  2
EZ_M_5_H25_CM
 70
0
 40
1.0
 41
0.0125
 42
0.00625
 43
3.75
 44
0.018750000000000003
 45
0.0
 46
0.0
 47
0.0
 48
0.0
 49
2.5
140
0.0125
141
2.5
142
0.00625
143
0.03937007874
144
100.0
145
0.0
146
0.5
147
0.005000000000000001
148
0.0
 69
0
 70
0
 71
0
 72
0
 73
0
 74
0
 75
0
 76
0
 77
1
 78
12
 79
3
170
0
171
3
172
1
173
0
174
0
175
0
176
0
177
0
178
0
179
2
271
2
272
2
273
2
274
3
275
0
276
0
277
2
278
46
279
2
280
0
281
0
282
0
283
0
284
8
285
0
286
0
288
1
289
3
290
0
340
4C
371
-2
372
-2
  0
DIMSTYLE
105
82
330
4
100
AcDbSymbolTableRecord
100
AcDbDimStyleTableRecord
  2
EZ_M_1_H25_CM
 70
0
 40
1.0
 41
0.0025
 42
0.00125
 43
3.75
 44
0.00375
 45
0.0
 46
0.0
 47
0.0
 48
0.0
 49
2.5
140
0.0025
141
2.5
142
0.00125
143
0.03937007874
144
100.0
145
0.0
146
0.5
147
0.001
148
0.0
 69
0
 70
0
 71
0
 72
0
 73
0
 74
0
 75
0
 76
0
 77
1
 78
12
 79
3
170
0
171
3
172
1
173
0
174
0
175
0
176
0
177
0
178
0
179
2
271
2
272
2
273
2
274
3
275
0
276
0
277
2
278
46
279
2
280
0
281
0
282
0
283
0
284
8
285
0
286
0
288
1
289
3
290
0
340
4C
371
-2
372
-2
  0
DIMSTYLE
105
83
330
4
100
AcDbSymbolTableRecord
100
AcDbDimStyleTableRecord
  2
EZ_RADIUS
 70
0
 40
1.0
 41
0.25
 42
0.125
 43
3.75
 44
0.375
 45
0.0
 46
0.0
 47
0.0
 48
0.0
 49
2.5
140
0.25
141
0.0
142
0.0
143
0.03937007874
144
100.0
145
0.0
146
0.5
147
0.1
148
0.0
 69
0
 70
0
 71
0
 72
0
 73
0
 74
0
 75
0
 76
0
 77
1
 78
12
 79
3
170
0
171
3
172
0
173
0
174
0
175
0
176
0
177
0
178
0
179
2
271
2
272
2
273
2
274
3
275
0
276
0
277
2
278
46
279
1
280
0
281
0
282
0
283
0
284
8
285
0
286
0
288
1
289
3
290
0
340
4C
342
84
371
-2
372
-2
  0
DIMSTYLE
105
88
330
4
100
AcDbSymbolTableRecord
100
AcDbDimStyleTableRecord
  2
EZ_RADIUS_INSIDE
 70
0
 40
1.0
 41
0.25
 42
0.125
 43
3.75
 44
0.375
 45
0.0
 46
0.0
 47
0.0
 48
0.0
 49
2.5
140
0.25
141
0.0
142
0.0
143
0.03937007874
144
100.0
145
0.0
146
0.5
147
0.1
148
0.0
 69
0
 70
0
 71
0
 72
0
 73
0
 74
0
 75
0
 76
0
 77
0
 78
12
 79
3
170
0
171
3
172
0
173
0
174
1
175
0
176
0
177
0
178
0
179
2
271
2
272
2
273
2
274
3
275
0
276
0
277
2
278
46
279
0
280
0
281
0
282
0
283
0
284
8
285
0
286
0
288
1
289
0
290
0
340
4C
342
84
371
-2
372
-2
  0
DIMSTYLE
105
89
330
4
100
AcDbSymbolTableRecord
100
AcDbDimStyleTableRecord
  2
EZ_CURVED
 70
0
 40
1.0
 41
0.25
 42
0.125
 43
3.75
 44
0.375
 45
0.0
 46
0.0
 47
0.0
 48
0.0
 49
2.5
140
0.25
141
2.5
142
0.0
143
0.03937007874
144
100.0
145
0.0
146
0.5
147
0.1
148
0.0
 69
0
 70
0
 71
0
 72
0
 73
0
 74
0
 75
0
 76
0
 77
1
 78
12
 79
2
 90
2
170
0
171
3
172
1
173
0
174
0
175
0
176
0
177
0
178
0
179
2
271
2
272
2
273
2
274
3
275
0
276
0
277
2
278
46
279
2
280
0
281
0
282
0
283
0
284
8
285
0
286
0
288
1
289
3
290
0
340
4C
371
-2
372
-2
  0
ENDTAB
  0
TABLE
  2
BLOCK_RECORD
  5
9
330
0
100
AcDbSymbolTable
 70
5
  0
BLOCK_RECORD
  5
17
330
9
100
AcDbSymbolTableRecord
100
AcDbBlockTableRecord
  2
*Model_Space
340
1A
 70
0
280
1
281
0
  0
BLOCK_RECORD
  5
1B
330
9
100
AcDbSymbolTableRecord
100
AcDbBlockTableRecord
  2
*Paper_Space
340
1E
 70
0
280
1
281
0
  0
BLOCK_RECORD
  5
74
330
9
100
AcDbSymbolTableRecord
100
AcDbBlockTableRecord
  2
_ARCHTICK
340
0
 70
0
280
1
281
0
  0
BLOCK_RECORD
  5
78
330
9
100
AcDbSymbolTableRecord
100
AcDbBlockTableRecord
  2
_CLOSEDFILLED
340
0
 70
0
280
1
281
0
  0
BLOCK_RECORD
  5
84
330
9
100
AcDbSymbolTableRecord
100
AcDbBlockTableRecord
  2
_CLOSEDBLANK
340
0
 70
0
280
1
281
0
  0
ENDTAB
  0
ENDSEC
  0
SECTION
  2
BLOCKS
  0
BLOCK
  5
18
330
17
100
AcDbEntity
  8
0
100
AcDbBlockBegin
  2
*Model_Space
 70
0
 10
0.0
 20
0.0
 30
0.0
  3
*Model_Space
  1

  0
ENDBLK
  5
19
330
17
100
AcDbEntity
  8
0
100
AcDbBlockEnd
  0
BLOCK
  5
1C
330
1B
100
AcDbEntity
  8
0
100
AcDbBlockBegin
  2
*Paper_Space
 70
0
 10
0.0
 20
0.0
 30
0.0
  3
*Paper_Space
  1

  0
ENDBLK
  5
1D
330
1B
100
AcDbEntity
  8
0
100
AcDbBlockEnd
  0
BLOCK
  5
75
330
74
100
AcDbEntity
  8
0
100
AcDbBlockBegin
  2
_ARCHTICK
 70
0
 10
0.0
 20
0.0
 30
0.0
  3
_ARCHTICK
  1

  0
LWPOLYLINE
  5
77
330
74
100
AcDbEntity
  8
0
  6
BYBLOCK
 62
0
100
AcDbPolyline
 90
2
 70
0
 43
0.15
 10
-0.5
 20
-0.5
 10
0.5
 20
0.5
  0
ENDBLK
  5
76
330
74
100
AcDbEntity
  8
0
100
AcDbBlockEnd
  0
BLOCK
  5
79
330
78
100
AcDbEntity
  8
0
100
AcDbBlockBegin
  2
_CLOSEDFILLED
 70
0
 10
0.0
 20
0.0
 30
0.0
  3
_CLOSEDFILLED
  1

  0
SOLID
  5
7B
330
78
100
AcDbEntity
  8
0
  6
BYBLOCK
 62
0
100
AcDbTrace
 10
-1.0
 20
0.16439898372402537
 30
0.0
 11
0.0
 21
0.0
 31
0.0
 12
-1.0
 22
-0.16439898372402537
 32
0.0
 13
-1.0
 23
-0.16439898372402537
 33
0.0
  0
ENDBLK
  5
7A
330
78
100
AcDbEntity
  8
0
100
AcDbBlockEnd
  0
BLOCK
  5
85
330
84
100
AcDbEntity
  8
0
100
AcDbBlockBegin
  2
_CLOSEDBLANK
 70
0
 10
0.0
 20
0.0
 30
0.0
  3
_CLOSEDBLANK
  1

  0
LWPOLYLINE
  5
87
330
84
100
AcDbEntity
  8
0
  6
BYBLOCK
 62
0
100
AcDbPolyline
 90
3
 70
1
 10
-1.0
 20
0.16439898372402537
 10
0.0
 20
0.0
 10
-1.0
 20
-0.16439898372402537
  0
ENDBLK
  5
86
330
84
100
AcDbEntity
  8
0
100
AcDbBlockEnd
  0
ENDSEC
  0
SECTION
  2
ENTITIES
  0
LWPOLYLINE
  5
8C
330
17
100
AcDbEntity
  8
Layer
100
AcDbPolyline
 90
261
 70
1
 10
824.7964963628161
 20
127.00721306226549
 10
821.7351423115122
 20
128.11074126457282
 10
816.7481834483881
 20
129.90093320242312
 10
811.2689850118005
 20
131.84960394800558
 10
805.2931515008339
 20
133.9347194279675
 10
798.793854118411
 20
136.15343314562716
 10
791.8098376221658
 20
138.53443394205544
 10
784.4186613069867
 20
141.06831746249833
 10
776.7019649262504
 20
143.73666381004358
 10
768.7253651136302
 20
146.5183434201408
 10
760.5505375037337
 20
149.39223487193925
 10
752.2194959843555
 20
152.34286661497714
 10
743.7679166752011
 20
155.35282424571005
 10
735.22500306649
 20
158.41049962830724
 10
726.6093716953194
 20
161.50435910512252
 10
717.945173290356
 20
164.62066972455128
 10
709.2571823892413
 20
167.74836440394904
 10
700.5685758769926
 20
170.874057589402
 10
691.8941245223641
 20
173.98732599004148
 10
683.2453376958042
 20
177.08190521396622
 10
674.6325899226224
 20
180.14997848045715
 10
666.057690374171
 20
183.18588788559876
 10
657.5221121229565
 20
186.18666209450987
 10
649.0300242626124
 20
189.14798765062181
 10
640.583014256657
 20
192.06460893092873
 10
632.1796579120921
 20
194.93327458507352
 10
624.2783490364216
 20
197.59707724902032
 10
623.9588814635409
 20
196.64948004035105
 10
623.5053168868519
 20
196.80240688155422
 10
615.1971049436003
 20
199.56367283848704
 10
606.9321421838786
 20
202.2653491314545
 10
598.7042887666969
 20
204.9060100640724
 10
590.5104143309286
 20
207.48466486187675
 10
582.3471853720255
 20
209.99907713119853
 10
574.2080500040678
 20
212.44794799089505
 10
566.0865205543812
 20
214.83181055439266
 10
557.9792480267436
 20
217.15093269091335
 10
549.8837329210767
 20
219.40432980655876
 10
541.7952391697409
 20
221.59144985633876
 10
533.7088116849148
 20
223.71282341843414
 10
525.622592656624
 20
225.76943349497404
 10
517.5361020432686
 20
227.7606356710853
 10
509.4467317760365
 20
229.68549773442868
 10
501.35099581961737
 20
231.54468109480294
 10
493.2480585025585
 20
233.3391141559503
 10
485.1390229269799
 20
235.0682964765466
 10
477.02275694573467
 20
236.73134444451176
 10
468.8973239533185
 20
238.32848369300612
 10
460.7619156278263
 20
239.8604970331162
 10
452.6184170972381
 20
241.32740000902754
 10
444.4673188141405
 20
242.72810873656596
 10
436.3070505979306
 20
244.06242039526109
 10
428.13749770808573
 20
245.33122821803738
 10
419.96066353124627
 20
246.53422328167392
 10
411.7766969627857
 20
247.6701722993191
 10
403.5818343844389
 20
248.7384454898755
 10
395.37234422008913
 20
249.740761084361
 10
387.14983343104984
 20
250.67896114303818
 10
378.9180327859156
 20
251.5527973352557
 10
370.67790549370466
 20
252.36115059864198
 10
362.42839834572163
 20
253.10417607576773
 10
354.1716879466902
 20
253.78352775437568
 10
345.9135478496608
 20
254.3991598211802
 10
337.6576407534536
 20
254.94928456358429
 10
329.4039907896041
 20
255.4328336873516
 10
321.1540922941526
 20
255.85085926636802
 10
312.91331814808456
 20
256.2031888482269
 10
304.68582711068785
 20
256.48817111905043
 10
296.47152680742903
 20
256.70391372860286
 10
288.2709382725508
 20
256.85104151089644
 10
280.0890591542642
 20
256.929749974725
 10
271.9302547599551
 20
256.9382138727557
 10
263.7952391440528
 20
256.8743992966646
 10
255.684229119505
 20
256.7383730535283
 10
247.6023339998722
 20
256.5305043776938
 10
239.5549066069181
 20
256.2490812784734
 10
231.54281377668613
 20
255.89163233131586
 10
223.56734269252718
 20
255.45815732222218
 10
215.6341736450659
 20
254.9490996873869
 10
207.74966431293825
 20
254.3625230386799
 10
199.91514078770382
 20
253.69581357939165
 10
192.13324932872962
 20
252.9494877117911
 10
184.41186728425086
 20
252.1238886152367
 10
176.7571160773352
 20
251.2164812343634
 10
169.17127437091514
 20
250.22548457082343
 10
161.66003229064532
 20
249.15219525311733
 10
154.23293831361264
 20
247.99642033868756
 10
146.89614481122743
 20
246.75625369916995
 10
139.65494551306182
 20
245.4330740602093
 10
132.52436995875172
 20
244.03230182747183
 10
125.52247519007236
 20
242.55477185252442
 10
118.66022657534228
 20
240.99957622709888
 10
111.94978438532206
 20
239.3723093004449
 10
105.41301222460953
 20
237.68093075397516
 10
99.06946518442683
 20
235.9282181290453
 10
92.93275037544839
 20
234.11957233862628
 10
87.02155054355083
 20
232.26807694985112
 10
81.35879162875932
 20
230.3853446263506
 10
75.95998161510556
 20
228.47856082896737
 10
70.83531412447468
 20
226.56031768777214
 10
65.9966027872893
 20
224.64658514134257
 10
61.451796081713496
 20
222.74773645829106
 10
57.1994780781896
 20
220.8711709048378
 10
53.23372151379948
 20
219.0275600124534
 10
49.54787980268566
 20
217.22647031540694
 10
46.131711891128134
 20
215.4712601033431
 10
42.96990195444113
 20
213.7620234368773
 10
40.04470059488631
 20
212.10048264744685
 10
37.33974693947789
 20
210.48944173123067
 10
34.84012130949725
 20
208.92846790609974
 10
32.530390315634406
 20
207.41404144573164
 10
30.395134948982502
 20
205.9426179903965
 10
28.419571702421592
 20
204.51191175381078
 10
26.591592001656693
 20
203.12108700709146
 10
24.901285746914255
 20
201.767439794718
 10
23.339500747648913
 20
200.44611420248813
 10
21.895113331256027
 20
199.15063216658956
 10
20.555831330467527
 20
197.87880997972658
 10
19.30950641655744
 20
196.63150265193119
 10
18.147005132201002
 20
195.41394427974834
 10
17.063472216855587
 20
194.23007409491112
 10
16.059142458643237
 20
193.0828123036115
 10
15.136261286642025
 20
191.96780244281538
 10
14.29674208520396
 20
190.87844152693893
 10
13.539930578441101
 20
189.80578175389627
 10
12.861171388914727
 20
188.74124108487513
 10
12.253880505591951
 20
187.68262903965578
 10
11.710846582456497
 20
186.6314382744177
 10
11.22716295449402
 20
185.59416057284596
 10
10.800725635170465
 20
184.57577214608034
 10
10.432256335697389
 20
183.58050455149743
 10
10.123870535819833
 20
182.6087087864985
 10
9.87728130006792
 20
181.65744786686417
 10
9.692674644790998
 20
180.72368683382862
 10
9.568455899293781
 20
179.80502331260286
 10
9.498274582276906
 20
178.8216747984485
 10
9.488828602607725
 20
177.99614731497175
 10
9.533821145786078
 20
177.08636969115938
 10
9.642078204661232
 20
176.18038993052795
 10
9.82152003933453
 20
175.2823022231183
 10
10.08210797475192
 20
174.3914380474337
 10
10.432420566180667
 20
173.50571641695018
 10
10.875792113863838
 20
172.6252248838789
 10
11.409561704930297
 20
171.75284210495258
 10
12.027688169736734
 20
170.89373857046635
 10
12.726074492549344
 20
170.05284343431046
 10
13.504308772735214
 20
169.234082443938
 10
14.366090586209225
 20
168.43920112959802
 10
15.315139224048153
 20
167.66822227433948
 10
16.353766507595424
 20
166.91936326100478
 10
17.480839207390886
 20
166.19024497396762
 10
18.695434795591893
 20
165.4782645581959
 10
19.996711742984303
 20
164.78208022438182
 10
21.38855277747524
 20
164.1011644514295
 10
22.876667945538884
 20
163.43531275941723
 10
24.470287676030978
 20
162.78371990255113
 10
26.1785757024158
 20
162.14383147051214
 10
28.010749499635153
 20
161.5117194891571
 10
29.97693645546167
 20
160.8830589170023
 10
32.08782599502871
 20
160.25404334733787
 10
34.357699917466505
 20
159.62260160723176
 10
36.80405583150599
 20
158.98778589346213
 10
39.44812786648572
 20
158.34859666101966
 10
42.312772135769194
 20
157.703080166074
 10
45.42307855404414
 20
157.04934392489318
 10
48.805676882344244
 20
156.38663615635662
 10
52.49052198401239
 20
155.71616711441254
 10
56.50981436250572
 20
155.03998627341454
 10
60.89452246132714
 20
154.35900179698237
 10
65.67061230439367
 20
153.6747568061204
 10
70.85773064361288
 20
152.9924163032837
 10
76.46878870071964
 20
152.31940427376327
 10
82.50639119013155
 20
151.66139169951344
 10
88.9564552871816
 20
151.02311891210263
 10
95.79230074524114
 20
150.41287645929586
 10
102.98323368933168
 20
149.83765231515488
 10
110.49104239976668
 20
149.29944733077065
 10
118.27122499837103
 20
148.80114268641134
 10
126.28761907234988
 20
148.34615158750486
 10
134.50945460879908
 20
147.93278226501835
 10
142.90547601755466
 20
147.5591063219889
 10
151.4577798335479
 20
147.22623481608656
 10
160.1626810119776
 20
146.92734410044935
 10
168.9949549283967
 20
146.6459013174661
 10
169.92783119710805
 20
146.6174535588953
 10
169.89735069058645
 20
145.61791819747873
 10
177.8663795708095
 20
145.3749035284731
 10
186.79182772926418
 20
145.12617160540339
 10
195.74761260040475
 20
144.91452751469143
 10
204.768286532422
 20
144.73844303303758
 10
213.87207298488948
 20
144.58297501332754
 10
223.04168005840285
 20
144.4321551566373
 10
232.24296894243454
 20
144.27789507355277
 10
241.4479050802422
 20
144.12377632255382
 10
250.63619906837414
 20
143.9831638300497
 10
259.82686103551697
 20
143.86701129850275
 10
269.05363513810266
 20
143.77244140885864
 10
278.329745520276
 20
143.6868671467296
 10
287.63855733518756
 20
143.60074857249435
 10
296.96608631677145
 20
143.51407614038408
 10
306.3008436440979
 20
143.42907518426134
 10
315.63250917564676
 20
143.344600715589
 10
324.9474608125018
 20
143.2609350566543
 10
334.23895291695317
 20
143.18482956189396
 10
343.51861832101804
 20
143.1221318852438
 10
352.7991365122217
 20
143.06770658462764
 10
362.0748667303778
 20
143.00802870120586
 10
371.3514217746075
 20
142.93736293151642
 10
380.6288456606426
 20
142.86381438274907
 10
389.90471240101465
 20
142.79979645789015
 10
399.1901314575874
 20
142.745935811322
 10
408.48028853689726
 20
142.69391430019178
 10
417.75780211795654
 20
142.6402987512429
 10
427.01296316375755
 20
142.59408720831905
 10
436.2531853871381
 20
142.5617391512231
 10
445.4856769605035
 20
142.5356076069195
 10
454.6979678189336
 20
142.4977556994127
 10
463.90584050958915
 20
142.44071823892187
 10
473.1187345120045
 20
142.37322793958523
 10
482.3245422992223
 20
142.30834283845667
 10
491.4960862347184
 20
142.24087348259104
 10
500.6199146240157
 20
142.1540143723428
 10
509.71997848167905
 20
142.04097782918393
 10
518.8004777688096
 20
141.922958811885
 10
527.8419502460553
 20
141.83079060832858
 10
536.8841411751541
 20
141.7744154813215
 10
545.9410455523922
 20
141.72901013773372
 10
554.9932027763182
 20
141.66236410307118
 10
564.0625970421078
 20
141.56420659443538
 10
573.1618192068929
 20
141.45088324113186
 10
582.2530962847065
 20
141.3369543840706
 10
591.295313382225
 20
141.21164494613606
 10
600.2890075827188
 20
141.05025839144486
 10
609.2876848247631
 20
140.84354544861117
 10
618.3252077259192
 20
140.6108215648988
 10
627.37677945655
 20
140.37637575831846
 10
636.3928566251025
 20
140.14057625613205
 10
645.3401671498668
 20
139.87740276860177
 10
654.2567320961559
 20
139.56540705690375
 10
663.1963669671933
 20
139.20939580675932
 10
672.1666206531011
 20
138.83416880643745
 10
681.1125739097639
 20
138.45765063451773
 10
689.9750979439575
 20
138.06815256949739
 10
698.7478140113028
 20
137.63446947472528
 10
707.4900008875395
 20
137.13595006318644
 10
716.2621484579447
 20
136.58545471729929
 10
725.0526115421978
 20
136.01663652143333
 10
733.7796895879767
 20
135.442537649389
 10
742.3866214161683
 20
134.84243431045377
 10
750.8749491756638
 20
134.1994166391666
 10
759.2422076001837
 20
133.51955501288847
 10
767.4514895842998
 20
132.8128453107255
 10
775.4494686663268
 20
132.08409139040114
 10
783.1808934713177
 20
131.33008748759215
 10
790.6102235834103
 20
130.54036447070234
 10
797.7141936703149
 20
129.72611094239608
 10
804.4362203396915
 20
128.92442592022653
 10
810.6996370870283
 20
128.1640816884647
 10
816.4538879574923
 20
127.44400287394147
 10
821.7007232485257
 20
126.76409445188413
 10
824.9262251249637
 20
126.33951380840016
  0
LWPOLYLINE
  5
8D
330
17
100
AcDbEntity
  8
Layer
100
AcDbPolyline
 90
5
 70
0
 10
544.4804363260025
 20
216.72169999863326
 10
540.6191026208614
 20
217.7657795059227
 10
541.663182128151
 20
221.62711321106372
 10
545.5245158332921
 20
220.58303370377428
 10
544.4804363260025
 20
216.72169999863326
  0
LWPOLYLINE
  5
8E
330
17
100
AcDbEntity
  8
Layer
100
AcDbPolyline
 90
5
 70
0
 10
236.77413665405362
 20
252.121015950918
 10
232.77811305536284
 20
251.94270330777013
 10
232.59980041221496
 20
255.93872690646091
 10
236.59582401090574
 20
256.1170395496088
 10
236.77413665405362
 20
252.121015950918
  0
LWPOLYLINE
  5
8F
330
17
100
AcDbEntity
  8
Layer
100
AcDbPolyline
 90
5
 70
0
 10
97.16749855031874
 20
231.19744045895203
 10
93.33070639416145
 20
230.06650016413096
 10
92.19976609934041
 20
233.90329232028824
 10
96.0365582554977
 20
235.03423261510932
 10
97.16749855031874
 20
231.19744045895203
  0
LWPOLYLINE
  5
90
330
17
100
AcDbEntity
  8
Layer
100
AcDbPolyline
 90
5
 70
0
 10
26.8123514570046
 20
196.84453752564488
 10
25.323893211996864
 20
195.50868871201797
 10
21.984271177929525
 20
199.22983432453734
 10
23.47272942293726
 20
200.56568313816425
 10
26.8123514570046
 20
196.84453752564488
  0
LWPOLYLINE
  5
91
330
17
100
AcDbEntity
  8
Layer
100
AcDbPolyline
 90
5
 70
0
 10
18.341412635699772
 20
171.65060411965868
 10
19.965421700932477
 20
170.48330186401023
 10
17.04716606181132
 20
166.42327920092845
 10
15.423156996578614
 20
167.5905814565769
 10
18.341412635699772
 20
171.65060411965868
  0
LWPOLYLINE
  5
92
330
17
100
AcDbEntity
  8
Layer
100
AcDbPolyline
 90
5
 70
0
 10
127.24947497608368
 20
152.30284701086646
 10
131.2444295916753
 20
152.10200473602595
 10
131.0435873168348
 20
148.10705012043434
 10
127.04863270124316
 20
148.30789239527485
 10
127.24947497608368
 20
152.30284701086646
  0
LINE
  5
93
330
17
100
AcDbEntity
  8
Layer
100
AcDbLine
 10
806.0349670148422
 20
133.6758817262986
 30
0.0
 11
805.7095025422143
 21
132.7303274565409
 31
0.0
  0
LINE
  5
94
330
17
100
AcDbEntity
  8
Layer
100
AcDbLine
 10
805.1018640502557
 20
129.850296776505
 30
0.0
 11
805.0174999820681
 21
128.8538617791274
 31
0.0
  0
LINE
  5
95
330
17
100
AcDbEntity
  8
Layer
100
AcDbLine
 10
787.1102696408436
 20
140.14556556079626
 30
0.0
 11
786.785795329552
 21
139.19967105224265
 31
0.0
  0
LINE
  5
96
330
17
100
AcDbEntity
  8
Layer
100
AcDbLine
 10
785.2409408225151
 20
132.11671863275348
 30
0.0
 11
785.1420651619364
 21
131.12161883688117
 31
0.0
  0
LINE
  5
97
330
17
100
AcDbEntity
  8
Layer
100
AcDbLine
 10
711.7037080708863
 20
166.8676101024558
 30
0.0
 11
711.3728662482722
 21
165.92392387896336
 31
0.0
  0
LINE
  5
98
330
17
100
AcDbEntity
  8
Layer
100
AcDbLine
 10
705.4551457543087
 20
138.25324029180618
 30
0.0
 11
705.3710608200186
 21
137.25678170068187
 31
0.0
  0
LWPOLYLINE
  5
99
330
17
100
AcDbEntity
  8
Layer
100
AcDbPolyline
 90
300
 70
1
 10
364.20216841381676
 20
200.0
 10
364.19264347113915
 20
200.96224418697741
 10
364.1640728490529
 20
201.92406347401013
 10
364.1164691635405
 20
202.8850331487773
 10
364.0498534350492
 20
203.84472887412298
 10
363.9642550792096
 20
204.8027268754314
 10
363.85971189384577
 20
205.7586041277539
 10
363.73627004228547
 20
206.7119385426049
 10
363.59398403297524
 20
207.66230915434429
 10
363.43291669541134
 20
208.6092963060639
 10
363.25313915239576
 20
209.55248183489635
 10
363.0547307886306
 20
210.49144925666383
 10
362.83777921566383
 20
211.42578394978594
 10
362.60238023320267
 20
212.35507333836478
 10
362.348637786811
 20
213.27890707436688
 10
362.07666392201
 20
214.19687721882144
 10
361.78657873480205
 20
215.10857842195458
 10
361.4785103186395
 20
216.01360810218043
 10
361.1525947078625
 20
216.91156662386982
 10
360.80897581762986
 20
217.80205747381814
 10
360.44780538037026
 20
218.6846874363344
 10
360.0692428787814
 20
219.5590667668742
 10
359.67345547540697
 20
220.42480936413995
 10
359.2606179388225
 20
221.28153294057233
 10
358.83091256646236
 20
222.12885919115777
 10
358.3845291041221
 20
222.9664139604772
 10
357.92166466217265
 20
223.79382740792263
 10
357.44252362852137
 20
224.61073417100832
 10
356.94731757836024
 20
225.4167735267045
 10
356.4362651807405
 20
226.2115895507227
 10
355.90959210201424
 20
226.99483127468164
 10
355.3675309061865
 20
227.76615284108522
 10
354.8103209522218
 20
228.52521365604326
 10
354.2382082883496
 20
229.27167853966836
 10
353.6514455434167
 20
230.00521787408172
 10
353.0502918153332
 20
230.72550774896322
 10
352.4350125566623
 20
231.43223010458115
 10
351.80587945740376
 20
232.12507287223826
 10
351.1631703250234
 20
232.80373011207274
 10
350.5071689617811
 20
233.4679021481524
 10
349.83816503941165
 20
234.11729570080334
 10
349.156453971214
 20
234.7516240161139
 10
348.4623367816048
 20
235.37060699255707
 10
347.75611997319487
 20
235.97397130467556
 10
347.03811539144596
 20
236.5614505237745
 10
346.30864008696875
 20
237.13278523556903
 10
345.56801617552213
 20
237.6877231547341
 10
344.81657069577597
 20
238.22601923630674
 10
344.0546354649
 20
238.74743578389098
 10
343.2825469320429
 20
239.2517425546179
 10
342.5006460297656
 20
239.73871686081435
 10
341.70927802349513
 20
240.2081436683356
 10
340.90879235906516
 20
240.65981569151836
 10
340.0995425084104
 20
241.09353348471228
 10
339.2818858134837
 20
241.50910553034953
 10
338.45618332846357
 20
241.9063483235136
 10
337.62279966032287
 20
242.28508645296986
 10
336.7821028078287
 20
242.64515267862225
 10
335.9344639990447
 20
242.98638800536182
 10
335.0802575274067
 20
243.30864175327443
 10
334.21986058644563
 20
243.6117716241768
 10
333.35365310322953
 20
243.89564376445145
 10
332.48201757059826
 20
244.16013282415253
 10
331.6053388782655
 20
244.4051220123569
 10
330.72400414286227
 20
244.63050314873587
 10
329.8384025369971
 20
244.8361767113243
 10
328.9489251174084
 20
245.02205188046685
 10
328.05596465228496
 20
245.18804657892153
 10
327.1599154478302
 20
245.33408750810236
 10
326.2611731741481
 20
245.46011018044626
 10
325.3601346905261
 20
245.56605894788885
 10
324.4571978701931
 20
245.65188702643692
 10
323.5527614246305
 20
245.71755651682722
 10
322.64722472751157
 20
245.76303842126143
 10
321.74098763834996
 20
245.7883126562109
 10
320.83445032593255
 20
245.79336806128504
 10
319.9280130916165
 20
245.77820240415923
 10
319.02207619256717
 20
245.74282238156073
 10
318.1170396650161
 20
245.68724361631155
 10
317.21330314761593
 20
245.6114906504298
 10
316.31126570497156
 20
245.5155969342927
 10
315.41132565142436
 20
245.39960481186574
 10
314.5138803751675
 20
245.26356550200495
 10
313.61932616277096
 20
245.1075390758398
 10
312.7280580241922
 20
244.93159443024786
 10
311.8404695183509
 20
244.7358092574315
 10
310.9569525793447
 20
244.5202700106115
 10
310.0778973433818
 20
244.2850718658516
 10
309.20369197650797
 20
244.03031868003134
 10
308.3347225032034
 20
243.7561229449861
 10
307.471372635925
 20
243.46260573783343
 10
306.6140236056698
 20
243.14989666750927
 10
305.7630539936343
 20
242.81813381753588
 10
304.9188395640433
 20
242.46746368504836
 10
304.0817530982233
 20
242.09804111610538
 10
303.2521642299928
 20
241.7100292373138
 10
302.430439282442
 20
241.30359938379624
 10
301.6169411061753
 20
240.87893102353456
 10
300.8120289190864
 20
240.43621167812182
 10
300.01605814773797
 20
239.97563683995782
 10
299.22938027041505
 20
239.49740988592538
 10
298.4523426619224
 20
239.0017419875848
 10
297.6852884401935
 20
238.48885201792638
 10
296.92855631477914
 20
237.9589664547222
 10
296.1824804372831
 20
237.4123192805202
 10
295.4473902538099
 20
236.84915187932364
 10
294.723610359491
 20
236.26971293000315
 10
294.0114603551524
 20
235.67425829648687
 10
293.3112547061883
 20
235.06305091477822
 10
292.62330260370163
 20
234.43636067685077
 10
291.9479078279742
 20
233.7944643114716
 10
291.2853686143258
 20
233.1376452620054
 10
290.635977521422
 20
232.46619356125433
 10
290.00002130208827
 20
231.78040570338726
 10
289.3777807766882
 20
231.0805845130165
 10
288.769530709121
 20
230.36703901147897
 10
288.1755396854936
 20
229.640084280381
 10
287.59606999552057
 20
228.90004132246727
 10
287.0313775167041
 20
228.14723691987487
 10
286.48171160134615
 20
227.38200348983574
 10
285.9473149664413
 20
226.60467893789036
 10
285.42842358649955
 20
225.81560650867826
 10
284.92526658934696
 20
225.01513463437092
 10
284.43806615494896
 20
224.20361678081386
 10
283.96703741730215
 20
223.38141129144597
 10
283.51238836943713
 20
222.54888122906542
 10
283.0743197715745
 20
221.706394215511
 10
282.6530250624749
 20
220.85432226933094
 10
282.248690274022
 20
219.9930416415099
 10
281.8614939490759
 20
219.12293264932705
 10
281.4916070626336
 20
218.24437950841877
 10
281.1391929463315
 20
217.35777016311982
 10
280.80440721632243
 20
216.46349611515805
 10
280.48739770456024
 20
215.56195225077815
 10
280.18830439352104
 20
214.6535366663711
 10
279.9072593543912
 20
213.7386504926861
 10
279.6443866887483
 20
212.81769771770234
 10
279.39980247376127
 20
211.89108500823934
 10
279.17361471093415
 20
210.9592215303844
 10
278.9659232784155
 20
210.02251876881635
 10
278.77681988689534
 20
209.0813903451054
 10
278.6063880391077
 20
208.13625183506963
 10
278.45470299295874
 20
207.18752058526832
 10
278.32183172829485
 20
206.2356155287135
 10
278.2078329173259
 20
205.28095699988097
 10
278.11275689871763
 20
204.3239665491023
 10
278.0366456553635
 20
203.36506675642016
 10
277.9795327958457
 20
202.4046810449889
 10
277.94144353959547
 20
201.44323349410269
 10
277.9223947057559
 20
200.48114865193418
 10
277.9223947057559
 20
199.51885134806585
 10
277.94144353959547
 20
198.55676650589731
 10
277.9795327958457
 20
197.5953189550111
 10
278.0366456553635
 20
196.63493324357984
 10
278.11275689871763
 20
195.6760334508977
 10
278.2078329173259
 20
194.71904300011903
 10
278.32183172829485
 20
193.7643844712865
 10
278.45470299295874
 20
192.81247941473168
 10
278.6063880391077
 20
191.86374816493037
 10
278.77681988689534
 20
190.9186096548946
 10
278.9659232784156
 20
189.97748123118365
 10
279.17361471093415
 20
189.0407784696156
 10
279.39980247376127
 20
188.10891499176068
 10
279.6443866887483
 20
187.18230228229768
 10
279.90725935439116
 20
186.2613495073139
 10
280.18830439352104
 20
185.3464633336289
 10
280.4873977045602
 20
184.43804774922188
 10
280.80440721632243
 20
183.53650388484195
 10
281.1391929463315
 20
182.64222983688015
 10
281.49160706263365
 20
181.75562049158123
 10
281.8614939490759
 20
180.87706735067297
 10
282.248690274022
 20
180.00695835849012
 10
282.6530250624749
 20
179.14567773066906
 10
283.0743197715745
 20
178.29360578448902
 10
283.51238836943713
 20
177.45111877093458
 10
283.96703741730215
 20
176.618588708554
 10
284.43806615494896
 20
175.79638321918614
 10
284.9252665893469
 20
174.98486536562908
 10
285.42842358649955
 20
174.18439349132174
 10
285.9473149664413
 20
173.39532106210964
 10
286.48171160134615
 20
172.61799651016426
 10
287.0313775167041
 20
171.85276308012513
 10
287.59606999552057
 20
171.09995867753275
 10
288.1755396854936
 20
170.35991571961898
 10
288.76953070912106
 20
169.63296098852103
 10
289.3777807766882
 20
168.9194154869835
 10
290.00002130208827
 20
168.21959429661274
 10
290.635977521422
 20
167.53380643874567
 10
291.28536861432576
 20
166.8623547379946
 10
291.9479078279742
 20
166.20553568852844
 10
292.62330260370163
 20
165.56363932314923
 10
293.31125470618827
 20
164.93694908522178
 10
294.0114603551524
 20
164.32574170351313
 10
294.723610359491
 20
163.73028706999685
 10
295.4473902538099
 20
163.15084812067636
 10
296.18248043728306
 20
162.58768071947983
 10
296.92855631477914
 20
162.0410335452778
 10
297.6852884401935
 20
161.51114798207362
 10
298.4523426619224
 20
160.9982580124152
 10
299.22938027041505
 20
160.50259011407462
 10
300.01605814773797
 20
160.02436316004218
 10
300.8120289190864
 20
159.56378832187818
 10
301.6169411061753
 20
159.1210689764654
 10
302.430439282442
 20
158.69640061620376
 10
303.2521642299928
 20
158.28997076268624
 10
304.0817530982233
 20
157.90195888389462
 10
304.91883956404325
 20
157.53253631495167
 10
305.76305399363423
 20
157.18186618246412
 10
306.6140236056698
 20
156.85010333249073
 10
307.471372635925
 20
156.53739426216657
 10
308.3347225032034
 20
156.2438770550139
 10
309.20369197650797
 20
155.96968131996866
 10
310.0778973433818
 20
155.7149281341484
 10
310.9569525793447
 20
155.4797299893885
 10
311.8404695183509
 20
155.2641907425685
 10
312.7280580241922
 20
155.06840556975214
 10
313.619326162771
 20
154.8924609241602
 10
314.51388037516756
 20
154.73643449799505
 10
315.41132565142436
 20
154.60039518813426
 10
316.31126570497156
 20
154.4844030657073
 10
317.2133031476159
 20
154.3885093495702
 10
318.117039665016
 20
154.31275638368845
 10
319.02207619256717
 20
154.25717761843927
 10
319.9280130916165
 20
154.22179759584077
 10
320.83445032593255
 20
154.20663193871496
 10
321.74098763834996
 20
154.2116873437891
 10
322.64722472751157
 20
154.23696157873857
 10
323.5527614246305
 20
154.28244348317278
 10
324.4571978701931
 20
154.34811297356308
 10
325.3601346905261
 20
154.43394105211115
 10
326.2611731741481
 20
154.53988981955374
 10
327.15991544783026
 20
154.66591249189764
 10
328.05596465228496
 20
154.81195342107847
 10
328.9489251174084
 20
154.97794811953315
 10
329.838402536997
 20
155.1638232886757
 10
330.7240041428622
 20
155.3694968512641
 10
331.6053388782655
 20
155.5948779876431
 10
332.48201757059826
 20
155.83986717584747
 10
333.35365310322953
 20
156.10435623554852
 10
334.2198605864456
 20
156.38822837582316
 10
335.0802575274066
 20
156.69135824672557
 10
335.9344639990447
 20
157.01361199463818
 10
336.7821028078287
 20
157.35484732137775
 10
337.62279966032287
 20
157.71491354703014
 10
338.45618332846357
 20
158.0936516764864
 10
339.28188581348377
 20
158.49089446965047
 10
340.0995425084104
 20
158.90646651528772
 10
340.90879235906516
 20
159.34018430848164
 10
341.70927802349513
 20
159.7918563316644
 10
342.5006460297656
 20
160.26128313918565
 10
343.2825469320429
 20
160.74825744538208
 10
344.0546354649
 20
161.25256421610902
 10
344.8165706957759
 20
161.77398076369326
 10
345.56801617552213
 20
162.3122768452659
 10
346.30864008696875
 20
162.86721476443097
 10
347.03811539144596
 20
163.43854947622546
 10
347.75611997319487
 20
164.02602869532444
 10
348.4623367816048
 20
164.62939300744293
 10
349.156453971214
 20
165.2483759838861
 10
349.83816503941165
 20
165.88270429919666
 10
350.5071689617811
 20
166.5320978518476
 10
351.1631703250234
 20
167.19626988792726
 10
351.80587945740376
 20
167.87492712776174
 10
352.4350125566623
 20
168.56776989541885
 10
353.0502918153332
 20
169.27449225103675
 10
353.6514455434167
 20
169.99478212591828
 10
354.23820828834954
 20
170.7283214603316
 10
354.81032095222173
 20
171.4747863439567
 10
355.3675309061865
 20
172.23384715891476
 10
355.90959210201424
 20
173.00516872531833
 10
356.4362651807405
 20
173.78841044927728
 10
356.94731757836024
 20
174.5832264732955
 10
357.44252362852137
 20
175.38926582899168
 10
357.92166466217265
 20
176.20617259207737
 10
358.3845291041221
 20
177.0335860395228
 10
358.83091256646236
 20
177.87114080884223
 10
359.2606179388225
 20
178.71846705942767
 10
359.67345547540697
 20
179.57519063586005
 10
360.0692428787814
 20
180.4409332331258
 10
360.44780538037026
 20
181.31531256366557
 10
360.80897581762986
 20
182.19794252618183
 10
361.1525947078625
 20
183.08843337613015
 10
361.4785103186395
 20
183.98639189781954
 10
361.78657873480205
 20
184.8914215780454
 10
362.07666392201
 20
185.80312278117856
 10
362.348637786811
 20
186.72109292563312
 10
362.60238023320267
 20
187.64492666163522
 10
362.83777921566383
 20
188.57421605021406
 10
363.0547307886306
 20
189.50855074333617
 10
363.25313915239576
 20
190.44751816510367
 10
363.43291669541134
 20
191.3907036939361
 10
363.59398403297524
 20
192.33769084565574
 10
363.73627004228547
 20
193.28806145739512
 10
363.85971189384577
 20
194.24139587224613
 10
363.9642550792096
 20
195.19727312456857
 10
364.0498534350492
 20
196.155271125877
 10
364.1164691635405
 20
197.11496685122268
 10
364.1640728490529
 20
198.07593652598987
 10
364.19264347113915
 20
199.03775581302259
 10
364.20216841381676
 20
200.0
  0
LINE
  5
9A
330
17
100
AcDbEntity
  8
Layer
 62
7
100
AcDbLine
 10
22.842109257460493
 20
200.00000000000003
 30
0.0
 11
613.8622937560622
 21
199.99999999999997
 31
0.0
  0
LINE
  5
9B
330
17
100
AcDbEntity
  8
Layer
 62
7
100
AcDbLine
 10
138.94614615718086
 20
200.00000000000003
 30
0.0
 11
150.94614615718086
 21
200.00000000000003
 31
0.0
  0
LWPOLYLINE
  5
9C
330
17
100
AcDbEntity
  8
Layer
100
AcDbPolyline
 90
5
 70
0
 10
144.94614615718086
 20
205.00000000000003
 10
149.94614615718086
 20
200.00000000000003
 10
144.94614615718086
 20
195.00000000000003
 10
139.94614615718086
 20
200.00000000000003
 10
144.94614615718086
 20
205.00000000000003
  0
LINE
  5
9D
330
17
100
AcDbEntity
  8
Layer
 62
7
100
AcDbLine
 10
312.35220150676133
 20
200.0
 30
0.0
 11
324.35220150676133
 21
200.0
 31
0.0
  0
LWPOLYLINE
  5
9E
330
17
100
AcDbEntity
  8
Layer
100
AcDbPolyline
 90
5
 70
0
 10
318.35220150676133
 20
205.0
 10
323.35220150676133
 20
200.0
 10
318.35220150676133
 20
195.0
 10
313.35220150676133
 20
200.0
 10
318.35220150676133
 20
205.0
  0
LINE
  5
9F
330
17
100
AcDbEntity
  8
Layer
 62
7
100
AcDbLine
 10
485.75825685634186
 20
199.99999999999997
 30
0.0
 11
497.75825685634186
 21
199.99999999999997
 31
0.0
  0
LWPOLYLINE
  5
A0
330
17
100
AcDbEntity
  8
Layer
100
AcDbPolyline
 90
5
 70
0
 10
491.75825685634186
 20
204.99999999999997
 10
496.75825685634186
 20
199.99999999999997
 10
491.75825685634186
 20
194.99999999999997
 10
486.75825685634186
 20
199.99999999999997
 10
491.75825685634186
 20
204.99999999999997
  0
LINE
  5
A1
330
17
100
AcDbEntity
  8
Layer
 62
7
100
AcDbLine
 10
9.554522062080025
 20
179.60978875869662
 30
0.0
 11
824.2258513522005
 21
127.21291382479302
 31
0.0
  0
LINE
  5
A2
330
17
100
AcDbEntity
  8
Layer
 62
7
100
AcDbLine
 10
170.39311794475353
 20
169.26520010065153
 30
0.0
 11
182.36837494675692
 21
168.49499250787656
 31
0.0
  0
LWPOLYLINE
  5
A3
330
17
100
AcDbEntity
  8
Layer
100
AcDbPolyline
 90
5
 70
0
 10
176.70166627607813
 20
173.86978672176548
 10
181.37043686325666
 20
168.55917647394114
 10
176.0598266154323
 20
163.8904058867626
 10
171.3910560282538
 20
169.20101613458695
 10
176.70166627607813
 20
173.86978672176548
  0
LINE
  5
A4
330
17
100
AcDbEntity
  8
Layer
 62
7
100
AcDbLine
 10
370.8176514959077
 20
156.3745792568855
 30
0.0
 11
382.7929084979111
 21
155.60437166411054
 31
0.0
  0
LWPOLYLINE
  5
A5
330
17
100
AcDbEntity
  8
Layer
100
AcDbPolyline
 90
5
 70
0
 10
377.1261998272323
 20
160.97916587799946
 10
381.79497041441084
 20
155.66855563017512
 10
376.4843601665865
 20
150.9997850429966
 10
371.81558957940797
 20
156.31039529082094
 10
377.1261998272323
 20
160.97916587799946
  0
LINE
  5
A6
330
17
100
AcDbEntity
  8
Layer
100
AcDbLine
 10
321.06109090909086
 20
245.79399999999998
 30
0.0
 11
321.06109090909086
 21
246.79399999999998
 31
0.0
  0
LINE
  5
A7
330
17
100
AcDbEntity
  8
Layer
100
AcDbLine
 10
321.06109090909086
 20
154.20600000000002
 30
0.0
 11
321.06109090909086
 21
153.20600000000002
 31
0.0
  0
LINE
  5
A8
330
17
100
AcDbEntity
  8
Layer
100
AcDbLine
 10
364.20216841381676
 20
200.0
 30
0.0
 11
365.20216841381676
 21
200.0
 31
0.0
  0
LINE
  5
A9
330
17
100
AcDbEntity
  8
Layer
100
AcDbLine
 10
277.92001340436497
 20
200.0
 30
0.0
 11
276.92001340436497
 21
200.0
 31
0.0
  0
LINE
  5
AA
330
17
100
AcDbEntity
  8
Layer
 62
7
100
AcDbLine
 10
171.06109090909086
 20
145.58243006608166
 30
0.0
 11
171.06109090909086
 21
250.47236579462353
 31
0.0
  0
LINE
  5
AB
330
17
100
AcDbEntity
  8
Layer
 62
7
100
AcDbLine
 10
171.06109090909086
 20
178.2439075710713
 30
0.0
 11
171.06109090909086
 21
190.2439075710713
 31
0.0
  0
LWPOLYLINE
  5
AC
330
17
100
AcDbEntity
  8
Layer
100
AcDbPolyline
 90
5
 70
0
 10
166.06109090909086
 20
184.2439075710713
 10
171.06109090909086
 20
189.2439075710713
 10
176.06109090909086
 20
184.2439075710713
 10
171.06109090909086
 20
179.2439075710713
 10
166.06109090909086
 20
184.2439075710713
  0
LINE
  5
AD
330
17
100
AcDbEntity
  8
Layer
 62
7
100
AcDbLine
 10
171.06109090909086
 20
205.81088828963388
 30
0.0
 11
171.06109090909086
 21
217.81088828963388
 31
0.0
  0
LWPOLYLINE
  5
AE
330
17
100
AcDbEntity
  8
Layer
100
AcDbPolyline
 90
5
 70
0
 10
166.06109090909086
 20
211.81088828963388
 10
171.06109090909086
 20
216.81088828963388
 10
176.06109090909086
 20
211.81088828963388
 10
171.06109090909086
 20
206.81088828963388
 10
166.06109090909086
 20
211.81088828963388
  0
LINE
  5
AF
330
17
100
AcDbEntity
  8
Layer
 62
7
100
AcDbLine
 10
621.0610909090908
 20
140.53995913805443
 30
0.0
 11
621.0610909090908
 21
197.6147547163882
 31
0.0
  0
LINE
  5
B0
330
17
100
AcDbEntity
  8
Layer
 62
7
100
AcDbLine
 10
621.0610909090908
 20
156.46613759047125
 30
0.0
 11
621.0610909090908
 21
168.46613759047125
 31
0.0
  0
LWPOLYLINE
  5
B1
330
17
100
AcDbEntity
  8
Layer
100
AcDbPolyline
 90
5
 70
0
 10
616.0610909090908
 20
162.46613759047125
 10
621.0610909090908
 20
167.46613759047125
 10
626.0610909090908
 20
162.46613759047125
 10
621.0610909090908
 20
157.46613759047125
 10
616.0610909090908
 20
162.46613759047125
  0
LINE
  5
B2
330
17
100
AcDbEntity
  8
Layer
 62
7
100
AcDbLine
 10
621.0610909090908
 20
169.68857626397138
 30
0.0
 11
621.0610909090908
 21
181.68857626397138
 31
0.0
  0
LWPOLYLINE
  5
B3
330
17
100
AcDbEntity
  8
Layer
100
AcDbPolyline
 90
5
 70
0
 10
616.0610909090908
 20
175.68857626397138
 10
621.0610909090908
 20
180.68857626397138
 10
626.0610909090908
 20
175.68857626397138
 10
621.0610909090908
 20
170.68857626397138
 10
616.0610909090908
 20
175.68857626397138
  0
LWPOLYLINE
  5
B4
330
17
100
AcDbEntity
  8
NumLabel
 62
1
100
AcDbPolyline
 90
5
 70
0
 10
239.20290909090906
 20
169.07090909090908
 10
239.20290909090906
 20
164.07090909090908
 10
244.20290909090906
 20
164.07090909090908
 10
244.20290909090906
 20
169.07090909090908
 10
244.20290909090906
 20
159.07090909090908
  0
LWPOLYLINE
  5
B5
330
17
100
AcDbEntity
  8
NumLabel
 62
1
100
AcDbPolyline
 90
2
 70
0
 10
249.20290909090906
 20
169.07090909090908
 10
249.20290909090906
 20
159.07090909090908
  0
ENDSEC
  0
SECTION
  2
OBJECTS
  0
DICTIONARY
  5
A
330
0
100
AcDbDictionary
280
0
281
1
  3
ACAD_COLOR
350
B
  3
ACAD_GROUP
350
C
  3
ACAD_LAYOUT
350
D
  3
ACAD_MATERIAL
350
E
  3
ACAD_MLEADERSTYLE
350
F
  3
ACAD_MLINESTYLE
350
10
  3
ACAD_PLOTSETTINGS
350
11
  3
ACAD_PLOTSTYLENAME
350
12
  3
ACAD_SCALELIST
350
14
  3
ACAD_TABLESTYLE
350
15
  3
ACAD_VISUALSTYLE
350
16
  3
EZDXF_META
350
2D
  0
DICTIONARY
  5
B
330
A
100
AcDbDictionary
280
0
281
1
  0
DICTIONARY
  5
C
330
A
100
AcDbDictionary
280
0
281
1
  0
DICTIONARY
  5
D
330
A
100
AcDbDictionary
280
0
281
1
  3
Model
350
1A
  3
Layout1
350
1E
  0
DICTIONARY
  5
E
330
A
100
AcDbDictionary
280
0
281
1
  3
ByBlock
350
1F
  3
ByLayer
350
20
  3
Global
350
21
  0
DICTIONARY
  5
F
330
A
100
AcDbDictionary
280
0
281
1
  3
Standard
350
2C
  0
DICTIONARY
  5
10
330
A
100
AcDbDictionary
280
0
281
1
  3
Standard
350
22
  0
DICTIONARY
  5
11
330
A
100
AcDbDictionary
280
0
281
1
  0
ACDBDICTIONARYWDFLT
  5
12
330
A
100
AcDbDictionary
280
0
281
1
  3
Normal
350
13
100
AcDbDictionaryWithDefault
340
13
  0
ACDBPLACEHOLDER
  5
13
330
12
  0
DICTIONARY
  5
14
330
A
100
AcDbDictionary
280
0
281
1
  0
DICTIONARY
  5
15
330
A
100
AcDbDictionary
280
0
281
1
  0
DICTIONARY
  5
16
330
A
100
AcDbDictionary
280
0
281
1
  3
2dWireframe
350
5A
  3
Basic
350
5B
  3
Brighten
350
5C
  3
ColorChange
350
5D
  3
Conceptual
350
5E
  3
Dim
350
5F
  3
EdgeColorOff
350
60
  3
Facepattern
350
61
  3
Flat
350
62
  3
FlatWithEdges
350
63
  3
Gouraud
350
64
  3
GouraudWithEdges
350
65
  3
Hidden
350
66
  3
JitterOff
350
67
  3
Linepattern
350
68
  3
Modeling
350
69
  3
OverhangOff
350
6A
  3
Realistic
350
6B
  3
Shaded
350
6C
  3
Shaded with edges
350
6D
  3
Shades of Gray
350
6E
  3
Sketchy
350
6F
  3
Thicken
350
70
  3
Wireframe
350
71
  3
X-Ray
350
72
  0
LAYOUT
  5
1A
330
D
100
AcDbPlotSettings
  1

  2
Adobe PDF
  4
A3
  6

 40
7.5
 41
20.0
 42
7.5
 43
20.0
 44
420.0
 45
297.0
 46
0.0
 47
0.0
 48
0.0
 49
0.0
140
0.0
141
0.0
142
1.0
143
1.0
 70
1024
 72
1
 73
0
 74
5
  7

 75
16
 76
0
 77
2
 78
300
147
1.0
148
0.0
149
0.0
100
AcDbLayout
  1
Model
 70
1
 71
0
 10
0.0
 20
0.0
 11
420.0
 21
297.0
 12
0.0
 22
0.0
 32
0.0
 14
1e+20
 24
1e+20
 34
1e+20
 15
-1e+20
 25
-1e+20
 35
-1e+20
146
0.0
 13
0.0
 23
0.0
 33
0.0
 16
1.0
 26
0.0
 36
0.0
 17
0.0
 27
1.0
 37
0.0
 76
1
330
17
  0
LAYOUT
  5
1E
330
D
100
AcDbPlotSettings
  1

  2
Adobe PDF
  4
A3
  6

 40
7.5
 41
20.0
 42
7.5
 43
20.0
 44
420.0
 45
297.0
 46
0.0
 47
0.0
 48
0.0
 49
0.0
140
0.0
141
0.0
142
1.0
143
1.0
 70
0
 72
1
 73
0
 74
5
  7

 75
16
 76
0
 77
2
 78
300
147
1.0
148
0.0
149
0.0
100
AcDbLayout
  1
Layout1
 70
1
 71
1
 10
0.0
 20
0.0
 11
420.0
 21
297.0
 12
0.0
 22
0.0
 32
0.0
 14
1e+20
 24
1e+20
 34
1e+20
 15
-1e+20
 25
-1e+20
 35
-1e+20
146
0.0
 13
0.0
 23
0.0
 33
0.0
 16
1.0
 26
0.0
 36
0.0
 17
0.0
 27
1.0
 37
0.0
 76
1
330
1B
  0
MATERIAL
  5
1F
102
{ACAD_REACTORS
330
E
102
}
330
E
100
AcDbMaterial
  1
ByBlock
  2

 70
0
 40
1.0
 71
1
 41
1.0
 91
-1023410177
 42
1.0
 72
1
  3

 73
1
 74
1
 75
1
 44
0.5
 73
0
 45
1.0
 46
1.0
 77
1
  4

 78
1
 79
1
170
1
 48
1.0
171
1
  6

172
1
173
1
174
1
140
1.0
141
1.0
175
1
  7

176
1
177
1
178
1
143
1.0
179
1
  8

270
1
271
1
272
1
145
1.0
146
1.0
273
1
  9

274
1
275
1
276
1
 42
1.0
 72
1
  3

 73
1
 74
1
 75
1
 94
63
  0
MATERIAL
  5
20
102
{ACAD_REACTORS
330
E
102
}
330
E
100
AcDbMaterial
  1
ByLayer
  2

 70
0
 40
1.0
 71
1
 41
1.0
 91
-1023410177
 42
1.0
 72
1
  3

 73
1
 74
1
 75
1
 44
0.5
 73
0
 45
1.0
 46
1.0
 77
1
  4

 78
1
 79
1
170
1
 48
1.0
171
1
  6

172
1
173
1
174
1
140
1.0
141
1.0
175
1
  7

176
1
177
1
178
1
143
1.0
179
1
  8

270
1
271
1
272
1
145
1.0
146
1.0
273
1
  9

274
1
275
1
276
1
 42
1.0
 72
1
  3

 73
1
 74
1
 75
1
 94
63
  0
MATERIAL
  5
21
102
{ACAD_REACTORS
330
E
102
}
330
E
100
AcDbMaterial
  1
Global
  2

 70
0
 40
1.0
 71
1
 41
1.0
 91
-1023410177
 42
1.0
 72
1
  3

 73
1
 74
1
 75
1
 44
0.5
 73
0
 45
1.0
 46
1.0
 77
1
  4

 78
1
 79
1
170
1
 48
1.0
171
1
  6

172
1
173
1
174
1
140
1.0
141
1.0
175
1
  7

176
1
177
1
178
1
143
1.0
179
1
  8

270
1
271
1
272
1
145
1.0
146
1.0
273
1
  9

274
1
275
1
276
1
 42
1.0
 72
1
  3

 73
1
 74
1
 75
1
 94
63
  0
MLINESTYLE
  5
22
102
{ACAD_REACTORS
330
10
102
}
330
10
100
AcDbMlineStyle
  2
Standard
 70
0
  3

 62
256
 51
90.0
 52
90.0
 71
2
 49
0.5
 62
256
  6
BYLAYER
 49
-0.5
 62
256
  6
BYLAYER
  0
MLEADERSTYLE
  5
2C
102
{ACAD_REACTORS
330
F
102
}
330
F
100
AcDbMLeaderStyle
179
2
170
2
171
1
172
0
 90
2
 40
0.0
 41
0.0
173
1
 91
-1056964608
 92
-2
290
1
 42
2.0
291
1
 43
8.0
  3
Standard
 44
4.0
300

342
29
174
1
175
1
176
0
178
1
 93
-1056964608
 45
4.0
292
0
297
0
 46
4.0
 94
-1056964608
 47
1.0
 49
1.0
140
1.0
294
1
141
0.0
177
0
142
1.0
295
0
296
0
143
3.75
271
0
272
9
273
9
  0
DICTIONARY
  5
2D
330
A
100
AcDbDictionary
281
1
  3
CREATED_BY_EZDXF
350
2E
  3
WRITTEN_BY_EZDXF
350
B8
  0
DICTIONARYVAR
  5
2E
330
2D
100
DictionaryVariables
280
0
  1
1.3.0 @ 2026-01-06T17:07:15.984076+00:00
  0
VISUALSTYLE
  5
5A
102
{ACAD_REACTORS
330
16
102
}
330
16
100
AcDbVisualStyle
  2
2dWireframe
 70
4
 90
0
 40
0.6
 62
7
290
0
291
0
  0
VISUALSTYLE
  5
5B
102
{ACAD_REACTORS
330
16
102
}
330
16
100
AcDbVisualStyle
  2
Basic
 70
7
 90
1
 40
0.6
 62
7
290
0
291
1
  0
VISUALSTYLE
  5
5C
102
{ACAD_REACTORS
330
16
102
}
330
16
100
AcDbVisualStyle
  2
Brighten
 70
12
 90
2
 40
0.6
 62
7
290
0
291
1
  0
VISUALSTYLE
  5
5D
102
{ACAD_REACTORS
330
16
102
}
330
16
100
AcDbVisualStyle
  2
ColorChange
 70
16
 90
2
 40
0.6
 62
8
290
0
291
1
  0
VISUALSTYLE
  5
5E
102
{ACAD_REACTORS
330
16
102
}
330
16
100
AcDbVisualStyle
  2
Conceptual
 70
9
 90
3
 40
0.6
 62
7
290
0
291
0
  0
VISUALSTYLE
  5
5F
102
{ACAD_REACTORS
330
16
102
}
330
16
100
AcDbVisualStyle
  2
Dim
 70
11
 90
2
 40
0.6
 62
7
290
0
291
1
  0
VISUALSTYLE
  5
60
102
{ACAD_REACTORS
330
16
102
}
330
16
100
AcDbVisualStyle
  2
EdgeColorOff
 70
22
 90
2
 40
0.6
 62
7
290
0
291
1
  0
VISUALSTYLE
  5
61
102
{ACAD_REACTORS
330
16
102
}
330
16
100
AcDbVisualStyle
  2
Facepattern
 70
15
 90
2
 40
0.6
 62
7
290
0
291
1
  0
VISUALSTYLE
  5
62
102
{ACAD_REACTORS
330
16
102
}
330
16
100
AcDbVisualStyle
  2
Flat
 70
0
 90
2
 40
0.6
 62
7
290
0
291
1
  0
VISUALSTYLE
  5
63
102
{ACAD_REACTORS
330
16
102
}
330
16
100
AcDbVisualStyle
  2
FlatWithEdges
 70
1
 90
2
 40
0.6
 62
7
290
0
291
1
  0
VISUALSTYLE
  5
64
102
{ACAD_REACTORS
330
16
102
}
330
16
100
AcDbVisualStyle
  2
Gouraud
 70
2
 90
2
 40
0.6
 62
7
290
0
291
1
  0
VISUALSTYLE
  5
65
102
{ACAD_REACTORS
330
16
102
}
330
16
100
AcDbVisualStyle
  2
GouraudWithEdges
 70
3
 90
2
 40
0.6
 62
7
290
0
291
1
  0
VISUALSTYLE
  5
66
102
{ACAD_REACTORS
330
16
102
}
330
16
100
AcDbVisualStyle
  2
Hidden
 70
6
 90
1
 40
0.6
 62
7
290
0
291
0
  0
VISUALSTYLE
  5
67
102
{ACAD_REACTORS
330
16
102
}
330
16
100
AcDbVisualStyle
  2
JitterOff
 70
20
 90
2
 40
0.6
 62
7
290
0
291
1
  0
VISUALSTYLE
  5
68
102
{ACAD_REACTORS
330
16
102
}
330
16
100
AcDbVisualStyle
  2
Linepattern
 70
14
 90
2
 40
0.6
 62
7
290
0
291
1
  0
VISUALSTYLE
  5
69
102
{ACAD_REACTORS
330
16
102
}
330
16
100
AcDbVisualStyle
  2
Modeling
 70
10
 90
2
 40
0.6
 62
7
290
0
291
0
  0
VISUALSTYLE
  5
6A
102
{ACAD_REACTORS
330
16
102
}
330
16
100
AcDbVisualStyle
  2
OverhangOff
 70
21
 90
2
 40
0.6
 62
7
290
0
291
1
  0
VISUALSTYLE
  5
6B
102
{ACAD_REACTORS
330
16
102
}
330
16
100
AcDbVisualStyle
  2
Realistic
 70
8
 90
2
 40
0.6
 62
7
290
0
291
0
  0
VISUALSTYLE
  5
6C
102
{ACAD_REACTORS
330
16
102
}
330
16
100
AcDbVisualStyle
  2
Shaded
 70
27
 90
2
 40
0.6
 62
7
290
0
291
0
  0
VISUALSTYLE
  5
6D
102
{ACAD_REACTORS
330
16
102
}
330
16
100
AcDbVisualStyle
  2
Shaded with edges
 70
26
 90
2
 40
0.6
 62
7
290
0
291
0
  0
VISUALSTYLE
  5
6E
102
{ACAD_REACTORS
330
16
102
}
330
16
100
AcDbVisualStyle
  2
Shades of Gray
 70
23
 90
2
 40
0.6
 62
7
290
0
291
0
  0
VISUALSTYLE
  5
6F
102
{ACAD_REACTORS
330
16
102
}
330
16
100
AcDbVisualStyle
  2
Sketchy
 70
24
 90
1
 40
0.6
 62
7
290
0
291
0
  0
VISUALSTYLE
  5
70
102
{ACAD_REACTORS
330
16
102
}
330
16
100
AcDbVisualStyle
  2
Thicken
 70
13
 90
2
 40
0.6
 62
7
290
0
291
1
  0
VISUALSTYLE
  5
71
102
{ACAD_REACTORS
330
16
102
}
330
16
100
AcDbVisualStyle
  2
Wireframe
 70
5
 90
0
 40
0.6
 62
7
290
0
291
0
  0
VISUALSTYLE
  5
72
102
{ACAD_REACTORS
330
16
102
}
330
16
100
AcDbVisualStyle
  2
X-Ray
 70
25
 90
2
 40
0.5
 62
7
290
0
291
0
  0
DICTIONARYVAR
  5
B8
330
2D
100
DictionaryVariables
280
0
  1
1.3.0 @ 2026-01-06T17:07:16.127018+00:00
  0
ENDSEC
  0
EOF
