<?xml version="1.0" encoding="utf-8" standalone="no"?>
<!DOCTYPE svg PUBLIC "-//W3C//DTD SVG 1.1//EN"
  "http://www.w3.org/Graphics/SVG/1.1/DTD/svg11.dtd">
<svg xmlns:xlink="http://www.w3.org/1999/xlink" width="1152pt" height="184.104183pt" viewBox="0 0 1152 184.104183" xmlns="http://www.w3.org/2000/svg" version="1.1">
 <metadata>
  <rdf:RDF xmlns:dc="http://purl.org/dc/elements/1.1/" xmlns:cc="http://creativecommons.org/ns#" xmlns:rdf="http://www.w3.org/1999/02/22-rdf-syntax-ns#">
   <cc:Work>
    <dc:type rdf:resource="http://purl.org/dc/dcmitype/StillImage"/>
    <dc:date>2026-01-07T02:07:09.663721</dc:date>
    <dc:format>image/svg+xml</dc:format>
    <dc:creator>
     <cc:Agent>
      <dc:title>Matplotlib v3.10.1, https://matplotlib.org/</dc:title>
     </cc:Agent>
    </dc:creator>
   </cc:Work>
  </rdf:RDF>
 </metadata>
 <defs>
  <style type="text/css">*{stroke-linejoin: round; stroke-linecap: butt}</style>
 </defs>
 <g id="figure_1">
  <g id="patch_1">
   <path d="M 0 184.104183 
L 1152 184.104183 
L 1152 0 
L 0 0 
z
" style="fill: #ffffff"/>
  </g>
  <g id="axes_1">
   <g id="patch_2">
    <path d="M 0 184.104183 
L 1152 184.104183 
L 1152 0 
L 0 0 
z
" style="fill: #212830"/>
   </g>
   <g id="patch_3">
    <path d="M 1099.450853 174.735157 
L 1087.254498 170.377652 
L 1054.394165 158.909252 
L 969.901486 129.184922 
L 934.491869 116.914138 
L 897.287964 104.276873 
L 868.352162 94.688243 
L 841.987591 86.178515 
L 841.673575 87.162362 
L 818.081543 79.719029 
L 797.593389 73.413311 
L 776.879803 67.19864 
L 755.982962 61.143957 
L 734.911577 55.290872 
L 713.684098 49.69477 
L 692.293428 44.372705 
L 670.772695 39.355367 
L 649.130552 34.658041 
L 627.406536 30.337859 
L 605.529302 26.423651 
L 583.528398 22.853159 
L 561.482566 19.648542 
L 539.406926 16.852403 
L 517.295711 14.454236 
L 495.206871 12.438432 
L 473.176504 10.830948 
L 451.213353 9.631801 
L 429.365744 8.816632 
L 407.694498 8.412125 
L 386.197904 8.422383 
L 364.93254 8.808227 
L 343.996676 9.585113 
L 333.659175 10.141288 
L 313.221976 11.565718 
L 293.205712 13.340581 
L 283.403304 14.372851 
L 273.742559 15.517001 
L 254.819511 18.122223 
L 236.525966 21.029634 
L 227.692713 22.588616 
L 219.082647 24.238862 
L 202.47688 27.79717 
L 186.76535 31.516432 
L 179.317981 33.41841 
L 165.21335 37.365615 
L 152.065515 41.434212 
L 139.875645 45.52912 
L 128.65198 49.654355 
L 118.310193 53.857034 
L 108.761989 58.109767 
L 100.001694 62.379442 
L 92.002843 66.67958 
L 84.745333 70.975511 
L 78.216239 75.262272 
L 72.40599 79.531569 
L 69.78159 81.656725 
L 67.347602 83.77604 
L 65.103423 85.888747 
L 63.041693 87.99841 
L 59.420672 92.192873 
L 57.869728 94.232424 
L 56.519314 96.211311 
L 55.377411 98.148237 
L 54.432152 100.069538 
L 53.667515 101.976342 
L 53.076596 103.845114 
L 52.660184 105.67379 
L 52.419367 107.521139 
L 52.363636 109.211464 
L 52.487723 110.897664 
L 52.805219 112.519009 
L 53.337464 114.096708 
L 54.103554 115.65753 
L 55.103122 117.208995 
L 56.320702 118.737866 
L 57.75172 120.228324 
L 59.411051 121.675231 
L 61.314855 123.081649 
L 63.462983 124.449453 
L 65.848357 125.775435 
L 68.472338 127.056537 
L 71.343461 128.295779 
L 74.463802 129.500416 
L 81.432677 131.821575 
L 89.357327 134.02283 
L 98.253651 136.103553 
L 108.157821 138.081772 
L 119.108068 139.95512 
L 131.204526 141.725066 
L 144.533526 143.41073 
L 159.210974 145.010343 
L 175.323275 146.533778 
L 192.907271 147.960413 
L 211.904869 149.27186 
L 232.171445 150.443243 
L 258.602991 151.680617 
L 258.560164 152.712473 
L 275.691697 153.379789 
L 298.66775 154.11091 
L 334.2607 154.988428 
L 370.892709 155.574802 
L 433.837461 156.338603 
L 550.171194 157.180499 
L 615.030329 157.53153 
L 741.850277 158.359495 
L 778.497288 158.892359 
L 837.17352 160.14152 
L 881.737838 161.410453 
L 913.464413 162.571588 
L 943.67591 163.848678 
L 972.15393 165.309188 
L 998.762401 166.83308 
L 1023.390713 168.547284 
L 1045.802795 170.270987 
L 1065.570441 171.985754 
L 1082.088674 173.660575 
L 1099.636364 175.735811 
L 1099.450853 174.735157 
L 1099.450853 174.735157 
" clip-path="url(#p5e34fa3e27)" style="fill: none; stroke: #ff0000; stroke-width: 0.72; stroke-linejoin: miter"/>
   </g>
   <g id="patch_4">
    <path d="M 739.318594 60.785294 
L 735.335136 59.691202 
L 736.429228 55.707744 
L 740.412685 56.801836 
L 739.318594 60.785294 
" clip-path="url(#p5e34fa3e27)" style="fill: none; stroke: #ff0000; stroke-width: 0.72; stroke-linejoin: miter"/>
   </g>
   <g id="patch_5">
    <path d="M 344.017654 13.720938 
L 339.892644 13.942908 
L 339.670674 9.817899 
L 343.795684 9.595929 
L 344.017654 13.720938 
" clip-path="url(#p5e34fa3e27)" style="fill: none; stroke: #ff0000; stroke-width: 0.72; stroke-linejoin: miter"/>
   </g>
   <g id="patch_6">
    <path d="M 164.364313 41.939257 
L 160.410802 43.137055 
L 159.213004 39.183543 
L 163.166515 37.985745 
L 164.364313 41.939257 
" clip-path="url(#p5e34fa3e27)" style="fill: none; stroke: #ff0000; stroke-width: 0.72; stroke-linejoin: miter"/>
   </g>
   <g id="patch_7">
    <path d="M 73.58184 85.194368 
L 72.024592 86.551285 
L 68.632301 82.658166 
L 70.189548 81.301249 
L 73.58184 85.194368 
" clip-path="url(#p5e34fa3e27)" style="fill: none; stroke: #ff0000; stroke-width: 0.72; stroke-linejoin: miter"/>
   </g>
   <g id="patch_8">
    <path d="M 63.463429 118.246592 
L 65.126652 119.471309 
L 62.064858 123.629366 
L 60.401635 122.404649 
L 63.463429 118.246592 
" clip-path="url(#p5e34fa3e27)" style="fill: none; stroke: #ff0000; stroke-width: 0.72; stroke-linejoin: miter"/>
   </g>
   <g id="patch_9">
    <path d="M 204.375521 144.634005 
L 208.497498 144.906546 
L 208.224957 149.028523 
L 204.10298 148.755982 
L 204.375521 144.634005 
" clip-path="url(#p5e34fa3e27)" style="fill: none; stroke: #ff0000; stroke-width: 0.72; stroke-linejoin: miter"/>
   </g>
   <g id="line2d_1">
    <path d="M 1080.134072 167.911443 
L 1079.799848 168.88861 
" clip-path="url(#p5e34fa3e27)" style="fill: none; stroke: #ff0000; stroke-width: 0.72; stroke-linecap: square"/>
   </g>
   <g id="line2d_2">
    <path d="M 1079.12468 172.302128 
L 1079.06153 173.33294 
" clip-path="url(#p5e34fa3e27)" style="fill: none; stroke: #ff0000; stroke-width: 0.72; stroke-linecap: square"/>
   </g>
   <g id="line2d_3">
    <path d="M 1060.632008 161.106886 
L 1060.294783 162.083021 
" clip-path="url(#p5e34fa3e27)" style="fill: none; stroke: #ff0000; stroke-width: 0.72; stroke-linecap: square"/>
   </g>
   <g id="line2d_4">
    <path d="M 1058.576524 170.320306 
L 1058.495372 171.349857 
" clip-path="url(#p5e34fa3e27)" style="fill: none; stroke: #ff0000; stroke-width: 0.72; stroke-linecap: square"/>
   </g>
   <g id="line2d_5">
    <path d="M 982.702979 133.663547 
L 982.361876 134.638334 
" clip-path="url(#p5e34fa3e27)" style="fill: none; stroke: #ff0000; stroke-width: 0.72; stroke-linecap: square"/>
   </g>
   <g id="line2d_6">
    <path d="M 976.156146 164.494758 
L 976.080553 165.524732 
" clip-path="url(#p5e34fa3e27)" style="fill: none; stroke: #ff0000; stroke-width: 0.72; stroke-linecap: square"/>
   </g>
   <g id="patch_10">
    <path d="M 511.355597 82.681217 
L 511.239024 78.754452 
L 510.889769 74.843288 
L 510.309219 70.963263 
L 509.499682 67.129794 
L 508.464372 63.35811 
L 507.207404 59.663196 
L 505.733771 56.059732 
L 504.049328 52.562035 
L 502.160767 49.184001 
L 500.075592 45.93905 
L 497.802087 42.840076 
L 495.349284 39.899389 
L 492.726928 37.128673 
L 489.945438 34.538937 
L 487.015865 32.140468 
L 483.949848 29.942797 
L 480.759568 27.954655 
L 477.4577 26.18394 
L 474.057361 24.637687 
L 470.572063 23.322039 
L 467.015651 22.242225 
L 463.402255 21.402533 
L 459.746232 20.8063 
L 456.062106 20.455895 
L 452.364514 20.352709 
L 448.668147 20.497153 
L 444.987691 20.888653 
L 441.337767 21.525653 
L 437.732877 22.405623 
L 434.187344 23.525066 
L 430.715252 24.879536 
L 427.330397 26.46365 
L 424.046227 28.271115 
L 420.87579 30.294751 
L 417.831682 32.526516 
L 414.925996 34.957546 
L 412.170278 37.57818 
L 409.575475 40.378007 
L 407.151897 43.345904 
L 404.909173 46.47008 
L 402.856212 49.738121 
L 401.001171 53.137045 
L 399.351421 56.653347 
L 397.913515 60.273057 
L 396.693167 63.981794 
L 395.695224 67.764823 
L 394.923652 71.607115 
L 394.381517 75.493404 
L 394.070971 79.40825 
L 393.993248 83.3361 
L 394.148659 87.261348 
L 394.536584 91.168399 
L 395.155483 95.04173 
L 396.002897 98.865954 
L 397.075459 102.625876 
L 398.368909 106.306558 
L 399.878106 109.893378 
L 401.597056 113.372084 
L 403.518928 116.728856 
L 405.636087 119.950357 
L 407.940123 123.023789 
L 410.42188 125.936941 
L 413.071499 128.678239 
L 415.878453 131.236792 
L 418.83159 133.602435 
L 421.919178 135.765769 
L 425.128949 137.718199 
L 428.448151 139.451969 
L 431.863597 140.96019 
L 435.361718 142.236869 
L 438.928615 143.276936 
L 442.550118 144.076257 
L 446.211837 144.631657 
L 449.899226 144.940929 
L 453.597635 145.002845 
L 457.292369 144.817159 
L 460.968749 144.384608 
L 464.61217 143.706911 
L 468.208156 142.78676 
L 471.742421 141.627811 
L 475.200922 140.234669 
L 478.56992 138.612868 
L 481.836029 136.768852 
L 484.986273 134.709947 
L 488.008137 132.444333 
L 490.889614 129.981012 
L 493.619256 127.329769 
L 496.186219 124.501139 
L 498.580305 121.50636 
L 500.792001 118.357328 
L 502.812521 115.066557 
L 504.633836 111.647119 
L 506.248712 108.112601 
L 507.650732 104.477044 
L 508.834325 100.754893 
L 509.794791 96.960935 
L 510.528312 93.110245 
L 511.031974 89.21812 
L 511.303777 85.300025 
L 511.355597 82.681217 
L 511.355597 82.681217 
" clip-path="url(#p5e34fa3e27)" style="fill: none; stroke: #ff0000; stroke-width: 0.72; stroke-linejoin: miter"/>
   </g>
   <g id="line2d_7">
    <path d="M 68.604983 82.681217 
L 827.53395 82.681217 
" clip-path="url(#p5e34fa3e27)" style="fill: none; stroke: #ffffff; stroke-width: 0.72; stroke-linecap: square"/>
   </g>
   <g id="line2d_8">
    <path d="M 218.222013 82.681217 
L 230.614945 82.681217 
" clip-path="url(#p5e34fa3e27)" style="fill: none; stroke: #ffffff; stroke-width: 0.72; stroke-linecap: square"/>
   </g>
   <g id="patch_11">
    <path d="M 224.418479 77.517496 
L 229.582201 82.681217 
L 224.418479 87.844939 
L 219.254757 82.681217 
L 224.418479 77.517496 
" clip-path="url(#p5e34fa3e27)" style="fill: none; stroke: #ff0000; stroke-width: 0.72; stroke-linejoin: miter"/>
   </g>
   <g id="line2d_9">
    <path d="M 441.873 82.681217 
L 454.265932 82.681217 
" clip-path="url(#p5e34fa3e27)" style="fill: none; stroke: #ffffff; stroke-width: 0.72; stroke-linecap: square"/>
   </g>
   <g id="patch_12">
    <path d="M 448.069466 77.517496 
L 453.233188 82.681217 
L 448.069466 87.844939 
L 442.905745 82.681217 
L 448.069466 77.517496 
" clip-path="url(#p5e34fa3e27)" style="fill: none; stroke: #ff0000; stroke-width: 0.72; stroke-linejoin: miter"/>
   </g>
   <g id="line2d_10">
    <path d="M 665.523987 82.681217 
L 677.916919 82.681217 
" clip-path="url(#p5e34fa3e27)" style="fill: none; stroke: #ffffff; stroke-width: 0.72; stroke-linecap: square"/>
   </g>
   <g id="patch_13">
    <path d="M 671.720453 77.517496 
L 676.884175 82.681217 
L 671.720453 87.844939 
L 666.556732 82.681217 
L 671.720453 77.517496 
" clip-path="url(#p5e34fa3e27)" style="fill: none; stroke: #ff0000; stroke-width: 0.72; stroke-linejoin: miter"/>
   </g>
   <g id="line2d_11">
    <path d="M 52.511933 106.811054 
L 1098.932291 174.547685 
" clip-path="url(#p5e34fa3e27)" style="fill: none; stroke: #ffffff; stroke-width: 0.72; stroke-linecap: square"/>
   </g>
   <g id="line2d_12">
    <path d="M 259.631771 120.218285 
L 271.99882 121.018826 
" clip-path="url(#p5e34fa3e27)" style="fill: none; stroke: #ffffff; stroke-width: 0.72; stroke-linecap: square"/>
   </g>
   <g id="patch_14">
    <path d="M 266.148854 115.465619 
L 270.968232 120.952114 
L 265.481737 125.771493 
L 260.662358 120.284997 
L 266.148854 115.465619 
" clip-path="url(#p5e34fa3e27)" style="fill: none; stroke: #ff0000; stroke-width: 0.72; stroke-linejoin: miter"/>
   </g>
   <g id="line2d_13">
    <path d="M 517.887451 136.93563 
L 530.2545 137.736171 
" clip-path="url(#p5e34fa3e27)" style="fill: none; stroke: #ffffff; stroke-width: 0.72; stroke-linecap: square"/>
   </g>
   <g id="patch_15">
    <path d="M 524.404535 132.182963 
L 529.223913 137.669459 
L 523.737417 142.488837 
L 518.918039 137.002342 
L 524.404535 132.182963 
" clip-path="url(#p5e34fa3e27)" style="fill: none; stroke: #ff0000; stroke-width: 0.72; stroke-linejoin: miter"/>
   </g>
   <g id="line2d_14">
    <path d="M 452.672803 20.351849 
L 452.672803 19.319104 
" clip-path="url(#p5e34fa3e27)" style="fill: none; stroke: #ff0000; stroke-width: 0.72; stroke-linecap: square"/>
   </g>
   <g id="line2d_15">
    <path d="M 452.672803 145.010586 
L 452.672803 146.043331 
" clip-path="url(#p5e34fa3e27)" style="fill: none; stroke: #ff0000; stroke-width: 0.72; stroke-linecap: square"/>
   </g>
   <g id="line2d_16">
    <path d="M 511.355597 82.681217 
L 512.388341 82.681217 
" clip-path="url(#p5e34fa3e27)" style="fill: none; stroke: #ff0000; stroke-width: 0.72; stroke-linecap: square"/>
   </g>
   <g id="line2d_17">
    <path d="M 393.990009 82.681217 
L 392.957265 82.681217 
" clip-path="url(#p5e34fa3e27)" style="fill: none; stroke: #ff0000; stroke-width: 0.72; stroke-linecap: square"/>
   </g>
   <g id="line2d_18">
    <path d="M 297.761153 154.083719 
L 297.761153 12.913866 
" clip-path="url(#p5e34fa3e27)" style="fill: none; stroke: #ffffff; stroke-width: 0.72; stroke-linecap: square"/>
   </g>
   <g id="line2d_19">
    <path d="M 297.761153 108.856885 
L 297.761153 96.463953 
" clip-path="url(#p5e34fa3e27)" style="fill: none; stroke: #ffffff; stroke-width: 0.72; stroke-linecap: square"/>
   </g>
   <g id="patch_16">
    <path d="M 292.597431 102.660419 
L 297.761153 97.496697 
L 302.924874 102.660419 
L 297.761153 107.824141 
L 292.597431 102.660419 
" clip-path="url(#p5e34fa3e27)" style="fill: none; stroke: #ff0000; stroke-width: 0.72; stroke-linejoin: miter"/>
   </g>
   <g id="line2d_20">
    <path d="M 297.761153 70.533632 
L 297.761153 58.1407 
" clip-path="url(#p5e34fa3e27)" style="fill: none; stroke: #ffffff; stroke-width: 0.72; stroke-linecap: square"/>
   </g>
   <g id="patch_17">
    <path d="M 292.597431 64.337166 
L 297.761153 59.173444 
L 302.924874 64.337166 
L 297.761153 69.500888 
L 292.597431 64.337166 
" clip-path="url(#p5e34fa3e27)" style="fill: none; stroke: #ff0000; stroke-width: 0.72; stroke-linejoin: miter"/>
   </g>
   <g id="line2d_21">
    <path d="M 762.496103 158.622869 
L 762.496103 63.011965 
" clip-path="url(#p5e34fa3e27)" style="fill: none; stroke: #ffffff; stroke-width: 0.72; stroke-linecap: square"/>
   </g>
   <g id="line2d_22">
    <path d="M 762.496103 129.341667 
L 762.496103 116.948735 
" clip-path="url(#p5e34fa3e27)" style="fill: none; stroke: #ffffff; stroke-width: 0.72; stroke-linecap: square"/>
   </g>
   <g id="patch_18">
    <path d="M 757.332382 123.145201 
L 762.496103 117.98148 
L 767.659825 123.145201 
L 762.496103 128.308923 
L 757.332382 123.145201 
" clip-path="url(#p5e34fa3e27)" style="fill: none; stroke: #ff0000; stroke-width: 0.72; stroke-linejoin: miter"/>
   </g>
   <g id="line2d_23">
    <path d="M 762.496103 104.686099 
L 762.496103 92.293167 
" clip-path="url(#p5e34fa3e27)" style="fill: none; stroke: #ffffff; stroke-width: 0.72; stroke-linecap: square"/>
   </g>
   <g id="patch_19">
    <path d="M 757.332382 98.489633 
L 762.496103 93.325911 
L 767.659825 98.489633 
L 762.496103 103.653355 
L 757.332382 98.489633 
" clip-path="url(#p5e34fa3e27)" style="fill: none; stroke: #ff0000; stroke-width: 0.72; stroke-linejoin: miter"/>
   </g>
   <g id="patch_20">
    <path d="M 347.577531 124.90141 
L 352.741253 124.90141 
L 352.741253 130.065132 
L 347.577531 130.065132 
L 347.577531 135.228853 
L 352.741253 135.228853 
" clip-path="url(#p5e34fa3e27)" style="fill: none; stroke: #ff0000; stroke-width: 0.72; stroke-linejoin: miter"/>
   </g>
   <g id="patch_21">
    <path d="M 355.323113 124.90141 
L 360.486835 124.90141 
L 360.486835 130.065132 
L 355.323113 130.065132 
L 355.323113 135.228853 
L 360.486835 135.228853 
" clip-path="url(#p5e34fa3e27)" style="fill: none; stroke: #ff0000; stroke-width: 0.72; stroke-linejoin: miter"/>
   </g>
  </g>
 </g>
 <defs>
  <clipPath id="p5e34fa3e27">
   <rect x="0" y="0" width="1152" height="184.104183"/>
  </clipPath>
 </defs>
</svg>
