<?xml version="1.0" encoding="utf-8" standalone="no"?>
<!DOCTYPE svg PUBLIC "-//W3C//DTD SVG 1.1//EN"
  "http://www.w3.org/Graphics/SVG/1.1/DTD/svg11.dtd">
<svg xmlns:xlink="http://www.w3.org/1999/xlink" width="1152pt" height="184.605004pt" viewBox="0 0 1152 184.605004" xmlns="http://www.w3.org/2000/svg" version="1.1">
 <metadata>
  <rdf:RDF xmlns:dc="http://purl.org/dc/elements/1.1/" xmlns:cc="http://creativecommons.org/ns#" xmlns:rdf="http://www.w3.org/1999/02/22-rdf-syntax-ns#">
   <cc:Work>
    <dc:type rdf:resource="http://purl.org/dc/dcmitype/StillImage"/>
    <dc:date>2026-01-07T02:07:08.928968</dc:date>
    <dc:format>image/svg+xml</dc:format>
    <dc:creator>
     <cc:Agent>
      <dc:title>Matplotlib v3.10.1, https://matplotlib.org/</dc:title>
     </cc:Agent>
    </dc:creator>
   </cc:Work>
  </rdf:RDF>
 </metadata>
 <defs>
  <style type="text/css">*{stroke-linejoin: round; stroke-linecap: butt}</style>
 </defs>
 <g id="figure_1">
  <g id="patch_1">
   <path d="M 0 184.605004 
L 1152 184.605004 
L 1152 0 
L 0 0 
z
" style="fill: #ffffff"/>
  </g>
  <g id="axes_1">
   <g id="patch_2">
    <path d="M 0 184.605004 
L 1152 184.605004 
L 1152 0 
L 0 0 
z
" style="fill: #212830"/>
   </g>
   <g id="patch_3">
    <path d="M 1099.441531 175.21033 
L 1086.074311 170.457274 
L 1049.828179 157.736639 
L 976.290821 132.043006 
L 932.887964 117.068925 
L 895.709088 104.464669 
L 866.597844 94.789889 
L 841.996994 86.766801 
L 841.68613 87.727109 
L 815.823459 79.445597 
L 795.125622 72.964619 
L 774.215203 66.609288 
L 753.103314 60.428627 
L 731.813968 54.489489 
L 710.337498 48.811583 
L 688.714171 43.431841 
L 666.95364 38.367425 
L 656.045621 35.971756 
L 645.108316 33.687778 
L 623.089982 29.428634 
L 600.932231 25.51515 
L 578.722616 21.974687 
L 556.474674 18.856309 
L 534.175403 16.147364 
L 511.889342 13.826656 
L 489.654577 11.924915 
L 467.476436 10.439272 
L 445.407105 9.339979 
L 423.513003 8.655923 
L 401.785235 8.391137 
L 380.283334 8.495579 
L 359.114991 8.987163 
L 348.661148 9.402205 
L 327.979423 10.543145 
L 307.710243 12.018989 
L 297.781828 12.900174 
L 287.990576 13.895791 
L 268.776455 16.208535 
L 250.141066 18.816495 
L 241.12179 20.224666 
L 232.312839 21.73115 
L 215.239152 25.029956 
L 198.958467 28.510223 
L 191.196424 30.305366 
L 183.684355 32.163905 
L 169.3245 36.055287 
L 155.825979 40.067477 
L 143.248524 44.147588 
L 131.582266 48.346026 
L 120.730155 52.676015 
L 110.667792 57.074864 
L 101.410168 61.535833 
L 92.935464 66.043436 
L 85.258194 70.567582 
L 78.358343 75.112923 
L 75.204512 77.38353 
L 72.255186 79.650763 
L 69.513218 81.91368 
L 66.97953 84.17142 
L 64.647572 86.428339 
L 62.503348 88.68529 
L 60.540154 90.924293 
L 58.774166 93.112561 
L 57.232303 95.235647 
L 55.924466 97.314205 
L 54.836739 99.378032 
L 53.950173 101.428706 
L 53.257185 103.440083 
L 52.759856 105.403482 
L 52.460456 107.345976 
L 52.363636 109.184021 
L 52.466236 110.97711 
L 52.780426 112.694289 
L 53.329328 114.360153 
L 54.134668 116.006532 
L 55.19663 117.643281 
L 56.498441 119.256265 
L 58.035688 120.827771 
L 59.825738 122.352052 
L 61.886499 123.833036 
L 64.217084 125.273523 
L 66.809042 126.669814 
L 69.664259 128.017585 
L 72.792722 129.319513 
L 76.196785 130.583789 
L 79.869893 131.816426 
L 87.998547 134.187915 
L 97.16005 136.425924 
L 107.372184 138.532562 
L 118.644924 140.519789 
L 131.024698 142.37011 
L 144.580855 144.105267 
L 159.370623 145.728561 
L 175.468132 147.253476 
L 192.898874 148.678944 
L 211.648686 149.993986 
L 231.623103 151.181408 
L 258.610189 152.495314 
L 258.566092 153.50372 
L 274.629914 154.163304 
L 297.406397 154.948856 
L 332.840893 155.883156 
L 357.118245 156.353831 
L 407.191327 157.018786 
L 445.632083 157.434852 
L 563.705201 158.255039 
L 629.603344 158.594204 
L 758.020345 159.461659 
L 782.767336 159.805482 
L 818.915602 160.555031 
L 853.735171 161.431182 
L 897.894496 162.835625 
L 929.033422 164.073067 
L 958.363092 165.415633 
L 985.666025 166.899297 
L 1010.7937 168.419134 
L 1033.621659 170.060951 
L 1060.066016 172.182027 
L 1076.47414 173.660927 
L 1092.839929 175.396787 
L 1099.636364 176.213867 
L 1099.441531 175.21033 
L 1099.441531 175.21033 
" clip-path="url(#pc3cca24ded)" style="fill: none; stroke: #ff0000; stroke-width: 0.72; stroke-linejoin: miter"/>
   </g>
   <g id="patch_4">
    <path d="M 739.350112 60.750745 
L 735.457316 59.679586 
L 736.528476 55.78679 
L 740.421272 56.85795 
L 739.350112 60.750745 
" clip-path="url(#pc3cca24ded)" style="fill: none; stroke: #ff0000; stroke-width: 0.72; stroke-linejoin: miter"/>
   </g>
   <g id="patch_5">
    <path d="M 344.007121 13.680066 
L 339.974789 13.883871 
L 339.770984 9.851538 
L 343.803316 9.647733 
L 344.007121 13.680066 
" clip-path="url(#pc3cca24ded)" style="fill: none; stroke: #ff0000; stroke-width: 0.72; stroke-linejoin: miter"/>
   </g>
   <g id="patch_6">
    <path d="M 164.361232 41.696224 
L 160.497807 42.868908 
L 159.325124 39.005482 
L 163.188549 37.832799 
L 164.361232 41.696224 
" clip-path="url(#pc3cca24ded)" style="fill: none; stroke: #ff0000; stroke-width: 0.72; stroke-linejoin: miter"/>
   </g>
   <g id="patch_7">
    <path d="M 73.579047 85.050024 
L 72.072378 86.393623 
L 68.71338 82.62695 
L 70.220049 81.283351 
L 73.579047 85.050024 
" clip-path="url(#pc3cca24ded)" style="fill: none; stroke: #ff0000; stroke-width: 0.72; stroke-linejoin: miter"/>
   </g>
   <g id="patch_8">
    <path d="M 63.357294 118.67382 
L 64.998288 119.849597 
L 62.058846 123.952081 
L 60.417853 122.776304 
L 63.357294 118.67382 
" clip-path="url(#pc3cca24ded)" style="fill: none; stroke: #ff0000; stroke-width: 0.72; stroke-linejoin: miter"/>
   </g>
   <g id="patch_9">
    <path d="M 204.433392 145.460614 
L 208.461718 145.732338 
L 208.189994 149.760664 
L 204.161668 149.48894 
L 204.433392 145.460614 
" clip-path="url(#pc3cca24ded)" style="fill: none; stroke: #ff0000; stroke-width: 0.72; stroke-linejoin: miter"/>
   </g>
   <g id="line2d_1">
    <path d="M 1080.587906 168.546211 
L 1080.259446 169.500644 
" clip-path="url(#pc3cca24ded)" style="fill: none; stroke: #ff0000; stroke-width: 0.72; stroke-linecap: square"/>
   </g>
   <g id="line2d_2">
    <path d="M 1079.57967 172.957562 
L 1079.522163 173.965293 
" clip-path="url(#pc3cca24ded)" style="fill: none; stroke: #ff0000; stroke-width: 0.72; stroke-linecap: square"/>
   </g>
   <g id="line2d_3">
    <path d="M 1061.541052 161.856172 
L 1061.209571 162.80956 
" clip-path="url(#pc3cca24ded)" style="fill: none; stroke: #ff0000; stroke-width: 0.72; stroke-linecap: square"/>
   </g>
   <g id="line2d_4">
    <path d="M 1059.487229 171.120309 
L 1059.412516 172.12691 
" clip-path="url(#pc3cca24ded)" style="fill: none; stroke: #ff0000; stroke-width: 0.72; stroke-linecap: square"/>
   </g>
   <g id="line2d_5">
    <path d="M 985.32373 135.183613 
L 984.990965 136.136553 
" clip-path="url(#pc3cca24ded)" style="fill: none; stroke: #ff0000; stroke-width: 0.72; stroke-linecap: square"/>
   </g>
   <g id="line2d_6">
    <path d="M 978.929797 165.505312 
L 978.858103 166.512132 
" clip-path="url(#pc3cca24ded)" style="fill: none; stroke: #ff0000; stroke-width: 0.72; stroke-linecap: square"/>
   </g>
   <g id="patch_10">
    <path d="M 511.590691 83.171207 
L 511.473701 79.231174 
L 511.123196 75.306795 
L 510.540568 71.413662 
L 509.728133 67.56724 
L 508.689117 63.782813 
L 507.42765 60.075416 
L 505.948742 56.459777 
L 504.258269 52.950263 
L 502.362948 49.560816 
L 500.270309 46.304901 
L 497.988666 43.195456 
L 495.527083 40.244834 
L 492.89534 37.464757 
L 490.103894 34.866271 
L 487.163835 32.459699 
L 484.086842 30.254603 
L 480.885142 28.259743 
L 477.571455 26.483045 
L 474.158945 24.931568 
L 470.661171 23.611476 
L 467.092029 22.528013 
L 463.465699 21.685484 
L 459.796589 21.087236 
L 456.099275 20.735647 
L 452.388448 20.632113 
L 448.67885 20.777045 
L 444.985219 21.169867 
L 441.32223 21.80902 
L 437.704436 22.691963 
L 434.146211 23.815189 
L 430.661691 25.174234 
L 427.26472 26.763701 
L 423.968794 28.577273 
L 420.787008 30.607745 
L 417.732003 32.847051 
L 414.815917 35.286294 
L 412.050335 37.915782 
L 409.446244 40.725069 
L 407.01399 43.702994 
L 404.763238 46.837725 
L 402.702929 50.116808 
L 400.841248 53.527215 
L 399.185592 57.055397 
L 397.742539 60.687337 
L 396.517823 64.408604 
L 395.516308 68.204415 
L 394.741974 72.059689 
L 394.197898 75.959109 
L 393.88624 79.887182 
L 393.80824 83.828302 
L 393.964206 87.766812 
L 394.35352 91.687063 
L 394.974635 95.573481 
L 395.825082 99.410626 
L 396.901484 103.183251 
L 398.199563 106.876369 
L 399.714163 110.475307 
L 401.439265 113.965767 
L 403.368017 117.33388 
L 405.492755 120.566266 
L 407.805037 123.650082 
L 410.295678 126.573076 
L 412.954782 129.323636 
L 415.771783 131.890834 
L 418.735492 134.264469 
L 421.834131 136.435112 
L 425.055392 138.394139 
L 428.386475 140.133766 
L 431.814147 141.647083 
L 435.324789 142.928076 
L 438.904454 143.971656 
L 442.53892 144.773678 
L 446.213747 145.330954 
L 449.914335 145.641272 
L 453.625982 145.703397 
L 457.333942 145.517083 
L 461.023482 145.083071 
L 464.679945 144.403084 
L 468.288803 143.479824 
L 471.835718 142.31696 
L 475.306599 140.91911 
L 478.687656 139.29183 
L 481.965457 137.441584 
L 485.126977 135.375723 
L 488.159658 133.102454 
L 491.051449 130.63081 
L 493.790863 127.97061 
L 496.367014 125.132423 
L 498.76967 122.127525 
L 500.989282 118.967855 
L 503.017035 115.665965 
L 504.84487 112.234974 
L 506.465526 108.688514 
L 507.872564 105.040674 
L 509.060395 101.305947 
L 510.024298 97.499171 
L 510.760445 93.63547 
L 511.26591 89.730196 
L 511.538686 85.798862 
L 511.590691 83.171207 
L 511.590691 83.171207 
" clip-path="url(#pc3cca24ded)" style="fill: none; stroke: #ff0000; stroke-width: 0.72; stroke-linejoin: miter"/>
   </g>
   <g id="line2d_7">
    <path d="M 68.101993 83.171207 
L 827.534713 83.171207 
" clip-path="url(#pc3cca24ded)" style="fill: none; stroke: #ffffff; stroke-width: 0.72; stroke-linecap: square"/>
   </g>
   <g id="line2d_8">
    <path d="M 217.86886 83.171207 
L 229.981299 83.171207 
" clip-path="url(#pc3cca24ded)" style="fill: none; stroke: #ffffff; stroke-width: 0.72; stroke-linecap: square"/>
   </g>
   <g id="patch_11">
    <path d="M 223.925079 78.124357 
L 228.971929 83.171207 
L 223.925079 88.218056 
L 218.87823 83.171207 
L 223.925079 78.124357 
" clip-path="url(#pc3cca24ded)" style="fill: none; stroke: #ff0000; stroke-width: 0.72; stroke-linejoin: miter"/>
   </g>
   <g id="line2d_9">
    <path d="M 441.762133 83.171207 
L 453.874572 83.171207 
" clip-path="url(#pc3cca24ded)" style="fill: none; stroke: #ffffff; stroke-width: 0.72; stroke-linecap: square"/>
   </g>
   <g id="patch_12">
    <path d="M 447.818353 78.124357 
L 452.865202 83.171207 
L 447.818353 88.218056 
L 442.771503 83.171207 
L 447.818353 78.124357 
" clip-path="url(#pc3cca24ded)" style="fill: none; stroke: #ff0000; stroke-width: 0.72; stroke-linejoin: miter"/>
   </g>
   <g id="line2d_10">
    <path d="M 665.655407 83.171207 
L 677.767846 83.171207 
" clip-path="url(#pc3cca24ded)" style="fill: none; stroke: #ffffff; stroke-width: 0.72; stroke-linecap: square"/>
   </g>
   <g id="patch_13">
    <path d="M 671.711626 78.124357 
L 676.758476 83.171207 
L 671.711626 88.218056 
L 666.664777 83.171207 
L 671.711626 78.124357 
" clip-path="url(#pc3cca24ded)" style="fill: none; stroke: #ff0000; stroke-width: 0.72; stroke-linejoin: miter"/>
   </g>
   <g id="line2d_11">
    <path d="M 52.476362 107.242779 
L 1099.070874 175.076166 
" clip-path="url(#pc3cca24ded)" style="fill: none; stroke: #ffffff; stroke-width: 0.72; stroke-linecap: square"/>
   </g>
   <g id="line2d_12">
    <path d="M 259.680026 120.672361 
L 271.767103 121.455766 
" clip-path="url(#pc3cca24ded)" style="fill: none; stroke: #ffffff; stroke-width: 0.72; stroke-linecap: square"/>
   </g>
   <g id="patch_14">
    <path d="M 266.049983 116.027781 
L 270.759847 121.390482 
L 265.397146 126.100346 
L 260.687282 120.737645 
L 266.049983 116.027781 
" clip-path="url(#pc3cca24ded)" style="fill: none; stroke: #ff0000; stroke-width: 0.72; stroke-linejoin: miter"/>
   </g>
   <g id="line2d_13">
    <path d="M 518.05507 137.418535 
L 530.142148 138.20194 
" clip-path="url(#pc3cca24ded)" style="fill: none; stroke: #ffffff; stroke-width: 0.72; stroke-linecap: square"/>
   </g>
   <g id="patch_15">
    <path d="M 524.425028 132.773955 
L 529.134892 138.136657 
L 523.77219 142.84652 
L 519.062327 137.483819 
L 524.425028 132.773955 
" clip-path="url(#pc3cca24ded)" style="fill: none; stroke: #ff0000; stroke-width: 0.72; stroke-linejoin: miter"/>
   </g>
   <g id="line2d_14">
    <path d="M 452.69784 20.63125 
L 452.69784 19.62188 
" clip-path="url(#pc3cca24ded)" style="fill: none; stroke: #ff0000; stroke-width: 0.72; stroke-linecap: square"/>
   </g>
   <g id="line2d_15">
    <path d="M 452.69784 145.711164 
L 452.69784 146.720534 
" clip-path="url(#pc3cca24ded)" style="fill: none; stroke: #ff0000; stroke-width: 0.72; stroke-linecap: square"/>
   </g>
   <g id="line2d_16">
    <path d="M 511.590691 83.171207 
L 512.600061 83.171207 
" clip-path="url(#pc3cca24ded)" style="fill: none; stroke: #ff0000; stroke-width: 0.72; stroke-linecap: square"/>
   </g>
   <g id="line2d_17">
    <path d="M 393.804989 83.171207 
L 392.795619 83.171207 
" clip-path="url(#pc3cca24ded)" style="fill: none; stroke: #ff0000; stroke-width: 0.72; stroke-linecap: square"/>
   </g>
   <g id="line2d_18">
    <path d="M 301.292354 155.062232 
L 301.292354 12.588601 
" clip-path="url(#pc3cca24ded)" style="fill: none; stroke: #ffffff; stroke-width: 0.72; stroke-linecap: square"/>
   </g>
   <g id="line2d_19">
    <path d="M 301.292354 109.284409 
L 301.292354 97.171971 
" clip-path="url(#pc3cca24ded)" style="fill: none; stroke: #ffffff; stroke-width: 0.72; stroke-linecap: square"/>
   </g>
   <g id="patch_16">
    <path d="M 296.245504 103.22819 
L 301.292354 98.18134 
L 306.339203 103.22819 
L 301.292354 108.27504 
L 296.245504 103.22819 
" clip-path="url(#pc3cca24ded)" style="fill: none; stroke: #ff0000; stroke-width: 0.72; stroke-linejoin: miter"/>
   </g>
   <g id="line2d_20">
    <path d="M 301.292354 70.478863 
L 301.292354 58.366424 
" clip-path="url(#pc3cca24ded)" style="fill: none; stroke: #ffffff; stroke-width: 0.72; stroke-linecap: square"/>
   </g>
   <g id="patch_17">
    <path d="M 296.245504 64.422643 
L 301.292354 59.375794 
L 306.339203 64.422643 
L 301.292354 69.469493 
L 296.245504 64.422643 
" clip-path="url(#pc3cca24ded)" style="fill: none; stroke: #ff0000; stroke-width: 0.72; stroke-linejoin: miter"/>
   </g>
   <g id="line2d_21">
    <path d="M 755.508812 159.436358 
L 755.508812 61.125808 
" clip-path="url(#pc3cca24ded)" style="fill: none; stroke: #ffffff; stroke-width: 0.72; stroke-linecap: square"/>
   </g>
   <g id="line2d_22">
    <path d="M 755.508812 129.115613 
L 755.508812 117.003174 
" clip-path="url(#pc3cca24ded)" style="fill: none; stroke: #ffffff; stroke-width: 0.72; stroke-linecap: square"/>
   </g>
   <g id="patch_18">
    <path d="M 750.461963 123.059394 
L 755.508812 118.012544 
L 760.555662 123.059394 
L 755.508812 128.106243 
L 750.461963 123.059394 
" clip-path="url(#pc3cca24ded)" style="fill: none; stroke: #ff0000; stroke-width: 0.72; stroke-linejoin: miter"/>
   </g>
   <g id="line2d_23">
    <path d="M 755.508812 103.558991 
L 755.508812 91.446552 
" clip-path="url(#pc3cca24ded)" style="fill: none; stroke: #ffffff; stroke-width: 0.72; stroke-linecap: square"/>
   </g>
   <g id="patch_19">
    <path d="M 750.461963 97.502771 
L 755.508812 92.455922 
L 760.555662 97.502771 
L 755.508812 102.549621 
L 750.461963 97.502771 
" clip-path="url(#pc3cca24ded)" style="fill: none; stroke: #ff0000; stroke-width: 0.72; stroke-linejoin: miter"/>
   </g>
   <g id="patch_20">
    <path d="M 347.605773 125.623541 
L 352.652623 125.623541 
L 352.652623 130.670391 
L 347.605773 130.670391 
L 347.605773 135.71724 
L 352.652623 135.71724 
" clip-path="url(#pc3cca24ded)" style="fill: none; stroke: #ff0000; stroke-width: 0.72; stroke-linejoin: miter"/>
   </g>
   <g id="patch_21">
    <path d="M 357.194787 125.623541 
L 355.176047 125.623541 
L 355.176047 135.71724 
L 357.194787 135.71724 
" clip-path="url(#pc3cca24ded)" style="fill: none; stroke: #ff0000; stroke-width: 0.72; stroke-linejoin: miter"/>
   </g>
   <g id="patch_22">
    <path d="M 358.204157 135.71724 
L 360.222897 135.71724 
L 360.222897 125.623541 
L 358.204157 125.623541 
" clip-path="url(#pc3cca24ded)" style="fill: none; stroke: #ff0000; stroke-width: 0.72; stroke-linejoin: miter"/>
   </g>
  </g>
 </g>
 <defs>
  <clipPath id="pc3cca24ded">
   <rect x="0" y="0" width="1152" height="184.605004"/>
  </clipPath>
 </defs>
</svg>
