<?xml version="1.0" encoding="utf-8" standalone="no"?>
<!DOCTYPE svg PUBLIC "-//W3C//DTD SVG 1.1//EN"
  "http://www.w3.org/Graphics/SVG/1.1/DTD/svg11.dtd">
<svg xmlns:xlink="http://www.w3.org/1999/xlink" width="1152pt" height="330.738146pt" viewBox="0 0 1152 330.738146" xmlns="http://www.w3.org/2000/svg" version="1.1">
 <metadata>
  <rdf:RDF xmlns:dc="http://purl.org/dc/elements/1.1/" xmlns:cc="http://creativecommons.org/ns#" xmlns:rdf="http://www.w3.org/1999/02/22-rdf-syntax-ns#">
   <cc:Work>
    <dc:type rdf:resource="http://purl.org/dc/dcmitype/StillImage"/>
    <dc:date>2026-01-07T02:07:08.412641</dc:date>
    <dc:format>image/svg+xml</dc:format>
    <dc:creator>
     <cc:Agent>
      <dc:title>Matplotlib v3.10.1, https://matplotlib.org/</dc:title>
     </cc:Agent>
    </dc:creator>
   </cc:Work>
  </rdf:RDF>
 </metadata>
 <defs>
  <style type="text/css">*{stroke-linejoin: round; stroke-linecap: butt}</style>
 </defs>
 <g id="figure_1">
  <g id="patch_1">
   <path d="M 0 330.738146 
L 1152 330.738146 
L 1152 0 
L 0 0 
z
" style="fill: #ffffff"/>
  </g>
  <g id="axes_1">
   <g id="patch_2">
    <path d="M 0 330.738146 
L 1152 330.738146 
L 1152 0 
L 0 0 
z
" style="fill: #212830"/>
   </g>
   <g id="patch_3">
    <path d="M 1099.636364 41.814138 
L 1089.105995 40.252043 
L 1066.750927 37.151909 
L 1044.373755 34.245101 
L 1022.0014 31.531029 
L 999.64951 29.022133 
L 977.320549 26.729172 
L 955.013052 24.653757 
L 932.726821 22.790709 
L 910.468211 21.128516 
L 888.258342 19.656352 
L 866.126432 18.37652 
L 844.086648 17.306853 
L 822.130937 16.45963 
L 800.249181 15.826189 
L 778.449892 15.385682 
L 756.758386 15.122466 
L 735.207473 15.033552 
L 713.829534 15.131913 
L 692.636583 15.443791 
L 671.610221 15.988604 
L 650.723264 16.752434 
L 629.983585 17.69407 
L 609.443206 18.783957 
L 589.160817 20.034855 
L 569.16044 21.487114 
L 549.424016 23.172065 
L 529.916823 25.086647 
L 510.624429 27.190531 
L 491.583995 29.429722 
L 472.875212 31.78226 
L 454.564094 34.283283 
L 436.64585 36.993885 
L 419.05593 39.931937 
L 401.752912 43.039146 
L 384.781344 46.232588 
L 368.236118 49.486076 
L 352.170251 52.844194 
L 336.560746 56.358345 
L 321.354687 60.033677 
L 306.52373 63.834493 
L 292.073722 67.719855 
L 278.031688 71.664619 
L 264.425936 75.664438 
L 251.272891 79.732982 
L 238.565714 83.892983 
L 226.279315 88.157446 
L 214.387203 92.520036 
L 202.878494 96.957892 
L 191.763023 101.448248 
L 181.057331 105.98278 
L 170.766862 110.5671 
L 160.884175 115.203793 
L 151.405733 119.879499 
L 142.343555 124.577072 
L 133.710512 129.294823 
L 125.503208 134.041886 
L 117.710261 138.817557 
L 110.331891 143.608626 
L 103.380493 148.40179 
L 96.867413 153.193306 
L 90.800326 157.979341 
L 85.184008 162.758147 
L 80.00716 167.539949 
L 75.240253 172.327628 
L 70.868052 177.081692 
L 66.926534 181.729826 
L 63.477348 186.239739 
L 60.544283 190.656348 
L 58.095864 195.045496 
L 56.08853 199.411293 
L 54.505699 203.696875 
L 53.354259 207.871878 
L 52.641805 211.936218 
L 52.363636 216.213465 
L 52.527366 219.659645 
L 53.146 223.268061 
L 54.271623 226.758969 
L 55.952438 230.205474 
L 58.189799 233.631868 
L 60.947799 237.008464 
L 64.217963 240.29627 
L 68.039546 243.482464 
L 72.451458 246.576595 
L 77.450597 249.586305 
L 83.017652 252.503427 
L 89.157392 255.316832 
L 95.892443 258.031107 
L 103.227984 260.664394 
L 111.147605 263.230703 
L 119.632606 265.732254 
L 128.672715 268.165377 
L 138.261908 270.526499 
L 148.398882 272.811876 
L 159.089177 275.021367 
L 170.334033 277.161302 
L 182.124757 279.23401 
L 194.457403 281.231094 
L 207.347051 283.143509 
L 220.812008 284.976455 
L 234.856662 286.741716 
L 249.477809 288.442008 
L 264.684464 290.072734 
L 280.492196 291.635962 
L 313.924483 294.594462 
L 349.758041 297.326893 
L 387.938597 299.828478 
L 428.310183 302.08104 
L 462.647292 303.723968 
L 462.558071 305.685366 
L 492.436234 306.96229 
L 537.334838 308.607151 
L 583.667205 309.998807 
L 631.297561 311.143223 
L 680.019301 312.040319 
L 755.153942 313.007552 
L 832.161558 313.886324 
L 989.964124 315.108378 
L 1099.636364 315.704594 
L 1099.636364 41.814138 
L 1099.636364 41.814138 
" clip-path="url(#p1e3b8026f3)" style="fill: none; stroke: #ff0000; stroke-width: 0.72; stroke-linejoin: miter"/>
   </g>
   <g id="patch_4">
    <path d="M 644.64412 249.880951 
L 644.64412 269.515215 
" clip-path="url(#p1e3b8026f3)" style="fill: none; stroke: #ff0000; stroke-width: 0.72; stroke-linejoin: miter"/>
   </g>
   <g id="patch_5">
    <path d="M 658.388105 249.880951 
L 654.461253 249.880951 
L 654.461253 269.515215 
L 658.388105 269.515215 
" clip-path="url(#p1e3b8026f3)" style="fill: none; stroke: #ff0000; stroke-width: 0.72; stroke-linejoin: miter"/>
   </g>
   <g id="patch_6">
    <path d="M 660.351532 269.515215 
L 664.278385 269.515215 
L 664.278385 249.880951 
L 660.351532 249.880951 
" clip-path="url(#p1e3b8026f3)" style="fill: none; stroke: #ff0000; stroke-width: 0.72; stroke-linejoin: miter"/>
   </g>
   <g id="patch_7">
    <path d="M 654.461253 259.698083 
L 658.388105 259.698083 
" clip-path="url(#p1e3b8026f3)" style="fill: none; stroke: #ff0000; stroke-width: 0.72; stroke-linejoin: miter"/>
   </g>
   <g id="patch_8">
    <path d="M 660.351532 259.698083 
L 664.278385 259.698083 
" clip-path="url(#p1e3b8026f3)" style="fill: none; stroke: #ff0000; stroke-width: 0.72; stroke-linejoin: miter"/>
   </g>
   <g id="patch_9">
    <path d="M 632.584671 25.420797 
L 624.742 25.836976 
L 624.325821 17.994305 
L 632.168492 17.578126 
L 632.584671 25.420797 
" clip-path="url(#p1e3b8026f3)" style="fill: none; stroke: #ff0000; stroke-width: 0.72; stroke-linejoin: miter"/>
   </g>
   <g id="patch_10">
    <path d="M 275.105119 80.711136 
L 267.57031 82.926387 
L 265.355058 75.391578 
L 272.889868 73.176326 
L 275.105119 80.711136 
" clip-path="url(#p1e3b8026f3)" style="fill: none; stroke: #ff0000; stroke-width: 0.72; stroke-linejoin: miter"/>
   </g>
   <g id="patch_11">
    <path d="M 94.286732 167.904469 
L 91.296851 170.450208 
L 84.932505 162.975505 
L 87.922386 160.429767 
L 94.286732 167.904469 
" clip-path="url(#p1e3b8026f3)" style="fill: none; stroke: #ff0000; stroke-width: 0.72; stroke-linejoin: miter"/>
   </g>
   <g id="patch_12">
    <path d="M 74.049384 235.705769 
L 77.267354 237.95629 
L 71.641053 246.001215 
L 68.423083 243.750695 
L 74.049384 235.705769 
" clip-path="url(#p1e3b8026f3)" style="fill: none; stroke: #ff0000; stroke-width: 0.72; stroke-linejoin: miter"/>
   </g>
   <g id="patch_13">
    <path d="M 354.96354 289.809272 
L 362.799123 290.342507 
L 362.265888 298.178089 
L 354.430306 297.644855 
L 354.96354 289.809272 
" clip-path="url(#p1e3b8026f3)" style="fill: none; stroke: #ff0000; stroke-width: 0.72; stroke-linejoin: miter"/>
   </g>
   <g id="patch_14">
    <path d="M 966.331947 164.992304 
L 966.228145 159.748481 
L 965.91692 154.513919 
L 965.398824 149.297863 
L 964.67477 144.109525 
L 963.746038 138.958068 
L 962.614267 133.852589 
L 961.281457 128.802106 
L 959.749962 123.815539 
L 958.022486 118.901693 
L 956.10208 114.069248 
L 953.992135 109.326737 
L 951.696379 104.682537 
L 949.218865 100.14485 
L 946.56397 95.721689 
L 943.736381 91.420867 
L 940.741093 87.249978 
L 937.583396 83.21639 
L 934.268866 79.327225 
L 930.803357 75.589353 
L 927.19299 72.009375 
L 923.444141 68.593613 
L 919.56343 65.3481 
L 915.557712 62.278568 
L 911.43406 59.390438 
L 907.199759 56.688811 
L 902.862284 54.178458 
L 898.429298 51.863812 
L 893.90863 49.748961 
L 889.308262 47.837641 
L 884.63632 46.133227 
L 879.901055 44.638729 
L 875.11083 43.356787 
L 870.274104 42.289664 
L 865.39942 41.439245 
L 860.495388 40.807032 
L 855.570667 40.394142 
L 850.633956 40.201304 
L 845.693972 40.228859 
L 840.759442 40.476757 
L 835.839079 40.944561 
L 830.941573 41.631445 
L 826.075575 42.536195 
L 821.249676 43.657215 
L 816.472401 44.992523 
L 811.752187 46.539762 
L 807.09737 48.296199 
L 802.51617 50.258733 
L 798.01668 52.423896 
L 793.606844 54.787866 
L 789.294452 57.346467 
L 785.087119 60.09518 
L 780.992276 63.029151 
L 777.017155 66.143199 
L 773.168776 69.431823 
L 769.453936 72.889216 
L 765.879195 76.509272 
L 762.450868 80.285596 
L 759.175008 84.211521 
L 756.057401 88.280112 
L 753.103553 92.484184 
L 750.318681 96.816312 
L 747.707704 101.268845 
L 745.275232 105.833919 
L 743.025561 110.503473 
L 740.962665 115.269259 
L 739.090186 120.12286 
L 737.411433 125.055705 
L 735.929369 130.059082 
L 734.646612 135.124154 
L 733.565428 140.241976 
L 732.687725 145.403509 
L 732.015055 150.599638 
L 731.548605 155.821186 
L 731.289199 161.05893 
L 731.237295 166.303622 
L 731.392984 171.545997 
L 731.755992 176.776798 
L 732.325678 181.986787 
L 733.101036 187.166762 
L 734.080696 192.307574 
L 735.262927 197.400146 
L 736.645643 202.435482 
L 738.226401 207.40469 
L 740.002409 212.298994 
L 741.970531 217.10975 
L 744.12729 221.828461 
L 746.468879 226.446795 
L 748.99116 230.956594 
L 751.689681 235.349895 
L 754.559674 239.618937 
L 757.596072 243.756182 
L 760.793511 247.754322 
L 764.146345 251.606297 
L 767.648652 255.305304 
L 771.294248 258.84481 
L 775.076692 262.218563 
L 778.989306 265.420606 
L 783.025179 268.445284 
L 787.177184 271.287254 
L 791.437987 273.941497 
L 795.800064 276.403325 
L 800.255711 278.668392 
L 804.797059 280.732696 
L 809.416087 282.592592 
L 814.104638 284.244795 
L 818.854431 285.686387 
L 823.657078 286.914822 
L 828.504097 287.927931 
L 833.386927 288.723924 
L 838.296946 289.301395 
L 843.225481 289.659325 
L 848.163828 289.797082 
L 853.103265 289.714422 
L 858.03507 289.411491 
L 862.950532 288.888824 
L 867.84097 288.147345 
L 872.697747 287.188362 
L 877.512286 286.01357 
L 882.276083 284.625044 
L 886.980725 283.025234 
L 891.617903 281.216968 
L 896.179429 279.203438 
L 900.657245 276.988201 
L 905.043443 274.575168 
L 909.330278 271.968603 
L 913.510177 269.173107 
L 917.57576 266.193618 
L 921.519845 263.035398 
L 925.335467 259.704025 
L 929.015888 256.205383 
L 932.554607 252.54565 
L 935.945375 248.731289 
L 939.182204 244.769038 
L 942.259376 240.665894 
L 945.171457 236.429103 
L 947.913304 232.066148 
L 950.480076 227.584734 
L 952.867238 222.992777 
L 955.070575 218.298385 
L 957.086195 213.50985 
L 958.910539 208.635628 
L 960.540384 203.684328 
L 961.972853 198.664695 
L 963.205416 193.585593 
L 964.235894 188.455992 
L 965.06247 183.284953 
L 965.683682 178.081607 
L 966.098434 172.855144 
L 966.305994 167.614795 
L 966.331947 164.992304 
L 966.331947 164.992304 
" clip-path="url(#p1e3b8026f3)" style="fill: none; stroke: #ff0000; stroke-width: 0.72; stroke-linejoin: miter"/>
   </g>
   <g id="patch_15">
    <path d="M 393.014236 155.175172 
L 402.831368 164.992304 
L 393.014236 174.809436 
L 383.197104 164.992304 
L 393.014236 155.175172 
" clip-path="url(#p1e3b8026f3)" style="fill: none; stroke: #ff0000; stroke-width: 0.72; stroke-linejoin: miter"/>
   </g>
   <g id="patch_16">
    <path d="M 839.244266 155.175172 
L 849.061398 164.992304 
L 839.244266 174.809436 
L 829.427134 164.992304 
L 839.244266 155.175172 
" clip-path="url(#p1e3b8026f3)" style="fill: none; stroke: #ff0000; stroke-width: 0.72; stroke-linejoin: miter"/>
   </g>
   <g id="patch_17">
    <path d="M 477.293748 230.666117 
L 486.454527 241.098389 
L 476.022255 250.259168 
L 466.861476 239.826896 
L 477.293748 230.666117 
" clip-path="url(#p1e3b8026f3)" style="fill: none; stroke: #ff0000; stroke-width: 0.72; stroke-linejoin: miter"/>
   </g>
   <g id="patch_18">
    <path d="M 991.476389 264.034058 
L 1000.637167 274.46633 
L 990.204895 283.627109 
L 981.044117 273.194837 
L 991.476389 264.034058 
" clip-path="url(#p1e3b8026f3)" style="fill: none; stroke: #ff0000; stroke-width: 0.72; stroke-linejoin: miter"/>
   </g>
   <g id="patch_19">
    <path d="M 544.450278 205.08065 
L 554.267411 195.263517 
L 564.084543 205.08065 
L 554.267411 214.897782 
L 544.450278 205.08065 
" clip-path="url(#p1e3b8026f3)" style="fill: none; stroke: #ff0000; stroke-width: 0.72; stroke-linejoin: miter"/>
   </g>
   <g id="patch_20">
    <path d="M 544.450278 126.822278 
L 554.267411 117.005146 
L 564.084543 126.822278 
L 554.267411 136.63941 
L 544.450278 126.822278 
" clip-path="url(#p1e3b8026f3)" style="fill: none; stroke: #ff0000; stroke-width: 0.72; stroke-linejoin: miter"/>
   </g>
   <g id="line2d_1">
    <path d="M 82.765277 164.992304 
L 1099.636364 164.992304 
" clip-path="url(#p1e3b8026f3)" style="fill: none; stroke: #ffffff; stroke-width: 0.72; stroke-linecap: square"/>
   </g>
   <g id="line2d_2">
    <path d="M 381.233677 164.992304 
L 404.794794 164.992304 
" clip-path="url(#p1e3b8026f3)" style="fill: none; stroke: #ffffff; stroke-width: 0.72; stroke-linecap: square"/>
   </g>
   <g id="line2d_3">
    <path d="M 827.463707 164.992304 
L 851.024825 164.992304 
" clip-path="url(#p1e3b8026f3)" style="fill: none; stroke: #ffffff; stroke-width: 0.72; stroke-linecap: square"/>
   </g>
   <g id="line2d_4">
    <path d="M 52.576406 212.941819 
L 1099.636364 280.890894 
" clip-path="url(#p1e3b8026f3)" style="fill: none; stroke: #ffffff; stroke-width: 0.72; stroke-linecap: square"/>
   </g>
   <g id="line2d_5">
    <path d="M 464.902171 239.699747 
L 488.413832 241.225538 
" clip-path="url(#p1e3b8026f3)" style="fill: none; stroke: #ffffff; stroke-width: 0.72; stroke-linecap: square"/>
   </g>
   <g id="line2d_6">
    <path d="M 979.084811 273.067688 
L 1002.596473 274.59348 
" clip-path="url(#p1e3b8026f3)" style="fill: none; stroke: #ffffff; stroke-width: 0.72; stroke-linecap: square"/>
   </g>
   <g id="line2d_7">
    <path d="M 848.781377 40.185804 
L 848.781377 38.222378 
" clip-path="url(#p1e3b8026f3)" style="fill: none; stroke: #ff0000; stroke-width: 0.72; stroke-linecap: square"/>
   </g>
   <g id="line2d_8">
    <path d="M 848.781377 289.798804 
L 848.781377 291.762231 
" clip-path="url(#p1e3b8026f3)" style="fill: none; stroke: #ff0000; stroke-width: 0.72; stroke-linecap: square"/>
   </g>
   <g id="line2d_9">
    <path d="M 966.331947 164.992304 
L 968.295374 164.992304 
" clip-path="url(#p1e3b8026f3)" style="fill: none; stroke: #ff0000; stroke-width: 0.72; stroke-linecap: square"/>
   </g>
   <g id="line2d_10">
    <path d="M 731.230806 164.992304 
L 729.26738 164.992304 
" clip-path="url(#p1e3b8026f3)" style="fill: none; stroke: #ff0000; stroke-width: 0.72; stroke-linecap: square"/>
   </g>
   <g id="line2d_11">
    <path d="M 554.267411 309.144356 
L 554.267411 22.758572 
" clip-path="url(#p1e3b8026f3)" style="fill: none; stroke: #ffffff; stroke-width: 0.72; stroke-linecap: square"/>
   </g>
   <g id="line2d_12">
    <path d="M 554.267411 216.861208 
L 554.267411 193.300091 
" clip-path="url(#p1e3b8026f3)" style="fill: none; stroke: #ffffff; stroke-width: 0.72; stroke-linecap: square"/>
   </g>
   <g id="line2d_13">
    <path d="M 554.267411 138.602836 
L 554.267411 115.041719 
" clip-path="url(#p1e3b8026f3)" style="fill: none; stroke: #ffffff; stroke-width: 0.72; stroke-linecap: square"/>
   </g>
  </g>
 </g>
 <defs>
  <clipPath id="p1e3b8026f3">
   <rect x="0" y="0" width="1152" height="330.738146"/>
  </clipPath>
 </defs>
</svg>
