<?xml version="1.0" encoding="utf-8" standalone="no"?>
<!DOCTYPE svg PUBLIC "-//W3C//DTD SVG 1.1//EN"
  "http://www.w3.org/Graphics/SVG/1.1/DTD/svg11.dtd">
<svg xmlns:xlink="http://www.w3.org/1999/xlink" width="1152pt" height="321.503409pt" viewBox="0 0 1152 321.503409" xmlns="http://www.w3.org/2000/svg" version="1.1">
 <metadata>
  <rdf:RDF xmlns:dc="http://purl.org/dc/elements/1.1/" xmlns:cc="http://creativecommons.org/ns#" xmlns:rdf="http://www.w3.org/1999/02/22-rdf-syntax-ns#">
   <cc:Work>
    <dc:type rdf:resource="http://purl.org/dc/dcmitype/StillImage"/>
    <dc:date>2026-01-07T02:07:14.943646</dc:date>
    <dc:format>image/svg+xml</dc:format>
    <dc:creator>
     <cc:Agent>
      <dc:title>Matplotlib v3.10.1, https://matplotlib.org/</dc:title>
     </cc:Agent>
    </dc:creator>
   </cc:Work>
  </rdf:RDF>
 </metadata>
 <defs>
  <style type="text/css">*{stroke-linejoin: round; stroke-linecap: butt}</style>
 </defs>
 <g id="figure_1">
  <g id="patch_1">
   <path d="M 0 321.503409 
L 1152 321.503409 
L 1152 0 
L 0 0 
z
" style="fill: #ffffff"/>
  </g>
  <g id="axes_1">
   <g id="patch_2">
    <path d="M 0 321.503409 
L 1152 321.503409 
L 1152 0 
L 0 0 
z
" style="fill: #212830"/>
   </g>
   <g id="patch_3">
    <path d="M 1099.636364 40.958898 
L 1080.455942 38.296627 
L 1059.515321 35.566836 
L 1038.537361 33.005593 
L 1017.526134 30.608187 
L 996.491151 28.375251 
L 975.434893 26.309645 
L 954.354701 24.410976 
L 933.25611 22.675015 
L 912.153836 21.101877 
L 891.057246 19.69613 
L 869.966441 18.460507 
L 848.885221 17.392318 
L 827.827283 16.492003 
L 806.803246 15.763782 
L 785.81292 15.212491 
L 764.85763 14.836535 
L 743.950106 14.635414 
L 723.101496 14.613791 
L 702.313664 14.776866 
L 681.587168 15.124467 
L 660.935021 15.655653 
L 640.370887 16.3748 
L 619.897027 17.288221 
L 599.516732 18.395918 
L 579.244468 19.696762 
L 559.096469 21.195703 
L 539.076182 22.899417 
L 519.190353 24.806585 
L 499.459053 26.91634 
L 479.897942 29.235159 
L 460.512893 31.767588 
L 441.3184 34.510321 
L 422.338829 37.46386 
L 403.589966 40.633067 
L 385.085375 44.014412 
L 366.86334 47.594071 
L 348.96998 51.36992 
L 331.433428 55.344258 
L 314.28474 59.502794 
L 297.57966 63.825226 
L 281.36822 68.304446 
L 265.685302 72.926623 
L 250.578556 77.658356 
L 236.106479 82.470004 
L 222.30884 87.343164 
L 209.211733 92.245644 
L 196.845219 97.136688 
L 185.22961 101.989794 
L 174.361427 106.786001 
L 164.225511 111.498043 
L 154.804755 116.101538 
L 146.072977 120.587921 
L 137.991162 124.956892 
L 130.514006 129.204022 
L 123.599597 133.322208 
L 117.209739 137.312611 
L 111.305025 141.184217 
L 105.846127 144.946044 
L 100.795293 148.60392 
L 96.121467 152.160078 
L 91.799234 155.621522 
L 87.80525 159.000661 
L 84.111378 162.313807 
L 80.686399 165.566343 
L 74.526769 171.869378 
L 69.186856 177.831644 
L 66.825371 180.684904 
L 64.676398 183.47365 
L 62.738617 186.220452 
L 61.000573 188.946663 
L 59.445629 191.657508 
L 58.055351 194.34906 
L 56.816984 197.005088 
L 55.724988 199.613294 
L 54.781117 202.16331 
L 53.990861 204.65439 
L 53.358805 207.093803 
L 52.885602 209.488915 
L 52.567268 211.84544 
L 52.387869 214.359143 
L 52.363636 216.486523 
L 52.479558 218.821929 
L 52.758156 221.148859 
L 53.219953 223.456661 
L 53.890431 225.746189 
L 54.791166 228.021722 
L 55.930178 230.282414 
L 57.300354 232.520915 
L 58.886272 234.724418 
L 60.677581 236.880671 
L 62.673257 238.979756 
L 64.882489 241.017048 
L 67.314419 242.992333 
L 69.974635 244.910121 
L 72.860214 246.776657 
L 75.968912 248.598797 
L 79.298842 250.380195 
L 82.85999 252.122275 
L 86.666969 253.825603 
L 90.743184 255.492195 
L 95.111933 257.128579 
L 99.796771 258.744836 
L 104.82364 260.352075 
L 116.022558 263.574241 
L 122.275925 265.196932 
L 129.034333 266.830719 
L 136.35619 268.480604 
L 144.30565 270.151438 
L 152.95084 271.845161 
L 162.368304 273.558684 
L 172.640239 275.286758 
L 183.84576 277.027065 
L 196.051294 278.775677 
L 209.307072 280.519401 
L 223.646005 282.239259 
L 239.074703 283.92076 
L 255.557269 285.551802 
L 273.02552 287.111203 
L 291.400941 288.581102 
L 310.585938 289.956394 
L 330.46685 291.229721 
L 350.951203 292.39236 
L 371.96039 293.448637 
L 393.414626 294.403484 
L 437.511047 296.017791 
L 462.463017 296.809625 
L 462.388243 299.261667 
L 505.557099 300.51818 
L 551.490603 301.508905 
L 668.691811 303.438786 
L 715.751933 303.977222 
L 906.023878 305.638884 
L 1000.847305 306.298933 
L 1099.636364 306.889618 
L 1099.636364 40.958898 
L 1099.636364 40.958898 
" clip-path="url(#pde50d51234)" style="fill: none; stroke: #ff0000; stroke-width: 0.72; stroke-linejoin: miter"/>
   </g>
   <g id="patch_4">
    <path d="M 639.478289 240.303995 
L 651.7442 240.303995 
L 651.7442 252.569905 
L 639.478289 252.569905 
L 651.7442 252.569905 
L 651.7442 264.835815 
L 639.478289 264.835815 
" clip-path="url(#pde50d51234)" style="fill: none; stroke: #ff0000; stroke-width: 0.72; stroke-linejoin: miter"/>
   </g>
   <g id="patch_5">
    <path d="M 657.877155 252.569905 
L 657.877155 240.303995 
L 670.143065 240.303995 
L 670.143065 264.835815 
" clip-path="url(#pde50d51234)" style="fill: none; stroke: #ff0000; stroke-width: 0.72; stroke-linejoin: miter"/>
   </g>
   <g id="patch_6">
    <path d="M 633.043516 26.524258 
L 623.240543 26.961692 
L 622.80311 17.158718 
L 632.606083 16.721285 
L 633.043516 26.524258 
" clip-path="url(#pde50d51234)" style="fill: none; stroke: #ff0000; stroke-width: 0.72; stroke-linejoin: miter"/>
   </g>
   <g id="patch_7">
    <path d="M 276.197304 80.058773 
L 266.784954 82.833175 
L 264.010552 73.420826 
L 273.422902 70.646423 
L 276.197304 80.058773 
" clip-path="url(#pde50d51234)" style="fill: none; stroke: #ff0000; stroke-width: 0.72; stroke-linejoin: miter"/>
   </g>
   <g id="patch_8">
    <path d="M 96.262461 167.891917 
L 92.611002 171.168998 
L 84.418301 162.04035 
L 88.06976 158.76327 
L 96.262461 167.891917 
" clip-path="url(#pde50d51234)" style="fill: none; stroke: #ff0000; stroke-width: 0.72; stroke-linejoin: miter"/>
   </g>
   <g id="patch_9">
    <path d="M 74.832263 233.290279 
L 78.816253 236.153884 
L 71.657241 246.113858 
L 67.673251 243.250253 
L 74.832263 233.290279 
" clip-path="url(#pde50d51234)" style="fill: none; stroke: #ff0000; stroke-width: 0.72; stroke-linejoin: miter"/>
   </g>
   <g id="patch_10">
    <path d="M 353.592184 282.700012 
L 363.392535 283.192715 
L 362.899832 292.993066 
L 353.099481 292.500363 
L 353.592184 282.700012 
" clip-path="url(#pde50d51234)" style="fill: none; stroke: #ff0000; stroke-width: 0.72; stroke-linejoin: miter"/>
   </g>
   <g id="patch_11">
    <path d="M 960.804011 160.254434 
L 960.704966 155.25297 
L 960.408006 150.260339 
L 959.913655 145.285358 
L 959.222786 140.336814 
L 958.33662 135.423446 
L 957.256721 130.553932 
L 955.984997 125.736872 
L 954.523693 120.980773 
L 952.875391 116.294035 
L 951.043002 111.684935 
L 949.029761 107.161613 
L 946.839224 102.732059 
L 944.475261 98.404094 
L 941.942045 94.185362 
L 939.244051 90.083315 
L 936.386044 86.105196 
L 933.373071 82.258031 
L 930.210454 78.548616 
L 926.903777 74.9835 
L 923.458881 71.568981 
L 919.88185 68.311089 
L 916.179001 65.215577 
L 912.356874 62.287912 
L 908.422219 59.533265 
L 904.381985 56.956502 
L 900.243307 54.562172 
L 896.013495 52.354504 
L 891.700019 50.337397 
L 887.310496 48.514414 
L 882.85268 46.888775 
L 878.334443 45.463349 
L 873.763765 44.240655 
L 869.148717 43.222853 
L 864.497451 42.411739 
L 859.818181 41.808746 
L 855.119172 41.414939 
L 850.408721 41.231013 
L 845.695149 41.257294 
L 840.986779 41.493735 
L 836.291928 41.939918 
L 831.618886 42.595055 
L 826.975907 43.45799 
L 822.37119 44.527199 
L 817.812869 45.800792 
L 813.308993 47.276521 
L 808.867516 48.951779 
L 804.496284 50.823608 
L 800.203015 52.888702 
L 795.995292 55.143414 
L 791.880546 57.583762 
L 787.866045 60.205435 
L 783.958878 63.003805 
L 780.165946 65.973928 
L 776.493947 69.110559 
L 772.949366 72.408158 
L 769.538464 75.860902 
L 766.267265 79.462693 
L 763.141545 83.20717 
L 760.166825 87.087719 
L 757.348359 91.097487 
L 754.691124 95.229393 
L 752.199814 99.47614 
L 749.878827 103.830226 
L 747.732264 108.283962 
L 745.763915 112.829484 
L 743.977257 117.458762 
L 742.375444 122.163621 
L 740.961306 126.935752 
L 739.737341 131.766727 
L 738.70571 136.648014 
L 737.868235 141.570992 
L 737.226395 146.526967 
L 736.781323 151.507186 
L 736.533806 156.502853 
L 736.484281 161.505146 
L 736.632835 166.50523 
L 736.979205 171.494274 
L 737.522781 176.463468 
L 738.262602 181.404035 
L 739.197362 186.30725 
L 740.325409 191.164454 
L 741.644752 195.967067 
L 743.15306 200.706609 
L 744.84767 205.374708 
L 746.725588 209.963121 
L 748.783498 214.463743 
L 751.017766 218.868627 
L 753.424446 223.169993 
L 755.999287 227.360245 
L 758.737743 231.431981 
L 761.634975 235.378011 
L 764.685869 239.191366 
L 767.885035 242.865311 
L 771.226823 246.393357 
L 774.705332 249.769274 
L 778.314419 252.9871 
L 782.047709 256.041151 
L 785.898609 258.926034 
L 789.860318 261.636654 
L 793.925839 264.168224 
L 798.087992 266.516272 
L 802.339426 268.676652 
L 806.672634 270.645548 
L 811.079962 272.419484 
L 815.553625 273.995325 
L 820.085725 275.37029 
L 824.668256 276.541949 
L 829.293125 277.508234 
L 833.952164 278.267438 
L 838.637145 278.81822 
L 843.339794 279.159607 
L 848.051805 279.290997 
L 852.764857 279.212157 
L 857.470626 278.923227 
L 862.160801 278.424717 
L 866.827099 277.717508 
L 871.461279 276.802847 
L 876.055156 275.682351 
L 880.600618 274.357999 
L 885.089636 272.83213 
L 889.514282 271.107438 
L 893.866742 269.186969 
L 898.13933 267.074116 
L 902.324499 264.772609 
L 906.414858 262.286513 
L 910.403183 259.620219 
L 914.282431 256.778436 
L 918.045749 253.766182 
L 921.686493 250.588779 
L 925.198232 247.251836 
L 928.574764 243.761248 
L 931.810125 240.123179 
L 934.898602 236.344055 
L 937.83474 232.430549 
L 940.613354 228.389574 
L 943.229537 224.228266 
L 945.678667 219.953974 
L 947.95642 215.574247 
L 950.058773 211.09682 
L 951.982013 206.529601 
L 953.722743 201.880656 
L 955.277889 197.158194 
L 956.644704 192.370558 
L 957.820776 187.526201 
L 958.804025 182.63368 
L 959.592717 177.701635 
L 960.185458 172.738777 
L 960.581201 167.75387 
L 960.779247 162.755719 
L 960.804011 160.254434 
L 960.804011 160.254434 
" clip-path="url(#pde50d51234)" style="fill: none; stroke: #ff0000; stroke-width: 0.72; stroke-linejoin: miter"/>
   </g>
   <g id="patch_12">
    <path d="M 398.15225 147.988524 
L 410.41816 160.254434 
L 398.15225 172.520345 
L 385.88634 160.254434 
L 398.15225 147.988524 
" clip-path="url(#pde50d51234)" style="fill: none; stroke: #ff0000; stroke-width: 0.72; stroke-linejoin: miter"/>
   </g>
   <g id="patch_13">
    <path d="M 841.851 147.988524 
L 854.11691 160.254434 
L 841.851 172.520345 
L 829.585089 160.254434 
L 841.851 147.988524 
" clip-path="url(#pde50d51234)" style="fill: none; stroke: #ff0000; stroke-width: 0.72; stroke-linejoin: miter"/>
   </g>
   <g id="patch_14">
    <path d="M 479.260814 227.499878 
L 490.714158 240.527771 
L 477.686265 251.981116 
L 466.232921 238.953222 
L 479.260814 227.499878 
" clip-path="url(#pde50d51234)" style="fill: none; stroke: #ff0000; stroke-width: 0.72; stroke-linejoin: miter"/>
   </g>
   <g id="patch_15">
    <path d="M 991.797247 260.464469 
L 1003.250591 273.492363 
L 990.222697 284.945707 
L 978.769353 271.917813 
L 991.797247 260.464469 
" clip-path="url(#pde50d51234)" style="fill: none; stroke: #ff0000; stroke-width: 0.72; stroke-linejoin: miter"/>
   </g>
   <g id="patch_16">
    <path d="M 468.397834 200.299162 
L 480.663744 188.033252 
L 492.929655 200.299162 
L 480.663744 212.565072 
L 468.397834 200.299162 
" clip-path="url(#pde50d51234)" style="fill: none; stroke: #ff0000; stroke-width: 0.72; stroke-linejoin: miter"/>
   </g>
   <g id="patch_17">
    <path d="M 468.397834 128.664193 
L 480.663744 116.398283 
L 492.929655 128.664193 
L 480.663744 140.930103 
L 468.397834 128.664193 
" clip-path="url(#pde50d51234)" style="fill: none; stroke: #ff0000; stroke-width: 0.72; stroke-linejoin: miter"/>
   </g>
   <g id="line2d_1">
    <path d="M 86.4074 160.254434 
L 1099.636364 160.254434 
" clip-path="url(#pde50d51234)" style="fill: none; stroke: #ffffff; stroke-width: 0.72; stroke-linecap: square"/>
   </g>
   <g id="line2d_2">
    <path d="M 383.433158 160.254434 
L 412.871342 160.254434 
" clip-path="url(#pde50d51234)" style="fill: none; stroke: #ffffff; stroke-width: 0.72; stroke-linecap: square"/>
   </g>
   <g id="line2d_3">
    <path d="M 827.131907 160.254434 
L 856.570092 160.254434 
" clip-path="url(#pde50d51234)" style="fill: none; stroke: #ffffff; stroke-width: 0.72; stroke-linecap: square"/>
   </g>
   <g id="line2d_4">
    <path d="M 52.531589 212.345367 
L 1099.636364 279.691566 
" clip-path="url(#pde50d51234)" style="fill: none; stroke: #ffffff; stroke-width: 0.72; stroke-linecap: square"/>
   </g>
   <g id="line2d_5">
    <path d="M 463.784797 238.795767 
L 493.162282 240.685226 
" clip-path="url(#pde50d51234)" style="fill: none; stroke: #ffffff; stroke-width: 0.72; stroke-linecap: square"/>
   </g>
   <g id="line2d_6">
    <path d="M 976.321229 271.760358 
L 1005.698715 273.649818 
" clip-path="url(#pde50d51234)" style="fill: none; stroke: #ffffff; stroke-width: 0.72; stroke-linecap: square"/>
   </g>
   <g id="line2d_7">
    <path d="M 848.64105 41.216229 
L 848.64105 38.763047 
" clip-path="url(#pde50d51234)" style="fill: none; stroke: #ff0000; stroke-width: 0.72; stroke-linecap: square"/>
   </g>
   <g id="line2d_8">
    <path d="M 848.64105 279.29264 
L 848.64105 281.745822 
" clip-path="url(#pde50d51234)" style="fill: none; stroke: #ff0000; stroke-width: 0.72; stroke-linecap: square"/>
   </g>
   <g id="line2d_9">
    <path d="M 960.804011 160.254434 
L 963.257193 160.254434 
" clip-path="url(#pde50d51234)" style="fill: none; stroke: #ff0000; stroke-width: 0.72; stroke-linecap: square"/>
   </g>
   <g id="line2d_10">
    <path d="M 736.478089 160.254434 
L 734.024907 160.254434 
" clip-path="url(#pde50d51234)" style="fill: none; stroke: #ff0000; stroke-width: 0.72; stroke-linecap: square"/>
   </g>
   <g id="line2d_11">
    <path d="M 480.663744 299.818976 
L 480.663744 29.144379 
" clip-path="url(#pde50d51234)" style="fill: none; stroke: #ffffff; stroke-width: 0.72; stroke-linecap: square"/>
   </g>
   <g id="line2d_12">
    <path d="M 480.663744 215.018254 
L 480.663744 185.58007 
" clip-path="url(#pde50d51234)" style="fill: none; stroke: #ffffff; stroke-width: 0.72; stroke-linecap: square"/>
   </g>
   <g id="line2d_13">
    <path d="M 480.663744 143.383285 
L 480.663744 113.945101 
" clip-path="url(#pde50d51234)" style="fill: none; stroke: #ffffff; stroke-width: 0.72; stroke-linecap: square"/>
   </g>
  </g>
 </g>
 <defs>
  <clipPath id="pde50d51234">
   <rect x="0" y="0" width="1152" height="321.503409"/>
  </clipPath>
 </defs>
</svg>
