  0
SECTION
  2
HEADER
  9
$ACADVER
  1
AC1021
  9
$ACADMAINTVER
 70
25
  9
$DWGCODEPAGE
  3
ANSI_1252
  9
$LASTSAVEDBY
  1
ezdxf
  9
$INSBASE
 10
0.0
 20
0.0
 30
0.0
  9
$EXTMIN
 10
1e+20
 20
1e+20
 30
1e+20
  9
$EXTMAX
 10
-1e+20
 20
-1e+20
 30
-1e+20
  9
$LIMMIN
 10
0.0
 20
0.0
  9
$LIMMAX
 10
420.0
 20
297.0
  9
$ORTHOMODE
 70
0
  9
$REGENMODE
 70
1
  9
$FILLMODE
 70
1
  9
$QTEXTMODE
 70
0
  9
$MIRRTEXT
 70
1
  9
$LTSCALE
 40
1.0
  9
$ATTMODE
 70
1
  9
$TEXTSIZE
 40
2.5
  9
$TRACEWID
 40
1.0
  9
$TEXTSTYLE
  7
OpenSans
  9
$CLAYER
  8
0
  9
$CELTYPE
  6
ByLayer
  9
$CECOLOR
 62
256
  9
$CELTSCALE
 40
1.0
  9
$DISPSILH
 70
0
  9
$DIMSCALE
 40
1.0
  9
$DIMASZ
 40
0.175
  9
$DIMEXO
 40
0.125
  9
$DIMDLI
 40
3.75
  9
$DIMRND
 40
0.0
  9
$DIMDLE
 40
0.0
  9
$DIMEXE
 40
0.375
  9
$DIMTP
 40
0.0
  9
$DIMTM
 40
0.0
  9
$DIMTXT
 40
0.25
  9
$DIMCEN
 40
2.5
  9
$DIMTSZ
 40
0.0
  9
$DIMTOL
 70
0
  9
$DIMLIM
 70
0
  9
$DIMTIH
 70
0
  9
$DIMTOH
 70
0
  9
$DIMSE1
 70
0
  9
$DIMSE2
 70
0
  9
$DIMTAD
 70
1
  9
$DIMZIN
 70
12
  9
$DIMBLK
  1
ARCHTICK
  9
$DIMASO
 70
1
  9
$DIMSHO
 70
1
  9
$DIMPOST
  1

  9
$DIMAPOST
  1

  9
$DIMALT
 70
0
  9
$DIMALTD
 70
3
  9
$DIMALTF
 40
0.03937007874
  9
$DIMLFAC
 40
100.0
  9
$DIMTOFL
 70
1
  9
$DIMTVP
 40
0.0
  9
$DIMTIX
 70
0
  9
$DIMSOXD
 70
0
  9
$DIMSAH
 70
0
  9
$DIMBLK1
  1

  9
$DIMBLK2
  1

  9
$DIMSTYLE
  2
EZDXF
  9
$DIMCLRD
 70
0
  9
$DIMCLRE
 70
0
  9
$DIMCLRT
 70
0
  9
$DIMTFAC
 40
0.5
  9
$DIMGAP
 40
0.1
  9
$DIMJUST
 70
0
  9
$DIMSD1
 70
0
  9
$DIMSD2
 70
0
  9
$DIMTOLJ
 70
0
  9
$DIMTZIN
 70
8
  9
$DIMALTZ
 70
0
  9
$DIMALTTZ
 70
0
  9
$DIMUPT
 70
1
  9
$DIMDEC
 70
2
  9
$DIMTDEC
 70
2
  9
$DIMALTU
 70
2
  9
$DIMALTTD
 70
3
  9
$DIMTXSTY
  7
OpenSansCondensed-Light
  9
$DIMAUNIT
 70
0
  9
$DIMADEC
 70
2
  9
$DIMALTRND
 40
0.0
  9
$DIMAZIN
 70
3
  9
$DIMDSEP
 70
46
  9
$DIMATFIT
 70
3
  9
$DIMFRAC
 70
0
  9
$DIMLDRBLK
  1

  9
$DIMLUNIT
 70
2
  9
$DIMLWD
 70
-2
  9
$DIMLWE
 70
-2
  9
$DIMTMOVE
 70
2
  9
$DIMFXL
 40
1.0
  9
$DIMFXLON
 70
0
  9
$DIMJOGANG
 40
0.785398163397
  9
$DIMTFILL
 70
0
  9
$DIMTFILLCLR
 70
0
  9
$DIMARCSYM
 70
0
  9
$DIMLTYPE
  6

  9
$DIMLTEX1
  6

  9
$DIMLTEX2
  6

  9
$LUNITS
 70
2
  9
$LUPREC
 70
4
  9
$SKETCHINC
 40
1.0
  9
$FILLETRAD
 40
10.0
  9
$AUNITS
 70
0
  9
$AUPREC
 70
2
  9
$MENU
  1
.
  9
$ELEVATION
 40
0.0
  9
$PELEVATION
 40
0.0
  9
$THICKNESS
 40
0.0
  9
$LIMCHECK
 70
0
  9
$CHAMFERA
 40
0.0
  9
$CHAMFERB
 40
0.0
  9
$CHAMFERC
 40
0.0
  9
$CHAMFERD
 40
0.0
  9
$SKPOLY
 70
0
  9
$TDCREATE
 40
2461048.0883680554
  9
$TDUCREATE
 40
2458532.153996898
  9
$TDUPDATE
 40
2461048.0883680554
  9
$TDUUPDATE
 40
2458532.1544311
  9
$TDINDWG
 40
0.0
  9
$TDUSRTIMER
 40
0.0
  9
$USRTIMER
 70
1
  9
$ANGBASE
 50
0.0
  9
$ANGDIR
 70
0
  9
$PDMODE
 70
0
  9
$PDSIZE
 40
0.0
  9
$PLINEWID
 40
0.0
  9
$SPLFRAME
 70
0
  9
$SPLINETYPE
 70
6
  9
$SPLINESEGS
 70
8
  9
$HANDSEED
  5
AE
  9
$SURFTAB1
 70
6
  9
$SURFTAB2
 70
6
  9
$SURFTYPE
 70
6
  9
$SURFU
 70
6
  9
$SURFV
 70
6
  9
$UCSBASE
  2

  9
$UCSNAME
  2

  9
$UCSORG
 10
0.0
 20
0.0
 30
0.0
  9
$UCSXDIR
 10
1.0
 20
0.0
 30
0.0
  9
$UCSYDIR
 10
0.0
 20
1.0
 30
0.0
  9
$UCSORTHOREF
  2

  9
$UCSORTHOVIEW
 70
0
  9
$UCSORGTOP
 10
0.0
 20
0.0
 30
0.0
  9
$UCSORGBOTTOM
 10
0.0
 20
0.0
 30
0.0
  9
$UCSORGLEFT
 10
0.0
 20
0.0
 30
0.0
  9
$UCSORGRIGHT
 10
0.0
 20
0.0
 30
0.0
  9
$UCSORGFRONT
 10
0.0
 20
0.0
 30
0.0
  9
$UCSORGBACK
 10
0.0
 20
0.0
 30
0.0
  9
$PUCSBASE
  2

  9
$PUCSNAME
  2

  9
$PUCSORG
 10
0.0
 20
0.0
 30
0.0
  9
$PUCSXDIR
 10
1.0
 20
0.0
 30
0.0
  9
$PUCSYDIR
 10
0.0
 20
1.0
 30
0.0
  9
$PUCSORTHOREF
  2

  9
$PUCSORTHOVIEW
 70
0
  9
$PUCSORGTOP
 10
0.0
 20
0.0
 30
0.0
  9
$PUCSORGBOTTOM
 10
0.0
 20
0.0
 30
0.0
  9
$PUCSORGLEFT
 10
0.0
 20
0.0
 30
0.0
  9
$PUCSORGRIGHT
 10
0.0
 20
0.0
 30
0.0
  9
$PUCSORGFRONT
 10
0.0
 20
0.0
 30
0.0
  9
$PUCSORGBACK
 10
0.0
 20
0.0
 30
0.0
  9
$USERI1
 70
0
  9
$USERI2
 70
0
  9
$USERI3
 70
0
  9
$USERI4
 70
0
  9
$USERI5
 70
0
  9
$USERR1
 40
0.0
  9
$USERR2
 40
0.0
  9
$USERR3
 40
0.0
  9
$USERR4
 40
0.0
  9
$USERR5
 40
0.0
  9
$WORLDVIEW
 70
1
  9
$SHADEDGE
 70
3
  9
$SHADEDIF
 70
70
  9
$TILEMODE
 70
1
  9
$MAXACTVP
 70
64
  9
$PINSBASE
 10
0.0
 20
0.0
 30
0.0
  9
$PLIMCHECK
 70
0
  9
$PEXTMIN
 10
1e+20
 20
1e+20
 30
1e+20
  9
$PEXTMAX
 10
-1e+20
 20
-1e+20
 30
-1e+20
  9
$PLIMMIN
 10
0.0
 20
0.0
  9
$PLIMMAX
 10
420.0
 20
297.0
  9
$UNITMODE
 70
0
  9
$VISRETAIN
 70
1
  9
$PLINEGEN
 70
0
  9
$PSLTSCALE
 70
1
  9
$TREEDEPTH
 70
3020
  9
$CMLSTYLE
  2
Standard
  9
$CMLJUST
 70
0
  9
$CMLSCALE
 40
20.0
  9
$PROXYGRAPHICS
 70
1
  9
$MEASUREMENT
 70
1
  9
$CELWEIGHT
370
-1
  9
$ENDCAPS
280
0
  9
$JOINSTYLE
280
0
  9
$LWDISPLAY
290
0
  9
$INSUNITS
 70
6
  9
$HYPERLINKBASE
  1

  9
$STYLESHEET
  1

  9
$XEDIT
290
1
  9
$CEPSNTYPE
380
0
  9
$PSTYLEMODE
290
1
  9
$FINGERPRINTGUID
  2
{AF5E3EF6-2381-4194-AAA2-DA352BBF607B}
  9
$VERSIONGUID
  2
{85753190-DFC3-454F-95DB-8C642F1BBF68}
  9
$EXTNAMES
290
1
  9
$PSVPSCALE
 40
0.0
  9
$OLESTARTUP
290
0
  9
$SORTENTS
280
127
  9
$INDEXCTL
280
0
  9
$HIDETEXT
280
1
  9
$XCLIPFRAME
290
1
  9
$HALOGAP
280
0
  9
$OBSCOLOR
 70
257
  9
$OBSLTYPE
280
0
  9
$INTERSECTIONDISPLAY
280
0
  9
$INTERSECTIONCOLOR
 70
257
  9
$DIMASSOC
280
2
  9
$PROJECTNAME
  1

  9
$CAMERADISPLAY
290
0
  9
$LENSLENGTH
 40
50.0
  9
$CAMERAHEIGHT
 40
0.0
  9
$STEPSPERSEC
 40
24.0
  9
$STEPSIZE
 40
100.0
  9
$3DDWFPREC
 40
2.0
  9
$PSOLWIDTH
 40
0.005
  9
$PSOLHEIGHT
 40
0.08
  9
$LOFTANG1
 40
1.570796326795
  9
$LOFTANG2
 40
1.570796326795
  9
$LOFTMAG1
 40
0.0
  9
$LOFTMAG2
 40
0.0
  9
$LOFTPARAM
 70
7
  9
$LOFTNORMALS
280
1
  9
$LATITUDE
 40
37.795
  9
$LONGITUDE
 40
-122.394
  9
$NORTHDIRECTION
 40
0.0
  9
$TIMEZONE
 70
-8000
  9
$LIGHTGLYPHDISPLAY
280
1
  9
$TILEMODELIGHTSYNCH
280
1
  9
$CMATERIAL
347
20
  9
$SOLIDHIST
280
0
  9
$SHOWHIST
280
1
  9
$DWFFRAME
280
2
  9
$DGNFRAME
280
2
  9
$REALWORLDSCALE
290
1
  9
$INTERFERECOLOR
 62
256
  9
$CSHADOW
280
0
  9
$SHADOWPLANELOCATION
 40
0.0
  0
ENDSEC
  0
SECTION
  2
CLASSES
  0
CLASS
  1
ACDBDICTIONARYWDFLT
  2
AcDbDictionaryWithDefault
  3
ObjectDBX Classes
 90
0
 91
0
280
0
281
0
  0
CLASS
  1
SUN
  2
AcDbSun
  3
SCENEOE
 90
1153
 91
0
280
0
281
0
  0
CLASS
  1
VISUALSTYLE
  2
AcDbVisualStyle
  3
ObjectDBX Classes
 90
4095
 91
0
280
0
281
0
  0
CLASS
  1
MATERIAL
  2
AcDbMaterial
  3
ObjectDBX Classes
 90
1153
 91
0
280
0
281
0
  0
CLASS
  1
SCALE
  2
AcDbScale
  3
ObjectDBX Classes
 90
1153
 91
0
280
0
281
0
  0
CLASS
  1
TABLESTYLE
  2
AcDbTableStyle
  3
ObjectDBX Classes
 90
4095
 91
0
280
0
281
0
  0
CLASS
  1
MLEADERSTYLE
  2
AcDbMLeaderStyle
  3
ACDB_MLEADERSTYLE_CLASS
 90
4095
 91
0
280
0
281
0
  0
CLASS
  1
DICTIONARYVAR
  2
AcDbDictionaryVar
  3
ObjectDBX Classes
 90
0
 91
0
280
0
281
0
  0
CLASS
  1
CELLSTYLEMAP
  2
AcDbCellStyleMap
  3
ObjectDBX Classes
 90
1152
 91
0
280
0
281
0
  0
CLASS
  1
MENTALRAYRENDERSETTINGS
  2
AcDbMentalRayRenderSettings
  3
SCENEOE
 90
1024
 91
0
280
0
281
0
  0
CLASS
  1
ACDBDETAILVIEWSTYLE
  2
AcDbDetailViewStyle
  3
ObjectDBX Classes
 90
1025
 91
0
280
0
281
0
  0
CLASS
  1
ACDBSECTIONVIEWSTYLE
  2
AcDbSectionViewStyle
  3
ObjectDBX Classes
 90
1025
 91
0
280
0
281
0
  0
CLASS
  1
RASTERVARIABLES
  2
AcDbRasterVariables
  3
ISM
 90
0
 91
0
280
0
281
0
  0
CLASS
  1
ACDBPLACEHOLDER
  2
AcDbPlaceHolder
  3
ObjectDBX Classes
 90
0
 91
0
280
0
281
0
  0
CLASS
  1
LAYOUT
  2
AcDbLayout
  3
ObjectDBX Classes
 90
0
 91
0
280
0
281
0
  0
ENDSEC
  0
SECTION
  2
TABLES
  0
TABLE
  2
VPORT
  5
8
330
0
100
AcDbSymbolTable
 70
1
  0
VPORT
  5
23
330
8
100
AcDbSymbolTableRecord
100
AcDbViewportTableRecord
  2
*Active
 70
0
 10
0.0
 20
0.0
 11
1.0
 21
1.0
 12
0.0
 22
0.0
 13
0.0
 23
0.0
 14
0.5
 24
0.5
 15
0.5
 25
0.5
 16
0.0
 26
0.0
 36
1.0
 17
0.0
 27
0.0
 37
0.0
 40
1000.0
 41
1.34
 42
50.0
 43
0.0
 44
0.0
 50
0.0
 51
0.0
 71
0
 72
1000
 73
1
 74
3
 75
0
 76
0
 77
0
 78
0
281
0
 65
0
146
0.0
  0
ENDTAB
  0
TABLE
  2
LTYPE
  5
2
330
0
100
AcDbSymbolTable
 70
21
  0
LTYPE
  5
24
330
2
100
AcDbSymbolTableRecord
100
AcDbLinetypeTableRecord
  2
ByBlock
 70
0
  3

 72
65
 73
0
 40
0.0
  0
LTYPE
  5
25
330
2
100
AcDbSymbolTableRecord
100
AcDbLinetypeTableRecord
  2
ByLayer
 70
0
  3

 72
65
 73
0
 40
0.0
  0
LTYPE
  5
26
330
2
100
AcDbSymbolTableRecord
100
AcDbLinetypeTableRecord
  2
Continuous
 70
0
  3

 72
65
 73
0
 40
0.0
  0
LTYPE
  5
2F
330
2
100
AcDbSymbolTableRecord
100
AcDbLinetypeTableRecord
  2
CENTER
 70
0
  3
Center ____ _ ____ _ ____ _ ____ _ ____ _ ____
 72
65
 73
4
 40
5.08
 49
3.175
 74
0
 49
-0.635
 74
0
 49
0.635
 74
0
 49
-0.635
 74
0
  0
LTYPE
  5
30
330
2
100
AcDbSymbolTableRecord
100
AcDbLinetypeTableRecord
  2
CENTERX2
 70
0
  3
Center (2x) ________  __  ________  __  ________
 72
65
 73
4
 40
8.89
 49
6.35
 74
0
 49
-0.635
 74
0
 49
1.27
 74
0
 49
-0.635
 74
0
  0
LTYPE
  5
31
330
2
100
AcDbSymbolTableRecord
100
AcDbLinetypeTableRecord
  2
CENTER2
 70
0
  3
Center (.5x) ____ _ ____ _ ____ _ ____ _ ____
 72
65
 73
4
 40
2.54
 49
1.587
 74
0
 49
-0.318
 74
0
 49
0.318
 74
0
 49
-0.318
 74
0
  0
LTYPE
  5
32
330
2
100
AcDbSymbolTableRecord
100
AcDbLinetypeTableRecord
  2
DASHED
 70
0
  3
Dashed __ __ __ __ __ __ __ __ __ __ __ __ __ _
 72
65
 73
2
 40
1.524
 49
1.27
 74
0
 49
-0.254
 74
0
  0
LTYPE
  5
33
330
2
100
AcDbSymbolTableRecord
100
AcDbLinetypeTableRecord
  2
DASHEDX2
 70
0
  3
Dashed (2x) ____  ____  ____  ____  ____  ____
 72
65
 73
2
 40
3.048
 49
2.54
 74
0
 49
-0.508
 74
0
  0
LTYPE
  5
34
330
2
100
AcDbSymbolTableRecord
100
AcDbLinetypeTableRecord
  2
DASHED2
 70
0
  3
Dashed (.5x) _ _ _ _ _ _ _ _ _ _ _ _ _ _
 72
65
 73
2
 40
0.762
 49
0.635
 74
0
 49
-0.127
 74
0
  0
LTYPE
  5
35
330
2
100
AcDbSymbolTableRecord
100
AcDbLinetypeTableRecord
  2
PHANTOM
 70
0
  3
Phantom ______  __  __  ______  __  __  ______
 72
65
 73
6
 40
6.35
 49
3.175
 74
0
 49
-0.635
 74
0
 49
0.635
 74
0
 49
-0.635
 74
0
 49
0.635
 74
0
 49
-0.635
 74
0
  0
LTYPE
  5
36
330
2
100
AcDbSymbolTableRecord
100
AcDbLinetypeTableRecord
  2
PHANTOMX2
 70
0
  3
Phantom (2x)____________    ____    ____    ____________
 72
65
 73
6
 40
10.795
 49
6.35
 74
0
 49
-0.635
 74
0
 49
1.27
 74
0
 49
-0.635
 74
0
 49
1.27
 74
0
 49
-0.635
 74
0
  0
LTYPE
  5
37
330
2
100
AcDbSymbolTableRecord
100
AcDbLinetypeTableRecord
  2
PHANTOM2
 70
0
  3
Phantom (.5x) ___ _ _ ___ _ _ ___ _ _ ___ _ _ ___
 72
65
 73
6
 40
3.175
 49
1.587
 74
0
 49
-0.318
 74
0
 49
0.318
 74
0
 49
-0.318
 74
0
 49
0.318
 74
0
 49
-0.318
 74
0
  0
LTYPE
  5
38
330
2
100
AcDbSymbolTableRecord
100
AcDbLinetypeTableRecord
  2
DASHDOT
 70
0
  3
Dash dot __ . __ . __ . __ . __ . __ . __ . __
 72
65
 73
4
 40
3.556
 49
2.54
 74
0
 49
-0.508
 74
0
 49
0.0
 74
0
 49
-0.508
 74
0
  0
LTYPE
  5
39
330
2
100
AcDbSymbolTableRecord
100
AcDbLinetypeTableRecord
  2
DASHDOTX2
 70
0
  3
Dash dot (2x) ____  .  ____  .  ____  .  ____
 72
65
 73
4
 40
6.096
 49
5.08
 74
0
 49
-0.508
 74
0
 49
0.0
 74
0
 49
-0.508
 74
0
  0
LTYPE
  5
3A
330
2
100
AcDbSymbolTableRecord
100
AcDbLinetypeTableRecord
  2
DASHDOT2
 70
0
  3
Dash dot (.5x) _ . _ . _ . _ . _ . _ . _ . _
 72
65
 73
4
 40
1.778
 49
1.27
 74
0
 49
-0.254
 74
0
 49
0.0
 74
0
 49
-0.254
 74
0
  0
LTYPE
  5
3B
330
2
100
AcDbSymbolTableRecord
100
AcDbLinetypeTableRecord
  2
DOT
 70
0
  3
Dot .  .  .  .  .  .  .  .  .  .  .  .  .  .  .  .
 72
65
 73
2
 40
0.508
 49
0.0
 74
0
 49
-0.508
 74
0
  0
LTYPE
  5
3C
330
2
100
AcDbSymbolTableRecord
100
AcDbLinetypeTableRecord
  2
DOTX2
 70
0
  3
Dot (2x) .    .    .    .    .    .    .    . 
 72
65
 73
2
 40
1.016
 49
0.0
 74
0
 49
-1.016
 74
0
  0
LTYPE
  5
3D
330
2
100
AcDbSymbolTableRecord
100
AcDbLinetypeTableRecord
  2
DOT2
 70
0
  3
Dot (.5) . . . . . . . . . . . . . . . . . . . 
 72
65
 73
2
 40
0.254
 49
0.0
 74
0
 49
-0.254
 74
0
  0
LTYPE
  5
3E
330
2
100
AcDbSymbolTableRecord
100
AcDbLinetypeTableRecord
  2
DIVIDE
 70
0
  3
Divide __ . . __ . . __ . . __ . . __ . . __
 72
65
 73
6
 40
4.064
 49
2.54
 74
0
 49
-0.508
 74
0
 49
0.0
 74
0
 49
-0.508
 74
0
 49
0.0
 74
0
 49
-0.508
 74
0
  0
LTYPE
  5
3F
330
2
100
AcDbSymbolTableRecord
100
AcDbLinetypeTableRecord
  2
DIVIDEX2
 70
0
  3
Divide (2x) ____  . .  ____  . .  ____  . .  ____
 72
65
 73
6
 40
6.604
 49
5.08
 74
0
 49
-0.508
 74
0
 49
0.0
 74
0
 49
-0.508
 74
0
 49
0.0
 74
0
 49
-0.508
 74
0
  0
LTYPE
  5
40
330
2
100
AcDbSymbolTableRecord
100
AcDbLinetypeTableRecord
  2
DIVIDE2
 70
0
  3
Divide(.5x) _ . _ . _ . _ . _ . _ . _ . _
 72
65
 73
6
 40
2.032
 49
1.27
 74
0
 49
-0.254
 74
0
 49
0.0
 74
0
 49
-0.254
 74
0
 49
0.0
 74
0
 49
-0.254
 74
0
  0
ENDTAB
  0
TABLE
  2
LAYER
  5
1
330
0
100
AcDbSymbolTable
 70
4
  0
LAYER
  5
27
330
1
100
AcDbSymbolTableRecord
100
AcDbLayerTableRecord
  2
0
 70
0
 62
7
  6
Continuous
370
-3
390
13
347
21
  0
LAYER
  5
28
330
1
100
AcDbSymbolTableRecord
100
AcDbLayerTableRecord
  2
Defpoints
 70
0
 62
7
  6
Continuous
290
0
370
-3
390
13
347
21
  0
LAYER
  5
8A
330
1
100
AcDbSymbolTableRecord
100
AcDbLayerTableRecord
  2
Layer
 70
0
 62
1
  6
Continuous
370
50
390
13
347
21
  0
LAYER
  5
8B
330
1
100
AcDbSymbolTableRecord
100
AcDbLayerTableRecord
  2
NumLabel
 70
0
 62
1
  6
Continuous
370
15
390
13
347
21
  0
ENDTAB
  0
TABLE
  2
STYLE
  5
5
330
0
100
AcDbSymbolTable
 70
26
  0
STYLE
  5
29
330
5
100
AcDbSymbolTableRecord
100
AcDbTextStyleTableRecord
  2
Standard
 70
0
 40
0.0
 41
1.0
 50
0.0
 71
0
 42
2.5
  3
txt
  4

  0
STYLE
  5
41
330
5
100
AcDbSymbolTableRecord
100
AcDbTextStyleTableRecord
  2
OpenSans-Light
 70
0
 40
0.0
 41
1.0
 50
0.0
 71
0
 42
2.5
  3
OpenSans-Light.ttf
  4

  0
STYLE
  5
42
330
5
100
AcDbSymbolTableRecord
100
AcDbTextStyleTableRecord
  2
OpenSans-Light-Italic
 70
0
 40
0.0
 41
1.0
 50
0.0
 71
0
 42
2.5
  3
OpenSans-LightItalic.ttf
  4

  0
STYLE
  5
43
330
5
100
AcDbSymbolTableRecord
100
AcDbTextStyleTableRecord
  2
OpenSans
 70
0
 40
0.0
 41
1.0
 50
0.0
 71
0
 42
2.5
  3
OpenSans-Regular.ttf
  4

  0
STYLE
  5
44
330
5
100
AcDbSymbolTableRecord
100
AcDbTextStyleTableRecord
  2
OpenSans-Italic
 70
0
 40
0.0
 41
1.0
 50
0.0
 71
0
 42
2.5
  3
OpenSans-Italic.ttf
  4

  0
STYLE
  5
45
330
5
100
AcDbSymbolTableRecord
100
AcDbTextStyleTableRecord
  2
OpenSans-SemiBold
 70
0
 40
0.0
 41
1.0
 50
0.0
 71
0
 42
2.5
  3
OpenSans-SemiBold.ttf
  4

  0
STYLE
  5
46
330
5
100
AcDbSymbolTableRecord
100
AcDbTextStyleTableRecord
  2
OpenSans-SemiBoldItalic
 70
0
 40
0.0
 41
1.0
 50
0.0
 71
0
 42
2.5
  3
OpenSans-SemiBoldItalic.ttf
  4

  0
STYLE
  5
47
330
5
100
AcDbSymbolTableRecord
100
AcDbTextStyleTableRecord
  2
OpenSans-Bold
 70
0
 40
0.0
 41
1.0
 50
0.0
 71
0
 42
2.5
  3
OpenSans-Bold.ttf
  4

  0
STYLE
  5
48
330
5
100
AcDbSymbolTableRecord
100
AcDbTextStyleTableRecord
  2
OpenSans-BoldItalic
 70
0
 40
0.0
 41
1.0
 50
0.0
 71
0
 42
2.5
  3
OpenSans-BoldItalic.ttf
  4

  0
STYLE
  5
49
330
5
100
AcDbSymbolTableRecord
100
AcDbTextStyleTableRecord
  2
OpenSans-ExtraBold
 70
0
 40
0.0
 41
1.0
 50
0.0
 71
0
 42
2.5
  3
OpenSans-ExtraBold.ttf
  4

  0
STYLE
  5
4A
330
5
100
AcDbSymbolTableRecord
100
AcDbTextStyleTableRecord
  2
OpenSans-ExtraBoldItalic
 70
0
 40
0.0
 41
1.0
 50
0.0
 71
0
 42
2.5
  3
OpenSans-ExtraBoldItalic.ttf
  4

  0
STYLE
  5
4B
330
5
100
AcDbSymbolTableRecord
100
AcDbTextStyleTableRecord
  2
OpenSansCondensed-Bold
 70
0
 40
0.0
 41
1.0
 50
0.0
 71
0
 42
2.5
  3
OpenSansCondensed-Bold.ttf
  4

  0
STYLE
  5
4C
330
5
100
AcDbSymbolTableRecord
100
AcDbTextStyleTableRecord
  2
OpenSansCondensed-Light
 70
0
 40
0.0
 41
1.0
 50
0.0
 71
0
 42
2.5
  3
OpenSansCondensed-Light.ttf
  4

  0
STYLE
  5
4D
330
5
100
AcDbSymbolTableRecord
100
AcDbTextStyleTableRecord
  2
OpenSansCondensed-Italic
 70
0
 40
0.0
 41
1.0
 50
0.0
 71
0
 42
2.5
  3
OpenSansCondensed-LightItalic.ttf
  4

  0
STYLE
  5
4E
330
5
100
AcDbSymbolTableRecord
100
AcDbTextStyleTableRecord
  2
LiberationSans
 70
0
 40
0.0
 41
1.0
 50
0.0
 71
0
 42
2.5
  3
LiberationSans-Regular.ttf
  4

  0
STYLE
  5
4F
330
5
100
AcDbSymbolTableRecord
100
AcDbTextStyleTableRecord
  2
LiberationSans-Bold
 70
0
 40
0.0
 41
1.0
 50
0.0
 71
0
 42
2.5
  3
LiberationSans-Bold.ttf
  4

  0
STYLE
  5
50
330
5
100
AcDbSymbolTableRecord
100
AcDbTextStyleTableRecord
  2
LiberationSans-BoldItalic
 70
0
 40
0.0
 41
1.0
 50
0.0
 71
0
 42
2.5
  3
LiberationSans-BoldItalic.ttf
  4

  0
STYLE
  5
51
330
5
100
AcDbSymbolTableRecord
100
AcDbTextStyleTableRecord
  2
LiberationSans-Italic
 70
0
 40
0.0
 41
1.0
 50
0.0
 71
0
 42
2.5
  3
LiberationSans-Italic.ttf
  4

  0
STYLE
  5
52
330
5
100
AcDbSymbolTableRecord
100
AcDbTextStyleTableRecord
  2
LiberationSerif
 70
0
 40
0.0
 41
1.0
 50
0.0
 71
0
 42
2.5
  3
LiberationSerif-Regular.ttf
  4

  0
STYLE
  5
53
330
5
100
AcDbSymbolTableRecord
100
AcDbTextStyleTableRecord
  2
LiberationSerif-Bold
 70
0
 40
0.0
 41
1.0
 50
0.0
 71
0
 42
2.5
  3
LiberationSerif-Bold.ttf
  4

  0
STYLE
  5
54
330
5
100
AcDbSymbolTableRecord
100
AcDbTextStyleTableRecord
  2
LiberationSerif-BoldItalic
 70
0
 40
0.0
 41
1.0
 50
0.0
 71
0
 42
2.5
  3
LiberationSerif-BoldItalic.ttf
  4

  0
STYLE
  5
55
330
5
100
AcDbSymbolTableRecord
100
AcDbTextStyleTableRecord
  2
LiberationSerif-Italic
 70
0
 40
0.0
 41
1.0
 50
0.0
 71
0
 42
2.5
  3
LiberationSerif-Italic.ttf
  4

  0
STYLE
  5
56
330
5
100
AcDbSymbolTableRecord
100
AcDbTextStyleTableRecord
  2
LiberationMono
 70
0
 40
0.0
 41
1.0
 50
0.0
 71
0
 42
2.5
  3
LiberationMono-Regular.ttf
  4

  0
STYLE
  5
57
330
5
100
AcDbSymbolTableRecord
100
AcDbTextStyleTableRecord
  2
LiberationMono-Bold
 70
0
 40
0.0
 41
1.0
 50
0.0
 71
0
 42
2.5
  3
LiberationMono-Bold.ttf
  4

  0
STYLE
  5
58
330
5
100
AcDbSymbolTableRecord
100
AcDbTextStyleTableRecord
  2
LiberationMono-BoldItalic
 70
0
 40
0.0
 41
1.0
 50
0.0
 71
0
 42
2.5
  3
LiberationMono-BoldItalic.ttf
  4

  0
STYLE
  5
59
330
5
100
AcDbSymbolTableRecord
100
AcDbTextStyleTableRecord
  2
LiberationMono-Italic
 70
0
 40
0.0
 41
1.0
 50
0.0
 71
0
 42
2.5
  3
LiberationMono-Italic.ttf
  4

  0
ENDTAB
  0
TABLE
  2
VIEW
  5
7
330
0
100
AcDbSymbolTable
 70
0
  0
ENDTAB
  0
TABLE
  2
UCS
  5
6
330
0
100
AcDbSymbolTable
 70
0
  0
ENDTAB
  0
TABLE
  2
APPID
  5
3
330
0
100
AcDbSymbolTable
 70
3
  0
APPID
  5
2A
330
3
100
AcDbSymbolTableRecord
100
AcDbRegAppTableRecord
  2
ACAD
 70
0
  0
APPID
  5
AB
330
3
100
AcDbSymbolTableRecord
100
AcDbRegAppTableRecord
  2
HATCHBACKGROUNDCOLOR
 70
0
  0
APPID
  5
AC
330
3
100
AcDbSymbolTableRecord
100
AcDbRegAppTableRecord
  2
EZDXF
 70
0
  0
ENDTAB
  0
TABLE
  2
DIMSTYLE
  5
4
330
0
100
AcDbSymbolTable
 70
12
100
AcDbDimStyleTable
  0
DIMSTYLE
105
2B
330
4
100
AcDbSymbolTableRecord
100
AcDbDimStyleTableRecord
  2
Standard
 70
0
 40
1.0
 41
2.5
 42
0.625
 43
3.75
 44
1.25
 45
0.0
 46
0.0
 47
0.0
 48
0.0
 49
2.5
140
2.5
141
2.5
142
0.0
143
0.03937007874
144
1.0
145
0.0
146
1.0
147
0.625
148
0.0
 69
0
 70
0
 71
0
 72
0
 73
0
 74
0
 75
0
 76
0
 77
1
 78
8
 79
3
170
0
171
3
172
1
173
0
174
0
175
0
176
0
177
0
178
0
179
2
271
2
272
2
273
2
274
3
275
0
276
0
277
2
278
44
279
0
280
0
281
0
282
0
283
0
284
8
285
0
286
0
288
0
289
3
290
0
371
-2
372
-2
  0
DIMSTYLE
105
73
330
4
100
AcDbSymbolTableRecord
100
AcDbDimStyleTableRecord
  2
EZDXF
 70
0
 40
1.0
 41
0.175
 42
0.125
 43
3.75
 44
0.375
 45
0.0
 46
0.0
 47
0.0
 48
0.0
 49
2.5
140
0.25
141
2.5
142
0.0
143
0.03937007874
144
100.0
145
0.0
146
0.5
147
0.1
148
0.0
 69
0
 70
0
 71
0
 72
0
 73
0
 74
0
 75
0
 76
0
 77
1
 78
12
 79
3
170
0
171
3
172
1
173
0
174
0
175
0
176
0
177
0
178
0
179
2
271
2
272
2
273
2
274
3
275
0
276
0
277
2
278
46
279
2
280
0
281
0
282
0
283
0
284
8
285
0
286
0
288
1
289
3
290
0
340
4C
342
74
371
-2
372
-2
  0
DIMSTYLE
105
7C
330
4
100
AcDbSymbolTableRecord
100
AcDbDimStyleTableRecord
  2
EZ_M_100_H25_CM
 70
0
 40
1.0
 41
0.25
 42
0.125
 43
3.75
 44
0.375
 45
0.0
 46
0.0
 47
0.0
 48
0.0
 49
2.5
140
0.25
141
2.5
142
0.125
143
0.03937007874
144
100.0
145
0.0
146
0.5
147
0.1
148
0.0
 69
0
 70
0
 71
0
 72
0
 73
0
 74
0
 75
0
 76
0
 77
1
 78
12
 79
3
170
0
171
3
172
1
173
0
174
0
175
0
176
0
177
0
178
0
179
2
271
2
272
2
273
2
274
3
275
0
276
0
277
2
278
46
279
2
280
0
281
0
282
0
283
0
284
8
285
0
286
0
288
1
289
3
290
0
340
4C
371
-2
372
-2
  0
DIMSTYLE
105
7D
330
4
100
AcDbSymbolTableRecord
100
AcDbDimStyleTableRecord
  2
EZ_M_50_H25_CM
 70
0
 40
1.0
 41
0.125
 42
0.0625
 43
3.75
 44
0.1875
 45
0.0
 46
0.0
 47
0.0
 48
0.0
 49
2.5
140
0.125
141
2.5
142
0.0625
143
0.03937007874
144
100.0
145
0.0
146
0.5
147
0.05
148
0.0
 69
0
 70
0
 71
0
 72
0
 73
0
 74
0
 75
0
 76
0
 77
1
 78
12
 79
3
170
0
171
3
172
1
173
0
174
0
175
0
176
0
177
0
178
0
179
2
271
2
272
2
273
2
274
3
275
0
276
0
277
2
278
46
279
2
280
0
281
0
282
0
283
0
284
8
285
0
286
0
288
1
289
3
290
0
340
4C
371
-2
372
-2
  0
DIMSTYLE
105
7E
330
4
100
AcDbSymbolTableRecord
100
AcDbDimStyleTableRecord
  2
EZ_M_25_H25_CM
 70
0
 40
1.0
 41
0.0625
 42
0.03125
 43
3.75
 44
0.09375
 45
0.0
 46
0.0
 47
0.0
 48
0.0
 49
2.5
140
0.0625
141
2.5
142
0.03125
143
0.03937007874
144
100.0
145
0.0
146
0.5
147
0.025
148
0.0
 69
0
 70
0
 71
0
 72
0
 73
0
 74
0
 75
0
 76
0
 77
1
 78
12
 79
3
170
0
171
3
172
1
173
0
174
0
175
0
176
0
177
0
178
0
179
2
271
2
272
2
273
2
274
3
275
0
276
0
277
2
278
46
279
2
280
0
281
0
282
0
283
0
284
8
285
0
286
0
288
1
289
3
290
0
340
4C
371
-2
372
-2
  0
DIMSTYLE
105
7F
330
4
100
AcDbSymbolTableRecord
100
AcDbDimStyleTableRecord
  2
EZ_M_20_H25_CM
 70
0
 40
1.0
 41
0.05
 42
0.025
 43
3.75
 44
0.07500000000000001
 45
0.0
 46
0.0
 47
0.0
 48
0.0
 49
2.5
140
0.05
141
2.5
142
0.025
143
0.03937007874
144
100.0
145
0.0
146
0.5
147
0.020000000000000004
148
0.0
 69
0
 70
0
 71
0
 72
0
 73
0
 74
0
 75
0
 76
0
 77
1
 78
12
 79
3
170
0
171
3
172
1
173
0
174
0
175
0
176
0
177
0
178
0
179
2
271
2
272
2
273
2
274
3
275
0
276
0
277
2
278
46
279
2
280
0
281
0
282
0
283
0
284
8
285
0
286
0
288
1
289
3
290
0
340
4C
371
-2
372
-2
  0
DIMSTYLE
105
80
330
4
100
AcDbSymbolTableRecord
100
AcDbDimStyleTableRecord
  2
EZ_M_10_H25_CM
 70
0
 40
1.0
 41
0.025
 42
0.0125
 43
3.75
 44
0.037500000000000006
 45
0.0
 46
0.0
 47
0.0
 48
0.0
 49
2.5
140
0.025
141
2.5
142
0.0125
143
0.03937007874
144
100.0
145
0.0
146
0.5
147
0.010000000000000002
148
0.0
 69
0
 70
0
 71
0
 72
0
 73
0
 74
0
 75
0
 76
0
 77
1
 78
12
 79
3
170
0
171
3
172
1
173
0
174
0
175
0
176
0
177
0
178
0
179
2
271
2
272
2
273
2
274
3
275
0
276
0
277
2
278
46
279
2
280
0
281
0
282
0
283
0
284
8
285
0
286
0
288
1
289
3
290
0
340
4C
371
-2
372
-2
  0
DIMSTYLE
105
81
330
4
100
AcDbSymbolTableRecord
100
AcDbDimStyleTableRecord
  2
EZ_M_5_H25_CM
 70
0
 40
1.0
 41
0.0125
 42
0.00625
 43
3.75
 44
0.018750000000000003
 45
0.0
 46
0.0
 47
0.0
 48
0.0
 49
2.5
140
0.0125
141
2.5
142
0.00625
143
0.03937007874
144
100.0
145
0.0
146
0.5
147
0.005000000000000001
148
0.0
 69
0
 70
0
 71
0
 72
0
 73
0
 74
0
 75
0
 76
0
 77
1
 78
12
 79
3
170
0
171
3
172
1
173
0
174
0
175
0
176
0
177
0
178
0
179
2
271
2
272
2
273
2
274
3
275
0
276
0
277
2
278
46
279
2
280
0
281
0
282
0
283
0
284
8
285
0
286
0
288
1
289
3
290
0
340
4C
371
-2
372
-2
  0
DIMSTYLE
105
82
330
4
100
AcDbSymbolTableRecord
100
AcDbDimStyleTableRecord
  2
EZ_M_1_H25_CM
 70
0
 40
1.0
 41
0.0025
 42
0.00125
 43
3.75
 44
0.00375
 45
0.0
 46
0.0
 47
0.0
 48
0.0
 49
2.5
140
0.0025
141
2.5
142
0.00125
143
0.03937007874
144
100.0
145
0.0
146
0.5
147
0.001
148
0.0
 69
0
 70
0
 71
0
 72
0
 73
0
 74
0
 75
0
 76
0
 77
1
 78
12
 79
3
170
0
171
3
172
1
173
0
174
0
175
0
176
0
177
0
178
0
179
2
271
2
272
2
273
2
274
3
275
0
276
0
277
2
278
46
279
2
280
0
281
0
282
0
283
0
284
8
285
0
286
0
288
1
289
3
290
0
340
4C
371
-2
372
-2
  0
DIMSTYLE
105
83
330
4
100
AcDbSymbolTableRecord
100
AcDbDimStyleTableRecord
  2
EZ_RADIUS
 70
0
 40
1.0
 41
0.25
 42
0.125
 43
3.75
 44
0.375
 45
0.0
 46
0.0
 47
0.0
 48
0.0
 49
2.5
140
0.25
141
0.0
142
0.0
143
0.03937007874
144
100.0
145
0.0
146
0.5
147
0.1
148
0.0
 69
0
 70
0
 71
0
 72
0
 73
0
 74
0
 75
0
 76
0
 77
1
 78
12
 79
3
170
0
171
3
172
0
173
0
174
0
175
0
176
0
177
0
178
0
179
2
271
2
272
2
273
2
274
3
275
0
276
0
277
2
278
46
279
1
280
0
281
0
282
0
283
0
284
8
285
0
286
0
288
1
289
3
290
0
340
4C
342
84
371
-2
372
-2
  0
DIMSTYLE
105
88
330
4
100
AcDbSymbolTableRecord
100
AcDbDimStyleTableRecord
  2
EZ_RADIUS_INSIDE
 70
0
 40
1.0
 41
0.25
 42
0.125
 43
3.75
 44
0.375
 45
0.0
 46
0.0
 47
0.0
 48
0.0
 49
2.5
140
0.25
141
0.0
142
0.0
143
0.03937007874
144
100.0
145
0.0
146
0.5
147
0.1
148
0.0
 69
0
 70
0
 71
0
 72
0
 73
0
 74
0
 75
0
 76
0
 77
0
 78
12
 79
3
170
0
171
3
172
0
173
0
174
1
175
0
176
0
177
0
178
0
179
2
271
2
272
2
273
2
274
3
275
0
276
0
277
2
278
46
279
0
280
0
281
0
282
0
283
0
284
8
285
0
286
0
288
1
289
0
290
0
340
4C
342
84
371
-2
372
-2
  0
DIMSTYLE
105
89
330
4
100
AcDbSymbolTableRecord
100
AcDbDimStyleTableRecord
  2
EZ_CURVED
 70
0
 40
1.0
 41
0.25
 42
0.125
 43
3.75
 44
0.375
 45
0.0
 46
0.0
 47
0.0
 48
0.0
 49
2.5
140
0.25
141
2.5
142
0.0
143
0.03937007874
144
100.0
145
0.0
146
0.5
147
0.1
148
0.0
 69
0
 70
0
 71
0
 72
0
 73
0
 74
0
 75
0
 76
0
 77
1
 78
12
 79
2
 90
2
170
0
171
3
172
1
173
0
174
0
175
0
176
0
177
0
178
0
179
2
271
2
272
2
273
2
274
3
275
0
276
0
277
2
278
46
279
2
280
0
281
0
282
0
283
0
284
8
285
0
286
0
288
1
289
3
290
0
340
4C
371
-2
372
-2
  0
ENDTAB
  0
TABLE
  2
BLOCK_RECORD
  5
9
330
0
100
AcDbSymbolTable
 70
5
  0
BLOCK_RECORD
  5
17
330
9
100
AcDbSymbolTableRecord
100
AcDbBlockTableRecord
  2
*Model_Space
340
1A
 70
0
280
1
281
0
  0
BLOCK_RECORD
  5
1B
330
9
100
AcDbSymbolTableRecord
100
AcDbBlockTableRecord
  2
*Paper_Space
340
1E
 70
0
280
1
281
0
  0
BLOCK_RECORD
  5
74
330
9
100
AcDbSymbolTableRecord
100
AcDbBlockTableRecord
  2
_ARCHTICK
340
0
 70
0
280
1
281
0
  0
BLOCK_RECORD
  5
78
330
9
100
AcDbSymbolTableRecord
100
AcDbBlockTableRecord
  2
_CLOSEDFILLED
340
0
 70
0
280
1
281
0
  0
BLOCK_RECORD
  5
84
330
9
100
AcDbSymbolTableRecord
100
AcDbBlockTableRecord
  2
_CLOSEDBLANK
340
0
 70
0
280
1
281
0
  0
ENDTAB
  0
ENDSEC
  0
SECTION
  2
BLOCKS
  0
BLOCK
  5
18
330
17
100
AcDbEntity
  8
0
100
AcDbBlockBegin
  2
*Model_Space
 70
0
 10
0.0
 20
0.0
 30
0.0
  3
*Model_Space
  1

  0
ENDBLK
  5
19
330
17
100
AcDbEntity
  8
0
100
AcDbBlockEnd
  0
BLOCK
  5
1C
330
1B
100
AcDbEntity
  8
0
100
AcDbBlockBegin
  2
*Paper_Space
 70
0
 10
0.0
 20
0.0
 30
0.0
  3
*Paper_Space
  1

  0
ENDBLK
  5
1D
330
1B
100
AcDbEntity
  8
0
100
AcDbBlockEnd
  0
BLOCK
  5
75
330
74
100
AcDbEntity
  8
0
100
AcDbBlockBegin
  2
_ARCHTICK
 70
0
 10
0.0
 20
0.0
 30
0.0
  3
_ARCHTICK
  1

  0
LWPOLYLINE
  5
77
330
74
100
AcDbEntity
  8
0
  6
BYBLOCK
 62
0
100
AcDbPolyline
 90
2
 70
0
 43
0.15
 10
-0.5
 20
-0.5
 10
0.5
 20
0.5
  0
ENDBLK
  5
76
330
74
100
AcDbEntity
  8
0
100
AcDbBlockEnd
  0
BLOCK
  5
79
330
78
100
AcDbEntity
  8
0
100
AcDbBlockBegin
  2
_CLOSEDFILLED
 70
0
 10
0.0
 20
0.0
 30
0.0
  3
_CLOSEDFILLED
  1

  0
SOLID
  5
7B
330
78
100
AcDbEntity
  8
0
  6
BYBLOCK
 62
0
100
AcDbTrace
 10
-1.0
 20
0.16439898372402537
 30
0.0
 11
0.0
 21
0.0
 31
0.0
 12
-1.0
 22
-0.16439898372402537
 32
0.0
 13
-1.0
 23
-0.16439898372402537
 33
0.0
  0
ENDBLK
  5
7A
330
78
100
AcDbEntity
  8
0
100
AcDbBlockEnd
  0
BLOCK
  5
85
330
84
100
AcDbEntity
  8
0
100
AcDbBlockBegin
  2
_CLOSEDBLANK
 70
0
 10
0.0
 20
0.0
 30
0.0
  3
_CLOSEDBLANK
  1

  0
LWPOLYLINE
  5
87
330
84
100
AcDbEntity
  8
0
  6
BYBLOCK
 62
0
100
AcDbPolyline
 90
3
 70
1
 10
-1.0
 20
0.16439898372402537
 10
0.0
 20
0.0
 10
-1.0
 20
-0.16439898372402537
  0
ENDBLK
  5
86
330
84
100
AcDbEntity
  8
0
100
AcDbBlockEnd
  0
ENDSEC
  0
SECTION
  2
ENTITIES
  0
LWPOLYLINE
  5
8C
330
17
100
AcDbEntity
  8
Layer
100
AcDbPolyline
 90
162
 70
1
 10
427.7999999911284
 20
247.628041577558
 10
420.13359955052084
 20
248.69215050749136
 10
411.7681153853304
 20
249.78266469621587
 10
403.38770719848276
 20
250.80584708939432
 10
394.9940083492582
 20
251.76357897769356
 10
386.5908226339111
 20
252.65560733357276
 10
378.17913731623474
 20
253.48078937808097
 10
369.75788401190476
 20
254.23928293517633
 10
361.32927909169325
 20
254.93277695253065
 10
352.8992086345366
 20
255.56122520094974
 10
344.4714130848154
 20
256.1228025659916
 10
336.0459253439815
 20
256.6164180199104
 10
327.62426675205995
 20
257.0431457745894
 10
319.21191570419137
 20
257.4028100019982
 10
310.81311571695505
 20
257.69372494612935
 10
302.42778209343385
 20
257.9139585400609
 10
294.0564452332986
 20
258.06414865819636
 10
285.7041985459295
 20
258.1444948823564
 10
277.3754969724968
 20
258.15313379875323
 10
269.07107742067507
 20
258.0879891009892
 10
260.791161907595
 20
257.94912896676846
 10
252.54095742476397
 20
257.7369299908701
 10
244.32592532768425
 20
257.4496442112572
 10
236.14695985444757
 20
257.08474898602617
 10
228.00537547071758
 20
256.6422440518161
 10
219.90696044420173
 20
256.1225812481912
 10
211.8582028469442
 20
255.52378339904683
 10
203.8604679515467
 20
254.8431830273938
 10
195.91645384074616
 20
254.08130684514276
 10
188.0341899961198
 20
253.23850359504235
 10
180.21992916785146
 20
252.3121854362993
 10
172.47600738462216
 20
251.30053527948056
 10
164.80822384146921
 20
250.20487513963326
 10
157.22631936229584
 20
249.02500652448208
 10
149.7365871202866
 20
247.75898525894354
 10
142.34443873367454
 20
246.40822000401207
 10
135.06519204752965
 20
244.9782388179134
 10
127.91727515085037
 20
243.46989191061368
 10
120.91190487219995
 20
241.88225690612433
 10
114.06149105415648
 20
240.22104341349728
 10
107.38832699353227
 20
238.4943693601942
 10
100.91238774178944
 20
236.70507224965488
 10
94.64758646282291
 20
234.85867144333372
 10
88.61297602336407
 20
232.96851661175975
 10
82.83194255499683
 20
231.04645514877555
 10
77.32034528366472
 20
229.09983069089913
 10
72.08859954309077
 20
227.14150078470004
 10
67.14873918517179
 20
225.18775715742785
 10
62.50887825670253
 20
223.24918753415812
 10
58.167599535210286
 20
221.33335668253457
 10
54.11885014947654
 20
219.45115738059496
 10
50.355819837612955
 20
217.61234234001674
 10
46.86805184904995
 20
215.8203365889604
 10
43.639936222455674
 20
214.07524798987617
 10
40.65336471827618
 20
212.37884071245276
 10
37.89161444353516
 20
210.7339642062159
 10
35.33944041763738
 20
209.14016568310996
 10
32.98109425903857
 20
207.5938535875162
 10
30.800850895105498
 20
206.09141797752903
 10
28.78362376406932
 20
204.63052775527115
 10
26.9170290654489
 20
203.21031032249215
 10
25.190931827302563
 20
201.8279858035034
 10
23.595997723186088
 20
200.47859744582527
 10
22.120930419254194
 20
199.15558108607715
 10
20.753220860365616
 20
197.85674820767736
 10
19.48049023287348
 20
196.58300275151933
 10
18.293370918158928
 20
195.3396501492871
 10
17.186848674080352
 20
194.13065009560773
 10
16.16107496628797
 20
192.95887357746173
 10
15.21832385181034
 20
191.81982586711345
 10
14.360567144047252
 20
190.70675185539943
 10
13.587208936940613
 20
189.61057720139237
 10
12.89358652413705
 20
188.522658945304
 10
12.27301722308107
 20
187.44083682793107
 10
11.71813798082826
 20
186.3666576016412
 10
11.223896066539567
 20
185.30667531020597
 10
10.788110244870438
 20
184.26588477578443
 10
10.411498612049343
 20
183.24851437788195
 10
10.096238283933246
 20
182.2548923905919
 10
9.844119901552062
 20
181.28206831362849
 10
9.655369744091502
 20
180.3270233574306
 10
9.52837845150924
 20
179.38739190418002
 10
9.456723339324071
 20
178.38338245025656
 10
9.44706132364081
 20
177.53702274906897
 10
9.493184469640312
 20
176.606138708604
 10
9.604095920346651
 20
175.67888119667694
 10
9.787938771516338
 20
174.7594682040768
 10
10.054887589356326
 20
173.84739143934036
 10
10.413628983929414
 20
172.94073861655406
 10
10.86746457887375
 20
172.03972558495607
 10
11.413614459345808
 20
171.14728981536814
 10
12.045914570812329
 20
170.2686267550511
 10
12.760206916695836
 20
169.40869847080495
 10
13.556076516912242
 20
168.57148888980348
 10
14.43724621653007
 20
167.75881367010783
 10
15.407439080313736
 20
166.97072775357265
 10
16.46894978783763
 20
166.20542063470984
 10
17.620615871695236
 20
165.4604298112297
 10
18.86151887707041
 20
164.73305666693076
 10
20.190853446713675
 20
164.02188546164365
 10
21.6125961035616
 20
163.32636217758125
 10
23.132580543588006
 20
162.6462692660797
 10
24.760191851786374
 20
161.9807932397342
 10
26.504760862638022
 20
161.32732630728523
 10
28.375697031354434
 20
160.68184970129857
 10
30.383351447864072
 20
160.03993702004138
 10
32.53867345027686
 20
159.39768669431314
 10
34.85626215530448
 20
158.7529764462264
 10
37.353982117523856
 20
158.10483657719985
 10
40.05349598847545
 20
157.45224850785587
 10
42.97813634417702
 20
156.79321591251426
 10
46.15352412659604
 20
156.12580362686893
 10
49.60685912548422
 20
155.4492402609304
 10
53.36872024087239
 20
154.76476073577317
 10
57.47196060597753
 20
154.07445952332685
 10
61.94818935647737
 20
153.37926326708464
 10
66.82392862026984
 20
152.6807441243766
 10
72.11923956712363
 20
151.98417346046887
 10
77.84728561211105
 20
151.29713128007882
 10
84.01071658796735
 20
150.6254067426553
 10
90.59517447218997
 20
149.97383632532714
 10
97.57342221676623
 20
149.3508828148583
 10
104.91411026585698
 20
148.7636803823829
 10
112.57824162163382
 20
148.21427015333967
 10
120.52039901269939
 20
147.70559218295958
 10
128.7036538066636
 20
147.24113112675417
 10
137.09659930110084
 20
146.81915942495053
 10
145.66734628527126
 20
146.43770757643287
 10
154.39759377854224
 20
146.09791050037035
 10
163.28354533404377
 20
145.79280335006325
 10
172.29948345182578
 20
145.50550808717247
 10
173.25175405992616
 20
145.47646890452637
 10
173.22127355695162
 20
144.47693354300162
 10
181.3560045203776
 20
144.22886584283233
 10
190.46705526767624
 20
143.9749616912785
 10
199.609072149141
 20
143.75891663309625
 10
208.81730979199875
 20
143.5791709195427
 10
218.11036901320153
 20
143.4204706355488
 10
227.47060741819828
 20
143.26651531350333
 10
236.8631898190111
 20
143.10904818473847
 10
246.25951003058617
 20
142.95172509045824
 10
255.6388548420042
 20
142.80818890033538
 10
265.02061398797036
 20
142.6896212926297
 10
274.43922185713717
 20
142.5930852068234
 10
283.9081807827174
 20
142.50573187231464
 10
293.41052084515456
 20
142.41782291097073
 10
302.9319695611671
 20
142.32934855539617
 10
312.4607955182213
 20
142.24258043828965
 10
321.9864655803464
 20
142.15634975264368
 10
331.49508175655455
 20
142.07094462777968
 10
340.9797573678901
 20
141.99325680083348
 10
350.45235476606575
 20
141.92925559125595
 10
359.92580749202045
 20
141.87369883394672
 10
369.39436631486393
 20
141.8127803435697
 10
378.8637761958168
 20
141.74064546915577
 10
388.33408686942647
 20
141.66556777903352
 10
397.80280880256225
 20
141.600218859331
 10
407.2812722877466
 20
141.5452384468449
 10
416.7645683448017
 20
141.4921354276368
 10
426.2349680832396
 20
141.4374051762058
 10
427.7999999915364
 20
141.42959088522747
 10
427.7999999911284
 20
247.628041577558
  0
LWPOLYLINE
  5
8D
330
17
100
AcDbEntity
  8
NumLabel
 62
1
100
AcDbPolyline
 90
7
 70
0
 10
243.968
 20
168.22
 10
248.968
 20
168.22
 10
248.968
 20
163.22
 10
243.968
 20
163.22
 10
248.968
 20
163.22
 10
248.968
 20
158.22
 10
243.968
 20
158.22
  0
LWPOLYLINE
  5
8E
330
17
100
AcDbEntity
  8
NumLabel
 62
1
100
AcDbPolyline
 90
2
 70
0
 10
256.46799999999996
 20
163.22
 10
254.468
 20
163.22
  0
LWPOLYLINE
  5
8F
330
17
100
AcDbEntity
  8
NumLabel
 62
1
100
AcDbPolyline
 90
4
 70
0
 10
253.468
 20
163.22
 10
251.468
 20
163.22
 10
251.468
 20
168.22
 10
253.468
 20
168.22
  0
LWPOLYLINE
  5
90
330
17
100
AcDbEntity
  8
NumLabel
 62
1
100
AcDbPolyline
 90
4
 70
0
 10
254.468
 20
168.22
 10
256.46799999999996
 20
168.22
 10
256.46799999999996
 20
158.22
 10
254.468
 20
158.22
  0
LWPOLYLINE
  5
91
330
17
100
AcDbEntity
  8
NumLabel
 62
1
100
AcDbPolyline
 90
2
 70
0
 10
253.468
 20
158.22
 10
251.468
 20
158.22
  0
LWPOLYLINE
  5
92
330
17
100
AcDbEntity
  8
Layer
100
AcDbPolyline
 90
5
 70
1
 10
241.44209819490646
 20
253.31698021249193
 10
237.44607459621568
 20
253.13866756934405
 10
237.2677619530678
 20
257.1346911680348
 10
241.2637855517586
 20
257.31300381118274
 10
241.44209819490646
 20
253.31698021249193
  0
LWPOLYLINE
  5
93
330
17
100
AcDbEntity
  8
Layer
100
AcDbPolyline
 90
5
 70
1
 10
98.90748432959516
 20
231.94395273554073
 10
95.07069217343788
 20
230.81301244071966
 10
93.93975187861683
 20
234.64980459687695
 10
97.77654403477412
 20
235.78074489169802
 10
98.90748432959516
 20
231.94395273554073
  0
LWPOLYLINE
  5
94
330
17
100
AcDbEntity
  8
Layer
100
AcDbPolyline
 90
5
 70
1
 10
27.056145833399246
 20
196.8656205486234
 10
25.56768758839151
 20
195.5297717349965
 10
22.22806555432417
 20
199.25091734751587
 10
23.716523799331906
 20
200.58676616114278
 10
27.056145833399246
 20
196.8656205486234
  0
LWPOLYLINE
  5
95
330
17
100
AcDbEntity
  8
Layer
100
AcDbPolyline
 90
5
 70
1
 10
18.45283961239568
 20
170.93936144391176
 10
20.07684867613803
 20
169.77205918618984
 10
17.158593031833217
 20
165.71203652683397
 10
15.53458396809087
 20
166.8793387845559
 10
18.45283961239568
 20
170.93936144391176
  0
LWPOLYLINE
  5
96
330
17
100
AcDbEntity
  8
Layer
100
AcDbPolyline
 90
5
 70
1
 10
129.7228582849103
 20
151.19494340878924
 10
133.7178129005019
 20
150.99410113394873
 10
133.5169706256614
 20
146.99914651835712
 10
129.5220160100698
 20
147.19998879319763
 10
129.7228582849103
 20
151.19494340878924
  0
LWPOLYLINE
  5
97
330
17
100
AcDbEntity
  8
Layer
100
AcDbPolyline
 90
300
 70
1
 10
371.959247637051
 20
200.0
 10
371.94943784296805
 20
200.99092618276777
 10
371.92001279244823
 20
201.98141480042895
 10
371.87098547876536
 20
202.97102848109336
 10
371.8023775510011
 20
203.95933023921836
 10
371.7142193044849
 20
204.94588366856945
 10
371.6065496674167
 20
205.93025313492478
 10
371.47941618367713
 20
206.9120039684392
 10
371.3328749918338
 20
207.890702655582
 10
371.1669908003516
 20
208.86591703056442
 10
370.98183685901967
 20
209.83721646617192
 10
370.77749492660627
 20
210.8041720639169
 10
370.5540552347563
 20
211.7663568434283
 10
370.31161644814745
 20
212.7233459309941
 10
370.0502856209231
 20
213.6747167471736
 10
369.7701781494198
 20
214.62004919339654
 10
369.47141772121154
 20
215.55892583746683
 10
369.1541362604929
 20
216.49093209788896
 10
368.8184738698253
 20
217.41565642693536
 10
368.46457876827105
 20
218.33269049237433
 10
368.09260722594445
 20
219.24162935777818
 10
367.7027234950072
 20
220.1420716613316
 10
367.29509973713914
 20
221.0336197930619
 10
366.86991594751674
 20
221.91588007041207
 10
366.42735987533206
 20
222.78846291208038
 10
365.96762694088807
 20
223.65098301004815
 10
365.4909201493067
 20
224.50305949972102
 10
364.99745000088717
 20
225.3443161281081
 10
364.48743439815536
 20
226.1743814199646
 10
363.96109854964385
 20
226.99288884182496
 10
363.41867487044635
 20
227.7994769638536
 10
362.86040287958986
 20
228.59378961944225
 10
362.2865290942695
 20
229.37547606248296
 10
361.6973069209936
 20
230.1441911222479
 10
361.09299654368664
 20
230.89959535580687
 10
360.47386480879925
 20
231.64135519791583
 10
359.8401851074762
 20
232.36914310830988
 10
359.1922372548348
 20
233.08263771633588
 10
358.5303073664064
 20
233.7815239628606
 10
357.85468773179554
 20
234.46549323939206
 10
357.16567668561345
 20
235.1342435243522
 10
356.4635784757416
 20
235.78747951644135
 10
355.74870312898463
 20
236.4249127650347
 10
355.0213663141712
 20
237.04626179755417
 10
354.2818892027632
 20
237.65125224375865
 10
353.530598327036
 20
238.2396169568983
 10
352.76782543589064
 20
238.81109613167894
 10
351.9939073483628
 20
239.36543741898478
 10
351.2091858048934
 20
239.9023960373087
 10
350.4140073164251
 20
240.42173488084086
 10
349.60872301139335
 20
240.9232246241679
 10
348.7936884806774
 20
241.40664382353668
 10
347.969263620582
 20
241.8717790146376
 10
347.1358124739168
 20
242.31842480686436
 10
346.29370306924557
 20
242.7463839740087
 10
345.44330725837506
 20
243.15546754134994
 10
344.58500055215575
 20
243.54549486910088
 10
343.71916195466673
 20
243.91629373217336
 10
342.84617379585836
 20
244.26770039622787
 10
341.96642156272594
 20
244.599559689974
 10
341.0802937290896
 20
244.9117250736899
 10
340.1881815840551
 20
245.20405870392992
 10
339.29047905923176
 20
245.4764314943925
 10
338.38758255478314
 20
245.72872317292092
 10
337.4798907643881
 20
245.9608223346123
 10
336.56780449918864
 20
246.17262649101067
 10
335.6517265108032
 20
246.36404211536308
 10
334.73206131348286
 20
246.53498468391842
 10
333.8092150054891
 20
246.68537871325063
 10
332.88359508977226
 20
246.81515779359012
 10
331.95561029403
 20
246.92426461814844
 10
331.02567039022415
 20
247.01265100842338
 10
330.0941860136375
 20
247.0802779354731
 10
329.1615684815483
 20
247.12711553715047
 10
328.22822961160443
 20
247.15314313128906
 10
327.2945815399763
 20
247.15834922483603
 10
326.36103653936925
 20
247.14273151892704
 10
325.42800683697493
 20
247.10629690990135
 10
324.49590443244426
 20
247.04906148625662
 10
323.5651409159592
 20
246.97105052154473
 10
322.63612728648667
 20
246.87229846321154
 10
321.70927377029255
 20
246.75284891738607
 10
320.7849896397977
 20
246.6127546296251
 10
319.86368303285434
 20
246.45207746162228
 10
318.94576077252435
 20
246.27088836389174
 10
318.0316281874374
 20
246.0692673444384
 10
317.12168893280904
 20
245.84730343342858
 10
316.2163448121983
 20
245.6050946438768
 10
315.3159956000825
 20
245.34274792836612
 10
314.42103886532766
 20
245.06037913182075
 10
313.5318697956339
 20
244.75811294035216
 10
312.64888102303127
 20
244.43608282620147
 10
311.7724624505046
 20
244.0944309888015
 10
310.90300107982324
 20
243.73330829198574
 10
310.0408808406522
 20
243.35287419737114
 10
309.18648242101943
 20
242.9532966939442
 10
308.3401830992148
 20
242.5347522238819
 10
307.5023565771944
 20
242.09742560463962
 10
306.6733728155647
 20
241.6415099473413
 10
305.8535978702179
 20
241.16720657150654
 10
305.0433937306923
 20
240.674724916154
 10
304.2431181603277
 20
240.1642824473187
 10
303.45312453828734
 20
239.63610456202537
 10
302.6737617035155
 20
239.09042448875934
 10
301.9053738007
 20
238.52748318447942
 10
301.14830012830765
 20
237.94752922821817
 10
300.4028749887599
 20
237.35081871131632
 10
299.6694275408136
 20
236.73761512433998
 10
298.9482816542145
 20
236.1081892407308
 10
298.23975576668494
 20
235.46281899723994
 10
297.5441627433112
 20
234.80178937119902
 10
296.8618097383904
 20
234.12539225468214
 10
296.1929980598007
 20
233.43392632561455
 10
295.5380230359515
 20
232.72769691588505
 10
294.89717388537497
 20
232.00701587651974
 10
294.27073358901544
 20
231.27220143997766
 10
293.6589787652727
 20
230.52357807962807
 10
293.0621795478554
 20
229.76147636647232
 10
292.4805994664973
 20
228.98623282317288
 10
291.9144953305902
 20
228.19818977545452
 10
291.36411711578404
 20
227.39769520094274
 10
290.8297078536047
 20
226.5851025755068
 10
290.3115035241381
 20
225.76077071717472
 10
289.80973295182815
 20
224.9250636276892
 10
289.32461770443405
 20
224.0783503317749
 10
288.8563719951926
 20
223.22100471418736
 10
288.4052025882273
 20
222.35340535461597
 10
287.9713087072474
 20
221.475935360514
 10
287.55488194757595
 20
220.5889821979291
 10
287.15610619154734
 20
219.6929375204091
 10
286.7751575273093
 20
218.7881969960589
 10
286.41220417106786
 20
217.8751601328246
 10
286.06740639280764
 20
216.9542301020819
 10
285.74091644552095
 20
216.02581356060722
 10
285.4328784979775
 20
215.0903204710092
 10
285.14342857106334
 20
214.14816392070105
 10
284.8726944777178
 20
213.1997599394926
 10
284.620795766495
 20
212.2455273158833
 10
284.3878436687747
 20
211.28588741213693
 10
284.1739410496452
 20
210.3212639782201
 10
283.97918236248165
 20
209.3520829646859
 10
283.8036536072376
 20
208.3787723345864
 10
283.64743229246994
 20
207.40176187449597
 10
283.5105874011136
 20
206.4214830047299
 10
283.3931793600201
 20
205.43836858884106
 10
283.29526001327537
 20
204.4528527424797
 10
283.2168725993063
 20
203.4653706417002
 10
283.15805173178825
 20
202.47635833079948
 10
283.1188233843604
 20
201.48625252977223
 10
283.0992048791567
 20
200.49549044146752
 10
283.0992048791567
 20
199.5045095585325
 10
283.1188233843604
 20
198.5137474702278
 10
283.15805173178825
 20
197.52364166920052
 10
283.2168725993063
 20
196.5346293582998
 10
283.29526001327537
 20
195.5471472575203
 10
283.3931793600201
 20
194.56163141115897
 10
283.5105874011136
 20
193.57851699527012
 10
283.64743229246994
 20
192.59823812550403
 10
283.8036536072376
 20
191.62122766541364
 10
283.97918236248165
 20
190.6479170353141
 10
284.17394104964524
 20
189.6787360217799
 10
284.3878436687747
 20
188.71411258786307
 10
284.620795766495
 20
187.75447268411673
 10
284.8726944777178
 20
186.8002400605074
 10
285.14342857106334
 20
185.85183607929895
 10
285.4328784979775
 20
184.9096795289908
 10
285.74091644552095
 20
183.9741864393928
 10
286.0674063928076
 20
183.0457698979181
 10
286.41220417106786
 20
182.1248398671754
 10
286.7751575273093
 20
181.2118030039411
 10
287.15610619154734
 20
180.3070624795909
 10
287.55488194757595
 20
179.41101780207092
 10
287.9713087072474
 20
178.524064639486
 10
288.4052025882273
 20
177.64659464538406
 10
288.8563719951926
 20
176.77899528581264
 10
289.32461770443405
 20
175.92164966822506
 10
289.80973295182815
 20
175.07493637231076
 10
290.3115035241381
 20
174.23922928282528
 10
290.8297078536047
 20
173.4148974244932
 10
291.36411711578404
 20
172.6023047990573
 10
291.9144953305902
 20
171.8018102245455
 10
292.4805994664973
 20
171.01376717682712
 10
293.0621795478554
 20
170.23852363352768
 10
293.6589787652727
 20
169.47642192037193
 10
294.27073358901544
 20
168.72779856002234
 10
294.89717388537497
 20
167.99298412348026
 10
295.5380230359515
 20
167.27230308411495
 10
296.1929980598007
 20
166.56607367438545
 10
296.8618097383904
 20
165.8746077453179
 10
297.5441627433111
 20
165.19821062880098
 10
298.23975576668494
 20
164.53718100276006
 10
298.9482816542145
 20
163.89181075926922
 10
299.6694275408136
 20
163.26238487566002
 10
300.4028749887599
 20
162.6491812886837
 10
301.14830012830765
 20
162.05247077178183
 10
301.9053738006999
 20
161.47251681552058
 10
302.6737617035155
 20
160.90957551124066
 10
303.45312453828734
 20
160.36389543797463
 10
304.2431181603277
 20
159.8357175526813
 10
305.0433937306923
 20
159.325275083846
 10
305.8535978702179
 20
158.83279342849346
 10
306.67337281556473
 20
158.3584900526587
 10
307.50235657719446
 20
157.90257439536038
 10
308.3401830992148
 20
157.4652477761181
 10
309.18648242101943
 20
157.0467033060558
 10
310.04088084065216
 20
156.64712580262886
 10
310.9030010798232
 20
156.26669170801426
 10
311.7724624505045
 20
155.90556901119854
 10
312.64888102303127
 20
155.56391717379856
 10
313.5318697956339
 20
155.24188705964784
 10
314.42103886532766
 20
154.93962086817928
 10
315.3159956000825
 20
154.65725207163388
 10
316.2163448121983
 20
154.3949053561232
 10
317.12168893280904
 20
154.15269656657142
 10
318.0316281874374
 20
153.9307326555616
 10
318.9457607725244
 20
153.72911163610826
 10
319.86368303285434
 20
153.54792253837772
 10
320.7849896397977
 20
153.3872453703749
 10
321.70927377029255
 20
153.24715108261393
 10
322.63612728648667
 20
153.12770153678846
 10
323.5651409159592
 20
153.02894947845527
 10
324.49590443244426
 20
152.95093851374338
 10
325.42800683697493
 20
152.89370309009865
 10
326.3610365393692
 20
152.85726848107296
 10
327.2945815399763
 20
152.84165077516397
 10
328.2282296116044
 20
152.84685686871094
 10
329.1615684815483
 20
152.87288446284953
 10
330.09418601363745
 20
152.9197220645269
 10
331.02567039022415
 20
152.98734899157662
 10
331.95561029403
 20
153.07573538185156
 10
332.88359508977226
 20
153.18484220640988
 10
333.8092150054891
 20
153.31462128674937
 10
334.73206131348286
 20
153.46501531608158
 10
335.6517265108032
 20
153.63595788463692
 10
336.5678044991886
 20
153.82737350898933
 10
337.4798907643881
 20
154.03917766538768
 10
338.38758255478314
 20
154.27127682707908
 10
339.29047905923176
 20
154.5235685056075
 10
340.1881815840551
 20
154.79594129607005
 10
341.0802937290896
 20
155.08827492631008
 10
341.96642156272594
 20
155.400440310026
 10
342.84617379585836
 20
155.73229960377213
 10
343.71916195466673
 20
156.08370626782664
 10
344.58500055215575
 20
156.45450513089912
 10
345.44330725837506
 20
156.84453245865006
 10
346.29370306924557
 20
157.2536160259913
 10
347.1358124739168
 20
157.68157519313564
 10
347.969263620582
 20
158.1282209853624
 10
348.7936884806774
 20
158.59335617646332
 10
349.6087230113933
 20
159.0767753758321
 10
350.4140073164251
 20
159.57826511915914
 10
351.2091858048934
 20
160.0976039626913
 10
351.9939073483628
 20
160.6345625810152
 10
352.7678254358906
 20
161.18890386832106
 10
353.530598327036
 20
161.76038304310168
 10
354.2818892027632
 20
162.34874775624135
 10
355.02136631417113
 20
162.95373820244583
 10
355.74870312898463
 20
163.5750872349653
 10
356.4635784757416
 20
164.21252048355865
 10
357.16567668561345
 20
164.8657564756478
 10
357.85468773179554
 20
165.53450676060794
 10
358.5303073664064
 20
166.2184760371394
 10
359.1922372548348
 20
166.91736228366415
 10
359.8401851074762
 20
167.63085689169014
 10
360.47386480879925
 20
168.35864480208417
 10
361.09299654368664
 20
169.1004046441931
 10
361.6973069209936
 20
169.85580887775208
 10
362.2865290942695
 20
170.624523937517
 10
362.86040287958986
 20
171.40621038055775
 10
363.41867487044635
 20
172.20052303614636
 10
363.9610985496438
 20
173.00711115817504
 10
364.48743439815536
 20
173.8256185800354
 10
364.99745000088717
 20
174.6556838718919
 10
365.4909201493067
 20
175.49694050027898
 10
365.96762694088807
 20
176.34901698995185
 10
366.42735987533206
 20
177.21153708791962
 10
366.86991594751674
 20
178.08411992958793
 10
367.29509973713914
 20
178.96638020693814
 10
367.7027234950072
 20
179.8579283386684
 10
368.09260722594445
 20
180.7583706422218
 10
368.46457876827105
 20
181.66730950762565
 10
368.8184738698253
 20
182.58434357306464
 10
369.1541362604929
 20
183.509067902111
 10
369.4714177212115
 20
184.44107416253314
 10
369.7701781494198
 20
185.37995080660346
 10
370.0502856209231
 20
186.32528325282638
 10
370.31161644814745
 20
187.2766540690059
 10
370.5540552347563
 20
188.2336431565717
 10
370.77749492660627
 20
189.1958279360831
 10
370.98183685901967
 20
190.16278353382808
 10
371.1669908003516
 20
191.13408296943558
 10
371.3328749918338
 20
192.10929734441802
 10
371.47941618367713
 20
193.0879960315608
 10
371.6065496674167
 20
194.06974686507522
 10
371.7142193044849
 20
195.05411633143052
 10
371.8023775510011
 20
196.0406697607816
 10
371.87098547876536
 20
197.02897151890662
 10
371.92001279244823
 20
198.01858519957105
 10
371.94943784296805
 20
199.0090738172322
 10
371.959247637051
 20
200.0
  0
LWPOLYLINE
  5
98
330
17
100
AcDbEntity
  8
Layer
100
AcDbPolyline
 90
5
 70
1
 10
147.65328892676368
 20
205.00000000000003
 10
152.65328892676368
 20
200.00000000000003
 10
147.65328892676368
 20
195.00000000000003
 10
142.65328892676368
 20
200.00000000000003
 10
147.65328892676368
 20
205.00000000000003
  0
LWPOLYLINE
  5
99
330
17
100
AcDbEntity
  8
Layer
100
AcDbPolyline
 90
5
 70
1
 10
324.78962790276137
 20
205.0
 10
329.78962790276137
 20
200.0
 10
324.78962790276137
 20
195.0
 10
319.78962790276137
 20
200.0
 10
324.78962790276137
 20
205.0
  0
LWPOLYLINE
  5
9A
330
17
100
AcDbEntity
  8
Layer
100
AcDbPolyline
 90
5
 70
1
 10
180.06234678339158
 20
173.22913442828155
 10
184.73111737057008
 20
167.91852418045724
 10
179.42050712274576
 20
163.24975359327874
 10
174.75173653556726
 20
168.56036384110305
 10
180.06234678339158
 20
173.22913442828155
  0
LWPOLYLINE
  5
9B
330
17
100
AcDbEntity
  8
Layer
100
AcDbPolyline
 90
5
 70
1
 10
384.738209070739
 20
160.06508265343405
 10
389.40697965791753
 20
154.7544724056097
 10
384.0963694100932
 20
150.08570181843118
 10
379.42759882291466
 20
155.39631206625552
 10
384.738209070739
 20
160.06508265343405
  0
LWPOLYLINE
  5
9C
330
17
100
AcDbEntity
  8
Layer
100
AcDbPolyline
 90
5
 70
1
 10
172.52799999999996
 20
183.96082131879857
 10
177.52799999999996
 20
188.96082131879857
 10
182.52799999999996
 20
183.96082131879857
 10
177.52799999999996
 20
178.96082131879857
 10
172.52799999999996
 20
183.96082131879857
  0
LWPOLYLINE
  5
9D
330
17
100
AcDbEntity
  8
Layer
100
AcDbPolyline
 90
5
 70
1
 10
172.52799999999996
 20
212.34529638563606
 10
177.52799999999996
 20
217.34529638563606
 10
182.52799999999996
 20
212.34529638563606
 10
177.52799999999996
 20
207.34529638563606
 10
172.52799999999996
 20
212.34529638563606
  0
LINE
  5
9E
330
17
100
AcDbEntity
  8
Layer
 62
7
100
AcDbLine
 10
23.062396276098525
 20
200.00000000000003
 30
0.0
 11
427.79999999999995
 21
200.0
 31
0.0
  0
LINE
  5
9F
330
17
100
AcDbEntity
  8
Layer
 62
7
100
AcDbLine
 10
141.65328892676368
 20
200.00000000000003
 30
0.0
 11
153.65328892676368
 21
200.00000000000003
 31
0.0
  0
LINE
  5
A0
330
17
100
AcDbEntity
  8
Layer
 62
7
100
AcDbLine
 10
318.78962790276137
 20
200.0
 30
0.0
 11
330.78962790276137
 21
200.0
 31
0.0
  0
LINE
  5
A1
330
17
100
AcDbEntity
  8
Layer
 62
7
100
AcDbLine
 10
9.514139580438837
 20
179.18788121007796
 30
0.0
 11
427.79999999999995
 21
152.28516458431713
 31
0.0
  0
LINE
  5
A2
330
17
100
AcDbEntity
  8
Layer
 62
7
100
AcDbLine
 10
173.75379845206697
 20
168.62454780716763
 30
0.0
 11
185.72905545407036
 21
167.85434021439266
 31
0.0
  0
LINE
  5
A3
330
17
100
AcDbEntity
  8
Layer
 62
7
100
AcDbLine
 10
378.4296607394144
 20
155.4604960323201
 30
0.0
 11
390.4049177414178
 21
154.69028843954513
 31
0.0
  0
LINE
  5
A4
330
17
100
AcDbEntity
  8
Layer
100
AcDbLine
 10
327.52799999999996
 20
247.159
 30
0.0
 11
327.52799999999996
 21
248.159
 31
0.0
  0
LINE
  5
A5
330
17
100
AcDbEntity
  8
Layer
100
AcDbLine
 10
327.52799999999996
 20
152.841
 30
0.0
 11
327.52799999999996
 21
151.841
 31
0.0
  0
LINE
  5
A6
330
17
100
AcDbEntity
  8
Layer
100
AcDbLine
 10
371.959247637051
 20
200.0
 30
0.0
 11
372.959247637051
 21
200.0
 31
0.0
  0
LINE
  5
A7
330
17
100
AcDbEntity
  8
Layer
100
AcDbLine
 10
283.0967523629489
 20
200.0
 30
0.0
 11
282.0967523629489
 21
200.0
 31
0.0
  0
LINE
  5
A8
330
17
100
AcDbEntity
  8
Layer
 62
7
100
AcDbLine
 10
177.52799999999996
 20
144.34560040748815
 30
0.0
 11
177.52799999999996
 21
251.9605172969465
 31
0.0
  0
LINE
  5
A9
330
17
100
AcDbEntity
  8
Layer
 62
7
100
AcDbLine
 10
177.52799999999996
 20
177.96082131879857
 30
0.0
 11
177.52799999999996
 21
189.96082131879857
 31
0.0
  0
LINE
  5
AA
330
17
100
AcDbEntity
  8
Layer
 62
7
100
AcDbLine
 10
177.52799999999996
 20
206.34529638563606
 30
0.0
 11
177.52799999999996
 21
218.34529638563606
 31
0.0
  0
ENDSEC
  0
SECTION
  2
OBJECTS
  0
DICTIONARY
  5
A
330
0
100
AcDbDictionary
280
0
281
1
  3
ACAD_COLOR
350
B
  3
ACAD_GROUP
350
C
  3
ACAD_LAYOUT
350
D
  3
ACAD_MATERIAL
350
E
  3
ACAD_MLEADERSTYLE
350
F
  3
ACAD_MLINESTYLE
350
10
  3
ACAD_PLOTSETTINGS
350
11
  3
ACAD_PLOTSTYLENAME
350
12
  3
ACAD_SCALELIST
350
14
  3
ACAD_TABLESTYLE
350
15
  3
ACAD_VISUALSTYLE
350
16
  3
EZDXF_META
350
2D
  0
DICTIONARY
  5
B
330
A
100
AcDbDictionary
280
0
281
1
  0
DICTIONARY
  5
C
330
A
100
AcDbDictionary
280
0
281
1
  0
DICTIONARY
  5
D
330
A
100
AcDbDictionary
280
0
281
1
  3
Model
350
1A
  3
Layout1
350
1E
  0
DICTIONARY
  5
E
330
A
100
AcDbDictionary
280
0
281
1
  3
ByBlock
350
1F
  3
ByLayer
350
20
  3
Global
350
21
  0
DICTIONARY
  5
F
330
A
100
AcDbDictionary
280
0
281
1
  3
Standard
350
2C
  0
DICTIONARY
  5
10
330
A
100
AcDbDictionary
280
0
281
1
  3
Standard
350
22
  0
DICTIONARY
  5
11
330
A
100
AcDbDictionary
280
0
281
1
  0
ACDBDICTIONARYWDFLT
  5
12
330
A
100
AcDbDictionary
280
0
281
1
  3
Normal
350
13
100
AcDbDictionaryWithDefault
340
13
  0
ACDBPLACEHOLDER
  5
13
330
12
  0
DICTIONARY
  5
14
330
A
100
AcDbDictionary
280
0
281
1
  0
DICTIONARY
  5
15
330
A
100
AcDbDictionary
280
0
281
1
  0
DICTIONARY
  5
16
330
A
100
AcDbDictionary
280
0
281
1
  3
2dWireframe
350
5A
  3
Basic
350
5B
  3
Brighten
350
5C
  3
ColorChange
350
5D
  3
Conceptual
350
5E
  3
Dim
350
5F
  3
EdgeColorOff
350
60
  3
Facepattern
350
61
  3
Flat
350
62
  3
FlatWithEdges
350
63
  3
Gouraud
350
64
  3
GouraudWithEdges
350
65
  3
Hidden
350
66
  3
JitterOff
350
67
  3
Linepattern
350
68
  3
Modeling
350
69
  3
OverhangOff
350
6A
  3
Realistic
350
6B
  3
Shaded
350
6C
  3
Shaded with edges
350
6D
  3
Shades of Gray
350
6E
  3
Sketchy
350
6F
  3
Thicken
350
70
  3
Wireframe
350
71
  3
X-Ray
350
72
  0
LAYOUT
  5
1A
330
D
100
AcDbPlotSettings
  1

  2
Adobe PDF
  4
A3
  6

 40
7.5
 41
20.0
 42
7.5
 43
20.0
 44
420.0
 45
297.0
 46
0.0
 47
0.0
 48
0.0
 49
0.0
140
0.0
141
0.0
142
1.0
143
1.0
 70
1024
 72
1
 73
0
 74
5
  7

 75
16
 76
0
 77
2
 78
300
147
1.0
148
0.0
149
0.0
100
AcDbLayout
  1
Model
 70
1
 71
0
 10
0.0
 20
0.0
 11
420.0
 21
297.0
 12
0.0
 22
0.0
 32
0.0
 14
1e+20
 24
1e+20
 34
1e+20
 15
-1e+20
 25
-1e+20
 35
-1e+20
146
0.0
 13
0.0
 23
0.0
 33
0.0
 16
1.0
 26
0.0
 36
0.0
 17
0.0
 27
1.0
 37
0.0
 76
1
330
17
  0
LAYOUT
  5
1E
330
D
100
AcDbPlotSettings
  1

  2
Adobe PDF
  4
A3
  6

 40
7.5
 41
20.0
 42
7.5
 43
20.0
 44
420.0
 45
297.0
 46
0.0
 47
0.0
 48
0.0
 49
0.0
140
0.0
141
0.0
142
1.0
143
1.0
 70
0
 72
1
 73
0
 74
5
  7

 75
16
 76
0
 77
2
 78
300
147
1.0
148
0.0
149
0.0
100
AcDbLayout
  1
Layout1
 70
1
 71
1
 10
0.0
 20
0.0
 11
420.0
 21
297.0
 12
0.0
 22
0.0
 32
0.0
 14
1e+20
 24
1e+20
 34
1e+20
 15
-1e+20
 25
-1e+20
 35
-1e+20
146
0.0
 13
0.0
 23
0.0
 33
0.0
 16
1.0
 26
0.0
 36
0.0
 17
0.0
 27
1.0
 37
0.0
 76
1
330
1B
  0
MATERIAL
  5
1F
102
{ACAD_REACTORS
330
E
102
}
330
E
100
AcDbMaterial
  1
ByBlock
  2

 70
0
 40
1.0
 71
1
 41
1.0
 91
-1023410177
 42
1.0
 72
1
  3

 73
1
 74
1
 75
1
 44
0.5
 73
0
 45
1.0
 46
1.0
 77
1
  4

 78
1
 79
1
170
1
 48
1.0
171
1
  6

172
1
173
1
174
1
140
1.0
141
1.0
175
1
  7

176
1
177
1
178
1
143
1.0
179
1
  8

270
1
271
1
272
1
145
1.0
146
1.0
273
1
  9

274
1
275
1
276
1
 42
1.0
 72
1
  3

 73
1
 74
1
 75
1
 94
63
  0
MATERIAL
  5
20
102
{ACAD_REACTORS
330
E
102
}
330
E
100
AcDbMaterial
  1
ByLayer
  2

 70
0
 40
1.0
 71
1
 41
1.0
 91
-1023410177
 42
1.0
 72
1
  3

 73
1
 74
1
 75
1
 44
0.5
 73
0
 45
1.0
 46
1.0
 77
1
  4

 78
1
 79
1
170
1
 48
1.0
171
1
  6

172
1
173
1
174
1
140
1.0
141
1.0
175
1
  7

176
1
177
1
178
1
143
1.0
179
1
  8

270
1
271
1
272
1
145
1.0
146
1.0
273
1
  9

274
1
275
1
276
1
 42
1.0
 72
1
  3

 73
1
 74
1
 75
1
 94
63
  0
MATERIAL
  5
21
102
{ACAD_REACTORS
330
E
102
}
330
E
100
AcDbMaterial
  1
Global
  2

 70
0
 40
1.0
 71
1
 41
1.0
 91
-1023410177
 42
1.0
 72
1
  3

 73
1
 74
1
 75
1
 44
0.5
 73
0
 45
1.0
 46
1.0
 77
1
  4

 78
1
 79
1
170
1
 48
1.0
171
1
  6

172
1
173
1
174
1
140
1.0
141
1.0
175
1
  7

176
1
177
1
178
1
143
1.0
179
1
  8

270
1
271
1
272
1
145
1.0
146
1.0
273
1
  9

274
1
275
1
276
1
 42
1.0
 72
1
  3

 73
1
 74
1
 75
1
 94
63
  0
MLINESTYLE
  5
22
102
{ACAD_REACTORS
330
10
102
}
330
10
100
AcDbMlineStyle
  2
Standard
 70
0
  3

 62
256
 51
90.0
 52
90.0
 71
2
 49
0.5
 62
256
  6
BYLAYER
 49
-0.5
 62
256
  6
BYLAYER
  0
MLEADERSTYLE
  5
2C
102
{ACAD_REACTORS
330
F
102
}
330
F
100
AcDbMLeaderStyle
179
2
170
2
171
1
172
0
 90
2
 40
0.0
 41
0.0
173
1
 91
-1056964608
 92
-2
290
1
 42
2.0
291
1
 43
8.0
  3
Standard
 44
4.0
300

342
29
174
1
175
1
176
0
178
1
 93
-1056964608
 45
4.0
292
0
297
0
 46
4.0
 94
-1056964608
 47
1.0
 49
1.0
140
1.0
294
1
141
0.0
177
0
142
1.0
295
0
296
0
143
3.75
271
0
272
9
273
9
  0
DICTIONARY
  5
2D
330
A
100
AcDbDictionary
281
1
  3
CREATED_BY_EZDXF
350
2E
  3
WRITTEN_BY_EZDXF
350
AD
  0
DICTIONARYVAR
  5
2E
330
2D
100
DictionaryVariables
280
0
  1
1.3.0 @ 2026-01-06T17:07:15.458781+00:00
  0
VISUALSTYLE
  5
5A
102
{ACAD_REACTORS
330
16
102
}
330
16
100
AcDbVisualStyle
  2
2dWireframe
 70
4
 90
0
 40
0.6
 62
7
290
0
291
0
  0
VISUALSTYLE
  5
5B
102
{ACAD_REACTORS
330
16
102
}
330
16
100
AcDbVisualStyle
  2
Basic
 70
7
 90
1
 40
0.6
 62
7
290
0
291
1
  0
VISUALSTYLE
  5
5C
102
{ACAD_REACTORS
330
16
102
}
330
16
100
AcDbVisualStyle
  2
Brighten
 70
12
 90
2
 40
0.6
 62
7
290
0
291
1
  0
VISUALSTYLE
  5
5D
102
{ACAD_REACTORS
330
16
102
}
330
16
100
AcDbVisualStyle
  2
ColorChange
 70
16
 90
2
 40
0.6
 62
8
290
0
291
1
  0
VISUALSTYLE
  5
5E
102
{ACAD_REACTORS
330
16
102
}
330
16
100
AcDbVisualStyle
  2
Conceptual
 70
9
 90
3
 40
0.6
 62
7
290
0
291
0
  0
VISUALSTYLE
  5
5F
102
{ACAD_REACTORS
330
16
102
}
330
16
100
AcDbVisualStyle
  2
Dim
 70
11
 90
2
 40
0.6
 62
7
290
0
291
1
  0
VISUALSTYLE
  5
60
102
{ACAD_REACTORS
330
16
102
}
330
16
100
AcDbVisualStyle
  2
EdgeColorOff
 70
22
 90
2
 40
0.6
 62
7
290
0
291
1
  0
VISUALSTYLE
  5
61
102
{ACAD_REACTORS
330
16
102
}
330
16
100
AcDbVisualStyle
  2
Facepattern
 70
15
 90
2
 40
0.6
 62
7
290
0
291
1
  0
VISUALSTYLE
  5
62
102
{ACAD_REACTORS
330
16
102
}
330
16
100
AcDbVisualStyle
  2
Flat
 70
0
 90
2
 40
0.6
 62
7
290
0
291
1
  0
VISUALSTYLE
  5
63
102
{ACAD_REACTORS
330
16
102
}
330
16
100
AcDbVisualStyle
  2
FlatWithEdges
 70
1
 90
2
 40
0.6
 62
7
290
0
291
1
  0
VISUALSTYLE
  5
64
102
{ACAD_REACTORS
330
16
102
}
330
16
100
AcDbVisualStyle
  2
Gouraud
 70
2
 90
2
 40
0.6
 62
7
290
0
291
1
  0
VISUALSTYLE
  5
65
102
{ACAD_REACTORS
330
16
102
}
330
16
100
AcDbVisualStyle
  2
GouraudWithEdges
 70
3
 90
2
 40
0.6
 62
7
290
0
291
1
  0
VISUALSTYLE
  5
66
102
{ACAD_REACTORS
330
16
102
}
330
16
100
AcDbVisualStyle
  2
Hidden
 70
6
 90
1
 40
0.6
 62
7
290
0
291
0
  0
VISUALSTYLE
  5
67
102
{ACAD_REACTORS
330
16
102
}
330
16
100
AcDbVisualStyle
  2
JitterOff
 70
20
 90
2
 40
0.6
 62
7
290
0
291
1
  0
VISUALSTYLE
  5
68
102
{ACAD_REACTORS
330
16
102
}
330
16
100
AcDbVisualStyle
  2
Linepattern
 70
14
 90
2
 40
0.6
 62
7
290
0
291
1
  0
VISUALSTYLE
  5
69
102
{ACAD_REACTORS
330
16
102
}
330
16
100
AcDbVisualStyle
  2
Modeling
 70
10
 90
2
 40
0.6
 62
7
290
0
291
0
  0
VISUALSTYLE
  5
6A
102
{ACAD_REACTORS
330
16
102
}
330
16
100
AcDbVisualStyle
  2
OverhangOff
 70
21
 90
2
 40
0.6
 62
7
290
0
291
1
  0
VISUALSTYLE
  5
6B
102
{ACAD_REACTORS
330
16
102
}
330
16
100
AcDbVisualStyle
  2
Realistic
 70
8
 90
2
 40
0.6
 62
7
290
0
291
0
  0
VISUALSTYLE
  5
6C
102
{ACAD_REACTORS
330
16
102
}
330
16
100
AcDbVisualStyle
  2
Shaded
 70
27
 90
2
 40
0.6
 62
7
290
0
291
0
  0
VISUALSTYLE
  5
6D
102
{ACAD_REACTORS
330
16
102
}
330
16
100
AcDbVisualStyle
  2
Shaded with edges
 70
26
 90
2
 40
0.6
 62
7
290
0
291
0
  0
VISUALSTYLE
  5
6E
102
{ACAD_REACTORS
330
16
102
}
330
16
100
AcDbVisualStyle
  2
Shades of Gray
 70
23
 90
2
 40
0.6
 62
7
290
0
291
0
  0
VISUALSTYLE
  5
6F
102
{ACAD_REACTORS
330
16
102
}
330
16
100
AcDbVisualStyle
  2
Sketchy
 70
24
 90
1
 40
0.6
 62
7
290
0
291
0
  0
VISUALSTYLE
  5
70
102
{ACAD_REACTORS
330
16
102
}
330
16
100
AcDbVisualStyle
  2
Thicken
 70
13
 90
2
 40
0.6
 62
7
290
0
291
1
  0
VISUALSTYLE
  5
71
102
{ACAD_REACTORS
330
16
102
}
330
16
100
AcDbVisualStyle
  2
Wireframe
 70
5
 90
0
 40
0.6
 62
7
290
0
291
0
  0
VISUALSTYLE
  5
72
102
{ACAD_REACTORS
330
16
102
}
330
16
100
AcDbVisualStyle
  2
X-Ray
 70
25
 90
2
 40
0.5
 62
7
290
0
291
0
  0
DICTIONARYVAR
  5
AD
330
2D
100
DictionaryVariables
280
0
  1
1.3.0 @ 2026-01-06T17:07:15.487562+00:00
  0
ENDSEC
  0
EOF
