  0
SECTION
  2
HEADER
  9
$ACADVER
  1
AC1021
  9
$ACADMAINTVER
 70
25
  9
$DWGCODEPAGE
  3
ANSI_1252
  9
$LASTSAVEDBY
  1
ezdxf
  9
$INSBASE
 10
0.0
 20
0.0
 30
0.0
  9
$EXTMIN
 10
1e+20
 20
1e+20
 30
1e+20
  9
$EXTMAX
 10
-1e+20
 20
-1e+20
 30
-1e+20
  9
$LIMMIN
 10
0.0
 20
0.0
  9
$LIMMAX
 10
420.0
 20
297.0
  9
$ORTHOMODE
 70
0
  9
$REGENMODE
 70
1
  9
$FILLMODE
 70
1
  9
$QTEXTMODE
 70
0
  9
$MIRRTEXT
 70
1
  9
$LTSCALE
 40
1.0
  9
$ATTMODE
 70
1
  9
$TEXTSIZE
 40
2.5
  9
$TRACEWID
 40
1.0
  9
$TEXTSTYLE
  7
OpenSans
  9
$CLAYER
  8
0
  9
$CELTYPE
  6
ByLayer
  9
$CECOLOR
 62
256
  9
$CELTSCALE
 40
1.0
  9
$DISPSILH
 70
0
  9
$DIMSCALE
 40
1.0
  9
$DIMASZ
 40
0.175
  9
$DIMEXO
 40
0.125
  9
$DIMDLI
 40
3.75
  9
$DIMRND
 40
0.0
  9
$DIMDLE
 40
0.0
  9
$DIMEXE
 40
0.375
  9
$DIMTP
 40
0.0
  9
$DIMTM
 40
0.0
  9
$DIMTXT
 40
0.25
  9
$DIMCEN
 40
2.5
  9
$DIMTSZ
 40
0.0
  9
$DIMTOL
 70
0
  9
$DIMLIM
 70
0
  9
$DIMTIH
 70
0
  9
$DIMTOH
 70
0
  9
$DIMSE1
 70
0
  9
$DIMSE2
 70
0
  9
$DIMTAD
 70
1
  9
$DIMZIN
 70
12
  9
$DIMBLK
  1
ARCHTICK
  9
$DIMASO
 70
1
  9
$DIMSHO
 70
1
  9
$DIMPOST
  1

  9
$DIMAPOST
  1

  9
$DIMALT
 70
0
  9
$DIMALTD
 70
3
  9
$DIMALTF
 40
0.03937007874
  9
$DIMLFAC
 40
100.0
  9
$DIMTOFL
 70
1
  9
$DIMTVP
 40
0.0
  9
$DIMTIX
 70
0
  9
$DIMSOXD
 70
0
  9
$DIMSAH
 70
0
  9
$DIMBLK1
  1

  9
$DIMBLK2
  1

  9
$DIMSTYLE
  2
EZDXF
  9
$DIMCLRD
 70
0
  9
$DIMCLRE
 70
0
  9
$DIMCLRT
 70
0
  9
$DIMTFAC
 40
0.5
  9
$DIMGAP
 40
0.1
  9
$DIMJUST
 70
0
  9
$DIMSD1
 70
0
  9
$DIMSD2
 70
0
  9
$DIMTOLJ
 70
0
  9
$DIMTZIN
 70
8
  9
$DIMALTZ
 70
0
  9
$DIMALTTZ
 70
0
  9
$DIMUPT
 70
1
  9
$DIMDEC
 70
2
  9
$DIMTDEC
 70
2
  9
$DIMALTU
 70
2
  9
$DIMALTTD
 70
3
  9
$DIMTXSTY
  7
OpenSansCondensed-Light
  9
$DIMAUNIT
 70
0
  9
$DIMADEC
 70
2
  9
$DIMALTRND
 40
0.0
  9
$DIMAZIN
 70
3
  9
$DIMDSEP
 70
46
  9
$DIMATFIT
 70
3
  9
$DIMFRAC
 70
0
  9
$DIMLDRBLK
  1

  9
$DIMLUNIT
 70
2
  9
$DIMLWD
 70
-2
  9
$DIMLWE
 70
-2
  9
$DIMTMOVE
 70
2
  9
$DIMFXL
 40
1.0
  9
$DIMFXLON
 70
0
  9
$DIMJOGANG
 40
0.785398163397
  9
$DIMTFILL
 70
0
  9
$DIMTFILLCLR
 70
0
  9
$DIMARCSYM
 70
0
  9
$DIMLTYPE
  6

  9
$DIMLTEX1
  6

  9
$DIMLTEX2
  6

  9
$LUNITS
 70
2
  9
$LUPREC
 70
4
  9
$SKETCHINC
 40
1.0
  9
$FILLETRAD
 40
10.0
  9
$AUNITS
 70
0
  9
$AUPREC
 70
2
  9
$MENU
  1
.
  9
$ELEVATION
 40
0.0
  9
$PELEVATION
 40
0.0
  9
$THICKNESS
 40
0.0
  9
$LIMCHECK
 70
0
  9
$CHAMFERA
 40
0.0
  9
$CHAMFERB
 40
0.0
  9
$CHAMFERC
 40
0.0
  9
$CHAMFERD
 40
0.0
  9
$SKPOLY
 70
0
  9
$TDCREATE
 40
2461048.0884722224
  9
$TDUCREATE
 40
2458532.153996898
  9
$TDUPDATE
 40
2461048.0884722224
  9
$TDUUPDATE
 40
2458532.1544311
  9
$TDINDWG
 40
0.0
  9
$TDUSRTIMER
 40
0.0
  9
$USRTIMER
 70
1
  9
$ANGBASE
 50
0.0
  9
$ANGDIR
 70
0
  9
$PDMODE
 70
0
  9
$PDSIZE
 40
0.0
  9
$PLINEWID
 40
0.0
  9
$SPLFRAME
 70
0
  9
$SPLINETYPE
 70
6
  9
$SPLINESEGS
 70
8
  9
$HANDSEED
  5
B6
  9
$SURFTAB1
 70
6
  9
$SURFTAB2
 70
6
  9
$SURFTYPE
 70
6
  9
$SURFU
 70
6
  9
$SURFV
 70
6
  9
$UCSBASE
  2

  9
$UCSNAME
  2

  9
$UCSORG
 10
0.0
 20
0.0
 30
0.0
  9
$UCSXDIR
 10
1.0
 20
0.0
 30
0.0
  9
$UCSYDIR
 10
0.0
 20
1.0
 30
0.0
  9
$UCSORTHOREF
  2

  9
$UCSORTHOVIEW
 70
0
  9
$UCSORGTOP
 10
0.0
 20
0.0
 30
0.0
  9
$UCSORGBOTTOM
 10
0.0
 20
0.0
 30
0.0
  9
$UCSORGLEFT
 10
0.0
 20
0.0
 30
0.0
  9
$UCSORGRIGHT
 10
0.0
 20
0.0
 30
0.0
  9
$UCSORGFRONT
 10
0.0
 20
0.0
 30
0.0
  9
$UCSORGBACK
 10
0.0
 20
0.0
 30
0.0
  9
$PUCSBASE
  2

  9
$PUCSNAME
  2

  9
$PUCSORG
 10
0.0
 20
0.0
 30
0.0
  9
$PUCSXDIR
 10
1.0
 20
0.0
 30
0.0
  9
$PUCSYDIR
 10
0.0
 20
1.0
 30
0.0
  9
$PUCSORTHOREF
  2

  9
$PUCSORTHOVIEW
 70
0
  9
$PUCSORGTOP
 10
0.0
 20
0.0
 30
0.0
  9
$PUCSORGBOTTOM
 10
0.0
 20
0.0
 30
0.0
  9
$PUCSORGLEFT
 10
0.0
 20
0.0
 30
0.0
  9
$PUCSORGRIGHT
 10
0.0
 20
0.0
 30
0.0
  9
$PUCSORGFRONT
 10
0.0
 20
0.0
 30
0.0
  9
$PUCSORGBACK
 10
0.0
 20
0.0
 30
0.0
  9
$USERI1
 70
0
  9
$USERI2
 70
0
  9
$USERI3
 70
0
  9
$USERI4
 70
0
  9
$USERI5
 70
0
  9
$USERR1
 40
0.0
  9
$USERR2
 40
0.0
  9
$USERR3
 40
0.0
  9
$USERR4
 40
0.0
  9
$USERR5
 40
0.0
  9
$WORLDVIEW
 70
1
  9
$SHADEDGE
 70
3
  9
$SHADEDIF
 70
70
  9
$TILEMODE
 70
1
  9
$MAXACTVP
 70
64
  9
$PINSBASE
 10
0.0
 20
0.0
 30
0.0
  9
$PLIMCHECK
 70
0
  9
$PEXTMIN
 10
1e+20
 20
1e+20
 30
1e+20
  9
$PEXTMAX
 10
-1e+20
 20
-1e+20
 30
-1e+20
  9
$PLIMMIN
 10
0.0
 20
0.0
  9
$PLIMMAX
 10
420.0
 20
297.0
  9
$UNITMODE
 70
0
  9
$VISRETAIN
 70
1
  9
$PLINEGEN
 70
0
  9
$PSLTSCALE
 70
1
  9
$TREEDEPTH
 70
3020
  9
$CMLSTYLE
  2
Standard
  9
$CMLJUST
 70
0
  9
$CMLSCALE
 40
20.0
  9
$PROXYGRAPHICS
 70
1
  9
$MEASUREMENT
 70
1
  9
$CELWEIGHT
370
-1
  9
$ENDCAPS
280
0
  9
$JOINSTYLE
280
0
  9
$LWDISPLAY
290
0
  9
$INSUNITS
 70
6
  9
$HYPERLINKBASE
  1

  9
$STYLESHEET
  1

  9
$XEDIT
290
1
  9
$CEPSNTYPE
380
0
  9
$PSTYLEMODE
290
1
  9
$FINGERPRINTGUID
  2
{757B65A9-7BEE-49C8-A564-9AFA52C32500}
  9
$VERSIONGUID
  2
{F1A77CCB-B127-48E5-B1AD-3AC466173A62}
  9
$EXTNAMES
290
1
  9
$PSVPSCALE
 40
0.0
  9
$OLESTARTUP
290
0
  9
$SORTENTS
280
127
  9
$INDEXCTL
280
0
  9
$HIDETEXT
280
1
  9
$XCLIPFRAME
290
1
  9
$HALOGAP
280
0
  9
$OBSCOLOR
 70
257
  9
$OBSLTYPE
280
0
  9
$INTERSECTIONDISPLAY
280
0
  9
$INTERSECTIONCOLOR
 70
257
  9
$DIMASSOC
280
2
  9
$PROJECTNAME
  1

  9
$CAMERADISPLAY
290
0
  9
$LENSLENGTH
 40
50.0
  9
$CAMERAHEIGHT
 40
0.0
  9
$STEPSPERSEC
 40
24.0
  9
$STEPSIZE
 40
100.0
  9
$3DDWFPREC
 40
2.0
  9
$PSOLWIDTH
 40
0.005
  9
$PSOLHEIGHT
 40
0.08
  9
$LOFTANG1
 40
1.570796326795
  9
$LOFTANG2
 40
1.570796326795
  9
$LOFTMAG1
 40
0.0
  9
$LOFTMAG2
 40
0.0
  9
$LOFTPARAM
 70
7
  9
$LOFTNORMALS
280
1
  9
$LATITUDE
 40
37.795
  9
$LONGITUDE
 40
-122.394
  9
$NORTHDIRECTION
 40
0.0
  9
$TIMEZONE
 70
-8000
  9
$LIGHTGLYPHDISPLAY
280
1
  9
$TILEMODELIGHTSYNCH
280
1
  9
$CMATERIAL
347
20
  9
$SOLIDHIST
280
0
  9
$SHOWHIST
280
1
  9
$DWFFRAME
280
2
  9
$DGNFRAME
280
2
  9
$REALWORLDSCALE
290
1
  9
$INTERFERECOLOR
 62
256
  9
$CSHADOW
280
0
  9
$SHADOWPLANELOCATION
 40
0.0
  0
ENDSEC
  0
SECTION
  2
CLASSES
  0
CLASS
  1
ACDBDICTIONARYWDFLT
  2
AcDbDictionaryWithDefault
  3
ObjectDBX Classes
 90
0
 91
0
280
0
281
0
  0
CLASS
  1
SUN
  2
AcDbSun
  3
SCENEOE
 90
1153
 91
0
280
0
281
0
  0
CLASS
  1
VISUALSTYLE
  2
AcDbVisualStyle
  3
ObjectDBX Classes
 90
4095
 91
0
280
0
281
0
  0
CLASS
  1
MATERIAL
  2
AcDbMaterial
  3
ObjectDBX Classes
 90
1153
 91
0
280
0
281
0
  0
CLASS
  1
SCALE
  2
AcDbScale
  3
ObjectDBX Classes
 90
1153
 91
0
280
0
281
0
  0
CLASS
  1
TABLESTYLE
  2
AcDbTableStyle
  3
ObjectDBX Classes
 90
4095
 91
0
280
0
281
0
  0
CLASS
  1
MLEADERSTYLE
  2
AcDbMLeaderStyle
  3
ACDB_MLEADERSTYLE_CLASS
 90
4095
 91
0
280
0
281
0
  0
CLASS
  1
DICTIONARYVAR
  2
AcDbDictionaryVar
  3
ObjectDBX Classes
 90
0
 91
0
280
0
281
0
  0
CLASS
  1
CELLSTYLEMAP
  2
AcDbCellStyleMap
  3
ObjectDBX Classes
 90
1152
 91
0
280
0
281
0
  0
CLASS
  1
MENTALRAYRENDERSETTINGS
  2
AcDbMentalRayRenderSettings
  3
SCENEOE
 90
1024
 91
0
280
0
281
0
  0
CLASS
  1
ACDBDETAILVIEWSTYLE
  2
AcDbDetailViewStyle
  3
ObjectDBX Classes
 90
1025
 91
0
280
0
281
0
  0
CLASS
  1
ACDBSECTIONVIEWSTYLE
  2
AcDbSectionViewStyle
  3
ObjectDBX Classes
 90
1025
 91
0
280
0
281
0
  0
CLASS
  1
RASTERVARIABLES
  2
AcDbRasterVariables
  3
ISM
 90
0
 91
0
280
0
281
0
  0
CLASS
  1
ACDBPLACEHOLDER
  2
AcDbPlaceHolder
  3
ObjectDBX Classes
 90
0
 91
0
280
0
281
0
  0
CLASS
  1
LAYOUT
  2
AcDbLayout
  3
ObjectDBX Classes
 90
0
 91
0
280
0
281
0
  0
ENDSEC
  0
SECTION
  2
TABLES
  0
TABLE
  2
VPORT
  5
8
330
0
100
AcDbSymbolTable
 70
1
  0
VPORT
  5
23
330
8
100
AcDbSymbolTableRecord
100
AcDbViewportTableRecord
  2
*Active
 70
0
 10
0.0
 20
0.0
 11
1.0
 21
1.0
 12
0.0
 22
0.0
 13
0.0
 23
0.0
 14
0.5
 24
0.5
 15
0.5
 25
0.5
 16
0.0
 26
0.0
 36
1.0
 17
0.0
 27
0.0
 37
0.0
 40
1000.0
 41
1.34
 42
50.0
 43
0.0
 44
0.0
 50
0.0
 51
0.0
 71
0
 72
1000
 73
1
 74
3
 75
0
 76
0
 77
0
 78
0
281
0
 65
0
146
0.0
  0
ENDTAB
  0
TABLE
  2
LTYPE
  5
2
330
0
100
AcDbSymbolTable
 70
21
  0
LTYPE
  5
24
330
2
100
AcDbSymbolTableRecord
100
AcDbLinetypeTableRecord
  2
ByBlock
 70
0
  3

 72
65
 73
0
 40
0.0
  0
LTYPE
  5
25
330
2
100
AcDbSymbolTableRecord
100
AcDbLinetypeTableRecord
  2
ByLayer
 70
0
  3

 72
65
 73
0
 40
0.0
  0
LTYPE
  5
26
330
2
100
AcDbSymbolTableRecord
100
AcDbLinetypeTableRecord
  2
Continuous
 70
0
  3

 72
65
 73
0
 40
0.0
  0
LTYPE
  5
2F
330
2
100
AcDbSymbolTableRecord
100
AcDbLinetypeTableRecord
  2
CENTER
 70
0
  3
Center ____ _ ____ _ ____ _ ____ _ ____ _ ____
 72
65
 73
4
 40
5.08
 49
3.175
 74
0
 49
-0.635
 74
0
 49
0.635
 74
0
 49
-0.635
 74
0
  0
LTYPE
  5
30
330
2
100
AcDbSymbolTableRecord
100
AcDbLinetypeTableRecord
  2
CENTERX2
 70
0
  3
Center (2x) ________  __  ________  __  ________
 72
65
 73
4
 40
8.89
 49
6.35
 74
0
 49
-0.635
 74
0
 49
1.27
 74
0
 49
-0.635
 74
0
  0
LTYPE
  5
31
330
2
100
AcDbSymbolTableRecord
100
AcDbLinetypeTableRecord
  2
CENTER2
 70
0
  3
Center (.5x) ____ _ ____ _ ____ _ ____ _ ____
 72
65
 73
4
 40
2.54
 49
1.587
 74
0
 49
-0.318
 74
0
 49
0.318
 74
0
 49
-0.318
 74
0
  0
LTYPE
  5
32
330
2
100
AcDbSymbolTableRecord
100
AcDbLinetypeTableRecord
  2
DASHED
 70
0
  3
Dashed __ __ __ __ __ __ __ __ __ __ __ __ __ _
 72
65
 73
2
 40
1.524
 49
1.27
 74
0
 49
-0.254
 74
0
  0
LTYPE
  5
33
330
2
100
AcDbSymbolTableRecord
100
AcDbLinetypeTableRecord
  2
DASHEDX2
 70
0
  3
Dashed (2x) ____  ____  ____  ____  ____  ____
 72
65
 73
2
 40
3.048
 49
2.54
 74
0
 49
-0.508
 74
0
  0
LTYPE
  5
34
330
2
100
AcDbSymbolTableRecord
100
AcDbLinetypeTableRecord
  2
DASHED2
 70
0
  3
Dashed (.5x) _ _ _ _ _ _ _ _ _ _ _ _ _ _
 72
65
 73
2
 40
0.762
 49
0.635
 74
0
 49
-0.127
 74
0
  0
LTYPE
  5
35
330
2
100
AcDbSymbolTableRecord
100
AcDbLinetypeTableRecord
  2
PHANTOM
 70
0
  3
Phantom ______  __  __  ______  __  __  ______
 72
65
 73
6
 40
6.35
 49
3.175
 74
0
 49
-0.635
 74
0
 49
0.635
 74
0
 49
-0.635
 74
0
 49
0.635
 74
0
 49
-0.635
 74
0
  0
LTYPE
  5
36
330
2
100
AcDbSymbolTableRecord
100
AcDbLinetypeTableRecord
  2
PHANTOMX2
 70
0
  3
Phantom (2x)____________    ____    ____    ____________
 72
65
 73
6
 40
10.795
 49
6.35
 74
0
 49
-0.635
 74
0
 49
1.27
 74
0
 49
-0.635
 74
0
 49
1.27
 74
0
 49
-0.635
 74
0
  0
LTYPE
  5
37
330
2
100
AcDbSymbolTableRecord
100
AcDbLinetypeTableRecord
  2
PHANTOM2
 70
0
  3
Phantom (.5x) ___ _ _ ___ _ _ ___ _ _ ___ _ _ ___
 72
65
 73
6
 40
3.175
 49
1.587
 74
0
 49
-0.318
 74
0
 49
0.318
 74
0
 49
-0.318
 74
0
 49
0.318
 74
0
 49
-0.318
 74
0
  0
LTYPE
  5
38
330
2
100
AcDbSymbolTableRecord
100
AcDbLinetypeTableRecord
  2
DASHDOT
 70
0
  3
Dash dot __ . __ . __ . __ . __ . __ . __ . __
 72
65
 73
4
 40
3.556
 49
2.54
 74
0
 49
-0.508
 74
0
 49
0.0
 74
0
 49
-0.508
 74
0
  0
LTYPE
  5
39
330
2
100
AcDbSymbolTableRecord
100
AcDbLinetypeTableRecord
  2
DASHDOTX2
 70
0
  3
Dash dot (2x) ____  .  ____  .  ____  .  ____
 72
65
 73
4
 40
6.096
 49
5.08
 74
0
 49
-0.508
 74
0
 49
0.0
 74
0
 49
-0.508
 74
0
  0
LTYPE
  5
3A
330
2
100
AcDbSymbolTableRecord
100
AcDbLinetypeTableRecord
  2
DASHDOT2
 70
0
  3
Dash dot (.5x) _ . _ . _ . _ . _ . _ . _ . _
 72
65
 73
4
 40
1.778
 49
1.27
 74
0
 49
-0.254
 74
0
 49
0.0
 74
0
 49
-0.254
 74
0
  0
LTYPE
  5
3B
330
2
100
AcDbSymbolTableRecord
100
AcDbLinetypeTableRecord
  2
DOT
 70
0
  3
Dot .  .  .  .  .  .  .  .  .  .  .  .  .  .  .  .
 72
65
 73
2
 40
0.508
 49
0.0
 74
0
 49
-0.508
 74
0
  0
LTYPE
  5
3C
330
2
100
AcDbSymbolTableRecord
100
AcDbLinetypeTableRecord
  2
DOTX2
 70
0
  3
Dot (2x) .    .    .    .    .    .    .    . 
 72
65
 73
2
 40
1.016
 49
0.0
 74
0
 49
-1.016
 74
0
  0
LTYPE
  5
3D
330
2
100
AcDbSymbolTableRecord
100
AcDbLinetypeTableRecord
  2
DOT2
 70
0
  3
Dot (.5) . . . . . . . . . . . . . . . . . . . 
 72
65
 73
2
 40
0.254
 49
0.0
 74
0
 49
-0.254
 74
0
  0
LTYPE
  5
3E
330
2
100
AcDbSymbolTableRecord
100
AcDbLinetypeTableRecord
  2
DIVIDE
 70
0
  3
Divide __ . . __ . . __ . . __ . . __ . . __
 72
65
 73
6
 40
4.064
 49
2.54
 74
0
 49
-0.508
 74
0
 49
0.0
 74
0
 49
-0.508
 74
0
 49
0.0
 74
0
 49
-0.508
 74
0
  0
LTYPE
  5
3F
330
2
100
AcDbSymbolTableRecord
100
AcDbLinetypeTableRecord
  2
DIVIDEX2
 70
0
  3
Divide (2x) ____  . .  ____  . .  ____  . .  ____
 72
65
 73
6
 40
6.604
 49
5.08
 74
0
 49
-0.508
 74
0
 49
0.0
 74
0
 49
-0.508
 74
0
 49
0.0
 74
0
 49
-0.508
 74
0
  0
LTYPE
  5
40
330
2
100
AcDbSymbolTableRecord
100
AcDbLinetypeTableRecord
  2
DIVIDE2
 70
0
  3
Divide(.5x) _ . _ . _ . _ . _ . _ . _ . _
 72
65
 73
6
 40
2.032
 49
1.27
 74
0
 49
-0.254
 74
0
 49
0.0
 74
0
 49
-0.254
 74
0
 49
0.0
 74
0
 49
-0.254
 74
0
  0
ENDTAB
  0
TABLE
  2
LAYER
  5
1
330
0
100
AcDbSymbolTable
 70
4
  0
LAYER
  5
27
330
1
100
AcDbSymbolTableRecord
100
AcDbLayerTableRecord
  2
0
 70
0
 62
7
  6
Continuous
370
-3
390
13
347
21
  0
LAYER
  5
28
330
1
100
AcDbSymbolTableRecord
100
AcDbLayerTableRecord
  2
Defpoints
 70
0
 62
7
  6
Continuous
290
0
370
-3
390
13
347
21
  0
LAYER
  5
8A
330
1
100
AcDbSymbolTableRecord
100
AcDbLayerTableRecord
  2
Layer
 70
0
 62
1
  6
Continuous
370
50
390
13
347
21
  0
LAYER
  5
8B
330
1
100
AcDbSymbolTableRecord
100
AcDbLayerTableRecord
  2
NumLabel
 70
0
 62
1
  6
Continuous
370
15
390
13
347
21
  0
ENDTAB
  0
TABLE
  2
STYLE
  5
5
330
0
100
AcDbSymbolTable
 70
26
  0
STYLE
  5
29
330
5
100
AcDbSymbolTableRecord
100
AcDbTextStyleTableRecord
  2
Standard
 70
0
 40
0.0
 41
1.0
 50
0.0
 71
0
 42
2.5
  3
txt
  4

  0
STYLE
  5
41
330
5
100
AcDbSymbolTableRecord
100
AcDbTextStyleTableRecord
  2
OpenSans-Light
 70
0
 40
0.0
 41
1.0
 50
0.0
 71
0
 42
2.5
  3
OpenSans-Light.ttf
  4

  0
STYLE
  5
42
330
5
100
AcDbSymbolTableRecord
100
AcDbTextStyleTableRecord
  2
OpenSans-Light-Italic
 70
0
 40
0.0
 41
1.0
 50
0.0
 71
0
 42
2.5
  3
OpenSans-LightItalic.ttf
  4

  0
STYLE
  5
43
330
5
100
AcDbSymbolTableRecord
100
AcDbTextStyleTableRecord
  2
OpenSans
 70
0
 40
0.0
 41
1.0
 50
0.0
 71
0
 42
2.5
  3
OpenSans-Regular.ttf
  4

  0
STYLE
  5
44
330
5
100
AcDbSymbolTableRecord
100
AcDbTextStyleTableRecord
  2
OpenSans-Italic
 70
0
 40
0.0
 41
1.0
 50
0.0
 71
0
 42
2.5
  3
OpenSans-Italic.ttf
  4

  0
STYLE
  5
45
330
5
100
AcDbSymbolTableRecord
100
AcDbTextStyleTableRecord
  2
OpenSans-SemiBold
 70
0
 40
0.0
 41
1.0
 50
0.0
 71
0
 42
2.5
  3
OpenSans-SemiBold.ttf
  4

  0
STYLE
  5
46
330
5
100
AcDbSymbolTableRecord
100
AcDbTextStyleTableRecord
  2
OpenSans-SemiBoldItalic
 70
0
 40
0.0
 41
1.0
 50
0.0
 71
0
 42
2.5
  3
OpenSans-SemiBoldItalic.ttf
  4

  0
STYLE
  5
47
330
5
100
AcDbSymbolTableRecord
100
AcDbTextStyleTableRecord
  2
OpenSans-Bold
 70
0
 40
0.0
 41
1.0
 50
0.0
 71
0
 42
2.5
  3
OpenSans-Bold.ttf
  4

  0
STYLE
  5
48
330
5
100
AcDbSymbolTableRecord
100
AcDbTextStyleTableRecord
  2
OpenSans-BoldItalic
 70
0
 40
0.0
 41
1.0
 50
0.0
 71
0
 42
2.5
  3
OpenSans-BoldItalic.ttf
  4

  0
STYLE
  5
49
330
5
100
AcDbSymbolTableRecord
100
AcDbTextStyleTableRecord
  2
OpenSans-ExtraBold
 70
0
 40
0.0
 41
1.0
 50
0.0
 71
0
 42
2.5
  3
OpenSans-ExtraBold.ttf
  4

  0
STYLE
  5
4A
330
5
100
AcDbSymbolTableRecord
100
AcDbTextStyleTableRecord
  2
OpenSans-ExtraBoldItalic
 70
0
 40
0.0
 41
1.0
 50
0.0
 71
0
 42
2.5
  3
OpenSans-ExtraBoldItalic.ttf
  4

  0
STYLE
  5
4B
330
5
100
AcDbSymbolTableRecord
100
AcDbTextStyleTableRecord
  2
OpenSansCondensed-Bold
 70
0
 40
0.0
 41
1.0
 50
0.0
 71
0
 42
2.5
  3
OpenSansCondensed-Bold.ttf
  4

  0
STYLE
  5
4C
330
5
100
AcDbSymbolTableRecord
100
AcDbTextStyleTableRecord
  2
OpenSansCondensed-Light
 70
0
 40
0.0
 41
1.0
 50
0.0
 71
0
 42
2.5
  3
OpenSansCondensed-Light.ttf
  4

  0
STYLE
  5
4D
330
5
100
AcDbSymbolTableRecord
100
AcDbTextStyleTableRecord
  2
OpenSansCondensed-Italic
 70
0
 40
0.0
 41
1.0
 50
0.0
 71
0
 42
2.5
  3
OpenSansCondensed-LightItalic.ttf
  4

  0
STYLE
  5
4E
330
5
100
AcDbSymbolTableRecord
100
AcDbTextStyleTableRecord
  2
LiberationSans
 70
0
 40
0.0
 41
1.0
 50
0.0
 71
0
 42
2.5
  3
LiberationSans-Regular.ttf
  4

  0
STYLE
  5
4F
330
5
100
AcDbSymbolTableRecord
100
AcDbTextStyleTableRecord
  2
LiberationSans-Bold
 70
0
 40
0.0
 41
1.0
 50
0.0
 71
0
 42
2.5
  3
LiberationSans-Bold.ttf
  4

  0
STYLE
  5
50
330
5
100
AcDbSymbolTableRecord
100
AcDbTextStyleTableRecord
  2
LiberationSans-BoldItalic
 70
0
 40
0.0
 41
1.0
 50
0.0
 71
0
 42
2.5
  3
LiberationSans-BoldItalic.ttf
  4

  0
STYLE
  5
51
330
5
100
AcDbSymbolTableRecord
100
AcDbTextStyleTableRecord
  2
LiberationSans-Italic
 70
0
 40
0.0
 41
1.0
 50
0.0
 71
0
 42
2.5
  3
LiberationSans-Italic.ttf
  4

  0
STYLE
  5
52
330
5
100
AcDbSymbolTableRecord
100
AcDbTextStyleTableRecord
  2
LiberationSerif
 70
0
 40
0.0
 41
1.0
 50
0.0
 71
0
 42
2.5
  3
LiberationSerif-Regular.ttf
  4

  0
STYLE
  5
53
330
5
100
AcDbSymbolTableRecord
100
AcDbTextStyleTableRecord
  2
LiberationSerif-Bold
 70
0
 40
0.0
 41
1.0
 50
0.0
 71
0
 42
2.5
  3
LiberationSerif-Bold.ttf
  4

  0
STYLE
  5
54
330
5
100
AcDbSymbolTableRecord
100
AcDbTextStyleTableRecord
  2
LiberationSerif-BoldItalic
 70
0
 40
0.0
 41
1.0
 50
0.0
 71
0
 42
2.5
  3
LiberationSerif-BoldItalic.ttf
  4

  0
STYLE
  5
55
330
5
100
AcDbSymbolTableRecord
100
AcDbTextStyleTableRecord
  2
LiberationSerif-Italic
 70
0
 40
0.0
 41
1.0
 50
0.0
 71
0
 42
2.5
  3
LiberationSerif-Italic.ttf
  4

  0
STYLE
  5
56
330
5
100
AcDbSymbolTableRecord
100
AcDbTextStyleTableRecord
  2
LiberationMono
 70
0
 40
0.0
 41
1.0
 50
0.0
 71
0
 42
2.5
  3
LiberationMono-Regular.ttf
  4

  0
STYLE
  5
57
330
5
100
AcDbSymbolTableRecord
100
AcDbTextStyleTableRecord
  2
LiberationMono-Bold
 70
0
 40
0.0
 41
1.0
 50
0.0
 71
0
 42
2.5
  3
LiberationMono-Bold.ttf
  4

  0
STYLE
  5
58
330
5
100
AcDbSymbolTableRecord
100
AcDbTextStyleTableRecord
  2
LiberationMono-BoldItalic
 70
0
 40
0.0
 41
1.0
 50
0.0
 71
0
 42
2.5
  3
LiberationMono-BoldItalic.ttf
  4

  0
STYLE
  5
59
330
5
100
AcDbSymbolTableRecord
100
AcDbTextStyleTableRecord
  2
LiberationMono-Italic
 70
0
 40
0.0
 41
1.0
 50
0.0
 71
0
 42
2.5
  3
LiberationMono-Italic.ttf
  4

  0
ENDTAB
  0
TABLE
  2
VIEW
  5
7
330
0
100
AcDbSymbolTable
 70
0
  0
ENDTAB
  0
TABLE
  2
UCS
  5
6
330
0
100
AcDbSymbolTable
 70
0
  0
ENDTAB
  0
TABLE
  2
APPID
  5
3
330
0
100
AcDbSymbolTable
 70
3
  0
APPID
  5
2A
330
3
100
AcDbSymbolTableRecord
100
AcDbRegAppTableRecord
  2
ACAD
 70
0
  0
APPID
  5
B3
330
3
100
AcDbSymbolTableRecord
100
AcDbRegAppTableRecord
  2
HATCHBACKGROUNDCOLOR
 70
0
  0
APPID
  5
B4
330
3
100
AcDbSymbolTableRecord
100
AcDbRegAppTableRecord
  2
EZDXF
 70
0
  0
ENDTAB
  0
TABLE
  2
DIMSTYLE
  5
4
330
0
100
AcDbSymbolTable
 70
12
100
AcDbDimStyleTable
  0
DIMSTYLE
105
2B
330
4
100
AcDbSymbolTableRecord
100
AcDbDimStyleTableRecord
  2
Standard
 70
0
 40
1.0
 41
2.5
 42
0.625
 43
3.75
 44
1.25
 45
0.0
 46
0.0
 47
0.0
 48
0.0
 49
2.5
140
2.5
141
2.5
142
0.0
143
0.03937007874
144
1.0
145
0.0
146
1.0
147
0.625
148
0.0
 69
0
 70
0
 71
0
 72
0
 73
0
 74
0
 75
0
 76
0
 77
1
 78
8
 79
3
170
0
171
3
172
1
173
0
174
0
175
0
176
0
177
0
178
0
179
2
271
2
272
2
273
2
274
3
275
0
276
0
277
2
278
44
279
0
280
0
281
0
282
0
283
0
284
8
285
0
286
0
288
0
289
3
290
0
371
-2
372
-2
  0
DIMSTYLE
105
73
330
4
100
AcDbSymbolTableRecord
100
AcDbDimStyleTableRecord
  2
EZDXF
 70
0
 40
1.0
 41
0.175
 42
0.125
 43
3.75
 44
0.375
 45
0.0
 46
0.0
 47
0.0
 48
0.0
 49
2.5
140
0.25
141
2.5
142
0.0
143
0.03937007874
144
100.0
145
0.0
146
0.5
147
0.1
148
0.0
 69
0
 70
0
 71
0
 72
0
 73
0
 74
0
 75
0
 76
0
 77
1
 78
12
 79
3
170
0
171
3
172
1
173
0
174
0
175
0
176
0
177
0
178
0
179
2
271
2
272
2
273
2
274
3
275
0
276
0
277
2
278
46
279
2
280
0
281
0
282
0
283
0
284
8
285
0
286
0
288
1
289
3
290
0
340
4C
342
74
371
-2
372
-2
  0
DIMSTYLE
105
7C
330
4
100
AcDbSymbolTableRecord
100
AcDbDimStyleTableRecord
  2
EZ_M_100_H25_CM
 70
0
 40
1.0
 41
0.25
 42
0.125
 43
3.75
 44
0.375
 45
0.0
 46
0.0
 47
0.0
 48
0.0
 49
2.5
140
0.25
141
2.5
142
0.125
143
0.03937007874
144
100.0
145
0.0
146
0.5
147
0.1
148
0.0
 69
0
 70
0
 71
0
 72
0
 73
0
 74
0
 75
0
 76
0
 77
1
 78
12
 79
3
170
0
171
3
172
1
173
0
174
0
175
0
176
0
177
0
178
0
179
2
271
2
272
2
273
2
274
3
275
0
276
0
277
2
278
46
279
2
280
0
281
0
282
0
283
0
284
8
285
0
286
0
288
1
289
3
290
0
340
4C
371
-2
372
-2
  0
DIMSTYLE
105
7D
330
4
100
AcDbSymbolTableRecord
100
AcDbDimStyleTableRecord
  2
EZ_M_50_H25_CM
 70
0
 40
1.0
 41
0.125
 42
0.0625
 43
3.75
 44
0.1875
 45
0.0
 46
0.0
 47
0.0
 48
0.0
 49
2.5
140
0.125
141
2.5
142
0.0625
143
0.03937007874
144
100.0
145
0.0
146
0.5
147
0.05
148
0.0
 69
0
 70
0
 71
0
 72
0
 73
0
 74
0
 75
0
 76
0
 77
1
 78
12
 79
3
170
0
171
3
172
1
173
0
174
0
175
0
176
0
177
0
178
0
179
2
271
2
272
2
273
2
274
3
275
0
276
0
277
2
278
46
279
2
280
0
281
0
282
0
283
0
284
8
285
0
286
0
288
1
289
3
290
0
340
4C
371
-2
372
-2
  0
DIMSTYLE
105
7E
330
4
100
AcDbSymbolTableRecord
100
AcDbDimStyleTableRecord
  2
EZ_M_25_H25_CM
 70
0
 40
1.0
 41
0.0625
 42
0.03125
 43
3.75
 44
0.09375
 45
0.0
 46
0.0
 47
0.0
 48
0.0
 49
2.5
140
0.0625
141
2.5
142
0.03125
143
0.03937007874
144
100.0
145
0.0
146
0.5
147
0.025
148
0.0
 69
0
 70
0
 71
0
 72
0
 73
0
 74
0
 75
0
 76
0
 77
1
 78
12
 79
3
170
0
171
3
172
1
173
0
174
0
175
0
176
0
177
0
178
0
179
2
271
2
272
2
273
2
274
3
275
0
276
0
277
2
278
46
279
2
280
0
281
0
282
0
283
0
284
8
285
0
286
0
288
1
289
3
290
0
340
4C
371
-2
372
-2
  0
DIMSTYLE
105
7F
330
4
100
AcDbSymbolTableRecord
100
AcDbDimStyleTableRecord
  2
EZ_M_20_H25_CM
 70
0
 40
1.0
 41
0.05
 42
0.025
 43
3.75
 44
0.07500000000000001
 45
0.0
 46
0.0
 47
0.0
 48
0.0
 49
2.5
140
0.05
141
2.5
142
0.025
143
0.03937007874
144
100.0
145
0.0
146
0.5
147
0.020000000000000004
148
0.0
 69
0
 70
0
 71
0
 72
0
 73
0
 74
0
 75
0
 76
0
 77
1
 78
12
 79
3
170
0
171
3
172
1
173
0
174
0
175
0
176
0
177
0
178
0
179
2
271
2
272
2
273
2
274
3
275
0
276
0
277
2
278
46
279
2
280
0
281
0
282
0
283
0
284
8
285
0
286
0
288
1
289
3
290
0
340
4C
371
-2
372
-2
  0
DIMSTYLE
105
80
330
4
100
AcDbSymbolTableRecord
100
AcDbDimStyleTableRecord
  2
EZ_M_10_H25_CM
 70
0
 40
1.0
 41
0.025
 42
0.0125
 43
3.75
 44
0.037500000000000006
 45
0.0
 46
0.0
 47
0.0
 48
0.0
 49
2.5
140
0.025
141
2.5
142
0.0125
143
0.03937007874
144
100.0
145
0.0
146
0.5
147
0.010000000000000002
148
0.0
 69
0
 70
0
 71
0
 72
0
 73
0
 74
0
 75
0
 76
0
 77
1
 78
12
 79
3
170
0
171
3
172
1
173
0
174
0
175
0
176
0
177
0
178
0
179
2
271
2
272
2
273
2
274
3
275
0
276
0
277
2
278
46
279
2
280
0
281
0
282
0
283
0
284
8
285
0
286
0
288
1
289
3
290
0
340
4C
371
-2
372
-2
  0
DIMSTYLE
105
81
330
4
100
AcDbSymbolTableRecord
100
AcDbDimStyleTableRecord
  2
EZ_M_5_H25_CM
 70
0
 40
1.0
 41
0.0125
 42
0.00625
 43
3.75
 44
0.018750000000000003
 45
0.0
 46
0.0
 47
0.0
 48
0.0
 49
2.5
140
0.0125
141
2.5
142
0.00625
143
0.03937007874
144
100.0
145
0.0
146
0.5
147
0.005000000000000001
148
0.0
 69
0
 70
0
 71
0
 72
0
 73
0
 74
0
 75
0
 76
0
 77
1
 78
12
 79
3
170
0
171
3
172
1
173
0
174
0
175
0
176
0
177
0
178
0
179
2
271
2
272
2
273
2
274
3
275
0
276
0
277
2
278
46
279
2
280
0
281
0
282
0
283
0
284
8
285
0
286
0
288
1
289
3
290
0
340
4C
371
-2
372
-2
  0
DIMSTYLE
105
82
330
4
100
AcDbSymbolTableRecord
100
AcDbDimStyleTableRecord
  2
EZ_M_1_H25_CM
 70
0
 40
1.0
 41
0.0025
 42
0.00125
 43
3.75
 44
0.00375
 45
0.0
 46
0.0
 47
0.0
 48
0.0
 49
2.5
140
0.0025
141
2.5
142
0.00125
143
0.03937007874
144
100.0
145
0.0
146
0.5
147
0.001
148
0.0
 69
0
 70
0
 71
0
 72
0
 73
0
 74
0
 75
0
 76
0
 77
1
 78
12
 79
3
170
0
171
3
172
1
173
0
174
0
175
0
176
0
177
0
178
0
179
2
271
2
272
2
273
2
274
3
275
0
276
0
277
2
278
46
279
2
280
0
281
0
282
0
283
0
284
8
285
0
286
0
288
1
289
3
290
0
340
4C
371
-2
372
-2
  0
DIMSTYLE
105
83
330
4
100
AcDbSymbolTableRecord
100
AcDbDimStyleTableRecord
  2
EZ_RADIUS
 70
0
 40
1.0
 41
0.25
 42
0.125
 43
3.75
 44
0.375
 45
0.0
 46
0.0
 47
0.0
 48
0.0
 49
2.5
140
0.25
141
0.0
142
0.0
143
0.03937007874
144
100.0
145
0.0
146
0.5
147
0.1
148
0.0
 69
0
 70
0
 71
0
 72
0
 73
0
 74
0
 75
0
 76
0
 77
1
 78
12
 79
3
170
0
171
3
172
0
173
0
174
0
175
0
176
0
177
0
178
0
179
2
271
2
272
2
273
2
274
3
275
0
276
0
277
2
278
46
279
1
280
0
281
0
282
0
283
0
284
8
285
0
286
0
288
1
289
3
290
0
340
4C
342
84
371
-2
372
-2
  0
DIMSTYLE
105
88
330
4
100
AcDbSymbolTableRecord
100
AcDbDimStyleTableRecord
  2
EZ_RADIUS_INSIDE
 70
0
 40
1.0
 41
0.25
 42
0.125
 43
3.75
 44
0.375
 45
0.0
 46
0.0
 47
0.0
 48
0.0
 49
2.5
140
0.25
141
0.0
142
0.0
143
0.03937007874
144
100.0
145
0.0
146
0.5
147
0.1
148
0.0
 69
0
 70
0
 71
0
 72
0
 73
0
 74
0
 75
0
 76
0
 77
0
 78
12
 79
3
170
0
171
3
172
0
173
0
174
1
175
0
176
0
177
0
178
0
179
2
271
2
272
2
273
2
274
3
275
0
276
0
277
2
278
46
279
0
280
0
281
0
282
0
283
0
284
8
285
0
286
0
288
1
289
0
290
0
340
4C
342
84
371
-2
372
-2
  0
DIMSTYLE
105
89
330
4
100
AcDbSymbolTableRecord
100
AcDbDimStyleTableRecord
  2
EZ_CURVED
 70
0
 40
1.0
 41
0.25
 42
0.125
 43
3.75
 44
0.375
 45
0.0
 46
0.0
 47
0.0
 48
0.0
 49
2.5
140
0.25
141
2.5
142
0.0
143
0.03937007874
144
100.0
145
0.0
146
0.5
147
0.1
148
0.0
 69
0
 70
0
 71
0
 72
0
 73
0
 74
0
 75
0
 76
0
 77
1
 78
12
 79
2
 90
2
170
0
171
3
172
1
173
0
174
0
175
0
176
0
177
0
178
0
179
2
271
2
272
2
273
2
274
3
275
0
276
0
277
2
278
46
279
2
280
0
281
0
282
0
283
0
284
8
285
0
286
0
288
1
289
3
290
0
340
4C
371
-2
372
-2
  0
ENDTAB
  0
TABLE
  2
BLOCK_RECORD
  5
9
330
0
100
AcDbSymbolTable
 70
5
  0
BLOCK_RECORD
  5
17
330
9
100
AcDbSymbolTableRecord
100
AcDbBlockTableRecord
  2
*Model_Space
340
1A
 70
0
280
1
281
0
  0
BLOCK_RECORD
  5
1B
330
9
100
AcDbSymbolTableRecord
100
AcDbBlockTableRecord
  2
*Paper_Space
340
1E
 70
0
280
1
281
0
  0
BLOCK_RECORD
  5
74
330
9
100
AcDbSymbolTableRecord
100
AcDbBlockTableRecord
  2
_ARCHTICK
340
0
 70
0
280
1
281
0
  0
BLOCK_RECORD
  5
78
330
9
100
AcDbSymbolTableRecord
100
AcDbBlockTableRecord
  2
_CLOSEDFILLED
340
0
 70
0
280
1
281
0
  0
BLOCK_RECORD
  5
84
330
9
100
AcDbSymbolTableRecord
100
AcDbBlockTableRecord
  2
_CLOSEDBLANK
340
0
 70
0
280
1
281
0
  0
ENDTAB
  0
ENDSEC
  0
SECTION
  2
BLOCKS
  0
BLOCK
  5
18
330
17
100
AcDbEntity
  8
0
100
AcDbBlockBegin
  2
*Model_Space
 70
0
 10
0.0
 20
0.0
 30
0.0
  3
*Model_Space
  1

  0
ENDBLK
  5
19
330
17
100
AcDbEntity
  8
0
100
AcDbBlockEnd
  0
BLOCK
  5
1C
330
1B
100
AcDbEntity
  8
0
100
AcDbBlockBegin
  2
*Paper_Space
 70
0
 10
0.0
 20
0.0
 30
0.0
  3
*Paper_Space
  1

  0
ENDBLK
  5
1D
330
1B
100
AcDbEntity
  8
0
100
AcDbBlockEnd
  0
BLOCK
  5
75
330
74
100
AcDbEntity
  8
0
100
AcDbBlockBegin
  2
_ARCHTICK
 70
0
 10
0.0
 20
0.0
 30
0.0
  3
_ARCHTICK
  1

  0
LWPOLYLINE
  5
77
330
74
100
AcDbEntity
  8
0
  6
BYBLOCK
 62
0
100
AcDbPolyline
 90
2
 70
0
 43
0.15
 10
-0.5
 20
-0.5
 10
0.5
 20
0.5
  0
ENDBLK
  5
76
330
74
100
AcDbEntity
  8
0
100
AcDbBlockEnd
  0
BLOCK
  5
79
330
78
100
AcDbEntity
  8
0
100
AcDbBlockBegin
  2
_CLOSEDFILLED
 70
0
 10
0.0
 20
0.0
 30
0.0
  3
_CLOSEDFILLED
  1

  0
SOLID
  5
7B
330
78
100
AcDbEntity
  8
0
  6
BYBLOCK
 62
0
100
AcDbTrace
 10
-1.0
 20
0.16439898372402537
 30
0.0
 11
0.0
 21
0.0
 31
0.0
 12
-1.0
 22
-0.16439898372402537
 32
0.0
 13
-1.0
 23
-0.16439898372402537
 33
0.0
  0
ENDBLK
  5
7A
330
78
100
AcDbEntity
  8
0
100
AcDbBlockEnd
  0
BLOCK
  5
85
330
84
100
AcDbEntity
  8
0
100
AcDbBlockBegin
  2
_CLOSEDBLANK
 70
0
 10
0.0
 20
0.0
 30
0.0
  3
_CLOSEDBLANK
  1

  0
LWPOLYLINE
  5
87
330
84
100
AcDbEntity
  8
0
  6
BYBLOCK
 62
0
100
AcDbPolyline
 90
3
 70
1
 10
-1.0
 20
0.16439898372402537
 10
0.0
 20
0.0
 10
-1.0
 20
-0.16439898372402537
  0
ENDBLK
  5
86
330
84
100
AcDbEntity
  8
0
100
AcDbBlockEnd
  0
ENDSEC
  0
SECTION
  2
ENTITIES
  0
LWPOLYLINE
  5
8C
330
17
100
AcDbEntity
  8
Layer
100
AcDbPolyline
 90
167
 70
1
 10
404.8878568825571
 20
200.28283114957733
 10
404.8878568825571
 20
200.28283114957733
 10
403.1446858922218
 20
200.76049265492702
 10
398.4676645450785
 20
202.01931706896443
 10
393.793025156623
 20
203.26115326831774
 10
389.11493225740264
 20
204.4804387195093
 10
384.43231127765614
 20
205.6823613572284
 10
379.754471603428
 20
206.86405475139205
 10
375.0791585855063
 20
208.0190480563101
 10
370.39646776446824
 20
209.14703930510436
 10
365.70440722669525
 20
210.25184109458246
 10
361.0019787046179
 20
211.33593189196827
 10
356.29748072145975
 20
212.4019860834595
 10
351.5952357825658
 20
213.44374989803498
 10
346.89057366964124
 20
214.45977154155386
 10
342.18332936007516
 20
215.4478213244833
 10
337.4597354068799
 20
216.41215280235556
 10
332.7426829310559
 20
217.35979852642478
 10
328.0299244374392
 20
218.27240923276491
 10
323.2984976035543
 20
219.15660911612102
 10
318.5577049024363
 20
220.021998693596
 10
313.8199989237555
 20
220.86590070335484
 10
309.0827044953428
 20
221.68141928512293
 10
304.33928006524707
 20
222.4683099008751
 10
299.58578195906694
 20
223.22973916962
 10
294.8246619986564
 20
223.96928339870067
 10
290.0626814492003
 20
224.68707428458475
 10
285.3010424227185
 20
225.37792759697004
 10
280.5272012007972
 20
226.04267995856722
 10
275.75086816464744
 20
226.6887230478243
 10
270.97752753402045
 20
227.31041538452106
 10
266.20363795538
 20
227.90610881722475
 10
261.43024785114255
 20
228.47471735510098
 10
256.6511180471664
 20
229.01396849951647
 10
251.8587066359419
 20
229.53056388027272
 10
247.07603794205835
 20
230.0284444402407
 10
242.29371153930035
 20
230.49266401851258
 10
237.50260076345825
 20
230.93322881861988
 10
232.71916083955105
 20
231.34888655312858
 10
227.9351882228743
 20
231.7329717143587
 10
223.14574253483883
 20
232.08859143756948
 10
218.35729812816172
 20
232.41788077269928
 10
213.5668641918712
 20
232.7170673154033
 10
208.77217907272788
 20
232.98913696484888
 10
203.98165724934546
 20
233.23606781934026
 10
199.20027146273537
 20
233.45255588272312
 10
194.41998826049047
 20
233.6318888225153
 10
189.6277492860273
 20
233.78025287358327
 10
184.84969701935427
 20
233.904340268378
 10
180.06997223102914
 20
233.98541741482683
 10
175.28202096240955
 20
234.04034933340648
 10
170.50686460695385
 20
234.06398561542525
 10
165.73348745190282
 20
234.0523413787106
 10
160.97215839949644
 20
234.00621772338684
 10
156.2115416381564
 20
233.9179885650317
 10
151.45208144749142
 20
233.7929156877495
 10
146.69301043837578
 20
233.63001260865863
 10
141.9414503866946
 20
233.43345695387976
 10
137.20033044010793
 20
233.19516629863352
 10
132.46181096234955
 20
232.91464442352193
 10
127.72826815696523
 20
232.59360104745957
 10
123.00038152657602
 20
232.23408350290825
 10
118.29507325387304
 20
231.8373487610762
 10
113.61257503416203
 20
231.38990146548042
 10
108.93598617834341
 20
230.88682011732251
 10
104.27663100020395
 20
230.33887456370803
 10
99.63584819348061
 20
229.73486059496747
 10
95.00999364950783
 20
229.0735000040177
 10
90.39245965950731
 20
228.35335190465958
 10
85.79537710782854
 20
227.5863425573467
 10
81.23948575594616
 20
226.76479154651432
 10
76.72069067063757
 20
225.87748689560084
 10
72.24326794205234
 20
224.9208822868592
 10
67.80345678483701
 20
223.88984731345678
 10
63.4140687604947
 20
222.78325966346455
 10
59.06350489410687
 20
221.5917644381175
 10
54.78325755533086
 20
220.33635694597152
 10
50.582267394874265
 20
218.98878693272508
 10
46.46976256033423
 20
217.56327586333504
 10
42.480576772518106
 20
216.05687894155378
 10
38.63008570726262
 20
214.47093548475831
 10
34.96598909969407
 20
212.82451663318335
 10
31.53792182847303
 20
211.13533275931664
 10
28.374156927
 20
209.41019367287544
 10
25.52734703920791
 20
207.7204057022933
 10
23.03197520435529
 20
206.0878375367402
 10
20.883956740780633
 20
204.5365268915446
 10
19.05677505807469
 20
203.0851813914716
 10
17.539316102855082
 20
201.77696373922467
 10
16.266863144266352
 20
200.52881146892818
 10
15.206483479119385
 20
199.4107330408217
 10
14.344555023625617
 20
198.4005463718036
 10
13.63840736456595
 20
197.44594961822307
 10
13.05392215597061
 20
196.54445181424677
 10
12.57716844969562
 20
195.72395414905134
 10
12.186930670443019
 20
194.9454827432176
 10
11.859480715903459
 20
194.19682749935637
 10
11.591278854236492
 20
193.52578164791765
 10
11.377617177370098
 20
192.9021835373159
 10
11.207552433980055
 20
192.3031538089564
 10
11.077300214211618
 20
191.76442877983152
 10
10.980485104895394
 20
191.22720270210468
 10
10.907380891086888
 20
190.72337479849182
 10
10.857686223620846
 20
190.29081944813956
 10
10.887789788045609
 20
189.90566332755228
 10
10.914121667642348
 20
189.37538974521777
 10
10.945260377404708
 20
188.8853586338487
 10
11.005930483836607
 20
188.40322043694488
 10
11.120227343290168
 20
187.89597936273066
 10
11.305478677842814
 20
187.34844688924883
 10
11.566993594648807
 20
186.76549489083712
 10
11.911232932771867
 20
186.15122903548564
 10
12.34960365427321
 20
185.50568059138928
 10
12.89269368196912
 20
184.83062546306863
 10
13.550032809300575
 20
184.1308350438981
 10
14.339911696729217
 20
183.40990981715896
 10
15.28942478530206
 20
182.6703599126653
 10
16.438402441376525
 20
181.91001650978447
 10
17.82534213744222
 20
181.12017933780692
 10
19.461586034486572
 20
180.2927878851522
 10
21.365245236098502
 20
179.43668598939036
 10
23.61120141437044
 20
178.57540831424873
 10
26.261720113520084
 20
177.71100147291628
 10
29.314663566398025
 20
176.8285510744442
 10
32.716392913361176
 20
175.94354677853306
 10
36.44627029518878
 20
175.11299393283267
 10
40.466546063687986
 20
174.33124717402293
 10
44.66788689623638
 20
173.59964771548678
 10
49.006934493234866
 20
172.9487417947486
 10
53.47758382011767
 20
172.38212962562434
 10
58.08215451747563
 20
171.86679097149994
 10
62.74704442483818
 20
171.36526921231817
 10
67.39014395378092
 20
170.89916736163138
 10
72.05261575093726
 20
170.51791102459939
 10
76.80112465857678
 20
170.19042889092026
 10
81.58349495937597
 20
169.8653262588603
 10
86.3633877589492
 20
169.55499649915225
 10
91.13545483492734
 20
169.27482486766453
 10
95.90822029293426
 20
169.0355836583394
 10
100.70474773970736
 20
168.8344385828673
 10
105.52866698322813
 20
168.65651233421733
 10
110.37207881130213
 20
168.4936989345309
 10
113.78830747589583
 20
168.38416729335597
 10
113.74023894757637
 20
166.88493768566235
 10
115.17882668492406
 20
166.838813467609
 10
120.01883543937916
 20
166.69147202576275
 10
124.8442558493062
 20
166.56661712436033
 10
129.66491170432394
 20
166.44482469975983
 10
134.49361798225482
 20
166.3529828918936
 10
139.34410616579598
 20
166.27180720133845
 10
144.21304296993685
 20
166.1882153498246
 10
149.09298640983636
 20
166.1113484398456
 10
153.9788955995142
 20
166.03932564107978
 10
158.8647868578571
 20
165.9727339525029
 10
163.7478999645213
 20
165.9134907581543
 10
168.6288033873179
 20
165.86483906719272
 10
173.51246397878572
 20
165.8281885666794
 10
178.4043445516692
 20
165.80076152233005
 10
183.3048768069271
 20
165.77694994310133
 10
188.209541489866
 20
165.75358409035795
 10
193.11396239842531
 20
165.7294911658079
 10
198.01522886540627
 20
165.70559365327708
 10
202.9119074040263
 20
165.6863322683792
 10
207.80730477407909
 20
165.6748788754156
 10
212.70634311724532
 20
165.6693237388753
 10
219.12784003142696
 20
165.66360300551747
 10
404.8878568825571
 20
200.28283114957733
  0
LWPOLYLINE
  5
8D
330
17
100
AcDbEntity
  8
Layer
100
AcDbPolyline
 90
5
 70
0
 10
353.90969800594473
 20
208.83399340953096
 10
350.0043875541762
 20
209.6991814095097
 10
350.86957555415495
 20
213.60449186127826
 10
354.77488600592346
 20
212.73930386129953
 10
353.90969800594473
 20
208.83399340953096
  0
LWPOLYLINE
  5
8E
330
17
100
AcDbEntity
  8
Layer
100
AcDbPolyline
 90
5
 70
0
 10
155.8862521470198
 20
229.90805516504122
 10
151.88763362680342
 20
229.80293651882488
 10
151.78251498058708
 20
233.80155503904126
 10
155.78113350080346
 20
233.9066736852576
 10
155.8862521470198
 20
229.90805516504122
  0
LWPOLYLINE
  5
8F
330
17
100
AcDbEntity
  8
Layer
100
AcDbPolyline
 90
5
 70
0
 10
66.90383722395497
 20
219.53775553048519
 10
63.02526316295637
 20
218.55966389196203
 10
62.04717152443322
 20
222.4382379529606
 10
65.92574558543181
 20
223.41632959148376
 10
66.90383722395497
 20
219.53775553048519
  0
LWPOLYLINE
  5
90
330
17
100
AcDbEntity
  8
Layer
100
AcDbPolyline
 90
5
 70
0
 10
22.895091757133848
 20
199.79415019832325
 10
21.382265911056514
 20
198.48596138953437
 10
18.111793889084375
 20
202.26802600472772
 10
19.62461973516171
 20
203.5762148135166
 10
22.895091757133848
 20
199.79415019832325
  0
LWPOLYLINE
  5
91
330
17
100
AcDbEntity
  8
Layer
100
AcDbPolyline
 90
5
 70
0
 10
17.419499950857762
 20
187.34905509293398
 10
19.00176531099988
 20
186.1257659488252
 10
15.943542450727982
 20
182.17010254846994
 10
14.361277090585865
 20
183.39339169257872
 10
17.419499950857762
 20
187.34905509293398
  0
LWPOLYLINE
  5
92
330
17
100
AcDbEntity
  8
Layer
100
AcDbPolyline
 90
5
 70
0
 10
85.75523442355133
 20
173.5975798926495
 10
89.74836098460527
 20
173.3631864895736
 10
89.51396758152937
 20
169.37005992851965
 10
85.52084102047543
 20
169.60445333159555
 10
85.75523442355133
 20
173.5975798926495
  0
LWPOLYLINE
  5
93
330
17
100
AcDbEntity
  8
Layer
100
AcDbPolyline
 90
300
 70
1
 10
235.90050675675593
 20
200.0
 10
235.8948184833955
 20
200.54753719839303
 10
235.87775617509564
 20
201.09483261977306
 10
235.84932736609136
 20
201.64164459388897
 10
235.8095446097444
 20
202.18773166396642
 10
235.75842547300002
 20
202.73285269332823
 10
235.69599252862994
 20
203.27676697187357
 10
235.6222733452649
 20
203.8192343223689
 10
235.53730047522092
 20
204.36001520650333
 10
235.44111144012538
 20
204.89887083066202
 10
235.3337487143483
 20
205.4355632513707
 10
235.21525970624702
 20
205.96985548036494
 10
235.08569673723196
 20
206.5015115892373
 10
234.9451170186628
 20
207.03029681361693
 10
234.79358262658585
 20
207.55597765683459
 10
234.63116047432277
 20
208.07832199302842
 10
234.45792228292362
 20
208.5970991696442
 10
234.27394454949683
 20
209.11208010928488
 10
234.0793085134304
 20
209.6230374108648
 10
233.8741001205185
 20
210.12974545002368
 10
233.6584099850107
 20
210.63198047875576
 10
233.43233334959885
 20
211.12952072421092
 10
233.19597004336086
 20
211.62214648662305
 10
232.94942443767883
 20
212.1096402363235
 10
232.6928054001517
 20
212.59178670979583
 10
232.4262262465224
 20
213.0683730047304
 10
232.14980469064054
 20
213.53918867403578
 10
231.8636627924837
 20
214.00402581876645
 10
231.56792690425883
 20
214.46267917992495
 10
231.26272761460888
 20
214.91494622909863
 10
230.94819969094846
 20
215.36062725789043
 10
230.62448201995434
 20
215.79952546610446
 10
230.291717546237
 20
216.23144704864742
 10
229.95005320922036
 20
216.6562012811076
 10
229.59963987825734
 20
217.07360060397326
 10
229.24063228601037
 20
217.48346070545367
 10
228.87318896012573
 20
217.88560060286605
 10
228.49747215323222
 20
218.27984272255242
 10
228.11364777129484
 20
218.66601297829106
 10
227.72188530035555
 20
219.04394084816823
 10
227.32235773169302
 20
219.4134594498757
 10
226.91524148543434
 20
219.77440561440122
 10
226.50071633265313
 20
220.12661995807971
 10
226.07896531598743
 20
220.46994695297218
 10
225.6501746688135
 20
220.8042349955427
 10
225.21453373301011
 20
221.12933647360236
 10
224.7722348753508
 20
221.44510783149036
 10
224.32347340255978
 20
221.75140963346442
 10
223.8684474750704
 20
222.0481066252715
 10
223.40735801952266
 20
222.33506779387238
 10
222.94040864003998
 20
222.61216642529334
 10
222.4678055283231
 20
222.87928016057933
 10
221.98975737260196
 20
223.13629104982445
 10
221.5064752654844
 20
223.38308560425511
 10
221.01817261074402
 20
223.6195548463437
 10
220.5250650290869
 20
223.84559435792974
 10
220.02737026293954
 20
224.06110432632818
 10
219.52530808029996
 20
224.26598958840387
 10
219.01910017769444
 20
224.4601596725928
 10
218.5089700822824
 20
224.64352883885192
 10
217.99514305315319
 20
224.81601611651945
 10
217.47784598185814
 20
224.97754534006927
 10
216.95730729222137
 20
225.12804518274356
 10
216.43375683947446
 20
225.26744918804846
 10
215.90742580875883
 20
225.39569579909966
 10
215.37854661304078
 20
225.512728385804
 10
214.84735279048462
 20
225.61849526986578
 10
214.31407890132863
 20
225.71294974760644
 10
213.77896042431004
 20
225.79605011058766
 10
213.24223365268406
 20
225.8677596640285
 10
212.7041355898836
 20
225.92804674300885
 10
212.16490384486508
 20
225.97688472645183
 10
211.62477652718712
 20
226.01425204887872
 10
211.083992141868
 20
226.04013220993193
 10
210.5427894840686
 20
226.05451378166086
 10
210.00140753364713
 20
226.05739041356833
 10
209.4600853496323
 20
226.0487608354146
 10
208.91906196466178
 20
226.02862885777856
 10
208.37857627943197
 20
225.9970033703747
 10
207.83886695720614
 20
225.95389833812803
 10
207.3001723184275
 20
225.89933279500727
 10
206.7627302354838
 20
225.83333083562022
 10
206.22677802766913
 20
225.7559216045741
 10
205.69255235639082
 20
225.66713928360622
 10
205.16028912066625
 20
225.56702307649013
 10
204.6302233529565
 20
225.45561719172454
 10
204.10258911538264
 20
225.33297082301195
 10
203.57761939637044
 20
225.19913812753617
 10
203.05554600776935
 20
225.05417820204795
 10
202.5365994824908
 20
224.89815505676964
 10
202.02100897271137
 20
224.7311375871299
 10
201.50900214868577
 20
224.55319954334163
 10
201.0008050982139
 20
224.3644194978358
 10
200.4966422268069
 20
224.16488081056616
 10
199.996736158596
 20
223.9546715921997
 10
199.50130763802804
 20
223.73388466520964
 10
199.0105754323908
 20
223.5026175228876
 10
198.5247562352116
 20
223.26097228629308
 10
198.04406457057155
 20
223.00905565916008
 10
197.56871269837777
 20
222.74697888077932
 10
197.09891052063526
 20
222.4748576768784
 10
196.63486548876028
 20
222.19281220852045
 10
196.1767825119755
 20
221.9009670190444
 10
195.7248638668279
 20
221.5994509790701
 10
195.27930910786912
 20
221.2883972295928
 10
194.8403149795379
 20
220.96794312319176
 10
194.40807532928307
 20
220.6382301633792
 10
193.98278102196616
 20
220.2994039421164
 10
193.56461985558076
 20
219.9516140755243
 10
193.15377647832622
 20
219.59501413781732
 10
192.75043230707223
 20
219.22976159348923
 10
192.3547654472502
 20
218.85601772778136
 10
191.96695061420698
 20
218.47394757546346
 10
191.58715905605536
 20
218.08371984795906
 10
191.2155584780559
 20
217.6855068588473
 10
190.85231296856284
 20
217.27948444777405
 10
190.4975829265674
 20
216.86583190280595
 10
190.15152499087006
 20
216.44473188126216
 10
189.8142919709133
 20
216.01637032905768
 10
189.48603277930522
 20
215.58093639859513
 10
189.166892366064
 20
215.13862236524022
 10
188.85701165461188
 20
214.68962354241842
 10
188.55652747954764
 20
214.2341381953701
 10
188.26557252622396
 20
213.77236745360202
 10
187.9842752721575
 20
213.3045152220744
 10
187.71275993029684
 20
212.8307880911621
 10
187.45114639417346
 20
212.35139524543018
 10
187.19955018496023
 20
211.86654837126386
 10
186.95808240046034
 20
211.37646156339375
 10
186.7268496660499
 20
210.8813512303577
 10
186.50595408759494
 20
210.38143599894087
 10
186.29549320636443
 20
209.87693661763626
 10
186.0955599559588
 20
209.3680758591684
 10
185.9062426212731
 20
208.85507842212328
 10
185.7276247995128
 20
208.33817083172755
 10
185.55978536327973
 20
207.8175813398216
 10
185.402798425744
 20
207.2935398240699
 10
185.25673330791793
 20
206.7662776864534
 10
185.12165450804562
 20
206.2360277510891
 10
184.99762167312244
 20
205.70302416142124
 10
184.88468957255668
 20
205.16750227683036
 10
184.78290807398474
 20
204.62969856870518
 10
184.69232212125115
 20
204.0898505160234
 10
184.61297171456255
 20
203.5481965004877
 10
184.5448918928247
 20
203.00497570126322
 10
184.48811271817033
 20
202.46042798936259
 10
184.4426592626846
 20
201.9147938217257
 10
184.4085515973339
 20
201.36831413504083
 10
184.38580478310308
 20
200.8212302393535
 10
184.3744288643449
 20
200.27378371151107
 10
184.3744288643449
 20
199.72621628848896
 10
184.38580478310308
 20
199.1787697606465
 10
184.4085515973339
 20
198.6316858649592
 10
184.4426592626846
 20
198.0852061782743
 10
184.48811271817033
 20
197.53957201063741
 10
184.5448918928247
 20
196.99502429873678
 10
184.61297171456255
 20
196.4518034995123
 10
184.69232212125115
 20
195.91014948397662
 10
184.78290807398474
 20
195.37030143129482
 10
184.88468957255668
 20
194.83249772316964
 10
184.99762167312247
 20
194.29697583857876
 10
185.12165450804562
 20
193.7639722489109
 10
185.25673330791793
 20
193.2337223135466
 10
185.402798425744
 20
192.7064601759301
 10
185.55978536327973
 20
192.1824186601784
 10
185.7276247995128
 20
191.66182916827248
 10
185.9062426212731
 20
191.14492157787674
 10
186.0955599559588
 20
190.6319241408316
 10
186.29549320636443
 20
190.12306338236374
 10
186.50595408759494
 20
189.61856400105913
 10
186.7268496660499
 20
189.1186487696423
 10
186.95808240046034
 20
188.62353843660625
 10
187.19955018496023
 20
188.13345162873614
 10
187.45114639417346
 20
187.64860475456982
 10
187.71275993029684
 20
187.1692119088379
 10
187.9842752721575
 20
186.6954847779256
 10
188.26557252622396
 20
186.22763254639798
 10
188.55652747954764
 20
185.7658618046299
 10
188.85701165461188
 20
185.31037645758158
 10
189.16689236606396
 20
184.86137763475978
 10
189.48603277930522
 20
184.41906360140487
 10
189.8142919709133
 20
183.98362967094232
 10
190.15152499087006
 20
183.55526811873784
 10
190.4975829265674
 20
183.13416809719402
 10
190.85231296856284
 20
182.72051555222595
 10
191.2155584780559
 20
182.3144931411527
 10
191.58715905605536
 20
181.91628015204094
 10
191.96695061420695
 20
181.52605242453654
 10
192.3547654472502
 20
181.14398227221864
 10
192.75043230707223
 20
180.77023840651077
 10
193.15377647832622
 20
180.40498586218268
 10
193.56461985558076
 20
180.0483859244757
 10
193.98278102196616
 20
179.7005960578836
 10
194.40807532928307
 20
179.3617698366208
 10
194.84031497953788
 20
179.03205687680824
 10
195.27930910786912
 20
178.7116027704072
 10
195.7248638668279
 20
178.40054902092993
 10
196.1767825119755
 20
178.09903298095563
 10
196.63486548876028
 20
177.80718779147955
 10
197.09891052063526
 20
177.5251423231216
 10
197.56871269837777
 20
177.25302111922068
 10
198.04406457057158
 20
176.99094434083992
 10
198.5247562352116
 20
176.73902771370692
 10
199.0105754323908
 20
176.4973824771124
 10
199.50130763802804
 20
176.26611533479036
 10
199.996736158596
 20
176.0453284078003
 10
200.49664222680687
 20
175.83511918943387
 10
201.0008050982139
 20
175.6355805021642
 10
201.50900214868577
 20
175.44680045665837
 10
202.02100897271137
 20
175.2688624128701
 10
202.53659948249077
 20
175.10184494323036
 10
203.05554600776935
 20
174.94582179795205
 10
203.57761939637044
 20
174.80086187246383
 10
204.10258911538264
 20
174.66702917698805
 10
204.6302233529565
 20
174.54438280827546
 10
205.16028912066625
 20
174.43297692350987
 10
205.69255235639082
 20
174.33286071639378
 10
206.22677802766913
 20
174.2440783954259
 10
206.7627302354838
 20
174.16666916437978
 10
207.3001723184275
 20
174.10066720499273
 10
207.8388669572061
 20
174.04610166187197
 10
208.37857627943194
 20
174.0029966296253
 10
208.91906196466178
 20
173.97137114222144
 10
209.4600853496323
 20
173.9512391645854
 10
210.0014075336471
 20
173.94260958643167
 10
210.5427894840686
 20
173.94548621833914
 10
211.083992141868
 20
173.95986779006807
 10
211.62477652718712
 20
173.98574795112128
 10
212.16490384486508
 20
174.02311527354817
 10
212.7041355898836
 20
174.07195325699115
 10
213.24223365268406
 20
174.1322403359715
 10
213.77896042431004
 20
174.20394988941234
 10
214.31407890132866
 20
174.28705025239356
 10
214.84735279048462
 20
174.38150473013422
 10
215.37854661304078
 20
174.487271614196
 10
215.9074258087588
 20
174.60430420090034
 10
216.43375683947446
 20
174.73255081195154
 10
216.95730729222134
 20
174.87195481725644
 10
217.47784598185814
 20
175.0224546599307
 10
217.99514305315319
 20
175.18398388348055
 10
218.50897008228236
 20
175.35647116114808
 10
219.01910017769444
 20
175.5398403274072
 10
219.52530808029996
 20
175.73401041159613
 10
220.02737026293954
 20
175.93889567367182
 10
220.5250650290869
 20
176.15440564207026
 10
221.01817261074405
 20
176.3804451536563
 10
221.5064752654844
 20
176.61691439574489
 10
221.98975737260196
 20
176.86370895017558
 10
222.46780552832314
 20
177.12071983942067
 10
222.94040864003995
 20
177.38783357470666
 10
223.40735801952266
 20
177.66493220612762
 10
223.86844747507038
 20
177.9518933747285
 10
224.32347340255978
 20
178.24859036653558
 10
224.77223487535076
 20
178.5548921685096
 10
225.21453373301011
 20
178.87066352639764
 10
225.6501746688135
 20
179.19576500445726
 10
226.07896531598743
 20
179.53005304702782
 10
226.50071633265313
 20
179.87338004192029
 10
226.91524148543434
 20
180.22559438559878
 10
227.32235773169302
 20
180.5865405501243
 10
227.72188530035555
 20
180.95605915183177
 10
228.11364777129484
 20
181.33398702170894
 10
228.49747215323222
 20
181.72015727744758
 10
228.87318896012576
 20
182.11439939713395
 10
229.24063228601037
 20
182.51653929454633
 10
229.5996398782573
 20
182.92639939602674
 10
229.95005320922033
 20
183.3437987188924
 10
230.291717546237
 20
183.76855295135258
 10
230.62448201995434
 20
184.20047453389554
 10
230.94819969094846
 20
184.63937274210957
 10
231.26272761460888
 20
185.08505377090137
 10
231.56792690425883
 20
185.53732082007505
 10
231.8636627924837
 20
185.99597418123355
 10
232.14980469064054
 20
186.46081132596422
 10
232.4262262465224
 20
186.9316269952696
 10
232.69280540015174
 20
187.40821329020417
 10
232.94942443767883
 20
187.8903597636765
 10
233.19597004336086
 20
188.37785351337695
 10
233.43233334959885
 20
188.87047927578908
 10
233.65840998501068
 20
189.3680195212442
 10
233.8741001205185
 20
189.87025454997632
 10
234.07930851343036
 20
190.3769625891352
 10
234.27394454949683
 20
190.88791989071512
 10
234.4579222829236
 20
191.4029008303558
 10
234.63116047432277
 20
191.92167800697158
 10
234.79358262658585
 20
192.44402234316541
 10
234.9451170186628
 20
192.96970318638307
 10
235.08569673723196
 20
193.49848841076266
 10
235.21525970624702
 20
194.03014451963506
 10
235.3337487143483
 20
194.5644367486293
 10
235.44111144012538
 20
195.101129169338
 10
235.53730047522092
 20
195.63998479349667
 10
235.6222733452649
 20
196.1807656776311
 10
235.69599252862994
 20
196.72323302812643
 10
235.75842547300002
 20
197.26714730667177
 10
235.8095446097444
 20
197.81226833603358
 10
235.84932736609136
 20
198.358355406111
 10
235.87775617509564
 20
198.90516738022694
 10
235.8948184833955
 20
199.45246280160697
 10
235.90050675675593
 20
200.0
  0
LINE
  5
94
330
17
100
AcDbEntity
  8
Layer
 62
7
100
AcDbLine
 10
15.765341145225989
 20
200.00000000000003
 30
0.0
 11
403.3702401727656
 21
199.99999999999997
 31
0.0
  0
LINE
  5
95
330
17
100
AcDbEntity
  8
Layer
 62
7
100
AcDbLine
 10
91.18632095073391
 20
200.00000000000003
 30
0.0
 11
103.18632095073391
 21
200.0
 31
0.0
  0
LWPOLYLINE
  5
96
330
17
100
AcDbEntity
  8
Layer
100
AcDbPolyline
 90
5
 70
0
 10
97.18632095073391
 20
205.0
 10
102.18632095073391
 20
200.0
 10
97.18632095073391
 20
195.0
 10
92.18632095073391
 20
200.0
 10
97.18632095073391
 20
205.0
  0
LINE
  5
97
330
17
100
AcDbEntity
  8
Layer
 62
7
100
AcDbLine
 10
203.5677906589958
 20
200.0
 30
0.0
 11
215.5677906589958
 21
200.0
 31
0.0
  0
LWPOLYLINE
  5
98
330
17
100
AcDbEntity
  8
Layer
100
AcDbPolyline
 90
5
 70
0
 10
209.5677906589958
 20
205.0
 10
214.5677906589958
 20
200.0
 10
209.5677906589958
 20
195.0
 10
204.5677906589958
 20
200.0
 10
209.5677906589958
 20
205.0
  0
LINE
  5
99
330
17
100
AcDbEntity
  8
Layer
 62
7
100
AcDbLine
 10
315.9492603672577
 20
200.0
 30
0.0
 11
327.9492603672577
 21
199.99999999999997
 31
0.0
  0
LWPOLYLINE
  5
9A
330
17
100
AcDbEntity
  8
Layer
100
AcDbPolyline
 90
5
 70
0
 10
321.9492603672577
 20
205.0
 10
326.9492603672577
 20
200.0
 10
321.9492603672577
 20
195.0
 10
316.9492603672577
 20
200.0
 10
321.9492603672577
 20
205.0
  0
LINE
  5
9B
330
17
100
AcDbEntity
  8
Layer
 62
7
100
AcDbLine
 10
10.911946920937112
 20
190.75484348035616
 30
0.0
 11
286.7988896888353
 21
178.2751409809651
 31
0.0
  0
LINE
  5
9C
330
17
100
AcDbEntity
  8
Layer
 62
7
100
AcDbLine
 10
63.991480683504705
 20
188.35379911226326
 30
0.0
 11
75.97922234643065
 21
187.81153550206142
 31
0.0
  0
LWPOLYLINE
  5
9D
330
17
100
AcDbEntity
  8
Layer
100
AcDbPolyline
 90
5
 70
0
 10
70.21129468588511
 20
193.07755966671485
 10
74.98024387452016
 20
187.8567241362449
 10
69.75940834405024
 20
183.08777494760986
 10
64.9904591554152
 20
188.3086104780798
 10
70.21129468588511
 20
193.07755966671485
  0
LINE
  5
9E
330
17
100
AcDbEntity
  8
Layer
 62
7
100
AcDbLine
 10
129.71653634177014
 20
185.38073654851183
 30
0.0
 11
141.7042780046961
 21
184.83847293831
 31
0.0
  0
LWPOLYLINE
  5
9F
330
17
100
AcDbEntity
  8
Layer
100
AcDbPolyline
 90
5
 70
0
 10
135.93635034415058
 20
190.10449710296342
 10
140.70529953278563
 20
184.88366157249348
 10
135.4844640023157
 20
180.11471238385843
 10
130.71551481368064
 20
185.33554791432837
 10
135.93635034415058
 20
190.10449710296342
  0
LINE
  5
A0
330
17
100
AcDbEntity
  8
Layer
100
AcDbLine
 10
210.136756756756
 20
226.05774999999994
 30
0.0
 11
210.136756756756
 21
227.05774999999994
 31
0.0
  0
LINE
  5
A1
330
17
100
AcDbEntity
  8
Layer
100
AcDbLine
 10
210.136756756756
 20
173.94225000000006
 30
0.0
 11
210.136756756756
 21
172.94225000000006
 31
0.0
  0
LINE
  5
A2
330
17
100
AcDbEntity
  8
Layer
100
AcDbLine
 10
235.90050675675593
 20
200.0
 30
0.0
 11
236.90050675675593
 21
200.0
 31
0.0
  0
LINE
  5
A3
330
17
100
AcDbEntity
  8
Layer
100
AcDbLine
 10
184.37300675675607
 20
200.0
 30
0.0
 11
183.37300675675607
 21
200.0
 31
0.0
  0
LINE
  5
A4
330
17
100
AcDbEntity
  8
Layer
 62
7
100
AcDbLine
 10
130.136756756756
 20
166.43585022499292
 30
0.0
 11
130.136756756756
 21
232.7569521236144
 31
0.0
  0
LINE
  5
A5
330
17
100
AcDbEntity
  8
Layer
 62
7
100
AcDbLine
 10
130.136756756756
 20
185.59823588951045
 30
0.0
 11
130.136756756756
 21
197.59823588951045
 31
0.0
  0
LWPOLYLINE
  5
A6
330
17
100
AcDbEntity
  8
Layer
100
AcDbPolyline
 90
5
 70
0
 10
125.136756756756
 20
191.59823588951045
 10
130.136756756756
 20
196.59823588951045
 10
135.136756756756
 20
191.59823588951045
 10
130.136756756756
 20
186.59823588951045
 10
125.136756756756
 20
191.59823588951045
  0
LINE
  5
A7
330
17
100
AcDbEntity
  8
Layer
 62
7
100
AcDbLine
 10
130.136756756756
 20
201.5945664590969
 30
0.0
 11
130.136756756756
 21
213.5945664590969
 31
0.0
  0
LWPOLYLINE
  5
A8
330
17
100
AcDbEntity
  8
Layer
100
AcDbPolyline
 90
5
 70
0
 10
125.136756756756
 20
207.5945664590969
 10
130.136756756756
 20
212.5945664590969
 10
135.136756756756
 20
207.5945664590969
 10
130.136756756756
 20
202.5945664590969
 10
125.136756756756
 20
207.5945664590969
  0
LINE
  5
A9
330
17
100
AcDbEntity
  8
Layer
 62
7
100
AcDbLine
 10
340.136756756756
 20
188.21547055264952
 30
0.0
 11
340.136756756756
 21
215.86563335546802
 31
0.0
  0
LINE
  5
AA
330
17
100
AcDbEntity
  8
Layer
 62
7
100
AcDbLine
 10
340.136756756756
 20
193.843027533636
 30
0.0
 11
340.136756756756
 21
205.843027533636
 31
0.0
  0
LWPOLYLINE
  5
AB
330
17
100
AcDbEntity
  8
Layer
100
AcDbPolyline
 90
5
 70
0
 10
335.136756756756
 20
199.843027533636
 10
340.136756756756
 20
204.843027533636
 10
345.136756756756
 20
199.843027533636
 10
340.136756756756
 20
194.843027533636
 10
335.136756756756
 20
199.843027533636
  0
LINE
  5
AC
330
17
100
AcDbEntity
  8
Layer
 62
7
100
AcDbLine
 10
340.136756756756
 20
198.23807637448155
 30
0.0
 11
340.136756756756
 21
210.23807637448155
 31
0.0
  0
LWPOLYLINE
  5
AD
330
17
100
AcDbEntity
  8
Layer
100
AcDbPolyline
 90
5
 70
0
 10
335.136756756756
 20
204.23807637448155
 10
340.136756756756
 20
209.23807637448155
 10
345.136756756756
 20
204.23807637448155
 10
340.136756756756
 20
199.23807637448155
 10
335.136756756756
 20
204.23807637448155
  0
LWPOLYLINE
  5
AE
330
17
100
AcDbEntity
  8
NumLabel
 62
1
100
AcDbPolyline
 90
4
 70
0
 10
157.46918918918865
 20
178.6662162162163
 10
157.46918918918865
 20
183.6662162162163
 10
162.46918918918865
 20
183.6662162162163
 10
162.46918918918865
 20
173.6662162162163
  0
LWPOLYLINE
  5
AF
330
17
100
AcDbEntity
  8
NumLabel
 62
1
100
AcDbPolyline
 90
2
 70
0
 10
169.96918918918865
 20
183.6662162162163
 10
167.96918918918865
 20
183.6662162162163
  0
LWPOLYLINE
  5
B0
330
17
100
AcDbEntity
  8
NumLabel
 62
1
100
AcDbPolyline
 90
4
 70
0
 10
166.96918918918865
 20
183.6662162162163
 10
164.96918918918865
 20
183.6662162162163
 10
164.96918918918865
 20
173.6662162162163
 10
166.96918918918865
 20
173.6662162162163
  0
LWPOLYLINE
  5
B1
330
17
100
AcDbEntity
  8
NumLabel
 62
1
100
AcDbPolyline
 90
4
 70
0
 10
167.96918918918865
 20
173.6662162162163
 10
169.96918918918865
 20
173.6662162162163
 10
169.96918918918865
 20
178.6662162162163
 10
167.96918918918865
 20
178.6662162162163
  0
LWPOLYLINE
  5
B2
330
17
100
AcDbEntity
  8
NumLabel
 62
1
100
AcDbPolyline
 90
2
 70
0
 10
166.96918918918865
 20
178.6662162162163
 10
164.96918918918865
 20
178.6662162162163
  0
ENDSEC
  0
SECTION
  2
OBJECTS
  0
DICTIONARY
  5
A
330
0
100
AcDbDictionary
280
0
281
1
  3
ACAD_COLOR
350
B
  3
ACAD_GROUP
350
C
  3
ACAD_LAYOUT
350
D
  3
ACAD_MATERIAL
350
E
  3
ACAD_MLEADERSTYLE
350
F
  3
ACAD_MLINESTYLE
350
10
  3
ACAD_PLOTSETTINGS
350
11
  3
ACAD_PLOTSTYLENAME
350
12
  3
ACAD_SCALELIST
350
14
  3
ACAD_TABLESTYLE
350
15
  3
ACAD_VISUALSTYLE
350
16
  3
EZDXF_META
350
2D
  0
DICTIONARY
  5
B
330
A
100
AcDbDictionary
280
0
281
1
  0
DICTIONARY
  5
C
330
A
100
AcDbDictionary
280
0
281
1
  0
DICTIONARY
  5
D
330
A
100
AcDbDictionary
280
0
281
1
  3
Model
350
1A
  3
Layout1
350
1E
  0
DICTIONARY
  5
E
330
A
100
AcDbDictionary
280
0
281
1
  3
ByBlock
350
1F
  3
ByLayer
350
20
  3
Global
350
21
  0
DICTIONARY
  5
F
330
A
100
AcDbDictionary
280
0
281
1
  3
Standard
350
2C
  0
DICTIONARY
  5
10
330
A
100
AcDbDictionary
280
0
281
1
  3
Standard
350
22
  0
DICTIONARY
  5
11
330
A
100
AcDbDictionary
280
0
281
1
  0
ACDBDICTIONARYWDFLT
  5
12
330
A
100
AcDbDictionary
280
0
281
1
  3
Normal
350
13
100
AcDbDictionaryWithDefault
340
13
  0
ACDBPLACEHOLDER
  5
13
330
12
  0
DICTIONARY
  5
14
330
A
100
AcDbDictionary
280
0
281
1
  0
DICTIONARY
  5
15
330
A
100
AcDbDictionary
280
0
281
1
  0
DICTIONARY
  5
16
330
A
100
AcDbDictionary
280
0
281
1
  3
2dWireframe
350
5A
  3
Basic
350
5B
  3
Brighten
350
5C
  3
ColorChange
350
5D
  3
Conceptual
350
5E
  3
Dim
350
5F
  3
EdgeColorOff
350
60
  3
Facepattern
350
61
  3
Flat
350
62
  3
FlatWithEdges
350
63
  3
Gouraud
350
64
  3
GouraudWithEdges
350
65
  3
Hidden
350
66
  3
JitterOff
350
67
  3
Linepattern
350
68
  3
Modeling
350
69
  3
OverhangOff
350
6A
  3
Realistic
350
6B
  3
Shaded
350
6C
  3
Shaded with edges
350
6D
  3
Shades of Gray
350
6E
  3
Sketchy
350
6F
  3
Thicken
350
70
  3
Wireframe
350
71
  3
X-Ray
350
72
  0
LAYOUT
  5
1A
330
D
100
AcDbPlotSettings
  1

  2
Adobe PDF
  4
A3
  6

 40
7.5
 41
20.0
 42
7.5
 43
20.0
 44
420.0
 45
297.0
 46
0.0
 47
0.0
 48
0.0
 49
0.0
140
0.0
141
0.0
142
1.0
143
1.0
 70
1024
 72
1
 73
0
 74
5
  7

 75
16
 76
0
 77
2
 78
300
147
1.0
148
0.0
149
0.0
100
AcDbLayout
  1
Model
 70
1
 71
0
 10
0.0
 20
0.0
 11
420.0
 21
297.0
 12
0.0
 22
0.0
 32
0.0
 14
1e+20
 24
1e+20
 34
1e+20
 15
-1e+20
 25
-1e+20
 35
-1e+20
146
0.0
 13
0.0
 23
0.0
 33
0.0
 16
1.0
 26
0.0
 36
0.0
 17
0.0
 27
1.0
 37
0.0
 76
1
330
17
  0
LAYOUT
  5
1E
330
D
100
AcDbPlotSettings
  1

  2
Adobe PDF
  4
A3
  6

 40
7.5
 41
20.0
 42
7.5
 43
20.0
 44
420.0
 45
297.0
 46
0.0
 47
0.0
 48
0.0
 49
0.0
140
0.0
141
0.0
142
1.0
143
1.0
 70
0
 72
1
 73
0
 74
5
  7

 75
16
 76
0
 77
2
 78
300
147
1.0
148
0.0
149
0.0
100
AcDbLayout
  1
Layout1
 70
1
 71
1
 10
0.0
 20
0.0
 11
420.0
 21
297.0
 12
0.0
 22
0.0
 32
0.0
 14
1e+20
 24
1e+20
 34
1e+20
 15
-1e+20
 25
-1e+20
 35
-1e+20
146
0.0
 13
0.0
 23
0.0
 33
0.0
 16
1.0
 26
0.0
 36
0.0
 17
0.0
 27
1.0
 37
0.0
 76
1
330
1B
  0
MATERIAL
  5
1F
102
{ACAD_REACTORS
330
E
102
}
330
E
100
AcDbMaterial
  1
ByBlock
  2

 70
0
 40
1.0
 71
1
 41
1.0
 91
-1023410177
 42
1.0
 72
1
  3

 73
1
 74
1
 75
1
 44
0.5
 73
0
 45
1.0
 46
1.0
 77
1
  4

 78
1
 79
1
170
1
 48
1.0
171
1
  6

172
1
173
1
174
1
140
1.0
141
1.0
175
1
  7

176
1
177
1
178
1
143
1.0
179
1
  8

270
1
271
1
272
1
145
1.0
146
1.0
273
1
  9

274
1
275
1
276
1
 42
1.0
 72
1
  3

 73
1
 74
1
 75
1
 94
63
  0
MATERIAL
  5
20
102
{ACAD_REACTORS
330
E
102
}
330
E
100
AcDbMaterial
  1
ByLayer
  2

 70
0
 40
1.0
 71
1
 41
1.0
 91
-1023410177
 42
1.0
 72
1
  3

 73
1
 74
1
 75
1
 44
0.5
 73
0
 45
1.0
 46
1.0
 77
1
  4

 78
1
 79
1
170
1
 48
1.0
171
1
  6

172
1
173
1
174
1
140
1.0
141
1.0
175
1
  7

176
1
177
1
178
1
143
1.0
179
1
  8

270
1
271
1
272
1
145
1.0
146
1.0
273
1
  9

274
1
275
1
276
1
 42
1.0
 72
1
  3

 73
1
 74
1
 75
1
 94
63
  0
MATERIAL
  5
21
102
{ACAD_REACTORS
330
E
102
}
330
E
100
AcDbMaterial
  1
Global
  2

 70
0
 40
1.0
 71
1
 41
1.0
 91
-1023410177
 42
1.0
 72
1
  3

 73
1
 74
1
 75
1
 44
0.5
 73
0
 45
1.0
 46
1.0
 77
1
  4

 78
1
 79
1
170
1
 48
1.0
171
1
  6

172
1
173
1
174
1
140
1.0
141
1.0
175
1
  7

176
1
177
1
178
1
143
1.0
179
1
  8

270
1
271
1
272
1
145
1.0
146
1.0
273
1
  9

274
1
275
1
276
1
 42
1.0
 72
1
  3

 73
1
 74
1
 75
1
 94
63
  0
MLINESTYLE
  5
22
102
{ACAD_REACTORS
330
10
102
}
330
10
100
AcDbMlineStyle
  2
Standard
 70
0
  3

 62
256
 51
90.0
 52
90.0
 71
2
 49
0.5
 62
256
  6
BYLAYER
 49
-0.5
 62
256
  6
BYLAYER
  0
MLEADERSTYLE
  5
2C
102
{ACAD_REACTORS
330
F
102
}
330
F
100
AcDbMLeaderStyle
179
2
170
2
171
1
172
0
 90
2
 40
0.0
 41
0.0
173
1
 91
-1056964608
 92
-2
290
1
 42
2.0
291
1
 43
8.0
  3
Standard
 44
4.0
300

342
29
174
1
175
1
176
0
178
1
 93
-1056964608
 45
4.0
292
0
297
0
 46
4.0
 94
-1056964608
 47
1.0
 49
1.0
140
1.0
294
1
141
0.0
177
0
142
1.0
295
0
296
0
143
3.75
271
0
272
9
273
9
  0
DICTIONARY
  5
2D
330
A
100
AcDbDictionary
281
1
  3
CREATED_BY_EZDXF
350
2E
  3
WRITTEN_BY_EZDXF
350
B5
  0
DICTIONARYVAR
  5
2E
330
2D
100
DictionaryVariables
280
0
  1
1.3.0 @ 2026-01-06T17:07:24.537276+00:00
  0
VISUALSTYLE
  5
5A
102
{ACAD_REACTORS
330
16
102
}
330
16
100
AcDbVisualStyle
  2
2dWireframe
 70
4
 90
0
 40
0.6
 62
7
290
0
291
0
  0
VISUALSTYLE
  5
5B
102
{ACAD_REACTORS
330
16
102
}
330
16
100
AcDbVisualStyle
  2
Basic
 70
7
 90
1
 40
0.6
 62
7
290
0
291
1
  0
VISUALSTYLE
  5
5C
102
{ACAD_REACTORS
330
16
102
}
330
16
100
AcDbVisualStyle
  2
Brighten
 70
12
 90
2
 40
0.6
 62
7
290
0
291
1
  0
VISUALSTYLE
  5
5D
102
{ACAD_REACTORS
330
16
102
}
330
16
100
AcDbVisualStyle
  2
ColorChange
 70
16
 90
2
 40
0.6
 62
8
290
0
291
1
  0
VISUALSTYLE
  5
5E
102
{ACAD_REACTORS
330
16
102
}
330
16
100
AcDbVisualStyle
  2
Conceptual
 70
9
 90
3
 40
0.6
 62
7
290
0
291
0
  0
VISUALSTYLE
  5
5F
102
{ACAD_REACTORS
330
16
102
}
330
16
100
AcDbVisualStyle
  2
Dim
 70
11
 90
2
 40
0.6
 62
7
290
0
291
1
  0
VISUALSTYLE
  5
60
102
{ACAD_REACTORS
330
16
102
}
330
16
100
AcDbVisualStyle
  2
EdgeColorOff
 70
22
 90
2
 40
0.6
 62
7
290
0
291
1
  0
VISUALSTYLE
  5
61
102
{ACAD_REACTORS
330
16
102
}
330
16
100
AcDbVisualStyle
  2
Facepattern
 70
15
 90
2
 40
0.6
 62
7
290
0
291
1
  0
VISUALSTYLE
  5
62
102
{ACAD_REACTORS
330
16
102
}
330
16
100
AcDbVisualStyle
  2
Flat
 70
0
 90
2
 40
0.6
 62
7
290
0
291
1
  0
VISUALSTYLE
  5
63
102
{ACAD_REACTORS
330
16
102
}
330
16
100
AcDbVisualStyle
  2
FlatWithEdges
 70
1
 90
2
 40
0.6
 62
7
290
0
291
1
  0
VISUALSTYLE
  5
64
102
{ACAD_REACTORS
330
16
102
}
330
16
100
AcDbVisualStyle
  2
Gouraud
 70
2
 90
2
 40
0.6
 62
7
290
0
291
1
  0
VISUALSTYLE
  5
65
102
{ACAD_REACTORS
330
16
102
}
330
16
100
AcDbVisualStyle
  2
GouraudWithEdges
 70
3
 90
2
 40
0.6
 62
7
290
0
291
1
  0
VISUALSTYLE
  5
66
102
{ACAD_REACTORS
330
16
102
}
330
16
100
AcDbVisualStyle
  2
Hidden
 70
6
 90
1
 40
0.6
 62
7
290
0
291
0
  0
VISUALSTYLE
  5
67
102
{ACAD_REACTORS
330
16
102
}
330
16
100
AcDbVisualStyle
  2
JitterOff
 70
20
 90
2
 40
0.6
 62
7
290
0
291
1
  0
VISUALSTYLE
  5
68
102
{ACAD_REACTORS
330
16
102
}
330
16
100
AcDbVisualStyle
  2
Linepattern
 70
14
 90
2
 40
0.6
 62
7
290
0
291
1
  0
VISUALSTYLE
  5
69
102
{ACAD_REACTORS
330
16
102
}
330
16
100
AcDbVisualStyle
  2
Modeling
 70
10
 90
2
 40
0.6
 62
7
290
0
291
0
  0
VISUALSTYLE
  5
6A
102
{ACAD_REACTORS
330
16
102
}
330
16
100
AcDbVisualStyle
  2
OverhangOff
 70
21
 90
2
 40
0.6
 62
7
290
0
291
1
  0
VISUALSTYLE
  5
6B
102
{ACAD_REACTORS
330
16
102
}
330
16
100
AcDbVisualStyle
  2
Realistic
 70
8
 90
2
 40
0.6
 62
7
290
0
291
0
  0
VISUALSTYLE
  5
6C
102
{ACAD_REACTORS
330
16
102
}
330
16
100
AcDbVisualStyle
  2
Shaded
 70
27
 90
2
 40
0.6
 62
7
290
0
291
0
  0
VISUALSTYLE
  5
6D
102
{ACAD_REACTORS
330
16
102
}
330
16
100
AcDbVisualStyle
  2
Shaded with edges
 70
26
 90
2
 40
0.6
 62
7
290
0
291
0
  0
VISUALSTYLE
  5
6E
102
{ACAD_REACTORS
330
16
102
}
330
16
100
AcDbVisualStyle
  2
Shades of Gray
 70
23
 90
2
 40
0.6
 62
7
290
0
291
0
  0
VISUALSTYLE
  5
6F
102
{ACAD_REACTORS
330
16
102
}
330
16
100
AcDbVisualStyle
  2
Sketchy
 70
24
 90
1
 40
0.6
 62
7
290
0
291
0
  0
VISUALSTYLE
  5
70
102
{ACAD_REACTORS
330
16
102
}
330
16
100
AcDbVisualStyle
  2
Thicken
 70
13
 90
2
 40
0.6
 62
7
290
0
291
1
  0
VISUALSTYLE
  5
71
102
{ACAD_REACTORS
330
16
102
}
330
16
100
AcDbVisualStyle
  2
Wireframe
 70
5
 90
0
 40
0.6
 62
7
290
0
291
0
  0
VISUALSTYLE
  5
72
102
{ACAD_REACTORS
330
16
102
}
330
16
100
AcDbVisualStyle
  2
X-Ray
 70
25
 90
2
 40
0.5
 62
7
290
0
291
0
  0
DICTIONARYVAR
  5
B5
330
2D
100
DictionaryVariables
280
0
  1
1.3.0 @ 2026-01-06T17:07:24.671211+00:00
  0
ENDSEC
  0
EOF
