<?xml version="1.0" encoding="utf-8" standalone="no"?>
<!DOCTYPE svg PUBLIC "-//W3C//DTD SVG 1.1//EN"
  "http://www.w3.org/Graphics/SVG/1.1/DTD/svg11.dtd">
<svg xmlns:xlink="http://www.w3.org/1999/xlink" width="1152pt" height="338.694747pt" viewBox="0 0 1152 338.694747" xmlns="http://www.w3.org/2000/svg" version="1.1">
 <metadata>
  <rdf:RDF xmlns:dc="http://purl.org/dc/elements/1.1/" xmlns:cc="http://creativecommons.org/ns#" xmlns:rdf="http://www.w3.org/1999/02/22-rdf-syntax-ns#">
   <cc:Work>
    <dc:type rdf:resource="http://purl.org/dc/dcmitype/StillImage"/>
    <dc:date>2026-01-07T02:07:11.309067</dc:date>
    <dc:format>image/svg+xml</dc:format>
    <dc:creator>
     <cc:Agent>
      <dc:title>Matplotlib v3.10.1, https://matplotlib.org/</dc:title>
     </cc:Agent>
    </dc:creator>
   </cc:Work>
  </rdf:RDF>
 </metadata>
 <defs>
  <style type="text/css">*{stroke-linejoin: round; stroke-linecap: butt}</style>
 </defs>
 <g id="figure_1">
  <g id="patch_1">
   <path d="M 0 338.694747 
L 1152 338.694747 
L 1152 0 
L 0 0 
z
" style="fill: #ffffff"/>
  </g>
  <g id="axes_1">
   <g id="patch_2">
    <path d="M 0 338.694747 
L 1152 338.694747 
L 1152 0 
L 0 0 
z
" style="fill: #212830"/>
   </g>
   <g id="patch_3">
    <path d="M 1099.300832 321.305913 
L 1094.071852 319.418296 
L 1085.348025 316.280313 
L 1075.527364 312.777383 
L 1064.61375 308.951345 
L 1052.569748 304.810808 
L 1039.46605 300.311825 
L 1025.436051 295.472255 
L 1010.620443 290.324164 
L 995.134644 284.905395 
L 979.085448 279.256484 
L 962.543426 273.408101 
L 945.566143 267.3908 
L 928.202431 261.221913 
L 910.486835 254.918268 
L 892.464609 248.501431 
L 874.182608 241.990113 
L 855.684519 235.407425 
L 836.999604 228.771831 
L 818.151912 222.094547 
L 799.164238 215.389038 
L 780.045798 208.666521 
L 760.804226 201.934136 
L 741.451342 195.200091 
L 721.996272 188.474431 
L 702.443314 181.76503 
L 682.79899 175.079202 
L 663.070971 168.426346 
L 643.260803 161.815009 
L 623.365407 155.250675 
L 603.384758 148.737976 
L 583.319781 142.281821 
L 581.628793 141.745254 
L 580.970278 143.820562 
L 562.519401 137.965894 
L 542.288326 131.642379 
L 521.963345 125.390279 
L 501.544235 119.208938 
L 481.036586 113.098373 
L 460.446607 107.065423 
L 439.775701 101.118582 
L 419.025105 95.262036 
L 398.202299 89.498654 
L 377.316206 83.837783 
L 356.36839 78.293243 
L 335.356645 72.873285 
L 314.282941 67.580651 
L 293.15423 62.422358 
L 271.969554 57.41056 
L 250.723762 52.550302 
L 229.418085 47.839679 
L 208.061362 43.280655 
L 186.657885 38.882154 
L 165.204877 34.650089 
L 143.704813 30.582175 
L 122.167591 26.681734 
L 100.595573 22.963697 
L 78.977001 19.441126 
L 57.298058 16.110768 
L 52.363636 15.395216 
L 52.363636 284.268674 
L 66.671961 284.361017 
L 91.855124 284.510266 
L 117.002772 284.666168 
L 142.070848 284.829306 
L 167.039147 284.972408 
L 191.92746 285.080538 
L 216.751793 285.175066 
L 241.484758 285.296568 
L 266.142405 285.461532 
L 290.734258 285.657315 
L 315.234335 285.868481 
L 339.58588 286.111164 
L 363.751974 286.415104 
L 387.760802 286.789706 
L 411.610389 287.198551 
L 435.25733 287.590299 
L 458.75563 287.945003 
L 482.120828 288.297629 
L 505.317133 288.69776 
L 528.376695 289.161402 
L 551.314187 289.66044 
L 574.061857 290.168713 
L 596.547573 290.703703 
L 618.766795 291.30719 
L 640.801222 291.99418 
L 662.701001 292.73083 
L 684.42042 293.476283 
L 705.871141 294.230212 
L 726.991327 295.034369 
L 747.838666 295.921758 
L 768.497907 296.883175 
L 788.975885 297.876629 
L 809.176176 298.869591 
L 828.998408 299.87848 
L 848.430832 300.955437 
L 867.565985 302.137478 
L 886.494677 303.402979 
L 905.189948 304.691432 
L 923.512706 305.975202 
L 941.367516 307.283883 
L 958.755998 308.641883 
L 975.674654 310.037069 
L 992.062626 311.453365 
L 1007.829115 312.884463 
L 1022.878102 314.335729 
L 1037.146461 315.822665 
L 1050.592506 317.324864 
L 1063.119405 318.780259 
L 1074.596437 320.140838 
L 1084.933852 321.407672 
L 1094.124269 322.580139 
L 1099.636364 323.299531 
L 1099.300832 321.305913 
" clip-path="url(#pda13dc353e)" style="fill: none; stroke: #ff0000; stroke-width: 0.72; stroke-linejoin: miter"/>
   </g>
   <g id="patch_4">
    <path d="M 490.048734 219.476507 
L 500.93513 219.476507 
L 500.93513 230.362903 
L 490.048734 230.362903 
L 490.048734 241.249298 
L 500.93513 241.249298 
" clip-path="url(#pda13dc353e)" style="fill: none; stroke: #ff0000; stroke-width: 0.72; stroke-linejoin: miter"/>
   </g>
   <g id="patch_5">
    <path d="M 517.264723 219.476507 
L 512.910165 219.476507 
" clip-path="url(#pda13dc353e)" style="fill: none; stroke: #ff0000; stroke-width: 0.72; stroke-linejoin: miter"/>
   </g>
   <g id="patch_6">
    <path d="M 510.732885 219.476507 
L 506.378327 219.476507 
L 506.378327 241.249298 
L 510.732885 241.249298 
" clip-path="url(#pda13dc353e)" style="fill: none; stroke: #ff0000; stroke-width: 0.72; stroke-linejoin: miter"/>
   </g>
   <g id="patch_7">
    <path d="M 512.910165 241.249298 
L 517.264723 241.249298 
L 517.264723 230.362903 
L 512.910165 230.362903 
" clip-path="url(#pda13dc353e)" style="fill: none; stroke: #ff0000; stroke-width: 0.72; stroke-linejoin: miter"/>
   </g>
   <g id="patch_8">
    <path d="M 510.732885 230.362903 
L 506.378327 230.362903 
" clip-path="url(#pda13dc353e)" style="fill: none; stroke: #ff0000; stroke-width: 0.72; stroke-linejoin: miter"/>
   </g>
   <g id="patch_9">
    <path d="M 375.289235 92.310298 
L 366.870033 90.081902 
L 369.09843 81.6627 
L 377.517632 83.891096 
L 375.289235 92.310298 
" clip-path="url(#pda13dc353e)" style="fill: none; stroke: #ff0000; stroke-width: 0.72; stroke-linejoin: miter"/>
   </g>
   <g id="patch_10">
    <path d="M 241.181477 124.703565 
L 252.067872 135.589961 
L 241.181477 146.476356 
L 230.295081 135.589961 
L 241.181477 124.703565 
" clip-path="url(#pda13dc353e)" style="fill: none; stroke: #ff0000; stroke-width: 0.72; stroke-linejoin: miter"/>
   </g>
   <g id="patch_11">
    <path d="M 441.078557 219.470794 
L 451.964952 208.584398 
L 462.851347 219.470794 
L 451.964952 230.357189 
L 441.078557 219.470794 
" clip-path="url(#pda13dc353e)" style="fill: none; stroke: #ff0000; stroke-width: 0.72; stroke-linejoin: miter"/>
   </g>
   <g id="patch_12">
    <path d="M 441.078557 172.99703 
L 451.964952 162.110634 
L 462.851347 172.99703 
L 451.964952 183.883425 
L 441.078557 172.99703 
" clip-path="url(#pda13dc353e)" style="fill: none; stroke: #ff0000; stroke-width: 0.72; stroke-linejoin: miter"/>
   </g>
   <g id="line2d_1">
    <path d="M 1058.489536 306.845937 
L 1057.789605 308.907645 
" clip-path="url(#pda13dc353e)" style="fill: none; stroke: #ff0000; stroke-width: 0.72; stroke-linecap: square"/>
   </g>
   <g id="line2d_2">
    <path d="M 1056.416287 315.812289 
L 1056.273299 317.984868 
" clip-path="url(#pda13dc353e)" style="fill: none; stroke: #ff0000; stroke-width: 0.72; stroke-linecap: square"/>
   </g>
   <g id="line2d_3">
    <path d="M 1017.3217 292.6527 
L 1016.616903 294.71275 
" clip-path="url(#pda13dc353e)" style="fill: none; stroke: #ff0000; stroke-width: 0.72; stroke-linecap: square"/>
   </g>
   <g id="line2d_4">
    <path d="M 1013.139814 311.209342 
L 1012.953165 313.378606 
" clip-path="url(#pda13dc353e)" style="fill: none; stroke: #ff0000; stroke-width: 0.72; stroke-linecap: square"/>
   </g>
   <g id="line2d_5">
    <path d="M 853.12992 234.500207 
L 852.410383 236.555155 
" clip-path="url(#pda13dc353e)" style="fill: none; stroke: #ff0000; stroke-width: 0.72; stroke-linecap: square"/>
   </g>
   <g id="line2d_6">
    <path d="M 839.417752 298.275873 
L 839.247768 300.446506 
" clip-path="url(#pda13dc353e)" style="fill: none; stroke: #ff0000; stroke-width: 0.72; stroke-linecap: square"/>
   </g>
   <g id="line2d_7">
    <path d="M 52.363636 135.589961 
L 554.917983 135.589961 
" clip-path="url(#pda13dc353e)" style="fill: none; stroke: #ffffff; stroke-width: 0.72; stroke-linecap: square"/>
   </g>
   <g id="line2d_8">
    <path d="M 228.117802 135.589961 
L 254.245151 135.589961 
" clip-path="url(#pda13dc353e)" style="fill: none; stroke: #ffffff; stroke-width: 0.72; stroke-linecap: square"/>
   </g>
   <g id="line2d_9">
    <path d="M 52.363636 253.218187 
L 1097.652316 320.710813 
" clip-path="url(#pda13dc353e)" style="fill: none; stroke: #ffffff; stroke-width: 0.72; stroke-linecap: square"/>
   </g>
   <g id="line2d_10">
    <path d="M 451.964952 287.842499 
L 451.964952 104.625324 
" clip-path="url(#pda13dc353e)" style="fill: none; stroke: #ffffff; stroke-width: 0.72; stroke-linecap: square"/>
   </g>
   <g id="line2d_11">
    <path d="M 451.964952 232.534468 
L 451.964952 206.407119 
" clip-path="url(#pda13dc353e)" style="fill: none; stroke: #ffffff; stroke-width: 0.72; stroke-linecap: square"/>
   </g>
   <g id="line2d_12">
    <path d="M 451.964952 186.060704 
L 451.964952 159.933355 
" clip-path="url(#pda13dc353e)" style="fill: none; stroke: #ffffff; stroke-width: 0.72; stroke-linecap: square"/>
   </g>
  </g>
 </g>
 <defs>
  <clipPath id="pda13dc353e">
   <rect x="0" y="0" width="1152" height="338.694747"/>
  </clipPath>
 </defs>
</svg>
