<?xml version="1.0" encoding="utf-8" standalone="no"?>
<!DOCTYPE svg PUBLIC "-//W3C//DTD SVG 1.1//EN"
  "http://www.w3.org/Graphics/SVG/1.1/DTD/svg11.dtd">
<svg xmlns:xlink="http://www.w3.org/1999/xlink" width="1152pt" height="322.966197pt" viewBox="0 0 1152 322.966197" xmlns="http://www.w3.org/2000/svg" version="1.1">
 <metadata>
  <rdf:RDF xmlns:dc="http://purl.org/dc/elements/1.1/" xmlns:cc="http://creativecommons.org/ns#" xmlns:rdf="http://www.w3.org/1999/02/22-rdf-syntax-ns#">
   <cc:Work>
    <dc:type rdf:resource="http://purl.org/dc/dcmitype/StillImage"/>
    <dc:date>2026-01-07T02:07:11.219976</dc:date>
    <dc:format>image/svg+xml</dc:format>
    <dc:creator>
     <cc:Agent>
      <dc:title>Matplotlib v3.10.1, https://matplotlib.org/</dc:title>
     </cc:Agent>
    </dc:creator>
   </cc:Work>
  </rdf:RDF>
 </metadata>
 <defs>
  <style type="text/css">*{stroke-linejoin: round; stroke-linecap: butt}</style>
 </defs>
 <g id="figure_1">
  <g id="patch_1">
   <path d="M 0 322.966197 
L 1152 322.966197 
L 1152 0 
L 0 0 
z
" style="fill: #ffffff"/>
  </g>
  <g id="axes_1">
   <g id="patch_2">
    <path d="M 0 322.966197 
L 1152 322.966197 
L 1152 0 
L 0 0 
z
" style="fill: #212830"/>
   </g>
   <g id="patch_3">
    <path d="M 1099.636364 42.246009 
L 1083.008234 39.834724 
L 1061.450799 36.881928 
L 1039.863723 34.096193 
L 1018.262917 31.484863 
L 996.657259 29.057128 
L 975.04594 26.82094 
L 953.425387 24.776572 
L 931.800786 22.918619 
L 910.185669 21.242057 
L 888.591845 19.749298 
L 867.026782 18.444852 
L 845.498577 17.333161 
L 824.012847 16.417587 
L 802.570606 15.698812 
L 781.174941 15.171726 
L 759.842444 14.831072 
L 738.593666 14.680282 
L 717.436043 14.730665 
L 696.367707 14.987635 
L 675.392252 15.446863 
L 654.522672 16.102065 
L 633.772184 16.950119 
L 613.158952 17.988927 
L 592.708362 19.223629 
L 572.434399 20.669323 
L 552.332107 22.337147 
L 532.397588 24.219345 
L 512.648276 26.298233 
L 493.116295 28.563418 
L 473.834926 31.018285 
L 454.835684 33.672796 
L 436.13638 36.539649 
L 417.73772 39.618934 
L 399.650885 42.885145 
L 381.923816 46.303238 
L 364.620176 49.859141 
L 347.788383 53.56008 
L 331.452075 57.414469 
L 315.615231 61.414227 
L 300.282765 65.523511 
L 285.489971 69.687294 
L 271.295644 73.870695 
L 257.734 78.078282 
L 244.792419 82.322155 
L 232.438712 86.589739 
L 220.650778 90.852056 
L 209.417072 95.086144 
L 198.728472 99.280049 
L 188.572453 103.428762 
L 178.932205 107.534486 
L 169.782428 111.608439 
L 161.089404 115.661827 
L 152.819436 119.696987 
L 144.947081 123.70686 
L 137.459445 127.682793 
L 130.349358 131.625398 
L 123.605782 135.544366 
L 117.210387 139.448705 
L 111.145267 143.333759 
L 105.399462 147.188659 
L 99.964099 151.006492 
L 94.828451 154.788634 
L 89.985698 158.534856 
L 85.439582 162.246579 
L 81.199527 165.927012 
L 77.271427 169.584582 
L 73.653738 173.224958 
L 70.33899 176.847701 
L 67.309858 180.456579 
L 64.544932 184.047882 
L 62.03605 187.596659 
L 59.802012 191.060901 
L 57.871493 194.424602 
L 56.25399 197.716494 
L 54.934994 200.973744 
L 53.894046 204.197364 
L 53.13845 207.216654 
L 52.616355 210.313942 
L 52.363636 213.801305 
L 52.410673 216.547649 
L 52.742576 219.484151 
L 53.388613 222.335903 
L 54.383662 225.13054 
L 55.75448 227.900351 
L 57.497816 230.651202 
L 59.588387 233.361116 
L 62.016465 236.006209 
L 64.800786 238.577893 
L 67.965742 241.078711 
L 71.514379 243.509574 
L 75.43892 245.86683 
L 79.739933 248.149374 
L 84.428032 250.364325 
L 89.505944 252.522314 
L 94.971331 254.629479 
L 100.823355 256.686502 
L 107.069306 258.692172 
L 113.718679 260.648293 
L 120.784065 262.559062 
L 128.28311 264.431055 
L 136.232568 266.272929 
L 144.649029 268.088694 
L 153.555793 269.876046 
L 162.990283 271.632561 
L 172.993743 273.363426 
L 183.604027 275.076477 
L 194.858075 276.774014 
L 206.803112 278.452334 
L 219.492122 280.109339 
L 232.972158 281.748009 
L 247.278552 283.368253 
L 262.438656 284.960821 
L 278.470611 286.514028 
L 295.373725 288.020753 
L 313.119114 289.473661 
L 331.659003 290.858545 
L 350.940051 292.164804 
L 370.894624 293.391402 
L 391.443383 294.534333 
L 434.074312 296.554544 
L 462.670687 297.675416 
L 462.593845 299.828379 
L 501.047378 301.109273 
L 547.37321 302.404964 
L 594.384986 303.459336 
L 642.227524 304.227089 
L 739.817187 305.605083 
L 813.908732 306.295632 
L 938.908324 307.318973 
L 1013.89849 307.746056 
L 1099.636364 308.285915 
L 1099.636364 42.246009 
L 1099.636364 42.246009 
" clip-path="url(#pcf9bfd7f51)" style="fill: none; stroke: #ff0000; stroke-width: 0.72; stroke-linejoin: miter"/>
   </g>
   <g id="patch_4">
    <path d="M 639.634687 244.176568 
L 650.406355 244.176568 
L 650.406355 254.948236 
L 639.634687 254.948236 
L 639.634687 265.719904 
L 650.406355 265.719904 
" clip-path="url(#pcf9bfd7f51)" style="fill: none; stroke: #ff0000; stroke-width: 0.72; stroke-linejoin: miter"/>
   </g>
   <g id="patch_5">
    <path d="M 666.563857 244.176568 
L 662.25519 244.176568 
" clip-path="url(#pcf9bfd7f51)" style="fill: none; stroke: #ff0000; stroke-width: 0.72; stroke-linejoin: miter"/>
   </g>
   <g id="patch_6">
    <path d="M 660.100857 244.176568 
L 655.792189 244.176568 
L 655.792189 265.719904 
L 660.100857 265.719904 
" clip-path="url(#pcf9bfd7f51)" style="fill: none; stroke: #ff0000; stroke-width: 0.72; stroke-linejoin: miter"/>
   </g>
   <g id="patch_7">
    <path d="M 662.25519 265.719904 
L 666.563857 265.719904 
L 666.563857 254.948236 
L 662.25519 254.948236 
" clip-path="url(#pcf9bfd7f51)" style="fill: none; stroke: #ff0000; stroke-width: 0.72; stroke-linejoin: miter"/>
   </g>
   <g id="patch_8">
    <path d="M 660.100857 254.948236 
L 655.792189 254.948236 
" clip-path="url(#pcf9bfd7f51)" style="fill: none; stroke: #ff0000; stroke-width: 0.72; stroke-linejoin: miter"/>
   </g>
   <g id="patch_9">
    <path d="M 632.647861 25.635062 
L 624.041451 26.06885 
L 623.607663 17.462441 
L 632.214072 17.028653 
L 632.647861 25.635062 
" clip-path="url(#pcf9bfd7f51)" style="fill: none; stroke: #ff0000; stroke-width: 0.72; stroke-linejoin: miter"/>
   </g>
   <g id="patch_10">
    <path d="M 275.463272 81.600165 
L 267.233033 84.153913 
L 264.679285 75.923675 
L 272.909524 73.369927 
L 275.463272 81.600165 
" clip-path="url(#pcf9bfd7f51)" style="fill: none; stroke: #ff0000; stroke-width: 0.72; stroke-linejoin: miter"/>
   </g>
   <g id="patch_11">
    <path d="M 94.608215 168.667592 
L 91.271363 171.393401 
L 84.45684 163.051272 
L 87.793692 160.325463 
L 94.608215 168.667592 
" clip-path="url(#pcf9bfd7f51)" style="fill: none; stroke: #ff0000; stroke-width: 0.72; stroke-linejoin: miter"/>
   </g>
   <g id="patch_12">
    <path d="M 74.179466 232.278347 
L 77.73733 234.708619 
L 71.661649 243.603277 
L 68.103786 241.173005 
L 74.179466 232.278347 
" clip-path="url(#pcf9bfd7f51)" style="fill: none; stroke: #ff0000; stroke-width: 0.72; stroke-linejoin: miter"/>
   </g>
   <g id="patch_13">
    <path d="M 354.545067 283.752794 
L 363.146168 284.281476 
L 362.617486 292.882578 
L 354.016385 292.353896 
L 354.545067 283.752794 
" clip-path="url(#pcf9bfd7f51)" style="fill: none; stroke: #ff0000; stroke-width: 0.72; stroke-linejoin: miter"/>
   </g>
   <g id="patch_14">
    <path d="M 964.574055 161.174069 
L 964.471757 156.001946 
L 964.165041 150.838958 
L 963.654449 145.694223 
L 962.940884 140.576827 
L 962.025606 135.495807 
L 960.910231 130.460138 
L 959.596728 125.478712 
L 958.087419 120.560328 
L 956.384967 115.713671 
L 954.492381 110.947301 
L 952.413002 106.269637 
L 950.150502 101.688938 
L 947.708879 97.213296 
L 945.092443 92.850615 
L 942.305815 88.608599 
L 939.353918 84.494741 
L 936.241964 80.516305 
L 932.97545 76.680318 
L 929.560143 72.993555 
L 926.002077 69.462527 
L 922.307535 66.093471 
L 918.483041 62.892335 
L 914.535351 59.864774 
L 910.471436 57.016134 
L 906.298474 54.351447 
L 902.023834 51.875419 
L 897.655065 49.592422 
L 893.199884 47.506488 
L 888.666159 45.621302 
L 884.061896 43.940193 
L 879.395227 42.46613 
L 874.674395 41.201716 
L 869.907735 40.149184 
L 865.103668 39.310394 
L 860.270677 38.686826 
L 855.417297 38.279581 
L 850.5521 38.08938 
L 845.683679 38.116558 
L 840.820632 38.361066 
L 835.971547 38.822474 
L 831.144988 39.499966 
L 826.349479 40.392345 
L 821.593491 41.498037 
L 816.885421 42.815087 
L 812.233585 44.34117 
L 807.646199 46.073591 
L 803.131364 48.00929 
L 798.697054 50.144848 
L 794.351101 52.476494 
L 790.101179 55.00011 
L 785.954795 57.71124 
L 781.919271 60.605094 
L 778.001735 63.676562 
L 774.209105 66.92022 
L 770.548079 70.330338 
L 767.025123 73.900896 
L 763.646459 77.625585 
L 760.418055 81.49783 
L 757.34561 85.510789 
L 754.434553 89.657377 
L 751.690024 93.93027 
L 749.11687 98.321922 
L 746.719635 102.824577 
L 744.502554 107.430282 
L 742.469541 112.130904 
L 740.624188 116.91814 
L 738.969754 121.783537 
L 737.509159 126.7185 
L 736.244985 131.714316 
L 735.179463 136.76216 
L 734.314475 141.853118 
L 733.651549 146.978198 
L 733.191857 152.12835 
L 732.936208 157.294477 
L 732.885056 162.467456 
L 733.03849 167.638151 
L 733.39624 172.797429 
L 733.957673 177.93618 
L 734.721798 183.045327 
L 735.687266 188.115848 
L 736.852372 193.138786 
L 738.215057 198.105273 
L 739.772916 203.006535 
L 741.523196 207.833917 
L 743.462807 212.578894 
L 745.588323 217.233085 
L 747.89599 221.78827 
L 750.381734 226.236406 
L 753.041163 230.569635 
L 755.86958 234.780305 
L 758.861992 238.86098 
L 762.013112 242.804453 
L 765.317376 246.603758 
L 768.768948 250.252187 
L 772.361732 253.743296 
L 776.089383 257.070919 
L 779.945317 260.229179 
L 783.922725 263.212499 
L 788.014583 266.01561 
L 792.213663 268.633561 
L 796.51255 271.061728 
L 800.903651 273.295823 
L 805.379211 275.331902 
L 809.931327 277.166366 
L 814.551958 278.795978 
L 819.232944 280.217859 
L 823.966018 281.429497 
L 828.742822 282.428753 
L 833.554918 283.213862 
L 838.393808 283.783438 
L 843.250947 284.136474 
L 848.117755 284.272347 
L 852.985639 284.190817 
L 857.846 283.892028 
L 862.690255 283.376508 
L 867.509849 282.645167 
L 872.296269 281.699297 
L 877.041063 280.540569 
L 881.73585 279.171028 
L 886.372339 277.593093 
L 890.942342 275.809552 
L 895.437788 273.823554 
L 899.850737 271.638606 
L 904.173396 269.258568 
L 908.39813 266.687643 
L 912.517478 263.93037 
L 916.524165 260.991621 
L 920.411115 257.876585 
L 924.171463 254.590763 
L 927.798568 251.139959 
L 931.286024 247.530267 
L 934.627673 243.768061 
L 937.817611 239.859987 
L 940.850206 235.812947 
L 943.720102 231.634087 
L 946.422231 227.330788 
L 948.951819 222.91065 
L 951.3044 218.38148 
L 953.475818 213.751277 
L 955.46224 209.028217 
L 957.260156 204.220642 
L 958.866391 199.337043 
L 960.278109 194.386045 
L 961.492816 189.376391 
L 962.508367 184.31693 
L 963.322968 179.216596 
L 963.935181 174.084397 
L 964.343925 168.929397 
L 964.548478 163.760701 
L 964.574055 161.174069 
L 964.574055 161.174069 
" clip-path="url(#pcf9bfd7f51)" style="fill: none; stroke: #ff0000; stroke-width: 0.72; stroke-linejoin: miter"/>
   </g>
   <g id="patch_15">
    <path d="M 397.183352 150.402401 
L 407.95502 161.174069 
L 397.183352 171.945737 
L 386.411684 161.174069 
L 397.183352 150.402401 
" clip-path="url(#pcf9bfd7f51)" style="fill: none; stroke: #ff0000; stroke-width: 0.72; stroke-linejoin: miter"/>
   </g>
   <g id="patch_16">
    <path d="M 841.823839 150.402401 
L 852.595507 161.174069 
L 841.823839 171.945737 
L 831.052171 161.174069 
L 841.823839 150.402401 
" clip-path="url(#pcf9bfd7f51)" style="fill: none; stroke: #ff0000; stroke-width: 0.72; stroke-linejoin: miter"/>
   </g>
   <g id="patch_17">
    <path d="M 478.000872 226.630545 
L 488.056092 238.073893 
L 476.612743 248.129113 
L 466.557524 236.685765 
L 478.000872 226.630545 
" clip-path="url(#pcf9bfd7f51)" style="fill: none; stroke: #ff0000; stroke-width: 0.72; stroke-linejoin: miter"/>
   </g>
   <g id="patch_18">
    <path d="M 991.322209 259.774886 
L 1001.377429 271.218234 
L 989.934081 281.273454 
L 979.878861 269.830106 
L 991.322209 259.774886 
" clip-path="url(#pcf9bfd7f51)" style="fill: none; stroke: #ff0000; stroke-width: 0.72; stroke-linejoin: miter"/>
   </g>
   <g id="patch_19">
    <path d="M 514.804651 200.707837 
L 525.576319 189.936169 
L 536.347987 200.707837 
L 525.576319 211.479505 
L 514.804651 200.707837 
" clip-path="url(#pcf9bfd7f51)" style="fill: none; stroke: #ff0000; stroke-width: 0.72; stroke-linejoin: miter"/>
   </g>
   <g id="patch_20">
    <path d="M 514.804651 126.04601 
L 525.576319 115.274342 
L 536.347987 126.04601 
L 525.576319 136.817678 
L 514.804651 126.04601 
" clip-path="url(#pcf9bfd7f51)" style="fill: none; stroke: #ff0000; stroke-width: 0.72; stroke-linejoin: miter"/>
   </g>
   <g id="line2d_1">
    <path d="M 86.753192 161.174069 
L 1099.636364 161.174069 
" clip-path="url(#pcf9bfd7f51)" style="fill: none; stroke: #ffffff; stroke-width: 0.72; stroke-linecap: square"/>
   </g>
   <g id="line2d_2">
    <path d="M 384.25735 161.174069 
L 410.109354 161.174069 
" clip-path="url(#pcf9bfd7f51)" style="fill: none; stroke: #ffffff; stroke-width: 0.72; stroke-linecap: square"/>
   </g>
   <g id="line2d_3">
    <path d="M 828.897838 161.174069 
L 854.749841 161.174069 
" clip-path="url(#pcf9bfd7f51)" style="fill: none; stroke: #ffffff; stroke-width: 0.72; stroke-linecap: square"/>
   </g>
   <g id="line2d_4">
    <path d="M 52.675668 209.962072 
L 1099.636364 277.562657 
" clip-path="url(#pcf9bfd7f51)" style="fill: none; stroke: #ffffff; stroke-width: 0.72; stroke-linecap: square"/>
   </g>
   <g id="line2d_5">
    <path d="M 464.407667 236.546952 
L 490.205948 238.212706 
" clip-path="url(#pcf9bfd7f51)" style="fill: none; stroke: #ffffff; stroke-width: 0.72; stroke-linecap: square"/>
   </g>
   <g id="line2d_6">
    <path d="M 977.729004 269.691293 
L 1003.527286 271.357047 
" clip-path="url(#pcf9bfd7f51)" style="fill: none; stroke: #ffffff; stroke-width: 0.72; stroke-linecap: square"/>
   </g>
   <g id="line2d_7">
    <path d="M 848.726358 38.074092 
L 848.726358 35.919758 
" clip-path="url(#pcf9bfd7f51)" style="fill: none; stroke: #ff0000; stroke-width: 0.72; stroke-linecap: square"/>
   </g>
   <g id="line2d_8">
    <path d="M 848.726358 284.274046 
L 848.726358 286.428379 
" clip-path="url(#pcf9bfd7f51)" style="fill: none; stroke: #ff0000; stroke-width: 0.72; stroke-linecap: square"/>
   </g>
   <g id="line2d_9">
    <path d="M 964.574055 161.174069 
L 966.728389 161.174069 
" clip-path="url(#pcf9bfd7f51)" style="fill: none; stroke: #ff0000; stroke-width: 0.72; stroke-linecap: square"/>
   </g>
   <g id="line2d_10">
    <path d="M 732.878661 161.174069 
L 730.724328 161.174069 
" clip-path="url(#pcf9bfd7f51)" style="fill: none; stroke: #ff0000; stroke-width: 0.72; stroke-linecap: square"/>
   </g>
   <g id="line2d_11">
    <path d="M 525.576319 301.81647 
L 525.576319 24.937378 
" clip-path="url(#pcf9bfd7f51)" style="fill: none; stroke: #ffffff; stroke-width: 0.72; stroke-linecap: square"/>
   </g>
   <g id="line2d_12">
    <path d="M 525.576319 213.633838 
L 525.576319 187.781835 
" clip-path="url(#pcf9bfd7f51)" style="fill: none; stroke: #ffffff; stroke-width: 0.72; stroke-linecap: square"/>
   </g>
   <g id="line2d_13">
    <path d="M 525.576319 138.972012 
L 525.576319 113.120009 
" clip-path="url(#pcf9bfd7f51)" style="fill: none; stroke: #ffffff; stroke-width: 0.72; stroke-linecap: square"/>
   </g>
  </g>
 </g>
 <defs>
  <clipPath id="pcf9bfd7f51">
   <rect x="0" y="0" width="1152" height="322.966197"/>
  </clipPath>
 </defs>
</svg>
