<?xml version="1.0" encoding="utf-8" standalone="no"?>
<!DOCTYPE svg PUBLIC "-//W3C//DTD SVG 1.1//EN"
  "http://www.w3.org/Graphics/SVG/1.1/DTD/svg11.dtd">
<svg xmlns:xlink="http://www.w3.org/1999/xlink" width="1152pt" height="321.375004pt" viewBox="0 0 1152 321.375004" xmlns="http://www.w3.org/2000/svg" version="1.1">
 <metadata>
  <rdf:RDF xmlns:dc="http://purl.org/dc/elements/1.1/" xmlns:cc="http://creativecommons.org/ns#" xmlns:rdf="http://www.w3.org/1999/02/22-rdf-syntax-ns#">
   <cc:Work>
    <dc:type rdf:resource="http://purl.org/dc/dcmitype/StillImage"/>
    <dc:date>2026-01-07T02:07:14.018114</dc:date>
    <dc:format>image/svg+xml</dc:format>
    <dc:creator>
     <cc:Agent>
      <dc:title>Matplotlib v3.10.1, https://matplotlib.org/</dc:title>
     </cc:Agent>
    </dc:creator>
   </cc:Work>
  </rdf:RDF>
 </metadata>
 <defs>
  <style type="text/css">*{stroke-linejoin: round; stroke-linecap: butt}</style>
 </defs>
 <g id="figure_1">
  <g id="patch_1">
   <path d="M 0 321.375004 
L 1152 321.375004 
L 1152 0 
L 0 0 
z
" style="fill: #ffffff"/>
  </g>
  <g id="axes_1">
   <g id="patch_2">
    <path d="M 0 321.375004 
L 1152 321.375004 
L 1152 0 
L 0 0 
z
" style="fill: #212830"/>
   </g>
   <g id="patch_3">
    <path d="M 1099.636362 266.072347 
L 1099.636364 40.949346 
L 1080.471724 38.289269 
L 1059.532374 35.559647 
L 1038.555717 32.998567 
L 1017.545798 30.601314 
L 996.512112 28.368518 
L 975.457153 26.303043 
L 954.378287 24.404497 
L 933.281029 22.668649 
L 912.180067 21.095612 
L 891.084772 19.689955 
L 869.995276 18.454412 
L 848.915362 17.386292 
L 827.858705 16.486035 
L 806.835917 15.757861 
L 785.846843 15.206608 
L 764.8928 14.830677 
L 743.98649 14.629571 
L 723.139057 14.607955 
L 702.352391 14.771025 
L 681.627052 15.118611 
L 660.976023 15.649772 
L 640.412957 16.368886 
L 619.940147 17.282266 
L 599.560886 18.389912 
L 579.289603 19.690699 
L 559.142525 21.189577 
L 539.123138 22.89322 
L 519.238177 24.800312 
L 499.507669 26.909989 
L 479.947289 29.228729 
L 460.562942 31.761074 
L 441.369089 34.503724 
L 422.390074 37.457186 
L 403.641724 40.626316 
L 385.137628 44.00758 
L 366.915985 47.587173 
L 349.022893 51.362978 
L 331.486563 55.337277 
L 314.338038 59.495787 
L 297.632968 63.818231 
L 281.421429 68.297494 
L 265.738378 72.919727 
L 250.631397 77.65155 
L 236.158921 82.463351 
L 222.360813 87.336697 
L 209.263199 92.239386 
L 196.89605 97.130702 
L 185.279676 101.984151 
L 174.410695 106.780732 
L 164.273942 111.493186 
L 154.852224 116.097175 
L 146.119353 120.584146 
L 138.036399 124.95376 
L 130.5581 129.201565 
L 123.642472 133.320506 
L 117.251271 137.311779 
L 111.345114 141.184365 
L 105.884727 144.947254 
L 100.832377 148.606266 
L 96.15693 152.163699 
L 91.832909 155.626626 
L 87.837 159.007452 
L 84.141271 162.322324 
L 80.714638 165.576482 
L 74.552396 171.882264 
L 69.209506 177.847971 
L 66.845918 180.70388 
L 64.694475 183.495996 
L 62.754104 186.246683 
L 61.013658 188.976889 
L 59.456634 191.69158 
L 58.064591 194.386748 
L 56.824627 197.046414 
L 55.731086 199.658572 
L 54.785658 202.21317 
L 53.993894 204.709561 
L 53.360521 207.154853 
L 52.886318 209.556139 
L 52.567365 211.918834 
L 52.387934 214.433026 
L 52.363636 216.572775 
L 52.480216 218.915462 
L 52.76017 221.250532 
L 53.224219 223.567202 
L 53.897865 225.865729 
L 54.802438 228.149663 
L 55.945609 230.417726 
L 57.320046 232.662571 
L 58.91034 234.871677 
L 60.706223 237.033029 
L 62.706689 239.136794 
L 64.920742 241.178228 
L 67.357273 243.157011 
L 70.021644 245.07762 
L 72.910913 246.946416 
L 76.022917 248.770396 
L 79.355952 250.553373 
L 82.920048 252.296823 
L 86.729834 254.001344 
L 90.808584 255.66892 
L 95.179515 257.306082 
L 99.866179 258.922939 
L 104.894562 260.530639 
L 116.096014 263.753501 
L 122.350475 265.376461 
L 129.109812 267.010459 
L 136.432433 268.660504 
L 144.382519 270.331459 
L 153.028243 272.025277 
L 162.446149 273.738871 
L 172.718366 275.466984 
L 183.92399 277.2073 
L 196.129498 278.9559 
L 209.385136 280.699599 
L 223.723755 282.419413 
L 239.151935 284.100852 
L 255.633843 285.731824 
L 273.101293 287.291149 
L 291.475721 288.760965 
L 310.659573 290.136172 
L 330.539232 291.409416 
L 351.022187 292.571973 
L 372.029846 293.628171 
L 393.48249 294.582945 
L 437.575167 296.197115 
L 462.524739 296.988872 
L 462.415849 300.559652 
L 505.588711 301.816264 
L 551.525564 302.807051 
L 668.720261 304.736817 
L 715.779769 305.275244 
L 881.163716 306.767049 
L 1099.636362 266.072347 
L 1099.636362 266.072347 
" clip-path="url(#p66d78f7f3b)" style="fill: none; stroke: #ff0000; stroke-width: 0.72; stroke-linejoin: miter"/>
   </g>
   <g id="patch_4">
    <path d="M 639.525218 241.095152 
L 651.43335 241.095152 
L 651.43335 253.003283 
L 639.525218 253.003283 
L 651.43335 253.003283 
L 651.43335 264.911415 
L 639.525218 264.911415 
" clip-path="url(#p66d78f7f3b)" style="fill: none; stroke: #ff0000; stroke-width: 0.72; stroke-linejoin: miter"/>
   </g>
   <g id="patch_5">
    <path d="M 657.387415 241.095152 
L 657.387415 253.003283 
L 669.295547 253.003283 
L 669.295547 241.095152 
L 669.295547 264.911415 
" clip-path="url(#p66d78f7f3b)" style="fill: none; stroke: #ff0000; stroke-width: 0.72; stroke-linejoin: miter"/>
   </g>
   <g id="patch_6">
    <path d="M 632.931149 26.238728 
L 623.414115 26.663403 
L 622.98944 17.146368 
L 632.506475 16.721694 
L 632.931149 26.238728 
" clip-path="url(#p66d78f7f3b)" style="fill: none; stroke: #ff0000; stroke-width: 0.72; stroke-linejoin: miter"/>
   </g>
   <g id="patch_7">
    <path d="M 276.033606 79.817359 
L 266.895801 82.510836 
L 264.202324 73.373031 
L 273.340129 70.679554 
L 276.033606 79.817359 
" clip-path="url(#p66d78f7f3b)" style="fill: none; stroke: #ff0000; stroke-width: 0.72; stroke-linejoin: miter"/>
   </g>
   <g id="patch_8">
    <path d="M 96.002148 167.680091 
L 92.457196 170.861583 
L 84.503465 161.999205 
L 88.048416 158.817712 
L 96.002148 167.680091 
" clip-path="url(#p66d78f7f3b)" style="fill: none; stroke: #ff0000; stroke-width: 0.72; stroke-linejoin: miter"/>
   </g>
   <g id="patch_9">
    <path d="M 74.724163 233.787066 
L 78.591946 236.567144 
L 71.641752 246.236601 
L 67.773969 243.456523 
L 74.724163 233.787066 
" clip-path="url(#p66d78f7f3b)" style="fill: none; stroke: #ff0000; stroke-width: 0.72; stroke-linejoin: miter"/>
   </g>
   <g id="patch_10">
    <path d="M 353.791008 283.172636 
L 363.305497 283.650968 
L 362.827166 293.165457 
L 353.312677 292.687125 
L 353.791008 283.172636 
" clip-path="url(#p66d78f7f3b)" style="fill: none; stroke: #ff0000; stroke-width: 0.72; stroke-linejoin: miter"/>
   </g>
   <g id="patch_11">
    <path d="M 962.167033 160.3407 
L 962.066807 155.280237 
L 961.766306 150.228711 
L 961.26606 145.195044 
L 960.566953 140.188125 
L 959.67022 135.216798 
L 958.577445 130.289842 
L 957.290557 125.415958 
L 955.811829 120.603755 
L 954.143872 115.861731 
L 952.289634 111.198261 
L 950.252387 106.621581 
L 948.035731 102.139774 
L 945.643579 97.760755 
L 943.080158 93.492258 
L 940.349993 89.341821 
L 937.457907 85.316776 
L 934.409008 81.424229 
L 931.20868 77.671056 
L 927.862574 74.063886 
L 924.376602 70.609088 
L 920.756919 67.312764 
L 917.009917 64.180737 
L 913.142215 61.218537 
L 909.160644 58.431395 
L 905.072234 55.824235 
L 900.884207 53.401661 
L 896.603959 51.167951 
L 892.239049 49.12705 
L 887.797186 47.282563 
L 883.286215 45.637747 
L 878.714103 44.195506 
L 874.088924 42.958389 
L 869.418847 41.92858 
L 864.71212 41.107898 
L 859.977054 40.497792 
L 855.222014 40.09934 
L 850.455396 39.913244 
L 845.68562 39.939835 
L 840.921108 40.179065 
L 836.170275 40.630512 
L 831.441512 41.293377 
L 826.74317 42.166492 
L 822.083548 43.248313 
L 817.470873 44.53693 
L 812.913293 46.030067 
L 808.418857 47.725087 
L 803.995502 49.618996 
L 799.65104 51.708451 
L 795.393145 53.98976 
L 791.229335 56.458895 
L 787.166965 59.111494 
L 783.213209 61.942874 
L 779.37505 64.948033 
L 775.659267 68.121665 
L 772.072421 71.458164 
L 768.620847 74.951638 
L 765.310642 78.595916 
L 762.147652 82.384564 
L 759.137461 86.310889 
L 756.285388 90.367958 
L 753.596469 94.548605 
L 751.075452 98.845447 
L 748.72679 103.250895 
L 746.554631 107.757169 
L 744.562812 112.356311 
L 742.75485 117.040197 
L 741.133937 121.800556 
L 739.702937 126.628981 
L 738.464378 131.516944 
L 737.420445 136.455812 
L 736.572984 141.436863 
L 735.923491 146.451299 
L 735.473112 151.490266 
L 735.222644 156.544864 
L 735.172528 161.606165 
L 735.322853 166.665231 
L 735.673354 171.713128 
L 736.223412 176.74094 
L 736.972054 181.739787 
L 737.91796 186.700842 
L 739.059458 191.615342 
L 740.394532 196.474609 
L 741.920825 201.270059 
L 743.635641 205.993225 
L 745.535952 210.635764 
L 747.618401 215.189477 
L 749.87931 219.646322 
L 752.314687 223.998429 
L 754.92023 228.238109 
L 757.691339 232.357877 
L 760.623118 236.350455 
L 763.71039 240.208793 
L 766.947702 243.926077 
L 770.329338 247.495742 
L 773.849325 250.911482 
L 777.501446 254.167266 
L 781.279252 257.257344 
L 785.176069 260.176258 
L 789.185017 262.918853 
L 793.299015 265.480286 
L 797.510798 267.856032 
L 801.812926 270.041897 
L 806.197803 272.034018 
L 810.657683 273.82888 
L 815.184691 275.42331 
L 819.77083 276.814494 
L 824.408003 277.999975 
L 829.088019 278.977659 
L 833.802612 279.745818 
L 838.543456 280.303097 
L 843.302179 280.648512 
L 848.070376 280.781452 
L 852.839627 280.701682 
L 857.601507 280.409343 
L 862.347608 279.904953 
L 867.069546 279.189401 
L 871.758984 278.263951 
L 876.407638 277.130237 
L 881.007299 275.790263 
L 885.549844 274.246394 
L 890.027249 272.501357 
L 894.431608 270.558234 
L 898.755142 268.420456 
L 902.990214 266.0918 
L 907.129347 263.576377 
L 911.165228 260.878631 
L 915.090732 258.003326 
L 918.898924 254.955539 
L 922.58308 251.740654 
L 926.136692 248.364347 
L 929.553486 244.832583 
L 932.827425 241.151599 
L 935.952729 237.327895 
L 938.923878 233.368225 
L 941.735624 229.279581 
L 944.383001 225.069185 
L 946.861335 220.744472 
L 949.166248 216.31308 
L 951.293669 211.782837 
L 953.239841 207.161741 
L 955.001328 202.457956 
L 956.575017 197.679787 
L 957.958131 192.835674 
L 959.148225 187.934172 
L 960.143199 182.983938 
L 960.941295 177.993713 
L 961.541104 172.972311 
L 961.941566 167.928601 
L 962.141974 162.87149 
L 962.167033 160.3407 
L 962.167033 160.3407 
" clip-path="url(#p66d78f7f3b)" style="fill: none; stroke: #ff0000; stroke-width: 0.72; stroke-linejoin: miter"/>
   </g>
   <g id="patch_12">
    <path d="M 397.886417 148.432568 
L 409.794549 160.3407 
L 397.886417 172.248831 
L 385.978286 160.3407 
L 397.886417 148.432568 
" clip-path="url(#p66d78f7f3b)" style="fill: none; stroke: #ff0000; stroke-width: 0.72; stroke-linejoin: miter"/>
   </g>
   <g id="patch_13">
    <path d="M 841.96933 148.432568 
L 853.877462 160.3407 
L 841.96933 172.248831 
L 830.061199 160.3407 
L 841.96933 148.432568 
" clip-path="url(#p66d78f7f3b)" style="fill: none; stroke: #ff0000; stroke-width: 0.72; stroke-linejoin: miter"/>
   </g>
   <g id="patch_14">
    <path d="M 261.057044 213.89836 
L 272.176311 226.546249 
L 259.528422 237.665516 
L 248.409155 225.017627 
L 261.057044 213.89836 
" clip-path="url(#p66d78f7f3b)" style="fill: none; stroke: #ff0000; stroke-width: 0.72; stroke-linejoin: miter"/>
   </g>
   <g id="patch_15">
    <path d="M 501.4476 229.359459 
L 512.566867 242.007348 
L 499.918978 253.126614 
L 488.799711 240.478725 
L 501.4476 229.359459 
" clip-path="url(#p66d78f7f3b)" style="fill: none; stroke: #ff0000; stroke-width: 0.72; stroke-linejoin: miter"/>
   </g>
   <g id="patch_16">
    <path d="M 479.514574 201.033743 
L 491.422705 189.125611 
L 503.330836 201.033743 
L 491.422705 212.941874 
L 479.514574 201.033743 
" clip-path="url(#p66d78f7f3b)" style="fill: none; stroke: #ff0000; stroke-width: 0.72; stroke-linejoin: miter"/>
   </g>
   <g id="patch_17">
    <path d="M 479.514574 128.256157 
L 491.422705 116.348025 
L 503.330836 128.256157 
L 491.422705 140.164288 
L 479.514574 128.256157 
" clip-path="url(#p66d78f7f3b)" style="fill: none; stroke: #ff0000; stroke-width: 0.72; stroke-linejoin: miter"/>
   </g>
   <g id="line2d_1">
    <path d="M 86.350571 160.3407 
L 1099.636364 160.3407 
" clip-path="url(#p66d78f7f3b)" style="fill: none; stroke: #ffffff; stroke-width: 0.72; stroke-linecap: square"/>
   </g>
   <g id="line2d_2">
    <path d="M 383.59666 160.3407 
L 412.176175 160.3407 
" clip-path="url(#p66d78f7f3b)" style="fill: none; stroke: #ffffff; stroke-width: 0.72; stroke-linecap: square"/>
   </g>
   <g id="line2d_3">
    <path d="M 827.679573 160.3407 
L 856.259088 160.3407 
" clip-path="url(#p66d78f7f3b)" style="fill: none; stroke: #ffffff; stroke-width: 0.72; stroke-linecap: square"/>
   </g>
   <g id="line2d_4">
    <path d="M 52.531637 212.419454 
L 1044.991164 276.251058 
" clip-path="url(#p66d78f7f3b)" style="fill: none; stroke: #ffffff; stroke-width: 0.72; stroke-linecap: square"/>
   </g>
   <g id="line2d_5">
    <path d="M 246.03244 224.864764 
L 274.553027 226.699111 
" clip-path="url(#p66d78f7f3b)" style="fill: none; stroke: #ffffff; stroke-width: 0.72; stroke-linecap: square"/>
   </g>
   <g id="line2d_6">
    <path d="M 486.422996 240.325863 
L 514.943583 242.16021 
" clip-path="url(#p66d78f7f3b)" style="fill: none; stroke: #ffffff; stroke-width: 0.72; stroke-linecap: square"/>
   </g>
   <g id="line2d_7">
    <path d="M 848.666648 39.898286 
L 848.666648 37.51666 
" clip-path="url(#p66d78f7f3b)" style="fill: none; stroke: #ff0000; stroke-width: 0.72; stroke-linecap: square"/>
   </g>
   <g id="line2d_8">
    <path d="M 848.666648 280.783114 
L 848.666648 283.16474 
" clip-path="url(#p66d78f7f3b)" style="fill: none; stroke: #ff0000; stroke-width: 0.72; stroke-linecap: square"/>
   </g>
   <g id="line2d_9">
    <path d="M 962.167033 160.3407 
L 964.548659 160.3407 
" clip-path="url(#p66d78f7f3b)" style="fill: none; stroke: #ff0000; stroke-width: 0.72; stroke-linecap: square"/>
   </g>
   <g id="line2d_10">
    <path d="M 735.166263 160.3407 
L 732.784637 160.3407 
" clip-path="url(#p66d78f7f3b)" style="fill: none; stroke: #ff0000; stroke-width: 0.72; stroke-linecap: square"/>
   </g>
   <g id="line2d_11">
    <path d="M 491.422705 301.421497 
L 491.422705 27.868403 
" clip-path="url(#p66d78f7f3b)" style="fill: none; stroke: #ffffff; stroke-width: 0.72; stroke-linecap: square"/>
   </g>
   <g id="line2d_12">
    <path d="M 491.422705 215.3235 
L 491.422705 186.743985 
" clip-path="url(#p66d78f7f3b)" style="fill: none; stroke: #ffffff; stroke-width: 0.72; stroke-linecap: square"/>
   </g>
   <g id="line2d_13">
    <path d="M 491.422705 142.545915 
L 491.422705 113.966399 
" clip-path="url(#p66d78f7f3b)" style="fill: none; stroke: #ffffff; stroke-width: 0.72; stroke-linecap: square"/>
   </g>
  </g>
 </g>
 <defs>
  <clipPath id="p66d78f7f3b">
   <rect x="0" y="0" width="1152" height="321.375004"/>
  </clipPath>
 </defs>
</svg>
