  0
SECTION
  2
HEADER
  9
$ACADVER
  1
AC1021
  9
$ACADMAINTVER
 70
25
  9
$DWGCODEPAGE
  3
ANSI_1252
  9
$LASTSAVEDBY
  1
ezdxf
  9
$INSBASE
 10
0.0
 20
0.0
 30
0.0
  9
$EXTMIN
 10
1e+20
 20
1e+20
 30
1e+20
  9
$EXTMAX
 10
-1e+20
 20
-1e+20
 30
-1e+20
  9
$LIMMIN
 10
0.0
 20
0.0
  9
$LIMMAX
 10
420.0
 20
297.0
  9
$ORTHOMODE
 70
0
  9
$REGENMODE
 70
1
  9
$FILLMODE
 70
1
  9
$QTEXTMODE
 70
0
  9
$MIRRTEXT
 70
1
  9
$LTSCALE
 40
1.0
  9
$ATTMODE
 70
1
  9
$TEXTSIZE
 40
2.5
  9
$TRACEWID
 40
1.0
  9
$TEXTSTYLE
  7
OpenSans
  9
$CLAYER
  8
0
  9
$CELTYPE
  6
ByLayer
  9
$CECOLOR
 62
256
  9
$CELTSCALE
 40
1.0
  9
$DISPSILH
 70
0
  9
$DIMSCALE
 40
1.0
  9
$DIMASZ
 40
0.175
  9
$DIMEXO
 40
0.125
  9
$DIMDLI
 40
3.75
  9
$DIMRND
 40
0.0
  9
$DIMDLE
 40
0.0
  9
$DIMEXE
 40
0.375
  9
$DIMTP
 40
0.0
  9
$DIMTM
 40
0.0
  9
$DIMTXT
 40
0.25
  9
$DIMCEN
 40
2.5
  9
$DIMTSZ
 40
0.0
  9
$DIMTOL
 70
0
  9
$DIMLIM
 70
0
  9
$DIMTIH
 70
0
  9
$DIMTOH
 70
0
  9
$DIMSE1
 70
0
  9
$DIMSE2
 70
0
  9
$DIMTAD
 70
1
  9
$DIMZIN
 70
12
  9
$DIMBLK
  1
ARCHTICK
  9
$DIMASO
 70
1
  9
$DIMSHO
 70
1
  9
$DIMPOST
  1

  9
$DIMAPOST
  1

  9
$DIMALT
 70
0
  9
$DIMALTD
 70
3
  9
$DIMALTF
 40
0.03937007874
  9
$DIMLFAC
 40
100.0
  9
$DIMTOFL
 70
1
  9
$DIMTVP
 40
0.0
  9
$DIMTIX
 70
0
  9
$DIMSOXD
 70
0
  9
$DIMSAH
 70
0
  9
$DIMBLK1
  1

  9
$DIMBLK2
  1

  9
$DIMSTYLE
  2
EZDXF
  9
$DIMCLRD
 70
0
  9
$DIMCLRE
 70
0
  9
$DIMCLRT
 70
0
  9
$DIMTFAC
 40
0.5
  9
$DIMGAP
 40
0.1
  9
$DIMJUST
 70
0
  9
$DIMSD1
 70
0
  9
$DIMSD2
 70
0
  9
$DIMTOLJ
 70
0
  9
$DIMTZIN
 70
8
  9
$DIMALTZ
 70
0
  9
$DIMALTTZ
 70
0
  9
$DIMUPT
 70
1
  9
$DIMDEC
 70
2
  9
$DIMTDEC
 70
2
  9
$DIMALTU
 70
2
  9
$DIMALTTD
 70
3
  9
$DIMTXSTY
  7
OpenSansCondensed-Light
  9
$DIMAUNIT
 70
0
  9
$DIMADEC
 70
2
  9
$DIMALTRND
 40
0.0
  9
$DIMAZIN
 70
3
  9
$DIMDSEP
 70
46
  9
$DIMATFIT
 70
3
  9
$DIMFRAC
 70
0
  9
$DIMLDRBLK
  1

  9
$DIMLUNIT
 70
2
  9
$DIMLWD
 70
-2
  9
$DIMLWE
 70
-2
  9
$DIMTMOVE
 70
2
  9
$DIMFXL
 40
1.0
  9
$DIMFXLON
 70
0
  9
$DIMJOGANG
 40
0.785398163397
  9
$DIMTFILL
 70
0
  9
$DIMTFILLCLR
 70
0
  9
$DIMARCSYM
 70
0
  9
$DIMLTYPE
  6

  9
$DIMLTEX1
  6

  9
$DIMLTEX2
  6

  9
$LUNITS
 70
2
  9
$LUPREC
 70
4
  9
$SKETCHINC
 40
1.0
  9
$FILLETRAD
 40
10.0
  9
$AUNITS
 70
0
  9
$AUPREC
 70
2
  9
$MENU
  1
.
  9
$ELEVATION
 40
0.0
  9
$PELEVATION
 40
0.0
  9
$THICKNESS
 40
0.0
  9
$LIMCHECK
 70
0
  9
$CHAMFERA
 40
0.0
  9
$CHAMFERB
 40
0.0
  9
$CHAMFERC
 40
0.0
  9
$CHAMFERD
 40
0.0
  9
$SKPOLY
 70
0
  9
$TDCREATE
 40
2461048.088449074
  9
$TDUCREATE
 40
2458532.153996898
  9
$TDUPDATE
 40
2461048.088449074
  9
$TDUUPDATE
 40
2458532.1544311
  9
$TDINDWG
 40
0.0
  9
$TDUSRTIMER
 40
0.0
  9
$USRTIMER
 70
1
  9
$ANGBASE
 50
0.0
  9
$ANGDIR
 70
0
  9
$PDMODE
 70
0
  9
$PDSIZE
 40
0.0
  9
$PLINEWID
 40
0.0
  9
$SPLFRAME
 70
0
  9
$SPLINETYPE
 70
6
  9
$SPLINESEGS
 70
8
  9
$HANDSEED
  5
AF
  9
$SURFTAB1
 70
6
  9
$SURFTAB2
 70
6
  9
$SURFTYPE
 70
6
  9
$SURFU
 70
6
  9
$SURFV
 70
6
  9
$UCSBASE
  2

  9
$UCSNAME
  2

  9
$UCSORG
 10
0.0
 20
0.0
 30
0.0
  9
$UCSXDIR
 10
1.0
 20
0.0
 30
0.0
  9
$UCSYDIR
 10
0.0
 20
1.0
 30
0.0
  9
$UCSORTHOREF
  2

  9
$UCSORTHOVIEW
 70
0
  9
$UCSORGTOP
 10
0.0
 20
0.0
 30
0.0
  9
$UCSORGBOTTOM
 10
0.0
 20
0.0
 30
0.0
  9
$UCSORGLEFT
 10
0.0
 20
0.0
 30
0.0
  9
$UCSORGRIGHT
 10
0.0
 20
0.0
 30
0.0
  9
$UCSORGFRONT
 10
0.0
 20
0.0
 30
0.0
  9
$UCSORGBACK
 10
0.0
 20
0.0
 30
0.0
  9
$PUCSBASE
  2

  9
$PUCSNAME
  2

  9
$PUCSORG
 10
0.0
 20
0.0
 30
0.0
  9
$PUCSXDIR
 10
1.0
 20
0.0
 30
0.0
  9
$PUCSYDIR
 10
0.0
 20
1.0
 30
0.0
  9
$PUCSORTHOREF
  2

  9
$PUCSORTHOVIEW
 70
0
  9
$PUCSORGTOP
 10
0.0
 20
0.0
 30
0.0
  9
$PUCSORGBOTTOM
 10
0.0
 20
0.0
 30
0.0
  9
$PUCSORGLEFT
 10
0.0
 20
0.0
 30
0.0
  9
$PUCSORGRIGHT
 10
0.0
 20
0.0
 30
0.0
  9
$PUCSORGFRONT
 10
0.0
 20
0.0
 30
0.0
  9
$PUCSORGBACK
 10
0.0
 20
0.0
 30
0.0
  9
$USERI1
 70
0
  9
$USERI2
 70
0
  9
$USERI3
 70
0
  9
$USERI4
 70
0
  9
$USERI5
 70
0
  9
$USERR1
 40
0.0
  9
$USERR2
 40
0.0
  9
$USERR3
 40
0.0
  9
$USERR4
 40
0.0
  9
$USERR5
 40
0.0
  9
$WORLDVIEW
 70
1
  9
$SHADEDGE
 70
3
  9
$SHADEDIF
 70
70
  9
$TILEMODE
 70
1
  9
$MAXACTVP
 70
64
  9
$PINSBASE
 10
0.0
 20
0.0
 30
0.0
  9
$PLIMCHECK
 70
0
  9
$PEXTMIN
 10
1e+20
 20
1e+20
 30
1e+20
  9
$PEXTMAX
 10
-1e+20
 20
-1e+20
 30
-1e+20
  9
$PLIMMIN
 10
0.0
 20
0.0
  9
$PLIMMAX
 10
420.0
 20
297.0
  9
$UNITMODE
 70
0
  9
$VISRETAIN
 70
1
  9
$PLINEGEN
 70
0
  9
$PSLTSCALE
 70
1
  9
$TREEDEPTH
 70
3020
  9
$CMLSTYLE
  2
Standard
  9
$CMLJUST
 70
0
  9
$CMLSCALE
 40
20.0
  9
$PROXYGRAPHICS
 70
1
  9
$MEASUREMENT
 70
1
  9
$CELWEIGHT
370
-1
  9
$ENDCAPS
280
0
  9
$JOINSTYLE
280
0
  9
$LWDISPLAY
290
0
  9
$INSUNITS
 70
6
  9
$HYPERLINKBASE
  1

  9
$STYLESHEET
  1

  9
$XEDIT
290
1
  9
$CEPSNTYPE
380
0
  9
$PSTYLEMODE
290
1
  9
$FINGERPRINTGUID
  2
{B90F5AA8-F458-4929-A417-EFF19BCE58D7}
  9
$VERSIONGUID
  2
{9CB37FB9-A530-4976-B058-F16CE5826D80}
  9
$EXTNAMES
290
1
  9
$PSVPSCALE
 40
0.0
  9
$OLESTARTUP
290
0
  9
$SORTENTS
280
127
  9
$INDEXCTL
280
0
  9
$HIDETEXT
280
1
  9
$XCLIPFRAME
290
1
  9
$HALOGAP
280
0
  9
$OBSCOLOR
 70
257
  9
$OBSLTYPE
280
0
  9
$INTERSECTIONDISPLAY
280
0
  9
$INTERSECTIONCOLOR
 70
257
  9
$DIMASSOC
280
2
  9
$PROJECTNAME
  1

  9
$CAMERADISPLAY
290
0
  9
$LENSLENGTH
 40
50.0
  9
$CAMERAHEIGHT
 40
0.0
  9
$STEPSPERSEC
 40
24.0
  9
$STEPSIZE
 40
100.0
  9
$3DDWFPREC
 40
2.0
  9
$PSOLWIDTH
 40
0.005
  9
$PSOLHEIGHT
 40
0.08
  9
$LOFTANG1
 40
1.570796326795
  9
$LOFTANG2
 40
1.570796326795
  9
$LOFTMAG1
 40
0.0
  9
$LOFTMAG2
 40
0.0
  9
$LOFTPARAM
 70
7
  9
$LOFTNORMALS
280
1
  9
$LATITUDE
 40
37.795
  9
$LONGITUDE
 40
-122.394
  9
$NORTHDIRECTION
 40
0.0
  9
$TIMEZONE
 70
-8000
  9
$LIGHTGLYPHDISPLAY
280
1
  9
$TILEMODELIGHTSYNCH
280
1
  9
$CMATERIAL
347
20
  9
$SOLIDHIST
280
0
  9
$SHOWHIST
280
1
  9
$DWFFRAME
280
2
  9
$DGNFRAME
280
2
  9
$REALWORLDSCALE
290
1
  9
$INTERFERECOLOR
 62
256
  9
$CSHADOW
280
0
  9
$SHADOWPLANELOCATION
 40
0.0
  0
ENDSEC
  0
SECTION
  2
CLASSES
  0
CLASS
  1
ACDBDICTIONARYWDFLT
  2
AcDbDictionaryWithDefault
  3
ObjectDBX Classes
 90
0
 91
0
280
0
281
0
  0
CLASS
  1
SUN
  2
AcDbSun
  3
SCENEOE
 90
1153
 91
0
280
0
281
0
  0
CLASS
  1
VISUALSTYLE
  2
AcDbVisualStyle
  3
ObjectDBX Classes
 90
4095
 91
0
280
0
281
0
  0
CLASS
  1
MATERIAL
  2
AcDbMaterial
  3
ObjectDBX Classes
 90
1153
 91
0
280
0
281
0
  0
CLASS
  1
SCALE
  2
AcDbScale
  3
ObjectDBX Classes
 90
1153
 91
0
280
0
281
0
  0
CLASS
  1
TABLESTYLE
  2
AcDbTableStyle
  3
ObjectDBX Classes
 90
4095
 91
0
280
0
281
0
  0
CLASS
  1
MLEADERSTYLE
  2
AcDbMLeaderStyle
  3
ACDB_MLEADERSTYLE_CLASS
 90
4095
 91
0
280
0
281
0
  0
CLASS
  1
DICTIONARYVAR
  2
AcDbDictionaryVar
  3
ObjectDBX Classes
 90
0
 91
0
280
0
281
0
  0
CLASS
  1
CELLSTYLEMAP
  2
AcDbCellStyleMap
  3
ObjectDBX Classes
 90
1152
 91
0
280
0
281
0
  0
CLASS
  1
MENTALRAYRENDERSETTINGS
  2
AcDbMentalRayRenderSettings
  3
SCENEOE
 90
1024
 91
0
280
0
281
0
  0
CLASS
  1
ACDBDETAILVIEWSTYLE
  2
AcDbDetailViewStyle
  3
ObjectDBX Classes
 90
1025
 91
0
280
0
281
0
  0
CLASS
  1
ACDBSECTIONVIEWSTYLE
  2
AcDbSectionViewStyle
  3
ObjectDBX Classes
 90
1025
 91
0
280
0
281
0
  0
CLASS
  1
RASTERVARIABLES
  2
AcDbRasterVariables
  3
ISM
 90
0
 91
0
280
0
281
0
  0
CLASS
  1
ACDBPLACEHOLDER
  2
AcDbPlaceHolder
  3
ObjectDBX Classes
 90
0
 91
0
280
0
281
0
  0
CLASS
  1
LAYOUT
  2
AcDbLayout
  3
ObjectDBX Classes
 90
0
 91
0
280
0
281
0
  0
ENDSEC
  0
SECTION
  2
TABLES
  0
TABLE
  2
VPORT
  5
8
330
0
100
AcDbSymbolTable
 70
1
  0
VPORT
  5
23
330
8
100
AcDbSymbolTableRecord
100
AcDbViewportTableRecord
  2
*Active
 70
0
 10
0.0
 20
0.0
 11
1.0
 21
1.0
 12
0.0
 22
0.0
 13
0.0
 23
0.0
 14
0.5
 24
0.5
 15
0.5
 25
0.5
 16
0.0
 26
0.0
 36
1.0
 17
0.0
 27
0.0
 37
0.0
 40
1000.0
 41
1.34
 42
50.0
 43
0.0
 44
0.0
 50
0.0
 51
0.0
 71
0
 72
1000
 73
1
 74
3
 75
0
 76
0
 77
0
 78
0
281
0
 65
0
146
0.0
  0
ENDTAB
  0
TABLE
  2
LTYPE
  5
2
330
0
100
AcDbSymbolTable
 70
21
  0
LTYPE
  5
24
330
2
100
AcDbSymbolTableRecord
100
AcDbLinetypeTableRecord
  2
ByBlock
 70
0
  3

 72
65
 73
0
 40
0.0
  0
LTYPE
  5
25
330
2
100
AcDbSymbolTableRecord
100
AcDbLinetypeTableRecord
  2
ByLayer
 70
0
  3

 72
65
 73
0
 40
0.0
  0
LTYPE
  5
26
330
2
100
AcDbSymbolTableRecord
100
AcDbLinetypeTableRecord
  2
Continuous
 70
0
  3

 72
65
 73
0
 40
0.0
  0
LTYPE
  5
2F
330
2
100
AcDbSymbolTableRecord
100
AcDbLinetypeTableRecord
  2
CENTER
 70
0
  3
Center ____ _ ____ _ ____ _ ____ _ ____ _ ____
 72
65
 73
4
 40
5.08
 49
3.175
 74
0
 49
-0.635
 74
0
 49
0.635
 74
0
 49
-0.635
 74
0
  0
LTYPE
  5
30
330
2
100
AcDbSymbolTableRecord
100
AcDbLinetypeTableRecord
  2
CENTERX2
 70
0
  3
Center (2x) ________  __  ________  __  ________
 72
65
 73
4
 40
8.89
 49
6.35
 74
0
 49
-0.635
 74
0
 49
1.27
 74
0
 49
-0.635
 74
0
  0
LTYPE
  5
31
330
2
100
AcDbSymbolTableRecord
100
AcDbLinetypeTableRecord
  2
CENTER2
 70
0
  3
Center (.5x) ____ _ ____ _ ____ _ ____ _ ____
 72
65
 73
4
 40
2.54
 49
1.587
 74
0
 49
-0.318
 74
0
 49
0.318
 74
0
 49
-0.318
 74
0
  0
LTYPE
  5
32
330
2
100
AcDbSymbolTableRecord
100
AcDbLinetypeTableRecord
  2
DASHED
 70
0
  3
Dashed __ __ __ __ __ __ __ __ __ __ __ __ __ _
 72
65
 73
2
 40
1.524
 49
1.27
 74
0
 49
-0.254
 74
0
  0
LTYPE
  5
33
330
2
100
AcDbSymbolTableRecord
100
AcDbLinetypeTableRecord
  2
DASHEDX2
 70
0
  3
Dashed (2x) ____  ____  ____  ____  ____  ____
 72
65
 73
2
 40
3.048
 49
2.54
 74
0
 49
-0.508
 74
0
  0
LTYPE
  5
34
330
2
100
AcDbSymbolTableRecord
100
AcDbLinetypeTableRecord
  2
DASHED2
 70
0
  3
Dashed (.5x) _ _ _ _ _ _ _ _ _ _ _ _ _ _
 72
65
 73
2
 40
0.762
 49
0.635
 74
0
 49
-0.127
 74
0
  0
LTYPE
  5
35
330
2
100
AcDbSymbolTableRecord
100
AcDbLinetypeTableRecord
  2
PHANTOM
 70
0
  3
Phantom ______  __  __  ______  __  __  ______
 72
65
 73
6
 40
6.35
 49
3.175
 74
0
 49
-0.635
 74
0
 49
0.635
 74
0
 49
-0.635
 74
0
 49
0.635
 74
0
 49
-0.635
 74
0
  0
LTYPE
  5
36
330
2
100
AcDbSymbolTableRecord
100
AcDbLinetypeTableRecord
  2
PHANTOMX2
 70
0
  3
Phantom (2x)____________    ____    ____    ____________
 72
65
 73
6
 40
10.795
 49
6.35
 74
0
 49
-0.635
 74
0
 49
1.27
 74
0
 49
-0.635
 74
0
 49
1.27
 74
0
 49
-0.635
 74
0
  0
LTYPE
  5
37
330
2
100
AcDbSymbolTableRecord
100
AcDbLinetypeTableRecord
  2
PHANTOM2
 70
0
  3
Phantom (.5x) ___ _ _ ___ _ _ ___ _ _ ___ _ _ ___
 72
65
 73
6
 40
3.175
 49
1.587
 74
0
 49
-0.318
 74
0
 49
0.318
 74
0
 49
-0.318
 74
0
 49
0.318
 74
0
 49
-0.318
 74
0
  0
LTYPE
  5
38
330
2
100
AcDbSymbolTableRecord
100
AcDbLinetypeTableRecord
  2
DASHDOT
 70
0
  3
Dash dot __ . __ . __ . __ . __ . __ . __ . __
 72
65
 73
4
 40
3.556
 49
2.54
 74
0
 49
-0.508
 74
0
 49
0.0
 74
0
 49
-0.508
 74
0
  0
LTYPE
  5
39
330
2
100
AcDbSymbolTableRecord
100
AcDbLinetypeTableRecord
  2
DASHDOTX2
 70
0
  3
Dash dot (2x) ____  .  ____  .  ____  .  ____
 72
65
 73
4
 40
6.096
 49
5.08
 74
0
 49
-0.508
 74
0
 49
0.0
 74
0
 49
-0.508
 74
0
  0
LTYPE
  5
3A
330
2
100
AcDbSymbolTableRecord
100
AcDbLinetypeTableRecord
  2
DASHDOT2
 70
0
  3
Dash dot (.5x) _ . _ . _ . _ . _ . _ . _ . _
 72
65
 73
4
 40
1.778
 49
1.27
 74
0
 49
-0.254
 74
0
 49
0.0
 74
0
 49
-0.254
 74
0
  0
LTYPE
  5
3B
330
2
100
AcDbSymbolTableRecord
100
AcDbLinetypeTableRecord
  2
DOT
 70
0
  3
Dot .  .  .  .  .  .  .  .  .  .  .  .  .  .  .  .
 72
65
 73
2
 40
0.508
 49
0.0
 74
0
 49
-0.508
 74
0
  0
LTYPE
  5
3C
330
2
100
AcDbSymbolTableRecord
100
AcDbLinetypeTableRecord
  2
DOTX2
 70
0
  3
Dot (2x) .    .    .    .    .    .    .    . 
 72
65
 73
2
 40
1.016
 49
0.0
 74
0
 49
-1.016
 74
0
  0
LTYPE
  5
3D
330
2
100
AcDbSymbolTableRecord
100
AcDbLinetypeTableRecord
  2
DOT2
 70
0
  3
Dot (.5) . . . . . . . . . . . . . . . . . . . 
 72
65
 73
2
 40
0.254
 49
0.0
 74
0
 49
-0.254
 74
0
  0
LTYPE
  5
3E
330
2
100
AcDbSymbolTableRecord
100
AcDbLinetypeTableRecord
  2
DIVIDE
 70
0
  3
Divide __ . . __ . . __ . . __ . . __ . . __
 72
65
 73
6
 40
4.064
 49
2.54
 74
0
 49
-0.508
 74
0
 49
0.0
 74
0
 49
-0.508
 74
0
 49
0.0
 74
0
 49
-0.508
 74
0
  0
LTYPE
  5
3F
330
2
100
AcDbSymbolTableRecord
100
AcDbLinetypeTableRecord
  2
DIVIDEX2
 70
0
  3
Divide (2x) ____  . .  ____  . .  ____  . .  ____
 72
65
 73
6
 40
6.604
 49
5.08
 74
0
 49
-0.508
 74
0
 49
0.0
 74
0
 49
-0.508
 74
0
 49
0.0
 74
0
 49
-0.508
 74
0
  0
LTYPE
  5
40
330
2
100
AcDbSymbolTableRecord
100
AcDbLinetypeTableRecord
  2
DIVIDE2
 70
0
  3
Divide(.5x) _ . _ . _ . _ . _ . _ . _ . _
 72
65
 73
6
 40
2.032
 49
1.27
 74
0
 49
-0.254
 74
0
 49
0.0
 74
0
 49
-0.254
 74
0
 49
0.0
 74
0
 49
-0.254
 74
0
  0
ENDTAB
  0
TABLE
  2
LAYER
  5
1
330
0
100
AcDbSymbolTable
 70
4
  0
LAYER
  5
27
330
1
100
AcDbSymbolTableRecord
100
AcDbLayerTableRecord
  2
0
 70
0
 62
7
  6
Continuous
370
-3
390
13
347
21
  0
LAYER
  5
28
330
1
100
AcDbSymbolTableRecord
100
AcDbLayerTableRecord
  2
Defpoints
 70
0
 62
7
  6
Continuous
290
0
370
-3
390
13
347
21
  0
LAYER
  5
8A
330
1
100
AcDbSymbolTableRecord
100
AcDbLayerTableRecord
  2
Layer
 70
0
 62
1
  6
Continuous
370
50
390
13
347
21
  0
LAYER
  5
8B
330
1
100
AcDbSymbolTableRecord
100
AcDbLayerTableRecord
  2
NumLabel
 70
0
 62
1
  6
Continuous
370
15
390
13
347
21
  0
ENDTAB
  0
TABLE
  2
STYLE
  5
5
330
0
100
AcDbSymbolTable
 70
26
  0
STYLE
  5
29
330
5
100
AcDbSymbolTableRecord
100
AcDbTextStyleTableRecord
  2
Standard
 70
0
 40
0.0
 41
1.0
 50
0.0
 71
0
 42
2.5
  3
txt
  4

  0
STYLE
  5
41
330
5
100
AcDbSymbolTableRecord
100
AcDbTextStyleTableRecord
  2
OpenSans-Light
 70
0
 40
0.0
 41
1.0
 50
0.0
 71
0
 42
2.5
  3
OpenSans-Light.ttf
  4

  0
STYLE
  5
42
330
5
100
AcDbSymbolTableRecord
100
AcDbTextStyleTableRecord
  2
OpenSans-Light-Italic
 70
0
 40
0.0
 41
1.0
 50
0.0
 71
0
 42
2.5
  3
OpenSans-LightItalic.ttf
  4

  0
STYLE
  5
43
330
5
100
AcDbSymbolTableRecord
100
AcDbTextStyleTableRecord
  2
OpenSans
 70
0
 40
0.0
 41
1.0
 50
0.0
 71
0
 42
2.5
  3
OpenSans-Regular.ttf
  4

  0
STYLE
  5
44
330
5
100
AcDbSymbolTableRecord
100
AcDbTextStyleTableRecord
  2
OpenSans-Italic
 70
0
 40
0.0
 41
1.0
 50
0.0
 71
0
 42
2.5
  3
OpenSans-Italic.ttf
  4

  0
STYLE
  5
45
330
5
100
AcDbSymbolTableRecord
100
AcDbTextStyleTableRecord
  2
OpenSans-SemiBold
 70
0
 40
0.0
 41
1.0
 50
0.0
 71
0
 42
2.5
  3
OpenSans-SemiBold.ttf
  4

  0
STYLE
  5
46
330
5
100
AcDbSymbolTableRecord
100
AcDbTextStyleTableRecord
  2
OpenSans-SemiBoldItalic
 70
0
 40
0.0
 41
1.0
 50
0.0
 71
0
 42
2.5
  3
OpenSans-SemiBoldItalic.ttf
  4

  0
STYLE
  5
47
330
5
100
AcDbSymbolTableRecord
100
AcDbTextStyleTableRecord
  2
OpenSans-Bold
 70
0
 40
0.0
 41
1.0
 50
0.0
 71
0
 42
2.5
  3
OpenSans-Bold.ttf
  4

  0
STYLE
  5
48
330
5
100
AcDbSymbolTableRecord
100
AcDbTextStyleTableRecord
  2
OpenSans-BoldItalic
 70
0
 40
0.0
 41
1.0
 50
0.0
 71
0
 42
2.5
  3
OpenSans-BoldItalic.ttf
  4

  0
STYLE
  5
49
330
5
100
AcDbSymbolTableRecord
100
AcDbTextStyleTableRecord
  2
OpenSans-ExtraBold
 70
0
 40
0.0
 41
1.0
 50
0.0
 71
0
 42
2.5
  3
OpenSans-ExtraBold.ttf
  4

  0
STYLE
  5
4A
330
5
100
AcDbSymbolTableRecord
100
AcDbTextStyleTableRecord
  2
OpenSans-ExtraBoldItalic
 70
0
 40
0.0
 41
1.0
 50
0.0
 71
0
 42
2.5
  3
OpenSans-ExtraBoldItalic.ttf
  4

  0
STYLE
  5
4B
330
5
100
AcDbSymbolTableRecord
100
AcDbTextStyleTableRecord
  2
OpenSansCondensed-Bold
 70
0
 40
0.0
 41
1.0
 50
0.0
 71
0
 42
2.5
  3
OpenSansCondensed-Bold.ttf
  4

  0
STYLE
  5
4C
330
5
100
AcDbSymbolTableRecord
100
AcDbTextStyleTableRecord
  2
OpenSansCondensed-Light
 70
0
 40
0.0
 41
1.0
 50
0.0
 71
0
 42
2.5
  3
OpenSansCondensed-Light.ttf
  4

  0
STYLE
  5
4D
330
5
100
AcDbSymbolTableRecord
100
AcDbTextStyleTableRecord
  2
OpenSansCondensed-Italic
 70
0
 40
0.0
 41
1.0
 50
0.0
 71
0
 42
2.5
  3
OpenSansCondensed-LightItalic.ttf
  4

  0
STYLE
  5
4E
330
5
100
AcDbSymbolTableRecord
100
AcDbTextStyleTableRecord
  2
LiberationSans
 70
0
 40
0.0
 41
1.0
 50
0.0
 71
0
 42
2.5
  3
LiberationSans-Regular.ttf
  4

  0
STYLE
  5
4F
330
5
100
AcDbSymbolTableRecord
100
AcDbTextStyleTableRecord
  2
LiberationSans-Bold
 70
0
 40
0.0
 41
1.0
 50
0.0
 71
0
 42
2.5
  3
LiberationSans-Bold.ttf
  4

  0
STYLE
  5
50
330
5
100
AcDbSymbolTableRecord
100
AcDbTextStyleTableRecord
  2
LiberationSans-BoldItalic
 70
0
 40
0.0
 41
1.0
 50
0.0
 71
0
 42
2.5
  3
LiberationSans-BoldItalic.ttf
  4

  0
STYLE
  5
51
330
5
100
AcDbSymbolTableRecord
100
AcDbTextStyleTableRecord
  2
LiberationSans-Italic
 70
0
 40
0.0
 41
1.0
 50
0.0
 71
0
 42
2.5
  3
LiberationSans-Italic.ttf
  4

  0
STYLE
  5
52
330
5
100
AcDbSymbolTableRecord
100
AcDbTextStyleTableRecord
  2
LiberationSerif
 70
0
 40
0.0
 41
1.0
 50
0.0
 71
0
 42
2.5
  3
LiberationSerif-Regular.ttf
  4

  0
STYLE
  5
53
330
5
100
AcDbSymbolTableRecord
100
AcDbTextStyleTableRecord
  2
LiberationSerif-Bold
 70
0
 40
0.0
 41
1.0
 50
0.0
 71
0
 42
2.5
  3
LiberationSerif-Bold.ttf
  4

  0
STYLE
  5
54
330
5
100
AcDbSymbolTableRecord
100
AcDbTextStyleTableRecord
  2
LiberationSerif-BoldItalic
 70
0
 40
0.0
 41
1.0
 50
0.0
 71
0
 42
2.5
  3
LiberationSerif-BoldItalic.ttf
  4

  0
STYLE
  5
55
330
5
100
AcDbSymbolTableRecord
100
AcDbTextStyleTableRecord
  2
LiberationSerif-Italic
 70
0
 40
0.0
 41
1.0
 50
0.0
 71
0
 42
2.5
  3
LiberationSerif-Italic.ttf
  4

  0
STYLE
  5
56
330
5
100
AcDbSymbolTableRecord
100
AcDbTextStyleTableRecord
  2
LiberationMono
 70
0
 40
0.0
 41
1.0
 50
0.0
 71
0
 42
2.5
  3
LiberationMono-Regular.ttf
  4

  0
STYLE
  5
57
330
5
100
AcDbSymbolTableRecord
100
AcDbTextStyleTableRecord
  2
LiberationMono-Bold
 70
0
 40
0.0
 41
1.0
 50
0.0
 71
0
 42
2.5
  3
LiberationMono-Bold.ttf
  4

  0
STYLE
  5
58
330
5
100
AcDbSymbolTableRecord
100
AcDbTextStyleTableRecord
  2
LiberationMono-BoldItalic
 70
0
 40
0.0
 41
1.0
 50
0.0
 71
0
 42
2.5
  3
LiberationMono-BoldItalic.ttf
  4

  0
STYLE
  5
59
330
5
100
AcDbSymbolTableRecord
100
AcDbTextStyleTableRecord
  2
LiberationMono-Italic
 70
0
 40
0.0
 41
1.0
 50
0.0
 71
0
 42
2.5
  3
LiberationMono-Italic.ttf
  4

  0
ENDTAB
  0
TABLE
  2
VIEW
  5
7
330
0
100
AcDbSymbolTable
 70
0
  0
ENDTAB
  0
TABLE
  2
UCS
  5
6
330
0
100
AcDbSymbolTable
 70
0
  0
ENDTAB
  0
TABLE
  2
APPID
  5
3
330
0
100
AcDbSymbolTable
 70
3
  0
APPID
  5
2A
330
3
100
AcDbSymbolTableRecord
100
AcDbRegAppTableRecord
  2
ACAD
 70
0
  0
APPID
  5
AC
330
3
100
AcDbSymbolTableRecord
100
AcDbRegAppTableRecord
  2
HATCHBACKGROUNDCOLOR
 70
0
  0
APPID
  5
AD
330
3
100
AcDbSymbolTableRecord
100
AcDbRegAppTableRecord
  2
EZDXF
 70
0
  0
ENDTAB
  0
TABLE
  2
DIMSTYLE
  5
4
330
0
100
AcDbSymbolTable
 70
12
100
AcDbDimStyleTable
  0
DIMSTYLE
105
2B
330
4
100
AcDbSymbolTableRecord
100
AcDbDimStyleTableRecord
  2
Standard
 70
0
 40
1.0
 41
2.5
 42
0.625
 43
3.75
 44
1.25
 45
0.0
 46
0.0
 47
0.0
 48
0.0
 49
2.5
140
2.5
141
2.5
142
0.0
143
0.03937007874
144
1.0
145
0.0
146
1.0
147
0.625
148
0.0
 69
0
 70
0
 71
0
 72
0
 73
0
 74
0
 75
0
 76
0
 77
1
 78
8
 79
3
170
0
171
3
172
1
173
0
174
0
175
0
176
0
177
0
178
0
179
2
271
2
272
2
273
2
274
3
275
0
276
0
277
2
278
44
279
0
280
0
281
0
282
0
283
0
284
8
285
0
286
0
288
0
289
3
290
0
371
-2
372
-2
  0
DIMSTYLE
105
73
330
4
100
AcDbSymbolTableRecord
100
AcDbDimStyleTableRecord
  2
EZDXF
 70
0
 40
1.0
 41
0.175
 42
0.125
 43
3.75
 44
0.375
 45
0.0
 46
0.0
 47
0.0
 48
0.0
 49
2.5
140
0.25
141
2.5
142
0.0
143
0.03937007874
144
100.0
145
0.0
146
0.5
147
0.1
148
0.0
 69
0
 70
0
 71
0
 72
0
 73
0
 74
0
 75
0
 76
0
 77
1
 78
12
 79
3
170
0
171
3
172
1
173
0
174
0
175
0
176
0
177
0
178
0
179
2
271
2
272
2
273
2
274
3
275
0
276
0
277
2
278
46
279
2
280
0
281
0
282
0
283
0
284
8
285
0
286
0
288
1
289
3
290
0
340
4C
342
74
371
-2
372
-2
  0
DIMSTYLE
105
7C
330
4
100
AcDbSymbolTableRecord
100
AcDbDimStyleTableRecord
  2
EZ_M_100_H25_CM
 70
0
 40
1.0
 41
0.25
 42
0.125
 43
3.75
 44
0.375
 45
0.0
 46
0.0
 47
0.0
 48
0.0
 49
2.5
140
0.25
141
2.5
142
0.125
143
0.03937007874
144
100.0
145
0.0
146
0.5
147
0.1
148
0.0
 69
0
 70
0
 71
0
 72
0
 73
0
 74
0
 75
0
 76
0
 77
1
 78
12
 79
3
170
0
171
3
172
1
173
0
174
0
175
0
176
0
177
0
178
0
179
2
271
2
272
2
273
2
274
3
275
0
276
0
277
2
278
46
279
2
280
0
281
0
282
0
283
0
284
8
285
0
286
0
288
1
289
3
290
0
340
4C
371
-2
372
-2
  0
DIMSTYLE
105
7D
330
4
100
AcDbSymbolTableRecord
100
AcDbDimStyleTableRecord
  2
EZ_M_50_H25_CM
 70
0
 40
1.0
 41
0.125
 42
0.0625
 43
3.75
 44
0.1875
 45
0.0
 46
0.0
 47
0.0
 48
0.0
 49
2.5
140
0.125
141
2.5
142
0.0625
143
0.03937007874
144
100.0
145
0.0
146
0.5
147
0.05
148
0.0
 69
0
 70
0
 71
0
 72
0
 73
0
 74
0
 75
0
 76
0
 77
1
 78
12
 79
3
170
0
171
3
172
1
173
0
174
0
175
0
176
0
177
0
178
0
179
2
271
2
272
2
273
2
274
3
275
0
276
0
277
2
278
46
279
2
280
0
281
0
282
0
283
0
284
8
285
0
286
0
288
1
289
3
290
0
340
4C
371
-2
372
-2
  0
DIMSTYLE
105
7E
330
4
100
AcDbSymbolTableRecord
100
AcDbDimStyleTableRecord
  2
EZ_M_25_H25_CM
 70
0
 40
1.0
 41
0.0625
 42
0.03125
 43
3.75
 44
0.09375
 45
0.0
 46
0.0
 47
0.0
 48
0.0
 49
2.5
140
0.0625
141
2.5
142
0.03125
143
0.03937007874
144
100.0
145
0.0
146
0.5
147
0.025
148
0.0
 69
0
 70
0
 71
0
 72
0
 73
0
 74
0
 75
0
 76
0
 77
1
 78
12
 79
3
170
0
171
3
172
1
173
0
174
0
175
0
176
0
177
0
178
0
179
2
271
2
272
2
273
2
274
3
275
0
276
0
277
2
278
46
279
2
280
0
281
0
282
0
283
0
284
8
285
0
286
0
288
1
289
3
290
0
340
4C
371
-2
372
-2
  0
DIMSTYLE
105
7F
330
4
100
AcDbSymbolTableRecord
100
AcDbDimStyleTableRecord
  2
EZ_M_20_H25_CM
 70
0
 40
1.0
 41
0.05
 42
0.025
 43
3.75
 44
0.07500000000000001
 45
0.0
 46
0.0
 47
0.0
 48
0.0
 49
2.5
140
0.05
141
2.5
142
0.025
143
0.03937007874
144
100.0
145
0.0
146
0.5
147
0.020000000000000004
148
0.0
 69
0
 70
0
 71
0
 72
0
 73
0
 74
0
 75
0
 76
0
 77
1
 78
12
 79
3
170
0
171
3
172
1
173
0
174
0
175
0
176
0
177
0
178
0
179
2
271
2
272
2
273
2
274
3
275
0
276
0
277
2
278
46
279
2
280
0
281
0
282
0
283
0
284
8
285
0
286
0
288
1
289
3
290
0
340
4C
371
-2
372
-2
  0
DIMSTYLE
105
80
330
4
100
AcDbSymbolTableRecord
100
AcDbDimStyleTableRecord
  2
EZ_M_10_H25_CM
 70
0
 40
1.0
 41
0.025
 42
0.0125
 43
3.75
 44
0.037500000000000006
 45
0.0
 46
0.0
 47
0.0
 48
0.0
 49
2.5
140
0.025
141
2.5
142
0.0125
143
0.03937007874
144
100.0
145
0.0
146
0.5
147
0.010000000000000002
148
0.0
 69
0
 70
0
 71
0
 72
0
 73
0
 74
0
 75
0
 76
0
 77
1
 78
12
 79
3
170
0
171
3
172
1
173
0
174
0
175
0
176
0
177
0
178
0
179
2
271
2
272
2
273
2
274
3
275
0
276
0
277
2
278
46
279
2
280
0
281
0
282
0
283
0
284
8
285
0
286
0
288
1
289
3
290
0
340
4C
371
-2
372
-2
  0
DIMSTYLE
105
81
330
4
100
AcDbSymbolTableRecord
100
AcDbDimStyleTableRecord
  2
EZ_M_5_H25_CM
 70
0
 40
1.0
 41
0.0125
 42
0.00625
 43
3.75
 44
0.018750000000000003
 45
0.0
 46
0.0
 47
0.0
 48
0.0
 49
2.5
140
0.0125
141
2.5
142
0.00625
143
0.03937007874
144
100.0
145
0.0
146
0.5
147
0.005000000000000001
148
0.0
 69
0
 70
0
 71
0
 72
0
 73
0
 74
0
 75
0
 76
0
 77
1
 78
12
 79
3
170
0
171
3
172
1
173
0
174
0
175
0
176
0
177
0
178
0
179
2
271
2
272
2
273
2
274
3
275
0
276
0
277
2
278
46
279
2
280
0
281
0
282
0
283
0
284
8
285
0
286
0
288
1
289
3
290
0
340
4C
371
-2
372
-2
  0
DIMSTYLE
105
82
330
4
100
AcDbSymbolTableRecord
100
AcDbDimStyleTableRecord
  2
EZ_M_1_H25_CM
 70
0
 40
1.0
 41
0.0025
 42
0.00125
 43
3.75
 44
0.00375
 45
0.0
 46
0.0
 47
0.0
 48
0.0
 49
2.5
140
0.0025
141
2.5
142
0.00125
143
0.03937007874
144
100.0
145
0.0
146
0.5
147
0.001
148
0.0
 69
0
 70
0
 71
0
 72
0
 73
0
 74
0
 75
0
 76
0
 77
1
 78
12
 79
3
170
0
171
3
172
1
173
0
174
0
175
0
176
0
177
0
178
0
179
2
271
2
272
2
273
2
274
3
275
0
276
0
277
2
278
46
279
2
280
0
281
0
282
0
283
0
284
8
285
0
286
0
288
1
289
3
290
0
340
4C
371
-2
372
-2
  0
DIMSTYLE
105
83
330
4
100
AcDbSymbolTableRecord
100
AcDbDimStyleTableRecord
  2
EZ_RADIUS
 70
0
 40
1.0
 41
0.25
 42
0.125
 43
3.75
 44
0.375
 45
0.0
 46
0.0
 47
0.0
 48
0.0
 49
2.5
140
0.25
141
0.0
142
0.0
143
0.03937007874
144
100.0
145
0.0
146
0.5
147
0.1
148
0.0
 69
0
 70
0
 71
0
 72
0
 73
0
 74
0
 75
0
 76
0
 77
1
 78
12
 79
3
170
0
171
3
172
0
173
0
174
0
175
0
176
0
177
0
178
0
179
2
271
2
272
2
273
2
274
3
275
0
276
0
277
2
278
46
279
1
280
0
281
0
282
0
283
0
284
8
285
0
286
0
288
1
289
3
290
0
340
4C
342
84
371
-2
372
-2
  0
DIMSTYLE
105
88
330
4
100
AcDbSymbolTableRecord
100
AcDbDimStyleTableRecord
  2
EZ_RADIUS_INSIDE
 70
0
 40
1.0
 41
0.25
 42
0.125
 43
3.75
 44
0.375
 45
0.0
 46
0.0
 47
0.0
 48
0.0
 49
2.5
140
0.25
141
0.0
142
0.0
143
0.03937007874
144
100.0
145
0.0
146
0.5
147
0.1
148
0.0
 69
0
 70
0
 71
0
 72
0
 73
0
 74
0
 75
0
 76
0
 77
0
 78
12
 79
3
170
0
171
3
172
0
173
0
174
1
175
0
176
0
177
0
178
0
179
2
271
2
272
2
273
2
274
3
275
0
276
0
277
2
278
46
279
0
280
0
281
0
282
0
283
0
284
8
285
0
286
0
288
1
289
0
290
0
340
4C
342
84
371
-2
372
-2
  0
DIMSTYLE
105
89
330
4
100
AcDbSymbolTableRecord
100
AcDbDimStyleTableRecord
  2
EZ_CURVED
 70
0
 40
1.0
 41
0.25
 42
0.125
 43
3.75
 44
0.375
 45
0.0
 46
0.0
 47
0.0
 48
0.0
 49
2.5
140
0.25
141
2.5
142
0.0
143
0.03937007874
144
100.0
145
0.0
146
0.5
147
0.1
148
0.0
 69
0
 70
0
 71
0
 72
0
 73
0
 74
0
 75
0
 76
0
 77
1
 78
12
 79
2
 90
2
170
0
171
3
172
1
173
0
174
0
175
0
176
0
177
0
178
0
179
2
271
2
272
2
273
2
274
3
275
0
276
0
277
2
278
46
279
2
280
0
281
0
282
0
283
0
284
8
285
0
286
0
288
1
289
3
290
0
340
4C
371
-2
372
-2
  0
ENDTAB
  0
TABLE
  2
BLOCK_RECORD
  5
9
330
0
100
AcDbSymbolTable
 70
5
  0
BLOCK_RECORD
  5
17
330
9
100
AcDbSymbolTableRecord
100
AcDbBlockTableRecord
  2
*Model_Space
340
1A
 70
0
280
1
281
0
  0
BLOCK_RECORD
  5
1B
330
9
100
AcDbSymbolTableRecord
100
AcDbBlockTableRecord
  2
*Paper_Space
340
1E
 70
0
280
1
281
0
  0
BLOCK_RECORD
  5
74
330
9
100
AcDbSymbolTableRecord
100
AcDbBlockTableRecord
  2
_ARCHTICK
340
0
 70
0
280
1
281
0
  0
BLOCK_RECORD
  5
78
330
9
100
AcDbSymbolTableRecord
100
AcDbBlockTableRecord
  2
_CLOSEDFILLED
340
0
 70
0
280
1
281
0
  0
BLOCK_RECORD
  5
84
330
9
100
AcDbSymbolTableRecord
100
AcDbBlockTableRecord
  2
_CLOSEDBLANK
340
0
 70
0
280
1
281
0
  0
ENDTAB
  0
ENDSEC
  0
SECTION
  2
BLOCKS
  0
BLOCK
  5
18
330
17
100
AcDbEntity
  8
0
100
AcDbBlockBegin
  2
*Model_Space
 70
0
 10
0.0
 20
0.0
 30
0.0
  3
*Model_Space
  1

  0
ENDBLK
  5
19
330
17
100
AcDbEntity
  8
0
100
AcDbBlockEnd
  0
BLOCK
  5
1C
330
1B
100
AcDbEntity
  8
0
100
AcDbBlockBegin
  2
*Paper_Space
 70
0
 10
0.0
 20
0.0
 30
0.0
  3
*Paper_Space
  1

  0
ENDBLK
  5
1D
330
1B
100
AcDbEntity
  8
0
100
AcDbBlockEnd
  0
BLOCK
  5
75
330
74
100
AcDbEntity
  8
0
100
AcDbBlockBegin
  2
_ARCHTICK
 70
0
 10
0.0
 20
0.0
 30
0.0
  3
_ARCHTICK
  1

  0
LWPOLYLINE
  5
77
330
74
100
AcDbEntity
  8
0
  6
BYBLOCK
 62
0
100
AcDbPolyline
 90
2
 70
0
 43
0.15
 10
-0.5
 20
-0.5
 10
0.5
 20
0.5
  0
ENDBLK
  5
76
330
74
100
AcDbEntity
  8
0
100
AcDbBlockEnd
  0
BLOCK
  5
79
330
78
100
AcDbEntity
  8
0
100
AcDbBlockBegin
  2
_CLOSEDFILLED
 70
0
 10
0.0
 20
0.0
 30
0.0
  3
_CLOSEDFILLED
  1

  0
SOLID
  5
7B
330
78
100
AcDbEntity
  8
0
  6
BYBLOCK
 62
0
100
AcDbTrace
 10
-1.0
 20
0.16439898372402537
 30
0.0
 11
0.0
 21
0.0
 31
0.0
 12
-1.0
 22
-0.16439898372402537
 32
0.0
 13
-1.0
 23
-0.16439898372402537
 33
0.0
  0
ENDBLK
  5
7A
330
78
100
AcDbEntity
  8
0
100
AcDbBlockEnd
  0
BLOCK
  5
85
330
84
100
AcDbEntity
  8
0
100
AcDbBlockBegin
  2
_CLOSEDBLANK
 70
0
 10
0.0
 20
0.0
 30
0.0
  3
_CLOSEDBLANK
  1

  0
LWPOLYLINE
  5
87
330
84
100
AcDbEntity
  8
0
  6
BYBLOCK
 62
0
100
AcDbPolyline
 90
3
 70
1
 10
-1.0
 20
0.16439898372402537
 10
0.0
 20
0.0
 10
-1.0
 20
-0.16439898372402537
  0
ENDBLK
  5
86
330
84
100
AcDbEntity
  8
0
100
AcDbBlockEnd
  0
ENDSEC
  0
SECTION
  2
ENTITIES
  0
LWPOLYLINE
  5
8C
330
17
100
AcDbEntity
  8
Layer
100
AcDbPolyline
 90
150
 70
1
 10
316.766054715818
 20
169.71801269985878
 10
316.7660550351675
 20
233.99163326438634
 10
312.1040820132863
 20
234.61795823582003
 10
306.0920829442444
 20
235.37922743260404
 10
300.06950525645635
 20
236.09647664122951
 10
294.0409594741062
 20
236.7715678069943
 10
288.0084312097687
 20
237.40232364645505
 10
281.9703150357635
 20
237.98840673167152
 10
275.9281437983056
 20
238.53048777341982
 10
269.8837876189762
 20
239.02791844643207
 10
263.83744818523354
 20
239.48148841197568
 10
257.79480426583706
 20
239.8916744640449
 10
251.754553407244
 20
240.2549975646961
 10
245.7174084231651
 20
240.57411672629192
 10
239.6899988617188
 20
240.84773399820588
 10
233.67012629127547
 20
241.0729611933261
 10
227.65682140586483
 20
241.25100809497332
 10
221.65466215009232
 20
241.38257656821958
 10
215.6654830971451
 20
241.46559028418633
 10
209.68906062813545
 20
241.49969002496294
 10
203.72762972414054
 20
241.48545425385498
 10
197.7854611870547
 20
241.42168102959272
 10
191.86367862690082
 20
241.30555882858226
 10
185.9594053606994
 20
241.1373635610247
 10
180.0798486716231
 20
240.9189369094016
 10
174.22458549463727
 20
240.64539078115865
 10
168.3954904813375
 20
240.32029460121637
 10
162.59865665807916
 20
239.9406723875631
 10
156.83283942109279
 20
239.5057843882353
 10
151.10523612209874
 20
239.01607020854885
 10
145.4165271222993
 20
238.4680121840102
 10
139.76798301067313
 20
237.86202902921468
 10
134.1628338776685
 20
237.19859436178888
 10
128.60842919347112
 20
236.47880024683786
 10
123.10897357556523
 20
235.69931819863237
 10
117.66539555676812
 20
234.86084002174894
 10
112.28718643704082
 20
233.96698197930854
 10
106.98510027400329
 20
233.01885840689798
 10
101.76953480622413
 20
232.0163234946635
 10
96.64744835854302
 20
230.95890456798844
 10
91.62741002588521
 20
229.8499379072147
 10
86.72345208207389
 20
228.69408127478277
 10
81.94349219243648
 20
227.49133393355766
 10
77.2973938889312
 20
226.2489481269669
 10
72.79685059901291
 20
224.97323448198745
 10
68.45394747612806
 20
223.67177692607277
 10
64.27971218474133
 20
222.34964021970353
 10
60.28009810086101
 20
221.01305918737478
 10
56.46075711638352
 20
219.66704807027543
 10
52.81992672974741
 20
218.3145989484341
 10
49.357426560772836
 20
216.96146419111983
 10
46.066581287558904
 20
215.61052935464173
 10
42.95082406860851
 20
214.27011539459963
 10
40.002601805381715
 20
212.93178004614504
 10
37.215350249796984
 20
211.60117393887526
 10
34.58857572690067
 20
210.27867910848298
 10
32.118292407861645
 20
208.96459127973267
 10
29.80868722303049
 20
207.66213094503243
 10
27.66424964936678
 20
206.37404444909762
 10
25.682441734164
 20
205.0993676566443
 10
23.872068743144467
 20
203.85794072959632
 10
22.23536273406873
 20
202.65284059730334
 10
20.765380203160447
 20
201.4871236853743
 10
19.44803844113477
 20
200.36147971376653
 10
18.27472138039886
 20
199.2877731831269
 10
17.21781195734343
 20
198.24058906525636
 10
16.265998515260378
 20
197.2444028746373
 10
15.412802937721011
 20
196.29493130547246
 10
14.647066415473518
 20
195.38077888207957
 10
13.96145065394657
 20
194.50038230580168
 10
13.353890577226338
 20
193.65725023540082
 10
12.817550993615669
 20
192.83651039724276
 10
12.34281698553707
 20
192.02991030916994
 10
11.925009215519196
 20
191.24569675150153
 10
11.558516670238816
 20
190.47736400285163
 10
11.237714601736286
 20
189.7246121333969
 10
10.961001953474351
 20
188.99819948053968
 10
10.726516963809019
 20
188.29016330675097
 10
10.533101925844136
 20
187.60727727055556
 10
10.386595979244873
 20
186.98414078725716
 10
10.289063072813548
 20
186.32571989215313
 10
10.223853209133694
 20
185.64399904771838
 10
10.196578454018976
 20
185.0362110165769
 10
10.20759431988796
 20
184.39890659688632
 10
10.26485086070096
 20
183.75580546258638
 10
10.374462220407082
 20
183.10740649250576
 10
10.541842301166724
 20
182.45604977039372
 10
10.774912572143393
 20
181.8004257392175
 10
11.082678003449388
 20
181.13750631624066
 10
11.470933424418888
 20
180.46710271729532
 10
11.940995697069411
 20
179.79274411903114
 10
12.493723064445277
 20
179.11910445788132
 10
13.133493850740933
 20
178.44968862546187
 10
13.871352912194624
 20
177.7847116336244
 10
14.721851091805348
 20
177.12123413958474
 10
15.689991483966224
 20
176.45885758858768
 10
16.779052197767925
 20
175.8015201908408
 10
18.01087617305933
 20
175.1516356489889
 10
19.405819869016227
 20
174.50594155146356
 10
20.961954160359994
 20
173.86104513023483
 10
22.66242623604694
 20
173.22362358613586
 10
24.510047771666848
 20
172.60667578038536
 10
26.50038445286475
 20
172.00883348919663
 10
28.604732347075554
 20
171.43135425308904
 10
30.818046430548918
 20
170.87982294379614
 10
33.14682136121215
 20
170.35199482677803
 10
35.59883908768077
 20
169.8366065532373
 10
38.158444460175104
 20
169.3240409779008
 10
40.81094185609609
 20
168.82062042487266
 10
43.58407629889305
 20
168.33753125059792
 10
46.51056542544043
 20
167.86470363379004
 10
49.58737614264527
 20
167.3885467294097
 10
52.819912219995416
 20
166.91216299893335
 10
56.22435319769002
 20
166.4403665604637
 10
59.82203364488001
 20
165.97713555621482
 10
63.63728434780282
 20
165.52211425270778
 10
67.68573322604956
 20
165.07232136483722
 10
71.97641996875066
 20
164.62866762942798
 10
76.51403156955291
 20
164.1934407391529
 10
81.29262145897161
 20
163.77038021022904
 10
86.30676057333724
 20
163.36573895431235
 10
91.5401203707386
 20
162.97926274679256
 10
96.98220628848048
 20
162.6217770888913
 10
102.61402362019942
 20
162.28918577170384
 10
108.4073313066792
 20
161.97964625329703
 10
114.34022106854027
 20
161.6974595510007
 10
120.39340265532998
 20
161.44109601645908
 10
126.54700065992155
 20
161.20954986264644
 10
130.1357090437727
 20
161.09136383606364
 10
130.08633668998152
 20
159.59217659936465
 10
132.7468470175183
 20
159.50455868487796
 10
139.0817475591221
 20
159.3216724005952
 10
145.49001021681084
 20
159.15241067479647
 10
151.9402729004293
 20
158.99153436582722
 10
158.4068672046774
 20
158.84477183997868
 10
164.89196168216785
 20
158.71961726328698
 10
171.4138985232555
 20
158.61498367685118
 10
177.98242588833287
 20
158.52254029991082
 10
184.58748028737256
 20
158.4342076907263
 10
191.21062984343268
 20
158.3460576415344
 10
197.83729097088857
 20
158.25955522384118
 10
204.45540381026223
 20
158.18100490068696
 10
211.07460214803817
 20
158.11706542473297
 10
217.7139422449185
 20
158.06660534651758
 10
224.38067118882887
 20
158.02251523056105
 10
231.06587528755188
 20
157.98003641810163
 10
237.76261912011208
 20
157.93890845836125
 10
244.46388109131345
 20
157.89907963913038
 10
252.9084457394277
 20
157.84834482354137
 10
316.766054715818
 20
169.71801269985878
  0
LWPOLYLINE
  5
8D
330
17
100
AcDbEntity
  8
NumLabel
 62
1
100
AcDbPolyline
 90
2
 70
0
 10
186.78899082568807
 20
179.32339449541286
 10
184.78899082568807
 20
179.32339449541286
  0
LWPOLYLINE
  5
8E
330
17
100
AcDbEntity
  8
NumLabel
 62
1
100
AcDbPolyline
 90
4
 70
0
 10
183.78899082568807
 20
179.32339449541286
 10
181.78899082568807
 20
179.32339449541286
 10
181.78899082568807
 20
169.32339449541286
 10
183.78899082568807
 20
169.32339449541286
  0
LWPOLYLINE
  5
8F
330
17
100
AcDbEntity
  8
NumLabel
 62
1
100
AcDbPolyline
 90
4
 70
0
 10
184.78899082568807
 20
169.32339449541286
 10
186.78899082568807
 20
169.32339449541286
 10
186.78899082568807
 20
174.32339449541286
 10
184.78899082568807
 20
174.32339449541286
  0
LWPOLYLINE
  5
90
330
17
100
AcDbEntity
  8
NumLabel
 62
1
100
AcDbPolyline
 90
2
 70
0
 10
183.78899082568807
 20
174.32339449541286
 10
181.78899082568807
 20
174.32339449541286
  0
LWPOLYLINE
  5
91
330
17
100
AcDbEntity
  8
NumLabel
 62
1
100
AcDbPolyline
 90
4
 70
0
 10
191.28899082568807
 20
179.32339449541286
 10
189.28899082568807
 20
179.32339449541286
 10
189.28899082568807
 20
169.32339449541286
 10
191.28899082568807
 20
169.32339449541286
  0
LWPOLYLINE
  5
92
330
17
100
AcDbEntity
  8
NumLabel
 62
1
100
AcDbPolyline
 90
4
 70
0
 10
192.28899082568807
 20
169.32339449541286
 10
194.28899082568807
 20
169.32339449541286
 10
194.28899082568807
 20
179.32339449541286
 10
192.28899082568807
 20
179.32339449541286
  0
LWPOLYLINE
  5
93
330
17
100
AcDbEntity
  8
Layer
100
AcDbPolyline
 90
5
 70
1
 10
180.32400909190747
 20
236.92598142716943
 10
176.3283690484249
 20
236.73927137677444
 10
176.1416589980299
 20
240.73491142025702
 10
180.13729904151248
 20
240.921621470652
 10
180.32400909190747
 20
236.92598142716943
  0
LWPOLYLINE
  5
94
330
17
100
AcDbEntity
  8
Layer
100
AcDbPolyline
 90
5
 70
1
 10
76.05665500862982
 20
221.73956873440326
 10
72.20831274541449
 20
220.64857752217895
 10
71.11732153319015
 20
224.49691978539428
 10
74.96566379640548
 20
225.5879109976186
 10
76.05665500862982
 20
221.73956873440326
  0
LWPOLYLINE
  5
95
330
17
100
AcDbEntity
  8
Layer
100
AcDbPolyline
 90
5
 70
1
 10
23.898598937607364
 20
197.5875627324602
 10
22.37874693299212
 20
196.2875435464222
 10
19.12869896789702
 20
200.0871735579603
 10
20.648550972512265
 20
201.38719274399833
 10
23.898598937607364
 20
197.5875627324602
  0
LWPOLYLINE
  5
96
330
17
100
AcDbEntity
  8
Layer
100
AcDbPolyline
 90
5
 70
1
 10
17.099223975565156
 20
181.55160721115368
 10
18.75219453871475
 20
180.42569055466402
 10
15.93740289749054
 20
176.29326414679002
 10
14.284432334340945
 20
177.4191808032797
 10
17.099223975565156
 20
181.55160721115368
  0
LWPOLYLINE
  5
97
330
17
100
AcDbEntity
  8
Layer
100
AcDbPolyline
 90
5
 70
1
 10
97.76520853233195
 20
166.5825076818193
 10
101.75825254163267
 20
166.34671213523794
 10
101.52245699505129
 20
162.35366812593722
 10
97.52941298575057
 20
162.58946367251858
 10
97.76520853233195
 20
166.5825076818193
  0
LWPOLYLINE
  5
98
330
17
100
AcDbEntity
  8
Layer
100
AcDbPolyline
 90
300
 70
1
 10
279.10595183486237
 20
200.0
 10
279.0980115450728
 20
200.76186419990347
 10
279.07419418191256
 20
201.52339198202364
 10
279.03451026245875
 20
202.28424707712975
 10
278.978977310013
 20
203.04409351303082
 10
278.9076198463639
 20
203.80259576293122
 10
278.82046938095846
 20
204.5594188935902
 10
278.71756439698896
 20
205.3142287132186
 10
278.5989503343993
 20
206.0666919190489
 10
278.4646795698205
 20
206.81647624451213
 10
278.31481139344226
 20
207.5632506059574
 10
278.1494119828323
 20
208.30668524884925
 10
277.9685543737142
 20
209.04645189337796
 10
277.77231842771675
 20
209.78222387941858
 10
277.5607907971095
 20
210.51367631077488
 10
277.33406488653935
 20
211.24048619864442
 10
277.0922408117858
 20
211.96233260424125
 10
276.8354253555527
 20
212.67889678051344
 10
276.5637319203158
 20
213.38986231289286
 10
276.2772804782476
 20
214.09491525901493
 10
275.976197518241
 20
214.79374428734667
 10
275.66061599005536
 20
215.48604081466203
 10
275.33067524560954
 20
216.17149914230345
 10
274.986520977448
 20
216.84981659116994
 10
274.62830515440726
 20
217.52069363537146
 10
274.2561859545106
 20
218.18383403449124
 10
273.87032769512115
 20
218.83894496439723
 10
273.4709007603838
 20
219.48573714654486
 10
273.0580815259887
 20
220.1239249757145
 10
272.6320522812884
 20
220.75322664612648
 10
272.1930011488041
 20
221.37336427587866
 10
271.74112200115616
 20
221.98406402965142
 10
271.2766143754552
 20
222.58505623962532
 10
270.79968338519245
 20
223.1760755245591
 10
270.3105396296669
 20
223.7568609069744
 10
269.8093991009911
 20
224.32715592839608
 10
269.2964830887148
 20
224.8867087625972
 10
268.77201808210987
 20
225.43527232679818
 10
268.2362356701589
 20
225.9726043907718
 10
267.68937243929224
 20
226.49846768380513
 10
267.1316698689177
 20
227.01262999947159
 10
266.5633742247904
 20
227.51486429816686
 10
265.98473645026854
 20
228.0049488073631
 10
265.39601205550423
 20
228.48266711953747
 10
264.7974610046167
 20
228.94780828773168
 10
264.1893476009003
 20
229.4001669187001
 10
263.571940370115
 20
229.8395432636057
 10
262.9455119419131
 20
230.2657433062235
 10
262.31033892945385
 20
230.67857884861274
 10
261.6667018072587
 20
231.07786759421967
 10
261.0148847873617
 20
231.4634332283747
 10
260.3551756938095
 20
231.83510549614783
 10
259.6878658355661
 20
232.19272027752868
 10
259.01324987787945
 20
232.53611965989705
 10
258.3316257121653
 20
232.86515200775276
 10
257.64329432446664
 20
233.1796720296736
 10
256.948559662547
 20
233.4795408424721
 10
256.24772850167545
 20
233.76462603252205
 10
255.54111030916349
 20
234.03480171422908
 10
254.8290171077128
 20
234.28994858561788
 10
254.1117633376349
 20
234.5299539810127
 10
253.38966571800313
 20
234.75471192078743
 10
252.66304310679845
 20
234.96412315816298
 10
251.93221636011071
 20
235.15809522303212
 10
251.19750819045763
 20
235.33654246279156
 10
250.45924302428404
 20
235.4993860801637
 10
249.71774685870432
 20
235.64655416799135
 10
248.97334711755124
 20
235.77798174098987
 10
248.22637250679475
 20
235.89361076444288
 10
247.47715286939476
 20
235.99339017982868
 10
246.7260190396518
 20
236.07727592736637
 10
245.97330269711975
 20
236.14523096547128
 10
245.2193362201457
 20
236.19722528711165
 10
244.46445253910082
 20
236.23323593305872
 10
243.70898498936782
 20
236.25324700202495
 10
242.9532671641494
 20
236.25724965768563
 10
242.19763276716282
 20
236.24524213258076
 10
241.44241546528582
 20
236.21722972889532
 10
240.68794874121872
 20
236.17322481611825
 10
239.9345657462277
 20
236.1132468255802
 10
239.1825991530348
 20
236.03732224187337
 10
238.4323810089188
 20
235.94548459115657
 10
237.68424258909272
 20
235.83777442635102
 10
236.9385142504217
 20
235.7142393092333
 10
236.19552528554706
 20
235.57493378943352
 10
235.45560377747967
 20
235.41991938034755
 10
234.71907645472785
 20
235.2492645319747
 10
233.98626854702323
 20
235.06304460069177
 10
233.25750364170847
 20
234.8613418159782
 10
232.53310354085022
 20
234.64424524410552
 10
231.81338811914028
 20
234.41185074880835
 10
231.0986751826481
 20
234.16426094895363
 10
230.38928032848642
 20
233.90158517322706
 10
229.68551680545255
 20
233.62393941185658
 10
228.98769537570652
 20
233.33144626539433
 10
228.29612417754726
 20
233.02423489057983
 10
227.6111085893473
 20
232.7024409433078
 10
226.93295109470643
 20
232.36620651872647
 10
226.2619511488834
 20
232.0156800884924
 10
225.59840504656484
 20
231.65101643520939
 10
224.94260579102996
 20
231.2723765840811
 10
224.2948429647685
 20
230.87992773180662
 10
223.65540260160927
 20
230.4738431727512
 10
223.02456706041562
 20
230.0543022224244
 10
222.40261490040388
 20
229.62149013829932
 10
221.78982075813914
 20
229.17559803800816
 10
221.18645522626386
 20
228.71682281495
 10
220.59278473401142
 20
228.24536705134835
 10
220.00907142955873
 20
227.76143892879634
 10
219.43557306426882
 20
227.26525213632976
 10
218.87254287887518
 20
226.757025776068
 10
218.3202294916577
 20
226.2369842664645
 10
217.77887678865994
 20
225.70535724321022
 10
217.24872381599585
 20
225.16237945783266
 10
216.7300046742937
 20
224.6082906740364
 10
216.22294841532397
 20
224.04333556183016
 10
215.7277789408564
 20
223.46776358948733
 10
215.24471490379136
 20
222.88182891338792
 10
214.77396961160872
 20
222.28579026579013
 10
214.31575093217754
 20
221.67991084058156
 10
213.87026120196728
 20
221.06445817706015
 10
213.43769713670176
 20
220.4397040417965
 10
213.018249744495
 20
219.80592430862913
 10
212.61210424150747
 20
219.1633988368466
 10
212.21943997015984
 20
218.5124113476094
 10
211.8404303199404
 20
217.85324929866675
 10
211.4752426508411
 20
217.1862037574233
 10
211.1240382194562
 20
216.51156927241198
 10
210.78697210777574
 20
215.82964374322955
 10
210.46419315470587
 20
215.14072828899282
 10
210.1558438903457
 20
214.44512711537254
 10
209.86206047304992
 20
213.74314738026504
 10
209.58297262930532
 20
213.03509905815983
 10
209.318703596447
 20
212.32129480326353
 10
209.06937006824046
 20
211.60204981144074
 10
208.83508214335268
 20
210.87768168103221
 10
208.6159432767358
 20
210.1485102726126
 10
208.4120502339444
 20
209.4148575677488
 10
208.22349304840625
 20
208.67704752682218
 10
208.05035498166643
 20
207.93540594597656
 10
207.89271248662118
 20
207.190260313256
 10
207.7506351737585
 20
206.44193966399519
 10
207.62418578042008
 20
205.69077443552675
 10
207.51342014309833
 20
204.93709632126942
 10
207.41838717278054
 20
204.18123812426157
 10
207.33912883335108
 20
203.4235336102047
 10
207.27568012306148
 20
202.66431736008195
 10
207.22806905907598
 20
201.9039246224166
 10
207.19631666510017
 20
201.14269116523568
 10
207.18043696209736
 20
200.38095312780422
 10
207.18043696209736
 20
199.61904687219578
 10
207.19631666510017
 20
198.85730883476435
 10
207.22806905907598
 20
198.0960753775834
 10
207.27568012306148
 20
197.33568263991805
 10
207.33912883335108
 20
196.5764663897953
 10
207.41838717278054
 20
195.81876187573843
 10
207.51342014309833
 20
195.06290367873058
 10
207.62418578042008
 20
194.30922556447325
 10
207.7506351737585
 20
193.55806033600481
 10
207.89271248662118
 20
192.809739686744
 10
208.05035498166643
 20
192.06459405402342
 10
208.22349304840625
 20
191.3229524731778
 10
208.4120502339444
 20
190.5851424322512
 10
208.6159432767358
 20
189.85148972738742
 10
208.83508214335265
 20
189.12231831896779
 10
209.06937006824046
 20
188.3979501885593
 10
209.318703596447
 20
187.67870519673647
 10
209.5829726293053
 20
186.96490094184017
 10
209.86206047304992
 20
186.25685261973493
 10
210.1558438903457
 20
185.55487288462746
 10
210.46419315470587
 20
184.85927171100718
 10
210.78697210777574
 20
184.17035625677045
 10
211.1240382194562
 20
183.48843072758805
 10
211.4752426508411
 20
182.8137962425767
 10
211.8404303199404
 20
182.14675070133325
 10
212.21943997015984
 20
181.4875886523906
 10
212.61210424150747
 20
180.8366011631534
 10
213.018249744495
 20
180.19407569137087
 10
213.43769713670176
 20
179.5602959582035
 10
213.87026120196728
 20
178.93554182293985
 10
214.31575093217754
 20
178.32008915941847
 10
214.77396961160872
 20
177.7142097342099
 10
215.24471490379133
 20
177.11817108661208
 10
215.7277789408564
 20
176.53223641051264
 10
216.222948415324
 20
175.95666443816984
 10
216.7300046742937
 20
175.3917093259636
 10
217.24872381599582
 20
174.83762054216737
 10
217.77887678865991
 20
174.29464275678978
 10
218.3202294916577
 20
173.7630157335355
 10
218.87254287887518
 20
173.242974223932
 10
219.43557306426882
 20
172.73474786367024
 10
220.00907142955873
 20
172.23856107120366
 10
220.59278473401142
 20
171.75463294865168
 10
221.18645522626386
 20
171.28317718505
 10
221.78982075813914
 20
170.82440196199184
 10
222.40261490040385
 20
170.37850986170068
 10
223.02456706041562
 20
169.9456977775756
 10
223.65540260160924
 20
169.5261568272488
 10
224.2948429647685
 20
169.12007226819338
 10
224.94260579102996
 20
168.72762341591888
 10
225.59840504656484
 20
168.34898356479061
 10
226.2619511488834
 20
167.9843199115076
 10
226.93295109470645
 20
167.63379348127353
 10
227.6111085893473
 20
167.2975590566922
 10
228.29612417754723
 20
166.9757651094202
 10
228.98769537570652
 20
166.66855373460567
 10
229.68551680545255
 20
166.37606058814342
 10
230.3892803284864
 20
166.09841482677294
 10
231.0986751826481
 20
165.83573905104637
 10
231.81338811914028
 20
165.58814925119168
 10
232.53310354085022
 20
165.3557547558945
 10
233.25750364170847
 20
165.1386581840218
 10
233.98626854702323
 20
164.93695539930823
 10
234.71907645472783
 20
164.7507354680253
 10
235.45560377747967
 20
164.58008061965245
 10
236.19552528554706
 20
164.42506621056648
 10
236.93851425042172
 20
164.2857606907667
 10
237.68424258909272
 20
164.16222557364898
 10
238.43238100891884
 20
164.05451540884343
 10
239.18259915303477
 20
163.96267775812663
 10
239.9345657462277
 20
163.8867531744198
 10
240.6879487412187
 20
163.82677518388175
 10
241.44241546528582
 20
163.78277027110468
 10
242.1976327671628
 20
163.75475786741924
 10
242.95326716414937
 20
163.74275034231437
 10
243.7089849893678
 20
163.74675299797505
 10
244.46445253910082
 20
163.76676406694128
 10
245.2193362201457
 20
163.80277471288835
 10
245.97330269711975
 20
163.85476903452872
 10
246.7260190396518
 20
163.92272407263363
 10
247.47715286939476
 20
164.00660982017132
 10
248.22637250679475
 20
164.10638923555712
 10
248.97334711755124
 20
164.22201825901013
 10
249.71774685870434
 20
164.35344583200865
 10
250.45924302428404
 20
164.50061391983627
 10
251.1975081904576
 20
164.66345753720844
 10
251.9322163601107
 20
164.84190477696788
 10
252.66304310679845
 20
165.03587684183702
 10
253.38966571800313
 20
165.24528807921257
 10
254.1117633376349
 20
165.4700460189873
 10
254.8290171077128
 20
165.71005141438212
 10
255.54111030916349
 20
165.96519828577092
 10
256.24772850167545
 20
166.23537396747795
 10
256.948559662547
 20
166.5204591575279
 10
257.64329432446664
 20
166.8203279703264
 10
258.3316257121653
 20
167.13484799224724
 10
259.0132498778795
 20
167.46388034010295
 10
259.68786583556613
 20
167.80727972247132
 10
260.3551756938095
 20
168.16489450385217
 10
261.01488478736167
 20
168.5365667716253
 10
261.6667018072587
 20
168.9221324057803
 10
262.3103389294538
 20
169.32142115138726
 10
262.9455119419131
 20
169.7342566937765
 10
263.571940370115
 20
170.1604567363943
 10
264.1893476009003
 20
170.5998330812999
 10
264.7974610046167
 20
171.05219171226832
 10
265.3960120555042
 20
171.51733288046253
 10
265.98473645026854
 20
171.9950511926369
 10
266.5633742247904
 20
172.48513570183314
 10
267.1316698689177
 20
172.98737000052841
 10
267.68937243929224
 20
173.50153231619487
 10
268.236235670159
 20
174.0273956092282
 10
268.77201808210987
 20
174.56472767320182
 10
269.2964830887148
 20
175.1132912374028
 10
269.8093991009911
 20
175.6728440716039
 10
270.3105396296669
 20
176.2431390930256
 10
270.7996833851924
 20
176.8239244754409
 10
271.2766143754552
 20
177.41494376037465
 10
271.74112200115616
 20
178.01593597034858
 10
272.1930011488041
 20
178.62663572412131
 10
272.6320522812884
 20
179.24677335387352
 10
273.0580815259887
 20
179.87607502428548
 10
273.4709007603838
 20
180.51426285345514
 10
273.87032769512115
 20
181.16105503560277
 10
274.2561859545106
 20
181.81616596550876
 10
274.62830515440726
 20
182.47930636462854
 10
274.986520977448
 20
183.15018340883006
 10
275.33067524560954
 20
183.82850085769655
 10
275.66061599005536
 20
184.513959185338
 10
275.976197518241
 20
185.20625571265333
 10
276.2772804782476
 20
185.90508474098505
 10
276.5637319203158
 20
186.6101376871071
 10
276.8354253555527
 20
187.32110321948656
 10
277.0922408117858
 20
188.03766739575875
 10
277.33406488653935
 20
188.75951380135555
 10
277.5607907971095
 20
189.48632368922512
 10
277.77231842771675
 20
190.21777612058142
 10
277.9685543737142
 20
190.95354810662204
 10
278.1494119828323
 20
191.69331475115075
 10
278.31481139344226
 20
192.4367493940426
 10
278.4646795698205
 20
193.1835237554879
 10
278.5989503343993
 20
193.9333080809511
 10
278.71756439698896
 20
194.6857712867814
 10
278.82046938095846
 20
195.44058110640984
 10
278.9076198463639
 20
196.19740423706875
 10
278.978977310013
 20
196.95590648696918
 10
279.03451026245875
 20
197.71575292287022
 10
279.07419418191256
 20
198.47660801797636
 10
279.0980115450728
 20
199.2381358000965
 10
279.10595183486237
 20
200.0
  0
LWPOLYLINE
  5
99
330
17
100
AcDbEntity
  8
Layer
100
AcDbPolyline
 90
5
 70
1
 10
112.03781165227659
 20
205.00000000000003
 10
117.03781165227659
 20
200.00000000000003
 10
112.03781165227659
 20
195.00000000000003
 10
107.03781165227659
 20
200.00000000000003
 10
112.03781165227659
 20
205.00000000000003
  0
LWPOLYLINE
  5
9A
330
17
100
AcDbEntity
  8
Layer
100
AcDbPolyline
 90
5
 70
1
 10
241.76499415070307
 20
205.0
 10
246.76499415070307
 20
200.0
 10
241.76499415070307
 20
195.0
 10
236.76499415070307
 20
200.0
 10
241.76499415070307
 20
205.0
  0
LWPOLYLINE
  5
9B
330
17
100
AcDbEntity
  8
Layer
100
AcDbPolyline
 90
5
 70
1
 10
74.02604601979927
 20
187.15774162086254
 10
78.71794399864874
 20
181.86755321627163
 10
73.42775559405781
 20
177.17565523742215
 10
68.73585761520835
 20
182.46584364201306
 10
74.02604601979927
 20
187.15774162086254
  0
LWPOLYLINE
  5
9C
330
17
100
AcDbEntity
  8
Layer
100
AcDbPolyline
 90
5
 70
1
 10
145.25531508005903
 20
182.88851492071987
 10
149.94721305890852
 20
177.59832651612896
 10
144.6570246543176
 20
172.90642853727948
 10
139.96512667546813
 20
178.1966169418704
 10
145.25531508005903
 20
182.88851492071987
  0
LWPOLYLINE
  5
9D
330
17
100
AcDbEntity
  8
Layer
100
AcDbPolyline
 90
5
 70
1
 10
158.1422018348624
 20
189.1313943981905
 10
163.1422018348624
 20
194.1313943981905
 10
168.1422018348624
 20
189.1313943981905
 10
163.1422018348624
 20
184.1313943981905
 10
158.1422018348624
 20
189.1313943981905
  0
LWPOLYLINE
  5
9E
330
17
100
AcDbEntity
  8
Layer
100
AcDbPolyline
 90
5
 70
1
 10
158.1422018348624
 20
209.59825913534524
 10
163.1422018348624
 20
214.59825913534524
 10
168.1422018348624
 20
209.59825913534524
 10
163.1422018348624
 20
204.59825913534524
 10
158.1422018348624
 20
209.59825913534524
  0
LINE
  5
9F
330
17
100
AcDbEntity
  8
Layer
 62
7
100
AcDbLine
 10
19.053023319992263
 20
200.00000000000003
 30
0.0
 11
316.76605504587155
 21
200.0
 31
0.0
  0
LINE
  5
A0
330
17
100
AcDbEntity
  8
Layer
 62
7
100
AcDbLine
 10
106.03781165227659
 20
200.00000000000003
 30
0.0
 11
118.03781165227659
 21
200.00000000000003
 31
0.0
  0
LINE
  5
A1
330
17
100
AcDbEntity
  8
Layer
 62
7
100
AcDbLine
 10
235.76499415070307
 20
200.0
 30
0.0
 11
247.76499415070307
 21
200.0
 31
0.0
  0
LINE
  5
A2
330
17
100
AcDbEntity
  8
Layer
 62
7
100
AcDbLine
 10
10.255129409484454
 20
185.97096856598844
 30
0.0
 11
308.1489179489961
 21
168.11628421195383
 31
0.0
  0
LINE
  5
A3
330
17
100
AcDbEntity
  8
Layer
 62
7
100
AcDbLine
 10
67.7376489768643
 20
182.52567268458722
 30
0.0
 11
79.71615263699277
 21
181.8077241736975
 31
0.0
  0
LINE
  5
A4
330
17
100
AcDbEntity
  8
Layer
 62
7
100
AcDbLine
 10
138.9669180371241
 20
178.25644598444453
 30
0.0
 11
150.94542169725256
 21
177.5384974735548
 31
0.0
  0
LINE
  5
A5
330
17
100
AcDbEntity
  8
Layer
100
AcDbLine
 10
243.1422018348624
 20
236.25774999999996
 30
0.0
 11
243.1422018348624
 21
237.25774999999996
 31
0.0
  0
LINE
  5
A6
330
17
100
AcDbEntity
  8
Layer
100
AcDbLine
 10
243.1422018348624
 20
163.74225000000004
 30
0.0
 11
243.1422018348624
 21
162.74225000000004
 31
0.0
  0
LINE
  5
A7
330
17
100
AcDbEntity
  8
Layer
100
AcDbLine
 10
279.10595183486237
 20
200.0
 30
0.0
 11
280.10595183486237
 21
200.0
 31
0.0
  0
LINE
  5
A8
330
17
100
AcDbEntity
  8
Layer
100
AcDbLine
 10
207.17845183486241
 20
200.0
 30
0.0
 11
206.17845183486241
 21
200.0
 31
0.0
  0
LINE
  5
A9
330
17
100
AcDbEntity
  8
Layer
 62
7
100
AcDbLine
 10
163.1422018348624
 20
158.7533855381767
 30
0.0
 11
163.1422018348624
 21
239.97626799535905
 31
0.0
  0
LINE
  5
AA
330
17
100
AcDbEntity
  8
Layer
 62
7
100
AcDbLine
 10
163.1422018348624
 20
183.1313943981905
 30
0.0
 11
163.1422018348624
 21
195.1313943981905
 31
0.0
  0
LINE
  5
AB
330
17
100
AcDbEntity
  8
Layer
 62
7
100
AcDbLine
 10
163.1422018348624
 20
203.59825913534524
 30
0.0
 11
163.1422018348624
 21
215.59825913534524
 31
0.0
  0
ENDSEC
  0
SECTION
  2
OBJECTS
  0
DICTIONARY
  5
A
330
0
100
AcDbDictionary
280
0
281
1
  3
ACAD_COLOR
350
B
  3
ACAD_GROUP
350
C
  3
ACAD_LAYOUT
350
D
  3
ACAD_MATERIAL
350
E
  3
ACAD_MLEADERSTYLE
350
F
  3
ACAD_MLINESTYLE
350
10
  3
ACAD_PLOTSETTINGS
350
11
  3
ACAD_PLOTSTYLENAME
350
12
  3
ACAD_SCALELIST
350
14
  3
ACAD_TABLESTYLE
350
15
  3
ACAD_VISUALSTYLE
350
16
  3
EZDXF_META
350
2D
  0
DICTIONARY
  5
B
330
A
100
AcDbDictionary
280
0
281
1
  0
DICTIONARY
  5
C
330
A
100
AcDbDictionary
280
0
281
1
  0
DICTIONARY
  5
D
330
A
100
AcDbDictionary
280
0
281
1
  3
Model
350
1A
  3
Layout1
350
1E
  0
DICTIONARY
  5
E
330
A
100
AcDbDictionary
280
0
281
1
  3
ByBlock
350
1F
  3
ByLayer
350
20
  3
Global
350
21
  0
DICTIONARY
  5
F
330
A
100
AcDbDictionary
280
0
281
1
  3
Standard
350
2C
  0
DICTIONARY
  5
10
330
A
100
AcDbDictionary
280
0
281
1
  3
Standard
350
22
  0
DICTIONARY
  5
11
330
A
100
AcDbDictionary
280
0
281
1
  0
ACDBDICTIONARYWDFLT
  5
12
330
A
100
AcDbDictionary
280
0
281
1
  3
Normal
350
13
100
AcDbDictionaryWithDefault
340
13
  0
ACDBPLACEHOLDER
  5
13
330
12
  0
DICTIONARY
  5
14
330
A
100
AcDbDictionary
280
0
281
1
  0
DICTIONARY
  5
15
330
A
100
AcDbDictionary
280
0
281
1
  0
DICTIONARY
  5
16
330
A
100
AcDbDictionary
280
0
281
1
  3
2dWireframe
350
5A
  3
Basic
350
5B
  3
Brighten
350
5C
  3
ColorChange
350
5D
  3
Conceptual
350
5E
  3
Dim
350
5F
  3
EdgeColorOff
350
60
  3
Facepattern
350
61
  3
Flat
350
62
  3
FlatWithEdges
350
63
  3
Gouraud
350
64
  3
GouraudWithEdges
350
65
  3
Hidden
350
66
  3
JitterOff
350
67
  3
Linepattern
350
68
  3
Modeling
350
69
  3
OverhangOff
350
6A
  3
Realistic
350
6B
  3
Shaded
350
6C
  3
Shaded with edges
350
6D
  3
Shades of Gray
350
6E
  3
Sketchy
350
6F
  3
Thicken
350
70
  3
Wireframe
350
71
  3
X-Ray
350
72
  0
LAYOUT
  5
1A
330
D
100
AcDbPlotSettings
  1

  2
Adobe PDF
  4
A3
  6

 40
7.5
 41
20.0
 42
7.5
 43
20.0
 44
420.0
 45
297.0
 46
0.0
 47
0.0
 48
0.0
 49
0.0
140
0.0
141
0.0
142
1.0
143
1.0
 70
1024
 72
1
 73
0
 74
5
  7

 75
16
 76
0
 77
2
 78
300
147
1.0
148
0.0
149
0.0
100
AcDbLayout
  1
Model
 70
1
 71
0
 10
0.0
 20
0.0
 11
420.0
 21
297.0
 12
0.0
 22
0.0
 32
0.0
 14
1e+20
 24
1e+20
 34
1e+20
 15
-1e+20
 25
-1e+20
 35
-1e+20
146
0.0
 13
0.0
 23
0.0
 33
0.0
 16
1.0
 26
0.0
 36
0.0
 17
0.0
 27
1.0
 37
0.0
 76
1
330
17
  0
LAYOUT
  5
1E
330
D
100
AcDbPlotSettings
  1

  2
Adobe PDF
  4
A3
  6

 40
7.5
 41
20.0
 42
7.5
 43
20.0
 44
420.0
 45
297.0
 46
0.0
 47
0.0
 48
0.0
 49
0.0
140
0.0
141
0.0
142
1.0
143
1.0
 70
0
 72
1
 73
0
 74
5
  7

 75
16
 76
0
 77
2
 78
300
147
1.0
148
0.0
149
0.0
100
AcDbLayout
  1
Layout1
 70
1
 71
1
 10
0.0
 20
0.0
 11
420.0
 21
297.0
 12
0.0
 22
0.0
 32
0.0
 14
1e+20
 24
1e+20
 34
1e+20
 15
-1e+20
 25
-1e+20
 35
-1e+20
146
0.0
 13
0.0
 23
0.0
 33
0.0
 16
1.0
 26
0.0
 36
0.0
 17
0.0
 27
1.0
 37
0.0
 76
1
330
1B
  0
MATERIAL
  5
1F
102
{ACAD_REACTORS
330
E
102
}
330
E
100
AcDbMaterial
  1
ByBlock
  2

 70
0
 40
1.0
 71
1
 41
1.0
 91
-1023410177
 42
1.0
 72
1
  3

 73
1
 74
1
 75
1
 44
0.5
 73
0
 45
1.0
 46
1.0
 77
1
  4

 78
1
 79
1
170
1
 48
1.0
171
1
  6

172
1
173
1
174
1
140
1.0
141
1.0
175
1
  7

176
1
177
1
178
1
143
1.0
179
1
  8

270
1
271
1
272
1
145
1.0
146
1.0
273
1
  9

274
1
275
1
276
1
 42
1.0
 72
1
  3

 73
1
 74
1
 75
1
 94
63
  0
MATERIAL
  5
20
102
{ACAD_REACTORS
330
E
102
}
330
E
100
AcDbMaterial
  1
ByLayer
  2

 70
0
 40
1.0
 71
1
 41
1.0
 91
-1023410177
 42
1.0
 72
1
  3

 73
1
 74
1
 75
1
 44
0.5
 73
0
 45
1.0
 46
1.0
 77
1
  4

 78
1
 79
1
170
1
 48
1.0
171
1
  6

172
1
173
1
174
1
140
1.0
141
1.0
175
1
  7

176
1
177
1
178
1
143
1.0
179
1
  8

270
1
271
1
272
1
145
1.0
146
1.0
273
1
  9

274
1
275
1
276
1
 42
1.0
 72
1
  3

 73
1
 74
1
 75
1
 94
63
  0
MATERIAL
  5
21
102
{ACAD_REACTORS
330
E
102
}
330
E
100
AcDbMaterial
  1
Global
  2

 70
0
 40
1.0
 71
1
 41
1.0
 91
-1023410177
 42
1.0
 72
1
  3

 73
1
 74
1
 75
1
 44
0.5
 73
0
 45
1.0
 46
1.0
 77
1
  4

 78
1
 79
1
170
1
 48
1.0
171
1
  6

172
1
173
1
174
1
140
1.0
141
1.0
175
1
  7

176
1
177
1
178
1
143
1.0
179
1
  8

270
1
271
1
272
1
145
1.0
146
1.0
273
1
  9

274
1
275
1
276
1
 42
1.0
 72
1
  3

 73
1
 74
1
 75
1
 94
63
  0
MLINESTYLE
  5
22
102
{ACAD_REACTORS
330
10
102
}
330
10
100
AcDbMlineStyle
  2
Standard
 70
0
  3

 62
256
 51
90.0
 52
90.0
 71
2
 49
0.5
 62
256
  6
BYLAYER
 49
-0.5
 62
256
  6
BYLAYER
  0
MLEADERSTYLE
  5
2C
102
{ACAD_REACTORS
330
F
102
}
330
F
100
AcDbMLeaderStyle
179
2
170
2
171
1
172
0
 90
2
 40
0.0
 41
0.0
173
1
 91
-1056964608
 92
-2
290
1
 42
2.0
291
1
 43
8.0
  3
Standard
 44
4.0
300

342
29
174
1
175
1
176
0
178
1
 93
-1056964608
 45
4.0
292
0
297
0
 46
4.0
 94
-1056964608
 47
1.0
 49
1.0
140
1.0
294
1
141
0.0
177
0
142
1.0
295
0
296
0
143
3.75
271
0
272
9
273
9
  0
DICTIONARY
  5
2D
330
A
100
AcDbDictionary
281
1
  3
CREATED_BY_EZDXF
350
2E
  3
WRITTEN_BY_EZDXF
350
AE
  0
DICTIONARYVAR
  5
2E
330
2D
100
DictionaryVariables
280
0
  1
1.3.0 @ 2026-01-06T17:07:22.174740+00:00
  0
VISUALSTYLE
  5
5A
102
{ACAD_REACTORS
330
16
102
}
330
16
100
AcDbVisualStyle
  2
2dWireframe
 70
4
 90
0
 40
0.6
 62
7
290
0
291
0
  0
VISUALSTYLE
  5
5B
102
{ACAD_REACTORS
330
16
102
}
330
16
100
AcDbVisualStyle
  2
Basic
 70
7
 90
1
 40
0.6
 62
7
290
0
291
1
  0
VISUALSTYLE
  5
5C
102
{ACAD_REACTORS
330
16
102
}
330
16
100
AcDbVisualStyle
  2
Brighten
 70
12
 90
2
 40
0.6
 62
7
290
0
291
1
  0
VISUALSTYLE
  5
5D
102
{ACAD_REACTORS
330
16
102
}
330
16
100
AcDbVisualStyle
  2
ColorChange
 70
16
 90
2
 40
0.6
 62
8
290
0
291
1
  0
VISUALSTYLE
  5
5E
102
{ACAD_REACTORS
330
16
102
}
330
16
100
AcDbVisualStyle
  2
Conceptual
 70
9
 90
3
 40
0.6
 62
7
290
0
291
0
  0
VISUALSTYLE
  5
5F
102
{ACAD_REACTORS
330
16
102
}
330
16
100
AcDbVisualStyle
  2
Dim
 70
11
 90
2
 40
0.6
 62
7
290
0
291
1
  0
VISUALSTYLE
  5
60
102
{ACAD_REACTORS
330
16
102
}
330
16
100
AcDbVisualStyle
  2
EdgeColorOff
 70
22
 90
2
 40
0.6
 62
7
290
0
291
1
  0
VISUALSTYLE
  5
61
102
{ACAD_REACTORS
330
16
102
}
330
16
100
AcDbVisualStyle
  2
Facepattern
 70
15
 90
2
 40
0.6
 62
7
290
0
291
1
  0
VISUALSTYLE
  5
62
102
{ACAD_REACTORS
330
16
102
}
330
16
100
AcDbVisualStyle
  2
Flat
 70
0
 90
2
 40
0.6
 62
7
290
0
291
1
  0
VISUALSTYLE
  5
63
102
{ACAD_REACTORS
330
16
102
}
330
16
100
AcDbVisualStyle
  2
FlatWithEdges
 70
1
 90
2
 40
0.6
 62
7
290
0
291
1
  0
VISUALSTYLE
  5
64
102
{ACAD_REACTORS
330
16
102
}
330
16
100
AcDbVisualStyle
  2
Gouraud
 70
2
 90
2
 40
0.6
 62
7
290
0
291
1
  0
VISUALSTYLE
  5
65
102
{ACAD_REACTORS
330
16
102
}
330
16
100
AcDbVisualStyle
  2
GouraudWithEdges
 70
3
 90
2
 40
0.6
 62
7
290
0
291
1
  0
VISUALSTYLE
  5
66
102
{ACAD_REACTORS
330
16
102
}
330
16
100
AcDbVisualStyle
  2
Hidden
 70
6
 90
1
 40
0.6
 62
7
290
0
291
0
  0
VISUALSTYLE
  5
67
102
{ACAD_REACTORS
330
16
102
}
330
16
100
AcDbVisualStyle
  2
JitterOff
 70
20
 90
2
 40
0.6
 62
7
290
0
291
1
  0
VISUALSTYLE
  5
68
102
{ACAD_REACTORS
330
16
102
}
330
16
100
AcDbVisualStyle
  2
Linepattern
 70
14
 90
2
 40
0.6
 62
7
290
0
291
1
  0
VISUALSTYLE
  5
69
102
{ACAD_REACTORS
330
16
102
}
330
16
100
AcDbVisualStyle
  2
Modeling
 70
10
 90
2
 40
0.6
 62
7
290
0
291
0
  0
VISUALSTYLE
  5
6A
102
{ACAD_REACTORS
330
16
102
}
330
16
100
AcDbVisualStyle
  2
OverhangOff
 70
21
 90
2
 40
0.6
 62
7
290
0
291
1
  0
VISUALSTYLE
  5
6B
102
{ACAD_REACTORS
330
16
102
}
330
16
100
AcDbVisualStyle
  2
Realistic
 70
8
 90
2
 40
0.6
 62
7
290
0
291
0
  0
VISUALSTYLE
  5
6C
102
{ACAD_REACTORS
330
16
102
}
330
16
100
AcDbVisualStyle
  2
Shaded
 70
27
 90
2
 40
0.6
 62
7
290
0
291
0
  0
VISUALSTYLE
  5
6D
102
{ACAD_REACTORS
330
16
102
}
330
16
100
AcDbVisualStyle
  2
Shaded with edges
 70
26
 90
2
 40
0.6
 62
7
290
0
291
0
  0
VISUALSTYLE
  5
6E
102
{ACAD_REACTORS
330
16
102
}
330
16
100
AcDbVisualStyle
  2
Shades of Gray
 70
23
 90
2
 40
0.6
 62
7
290
0
291
0
  0
VISUALSTYLE
  5
6F
102
{ACAD_REACTORS
330
16
102
}
330
16
100
AcDbVisualStyle
  2
Sketchy
 70
24
 90
1
 40
0.6
 62
7
290
0
291
0
  0
VISUALSTYLE
  5
70
102
{ACAD_REACTORS
330
16
102
}
330
16
100
AcDbVisualStyle
  2
Thicken
 70
13
 90
2
 40
0.6
 62
7
290
0
291
1
  0
VISUALSTYLE
  5
71
102
{ACAD_REACTORS
330
16
102
}
330
16
100
AcDbVisualStyle
  2
Wireframe
 70
5
 90
0
 40
0.6
 62
7
290
0
291
0
  0
VISUALSTYLE
  5
72
102
{ACAD_REACTORS
330
16
102
}
330
16
100
AcDbVisualStyle
  2
X-Ray
 70
25
 90
2
 40
0.5
 62
7
290
0
291
0
  0
DICTIONARYVAR
  5
AE
330
2D
100
DictionaryVariables
280
0
  1
1.3.0 @ 2026-01-06T17:07:22.203463+00:00
  0
ENDSEC
  0
EOF
