<?xml version="1.0" encoding="utf-8" standalone="no"?>
<!DOCTYPE svg PUBLIC "-//W3C//DTD SVG 1.1//EN"
  "http://www.w3.org/Graphics/SVG/1.1/DTD/svg11.dtd">
<svg xmlns:xlink="http://www.w3.org/1999/xlink" width="1152pt" height="214.298533pt" viewBox="0 0 1152 214.298533" xmlns="http://www.w3.org/2000/svg" version="1.1">
 <metadata>
  <rdf:RDF xmlns:dc="http://purl.org/dc/elements/1.1/" xmlns:cc="http://creativecommons.org/ns#" xmlns:rdf="http://www.w3.org/1999/02/22-rdf-syntax-ns#">
   <cc:Work>
    <dc:type rdf:resource="http://purl.org/dc/dcmitype/StillImage"/>
    <dc:date>2026-01-07T02:07:14.491232</dc:date>
    <dc:format>image/svg+xml</dc:format>
    <dc:creator>
     <cc:Agent>
      <dc:title>Matplotlib v3.10.1, https://matplotlib.org/</dc:title>
     </cc:Agent>
    </dc:creator>
   </cc:Work>
  </rdf:RDF>
 </metadata>
 <defs>
  <style type="text/css">*{stroke-linejoin: round; stroke-linecap: butt}</style>
 </defs>
 <g id="figure_1">
  <g id="patch_1">
   <path d="M 0 214.298533 
L 1152 214.298533 
L 1152 0 
L 0 0 
z
" style="fill: #ffffff"/>
  </g>
  <g id="axes_1">
   <g id="patch_2">
    <path d="M 0 214.298533 
L 1152 214.298533 
L 1152 0 
L 0 0 
z
" style="fill: #212830"/>
   </g>
   <g id="patch_3">
    <path d="M 1099.636364 112.484296 
L 1084.704486 107.51791 
L 1056.598076 98.413713 
L 1028.722735 89.734249 
L 1001.011604 81.498398 
L 973.398986 73.705967 
L 945.833786 66.363466 
L 918.272297 59.465203 
L 904.486393 56.184857 
L 876.880625 49.958375 
L 863.061191 47.011503 
L 849.229429 44.177336 
L 835.382053 41.455493 
L 821.517682 38.844638 
L 807.639507 36.344742 
L 793.748372 33.957653 
L 779.841623 31.68372 
L 765.91905 29.521418 
L 751.984049 27.471272 
L 738.036875 25.535384 
L 724.071152 23.714833 
L 710.080534 22.00669 
L 682.03908 18.918624 
L 667.996241 17.541031 
L 639.866382 15.117026 
L 611.723118 13.13035 
L 583.597755 11.593893 
L 569.553792 10.993456 
L 555.532431 10.507791 
L 541.533554 10.140125 
L 527.558042 9.889393 
L 513.61438 9.755262 
L 499.710001 9.740842 
L 485.846155 9.849601 
L 472.023213 10.081425 
L 458.249849 10.435685 
L 444.535172 10.915301 
L 430.880698 11.524484 
L 417.288622 12.263233 
L 403.768583 13.130797 
L 390.331407 14.130477 
L 376.979402 15.266726 
L 363.717064 16.538664 
L 350.55777 17.945713 
L 337.511967 19.492194 
L 324.583579 21.181138 
L 311.782265 23.010341 
L 299.124271 24.980139 
L 286.620134 27.093773 
L 274.278906 29.348889 
L 262.126101 31.73627 
L 250.192473 34.254502 
L 238.496801 36.905114 
L 227.059796 39.678577 
L 215.918613 42.561356 
L 205.106631 45.54871 
L 194.647131 48.631409 
L 184.571875 51.787183 
L 174.919866 54.996269 
L 165.717645 58.246387 
L 156.982625 61.516065 
L 148.734833 64.77813 
L 140.987816 68.014909 
L 133.739274 71.213747 
L 126.979098 74.356461 
L 120.695858 77.4268 
L 114.872091 80.419054 
L 109.481796 83.333015 
L 99.883038 88.912453 
L 91.682738 94.156313 
L 84.67276 99.105263 
L 78.67221 103.786165 
L 73.54406 108.250251 
L 69.133609 112.54741 
L 65.302491 116.643682 
L 62.013317 120.504931 
L 59.286575 124.198421 
L 57.089353 127.826356 
L 55.335458 131.394483 
L 53.976966 134.836611 
L 53.027737 138.127461 
L 52.499467 141.299288 
L 52.363636 144.397499 
L 52.627212 147.510465 
L 52.93571 149.051627 
L 53.383593 150.580632 
L 53.985194 152.100166 
L 54.745782 153.60957 
L 55.660566 155.10394 
L 56.71926 156.574802 
L 57.914982 158.014036 
L 59.247052 159.415048 
L 60.721557 160.774726 
L 62.344537 162.092904 
L 64.119667 163.372581 
L 68.11904 165.833614 
L 72.716306 168.18421 
L 77.975087 170.432218 
L 84.01414 172.601827 
L 90.966415 174.746385 
L 99.007417 176.905272 
L 108.398408 179.095348 
L 119.466206 181.339335 
L 132.597899 183.634678 
L 148.211544 185.961555 
L 166.61529 188.27152 
L 187.897729 190.480737 
L 199.547717 191.520738 
L 224.59755 193.418254 
L 251.517914 195.042845 
L 279.837506 196.384097 
L 309.246057 197.460702 
L 325.886829 197.988786 
L 325.812767 200.417488 
L 354.608152 201.255622 
L 385.247062 201.916456 
L 463.413446 203.203568 
L 510.608356 203.708513 
L 605.108737 204.557691 
L 1099.636364 112.484296 
L 1099.636364 112.484296 
" clip-path="url(#pec5be11b61)" style="fill: none; stroke: #ff0000; stroke-width: 0.72; stroke-linejoin: miter"/>
   </g>
   <g id="patch_4">
    <path d="M 964.11669 77.908334 
L 957.861765 76.217043 
L 959.553056 69.962117 
L 965.807981 71.653408 
L 964.11669 77.908334 
" clip-path="url(#pec5be11b61)" style="fill: none; stroke: #ff0000; stroke-width: 0.72; stroke-linejoin: miter"/>
   </g>
   <g id="patch_5">
    <path d="M 439.613286 17.620925 
L 433.140178 17.909771 
L 432.851332 11.436664 
L 439.324439 11.147817 
L 439.613286 17.620925 
" clip-path="url(#pec5be11b61)" style="fill: none; stroke: #ff0000; stroke-width: 0.72; stroke-linejoin: miter"/>
   </g>
   <g id="patch_6">
    <path d="M 201.608794 53.334912 
L 195.393624 55.166908 
L 193.561628 48.951737 
L 199.776799 47.119742 
L 201.608794 53.334912 
" clip-path="url(#pec5be11b61)" style="fill: none; stroke: #ff0000; stroke-width: 0.72; stroke-linejoin: miter"/>
   </g>
   <g id="patch_7">
    <path d="M 81.582235 111.920526 
L 79.1711 114.084451 
L 73.761289 108.056614 
L 76.172423 105.89269 
L 81.582235 111.920526 
" clip-path="url(#pec5be11b61)" style="fill: none; stroke: #ff0000; stroke-width: 0.72; stroke-linejoin: miter"/>
   </g>
   <g id="patch_8">
    <path d="M 67.324218 155.697571 
L 69.95493 157.588469 
L 65.227684 164.165248 
L 62.596973 162.27435 
L 67.324218 155.697571 
" clip-path="url(#pec5be11b61)" style="fill: none; stroke: #ff0000; stroke-width: 0.72; stroke-linejoin: miter"/>
   </g>
   <g id="patch_9">
    <path d="M 253.308258 188.645121 
L 259.779634 188.970463 
L 259.454292 195.441839 
L 252.982916 195.116497 
L 253.308258 188.645121 
" clip-path="url(#pec5be11b61)" style="fill: none; stroke: #ff0000; stroke-width: 0.72; stroke-linejoin: miter"/>
   </g>
   <g id="patch_10">
    <path d="M 658.542387 106.894413 
L 658.393185 101.872728 
L 657.946171 96.870993 
L 657.203122 91.909082 
L 656.166989 87.006707 
L 654.841889 82.183345 
L 653.233087 77.45816 
L 651.346974 72.849924 
L 649.191044 68.376947 
L 646.773862 64.056998 
L 644.105032 59.907241 
L 641.195157 55.944164 
L 638.055798 52.18351 
L 634.699427 48.640222 
L 631.13938 45.328376 
L 627.389799 42.261131 
L 623.465583 39.450672 
L 619.382321 36.908165 
L 615.156238 34.643713 
L 610.804122 32.66631 
L 606.343264 30.983815 
L 601.791389 29.60291 
L 597.166579 28.529082 
L 592.48721 27.766599 
L 587.771872 27.318488 
L 583.039299 27.18653 
L 578.308294 27.371251 
L 573.597652 27.871914 
L 568.92609 28.686533 
L 564.312167 29.811869 
L 559.774214 31.243453 
L 555.330261 32.975596 
L 550.997962 35.001417 
L 546.794531 37.312867 
L 542.736666 39.900762 
L 538.840491 42.754823 
L 535.121485 45.863708 
L 531.594422 49.215067 
L 528.273316 52.795584 
L 525.171362 56.591035 
L 522.300884 60.58634 
L 519.673286 64.765626 
L 517.299007 69.112289 
L 515.18748 73.609059 
L 513.347095 78.238071 
L 511.785163 82.980934 
L 510.507889 87.818805 
L 509.520349 92.732463 
L 508.826465 97.702385 
L 508.428995 102.708828 
L 508.329518 107.7319 
L 508.528429 112.751644 
L 509.024937 117.748118 
L 509.81707 122.70147 
L 510.901681 127.592022 
L 512.274461 132.400342 
L 513.929956 137.107327 
L 515.861588 141.694278 
L 518.061683 146.142969 
L 520.5215 150.435727 
L 523.231267 154.555496 
L 526.180218 158.485909 
L 529.356636 162.21135 
L 532.747901 165.717018 
L 536.340541 168.988985 
L 540.120281 172.014252 
L 544.072106 174.780799 
L 548.180314 177.277635 
L 552.428583 179.494841 
L 556.800036 181.423606 
L 561.277304 183.056269 
L 565.8426 184.386343 
L 570.477786 185.408542 
L 575.164446 186.118807 
L 579.88396 186.514316 
L 584.617578 186.593496 
L 589.346493 186.356034 
L 594.051918 185.802872 
L 598.715157 184.936209 
L 603.317684 183.759488 
L 607.841213 182.277384 
L 612.267773 180.495785 
L 616.579776 178.421769 
L 620.760091 176.063577 
L 624.79211 173.430577 
L 628.659814 170.533231 
L 632.347836 167.383049 
L 635.841524 163.992547 
L 639.126998 160.375196 
L 642.191204 156.545366 
L 645.021969 152.518275 
L 647.608046 148.309921 
L 649.93916 143.937024 
L 652.00605 139.416958 
L 653.800505 134.76768 
L 655.315395 130.007663 
L 656.544701 125.155817 
L 657.483539 120.231419 
L 658.12818 115.254034 
L 658.476063 110.243436 
L 658.542387 106.894413 
L 658.542387 106.894413 
" clip-path="url(#pec5be11b61)" style="fill: none; stroke: #ff0000; stroke-width: 0.72; stroke-linejoin: miter"/>
   </g>
   <g id="line2d_1">
    <path d="M 75.055694 106.894413 
L 1082.797084 106.894413 
" clip-path="url(#pec5be11b61)" style="fill: none; stroke: #ffffff; stroke-width: 0.72; stroke-linecap: square"/>
   </g>
   <g id="line2d_2">
    <path d="M 273.202208 106.894413 
L 292.640855 106.894413 
" clip-path="url(#pec5be11b61)" style="fill: none; stroke: #ffffff; stroke-width: 0.72; stroke-linecap: square"/>
   </g>
   <g id="patch_11">
    <path d="M 282.921532 98.794977 
L 291.020968 106.894413 
L 282.921532 114.993849 
L 274.822096 106.894413 
L 282.921532 98.794977 
" clip-path="url(#pec5be11b61)" style="fill: none; stroke: #ff0000; stroke-width: 0.72; stroke-linejoin: miter"/>
   </g>
   <g id="line2d_3">
    <path d="M 569.207065 106.894413 
L 588.645712 106.894413 
" clip-path="url(#pec5be11b61)" style="fill: none; stroke: #ffffff; stroke-width: 0.72; stroke-linecap: square"/>
   </g>
   <g id="patch_12">
    <path d="M 578.926389 98.794977 
L 587.025825 106.894413 
L 578.926389 114.993849 
L 570.826952 106.894413 
L 578.926389 98.794977 
" clip-path="url(#pec5be11b61)" style="fill: none; stroke: #ff0000; stroke-width: 0.72; stroke-linejoin: miter"/>
   </g>
   <g id="line2d_4">
    <path d="M 865.211922 106.894413 
L 884.650569 106.894413 
" clip-path="url(#pec5be11b61)" style="fill: none; stroke: #ffffff; stroke-width: 0.72; stroke-linecap: square"/>
   </g>
   <g id="patch_13">
    <path d="M 874.931245 98.794977 
L 883.030682 106.894413 
L 874.931245 114.993849 
L 866.831809 106.894413 
L 874.931245 98.794977 
" clip-path="url(#pec5be11b61)" style="fill: none; stroke: #ff0000; stroke-width: 0.72; stroke-linejoin: miter"/>
   </g>
   <g id="line2d_5">
    <path d="M 52.47566 141.632863 
L 714.415067 184.206543 
" clip-path="url(#pec5be11b61)" style="fill: none; stroke: #ffffff; stroke-width: 0.72; stroke-linecap: square"/>
   </g>
   <g id="line2d_6">
    <path d="M 181.468793 149.92926 
L 200.867359 151.17691 
" clip-path="url(#pec5be11b61)" style="fill: none; stroke: #ffffff; stroke-width: 0.72; stroke-linecap: square"/>
   </g>
   <g id="patch_14">
    <path d="M 191.68793 142.470349 
L 199.250812 151.072939 
L 190.648222 158.635821 
L 183.08534 150.033231 
L 191.68793 142.470349 
" clip-path="url(#pec5be11b61)" style="fill: none; stroke: #ff0000; stroke-width: 0.72; stroke-linejoin: miter"/>
   </g>
   <g id="line2d_7">
    <path d="M 341.699866 160.234775 
L 361.098432 161.482425 
" clip-path="url(#pec5be11b61)" style="fill: none; stroke: #ffffff; stroke-width: 0.72; stroke-linecap: square"/>
   </g>
   <g id="patch_15">
    <path d="M 351.919003 152.775864 
L 359.481885 161.378454 
L 350.879295 168.941336 
L 343.316413 160.338746 
L 351.919003 152.775864 
" clip-path="url(#pec5be11b61)" style="fill: none; stroke: #ff0000; stroke-width: 0.72; stroke-linejoin: miter"/>
   </g>
   <g id="line2d_8">
    <path d="M 583.43388 27.18543 
L 583.43388 25.565543 
" clip-path="url(#pec5be11b61)" style="fill: none; stroke: #ff0000; stroke-width: 0.72; stroke-linecap: square"/>
   </g>
   <g id="line2d_9">
    <path d="M 583.43388 186.603395 
L 583.43388 188.223283 
" clip-path="url(#pec5be11b61)" style="fill: none; stroke: #ff0000; stroke-width: 0.72; stroke-linecap: square"/>
   </g>
   <g id="line2d_10">
    <path d="M 658.542387 106.894413 
L 660.162274 106.894413 
" clip-path="url(#pec5be11b61)" style="fill: none; stroke: #ff0000; stroke-width: 0.72; stroke-linecap: square"/>
   </g>
   <g id="line2d_11">
    <path d="M 508.325372 106.894413 
L 506.705485 106.894413 
" clip-path="url(#pec5be11b61)" style="fill: none; stroke: #ff0000; stroke-width: 0.72; stroke-linecap: square"/>
   </g>
   <g id="line2d_12">
    <path d="M 340.450791 200.861095 
L 340.450791 19.143819 
" clip-path="url(#pec5be11b61)" style="fill: none; stroke: #ffffff; stroke-width: 0.72; stroke-linecap: square"/>
   </g>
   <g id="line2d_13">
    <path d="M 340.450791 143.820592 
L 340.450791 124.381945 
" clip-path="url(#pec5be11b61)" style="fill: none; stroke: #ffffff; stroke-width: 0.72; stroke-linecap: square"/>
   </g>
   <g id="patch_16">
    <path d="M 332.351354 134.101269 
L 340.450791 126.001832 
L 348.550227 134.101269 
L 340.450791 142.200705 
L 332.351354 134.101269 
" clip-path="url(#pec5be11b61)" style="fill: none; stroke: #ff0000; stroke-width: 0.72; stroke-linejoin: miter"/>
   </g>
   <g id="line2d_14">
    <path d="M 340.450791 95.62297 
L 340.450791 76.184322 
" clip-path="url(#pec5be11b61)" style="fill: none; stroke: #ffffff; stroke-width: 0.72; stroke-linecap: square"/>
   </g>
   <g id="patch_17">
    <path d="M 332.351354 85.903646 
L 340.450791 77.80421 
L 348.550227 85.903646 
L 340.450791 94.003082 
L 332.351354 85.903646 
" clip-path="url(#pec5be11b61)" style="fill: none; stroke: #ff0000; stroke-width: 0.72; stroke-linejoin: miter"/>
   </g>
   <g id="line2d_15">
    <path d="M 1069.400058 118.113829 
L 1069.400058 102.5224 
" clip-path="url(#pec5be11b61)" style="fill: none; stroke: #ffffff; stroke-width: 0.72; stroke-linecap: square"/>
   </g>
   <g id="line2d_16">
    <path d="M 1069.400058 120.037438 
L 1069.400058 100.598791 
" clip-path="url(#pec5be11b61)" style="fill: none; stroke: #ffffff; stroke-width: 0.72; stroke-linecap: square"/>
   </g>
   <g id="patch_18">
    <path d="M 1061.300621 110.318115 
L 1069.400058 102.218678 
L 1077.499494 110.318115 
L 1069.400058 118.417551 
L 1061.300621 110.318115 
" clip-path="url(#pec5be11b61)" style="fill: none; stroke: #ff0000; stroke-width: 0.72; stroke-linejoin: miter"/>
   </g>
   <g id="patch_19">
    <path d="M 443.94097 160.441995 
L 452.040406 160.441995 
L 452.040406 168.541432 
L 443.94097 168.541432 
L 452.040406 168.541432 
L 452.040406 176.640868 
L 443.94097 176.640868 
" clip-path="url(#pec5be11b61)" style="fill: none; stroke: #ff0000; stroke-width: 0.72; stroke-linejoin: miter"/>
   </g>
   <g id="patch_20">
    <path d="M 464.18956 160.441995 
L 460.949786 160.441995 
" clip-path="url(#pec5be11b61)" style="fill: none; stroke: #ff0000; stroke-width: 0.72; stroke-linejoin: miter"/>
   </g>
   <g id="patch_21">
    <path d="M 459.329899 160.441995 
L 456.090124 160.441995 
L 456.090124 176.640868 
L 459.329899 176.640868 
" clip-path="url(#pec5be11b61)" style="fill: none; stroke: #ff0000; stroke-width: 0.72; stroke-linejoin: miter"/>
   </g>
   <g id="patch_22">
    <path d="M 460.949786 176.640868 
L 464.18956 176.640868 
L 464.18956 168.541432 
L 460.949786 168.541432 
" clip-path="url(#pec5be11b61)" style="fill: none; stroke: #ff0000; stroke-width: 0.72; stroke-linejoin: miter"/>
   </g>
   <g id="patch_23">
    <path d="M 459.329899 168.541432 
L 456.090124 168.541432 
" clip-path="url(#pec5be11b61)" style="fill: none; stroke: #ff0000; stroke-width: 0.72; stroke-linejoin: miter"/>
   </g>
  </g>
 </g>
 <defs>
  <clipPath id="pec5be11b61">
   <rect x="0" y="0" width="1152" height="214.298533"/>
  </clipPath>
 </defs>
</svg>
