<?xml version="1.0" encoding="utf-8" standalone="no"?>
<!DOCTYPE svg PUBLIC "-//W3C//DTD SVG 1.1//EN"
  "http://www.w3.org/Graphics/SVG/1.1/DTD/svg11.dtd">
<svg xmlns:xlink="http://www.w3.org/1999/xlink" width="1152pt" height="339.549463pt" viewBox="0 0 1152 339.549463" xmlns="http://www.w3.org/2000/svg" version="1.1">
 <metadata>
  <rdf:RDF xmlns:dc="http://purl.org/dc/elements/1.1/" xmlns:cc="http://creativecommons.org/ns#" xmlns:rdf="http://www.w3.org/1999/02/22-rdf-syntax-ns#">
   <cc:Work>
    <dc:type rdf:resource="http://purl.org/dc/dcmitype/StillImage"/>
    <dc:date>2026-01-07T02:07:12.436086</dc:date>
    <dc:format>image/svg+xml</dc:format>
    <dc:creator>
     <cc:Agent>
      <dc:title>Matplotlib v3.10.1, https://matplotlib.org/</dc:title>
     </cc:Agent>
    </dc:creator>
   </cc:Work>
  </rdf:RDF>
 </metadata>
 <defs>
  <style type="text/css">*{stroke-linejoin: round; stroke-linecap: butt}</style>
 </defs>
 <g id="figure_1">
  <g id="patch_1">
   <path d="M 0 339.549463 
L 1152 339.549463 
L 1152 0 
L 0 0 
z
" style="fill: #ffffff"/>
  </g>
  <g id="axes_1">
   <g id="patch_2">
    <path d="M 0 339.549463 
L 1152 339.549463 
L 1152 0 
L 0 0 
z
" style="fill: #212830"/>
   </g>
   <g id="patch_3">
    <path d="M 1099.327908 322.14224 
L 1092.797436 319.786609 
L 1082.053536 315.926267 
L 1070.127955 311.679393 
L 1057.017276 307.09519 
L 1042.668908 302.181764 
L 1027.167623 296.880447 
L 1010.679289 291.212207 
L 993.378652 285.216635 
L 975.407385 278.939705 
L 956.897795 272.428764 
L 937.938885 265.718995 
L 918.605057 258.847974 
L 898.958052 251.839179 
L 879.03899 244.715737 
L 858.901454 237.505977 
L 838.600607 230.233405 
L 818.187993 222.926701 
L 797.697204 215.608446 
L 777.155036 208.292265 
L 756.586219 200.994887 
L 735.997766 193.729184 
L 715.395448 186.502553 
L 694.790558 179.324625 
L 674.189779 172.207158 
L 653.593535 165.158284 
L 633.006107 158.185038 
L 612.433495 151.298166 
L 591.872443 144.507327 
L 581.654225 141.182144 
L 580.955016 143.330799 
L 570.624568 139.969057 
L 550.074891 133.386574 
L 529.520562 126.913883 
L 508.952643 120.555485 
L 488.360973 114.313527 
L 467.738901 108.189567 
L 447.083171 102.184511 
L 426.390759 96.299067 
L 405.65867 90.536083 
L 384.885245 84.89868 
L 364.070499 79.389821 
L 343.21507 74.012154 
L 322.319206 68.769642 
L 301.382605 63.66821 
L 280.405482 58.712727 
L 259.387481 53.905716 
L 238.329784 49.250486 
L 217.230834 44.752293 
L 196.09029 40.413719 
L 174.909446 36.235151 
L 153.690937 32.21784 
L 132.43677 28.365243 
L 111.14797 24.680799 
L 89.826046 21.164884 
L 68.471479 17.819973 
L 52.363636 15.434066 
L 52.363636 283.61289 
L 71.954115 283.728704 
L 96.480381 283.879755 
L 120.927376 284.011218 
L 145.314486 284.107313 
L 169.658909 284.188616 
L 193.930989 284.298494 
L 218.15891 284.454794 
L 242.359455 284.640055 
L 266.503941 284.829948 
L 290.528992 285.039274 
L 314.398823 285.304415 
L 338.158199 285.63873 
L 361.811451 285.996895 
L 385.311685 286.313814 
L 408.736299 286.566761 
L 432.110811 286.804875 
L 455.392556 287.094073 
L 478.625846 287.455477 
L 501.834013 287.85412 
L 524.934651 288.258276 
L 547.838978 288.690454 
L 570.545448 289.203129 
L 593.16341 289.815631 
L 615.761175 290.486322 
L 638.283962 291.16371 
L 660.624015 291.847159 
L 682.707822 292.590791 
L 704.612939 293.438501 
L 726.450594 294.379531 
L 748.233721 295.361168 
L 769.843645 296.344185 
L 791.154444 297.351687 
L 812.15215 298.449645 
L 832.958947 299.683021 
L 853.697546 301.024569 
L 874.339334 302.400939 
L 894.710081 303.781542 
L 914.68952 305.207602 
L 934.280545 306.712904 
L 953.478263 308.283591 
L 972.205015 309.898847 
L 990.347138 311.54939 
L 1007.785883 313.241994 
L 1024.444325 314.99778 
L 1040.271984 316.792233 
L 1055.148006 318.546873 
L 1068.90876 320.200875 
L 1081.444683 321.756141 
L 1092.754345 323.212492 
L 1099.636364 324.115396 
L 1099.327908 322.14224 
" clip-path="url(#p36e5240ce7)" style="fill: none; stroke: #ff0000; stroke-width: 0.72; stroke-linejoin: miter"/>
   </g>
   <g id="patch_4">
    <path d="M 489.040998 218.487419 
L 500.338799 218.487419 
L 500.338799 229.785221 
L 489.040998 229.785221 
L 489.040998 241.083022 
L 500.338799 241.083022 
" clip-path="url(#p36e5240ce7)" style="fill: none; stroke: #ff0000; stroke-width: 0.72; stroke-linejoin: miter"/>
   </g>
   <g id="patch_5">
    <path d="M 517.285502 229.785221 
L 512.766381 229.785221 
" clip-path="url(#p36e5240ce7)" style="fill: none; stroke: #ff0000; stroke-width: 0.72; stroke-linejoin: miter"/>
   </g>
   <g id="patch_6">
    <path d="M 510.506821 229.785221 
L 505.9877 229.785221 
L 505.9877 218.487419 
L 510.506821 218.487419 
" clip-path="url(#p36e5240ce7)" style="fill: none; stroke: #ff0000; stroke-width: 0.72; stroke-linejoin: miter"/>
   </g>
   <g id="patch_7">
    <path d="M 512.766381 218.487419 
L 517.285502 218.487419 
L 517.285502 241.083022 
L 512.766381 241.083022 
" clip-path="url(#p36e5240ce7)" style="fill: none; stroke: #ff0000; stroke-width: 0.72; stroke-linejoin: miter"/>
   </g>
   <g id="patch_8">
    <path d="M 510.506821 241.083022 
L 505.9877 241.083022 
" clip-path="url(#p36e5240ce7)" style="fill: none; stroke: #ff0000; stroke-width: 0.72; stroke-linejoin: miter"/>
   </g>
   <g id="patch_9">
    <path d="M 375.392575 91.73579 
L 366.655157 89.423363 
L 368.967584 80.685944 
L 377.705003 82.998372 
L 375.392575 91.73579 
" clip-path="url(#p36e5240ce7)" style="fill: none; stroke: #ff0000; stroke-width: 0.72; stroke-linejoin: miter"/>
   </g>
   <g id="patch_10">
    <path d="M 242.256352 124.121161 
L 253.554154 135.418962 
L 242.256352 146.716764 
L 230.958551 135.418962 
L 242.256352 124.121161 
" clip-path="url(#p36e5240ce7)" style="fill: none; stroke: #ff0000; stroke-width: 0.72; stroke-linejoin: miter"/>
   </g>
   <g id="patch_11">
    <path d="M 465.340184 221.211107 
L 476.637986 209.913305 
L 487.935787 221.211107 
L 476.637986 232.508908 
L 465.340184 221.211107 
" clip-path="url(#p36e5240ce7)" style="fill: none; stroke: #ff0000; stroke-width: 0.72; stroke-linejoin: miter"/>
   </g>
   <g id="patch_12">
    <path d="M 465.340184 177.045701 
L 476.637986 165.747899 
L 487.935787 177.045701 
L 476.637986 188.343502 
L 465.340184 177.045701 
" clip-path="url(#p36e5240ce7)" style="fill: none; stroke: #ff0000; stroke-width: 0.72; stroke-linejoin: miter"/>
   </g>
   <g id="line2d_1">
    <path d="M 1056.952071 307.072861 
L 1056.221913 309.211197 
" clip-path="url(#p36e5240ce7)" style="fill: none; stroke: #ff0000; stroke-width: 0.72; stroke-linecap: square"/>
   </g>
   <g id="line2d_2">
    <path d="M 1054.799841 316.233071 
L 1054.640389 318.486999 
" clip-path="url(#p36e5240ce7)" style="fill: none; stroke: #ff0000; stroke-width: 0.72; stroke-linecap: square"/>
   </g>
   <g id="line2d_3">
    <path d="M 1014.201312 292.422982 
L 1013.469986 294.560919 
" clip-path="url(#p36e5240ce7)" style="fill: none; stroke: #ff0000; stroke-width: 0.72; stroke-linecap: square"/>
   </g>
   <g id="line2d_4">
    <path d="M 1009.91777 311.194834 
L 1009.711995 313.445005 
" clip-path="url(#p36e5240ce7)" style="fill: none; stroke: #ff0000; stroke-width: 0.72; stroke-linecap: square"/>
   </g>
   <g id="line2d_5">
    <path d="M 843.796848 232.094906 
L 843.050339 234.227589 
" clip-path="url(#p36e5240ce7)" style="fill: none; stroke: #ff0000; stroke-width: 0.72; stroke-linecap: square"/>
   </g>
   <g id="line2d_6">
    <path d="M 829.666868 297.224934 
L 829.481875 299.476908 
" clip-path="url(#p36e5240ce7)" style="fill: none; stroke: #ff0000; stroke-width: 0.72; stroke-linecap: square"/>
   </g>
   <g id="line2d_7">
    <path d="M 52.363636 135.418962 
L 556.419749 135.418962 
" clip-path="url(#p36e5240ce7)" style="fill: none; stroke: #ffffff; stroke-width: 0.72; stroke-linecap: square"/>
   </g>
   <g id="line2d_8">
    <path d="M 228.69899 135.418962 
L 255.813714 135.418962 
" clip-path="url(#p36e5240ce7)" style="fill: none; stroke: #ffffff; stroke-width: 0.72; stroke-linecap: square"/>
   </g>
   <g id="line2d_9">
    <path d="M 52.363636 254.178274 
L 1097.669225 321.54393 
" clip-path="url(#p36e5240ce7)" style="fill: none; stroke: #ffffff; stroke-width: 0.72; stroke-linecap: square"/>
   </g>
   <g id="line2d_10">
    <path d="M 476.637986 287.424555 
L 476.637986 110.832252 
" clip-path="url(#p36e5240ce7)" style="fill: none; stroke: #ffffff; stroke-width: 0.72; stroke-linecap: square"/>
   </g>
   <g id="line2d_11">
    <path d="M 476.637986 234.768468 
L 476.637986 207.653745 
" clip-path="url(#p36e5240ce7)" style="fill: none; stroke: #ffffff; stroke-width: 0.72; stroke-linecap: square"/>
   </g>
   <g id="line2d_12">
    <path d="M 476.637986 190.603063 
L 476.637986 163.488339 
" clip-path="url(#p36e5240ce7)" style="fill: none; stroke: #ffffff; stroke-width: 0.72; stroke-linecap: square"/>
   </g>
  </g>
 </g>
 <defs>
  <clipPath id="p36e5240ce7">
   <rect x="0" y="0" width="1152" height="339.549463"/>
  </clipPath>
 </defs>
</svg>
