<?xml version="1.0" encoding="utf-8" standalone="no"?>
<!DOCTYPE svg PUBLIC "-//W3C//DTD SVG 1.1//EN"
  "http://www.w3.org/Graphics/SVG/1.1/DTD/svg11.dtd">
<svg xmlns:xlink="http://www.w3.org/1999/xlink" width="1152pt" height="211.407413pt" viewBox="0 0 1152 211.407413" xmlns="http://www.w3.org/2000/svg" version="1.1">
 <metadata>
  <rdf:RDF xmlns:dc="http://purl.org/dc/elements/1.1/" xmlns:cc="http://creativecommons.org/ns#" xmlns:rdf="http://www.w3.org/1999/02/22-rdf-syntax-ns#">
   <cc:Work>
    <dc:type rdf:resource="http://purl.org/dc/dcmitype/StillImage"/>
    <dc:date>2026-01-07T02:07:21.406326</dc:date>
    <dc:format>image/svg+xml</dc:format>
    <dc:creator>
     <cc:Agent>
      <dc:title>Matplotlib v3.10.1, https://matplotlib.org/</dc:title>
     </cc:Agent>
    </dc:creator>
   </cc:Work>
  </rdf:RDF>
 </metadata>
 <defs>
  <style type="text/css">*{stroke-linejoin: round; stroke-linecap: butt}</style>
 </defs>
 <g id="figure_1">
  <g id="patch_1">
   <path d="M 0 211.407413 
L 1152 211.407413 
L 1152 0 
L 0 0 
z
" style="fill: #ffffff"/>
  </g>
  <g id="axes_1">
   <g id="patch_2">
    <path d="M 0 211.407413 
L 1152 211.407413 
L 1152 0 
L 0 0 
z
" style="fill: #212830"/>
   </g>
   <g id="patch_3">
    <path d="M 1099.636364 110.142594 
L 1074.929518 102.147794 
L 1047.295281 93.509325 
L 1019.840077 85.279873 
L 992.493936 77.46587 
L 965.216748 70.078032 
L 937.945927 63.11425 
L 910.667137 56.569619 
L 883.35264 50.452101 
L 855.989879 44.756435 
L 828.572701 39.492484 
L 801.094699 34.649129 
L 773.563132 30.236975 
L 745.975253 26.253827 
L 718.319013 22.703035 
L 690.579779 19.571705 
L 662.788495 16.861573 
L 634.957734 14.571306 
L 607.128605 12.703061 
L 579.32874 11.265064 
L 565.456939 10.708131 
L 551.604859 10.265172 
L 523.967371 9.714341 
L 510.197336 9.609428 
L 496.461926 9.621588 
L 482.763944 9.750081 
L 469.112724 9.996024 
L 455.514027 10.364146 
L 441.965067 10.856138 
L 428.475375 11.469815 
L 415.04926 12.21061 
L 401.694179 13.075848 
L 388.418264 14.071218 
L 375.222264 15.197162 
L 362.121271 16.452858 
L 349.121077 17.844548 
L 336.224922 19.373198 
L 323.441412 21.03717 
L 310.787137 22.8353 
L 298.271944 24.773117 
L 285.901177 26.848684 
L 273.698673 29.05322 
L 261.692028 31.384685 
L 249.902214 33.844037 
L 238.347432 36.427264 
L 227.056067 39.12381 
L 216.060572 41.925879 
L 205.381149 44.829143 
L 195.044975 47.814239 
L 185.084872 50.864125 
L 175.527538 53.963973 
L 166.394177 57.097556 
L 157.701811 60.244312 
L 149.463602 63.389819 
L 141.676025 66.524564 
L 134.333967 69.633034 
L 127.424421 72.703892 
L 120.943372 75.724213 
L 114.868773 78.704353 
L 109.178654 81.635885 
L 103.859147 84.516071 
L 98.893727 87.344652 
L 94.274803 90.12057 
L 89.994966 92.84347 
L 86.038513 95.516953 
L 82.406673 98.117517 
L 79.093596 100.644088 
L 76.083236 103.09727 
L 70.870872 107.786501 
L 66.531394 112.211277 
L 62.91708 116.312504 
L 59.959874 120.135795 
L 57.605605 123.783503 
L 55.749457 127.321917 
L 54.308649 130.728673 
L 53.259319 133.949609 
L 52.626472 136.966555 
L 52.363636 139.93835 
L 52.468874 142.890243 
L 52.682494 144.3696 
L 53.019251 145.843315 
L 53.49665 147.315714 
L 54.133294 148.794704 
L 54.940053 150.281901 
L 55.917008 151.770562 
L 57.060016 153.249821 
L 58.370435 154.710729 
L 59.860997 156.15004 
L 61.553084 157.570827 
L 63.456419 158.973306 
L 65.576292 160.353122 
L 67.938423 161.710031 
L 70.567903 163.051031 
L 73.461521 164.380475 
L 76.600438 165.689216 
L 79.994765 166.963203 
L 87.530091 169.412526 
L 96.006682 171.724874 
L 105.522465 173.978287 
L 116.107363 176.192395 
L 128.103598 178.383485 
L 141.743454 180.600501 
L 157.396608 182.801184 
L 175.423399 184.97972 
L 195.987673 187.086881 
L 218.995917 189.046324 
L 244.140713 190.775085 
L 270.957694 192.255932 
L 299.017195 193.477453 
L 325.400778 194.370725 
L 325.294206 197.75384 
L 357.691507 198.679899 
L 387.675459 199.377879 
L 433.351378 200.109023 
L 494.843839 200.944748 
L 588.016602 201.67426 
L 604.955175 201.797985 
L 1099.636364 110.142594 
L 1099.636364 110.142594 
" clip-path="url(#p4b9c5eac4e)" style="fill: none; stroke: #ff0000; stroke-width: 0.72; stroke-linejoin: miter"/>
   </g>
   <g id="patch_4">
    <path d="M 964.51993 79.221782 
L 955.782519 76.957194 
L 958.047106 68.219783 
L 966.784518 70.484371 
L 964.51993 79.221782 
" clip-path="url(#p4b9c5eac4e)" style="fill: none; stroke: #ff0000; stroke-width: 0.72; stroke-linejoin: miter"/>
   </g>
   <g id="patch_5">
    <path d="M 440.121463 19.975482 
L 431.10468 20.385782 
L 430.694381 11.368999 
L 439.711163 10.9587 
L 440.121463 19.975482 
" clip-path="url(#p4b9c5eac4e)" style="fill: none; stroke: #ff0000; stroke-width: 0.72; stroke-linejoin: miter"/>
   </g>
   <g id="patch_6">
    <path d="M 202.635303 55.017365 
L 193.963686 57.522114 
L 191.458937 48.850496 
L 200.130555 46.345748 
L 202.635303 55.017365 
" clip-path="url(#p4b9c5eac4e)" style="fill: none; stroke: #ff0000; stroke-width: 0.72; stroke-linejoin: miter"/>
   </g>
   <g id="patch_7">
    <path d="M 83.669684 111.451449 
L 80.270066 114.41966 
L 72.849539 105.920615 
L 76.249157 102.952404 
L 83.669684 111.451449 
" clip-path="url(#p4b9c5eac4e)" style="fill: none; stroke: #ff0000; stroke-width: 0.72; stroke-linejoin: miter"/>
   </g>
   <g id="patch_8">
    <path d="M 68.460811 148.645176 
L 72.100418 151.313686 
L 65.429142 160.412701 
L 61.789536 157.744191 
L 68.460811 148.645176 
" clip-path="url(#p4b9c5eac4e)" style="fill: none; stroke: #ff0000; stroke-width: 0.72; stroke-linejoin: miter"/>
   </g>
   <g id="patch_9">
    <path d="M 251.717449 182.177002 
L 260.72814 182.704411 
L 260.20073 191.715102 
L 251.190039 191.187693 
L 251.717449 182.177002 
" clip-path="url(#p4b9c5eac4e)" style="fill: none; stroke: #ff0000; stroke-width: 0.72; stroke-linejoin: miter"/>
   </g>
   <g id="patch_10">
    <path d="M 667.001656 104.965073 
L 666.927453 101.406614 
L 666.704976 97.85444 
L 666.334618 94.314823 
L 665.817033 90.794016 
L 665.153135 87.298237 
L 664.344096 83.833658 
L 663.391345 80.4064 
L 662.296565 77.022514 
L 661.061689 73.687978 
L 659.688899 70.40868 
L 658.180619 67.190412 
L 656.539512 64.038857 
L 654.768476 60.959582 
L 652.870641 57.958024 
L 650.849357 55.039485 
L 648.708194 52.20912 
L 646.450934 49.471926 
L 644.081563 46.832739 
L 641.604266 44.296218 
L 639.023417 41.866844 
L 636.343576 39.548908 
L 633.569474 37.346502 
L 630.706012 35.263518 
L 627.758245 33.303632 
L 624.731381 31.470307 
L 621.630765 29.766781 
L 618.461873 28.196062 
L 615.230301 26.760925 
L 611.941757 25.463902 
L 608.602048 24.307287 
L 605.217074 23.29312 
L 601.792811 22.423194 
L 598.335308 21.699044 
L 594.850671 21.12195 
L 591.345054 20.69293 
L 587.824648 20.412743 
L 584.295671 20.281883 
L 580.764355 20.300582 
L 577.236937 20.468805 
L 573.719646 20.786257 
L 570.218695 21.252377 
L 566.740266 21.866341 
L 563.290503 22.627065 
L 559.875498 23.533205 
L 556.501283 24.583162 
L 553.173816 25.77508 
L 549.898974 27.106856 
L 546.682541 28.576136 
L 543.530198 30.180326 
L 540.447511 31.916593 
L 537.439925 33.78187 
L 534.512753 35.772863 
L 531.671162 37.886056 
L 528.920173 40.117717 
L 526.264642 42.463905 
L 523.709262 44.920475 
L 521.258543 47.483089 
L 518.916815 50.147222 
L 516.688213 52.908169 
L 514.576674 55.761053 
L 512.585926 58.700835 
L 510.719485 61.722325 
L 508.980647 64.820185 
L 507.372484 67.988944 
L 505.897836 71.223007 
L 504.559307 74.516662 
L 503.35926 77.864091 
L 502.299816 81.259383 
L 501.382845 84.696542 
L 500.609967 88.169497 
L 499.982547 91.672114 
L 499.501693 95.198208 
L 499.168254 98.741551 
L 498.982819 102.295885 
L 498.945716 105.854933 
L 499.05701 109.41241 
L 499.316504 112.962033 
L 499.72374 116.497532 
L 500.278 120.012663 
L 500.978303 123.501219 
L 501.823414 126.957039 
L 502.81184 130.374019 
L 503.941835 133.746124 
L 505.211403 137.067399 
L 506.618302 140.331979 
L 508.160049 143.534097 
L 509.833918 146.668099 
L 511.636956 149.72845 
L 513.565976 152.709744 
L 515.617573 155.606717 
L 517.788123 158.414252 
L 520.073792 161.12739 
L 522.470545 163.741341 
L 524.974147 166.251488 
L 527.580178 168.653397 
L 530.284035 170.942826 
L 533.080942 173.115733 
L 535.965961 175.16828 
L 538.933995 177.096841 
L 541.979804 178.89801 
L 545.098007 180.568608 
L 548.283099 182.105682 
L 551.529453 183.506519 
L 554.831336 184.768645 
L 558.182917 185.88983 
L 561.578277 186.868095 
L 565.011419 187.701711 
L 568.47628 188.389206 
L 571.966741 188.929367 
L 575.476637 189.32124 
L 578.999769 189.564131 
L 582.529916 189.657613 
L 586.060842 189.60152 
L 589.586312 189.395951 
L 593.100099 189.041269 
L 596.595998 188.538101 
L 600.067834 187.887335 
L 603.509477 187.090121 
L 606.914847 186.147867 
L 610.277932 185.062236 
L 613.59279 183.835146 
L 616.853567 182.468765 
L 620.054506 180.965504 
L 623.189953 179.32802 
L 626.25437 177.559204 
L 629.242345 175.66218 
L 632.148601 173.640299 
L 634.968005 171.497131 
L 637.695579 169.23646 
L 640.326505 166.862281 
L 642.856136 164.378786 
L 645.280005 161.79036 
L 647.593832 159.101576 
L 649.793529 156.317182 
L 651.875212 153.442095 
L 653.835204 150.481393 
L 655.670045 147.440305 
L 657.376493 144.324202 
L 658.951534 141.138587 
L 660.392388 137.889086 
L 661.696508 134.581439 
L 662.861593 131.221486 
L 663.885585 127.815162 
L 664.766674 124.368483 
L 665.503306 120.887535 
L 666.094178 117.378467 
L 666.538248 113.847476 
L 666.834731 110.300797 
L 666.983103 106.744696 
L 667.001656 104.965073 
L 667.001656 104.965073 
" clip-path="url(#p4b9c5eac4e)" style="fill: none; stroke: #ff0000; stroke-width: 0.72; stroke-linejoin: miter"/>
   </g>
   <g id="line2d_1">
    <path d="M 73.941915 104.965073 
L 1083.695966 104.965073 
" clip-path="url(#p4b9c5eac4e)" style="fill: none; stroke: #ffffff; stroke-width: 0.72; stroke-linecap: square"/>
   </g>
   <g id="line2d_2">
    <path d="M 271.154016 104.965073 
L 298.232355 104.965073 
" clip-path="url(#p4b9c5eac4e)" style="fill: none; stroke: #ffffff; stroke-width: 0.72; stroke-linecap: square"/>
   </g>
   <g id="patch_11">
    <path d="M 284.693185 93.682432 
L 295.975826 104.965073 
L 284.693185 116.247714 
L 273.410544 104.965073 
L 284.693185 93.682432 
" clip-path="url(#p4b9c5eac4e)" style="fill: none; stroke: #ff0000; stroke-width: 0.72; stroke-linejoin: miter"/>
   </g>
   <g id="line2d_3">
    <path d="M 565.279772 104.965073 
L 592.35811 104.965073 
" clip-path="url(#p4b9c5eac4e)" style="fill: none; stroke: #ffffff; stroke-width: 0.72; stroke-linecap: square"/>
   </g>
   <g id="patch_12">
    <path d="M 578.818941 93.682432 
L 590.101582 104.965073 
L 578.818941 116.247714 
L 567.5363 104.965073 
L 578.818941 93.682432 
" clip-path="url(#p4b9c5eac4e)" style="fill: none; stroke: #ff0000; stroke-width: 0.72; stroke-linejoin: miter"/>
   </g>
   <g id="line2d_4">
    <path d="M 859.405527 104.965073 
L 886.483865 104.965073 
" clip-path="url(#p4b9c5eac4e)" style="fill: none; stroke: #ffffff; stroke-width: 0.72; stroke-linecap: square"/>
   </g>
   <g id="patch_13">
    <path d="M 872.944696 93.682432 
L 884.227337 104.965073 
L 872.944696 116.247714 
L 861.662055 104.965073 
L 872.944696 93.682432 
" clip-path="url(#p4b9c5eac4e)" style="fill: none; stroke: #ff0000; stroke-width: 0.72; stroke-linejoin: miter"/>
   </g>
   <g id="line2d_5">
    <path d="M 52.476176 138.266414 
L 723.249328 179.880238 
" clip-path="url(#p4b9c5eac4e)" style="fill: none; stroke: #ffffff; stroke-width: 0.72; stroke-linecap: square"/>
   </g>
   <g id="line2d_6">
    <path d="M 181.90119 146.29576 
L 208.927569 147.972438 
" clip-path="url(#p4b9c5eac4e)" style="fill: none; stroke: #ffffff; stroke-width: 0.72; stroke-linecap: square"/>
   </g>
   <g id="patch_14">
    <path d="M 196.112996 135.873108 
L 206.675371 147.832715 
L 194.715763 158.39509 
L 184.153388 146.435483 
L 196.112996 135.873108 
" clip-path="url(#p4b9c5eac4e)" style="fill: none; stroke: #ff0000; stroke-width: 0.72; stroke-linejoin: miter"/>
   </g>
   <g id="line2d_7">
    <path d="M 342.274834 156.245116 
L 369.301213 157.921794 
" clip-path="url(#p4b9c5eac4e)" style="fill: none; stroke: #ffffff; stroke-width: 0.72; stroke-linecap: square"/>
   </g>
   <g id="patch_15">
    <path d="M 356.486639 145.822464 
L 367.049015 157.782071 
L 355.089407 168.344446 
L 344.527032 156.384839 
L 356.486639 145.822464 
" clip-path="url(#p4b9c5eac4e)" style="fill: none; stroke: #ff0000; stroke-width: 0.72; stroke-linejoin: miter"/>
   </g>
   <g id="line2d_8">
    <path d="M 582.971367 20.271365 
L 582.971367 18.014837 
" clip-path="url(#p4b9c5eac4e)" style="fill: none; stroke: #ff0000; stroke-width: 0.72; stroke-linecap: square"/>
   </g>
   <g id="line2d_9">
    <path d="M 582.971367 189.658782 
L 582.971367 191.91531 
" clip-path="url(#p4b9c5eac4e)" style="fill: none; stroke: #ff0000; stroke-width: 0.72; stroke-linecap: square"/>
   </g>
   <g id="line2d_10">
    <path d="M 667.001656 104.965073 
L 669.258184 104.965073 
" clip-path="url(#p4b9c5eac4e)" style="fill: none; stroke: #ff0000; stroke-width: 0.72; stroke-linecap: square"/>
   </g>
   <g id="line2d_11">
    <path d="M 498.941078 104.965073 
L 496.684549 104.965073 
" clip-path="url(#p4b9c5eac4e)" style="fill: none; stroke: #ff0000; stroke-width: 0.72; stroke-linecap: square"/>
   </g>
   <g id="line2d_12">
    <path d="M 402.449112 199.639432 
L 402.449112 13.026938 
" clip-path="url(#p4b9c5eac4e)" style="fill: none; stroke: #ffffff; stroke-width: 0.72; stroke-linecap: square"/>
   </g>
   <g id="line2d_13">
    <path d="M 402.449112 143.463998 
L 402.449112 116.38566 
" clip-path="url(#p4b9c5eac4e)" style="fill: none; stroke: #ffffff; stroke-width: 0.72; stroke-linecap: square"/>
   </g>
   <g id="patch_16">
    <path d="M 391.166471 129.924829 
L 402.449112 118.642188 
L 413.731753 129.924829 
L 402.449112 141.20747 
L 391.166471 129.924829 
" clip-path="url(#p4b9c5eac4e)" style="fill: none; stroke: #ff0000; stroke-width: 0.72; stroke-linejoin: miter"/>
   </g>
   <g id="line2d_14">
    <path d="M 402.449112 96.28071 
L 402.449112 69.202372 
" clip-path="url(#p4b9c5eac4e)" style="fill: none; stroke: #ffffff; stroke-width: 0.72; stroke-linecap: square"/>
   </g>
   <g id="patch_17">
    <path d="M 391.166471 82.741541 
L 402.449112 71.4589 
L 413.731753 82.741541 
L 402.449112 94.024182 
L 391.166471 82.741541 
" clip-path="url(#p4b9c5eac4e)" style="fill: none; stroke: #ff0000; stroke-width: 0.72; stroke-linejoin: miter"/>
   </g>
   <g id="line2d_15">
    <path d="M 876.320032 151.519033 
L 876.320032 48.960863 
" clip-path="url(#p4b9c5eac4e)" style="fill: none; stroke: #ffffff; stroke-width: 0.72; stroke-linecap: square"/>
   </g>
   <g id="line2d_16">
    <path d="M 876.320032 124.762612 
L 876.320032 97.684274 
" clip-path="url(#p4b9c5eac4e)" style="fill: none; stroke: #ffffff; stroke-width: 0.72; stroke-linecap: square"/>
   </g>
   <g id="patch_18">
    <path d="M 865.037391 111.223443 
L 876.320032 99.940802 
L 887.602672 111.223443 
L 876.320032 122.506084 
L 865.037391 111.223443 
" clip-path="url(#p4b9c5eac4e)" style="fill: none; stroke: #ff0000; stroke-width: 0.72; stroke-linejoin: miter"/>
   </g>
   <g id="line2d_17">
    <path d="M 876.320032 102.795621 
L 876.320032 75.717283 
" clip-path="url(#p4b9c5eac4e)" style="fill: none; stroke: #ffffff; stroke-width: 0.72; stroke-linecap: square"/>
   </g>
   <g id="patch_19">
    <path d="M 865.037391 89.256452 
L 876.320032 77.973811 
L 887.602672 89.256452 
L 876.320032 100.539093 
L 865.037391 89.256452 
" clip-path="url(#p4b9c5eac4e)" style="fill: none; stroke: #ff0000; stroke-width: 0.72; stroke-linejoin: miter"/>
   </g>
   <g id="patch_20">
    <path d="M 454.566632 152.243479 
L 443.283991 152.243479 
L 443.283991 163.52612 
L 454.566632 163.52612 
L 454.566632 174.808761 
L 443.283991 174.808761 
" clip-path="url(#p4b9c5eac4e)" style="fill: none; stroke: #ff0000; stroke-width: 0.72; stroke-linejoin: miter"/>
   </g>
   <g id="patch_21">
    <path d="M 464.721009 152.243479 
L 460.207952 152.243479 
L 460.207952 174.808761 
L 464.721009 174.808761 
" clip-path="url(#p4b9c5eac4e)" style="fill: none; stroke: #ff0000; stroke-width: 0.72; stroke-linejoin: miter"/>
   </g>
   <g id="patch_22">
    <path d="M 466.977537 174.808761 
L 471.490593 174.808761 
L 471.490593 152.243479 
L 466.977537 152.243479 
" clip-path="url(#p4b9c5eac4e)" style="fill: none; stroke: #ff0000; stroke-width: 0.72; stroke-linejoin: miter"/>
   </g>
   <g id="patch_23">
    <path d="M 460.207952 163.52612 
L 464.721009 163.52612 
" clip-path="url(#p4b9c5eac4e)" style="fill: none; stroke: #ff0000; stroke-width: 0.72; stroke-linejoin: miter"/>
   </g>
   <g id="patch_24">
    <path d="M 466.977537 163.52612 
L 471.490593 163.52612 
" clip-path="url(#p4b9c5eac4e)" style="fill: none; stroke: #ff0000; stroke-width: 0.72; stroke-linejoin: miter"/>
   </g>
  </g>
 </g>
 <defs>
  <clipPath id="p4b9c5eac4e">
   <rect x="0" y="0" width="1152" height="211.407413"/>
  </clipPath>
 </defs>
</svg>
