<?xml version="1.0" encoding="utf-8" standalone="no"?>
<!DOCTYPE svg PUBLIC "-//W3C//DTD SVG 1.1//EN"
  "http://www.w3.org/Graphics/SVG/1.1/DTD/svg11.dtd">
<svg xmlns:xlink="http://www.w3.org/1999/xlink" width="1152pt" height="321.839841pt" viewBox="0 0 1152 321.839841" xmlns="http://www.w3.org/2000/svg" version="1.1">
 <metadata>
  <rdf:RDF xmlns:dc="http://purl.org/dc/elements/1.1/" xmlns:cc="http://creativecommons.org/ns#" xmlns:rdf="http://www.w3.org/1999/02/22-rdf-syntax-ns#">
   <cc:Work>
    <dc:type rdf:resource="http://purl.org/dc/dcmitype/StillImage"/>
    <dc:date>2026-01-07T02:07:12.358378</dc:date>
    <dc:format>image/svg+xml</dc:format>
    <dc:creator>
     <cc:Agent>
      <dc:title>Matplotlib v3.10.1, https://matplotlib.org/</dc:title>
     </cc:Agent>
    </dc:creator>
   </cc:Work>
  </rdf:RDF>
 </metadata>
 <defs>
  <style type="text/css">*{stroke-linejoin: round; stroke-linecap: butt}</style>
 </defs>
 <g id="figure_1">
  <g id="patch_1">
   <path d="M 0 321.839841 
L 1152 321.839841 
L 1152 0 
L 0 0 
z
" style="fill: #ffffff"/>
  </g>
  <g id="axes_1">
   <g id="patch_2">
    <path d="M 0 321.839841 
L 1152 321.839841 
L 1152 0 
L 0 0 
z
" style="fill: #212830"/>
   </g>
   <g id="patch_3">
    <path d="M 1099.636364 41.850007 
L 1094.409018 41.075728 
L 1073.203219 38.11963 
L 1051.955098 35.341226 
L 1030.665756 32.734604 
L 1009.340747 30.294694 
L 987.991601 28.019717 
L 966.633611 25.913503 
L 945.275903 23.982992 
L 923.918118 22.233599 
L 902.560216 20.664168 
L 881.2115 19.272145 
L 859.884122 18.056996 
L 838.584115 17.022298 
L 817.315935 16.16959 
L 796.089876 15.500921 
L 774.914237 15.020292 
L 753.790474 14.730581 
L 732.720445 14.629084 
L 711.718994 14.712637 
L 690.80334 14.985123 
L 669.978416 15.455418 
L 649.244817 16.126318 
L 628.611369 16.995072 
L 608.092666 18.06086 
L 587.697252 19.325304 
L 567.437742 20.786674 
L 547.336898 22.447189 
L 527.409509 24.317756 
L 507.655849 26.406335 
L 488.080898 28.707376 
L 468.705508 31.212037 
L 449.554001 33.917276 
L 430.650087 36.823074 
L 412.028396 39.927886 
L 393.720421 43.237265 
L 375.740249 46.752395 
L 358.10871 50.453259 
L 340.877551 54.311979 
L 324.103977 58.317748 
L 307.829839 62.467484 
L 292.09014 66.749455 
L 276.915143 71.145333 
L 262.326896 75.627726 
L 248.356486 80.15252 
L 235.04876 84.681882 
L 222.431049 89.205324 
L 210.495068 93.719956 
L 199.216765 98.206239 
L 188.576409 102.637564 
L 178.555516 106.997888 
L 169.130765 111.280644 
L 160.27389 115.480891 
L 151.955746 119.596413 
L 144.144548 123.633786 
L 136.803699 127.603305 
L 129.896852 131.510535 
L 123.39281 135.354512 
L 117.269948 139.13187 
L 111.5122 142.84646 
L 106.102498 146.509392 
L 101.018086 150.13264 
L 96.235009 153.71561 
L 91.732926 157.250723 
L 87.495365 160.728596 
L 83.510009 164.146397 
L 79.772898 167.502246 
L 76.288922 170.802657 
L 73.065762 174.057261 
L 70.106354 177.280211 
L 67.404664 180.482911 
L 64.948494 183.666764 
L 62.719341 186.832519 
L 60.699876 189.971827 
L 58.883736 193.065356 
L 57.281616 196.085054 
L 55.910129 199.022609 
L 54.775661 201.898515 
L 53.871254 204.736505 
L 53.184646 207.537988 
L 52.705498 210.281055 
L 52.422863 213.153868 
L 52.363636 215.715171 
L 52.521096 218.395867 
L 52.917119 221.027841 
L 53.57598 223.608056 
L 54.526258 226.152374 
L 55.785574 228.676749 
L 57.3486 231.180449 
L 59.194563 233.645658 
L 61.313357 236.054254 
L 63.714606 238.397828 
L 66.415844 240.675851 
L 69.422883 242.888081 
L 72.733669 245.033983 
L 76.347088 247.116141 
L 80.26819 249.142087 
L 84.498131 251.11943 
L 89.04041 253.051774 
L 93.901427 254.939513 
L 99.095769 256.782686 
L 104.639246 258.585248 
L 110.549708 260.354307 
L 116.849029 262.098788 
L 123.559468 263.828062 
L 130.707268 265.546777 
L 138.326056 267.254919 
L 146.461449 268.952506 
L 155.163119 270.644671 
L 164.48163 272.337787 
L 174.469062 274.033987 
L 185.186912 275.72988 
L 196.702279 277.42182 
L 209.077724 279.110205 
L 222.363731 280.793094 
L 236.598822 282.45934 
L 251.808266 284.093708 
L 267.994887 285.685495 
L 285.126494 287.225072 
L 303.145419 288.694847 
L 321.986035 290.080686 
L 341.566194 291.379583 
L 361.789919 292.585907 
L 382.578987 293.692317 
L 403.86684 294.702685 
L 425.584855 295.621266 
L 462.639585 296.937096 
L 462.565962 299.1717 
L 492.925928 300.112737 
L 539.067249 301.374067 
L 585.744203 302.314389 
L 705.215061 304.145578 
L 753.401387 304.654394 
L 924.202517 306.106475 
L 1099.636364 307.210757 
L 1099.636364 41.850007 
L 1099.636364 41.850007 
" clip-path="url(#p95bce1d439)" style="fill: none; stroke: #ff0000; stroke-width: 0.72; stroke-linejoin: miter"/>
   </g>
   <g id="patch_4">
    <path d="M 639.599983 242.769637 
L 650.779066 242.769637 
L 650.779066 253.948719 
L 639.599983 253.948719 
L 639.599983 265.127801 
L 650.779066 265.127801 
" clip-path="url(#p95bce1d439)" style="fill: none; stroke: #ff0000; stroke-width: 0.72; stroke-linejoin: miter"/>
   </g>
   <g id="patch_5">
    <path d="M 667.547689 253.948719 
L 663.076056 253.948719 
" clip-path="url(#p95bce1d439)" style="fill: none; stroke: #ff0000; stroke-width: 0.72; stroke-linejoin: miter"/>
   </g>
   <g id="patch_6">
    <path d="M 660.84024 253.948719 
L 656.368607 253.948719 
L 656.368607 242.769637 
L 660.84024 242.769637 
" clip-path="url(#p95bce1d439)" style="fill: none; stroke: #ff0000; stroke-width: 0.72; stroke-linejoin: miter"/>
   </g>
   <g id="patch_7">
    <path d="M 663.076056 242.769637 
L 667.547689 242.769637 
L 667.547689 265.127801 
L 663.076056 265.127801 
" clip-path="url(#p95bce1d439)" style="fill: none; stroke: #ff0000; stroke-width: 0.72; stroke-linejoin: miter"/>
   </g>
   <g id="patch_8">
    <path d="M 660.84024 265.127801 
L 656.368607 265.127801 
" clip-path="url(#p95bce1d439)" style="fill: none; stroke: #ff0000; stroke-width: 0.72; stroke-linejoin: miter"/>
   </g>
   <g id="patch_9">
    <path d="M 632.782035 25.733729 
L 623.850813 26.197711 
L 623.386831 17.266489 
L 632.318053 16.802508 
L 632.782035 25.733729 
" clip-path="url(#p95bce1d439)" style="fill: none; stroke: #ff0000; stroke-width: 0.72; stroke-linejoin: miter"/>
   </g>
   <g id="patch_10">
    <path d="M 275.687307 80.878613 
L 267.13855 83.505544 
L 264.511619 74.956787 
L 273.060376 72.329857 
L 275.687307 80.878613 
" clip-path="url(#p95bce1d439)" style="fill: none; stroke: #ff0000; stroke-width: 0.72; stroke-linejoin: miter"/>
   </g>
   <g id="patch_11">
    <path d="M 95.120796 168.915977 
L 91.726916 171.827519 
L 84.448061 163.342819 
L 87.841941 160.431276 
L 95.120796 168.915977 
" clip-path="url(#p95bce1d439)" style="fill: none; stroke: #ff0000; stroke-width: 0.72; stroke-linejoin: miter"/>
   </g>
   <g id="patch_12">
    <path d="M 73.918675 232.48272 
L 77.67384 234.910525 
L 71.604328 244.298438 
L 67.849163 241.870633 
L 73.918675 232.48272 
" clip-path="url(#p95bce1d439)" style="fill: none; stroke: #ff0000; stroke-width: 0.72; stroke-linejoin: miter"/>
   </g>
   <g id="patch_13">
    <path d="M 354.321277 283.181207 
L 363.248677 283.713687 
L 362.716197 292.641087 
L 353.788797 292.108607 
L 354.321277 283.181207 
" clip-path="url(#p95bce1d439)" style="fill: none; stroke: #ff0000; stroke-width: 0.72; stroke-linejoin: miter"/>
   </g>
   <g id="patch_14">
    <path d="M 963.82585 160.574079 
L 963.724195 155.432668 
L 963.41941 150.300338 
L 962.912033 145.186153 
L 962.20296 140.099143 
L 961.293443 135.048295 
L 960.185089 130.042527 
L 958.879856 125.090681 
L 957.380047 120.201502 
L 955.688313 115.383624 
L 953.80764 110.645557 
L 951.741351 105.995669 
L 949.493095 101.442171 
L 947.066841 96.993105 
L 944.466876 92.656329 
L 941.697791 88.439502 
L 938.764476 84.350072 
L 935.672113 80.39526 
L 932.426161 76.582052 
L 929.032355 72.917181 
L 925.496687 69.40712 
L 921.825402 66.058068 
L 918.024984 62.875941 
L 914.102145 59.866358 
L 910.063813 57.034633 
L 905.91712 54.385769 
L 901.66939 51.924443 
L 897.328123 49.655003 
L 892.900988 47.581456 
L 888.395803 45.707464 
L 883.820525 44.036337 
L 879.183233 42.571027 
L 874.492119 41.314121 
L 869.755466 40.267839 
L 864.981641 39.434029 
L 860.179074 38.814164 
L 855.356247 38.409338 
L 850.521677 38.220266 
L 845.683904 38.247282 
L 840.85147 38.490339 
L 836.032911 38.949007 
L 831.236736 39.622476 
L 826.471415 40.509556 
L 821.745366 41.608682 
L 817.066934 42.917911 
L 812.444382 44.434933 
L 807.885874 46.157066 
L 803.399461 48.081271 
L 798.993066 50.204149 
L 794.674471 52.521949 
L 790.451303 55.03058 
L 786.331021 57.725611 
L 782.320901 60.602281 
L 778.428026 63.655511 
L 774.659271 66.879908 
L 771.021292 70.269778 
L 767.520514 73.819133 
L 764.163119 77.521706 
L 760.955037 81.370956 
L 757.901935 85.360087 
L 755.009203 89.482053 
L 752.281951 93.729574 
L 749.724995 98.095148 
L 747.342851 102.571066 
L 745.139727 107.149422 
L 743.119512 111.822132 
L 741.285776 116.580941 
L 739.641756 121.417447 
L 738.190357 126.323107 
L 736.93414 131.289258 
L 735.875326 136.307128 
L 735.015783 141.367856 
L 734.357031 146.462503 
L 733.900232 151.582073 
L 733.646193 156.717524 
L 733.595362 161.859786 
L 733.747831 166.999777 
L 734.103328 172.12842 
L 734.661227 177.236657 
L 735.420542 182.315466 
L 736.379933 187.355878 
L 737.537704 192.34899 
L 738.891811 197.285986 
L 740.439862 202.158144 
L 742.179124 206.956861 
L 744.106525 211.673662 
L 746.218661 216.300217 
L 748.511801 220.828354 
L 750.981896 225.250076 
L 753.624584 229.557575 
L 756.435196 233.743242 
L 759.40877 237.799686 
L 762.540054 241.719742 
L 765.823517 245.496488 
L 769.25336 249.123252 
L 772.823527 252.593631 
L 776.527712 255.901494 
L 780.359373 259.041001 
L 784.311743 262.006606 
L 788.377842 264.793072 
L 792.550488 267.395477 
L 796.822313 269.809226 
L 801.185771 272.030055 
L 805.633157 274.054043 
L 810.156617 275.877615 
L 814.74816 277.49755 
L 819.399679 278.910988 
L 824.102958 280.115431 
L 828.849691 281.108754 
L 833.631495 281.889201 
L 838.439923 282.455394 
L 843.266486 282.806334 
L 848.102657 282.9414 
L 852.939897 282.860355 
L 857.769661 282.56334 
L 862.583421 282.050881 
L 867.372675 281.323883 
L 872.128964 280.383629 
L 876.843888 279.231781 
L 881.509121 277.870373 
L 886.116423 276.301808 
L 890.657658 274.528857 
L 895.124804 272.554652 
L 899.509973 270.382679 
L 903.80542 268.016773 
L 908.003559 265.461114 
L 912.096975 262.720214 
L 916.07844 259.798915 
L 919.940921 256.702376 
L 923.677597 253.436066 
L 927.281869 250.005752 
L 930.747371 246.417494 
L 934.067983 242.677629 
L 937.237841 238.792761 
L 940.251345 234.769752 
L 943.103175 230.615706 
L 945.788293 226.33796 
L 948.301957 221.944069 
L 950.639728 217.441793 
L 952.797477 212.839084 
L 954.771394 208.144069 
L 956.557992 203.365042 
L 958.154116 198.510442 
L 959.556946 193.588843 
L 960.764007 188.608936 
L 961.773165 183.579518 
L 962.582638 178.509469 
L 963.190998 173.407745 
L 963.597168 168.283356 
L 963.800433 163.145352 
L 963.82585 160.574079 
L 963.82585 160.574079 
" clip-path="url(#p95bce1d439)" style="fill: none; stroke: #ff0000; stroke-width: 0.72; stroke-linejoin: miter"/>
   </g>
   <g id="patch_15">
    <path d="M 398.545744 149.394996 
L 409.724827 160.574079 
L 398.545744 171.753161 
L 387.366662 160.574079 
L 398.545744 149.394996 
" clip-path="url(#p95bce1d439)" style="fill: none; stroke: #ff0000; stroke-width: 0.72; stroke-linejoin: miter"/>
   </g>
   <g id="patch_16">
    <path d="M 843.039698 149.394996 
L 854.21878 160.574079 
L 843.039698 171.753161 
L 831.860616 160.574079 
L 843.039698 149.394996 
" clip-path="url(#p95bce1d439)" style="fill: none; stroke: #ff0000; stroke-width: 0.72; stroke-linejoin: miter"/>
   </g>
   <g id="patch_17">
    <path d="M 478.350402 226.843842 
L 488.787386 238.718735 
L 476.912493 249.15572 
L 466.475508 237.280826 
L 478.350402 226.843842 
" clip-path="url(#p95bce1d439)" style="fill: none; stroke: #ff0000; stroke-width: 0.72; stroke-linejoin: miter"/>
   </g>
   <g id="patch_18">
    <path d="M 991.420251 259.909088 
L 1001.857236 271.783982 
L 989.982342 282.220967 
L 979.545358 270.346073 
L 991.420251 259.909088 
" clip-path="url(#p95bce1d439)" style="fill: none; stroke: #ff0000; stroke-width: 0.72; stroke-linejoin: miter"/>
   </g>
   <g id="patch_19">
    <path d="M 502.155881 200.125932 
L 513.334964 188.94685 
L 524.514046 200.125932 
L 513.334964 211.305014 
L 502.155881 200.125932 
" clip-path="url(#p95bce1d439)" style="fill: none; stroke: #ff0000; stroke-width: 0.72; stroke-linejoin: miter"/>
   </g>
   <g id="patch_20">
    <path d="M 502.155881 126.37797 
L 513.334964 115.198888 
L 524.514046 126.37797 
L 513.334964 137.557053 
L 502.155881 126.37797 
" clip-path="url(#p95bce1d439)" style="fill: none; stroke: #ff0000; stroke-width: 0.72; stroke-linejoin: miter"/>
   </g>
   <g id="line2d_1">
    <path d="M 87.683635 160.574079 
L 1099.636364 160.574079 
" clip-path="url(#p95bce1d439)" style="fill: none; stroke: #ffffff; stroke-width: 0.72; stroke-linecap: square"/>
   </g>
   <g id="line2d_2">
    <path d="M 385.130846 160.574079 
L 411.960643 160.574079 
" clip-path="url(#p95bce1d439)" style="fill: none; stroke: #ffffff; stroke-width: 0.72; stroke-linecap: square"/>
   </g>
   <g id="line2d_3">
    <path d="M 829.624799 160.574079 
L 856.454597 160.574079 
" clip-path="url(#p95bce1d439)" style="fill: none; stroke: #ffffff; stroke-width: 0.72; stroke-linecap: square"/>
   </g>
   <g id="line2d_4">
    <path d="M 52.672846 210.612943 
L 1099.636364 278.085446 
" clip-path="url(#p95bce1d439)" style="fill: none; stroke: #ffffff; stroke-width: 0.72; stroke-linecap: square"/>
   </g>
   <g id="line2d_5">
    <path d="M 464.24432 237.137036 
L 491.018574 238.862526 
" clip-path="url(#p95bce1d439)" style="fill: none; stroke: #ffffff; stroke-width: 0.72; stroke-linecap: square"/>
   </g>
   <g id="line2d_6">
    <path d="M 977.31417 270.202282 
L 1004.088424 271.927773 
" clip-path="url(#p95bce1d439)" style="fill: none; stroke: #ffffff; stroke-width: 0.72; stroke-linecap: square"/>
   </g>
   <g id="line2d_7">
    <path d="M 848.707429 38.205068 
L 848.707429 35.969252 
" clip-path="url(#p95bce1d439)" style="fill: none; stroke: #ff0000; stroke-width: 0.72; stroke-linecap: square"/>
   </g>
   <g id="line2d_8">
    <path d="M 848.707429 282.943089 
L 848.707429 285.178905 
" clip-path="url(#p95bce1d439)" style="fill: none; stroke: #ff0000; stroke-width: 0.72; stroke-linecap: square"/>
   </g>
   <g id="line2d_9">
    <path d="M 963.82585 160.574079 
L 966.061666 160.574079 
" clip-path="url(#p95bce1d439)" style="fill: none; stroke: #ff0000; stroke-width: 0.72; stroke-linecap: square"/>
   </g>
   <g id="line2d_10">
    <path d="M 733.589008 160.574079 
L 731.353192 160.574079 
" clip-path="url(#p95bce1d439)" style="fill: none; stroke: #ff0000; stroke-width: 0.72; stroke-linecap: square"/>
   </g>
   <g id="line2d_11">
    <path d="M 513.334964 300.698027 
L 513.334964 25.805875 
" clip-path="url(#p95bce1d439)" style="fill: none; stroke: #ffffff; stroke-width: 0.72; stroke-linecap: square"/>
   </g>
   <g id="line2d_12">
    <path d="M 513.334964 213.54083 
L 513.334964 186.711033 
" clip-path="url(#p95bce1d439)" style="fill: none; stroke: #ffffff; stroke-width: 0.72; stroke-linecap: square"/>
   </g>
   <g id="line2d_13">
    <path d="M 513.334964 139.792869 
L 513.334964 112.963072 
" clip-path="url(#p95bce1d439)" style="fill: none; stroke: #ffffff; stroke-width: 0.72; stroke-linecap: square"/>
   </g>
  </g>
 </g>
 <defs>
  <clipPath id="p95bce1d439">
   <rect x="0" y="0" width="1152" height="321.839841"/>
  </clipPath>
 </defs>
</svg>
