<?xml version="1.0" encoding="utf-8" standalone="no"?>
<!DOCTYPE svg PUBLIC "-//W3C//DTD SVG 1.1//EN"
  "http://www.w3.org/Graphics/SVG/1.1/DTD/svg11.dtd">
<svg xmlns:xlink="http://www.w3.org/1999/xlink" width="1152pt" height="341.232334pt" viewBox="0 0 1152 341.232334" xmlns="http://www.w3.org/2000/svg" version="1.1">
 <metadata>
  <rdf:RDF xmlns:dc="http://purl.org/dc/elements/1.1/" xmlns:cc="http://creativecommons.org/ns#" xmlns:rdf="http://www.w3.org/1999/02/22-rdf-syntax-ns#">
   <cc:Work>
    <dc:type rdf:resource="http://purl.org/dc/dcmitype/StillImage"/>
    <dc:date>2026-01-07T02:07:18.139487</dc:date>
    <dc:format>image/svg+xml</dc:format>
    <dc:creator>
     <cc:Agent>
      <dc:title>Matplotlib v3.10.1, https://matplotlib.org/</dc:title>
     </cc:Agent>
    </dc:creator>
   </cc:Work>
  </rdf:RDF>
 </metadata>
 <defs>
  <style type="text/css">*{stroke-linejoin: round; stroke-linecap: butt}</style>
 </defs>
 <g id="figure_1">
  <g id="patch_1">
   <path d="M 0 341.232334 
L 1152 341.232334 
L 1152 0 
L 0 0 
z
" style="fill: #ffffff"/>
  </g>
  <g id="axes_1">
   <g id="patch_2">
    <path d="M 0 341.232334 
L 1152 341.232334 
L 1152 0 
L 0 0 
z
" style="fill: #212830"/>
   </g>
   <g id="patch_3">
    <path d="M 1099.261107 324.163833 
L 1091.357469 321.314804 
L 1078.482472 316.693006 
L 1064.336867 311.662136 
L 1048.909121 306.279013 
L 1032.129392 300.550792 
L 1014.098053 294.403522 
L 995.01544 287.861516 
L 975.092408 280.972356 
L 954.498371 273.790597 
L 933.392568 266.370773 
L 911.883502 258.752838 
L 890.063249 250.981741 
L 868.007233 243.087463 
L 845.763519 235.09978 
L 823.394433 227.054141 
L 800.963962 218.979125 
L 778.531944 210.909291 
L 756.13649 202.871543 
L 733.80733 194.882058 
L 711.571259 186.96102 
L 689.432926 179.12303 
L 667.396138 171.375761 
L 645.471676 163.730353 
L 623.663631 156.200373 
L 601.968315 148.794212 
L 581.568866 141.916857 
L 580.689207 144.526081 
L 579.519254 144.13161 
L 558.070478 137.003024 
L 536.733472 130.028314 
L 515.492348 123.211148 
L 494.339059 116.554093 
L 473.265001 110.062922 
L 452.253205 103.74097 
L 431.2869 97.586853 
L 410.357467 91.599887 
L 389.458458 85.782613 
L 368.577613 80.136448 
L 347.7021 74.660009 
L 326.827158 69.350769 
L 305.951571 64.210396 
L 285.068563 59.241285 
L 264.169106 54.441723 
L 243.251072 49.809319 
L 222.317333 45.34537 
L 201.364937 41.052151 
L 180.388861 36.929075 
L 159.387024 32.974121 
L 138.364334 29.187258 
L 117.322043 25.57128 
L 96.256053 22.126704 
L 75.166096 18.851229 
L 54.057381 15.745656 
L 52.363636 15.510561 
L 52.363636 283.655746 
L 72.300589 283.755292 
L 96.156761 283.838808 
L 119.993141 283.906274 
L 143.777437 284.004 
L 167.550244 284.151259 
L 191.335894 284.325504 
L 215.1033 284.493023 
L 238.782403 284.667216 
L 262.338378 284.89147 
L 285.832799 285.183306 
L 309.276418 285.488003 
L 332.619179 285.725958 
L 355.96403 285.871506 
L 379.347175 285.988733 
L 402.718159 286.160802 
L 426.133488 286.414224 
L 449.625693 286.706801 
L 473.097492 287.000941 
L 496.442867 287.324469 
L 519.663046 287.741142 
L 542.895898 288.274835 
L 566.228815 288.875678 
L 589.598012 289.480966 
L 612.875828 290.089757 
L 635.976301 290.769228 
L 658.997333 291.574748 
L 682.077683 292.493898 
L 705.236935 293.462653 
L 728.333586 294.434748 
L 751.215151 295.440368 
L 773.865031 296.560077 
L 796.435932 297.847175 
L 819.083862 299.268444 
L 841.779003 300.737014 
L 864.310743 302.219234 
L 886.532469 303.768607 
L 908.44794 305.428774 
L 930.050779 307.184062 
L 951.245773 309.00867 
L 971.895346 310.890204 
L 991.856933 312.836952 
L 1011.038537 314.875922 
L 1029.379822 316.978192 
L 1046.734802 319.047988 
L 1062.905886 321.011069 
L 1077.762474 322.870202 
L 1091.308824 324.625599 
L 1099.636364 325.721774 
L 1099.261107 324.163833 
" clip-path="url(#p5f72ae118b)" style="fill: none; stroke: #ff0000; stroke-width: 0.72; stroke-linejoin: miter"/>
   </g>
   <g id="patch_4">
    <path d="M 482.892445 213.766451 
L 482.892445 227.534033 
L 496.660026 227.534033 
L 496.660026 213.766451 
L 496.660026 241.301615 
" clip-path="url(#p5f72ae118b)" style="fill: none; stroke: #ff0000; stroke-width: 0.72; stroke-linejoin: miter"/>
   </g>
   <g id="patch_5">
    <path d="M 503.543817 227.534033 
L 503.543817 213.766451 
L 517.311399 213.766451 
L 517.311399 241.301615 
" clip-path="url(#p5f72ae118b)" style="fill: none; stroke: #ff0000; stroke-width: 0.72; stroke-linejoin: miter"/>
   </g>
   <g id="patch_6">
    <path d="M 375.660589 93.461356 
L 365.028343 90.586466 
L 367.903233 79.954221 
L 378.535479 82.829111 
L 375.660589 93.461356 
" clip-path="url(#p5f72ae118b)" style="fill: none; stroke: #ff0000; stroke-width: 0.72; stroke-linejoin: miter"/>
   </g>
   <g id="patch_7">
    <path d="M 238.202564 121.864087 
L 251.970146 135.631669 
L 238.202564 149.399251 
L 224.434982 135.631669 
L 238.202564 121.864087 
" clip-path="url(#p5f72ae118b)" style="fill: none; stroke: #ff0000; stroke-width: 0.72; stroke-linejoin: miter"/>
   </g>
   <g id="patch_8">
    <path d="M 611.0431 238.225918 
L 624.810682 224.458336 
L 638.578264 238.225918 
L 624.810682 251.9935 
L 611.0431 238.225918 
" clip-path="url(#p5f72ae118b)" style="fill: none; stroke: #ff0000; stroke-width: 0.72; stroke-linejoin: miter"/>
   </g>
   <g id="patch_9">
    <path d="M 611.0431 208.81132 
L 624.810682 195.043738 
L 638.578264 208.81132 
L 624.810682 222.578902 
L 611.0431 208.81132 
" clip-path="url(#p5f72ae118b)" style="fill: none; stroke: #ff0000; stroke-width: 0.72; stroke-linejoin: miter"/>
   </g>
   <g id="line2d_1">
    <path d="M 1047.57809 305.824629 
L 1046.685743 308.429542 
" clip-path="url(#p5f72ae118b)" style="fill: none; stroke: #ff0000; stroke-width: 0.72; stroke-linecap: square"/>
   </g>
   <g id="line2d_2">
    <path d="M 1045.062966 316.07686 
L 1044.82037 318.819668 
" clip-path="url(#p5f72ae118b)" style="fill: none; stroke: #ff0000; stroke-width: 0.72; stroke-linecap: square"/>
   </g>
   <g id="line2d_3">
    <path d="M 995.466654 288.016203 
L 994.57527 290.621445 
" clip-path="url(#p5f72ae118b)" style="fill: none; stroke: #ff0000; stroke-width: 0.72; stroke-linecap: square"/>
   </g>
   <g id="line2d_4">
    <path d="M 990.362266 309.924617 
L 990.087086 312.664348 
" clip-path="url(#p5f72ae118b)" style="fill: none; stroke: #ff0000; stroke-width: 0.72; stroke-linecap: square"/>
   </g>
   <g id="line2d_5">
    <path d="M 787.889268 214.275553 
L 786.977634 216.873779 
" clip-path="url(#p5f72ae118b)" style="fill: none; stroke: #ff0000; stroke-width: 0.72; stroke-linecap: square"/>
   </g>
   <g id="line2d_6">
    <path d="M 770.610206 293.64382 
L 770.382842 296.387933 
" clip-path="url(#p5f72ae118b)" style="fill: none; stroke: #ff0000; stroke-width: 0.72; stroke-linecap: square"/>
   </g>
   <g id="line2d_7">
    <path d="M 52.363636 135.631669 
L 553.875234 135.631669 
" clip-path="url(#p5f72ae118b)" style="fill: none; stroke: #ffffff; stroke-width: 0.72; stroke-linecap: square"/>
   </g>
   <g id="line2d_8">
    <path d="M 221.681466 135.631669 
L 254.723662 135.631669 
" clip-path="url(#p5f72ae118b)" style="fill: none; stroke: #ffffff; stroke-width: 0.72; stroke-linecap: square"/>
   </g>
   <g id="line2d_9">
    <path d="M 52.363636 256.311996 
L 1097.508741 323.532157 
" clip-path="url(#p5f72ae118b)" style="fill: none; stroke: #ffffff; stroke-width: 0.72; stroke-linecap: square"/>
   </g>
   <g id="line2d_10">
    <path d="M 624.810682 290.440805 
L 624.810682 156.596432 
" clip-path="url(#p5f72ae118b)" style="fill: none; stroke: #ffffff; stroke-width: 0.72; stroke-linecap: square"/>
   </g>
   <g id="line2d_11">
    <path d="M 624.810682 254.747016 
L 624.810682 221.70482 
" clip-path="url(#p5f72ae118b)" style="fill: none; stroke: #ffffff; stroke-width: 0.72; stroke-linecap: square"/>
   </g>
   <g id="line2d_12">
    <path d="M 624.810682 225.332418 
L 624.810682 192.290221 
" clip-path="url(#p5f72ae118b)" style="fill: none; stroke: #ffffff; stroke-width: 0.72; stroke-linecap: square"/>
   </g>
  </g>
 </g>
 <defs>
  <clipPath id="p5f72ae118b">
   <rect x="0" y="0" width="1152" height="341.232334"/>
  </clipPath>
 </defs>
</svg>
