<?xml version="1.0" encoding="utf-8" standalone="no"?>
<!DOCTYPE svg PUBLIC "-//W3C//DTD SVG 1.1//EN"
  "http://www.w3.org/Graphics/SVG/1.1/DTD/svg11.dtd">
<svg xmlns:xlink="http://www.w3.org/1999/xlink" width="1152pt" height="339.227104pt" viewBox="0 0 1152 339.227104" xmlns="http://www.w3.org/2000/svg" version="1.1">
 <metadata>
  <rdf:RDF xmlns:dc="http://purl.org/dc/elements/1.1/" xmlns:cc="http://creativecommons.org/ns#" xmlns:rdf="http://www.w3.org/1999/02/22-rdf-syntax-ns#">
   <cc:Work>
    <dc:type rdf:resource="http://purl.org/dc/dcmitype/StillImage"/>
    <dc:date>2026-01-07T02:07:10.248317</dc:date>
    <dc:format>image/svg+xml</dc:format>
    <dc:creator>
     <cc:Agent>
      <dc:title>Matplotlib v3.10.1, https://matplotlib.org/</dc:title>
     </cc:Agent>
    </dc:creator>
   </cc:Work>
  </rdf:RDF>
 </metadata>
 <defs>
  <style type="text/css">*{stroke-linejoin: round; stroke-linecap: butt}</style>
 </defs>
 <g id="figure_1">
  <g id="patch_1">
   <path d="M 0 339.227104 
L 1152 339.227104 
L 1152 0 
L 0 0 
z
" style="fill: #ffffff"/>
  </g>
  <g id="axes_1">
   <g id="patch_2">
    <path d="M 0 339.227104 
L 1152 339.227104 
L 1152 0 
L 0 0 
z
" style="fill: #212830"/>
   </g>
   <g id="patch_3">
    <path d="M 1099.272802 321.799418 
L 1095.345257 320.380153 
L 1088.641449 317.965067 
L 1080.925635 315.206634 
L 1072.209029 312.139344 
L 1062.469508 308.772363 
L 1051.763583 305.076433 
L 1040.192135 301.066279 
L 1027.861796 296.76643 
L 1014.86175 292.206603 
L 1001.273277 287.420513 
L 987.148476 282.434295 
L 972.528056 277.271473 
L 957.447929 271.943226 
L 941.936079 266.460083 
L 926.029449 260.836853 
L 909.76659 255.08745 
L 893.183336 249.229414 
L 876.304624 243.277095 
L 859.151754 237.239299 
L 841.745596 231.126226 
L 824.097571 224.947442 
L 806.217179 218.709827 
L 788.116765 212.42017 
L 769.807903 206.086801 
L 751.298769 199.717342 
L 732.598124 193.319379 
L 713.715312 186.90097 
L 694.656686 180.469549 
L 675.425186 174.031407 
L 656.024896 167.592238 
L 636.461385 161.156518 
L 616.740329 154.730781 
L 596.864132 148.323885 
L 581.589561 143.457886 
L 580.951878 145.4596 
L 576.199771 143.945711 
L 556.018575 137.588411 
L 535.697013 131.253028 
L 515.25046 124.950397 
L 494.683424 118.694385 
L 473.998375 112.490391 
L 453.209549 106.341504 
L 432.334504 100.262479 
L 411.376729 94.27503 
L 390.331633 88.390775 
L 369.203453 82.612679 
L 348.004859 76.951484 
L 326.73557 71.426242 
L 305.385694 66.044443 
L 283.956334 60.801886 
L 262.46246 55.701266 
L 240.910711 50.756979 
L 219.294582 45.977393 
L 197.617434 41.357552 
L 175.898443 36.901664 
L 154.145877 32.634122 
L 132.340566 28.576596 
L 110.457425 24.723876 
L 88.494572 21.053187 
L 66.47294 17.550555 
L 52.363636 15.419414 
L 52.363636 286.244857 
L 58.942069 286.284742 
L 84.79551 286.457349 
L 110.601229 286.618903 
L 136.371326 286.77332 
L 162.082734 286.939927 
L 187.6917 287.115279 
L 213.180378 287.270139 
L 238.568975 287.390424 
L 263.872323 287.49829 
L 289.065296 287.631521 
L 314.151767 287.805249 
L 339.133988 288.011642 
L 363.988719 288.24416 
L 388.665861 288.520268 
L 413.127347 288.863067 
L 437.384722 289.278002 
L 461.429686 289.737562 
L 485.222385 290.204165 
L 508.793497 290.660631 
L 532.148577 291.127745 
L 555.258669 291.638764 
L 578.143723 292.204579 
L 600.80975 292.803928 
L 623.203685 293.416208 
L 645.270055 294.05388 
L 667.001326 294.748029 
L 688.451518 295.509337 
L 709.652616 296.311749 
L 730.567986 297.125046 
L 751.12871 297.949207 
L 771.284624 298.813619 
L 791.073559 299.740397 
L 810.55379 300.721881 
L 829.726048 301.726803 
L 848.516131 302.729333 
L 866.849203 303.739208 
L 884.715761 304.794743 
L 902.178737 305.925004 
L 919.297055 307.113982 
L 936.045352 308.314008 
L 952.319609 309.500405 
L 968.049233 310.691141 
L 983.234626 311.901254 
L 997.873711 313.120336 
L 1011.922431 314.337056 
L 1025.312818 315.548082 
L 1037.971544 316.757371 
L 1049.849352 317.974818 
L 1060.913446 319.184136 
L 1071.090998 320.339678 
L 1080.284119 321.406242 
L 1088.422965 322.384088 
L 1095.494254 323.272157 
L 1099.636364 323.80769 
L 1099.272802 321.799418 
" clip-path="url(#pcc8fe6b902)" style="fill: none; stroke: #ff0000; stroke-width: 0.72; stroke-linejoin: miter"/>
   </g>
   <g id="patch_4">
    <path d="M 490.996786 221.26798 
L 501.500951 221.26798 
L 501.500951 231.772146 
L 490.996786 231.772146 
L 490.996786 242.276311 
L 501.500951 242.276311 
" clip-path="url(#pcc8fe6b902)" style="fill: none; stroke: #ff0000; stroke-width: 0.72; stroke-linejoin: miter"/>
   </g>
   <g id="patch_5">
    <path d="M 506.753034 221.26798 
L 517.2572 221.26798 
L 517.2572 231.772146 
L 506.753034 231.772146 
L 517.2572 231.772146 
L 517.2572 242.276311 
L 506.753034 242.276311 
" clip-path="url(#pcc8fe6b902)" style="fill: none; stroke: #ff0000; stroke-width: 0.72; stroke-linejoin: miter"/>
   </g>
   <g id="patch_6">
    <path d="M 375.151586 92.95131 
L 367.045896 90.734603 
L 369.262602 82.628914 
L 377.368292 84.84562 
L 375.151586 92.95131 
" clip-path="url(#pcc8fe6b902)" style="fill: none; stroke: #ff0000; stroke-width: 0.72; stroke-linejoin: miter"/>
   </g>
   <g id="patch_7">
    <path d="M 239.549255 126.114518 
L 250.05342 136.618683 
L 239.549255 147.122849 
L 229.045089 136.618683 
L 239.549255 126.114518 
" clip-path="url(#pcc8fe6b902)" style="fill: none; stroke: #ff0000; stroke-width: 0.72; stroke-linejoin: miter"/>
   </g>
   <g id="patch_8">
    <path d="M 418.531097 218.603213 
L 429.035263 208.099047 
L 439.539428 218.603213 
L 429.035263 229.107378 
L 418.531097 218.603213 
" clip-path="url(#pcc8fe6b902)" style="fill: none; stroke: #ff0000; stroke-width: 0.72; stroke-linejoin: miter"/>
   </g>
   <g id="patch_9">
    <path d="M 418.531097 169.851882 
L 429.035263 159.347717 
L 439.539428 169.851882 
L 429.035263 180.356048 
L 418.531097 169.851882 
" clip-path="url(#pcc8fe6b902)" style="fill: none; stroke: #ff0000; stroke-width: 0.72; stroke-linejoin: miter"/>
   </g>
   <g id="line2d_1">
    <path d="M 1059.955074 307.904323 
L 1059.276564 309.89257 
" clip-path="url(#pcc8fe6b902)" style="fill: none; stroke: #ff0000; stroke-width: 0.72; stroke-linecap: square"/>
   </g>
   <g id="line2d_2">
    <path d="M 1057.918058 316.745645 
L 1057.786449 318.842351 
" clip-path="url(#pcc8fe6b902)" style="fill: none; stroke: #ff0000; stroke-width: 0.72; stroke-linecap: square"/>
   </g>
   <g id="line2d_3">
    <path d="M 1020.269288 294.103322 
L 1019.585009 296.08959 
" clip-path="url(#pcc8fe6b902)" style="fill: none; stroke: #ff0000; stroke-width: 0.72; stroke-linecap: square"/>
   </g>
   <g id="line2d_4">
    <path d="M 1016.129345 312.608217 
L 1015.960037 314.702217 
" clip-path="url(#pcc8fe6b902)" style="fill: none; stroke: #ff0000; stroke-width: 0.72; stroke-linecap: square"/>
   </g>
   <g id="line2d_5">
    <path d="M 861.783025 238.165505 
L 861.088783 240.148313 
" clip-path="url(#pcc8fe6b902)" style="fill: none; stroke: #ff0000; stroke-width: 0.72; stroke-linecap: square"/>
   </g>
   <g id="line2d_6">
    <path d="M 848.474992 300.623788 
L 848.318694 302.718799 
" clip-path="url(#pcc8fe6b902)" style="fill: none; stroke: #ff0000; stroke-width: 0.72; stroke-linecap: square"/>
   </g>
   <g id="line2d_7">
    <path d="M 52.363636 136.618683 
L 552.908047 136.618683 
" clip-path="url(#pcc8fe6b902)" style="fill: none; stroke: #ffffff; stroke-width: 0.72; stroke-linecap: square"/>
   </g>
   <g id="line2d_8">
    <path d="M 226.944256 136.618683 
L 252.154253 136.618683 
" clip-path="url(#pcc8fe6b902)" style="fill: none; stroke: #ffffff; stroke-width: 0.72; stroke-linecap: square"/>
   </g>
   <g id="line2d_9">
    <path d="M 52.363636 253.720064 
L 1098.080114 321.368426 
" clip-path="url(#pcc8fe6b902)" style="fill: none; stroke: #ffffff; stroke-width: 0.72; stroke-linecap: square"/>
   </g>
   <g id="line2d_10">
    <path d="M 429.035263 289.13518 
L 429.035263 99.319915 
" clip-path="url(#pcc8fe6b902)" style="fill: none; stroke: #ffffff; stroke-width: 0.72; stroke-linecap: square"/>
   </g>
   <g id="line2d_11">
    <path d="M 429.035263 231.208211 
L 429.035263 205.998214 
" clip-path="url(#pcc8fe6b902)" style="fill: none; stroke: #ffffff; stroke-width: 0.72; stroke-linecap: square"/>
   </g>
   <g id="line2d_12">
    <path d="M 429.035263 182.456881 
L 429.035263 157.246884 
" clip-path="url(#pcc8fe6b902)" style="fill: none; stroke: #ffffff; stroke-width: 0.72; stroke-linecap: square"/>
   </g>
  </g>
 </g>
 <defs>
  <clipPath id="pcc8fe6b902">
   <rect x="0" y="0" width="1152" height="339.227104"/>
  </clipPath>
 </defs>
</svg>
