  0
SECTION
  2
HEADER
  9
$ACADVER
  1
AC1021
  9
$ACADMAINTVER
 70
25
  9
$DWGCODEPAGE
  3
ANSI_1252
  9
$LASTSAVEDBY
  1
ezdxf
  9
$INSBASE
 10
0.0
 20
0.0
 30
0.0
  9
$EXTMIN
 10
1e+20
 20
1e+20
 30
1e+20
  9
$EXTMAX
 10
-1e+20
 20
-1e+20
 30
-1e+20
  9
$LIMMIN
 10
0.0
 20
0.0
  9
$LIMMAX
 10
420.0
 20
297.0
  9
$ORTHOMODE
 70
0
  9
$REGENMODE
 70
1
  9
$FILLMODE
 70
1
  9
$QTEXTMODE
 70
0
  9
$MIRRTEXT
 70
1
  9
$LTSCALE
 40
1.0
  9
$ATTMODE
 70
1
  9
$TEXTSIZE
 40
2.5
  9
$TRACEWID
 40
1.0
  9
$TEXTSTYLE
  7
OpenSans
  9
$CLAYER
  8
0
  9
$CELTYPE
  6
ByLayer
  9
$CECOLOR
 62
256
  9
$CELTSCALE
 40
1.0
  9
$DISPSILH
 70
0
  9
$DIMSCALE
 40
1.0
  9
$DIMASZ
 40
0.175
  9
$DIMEXO
 40
0.125
  9
$DIMDLI
 40
3.75
  9
$DIMRND
 40
0.0
  9
$DIMDLE
 40
0.0
  9
$DIMEXE
 40
0.375
  9
$DIMTP
 40
0.0
  9
$DIMTM
 40
0.0
  9
$DIMTXT
 40
0.25
  9
$DIMCEN
 40
2.5
  9
$DIMTSZ
 40
0.0
  9
$DIMTOL
 70
0
  9
$DIMLIM
 70
0
  9
$DIMTIH
 70
0
  9
$DIMTOH
 70
0
  9
$DIMSE1
 70
0
  9
$DIMSE2
 70
0
  9
$DIMTAD
 70
1
  9
$DIMZIN
 70
12
  9
$DIMBLK
  1
ARCHTICK
  9
$DIMASO
 70
1
  9
$DIMSHO
 70
1
  9
$DIMPOST
  1

  9
$DIMAPOST
  1

  9
$DIMALT
 70
0
  9
$DIMALTD
 70
3
  9
$DIMALTF
 40
0.03937007874
  9
$DIMLFAC
 40
100.0
  9
$DIMTOFL
 70
1
  9
$DIMTVP
 40
0.0
  9
$DIMTIX
 70
0
  9
$DIMSOXD
 70
0
  9
$DIMSAH
 70
0
  9
$DIMBLK1
  1

  9
$DIMBLK2
  1

  9
$DIMSTYLE
  2
EZDXF
  9
$DIMCLRD
 70
0
  9
$DIMCLRE
 70
0
  9
$DIMCLRT
 70
0
  9
$DIMTFAC
 40
0.5
  9
$DIMGAP
 40
0.1
  9
$DIMJUST
 70
0
  9
$DIMSD1
 70
0
  9
$DIMSD2
 70
0
  9
$DIMTOLJ
 70
0
  9
$DIMTZIN
 70
8
  9
$DIMALTZ
 70
0
  9
$DIMALTTZ
 70
0
  9
$DIMUPT
 70
1
  9
$DIMDEC
 70
2
  9
$DIMTDEC
 70
2
  9
$DIMALTU
 70
2
  9
$DIMALTTD
 70
3
  9
$DIMTXSTY
  7
OpenSansCondensed-Light
  9
$DIMAUNIT
 70
0
  9
$DIMADEC
 70
2
  9
$DIMALTRND
 40
0.0
  9
$DIMAZIN
 70
3
  9
$DIMDSEP
 70
46
  9
$DIMATFIT
 70
3
  9
$DIMFRAC
 70
0
  9
$DIMLDRBLK
  1

  9
$DIMLUNIT
 70
2
  9
$DIMLWD
 70
-2
  9
$DIMLWE
 70
-2
  9
$DIMTMOVE
 70
2
  9
$DIMFXL
 40
1.0
  9
$DIMFXLON
 70
0
  9
$DIMJOGANG
 40
0.785398163397
  9
$DIMTFILL
 70
0
  9
$DIMTFILLCLR
 70
0
  9
$DIMARCSYM
 70
0
  9
$DIMLTYPE
  6

  9
$DIMLTEX1
  6

  9
$DIMLTEX2
  6

  9
$LUNITS
 70
2
  9
$LUPREC
 70
4
  9
$SKETCHINC
 40
1.0
  9
$FILLETRAD
 40
10.0
  9
$AUNITS
 70
0
  9
$AUPREC
 70
2
  9
$MENU
  1
.
  9
$ELEVATION
 40
0.0
  9
$PELEVATION
 40
0.0
  9
$THICKNESS
 40
0.0
  9
$LIMCHECK
 70
0
  9
$CHAMFERA
 40
0.0
  9
$CHAMFERB
 40
0.0
  9
$CHAMFERC
 40
0.0
  9
$CHAMFERD
 40
0.0
  9
$SKPOLY
 70
0
  9
$TDCREATE
 40
2461048.0884837965
  9
$TDUCREATE
 40
2458532.153996898
  9
$TDUPDATE
 40
2461048.0884837965
  9
$TDUUPDATE
 40
2458532.1544311
  9
$TDINDWG
 40
0.0
  9
$TDUSRTIMER
 40
0.0
  9
$USRTIMER
 70
1
  9
$ANGBASE
 50
0.0
  9
$ANGDIR
 70
0
  9
$PDMODE
 70
0
  9
$PDSIZE
 40
0.0
  9
$PLINEWID
 40
0.0
  9
$SPLFRAME
 70
0
  9
$SPLINETYPE
 70
6
  9
$SPLINESEGS
 70
8
  9
$HANDSEED
  5
B2
  9
$SURFTAB1
 70
6
  9
$SURFTAB2
 70
6
  9
$SURFTYPE
 70
6
  9
$SURFU
 70
6
  9
$SURFV
 70
6
  9
$UCSBASE
  2

  9
$UCSNAME
  2

  9
$UCSORG
 10
0.0
 20
0.0
 30
0.0
  9
$UCSXDIR
 10
1.0
 20
0.0
 30
0.0
  9
$UCSYDIR
 10
0.0
 20
1.0
 30
0.0
  9
$UCSORTHOREF
  2

  9
$UCSORTHOVIEW
 70
0
  9
$UCSORGTOP
 10
0.0
 20
0.0
 30
0.0
  9
$UCSORGBOTTOM
 10
0.0
 20
0.0
 30
0.0
  9
$UCSORGLEFT
 10
0.0
 20
0.0
 30
0.0
  9
$UCSORGRIGHT
 10
0.0
 20
0.0
 30
0.0
  9
$UCSORGFRONT
 10
0.0
 20
0.0
 30
0.0
  9
$UCSORGBACK
 10
0.0
 20
0.0
 30
0.0
  9
$PUCSBASE
  2

  9
$PUCSNAME
  2

  9
$PUCSORG
 10
0.0
 20
0.0
 30
0.0
  9
$PUCSXDIR
 10
1.0
 20
0.0
 30
0.0
  9
$PUCSYDIR
 10
0.0
 20
1.0
 30
0.0
  9
$PUCSORTHOREF
  2

  9
$PUCSORTHOVIEW
 70
0
  9
$PUCSORGTOP
 10
0.0
 20
0.0
 30
0.0
  9
$PUCSORGBOTTOM
 10
0.0
 20
0.0
 30
0.0
  9
$PUCSORGLEFT
 10
0.0
 20
0.0
 30
0.0
  9
$PUCSORGRIGHT
 10
0.0
 20
0.0
 30
0.0
  9
$PUCSORGFRONT
 10
0.0
 20
0.0
 30
0.0
  9
$PUCSORGBACK
 10
0.0
 20
0.0
 30
0.0
  9
$USERI1
 70
0
  9
$USERI2
 70
0
  9
$USERI3
 70
0
  9
$USERI4
 70
0
  9
$USERI5
 70
0
  9
$USERR1
 40
0.0
  9
$USERR2
 40
0.0
  9
$USERR3
 40
0.0
  9
$USERR4
 40
0.0
  9
$USERR5
 40
0.0
  9
$WORLDVIEW
 70
1
  9
$SHADEDGE
 70
3
  9
$SHADEDIF
 70
70
  9
$TILEMODE
 70
1
  9
$MAXACTVP
 70
64
  9
$PINSBASE
 10
0.0
 20
0.0
 30
0.0
  9
$PLIMCHECK
 70
0
  9
$PEXTMIN
 10
1e+20
 20
1e+20
 30
1e+20
  9
$PEXTMAX
 10
-1e+20
 20
-1e+20
 30
-1e+20
  9
$PLIMMIN
 10
0.0
 20
0.0
  9
$PLIMMAX
 10
420.0
 20
297.0
  9
$UNITMODE
 70
0
  9
$VISRETAIN
 70
1
  9
$PLINEGEN
 70
0
  9
$PSLTSCALE
 70
1
  9
$TREEDEPTH
 70
3020
  9
$CMLSTYLE
  2
Standard
  9
$CMLJUST
 70
0
  9
$CMLSCALE
 40
20.0
  9
$PROXYGRAPHICS
 70
1
  9
$MEASUREMENT
 70
1
  9
$CELWEIGHT
370
-1
  9
$ENDCAPS
280
0
  9
$JOINSTYLE
280
0
  9
$LWDISPLAY
290
0
  9
$INSUNITS
 70
6
  9
$HYPERLINKBASE
  1

  9
$STYLESHEET
  1

  9
$XEDIT
290
1
  9
$CEPSNTYPE
380
0
  9
$PSTYLEMODE
290
1
  9
$FINGERPRINTGUID
  2
{A25DAFE7-E58E-4F5D-A6C9-0584D2B07926}
  9
$VERSIONGUID
  2
{FC06FE89-E4F1-46B7-B190-7A6D34284D20}
  9
$EXTNAMES
290
1
  9
$PSVPSCALE
 40
0.0
  9
$OLESTARTUP
290
0
  9
$SORTENTS
280
127
  9
$INDEXCTL
280
0
  9
$HIDETEXT
280
1
  9
$XCLIPFRAME
290
1
  9
$HALOGAP
280
0
  9
$OBSCOLOR
 70
257
  9
$OBSLTYPE
280
0
  9
$INTERSECTIONDISPLAY
280
0
  9
$INTERSECTIONCOLOR
 70
257
  9
$DIMASSOC
280
2
  9
$PROJECTNAME
  1

  9
$CAMERADISPLAY
290
0
  9
$LENSLENGTH
 40
50.0
  9
$CAMERAHEIGHT
 40
0.0
  9
$STEPSPERSEC
 40
24.0
  9
$STEPSIZE
 40
100.0
  9
$3DDWFPREC
 40
2.0
  9
$PSOLWIDTH
 40
0.005
  9
$PSOLHEIGHT
 40
0.08
  9
$LOFTANG1
 40
1.570796326795
  9
$LOFTANG2
 40
1.570796326795
  9
$LOFTMAG1
 40
0.0
  9
$LOFTMAG2
 40
0.0
  9
$LOFTPARAM
 70
7
  9
$LOFTNORMALS
280
1
  9
$LATITUDE
 40
37.795
  9
$LONGITUDE
 40
-122.394
  9
$NORTHDIRECTION
 40
0.0
  9
$TIMEZONE
 70
-8000
  9
$LIGHTGLYPHDISPLAY
280
1
  9
$TILEMODELIGHTSYNCH
280
1
  9
$CMATERIAL
347
20
  9
$SOLIDHIST
280
0
  9
$SHOWHIST
280
1
  9
$DWFFRAME
280
2
  9
$DGNFRAME
280
2
  9
$REALWORLDSCALE
290
1
  9
$INTERFERECOLOR
 62
256
  9
$CSHADOW
280
0
  9
$SHADOWPLANELOCATION
 40
0.0
  0
ENDSEC
  0
SECTION
  2
CLASSES
  0
CLASS
  1
ACDBDICTIONARYWDFLT
  2
AcDbDictionaryWithDefault
  3
ObjectDBX Classes
 90
0
 91
0
280
0
281
0
  0
CLASS
  1
SUN
  2
AcDbSun
  3
SCENEOE
 90
1153
 91
0
280
0
281
0
  0
CLASS
  1
VISUALSTYLE
  2
AcDbVisualStyle
  3
ObjectDBX Classes
 90
4095
 91
0
280
0
281
0
  0
CLASS
  1
MATERIAL
  2
AcDbMaterial
  3
ObjectDBX Classes
 90
1153
 91
0
280
0
281
0
  0
CLASS
  1
SCALE
  2
AcDbScale
  3
ObjectDBX Classes
 90
1153
 91
0
280
0
281
0
  0
CLASS
  1
TABLESTYLE
  2
AcDbTableStyle
  3
ObjectDBX Classes
 90
4095
 91
0
280
0
281
0
  0
CLASS
  1
MLEADERSTYLE
  2
AcDbMLeaderStyle
  3
ACDB_MLEADERSTYLE_CLASS
 90
4095
 91
0
280
0
281
0
  0
CLASS
  1
DICTIONARYVAR
  2
AcDbDictionaryVar
  3
ObjectDBX Classes
 90
0
 91
0
280
0
281
0
  0
CLASS
  1
CELLSTYLEMAP
  2
AcDbCellStyleMap
  3
ObjectDBX Classes
 90
1152
 91
0
280
0
281
0
  0
CLASS
  1
MENTALRAYRENDERSETTINGS
  2
AcDbMentalRayRenderSettings
  3
SCENEOE
 90
1024
 91
0
280
0
281
0
  0
CLASS
  1
ACDBDETAILVIEWSTYLE
  2
AcDbDetailViewStyle
  3
ObjectDBX Classes
 90
1025
 91
0
280
0
281
0
  0
CLASS
  1
ACDBSECTIONVIEWSTYLE
  2
AcDbSectionViewStyle
  3
ObjectDBX Classes
 90
1025
 91
0
280
0
281
0
  0
CLASS
  1
RASTERVARIABLES
  2
AcDbRasterVariables
  3
ISM
 90
0
 91
0
280
0
281
0
  0
CLASS
  1
ACDBPLACEHOLDER
  2
AcDbPlaceHolder
  3
ObjectDBX Classes
 90
0
 91
0
280
0
281
0
  0
CLASS
  1
LAYOUT
  2
AcDbLayout
  3
ObjectDBX Classes
 90
0
 91
0
280
0
281
0
  0
ENDSEC
  0
SECTION
  2
TABLES
  0
TABLE
  2
VPORT
  5
8
330
0
100
AcDbSymbolTable
 70
1
  0
VPORT
  5
23
330
8
100
AcDbSymbolTableRecord
100
AcDbViewportTableRecord
  2
*Active
 70
0
 10
0.0
 20
0.0
 11
1.0
 21
1.0
 12
0.0
 22
0.0
 13
0.0
 23
0.0
 14
0.5
 24
0.5
 15
0.5
 25
0.5
 16
0.0
 26
0.0
 36
1.0
 17
0.0
 27
0.0
 37
0.0
 40
1000.0
 41
1.34
 42
50.0
 43
0.0
 44
0.0
 50
0.0
 51
0.0
 71
0
 72
1000
 73
1
 74
3
 75
0
 76
0
 77
0
 78
0
281
0
 65
0
146
0.0
  0
ENDTAB
  0
TABLE
  2
LTYPE
  5
2
330
0
100
AcDbSymbolTable
 70
21
  0
LTYPE
  5
24
330
2
100
AcDbSymbolTableRecord
100
AcDbLinetypeTableRecord
  2
ByBlock
 70
0
  3

 72
65
 73
0
 40
0.0
  0
LTYPE
  5
25
330
2
100
AcDbSymbolTableRecord
100
AcDbLinetypeTableRecord
  2
ByLayer
 70
0
  3

 72
65
 73
0
 40
0.0
  0
LTYPE
  5
26
330
2
100
AcDbSymbolTableRecord
100
AcDbLinetypeTableRecord
  2
Continuous
 70
0
  3

 72
65
 73
0
 40
0.0
  0
LTYPE
  5
2F
330
2
100
AcDbSymbolTableRecord
100
AcDbLinetypeTableRecord
  2
CENTER
 70
0
  3
Center ____ _ ____ _ ____ _ ____ _ ____ _ ____
 72
65
 73
4
 40
5.08
 49
3.175
 74
0
 49
-0.635
 74
0
 49
0.635
 74
0
 49
-0.635
 74
0
  0
LTYPE
  5
30
330
2
100
AcDbSymbolTableRecord
100
AcDbLinetypeTableRecord
  2
CENTERX2
 70
0
  3
Center (2x) ________  __  ________  __  ________
 72
65
 73
4
 40
8.89
 49
6.35
 74
0
 49
-0.635
 74
0
 49
1.27
 74
0
 49
-0.635
 74
0
  0
LTYPE
  5
31
330
2
100
AcDbSymbolTableRecord
100
AcDbLinetypeTableRecord
  2
CENTER2
 70
0
  3
Center (.5x) ____ _ ____ _ ____ _ ____ _ ____
 72
65
 73
4
 40
2.54
 49
1.587
 74
0
 49
-0.318
 74
0
 49
0.318
 74
0
 49
-0.318
 74
0
  0
LTYPE
  5
32
330
2
100
AcDbSymbolTableRecord
100
AcDbLinetypeTableRecord
  2
DASHED
 70
0
  3
Dashed __ __ __ __ __ __ __ __ __ __ __ __ __ _
 72
65
 73
2
 40
1.524
 49
1.27
 74
0
 49
-0.254
 74
0
  0
LTYPE
  5
33
330
2
100
AcDbSymbolTableRecord
100
AcDbLinetypeTableRecord
  2
DASHEDX2
 70
0
  3
Dashed (2x) ____  ____  ____  ____  ____  ____
 72
65
 73
2
 40
3.048
 49
2.54
 74
0
 49
-0.508
 74
0
  0
LTYPE
  5
34
330
2
100
AcDbSymbolTableRecord
100
AcDbLinetypeTableRecord
  2
DASHED2
 70
0
  3
Dashed (.5x) _ _ _ _ _ _ _ _ _ _ _ _ _ _
 72
65
 73
2
 40
0.762
 49
0.635
 74
0
 49
-0.127
 74
0
  0
LTYPE
  5
35
330
2
100
AcDbSymbolTableRecord
100
AcDbLinetypeTableRecord
  2
PHANTOM
 70
0
  3
Phantom ______  __  __  ______  __  __  ______
 72
65
 73
6
 40
6.35
 49
3.175
 74
0
 49
-0.635
 74
0
 49
0.635
 74
0
 49
-0.635
 74
0
 49
0.635
 74
0
 49
-0.635
 74
0
  0
LTYPE
  5
36
330
2
100
AcDbSymbolTableRecord
100
AcDbLinetypeTableRecord
  2
PHANTOMX2
 70
0
  3
Phantom (2x)____________    ____    ____    ____________
 72
65
 73
6
 40
10.795
 49
6.35
 74
0
 49
-0.635
 74
0
 49
1.27
 74
0
 49
-0.635
 74
0
 49
1.27
 74
0
 49
-0.635
 74
0
  0
LTYPE
  5
37
330
2
100
AcDbSymbolTableRecord
100
AcDbLinetypeTableRecord
  2
PHANTOM2
 70
0
  3
Phantom (.5x) ___ _ _ ___ _ _ ___ _ _ ___ _ _ ___
 72
65
 73
6
 40
3.175
 49
1.587
 74
0
 49
-0.318
 74
0
 49
0.318
 74
0
 49
-0.318
 74
0
 49
0.318
 74
0
 49
-0.318
 74
0
  0
LTYPE
  5
38
330
2
100
AcDbSymbolTableRecord
100
AcDbLinetypeTableRecord
  2
DASHDOT
 70
0
  3
Dash dot __ . __ . __ . __ . __ . __ . __ . __
 72
65
 73
4
 40
3.556
 49
2.54
 74
0
 49
-0.508
 74
0
 49
0.0
 74
0
 49
-0.508
 74
0
  0
LTYPE
  5
39
330
2
100
AcDbSymbolTableRecord
100
AcDbLinetypeTableRecord
  2
DASHDOTX2
 70
0
  3
Dash dot (2x) ____  .  ____  .  ____  .  ____
 72
65
 73
4
 40
6.096
 49
5.08
 74
0
 49
-0.508
 74
0
 49
0.0
 74
0
 49
-0.508
 74
0
  0
LTYPE
  5
3A
330
2
100
AcDbSymbolTableRecord
100
AcDbLinetypeTableRecord
  2
DASHDOT2
 70
0
  3
Dash dot (.5x) _ . _ . _ . _ . _ . _ . _ . _
 72
65
 73
4
 40
1.778
 49
1.27
 74
0
 49
-0.254
 74
0
 49
0.0
 74
0
 49
-0.254
 74
0
  0
LTYPE
  5
3B
330
2
100
AcDbSymbolTableRecord
100
AcDbLinetypeTableRecord
  2
DOT
 70
0
  3
Dot .  .  .  .  .  .  .  .  .  .  .  .  .  .  .  .
 72
65
 73
2
 40
0.508
 49
0.0
 74
0
 49
-0.508
 74
0
  0
LTYPE
  5
3C
330
2
100
AcDbSymbolTableRecord
100
AcDbLinetypeTableRecord
  2
DOTX2
 70
0
  3
Dot (2x) .    .    .    .    .    .    .    . 
 72
65
 73
2
 40
1.016
 49
0.0
 74
0
 49
-1.016
 74
0
  0
LTYPE
  5
3D
330
2
100
AcDbSymbolTableRecord
100
AcDbLinetypeTableRecord
  2
DOT2
 70
0
  3
Dot (.5) . . . . . . . . . . . . . . . . . . . 
 72
65
 73
2
 40
0.254
 49
0.0
 74
0
 49
-0.254
 74
0
  0
LTYPE
  5
3E
330
2
100
AcDbSymbolTableRecord
100
AcDbLinetypeTableRecord
  2
DIVIDE
 70
0
  3
Divide __ . . __ . . __ . . __ . . __ . . __
 72
65
 73
6
 40
4.064
 49
2.54
 74
0
 49
-0.508
 74
0
 49
0.0
 74
0
 49
-0.508
 74
0
 49
0.0
 74
0
 49
-0.508
 74
0
  0
LTYPE
  5
3F
330
2
100
AcDbSymbolTableRecord
100
AcDbLinetypeTableRecord
  2
DIVIDEX2
 70
0
  3
Divide (2x) ____  . .  ____  . .  ____  . .  ____
 72
65
 73
6
 40
6.604
 49
5.08
 74
0
 49
-0.508
 74
0
 49
0.0
 74
0
 49
-0.508
 74
0
 49
0.0
 74
0
 49
-0.508
 74
0
  0
LTYPE
  5
40
330
2
100
AcDbSymbolTableRecord
100
AcDbLinetypeTableRecord
  2
DIVIDE2
 70
0
  3
Divide(.5x) _ . _ . _ . _ . _ . _ . _ . _
 72
65
 73
6
 40
2.032
 49
1.27
 74
0
 49
-0.254
 74
0
 49
0.0
 74
0
 49
-0.254
 74
0
 49
0.0
 74
0
 49
-0.254
 74
0
  0
ENDTAB
  0
TABLE
  2
LAYER
  5
1
330
0
100
AcDbSymbolTable
 70
4
  0
LAYER
  5
27
330
1
100
AcDbSymbolTableRecord
100
AcDbLayerTableRecord
  2
0
 70
0
 62
7
  6
Continuous
370
-3
390
13
347
21
  0
LAYER
  5
28
330
1
100
AcDbSymbolTableRecord
100
AcDbLayerTableRecord
  2
Defpoints
 70
0
 62
7
  6
Continuous
290
0
370
-3
390
13
347
21
  0
LAYER
  5
8A
330
1
100
AcDbSymbolTableRecord
100
AcDbLayerTableRecord
  2
Layer
 70
0
 62
1
  6
Continuous
370
50
390
13
347
21
  0
LAYER
  5
8B
330
1
100
AcDbSymbolTableRecord
100
AcDbLayerTableRecord
  2
NumLabel
 70
0
 62
1
  6
Continuous
370
15
390
13
347
21
  0
ENDTAB
  0
TABLE
  2
STYLE
  5
5
330
0
100
AcDbSymbolTable
 70
26
  0
STYLE
  5
29
330
5
100
AcDbSymbolTableRecord
100
AcDbTextStyleTableRecord
  2
Standard
 70
0
 40
0.0
 41
1.0
 50
0.0
 71
0
 42
2.5
  3
txt
  4

  0
STYLE
  5
41
330
5
100
AcDbSymbolTableRecord
100
AcDbTextStyleTableRecord
  2
OpenSans-Light
 70
0
 40
0.0
 41
1.0
 50
0.0
 71
0
 42
2.5
  3
OpenSans-Light.ttf
  4

  0
STYLE
  5
42
330
5
100
AcDbSymbolTableRecord
100
AcDbTextStyleTableRecord
  2
OpenSans-Light-Italic
 70
0
 40
0.0
 41
1.0
 50
0.0
 71
0
 42
2.5
  3
OpenSans-LightItalic.ttf
  4

  0
STYLE
  5
43
330
5
100
AcDbSymbolTableRecord
100
AcDbTextStyleTableRecord
  2
OpenSans
 70
0
 40
0.0
 41
1.0
 50
0.0
 71
0
 42
2.5
  3
OpenSans-Regular.ttf
  4

  0
STYLE
  5
44
330
5
100
AcDbSymbolTableRecord
100
AcDbTextStyleTableRecord
  2
OpenSans-Italic
 70
0
 40
0.0
 41
1.0
 50
0.0
 71
0
 42
2.5
  3
OpenSans-Italic.ttf
  4

  0
STYLE
  5
45
330
5
100
AcDbSymbolTableRecord
100
AcDbTextStyleTableRecord
  2
OpenSans-SemiBold
 70
0
 40
0.0
 41
1.0
 50
0.0
 71
0
 42
2.5
  3
OpenSans-SemiBold.ttf
  4

  0
STYLE
  5
46
330
5
100
AcDbSymbolTableRecord
100
AcDbTextStyleTableRecord
  2
OpenSans-SemiBoldItalic
 70
0
 40
0.0
 41
1.0
 50
0.0
 71
0
 42
2.5
  3
OpenSans-SemiBoldItalic.ttf
  4

  0
STYLE
  5
47
330
5
100
AcDbSymbolTableRecord
100
AcDbTextStyleTableRecord
  2
OpenSans-Bold
 70
0
 40
0.0
 41
1.0
 50
0.0
 71
0
 42
2.5
  3
OpenSans-Bold.ttf
  4

  0
STYLE
  5
48
330
5
100
AcDbSymbolTableRecord
100
AcDbTextStyleTableRecord
  2
OpenSans-BoldItalic
 70
0
 40
0.0
 41
1.0
 50
0.0
 71
0
 42
2.5
  3
OpenSans-BoldItalic.ttf
  4

  0
STYLE
  5
49
330
5
100
AcDbSymbolTableRecord
100
AcDbTextStyleTableRecord
  2
OpenSans-ExtraBold
 70
0
 40
0.0
 41
1.0
 50
0.0
 71
0
 42
2.5
  3
OpenSans-ExtraBold.ttf
  4

  0
STYLE
  5
4A
330
5
100
AcDbSymbolTableRecord
100
AcDbTextStyleTableRecord
  2
OpenSans-ExtraBoldItalic
 70
0
 40
0.0
 41
1.0
 50
0.0
 71
0
 42
2.5
  3
OpenSans-ExtraBoldItalic.ttf
  4

  0
STYLE
  5
4B
330
5
100
AcDbSymbolTableRecord
100
AcDbTextStyleTableRecord
  2
OpenSansCondensed-Bold
 70
0
 40
0.0
 41
1.0
 50
0.0
 71
0
 42
2.5
  3
OpenSansCondensed-Bold.ttf
  4

  0
STYLE
  5
4C
330
5
100
AcDbSymbolTableRecord
100
AcDbTextStyleTableRecord
  2
OpenSansCondensed-Light
 70
0
 40
0.0
 41
1.0
 50
0.0
 71
0
 42
2.5
  3
OpenSansCondensed-Light.ttf
  4

  0
STYLE
  5
4D
330
5
100
AcDbSymbolTableRecord
100
AcDbTextStyleTableRecord
  2
OpenSansCondensed-Italic
 70
0
 40
0.0
 41
1.0
 50
0.0
 71
0
 42
2.5
  3
OpenSansCondensed-LightItalic.ttf
  4

  0
STYLE
  5
4E
330
5
100
AcDbSymbolTableRecord
100
AcDbTextStyleTableRecord
  2
LiberationSans
 70
0
 40
0.0
 41
1.0
 50
0.0
 71
0
 42
2.5
  3
LiberationSans-Regular.ttf
  4

  0
STYLE
  5
4F
330
5
100
AcDbSymbolTableRecord
100
AcDbTextStyleTableRecord
  2
LiberationSans-Bold
 70
0
 40
0.0
 41
1.0
 50
0.0
 71
0
 42
2.5
  3
LiberationSans-Bold.ttf
  4

  0
STYLE
  5
50
330
5
100
AcDbSymbolTableRecord
100
AcDbTextStyleTableRecord
  2
LiberationSans-BoldItalic
 70
0
 40
0.0
 41
1.0
 50
0.0
 71
0
 42
2.5
  3
LiberationSans-BoldItalic.ttf
  4

  0
STYLE
  5
51
330
5
100
AcDbSymbolTableRecord
100
AcDbTextStyleTableRecord
  2
LiberationSans-Italic
 70
0
 40
0.0
 41
1.0
 50
0.0
 71
0
 42
2.5
  3
LiberationSans-Italic.ttf
  4

  0
STYLE
  5
52
330
5
100
AcDbSymbolTableRecord
100
AcDbTextStyleTableRecord
  2
LiberationSerif
 70
0
 40
0.0
 41
1.0
 50
0.0
 71
0
 42
2.5
  3
LiberationSerif-Regular.ttf
  4

  0
STYLE
  5
53
330
5
100
AcDbSymbolTableRecord
100
AcDbTextStyleTableRecord
  2
LiberationSerif-Bold
 70
0
 40
0.0
 41
1.0
 50
0.0
 71
0
 42
2.5
  3
LiberationSerif-Bold.ttf
  4

  0
STYLE
  5
54
330
5
100
AcDbSymbolTableRecord
100
AcDbTextStyleTableRecord
  2
LiberationSerif-BoldItalic
 70
0
 40
0.0
 41
1.0
 50
0.0
 71
0
 42
2.5
  3
LiberationSerif-BoldItalic.ttf
  4

  0
STYLE
  5
55
330
5
100
AcDbSymbolTableRecord
100
AcDbTextStyleTableRecord
  2
LiberationSerif-Italic
 70
0
 40
0.0
 41
1.0
 50
0.0
 71
0
 42
2.5
  3
LiberationSerif-Italic.ttf
  4

  0
STYLE
  5
56
330
5
100
AcDbSymbolTableRecord
100
AcDbTextStyleTableRecord
  2
LiberationMono
 70
0
 40
0.0
 41
1.0
 50
0.0
 71
0
 42
2.5
  3
LiberationMono-Regular.ttf
  4

  0
STYLE
  5
57
330
5
100
AcDbSymbolTableRecord
100
AcDbTextStyleTableRecord
  2
LiberationMono-Bold
 70
0
 40
0.0
 41
1.0
 50
0.0
 71
0
 42
2.5
  3
LiberationMono-Bold.ttf
  4

  0
STYLE
  5
58
330
5
100
AcDbSymbolTableRecord
100
AcDbTextStyleTableRecord
  2
LiberationMono-BoldItalic
 70
0
 40
0.0
 41
1.0
 50
0.0
 71
0
 42
2.5
  3
LiberationMono-BoldItalic.ttf
  4

  0
STYLE
  5
59
330
5
100
AcDbSymbolTableRecord
100
AcDbTextStyleTableRecord
  2
LiberationMono-Italic
 70
0
 40
0.0
 41
1.0
 50
0.0
 71
0
 42
2.5
  3
LiberationMono-Italic.ttf
  4

  0
ENDTAB
  0
TABLE
  2
VIEW
  5
7
330
0
100
AcDbSymbolTable
 70
0
  0
ENDTAB
  0
TABLE
  2
UCS
  5
6
330
0
100
AcDbSymbolTable
 70
0
  0
ENDTAB
  0
TABLE
  2
APPID
  5
3
330
0
100
AcDbSymbolTable
 70
3
  0
APPID
  5
2A
330
3
100
AcDbSymbolTableRecord
100
AcDbRegAppTableRecord
  2
ACAD
 70
0
  0
APPID
  5
AF
330
3
100
AcDbSymbolTableRecord
100
AcDbRegAppTableRecord
  2
HATCHBACKGROUNDCOLOR
 70
0
  0
APPID
  5
B0
330
3
100
AcDbSymbolTableRecord
100
AcDbRegAppTableRecord
  2
EZDXF
 70
0
  0
ENDTAB
  0
TABLE
  2
DIMSTYLE
  5
4
330
0
100
AcDbSymbolTable
 70
12
100
AcDbDimStyleTable
  0
DIMSTYLE
105
2B
330
4
100
AcDbSymbolTableRecord
100
AcDbDimStyleTableRecord
  2
Standard
 70
0
 40
1.0
 41
2.5
 42
0.625
 43
3.75
 44
1.25
 45
0.0
 46
0.0
 47
0.0
 48
0.0
 49
2.5
140
2.5
141
2.5
142
0.0
143
0.03937007874
144
1.0
145
0.0
146
1.0
147
0.625
148
0.0
 69
0
 70
0
 71
0
 72
0
 73
0
 74
0
 75
0
 76
0
 77
1
 78
8
 79
3
170
0
171
3
172
1
173
0
174
0
175
0
176
0
177
0
178
0
179
2
271
2
272
2
273
2
274
3
275
0
276
0
277
2
278
44
279
0
280
0
281
0
282
0
283
0
284
8
285
0
286
0
288
0
289
3
290
0
371
-2
372
-2
  0
DIMSTYLE
105
73
330
4
100
AcDbSymbolTableRecord
100
AcDbDimStyleTableRecord
  2
EZDXF
 70
0
 40
1.0
 41
0.175
 42
0.125
 43
3.75
 44
0.375
 45
0.0
 46
0.0
 47
0.0
 48
0.0
 49
2.5
140
0.25
141
2.5
142
0.0
143
0.03937007874
144
100.0
145
0.0
146
0.5
147
0.1
148
0.0
 69
0
 70
0
 71
0
 72
0
 73
0
 74
0
 75
0
 76
0
 77
1
 78
12
 79
3
170
0
171
3
172
1
173
0
174
0
175
0
176
0
177
0
178
0
179
2
271
2
272
2
273
2
274
3
275
0
276
0
277
2
278
46
279
2
280
0
281
0
282
0
283
0
284
8
285
0
286
0
288
1
289
3
290
0
340
4C
342
74
371
-2
372
-2
  0
DIMSTYLE
105
7C
330
4
100
AcDbSymbolTableRecord
100
AcDbDimStyleTableRecord
  2
EZ_M_100_H25_CM
 70
0
 40
1.0
 41
0.25
 42
0.125
 43
3.75
 44
0.375
 45
0.0
 46
0.0
 47
0.0
 48
0.0
 49
2.5
140
0.25
141
2.5
142
0.125
143
0.03937007874
144
100.0
145
0.0
146
0.5
147
0.1
148
0.0
 69
0
 70
0
 71
0
 72
0
 73
0
 74
0
 75
0
 76
0
 77
1
 78
12
 79
3
170
0
171
3
172
1
173
0
174
0
175
0
176
0
177
0
178
0
179
2
271
2
272
2
273
2
274
3
275
0
276
0
277
2
278
46
279
2
280
0
281
0
282
0
283
0
284
8
285
0
286
0
288
1
289
3
290
0
340
4C
371
-2
372
-2
  0
DIMSTYLE
105
7D
330
4
100
AcDbSymbolTableRecord
100
AcDbDimStyleTableRecord
  2
EZ_M_50_H25_CM
 70
0
 40
1.0
 41
0.125
 42
0.0625
 43
3.75
 44
0.1875
 45
0.0
 46
0.0
 47
0.0
 48
0.0
 49
2.5
140
0.125
141
2.5
142
0.0625
143
0.03937007874
144
100.0
145
0.0
146
0.5
147
0.05
148
0.0
 69
0
 70
0
 71
0
 72
0
 73
0
 74
0
 75
0
 76
0
 77
1
 78
12
 79
3
170
0
171
3
172
1
173
0
174
0
175
0
176
0
177
0
178
0
179
2
271
2
272
2
273
2
274
3
275
0
276
0
277
2
278
46
279
2
280
0
281
0
282
0
283
0
284
8
285
0
286
0
288
1
289
3
290
0
340
4C
371
-2
372
-2
  0
DIMSTYLE
105
7E
330
4
100
AcDbSymbolTableRecord
100
AcDbDimStyleTableRecord
  2
EZ_M_25_H25_CM
 70
0
 40
1.0
 41
0.0625
 42
0.03125
 43
3.75
 44
0.09375
 45
0.0
 46
0.0
 47
0.0
 48
0.0
 49
2.5
140
0.0625
141
2.5
142
0.03125
143
0.03937007874
144
100.0
145
0.0
146
0.5
147
0.025
148
0.0
 69
0
 70
0
 71
0
 72
0
 73
0
 74
0
 75
0
 76
0
 77
1
 78
12
 79
3
170
0
171
3
172
1
173
0
174
0
175
0
176
0
177
0
178
0
179
2
271
2
272
2
273
2
274
3
275
0
276
0
277
2
278
46
279
2
280
0
281
0
282
0
283
0
284
8
285
0
286
0
288
1
289
3
290
0
340
4C
371
-2
372
-2
  0
DIMSTYLE
105
7F
330
4
100
AcDbSymbolTableRecord
100
AcDbDimStyleTableRecord
  2
EZ_M_20_H25_CM
 70
0
 40
1.0
 41
0.05
 42
0.025
 43
3.75
 44
0.07500000000000001
 45
0.0
 46
0.0
 47
0.0
 48
0.0
 49
2.5
140
0.05
141
2.5
142
0.025
143
0.03937007874
144
100.0
145
0.0
146
0.5
147
0.020000000000000004
148
0.0
 69
0
 70
0
 71
0
 72
0
 73
0
 74
0
 75
0
 76
0
 77
1
 78
12
 79
3
170
0
171
3
172
1
173
0
174
0
175
0
176
0
177
0
178
0
179
2
271
2
272
2
273
2
274
3
275
0
276
0
277
2
278
46
279
2
280
0
281
0
282
0
283
0
284
8
285
0
286
0
288
1
289
3
290
0
340
4C
371
-2
372
-2
  0
DIMSTYLE
105
80
330
4
100
AcDbSymbolTableRecord
100
AcDbDimStyleTableRecord
  2
EZ_M_10_H25_CM
 70
0
 40
1.0
 41
0.025
 42
0.0125
 43
3.75
 44
0.037500000000000006
 45
0.0
 46
0.0
 47
0.0
 48
0.0
 49
2.5
140
0.025
141
2.5
142
0.0125
143
0.03937007874
144
100.0
145
0.0
146
0.5
147
0.010000000000000002
148
0.0
 69
0
 70
0
 71
0
 72
0
 73
0
 74
0
 75
0
 76
0
 77
1
 78
12
 79
3
170
0
171
3
172
1
173
0
174
0
175
0
176
0
177
0
178
0
179
2
271
2
272
2
273
2
274
3
275
0
276
0
277
2
278
46
279
2
280
0
281
0
282
0
283
0
284
8
285
0
286
0
288
1
289
3
290
0
340
4C
371
-2
372
-2
  0
DIMSTYLE
105
81
330
4
100
AcDbSymbolTableRecord
100
AcDbDimStyleTableRecord
  2
EZ_M_5_H25_CM
 70
0
 40
1.0
 41
0.0125
 42
0.00625
 43
3.75
 44
0.018750000000000003
 45
0.0
 46
0.0
 47
0.0
 48
0.0
 49
2.5
140
0.0125
141
2.5
142
0.00625
143
0.03937007874
144
100.0
145
0.0
146
0.5
147
0.005000000000000001
148
0.0
 69
0
 70
0
 71
0
 72
0
 73
0
 74
0
 75
0
 76
0
 77
1
 78
12
 79
3
170
0
171
3
172
1
173
0
174
0
175
0
176
0
177
0
178
0
179
2
271
2
272
2
273
2
274
3
275
0
276
0
277
2
278
46
279
2
280
0
281
0
282
0
283
0
284
8
285
0
286
0
288
1
289
3
290
0
340
4C
371
-2
372
-2
  0
DIMSTYLE
105
82
330
4
100
AcDbSymbolTableRecord
100
AcDbDimStyleTableRecord
  2
EZ_M_1_H25_CM
 70
0
 40
1.0
 41
0.0025
 42
0.00125
 43
3.75
 44
0.00375
 45
0.0
 46
0.0
 47
0.0
 48
0.0
 49
2.5
140
0.0025
141
2.5
142
0.00125
143
0.03937007874
144
100.0
145
0.0
146
0.5
147
0.001
148
0.0
 69
0
 70
0
 71
0
 72
0
 73
0
 74
0
 75
0
 76
0
 77
1
 78
12
 79
3
170
0
171
3
172
1
173
0
174
0
175
0
176
0
177
0
178
0
179
2
271
2
272
2
273
2
274
3
275
0
276
0
277
2
278
46
279
2
280
0
281
0
282
0
283
0
284
8
285
0
286
0
288
1
289
3
290
0
340
4C
371
-2
372
-2
  0
DIMSTYLE
105
83
330
4
100
AcDbSymbolTableRecord
100
AcDbDimStyleTableRecord
  2
EZ_RADIUS
 70
0
 40
1.0
 41
0.25
 42
0.125
 43
3.75
 44
0.375
 45
0.0
 46
0.0
 47
0.0
 48
0.0
 49
2.5
140
0.25
141
0.0
142
0.0
143
0.03937007874
144
100.0
145
0.0
146
0.5
147
0.1
148
0.0
 69
0
 70
0
 71
0
 72
0
 73
0
 74
0
 75
0
 76
0
 77
1
 78
12
 79
3
170
0
171
3
172
0
173
0
174
0
175
0
176
0
177
0
178
0
179
2
271
2
272
2
273
2
274
3
275
0
276
0
277
2
278
46
279
1
280
0
281
0
282
0
283
0
284
8
285
0
286
0
288
1
289
3
290
0
340
4C
342
84
371
-2
372
-2
  0
DIMSTYLE
105
88
330
4
100
AcDbSymbolTableRecord
100
AcDbDimStyleTableRecord
  2
EZ_RADIUS_INSIDE
 70
0
 40
1.0
 41
0.25
 42
0.125
 43
3.75
 44
0.375
 45
0.0
 46
0.0
 47
0.0
 48
0.0
 49
2.5
140
0.25
141
0.0
142
0.0
143
0.03937007874
144
100.0
145
0.0
146
0.5
147
0.1
148
0.0
 69
0
 70
0
 71
0
 72
0
 73
0
 74
0
 75
0
 76
0
 77
0
 78
12
 79
3
170
0
171
3
172
0
173
0
174
1
175
0
176
0
177
0
178
0
179
2
271
2
272
2
273
2
274
3
275
0
276
0
277
2
278
46
279
0
280
0
281
0
282
0
283
0
284
8
285
0
286
0
288
1
289
0
290
0
340
4C
342
84
371
-2
372
-2
  0
DIMSTYLE
105
89
330
4
100
AcDbSymbolTableRecord
100
AcDbDimStyleTableRecord
  2
EZ_CURVED
 70
0
 40
1.0
 41
0.25
 42
0.125
 43
3.75
 44
0.375
 45
0.0
 46
0.0
 47
0.0
 48
0.0
 49
2.5
140
0.25
141
2.5
142
0.0
143
0.03937007874
144
100.0
145
0.0
146
0.5
147
0.1
148
0.0
 69
0
 70
0
 71
0
 72
0
 73
0
 74
0
 75
0
 76
0
 77
1
 78
12
 79
2
 90
2
170
0
171
3
172
1
173
0
174
0
175
0
176
0
177
0
178
0
179
2
271
2
272
2
273
2
274
3
275
0
276
0
277
2
278
46
279
2
280
0
281
0
282
0
283
0
284
8
285
0
286
0
288
1
289
3
290
0
340
4C
371
-2
372
-2
  0
ENDTAB
  0
TABLE
  2
BLOCK_RECORD
  5
9
330
0
100
AcDbSymbolTable
 70
5
  0
BLOCK_RECORD
  5
17
330
9
100
AcDbSymbolTableRecord
100
AcDbBlockTableRecord
  2
*Model_Space
340
1A
 70
0
280
1
281
0
  0
BLOCK_RECORD
  5
1B
330
9
100
AcDbSymbolTableRecord
100
AcDbBlockTableRecord
  2
*Paper_Space
340
1E
 70
0
280
1
281
0
  0
BLOCK_RECORD
  5
74
330
9
100
AcDbSymbolTableRecord
100
AcDbBlockTableRecord
  2
_ARCHTICK
340
0
 70
0
280
1
281
0
  0
BLOCK_RECORD
  5
78
330
9
100
AcDbSymbolTableRecord
100
AcDbBlockTableRecord
  2
_CLOSEDFILLED
340
0
 70
0
280
1
281
0
  0
BLOCK_RECORD
  5
84
330
9
100
AcDbSymbolTableRecord
100
AcDbBlockTableRecord
  2
_CLOSEDBLANK
340
0
 70
0
280
1
281
0
  0
ENDTAB
  0
ENDSEC
  0
SECTION
  2
BLOCKS
  0
BLOCK
  5
18
330
17
100
AcDbEntity
  8
0
100
AcDbBlockBegin
  2
*Model_Space
 70
0
 10
0.0
 20
0.0
 30
0.0
  3
*Model_Space
  1

  0
ENDBLK
  5
19
330
17
100
AcDbEntity
  8
0
100
AcDbBlockEnd
  0
BLOCK
  5
1C
330
1B
100
AcDbEntity
  8
0
100
AcDbBlockBegin
  2
*Paper_Space
 70
0
 10
0.0
 20
0.0
 30
0.0
  3
*Paper_Space
  1

  0
ENDBLK
  5
1D
330
1B
100
AcDbEntity
  8
0
100
AcDbBlockEnd
  0
BLOCK
  5
75
330
74
100
AcDbEntity
  8
0
100
AcDbBlockBegin
  2
_ARCHTICK
 70
0
 10
0.0
 20
0.0
 30
0.0
  3
_ARCHTICK
  1

  0
LWPOLYLINE
  5
77
330
74
100
AcDbEntity
  8
0
  6
BYBLOCK
 62
0
100
AcDbPolyline
 90
2
 70
0
 43
0.15
 10
-0.5
 20
-0.5
 10
0.5
 20
0.5
  0
ENDBLK
  5
76
330
74
100
AcDbEntity
  8
0
100
AcDbBlockEnd
  0
BLOCK
  5
79
330
78
100
AcDbEntity
  8
0
100
AcDbBlockBegin
  2
_CLOSEDFILLED
 70
0
 10
0.0
 20
0.0
 30
0.0
  3
_CLOSEDFILLED
  1

  0
SOLID
  5
7B
330
78
100
AcDbEntity
  8
0
  6
BYBLOCK
 62
0
100
AcDbTrace
 10
-1.0
 20
0.16439898372402537
 30
0.0
 11
0.0
 21
0.0
 31
0.0
 12
-1.0
 22
-0.16439898372402537
 32
0.0
 13
-1.0
 23
-0.16439898372402537
 33
0.0
  0
ENDBLK
  5
7A
330
78
100
AcDbEntity
  8
0
100
AcDbBlockEnd
  0
BLOCK
  5
85
330
84
100
AcDbEntity
  8
0
100
AcDbBlockBegin
  2
_CLOSEDBLANK
 70
0
 10
0.0
 20
0.0
 30
0.0
  3
_CLOSEDBLANK
  1

  0
LWPOLYLINE
  5
87
330
84
100
AcDbEntity
  8
0
  6
BYBLOCK
 62
0
100
AcDbPolyline
 90
3
 70
1
 10
-1.0
 20
0.16439898372402537
 10
0.0
 20
0.0
 10
-1.0
 20
-0.16439898372402537
  0
ENDBLK
  5
86
330
84
100
AcDbEntity
  8
0
100
AcDbBlockEnd
  0
ENDSEC
  0
SECTION
  2
ENTITIES
  0
LWPOLYLINE
  5
8C
330
17
100
AcDbEntity
  8
Layer
100
AcDbPolyline
 90
261
 70
1
 10
317.06561990795876
 20
181.63449565312223
 10
315.64800042287703
 20
181.92716843302233
 10
313.3363800071788
 20
182.4140139697964
 10
310.8533152006514
 20
182.95794195976447
 10
308.25369408543634
 20
183.54108532971645
 10
305.58255441275804
 20
184.1535148833945
 10
302.873197715408
 20
184.7864180072606
 10
300.1426690664723
 20
185.43857250499042
 10
297.3987018640825
 20
186.10136908608985
 10
294.65330082950464
 20
186.77611409541004
 10
291.90501882923326
 20
187.46404044211545
 10
289.1539888557898
 20
188.15837835691266
 10
286.40921657086307
 20
188.86003487103878
 10
283.67039287231506
 20
189.5743990119838
 10
280.9340976540107
 20
190.3021329246966
 10
278.1963058078704
 20
191.035391264709
 10
275.45287185019333
 20
191.76835097674203
 10
272.71010101970296
 20
192.51172859597975
 10
269.96101243447873
 20
193.26420125203376
 10
267.2091579289352
 20
194.0195131744945
 10
264.45913705632995
 20
194.7777836157607
 10
261.71378265342105
 20
195.54087280892102
 10
258.97237192280124
 20
196.30682265790418
 10
256.2327344208872
 20
197.0658698103653
 10
253.49091223806283
 20
197.82467481330073
 10
250.74926562365505
 20
198.58606512975499
 10
248.0081442499461
 20
199.33978024500152
 10
245.26376452945027
 20
200.08711505758535
 10
242.52263453467663
 20
200.82925289622685
 10
240.80967294537226
 20
201.28638325351122
 10
240.5518309427216
 20
200.32019615896425
 10
239.53426373402806
 20
200.5917656500885
 10
236.7988133425841
 20
201.3085230159505
 10
234.06568362388555
 20
202.01515178797192
 10
231.33003505931254
 20
202.7087527799546
 10
228.59187420551604
 20
203.3921847432446
 10
225.8574552856893
 20
204.06361642345425
 10
223.12496091197636
 20
204.71939551868792
 10
220.38785419577448
 20
205.35948450493674
 10
217.64508549954348
 20
205.98606762262492
 10
214.89577795899902
 20
206.60064718163576
 10
212.14598865088396
 20
207.20454845622993
 10
209.39792754331032
 20
207.79421532846615
 10
206.64884286498736
 20
208.36879253060607
 10
203.89818566412262
 20
208.92707267205958
 10
201.13661710101562
 20
209.4717309455694
 10
198.38129347522457
 20
210.00622725173818
 10
195.6283441631898
 20
210.52035075123942
 10
192.8631690943472
 20
211.0180791233414
 10
190.09264987597788
 20
211.50478301329804
 10
187.32495396419264
 20
211.97880098827406
 10
184.55778741864773
 20
212.43623050860305
 10
181.7868312629476
 20
212.87698271118273
 10
179.00958330563827
 20
213.30291439337165
 10
176.22781999051662
 20
213.7160655405531
 10
173.44627849008467
 20
214.11642792924388
 10
170.66516390108978
 20
214.5010564670847
 10
167.87590933973266
 20
214.8705506789364
 10
165.08589993081256
 20
215.2290361579263
 10
162.298010084251
 20
215.57328904153908
 10
159.51002994652754
 20
215.90235364823394
 10
156.72283426562245
 20
216.21557430154144
 10
153.9316433118677
 20
216.51172076686572
 10
151.13196308116608
 20
216.7946736601712
 10
148.34009739172328
 20
217.06655019963176
 10
145.54739250651323
 20
217.3188907400372
 10
142.74961910689225
 20
217.55739528348838
 10
139.95738335307016
 20
217.78132229567254
 10
137.1646101949664
 20
217.98685151999499
 10
134.36841462432045
 20
218.1757718917443
 10
131.57342283055368
 20
218.34930235464077
 10
128.77701689064008
 20
218.5052806972016
 10
125.97791916242068
 20
218.64543380082932
 10
123.18202037556321
 20
218.7709064947743
 10
120.39250675821893
 20
218.87862376208537
 10
117.60303439202234
 20
218.96469277054655
 10
114.8057305565953
 20
219.03266649570634
 10
112.01930525911061
 20
219.08649674660367
 10
109.22988498907897
 20
219.11524912053326
 10
106.43640500997137
 20
219.12871385982103
 10
103.65106107109335
 20
219.12397527683098
 10
100.86680784983687
 20
219.09866379592506
 10
98.09071837982876
 20
219.05331173755906
 10
95.31452258569057
 20
218.98338831493896
 10
92.5392690495471
 20
218.89198608263067
 10
89.76388311366841
 20
218.7784980855788
 10
86.99410100755749
 20
218.6454705452609
 10
84.2306010088152
 20
218.48815071687798
 10
81.4685790338562
 20
218.30620195356656
 10
78.70936382962934
 20
218.10062277495797
 10
75.95363296993466
 20
217.8726318716653
 10
73.21304780300358
 20
217.6232097544189
 10
70.48643337847798
 20
217.3443768104618
 10
67.76225427727387
 20
217.03299708492503
 10
65.04982692398971
 20
216.69573923636688
 10
62.34859077139794
 20
216.32591063415532
 10
59.656355304259975
 20
215.92274475226472
 10
56.96791783846028
 20
215.4851411814259
 10
54.293117572952596
 20
215.02059038343734
 10
51.644037063560134
 20
214.52473461911748
 10
49.01753345404546
 20
213.99090266280393
 10
46.41610140972929
 20
213.4170706558583
 10
43.83754453105172
 20
212.80025932338094
 10
41.2896189442544
 20
212.13997750984012
 10
38.76325928533707
 20
211.4300725113362
 10
36.28235651663222
 20
210.6846520888789
 10
33.84694320974317
 20
209.88569367438012
 10
31.4658180540398
 20
209.04278159114415
 10
29.1581777605073
 20
208.154069731952
 10
26.932793576036048
 20
207.2204433342015
 10
24.818501328062823
 20
206.2538837275565
 10
22.84503253524069
 20
205.26567837725312
 10
21.023097081681627
 20
204.25690509648567
 10
19.389493334208467
 20
203.27318868388278
 10
17.961544407745265
 20
202.326151557105
 10
16.735218289106996
 20
201.42883930947156
 10
15.692997385934845
 20
200.59031524312226
 10
14.840382948810074
 20
199.8470550896805
 10
14.117845055875932
 20
199.12943458107122
 10
13.524906357645591
 20
198.4972287309978
 10
13.051767875866446
 20
197.9376649772028
 10
12.664337116831135
 20
197.4086878521213
 10
12.342449630605444
 20
196.90645020449153
 10
12.084877166254401
 20
196.45885445608573
 10
11.873212735605392
 20
196.03150878911245
 10
11.692759805558097
 20
195.61229189422835
 10
11.549364296869754
 20
195.2488830055924
 10
11.436435119905525
 20
194.91500484057062
 10
11.345749290998299
 20
194.589513048086
 10
11.278651954134517
 20
194.30865598323865
 10
11.227439423993971
 20
194.01558137849608
 10
11.18923974860654
 20
193.74239828802047
 10
11.164603687367332
 20
193.52833805233251
 10
11.183144764706682
 20
193.3629061170783
 10
11.199734202912154
 20
193.06595331210414
 10
11.215038730121819
 20
192.8224708162552
 10
11.240693872527075
 20
192.60019582574066
 10
11.29119910486321
 20
192.36463435904525
 10
11.379431691738716
 20
192.0991799384684
 10
11.509195430520066
 20
191.80805145108377
 10
11.684469708168692
 20
191.49483475276273
 10
11.913000281492742
 20
191.15903320845348
 10
12.201342973427714
 20
190.80223186874494
 10
12.55377216655637
 20
190.42905057467993
 10
12.980825321624465
 20
190.04166892200905
 10
13.499763660666204
 20
189.6405264297953
 10
14.13892375815955
 20
189.2219282100034
 10
14.925155517753083
 20
188.78018266840257
 10
15.85846010304482
 20
188.31526036223968
 10
16.941599428487876
 20
187.8356852902955
 10
18.227415449236176
 20
187.351521194506
 10
19.759178454970723
 20
186.8628495864153
 10
21.530038187095755
 20
186.3634954883417
 10
23.499491650448277
 20
185.864684188005
 10
25.665393198853693
 20
185.3972677012354
 10
28.005177873135537
 20
184.958315161321
 10
30.448155177575245
 20
184.5494692801974
 10
32.97166847921741
 20
184.1879098573572
 10
35.57678973847649
 20
183.875275248487
 10
38.26628449271557
 20
183.59237938551405
 10
40.989268948684554
 20
183.31793993121235
 10
43.69233428837535
 20
183.06464745778075
 10
46.40993548383959
 20
182.8605779027253
 10
49.184888763793964
 20
182.68775523205278
 10
51.97833123430141
 20
182.5165300297361
 10
54.7683077888898
 20
182.3540254768806
 10
57.55212156410809
 20
182.20915200779586
 10
60.3364259253531
 20
182.08814045949129
 10
63.13641187491704
 20
181.98938139993183
 10
65.95341885482735
 20
181.90424963039135
 10
68.78282271622385
 20
181.8279904426794
 10
70.77916219610454
 20
181.77728452318655
 10
70.753770938623
 20
180.77760693313888
 10
71.59362874079659
 20
180.7562743542825
 10
74.41966959002056
 20
180.68906507517312
 10
77.23907686423303
 20
180.63489340804495
 10
80.05287271093238
 20
180.58253499790666
 10
82.87323417493572
 20
180.54767088553587
 10
85.70763821378199
 20
180.51910807947536
 10
88.55190564436424
 20
180.48921456795566
 10
91.40278045802789
 20
180.4632902754048
 10
94.25707145062047
 20
180.44021917644505
 10
97.11113806041806
 20
180.42032158007453
 10
99.9632192857785
 20
180.40470659246432
 10
102.81381900060623
 20
180.3952688468292
 10
105.66626532691626
 20
180.3928508006162
 10
108.52405343166807
 20
180.3958530451025
 10
111.38720851150323
 20
180.40100170128943
 10
114.2528979324542
 20
180.40642706649916
 10
117.11835516319002
 20
180.41142652830925
 10
119.98151592154377
 20
180.41652686059433
 10
122.84165231949079
 20
180.42431623656546
 10
125.70120394717479
 20
180.43666224681112
 10
128.56338376311464
 20
180.45247096761503
 10
131.42708161450412
 20
180.46874013669606
 10
134.29028049772253
 20
180.48603706138894
 10
137.15280116339994
 20
180.50532857154565
 10
140.01325479744372
 20
180.5268714208072
 10
142.8728025486226
 20
180.55242452886404
 10
145.73422161000505
 20
180.58156323195507
 10
148.59692563160363
 20
180.61141370628752
 10
151.4580574005601
 20
180.63933057436515
 10
154.3165306554797
 20
180.6680594804679
 10
157.17173704358737
 20
180.70099716117576
 10
160.02580169233946
 20
180.7394567177526
 10
162.88172440321065
 20
180.78365617724944
 10
165.74178511140352
 20
180.83114832043248
 10
168.60336038824104
 20
180.87832270137707
 10
171.46438869438114
 20
180.923279124047
 10
174.32268390447365
 20
180.96827320432516
 10
177.1758759310431
 20
181.01710193619326
 10
180.02708209149972
 20
181.07236391894676
 10
182.87959952300193
 20
181.13263543968804
 10
185.73185824376444
 20
181.19096820859852
 10
188.58414338702428
 20
181.24208957130588
 10
191.43882837144963
 20
181.289400150817
 10
194.2918322044327
 20
181.3383351775321
 10
197.1427496364568
 20
181.39304003118235
 10
199.99565621349296
 20
181.45411938079465
 10
202.85133720021255
 20
181.5170886814555
 10
205.70521073826697
 20
181.57643844910376
 10
208.5567948941581
 20
181.63148961971012
 10
211.40570131210245
 20
181.68961289301686
 10
214.25398453376772
 20
181.7553828661277
 10
217.10696734530342
 20
181.82714262664544
 10
219.96163885626362
 20
181.89811508555482
 10
222.8162825931177
 20
181.96388569252122
 10
225.6730775950516
 20
182.02421837337607
 10
228.53286610181897
 20
182.0816490418747
 10
231.39335045248833
 20
182.13756658786568
 10
234.25130730870526
 20
182.1927031538482
 10
237.1045161571068
 20
182.25161094090015
 10
239.95758427598673
 20
182.31277714273187
 10
242.8080593154811
 20
182.3667243674485
 10
245.66160169676064
 20
182.41218463915408
 10
248.52070305392533
 20
182.45459394519324
 10
251.3831202101168
 20
182.49755446393615
 10
254.24594396507902
 20
182.54084923676567
 10
257.1060040354146
 20
182.58323330434928
 10
259.9615194551266
 20
182.62144445957892
 10
262.8143907127238
 20
182.65259420236075
 10
265.6677589035821
 20
182.6786608420333
 10
268.5191118334461
 20
182.70111529360878
 10
271.3667059699488
 20
182.7152029282242
 10
274.21516125104154
 20
182.7221123772357
 10
277.06299878562965
 20
182.73026613854728
 10
279.9081734483593
 20
182.73695748918004
 10
282.7498988164727
 20
182.7323298114883
 10
285.59262292158684
 20
182.71968244998254
 10
288.43614191910297
 20
182.6992799824315
 10
291.27831683698787
 20
182.67541868407827
 10
294.11556585030416
 20
182.64173054538497
 10
296.95055617700746
 20
182.5988476650681
 10
299.77889074283075
 20
182.54892433328996
 10
302.59266383120536
 20
182.49082105552088
 10
305.38278407353755
 20
182.42151343987604
 10
308.13220216843393
 20
182.34474913270114
 10
310.80624207022095
 20
182.26109492588307
 10
313.3564163291875
 20
182.17087632746748
 10
315.7219854646712
 20
182.07504485915481
 10
317.1659552998362
 20
182.00867118763344
  0
LWPOLYLINE
  5
8D
330
17
100
AcDbEntity
  8
Layer
100
AcDbPolyline
 90
5
 70
0
 10
211.2289189070417
 20
203.3102794912535
 10
207.31793531939047
 20
204.14945013964555
 10
208.1571059677825
 20
208.06043372729678
 10
212.06808955543374
 20
207.22126307890474
 10
211.2289189070417
 20
203.3102794912535
  0
LWPOLYLINE
  5
8E
330
17
100
AcDbEntity
  8
Layer
100
AcDbPolyline
 90
5
 70
0
 10
96.0258722386924
 20
215.00465750567002
 10
92.02804211232625
 20
214.87292185856143
 10
91.89630646521765
 20
218.8707519849276
 10
95.8941365915838
 20
219.0024876320362
 10
96.0258722386924
 20
215.00465750567002
  0
LWPOLYLINE
  5
8F
330
17
100
AcDbEntity
  8
Layer
100
AcDbPolyline
 90
5
 70
0
 10
44.55110599900171
 20
208.8530087694142
 10
40.6791291650048
 20
207.8491186374818
 10
39.67523903307242
 20
211.72109547147875
 10
43.54721586706933
 20
212.72498560341114
 10
44.55110599900171
 20
208.8530087694142
  0
LWPOLYLINE
  5
90
330
17
100
AcDbEntity
  8
Layer
100
AcDbPolyline
 90
5
 70
0
 10
19.631080642880832
 20
197.3932209123771
 10
18.126997108078484
 20
196.07499000683117
 10
14.831419844213638
 20
199.83519884383708
 10
16.33550337901599
 20
201.153429749383
 10
19.631080642880832
 20
197.3932209123771
  0
LWPOLYLINE
  5
91
330
17
100
AcDbEntity
  8
Layer
100
AcDbPolyline
 90
5
 70
0
 10
15.694600998003631
 20
194.26012748676814
 10
17.284974896627997
 20
193.04739880211756
 10
14.25315318500154
 20
189.07146405555662
 10
12.662779286377173
 20
190.2841927402072
 10
15.694600998003631
 20
194.26012748676814
  0
LWPOLYLINE
  5
92
330
17
100
AcDbEntity
  8
Layer
100
AcDbPolyline
 90
5
 70
0
 10
53.653305489076665
 20
186.4174385237075
 10
57.64790395514557
 20
186.20963309817697
 10
57.440098529615064
 20
182.21503463210806
 10
53.445500063546156
 20
182.42284005763858
 10
53.653305489076665
 20
186.4174385237075
  0
LINE
  5
93
330
17
100
AcDbEntity
  8
Layer
100
AcDbLine
 10
297.57800819319414
 20
186.0580582105804
 30
0.0
 11
297.3750916238029
 21
185.0788621802236
 31
0.0
  0
LINE
  5
94
330
17
100
AcDbEntity
  8
Layer
100
AcDbLine
 10
297.20053768056846
 20
183.59451755874662
 30
0.0
 11
297.1707761419074
 21
182.59496053145077
 31
0.0
  0
LINE
  5
95
330
17
100
AcDbEntity
  8
Layer
100
AcDbLine
 10
278.1958445136483
 20
191.03551450809132
 30
0.0
 11
277.9699498965878
 21
190.06136276324708
 31
0.0
  0
LINE
  5
96
330
17
100
AcDbEntity
  8
Layer
100
AcDbLine
 10
277.1868616885255
 20
183.7303475720138
 30
0.0
 11
277.168592071629
 21
182.73051447539294
 31
0.0
  0
LINE
  5
97
330
17
100
AcDbEntity
  8
Layer
100
AcDbLine
 10
200.38333550242504
 20
209.61785760313614
 30
0.0
 11
200.15318441723142
 21
208.64470269358466
 31
0.0
  0
LINE
  5
98
330
17
100
AcDbEntity
  8
Layer
100
AcDbLine
 10
197.1583937073493
 20
182.39347036352817
 30
0.0
 11
197.16344576322183
 21
181.39348312524388
 31
0.0
  0
LWPOLYLINE
  5
99
330
17
100
AcDbEntity
  8
Layer
100
AcDbPolyline
 90
300
 70
1
 10
148.1264285714267
 20
200.0
 10
148.1217490137585
 20
200.4515365622998
 10
148.10771240711483
 20
200.90287373876498
 10
148.08432494966604
 20
201.35381223160402
 10
148.05159696865496
 20
201.804152919073
 10
148.0095429158367
 20
202.25369694340188
 10
147.95818136109705
 20
202.70224579860468
 10
147.89753498425276
 20
203.14960141813418
 10
147.82763056503654
 20
203.59556626234232
 10
147.74849897127203
 20
204.0399434057083
 10
147.6601751452434
 20
204.4825366237954
 10
147.56269808826582
 20
204.923150479898
 10
147.45611084346353
 20
205.36159041134098
 10
147.3404604767633
 20
205.79766281539327
 10
147.21579805611137
 20
206.23117513475717
 10
147.08217862892332
 20
206.66193594259627
 10
146.93966119777664
 20
207.08975502706426
 10
146.7883086943569
 20
207.51444347529707
 10
146.62818795166888
 20
207.9358137568314
 10
146.45936967452496
 20
208.353679806413
 10
146.28192840832386
 20
208.76785710615778
 10
146.0959425061336
 20
209.1781627670297
 10
145.9014940940929
 20
209.58441560959955
 10
145.69866903514648
 20
209.98643624404852
 10
145.48755689113068
 20
210.38404714938176
 10
145.26825088322525
 20
210.7770727518167
 10
145.04084785078953
 20
211.16533950231138
 10
144.805448208601
 20
211.54867595319902
 10
144.5621559025149
 20
211.92691283389422
 10
144.3110783635646
 20
212.29988312563825
 10
144.05232646052323
 20
212.66742213524986
 10
143.78601445094696
 20
213.02936756784902
 10
143.51225993072228
 20
213.3855595985219
 10
143.23118378213877
 20
213.73584094289495
 10
142.94291012051104
 20
214.08005692658733
 10
142.64756623937285
 20
214.4180555535107
 10
142.34528255426784
 20
214.74968757298646
 10
142.03619254516167
 20
215.07480654565066
 10
141.7204326975012
 20
215.39326890811742
 10
141.39814244194608
 20
215.70493403637255
 10
141.0694640928004
 20
216.00966430786917
 10
140.7345427851704
 20
216.30732516229787
 10
140.39352641087712
 20
216.59778516100485
 10
140.04656555315148
 20
216.88091604503146
 10
139.69381342014088
 20
217.15659279174974
 10
139.3354257772569
 20
217.42469367006902
 10
138.97156087839357
 20
217.68510029418871
 10
138.60237939604707
 20
217.9376976758744
 10
138.22804435036707
 20
218.18237427523323
 10
137.84872103717183
 20
218.41902204996683
 10
137.464576954958
 20
218.6475365030798
 10
137.07578173093827
 20
218.8678167290226
 10
136.6825070461385
 20
219.07976545824857
 10
136.28492655958834
 20
219.28328910016552
 10
135.88321583163835
 20
219.47829778446257
 10
135.4775522464373
 20
219.66470540079445
 10
135.06811493360462
 20
219.8424296368054
 10
134.65508468913146
 20
220.01139201447594
 10
134.2386438955465
 20
220.17151792477654
 10
133.81897644138093
 20
220.322736660613
 10
133.39626763996836
 20
220.4649814480485
 10
132.97070414761578
 20
220.5981894757893
 10
132.54247388118128
 20
220.72230192292028
 10
132.1117659350954
 20
220.8372639848787
 10
131.67877049786216
 20
220.94302489765434
 10
131.24367876807733
 20
221.03953796020537
 10
130.80668287000046
 20
221.12676055508035
 10
130.3679757687182
 20
221.20465416723678
 10
129.92775118493637
 20
221.27318440104835
 10
129.48620350943833
 20
221.332320995493
 10
129.0435277172475
 20
221.3820378375154
 10
128.59991928153192
 20
221.42231297355767
 10
128.1555740872887
 20
221.45312861925356
 10
127.71068834484676
 20
221.4744711672814
 10
127.26545850322593
 20
221.4863311933728
 10
126.82008116339055
 20
221.4887034604741
 10
126.37475299143601
 20
221.48158692105898
 10
125.92967063174652
 20
221.46498471759085
 10
125.48503062016258
 20
221.43890418113543
 10
125.04102929719613
 20
221.4033568281234
 10
124.59786272133228
 20
221.35835835526515
 10
124.15572658245526
 20
221.30392863261957
 10
123.71481611543739
 20
221.24009169481988
 10
123.27532601392872
 20
221.16687573046073
 10
122.83745034438597
 20
221.0843130696509
 10
122.4013824603781
 20
220.99244016973714
 10
121.96731491720685
 20
220.89129759920576
 10
121.5354393868798
 20
220.78093001976856
 10
121.10594657347336
 20
220.6613861666417
 10
120.67902612892321
 20
220.53271882702543
 10
120.25486656927934
 20
220.39498481679476
 10
119.83365519146274
 20
220.24824495541128
 10
119.41557799056025
 20
220.09256403906681
 10
119.00081957769444
 20
219.92801081207148
 10
118.5895630985045
 20
219.75465793649792
 10
118.18199015227432
 20
219.57258196009593
 10
117.77828071174329
 20
219.38186328249105
 10
117.37861304363545
 20
219.1825861196823
 10
116.98316362994197
 20
218.97483846685498
 10
116.59210708999154
 20
218.75871205952419
 10
116.20561610334356
 20
218.5343023330272
 10
115.82386133353752
 20
218.30170838038185
 10
115.44701135273296
 20
218.06103290852988
 10
115.07523256727264
 20
217.8123821929843
 10
114.7086891442022
 20
217.55586603090134
 10
114.34754293877867
 20
217.29159769259692
 10
113.99195342299967
 20
217.0196938715298
 10
113.64207761518513
 20
216.74027463277295
 10
113.29807001064236
 20
216.45346335999622
 10
112.96008251344534
 20
216.15938670098362
 10
112.62826436935808
 20
215.8581745117092
 10
112.30276209993193
 20
215.5499597989962
 10
111.98371943780583
 20
215.23487866178522
 10
111.67127726323795
 20
214.91307023103653
 10
111.36557354189696
 20
214.58467660829388
 10
111.06674326394032
 20
214.2498428029364
 10
110.77491838440635
 20
213.9087166681466
 10
110.49022776494664
 20
213.5614488356225
 10
110.21279711692438
 20
213.20819264906297
 10
109.94274894590373
 20
212.8491040964554
 10
109.68020249755487
 20
212.48434174119586
 10
109.4252737049984
 20
212.114066652072
 10
109.17807513761255
 20
211.73844233213947
 10
108.9387159513258
 20
211.3576346465237
 10
108.70730184041653
 20
210.97181174917853
 10
108.48393499084159
 20
210.581144008634
 10
108.26871403511367
 20
210.18580393276662
 10
108.06173400874815
 20
209.78596609262462
 10
107.86308630829792
 20
209.3818070453423
 10
107.67285865099534
 20
208.9735052561774
 10
107.49113503601875
 20
208.56124101970585
 10
107.3179957074008
 20
208.14519638020877
 10
107.15351711859493
 20
207.72555505128685
 10
106.9977718987157
 20
207.30250233473754
 10
106.8508288204678
 20
206.876225038731
 10
106.71275276977796
 20
206.44691139532102
 10
106.58360471714319
 20
206.01475097732683
 10
106.46344169070784
 20
205.5799346146232
 10
106.35231675108166
 20
205.1426543098753
 10
106.25027896790971
 20
204.70310315375582
 10
106.15737339820454
 20
204.2614752396814
 10
106.07364106645035
 20
203.81796557810654
 10
105.99911894648767
 20
203.37277001041252
 10
105.9338399451868
 20
202.92608512242924
 10
105.87783288791704
 20
202.47810815762855
 10
105.83112250581819
 20
202.02903693002705
 10
105.79372942488007
 20
201.57906973683697
 10
105.76567015683453
 20
201.12840527090376
 10
105.74695709186446
 20
200.6772425329688
 10
105.73759849313255
 20
200.22578074379643
 10
105.73759849313255
 20
199.7742192562036
 10
105.74695709186446
 20
199.3227574670312
 10
105.76567015683453
 20
198.87159472909624
 10
105.79372942488007
 20
198.42093026316303
 10
105.83112250581819
 20
197.97096306997295
 10
105.87783288791704
 20
197.52189184237145
 10
105.9338399451868
 20
197.07391487757076
 10
105.99911894648767
 20
196.6272299895875
 10
106.07364106645035
 20
196.18203442189346
 10
106.15737339820454
 20
195.73852476031863
 10
106.25027896790971
 20
195.29689684624418
 10
106.35231675108166
 20
194.85734569012467
 10
106.46344169070784
 20
194.4200653853768
 10
106.58360471714317
 20
193.98524902267317
 10
106.71275276977796
 20
193.55308860467898
 10
106.8508288204678
 20
193.123774961269
 10
106.9977718987157
 20
192.6974976652625
 10
107.15351711859493
 20
192.27444494871315
 10
107.3179957074008
 20
191.8548036197912
 10
107.49113503601876
 20
191.43875898029415
 10
107.67285865099534
 20
191.0264947438226
 10
107.86308630829792
 20
190.61819295465773
 10
108.06173400874815
 20
190.2140339073754
 10
108.26871403511367
 20
189.81419606723338
 10
108.48393499084159
 20
189.418855991366
 10
108.70730184041653
 20
189.02818825082147
 10
108.9387159513258
 20
188.64236535347626
 10
109.17807513761255
 20
188.26155766786053
 10
109.42527370499839
 20
187.885933347928
 10
109.68020249755487
 20
187.51565825880414
 10
109.94274894590373
 20
187.1508959035446
 10
110.21279711692438
 20
186.79180735093703
 10
110.49022776494664
 20
186.4385511643775
 10
110.77491838440636
 20
186.0912833318534
 10
111.06674326394034
 20
185.7501571970636
 10
111.36557354189696
 20
185.41532339170612
 10
111.67127726323794
 20
185.08692976896347
 10
111.98371943780583
 20
184.76512133821478
 10
112.30276209993193
 20
184.4500402010038
 10
112.62826436935808
 20
184.1418254882908
 10
112.96008251344534
 20
183.84061329901638
 10
113.29807001064236
 20
183.54653664000378
 10
113.64207761518513
 20
183.25972536722708
 10
113.99195342299967
 20
182.9803061284702
 10
114.34754293877866
 20
182.70840230740308
 10
114.7086891442022
 20
182.44413396909866
 10
115.07523256727262
 20
182.1876178070157
 10
115.44701135273296
 20
181.93896709147012
 10
115.82386133353752
 20
181.69829161961812
 10
116.20561610334356
 20
181.4656976669728
 10
116.59210708999156
 20
181.24128794047581
 10
116.98316362994197
 20
181.02516153314502
 10
117.37861304363547
 20
180.81741388031767
 10
117.77828071174329
 20
180.61813671750895
 10
118.18199015227431
 20
180.42741803990407
 10
118.5895630985045
 20
180.24534206350208
 10
119.00081957769443
 20
180.07198918792852
 10
119.41557799056024
 20
179.90743596093319
 10
119.83365519146273
 20
179.75175504458872
 10
120.25486656927934
 20
179.60501518320524
 10
120.6790261289232
 20
179.46728117297457
 10
121.10594657347336
 20
179.3386138333583
 10
121.5354393868798
 20
179.21906998023144
 10
121.96731491720685
 20
179.10870240079424
 10
122.4013824603781
 20
179.00755983026286
 10
122.83745034438599
 20
178.9156869303491
 10
123.27532601392873
 20
178.83312426953927
 10
123.71481611543739
 20
178.75990830518012
 10
124.15572658245527
 20
178.69607136738043
 10
124.59786272133226
 20
178.64164164473485
 10
125.04102929719612
 20
178.5966431718766
 10
125.48503062016256
 20
178.56109581886457
 10
125.92967063174652
 20
178.53501528240915
 10
126.374752991436
 20
178.51841307894102
 10
126.82008116339055
 20
178.5112965395259
 10
127.26545850322593
 20
178.5136688066272
 10
127.71068834484676
 20
178.5255288327186
 10
128.1555740872887
 20
178.54687138074644
 10
128.59991928153192
 20
178.57768702644233
 10
129.0435277172475
 20
178.6179621624846
 10
129.48620350943833
 20
178.667679004507
 10
129.92775118493637
 20
178.72681559895165
 10
130.3679757687182
 20
178.79534583276322
 10
130.80668287000046
 20
178.87323944491965
 10
131.2436787680773
 20
178.96046203979463
 10
131.67877049786213
 20
179.05697510234566
 10
132.11176593509538
 20
179.1627360151213
 10
132.54247388118128
 20
179.27769807707972
 10
132.97070414761578
 20
179.4018105242107
 10
133.39626763996836
 20
179.5350185519515
 10
133.81897644138093
 20
179.677263339387
 10
134.2386438955465
 20
179.82848207522346
 10
134.65508468913146
 20
179.98860798552406
 10
135.06811493360462
 20
180.1575703631946
 10
135.4775522464373
 20
180.33529459920555
 10
135.88321583163835
 20
180.52170221553743
 10
136.28492655958834
 20
180.71671089983448
 10
136.6825070461385
 20
180.92023454175143
 10
137.07578173093827
 20
181.1321832709774
 10
137.464576954958
 20
181.3524634969202
 10
137.8487210371718
 20
181.58097795003317
 10
138.22804435036707
 20
181.81762572476677
 10
138.60237939604704
 20
182.0623023241256
 10
138.97156087839357
 20
182.31489970581129
 10
139.3354257772569
 20
182.57530632993098
 10
139.69381342014088
 20
182.84340720825026
 10
140.04656555315148
 20
183.11908395496854
 10
140.39352641087712
 20
183.40221483899515
 10
140.7345427851704
 20
183.69267483770213
 10
141.0694640928004
 20
183.99033569213083
 10
141.39814244194608
 20
184.29506596362745
 10
141.7204326975012
 20
184.60673109188258
 10
142.03619254516167
 20
184.92519345434934
 10
142.34528255426784
 20
185.25031242701354
 10
142.64756623937285
 20
185.5819444464893
 10
142.94291012051104
 20
185.91994307341267
 10
143.23118378213877
 20
186.26415905710505
 10
143.51225993072228
 20
186.61444040147808
 10
143.78601445094696
 20
186.97063243215098
 10
144.05232646052323
 20
187.33257786475014
 10
144.3110783635646
 20
187.70011687436173
 10
144.5621559025149
 20
188.07308716610578
 10
144.805448208601
 20
188.45132404680098
 10
145.04084785078953
 20
188.83466049768862
 10
145.26825088322525
 20
189.2229272481833
 10
145.48755689113068
 20
189.61595285061824
 10
145.69866903514648
 20
190.01356375595148
 10
145.9014940940929
 20
190.41558439040045
 10
146.0959425061336
 20
190.8218372329703
 10
146.28192840832386
 20
191.23214289384222
 10
146.45936967452496
 20
191.646320193587
 10
146.62818795166888
 20
192.0641862431686
 10
146.7883086943569
 20
192.48555652470293
 10
146.93966119777664
 20
192.91024497293571
 10
147.08217862892332
 20
193.33806405740373
 10
147.21579805611137
 20
193.76882486524283
 10
147.3404604767633
 20
194.20233718460673
 10
147.45611084346353
 20
194.63840958865902
 10
147.56269808826582
 20
195.076849520102
 10
147.6601751452434
 20
195.5174633762046
 10
147.74849897127203
 20
195.9600565942917
 10
147.82763056503654
 20
196.40443373765768
 10
147.89753498425276
 20
196.85039858186582
 10
147.95818136109705
 20
197.29775420139532
 10
148.00954291583668
 20
197.74630305659812
 10
148.05159696865496
 20
198.195847080927
 10
148.08432494966604
 20
198.64618776839595
 10
148.10771240711483
 20
199.09712626123502
 10
148.1217490137585
 20
199.54846343770018
 10
148.1264285714267
 20
200.0
  0
LINE
  5
9A
330
17
100
AcDbEntity
  8
Layer
 62
7
100
AcDbLine
 10
15.015830318105088
 20
200.0
 30
0.0
 11
245.5836704047841
 21
199.99999999999997
 31
0.0
  0
LINE
  5
9B
330
17
100
AcDbEntity
  8
Layer
 62
7
100
AcDbLine
 10
59.02939833544089
 20
200.0
 30
0.0
 11
71.0293983354409
 21
200.0
 31
0.0
  0
LWPOLYLINE
  5
9C
330
17
100
AcDbEntity
  8
Layer
100
AcDbPolyline
 90
5
 70
0
 10
65.0293983354409
 20
205.0
 10
70.0293983354409
 20
200.0
 10
65.0293983354409
 20
195.0
 10
60.0293983354409
 20
200.0
 10
65.0293983354409
 20
205.0
  0
LINE
  5
9D
330
17
100
AcDbEntity
  8
Layer
 62
7
100
AcDbLine
 10
124.2997503614446
 20
200.0
 30
0.0
 11
136.29975036144458
 21
200.0
 31
0.0
  0
LWPOLYLINE
  5
9E
330
17
100
AcDbEntity
  8
Layer
100
AcDbPolyline
 90
5
 70
0
 10
130.29975036144458
 20
205.0
 10
135.29975036144458
 20
200.0
 10
130.29975036144458
 20
195.0
 10
125.29975036144458
 20
200.0
 10
130.29975036144458
 20
205.0
  0
LINE
  5
9F
330
17
100
AcDbEntity
  8
Layer
 62
7
100
AcDbLine
 10
189.57010238744832
 20
200.0
 30
0.0
 11
201.57010238744832
 21
200.0
 31
0.0
  0
LWPOLYLINE
  5
A0
330
17
100
AcDbEntity
  8
Layer
100
AcDbPolyline
 90
5
 70
0
 10
195.57010238744832
 20
205.0
 10
200.57010238744832
 20
200.0
 10
195.57010238744832
 20
195.0
 10
190.57010238744832
 20
200.0
 10
195.57010238744832
 20
205.0
  0
LINE
  5
A1
330
17
100
AcDbEntity
  8
Layer
 62
7
100
AcDbLine
 10
11.197231005531734
 20
193.79954736694614
 30
0.0
 11
314.8868668182366
 21
182.08746918819463
 31
0.0
  0
LINE
  5
A2
330
17
100
AcDbEntity
  8
Layer
 62
7
100
AcDbLine
 10
69.83671812697801
 20
191.53806005708012
 30
0.0
 11
81.82780407609064
 21
191.0756124805986
 31
0.0
  0
LWPOLYLINE
  5
A3
330
17
100
AcDbEntity
  8
Layer
100
AcDbPolyline
 90
5
 70
0
 10
76.02494759173496
 20
196.30312208096962
 10
80.8285469136646
 20
191.11414977863873
 10
75.6395746113337
 20
186.3105504567091
 10
70.83597528940406
 20
191.49952275904
 10
76.02494759173496
 20
196.30312208096962
  0
LINE
  5
A4
330
17
100
AcDbEntity
  8
Layer
 62
7
100
AcDbLine
 10
142.51154130226956
 20
188.73528673102263
 30
0.0
 11
154.5026272513822
 21
188.27283915454115
 31
0.0
  0
LWPOLYLINE
  5
A5
330
17
100
AcDbEntity
  8
Layer
100
AcDbPolyline
 90
5
 70
0
 10
148.6997707670265
 20
193.50034875491212
 10
153.50337008895613
 20
188.31137645258124
 10
148.31439778662525
 20
183.50777713065162
 10
143.51079846469563
 20
188.6967494329825
 10
148.6997707670265
 20
193.50034875491212
  0
LINE
  5
A6
330
17
100
AcDbEntity
  8
Layer
100
AcDbLine
 10
126.93142857142676
 20
221.48899999999992
 30
0.0
 11
126.93142857142676
 21
222.48899999999992
 31
0.0
  0
LINE
  5
A7
330
17
100
AcDbEntity
  8
Layer
100
AcDbLine
 10
126.93142857142676
 20
178.51100000000008
 30
0.0
 11
126.93142857142676
 21
177.51100000000008
 31
0.0
  0
LINE
  5
A8
330
17
100
AcDbEntity
  8
Layer
100
AcDbLine
 10
148.1264285714267
 20
200.0
 30
0.0
 11
149.1264285714267
 21
200.0
 31
0.0
  0
LINE
  5
A9
330
17
100
AcDbEntity
  8
Layer
100
AcDbLine
 10
105.73642857142684
 20
200.0
 30
0.0
 11
104.73642857142684
 21
200.0
 31
0.0
  0
LWPOLYLINE
  5
AA
330
17
100
AcDbEntity
  8
NumLabel
 62
1
100
AcDbPolyline
 90
4
 70
0
 10
98.15999999999867
 20
194.61428571428596
 10
96.15999999999867
 20
194.61428571428596
 10
96.15999999999867
 20
184.61428571428596
 10
98.15999999999867
 20
184.61428571428596
  0
LWPOLYLINE
  5
AB
330
17
100
AcDbEntity
  8
NumLabel
 62
1
100
AcDbPolyline
 90
4
 70
0
 10
99.15999999999867
 20
184.61428571428596
 10
101.15999999999867
 20
184.61428571428596
 10
101.15999999999867
 20
194.61428571428596
 10
99.15999999999867
 20
194.61428571428596
  0
LWPOLYLINE
  5
AC
330
17
100
AcDbEntity
  8
NumLabel
 62
1
100
AcDbPolyline
 90
2
 70
0
 10
96.15999999999867
 20
189.61428571428596
 10
98.15999999999867
 20
189.61428571428596
  0
LWPOLYLINE
  5
AD
330
17
100
AcDbEntity
  8
NumLabel
 62
1
100
AcDbPolyline
 90
2
 70
0
 10
99.15999999999867
 20
189.61428571428596
 10
101.15999999999867
 20
189.61428571428596
  0
LWPOLYLINE
  5
AE
330
17
100
AcDbEntity
  8
NumLabel
 62
1
100
AcDbPolyline
 90
7
 70
0
 10
103.65999999999867
 20
194.61428571428596
 10
108.65999999999867
 20
194.61428571428596
 10
108.65999999999867
 20
189.61428571428596
 10
103.65999999999867
 20
189.61428571428596
 10
108.65999999999867
 20
189.61428571428596
 10
108.65999999999867
 20
184.61428571428596
 10
103.65999999999867
 20
184.61428571428596
  0
ENDSEC
  0
SECTION
  2
OBJECTS
  0
DICTIONARY
  5
A
330
0
100
AcDbDictionary
280
0
281
1
  3
ACAD_COLOR
350
B
  3
ACAD_GROUP
350
C
  3
ACAD_LAYOUT
350
D
  3
ACAD_MATERIAL
350
E
  3
ACAD_MLEADERSTYLE
350
F
  3
ACAD_MLINESTYLE
350
10
  3
ACAD_PLOTSETTINGS
350
11
  3
ACAD_PLOTSTYLENAME
350
12
  3
ACAD_SCALELIST
350
14
  3
ACAD_TABLESTYLE
350
15
  3
ACAD_VISUALSTYLE
350
16
  3
EZDXF_META
350
2D
  0
DICTIONARY
  5
B
330
A
100
AcDbDictionary
280
0
281
1
  0
DICTIONARY
  5
C
330
A
100
AcDbDictionary
280
0
281
1
  0
DICTIONARY
  5
D
330
A
100
AcDbDictionary
280
0
281
1
  3
Model
350
1A
  3
Layout1
350
1E
  0
DICTIONARY
  5
E
330
A
100
AcDbDictionary
280
0
281
1
  3
ByBlock
350
1F
  3
ByLayer
350
20
  3
Global
350
21
  0
DICTIONARY
  5
F
330
A
100
AcDbDictionary
280
0
281
1
  3
Standard
350
2C
  0
DICTIONARY
  5
10
330
A
100
AcDbDictionary
280
0
281
1
  3
Standard
350
22
  0
DICTIONARY
  5
11
330
A
100
AcDbDictionary
280
0
281
1
  0
ACDBDICTIONARYWDFLT
  5
12
330
A
100
AcDbDictionary
280
0
281
1
  3
Normal
350
13
100
AcDbDictionaryWithDefault
340
13
  0
ACDBPLACEHOLDER
  5
13
330
12
  0
DICTIONARY
  5
14
330
A
100
AcDbDictionary
280
0
281
1
  0
DICTIONARY
  5
15
330
A
100
AcDbDictionary
280
0
281
1
  0
DICTIONARY
  5
16
330
A
100
AcDbDictionary
280
0
281
1
  3
2dWireframe
350
5A
  3
Basic
350
5B
  3
Brighten
350
5C
  3
ColorChange
350
5D
  3
Conceptual
350
5E
  3
Dim
350
5F
  3
EdgeColorOff
350
60
  3
Facepattern
350
61
  3
Flat
350
62
  3
FlatWithEdges
350
63
  3
Gouraud
350
64
  3
GouraudWithEdges
350
65
  3
Hidden
350
66
  3
JitterOff
350
67
  3
Linepattern
350
68
  3
Modeling
350
69
  3
OverhangOff
350
6A
  3
Realistic
350
6B
  3
Shaded
350
6C
  3
Shaded with edges
350
6D
  3
Shades of Gray
350
6E
  3
Sketchy
350
6F
  3
Thicken
350
70
  3
Wireframe
350
71
  3
X-Ray
350
72
  0
LAYOUT
  5
1A
330
D
100
AcDbPlotSettings
  1

  2
Adobe PDF
  4
A3
  6

 40
7.5
 41
20.0
 42
7.5
 43
20.0
 44
420.0
 45
297.0
 46
0.0
 47
0.0
 48
0.0
 49
0.0
140
0.0
141
0.0
142
1.0
143
1.0
 70
1024
 72
1
 73
0
 74
5
  7

 75
16
 76
0
 77
2
 78
300
147
1.0
148
0.0
149
0.0
100
AcDbLayout
  1
Model
 70
1
 71
0
 10
0.0
 20
0.0
 11
420.0
 21
297.0
 12
0.0
 22
0.0
 32
0.0
 14
1e+20
 24
1e+20
 34
1e+20
 15
-1e+20
 25
-1e+20
 35
-1e+20
146
0.0
 13
0.0
 23
0.0
 33
0.0
 16
1.0
 26
0.0
 36
0.0
 17
0.0
 27
1.0
 37
0.0
 76
1
330
17
  0
LAYOUT
  5
1E
330
D
100
AcDbPlotSettings
  1

  2
Adobe PDF
  4
A3
  6

 40
7.5
 41
20.0
 42
7.5
 43
20.0
 44
420.0
 45
297.0
 46
0.0
 47
0.0
 48
0.0
 49
0.0
140
0.0
141
0.0
142
1.0
143
1.0
 70
0
 72
1
 73
0
 74
5
  7

 75
16
 76
0
 77
2
 78
300
147
1.0
148
0.0
149
0.0
100
AcDbLayout
  1
Layout1
 70
1
 71
1
 10
0.0
 20
0.0
 11
420.0
 21
297.0
 12
0.0
 22
0.0
 32
0.0
 14
1e+20
 24
1e+20
 34
1e+20
 15
-1e+20
 25
-1e+20
 35
-1e+20
146
0.0
 13
0.0
 23
0.0
 33
0.0
 16
1.0
 26
0.0
 36
0.0
 17
0.0
 27
1.0
 37
0.0
 76
1
330
1B
  0
MATERIAL
  5
1F
102
{ACAD_REACTORS
330
E
102
}
330
E
100
AcDbMaterial
  1
ByBlock
  2

 70
0
 40
1.0
 71
1
 41
1.0
 91
-1023410177
 42
1.0
 72
1
  3

 73
1
 74
1
 75
1
 44
0.5
 73
0
 45
1.0
 46
1.0
 77
1
  4

 78
1
 79
1
170
1
 48
1.0
171
1
  6

172
1
173
1
174
1
140
1.0
141
1.0
175
1
  7

176
1
177
1
178
1
143
1.0
179
1
  8

270
1
271
1
272
1
145
1.0
146
1.0
273
1
  9

274
1
275
1
276
1
 42
1.0
 72
1
  3

 73
1
 74
1
 75
1
 94
63
  0
MATERIAL
  5
20
102
{ACAD_REACTORS
330
E
102
}
330
E
100
AcDbMaterial
  1
ByLayer
  2

 70
0
 40
1.0
 71
1
 41
1.0
 91
-1023410177
 42
1.0
 72
1
  3

 73
1
 74
1
 75
1
 44
0.5
 73
0
 45
1.0
 46
1.0
 77
1
  4

 78
1
 79
1
170
1
 48
1.0
171
1
  6

172
1
173
1
174
1
140
1.0
141
1.0
175
1
  7

176
1
177
1
178
1
143
1.0
179
1
  8

270
1
271
1
272
1
145
1.0
146
1.0
273
1
  9

274
1
275
1
276
1
 42
1.0
 72
1
  3

 73
1
 74
1
 75
1
 94
63
  0
MATERIAL
  5
21
102
{ACAD_REACTORS
330
E
102
}
330
E
100
AcDbMaterial
  1
Global
  2

 70
0
 40
1.0
 71
1
 41
1.0
 91
-1023410177
 42
1.0
 72
1
  3

 73
1
 74
1
 75
1
 44
0.5
 73
0
 45
1.0
 46
1.0
 77
1
  4

 78
1
 79
1
170
1
 48
1.0
171
1
  6

172
1
173
1
174
1
140
1.0
141
1.0
175
1
  7

176
1
177
1
178
1
143
1.0
179
1
  8

270
1
271
1
272
1
145
1.0
146
1.0
273
1
  9

274
1
275
1
276
1
 42
1.0
 72
1
  3

 73
1
 74
1
 75
1
 94
63
  0
MLINESTYLE
  5
22
102
{ACAD_REACTORS
330
10
102
}
330
10
100
AcDbMlineStyle
  2
Standard
 70
0
  3

 62
256
 51
90.0
 52
90.0
 71
2
 49
0.5
 62
256
  6
BYLAYER
 49
-0.5
 62
256
  6
BYLAYER
  0
MLEADERSTYLE
  5
2C
102
{ACAD_REACTORS
330
F
102
}
330
F
100
AcDbMLeaderStyle
179
2
170
2
171
1
172
0
 90
2
 40
0.0
 41
0.0
173
1
 91
-1056964608
 92
-2
290
1
 42
2.0
291
1
 43
8.0
  3
Standard
 44
4.0
300

342
29
174
1
175
1
176
0
178
1
 93
-1056964608
 45
4.0
292
0
297
0
 46
4.0
 94
-1056964608
 47
1.0
 49
1.0
140
1.0
294
1
141
0.0
177
0
142
1.0
295
0
296
0
143
3.75
271
0
272
9
273
9
  0
DICTIONARY
  5
2D
330
A
100
AcDbDictionary
281
1
  3
CREATED_BY_EZDXF
350
2E
  3
WRITTEN_BY_EZDXF
350
B1
  0
DICTIONARYVAR
  5
2E
330
2D
100
DictionaryVariables
280
0
  1
1.3.0 @ 2026-01-06T17:07:25.157462+00:00
  0
VISUALSTYLE
  5
5A
102
{ACAD_REACTORS
330
16
102
}
330
16
100
AcDbVisualStyle
  2
2dWireframe
 70
4
 90
0
 40
0.6
 62
7
290
0
291
0
  0
VISUALSTYLE
  5
5B
102
{ACAD_REACTORS
330
16
102
}
330
16
100
AcDbVisualStyle
  2
Basic
 70
7
 90
1
 40
0.6
 62
7
290
0
291
1
  0
VISUALSTYLE
  5
5C
102
{ACAD_REACTORS
330
16
102
}
330
16
100
AcDbVisualStyle
  2
Brighten
 70
12
 90
2
 40
0.6
 62
7
290
0
291
1
  0
VISUALSTYLE
  5
5D
102
{ACAD_REACTORS
330
16
102
}
330
16
100
AcDbVisualStyle
  2
ColorChange
 70
16
 90
2
 40
0.6
 62
8
290
0
291
1
  0
VISUALSTYLE
  5
5E
102
{ACAD_REACTORS
330
16
102
}
330
16
100
AcDbVisualStyle
  2
Conceptual
 70
9
 90
3
 40
0.6
 62
7
290
0
291
0
  0
VISUALSTYLE
  5
5F
102
{ACAD_REACTORS
330
16
102
}
330
16
100
AcDbVisualStyle
  2
Dim
 70
11
 90
2
 40
0.6
 62
7
290
0
291
1
  0
VISUALSTYLE
  5
60
102
{ACAD_REACTORS
330
16
102
}
330
16
100
AcDbVisualStyle
  2
EdgeColorOff
 70
22
 90
2
 40
0.6
 62
7
290
0
291
1
  0
VISUALSTYLE
  5
61
102
{ACAD_REACTORS
330
16
102
}
330
16
100
AcDbVisualStyle
  2
Facepattern
 70
15
 90
2
 40
0.6
 62
7
290
0
291
1
  0
VISUALSTYLE
  5
62
102
{ACAD_REACTORS
330
16
102
}
330
16
100
AcDbVisualStyle
  2
Flat
 70
0
 90
2
 40
0.6
 62
7
290
0
291
1
  0
VISUALSTYLE
  5
63
102
{ACAD_REACTORS
330
16
102
}
330
16
100
AcDbVisualStyle
  2
FlatWithEdges
 70
1
 90
2
 40
0.6
 62
7
290
0
291
1
  0
VISUALSTYLE
  5
64
102
{ACAD_REACTORS
330
16
102
}
330
16
100
AcDbVisualStyle
  2
Gouraud
 70
2
 90
2
 40
0.6
 62
7
290
0
291
1
  0
VISUALSTYLE
  5
65
102
{ACAD_REACTORS
330
16
102
}
330
16
100
AcDbVisualStyle
  2
GouraudWithEdges
 70
3
 90
2
 40
0.6
 62
7
290
0
291
1
  0
VISUALSTYLE
  5
66
102
{ACAD_REACTORS
330
16
102
}
330
16
100
AcDbVisualStyle
  2
Hidden
 70
6
 90
1
 40
0.6
 62
7
290
0
291
0
  0
VISUALSTYLE
  5
67
102
{ACAD_REACTORS
330
16
102
}
330
16
100
AcDbVisualStyle
  2
JitterOff
 70
20
 90
2
 40
0.6
 62
7
290
0
291
1
  0
VISUALSTYLE
  5
68
102
{ACAD_REACTORS
330
16
102
}
330
16
100
AcDbVisualStyle
  2
Linepattern
 70
14
 90
2
 40
0.6
 62
7
290
0
291
1
  0
VISUALSTYLE
  5
69
102
{ACAD_REACTORS
330
16
102
}
330
16
100
AcDbVisualStyle
  2
Modeling
 70
10
 90
2
 40
0.6
 62
7
290
0
291
0
  0
VISUALSTYLE
  5
6A
102
{ACAD_REACTORS
330
16
102
}
330
16
100
AcDbVisualStyle
  2
OverhangOff
 70
21
 90
2
 40
0.6
 62
7
290
0
291
1
  0
VISUALSTYLE
  5
6B
102
{ACAD_REACTORS
330
16
102
}
330
16
100
AcDbVisualStyle
  2
Realistic
 70
8
 90
2
 40
0.6
 62
7
290
0
291
0
  0
VISUALSTYLE
  5
6C
102
{ACAD_REACTORS
330
16
102
}
330
16
100
AcDbVisualStyle
  2
Shaded
 70
27
 90
2
 40
0.6
 62
7
290
0
291
0
  0
VISUALSTYLE
  5
6D
102
{ACAD_REACTORS
330
16
102
}
330
16
100
AcDbVisualStyle
  2
Shaded with edges
 70
26
 90
2
 40
0.6
 62
7
290
0
291
0
  0
VISUALSTYLE
  5
6E
102
{ACAD_REACTORS
330
16
102
}
330
16
100
AcDbVisualStyle
  2
Shades of Gray
 70
23
 90
2
 40
0.6
 62
7
290
0
291
0
  0
VISUALSTYLE
  5
6F
102
{ACAD_REACTORS
330
16
102
}
330
16
100
AcDbVisualStyle
  2
Sketchy
 70
24
 90
1
 40
0.6
 62
7
290
0
291
0
  0
VISUALSTYLE
  5
70
102
{ACAD_REACTORS
330
16
102
}
330
16
100
AcDbVisualStyle
  2
Thicken
 70
13
 90
2
 40
0.6
 62
7
290
0
291
1
  0
VISUALSTYLE
  5
71
102
{ACAD_REACTORS
330
16
102
}
330
16
100
AcDbVisualStyle
  2
Wireframe
 70
5
 90
0
 40
0.6
 62
7
290
0
291
0
  0
VISUALSTYLE
  5
72
102
{ACAD_REACTORS
330
16
102
}
330
16
100
AcDbVisualStyle
  2
X-Ray
 70
25
 90
2
 40
0.5
 62
7
290
0
291
0
  0
DICTIONARYVAR
  5
B1
330
2D
100
DictionaryVariables
280
0
  1
1.3.0 @ 2026-01-06T17:07:25.212191+00:00
  0
ENDSEC
  0
EOF
