<?xml version="1.0" encoding="utf-8" standalone="no"?>
<!DOCTYPE svg PUBLIC "-//W3C//DTD SVG 1.1//EN"
  "http://www.w3.org/Graphics/SVG/1.1/DTD/svg11.dtd">
<svg xmlns:xlink="http://www.w3.org/1999/xlink" width="1152pt" height="214.215503pt" viewBox="0 0 1152 214.215503" xmlns="http://www.w3.org/2000/svg" version="1.1">
 <metadata>
  <rdf:RDF xmlns:dc="http://purl.org/dc/elements/1.1/" xmlns:cc="http://creativecommons.org/ns#" xmlns:rdf="http://www.w3.org/1999/02/22-rdf-syntax-ns#">
   <cc:Work>
    <dc:type rdf:resource="http://purl.org/dc/dcmitype/StillImage"/>
    <dc:date>2026-01-07T02:07:15.713911</dc:date>
    <dc:format>image/svg+xml</dc:format>
    <dc:creator>
     <cc:Agent>
      <dc:title>Matplotlib v3.10.1, https://matplotlib.org/</dc:title>
     </cc:Agent>
    </dc:creator>
   </cc:Work>
  </rdf:RDF>
 </metadata>
 <defs>
  <style type="text/css">*{stroke-linejoin: round; stroke-linecap: butt}</style>
 </defs>
 <g id="figure_1">
  <g id="patch_1">
   <path d="M 0 214.215503 
L 1152 214.215503 
L 1152 0 
L 0 0 
z
" style="fill: #ffffff"/>
  </g>
  <g id="axes_1">
   <g id="patch_2">
    <path d="M 0 214.215503 
L 1152 214.215503 
L 1152 0 
L 0 0 
z
" style="fill: #212830"/>
   </g>
   <g id="patch_3">
    <path d="M 1099.636364 112.488216 
L 1084.703484 107.521496 
L 1056.594588 98.41649 
L 1028.716945 89.736305 
L 1001.003636 81.499802 
L 973.388942 73.706779 
L 945.821727 66.363736 
L 918.258269 59.464974 
L 904.471397 56.184395 
L 876.863682 49.957467 
L 863.04329 47.010387 
L 849.210574 44.176022 
L 835.362236 41.453987 
L 821.496898 38.842947 
L 807.617768 36.342875 
L 793.725684 33.955619 
L 779.817974 31.681526 
L 765.894441 29.519072 
L 751.958493 27.468783 
L 738.010386 25.532762 
L 724.043713 23.712083 
L 710.052116 22.003818 
L 682.008706 18.91553 
L 667.964892 17.537838 
L 639.833029 15.113655 
L 611.687809 13.126834 
L 583.560484 11.590264 
L 569.515563 10.989783 
L 555.493273 10.504082 
L 541.493466 10.136388 
L 527.517028 9.885636 
L 513.572469 9.751492 
L 499.667228 9.737068 
L 485.802529 9.84583 
L 471.978742 10.077664 
L 458.204568 10.431941 
L 444.489127 10.911579 
L 430.833905 11.52079 
L 417.241095 12.259574 
L 403.720369 13.127177 
L 390.282563 14.126899 
L 376.929945 15.263193 
L 363.667023 16.535182 
L 350.507213 17.942279 
L 337.46095 19.488808 
L 324.532127 21.177801 
L 311.730433 23.007051 
L 299.072136 24.976887 
L 286.567734 27.090557 
L 274.226254 29.34571 
L 262.073291 31.733112 
L 250.139616 34.251342 
L 238.443937 36.901944 
L 227.006975 39.675385 
L 215.865973 42.558103 
L 205.054268 45.545365 
L 194.595072 48.62796 
L 184.520209 51.783595 
L 174.868737 54.992484 
L 165.667113 58.242373 
L 156.932716 61.511799 
L 148.685659 64.773553 
L 140.93949 68.009957 
L 133.691818 71.20839 
L 126.93254 74.350666 
L 120.650307 77.42049 
L 114.827662 80.412143 
L 109.438524 83.325453 
L 99.842138 88.903459 
L 91.644584 94.145499 
L 84.637535 99.09231 
L 78.640275 103.770553 
L 73.515749 108.231372 
L 69.108203 112.525619 
L 65.279529 116.619203 
L 61.993941 120.476063 
L 59.271976 124.162706 
L 57.078983 127.783248 
L 55.328261 131.344532 
L 53.972692 134.778623 
L 53.026121 138.058954 
L 52.499374 141.219186 
L 52.363636 144.305322 
L 52.625324 147.403816 
L 52.931711 148.936661 
L 53.376625 150.457226 
L 53.974628 151.96888 
L 54.731315 153.471366 
L 55.642098 154.959779 
L 56.696683 156.425378 
L 57.888109 157.859819 
L 59.215677 159.256432 
L 60.685648 160.612214 
L 62.304299 161.927099 
L 64.075515 163.204117 
L 68.068278 165.661275 
L 72.659806 168.009073 
L 77.913502 170.255006 
L 83.948705 172.42329 
L 90.898205 174.567028 
L 98.936918 176.725329 
L 108.326164 178.91502 
L 119.392689 181.158766 
L 132.523481 183.453968 
L 148.136787 185.780808 
L 166.540642 188.090798 
L 187.823817 190.300101 
L 199.474354 191.340154 
L 224.525757 193.237796 
L 251.44814 194.862513 
L 279.770163 196.203883 
L 309.181712 197.280599 
L 325.824441 197.808745 
L 325.747321 200.337711 
L 354.546331 201.17595 
L 385.189097 201.836867 
L 463.365319 203.124142 
L 510.566169 203.62915 
L 605.078444 204.478434 
L 1099.636364 112.488216 
L 1099.636364 112.488216 
" clip-path="url(#pd0066af94d)" style="fill: none; stroke: #ff0000; stroke-width: 0.72; stroke-linejoin: miter"/>
   </g>
   <g id="patch_4">
    <path d="M 964.164588 78.201914 
L 957.651441 76.440802 
L 959.412553 69.927655 
L 965.9257 71.688767 
L 964.164588 78.201914 
" clip-path="url(#pd0066af94d)" style="fill: none; stroke: #ff0000; stroke-width: 0.72; stroke-linejoin: miter"/>
   </g>
   <g id="patch_5">
    <path d="M 439.711717 17.878517 
L 432.97138 18.179287 
L 432.670609 11.438951 
L 439.410946 11.13818 
L 439.711717 17.878517 
" clip-path="url(#pd0066af94d)" style="fill: none; stroke: #ff0000; stroke-width: 0.72; stroke-linejoin: miter"/>
   </g>
   <g id="patch_6">
    <path d="M 201.75929 53.550646 
L 195.287539 55.458272 
L 193.379913 48.986521 
L 199.851665 47.078895 
L 201.75929 53.550646 
" clip-path="url(#pd0066af94d)" style="fill: none; stroke: #ff0000; stroke-width: 0.72; stroke-linejoin: miter"/>
   </g>
   <g id="patch_7">
    <path d="M 81.825116 112.107595 
L 79.314442 114.360853 
L 73.681298 108.084169 
L 76.191972 105.830912 
L 81.825116 112.107595 
" clip-path="url(#pd0066af94d)" style="fill: none; stroke: #ff0000; stroke-width: 0.72; stroke-linejoin: miter"/>
   </g>
   <g id="patch_8">
    <path d="M 67.425031 155.221368 
L 70.164346 157.190328 
L 65.241946 164.038615 
L 62.502631 162.069655 
L 67.425031 155.221368 
" clip-path="url(#pd0066af94d)" style="fill: none; stroke: #ff0000; stroke-width: 0.72; stroke-linejoin: miter"/>
   </g>
   <g id="patch_9">
    <path d="M 253.118927 188.190945 
L 259.857461 188.529718 
L 259.518688 195.268252 
L 252.780155 194.929479 
L 253.118927 188.190945 
" clip-path="url(#pd0066af94d)" style="fill: none; stroke: #ff0000; stroke-width: 0.72; stroke-linejoin: miter"/>
   </g>
   <g id="patch_10">
    <path d="M 657.257649 106.802865 
L 657.110933 101.863977 
L 656.671369 96.944711 
L 655.940703 92.064611 
L 654.921838 87.243066 
L 653.618821 82.499232 
L 652.03683 77.851955 
L 650.18215 73.3197 
L 648.06215 68.920472 
L 645.685252 64.67175 
L 643.060899 60.590415 
L 640.199519 56.69268 
L 637.112478 52.994032 
L 633.812043 49.509165 
L 630.311325 46.251925 
L 626.624233 43.235252 
L 622.765415 40.471132 
L 618.750203 37.970546 
L 614.594549 35.743429 
L 610.314963 33.79863 
L 605.928448 32.143875 
L 601.452432 30.785739 
L 596.904696 29.729617 
L 592.303311 28.979705 
L 587.666556 28.538982 
L 583.012854 28.409201 
L 578.360693 28.590875 
L 573.728557 29.083284 
L 569.134848 29.884471 
L 564.597818 30.991253 
L 560.135492 32.399232 
L 555.765599 34.102816 
L 551.5055 36.095235 
L 547.372121 38.368574 
L 543.381883 40.913801 
L 539.550639 43.720804 
L 535.893612 46.77843 
L 532.425329 50.074532 
L 529.159571 53.596014 
L 526.109313 57.328886 
L 523.286672 61.258316 
L 520.702864 65.368695 
L 518.368153 69.64369 
L 516.291816 74.066318 
L 514.482102 78.619007 
L 512.9462 83.28367 
L 511.690213 88.041774 
L 510.71913 92.874416 
L 510.036811 97.762395 
L 509.645965 102.686292 
L 509.548145 107.626543 
L 509.743741 112.563523 
L 510.231975 117.477615 
L 511.010907 122.349297 
L 512.077442 127.159213 
L 513.427344 131.888254 
L 515.055249 136.517631 
L 516.95469 141.028952 
L 519.118119 145.404294 
L 521.536943 149.626273 
L 524.20155 153.678115 
L 527.101355 157.543724 
L 530.224836 161.20774 
L 533.559585 164.655607 
L 537.092352 167.873626 
L 540.809101 170.849012 
L 544.695067 173.569945 
L 548.734809 176.025614 
L 552.912279 178.206262 
L 557.21088 180.103226 
L 561.613533 181.70897 
L 566.102746 183.017113 
L 570.660684 184.022459 
L 575.269239 184.721013 
L 579.9101 185.11 
L 584.56483 185.187875 
L 589.214936 184.954328 
L 593.841942 184.410287 
L 598.427467 183.557914 
L 602.953291 182.400594 
L 607.401433 180.942927 
L 611.754222 179.190702 
L 615.994364 177.150883 
L 620.105012 174.831572 
L 624.069835 172.241985 
L 627.873082 169.39241 
L 631.499642 166.294168 
L 634.935106 162.959569 
L 638.165826 159.40186 
L 641.178966 155.635177 
L 643.962555 151.674484 
L 646.505533 147.535517 
L 648.797798 143.23472 
L 650.830243 138.78918 
L 652.594792 134.21656 
L 654.084436 129.535025 
L 655.293255 124.763176 
L 656.216447 119.919972 
L 656.850345 115.024653 
L 657.19243 110.096669 
L 657.257649 106.802865 
L 657.257649 106.802865 
" clip-path="url(#pd0066af94d)" style="fill: none; stroke: #ff0000; stroke-width: 0.72; stroke-linejoin: miter"/>
   </g>
   <g id="line2d_1">
    <path d="M 75.10844 106.802865 
L 1082.505049 106.802865 
" clip-path="url(#pd0066af94d)" style="fill: none; stroke: #ffffff; stroke-width: 0.72; stroke-linecap: square"/>
   </g>
   <g id="line2d_2">
    <path d="M 273.045564 106.802865 
L 293.286696 106.802865 
" clip-path="url(#pd0066af94d)" style="fill: none; stroke: #ffffff; stroke-width: 0.72; stroke-linecap: square"/>
   </g>
   <g id="patch_11">
    <path d="M 283.16613 98.36906 
L 291.599935 106.802865 
L 283.16613 115.23667 
L 274.732325 106.802865 
L 283.16613 98.36906 
" clip-path="url(#pd0066af94d)" style="fill: none; stroke: #ff0000; stroke-width: 0.72; stroke-linejoin: miter"/>
   </g>
   <g id="line2d_3">
    <path d="M 568.686179 106.802865 
L 588.92731 106.802865 
" clip-path="url(#pd0066af94d)" style="fill: none; stroke: #ffffff; stroke-width: 0.72; stroke-linecap: square"/>
   </g>
   <g id="patch_12">
    <path d="M 578.806744 98.36906 
L 587.240549 106.802865 
L 578.806744 115.23667 
L 570.37294 106.802865 
L 578.806744 98.36906 
" clip-path="url(#pd0066af94d)" style="fill: none; stroke: #ff0000; stroke-width: 0.72; stroke-linejoin: miter"/>
   </g>
   <g id="line2d_4">
    <path d="M 864.326793 106.802865 
L 884.567925 106.802865 
" clip-path="url(#pd0066af94d)" style="fill: none; stroke: #ffffff; stroke-width: 0.72; stroke-linecap: square"/>
   </g>
   <g id="patch_13">
    <path d="M 874.447359 98.36906 
L 882.881164 106.802865 
L 874.447359 115.23667 
L 866.013554 106.802865 
L 874.447359 98.36906 
" clip-path="url(#pd0066af94d)" style="fill: none; stroke: #ff0000; stroke-width: 0.72; stroke-linejoin: miter"/>
   </g>
   <g id="line2d_5">
    <path d="M 52.475613 141.552106 
L 714.47696 184.12977 
" clip-path="url(#pd0066af94d)" style="fill: none; stroke: #ffffff; stroke-width: 0.72; stroke-linecap: square"/>
   </g>
   <g id="line2d_6">
    <path d="M 181.340988 149.840286 
L 201.540385 151.139443 
" clip-path="url(#pd0066af94d)" style="fill: none; stroke: #ffffff; stroke-width: 0.72; stroke-linecap: square"/>
   </g>
   <g id="patch_14">
    <path d="M 191.982001 142.073449 
L 199.857101 151.03118 
L 190.899371 158.90628 
L 183.024271 149.948549 
L 191.982001 142.073449 
" clip-path="url(#pd0066af94d)" style="fill: none; stroke: #ff0000; stroke-width: 0.72; stroke-linejoin: miter"/>
   </g>
   <g id="line2d_7">
    <path d="M 341.370655 160.132848 
L 361.570051 161.432004 
" clip-path="url(#pd0066af94d)" style="fill: none; stroke: #ffffff; stroke-width: 0.72; stroke-linecap: square"/>
   </g>
   <g id="patch_15">
    <path d="M 352.011668 152.366011 
L 359.886768 161.323741 
L 350.929038 169.198841 
L 343.053938 160.241111 
L 352.011668 152.366011 
" clip-path="url(#pd0066af94d)" style="fill: none; stroke: #ff0000; stroke-width: 0.72; stroke-linejoin: miter"/>
   </g>
   <g id="line2d_8">
    <path d="M 583.400859 28.408119 
L 583.400859 26.721358 
" clip-path="url(#pd0066af94d)" style="fill: none; stroke: #ff0000; stroke-width: 0.72; stroke-linecap: square"/>
   </g>
   <g id="line2d_9">
    <path d="M 583.400859 185.197611 
L 583.400859 186.884372 
" clip-path="url(#pd0066af94d)" style="fill: none; stroke: #ff0000; stroke-width: 0.72; stroke-linecap: square"/>
   </g>
   <g id="line2d_10">
    <path d="M 657.257649 106.802865 
L 658.94441 106.802865 
" clip-path="url(#pd0066af94d)" style="fill: none; stroke: #ff0000; stroke-width: 0.72; stroke-linecap: square"/>
   </g>
   <g id="line2d_11">
    <path d="M 509.544068 106.802865 
L 507.857308 106.802865 
" clip-path="url(#pd0066af94d)" style="fill: none; stroke: #ff0000; stroke-width: 0.72; stroke-linecap: square"/>
   </g>
   <g id="line2d_12">
    <path d="M 330.386713 200.479188 
L 330.386713 20.412971 
" clip-path="url(#pd0066af94d)" style="fill: none; stroke: #ffffff; stroke-width: 0.72; stroke-linecap: square"/>
   </g>
   <g id="line2d_13">
    <path d="M 330.386713 144.287394 
L 330.386713 124.046262 
" clip-path="url(#pd0066af94d)" style="fill: none; stroke: #ffffff; stroke-width: 0.72; stroke-linecap: square"/>
   </g>
   <g id="patch_16">
    <path d="M 321.952908 134.166828 
L 330.386713 125.733023 
L 338.820518 134.166828 
L 330.386713 142.600633 
L 321.952908 134.166828 
" clip-path="url(#pd0066af94d)" style="fill: none; stroke: #ff0000; stroke-width: 0.72; stroke-linejoin: miter"/>
   </g>
   <g id="line2d_14">
    <path d="M 330.386713 96.845896 
L 330.386713 76.604765 
" clip-path="url(#pd0066af94d)" style="fill: none; stroke: #ffffff; stroke-width: 0.72; stroke-linecap: square"/>
   </g>
   <g id="patch_17">
    <path d="M 321.952908 86.72533 
L 330.386713 78.291526 
L 338.820518 86.72533 
L 330.386713 95.159135 
L 321.952908 86.72533 
" clip-path="url(#pd0066af94d)" style="fill: none; stroke: #ff0000; stroke-width: 0.72; stroke-linejoin: miter"/>
   </g>
   <g id="line2d_15">
    <path d="M 1089.42915 114.386808 
L 1089.42915 109.092089 
" clip-path="url(#pd0066af94d)" style="fill: none; stroke: #ffffff; stroke-width: 0.72; stroke-linecap: square"/>
   </g>
   <g id="line2d_16">
    <path d="M 1089.42915 121.860015 
L 1089.42915 101.618883 
" clip-path="url(#pd0066af94d)" style="fill: none; stroke: #ffffff; stroke-width: 0.72; stroke-linecap: square"/>
   </g>
   <g id="patch_18">
    <path d="M 1080.995345 111.739449 
L 1089.42915 103.305644 
L 1097.862955 111.739449 
L 1089.42915 120.173254 
L 1080.995345 111.739449 
" clip-path="url(#pd0066af94d)" style="fill: none; stroke: #ff0000; stroke-width: 0.72; stroke-linejoin: miter"/>
   </g>
   <g id="patch_19">
    <path d="M 443.890392 159.690488 
L 443.890392 168.124293 
L 452.324197 168.124293 
L 452.324197 159.690488 
L 452.324197 176.558098 
" clip-path="url(#pd0066af94d)" style="fill: none; stroke: #ff0000; stroke-width: 0.72; stroke-linejoin: miter"/>
   </g>
   <g id="patch_20">
    <path d="M 459.914621 159.690488 
L 456.541099 159.690488 
L 456.541099 176.558098 
L 459.914621 176.558098 
" clip-path="url(#pd0066af94d)" style="fill: none; stroke: #ff0000; stroke-width: 0.72; stroke-linejoin: miter"/>
   </g>
   <g id="patch_21">
    <path d="M 461.601382 176.558098 
L 464.974904 176.558098 
L 464.974904 159.690488 
L 461.601382 159.690488 
" clip-path="url(#pd0066af94d)" style="fill: none; stroke: #ff0000; stroke-width: 0.72; stroke-linejoin: miter"/>
   </g>
  </g>
 </g>
 <defs>
  <clipPath id="pd0066af94d">
   <rect x="0" y="0" width="1152" height="214.215503"/>
  </clipPath>
 </defs>
</svg>
