<?xml version="1.0" encoding="utf-8" standalone="no"?>
<!DOCTYPE svg PUBLIC "-//W3C//DTD SVG 1.1//EN"
  "http://www.w3.org/Graphics/SVG/1.1/DTD/svg11.dtd">
<svg xmlns:xlink="http://www.w3.org/1999/xlink" width="1152pt" height="314.337718pt" viewBox="0 0 1152 314.337718" xmlns="http://www.w3.org/2000/svg" version="1.1">
 <metadata>
  <rdf:RDF xmlns:dc="http://purl.org/dc/elements/1.1/" xmlns:cc="http://creativecommons.org/ns#" xmlns:rdf="http://www.w3.org/1999/02/22-rdf-syntax-ns#">
   <cc:Work>
    <dc:type rdf:resource="http://purl.org/dc/dcmitype/StillImage"/>
    <dc:date>2026-01-07T02:07:22.318789</dc:date>
    <dc:format>image/svg+xml</dc:format>
    <dc:creator>
     <cc:Agent>
      <dc:title>Matplotlib v3.10.1, https://matplotlib.org/</dc:title>
     </cc:Agent>
    </dc:creator>
   </cc:Work>
  </rdf:RDF>
 </metadata>
 <defs>
  <style type="text/css">*{stroke-linejoin: round; stroke-linecap: butt}</style>
 </defs>
 <g id="figure_1">
  <g id="patch_1">
   <path d="M 0 314.337718 
L 1152 314.337718 
L 1152 0 
L 0 0 
z
" style="fill: #ffffff"/>
  </g>
  <g id="axes_1">
   <g id="patch_2">
    <path d="M 0 314.337718 
L 1152 314.337718 
L 1152 0 
L 0 0 
z
" style="fill: #212830"/>
   </g>
   <g id="patch_3">
    <path d="M 1099.636363 259.501639 
L 1099.636364 39.936369 
L 1083.710586 37.796779 
L 1063.172982 35.196205 
L 1042.59924 32.746008 
L 1022.00511 30.439828 
L 1001.397376 28.285101 
L 980.770552 26.282981 
L 960.129877 24.431177 
L 939.481737 22.731903 
L 918.826822 21.182461 
L 898.184532 19.781224 
L 877.550416 18.540075 
L 856.926911 17.449931 
L 836.336662 16.515227 
L 815.772161 15.745827 
L 795.230096 15.137601 
L 774.726105 14.68815 
L 754.266456 14.404566 
L 733.850385 14.288078 
L 713.485527 14.336709 
L 693.18647 14.554565 
L 672.957055 14.95125 
L 652.787453 15.525822 
L 632.702285 16.27199 
L 612.700106 17.206452 
L 592.787321 18.317014 
L 572.984743 19.613842 
L 553.288121 21.099464 
L 533.722041 22.772378 
L 514.288829 24.6446 
L 494.992824 26.714701 
L 475.84506 28.981061 
L 456.870645 31.439952 
L 438.083941 34.102742 
L 419.488121 36.96707 
L 401.115608 40.02058 
L 383.003139 43.259467 
L 365.186233 46.684229 
L 347.688661 50.296481 
L 330.539696 54.084824 
L 313.787274 58.033349 
L 297.458441 62.142057 
L 281.586894 66.386174 
L 266.212577 70.744143 
L 251.376775 75.190055 
L 237.11716 79.706609 
L 223.454068 84.272507 
L 210.406809 88.870619 
L 197.969359 93.490724 
L 186.141104 98.11317 
L 174.899239 102.728102 
L 164.255494 107.307094 
L 154.184065 111.878984 
L 144.662528 116.424471 
L 135.689197 120.942249 
L 127.250456 125.431307 
L 119.360608 129.880645 
L 112.03499 134.280881 
L 105.264931 138.635307 
L 99.080512 142.876149 
L 93.489356 146.992894 
L 88.467745 150.975102 
L 83.967571 154.820417 
L 79.9594 158.488309 
L 76.348889 162.065597 
L 73.097397 165.468671 
L 70.182793 168.712163 
L 67.566959 171.835002 
L 65.224825 174.842526 
L 63.149338 177.722752 
L 61.317147 180.526483 
L 59.695407 183.281912 
L 58.268133 185.960866 
L 57.016157 188.585569 
L 54.974985 193.638546 
L 53.513235 198.390079 
L 53.012756 200.518777 
L 52.679573 202.76801 
L 52.363636 207.173105 
L 52.401268 209.350202 
L 52.596862 211.547101 
L 52.971306 213.762098 
L 53.543093 215.9872 
L 54.339285 218.226879 
L 55.390643 220.491479 
L 56.716963 222.781647 
L 58.322744 225.085325 
L 60.210918 227.386547 
L 62.39644 229.67334 
L 64.917042 231.944969 
L 67.822431 234.211476 
L 71.129698 236.474222 
L 74.850041 238.719754 
L 79.058078 240.939826 
L 83.823348 243.145584 
L 89.139262 245.348616 
L 94.948249 247.526113 
L 101.259913 249.63367 
L 108.059107 251.67596 
L 115.247775 253.648689 
L 122.808683 255.532776 
L 130.764016 257.335891 
L 147.884234 260.847487 
L 156.945437 262.567223 
L 166.418748 264.217505 
L 186.926635 267.459333 
L 209.599229 270.698414 
L 221.889273 272.280858 
L 234.92256 273.835258 
L 248.752476 275.371796 
L 263.409902 276.887363 
L 278.910848 278.374142 
L 295.235 279.819361 
L 312.363813 281.201657 
L 330.241506 282.521899 
L 348.832229 283.743106 
L 368.071093 284.879272 
L 387.861626 285.936691 
L 428.807273 287.776434 
L 462.087989 288.971155 
L 461.919328 294.092532 
L 492.648573 295.016602 
L 536.574612 296.144387 
L 580.818908 297.073284 
L 648.100816 298.048272 
L 715.971677 298.913239 
L 761.264203 299.30404 
L 881.492231 300.04964 
L 1099.636363 259.501639 
L 1099.636363 259.501639 
" clip-path="url(#p20aabab6fe)" style="fill: none; stroke: #ff0000; stroke-width: 0.72; stroke-linejoin: miter"/>
   </g>
   <g id="patch_4">
    <path d="M 655.621402 226.688671 
L 648.789197 226.688671 
" clip-path="url(#p20aabab6fe)" style="fill: none; stroke: #ff0000; stroke-width: 0.72; stroke-linejoin: miter"/>
   </g>
   <g id="patch_5">
    <path d="M 645.373094 226.688671 
L 638.540889 226.688671 
L 638.540889 260.849695 
L 645.373094 260.849695 
" clip-path="url(#p20aabab6fe)" style="fill: none; stroke: #ff0000; stroke-width: 0.72; stroke-linejoin: miter"/>
   </g>
   <g id="patch_6">
    <path d="M 648.789197 260.849695 
L 655.621402 260.849695 
L 655.621402 243.769183 
L 648.789197 243.769183 
" clip-path="url(#p20aabab6fe)" style="fill: none; stroke: #ff0000; stroke-width: 0.72; stroke-linejoin: miter"/>
   </g>
   <g id="patch_7">
    <path d="M 645.373094 243.769183 
L 638.540889 243.769183 
" clip-path="url(#p20aabab6fe)" style="fill: none; stroke: #ff0000; stroke-width: 0.72; stroke-linejoin: miter"/>
   </g>
   <g id="patch_8">
    <path d="M 670.993862 226.688671 
L 664.161658 226.688671 
L 664.161658 260.849695 
L 670.993862 260.849695 
" clip-path="url(#p20aabab6fe)" style="fill: none; stroke: #ff0000; stroke-width: 0.72; stroke-linejoin: miter"/>
   </g>
   <g id="patch_9">
    <path d="M 674.409965 260.849695 
L 681.24217 260.849695 
L 681.24217 226.688671 
L 674.409965 226.688671 
" clip-path="url(#p20aabab6fe)" style="fill: none; stroke: #ff0000; stroke-width: 0.72; stroke-linejoin: miter"/>
   </g>
   <g id="patch_10">
    <path d="M 633.536362 29.912335 
L 619.886846 30.550156 
L 619.249026 16.90064 
L 632.898541 16.262819 
L 633.536362 29.912335 
" clip-path="url(#p20aabab6fe)" style="fill: none; stroke: #ff0000; stroke-width: 0.72; stroke-linejoin: miter"/>
   </g>
   <g id="patch_11">
    <path d="M 277.348402 81.790676 
L 264.202071 85.517614 
L 260.475134 72.371282 
L 273.621465 68.644345 
L 277.348402 81.790676 
" clip-path="url(#p20aabab6fe)" style="fill: none; stroke: #ff0000; stroke-width: 0.72; stroke-linejoin: miter"/>
   </g>
   <g id="patch_12">
    <path d="M 99.171142 164.296402 
L 93.979171 168.737401 
L 82.876675 155.757475 
L 88.068645 151.316477 
L 99.171142 164.296402 
" clip-path="url(#p20aabab6fe)" style="fill: none; stroke: #ff0000; stroke-width: 0.72; stroke-linejoin: miter"/>
   </g>
   <g id="patch_13">
    <path d="M 75.94378 219.076868 
L 81.590497 222.923115 
L 71.974881 237.039907 
L 66.328164 233.19366 
L 75.94378 219.076868 
" clip-path="url(#p20aabab6fe)" style="fill: none; stroke: #ff0000; stroke-width: 0.72; stroke-linejoin: miter"/>
   </g>
   <g id="patch_14">
    <path d="M 351.507044 270.212845 
L 365.147692 271.018347 
L 364.34219 284.658994 
L 350.701543 283.853492 
L 351.507044 270.212845 
" clip-path="url(#p20aabab6fe)" style="fill: none; stroke: #ff0000; stroke-width: 0.72; stroke-linejoin: miter"/>
   </g>
   <g id="patch_15">
    <path d="M 970.985594 156.055269 
L 970.877107 150.851206 
L 970.551836 145.656334 
L 970.010357 140.479827 
L 969.253625 135.330828 
L 968.282978 130.218431 
L 967.100128 125.151663 
L 965.707166 120.139474 
L 964.106551 115.190716 
L 962.301111 110.314128 
L 960.294033 105.518324 
L 958.088863 100.811772 
L 955.689495 96.202785 
L 953.100166 91.699504 
L 950.32545 87.309881 
L 947.370247 83.041668 
L 944.239776 78.902404 
L 940.939566 74.899399 
L 937.475445 71.039723 
L 933.853531 67.330193 
L 930.080221 63.777359 
L 926.162179 60.387496 
L 922.106324 57.166592 
L 917.91982 54.120334 
L 913.610061 51.254102 
L 909.184657 48.572959 
L 904.651424 46.08164 
L 900.018369 43.784544 
L 895.293674 41.685729 
L 890.485682 39.788901 
L 885.602887 38.09741 
L 880.65391 36.614244 
L 875.647493 35.342021 
L 870.592477 34.28299 
L 865.497789 33.439019 
L 860.372428 32.8116 
L 855.225445 32.401841 
L 850.065931 32.210465 
L 844.902997 32.23781 
L 839.745761 32.483829 
L 834.603333 32.948086 
L 829.484794 33.629762 
L 824.399183 34.527652 
L 819.355482 35.640172 
L 814.3626 36.965355 
L 809.429354 38.500863 
L 804.564456 40.243982 
L 799.776498 42.191635 
L 795.073936 44.340382 
L 790.465076 46.686427 
L 785.958058 49.225628 
L 781.56084 51.9535 
L 777.281189 54.865225 
L 773.126663 57.955662 
L 769.104599 61.219351 
L 765.222101 64.650529 
L 761.486026 68.243136 
L 757.902971 71.990828 
L 754.479265 75.886985 
L 751.220955 79.924727 
L 748.133794 84.096923 
L 745.223236 88.396203 
L 742.49442 92.814976 
L 739.952166 97.345437 
L 737.600963 101.979585 
L 735.444965 106.709236 
L 733.487978 111.526036 
L 731.733459 116.421479 
L 730.184506 121.386919 
L 728.843856 126.413586 
L 727.713876 131.492604 
L 726.796561 136.615001 
L 726.093532 141.771731 
L 725.60603 146.953688 
L 725.334916 152.151719 
L 725.28067 157.356644 
L 725.443386 162.559271 
L 725.822777 167.750411 
L 726.418174 172.920896 
L 727.228525 178.061595 
L 728.252399 183.163428 
L 729.487987 188.217387 
L 730.933107 193.214544 
L 732.585208 198.146074 
L 734.44137 203.003268 
L 736.498317 207.777547 
L 738.752416 212.460481 
L 741.199684 217.043797 
L 743.835801 221.519402 
L 746.656111 225.879391 
L 749.655633 230.116065 
L 752.829069 234.22194 
L 756.170815 238.189766 
L 759.674969 242.012534 
L 763.335342 245.683494 
L 767.14547 249.196163 
L 771.098623 252.544336 
L 775.187821 255.7221 
L 779.405841 258.723843 
L 783.745233 261.544265 
L 788.198335 264.178383 
L 792.757281 266.621545 
L 797.41402 268.869437 
L 802.160327 270.91809 
L 806.987821 272.763883 
L 811.887975 274.403559 
L 816.852136 275.83422 
L 821.871535 277.053341 
L 826.937309 278.058768 
L 832.040511 278.848726 
L 837.172128 279.421819 
L 842.323097 279.777035 
L 847.484321 279.913747 
L 852.646685 279.831714 
L 857.801072 279.53108 
L 862.938378 279.012376 
L 868.049531 278.276519 
L 873.125503 277.324807 
L 878.157331 276.158923 
L 883.136127 274.780924 
L 888.053099 273.193245 
L 892.899563 271.398689 
L 897.666958 269.400427 
L 902.346867 267.201986 
L 906.931023 264.80725 
L 911.41133 262.220447 
L 915.779877 259.446148 
L 920.028947 256.48925 
L 924.151036 253.354977 
L 928.138865 250.048863 
L 931.98539 246.576748 
L 935.683818 242.944764 
L 939.227618 239.159325 
L 942.610531 235.227117 
L 945.826581 231.155083 
L 948.870091 226.950417 
L 951.735683 222.620543 
L 954.418297 218.173108 
L 956.913197 213.615968 
L 959.215974 208.95717 
L 961.322563 204.204943 
L 963.229243 199.367679 
L 964.932647 194.453921 
L 966.429766 189.472348 
L 967.717956 184.431757 
L 968.794943 179.34105 
L 969.658823 174.209219 
L 970.308072 169.045326 
L 970.741543 163.858491 
L 970.95847 158.657875 
L 970.985594 156.055269 
L 970.985594 156.055269 
" clip-path="url(#p20aabab6fe)" style="fill: none; stroke: #ff0000; stroke-width: 0.72; stroke-linejoin: miter"/>
   </g>
   <g id="patch_16">
    <path d="M 400.263718 138.974757 
L 417.34423 156.055269 
L 400.263718 173.135781 
L 383.183206 156.055269 
L 400.263718 138.974757 
" clip-path="url(#p20aabab6fe)" style="fill: none; stroke: #ff0000; stroke-width: 0.72; stroke-linejoin: miter"/>
   </g>
   <g id="patch_17">
    <path d="M 843.425059 138.974757 
L 860.505571 156.055269 
L 843.425059 173.135781 
L 826.344547 156.055269 
L 843.425059 138.974757 
" clip-path="url(#p20aabab6fe)" style="fill: none; stroke: #ff0000; stroke-width: 0.72; stroke-linejoin: miter"/>
   </g>
   <g id="patch_18">
    <path d="M 270.411634 199.925739 
L 286.439638 217.997564 
L 268.367813 234.025568 
L 252.339809 215.953743 
L 270.411634 199.925739 
" clip-path="url(#p20aabab6fe)" style="fill: none; stroke: #ff0000; stroke-width: 0.72; stroke-linejoin: miter"/>
   </g>
   <g id="patch_19">
    <path d="M 513.738112 214.509855 
L 529.766116 232.58168 
L 511.69429 248.609684 
L 495.666286 230.537858 
L 513.738112 214.509855 
" clip-path="url(#p20aabab6fe)" style="fill: none; stroke: #ff0000; stroke-width: 0.72; stroke-linejoin: miter"/>
   </g>
   <g id="patch_20">
    <path d="M 557.761037 193.183539 
L 574.841549 176.103027 
L 591.922061 193.183539 
L 574.841549 210.264051 
L 557.761037 193.183539 
" clip-path="url(#p20aabab6fe)" style="fill: none; stroke: #ff0000; stroke-width: 0.72; stroke-linejoin: miter"/>
   </g>
   <g id="patch_21">
    <path d="M 557.761037 123.266633 
L 574.841549 106.186121 
L 591.922061 123.266633 
L 574.841549 140.347145 
L 557.761037 123.266633 
" clip-path="url(#p20aabab6fe)" style="fill: none; stroke: #ff0000; stroke-width: 0.72; stroke-linejoin: miter"/>
   </g>
   <g id="line2d_1">
    <path d="M 82.618159 156.055269 
L 1099.636364 156.055269 
" clip-path="url(#p20aabab6fe)" style="fill: none; stroke: #ffffff; stroke-width: 0.72; stroke-linecap: square"/>
   </g>
   <g id="line2d_2">
    <path d="M 379.767104 156.055269 
L 420.760333 156.055269 
" clip-path="url(#p20aabab6fe)" style="fill: none; stroke: #ffffff; stroke-width: 0.72; stroke-linecap: square"/>
   </g>
   <g id="line2d_3">
    <path d="M 822.928444 156.055269 
L 863.921673 156.055269 
" clip-path="url(#p20aabab6fe)" style="fill: none; stroke: #ffffff; stroke-width: 0.72; stroke-linecap: square"/>
   </g>
   <g id="line2d_4">
    <path d="M 52.563652 203.979877 
L 1070.199341 264.973307 
" clip-path="url(#p20aabab6fe)" style="fill: none; stroke: #ffffff; stroke-width: 0.72; stroke-linecap: square"/>
   </g>
   <g id="line2d_5">
    <path d="M 248.929826 215.749361 
L 289.849621 218.201946 
" clip-path="url(#p20aabab6fe)" style="fill: none; stroke: #ffffff; stroke-width: 0.72; stroke-linecap: square"/>
   </g>
   <g id="line2d_6">
    <path d="M 492.256304 230.333476 
L 533.176099 232.786062 
" clip-path="url(#p20aabab6fe)" style="fill: none; stroke: #ffffff; stroke-width: 0.72; stroke-linecap: square"/>
   </g>
   <g id="line2d_7">
    <path d="M 848.129741 32.195082 
L 848.129741 28.77898 
" clip-path="url(#p20aabab6fe)" style="fill: none; stroke: #ff0000; stroke-width: 0.72; stroke-linecap: square"/>
   </g>
   <g id="line2d_8">
    <path d="M 848.129741 279.915456 
L 848.129741 283.331559 
" clip-path="url(#p20aabab6fe)" style="fill: none; stroke: #ff0000; stroke-width: 0.72; stroke-linecap: square"/>
   </g>
   <g id="line2d_9">
    <path d="M 970.985594 156.055269 
L 974.401697 156.055269 
" clip-path="url(#p20aabab6fe)" style="fill: none; stroke: #ff0000; stroke-width: 0.72; stroke-linecap: square"/>
   </g>
   <g id="line2d_10">
    <path d="M 725.273888 156.055269 
L 721.857786 156.055269 
" clip-path="url(#p20aabab6fe)" style="fill: none; stroke: #ff0000; stroke-width: 0.72; stroke-linecap: square"/>
   </g>
   <g id="line2d_11">
    <path d="M 574.841549 296.957928 
L 574.841549 19.492244 
" clip-path="url(#p20aabab6fe)" style="fill: none; stroke: #ffffff; stroke-width: 0.72; stroke-linecap: square"/>
   </g>
   <g id="line2d_12">
    <path d="M 574.841549 213.680153 
L 574.841549 172.686924 
" clip-path="url(#p20aabab6fe)" style="fill: none; stroke: #ffffff; stroke-width: 0.72; stroke-linecap: square"/>
   </g>
   <g id="line2d_13">
    <path d="M 574.841549 143.763247 
L 574.841549 102.770019 
" clip-path="url(#p20aabab6fe)" style="fill: none; stroke: #ffffff; stroke-width: 0.72; stroke-linecap: square"/>
   </g>
  </g>
 </g>
 <defs>
  <clipPath id="p20aabab6fe">
   <rect x="0" y="0" width="1152" height="314.337718"/>
  </clipPath>
 </defs>
</svg>
