<?xml version="1.0" encoding="utf-8" standalone="no"?>
<!DOCTYPE svg PUBLIC "-//W3C//DTD SVG 1.1//EN"
  "http://www.w3.org/Graphics/SVG/1.1/DTD/svg11.dtd">
<svg xmlns:xlink="http://www.w3.org/1999/xlink" width="1152pt" height="184.448864pt" viewBox="0 0 1152 184.448864" xmlns="http://www.w3.org/2000/svg" version="1.1">
 <metadata>
  <rdf:RDF xmlns:dc="http://purl.org/dc/elements/1.1/" xmlns:cc="http://creativecommons.org/ns#" xmlns:rdf="http://www.w3.org/1999/02/22-rdf-syntax-ns#">
   <cc:Work>
    <dc:type rdf:resource="http://purl.org/dc/dcmitype/StillImage"/>
    <dc:date>2026-01-07T02:07:16.693460</dc:date>
    <dc:format>image/svg+xml</dc:format>
    <dc:creator>
     <cc:Agent>
      <dc:title>Matplotlib v3.10.1, https://matplotlib.org/</dc:title>
     </cc:Agent>
    </dc:creator>
   </cc:Work>
  </rdf:RDF>
 </metadata>
 <defs>
  <style type="text/css">*{stroke-linejoin: round; stroke-linecap: butt}</style>
 </defs>
 <g id="figure_1">
  <g id="patch_1">
   <path d="M 0 184.448864 
L 1152 184.448864 
L 1152 0 
L 0 0 
z
" style="fill: #ffffff"/>
  </g>
  <g id="axes_1">
   <g id="patch_2">
    <path d="M 0 184.448864 
L 1152 184.448864 
L 1152 0 
L 0 0 
z
" style="fill: #212830"/>
   </g>
   <g id="patch_3">
    <path d="M 1099.463343 175.233605 
L 1082.089336 169.014299 
L 1066.066921 163.486683 
L 1037.692984 153.747085 
L 1006.248697 142.693628 
L 962.228226 126.924544 
L 906.599524 106.97941 
L 873.716819 95.422799 
L 852.075047 87.992464 
L 841.926955 84.571194 
L 841.507933 85.814085 
L 830.255053 82.071344 
L 809.072838 75.21002 
L 788.06499 68.668861 
L 767.181046 62.462069 
L 746.371473 56.589486 
L 725.597713 51.056003 
L 704.826813 45.857323 
L 684.040001 40.997405 
L 663.218692 36.471964 
L 642.359212 32.28485 
L 621.451945 28.43329 
L 600.502996 24.920657 
L 579.509072 21.746078 
L 558.473494 18.91516 
L 537.369596 16.42292 
L 516.214428 14.262454 
L 495.015199 12.435667 
L 473.805935 10.938464 
L 452.610151 9.780553 
L 431.459711 8.962041 
L 410.377833 8.495999 
L 389.391295 8.384039 
L 368.526348 8.640694 
L 347.811329 9.269091 
L 327.278404 10.284876 
L 306.963725 11.691997 
L 286.907572 13.506752 
L 276.991036 14.567063 
L 267.160095 15.732437 
L 257.417662 17.005162 
L 247.771058 18.383573 
L 238.232555 19.867913 
L 228.810036 21.460634 
L 219.510291 23.159967 
L 210.352656 24.958943 
L 201.360327 26.856487 
L 192.547357 28.853771 
L 183.929368 30.943608 
L 175.534473 33.115767 
L 167.387772 35.366683 
L 159.506709 37.689426 
L 151.915304 40.067186 
L 144.643023 42.485038 
L 137.709747 44.933766 
L 131.128555 47.397202 
L 124.914653 49.85482 
L 119.07825 52.293297 
L 108.524762 57.070656 
L 99.404748 61.637442 
L 91.588339 65.96588 
L 84.905306 70.038938 
L 79.197926 73.872754 
L 74.314402 77.4954 
L 70.139304 80.929538 
L 66.565702 84.225334 
L 63.473151 87.389802 
L 60.79294 90.382257 
L 58.531315 93.210931 
L 56.689584 95.95263 
L 55.213743 98.659304 
L 54.046116 101.296402 
L 53.178033 103.818832 
L 52.625153 106.235073 
L 52.375743 108.675197 
L 52.421167 110.896258 
L 52.789266 113.206637 
L 53.122716 114.347294 
L 53.571139 115.481574 
L 54.822818 117.727468 
L 56.510135 119.906608 
L 58.612659 121.975564 
L 61.161996 123.925009 
L 64.166622 125.774181 
L 67.62296 127.541602 
L 71.578654 129.232705 
L 76.123981 130.865753 
L 81.358905 132.480611 
L 87.414873 134.106585 
L 94.488828 135.756334 
L 102.826937 137.446903 
L 112.720747 139.176304 
L 124.485529 140.92961 
L 138.353327 142.670256 
L 154.39114 144.335069 
L 172.405803 145.857573 
L 192.040417 147.188781 
L 212.895583 148.30404 
L 234.662849 149.211482 
L 258.384811 149.993368 
L 258.344832 151.304383 
L 291.545618 152.207783 
L 338.418604 153.025445 
L 373.846049 153.553165 
L 469.417607 154.429329 
L 600.44013 155.229598 
L 647.788671 155.471714 
L 694.797774 155.898442 
L 729.686117 156.240802 
L 764.593027 156.510786 
L 811.120772 157.170881 
L 857.49105 158.339239 
L 880.434765 159.077966 
L 926.309988 161.000979 
L 948.805536 162.198269 
L 982.570946 164.373219 
L 1004.527499 165.969841 
L 1025.817809 167.750703 
L 1046.020164 169.655112 
L 1064.686267 171.715208 
L 1088.754841 174.646264 
L 1099.636364 176.064825 
L 1099.463343 175.233605 
L 1099.463343 175.233605 
" clip-path="url(#p6e21f2ace0)" style="fill: none; stroke: #ff0000; stroke-width: 0.72; stroke-linejoin: miter"/>
   </g>
   <g id="patch_4">
    <path d="M 739.455894 60.154465 
L 734.391275 58.785025 
L 735.760715 53.720406 
L 740.825334 55.089846 
L 739.455894 60.154465 
" clip-path="url(#p6e21f2ace0)" style="fill: none; stroke: #ff0000; stroke-width: 0.72; stroke-linejoin: miter"/>
   </g>
   <g id="patch_5">
    <path d="M 344.299176 14.67753 
L 339.057894 14.91141 
L 338.824015 9.670128 
L 344.065297 9.436249 
L 344.299176 14.67753 
" clip-path="url(#p6e21f2ace0)" style="fill: none; stroke: #ff0000; stroke-width: 0.72; stroke-linejoin: miter"/>
   </g>
   <g id="patch_6">
    <path d="M 165.02812 41.531888 
L 159.995691 43.015257 
L 158.512322 37.982827 
L 163.544752 36.499459 
L 165.02812 41.531888 
" clip-path="url(#p6e21f2ace0)" style="fill: none; stroke: #ff0000; stroke-width: 0.72; stroke-linejoin: miter"/>
   </g>
   <g id="patch_7">
    <path d="M 74.71104 85.6385 
L 72.758742 87.390632 
L 68.378413 82.509887 
L 70.330711 80.757755 
L 74.71104 85.6385 
" clip-path="url(#p6e21f2ace0)" style="fill: none; stroke: #ff0000; stroke-width: 0.72; stroke-linejoin: miter"/>
   </g>
   <g id="patch_8">
    <path d="M 63.773967 117.72294 
L 65.904057 119.254002 
L 62.076402 124.579226 
L 59.946312 123.048164 
L 63.773967 117.72294 
" clip-path="url(#p6e21f2ace0)" style="fill: none; stroke: #ff0000; stroke-width: 0.72; stroke-linejoin: miter"/>
   </g>
   <g id="patch_9">
    <path d="M 203.52243 142.579658 
L 208.762309 142.843088 
L 208.49888 148.082967 
L 203.259 147.819538 
L 203.52243 142.579658 
" clip-path="url(#p6e21f2ace0)" style="fill: none; stroke: #ff0000; stroke-width: 0.72; stroke-linejoin: miter"/>
   </g>
   <g id="line2d_1">
    <path d="M 1074.852122 166.489056 
L 1074.425771 167.729453 
" clip-path="url(#p6e21f2ace0)" style="fill: none; stroke: #ff0000; stroke-width: 0.72; stroke-linecap: square"/>
   </g>
   <g id="line2d_2">
    <path d="M 1073.6363 171.462844 
L 1073.523978 172.76965 
" clip-path="url(#p6e21f2ace0)" style="fill: none; stroke: #ff0000; stroke-width: 0.72; stroke-linecap: square"/>
   </g>
   <g id="line2d_3">
    <path d="M 1050.029229 158.005633 
L 1049.603968 159.246403 
" clip-path="url(#p6e21f2ace0)" style="fill: none; stroke: #ff0000; stroke-width: 0.72; stroke-linecap: square"/>
   </g>
   <g id="line2d_4">
    <path d="M 1047.584474 168.502409 
L 1047.454261 169.807554 
" clip-path="url(#p6e21f2ace0)" style="fill: none; stroke: #ff0000; stroke-width: 0.72; stroke-linecap: square"/>
   </g>
   <g id="line2d_5">
    <path d="M 951.133174 122.930303 
L 950.699126 124.168027 
" clip-path="url(#p6e21f2ace0)" style="fill: none; stroke: #ff0000; stroke-width: 0.72; stroke-linecap: square"/>
   </g>
   <g id="line2d_6">
    <path d="M 942.925936 160.549702 
L 942.816274 161.856734 
" clip-path="url(#p6e21f2ace0)" style="fill: none; stroke: #ff0000; stroke-width: 0.72; stroke-linecap: square"/>
   </g>
   <g id="patch_10">
    <path d="M 507.385118 81.472066 
L 507.276074 77.80078 
L 506.949377 74.14408 
L 506.406323 70.516494 
L 505.64907 66.932434 
L 504.680628 63.406139 
L 503.504843 59.951621 
L 502.126387 56.582602 
L 500.550737 53.312469 
L 498.784152 50.154213 
L 496.833651 47.120382 
L 494.706984 44.22303 
L 492.4126 41.473667 
L 489.959613 38.883217 
L 487.357771 36.461971 
L 484.617409 34.21955 
L 481.749416 32.164861 
L 478.765185 30.306069 
L 475.676573 28.650559 
L 472.495852 27.204907 
L 469.235657 25.974857 
L 465.908942 24.965296 
L 462.528924 24.180235 
L 459.10903 23.622794 
L 455.66285 23.295186 
L 452.204073 23.198714 
L 448.746443 23.33376 
L 445.303694 23.699789 
L 441.889507 24.295345 
L 438.517445 25.118063 
L 435.200906 26.164675 
L 431.953065 27.431021 
L 428.786827 28.912071 
L 425.71477 30.601941 
L 422.749101 32.493917 
L 419.901601 34.580481 
L 417.183585 36.853345 
L 414.605849 39.303478 
L 412.178636 41.921146 
L 409.911589 44.695949 
L 407.813714 47.616862 
L 405.893348 50.672281 
L 404.158118 53.850067 
L 402.614919 57.137595 
L 401.269883 60.521803 
L 400.128353 63.989246 
L 399.194864 67.526148 
L 398.473126 71.118456 
L 397.966005 74.751899 
L 397.675516 78.412042 
L 397.602813 82.084341 
L 397.748186 85.754208 
L 398.111057 89.407063 
L 398.689983 93.028391 
L 399.482666 96.603807 
L 400.485955 100.119105 
L 401.695864 103.560318 
L 403.107588 106.913775 
L 404.715516 110.166153 
L 406.513261 113.30453 
L 408.49368 116.316438 
L 410.648905 119.189909 
L 412.970374 121.913528 
L 415.448863 124.476475 
L 418.074526 126.868566 
L 420.83693 129.080297 
L 423.7251 131.102882 
L 426.727563 132.928286 
L 429.832389 134.549254 
L 433.027243 135.959349 
L 436.299431 137.152966 
L 439.635954 138.125365 
L 443.023556 138.872681 
L 446.448777 139.391947 
L 449.89801 139.681097 
L 453.357551 139.738985 
L 456.813654 139.56538 
L 460.252589 139.160971 
L 463.660694 138.527365 
L 467.024427 137.66708 
L 470.330425 136.583534 
L 473.565554 135.281031 
L 476.716959 133.764746 
L 479.772121 132.040704 
L 482.718901 130.115753 
L 485.545593 127.997543 
L 488.240965 125.694488 
L 490.794309 123.215738 
L 493.19548 120.571141 
L 495.43494 117.771205 
L 497.50379 114.827053 
L 499.393811 111.750382 
L 501.097494 108.553417 
L 502.60807 105.248858 
L 503.919538 101.849834 
L 505.026687 98.36985 
L 505.925119 94.822731 
L 506.611265 91.222571 
L 507.082397 87.583671 
L 507.336645 83.920491 
L 507.385118 81.472066 
L 507.385118 81.472066 
" clip-path="url(#p6e21f2ace0)" style="fill: none; stroke: #ff0000; stroke-width: 0.72; stroke-linejoin: miter"/>
   </g>
   <g id="line2d_7">
    <path d="M 69.534408 81.472066 
L 828.421744 81.472066 
" clip-path="url(#p6e21f2ace0)" style="fill: none; stroke: #ffffff; stroke-width: 0.72; stroke-linecap: square"/>
   </g>
   <g id="line2d_8">
    <path d="M 218.557464 81.472066 
L 234.296956 81.472066 
" clip-path="url(#p6e21f2ace0)" style="fill: none; stroke: #ffffff; stroke-width: 0.72; stroke-linecap: square"/>
   </g>
   <g id="patch_11">
    <path d="M 226.42721 74.913945 
L 232.985332 81.472066 
L 226.42721 88.030188 
L 219.869088 81.472066 
L 226.42721 74.913945 
" clip-path="url(#p6e21f2ace0)" style="fill: none; stroke: #ff0000; stroke-width: 0.72; stroke-linejoin: miter"/>
   </g>
   <g id="line2d_9">
    <path d="M 441.10833 81.472066 
L 456.847822 81.472066 
" clip-path="url(#p6e21f2ace0)" style="fill: none; stroke: #ffffff; stroke-width: 0.72; stroke-linecap: square"/>
   </g>
   <g id="patch_12">
    <path d="M 448.978076 74.913945 
L 455.536198 81.472066 
L 448.978076 88.030188 
L 442.419955 81.472066 
L 448.978076 74.913945 
" clip-path="url(#p6e21f2ace0)" style="fill: none; stroke: #ff0000; stroke-width: 0.72; stroke-linejoin: miter"/>
   </g>
   <g id="line2d_10">
    <path d="M 663.659196 81.472066 
L 679.398688 81.472066 
" clip-path="url(#p6e21f2ace0)" style="fill: none; stroke: #ffffff; stroke-width: 0.72; stroke-linecap: square"/>
   </g>
   <g id="patch_13">
    <path d="M 671.528942 74.913945 
L 678.087064 81.472066 
L 671.528942 88.030188 
L 664.970821 81.472066 
L 671.528942 74.913945 
" clip-path="url(#p6e21f2ace0)" style="fill: none; stroke: #ff0000; stroke-width: 0.72; stroke-linejoin: miter"/>
   </g>
   <g id="line2d_11">
    <path d="M 52.447985 107.662979 
L 1098.686118 174.953439 
" clip-path="url(#p6e21f2ace0)" style="fill: none; stroke: #ffffff; stroke-width: 0.72; stroke-linecap: square"/>
   </g>
   <g id="line2d_12">
    <path d="M 258.94688 120.944282 
L 274.653918 121.954505 
" clip-path="url(#p6e21f2ace0)" style="fill: none; stroke: #ffffff; stroke-width: 0.72; stroke-linecap: square"/>
   </g>
   <g id="patch_14">
    <path d="M 267.221325 114.904794 
L 273.344998 121.870319 
L 266.379473 127.993992 
L 260.2558 121.028467 
L 267.221325 114.904794 
" clip-path="url(#p6e21f2ace0)" style="fill: none; stroke: #ff0000; stroke-width: 0.72; stroke-linejoin: miter"/>
   </g>
   <g id="line2d_13">
    <path d="M 516.252424 137.493294 
L 531.959462 138.503517 
" clip-path="url(#p6e21f2ace0)" style="fill: none; stroke: #ffffff; stroke-width: 0.72; stroke-linecap: square"/>
   </g>
   <g id="patch_15">
    <path d="M 524.526869 131.453807 
L 530.650542 138.419332 
L 523.685016 144.543005 
L 517.561344 137.57748 
L 524.526869 131.453807 
" clip-path="url(#p6e21f2ace0)" style="fill: none; stroke: #ff0000; stroke-width: 0.72; stroke-linejoin: miter"/>
   </g>
   <g id="line2d_14">
    <path d="M 452.492451 23.19791 
L 452.492451 21.886285 
" clip-path="url(#p6e21f2ace0)" style="fill: none; stroke: #ff0000; stroke-width: 0.72; stroke-linecap: square"/>
   </g>
   <g id="line2d_15">
    <path d="M 452.492451 139.746222 
L 452.492451 141.057847 
" clip-path="url(#p6e21f2ace0)" style="fill: none; stroke: #ff0000; stroke-width: 0.72; stroke-linecap: square"/>
   </g>
   <g id="line2d_16">
    <path d="M 507.385118 81.472066 
L 508.696742 81.472066 
" clip-path="url(#p6e21f2ace0)" style="fill: none; stroke: #ff0000; stroke-width: 0.72; stroke-linecap: square"/>
   </g>
   <g id="line2d_17">
    <path d="M 397.599783 81.472066 
L 396.288159 81.472066 
" clip-path="url(#p6e21f2ace0)" style="fill: none; stroke: #ff0000; stroke-width: 0.72; stroke-linecap: square"/>
   </g>
   <g id="line2d_18">
    <path d="M 255.748805 149.911013 
L 255.748805 17.243627 
" clip-path="url(#p6e21f2ace0)" style="fill: none; stroke: #ffffff; stroke-width: 0.72; stroke-linecap: square"/>
   </g>
   <g id="line2d_19">
    <path d="M 255.748805 108.789506 
L 255.748805 93.050015 
" clip-path="url(#p6e21f2ace0)" style="fill: none; stroke: #ffffff; stroke-width: 0.72; stroke-linecap: square"/>
   </g>
   <g id="patch_16">
    <path d="M 249.190683 100.919761 
L 255.748805 94.361639 
L 262.306926 100.919761 
L 255.748805 107.477882 
L 249.190683 100.919761 
" clip-path="url(#p6e21f2ace0)" style="fill: none; stroke: #ff0000; stroke-width: 0.72; stroke-linejoin: miter"/>
   </g>
   <g id="line2d_20">
    <path d="M 255.748805 74.104625 
L 255.748805 58.365134 
" clip-path="url(#p6e21f2ace0)" style="fill: none; stroke: #ffffff; stroke-width: 0.72; stroke-linecap: square"/>
   </g>
   <g id="patch_17">
    <path d="M 249.190683 66.234879 
L 255.748805 59.676758 
L 262.306926 66.234879 
L 255.748805 72.793001 
L 249.190683 66.234879 
" clip-path="url(#p6e21f2ace0)" style="fill: none; stroke: #ff0000; stroke-width: 0.72; stroke-linejoin: miter"/>
   </g>
   <g id="line2d_21">
    <path d="M 845.979742 158.038181 
L 845.979742 85.937528 
" clip-path="url(#p6e21f2ace0)" style="fill: none; stroke: #ffffff; stroke-width: 0.72; stroke-linecap: square"/>
   </g>
   <g id="line2d_22">
    <path d="M 845.979742 138.115031 
L 845.979742 122.375539 
" clip-path="url(#p6e21f2ace0)" style="fill: none; stroke: #ffffff; stroke-width: 0.72; stroke-linecap: square"/>
   </g>
   <g id="patch_18">
    <path d="M 839.421621 130.245285 
L 845.979742 123.687163 
L 852.537864 130.245285 
L 845.979742 136.803406 
L 839.421621 130.245285 
" clip-path="url(#p6e21f2ace0)" style="fill: none; stroke: #ff0000; stroke-width: 0.72; stroke-linejoin: miter"/>
   </g>
   <g id="line2d_23">
    <path d="M 845.979742 121.60017 
L 845.979742 105.860678 
" clip-path="url(#p6e21f2ace0)" style="fill: none; stroke: #ffffff; stroke-width: 0.72; stroke-linecap: square"/>
   </g>
   <g id="patch_19">
    <path d="M 839.421621 113.730424 
L 845.979742 107.172302 
L 852.537864 113.730424 
L 845.979742 120.288545 
L 839.421621 113.730424 
" clip-path="url(#p6e21f2ace0)" style="fill: none; stroke: #ff0000; stroke-width: 0.72; stroke-linejoin: miter"/>
   </g>
   <g id="patch_20">
    <path d="M 347.357416 120.92334 
L 347.357416 127.481462 
L 353.915537 127.481462 
L 353.915537 120.92334 
L 353.915537 134.039583 
" clip-path="url(#p6e21f2ace0)" style="fill: none; stroke: #ff0000; stroke-width: 0.72; stroke-linejoin: miter"/>
   </g>
   <g id="patch_21">
    <path d="M 357.194598 120.92334 
L 363.75272 120.92334 
L 363.75272 127.481462 
L 357.194598 127.481462 
L 363.75272 127.481462 
L 363.75272 134.039583 
L 357.194598 134.039583 
" clip-path="url(#p6e21f2ace0)" style="fill: none; stroke: #ff0000; stroke-width: 0.72; stroke-linejoin: miter"/>
   </g>
  </g>
 </g>
 <defs>
  <clipPath id="p6e21f2ace0">
   <rect x="0" y="0" width="1152" height="184.448864"/>
  </clipPath>
 </defs>
</svg>
