  0
SECTION
  2
HEADER
  9
$ACADVER
  1
AC1021
  9
$ACADMAINTVER
 70
25
  9
$DWGCODEPAGE
  3
ANSI_1252
  9
$LASTSAVEDBY
  1
ezdxf
  9
$INSBASE
 10
0.0
 20
0.0
 30
0.0
  9
$EXTMIN
 10
1e+20
 20
1e+20
 30
1e+20
  9
$EXTMAX
 10
-1e+20
 20
-1e+20
 30
-1e+20
  9
$LIMMIN
 10
0.0
 20
0.0
  9
$LIMMAX
 10
420.0
 20
297.0
  9
$ORTHOMODE
 70
0
  9
$REGENMODE
 70
1
  9
$FILLMODE
 70
1
  9
$QTEXTMODE
 70
0
  9
$MIRRTEXT
 70
1
  9
$LTSCALE
 40
1.0
  9
$ATTMODE
 70
1
  9
$TEXTSIZE
 40
2.5
  9
$TRACEWID
 40
1.0
  9
$TEXTSTYLE
  7
OpenSans
  9
$CLAYER
  8
0
  9
$CELTYPE
  6
ByLayer
  9
$CECOLOR
 62
256
  9
$CELTSCALE
 40
1.0
  9
$DISPSILH
 70
0
  9
$DIMSCALE
 40
1.0
  9
$DIMASZ
 40
0.175
  9
$DIMEXO
 40
0.125
  9
$DIMDLI
 40
3.75
  9
$DIMRND
 40
0.0
  9
$DIMDLE
 40
0.0
  9
$DIMEXE
 40
0.375
  9
$DIMTP
 40
0.0
  9
$DIMTM
 40
0.0
  9
$DIMTXT
 40
0.25
  9
$DIMCEN
 40
2.5
  9
$DIMTSZ
 40
0.0
  9
$DIMTOL
 70
0
  9
$DIMLIM
 70
0
  9
$DIMTIH
 70
0
  9
$DIMTOH
 70
0
  9
$DIMSE1
 70
0
  9
$DIMSE2
 70
0
  9
$DIMTAD
 70
1
  9
$DIMZIN
 70
12
  9
$DIMBLK
  1
ARCHTICK
  9
$DIMASO
 70
1
  9
$DIMSHO
 70
1
  9
$DIMPOST
  1

  9
$DIMAPOST
  1

  9
$DIMALT
 70
0
  9
$DIMALTD
 70
3
  9
$DIMALTF
 40
0.03937007874
  9
$DIMLFAC
 40
100.0
  9
$DIMTOFL
 70
1
  9
$DIMTVP
 40
0.0
  9
$DIMTIX
 70
0
  9
$DIMSOXD
 70
0
  9
$DIMSAH
 70
0
  9
$DIMBLK1
  1

  9
$DIMBLK2
  1

  9
$DIMSTYLE
  2
EZDXF
  9
$DIMCLRD
 70
0
  9
$DIMCLRE
 70
0
  9
$DIMCLRT
 70
0
  9
$DIMTFAC
 40
0.5
  9
$DIMGAP
 40
0.1
  9
$DIMJUST
 70
0
  9
$DIMSD1
 70
0
  9
$DIMSD2
 70
0
  9
$DIMTOLJ
 70
0
  9
$DIMTZIN
 70
8
  9
$DIMALTZ
 70
0
  9
$DIMALTTZ
 70
0
  9
$DIMUPT
 70
1
  9
$DIMDEC
 70
2
  9
$DIMTDEC
 70
2
  9
$DIMALTU
 70
2
  9
$DIMALTTD
 70
3
  9
$DIMTXSTY
  7
OpenSansCondensed-Light
  9
$DIMAUNIT
 70
0
  9
$DIMADEC
 70
2
  9
$DIMALTRND
 40
0.0
  9
$DIMAZIN
 70
3
  9
$DIMDSEP
 70
46
  9
$DIMATFIT
 70
3
  9
$DIMFRAC
 70
0
  9
$DIMLDRBLK
  1

  9
$DIMLUNIT
 70
2
  9
$DIMLWD
 70
-2
  9
$DIMLWE
 70
-2
  9
$DIMTMOVE
 70
2
  9
$DIMFXL
 40
1.0
  9
$DIMFXLON
 70
0
  9
$DIMJOGANG
 40
0.785398163397
  9
$DIMTFILL
 70
0
  9
$DIMTFILLCLR
 70
0
  9
$DIMARCSYM
 70
0
  9
$DIMLTYPE
  6

  9
$DIMLTEX1
  6

  9
$DIMLTEX2
  6

  9
$LUNITS
 70
2
  9
$LUPREC
 70
4
  9
$SKETCHINC
 40
1.0
  9
$FILLETRAD
 40
10.0
  9
$AUNITS
 70
0
  9
$AUPREC
 70
2
  9
$MENU
  1
.
  9
$ELEVATION
 40
0.0
  9
$PELEVATION
 40
0.0
  9
$THICKNESS
 40
0.0
  9
$LIMCHECK
 70
0
  9
$CHAMFERA
 40
0.0
  9
$CHAMFERB
 40
0.0
  9
$CHAMFERC
 40
0.0
  9
$CHAMFERD
 40
0.0
  9
$SKPOLY
 70
0
  9
$TDCREATE
 40
2461048.0884722224
  9
$TDUCREATE
 40
2458532.153996898
  9
$TDUPDATE
 40
2461048.0884722224
  9
$TDUUPDATE
 40
2458532.1544311
  9
$TDINDWG
 40
0.0
  9
$TDUSRTIMER
 40
0.0
  9
$USRTIMER
 70
1
  9
$ANGBASE
 50
0.0
  9
$ANGDIR
 70
0
  9
$PDMODE
 70
0
  9
$PDSIZE
 40
0.0
  9
$PLINEWID
 40
0.0
  9
$SPLFRAME
 70
0
  9
$SPLINETYPE
 70
6
  9
$SPLINESEGS
 70
8
  9
$HANDSEED
  5
BF
  9
$SURFTAB1
 70
6
  9
$SURFTAB2
 70
6
  9
$SURFTYPE
 70
6
  9
$SURFU
 70
6
  9
$SURFV
 70
6
  9
$UCSBASE
  2

  9
$UCSNAME
  2

  9
$UCSORG
 10
0.0
 20
0.0
 30
0.0
  9
$UCSXDIR
 10
1.0
 20
0.0
 30
0.0
  9
$UCSYDIR
 10
0.0
 20
1.0
 30
0.0
  9
$UCSORTHOREF
  2

  9
$UCSORTHOVIEW
 70
0
  9
$UCSORGTOP
 10
0.0
 20
0.0
 30
0.0
  9
$UCSORGBOTTOM
 10
0.0
 20
0.0
 30
0.0
  9
$UCSORGLEFT
 10
0.0
 20
0.0
 30
0.0
  9
$UCSORGRIGHT
 10
0.0
 20
0.0
 30
0.0
  9
$UCSORGFRONT
 10
0.0
 20
0.0
 30
0.0
  9
$UCSORGBACK
 10
0.0
 20
0.0
 30
0.0
  9
$PUCSBASE
  2

  9
$PUCSNAME
  2

  9
$PUCSORG
 10
0.0
 20
0.0
 30
0.0
  9
$PUCSXDIR
 10
1.0
 20
0.0
 30
0.0
  9
$PUCSYDIR
 10
0.0
 20
1.0
 30
0.0
  9
$PUCSORTHOREF
  2

  9
$PUCSORTHOVIEW
 70
0
  9
$PUCSORGTOP
 10
0.0
 20
0.0
 30
0.0
  9
$PUCSORGBOTTOM
 10
0.0
 20
0.0
 30
0.0
  9
$PUCSORGLEFT
 10
0.0
 20
0.0
 30
0.0
  9
$PUCSORGRIGHT
 10
0.0
 20
0.0
 30
0.0
  9
$PUCSORGFRONT
 10
0.0
 20
0.0
 30
0.0
  9
$PUCSORGBACK
 10
0.0
 20
0.0
 30
0.0
  9
$USERI1
 70
0
  9
$USERI2
 70
0
  9
$USERI3
 70
0
  9
$USERI4
 70
0
  9
$USERI5
 70
0
  9
$USERR1
 40
0.0
  9
$USERR2
 40
0.0
  9
$USERR3
 40
0.0
  9
$USERR4
 40
0.0
  9
$USERR5
 40
0.0
  9
$WORLDVIEW
 70
1
  9
$SHADEDGE
 70
3
  9
$SHADEDIF
 70
70
  9
$TILEMODE
 70
1
  9
$MAXACTVP
 70
64
  9
$PINSBASE
 10
0.0
 20
0.0
 30
0.0
  9
$PLIMCHECK
 70
0
  9
$PEXTMIN
 10
1e+20
 20
1e+20
 30
1e+20
  9
$PEXTMAX
 10
-1e+20
 20
-1e+20
 30
-1e+20
  9
$PLIMMIN
 10
0.0
 20
0.0
  9
$PLIMMAX
 10
420.0
 20
297.0
  9
$UNITMODE
 70
0
  9
$VISRETAIN
 70
1
  9
$PLINEGEN
 70
0
  9
$PSLTSCALE
 70
1
  9
$TREEDEPTH
 70
3020
  9
$CMLSTYLE
  2
Standard
  9
$CMLJUST
 70
0
  9
$CMLSCALE
 40
20.0
  9
$PROXYGRAPHICS
 70
1
  9
$MEASUREMENT
 70
1
  9
$CELWEIGHT
370
-1
  9
$ENDCAPS
280
0
  9
$JOINSTYLE
280
0
  9
$LWDISPLAY
290
0
  9
$INSUNITS
 70
6
  9
$HYPERLINKBASE
  1

  9
$STYLESHEET
  1

  9
$XEDIT
290
1
  9
$CEPSNTYPE
380
0
  9
$PSTYLEMODE
290
1
  9
$FINGERPRINTGUID
  2
{A7789303-E96E-4F92-A0C7-BCB69F9DF221}
  9
$VERSIONGUID
  2
{5160C24E-AAAD-410C-89CF-DA1F66E9ECCE}
  9
$EXTNAMES
290
1
  9
$PSVPSCALE
 40
0.0
  9
$OLESTARTUP
290
0
  9
$SORTENTS
280
127
  9
$INDEXCTL
280
0
  9
$HIDETEXT
280
1
  9
$XCLIPFRAME
290
1
  9
$HALOGAP
280
0
  9
$OBSCOLOR
 70
257
  9
$OBSLTYPE
280
0
  9
$INTERSECTIONDISPLAY
280
0
  9
$INTERSECTIONCOLOR
 70
257
  9
$DIMASSOC
280
2
  9
$PROJECTNAME
  1

  9
$CAMERADISPLAY
290
0
  9
$LENSLENGTH
 40
50.0
  9
$CAMERAHEIGHT
 40
0.0
  9
$STEPSPERSEC
 40
24.0
  9
$STEPSIZE
 40
100.0
  9
$3DDWFPREC
 40
2.0
  9
$PSOLWIDTH
 40
0.005
  9
$PSOLHEIGHT
 40
0.08
  9
$LOFTANG1
 40
1.570796326795
  9
$LOFTANG2
 40
1.570796326795
  9
$LOFTMAG1
 40
0.0
  9
$LOFTMAG2
 40
0.0
  9
$LOFTPARAM
 70
7
  9
$LOFTNORMALS
280
1
  9
$LATITUDE
 40
37.795
  9
$LONGITUDE
 40
-122.394
  9
$NORTHDIRECTION
 40
0.0
  9
$TIMEZONE
 70
-8000
  9
$LIGHTGLYPHDISPLAY
280
1
  9
$TILEMODELIGHTSYNCH
280
1
  9
$CMATERIAL
347
20
  9
$SOLIDHIST
280
0
  9
$SHOWHIST
280
1
  9
$DWFFRAME
280
2
  9
$DGNFRAME
280
2
  9
$REALWORLDSCALE
290
1
  9
$INTERFERECOLOR
 62
256
  9
$CSHADOW
280
0
  9
$SHADOWPLANELOCATION
 40
0.0
  0
ENDSEC
  0
SECTION
  2
CLASSES
  0
CLASS
  1
ACDBDICTIONARYWDFLT
  2
AcDbDictionaryWithDefault
  3
ObjectDBX Classes
 90
0
 91
0
280
0
281
0
  0
CLASS
  1
SUN
  2
AcDbSun
  3
SCENEOE
 90
1153
 91
0
280
0
281
0
  0
CLASS
  1
VISUALSTYLE
  2
AcDbVisualStyle
  3
ObjectDBX Classes
 90
4095
 91
0
280
0
281
0
  0
CLASS
  1
MATERIAL
  2
AcDbMaterial
  3
ObjectDBX Classes
 90
1153
 91
0
280
0
281
0
  0
CLASS
  1
SCALE
  2
AcDbScale
  3
ObjectDBX Classes
 90
1153
 91
0
280
0
281
0
  0
CLASS
  1
TABLESTYLE
  2
AcDbTableStyle
  3
ObjectDBX Classes
 90
4095
 91
0
280
0
281
0
  0
CLASS
  1
MLEADERSTYLE
  2
AcDbMLeaderStyle
  3
ACDB_MLEADERSTYLE_CLASS
 90
4095
 91
0
280
0
281
0
  0
CLASS
  1
DICTIONARYVAR
  2
AcDbDictionaryVar
  3
ObjectDBX Classes
 90
0
 91
0
280
0
281
0
  0
CLASS
  1
CELLSTYLEMAP
  2
AcDbCellStyleMap
  3
ObjectDBX Classes
 90
1152
 91
0
280
0
281
0
  0
CLASS
  1
MENTALRAYRENDERSETTINGS
  2
AcDbMentalRayRenderSettings
  3
SCENEOE
 90
1024
 91
0
280
0
281
0
  0
CLASS
  1
ACDBDETAILVIEWSTYLE
  2
AcDbDetailViewStyle
  3
ObjectDBX Classes
 90
1025
 91
0
280
0
281
0
  0
CLASS
  1
ACDBSECTIONVIEWSTYLE
  2
AcDbSectionViewStyle
  3
ObjectDBX Classes
 90
1025
 91
0
280
0
281
0
  0
CLASS
  1
RASTERVARIABLES
  2
AcDbRasterVariables
  3
ISM
 90
0
 91
0
280
0
281
0
  0
CLASS
  1
ACDBPLACEHOLDER
  2
AcDbPlaceHolder
  3
ObjectDBX Classes
 90
0
 91
0
280
0
281
0
  0
CLASS
  1
LAYOUT
  2
AcDbLayout
  3
ObjectDBX Classes
 90
0
 91
0
280
0
281
0
  0
ENDSEC
  0
SECTION
  2
TABLES
  0
TABLE
  2
VPORT
  5
8
330
0
100
AcDbSymbolTable
 70
1
  0
VPORT
  5
23
330
8
100
AcDbSymbolTableRecord
100
AcDbViewportTableRecord
  2
*Active
 70
0
 10
0.0
 20
0.0
 11
1.0
 21
1.0
 12
0.0
 22
0.0
 13
0.0
 23
0.0
 14
0.5
 24
0.5
 15
0.5
 25
0.5
 16
0.0
 26
0.0
 36
1.0
 17
0.0
 27
0.0
 37
0.0
 40
1000.0
 41
1.34
 42
50.0
 43
0.0
 44
0.0
 50
0.0
 51
0.0
 71
0
 72
1000
 73
1
 74
3
 75
0
 76
0
 77
0
 78
0
281
0
 65
0
146
0.0
  0
ENDTAB
  0
TABLE
  2
LTYPE
  5
2
330
0
100
AcDbSymbolTable
 70
21
  0
LTYPE
  5
24
330
2
100
AcDbSymbolTableRecord
100
AcDbLinetypeTableRecord
  2
ByBlock
 70
0
  3

 72
65
 73
0
 40
0.0
  0
LTYPE
  5
25
330
2
100
AcDbSymbolTableRecord
100
AcDbLinetypeTableRecord
  2
ByLayer
 70
0
  3

 72
65
 73
0
 40
0.0
  0
LTYPE
  5
26
330
2
100
AcDbSymbolTableRecord
100
AcDbLinetypeTableRecord
  2
Continuous
 70
0
  3

 72
65
 73
0
 40
0.0
  0
LTYPE
  5
2F
330
2
100
AcDbSymbolTableRecord
100
AcDbLinetypeTableRecord
  2
CENTER
 70
0
  3
Center ____ _ ____ _ ____ _ ____ _ ____ _ ____
 72
65
 73
4
 40
5.08
 49
3.175
 74
0
 49
-0.635
 74
0
 49
0.635
 74
0
 49
-0.635
 74
0
  0
LTYPE
  5
30
330
2
100
AcDbSymbolTableRecord
100
AcDbLinetypeTableRecord
  2
CENTERX2
 70
0
  3
Center (2x) ________  __  ________  __  ________
 72
65
 73
4
 40
8.89
 49
6.35
 74
0
 49
-0.635
 74
0
 49
1.27
 74
0
 49
-0.635
 74
0
  0
LTYPE
  5
31
330
2
100
AcDbSymbolTableRecord
100
AcDbLinetypeTableRecord
  2
CENTER2
 70
0
  3
Center (.5x) ____ _ ____ _ ____ _ ____ _ ____
 72
65
 73
4
 40
2.54
 49
1.587
 74
0
 49
-0.318
 74
0
 49
0.318
 74
0
 49
-0.318
 74
0
  0
LTYPE
  5
32
330
2
100
AcDbSymbolTableRecord
100
AcDbLinetypeTableRecord
  2
DASHED
 70
0
  3
Dashed __ __ __ __ __ __ __ __ __ __ __ __ __ _
 72
65
 73
2
 40
1.524
 49
1.27
 74
0
 49
-0.254
 74
0
  0
LTYPE
  5
33
330
2
100
AcDbSymbolTableRecord
100
AcDbLinetypeTableRecord
  2
DASHEDX2
 70
0
  3
Dashed (2x) ____  ____  ____  ____  ____  ____
 72
65
 73
2
 40
3.048
 49
2.54
 74
0
 49
-0.508
 74
0
  0
LTYPE
  5
34
330
2
100
AcDbSymbolTableRecord
100
AcDbLinetypeTableRecord
  2
DASHED2
 70
0
  3
Dashed (.5x) _ _ _ _ _ _ _ _ _ _ _ _ _ _
 72
65
 73
2
 40
0.762
 49
0.635
 74
0
 49
-0.127
 74
0
  0
LTYPE
  5
35
330
2
100
AcDbSymbolTableRecord
100
AcDbLinetypeTableRecord
  2
PHANTOM
 70
0
  3
Phantom ______  __  __  ______  __  __  ______
 72
65
 73
6
 40
6.35
 49
3.175
 74
0
 49
-0.635
 74
0
 49
0.635
 74
0
 49
-0.635
 74
0
 49
0.635
 74
0
 49
-0.635
 74
0
  0
LTYPE
  5
36
330
2
100
AcDbSymbolTableRecord
100
AcDbLinetypeTableRecord
  2
PHANTOMX2
 70
0
  3
Phantom (2x)____________    ____    ____    ____________
 72
65
 73
6
 40
10.795
 49
6.35
 74
0
 49
-0.635
 74
0
 49
1.27
 74
0
 49
-0.635
 74
0
 49
1.27
 74
0
 49
-0.635
 74
0
  0
LTYPE
  5
37
330
2
100
AcDbSymbolTableRecord
100
AcDbLinetypeTableRecord
  2
PHANTOM2
 70
0
  3
Phantom (.5x) ___ _ _ ___ _ _ ___ _ _ ___ _ _ ___
 72
65
 73
6
 40
3.175
 49
1.587
 74
0
 49
-0.318
 74
0
 49
0.318
 74
0
 49
-0.318
 74
0
 49
0.318
 74
0
 49
-0.318
 74
0
  0
LTYPE
  5
38
330
2
100
AcDbSymbolTableRecord
100
AcDbLinetypeTableRecord
  2
DASHDOT
 70
0
  3
Dash dot __ . __ . __ . __ . __ . __ . __ . __
 72
65
 73
4
 40
3.556
 49
2.54
 74
0
 49
-0.508
 74
0
 49
0.0
 74
0
 49
-0.508
 74
0
  0
LTYPE
  5
39
330
2
100
AcDbSymbolTableRecord
100
AcDbLinetypeTableRecord
  2
DASHDOTX2
 70
0
  3
Dash dot (2x) ____  .  ____  .  ____  .  ____
 72
65
 73
4
 40
6.096
 49
5.08
 74
0
 49
-0.508
 74
0
 49
0.0
 74
0
 49
-0.508
 74
0
  0
LTYPE
  5
3A
330
2
100
AcDbSymbolTableRecord
100
AcDbLinetypeTableRecord
  2
DASHDOT2
 70
0
  3
Dash dot (.5x) _ . _ . _ . _ . _ . _ . _ . _
 72
65
 73
4
 40
1.778
 49
1.27
 74
0
 49
-0.254
 74
0
 49
0.0
 74
0
 49
-0.254
 74
0
  0
LTYPE
  5
3B
330
2
100
AcDbSymbolTableRecord
100
AcDbLinetypeTableRecord
  2
DOT
 70
0
  3
Dot .  .  .  .  .  .  .  .  .  .  .  .  .  .  .  .
 72
65
 73
2
 40
0.508
 49
0.0
 74
0
 49
-0.508
 74
0
  0
LTYPE
  5
3C
330
2
100
AcDbSymbolTableRecord
100
AcDbLinetypeTableRecord
  2
DOTX2
 70
0
  3
Dot (2x) .    .    .    .    .    .    .    . 
 72
65
 73
2
 40
1.016
 49
0.0
 74
0
 49
-1.016
 74
0
  0
LTYPE
  5
3D
330
2
100
AcDbSymbolTableRecord
100
AcDbLinetypeTableRecord
  2
DOT2
 70
0
  3
Dot (.5) . . . . . . . . . . . . . . . . . . . 
 72
65
 73
2
 40
0.254
 49
0.0
 74
0
 49
-0.254
 74
0
  0
LTYPE
  5
3E
330
2
100
AcDbSymbolTableRecord
100
AcDbLinetypeTableRecord
  2
DIVIDE
 70
0
  3
Divide __ . . __ . . __ . . __ . . __ . . __
 72
65
 73
6
 40
4.064
 49
2.54
 74
0
 49
-0.508
 74
0
 49
0.0
 74
0
 49
-0.508
 74
0
 49
0.0
 74
0
 49
-0.508
 74
0
  0
LTYPE
  5
3F
330
2
100
AcDbSymbolTableRecord
100
AcDbLinetypeTableRecord
  2
DIVIDEX2
 70
0
  3
Divide (2x) ____  . .  ____  . .  ____  . .  ____
 72
65
 73
6
 40
6.604
 49
5.08
 74
0
 49
-0.508
 74
0
 49
0.0
 74
0
 49
-0.508
 74
0
 49
0.0
 74
0
 49
-0.508
 74
0
  0
LTYPE
  5
40
330
2
100
AcDbSymbolTableRecord
100
AcDbLinetypeTableRecord
  2
DIVIDE2
 70
0
  3
Divide(.5x) _ . _ . _ . _ . _ . _ . _ . _
 72
65
 73
6
 40
2.032
 49
1.27
 74
0
 49
-0.254
 74
0
 49
0.0
 74
0
 49
-0.254
 74
0
 49
0.0
 74
0
 49
-0.254
 74
0
  0
ENDTAB
  0
TABLE
  2
LAYER
  5
1
330
0
100
AcDbSymbolTable
 70
4
  0
LAYER
  5
27
330
1
100
AcDbSymbolTableRecord
100
AcDbLayerTableRecord
  2
0
 70
0
 62
7
  6
Continuous
370
-3
390
13
347
21
  0
LAYER
  5
28
330
1
100
AcDbSymbolTableRecord
100
AcDbLayerTableRecord
  2
Defpoints
 70
0
 62
7
  6
Continuous
290
0
370
-3
390
13
347
21
  0
LAYER
  5
8A
330
1
100
AcDbSymbolTableRecord
100
AcDbLayerTableRecord
  2
Layer
 70
0
 62
1
  6
Continuous
370
50
390
13
347
21
  0
LAYER
  5
8B
330
1
100
AcDbSymbolTableRecord
100
AcDbLayerTableRecord
  2
NumLabel
 70
0
 62
1
  6
Continuous
370
15
390
13
347
21
  0
ENDTAB
  0
TABLE
  2
STYLE
  5
5
330
0
100
AcDbSymbolTable
 70
26
  0
STYLE
  5
29
330
5
100
AcDbSymbolTableRecord
100
AcDbTextStyleTableRecord
  2
Standard
 70
0
 40
0.0
 41
1.0
 50
0.0
 71
0
 42
2.5
  3
txt
  4

  0
STYLE
  5
41
330
5
100
AcDbSymbolTableRecord
100
AcDbTextStyleTableRecord
  2
OpenSans-Light
 70
0
 40
0.0
 41
1.0
 50
0.0
 71
0
 42
2.5
  3
OpenSans-Light.ttf
  4

  0
STYLE
  5
42
330
5
100
AcDbSymbolTableRecord
100
AcDbTextStyleTableRecord
  2
OpenSans-Light-Italic
 70
0
 40
0.0
 41
1.0
 50
0.0
 71
0
 42
2.5
  3
OpenSans-LightItalic.ttf
  4

  0
STYLE
  5
43
330
5
100
AcDbSymbolTableRecord
100
AcDbTextStyleTableRecord
  2
OpenSans
 70
0
 40
0.0
 41
1.0
 50
0.0
 71
0
 42
2.5
  3
OpenSans-Regular.ttf
  4

  0
STYLE
  5
44
330
5
100
AcDbSymbolTableRecord
100
AcDbTextStyleTableRecord
  2
OpenSans-Italic
 70
0
 40
0.0
 41
1.0
 50
0.0
 71
0
 42
2.5
  3
OpenSans-Italic.ttf
  4

  0
STYLE
  5
45
330
5
100
AcDbSymbolTableRecord
100
AcDbTextStyleTableRecord
  2
OpenSans-SemiBold
 70
0
 40
0.0
 41
1.0
 50
0.0
 71
0
 42
2.5
  3
OpenSans-SemiBold.ttf
  4

  0
STYLE
  5
46
330
5
100
AcDbSymbolTableRecord
100
AcDbTextStyleTableRecord
  2
OpenSans-SemiBoldItalic
 70
0
 40
0.0
 41
1.0
 50
0.0
 71
0
 42
2.5
  3
OpenSans-SemiBoldItalic.ttf
  4

  0
STYLE
  5
47
330
5
100
AcDbSymbolTableRecord
100
AcDbTextStyleTableRecord
  2
OpenSans-Bold
 70
0
 40
0.0
 41
1.0
 50
0.0
 71
0
 42
2.5
  3
OpenSans-Bold.ttf
  4

  0
STYLE
  5
48
330
5
100
AcDbSymbolTableRecord
100
AcDbTextStyleTableRecord
  2
OpenSans-BoldItalic
 70
0
 40
0.0
 41
1.0
 50
0.0
 71
0
 42
2.5
  3
OpenSans-BoldItalic.ttf
  4

  0
STYLE
  5
49
330
5
100
AcDbSymbolTableRecord
100
AcDbTextStyleTableRecord
  2
OpenSans-ExtraBold
 70
0
 40
0.0
 41
1.0
 50
0.0
 71
0
 42
2.5
  3
OpenSans-ExtraBold.ttf
  4

  0
STYLE
  5
4A
330
5
100
AcDbSymbolTableRecord
100
AcDbTextStyleTableRecord
  2
OpenSans-ExtraBoldItalic
 70
0
 40
0.0
 41
1.0
 50
0.0
 71
0
 42
2.5
  3
OpenSans-ExtraBoldItalic.ttf
  4

  0
STYLE
  5
4B
330
5
100
AcDbSymbolTableRecord
100
AcDbTextStyleTableRecord
  2
OpenSansCondensed-Bold
 70
0
 40
0.0
 41
1.0
 50
0.0
 71
0
 42
2.5
  3
OpenSansCondensed-Bold.ttf
  4

  0
STYLE
  5
4C
330
5
100
AcDbSymbolTableRecord
100
AcDbTextStyleTableRecord
  2
OpenSansCondensed-Light
 70
0
 40
0.0
 41
1.0
 50
0.0
 71
0
 42
2.5
  3
OpenSansCondensed-Light.ttf
  4

  0
STYLE
  5
4D
330
5
100
AcDbSymbolTableRecord
100
AcDbTextStyleTableRecord
  2
OpenSansCondensed-Italic
 70
0
 40
0.0
 41
1.0
 50
0.0
 71
0
 42
2.5
  3
OpenSansCondensed-LightItalic.ttf
  4

  0
STYLE
  5
4E
330
5
100
AcDbSymbolTableRecord
100
AcDbTextStyleTableRecord
  2
LiberationSans
 70
0
 40
0.0
 41
1.0
 50
0.0
 71
0
 42
2.5
  3
LiberationSans-Regular.ttf
  4

  0
STYLE
  5
4F
330
5
100
AcDbSymbolTableRecord
100
AcDbTextStyleTableRecord
  2
LiberationSans-Bold
 70
0
 40
0.0
 41
1.0
 50
0.0
 71
0
 42
2.5
  3
LiberationSans-Bold.ttf
  4

  0
STYLE
  5
50
330
5
100
AcDbSymbolTableRecord
100
AcDbTextStyleTableRecord
  2
LiberationSans-BoldItalic
 70
0
 40
0.0
 41
1.0
 50
0.0
 71
0
 42
2.5
  3
LiberationSans-BoldItalic.ttf
  4

  0
STYLE
  5
51
330
5
100
AcDbSymbolTableRecord
100
AcDbTextStyleTableRecord
  2
LiberationSans-Italic
 70
0
 40
0.0
 41
1.0
 50
0.0
 71
0
 42
2.5
  3
LiberationSans-Italic.ttf
  4

  0
STYLE
  5
52
330
5
100
AcDbSymbolTableRecord
100
AcDbTextStyleTableRecord
  2
LiberationSerif
 70
0
 40
0.0
 41
1.0
 50
0.0
 71
0
 42
2.5
  3
LiberationSerif-Regular.ttf
  4

  0
STYLE
  5
53
330
5
100
AcDbSymbolTableRecord
100
AcDbTextStyleTableRecord
  2
LiberationSerif-Bold
 70
0
 40
0.0
 41
1.0
 50
0.0
 71
0
 42
2.5
  3
LiberationSerif-Bold.ttf
  4

  0
STYLE
  5
54
330
5
100
AcDbSymbolTableRecord
100
AcDbTextStyleTableRecord
  2
LiberationSerif-BoldItalic
 70
0
 40
0.0
 41
1.0
 50
0.0
 71
0
 42
2.5
  3
LiberationSerif-BoldItalic.ttf
  4

  0
STYLE
  5
55
330
5
100
AcDbSymbolTableRecord
100
AcDbTextStyleTableRecord
  2
LiberationSerif-Italic
 70
0
 40
0.0
 41
1.0
 50
0.0
 71
0
 42
2.5
  3
LiberationSerif-Italic.ttf
  4

  0
STYLE
  5
56
330
5
100
AcDbSymbolTableRecord
100
AcDbTextStyleTableRecord
  2
LiberationMono
 70
0
 40
0.0
 41
1.0
 50
0.0
 71
0
 42
2.5
  3
LiberationMono-Regular.ttf
  4

  0
STYLE
  5
57
330
5
100
AcDbSymbolTableRecord
100
AcDbTextStyleTableRecord
  2
LiberationMono-Bold
 70
0
 40
0.0
 41
1.0
 50
0.0
 71
0
 42
2.5
  3
LiberationMono-Bold.ttf
  4

  0
STYLE
  5
58
330
5
100
AcDbSymbolTableRecord
100
AcDbTextStyleTableRecord
  2
LiberationMono-BoldItalic
 70
0
 40
0.0
 41
1.0
 50
0.0
 71
0
 42
2.5
  3
LiberationMono-BoldItalic.ttf
  4

  0
STYLE
  5
59
330
5
100
AcDbSymbolTableRecord
100
AcDbTextStyleTableRecord
  2
LiberationMono-Italic
 70
0
 40
0.0
 41
1.0
 50
0.0
 71
0
 42
2.5
  3
LiberationMono-Italic.ttf
  4

  0
ENDTAB
  0
TABLE
  2
VIEW
  5
7
330
0
100
AcDbSymbolTable
 70
0
  0
ENDTAB
  0
TABLE
  2
UCS
  5
6
330
0
100
AcDbSymbolTable
 70
0
  0
ENDTAB
  0
TABLE
  2
APPID
  5
3
330
0
100
AcDbSymbolTable
 70
3
  0
APPID
  5
2A
330
3
100
AcDbSymbolTableRecord
100
AcDbRegAppTableRecord
  2
ACAD
 70
0
  0
APPID
  5
BC
330
3
100
AcDbSymbolTableRecord
100
AcDbRegAppTableRecord
  2
HATCHBACKGROUNDCOLOR
 70
0
  0
APPID
  5
BD
330
3
100
AcDbSymbolTableRecord
100
AcDbRegAppTableRecord
  2
EZDXF
 70
0
  0
ENDTAB
  0
TABLE
  2
DIMSTYLE
  5
4
330
0
100
AcDbSymbolTable
 70
12
100
AcDbDimStyleTable
  0
DIMSTYLE
105
2B
330
4
100
AcDbSymbolTableRecord
100
AcDbDimStyleTableRecord
  2
Standard
 70
0
 40
1.0
 41
2.5
 42
0.625
 43
3.75
 44
1.25
 45
0.0
 46
0.0
 47
0.0
 48
0.0
 49
2.5
140
2.5
141
2.5
142
0.0
143
0.03937007874
144
1.0
145
0.0
146
1.0
147
0.625
148
0.0
 69
0
 70
0
 71
0
 72
0
 73
0
 74
0
 75
0
 76
0
 77
1
 78
8
 79
3
170
0
171
3
172
1
173
0
174
0
175
0
176
0
177
0
178
0
179
2
271
2
272
2
273
2
274
3
275
0
276
0
277
2
278
44
279
0
280
0
281
0
282
0
283
0
284
8
285
0
286
0
288
0
289
3
290
0
371
-2
372
-2
  0
DIMSTYLE
105
73
330
4
100
AcDbSymbolTableRecord
100
AcDbDimStyleTableRecord
  2
EZDXF
 70
0
 40
1.0
 41
0.175
 42
0.125
 43
3.75
 44
0.375
 45
0.0
 46
0.0
 47
0.0
 48
0.0
 49
2.5
140
0.25
141
2.5
142
0.0
143
0.03937007874
144
100.0
145
0.0
146
0.5
147
0.1
148
0.0
 69
0
 70
0
 71
0
 72
0
 73
0
 74
0
 75
0
 76
0
 77
1
 78
12
 79
3
170
0
171
3
172
1
173
0
174
0
175
0
176
0
177
0
178
0
179
2
271
2
272
2
273
2
274
3
275
0
276
0
277
2
278
46
279
2
280
0
281
0
282
0
283
0
284
8
285
0
286
0
288
1
289
3
290
0
340
4C
342
74
371
-2
372
-2
  0
DIMSTYLE
105
7C
330
4
100
AcDbSymbolTableRecord
100
AcDbDimStyleTableRecord
  2
EZ_M_100_H25_CM
 70
0
 40
1.0
 41
0.25
 42
0.125
 43
3.75
 44
0.375
 45
0.0
 46
0.0
 47
0.0
 48
0.0
 49
2.5
140
0.25
141
2.5
142
0.125
143
0.03937007874
144
100.0
145
0.0
146
0.5
147
0.1
148
0.0
 69
0
 70
0
 71
0
 72
0
 73
0
 74
0
 75
0
 76
0
 77
1
 78
12
 79
3
170
0
171
3
172
1
173
0
174
0
175
0
176
0
177
0
178
0
179
2
271
2
272
2
273
2
274
3
275
0
276
0
277
2
278
46
279
2
280
0
281
0
282
0
283
0
284
8
285
0
286
0
288
1
289
3
290
0
340
4C
371
-2
372
-2
  0
DIMSTYLE
105
7D
330
4
100
AcDbSymbolTableRecord
100
AcDbDimStyleTableRecord
  2
EZ_M_50_H25_CM
 70
0
 40
1.0
 41
0.125
 42
0.0625
 43
3.75
 44
0.1875
 45
0.0
 46
0.0
 47
0.0
 48
0.0
 49
2.5
140
0.125
141
2.5
142
0.0625
143
0.03937007874
144
100.0
145
0.0
146
0.5
147
0.05
148
0.0
 69
0
 70
0
 71
0
 72
0
 73
0
 74
0
 75
0
 76
0
 77
1
 78
12
 79
3
170
0
171
3
172
1
173
0
174
0
175
0
176
0
177
0
178
0
179
2
271
2
272
2
273
2
274
3
275
0
276
0
277
2
278
46
279
2
280
0
281
0
282
0
283
0
284
8
285
0
286
0
288
1
289
3
290
0
340
4C
371
-2
372
-2
  0
DIMSTYLE
105
7E
330
4
100
AcDbSymbolTableRecord
100
AcDbDimStyleTableRecord
  2
EZ_M_25_H25_CM
 70
0
 40
1.0
 41
0.0625
 42
0.03125
 43
3.75
 44
0.09375
 45
0.0
 46
0.0
 47
0.0
 48
0.0
 49
2.5
140
0.0625
141
2.5
142
0.03125
143
0.03937007874
144
100.0
145
0.0
146
0.5
147
0.025
148
0.0
 69
0
 70
0
 71
0
 72
0
 73
0
 74
0
 75
0
 76
0
 77
1
 78
12
 79
3
170
0
171
3
172
1
173
0
174
0
175
0
176
0
177
0
178
0
179
2
271
2
272
2
273
2
274
3
275
0
276
0
277
2
278
46
279
2
280
0
281
0
282
0
283
0
284
8
285
0
286
0
288
1
289
3
290
0
340
4C
371
-2
372
-2
  0
DIMSTYLE
105
7F
330
4
100
AcDbSymbolTableRecord
100
AcDbDimStyleTableRecord
  2
EZ_M_20_H25_CM
 70
0
 40
1.0
 41
0.05
 42
0.025
 43
3.75
 44
0.07500000000000001
 45
0.0
 46
0.0
 47
0.0
 48
0.0
 49
2.5
140
0.05
141
2.5
142
0.025
143
0.03937007874
144
100.0
145
0.0
146
0.5
147
0.020000000000000004
148
0.0
 69
0
 70
0
 71
0
 72
0
 73
0
 74
0
 75
0
 76
0
 77
1
 78
12
 79
3
170
0
171
3
172
1
173
0
174
0
175
0
176
0
177
0
178
0
179
2
271
2
272
2
273
2
274
3
275
0
276
0
277
2
278
46
279
2
280
0
281
0
282
0
283
0
284
8
285
0
286
0
288
1
289
3
290
0
340
4C
371
-2
372
-2
  0
DIMSTYLE
105
80
330
4
100
AcDbSymbolTableRecord
100
AcDbDimStyleTableRecord
  2
EZ_M_10_H25_CM
 70
0
 40
1.0
 41
0.025
 42
0.0125
 43
3.75
 44
0.037500000000000006
 45
0.0
 46
0.0
 47
0.0
 48
0.0
 49
2.5
140
0.025
141
2.5
142
0.0125
143
0.03937007874
144
100.0
145
0.0
146
0.5
147
0.010000000000000002
148
0.0
 69
0
 70
0
 71
0
 72
0
 73
0
 74
0
 75
0
 76
0
 77
1
 78
12
 79
3
170
0
171
3
172
1
173
0
174
0
175
0
176
0
177
0
178
0
179
2
271
2
272
2
273
2
274
3
275
0
276
0
277
2
278
46
279
2
280
0
281
0
282
0
283
0
284
8
285
0
286
0
288
1
289
3
290
0
340
4C
371
-2
372
-2
  0
DIMSTYLE
105
81
330
4
100
AcDbSymbolTableRecord
100
AcDbDimStyleTableRecord
  2
EZ_M_5_H25_CM
 70
0
 40
1.0
 41
0.0125
 42
0.00625
 43
3.75
 44
0.018750000000000003
 45
0.0
 46
0.0
 47
0.0
 48
0.0
 49
2.5
140
0.0125
141
2.5
142
0.00625
143
0.03937007874
144
100.0
145
0.0
146
0.5
147
0.005000000000000001
148
0.0
 69
0
 70
0
 71
0
 72
0
 73
0
 74
0
 75
0
 76
0
 77
1
 78
12
 79
3
170
0
171
3
172
1
173
0
174
0
175
0
176
0
177
0
178
0
179
2
271
2
272
2
273
2
274
3
275
0
276
0
277
2
278
46
279
2
280
0
281
0
282
0
283
0
284
8
285
0
286
0
288
1
289
3
290
0
340
4C
371
-2
372
-2
  0
DIMSTYLE
105
82
330
4
100
AcDbSymbolTableRecord
100
AcDbDimStyleTableRecord
  2
EZ_M_1_H25_CM
 70
0
 40
1.0
 41
0.0025
 42
0.00125
 43
3.75
 44
0.00375
 45
0.0
 46
0.0
 47
0.0
 48
0.0
 49
2.5
140
0.0025
141
2.5
142
0.00125
143
0.03937007874
144
100.0
145
0.0
146
0.5
147
0.001
148
0.0
 69
0
 70
0
 71
0
 72
0
 73
0
 74
0
 75
0
 76
0
 77
1
 78
12
 79
3
170
0
171
3
172
1
173
0
174
0
175
0
176
0
177
0
178
0
179
2
271
2
272
2
273
2
274
3
275
0
276
0
277
2
278
46
279
2
280
0
281
0
282
0
283
0
284
8
285
0
286
0
288
1
289
3
290
0
340
4C
371
-2
372
-2
  0
DIMSTYLE
105
83
330
4
100
AcDbSymbolTableRecord
100
AcDbDimStyleTableRecord
  2
EZ_RADIUS
 70
0
 40
1.0
 41
0.25
 42
0.125
 43
3.75
 44
0.375
 45
0.0
 46
0.0
 47
0.0
 48
0.0
 49
2.5
140
0.25
141
0.0
142
0.0
143
0.03937007874
144
100.0
145
0.0
146
0.5
147
0.1
148
0.0
 69
0
 70
0
 71
0
 72
0
 73
0
 74
0
 75
0
 76
0
 77
1
 78
12
 79
3
170
0
171
3
172
0
173
0
174
0
175
0
176
0
177
0
178
0
179
2
271
2
272
2
273
2
274
3
275
0
276
0
277
2
278
46
279
1
280
0
281
0
282
0
283
0
284
8
285
0
286
0
288
1
289
3
290
0
340
4C
342
84
371
-2
372
-2
  0
DIMSTYLE
105
88
330
4
100
AcDbSymbolTableRecord
100
AcDbDimStyleTableRecord
  2
EZ_RADIUS_INSIDE
 70
0
 40
1.0
 41
0.25
 42
0.125
 43
3.75
 44
0.375
 45
0.0
 46
0.0
 47
0.0
 48
0.0
 49
2.5
140
0.25
141
0.0
142
0.0
143
0.03937007874
144
100.0
145
0.0
146
0.5
147
0.1
148
0.0
 69
0
 70
0
 71
0
 72
0
 73
0
 74
0
 75
0
 76
0
 77
0
 78
12
 79
3
170
0
171
3
172
0
173
0
174
1
175
0
176
0
177
0
178
0
179
2
271
2
272
2
273
2
274
3
275
0
276
0
277
2
278
46
279
0
280
0
281
0
282
0
283
0
284
8
285
0
286
0
288
1
289
0
290
0
340
4C
342
84
371
-2
372
-2
  0
DIMSTYLE
105
89
330
4
100
AcDbSymbolTableRecord
100
AcDbDimStyleTableRecord
  2
EZ_CURVED
 70
0
 40
1.0
 41
0.25
 42
0.125
 43
3.75
 44
0.375
 45
0.0
 46
0.0
 47
0.0
 48
0.0
 49
2.5
140
0.25
141
2.5
142
0.0
143
0.03937007874
144
100.0
145
0.0
146
0.5
147
0.1
148
0.0
 69
0
 70
0
 71
0
 72
0
 73
0
 74
0
 75
0
 76
0
 77
1
 78
12
 79
2
 90
2
170
0
171
3
172
1
173
0
174
0
175
0
176
0
177
0
178
0
179
2
271
2
272
2
273
2
274
3
275
0
276
0
277
2
278
46
279
2
280
0
281
0
282
0
283
0
284
8
285
0
286
0
288
1
289
3
290
0
340
4C
371
-2
372
-2
  0
ENDTAB
  0
TABLE
  2
BLOCK_RECORD
  5
9
330
0
100
AcDbSymbolTable
 70
5
  0
BLOCK_RECORD
  5
17
330
9
100
AcDbSymbolTableRecord
100
AcDbBlockTableRecord
  2
*Model_Space
340
1A
 70
0
280
1
281
0
  0
BLOCK_RECORD
  5
1B
330
9
100
AcDbSymbolTableRecord
100
AcDbBlockTableRecord
  2
*Paper_Space
340
1E
 70
0
280
1
281
0
  0
BLOCK_RECORD
  5
74
330
9
100
AcDbSymbolTableRecord
100
AcDbBlockTableRecord
  2
_ARCHTICK
340
0
 70
0
280
1
281
0
  0
BLOCK_RECORD
  5
78
330
9
100
AcDbSymbolTableRecord
100
AcDbBlockTableRecord
  2
_CLOSEDFILLED
340
0
 70
0
280
1
281
0
  0
BLOCK_RECORD
  5
84
330
9
100
AcDbSymbolTableRecord
100
AcDbBlockTableRecord
  2
_CLOSEDBLANK
340
0
 70
0
280
1
281
0
  0
ENDTAB
  0
ENDSEC
  0
SECTION
  2
BLOCKS
  0
BLOCK
  5
18
330
17
100
AcDbEntity
  8
0
100
AcDbBlockBegin
  2
*Model_Space
 70
0
 10
0.0
 20
0.0
 30
0.0
  3
*Model_Space
  1

  0
ENDBLK
  5
19
330
17
100
AcDbEntity
  8
0
100
AcDbBlockEnd
  0
BLOCK
  5
1C
330
1B
100
AcDbEntity
  8
0
100
AcDbBlockBegin
  2
*Paper_Space
 70
0
 10
0.0
 20
0.0
 30
0.0
  3
*Paper_Space
  1

  0
ENDBLK
  5
1D
330
1B
100
AcDbEntity
  8
0
100
AcDbBlockEnd
  0
BLOCK
  5
75
330
74
100
AcDbEntity
  8
0
100
AcDbBlockBegin
  2
_ARCHTICK
 70
0
 10
0.0
 20
0.0
 30
0.0
  3
_ARCHTICK
  1

  0
LWPOLYLINE
  5
77
330
74
100
AcDbEntity
  8
0
  6
BYBLOCK
 62
0
100
AcDbPolyline
 90
2
 70
0
 43
0.15
 10
-0.5
 20
-0.5
 10
0.5
 20
0.5
  0
ENDBLK
  5
76
330
74
100
AcDbEntity
  8
0
100
AcDbBlockEnd
  0
BLOCK
  5
79
330
78
100
AcDbEntity
  8
0
100
AcDbBlockBegin
  2
_CLOSEDFILLED
 70
0
 10
0.0
 20
0.0
 30
0.0
  3
_CLOSEDFILLED
  1

  0
SOLID
  5
7B
330
78
100
AcDbEntity
  8
0
  6
BYBLOCK
 62
0
100
AcDbTrace
 10
-1.0
 20
0.16439898372402537
 30
0.0
 11
0.0
 21
0.0
 31
0.0
 12
-1.0
 22
-0.16439898372402537
 32
0.0
 13
-1.0
 23
-0.16439898372402537
 33
0.0
  0
ENDBLK
  5
7A
330
78
100
AcDbEntity
  8
0
100
AcDbBlockEnd
  0
BLOCK
  5
85
330
84
100
AcDbEntity
  8
0
100
AcDbBlockBegin
  2
_CLOSEDBLANK
 70
0
 10
0.0
 20
0.0
 30
0.0
  3
_CLOSEDBLANK
  1

  0
LWPOLYLINE
  5
87
330
84
100
AcDbEntity
  8
0
  6
BYBLOCK
 62
0
100
AcDbPolyline
 90
3
 70
1
 10
-1.0
 20
0.16439898372402537
 10
0.0
 20
0.0
 10
-1.0
 20
-0.16439898372402537
  0
ENDBLK
  5
86
330
84
100
AcDbEntity
  8
0
100
AcDbBlockEnd
  0
ENDSEC
  0
SECTION
  2
ENTITIES
  0
LWPOLYLINE
  5
8C
330
17
100
AcDbEntity
  8
Layer
100
AcDbPolyline
 90
261
 70
1
 10
597.0537780856872
 20
158.87085374381672
 10
594.4850159154757
 20
159.50995275515857
 10
590.2977758202087
 20
160.56352745813123
 10
585.77486682191
 20
161.7293162623066
 10
580.9921743894836
 20
162.97707591245322
 10
576.0064368574783
 20
164.29168368309
 10
570.8719352658651
 20
165.66603307593485
 10
565.626619837909
 20
167.09674384293075
 10
560.2985569409404
 20
168.56803911582358
 10
554.9171193813978
 20
170.07760392419826
 10
549.4916752599515
 20
171.62338174874625
 10
544.0318043874169
 20
173.1927600343413
 10
538.5573738452404
 20
174.78342776634156
 10
533.0732294772605
 20
176.40079695687757
 10
527.5773369078157
 20
178.04387811090908
 10
522.0690089772332
 20
179.69915847381654
 10
516.5495932625713
 20
181.35591721096455
 10
511.03082899187496
 20
183.02679506597877
 10
505.505685544921
 20
184.7081300124453
 10
499.98206368929493
 20
186.38976994264706
 10
494.4685689677701
 20
188.0702427482371
 10
488.9689746003727
 20
189.75111887965144
 10
483.4816079328797
 20
191.42937407518394
 10
478.0059732322719
 20
193.0901518718166
 10
472.53676508885945
 20
194.74178826721578
 10
467.07546945912554
 20
196.38795268707634
 10
461.62376129870665
 20
198.0135586105948
 10
456.1770546914226
 20
199.6194538785128
 10
451.7782113611048
 20
200.90418748417235
 10
451.49786193308705
 20
199.94428946968847
 10
450.4663572891807
 20
200.2455660173687
 10
445.05232143529906
 20
201.80236767335765
 10
439.63946715450845
 20
203.33014758281902
 10
434.2345366532612
 20
204.83156115648467
 10
428.8318467690588
 20
206.3017683281916
 10
423.42906521327825
 20
207.74511094758836
 10
418.03287396440953
 20
209.15931367204087
 10
412.64107391958305
 20
210.5389067684222
 10
407.2448761208101
 20
211.8835260227884
 10
401.84164169597346
 20
213.19637439611392
 10
396.43029423005567
 20
214.47963210003948
 10
391.01717906735297
 20
215.73537055446377
 10
385.605322328503
 20
216.95829825062214
 10
380.19023496435074
 20
218.14738154415292
 10
374.7717321764924
 20
219.30096644427474
 10
369.33924905303707
 20
220.42237992672312
 10
363.9101619649663
 20
221.51727461537175
 10
358.4828100201784
 20
222.57068357322163
 10
353.03877261599905
 20
223.58815271714664
 10
347.5856608674957
 20
224.5775085985985
 10
342.13341271737295
 20
225.53637217190715
 10
336.6796773786228
 20
226.45908492771088
 10
331.2192666554853
 20
227.34562089430486
 10
325.74947350752393
 20
228.19849039344632
 10
320.2722555131676
 20
229.02035582302267
 10
314.7921098721964
 20
229.8112154013351
 10
309.30931885205354
 20
230.56717145952038
 10
303.8144104201763
 20
231.28924013654506
 10
298.31562195710103
 20
231.98342736096689
 10
292.8176094530232
 20
232.64490659499924
 10
287.3172990514851
 20
233.27238160921445
 10
281.8159004750926
 20
233.86531362352127
 10
276.30979676594916
 20
234.42182199324034
 10
270.7937405639357
 20
234.947012962572
 10
265.2855946128341
 20
235.4439538233362
 10
259.77873208188595
 20
235.90059729253764
 10
254.26672408566085
 20
236.32512331735091
 10
248.76341584691426
 20
236.71619406614573
 10
243.26239550453013
 20
237.06799966999364
 10
237.75981028065127
 20
237.38320162500898
 10
232.2617066281132
 20
237.66359871749862
 10
226.76673566539876
 20
237.9057461407388
 10
221.27322168857322
 20
238.1116794633594
 10
215.78777167728953
 20
238.2830372991102
 10
210.31532899796025
 20
238.41559712676363
 10
204.85079525106352
 20
238.5035332374055
 10
199.38398418773104
 20
238.55141929059778
 10
193.93538670460526
 20
238.56476544377304
 10
188.4942821570138
 20
238.52829401265484
 10
183.0562802440404
 20
238.45549017665502
 10
177.6384278585396
 20
238.34157694962278
 10
172.23256232448352
 20
238.1834465224031
 10
166.84826321859626
 20
237.98184178710852
 10
161.47795109168095
 20
237.7300573777277
 10
156.12223883301112
 20
237.43205855036973
 10
150.78179748997474
 20
237.0872797012835
 10
145.46401226083424
 20
236.69914955710635
 10
140.1725187643721
 20
236.2606848766345
 10
134.90205211972324
 20
235.77179592174957
 10
129.65755156100096
 20
235.23494433322418
 10
124.443243562658
 20
234.6520256310964
 10
119.27449163752098
 20
234.02394450136742
 10
114.15387546151635
 20
233.34078636043455
 10
109.07253353933483
 20
232.6001670484546
 10
104.0430280398389
 20
231.81153400946124
 10
99.06912261890321
 20
230.96681532559592
 10
94.15153041767235
 20
230.0675895931473
 10
89.28970878697618
 20
229.11498336730088
 10
84.49633459353248
 20
228.1203059156533
 10
79.78994061217256
 20
227.079714286311
 10
75.16971351370458
 20
225.98726104463333
 10
70.64064765664222
 20
224.84211059550924
 10
66.19959396760405
 20
223.641676396749
 10
61.85559820728349
 20
222.38706365632777
 10
57.59821748409257
 20
221.07248477785996
 10
53.45109772888986
 20
219.71590849150044
 10
49.41819065188193
 20
218.29398207181055
 10
45.50397431497379
 20
216.81893998125892
 10
41.733188058934985
 20
215.28856873907924
 10
38.115554411067194
 20
213.70384302787988
 10
34.68682445400319
 20
212.07943553773498
 10
31.484256041691083
 20
210.42888350981875
 10
28.52737250662807
 20
208.75657739629008
 10
25.857092238802124
 20
207.12043327157082
 10
23.498896208956324
 20
205.53696218547668
 10
21.44754595969681
 20
204.0244466848502
 10
19.6794000324077
 20
202.59675353972273
 10
18.183001382344514
 20
201.28858963002742
 10
16.903281455082634
 20
200.03235615033796
 10
15.811651612503624
 20
198.8856917481666
 10
14.896010225211967
 20
197.83049991460277
 10
14.122515525447199
 20
196.82640711200844
 10
13.464260405618177
 20
195.87197731036136
 10
12.910185322614268
 20
194.9870218043072
 10
12.443208382708377
 20
194.14048118949066
 10
12.043140864914136
 20
193.32202273231778
 10
11.705406755827369
 20
192.5648691335329
 10
11.424966809486847
 20
191.8466380654754
 10
11.191958131864567
 20
191.15270163379563
 10
11.00315750170742
 20
190.50896401663593
 10
10.8528598617674
 20
189.876424409482
 10
10.733843567727064
 20
189.27724819301898
 10
10.651583073207092
 20
188.79976723557326
 10
10.639255602458292
 20
188.23677290813862
 10
10.635422874409699
 20
187.63408899244516
 10
10.649105512052529
 20
187.05845712258056
 10
10.699289624708342
 20
186.48591137887817
 10
10.80438545090368
 20
185.89400870711967
 10
10.97778063154334
 20
185.2724993147903
 10
11.225247142018276
 20
184.62480034448882
 10
11.554595077463063
 20
183.9530408817721
 10
11.977294343282608
 20
183.25636594500344
 10
12.502986735846747
 20
182.53619461940258
 10
13.13897291262984
 20
181.79722118613367
 10
13.898531225795523
 20
181.04350866259097
 10
14.802517266658441
 20
180.27779977664946
 10
15.883304481416332
 20
179.49825159237247
 10
17.173709781780275
 20
178.6974653608773
 10
18.683672362718795
 20
177.86981563466796
 10
20.426965689242735
 20
177.0232199726521
 10
22.464924244095556
 20
176.1749643120988
 10
24.849570846782143
 20
175.32507943372386
 10
27.578704552683917
 20
174.46171952399752
 10
30.607757895058796
 20
173.59850829671137
 10
33.92323868189314
 20
172.78084544148646
 10
37.49632517955783
 20
172.0043932265998
 10
41.23836284876455
 20
171.27087517939353
 10
45.11663802437721
 20
170.60424950092823
 10
49.129166576346734
 20
170.00631118853065
 10
53.2803759072888
 20
169.4494263667358
 10
57.511823215698456
 20
168.9036206977923
 10
61.759434799845735
 20
168.38688237452567
 10
66.0625385914579
 20
167.93842356568894
 10
70.48025533521965
 20
167.53226721922817
 10
74.97383926789479
 20
167.1270791314434
 10
79.51910534077962
 20
166.73298004325974
 10
84.11781433311032
 20
166.3627485775044
 10
88.78332920685844
 20
166.02551941583147
 10
93.54045312909741
 20
165.71909991818973
 10
98.3971138347892
 20
165.43181352694035
 10
103.35062273361393
 20
165.15820625076526
 10
108.39504245124876
 20
164.89347932294845
 10
113.50822229477596
 20
164.63988533259112
 10
118.69538987261008
 20
164.40943154814417
 10
123.94847517789728
 20
164.18834867720588
 10
125.78364528501274
 20
164.12329061983596
 10
125.74821684338784
 20
163.1239184041305
 10
129.25081130464338
 20
162.999745724347
 10
134.669706469775
 20
162.8272518145107
 10
140.15657923005335
 20
162.6614025692173
 10
145.69902484220114
 20
162.51018870828557
 10
151.2867092612026
 20
162.37168911132716
 10
156.90859122174572
 20
162.2459338339216
 10
162.5586855941179
 20
162.13466160630315
 10
168.2367318707171
 20
162.03913345221747
 10
173.94226316468416
 20
161.9571188001592
 10
179.66830519213875
 20
161.88470765390008
 10
185.4061076449069
 20
161.81975139099728
 10
191.1532508730366
 20
161.7625631997455
 10
196.91296403529782
 20
161.71200305725412
 10
202.68630914464867
 20
161.66592335292245
 10
208.46880853683095
 20
161.6247196801454
 10
214.25669977074128
 20
161.58925236755312
 10
220.04856512661715
 20
161.5585853456618
 10
225.83921051841057
 20
161.53116029219046
 10
231.62971392787964
 20
161.51001608984424
 10
237.42650947158958
 20
161.4960188190572
 10
243.23049735922922
 20
161.48709127946307
 10
249.03971803381614
 20
161.4837224510705
 10
254.85493359491088
 20
161.48523821579312
 10
260.673055327293
 20
161.48807157228973
 10
266.48869050689393
 20
161.48834393594632
 10
272.2977186311317
 20
161.48989980590608
 10
278.09774223942753
 20
161.49877937943407
 10
283.8939493907152
 20
161.51795823555585
 10
289.69275434758066
 20
161.54670644753014
 10
295.4960151583342
 20
161.5788984256441
 10
301.30128313349593
 20
161.60845097669332
 10
307.1061380143028
 20
161.6343694189241
 10
312.90733665219295
 20
161.66226920102685
 10
318.7037544006826
 20
161.69761048514766
 10
324.4982967164461
 20
161.74228341181333
 10
330.291331200575
 20
161.7935236788083
 10
336.07883818338627
 20
161.843480551016
 10
341.8637320059837
 20
161.8861447607614
 10
347.65113608231013
 20
161.9246968396102
 10
353.4328263192871
 20
161.96315788828298
 10
359.21090489442633
 20
162.00584770737962
 10
364.99223185078745
 20
162.05528370349649
 10
370.77539652568663
 20
162.10778455110255
 10
376.5492441568466
 20
162.15469178785716
 10
382.3114018677361
 20
162.19171642634416
 10
388.06568575460506
 20
162.22780531401767
 10
393.81495457437654
 20
162.27346395121822
 10
399.5621632038821
 20
162.33234838726366
 10
405.31136681298017
 20
162.3971969782896
 10
411.0634957774612
 20
162.45704789014596
 10
416.8180089523436
 20
162.505109296978
 10
422.5801970566031
 20
162.542906912307
 10
428.349277436568
 20
162.57567386469094
 10
434.1138991232375
 20
162.60726472698136
 10
439.8622746513691
 20
162.6417787587178
 10
445.59989422404726
 20
162.67213995615793
 10
451.3346166599707
 20
162.68357159290818
 10
457.0817197654814
 20
162.67814542200958
 10
462.8397095955437
 20
162.6680979184551
 10
468.5954244137904
 20
162.65839833739034
 10
474.3381609342671
 20
162.6435514425777
 10
480.0706802186378
 20
162.61773461530083
 10
485.80100224973785
 20
162.57754951232445
 10
491.5337721035154
 20
162.52389675166475
 10
497.26259699457455
 20
162.46286881335436
 10
502.9717035843764
 20
162.39407101836454
 10
508.65806701386714
 20
162.30474555753977
 10
514.3405941592601
 20
162.1925339212613
 10
520.0278276094415
 20
162.0718451635004
 10
525.7137267711194
 20
161.94559433995295
 10
531.3826468487852
 20
161.8024938023672
 10
537.0292428514888
 20
161.64278502220623
 10
542.6539365974402
 20
161.46348827699586
 10
548.252012290795
 20
161.27180041006702
 10
553.8119360286711
 20
161.06082586781952
 10
559.3270701291965
 20
160.8322020497165
 10
564.7800597841572
 20
160.588211449233
 10
570.1525659175479
 20
160.325235020616
 10
575.4279414651519
 20
160.04135895833213
 10
580.5709284432519
 20
159.7492590358409
 10
585.5182340848806
 20
159.45579331828463
 10
590.1925762966168
 20
159.16185985051385
 10
594.5102503550997
 20
158.8697509212367
 10
597.1512084799431
 20
158.67865007329914
  0
LWPOLYLINE
  5
8D
330
17
100
AcDbEntity
  8
Layer
100
AcDbPolyline
 90
5
 70
0
 10
394.4430299691231
 20
210.83441430800482
 10
390.54649809240544
 20
211.7383165890749
 10
391.4504003734755
 20
215.6348484657925
 10
395.3469322501931
 20
214.7309461847224
 10
394.4430299691231
 20
210.83441430800482
  0
LWPOLYLINE
  5
8E
330
17
100
AcDbEntity
  8
Layer
100
AcDbPolyline
 90
5
 70
0
 10
173.0884182700717
 20
234.2126981555033
 10
169.09122114338334
 20
234.06298132146657
 10
168.9415043093466
 20
238.06017844815494
 10
172.938701436035
 20
238.20989528219167
 10
173.0884182700717
 20
234.2126981555033
  0
LWPOLYLINE
  5
8F
330
17
100
AcDbEntity
  8
Layer
100
AcDbPolyline
 90
5
 70
0
 10
73.3559828129368
 20
221.43261009497948
 10
69.49461217427786
 20
220.38866718902025
 10
68.45066926831863
 20
224.25003782767922
 10
72.31203990697757
 20
225.29398073363845
 10
73.3559828129368
 20
221.43261009497948
  0
LWPOLYLINE
  5
90
330
17
100
AcDbEntity
  8
Layer
100
AcDbPolyline
 90
5
 70
0
 10
23.611947900009064
 20
199.34478570741024
 10
22.056540347595785
 20
198.08752386280676
 10
18.913385736087086
 20
201.97604274383994
 10
20.468793288500365
 20
203.23330458844342
 10
23.611947900009064
 20
199.34478570741024
  0
LWPOLYLINE
  5
91
330
17
100
AcDbEntity
  8
Layer
100
AcDbPolyline
 90
5
 70
0
 10
17.50721858430403
 20
184.49100805717836
 10
19.132364715989528
 20
183.32528937298923
 10
16.21806800551668
 20
179.26242404377547
 10
14.592921873831184
 20
180.4281427279646
 10
17.50721858430403
 20
184.49100805717836
  0
LWPOLYLINE
  5
92
330
17
100
AcDbEntity
  8
Layer
100
AcDbPolyline
 90
5
 70
0
 10
94.65525250338551
 20
169.66015024666387
 10
98.64827319869882
 20
169.42396022401346
 10
98.41208317604837
 20
165.43093952870015
 10
94.41906248073506
 20
165.66712955135057
 10
94.65525250338551
 20
169.66015024666387
  0
LINE
  5
93
330
17
100
AcDbEntity
  8
Layer
100
AcDbLine
 10
577.7193497527817
 20
163.84003363369723
 30
0.0
 11
577.4855063619435
 21
162.86775935729096
 31
0.0
  0
LINE
  5
94
330
17
100
AcDbEntity
  8
Layer
100
AcDbLine
 10
577.2189083608808
 20
160.9410926694751
 30
0.0
 11
577.1799749258157
 21
159.94185086308687
 31
0.0
  0
LINE
  5
95
330
17
100
AcDbEntity
  8
Layer
100
AcDbLine
 10
558.4176014985951
 20
169.09567213404011
 30
0.0
 11
558.1692890301498
 21
168.126992146627
 31
0.0
  0
LINE
  5
96
330
17
100
AcDbEntity
  8
Layer
100
AcDbLine
 10
557.2472948606845
 20
161.9192725365572
 30
0.0
 11
557.2033685208526
 21
160.92023776405478
 31
0.0
  0
LINE
  5
97
330
17
100
AcDbEntity
  8
Layer
100
AcDbLine
 10
481.73342559472405
 20
191.9596034587022
 30
0.0
 11
481.46012208015225
 21
190.99767560853738
 31
0.0
  0
LINE
  5
98
330
17
100
AcDbEntity
  8
Layer
100
AcDbLine
 10
477.2437804163842
 20
163.63017834956804
 30
0.0
 11
477.21488531393493
 21
162.6305959002151
 31
0.0
  0
LWPOLYLINE
  5
99
330
17
100
AcDbEntity
  8
Layer
100
AcDbPolyline
 90
300
 70
1
 10
263.9556077981651
 20
200.0
 10
263.9489342676169
 20
200.64130526155384
 10
263.9289166228156
 20
201.2823273407577
 10
263.89556370298965
 20
201.92278318030682
 10
263.8488902358495
 20
202.5623899729321
 10
263.7889168310843
 20
203.20086528627954
 10
263.71566997126126
 20
203.8379271876246
 10
263.6291820001318
 20
204.47329436836566
 10
263.529491108349
 20
205.10668626824204
 10
263.41664131660457
 20
205.73782319922142
 10
263.2906824561895
 20
206.36642646900236
 10
263.1516701469907
 20
206.99221850407682
 10
262.9996657729305
 20
207.61492297229887
 10
262.8347364548615
 20
208.23426490490516
 10
262.6569550209275
 20
208.84997081793347
 10
262.46639997440514
 20
209.46176883298543
 10
262.2631554590384
 20
210.0693887972804
 10
262.0473112218839
 20
210.67256240294736
 10
261.8189625736803
 20
211.27102330550207
 10
261.57821034676255
 20
211.86450724145735
 10
261.3251608505365
 20
212.4527521450143
 10
261.05992582453615
 20
213.03549826378327
 10
260.78262238908223
 20
213.61248827348322
 10
260.4933729935654
 20
214.1834673915688
 10
260.1923053623761
 20
214.74818348973517
 10
259.8795524385048
 20
215.30638720525076
 10
259.55525232483836
 20
215.85783205106893
 10
259.2195482231776
 20
216.4022745246695
 10
258.87258837100325
 20
216.9394742155829
 10
258.5145259760187
 20
217.4691939115483
 10
258.1455191484979
 20
217.9911997032603
 10
257.76573083146775
 20
218.50526108765624
 10
257.37532872875755
 20
219.01115106970025
 10
256.97448523094573
 20
219.50864626261765
 10
256.5633773392366
 20
219.99752698653626
 10
256.14218658730204
 20
220.47757736549096
 10
255.71109896112102
 20
220.94858542274844
 10
255.27030481685375
 20
221.41034317440995
 10
254.81999879678546
 20
221.8626467212514
 10
254.36037974337793
 20
222.30529633875938
 10
253.8916506114664
 20
222.73809656532387
 10
253.41401837864018
 20
223.1608562885487
 10
252.92769395384744
 20
223.57338882964117
 10
252.4328920842636
 20
223.9755120258445
 10
251.929831260465
 20
224.3670483108754
 10
251.41873361994968
 20
224.74782479333263
 10
250.8998248490477
 20
225.11767333304084
 10
250.37333408326444
 20
225.47643061529652
 10
249.83949380610073
 20
225.8239382229833
 10
249.29853974639477
 20
226.16004270652434
 10
248.7507107742308
 20
226.48459565164143
 10
248.19624879546097
 20
226.79745374489056
 10
247.63539864488635
 20
227.09847883694505
 10
247.06840797814482
 20
227.38753800359848
 10
246.49552716235343
 20
227.66450360446015
 10
245.9170091655531
 20
227.92925333931768
 10
245.33310944500536
 20
228.18167030214116
 10
244.74408583438932
 20
228.42164303270556
 10
244.1501984299497
 20
228.64906556580868
 10
243.55170947564577
 20
228.863837478062
 10
242.94888324735152
 20
229.06586393223523
 10
242.34198593615915
 20
229.25505571913345
 10
241.73128553083643
 20
229.43132929698956
 10
241.1170516994904
 20
229.59460682835382
 10
240.49955567048963
 20
229.74481621446486
 10
239.8790701126973
 20
229.88189112708636
 10
239.25586901506833
 20
230.0057710377957
 10
238.6302275656636
 20
230.1164012447117
 10
238.00242203013468
 20
230.21373289664933
 10
237.3727296297326
 20
230.2977230146911
 10
236.74142841889477
 20
230.36833451116527
 10
236.1087971624641
 20
230.42553620602283
 10
235.4751152125941
 20
230.46930284060562
 10
234.84066238539495
 20
230.49961508879989
 10
234.2057188373746
 20
230.51645956557013
 10
233.57056494172943
 20
230.51982883286965
 10
232.93548116453948
 20
230.5097214029248
 10
232.30074794092238
 20
230.48614173889214
 10
231.66664555120124
 20
230.4491002528875
 10
231.03345399714064
 20
230.39861330138837
 10
230.40145287830578
 20
230.33470317801118
 10
229.77092126859918
 20
230.25739810366738
 10
229.1421375930295
 20
230.1667322141015
 10
228.5153795047669
 20
230.06274554481806
 10
227.8909237625392
 20
229.94548401340285
 10
227.26904610842297
 20
229.8149993992471
 10
226.65002114608376
 20
229.67134932068313
 10
226.03412221951862
 20
229.51459720954176
 10
225.4216212923553
 20
229.34481228314243
 10
224.8127888277606
 20
229.16206951372908
 10
224.2078936690116
 20
228.96644959536422
 10
223.60720292078187
 20
228.7580389082969
 10
223.0109818311957
 20
228.53692948081948
 10
222.41949367470195
 20
228.30321894863073
 10
221.83299963581945
 20
228.05701051172235
 10
221.25175869380527
 20
227.7984128888091
 10
220.67602750829684
 20
227.52754026932143
 10
220.10606030597816
 20
227.24451226298268
 10
219.54210876832056
 20
226.94945384699295
 10
218.98442192044718
 20
226.6424953108425
 10
218.43324602117053
 20
226.32377219877958
 10
217.88882445425145
 20
225.99342524995814
 10
217.35139762092786
 20
225.65160033629112
 10
216.8212028337601
 20
225.2984483980376
 10
216.29847421184064
 20
224.9341253771519
 10
215.78344257741352
 20
224.55879214842395
 10
215.27633535394975
 20
224.17261444844144
 10
214.77737646572353
 20
223.77576280240538
 10
214.2867862389337
 20
223.3684124488308
 10
213.80478130441367
 20
222.95074326216653
 10
213.3315745019736
 20
222.52293967336743
 10
212.86737478641606
 20
222.08519058845525
 10
212.41238713526772
 20
221.63768930510267
 10
211.9668124582669
 20
221.18063342727876
 10
211.53084750864753
 20
220.71422477799254
 10
211.10468479625843
 20
220.2386693101736
 10
210.68851250255642
 20
219.75417701572906
 10
210.2825143975107
 20
219.2609618328172
 10
209.88686975845513
 20
218.75924155137812
 10
209.50175329092446
 20
218.2492377169642
 10
209.12733505150925
 20
217.73117553291144
 10
208.7637803727638
 20
217.20528376089635
 10
208.4112497901997
 20
216.67179461992092
 10
208.06989897139806
 20
216.1309436837715
 10
207.7398786472711
 20
215.58296977699595
 10
207.42133454550347
 20
215.0281148694454
 10
207.11440732620315
 20
214.4666239694272
 10
206.81923251978978
 20
213.89874501551617
 10
206.5359404671484
 20
213.32472876707192
 10
206.26465626207448
 20
212.74482869351056
 10
206.00549969603597
 20
212.15930086237972
 10
205.75858520527692
 20
211.56840382628636
 10
205.52402182028547
 20
210.97239850872717
 10
205.30191311764926
 20
210.37154808887215
 10
205.09235717431872
 20
209.76611788535206
 10
204.89544652429922
 20
209.15637523910124
 10
204.7112681177905
 20
208.54258939530735
 10
204.53990328279207
 20
207.92503138452017
 10
204.38142768919096
 20
207.30397390297233
 10
204.235911315348
 20
206.6796911921642
 10
204.10341841719747
 20
206.0524589177666
 10
203.98400749987334
 20
205.42255404789455
 10
203.87773129187514
 20
204.7902547308061
 10
203.78463672178452
 20
204.1558401720797
 10
203.70476489754296
 20
203.519590511325
 10
203.63815108829948
 20
202.881786698481
 10
203.58482470883706
 20
202.24271036975657
 10
203.54480930658363
 20
201.60264372326773
 10
203.5181225512144
 20
200.96186939442694
 10
203.50477622684917
 20
200.32067033113933
 10
203.50477622684917
 20
199.6793296688607
 10
203.5181225512144
 20
199.03813060557306
 10
203.54480930658363
 20
198.39735627673227
 10
203.58482470883706
 20
197.75728963024343
 10
203.63815108829948
 20
197.11821330151898
 10
203.70476489754296
 20
196.480409488675
 10
203.78463672178452
 20
195.8441598279203
 10
203.87773129187514
 20
195.2097452691939
 10
203.98400749987334
 20
194.57744595210545
 10
204.10341841719747
 20
193.9475410822334
 10
204.23591131534803
 20
193.3203088078358
 10
204.38142768919096
 20
192.69602609702767
 10
204.53990328279207
 20
192.07496861547986
 10
204.7112681177905
 20
191.45741060469268
 10
204.89544652429922
 20
190.84362476089876
 10
205.09235717431872
 20
190.23388211464794
 10
205.30191311764926
 20
189.62845191112785
 10
205.52402182028547
 20
189.02760149127283
 10
205.75858520527692
 20
188.43159617371364
 10
206.00549969603597
 20
187.84069913762028
 10
206.26465626207448
 20
187.25517130648944
 10
206.5359404671484
 20
186.67527123292808
 10
206.81923251978978
 20
186.10125498448386
 10
207.11440732620315
 20
185.5333760305728
 10
207.42133454550347
 20
184.9718851305546
 10
207.7398786472711
 20
184.41703022300402
 10
208.06989897139806
 20
183.86905631622847
 10
208.4112497901997
 20
183.32820538007908
 10
208.7637803727638
 20
182.79471623910368
 10
209.12733505150925
 20
182.26882446708856
 10
209.50175329092443
 20
181.7507622830358
 10
209.8868697584551
 20
181.24075844862188
 10
210.28251439751068
 20
180.73903816718283
 10
210.68851250255642
 20
180.24582298427092
 10
211.10468479625843
 20
179.7613306898264
 10
211.53084750864753
 20
179.28577522200746
 10
211.9668124582669
 20
178.81936657272124
 10
212.41238713526772
 20
178.36231069489736
 10
212.86737478641606
 20
177.91480941154475
 10
213.3315745019736
 20
177.47706032663257
 10
213.8047813044137
 20
177.04925673783347
 10
214.2867862389337
 20
176.6315875511692
 10
214.77737646572353
 20
176.22423719759462
 10
215.27633535394975
 20
175.82738555155856
 10
215.78344257741352
 20
175.44120785157608
 10
216.29847421184064
 20
175.0658746228481
 10
216.82120283376008
 20
174.7015516019624
 10
217.35139762092786
 20
174.34839966370888
 10
217.88882445425145
 20
174.00657475004186
 10
218.43324602117053
 20
173.67622780122042
 10
218.9844219204472
 20
173.3575046891575
 10
219.5421087683206
 20
173.05054615300705
 10
220.1060603059782
 20
172.7554877370173
 10
220.67602750829684
 20
172.47245973067857
 10
221.25175869380527
 20
172.20158711119092
 10
221.83299963581942
 20
171.94298948827765
 10
222.41949367470193
 20
171.6967810513693
 10
223.0109818311957
 20
171.46307051918052
 10
223.60720292078187
 20
171.2419610917031
 10
224.2078936690116
 20
171.03355040463578
 10
224.8127888277606
 20
170.83793048627092
 10
225.4216212923553
 20
170.65518771685757
 10
226.03412221951862
 20
170.48540279045824
 10
226.65002114608373
 20
170.32865067931687
 10
227.26904610842297
 20
170.1850006007529
 10
227.8909237625392
 20
170.05451598659715
 10
228.5153795047669
 20
169.93725445518194
 10
229.14213759302953
 20
169.8332677858985
 10
229.7709212685992
 20
169.74260189633262
 10
230.40145287830578
 20
169.66529682198882
 10
231.03345399714064
 20
169.60138669861166
 10
231.66664555120124
 20
169.5508997471125
 10
232.30074794092238
 20
169.51385826110786
 10
232.93548116453945
 20
169.4902785970752
 10
233.57056494172943
 20
169.48017116713035
 10
234.20571883737458
 20
169.48354043442984
 10
234.84066238539495
 20
169.50038491120011
 10
235.4751152125941
 20
169.53069715939438
 10
236.1087971624641
 20
169.57446379397717
 10
236.74142841889477
 20
169.63166548883473
 10
237.3727296297326
 20
169.7022769853089
 10
238.00242203013468
 20
169.78626710335067
 10
238.6302275656636
 20
169.8835987552883
 10
239.25586901506833
 20
169.9942289622043
 10
239.87907011269726
 20
170.11810887291364
 10
240.49955567048963
 20
170.25518378553514
 10
241.1170516994904
 20
170.40539317164618
 10
241.7312855308364
 20
170.56867070301044
 10
242.34198593615915
 20
170.74494428086652
 10
242.94888324735152
 20
170.93413606776474
 10
243.55170947564577
 20
171.136162521938
 10
244.1501984299497
 20
171.35093443419132
 10
244.74408583438932
 20
171.57835696729444
 10
245.33310944500536
 20
171.81832969785884
 10
245.9170091655531
 20
172.07074666068232
 10
246.49552716235343
 20
172.33549639553985
 10
247.06840797814482
 20
172.61246199640152
 10
247.63539864488635
 20
172.90152116305495
 10
248.19624879546097
 20
173.20254625510944
 10
248.75071077423078
 20
173.51540434835857
 10
249.29853974639474
 20
173.83995729347566
 10
249.8394938061007
 20
174.1760617770167
 10
250.3733340832644
 20
174.52356938470348
 10
250.8998248490477
 20
174.88232666695916
 10
251.41873361994965
 20
175.25217520666737
 10
251.929831260465
 20
175.6329516891246
 10
252.43289208426359
 20
176.0244879741555
 10
252.92769395384744
 20
176.42661117035883
 10
253.41401837864018
 20
176.8391437114513
 10
253.8916506114664
 20
177.26190343467613
 10
254.36037974337793
 20
177.69470366124062
 10
254.81999879678546
 20
178.1373532787486
 10
255.27030481685378
 20
178.58965682559005
 10
255.71109896112102
 20
179.0514145772516
 10
256.142186587302
 20
179.522422634509
 10
256.5633773392366
 20
180.00247301346374
 10
256.9744852309457
 20
180.49135373738235
 10
257.37532872875755
 20
180.98884893029972
 10
257.7657308314677
 20
181.49473891234373
 10
258.1455191484979
 20
182.0088002967397
 10
258.5145259760187
 20
182.53080608845167
 10
258.87258837100325
 20
183.0605257844171
 10
259.2195482231776
 20
183.5977254753305
 10
259.55525232483836
 20
184.14216794893107
 10
259.8795524385048
 20
184.69361279474924
 10
260.1923053623761
 20
185.25181651026483
 10
260.4933729935654
 20
185.8165326084312
 10
260.78262238908223
 20
186.38751172651678
 10
261.05992582453615
 20
186.96450173621673
 10
261.3251608505365
 20
187.5472478549857
 10
261.57821034676255
 20
188.13549275854265
 10
261.8189625736803
 20
188.7289766944979
 10
262.04731122188383
 20
189.32743759705264
 10
262.2631554590384
 20
189.93061120271958
 10
262.46639997440514
 20
190.53823116701457
 10
262.6569550209275
 20
191.15002918206653
 10
262.8347364548615
 20
191.76573509509484
 10
262.9996657729305
 20
192.38507702770113
 10
263.1516701469907
 20
193.00778149592318
 10
263.2906824561895
 20
193.63357353099764
 10
263.41664131660457
 20
194.26217680077858
 10
263.529491108349
 20
194.89331373175798
 10
263.6291820001318
 20
195.52670563163434
 10
263.71566997126126
 20
196.1620728123754
 10
263.7889168310843
 20
196.79913471372046
 10
263.84889023584947
 20
197.4376100270679
 10
263.89556370298965
 20
198.07721681969318
 10
263.9289166228156
 20
198.7176726592423
 10
263.9489342676169
 20
199.35869473844613
 10
263.9556077981651
 20
200.0
  0
LINE
  5
9A
330
17
100
AcDbEntity
  8
Layer
 62
7
100
AcDbLine
 10
16.87247824951268
 20
200.00000000000003
 30
0.0
 11
454.8740898113821
 21
199.99999999999997
 31
0.0
  0
LINE
  5
9B
330
17
100
AcDbEntity
  8
Layer
 62
7
100
AcDbLine
 10
102.37280056188658
 20
200.00000000000003
 30
0.0
 11
114.37280056188656
 21
200.00000000000003
 31
0.0
  0
LWPOLYLINE
  5
9C
330
17
100
AcDbEntity
  8
Layer
100
AcDbPolyline
 90
5
 70
0
 10
108.37280056188656
 20
205.00000000000003
 10
113.37280056188656
 20
200.00000000000003
 10
108.37280056188656
 20
195.00000000000003
 10
103.37280056188656
 20
200.00000000000003
 10
108.37280056188656
 20
205.00000000000003
  0
LINE
  5
9D
330
17
100
AcDbEntity
  8
Layer
 62
7
100
AcDbLine
 10
229.8732840304474
 20
200.0
 30
0.0
 11
241.8732840304474
 21
200.0
 31
0.0
  0
LWPOLYLINE
  5
9E
330
17
100
AcDbEntity
  8
Layer
100
AcDbPolyline
 90
5
 70
0
 10
235.8732840304474
 20
205.0
 10
240.8732840304474
 20
200.0
 10
235.8732840304474
 20
195.0
 10
230.8732840304474
 20
200.0
 10
235.8732840304474
 20
205.0
  0
LINE
  5
9F
330
17
100
AcDbEntity
  8
Layer
 62
7
100
AcDbLine
 10
357.3737674990082
 20
199.99999999999997
 30
0.0
 11
369.3737674990082
 21
199.99999999999997
 31
0.0
  0
LWPOLYLINE
  5
A0
330
17
100
AcDbEntity
  8
Layer
100
AcDbPolyline
 90
5
 70
0
 10
363.3737674990082
 20
204.99999999999997
 10
368.3737674990082
 20
199.99999999999997
 10
363.3737674990082
 20
194.99999999999997
 10
358.3737674990082
 20
199.99999999999997
 10
363.3737674990082
 20
204.99999999999997
  0
LINE
  5
A1
330
17
100
AcDbEntity
  8
Layer
 62
7
100
AcDbLine
 10
10.65097645222798
 20
188.7720629175614
 30
0.0
 11
595.5514454472826
 21
159.24462883091704
 31
0.0
  0
LINE
  5
A2
330
17
100
AcDbEntity
  8
Layer
 62
7
100
AcDbLine
 10
125.53374108981504
 20
182.97245522301446
 30
0.0
 11
137.51847915509427
 21
182.36743166426055
 31
0.0
  0
LWPOLYLINE
  5
A3
330
17
100
AcDbEntity
  8
Layer
100
AcDbPolyline
 90
5
 70
0
 10
131.77820327193547
 20
187.6635843041705
 10
136.5197509829877
 20
182.4178502941567
 10
131.27401697297387
 20
177.67630258310447
 10
126.53246926192166
 20
182.9220365931183
 10
131.77820327193547
 20
187.6635843041705
  0
LINE
  5
A4
330
17
100
AcDbEntity
  8
Layer
 62
7
100
AcDbLine
 10
268.5129917792322
 20
175.7544572485159
 30
0.0
 11
280.49772984451147
 21
175.14943368976196
 31
0.0
  0
LWPOLYLINE
  5
A5
330
17
100
AcDbEntity
  8
Layer
100
AcDbPolyline
 90
5
 70
0
 10
274.7574539613526
 20
180.44558632967195
 10
279.4990016724048
 20
175.19985231965813
 10
274.253267662391
 20
170.4583046086059
 10
269.5117199513388
 20
175.70403861861973
 10
274.7574539613526
 20
180.44558632967195
  0
LINE
  5
A6
330
17
100
AcDbEntity
  8
Layer
100
AcDbLine
 10
233.72935779816513
 20
230.52024999999995
 30
0.0
 11
233.72935779816513
 21
231.52024999999995
 31
0.0
  0
LINE
  5
A7
330
17
100
AcDbEntity
  8
Layer
100
AcDbLine
 10
233.72935779816513
 20
169.47975000000005
 30
0.0
 11
233.72935779816513
 21
168.47975000000005
 31
0.0
  0
LINE
  5
A8
330
17
100
AcDbEntity
  8
Layer
100
AcDbLine
 10
263.9556077981651
 20
200.0
 30
0.0
 11
264.9556077981651
 21
200.0
 31
0.0
  0
LINE
  5
A9
330
17
100
AcDbEntity
  8
Layer
100
AcDbLine
 10
203.50310779816516
 20
200.0
 30
0.0
 11
202.50310779816516
 21
200.0
 31
0.0
  0
LINE
  5
AA
330
17
100
AcDbEntity
  8
Layer
 62
7
100
AcDbLine
 10
153.72935779816513
 20
162.3170497669713
 30
0.0
 11
153.72935779816513
 21
237.27757417048412
 31
0.0
  0
LINE
  5
AB
330
17
100
AcDbEntity
  8
Layer
 62
7
100
AcDbLine
 10
153.72935779816513
 20
184.50323330820078
 30
0.0
 11
153.72935779816513
 21
196.50323330820078
 31
0.0
  0
LWPOLYLINE
  5
AC
330
17
100
AcDbEntity
  8
Layer
100
AcDbPolyline
 90
5
 70
0
 10
148.72935779816513
 20
190.50323330820078
 10
153.72935779816513
 20
195.50323330820078
 10
158.72935779816513
 20
190.50323330820078
 10
153.72935779816513
 20
185.50323330820078
 10
148.72935779816513
 20
190.50323330820078
  0
LINE
  5
AD
330
17
100
AcDbEntity
  8
Layer
 62
7
100
AcDbLine
 10
153.72935779816513
 20
203.09139062925462
 30
0.0
 11
153.72935779816513
 21
215.09139062925462
 31
0.0
  0
LWPOLYLINE
  5
AE
330
17
100
AcDbEntity
  8
Layer
100
AcDbPolyline
 90
5
 70
0
 10
148.72935779816513
 20
209.09139062925462
 10
153.72935779816513
 20
214.09139062925462
 10
158.72935779816513
 20
209.09139062925462
 10
153.72935779816513
 20
204.09139062925462
 10
148.72935779816513
 20
209.09139062925462
  0
LINE
  5
AF
330
17
100
AcDbEntity
  8
Layer
 62
7
100
AcDbLine
 10
363.7293577981651
 20
162.0444848960198
 30
0.0
 11
363.7293577981651
 21
221.55236736978725
 31
0.0
  0
LINE
  5
B0
330
17
100
AcDbEntity
  8
Layer
 62
7
100
AcDbLine
 10
363.7293577981651
 20
178.8222437618384
 30
0.0
 11
363.7293577981651
 21
190.8222437618384
 31
0.0
  0
LWPOLYLINE
  5
B1
330
17
100
AcDbEntity
  8
Layer
100
AcDbPolyline
 90
5
 70
0
 10
358.7293577981651
 20
184.8222437618384
 10
363.7293577981651
 20
189.8222437618384
 10
368.7293577981651
 20
184.8222437618384
 10
363.7293577981651
 20
179.8222437618384
 10
358.7293577981651
 20
184.8222437618384
  0
LINE
  5
B2
330
17
100
AcDbEntity
  8
Layer
 62
7
100
AcDbLine
 10
363.7293577981651
 20
192.77460850396864
 30
0.0
 11
363.7293577981651
 21
204.77460850396864
 31
0.0
  0
LWPOLYLINE
  5
B3
330
17
100
AcDbEntity
  8
Layer
100
AcDbPolyline
 90
5
 70
0
 10
358.7293577981651
 20
198.77460850396864
 10
363.7293577981651
 20
203.77460850396864
 10
368.7293577981651
 20
198.77460850396864
 10
363.7293577981651
 20
193.77460850396864
 10
358.7293577981651
 20
198.77460850396864
  0
LWPOLYLINE
  5
B4
330
17
100
AcDbEntity
  8
NumLabel
 62
1
100
AcDbPolyline
 90
2
 70
0
 10
179.85321100917432
 20
180.5619266055046
 10
177.85321100917432
 20
180.5619266055046
  0
LWPOLYLINE
  5
B5
330
17
100
AcDbEntity
  8
NumLabel
 62
1
100
AcDbPolyline
 90
4
 70
0
 10
176.85321100917432
 20
180.5619266055046
 10
174.85321100917432
 20
180.5619266055046
 10
174.85321100917432
 20
170.5619266055046
 10
176.85321100917432
 20
170.5619266055046
  0
LWPOLYLINE
  5
B6
330
17
100
AcDbEntity
  8
NumLabel
 62
1
100
AcDbPolyline
 90
4
 70
0
 10
177.85321100917432
 20
170.5619266055046
 10
179.85321100917432
 20
170.5619266055046
 10
179.85321100917432
 20
175.5619266055046
 10
177.85321100917432
 20
175.5619266055046
  0
LWPOLYLINE
  5
B7
330
17
100
AcDbEntity
  8
NumLabel
 62
1
100
AcDbPolyline
 90
2
 70
0
 10
176.85321100917432
 20
175.5619266055046
 10
174.85321100917432
 20
175.5619266055046
  0
LWPOLYLINE
  5
B8
330
17
100
AcDbEntity
  8
NumLabel
 62
1
100
AcDbPolyline
 90
2
 70
0
 10
187.35321100917432
 20
175.5619266055046
 10
185.35321100917432
 20
175.5619266055046
  0
LWPOLYLINE
  5
B9
330
17
100
AcDbEntity
  8
NumLabel
 62
1
100
AcDbPolyline
 90
4
 70
0
 10
184.35321100917432
 20
175.5619266055046
 10
182.35321100917432
 20
175.5619266055046
 10
182.35321100917432
 20
180.5619266055046
 10
184.35321100917432
 20
180.5619266055046
  0
LWPOLYLINE
  5
BA
330
17
100
AcDbEntity
  8
NumLabel
 62
1
100
AcDbPolyline
 90
4
 70
0
 10
185.35321100917432
 20
180.5619266055046
 10
187.35321100917432
 20
180.5619266055046
 10
187.35321100917432
 20
170.5619266055046
 10
185.35321100917432
 20
170.5619266055046
  0
LWPOLYLINE
  5
BB
330
17
100
AcDbEntity
  8
NumLabel
 62
1
100
AcDbPolyline
 90
2
 70
0
 10
184.35321100917432
 20
170.5619266055046
 10
182.35321100917432
 20
170.5619266055046
  0
ENDSEC
  0
SECTION
  2
OBJECTS
  0
DICTIONARY
  5
A
330
0
100
AcDbDictionary
280
0
281
1
  3
ACAD_COLOR
350
B
  3
ACAD_GROUP
350
C
  3
ACAD_LAYOUT
350
D
  3
ACAD_MATERIAL
350
E
  3
ACAD_MLEADERSTYLE
350
F
  3
ACAD_MLINESTYLE
350
10
  3
ACAD_PLOTSETTINGS
350
11
  3
ACAD_PLOTSTYLENAME
350
12
  3
ACAD_SCALELIST
350
14
  3
ACAD_TABLESTYLE
350
15
  3
ACAD_VISUALSTYLE
350
16
  3
EZDXF_META
350
2D
  0
DICTIONARY
  5
B
330
A
100
AcDbDictionary
280
0
281
1
  0
DICTIONARY
  5
C
330
A
100
AcDbDictionary
280
0
281
1
  0
DICTIONARY
  5
D
330
A
100
AcDbDictionary
280
0
281
1
  3
Model
350
1A
  3
Layout1
350
1E
  0
DICTIONARY
  5
E
330
A
100
AcDbDictionary
280
0
281
1
  3
ByBlock
350
1F
  3
ByLayer
350
20
  3
Global
350
21
  0
DICTIONARY
  5
F
330
A
100
AcDbDictionary
280
0
281
1
  3
Standard
350
2C
  0
DICTIONARY
  5
10
330
A
100
AcDbDictionary
280
0
281
1
  3
Standard
350
22
  0
DICTIONARY
  5
11
330
A
100
AcDbDictionary
280
0
281
1
  0
ACDBDICTIONARYWDFLT
  5
12
330
A
100
AcDbDictionary
280
0
281
1
  3
Normal
350
13
100
AcDbDictionaryWithDefault
340
13
  0
ACDBPLACEHOLDER
  5
13
330
12
  0
DICTIONARY
  5
14
330
A
100
AcDbDictionary
280
0
281
1
  0
DICTIONARY
  5
15
330
A
100
AcDbDictionary
280
0
281
1
  0
DICTIONARY
  5
16
330
A
100
AcDbDictionary
280
0
281
1
  3
2dWireframe
350
5A
  3
Basic
350
5B
  3
Brighten
350
5C
  3
ColorChange
350
5D
  3
Conceptual
350
5E
  3
Dim
350
5F
  3
EdgeColorOff
350
60
  3
Facepattern
350
61
  3
Flat
350
62
  3
FlatWithEdges
350
63
  3
Gouraud
350
64
  3
GouraudWithEdges
350
65
  3
Hidden
350
66
  3
JitterOff
350
67
  3
Linepattern
350
68
  3
Modeling
350
69
  3
OverhangOff
350
6A
  3
Realistic
350
6B
  3
Shaded
350
6C
  3
Shaded with edges
350
6D
  3
Shades of Gray
350
6E
  3
Sketchy
350
6F
  3
Thicken
350
70
  3
Wireframe
350
71
  3
X-Ray
350
72
  0
LAYOUT
  5
1A
330
D
100
AcDbPlotSettings
  1

  2
Adobe PDF
  4
A3
  6

 40
7.5
 41
20.0
 42
7.5
 43
20.0
 44
420.0
 45
297.0
 46
0.0
 47
0.0
 48
0.0
 49
0.0
140
0.0
141
0.0
142
1.0
143
1.0
 70
1024
 72
1
 73
0
 74
5
  7

 75
16
 76
0
 77
2
 78
300
147
1.0
148
0.0
149
0.0
100
AcDbLayout
  1
Model
 70
1
 71
0
 10
0.0
 20
0.0
 11
420.0
 21
297.0
 12
0.0
 22
0.0
 32
0.0
 14
1e+20
 24
1e+20
 34
1e+20
 15
-1e+20
 25
-1e+20
 35
-1e+20
146
0.0
 13
0.0
 23
0.0
 33
0.0
 16
1.0
 26
0.0
 36
0.0
 17
0.0
 27
1.0
 37
0.0
 76
1
330
17
  0
LAYOUT
  5
1E
330
D
100
AcDbPlotSettings
  1

  2
Adobe PDF
  4
A3
  6

 40
7.5
 41
20.0
 42
7.5
 43
20.0
 44
420.0
 45
297.0
 46
0.0
 47
0.0
 48
0.0
 49
0.0
140
0.0
141
0.0
142
1.0
143
1.0
 70
0
 72
1
 73
0
 74
5
  7

 75
16
 76
0
 77
2
 78
300
147
1.0
148
0.0
149
0.0
100
AcDbLayout
  1
Layout1
 70
1
 71
1
 10
0.0
 20
0.0
 11
420.0
 21
297.0
 12
0.0
 22
0.0
 32
0.0
 14
1e+20
 24
1e+20
 34
1e+20
 15
-1e+20
 25
-1e+20
 35
-1e+20
146
0.0
 13
0.0
 23
0.0
 33
0.0
 16
1.0
 26
0.0
 36
0.0
 17
0.0
 27
1.0
 37
0.0
 76
1
330
1B
  0
MATERIAL
  5
1F
102
{ACAD_REACTORS
330
E
102
}
330
E
100
AcDbMaterial
  1
ByBlock
  2

 70
0
 40
1.0
 71
1
 41
1.0
 91
-1023410177
 42
1.0
 72
1
  3

 73
1
 74
1
 75
1
 44
0.5
 73
0
 45
1.0
 46
1.0
 77
1
  4

 78
1
 79
1
170
1
 48
1.0
171
1
  6

172
1
173
1
174
1
140
1.0
141
1.0
175
1
  7

176
1
177
1
178
1
143
1.0
179
1
  8

270
1
271
1
272
1
145
1.0
146
1.0
273
1
  9

274
1
275
1
276
1
 42
1.0
 72
1
  3

 73
1
 74
1
 75
1
 94
63
  0
MATERIAL
  5
20
102
{ACAD_REACTORS
330
E
102
}
330
E
100
AcDbMaterial
  1
ByLayer
  2

 70
0
 40
1.0
 71
1
 41
1.0
 91
-1023410177
 42
1.0
 72
1
  3

 73
1
 74
1
 75
1
 44
0.5
 73
0
 45
1.0
 46
1.0
 77
1
  4

 78
1
 79
1
170
1
 48
1.0
171
1
  6

172
1
173
1
174
1
140
1.0
141
1.0
175
1
  7

176
1
177
1
178
1
143
1.0
179
1
  8

270
1
271
1
272
1
145
1.0
146
1.0
273
1
  9

274
1
275
1
276
1
 42
1.0
 72
1
  3

 73
1
 74
1
 75
1
 94
63
  0
MATERIAL
  5
21
102
{ACAD_REACTORS
330
E
102
}
330
E
100
AcDbMaterial
  1
Global
  2

 70
0
 40
1.0
 71
1
 41
1.0
 91
-1023410177
 42
1.0
 72
1
  3

 73
1
 74
1
 75
1
 44
0.5
 73
0
 45
1.0
 46
1.0
 77
1
  4

 78
1
 79
1
170
1
 48
1.0
171
1
  6

172
1
173
1
174
1
140
1.0
141
1.0
175
1
  7

176
1
177
1
178
1
143
1.0
179
1
  8

270
1
271
1
272
1
145
1.0
146
1.0
273
1
  9

274
1
275
1
276
1
 42
1.0
 72
1
  3

 73
1
 74
1
 75
1
 94
63
  0
MLINESTYLE
  5
22
102
{ACAD_REACTORS
330
10
102
}
330
10
100
AcDbMlineStyle
  2
Standard
 70
0
  3

 62
256
 51
90.0
 52
90.0
 71
2
 49
0.5
 62
256
  6
BYLAYER
 49
-0.5
 62
256
  6
BYLAYER
  0
MLEADERSTYLE
  5
2C
102
{ACAD_REACTORS
330
F
102
}
330
F
100
AcDbMLeaderStyle
179
2
170
2
171
1
172
0
 90
2
 40
0.0
 41
0.0
173
1
 91
-1056964608
 92
-2
290
1
 42
2.0
291
1
 43
8.0
  3
Standard
 44
4.0
300

342
29
174
1
175
1
176
0
178
1
 93
-1056964608
 45
4.0
292
0
297
0
 46
4.0
 94
-1056964608
 47
1.0
 49
1.0
140
1.0
294
1
141
0.0
177
0
142
1.0
295
0
296
0
143
3.75
271
0
272
9
273
9
  0
DICTIONARY
  5
2D
330
A
100
AcDbDictionary
281
1
  3
CREATED_BY_EZDXF
350
2E
  3
WRITTEN_BY_EZDXF
350
BE
  0
DICTIONARYVAR
  5
2E
330
2D
100
DictionaryVariables
280
0
  1
1.3.0 @ 2026-01-06T17:07:24.011817+00:00
  0
VISUALSTYLE
  5
5A
102
{ACAD_REACTORS
330
16
102
}
330
16
100
AcDbVisualStyle
  2
2dWireframe
 70
4
 90
0
 40
0.6
 62
7
290
0
291
0
  0
VISUALSTYLE
  5
5B
102
{ACAD_REACTORS
330
16
102
}
330
16
100
AcDbVisualStyle
  2
Basic
 70
7
 90
1
 40
0.6
 62
7
290
0
291
1
  0
VISUALSTYLE
  5
5C
102
{ACAD_REACTORS
330
16
102
}
330
16
100
AcDbVisualStyle
  2
Brighten
 70
12
 90
2
 40
0.6
 62
7
290
0
291
1
  0
VISUALSTYLE
  5
5D
102
{ACAD_REACTORS
330
16
102
}
330
16
100
AcDbVisualStyle
  2
ColorChange
 70
16
 90
2
 40
0.6
 62
8
290
0
291
1
  0
VISUALSTYLE
  5
5E
102
{ACAD_REACTORS
330
16
102
}
330
16
100
AcDbVisualStyle
  2
Conceptual
 70
9
 90
3
 40
0.6
 62
7
290
0
291
0
  0
VISUALSTYLE
  5
5F
102
{ACAD_REACTORS
330
16
102
}
330
16
100
AcDbVisualStyle
  2
Dim
 70
11
 90
2
 40
0.6
 62
7
290
0
291
1
  0
VISUALSTYLE
  5
60
102
{ACAD_REACTORS
330
16
102
}
330
16
100
AcDbVisualStyle
  2
EdgeColorOff
 70
22
 90
2
 40
0.6
 62
7
290
0
291
1
  0
VISUALSTYLE
  5
61
102
{ACAD_REACTORS
330
16
102
}
330
16
100
AcDbVisualStyle
  2
Facepattern
 70
15
 90
2
 40
0.6
 62
7
290
0
291
1
  0
VISUALSTYLE
  5
62
102
{ACAD_REACTORS
330
16
102
}
330
16
100
AcDbVisualStyle
  2
Flat
 70
0
 90
2
 40
0.6
 62
7
290
0
291
1
  0
VISUALSTYLE
  5
63
102
{ACAD_REACTORS
330
16
102
}
330
16
100
AcDbVisualStyle
  2
FlatWithEdges
 70
1
 90
2
 40
0.6
 62
7
290
0
291
1
  0
VISUALSTYLE
  5
64
102
{ACAD_REACTORS
330
16
102
}
330
16
100
AcDbVisualStyle
  2
Gouraud
 70
2
 90
2
 40
0.6
 62
7
290
0
291
1
  0
VISUALSTYLE
  5
65
102
{ACAD_REACTORS
330
16
102
}
330
16
100
AcDbVisualStyle
  2
GouraudWithEdges
 70
3
 90
2
 40
0.6
 62
7
290
0
291
1
  0
VISUALSTYLE
  5
66
102
{ACAD_REACTORS
330
16
102
}
330
16
100
AcDbVisualStyle
  2
Hidden
 70
6
 90
1
 40
0.6
 62
7
290
0
291
0
  0
VISUALSTYLE
  5
67
102
{ACAD_REACTORS
330
16
102
}
330
16
100
AcDbVisualStyle
  2
JitterOff
 70
20
 90
2
 40
0.6
 62
7
290
0
291
1
  0
VISUALSTYLE
  5
68
102
{ACAD_REACTORS
330
16
102
}
330
16
100
AcDbVisualStyle
  2
Linepattern
 70
14
 90
2
 40
0.6
 62
7
290
0
291
1
  0
VISUALSTYLE
  5
69
102
{ACAD_REACTORS
330
16
102
}
330
16
100
AcDbVisualStyle
  2
Modeling
 70
10
 90
2
 40
0.6
 62
7
290
0
291
0
  0
VISUALSTYLE
  5
6A
102
{ACAD_REACTORS
330
16
102
}
330
16
100
AcDbVisualStyle
  2
OverhangOff
 70
21
 90
2
 40
0.6
 62
7
290
0
291
1
  0
VISUALSTYLE
  5
6B
102
{ACAD_REACTORS
330
16
102
}
330
16
100
AcDbVisualStyle
  2
Realistic
 70
8
 90
2
 40
0.6
 62
7
290
0
291
0
  0
VISUALSTYLE
  5
6C
102
{ACAD_REACTORS
330
16
102
}
330
16
100
AcDbVisualStyle
  2
Shaded
 70
27
 90
2
 40
0.6
 62
7
290
0
291
0
  0
VISUALSTYLE
  5
6D
102
{ACAD_REACTORS
330
16
102
}
330
16
100
AcDbVisualStyle
  2
Shaded with edges
 70
26
 90
2
 40
0.6
 62
7
290
0
291
0
  0
VISUALSTYLE
  5
6E
102
{ACAD_REACTORS
330
16
102
}
330
16
100
AcDbVisualStyle
  2
Shades of Gray
 70
23
 90
2
 40
0.6
 62
7
290
0
291
0
  0
VISUALSTYLE
  5
6F
102
{ACAD_REACTORS
330
16
102
}
330
16
100
AcDbVisualStyle
  2
Sketchy
 70
24
 90
1
 40
0.6
 62
7
290
0
291
0
  0
VISUALSTYLE
  5
70
102
{ACAD_REACTORS
330
16
102
}
330
16
100
AcDbVisualStyle
  2
Thicken
 70
13
 90
2
 40
0.6
 62
7
290
0
291
1
  0
VISUALSTYLE
  5
71
102
{ACAD_REACTORS
330
16
102
}
330
16
100
AcDbVisualStyle
  2
Wireframe
 70
5
 90
0
 40
0.6
 62
7
290
0
291
0
  0
VISUALSTYLE
  5
72
102
{ACAD_REACTORS
330
16
102
}
330
16
100
AcDbVisualStyle
  2
X-Ray
 70
25
 90
2
 40
0.5
 62
7
290
0
291
0
  0
DICTIONARYVAR
  5
BE
330
2D
100
DictionaryVariables
280
0
  1
1.3.0 @ 2026-01-06T17:07:24.084597+00:00
  0
ENDSEC
  0
EOF
