  0
SECTION
  2
HEADER
  9
$ACADVER
  1
AC1021
  9
$ACADMAINTVER
 70
25
  9
$DWGCODEPAGE
  3
ANSI_1252
  9
$LASTSAVEDBY
  1
ezdxf
  9
$INSBASE
 10
0.0
 20
0.0
 30
0.0
  9
$EXTMIN
 10
1e+20
 20
1e+20
 30
1e+20
  9
$EXTMAX
 10
-1e+20
 20
-1e+20
 30
-1e+20
  9
$LIMMIN
 10
0.0
 20
0.0
  9
$LIMMAX
 10
420.0
 20
297.0
  9
$ORTHOMODE
 70
0
  9
$REGENMODE
 70
1
  9
$FILLMODE
 70
1
  9
$QTEXTMODE
 70
0
  9
$MIRRTEXT
 70
1
  9
$LTSCALE
 40
1.0
  9
$ATTMODE
 70
1
  9
$TEXTSIZE
 40
2.5
  9
$TRACEWID
 40
1.0
  9
$TEXTSTYLE
  7
OpenSans
  9
$CLAYER
  8
0
  9
$CELTYPE
  6
ByLayer
  9
$CECOLOR
 62
256
  9
$CELTSCALE
 40
1.0
  9
$DISPSILH
 70
0
  9
$DIMSCALE
 40
1.0
  9
$DIMASZ
 40
0.175
  9
$DIMEXO
 40
0.125
  9
$DIMDLI
 40
3.75
  9
$DIMRND
 40
0.0
  9
$DIMDLE
 40
0.0
  9
$DIMEXE
 40
0.375
  9
$DIMTP
 40
0.0
  9
$DIMTM
 40
0.0
  9
$DIMTXT
 40
0.25
  9
$DIMCEN
 40
2.5
  9
$DIMTSZ
 40
0.0
  9
$DIMTOL
 70
0
  9
$DIMLIM
 70
0
  9
$DIMTIH
 70
0
  9
$DIMTOH
 70
0
  9
$DIMSE1
 70
0
  9
$DIMSE2
 70
0
  9
$DIMTAD
 70
1
  9
$DIMZIN
 70
12
  9
$DIMBLK
  1
ARCHTICK
  9
$DIMASO
 70
1
  9
$DIMSHO
 70
1
  9
$DIMPOST
  1

  9
$DIMAPOST
  1

  9
$DIMALT
 70
0
  9
$DIMALTD
 70
3
  9
$DIMALTF
 40
0.03937007874
  9
$DIMLFAC
 40
100.0
  9
$DIMTOFL
 70
1
  9
$DIMTVP
 40
0.0
  9
$DIMTIX
 70
0
  9
$DIMSOXD
 70
0
  9
$DIMSAH
 70
0
  9
$DIMBLK1
  1

  9
$DIMBLK2
  1

  9
$DIMSTYLE
  2
EZDXF
  9
$DIMCLRD
 70
0
  9
$DIMCLRE
 70
0
  9
$DIMCLRT
 70
0
  9
$DIMTFAC
 40
0.5
  9
$DIMGAP
 40
0.1
  9
$DIMJUST
 70
0
  9
$DIMSD1
 70
0
  9
$DIMSD2
 70
0
  9
$DIMTOLJ
 70
0
  9
$DIMTZIN
 70
8
  9
$DIMALTZ
 70
0
  9
$DIMALTTZ
 70
0
  9
$DIMUPT
 70
1
  9
$DIMDEC
 70
2
  9
$DIMTDEC
 70
2
  9
$DIMALTU
 70
2
  9
$DIMALTTD
 70
3
  9
$DIMTXSTY
  7
OpenSansCondensed-Light
  9
$DIMAUNIT
 70
0
  9
$DIMADEC
 70
2
  9
$DIMALTRND
 40
0.0
  9
$DIMAZIN
 70
3
  9
$DIMDSEP
 70
46
  9
$DIMATFIT
 70
3
  9
$DIMFRAC
 70
0
  9
$DIMLDRBLK
  1

  9
$DIMLUNIT
 70
2
  9
$DIMLWD
 70
-2
  9
$DIMLWE
 70
-2
  9
$DIMTMOVE
 70
2
  9
$DIMFXL
 40
1.0
  9
$DIMFXLON
 70
0
  9
$DIMJOGANG
 40
0.785398163397
  9
$DIMTFILL
 70
0
  9
$DIMTFILLCLR
 70
0
  9
$DIMARCSYM
 70
0
  9
$DIMLTYPE
  6

  9
$DIMLTEX1
  6

  9
$DIMLTEX2
  6

  9
$LUNITS
 70
2
  9
$LUPREC
 70
4
  9
$SKETCHINC
 40
1.0
  9
$FILLETRAD
 40
10.0
  9
$AUNITS
 70
0
  9
$AUPREC
 70
2
  9
$MENU
  1
.
  9
$ELEVATION
 40
0.0
  9
$PELEVATION
 40
0.0
  9
$THICKNESS
 40
0.0
  9
$LIMCHECK
 70
0
  9
$CHAMFERA
 40
0.0
  9
$CHAMFERB
 40
0.0
  9
$CHAMFERC
 40
0.0
  9
$CHAMFERD
 40
0.0
  9
$SKPOLY
 70
0
  9
$TDCREATE
 40
2461048.0884722224
  9
$TDUCREATE
 40
2458532.153996898
  9
$TDUPDATE
 40
2461048.0884722224
  9
$TDUUPDATE
 40
2458532.1544311
  9
$TDINDWG
 40
0.0
  9
$TDUSRTIMER
 40
0.0
  9
$USRTIMER
 70
1
  9
$ANGBASE
 50
0.0
  9
$ANGDIR
 70
0
  9
$PDMODE
 70
0
  9
$PDSIZE
 40
0.0
  9
$PLINEWID
 40
0.0
  9
$SPLFRAME
 70
0
  9
$SPLINETYPE
 70
6
  9
$SPLINESEGS
 70
8
  9
$HANDSEED
  5
B3
  9
$SURFTAB1
 70
6
  9
$SURFTAB2
 70
6
  9
$SURFTYPE
 70
6
  9
$SURFU
 70
6
  9
$SURFV
 70
6
  9
$UCSBASE
  2

  9
$UCSNAME
  2

  9
$UCSORG
 10
0.0
 20
0.0
 30
0.0
  9
$UCSXDIR
 10
1.0
 20
0.0
 30
0.0
  9
$UCSYDIR
 10
0.0
 20
1.0
 30
0.0
  9
$UCSORTHOREF
  2

  9
$UCSORTHOVIEW
 70
0
  9
$UCSORGTOP
 10
0.0
 20
0.0
 30
0.0
  9
$UCSORGBOTTOM
 10
0.0
 20
0.0
 30
0.0
  9
$UCSORGLEFT
 10
0.0
 20
0.0
 30
0.0
  9
$UCSORGRIGHT
 10
0.0
 20
0.0
 30
0.0
  9
$UCSORGFRONT
 10
0.0
 20
0.0
 30
0.0
  9
$UCSORGBACK
 10
0.0
 20
0.0
 30
0.0
  9
$PUCSBASE
  2

  9
$PUCSNAME
  2

  9
$PUCSORG
 10
0.0
 20
0.0
 30
0.0
  9
$PUCSXDIR
 10
1.0
 20
0.0
 30
0.0
  9
$PUCSYDIR
 10
0.0
 20
1.0
 30
0.0
  9
$PUCSORTHOREF
  2

  9
$PUCSORTHOVIEW
 70
0
  9
$PUCSORGTOP
 10
0.0
 20
0.0
 30
0.0
  9
$PUCSORGBOTTOM
 10
0.0
 20
0.0
 30
0.0
  9
$PUCSORGLEFT
 10
0.0
 20
0.0
 30
0.0
  9
$PUCSORGRIGHT
 10
0.0
 20
0.0
 30
0.0
  9
$PUCSORGFRONT
 10
0.0
 20
0.0
 30
0.0
  9
$PUCSORGBACK
 10
0.0
 20
0.0
 30
0.0
  9
$USERI1
 70
0
  9
$USERI2
 70
0
  9
$USERI3
 70
0
  9
$USERI4
 70
0
  9
$USERI5
 70
0
  9
$USERR1
 40
0.0
  9
$USERR2
 40
0.0
  9
$USERR3
 40
0.0
  9
$USERR4
 40
0.0
  9
$USERR5
 40
0.0
  9
$WORLDVIEW
 70
1
  9
$SHADEDGE
 70
3
  9
$SHADEDIF
 70
70
  9
$TILEMODE
 70
1
  9
$MAXACTVP
 70
64
  9
$PINSBASE
 10
0.0
 20
0.0
 30
0.0
  9
$PLIMCHECK
 70
0
  9
$PEXTMIN
 10
1e+20
 20
1e+20
 30
1e+20
  9
$PEXTMAX
 10
-1e+20
 20
-1e+20
 30
-1e+20
  9
$PLIMMIN
 10
0.0
 20
0.0
  9
$PLIMMAX
 10
420.0
 20
297.0
  9
$UNITMODE
 70
0
  9
$VISRETAIN
 70
1
  9
$PLINEGEN
 70
0
  9
$PSLTSCALE
 70
1
  9
$TREEDEPTH
 70
3020
  9
$CMLSTYLE
  2
Standard
  9
$CMLJUST
 70
0
  9
$CMLSCALE
 40
20.0
  9
$PROXYGRAPHICS
 70
1
  9
$MEASUREMENT
 70
1
  9
$CELWEIGHT
370
-1
  9
$ENDCAPS
280
0
  9
$JOINSTYLE
280
0
  9
$LWDISPLAY
290
0
  9
$INSUNITS
 70
6
  9
$HYPERLINKBASE
  1

  9
$STYLESHEET
  1

  9
$XEDIT
290
1
  9
$CEPSNTYPE
380
0
  9
$PSTYLEMODE
290
1
  9
$FINGERPRINTGUID
  2
{28882205-EC6C-446D-B957-0F134EBA2B83}
  9
$VERSIONGUID
  2
{37F1D0FB-BC1B-4860-B6D1-5189250B594E}
  9
$EXTNAMES
290
1
  9
$PSVPSCALE
 40
0.0
  9
$OLESTARTUP
290
0
  9
$SORTENTS
280
127
  9
$INDEXCTL
280
0
  9
$HIDETEXT
280
1
  9
$XCLIPFRAME
290
1
  9
$HALOGAP
280
0
  9
$OBSCOLOR
 70
257
  9
$OBSLTYPE
280
0
  9
$INTERSECTIONDISPLAY
280
0
  9
$INTERSECTIONCOLOR
 70
257
  9
$DIMASSOC
280
2
  9
$PROJECTNAME
  1

  9
$CAMERADISPLAY
290
0
  9
$LENSLENGTH
 40
50.0
  9
$CAMERAHEIGHT
 40
0.0
  9
$STEPSPERSEC
 40
24.0
  9
$STEPSIZE
 40
100.0
  9
$3DDWFPREC
 40
2.0
  9
$PSOLWIDTH
 40
0.005
  9
$PSOLHEIGHT
 40
0.08
  9
$LOFTANG1
 40
1.570796326795
  9
$LOFTANG2
 40
1.570796326795
  9
$LOFTMAG1
 40
0.0
  9
$LOFTMAG2
 40
0.0
  9
$LOFTPARAM
 70
7
  9
$LOFTNORMALS
280
1
  9
$LATITUDE
 40
37.795
  9
$LONGITUDE
 40
-122.394
  9
$NORTHDIRECTION
 40
0.0
  9
$TIMEZONE
 70
-8000
  9
$LIGHTGLYPHDISPLAY
280
1
  9
$TILEMODELIGHTSYNCH
280
1
  9
$CMATERIAL
347
20
  9
$SOLIDHIST
280
0
  9
$SHOWHIST
280
1
  9
$DWFFRAME
280
2
  9
$DGNFRAME
280
2
  9
$REALWORLDSCALE
290
1
  9
$INTERFERECOLOR
 62
256
  9
$CSHADOW
280
0
  9
$SHADOWPLANELOCATION
 40
0.0
  0
ENDSEC
  0
SECTION
  2
CLASSES
  0
CLASS
  1
ACDBDICTIONARYWDFLT
  2
AcDbDictionaryWithDefault
  3
ObjectDBX Classes
 90
0
 91
0
280
0
281
0
  0
CLASS
  1
SUN
  2
AcDbSun
  3
SCENEOE
 90
1153
 91
0
280
0
281
0
  0
CLASS
  1
VISUALSTYLE
  2
AcDbVisualStyle
  3
ObjectDBX Classes
 90
4095
 91
0
280
0
281
0
  0
CLASS
  1
MATERIAL
  2
AcDbMaterial
  3
ObjectDBX Classes
 90
1153
 91
0
280
0
281
0
  0
CLASS
  1
SCALE
  2
AcDbScale
  3
ObjectDBX Classes
 90
1153
 91
0
280
0
281
0
  0
CLASS
  1
TABLESTYLE
  2
AcDbTableStyle
  3
ObjectDBX Classes
 90
4095
 91
0
280
0
281
0
  0
CLASS
  1
MLEADERSTYLE
  2
AcDbMLeaderStyle
  3
ACDB_MLEADERSTYLE_CLASS
 90
4095
 91
0
280
0
281
0
  0
CLASS
  1
DICTIONARYVAR
  2
AcDbDictionaryVar
  3
ObjectDBX Classes
 90
0
 91
0
280
0
281
0
  0
CLASS
  1
CELLSTYLEMAP
  2
AcDbCellStyleMap
  3
ObjectDBX Classes
 90
1152
 91
0
280
0
281
0
  0
CLASS
  1
MENTALRAYRENDERSETTINGS
  2
AcDbMentalRayRenderSettings
  3
SCENEOE
 90
1024
 91
0
280
0
281
0
  0
CLASS
  1
ACDBDETAILVIEWSTYLE
  2
AcDbDetailViewStyle
  3
ObjectDBX Classes
 90
1025
 91
0
280
0
281
0
  0
CLASS
  1
ACDBSECTIONVIEWSTYLE
  2
AcDbSectionViewStyle
  3
ObjectDBX Classes
 90
1025
 91
0
280
0
281
0
  0
CLASS
  1
RASTERVARIABLES
  2
AcDbRasterVariables
  3
ISM
 90
0
 91
0
280
0
281
0
  0
CLASS
  1
ACDBPLACEHOLDER
  2
AcDbPlaceHolder
  3
ObjectDBX Classes
 90
0
 91
0
280
0
281
0
  0
CLASS
  1
LAYOUT
  2
AcDbLayout
  3
ObjectDBX Classes
 90
0
 91
0
280
0
281
0
  0
ENDSEC
  0
SECTION
  2
TABLES
  0
TABLE
  2
VPORT
  5
8
330
0
100
AcDbSymbolTable
 70
1
  0
VPORT
  5
23
330
8
100
AcDbSymbolTableRecord
100
AcDbViewportTableRecord
  2
*Active
 70
0
 10
0.0
 20
0.0
 11
1.0
 21
1.0
 12
0.0
 22
0.0
 13
0.0
 23
0.0
 14
0.5
 24
0.5
 15
0.5
 25
0.5
 16
0.0
 26
0.0
 36
1.0
 17
0.0
 27
0.0
 37
0.0
 40
1000.0
 41
1.34
 42
50.0
 43
0.0
 44
0.0
 50
0.0
 51
0.0
 71
0
 72
1000
 73
1
 74
3
 75
0
 76
0
 77
0
 78
0
281
0
 65
0
146
0.0
  0
ENDTAB
  0
TABLE
  2
LTYPE
  5
2
330
0
100
AcDbSymbolTable
 70
21
  0
LTYPE
  5
24
330
2
100
AcDbSymbolTableRecord
100
AcDbLinetypeTableRecord
  2
ByBlock
 70
0
  3

 72
65
 73
0
 40
0.0
  0
LTYPE
  5
25
330
2
100
AcDbSymbolTableRecord
100
AcDbLinetypeTableRecord
  2
ByLayer
 70
0
  3

 72
65
 73
0
 40
0.0
  0
LTYPE
  5
26
330
2
100
AcDbSymbolTableRecord
100
AcDbLinetypeTableRecord
  2
Continuous
 70
0
  3

 72
65
 73
0
 40
0.0
  0
LTYPE
  5
2F
330
2
100
AcDbSymbolTableRecord
100
AcDbLinetypeTableRecord
  2
CENTER
 70
0
  3
Center ____ _ ____ _ ____ _ ____ _ ____ _ ____
 72
65
 73
4
 40
5.08
 49
3.175
 74
0
 49
-0.635
 74
0
 49
0.635
 74
0
 49
-0.635
 74
0
  0
LTYPE
  5
30
330
2
100
AcDbSymbolTableRecord
100
AcDbLinetypeTableRecord
  2
CENTERX2
 70
0
  3
Center (2x) ________  __  ________  __  ________
 72
65
 73
4
 40
8.89
 49
6.35
 74
0
 49
-0.635
 74
0
 49
1.27
 74
0
 49
-0.635
 74
0
  0
LTYPE
  5
31
330
2
100
AcDbSymbolTableRecord
100
AcDbLinetypeTableRecord
  2
CENTER2
 70
0
  3
Center (.5x) ____ _ ____ _ ____ _ ____ _ ____
 72
65
 73
4
 40
2.54
 49
1.587
 74
0
 49
-0.318
 74
0
 49
0.318
 74
0
 49
-0.318
 74
0
  0
LTYPE
  5
32
330
2
100
AcDbSymbolTableRecord
100
AcDbLinetypeTableRecord
  2
DASHED
 70
0
  3
Dashed __ __ __ __ __ __ __ __ __ __ __ __ __ _
 72
65
 73
2
 40
1.524
 49
1.27
 74
0
 49
-0.254
 74
0
  0
LTYPE
  5
33
330
2
100
AcDbSymbolTableRecord
100
AcDbLinetypeTableRecord
  2
DASHEDX2
 70
0
  3
Dashed (2x) ____  ____  ____  ____  ____  ____
 72
65
 73
2
 40
3.048
 49
2.54
 74
0
 49
-0.508
 74
0
  0
LTYPE
  5
34
330
2
100
AcDbSymbolTableRecord
100
AcDbLinetypeTableRecord
  2
DASHED2
 70
0
  3
Dashed (.5x) _ _ _ _ _ _ _ _ _ _ _ _ _ _
 72
65
 73
2
 40
0.762
 49
0.635
 74
0
 49
-0.127
 74
0
  0
LTYPE
  5
35
330
2
100
AcDbSymbolTableRecord
100
AcDbLinetypeTableRecord
  2
PHANTOM
 70
0
  3
Phantom ______  __  __  ______  __  __  ______
 72
65
 73
6
 40
6.35
 49
3.175
 74
0
 49
-0.635
 74
0
 49
0.635
 74
0
 49
-0.635
 74
0
 49
0.635
 74
0
 49
-0.635
 74
0
  0
LTYPE
  5
36
330
2
100
AcDbSymbolTableRecord
100
AcDbLinetypeTableRecord
  2
PHANTOMX2
 70
0
  3
Phantom (2x)____________    ____    ____    ____________
 72
65
 73
6
 40
10.795
 49
6.35
 74
0
 49
-0.635
 74
0
 49
1.27
 74
0
 49
-0.635
 74
0
 49
1.27
 74
0
 49
-0.635
 74
0
  0
LTYPE
  5
37
330
2
100
AcDbSymbolTableRecord
100
AcDbLinetypeTableRecord
  2
PHANTOM2
 70
0
  3
Phantom (.5x) ___ _ _ ___ _ _ ___ _ _ ___ _ _ ___
 72
65
 73
6
 40
3.175
 49
1.587
 74
0
 49
-0.318
 74
0
 49
0.318
 74
0
 49
-0.318
 74
0
 49
0.318
 74
0
 49
-0.318
 74
0
  0
LTYPE
  5
38
330
2
100
AcDbSymbolTableRecord
100
AcDbLinetypeTableRecord
  2
DASHDOT
 70
0
  3
Dash dot __ . __ . __ . __ . __ . __ . __ . __
 72
65
 73
4
 40
3.556
 49
2.54
 74
0
 49
-0.508
 74
0
 49
0.0
 74
0
 49
-0.508
 74
0
  0
LTYPE
  5
39
330
2
100
AcDbSymbolTableRecord
100
AcDbLinetypeTableRecord
  2
DASHDOTX2
 70
0
  3
Dash dot (2x) ____  .  ____  .  ____  .  ____
 72
65
 73
4
 40
6.096
 49
5.08
 74
0
 49
-0.508
 74
0
 49
0.0
 74
0
 49
-0.508
 74
0
  0
LTYPE
  5
3A
330
2
100
AcDbSymbolTableRecord
100
AcDbLinetypeTableRecord
  2
DASHDOT2
 70
0
  3
Dash dot (.5x) _ . _ . _ . _ . _ . _ . _ . _
 72
65
 73
4
 40
1.778
 49
1.27
 74
0
 49
-0.254
 74
0
 49
0.0
 74
0
 49
-0.254
 74
0
  0
LTYPE
  5
3B
330
2
100
AcDbSymbolTableRecord
100
AcDbLinetypeTableRecord
  2
DOT
 70
0
  3
Dot .  .  .  .  .  .  .  .  .  .  .  .  .  .  .  .
 72
65
 73
2
 40
0.508
 49
0.0
 74
0
 49
-0.508
 74
0
  0
LTYPE
  5
3C
330
2
100
AcDbSymbolTableRecord
100
AcDbLinetypeTableRecord
  2
DOTX2
 70
0
  3
Dot (2x) .    .    .    .    .    .    .    . 
 72
65
 73
2
 40
1.016
 49
0.0
 74
0
 49
-1.016
 74
0
  0
LTYPE
  5
3D
330
2
100
AcDbSymbolTableRecord
100
AcDbLinetypeTableRecord
  2
DOT2
 70
0
  3
Dot (.5) . . . . . . . . . . . . . . . . . . . 
 72
65
 73
2
 40
0.254
 49
0.0
 74
0
 49
-0.254
 74
0
  0
LTYPE
  5
3E
330
2
100
AcDbSymbolTableRecord
100
AcDbLinetypeTableRecord
  2
DIVIDE
 70
0
  3
Divide __ . . __ . . __ . . __ . . __ . . __
 72
65
 73
6
 40
4.064
 49
2.54
 74
0
 49
-0.508
 74
0
 49
0.0
 74
0
 49
-0.508
 74
0
 49
0.0
 74
0
 49
-0.508
 74
0
  0
LTYPE
  5
3F
330
2
100
AcDbSymbolTableRecord
100
AcDbLinetypeTableRecord
  2
DIVIDEX2
 70
0
  3
Divide (2x) ____  . .  ____  . .  ____  . .  ____
 72
65
 73
6
 40
6.604
 49
5.08
 74
0
 49
-0.508
 74
0
 49
0.0
 74
0
 49
-0.508
 74
0
 49
0.0
 74
0
 49
-0.508
 74
0
  0
LTYPE
  5
40
330
2
100
AcDbSymbolTableRecord
100
AcDbLinetypeTableRecord
  2
DIVIDE2
 70
0
  3
Divide(.5x) _ . _ . _ . _ . _ . _ . _ . _
 72
65
 73
6
 40
2.032
 49
1.27
 74
0
 49
-0.254
 74
0
 49
0.0
 74
0
 49
-0.254
 74
0
 49
0.0
 74
0
 49
-0.254
 74
0
  0
ENDTAB
  0
TABLE
  2
LAYER
  5
1
330
0
100
AcDbSymbolTable
 70
4
  0
LAYER
  5
27
330
1
100
AcDbSymbolTableRecord
100
AcDbLayerTableRecord
  2
0
 70
0
 62
7
  6
Continuous
370
-3
390
13
347
21
  0
LAYER
  5
28
330
1
100
AcDbSymbolTableRecord
100
AcDbLayerTableRecord
  2
Defpoints
 70
0
 62
7
  6
Continuous
290
0
370
-3
390
13
347
21
  0
LAYER
  5
8A
330
1
100
AcDbSymbolTableRecord
100
AcDbLayerTableRecord
  2
Layer
 70
0
 62
1
  6
Continuous
370
50
390
13
347
21
  0
LAYER
  5
8B
330
1
100
AcDbSymbolTableRecord
100
AcDbLayerTableRecord
  2
NumLabel
 70
0
 62
1
  6
Continuous
370
15
390
13
347
21
  0
ENDTAB
  0
TABLE
  2
STYLE
  5
5
330
0
100
AcDbSymbolTable
 70
26
  0
STYLE
  5
29
330
5
100
AcDbSymbolTableRecord
100
AcDbTextStyleTableRecord
  2
Standard
 70
0
 40
0.0
 41
1.0
 50
0.0
 71
0
 42
2.5
  3
txt
  4

  0
STYLE
  5
41
330
5
100
AcDbSymbolTableRecord
100
AcDbTextStyleTableRecord
  2
OpenSans-Light
 70
0
 40
0.0
 41
1.0
 50
0.0
 71
0
 42
2.5
  3
OpenSans-Light.ttf
  4

  0
STYLE
  5
42
330
5
100
AcDbSymbolTableRecord
100
AcDbTextStyleTableRecord
  2
OpenSans-Light-Italic
 70
0
 40
0.0
 41
1.0
 50
0.0
 71
0
 42
2.5
  3
OpenSans-LightItalic.ttf
  4

  0
STYLE
  5
43
330
5
100
AcDbSymbolTableRecord
100
AcDbTextStyleTableRecord
  2
OpenSans
 70
0
 40
0.0
 41
1.0
 50
0.0
 71
0
 42
2.5
  3
OpenSans-Regular.ttf
  4

  0
STYLE
  5
44
330
5
100
AcDbSymbolTableRecord
100
AcDbTextStyleTableRecord
  2
OpenSans-Italic
 70
0
 40
0.0
 41
1.0
 50
0.0
 71
0
 42
2.5
  3
OpenSans-Italic.ttf
  4

  0
STYLE
  5
45
330
5
100
AcDbSymbolTableRecord
100
AcDbTextStyleTableRecord
  2
OpenSans-SemiBold
 70
0
 40
0.0
 41
1.0
 50
0.0
 71
0
 42
2.5
  3
OpenSans-SemiBold.ttf
  4

  0
STYLE
  5
46
330
5
100
AcDbSymbolTableRecord
100
AcDbTextStyleTableRecord
  2
OpenSans-SemiBoldItalic
 70
0
 40
0.0
 41
1.0
 50
0.0
 71
0
 42
2.5
  3
OpenSans-SemiBoldItalic.ttf
  4

  0
STYLE
  5
47
330
5
100
AcDbSymbolTableRecord
100
AcDbTextStyleTableRecord
  2
OpenSans-Bold
 70
0
 40
0.0
 41
1.0
 50
0.0
 71
0
 42
2.5
  3
OpenSans-Bold.ttf
  4

  0
STYLE
  5
48
330
5
100
AcDbSymbolTableRecord
100
AcDbTextStyleTableRecord
  2
OpenSans-BoldItalic
 70
0
 40
0.0
 41
1.0
 50
0.0
 71
0
 42
2.5
  3
OpenSans-BoldItalic.ttf
  4

  0
STYLE
  5
49
330
5
100
AcDbSymbolTableRecord
100
AcDbTextStyleTableRecord
  2
OpenSans-ExtraBold
 70
0
 40
0.0
 41
1.0
 50
0.0
 71
0
 42
2.5
  3
OpenSans-ExtraBold.ttf
  4

  0
STYLE
  5
4A
330
5
100
AcDbSymbolTableRecord
100
AcDbTextStyleTableRecord
  2
OpenSans-ExtraBoldItalic
 70
0
 40
0.0
 41
1.0
 50
0.0
 71
0
 42
2.5
  3
OpenSans-ExtraBoldItalic.ttf
  4

  0
STYLE
  5
4B
330
5
100
AcDbSymbolTableRecord
100
AcDbTextStyleTableRecord
  2
OpenSansCondensed-Bold
 70
0
 40
0.0
 41
1.0
 50
0.0
 71
0
 42
2.5
  3
OpenSansCondensed-Bold.ttf
  4

  0
STYLE
  5
4C
330
5
100
AcDbSymbolTableRecord
100
AcDbTextStyleTableRecord
  2
OpenSansCondensed-Light
 70
0
 40
0.0
 41
1.0
 50
0.0
 71
0
 42
2.5
  3
OpenSansCondensed-Light.ttf
  4

  0
STYLE
  5
4D
330
5
100
AcDbSymbolTableRecord
100
AcDbTextStyleTableRecord
  2
OpenSansCondensed-Italic
 70
0
 40
0.0
 41
1.0
 50
0.0
 71
0
 42
2.5
  3
OpenSansCondensed-LightItalic.ttf
  4

  0
STYLE
  5
4E
330
5
100
AcDbSymbolTableRecord
100
AcDbTextStyleTableRecord
  2
LiberationSans
 70
0
 40
0.0
 41
1.0
 50
0.0
 71
0
 42
2.5
  3
LiberationSans-Regular.ttf
  4

  0
STYLE
  5
4F
330
5
100
AcDbSymbolTableRecord
100
AcDbTextStyleTableRecord
  2
LiberationSans-Bold
 70
0
 40
0.0
 41
1.0
 50
0.0
 71
0
 42
2.5
  3
LiberationSans-Bold.ttf
  4

  0
STYLE
  5
50
330
5
100
AcDbSymbolTableRecord
100
AcDbTextStyleTableRecord
  2
LiberationSans-BoldItalic
 70
0
 40
0.0
 41
1.0
 50
0.0
 71
0
 42
2.5
  3
LiberationSans-BoldItalic.ttf
  4

  0
STYLE
  5
51
330
5
100
AcDbSymbolTableRecord
100
AcDbTextStyleTableRecord
  2
LiberationSans-Italic
 70
0
 40
0.0
 41
1.0
 50
0.0
 71
0
 42
2.5
  3
LiberationSans-Italic.ttf
  4

  0
STYLE
  5
52
330
5
100
AcDbSymbolTableRecord
100
AcDbTextStyleTableRecord
  2
LiberationSerif
 70
0
 40
0.0
 41
1.0
 50
0.0
 71
0
 42
2.5
  3
LiberationSerif-Regular.ttf
  4

  0
STYLE
  5
53
330
5
100
AcDbSymbolTableRecord
100
AcDbTextStyleTableRecord
  2
LiberationSerif-Bold
 70
0
 40
0.0
 41
1.0
 50
0.0
 71
0
 42
2.5
  3
LiberationSerif-Bold.ttf
  4

  0
STYLE
  5
54
330
5
100
AcDbSymbolTableRecord
100
AcDbTextStyleTableRecord
  2
LiberationSerif-BoldItalic
 70
0
 40
0.0
 41
1.0
 50
0.0
 71
0
 42
2.5
  3
LiberationSerif-BoldItalic.ttf
  4

  0
STYLE
  5
55
330
5
100
AcDbSymbolTableRecord
100
AcDbTextStyleTableRecord
  2
LiberationSerif-Italic
 70
0
 40
0.0
 41
1.0
 50
0.0
 71
0
 42
2.5
  3
LiberationSerif-Italic.ttf
  4

  0
STYLE
  5
56
330
5
100
AcDbSymbolTableRecord
100
AcDbTextStyleTableRecord
  2
LiberationMono
 70
0
 40
0.0
 41
1.0
 50
0.0
 71
0
 42
2.5
  3
LiberationMono-Regular.ttf
  4

  0
STYLE
  5
57
330
5
100
AcDbSymbolTableRecord
100
AcDbTextStyleTableRecord
  2
LiberationMono-Bold
 70
0
 40
0.0
 41
1.0
 50
0.0
 71
0
 42
2.5
  3
LiberationMono-Bold.ttf
  4

  0
STYLE
  5
58
330
5
100
AcDbSymbolTableRecord
100
AcDbTextStyleTableRecord
  2
LiberationMono-BoldItalic
 70
0
 40
0.0
 41
1.0
 50
0.0
 71
0
 42
2.5
  3
LiberationMono-BoldItalic.ttf
  4

  0
STYLE
  5
59
330
5
100
AcDbSymbolTableRecord
100
AcDbTextStyleTableRecord
  2
LiberationMono-Italic
 70
0
 40
0.0
 41
1.0
 50
0.0
 71
0
 42
2.5
  3
LiberationMono-Italic.ttf
  4

  0
ENDTAB
  0
TABLE
  2
VIEW
  5
7
330
0
100
AcDbSymbolTable
 70
0
  0
ENDTAB
  0
TABLE
  2
UCS
  5
6
330
0
100
AcDbSymbolTable
 70
0
  0
ENDTAB
  0
TABLE
  2
APPID
  5
3
330
0
100
AcDbSymbolTable
 70
3
  0
APPID
  5
2A
330
3
100
AcDbSymbolTableRecord
100
AcDbRegAppTableRecord
  2
ACAD
 70
0
  0
APPID
  5
B0
330
3
100
AcDbSymbolTableRecord
100
AcDbRegAppTableRecord
  2
HATCHBACKGROUNDCOLOR
 70
0
  0
APPID
  5
B1
330
3
100
AcDbSymbolTableRecord
100
AcDbRegAppTableRecord
  2
EZDXF
 70
0
  0
ENDTAB
  0
TABLE
  2
DIMSTYLE
  5
4
330
0
100
AcDbSymbolTable
 70
12
100
AcDbDimStyleTable
  0
DIMSTYLE
105
2B
330
4
100
AcDbSymbolTableRecord
100
AcDbDimStyleTableRecord
  2
Standard
 70
0
 40
1.0
 41
2.5
 42
0.625
 43
3.75
 44
1.25
 45
0.0
 46
0.0
 47
0.0
 48
0.0
 49
2.5
140
2.5
141
2.5
142
0.0
143
0.03937007874
144
1.0
145
0.0
146
1.0
147
0.625
148
0.0
 69
0
 70
0
 71
0
 72
0
 73
0
 74
0
 75
0
 76
0
 77
1
 78
8
 79
3
170
0
171
3
172
1
173
0
174
0
175
0
176
0
177
0
178
0
179
2
271
2
272
2
273
2
274
3
275
0
276
0
277
2
278
44
279
0
280
0
281
0
282
0
283
0
284
8
285
0
286
0
288
0
289
3
290
0
371
-2
372
-2
  0
DIMSTYLE
105
73
330
4
100
AcDbSymbolTableRecord
100
AcDbDimStyleTableRecord
  2
EZDXF
 70
0
 40
1.0
 41
0.175
 42
0.125
 43
3.75
 44
0.375
 45
0.0
 46
0.0
 47
0.0
 48
0.0
 49
2.5
140
0.25
141
2.5
142
0.0
143
0.03937007874
144
100.0
145
0.0
146
0.5
147
0.1
148
0.0
 69
0
 70
0
 71
0
 72
0
 73
0
 74
0
 75
0
 76
0
 77
1
 78
12
 79
3
170
0
171
3
172
1
173
0
174
0
175
0
176
0
177
0
178
0
179
2
271
2
272
2
273
2
274
3
275
0
276
0
277
2
278
46
279
2
280
0
281
0
282
0
283
0
284
8
285
0
286
0
288
1
289
3
290
0
340
4C
342
74
371
-2
372
-2
  0
DIMSTYLE
105
7C
330
4
100
AcDbSymbolTableRecord
100
AcDbDimStyleTableRecord
  2
EZ_M_100_H25_CM
 70
0
 40
1.0
 41
0.25
 42
0.125
 43
3.75
 44
0.375
 45
0.0
 46
0.0
 47
0.0
 48
0.0
 49
2.5
140
0.25
141
2.5
142
0.125
143
0.03937007874
144
100.0
145
0.0
146
0.5
147
0.1
148
0.0
 69
0
 70
0
 71
0
 72
0
 73
0
 74
0
 75
0
 76
0
 77
1
 78
12
 79
3
170
0
171
3
172
1
173
0
174
0
175
0
176
0
177
0
178
0
179
2
271
2
272
2
273
2
274
3
275
0
276
0
277
2
278
46
279
2
280
0
281
0
282
0
283
0
284
8
285
0
286
0
288
1
289
3
290
0
340
4C
371
-2
372
-2
  0
DIMSTYLE
105
7D
330
4
100
AcDbSymbolTableRecord
100
AcDbDimStyleTableRecord
  2
EZ_M_50_H25_CM
 70
0
 40
1.0
 41
0.125
 42
0.0625
 43
3.75
 44
0.1875
 45
0.0
 46
0.0
 47
0.0
 48
0.0
 49
2.5
140
0.125
141
2.5
142
0.0625
143
0.03937007874
144
100.0
145
0.0
146
0.5
147
0.05
148
0.0
 69
0
 70
0
 71
0
 72
0
 73
0
 74
0
 75
0
 76
0
 77
1
 78
12
 79
3
170
0
171
3
172
1
173
0
174
0
175
0
176
0
177
0
178
0
179
2
271
2
272
2
273
2
274
3
275
0
276
0
277
2
278
46
279
2
280
0
281
0
282
0
283
0
284
8
285
0
286
0
288
1
289
3
290
0
340
4C
371
-2
372
-2
  0
DIMSTYLE
105
7E
330
4
100
AcDbSymbolTableRecord
100
AcDbDimStyleTableRecord
  2
EZ_M_25_H25_CM
 70
0
 40
1.0
 41
0.0625
 42
0.03125
 43
3.75
 44
0.09375
 45
0.0
 46
0.0
 47
0.0
 48
0.0
 49
2.5
140
0.0625
141
2.5
142
0.03125
143
0.03937007874
144
100.0
145
0.0
146
0.5
147
0.025
148
0.0
 69
0
 70
0
 71
0
 72
0
 73
0
 74
0
 75
0
 76
0
 77
1
 78
12
 79
3
170
0
171
3
172
1
173
0
174
0
175
0
176
0
177
0
178
0
179
2
271
2
272
2
273
2
274
3
275
0
276
0
277
2
278
46
279
2
280
0
281
0
282
0
283
0
284
8
285
0
286
0
288
1
289
3
290
0
340
4C
371
-2
372
-2
  0
DIMSTYLE
105
7F
330
4
100
AcDbSymbolTableRecord
100
AcDbDimStyleTableRecord
  2
EZ_M_20_H25_CM
 70
0
 40
1.0
 41
0.05
 42
0.025
 43
3.75
 44
0.07500000000000001
 45
0.0
 46
0.0
 47
0.0
 48
0.0
 49
2.5
140
0.05
141
2.5
142
0.025
143
0.03937007874
144
100.0
145
0.0
146
0.5
147
0.020000000000000004
148
0.0
 69
0
 70
0
 71
0
 72
0
 73
0
 74
0
 75
0
 76
0
 77
1
 78
12
 79
3
170
0
171
3
172
1
173
0
174
0
175
0
176
0
177
0
178
0
179
2
271
2
272
2
273
2
274
3
275
0
276
0
277
2
278
46
279
2
280
0
281
0
282
0
283
0
284
8
285
0
286
0
288
1
289
3
290
0
340
4C
371
-2
372
-2
  0
DIMSTYLE
105
80
330
4
100
AcDbSymbolTableRecord
100
AcDbDimStyleTableRecord
  2
EZ_M_10_H25_CM
 70
0
 40
1.0
 41
0.025
 42
0.0125
 43
3.75
 44
0.037500000000000006
 45
0.0
 46
0.0
 47
0.0
 48
0.0
 49
2.5
140
0.025
141
2.5
142
0.0125
143
0.03937007874
144
100.0
145
0.0
146
0.5
147
0.010000000000000002
148
0.0
 69
0
 70
0
 71
0
 72
0
 73
0
 74
0
 75
0
 76
0
 77
1
 78
12
 79
3
170
0
171
3
172
1
173
0
174
0
175
0
176
0
177
0
178
0
179
2
271
2
272
2
273
2
274
3
275
0
276
0
277
2
278
46
279
2
280
0
281
0
282
0
283
0
284
8
285
0
286
0
288
1
289
3
290
0
340
4C
371
-2
372
-2
  0
DIMSTYLE
105
81
330
4
100
AcDbSymbolTableRecord
100
AcDbDimStyleTableRecord
  2
EZ_M_5_H25_CM
 70
0
 40
1.0
 41
0.0125
 42
0.00625
 43
3.75
 44
0.018750000000000003
 45
0.0
 46
0.0
 47
0.0
 48
0.0
 49
2.5
140
0.0125
141
2.5
142
0.00625
143
0.03937007874
144
100.0
145
0.0
146
0.5
147
0.005000000000000001
148
0.0
 69
0
 70
0
 71
0
 72
0
 73
0
 74
0
 75
0
 76
0
 77
1
 78
12
 79
3
170
0
171
3
172
1
173
0
174
0
175
0
176
0
177
0
178
0
179
2
271
2
272
2
273
2
274
3
275
0
276
0
277
2
278
46
279
2
280
0
281
0
282
0
283
0
284
8
285
0
286
0
288
1
289
3
290
0
340
4C
371
-2
372
-2
  0
DIMSTYLE
105
82
330
4
100
AcDbSymbolTableRecord
100
AcDbDimStyleTableRecord
  2
EZ_M_1_H25_CM
 70
0
 40
1.0
 41
0.0025
 42
0.00125
 43
3.75
 44
0.00375
 45
0.0
 46
0.0
 47
0.0
 48
0.0
 49
2.5
140
0.0025
141
2.5
142
0.00125
143
0.03937007874
144
100.0
145
0.0
146
0.5
147
0.001
148
0.0
 69
0
 70
0
 71
0
 72
0
 73
0
 74
0
 75
0
 76
0
 77
1
 78
12
 79
3
170
0
171
3
172
1
173
0
174
0
175
0
176
0
177
0
178
0
179
2
271
2
272
2
273
2
274
3
275
0
276
0
277
2
278
46
279
2
280
0
281
0
282
0
283
0
284
8
285
0
286
0
288
1
289
3
290
0
340
4C
371
-2
372
-2
  0
DIMSTYLE
105
83
330
4
100
AcDbSymbolTableRecord
100
AcDbDimStyleTableRecord
  2
EZ_RADIUS
 70
0
 40
1.0
 41
0.25
 42
0.125
 43
3.75
 44
0.375
 45
0.0
 46
0.0
 47
0.0
 48
0.0
 49
2.5
140
0.25
141
0.0
142
0.0
143
0.03937007874
144
100.0
145
0.0
146
0.5
147
0.1
148
0.0
 69
0
 70
0
 71
0
 72
0
 73
0
 74
0
 75
0
 76
0
 77
1
 78
12
 79
3
170
0
171
3
172
0
173
0
174
0
175
0
176
0
177
0
178
0
179
2
271
2
272
2
273
2
274
3
275
0
276
0
277
2
278
46
279
1
280
0
281
0
282
0
283
0
284
8
285
0
286
0
288
1
289
3
290
0
340
4C
342
84
371
-2
372
-2
  0
DIMSTYLE
105
88
330
4
100
AcDbSymbolTableRecord
100
AcDbDimStyleTableRecord
  2
EZ_RADIUS_INSIDE
 70
0
 40
1.0
 41
0.25
 42
0.125
 43
3.75
 44
0.375
 45
0.0
 46
0.0
 47
0.0
 48
0.0
 49
2.5
140
0.25
141
0.0
142
0.0
143
0.03937007874
144
100.0
145
0.0
146
0.5
147
0.1
148
0.0
 69
0
 70
0
 71
0
 72
0
 73
0
 74
0
 75
0
 76
0
 77
0
 78
12
 79
3
170
0
171
3
172
0
173
0
174
1
175
0
176
0
177
0
178
0
179
2
271
2
272
2
273
2
274
3
275
0
276
0
277
2
278
46
279
0
280
0
281
0
282
0
283
0
284
8
285
0
286
0
288
1
289
0
290
0
340
4C
342
84
371
-2
372
-2
  0
DIMSTYLE
105
89
330
4
100
AcDbSymbolTableRecord
100
AcDbDimStyleTableRecord
  2
EZ_CURVED
 70
0
 40
1.0
 41
0.25
 42
0.125
 43
3.75
 44
0.375
 45
0.0
 46
0.0
 47
0.0
 48
0.0
 49
2.5
140
0.25
141
2.5
142
0.0
143
0.03937007874
144
100.0
145
0.0
146
0.5
147
0.1
148
0.0
 69
0
 70
0
 71
0
 72
0
 73
0
 74
0
 75
0
 76
0
 77
1
 78
12
 79
2
 90
2
170
0
171
3
172
1
173
0
174
0
175
0
176
0
177
0
178
0
179
2
271
2
272
2
273
2
274
3
275
0
276
0
277
2
278
46
279
2
280
0
281
0
282
0
283
0
284
8
285
0
286
0
288
1
289
3
290
0
340
4C
371
-2
372
-2
  0
ENDTAB
  0
TABLE
  2
BLOCK_RECORD
  5
9
330
0
100
AcDbSymbolTable
 70
5
  0
BLOCK_RECORD
  5
17
330
9
100
AcDbSymbolTableRecord
100
AcDbBlockTableRecord
  2
*Model_Space
340
1A
 70
0
280
1
281
0
  0
BLOCK_RECORD
  5
1B
330
9
100
AcDbSymbolTableRecord
100
AcDbBlockTableRecord
  2
*Paper_Space
340
1E
 70
0
280
1
281
0
  0
BLOCK_RECORD
  5
74
330
9
100
AcDbSymbolTableRecord
100
AcDbBlockTableRecord
  2
_ARCHTICK
340
0
 70
0
280
1
281
0
  0
BLOCK_RECORD
  5
78
330
9
100
AcDbSymbolTableRecord
100
AcDbBlockTableRecord
  2
_CLOSEDFILLED
340
0
 70
0
280
1
281
0
  0
BLOCK_RECORD
  5
84
330
9
100
AcDbSymbolTableRecord
100
AcDbBlockTableRecord
  2
_CLOSEDBLANK
340
0
 70
0
280
1
281
0
  0
ENDTAB
  0
ENDSEC
  0
SECTION
  2
BLOCKS
  0
BLOCK
  5
18
330
17
100
AcDbEntity
  8
0
100
AcDbBlockBegin
  2
*Model_Space
 70
0
 10
0.0
 20
0.0
 30
0.0
  3
*Model_Space
  1

  0
ENDBLK
  5
19
330
17
100
AcDbEntity
  8
0
100
AcDbBlockEnd
  0
BLOCK
  5
1C
330
1B
100
AcDbEntity
  8
0
100
AcDbBlockBegin
  2
*Paper_Space
 70
0
 10
0.0
 20
0.0
 30
0.0
  3
*Paper_Space
  1

  0
ENDBLK
  5
1D
330
1B
100
AcDbEntity
  8
0
100
AcDbBlockEnd
  0
BLOCK
  5
75
330
74
100
AcDbEntity
  8
0
100
AcDbBlockBegin
  2
_ARCHTICK
 70
0
 10
0.0
 20
0.0
 30
0.0
  3
_ARCHTICK
  1

  0
LWPOLYLINE
  5
77
330
74
100
AcDbEntity
  8
0
  6
BYBLOCK
 62
0
100
AcDbPolyline
 90
2
 70
0
 43
0.15
 10
-0.5
 20
-0.5
 10
0.5
 20
0.5
  0
ENDBLK
  5
76
330
74
100
AcDbEntity
  8
0
100
AcDbBlockEnd
  0
BLOCK
  5
79
330
78
100
AcDbEntity
  8
0
100
AcDbBlockBegin
  2
_CLOSEDFILLED
 70
0
 10
0.0
 20
0.0
 30
0.0
  3
_CLOSEDFILLED
  1

  0
SOLID
  5
7B
330
78
100
AcDbEntity
  8
0
  6
BYBLOCK
 62
0
100
AcDbTrace
 10
-1.0
 20
0.16439898372402537
 30
0.0
 11
0.0
 21
0.0
 31
0.0
 12
-1.0
 22
-0.16439898372402537
 32
0.0
 13
-1.0
 23
-0.16439898372402537
 33
0.0
  0
ENDBLK
  5
7A
330
78
100
AcDbEntity
  8
0
100
AcDbBlockEnd
  0
BLOCK
  5
85
330
84
100
AcDbEntity
  8
0
100
AcDbBlockBegin
  2
_CLOSEDBLANK
 70
0
 10
0.0
 20
0.0
 30
0.0
  3
_CLOSEDBLANK
  1

  0
LWPOLYLINE
  5
87
330
84
100
AcDbEntity
  8
0
  6
BYBLOCK
 62
0
100
AcDbPolyline
 90
3
 70
1
 10
-1.0
 20
0.16439898372402537
 10
0.0
 20
0.0
 10
-1.0
 20
-0.16439898372402537
  0
ENDBLK
  5
86
330
84
100
AcDbEntity
  8
0
100
AcDbBlockEnd
  0
ENDSEC
  0
SECTION
  2
ENTITIES
  0
LWPOLYLINE
  5
8C
330
17
100
AcDbEntity
  8
Layer
100
AcDbPolyline
 90
167
 70
1
 10
441.15656195612473
 20
200.44151924092262
 10
441.15656195612473
 20
200.44151924092262
 10
439.2528477454714
 20
200.96317112851244
 10
434.1462592691132
 20
202.33761315300927
 10
429.04208116463064
 20
203.69355642006042
 10
423.9342624089517
 20
205.02484347263777
 10
418.82148561616384
 20
206.33717631855495
 10
413.7137371642542
 20
207.62746924572247
 10
408.6086712584581
 20
208.8886266736724
 10
403.49564024771905
 20
210.1202786689726
 10
398.37244104911707
 20
211.3265956710774
 10
393.2380463834804
 20
212.5102703037016
 10
388.10124754467324
 20
213.67428360360813
 10
382.96683850168426
 20
214.81178966386562
 10
377.8297268842841
 20
215.92120099056004
 10
372.68983417459293
 20
217.0000614622406
 10
367.53241156508915
 20
218.0529592681596
 10
362.3816108382718
 20
219.08774065983758
 10
357.2355577041683
 20
220.0842545029833
 10
352.0694383931913
 20
221.04968764161114
 10
346.8930818014396
 20
221.99458425359413
 10
341.7198887184722
 20
222.91605487757326
 10
336.5471055620687
 20
223.8065396434703
 10
331.3677003650488
 20
224.66575331134266
 10
326.1774085850157
 20
225.49714790717405
 10
320.97882810872375
 20
226.30464142152115
 10
315.7791669508134
 20
227.08840339061635
 10
310.5798515881827
 20
227.84275569833002
 10
305.3674596993818
 20
228.56857471084317
 10
300.1522088253959
 20
229.27398379459012
 10
294.9401639115728
 20
229.95281211413354
 10
289.7274911395379
 20
230.6032554397906
 10
284.51527823006705
 20
231.22413409309553
 10
279.29696569443195
 20
231.812938521702
 10
274.064333234555
 20
232.3769863637302
 10
268.8418853505796
 20
232.92064501799427
 10
263.6200692102698
 20
233.42752400749671
 10
258.38866891552357
 20
233.90857372002006
 10
253.16543171150215
 20
234.36244472486487
 10
247.94168988105494
 20
234.78183462918315
 10
242.71204678952887
 20
235.17013726210007
 10
237.4833829071798
 20
235.5296966591481
 10
232.2526282878725
 20
235.85638119311113
 10
227.01730156927508
 20
236.15345275685726
 10
221.78637256296383
 20
236.4230820098143
 10
216.56521281955207
 20
236.6594776911224
 10
211.34542170071202
 20
236.85529587069556
 10
206.11279113564922
 20
237.0172923888295
 10
200.89509821291375
 20
237.15279179232206
 10
195.67606146438908
 20
237.2413187873494
 10
190.44790107761753
 20
237.30129826688398
 10
185.23359059199734
 20
237.3271045278453
 10
180.02124148603912
 20
237.31438583058411
 10
174.8218272337032
 20
237.26401298874427
 10
169.62334203922842
 20
237.16766461945673
 10
164.42609227540976
 20
237.03108280700184
 10
159.22937925315733
 20
236.8531957256207
 10
154.04062682150624
 20
236.63854948920925
 10
148.8632678789234
 20
236.378327792925
 10
143.68879332007117
 20
236.07199214019067
 10
138.51980905597384
 20
235.72141116699012
 10
133.35699323236128
 20
235.3288160871166
 10
128.2184276978548
 20
234.89554202338587
 10
123.10466631761015
 20
234.4068745415862
 10
117.99762884152906
 20
233.85748111292702
 10
112.90907297394295
 20
233.25905042939223
 10
107.84076639164674
 20
232.59938172816214
 10
102.78874530316693
 20
231.87708065404152
 10
97.74609350049079
 20
231.09062352840215
 10
92.72543668231447
 20
230.25293007595485
 10
87.74943170007063
 20
229.3556043041393
 10
82.81378328303168
 20
228.38642745152305
 10
77.92316366383344
 20
227.34152085204968
 10
73.07347116902153
 20
226.2152761074545
 10
68.27863384366418
 20
225.00644300397514
 10
63.52650254240723
 20
223.70494657517506
 10
58.85022664229962
 20
222.33333736787864
 10
54.260739266795554
 20
220.86110785809907
 10
49.76734930562051
 20
219.30351589237804
 10
45.40834433735853
 20
217.65740238949684
 10
41.20055637646939
 20
215.92421977772293
 10
37.19583090738445
 20
214.12464632264027
 10
33.44817900685251
 20
212.27785365889565
 10
29.989748326844904
 20
210.3919323759634
 10
26.87662366463499
 20
208.54391095047586
 10
24.147058228624843
 20
206.75794491111841
 10
21.796936524138772
 20
205.06049204963227
 10
19.79774250371287
 20
203.4723627836399
 10
18.134641583194423
 20
202.03820387435314
 10
16.741874316801983
 20
200.67189927157978
 10
15.579257347665276
 20
199.44571552724142
 10
14.632343558010263
 20
198.3353794369628
 10
13.856631027466221
 20
197.28627750828034
 10
13.214927367957642
 20
196.29618843808603
 10
12.690457171676627
 20
195.39301147532862
 10
12.26143545293337
 20
194.53673427700042
 10
11.902158597838167
 20
193.71510549882152
 10
11.606945457933477
 20
192.97595235191147
 10
11.37154231424978
 20
192.28824610045803
 10
11.184436583414708
 20
191.62871228850108
 10
11.040658523602218
 20
191.0329763808544
 10
10.93420935913511
 20
190.44178990423245
 10
10.853802964275843
 20
189.8870017094918
 10
10.798892294651267
 20
189.4061876982629
 10
10.831790821888148
 20
188.97256533780745
 10
10.86070920700297
 20
188.39082126538858
 10
10.895700291200995
 20
187.84639868118697
 10
10.964424822944949
 20
187.3069458198865
 10
11.093146699761348
 20
186.7398186712395
 10
11.30020031193115
 20
186.13016049145034
 10
11.59122080550074
 20
185.48299287702253
 10
11.973211421957416
 20
184.802542081473
 10
12.45838791117535
 20
184.088967258091
 10
13.058225775539569
 20
183.34409607185103
 10
13.783407899966221
 20
182.57273966619215
 10
14.653932909280144
 20
181.7788276037387
 10
15.699064854222712
 20
180.96535235641193
 10
16.961176324331177
 20
180.13052351796495
 10
18.481343879853455
 20
179.2650162295055
 10
20.27341265985868
 20
178.3589975406925
 10
22.358868791337812
 20
177.42138597669998
 10
24.81744353947613
 20
176.47876689088304
 10
27.71559475283064
 20
175.5336841643414
 10
31.05223374126612
 20
174.56928454072747
 10
34.770805896694014
 20
173.60193936507653
 10
38.84654682954698
 20
172.69442296932647
 10
43.238359845134596
 20
171.8404577416081
 10
47.82838049539305
 20
171.04121449905665
 10
52.56865629331028
 20
170.33015622453715
 10
57.45149586087291
 20
169.71131769173473
 10
62.479148631598974
 20
169.14862946115477
 10
67.57302956919372
 20
168.60099041860607
 10
72.64467597780322
 20
168.09189212799163
 10
77.73668979280484
 20
167.67552278091017
 10
82.92102581604874
 20
167.31798378513173
 10
88.1426135884713
 20
166.9630240565544
 10
93.3619291730324
 20
166.62416786371824
 10
98.57302609047824
 20
166.318225523661
 10
103.78483219359642
 20
166.05698142609336
 10
109.02215099724286
 20
165.8373532703844
 10
114.28913046430367
 20
165.64308584803894
 10
119.57715554892076
 20
165.46532674570682
 10
123.30683507061374
 20
165.34574519564794
 10
123.25876654229427
 20
163.84651558795431
 10
124.82934970604818
 20
163.79615931253556
 10
130.1134460908705
 20
163.6352987811414
 10
135.3816155998353
 20
163.49898800845517
 10
140.64458338941313
 20
163.36602070546468
 10
145.91634025619504
 20
163.26575209242242
 10
151.21187759415562
 20
163.17712825003724
 10
156.5275562777959
 20
163.08586655552512
 10
161.8552514942921
 20
163.00194683931417
 10
167.18945983884987
 20
162.92331569836156
 10
172.52364860681027
 20
162.85061399083997
 10
177.8548043180168
 20
162.78593502744047
 10
183.18354759917844
 20
162.73281937468695
 10
188.5153010288227
 20
162.69280606332958
 10
193.85602865175574
 20
162.66286249230623
 10
199.20620177900014
 20
162.6368661178981
 10
204.56088649853245
 20
162.61135636693
 10
209.91530507653826
 20
162.58505283278916
 10
215.26627978198394
 20
162.55896264039973
 10
220.61224560069084
 20
162.53793395647187
 10
225.95681269916022
 20
162.5254296748841
 10
231.3053548426847
 20
162.51936483525282
 10
238.3160464242116
 20
162.51311920472025
 10
441.15656195612473
 20
200.44151924092262
  0
LWPOLYLINE
  5
8D
330
17
100
AcDbEntity
  8
Layer
100
AcDbPolyline
 90
5
 70
0
 10
385.39459856471217
 20
210.17693301202985
 10
381.48928811294365
 20
211.04212101200858
 10
382.3544761129224
 20
214.94743146377715
 10
386.2597865646909
 20
214.08224346379842
 10
385.39459856471217
 20
210.17693301202985
  0
LWPOLYLINE
  5
8E
330
17
100
AcDbEntity
  8
Layer
100
AcDbPolyline
 90
5
 70
0
 10
169.07511752856018
 20
233.1518705392563
 10
165.0764990083438
 20
233.04675189303995
 10
164.97138036212746
 20
237.04537041325634
 10
168.96999888234384
 20
237.15048905947268
 10
169.07511752856018
 20
233.1518705392563
  0
LWPOLYLINE
  5
8F
330
17
100
AcDbEntity
  8
Layer
100
AcDbPolyline
 90
5
 70
0
 10
71.82362874920715
 20
221.77486577283307
 10
67.94505468820854
 20
220.7967741343099
 10
66.96696304968539
 20
224.6753481953085
 10
70.84553711068399
 20
225.65343983383164
 10
71.82362874920715
 20
221.77486577283307
  0
LWPOLYLINE
  5
90
330
17
100
AcDbEntity
  8
Layer
100
AcDbPolyline
 90
5
 70
0
 10
23.618757406525784
 20
200.1663701736764
 10
22.105931559223354
 20
198.85818136630428
 10
18.83545954079307
 20
202.64024598456035
 10
20.3482853880955
 20
203.94843479193247
 10
23.618757406525784
 20
200.1663701736764
  0
LWPOLYLINE
  5
91
330
17
100
AcDbEntity
  8
Layer
100
AcDbPolyline
 90
5
 70
0
 10
17.808070693452784
 20
185.66033676429393
 10
19.390336052141024
 20
184.43704761830466
 10
16.332113187167828
 20
180.48138422158408
 10
14.749847828479588
 20
181.70467336757335
 10
17.808070693452784
 20
185.66033676429393
  0
LWPOLYLINE
  5
92
330
17
100
AcDbEntity
  8
Layer
100
AcDbPolyline
 90
5
 70
0
 10
92.85966086751046
 20
170.66053588871642
 10
96.8527874285644
 20
170.42614248564053
 10
96.6183940254885
 20
166.43301592458658
 10
92.62526746443456
 20
166.66740932766248
 10
92.85966086751046
 20
170.66053588871642
  0
LWPOLYLINE
  5
93
330
17
100
AcDbEntity
  8
Layer
100
AcDbPolyline
 90
300
 70
1
 10
255.53874999999925
 20
200.0
 10
255.5327802245852
 20
200.57432807358182
 10
255.51487353442778
 20
201.14840254005438
 10
255.4850378366173
 20
201.72196990429407
 10
255.443286305758
 20
202.29477689509946
 10
255.38963737815052
 20
202.8665705770286
 10
255.32411474365105
 20
203.43709846208816
 10
255.24674733521042
 20
204.00610862122514
 10
255.15756931609823
 20
204.57334979557154
 10
255.05662006481728
 20
205.13857150739327
 10
254.94394415771507
 20
205.70152417069403
 10
254.8195913493002
 20
206.26195920142547
 10
254.68361655027223
 20
206.8196291272549
 10
254.53607980327456
 20
207.37428769684215
 10
254.37704625638133
 20
207.92568998857712
 10
254.20658613432985
 20
208.4735925187304
 10
254.0247747075114
 20
209.01775334896882
 10
253.83169225873385
 20
209.55793219318844
 10
253.6274240477711
 20
210.0938905236183
 10
253.41206027371467
 20
210.6253916761476
 10
253.1856960351445
 20
211.15220095482962
 10
252.94843128813594
 20
211.6740857355173
 10
252.70037080212194
 20
212.1908155685831
 10
252.44162411362998
 20
212.7021622806793
 10
252.17230547791368
 20
213.20790007549277
 10
251.89253381850094
 20
213.7078056334505
 10
251.60243267468064
 20
214.20165821033098
 10
251.3021301469512
 20
214.68923973473875
 10
250.99175884045508
 20
215.17033490439866
 10
250.67145580642384
 20
215.6447312812271
 10
250.34136248166044
 20
216.11221938513896
 10
250.0016246260846
 20
216.57259278654783
 10
249.6523922583693
 20
217.02564819751967
 10
249.29381958969688
 20
217.47118556153904
 10
248.92606495566355
 20
217.9090081418484
 10
248.54929074636297
 20
218.33892260832147
 10
248.1636633346794
 20
218.76073912283243
 10
247.76935300282193
 20
219.17427142308313
 10
247.36653386713286
 20
219.57933690485117
 10
246.95538380120266
 20
219.97575670262285
 10
246.5360843573261
 20
220.36335576857516
 10
246.10882068633387
 20
220.74196294987195
 10
245.67378145583507
 20
221.11141106424014
 10
245.23115876690704
 20
221.47153697379284
 10
244.7811480692689
 20
221.82218165706635
 10
244.3239480749764
 20
222.1631902792396
 10
243.85976067067634
 20
222.4944122605048
 10
243.38879082845898
 20
222.8157013425593
 10
242.91124651534835
 20
223.12691565318914
 10
242.42733860146967
 20
223.4279177689158
 10
241.9372807669352
 20
223.7185747756785
 10
241.44128940748894
 20
223.9987583275254
 10
240.9395835389525
 20
224.26834470328748
 10
240.4323847005138
 20
224.52721486121038
 10
239.9199168569017
 20
224.77525449151983
 10
239.4024062994894
 20
225.01235406689773
 10
238.8800815463705
 20
225.2384088908462
 10
238.3531732414519
 20
225.45331914391863
 10
237.82191405260807
 20
225.65698992779733
 10
237.2865385689412
 20
225.84933130719764
 10
236.74728319719344
 20
226.0302583495811
 10
236.2043860573563
 20
226.19969116265906
 10
235.65808687752352
 20
226.35755492967098
 10
235.10862688803402
 20
226.50377994242143
 10
234.55624871495118
 20
226.63830163206114
 10
234.0011962729262
 20
226.76106059759894
 10
233.4437146574921
 20
226.87200263213145
 10
232.8840500368365
 20
226.97107874677937
 10
232.32244954310065
 20
227.05824519231956
 10
231.7591611632529
 20
227.13346347850353
 10
231.19443362958464
 20
227.19670039105355
 10
230.62851630987694
 20
227.24792800632926
 10
230.06165909728696
 20
227.28712370365784
 10
229.49411230000214
 20
227.31427017532278
 10
228.92612653071103
 20
227.32935543420638
 10
228.3579525959399
 20
227.332372819083
 10
227.78984138530362
 20
227.3233209975604
 10
227.2220437607198
 20
227.30220396666817
 10
226.65481044563532
 20
227.26903105109267
 10
226.08839191431383
 20
227.22381689905956
 10
225.52303828123345
 20
227.16658147586554
 10
224.9589991906432
 20
227.09735005506226
 10
224.3965237063271
 20
227.0161532072962
 10
223.83586020162468
 20
226.9230267868096
 10
223.27725624975636
 20
226.81801191560805
 10
222.72095851450192
 20
226.7011549653024
 10
222.1672126412808
 20
226.57250753663232
 10
221.61626314868207
 20
226.43212643668062
 10
221.06835332049175
 20
226.28007365378923
 10
220.52372509826574
 20
226.1164163301866
 10
219.982618974495
 20
225.94122673233971
 10
219.4452738864111
 20
225.75458221904313
 10
218.91192711047796
 20
225.55656520725972
 10
218.38281415761762
 20
225.34726313572745
 10
217.85816866921485
 20
225.12676842634903
 10
217.33822231394797
 20
224.89517844338093
 10
216.82320468549037
 20
224.65259545044012
 10
216.31334320112848
 20
224.39912656534727
 10
215.80886300134057
 20
224.13488371282662
 10
215.30998685038116
 20
223.85998357508308
 10
214.81693503791462
 20
223.57454754027876
 10
214.3299252817413
 20
223.27870164893122
 10
213.84917263165974
 20
222.97257653825773
 10
213.37488937450638
 20
222.65630738448937
 10
212.907284940416
 20
222.33003384318113
 10
212.44656581034306
 20
221.9938999875438
 10
211.99293542488567
 20
221.64805424482557
 10
211.54659409445185
 20
221.29264933077042
 10
211.10773891080802
 20
220.92784218218333
 10
210.67656366004906
 20
220.55379388763137
 10
210.2532587370276
 20
220.17066961631159
 10
209.83801106128115
 20
219.77863854511676
 10
209.4310039944936
 20
219.3778737839318
 10
209.03241725952793
 20
218.96855229919328
 10
208.64242686106564
 20
218.55085483574595
 10
208.261205007888
 20
218.12496583703106
 10
207.88892003683355
 20
217.69107336364112
 10
207.52573633846524
 20
217.2493690102779
 10
207.17181428448023
 20
216.80004782114924
 10
206.82731015689427
 20
216.34330820384343
 10
206.4923760790319
 20
215.87935184171772
 10
206.16715994835315
 20
215.40838360484068
 10
205.85180537114607
 20
214.93061145952748
 10
205.54645159911442
 20
214.4462463765076
 10
205.2512334678878
 20
213.95550223776627
 10
204.96628133748231
 20
213.45859574210021
 10
204.69172103473696
 20
212.95574630942934
 10
204.42767379775225
 20
212.44717598390739
 10
204.17425622235478
 20
211.9331093358732
 10
203.9315802106119
 20
211.4137733626871
 10
203.6997529214188
 20
210.88939738849484
 10
203.47887672318012
 20
210.36021296296485
 10
203.26904914860714
 20
209.82645375904235
 10
203.07036285164986
 20
209.2883554697658
 10
202.8829055665838
 20
208.7461557041917
 10
202.70676006926885
 20
208.20009388247294
 10
202.542004140598
 20
207.65041113013774
 10
202.38871053215126
 20
207.09735017161535
 10
202.2469469340707
 20
206.54115522305574
 10
202.11677594517047
 20
205.98207188449064
 10
201.99825504529477
 20
205.42034703138359
 10
201.8914365699365
 20
204.85622870561645
 10
201.7963676871273
 20
204.2899660059613
 10
201.71309037660953
 20
203.72180897808542
 10
201.6416414112992
 20
203.15200850413802
 10
201.58205234104793
 20
202.58081619196784
 10
201.53434947871173
 20
202.00848426402024
 10
201.4985538885317
 20
201.43526544596278
 10
201.47468137683273
 20
200.8614128550888
 10
201.46274248504398
 20
200.2871798885477
 10
201.46274248504398
 20
199.7128201114523
 10
201.47468137683273
 20
199.13858714491124
 10
201.4985538885317
 20
198.56473455403722
 10
201.53434947871173
 20
197.99151573597976
 10
201.58205234104793
 20
197.41918380803216
 10
201.6416414112992
 20
196.84799149586198
 10
201.71309037660953
 20
196.27819102191458
 10
201.7963676871273
 20
195.7100339940387
 10
201.8914365699365
 20
195.14377129438358
 10
201.99825504529477
 20
194.57965296861644
 10
202.11677594517047
 20
194.01792811550936
 10
202.2469469340707
 20
193.45884477694426
 10
202.38871053215126
 20
192.90264982838465
 10
202.542004140598
 20
192.34958886986226
 10
202.70676006926885
 20
191.7999061175271
 10
202.8829055665838
 20
191.2538442958083
 10
203.07036285164986
 20
190.7116445302342
 10
203.26904914860714
 20
190.17354624095765
 10
203.47887672318012
 20
189.63978703703515
 10
203.6997529214188
 20
189.11060261150516
 10
203.9315802106119
 20
188.5862266373129
 10
204.17425622235478
 20
188.0668906641268
 10
204.42767379775222
 20
187.55282401609264
 10
204.69172103473693
 20
187.04425369057066
 10
204.96628133748231
 20
186.5414042578998
 10
205.2512334678878
 20
186.04449776223373
 10
205.54645159911442
 20
185.5537536234924
 10
205.85180537114607
 20
185.06938854047254
 10
206.16715994835315
 20
184.59161639515932
 10
206.4923760790319
 20
184.12064815828228
 10
206.82731015689427
 20
183.65669179615657
 10
207.17181428448023
 20
183.19995217885076
 10
207.52573633846524
 20
182.7506309897221
 10
207.88892003683355
 20
182.30892663635885
 10
208.261205007888
 20
181.87503416296894
 10
208.64242686106564
 20
181.44914516425405
 10
209.03241725952793
 20
181.03144770080675
 10
209.4310039944936
 20
180.6221262160682
 10
209.83801106128115
 20
180.22136145488327
 10
210.2532587370276
 20
179.82933038368841
 10
210.67656366004906
 20
179.44620611236863
 10
211.10773891080802
 20
179.0721578178167
 10
211.54659409445182
 20
178.7073506692296
 10
211.99293542488567
 20
178.35194575517443
 10
212.44656581034306
 20
178.0061000124562
 10
212.907284940416
 20
177.66996615681887
 10
213.37488937450638
 20
177.34369261551063
 10
213.84917263165974
 20
177.02742346174227
 10
214.32992528174134
 20
176.72129835106878
 10
214.81693503791462
 20
176.42545245972124
 10
215.30998685038116
 20
176.14001642491692
 10
215.80886300134057
 20
175.86511628717338
 10
216.31334320112848
 20
175.60087343465273
 10
216.8232046854904
 20
175.34740454955988
 10
217.33822231394794
 20
175.10482155661907
 10
217.85816866921482
 20
174.87323157365097
 10
218.38281415761762
 20
174.65273686427255
 10
218.91192711047796
 20
174.44343479274028
 10
219.4452738864111
 20
174.24541778095687
 10
219.982618974495
 20
174.05877326766029
 10
220.52372509826574
 20
173.8835836698134
 10
221.06835332049175
 20
173.71992634621077
 10
221.61626314868207
 20
173.56787356331938
 10
222.1672126412808
 20
173.42749246336768
 10
222.72095851450192
 20
173.2988450346976
 10
223.27725624975636
 20
173.18198808439195
 10
223.83586020162468
 20
173.0769732131904
 10
224.3965237063271
 20
172.9838467927038
 10
224.9589991906432
 20
172.90264994493774
 10
225.52303828123343
 20
172.83341852413446
 10
226.08839191431383
 20
172.77618310094044
 10
226.65481044563532
 20
172.73096894890733
 10
227.2220437607198
 20
172.69779603333183
 10
227.78984138530362
 20
172.6766790024396
 10
228.3579525959399
 20
172.667627180917
 10
228.92612653071103
 20
172.67064456579362
 10
229.49411230000214
 20
172.68572982467722
 10
230.06165909728696
 20
172.71287629634216
 10
230.62851630987694
 20
172.75207199367074
 10
231.19443362958464
 20
172.80329960894645
 10
231.75916116325294
 20
172.86653652149647
 10
232.32244954310065
 20
172.94175480768044
 10
232.8840500368365
 20
173.02892125322063
 10
233.4437146574921
 20
173.12799736786855
 10
234.0011962729262
 20
173.23893940240103
 10
234.55624871495118
 20
173.36169836793886
 10
235.108626888034
 20
173.49622005757857
 10
235.65808687752352
 20
173.64244507032902
 10
236.20438605735626
 20
173.80030883734094
 10
236.74728319719344
 20
173.96974165041888
 10
237.28653856894118
 20
174.15066869280233
 10
237.82191405260807
 20
174.34301007220267
 10
238.3531732414519
 20
174.54668085608137
 10
238.8800815463705
 20
174.7615911091538
 10
239.4024062994894
 20
174.98764593310227
 10
239.91991685690172
 20
175.22474550848017
 10
240.4323847005138
 20
175.47278513878962
 10
240.9395835389525
 20
175.73165529671252
 10
241.44128940748894
 20
176.0012416724746
 10
241.9372807669352
 20
176.28142522432148
 10
242.42733860146967
 20
176.57208223108418
 10
242.91124651534832
 20
176.87308434681086
 10
243.38879082845898
 20
177.1842986574407
 10
243.8597606706763
 20
177.5055877394952
 10
244.3239480749764
 20
177.8368097207604
 10
244.7811480692689
 20
178.17781834293365
 10
245.23115876690704
 20
178.52846302620716
 10
245.67378145583507
 20
178.88858893575986
 10
246.10882068633387
 20
179.25803705012805
 10
246.5360843573261
 20
179.63664423142484
 10
246.95538380120266
 20
180.02424329737715
 10
247.36653386713286
 20
180.42066309514883
 10
247.76935300282196
 20
180.82572857691687
 10
248.1636633346794
 20
181.23926087716757
 10
248.54929074636297
 20
181.66107739167853
 10
248.92606495566352
 20
182.0909918581516
 10
249.29381958969685
 20
182.52881443846096
 10
249.6523922583693
 20
182.97435180248033
 10
250.0016246260846
 20
183.42740721345217
 10
250.34136248166044
 20
183.88778061486104
 10
250.67145580642384
 20
184.3552687187729
 10
250.99175884045508
 20
184.82966509560134
 10
251.3021301469512
 20
185.31076026526125
 10
251.60243267468064
 20
185.79834178966902
 10
251.89253381850094
 20
186.2921943665495
 10
252.17230547791368
 20
186.79209992450723
 10
252.44162411362998
 20
187.2978377193207
 10
252.70037080212197
 20
187.8091844314169
 10
252.94843128813594
 20
188.3259142644827
 10
253.1856960351445
 20
188.84779904517035
 10
253.41206027371467
 20
189.3746083238524
 10
253.62742404777106
 20
189.9061094763817
 10
253.83169225873385
 20
190.44206780681156
 10
254.0247747075114
 20
190.98224665103118
 10
254.20658613432985
 20
191.52640748126956
 10
254.37704625638133
 20
192.07431001142288
 10
254.53607980327456
 20
192.62571230315785
 10
254.68361655027223
 20
193.1803708727451
 10
254.8195913493002
 20
193.73804079857453
 10
254.94394415771507
 20
194.29847582930597
 10
255.05662006481728
 20
194.86142849260673
 10
255.15756931609823
 20
195.42665020442846
 10
255.24674733521042
 20
195.99389137877486
 10
255.32411474365105
 20
196.56290153791184
 10
255.38963737815052
 20
197.1334294229714
 10
255.443286305758
 20
197.7052231049005
 10
255.4850378366173
 20
198.27803009570593
 10
255.51487353442778
 20
198.85159745994562
 10
255.5327802245852
 20
199.42567192641815
 10
255.53874999999925
 20
200.0
  0
LINE
  5
94
330
17
100
AcDbEntity
  8
Layer
 62
7
100
AcDbLine
 10
16.104807076026674
 20
200.00000000000003
 30
0.0
 11
438.79532366606975
 21
199.99999999999997
 31
0.0
  0
LINE
  5
95
330
17
100
AcDbEntity
  8
Layer
 62
7
100
AcDbLine
 10
98.54291039403529
 20
200.00000000000003
 30
0.0
 11
110.54291039403529
 21
200.00000000000003
 31
0.0
  0
LWPOLYLINE
  5
96
330
17
100
AcDbEntity
  8
Layer
100
AcDbPolyline
 90
5
 70
0
 10
104.54291039403529
 20
205.00000000000003
 10
109.54291039403529
 20
200.00000000000003
 10
104.54291039403529
 20
195.00000000000003
 10
99.54291039403529
 20
200.00000000000003
 10
104.54291039403529
 20
205.00000000000003
  0
LINE
  5
97
330
17
100
AcDbEntity
  8
Layer
 62
7
100
AcDbLine
 10
221.45006537104823
 20
200.0
 30
0.0
 11
233.45006537104823
 21
200.0
 31
0.0
  0
LWPOLYLINE
  5
98
330
17
100
AcDbEntity
  8
Layer
100
AcDbPolyline
 90
5
 70
0
 10
227.45006537104823
 20
205.0
 10
232.45006537104823
 20
200.0
 10
227.45006537104823
 20
195.0
 10
222.45006537104823
 20
200.0
 10
227.45006537104823
 20
205.0
  0
LINE
  5
99
330
17
100
AcDbEntity
  8
Layer
 62
7
100
AcDbLine
 10
344.3572203480612
 20
200.0
 30
0.0
 11
356.3572203480612
 21
199.99999999999997
 31
0.0
  0
LWPOLYLINE
  5
9A
330
17
100
AcDbEntity
  8
Layer
100
AcDbPolyline
 90
5
 70
0
 10
350.3572203480612
 20
204.99999999999997
 10
355.3572203480612
 20
199.99999999999997
 10
350.3572203480612
 20
194.99999999999997
 10
345.3572203480612
 20
199.99999999999997
 10
350.3572203480612
 20
204.99999999999997
  0
LINE
  5
9B
330
17
100
AcDbEntity
  8
Layer
 62
7
100
AcDbLine
 10
10.857544001993318
 20
189.91281412858203
 30
0.0
 11
311.9985896153641
 21
176.2907462557573
 31
0.0
  0
LINE
  5
9C
330
17
100
AcDbEntity
  8
Layer
 62
7
100
AcDbLine
 10
68.98789833365544
 20
187.2832966858024
 30
0.0
 11
80.97563999658138
 21
186.74103307560057
 31
0.0
  0
LWPOLYLINE
  5
9D
330
17
100
AcDbEntity
  8
Layer
100
AcDbPolyline
 90
5
 70
0
 10
75.20771233603584
 20
192.00705724025397
 10
79.97666152467089
 20
186.78622170978403
 10
74.75582599420098
 20
182.01727252114898
 10
69.98687680556593
 20
187.23810805161892
 10
75.20771233603584
 20
192.00705724025397
  0
LINE
  5
9E
330
17
100
AcDbEntity
  8
Layer
 62
7
100
AcDbLine
 10
141.026479703289
 20
184.02464277869257
 30
0.0
 11
153.01422136621494
 21
183.48237916849072
 31
0.0
  0
LWPOLYLINE
  5
9F
330
17
100
AcDbEntity
  8
Layer
100
AcDbPolyline
 90
5
 70
0
 10
147.24629370566942
 20
188.74840333314413
 10
152.01524289430446
 20
183.52756780267418
 10
146.79440736383452
 20
178.75861861403914
 10
142.02545817519947
 20
183.97945414450908
 10
147.24629370566942
 20
188.74840333314413
  0
LINE
  5
A0
330
17
100
AcDbEntity
  8
Layer
100
AcDbLine
 10
228.49999999999932
 20
227.33274999999995
 30
0.0
 11
228.49999999999932
 21
228.33274999999995
 31
0.0
  0
LINE
  5
A1
330
17
100
AcDbEntity
  8
Layer
100
AcDbLine
 10
228.49999999999932
 20
172.66725000000005
 30
0.0
 11
228.49999999999932
 21
171.66725000000005
 31
0.0
  0
LINE
  5
A2
330
17
100
AcDbEntity
  8
Layer
100
AcDbLine
 10
255.53874999999925
 20
200.0
 30
0.0
 11
256.53874999999925
 21
200.0
 31
0.0
  0
LINE
  5
A3
330
17
100
AcDbEntity
  8
Layer
100
AcDbLine
 10
201.46124999999938
 20
200.0
 30
0.0
 11
200.46124999999938
 21
200.0
 31
0.0
  0
LINE
  5
A4
330
17
100
AcDbEntity
  8
Layer
 62
7
100
AcDbLine
 10
148.49999999999932
 20
163.22251307071437
 30
0.0
 11
148.49999999999932
 21
236.3568218599956
 31
0.0
  0
LINE
  5
A5
330
17
100
AcDbEntity
  8
Layer
 62
7
100
AcDbLine
 10
148.49999999999932
 20
184.7695211469628
 30
0.0
 11
148.49999999999932
 21
196.7695211469628
 31
0.0
  0
LWPOLYLINE
  5
A6
330
17
100
AcDbEntity
  8
Layer
100
AcDbPolyline
 90
5
 70
0
 10
143.49999999999932
 20
190.7695211469628
 10
148.49999999999932
 20
195.7695211469628
 10
153.49999999999932
 20
190.7695211469628
 10
148.49999999999932
 20
185.7695211469628
 10
143.49999999999932
 20
190.7695211469628
  0
LINE
  5
A7
330
17
100
AcDbEntity
  8
Layer
 62
7
100
AcDbLine
 10
148.49999999999932
 20
202.8098137837472
 30
0.0
 11
148.49999999999932
 21
214.8098137837472
 31
0.0
  0
LWPOLYLINE
  5
A8
330
17
100
AcDbEntity
  8
Layer
100
AcDbPolyline
 90
5
 70
0
 10
143.49999999999932
 20
208.8098137837472
 10
148.49999999999932
 20
213.8098137837472
 10
153.49999999999932
 20
208.8098137837472
 10
148.49999999999932
 20
203.8098137837472
 10
143.49999999999932
 20
208.8098137837472
  0
LINE
  5
A9
330
17
100
AcDbEntity
  8
Layer
 62
7
100
AcDbLine
 10
358.4999999999993
 20
184.98587351221792
 30
0.0
 11
358.4999999999993
 21
219.83940000598943
 31
0.0
  0
LINE
  5
AA
330
17
100
AcDbEntity
  8
Layer
 62
7
100
AcDbLine
 10
358.4999999999993
 20
193.13460778503796
 30
0.0
 11
358.4999999999993
 21
205.13460778503796
 31
0.0
  0
LWPOLYLINE
  5
AB
330
17
100
AcDbEntity
  8
Layer
100
AcDbPolyline
 90
5
 70
0
 10
353.4999999999993
 20
199.13460778503796
 10
358.4999999999993
 20
204.13460778503796
 10
363.4999999999993
 20
199.13460778503796
 10
358.4999999999993
 20
194.13460778503796
 10
353.4999999999993
 20
199.13460778503796
  0
LINE
  5
AC
330
17
100
AcDbEntity
  8
Layer
 62
7
100
AcDbLine
 10
358.4999999999993
 20
199.69066573316942
 30
0.0
 11
358.4999999999993
 21
211.69066573316942
 31
0.0
  0
LWPOLYLINE
  5
AD
330
17
100
AcDbEntity
  8
Layer
100
AcDbPolyline
 90
5
 70
0
 10
353.4999999999993
 20
205.69066573316942
 10
358.4999999999993
 20
210.69066573316942
 10
363.4999999999993
 20
205.69066573316942
 10
358.4999999999993
 20
200.69066573316942
 10
353.4999999999993
 20
205.69066573316942
  0
LWPOLYLINE
  5
AE
330
17
100
AcDbEntity
  8
NumLabel
 62
1
100
AcDbPolyline
 90
4
 70
0
 10
170.99999999999952
 20
176.25000000000009
 10
170.99999999999952
 20
181.25000000000009
 10
175.99999999999952
 20
181.25000000000009
 10
175.99999999999952
 20
171.25000000000009
  0
LWPOLYLINE
  5
AF
330
17
100
AcDbEntity
  8
NumLabel
 62
1
100
AcDbPolyline
 90
5
 70
0
 10
178.49999999999952
 20
181.25000000000009
 10
178.49999999999952
 20
176.25000000000009
 10
183.49999999999952
 20
176.25000000000009
 10
183.49999999999952
 20
181.25000000000009
 10
183.49999999999952
 20
171.25000000000009
  0
ENDSEC
  0
SECTION
  2
OBJECTS
  0
DICTIONARY
  5
A
330
0
100
AcDbDictionary
280
0
281
1
  3
ACAD_COLOR
350
B
  3
ACAD_GROUP
350
C
  3
ACAD_LAYOUT
350
D
  3
ACAD_MATERIAL
350
E
  3
ACAD_MLEADERSTYLE
350
F
  3
ACAD_MLINESTYLE
350
10
  3
ACAD_PLOTSETTINGS
350
11
  3
ACAD_PLOTSTYLENAME
350
12
  3
ACAD_SCALELIST
350
14
  3
ACAD_TABLESTYLE
350
15
  3
ACAD_VISUALSTYLE
350
16
  3
EZDXF_META
350
2D
  0
DICTIONARY
  5
B
330
A
100
AcDbDictionary
280
0
281
1
  0
DICTIONARY
  5
C
330
A
100
AcDbDictionary
280
0
281
1
  0
DICTIONARY
  5
D
330
A
100
AcDbDictionary
280
0
281
1
  3
Model
350
1A
  3
Layout1
350
1E
  0
DICTIONARY
  5
E
330
A
100
AcDbDictionary
280
0
281
1
  3
ByBlock
350
1F
  3
ByLayer
350
20
  3
Global
350
21
  0
DICTIONARY
  5
F
330
A
100
AcDbDictionary
280
0
281
1
  3
Standard
350
2C
  0
DICTIONARY
  5
10
330
A
100
AcDbDictionary
280
0
281
1
  3
Standard
350
22
  0
DICTIONARY
  5
11
330
A
100
AcDbDictionary
280
0
281
1
  0
ACDBDICTIONARYWDFLT
  5
12
330
A
100
AcDbDictionary
280
0
281
1
  3
Normal
350
13
100
AcDbDictionaryWithDefault
340
13
  0
ACDBPLACEHOLDER
  5
13
330
12
  0
DICTIONARY
  5
14
330
A
100
AcDbDictionary
280
0
281
1
  0
DICTIONARY
  5
15
330
A
100
AcDbDictionary
280
0
281
1
  0
DICTIONARY
  5
16
330
A
100
AcDbDictionary
280
0
281
1
  3
2dWireframe
350
5A
  3
Basic
350
5B
  3
Brighten
350
5C
  3
ColorChange
350
5D
  3
Conceptual
350
5E
  3
Dim
350
5F
  3
EdgeColorOff
350
60
  3
Facepattern
350
61
  3
Flat
350
62
  3
FlatWithEdges
350
63
  3
Gouraud
350
64
  3
GouraudWithEdges
350
65
  3
Hidden
350
66
  3
JitterOff
350
67
  3
Linepattern
350
68
  3
Modeling
350
69
  3
OverhangOff
350
6A
  3
Realistic
350
6B
  3
Shaded
350
6C
  3
Shaded with edges
350
6D
  3
Shades of Gray
350
6E
  3
Sketchy
350
6F
  3
Thicken
350
70
  3
Wireframe
350
71
  3
X-Ray
350
72
  0
LAYOUT
  5
1A
330
D
100
AcDbPlotSettings
  1

  2
Adobe PDF
  4
A3
  6

 40
7.5
 41
20.0
 42
7.5
 43
20.0
 44
420.0
 45
297.0
 46
0.0
 47
0.0
 48
0.0
 49
0.0
140
0.0
141
0.0
142
1.0
143
1.0
 70
1024
 72
1
 73
0
 74
5
  7

 75
16
 76
0
 77
2
 78
300
147
1.0
148
0.0
149
0.0
100
AcDbLayout
  1
Model
 70
1
 71
0
 10
0.0
 20
0.0
 11
420.0
 21
297.0
 12
0.0
 22
0.0
 32
0.0
 14
1e+20
 24
1e+20
 34
1e+20
 15
-1e+20
 25
-1e+20
 35
-1e+20
146
0.0
 13
0.0
 23
0.0
 33
0.0
 16
1.0
 26
0.0
 36
0.0
 17
0.0
 27
1.0
 37
0.0
 76
1
330
17
  0
LAYOUT
  5
1E
330
D
100
AcDbPlotSettings
  1

  2
Adobe PDF
  4
A3
  6

 40
7.5
 41
20.0
 42
7.5
 43
20.0
 44
420.0
 45
297.0
 46
0.0
 47
0.0
 48
0.0
 49
0.0
140
0.0
141
0.0
142
1.0
143
1.0
 70
0
 72
1
 73
0
 74
5
  7

 75
16
 76
0
 77
2
 78
300
147
1.0
148
0.0
149
0.0
100
AcDbLayout
  1
Layout1
 70
1
 71
1
 10
0.0
 20
0.0
 11
420.0
 21
297.0
 12
0.0
 22
0.0
 32
0.0
 14
1e+20
 24
1e+20
 34
1e+20
 15
-1e+20
 25
-1e+20
 35
-1e+20
146
0.0
 13
0.0
 23
0.0
 33
0.0
 16
1.0
 26
0.0
 36
0.0
 17
0.0
 27
1.0
 37
0.0
 76
1
330
1B
  0
MATERIAL
  5
1F
102
{ACAD_REACTORS
330
E
102
}
330
E
100
AcDbMaterial
  1
ByBlock
  2

 70
0
 40
1.0
 71
1
 41
1.0
 91
-1023410177
 42
1.0
 72
1
  3

 73
1
 74
1
 75
1
 44
0.5
 73
0
 45
1.0
 46
1.0
 77
1
  4

 78
1
 79
1
170
1
 48
1.0
171
1
  6

172
1
173
1
174
1
140
1.0
141
1.0
175
1
  7

176
1
177
1
178
1
143
1.0
179
1
  8

270
1
271
1
272
1
145
1.0
146
1.0
273
1
  9

274
1
275
1
276
1
 42
1.0
 72
1
  3

 73
1
 74
1
 75
1
 94
63
  0
MATERIAL
  5
20
102
{ACAD_REACTORS
330
E
102
}
330
E
100
AcDbMaterial
  1
ByLayer
  2

 70
0
 40
1.0
 71
1
 41
1.0
 91
-1023410177
 42
1.0
 72
1
  3

 73
1
 74
1
 75
1
 44
0.5
 73
0
 45
1.0
 46
1.0
 77
1
  4

 78
1
 79
1
170
1
 48
1.0
171
1
  6

172
1
173
1
174
1
140
1.0
141
1.0
175
1
  7

176
1
177
1
178
1
143
1.0
179
1
  8

270
1
271
1
272
1
145
1.0
146
1.0
273
1
  9

274
1
275
1
276
1
 42
1.0
 72
1
  3

 73
1
 74
1
 75
1
 94
63
  0
MATERIAL
  5
21
102
{ACAD_REACTORS
330
E
102
}
330
E
100
AcDbMaterial
  1
Global
  2

 70
0
 40
1.0
 71
1
 41
1.0
 91
-1023410177
 42
1.0
 72
1
  3

 73
1
 74
1
 75
1
 44
0.5
 73
0
 45
1.0
 46
1.0
 77
1
  4

 78
1
 79
1
170
1
 48
1.0
171
1
  6

172
1
173
1
174
1
140
1.0
141
1.0
175
1
  7

176
1
177
1
178
1
143
1.0
179
1
  8

270
1
271
1
272
1
145
1.0
146
1.0
273
1
  9

274
1
275
1
276
1
 42
1.0
 72
1
  3

 73
1
 74
1
 75
1
 94
63
  0
MLINESTYLE
  5
22
102
{ACAD_REACTORS
330
10
102
}
330
10
100
AcDbMlineStyle
  2
Standard
 70
0
  3

 62
256
 51
90.0
 52
90.0
 71
2
 49
0.5
 62
256
  6
BYLAYER
 49
-0.5
 62
256
  6
BYLAYER
  0
MLEADERSTYLE
  5
2C
102
{ACAD_REACTORS
330
F
102
}
330
F
100
AcDbMLeaderStyle
179
2
170
2
171
1
172
0
 90
2
 40
0.0
 41
0.0
173
1
 91
-1056964608
 92
-2
290
1
 42
2.0
291
1
 43
8.0
  3
Standard
 44
4.0
300

342
29
174
1
175
1
176
0
178
1
 93
-1056964608
 45
4.0
292
0
297
0
 46
4.0
 94
-1056964608
 47
1.0
 49
1.0
140
1.0
294
1
141
0.0
177
0
142
1.0
295
0
296
0
143
3.75
271
0
272
9
273
9
  0
DICTIONARY
  5
2D
330
A
100
AcDbDictionary
281
1
  3
CREATED_BY_EZDXF
350
2E
  3
WRITTEN_BY_EZDXF
350
B2
  0
DICTIONARYVAR
  5
2E
330
2D
100
DictionaryVariables
280
0
  1
1.3.0 @ 2026-01-06T17:07:24.391130+00:00
  0
VISUALSTYLE
  5
5A
102
{ACAD_REACTORS
330
16
102
}
330
16
100
AcDbVisualStyle
  2
2dWireframe
 70
4
 90
0
 40
0.6
 62
7
290
0
291
0
  0
VISUALSTYLE
  5
5B
102
{ACAD_REACTORS
330
16
102
}
330
16
100
AcDbVisualStyle
  2
Basic
 70
7
 90
1
 40
0.6
 62
7
290
0
291
1
  0
VISUALSTYLE
  5
5C
102
{ACAD_REACTORS
330
16
102
}
330
16
100
AcDbVisualStyle
  2
Brighten
 70
12
 90
2
 40
0.6
 62
7
290
0
291
1
  0
VISUALSTYLE
  5
5D
102
{ACAD_REACTORS
330
16
102
}
330
16
100
AcDbVisualStyle
  2
ColorChange
 70
16
 90
2
 40
0.6
 62
8
290
0
291
1
  0
VISUALSTYLE
  5
5E
102
{ACAD_REACTORS
330
16
102
}
330
16
100
AcDbVisualStyle
  2
Conceptual
 70
9
 90
3
 40
0.6
 62
7
290
0
291
0
  0
VISUALSTYLE
  5
5F
102
{ACAD_REACTORS
330
16
102
}
330
16
100
AcDbVisualStyle
  2
Dim
 70
11
 90
2
 40
0.6
 62
7
290
0
291
1
  0
VISUALSTYLE
  5
60
102
{ACAD_REACTORS
330
16
102
}
330
16
100
AcDbVisualStyle
  2
EdgeColorOff
 70
22
 90
2
 40
0.6
 62
7
290
0
291
1
  0
VISUALSTYLE
  5
61
102
{ACAD_REACTORS
330
16
102
}
330
16
100
AcDbVisualStyle
  2
Facepattern
 70
15
 90
2
 40
0.6
 62
7
290
0
291
1
  0
VISUALSTYLE
  5
62
102
{ACAD_REACTORS
330
16
102
}
330
16
100
AcDbVisualStyle
  2
Flat
 70
0
 90
2
 40
0.6
 62
7
290
0
291
1
  0
VISUALSTYLE
  5
63
102
{ACAD_REACTORS
330
16
102
}
330
16
100
AcDbVisualStyle
  2
FlatWithEdges
 70
1
 90
2
 40
0.6
 62
7
290
0
291
1
  0
VISUALSTYLE
  5
64
102
{ACAD_REACTORS
330
16
102
}
330
16
100
AcDbVisualStyle
  2
Gouraud
 70
2
 90
2
 40
0.6
 62
7
290
0
291
1
  0
VISUALSTYLE
  5
65
102
{ACAD_REACTORS
330
16
102
}
330
16
100
AcDbVisualStyle
  2
GouraudWithEdges
 70
3
 90
2
 40
0.6
 62
7
290
0
291
1
  0
VISUALSTYLE
  5
66
102
{ACAD_REACTORS
330
16
102
}
330
16
100
AcDbVisualStyle
  2
Hidden
 70
6
 90
1
 40
0.6
 62
7
290
0
291
0
  0
VISUALSTYLE
  5
67
102
{ACAD_REACTORS
330
16
102
}
330
16
100
AcDbVisualStyle
  2
JitterOff
 70
20
 90
2
 40
0.6
 62
7
290
0
291
1
  0
VISUALSTYLE
  5
68
102
{ACAD_REACTORS
330
16
102
}
330
16
100
AcDbVisualStyle
  2
Linepattern
 70
14
 90
2
 40
0.6
 62
7
290
0
291
1
  0
VISUALSTYLE
  5
69
102
{ACAD_REACTORS
330
16
102
}
330
16
100
AcDbVisualStyle
  2
Modeling
 70
10
 90
2
 40
0.6
 62
7
290
0
291
0
  0
VISUALSTYLE
  5
6A
102
{ACAD_REACTORS
330
16
102
}
330
16
100
AcDbVisualStyle
  2
OverhangOff
 70
21
 90
2
 40
0.6
 62
7
290
0
291
1
  0
VISUALSTYLE
  5
6B
102
{ACAD_REACTORS
330
16
102
}
330
16
100
AcDbVisualStyle
  2
Realistic
 70
8
 90
2
 40
0.6
 62
7
290
0
291
0
  0
VISUALSTYLE
  5
6C
102
{ACAD_REACTORS
330
16
102
}
330
16
100
AcDbVisualStyle
  2
Shaded
 70
27
 90
2
 40
0.6
 62
7
290
0
291
0
  0
VISUALSTYLE
  5
6D
102
{ACAD_REACTORS
330
16
102
}
330
16
100
AcDbVisualStyle
  2
Shaded with edges
 70
26
 90
2
 40
0.6
 62
7
290
0
291
0
  0
VISUALSTYLE
  5
6E
102
{ACAD_REACTORS
330
16
102
}
330
16
100
AcDbVisualStyle
  2
Shades of Gray
 70
23
 90
2
 40
0.6
 62
7
290
0
291
0
  0
VISUALSTYLE
  5
6F
102
{ACAD_REACTORS
330
16
102
}
330
16
100
AcDbVisualStyle
  2
Sketchy
 70
24
 90
1
 40
0.6
 62
7
290
0
291
0
  0
VISUALSTYLE
  5
70
102
{ACAD_REACTORS
330
16
102
}
330
16
100
AcDbVisualStyle
  2
Thicken
 70
13
 90
2
 40
0.6
 62
7
290
0
291
1
  0
VISUALSTYLE
  5
71
102
{ACAD_REACTORS
330
16
102
}
330
16
100
AcDbVisualStyle
  2
Wireframe
 70
5
 90
0
 40
0.6
 62
7
290
0
291
0
  0
VISUALSTYLE
  5
72
102
{ACAD_REACTORS
330
16
102
}
330
16
100
AcDbVisualStyle
  2
X-Ray
 70
25
 90
2
 40
0.5
 62
7
290
0
291
0
  0
DICTIONARYVAR
  5
B2
330
2D
100
DictionaryVariables
280
0
  1
1.3.0 @ 2026-01-06T17:07:24.455517+00:00
  0
ENDSEC
  0
EOF
