  0
SECTION
  2
HEADER
  9
$ACADVER
  1
AC1021
  9
$ACADMAINTVER
 70
25
  9
$DWGCODEPAGE
  3
ANSI_1252
  9
$LASTSAVEDBY
  1
ezdxf
  9
$INSBASE
 10
0.0
 20
0.0
 30
0.0
  9
$EXTMIN
 10
1e+20
 20
1e+20
 30
1e+20
  9
$EXTMAX
 10
-1e+20
 20
-1e+20
 30
-1e+20
  9
$LIMMIN
 10
0.0
 20
0.0
  9
$LIMMAX
 10
420.0
 20
297.0
  9
$ORTHOMODE
 70
0
  9
$REGENMODE
 70
1
  9
$FILLMODE
 70
1
  9
$QTEXTMODE
 70
0
  9
$MIRRTEXT
 70
1
  9
$LTSCALE
 40
1.0
  9
$ATTMODE
 70
1
  9
$TEXTSIZE
 40
2.5
  9
$TRACEWID
 40
1.0
  9
$TEXTSTYLE
  7
OpenSans
  9
$CLAYER
  8
0
  9
$CELTYPE
  6
ByLayer
  9
$CECOLOR
 62
256
  9
$CELTSCALE
 40
1.0
  9
$DISPSILH
 70
0
  9
$DIMSCALE
 40
1.0
  9
$DIMASZ
 40
0.175
  9
$DIMEXO
 40
0.125
  9
$DIMDLI
 40
3.75
  9
$DIMRND
 40
0.0
  9
$DIMDLE
 40
0.0
  9
$DIMEXE
 40
0.375
  9
$DIMTP
 40
0.0
  9
$DIMTM
 40
0.0
  9
$DIMTXT
 40
0.25
  9
$DIMCEN
 40
2.5
  9
$DIMTSZ
 40
0.0
  9
$DIMTOL
 70
0
  9
$DIMLIM
 70
0
  9
$DIMTIH
 70
0
  9
$DIMTOH
 70
0
  9
$DIMSE1
 70
0
  9
$DIMSE2
 70
0
  9
$DIMTAD
 70
1
  9
$DIMZIN
 70
12
  9
$DIMBLK
  1
ARCHTICK
  9
$DIMASO
 70
1
  9
$DIMSHO
 70
1
  9
$DIMPOST
  1

  9
$DIMAPOST
  1

  9
$DIMALT
 70
0
  9
$DIMALTD
 70
3
  9
$DIMALTF
 40
0.03937007874
  9
$DIMLFAC
 40
100.0
  9
$DIMTOFL
 70
1
  9
$DIMTVP
 40
0.0
  9
$DIMTIX
 70
0
  9
$DIMSOXD
 70
0
  9
$DIMSAH
 70
0
  9
$DIMBLK1
  1

  9
$DIMBLK2
  1

  9
$DIMSTYLE
  2
EZDXF
  9
$DIMCLRD
 70
0
  9
$DIMCLRE
 70
0
  9
$DIMCLRT
 70
0
  9
$DIMTFAC
 40
0.5
  9
$DIMGAP
 40
0.1
  9
$DIMJUST
 70
0
  9
$DIMSD1
 70
0
  9
$DIMSD2
 70
0
  9
$DIMTOLJ
 70
0
  9
$DIMTZIN
 70
8
  9
$DIMALTZ
 70
0
  9
$DIMALTTZ
 70
0
  9
$DIMUPT
 70
1
  9
$DIMDEC
 70
2
  9
$DIMTDEC
 70
2
  9
$DIMALTU
 70
2
  9
$DIMALTTD
 70
3
  9
$DIMTXSTY
  7
OpenSansCondensed-Light
  9
$DIMAUNIT
 70
0
  9
$DIMADEC
 70
2
  9
$DIMALTRND
 40
0.0
  9
$DIMAZIN
 70
3
  9
$DIMDSEP
 70
46
  9
$DIMATFIT
 70
3
  9
$DIMFRAC
 70
0
  9
$DIMLDRBLK
  1

  9
$DIMLUNIT
 70
2
  9
$DIMLWD
 70
-2
  9
$DIMLWE
 70
-2
  9
$DIMTMOVE
 70
2
  9
$DIMFXL
 40
1.0
  9
$DIMFXLON
 70
0
  9
$DIMJOGANG
 40
0.785398163397
  9
$DIMTFILL
 70
0
  9
$DIMTFILLCLR
 70
0
  9
$DIMARCSYM
 70
0
  9
$DIMLTYPE
  6

  9
$DIMLTEX1
  6

  9
$DIMLTEX2
  6

  9
$LUNITS
 70
2
  9
$LUPREC
 70
4
  9
$SKETCHINC
 40
1.0
  9
$FILLETRAD
 40
10.0
  9
$AUNITS
 70
0
  9
$AUPREC
 70
2
  9
$MENU
  1
.
  9
$ELEVATION
 40
0.0
  9
$PELEVATION
 40
0.0
  9
$THICKNESS
 40
0.0
  9
$LIMCHECK
 70
0
  9
$CHAMFERA
 40
0.0
  9
$CHAMFERB
 40
0.0
  9
$CHAMFERC
 40
0.0
  9
$CHAMFERD
 40
0.0
  9
$SKPOLY
 70
0
  9
$TDCREATE
 40
2461048.088414352
  9
$TDUCREATE
 40
2458532.153996898
  9
$TDUPDATE
 40
2461048.088414352
  9
$TDUUPDATE
 40
2458532.1544311
  9
$TDINDWG
 40
0.0
  9
$TDUSRTIMER
 40
0.0
  9
$USRTIMER
 70
1
  9
$ANGBASE
 50
0.0
  9
$ANGDIR
 70
0
  9
$PDMODE
 70
0
  9
$PDSIZE
 40
0.0
  9
$PLINEWID
 40
0.0
  9
$SPLFRAME
 70
0
  9
$SPLINETYPE
 70
6
  9
$SPLINESEGS
 70
8
  9
$HANDSEED
  5
BB
  9
$SURFTAB1
 70
6
  9
$SURFTAB2
 70
6
  9
$SURFTYPE
 70
6
  9
$SURFU
 70
6
  9
$SURFV
 70
6
  9
$UCSBASE
  2

  9
$UCSNAME
  2

  9
$UCSORG
 10
0.0
 20
0.0
 30
0.0
  9
$UCSXDIR
 10
1.0
 20
0.0
 30
0.0
  9
$UCSYDIR
 10
0.0
 20
1.0
 30
0.0
  9
$UCSORTHOREF
  2

  9
$UCSORTHOVIEW
 70
0
  9
$UCSORGTOP
 10
0.0
 20
0.0
 30
0.0
  9
$UCSORGBOTTOM
 10
0.0
 20
0.0
 30
0.0
  9
$UCSORGLEFT
 10
0.0
 20
0.0
 30
0.0
  9
$UCSORGRIGHT
 10
0.0
 20
0.0
 30
0.0
  9
$UCSORGFRONT
 10
0.0
 20
0.0
 30
0.0
  9
$UCSORGBACK
 10
0.0
 20
0.0
 30
0.0
  9
$PUCSBASE
  2

  9
$PUCSNAME
  2

  9
$PUCSORG
 10
0.0
 20
0.0
 30
0.0
  9
$PUCSXDIR
 10
1.0
 20
0.0
 30
0.0
  9
$PUCSYDIR
 10
0.0
 20
1.0
 30
0.0
  9
$PUCSORTHOREF
  2

  9
$PUCSORTHOVIEW
 70
0
  9
$PUCSORGTOP
 10
0.0
 20
0.0
 30
0.0
  9
$PUCSORGBOTTOM
 10
0.0
 20
0.0
 30
0.0
  9
$PUCSORGLEFT
 10
0.0
 20
0.0
 30
0.0
  9
$PUCSORGRIGHT
 10
0.0
 20
0.0
 30
0.0
  9
$PUCSORGFRONT
 10
0.0
 20
0.0
 30
0.0
  9
$PUCSORGBACK
 10
0.0
 20
0.0
 30
0.0
  9
$USERI1
 70
0
  9
$USERI2
 70
0
  9
$USERI3
 70
0
  9
$USERI4
 70
0
  9
$USERI5
 70
0
  9
$USERR1
 40
0.0
  9
$USERR2
 40
0.0
  9
$USERR3
 40
0.0
  9
$USERR4
 40
0.0
  9
$USERR5
 40
0.0
  9
$WORLDVIEW
 70
1
  9
$SHADEDGE
 70
3
  9
$SHADEDIF
 70
70
  9
$TILEMODE
 70
1
  9
$MAXACTVP
 70
64
  9
$PINSBASE
 10
0.0
 20
0.0
 30
0.0
  9
$PLIMCHECK
 70
0
  9
$PEXTMIN
 10
1e+20
 20
1e+20
 30
1e+20
  9
$PEXTMAX
 10
-1e+20
 20
-1e+20
 30
-1e+20
  9
$PLIMMIN
 10
0.0
 20
0.0
  9
$PLIMMAX
 10
420.0
 20
297.0
  9
$UNITMODE
 70
0
  9
$VISRETAIN
 70
1
  9
$PLINEGEN
 70
0
  9
$PSLTSCALE
 70
1
  9
$TREEDEPTH
 70
3020
  9
$CMLSTYLE
  2
Standard
  9
$CMLJUST
 70
0
  9
$CMLSCALE
 40
20.0
  9
$PROXYGRAPHICS
 70
1
  9
$MEASUREMENT
 70
1
  9
$CELWEIGHT
370
-1
  9
$ENDCAPS
280
0
  9
$JOINSTYLE
280
0
  9
$LWDISPLAY
290
0
  9
$INSUNITS
 70
6
  9
$HYPERLINKBASE
  1

  9
$STYLESHEET
  1

  9
$XEDIT
290
1
  9
$CEPSNTYPE
380
0
  9
$PSTYLEMODE
290
1
  9
$FINGERPRINTGUID
  2
{438492FE-79B9-412F-95E1-D785BC6534F1}
  9
$VERSIONGUID
  2
{5DEACC9F-D3A3-43C3-9E41-7240DC1B37BD}
  9
$EXTNAMES
290
1
  9
$PSVPSCALE
 40
0.0
  9
$OLESTARTUP
290
0
  9
$SORTENTS
280
127
  9
$INDEXCTL
280
0
  9
$HIDETEXT
280
1
  9
$XCLIPFRAME
290
1
  9
$HALOGAP
280
0
  9
$OBSCOLOR
 70
257
  9
$OBSLTYPE
280
0
  9
$INTERSECTIONDISPLAY
280
0
  9
$INTERSECTIONCOLOR
 70
257
  9
$DIMASSOC
280
2
  9
$PROJECTNAME
  1

  9
$CAMERADISPLAY
290
0
  9
$LENSLENGTH
 40
50.0
  9
$CAMERAHEIGHT
 40
0.0
  9
$STEPSPERSEC
 40
24.0
  9
$STEPSIZE
 40
100.0
  9
$3DDWFPREC
 40
2.0
  9
$PSOLWIDTH
 40
0.005
  9
$PSOLHEIGHT
 40
0.08
  9
$LOFTANG1
 40
1.570796326795
  9
$LOFTANG2
 40
1.570796326795
  9
$LOFTMAG1
 40
0.0
  9
$LOFTMAG2
 40
0.0
  9
$LOFTPARAM
 70
7
  9
$LOFTNORMALS
280
1
  9
$LATITUDE
 40
37.795
  9
$LONGITUDE
 40
-122.394
  9
$NORTHDIRECTION
 40
0.0
  9
$TIMEZONE
 70
-8000
  9
$LIGHTGLYPHDISPLAY
280
1
  9
$TILEMODELIGHTSYNCH
280
1
  9
$CMATERIAL
347
20
  9
$SOLIDHIST
280
0
  9
$SHOWHIST
280
1
  9
$DWFFRAME
280
2
  9
$DGNFRAME
280
2
  9
$REALWORLDSCALE
290
1
  9
$INTERFERECOLOR
 62
256
  9
$CSHADOW
280
0
  9
$SHADOWPLANELOCATION
 40
0.0
  0
ENDSEC
  0
SECTION
  2
CLASSES
  0
CLASS
  1
ACDBDICTIONARYWDFLT
  2
AcDbDictionaryWithDefault
  3
ObjectDBX Classes
 90
0
 91
0
280
0
281
0
  0
CLASS
  1
SUN
  2
AcDbSun
  3
SCENEOE
 90
1153
 91
0
280
0
281
0
  0
CLASS
  1
VISUALSTYLE
  2
AcDbVisualStyle
  3
ObjectDBX Classes
 90
4095
 91
0
280
0
281
0
  0
CLASS
  1
MATERIAL
  2
AcDbMaterial
  3
ObjectDBX Classes
 90
1153
 91
0
280
0
281
0
  0
CLASS
  1
SCALE
  2
AcDbScale
  3
ObjectDBX Classes
 90
1153
 91
0
280
0
281
0
  0
CLASS
  1
TABLESTYLE
  2
AcDbTableStyle
  3
ObjectDBX Classes
 90
4095
 91
0
280
0
281
0
  0
CLASS
  1
MLEADERSTYLE
  2
AcDbMLeaderStyle
  3
ACDB_MLEADERSTYLE_CLASS
 90
4095
 91
0
280
0
281
0
  0
CLASS
  1
DICTIONARYVAR
  2
AcDbDictionaryVar
  3
ObjectDBX Classes
 90
0
 91
0
280
0
281
0
  0
CLASS
  1
CELLSTYLEMAP
  2
AcDbCellStyleMap
  3
ObjectDBX Classes
 90
1152
 91
0
280
0
281
0
  0
CLASS
  1
MENTALRAYRENDERSETTINGS
  2
AcDbMentalRayRenderSettings
  3
SCENEOE
 90
1024
 91
0
280
0
281
0
  0
CLASS
  1
ACDBDETAILVIEWSTYLE
  2
AcDbDetailViewStyle
  3
ObjectDBX Classes
 90
1025
 91
0
280
0
281
0
  0
CLASS
  1
ACDBSECTIONVIEWSTYLE
  2
AcDbSectionViewStyle
  3
ObjectDBX Classes
 90
1025
 91
0
280
0
281
0
  0
CLASS
  1
RASTERVARIABLES
  2
AcDbRasterVariables
  3
ISM
 90
0
 91
0
280
0
281
0
  0
CLASS
  1
ACDBPLACEHOLDER
  2
AcDbPlaceHolder
  3
ObjectDBX Classes
 90
0
 91
0
280
0
281
0
  0
CLASS
  1
LAYOUT
  2
AcDbLayout
  3
ObjectDBX Classes
 90
0
 91
0
280
0
281
0
  0
ENDSEC
  0
SECTION
  2
TABLES
  0
TABLE
  2
VPORT
  5
8
330
0
100
AcDbSymbolTable
 70
1
  0
VPORT
  5
23
330
8
100
AcDbSymbolTableRecord
100
AcDbViewportTableRecord
  2
*Active
 70
0
 10
0.0
 20
0.0
 11
1.0
 21
1.0
 12
0.0
 22
0.0
 13
0.0
 23
0.0
 14
0.5
 24
0.5
 15
0.5
 25
0.5
 16
0.0
 26
0.0
 36
1.0
 17
0.0
 27
0.0
 37
0.0
 40
1000.0
 41
1.34
 42
50.0
 43
0.0
 44
0.0
 50
0.0
 51
0.0
 71
0
 72
1000
 73
1
 74
3
 75
0
 76
0
 77
0
 78
0
281
0
 65
0
146
0.0
  0
ENDTAB
  0
TABLE
  2
LTYPE
  5
2
330
0
100
AcDbSymbolTable
 70
21
  0
LTYPE
  5
24
330
2
100
AcDbSymbolTableRecord
100
AcDbLinetypeTableRecord
  2
ByBlock
 70
0
  3

 72
65
 73
0
 40
0.0
  0
LTYPE
  5
25
330
2
100
AcDbSymbolTableRecord
100
AcDbLinetypeTableRecord
  2
ByLayer
 70
0
  3

 72
65
 73
0
 40
0.0
  0
LTYPE
  5
26
330
2
100
AcDbSymbolTableRecord
100
AcDbLinetypeTableRecord
  2
Continuous
 70
0
  3

 72
65
 73
0
 40
0.0
  0
LTYPE
  5
2F
330
2
100
AcDbSymbolTableRecord
100
AcDbLinetypeTableRecord
  2
CENTER
 70
0
  3
Center ____ _ ____ _ ____ _ ____ _ ____ _ ____
 72
65
 73
4
 40
5.08
 49
3.175
 74
0
 49
-0.635
 74
0
 49
0.635
 74
0
 49
-0.635
 74
0
  0
LTYPE
  5
30
330
2
100
AcDbSymbolTableRecord
100
AcDbLinetypeTableRecord
  2
CENTERX2
 70
0
  3
Center (2x) ________  __  ________  __  ________
 72
65
 73
4
 40
8.89
 49
6.35
 74
0
 49
-0.635
 74
0
 49
1.27
 74
0
 49
-0.635
 74
0
  0
LTYPE
  5
31
330
2
100
AcDbSymbolTableRecord
100
AcDbLinetypeTableRecord
  2
CENTER2
 70
0
  3
Center (.5x) ____ _ ____ _ ____ _ ____ _ ____
 72
65
 73
4
 40
2.54
 49
1.587
 74
0
 49
-0.318
 74
0
 49
0.318
 74
0
 49
-0.318
 74
0
  0
LTYPE
  5
32
330
2
100
AcDbSymbolTableRecord
100
AcDbLinetypeTableRecord
  2
DASHED
 70
0
  3
Dashed __ __ __ __ __ __ __ __ __ __ __ __ __ _
 72
65
 73
2
 40
1.524
 49
1.27
 74
0
 49
-0.254
 74
0
  0
LTYPE
  5
33
330
2
100
AcDbSymbolTableRecord
100
AcDbLinetypeTableRecord
  2
DASHEDX2
 70
0
  3
Dashed (2x) ____  ____  ____  ____  ____  ____
 72
65
 73
2
 40
3.048
 49
2.54
 74
0
 49
-0.508
 74
0
  0
LTYPE
  5
34
330
2
100
AcDbSymbolTableRecord
100
AcDbLinetypeTableRecord
  2
DASHED2
 70
0
  3
Dashed (.5x) _ _ _ _ _ _ _ _ _ _ _ _ _ _
 72
65
 73
2
 40
0.762
 49
0.635
 74
0
 49
-0.127
 74
0
  0
LTYPE
  5
35
330
2
100
AcDbSymbolTableRecord
100
AcDbLinetypeTableRecord
  2
PHANTOM
 70
0
  3
Phantom ______  __  __  ______  __  __  ______
 72
65
 73
6
 40
6.35
 49
3.175
 74
0
 49
-0.635
 74
0
 49
0.635
 74
0
 49
-0.635
 74
0
 49
0.635
 74
0
 49
-0.635
 74
0
  0
LTYPE
  5
36
330
2
100
AcDbSymbolTableRecord
100
AcDbLinetypeTableRecord
  2
PHANTOMX2
 70
0
  3
Phantom (2x)____________    ____    ____    ____________
 72
65
 73
6
 40
10.795
 49
6.35
 74
0
 49
-0.635
 74
0
 49
1.27
 74
0
 49
-0.635
 74
0
 49
1.27
 74
0
 49
-0.635
 74
0
  0
LTYPE
  5
37
330
2
100
AcDbSymbolTableRecord
100
AcDbLinetypeTableRecord
  2
PHANTOM2
 70
0
  3
Phantom (.5x) ___ _ _ ___ _ _ ___ _ _ ___ _ _ ___
 72
65
 73
6
 40
3.175
 49
1.587
 74
0
 49
-0.318
 74
0
 49
0.318
 74
0
 49
-0.318
 74
0
 49
0.318
 74
0
 49
-0.318
 74
0
  0
LTYPE
  5
38
330
2
100
AcDbSymbolTableRecord
100
AcDbLinetypeTableRecord
  2
DASHDOT
 70
0
  3
Dash dot __ . __ . __ . __ . __ . __ . __ . __
 72
65
 73
4
 40
3.556
 49
2.54
 74
0
 49
-0.508
 74
0
 49
0.0
 74
0
 49
-0.508
 74
0
  0
LTYPE
  5
39
330
2
100
AcDbSymbolTableRecord
100
AcDbLinetypeTableRecord
  2
DASHDOTX2
 70
0
  3
Dash dot (2x) ____  .  ____  .  ____  .  ____
 72
65
 73
4
 40
6.096
 49
5.08
 74
0
 49
-0.508
 74
0
 49
0.0
 74
0
 49
-0.508
 74
0
  0
LTYPE
  5
3A
330
2
100
AcDbSymbolTableRecord
100
AcDbLinetypeTableRecord
  2
DASHDOT2
 70
0
  3
Dash dot (.5x) _ . _ . _ . _ . _ . _ . _ . _
 72
65
 73
4
 40
1.778
 49
1.27
 74
0
 49
-0.254
 74
0
 49
0.0
 74
0
 49
-0.254
 74
0
  0
LTYPE
  5
3B
330
2
100
AcDbSymbolTableRecord
100
AcDbLinetypeTableRecord
  2
DOT
 70
0
  3
Dot .  .  .  .  .  .  .  .  .  .  .  .  .  .  .  .
 72
65
 73
2
 40
0.508
 49
0.0
 74
0
 49
-0.508
 74
0
  0
LTYPE
  5
3C
330
2
100
AcDbSymbolTableRecord
100
AcDbLinetypeTableRecord
  2
DOTX2
 70
0
  3
Dot (2x) .    .    .    .    .    .    .    . 
 72
65
 73
2
 40
1.016
 49
0.0
 74
0
 49
-1.016
 74
0
  0
LTYPE
  5
3D
330
2
100
AcDbSymbolTableRecord
100
AcDbLinetypeTableRecord
  2
DOT2
 70
0
  3
Dot (.5) . . . . . . . . . . . . . . . . . . . 
 72
65
 73
2
 40
0.254
 49
0.0
 74
0
 49
-0.254
 74
0
  0
LTYPE
  5
3E
330
2
100
AcDbSymbolTableRecord
100
AcDbLinetypeTableRecord
  2
DIVIDE
 70
0
  3
Divide __ . . __ . . __ . . __ . . __ . . __
 72
65
 73
6
 40
4.064
 49
2.54
 74
0
 49
-0.508
 74
0
 49
0.0
 74
0
 49
-0.508
 74
0
 49
0.0
 74
0
 49
-0.508
 74
0
  0
LTYPE
  5
3F
330
2
100
AcDbSymbolTableRecord
100
AcDbLinetypeTableRecord
  2
DIVIDEX2
 70
0
  3
Divide (2x) ____  . .  ____  . .  ____  . .  ____
 72
65
 73
6
 40
6.604
 49
5.08
 74
0
 49
-0.508
 74
0
 49
0.0
 74
0
 49
-0.508
 74
0
 49
0.0
 74
0
 49
-0.508
 74
0
  0
LTYPE
  5
40
330
2
100
AcDbSymbolTableRecord
100
AcDbLinetypeTableRecord
  2
DIVIDE2
 70
0
  3
Divide(.5x) _ . _ . _ . _ . _ . _ . _ . _
 72
65
 73
6
 40
2.032
 49
1.27
 74
0
 49
-0.254
 74
0
 49
0.0
 74
0
 49
-0.254
 74
0
 49
0.0
 74
0
 49
-0.254
 74
0
  0
ENDTAB
  0
TABLE
  2
LAYER
  5
1
330
0
100
AcDbSymbolTable
 70
5
  0
LAYER
  5
27
330
1
100
AcDbSymbolTableRecord
100
AcDbLayerTableRecord
  2
0
 70
0
 62
7
  6
Continuous
370
-3
390
13
347
21
  0
LAYER
  5
28
330
1
100
AcDbSymbolTableRecord
100
AcDbLayerTableRecord
  2
Defpoints
 70
0
 62
7
  6
Continuous
290
0
370
-3
390
13
347
21
  0
LAYER
  5
8A
330
1
100
AcDbSymbolTableRecord
100
AcDbLayerTableRecord
  2
Layer
 70
0
 62
1
  6
Continuous
370
50
390
13
347
21
  0
LAYER
  5
8B
330
1
100
AcDbSymbolTableRecord
100
AcDbLayerTableRecord
  2
NumLabel
 70
0
 62
1
  6
Continuous
370
15
390
13
347
21
  0
LAYER
  5
B9
330
1
100
AcDbSymbolTableRecord
100
AcDbLayerTableRecord
  2
SplitMark
 70
0
 62
3
  6
Continuous
370
-3
390
13
347
21
  0
ENDTAB
  0
TABLE
  2
STYLE
  5
5
330
0
100
AcDbSymbolTable
 70
26
  0
STYLE
  5
29
330
5
100
AcDbSymbolTableRecord
100
AcDbTextStyleTableRecord
  2
Standard
 70
0
 40
0.0
 41
1.0
 50
0.0
 71
0
 42
2.5
  3
txt
  4

  0
STYLE
  5
41
330
5
100
AcDbSymbolTableRecord
100
AcDbTextStyleTableRecord
  2
OpenSans-Light
 70
0
 40
0.0
 41
1.0
 50
0.0
 71
0
 42
2.5
  3
OpenSans-Light.ttf
  4

  0
STYLE
  5
42
330
5
100
AcDbSymbolTableRecord
100
AcDbTextStyleTableRecord
  2
OpenSans-Light-Italic
 70
0
 40
0.0
 41
1.0
 50
0.0
 71
0
 42
2.5
  3
OpenSans-LightItalic.ttf
  4

  0
STYLE
  5
43
330
5
100
AcDbSymbolTableRecord
100
AcDbTextStyleTableRecord
  2
OpenSans
 70
0
 40
0.0
 41
1.0
 50
0.0
 71
0
 42
2.5
  3
OpenSans-Regular.ttf
  4

  0
STYLE
  5
44
330
5
100
AcDbSymbolTableRecord
100
AcDbTextStyleTableRecord
  2
OpenSans-Italic
 70
0
 40
0.0
 41
1.0
 50
0.0
 71
0
 42
2.5
  3
OpenSans-Italic.ttf
  4

  0
STYLE
  5
45
330
5
100
AcDbSymbolTableRecord
100
AcDbTextStyleTableRecord
  2
OpenSans-SemiBold
 70
0
 40
0.0
 41
1.0
 50
0.0
 71
0
 42
2.5
  3
OpenSans-SemiBold.ttf
  4

  0
STYLE
  5
46
330
5
100
AcDbSymbolTableRecord
100
AcDbTextStyleTableRecord
  2
OpenSans-SemiBoldItalic
 70
0
 40
0.0
 41
1.0
 50
0.0
 71
0
 42
2.5
  3
OpenSans-SemiBoldItalic.ttf
  4

  0
STYLE
  5
47
330
5
100
AcDbSymbolTableRecord
100
AcDbTextStyleTableRecord
  2
OpenSans-Bold
 70
0
 40
0.0
 41
1.0
 50
0.0
 71
0
 42
2.5
  3
OpenSans-Bold.ttf
  4

  0
STYLE
  5
48
330
5
100
AcDbSymbolTableRecord
100
AcDbTextStyleTableRecord
  2
OpenSans-BoldItalic
 70
0
 40
0.0
 41
1.0
 50
0.0
 71
0
 42
2.5
  3
OpenSans-BoldItalic.ttf
  4

  0
STYLE
  5
49
330
5
100
AcDbSymbolTableRecord
100
AcDbTextStyleTableRecord
  2
OpenSans-ExtraBold
 70
0
 40
0.0
 41
1.0
 50
0.0
 71
0
 42
2.5
  3
OpenSans-ExtraBold.ttf
  4

  0
STYLE
  5
4A
330
5
100
AcDbSymbolTableRecord
100
AcDbTextStyleTableRecord
  2
OpenSans-ExtraBoldItalic
 70
0
 40
0.0
 41
1.0
 50
0.0
 71
0
 42
2.5
  3
OpenSans-ExtraBoldItalic.ttf
  4

  0
STYLE
  5
4B
330
5
100
AcDbSymbolTableRecord
100
AcDbTextStyleTableRecord
  2
OpenSansCondensed-Bold
 70
0
 40
0.0
 41
1.0
 50
0.0
 71
0
 42
2.5
  3
OpenSansCondensed-Bold.ttf
  4

  0
STYLE
  5
4C
330
5
100
AcDbSymbolTableRecord
100
AcDbTextStyleTableRecord
  2
OpenSansCondensed-Light
 70
0
 40
0.0
 41
1.0
 50
0.0
 71
0
 42
2.5
  3
OpenSansCondensed-Light.ttf
  4

  0
STYLE
  5
4D
330
5
100
AcDbSymbolTableRecord
100
AcDbTextStyleTableRecord
  2
OpenSansCondensed-Italic
 70
0
 40
0.0
 41
1.0
 50
0.0
 71
0
 42
2.5
  3
OpenSansCondensed-LightItalic.ttf
  4

  0
STYLE
  5
4E
330
5
100
AcDbSymbolTableRecord
100
AcDbTextStyleTableRecord
  2
LiberationSans
 70
0
 40
0.0
 41
1.0
 50
0.0
 71
0
 42
2.5
  3
LiberationSans-Regular.ttf
  4

  0
STYLE
  5
4F
330
5
100
AcDbSymbolTableRecord
100
AcDbTextStyleTableRecord
  2
LiberationSans-Bold
 70
0
 40
0.0
 41
1.0
 50
0.0
 71
0
 42
2.5
  3
LiberationSans-Bold.ttf
  4

  0
STYLE
  5
50
330
5
100
AcDbSymbolTableRecord
100
AcDbTextStyleTableRecord
  2
LiberationSans-BoldItalic
 70
0
 40
0.0
 41
1.0
 50
0.0
 71
0
 42
2.5
  3
LiberationSans-BoldItalic.ttf
  4

  0
STYLE
  5
51
330
5
100
AcDbSymbolTableRecord
100
AcDbTextStyleTableRecord
  2
LiberationSans-Italic
 70
0
 40
0.0
 41
1.0
 50
0.0
 71
0
 42
2.5
  3
LiberationSans-Italic.ttf
  4

  0
STYLE
  5
52
330
5
100
AcDbSymbolTableRecord
100
AcDbTextStyleTableRecord
  2
LiberationSerif
 70
0
 40
0.0
 41
1.0
 50
0.0
 71
0
 42
2.5
  3
LiberationSerif-Regular.ttf
  4

  0
STYLE
  5
53
330
5
100
AcDbSymbolTableRecord
100
AcDbTextStyleTableRecord
  2
LiberationSerif-Bold
 70
0
 40
0.0
 41
1.0
 50
0.0
 71
0
 42
2.5
  3
LiberationSerif-Bold.ttf
  4

  0
STYLE
  5
54
330
5
100
AcDbSymbolTableRecord
100
AcDbTextStyleTableRecord
  2
LiberationSerif-BoldItalic
 70
0
 40
0.0
 41
1.0
 50
0.0
 71
0
 42
2.5
  3
LiberationSerif-BoldItalic.ttf
  4

  0
STYLE
  5
55
330
5
100
AcDbSymbolTableRecord
100
AcDbTextStyleTableRecord
  2
LiberationSerif-Italic
 70
0
 40
0.0
 41
1.0
 50
0.0
 71
0
 42
2.5
  3
LiberationSerif-Italic.ttf
  4

  0
STYLE
  5
56
330
5
100
AcDbSymbolTableRecord
100
AcDbTextStyleTableRecord
  2
LiberationMono
 70
0
 40
0.0
 41
1.0
 50
0.0
 71
0
 42
2.5
  3
LiberationMono-Regular.ttf
  4

  0
STYLE
  5
57
330
5
100
AcDbSymbolTableRecord
100
AcDbTextStyleTableRecord
  2
LiberationMono-Bold
 70
0
 40
0.0
 41
1.0
 50
0.0
 71
0
 42
2.5
  3
LiberationMono-Bold.ttf
  4

  0
STYLE
  5
58
330
5
100
AcDbSymbolTableRecord
100
AcDbTextStyleTableRecord
  2
LiberationMono-BoldItalic
 70
0
 40
0.0
 41
1.0
 50
0.0
 71
0
 42
2.5
  3
LiberationMono-BoldItalic.ttf
  4

  0
STYLE
  5
59
330
5
100
AcDbSymbolTableRecord
100
AcDbTextStyleTableRecord
  2
LiberationMono-Italic
 70
0
 40
0.0
 41
1.0
 50
0.0
 71
0
 42
2.5
  3
LiberationMono-Italic.ttf
  4

  0
ENDTAB
  0
TABLE
  2
VIEW
  5
7
330
0
100
AcDbSymbolTable
 70
0
  0
ENDTAB
  0
TABLE
  2
UCS
  5
6
330
0
100
AcDbSymbolTable
 70
0
  0
ENDTAB
  0
TABLE
  2
APPID
  5
3
330
0
100
AcDbSymbolTable
 70
3
  0
APPID
  5
2A
330
3
100
AcDbSymbolTableRecord
100
AcDbRegAppTableRecord
  2
ACAD
 70
0
  0
APPID
  5
B6
330
3
100
AcDbSymbolTableRecord
100
AcDbRegAppTableRecord
  2
HATCHBACKGROUNDCOLOR
 70
0
  0
APPID
  5
B7
330
3
100
AcDbSymbolTableRecord
100
AcDbRegAppTableRecord
  2
EZDXF
 70
0
  0
ENDTAB
  0
TABLE
  2
DIMSTYLE
  5
4
330
0
100
AcDbSymbolTable
 70
12
100
AcDbDimStyleTable
  0
DIMSTYLE
105
2B
330
4
100
AcDbSymbolTableRecord
100
AcDbDimStyleTableRecord
  2
Standard
 70
0
 40
1.0
 41
2.5
 42
0.625
 43
3.75
 44
1.25
 45
0.0
 46
0.0
 47
0.0
 48
0.0
 49
2.5
140
2.5
141
2.5
142
0.0
143
0.03937007874
144
1.0
145
0.0
146
1.0
147
0.625
148
0.0
 69
0
 70
0
 71
0
 72
0
 73
0
 74
0
 75
0
 76
0
 77
1
 78
8
 79
3
170
0
171
3
172
1
173
0
174
0
175
0
176
0
177
0
178
0
179
2
271
2
272
2
273
2
274
3
275
0
276
0
277
2
278
44
279
0
280
0
281
0
282
0
283
0
284
8
285
0
286
0
288
0
289
3
290
0
371
-2
372
-2
  0
DIMSTYLE
105
73
330
4
100
AcDbSymbolTableRecord
100
AcDbDimStyleTableRecord
  2
EZDXF
 70
0
 40
1.0
 41
0.175
 42
0.125
 43
3.75
 44
0.375
 45
0.0
 46
0.0
 47
0.0
 48
0.0
 49
2.5
140
0.25
141
2.5
142
0.0
143
0.03937007874
144
100.0
145
0.0
146
0.5
147
0.1
148
0.0
 69
0
 70
0
 71
0
 72
0
 73
0
 74
0
 75
0
 76
0
 77
1
 78
12
 79
3
170
0
171
3
172
1
173
0
174
0
175
0
176
0
177
0
178
0
179
2
271
2
272
2
273
2
274
3
275
0
276
0
277
2
278
46
279
2
280
0
281
0
282
0
283
0
284
8
285
0
286
0
288
1
289
3
290
0
340
4C
342
74
371
-2
372
-2
  0
DIMSTYLE
105
7C
330
4
100
AcDbSymbolTableRecord
100
AcDbDimStyleTableRecord
  2
EZ_M_100_H25_CM
 70
0
 40
1.0
 41
0.25
 42
0.125
 43
3.75
 44
0.375
 45
0.0
 46
0.0
 47
0.0
 48
0.0
 49
2.5
140
0.25
141
2.5
142
0.125
143
0.03937007874
144
100.0
145
0.0
146
0.5
147
0.1
148
0.0
 69
0
 70
0
 71
0
 72
0
 73
0
 74
0
 75
0
 76
0
 77
1
 78
12
 79
3
170
0
171
3
172
1
173
0
174
0
175
0
176
0
177
0
178
0
179
2
271
2
272
2
273
2
274
3
275
0
276
0
277
2
278
46
279
2
280
0
281
0
282
0
283
0
284
8
285
0
286
0
288
1
289
3
290
0
340
4C
371
-2
372
-2
  0
DIMSTYLE
105
7D
330
4
100
AcDbSymbolTableRecord
100
AcDbDimStyleTableRecord
  2
EZ_M_50_H25_CM
 70
0
 40
1.0
 41
0.125
 42
0.0625
 43
3.75
 44
0.1875
 45
0.0
 46
0.0
 47
0.0
 48
0.0
 49
2.5
140
0.125
141
2.5
142
0.0625
143
0.03937007874
144
100.0
145
0.0
146
0.5
147
0.05
148
0.0
 69
0
 70
0
 71
0
 72
0
 73
0
 74
0
 75
0
 76
0
 77
1
 78
12
 79
3
170
0
171
3
172
1
173
0
174
0
175
0
176
0
177
0
178
0
179
2
271
2
272
2
273
2
274
3
275
0
276
0
277
2
278
46
279
2
280
0
281
0
282
0
283
0
284
8
285
0
286
0
288
1
289
3
290
0
340
4C
371
-2
372
-2
  0
DIMSTYLE
105
7E
330
4
100
AcDbSymbolTableRecord
100
AcDbDimStyleTableRecord
  2
EZ_M_25_H25_CM
 70
0
 40
1.0
 41
0.0625
 42
0.03125
 43
3.75
 44
0.09375
 45
0.0
 46
0.0
 47
0.0
 48
0.0
 49
2.5
140
0.0625
141
2.5
142
0.03125
143
0.03937007874
144
100.0
145
0.0
146
0.5
147
0.025
148
0.0
 69
0
 70
0
 71
0
 72
0
 73
0
 74
0
 75
0
 76
0
 77
1
 78
12
 79
3
170
0
171
3
172
1
173
0
174
0
175
0
176
0
177
0
178
0
179
2
271
2
272
2
273
2
274
3
275
0
276
0
277
2
278
46
279
2
280
0
281
0
282
0
283
0
284
8
285
0
286
0
288
1
289
3
290
0
340
4C
371
-2
372
-2
  0
DIMSTYLE
105
7F
330
4
100
AcDbSymbolTableRecord
100
AcDbDimStyleTableRecord
  2
EZ_M_20_H25_CM
 70
0
 40
1.0
 41
0.05
 42
0.025
 43
3.75
 44
0.07500000000000001
 45
0.0
 46
0.0
 47
0.0
 48
0.0
 49
2.5
140
0.05
141
2.5
142
0.025
143
0.03937007874
144
100.0
145
0.0
146
0.5
147
0.020000000000000004
148
0.0
 69
0
 70
0
 71
0
 72
0
 73
0
 74
0
 75
0
 76
0
 77
1
 78
12
 79
3
170
0
171
3
172
1
173
0
174
0
175
0
176
0
177
0
178
0
179
2
271
2
272
2
273
2
274
3
275
0
276
0
277
2
278
46
279
2
280
0
281
0
282
0
283
0
284
8
285
0
286
0
288
1
289
3
290
0
340
4C
371
-2
372
-2
  0
DIMSTYLE
105
80
330
4
100
AcDbSymbolTableRecord
100
AcDbDimStyleTableRecord
  2
EZ_M_10_H25_CM
 70
0
 40
1.0
 41
0.025
 42
0.0125
 43
3.75
 44
0.037500000000000006
 45
0.0
 46
0.0
 47
0.0
 48
0.0
 49
2.5
140
0.025
141
2.5
142
0.0125
143
0.03937007874
144
100.0
145
0.0
146
0.5
147
0.010000000000000002
148
0.0
 69
0
 70
0
 71
0
 72
0
 73
0
 74
0
 75
0
 76
0
 77
1
 78
12
 79
3
170
0
171
3
172
1
173
0
174
0
175
0
176
0
177
0
178
0
179
2
271
2
272
2
273
2
274
3
275
0
276
0
277
2
278
46
279
2
280
0
281
0
282
0
283
0
284
8
285
0
286
0
288
1
289
3
290
0
340
4C
371
-2
372
-2
  0
DIMSTYLE
105
81
330
4
100
AcDbSymbolTableRecord
100
AcDbDimStyleTableRecord
  2
EZ_M_5_H25_CM
 70
0
 40
1.0
 41
0.0125
 42
0.00625
 43
3.75
 44
0.018750000000000003
 45
0.0
 46
0.0
 47
0.0
 48
0.0
 49
2.5
140
0.0125
141
2.5
142
0.00625
143
0.03937007874
144
100.0
145
0.0
146
0.5
147
0.005000000000000001
148
0.0
 69
0
 70
0
 71
0
 72
0
 73
0
 74
0
 75
0
 76
0
 77
1
 78
12
 79
3
170
0
171
3
172
1
173
0
174
0
175
0
176
0
177
0
178
0
179
2
271
2
272
2
273
2
274
3
275
0
276
0
277
2
278
46
279
2
280
0
281
0
282
0
283
0
284
8
285
0
286
0
288
1
289
3
290
0
340
4C
371
-2
372
-2
  0
DIMSTYLE
105
82
330
4
100
AcDbSymbolTableRecord
100
AcDbDimStyleTableRecord
  2
EZ_M_1_H25_CM
 70
0
 40
1.0
 41
0.0025
 42
0.00125
 43
3.75
 44
0.00375
 45
0.0
 46
0.0
 47
0.0
 48
0.0
 49
2.5
140
0.0025
141
2.5
142
0.00125
143
0.03937007874
144
100.0
145
0.0
146
0.5
147
0.001
148
0.0
 69
0
 70
0
 71
0
 72
0
 73
0
 74
0
 75
0
 76
0
 77
1
 78
12
 79
3
170
0
171
3
172
1
173
0
174
0
175
0
176
0
177
0
178
0
179
2
271
2
272
2
273
2
274
3
275
0
276
0
277
2
278
46
279
2
280
0
281
0
282
0
283
0
284
8
285
0
286
0
288
1
289
3
290
0
340
4C
371
-2
372
-2
  0
DIMSTYLE
105
83
330
4
100
AcDbSymbolTableRecord
100
AcDbDimStyleTableRecord
  2
EZ_RADIUS
 70
0
 40
1.0
 41
0.25
 42
0.125
 43
3.75
 44
0.375
 45
0.0
 46
0.0
 47
0.0
 48
0.0
 49
2.5
140
0.25
141
0.0
142
0.0
143
0.03937007874
144
100.0
145
0.0
146
0.5
147
0.1
148
0.0
 69
0
 70
0
 71
0
 72
0
 73
0
 74
0
 75
0
 76
0
 77
1
 78
12
 79
3
170
0
171
3
172
0
173
0
174
0
175
0
176
0
177
0
178
0
179
2
271
2
272
2
273
2
274
3
275
0
276
0
277
2
278
46
279
1
280
0
281
0
282
0
283
0
284
8
285
0
286
0
288
1
289
3
290
0
340
4C
342
84
371
-2
372
-2
  0
DIMSTYLE
105
88
330
4
100
AcDbSymbolTableRecord
100
AcDbDimStyleTableRecord
  2
EZ_RADIUS_INSIDE
 70
0
 40
1.0
 41
0.25
 42
0.125
 43
3.75
 44
0.375
 45
0.0
 46
0.0
 47
0.0
 48
0.0
 49
2.5
140
0.25
141
0.0
142
0.0
143
0.03937007874
144
100.0
145
0.0
146
0.5
147
0.1
148
0.0
 69
0
 70
0
 71
0
 72
0
 73
0
 74
0
 75
0
 76
0
 77
0
 78
12
 79
3
170
0
171
3
172
0
173
0
174
1
175
0
176
0
177
0
178
0
179
2
271
2
272
2
273
2
274
3
275
0
276
0
277
2
278
46
279
0
280
0
281
0
282
0
283
0
284
8
285
0
286
0
288
1
289
0
290
0
340
4C
342
84
371
-2
372
-2
  0
DIMSTYLE
105
89
330
4
100
AcDbSymbolTableRecord
100
AcDbDimStyleTableRecord
  2
EZ_CURVED
 70
0
 40
1.0
 41
0.25
 42
0.125
 43
3.75
 44
0.375
 45
0.0
 46
0.0
 47
0.0
 48
0.0
 49
2.5
140
0.25
141
2.5
142
0.0
143
0.03937007874
144
100.0
145
0.0
146
0.5
147
0.1
148
0.0
 69
0
 70
0
 71
0
 72
0
 73
0
 74
0
 75
0
 76
0
 77
1
 78
12
 79
2
 90
2
170
0
171
3
172
1
173
0
174
0
175
0
176
0
177
0
178
0
179
2
271
2
272
2
273
2
274
3
275
0
276
0
277
2
278
46
279
2
280
0
281
0
282
0
283
0
284
8
285
0
286
0
288
1
289
3
290
0
340
4C
371
-2
372
-2
  0
ENDTAB
  0
TABLE
  2
BLOCK_RECORD
  5
9
330
0
100
AcDbSymbolTable
 70
5
  0
BLOCK_RECORD
  5
17
330
9
100
AcDbSymbolTableRecord
100
AcDbBlockTableRecord
  2
*Model_Space
340
1A
 70
0
280
1
281
0
  0
BLOCK_RECORD
  5
1B
330
9
100
AcDbSymbolTableRecord
100
AcDbBlockTableRecord
  2
*Paper_Space
340
1E
 70
0
280
1
281
0
  0
BLOCK_RECORD
  5
74
330
9
100
AcDbSymbolTableRecord
100
AcDbBlockTableRecord
  2
_ARCHTICK
340
0
 70
0
280
1
281
0
  0
BLOCK_RECORD
  5
78
330
9
100
AcDbSymbolTableRecord
100
AcDbBlockTableRecord
  2
_CLOSEDFILLED
340
0
 70
0
280
1
281
0
  0
BLOCK_RECORD
  5
84
330
9
100
AcDbSymbolTableRecord
100
AcDbBlockTableRecord
  2
_CLOSEDBLANK
340
0
 70
0
280
1
281
0
  0
ENDTAB
  0
ENDSEC
  0
SECTION
  2
BLOCKS
  0
BLOCK
  5
18
330
17
100
AcDbEntity
  8
0
100
AcDbBlockBegin
  2
*Model_Space
 70
0
 10
0.0
 20
0.0
 30
0.0
  3
*Model_Space
  1

  0
ENDBLK
  5
19
330
17
100
AcDbEntity
  8
0
100
AcDbBlockEnd
  0
BLOCK
  5
1C
330
1B
100
AcDbEntity
  8
0
100
AcDbBlockBegin
  2
*Paper_Space
 70
0
 10
0.0
 20
0.0
 30
0.0
  3
*Paper_Space
  1

  0
ENDBLK
  5
1D
330
1B
100
AcDbEntity
  8
0
100
AcDbBlockEnd
  0
BLOCK
  5
75
330
74
100
AcDbEntity
  8
0
100
AcDbBlockBegin
  2
_ARCHTICK
 70
0
 10
0.0
 20
0.0
 30
0.0
  3
_ARCHTICK
  1

  0
LWPOLYLINE
  5
77
330
74
100
AcDbEntity
  8
0
  6
BYBLOCK
 62
0
100
AcDbPolyline
 90
2
 70
0
 43
0.15
 10
-0.5
 20
-0.5
 10
0.5
 20
0.5
  0
ENDBLK
  5
76
330
74
100
AcDbEntity
  8
0
100
AcDbBlockEnd
  0
BLOCK
  5
79
330
78
100
AcDbEntity
  8
0
100
AcDbBlockBegin
  2
_CLOSEDFILLED
 70
0
 10
0.0
 20
0.0
 30
0.0
  3
_CLOSEDFILLED
  1

  0
SOLID
  5
7B
330
78
100
AcDbEntity
  8
0
  6
BYBLOCK
 62
0
100
AcDbTrace
 10
-1.0
 20
0.16439898372402537
 30
0.0
 11
0.0
 21
0.0
 31
0.0
 12
-1.0
 22
-0.16439898372402537
 32
0.0
 13
-1.0
 23
-0.16439898372402537
 33
0.0
  0
ENDBLK
  5
7A
330
78
100
AcDbEntity
  8
0
100
AcDbBlockEnd
  0
BLOCK
  5
85
330
84
100
AcDbEntity
  8
0
100
AcDbBlockBegin
  2
_CLOSEDBLANK
 70
0
 10
0.0
 20
0.0
 30
0.0
  3
_CLOSEDBLANK
  1

  0
LWPOLYLINE
  5
87
330
84
100
AcDbEntity
  8
0
  6
BYBLOCK
 62
0
100
AcDbPolyline
 90
3
 70
1
 10
-1.0
 20
0.16439898372402537
 10
0.0
 20
0.0
 10
-1.0
 20
-0.16439898372402537
  0
ENDBLK
  5
86
330
84
100
AcDbEntity
  8
0
100
AcDbBlockEnd
  0
ENDSEC
  0
SECTION
  2
ENTITIES
  0
LWPOLYLINE
  5
8C
330
17
100
AcDbEntity
  8
Layer
100
AcDbPolyline
 90
261
 70
1
 10
693.3766967916814
 20
138.70203281902218
 10
690.809111100792
 20
139.62757210803005
 10
686.6265632906009
 20
141.1290012224306
 10
682.031384389475
 20
142.76327294904053
 10
677.0197157193004
 20
144.51196951321336
 10
671.5685132466232
 20
146.37288724607544
 10
665.710595260341
 20
148.3699770671795
 10
659.5111033266307
 20
150.495321124254
 10
653.038586084183
 20
152.73344468887922
 10
646.3480854221729
 20
155.06662321915428
 10
639.4913370829461
 20
157.47713916823432
 10
632.5036099017047
 20
159.95200508662106
 10
625.4147956556812
 20
162.47662571096305
 10
618.2494159626887
 20
165.04125488748446
 10
611.0230852535785
 20
167.6362187247958
 10
603.7560363449566
 20
170.25000717447733
 10
596.4690707095976
 20
172.8733298649796
 10
589.1816283568885
 20
175.49495959096527
 10
581.9060754364083
 20
178.10616212458723
 10
574.6520811576072
 20
180.70167767647686
 10
567.4283549012611
 20
183.27494736635305
 10
560.2363946040098
 20
185.82123278651264
 10
553.0774395294442
 20
188.3380406068217
 10
545.9550021103391
 20
190.8217477586331
 10
538.870407031786
 20
193.267948860474
 10
531.8224492619688
 20
195.67392079901043
 10
525.1952896945018
 20
197.9081639589731
 10
524.8758221279061
 20
196.96056674818496
 10
524.4963849922524
 20
197.08850268243728
 10
517.5290724492514
 20
199.4041187112074
 10
510.5981385457885
 20
201.66972725641085
 10
503.6983982202366
 20
203.8841454489477
 10
496.82725990802135
 20
206.0465330452363
 10
489.9819292358002
 20
208.15501581468737
 10
483.1568610002661
 20
210.2085211236582
 10
476.34659415712184
 20
212.20750283577178
 10
469.5483452880364
 20
214.15217922080322
 10
462.7600219877306
 20
216.04172468014661
 10
455.97762199132137
 20
217.8756854853072
 10
449.19695258796816
 20
219.6545167196198
 10
442.4164891395636
 20
221.37903445487393
 10
435.63585059446126
 20
223.04869373051974
 10
428.85280959314514
 20
224.6627230350804
 10
422.06441596258685
 20
226.22168317538785
 10
415.2699959623283
 20
227.72634663643544
 10
408.4704988531242
 20
229.17628900958644
 10
401.6649475593251
 20
230.5707754406204
 10
394.85169443714716
 20
231.90999975004016
 10
388.03006844391155
 20
233.19461687095566
 10
381.2016895503955
 20
234.4246329463026
 10
374.366953838368
 20
235.59914212067062
 10
367.5245052863912
 20
236.7179807101134
 10
360.67427252672155
 20
237.7818936540657
 10
353.81797083153026
 20
238.79061701509897
 10
346.9557222855508
 20
239.74311764514056
 10
340.0842995156813
 20
240.6388767775381
 10
333.2005484863647
 20
241.4793374005828
 10
326.3058714009991
 20
242.26603728081005
 10
319.4034325833716
 20
242.9987645193621
 10
312.49400865973786
 20
243.67658401338844
 10
305.57666413236694
 20
244.29963010706544
 10
298.6532671574889
 20
244.869285618687
 10
291.72871847223644
 20
245.38550796099418
 10
284.80607773585126
 20
245.84679953175367
 10
277.88530105532163
 20
246.2522683709911
 10
270.96767330814794
 20
246.6027948374666
 10
264.0577489464399
 20
246.89823266206636
 10
257.15902930286484
 20
247.1371976840104
 10
250.27136245085237
 20
247.3181056186752
 10
243.39519678096158
 20
247.44148015124767
 10
236.53478716233428
 20
247.50748519776815
 10
229.69380365083256
 20
247.51459155202457
 10
222.87278303788426
 20
247.46109416969975
 10
216.07190176978082
 20
247.34704922648808
 10
209.29551151337634
 20
247.17276886496398
 10
202.54812323992311
 20
246.93682010905175
 10
195.83039123931286
 20
246.63712880563494
 10
189.14339107748464
 20
246.27369512359581
 10
182.49196551229528
 20
245.84689731772727
 10
175.88146081561564
 20
245.35511537504436
 10
169.31289916815916
 20
244.79615187416468
 10
162.78852485723323
 20
244.1704432498071
 10
156.31503519679364
 20
243.47828952845487
 10
149.89753296076498
 20
242.71756508908456
 10
143.53785185012202
 20
241.8867688766999
 10
137.2408359852415
 20
240.98700060704942
 10
131.01454188994475
 20
240.01811038439985
 10
124.86402979556462
 20
238.97848719276823
 10
118.793679018967
 20
237.869277561897
 10
112.81628283592823
 20
236.69506688187562
 10
106.94702023114283
 20
235.45657087563475
 10
101.1949061016899
 20
234.15299385492116
 10
95.57016489482368
 20
232.78903614722924
 10
90.09132728272752
 20
231.371429988534
 10
84.77469087435747
 20
229.9024878119485
 10
79.63148888193118
 20
228.3866917830337
 10
74.67753317052586
 20
226.83506141438883
 10
69.93218016800941
 20
225.25738866622547
 10
65.40821342279463
 20
223.65963209727315
 10
61.114106831393485
 20
222.0523251135748
 10
57.05996585897694
 20
220.44894167447057
 10
53.25245473755521
 20
218.85819160008552
 10
49.69016756616753
 20
217.28619043178222
 10
46.3681513725937
 20
215.74189358456587
 10
43.28102913703276
 20
214.23342349294026
 10
40.42023287540556
 20
212.7636207839824
 10
37.772728257144166
 20
211.33247246328742
 10
35.32354926626928
 20
209.94137633873794
 10
33.05914307875355
 20
208.59278385146538
 10
30.967113230125022
 20
207.28641738760462
 10
29.034469596729735
 20
206.0193143722843
 10
27.248167182673825
 20
204.78843914283587
 10
25.595773145299205
 20
203.59185737406227
 10
24.06731372395265
 20
202.42901931724012
 10
22.65462305758666
 20
201.29780989762605
 10
21.349961707133843
 20
200.1941553610771
 10
20.143545260532818
 20
199.11224548187977
 10
19.024763858429168
 20
198.04993385634526
 10
17.983256947338816
 20
197.00769595921128
 10
17.01170734657765
 20
195.99021255526526
 10
16.10649299118697
 20
195.00126420053525
 10
15.268494915793525
 20
194.0441528176285
 10
14.499736521290458
 20
193.11559443460877
 10
13.801677977465829
 20
192.2101660186828
 10
13.173212258237527
 20
191.31990127627844
 10
12.609740833473268
 20
190.4366907069434
 10
12.105445045594479
 20
189.55810941875734
 10
11.654290275348785
 20
188.68523046654593
 10
11.252502828825413
 20
187.82406270871823
 10
10.898577905694651
 20
186.97943799778682
 10
10.59326525795177
 20
186.1556125429326
 10
10.338202279071652
 20
185.35311359422155
 10
10.13450030565997
 20
184.5691090067593
 10
9.982033052190388
 20
183.80043840404767
 10
9.879319787043528
 20
183.0444143029352
 10
9.820570078601975
 20
182.2213239992268
 10
9.812799799329127
 20
181.55738325710868
 10
9.849022732469678
 20
180.81131922032273
 10
9.93669079154904
 20
180.07038201743805
 10
10.081995794319198
 20
179.33770556818368
 10
10.293245043143884
 20
178.6113785139268
 10
10.57817895745859
 20
177.8880113292332
 10
10.940385296451666
 20
177.16669641960263
 10
11.378126195670518
 20
176.44985624543548
 10
11.886313650867521
 20
175.74246771766775
 10
12.461323649991982
 20
175.0492046972907
 10
13.102768178099097
 20
174.37354165659997
 10
13.814166322075437
 20
173.71668017393327
 10
14.599208102093542
 20
173.07839359002455
 10
15.460338300979402
 20
172.457115605753
 10
16.396650475714665
 20
171.85111390073104
 10
17.40719050570283
 20
171.25852839899582
 10
18.490836291031172
 20
170.67859091693634
 10
19.650743033192924
 20
170.11097945617917
 10
20.891661672927142
 20
169.55559090930248
 10
22.22162304961219
 20
169.01168395163768
 10
23.648494758035184
 20
168.47711822920783
 10
25.180005155818606
 20
167.94867001548087
 10
26.824546479072012
 20
167.4228004737575
 10
28.59079211517644
 20
166.89644133362836
 10
30.490562559499523
 20
166.36791782318784
 10
32.53850917877517
 20
165.83645197157554
 10
34.75254223605228
 20
165.30119187536232
 10
37.151822124500484
 20
164.7605140801984
 10
39.75731980378961
 20
164.21285715759447
 10
42.59124356219894
 20
163.65762142416924
 10
45.67870787323707
 20
163.09582580135896
 10
49.04685106610236
 20
162.52917073626577
 10
52.72167200486592
 20
161.95842105191278
 10
56.72482324901256
 20
161.38489464675186
 10
61.072737085592024
 20
160.812931511696
 10
65.77636857880853
 20
160.24874545503948
 10
70.8379724792866
 20
159.69709080566992
 10
76.24560055609683
 20
159.1619621345256
 10
81.97689143650356
 20
158.65031400397936
 10
88.00623708588881
 20
158.16800039895875
 10
94.30151685646854
 20
157.7167097793965
 10
100.82532918986348
 20
157.29886665726406
 10
107.54745491606161
 20
156.9173300297751
 10
114.44206255469555
 20
156.570685741597
 10
121.48281124362131
 20
156.25732422337435
 10
128.65488087862468
 20
155.97817144917485
 10
135.95545051384602
 20
155.72749899982566
 10
143.36311855258828
 20
155.4914514392833
 10
144.14556105542744
 20
155.46759110950237
 10
144.11508054890584
 20
154.46805574808576
 10
150.79882815277807
 20
154.26423531380507
 10
158.28463517802845
 20
154.05562218930618
 10
165.79589675856255
 20
153.87811455022262
 10
173.36171795978416
 20
153.73042870284323
 10
180.99739523896903
 20
153.6000319962297
 10
188.6883553399898
 20
153.4735326241041
 10
196.40586095898874
 20
153.34414824402683
 10
204.12631141935057
 20
153.2148842346636
 10
211.8327046137043
 20
153.09694963355753
 10
219.54110622668412
 20
152.99952983089958
 10
227.2799065740129
 20
152.92021089701373
 10
235.06017200436554
 20
152.8484361502509
 10
242.86786668879927
 20
152.7762048549705
 10
250.6912419417194
 20
152.70350918445982
 10
258.52069062135547
 20
152.63221535202055
 10
266.34754469534204
 20
152.56136311895293
 10
274.1603220425138
 20
152.4911897648331
 10
281.9533710244888
 20
152.42735775459337
 10
289.73654418476013
 20
152.3747710340047
 10
297.520550425493
 20
152.32912196655423
 10
305.30059034808073
 20
152.27906694892312
 10
313.08125162588556
 20
152.21979640601137
 10
320.8625339161941
 20
152.15810876288495
 10
328.6425041284844
 20
152.10441480460898
 10
336.4305588341816
 20
152.05923971078576
 10
344.2226181847965
 20
152.01560700244374
 10
352.0039950582936
 20
151.97063773130066
 10
359.7665669862141
 20
151.93187868054545
 10
367.5166753540463
 20
151.90474717771332
 10
375.26045682909216
 20
151.88282919649384
 10
382.9873602012402
 20
151.8510803457989
 10
390.71048091844636
 20
151.80324001583816
 10
398.43769965342483
 20
151.74663322823193
 10
406.15902207354713
 20
151.69221119022575
 10
413.8517555584271
 20
151.63562033626778
 10
421.50452750400393
 20
151.56276538660373
 10
429.13717959097823
 20
151.46795630153468
 10
436.75314970214816
 20
151.3689714157378
 10
444.336293199937
 20
151.2916686944461
 10
451.92025998077764
 20
151.24438506178336
 10
459.5168554089303
 20
151.20630052149056
 10
467.10955882104935
 20
151.15039915659554
 10
474.71657216668297
 20
151.0680688014479
 10
482.3484781617286
 20
150.97301966801734
 10
489.9738209373628
 20
150.87746134061433
 10
497.5582374632269
 20
150.7723538162636
 10
505.1020315918437
 20
150.63698384788765
 10
512.6498240108212
 20
150.46359956698964
 10
520.2299861037661
 20
150.26840395985795
 10
527.8219397194678
 20
150.07176388838326
 10
535.3843648101586
 20
149.87398164942374
 10
542.8892988656896
 20
149.6532325359296
 10
550.3683852719623
 20
149.3915340815314
 10
557.866593824979
 20
149.0929259072366
 10
565.3903430348021
 20
148.77820639427642
 10
572.8938392753028
 20
148.4623983578884
 10
580.3276512335356
 20
148.1356893893588
 10
587.686305974704
 20
147.77190872998895
 10
595.0192048589576
 20
147.35375203797457
 10
602.3769299855584
 20
146.89201849468196
 10
609.7499466296506
 20
146.414921168634
 10
617.0700289060389
 20
145.93337896450691
 10
624.2895064427855
 20
145.43001200726965
 10
631.4094627647565
 20
144.8906515921965
 10
638.4278194901914
 20
144.3203908243899
 10
645.3136898808491
 20
143.72760820417594
 10
652.0224405140497
 20
143.11632361306175
 10
658.5078077018638
 20
142.48383789486195
 10
664.7397578386901
 20
141.8213912486355
 10
670.6985227297415
 20
141.1383997207182
 10
676.3367370003255
 20
140.46597258532216
 10
681.5904227672297
 20
139.8282035707893
 10
686.4171045923406
 20
139.2241986569861
 10
690.818006694994
 20
138.65390988230948
 10
693.5233705742252
 20
138.29779626628803
  0
LWPOLYLINE
  5
8D
330
17
100
AcDbEntity
  8
Layer
100
AcDbPolyline
 90
5
 70
0
 10
458.37101959738885
 20
213.08483635373798
 10
454.5096858779953
 20
214.1289158083172
 10
455.5537653325745
 20
217.99024952771074
 10
459.41509905196807
 20
216.94617007313153
 10
458.37101959738885
 20
213.08483635373798
  0
LWPOLYLINE
  5
8E
330
17
100
AcDbEntity
  8
Layer
100
AcDbPolyline
 90
5
 70
0
 10
200.56672443914897
 20
242.84442473778864
 10
196.5707008404582
 20
242.66611209464077
 10
196.3923881973103
 20
246.66213569333155
 10
200.3884117960011
 20
246.84044833647943
 10
200.56672443914897
 20
242.84442473778864
  0
LWPOLYLINE
  5
8F
330
17
100
AcDbEntity
  8
Layer
100
AcDbPolyline
 90
5
 70
0
 10
83.6711614860629
 20
225.40705905041185
 10
79.83436932990561
 20
224.27611875559077
 10
78.70342903508457
 20
228.11291091174806
 10
82.54022119124186
 20
229.24385120656913
 10
83.6711614860629
 20
225.40705905041185
  0
LWPOLYLINE
  5
90
330
17
100
AcDbEntity
  8
Layer
100
AcDbPolyline
 90
5
 70
0
 10
24.92134112232019
 20
196.6810053846137
 10
23.432882874988135
 20
195.34515657357665
 10
20.093260847395424
 20
199.06630219190677
 10
21.58171909472748
 20
200.40215100294384
 10
24.92134112232019
 20
196.6810053846137
  0
LWPOLYLINE
  5
91
330
17
100
AcDbEntity
  8
Layer
100
AcDbPolyline
 90
5
 70
0
 10
17.47712055962504
 20
177.1674140514913
 10
19.101129623367388
 20
176.00011179376938
 10
16.182873979062574
 20
171.9400891344135
 10
14.558864915320227
 20
173.10739139213544
 10
17.47712055962504
 20
177.1674140514913
  0
LWPOLYLINE
  5
92
330
17
100
AcDbEntity
  8
Layer
100
AcDbPolyline
 90
5
 70
0
 10
108.06448209393486
 20
160.89638877256652
 10
112.05943670881308
 20
160.69554648353585
 10
111.8585944197824
 20
156.70059186865763
 10
107.86363980490418
 20
156.9014341576883
 10
108.06448209393486
 20
160.89638877256652
  0
LINE
  5
93
330
17
100
AcDbEntity
  8
Layer
100
AcDbLine
 10
674.5911078834184
 20
145.34104152266684
 30
0.0
 11
674.2696339476713
 21
144.39412309501049
 31
0.0
  0
LINE
  5
94
330
17
100
AcDbEntity
  8
Layer
100
AcDbLine
 10
673.7119613640093
 20
141.7857909062889
 30
0.0
 11
673.6180283150865
 21
140.79021238988747
 31
0.0
  0
LINE
  5
95
330
17
100
AcDbEntity
  8
Layer
100
AcDbLine
 10
655.670697646922
 20
151.82329015508287
 30
0.0
 11
655.347904446528
 21
150.87682063640867
 31
0.0
  0
LINE
  5
96
330
17
100
AcDbEntity
  8
Layer
100
AcDbLine
 10
653.8347498777705
 20
143.9443147305376
 30
0.0
 11
653.7338033764071
 21
142.94942287517716
 31
0.0
  0
LINE
  5
97
330
17
100
AcDbEntity
  8
Layer
100
AcDbLine
 10
580.3098414879107
 20
178.67730264090764
 30
0.0
 11
579.9784603203128
 21
177.73380567654505
 31
0.0
  0
LINE
  5
98
330
17
100
AcDbEntity
  8
Layer
100
AcDbLine
 10
573.9858660493807
 20
149.4147436418992
 30
0.0
 11
573.9066466638596
 21
148.41788643599773
 31
0.0
  0
LWPOLYLINE
  5
99
330
17
100
AcDbEntity
  8
Layer
100
AcDbPolyline
 90
300
 70
1
 10
306.30005671077464
 20
200.0
 10
306.29224087652904
 20
200.7901522122352
 10
306.2687968250446
 20
201.57995551549715
 10
306.2297349085545
 20
202.36906115488102
 10
306.17507237570146
 20
203.15712068355072
 10
306.10483336392105
 20
203.9437861166031
 10
306.0190488887837
 20
204.7287100847285
 10
305.9177568302986
 20
205.51154598759913
 10
305.8010019161873
 20
206.29194814691797
 10
305.6688357021332
 20
207.0695719590607
 10
305.52131654901564
 20
207.8440740472429
 10
305.3585095971399
 20
208.61511241314554
 10
305.18048673747273
 20
209.38234658793183
 10
304.9873265798974
 20
210.14543778258874
 10
304.77911441850176
 20
210.90404903752656
 10
304.55594219391486
 20
211.65784537137097
 10
304.31790845270865
 20
212.40649392888108
 10
304.0651183038822
 20
213.14966412792927
 10
303.79768337244894
 20
213.88702780547672
 10
303.51572175014604
 20
214.61825936248107
 10
303.2193579432883
 20
215.34303590767172
 10
302.9087228177898
 20
216.06103740012963
 10
302.58395354137735
 20
216.77194679060833
 10
302.2451935230207
 20
217.47545016153387
 10
301.8925923496075
 20
218.17123686562206
 10
301.5263057198899
 20
218.85899966305158
 10
301.14649537573194
 20
219.53843485713244
 10
300.7533290306897
 20
220.20924242840977
 10
300.3469802959531
 20
220.8711261671441
 10
299.92762860368407
 20
221.52379380410918
 10
299.4954591277847
 20
222.16695713964992
 10
299.0506627021296
 20
222.8003321709431
 10
298.5934357362988
 20
223.42363921740514
 10
298.12398012884876
 20
224.03660304419114
 10
297.6425031781602
 20
224.6389529837308
 10
297.14921749090036
 20
225.23042305524768
 10
296.64434088814215
 20
225.81075208220878
 10
296.12809630918053
 20
226.3796838076527
 10
295.6007117130887
 20
226.93696700734557
 10
295.06241997805773
 20
227.48235560071456
 10
294.5134587985644
 20
228.01560875951017
 10
293.95407058041155
 20
228.53649101414916
 10
293.384502333689
 20
229.0447723576913
 10
292.8050055637005
 20
229.540228347404
 10
292.2158361599061
 20
230.02264020386986
 10
291.61725428292874
 20
230.49179490759352
 10
291.0095242496746
 20
230.94748529306503
 10
290.392914416618
 20
231.3895101402384
 10
289.76769706130295
 20
231.81767426338462
 10
289.134148262113
 20
232.23178859728023
 10
288.49254777636276
 20
232.63167028069313
 10
287.8431789167648
 20
233.01714273712912
 10
287.1863284263273
 20
233.3880357528029
 10
286.5222863517355
 20
233.7441855517998
 10
285.85134591527606
 20
234.08543486839463
 10
285.17380338535804
 20
234.41163301649573
 10
284.489957945689
 20
234.72263595618375
 10
283.80011156316414
 20
235.0183063573156
 10
283.1045688545259
 20
235.29851366016564
 10
282.40363695185414
 20
235.56313413307706
 10
281.69762536694503
 20
235.81205092709843
 10
280.9868458546394
 20
236.04515412758073
 10
280.2716122751607
 20
236.26234080271283
 10
279.55224045552296
 20
236.463515048973
 10
278.8290480500706
 20
236.64858803347738
 10
278.102354400211
 20
236.81747803320604
 10
277.37248039340295
 20
236.97011047108955
 10
276.6397483214609
 20
237.10641794894013
 10
275.90448173824063
 20
237.22634027721276
 10
275.1670053167666
 20
237.3298245015832
 10
274.4276447058659
 20
237.4168249263312
 10
273.6867263863702
 20
237.48730313451836
 10
272.9445775269519
 20
237.54122800495196
 10
272.2015258396549
 20
237.5785757259273
 10
271.45789943518656
 20
237.59932980574212
 10
270.7140266780332
 20
237.60348107997908
 10
269.97023604146335
 20
237.59102771555231
 10
269.22685596248374
 20
237.561975211517
 10
268.4842146968101
 20
237.516336396641
 10
267.7426401739193
 20
237.45413142374025
 10
267.00245985224433
 20
237.37538776077963
 10
266.2640005745784
 20
237.28014017874392
 10
265.52758842375005
 20
237.16843073628408
 10
264.7935485786342
 20
237.04030876114513
 10
264.0622051705624
 20
236.8958308283845
 10
263.3338811401955
 20
236.7350607353901
 10
262.6088980949221
 20
236.5580694737091
 10
261.887576166846
 20
236.3649351977002
 10
261.1702338714245
 20
236.15574319002266
 10
260.4571879668213
 20
235.93058582397816
 10
259.7487533140348
 20
235.68956252272105
 10
259.0452427378644
 20
235.4327797153561
 10
258.3469668887759
 20
235.16035078994233
 10
257.654234105727
 20
234.87239604342398
 10
256.96735028001353
 20
234.56904262851086
 10
256.2866187201963
 20
234.25042449753127
 10
255.61234001816877
 20
233.9166823432824
 10
254.94481191642402
 20
233.56796353690424
 10
254.28432917658006
 20
233.204422062805
 10
253.6311834492215
 20
232.82621845066544
 10
252.98566314511478
 20
232.43351970455382
 10
252.34805330785397
 20
232.02649922918152
 10
251.71863548799382
 20
231.60533675333238
 10
251.0976876187247
 20
231.1702182504995
 10
250.48548389314533
 20
230.72133585676465
 10
249.88229464318664
 20
230.25888778595635
 10
249.288386220241
 20
229.78307824212425
 10
248.7040208775487
 20
229.2941173293683
 10
248.12945665439457
 20
228.79222095906275
 10
247.5649472621649
 20
228.2776107545158
 10
247.01074197231574
 20
227.7505139531069
 10
246.4670855063015
 20
227.21116330594512
 10
245.9342179275131
 20
226.65979697509297
 10
245.41237453527242
 20
226.09665842840053
 10
244.90178576093103
 20
225.52199633199703
 10
244.40267706611803
 20
224.93606444048686
 10
243.91526884318253
 20
224.3391214848986
 10
243.4397763178747
 20
223.7314310584369
 10
242.97640945430803
 20
223.1132615000868
 10
242.5253728622452
 20
222.48488577612312
 10
242.08686570674803
 20
221.8465813595761
 10
241.66108162023193
 20
221.19863010770706
 10
241.24820861696318
 20
220.54131813754825
 10
240.8484290100372
 20
219.8749356995616
 10
240.46191933087414
 20
219.1997770494723
 10
240.08885025126762
 20
218.51614031833375
 10
239.72938650802084
 20
217.82432738088124
 10
239.38368683020354
 20
217.12464372223263
 10
239.05190386906162
 20
216.41739830299466
 10
238.7341841306106
 20
215.70290342283474
 10
238.43066791094284
 20
214.98147458257804
 10
238.1414892342766
 20
214.25343034489143
 10
237.86677579377476
 20
213.51909219361497
 10
237.6066488951592
 20
212.77878439180375
 10
237.36122340314546
 20
212.0328338385426
 10
237.13060769072177
 20
211.28156992459643
 10
236.91490359129466
 20
210.5253243869607
 10
236.71420635372215
 20
209.76443116237567
 10
236.52860460025443
 20
208.9992262398693
 10
236.35818028740098
 20
208.23004751239398
 10
236.2030086697407
 20
207.45723462762248
 10
236.0631582666917
 20
206.68112883796914
 10
235.938690832255
 20
205.9020728499024
 10
235.82966132774573
 20
205.12041067261526
 10
235.7361178975238
 20
204.33648746612056
 10
235.65810184773466
 20
203.5506493888379
 10
235.59564762806963
 20
202.76324344474
 10
235.54878281655397
 20
201.9746173301254
 10
235.51752810736912
 20
201.18511928008556
 10
235.50189730171482
 20
200.3950979147341
 10
235.50189730171482
 20
199.60490208526593
 10
235.51752810736912
 20
198.81488071991447
 10
235.54878281655397
 20
198.0253826698746
 10
235.59564762806963
 20
197.23675655526
 10
235.65810184773466
 20
196.4493506111621
 10
235.7361178975238
 20
195.66351253387947
 10
235.82966132774573
 20
194.87958932738476
 10
235.938690832255
 20
194.09792715009763
 10
236.0631582666917
 20
193.3188711620309
 10
236.2030086697407
 20
192.54276537237752
 10
236.35818028740098
 20
191.76995248760602
 10
236.52860460025443
 20
191.00077376013067
 10
236.71420635372215
 20
190.23556883762433
 10
236.91490359129466
 20
189.4746756130393
 10
237.13060769072177
 20
188.7184300754036
 10
237.36122340314546
 20
187.9671661614574
 10
237.6066488951592
 20
187.22121560819625
 10
237.86677579377476
 20
186.48090780638506
 10
238.1414892342766
 20
185.74656965510857
 10
238.43066791094284
 20
185.01852541742193
 10
238.7341841306106
 20
184.29709657716526
 10
239.05190386906162
 20
183.58260169700534
 10
239.38368683020354
 20
182.8753562777674
 10
239.72938650802084
 20
182.17567261911879
 10
240.0888502512676
 20
181.48385968166627
 10
240.46191933087414
 20
180.8002229505277
 10
240.8484290100372
 20
180.1250643004384
 10
241.24820861696318
 20
179.45868186245175
 10
241.66108162023193
 20
178.80136989229294
 10
242.08686570674803
 20
178.1534186404239
 10
242.5253728622452
 20
177.51511422387688
 10
242.97640945430803
 20
176.8867384999132
 10
243.4397763178747
 20
176.26856894156313
 10
243.91526884318253
 20
175.6608785151014
 10
244.40267706611803
 20
175.06393555951314
 10
244.90178576093103
 20
174.47800366800297
 10
245.41237453527242
 20
173.90334157159947
 10
245.9342179275131
 20
173.34020302490703
 10
246.4670855063015
 20
172.78883669405488
 10
247.0107419723157
 20
172.24948604689314
 10
247.5649472621649
 20
171.7223892454842
 10
248.12945665439457
 20
171.20777904093725
 10
248.7040208775487
 20
170.7058826706317
 10
249.28838622024097
 20
170.21692175787575
 10
249.88229464318664
 20
169.74111221404365
 10
250.48548389314533
 20
169.27866414323535
 10
251.0976876187247
 20
168.8297817495005
 10
251.71863548799382
 20
168.39466324666762
 10
252.348053307854
 20
167.97350077081848
 10
252.98566314511478
 20
167.56648029544618
 10
253.63118344922154
 20
167.17378154933456
 10
254.28432917658006
 20
166.795577937195
 10
254.94481191642402
 20
166.43203646309573
 10
255.61234001816877
 20
166.0833176567176
 10
256.2866187201963
 20
165.74957550246876
 10
256.96735028001353
 20
165.43095737148914
 10
257.654234105727
 20
165.12760395657602
 10
258.3469668887759
 20
164.8396492100577
 10
259.0452427378644
 20
164.5672202846439
 10
259.7487533140348
 20
164.31043747727895
 10
260.45718796682127
 20
164.06941417602184
 10
261.1702338714245
 20
163.84425680997734
 10
261.887576166846
 20
163.6350648022998
 10
262.6088980949221
 20
163.4419305262909
 10
263.3338811401955
 20
163.2649392646099
 10
264.0622051705624
 20
163.1041691716155
 10
264.7935485786342
 20
162.95969123885487
 10
265.52758842375005
 20
162.83156926371592
 10
266.26400057457846
 20
162.71985982125608
 10
267.00245985224433
 20
162.62461223922037
 10
267.74264017391926
 20
162.54586857625975
 10
268.4842146968101
 20
162.483663603359
 10
269.22685596248374
 20
162.438024788483
 10
269.97023604146335
 20
162.40897228444769
 10
270.7140266780331
 20
162.39651892002092
 10
271.45789943518656
 20
162.40067019425788
 10
272.2015258396549
 20
162.4214242740727
 10
272.9445775269519
 20
162.45877199504804
 10
273.6867263863702
 20
162.51269686548164
 10
274.4276447058659
 20
162.5831750736688
 10
275.1670053167666
 20
162.6701754984168
 10
275.90448173824063
 20
162.77365972278724
 10
276.63974832146096
 20
162.89358205105987
 10
277.372480393403
 20
163.02988952891045
 10
278.102354400211
 20
163.18252196679396
 10
278.8290480500705
 20
163.35141196652262
 10
279.55224045552296
 20
163.536484951027
 10
280.2716122751607
 20
163.73765919728717
 10
280.9868458546394
 20
163.95484587241927
 10
281.697625366945
 20
164.18794907290157
 10
282.4036369518541
 20
164.43686586692291
 10
283.1045688545259
 20
164.70148633983436
 10
283.80011156316414
 20
164.9816936426844
 10
284.489957945689
 20
165.27736404381625
 10
285.17380338535804
 20
165.58836698350427
 10
285.8513459152761
 20
165.91456513160537
 10
286.5222863517355
 20
166.2558144482002
 10
287.1863284263273
 20
166.6119642471971
 10
287.8431789167648
 20
166.98285726287088
 10
288.4925477763627
 20
167.36832971930684
 10
289.134148262113
 20
167.76821140271977
 10
289.76769706130295
 20
168.18232573661535
 10
290.392914416618
 20
168.61048985976157
 10
291.0095242496746
 20
169.05251470693497
 10
291.61725428292874
 20
169.50820509240648
 10
292.2158361599061
 20
169.97735979613012
 10
292.80500556370043
 20
170.45977165259598
 10
293.384502333689
 20
170.9552276423087
 10
293.95407058041155
 20
171.46350898585084
 10
294.5134587985644
 20
171.98439124048983
 10
295.06241997805773
 20
172.51764439928544
 10
295.6007117130887
 20
173.06303299265443
 10
296.12809630918053
 20
173.6203161923473
 10
296.64434088814215
 20
174.18924791779122
 10
297.14921749090036
 20
174.7695769447523
 10
297.6425031781602
 20
175.3610470162692
 10
298.12398012884876
 20
175.96339695580886
 10
298.5934357362988
 20
176.57636078259486
 10
299.0506627021296
 20
177.1996678290569
 10
299.4954591277847
 20
177.83304286035008
 10
299.92762860368407
 20
178.4762061958908
 10
300.3469802959531
 20
179.1288738328559
 10
300.7533290306897
 20
179.79075757159023
 10
301.14649537573194
 20
180.46156514286756
 10
301.5263057198899
 20
181.14100033694842
 10
301.8925923496075
 20
181.82876313437794
 10
302.2451935230207
 20
182.52454983846616
 10
302.58395354137735
 20
183.22805320939167
 10
302.9087228177898
 20
183.93896259987037
 10
303.2193579432883
 20
184.65696409232825
 10
303.515721750146
 20
185.38174063751893
 10
303.79768337244894
 20
186.11297219452328
 10
304.0651183038822
 20
186.85033587207073
 10
304.31790845270865
 20
187.59350607111892
 10
304.55594219391486
 20
188.34215462862903
 10
304.77911441850176
 20
189.0959509624734
 10
304.9873265798974
 20
189.85456221741126
 10
305.18048673747273
 20
190.61765341206817
 10
305.3585095971399
 20
191.38488758685446
 10
305.52131654901564
 20
192.1559259527571
 10
305.6688357021332
 20
192.9304280409393
 10
305.8010019161873
 20
193.70805185308203
 10
305.9177568302986
 20
194.48845401240087
 10
306.0190488887837
 20
195.2712899152715
 10
306.10483336392105
 20
196.05621388339688
 10
306.1750723757014
 20
196.84287931644928
 10
306.2297349085545
 20
197.63093884511895
 10
306.2687968250446
 20
198.42004448450285
 10
306.29224087652904
 20
199.2098477877648
 10
306.30005671077464
 20
200.0
  0
LINE
  5
9A
330
17
100
AcDbEntity
  8
Layer
 62
7
100
AcDbLine
 10
21.13346287917892
 20
200.00000000000003
 30
0.0
 11
515.7061565551198
 21
199.99999999999997
 31
0.0
  0
LINE
  5
9B
330
17
100
AcDbEntity
  8
Layer
 62
7
100
AcDbLine
 10
117.94800161436712
 20
200.00000000000003
 30
0.0
 11
129.94800161436712
 21
200.00000000000003
 31
0.0
  0
LWPOLYLINE
  5
9C
330
17
100
AcDbEntity
  8
Layer
100
AcDbPolyline
 90
5
 70
0
 10
123.94800161436712
 20
205.00000000000003
 10
128.94800161436712
 20
200.00000000000003
 10
123.94800161436712
 20
195.00000000000003
 10
118.94800161436712
 20
200.00000000000003
 10
123.94800161436712
 20
205.00000000000003
  0
LINE
  5
9D
330
17
100
AcDbEntity
  8
Layer
 62
7
100
AcDbLine
 10
262.4198097171494
 20
200.0
 30
0.0
 11
274.4198097171494
 21
200.0
 31
0.0
  0
LWPOLYLINE
  5
9E
330
17
100
AcDbEntity
  8
Layer
100
AcDbPolyline
 90
5
 70
0
 10
268.4198097171494
 20
205.0
 10
273.4198097171494
 20
200.0
 10
268.4198097171494
 20
195.0
 10
263.4198097171494
 20
200.0
 10
268.4198097171494
 20
205.0
  0
LINE
  5
9F
330
17
100
AcDbEntity
  8
Layer
 62
7
100
AcDbLine
 10
406.8916178199317
 20
199.99999999999997
 30
0.0
 11
418.8916178199317
 21
199.99999999999997
 31
0.0
  0
LWPOLYLINE
  5
A0
330
17
100
AcDbEntity
  8
Layer
100
AcDbPolyline
 90
5
 70
0
 10
412.8916178199317
 20
204.99999999999997
 10
417.8916178199317
 20
199.99999999999997
 10
412.8916178199317
 20
194.99999999999997
 10
407.8916178199317
 20
199.99999999999997
 10
412.8916178199317
 20
204.99999999999997
  0
LINE
  5
A1
330
17
100
AcDbEntity
  8
Layer
 62
7
100
AcDbLine
 10
9.867751979817001
 20
182.88234796735352
 30
0.0
 11
692.6360133938283
 21
138.969027446645
 31
0.0
  0
LINE
  5
A2
330
17
100
AcDbEntity
  8
Layer
 62
7
100
AcDbLine
 10
144.32573428726863
 20
174.23447019194745
 30
0.0
 11
156.30099128927208
 21
173.46426259917249
 31
0.0
  0
LWPOLYLINE
  5
A3
330
17
100
AcDbEntity
  8
Layer
100
AcDbPolyline
 90
5
 70
0
 10
150.63428261859326
 20
178.8390568130614
 10
155.3030532057718
 20
173.52844656523706
 10
149.99244295794745
 20
168.85967597805853
 10
145.32367237076892
 20
174.17028622588288
 10
150.63428261859326
 20
178.8390568130614
  0
LINE
  5
A4
330
17
100
AcDbEntity
  8
Layer
 62
7
100
AcDbLine
 10
311.7745008693955
 20
163.46473795148017
 30
0.0
 11
323.74975787139897
 21
162.6945303587052
 31
0.0
  0
LWPOLYLINE
  5
A5
330
17
100
AcDbEntity
  8
Layer
100
AcDbPolyline
 90
5
 70
0
 10
318.08304920072015
 20
168.06932457259416
 10
322.7518197878987
 20
162.7587143247698
 10
317.44120954007434
 20
158.08994373759128
 10
312.7724389528958
 20
163.40055398541563
 10
318.08304920072015
 20
168.06932457259416
  0
LINE
  5
A6
330
17
100
AcDbEntity
  8
Layer
100
AcDbLine
 10
270.89999999999964
 20
237.60399999999998
 30
0.0
 11
270.89999999999964
 21
238.60399999999998
 31
0.0
  0
LINE
  5
A7
330
17
100
AcDbEntity
  8
Layer
100
AcDbLine
 10
270.89999999999964
 20
162.39600000000002
 30
0.0
 11
270.89999999999964
 21
161.39600000000002
 31
0.0
  0
LINE
  5
A8
330
17
100
AcDbEntity
  8
Layer
100
AcDbLine
 10
306.30005671077464
 20
200.0
 30
0.0
 11
307.30005671077464
 21
200.0
 31
0.0
  0
LINE
  5
A9
330
17
100
AcDbEntity
  8
Layer
100
AcDbLine
 10
235.49994328922463
 20
200.0
 30
0.0
 11
234.49994328922463
 21
200.0
 31
0.0
  0
LINE
  5
AA
330
17
100
AcDbEntity
  8
Layer
 62
7
100
AcDbLine
 10
120.89999999999964
 20
156.28326331369095
 30
0.0
 11
120.89999999999964
 21
238.25415672355513
 31
0.0
  0
LINE
  5
AB
330
17
100
AcDbEntity
  8
Layer
 62
7
100
AcDbLine
 10
120.89999999999964
 20
180.9230760071434
 30
0.0
 11
120.89999999999964
 21
192.9230760071434
 31
0.0
  0
LWPOLYLINE
  5
AC
330
17
100
AcDbEntity
  8
Layer
100
AcDbPolyline
 90
5
 70
0
 10
115.89999999999964
 20
186.9230760071434
 10
120.89999999999964
 20
191.9230760071434
 10
125.89999999999964
 20
186.9230760071434
 10
120.89999999999964
 20
181.9230760071434
 10
115.89999999999964
 20
186.9230760071434
  0
LINE
  5
AD
330
17
100
AcDbEntity
  8
Layer
 62
7
100
AcDbLine
 10
120.89999999999964
 20
201.61434403010267
 30
0.0
 11
120.89999999999964
 21
213.61434403010267
 31
0.0
  0
LWPOLYLINE
  5
AE
330
17
100
AcDbEntity
  8
Layer
100
AcDbPolyline
 90
5
 70
0
 10
115.89999999999964
 20
207.61434403010267
 10
120.89999999999964
 20
212.61434403010267
 10
125.89999999999964
 20
207.61434403010267
 10
120.89999999999964
 20
202.61434403010267
 10
115.89999999999964
 20
207.61434403010267
  0
LINE
  5
AF
330
17
100
AcDbEntity
  8
Layer
 62
7
100
AcDbLine
 10
570.8999999999996
 20
148.54631530090066
 30
0.0
 11
570.8999999999996
 21
182.0382616463283
 31
0.0
  0
LINE
  5
B0
330
17
100
AcDbEntity
  8
Layer
 62
7
100
AcDbLine
 10
570.8999999999996
 20
156.21849652180032
 30
0.0
 11
570.8999999999996
 21
168.21849652180032
 31
0.0
  0
LWPOLYLINE
  5
B1
330
17
100
AcDbEntity
  8
Layer
100
AcDbPolyline
 90
5
 70
0
 10
565.8999999999996
 20
162.21849652180032
 10
570.8999999999996
 20
167.21849652180032
 10
575.8999999999996
 20
162.21849652180032
 10
570.8999999999996
 20
157.21849652180032
 10
565.8999999999996
 20
162.21849652180032
  0
LINE
  5
B2
330
17
100
AcDbEntity
  8
Layer
 62
7
100
AcDbLine
 10
570.8999999999996
 20
162.3660804254286
 30
0.0
 11
570.8999999999996
 21
174.3660804254286
 31
0.0
  0
LWPOLYLINE
  5
B3
330
17
100
AcDbEntity
  8
Layer
100
AcDbPolyline
 90
5
 70
0
 10
565.8999999999996
 20
168.3660804254286
 10
570.8999999999996
 20
173.3660804254286
 10
575.8999999999996
 20
168.3660804254286
 10
570.8999999999996
 20
163.3660804254286
 10
565.8999999999996
 20
168.3660804254286
  0
LWPOLYLINE
  5
B4
330
17
100
AcDbEntity
  8
NumLabel
 62
1
100
AcDbPolyline
 90
6
 70
0
 10
207.24210526315767
 20
175.671052631579
 10
202.24210526315767
 20
175.671052631579
 10
202.24210526315767
 20
170.671052631579
 10
207.24210526315767
 20
170.671052631579
 10
207.24210526315767
 20
165.671052631579
 10
202.24210526315767
 20
165.671052631579
  0
LWPOLYLINE
  5
B5
330
17
100
AcDbEntity
  8
NumLabel
 62
1
100
AcDbPolyline
 90
7
 70
0
 10
209.74210526315767
 20
175.671052631579
 10
214.74210526315767
 20
175.671052631579
 10
214.74210526315767
 20
170.671052631579
 10
209.74210526315767
 20
170.671052631579
 10
214.74210526315767
 20
170.671052631579
 10
214.74210526315767
 20
165.671052631579
 10
209.74210526315767
 20
165.671052631579
  0
ENDSEC
  0
SECTION
  2
OBJECTS
  0
DICTIONARY
  5
A
330
0
100
AcDbDictionary
280
0
281
1
  3
ACAD_COLOR
350
B
  3
ACAD_GROUP
350
C
  3
ACAD_LAYOUT
350
D
  3
ACAD_MATERIAL
350
E
  3
ACAD_MLEADERSTYLE
350
F
  3
ACAD_MLINESTYLE
350
10
  3
ACAD_PLOTSETTINGS
350
11
  3
ACAD_PLOTSTYLENAME
350
12
  3
ACAD_SCALELIST
350
14
  3
ACAD_TABLESTYLE
350
15
  3
ACAD_VISUALSTYLE
350
16
  3
EZDXF_META
350
2D
  0
DICTIONARY
  5
B
330
A
100
AcDbDictionary
280
0
281
1
  0
DICTIONARY
  5
C
330
A
100
AcDbDictionary
280
0
281
1
  0
DICTIONARY
  5
D
330
A
100
AcDbDictionary
280
0
281
1
  3
Model
350
1A
  3
Layout1
350
1E
  0
DICTIONARY
  5
E
330
A
100
AcDbDictionary
280
0
281
1
  3
ByBlock
350
1F
  3
ByLayer
350
20
  3
Global
350
21
  0
DICTIONARY
  5
F
330
A
100
AcDbDictionary
280
0
281
1
  3
Standard
350
2C
  0
DICTIONARY
  5
10
330
A
100
AcDbDictionary
280
0
281
1
  3
Standard
350
22
  0
DICTIONARY
  5
11
330
A
100
AcDbDictionary
280
0
281
1
  0
ACDBDICTIONARYWDFLT
  5
12
330
A
100
AcDbDictionary
280
0
281
1
  3
Normal
350
13
100
AcDbDictionaryWithDefault
340
13
  0
ACDBPLACEHOLDER
  5
13
330
12
  0
DICTIONARY
  5
14
330
A
100
AcDbDictionary
280
0
281
1
  0
DICTIONARY
  5
15
330
A
100
AcDbDictionary
280
0
281
1
  0
DICTIONARY
  5
16
330
A
100
AcDbDictionary
280
0
281
1
  3
2dWireframe
350
5A
  3
Basic
350
5B
  3
Brighten
350
5C
  3
ColorChange
350
5D
  3
Conceptual
350
5E
  3
Dim
350
5F
  3
EdgeColorOff
350
60
  3
Facepattern
350
61
  3
Flat
350
62
  3
FlatWithEdges
350
63
  3
Gouraud
350
64
  3
GouraudWithEdges
350
65
  3
Hidden
350
66
  3
JitterOff
350
67
  3
Linepattern
350
68
  3
Modeling
350
69
  3
OverhangOff
350
6A
  3
Realistic
350
6B
  3
Shaded
350
6C
  3
Shaded with edges
350
6D
  3
Shades of Gray
350
6E
  3
Sketchy
350
6F
  3
Thicken
350
70
  3
Wireframe
350
71
  3
X-Ray
350
72
  0
LAYOUT
  5
1A
330
D
100
AcDbPlotSettings
  1

  2
Adobe PDF
  4
A3
  6

 40
7.5
 41
20.0
 42
7.5
 43
20.0
 44
420.0
 45
297.0
 46
0.0
 47
0.0
 48
0.0
 49
0.0
140
0.0
141
0.0
142
1.0
143
1.0
 70
1024
 72
1
 73
0
 74
5
  7

 75
16
 76
0
 77
2
 78
300
147
1.0
148
0.0
149
0.0
100
AcDbLayout
  1
Model
 70
1
 71
0
 10
0.0
 20
0.0
 11
420.0
 21
297.0
 12
0.0
 22
0.0
 32
0.0
 14
1e+20
 24
1e+20
 34
1e+20
 15
-1e+20
 25
-1e+20
 35
-1e+20
146
0.0
 13
0.0
 23
0.0
 33
0.0
 16
1.0
 26
0.0
 36
0.0
 17
0.0
 27
1.0
 37
0.0
 76
1
330
17
  0
LAYOUT
  5
1E
330
D
100
AcDbPlotSettings
  1

  2
Adobe PDF
  4
A3
  6

 40
7.5
 41
20.0
 42
7.5
 43
20.0
 44
420.0
 45
297.0
 46
0.0
 47
0.0
 48
0.0
 49
0.0
140
0.0
141
0.0
142
1.0
143
1.0
 70
0
 72
1
 73
0
 74
5
  7

 75
16
 76
0
 77
2
 78
300
147
1.0
148
0.0
149
0.0
100
AcDbLayout
  1
Layout1
 70
1
 71
1
 10
0.0
 20
0.0
 11
420.0
 21
297.0
 12
0.0
 22
0.0
 32
0.0
 14
1e+20
 24
1e+20
 34
1e+20
 15
-1e+20
 25
-1e+20
 35
-1e+20
146
0.0
 13
0.0
 23
0.0
 33
0.0
 16
1.0
 26
0.0
 36
0.0
 17
0.0
 27
1.0
 37
0.0
 76
1
330
1B
  0
MATERIAL
  5
1F
102
{ACAD_REACTORS
330
E
102
}
330
E
100
AcDbMaterial
  1
ByBlock
  2

 70
0
 40
1.0
 71
1
 41
1.0
 91
-1023410177
 42
1.0
 72
1
  3

 73
1
 74
1
 75
1
 44
0.5
 73
0
 45
1.0
 46
1.0
 77
1
  4

 78
1
 79
1
170
1
 48
1.0
171
1
  6

172
1
173
1
174
1
140
1.0
141
1.0
175
1
  7

176
1
177
1
178
1
143
1.0
179
1
  8

270
1
271
1
272
1
145
1.0
146
1.0
273
1
  9

274
1
275
1
276
1
 42
1.0
 72
1
  3

 73
1
 74
1
 75
1
 94
63
  0
MATERIAL
  5
20
102
{ACAD_REACTORS
330
E
102
}
330
E
100
AcDbMaterial
  1
ByLayer
  2

 70
0
 40
1.0
 71
1
 41
1.0
 91
-1023410177
 42
1.0
 72
1
  3

 73
1
 74
1
 75
1
 44
0.5
 73
0
 45
1.0
 46
1.0
 77
1
  4

 78
1
 79
1
170
1
 48
1.0
171
1
  6

172
1
173
1
174
1
140
1.0
141
1.0
175
1
  7

176
1
177
1
178
1
143
1.0
179
1
  8

270
1
271
1
272
1
145
1.0
146
1.0
273
1
  9

274
1
275
1
276
1
 42
1.0
 72
1
  3

 73
1
 74
1
 75
1
 94
63
  0
MATERIAL
  5
21
102
{ACAD_REACTORS
330
E
102
}
330
E
100
AcDbMaterial
  1
Global
  2

 70
0
 40
1.0
 71
1
 41
1.0
 91
-1023410177
 42
1.0
 72
1
  3

 73
1
 74
1
 75
1
 44
0.5
 73
0
 45
1.0
 46
1.0
 77
1
  4

 78
1
 79
1
170
1
 48
1.0
171
1
  6

172
1
173
1
174
1
140
1.0
141
1.0
175
1
  7

176
1
177
1
178
1
143
1.0
179
1
  8

270
1
271
1
272
1
145
1.0
146
1.0
273
1
  9

274
1
275
1
276
1
 42
1.0
 72
1
  3

 73
1
 74
1
 75
1
 94
63
  0
MLINESTYLE
  5
22
102
{ACAD_REACTORS
330
10
102
}
330
10
100
AcDbMlineStyle
  2
Standard
 70
0
  3

 62
256
 51
90.0
 52
90.0
 71
2
 49
0.5
 62
256
  6
BYLAYER
 49
-0.5
 62
256
  6
BYLAYER
  0
MLEADERSTYLE
  5
2C
102
{ACAD_REACTORS
330
F
102
}
330
F
100
AcDbMLeaderStyle
179
2
170
2
171
1
172
0
 90
2
 40
0.0
 41
0.0
173
1
 91
-1056964608
 92
-2
290
1
 42
2.0
291
1
 43
8.0
  3
Standard
 44
4.0
300

342
29
174
1
175
1
176
0
178
1
 93
-1056964608
 45
4.0
292
0
297
0
 46
4.0
 94
-1056964608
 47
1.0
 49
1.0
140
1.0
294
1
141
0.0
177
0
142
1.0
295
0
296
0
143
3.75
271
0
272
9
273
9
  0
DICTIONARY
  5
2D
330
A
100
AcDbDictionary
281
1
  3
CREATED_BY_EZDXF
350
2E
  3
WRITTEN_BY_EZDXF
350
B8
  0
DICTIONARYVAR
  5
2E
330
2D
100
DictionaryVariables
280
0
  1
1.3.0 @ 2026-01-06T17:07:19.733540+00:00
  0
VISUALSTYLE
  5
5A
102
{ACAD_REACTORS
330
16
102
}
330
16
100
AcDbVisualStyle
  2
2dWireframe
 70
4
 90
0
 40
0.6
 62
7
290
0
291
0
  0
VISUALSTYLE
  5
5B
102
{ACAD_REACTORS
330
16
102
}
330
16
100
AcDbVisualStyle
  2
Basic
 70
7
 90
1
 40
0.6
 62
7
290
0
291
1
  0
VISUALSTYLE
  5
5C
102
{ACAD_REACTORS
330
16
102
}
330
16
100
AcDbVisualStyle
  2
Brighten
 70
12
 90
2
 40
0.6
 62
7
290
0
291
1
  0
VISUALSTYLE
  5
5D
102
{ACAD_REACTORS
330
16
102
}
330
16
100
AcDbVisualStyle
  2
ColorChange
 70
16
 90
2
 40
0.6
 62
8
290
0
291
1
  0
VISUALSTYLE
  5
5E
102
{ACAD_REACTORS
330
16
102
}
330
16
100
AcDbVisualStyle
  2
Conceptual
 70
9
 90
3
 40
0.6
 62
7
290
0
291
0
  0
VISUALSTYLE
  5
5F
102
{ACAD_REACTORS
330
16
102
}
330
16
100
AcDbVisualStyle
  2
Dim
 70
11
 90
2
 40
0.6
 62
7
290
0
291
1
  0
VISUALSTYLE
  5
60
102
{ACAD_REACTORS
330
16
102
}
330
16
100
AcDbVisualStyle
  2
EdgeColorOff
 70
22
 90
2
 40
0.6
 62
7
290
0
291
1
  0
VISUALSTYLE
  5
61
102
{ACAD_REACTORS
330
16
102
}
330
16
100
AcDbVisualStyle
  2
Facepattern
 70
15
 90
2
 40
0.6
 62
7
290
0
291
1
  0
VISUALSTYLE
  5
62
102
{ACAD_REACTORS
330
16
102
}
330
16
100
AcDbVisualStyle
  2
Flat
 70
0
 90
2
 40
0.6
 62
7
290
0
291
1
  0
VISUALSTYLE
  5
63
102
{ACAD_REACTORS
330
16
102
}
330
16
100
AcDbVisualStyle
  2
FlatWithEdges
 70
1
 90
2
 40
0.6
 62
7
290
0
291
1
  0
VISUALSTYLE
  5
64
102
{ACAD_REACTORS
330
16
102
}
330
16
100
AcDbVisualStyle
  2
Gouraud
 70
2
 90
2
 40
0.6
 62
7
290
0
291
1
  0
VISUALSTYLE
  5
65
102
{ACAD_REACTORS
330
16
102
}
330
16
100
AcDbVisualStyle
  2
GouraudWithEdges
 70
3
 90
2
 40
0.6
 62
7
290
0
291
1
  0
VISUALSTYLE
  5
66
102
{ACAD_REACTORS
330
16
102
}
330
16
100
AcDbVisualStyle
  2
Hidden
 70
6
 90
1
 40
0.6
 62
7
290
0
291
0
  0
VISUALSTYLE
  5
67
102
{ACAD_REACTORS
330
16
102
}
330
16
100
AcDbVisualStyle
  2
JitterOff
 70
20
 90
2
 40
0.6
 62
7
290
0
291
1
  0
VISUALSTYLE
  5
68
102
{ACAD_REACTORS
330
16
102
}
330
16
100
AcDbVisualStyle
  2
Linepattern
 70
14
 90
2
 40
0.6
 62
7
290
0
291
1
  0
VISUALSTYLE
  5
69
102
{ACAD_REACTORS
330
16
102
}
330
16
100
AcDbVisualStyle
  2
Modeling
 70
10
 90
2
 40
0.6
 62
7
290
0
291
0
  0
VISUALSTYLE
  5
6A
102
{ACAD_REACTORS
330
16
102
}
330
16
100
AcDbVisualStyle
  2
OverhangOff
 70
21
 90
2
 40
0.6
 62
7
290
0
291
1
  0
VISUALSTYLE
  5
6B
102
{ACAD_REACTORS
330
16
102
}
330
16
100
AcDbVisualStyle
  2
Realistic
 70
8
 90
2
 40
0.6
 62
7
290
0
291
0
  0
VISUALSTYLE
  5
6C
102
{ACAD_REACTORS
330
16
102
}
330
16
100
AcDbVisualStyle
  2
Shaded
 70
27
 90
2
 40
0.6
 62
7
290
0
291
0
  0
VISUALSTYLE
  5
6D
102
{ACAD_REACTORS
330
16
102
}
330
16
100
AcDbVisualStyle
  2
Shaded with edges
 70
26
 90
2
 40
0.6
 62
7
290
0
291
0
  0
VISUALSTYLE
  5
6E
102
{ACAD_REACTORS
330
16
102
}
330
16
100
AcDbVisualStyle
  2
Shades of Gray
 70
23
 90
2
 40
0.6
 62
7
290
0
291
0
  0
VISUALSTYLE
  5
6F
102
{ACAD_REACTORS
330
16
102
}
330
16
100
AcDbVisualStyle
  2
Sketchy
 70
24
 90
1
 40
0.6
 62
7
290
0
291
0
  0
VISUALSTYLE
  5
70
102
{ACAD_REACTORS
330
16
102
}
330
16
100
AcDbVisualStyle
  2
Thicken
 70
13
 90
2
 40
0.6
 62
7
290
0
291
1
  0
VISUALSTYLE
  5
71
102
{ACAD_REACTORS
330
16
102
}
330
16
100
AcDbVisualStyle
  2
Wireframe
 70
5
 90
0
 40
0.6
 62
7
290
0
291
0
  0
VISUALSTYLE
  5
72
102
{ACAD_REACTORS
330
16
102
}
330
16
100
AcDbVisualStyle
  2
X-Ray
 70
25
 90
2
 40
0.5
 62
7
290
0
291
0
  0
DICTIONARYVAR
  5
B8
330
2D
100
DictionaryVariables
280
0
  1
1.3.0 @ 2026-01-06T17:07:19.878471+00:00
  0
ENDSEC
  0
EOF
