  0
SECTION
  2
HEADER
  9
$ACADVER
  1
AC1021
  9
$ACADMAINTVER
 70
25
  9
$DWGCODEPAGE
  3
ANSI_1252
  9
$LASTSAVEDBY
  1
ezdxf
  9
$INSBASE
 10
0.0
 20
0.0
 30
0.0
  9
$EXTMIN
 10
1e+20
 20
1e+20
 30
1e+20
  9
$EXTMAX
 10
-1e+20
 20
-1e+20
 30
-1e+20
  9
$LIMMIN
 10
0.0
 20
0.0
  9
$LIMMAX
 10
420.0
 20
297.0
  9
$ORTHOMODE
 70
0
  9
$REGENMODE
 70
1
  9
$FILLMODE
 70
1
  9
$QTEXTMODE
 70
0
  9
$MIRRTEXT
 70
1
  9
$LTSCALE
 40
1.0
  9
$ATTMODE
 70
1
  9
$TEXTSIZE
 40
2.5
  9
$TRACEWID
 40
1.0
  9
$TEXTSTYLE
  7
OpenSans
  9
$CLAYER
  8
0
  9
$CELTYPE
  6
ByLayer
  9
$CECOLOR
 62
256
  9
$CELTSCALE
 40
1.0
  9
$DISPSILH
 70
0
  9
$DIMSCALE
 40
1.0
  9
$DIMASZ
 40
0.175
  9
$DIMEXO
 40
0.125
  9
$DIMDLI
 40
3.75
  9
$DIMRND
 40
0.0
  9
$DIMDLE
 40
0.0
  9
$DIMEXE
 40
0.375
  9
$DIMTP
 40
0.0
  9
$DIMTM
 40
0.0
  9
$DIMTXT
 40
0.25
  9
$DIMCEN
 40
2.5
  9
$DIMTSZ
 40
0.0
  9
$DIMTOL
 70
0
  9
$DIMLIM
 70
0
  9
$DIMTIH
 70
0
  9
$DIMTOH
 70
0
  9
$DIMSE1
 70
0
  9
$DIMSE2
 70
0
  9
$DIMTAD
 70
1
  9
$DIMZIN
 70
12
  9
$DIMBLK
  1
ARCHTICK
  9
$DIMASO
 70
1
  9
$DIMSHO
 70
1
  9
$DIMPOST
  1

  9
$DIMAPOST
  1

  9
$DIMALT
 70
0
  9
$DIMALTD
 70
3
  9
$DIMALTF
 40
0.03937007874
  9
$DIMLFAC
 40
100.0
  9
$DIMTOFL
 70
1
  9
$DIMTVP
 40
0.0
  9
$DIMTIX
 70
0
  9
$DIMSOXD
 70
0
  9
$DIMSAH
 70
0
  9
$DIMBLK1
  1

  9
$DIMBLK2
  1

  9
$DIMSTYLE
  2
EZDXF
  9
$DIMCLRD
 70
0
  9
$DIMCLRE
 70
0
  9
$DIMCLRT
 70
0
  9
$DIMTFAC
 40
0.5
  9
$DIMGAP
 40
0.1
  9
$DIMJUST
 70
0
  9
$DIMSD1
 70
0
  9
$DIMSD2
 70
0
  9
$DIMTOLJ
 70
0
  9
$DIMTZIN
 70
8
  9
$DIMALTZ
 70
0
  9
$DIMALTTZ
 70
0
  9
$DIMUPT
 70
1
  9
$DIMDEC
 70
2
  9
$DIMTDEC
 70
2
  9
$DIMALTU
 70
2
  9
$DIMALTTD
 70
3
  9
$DIMTXSTY
  7
OpenSansCondensed-Light
  9
$DIMAUNIT
 70
0
  9
$DIMADEC
 70
2
  9
$DIMALTRND
 40
0.0
  9
$DIMAZIN
 70
3
  9
$DIMDSEP
 70
46
  9
$DIMATFIT
 70
3
  9
$DIMFRAC
 70
0
  9
$DIMLDRBLK
  1

  9
$DIMLUNIT
 70
2
  9
$DIMLWD
 70
-2
  9
$DIMLWE
 70
-2
  9
$DIMTMOVE
 70
2
  9
$DIMFXL
 40
1.0
  9
$DIMFXLON
 70
0
  9
$DIMJOGANG
 40
0.785398163397
  9
$DIMTFILL
 70
0
  9
$DIMTFILLCLR
 70
0
  9
$DIMARCSYM
 70
0
  9
$DIMLTYPE
  6

  9
$DIMLTEX1
  6

  9
$DIMLTEX2
  6

  9
$LUNITS
 70
2
  9
$LUPREC
 70
4
  9
$SKETCHINC
 40
1.0
  9
$FILLETRAD
 40
10.0
  9
$AUNITS
 70
0
  9
$AUPREC
 70
2
  9
$MENU
  1
.
  9
$ELEVATION
 40
0.0
  9
$PELEVATION
 40
0.0
  9
$THICKNESS
 40
0.0
  9
$LIMCHECK
 70
0
  9
$CHAMFERA
 40
0.0
  9
$CHAMFERB
 40
0.0
  9
$CHAMFERC
 40
0.0
  9
$CHAMFERD
 40
0.0
  9
$SKPOLY
 70
0
  9
$TDCREATE
 40
2461048.0883680554
  9
$TDUCREATE
 40
2458532.153996898
  9
$TDUPDATE
 40
2461048.0883680554
  9
$TDUUPDATE
 40
2458532.1544311
  9
$TDINDWG
 40
0.0
  9
$TDUSRTIMER
 40
0.0
  9
$USRTIMER
 70
1
  9
$ANGBASE
 50
0.0
  9
$ANGDIR
 70
0
  9
$PDMODE
 70
0
  9
$PDSIZE
 40
0.0
  9
$PLINEWID
 40
0.0
  9
$SPLFRAME
 70
0
  9
$SPLINETYPE
 70
6
  9
$SPLINESEGS
 70
8
  9
$HANDSEED
  5
B4
  9
$SURFTAB1
 70
6
  9
$SURFTAB2
 70
6
  9
$SURFTYPE
 70
6
  9
$SURFU
 70
6
  9
$SURFV
 70
6
  9
$UCSBASE
  2

  9
$UCSNAME
  2

  9
$UCSORG
 10
0.0
 20
0.0
 30
0.0
  9
$UCSXDIR
 10
1.0
 20
0.0
 30
0.0
  9
$UCSYDIR
 10
0.0
 20
1.0
 30
0.0
  9
$UCSORTHOREF
  2

  9
$UCSORTHOVIEW
 70
0
  9
$UCSORGTOP
 10
0.0
 20
0.0
 30
0.0
  9
$UCSORGBOTTOM
 10
0.0
 20
0.0
 30
0.0
  9
$UCSORGLEFT
 10
0.0
 20
0.0
 30
0.0
  9
$UCSORGRIGHT
 10
0.0
 20
0.0
 30
0.0
  9
$UCSORGFRONT
 10
0.0
 20
0.0
 30
0.0
  9
$UCSORGBACK
 10
0.0
 20
0.0
 30
0.0
  9
$PUCSBASE
  2

  9
$PUCSNAME
  2

  9
$PUCSORG
 10
0.0
 20
0.0
 30
0.0
  9
$PUCSXDIR
 10
1.0
 20
0.0
 30
0.0
  9
$PUCSYDIR
 10
0.0
 20
1.0
 30
0.0
  9
$PUCSORTHOREF
  2

  9
$PUCSORTHOVIEW
 70
0
  9
$PUCSORGTOP
 10
0.0
 20
0.0
 30
0.0
  9
$PUCSORGBOTTOM
 10
0.0
 20
0.0
 30
0.0
  9
$PUCSORGLEFT
 10
0.0
 20
0.0
 30
0.0
  9
$PUCSORGRIGHT
 10
0.0
 20
0.0
 30
0.0
  9
$PUCSORGFRONT
 10
0.0
 20
0.0
 30
0.0
  9
$PUCSORGBACK
 10
0.0
 20
0.0
 30
0.0
  9
$USERI1
 70
0
  9
$USERI2
 70
0
  9
$USERI3
 70
0
  9
$USERI4
 70
0
  9
$USERI5
 70
0
  9
$USERR1
 40
0.0
  9
$USERR2
 40
0.0
  9
$USERR3
 40
0.0
  9
$USERR4
 40
0.0
  9
$USERR5
 40
0.0
  9
$WORLDVIEW
 70
1
  9
$SHADEDGE
 70
3
  9
$SHADEDIF
 70
70
  9
$TILEMODE
 70
1
  9
$MAXACTVP
 70
64
  9
$PINSBASE
 10
0.0
 20
0.0
 30
0.0
  9
$PLIMCHECK
 70
0
  9
$PEXTMIN
 10
1e+20
 20
1e+20
 30
1e+20
  9
$PEXTMAX
 10
-1e+20
 20
-1e+20
 30
-1e+20
  9
$PLIMMIN
 10
0.0
 20
0.0
  9
$PLIMMAX
 10
420.0
 20
297.0
  9
$UNITMODE
 70
0
  9
$VISRETAIN
 70
1
  9
$PLINEGEN
 70
0
  9
$PSLTSCALE
 70
1
  9
$TREEDEPTH
 70
3020
  9
$CMLSTYLE
  2
Standard
  9
$CMLJUST
 70
0
  9
$CMLSCALE
 40
20.0
  9
$PROXYGRAPHICS
 70
1
  9
$MEASUREMENT
 70
1
  9
$CELWEIGHT
370
-1
  9
$ENDCAPS
280
0
  9
$JOINSTYLE
280
0
  9
$LWDISPLAY
290
0
  9
$INSUNITS
 70
6
  9
$HYPERLINKBASE
  1

  9
$STYLESHEET
  1

  9
$XEDIT
290
1
  9
$CEPSNTYPE
380
0
  9
$PSTYLEMODE
290
1
  9
$FINGERPRINTGUID
  2
{93DC860E-A1AA-4BEB-AA40-6F873DD7E89B}
  9
$VERSIONGUID
  2
{AA34A132-C9F1-4DEC-9575-A40877952531}
  9
$EXTNAMES
290
1
  9
$PSVPSCALE
 40
0.0
  9
$OLESTARTUP
290
0
  9
$SORTENTS
280
127
  9
$INDEXCTL
280
0
  9
$HIDETEXT
280
1
  9
$XCLIPFRAME
290
1
  9
$HALOGAP
280
0
  9
$OBSCOLOR
 70
257
  9
$OBSLTYPE
280
0
  9
$INTERSECTIONDISPLAY
280
0
  9
$INTERSECTIONCOLOR
 70
257
  9
$DIMASSOC
280
2
  9
$PROJECTNAME
  1

  9
$CAMERADISPLAY
290
0
  9
$LENSLENGTH
 40
50.0
  9
$CAMERAHEIGHT
 40
0.0
  9
$STEPSPERSEC
 40
24.0
  9
$STEPSIZE
 40
100.0
  9
$3DDWFPREC
 40
2.0
  9
$PSOLWIDTH
 40
0.005
  9
$PSOLHEIGHT
 40
0.08
  9
$LOFTANG1
 40
1.570796326795
  9
$LOFTANG2
 40
1.570796326795
  9
$LOFTMAG1
 40
0.0
  9
$LOFTMAG2
 40
0.0
  9
$LOFTPARAM
 70
7
  9
$LOFTNORMALS
280
1
  9
$LATITUDE
 40
37.795
  9
$LONGITUDE
 40
-122.394
  9
$NORTHDIRECTION
 40
0.0
  9
$TIMEZONE
 70
-8000
  9
$LIGHTGLYPHDISPLAY
280
1
  9
$TILEMODELIGHTSYNCH
280
1
  9
$CMATERIAL
347
20
  9
$SOLIDHIST
280
0
  9
$SHOWHIST
280
1
  9
$DWFFRAME
280
2
  9
$DGNFRAME
280
2
  9
$REALWORLDSCALE
290
1
  9
$INTERFERECOLOR
 62
256
  9
$CSHADOW
280
0
  9
$SHADOWPLANELOCATION
 40
0.0
  0
ENDSEC
  0
SECTION
  2
CLASSES
  0
CLASS
  1
ACDBDICTIONARYWDFLT
  2
AcDbDictionaryWithDefault
  3
ObjectDBX Classes
 90
0
 91
0
280
0
281
0
  0
CLASS
  1
SUN
  2
AcDbSun
  3
SCENEOE
 90
1153
 91
0
280
0
281
0
  0
CLASS
  1
VISUALSTYLE
  2
AcDbVisualStyle
  3
ObjectDBX Classes
 90
4095
 91
0
280
0
281
0
  0
CLASS
  1
MATERIAL
  2
AcDbMaterial
  3
ObjectDBX Classes
 90
1153
 91
0
280
0
281
0
  0
CLASS
  1
SCALE
  2
AcDbScale
  3
ObjectDBX Classes
 90
1153
 91
0
280
0
281
0
  0
CLASS
  1
TABLESTYLE
  2
AcDbTableStyle
  3
ObjectDBX Classes
 90
4095
 91
0
280
0
281
0
  0
CLASS
  1
MLEADERSTYLE
  2
AcDbMLeaderStyle
  3
ACDB_MLEADERSTYLE_CLASS
 90
4095
 91
0
280
0
281
0
  0
CLASS
  1
DICTIONARYVAR
  2
AcDbDictionaryVar
  3
ObjectDBX Classes
 90
0
 91
0
280
0
281
0
  0
CLASS
  1
CELLSTYLEMAP
  2
AcDbCellStyleMap
  3
ObjectDBX Classes
 90
1152
 91
0
280
0
281
0
  0
CLASS
  1
MENTALRAYRENDERSETTINGS
  2
AcDbMentalRayRenderSettings
  3
SCENEOE
 90
1024
 91
0
280
0
281
0
  0
CLASS
  1
ACDBDETAILVIEWSTYLE
  2
AcDbDetailViewStyle
  3
ObjectDBX Classes
 90
1025
 91
0
280
0
281
0
  0
CLASS
  1
ACDBSECTIONVIEWSTYLE
  2
AcDbSectionViewStyle
  3
ObjectDBX Classes
 90
1025
 91
0
280
0
281
0
  0
CLASS
  1
RASTERVARIABLES
  2
AcDbRasterVariables
  3
ISM
 90
0
 91
0
280
0
281
0
  0
CLASS
  1
ACDBPLACEHOLDER
  2
AcDbPlaceHolder
  3
ObjectDBX Classes
 90
0
 91
0
280
0
281
0
  0
CLASS
  1
LAYOUT
  2
AcDbLayout
  3
ObjectDBX Classes
 90
0
 91
0
280
0
281
0
  0
ENDSEC
  0
SECTION
  2
TABLES
  0
TABLE
  2
VPORT
  5
8
330
0
100
AcDbSymbolTable
 70
1
  0
VPORT
  5
23
330
8
100
AcDbSymbolTableRecord
100
AcDbViewportTableRecord
  2
*Active
 70
0
 10
0.0
 20
0.0
 11
1.0
 21
1.0
 12
0.0
 22
0.0
 13
0.0
 23
0.0
 14
0.5
 24
0.5
 15
0.5
 25
0.5
 16
0.0
 26
0.0
 36
1.0
 17
0.0
 27
0.0
 37
0.0
 40
1000.0
 41
1.34
 42
50.0
 43
0.0
 44
0.0
 50
0.0
 51
0.0
 71
0
 72
1000
 73
1
 74
3
 75
0
 76
0
 77
0
 78
0
281
0
 65
0
146
0.0
  0
ENDTAB
  0
TABLE
  2
LTYPE
  5
2
330
0
100
AcDbSymbolTable
 70
21
  0
LTYPE
  5
24
330
2
100
AcDbSymbolTableRecord
100
AcDbLinetypeTableRecord
  2
ByBlock
 70
0
  3

 72
65
 73
0
 40
0.0
  0
LTYPE
  5
25
330
2
100
AcDbSymbolTableRecord
100
AcDbLinetypeTableRecord
  2
ByLayer
 70
0
  3

 72
65
 73
0
 40
0.0
  0
LTYPE
  5
26
330
2
100
AcDbSymbolTableRecord
100
AcDbLinetypeTableRecord
  2
Continuous
 70
0
  3

 72
65
 73
0
 40
0.0
  0
LTYPE
  5
2F
330
2
100
AcDbSymbolTableRecord
100
AcDbLinetypeTableRecord
  2
CENTER
 70
0
  3
Center ____ _ ____ _ ____ _ ____ _ ____ _ ____
 72
65
 73
4
 40
5.08
 49
3.175
 74
0
 49
-0.635
 74
0
 49
0.635
 74
0
 49
-0.635
 74
0
  0
LTYPE
  5
30
330
2
100
AcDbSymbolTableRecord
100
AcDbLinetypeTableRecord
  2
CENTERX2
 70
0
  3
Center (2x) ________  __  ________  __  ________
 72
65
 73
4
 40
8.89
 49
6.35
 74
0
 49
-0.635
 74
0
 49
1.27
 74
0
 49
-0.635
 74
0
  0
LTYPE
  5
31
330
2
100
AcDbSymbolTableRecord
100
AcDbLinetypeTableRecord
  2
CENTER2
 70
0
  3
Center (.5x) ____ _ ____ _ ____ _ ____ _ ____
 72
65
 73
4
 40
2.54
 49
1.587
 74
0
 49
-0.318
 74
0
 49
0.318
 74
0
 49
-0.318
 74
0
  0
LTYPE
  5
32
330
2
100
AcDbSymbolTableRecord
100
AcDbLinetypeTableRecord
  2
DASHED
 70
0
  3
Dashed __ __ __ __ __ __ __ __ __ __ __ __ __ _
 72
65
 73
2
 40
1.524
 49
1.27
 74
0
 49
-0.254
 74
0
  0
LTYPE
  5
33
330
2
100
AcDbSymbolTableRecord
100
AcDbLinetypeTableRecord
  2
DASHEDX2
 70
0
  3
Dashed (2x) ____  ____  ____  ____  ____  ____
 72
65
 73
2
 40
3.048
 49
2.54
 74
0
 49
-0.508
 74
0
  0
LTYPE
  5
34
330
2
100
AcDbSymbolTableRecord
100
AcDbLinetypeTableRecord
  2
DASHED2
 70
0
  3
Dashed (.5x) _ _ _ _ _ _ _ _ _ _ _ _ _ _
 72
65
 73
2
 40
0.762
 49
0.635
 74
0
 49
-0.127
 74
0
  0
LTYPE
  5
35
330
2
100
AcDbSymbolTableRecord
100
AcDbLinetypeTableRecord
  2
PHANTOM
 70
0
  3
Phantom ______  __  __  ______  __  __  ______
 72
65
 73
6
 40
6.35
 49
3.175
 74
0
 49
-0.635
 74
0
 49
0.635
 74
0
 49
-0.635
 74
0
 49
0.635
 74
0
 49
-0.635
 74
0
  0
LTYPE
  5
36
330
2
100
AcDbSymbolTableRecord
100
AcDbLinetypeTableRecord
  2
PHANTOMX2
 70
0
  3
Phantom (2x)____________    ____    ____    ____________
 72
65
 73
6
 40
10.795
 49
6.35
 74
0
 49
-0.635
 74
0
 49
1.27
 74
0
 49
-0.635
 74
0
 49
1.27
 74
0
 49
-0.635
 74
0
  0
LTYPE
  5
37
330
2
100
AcDbSymbolTableRecord
100
AcDbLinetypeTableRecord
  2
PHANTOM2
 70
0
  3
Phantom (.5x) ___ _ _ ___ _ _ ___ _ _ ___ _ _ ___
 72
65
 73
6
 40
3.175
 49
1.587
 74
0
 49
-0.318
 74
0
 49
0.318
 74
0
 49
-0.318
 74
0
 49
0.318
 74
0
 49
-0.318
 74
0
  0
LTYPE
  5
38
330
2
100
AcDbSymbolTableRecord
100
AcDbLinetypeTableRecord
  2
DASHDOT
 70
0
  3
Dash dot __ . __ . __ . __ . __ . __ . __ . __
 72
65
 73
4
 40
3.556
 49
2.54
 74
0
 49
-0.508
 74
0
 49
0.0
 74
0
 49
-0.508
 74
0
  0
LTYPE
  5
39
330
2
100
AcDbSymbolTableRecord
100
AcDbLinetypeTableRecord
  2
DASHDOTX2
 70
0
  3
Dash dot (2x) ____  .  ____  .  ____  .  ____
 72
65
 73
4
 40
6.096
 49
5.08
 74
0
 49
-0.508
 74
0
 49
0.0
 74
0
 49
-0.508
 74
0
  0
LTYPE
  5
3A
330
2
100
AcDbSymbolTableRecord
100
AcDbLinetypeTableRecord
  2
DASHDOT2
 70
0
  3
Dash dot (.5x) _ . _ . _ . _ . _ . _ . _ . _
 72
65
 73
4
 40
1.778
 49
1.27
 74
0
 49
-0.254
 74
0
 49
0.0
 74
0
 49
-0.254
 74
0
  0
LTYPE
  5
3B
330
2
100
AcDbSymbolTableRecord
100
AcDbLinetypeTableRecord
  2
DOT
 70
0
  3
Dot .  .  .  .  .  .  .  .  .  .  .  .  .  .  .  .
 72
65
 73
2
 40
0.508
 49
0.0
 74
0
 49
-0.508
 74
0
  0
LTYPE
  5
3C
330
2
100
AcDbSymbolTableRecord
100
AcDbLinetypeTableRecord
  2
DOTX2
 70
0
  3
Dot (2x) .    .    .    .    .    .    .    . 
 72
65
 73
2
 40
1.016
 49
0.0
 74
0
 49
-1.016
 74
0
  0
LTYPE
  5
3D
330
2
100
AcDbSymbolTableRecord
100
AcDbLinetypeTableRecord
  2
DOT2
 70
0
  3
Dot (.5) . . . . . . . . . . . . . . . . . . . 
 72
65
 73
2
 40
0.254
 49
0.0
 74
0
 49
-0.254
 74
0
  0
LTYPE
  5
3E
330
2
100
AcDbSymbolTableRecord
100
AcDbLinetypeTableRecord
  2
DIVIDE
 70
0
  3
Divide __ . . __ . . __ . . __ . . __ . . __
 72
65
 73
6
 40
4.064
 49
2.54
 74
0
 49
-0.508
 74
0
 49
0.0
 74
0
 49
-0.508
 74
0
 49
0.0
 74
0
 49
-0.508
 74
0
  0
LTYPE
  5
3F
330
2
100
AcDbSymbolTableRecord
100
AcDbLinetypeTableRecord
  2
DIVIDEX2
 70
0
  3
Divide (2x) ____  . .  ____  . .  ____  . .  ____
 72
65
 73
6
 40
6.604
 49
5.08
 74
0
 49
-0.508
 74
0
 49
0.0
 74
0
 49
-0.508
 74
0
 49
0.0
 74
0
 49
-0.508
 74
0
  0
LTYPE
  5
40
330
2
100
AcDbSymbolTableRecord
100
AcDbLinetypeTableRecord
  2
DIVIDE2
 70
0
  3
Divide(.5x) _ . _ . _ . _ . _ . _ . _ . _
 72
65
 73
6
 40
2.032
 49
1.27
 74
0
 49
-0.254
 74
0
 49
0.0
 74
0
 49
-0.254
 74
0
 49
0.0
 74
0
 49
-0.254
 74
0
  0
ENDTAB
  0
TABLE
  2
LAYER
  5
1
330
0
100
AcDbSymbolTable
 70
5
  0
LAYER
  5
27
330
1
100
AcDbSymbolTableRecord
100
AcDbLayerTableRecord
  2
0
 70
0
 62
7
  6
Continuous
370
-3
390
13
347
21
  0
LAYER
  5
28
330
1
100
AcDbSymbolTableRecord
100
AcDbLayerTableRecord
  2
Defpoints
 70
0
 62
7
  6
Continuous
290
0
370
-3
390
13
347
21
  0
LAYER
  5
8A
330
1
100
AcDbSymbolTableRecord
100
AcDbLayerTableRecord
  2
Layer
 70
0
 62
1
  6
Continuous
370
50
390
13
347
21
  0
LAYER
  5
8B
330
1
100
AcDbSymbolTableRecord
100
AcDbLayerTableRecord
  2
NumLabel
 70
0
 62
1
  6
Continuous
370
15
390
13
347
21
  0
LAYER
  5
B2
330
1
100
AcDbSymbolTableRecord
100
AcDbLayerTableRecord
  2
SplitMark
 70
0
 62
3
  6
Continuous
370
-3
390
13
347
21
  0
ENDTAB
  0
TABLE
  2
STYLE
  5
5
330
0
100
AcDbSymbolTable
 70
26
  0
STYLE
  5
29
330
5
100
AcDbSymbolTableRecord
100
AcDbTextStyleTableRecord
  2
Standard
 70
0
 40
0.0
 41
1.0
 50
0.0
 71
0
 42
2.5
  3
txt
  4

  0
STYLE
  5
41
330
5
100
AcDbSymbolTableRecord
100
AcDbTextStyleTableRecord
  2
OpenSans-Light
 70
0
 40
0.0
 41
1.0
 50
0.0
 71
0
 42
2.5
  3
OpenSans-Light.ttf
  4

  0
STYLE
  5
42
330
5
100
AcDbSymbolTableRecord
100
AcDbTextStyleTableRecord
  2
OpenSans-Light-Italic
 70
0
 40
0.0
 41
1.0
 50
0.0
 71
0
 42
2.5
  3
OpenSans-LightItalic.ttf
  4

  0
STYLE
  5
43
330
5
100
AcDbSymbolTableRecord
100
AcDbTextStyleTableRecord
  2
OpenSans
 70
0
 40
0.0
 41
1.0
 50
0.0
 71
0
 42
2.5
  3
OpenSans-Regular.ttf
  4

  0
STYLE
  5
44
330
5
100
AcDbSymbolTableRecord
100
AcDbTextStyleTableRecord
  2
OpenSans-Italic
 70
0
 40
0.0
 41
1.0
 50
0.0
 71
0
 42
2.5
  3
OpenSans-Italic.ttf
  4

  0
STYLE
  5
45
330
5
100
AcDbSymbolTableRecord
100
AcDbTextStyleTableRecord
  2
OpenSans-SemiBold
 70
0
 40
0.0
 41
1.0
 50
0.0
 71
0
 42
2.5
  3
OpenSans-SemiBold.ttf
  4

  0
STYLE
  5
46
330
5
100
AcDbSymbolTableRecord
100
AcDbTextStyleTableRecord
  2
OpenSans-SemiBoldItalic
 70
0
 40
0.0
 41
1.0
 50
0.0
 71
0
 42
2.5
  3
OpenSans-SemiBoldItalic.ttf
  4

  0
STYLE
  5
47
330
5
100
AcDbSymbolTableRecord
100
AcDbTextStyleTableRecord
  2
OpenSans-Bold
 70
0
 40
0.0
 41
1.0
 50
0.0
 71
0
 42
2.5
  3
OpenSans-Bold.ttf
  4

  0
STYLE
  5
48
330
5
100
AcDbSymbolTableRecord
100
AcDbTextStyleTableRecord
  2
OpenSans-BoldItalic
 70
0
 40
0.0
 41
1.0
 50
0.0
 71
0
 42
2.5
  3
OpenSans-BoldItalic.ttf
  4

  0
STYLE
  5
49
330
5
100
AcDbSymbolTableRecord
100
AcDbTextStyleTableRecord
  2
OpenSans-ExtraBold
 70
0
 40
0.0
 41
1.0
 50
0.0
 71
0
 42
2.5
  3
OpenSans-ExtraBold.ttf
  4

  0
STYLE
  5
4A
330
5
100
AcDbSymbolTableRecord
100
AcDbTextStyleTableRecord
  2
OpenSans-ExtraBoldItalic
 70
0
 40
0.0
 41
1.0
 50
0.0
 71
0
 42
2.5
  3
OpenSans-ExtraBoldItalic.ttf
  4

  0
STYLE
  5
4B
330
5
100
AcDbSymbolTableRecord
100
AcDbTextStyleTableRecord
  2
OpenSansCondensed-Bold
 70
0
 40
0.0
 41
1.0
 50
0.0
 71
0
 42
2.5
  3
OpenSansCondensed-Bold.ttf
  4

  0
STYLE
  5
4C
330
5
100
AcDbSymbolTableRecord
100
AcDbTextStyleTableRecord
  2
OpenSansCondensed-Light
 70
0
 40
0.0
 41
1.0
 50
0.0
 71
0
 42
2.5
  3
OpenSansCondensed-Light.ttf
  4

  0
STYLE
  5
4D
330
5
100
AcDbSymbolTableRecord
100
AcDbTextStyleTableRecord
  2
OpenSansCondensed-Italic
 70
0
 40
0.0
 41
1.0
 50
0.0
 71
0
 42
2.5
  3
OpenSansCondensed-LightItalic.ttf
  4

  0
STYLE
  5
4E
330
5
100
AcDbSymbolTableRecord
100
AcDbTextStyleTableRecord
  2
LiberationSans
 70
0
 40
0.0
 41
1.0
 50
0.0
 71
0
 42
2.5
  3
LiberationSans-Regular.ttf
  4

  0
STYLE
  5
4F
330
5
100
AcDbSymbolTableRecord
100
AcDbTextStyleTableRecord
  2
LiberationSans-Bold
 70
0
 40
0.0
 41
1.0
 50
0.0
 71
0
 42
2.5
  3
LiberationSans-Bold.ttf
  4

  0
STYLE
  5
50
330
5
100
AcDbSymbolTableRecord
100
AcDbTextStyleTableRecord
  2
LiberationSans-BoldItalic
 70
0
 40
0.0
 41
1.0
 50
0.0
 71
0
 42
2.5
  3
LiberationSans-BoldItalic.ttf
  4

  0
STYLE
  5
51
330
5
100
AcDbSymbolTableRecord
100
AcDbTextStyleTableRecord
  2
LiberationSans-Italic
 70
0
 40
0.0
 41
1.0
 50
0.0
 71
0
 42
2.5
  3
LiberationSans-Italic.ttf
  4

  0
STYLE
  5
52
330
5
100
AcDbSymbolTableRecord
100
AcDbTextStyleTableRecord
  2
LiberationSerif
 70
0
 40
0.0
 41
1.0
 50
0.0
 71
0
 42
2.5
  3
LiberationSerif-Regular.ttf
  4

  0
STYLE
  5
53
330
5
100
AcDbSymbolTableRecord
100
AcDbTextStyleTableRecord
  2
LiberationSerif-Bold
 70
0
 40
0.0
 41
1.0
 50
0.0
 71
0
 42
2.5
  3
LiberationSerif-Bold.ttf
  4

  0
STYLE
  5
54
330
5
100
AcDbSymbolTableRecord
100
AcDbTextStyleTableRecord
  2
LiberationSerif-BoldItalic
 70
0
 40
0.0
 41
1.0
 50
0.0
 71
0
 42
2.5
  3
LiberationSerif-BoldItalic.ttf
  4

  0
STYLE
  5
55
330
5
100
AcDbSymbolTableRecord
100
AcDbTextStyleTableRecord
  2
LiberationSerif-Italic
 70
0
 40
0.0
 41
1.0
 50
0.0
 71
0
 42
2.5
  3
LiberationSerif-Italic.ttf
  4

  0
STYLE
  5
56
330
5
100
AcDbSymbolTableRecord
100
AcDbTextStyleTableRecord
  2
LiberationMono
 70
0
 40
0.0
 41
1.0
 50
0.0
 71
0
 42
2.5
  3
LiberationMono-Regular.ttf
  4

  0
STYLE
  5
57
330
5
100
AcDbSymbolTableRecord
100
AcDbTextStyleTableRecord
  2
LiberationMono-Bold
 70
0
 40
0.0
 41
1.0
 50
0.0
 71
0
 42
2.5
  3
LiberationMono-Bold.ttf
  4

  0
STYLE
  5
58
330
5
100
AcDbSymbolTableRecord
100
AcDbTextStyleTableRecord
  2
LiberationMono-BoldItalic
 70
0
 40
0.0
 41
1.0
 50
0.0
 71
0
 42
2.5
  3
LiberationMono-BoldItalic.ttf
  4

  0
STYLE
  5
59
330
5
100
AcDbSymbolTableRecord
100
AcDbTextStyleTableRecord
  2
LiberationMono-Italic
 70
0
 40
0.0
 41
1.0
 50
0.0
 71
0
 42
2.5
  3
LiberationMono-Italic.ttf
  4

  0
ENDTAB
  0
TABLE
  2
VIEW
  5
7
330
0
100
AcDbSymbolTable
 70
0
  0
ENDTAB
  0
TABLE
  2
UCS
  5
6
330
0
100
AcDbSymbolTable
 70
0
  0
ENDTAB
  0
TABLE
  2
APPID
  5
3
330
0
100
AcDbSymbolTable
 70
3
  0
APPID
  5
2A
330
3
100
AcDbSymbolTableRecord
100
AcDbRegAppTableRecord
  2
ACAD
 70
0
  0
APPID
  5
AF
330
3
100
AcDbSymbolTableRecord
100
AcDbRegAppTableRecord
  2
HATCHBACKGROUNDCOLOR
 70
0
  0
APPID
  5
B0
330
3
100
AcDbSymbolTableRecord
100
AcDbRegAppTableRecord
  2
EZDXF
 70
0
  0
ENDTAB
  0
TABLE
  2
DIMSTYLE
  5
4
330
0
100
AcDbSymbolTable
 70
12
100
AcDbDimStyleTable
  0
DIMSTYLE
105
2B
330
4
100
AcDbSymbolTableRecord
100
AcDbDimStyleTableRecord
  2
Standard
 70
0
 40
1.0
 41
2.5
 42
0.625
 43
3.75
 44
1.25
 45
0.0
 46
0.0
 47
0.0
 48
0.0
 49
2.5
140
2.5
141
2.5
142
0.0
143
0.03937007874
144
1.0
145
0.0
146
1.0
147
0.625
148
0.0
 69
0
 70
0
 71
0
 72
0
 73
0
 74
0
 75
0
 76
0
 77
1
 78
8
 79
3
170
0
171
3
172
1
173
0
174
0
175
0
176
0
177
0
178
0
179
2
271
2
272
2
273
2
274
3
275
0
276
0
277
2
278
44
279
0
280
0
281
0
282
0
283
0
284
8
285
0
286
0
288
0
289
3
290
0
371
-2
372
-2
  0
DIMSTYLE
105
73
330
4
100
AcDbSymbolTableRecord
100
AcDbDimStyleTableRecord
  2
EZDXF
 70
0
 40
1.0
 41
0.175
 42
0.125
 43
3.75
 44
0.375
 45
0.0
 46
0.0
 47
0.0
 48
0.0
 49
2.5
140
0.25
141
2.5
142
0.0
143
0.03937007874
144
100.0
145
0.0
146
0.5
147
0.1
148
0.0
 69
0
 70
0
 71
0
 72
0
 73
0
 74
0
 75
0
 76
0
 77
1
 78
12
 79
3
170
0
171
3
172
1
173
0
174
0
175
0
176
0
177
0
178
0
179
2
271
2
272
2
273
2
274
3
275
0
276
0
277
2
278
46
279
2
280
0
281
0
282
0
283
0
284
8
285
0
286
0
288
1
289
3
290
0
340
4C
342
74
371
-2
372
-2
  0
DIMSTYLE
105
7C
330
4
100
AcDbSymbolTableRecord
100
AcDbDimStyleTableRecord
  2
EZ_M_100_H25_CM
 70
0
 40
1.0
 41
0.25
 42
0.125
 43
3.75
 44
0.375
 45
0.0
 46
0.0
 47
0.0
 48
0.0
 49
2.5
140
0.25
141
2.5
142
0.125
143
0.03937007874
144
100.0
145
0.0
146
0.5
147
0.1
148
0.0
 69
0
 70
0
 71
0
 72
0
 73
0
 74
0
 75
0
 76
0
 77
1
 78
12
 79
3
170
0
171
3
172
1
173
0
174
0
175
0
176
0
177
0
178
0
179
2
271
2
272
2
273
2
274
3
275
0
276
0
277
2
278
46
279
2
280
0
281
0
282
0
283
0
284
8
285
0
286
0
288
1
289
3
290
0
340
4C
371
-2
372
-2
  0
DIMSTYLE
105
7D
330
4
100
AcDbSymbolTableRecord
100
AcDbDimStyleTableRecord
  2
EZ_M_50_H25_CM
 70
0
 40
1.0
 41
0.125
 42
0.0625
 43
3.75
 44
0.1875
 45
0.0
 46
0.0
 47
0.0
 48
0.0
 49
2.5
140
0.125
141
2.5
142
0.0625
143
0.03937007874
144
100.0
145
0.0
146
0.5
147
0.05
148
0.0
 69
0
 70
0
 71
0
 72
0
 73
0
 74
0
 75
0
 76
0
 77
1
 78
12
 79
3
170
0
171
3
172
1
173
0
174
0
175
0
176
0
177
0
178
0
179
2
271
2
272
2
273
2
274
3
275
0
276
0
277
2
278
46
279
2
280
0
281
0
282
0
283
0
284
8
285
0
286
0
288
1
289
3
290
0
340
4C
371
-2
372
-2
  0
DIMSTYLE
105
7E
330
4
100
AcDbSymbolTableRecord
100
AcDbDimStyleTableRecord
  2
EZ_M_25_H25_CM
 70
0
 40
1.0
 41
0.0625
 42
0.03125
 43
3.75
 44
0.09375
 45
0.0
 46
0.0
 47
0.0
 48
0.0
 49
2.5
140
0.0625
141
2.5
142
0.03125
143
0.03937007874
144
100.0
145
0.0
146
0.5
147
0.025
148
0.0
 69
0
 70
0
 71
0
 72
0
 73
0
 74
0
 75
0
 76
0
 77
1
 78
12
 79
3
170
0
171
3
172
1
173
0
174
0
175
0
176
0
177
0
178
0
179
2
271
2
272
2
273
2
274
3
275
0
276
0
277
2
278
46
279
2
280
0
281
0
282
0
283
0
284
8
285
0
286
0
288
1
289
3
290
0
340
4C
371
-2
372
-2
  0
DIMSTYLE
105
7F
330
4
100
AcDbSymbolTableRecord
100
AcDbDimStyleTableRecord
  2
EZ_M_20_H25_CM
 70
0
 40
1.0
 41
0.05
 42
0.025
 43
3.75
 44
0.07500000000000001
 45
0.0
 46
0.0
 47
0.0
 48
0.0
 49
2.5
140
0.05
141
2.5
142
0.025
143
0.03937007874
144
100.0
145
0.0
146
0.5
147
0.020000000000000004
148
0.0
 69
0
 70
0
 71
0
 72
0
 73
0
 74
0
 75
0
 76
0
 77
1
 78
12
 79
3
170
0
171
3
172
1
173
0
174
0
175
0
176
0
177
0
178
0
179
2
271
2
272
2
273
2
274
3
275
0
276
0
277
2
278
46
279
2
280
0
281
0
282
0
283
0
284
8
285
0
286
0
288
1
289
3
290
0
340
4C
371
-2
372
-2
  0
DIMSTYLE
105
80
330
4
100
AcDbSymbolTableRecord
100
AcDbDimStyleTableRecord
  2
EZ_M_10_H25_CM
 70
0
 40
1.0
 41
0.025
 42
0.0125
 43
3.75
 44
0.037500000000000006
 45
0.0
 46
0.0
 47
0.0
 48
0.0
 49
2.5
140
0.025
141
2.5
142
0.0125
143
0.03937007874
144
100.0
145
0.0
146
0.5
147
0.010000000000000002
148
0.0
 69
0
 70
0
 71
0
 72
0
 73
0
 74
0
 75
0
 76
0
 77
1
 78
12
 79
3
170
0
171
3
172
1
173
0
174
0
175
0
176
0
177
0
178
0
179
2
271
2
272
2
273
2
274
3
275
0
276
0
277
2
278
46
279
2
280
0
281
0
282
0
283
0
284
8
285
0
286
0
288
1
289
3
290
0
340
4C
371
-2
372
-2
  0
DIMSTYLE
105
81
330
4
100
AcDbSymbolTableRecord
100
AcDbDimStyleTableRecord
  2
EZ_M_5_H25_CM
 70
0
 40
1.0
 41
0.0125
 42
0.00625
 43
3.75
 44
0.018750000000000003
 45
0.0
 46
0.0
 47
0.0
 48
0.0
 49
2.5
140
0.0125
141
2.5
142
0.00625
143
0.03937007874
144
100.0
145
0.0
146
0.5
147
0.005000000000000001
148
0.0
 69
0
 70
0
 71
0
 72
0
 73
0
 74
0
 75
0
 76
0
 77
1
 78
12
 79
3
170
0
171
3
172
1
173
0
174
0
175
0
176
0
177
0
178
0
179
2
271
2
272
2
273
2
274
3
275
0
276
0
277
2
278
46
279
2
280
0
281
0
282
0
283
0
284
8
285
0
286
0
288
1
289
3
290
0
340
4C
371
-2
372
-2
  0
DIMSTYLE
105
82
330
4
100
AcDbSymbolTableRecord
100
AcDbDimStyleTableRecord
  2
EZ_M_1_H25_CM
 70
0
 40
1.0
 41
0.0025
 42
0.00125
 43
3.75
 44
0.00375
 45
0.0
 46
0.0
 47
0.0
 48
0.0
 49
2.5
140
0.0025
141
2.5
142
0.00125
143
0.03937007874
144
100.0
145
0.0
146
0.5
147
0.001
148
0.0
 69
0
 70
0
 71
0
 72
0
 73
0
 74
0
 75
0
 76
0
 77
1
 78
12
 79
3
170
0
171
3
172
1
173
0
174
0
175
0
176
0
177
0
178
0
179
2
271
2
272
2
273
2
274
3
275
0
276
0
277
2
278
46
279
2
280
0
281
0
282
0
283
0
284
8
285
0
286
0
288
1
289
3
290
0
340
4C
371
-2
372
-2
  0
DIMSTYLE
105
83
330
4
100
AcDbSymbolTableRecord
100
AcDbDimStyleTableRecord
  2
EZ_RADIUS
 70
0
 40
1.0
 41
0.25
 42
0.125
 43
3.75
 44
0.375
 45
0.0
 46
0.0
 47
0.0
 48
0.0
 49
2.5
140
0.25
141
0.0
142
0.0
143
0.03937007874
144
100.0
145
0.0
146
0.5
147
0.1
148
0.0
 69
0
 70
0
 71
0
 72
0
 73
0
 74
0
 75
0
 76
0
 77
1
 78
12
 79
3
170
0
171
3
172
0
173
0
174
0
175
0
176
0
177
0
178
0
179
2
271
2
272
2
273
2
274
3
275
0
276
0
277
2
278
46
279
1
280
0
281
0
282
0
283
0
284
8
285
0
286
0
288
1
289
3
290
0
340
4C
342
84
371
-2
372
-2
  0
DIMSTYLE
105
88
330
4
100
AcDbSymbolTableRecord
100
AcDbDimStyleTableRecord
  2
EZ_RADIUS_INSIDE
 70
0
 40
1.0
 41
0.25
 42
0.125
 43
3.75
 44
0.375
 45
0.0
 46
0.0
 47
0.0
 48
0.0
 49
2.5
140
0.25
141
0.0
142
0.0
143
0.03937007874
144
100.0
145
0.0
146
0.5
147
0.1
148
0.0
 69
0
 70
0
 71
0
 72
0
 73
0
 74
0
 75
0
 76
0
 77
0
 78
12
 79
3
170
0
171
3
172
0
173
0
174
1
175
0
176
0
177
0
178
0
179
2
271
2
272
2
273
2
274
3
275
0
276
0
277
2
278
46
279
0
280
0
281
0
282
0
283
0
284
8
285
0
286
0
288
1
289
0
290
0
340
4C
342
84
371
-2
372
-2
  0
DIMSTYLE
105
89
330
4
100
AcDbSymbolTableRecord
100
AcDbDimStyleTableRecord
  2
EZ_CURVED
 70
0
 40
1.0
 41
0.25
 42
0.125
 43
3.75
 44
0.375
 45
0.0
 46
0.0
 47
0.0
 48
0.0
 49
2.5
140
0.25
141
2.5
142
0.0
143
0.03937007874
144
100.0
145
0.0
146
0.5
147
0.1
148
0.0
 69
0
 70
0
 71
0
 72
0
 73
0
 74
0
 75
0
 76
0
 77
1
 78
12
 79
2
 90
2
170
0
171
3
172
1
173
0
174
0
175
0
176
0
177
0
178
0
179
2
271
2
272
2
273
2
274
3
275
0
276
0
277
2
278
46
279
2
280
0
281
0
282
0
283
0
284
8
285
0
286
0
288
1
289
3
290
0
340
4C
371
-2
372
-2
  0
ENDTAB
  0
TABLE
  2
BLOCK_RECORD
  5
9
330
0
100
AcDbSymbolTable
 70
5
  0
BLOCK_RECORD
  5
17
330
9
100
AcDbSymbolTableRecord
100
AcDbBlockTableRecord
  2
*Model_Space
340
1A
 70
0
280
1
281
0
  0
BLOCK_RECORD
  5
1B
330
9
100
AcDbSymbolTableRecord
100
AcDbBlockTableRecord
  2
*Paper_Space
340
1E
 70
0
280
1
281
0
  0
BLOCK_RECORD
  5
74
330
9
100
AcDbSymbolTableRecord
100
AcDbBlockTableRecord
  2
_ARCHTICK
340
0
 70
0
280
1
281
0
  0
BLOCK_RECORD
  5
78
330
9
100
AcDbSymbolTableRecord
100
AcDbBlockTableRecord
  2
_CLOSEDFILLED
340
0
 70
0
280
1
281
0
  0
BLOCK_RECORD
  5
84
330
9
100
AcDbSymbolTableRecord
100
AcDbBlockTableRecord
  2
_CLOSEDBLANK
340
0
 70
0
280
1
281
0
  0
ENDTAB
  0
ENDSEC
  0
SECTION
  2
BLOCKS
  0
BLOCK
  5
18
330
17
100
AcDbEntity
  8
0
100
AcDbBlockBegin
  2
*Model_Space
 70
0
 10
0.0
 20
0.0
 30
0.0
  3
*Model_Space
  1

  0
ENDBLK
  5
19
330
17
100
AcDbEntity
  8
0
100
AcDbBlockEnd
  0
BLOCK
  5
1C
330
1B
100
AcDbEntity
  8
0
100
AcDbBlockBegin
  2
*Paper_Space
 70
0
 10
0.0
 20
0.0
 30
0.0
  3
*Paper_Space
  1

  0
ENDBLK
  5
1D
330
1B
100
AcDbEntity
  8
0
100
AcDbBlockEnd
  0
BLOCK
  5
75
330
74
100
AcDbEntity
  8
0
100
AcDbBlockBegin
  2
_ARCHTICK
 70
0
 10
0.0
 20
0.0
 30
0.0
  3
_ARCHTICK
  1

  0
LWPOLYLINE
  5
77
330
74
100
AcDbEntity
  8
0
  6
BYBLOCK
 62
0
100
AcDbPolyline
 90
2
 70
0
 43
0.15
 10
-0.5
 20
-0.5
 10
0.5
 20
0.5
  0
ENDBLK
  5
76
330
74
100
AcDbEntity
  8
0
100
AcDbBlockEnd
  0
BLOCK
  5
79
330
78
100
AcDbEntity
  8
0
100
AcDbBlockBegin
  2
_CLOSEDFILLED
 70
0
 10
0.0
 20
0.0
 30
0.0
  3
_CLOSEDFILLED
  1

  0
SOLID
  5
7B
330
78
100
AcDbEntity
  8
0
  6
BYBLOCK
 62
0
100
AcDbTrace
 10
-1.0
 20
0.16439898372402537
 30
0.0
 11
0.0
 21
0.0
 31
0.0
 12
-1.0
 22
-0.16439898372402537
 32
0.0
 13
-1.0
 23
-0.16439898372402537
 33
0.0
  0
ENDBLK
  5
7A
330
78
100
AcDbEntity
  8
0
100
AcDbBlockEnd
  0
BLOCK
  5
85
330
84
100
AcDbEntity
  8
0
100
AcDbBlockBegin
  2
_CLOSEDBLANK
 70
0
 10
0.0
 20
0.0
 30
0.0
  3
_CLOSEDBLANK
  1

  0
LWPOLYLINE
  5
87
330
84
100
AcDbEntity
  8
0
  6
BYBLOCK
 62
0
100
AcDbPolyline
 90
3
 70
1
 10
-1.0
 20
0.16439898372402537
 10
0.0
 20
0.0
 10
-1.0
 20
-0.16439898372402537
  0
ENDBLK
  5
86
330
84
100
AcDbEntity
  8
0
100
AcDbBlockEnd
  0
ENDSEC
  0
SECTION
  2
ENTITIES
  0
LWPOLYLINE
  5
8C
330
17
100
AcDbEntity
  8
Layer
100
AcDbPolyline
 90
178
 70
1
 10
630.3459149751818
 20
196.62942695295757
 10
630.3459149751818
 20
196.62942695295757
 10
629.8875720386666
 20
196.78396474341415
 10
621.4929238321249
 20
199.57395792217937
 10
613.1419676940523
 20
202.30374375613928
 10
604.8285022370369
 20
204.97188089592098
 10
596.5493623689889
 20
207.57736886343665
 10
588.3011798297159
 20
210.11794792023696
 10
580.0773378448557
 20
212.59230459980938
 10
571.8712825619599
 20
215.0009771247086
 10
563.6796285255915
 20
217.34423656176014
 10
555.4998499962975
 20
219.6210880672918
 10
547.3271636019375
 20
221.83097325939084
 10
539.1565651127078
 20
223.9744275822254
 10
530.986175241269
 20
226.05244479866158
 10
522.8155075649897
 20
228.06437408286052
 10
514.6419294740007
 20
230.0092728634791
 10
506.461920390554
 20
231.88780903532503
 10
498.27463420489727
 20
233.70092105288256
 10
490.08118393598164
 20
235.44810357365344
 10
481.8804274405329
 20
237.12846339641658
 10
473.6704094861675
 20
238.7422282050209
 10
465.45031290176814
 20
240.2901890537474
 10
457.2220399077216
 20
241.77236209279948
 10
448.98608703989
 20
243.18765196201807
 10
440.74087031266924
 20
244.53585331813744
 10
432.48627218966647
 20
245.81786895328915
 10
424.224314629786
 20
247.03338704440478
 10
415.9551482566533
 20
248.1811614034052
 10
407.67497488488465
 20
249.26055509304567
 10
399.3800257092859
 20
250.27330408687766
 10
391.071920890154
 20
251.22127006036587
 10
382.75442770991333
 20
252.1042023344142
 10
374.4285214049697
 20
252.9209699883615
 10
366.0931411788132
 20
253.671729505472
 10
357.75048351919173
 20
254.35815235345316
 10
349.4063782420987
 20
254.98019251106498
 10
341.0645269191345
 20
255.53604356478795
 10
332.72495806679274
 20
256.024625853631
 10
324.38917952310624
 20
256.4470025204787
 10
316.06261692613793
 20
256.8029994251125
 10
307.7494714138214
 20
257.0909480325899
 10
299.44965445043147
 20
257.3089361343319
 10
291.1636917529247
 20
257.45759508454637
 10
282.8966288500969
 20
257.53712242854067
 10
274.65287586622594
 20
257.5456738357544
 10
266.43315828236393
 20
257.4811941988269
 10
258.23769551354997
 20
257.34375101014837
 10
250.07164571231806
 20
257.133717184282
 10
241.9404159673012
 20
256.8493627448653
 10
233.84488681556687
 20
256.48819065867104
 10
225.78635908162238
 20
256.0502006870191
 10
217.7705670446338
 20
255.53584046778906
 10
209.8039335799412
 20
254.94315321886336
 10
201.8878043696252
 20
254.2694983033927
 10
194.02485158473786
 20
253.51539727846693
 10
186.2230286401853
 20
252.68119610513952
 10
178.4885226225933
 20
251.76433333533134
 10
170.82364087776864
 20
250.76300992515198
 10
163.23412806605728
 20
249.67853519637526
 10
155.72962883795424
 20
248.5107134315848
 10
148.316365965757
 20
247.25761947905673
 10
140.99969212336816
 20
245.92064703211068
 10
133.79478100314068
 20
244.5052703226926
 10
126.71987517046134
 20
243.01233188156905
 10
119.78606572377112
 20
241.44091656661158
 10
113.00563771973927
 20
239.7966763569711
 10
106.40066960907089
 20
238.0876500570847
 10
99.99092646310811
 20
236.31664518935008
 10
93.79016841913565
 20
234.48912189098002
 10
87.81726328345746
 20
232.61829678080545
 10
82.09536709187805
 20
230.71589988756307
 10
76.64016344938514
 20
228.78919575993325
 10
71.46195683378275
 20
226.85090923623608
 10
66.5726709862306
 20
224.9171711493852
 10
61.98033716920804
 20
222.9984619962246
 10
57.68353880669997
 20
221.10226379368618
 10
53.67628583163798
 20
219.2393586965242
 10
49.951849820149334
 20
217.41940632771184
 10
46.4998818700891
 20
215.64579834615174
 10
43.304919088448344
 20
213.91863571337674
 10
40.34903265658119
 20
212.2396616799498
 10
37.615680691506554
 20
210.61170296872328
 10
35.089780863567285
 20
209.03431679460485
 10
32.755742287336545
 20
207.50394751662392
 10
30.597992922044
 20
206.01701798396277
 10
28.601597733245455
 20
204.57121975454095
 10
26.75431053355277
 20
203.1656986647918
 10
25.04610878710838
 20
201.7977127991107
 10
23.4677492354175
 20
200.4623558241567
 10
22.00802187525511
 20
199.15310662633334
 10
20.6545260954166
 20
197.86777909370196
 10
19.39499832471546
 20
196.60725270172526
 10
18.220188025885193
 20
195.37679721528872
 10
17.12516044579297
 20
194.18036209563098
 10
16.11010871246566
 20
193.02084294053662
 10
15.17729256922621
 20
191.89381415496442
 10
14.328654614625634
 20
190.79259669116917
 10
13.563569757690857
 20
189.7081794776443
 10
12.877378956525831
 20
188.63195001508956
 10
12.26344886433651
 20
187.56173293379342
 10
11.714492281642436
 20
186.49904793802946
 10
11.225529510516765
 20
185.45041794152598
 10
10.794417940001779
 20
184.4208284608817
 10
10.421877473873394
 20
183.41450946468967
 10
10.110054409876568
 20
182.4318005885452
 10
9.860700600809992
 20
181.46975809024633
 10
9.67402219444125
 20
180.5253550956296
 10
9.548417175401482
 20
179.59620760839144
 10
9.47749896080046
 20
178.60252862435254
 10
9.46794496312458
 20
177.76658503201347
 10
9.51350280771328
 20
176.84625419988168
 10
9.623087062503942
 20
175.92963556360243
 10
9.804729405425405
 20
175.02088521359755
 10
10.068497782054123
 20
174.11941474338704
 10
10.423024775054955
 20
173.2232275167521
 10
10.871628346368823
 20
172.33247523441747
 10
11.411588082137996
 20
171.45006596016037
 10
12.036801370274532
 20
170.58118266275872
 10
12.74314070462259
 20
169.7307709525577
 10
13.530192644823728
 20
168.90278566687076
 10
14.401668401369648
 20
168.09900739985292
 10
15.361289152180916
 20
167.31947501395607
 10
16.411358147716555
 20
166.5623919478573
 10
17.55072753954306
 20
165.82533739259864
 10
18.778476836331095
 20
165.10566061256333
 10
20.09378259484896
 20
164.40198284301272
 10
21.50057444051845
 20
163.71376331450537
 10
23.004624244563445
 20
163.04079101274846
 10
24.61523976390862
 20
162.38225657114265
 10
26.34166828252694
 20
161.7355788888987
 10
28.193223265494737
 20
161.09678459522783
 10
30.1801439516629
 20
160.46149796852183
 10
32.313249722652756
 20
159.82586502082552
 10
34.60698103638549
 20
159.18778902672906
 10
37.07901897451495
 20
158.546311235331
 10
39.75081192748053
 20
157.90042258443776
 10
42.645454239973105
 20
157.24814803929414
 10
45.78830134032012
 20
156.58757377588105
 10
49.206268003914204
 20
155.9179382086435
 10
52.92962111244236
 20
155.24046392509285
 10
56.990887484241625
 20
154.5572228983707
 10
61.42135590890223
 20
153.86913253203352
 10
66.24727046233176
 20
153.1777504652485
 10
71.48848510536826
 20
152.4882948818763
 10
77.1580371564153
 20
151.80826777692104
 10
83.25855388904947
 20
151.14339922108437
 10
89.77581487968575
 20
150.49847761871487
 10
96.6828614810037
 20
149.88187963707708
 10
103.94867197759433
 20
149.30066634876889
 10
111.53464201070025
 20
148.75685874205516
 10
119.39581200553522
 20
148.25336743468546
 10
127.49563643950674
 20
147.7936413571295
 10
135.80302695494993
 20
147.37597084498444
 10
144.28641115141295
 20
146.9984069492109
 10
152.92768680604507
 20
146.66207265822845
 10
161.7231131730107
 20
146.3600737252563
 10
170.64721919011123
 20
146.07570470231929
 10
171.5897926258568
 20
146.04696123179195
 10
171.54407187139498
 20
144.54765818950483
 10
179.59726384172183
 20
144.30207871816444
 10
188.61762897688456
 20
144.0507062034828
 10
197.6685842649683
 20
143.8368173036695
 10
206.78426076724782
 20
143.65887986871618
 10
215.98299821358356
 20
143.50179044321123
 10
225.2477623900554
 20
143.34940548700405
 10
234.5447090549854
 20
143.193541696408
 10
243.84605682814686
 20
143.03780924356033
 10
253.13120848550136
 20
142.89571628984572
 10
262.41861304177894
 20
142.77834255644828
 10
271.7418160778598
 20
142.68278458270967
 10
281.11433770134306
 20
142.59632090476902
 10
290.5198932354645
 20
142.5093073261644
 10
299.9444752003819
 20
142.42173307574842
 10
309.3762935404594
 20
142.33584829673958
 10
318.80499663438724
 20
142.25049540130124
 10
337.14615015738167
 20
142.0928209542737
 10
630.3459149751818
 20
196.62942695295757
  0
LWPOLYLINE
  5
8D
330
17
100
AcDbEntity
  8
Layer
100
AcDbPolyline
 90
5
 70
0
 10
550.0311706527847
 20
216.95613735698205
 10
546.1698369333911
 20
218.00021681156127
 10
547.2139163879702
 20
221.86155053095482
 10
551.0752501073638
 20
220.8174710763756
 10
550.0311706527847
 20
216.95613735698205
  0
LWPOLYLINE
  5
8E
330
17
100
AcDbEntity
  8
Layer
100
AcDbPolyline
 90
5
 70
0
 10
239.10811742448004
 20
252.71899808170497
 10
235.11209382578926
 20
252.5406854385571
 10
234.93378118264138
 20
256.5367090372478
 10
238.92980478133217
 20
256.71502168039575
 10
239.10811742448004
 20
252.71899808170497
  0
LWPOLYLINE
  5
8F
330
17
100
AcDbEntity
  8
Layer
100
AcDbPolyline
 90
5
 70
0
 10
98.03749141044344
 20
231.57069657548183
 10
94.20069924719971
 20
230.43975630470206
 10
93.06975897641993
 20
234.2765484679458
 10
96.90655113966366
 20
235.40748873872556
 10
98.03749141044344
 20
231.57069657548183
  0
LWPOLYLINE
  5
90
330
17
100
AcDbEntity
  8
Layer
100
AcDbPolyline
 90
5
 70
0
 10
26.934248645201894
 20
196.85507903713415
 10
25.44579040019416
 20
195.51923022350724
 10
22.10616836612682
 20
199.2403758360266
 10
23.594626611134554
 20
200.5762246496535
 10
26.934248645201894
 20
196.85507903713415
  0
LWPOLYLINE
  5
91
330
17
100
AcDbEntity
  8
Layer
100
AcDbPolyline
 90
5
 70
0
 10
18.39712612030569
 20
171.29498278368868
 10
20.021135185538395
 20
170.12768052804023
 10
17.10287954641724
 20
166.06765786495845
 10
15.478870481184531
 20
167.2349601206069
 10
18.39712612030569
 20
171.29498278368868
  0
LWPOLYLINE
  5
92
330
17
100
AcDbEntity
  8
Layer
100
AcDbPolyline
 90
5
 70
0
 10
128.48616665036513
 20
151.748895215942
 10
132.48112126524336
 20
151.54805292691134
 10
132.28027897621268
 20
147.55309831203311
 10
128.28532436133446
 20
147.7539406010638
 10
128.48616665036513
 20
151.748895215942
  0
LWPOLYLINE
  5
93
330
17
100
AcDbEntity
  8
Layer
100
AcDbPolyline
 90
300
 70
1
 10
368.0807080254338
 20
200.0
 10
368.0710406570536
 20
200.9765851848726
 10
368.0420428207505
 20
201.95273913721954
 10
367.99372732115285
 20
202.92803081493534
 10
367.9261154930251
 20
203.90202955667067
 10
367.8392371918472
 20
204.8743052720004
 10
367.7331307806312
 20
205.84442863133935
 10
367.60784311298124
 20
206.81197125552205
 10
367.46342951240445
 20
207.77650590496313
 10
367.29995374788143
 20
208.73760666831416
 10
367.1174880057077
 20
209.69484915053414
 10
366.9161128576184
 20
210.64781066029036
 10
366.69591722521
 20
211.5960703966071
 10
366.456998340675
 20
212.53920963467942
 10
366.19946170386703
 20
213.47681191077024
 10
365.92342103571485
 20
214.408463206109
 10
365.6289982280067
 20
215.33375212971072
 10
365.3163232895662
 20
216.2522701000347
 10
364.98553428884384
 20
217.1636115254026
 10
364.6367772929504
 20
218.06737398309625
 10
364.2702063031573
 20
218.9631583970563
 10
363.88598318689424
 20
219.8505692141029
 10
363.484277606273
 20
220.7292145786009
 10
363.0652669431696
 20
221.5987065054922
 10
362.6291362208971
 20
222.4586610516191
 10
362.17607802250507
 20
223.30869848526268
 10
361.70629240573965
 20
224.1484434538218
 10
361.2199868147042
 20
224.9775251495582
 10
360.71737598825774
 20
225.79557747333456
 10
360.1986818651921
 20
226.60223919627384
 10
359.66413348623024
 20
227.39715411926764
 10
359.11396689288813
 20
228.17997123026373
 10
358.54842502324556
 20
228.9503448592631
 10
357.96775760467153
 20
229.70793483095812
 10
357.37222104355163
 20
230.4524066149443
 10
356.76207831206614
 20
231.18343147343953
 10
356.13759883206916
 20
231.9006866064455
 10
355.49905835611924
 20
232.6038552942871
 10
354.84673884571487
 20
233.29262703746667
 10
354.1809283467883
 20
233.96669769377223
 10
353.50192086251246
 20
234.62576961257778
 10
352.8100162234777
 20
235.26955176627763
 10
352.10551995529465
 20
235.89775987879588
 10
351.388743143683
 20
236.51011655111483
 10
350.66000229710454
 20
237.1063513837666
 10
349.9196192070023
 20
237.68620109623367
 10
349.16792080570633
 20
238.24940964320652
 10
348.40523902206934
 20
238.79572832764575
 10
347.63191063489666
 20
239.32491591059983
 10
346.84827712423396
 20
239.83673871772936
 10
346.0546845205794
 20
240.3309707424911
 10
345.25148325208625
 20
240.80739374593614
 10
344.4390279898235
 20
241.26579735307797
 10
343.61767749116353
 20
241.70597914578832
 10
342.7877944413646
 20
242.12774475217913
 10
341.94974529341926
 20
242.53090793243177
 10
341.1039001062392
 20
242.91529066103539
 10
340.25063238124767
 20
243.2807232053978
 10
339.3903188974515
 20
243.62704420079484
 10
338.5233395450662
 20
243.95410072162423
 10
337.65007715776756
 20
244.26174834893337
 10
336.7709173436423
 20
244.5498512341907
 10
335.88624831491495
 20
244.8182821592725
 10
334.99646071652427
 20
245.06692259263892
 10
334.1019474536251
 20
245.29566274167408
 10
333.2031035180928
 20
245.50440160116747
 10
332.30032581410575
 20
245.69304699791496
 10
331.39401298288385
 20
245.86151563142
 10
330.4845652266596
 20
246.0097331106765
 10
329.5723841319601
 20
246.1376339870182
 10
328.657872492278
 20
246.24516178301866
 10
327.7414341302086
 20
246.33226901743015
 10
326.8234737191339
 20
246.39891722615016
 10
325.90439660452984
 20
246.44507697920594
 10
324.9846086249771
 20
246.47072789375
 10
324.0645159329544
 20
246.47585864306052
 10
323.1445248154928
 20
246.46046696154315
 10
322.225041514771
 20
246.42455964573105
 10
321.3064720487301
 20
246.36815255128408
 10
320.38922203178754
 20
246.29127058598726
 10
319.4736964957291
 20
246.1939476987521
 10
318.56029971085843
 20
246.0762268646259
 10
317.64943500748257
 20
245.93816006581503
 10
316.7415045978126
 20
245.77980826873105
 10
315.8369093983582
 20
245.6012413970698
 10
314.9360488528941
 20
245.40253830093496
 10
314.0393207560768
 20
245.18378672202005
 10
313.14712107779
 20
244.9450832548642
 10
312.2598437882952
 20
244.68653330419875
 10
311.3778806842655
 20
244.40825103840342
 10
310.5016212157794
 20
244.1103593390928
 10
309.6314523143505
 20
243.79298974685537
 10
308.76775822206935
 20
243.45628240316867
 10
307.9109203219332
 20
243.10038598851705
 10
307.0613169694377
 20
242.72545765673826
 10
306.2193233255061
 20
242.331662965629
 10
305.38531119082836
 20
241.91917580383907
 10
304.5596488416848
 20
241.48817831408712
 10
303.7427008673255
 20
241.03886081273154
 10
302.9348280089779
 20
240.57142170573218
 10
302.1363870005536
 20
240.08606740103968
 10
301.347730411125
 20
239.58301221745174
 10
300.5692064892404
 20
239.06247828997587
 10
299.8011590091473
 20
238.52469547174078
 10
299.04392711899146
 20
237.9699012324998
 10
298.29784519105874
 20
237.3983405537709
 10
297.5632426741254
 20
236.81026582065974
 10
296.840443947983
 20
236.20593671041343
 10
296.1297681802013
 20
235.58562007775453
 10
295.4315291851932
 20
234.94958983704538
 10
294.7460352856426
 20
234.2981268413353
 10
294.07358917635804
 20
233.63151875834376
 10
293.4144877906113
 20
232.95005994343444
 10
292.7690221690198
 20
232.25405130963617
 10
292.1374773310315
 20
231.54380019476812
 10
291.52013214906816
 20
230.81962022572833
 10
290.91725922538313
 20
230.08183118000454
 10
290.32912477168793
 20
229.3307588444698
 10
289.75598849160065
 20
228.5667348715239
 10
289.19810346596813
 20
227.79009663264512
 10
288.6557160411126
 20
227.00118706941655
 10
288.12906572005204
 20
226.20035454209253
 10
287.61838505674245
 20
225.38795267577282
 10
287.12389955338847
 20
224.56434020425155
 10
286.64582756086804
 20
223.72988081161046
 10
286.18438018231484
 20
222.8849429716264
 10
285.7397611799008
 20
222.0298997850635
 10
285.3121668848611
 20
221.16512881492247
 10
284.9017861107989
 20
220.2910119197195
 10
284.50880007031157
 20
219.40793508486806
 10
284.1333822949714
 20
218.51628825223884
 10
283.7756985586996
 20
217.6164651479722
 10
283.435906804565
 20
216.70886310862
 10
283.1141570750405
 20
215.79388290569267
 10
282.8105914457492
 20
214.87192856869015
 10
282.5253439627272
 20
213.9434072066936
 10
282.25854058323296
 20
213.00872882859747
 10
282.0102991201281
 20
212.0683061620613
 10
281.78072918985436
 20
211.12255447126068
 10
281.5699321640303
 20
210.1718913735182
 10
281.3780011246884
 20
209.21673665489567
 10
281.20502082317256
 20
208.257512084828
 10
281.0510676427143
 20
207.29464122988216
 10
280.91620956470416
 20
206.3285492667217
 10
280.800506138673
 20
205.35966279436101
 10
280.7040084559965
 20
204.388409645791
 10
280.6267591273348
 20
203.41521869906018
 10
280.56879226381693
 20
202.4405196878942
 10
280.53013346197787
 20
201.46474301193746
 10
280.5107997924562
 20
200.48831954670084
 10
280.5107997924562
 20
199.51168045329916
 10
280.53013346197787
 20
198.53525698806254
 10
280.56879226381693
 20
197.55948031210582
 10
280.6267591273348
 20
196.58478130093982
 10
280.7040084559965
 20
195.611590354209
 10
280.800506138673
 20
194.64033720563899
 10
280.91620956470416
 20
193.6714507332783
 10
281.0510676427143
 20
192.70535877011787
 10
281.20502082317256
 20
191.742487915172
 10
281.3780011246884
 20
190.78326334510436
 10
281.5699321640303
 20
189.82810862648176
 10
281.78072918985436
 20
188.87744552873932
 10
282.0102991201281
 20
187.9316938379387
 10
282.25854058323296
 20
186.99127117140253
 10
282.5253439627272
 20
186.05659279330644
 10
282.8105914457492
 20
185.12807143130985
 10
283.1141570750405
 20
184.20611709430733
 10
283.435906804565
 20
183.29113689138003
 10
283.7756985586996
 20
182.3835348520278
 10
284.1333822949714
 20
181.48371174776116
 10
284.50880007031157
 20
180.59206491513194
 10
284.9017861107989
 20
179.7089880802805
 10
285.3121668848611
 20
178.83487118507753
 10
285.7397611799008
 20
177.97010021493654
 10
286.18438018231484
 20
177.11505702837363
 10
286.64582756086804
 20
176.27011918838954
 10
287.12389955338847
 20
175.43565979574845
 10
287.61838505674245
 20
174.61204732422718
 10
288.12906572005204
 20
173.79964545790747
 10
288.6557160411126
 20
172.99881293058348
 10
289.19810346596813
 20
172.20990336735488
 10
289.75598849160065
 20
171.43326512847614
 10
290.32912477168793
 20
170.66924115553022
 10
290.91725922538313
 20
169.91816881999546
 10
291.52013214906816
 20
169.18037977427167
 10
292.1374773310315
 20
168.45619980523188
 10
292.7690221690198
 20
167.74594869036386
 10
293.41448779061125
 20
167.04994005656556
 10
294.07358917635804
 20
166.36848124165624
 10
294.7460352856426
 20
165.7018731586647
 10
295.43152918519326
 20
165.05041016295462
 10
296.1297681802013
 20
164.4143799222455
 10
296.840443947983
 20
163.79406328958657
 10
297.5632426741254
 20
163.1897341793403
 10
298.29784519105874
 20
162.6016594462291
 10
299.04392711899146
 20
162.0300987675002
 10
299.8011590091472
 20
161.47530452825924
 10
300.56920648924034
 20
160.93752171002413
 10
301.347730411125
 20
160.41698778254823
 10
302.1363870005536
 20
159.91393259896032
 10
302.9348280089779
 20
159.42857829426782
 10
303.74270086732554
 20
158.96113918726846
 10
304.5596488416848
 20
158.51182168591288
 10
305.38531119082836
 20
158.08082419616093
 10
306.2193233255061
 20
157.668337034371
 10
307.0613169694377
 20
157.27454234326174
 10
307.9109203219332
 20
156.89961401148298
 10
308.76775822206935
 20
156.54371759683133
 10
309.6314523143505
 20
156.20701025314466
 10
310.5016212157794
 20
155.88964066090722
 10
311.3778806842655
 20
155.5917489615966
 10
312.2598437882952
 20
155.31346669580125
 10
313.14712107779
 20
155.0549167451358
 10
314.0393207560768
 20
154.81621327797995
 10
314.9360488528941
 20
154.59746169906504
 10
315.8369093983582
 20
154.3987586029302
 10
316.7415045978126
 20
154.22019173126895
 10
317.64943500748257
 20
154.06183993418497
 10
318.56029971085843
 20
153.9237731353741
 10
319.47369649572903
 20
153.8060523012479
 10
320.3892220317875
 20
153.70872941401274
 10
321.3064720487301
 20
153.63184744871592
 10
322.22504151477096
 20
153.57544035426895
 10
323.1445248154928
 20
153.53953303845685
 10
324.0645159329544
 20
153.52414135693948
 10
324.9846086249771
 20
153.52927210625
 10
325.90439660452984
 20
153.55492302079406
 10
326.8234737191339
 20
153.60108277384984
 10
327.7414341302086
 20
153.66773098256985
 10
328.657872492278
 20
153.75483821698134
 10
329.5723841319601
 20
153.8623660129818
 10
330.4845652266596
 20
153.9902668893235
 10
331.39401298288385
 20
154.13848436858
 10
332.30032581410575
 20
154.30695300208504
 10
333.20310351809275
 20
154.49559839883253
 10
334.1019474536251
 20
154.7043372583259
 10
334.99646071652427
 20
154.93307740736108
 10
335.88624831491495
 20
155.1817178407275
 10
336.7709173436423
 20
155.4501487658093
 10
337.65007715776756
 20
155.73825165106663
 10
338.5233395450662
 20
156.04589927837577
 10
339.3903188974515
 20
156.37295579920516
 10
340.25063238124767
 20
156.7192767946022
 10
341.1039001062392
 20
157.08470933896461
 10
341.94974529341926
 20
157.46909206756823
 10
342.7877944413646
 20
157.87225524782087
 10
343.6176774911636
 20
158.29402085421168
 10
344.4390279898235
 20
158.73420264692203
 10
345.25148325208625
 20
159.19260625406386
 10
346.0546845205794
 20
159.66902925750887
 10
346.84827712423396
 20
160.16326128227064
 10
347.63191063489666
 20
160.67508408940014
 10
348.40523902206934
 20
161.20427167235425
 10
349.16792080570633
 20
161.75059035679348
 10
349.9196192070023
 20
162.31379890376633
 10
350.66000229710454
 20
162.8936486162334
 10
351.388743143683
 20
163.48988344888514
 10
352.10551995529465
 20
164.10224012120412
 10
352.8100162234777
 20
164.73044823372237
 10
353.50192086251246
 20
165.37423038742222
 10
354.1809283467883
 20
166.03330230622777
 10
354.84673884571487
 20
166.70737296253333
 10
355.49905835611924
 20
167.39614470571294
 10
356.1375988320692
 20
168.0993133935545
 10
356.76207831206614
 20
168.81656852656045
 10
357.3722210435516
 20
169.5475933850557
 10
357.96775760467153
 20
170.29206516904185
 10
358.54842502324556
 20
171.04965514073686
 10
359.11396689288813
 20
171.82002876973627
 10
359.66413348623024
 20
172.60284588073236
 10
360.1986818651921
 20
173.39776080372616
 10
360.71737598825774
 20
174.20442252666544
 10
361.2199868147042
 20
175.0224748504418
 10
361.70629240573965
 20
175.8515565461782
 10
362.17607802250507
 20
176.69130151473732
 10
362.6291362208971
 20
177.5413389483809
 10
363.0652669431696
 20
178.4012934945078
 10
363.484277606273
 20
179.2707854213991
 10
363.88598318689424
 20
180.1494307858971
 10
364.2702063031573
 20
181.0368416029437
 10
364.6367772929504
 20
181.93262601690373
 10
364.98553428884384
 20
182.83638847459738
 10
365.3163232895662
 20
183.7477298999653
 10
365.6289982280067
 20
184.66624787028928
 10
365.92342103571485
 20
185.591536793891
 10
366.19946170386703
 20
186.52318808922976
 10
366.456998340675
 20
187.46079036532055
 10
366.69591722521
 20
188.40392960339287
 10
366.9161128576184
 20
189.35218933970964
 10
367.1174880057077
 20
190.30515084946586
 10
367.29995374788143
 20
191.26239333168584
 10
367.46342951240445
 20
192.22349409503687
 10
367.60784311298124
 20
193.18802874447795
 10
367.7331307806312
 20
194.15557136866067
 10
367.8392371918472
 20
195.12569472799956
 10
367.9261154930251
 20
196.0979704433293
 10
367.99372732115285
 20
197.07196918506466
 10
368.0420428207505
 20
198.04726086278046
 10
368.0710406570536
 20
199.0234148151274
 10
368.0807080254338
 20
200.0
  0
LINE
  5
94
330
17
100
AcDbEntity
  8
Layer
 62
7
100
AcDbLine
 10
22.952252683826032
 20
200.00000000000003
 30
0.0
 11
620.1895766388793
 21
199.99999999999997
 31
0.0
  0
LINE
  5
95
330
17
100
AcDbEntity
  8
Layer
 62
7
100
AcDbLine
 10
140.29971747483668
 20
200.00000000000003
 30
0.0
 11
152.29971747483668
 21
200.00000000000003
 31
0.0
  0
LWPOLYLINE
  5
96
330
17
100
AcDbEntity
  8
Layer
100
AcDbPolyline
 90
5
 70
0
 10
146.29971747483668
 20
205.00000000000003
 10
151.29971747483668
 20
200.00000000000003
 10
146.29971747483668
 20
195.00000000000003
 10
141.29971747483668
 20
200.00000000000003
 10
146.29971747483668
 20
205.00000000000003
  0
LINE
  5
97
330
17
100
AcDbEntity
  8
Layer
 62
7
100
AcDbLine
 10
315.5709146613527
 20
200.0
 30
0.0
 11
327.5709146613527
 21
200.0
 31
0.0
  0
LWPOLYLINE
  5
98
330
17
100
AcDbEntity
  8
Layer
100
AcDbPolyline
 90
5
 70
0
 10
321.5709146613527
 20
205.0
 10
326.5709146613527
 20
200.0
 10
321.5709146613527
 20
195.0
 10
316.5709146613527
 20
200.0
 10
321.5709146613527
 20
205.0
  0
LINE
  5
99
330
17
100
AcDbEntity
  8
Layer
 62
7
100
AcDbLine
 10
490.84211184786864
 20
199.99999999999997
 30
0.0
 11
502.84211184786864
 21
199.99999999999997
 31
0.0
  0
LWPOLYLINE
  5
9A
330
17
100
AcDbEntity
  8
Layer
100
AcDbPolyline
 90
5
 70
0
 10
496.84211184786864
 20
204.99999999999997
 10
501.84211184786864
 20
199.99999999999997
 10
496.84211184786864
 20
194.99999999999997
 10
491.84211184786864
 20
199.99999999999997
 10
496.84211184786864
 20
204.99999999999997
  0
LINE
  5
9B
330
17
100
AcDbEntity
  8
Layer
 62
7
100
AcDbLine
 10
9.534330821226547
 20
179.3988349843894
 30
0.0
 11
402.00330412676567
 21
154.1565722823905
 31
0.0
  0
LINE
  5
9C
330
17
100
AcDbEntity
  8
Layer
 62
7
100
AcDbLine
 10
85.93245550698379
 20
174.48516877272525
 30
0.0
 11
97.90771250898717
 21
173.71496117995028
 31
0.0
  0
LWPOLYLINE
  5
9D
330
17
100
AcDbEntity
  8
Layer
100
AcDbPolyline
 90
5
 70
0
 10
92.24100383830839
 20
179.0897553938392
 10
96.9097744254869
 20
173.77914514601486
 10
91.59916417766257
 20
169.11037455883633
 10
86.93039359048406
 20
174.42098480666067
 10
92.24100383830839
 20
179.0897553938392
  0
LINE
  5
9E
330
17
100
AcDbEntity
  8
Layer
 62
7
100
AcDbLine
 10
180.80640006199263
 20
168.3832009869354
 30
0.0
 11
192.78165706399602
 21
167.61299339416044
 31
0.0
  0
LWPOLYLINE
  5
9F
330
17
100
AcDbEntity
  8
Layer
100
AcDbPolyline
 90
5
 70
0
 10
187.11494839331723
 20
172.98778760804936
 10
191.78371898049576
 20
167.67717736022502
 10
186.47310873267142
 20
163.0084067730465
 10
181.8043381454929
 20
168.31901702087083
 10
187.11494839331723
 20
172.98778760804936
  0
LINE
  5
A0
330
17
100
AcDbEntity
  8
Layer
100
AcDbLine
 10
324.29454545454536
 20
246.4765
 30
0.0
 11
324.29454545454536
 21
247.4765
 31
0.0
  0
LINE
  5
A1
330
17
100
AcDbEntity
  8
Layer
100
AcDbLine
 10
324.29454545454536
 20
153.5235
 30
0.0
 11
324.29454545454536
 21
152.5235
 31
0.0
  0
LINE
  5
A2
330
17
100
AcDbEntity
  8
Layer
100
AcDbLine
 10
368.0807080254338
 20
200.0
 30
0.0
 11
369.0807080254338
 21
200.0
 31
0.0
  0
LINE
  5
A3
330
17
100
AcDbEntity
  8
Layer
100
AcDbLine
 10
280.5083828836569
 20
200.0
 30
0.0
 11
279.5083828836569
 21
200.0
 31
0.0
  0
LINE
  5
A4
330
17
100
AcDbEntity
  8
Layer
 62
7
100
AcDbLine
 10
174.29454545454536
 20
144.46378339166387
 30
0.0
 11
174.29454545454536
 21
251.2164413182158
 31
0.0
  0
LINE
  5
A5
330
17
100
AcDbEntity
  8
Layer
 62
7
100
AcDbLine
 10
174.29454545454536
 20
177.77721366595702
 30
0.0
 11
174.29454545454536
 21
189.77721366595702
 31
0.0
  0
LWPOLYLINE
  5
A6
330
17
100
AcDbEntity
  8
Layer
100
AcDbPolyline
 90
5
 70
0
 10
169.29454545454536
 20
183.77721366595702
 10
174.29454545454536
 20
188.77721366595702
 10
179.29454545454536
 20
183.77721366595702
 10
174.29454545454536
 20
178.77721366595702
 10
169.29454545454536
 20
183.77721366595702
  0
LINE
  5
A7
330
17
100
AcDbEntity
  8
Layer
 62
7
100
AcDbLine
 10
174.29454545454536
 20
205.90301104392262
 30
0.0
 11
174.29454545454536
 21
217.90301104392262
 31
0.0
  0
LWPOLYLINE
  5
A8
330
17
100
AcDbEntity
  8
Layer
100
AcDbPolyline
 90
5
 70
0
 10
169.29454545454536
 20
211.90301104392262
 10
174.29454545454536
 20
216.90301104392262
 10
179.29454545454536
 20
211.90301104392262
 10
174.29454545454536
 20
206.90301104392262
 10
169.29454545454536
 20
211.90301104392262
  0
LINE
  5
A9
330
17
100
AcDbEntity
  8
Layer
 62
7
100
AcDbLine
 10
624.2945454545454
 20
195.50384230078544
 30
0.0
 11
624.2945454545454
 21
198.64282834727436
 31
0.0
  0
LINE
  5
AA
330
17
100
AcDbEntity
  8
Layer
 62
7
100
AcDbLine
 10
624.2945454545454
 20
191.0733353240299
 30
0.0
 11
624.2945454545454
 21
203.0733353240299
 31
0.0
  0
LWPOLYLINE
  5
AB
330
17
100
AcDbEntity
  8
Layer
100
AcDbPolyline
 90
5
 70
0
 10
619.2945454545454
 20
197.0733353240299
 10
624.2945454545454
 20
202.0733353240299
 10
629.2945454545454
 20
197.0733353240299
 10
624.2945454545454
 20
192.0733353240299
 10
619.2945454545454
 20
197.0733353240299
  0
LWPOLYLINE
  5
AC
330
17
100
AcDbEntity
  8
NumLabel
 62
1
100
AcDbPolyline
 90
5
 70
0
 10
241.58545454545452
 20
168.64545454545456
 10
241.58545454545452
 20
163.64545454545456
 10
246.58545454545452
 20
163.64545454545456
 10
246.58545454545452
 20
168.64545454545456
 10
246.58545454545452
 20
158.64545454545456
  0
LWPOLYLINE
  5
AD
330
17
100
AcDbEntity
  8
NumLabel
 62
1
100
AcDbPolyline
 90
4
 70
0
 10
251.08545454545452
 20
168.64545454545456
 10
249.08545454545452
 20
168.64545454545456
 10
249.08545454545452
 20
158.64545454545456
 10
251.08545454545452
 20
158.64545454545456
  0
LWPOLYLINE
  5
AE
330
17
100
AcDbEntity
  8
NumLabel
 62
1
100
AcDbPolyline
 90
4
 70
0
 10
252.08545454545452
 20
158.64545454545456
 10
254.08545454545452
 20
158.64545454545456
 10
254.08545454545452
 20
168.64545454545456
 10
252.08545454545452
 20
168.64545454545456
  0
ENDSEC
  0
SECTION
  2
OBJECTS
  0
DICTIONARY
  5
A
330
0
100
AcDbDictionary
280
0
281
1
  3
ACAD_COLOR
350
B
  3
ACAD_GROUP
350
C
  3
ACAD_LAYOUT
350
D
  3
ACAD_MATERIAL
350
E
  3
ACAD_MLEADERSTYLE
350
F
  3
ACAD_MLINESTYLE
350
10
  3
ACAD_PLOTSETTINGS
350
11
  3
ACAD_PLOTSTYLENAME
350
12
  3
ACAD_SCALELIST
350
14
  3
ACAD_TABLESTYLE
350
15
  3
ACAD_VISUALSTYLE
350
16
  3
EZDXF_META
350
2D
  0
DICTIONARY
  5
B
330
A
100
AcDbDictionary
280
0
281
1
  0
DICTIONARY
  5
C
330
A
100
AcDbDictionary
280
0
281
1
  0
DICTIONARY
  5
D
330
A
100
AcDbDictionary
280
0
281
1
  3
Model
350
1A
  3
Layout1
350
1E
  0
DICTIONARY
  5
E
330
A
100
AcDbDictionary
280
0
281
1
  3
ByBlock
350
1F
  3
ByLayer
350
20
  3
Global
350
21
  0
DICTIONARY
  5
F
330
A
100
AcDbDictionary
280
0
281
1
  3
Standard
350
2C
  0
DICTIONARY
  5
10
330
A
100
AcDbDictionary
280
0
281
1
  3
Standard
350
22
  0
DICTIONARY
  5
11
330
A
100
AcDbDictionary
280
0
281
1
  0
ACDBDICTIONARYWDFLT
  5
12
330
A
100
AcDbDictionary
280
0
281
1
  3
Normal
350
13
100
AcDbDictionaryWithDefault
340
13
  0
ACDBPLACEHOLDER
  5
13
330
12
  0
DICTIONARY
  5
14
330
A
100
AcDbDictionary
280
0
281
1
  0
DICTIONARY
  5
15
330
A
100
AcDbDictionary
280
0
281
1
  0
DICTIONARY
  5
16
330
A
100
AcDbDictionary
280
0
281
1
  3
2dWireframe
350
5A
  3
Basic
350
5B
  3
Brighten
350
5C
  3
ColorChange
350
5D
  3
Conceptual
350
5E
  3
Dim
350
5F
  3
EdgeColorOff
350
60
  3
Facepattern
350
61
  3
Flat
350
62
  3
FlatWithEdges
350
63
  3
Gouraud
350
64
  3
GouraudWithEdges
350
65
  3
Hidden
350
66
  3
JitterOff
350
67
  3
Linepattern
350
68
  3
Modeling
350
69
  3
OverhangOff
350
6A
  3
Realistic
350
6B
  3
Shaded
350
6C
  3
Shaded with edges
350
6D
  3
Shades of Gray
350
6E
  3
Sketchy
350
6F
  3
Thicken
350
70
  3
Wireframe
350
71
  3
X-Ray
350
72
  0
LAYOUT
  5
1A
330
D
100
AcDbPlotSettings
  1

  2
Adobe PDF
  4
A3
  6

 40
7.5
 41
20.0
 42
7.5
 43
20.0
 44
420.0
 45
297.0
 46
0.0
 47
0.0
 48
0.0
 49
0.0
140
0.0
141
0.0
142
1.0
143
1.0
 70
1024
 72
1
 73
0
 74
5
  7

 75
16
 76
0
 77
2
 78
300
147
1.0
148
0.0
149
0.0
100
AcDbLayout
  1
Model
 70
1
 71
0
 10
0.0
 20
0.0
 11
420.0
 21
297.0
 12
0.0
 22
0.0
 32
0.0
 14
1e+20
 24
1e+20
 34
1e+20
 15
-1e+20
 25
-1e+20
 35
-1e+20
146
0.0
 13
0.0
 23
0.0
 33
0.0
 16
1.0
 26
0.0
 36
0.0
 17
0.0
 27
1.0
 37
0.0
 76
1
330
17
  0
LAYOUT
  5
1E
330
D
100
AcDbPlotSettings
  1

  2
Adobe PDF
  4
A3
  6

 40
7.5
 41
20.0
 42
7.5
 43
20.0
 44
420.0
 45
297.0
 46
0.0
 47
0.0
 48
0.0
 49
0.0
140
0.0
141
0.0
142
1.0
143
1.0
 70
0
 72
1
 73
0
 74
5
  7

 75
16
 76
0
 77
2
 78
300
147
1.0
148
0.0
149
0.0
100
AcDbLayout
  1
Layout1
 70
1
 71
1
 10
0.0
 20
0.0
 11
420.0
 21
297.0
 12
0.0
 22
0.0
 32
0.0
 14
1e+20
 24
1e+20
 34
1e+20
 15
-1e+20
 25
-1e+20
 35
-1e+20
146
0.0
 13
0.0
 23
0.0
 33
0.0
 16
1.0
 26
0.0
 36
0.0
 17
0.0
 27
1.0
 37
0.0
 76
1
330
1B
  0
MATERIAL
  5
1F
102
{ACAD_REACTORS
330
E
102
}
330
E
100
AcDbMaterial
  1
ByBlock
  2

 70
0
 40
1.0
 71
1
 41
1.0
 91
-1023410177
 42
1.0
 72
1
  3

 73
1
 74
1
 75
1
 44
0.5
 73
0
 45
1.0
 46
1.0
 77
1
  4

 78
1
 79
1
170
1
 48
1.0
171
1
  6

172
1
173
1
174
1
140
1.0
141
1.0
175
1
  7

176
1
177
1
178
1
143
1.0
179
1
  8

270
1
271
1
272
1
145
1.0
146
1.0
273
1
  9

274
1
275
1
276
1
 42
1.0
 72
1
  3

 73
1
 74
1
 75
1
 94
63
  0
MATERIAL
  5
20
102
{ACAD_REACTORS
330
E
102
}
330
E
100
AcDbMaterial
  1
ByLayer
  2

 70
0
 40
1.0
 71
1
 41
1.0
 91
-1023410177
 42
1.0
 72
1
  3

 73
1
 74
1
 75
1
 44
0.5
 73
0
 45
1.0
 46
1.0
 77
1
  4

 78
1
 79
1
170
1
 48
1.0
171
1
  6

172
1
173
1
174
1
140
1.0
141
1.0
175
1
  7

176
1
177
1
178
1
143
1.0
179
1
  8

270
1
271
1
272
1
145
1.0
146
1.0
273
1
  9

274
1
275
1
276
1
 42
1.0
 72
1
  3

 73
1
 74
1
 75
1
 94
63
  0
MATERIAL
  5
21
102
{ACAD_REACTORS
330
E
102
}
330
E
100
AcDbMaterial
  1
Global
  2

 70
0
 40
1.0
 71
1
 41
1.0
 91
-1023410177
 42
1.0
 72
1
  3

 73
1
 74
1
 75
1
 44
0.5
 73
0
 45
1.0
 46
1.0
 77
1
  4

 78
1
 79
1
170
1
 48
1.0
171
1
  6

172
1
173
1
174
1
140
1.0
141
1.0
175
1
  7

176
1
177
1
178
1
143
1.0
179
1
  8

270
1
271
1
272
1
145
1.0
146
1.0
273
1
  9

274
1
275
1
276
1
 42
1.0
 72
1
  3

 73
1
 74
1
 75
1
 94
63
  0
MLINESTYLE
  5
22
102
{ACAD_REACTORS
330
10
102
}
330
10
100
AcDbMlineStyle
  2
Standard
 70
0
  3

 62
256
 51
90.0
 52
90.0
 71
2
 49
0.5
 62
256
  6
BYLAYER
 49
-0.5
 62
256
  6
BYLAYER
  0
MLEADERSTYLE
  5
2C
102
{ACAD_REACTORS
330
F
102
}
330
F
100
AcDbMLeaderStyle
179
2
170
2
171
1
172
0
 90
2
 40
0.0
 41
0.0
173
1
 91
-1056964608
 92
-2
290
1
 42
2.0
291
1
 43
8.0
  3
Standard
 44
4.0
300

342
29
174
1
175
1
176
0
178
1
 93
-1056964608
 45
4.0
292
0
297
0
 46
4.0
 94
-1056964608
 47
1.0
 49
1.0
140
1.0
294
1
141
0.0
177
0
142
1.0
295
0
296
0
143
3.75
271
0
272
9
273
9
  0
DICTIONARY
  5
2D
330
A
100
AcDbDictionary
281
1
  3
CREATED_BY_EZDXF
350
2E
  3
WRITTEN_BY_EZDXF
350
B1
  0
DICTIONARYVAR
  5
2E
330
2D
100
DictionaryVariables
280
0
  1
1.3.0 @ 2026-01-06T17:07:15.663507+00:00
  0
VISUALSTYLE
  5
5A
102
{ACAD_REACTORS
330
16
102
}
330
16
100
AcDbVisualStyle
  2
2dWireframe
 70
4
 90
0
 40
0.6
 62
7
290
0
291
0
  0
VISUALSTYLE
  5
5B
102
{ACAD_REACTORS
330
16
102
}
330
16
100
AcDbVisualStyle
  2
Basic
 70
7
 90
1
 40
0.6
 62
7
290
0
291
1
  0
VISUALSTYLE
  5
5C
102
{ACAD_REACTORS
330
16
102
}
330
16
100
AcDbVisualStyle
  2
Brighten
 70
12
 90
2
 40
0.6
 62
7
290
0
291
1
  0
VISUALSTYLE
  5
5D
102
{ACAD_REACTORS
330
16
102
}
330
16
100
AcDbVisualStyle
  2
ColorChange
 70
16
 90
2
 40
0.6
 62
8
290
0
291
1
  0
VISUALSTYLE
  5
5E
102
{ACAD_REACTORS
330
16
102
}
330
16
100
AcDbVisualStyle
  2
Conceptual
 70
9
 90
3
 40
0.6
 62
7
290
0
291
0
  0
VISUALSTYLE
  5
5F
102
{ACAD_REACTORS
330
16
102
}
330
16
100
AcDbVisualStyle
  2
Dim
 70
11
 90
2
 40
0.6
 62
7
290
0
291
1
  0
VISUALSTYLE
  5
60
102
{ACAD_REACTORS
330
16
102
}
330
16
100
AcDbVisualStyle
  2
EdgeColorOff
 70
22
 90
2
 40
0.6
 62
7
290
0
291
1
  0
VISUALSTYLE
  5
61
102
{ACAD_REACTORS
330
16
102
}
330
16
100
AcDbVisualStyle
  2
Facepattern
 70
15
 90
2
 40
0.6
 62
7
290
0
291
1
  0
VISUALSTYLE
  5
62
102
{ACAD_REACTORS
330
16
102
}
330
16
100
AcDbVisualStyle
  2
Flat
 70
0
 90
2
 40
0.6
 62
7
290
0
291
1
  0
VISUALSTYLE
  5
63
102
{ACAD_REACTORS
330
16
102
}
330
16
100
AcDbVisualStyle
  2
FlatWithEdges
 70
1
 90
2
 40
0.6
 62
7
290
0
291
1
  0
VISUALSTYLE
  5
64
102
{ACAD_REACTORS
330
16
102
}
330
16
100
AcDbVisualStyle
  2
Gouraud
 70
2
 90
2
 40
0.6
 62
7
290
0
291
1
  0
VISUALSTYLE
  5
65
102
{ACAD_REACTORS
330
16
102
}
330
16
100
AcDbVisualStyle
  2
GouraudWithEdges
 70
3
 90
2
 40
0.6
 62
7
290
0
291
1
  0
VISUALSTYLE
  5
66
102
{ACAD_REACTORS
330
16
102
}
330
16
100
AcDbVisualStyle
  2
Hidden
 70
6
 90
1
 40
0.6
 62
7
290
0
291
0
  0
VISUALSTYLE
  5
67
102
{ACAD_REACTORS
330
16
102
}
330
16
100
AcDbVisualStyle
  2
JitterOff
 70
20
 90
2
 40
0.6
 62
7
290
0
291
1
  0
VISUALSTYLE
  5
68
102
{ACAD_REACTORS
330
16
102
}
330
16
100
AcDbVisualStyle
  2
Linepattern
 70
14
 90
2
 40
0.6
 62
7
290
0
291
1
  0
VISUALSTYLE
  5
69
102
{ACAD_REACTORS
330
16
102
}
330
16
100
AcDbVisualStyle
  2
Modeling
 70
10
 90
2
 40
0.6
 62
7
290
0
291
0
  0
VISUALSTYLE
  5
6A
102
{ACAD_REACTORS
330
16
102
}
330
16
100
AcDbVisualStyle
  2
OverhangOff
 70
21
 90
2
 40
0.6
 62
7
290
0
291
1
  0
VISUALSTYLE
  5
6B
102
{ACAD_REACTORS
330
16
102
}
330
16
100
AcDbVisualStyle
  2
Realistic
 70
8
 90
2
 40
0.6
 62
7
290
0
291
0
  0
VISUALSTYLE
  5
6C
102
{ACAD_REACTORS
330
16
102
}
330
16
100
AcDbVisualStyle
  2
Shaded
 70
27
 90
2
 40
0.6
 62
7
290
0
291
0
  0
VISUALSTYLE
  5
6D
102
{ACAD_REACTORS
330
16
102
}
330
16
100
AcDbVisualStyle
  2
Shaded with edges
 70
26
 90
2
 40
0.6
 62
7
290
0
291
0
  0
VISUALSTYLE
  5
6E
102
{ACAD_REACTORS
330
16
102
}
330
16
100
AcDbVisualStyle
  2
Shades of Gray
 70
23
 90
2
 40
0.6
 62
7
290
0
291
0
  0
VISUALSTYLE
  5
6F
102
{ACAD_REACTORS
330
16
102
}
330
16
100
AcDbVisualStyle
  2
Sketchy
 70
24
 90
1
 40
0.6
 62
7
290
0
291
0
  0
VISUALSTYLE
  5
70
102
{ACAD_REACTORS
330
16
102
}
330
16
100
AcDbVisualStyle
  2
Thicken
 70
13
 90
2
 40
0.6
 62
7
290
0
291
1
  0
VISUALSTYLE
  5
71
102
{ACAD_REACTORS
330
16
102
}
330
16
100
AcDbVisualStyle
  2
Wireframe
 70
5
 90
0
 40
0.6
 62
7
290
0
291
0
  0
VISUALSTYLE
  5
72
102
{ACAD_REACTORS
330
16
102
}
330
16
100
AcDbVisualStyle
  2
X-Ray
 70
25
 90
2
 40
0.5
 62
7
290
0
291
0
  0
DICTIONARYVAR
  5
B1
330
2D
100
DictionaryVariables
280
0
  1
1.3.0 @ 2026-01-06T17:07:15.794647+00:00
  0
ENDSEC
  0
EOF
