<?xml version="1.0" encoding="utf-8" standalone="no"?>
<!DOCTYPE svg PUBLIC "-//W3C//DTD SVG 1.1//EN"
  "http://www.w3.org/Graphics/SVG/1.1/DTD/svg11.dtd">
<svg xmlns:xlink="http://www.w3.org/1999/xlink" width="1152pt" height="321.001832pt" viewBox="0 0 1152 321.001832" xmlns="http://www.w3.org/2000/svg" version="1.1">
 <metadata>
  <rdf:RDF xmlns:dc="http://purl.org/dc/elements/1.1/" xmlns:cc="http://creativecommons.org/ns#" xmlns:rdf="http://www.w3.org/1999/02/22-rdf-syntax-ns#">
   <cc:Work>
    <dc:type rdf:resource="http://purl.org/dc/dcmitype/StillImage"/>
    <dc:date>2026-01-07T02:07:17.753369</dc:date>
    <dc:format>image/svg+xml</dc:format>
    <dc:creator>
     <cc:Agent>
      <dc:title>Matplotlib v3.10.1, https://matplotlib.org/</dc:title>
     </cc:Agent>
    </dc:creator>
   </cc:Work>
  </rdf:RDF>
 </metadata>
 <defs>
  <style type="text/css">*{stroke-linejoin: round; stroke-linecap: butt}</style>
 </defs>
 <g id="figure_1">
  <g id="patch_1">
   <path d="M 0 321.001832 
L 1152 321.001832 
L 1152 0 
L 0 0 
z
" style="fill: #ffffff"/>
  </g>
  <g id="axes_1">
   <g id="patch_2">
    <path d="M 0 321.001832 
L 1152 321.001832 
L 1152 0 
L 0 0 
z
" style="fill: #212830"/>
   </g>
   <g id="patch_3">
    <path d="M 1099.636362 265.820971 
L 1099.636364 40.948717 
L 1080.402344 38.278994 
L 1059.457402 35.548628 
L 1038.475019 32.986834 
L 1017.45935 30.58891 
L 996.419962 28.355494 
L 975.359289 26.289444 
L 954.274595 24.390358 
L 933.171478 22.654014 
L 912.064749 21.080533 
L 890.963758 19.674481 
L 869.868511 18.438586 
L 848.782855 17.370161 
L 827.720565 16.469648 
L 806.692284 15.741267 
L 785.697709 15.189852 
L 764.738183 14.813808 
L 743.826534 14.612633 
L 722.97393 14.590992 
L 702.18214 14.754084 
L 681.451714 15.101736 
L 660.79577 15.633004 
L 640.228008 16.352261 
L 619.75058 17.265824 
L 599.366774 18.373695 
L 579.091177 19.674734 
L 558.940051 21.173887 
L 538.916708 22.877839 
L 519.027933 24.785269 
L 499.29394 26.895287 
L 479.730348 29.214374 
L 460.342914 31.747088 
L 441.146244 34.490104 
L 422.164788 37.443904 
L 403.414184 40.613373 
L 384.907909 43.994994 
L 366.684545 47.574878 
L 348.790274 51.350877 
L 331.252967 55.325344 
L 314.103728 59.48397 
L 297.39861 63.806361 
L 281.187507 68.285433 
L 265.505042 72.907422 
L 250.399094 77.638847 
L 235.928373 82.449978 
L 222.132325 87.322509 
L 209.03694 92.224278 
L 196.672585 97.114396 
L 185.059574 101.966339 
L 174.194099 106.761274 
L 164.061026 111.471919 
L 154.643536 116.073735 
L 145.915473 120.558119 
L 137.837524 124.924909 
L 130.364251 129.169743 
L 123.453983 133.285368 
L 117.068687 137.272817 
L 111.168872 141.141093 
L 105.715031 144.899313 
L 100.669346 148.553333 
L 96.001025 152.105158 
L 91.684865 155.561567 
L 87.697416 158.934972 
L 84.009852 162.24226 
L 80.590491 165.489286 
L 74.439731 171.782993 
L 69.109931 177.73357 
L 66.755589 180.577836 
L 64.615004 183.355137 
L 62.686019 186.088744 
L 60.956132 188.801386 
L 59.408255 191.499171 
L 58.023969 194.178442 
L 56.791028 196.822113 
L 55.704279 199.416894 
L 54.765695 201.951354 
L 53.980561 204.424394 
L 53.352976 206.84384 
L 52.883168 209.217986 
L 52.566937 211.553555 
L 52.387648 214.065598 
L 52.363636 216.150968 
L 52.477325 218.461646 
L 52.751316 220.760929 
L 53.205462 223.038613 
L 53.865185 225.297581 
L 54.752885 227.54458 
L 55.877772 229.780239 
L 57.233474 231.997193 
L 58.804531 234.18167 
L 60.580308 236.320601 
L 62.559715 238.403795 
L 64.75257 240.427017 
L 67.168876 242.390422 
L 69.81498 244.29863 
L 72.688026 246.157493 
L 75.785498 247.973382 
L 79.104883 249.749418 
L 82.656017 251.486843 
L 86.453464 253.186122 
L 90.521067 254.849369 
L 94.882407 256.483113 
L 99.561042 258.097331 
L 104.582771 259.703002 
L 115.773082 262.922806 
L 122.022736 264.544587 
L 128.777986 266.177656 
L 136.097246 267.826995 
L 144.044584 269.497417 
L 152.687957 271.190819 
L 162.103923 272.904102 
L 172.374902 274.632045 
L 183.580072 276.372323 
L 195.785695 278.120972 
L 209.041949 279.864782 
L 223.381945 281.584789 
L 238.812403 283.2665 
L 255.297207 284.89778 
L 272.768175 286.457439 
L 291.146969 287.927621 
L 310.335856 289.303202 
L 330.22102 290.576811 
L 350.710125 291.739728 
L 371.724499 292.796271 
L 393.184144 293.751364 
L 437.29328 295.36614 
L 462.253396 296.158233 
L 462.130123 300.200659 
L 505.322343 301.457835 
L 551.279794 302.449066 
L 668.527041 304.379697 
L 715.60765 304.918365 
L 881.065754 306.410839 
L 1099.636362 265.820971 
L 1099.636362 265.820971 
" clip-path="url(#p713ed92494)" style="fill: none; stroke: #ff0000; stroke-width: 0.72; stroke-linejoin: miter"/>
   </g>
   <g id="patch_4">
    <path d="M 639.318907 237.574401 
L 639.318907 251.055419 
L 652.799925 251.055419 
L 652.799925 237.574401 
L 652.799925 264.536437 
" clip-path="url(#p713ed92494)" style="fill: none; stroke: #ff0000; stroke-width: 0.72; stroke-linejoin: miter"/>
   </g>
   <g id="patch_5">
    <path d="M 673.021453 237.574401 
L 667.629045 237.574401 
" clip-path="url(#p713ed92494)" style="fill: none; stroke: #ff0000; stroke-width: 0.72; stroke-linejoin: miter"/>
   </g>
   <g id="patch_6">
    <path d="M 664.932842 237.574401 
L 659.540434 237.574401 
L 659.540434 264.536437 
L 664.932842 264.536437 
" clip-path="url(#p713ed92494)" style="fill: none; stroke: #ff0000; stroke-width: 0.72; stroke-linejoin: miter"/>
   </g>
   <g id="patch_7">
    <path d="M 667.629045 264.536437 
L 673.021453 264.536437 
L 673.021453 251.055419 
L 667.629045 251.055419 
" clip-path="url(#p713ed92494)" style="fill: none; stroke: #ff0000; stroke-width: 0.72; stroke-linejoin: miter"/>
   </g>
   <g id="patch_8">
    <path d="M 664.932842 251.055419 
L 659.540434 251.055419 
" clip-path="url(#p713ed92494)" style="fill: none; stroke: #ff0000; stroke-width: 0.72; stroke-linejoin: miter"/>
   </g>
   <g id="patch_9">
    <path d="M 633.425143 27.451368 
L 622.65105 27.932135 
L 622.170283 17.158042 
L 632.944376 16.677275 
L 633.425143 27.451368 
" clip-path="url(#p713ed92494)" style="fill: none; stroke: #ff0000; stroke-width: 0.72; stroke-linejoin: miter"/>
   </g>
   <g id="patch_10">
    <path d="M 276.753263 80.836054 
L 266.40849 83.885299 
L 263.359245 73.540526 
L 273.704018 70.491281 
L 276.753263 80.836054 
" clip-path="url(#p713ed92494)" style="fill: none; stroke: #ff0000; stroke-width: 0.72; stroke-linejoin: miter"/>
   </g>
   <g id="patch_11">
    <path d="M 97.146551 168.568713 
L 93.133364 172.170434 
L 84.129063 162.137467 
L 88.14225 158.535747 
L 97.146551 168.568713 
" clip-path="url(#p713ed92494)" style="fill: none; stroke: #ff0000; stroke-width: 0.72; stroke-linejoin: miter"/>
   </g>
   <g id="patch_12">
    <path d="M 75.199399 231.56044 
L 79.578058 234.707725 
L 71.709846 245.654373 
L 67.331187 242.507088 
L 75.199399 231.56044 
" clip-path="url(#p713ed92494)" style="fill: none; stroke: #ff0000; stroke-width: 0.72; stroke-linejoin: miter"/>
   </g>
   <g id="patch_13">
    <path d="M 352.916925 281.052237 
L 363.688137 281.593749 
L 363.146625 292.36496 
L 352.375414 291.823448 
L 352.916925 281.052237 
" clip-path="url(#p713ed92494)" style="fill: none; stroke: #ff0000; stroke-width: 0.72; stroke-linejoin: miter"/>
   </g>
   <g id="patch_14">
    <path d="M 956.174842 159.918834 
L 956.079808 155.117744 
L 955.794873 150.325133 
L 955.320542 145.549466 
L 954.657651 140.799176 
L 953.807371 136.082654 
L 952.771205 131.408228 
L 951.550981 126.784155 
L 950.148856 122.2186 
L 948.567305 117.719628 
L 946.809121 113.295183 
L 944.87741 108.95308 
L 942.775583 104.700988 
L 940.507352 100.546415 
L 938.076723 96.496699 
L 935.487989 92.558993 
L 932.745722 88.74025 
L 929.854765 85.047215 
L 926.820223 81.486411 
L 923.647456 78.064125 
L 920.342067 74.786402 
L 916.909895 71.659032 
L 913.356999 68.687536 
L 909.689656 65.877163 
L 905.914341 63.232876 
L 902.037723 60.759346 
L 898.066648 58.46094 
L 894.00813 56.341718 
L 889.869335 54.405424 
L 885.657574 52.655475 
L 881.380285 51.094964 
L 877.045022 49.726645 
L 872.659441 48.552937 
L 868.231288 47.57591 
L 863.768383 46.797292 
L 859.278608 46.218457 
L 854.769893 45.840427 
L 850.250201 45.66387 
L 845.727513 45.689098 
L 841.209816 45.916066 
L 836.705091 46.344374 
L 832.221292 46.973265 
L 827.766339 47.801628 
L 823.348098 48.828 
L 818.974374 50.050569 
L 814.65289 51.467175 
L 810.391279 53.075318 
L 806.197067 54.872155 
L 802.077661 56.854515 
L 798.040337 59.018896 
L 794.092226 61.361476 
L 790.240299 63.878117 
L 786.491359 66.564374 
L 782.852028 69.415505 
L 779.328733 72.426472 
L 775.927697 75.591959 
L 772.654925 78.906376 
L 769.516198 82.363867 
L 766.51706 85.958328 
L 763.662807 89.68341 
L 760.958479 93.532534 
L 758.408854 97.498903 
L 756.018433 101.575511 
L 753.791439 105.755159 
L 751.731805 110.030464 
L 749.843167 114.393878 
L 748.128863 118.837692 
L 746.591919 123.35406 
L 745.235049 127.935004 
L 744.06065 132.572435 
L 743.070797 137.258162 
L 742.267236 141.98391 
L 741.651389 146.741332 
L 741.224341 151.522028 
L 740.986848 156.317552 
L 740.939328 161.119437 
L 741.081866 165.919202 
L 741.41421 170.708369 
L 741.935773 175.478481 
L 742.645634 180.221114 
L 743.542538 184.92789 
L 744.624903 189.590499 
L 745.890817 194.200704 
L 747.338044 198.750365 
L 748.964027 203.231445 
L 750.765896 207.636031 
L 752.740468 211.956345 
L 754.884255 216.184755 
L 757.193472 220.313794 
L 759.664041 224.336171 
L 762.291597 228.24478 
L 765.071501 232.03272 
L 767.998844 235.693299 
L 771.068454 239.220054 
L 774.274911 242.606756 
L 777.612552 245.847423 
L 781.075482 248.936333 
L 784.657586 251.868029 
L 788.352537 254.637334 
L 792.15381 257.239358 
L 796.05469 259.669505 
L 800.04829 261.923483 
L 804.127555 263.997311 
L 808.285282 265.887327 
L 812.514127 267.590193 
L 816.806622 269.102901 
L 821.155187 270.42278 
L 825.55214 271.547499 
L 829.989717 272.475072 
L 834.46008 273.203859 
L 838.955334 273.732575 
L 843.467541 274.060286 
L 847.988732 274.186412 
L 852.510921 274.11073 
L 857.026121 273.833376 
L 861.52636 273.354838 
L 866.003688 272.675961 
L 870.450199 271.797945 
L 874.858039 270.72234 
L 879.219424 269.451046 
L 883.526651 267.986307 
L 887.772113 266.330712 
L 891.948313 264.487183 
L 896.047875 262.458977 
L 900.063558 260.249676 
L 903.988271 257.863181 
L 907.815082 255.303707 
L 911.537233 252.575775 
L 915.14815 249.684202 
L 918.641455 246.634096 
L 922.01098 243.430842 
L 925.250773 240.080098 
L 928.355113 236.587782 
L 931.318517 232.960061 
L 934.135751 229.203343 
L 936.80184 225.324262 
L 939.312076 221.329669 
L 941.662024 217.226619 
L 943.847536 213.022358 
L 945.86475 208.724311 
L 947.710105 204.340069 
L 949.380341 199.877375 
L 950.872509 195.344111 
L 952.183973 190.748283 
L 953.312417 186.098006 
L 954.255849 181.401495 
L 955.012601 176.667044 
L 955.581338 171.903014 
L 955.961054 167.117818 
L 956.15108 162.319909 
L 956.174842 159.918834 
L 956.174842 159.918834 
" clip-path="url(#p713ed92494)" style="fill: none; stroke: #ff0000; stroke-width: 0.72; stroke-linejoin: miter"/>
   </g>
   <g id="patch_15">
    <path d="M 399.055104 146.437815 
L 412.536122 159.918834 
L 399.055104 173.399852 
L 385.574086 159.918834 
L 399.055104 146.437815 
" clip-path="url(#p713ed92494)" style="fill: none; stroke: #ff0000; stroke-width: 0.72; stroke-linejoin: miter"/>
   </g>
   <g id="patch_16">
    <path d="M 841.44913 146.437815 
L 854.930148 159.918834 
L 841.44913 173.399852 
L 827.968112 159.918834 
L 841.44913 146.437815 
" clip-path="url(#p713ed92494)" style="fill: none; stroke: #ff0000; stroke-width: 0.72; stroke-linejoin: miter"/>
   </g>
   <g id="patch_17">
    <path d="M 262.45108 212.043566 
L 275.039037 226.362053 
L 260.72055 238.950009 
L 248.132594 224.631522 
L 262.45108 212.043566 
" clip-path="url(#p713ed92494)" style="fill: none; stroke: #ff0000; stroke-width: 0.72; stroke-linejoin: miter"/>
   </g>
   <g id="patch_18">
    <path d="M 501.907583 227.44459 
L 514.495539 241.763076 
L 500.177053 254.351033 
L 487.589096 240.032546 
L 501.907583 227.44459 
" clip-path="url(#p713ed92494)" style="fill: none; stroke: #ff0000; stroke-width: 0.72; stroke-linejoin: miter"/>
   </g>
   <g id="patch_19">
    <path d="M 430.642549 198.794501 
L 444.123567 185.313483 
L 457.604585 198.794501 
L 444.123567 212.27552 
L 430.642549 198.794501 
" clip-path="url(#p713ed92494)" style="fill: none; stroke: #ff0000; stroke-width: 0.72; stroke-linejoin: miter"/>
   </g>
   <g id="patch_20">
    <path d="M 430.642549 130.853961 
L 444.123567 117.372943 
L 457.604585 130.853961 
L 444.123567 144.334979 
L 430.642549 130.853961 
" clip-path="url(#p713ed92494)" style="fill: none; stroke: #ff0000; stroke-width: 0.72; stroke-linejoin: miter"/>
   </g>
   <g id="line2d_1">
    <path d="M 86.600429 159.918834 
L 1099.636364 159.918834 
" clip-path="url(#p713ed92494)" style="fill: none; stroke: #ffffff; stroke-width: 0.72; stroke-linecap: square"/>
   </g>
   <g id="line2d_2">
    <path d="M 382.877882 159.918834 
L 415.232326 159.918834 
" clip-path="url(#p713ed92494)" style="fill: none; stroke: #ffffff; stroke-width: 0.72; stroke-linecap: square"/>
   </g>
   <g id="line2d_3">
    <path d="M 825.271908 159.918834 
L 857.626352 159.918834 
" clip-path="url(#p713ed92494)" style="fill: none; stroke: #ffffff; stroke-width: 0.72; stroke-linecap: square"/>
   </g>
   <g id="line2d_4">
    <path d="M 52.531425 212.051124 
L 1045.335811 275.904908 
" clip-path="url(#p713ed92494)" style="fill: none; stroke: #ffffff; stroke-width: 0.72; stroke-linecap: square"/>
   </g>
   <g id="line2d_5">
    <path d="M 245.441949 224.458469 
L 277.729681 226.535106 
" clip-path="url(#p713ed92494)" style="fill: none; stroke: #ffffff; stroke-width: 0.72; stroke-linecap: square"/>
   </g>
   <g id="line2d_6">
    <path d="M 484.898452 239.859493 
L 517.186184 241.936129 
" clip-path="url(#p713ed92494)" style="fill: none; stroke: #ffffff; stroke-width: 0.72; stroke-linecap: square"/>
   </g>
   <g id="line2d_7">
    <path d="M 848.554115 45.649679 
L 848.554115 42.953475 
" clip-path="url(#p713ed92494)" style="fill: none; stroke: #ff0000; stroke-width: 0.72; stroke-linecap: square"/>
   </g>
   <g id="line2d_8">
    <path d="M 848.554115 274.187988 
L 848.554115 276.884192 
" clip-path="url(#p713ed92494)" style="fill: none; stroke: #ff0000; stroke-width: 0.72; stroke-linecap: square"/>
   </g>
   <g id="line2d_9">
    <path d="M 956.174842 159.918834 
L 958.871045 159.918834 
" clip-path="url(#p713ed92494)" style="fill: none; stroke: #ff0000; stroke-width: 0.72; stroke-linecap: square"/>
   </g>
   <g id="line2d_10">
    <path d="M 740.933388 159.918834 
L 738.237184 159.918834 
" clip-path="url(#p713ed92494)" style="fill: none; stroke: #ff0000; stroke-width: 0.72; stroke-linecap: square"/>
   </g>
   <g id="line2d_11">
    <path d="M 444.123567 295.583789 
L 444.123567 34.064673 
" clip-path="url(#p713ed92494)" style="fill: none; stroke: #ffffff; stroke-width: 0.72; stroke-linecap: square"/>
   </g>
   <g id="line2d_12">
    <path d="M 444.123567 214.971723 
L 444.123567 182.617279 
" clip-path="url(#p713ed92494)" style="fill: none; stroke: #ffffff; stroke-width: 0.72; stroke-linecap: square"/>
   </g>
   <g id="line2d_13">
    <path d="M 444.123567 147.031183 
L 444.123567 114.676739 
" clip-path="url(#p713ed92494)" style="fill: none; stroke: #ffffff; stroke-width: 0.72; stroke-linecap: square"/>
   </g>
  </g>
 </g>
 <defs>
  <clipPath id="p713ed92494">
   <rect x="0" y="0" width="1152" height="321.001832"/>
  </clipPath>
 </defs>
</svg>
