<?xml version="1.0" encoding="utf-8" standalone="no"?>
<!DOCTYPE svg PUBLIC "-//W3C//DTD SVG 1.1//EN"
  "http://www.w3.org/Graphics/SVG/1.1/DTD/svg11.dtd">
<svg xmlns:xlink="http://www.w3.org/1999/xlink" width="1152pt" height="320.168082pt" viewBox="0 0 1152 320.168082" xmlns="http://www.w3.org/2000/svg" version="1.1">
 <metadata>
  <rdf:RDF xmlns:dc="http://purl.org/dc/elements/1.1/" xmlns:cc="http://creativecommons.org/ns#" xmlns:rdf="http://www.w3.org/1999/02/22-rdf-syntax-ns#">
   <cc:Work>
    <dc:type rdf:resource="http://purl.org/dc/dcmitype/StillImage"/>
    <dc:date>2026-01-07T02:07:20.608456</dc:date>
    <dc:format>image/svg+xml</dc:format>
    <dc:creator>
     <cc:Agent>
      <dc:title>Matplotlib v3.10.1, https://matplotlib.org/</dc:title>
     </cc:Agent>
    </dc:creator>
   </cc:Work>
  </rdf:RDF>
 </metadata>
 <defs>
  <style type="text/css">*{stroke-linejoin: round; stroke-linecap: butt}</style>
 </defs>
 <g id="figure_1">
  <g id="patch_1">
   <path d="M 0 320.168082 
L 1152 320.168082 
L 1152 0 
L 0 0 
z
" style="fill: #ffffff"/>
  </g>
  <g id="axes_1">
   <g id="patch_2">
    <path d="M 0 320.168082 
L 1152 320.168082 
L 1152 0 
L 0 0 
z
" style="fill: #212830"/>
   </g>
   <g id="patch_3">
    <path d="M 1099.636364 40.938184 
L 1080.286106 38.252302 
L 1059.331794 35.520687 
L 1038.339819 32.957698 
L 1017.314516 30.55865 
L 996.265574 28.324195 
L 975.195327 26.25718 
L 954.100867 24.357191 
L 932.987937 22.620017 
L 911.871545 21.04579 
L 890.76101 19.639077 
L 869.656129 18.402593 
L 848.560853 17.333656 
L 827.489126 16.432713 
L 806.451639 15.703986 
L 785.447849 15.152302 
L 764.479136 14.776065 
L 743.558544 14.574775 
L 722.697276 14.553095 
L 701.896901 14.716222 
L 681.157952 15.063986 
L 660.493773 15.595432 
L 639.918143 16.314927 
L 619.432979 17.228798 
L 599.041558 18.337045 
L 578.758733 19.638507 
L 558.600825 21.138119 
L 538.570853 22.842591 
L 518.67569 24.750586 
L 498.935857 26.861176 
L 479.366883 29.180845 
L 459.974277 31.714177 
L 440.77289 34.457805 
L 421.787343 37.412174 
L 403.032962 40.58221 
L 384.523038 43.964427 
L 366.296789 47.544799 
L 348.400543 51.321126 
L 330.861599 55.295871 
L 313.711166 59.454692 
L 297.005967 63.776995 
L 280.795592 68.255746 
L 265.114109 72.877328 
L 250.009892 77.608084 
L 235.542112 82.418094 
L 221.749516 87.28926 
L 208.657865 92.189487 
L 196.29819 97.077598 
L 184.690815 101.927018 
L 173.831215 106.719194 
L 163.704306 111.426809 
L 154.293901 116.024985 
L 145.573893 120.505034 
L 137.504327 124.867093 
L 130.039476 129.106949 
L 123.138189 133.21702 
L 116.762784 137.198061 
L 110.873597 141.059116 
L 105.430721 144.809514 
L 100.396204 148.45517 
L 95.739823 151.997599 
L 91.436831 155.443088 
L 87.463557 158.804061 
L 83.789671 162.098643 
L 80.382494 165.333719 
L 74.250971 171.607197 
L 68.943103 177.532424 
L 66.604251 180.357184 
L 64.481859 183.109663 
L 62.57195 185.814653 
L 60.859752 188.497867 
L 59.327203 191.167331 
L 57.955911 193.819966 
L 55.659367 199.002508 
L 54.732248 201.503229 
L 53.958224 203.937145 
L 53.340334 206.313291 
L 52.87789 208.641965 
L 52.566222 210.932087 
L 52.38717 213.440529 
L 52.363636 215.434793 
L 52.47248 217.691843 
L 52.736481 219.931168 
L 53.174037 222.143535 
L 53.810433 224.336224 
L 54.669862 226.521342 
L 55.764117 228.702713 
L 57.088429 230.872938 
L 58.627258 233.016152 
L 60.36935 235.117519 
L 62.313475 237.166248 
L 64.470814 239.158956 
L 66.853234 241.096599 
L 69.468735 242.984031 
L 72.3146 244.82625 
L 75.387725 246.628584 
L 78.684241 248.39299 
L 82.21366 250.120321 
L 85.990432 251.810818 
L 90.039359 253.466813 
L 94.384631 255.09483 
L 99.049815 256.704626 
L 104.060395 258.306897 
L 115.23204 261.521579 
L 121.473641 263.141385 
L 128.222044 264.772898 
L 135.535674 266.421052 
L 143.478408 268.090583 
L 152.117841 269.783286 
L 161.530556 271.496049 
L 171.79946 273.223707 
L 183.00387 274.963922 
L 195.209686 276.712651 
L 208.466973 278.45665 
L 222.809277 280.17698 
L 238.243551 281.859145 
L 254.733207 283.490943 
L 272.210067 285.051161 
L 290.596177 286.521955 
L 309.793499 287.898164 
L 329.687886 289.172385 
L 350.187295 290.335902 
L 371.212921 291.393025 
L 392.684293 292.348652 
L 436.821006 293.964444 
L 461.798786 294.757098 
L 461.70054 297.978847 
L 504.914145 299.236668 
L 550.895549 300.228429 
L 668.223685 302.160403 
L 715.334148 302.699416 
L 905.813633 304.362892 
L 1000.741529 305.023668 
L 1099.636364 305.614988 
L 1099.636364 40.938184 
L 1099.636364 40.938184 
" clip-path="url(#p5a9a9653ea)" style="fill: none; stroke: #ff0000; stroke-width: 0.72; stroke-linejoin: miter"/>
   </g>
   <g id="patch_4">
    <path d="M 655.089489 231.666247 
L 638.973253 231.666247 
L 638.973253 247.782484 
L 655.089489 247.782484 
L 655.089489 263.89872 
L 638.973253 263.89872 
" clip-path="url(#p5a9a9653ea)" style="fill: none; stroke: #ff0000; stroke-width: 0.72; stroke-linejoin: miter"/>
   </g>
   <g id="patch_5">
    <path d="M 679.263844 231.666247 
L 663.147608 231.666247 
L 663.147608 247.782484 
L 679.263844 247.782484 
L 679.263844 263.89872 
L 663.147608 263.89872 
" clip-path="url(#p5a9a9653ea)" style="fill: none; stroke: #ff0000; stroke-width: 0.72; stroke-linejoin: miter"/>
   </g>
   <g id="patch_6">
    <path d="M 634.252782 29.473549 
L 621.37261 30.048294 
L 620.797864 17.168122 
L 633.678036 16.593376 
L 634.252782 29.473549 
" clip-path="url(#p5a9a9653ea)" style="fill: none; stroke: #ff0000; stroke-width: 0.72; stroke-linejoin: miter"/>
   </g>
   <g id="patch_7">
    <path d="M 277.958979 82.533298 
L 265.592049 86.178598 
L 261.946749 73.811668 
L 274.313679 70.166368 
L 277.958979 82.533298 
" clip-path="url(#p5a9a9653ea)" style="fill: none; stroke: #ff0000; stroke-width: 0.72; stroke-linejoin: miter"/>
   </g>
   <g id="patch_8">
    <path d="M 99.063887 170.048035 
L 94.266218 174.353806 
L 83.50179 162.359633 
L 88.299459 158.053862 
L 99.063887 170.048035 
" clip-path="url(#p5a9a9653ea)" style="fill: none; stroke: #ff0000; stroke-width: 0.72; stroke-linejoin: miter"/>
   </g>
   <g id="patch_9">
    <path d="M 75.995609 227.820468 
L 81.230192 231.582971 
L 71.823932 244.669429 
L 66.589349 240.906925 
L 75.995609 227.820468 
" clip-path="url(#p5a9a9653ea)" style="fill: none; stroke: #ff0000; stroke-width: 0.72; stroke-linejoin: miter"/>
   </g>
   <g id="patch_10">
    <path d="M 351.452486 277.490236 
L 364.329212 278.137601 
L 363.681848 291.014327 
L 350.805121 290.366963 
L 351.452486 277.490236 
" clip-path="url(#p5a9a9653ea)" style="fill: none; stroke: #ff0000; stroke-width: 0.72; stroke-linejoin: miter"/>
   </g>
   <g id="patch_11">
    <path d="M 958.310176 159.202559 
L 958.213089 154.294829 
L 957.922002 149.395767 
L 957.437429 144.514024 
L 956.760224 139.658223 
L 955.891584 134.836938 
L 954.833044 130.058686 
L 953.586472 125.331905 
L 952.15407 120.664942 
L 950.538368 116.06604 
L 948.742219 111.543321 
L 946.768797 107.104773 
L 944.621584 102.758235 
L 942.304375 98.511382 
L 939.821262 94.371715 
L 937.176629 90.346546 
L 934.375147 86.442983 
L 931.421765 82.66792 
L 928.321698 79.028024 
L 925.080421 75.529724 
L 921.703658 72.179198 
L 918.197374 68.982363 
L 914.56776 65.944865 
L 910.821227 63.072069 
L 906.964392 60.369049 
L 903.004065 57.840577 
L 898.947242 55.49112 
L 894.801087 53.324827 
L 890.572923 51.345524 
L 886.270217 49.556707 
L 881.900567 47.961534 
L 877.471692 46.562823 
L 872.991413 45.363044 
L 868.467642 44.364317 
L 863.908369 43.568404 
L 859.321646 42.976712 
L 854.715573 42.590285 
L 850.098286 42.409807 
L 845.477939 42.435595 
L 840.862691 42.667605 
L 836.260694 43.105426 
L 831.680076 43.748285 
L 827.128926 44.595047 
L 822.615282 45.644217 
L 818.147115 46.893941 
L 813.732316 48.342013 
L 809.378684 49.985875 
L 805.093905 51.822623 
L 800.885549 53.849014 
L 796.761046 56.061469 
L 792.727682 58.456082 
L 788.79258 61.028621 
L 784.962689 63.774545 
L 781.244773 66.689004 
L 777.645399 69.76685 
L 774.170923 73.002647 
L 770.827482 76.390682 
L 767.62098 79.92497 
L 764.557081 83.59927 
L 761.641196 87.407092 
L 758.878473 91.341712 
L 756.273793 95.39618 
L 753.831756 99.563336 
L 751.556674 103.835821 
L 749.452565 108.206088 
L 747.523147 112.66642 
L 745.771825 117.208938 
L 744.201693 121.825622 
L 742.815524 126.508316 
L 741.615766 131.248752 
L 740.604539 136.038557 
L 739.783627 140.869271 
L 739.154481 145.732364 
L 738.718212 150.619246 
L 738.475591 155.521287 
L 738.427045 160.42983 
L 738.572661 165.336205 
L 738.912181 170.231748 
L 739.445006 175.107812 
L 740.170195 179.955786 
L 741.086467 184.767107 
L 742.192204 189.53328 
L 743.485452 194.245885 
L 744.963929 198.896601 
L 746.625023 203.477214 
L 748.4658 207.979633 
L 750.483009 212.395908 
L 752.673087 216.718238 
L 755.032168 220.93899 
L 757.556084 225.05071 
L 760.240377 229.046136 
L 763.080309 232.918212 
L 766.070861 236.660099 
L 769.206754 240.265189 
L 772.482449 243.727115 
L 775.89216 247.039762 
L 779.429866 250.197281 
L 783.089319 253.194095 
L 786.864056 256.024911 
L 790.74741 258.68473 
L 794.732523 261.168855 
L 798.812357 263.472897 
L 802.979706 265.592788 
L 807.227212 267.524785 
L 811.547371 269.265474 
L 815.932555 270.811782 
L 820.375018 272.160978 
L 824.866916 273.310679 
L 829.400314 274.258854 
L 833.967206 275.003829 
L 838.559528 275.544289 
L 843.169168 275.879278 
L 847.787985 276.008206 
L 852.407822 275.930844 
L 857.02052 275.647328 
L 861.617933 275.158161 
L 866.191941 274.464206 
L 870.734466 273.566687 
L 875.237485 272.467191 
L 879.693046 271.167659 
L 884.09328 269.670387 
L 888.430416 267.978018 
L 892.696793 266.093542 
L 896.884877 264.020286 
L 900.987272 261.761912 
L 904.996732 259.32241 
L 908.906176 256.706086 
L 912.7087 253.917562 
L 916.397588 250.961762 
L 919.966325 247.843908 
L 923.408608 244.569504 
L 926.718359 241.144335 
L 929.889731 237.574449 
L 932.917124 233.866151 
L 935.795191 230.02599 
L 938.51885 226.060748 
L 941.083289 221.977429 
L 943.483981 217.783243 
L 945.716684 213.485599 
L 947.777457 209.092085 
L 949.662659 204.610462 
L 951.368961 200.048645 
L 952.893349 195.414689 
L 954.233132 190.71678 
L 955.385942 185.963214 
L 956.349745 181.162385 
L 957.122838 176.322774 
L 957.703856 171.452927 
L 958.091772 166.561444 
L 958.285901 161.656966 
L 958.310176 159.202559 
L 958.310176 159.202559 
" clip-path="url(#p5a9a9653ea)" style="fill: none; stroke: #ff0000; stroke-width: 0.72; stroke-linejoin: miter"/>
   </g>
   <g id="patch_12">
    <path d="M 401.013235 143.086322 
L 417.129471 159.202559 
L 401.013235 175.318795 
L 384.896998 159.202559 
L 401.013235 143.086322 
" clip-path="url(#p5a9a9653ea)" style="fill: none; stroke: #ff0000; stroke-width: 0.72; stroke-linejoin: miter"/>
   </g>
   <g id="patch_13">
    <path d="M 840.577656 143.086322 
L 856.693893 159.202559 
L 840.577656 175.318795 
L 824.46142 159.202559 
L 840.577656 143.086322 
" clip-path="url(#p5a9a9653ea)" style="fill: none; stroke: #ff0000; stroke-width: 0.72; stroke-linejoin: miter"/>
   </g>
   <g id="patch_14">
    <path d="M 482.456317 222.92633 
L 497.504919 240.04374 
L 480.387509 255.092342 
L 465.338907 237.974932 
L 482.456317 222.92633 
" clip-path="url(#p5a9a9653ea)" style="fill: none; stroke: #ff0000; stroke-width: 0.72; stroke-linejoin: miter"/>
   </g>
   <g id="patch_15">
    <path d="M 992.434985 255.726414 
L 1007.483587 272.843824 
L 990.366177 287.892427 
L 975.317575 270.775016 
L 992.434985 255.726414 
" clip-path="url(#p5a9a9653ea)" style="fill: none; stroke: #ff0000; stroke-width: 0.72; stroke-linejoin: miter"/>
   </g>
   <g id="patch_16">
    <path d="M 348.762245 199.658548 
L 364.878481 183.542312 
L 380.994718 199.658548 
L 364.878481 215.774785 
L 348.762245 199.658548 
" clip-path="url(#p5a9a9653ea)" style="fill: none; stroke: #ff0000; stroke-width: 0.72; stroke-linejoin: miter"/>
   </g>
   <g id="patch_17">
    <path d="M 348.762245 139.260074 
L 364.878481 123.143837 
L 380.994718 139.260074 
L 364.878481 155.37631 
L 348.762245 139.260074 
" clip-path="url(#p5a9a9653ea)" style="fill: none; stroke: #ff0000; stroke-width: 0.72; stroke-linejoin: miter"/>
   </g>
   <g id="line2d_1">
    <path d="M 87.01918 159.202559 
L 1099.636364 159.202559 
" clip-path="url(#p5a9a9653ea)" style="fill: none; stroke: #ffffff; stroke-width: 0.72; stroke-linecap: square"/>
   </g>
   <g id="line2d_2">
    <path d="M 381.673751 159.202559 
L 420.352719 159.202559 
" clip-path="url(#p5a9a9653ea)" style="fill: none; stroke: #ffffff; stroke-width: 0.72; stroke-linecap: square"/>
   </g>
   <g id="line2d_3">
    <path d="M 821.238172 159.202559 
L 859.91714 159.202559 
" clip-path="url(#p5a9a9653ea)" style="fill: none; stroke: #ffffff; stroke-width: 0.72; stroke-linecap: square"/>
   </g>
   <g id="line2d_4">
    <path d="M 52.53107 211.424543 
L 1099.636364 278.770776 
" clip-path="url(#p5a9a9653ea)" style="fill: none; stroke: #ffffff; stroke-width: 0.72; stroke-linecap: square"/>
   </g>
   <g id="line2d_5">
    <path d="M 462.122305 237.768051 
L 500.72152 240.250621 
" clip-path="url(#p5a9a9653ea)" style="fill: none; stroke: #ffffff; stroke-width: 0.72; stroke-linecap: square"/>
   </g>
   <g id="line2d_6">
    <path d="M 972.100973 270.568136 
L 1010.700188 273.050705 
" clip-path="url(#p5a9a9653ea)" style="fill: none; stroke: #ffffff; stroke-width: 0.72; stroke-linecap: square"/>
   </g>
   <g id="line2d_7">
    <path d="M 848.365576 42.3953 
L 848.365576 39.172053 
" clip-path="url(#p5a9a9653ea)" style="fill: none; stroke: #ff0000; stroke-width: 0.72; stroke-linecap: square"/>
   </g>
   <g id="line2d_8">
    <path d="M 848.365576 276.009818 
L 848.365576 279.233065 
" clip-path="url(#p5a9a9653ea)" style="fill: none; stroke: #ff0000; stroke-width: 0.72; stroke-linecap: square"/>
   </g>
   <g id="line2d_9">
    <path d="M 958.310176 159.202559 
L 961.533423 159.202559 
" clip-path="url(#p5a9a9653ea)" style="fill: none; stroke: #ff0000; stroke-width: 0.72; stroke-linecap: square"/>
   </g>
   <g id="line2d_10">
    <path d="M 738.420976 159.202559 
L 735.197729 159.202559 
" clip-path="url(#p5a9a9653ea)" style="fill: none; stroke: #ff0000; stroke-width: 0.72; stroke-linecap: square"/>
   </g>
   <g id="line2d_11">
    <path d="M 364.878481 291.074543 
L 364.878481 47.844079 
" clip-path="url(#p5a9a9653ea)" style="fill: none; stroke: #ffffff; stroke-width: 0.72; stroke-linecap: square"/>
   </g>
   <g id="line2d_12">
    <path d="M 364.878481 218.998032 
L 364.878481 180.319065 
" clip-path="url(#p5a9a9653ea)" style="fill: none; stroke: #ffffff; stroke-width: 0.72; stroke-linecap: square"/>
   </g>
   <g id="line2d_13">
    <path d="M 364.878481 158.599557 
L 364.878481 119.92059 
" clip-path="url(#p5a9a9653ea)" style="fill: none; stroke: #ffffff; stroke-width: 0.72; stroke-linecap: square"/>
   </g>
  </g>
 </g>
 <defs>
  <clipPath id="p5a9a9653ea">
   <rect x="0" y="0" width="1152" height="320.168082"/>
  </clipPath>
 </defs>
</svg>
