<?xml version="1.0" encoding="utf-8" standalone="no"?>
<!DOCTYPE svg PUBLIC "-//W3C//DTD SVG 1.1//EN"
  "http://www.w3.org/Graphics/SVG/1.1/DTD/svg11.dtd">
<svg xmlns:xlink="http://www.w3.org/1999/xlink" width="1152pt" height="342.949244pt" viewBox="0 0 1152 342.949244" xmlns="http://www.w3.org/2000/svg" version="1.1">
 <metadata>
  <rdf:RDF xmlns:dc="http://purl.org/dc/elements/1.1/" xmlns:cc="http://creativecommons.org/ns#" xmlns:rdf="http://www.w3.org/1999/02/22-rdf-syntax-ns#">
   <cc:Work>
    <dc:type rdf:resource="http://purl.org/dc/dcmitype/StillImage"/>
    <dc:date>2026-01-07T02:07:08.478899</dc:date>
    <dc:format>image/svg+xml</dc:format>
    <dc:creator>
     <cc:Agent>
      <dc:title>Matplotlib v3.10.1, https://matplotlib.org/</dc:title>
     </cc:Agent>
    </dc:creator>
   </cc:Work>
  </rdf:RDF>
 </metadata>
 <defs>
  <style type="text/css">*{stroke-linejoin: round; stroke-linecap: butt}</style>
 </defs>
 <g id="figure_1">
  <g id="patch_1">
   <path d="M 0 342.949244 
L 1152 342.949244 
L 1152 0 
L 0 0 
z
" style="fill: #ffffff"/>
  </g>
  <g id="axes_1">
   <g id="patch_2">
    <path d="M 0 342.949244 
L 1152 342.949244 
L 1152 0 
L 0 0 
z
" style="fill: #212830"/>
   </g>
   <g id="patch_3">
    <path d="M 1099.226906 325.338965 
L 1097.467507 324.700756 
L 1094.129085 323.491263 
L 1089.919676 321.974351 
L 1084.862972 320.172358 
L 1078.963226 318.095683 
L 1072.252693 315.73932 
L 1064.77788 313.112691 
L 1056.588603 310.227724 
L 1047.730469 307.100627 
L 1038.242205 303.753718 
L 1028.144979 300.205515 
L 1017.451338 296.467787 
L 1006.175645 292.54145 
L 994.335019 288.426559 
L 981.952641 284.126684 
L 969.053236 279.647745 
L 955.659578 274.998001 
L 941.789425 270.184954 
L 927.459491 265.213388 
L 912.687458 260.088067 
L 897.488447 254.815816 
L 881.875059 249.403081 
L 865.860516 243.854286 
L 849.460488 238.174905 
L 832.689618 232.372145 
L 815.560399 226.454049 
L 798.084963 220.426435 
L 780.277677 214.294888 
L 762.151515 208.067049 
L 743.717407 201.750377 
L 724.988659 195.348633 
L 705.98294 188.869987 
L 686.712975 182.328845 
L 667.180862 175.735069 
L 647.394737 169.0839 
L 627.381319 162.372976 
L 607.170197 155.619482 
L 586.772288 148.846631 
L 581.607897 147.14405 
L 580.986452 149.029061 
L 565.575125 143.948296 
L 544.84294 137.156585 
L 523.98614 130.380306 
L 503.011539 123.65435 
L 481.910659 116.995917 
L 460.691393 110.408339 
L 439.375844 103.908603 
L 417.964993 97.527274 
L 396.441188 91.275877 
L 374.805211 85.146365 
L 353.082102 79.142695 
L 331.282521 73.2884 
L 309.393897 67.595889 
L 287.420929 62.055746 
L 265.397976 56.673721 
L 243.343234 51.490029 
L 221.225534 46.540645 
L 199.001172 41.817014 
L 176.665535 37.282354 
L 154.252028 32.915386 
L 131.793487 28.723038 
L 109.307769 24.722189 
L 86.803144 20.928201 
L 64.277677 17.355954 
L 52.363636 15.588602 
L 52.363636 292.461669 
L 76.113446 292.53786 
L 103.092774 292.642275 
L 130.046496 292.785996 
L 156.936254 292.949771 
L 183.754414 293.109871 
L 210.504153 293.273226 
L 237.156619 293.45799 
L 263.668525 293.654001 
L 290.025944 293.828751 
L 316.249786 293.96957 
L 342.352972 294.099931 
L 368.314114 294.25297 
L 394.116736 294.441545 
L 419.750925 294.665844 
L 445.198089 294.934154 
L 470.41929 295.266162 
L 495.374521 295.6739 
L 520.047479 296.156214 
L 544.419279 296.700434 
L 568.456099 297.29191 
L 592.149881 297.918047 
L 615.489526 298.575985 
L 638.457396 299.271785 
L 661.053034 300.00782 
L 683.268015 300.774238 
L 705.073792 301.559702 
L 726.44269 302.368304 
L 747.362167 303.213319 
L 767.840083 304.098214 
L 787.878159 305.009905 
L 807.454895 305.935895 
L 826.533713 306.876672 
L 845.083911 307.841026 
L 863.110253 308.832927 
L 880.626946 309.847288 
L 897.624523 310.870694 
L 914.065707 311.888477 
L 929.91815 312.899244 
L 945.176173 313.918283 
L 959.853532 314.961416 
L 973.956094 316.021978 
L 987.46096 317.073676 
L 1000.322262 318.096748 
L 1012.510819 319.089808 
L 1024.025207 320.052299 
L 1034.865809 320.976695 
L 1045.016556 321.859577 
L 1054.447366 322.702569 
L 1063.122485 323.507273 
L 1071.01605 324.274258 
L 1078.110601 324.994172 
L 1084.373254 325.648739 
L 1089.76035 326.224065 
L 1094.235707 326.719116 
L 1097.777046 327.132229 
L 1099.636364 327.360642 
L 1099.226906 325.338965 
" clip-path="url(#pd09d4375b0)" style="fill: none; stroke: #ff0000; stroke-width: 0.72; stroke-linejoin: miter"/>
   </g>
   <g id="patch_4">
    <path d="M 492.462576 225.92122 
L 492.462576 245.769298 
" clip-path="url(#pd09d4375b0)" style="fill: none; stroke: #ff0000; stroke-width: 0.72; stroke-linejoin: miter"/>
   </g>
   <g id="patch_5">
    <path d="M 506.35623 225.92122 
L 502.386614 225.92122 
L 502.386614 245.769298 
L 506.35623 245.769298 
" clip-path="url(#pd09d4375b0)" style="fill: none; stroke: #ff0000; stroke-width: 0.72; stroke-linejoin: miter"/>
   </g>
   <g id="patch_6">
    <path d="M 508.341038 245.769298 
L 512.310653 245.769298 
L 512.310653 225.92122 
L 508.341038 225.92122 
" clip-path="url(#pd09d4375b0)" style="fill: none; stroke: #ff0000; stroke-width: 0.72; stroke-linejoin: miter"/>
   </g>
   <g id="patch_7">
    <path d="M 502.386614 235.845259 
L 506.35623 235.845259 
" clip-path="url(#pd09d4375b0)" style="fill: none; stroke: #ff0000; stroke-width: 0.72; stroke-linejoin: miter"/>
   </g>
   <g id="patch_8">
    <path d="M 508.341038 235.845259 
L 512.310653 235.845259 
" clip-path="url(#pd09d4375b0)" style="fill: none; stroke: #ff0000; stroke-width: 0.72; stroke-linejoin: miter"/>
   </g>
   <g id="patch_9">
    <path d="M 375.241328 93.503744 
L 367.588963 91.38887 
L 369.703837 83.736504 
L 377.356203 85.851379 
L 375.241328 93.503744 
" clip-path="url(#pd09d4375b0)" style="fill: none; stroke: #ff0000; stroke-width: 0.72; stroke-linejoin: miter"/>
   </g>
   <g id="patch_10">
    <path d="M 240.225306 130.184114 
L 250.149345 140.108153 
L 240.225306 150.032192 
L 230.301267 140.108153 
L 240.225306 130.184114 
" clip-path="url(#pd09d4375b0)" style="fill: none; stroke: #ff0000; stroke-width: 0.72; stroke-linejoin: miter"/>
   </g>
   <g id="patch_11">
    <path d="M 384.295178 219.243448 
L 394.219216 209.319409 
L 404.143255 219.243448 
L 394.219216 229.167487 
L 384.295178 219.243448 
" clip-path="url(#pd09d4375b0)" style="fill: none; stroke: #ff0000; stroke-width: 0.72; stroke-linejoin: miter"/>
   </g>
   <g id="patch_12">
    <path d="M 384.295178 165.845382 
L 394.219216 155.921343 
L 404.143255 165.845382 
L 394.219216 175.769421 
L 384.295178 165.845382 
" clip-path="url(#pd09d4375b0)" style="fill: none; stroke: #ff0000; stroke-width: 0.72; stroke-linejoin: miter"/>
   </g>
   <g id="line2d_1">
    <path d="M 1062.218914 312.211203 
L 1061.567625 314.086113 
" clip-path="url(#pd09d4375b0)" style="fill: none; stroke: #ff0000; stroke-width: 0.72; stroke-linecap: square"/>
   </g>
   <g id="line2d_2">
    <path d="M 1060.172989 321.242088 
L 1060.072356 323.224343 
" clip-path="url(#pd09d4375b0)" style="fill: none; stroke: #ff0000; stroke-width: 0.72; stroke-linecap: square"/>
   </g>
   <g id="line2d_3">
    <path d="M 1024.775652 299.02784 
L 1024.120423 300.901376 
" clip-path="url(#pd09d4375b0)" style="fill: none; stroke: #ff0000; stroke-width: 0.72; stroke-linecap: square"/>
   </g>
   <g id="line2d_4">
    <path d="M 1020.651001 317.778723 
L 1020.514047 319.7588 
" clip-path="url(#pd09d4375b0)" style="fill: none; stroke: #ff0000; stroke-width: 0.72; stroke-linecap: square"/>
   </g>
   <g id="line2d_5">
    <path d="M 874.77627 246.943459 
L 874.123824 248.817966 
" clip-path="url(#pd09d4375b0)" style="fill: none; stroke: #ff0000; stroke-width: 0.72; stroke-linecap: square"/>
   </g>
   <g id="line2d_6">
    <path d="M 862.246712 306.7978 
L 862.109552 308.777863 
" clip-path="url(#pd09d4375b0)" style="fill: none; stroke: #ff0000; stroke-width: 0.72; stroke-linecap: square"/>
   </g>
   <g id="line2d_7">
    <path d="M 52.363636 140.108153 
L 553.852813 140.108153 
" clip-path="url(#pd09d4375b0)" style="fill: none; stroke: #ffffff; stroke-width: 0.72; stroke-linecap: square"/>
   </g>
   <g id="line2d_8">
    <path d="M 228.31646 140.108153 
L 252.134153 140.108153 
" clip-path="url(#pd09d4375b0)" style="fill: none; stroke: #ffffff; stroke-width: 0.72; stroke-linecap: square"/>
   </g>
   <g id="line2d_9">
    <path d="M 52.363636 257.268855 
L 1098.777689 325.176015 
" clip-path="url(#pd09d4375b0)" style="fill: none; stroke: #ffffff; stroke-width: 0.72; stroke-linecap: square"/>
   </g>
   <g id="line2d_10">
    <path d="M 394.219216 294.442442 
L 394.219216 90.646388 
" clip-path="url(#pd09d4375b0)" style="fill: none; stroke: #ffffff; stroke-width: 0.72; stroke-linecap: square"/>
   </g>
   <g id="line2d_11">
    <path d="M 394.219216 231.152294 
L 394.219216 207.334601 
" clip-path="url(#pd09d4375b0)" style="fill: none; stroke: #ffffff; stroke-width: 0.72; stroke-linecap: square"/>
   </g>
   <g id="line2d_12">
    <path d="M 394.219216 177.754228 
L 394.219216 153.936535 
" clip-path="url(#pd09d4375b0)" style="fill: none; stroke: #ffffff; stroke-width: 0.72; stroke-linecap: square"/>
   </g>
  </g>
 </g>
 <defs>
  <clipPath id="pd09d4375b0">
   <rect x="0" y="0" width="1152" height="342.949244"/>
  </clipPath>
 </defs>
</svg>
