<?xml version="1.0" encoding="utf-8" standalone="no"?>
<!DOCTYPE svg PUBLIC "-//W3C//DTD SVG 1.1//EN"
  "http://www.w3.org/Graphics/SVG/1.1/DTD/svg11.dtd">
<svg xmlns:xlink="http://www.w3.org/1999/xlink" width="1152pt" height="214.171363pt" viewBox="0 0 1152 214.171363" xmlns="http://www.w3.org/2000/svg" version="1.1">
 <metadata>
  <rdf:RDF xmlns:dc="http://purl.org/dc/elements/1.1/" xmlns:cc="http://creativecommons.org/ns#" xmlns:rdf="http://www.w3.org/1999/02/22-rdf-syntax-ns#">
   <cc:Work>
    <dc:type rdf:resource="http://purl.org/dc/dcmitype/StillImage"/>
    <dc:date>2026-01-07T02:07:16.327976</dc:date>
    <dc:format>image/svg+xml</dc:format>
    <dc:creator>
     <cc:Agent>
      <dc:title>Matplotlib v3.10.1, https://matplotlib.org/</dc:title>
     </cc:Agent>
    </dc:creator>
   </cc:Work>
  </rdf:RDF>
 </metadata>
 <defs>
  <style type="text/css">*{stroke-linejoin: round; stroke-linecap: butt}</style>
 </defs>
 <g id="figure_1">
  <g id="patch_1">
   <path d="M 0 214.171363 
L 1152 214.171363 
L 1152 0 
L 0 0 
z
" style="fill: #ffffff"/>
  </g>
  <g id="axes_1">
   <g id="patch_2">
    <path d="M 0 214.171363 
L 1152 214.171363 
L 1152 0 
L 0 0 
z
" style="fill: #212830"/>
   </g>
   <g id="patch_3">
    <path d="M 1099.636364 112.4903 
L 1084.702951 107.523402 
L 1056.592733 98.417967 
L 1028.713868 89.737399 
L 1000.9994 81.500549 
L 973.383603 73.707212 
L 945.815317 66.36388 
L 918.250812 59.464852 
L 904.463425 56.184149 
L 876.854675 49.956984 
L 863.033773 47.009794 
L 849.20055 44.175323 
L 835.351701 41.453186 
L 821.485849 38.842047 
L 807.606211 36.341882 
L 793.713623 33.954538 
L 779.805403 31.680359 
L 765.881358 29.517824 
L 751.944907 27.46746 
L 737.996304 25.531368 
L 724.029125 23.710622 
L 710.037009 22.002291 
L 681.992559 18.913885 
L 667.948227 17.536141 
L 639.815298 15.111863 
L 611.669038 13.124965 
L 597.601657 12.300811 
L 569.49524 10.98783 
L 555.472457 10.50211 
L 541.472155 10.134402 
L 527.495223 9.883639 
L 513.550188 9.749489 
L 499.644489 9.735062 
L 485.779337 9.843825 
L 471.955101 10.075664 
L 458.180496 10.42995 
L 444.464649 10.9096 
L 430.809029 11.518826 
L 417.215828 12.257629 
L 403.694739 13.125252 
L 390.256597 14.124996 
L 376.903653 15.261315 
L 363.640421 16.53333 
L 350.480336 17.940454 
L 337.433829 19.487008 
L 324.504774 21.176027 
L 311.702878 23.005301 
L 299.044421 24.975158 
L 286.539877 27.088847 
L 274.198263 29.34402 
L 262.045216 31.731433 
L 250.111516 34.249663 
L 238.415833 36.900259 
L 226.978895 39.673687 
L 215.837989 42.556374 
L 205.026432 45.543587 
L 194.567397 48.626127 
L 184.492742 51.781688 
L 174.841557 54.990472 
L 165.640249 58.240239 
L 156.906184 61.509532 
L 148.659518 64.77112 
L 140.913799 68.007324 
L 133.66659 71.205542 
L 126.907789 74.347585 
L 120.626091 77.417136 
L 114.804043 80.408469 
L 109.415519 83.321433 
L 99.820396 88.898677 
L 91.624301 94.13975 
L 84.618809 99.085424 
L 78.623298 103.762253 
L 73.500698 108.221335 
L 69.094696 112.514034 
L 65.267322 116.60619 
L 61.983641 120.460716 
L 59.264216 124.14372 
L 57.073471 127.760332 
L 55.324436 131.317977 
L 53.970421 134.747796 
L 53.025262 138.022534 
L 52.499324 141.176602 
L 52.363636 144.256319 
L 52.624321 147.34712 
L 52.929585 148.875543 
L 53.372921 150.391622 
L 53.96901 151.899086 
L 54.723623 153.397895 
L 55.63228 154.883141 
L 56.684681 156.345942 
L 57.873822 157.777835 
L 59.198998 159.17211 
L 60.666559 160.52582 
L 62.282908 161.838955 
L 64.052043 163.114559 
L 68.041292 165.569656 
L 72.62977 167.915967 
L 77.880763 170.160798 
L 83.913919 172.328378 
L 90.861943 174.471679 
L 98.89944 176.629669 
L 108.287758 178.819155 
L 119.353606 181.062773 
L 132.483919 183.3579 
L 148.097045 185.68472 
L 166.500958 187.994723 
L 187.784524 190.204072 
L 199.435352 191.244154 
L 224.487591 193.141861 
L 251.411047 194.766646 
L 279.734363 196.108079 
L 309.147505 197.184853 
L 325.791275 197.713032 
L 325.71253 200.2953 
L 354.513466 201.133595 
L 385.158282 201.794557 
L 463.339734 203.081918 
L 510.543742 203.58696 
L 605.06234 204.436301 
L 1099.636364 112.4903 
L 1099.636364 112.4903 
" clip-path="url(#p1835494117)" style="fill: none; stroke: #ff0000; stroke-width: 0.72; stroke-linejoin: miter"/>
   </g>
   <g id="patch_4">
    <path d="M 964.19005 78.357986 
L 957.539629 76.559755 
L 959.33786 69.909334 
L 965.988281 71.707564 
L 964.19005 78.357986 
" clip-path="url(#p1835494117)" style="fill: none; stroke: #ff0000; stroke-width: 0.72; stroke-linejoin: miter"/>
   </g>
   <g id="patch_5">
    <path d="M 439.764044 18.015456 
L 432.881644 18.322566 
L 432.574534 11.440167 
L 439.456934 11.133057 
L 439.764044 18.015456 
" clip-path="url(#p1835494117)" style="fill: none; stroke: #ff0000; stroke-width: 0.72; stroke-linejoin: miter"/>
   </g>
   <g id="patch_6">
    <path d="M 201.839296 53.665333 
L 195.231143 55.613165 
L 193.283311 49.005012 
L 199.891464 47.05718 
L 201.839296 53.665333 
" clip-path="url(#p1835494117)" style="fill: none; stroke: #ff0000; stroke-width: 0.72; stroke-linejoin: miter"/>
   </g>
   <g id="patch_7">
    <path d="M 81.954235 112.207043 
L 79.390645 114.507792 
L 73.638774 108.098818 
L 76.202364 105.79807 
L 81.954235 112.207043 
" clip-path="url(#p1835494117)" style="fill: none; stroke: #ff0000; stroke-width: 0.72; stroke-linejoin: miter"/>
   </g>
   <g id="patch_8">
    <path d="M 67.478624 154.968211 
L 70.275674 156.97867 
L 65.249528 163.971296 
L 62.452477 161.960837 
L 67.478624 154.968211 
" clip-path="url(#p1835494117)" style="fill: none; stroke: #ff0000; stroke-width: 0.72; stroke-linejoin: miter"/>
   </g>
   <g id="patch_9">
    <path d="M 253.018276 187.949499 
L 259.898835 188.295412 
L 259.552922 195.17597 
L 252.672363 194.830057 
L 253.018276 187.949499 
" clip-path="url(#p1835494117)" style="fill: none; stroke: #ff0000; stroke-width: 0.72; stroke-linejoin: miter"/>
   </g>
   <g id="patch_10">
    <path d="M 656.574663 106.754197 
L 656.429269 101.859325 
L 655.993665 96.9839 
L 655.269582 92.147293 
L 654.259897 87.368718 
L 652.96862 82.667161 
L 651.400883 78.061302 
L 649.562913 73.569439 
L 647.462013 69.209418 
L 645.10653 64.998562 
L 642.505823 60.9536 
L 639.670222 57.090602 
L 636.610995 53.424917 
L 633.340296 49.971108 
L 629.871119 46.742897 
L 626.217246 43.753109 
L 622.393196 41.013623 
L 618.41416 38.535323 
L 614.295947 36.328055 
L 610.054919 34.400588 
L 605.707926 32.760581 
L 601.272237 31.414548 
L 596.765476 30.367838 
L 592.205547 29.62461 
L 587.610569 29.187815 
L 582.998795 29.05919 
L 578.388549 29.239245 
L 573.798147 29.727266 
L 569.245827 30.521312 
L 564.749674 31.618231 
L 560.327553 33.013662 
L 555.997031 34.702063 
L 551.775315 36.676726 
L 547.679176 38.929804 
L 543.724889 41.452348 
L 539.928164 44.234334 
L 536.304086 47.26471 
L 532.867051 50.531436 
L 529.630717 54.021534 
L 526.607941 57.721138 
L 523.810732 61.615549 
L 521.250203 65.689295 
L 518.936527 69.92619 
L 516.878897 74.309403 
L 515.085488 78.821518 
L 513.563424 83.444609 
L 512.318753 88.160308 
L 511.35642 92.94988 
L 510.680248 97.794297 
L 510.292923 102.674311 
L 510.195985 107.570534 
L 510.389819 112.463514 
L 510.873654 117.333811 
L 511.645568 122.162076 
L 512.702494 126.929125 
L 514.040234 131.61602 
L 515.653472 136.204139 
L 517.535799 140.675255 
L 519.679736 145.011603 
L 522.076767 149.195955 
L 524.717367 153.211687 
L 527.591045 157.042844 
L 530.686385 160.674206 
L 533.991088 164.091345 
L 537.492025 167.280685 
L 541.175288 170.229554 
L 545.026242 172.926237 
L 549.029587 175.36002 
L 553.169419 177.521234 
L 557.429291 179.401292 
L 561.792276 180.992725 
L 566.241043 182.28921 
L 570.757915 183.285596 
L 575.324948 183.977925 
L 579.923996 184.363445 
L 584.536789 184.440626 
L 589.144998 184.209161 
L 593.730316 183.669968 
L 598.274526 182.825191 
L 602.759573 181.678186 
L 607.167639 180.233509 
L 611.481211 178.496901 
L 615.68315 176.475261 
L 619.756762 174.176621 
L 623.685864 171.610112 
L 627.454844 168.785933 
L 631.048729 165.715303 
L 634.453241 162.410422 
L 637.654853 158.884421 
L 640.640845 155.151307 
L 643.399354 151.225912 
L 645.919421 147.123832 
L 648.191034 142.861365 
L 650.205167 138.455445 
L 651.953818 133.923576 
L 653.43004 129.283764 
L 654.627968 124.554443 
L 655.542842 119.754401 
L 656.171029 114.902711 
L 656.510031 110.018646 
L 656.574663 106.754197 
L 656.574663 106.754197 
" clip-path="url(#p1835494117)" style="fill: none; stroke: #ff0000; stroke-width: 0.72; stroke-linejoin: miter"/>
   </g>
   <g id="line2d_1">
    <path d="M 75.136483 106.754197 
L 1082.349798 106.754197 
" clip-path="url(#p1835494117)" style="fill: none; stroke: #ffffff; stroke-width: 0.72; stroke-linecap: square"/>
   </g>
   <g id="line2d_2">
    <path d="M 272.962291 106.754197 
L 293.630035 106.754197 
" clip-path="url(#p1835494117)" style="fill: none; stroke: #ffffff; stroke-width: 0.72; stroke-linecap: square"/>
   </g>
   <g id="patch_11">
    <path d="M 283.296163 98.142637 
L 291.907723 106.754197 
L 283.296163 115.365757 
L 274.684603 106.754197 
L 283.296163 98.142637 
" clip-path="url(#p1835494117)" style="fill: none; stroke: #ff0000; stroke-width: 0.72; stroke-linejoin: miter"/>
   </g>
   <g id="line2d_3">
    <path d="M 568.409269 106.754197 
L 589.077013 106.754197 
" clip-path="url(#p1835494117)" style="fill: none; stroke: #ffffff; stroke-width: 0.72; stroke-linecap: square"/>
   </g>
   <g id="patch_12">
    <path d="M 578.743141 98.142637 
L 587.354701 106.754197 
L 578.743141 115.365757 
L 570.131581 106.754197 
L 578.743141 98.142637 
" clip-path="url(#p1835494117)" style="fill: none; stroke: #ff0000; stroke-width: 0.72; stroke-linejoin: miter"/>
   </g>
   <g id="line2d_4">
    <path d="M 863.856246 106.754197 
L 884.523991 106.754197 
" clip-path="url(#p1835494117)" style="fill: none; stroke: #ffffff; stroke-width: 0.72; stroke-linecap: square"/>
   </g>
   <g id="patch_13">
    <path d="M 874.190118 98.142637 
L 882.801679 106.754197 
L 874.190118 115.365757 
L 865.578558 106.754197 
L 874.190118 98.142637 
" clip-path="url(#p1835494117)" style="fill: none; stroke: #ff0000; stroke-width: 0.72; stroke-linejoin: miter"/>
   </g>
   <g id="line2d_5">
    <path d="M 52.475588 141.509174 
L 714.509913 184.088959 
" clip-path="url(#p1835494117)" style="fill: none; stroke: #ffffff; stroke-width: 0.72; stroke-linecap: square"/>
   </g>
   <g id="line2d_6">
    <path d="M 181.273056 149.792987 
L 201.898185 151.119525 
" clip-path="url(#p1835494117)" style="fill: none; stroke: #ffffff; stroke-width: 0.72; stroke-linecap: square"/>
   </g>
   <g id="patch_14">
    <path d="M 192.138344 141.862452 
L 200.179424 151.00898 
L 191.032896 159.05006 
L 182.991817 149.903532 
L 192.138344 141.862452 
" clip-path="url(#p1835494117)" style="fill: none; stroke: #ff0000; stroke-width: 0.72; stroke-linejoin: miter"/>
   </g>
   <g id="line2d_7">
    <path d="M 341.195664 160.078663 
L 361.820794 161.405201 
" clip-path="url(#p1835494117)" style="fill: none; stroke: #ffffff; stroke-width: 0.72; stroke-linecap: square"/>
   </g>
   <g id="patch_15">
    <path d="M 352.060953 152.148128 
L 360.102033 161.294656 
L 350.955505 169.335735 
L 342.914425 160.189208 
L 352.060953 152.148128 
" clip-path="url(#p1835494117)" style="fill: none; stroke: #ff0000; stroke-width: 0.72; stroke-linejoin: miter"/>
   </g>
   <g id="line2d_8">
    <path d="M 583.383304 29.058118 
L 583.383304 27.335806 
" clip-path="url(#p1835494117)" style="fill: none; stroke: #ff0000; stroke-width: 0.72; stroke-linecap: square"/>
   </g>
   <g id="line2d_9">
    <path d="M 583.383304 184.450276 
L 583.383304 186.172588 
" clip-path="url(#p1835494117)" style="fill: none; stroke: #ff0000; stroke-width: 0.72; stroke-linecap: square"/>
   </g>
   <g id="line2d_10">
    <path d="M 656.574663 106.754197 
L 658.296975 106.754197 
" clip-path="url(#p1835494117)" style="fill: none; stroke: #ff0000; stroke-width: 0.72; stroke-linecap: square"/>
   </g>
   <g id="line2d_11">
    <path d="M 510.191945 106.754197 
L 508.469633 106.754197 
" clip-path="url(#p1835494117)" style="fill: none; stroke: #ff0000; stroke-width: 0.72; stroke-linecap: square"/>
   </g>
   <g id="line2d_12">
    <path d="M 325.036501 197.690016 
L 325.036501 21.106564 
" clip-path="url(#p1835494117)" style="fill: none; stroke: #ffffff; stroke-width: 0.72; stroke-linecap: square"/>
   </g>
   <g id="line2d_13">
    <path d="M 325.036501 142.861171 
L 325.036501 122.193427 
" clip-path="url(#p1835494117)" style="fill: none; stroke: #ffffff; stroke-width: 0.72; stroke-linecap: square"/>
   </g>
   <g id="patch_16">
    <path d="M 316.42494 132.527299 
L 325.036501 123.915739 
L 333.648061 132.527299 
L 325.036501 141.138859 
L 316.42494 132.527299 
" clip-path="url(#p1835494117)" style="fill: none; stroke: #ff0000; stroke-width: 0.72; stroke-linejoin: miter"/>
   </g>
   <g id="line2d_14">
    <path d="M 325.036501 96.603153 
L 325.036501 75.935408 
" clip-path="url(#p1835494117)" style="fill: none; stroke: #ffffff; stroke-width: 0.72; stroke-linecap: square"/>
   </g>
   <g id="patch_17">
    <path d="M 316.42494 86.26928 
L 325.036501 77.65772 
L 333.648061 86.26928 
L 325.036501 94.88084 
L 316.42494 86.26928 
" clip-path="url(#p1835494117)" style="fill: none; stroke: #ff0000; stroke-width: 0.72; stroke-linejoin: miter"/>
   </g>
   <g id="patch_18">
    <path d="M 443.863504 159.290976 
L 443.863504 167.902536 
L 452.475064 167.902536 
L 452.475064 159.290976 
L 452.475064 176.514097 
" clip-path="url(#p1835494117)" style="fill: none; stroke: #ff0000; stroke-width: 0.72; stroke-linejoin: miter"/>
   </g>
   <g id="patch_19">
    <path d="M 456.780844 159.290976 
L 465.392405 159.290976 
L 465.392405 167.902536 
L 456.780844 167.902536 
L 456.780844 176.514097 
L 465.392405 176.514097 
" clip-path="url(#p1835494117)" style="fill: none; stroke: #ff0000; stroke-width: 0.72; stroke-linejoin: miter"/>
   </g>
  </g>
 </g>
 <defs>
  <clipPath id="p1835494117">
   <rect x="0" y="0" width="1152" height="214.171363"/>
  </clipPath>
 </defs>
</svg>
