<?xml version="1.0" encoding="utf-8" standalone="no"?>
<!DOCTYPE svg PUBLIC "-//W3C//DTD SVG 1.1//EN"
  "http://www.w3.org/Graphics/SVG/1.1/DTD/svg11.dtd">
<svg xmlns:xlink="http://www.w3.org/1999/xlink" width="1152pt" height="148.157632pt" viewBox="0 0 1152 148.157632" xmlns="http://www.w3.org/2000/svg" version="1.1">
 <metadata>
  <rdf:RDF xmlns:dc="http://purl.org/dc/elements/1.1/" xmlns:cc="http://creativecommons.org/ns#" xmlns:rdf="http://www.w3.org/1999/02/22-rdf-syntax-ns#">
   <cc:Work>
    <dc:type rdf:resource="http://purl.org/dc/dcmitype/StillImage"/>
    <dc:date>2026-01-07T02:07:24.956136</dc:date>
    <dc:format>image/svg+xml</dc:format>
    <dc:creator>
     <cc:Agent>
      <dc:title>Matplotlib v3.10.1, https://matplotlib.org/</dc:title>
     </cc:Agent>
    </dc:creator>
   </cc:Work>
  </rdf:RDF>
 </metadata>
 <defs>
  <style type="text/css">*{stroke-linejoin: round; stroke-linecap: butt}</style>
 </defs>
 <g id="figure_1">
  <g id="patch_1">
   <path d="M 0 148.157632 
L 1152 148.157632 
L 1152 0 
L 0 0 
z
" style="fill: #ffffff"/>
  </g>
  <g id="axes_1">
   <g id="patch_2">
    <path d="M 0 148.157632 
L 1152 148.157632 
L 1152 0 
L 0 0 
z
" style="fill: #212830"/>
   </g>
   <g id="patch_3">
    <path d="M 1099.408837 140.717956 
L 1086.682886 137.969342 
L 1069.336685 134.001545 
L 1050.974723 129.622635 
L 1022.923345 122.634565 
L 994.79097 115.323753 
L 966.765434 107.700601 
L 938.664992 99.894326 
L 891.819145 86.585255 
L 845.029397 73.406039 
L 839.18364 71.804245 
L 838.531023 74.185975 
L 825.712234 70.718841 
L 807.036226 65.804337 
L 788.345248 61.044713 
L 769.660484 56.486345 
L 750.901113 52.115447 
L 732.11848 47.906705 
L 713.326351 43.905286 
L 694.476002 40.087573 
L 675.619024 36.499908 
L 656.693072 33.086902 
L 637.76379 29.887495 
L 618.76512 26.890355 
L 599.749894 24.077779 
L 580.679955 21.460346 
L 561.617383 19.029619 
L 542.544414 16.817599 
L 523.425994 14.791984 
L 504.310494 12.985362 
L 485.208778 11.388617 
L 466.085563 10.021102 
L 446.947301 8.880475 
L 427.837646 7.955252 
L 408.725025 7.300948 
L 389.643946 6.891331 
L 370.551815 6.734438 
L 351.517958 6.849708 
L 332.51303 7.275478 
L 313.527191 7.993006 
L 294.604302 9.028586 
L 275.717003 10.387102 
L 256.981418 12.071769 
L 238.348848 14.169298 
L 229.08787 15.37459 
L 219.856774 16.694306 
L 201.467452 19.662068 
L 192.377991 21.301058 
L 183.363367 23.071057 
L 174.4321 24.979115 
L 165.576659 27.03544 
L 156.822936 29.242148 
L 148.145119 31.618634 
L 139.612453 34.121052 
L 131.236767 36.807554 
L 123.040435 39.648351 
L 115.09171 42.649614 
L 107.421069 45.808616 
L 100.124979 49.086529 
L 93.3035 52.447135 
L 87.006519 55.880207 
L 81.346403 59.239092 
L 76.388914 62.481549 
L 72.124121 65.560668 
L 68.49683 68.441068 
L 65.498735 71.023794 
L 60.882744 75.703196 
L 59.191428 77.682622 
L 57.80548 79.553807 
L 55.7246 82.925154 
L 54.315535 85.920693 
L 53.376387 88.437619 
L 52.792008 90.642735 
L 52.363636 93.493764 
L 52.848828 98.010903 
L 53.194141 99.043421 
L 53.688157 100.152655 
L 54.344039 101.329088 
L 55.185798 102.573299 
L 56.235013 103.881171 
L 57.509285 105.241124 
L 59.044998 106.64596 
L 60.897899 108.091961 
L 63.15327 109.586431 
L 65.892913 111.147642 
L 69.131961 112.786379 
L 72.897775 114.481188 
L 77.350327 116.189645 
L 82.621814 117.909253 
L 88.70156 119.666869 
L 95.472103 121.428776 
L 102.903708 123.083881 
L 110.920372 124.64287 
L 119.295984 126.101555 
L 127.947107 127.399508 
L 136.866826 128.530073 
L 155.374192 130.560361 
L 164.635627 131.490201 
L 173.939784 132.251071 
L 202.51784 134.173999 
L 221.571491 135.210914 
L 240.78213 135.967874 
L 257.279383 136.511838 
L 257.200245 138.980092 
L 279.371759 139.615686 
L 298.635507 140.042193 
L 357.061587 140.919952 
L 386.331029 141.145078 
L 464.634075 141.417163 
L 513.551038 141.35707 
L 572.181329 141.056416 
L 669.822256 139.977354 
L 708.845505 139.458669 
L 777.110675 138.385578 
L 845.463959 137.463412 
L 904.110504 136.983011 
L 943.099911 136.922052 
L 991.73009 137.230471 
L 1020.862222 137.690879 
L 1049.835128 138.39961 
L 1077.904951 139.371735 
L 1099.636364 140.379212 
L 1099.408837 140.717956 
L 1099.408837 140.717956 
" clip-path="url(#p8fd328f125)" style="fill: none; stroke: #ff0000; stroke-width: 0.72; stroke-linejoin: miter"/>
   </g>
   <g id="patch_4">
    <path d="M 737.251198 59.161468 
L 727.606944 57.024866 
L 729.743546 47.380612 
L 739.387799 49.517214 
L 737.251198 59.161468 
" clip-path="url(#p8fd328f125)" style="fill: none; stroke: #ff0000; stroke-width: 0.72; stroke-linejoin: miter"/>
   </g>
   <g id="patch_5">
    <path d="M 342.357923 16.89829 
L 332.483243 17.157883 
L 332.223651 7.283203 
L 342.098331 7.02361 
L 342.357923 16.89829 
" clip-path="url(#p8fd328f125)" style="fill: none; stroke: #ff0000; stroke-width: 0.72; stroke-linejoin: miter"/>
   </g>
   <g id="patch_6">
    <path d="M 165.156868 37.328646 
L 155.57864 39.744066 
L 153.163221 30.165838 
L 162.741448 27.750419 
L 165.156868 37.328646 
" clip-path="url(#p8fd328f125)" style="fill: none; stroke: #ff0000; stroke-width: 0.72; stroke-linejoin: miter"/>
   </g>
   <g id="patch_7">
    <path d="M 78.064656 76.491371 
L 74.328698 79.721973 
L 66.252193 70.382078 
L 69.988151 67.151476 
L 78.064656 76.491371 
" clip-path="url(#p8fd328f125)" style="fill: none; stroke: #ff0000; stroke-width: 0.72; stroke-linejoin: miter"/>
   </g>
   <g id="patch_8">
    <path d="M 66.266566 96.621622 
L 70.174007 99.642562 
L 62.621656 109.411164 
L 58.714215 106.390223 
L 66.266566 96.621622 
" clip-path="url(#p8fd328f125)" style="fill: none; stroke: #ff0000; stroke-width: 0.72; stroke-linejoin: miter"/>
   </g>
   <g id="patch_9">
    <path d="M 200.471229 124.15877 
L 210.332347 124.73761 
L 209.753507 134.598727 
L 199.89239 134.019887 
L 200.471229 124.15877 
" clip-path="url(#p8fd328f125)" style="fill: none; stroke: #ff0000; stroke-width: 0.72; stroke-linejoin: miter"/>
   </g>
   <g id="line2d_1">
    <path d="M 1051.327539 129.707533 
L 1050.81613 132.123522 
" clip-path="url(#p8fd328f125)" style="fill: none; stroke: #ff0000; stroke-width: 0.72; stroke-linecap: square"/>
   </g>
   <g id="line2d_2">
    <path d="M 1050.356399 135.945284 
L 1050.280296 138.413634 
" clip-path="url(#p8fd328f125)" style="fill: none; stroke: #ff0000; stroke-width: 0.72; stroke-linecap: square"/>
   </g>
   <g id="line2d_3">
    <path d="M 1003.426451 117.592618 
L 1002.867873 119.99814 
" clip-path="url(#p8fd328f125)" style="fill: none; stroke: #ff0000; stroke-width: 0.72; stroke-linecap: square"/>
   </g>
   <g id="line2d_4">
    <path d="M 1000.964498 134.888637 
L 1000.900039 137.357319 
" clip-path="url(#p8fd328f125)" style="fill: none; stroke: #ff0000; stroke-width: 0.72; stroke-linecap: square"/>
   </g>
   <g id="line2d_5">
    <path d="M 812.370816 67.194733 
L 811.764641 69.588704 
" clip-path="url(#p8fd328f125)" style="fill: none; stroke: #ff0000; stroke-width: 0.72; stroke-linecap: square"/>
   </g>
   <g id="line2d_6">
    <path d="M 803.326607 135.557848 
L 803.310704 138.02732 
" clip-path="url(#p8fd328f125)" style="fill: none; stroke: #ff0000; stroke-width: 0.72; stroke-linecap: square"/>
   </g>
   <g id="patch_10">
    <path d="M 506.773945 74.068008 
L 506.660587 70.42719 
L 506.320964 66.800837 
L 505.756424 63.203356 
L 504.969211 59.64904 
L 503.962452 56.15201 
L 502.740147 52.72616 
L 501.307153 49.385101 
L 499.669161 46.142107 
L 497.832682 43.010061 
L 495.805009 40.001408 
L 493.5942 37.128101 
L 491.209038 34.401555 
L 488.658999 31.832603 
L 485.954214 29.431451 
L 483.10543 27.207639 
L 480.123964 25.170003 
L 477.021662 23.326637 
L 473.810849 21.684865 
L 470.504282 20.251211 
L 467.115098 19.031369 
L 463.656761 18.030187 
L 460.143012 17.251641 
L 456.58781 16.698826 
L 453.005281 16.373937 
L 449.409658 16.278265 
L 445.815225 16.412191 
L 442.236265 16.775182 
L 438.686995 17.365795 
L 435.181517 18.181686 
L 431.733758 19.219611 
L 428.357416 20.475448 
L 425.065905 21.944207 
L 421.872303 23.620053 
L 418.789297 25.496327 
L 415.829136 27.565575 
L 413.00358 29.819577 
L 410.323856 32.249376 
L 407.80061 34.84532 
L 405.443867 37.597095 
L 403.26299 40.493767 
L 401.266644 43.52383 
L 399.46276 46.675244 
L 397.858504 49.935488 
L 396.460252 53.291611 
L 395.273557 56.730277 
L 394.303135 60.237826 
L 393.55284 63.800323 
L 393.025655 67.403612 
L 392.723673 71.033379 
L 392.648094 74.675202 
L 392.799218 78.314613 
L 393.176446 81.937152 
L 393.778278 85.528428 
L 394.602323 89.074171 
L 395.645307 92.560295 
L 396.903087 95.97295 
L 398.370665 99.298577 
L 400.042211 102.523964 
L 401.911084 105.636295 
L 403.969859 108.623207 
L 406.210356 111.472832 
L 408.623674 114.173848 
L 411.200224 116.715524 
L 413.929771 119.087763 
L 416.80147 121.28114 
L 419.803911 123.28694 
L 422.925167 125.097194 
L 426.152835 126.70471 
L 429.474094 128.103102 
L 432.875747 129.286814 
L 436.34428 130.251143 
L 439.865912 130.992257 
L 443.426653 131.507213 
L 447.012355 131.793964 
L 450.608772 131.851371 
L 454.201617 131.679207 
L 457.776614 131.278154 
L 461.31956 130.649807 
L 464.81638 129.796661 
L 468.25318 128.722107 
L 471.616307 127.430414 
L 474.892398 125.926712 
L 478.068437 124.216978 
L 481.131808 122.308003 
L 484.070337 120.207371 
L 486.872352 117.923429 
L 489.526719 115.46525 
L 492.022894 112.842601 
L 494.350957 110.065901 
L 496.501662 107.146183 
L 498.466461 104.095045 
L 500.237551 100.924611 
L 501.807893 97.647477 
L 503.171249 94.276661 
L 504.322203 90.825557 
L 505.256182 87.307876 
L 505.969475 83.737593 
L 506.459247 80.128893 
L 506.723555 76.496114 
L 506.773945 74.068008 
L 506.773945 74.068008 
" clip-path="url(#p8fd328f125)" style="fill: none; stroke: #ff0000; stroke-width: 0.72; stroke-linejoin: miter"/>
   </g>
   <g id="line2d_7">
    <path d="M 62.43465 74.068008 
L 847.411443 74.068008 
" clip-path="url(#p8fd328f125)" style="fill: none; stroke: #ffffff; stroke-width: 0.72; stroke-linecap: square"/>
   </g>
   <g id="line2d_8">
    <path d="M 214.244011 74.068008 
L 243.878286 74.068008 
" clip-path="url(#p8fd328f125)" style="fill: none; stroke: #ffffff; stroke-width: 0.72; stroke-linecap: square"/>
   </g>
   <g id="patch_11">
    <path d="M 229.061148 61.720394 
L 241.408763 74.068008 
L 229.061148 86.415623 
L 216.713534 74.068008 
L 229.061148 61.720394 
" clip-path="url(#p8fd328f125)" style="fill: none; stroke: #ff0000; stroke-width: 0.72; stroke-linejoin: miter"/>
   </g>
   <g id="line2d_9">
    <path d="M 440.105909 74.068008 
L 469.740184 74.068008 
" clip-path="url(#p8fd328f125)" style="fill: none; stroke: #ffffff; stroke-width: 0.72; stroke-linecap: square"/>
   </g>
   <g id="patch_12">
    <path d="M 454.923047 61.720394 
L 467.270661 74.068008 
L 454.923047 86.415623 
L 442.575432 74.068008 
L 454.923047 61.720394 
" clip-path="url(#p8fd328f125)" style="fill: none; stroke: #ff0000; stroke-width: 0.72; stroke-linejoin: miter"/>
   </g>
   <g id="line2d_10">
    <path d="M 665.967808 74.068008 
L 695.602083 74.068008 
" clip-path="url(#p8fd328f125)" style="fill: none; stroke: #ffffff; stroke-width: 0.72; stroke-linecap: square"/>
   </g>
   <g id="patch_13">
    <path d="M 680.784945 61.720394 
L 693.13256 74.068008 
L 680.784945 86.415623 
L 668.437331 74.068008 
L 680.784945 61.720394 
" clip-path="url(#p8fd328f125)" style="fill: none; stroke: #ff0000; stroke-width: 0.72; stroke-linejoin: miter"/>
   </g>
   <g id="line2d_11">
    <path d="M 52.475073 92.567029 
L 1094.693083 139.711597 
" clip-path="url(#p8fd328f125)" style="fill: none; stroke: #ffffff; stroke-width: 0.72; stroke-linecap: square"/>
   </g>
   <g id="line2d_12">
    <path d="M 255.737974 101.761595 
L 285.341977 103.100727 
" clip-path="url(#p8fd328f125)" style="fill: none; stroke: #ffffff; stroke-width: 0.72; stroke-linecap: square"/>
   </g>
   <g id="patch_14">
    <path d="M 271.097947 90.09616 
L 282.874977 102.989133 
L 269.982004 114.766162 
L 258.204974 101.873189 
L 271.097947 90.09616 
" clip-path="url(#p8fd328f125)" style="fill: none; stroke: #ff0000; stroke-width: 0.72; stroke-linejoin: miter"/>
   </g>
   <g id="line2d_13">
    <path d="M 508.274726 113.185055 
L 537.878729 114.524188 
" clip-path="url(#p8fd328f125)" style="fill: none; stroke: #ffffff; stroke-width: 0.72; stroke-linecap: square"/>
   </g>
   <g id="patch_15">
    <path d="M 523.634699 101.51962 
L 535.411729 114.412593 
L 522.518756 126.189623 
L 510.741726 113.29665 
L 523.634699 101.51962 
" clip-path="url(#p8fd328f125)" style="fill: none; stroke: #ff0000; stroke-width: 0.72; stroke-linejoin: miter"/>
   </g>
   <g id="line2d_14">
    <path d="M 449.709445 16.277468 
L 449.709445 13.807945 
" clip-path="url(#p8fd328f125)" style="fill: none; stroke: #ff0000; stroke-width: 0.72; stroke-linecap: square"/>
   </g>
   <g id="line2d_15">
    <path d="M 449.709445 131.858549 
L 449.709445 134.328071 
" clip-path="url(#p8fd328f125)" style="fill: none; stroke: #ff0000; stroke-width: 0.72; stroke-linecap: square"/>
   </g>
   <g id="line2d_16">
    <path d="M 506.773945 74.068008 
L 509.243468 74.068008 
" clip-path="url(#p8fd328f125)" style="fill: none; stroke: #ff0000; stroke-width: 0.72; stroke-linecap: square"/>
   </g>
   <g id="line2d_17">
    <path d="M 392.644944 74.068008 
L 390.175421 74.068008 
" clip-path="url(#p8fd328f125)" style="fill: none; stroke: #ff0000; stroke-width: 0.72; stroke-linecap: square"/>
   </g>
   <g id="patch_16">
    <path d="M 349.446814 101.973617 
L 344.507768 101.973617 
L 344.507768 126.668846 
L 349.446814 126.668846 
" clip-path="url(#p8fd328f125)" style="fill: none; stroke: #ff0000; stroke-width: 0.72; stroke-linejoin: miter"/>
   </g>
   <g id="patch_17">
    <path d="M 351.916337 126.668846 
L 356.855383 126.668846 
L 356.855383 101.973617 
L 351.916337 101.973617 
" clip-path="url(#p8fd328f125)" style="fill: none; stroke: #ff0000; stroke-width: 0.72; stroke-linejoin: miter"/>
   </g>
   <g id="patch_18">
    <path d="M 344.507768 114.321232 
L 349.446814 114.321232 
" clip-path="url(#p8fd328f125)" style="fill: none; stroke: #ff0000; stroke-width: 0.72; stroke-linejoin: miter"/>
   </g>
   <g id="patch_19">
    <path d="M 351.916337 114.321232 
L 356.855383 114.321232 
" clip-path="url(#p8fd328f125)" style="fill: none; stroke: #ff0000; stroke-width: 0.72; stroke-linejoin: miter"/>
   </g>
   <g id="patch_20">
    <path d="M 367.968236 101.973617 
L 363.02919 101.973617 
L 363.02919 126.668846 
L 367.968236 126.668846 
" clip-path="url(#p8fd328f125)" style="fill: none; stroke: #ff0000; stroke-width: 0.72; stroke-linejoin: miter"/>
   </g>
   <g id="patch_21">
    <path d="M 370.437759 126.668846 
L 375.376805 126.668846 
L 375.376805 101.973617 
L 370.437759 101.973617 
" clip-path="url(#p8fd328f125)" style="fill: none; stroke: #ff0000; stroke-width: 0.72; stroke-linejoin: miter"/>
   </g>
  </g>
 </g>
 <defs>
  <clipPath id="p8fd328f125">
   <rect x="0" y="0" width="1152" height="148.157632"/>
  </clipPath>
 </defs>
</svg>
