  0
SECTION
  2
HEADER
  9
$ACADVER
  1
AC1021
  9
$ACADMAINTVER
 70
25
  9
$DWGCODEPAGE
  3
ANSI_1252
  9
$LASTSAVEDBY
  1
ezdxf
  9
$INSBASE
 10
0.0
 20
0.0
 30
0.0
  9
$EXTMIN
 10
1e+20
 20
1e+20
 30
1e+20
  9
$EXTMAX
 10
-1e+20
 20
-1e+20
 30
-1e+20
  9
$LIMMIN
 10
0.0
 20
0.0
  9
$LIMMAX
 10
420.0
 20
297.0
  9
$ORTHOMODE
 70
0
  9
$REGENMODE
 70
1
  9
$FILLMODE
 70
1
  9
$QTEXTMODE
 70
0
  9
$MIRRTEXT
 70
1
  9
$LTSCALE
 40
1.0
  9
$ATTMODE
 70
1
  9
$TEXTSIZE
 40
2.5
  9
$TRACEWID
 40
1.0
  9
$TEXTSTYLE
  7
OpenSans
  9
$CLAYER
  8
0
  9
$CELTYPE
  6
ByLayer
  9
$CECOLOR
 62
256
  9
$CELTSCALE
 40
1.0
  9
$DISPSILH
 70
0
  9
$DIMSCALE
 40
1.0
  9
$DIMASZ
 40
0.175
  9
$DIMEXO
 40
0.125
  9
$DIMDLI
 40
3.75
  9
$DIMRND
 40
0.0
  9
$DIMDLE
 40
0.0
  9
$DIMEXE
 40
0.375
  9
$DIMTP
 40
0.0
  9
$DIMTM
 40
0.0
  9
$DIMTXT
 40
0.25
  9
$DIMCEN
 40
2.5
  9
$DIMTSZ
 40
0.0
  9
$DIMTOL
 70
0
  9
$DIMLIM
 70
0
  9
$DIMTIH
 70
0
  9
$DIMTOH
 70
0
  9
$DIMSE1
 70
0
  9
$DIMSE2
 70
0
  9
$DIMTAD
 70
1
  9
$DIMZIN
 70
12
  9
$DIMBLK
  1
ARCHTICK
  9
$DIMASO
 70
1
  9
$DIMSHO
 70
1
  9
$DIMPOST
  1

  9
$DIMAPOST
  1

  9
$DIMALT
 70
0
  9
$DIMALTD
 70
3
  9
$DIMALTF
 40
0.03937007874
  9
$DIMLFAC
 40
100.0
  9
$DIMTOFL
 70
1
  9
$DIMTVP
 40
0.0
  9
$DIMTIX
 70
0
  9
$DIMSOXD
 70
0
  9
$DIMSAH
 70
0
  9
$DIMBLK1
  1

  9
$DIMBLK2
  1

  9
$DIMSTYLE
  2
EZDXF
  9
$DIMCLRD
 70
0
  9
$DIMCLRE
 70
0
  9
$DIMCLRT
 70
0
  9
$DIMTFAC
 40
0.5
  9
$DIMGAP
 40
0.1
  9
$DIMJUST
 70
0
  9
$DIMSD1
 70
0
  9
$DIMSD2
 70
0
  9
$DIMTOLJ
 70
0
  9
$DIMTZIN
 70
8
  9
$DIMALTZ
 70
0
  9
$DIMALTTZ
 70
0
  9
$DIMUPT
 70
1
  9
$DIMDEC
 70
2
  9
$DIMTDEC
 70
2
  9
$DIMALTU
 70
2
  9
$DIMALTTD
 70
3
  9
$DIMTXSTY
  7
OpenSansCondensed-Light
  9
$DIMAUNIT
 70
0
  9
$DIMADEC
 70
2
  9
$DIMALTRND
 40
0.0
  9
$DIMAZIN
 70
3
  9
$DIMDSEP
 70
46
  9
$DIMATFIT
 70
3
  9
$DIMFRAC
 70
0
  9
$DIMLDRBLK
  1

  9
$DIMLUNIT
 70
2
  9
$DIMLWD
 70
-2
  9
$DIMLWE
 70
-2
  9
$DIMTMOVE
 70
2
  9
$DIMFXL
 40
1.0
  9
$DIMFXLON
 70
0
  9
$DIMJOGANG
 40
0.785398163397
  9
$DIMTFILL
 70
0
  9
$DIMTFILLCLR
 70
0
  9
$DIMARCSYM
 70
0
  9
$DIMLTYPE
  6

  9
$DIMLTEX1
  6

  9
$DIMLTEX2
  6

  9
$LUNITS
 70
2
  9
$LUPREC
 70
4
  9
$SKETCHINC
 40
1.0
  9
$FILLETRAD
 40
10.0
  9
$AUNITS
 70
0
  9
$AUPREC
 70
2
  9
$MENU
  1
.
  9
$ELEVATION
 40
0.0
  9
$PELEVATION
 40
0.0
  9
$THICKNESS
 40
0.0
  9
$LIMCHECK
 70
0
  9
$CHAMFERA
 40
0.0
  9
$CHAMFERB
 40
0.0
  9
$CHAMFERC
 40
0.0
  9
$CHAMFERD
 40
0.0
  9
$SKPOLY
 70
0
  9
$TDCREATE
 40
2461048.088425926
  9
$TDUCREATE
 40
2458532.153996898
  9
$TDUPDATE
 40
2461048.088425926
  9
$TDUUPDATE
 40
2458532.1544311
  9
$TDINDWG
 40
0.0
  9
$TDUSRTIMER
 40
0.0
  9
$USRTIMER
 70
1
  9
$ANGBASE
 50
0.0
  9
$ANGDIR
 70
0
  9
$PDMODE
 70
0
  9
$PDSIZE
 40
0.0
  9
$PLINEWID
 40
0.0
  9
$SPLFRAME
 70
0
  9
$SPLINETYPE
 70
6
  9
$SPLINESEGS
 70
8
  9
$HANDSEED
  5
A9
  9
$SURFTAB1
 70
6
  9
$SURFTAB2
 70
6
  9
$SURFTYPE
 70
6
  9
$SURFU
 70
6
  9
$SURFV
 70
6
  9
$UCSBASE
  2

  9
$UCSNAME
  2

  9
$UCSORG
 10
0.0
 20
0.0
 30
0.0
  9
$UCSXDIR
 10
1.0
 20
0.0
 30
0.0
  9
$UCSYDIR
 10
0.0
 20
1.0
 30
0.0
  9
$UCSORTHOREF
  2

  9
$UCSORTHOVIEW
 70
0
  9
$UCSORGTOP
 10
0.0
 20
0.0
 30
0.0
  9
$UCSORGBOTTOM
 10
0.0
 20
0.0
 30
0.0
  9
$UCSORGLEFT
 10
0.0
 20
0.0
 30
0.0
  9
$UCSORGRIGHT
 10
0.0
 20
0.0
 30
0.0
  9
$UCSORGFRONT
 10
0.0
 20
0.0
 30
0.0
  9
$UCSORGBACK
 10
0.0
 20
0.0
 30
0.0
  9
$PUCSBASE
  2

  9
$PUCSNAME
  2

  9
$PUCSORG
 10
0.0
 20
0.0
 30
0.0
  9
$PUCSXDIR
 10
1.0
 20
0.0
 30
0.0
  9
$PUCSYDIR
 10
0.0
 20
1.0
 30
0.0
  9
$PUCSORTHOREF
  2

  9
$PUCSORTHOVIEW
 70
0
  9
$PUCSORGTOP
 10
0.0
 20
0.0
 30
0.0
  9
$PUCSORGBOTTOM
 10
0.0
 20
0.0
 30
0.0
  9
$PUCSORGLEFT
 10
0.0
 20
0.0
 30
0.0
  9
$PUCSORGRIGHT
 10
0.0
 20
0.0
 30
0.0
  9
$PUCSORGFRONT
 10
0.0
 20
0.0
 30
0.0
  9
$PUCSORGBACK
 10
0.0
 20
0.0
 30
0.0
  9
$USERI1
 70
0
  9
$USERI2
 70
0
  9
$USERI3
 70
0
  9
$USERI4
 70
0
  9
$USERI5
 70
0
  9
$USERR1
 40
0.0
  9
$USERR2
 40
0.0
  9
$USERR3
 40
0.0
  9
$USERR4
 40
0.0
  9
$USERR5
 40
0.0
  9
$WORLDVIEW
 70
1
  9
$SHADEDGE
 70
3
  9
$SHADEDIF
 70
70
  9
$TILEMODE
 70
1
  9
$MAXACTVP
 70
64
  9
$PINSBASE
 10
0.0
 20
0.0
 30
0.0
  9
$PLIMCHECK
 70
0
  9
$PEXTMIN
 10
1e+20
 20
1e+20
 30
1e+20
  9
$PEXTMAX
 10
-1e+20
 20
-1e+20
 30
-1e+20
  9
$PLIMMIN
 10
0.0
 20
0.0
  9
$PLIMMAX
 10
420.0
 20
297.0
  9
$UNITMODE
 70
0
  9
$VISRETAIN
 70
1
  9
$PLINEGEN
 70
0
  9
$PSLTSCALE
 70
1
  9
$TREEDEPTH
 70
3020
  9
$CMLSTYLE
  2
Standard
  9
$CMLJUST
 70
0
  9
$CMLSCALE
 40
20.0
  9
$PROXYGRAPHICS
 70
1
  9
$MEASUREMENT
 70
1
  9
$CELWEIGHT
370
-1
  9
$ENDCAPS
280
0
  9
$JOINSTYLE
280
0
  9
$LWDISPLAY
290
0
  9
$INSUNITS
 70
6
  9
$HYPERLINKBASE
  1

  9
$STYLESHEET
  1

  9
$XEDIT
290
1
  9
$CEPSNTYPE
380
0
  9
$PSTYLEMODE
290
1
  9
$FINGERPRINTGUID
  2
{9BFDB93E-D448-4D27-A74F-5C322E03858E}
  9
$VERSIONGUID
  2
{591241DE-F617-4C22-9C81-2734248F4FB8}
  9
$EXTNAMES
290
1
  9
$PSVPSCALE
 40
0.0
  9
$OLESTARTUP
290
0
  9
$SORTENTS
280
127
  9
$INDEXCTL
280
0
  9
$HIDETEXT
280
1
  9
$XCLIPFRAME
290
1
  9
$HALOGAP
280
0
  9
$OBSCOLOR
 70
257
  9
$OBSLTYPE
280
0
  9
$INTERSECTIONDISPLAY
280
0
  9
$INTERSECTIONCOLOR
 70
257
  9
$DIMASSOC
280
2
  9
$PROJECTNAME
  1

  9
$CAMERADISPLAY
290
0
  9
$LENSLENGTH
 40
50.0
  9
$CAMERAHEIGHT
 40
0.0
  9
$STEPSPERSEC
 40
24.0
  9
$STEPSIZE
 40
100.0
  9
$3DDWFPREC
 40
2.0
  9
$PSOLWIDTH
 40
0.005
  9
$PSOLHEIGHT
 40
0.08
  9
$LOFTANG1
 40
1.570796326795
  9
$LOFTANG2
 40
1.570796326795
  9
$LOFTMAG1
 40
0.0
  9
$LOFTMAG2
 40
0.0
  9
$LOFTPARAM
 70
7
  9
$LOFTNORMALS
280
1
  9
$LATITUDE
 40
37.795
  9
$LONGITUDE
 40
-122.394
  9
$NORTHDIRECTION
 40
0.0
  9
$TIMEZONE
 70
-8000
  9
$LIGHTGLYPHDISPLAY
280
1
  9
$TILEMODELIGHTSYNCH
280
1
  9
$CMATERIAL
347
20
  9
$SOLIDHIST
280
0
  9
$SHOWHIST
280
1
  9
$DWFFRAME
280
2
  9
$DGNFRAME
280
2
  9
$REALWORLDSCALE
290
1
  9
$INTERFERECOLOR
 62
256
  9
$CSHADOW
280
0
  9
$SHADOWPLANELOCATION
 40
0.0
  0
ENDSEC
  0
SECTION
  2
CLASSES
  0
CLASS
  1
ACDBDICTIONARYWDFLT
  2
AcDbDictionaryWithDefault
  3
ObjectDBX Classes
 90
0
 91
0
280
0
281
0
  0
CLASS
  1
SUN
  2
AcDbSun
  3
SCENEOE
 90
1153
 91
0
280
0
281
0
  0
CLASS
  1
VISUALSTYLE
  2
AcDbVisualStyle
  3
ObjectDBX Classes
 90
4095
 91
0
280
0
281
0
  0
CLASS
  1
MATERIAL
  2
AcDbMaterial
  3
ObjectDBX Classes
 90
1153
 91
0
280
0
281
0
  0
CLASS
  1
SCALE
  2
AcDbScale
  3
ObjectDBX Classes
 90
1153
 91
0
280
0
281
0
  0
CLASS
  1
TABLESTYLE
  2
AcDbTableStyle
  3
ObjectDBX Classes
 90
4095
 91
0
280
0
281
0
  0
CLASS
  1
MLEADERSTYLE
  2
AcDbMLeaderStyle
  3
ACDB_MLEADERSTYLE_CLASS
 90
4095
 91
0
280
0
281
0
  0
CLASS
  1
DICTIONARYVAR
  2
AcDbDictionaryVar
  3
ObjectDBX Classes
 90
0
 91
0
280
0
281
0
  0
CLASS
  1
CELLSTYLEMAP
  2
AcDbCellStyleMap
  3
ObjectDBX Classes
 90
1152
 91
0
280
0
281
0
  0
CLASS
  1
MENTALRAYRENDERSETTINGS
  2
AcDbMentalRayRenderSettings
  3
SCENEOE
 90
1024
 91
0
280
0
281
0
  0
CLASS
  1
ACDBDETAILVIEWSTYLE
  2
AcDbDetailViewStyle
  3
ObjectDBX Classes
 90
1025
 91
0
280
0
281
0
  0
CLASS
  1
ACDBSECTIONVIEWSTYLE
  2
AcDbSectionViewStyle
  3
ObjectDBX Classes
 90
1025
 91
0
280
0
281
0
  0
CLASS
  1
RASTERVARIABLES
  2
AcDbRasterVariables
  3
ISM
 90
0
 91
0
280
0
281
0
  0
CLASS
  1
ACDBPLACEHOLDER
  2
AcDbPlaceHolder
  3
ObjectDBX Classes
 90
0
 91
0
280
0
281
0
  0
CLASS
  1
LAYOUT
  2
AcDbLayout
  3
ObjectDBX Classes
 90
0
 91
0
280
0
281
0
  0
ENDSEC
  0
SECTION
  2
TABLES
  0
TABLE
  2
VPORT
  5
8
330
0
100
AcDbSymbolTable
 70
1
  0
VPORT
  5
23
330
8
100
AcDbSymbolTableRecord
100
AcDbViewportTableRecord
  2
*Active
 70
0
 10
0.0
 20
0.0
 11
1.0
 21
1.0
 12
0.0
 22
0.0
 13
0.0
 23
0.0
 14
0.5
 24
0.5
 15
0.5
 25
0.5
 16
0.0
 26
0.0
 36
1.0
 17
0.0
 27
0.0
 37
0.0
 40
1000.0
 41
1.34
 42
50.0
 43
0.0
 44
0.0
 50
0.0
 51
0.0
 71
0
 72
1000
 73
1
 74
3
 75
0
 76
0
 77
0
 78
0
281
0
 65
0
146
0.0
  0
ENDTAB
  0
TABLE
  2
LTYPE
  5
2
330
0
100
AcDbSymbolTable
 70
21
  0
LTYPE
  5
24
330
2
100
AcDbSymbolTableRecord
100
AcDbLinetypeTableRecord
  2
ByBlock
 70
0
  3

 72
65
 73
0
 40
0.0
  0
LTYPE
  5
25
330
2
100
AcDbSymbolTableRecord
100
AcDbLinetypeTableRecord
  2
ByLayer
 70
0
  3

 72
65
 73
0
 40
0.0
  0
LTYPE
  5
26
330
2
100
AcDbSymbolTableRecord
100
AcDbLinetypeTableRecord
  2
Continuous
 70
0
  3

 72
65
 73
0
 40
0.0
  0
LTYPE
  5
2F
330
2
100
AcDbSymbolTableRecord
100
AcDbLinetypeTableRecord
  2
CENTER
 70
0
  3
Center ____ _ ____ _ ____ _ ____ _ ____ _ ____
 72
65
 73
4
 40
5.08
 49
3.175
 74
0
 49
-0.635
 74
0
 49
0.635
 74
0
 49
-0.635
 74
0
  0
LTYPE
  5
30
330
2
100
AcDbSymbolTableRecord
100
AcDbLinetypeTableRecord
  2
CENTERX2
 70
0
  3
Center (2x) ________  __  ________  __  ________
 72
65
 73
4
 40
8.89
 49
6.35
 74
0
 49
-0.635
 74
0
 49
1.27
 74
0
 49
-0.635
 74
0
  0
LTYPE
  5
31
330
2
100
AcDbSymbolTableRecord
100
AcDbLinetypeTableRecord
  2
CENTER2
 70
0
  3
Center (.5x) ____ _ ____ _ ____ _ ____ _ ____
 72
65
 73
4
 40
2.54
 49
1.587
 74
0
 49
-0.318
 74
0
 49
0.318
 74
0
 49
-0.318
 74
0
  0
LTYPE
  5
32
330
2
100
AcDbSymbolTableRecord
100
AcDbLinetypeTableRecord
  2
DASHED
 70
0
  3
Dashed __ __ __ __ __ __ __ __ __ __ __ __ __ _
 72
65
 73
2
 40
1.524
 49
1.27
 74
0
 49
-0.254
 74
0
  0
LTYPE
  5
33
330
2
100
AcDbSymbolTableRecord
100
AcDbLinetypeTableRecord
  2
DASHEDX2
 70
0
  3
Dashed (2x) ____  ____  ____  ____  ____  ____
 72
65
 73
2
 40
3.048
 49
2.54
 74
0
 49
-0.508
 74
0
  0
LTYPE
  5
34
330
2
100
AcDbSymbolTableRecord
100
AcDbLinetypeTableRecord
  2
DASHED2
 70
0
  3
Dashed (.5x) _ _ _ _ _ _ _ _ _ _ _ _ _ _
 72
65
 73
2
 40
0.762
 49
0.635
 74
0
 49
-0.127
 74
0
  0
LTYPE
  5
35
330
2
100
AcDbSymbolTableRecord
100
AcDbLinetypeTableRecord
  2
PHANTOM
 70
0
  3
Phantom ______  __  __  ______  __  __  ______
 72
65
 73
6
 40
6.35
 49
3.175
 74
0
 49
-0.635
 74
0
 49
0.635
 74
0
 49
-0.635
 74
0
 49
0.635
 74
0
 49
-0.635
 74
0
  0
LTYPE
  5
36
330
2
100
AcDbSymbolTableRecord
100
AcDbLinetypeTableRecord
  2
PHANTOMX2
 70
0
  3
Phantom (2x)____________    ____    ____    ____________
 72
65
 73
6
 40
10.795
 49
6.35
 74
0
 49
-0.635
 74
0
 49
1.27
 74
0
 49
-0.635
 74
0
 49
1.27
 74
0
 49
-0.635
 74
0
  0
LTYPE
  5
37
330
2
100
AcDbSymbolTableRecord
100
AcDbLinetypeTableRecord
  2
PHANTOM2
 70
0
  3
Phantom (.5x) ___ _ _ ___ _ _ ___ _ _ ___ _ _ ___
 72
65
 73
6
 40
3.175
 49
1.587
 74
0
 49
-0.318
 74
0
 49
0.318
 74
0
 49
-0.318
 74
0
 49
0.318
 74
0
 49
-0.318
 74
0
  0
LTYPE
  5
38
330
2
100
AcDbSymbolTableRecord
100
AcDbLinetypeTableRecord
  2
DASHDOT
 70
0
  3
Dash dot __ . __ . __ . __ . __ . __ . __ . __
 72
65
 73
4
 40
3.556
 49
2.54
 74
0
 49
-0.508
 74
0
 49
0.0
 74
0
 49
-0.508
 74
0
  0
LTYPE
  5
39
330
2
100
AcDbSymbolTableRecord
100
AcDbLinetypeTableRecord
  2
DASHDOTX2
 70
0
  3
Dash dot (2x) ____  .  ____  .  ____  .  ____
 72
65
 73
4
 40
6.096
 49
5.08
 74
0
 49
-0.508
 74
0
 49
0.0
 74
0
 49
-0.508
 74
0
  0
LTYPE
  5
3A
330
2
100
AcDbSymbolTableRecord
100
AcDbLinetypeTableRecord
  2
DASHDOT2
 70
0
  3
Dash dot (.5x) _ . _ . _ . _ . _ . _ . _ . _
 72
65
 73
4
 40
1.778
 49
1.27
 74
0
 49
-0.254
 74
0
 49
0.0
 74
0
 49
-0.254
 74
0
  0
LTYPE
  5
3B
330
2
100
AcDbSymbolTableRecord
100
AcDbLinetypeTableRecord
  2
DOT
 70
0
  3
Dot .  .  .  .  .  .  .  .  .  .  .  .  .  .  .  .
 72
65
 73
2
 40
0.508
 49
0.0
 74
0
 49
-0.508
 74
0
  0
LTYPE
  5
3C
330
2
100
AcDbSymbolTableRecord
100
AcDbLinetypeTableRecord
  2
DOTX2
 70
0
  3
Dot (2x) .    .    .    .    .    .    .    . 
 72
65
 73
2
 40
1.016
 49
0.0
 74
0
 49
-1.016
 74
0
  0
LTYPE
  5
3D
330
2
100
AcDbSymbolTableRecord
100
AcDbLinetypeTableRecord
  2
DOT2
 70
0
  3
Dot (.5) . . . . . . . . . . . . . . . . . . . 
 72
65
 73
2
 40
0.254
 49
0.0
 74
0
 49
-0.254
 74
0
  0
LTYPE
  5
3E
330
2
100
AcDbSymbolTableRecord
100
AcDbLinetypeTableRecord
  2
DIVIDE
 70
0
  3
Divide __ . . __ . . __ . . __ . . __ . . __
 72
65
 73
6
 40
4.064
 49
2.54
 74
0
 49
-0.508
 74
0
 49
0.0
 74
0
 49
-0.508
 74
0
 49
0.0
 74
0
 49
-0.508
 74
0
  0
LTYPE
  5
3F
330
2
100
AcDbSymbolTableRecord
100
AcDbLinetypeTableRecord
  2
DIVIDEX2
 70
0
  3
Divide (2x) ____  . .  ____  . .  ____  . .  ____
 72
65
 73
6
 40
6.604
 49
5.08
 74
0
 49
-0.508
 74
0
 49
0.0
 74
0
 49
-0.508
 74
0
 49
0.0
 74
0
 49
-0.508
 74
0
  0
LTYPE
  5
40
330
2
100
AcDbSymbolTableRecord
100
AcDbLinetypeTableRecord
  2
DIVIDE2
 70
0
  3
Divide(.5x) _ . _ . _ . _ . _ . _ . _ . _
 72
65
 73
6
 40
2.032
 49
1.27
 74
0
 49
-0.254
 74
0
 49
0.0
 74
0
 49
-0.254
 74
0
 49
0.0
 74
0
 49
-0.254
 74
0
  0
ENDTAB
  0
TABLE
  2
LAYER
  5
1
330
0
100
AcDbSymbolTable
 70
4
  0
LAYER
  5
27
330
1
100
AcDbSymbolTableRecord
100
AcDbLayerTableRecord
  2
0
 70
0
 62
7
  6
Continuous
370
-3
390
13
347
21
  0
LAYER
  5
28
330
1
100
AcDbSymbolTableRecord
100
AcDbLayerTableRecord
  2
Defpoints
 70
0
 62
7
  6
Continuous
290
0
370
-3
390
13
347
21
  0
LAYER
  5
8A
330
1
100
AcDbSymbolTableRecord
100
AcDbLayerTableRecord
  2
Layer
 70
0
 62
1
  6
Continuous
370
50
390
13
347
21
  0
LAYER
  5
8B
330
1
100
AcDbSymbolTableRecord
100
AcDbLayerTableRecord
  2
NumLabel
 70
0
 62
1
  6
Continuous
370
15
390
13
347
21
  0
ENDTAB
  0
TABLE
  2
STYLE
  5
5
330
0
100
AcDbSymbolTable
 70
26
  0
STYLE
  5
29
330
5
100
AcDbSymbolTableRecord
100
AcDbTextStyleTableRecord
  2
Standard
 70
0
 40
0.0
 41
1.0
 50
0.0
 71
0
 42
2.5
  3
txt
  4

  0
STYLE
  5
41
330
5
100
AcDbSymbolTableRecord
100
AcDbTextStyleTableRecord
  2
OpenSans-Light
 70
0
 40
0.0
 41
1.0
 50
0.0
 71
0
 42
2.5
  3
OpenSans-Light.ttf
  4

  0
STYLE
  5
42
330
5
100
AcDbSymbolTableRecord
100
AcDbTextStyleTableRecord
  2
OpenSans-Light-Italic
 70
0
 40
0.0
 41
1.0
 50
0.0
 71
0
 42
2.5
  3
OpenSans-LightItalic.ttf
  4

  0
STYLE
  5
43
330
5
100
AcDbSymbolTableRecord
100
AcDbTextStyleTableRecord
  2
OpenSans
 70
0
 40
0.0
 41
1.0
 50
0.0
 71
0
 42
2.5
  3
OpenSans-Regular.ttf
  4

  0
STYLE
  5
44
330
5
100
AcDbSymbolTableRecord
100
AcDbTextStyleTableRecord
  2
OpenSans-Italic
 70
0
 40
0.0
 41
1.0
 50
0.0
 71
0
 42
2.5
  3
OpenSans-Italic.ttf
  4

  0
STYLE
  5
45
330
5
100
AcDbSymbolTableRecord
100
AcDbTextStyleTableRecord
  2
OpenSans-SemiBold
 70
0
 40
0.0
 41
1.0
 50
0.0
 71
0
 42
2.5
  3
OpenSans-SemiBold.ttf
  4

  0
STYLE
  5
46
330
5
100
AcDbSymbolTableRecord
100
AcDbTextStyleTableRecord
  2
OpenSans-SemiBoldItalic
 70
0
 40
0.0
 41
1.0
 50
0.0
 71
0
 42
2.5
  3
OpenSans-SemiBoldItalic.ttf
  4

  0
STYLE
  5
47
330
5
100
AcDbSymbolTableRecord
100
AcDbTextStyleTableRecord
  2
OpenSans-Bold
 70
0
 40
0.0
 41
1.0
 50
0.0
 71
0
 42
2.5
  3
OpenSans-Bold.ttf
  4

  0
STYLE
  5
48
330
5
100
AcDbSymbolTableRecord
100
AcDbTextStyleTableRecord
  2
OpenSans-BoldItalic
 70
0
 40
0.0
 41
1.0
 50
0.0
 71
0
 42
2.5
  3
OpenSans-BoldItalic.ttf
  4

  0
STYLE
  5
49
330
5
100
AcDbSymbolTableRecord
100
AcDbTextStyleTableRecord
  2
OpenSans-ExtraBold
 70
0
 40
0.0
 41
1.0
 50
0.0
 71
0
 42
2.5
  3
OpenSans-ExtraBold.ttf
  4

  0
STYLE
  5
4A
330
5
100
AcDbSymbolTableRecord
100
AcDbTextStyleTableRecord
  2
OpenSans-ExtraBoldItalic
 70
0
 40
0.0
 41
1.0
 50
0.0
 71
0
 42
2.5
  3
OpenSans-ExtraBoldItalic.ttf
  4

  0
STYLE
  5
4B
330
5
100
AcDbSymbolTableRecord
100
AcDbTextStyleTableRecord
  2
OpenSansCondensed-Bold
 70
0
 40
0.0
 41
1.0
 50
0.0
 71
0
 42
2.5
  3
OpenSansCondensed-Bold.ttf
  4

  0
STYLE
  5
4C
330
5
100
AcDbSymbolTableRecord
100
AcDbTextStyleTableRecord
  2
OpenSansCondensed-Light
 70
0
 40
0.0
 41
1.0
 50
0.0
 71
0
 42
2.5
  3
OpenSansCondensed-Light.ttf
  4

  0
STYLE
  5
4D
330
5
100
AcDbSymbolTableRecord
100
AcDbTextStyleTableRecord
  2
OpenSansCondensed-Italic
 70
0
 40
0.0
 41
1.0
 50
0.0
 71
0
 42
2.5
  3
OpenSansCondensed-LightItalic.ttf
  4

  0
STYLE
  5
4E
330
5
100
AcDbSymbolTableRecord
100
AcDbTextStyleTableRecord
  2
LiberationSans
 70
0
 40
0.0
 41
1.0
 50
0.0
 71
0
 42
2.5
  3
LiberationSans-Regular.ttf
  4

  0
STYLE
  5
4F
330
5
100
AcDbSymbolTableRecord
100
AcDbTextStyleTableRecord
  2
LiberationSans-Bold
 70
0
 40
0.0
 41
1.0
 50
0.0
 71
0
 42
2.5
  3
LiberationSans-Bold.ttf
  4

  0
STYLE
  5
50
330
5
100
AcDbSymbolTableRecord
100
AcDbTextStyleTableRecord
  2
LiberationSans-BoldItalic
 70
0
 40
0.0
 41
1.0
 50
0.0
 71
0
 42
2.5
  3
LiberationSans-BoldItalic.ttf
  4

  0
STYLE
  5
51
330
5
100
AcDbSymbolTableRecord
100
AcDbTextStyleTableRecord
  2
LiberationSans-Italic
 70
0
 40
0.0
 41
1.0
 50
0.0
 71
0
 42
2.5
  3
LiberationSans-Italic.ttf
  4

  0
STYLE
  5
52
330
5
100
AcDbSymbolTableRecord
100
AcDbTextStyleTableRecord
  2
LiberationSerif
 70
0
 40
0.0
 41
1.0
 50
0.0
 71
0
 42
2.5
  3
LiberationSerif-Regular.ttf
  4

  0
STYLE
  5
53
330
5
100
AcDbSymbolTableRecord
100
AcDbTextStyleTableRecord
  2
LiberationSerif-Bold
 70
0
 40
0.0
 41
1.0
 50
0.0
 71
0
 42
2.5
  3
LiberationSerif-Bold.ttf
  4

  0
STYLE
  5
54
330
5
100
AcDbSymbolTableRecord
100
AcDbTextStyleTableRecord
  2
LiberationSerif-BoldItalic
 70
0
 40
0.0
 41
1.0
 50
0.0
 71
0
 42
2.5
  3
LiberationSerif-BoldItalic.ttf
  4

  0
STYLE
  5
55
330
5
100
AcDbSymbolTableRecord
100
AcDbTextStyleTableRecord
  2
LiberationSerif-Italic
 70
0
 40
0.0
 41
1.0
 50
0.0
 71
0
 42
2.5
  3
LiberationSerif-Italic.ttf
  4

  0
STYLE
  5
56
330
5
100
AcDbSymbolTableRecord
100
AcDbTextStyleTableRecord
  2
LiberationMono
 70
0
 40
0.0
 41
1.0
 50
0.0
 71
0
 42
2.5
  3
LiberationMono-Regular.ttf
  4

  0
STYLE
  5
57
330
5
100
AcDbSymbolTableRecord
100
AcDbTextStyleTableRecord
  2
LiberationMono-Bold
 70
0
 40
0.0
 41
1.0
 50
0.0
 71
0
 42
2.5
  3
LiberationMono-Bold.ttf
  4

  0
STYLE
  5
58
330
5
100
AcDbSymbolTableRecord
100
AcDbTextStyleTableRecord
  2
LiberationMono-BoldItalic
 70
0
 40
0.0
 41
1.0
 50
0.0
 71
0
 42
2.5
  3
LiberationMono-BoldItalic.ttf
  4

  0
STYLE
  5
59
330
5
100
AcDbSymbolTableRecord
100
AcDbTextStyleTableRecord
  2
LiberationMono-Italic
 70
0
 40
0.0
 41
1.0
 50
0.0
 71
0
 42
2.5
  3
LiberationMono-Italic.ttf
  4

  0
ENDTAB
  0
TABLE
  2
VIEW
  5
7
330
0
100
AcDbSymbolTable
 70
0
  0
ENDTAB
  0
TABLE
  2
UCS
  5
6
330
0
100
AcDbSymbolTable
 70
0
  0
ENDTAB
  0
TABLE
  2
APPID
  5
3
330
0
100
AcDbSymbolTable
 70
3
  0
APPID
  5
2A
330
3
100
AcDbSymbolTableRecord
100
AcDbRegAppTableRecord
  2
ACAD
 70
0
  0
APPID
  5
A6
330
3
100
AcDbSymbolTableRecord
100
AcDbRegAppTableRecord
  2
HATCHBACKGROUNDCOLOR
 70
0
  0
APPID
  5
A7
330
3
100
AcDbSymbolTableRecord
100
AcDbRegAppTableRecord
  2
EZDXF
 70
0
  0
ENDTAB
  0
TABLE
  2
DIMSTYLE
  5
4
330
0
100
AcDbSymbolTable
 70
12
100
AcDbDimStyleTable
  0
DIMSTYLE
105
2B
330
4
100
AcDbSymbolTableRecord
100
AcDbDimStyleTableRecord
  2
Standard
 70
0
 40
1.0
 41
2.5
 42
0.625
 43
3.75
 44
1.25
 45
0.0
 46
0.0
 47
0.0
 48
0.0
 49
2.5
140
2.5
141
2.5
142
0.0
143
0.03937007874
144
1.0
145
0.0
146
1.0
147
0.625
148
0.0
 69
0
 70
0
 71
0
 72
0
 73
0
 74
0
 75
0
 76
0
 77
1
 78
8
 79
3
170
0
171
3
172
1
173
0
174
0
175
0
176
0
177
0
178
0
179
2
271
2
272
2
273
2
274
3
275
0
276
0
277
2
278
44
279
0
280
0
281
0
282
0
283
0
284
8
285
0
286
0
288
0
289
3
290
0
371
-2
372
-2
  0
DIMSTYLE
105
73
330
4
100
AcDbSymbolTableRecord
100
AcDbDimStyleTableRecord
  2
EZDXF
 70
0
 40
1.0
 41
0.175
 42
0.125
 43
3.75
 44
0.375
 45
0.0
 46
0.0
 47
0.0
 48
0.0
 49
2.5
140
0.25
141
2.5
142
0.0
143
0.03937007874
144
100.0
145
0.0
146
0.5
147
0.1
148
0.0
 69
0
 70
0
 71
0
 72
0
 73
0
 74
0
 75
0
 76
0
 77
1
 78
12
 79
3
170
0
171
3
172
1
173
0
174
0
175
0
176
0
177
0
178
0
179
2
271
2
272
2
273
2
274
3
275
0
276
0
277
2
278
46
279
2
280
0
281
0
282
0
283
0
284
8
285
0
286
0
288
1
289
3
290
0
340
4C
342
74
371
-2
372
-2
  0
DIMSTYLE
105
7C
330
4
100
AcDbSymbolTableRecord
100
AcDbDimStyleTableRecord
  2
EZ_M_100_H25_CM
 70
0
 40
1.0
 41
0.25
 42
0.125
 43
3.75
 44
0.375
 45
0.0
 46
0.0
 47
0.0
 48
0.0
 49
2.5
140
0.25
141
2.5
142
0.125
143
0.03937007874
144
100.0
145
0.0
146
0.5
147
0.1
148
0.0
 69
0
 70
0
 71
0
 72
0
 73
0
 74
0
 75
0
 76
0
 77
1
 78
12
 79
3
170
0
171
3
172
1
173
0
174
0
175
0
176
0
177
0
178
0
179
2
271
2
272
2
273
2
274
3
275
0
276
0
277
2
278
46
279
2
280
0
281
0
282
0
283
0
284
8
285
0
286
0
288
1
289
3
290
0
340
4C
371
-2
372
-2
  0
DIMSTYLE
105
7D
330
4
100
AcDbSymbolTableRecord
100
AcDbDimStyleTableRecord
  2
EZ_M_50_H25_CM
 70
0
 40
1.0
 41
0.125
 42
0.0625
 43
3.75
 44
0.1875
 45
0.0
 46
0.0
 47
0.0
 48
0.0
 49
2.5
140
0.125
141
2.5
142
0.0625
143
0.03937007874
144
100.0
145
0.0
146
0.5
147
0.05
148
0.0
 69
0
 70
0
 71
0
 72
0
 73
0
 74
0
 75
0
 76
0
 77
1
 78
12
 79
3
170
0
171
3
172
1
173
0
174
0
175
0
176
0
177
0
178
0
179
2
271
2
272
2
273
2
274
3
275
0
276
0
277
2
278
46
279
2
280
0
281
0
282
0
283
0
284
8
285
0
286
0
288
1
289
3
290
0
340
4C
371
-2
372
-2
  0
DIMSTYLE
105
7E
330
4
100
AcDbSymbolTableRecord
100
AcDbDimStyleTableRecord
  2
EZ_M_25_H25_CM
 70
0
 40
1.0
 41
0.0625
 42
0.03125
 43
3.75
 44
0.09375
 45
0.0
 46
0.0
 47
0.0
 48
0.0
 49
2.5
140
0.0625
141
2.5
142
0.03125
143
0.03937007874
144
100.0
145
0.0
146
0.5
147
0.025
148
0.0
 69
0
 70
0
 71
0
 72
0
 73
0
 74
0
 75
0
 76
0
 77
1
 78
12
 79
3
170
0
171
3
172
1
173
0
174
0
175
0
176
0
177
0
178
0
179
2
271
2
272
2
273
2
274
3
275
0
276
0
277
2
278
46
279
2
280
0
281
0
282
0
283
0
284
8
285
0
286
0
288
1
289
3
290
0
340
4C
371
-2
372
-2
  0
DIMSTYLE
105
7F
330
4
100
AcDbSymbolTableRecord
100
AcDbDimStyleTableRecord
  2
EZ_M_20_H25_CM
 70
0
 40
1.0
 41
0.05
 42
0.025
 43
3.75
 44
0.07500000000000001
 45
0.0
 46
0.0
 47
0.0
 48
0.0
 49
2.5
140
0.05
141
2.5
142
0.025
143
0.03937007874
144
100.0
145
0.0
146
0.5
147
0.020000000000000004
148
0.0
 69
0
 70
0
 71
0
 72
0
 73
0
 74
0
 75
0
 76
0
 77
1
 78
12
 79
3
170
0
171
3
172
1
173
0
174
0
175
0
176
0
177
0
178
0
179
2
271
2
272
2
273
2
274
3
275
0
276
0
277
2
278
46
279
2
280
0
281
0
282
0
283
0
284
8
285
0
286
0
288
1
289
3
290
0
340
4C
371
-2
372
-2
  0
DIMSTYLE
105
80
330
4
100
AcDbSymbolTableRecord
100
AcDbDimStyleTableRecord
  2
EZ_M_10_H25_CM
 70
0
 40
1.0
 41
0.025
 42
0.0125
 43
3.75
 44
0.037500000000000006
 45
0.0
 46
0.0
 47
0.0
 48
0.0
 49
2.5
140
0.025
141
2.5
142
0.0125
143
0.03937007874
144
100.0
145
0.0
146
0.5
147
0.010000000000000002
148
0.0
 69
0
 70
0
 71
0
 72
0
 73
0
 74
0
 75
0
 76
0
 77
1
 78
12
 79
3
170
0
171
3
172
1
173
0
174
0
175
0
176
0
177
0
178
0
179
2
271
2
272
2
273
2
274
3
275
0
276
0
277
2
278
46
279
2
280
0
281
0
282
0
283
0
284
8
285
0
286
0
288
1
289
3
290
0
340
4C
371
-2
372
-2
  0
DIMSTYLE
105
81
330
4
100
AcDbSymbolTableRecord
100
AcDbDimStyleTableRecord
  2
EZ_M_5_H25_CM
 70
0
 40
1.0
 41
0.0125
 42
0.00625
 43
3.75
 44
0.018750000000000003
 45
0.0
 46
0.0
 47
0.0
 48
0.0
 49
2.5
140
0.0125
141
2.5
142
0.00625
143
0.03937007874
144
100.0
145
0.0
146
0.5
147
0.005000000000000001
148
0.0
 69
0
 70
0
 71
0
 72
0
 73
0
 74
0
 75
0
 76
0
 77
1
 78
12
 79
3
170
0
171
3
172
1
173
0
174
0
175
0
176
0
177
0
178
0
179
2
271
2
272
2
273
2
274
3
275
0
276
0
277
2
278
46
279
2
280
0
281
0
282
0
283
0
284
8
285
0
286
0
288
1
289
3
290
0
340
4C
371
-2
372
-2
  0
DIMSTYLE
105
82
330
4
100
AcDbSymbolTableRecord
100
AcDbDimStyleTableRecord
  2
EZ_M_1_H25_CM
 70
0
 40
1.0
 41
0.0025
 42
0.00125
 43
3.75
 44
0.00375
 45
0.0
 46
0.0
 47
0.0
 48
0.0
 49
2.5
140
0.0025
141
2.5
142
0.00125
143
0.03937007874
144
100.0
145
0.0
146
0.5
147
0.001
148
0.0
 69
0
 70
0
 71
0
 72
0
 73
0
 74
0
 75
0
 76
0
 77
1
 78
12
 79
3
170
0
171
3
172
1
173
0
174
0
175
0
176
0
177
0
178
0
179
2
271
2
272
2
273
2
274
3
275
0
276
0
277
2
278
46
279
2
280
0
281
0
282
0
283
0
284
8
285
0
286
0
288
1
289
3
290
0
340
4C
371
-2
372
-2
  0
DIMSTYLE
105
83
330
4
100
AcDbSymbolTableRecord
100
AcDbDimStyleTableRecord
  2
EZ_RADIUS
 70
0
 40
1.0
 41
0.25
 42
0.125
 43
3.75
 44
0.375
 45
0.0
 46
0.0
 47
0.0
 48
0.0
 49
2.5
140
0.25
141
0.0
142
0.0
143
0.03937007874
144
100.0
145
0.0
146
0.5
147
0.1
148
0.0
 69
0
 70
0
 71
0
 72
0
 73
0
 74
0
 75
0
 76
0
 77
1
 78
12
 79
3
170
0
171
3
172
0
173
0
174
0
175
0
176
0
177
0
178
0
179
2
271
2
272
2
273
2
274
3
275
0
276
0
277
2
278
46
279
1
280
0
281
0
282
0
283
0
284
8
285
0
286
0
288
1
289
3
290
0
340
4C
342
84
371
-2
372
-2
  0
DIMSTYLE
105
88
330
4
100
AcDbSymbolTableRecord
100
AcDbDimStyleTableRecord
  2
EZ_RADIUS_INSIDE
 70
0
 40
1.0
 41
0.25
 42
0.125
 43
3.75
 44
0.375
 45
0.0
 46
0.0
 47
0.0
 48
0.0
 49
2.5
140
0.25
141
0.0
142
0.0
143
0.03937007874
144
100.0
145
0.0
146
0.5
147
0.1
148
0.0
 69
0
 70
0
 71
0
 72
0
 73
0
 74
0
 75
0
 76
0
 77
0
 78
12
 79
3
170
0
171
3
172
0
173
0
174
1
175
0
176
0
177
0
178
0
179
2
271
2
272
2
273
2
274
3
275
0
276
0
277
2
278
46
279
0
280
0
281
0
282
0
283
0
284
8
285
0
286
0
288
1
289
0
290
0
340
4C
342
84
371
-2
372
-2
  0
DIMSTYLE
105
89
330
4
100
AcDbSymbolTableRecord
100
AcDbDimStyleTableRecord
  2
EZ_CURVED
 70
0
 40
1.0
 41
0.25
 42
0.125
 43
3.75
 44
0.375
 45
0.0
 46
0.0
 47
0.0
 48
0.0
 49
2.5
140
0.25
141
2.5
142
0.0
143
0.03937007874
144
100.0
145
0.0
146
0.5
147
0.1
148
0.0
 69
0
 70
0
 71
0
 72
0
 73
0
 74
0
 75
0
 76
0
 77
1
 78
12
 79
2
 90
2
170
0
171
3
172
1
173
0
174
0
175
0
176
0
177
0
178
0
179
2
271
2
272
2
273
2
274
3
275
0
276
0
277
2
278
46
279
2
280
0
281
0
282
0
283
0
284
8
285
0
286
0
288
1
289
3
290
0
340
4C
371
-2
372
-2
  0
ENDTAB
  0
TABLE
  2
BLOCK_RECORD
  5
9
330
0
100
AcDbSymbolTable
 70
5
  0
BLOCK_RECORD
  5
17
330
9
100
AcDbSymbolTableRecord
100
AcDbBlockTableRecord
  2
*Model_Space
340
1A
 70
0
280
1
281
0
  0
BLOCK_RECORD
  5
1B
330
9
100
AcDbSymbolTableRecord
100
AcDbBlockTableRecord
  2
*Paper_Space
340
1E
 70
0
280
1
281
0
  0
BLOCK_RECORD
  5
74
330
9
100
AcDbSymbolTableRecord
100
AcDbBlockTableRecord
  2
_ARCHTICK
340
0
 70
0
280
1
281
0
  0
BLOCK_RECORD
  5
78
330
9
100
AcDbSymbolTableRecord
100
AcDbBlockTableRecord
  2
_CLOSEDFILLED
340
0
 70
0
280
1
281
0
  0
BLOCK_RECORD
  5
84
330
9
100
AcDbSymbolTableRecord
100
AcDbBlockTableRecord
  2
_CLOSEDBLANK
340
0
 70
0
280
1
281
0
  0
ENDTAB
  0
ENDSEC
  0
SECTION
  2
BLOCKS
  0
BLOCK
  5
18
330
17
100
AcDbEntity
  8
0
100
AcDbBlockBegin
  2
*Model_Space
 70
0
 10
0.0
 20
0.0
 30
0.0
  3
*Model_Space
  1

  0
ENDBLK
  5
19
330
17
100
AcDbEntity
  8
0
100
AcDbBlockEnd
  0
BLOCK
  5
1C
330
1B
100
AcDbEntity
  8
0
100
AcDbBlockBegin
  2
*Paper_Space
 70
0
 10
0.0
 20
0.0
 30
0.0
  3
*Paper_Space
  1

  0
ENDBLK
  5
1D
330
1B
100
AcDbEntity
  8
0
100
AcDbBlockEnd
  0
BLOCK
  5
75
330
74
100
AcDbEntity
  8
0
100
AcDbBlockBegin
  2
_ARCHTICK
 70
0
 10
0.0
 20
0.0
 30
0.0
  3
_ARCHTICK
  1

  0
LWPOLYLINE
  5
77
330
74
100
AcDbEntity
  8
0
  6
BYBLOCK
 62
0
100
AcDbPolyline
 90
2
 70
0
 43
0.15
 10
-0.5
 20
-0.5
 10
0.5
 20
0.5
  0
ENDBLK
  5
76
330
74
100
AcDbEntity
  8
0
100
AcDbBlockEnd
  0
BLOCK
  5
79
330
78
100
AcDbEntity
  8
0
100
AcDbBlockBegin
  2
_CLOSEDFILLED
 70
0
 10
0.0
 20
0.0
 30
0.0
  3
_CLOSEDFILLED
  1

  0
SOLID
  5
7B
330
78
100
AcDbEntity
  8
0
  6
BYBLOCK
 62
0
100
AcDbTrace
 10
-1.0
 20
0.16439898372402537
 30
0.0
 11
0.0
 21
0.0
 31
0.0
 12
-1.0
 22
-0.16439898372402537
 32
0.0
 13
-1.0
 23
-0.16439898372402537
 33
0.0
  0
ENDBLK
  5
7A
330
78
100
AcDbEntity
  8
0
100
AcDbBlockEnd
  0
BLOCK
  5
85
330
84
100
AcDbEntity
  8
0
100
AcDbBlockBegin
  2
_CLOSEDBLANK
 70
0
 10
0.0
 20
0.0
 30
0.0
  3
_CLOSEDBLANK
  1

  0
LWPOLYLINE
  5
87
330
84
100
AcDbEntity
  8
0
  6
BYBLOCK
 62
0
100
AcDbPolyline
 90
3
 70
1
 10
-1.0
 20
0.16439898372402537
 10
0.0
 20
0.0
 10
-1.0
 20
-0.16439898372402537
  0
ENDBLK
  5
86
330
84
100
AcDbEntity
  8
0
100
AcDbBlockEnd
  0
ENDSEC
  0
SECTION
  2
ENTITIES
  0
LWPOLYLINE
  5
8C
330
17
100
AcDbEntity
  8
Layer
100
AcDbPolyline
 90
162
 70
1
 10
322.500000002736
 20
235.24245843405527
 10
316.71693002729944
 20
236.04517018135925
 10
310.4628879992981
 20
236.86045201775394
 10
304.197590340862
 20
237.62540777710706
 10
297.9223437364298
 20
238.34143327383347
 10
291.6400482649675
 20
239.0083336043991
 10
285.3513935124257
 20
239.62525948252386
 10
279.05549889288915
 20
240.1923355499949
 10
272.7540886722811
 20
240.7108181253633
 10
266.4516564216998
 20
241.1806661263019
 10
260.15098048421373
 20
241.6005172862009
 10
253.85198523356183
 20
241.96956190449558
 10
247.55585783545754
 20
242.28860023534983
 10
241.26677094736957
 20
242.5574982240781
 10
234.98791921439835
 20
242.7749963360274
 10
228.719122929125
 20
242.93965399826797
 10
222.460796594046
 20
243.05194771035988
 10
216.21684857407234
 20
243.1120266504177
 10
209.99062459229407
 20
243.1184997145335
 10
203.78257874747536
 20
243.0698152724728
 10
197.59286865498203
 20
242.9660245404219
 10
191.42549254172903
 20
242.80741302781277
 10
185.28456865820408
 20
242.59267791805786
 10
179.1706521421502
 20
242.31993038398576
 10
173.08471984061197
 20
241.98917077309167
 10
167.03122380489634
 20
241.60074693323813
 10
161.01503848862075
 20
241.15318643950621
 10
155.0370442989912
 20
240.64448610836757
 10
149.09929800454233
 20
240.07504506991643
 10
143.20794643674185
 20
239.44514321994774
 10
137.36761717271304
 20
238.752845937343
 10
131.57993633999834
 20
237.9967827598485
 10
125.84935338998775
 20
237.17796154243638
 10
120.1832288947962
 20
236.29625247695793
 10
114.58611354567984
 20
235.35018220674544
 10
109.06196012859223
 20
234.34078894945287
 10
103.62251869890312
 20
233.27226856119896
 10
98.28162563622263
 20
232.14528119175924
 10
93.0473859485868
 20
230.9590835031844
 10
87.92912102733106
 20
229.71795876447393
 10
82.94380673728361
 20
228.42806661076787
 10
78.10622109442716
 20
227.09150250711122
 10
73.4264898815629
 20
225.71232002257926
 10
68.91908571067555
 20
224.30057579564058
 10
64.60169984280819
 20
222.86521243376683
 10
60.48584488524523
 20
221.41161614949388
 10
56.57919248771711
 20
219.94935996021735
 10
52.89105126137591
 20
218.4907534583726
 10
49.427486341213495
 20
217.04373047030353
 10
46.187096504579785
 20
215.61380768353752
 10
43.165383290194
 20
214.20913995337247
 10
40.357561908879546
 20
212.83717603726492
 10
37.755844873132816
 20
211.50051508126577
 10
35.34826215577593
 20
210.19909414651525
 10
33.121146188213686
 20
208.93415965615088
 10
31.06225408380962
 20
207.70799858013743
 10
29.160366457249438
 20
206.52040569447556
 10
27.40363295941205
 20
205.36867833293232
 10
25.78011605927233
 20
204.2500181349083
 10
24.27847950117939
 20
203.16265473719912
 10
22.88974540102032
 20
202.10617179440874
 10
21.606561582497477
 20
201.07872894478422
 10
20.421847650913918
 20
200.07661730952827
 10
19.326443955276062
 20
199.09433820741805
 10
18.31052542869665
 20
198.12976263760729
 10
17.364565506721334
 20
197.18318901991213
 10
16.482094300178233
 20
196.2590399954335
 10
15.660065023317856
 20
195.3610220954405
 10
14.899660184184285
 20
194.49261531356515
 10
14.202799607852512
 20
193.65103599142503
 10
13.57073204086197
 20
192.8314115407007
 10
13.002139250508861
 20
192.02623353862805
 10
12.492449225760907
 20
191.2276129224969
 10
12.03620034415377
 20
190.4330154480244
 10
11.627906925977044
 20
189.64331842725036
 10
11.264323804976556
 20
188.86430543537617
 10
10.944225699408179
 20
188.10074098204342
 10
10.668375442204223
 20
187.35689277640964
 10
10.438187401029694
 20
186.63337028993627
 10
10.254492208184331
 20
185.92739028491474
 10
10.11701789024761
 20
185.23573387785558
 10
10.02433686784289
 20
184.5555805834125
 10
9.970919970865566
 20
183.80725025913182
 10
9.963931400853141
 20
183.2186892521683
 10
9.996063336944644
 20
182.54899711772714
 10
10.074126688740108
 20
181.8850517780831
 10
10.20350696074351
 20
181.22953918979275
 10
10.391739858720172
 20
180.57996821426454
 10
10.64617481428877
 20
179.93233889645595
 10
10.970517824376458
 20
179.28527940912593
 10
11.363461623772594
 20
178.64099939853702
 10
11.820362857096086
 20
178.00438547130065
 10
12.337818168381602
 20
177.37999239366397
 10
12.915450682721854
 20
176.7710841222183
 10
13.556695291309097
 20
176.1786084812991
 10
14.265228359027361
 20
175.60222244806246
 10
15.04355669483968
 20
175.0404606351096
 10
15.890879650929293
 20
174.4918924501117
 10
16.8062283687741
 20
173.9550043213367
 10
17.788349863063246
 20
173.4292956505283
 10
18.84005994538066
 20
172.9145403154985
 10
19.965662140512535
 20
172.41068249703676
 10
21.172627676812965
 20
171.91701069209358
 10
22.46821950723131
 20
171.43157770141036
 10
23.859471323939744
 20
170.95148832681096
 10
25.353965914458144
 20
170.47357049565557
 10
26.959436191581347
 20
169.99510027549405
 10
28.686554464547186
 20
169.51458781302244
 10
30.54864432805269
 20
169.03133436594558
 10
32.56206547885279
 20
168.54455690325747
 10
34.74425426513017
 20
168.0527860503157
 10
37.11426016626646
 20
167.554614814919
 10
39.692228866626664
 20
167.04951446682983
 10
42.50101681223089
 20
166.53841467143567
 10
45.565400843013634
 20
166.02285305566193
 10
48.90906152899365
 20
165.50352757456898
 10
52.55163921130318
 20
164.98165106095644
 10
56.50806663867837
 20
164.46117864030217
 10
60.78838633364248
 20
163.947759576924
 10
65.39468978974932
 20
163.44572058377506
 10
70.3160245577115
 20
162.95870833667368
 10
75.53204400664325
 20
162.4930541647731
 10
81.0195126313568
 20
162.0540830504363
 10
86.74915125102865
 20
161.643337724048
 10
92.68687058538615
 20
161.2630296631749
 10
98.80522396953214
 20
160.91575932854397
 10
105.08068373386726
 20
160.60024207078968
 10
111.48920172227878
 20
160.31501705268892
 10
118.01739620923763
 20
160.06092390735844
 10
124.66284934847546
 20
159.83274513609103
 10
131.40594297439134
 20
159.61787431205633
 10
132.11820857203128
 20
159.5961540041875
 10
132.08772806550974
 20
158.59661864277092
 10
138.17189576947283
 20
158.41108220263672
 10
144.98611447982734
 20
158.22118437857372
 10
151.82351023353053
 20
158.05960129283676
 10
158.71064695473723
 20
157.9251633240417
 10
165.66145566284032
 20
157.80646231056056
 10
172.66263134073057
 20
157.6913083722862
 10
179.6879564713767
 20
157.57352843381534
 10
186.71589877008017
 20
157.45585908764093
 10
193.73098964333292
 20
157.34850365555008
 10
200.7479212022453
 20
157.25982261529944
 10
207.79258620908598
 20
157.18761820700965
 10
214.8750444100058
 20
157.12228089319967
 10
221.98247240931414
 20
157.05652797232568
 10
229.10416441265667
 20
156.99035241961334
 10
236.23139107683068
 20
156.9254529196812
 10
243.356255073074
 20
156.86095541908392
 10
250.46827257390248
 20
156.79707618510307
 10
257.56230228754663
 20
156.7389697189569
 10
264.6473662586014
 20
156.69109972935536
 10
271.73325411701126
 20
156.64954474862336
 10
278.81555895684863
 20
156.60397876931705
 10
285.8983902333527
 20
156.55002406586897
 10
292.9817269107268
 20
156.49386950001355
 10
300.06386583341157
 20
156.44499164150062
 10
307.1534045145274
 20
156.40386833224883
 10
314.2466057219851
 20
156.3641489755044
 10
321.33003926286204
 20
156.3232131672902
 10
322.5000000121553
 20
156.31737146525398
 10
322.500000002736
 20
235.24245843405527
  0
LWPOLYLINE
  5
8D
330
17
100
AcDbEntity
  8
NumLabel
 62
1
100
AcDbPolyline
 90
6
 70
0
 10
190.00000000000003
 20
178.75
 10
185.00000000000003
 20
178.75
 10
185.00000000000003
 20
173.75
 10
190.00000000000003
 20
173.75
 10
190.00000000000003
 20
168.75
 10
185.00000000000003
 20
168.75
  0
LWPOLYLINE
  5
8E
330
17
100
AcDbEntity
  8
NumLabel
 62
1
100
AcDbPolyline
 90
2
 70
0
 10
197.50000000000003
 20
178.75
 10
195.50000000000003
 20
178.75
  0
LWPOLYLINE
  5
8F
330
17
100
AcDbEntity
  8
NumLabel
 62
1
100
AcDbPolyline
 90
4
 70
0
 10
194.50000000000003
 20
178.75
 10
192.50000000000003
 20
178.75
 10
192.50000000000003
 20
168.75
 10
194.50000000000003
 20
168.75
  0
LWPOLYLINE
  5
90
330
17
100
AcDbEntity
  8
NumLabel
 62
1
100
AcDbPolyline
 90
4
 70
0
 10
195.50000000000003
 20
168.75
 10
197.50000000000003
 20
168.75
 10
197.50000000000003
 20
173.75
 10
195.50000000000003
 20
173.75
  0
LWPOLYLINE
  5
91
330
17
100
AcDbEntity
  8
NumLabel
 62
1
100
AcDbPolyline
 90
2
 70
0
 10
194.50000000000003
 20
173.75
 10
192.50000000000003
 20
173.75
  0
LWPOLYLINE
  5
92
330
17
100
AcDbEntity
  8
Layer
100
AcDbPolyline
 90
5
 70
1
 10
183.67607412685285
 20
238.51692247551466
 10
179.68005052816207
 20
238.33860983236679
 10
179.5017378850142
 20
242.33463343105757
 10
183.49776148370498
 20
242.51294607420544
 10
183.67607412685285
 20
238.51692247551466
  0
LWPOLYLINE
  5
93
330
17
100
AcDbEntity
  8
Layer
100
AcDbPolyline
 90
5
 70
1
 10
77.37516028153618
 20
222.70586329099083
 10
73.53836811829245
 20
221.57492302021106
 10
72.40742784751268
 20
225.4117151834548
 10
76.24422001075641
 20
226.54265545423456
 10
77.37516028153618
 20
222.70586329099083
  0
LWPOLYLINE
  5
94
330
17
100
AcDbEntity
  8
Layer
100
AcDbPolyline
 90
5
 70
1
 10
24.039190425515546
 20
196.604718139264
 10
22.55073218050781
 20
195.2688693256371
 10
19.211110146440472
 20
198.99001493815646
 10
20.699568391448206
 20
200.32586375178337
 10
24.039190425515546
 20
196.604718139264
  0
LWPOLYLINE
  5
95
330
17
100
AcDbEntity
  8
Layer
100
AcDbPolyline
 90
5
 70
1
 10
17.073930868397557
 20
179.74098950916877
 10
18.697939932139906
 20
178.57368725144684
 10
15.77968428783509
 20
174.51366459209098
 10
14.155675224092745
 20
175.6809668498129
 10
17.073930868397557
 20
179.74098950916877
  0
LWPOLYLINE
  5
96
330
17
100
AcDbEntity
  8
Layer
100
AcDbPolyline
 90
5
 70
1
 10
99.11473983818107
 20
164.90525048449487
 10
103.1096944537727
 20
164.70440820965436
 10
102.90885217893216
 20
160.70945359406275
 10
98.91389756334053
 20
160.91029586890326
 10
99.11473983818107
 20
164.90525048449487
  0
LWPOLYLINE
  5
97
330
17
100
AcDbEntity
  8
Layer
100
AcDbPolyline
 90
300
 70
1
 10
286.12
 20
200.0
 10
286.11147324759867
 20
200.8176785232135
 10
286.08589675556857
 20
201.63499598260972
 10
286.0432818177685
 20
202.45159147380704
 10
285.98364725175543
 20
203.26710441122466
 10
285.90701939047483
 20
204.08117468730703
 10
285.8134320706331
 20
204.89344283153721
 10
285.7029266177562
 20
205.70355016916903
 10
285.57555182794107
 20
206.51113897960767
 10
285.4313639463093
 20
207.3158526543689
 10
285.2704266421704
 20
208.11733585454766
 10
285.09281098090713
 20
208.9152346677254
 10
284.89859539259555
 20
209.70919676424793
 10
284.687865637372
 20
210.49887155280445
 10
284.4607147675641
 20
211.28391033523852
 10
284.2172430866015
 20
212.0639664605236
 10
283.95755810472446
 20
212.83869547783422
 10
283.6817744915105
 20
213.60775528864588
 10
283.39001402523957
 20
214.370806297796
 10
283.08240553912026
 20
215.12751156343973
 10
282.7590848644005
 20
215.8775369458339
 10
282.4201947703883
 20
216.62055125488365
 10
282.06588490140916
 20
217.3562263963869
 10
281.69631171072695
 20
218.0842375169112
 10
281.3116383914587
 20
218.8042631472401
 10
280.91203480451327
 20
219.5159853443248
 10
280.4976774035854
 20
220.21908983167884
 10
280.0687491572386
 20
220.91326613815386
 10
279.6254394681116
 20
221.5982077350347
 10
279.1679440892836
 20
222.27361217139415
 10
278.69646503783474
 20
222.93918120764644
 10
278.21121050564153
 20
223.5946209472418
 10
277.7123947674449
 20
224.2396419664425
 10
277.20023808623256
 20
224.8739594421246
 10
276.6749666159772
 20
225.4972932775476
 10
276.13681230177303
 20
226.10936822603736
 10
275.5860127774156
 20
226.7099140125272
 10
275.02281126046915
 20
227.2986654529039
 10
274.44745644486886
 20
227.87536257110534
 10
273.8602023911044
 20
228.4397507139189
 10
273.26130841403403
 20
228.99158066342886
 10
272.6510389683784
 20
229.53060874706415
 10
272.029663531945
 20
230.0565969451973
 10
271.3974564866341
 20
230.5693129962472
 10
270.75469699727955
 20
231.06853049923924
 10
270.1016688883775
 20
231.55402901377764
 10
269.4386605187572
 20
232.02559415738574
 10
268.7659646542504
 20
232.48301770017122
 10
268.08387833841357
 20
232.92609765677454
 10
267.39270276136233
 20
233.3546383755601
 10
266.69274312677413
 20
233.76845062501047
 10
265.98430851711896
 20
234.16735167728547
 10
265.2677117571771
 20
234.55116538891002
 10
264.5432692759048
 20
234.91972227855382
 10
263.8113009667078
 20
235.27285960186973
 10
263.07213004618586
 20
235.61042142335694
 10
262.32608291140883
 20
235.9322586852179
 10
261.5734889957894
 20
236.23822927317784
 10
260.81468062361427
 20
236.52819807923854
 10
260.0499928632994
 20
236.80203706133818
 10
259.2797633794327
 20
237.0596252998912
 10
258.5043322836716
 20
237.30084905118278
 10
257.72404198455865
 20
237.52560179759513
 10
256.9392370363238
 20
237.73378429464248
 10
256.1502639867391
 20
237.9253046147947
 10
255.3574712240927
 20
238.10007818806992
 10
254.56120882335063
 20
238.25802783937826
 10
253.76182839157326
 20
238.39908382260018
 10
252.95968291265586
 20
238.52318385138435
 10
252.15512659146057
 20
238.63027312665167
 10
251.34851469740966
 20
238.72030436079282
 10
250.5402034076085
 20
238.79323779854928
 10
249.73054964956773
 20
238.84904123456815
 10
248.91991094359426
 20
238.887690027623
 10
248.1086452449202
 20
238.90916711149475
 10
247.2971107856401
 20
238.91346300250788
 10
246.48566591652545
 20
238.90057580371777
 10
245.6746689487874
 20
238.87051120574864
 10
244.86447799585642
 20
238.82328248428064
 10
244.05545081524946
 20
238.75891049418755
 10
243.2479446505945
 20
238.67742366032812
 10
242.44231607388159
 20
238.5788579649942
 10
241.63892082801084
 20
238.4632569320221
 10
240.8381136697063
 20
238.33067160757372
 10
240.0402482128655
 20
238.18116053759587
 10
239.2456767724133
 20
238.01478974196814
 10
238.45475020872973
 20
237.8316326853504
 10
237.6678177727198
 20
237.6317702447427
 10
236.8852269515942
 20
237.41529067377255
 10
236.10732331542872
 20
237.18228956372425
 10
235.33445036457022
 20
236.93286980132876
 10
234.56694937795652
 20
236.66714152333176
 10
233.80515926241728
 20
236.3852220678602
 10
233.04941640302226
 20
236.08723592260932
 10
232.30005451454312
 20
235.77331466987215
 10
231.55740449409444
 20
235.44359692843665
 10
230.8217942750188
 20
235.09822829237555
 10
230.0935486820806
 20
234.737361266756
 10
229.37298928803284
 20
234.36115520029767
 10
228.6604342716193
 20
233.9697762150089
 10
227.95619827707597
 20
233.56339713283182
 10
227.26059227519303
 20
233.14219739932906
 10
226.57392342599877
 20
232.7063630044457
 10
225.8964949431265
 20
232.25608640038126
 10
225.22860595992384
 20
231.79156641660833
 10
224.57055139736394
 20
231.31300817207494
 10
223.92262183381666
 20
230.82062298462992
 10
223.28510337673728
 20
230.31462827771082
 10
222.65827753632956
 20
229.79524748433593
 10
222.04242110123877
 20
229.2627099484424
 10
221.4378060163296
 20
228.71725082361453
 10
220.8446992626029
 20
228.1591109692466
 10
220.26336273930445
 20
227.58853684418594
 10
219.69405314827773
 20
227.00578039790392
 10
219.13702188061134
 20
226.4110989592419
 10
218.59251490563207
 20
225.8047551227823
 10
218.06077266229158
 20
225.18701663289397
 10
217.54202995299534
 20
224.558156265504
 10
217.03651583992055
 20
223.91845170764753
 10
216.54445354386877
 20
223.26818543484885
 10
216.06606034569785
 20
222.6076445863883
 10
215.6015474903767
 20
221.93712083850954
 10
215.15112009370574
 20
221.25691027562368
 10
214.71497705174326
 20
220.56731325956653
 10
214.2933109529787
 20
219.86863429696749
 10
213.8863079932908
 20
219.16118190478778
 10
213.49414789372904
 20
218.4452684740882
 10
213.11700382115356
 20
217.72121013208596
 10
212.75504231176984
 20
216.98932660256182
 10
212.40842319759076
 20
216.24994106467904
 10
212.07729953585942
 20
215.50338001027663
 10
211.76181754146333
 20
214.74997309969964
 10
211.46211652237002
 20
213.99005301623052
 10
211.1783288181126
 20
213.22395531918548
 10
210.91057974135234
 20
212.45201829574106
 10
210.65898752254407
 20
211.6745828115558
 10
210.42366325772898
 20
210.89199216025392
 10
210.2047108594778
 20
210.10459191183617
 10
210.00222701100589
 20
209.31272976008603
 10
209.81630112348049
 20
208.51675536903784
 10
209.64701529653954
 20
207.7170202185752
 10
209.49444428203861
 20
206.91387744922696
 10
209.3586554510427
 20
206.10768170623075
 10
209.2397087640769
 20
205.29878898293134
 10
209.13765674464977
 20
204.48755646358407
 10
209.05254445606013
 20
203.67434236563233
 10
208.98440948149866
 20
202.8595057815289
 10
208.93328190745203
 20
202.04340652017072
 10
208.89918431041764
 20
201.2264049480175
 10
208.88213174693442
 20
200.40886182996388
 10
208.88213174693442
 20
199.59113817003612
 10
208.89918431041764
 20
198.77359505198254
 10
208.93328190745203
 20
197.95659347982928
 10
208.98440948149866
 20
197.1404942184711
 10
209.05254445606013
 20
196.32565763436767
 10
209.13765674464977
 20
195.51244353641596
 10
209.2397087640769
 20
194.70121101706866
 10
209.3586554510427
 20
193.89231829376925
 10
209.49444428203861
 20
193.08612255077304
 10
209.64701529653954
 20
192.2829797814248
 10
209.81630112348049
 20
191.48324463096213
 10
210.00222701100589
 20
190.68727023991397
 10
210.2047108594778
 20
189.89540808816383
 10
210.42366325772898
 20
189.10800783974608
 10
210.65898752254404
 20
188.3254171884442
 10
210.9105797413523
 20
187.54798170425897
 10
211.1783288181126
 20
186.77604468081452
 10
211.46211652237002
 20
186.00994698376948
 10
211.76181754146333
 20
185.25002690030036
 10
212.07729953585942
 20
184.49661998972337
 10
212.40842319759076
 20
183.75005893532096
 10
212.75504231176984
 20
183.01067339743818
 10
213.11700382115356
 20
182.27878986791404
 10
213.494147893729
 20
181.55473152591182
 10
213.8863079932908
 20
180.83881809521222
 10
214.2933109529787
 20
180.13136570303251
 10
214.7149770517433
 20
179.43268674043344
 10
215.15112009370574
 20
178.74308972437635
 10
215.6015474903767
 20
178.06287916149046
 10
216.06606034569782
 20
177.39235541361174
 10
216.54445354386877
 20
176.73181456515115
 10
217.03651583992055
 20
176.08154829235247
 10
217.54202995299534
 20
175.441843734496
 10
218.06077266229158
 20
174.81298336710603
 10
218.5925149056321
 20
174.1952448772177
 10
219.13702188061134
 20
173.5889010407581
 10
219.6940531482777
 20
172.9942196020961
 10
220.26336273930445
 20
172.41146315581406
 10
220.84469926260286
 20
171.84088903075343
 10
221.43780601632957
 20
171.28274917638547
 10
222.04242110123877
 20
170.7372900515576
 10
222.65827753632956
 20
170.20475251566407
 10
223.28510337673728
 20
169.68537172228918
 10
223.92262183381666
 20
169.17937701537008
 10
224.57055139736394
 20
168.68699182792506
 10
225.22860595992384
 20
168.20843358339167
 10
225.8964949431265
 20
167.74391359961874
 10
226.57392342599877
 20
167.2936369955543
 10
227.26059227519303
 20
166.85780260067094
 10
227.95619827707597
 20
166.43660286716818
 10
228.6604342716193
 20
166.0302237849911
 10
229.37298928803284
 20
165.63884479970233
 10
230.09354868208064
 20
165.262638733244
 10
230.8217942750188
 20
164.90177170762445
 10
231.5574044940944
 20
164.55640307156335
 10
232.30005451454312
 20
164.22668533012788
 10
233.04941640302224
 20
163.9127640773907
 10
233.80515926241728
 20
163.6147779321398
 10
234.56694937795652
 20
163.33285847666824
 10
235.33445036457022
 20
163.06713019867124
 10
236.10732331542872
 20
162.81771043627577
 10
236.8852269515942
 20
162.58470932622745
 10
237.6678177727198
 20
162.3682297552573
 10
238.4547502087297
 20
162.1683673146496
 10
239.2456767724133
 20
161.98521025803186
 10
240.0402482128655
 20
161.81883946240413
 10
240.83811366970633
 20
161.66932839242628
 10
241.63892082801084
 20
161.5367430679779
 10
242.4423160738816
 20
161.4211420350058
 10
243.2479446505945
 20
161.32257633967188
 10
244.05545081524946
 20
161.24108950581245
 10
244.8644779958564
 20
161.17671751571936
 10
245.6746689487874
 20
161.12948879425136
 10
246.48566591652545
 20
161.09942419628223
 10
247.2971107856401
 20
161.08653699749212
 10
248.1086452449202
 20
161.09083288850525
 10
248.91991094359426
 20
161.112309972377
 10
249.73054964956773
 20
161.15095876543185
 10
250.5402034076085
 20
161.20676220145072
 10
251.34851469740966
 20
161.27969563920718
 10
252.15512659146057
 20
161.36972687334833
 10
252.95968291265586
 20
161.47681614861565
 10
253.76182839157326
 20
161.60091617739982
 10
254.56120882335063
 20
161.74197216062174
 10
255.3574712240927
 20
161.89992181193008
 10
256.1502639867391
 20
162.0746953852053
 10
256.9392370363238
 20
162.26621570535752
 10
257.72404198455865
 20
162.47439820240487
 10
258.5043322836716
 20
162.69915094881722
 10
259.2797633794327
 20
162.9403747001088
 10
260.0499928632994
 20
163.19796293866182
 10
260.81468062361427
 20
163.47180192076146
 10
261.5734889957894
 20
163.76177072682216
 10
262.32608291140883
 20
164.0677413147821
 10
263.07213004618586
 20
164.38957857664306
 10
263.81130096670785
 20
164.7271403981303
 10
264.5432692759048
 20
165.08027772144618
 10
265.2677117571771
 20
165.44883461108998
 10
265.98430851711896
 20
165.83264832271453
 10
266.69274312677413
 20
166.23154937498953
 10
267.39270276136233
 20
166.64536162443986
 10
268.08387833841357
 20
167.07390234322546
 10
268.7659646542504
 20
167.51698229982878
 10
269.4386605187572
 20
167.97440584261426
 10
270.10166888837745
 20
168.44597098622236
 10
270.75469699727955
 20
168.93146950076076
 10
271.3974564866341
 20
169.43068700375278
 10
272.029663531945
 20
169.9434030548027
 10
272.6510389683784
 20
170.46939125293585
 10
273.26130841403403
 20
171.00841933657114
 10
273.8602023911044
 20
171.5602492860811
 10
274.44745644486886
 20
172.12463742889466
 10
275.02281126046915
 20
172.70133454709614
 10
275.5860127774156
 20
173.29008598747282
 10
276.13681230177303
 20
173.89063177396264
 10
276.67496661597716
 20
174.50270672245236
 10
277.20023808623256
 20
175.12604055787537
 10
277.7123947674449
 20
175.76035803355748
 10
278.21121050564153
 20
176.4053790527582
 10
278.69646503783474
 20
177.06081879235353
 10
279.1679440892836
 20
177.72638782860585
 10
279.6254394681116
 20
178.40179226496528
 10
280.0687491572386
 20
179.08673386184614
 10
280.4976774035854
 20
179.78091016832116
 10
280.91203480451327
 20
180.4840146556752
 10
281.3116383914587
 20
181.1957368527599
 10
281.69631171072695
 20
181.9157624830888
 10
282.06588490140916
 20
182.6437736036131
 10
282.4201947703883
 20
183.37944874511635
 10
282.7590848644005
 20
184.1224630541661
 10
283.08240553912026
 20
184.87248843656025
 10
283.39001402523957
 20
185.629193702204
 10
283.6817744915105
 20
186.39224471135412
 10
283.95755810472446
 20
187.16130452216575
 10
284.2172430866015
 20
187.9360335394764
 10
284.4607147675641
 20
188.71608966476148
 10
284.687865637372
 20
189.50112844719555
 10
284.8985953925955
 20
190.29080323575207
 10
285.09281098090713
 20
191.0847653322746
 10
285.2704266421704
 20
191.88266414545234
 10
285.4313639463093
 20
192.6841473456311
 10
285.57555182794107
 20
193.48886102039233
 10
285.7029266177562
 20
194.29644983083097
 10
285.8134320706331
 20
195.10655716846279
 10
285.90701939047483
 20
195.91882531269297
 10
285.98364725175543
 20
196.73289558877534
 10
286.0432818177685
 20
197.54840852619293
 10
286.08589675556857
 20
198.36500401739028
 10
286.11147324759867
 20
199.18232147678648
 10
286.12
 20
200.0
  0
LWPOLYLINE
  5
98
330
17
100
AcDbEntity
  8
Layer
100
AcDbPolyline
 90
5
 70
1
 10
114.15244753368205
 20
205.00000000000003
 10
119.15244753368205
 20
200.00000000000003
 10
114.15244753368205
 20
195.00000000000003
 10
109.15244753368205
 20
200.00000000000003
 10
114.15244753368205
 20
205.00000000000003
  0
LWPOLYLINE
  5
99
330
17
100
AcDbEntity
  8
Layer
100
AcDbPolyline
 90
5
 70
1
 10
245.12650882002987
 20
205.0
 10
250.12650882002987
 20
200.0
 10
245.12650882002987
 20
195.0
 10
240.12650882002987
 20
200.0
 10
245.12650882002987
 20
205.0
  0
LWPOLYLINE
  5
9A
330
17
100
AcDbEntity
  8
Layer
100
AcDbPolyline
 90
5
 70
1
 10
138.47392553813316
 20
181.15720655803858
 10
143.1426961253117
 20
175.84659631021424
 10
137.83208587748734
 20
171.1778257230357
 10
133.16331529030882
 20
176.48843597086005
 10
138.47392553813316
 20
181.15720655803858
  0
LWPOLYLINE
  5
9B
330
17
100
AcDbEntity
  8
Layer
100
AcDbPolyline
 90
5
 70
1
 10
290.53959472526196
 20
171.37686255467074
 10
295.2083653124405
 20
166.0662523068464
 10
289.89775506461615
 20
161.39748171966787
 10
285.2289844774376
 20
166.7080919674922
 10
290.53959472526196
 20
171.37686255467074
  0
LINE
  5
9C
330
17
100
AcDbEntity
  8
Layer
 62
7
100
AcDbLine
 10
20.336406676116866
 20
200.00000000000003
 30
0.0
 11
322.5
 21
200.0
 31
0.0
  0
LINE
  5
9D
330
17
100
AcDbEntity
  8
Layer
 62
7
100
AcDbLine
 10
108.15244753368205
 20
200.00000000000003
 30
0.0
 11
120.15244753368205
 21
200.00000000000003
 31
0.0
  0
LINE
  5
9E
330
17
100
AcDbEntity
  8
Layer
 62
7
100
AcDbLine
 10
239.12650882002987
 20
200.0
 30
0.0
 11
251.12650882002987
 21
200.0
 31
0.0
  0
LINE
  5
9F
330
17
100
AcDbEntity
  8
Layer
 62
7
100
AcDbLine
 10
10.013872815355342
 20
184.4089871226512
 30
0.0
 11
322.5
 21
164.31094766060102
 31
0.0
  0
LINE
  5
A0
330
17
100
AcDbEntity
  8
Layer
 62
7
100
AcDbLine
 10
132.16537720680856
 20
176.55261993692466
 30
0.0
 11
144.14063420881195
 21
175.7824123441497
 31
0.0
  0
LINE
  5
A1
330
17
100
AcDbEntity
  8
Layer
 62
7
100
AcDbLine
 10
284.23104639393733
 20
166.77227593355678
 30
0.0
 11
296.2063033959408
 21
166.00206834078182
 31
0.0
  0
LINE
  5
A2
330
17
100
AcDbEntity
  8
Layer
100
AcDbLine
 10
247.5
 20
238.914
 30
0.0
 11
247.5
 21
239.914
 31
0.0
  0
LINE
  5
A3
330
17
100
AcDbEntity
  8
Layer
100
AcDbLine
 10
247.5
 20
161.086
 30
0.0
 11
247.5
 21
160.086
 31
0.0
  0
LINE
  5
A4
330
17
100
AcDbEntity
  8
Layer
100
AcDbLine
 10
286.12
 20
200.0
 30
0.0
 11
287.12
 21
200.0
 31
0.0
  0
LINE
  5
A5
330
17
100
AcDbEntity
  8
Layer
100
AcDbLine
 10
208.88000000000002
 20
200.0
 30
0.0
 11
207.88000000000002
 21
200.0
 31
0.0
  0
ENDSEC
  0
SECTION
  2
OBJECTS
  0
DICTIONARY
  5
A
330
0
100
AcDbDictionary
280
0
281
1
  3
ACAD_COLOR
350
B
  3
ACAD_GROUP
350
C
  3
ACAD_LAYOUT
350
D
  3
ACAD_MATERIAL
350
E
  3
ACAD_MLEADERSTYLE
350
F
  3
ACAD_MLINESTYLE
350
10
  3
ACAD_PLOTSETTINGS
350
11
  3
ACAD_PLOTSTYLENAME
350
12
  3
ACAD_SCALELIST
350
14
  3
ACAD_TABLESTYLE
350
15
  3
ACAD_VISUALSTYLE
350
16
  3
EZDXF_META
350
2D
  0
DICTIONARY
  5
B
330
A
100
AcDbDictionary
280
0
281
1
  0
DICTIONARY
  5
C
330
A
100
AcDbDictionary
280
0
281
1
  0
DICTIONARY
  5
D
330
A
100
AcDbDictionary
280
0
281
1
  3
Model
350
1A
  3
Layout1
350
1E
  0
DICTIONARY
  5
E
330
A
100
AcDbDictionary
280
0
281
1
  3
ByBlock
350
1F
  3
ByLayer
350
20
  3
Global
350
21
  0
DICTIONARY
  5
F
330
A
100
AcDbDictionary
280
0
281
1
  3
Standard
350
2C
  0
DICTIONARY
  5
10
330
A
100
AcDbDictionary
280
0
281
1
  3
Standard
350
22
  0
DICTIONARY
  5
11
330
A
100
AcDbDictionary
280
0
281
1
  0
ACDBDICTIONARYWDFLT
  5
12
330
A
100
AcDbDictionary
280
0
281
1
  3
Normal
350
13
100
AcDbDictionaryWithDefault
340
13
  0
ACDBPLACEHOLDER
  5
13
330
12
  0
DICTIONARY
  5
14
330
A
100
AcDbDictionary
280
0
281
1
  0
DICTIONARY
  5
15
330
A
100
AcDbDictionary
280
0
281
1
  0
DICTIONARY
  5
16
330
A
100
AcDbDictionary
280
0
281
1
  3
2dWireframe
350
5A
  3
Basic
350
5B
  3
Brighten
350
5C
  3
ColorChange
350
5D
  3
Conceptual
350
5E
  3
Dim
350
5F
  3
EdgeColorOff
350
60
  3
Facepattern
350
61
  3
Flat
350
62
  3
FlatWithEdges
350
63
  3
Gouraud
350
64
  3
GouraudWithEdges
350
65
  3
Hidden
350
66
  3
JitterOff
350
67
  3
Linepattern
350
68
  3
Modeling
350
69
  3
OverhangOff
350
6A
  3
Realistic
350
6B
  3
Shaded
350
6C
  3
Shaded with edges
350
6D
  3
Shades of Gray
350
6E
  3
Sketchy
350
6F
  3
Thicken
350
70
  3
Wireframe
350
71
  3
X-Ray
350
72
  0
LAYOUT
  5
1A
330
D
100
AcDbPlotSettings
  1

  2
Adobe PDF
  4
A3
  6

 40
7.5
 41
20.0
 42
7.5
 43
20.0
 44
420.0
 45
297.0
 46
0.0
 47
0.0
 48
0.0
 49
0.0
140
0.0
141
0.0
142
1.0
143
1.0
 70
1024
 72
1
 73
0
 74
5
  7

 75
16
 76
0
 77
2
 78
300
147
1.0
148
0.0
149
0.0
100
AcDbLayout
  1
Model
 70
1
 71
0
 10
0.0
 20
0.0
 11
420.0
 21
297.0
 12
0.0
 22
0.0
 32
0.0
 14
1e+20
 24
1e+20
 34
1e+20
 15
-1e+20
 25
-1e+20
 35
-1e+20
146
0.0
 13
0.0
 23
0.0
 33
0.0
 16
1.0
 26
0.0
 36
0.0
 17
0.0
 27
1.0
 37
0.0
 76
1
330
17
  0
LAYOUT
  5
1E
330
D
100
AcDbPlotSettings
  1

  2
Adobe PDF
  4
A3
  6

 40
7.5
 41
20.0
 42
7.5
 43
20.0
 44
420.0
 45
297.0
 46
0.0
 47
0.0
 48
0.0
 49
0.0
140
0.0
141
0.0
142
1.0
143
1.0
 70
0
 72
1
 73
0
 74
5
  7

 75
16
 76
0
 77
2
 78
300
147
1.0
148
0.0
149
0.0
100
AcDbLayout
  1
Layout1
 70
1
 71
1
 10
0.0
 20
0.0
 11
420.0
 21
297.0
 12
0.0
 22
0.0
 32
0.0
 14
1e+20
 24
1e+20
 34
1e+20
 15
-1e+20
 25
-1e+20
 35
-1e+20
146
0.0
 13
0.0
 23
0.0
 33
0.0
 16
1.0
 26
0.0
 36
0.0
 17
0.0
 27
1.0
 37
0.0
 76
1
330
1B
  0
MATERIAL
  5
1F
102
{ACAD_REACTORS
330
E
102
}
330
E
100
AcDbMaterial
  1
ByBlock
  2

 70
0
 40
1.0
 71
1
 41
1.0
 91
-1023410177
 42
1.0
 72
1
  3

 73
1
 74
1
 75
1
 44
0.5
 73
0
 45
1.0
 46
1.0
 77
1
  4

 78
1
 79
1
170
1
 48
1.0
171
1
  6

172
1
173
1
174
1
140
1.0
141
1.0
175
1
  7

176
1
177
1
178
1
143
1.0
179
1
  8

270
1
271
1
272
1
145
1.0
146
1.0
273
1
  9

274
1
275
1
276
1
 42
1.0
 72
1
  3

 73
1
 74
1
 75
1
 94
63
  0
MATERIAL
  5
20
102
{ACAD_REACTORS
330
E
102
}
330
E
100
AcDbMaterial
  1
ByLayer
  2

 70
0
 40
1.0
 71
1
 41
1.0
 91
-1023410177
 42
1.0
 72
1
  3

 73
1
 74
1
 75
1
 44
0.5
 73
0
 45
1.0
 46
1.0
 77
1
  4

 78
1
 79
1
170
1
 48
1.0
171
1
  6

172
1
173
1
174
1
140
1.0
141
1.0
175
1
  7

176
1
177
1
178
1
143
1.0
179
1
  8

270
1
271
1
272
1
145
1.0
146
1.0
273
1
  9

274
1
275
1
276
1
 42
1.0
 72
1
  3

 73
1
 74
1
 75
1
 94
63
  0
MATERIAL
  5
21
102
{ACAD_REACTORS
330
E
102
}
330
E
100
AcDbMaterial
  1
Global
  2

 70
0
 40
1.0
 71
1
 41
1.0
 91
-1023410177
 42
1.0
 72
1
  3

 73
1
 74
1
 75
1
 44
0.5
 73
0
 45
1.0
 46
1.0
 77
1
  4

 78
1
 79
1
170
1
 48
1.0
171
1
  6

172
1
173
1
174
1
140
1.0
141
1.0
175
1
  7

176
1
177
1
178
1
143
1.0
179
1
  8

270
1
271
1
272
1
145
1.0
146
1.0
273
1
  9

274
1
275
1
276
1
 42
1.0
 72
1
  3

 73
1
 74
1
 75
1
 94
63
  0
MLINESTYLE
  5
22
102
{ACAD_REACTORS
330
10
102
}
330
10
100
AcDbMlineStyle
  2
Standard
 70
0
  3

 62
256
 51
90.0
 52
90.0
 71
2
 49
0.5
 62
256
  6
BYLAYER
 49
-0.5
 62
256
  6
BYLAYER
  0
MLEADERSTYLE
  5
2C
102
{ACAD_REACTORS
330
F
102
}
330
F
100
AcDbMLeaderStyle
179
2
170
2
171
1
172
0
 90
2
 40
0.0
 41
0.0
173
1
 91
-1056964608
 92
-2
290
1
 42
2.0
291
1
 43
8.0
  3
Standard
 44
4.0
300

342
29
174
1
175
1
176
0
178
1
 93
-1056964608
 45
4.0
292
0
297
0
 46
4.0
 94
-1056964608
 47
1.0
 49
1.0
140
1.0
294
1
141
0.0
177
0
142
1.0
295
0
296
0
143
3.75
271
0
272
9
273
9
  0
DICTIONARY
  5
2D
330
A
100
AcDbDictionary
281
1
  3
CREATED_BY_EZDXF
350
2E
  3
WRITTEN_BY_EZDXF
350
A8
  0
DICTIONARYVAR
  5
2E
330
2D
100
DictionaryVariables
280
0
  1
1.3.0 @ 2026-01-06T17:07:20.781592+00:00
  0
VISUALSTYLE
  5
5A
102
{ACAD_REACTORS
330
16
102
}
330
16
100
AcDbVisualStyle
  2
2dWireframe
 70
4
 90
0
 40
0.6
 62
7
290
0
291
0
  0
VISUALSTYLE
  5
5B
102
{ACAD_REACTORS
330
16
102
}
330
16
100
AcDbVisualStyle
  2
Basic
 70
7
 90
1
 40
0.6
 62
7
290
0
291
1
  0
VISUALSTYLE
  5
5C
102
{ACAD_REACTORS
330
16
102
}
330
16
100
AcDbVisualStyle
  2
Brighten
 70
12
 90
2
 40
0.6
 62
7
290
0
291
1
  0
VISUALSTYLE
  5
5D
102
{ACAD_REACTORS
330
16
102
}
330
16
100
AcDbVisualStyle
  2
ColorChange
 70
16
 90
2
 40
0.6
 62
8
290
0
291
1
  0
VISUALSTYLE
  5
5E
102
{ACAD_REACTORS
330
16
102
}
330
16
100
AcDbVisualStyle
  2
Conceptual
 70
9
 90
3
 40
0.6
 62
7
290
0
291
0
  0
VISUALSTYLE
  5
5F
102
{ACAD_REACTORS
330
16
102
}
330
16
100
AcDbVisualStyle
  2
Dim
 70
11
 90
2
 40
0.6
 62
7
290
0
291
1
  0
VISUALSTYLE
  5
60
102
{ACAD_REACTORS
330
16
102
}
330
16
100
AcDbVisualStyle
  2
EdgeColorOff
 70
22
 90
2
 40
0.6
 62
7
290
0
291
1
  0
VISUALSTYLE
  5
61
102
{ACAD_REACTORS
330
16
102
}
330
16
100
AcDbVisualStyle
  2
Facepattern
 70
15
 90
2
 40
0.6
 62
7
290
0
291
1
  0
VISUALSTYLE
  5
62
102
{ACAD_REACTORS
330
16
102
}
330
16
100
AcDbVisualStyle
  2
Flat
 70
0
 90
2
 40
0.6
 62
7
290
0
291
1
  0
VISUALSTYLE
  5
63
102
{ACAD_REACTORS
330
16
102
}
330
16
100
AcDbVisualStyle
  2
FlatWithEdges
 70
1
 90
2
 40
0.6
 62
7
290
0
291
1
  0
VISUALSTYLE
  5
64
102
{ACAD_REACTORS
330
16
102
}
330
16
100
AcDbVisualStyle
  2
Gouraud
 70
2
 90
2
 40
0.6
 62
7
290
0
291
1
  0
VISUALSTYLE
  5
65
102
{ACAD_REACTORS
330
16
102
}
330
16
100
AcDbVisualStyle
  2
GouraudWithEdges
 70
3
 90
2
 40
0.6
 62
7
290
0
291
1
  0
VISUALSTYLE
  5
66
102
{ACAD_REACTORS
330
16
102
}
330
16
100
AcDbVisualStyle
  2
Hidden
 70
6
 90
1
 40
0.6
 62
7
290
0
291
0
  0
VISUALSTYLE
  5
67
102
{ACAD_REACTORS
330
16
102
}
330
16
100
AcDbVisualStyle
  2
JitterOff
 70
20
 90
2
 40
0.6
 62
7
290
0
291
1
  0
VISUALSTYLE
  5
68
102
{ACAD_REACTORS
330
16
102
}
330
16
100
AcDbVisualStyle
  2
Linepattern
 70
14
 90
2
 40
0.6
 62
7
290
0
291
1
  0
VISUALSTYLE
  5
69
102
{ACAD_REACTORS
330
16
102
}
330
16
100
AcDbVisualStyle
  2
Modeling
 70
10
 90
2
 40
0.6
 62
7
290
0
291
0
  0
VISUALSTYLE
  5
6A
102
{ACAD_REACTORS
330
16
102
}
330
16
100
AcDbVisualStyle
  2
OverhangOff
 70
21
 90
2
 40
0.6
 62
7
290
0
291
1
  0
VISUALSTYLE
  5
6B
102
{ACAD_REACTORS
330
16
102
}
330
16
100
AcDbVisualStyle
  2
Realistic
 70
8
 90
2
 40
0.6
 62
7
290
0
291
0
  0
VISUALSTYLE
  5
6C
102
{ACAD_REACTORS
330
16
102
}
330
16
100
AcDbVisualStyle
  2
Shaded
 70
27
 90
2
 40
0.6
 62
7
290
0
291
0
  0
VISUALSTYLE
  5
6D
102
{ACAD_REACTORS
330
16
102
}
330
16
100
AcDbVisualStyle
  2
Shaded with edges
 70
26
 90
2
 40
0.6
 62
7
290
0
291
0
  0
VISUALSTYLE
  5
6E
102
{ACAD_REACTORS
330
16
102
}
330
16
100
AcDbVisualStyle
  2
Shades of Gray
 70
23
 90
2
 40
0.6
 62
7
290
0
291
0
  0
VISUALSTYLE
  5
6F
102
{ACAD_REACTORS
330
16
102
}
330
16
100
AcDbVisualStyle
  2
Sketchy
 70
24
 90
1
 40
0.6
 62
7
290
0
291
0
  0
VISUALSTYLE
  5
70
102
{ACAD_REACTORS
330
16
102
}
330
16
100
AcDbVisualStyle
  2
Thicken
 70
13
 90
2
 40
0.6
 62
7
290
0
291
1
  0
VISUALSTYLE
  5
71
102
{ACAD_REACTORS
330
16
102
}
330
16
100
AcDbVisualStyle
  2
Wireframe
 70
5
 90
0
 40
0.6
 62
7
290
0
291
0
  0
VISUALSTYLE
  5
72
102
{ACAD_REACTORS
330
16
102
}
330
16
100
AcDbVisualStyle
  2
X-Ray
 70
25
 90
2
 40
0.5
 62
7
290
0
291
0
  0
DICTIONARYVAR
  5
A8
330
2D
100
DictionaryVariables
280
0
  1
1.3.0 @ 2026-01-06T17:07:20.800600+00:00
  0
ENDSEC
  0
EOF
