<?xml version="1.0" encoding="utf-8" standalone="no"?>
<!DOCTYPE svg PUBLIC "-//W3C//DTD SVG 1.1//EN"
  "http://www.w3.org/Graphics/SVG/1.1/DTD/svg11.dtd">
<svg xmlns:xlink="http://www.w3.org/1999/xlink" width="1152pt" height="183.728573pt" viewBox="0 0 1152 183.728573" xmlns="http://www.w3.org/2000/svg" version="1.1">
 <metadata>
  <rdf:RDF xmlns:dc="http://purl.org/dc/elements/1.1/" xmlns:cc="http://creativecommons.org/ns#" xmlns:rdf="http://www.w3.org/1999/02/22-rdf-syntax-ns#">
   <cc:Work>
    <dc:type rdf:resource="http://purl.org/dc/dcmitype/StillImage"/>
    <dc:date>2026-01-07T02:07:20.736383</dc:date>
    <dc:format>image/svg+xml</dc:format>
    <dc:creator>
     <cc:Agent>
      <dc:title>Matplotlib v3.10.1, https://matplotlib.org/</dc:title>
     </cc:Agent>
    </dc:creator>
   </cc:Work>
  </rdf:RDF>
 </metadata>
 <defs>
  <style type="text/css">*{stroke-linejoin: round; stroke-linecap: butt}</style>
 </defs>
 <g id="figure_1">
  <g id="patch_1">
   <path d="M 0 183.728573 
L 1152 183.728573 
L 1152 0 
L 0 0 
z
" style="fill: #ffffff"/>
  </g>
  <g id="axes_1">
   <g id="patch_2">
    <path d="M 0 183.728573 
L 1152 183.728573 
L 1152 0 
L 0 0 
z
" style="fill: #212830"/>
   </g>
   <g id="patch_3">
    <path d="M 1099.376206 174.903788 
L 1081.99518 168.681964 
L 1065.965893 163.151976 
L 1037.576344 153.407017 
L 1006.114958 142.347549 
L 962.071566 126.570254 
L 906.415575 106.615334 
L 873.517561 95.053341 
L 851.866094 87.619675 
L 841.712855 84.196669 
L 841.175187 85.791488 
L 829.921475 82.048467 
L 808.734365 75.185539 
L 787.722578 68.64313 
L 766.835324 62.435326 
L 746.022983 56.561931 
L 725.246772 51.027763 
L 704.47368 45.8285 
L 683.684819 40.968068 
L 662.861561 36.442167 
L 642.000217 32.254643 
L 621.091079 28.402701 
L 600.140343 24.889732 
L 579.144662 21.714851 
L 558.107475 18.883678 
L 537.001568 16.391167 
L 515.844487 14.23047 
L 494.643051 12.40346 
L 473.431849 10.906084 
L 452.234086 9.748031 
L 431.082074 8.92942 
L 409.998756 8.463307 
L 389.011286 8.351299 
L 368.145694 8.607917 
L 347.430658 9.236264 
L 326.898146 10.251975 
L 306.584708 11.658948 
L 286.530354 13.473474 
L 276.615129 14.533608 
L 266.785775 15.698754 
L 257.04503 16.971218 
L 247.40038 18.349305 
L 237.864216 19.833234 
L 228.444194 21.425483 
L 219.146969 23.124306 
L 209.992315 24.92264 
L 201.003519 26.819375 
L 192.194222 28.815762 
L 183.580113 30.904592 
L 175.189761 33.075498 
L 167.048038 35.324953 
L 159.171987 37.646136 
L 151.585964 40.022121 
L 144.319745 42.437857 
L 137.392705 44.88428 
L 130.817756 47.345277 
L 124.610564 49.800131 
L 118.781337 52.235491 
L 108.242132 57.006145 
L 99.137805 61.564798 
L 91.337544 65.884009 
L 84.671498 69.94639 
L 78.982491 73.767483 
L 74.117957 77.375605 
L 69.964452 80.791373 
L 66.411068 84.067956 
L 63.333793 87.216408 
L 60.670535 90.189325 
L 58.433931 92.985153 
L 56.619166 95.684368 
L 55.16413 98.350757 
L 54.013485 100.946936 
L 53.161816 103.416541 
L 52.621283 105.768782 
L 52.375398 108.17294 
L 52.417715 110.290597 
L 52.766845 112.511263 
L 53.511861 114.694468 
L 54.719065 116.86781 
L 56.35892 118.990102 
L 58.410307 121.012048 
L 60.912715 122.927566 
L 63.879315 124.754404 
L 67.302282 126.505519 
L 71.228025 128.184375 
L 75.750019 129.809362 
L 80.967302 131.418976 
L 87.007989 133.041007 
L 94.069257 134.687918 
L 102.396766 136.376437 
L 112.281394 138.104322 
L 124.039329 139.85668 
L 137.901886 141.596733 
L 153.937031 143.26132 
L 171.951148 144.783816 
L 191.58747 146.11517 
L 212.446426 147.230651 
L 234.21909 148.13833 
L 257.950949 148.920545 
L 257.89965 150.602776 
L 291.11524 151.506584 
L 338.011483 152.324651 
L 373.455691 152.852622 
L 469.075068 153.729225 
L 600.163308 154.529897 
L 647.536643 154.772139 
L 694.570688 155.199095 
L 717.856206 155.469174 
L 764.401235 155.811748 
L 810.954525 156.472212 
L 857.349511 157.641193 
L 880.306787 158.380362 
L 926.20705 160.304429 
L 948.716465 161.502464 
L 982.500281 163.678603 
L 1004.470087 165.276194 
L 1025.773002 167.058115 
L 1045.988376 168.963764 
L 1064.666303 171.025171 
L 1088.748952 173.957946 
L 1099.636364 175.377274 
L 1099.376206 174.903788 
L 1099.376206 174.903788 
" clip-path="url(#p050bd3898d)" style="fill: none; stroke: #ff0000; stroke-width: 0.72; stroke-linejoin: miter"/>
   </g>
   <g id="patch_4">
    <path d="M 739.432576 61.753741 
L 732.933899 59.996541 
L 734.691099 53.497864 
L 741.189776 55.255064 
L 739.432576 61.753741 
" clip-path="url(#p050bd3898d)" style="fill: none; stroke: #ff0000; stroke-width: 0.72; stroke-linejoin: miter"/>
   </g>
   <g id="patch_5">
    <path d="M 344.723539 16.095816 
L 337.998177 16.395919 
L 337.698075 9.670556 
L 344.423437 9.370454 
L 344.723539 16.095816 
" clip-path="url(#p050bd3898d)" style="fill: none; stroke: #ff0000; stroke-width: 0.72; stroke-linejoin: miter"/>
   </g>
   <g id="patch_6">
    <path d="M 165.817653 42.706044 
L 159.36028 44.609432 
L 157.456892 38.152058 
L 163.914265 36.24867 
L 165.817653 42.706044 
" clip-path="url(#p050bd3898d)" style="fill: none; stroke: #ff0000; stroke-width: 0.72; stroke-linejoin: miter"/>
   </g>
   <g id="patch_7">
    <path d="M 76.052489 86.634627 
L 73.547394 88.882879 
L 67.926764 82.62014 
L 70.43186 80.371888 
L 76.052489 86.634627 
" clip-path="url(#p050bd3898d)" style="fill: none; stroke: #ff0000; stroke-width: 0.72; stroke-linejoin: miter"/>
   </g>
   <g id="patch_8">
    <path d="M 64.329862 115.016512 
L 67.063092 116.981098 
L 62.151628 123.814171 
L 59.418398 121.849585 
L 64.329862 115.016512 
" clip-path="url(#p050bd3898d)" style="fill: none; stroke: #ff0000; stroke-width: 0.72; stroke-linejoin: miter"/>
   </g>
   <g id="patch_9">
    <path d="M 202.405662 139.985263 
L 209.129225 140.323283 
L 208.791204 147.046846 
L 202.067641 146.708826 
L 202.405662 139.985263 
" clip-path="url(#p050bd3898d)" style="fill: none; stroke: #ff0000; stroke-width: 0.72; stroke-linejoin: miter"/>
   </g>
   <g id="line2d_1">
    <path d="M 1067.739782 163.757542 
L 1067.202071 165.352346 
" clip-path="url(#p050bd3898d)" style="fill: none; stroke: #ff0000; stroke-width: 0.72; stroke-linecap: square"/>
   </g>
   <g id="line2d_2">
    <path d="M 1066.30446 169.525946 
L 1066.138911 171.200797 
" clip-path="url(#p050bd3898d)" style="fill: none; stroke: #ff0000; stroke-width: 0.72; stroke-linecap: square"/>
   </g>
   <g id="line2d_3">
    <path d="M 1035.904443 152.823976 
L 1035.362248 154.417261 
" clip-path="url(#p050bd3898d)" style="fill: none; stroke: #ff0000; stroke-width: 0.72; stroke-linecap: square"/>
   </g>
   <g id="line2d_4">
    <path d="M 1032.832939 166.011511 
L 1032.662291 167.685851 
" clip-path="url(#p050bd3898d)" style="fill: none; stroke: #ff0000; stroke-width: 0.72; stroke-linecap: square"/>
   </g>
   <g id="line2d_5">
    <path d="M 909.091611 107.568604 
L 908.533751 109.156473 
" clip-path="url(#p050bd3898d)" style="fill: none; stroke: #ff0000; stroke-width: 0.72; stroke-linecap: square"/>
   </g>
   <g id="line2d_6">
    <path d="M 898.390945 157.430297 
L 898.262583 159.108408 
" clip-path="url(#p050bd3898d)" style="fill: none; stroke: #ff0000; stroke-width: 0.72; stroke-linecap: square"/>
   </g>
   <g id="patch_10">
    <path d="M 517.138062 80.920321 
L 517.008945 76.794259 
L 516.622104 72.68459 
L 515.979078 68.607642 
L 515.082422 64.579611 
L 513.935697 60.616501 
L 512.543459 56.734058 
L 510.91124 52.947707 
L 509.045524 49.27249 
L 506.953725 45.723009 
L 504.644152 42.313367 
L 502.125982 39.057109 
L 499.409218 35.967172 
L 496.504656 33.055833 
L 493.423834 30.334659 
L 490.178993 27.814461 
L 486.783024 25.50525 
L 483.249419 23.416203 
L 479.592218 21.555618 
L 475.82595 19.930888 
L 471.965578 18.548467 
L 468.026441 17.413848 
L 464.024187 16.531539 
L 459.974718 15.905045 
L 455.894122 15.536856 
L 451.798611 15.428433 
L 447.704457 15.580208 
L 443.627925 15.991578 
L 439.585212 16.660908 
L 435.59238 17.585539 
L 431.66529 18.761798 
L 427.819547 20.185012 
L 424.070429 21.849525 
L 420.43283 23.748725 
L 416.921204 25.875067 
L 413.549502 28.220102 
L 410.331119 30.774514 
L 407.278842 33.528154 
L 404.404798 36.470082 
L 401.720404 39.58861 
L 399.236327 42.871347 
L 396.962436 46.305253 
L 394.907764 49.876683 
L 393.080474 53.571449 
L 391.487827 57.374871 
L 390.13615 61.271839 
L 389.030813 65.24687 
L 388.176208 69.284171 
L 387.57573 73.367703 
L 387.231764 77.48124 
L 387.145678 81.608441 
L 387.317813 85.732908 
L 387.747485 89.838255 
L 388.432987 93.908171 
L 389.371596 97.926487 
L 390.559583 101.877238 
L 391.992228 105.744727 
L 393.663839 109.513589 
L 395.567775 113.168851 
L 397.696471 116.695991 
L 400.04147 120.080994 
L 402.593455 123.310413 
L 405.342289 126.371418 
L 408.277049 129.251846 
L 411.386075 131.940254 
L 414.657017 134.425961 
L 418.076877 136.699091 
L 421.63207 138.750614 
L 425.308471 140.572378 
L 429.091473 142.157146 
L 432.966046 143.498621 
L 436.916798 144.591475 
L 440.928031 145.431364 
L 444.983809 146.014952 
L 449.068019 146.339921 
L 453.164434 146.40498 
L 457.25678 146.209869 
L 461.328797 145.755365 
L 465.364307 145.043272 
L 469.347278 144.07642 
L 473.261885 142.858651 
L 477.092576 141.394802 
L 480.824131 139.69069 
L 484.441724 137.753084 
L 487.930984 135.589683 
L 491.278048 133.209081 
L 494.469617 130.620738 
L 497.493013 127.834936 
L 500.336221 124.862744 
L 502.987948 121.715969 
L 505.437658 118.407114 
L 507.675617 114.949325 
L 509.692935 111.356339 
L 511.481596 107.642432 
L 513.034496 103.822359 
L 514.345463 99.911296 
L 515.409289 95.924783 
L 516.221749 91.878657 
L 516.779613 87.788994 
L 517.080666 83.672042 
L 517.138062 80.920321 
L 517.138062 80.920321 
" clip-path="url(#p050bd3898d)" style="fill: none; stroke: #ff0000; stroke-width: 0.72; stroke-linejoin: miter"/>
   </g>
   <g id="line2d_7">
    <path d="M 69.820654 80.920321 
L 826.470263 80.920321 
" clip-path="url(#p050bd3898d)" style="fill: none; stroke: #ffffff; stroke-width: 0.72; stroke-linecap: square"/>
   </g>
   <g id="line2d_8">
    <path d="M 217.616247 80.920321 
L 237.81241 80.920321 
" clip-path="url(#p050bd3898d)" style="fill: none; stroke: #ffffff; stroke-width: 0.72; stroke-linecap: square"/>
   </g>
   <g id="patch_11">
    <path d="M 227.714329 72.505253 
L 236.129397 80.920321 
L 227.714329 89.335389 
L 219.29926 80.920321 
L 227.714329 72.505253 
" clip-path="url(#p050bd3898d)" style="fill: none; stroke: #ff0000; stroke-width: 0.72; stroke-linejoin: miter"/>
   </g>
   <g id="line2d_9">
    <path d="M 438.047376 80.920321 
L 458.24354 80.920321 
" clip-path="url(#p050bd3898d)" style="fill: none; stroke: #ffffff; stroke-width: 0.72; stroke-linecap: square"/>
   </g>
   <g id="patch_12">
    <path d="M 448.145458 72.505253 
L 456.560526 80.920321 
L 448.145458 89.335389 
L 439.73039 80.920321 
L 448.145458 72.505253 
" clip-path="url(#p050bd3898d)" style="fill: none; stroke: #ff0000; stroke-width: 0.72; stroke-linejoin: miter"/>
   </g>
   <g id="line2d_10">
    <path d="M 658.478506 80.920321 
L 678.67467 80.920321 
" clip-path="url(#p050bd3898d)" style="fill: none; stroke: #ffffff; stroke-width: 0.72; stroke-linecap: square"/>
   </g>
   <g id="patch_13">
    <path d="M 668.576588 72.505253 
L 676.991656 80.920321 
L 668.576588 89.335389 
L 660.16152 80.920321 
L 668.576588 72.505253 
" clip-path="url(#p050bd3898d)" style="fill: none; stroke: #ff0000; stroke-width: 0.72; stroke-linejoin: miter"/>
   </g>
   <g id="line2d_11">
    <path d="M 52.447688 107.160208 
L 1097.996125 174.40631 
" clip-path="url(#p050bd3898d)" style="fill: none; stroke: #ffffff; stroke-width: 0.72; stroke-linecap: square"/>
   </g>
   <g id="line2d_12">
    <path d="M 258.030335 120.382581 
L 278.184855 121.678851 
" clip-path="url(#p050bd3898d)" style="fill: none; stroke: #ffffff; stroke-width: 0.72; stroke-linecap: square"/>
   </g>
   <g id="patch_14">
    <path d="M 268.647707 112.632999 
L 276.505312 121.570829 
L 267.567483 129.428433 
L 259.709878 120.490604 
L 268.647707 112.632999 
" clip-path="url(#p050bd3898d)" style="fill: none; stroke: #ff0000; stroke-width: 0.72; stroke-linejoin: miter"/>
   </g>
   <g id="line2d_13">
    <path d="M 513.958928 136.843034 
L 534.113448 138.139303 
" clip-path="url(#p050bd3898d)" style="fill: none; stroke: #ffffff; stroke-width: 0.72; stroke-linecap: square"/>
   </g>
   <g id="patch_15">
    <path d="M 524.5763 129.093452 
L 532.433905 138.031281 
L 523.496076 145.888885 
L 515.638471 136.951056 
L 524.5763 129.093452 
" clip-path="url(#p050bd3898d)" style="fill: none; stroke: #ff0000; stroke-width: 0.72; stroke-linejoin: miter"/>
   </g>
   <g id="line2d_14">
    <path d="M 452.140076 15.427529 
L 452.140076 13.744515 
" clip-path="url(#p050bd3898d)" style="fill: none; stroke: #ff0000; stroke-width: 0.72; stroke-linecap: square"/>
   </g>
   <g id="line2d_15">
    <path d="M 452.140076 146.413113 
L 452.140076 148.096127 
" clip-path="url(#p050bd3898d)" style="fill: none; stroke: #ff0000; stroke-width: 0.72; stroke-linecap: square"/>
   </g>
   <g id="line2d_16">
    <path d="M 517.138062 80.920321 
L 518.821076 80.920321 
" clip-path="url(#p050bd3898d)" style="fill: none; stroke: #ff0000; stroke-width: 0.72; stroke-linecap: square"/>
   </g>
   <g id="line2d_17">
    <path d="M 387.14209 80.920321 
L 385.459076 80.920321 
" clip-path="url(#p050bd3898d)" style="fill: none; stroke: #ff0000; stroke-width: 0.72; stroke-linecap: square"/>
   </g>
   <g id="patch_16">
    <path d="M 355.366793 116.684361 
L 346.951725 116.684361 
L 346.951725 125.099429 
L 355.366793 125.099429 
L 355.366793 133.514497 
L 346.951725 133.514497 
" clip-path="url(#p050bd3898d)" style="fill: none; stroke: #ff0000; stroke-width: 0.72; stroke-linejoin: miter"/>
   </g>
   <g id="patch_17">
    <path d="M 367.989395 116.684361 
L 364.623368 116.684361 
" clip-path="url(#p050bd3898d)" style="fill: none; stroke: #ff0000; stroke-width: 0.72; stroke-linejoin: miter"/>
   </g>
   <g id="patch_18">
    <path d="M 362.940354 116.684361 
L 359.574327 116.684361 
L 359.574327 133.514497 
L 362.940354 133.514497 
" clip-path="url(#p050bd3898d)" style="fill: none; stroke: #ff0000; stroke-width: 0.72; stroke-linejoin: miter"/>
   </g>
   <g id="patch_19">
    <path d="M 364.623368 133.514497 
L 367.989395 133.514497 
L 367.989395 125.099429 
L 364.623368 125.099429 
" clip-path="url(#p050bd3898d)" style="fill: none; stroke: #ff0000; stroke-width: 0.72; stroke-linejoin: miter"/>
   </g>
   <g id="patch_20">
    <path d="M 362.940354 125.099429 
L 359.574327 125.099429 
" clip-path="url(#p050bd3898d)" style="fill: none; stroke: #ff0000; stroke-width: 0.72; stroke-linejoin: miter"/>
   </g>
  </g>
 </g>
 <defs>
  <clipPath id="p050bd3898d">
   <rect x="0" y="0" width="1152" height="183.728573"/>
  </clipPath>
 </defs>
</svg>
