<?xml version="1.0" encoding="utf-8" standalone="no"?>
<!DOCTYPE svg PUBLIC "-//W3C//DTD SVG 1.1//EN"
  "http://www.w3.org/Graphics/SVG/1.1/DTD/svg11.dtd">
<svg xmlns:xlink="http://www.w3.org/1999/xlink" width="1152pt" height="326.929262pt" viewBox="0 0 1152 326.929262" xmlns="http://www.w3.org/2000/svg" version="1.1">
 <metadata>
  <rdf:RDF xmlns:dc="http://purl.org/dc/elements/1.1/" xmlns:cc="http://creativecommons.org/ns#" xmlns:rdf="http://www.w3.org/1999/02/22-rdf-syntax-ns#">
   <cc:Work>
    <dc:type rdf:resource="http://purl.org/dc/dcmitype/StillImage"/>
    <dc:date>2026-01-07T02:07:09.540978</dc:date>
    <dc:format>image/svg+xml</dc:format>
    <dc:creator>
     <cc:Agent>
      <dc:title>Matplotlib v3.10.1, https://matplotlib.org/</dc:title>
     </cc:Agent>
    </dc:creator>
   </cc:Work>
  </rdf:RDF>
 </metadata>
 <defs>
  <style type="text/css">*{stroke-linejoin: round; stroke-linecap: butt}</style>
 </defs>
 <g id="figure_1">
  <g id="patch_1">
   <path d="M 0 326.929262 
L 1152 326.929262 
L 1152 0 
L 0 0 
z
" style="fill: #ffffff"/>
  </g>
  <g id="axes_1">
   <g id="patch_2">
    <path d="M 0 326.929262 
L 1152 326.929262 
L 1152 0 
L 0 0 
z
" style="fill: #212830"/>
   </g>
   <g id="patch_3">
    <path d="M 1099.636364 42.096326 
L 1082.340174 39.538262 
L 1060.308275 36.490944 
L 1038.252086 33.655171 
L 1016.169948 31.020749 
L 994.077544 28.575198 
L 971.996176 26.319037 
L 949.938404 24.261731 
L 927.908768 22.411679 
L 905.908448 20.771154 
L 883.937704 19.337178 
L 862.001667 18.100637 
L 840.11978 17.052791 
L 818.318047 16.196356 
L 796.608101 15.546714 
L 774.984152 15.113585 
L 753.441183 14.889949 
L 731.989418 14.860421 
L 710.649694 15.014033 
L 689.449352 15.348118 
L 668.418155 15.872706 
L 647.56883 16.609862 
L 626.887939 17.575926 
L 606.356967 18.759333 
L 585.987436 20.12769 
L 565.824049 21.658563 
L 545.915997 23.361151 
L 526.289989 25.264448 
L 506.941318 27.392858 
L 487.848502 29.744535 
L 469.006695 32.284735 
L 450.457193 34.966548 
L 432.27387 37.770857 
L 414.516154 40.722265 
L 397.189639 43.862245 
L 380.255225 47.199123 
L 363.688957 50.683009 
L 347.532214 54.241282 
L 331.866541 57.844383 
L 316.737863 61.521903 
L 302.126918 65.310581 
L 287.988416 69.209014 
L 274.296327 73.184077 
L 261.050115 77.201517 
L 248.263478 81.241013 
L 235.949561 85.297883 
L 224.112278 89.381534 
L 212.737708 93.510469 
L 201.797391 97.697076 
L 191.262099 101.938283 
L 181.115564 106.21712 
L 171.359145 110.516126 
L 162.000493 114.83036 
L 153.038827 119.166983 
L 144.462731 123.530848 
L 136.26348 127.911676 
L 128.444732 132.294451 
L 121.011048 136.675638 
L 113.955908 141.061773 
L 107.269226 145.452809 
L 100.952555 149.841154 
L 95.017357 154.21966 
L 89.473229 158.588874 
L 84.324789 162.947972 
L 79.572361 167.295314 
L 75.202095 171.638781 
L 71.187065 175.979393 
L 67.514868 180.283216 
L 64.21568 184.488653 
L 61.338951 188.568847 
L 58.902425 192.562962 
L 56.880422 196.526873 
L 55.238161 200.463262 
L 53.961252 204.322662 
L 53.052524 208.094381 
L 52.515199 211.862618 
L 52.363636 215.373265 
L 52.589149 218.833823 
L 53.217443 222.154344 
L 54.292762 225.380435 
L 55.855741 228.570417 
L 57.906213 231.741567 
L 60.412099 234.866631 
L 63.364464 237.912253 
L 66.795412 240.867629 
L 70.738855 243.739714 
L 75.193747 246.533128 
L 80.144611 249.240973 
L 85.59468 251.85591 
L 91.562394 254.383614 
L 98.05217 256.839449 
L 105.052681 259.234367 
L 112.55176 261.569948 
L 120.545514 263.843372 
L 129.033595 266.053052 
L 138.019908 268.19825 
L 147.514631 270.281386 
L 157.52492 272.30971 
L 168.051515 274.286183 
L 179.100664 276.204695 
L 190.695886 278.058694 
L 202.864151 279.85339 
L 215.622352 281.599085 
L 228.982319 283.298347 
L 242.967425 284.94692 
L 257.607246 286.545308 
L 288.925509 289.616431 
L 305.622825 291.086021 
L 341.115143 293.868726 
L 379.285321 296.420526 
L 419.873642 298.700256 
L 462.651582 300.707551 
L 462.569025 302.73687 
L 506.828375 304.454025 
L 552.693284 305.892798 
L 599.836212 307.093874 
L 647.918619 308.049843 
L 721.915 309.072765 
L 797.550503 310.007786 
L 900.190186 310.864555 
L 1004.108354 311.618463 
L 1082.198012 311.992937 
L 1099.636364 312.068841 
L 1099.636364 42.096326 
L 1099.636364 42.096326 
" clip-path="url(#pf969911605)" style="fill: none; stroke: #ff0000; stroke-width: 0.72; stroke-linejoin: miter"/>
   </g>
   <g id="patch_4">
    <path d="M 639.681179 247.355771 
L 649.836169 247.355771 
L 649.836169 257.510761 
L 639.681179 257.510761 
L 639.681179 267.665751 
L 649.836169 267.665751 
" clip-path="url(#pf969911605)" style="fill: none; stroke: #ff0000; stroke-width: 0.72; stroke-linejoin: miter"/>
   </g>
   <g id="patch_5">
    <path d="M 659.991159 247.355771 
L 659.991159 267.665751 
" clip-path="url(#pf969911605)" style="fill: none; stroke: #ff0000; stroke-width: 0.72; stroke-linejoin: miter"/>
   </g>
   <g id="patch_6">
    <path d="M 632.499706 25.44677 
L 624.384567 25.825923 
L 624.005414 17.710784 
L 632.120554 17.331631 
L 632.499706 25.44677 
" clip-path="url(#pf969911605)" style="fill: none; stroke: #ff0000; stroke-width: 0.72; stroke-linejoin: miter"/>
   </g>
   <g id="patch_7">
    <path d="M 275.166129 81.409713 
L 267.391865 83.767692 
L 265.033886 75.993428 
L 272.80815 73.635449 
L 275.166129 81.409713 
" clip-path="url(#pf969911605)" style="fill: none; stroke: #ff0000; stroke-width: 0.72; stroke-linejoin: miter"/>
   </g>
   <g id="patch_8">
    <path d="M 94.398298 167.725869 
L 91.29911 170.351673 
L 84.734601 162.603704 
L 87.833788 159.9779 
L 94.398298 167.725869 
" clip-path="url(#pf969911605)" style="fill: none; stroke: #ff0000; stroke-width: 0.72; stroke-linejoin: miter"/>
   </g>
   <g id="patch_9">
    <path d="M 74.336146 233.793262 
L 77.623138 236.179785 
L 71.656829 244.397266 
L 68.369837 242.010742 
L 74.336146 233.793262 
" clip-path="url(#pf969911605)" style="fill: none; stroke: #ff0000; stroke-width: 0.72; stroke-linejoin: miter"/>
   </g>
   <g id="patch_10">
    <path d="M 354.863669 286.683613 
L 362.967985 287.248678 
L 362.40292 295.352994 
L 354.298604 294.787929 
L 354.863669 286.683613 
" clip-path="url(#pf969911605)" style="fill: none; stroke: #ff0000; stroke-width: 0.72; stroke-linejoin: miter"/>
   </g>
   <g id="patch_11">
    <path d="M 965.705053 163.130481 
L 965.601778 157.911794 
L 965.292135 152.702322 
L 964.77667 147.511268 
L 964.056295 142.347799 
L 963.132281 137.221034 
L 962.006261 132.140027 
L 960.680223 127.113753 
L 959.156508 122.151087 
L 957.437809 117.260795 
L 955.52716 112.451513 
L 953.427935 107.731734 
L 951.143843 103.109795 
L 948.678917 98.593858 
L 946.03751 94.191899 
L 943.224287 89.911691 
L 940.244217 85.760795 
L 937.102563 81.74654 
L 933.804873 77.876018 
L 930.356972 74.156062 
L 926.764948 70.593244 
L 923.035145 67.193855 
L 919.174151 63.963898 
L 915.188784 60.909079 
L 911.086084 58.034793 
L 906.873295 55.346115 
L 902.557858 52.847795 
L 898.147395 50.544244 
L 893.649694 48.43953 
L 889.072699 46.537372 
L 884.424494 44.841127 
L 879.713287 43.353793 
L 874.947399 42.077995 
L 870.135248 41.015987 
L 865.28533 40.169644 
L 860.406214 39.540462 
L 855.506514 39.129551 
L 850.594884 38.937638 
L 845.68 38.96506 
L 840.77054 39.21177 
L 835.875176 39.677332 
L 831.002553 40.360923 
L 826.161276 41.261337 
L 821.359897 42.376983 
L 816.606893 43.705891 
L 811.910661 45.245714 
L 807.279493 46.993732 
L 802.72157 48.946858 
L 798.244939 51.101643 
L 793.857508 53.454282 
L 789.567026 56.000619 
L 785.381069 58.736157 
L 781.307031 61.656065 
L 777.352106 64.755186 
L 773.523279 68.028047 
L 769.827313 71.468868 
L 766.270735 75.071571 
L 762.859825 78.829795 
L 759.600609 82.736902 
L 756.498842 86.785991 
L 753.560001 90.969912 
L 750.789279 95.281274 
L 748.191567 99.712465 
L 745.771453 104.255658 
L 743.533212 108.902829 
L 741.480797 113.645771 
L 739.617832 118.476108 
L 737.947608 123.385309 
L 736.473073 128.364703 
L 735.196834 133.405497 
L 734.121143 138.498788 
L 733.2479 143.63558 
L 732.578647 148.806803 
L 732.114567 154.003322 
L 731.856479 159.215961 
L 731.804838 164.435514 
L 731.959737 169.652761 
L 732.320901 174.85849 
L 732.887692 180.043505 
L 733.65911 185.198651 
L 734.633793 190.314822 
L 735.810018 195.382984 
L 737.185708 200.394184 
L 738.758435 205.339573 
L 740.52542 210.210418 
L 742.483542 214.998114 
L 744.629344 219.694208 
L 746.959035 224.290405 
L 749.468502 228.778587 
L 752.153312 233.150829 
L 755.008724 237.399409 
L 758.029695 241.516823 
L 761.210889 245.495799 
L 764.546689 249.329311 
L 768.031202 253.010588 
L 771.658275 256.533128 
L 775.421502 259.89071 
L 779.314237 263.077404 
L 783.329606 266.087584 
L 787.460515 268.915931 
L 791.699671 271.557452 
L 796.039586 274.00748 
L 800.472595 276.26169 
L 804.99087 278.316099 
L 809.58643 280.16708 
L 814.25116 281.811364 
L 818.976821 283.246046 
L 823.755067 284.468593 
L 828.57746 285.476845 
L 833.435482 286.269023 
L 838.320555 286.843726 
L 843.224049 287.199941 
L 848.137306 287.337037 
L 853.051648 287.254773 
L 857.958396 286.953294 
L 862.848884 286.433133 
L 867.714476 285.695208 
L 872.546577 284.740822 
L 877.336654 283.571661 
L 882.076248 282.18979 
L 886.756988 280.597649 
L 891.370606 278.79805 
L 895.908956 276.794171 
L 900.364022 274.589552 
L 904.727935 272.188086 
L 908.99299 269.594014 
L 913.151653 266.811918 
L 917.196579 263.846711 
L 921.120626 260.703629 
L 924.916862 257.388225 
L 928.578584 253.906352 
L 932.099324 250.264161 
L 935.472865 246.468084 
L 938.693248 242.524824 
L 941.754786 238.441347 
L 944.652072 234.224865 
L 947.379989 229.882823 
L 949.933719 225.42289 
L 952.308753 220.852943 
L 954.500895 216.181052 
L 956.506275 211.41547 
L 958.32135 206.564612 
L 959.942915 201.637045 
L 961.368106 196.641472 
L 962.594406 191.586715 
L 963.619649 186.481702 
L 964.442025 181.335449 
L 965.060082 176.157044 
L 965.472726 170.955633 
L 965.679231 165.740402 
L 965.705053 163.130481 
L 965.705053 163.130481 
" clip-path="url(#pf969911605)" style="fill: none; stroke: #ff0000; stroke-width: 0.72; stroke-linejoin: miter"/>
   </g>
   <g id="patch_12">
    <path d="M 394.086311 152.975492 
L 404.241301 163.130481 
L 394.086311 173.285471 
L 383.931321 163.130481 
L 394.086311 152.975492 
" clip-path="url(#pf969911605)" style="fill: none; stroke: #ff0000; stroke-width: 0.72; stroke-linejoin: miter"/>
   </g>
   <g id="patch_13">
    <path d="M 839.225636 152.975492 
L 849.380626 163.130481 
L 839.225636 173.285471 
L 829.070646 163.130481 
L 839.225636 152.975492 
" clip-path="url(#pf969911605)" style="fill: none; stroke: #ff0000; stroke-width: 0.72; stroke-linejoin: miter"/>
   </g>
   <g id="patch_14">
    <path d="M 477.568691 228.402235 
L 487.046056 239.192379 
L 476.255912 248.669743 
L 466.778547 237.8796 
L 477.568691 228.402235 
" clip-path="url(#pf969911605)" style="fill: none; stroke: #ff0000; stroke-width: 0.72; stroke-linejoin: miter"/>
   </g>
   <g id="patch_15">
    <path d="M 991.453616 261.687897 
L 1000.930981 272.47804 
L 990.140837 281.955405 
L 980.663473 271.165261 
L 991.453616 261.687897 
" clip-path="url(#pf969911605)" style="fill: none; stroke: #ff0000; stroke-width: 0.72; stroke-linejoin: miter"/>
   </g>
   <g id="patch_16">
    <path d="M 533.94703 202.942648 
L 544.10202 192.787658 
L 554.25701 202.942648 
L 544.10202 213.097638 
L 533.94703 202.942648 
" clip-path="url(#pf969911605)" style="fill: none; stroke: #ff0000; stroke-width: 0.72; stroke-linejoin: miter"/>
   </g>
   <g id="patch_17">
    <path d="M 533.94703 126.233066 
L 544.10202 116.078076 
L 554.25701 126.233066 
L 544.10202 136.388056 
L 533.94703 126.233066 
" clip-path="url(#pf969911605)" style="fill: none; stroke: #ff0000; stroke-width: 0.72; stroke-linejoin: miter"/>
   </g>
   <g id="line2d_1">
    <path d="M 84.125274 163.130481 
L 1099.636364 163.130481 
" clip-path="url(#pf969911605)" style="fill: none; stroke: #ffffff; stroke-width: 0.72; stroke-linecap: square"/>
   </g>
   <g id="line2d_2">
    <path d="M 381.900323 163.130481 
L 406.272299 163.130481 
" clip-path="url(#pf969911605)" style="fill: none; stroke: #ffffff; stroke-width: 0.72; stroke-linecap: square"/>
   </g>
   <g id="line2d_3">
    <path d="M 827.039648 163.130481 
L 851.411624 163.130481 
" clip-path="url(#pf969911605)" style="fill: none; stroke: #ffffff; stroke-width: 0.72; stroke-linecap: square"/>
   </g>
   <g id="line2d_4">
    <path d="M 52.630481 211.054153 
L 1099.636364 278.871444 
" clip-path="url(#pf969911605)" style="fill: none; stroke: #ffffff; stroke-width: 0.72; stroke-linecap: square"/>
   </g>
   <g id="line2d_5">
    <path d="M 464.751797 237.748322 
L 489.072806 239.323657 
" clip-path="url(#pf969911605)" style="fill: none; stroke: #ffffff; stroke-width: 0.72; stroke-linecap: square"/>
   </g>
   <g id="line2d_6">
    <path d="M 978.636722 271.033983 
L 1002.957732 272.609318 
" clip-path="url(#pf969911605)" style="fill: none; stroke: #ffffff; stroke-width: 0.72; stroke-linecap: square"/>
   </g>
   <g id="line2d_7">
    <path d="M 848.751718 38.922212 
L 848.751718 36.891214 
" clip-path="url(#pf969911605)" style="fill: none; stroke: #ff0000; stroke-width: 0.72; stroke-linecap: square"/>
   </g>
   <g id="line2d_8">
    <path d="M 848.751718 287.338751 
L 848.751718 289.369749 
" clip-path="url(#pf969911605)" style="fill: none; stroke: #ff0000; stroke-width: 0.72; stroke-linecap: square"/>
   </g>
   <g id="line2d_9">
    <path d="M 965.705053 163.130481 
L 967.736051 163.130481 
" clip-path="url(#pf969911605)" style="fill: none; stroke: #ff0000; stroke-width: 0.72; stroke-linecap: square"/>
   </g>
   <g id="line2d_10">
    <path d="M 731.798382 163.130481 
L 729.767384 163.130481 
" clip-path="url(#pf969911605)" style="fill: none; stroke: #ff0000; stroke-width: 0.72; stroke-linecap: square"/>
   </g>
   <g id="line2d_11">
    <path d="M 544.10202 305.638647 
L 544.10202 23.537067 
" clip-path="url(#pf969911605)" style="fill: none; stroke: #ffffff; stroke-width: 0.72; stroke-linecap: square"/>
   </g>
   <g id="line2d_12">
    <path d="M 544.10202 215.128636 
L 544.10202 190.75666 
" clip-path="url(#pf969911605)" style="fill: none; stroke: #ffffff; stroke-width: 0.72; stroke-linecap: square"/>
   </g>
   <g id="line2d_13">
    <path d="M 544.10202 138.419054 
L 544.10202 114.047078 
" clip-path="url(#pf969911605)" style="fill: none; stroke: #ffffff; stroke-width: 0.72; stroke-linecap: square"/>
   </g>
  </g>
 </g>
 <defs>
  <clipPath id="pf969911605">
   <rect x="0" y="0" width="1152" height="326.929262"/>
  </clipPath>
 </defs>
</svg>
