  0
SECTION
  2
HEADER
  9
$ACADVER
  1
AC1021
  9
$ACADMAINTVER
 70
25
  9
$DWGCODEPAGE
  3
ANSI_1252
  9
$LASTSAVEDBY
  1
ezdxf
  9
$INSBASE
 10
0.0
 20
0.0
 30
0.0
  9
$EXTMIN
 10
1e+20
 20
1e+20
 30
1e+20
  9
$EXTMAX
 10
-1e+20
 20
-1e+20
 30
-1e+20
  9
$LIMMIN
 10
0.0
 20
0.0
  9
$LIMMAX
 10
420.0
 20
297.0
  9
$ORTHOMODE
 70
0
  9
$REGENMODE
 70
1
  9
$FILLMODE
 70
1
  9
$QTEXTMODE
 70
0
  9
$MIRRTEXT
 70
1
  9
$LTSCALE
 40
1.0
  9
$ATTMODE
 70
1
  9
$TEXTSIZE
 40
2.5
  9
$TRACEWID
 40
1.0
  9
$TEXTSTYLE
  7
OpenSans
  9
$CLAYER
  8
0
  9
$CELTYPE
  6
ByLayer
  9
$CECOLOR
 62
256
  9
$CELTSCALE
 40
1.0
  9
$DISPSILH
 70
0
  9
$DIMSCALE
 40
1.0
  9
$DIMASZ
 40
0.175
  9
$DIMEXO
 40
0.125
  9
$DIMDLI
 40
3.75
  9
$DIMRND
 40
0.0
  9
$DIMDLE
 40
0.0
  9
$DIMEXE
 40
0.375
  9
$DIMTP
 40
0.0
  9
$DIMTM
 40
0.0
  9
$DIMTXT
 40
0.25
  9
$DIMCEN
 40
2.5
  9
$DIMTSZ
 40
0.0
  9
$DIMTOL
 70
0
  9
$DIMLIM
 70
0
  9
$DIMTIH
 70
0
  9
$DIMTOH
 70
0
  9
$DIMSE1
 70
0
  9
$DIMSE2
 70
0
  9
$DIMTAD
 70
1
  9
$DIMZIN
 70
12
  9
$DIMBLK
  1
ARCHTICK
  9
$DIMASO
 70
1
  9
$DIMSHO
 70
1
  9
$DIMPOST
  1

  9
$DIMAPOST
  1

  9
$DIMALT
 70
0
  9
$DIMALTD
 70
3
  9
$DIMALTF
 40
0.03937007874
  9
$DIMLFAC
 40
100.0
  9
$DIMTOFL
 70
1
  9
$DIMTVP
 40
0.0
  9
$DIMTIX
 70
0
  9
$DIMSOXD
 70
0
  9
$DIMSAH
 70
0
  9
$DIMBLK1
  1

  9
$DIMBLK2
  1

  9
$DIMSTYLE
  2
EZDXF
  9
$DIMCLRD
 70
0
  9
$DIMCLRE
 70
0
  9
$DIMCLRT
 70
0
  9
$DIMTFAC
 40
0.5
  9
$DIMGAP
 40
0.1
  9
$DIMJUST
 70
0
  9
$DIMSD1
 70
0
  9
$DIMSD2
 70
0
  9
$DIMTOLJ
 70
0
  9
$DIMTZIN
 70
8
  9
$DIMALTZ
 70
0
  9
$DIMALTTZ
 70
0
  9
$DIMUPT
 70
1
  9
$DIMDEC
 70
2
  9
$DIMTDEC
 70
2
  9
$DIMALTU
 70
2
  9
$DIMALTTD
 70
3
  9
$DIMTXSTY
  7
OpenSansCondensed-Light
  9
$DIMAUNIT
 70
0
  9
$DIMADEC
 70
2
  9
$DIMALTRND
 40
0.0
  9
$DIMAZIN
 70
3
  9
$DIMDSEP
 70
46
  9
$DIMATFIT
 70
3
  9
$DIMFRAC
 70
0
  9
$DIMLDRBLK
  1

  9
$DIMLUNIT
 70
2
  9
$DIMLWD
 70
-2
  9
$DIMLWE
 70
-2
  9
$DIMTMOVE
 70
2
  9
$DIMFXL
 40
1.0
  9
$DIMFXLON
 70
0
  9
$DIMJOGANG
 40
0.785398163397
  9
$DIMTFILL
 70
0
  9
$DIMTFILLCLR
 70
0
  9
$DIMARCSYM
 70
0
  9
$DIMLTYPE
  6

  9
$DIMLTEX1
  6

  9
$DIMLTEX2
  6

  9
$LUNITS
 70
2
  9
$LUPREC
 70
4
  9
$SKETCHINC
 40
1.0
  9
$FILLETRAD
 40
10.0
  9
$AUNITS
 70
0
  9
$AUPREC
 70
2
  9
$MENU
  1
.
  9
$ELEVATION
 40
0.0
  9
$PELEVATION
 40
0.0
  9
$THICKNESS
 40
0.0
  9
$LIMCHECK
 70
0
  9
$CHAMFERA
 40
0.0
  9
$CHAMFERB
 40
0.0
  9
$CHAMFERC
 40
0.0
  9
$CHAMFERD
 40
0.0
  9
$SKPOLY
 70
0
  9
$TDCREATE
 40
2461048.0884722224
  9
$TDUCREATE
 40
2458532.153996898
  9
$TDUPDATE
 40
2461048.0884722224
  9
$TDUUPDATE
 40
2458532.1544311
  9
$TDINDWG
 40
0.0
  9
$TDUSRTIMER
 40
0.0
  9
$USRTIMER
 70
1
  9
$ANGBASE
 50
0.0
  9
$ANGDIR
 70
0
  9
$PDMODE
 70
0
  9
$PDSIZE
 40
0.0
  9
$PLINEWID
 40
0.0
  9
$SPLFRAME
 70
0
  9
$SPLINETYPE
 70
6
  9
$SPLINESEGS
 70
8
  9
$HANDSEED
  5
B6
  9
$SURFTAB1
 70
6
  9
$SURFTAB2
 70
6
  9
$SURFTYPE
 70
6
  9
$SURFU
 70
6
  9
$SURFV
 70
6
  9
$UCSBASE
  2

  9
$UCSNAME
  2

  9
$UCSORG
 10
0.0
 20
0.0
 30
0.0
  9
$UCSXDIR
 10
1.0
 20
0.0
 30
0.0
  9
$UCSYDIR
 10
0.0
 20
1.0
 30
0.0
  9
$UCSORTHOREF
  2

  9
$UCSORTHOVIEW
 70
0
  9
$UCSORGTOP
 10
0.0
 20
0.0
 30
0.0
  9
$UCSORGBOTTOM
 10
0.0
 20
0.0
 30
0.0
  9
$UCSORGLEFT
 10
0.0
 20
0.0
 30
0.0
  9
$UCSORGRIGHT
 10
0.0
 20
0.0
 30
0.0
  9
$UCSORGFRONT
 10
0.0
 20
0.0
 30
0.0
  9
$UCSORGBACK
 10
0.0
 20
0.0
 30
0.0
  9
$PUCSBASE
  2

  9
$PUCSNAME
  2

  9
$PUCSORG
 10
0.0
 20
0.0
 30
0.0
  9
$PUCSXDIR
 10
1.0
 20
0.0
 30
0.0
  9
$PUCSYDIR
 10
0.0
 20
1.0
 30
0.0
  9
$PUCSORTHOREF
  2

  9
$PUCSORTHOVIEW
 70
0
  9
$PUCSORGTOP
 10
0.0
 20
0.0
 30
0.0
  9
$PUCSORGBOTTOM
 10
0.0
 20
0.0
 30
0.0
  9
$PUCSORGLEFT
 10
0.0
 20
0.0
 30
0.0
  9
$PUCSORGRIGHT
 10
0.0
 20
0.0
 30
0.0
  9
$PUCSORGFRONT
 10
0.0
 20
0.0
 30
0.0
  9
$PUCSORGBACK
 10
0.0
 20
0.0
 30
0.0
  9
$USERI1
 70
0
  9
$USERI2
 70
0
  9
$USERI3
 70
0
  9
$USERI4
 70
0
  9
$USERI5
 70
0
  9
$USERR1
 40
0.0
  9
$USERR2
 40
0.0
  9
$USERR3
 40
0.0
  9
$USERR4
 40
0.0
  9
$USERR5
 40
0.0
  9
$WORLDVIEW
 70
1
  9
$SHADEDGE
 70
3
  9
$SHADEDIF
 70
70
  9
$TILEMODE
 70
1
  9
$MAXACTVP
 70
64
  9
$PINSBASE
 10
0.0
 20
0.0
 30
0.0
  9
$PLIMCHECK
 70
0
  9
$PEXTMIN
 10
1e+20
 20
1e+20
 30
1e+20
  9
$PEXTMAX
 10
-1e+20
 20
-1e+20
 30
-1e+20
  9
$PLIMMIN
 10
0.0
 20
0.0
  9
$PLIMMAX
 10
420.0
 20
297.0
  9
$UNITMODE
 70
0
  9
$VISRETAIN
 70
1
  9
$PLINEGEN
 70
0
  9
$PSLTSCALE
 70
1
  9
$TREEDEPTH
 70
3020
  9
$CMLSTYLE
  2
Standard
  9
$CMLJUST
 70
0
  9
$CMLSCALE
 40
20.0
  9
$PROXYGRAPHICS
 70
1
  9
$MEASUREMENT
 70
1
  9
$CELWEIGHT
370
-1
  9
$ENDCAPS
280
0
  9
$JOINSTYLE
280
0
  9
$LWDISPLAY
290
0
  9
$INSUNITS
 70
6
  9
$HYPERLINKBASE
  1

  9
$STYLESHEET
  1

  9
$XEDIT
290
1
  9
$CEPSNTYPE
380
0
  9
$PSTYLEMODE
290
1
  9
$FINGERPRINTGUID
  2
{CB7B32D9-29CD-4BA4-91C4-F5ABD747355B}
  9
$VERSIONGUID
  2
{2C0FD1A3-62FD-437C-A8F6-25D7484598F5}
  9
$EXTNAMES
290
1
  9
$PSVPSCALE
 40
0.0
  9
$OLESTARTUP
290
0
  9
$SORTENTS
280
127
  9
$INDEXCTL
280
0
  9
$HIDETEXT
280
1
  9
$XCLIPFRAME
290
1
  9
$HALOGAP
280
0
  9
$OBSCOLOR
 70
257
  9
$OBSLTYPE
280
0
  9
$INTERSECTIONDISPLAY
280
0
  9
$INTERSECTIONCOLOR
 70
257
  9
$DIMASSOC
280
2
  9
$PROJECTNAME
  1

  9
$CAMERADISPLAY
290
0
  9
$LENSLENGTH
 40
50.0
  9
$CAMERAHEIGHT
 40
0.0
  9
$STEPSPERSEC
 40
24.0
  9
$STEPSIZE
 40
100.0
  9
$3DDWFPREC
 40
2.0
  9
$PSOLWIDTH
 40
0.005
  9
$PSOLHEIGHT
 40
0.08
  9
$LOFTANG1
 40
1.570796326795
  9
$LOFTANG2
 40
1.570796326795
  9
$LOFTMAG1
 40
0.0
  9
$LOFTMAG2
 40
0.0
  9
$LOFTPARAM
 70
7
  9
$LOFTNORMALS
280
1
  9
$LATITUDE
 40
37.795
  9
$LONGITUDE
 40
-122.394
  9
$NORTHDIRECTION
 40
0.0
  9
$TIMEZONE
 70
-8000
  9
$LIGHTGLYPHDISPLAY
280
1
  9
$TILEMODELIGHTSYNCH
280
1
  9
$CMATERIAL
347
20
  9
$SOLIDHIST
280
0
  9
$SHOWHIST
280
1
  9
$DWFFRAME
280
2
  9
$DGNFRAME
280
2
  9
$REALWORLDSCALE
290
1
  9
$INTERFERECOLOR
 62
256
  9
$CSHADOW
280
0
  9
$SHADOWPLANELOCATION
 40
0.0
  0
ENDSEC
  0
SECTION
  2
CLASSES
  0
CLASS
  1
ACDBDICTIONARYWDFLT
  2
AcDbDictionaryWithDefault
  3
ObjectDBX Classes
 90
0
 91
0
280
0
281
0
  0
CLASS
  1
SUN
  2
AcDbSun
  3
SCENEOE
 90
1153
 91
0
280
0
281
0
  0
CLASS
  1
VISUALSTYLE
  2
AcDbVisualStyle
  3
ObjectDBX Classes
 90
4095
 91
0
280
0
281
0
  0
CLASS
  1
MATERIAL
  2
AcDbMaterial
  3
ObjectDBX Classes
 90
1153
 91
0
280
0
281
0
  0
CLASS
  1
SCALE
  2
AcDbScale
  3
ObjectDBX Classes
 90
1153
 91
0
280
0
281
0
  0
CLASS
  1
TABLESTYLE
  2
AcDbTableStyle
  3
ObjectDBX Classes
 90
4095
 91
0
280
0
281
0
  0
CLASS
  1
MLEADERSTYLE
  2
AcDbMLeaderStyle
  3
ACDB_MLEADERSTYLE_CLASS
 90
4095
 91
0
280
0
281
0
  0
CLASS
  1
DICTIONARYVAR
  2
AcDbDictionaryVar
  3
ObjectDBX Classes
 90
0
 91
0
280
0
281
0
  0
CLASS
  1
CELLSTYLEMAP
  2
AcDbCellStyleMap
  3
ObjectDBX Classes
 90
1152
 91
0
280
0
281
0
  0
CLASS
  1
MENTALRAYRENDERSETTINGS
  2
AcDbMentalRayRenderSettings
  3
SCENEOE
 90
1024
 91
0
280
0
281
0
  0
CLASS
  1
ACDBDETAILVIEWSTYLE
  2
AcDbDetailViewStyle
  3
ObjectDBX Classes
 90
1025
 91
0
280
0
281
0
  0
CLASS
  1
ACDBSECTIONVIEWSTYLE
  2
AcDbSectionViewStyle
  3
ObjectDBX Classes
 90
1025
 91
0
280
0
281
0
  0
CLASS
  1
RASTERVARIABLES
  2
AcDbRasterVariables
  3
ISM
 90
0
 91
0
280
0
281
0
  0
CLASS
  1
ACDBPLACEHOLDER
  2
AcDbPlaceHolder
  3
ObjectDBX Classes
 90
0
 91
0
280
0
281
0
  0
CLASS
  1
LAYOUT
  2
AcDbLayout
  3
ObjectDBX Classes
 90
0
 91
0
280
0
281
0
  0
ENDSEC
  0
SECTION
  2
TABLES
  0
TABLE
  2
VPORT
  5
8
330
0
100
AcDbSymbolTable
 70
1
  0
VPORT
  5
23
330
8
100
AcDbSymbolTableRecord
100
AcDbViewportTableRecord
  2
*Active
 70
0
 10
0.0
 20
0.0
 11
1.0
 21
1.0
 12
0.0
 22
0.0
 13
0.0
 23
0.0
 14
0.5
 24
0.5
 15
0.5
 25
0.5
 16
0.0
 26
0.0
 36
1.0
 17
0.0
 27
0.0
 37
0.0
 40
1000.0
 41
1.34
 42
50.0
 43
0.0
 44
0.0
 50
0.0
 51
0.0
 71
0
 72
1000
 73
1
 74
3
 75
0
 76
0
 77
0
 78
0
281
0
 65
0
146
0.0
  0
ENDTAB
  0
TABLE
  2
LTYPE
  5
2
330
0
100
AcDbSymbolTable
 70
21
  0
LTYPE
  5
24
330
2
100
AcDbSymbolTableRecord
100
AcDbLinetypeTableRecord
  2
ByBlock
 70
0
  3

 72
65
 73
0
 40
0.0
  0
LTYPE
  5
25
330
2
100
AcDbSymbolTableRecord
100
AcDbLinetypeTableRecord
  2
ByLayer
 70
0
  3

 72
65
 73
0
 40
0.0
  0
LTYPE
  5
26
330
2
100
AcDbSymbolTableRecord
100
AcDbLinetypeTableRecord
  2
Continuous
 70
0
  3

 72
65
 73
0
 40
0.0
  0
LTYPE
  5
2F
330
2
100
AcDbSymbolTableRecord
100
AcDbLinetypeTableRecord
  2
CENTER
 70
0
  3
Center ____ _ ____ _ ____ _ ____ _ ____ _ ____
 72
65
 73
4
 40
5.08
 49
3.175
 74
0
 49
-0.635
 74
0
 49
0.635
 74
0
 49
-0.635
 74
0
  0
LTYPE
  5
30
330
2
100
AcDbSymbolTableRecord
100
AcDbLinetypeTableRecord
  2
CENTERX2
 70
0
  3
Center (2x) ________  __  ________  __  ________
 72
65
 73
4
 40
8.89
 49
6.35
 74
0
 49
-0.635
 74
0
 49
1.27
 74
0
 49
-0.635
 74
0
  0
LTYPE
  5
31
330
2
100
AcDbSymbolTableRecord
100
AcDbLinetypeTableRecord
  2
CENTER2
 70
0
  3
Center (.5x) ____ _ ____ _ ____ _ ____ _ ____
 72
65
 73
4
 40
2.54
 49
1.587
 74
0
 49
-0.318
 74
0
 49
0.318
 74
0
 49
-0.318
 74
0
  0
LTYPE
  5
32
330
2
100
AcDbSymbolTableRecord
100
AcDbLinetypeTableRecord
  2
DASHED
 70
0
  3
Dashed __ __ __ __ __ __ __ __ __ __ __ __ __ _
 72
65
 73
2
 40
1.524
 49
1.27
 74
0
 49
-0.254
 74
0
  0
LTYPE
  5
33
330
2
100
AcDbSymbolTableRecord
100
AcDbLinetypeTableRecord
  2
DASHEDX2
 70
0
  3
Dashed (2x) ____  ____  ____  ____  ____  ____
 72
65
 73
2
 40
3.048
 49
2.54
 74
0
 49
-0.508
 74
0
  0
LTYPE
  5
34
330
2
100
AcDbSymbolTableRecord
100
AcDbLinetypeTableRecord
  2
DASHED2
 70
0
  3
Dashed (.5x) _ _ _ _ _ _ _ _ _ _ _ _ _ _
 72
65
 73
2
 40
0.762
 49
0.635
 74
0
 49
-0.127
 74
0
  0
LTYPE
  5
35
330
2
100
AcDbSymbolTableRecord
100
AcDbLinetypeTableRecord
  2
PHANTOM
 70
0
  3
Phantom ______  __  __  ______  __  __  ______
 72
65
 73
6
 40
6.35
 49
3.175
 74
0
 49
-0.635
 74
0
 49
0.635
 74
0
 49
-0.635
 74
0
 49
0.635
 74
0
 49
-0.635
 74
0
  0
LTYPE
  5
36
330
2
100
AcDbSymbolTableRecord
100
AcDbLinetypeTableRecord
  2
PHANTOMX2
 70
0
  3
Phantom (2x)____________    ____    ____    ____________
 72
65
 73
6
 40
10.795
 49
6.35
 74
0
 49
-0.635
 74
0
 49
1.27
 74
0
 49
-0.635
 74
0
 49
1.27
 74
0
 49
-0.635
 74
0
  0
LTYPE
  5
37
330
2
100
AcDbSymbolTableRecord
100
AcDbLinetypeTableRecord
  2
PHANTOM2
 70
0
  3
Phantom (.5x) ___ _ _ ___ _ _ ___ _ _ ___ _ _ ___
 72
65
 73
6
 40
3.175
 49
1.587
 74
0
 49
-0.318
 74
0
 49
0.318
 74
0
 49
-0.318
 74
0
 49
0.318
 74
0
 49
-0.318
 74
0
  0
LTYPE
  5
38
330
2
100
AcDbSymbolTableRecord
100
AcDbLinetypeTableRecord
  2
DASHDOT
 70
0
  3
Dash dot __ . __ . __ . __ . __ . __ . __ . __
 72
65
 73
4
 40
3.556
 49
2.54
 74
0
 49
-0.508
 74
0
 49
0.0
 74
0
 49
-0.508
 74
0
  0
LTYPE
  5
39
330
2
100
AcDbSymbolTableRecord
100
AcDbLinetypeTableRecord
  2
DASHDOTX2
 70
0
  3
Dash dot (2x) ____  .  ____  .  ____  .  ____
 72
65
 73
4
 40
6.096
 49
5.08
 74
0
 49
-0.508
 74
0
 49
0.0
 74
0
 49
-0.508
 74
0
  0
LTYPE
  5
3A
330
2
100
AcDbSymbolTableRecord
100
AcDbLinetypeTableRecord
  2
DASHDOT2
 70
0
  3
Dash dot (.5x) _ . _ . _ . _ . _ . _ . _ . _
 72
65
 73
4
 40
1.778
 49
1.27
 74
0
 49
-0.254
 74
0
 49
0.0
 74
0
 49
-0.254
 74
0
  0
LTYPE
  5
3B
330
2
100
AcDbSymbolTableRecord
100
AcDbLinetypeTableRecord
  2
DOT
 70
0
  3
Dot .  .  .  .  .  .  .  .  .  .  .  .  .  .  .  .
 72
65
 73
2
 40
0.508
 49
0.0
 74
0
 49
-0.508
 74
0
  0
LTYPE
  5
3C
330
2
100
AcDbSymbolTableRecord
100
AcDbLinetypeTableRecord
  2
DOTX2
 70
0
  3
Dot (2x) .    .    .    .    .    .    .    . 
 72
65
 73
2
 40
1.016
 49
0.0
 74
0
 49
-1.016
 74
0
  0
LTYPE
  5
3D
330
2
100
AcDbSymbolTableRecord
100
AcDbLinetypeTableRecord
  2
DOT2
 70
0
  3
Dot (.5) . . . . . . . . . . . . . . . . . . . 
 72
65
 73
2
 40
0.254
 49
0.0
 74
0
 49
-0.254
 74
0
  0
LTYPE
  5
3E
330
2
100
AcDbSymbolTableRecord
100
AcDbLinetypeTableRecord
  2
DIVIDE
 70
0
  3
Divide __ . . __ . . __ . . __ . . __ . . __
 72
65
 73
6
 40
4.064
 49
2.54
 74
0
 49
-0.508
 74
0
 49
0.0
 74
0
 49
-0.508
 74
0
 49
0.0
 74
0
 49
-0.508
 74
0
  0
LTYPE
  5
3F
330
2
100
AcDbSymbolTableRecord
100
AcDbLinetypeTableRecord
  2
DIVIDEX2
 70
0
  3
Divide (2x) ____  . .  ____  . .  ____  . .  ____
 72
65
 73
6
 40
6.604
 49
5.08
 74
0
 49
-0.508
 74
0
 49
0.0
 74
0
 49
-0.508
 74
0
 49
0.0
 74
0
 49
-0.508
 74
0
  0
LTYPE
  5
40
330
2
100
AcDbSymbolTableRecord
100
AcDbLinetypeTableRecord
  2
DIVIDE2
 70
0
  3
Divide(.5x) _ . _ . _ . _ . _ . _ . _ . _
 72
65
 73
6
 40
2.032
 49
1.27
 74
0
 49
-0.254
 74
0
 49
0.0
 74
0
 49
-0.254
 74
0
 49
0.0
 74
0
 49
-0.254
 74
0
  0
ENDTAB
  0
TABLE
  2
LAYER
  5
1
330
0
100
AcDbSymbolTable
 70
4
  0
LAYER
  5
27
330
1
100
AcDbSymbolTableRecord
100
AcDbLayerTableRecord
  2
0
 70
0
 62
7
  6
Continuous
370
-3
390
13
347
21
  0
LAYER
  5
28
330
1
100
AcDbSymbolTableRecord
100
AcDbLayerTableRecord
  2
Defpoints
 70
0
 62
7
  6
Continuous
290
0
370
-3
390
13
347
21
  0
LAYER
  5
8A
330
1
100
AcDbSymbolTableRecord
100
AcDbLayerTableRecord
  2
Layer
 70
0
 62
1
  6
Continuous
370
50
390
13
347
21
  0
LAYER
  5
8B
330
1
100
AcDbSymbolTableRecord
100
AcDbLayerTableRecord
  2
NumLabel
 70
0
 62
1
  6
Continuous
370
15
390
13
347
21
  0
ENDTAB
  0
TABLE
  2
STYLE
  5
5
330
0
100
AcDbSymbolTable
 70
26
  0
STYLE
  5
29
330
5
100
AcDbSymbolTableRecord
100
AcDbTextStyleTableRecord
  2
Standard
 70
0
 40
0.0
 41
1.0
 50
0.0
 71
0
 42
2.5
  3
txt
  4

  0
STYLE
  5
41
330
5
100
AcDbSymbolTableRecord
100
AcDbTextStyleTableRecord
  2
OpenSans-Light
 70
0
 40
0.0
 41
1.0
 50
0.0
 71
0
 42
2.5
  3
OpenSans-Light.ttf
  4

  0
STYLE
  5
42
330
5
100
AcDbSymbolTableRecord
100
AcDbTextStyleTableRecord
  2
OpenSans-Light-Italic
 70
0
 40
0.0
 41
1.0
 50
0.0
 71
0
 42
2.5
  3
OpenSans-LightItalic.ttf
  4

  0
STYLE
  5
43
330
5
100
AcDbSymbolTableRecord
100
AcDbTextStyleTableRecord
  2
OpenSans
 70
0
 40
0.0
 41
1.0
 50
0.0
 71
0
 42
2.5
  3
OpenSans-Regular.ttf
  4

  0
STYLE
  5
44
330
5
100
AcDbSymbolTableRecord
100
AcDbTextStyleTableRecord
  2
OpenSans-Italic
 70
0
 40
0.0
 41
1.0
 50
0.0
 71
0
 42
2.5
  3
OpenSans-Italic.ttf
  4

  0
STYLE
  5
45
330
5
100
AcDbSymbolTableRecord
100
AcDbTextStyleTableRecord
  2
OpenSans-SemiBold
 70
0
 40
0.0
 41
1.0
 50
0.0
 71
0
 42
2.5
  3
OpenSans-SemiBold.ttf
  4

  0
STYLE
  5
46
330
5
100
AcDbSymbolTableRecord
100
AcDbTextStyleTableRecord
  2
OpenSans-SemiBoldItalic
 70
0
 40
0.0
 41
1.0
 50
0.0
 71
0
 42
2.5
  3
OpenSans-SemiBoldItalic.ttf
  4

  0
STYLE
  5
47
330
5
100
AcDbSymbolTableRecord
100
AcDbTextStyleTableRecord
  2
OpenSans-Bold
 70
0
 40
0.0
 41
1.0
 50
0.0
 71
0
 42
2.5
  3
OpenSans-Bold.ttf
  4

  0
STYLE
  5
48
330
5
100
AcDbSymbolTableRecord
100
AcDbTextStyleTableRecord
  2
OpenSans-BoldItalic
 70
0
 40
0.0
 41
1.0
 50
0.0
 71
0
 42
2.5
  3
OpenSans-BoldItalic.ttf
  4

  0
STYLE
  5
49
330
5
100
AcDbSymbolTableRecord
100
AcDbTextStyleTableRecord
  2
OpenSans-ExtraBold
 70
0
 40
0.0
 41
1.0
 50
0.0
 71
0
 42
2.5
  3
OpenSans-ExtraBold.ttf
  4

  0
STYLE
  5
4A
330
5
100
AcDbSymbolTableRecord
100
AcDbTextStyleTableRecord
  2
OpenSans-ExtraBoldItalic
 70
0
 40
0.0
 41
1.0
 50
0.0
 71
0
 42
2.5
  3
OpenSans-ExtraBoldItalic.ttf
  4

  0
STYLE
  5
4B
330
5
100
AcDbSymbolTableRecord
100
AcDbTextStyleTableRecord
  2
OpenSansCondensed-Bold
 70
0
 40
0.0
 41
1.0
 50
0.0
 71
0
 42
2.5
  3
OpenSansCondensed-Bold.ttf
  4

  0
STYLE
  5
4C
330
5
100
AcDbSymbolTableRecord
100
AcDbTextStyleTableRecord
  2
OpenSansCondensed-Light
 70
0
 40
0.0
 41
1.0
 50
0.0
 71
0
 42
2.5
  3
OpenSansCondensed-Light.ttf
  4

  0
STYLE
  5
4D
330
5
100
AcDbSymbolTableRecord
100
AcDbTextStyleTableRecord
  2
OpenSansCondensed-Italic
 70
0
 40
0.0
 41
1.0
 50
0.0
 71
0
 42
2.5
  3
OpenSansCondensed-LightItalic.ttf
  4

  0
STYLE
  5
4E
330
5
100
AcDbSymbolTableRecord
100
AcDbTextStyleTableRecord
  2
LiberationSans
 70
0
 40
0.0
 41
1.0
 50
0.0
 71
0
 42
2.5
  3
LiberationSans-Regular.ttf
  4

  0
STYLE
  5
4F
330
5
100
AcDbSymbolTableRecord
100
AcDbTextStyleTableRecord
  2
LiberationSans-Bold
 70
0
 40
0.0
 41
1.0
 50
0.0
 71
0
 42
2.5
  3
LiberationSans-Bold.ttf
  4

  0
STYLE
  5
50
330
5
100
AcDbSymbolTableRecord
100
AcDbTextStyleTableRecord
  2
LiberationSans-BoldItalic
 70
0
 40
0.0
 41
1.0
 50
0.0
 71
0
 42
2.5
  3
LiberationSans-BoldItalic.ttf
  4

  0
STYLE
  5
51
330
5
100
AcDbSymbolTableRecord
100
AcDbTextStyleTableRecord
  2
LiberationSans-Italic
 70
0
 40
0.0
 41
1.0
 50
0.0
 71
0
 42
2.5
  3
LiberationSans-Italic.ttf
  4

  0
STYLE
  5
52
330
5
100
AcDbSymbolTableRecord
100
AcDbTextStyleTableRecord
  2
LiberationSerif
 70
0
 40
0.0
 41
1.0
 50
0.0
 71
0
 42
2.5
  3
LiberationSerif-Regular.ttf
  4

  0
STYLE
  5
53
330
5
100
AcDbSymbolTableRecord
100
AcDbTextStyleTableRecord
  2
LiberationSerif-Bold
 70
0
 40
0.0
 41
1.0
 50
0.0
 71
0
 42
2.5
  3
LiberationSerif-Bold.ttf
  4

  0
STYLE
  5
54
330
5
100
AcDbSymbolTableRecord
100
AcDbTextStyleTableRecord
  2
LiberationSerif-BoldItalic
 70
0
 40
0.0
 41
1.0
 50
0.0
 71
0
 42
2.5
  3
LiberationSerif-BoldItalic.ttf
  4

  0
STYLE
  5
55
330
5
100
AcDbSymbolTableRecord
100
AcDbTextStyleTableRecord
  2
LiberationSerif-Italic
 70
0
 40
0.0
 41
1.0
 50
0.0
 71
0
 42
2.5
  3
LiberationSerif-Italic.ttf
  4

  0
STYLE
  5
56
330
5
100
AcDbSymbolTableRecord
100
AcDbTextStyleTableRecord
  2
LiberationMono
 70
0
 40
0.0
 41
1.0
 50
0.0
 71
0
 42
2.5
  3
LiberationMono-Regular.ttf
  4

  0
STYLE
  5
57
330
5
100
AcDbSymbolTableRecord
100
AcDbTextStyleTableRecord
  2
LiberationMono-Bold
 70
0
 40
0.0
 41
1.0
 50
0.0
 71
0
 42
2.5
  3
LiberationMono-Bold.ttf
  4

  0
STYLE
  5
58
330
5
100
AcDbSymbolTableRecord
100
AcDbTextStyleTableRecord
  2
LiberationMono-BoldItalic
 70
0
 40
0.0
 41
1.0
 50
0.0
 71
0
 42
2.5
  3
LiberationMono-BoldItalic.ttf
  4

  0
STYLE
  5
59
330
5
100
AcDbSymbolTableRecord
100
AcDbTextStyleTableRecord
  2
LiberationMono-Italic
 70
0
 40
0.0
 41
1.0
 50
0.0
 71
0
 42
2.5
  3
LiberationMono-Italic.ttf
  4

  0
ENDTAB
  0
TABLE
  2
VIEW
  5
7
330
0
100
AcDbSymbolTable
 70
0
  0
ENDTAB
  0
TABLE
  2
UCS
  5
6
330
0
100
AcDbSymbolTable
 70
0
  0
ENDTAB
  0
TABLE
  2
APPID
  5
3
330
0
100
AcDbSymbolTable
 70
3
  0
APPID
  5
2A
330
3
100
AcDbSymbolTableRecord
100
AcDbRegAppTableRecord
  2
ACAD
 70
0
  0
APPID
  5
B3
330
3
100
AcDbSymbolTableRecord
100
AcDbRegAppTableRecord
  2
HATCHBACKGROUNDCOLOR
 70
0
  0
APPID
  5
B4
330
3
100
AcDbSymbolTableRecord
100
AcDbRegAppTableRecord
  2
EZDXF
 70
0
  0
ENDTAB
  0
TABLE
  2
DIMSTYLE
  5
4
330
0
100
AcDbSymbolTable
 70
12
100
AcDbDimStyleTable
  0
DIMSTYLE
105
2B
330
4
100
AcDbSymbolTableRecord
100
AcDbDimStyleTableRecord
  2
Standard
 70
0
 40
1.0
 41
2.5
 42
0.625
 43
3.75
 44
1.25
 45
0.0
 46
0.0
 47
0.0
 48
0.0
 49
2.5
140
2.5
141
2.5
142
0.0
143
0.03937007874
144
1.0
145
0.0
146
1.0
147
0.625
148
0.0
 69
0
 70
0
 71
0
 72
0
 73
0
 74
0
 75
0
 76
0
 77
1
 78
8
 79
3
170
0
171
3
172
1
173
0
174
0
175
0
176
0
177
0
178
0
179
2
271
2
272
2
273
2
274
3
275
0
276
0
277
2
278
44
279
0
280
0
281
0
282
0
283
0
284
8
285
0
286
0
288
0
289
3
290
0
371
-2
372
-2
  0
DIMSTYLE
105
73
330
4
100
AcDbSymbolTableRecord
100
AcDbDimStyleTableRecord
  2
EZDXF
 70
0
 40
1.0
 41
0.175
 42
0.125
 43
3.75
 44
0.375
 45
0.0
 46
0.0
 47
0.0
 48
0.0
 49
2.5
140
0.25
141
2.5
142
0.0
143
0.03937007874
144
100.0
145
0.0
146
0.5
147
0.1
148
0.0
 69
0
 70
0
 71
0
 72
0
 73
0
 74
0
 75
0
 76
0
 77
1
 78
12
 79
3
170
0
171
3
172
1
173
0
174
0
175
0
176
0
177
0
178
0
179
2
271
2
272
2
273
2
274
3
275
0
276
0
277
2
278
46
279
2
280
0
281
0
282
0
283
0
284
8
285
0
286
0
288
1
289
3
290
0
340
4C
342
74
371
-2
372
-2
  0
DIMSTYLE
105
7C
330
4
100
AcDbSymbolTableRecord
100
AcDbDimStyleTableRecord
  2
EZ_M_100_H25_CM
 70
0
 40
1.0
 41
0.25
 42
0.125
 43
3.75
 44
0.375
 45
0.0
 46
0.0
 47
0.0
 48
0.0
 49
2.5
140
0.25
141
2.5
142
0.125
143
0.03937007874
144
100.0
145
0.0
146
0.5
147
0.1
148
0.0
 69
0
 70
0
 71
0
 72
0
 73
0
 74
0
 75
0
 76
0
 77
1
 78
12
 79
3
170
0
171
3
172
1
173
0
174
0
175
0
176
0
177
0
178
0
179
2
271
2
272
2
273
2
274
3
275
0
276
0
277
2
278
46
279
2
280
0
281
0
282
0
283
0
284
8
285
0
286
0
288
1
289
3
290
0
340
4C
371
-2
372
-2
  0
DIMSTYLE
105
7D
330
4
100
AcDbSymbolTableRecord
100
AcDbDimStyleTableRecord
  2
EZ_M_50_H25_CM
 70
0
 40
1.0
 41
0.125
 42
0.0625
 43
3.75
 44
0.1875
 45
0.0
 46
0.0
 47
0.0
 48
0.0
 49
2.5
140
0.125
141
2.5
142
0.0625
143
0.03937007874
144
100.0
145
0.0
146
0.5
147
0.05
148
0.0
 69
0
 70
0
 71
0
 72
0
 73
0
 74
0
 75
0
 76
0
 77
1
 78
12
 79
3
170
0
171
3
172
1
173
0
174
0
175
0
176
0
177
0
178
0
179
2
271
2
272
2
273
2
274
3
275
0
276
0
277
2
278
46
279
2
280
0
281
0
282
0
283
0
284
8
285
0
286
0
288
1
289
3
290
0
340
4C
371
-2
372
-2
  0
DIMSTYLE
105
7E
330
4
100
AcDbSymbolTableRecord
100
AcDbDimStyleTableRecord
  2
EZ_M_25_H25_CM
 70
0
 40
1.0
 41
0.0625
 42
0.03125
 43
3.75
 44
0.09375
 45
0.0
 46
0.0
 47
0.0
 48
0.0
 49
2.5
140
0.0625
141
2.5
142
0.03125
143
0.03937007874
144
100.0
145
0.0
146
0.5
147
0.025
148
0.0
 69
0
 70
0
 71
0
 72
0
 73
0
 74
0
 75
0
 76
0
 77
1
 78
12
 79
3
170
0
171
3
172
1
173
0
174
0
175
0
176
0
177
0
178
0
179
2
271
2
272
2
273
2
274
3
275
0
276
0
277
2
278
46
279
2
280
0
281
0
282
0
283
0
284
8
285
0
286
0
288
1
289
3
290
0
340
4C
371
-2
372
-2
  0
DIMSTYLE
105
7F
330
4
100
AcDbSymbolTableRecord
100
AcDbDimStyleTableRecord
  2
EZ_M_20_H25_CM
 70
0
 40
1.0
 41
0.05
 42
0.025
 43
3.75
 44
0.07500000000000001
 45
0.0
 46
0.0
 47
0.0
 48
0.0
 49
2.5
140
0.05
141
2.5
142
0.025
143
0.03937007874
144
100.0
145
0.0
146
0.5
147
0.020000000000000004
148
0.0
 69
0
 70
0
 71
0
 72
0
 73
0
 74
0
 75
0
 76
0
 77
1
 78
12
 79
3
170
0
171
3
172
1
173
0
174
0
175
0
176
0
177
0
178
0
179
2
271
2
272
2
273
2
274
3
275
0
276
0
277
2
278
46
279
2
280
0
281
0
282
0
283
0
284
8
285
0
286
0
288
1
289
3
290
0
340
4C
371
-2
372
-2
  0
DIMSTYLE
105
80
330
4
100
AcDbSymbolTableRecord
100
AcDbDimStyleTableRecord
  2
EZ_M_10_H25_CM
 70
0
 40
1.0
 41
0.025
 42
0.0125
 43
3.75
 44
0.037500000000000006
 45
0.0
 46
0.0
 47
0.0
 48
0.0
 49
2.5
140
0.025
141
2.5
142
0.0125
143
0.03937007874
144
100.0
145
0.0
146
0.5
147
0.010000000000000002
148
0.0
 69
0
 70
0
 71
0
 72
0
 73
0
 74
0
 75
0
 76
0
 77
1
 78
12
 79
3
170
0
171
3
172
1
173
0
174
0
175
0
176
0
177
0
178
0
179
2
271
2
272
2
273
2
274
3
275
0
276
0
277
2
278
46
279
2
280
0
281
0
282
0
283
0
284
8
285
0
286
0
288
1
289
3
290
0
340
4C
371
-2
372
-2
  0
DIMSTYLE
105
81
330
4
100
AcDbSymbolTableRecord
100
AcDbDimStyleTableRecord
  2
EZ_M_5_H25_CM
 70
0
 40
1.0
 41
0.0125
 42
0.00625
 43
3.75
 44
0.018750000000000003
 45
0.0
 46
0.0
 47
0.0
 48
0.0
 49
2.5
140
0.0125
141
2.5
142
0.00625
143
0.03937007874
144
100.0
145
0.0
146
0.5
147
0.005000000000000001
148
0.0
 69
0
 70
0
 71
0
 72
0
 73
0
 74
0
 75
0
 76
0
 77
1
 78
12
 79
3
170
0
171
3
172
1
173
0
174
0
175
0
176
0
177
0
178
0
179
2
271
2
272
2
273
2
274
3
275
0
276
0
277
2
278
46
279
2
280
0
281
0
282
0
283
0
284
8
285
0
286
0
288
1
289
3
290
0
340
4C
371
-2
372
-2
  0
DIMSTYLE
105
82
330
4
100
AcDbSymbolTableRecord
100
AcDbDimStyleTableRecord
  2
EZ_M_1_H25_CM
 70
0
 40
1.0
 41
0.0025
 42
0.00125
 43
3.75
 44
0.00375
 45
0.0
 46
0.0
 47
0.0
 48
0.0
 49
2.5
140
0.0025
141
2.5
142
0.00125
143
0.03937007874
144
100.0
145
0.0
146
0.5
147
0.001
148
0.0
 69
0
 70
0
 71
0
 72
0
 73
0
 74
0
 75
0
 76
0
 77
1
 78
12
 79
3
170
0
171
3
172
1
173
0
174
0
175
0
176
0
177
0
178
0
179
2
271
2
272
2
273
2
274
3
275
0
276
0
277
2
278
46
279
2
280
0
281
0
282
0
283
0
284
8
285
0
286
0
288
1
289
3
290
0
340
4C
371
-2
372
-2
  0
DIMSTYLE
105
83
330
4
100
AcDbSymbolTableRecord
100
AcDbDimStyleTableRecord
  2
EZ_RADIUS
 70
0
 40
1.0
 41
0.25
 42
0.125
 43
3.75
 44
0.375
 45
0.0
 46
0.0
 47
0.0
 48
0.0
 49
2.5
140
0.25
141
0.0
142
0.0
143
0.03937007874
144
100.0
145
0.0
146
0.5
147
0.1
148
0.0
 69
0
 70
0
 71
0
 72
0
 73
0
 74
0
 75
0
 76
0
 77
1
 78
12
 79
3
170
0
171
3
172
0
173
0
174
0
175
0
176
0
177
0
178
0
179
2
271
2
272
2
273
2
274
3
275
0
276
0
277
2
278
46
279
1
280
0
281
0
282
0
283
0
284
8
285
0
286
0
288
1
289
3
290
0
340
4C
342
84
371
-2
372
-2
  0
DIMSTYLE
105
88
330
4
100
AcDbSymbolTableRecord
100
AcDbDimStyleTableRecord
  2
EZ_RADIUS_INSIDE
 70
0
 40
1.0
 41
0.25
 42
0.125
 43
3.75
 44
0.375
 45
0.0
 46
0.0
 47
0.0
 48
0.0
 49
2.5
140
0.25
141
0.0
142
0.0
143
0.03937007874
144
100.0
145
0.0
146
0.5
147
0.1
148
0.0
 69
0
 70
0
 71
0
 72
0
 73
0
 74
0
 75
0
 76
0
 77
0
 78
12
 79
3
170
0
171
3
172
0
173
0
174
1
175
0
176
0
177
0
178
0
179
2
271
2
272
2
273
2
274
3
275
0
276
0
277
2
278
46
279
0
280
0
281
0
282
0
283
0
284
8
285
0
286
0
288
1
289
0
290
0
340
4C
342
84
371
-2
372
-2
  0
DIMSTYLE
105
89
330
4
100
AcDbSymbolTableRecord
100
AcDbDimStyleTableRecord
  2
EZ_CURVED
 70
0
 40
1.0
 41
0.25
 42
0.125
 43
3.75
 44
0.375
 45
0.0
 46
0.0
 47
0.0
 48
0.0
 49
2.5
140
0.25
141
2.5
142
0.0
143
0.03937007874
144
100.0
145
0.0
146
0.5
147
0.1
148
0.0
 69
0
 70
0
 71
0
 72
0
 73
0
 74
0
 75
0
 76
0
 77
1
 78
12
 79
2
 90
2
170
0
171
3
172
1
173
0
174
0
175
0
176
0
177
0
178
0
179
2
271
2
272
2
273
2
274
3
275
0
276
0
277
2
278
46
279
2
280
0
281
0
282
0
283
0
284
8
285
0
286
0
288
1
289
3
290
0
340
4C
371
-2
372
-2
  0
ENDTAB
  0
TABLE
  2
BLOCK_RECORD
  5
9
330
0
100
AcDbSymbolTable
 70
5
  0
BLOCK_RECORD
  5
17
330
9
100
AcDbSymbolTableRecord
100
AcDbBlockTableRecord
  2
*Model_Space
340
1A
 70
0
280
1
281
0
  0
BLOCK_RECORD
  5
1B
330
9
100
AcDbSymbolTableRecord
100
AcDbBlockTableRecord
  2
*Paper_Space
340
1E
 70
0
280
1
281
0
  0
BLOCK_RECORD
  5
74
330
9
100
AcDbSymbolTableRecord
100
AcDbBlockTableRecord
  2
_ARCHTICK
340
0
 70
0
280
1
281
0
  0
BLOCK_RECORD
  5
78
330
9
100
AcDbSymbolTableRecord
100
AcDbBlockTableRecord
  2
_CLOSEDFILLED
340
0
 70
0
280
1
281
0
  0
BLOCK_RECORD
  5
84
330
9
100
AcDbSymbolTableRecord
100
AcDbBlockTableRecord
  2
_CLOSEDBLANK
340
0
 70
0
280
1
281
0
  0
ENDTAB
  0
ENDSEC
  0
SECTION
  2
BLOCKS
  0
BLOCK
  5
18
330
17
100
AcDbEntity
  8
0
100
AcDbBlockBegin
  2
*Model_Space
 70
0
 10
0.0
 20
0.0
 30
0.0
  3
*Model_Space
  1

  0
ENDBLK
  5
19
330
17
100
AcDbEntity
  8
0
100
AcDbBlockEnd
  0
BLOCK
  5
1C
330
1B
100
AcDbEntity
  8
0
100
AcDbBlockBegin
  2
*Paper_Space
 70
0
 10
0.0
 20
0.0
 30
0.0
  3
*Paper_Space
  1

  0
ENDBLK
  5
1D
330
1B
100
AcDbEntity
  8
0
100
AcDbBlockEnd
  0
BLOCK
  5
75
330
74
100
AcDbEntity
  8
0
100
AcDbBlockBegin
  2
_ARCHTICK
 70
0
 10
0.0
 20
0.0
 30
0.0
  3
_ARCHTICK
  1

  0
LWPOLYLINE
  5
77
330
74
100
AcDbEntity
  8
0
  6
BYBLOCK
 62
0
100
AcDbPolyline
 90
2
 70
0
 43
0.15
 10
-0.5
 20
-0.5
 10
0.5
 20
0.5
  0
ENDBLK
  5
76
330
74
100
AcDbEntity
  8
0
100
AcDbBlockEnd
  0
BLOCK
  5
79
330
78
100
AcDbEntity
  8
0
100
AcDbBlockBegin
  2
_CLOSEDFILLED
 70
0
 10
0.0
 20
0.0
 30
0.0
  3
_CLOSEDFILLED
  1

  0
SOLID
  5
7B
330
78
100
AcDbEntity
  8
0
  6
BYBLOCK
 62
0
100
AcDbTrace
 10
-1.0
 20
0.16439898372402537
 30
0.0
 11
0.0
 21
0.0
 31
0.0
 12
-1.0
 22
-0.16439898372402537
 32
0.0
 13
-1.0
 23
-0.16439898372402537
 33
0.0
  0
ENDBLK
  5
7A
330
78
100
AcDbEntity
  8
0
100
AcDbBlockEnd
  0
BLOCK
  5
85
330
84
100
AcDbEntity
  8
0
100
AcDbBlockBegin
  2
_CLOSEDBLANK
 70
0
 10
0.0
 20
0.0
 30
0.0
  3
_CLOSEDBLANK
  1

  0
LWPOLYLINE
  5
87
330
84
100
AcDbEntity
  8
0
  6
BYBLOCK
 62
0
100
AcDbPolyline
 90
3
 70
1
 10
-1.0
 20
0.16439898372402537
 10
0.0
 20
0.0
 10
-1.0
 20
-0.16439898372402537
  0
ENDBLK
  5
86
330
84
100
AcDbEntity
  8
0
100
AcDbBlockEnd
  0
ENDSEC
  0
SECTION
  2
ENTITIES
  0
LWPOLYLINE
  5
8C
330
17
100
AcDbEntity
  8
Layer
100
AcDbPolyline
 90
167
 70
1
 10
368.6191518089895
 20
200.12414305823205
 10
368.6191518089895
 20
200.12414305823205
 10
367.0365240389723
 20
200.55781418134157
 10
362.7890698210439
 20
201.70102098491958
 10
358.5439691436824
 20
202.82875011786084
 10
354.2956021058536
 20
203.93603396638085
 10
350.0431369441069
 20
205.0275463946493
 10
345.7952060475774
 20
206.1006402558325
 10
341.5496459125545
 20
207.14946943894782
 10
337.29729528121754
 20
208.1737999412361
 10
333.0363734042736
 20
209.1770865180875
 10
328.76591102575543
 20
210.16159348023496
 10
324.49371389824637
 20
211.12968856331085
 10
320.2236330634474
 20
212.07571013220436
 10
315.95142045499847
 20
212.99834209254772
 10
311.67682454555745
 20
213.895581186726
 10
307.3870592486707
 20
214.77134633655155
 10
303.1037550238401
 20
215.631856393012
 10
298.8242911707101
 20
216.46056396254653
 10
294.5275568139174
 20
217.26353059063092
 10
290.2223280034329
 20
218.04941313359785
 10
285.92010912903896
 20
218.81574652913645
 10
281.6183034286171
 20
219.55629892677558
 10
277.31085976544546
 20
220.27086649040754
 10
272.9941553331183
 20
220.96233043206598
 10
268.67049588858913
 20
221.63392537588015
 10
264.3461959475872
 20
222.28574517855316
 10
260.02223325725436
 20
222.91309949561006
 10
255.6869427022126
 20
223.5167852062913
 10
251.34952750389908
 20
224.1034623010585
 10
247.0148911564681
 20
224.6680186549086
 10
242.67978477122205
 20
225.2089621946589
 10
238.34521747221805
 20
225.72530061710643
 10
234.00527039990092
 20
226.21499847733094
 10
229.65308003732883
 20
226.68414139681522
 10
225.31019053353714
 20
227.1362438624871
 10
220.96735386833092
 20
227.55780402952846
 10
216.61653261139293
 20
227.9578839172197
 10
212.27288996759995
 20
228.33532838139232
 10
207.92868656469375
 20
228.68410879953427
 10
203.57943828014885
 20
229.00704561303888
 10
199.2312133491437
 20
229.30606488625045
 10
194.8811000958699
 20
229.57775343769552
 10
190.52705657618074
 20
229.82482117284053
 10
186.1769419357271
 20
230.04905362886626
 10
181.83533010591873
 20
230.24563407432385
 10
177.49455482026895
 20
230.40848177433503
 10
173.1427074364054
 20
230.54321335833703
 10
168.8042958257948
 20
230.65588874443398
 10
164.4638829976692
 20
230.72951604230428
 10
160.11614084720156
 20
230.77940039992905
 10
155.78013862191045
 20
230.8008667030052
 10
151.44573341776658
 20
230.7902969268371
 10
147.1224895652897
 20
230.7484224580294
 10
142.79974123708442
 20
230.66831251060668
 10
138.4780706195732
 20
230.5547485684972
 10
134.15664162359428
 20
230.40682949169658
 10
129.84227395188302
 20
230.22836441855029
 10
125.53739300129247
 20
230.01200480434204
 10
121.234828604628
 20
229.75729670685323
 10
116.93672725795666
 20
229.46579092792902
 10
112.64376982079078
 20
229.1393509186999
 10
108.37171880989132
 20
228.77915549876653
 10
104.12048375071393
 20
228.37292838937464
 10
99.8743435151578
 20
227.91615912171804
 10
95.64418902646496
 20
227.41869869802383
 10
91.43092999531449
 20
226.8703394617728
 10
87.23124199584875
 20
226.26991935399386
 10
83.03882581852385
 20
225.616080280917
 10
78.8653175333426
 20
224.91975503873857
 10
74.72953981182171
 20
224.17397878888934
 10
70.62759805824346
 20
223.36854633967863
 10
66.56337222027132
 20
222.50024372166874
 10
62.53344240065246
 20
221.56441851945905
 10
58.54950367732522
 20
220.56007632295396
 10
54.60050724580651
 20
219.47858230105993
 10
50.71628846836211
 20
218.3393765240644
 10
46.90379552295303
 20
217.11646600735108
 10
43.17217581504789
 20
215.82303583429203
 10
39.552809203629664
 20
214.4563554919426
 10
36.059615038055824
 20
213.01765119179373
 10
32.73614729200369
 20
211.52438694372643
 10
29.62766465009355
 20
209.99281185973763
 10
26.758565523955127
 20
208.4284549678862
 10
24.17807041378086
 20
206.89690045411078
 10
21.916892180085767
 20
205.417730162362
 10
19.970976956237564
 20
204.0125617325147
 10
18.315807612436487
 20
202.69799999930328
 10
16.943990622515827
 20
201.5157236040962
 10
15.79185197173075
 20
200.38572366627656
 10
14.83370961057355
 20
199.37575055440198
 10
14.056766489241
 20
198.46571330664443
 10
13.420183701665707
 20
197.60562172816577
 10
12.89291694398355
 20
196.79271519040753
 10
12.463879727714556
 20
196.05489682277405
 10
12.112425887952668
 20
195.3542312094348
 10
11.816802833994927
 20
194.67854949995717
 10
11.575612250539507
 20
194.07561094392386
 10
11.383692040490416
 20
193.51612097417373
 10
11.230668284545459
 20
192.97759532941177
 10
11.113941904821047
 20
192.49588117880865
 10
11.026760850655705
 20
192.0126154999769
 10
10.960958817897989
 20
191.55974788749242
 10
10.916480152590395
 20
191.17545119801622
 10
10.94378875420307
 20
190.83876131729713
 10
10.967534128281784
 20
190.35995822504694
 10
10.994820463610068
 20
189.92431858649934
 10
11.047436144728294
 20
189.49949505400326
 10
11.147307986818987
 20
189.0521400542218
 10
11.310757043754478
 20
188.56673328704736
 10
11.542766383796874
 20
188.04799690465174
 10
11.849254443586346
 20
187.49991598949828
 10
12.240819396999285
 20
186.92239392514497
 10
12.727161588398673
 20
186.31715485428623
 10
13.316657718634872
 20
185.68893042160403
 10
14.025890484178262
 20
185.04099203057922
 10
14.879784716381408
 20
184.37536746891865
 10
15.915628558421815
 20
183.689509501604
 10
17.169340395030986
 20
182.9753424461083
 10
18.649759409114466
 20
182.22657822961187
 10
20.37162168085922
 20
181.45198600208076
 10
22.40495928926478
 20
180.67204973761443
 10
24.80784547178962
 20
179.8883187821902
 10
27.577093391529985
 20
179.0878176081609
 10
30.661979930028394
 20
178.2851541919896
 10
34.045993763390214
 20
177.53156489584129
 10
37.69473227449271
 20
176.82203660778632
 10
41.50739329968664
 20
176.1580809315261
 10
45.44521269578556
 20
175.56732736462732
 10
49.503671779362435
 20
175.05294155951395
 10
53.68516040335231
 20
174.5849524818451
 10
57.92105928048264
 20
174.12954800603023
 10
62.13561192975865
 20
173.70644259527114
 10
66.36854170906972
 20
173.3602992682886
 10
70.68122350110481
 20
173.06287399670882
 10
75.02437633028065
 20
172.76762846116623
 10
79.36484634486597
 20
172.48582513458626
 10
83.6978835793765
 20
172.2314242116681
 10
88.03160839227212
 20
172.01418589058545
 10
92.38734448217188
 20
171.8315238953502
 10
96.76820350215262
 20
171.6699388203957
 10
101.16700207368352
 20
171.522071123355
 10
104.26977988117794
 20
171.42258939106398
 10
104.22171135285849
 20
169.92335978337036
 10
105.52830366379999
 20
169.88146762268238
 10
109.92422478788788
 20
169.7476452703841
 10
114.30689609877709
 20
169.6342462402655
 10
118.6852400192348
 20
169.523628694055
 10
123.0708957083146
 20
169.44021369136476
 10
127.47633473743633
 20
169.3664861526397
 10
131.89852966207786
 20
169.29056414412406
 10
136.33072132538064
 20
169.22075004037706
 10
140.76833136017862
 20
169.15533558379798
 10
145.20592510890398
 20
169.0948539141658
 10
149.64099561102586
 20
169.04104648886815
 10
154.07405917545736
 20
168.99685875969848
 10
158.50962692874873
 20
168.9635710700292
 10
162.95266045158266
 20
168.93866055235387
 10
167.40355183485403
 20
168.91703376830455
 10
171.85819648119963
 20
168.89581181378588
 10
176.31261972031243
 20
168.8739294988266
 10
180.76417794882866
 20
168.85222466615443
 10
185.21156920736183
 20
168.83473058028653
 10
189.657796848998
 20
168.82432807594708
 10
194.10733139180599
 20
168.8192826424978
 10
199.93963363864236
 20
168.81408680631466
 10
368.6191518089895
 20
200.12414305823205
  0
LWPOLYLINE
  5
8D
330
17
100
AcDbEntity
  8
Layer
100
AcDbPolyline
 90
5
 70
0
 10
322.42479748718694
 20
207.49105381229336
 10
318.5194870294526
 20
208.3562417853437
 10
319.3846750025029
 20
212.26155224307806
 10
323.28998546023723
 20
211.3963642700277
 10
322.42479748718694
 20
207.49105381229336
  0
LWPOLYLINE
  5
8E
330
17
100
AcDbEntity
  8
Layer
100
AcDbPolyline
 90
5
 70
0
 10
142.6973867654795
 20
226.66423979082617
 10
138.69876824526312
 20
226.55912114460983
 10
138.59364959904678
 20
230.55773966482622
 10
142.59226811926317
 20
230.66285831104256
 10
142.6973867654795
 20
226.66423979082617
  0
LWPOLYLINE
  5
8F
330
17
100
AcDbEntity
  8
Layer
100
AcDbPolyline
 90
5
 70
0
 10
61.98404569870272
 20
217.3006452881373
 10
58.105471637704134
 20
216.32255364961415
 10
57.12737999918098
 20
220.20112771061272
 10
61.00595406017957
 20
221.17921934913588
 10
61.98404569870272
 20
217.3006452881373
  0
LWPOLYLINE
  5
90
330
17
100
AcDbEntity
  8
Layer
100
AcDbPolyline
 90
5
 70
0
 10
22.171426099758175
 20
199.42193021359017
 10
20.658600252455745
 20
198.11374140621805
 10
17.388128234025462
 20
201.89580602447413
 10
18.900954081327892
 20
203.20399483184625
 10
22.171426099758175
 20
199.42193021359017
  0
LWPOLYLINE
  5
91
330
17
100
AcDbEntity
  8
Layer
100
AcDbPolyline
 90
5
 70
0
 10
17.030929221940006
 20
189.03777341400433
 10
18.613194580628246
 20
187.81448426801506
 10
15.55497171565505
 20
183.85882087129448
 10
13.97270635696681
 20
185.08211001728375
 10
17.030929221940006
 20
189.03777341400433
  0
LWPOLYLINE
  5
92
330
17
100
AcDbEntity
  8
Layer
100
AcDbPolyline
 90
5
 70
0
 10
78.65080799951137
 20
176.53462390252975
 10
82.64393455973273
 20
176.30023048526994
 10
82.40954114247295
 20
172.30710392504858
 10
78.41641458225159
 20
172.5414973423084
 10
78.65080799951137
 20
176.53462390252975
  0
LWPOLYLINE
  5
93
330
17
100
AcDbEntity
  8
Layer
100
AcDbPolyline
 90
300
 70
1
 10
216.26226351351266
 20
200.0
 10
216.2568567422059
 20
200.52074632320424
 10
216.2406388157636
 20
201.04126269949174
 10
216.21361689556548
 20
201.56131928348387
 10
216.17580291373085
 20
202.08068643283337
 10
216.12721356784957
 20
202.59913480962783
 10
216.06787031360892
 20
203.116435481659
 10
215.99779935531944
 20
203.63236002351272
 10
215.91703163434366
 20
204.14668061743515
 10
215.8256028154335
 20
204.65917015393075
 10
215.7235532709816
 20
205.16960233204736
 10
215.6109280631939
 20
205.67775175930439
 10
215.4877769241917
 20
206.18339405121975
 10
215.3541542340511
 20
206.68630593039174
 10
215.21011899679044
 20
207.18626532509205
 10
215.0557348143157
 20
207.68305146732644
 10
214.89106985833587
 20
208.17644499031957
 10
214.7161968402599
 20
208.66622802538132
 10
214.53119297908975
 20
209.1521842981113
 10
214.33613996732242
 20
209.63409922389977
 10
214.13112393487694
 20
210.1117600026819
 10
213.91623541106182
 20
210.58495571290453
 10
213.6915692845998
 20
211.053477404663
 10
213.45722476172773
 20
211.51711819196768
 10
213.21330532238983
 20
211.97567334409888
 10
212.9599186745439
 20
212.4289403760103
 10
212.69717670660052
 20
212.87671913774062
 10
212.4251954380162
 20
213.31881190279415
 10
212.14409496806263
 20
213.75502345545127
 10
211.85399942279398
 20
214.18516117697015
 10
211.55503690023656
 20
214.6090351306419
 10
211.24733941382416
 20
215.02645814566108
 10
210.93104283410477
 20
215.43724589977518
 10
210.60628682874386
 20
215.84121700067618
 10
210.27321480085118
 20
216.23819306609812
 10
209.93197382565782
 20
216.62799880258586
 10
209.58271458557215
 20
217.01046208289966
 10
209.22559130364255
 20
217.38541402202168
 10
208.86076167545684
 20
217.75268905173098
 10
208.4883867995085
 20
218.11212499371362
 10
208.10863110605996
 20
218.4635631311762
 10
207.7216622845349
 20
218.80684827893054
 10
207.3276512094712
 20
219.14182885191929
 10
206.92677186506788
 20
219.4683569321515
 10
206.51920126835813
 20
219.7862883340191
 10
206.1051193910439
 20
220.09548266796514
 10
205.6847090800253
 20
220.39580340247596
 10
205.25815597666067
 20
220.68711792436955
 10
204.8256484347925
 20
220.96929759735383
 10
204.3873774375757
 20
221.24221781882898
 10
203.94353651314478
 20
221.50575807490816
 10
203.49432164915737
 20
221.75980199363326
 10
203.03993120625145
 20
222.00423739636142
 10
202.58056583045504
 20
222.23895634729988
 10
202.1164283645864
 20
222.46385520116758
 10
201.6477237586845
 20
222.67883464896175
 10
201.17465897950865
 20
222.8837997618102
 10
200.69744291914807
 20
223.0786600328891
 10
200.21628630278084
 20
223.26332941738826
 10
199.73140159562362
 20
223.43772637050617
 10
199.24300290911302
 20
223.60177388345778
 10
198.75130590636005
 20
223.75539951747953
 10
198.25652770691926
 20
223.89853543581611
 10
197.75888679091497
 20
224.03111843367552
 10
197.2586029025665
 20
224.15308996613817
 10
196.7558969531554
 20
224.26439617400902
 10
196.2509909234772
 20
224.36498790760007
 10
195.74410776582087
 20
224.45482074843352
 10
195.2354713055195
 20
224.53385502885578
 10
194.72530614211527
 20
224.6020558495535
 10
194.21383755018263
 20
224.65939309496417
 10
193.7012913798533
 20
224.7058414465744
 10
193.18789395708734
 20
224.7413803940996
 10
192.67387198373396
 20
224.76599424454108
 10
192.15945243742627
 20
224.77967212911534
 10
191.64486247135437
 20
224.78240800805366
 10
191.13032931396103
 20
224.77420067326887
 10
190.61608016860382
 20
224.75505374888897
 10
190.10234211322867
 20
224.7249756896568
 10
189.58934200009847
 20
224.6839797771965
 10
189.07730635562166
 20
224.632084114149
 10
188.56646128032443
 20
224.5693116161782
 10
188.0570323490112
 20
224.495690001852
 10
187.54924451115699
 20
224.41125178040284
 10
187.0433219915762
 20
224.3160342373722
 10
186.53948819141115
 20
224.21007941814668
 10
186.03796558948451
 20
224.09343410939164
 10
185.5389756440589
 20
223.96614981839173
 10
185.042738695047
 20
223.8282827503067
 10
184.54947386671589
 20
223.67989378335264
 10
184.0593989709278
 20
223.5210484419201
 10
183.57273041096053
 20
223.35181686764014
 10
183.08968308594987
 20
223.1722737884119
 10
182.6104702959962
 20
222.98249848540485
 10
182.13530364797722
 20
222.78257475805037
 10
181.66439296210817
 20
222.5725908870384
 10
181.19794617929128
 20
222.35263959533506
 10
180.73616926929478
 20
222.12281800723892
 10
180.27926613980262
 20
221.88322760549354
 10
179.82743854637442
 20
221.63397418647557
 10
179.38088600335595
 20
221.37516781347807
 10
178.93980569577928
 20
221.10692276810968
 10
178.50439239229132
 20
220.82935749983105
 10
178.07483835914945
 20
220.5425945736508
 10
177.65133327532232
 20
220.24676061600448
 10
177.23406414873278
 20
219.9419862588397
 10
176.82321523368051
 20
219.62840608193287
 10
176.41896794948053
 20
219.3061585534624
 10
176.02150080035355
 20
218.9753859688653
 10
175.63098929660342
 20
218.63623438800326
 10
175.24760587711688
 20
218.2888535706669
 10
174.8715198332193
 20
217.93339691044596
 10
174.50289723392038
 20
217.5700213669951
 10
174.14190085258284
 20
217.19888739672487
 10
173.7886900950462
 20
216.8201588819487
 10
173.44342092923773
 20
216.43400305851702
 10
173.1062458163013
 20
216.0405904419708
 10
172.77731364327494
 20
215.64009475224645
 10
172.4567696573464
 20
215.23269283696615
 10
172.14475540171622
 20
214.81856459334685
 10
171.8414086530961
 20
214.39789288876273
 10
171.5468633608707
 20
213.97086347999618
 10
171.26124958794927
 20
213.5376649312127
 10
170.98469345333353
 20
213.09848853069644
 10
170.71731707642724
 20
212.65352820638253
 10
170.45923852311142
 20
212.20298044022405
 10
170.21057175361005
 20
211.74704418143105
 10
169.97142657216827
 20
211.28592075862036
 10
169.74190857856595
 20
210.81981379091428
 10
169.52211912148795
 20
210.34892909802832
 10
169.31215525377112
 20
209.8734746093869
 10
169.1121096895488
 20
209.39366027230767
 10
168.92207076331053
 20
208.9096979592945
 10
168.74212239089638
 20
208.42180137448074
 10
168.5723440324419
 20
207.93018595926338
 10
168.41281065729063
 20
207.4350687971703
 10
168.26359271089007
 20
206.93666851800208
 10
168.12475608368464
 20
206.4352052012915
 10
167.99636208202057
 20
205.93090027912245
 10
167.8784674010745
 20
205.42397643835181
 10
167.77112409981865
 20
204.91465752227717
 10
167.67437957803307
 20
204.40316843179394
 10
167.5882765553751
 20
203.88973502608548
 10
167.5128530525156
 20
203.37458402289
 10
167.44814237435023
 20
202.85794289838844
 10
167.39417309529276
 20
202.34003978675733
 10
167.35096904665755
 20
201.82110337943118
 10
167.3185493061362
 20
201.30136282411885
 10
167.29692818937346
 20
200.78104762361824
 10
167.2861152436459
 20
200.26038753447443
 10
167.2861152436459
 20
199.7396124655256
 10
167.29692818937346
 20
199.21895237638176
 10
167.3185493061362
 20
198.69863717588115
 10
167.35096904665755
 20
198.17889662056882
 10
167.39417309529276
 20
197.65996021324267
 10
167.44814237435023
 20
197.14205710161158
 10
167.5128530525156
 20
196.62541597711
 10
167.5882765553751
 20
196.11026497391452
 10
167.67437957803307
 20
195.59683156820608
 10
167.77112409981865
 20
195.08534247772283
 10
167.8784674010745
 20
194.57602356164819
 10
167.99636208202057
 20
194.06909972087755
 10
168.12475608368464
 20
193.5647947987085
 10
168.26359271089007
 20
193.06333148199795
 10
168.41281065729063
 20
192.5649312028297
 10
168.5723440324419
 20
192.06981404073662
 10
168.74212239089638
 20
191.57819862551926
 10
168.92207076331053
 20
191.0903020407055
 10
169.1121096895488
 20
190.60633972769233
 10
169.31215525377112
 20
190.12652539061307
 10
169.52211912148795
 20
189.65107090197168
 10
169.74190857856595
 20
189.18018620908572
 10
169.97142657216827
 20
188.71407924137966
 10
170.21057175361005
 20
188.25295581856895
 10
170.45923852311142
 20
187.79701955977598
 10
170.71731707642724
 20
187.34647179361747
 10
170.98469345333356
 20
186.90151146930356
 10
171.26124958794927
 20
186.4623350687873
 10
171.5468633608707
 20
186.02913652000382
 10
171.8414086530961
 20
185.60210711123727
 10
172.1447554017162
 20
185.18143540665318
 10
172.4567696573464
 20
184.76730716303385
 10
172.77731364327494
 20
184.35990524775355
 10
173.1062458163013
 20
183.9594095580292
 10
173.44342092923773
 20
183.56599694148298
 10
173.7886900950462
 20
183.1798411180513
 10
174.14190085258284
 20
182.80111260327513
 10
174.50289723392038
 20
182.4299786330049
 10
174.8715198332193
 20
182.06660308955404
 10
175.24760587711688
 20
181.7111464293331
 10
175.63098929660342
 20
181.3637656119967
 10
176.02150080035352
 20
181.0246140311347
 10
176.41896794948053
 20
180.6938414465376
 10
176.82321523368051
 20
180.37159391806713
 10
177.23406414873276
 20
180.0580137411603
 10
177.65133327532232
 20
179.75323938399552
 10
178.07483835914945
 20
179.4574054263492
 10
178.50439239229132
 20
179.17064250016898
 10
178.93980569577928
 20
178.89307723189032
 10
179.38088600335595
 20
178.62483218652193
 10
179.82743854637442
 20
178.36602581352443
 10
180.27926613980262
 20
178.11677239450646
 10
180.73616926929478
 20
177.87718199276108
 10
181.19794617929128
 20
177.64736040466494
 10
181.66439296210817
 20
177.4274091129616
 10
182.13530364797722
 20
177.21742524194963
 10
182.6104702959962
 20
177.01750151459515
 10
183.08968308594987
 20
176.8277262115881
 10
183.5727304109605
 20
176.64818313235986
 10
184.0593989709278
 20
176.4789515580799
 10
184.54947386671589
 20
176.32010621664736
 10
185.04273869504698
 20
176.1717172496933
 10
185.5389756440589
 20
176.03385018160827
 10
186.03796558948451
 20
175.90656589060836
 10
186.53948819141115
 20
175.78992058185332
 10
187.0433219915762
 20
175.6839657626278
 10
187.54924451115699
 20
175.58874821959716
 10
188.0570323490112
 20
175.504309998148
 10
188.56646128032446
 20
175.4306883838218
 10
189.07730635562163
 20
175.367915885851
 10
189.58934200009844
 20
175.3160202228035
 10
190.10234211322864
 20
175.2750243103432
 10
190.61608016860382
 20
175.24494625111103
 10
191.130329313961
 20
175.22579932673113
 10
191.64486247135437
 20
175.21759199194634
 10
192.15945243742624
 20
175.22032787088463
 10
192.67387198373396
 20
175.23400575545892
 10
193.18789395708734
 20
175.2586196059004
 10
193.7012913798533
 20
175.2941585534256
 10
194.21383755018263
 20
175.34060690503583
 10
194.72530614211527
 20
175.3979441504465
 10
195.2354713055195
 20
175.46614497114422
 10
195.74410776582087
 20
175.54517925156648
 10
196.2509909234772
 20
175.63501209239993
 10
196.7558969531554
 20
175.73560382599098
 10
197.2586029025665
 20
175.84691003386183
 10
197.75888679091497
 20
175.96888156632448
 10
198.25652770691926
 20
176.10146456418386
 10
198.75130590636005
 20
176.24460048252047
 10
199.24300290911302
 20
176.39822611654222
 10
199.73140159562362
 20
176.56227362949383
 10
200.21628630278084
 20
176.73667058261174
 10
200.69744291914807
 20
176.9213399671109
 10
201.17465897950865
 20
177.1162002381898
 10
201.6477237586845
 20
177.32116535103825
 10
202.11642836458643
 20
177.53614479883242
 10
202.58056583045504
 20
177.76104365270012
 10
203.03993120625148
 20
177.99576260363858
 10
203.49432164915737
 20
178.24019800636674
 10
203.94353651314478
 20
178.49424192509184
 10
204.38737743757568
 20
178.75778218117102
 10
204.8256484347925
 20
179.03070240264614
 10
205.25815597666067
 20
179.31288207563045
 10
205.6847090800253
 20
179.60419659752404
 10
206.10511939104387
 20
179.90451733203483
 10
206.51920126835813
 20
180.2137116659809
 10
206.92677186506788
 20
180.5316430678485
 10
207.3276512094712
 20
180.85817114808071
 10
207.7216622845349
 20
181.19315172106946
 10
208.10863110605996
 20
181.5364368688238
 10
208.4883867995085
 20
181.88787500628638
 10
208.86076167545684
 20
182.24731094826902
 10
209.22559130364255
 20
182.61458597797832
 10
209.58271458557215
 20
182.98953791710036
 10
209.93197382565782
 20
183.37200119741414
 10
210.27321480085115
 20
183.76180693390188
 10
210.60628682874386
 20
184.15878299932382
 10
210.93104283410477
 20
184.5627541002248
 10
211.24733941382416
 20
184.97354185433892
 10
211.55503690023656
 20
185.3909648693581
 10
211.85399942279398
 20
185.81483882302985
 10
212.14409496806263
 20
186.24497654454873
 10
212.4251954380162
 20
186.68118809720585
 10
212.69717670660052
 20
187.12328086225938
 10
212.9599186745439
 20
187.5710596239897
 10
213.21330532238983
 20
188.02432665590112
 10
213.45722476172773
 20
188.48288180803232
 10
213.6915692845998
 20
188.946522595337
 10
213.91623541106182
 20
189.41504428709547
 10
214.13112393487694
 20
189.88823999731807
 10
214.33613996732242
 20
190.36590077610023
 10
214.53119297908975
 20
190.8478157018887
 10
214.7161968402599
 20
191.33377197461868
 10
214.89106985833587
 20
191.82355500968043
 10
215.0557348143157
 20
192.31694853267356
 10
215.21011899679044
 20
192.81373467490795
 10
215.3541542340511
 20
193.31369406960826
 10
215.4877769241917
 20
193.81660594878025
 10
215.6109280631939
 20
194.32224824069561
 10
215.7235532709816
 20
194.83039766795264
 10
215.8256028154335
 20
195.34082984606925
 10
215.91703163434366
 20
195.85331938256485
 10
215.99779935531944
 20
196.36763997648728
 10
216.06787031360892
 20
196.883564518341
 10
216.12721356784957
 20
197.40086519037214
 10
216.17580291373085
 20
197.91931356716663
 10
216.21361689556548
 20
198.4386807165161
 10
216.2406388157636
 20
198.95873730050826
 10
216.2568567422059
 20
199.47925367679576
 10
216.26226351351266
 20
200.0
  0
LINE
  5
94
330
17
100
AcDbEntity
  8
Layer
 62
7
100
AcDbLine
 10
15.425923235593984
 20
200.00000000000003
 30
0.0
 11
367.9503446028224
 21
199.99999999999997
 31
0.0
  0
LINE
  5
95
330
17
100
AcDbEntity
  8
Layer
 62
7
100
AcDbLine
 10
83.83080750903966
 20
200.0
 30
0.0
 11
95.83080750903966
 21
200.0
 31
0.0
  0
LWPOLYLINE
  5
96
330
17
100
AcDbEntity
  8
Layer
100
AcDbPolyline
 90
5
 70
0
 10
89.83080750903966
 20
205.0
 10
94.83080750903966
 20
200.0
 10
89.83080750903966
 20
195.0
 10
84.83080750903966
 20
200.0
 10
89.83080750903966
 20
205.0
  0
LINE
  5
97
330
17
100
AcDbEntity
  8
Layer
 62
7
100
AcDbLine
 10
185.68813391920816
 20
200.0
 30
0.0
 11
197.68813391920816
 21
200.0
 31
0.0
  0
LWPOLYLINE
  5
98
330
17
100
AcDbEntity
  8
Layer
100
AcDbPolyline
 90
5
 70
0
 10
191.68813391920816
 20
205.0
 10
196.68813391920816
 20
200.0
 10
191.68813391920816
 20
195.0
 10
186.68813391920816
 20
200.0
 10
191.68813391920816
 20
205.0
  0
LINE
  5
99
330
17
100
AcDbEntity
  8
Layer
 62
7
100
AcDbLine
 10
287.5454603293767
 20
200.0
 30
0.0
 11
299.5454603293767
 21
200.0
 31
0.0
  0
LWPOLYLINE
  5
9A
330
17
100
AcDbEntity
  8
Layer
100
AcDbPolyline
 90
5
 70
0
 10
293.5454603293767
 20
205.0
 10
298.5454603293767
 20
200.0
 10
293.5454603293767
 20
195.0
 10
288.5454603293767
 20
200.0
 10
293.5454603293767
 20
205.0
  0
LINE
  5
9B
330
17
100
AcDbEntity
  8
Layer
 62
7
100
AcDbLine
 10
10.96635308127125
 20
191.5968726855065
 30
0.0
 11
261.60043872640017
 21
180.2594792094784
 31
0.0
  0
LINE
  5
9C
330
17
100
AcDbEntity
  8
Layer
 62
7
100
AcDbLine
 10
58.99531541928499
 20
189.4242901220862
 30
0.0
 11
70.98305708221096
 21
188.88202651188436
 31
0.0
  0
LWPOLYLINE
  5
9D
330
17
100
AcDbEntity
  8
Layer
100
AcDbPolyline
 90
5
 70
0
 10
65.21512942166541
 20
194.14805067653776
 10
69.98407861030046
 20
188.92721514606782
 10
64.76324307983054
 20
184.15826595743277
 10
59.9942938911955
 20
189.37910148790272
 10
65.21512942166541
 20
194.14805067653776
  0
LINE
  5
9E
330
17
100
AcDbEntity
  8
Layer
 62
7
100
AcDbLine
 10
118.4071567968581
 20
186.7368048141755
 30
0.0
 11
130.39489845978406
 21
186.19454120397367
 31
0.0
  0
LWPOLYLINE
  5
9F
330
17
100
AcDbEntity
  8
Layer
100
AcDbPolyline
 90
5
 70
0
 10
124.62697079923852
 20
191.46056536862707
 10
129.39591998787358
 20
186.23972983815713
 10
124.17508445740366
 20
181.47078064952208
 10
119.40613526876861
 20
186.69161617999202
 10
124.62697079923852
 20
191.46056536862707
  0
LINE
  5
A0
330
17
100
AcDbEntity
  8
Layer
100
AcDbLine
 10
191.77351351351274
 20
224.78274999999994
 30
0.0
 11
191.77351351351274
 21
225.78274999999994
 31
0.0
  0
LINE
  5
A1
330
17
100
AcDbEntity
  8
Layer
100
AcDbLine
 10
191.77351351351274
 20
175.21725000000006
 30
0.0
 11
191.77351351351274
 21
174.21725000000006
 31
0.0
  0
LINE
  5
A2
330
17
100
AcDbEntity
  8
Layer
100
AcDbLine
 10
216.26226351351266
 20
200.0
 30
0.0
 11
217.26226351351266
 21
200.0
 31
0.0
  0
LINE
  5
A3
330
17
100
AcDbEntity
  8
Layer
100
AcDbLine
 10
167.28476351351281
 20
200.0
 30
0.0
 11
166.28476351351281
 21
200.0
 31
0.0
  0
LINE
  5
A4
330
17
100
AcDbEntity
  8
Layer
 62
7
100
AcDbLine
 10
111.77351351351274
 20
169.6997960174926
 30
0.0
 11
111.77351351351274
 21
229.06597577986147
 31
0.0
  0
LINE
  5
A5
330
17
100
AcDbEntity
  8
Layer
 62
7
100
AcDbLine
 10
111.77351351351274
 20
186.4279589343217
 30
0.0
 11
111.77351351351274
 21
198.4279589343217
 31
0.0
  0
LWPOLYLINE
  5
A6
330
17
100
AcDbEntity
  8
Layer
100
AcDbPolyline
 90
5
 70
0
 10
106.77351351351274
 20
192.4279589343217
 10
111.77351351351274
 20
197.4279589343217
 10
116.77351351351274
 20
192.4279589343217
 10
111.77351351351274
 20
187.4279589343217
 10
106.77351351351274
 20
192.4279589343217
  0
LINE
  5
A7
330
17
100
AcDbEntity
  8
Layer
 62
7
100
AcDbLine
 10
111.77351351351274
 20
200.33781286303235
 30
0.0
 11
111.77351351351274
 21
212.33781286303235
 31
0.0
  0
LWPOLYLINE
  5
A8
330
17
100
AcDbEntity
  8
Layer
100
AcDbPolyline
 90
5
 70
0
 10
106.77351351351274
 20
206.33781286303235
 10
111.77351351351274
 20
211.33781286303235
 10
116.77351351351274
 20
206.33781286303235
 10
111.77351351351274
 20
201.33781286303235
 10
106.77351351351274
 20
206.33781286303235
  0
LINE
  5
A9
330
17
100
AcDbEntity
  8
Layer
 62
7
100
AcDbLine
 10
321.77351351351274
 20
191.42872119493794
 30
0.0
 11
321.77351351351274
 21
211.73233950488057
 31
0.0
  0
LINE
  5
AA
330
17
100
AcDbEntity
  8
Layer
 62
7
100
AcDbLine
 10
321.77351351351274
 20
194.48498760341786
 30
0.0
 11
321.77351351351274
 21
206.48498760341786
 31
0.0
  0
LWPOLYLINE
  5
AB
330
17
100
AcDbEntity
  8
Layer
100
AcDbPolyline
 90
5
 70
0
 10
316.77351351351274
 20
200.48498760341786
 10
321.77351351351274
 20
205.48498760341786
 10
326.77351351351274
 20
200.48498760341786
 10
321.77351351351274
 20
195.48498760341786
 10
316.77351351351274
 20
200.48498760341786
  0
LINE
  5
AC
330
17
100
AcDbEntity
  8
Layer
 62
7
100
AcDbLine
 10
321.77351351351274
 20
196.67607309640064
 30
0.0
 11
321.77351351351274
 21
208.67607309640064
 31
0.0
  0
LWPOLYLINE
  5
AD
330
17
100
AcDbEntity
  8
Layer
100
AcDbPolyline
 90
5
 70
0
 10
316.77351351351274
 20
202.67607309640064
 10
321.77351351351274
 20
207.67607309640064
 10
326.77351351351274
 20
202.67607309640064
 10
321.77351351351274
 20
197.67607309640064
 10
316.77351351351274
 20
202.67607309640064
  0
LWPOLYLINE
  5
AE
330
17
100
AcDbEntity
  8
NumLabel
 62
1
100
AcDbPolyline
 90
4
 70
0
 10
143.93837837837782
 20
181.08243243243254
 10
143.93837837837782
 20
186.08243243243254
 10
148.93837837837782
 20
186.08243243243254
 10
148.93837837837782
 20
176.08243243243254
  0
LWPOLYLINE
  5
AF
330
17
100
AcDbEntity
  8
NumLabel
 62
1
100
AcDbPolyline
 90
4
 70
0
 10
153.43837837837782
 20
186.08243243243254
 10
151.43837837837782
 20
186.08243243243254
 10
151.43837837837782
 20
176.08243243243254
 10
153.43837837837782
 20
176.08243243243254
  0
LWPOLYLINE
  5
B0
330
17
100
AcDbEntity
  8
NumLabel
 62
1
100
AcDbPolyline
 90
4
 70
0
 10
154.43837837837782
 20
176.08243243243254
 10
156.43837837837782
 20
176.08243243243254
 10
156.43837837837782
 20
186.08243243243254
 10
154.43837837837782
 20
186.08243243243254
  0
LWPOLYLINE
  5
B1
330
17
100
AcDbEntity
  8
NumLabel
 62
1
100
AcDbPolyline
 90
2
 70
0
 10
151.43837837837782
 20
181.08243243243254
 10
153.43837837837782
 20
181.08243243243254
  0
LWPOLYLINE
  5
B2
330
17
100
AcDbEntity
  8
NumLabel
 62
1
100
AcDbPolyline
 90
2
 70
0
 10
154.43837837837782
 20
181.08243243243254
 10
156.43837837837782
 20
181.08243243243254
  0
ENDSEC
  0
SECTION
  2
OBJECTS
  0
DICTIONARY
  5
A
330
0
100
AcDbDictionary
280
0
281
1
  3
ACAD_COLOR
350
B
  3
ACAD_GROUP
350
C
  3
ACAD_LAYOUT
350
D
  3
ACAD_MATERIAL
350
E
  3
ACAD_MLEADERSTYLE
350
F
  3
ACAD_MLINESTYLE
350
10
  3
ACAD_PLOTSETTINGS
350
11
  3
ACAD_PLOTSTYLENAME
350
12
  3
ACAD_SCALELIST
350
14
  3
ACAD_TABLESTYLE
350
15
  3
ACAD_VISUALSTYLE
350
16
  3
EZDXF_META
350
2D
  0
DICTIONARY
  5
B
330
A
100
AcDbDictionary
280
0
281
1
  0
DICTIONARY
  5
C
330
A
100
AcDbDictionary
280
0
281
1
  0
DICTIONARY
  5
D
330
A
100
AcDbDictionary
280
0
281
1
  3
Model
350
1A
  3
Layout1
350
1E
  0
DICTIONARY
  5
E
330
A
100
AcDbDictionary
280
0
281
1
  3
ByBlock
350
1F
  3
ByLayer
350
20
  3
Global
350
21
  0
DICTIONARY
  5
F
330
A
100
AcDbDictionary
280
0
281
1
  3
Standard
350
2C
  0
DICTIONARY
  5
10
330
A
100
AcDbDictionary
280
0
281
1
  3
Standard
350
22
  0
DICTIONARY
  5
11
330
A
100
AcDbDictionary
280
0
281
1
  0
ACDBDICTIONARYWDFLT
  5
12
330
A
100
AcDbDictionary
280
0
281
1
  3
Normal
350
13
100
AcDbDictionaryWithDefault
340
13
  0
ACDBPLACEHOLDER
  5
13
330
12
  0
DICTIONARY
  5
14
330
A
100
AcDbDictionary
280
0
281
1
  0
DICTIONARY
  5
15
330
A
100
AcDbDictionary
280
0
281
1
  0
DICTIONARY
  5
16
330
A
100
AcDbDictionary
280
0
281
1
  3
2dWireframe
350
5A
  3
Basic
350
5B
  3
Brighten
350
5C
  3
ColorChange
350
5D
  3
Conceptual
350
5E
  3
Dim
350
5F
  3
EdgeColorOff
350
60
  3
Facepattern
350
61
  3
Flat
350
62
  3
FlatWithEdges
350
63
  3
Gouraud
350
64
  3
GouraudWithEdges
350
65
  3
Hidden
350
66
  3
JitterOff
350
67
  3
Linepattern
350
68
  3
Modeling
350
69
  3
OverhangOff
350
6A
  3
Realistic
350
6B
  3
Shaded
350
6C
  3
Shaded with edges
350
6D
  3
Shades of Gray
350
6E
  3
Sketchy
350
6F
  3
Thicken
350
70
  3
Wireframe
350
71
  3
X-Ray
350
72
  0
LAYOUT
  5
1A
330
D
100
AcDbPlotSettings
  1

  2
Adobe PDF
  4
A3
  6

 40
7.5
 41
20.0
 42
7.5
 43
20.0
 44
420.0
 45
297.0
 46
0.0
 47
0.0
 48
0.0
 49
0.0
140
0.0
141
0.0
142
1.0
143
1.0
 70
1024
 72
1
 73
0
 74
5
  7

 75
16
 76
0
 77
2
 78
300
147
1.0
148
0.0
149
0.0
100
AcDbLayout
  1
Model
 70
1
 71
0
 10
0.0
 20
0.0
 11
420.0
 21
297.0
 12
0.0
 22
0.0
 32
0.0
 14
1e+20
 24
1e+20
 34
1e+20
 15
-1e+20
 25
-1e+20
 35
-1e+20
146
0.0
 13
0.0
 23
0.0
 33
0.0
 16
1.0
 26
0.0
 36
0.0
 17
0.0
 27
1.0
 37
0.0
 76
1
330
17
  0
LAYOUT
  5
1E
330
D
100
AcDbPlotSettings
  1

  2
Adobe PDF
  4
A3
  6

 40
7.5
 41
20.0
 42
7.5
 43
20.0
 44
420.0
 45
297.0
 46
0.0
 47
0.0
 48
0.0
 49
0.0
140
0.0
141
0.0
142
1.0
143
1.0
 70
0
 72
1
 73
0
 74
5
  7

 75
16
 76
0
 77
2
 78
300
147
1.0
148
0.0
149
0.0
100
AcDbLayout
  1
Layout1
 70
1
 71
1
 10
0.0
 20
0.0
 11
420.0
 21
297.0
 12
0.0
 22
0.0
 32
0.0
 14
1e+20
 24
1e+20
 34
1e+20
 15
-1e+20
 25
-1e+20
 35
-1e+20
146
0.0
 13
0.0
 23
0.0
 33
0.0
 16
1.0
 26
0.0
 36
0.0
 17
0.0
 27
1.0
 37
0.0
 76
1
330
1B
  0
MATERIAL
  5
1F
102
{ACAD_REACTORS
330
E
102
}
330
E
100
AcDbMaterial
  1
ByBlock
  2

 70
0
 40
1.0
 71
1
 41
1.0
 91
-1023410177
 42
1.0
 72
1
  3

 73
1
 74
1
 75
1
 44
0.5
 73
0
 45
1.0
 46
1.0
 77
1
  4

 78
1
 79
1
170
1
 48
1.0
171
1
  6

172
1
173
1
174
1
140
1.0
141
1.0
175
1
  7

176
1
177
1
178
1
143
1.0
179
1
  8

270
1
271
1
272
1
145
1.0
146
1.0
273
1
  9

274
1
275
1
276
1
 42
1.0
 72
1
  3

 73
1
 74
1
 75
1
 94
63
  0
MATERIAL
  5
20
102
{ACAD_REACTORS
330
E
102
}
330
E
100
AcDbMaterial
  1
ByLayer
  2

 70
0
 40
1.0
 71
1
 41
1.0
 91
-1023410177
 42
1.0
 72
1
  3

 73
1
 74
1
 75
1
 44
0.5
 73
0
 45
1.0
 46
1.0
 77
1
  4

 78
1
 79
1
170
1
 48
1.0
171
1
  6

172
1
173
1
174
1
140
1.0
141
1.0
175
1
  7

176
1
177
1
178
1
143
1.0
179
1
  8

270
1
271
1
272
1
145
1.0
146
1.0
273
1
  9

274
1
275
1
276
1
 42
1.0
 72
1
  3

 73
1
 74
1
 75
1
 94
63
  0
MATERIAL
  5
21
102
{ACAD_REACTORS
330
E
102
}
330
E
100
AcDbMaterial
  1
Global
  2

 70
0
 40
1.0
 71
1
 41
1.0
 91
-1023410177
 42
1.0
 72
1
  3

 73
1
 74
1
 75
1
 44
0.5
 73
0
 45
1.0
 46
1.0
 77
1
  4

 78
1
 79
1
170
1
 48
1.0
171
1
  6

172
1
173
1
174
1
140
1.0
141
1.0
175
1
  7

176
1
177
1
178
1
143
1.0
179
1
  8

270
1
271
1
272
1
145
1.0
146
1.0
273
1
  9

274
1
275
1
276
1
 42
1.0
 72
1
  3

 73
1
 74
1
 75
1
 94
63
  0
MLINESTYLE
  5
22
102
{ACAD_REACTORS
330
10
102
}
330
10
100
AcDbMlineStyle
  2
Standard
 70
0
  3

 62
256
 51
90.0
 52
90.0
 71
2
 49
0.5
 62
256
  6
BYLAYER
 49
-0.5
 62
256
  6
BYLAYER
  0
MLEADERSTYLE
  5
2C
102
{ACAD_REACTORS
330
F
102
}
330
F
100
AcDbMLeaderStyle
179
2
170
2
171
1
172
0
 90
2
 40
0.0
 41
0.0
173
1
 91
-1056964608
 92
-2
290
1
 42
2.0
291
1
 43
8.0
  3
Standard
 44
4.0
300

342
29
174
1
175
1
176
0
178
1
 93
-1056964608
 45
4.0
292
0
297
0
 46
4.0
 94
-1056964608
 47
1.0
 49
1.0
140
1.0
294
1
141
0.0
177
0
142
1.0
295
0
296
0
143
3.75
271
0
272
9
273
9
  0
DICTIONARY
  5
2D
330
A
100
AcDbDictionary
281
1
  3
CREATED_BY_EZDXF
350
2E
  3
WRITTEN_BY_EZDXF
350
B5
  0
DICTIONARYVAR
  5
2E
330
2D
100
DictionaryVariables
280
0
  1
1.3.0 @ 2026-01-06T17:07:24.756244+00:00
  0
VISUALSTYLE
  5
5A
102
{ACAD_REACTORS
330
16
102
}
330
16
100
AcDbVisualStyle
  2
2dWireframe
 70
4
 90
0
 40
0.6
 62
7
290
0
291
0
  0
VISUALSTYLE
  5
5B
102
{ACAD_REACTORS
330
16
102
}
330
16
100
AcDbVisualStyle
  2
Basic
 70
7
 90
1
 40
0.6
 62
7
290
0
291
1
  0
VISUALSTYLE
  5
5C
102
{ACAD_REACTORS
330
16
102
}
330
16
100
AcDbVisualStyle
  2
Brighten
 70
12
 90
2
 40
0.6
 62
7
290
0
291
1
  0
VISUALSTYLE
  5
5D
102
{ACAD_REACTORS
330
16
102
}
330
16
100
AcDbVisualStyle
  2
ColorChange
 70
16
 90
2
 40
0.6
 62
8
290
0
291
1
  0
VISUALSTYLE
  5
5E
102
{ACAD_REACTORS
330
16
102
}
330
16
100
AcDbVisualStyle
  2
Conceptual
 70
9
 90
3
 40
0.6
 62
7
290
0
291
0
  0
VISUALSTYLE
  5
5F
102
{ACAD_REACTORS
330
16
102
}
330
16
100
AcDbVisualStyle
  2
Dim
 70
11
 90
2
 40
0.6
 62
7
290
0
291
1
  0
VISUALSTYLE
  5
60
102
{ACAD_REACTORS
330
16
102
}
330
16
100
AcDbVisualStyle
  2
EdgeColorOff
 70
22
 90
2
 40
0.6
 62
7
290
0
291
1
  0
VISUALSTYLE
  5
61
102
{ACAD_REACTORS
330
16
102
}
330
16
100
AcDbVisualStyle
  2
Facepattern
 70
15
 90
2
 40
0.6
 62
7
290
0
291
1
  0
VISUALSTYLE
  5
62
102
{ACAD_REACTORS
330
16
102
}
330
16
100
AcDbVisualStyle
  2
Flat
 70
0
 90
2
 40
0.6
 62
7
290
0
291
1
  0
VISUALSTYLE
  5
63
102
{ACAD_REACTORS
330
16
102
}
330
16
100
AcDbVisualStyle
  2
FlatWithEdges
 70
1
 90
2
 40
0.6
 62
7
290
0
291
1
  0
VISUALSTYLE
  5
64
102
{ACAD_REACTORS
330
16
102
}
330
16
100
AcDbVisualStyle
  2
Gouraud
 70
2
 90
2
 40
0.6
 62
7
290
0
291
1
  0
VISUALSTYLE
  5
65
102
{ACAD_REACTORS
330
16
102
}
330
16
100
AcDbVisualStyle
  2
GouraudWithEdges
 70
3
 90
2
 40
0.6
 62
7
290
0
291
1
  0
VISUALSTYLE
  5
66
102
{ACAD_REACTORS
330
16
102
}
330
16
100
AcDbVisualStyle
  2
Hidden
 70
6
 90
1
 40
0.6
 62
7
290
0
291
0
  0
VISUALSTYLE
  5
67
102
{ACAD_REACTORS
330
16
102
}
330
16
100
AcDbVisualStyle
  2
JitterOff
 70
20
 90
2
 40
0.6
 62
7
290
0
291
1
  0
VISUALSTYLE
  5
68
102
{ACAD_REACTORS
330
16
102
}
330
16
100
AcDbVisualStyle
  2
Linepattern
 70
14
 90
2
 40
0.6
 62
7
290
0
291
1
  0
VISUALSTYLE
  5
69
102
{ACAD_REACTORS
330
16
102
}
330
16
100
AcDbVisualStyle
  2
Modeling
 70
10
 90
2
 40
0.6
 62
7
290
0
291
0
  0
VISUALSTYLE
  5
6A
102
{ACAD_REACTORS
330
16
102
}
330
16
100
AcDbVisualStyle
  2
OverhangOff
 70
21
 90
2
 40
0.6
 62
7
290
0
291
1
  0
VISUALSTYLE
  5
6B
102
{ACAD_REACTORS
330
16
102
}
330
16
100
AcDbVisualStyle
  2
Realistic
 70
8
 90
2
 40
0.6
 62
7
290
0
291
0
  0
VISUALSTYLE
  5
6C
102
{ACAD_REACTORS
330
16
102
}
330
16
100
AcDbVisualStyle
  2
Shaded
 70
27
 90
2
 40
0.6
 62
7
290
0
291
0
  0
VISUALSTYLE
  5
6D
102
{ACAD_REACTORS
330
16
102
}
330
16
100
AcDbVisualStyle
  2
Shaded with edges
 70
26
 90
2
 40
0.6
 62
7
290
0
291
0
  0
VISUALSTYLE
  5
6E
102
{ACAD_REACTORS
330
16
102
}
330
16
100
AcDbVisualStyle
  2
Shades of Gray
 70
23
 90
2
 40
0.6
 62
7
290
0
291
0
  0
VISUALSTYLE
  5
6F
102
{ACAD_REACTORS
330
16
102
}
330
16
100
AcDbVisualStyle
  2
Sketchy
 70
24
 90
1
 40
0.6
 62
7
290
0
291
0
  0
VISUALSTYLE
  5
70
102
{ACAD_REACTORS
330
16
102
}
330
16
100
AcDbVisualStyle
  2
Thicken
 70
13
 90
2
 40
0.6
 62
7
290
0
291
1
  0
VISUALSTYLE
  5
71
102
{ACAD_REACTORS
330
16
102
}
330
16
100
AcDbVisualStyle
  2
Wireframe
 70
5
 90
0
 40
0.6
 62
7
290
0
291
0
  0
VISUALSTYLE
  5
72
102
{ACAD_REACTORS
330
16
102
}
330
16
100
AcDbVisualStyle
  2
X-Ray
 70
25
 90
2
 40
0.5
 62
7
290
0
291
0
  0
DICTIONARYVAR
  5
B5
330
2D
100
DictionaryVariables
280
0
  1
1.3.0 @ 2026-01-06T17:07:24.816240+00:00
  0
ENDSEC
  0
EOF
