  0
SECTION
  2
HEADER
  9
$ACADVER
  1
AC1021
  9
$ACADMAINTVER
 70
25
  9
$DWGCODEPAGE
  3
ANSI_1252
  9
$LASTSAVEDBY
  1
ezdxf
  9
$INSBASE
 10
0.0
 20
0.0
 30
0.0
  9
$EXTMIN
 10
1e+20
 20
1e+20
 30
1e+20
  9
$EXTMAX
 10
-1e+20
 20
-1e+20
 30
-1e+20
  9
$LIMMIN
 10
0.0
 20
0.0
  9
$LIMMAX
 10
420.0
 20
297.0
  9
$ORTHOMODE
 70
0
  9
$REGENMODE
 70
1
  9
$FILLMODE
 70
1
  9
$QTEXTMODE
 70
0
  9
$MIRRTEXT
 70
1
  9
$LTSCALE
 40
1.0
  9
$ATTMODE
 70
1
  9
$TEXTSIZE
 40
2.5
  9
$TRACEWID
 40
1.0
  9
$TEXTSTYLE
  7
OpenSans
  9
$CLAYER
  8
0
  9
$CELTYPE
  6
ByLayer
  9
$CECOLOR
 62
256
  9
$CELTSCALE
 40
1.0
  9
$DISPSILH
 70
0
  9
$DIMSCALE
 40
1.0
  9
$DIMASZ
 40
0.175
  9
$DIMEXO
 40
0.125
  9
$DIMDLI
 40
3.75
  9
$DIMRND
 40
0.0
  9
$DIMDLE
 40
0.0
  9
$DIMEXE
 40
0.375
  9
$DIMTP
 40
0.0
  9
$DIMTM
 40
0.0
  9
$DIMTXT
 40
0.25
  9
$DIMCEN
 40
2.5
  9
$DIMTSZ
 40
0.0
  9
$DIMTOL
 70
0
  9
$DIMLIM
 70
0
  9
$DIMTIH
 70
0
  9
$DIMTOH
 70
0
  9
$DIMSE1
 70
0
  9
$DIMSE2
 70
0
  9
$DIMTAD
 70
1
  9
$DIMZIN
 70
12
  9
$DIMBLK
  1
ARCHTICK
  9
$DIMASO
 70
1
  9
$DIMSHO
 70
1
  9
$DIMPOST
  1

  9
$DIMAPOST
  1

  9
$DIMALT
 70
0
  9
$DIMALTD
 70
3
  9
$DIMALTF
 40
0.03937007874
  9
$DIMLFAC
 40
100.0
  9
$DIMTOFL
 70
1
  9
$DIMTVP
 40
0.0
  9
$DIMTIX
 70
0
  9
$DIMSOXD
 70
0
  9
$DIMSAH
 70
0
  9
$DIMBLK1
  1

  9
$DIMBLK2
  1

  9
$DIMSTYLE
  2
EZDXF
  9
$DIMCLRD
 70
0
  9
$DIMCLRE
 70
0
  9
$DIMCLRT
 70
0
  9
$DIMTFAC
 40
0.5
  9
$DIMGAP
 40
0.1
  9
$DIMJUST
 70
0
  9
$DIMSD1
 70
0
  9
$DIMSD2
 70
0
  9
$DIMTOLJ
 70
0
  9
$DIMTZIN
 70
8
  9
$DIMALTZ
 70
0
  9
$DIMALTTZ
 70
0
  9
$DIMUPT
 70
1
  9
$DIMDEC
 70
2
  9
$DIMTDEC
 70
2
  9
$DIMALTU
 70
2
  9
$DIMALTTD
 70
3
  9
$DIMTXSTY
  7
OpenSansCondensed-Light
  9
$DIMAUNIT
 70
0
  9
$DIMADEC
 70
2
  9
$DIMALTRND
 40
0.0
  9
$DIMAZIN
 70
3
  9
$DIMDSEP
 70
46
  9
$DIMATFIT
 70
3
  9
$DIMFRAC
 70
0
  9
$DIMLDRBLK
  1

  9
$DIMLUNIT
 70
2
  9
$DIMLWD
 70
-2
  9
$DIMLWE
 70
-2
  9
$DIMTMOVE
 70
2
  9
$DIMFXL
 40
1.0
  9
$DIMFXLON
 70
0
  9
$DIMJOGANG
 40
0.785398163397
  9
$DIMTFILL
 70
0
  9
$DIMTFILLCLR
 70
0
  9
$DIMARCSYM
 70
0
  9
$DIMLTYPE
  6

  9
$DIMLTEX1
  6

  9
$DIMLTEX2
  6

  9
$LUNITS
 70
2
  9
$LUPREC
 70
4
  9
$SKETCHINC
 40
1.0
  9
$FILLETRAD
 40
10.0
  9
$AUNITS
 70
0
  9
$AUPREC
 70
2
  9
$MENU
  1
.
  9
$ELEVATION
 40
0.0
  9
$PELEVATION
 40
0.0
  9
$THICKNESS
 40
0.0
  9
$LIMCHECK
 70
0
  9
$CHAMFERA
 40
0.0
  9
$CHAMFERB
 40
0.0
  9
$CHAMFERC
 40
0.0
  9
$CHAMFERD
 40
0.0
  9
$SKPOLY
 70
0
  9
$TDCREATE
 40
2461048.0884375
  9
$TDUCREATE
 40
2458532.153996898
  9
$TDUPDATE
 40
2461048.0884375
  9
$TDUUPDATE
 40
2458532.1544311
  9
$TDINDWG
 40
0.0
  9
$TDUSRTIMER
 40
0.0
  9
$USRTIMER
 70
1
  9
$ANGBASE
 50
0.0
  9
$ANGDIR
 70
0
  9
$PDMODE
 70
0
  9
$PDSIZE
 40
0.0
  9
$PLINEWID
 40
0.0
  9
$SPLFRAME
 70
0
  9
$SPLINETYPE
 70
6
  9
$SPLINESEGS
 70
8
  9
$HANDSEED
  5
AE
  9
$SURFTAB1
 70
6
  9
$SURFTAB2
 70
6
  9
$SURFTYPE
 70
6
  9
$SURFU
 70
6
  9
$SURFV
 70
6
  9
$UCSBASE
  2

  9
$UCSNAME
  2

  9
$UCSORG
 10
0.0
 20
0.0
 30
0.0
  9
$UCSXDIR
 10
1.0
 20
0.0
 30
0.0
  9
$UCSYDIR
 10
0.0
 20
1.0
 30
0.0
  9
$UCSORTHOREF
  2

  9
$UCSORTHOVIEW
 70
0
  9
$UCSORGTOP
 10
0.0
 20
0.0
 30
0.0
  9
$UCSORGBOTTOM
 10
0.0
 20
0.0
 30
0.0
  9
$UCSORGLEFT
 10
0.0
 20
0.0
 30
0.0
  9
$UCSORGRIGHT
 10
0.0
 20
0.0
 30
0.0
  9
$UCSORGFRONT
 10
0.0
 20
0.0
 30
0.0
  9
$UCSORGBACK
 10
0.0
 20
0.0
 30
0.0
  9
$PUCSBASE
  2

  9
$PUCSNAME
  2

  9
$PUCSORG
 10
0.0
 20
0.0
 30
0.0
  9
$PUCSXDIR
 10
1.0
 20
0.0
 30
0.0
  9
$PUCSYDIR
 10
0.0
 20
1.0
 30
0.0
  9
$PUCSORTHOREF
  2

  9
$PUCSORTHOVIEW
 70
0
  9
$PUCSORGTOP
 10
0.0
 20
0.0
 30
0.0
  9
$PUCSORGBOTTOM
 10
0.0
 20
0.0
 30
0.0
  9
$PUCSORGLEFT
 10
0.0
 20
0.0
 30
0.0
  9
$PUCSORGRIGHT
 10
0.0
 20
0.0
 30
0.0
  9
$PUCSORGFRONT
 10
0.0
 20
0.0
 30
0.0
  9
$PUCSORGBACK
 10
0.0
 20
0.0
 30
0.0
  9
$USERI1
 70
0
  9
$USERI2
 70
0
  9
$USERI3
 70
0
  9
$USERI4
 70
0
  9
$USERI5
 70
0
  9
$USERR1
 40
0.0
  9
$USERR2
 40
0.0
  9
$USERR3
 40
0.0
  9
$USERR4
 40
0.0
  9
$USERR5
 40
0.0
  9
$WORLDVIEW
 70
1
  9
$SHADEDGE
 70
3
  9
$SHADEDIF
 70
70
  9
$TILEMODE
 70
1
  9
$MAXACTVP
 70
64
  9
$PINSBASE
 10
0.0
 20
0.0
 30
0.0
  9
$PLIMCHECK
 70
0
  9
$PEXTMIN
 10
1e+20
 20
1e+20
 30
1e+20
  9
$PEXTMAX
 10
-1e+20
 20
-1e+20
 30
-1e+20
  9
$PLIMMIN
 10
0.0
 20
0.0
  9
$PLIMMAX
 10
420.0
 20
297.0
  9
$UNITMODE
 70
0
  9
$VISRETAIN
 70
1
  9
$PLINEGEN
 70
0
  9
$PSLTSCALE
 70
1
  9
$TREEDEPTH
 70
3020
  9
$CMLSTYLE
  2
Standard
  9
$CMLJUST
 70
0
  9
$CMLSCALE
 40
20.0
  9
$PROXYGRAPHICS
 70
1
  9
$MEASUREMENT
 70
1
  9
$CELWEIGHT
370
-1
  9
$ENDCAPS
280
0
  9
$JOINSTYLE
280
0
  9
$LWDISPLAY
290
0
  9
$INSUNITS
 70
6
  9
$HYPERLINKBASE
  1

  9
$STYLESHEET
  1

  9
$XEDIT
290
1
  9
$CEPSNTYPE
380
0
  9
$PSTYLEMODE
290
1
  9
$FINGERPRINTGUID
  2
{A08DF314-6E6A-47C0-8D55-5E30CA79E9C3}
  9
$VERSIONGUID
  2
{12E45FC3-6D02-4577-A81D-30D9095EBDA1}
  9
$EXTNAMES
290
1
  9
$PSVPSCALE
 40
0.0
  9
$OLESTARTUP
290
0
  9
$SORTENTS
280
127
  9
$INDEXCTL
280
0
  9
$HIDETEXT
280
1
  9
$XCLIPFRAME
290
1
  9
$HALOGAP
280
0
  9
$OBSCOLOR
 70
257
  9
$OBSLTYPE
280
0
  9
$INTERSECTIONDISPLAY
280
0
  9
$INTERSECTIONCOLOR
 70
257
  9
$DIMASSOC
280
2
  9
$PROJECTNAME
  1

  9
$CAMERADISPLAY
290
0
  9
$LENSLENGTH
 40
50.0
  9
$CAMERAHEIGHT
 40
0.0
  9
$STEPSPERSEC
 40
24.0
  9
$STEPSIZE
 40
100.0
  9
$3DDWFPREC
 40
2.0
  9
$PSOLWIDTH
 40
0.005
  9
$PSOLHEIGHT
 40
0.08
  9
$LOFTANG1
 40
1.570796326795
  9
$LOFTANG2
 40
1.570796326795
  9
$LOFTMAG1
 40
0.0
  9
$LOFTMAG2
 40
0.0
  9
$LOFTPARAM
 70
7
  9
$LOFTNORMALS
280
1
  9
$LATITUDE
 40
37.795
  9
$LONGITUDE
 40
-122.394
  9
$NORTHDIRECTION
 40
0.0
  9
$TIMEZONE
 70
-8000
  9
$LIGHTGLYPHDISPLAY
280
1
  9
$TILEMODELIGHTSYNCH
280
1
  9
$CMATERIAL
347
20
  9
$SOLIDHIST
280
0
  9
$SHOWHIST
280
1
  9
$DWFFRAME
280
2
  9
$DGNFRAME
280
2
  9
$REALWORLDSCALE
290
1
  9
$INTERFERECOLOR
 62
256
  9
$CSHADOW
280
0
  9
$SHADOWPLANELOCATION
 40
0.0
  0
ENDSEC
  0
SECTION
  2
CLASSES
  0
CLASS
  1
ACDBDICTIONARYWDFLT
  2
AcDbDictionaryWithDefault
  3
ObjectDBX Classes
 90
0
 91
0
280
0
281
0
  0
CLASS
  1
SUN
  2
AcDbSun
  3
SCENEOE
 90
1153
 91
0
280
0
281
0
  0
CLASS
  1
VISUALSTYLE
  2
AcDbVisualStyle
  3
ObjectDBX Classes
 90
4095
 91
0
280
0
281
0
  0
CLASS
  1
MATERIAL
  2
AcDbMaterial
  3
ObjectDBX Classes
 90
1153
 91
0
280
0
281
0
  0
CLASS
  1
SCALE
  2
AcDbScale
  3
ObjectDBX Classes
 90
1153
 91
0
280
0
281
0
  0
CLASS
  1
TABLESTYLE
  2
AcDbTableStyle
  3
ObjectDBX Classes
 90
4095
 91
0
280
0
281
0
  0
CLASS
  1
MLEADERSTYLE
  2
AcDbMLeaderStyle
  3
ACDB_MLEADERSTYLE_CLASS
 90
4095
 91
0
280
0
281
0
  0
CLASS
  1
DICTIONARYVAR
  2
AcDbDictionaryVar
  3
ObjectDBX Classes
 90
0
 91
0
280
0
281
0
  0
CLASS
  1
CELLSTYLEMAP
  2
AcDbCellStyleMap
  3
ObjectDBX Classes
 90
1152
 91
0
280
0
281
0
  0
CLASS
  1
MENTALRAYRENDERSETTINGS
  2
AcDbMentalRayRenderSettings
  3
SCENEOE
 90
1024
 91
0
280
0
281
0
  0
CLASS
  1
ACDBDETAILVIEWSTYLE
  2
AcDbDetailViewStyle
  3
ObjectDBX Classes
 90
1025
 91
0
280
0
281
0
  0
CLASS
  1
ACDBSECTIONVIEWSTYLE
  2
AcDbSectionViewStyle
  3
ObjectDBX Classes
 90
1025
 91
0
280
0
281
0
  0
CLASS
  1
RASTERVARIABLES
  2
AcDbRasterVariables
  3
ISM
 90
0
 91
0
280
0
281
0
  0
CLASS
  1
ACDBPLACEHOLDER
  2
AcDbPlaceHolder
  3
ObjectDBX Classes
 90
0
 91
0
280
0
281
0
  0
CLASS
  1
LAYOUT
  2
AcDbLayout
  3
ObjectDBX Classes
 90
0
 91
0
280
0
281
0
  0
ENDSEC
  0
SECTION
  2
TABLES
  0
TABLE
  2
VPORT
  5
8
330
0
100
AcDbSymbolTable
 70
1
  0
VPORT
  5
23
330
8
100
AcDbSymbolTableRecord
100
AcDbViewportTableRecord
  2
*Active
 70
0
 10
0.0
 20
0.0
 11
1.0
 21
1.0
 12
0.0
 22
0.0
 13
0.0
 23
0.0
 14
0.5
 24
0.5
 15
0.5
 25
0.5
 16
0.0
 26
0.0
 36
1.0
 17
0.0
 27
0.0
 37
0.0
 40
1000.0
 41
1.34
 42
50.0
 43
0.0
 44
0.0
 50
0.0
 51
0.0
 71
0
 72
1000
 73
1
 74
3
 75
0
 76
0
 77
0
 78
0
281
0
 65
0
146
0.0
  0
ENDTAB
  0
TABLE
  2
LTYPE
  5
2
330
0
100
AcDbSymbolTable
 70
21
  0
LTYPE
  5
24
330
2
100
AcDbSymbolTableRecord
100
AcDbLinetypeTableRecord
  2
ByBlock
 70
0
  3

 72
65
 73
0
 40
0.0
  0
LTYPE
  5
25
330
2
100
AcDbSymbolTableRecord
100
AcDbLinetypeTableRecord
  2
ByLayer
 70
0
  3

 72
65
 73
0
 40
0.0
  0
LTYPE
  5
26
330
2
100
AcDbSymbolTableRecord
100
AcDbLinetypeTableRecord
  2
Continuous
 70
0
  3

 72
65
 73
0
 40
0.0
  0
LTYPE
  5
2F
330
2
100
AcDbSymbolTableRecord
100
AcDbLinetypeTableRecord
  2
CENTER
 70
0
  3
Center ____ _ ____ _ ____ _ ____ _ ____ _ ____
 72
65
 73
4
 40
5.08
 49
3.175
 74
0
 49
-0.635
 74
0
 49
0.635
 74
0
 49
-0.635
 74
0
  0
LTYPE
  5
30
330
2
100
AcDbSymbolTableRecord
100
AcDbLinetypeTableRecord
  2
CENTERX2
 70
0
  3
Center (2x) ________  __  ________  __  ________
 72
65
 73
4
 40
8.89
 49
6.35
 74
0
 49
-0.635
 74
0
 49
1.27
 74
0
 49
-0.635
 74
0
  0
LTYPE
  5
31
330
2
100
AcDbSymbolTableRecord
100
AcDbLinetypeTableRecord
  2
CENTER2
 70
0
  3
Center (.5x) ____ _ ____ _ ____ _ ____ _ ____
 72
65
 73
4
 40
2.54
 49
1.587
 74
0
 49
-0.318
 74
0
 49
0.318
 74
0
 49
-0.318
 74
0
  0
LTYPE
  5
32
330
2
100
AcDbSymbolTableRecord
100
AcDbLinetypeTableRecord
  2
DASHED
 70
0
  3
Dashed __ __ __ __ __ __ __ __ __ __ __ __ __ _
 72
65
 73
2
 40
1.524
 49
1.27
 74
0
 49
-0.254
 74
0
  0
LTYPE
  5
33
330
2
100
AcDbSymbolTableRecord
100
AcDbLinetypeTableRecord
  2
DASHEDX2
 70
0
  3
Dashed (2x) ____  ____  ____  ____  ____  ____
 72
65
 73
2
 40
3.048
 49
2.54
 74
0
 49
-0.508
 74
0
  0
LTYPE
  5
34
330
2
100
AcDbSymbolTableRecord
100
AcDbLinetypeTableRecord
  2
DASHED2
 70
0
  3
Dashed (.5x) _ _ _ _ _ _ _ _ _ _ _ _ _ _
 72
65
 73
2
 40
0.762
 49
0.635
 74
0
 49
-0.127
 74
0
  0
LTYPE
  5
35
330
2
100
AcDbSymbolTableRecord
100
AcDbLinetypeTableRecord
  2
PHANTOM
 70
0
  3
Phantom ______  __  __  ______  __  __  ______
 72
65
 73
6
 40
6.35
 49
3.175
 74
0
 49
-0.635
 74
0
 49
0.635
 74
0
 49
-0.635
 74
0
 49
0.635
 74
0
 49
-0.635
 74
0
  0
LTYPE
  5
36
330
2
100
AcDbSymbolTableRecord
100
AcDbLinetypeTableRecord
  2
PHANTOMX2
 70
0
  3
Phantom (2x)____________    ____    ____    ____________
 72
65
 73
6
 40
10.795
 49
6.35
 74
0
 49
-0.635
 74
0
 49
1.27
 74
0
 49
-0.635
 74
0
 49
1.27
 74
0
 49
-0.635
 74
0
  0
LTYPE
  5
37
330
2
100
AcDbSymbolTableRecord
100
AcDbLinetypeTableRecord
  2
PHANTOM2
 70
0
  3
Phantom (.5x) ___ _ _ ___ _ _ ___ _ _ ___ _ _ ___
 72
65
 73
6
 40
3.175
 49
1.587
 74
0
 49
-0.318
 74
0
 49
0.318
 74
0
 49
-0.318
 74
0
 49
0.318
 74
0
 49
-0.318
 74
0
  0
LTYPE
  5
38
330
2
100
AcDbSymbolTableRecord
100
AcDbLinetypeTableRecord
  2
DASHDOT
 70
0
  3
Dash dot __ . __ . __ . __ . __ . __ . __ . __
 72
65
 73
4
 40
3.556
 49
2.54
 74
0
 49
-0.508
 74
0
 49
0.0
 74
0
 49
-0.508
 74
0
  0
LTYPE
  5
39
330
2
100
AcDbSymbolTableRecord
100
AcDbLinetypeTableRecord
  2
DASHDOTX2
 70
0
  3
Dash dot (2x) ____  .  ____  .  ____  .  ____
 72
65
 73
4
 40
6.096
 49
5.08
 74
0
 49
-0.508
 74
0
 49
0.0
 74
0
 49
-0.508
 74
0
  0
LTYPE
  5
3A
330
2
100
AcDbSymbolTableRecord
100
AcDbLinetypeTableRecord
  2
DASHDOT2
 70
0
  3
Dash dot (.5x) _ . _ . _ . _ . _ . _ . _ . _
 72
65
 73
4
 40
1.778
 49
1.27
 74
0
 49
-0.254
 74
0
 49
0.0
 74
0
 49
-0.254
 74
0
  0
LTYPE
  5
3B
330
2
100
AcDbSymbolTableRecord
100
AcDbLinetypeTableRecord
  2
DOT
 70
0
  3
Dot .  .  .  .  .  .  .  .  .  .  .  .  .  .  .  .
 72
65
 73
2
 40
0.508
 49
0.0
 74
0
 49
-0.508
 74
0
  0
LTYPE
  5
3C
330
2
100
AcDbSymbolTableRecord
100
AcDbLinetypeTableRecord
  2
DOTX2
 70
0
  3
Dot (2x) .    .    .    .    .    .    .    . 
 72
65
 73
2
 40
1.016
 49
0.0
 74
0
 49
-1.016
 74
0
  0
LTYPE
  5
3D
330
2
100
AcDbSymbolTableRecord
100
AcDbLinetypeTableRecord
  2
DOT2
 70
0
  3
Dot (.5) . . . . . . . . . . . . . . . . . . . 
 72
65
 73
2
 40
0.254
 49
0.0
 74
0
 49
-0.254
 74
0
  0
LTYPE
  5
3E
330
2
100
AcDbSymbolTableRecord
100
AcDbLinetypeTableRecord
  2
DIVIDE
 70
0
  3
Divide __ . . __ . . __ . . __ . . __ . . __
 72
65
 73
6
 40
4.064
 49
2.54
 74
0
 49
-0.508
 74
0
 49
0.0
 74
0
 49
-0.508
 74
0
 49
0.0
 74
0
 49
-0.508
 74
0
  0
LTYPE
  5
3F
330
2
100
AcDbSymbolTableRecord
100
AcDbLinetypeTableRecord
  2
DIVIDEX2
 70
0
  3
Divide (2x) ____  . .  ____  . .  ____  . .  ____
 72
65
 73
6
 40
6.604
 49
5.08
 74
0
 49
-0.508
 74
0
 49
0.0
 74
0
 49
-0.508
 74
0
 49
0.0
 74
0
 49
-0.508
 74
0
  0
LTYPE
  5
40
330
2
100
AcDbSymbolTableRecord
100
AcDbLinetypeTableRecord
  2
DIVIDE2
 70
0
  3
Divide(.5x) _ . _ . _ . _ . _ . _ . _ . _
 72
65
 73
6
 40
2.032
 49
1.27
 74
0
 49
-0.254
 74
0
 49
0.0
 74
0
 49
-0.254
 74
0
 49
0.0
 74
0
 49
-0.254
 74
0
  0
ENDTAB
  0
TABLE
  2
LAYER
  5
1
330
0
100
AcDbSymbolTable
 70
4
  0
LAYER
  5
27
330
1
100
AcDbSymbolTableRecord
100
AcDbLayerTableRecord
  2
0
 70
0
 62
7
  6
Continuous
370
-3
390
13
347
21
  0
LAYER
  5
28
330
1
100
AcDbSymbolTableRecord
100
AcDbLayerTableRecord
  2
Defpoints
 70
0
 62
7
  6
Continuous
290
0
370
-3
390
13
347
21
  0
LAYER
  5
8A
330
1
100
AcDbSymbolTableRecord
100
AcDbLayerTableRecord
  2
Layer
 70
0
 62
1
  6
Continuous
370
50
390
13
347
21
  0
LAYER
  5
8B
330
1
100
AcDbSymbolTableRecord
100
AcDbLayerTableRecord
  2
NumLabel
 70
0
 62
1
  6
Continuous
370
15
390
13
347
21
  0
ENDTAB
  0
TABLE
  2
STYLE
  5
5
330
0
100
AcDbSymbolTable
 70
26
  0
STYLE
  5
29
330
5
100
AcDbSymbolTableRecord
100
AcDbTextStyleTableRecord
  2
Standard
 70
0
 40
0.0
 41
1.0
 50
0.0
 71
0
 42
2.5
  3
txt
  4

  0
STYLE
  5
41
330
5
100
AcDbSymbolTableRecord
100
AcDbTextStyleTableRecord
  2
OpenSans-Light
 70
0
 40
0.0
 41
1.0
 50
0.0
 71
0
 42
2.5
  3
OpenSans-Light.ttf
  4

  0
STYLE
  5
42
330
5
100
AcDbSymbolTableRecord
100
AcDbTextStyleTableRecord
  2
OpenSans-Light-Italic
 70
0
 40
0.0
 41
1.0
 50
0.0
 71
0
 42
2.5
  3
OpenSans-LightItalic.ttf
  4

  0
STYLE
  5
43
330
5
100
AcDbSymbolTableRecord
100
AcDbTextStyleTableRecord
  2
OpenSans
 70
0
 40
0.0
 41
1.0
 50
0.0
 71
0
 42
2.5
  3
OpenSans-Regular.ttf
  4

  0
STYLE
  5
44
330
5
100
AcDbSymbolTableRecord
100
AcDbTextStyleTableRecord
  2
OpenSans-Italic
 70
0
 40
0.0
 41
1.0
 50
0.0
 71
0
 42
2.5
  3
OpenSans-Italic.ttf
  4

  0
STYLE
  5
45
330
5
100
AcDbSymbolTableRecord
100
AcDbTextStyleTableRecord
  2
OpenSans-SemiBold
 70
0
 40
0.0
 41
1.0
 50
0.0
 71
0
 42
2.5
  3
OpenSans-SemiBold.ttf
  4

  0
STYLE
  5
46
330
5
100
AcDbSymbolTableRecord
100
AcDbTextStyleTableRecord
  2
OpenSans-SemiBoldItalic
 70
0
 40
0.0
 41
1.0
 50
0.0
 71
0
 42
2.5
  3
OpenSans-SemiBoldItalic.ttf
  4

  0
STYLE
  5
47
330
5
100
AcDbSymbolTableRecord
100
AcDbTextStyleTableRecord
  2
OpenSans-Bold
 70
0
 40
0.0
 41
1.0
 50
0.0
 71
0
 42
2.5
  3
OpenSans-Bold.ttf
  4

  0
STYLE
  5
48
330
5
100
AcDbSymbolTableRecord
100
AcDbTextStyleTableRecord
  2
OpenSans-BoldItalic
 70
0
 40
0.0
 41
1.0
 50
0.0
 71
0
 42
2.5
  3
OpenSans-BoldItalic.ttf
  4

  0
STYLE
  5
49
330
5
100
AcDbSymbolTableRecord
100
AcDbTextStyleTableRecord
  2
OpenSans-ExtraBold
 70
0
 40
0.0
 41
1.0
 50
0.0
 71
0
 42
2.5
  3
OpenSans-ExtraBold.ttf
  4

  0
STYLE
  5
4A
330
5
100
AcDbSymbolTableRecord
100
AcDbTextStyleTableRecord
  2
OpenSans-ExtraBoldItalic
 70
0
 40
0.0
 41
1.0
 50
0.0
 71
0
 42
2.5
  3
OpenSans-ExtraBoldItalic.ttf
  4

  0
STYLE
  5
4B
330
5
100
AcDbSymbolTableRecord
100
AcDbTextStyleTableRecord
  2
OpenSansCondensed-Bold
 70
0
 40
0.0
 41
1.0
 50
0.0
 71
0
 42
2.5
  3
OpenSansCondensed-Bold.ttf
  4

  0
STYLE
  5
4C
330
5
100
AcDbSymbolTableRecord
100
AcDbTextStyleTableRecord
  2
OpenSansCondensed-Light
 70
0
 40
0.0
 41
1.0
 50
0.0
 71
0
 42
2.5
  3
OpenSansCondensed-Light.ttf
  4

  0
STYLE
  5
4D
330
5
100
AcDbSymbolTableRecord
100
AcDbTextStyleTableRecord
  2
OpenSansCondensed-Italic
 70
0
 40
0.0
 41
1.0
 50
0.0
 71
0
 42
2.5
  3
OpenSansCondensed-LightItalic.ttf
  4

  0
STYLE
  5
4E
330
5
100
AcDbSymbolTableRecord
100
AcDbTextStyleTableRecord
  2
LiberationSans
 70
0
 40
0.0
 41
1.0
 50
0.0
 71
0
 42
2.5
  3
LiberationSans-Regular.ttf
  4

  0
STYLE
  5
4F
330
5
100
AcDbSymbolTableRecord
100
AcDbTextStyleTableRecord
  2
LiberationSans-Bold
 70
0
 40
0.0
 41
1.0
 50
0.0
 71
0
 42
2.5
  3
LiberationSans-Bold.ttf
  4

  0
STYLE
  5
50
330
5
100
AcDbSymbolTableRecord
100
AcDbTextStyleTableRecord
  2
LiberationSans-BoldItalic
 70
0
 40
0.0
 41
1.0
 50
0.0
 71
0
 42
2.5
  3
LiberationSans-BoldItalic.ttf
  4

  0
STYLE
  5
51
330
5
100
AcDbSymbolTableRecord
100
AcDbTextStyleTableRecord
  2
LiberationSans-Italic
 70
0
 40
0.0
 41
1.0
 50
0.0
 71
0
 42
2.5
  3
LiberationSans-Italic.ttf
  4

  0
STYLE
  5
52
330
5
100
AcDbSymbolTableRecord
100
AcDbTextStyleTableRecord
  2
LiberationSerif
 70
0
 40
0.0
 41
1.0
 50
0.0
 71
0
 42
2.5
  3
LiberationSerif-Regular.ttf
  4

  0
STYLE
  5
53
330
5
100
AcDbSymbolTableRecord
100
AcDbTextStyleTableRecord
  2
LiberationSerif-Bold
 70
0
 40
0.0
 41
1.0
 50
0.0
 71
0
 42
2.5
  3
LiberationSerif-Bold.ttf
  4

  0
STYLE
  5
54
330
5
100
AcDbSymbolTableRecord
100
AcDbTextStyleTableRecord
  2
LiberationSerif-BoldItalic
 70
0
 40
0.0
 41
1.0
 50
0.0
 71
0
 42
2.5
  3
LiberationSerif-BoldItalic.ttf
  4

  0
STYLE
  5
55
330
5
100
AcDbSymbolTableRecord
100
AcDbTextStyleTableRecord
  2
LiberationSerif-Italic
 70
0
 40
0.0
 41
1.0
 50
0.0
 71
0
 42
2.5
  3
LiberationSerif-Italic.ttf
  4

  0
STYLE
  5
56
330
5
100
AcDbSymbolTableRecord
100
AcDbTextStyleTableRecord
  2
LiberationMono
 70
0
 40
0.0
 41
1.0
 50
0.0
 71
0
 42
2.5
  3
LiberationMono-Regular.ttf
  4

  0
STYLE
  5
57
330
5
100
AcDbSymbolTableRecord
100
AcDbTextStyleTableRecord
  2
LiberationMono-Bold
 70
0
 40
0.0
 41
1.0
 50
0.0
 71
0
 42
2.5
  3
LiberationMono-Bold.ttf
  4

  0
STYLE
  5
58
330
5
100
AcDbSymbolTableRecord
100
AcDbTextStyleTableRecord
  2
LiberationMono-BoldItalic
 70
0
 40
0.0
 41
1.0
 50
0.0
 71
0
 42
2.5
  3
LiberationMono-BoldItalic.ttf
  4

  0
STYLE
  5
59
330
5
100
AcDbSymbolTableRecord
100
AcDbTextStyleTableRecord
  2
LiberationMono-Italic
 70
0
 40
0.0
 41
1.0
 50
0.0
 71
0
 42
2.5
  3
LiberationMono-Italic.ttf
  4

  0
ENDTAB
  0
TABLE
  2
VIEW
  5
7
330
0
100
AcDbSymbolTable
 70
0
  0
ENDTAB
  0
TABLE
  2
UCS
  5
6
330
0
100
AcDbSymbolTable
 70
0
  0
ENDTAB
  0
TABLE
  2
APPID
  5
3
330
0
100
AcDbSymbolTable
 70
3
  0
APPID
  5
2A
330
3
100
AcDbSymbolTableRecord
100
AcDbRegAppTableRecord
  2
ACAD
 70
0
  0
APPID
  5
AB
330
3
100
AcDbSymbolTableRecord
100
AcDbRegAppTableRecord
  2
HATCHBACKGROUNDCOLOR
 70
0
  0
APPID
  5
AC
330
3
100
AcDbSymbolTableRecord
100
AcDbRegAppTableRecord
  2
EZDXF
 70
0
  0
ENDTAB
  0
TABLE
  2
DIMSTYLE
  5
4
330
0
100
AcDbSymbolTable
 70
12
100
AcDbDimStyleTable
  0
DIMSTYLE
105
2B
330
4
100
AcDbSymbolTableRecord
100
AcDbDimStyleTableRecord
  2
Standard
 70
0
 40
1.0
 41
2.5
 42
0.625
 43
3.75
 44
1.25
 45
0.0
 46
0.0
 47
0.0
 48
0.0
 49
2.5
140
2.5
141
2.5
142
0.0
143
0.03937007874
144
1.0
145
0.0
146
1.0
147
0.625
148
0.0
 69
0
 70
0
 71
0
 72
0
 73
0
 74
0
 75
0
 76
0
 77
1
 78
8
 79
3
170
0
171
3
172
1
173
0
174
0
175
0
176
0
177
0
178
0
179
2
271
2
272
2
273
2
274
3
275
0
276
0
277
2
278
44
279
0
280
0
281
0
282
0
283
0
284
8
285
0
286
0
288
0
289
3
290
0
371
-2
372
-2
  0
DIMSTYLE
105
73
330
4
100
AcDbSymbolTableRecord
100
AcDbDimStyleTableRecord
  2
EZDXF
 70
0
 40
1.0
 41
0.175
 42
0.125
 43
3.75
 44
0.375
 45
0.0
 46
0.0
 47
0.0
 48
0.0
 49
2.5
140
0.25
141
2.5
142
0.0
143
0.03937007874
144
100.0
145
0.0
146
0.5
147
0.1
148
0.0
 69
0
 70
0
 71
0
 72
0
 73
0
 74
0
 75
0
 76
0
 77
1
 78
12
 79
3
170
0
171
3
172
1
173
0
174
0
175
0
176
0
177
0
178
0
179
2
271
2
272
2
273
2
274
3
275
0
276
0
277
2
278
46
279
2
280
0
281
0
282
0
283
0
284
8
285
0
286
0
288
1
289
3
290
0
340
4C
342
74
371
-2
372
-2
  0
DIMSTYLE
105
7C
330
4
100
AcDbSymbolTableRecord
100
AcDbDimStyleTableRecord
  2
EZ_M_100_H25_CM
 70
0
 40
1.0
 41
0.25
 42
0.125
 43
3.75
 44
0.375
 45
0.0
 46
0.0
 47
0.0
 48
0.0
 49
2.5
140
0.25
141
2.5
142
0.125
143
0.03937007874
144
100.0
145
0.0
146
0.5
147
0.1
148
0.0
 69
0
 70
0
 71
0
 72
0
 73
0
 74
0
 75
0
 76
0
 77
1
 78
12
 79
3
170
0
171
3
172
1
173
0
174
0
175
0
176
0
177
0
178
0
179
2
271
2
272
2
273
2
274
3
275
0
276
0
277
2
278
46
279
2
280
0
281
0
282
0
283
0
284
8
285
0
286
0
288
1
289
3
290
0
340
4C
371
-2
372
-2
  0
DIMSTYLE
105
7D
330
4
100
AcDbSymbolTableRecord
100
AcDbDimStyleTableRecord
  2
EZ_M_50_H25_CM
 70
0
 40
1.0
 41
0.125
 42
0.0625
 43
3.75
 44
0.1875
 45
0.0
 46
0.0
 47
0.0
 48
0.0
 49
2.5
140
0.125
141
2.5
142
0.0625
143
0.03937007874
144
100.0
145
0.0
146
0.5
147
0.05
148
0.0
 69
0
 70
0
 71
0
 72
0
 73
0
 74
0
 75
0
 76
0
 77
1
 78
12
 79
3
170
0
171
3
172
1
173
0
174
0
175
0
176
0
177
0
178
0
179
2
271
2
272
2
273
2
274
3
275
0
276
0
277
2
278
46
279
2
280
0
281
0
282
0
283
0
284
8
285
0
286
0
288
1
289
3
290
0
340
4C
371
-2
372
-2
  0
DIMSTYLE
105
7E
330
4
100
AcDbSymbolTableRecord
100
AcDbDimStyleTableRecord
  2
EZ_M_25_H25_CM
 70
0
 40
1.0
 41
0.0625
 42
0.03125
 43
3.75
 44
0.09375
 45
0.0
 46
0.0
 47
0.0
 48
0.0
 49
2.5
140
0.0625
141
2.5
142
0.03125
143
0.03937007874
144
100.0
145
0.0
146
0.5
147
0.025
148
0.0
 69
0
 70
0
 71
0
 72
0
 73
0
 74
0
 75
0
 76
0
 77
1
 78
12
 79
3
170
0
171
3
172
1
173
0
174
0
175
0
176
0
177
0
178
0
179
2
271
2
272
2
273
2
274
3
275
0
276
0
277
2
278
46
279
2
280
0
281
0
282
0
283
0
284
8
285
0
286
0
288
1
289
3
290
0
340
4C
371
-2
372
-2
  0
DIMSTYLE
105
7F
330
4
100
AcDbSymbolTableRecord
100
AcDbDimStyleTableRecord
  2
EZ_M_20_H25_CM
 70
0
 40
1.0
 41
0.05
 42
0.025
 43
3.75
 44
0.07500000000000001
 45
0.0
 46
0.0
 47
0.0
 48
0.0
 49
2.5
140
0.05
141
2.5
142
0.025
143
0.03937007874
144
100.0
145
0.0
146
0.5
147
0.020000000000000004
148
0.0
 69
0
 70
0
 71
0
 72
0
 73
0
 74
0
 75
0
 76
0
 77
1
 78
12
 79
3
170
0
171
3
172
1
173
0
174
0
175
0
176
0
177
0
178
0
179
2
271
2
272
2
273
2
274
3
275
0
276
0
277
2
278
46
279
2
280
0
281
0
282
0
283
0
284
8
285
0
286
0
288
1
289
3
290
0
340
4C
371
-2
372
-2
  0
DIMSTYLE
105
80
330
4
100
AcDbSymbolTableRecord
100
AcDbDimStyleTableRecord
  2
EZ_M_10_H25_CM
 70
0
 40
1.0
 41
0.025
 42
0.0125
 43
3.75
 44
0.037500000000000006
 45
0.0
 46
0.0
 47
0.0
 48
0.0
 49
2.5
140
0.025
141
2.5
142
0.0125
143
0.03937007874
144
100.0
145
0.0
146
0.5
147
0.010000000000000002
148
0.0
 69
0
 70
0
 71
0
 72
0
 73
0
 74
0
 75
0
 76
0
 77
1
 78
12
 79
3
170
0
171
3
172
1
173
0
174
0
175
0
176
0
177
0
178
0
179
2
271
2
272
2
273
2
274
3
275
0
276
0
277
2
278
46
279
2
280
0
281
0
282
0
283
0
284
8
285
0
286
0
288
1
289
3
290
0
340
4C
371
-2
372
-2
  0
DIMSTYLE
105
81
330
4
100
AcDbSymbolTableRecord
100
AcDbDimStyleTableRecord
  2
EZ_M_5_H25_CM
 70
0
 40
1.0
 41
0.0125
 42
0.00625
 43
3.75
 44
0.018750000000000003
 45
0.0
 46
0.0
 47
0.0
 48
0.0
 49
2.5
140
0.0125
141
2.5
142
0.00625
143
0.03937007874
144
100.0
145
0.0
146
0.5
147
0.005000000000000001
148
0.0
 69
0
 70
0
 71
0
 72
0
 73
0
 74
0
 75
0
 76
0
 77
1
 78
12
 79
3
170
0
171
3
172
1
173
0
174
0
175
0
176
0
177
0
178
0
179
2
271
2
272
2
273
2
274
3
275
0
276
0
277
2
278
46
279
2
280
0
281
0
282
0
283
0
284
8
285
0
286
0
288
1
289
3
290
0
340
4C
371
-2
372
-2
  0
DIMSTYLE
105
82
330
4
100
AcDbSymbolTableRecord
100
AcDbDimStyleTableRecord
  2
EZ_M_1_H25_CM
 70
0
 40
1.0
 41
0.0025
 42
0.00125
 43
3.75
 44
0.00375
 45
0.0
 46
0.0
 47
0.0
 48
0.0
 49
2.5
140
0.0025
141
2.5
142
0.00125
143
0.03937007874
144
100.0
145
0.0
146
0.5
147
0.001
148
0.0
 69
0
 70
0
 71
0
 72
0
 73
0
 74
0
 75
0
 76
0
 77
1
 78
12
 79
3
170
0
171
3
172
1
173
0
174
0
175
0
176
0
177
0
178
0
179
2
271
2
272
2
273
2
274
3
275
0
276
0
277
2
278
46
279
2
280
0
281
0
282
0
283
0
284
8
285
0
286
0
288
1
289
3
290
0
340
4C
371
-2
372
-2
  0
DIMSTYLE
105
83
330
4
100
AcDbSymbolTableRecord
100
AcDbDimStyleTableRecord
  2
EZ_RADIUS
 70
0
 40
1.0
 41
0.25
 42
0.125
 43
3.75
 44
0.375
 45
0.0
 46
0.0
 47
0.0
 48
0.0
 49
2.5
140
0.25
141
0.0
142
0.0
143
0.03937007874
144
100.0
145
0.0
146
0.5
147
0.1
148
0.0
 69
0
 70
0
 71
0
 72
0
 73
0
 74
0
 75
0
 76
0
 77
1
 78
12
 79
3
170
0
171
3
172
0
173
0
174
0
175
0
176
0
177
0
178
0
179
2
271
2
272
2
273
2
274
3
275
0
276
0
277
2
278
46
279
1
280
0
281
0
282
0
283
0
284
8
285
0
286
0
288
1
289
3
290
0
340
4C
342
84
371
-2
372
-2
  0
DIMSTYLE
105
88
330
4
100
AcDbSymbolTableRecord
100
AcDbDimStyleTableRecord
  2
EZ_RADIUS_INSIDE
 70
0
 40
1.0
 41
0.25
 42
0.125
 43
3.75
 44
0.375
 45
0.0
 46
0.0
 47
0.0
 48
0.0
 49
2.5
140
0.25
141
0.0
142
0.0
143
0.03937007874
144
100.0
145
0.0
146
0.5
147
0.1
148
0.0
 69
0
 70
0
 71
0
 72
0
 73
0
 74
0
 75
0
 76
0
 77
0
 78
12
 79
3
170
0
171
3
172
0
173
0
174
1
175
0
176
0
177
0
178
0
179
2
271
2
272
2
273
2
274
3
275
0
276
0
277
2
278
46
279
0
280
0
281
0
282
0
283
0
284
8
285
0
286
0
288
1
289
0
290
0
340
4C
342
84
371
-2
372
-2
  0
DIMSTYLE
105
89
330
4
100
AcDbSymbolTableRecord
100
AcDbDimStyleTableRecord
  2
EZ_CURVED
 70
0
 40
1.0
 41
0.25
 42
0.125
 43
3.75
 44
0.375
 45
0.0
 46
0.0
 47
0.0
 48
0.0
 49
2.5
140
0.25
141
2.5
142
0.0
143
0.03937007874
144
100.0
145
0.0
146
0.5
147
0.1
148
0.0
 69
0
 70
0
 71
0
 72
0
 73
0
 74
0
 75
0
 76
0
 77
1
 78
12
 79
2
 90
2
170
0
171
3
172
1
173
0
174
0
175
0
176
0
177
0
178
0
179
2
271
2
272
2
273
2
274
3
275
0
276
0
277
2
278
46
279
2
280
0
281
0
282
0
283
0
284
8
285
0
286
0
288
1
289
3
290
0
340
4C
371
-2
372
-2
  0
ENDTAB
  0
TABLE
  2
BLOCK_RECORD
  5
9
330
0
100
AcDbSymbolTable
 70
5
  0
BLOCK_RECORD
  5
17
330
9
100
AcDbSymbolTableRecord
100
AcDbBlockTableRecord
  2
*Model_Space
340
1A
 70
0
280
1
281
0
  0
BLOCK_RECORD
  5
1B
330
9
100
AcDbSymbolTableRecord
100
AcDbBlockTableRecord
  2
*Paper_Space
340
1E
 70
0
280
1
281
0
  0
BLOCK_RECORD
  5
74
330
9
100
AcDbSymbolTableRecord
100
AcDbBlockTableRecord
  2
_ARCHTICK
340
0
 70
0
280
1
281
0
  0
BLOCK_RECORD
  5
78
330
9
100
AcDbSymbolTableRecord
100
AcDbBlockTableRecord
  2
_CLOSEDFILLED
340
0
 70
0
280
1
281
0
  0
BLOCK_RECORD
  5
84
330
9
100
AcDbSymbolTableRecord
100
AcDbBlockTableRecord
  2
_CLOSEDBLANK
340
0
 70
0
280
1
281
0
  0
ENDTAB
  0
ENDSEC
  0
SECTION
  2
BLOCKS
  0
BLOCK
  5
18
330
17
100
AcDbEntity
  8
0
100
AcDbBlockBegin
  2
*Model_Space
 70
0
 10
0.0
 20
0.0
 30
0.0
  3
*Model_Space
  1

  0
ENDBLK
  5
19
330
17
100
AcDbEntity
  8
0
100
AcDbBlockEnd
  0
BLOCK
  5
1C
330
1B
100
AcDbEntity
  8
0
100
AcDbBlockBegin
  2
*Paper_Space
 70
0
 10
0.0
 20
0.0
 30
0.0
  3
*Paper_Space
  1

  0
ENDBLK
  5
1D
330
1B
100
AcDbEntity
  8
0
100
AcDbBlockEnd
  0
BLOCK
  5
75
330
74
100
AcDbEntity
  8
0
100
AcDbBlockBegin
  2
_ARCHTICK
 70
0
 10
0.0
 20
0.0
 30
0.0
  3
_ARCHTICK
  1

  0
LWPOLYLINE
  5
77
330
74
100
AcDbEntity
  8
0
  6
BYBLOCK
 62
0
100
AcDbPolyline
 90
2
 70
0
 43
0.15
 10
-0.5
 20
-0.5
 10
0.5
 20
0.5
  0
ENDBLK
  5
76
330
74
100
AcDbEntity
  8
0
100
AcDbBlockEnd
  0
BLOCK
  5
79
330
78
100
AcDbEntity
  8
0
100
AcDbBlockBegin
  2
_CLOSEDFILLED
 70
0
 10
0.0
 20
0.0
 30
0.0
  3
_CLOSEDFILLED
  1

  0
SOLID
  5
7B
330
78
100
AcDbEntity
  8
0
  6
BYBLOCK
 62
0
100
AcDbTrace
 10
-1.0
 20
0.16439898372402537
 30
0.0
 11
0.0
 21
0.0
 31
0.0
 12
-1.0
 22
-0.16439898372402537
 32
0.0
 13
-1.0
 23
-0.16439898372402537
 33
0.0
  0
ENDBLK
  5
7A
330
78
100
AcDbEntity
  8
0
100
AcDbBlockEnd
  0
BLOCK
  5
85
330
84
100
AcDbEntity
  8
0
100
AcDbBlockBegin
  2
_CLOSEDBLANK
 70
0
 10
0.0
 20
0.0
 30
0.0
  3
_CLOSEDBLANK
  1

  0
LWPOLYLINE
  5
87
330
84
100
AcDbEntity
  8
0
  6
BYBLOCK
 62
0
100
AcDbPolyline
 90
3
 70
1
 10
-1.0
 20
0.16439898372402537
 10
0.0
 20
0.0
 10
-1.0
 20
-0.16439898372402537
  0
ENDBLK
  5
86
330
84
100
AcDbEntity
  8
0
100
AcDbBlockEnd
  0
ENDSEC
  0
SECTION
  2
ENTITIES
  0
LWPOLYLINE
  5
8C
330
17
100
AcDbEntity
  8
Layer
100
AcDbPolyline
 90
161
 70
1
 10
318.1422018422673
 20
234.29815701164006
 10
317.7964764925611
 20
234.34696845377368
 10
311.7332503286176
 20
235.15553900222645
 10
305.660940641326
 20
235.91761667340978
 10
299.57820824951034
 20
236.63450865808997
 10
293.4892551495518
 20
237.30759104929876
 10
287.3957593797048
 20
237.9349993798615
 10
281.29628681071165
 20
238.5165061067074
 10
275.19241394454883
 20
239.05292096865662
 10
269.0866356672311
 20
239.54373947011774
 10
262.97976867391566
 20
239.98924386490162
 10
256.8761176607279
 20
240.3896065941648
 10
250.7749762267947
 20
240.74235803585208
 10
244.6778783681375
 20
241.04950067028963
 10
238.59063499610954
 20
241.30974428433882
 10
232.5115281835421
 20
241.5205428551861
 10
226.43991787576783
 20
241.68293379508384
 10
220.38022081566442
 20
241.7974887604978
 10
214.3346320362556
 20
241.86229307080652
 10
208.30309020832252
 20
241.87670621494496
 10
202.28733484194464
 20
241.8411819779821
 10
196.29156918865604
 20
241.75487017884393
 10
190.31762916768804
 20
241.61531514146273
 10
184.36345847612643
 20
241.42228372726572
 10
178.43477403116628
 20
241.17718299185486
 10
172.53231704320748
 20
240.87635766072236
 10
166.65867551017325
 20
240.52219324669002
 10
160.81870019439896
 20
240.11193865514124
 10
155.0119328654286
 20
239.64512540575566
 10
149.2453158760065
 20
239.12215551592985
 10
143.5204698964721
 20
238.5398855093466
 10
137.83874775568458
 20
237.89831304524978
 10
132.20367040400907
 20
237.19803699649987
 10
126.62258796368799
 20
236.43986416744036
 10
121.09978359360481
 20
235.62090164928037
 10
115.63690249366326
 20
234.74192538099885
 10
110.24396944300562
 20
233.80668789835536
 10
104.93247474300293
 20
232.8162003534336
 10
99.71226430517257
 20
231.77017949580141
 10
94.59084379921734
 20
230.66927059856584
 10
89.57878137350559
 20
229.5174776116317
 10
84.69028235658087
 20
228.3188633883567
 10
79.93377650524138
 20
227.07438015208646
 10
75.32020979043801
 20
225.79194093319427
 10
70.86269577983285
 20
224.47847214629553
 10
66.57319797142307
 20
223.14106116034702
 10
62.46192447630747
 20
221.78582796112204
 10
58.53561952300501
 20
220.42043722797874
 10
54.80002245150331
 20
219.05058746029417
 10
51.253477054082
 20
217.67988468205706
 10
47.89475908877995
 20
216.31463695037286
 10
44.71764827417974
 20
214.95878764295796
 10
41.72301017917715
 20
213.61939142094718
 10
38.902162480740515
 20
212.2898990947385
 10
36.24700231591271
 20
210.9750387541437
 10
33.7542085066149
 20
209.67559176266323
 10
31.418149851057933
 20
208.3917704687916
 10
29.23926774903353
 20
207.12543585682275
 10
27.218189097300098
 20
205.87805264261365
 10
25.35012719979008
 20
204.64829696419136
 10
23.63981853436195
 20
203.45135648100973
 10
22.08704519988129
 20
202.28896861805194
 10
20.684761440400933
 20
201.162516311549
 10
19.42003013051297
 20
200.0711995095459
 10
18.284144440387422
 20
199.02378608069492
 10
17.25344273115232
 20
198.00056838747676
 10
16.31803229722607
 20
197.0215673575327
 10
15.472202712770269
 20
196.08430934311136
 10
14.707640045515575
 20
195.18088899653094
 10
14.019229266539327
 20
194.3095374582048
 10
13.405760394962073
 20
193.47180154802732
 10
12.861678186999143
 20
192.6545886813546
 10
12.378573283178952
 20
191.8497666657139
 10
11.951614450800207
 20
191.06294340266243
 10
11.575198031107561
 20
190.28938632655198
 10
11.244250069971656
 20
189.53028668677894
 10
10.957273561103108
 20
188.79490682517198
 10
10.713002821526771
 20
188.0783339958932
 10
10.510902400493762
 20
187.38580712815568
 10
10.355798353262628
 20
186.74256835568602
 10
10.248799339436829
 20
186.0766073088423
 10
10.177135246124806
 20
185.39816390122422
 10
10.144384112382085
 20
184.77348247955445
 10
10.150532892993454
 20
184.12860848905947
 10
10.20195361492651
 20
183.47928834500811
 10
10.304135887072562
 20
182.8273556823904
 10
10.462464328475704
 20
182.17518895451354
 10
10.684783812288146
 20
181.5211658885617
 10
10.979728325735465
 20
180.86201799794804
 10
11.352609067544279
 20
180.19730156260283
 10
11.804099093358673
 20
179.5302936326832
 10
12.333699932857712
 20
178.86574361979382
 10
12.943897954572009
 20
178.20737397712566
 10
13.643062865977157
 20
177.5559603113076
 10
14.443268134175185
 20
176.90930000464704
 10
15.349154442265501
 20
176.26720249560438
 10
16.363428686778576
 20
175.63269984031476
 10
17.50280792411641
 20
175.0069690660275
 10
18.78320802891008
 20
174.38672999600715
 10
20.202953370417788
 20
173.76935125463217
 10
21.74926373259916
 20
173.16030492887995
 10
23.42595053859756
 20
172.56913641161717
 10
25.23147517127731
 20
171.9947054167526
 10
27.1448831328282
 20
171.43791137430054
 10
29.164100941552505
 20
170.90225902817286
 10
31.29617766607862
 20
170.38514428689456
 10
33.549081234100356
 20
169.87725655650266
 10
35.912830952508756
 20
169.3711372853246
 10
38.37894862940868
 20
168.87159112256512
 10
40.97302091038537
 20
168.3867511890896
 10
43.724389404943594
 20
167.90849774695806
 10
46.63482888961306
 20
167.42628274345418
 10
49.71321082740383
 20
166.94235580369173
 10
52.977336657719775
 20
166.46059894895717
 10
56.44939990789311
 20
165.98439795785177
 10
60.15361712042093
 20
165.513630763171
 10
64.1065554272806
 20
165.04631319745693
 10
68.31864597280543
 20
164.5840801989465
 10
72.79584101180168
 20
164.13002095968838
 10
77.53409692566888
 20
163.68802059633427
 10
82.52670031452948
 20
163.26369970605143
 10
87.75637271753325
 20
162.85836536957538
 10
93.20961450687366
 20
162.4815239709946
 10
98.86499422282716
 20
162.1304063383818
 10
104.69289141081649
 20
161.80412601879064
 10
110.67008686741008
 20
161.50657661443915
 10
116.77628848328874
 20
161.23628306856563
 10
122.99063312130254
 20
160.992128611584
 10
129.3016507145917
 20
160.77515955090547
 10
130.60995949797132
 20
160.73566520531054
 10
130.579785914426
 20
159.73612053154352
 10
135.6799511229091
 20
159.58215866427935
 10
142.16765385602528
 20
159.40226740361265
 10
148.69942224846122
 20
159.2306031623012
 10
155.24742356517442
 20
159.07382980261008
 10
161.81508147856835
 20
158.94025111474843
 10
168.42312386975652
 20
158.82876079187244
 10
175.08228673345812
 20
158.73030529577557
 10
181.7814993090346
 20
158.63583410387952
 10
188.500169394492
 20
158.54088635784032
 10
195.22178373996127
 20
158.44722661955498
 10
201.93343701475416
 20
158.36207905663423
 10
208.6464092593767
 20
158.2925031516183
 10
215.3817299303572
 20
158.2371179018841
 10
222.1471826556139
 20
158.18822605226632
 10
228.93266805015426
 20
158.14047060077692
 10
235.73034430562612
 20
158.0936483221205
 10
242.53288783881618
 20
158.04811978645012
 10
249.33304023807787
 20
158.0022479622925
 10
256.1219163202765
 20
157.95714756110345
 10
262.8950568003538
 20
157.9181932648802
 10
269.66053071342355
 20
157.88948570779712
 10
276.42729196753794
 20
157.86791177175195
 10
283.19250228328906
 20
157.84418032712293
 10
289.9586076046219
 20
157.81349810981655
 10
296.72497718411887
 20
157.780255947922
 10
303.48953184938165
 20
157.7529687271233
 10
310.25844737907937
 20
157.73339319530413
 10
317.02965308720866
 20
157.7172324189011
 10
318.1422018378536
 20
157.7146928293089
 10
318.1422018422673
 20
234.29815701164006
  0
LWPOLYLINE
  5
8D
330
17
100
AcDbEntity
  8
NumLabel
 62
1
100
AcDbPolyline
 90
6
 70
0
 10
187.55963302752298
 20
179.18577981651376
 10
182.55963302752298
 20
179.18577981651376
 10
182.55963302752298
 20
174.18577981651376
 10
187.55963302752298
 20
174.18577981651376
 10
187.55963302752298
 20
169.18577981651376
 10
182.55963302752298
 20
169.18577981651376
  0
LWPOLYLINE
  5
8E
330
17
100
AcDbEntity
  8
NumLabel
 62
1
100
AcDbPolyline
 90
2
 70
0
 10
195.05963302752298
 20
174.18577981651376
 10
193.05963302752298
 20
174.18577981651376
  0
LWPOLYLINE
  5
8F
330
17
100
AcDbEntity
  8
NumLabel
 62
1
100
AcDbPolyline
 90
4
 70
0
 10
192.05963302752298
 20
174.18577981651376
 10
190.05963302752298
 20
174.18577981651376
 10
190.05963302752298
 20
179.18577981651376
 10
192.05963302752298
 20
179.18577981651376
  0
LWPOLYLINE
  5
90
330
17
100
AcDbEntity
  8
NumLabel
 62
1
100
AcDbPolyline
 90
4
 70
0
 10
193.05963302752298
 20
179.18577981651376
 10
195.05963302752298
 20
179.18577981651376
 10
195.05963302752298
 20
169.18577981651376
 10
193.05963302752298
 20
169.18577981651376
  0
LWPOLYLINE
  5
91
330
17
100
AcDbEntity
  8
NumLabel
 62
1
100
AcDbPolyline
 90
2
 70
0
 10
192.05963302752298
 20
169.18577981651376
 10
190.05963302752298
 20
169.18577981651376
  0
LWPOLYLINE
  5
92
330
17
100
AcDbEntity
  8
Layer
100
AcDbPolyline
 90
5
 70
1
 10
181.10032829626763
 20
237.283924196695
 10
177.10374408662463
 20
237.11865273747708
 10
176.9384726274067
 20
241.11523694712008
 10
180.9350568370497
 20
241.28050840633801
 10
181.10032829626763
 20
237.283924196695
  0
LWPOLYLINE
  5
93
330
17
100
AcDbEntity
  8
Layer
100
AcDbPolyline
 90
5
 70
1
 10
76.40647881049219
 20
221.941983827903
 10
72.56962962503425
 20
220.81123702686804
 10
71.43888282399931
 20
224.64808621232598
 10
75.27573200945724
 20
225.77883301336092
 10
76.40647881049219
 20
221.941983827903
  0
LWPOLYLINE
  5
94
330
17
100
AcDbEntity
  8
Layer
100
AcDbPolyline
 90
5
 70
1
 10
23.93103721161401
 20
197.35955127058298
 10
22.417471929591315
 20
196.05221805481295
 10
19.149138890166284
 20
199.83613125986966
 10
20.66270417218898
 20
201.1434644756397
 10
23.93103721161401
 20
197.35955127058298
  0
LWPOLYLINE
  5
95
330
17
100
AcDbEntity
  8
Layer
100
AcDbPolyline
 90
5
 70
1
 10
17.158089237588502
 20
181.1130786445917
 10
18.79234028247868
 20
179.96015908006197
 10
15.910041371154431
 20
175.87453146783653
 10
14.27579032626425
 20
177.02745103236626
 10
17.158089237588502
 20
181.1130786445917
  0
LWPOLYLINE
  5
96
330
17
100
AcDbEntity
  8
Layer
100
AcDbPolyline
 90
5
 70
1
 10
98.08553657027073
 20
166.1803040089497
 10
102.07928351675218
 20
165.95673002238152
 10
101.85570953018401
 20
161.96298307590007
 10
97.86196258370256
 20
162.18655706246824
 10
98.08553657027073
 20
166.1803040089497
  0
LWPOLYLINE
  5
97
330
17
100
AcDbEntity
  8
Layer
100
AcDbPolyline
 90
300
 70
1
 10
280.7893233944954
 20
200.0
 10
280.78124235367903
 20
200.77525963749787
 10
280.75700279959
 20
201.55017694216428
 10
280.7166154357331
 20
202.3244097323323
 10
280.6600980960312
 20
203.09761612859734
 10
280.5874757369505
 20
203.86945470478142
 10
280.4987804264804
 20
204.63958463869747
 10
280.3940513299731
 20
205.4076658626467
 10
280.27333469284935
 20
206.173359213583
 10
280.13668382017784
 20
206.93632658287774
 10
279.984159053137
 20
207.69623106561906
 10
279.8158277423703
 20
208.45273710937954
 10
279.63176421824573
 20
209.20551066238676
 10
279.43204975803405
 20
209.9542193210312
 10
279.2167725500186
 20
210.69853247664616
 10
278.9860276545543
 20
211.43812146149543
 10
278.7399169620911
 20
212.17265969390357
 10
278.4785491481826
 20
212.90182282246522
 10
278.2020396254975
 20
213.6252888692696
 10
277.91051049285704
 20
214.3427383720769
 10
277.6040904813193
 20
215.0538545253836
 10
277.2829148973353
 20
215.7583233203152
 10
276.94712556300146
 20
216.4558336832835
 10
276.5968707534349
 20
217.14607761334784
 10
276.23230513129965
 20
217.82875031821993
 10
275.8535896785113
 20
218.5035503488513
 10
275.46089162515256
 20
219.17017973254482
 10
275.05438437562896
 20
219.82834410453103
 10
274.6342474320982
 20
220.47775283795136
 10
274.20066631520723
 20
221.11811917219072
 10
273.75383248217145
 20
221.74916033950294
 10
273.2939432422327
 20
222.3705976898731
 10
272.82120166953274
 20
222.98215681406145
 10
272.33581651344207
 20
223.58356766477482
 10
271.8380021063814
 20
224.17456467591197
 10
271.32797826917874
 20
224.75488687983
 10
270.80597021400297
 20
225.32427802258042
 10
270.27220844491615
 20
225.88248667706355
 10
269.72692865608934
 20
226.42926635405186
 10
269.17037162772715
 20
226.96437561103244
 10
268.6027831197456
 20
227.48757815882132
 10
268.0244137632515
 20
227.9986429659022
 10
267.4355189498709
 20
228.4973443604433
 10
266.8363587189754
 20
228.9834621299478
 10
266.2271976428558
 20
229.4567816184935
 10
265.60830470989487
 20
229.9170938215187
 10
264.9799532057891
 20
230.3641954781129
 10
264.342420592874
 20
230.79788916077095
 10
263.6959883876042
 20
231.21798336257157
 10
263.04094203624356
 20
231.62429258174137
 10
262.3775707888207
 20
232.01663740356727
 10
261.70616757140374
 20
232.39484457962087
 10
261.02702885675274
 20
232.7587471042602
 10
260.34045453340553
 20
233.10818428837467
 10
259.6467477732555
 20
233.44300183034082
 10
258.9462148976793
 20
233.76305188415762
 10
258.2391652422738
 20
234.06819312473107
 10
257.5259110202628
 20
234.35829081027944
 10
256.80676718463167
 20
234.63321684183134
 10
256.0820512890536
 20
234.89284981979074
 10
255.3520833476664
 20
235.13707509754354
 10
254.6171856937636
 20
235.36578483208228
 10
253.87768283746092
 20
235.5788780316267
 10
253.13390132240187
 20
235.77626060021862
 10
252.38616958156518
 20
235.95784537927233
 10
251.63481779223812
 20
236.1235521860612
 10
250.88017773021946
 20
236.2733078491242
 10
250.12258262331653
 20
236.40704624057634
 10
249.36236700420142
 20
236.52470830530882
 10
248.59986656269058
 20
236.6262420870662
 10
247.8354179975137
 20
236.7116027513887
 10
247.06935886763708
 20
236.78075260541002
 10
246.302027443207
 20
236.8336611145012
 10
245.53376255617925
 20
236.87030491575413
 10
244.76490345070042
 20
236.8906678282977
 10
243.99578963330717
 20
236.89474086044297
 10
243.22676072300985
 20
236.88252221365363
 10
242.45815630132623
 20
236.8540172833401
 10
241.69031576233178
 20
236.8092386564772
 10
240.92357816279295
 20
236.74820610604598
 10
240.15828207244914
 20
236.67094658230252
 10
239.3947654245099
 20
236.5774942008776
 10
238.63336536643308
 20
236.46789022771208
 10
237.87441811105003
 20
236.342183060835
 10
237.1182587881035
 20
236.20042820899246
 10
236.36522129626377
 20
236.0426882671365
 10
235.61563815568832
 20
235.86903288878486
 10
234.86984036119043
 20
235.679538755264
 10
234.12815723608108
 20
235.47428954184883
 10
233.39091628674907
 20
235.25337588081402
 10
232.6584430580435
 20
235.01689532141324
 10
231.93106098952214
 20
234.76495228680437
 10
231.20909127262985
 20
234.49765802793902
 10
230.4928527088693
 20
234.21513057443724
 10
229.78266156902734
 20
233.91749468246903
 10
229.07883145351857
 20
233.60488177966545
 10
228.38167315390848
 20
233.27742990708407
 10
227.69149451567625
 20
232.93528365825355
 10
227.0086003022793
 20
232.57859411532564
 10
226.33329206057792
 20
232.20751878236126
 10
225.66586798768103
 20
231.82222151578128
 10
225.0066227992704
 20
231.422872452012
 10
224.35584759946275
 20
231.0096479323579
 10
223.71382975226626
 20
230.58273042513406
 10
223.08085275468866
 20
230.14230844509348
 10
222.45719611155312
 20
229.6885764701842
 10
221.84313521207656
 20
229.2217348556732
 10
221.23894120826566
 20
228.74198974567534
 10
220.64488089518375
 20
228.24955298212583
 10
220.06121659314164
 20
227.7446420112368
 10
219.48820603186425
 20
227.22747978747915
 10
218.92610223668456
 20
226.69829467513222
 10
218.37515341681464
 20
226.1573203474444
 10
217.8356028557435
 20
225.60479568344977
 10
217.30768880380995
 20
225.04096466248572
 10
216.79164437299795
 20
224.46607625645868
 10
216.28769743400088
 20
223.88038431990492
 10
215.79607051560032
 20
223.28414747789577
 10
215.31698070640357
 20
222.6776290118359
 10
214.85063955898346
 20
222.0610967432057
 10
214.39725299646264
 20
221.4348229152989
 10
213.95702122158377
 20
220.79908407300763
 10
213.5301386283056
 20
220.1541609407078
 10
213.11679371596406
 20
219.50033829829937
 10
212.71716900603639
 20
218.83790485545535
 10
212.3314409615445
 20
218.1671531241358
 10
211.95977990913423
 20
217.48837928942288
 10
211.6023499638636
 20
216.80188307873374
 10
211.25930895673434
 20
216.1079676294693
 10
210.93080836499826
 20
215.4069393551575
 10
210.616993245269
 20
214.6991078101495
 10
210.31800216946914
 20
213.98478555292934
 10
210.03396716364085
 20
213.2642880080968
 10
209.76501364964676
 20
212.5379333270848
 10
209.5112603897873
 20
211.8060422476728
 10
209.2728194343586
 20
211.06893795235789
 10
209.0497960721742
 20
210.32694592564653
 10
208.84228878407242
 20
209.58039381032978
 10
208.65038919943018
 20
208.8296112628055
 10
208.47418205570182
 20
208.07492980751127
 10
208.3137451610016
 20
207.31668269053262
 10
208.16914935974575
 20
206.55520473245082
 10
208.04045850136953
 20
205.79083218049573
 10
207.9277294121332
 20
205.02390256006828
 10
207.83101187002916
 20
204.25475452569896
 10
207.75034858280128
 20
203.48372771150733
 10
207.6857751690864
 20
202.71116258122922
 10
207.63732014268624
 20
201.9374002778776
 10
207.60500489997636
 20
201.1627824731033
 10
207.58884371045826
 20
200.38765121632252
 10
207.58884371045826
 20
199.61234878367748
 10
207.60500489997636
 20
198.83721752689672
 10
207.63732014268624
 20
198.0625997221224
 10
207.6857751690864
 20
197.28883741877078
 10
207.75034858280128
 20
196.51627228849267
 10
207.83101187002916
 20
195.74524547430104
 10
207.9277294121332
 20
194.97609743993172
 10
208.04045850136953
 20
194.2091678195043
 10
208.16914935974575
 20
193.44479526754918
 10
208.3137451610016
 20
192.6833173094674
 10
208.47418205570182
 20
191.92507019248873
 10
208.65038919943018
 20
191.1703887371945
 10
208.84228878407242
 20
190.41960618967022
 10
209.0497960721742
 20
189.6730540743535
 10
209.2728194343586
 20
188.93106204764211
 10
209.5112603897873
 20
188.1939577523272
 10
209.76501364964676
 20
187.4620666729152
 10
210.03396716364085
 20
186.7357119919032
 10
210.31800216946914
 20
186.01521444707063
 10
210.61699324526901
 20
185.30089218985046
 10
210.93080836499826
 20
184.5930606448425
 10
211.25930895673434
 20
183.8920323705307
 10
211.60234996386356
 20
183.1981169212663
 10
211.95977990913423
 20
182.51162071057712
 10
212.3314409615445
 20
181.8328468758642
 10
212.71716900603639
 20
181.16209514454465
 10
213.1167937159641
 20
180.49966170170063
 10
213.5301386283056
 20
179.8458390592922
 10
213.95702122158377
 20
179.2009159269924
 10
214.39725299646264
 20
178.5651770847011
 10
214.85063955898346
 20
177.9389032567943
 10
215.31698070640357
 20
177.32237098816412
 10
215.79607051560032
 20
176.71585252210423
 10
216.28769743400088
 20
176.11961568009505
 10
216.79164437299795
 20
175.53392374354132
 10
217.30768880380995
 20
174.95903533751428
 10
217.8356028557435
 20
174.39520431655026
 10
218.3751534168146
 20
173.84267965255563
 10
218.92610223668456
 20
173.3017053248678
 10
219.48820603186425
 20
172.77252021252085
 10
220.06121659314164
 20
172.2553579887632
 10
220.64488089518375
 20
171.75044701787417
 10
221.23894120826566
 20
171.25801025432466
 10
221.84313521207653
 20
170.7782651443268
 10
222.45719611155312
 20
170.3114235298158
 10
223.08085275468866
 20
169.85769155490652
 10
223.71382975226624
 20
169.41726957486594
 10
224.35584759946275
 20
168.9903520676421
 10
225.00662279927042
 20
168.577127547988
 10
225.66586798768103
 20
168.17777848421872
 10
226.33329206057795
 20
167.79248121763874
 10
227.0086003022793
 20
167.42140588467436
 10
227.69149451567625
 20
167.06471634174645
 10
228.38167315390848
 20
166.72257009291593
 10
229.07883145351857
 20
166.39511822033455
 10
229.7826615690273
 20
166.082505317531
 10
230.4928527088693
 20
165.78486942556276
 10
231.20909127262982
 20
165.50234197206098
 10
231.93106098952214
 20
165.23504771319563
 10
232.65844305804347
 20
164.98310467858676
 10
233.39091628674907
 20
164.746624119186
 10
234.12815723608108
 20
164.52571045815117
 10
234.86984036119043
 20
164.320461244736
 10
235.61563815568832
 20
164.13096711121514
 10
236.36522129626377
 20
163.9573117328635
 10
237.1182587881035
 20
163.79957179100754
 10
237.87441811105003
 20
163.657816939165
 10
238.63336536643308
 20
163.53210977228792
 10
239.3947654245099
 20
163.4225057991224
 10
240.1582820724491
 20
163.32905341769748
 10
240.92357816279292
 20
163.25179389395404
 10
241.69031576233175
 20
163.1907613435228
 10
242.4581563013262
 20
163.1459827166599
 10
243.22676072300985
 20
163.11747778634637
 10
243.99578963330717
 20
163.10525913955703
 10
244.7649034507004
 20
163.1093321717023
 10
245.53376255617925
 20
163.12969508424587
 10
246.302027443207
 20
163.1663388854988
 10
247.06935886763708
 20
163.21924739458998
 10
247.8354179975137
 20
163.2883972486113
 10
248.59986656269058
 20
163.3737579129338
 10
249.36236700420142
 20
163.47529169469118
 10
250.12258262331653
 20
163.59295375942366
 10
250.88017773021946
 20
163.7266921508758
 10
251.63481779223812
 20
163.8764478139388
 10
252.38616958156518
 20
164.04215462072767
 10
253.13390132240187
 20
164.22373939978138
 10
253.8776828374609
 20
164.4211219683733
 10
254.6171856937636
 20
164.6342151679177
 10
255.3520833476664
 20
164.86292490245646
 10
256.0820512890536
 20
165.10715018020926
 10
256.80676718463167
 20
165.36678315816866
 10
257.5259110202628
 20
165.64170918972056
 10
258.2391652422738
 20
165.93180687526893
 10
258.9462148976793
 20
166.23694811584238
 10
259.6467477732555
 20
166.55699816965918
 10
260.3404545334056
 20
166.89181571162533
 10
261.02702885675274
 20
167.2412528957398
 10
261.70616757140374
 20
167.60515542037913
 10
262.3775707888207
 20
167.98336259643273
 10
263.04094203624356
 20
168.3757074182586
 10
263.6959883876042
 20
168.78201663742843
 10
264.342420592874
 20
169.20211083922905
 10
264.9799532057891
 20
169.63580452188708
 10
265.60830470989487
 20
170.0829061784813
 10
266.2271976428558
 20
170.5432183815065
 10
266.83635871897536
 20
171.0165378700522
 10
267.4355189498709
 20
171.5026556395567
 10
268.0244137632515
 20
172.0013570340978
 10
268.6027831197456
 20
172.51242184117868
 10
269.17037162772715
 20
173.03562438896756
 10
269.72692865608934
 20
173.57073364594814
 10
270.27220844491615
 20
174.11751332293645
 10
270.805970214003
 20
174.6757219774196
 10
271.32797826917874
 20
175.24511312017
 10
271.83800210638134
 20
175.82543532408803
 10
272.33581651344207
 20
176.41643233522515
 10
272.82120166953274
 20
177.01784318593855
 10
273.2939432422327
 20
177.6294023101269
 10
273.75383248217145
 20
178.25083966049706
 10
274.20066631520723
 20
178.88188082780928
 10
274.6342474320982
 20
179.52224716204864
 10
275.05438437562896
 20
180.17165589546897
 10
275.46089162515256
 20
180.82982026745518
 10
275.8535896785113
 20
181.4964496511487
 10
276.23230513129965
 20
182.17124968178007
 10
276.5968707534349
 20
182.85392238665216
 10
276.94712556300146
 20
183.54416631671654
 10
277.28291489733533
 20
184.24167667968482
 10
277.6040904813193
 20
184.94614547461637
 10
277.91051049285704
 20
185.6572616279231
 10
278.2020396254975
 20
186.37471113073036
 10
278.4785491481826
 20
187.09817717753478
 10
278.7399169620911
 20
187.82734030609643
 10
278.9860276545543
 20
188.56187853850457
 10
279.2167725500186
 20
189.30146752335384
 10
279.43204975803405
 20
190.0457806789688
 10
279.63176421824573
 20
190.79448933761324
 10
279.8158277423703
 20
191.54726289062046
 10
279.984159053137
 20
192.30376893438094
 10
280.13668382017784
 20
193.06367341712226
 10
280.27333469284935
 20
193.826640786417
 10
280.3940513299731
 20
194.5923341373533
 10
280.4987804264804
 20
195.36041536130256
 10
280.5874757369505
 20
196.13054529521855
 10
280.6600980960312
 20
196.90238387140266
 10
280.7166154357331
 20
197.67559026766767
 10
280.75700279959
 20
198.4498230578357
 10
280.78124235367903
 20
199.2247403625021
 10
280.7893233944954
 20
200.0
  0
LWPOLYLINE
  5
98
330
17
100
AcDbEntity
  8
Layer
100
AcDbPolyline
 90
5
 70
1
 10
112.53822398237267
 20
205.00000000000003
 10
117.53822398237267
 20
200.00000000000003
 10
112.53822398237267
 20
195.00000000000003
 10
107.53822398237267
 20
200.00000000000003
 10
112.53822398237267
 20
205.00000000000003
  0
LWPOLYLINE
  5
99
330
17
100
AcDbEntity
  8
Layer
100
AcDbPolyline
 90
5
 70
1
 10
242.58133507782682
 20
205.0
 10
247.58133507782682
 20
200.0
 10
242.58133507782682
 20
195.0
 10
237.58133507782682
 20
200.0
 10
242.58133507782682
 20
205.0
  0
LWPOLYLINE
  5
9A
330
17
100
AcDbEntity
  8
Layer
100
AcDbPolyline
 90
5
 70
1
 10
136.89252041122154
 20
182.89439396499196
 10
141.57887594612015
 20
177.59929511789525
 10
136.28377709902344
 20
172.91293958299664
 10
131.59742156412483
 20
178.20803843009335
 10
136.89252041122154
 20
182.89439396499196
  0
LWPOLYLINE
  5
9B
330
17
100
AcDbEntity
  8
Layer
100
AcDbPolyline
 90
5
 70
1
 10
286.76815098445235
 20
173.7538635090801
 10
291.454506519351
 20
168.4587646619834
 10
286.1594076722543
 20
163.77240912708479
 10
281.47305213735564
 20
169.0675079741815
 10
286.76815098445235
 20
173.7538635090801
  0
LWPOLYLINE
  5
9C
330
17
100
AcDbEntity
  8
Layer
100
AcDbPolyline
 90
5
 70
1
 10
159.18807339449543
 20
189.35716148038563
 10
164.18807339449543
 20
194.35716148038563
 10
169.18807339449543
 20
189.35716148038563
 10
164.18807339449543
 20
184.35716148038563
 10
159.18807339449543
 20
189.35716148038563
  0
LWPOLYLINE
  5
9D
330
17
100
AcDbEntity
  8
Layer
100
AcDbPolyline
 90
5
 70
1
 10
159.18807339449543
 20
209.8916877213672
 10
164.18807339449543
 20
214.8916877213672
 10
169.18807339449543
 20
209.8916877213672
 10
164.18807339449543
 20
204.8916877213672
 10
159.18807339449543
 20
209.8916877213672
  0
LINE
  5
9E
330
17
100
AcDbEntity
  8
Layer
 62
7
100
AcDbLine
 10
19.342816585403227
 20
200.00000000000003
 30
0.0
 11
318.1422018348624
 21
200.0
 31
0.0
  0
LINE
  5
9F
330
17
100
AcDbEntity
  8
Layer
 62
7
100
AcDbLine
 10
106.53822398237267
 20
200.00000000000003
 30
0.0
 11
118.53822398237267
 21
200.00000000000003
 31
0.0
  0
LINE
  5
A0
330
17
100
AcDbEntity
  8
Layer
 62
7
100
AcDbLine
 10
236.58133507782682
 20
200.0
 30
0.0
 11
248.58133507782682
 21
200.0
 31
0.0
  0
LINE
  5
A1
330
17
100
AcDbEntity
  8
Layer
 62
7
100
AcDbLine
 10
10.199698948240808
 20
185.61177429165255
 30
0.0
 11
318.1422018348624
 21
166.83115054688992
 31
0.0
  0
LINE
  5
A2
330
17
100
AcDbEntity
  8
Layer
 62
7
100
AcDbLine
 10
130.5992761259253
 20
178.26891276131317
 30
0.0
 11
142.5770213843197
 21
177.5384207866755
 31
0.0
  0
LINE
  5
A3
330
17
100
AcDbEntity
  8
Layer
 62
7
100
AcDbLine
 10
280.47490669915607
 20
169.12838230540132
 30
0.0
 11
292.45265195755053
 21
168.39789033076363
 31
0.0
  0
LINE
  5
A4
330
17
100
AcDbEntity
  8
Layer
100
AcDbLine
 10
244.18807339449543
 20
236.89524999999998
 30
0.0
 11
244.18807339449543
 21
237.89524999999998
 31
0.0
  0
LINE
  5
A5
330
17
100
AcDbEntity
  8
Layer
100
AcDbLine
 10
244.18807339449543
 20
163.10475000000002
 30
0.0
 11
244.18807339449543
 21
162.10475000000002
 31
0.0
  0
LINE
  5
A6
330
17
100
AcDbEntity
  8
Layer
100
AcDbLine
 10
280.7893233944954
 20
200.0
 30
0.0
 11
281.7893233944954
 21
200.0
 31
0.0
  0
LINE
  5
A7
330
17
100
AcDbEntity
  8
Layer
100
AcDbLine
 10
207.58682339449547
 20
200.0
 30
0.0
 11
206.58682339449547
 21
200.0
 31
0.0
  0
LINE
  5
A8
330
17
100
AcDbEntity
  8
Layer
 62
7
100
AcDbLine
 10
164.18807339449543
 20
158.9002141992405
 30
0.0
 11
164.18807339449543
 21
240.3486350025123
 31
0.0
  0
LINE
  5
A9
330
17
100
AcDbEntity
  8
Layer
 62
7
100
AcDbLine
 10
164.18807339449543
 20
183.35716148038563
 30
0.0
 11
164.18807339449543
 21
195.35716148038563
 31
0.0
  0
LINE
  5
AA
330
17
100
AcDbEntity
  8
Layer
 62
7
100
AcDbLine
 10
164.18807339449543
 20
203.8916877213672
 30
0.0
 11
164.18807339449543
 21
215.8916877213672
 31
0.0
  0
ENDSEC
  0
SECTION
  2
OBJECTS
  0
DICTIONARY
  5
A
330
0
100
AcDbDictionary
280
0
281
1
  3
ACAD_COLOR
350
B
  3
ACAD_GROUP
350
C
  3
ACAD_LAYOUT
350
D
  3
ACAD_MATERIAL
350
E
  3
ACAD_MLEADERSTYLE
350
F
  3
ACAD_MLINESTYLE
350
10
  3
ACAD_PLOTSETTINGS
350
11
  3
ACAD_PLOTSTYLENAME
350
12
  3
ACAD_SCALELIST
350
14
  3
ACAD_TABLESTYLE
350
15
  3
ACAD_VISUALSTYLE
350
16
  3
EZDXF_META
350
2D
  0
DICTIONARY
  5
B
330
A
100
AcDbDictionary
280
0
281
1
  0
DICTIONARY
  5
C
330
A
100
AcDbDictionary
280
0
281
1
  0
DICTIONARY
  5
D
330
A
100
AcDbDictionary
280
0
281
1
  3
Model
350
1A
  3
Layout1
350
1E
  0
DICTIONARY
  5
E
330
A
100
AcDbDictionary
280
0
281
1
  3
ByBlock
350
1F
  3
ByLayer
350
20
  3
Global
350
21
  0
DICTIONARY
  5
F
330
A
100
AcDbDictionary
280
0
281
1
  3
Standard
350
2C
  0
DICTIONARY
  5
10
330
A
100
AcDbDictionary
280
0
281
1
  3
Standard
350
22
  0
DICTIONARY
  5
11
330
A
100
AcDbDictionary
280
0
281
1
  0
ACDBDICTIONARYWDFLT
  5
12
330
A
100
AcDbDictionary
280
0
281
1
  3
Normal
350
13
100
AcDbDictionaryWithDefault
340
13
  0
ACDBPLACEHOLDER
  5
13
330
12
  0
DICTIONARY
  5
14
330
A
100
AcDbDictionary
280
0
281
1
  0
DICTIONARY
  5
15
330
A
100
AcDbDictionary
280
0
281
1
  0
DICTIONARY
  5
16
330
A
100
AcDbDictionary
280
0
281
1
  3
2dWireframe
350
5A
  3
Basic
350
5B
  3
Brighten
350
5C
  3
ColorChange
350
5D
  3
Conceptual
350
5E
  3
Dim
350
5F
  3
EdgeColorOff
350
60
  3
Facepattern
350
61
  3
Flat
350
62
  3
FlatWithEdges
350
63
  3
Gouraud
350
64
  3
GouraudWithEdges
350
65
  3
Hidden
350
66
  3
JitterOff
350
67
  3
Linepattern
350
68
  3
Modeling
350
69
  3
OverhangOff
350
6A
  3
Realistic
350
6B
  3
Shaded
350
6C
  3
Shaded with edges
350
6D
  3
Shades of Gray
350
6E
  3
Sketchy
350
6F
  3
Thicken
350
70
  3
Wireframe
350
71
  3
X-Ray
350
72
  0
LAYOUT
  5
1A
330
D
100
AcDbPlotSettings
  1

  2
Adobe PDF
  4
A3
  6

 40
7.5
 41
20.0
 42
7.5
 43
20.0
 44
420.0
 45
297.0
 46
0.0
 47
0.0
 48
0.0
 49
0.0
140
0.0
141
0.0
142
1.0
143
1.0
 70
1024
 72
1
 73
0
 74
5
  7

 75
16
 76
0
 77
2
 78
300
147
1.0
148
0.0
149
0.0
100
AcDbLayout
  1
Model
 70
1
 71
0
 10
0.0
 20
0.0
 11
420.0
 21
297.0
 12
0.0
 22
0.0
 32
0.0
 14
1e+20
 24
1e+20
 34
1e+20
 15
-1e+20
 25
-1e+20
 35
-1e+20
146
0.0
 13
0.0
 23
0.0
 33
0.0
 16
1.0
 26
0.0
 36
0.0
 17
0.0
 27
1.0
 37
0.0
 76
1
330
17
  0
LAYOUT
  5
1E
330
D
100
AcDbPlotSettings
  1

  2
Adobe PDF
  4
A3
  6

 40
7.5
 41
20.0
 42
7.5
 43
20.0
 44
420.0
 45
297.0
 46
0.0
 47
0.0
 48
0.0
 49
0.0
140
0.0
141
0.0
142
1.0
143
1.0
 70
0
 72
1
 73
0
 74
5
  7

 75
16
 76
0
 77
2
 78
300
147
1.0
148
0.0
149
0.0
100
AcDbLayout
  1
Layout1
 70
1
 71
1
 10
0.0
 20
0.0
 11
420.0
 21
297.0
 12
0.0
 22
0.0
 32
0.0
 14
1e+20
 24
1e+20
 34
1e+20
 15
-1e+20
 25
-1e+20
 35
-1e+20
146
0.0
 13
0.0
 23
0.0
 33
0.0
 16
1.0
 26
0.0
 36
0.0
 17
0.0
 27
1.0
 37
0.0
 76
1
330
1B
  0
MATERIAL
  5
1F
102
{ACAD_REACTORS
330
E
102
}
330
E
100
AcDbMaterial
  1
ByBlock
  2

 70
0
 40
1.0
 71
1
 41
1.0
 91
-1023410177
 42
1.0
 72
1
  3

 73
1
 74
1
 75
1
 44
0.5
 73
0
 45
1.0
 46
1.0
 77
1
  4

 78
1
 79
1
170
1
 48
1.0
171
1
  6

172
1
173
1
174
1
140
1.0
141
1.0
175
1
  7

176
1
177
1
178
1
143
1.0
179
1
  8

270
1
271
1
272
1
145
1.0
146
1.0
273
1
  9

274
1
275
1
276
1
 42
1.0
 72
1
  3

 73
1
 74
1
 75
1
 94
63
  0
MATERIAL
  5
20
102
{ACAD_REACTORS
330
E
102
}
330
E
100
AcDbMaterial
  1
ByLayer
  2

 70
0
 40
1.0
 71
1
 41
1.0
 91
-1023410177
 42
1.0
 72
1
  3

 73
1
 74
1
 75
1
 44
0.5
 73
0
 45
1.0
 46
1.0
 77
1
  4

 78
1
 79
1
170
1
 48
1.0
171
1
  6

172
1
173
1
174
1
140
1.0
141
1.0
175
1
  7

176
1
177
1
178
1
143
1.0
179
1
  8

270
1
271
1
272
1
145
1.0
146
1.0
273
1
  9

274
1
275
1
276
1
 42
1.0
 72
1
  3

 73
1
 74
1
 75
1
 94
63
  0
MATERIAL
  5
21
102
{ACAD_REACTORS
330
E
102
}
330
E
100
AcDbMaterial
  1
Global
  2

 70
0
 40
1.0
 71
1
 41
1.0
 91
-1023410177
 42
1.0
 72
1
  3

 73
1
 74
1
 75
1
 44
0.5
 73
0
 45
1.0
 46
1.0
 77
1
  4

 78
1
 79
1
170
1
 48
1.0
171
1
  6

172
1
173
1
174
1
140
1.0
141
1.0
175
1
  7

176
1
177
1
178
1
143
1.0
179
1
  8

270
1
271
1
272
1
145
1.0
146
1.0
273
1
  9

274
1
275
1
276
1
 42
1.0
 72
1
  3

 73
1
 74
1
 75
1
 94
63
  0
MLINESTYLE
  5
22
102
{ACAD_REACTORS
330
10
102
}
330
10
100
AcDbMlineStyle
  2
Standard
 70
0
  3

 62
256
 51
90.0
 52
90.0
 71
2
 49
0.5
 62
256
  6
BYLAYER
 49
-0.5
 62
256
  6
BYLAYER
  0
MLEADERSTYLE
  5
2C
102
{ACAD_REACTORS
330
F
102
}
330
F
100
AcDbMLeaderStyle
179
2
170
2
171
1
172
0
 90
2
 40
0.0
 41
0.0
173
1
 91
-1056964608
 92
-2
290
1
 42
2.0
291
1
 43
8.0
  3
Standard
 44
4.0
300

342
29
174
1
175
1
176
0
178
1
 93
-1056964608
 45
4.0
292
0
297
0
 46
4.0
 94
-1056964608
 47
1.0
 49
1.0
140
1.0
294
1
141
0.0
177
0
142
1.0
295
0
296
0
143
3.75
271
0
272
9
273
9
  0
DICTIONARY
  5
2D
330
A
100
AcDbDictionary
281
1
  3
CREATED_BY_EZDXF
350
2E
  3
WRITTEN_BY_EZDXF
350
AD
  0
DICTIONARYVAR
  5
2E
330
2D
100
DictionaryVariables
280
0
  1
1.3.0 @ 2026-01-06T17:07:21.769989+00:00
  0
VISUALSTYLE
  5
5A
102
{ACAD_REACTORS
330
16
102
}
330
16
100
AcDbVisualStyle
  2
2dWireframe
 70
4
 90
0
 40
0.6
 62
7
290
0
291
0
  0
VISUALSTYLE
  5
5B
102
{ACAD_REACTORS
330
16
102
}
330
16
100
AcDbVisualStyle
  2
Basic
 70
7
 90
1
 40
0.6
 62
7
290
0
291
1
  0
VISUALSTYLE
  5
5C
102
{ACAD_REACTORS
330
16
102
}
330
16
100
AcDbVisualStyle
  2
Brighten
 70
12
 90
2
 40
0.6
 62
7
290
0
291
1
  0
VISUALSTYLE
  5
5D
102
{ACAD_REACTORS
330
16
102
}
330
16
100
AcDbVisualStyle
  2
ColorChange
 70
16
 90
2
 40
0.6
 62
8
290
0
291
1
  0
VISUALSTYLE
  5
5E
102
{ACAD_REACTORS
330
16
102
}
330
16
100
AcDbVisualStyle
  2
Conceptual
 70
9
 90
3
 40
0.6
 62
7
290
0
291
0
  0
VISUALSTYLE
  5
5F
102
{ACAD_REACTORS
330
16
102
}
330
16
100
AcDbVisualStyle
  2
Dim
 70
11
 90
2
 40
0.6
 62
7
290
0
291
1
  0
VISUALSTYLE
  5
60
102
{ACAD_REACTORS
330
16
102
}
330
16
100
AcDbVisualStyle
  2
EdgeColorOff
 70
22
 90
2
 40
0.6
 62
7
290
0
291
1
  0
VISUALSTYLE
  5
61
102
{ACAD_REACTORS
330
16
102
}
330
16
100
AcDbVisualStyle
  2
Facepattern
 70
15
 90
2
 40
0.6
 62
7
290
0
291
1
  0
VISUALSTYLE
  5
62
102
{ACAD_REACTORS
330
16
102
}
330
16
100
AcDbVisualStyle
  2
Flat
 70
0
 90
2
 40
0.6
 62
7
290
0
291
1
  0
VISUALSTYLE
  5
63
102
{ACAD_REACTORS
330
16
102
}
330
16
100
AcDbVisualStyle
  2
FlatWithEdges
 70
1
 90
2
 40
0.6
 62
7
290
0
291
1
  0
VISUALSTYLE
  5
64
102
{ACAD_REACTORS
330
16
102
}
330
16
100
AcDbVisualStyle
  2
Gouraud
 70
2
 90
2
 40
0.6
 62
7
290
0
291
1
  0
VISUALSTYLE
  5
65
102
{ACAD_REACTORS
330
16
102
}
330
16
100
AcDbVisualStyle
  2
GouraudWithEdges
 70
3
 90
2
 40
0.6
 62
7
290
0
291
1
  0
VISUALSTYLE
  5
66
102
{ACAD_REACTORS
330
16
102
}
330
16
100
AcDbVisualStyle
  2
Hidden
 70
6
 90
1
 40
0.6
 62
7
290
0
291
0
  0
VISUALSTYLE
  5
67
102
{ACAD_REACTORS
330
16
102
}
330
16
100
AcDbVisualStyle
  2
JitterOff
 70
20
 90
2
 40
0.6
 62
7
290
0
291
1
  0
VISUALSTYLE
  5
68
102
{ACAD_REACTORS
330
16
102
}
330
16
100
AcDbVisualStyle
  2
Linepattern
 70
14
 90
2
 40
0.6
 62
7
290
0
291
1
  0
VISUALSTYLE
  5
69
102
{ACAD_REACTORS
330
16
102
}
330
16
100
AcDbVisualStyle
  2
Modeling
 70
10
 90
2
 40
0.6
 62
7
290
0
291
0
  0
VISUALSTYLE
  5
6A
102
{ACAD_REACTORS
330
16
102
}
330
16
100
AcDbVisualStyle
  2
OverhangOff
 70
21
 90
2
 40
0.6
 62
7
290
0
291
1
  0
VISUALSTYLE
  5
6B
102
{ACAD_REACTORS
330
16
102
}
330
16
100
AcDbVisualStyle
  2
Realistic
 70
8
 90
2
 40
0.6
 62
7
290
0
291
0
  0
VISUALSTYLE
  5
6C
102
{ACAD_REACTORS
330
16
102
}
330
16
100
AcDbVisualStyle
  2
Shaded
 70
27
 90
2
 40
0.6
 62
7
290
0
291
0
  0
VISUALSTYLE
  5
6D
102
{ACAD_REACTORS
330
16
102
}
330
16
100
AcDbVisualStyle
  2
Shaded with edges
 70
26
 90
2
 40
0.6
 62
7
290
0
291
0
  0
VISUALSTYLE
  5
6E
102
{ACAD_REACTORS
330
16
102
}
330
16
100
AcDbVisualStyle
  2
Shades of Gray
 70
23
 90
2
 40
0.6
 62
7
290
0
291
0
  0
VISUALSTYLE
  5
6F
102
{ACAD_REACTORS
330
16
102
}
330
16
100
AcDbVisualStyle
  2
Sketchy
 70
24
 90
1
 40
0.6
 62
7
290
0
291
0
  0
VISUALSTYLE
  5
70
102
{ACAD_REACTORS
330
16
102
}
330
16
100
AcDbVisualStyle
  2
Thicken
 70
13
 90
2
 40
0.6
 62
7
290
0
291
1
  0
VISUALSTYLE
  5
71
102
{ACAD_REACTORS
330
16
102
}
330
16
100
AcDbVisualStyle
  2
Wireframe
 70
5
 90
0
 40
0.6
 62
7
290
0
291
0
  0
VISUALSTYLE
  5
72
102
{ACAD_REACTORS
330
16
102
}
330
16
100
AcDbVisualStyle
  2
X-Ray
 70
25
 90
2
 40
0.5
 62
7
290
0
291
0
  0
DICTIONARYVAR
  5
AD
330
2D
100
DictionaryVariables
280
0
  1
1.3.0 @ 2026-01-06T17:07:21.789148+00:00
  0
ENDSEC
  0
EOF
