<?xml version="1.0" encoding="utf-8" standalone="no"?>
<!DOCTYPE svg PUBLIC "-//W3C//DTD SVG 1.1//EN"
  "http://www.w3.org/Graphics/SVG/1.1/DTD/svg11.dtd">
<svg xmlns:xlink="http://www.w3.org/1999/xlink" width="1152pt" height="214.027025pt" viewBox="0 0 1152 214.027025" xmlns="http://www.w3.org/2000/svg" version="1.1">
 <metadata>
  <rdf:RDF xmlns:dc="http://purl.org/dc/elements/1.1/" xmlns:cc="http://creativecommons.org/ns#" xmlns:rdf="http://www.w3.org/1999/02/22-rdf-syntax-ns#">
   <cc:Work>
    <dc:type rdf:resource="http://purl.org/dc/dcmitype/StillImage"/>
    <dc:date>2026-01-07T02:07:18.192501</dc:date>
    <dc:format>image/svg+xml</dc:format>
    <dc:creator>
     <cc:Agent>
      <dc:title>Matplotlib v3.10.1, https://matplotlib.org/</dc:title>
     </cc:Agent>
    </dc:creator>
   </cc:Work>
  </rdf:RDF>
 </metadata>
 <defs>
  <style type="text/css">*{stroke-linejoin: round; stroke-linecap: butt}</style>
 </defs>
 <g id="figure_1">
  <g id="patch_1">
   <path d="M 0 214.027025 
L 1152 214.027025 
L 1152 0 
L 0 0 
z
" style="fill: #ffffff"/>
  </g>
  <g id="axes_1">
   <g id="patch_2">
    <path d="M 0 214.027025 
L 1152 214.027025 
L 1152 0 
L 0 0 
z
" style="fill: #212830"/>
   </g>
   <g id="patch_3">
    <path d="M 1099.636364 112.497114 
L 1084.701207 107.529636 
L 1056.586668 98.422794 
L 1028.703803 89.740973 
L 1000.985549 81.502989 
L 973.366144 73.708624 
L 945.794354 66.364349 
L 918.226427 59.464455 
L 904.437356 56.183345 
L 876.82522 49.955405 
L 863.002655 47.007855 
L 849.167772 44.173038 
L 835.317251 41.450566 
L 821.449719 38.839106 
L 807.568421 36.338636 
L 793.674183 33.951003 
L 779.764293 31.676546 
L 765.838578 29.513746 
L 751.900482 27.463133 
L 737.950256 25.52681 
L 723.981425 23.705842 
L 709.987608 21.997299 
L 681.939759 18.908508 
L 667.893732 17.530591 
L 639.757319 15.106003 
L 611.607658 13.118854 
L 597.538569 12.294595 
L 569.428783 10.981444 
L 555.404386 10.495663 
L 541.402467 10.127906 
L 527.423924 9.877108 
L 513.47733 9.742936 
L 499.570133 9.728501 
L 485.703499 9.837269 
L 471.877793 10.069126 
L 458.101781 10.42344 
L 444.384606 10.903128 
L 430.727685 11.512404 
L 417.133208 12.251268 
L 403.610926 13.118959 
L 390.171687 14.118775 
L 376.817678 15.255175 
L 363.553431 16.527277 
L 350.392449 17.934485 
L 337.345142 19.481121 
L 324.41533 21.170226 
L 311.612774 22.999581 
L 298.953791 24.969505 
L 286.448786 27.083256 
L 274.106734 29.338493 
L 261.953412 31.725943 
L 250.019631 34.24417 
L 238.323935 36.89475 
L 226.887074 39.668138 
L 215.746481 42.55072 
L 204.935406 45.537773 
L 194.476899 48.620131 
L 184.402926 51.77545 
L 174.752677 54.983892 
L 165.552404 58.233261 
L 156.819423 61.502116 
L 148.574035 64.763165 
L 140.829791 67.998716 
L 133.584093 71.19623 
L 126.826854 74.33751 
L 120.546906 77.406167 
L 114.726809 80.396454 
L 109.340296 83.308288 
L 99.749297 88.883042 
L 91.557974 94.120951 
L 84.557575 99.062906 
L 78.567783 103.735113 
L 73.451482 108.188515 
L 69.05053 112.476153 
L 65.227405 116.563637 
L 61.949959 120.410533 
L 59.238839 124.081635 
L 57.055445 127.685396 
L 55.311926 131.231144 
L 53.962992 134.646991 
L 53.022453 137.903443 
L 52.499162 141.037354 
L 52.363636 144.09608 
L 52.621039 147.161725 
L 52.922634 148.675689 
L 53.360809 150.177097 
L 53.950642 151.670861 
L 54.698473 153.157645 
L 55.600176 154.632536 
L 56.645433 156.086187 
L 57.827106 157.509749 
L 59.144457 158.896377 
L 60.604137 160.243313 
L 62.212961 161.550723 
L 63.975289 162.821705 
L 67.95305 165.270066 
L 72.531552 167.611513 
L 77.773705 169.852739 
L 83.800167 172.018014 
L 90.743368 174.159889 
L 98.776887 176.316861 
L 108.162172 178.505677 
L 119.225805 180.748878 
L 132.354553 183.043758 
L 147.967088 185.370513 
L 166.371191 187.680561 
L 187.656037 189.890058 
L 199.307819 190.930232 
L 224.362789 192.828157 
L 251.289752 194.453161 
L 279.617297 195.7948 
L 309.035649 196.871766 
L 325.682822 197.400053 
L 325.598761 200.156617 
L 354.405998 200.995096 
L 385.057517 201.656202 
L 463.256072 202.943845 
L 510.470406 203.448997 
L 605.009679 204.298524 
L 1099.636364 112.497114 
L 1099.636364 112.497114 
" clip-path="url(#p57e5b5c1f2)" style="fill: none; stroke: #ff0000; stroke-width: 0.72; stroke-linejoin: miter"/>
   </g>
   <g id="patch_4">
    <path d="M 964.273313 78.868339 
L 957.174006 76.948732 
L 959.093612 69.849425 
L 966.19292 71.769031 
L 964.273313 78.868339 
" clip-path="url(#p57e5b5c1f2)" style="fill: none; stroke: #ff0000; stroke-width: 0.72; stroke-linejoin: miter"/>
   </g>
   <g id="patch_5">
    <path d="M 439.935154 18.463247 
L 432.58821 18.791086 
L 432.260371 11.444142 
L 439.607315 11.116303 
L 439.935154 18.463247 
" clip-path="url(#p57e5b5c1f2)" style="fill: none; stroke: #ff0000; stroke-width: 0.72; stroke-linejoin: miter"/>
   </g>
   <g id="patch_6">
    <path d="M 202.100915 54.04036 
L 195.046729 56.119665 
L 192.967423 49.065479 
L 200.021609 46.986173 
L 202.100915 54.04036 
" clip-path="url(#p57e5b5c1f2)" style="fill: none; stroke: #ff0000; stroke-width: 0.72; stroke-linejoin: miter"/>
   </g>
   <g id="patch_7">
    <path d="M 82.376453 112.532239 
L 79.639828 114.988282 
L 73.499721 108.146719 
L 76.236346 105.690676 
L 82.376453 112.532239 
" clip-path="url(#p57e5b5c1f2)" style="fill: none; stroke: #ff0000; stroke-width: 0.72; stroke-linejoin: miter"/>
   </g>
   <g id="patch_8">
    <path d="M 67.653874 154.140392 
L 70.639718 156.286552 
L 65.27432 163.751161 
L 62.288476 161.605002 
L 67.653874 154.140392 
" clip-path="url(#p57e5b5c1f2)" style="fill: none; stroke: #ff0000; stroke-width: 0.72; stroke-linejoin: miter"/>
   </g>
   <g id="patch_9">
    <path d="M 252.689149 187.159972 
L 260.034127 187.529233 
L 259.664866 194.874211 
L 252.319887 194.50495 
L 252.689149 187.159972 
" clip-path="url(#p57e5b5c1f2)" style="fill: none; stroke: #ff0000; stroke-width: 0.72; stroke-linejoin: miter"/>
   </g>
   <g id="patch_10">
    <path d="M 654.341306 106.595052 
L 654.200235 101.844113 
L 653.777582 97.112049 
L 653.075025 92.41766 
L 652.095357 87.779599 
L 650.84247 83.21629 
L 649.321341 78.745865 
L 647.538014 74.386084 
L 645.499573 70.154269 
L 643.214118 66.067232 
L 640.690728 62.141211 
L 637.939429 58.391804 
L 634.971152 54.833907 
L 631.797689 51.481657 
L 628.431649 48.34837 
L 624.886405 45.446497 
L 621.176043 42.787565 
L 617.315302 40.382138 
L 613.319522 38.239774 
L 609.204579 36.368985 
L 604.98682 34.777201 
L 600.683002 33.470748 
L 596.310225 32.454817 
L 591.885862 31.733443 
L 587.427491 31.309492 
L 582.952823 31.184649 
L 578.479639 31.35941 
L 574.025708 31.83308 
L 569.608726 32.603778 
L 565.246243 33.668441 
L 560.95559 35.022841 
L 556.753813 36.661595 
L 552.657607 38.578193 
L 548.683245 40.76502 
L 544.846517 43.213388 
L 541.162668 45.913571 
L 537.646331 48.854839 
L 534.311479 52.025509 
L 531.17136 55.412981 
L 528.23845 59.003799 
L 525.5244 62.783696 
L 523.039995 66.737654 
L 520.795105 70.849965 
L 518.798647 75.10429 
L 517.058555 79.483727 
L 515.581742 83.970877 
L 514.374075 88.547912 
L 513.440351 93.196648 
L 512.784282 97.898616 
L 512.408472 102.635134 
L 512.314416 107.387385 
L 512.502487 112.136488 
L 512.971937 116.863576 
L 513.720903 121.549866 
L 514.746407 126.176741 
L 516.044376 130.725819 
L 517.609653 135.179026 
L 519.436019 139.518669 
L 521.516218 143.727508 
L 523.841986 147.78882 
L 526.404082 151.68647 
L 529.192326 155.404973 
L 532.195643 158.929556 
L 535.402098 162.246215 
L 538.798954 165.341772 
L 542.372714 168.203931 
L 546.109181 170.821319 
L 549.993508 173.183537 
L 554.010265 175.281201 
L 558.143491 177.105977 
L 562.376767 178.650614 
L 566.693274 179.908976 
L 571.075861 180.876064 
L 575.507117 181.548034 
L 579.969438 181.922219 
L 584.445093 181.99713 
L 588.916302 181.772471 
L 593.3653 181.249133 
L 597.774412 180.429197 
L 602.126121 179.315919 
L 606.403136 177.913722 
L 610.588467 176.228179 
L 614.665484 174.265985 
L 618.617989 172.034935 
L 622.43028 169.543895 
L 626.08721 166.80276 
L 629.57425 163.822421 
L 632.877546 160.614719 
L 635.983975 157.192399 
L 638.881195 153.569056 
L 641.557695 149.759087 
L 644.002841 145.777628 
L 646.20692 141.640497 
L 648.161173 137.364132 
L 649.857837 132.965522 
L 651.290172 128.462143 
L 652.452486 123.871886 
L 653.340162 119.212989 
L 653.949672 114.503961 
L 654.278596 109.763511 
L 654.341306 106.595052 
L 654.341306 106.595052 
" clip-path="url(#p57e5b5c1f2)" style="fill: none; stroke: #ff0000; stroke-width: 0.72; stroke-linejoin: miter"/>
   </g>
   <g id="line2d_1">
    <path d="M 75.22819 106.595052 
L 1081.842133 106.595052 
" clip-path="url(#p57e5b5c1f2)" style="fill: none; stroke: #ffffff; stroke-width: 0.72; stroke-linecap: square"/>
   </g>
   <g id="line2d_2">
    <path d="M 272.689995 106.595052 
L 294.752758 106.595052 
" clip-path="url(#p57e5b5c1f2)" style="fill: none; stroke: #ffffff; stroke-width: 0.72; stroke-linecap: square"/>
   </g>
   <g id="patch_11">
    <path d="M 283.721377 97.402234 
L 292.914195 106.595052 
L 283.721377 115.78787 
L 274.528559 106.595052 
L 283.721377 97.402234 
" clip-path="url(#p57e5b5c1f2)" style="fill: none; stroke: #ff0000; stroke-width: 0.72; stroke-linejoin: miter"/>
   </g>
   <g id="line2d_3">
    <path d="M 567.50378 106.595052 
L 589.566543 106.595052 
" clip-path="url(#p57e5b5c1f2)" style="fill: none; stroke: #ffffff; stroke-width: 0.72; stroke-linecap: square"/>
   </g>
   <g id="patch_12">
    <path d="M 578.535162 97.402234 
L 587.72798 106.595052 
L 578.535162 115.78787 
L 569.342344 106.595052 
L 578.535162 97.402234 
" clip-path="url(#p57e5b5c1f2)" style="fill: none; stroke: #ff0000; stroke-width: 0.72; stroke-linejoin: miter"/>
   </g>
   <g id="line2d_4">
    <path d="M 862.317565 106.595052 
L 884.380328 106.595052 
" clip-path="url(#p57e5b5c1f2)" style="fill: none; stroke: #ffffff; stroke-width: 0.72; stroke-linecap: square"/>
   </g>
   <g id="patch_13">
    <path d="M 873.348946 97.402234 
L 882.541764 106.595052 
L 873.348946 115.78787 
L 864.156128 106.595052 
L 873.348946 97.402234 
" clip-path="url(#p57e5b5c1f2)" style="fill: none; stroke: #ff0000; stroke-width: 0.72; stroke-linejoin: miter"/>
   </g>
   <g id="line2d_5">
    <path d="M 52.475507 141.368789 
L 714.617912 183.955524 
" clip-path="url(#p57e5b5c1f2)" style="fill: none; stroke: #ffffff; stroke-width: 0.72; stroke-linecap: square"/>
   </g>
   <g id="line2d_6">
    <path d="M 181.050965 149.638322 
L 203.068237 151.054398 
" clip-path="url(#p57e5b5c1f2)" style="fill: none; stroke: #ffffff; stroke-width: 0.72; stroke-linecap: square"/>
   </g>
   <g id="patch_14">
    <path d="M 192.649633 141.172497 
L 201.233464 150.936392 
L 191.46957 159.520223 
L 182.885738 149.756329 
L 192.649633 141.172497 
" clip-path="url(#p57e5b5c1f2)" style="fill: none; stroke: #ff0000; stroke-width: 0.72; stroke-linejoin: miter"/>
   </g>
   <g id="line2d_7">
    <path d="M 340.623556 159.901486 
L 362.640827 161.317562 
" clip-path="url(#p57e5b5c1f2)" style="fill: none; stroke: #ffffff; stroke-width: 0.72; stroke-linecap: square"/>
   </g>
   <g id="patch_15">
    <path d="M 352.222223 151.435661 
L 360.806055 161.199555 
L 351.04216 169.783387 
L 342.458328 160.019492 
L 352.222223 151.435661 
" clip-path="url(#p57e5b5c1f2)" style="fill: none; stroke: #ff0000; stroke-width: 0.72; stroke-linejoin: miter"/>
   </g>
   <g id="line2d_8">
    <path d="M 583.325901 31.183608 
L 583.325901 29.345045 
" clip-path="url(#p57e5b5c1f2)" style="fill: none; stroke: #ff0000; stroke-width: 0.72; stroke-linecap: square"/>
   </g>
   <g id="line2d_9">
    <path d="M 583.325901 182.006496 
L 583.325901 183.845059 
" clip-path="url(#p57e5b5c1f2)" style="fill: none; stroke: #ff0000; stroke-width: 0.72; stroke-linecap: square"/>
   </g>
   <g id="line2d_10">
    <path d="M 654.341306 106.595052 
L 656.17987 106.595052 
" clip-path="url(#p57e5b5c1f2)" style="fill: none; stroke: #ff0000; stroke-width: 0.72; stroke-linecap: square"/>
   </g>
   <g id="line2d_11">
    <path d="M 512.310496 106.595052 
L 510.471932 106.595052 
" clip-path="url(#p57e5b5c1f2)" style="fill: none; stroke: #ff0000; stroke-width: 0.72; stroke-linecap: square"/>
   </g>
   <g id="line2d_12">
    <path d="M 307.541362 196.820459 
L 307.541362 23.633153 
" clip-path="url(#p57e5b5c1f2)" style="fill: none; stroke: #ffffff; stroke-width: 0.72; stroke-linecap: square"/>
   </g>
   <g id="line2d_13">
    <path d="M 307.541362 143.651084 
L 307.541362 121.588321 
" clip-path="url(#p57e5b5c1f2)" style="fill: none; stroke: #ffffff; stroke-width: 0.72; stroke-linecap: square"/>
   </g>
   <g id="patch_16">
    <path d="M 298.348544 132.619703 
L 307.541362 123.426885 
L 316.73418 132.619703 
L 307.541362 141.812521 
L 298.348544 132.619703 
" clip-path="url(#p57e5b5c1f2)" style="fill: none; stroke: #ff0000; stroke-width: 0.72; stroke-linejoin: miter"/>
   </g>
   <g id="line2d_14">
    <path d="M 307.541362 98.86529 
L 307.541362 76.802527 
" clip-path="url(#p57e5b5c1f2)" style="fill: none; stroke: #ffffff; stroke-width: 0.72; stroke-linecap: square"/>
   </g>
   <g id="patch_17">
    <path d="M 298.348544 87.833909 
L 307.541362 78.641091 
L 316.73418 87.833909 
L 307.541362 97.026727 
L 298.348544 87.833909 
" clip-path="url(#p57e5b5c1f2)" style="fill: none; stroke: #ff0000; stroke-width: 0.72; stroke-linejoin: miter"/>
   </g>
   <g id="patch_18">
    <path d="M 443.775581 157.984576 
L 443.775581 167.177394 
L 452.968399 167.177394 
L 452.968399 157.984576 
L 452.968399 176.370212 
" clip-path="url(#p57e5b5c1f2)" style="fill: none; stroke: #ff0000; stroke-width: 0.72; stroke-linejoin: miter"/>
   </g>
   <g id="patch_19">
    <path d="M 461.241936 157.984576 
L 457.564808 157.984576 
L 457.564808 176.370212 
L 461.241936 176.370212 
" clip-path="url(#p57e5b5c1f2)" style="fill: none; stroke: #ff0000; stroke-width: 0.72; stroke-linejoin: miter"/>
   </g>
   <g id="patch_20">
    <path d="M 463.080499 176.370212 
L 466.757626 176.370212 
L 466.757626 157.984576 
L 463.080499 157.984576 
" clip-path="url(#p57e5b5c1f2)" style="fill: none; stroke: #ff0000; stroke-width: 0.72; stroke-linejoin: miter"/>
   </g>
   <g id="patch_21">
    <path d="M 457.564808 167.177394 
L 461.241936 167.177394 
" clip-path="url(#p57e5b5c1f2)" style="fill: none; stroke: #ff0000; stroke-width: 0.72; stroke-linejoin: miter"/>
   </g>
   <g id="patch_22">
    <path d="M 463.080499 167.177394 
L 466.757626 167.177394 
" clip-path="url(#p57e5b5c1f2)" style="fill: none; stroke: #ff0000; stroke-width: 0.72; stroke-linejoin: miter"/>
   </g>
  </g>
 </g>
 <defs>
  <clipPath id="p57e5b5c1f2">
   <rect x="0" y="0" width="1152" height="214.027025"/>
  </clipPath>
 </defs>
</svg>
