  0
SECTION
  2
HEADER
  9
$ACADVER
  1
AC1021
  9
$ACADMAINTVER
 70
25
  9
$DWGCODEPAGE
  3
ANSI_1252
  9
$LASTSAVEDBY
  1
ezdxf
  9
$INSBASE
 10
0.0
 20
0.0
 30
0.0
  9
$EXTMIN
 10
1e+20
 20
1e+20
 30
1e+20
  9
$EXTMAX
 10
-1e+20
 20
-1e+20
 30
-1e+20
  9
$LIMMIN
 10
0.0
 20
0.0
  9
$LIMMAX
 10
420.0
 20
297.0
  9
$ORTHOMODE
 70
0
  9
$REGENMODE
 70
1
  9
$FILLMODE
 70
1
  9
$QTEXTMODE
 70
0
  9
$MIRRTEXT
 70
1
  9
$LTSCALE
 40
1.0
  9
$ATTMODE
 70
1
  9
$TEXTSIZE
 40
2.5
  9
$TRACEWID
 40
1.0
  9
$TEXTSTYLE
  7
OpenSans
  9
$CLAYER
  8
0
  9
$CELTYPE
  6
ByLayer
  9
$CECOLOR
 62
256
  9
$CELTSCALE
 40
1.0
  9
$DISPSILH
 70
0
  9
$DIMSCALE
 40
1.0
  9
$DIMASZ
 40
0.175
  9
$DIMEXO
 40
0.125
  9
$DIMDLI
 40
3.75
  9
$DIMRND
 40
0.0
  9
$DIMDLE
 40
0.0
  9
$DIMEXE
 40
0.375
  9
$DIMTP
 40
0.0
  9
$DIMTM
 40
0.0
  9
$DIMTXT
 40
0.25
  9
$DIMCEN
 40
2.5
  9
$DIMTSZ
 40
0.0
  9
$DIMTOL
 70
0
  9
$DIMLIM
 70
0
  9
$DIMTIH
 70
0
  9
$DIMTOH
 70
0
  9
$DIMSE1
 70
0
  9
$DIMSE2
 70
0
  9
$DIMTAD
 70
1
  9
$DIMZIN
 70
12
  9
$DIMBLK
  1
ARCHTICK
  9
$DIMASO
 70
1
  9
$DIMSHO
 70
1
  9
$DIMPOST
  1

  9
$DIMAPOST
  1

  9
$DIMALT
 70
0
  9
$DIMALTD
 70
3
  9
$DIMALTF
 40
0.03937007874
  9
$DIMLFAC
 40
100.0
  9
$DIMTOFL
 70
1
  9
$DIMTVP
 40
0.0
  9
$DIMTIX
 70
0
  9
$DIMSOXD
 70
0
  9
$DIMSAH
 70
0
  9
$DIMBLK1
  1

  9
$DIMBLK2
  1

  9
$DIMSTYLE
  2
EZDXF
  9
$DIMCLRD
 70
0
  9
$DIMCLRE
 70
0
  9
$DIMCLRT
 70
0
  9
$DIMTFAC
 40
0.5
  9
$DIMGAP
 40
0.1
  9
$DIMJUST
 70
0
  9
$DIMSD1
 70
0
  9
$DIMSD2
 70
0
  9
$DIMTOLJ
 70
0
  9
$DIMTZIN
 70
8
  9
$DIMALTZ
 70
0
  9
$DIMALTTZ
 70
0
  9
$DIMUPT
 70
1
  9
$DIMDEC
 70
2
  9
$DIMTDEC
 70
2
  9
$DIMALTU
 70
2
  9
$DIMALTTD
 70
3
  9
$DIMTXSTY
  7
OpenSansCondensed-Light
  9
$DIMAUNIT
 70
0
  9
$DIMADEC
 70
2
  9
$DIMALTRND
 40
0.0
  9
$DIMAZIN
 70
3
  9
$DIMDSEP
 70
46
  9
$DIMATFIT
 70
3
  9
$DIMFRAC
 70
0
  9
$DIMLDRBLK
  1

  9
$DIMLUNIT
 70
2
  9
$DIMLWD
 70
-2
  9
$DIMLWE
 70
-2
  9
$DIMTMOVE
 70
2
  9
$DIMFXL
 40
1.0
  9
$DIMFXLON
 70
0
  9
$DIMJOGANG
 40
0.785398163397
  9
$DIMTFILL
 70
0
  9
$DIMTFILLCLR
 70
0
  9
$DIMARCSYM
 70
0
  9
$DIMLTYPE
  6

  9
$DIMLTEX1
  6

  9
$DIMLTEX2
  6

  9
$LUNITS
 70
2
  9
$LUPREC
 70
4
  9
$SKETCHINC
 40
1.0
  9
$FILLETRAD
 40
10.0
  9
$AUNITS
 70
0
  9
$AUPREC
 70
2
  9
$MENU
  1
.
  9
$ELEVATION
 40
0.0
  9
$PELEVATION
 40
0.0
  9
$THICKNESS
 40
0.0
  9
$LIMCHECK
 70
0
  9
$CHAMFERA
 40
0.0
  9
$CHAMFERB
 40
0.0
  9
$CHAMFERC
 40
0.0
  9
$CHAMFERD
 40
0.0
  9
$SKPOLY
 70
0
  9
$TDCREATE
 40
2461048.0883333334
  9
$TDUCREATE
 40
2458532.153996898
  9
$TDUPDATE
 40
2461048.0883333334
  9
$TDUUPDATE
 40
2458532.1544311
  9
$TDINDWG
 40
0.0
  9
$TDUSRTIMER
 40
0.0
  9
$USRTIMER
 70
1
  9
$ANGBASE
 50
0.0
  9
$ANGDIR
 70
0
  9
$PDMODE
 70
0
  9
$PDSIZE
 40
0.0
  9
$PLINEWID
 40
0.0
  9
$SPLFRAME
 70
0
  9
$SPLINETYPE
 70
6
  9
$SPLINESEGS
 70
8
  9
$HANDSEED
  5
AE
  9
$SURFTAB1
 70
6
  9
$SURFTAB2
 70
6
  9
$SURFTYPE
 70
6
  9
$SURFU
 70
6
  9
$SURFV
 70
6
  9
$UCSBASE
  2

  9
$UCSNAME
  2

  9
$UCSORG
 10
0.0
 20
0.0
 30
0.0
  9
$UCSXDIR
 10
1.0
 20
0.0
 30
0.0
  9
$UCSYDIR
 10
0.0
 20
1.0
 30
0.0
  9
$UCSORTHOREF
  2

  9
$UCSORTHOVIEW
 70
0
  9
$UCSORGTOP
 10
0.0
 20
0.0
 30
0.0
  9
$UCSORGBOTTOM
 10
0.0
 20
0.0
 30
0.0
  9
$UCSORGLEFT
 10
0.0
 20
0.0
 30
0.0
  9
$UCSORGRIGHT
 10
0.0
 20
0.0
 30
0.0
  9
$UCSORGFRONT
 10
0.0
 20
0.0
 30
0.0
  9
$UCSORGBACK
 10
0.0
 20
0.0
 30
0.0
  9
$PUCSBASE
  2

  9
$PUCSNAME
  2

  9
$PUCSORG
 10
0.0
 20
0.0
 30
0.0
  9
$PUCSXDIR
 10
1.0
 20
0.0
 30
0.0
  9
$PUCSYDIR
 10
0.0
 20
1.0
 30
0.0
  9
$PUCSORTHOREF
  2

  9
$PUCSORTHOVIEW
 70
0
  9
$PUCSORGTOP
 10
0.0
 20
0.0
 30
0.0
  9
$PUCSORGBOTTOM
 10
0.0
 20
0.0
 30
0.0
  9
$PUCSORGLEFT
 10
0.0
 20
0.0
 30
0.0
  9
$PUCSORGRIGHT
 10
0.0
 20
0.0
 30
0.0
  9
$PUCSORGFRONT
 10
0.0
 20
0.0
 30
0.0
  9
$PUCSORGBACK
 10
0.0
 20
0.0
 30
0.0
  9
$USERI1
 70
0
  9
$USERI2
 70
0
  9
$USERI3
 70
0
  9
$USERI4
 70
0
  9
$USERI5
 70
0
  9
$USERR1
 40
0.0
  9
$USERR2
 40
0.0
  9
$USERR3
 40
0.0
  9
$USERR4
 40
0.0
  9
$USERR5
 40
0.0
  9
$WORLDVIEW
 70
1
  9
$SHADEDGE
 70
3
  9
$SHADEDIF
 70
70
  9
$TILEMODE
 70
1
  9
$MAXACTVP
 70
64
  9
$PINSBASE
 10
0.0
 20
0.0
 30
0.0
  9
$PLIMCHECK
 70
0
  9
$PEXTMIN
 10
1e+20
 20
1e+20
 30
1e+20
  9
$PEXTMAX
 10
-1e+20
 20
-1e+20
 30
-1e+20
  9
$PLIMMIN
 10
0.0
 20
0.0
  9
$PLIMMAX
 10
420.0
 20
297.0
  9
$UNITMODE
 70
0
  9
$VISRETAIN
 70
1
  9
$PLINEGEN
 70
0
  9
$PSLTSCALE
 70
1
  9
$TREEDEPTH
 70
3020
  9
$CMLSTYLE
  2
Standard
  9
$CMLJUST
 70
0
  9
$CMLSCALE
 40
20.0
  9
$PROXYGRAPHICS
 70
1
  9
$MEASUREMENT
 70
1
  9
$CELWEIGHT
370
-1
  9
$ENDCAPS
280
0
  9
$JOINSTYLE
280
0
  9
$LWDISPLAY
290
0
  9
$INSUNITS
 70
6
  9
$HYPERLINKBASE
  1

  9
$STYLESHEET
  1

  9
$XEDIT
290
1
  9
$CEPSNTYPE
380
0
  9
$PSTYLEMODE
290
1
  9
$FINGERPRINTGUID
  2
{412BBA5C-79E4-4619-BCBA-7E9DF0C71B77}
  9
$VERSIONGUID
  2
{A322F83C-C4F3-4BA0-8A35-A35CEEC411B1}
  9
$EXTNAMES
290
1
  9
$PSVPSCALE
 40
0.0
  9
$OLESTARTUP
290
0
  9
$SORTENTS
280
127
  9
$INDEXCTL
280
0
  9
$HIDETEXT
280
1
  9
$XCLIPFRAME
290
1
  9
$HALOGAP
280
0
  9
$OBSCOLOR
 70
257
  9
$OBSLTYPE
280
0
  9
$INTERSECTIONDISPLAY
280
0
  9
$INTERSECTIONCOLOR
 70
257
  9
$DIMASSOC
280
2
  9
$PROJECTNAME
  1

  9
$CAMERADISPLAY
290
0
  9
$LENSLENGTH
 40
50.0
  9
$CAMERAHEIGHT
 40
0.0
  9
$STEPSPERSEC
 40
24.0
  9
$STEPSIZE
 40
100.0
  9
$3DDWFPREC
 40
2.0
  9
$PSOLWIDTH
 40
0.005
  9
$PSOLHEIGHT
 40
0.08
  9
$LOFTANG1
 40
1.570796326795
  9
$LOFTANG2
 40
1.570796326795
  9
$LOFTMAG1
 40
0.0
  9
$LOFTMAG2
 40
0.0
  9
$LOFTPARAM
 70
7
  9
$LOFTNORMALS
280
1
  9
$LATITUDE
 40
37.795
  9
$LONGITUDE
 40
-122.394
  9
$NORTHDIRECTION
 40
0.0
  9
$TIMEZONE
 70
-8000
  9
$LIGHTGLYPHDISPLAY
280
1
  9
$TILEMODELIGHTSYNCH
280
1
  9
$CMATERIAL
347
20
  9
$SOLIDHIST
280
0
  9
$SHOWHIST
280
1
  9
$DWFFRAME
280
2
  9
$DGNFRAME
280
2
  9
$REALWORLDSCALE
290
1
  9
$INTERFERECOLOR
 62
256
  9
$CSHADOW
280
0
  9
$SHADOWPLANELOCATION
 40
0.0
  0
ENDSEC
  0
SECTION
  2
CLASSES
  0
CLASS
  1
ACDBDICTIONARYWDFLT
  2
AcDbDictionaryWithDefault
  3
ObjectDBX Classes
 90
0
 91
0
280
0
281
0
  0
CLASS
  1
SUN
  2
AcDbSun
  3
SCENEOE
 90
1153
 91
0
280
0
281
0
  0
CLASS
  1
VISUALSTYLE
  2
AcDbVisualStyle
  3
ObjectDBX Classes
 90
4095
 91
0
280
0
281
0
  0
CLASS
  1
MATERIAL
  2
AcDbMaterial
  3
ObjectDBX Classes
 90
1153
 91
0
280
0
281
0
  0
CLASS
  1
SCALE
  2
AcDbScale
  3
ObjectDBX Classes
 90
1153
 91
0
280
0
281
0
  0
CLASS
  1
TABLESTYLE
  2
AcDbTableStyle
  3
ObjectDBX Classes
 90
4095
 91
0
280
0
281
0
  0
CLASS
  1
MLEADERSTYLE
  2
AcDbMLeaderStyle
  3
ACDB_MLEADERSTYLE_CLASS
 90
4095
 91
0
280
0
281
0
  0
CLASS
  1
DICTIONARYVAR
  2
AcDbDictionaryVar
  3
ObjectDBX Classes
 90
0
 91
0
280
0
281
0
  0
CLASS
  1
CELLSTYLEMAP
  2
AcDbCellStyleMap
  3
ObjectDBX Classes
 90
1152
 91
0
280
0
281
0
  0
CLASS
  1
MENTALRAYRENDERSETTINGS
  2
AcDbMentalRayRenderSettings
  3
SCENEOE
 90
1024
 91
0
280
0
281
0
  0
CLASS
  1
ACDBDETAILVIEWSTYLE
  2
AcDbDetailViewStyle
  3
ObjectDBX Classes
 90
1025
 91
0
280
0
281
0
  0
CLASS
  1
ACDBSECTIONVIEWSTYLE
  2
AcDbSectionViewStyle
  3
ObjectDBX Classes
 90
1025
 91
0
280
0
281
0
  0
CLASS
  1
RASTERVARIABLES
  2
AcDbRasterVariables
  3
ISM
 90
0
 91
0
280
0
281
0
  0
CLASS
  1
ACDBPLACEHOLDER
  2
AcDbPlaceHolder
  3
ObjectDBX Classes
 90
0
 91
0
280
0
281
0
  0
CLASS
  1
LAYOUT
  2
AcDbLayout
  3
ObjectDBX Classes
 90
0
 91
0
280
0
281
0
  0
ENDSEC
  0
SECTION
  2
TABLES
  0
TABLE
  2
VPORT
  5
8
330
0
100
AcDbSymbolTable
 70
1
  0
VPORT
  5
23
330
8
100
AcDbSymbolTableRecord
100
AcDbViewportTableRecord
  2
*Active
 70
0
 10
0.0
 20
0.0
 11
1.0
 21
1.0
 12
0.0
 22
0.0
 13
0.0
 23
0.0
 14
0.5
 24
0.5
 15
0.5
 25
0.5
 16
0.0
 26
0.0
 36
1.0
 17
0.0
 27
0.0
 37
0.0
 40
1000.0
 41
1.34
 42
50.0
 43
0.0
 44
0.0
 50
0.0
 51
0.0
 71
0
 72
1000
 73
1
 74
3
 75
0
 76
0
 77
0
 78
0
281
0
 65
0
146
0.0
  0
ENDTAB
  0
TABLE
  2
LTYPE
  5
2
330
0
100
AcDbSymbolTable
 70
21
  0
LTYPE
  5
24
330
2
100
AcDbSymbolTableRecord
100
AcDbLinetypeTableRecord
  2
ByBlock
 70
0
  3

 72
65
 73
0
 40
0.0
  0
LTYPE
  5
25
330
2
100
AcDbSymbolTableRecord
100
AcDbLinetypeTableRecord
  2
ByLayer
 70
0
  3

 72
65
 73
0
 40
0.0
  0
LTYPE
  5
26
330
2
100
AcDbSymbolTableRecord
100
AcDbLinetypeTableRecord
  2
Continuous
 70
0
  3

 72
65
 73
0
 40
0.0
  0
LTYPE
  5
2F
330
2
100
AcDbSymbolTableRecord
100
AcDbLinetypeTableRecord
  2
CENTER
 70
0
  3
Center ____ _ ____ _ ____ _ ____ _ ____ _ ____
 72
65
 73
4
 40
5.08
 49
3.175
 74
0
 49
-0.635
 74
0
 49
0.635
 74
0
 49
-0.635
 74
0
  0
LTYPE
  5
30
330
2
100
AcDbSymbolTableRecord
100
AcDbLinetypeTableRecord
  2
CENTERX2
 70
0
  3
Center (2x) ________  __  ________  __  ________
 72
65
 73
4
 40
8.89
 49
6.35
 74
0
 49
-0.635
 74
0
 49
1.27
 74
0
 49
-0.635
 74
0
  0
LTYPE
  5
31
330
2
100
AcDbSymbolTableRecord
100
AcDbLinetypeTableRecord
  2
CENTER2
 70
0
  3
Center (.5x) ____ _ ____ _ ____ _ ____ _ ____
 72
65
 73
4
 40
2.54
 49
1.587
 74
0
 49
-0.318
 74
0
 49
0.318
 74
0
 49
-0.318
 74
0
  0
LTYPE
  5
32
330
2
100
AcDbSymbolTableRecord
100
AcDbLinetypeTableRecord
  2
DASHED
 70
0
  3
Dashed __ __ __ __ __ __ __ __ __ __ __ __ __ _
 72
65
 73
2
 40
1.524
 49
1.27
 74
0
 49
-0.254
 74
0
  0
LTYPE
  5
33
330
2
100
AcDbSymbolTableRecord
100
AcDbLinetypeTableRecord
  2
DASHEDX2
 70
0
  3
Dashed (2x) ____  ____  ____  ____  ____  ____
 72
65
 73
2
 40
3.048
 49
2.54
 74
0
 49
-0.508
 74
0
  0
LTYPE
  5
34
330
2
100
AcDbSymbolTableRecord
100
AcDbLinetypeTableRecord
  2
DASHED2
 70
0
  3
Dashed (.5x) _ _ _ _ _ _ _ _ _ _ _ _ _ _
 72
65
 73
2
 40
0.762
 49
0.635
 74
0
 49
-0.127
 74
0
  0
LTYPE
  5
35
330
2
100
AcDbSymbolTableRecord
100
AcDbLinetypeTableRecord
  2
PHANTOM
 70
0
  3
Phantom ______  __  __  ______  __  __  ______
 72
65
 73
6
 40
6.35
 49
3.175
 74
0
 49
-0.635
 74
0
 49
0.635
 74
0
 49
-0.635
 74
0
 49
0.635
 74
0
 49
-0.635
 74
0
  0
LTYPE
  5
36
330
2
100
AcDbSymbolTableRecord
100
AcDbLinetypeTableRecord
  2
PHANTOMX2
 70
0
  3
Phantom (2x)____________    ____    ____    ____________
 72
65
 73
6
 40
10.795
 49
6.35
 74
0
 49
-0.635
 74
0
 49
1.27
 74
0
 49
-0.635
 74
0
 49
1.27
 74
0
 49
-0.635
 74
0
  0
LTYPE
  5
37
330
2
100
AcDbSymbolTableRecord
100
AcDbLinetypeTableRecord
  2
PHANTOM2
 70
0
  3
Phantom (.5x) ___ _ _ ___ _ _ ___ _ _ ___ _ _ ___
 72
65
 73
6
 40
3.175
 49
1.587
 74
0
 49
-0.318
 74
0
 49
0.318
 74
0
 49
-0.318
 74
0
 49
0.318
 74
0
 49
-0.318
 74
0
  0
LTYPE
  5
38
330
2
100
AcDbSymbolTableRecord
100
AcDbLinetypeTableRecord
  2
DASHDOT
 70
0
  3
Dash dot __ . __ . __ . __ . __ . __ . __ . __
 72
65
 73
4
 40
3.556
 49
2.54
 74
0
 49
-0.508
 74
0
 49
0.0
 74
0
 49
-0.508
 74
0
  0
LTYPE
  5
39
330
2
100
AcDbSymbolTableRecord
100
AcDbLinetypeTableRecord
  2
DASHDOTX2
 70
0
  3
Dash dot (2x) ____  .  ____  .  ____  .  ____
 72
65
 73
4
 40
6.096
 49
5.08
 74
0
 49
-0.508
 74
0
 49
0.0
 74
0
 49
-0.508
 74
0
  0
LTYPE
  5
3A
330
2
100
AcDbSymbolTableRecord
100
AcDbLinetypeTableRecord
  2
DASHDOT2
 70
0
  3
Dash dot (.5x) _ . _ . _ . _ . _ . _ . _ . _
 72
65
 73
4
 40
1.778
 49
1.27
 74
0
 49
-0.254
 74
0
 49
0.0
 74
0
 49
-0.254
 74
0
  0
LTYPE
  5
3B
330
2
100
AcDbSymbolTableRecord
100
AcDbLinetypeTableRecord
  2
DOT
 70
0
  3
Dot .  .  .  .  .  .  .  .  .  .  .  .  .  .  .  .
 72
65
 73
2
 40
0.508
 49
0.0
 74
0
 49
-0.508
 74
0
  0
LTYPE
  5
3C
330
2
100
AcDbSymbolTableRecord
100
AcDbLinetypeTableRecord
  2
DOTX2
 70
0
  3
Dot (2x) .    .    .    .    .    .    .    . 
 72
65
 73
2
 40
1.016
 49
0.0
 74
0
 49
-1.016
 74
0
  0
LTYPE
  5
3D
330
2
100
AcDbSymbolTableRecord
100
AcDbLinetypeTableRecord
  2
DOT2
 70
0
  3
Dot (.5) . . . . . . . . . . . . . . . . . . . 
 72
65
 73
2
 40
0.254
 49
0.0
 74
0
 49
-0.254
 74
0
  0
LTYPE
  5
3E
330
2
100
AcDbSymbolTableRecord
100
AcDbLinetypeTableRecord
  2
DIVIDE
 70
0
  3
Divide __ . . __ . . __ . . __ . . __ . . __
 72
65
 73
6
 40
4.064
 49
2.54
 74
0
 49
-0.508
 74
0
 49
0.0
 74
0
 49
-0.508
 74
0
 49
0.0
 74
0
 49
-0.508
 74
0
  0
LTYPE
  5
3F
330
2
100
AcDbSymbolTableRecord
100
AcDbLinetypeTableRecord
  2
DIVIDEX2
 70
0
  3
Divide (2x) ____  . .  ____  . .  ____  . .  ____
 72
65
 73
6
 40
6.604
 49
5.08
 74
0
 49
-0.508
 74
0
 49
0.0
 74
0
 49
-0.508
 74
0
 49
0.0
 74
0
 49
-0.508
 74
0
  0
LTYPE
  5
40
330
2
100
AcDbSymbolTableRecord
100
AcDbLinetypeTableRecord
  2
DIVIDE2
 70
0
  3
Divide(.5x) _ . _ . _ . _ . _ . _ . _ . _
 72
65
 73
6
 40
2.032
 49
1.27
 74
0
 49
-0.254
 74
0
 49
0.0
 74
0
 49
-0.254
 74
0
 49
0.0
 74
0
 49
-0.254
 74
0
  0
ENDTAB
  0
TABLE
  2
LAYER
  5
1
330
0
100
AcDbSymbolTable
 70
4
  0
LAYER
  5
27
330
1
100
AcDbSymbolTableRecord
100
AcDbLayerTableRecord
  2
0
 70
0
 62
7
  6
Continuous
370
-3
390
13
347
21
  0
LAYER
  5
28
330
1
100
AcDbSymbolTableRecord
100
AcDbLayerTableRecord
  2
Defpoints
 70
0
 62
7
  6
Continuous
290
0
370
-3
390
13
347
21
  0
LAYER
  5
8A
330
1
100
AcDbSymbolTableRecord
100
AcDbLayerTableRecord
  2
Layer
 70
0
 62
1
  6
Continuous
370
50
390
13
347
21
  0
LAYER
  5
8B
330
1
100
AcDbSymbolTableRecord
100
AcDbLayerTableRecord
  2
NumLabel
 70
0
 62
1
  6
Continuous
370
15
390
13
347
21
  0
ENDTAB
  0
TABLE
  2
STYLE
  5
5
330
0
100
AcDbSymbolTable
 70
26
  0
STYLE
  5
29
330
5
100
AcDbSymbolTableRecord
100
AcDbTextStyleTableRecord
  2
Standard
 70
0
 40
0.0
 41
1.0
 50
0.0
 71
0
 42
2.5
  3
txt
  4

  0
STYLE
  5
41
330
5
100
AcDbSymbolTableRecord
100
AcDbTextStyleTableRecord
  2
OpenSans-Light
 70
0
 40
0.0
 41
1.0
 50
0.0
 71
0
 42
2.5
  3
OpenSans-Light.ttf
  4

  0
STYLE
  5
42
330
5
100
AcDbSymbolTableRecord
100
AcDbTextStyleTableRecord
  2
OpenSans-Light-Italic
 70
0
 40
0.0
 41
1.0
 50
0.0
 71
0
 42
2.5
  3
OpenSans-LightItalic.ttf
  4

  0
STYLE
  5
43
330
5
100
AcDbSymbolTableRecord
100
AcDbTextStyleTableRecord
  2
OpenSans
 70
0
 40
0.0
 41
1.0
 50
0.0
 71
0
 42
2.5
  3
OpenSans-Regular.ttf
  4

  0
STYLE
  5
44
330
5
100
AcDbSymbolTableRecord
100
AcDbTextStyleTableRecord
  2
OpenSans-Italic
 70
0
 40
0.0
 41
1.0
 50
0.0
 71
0
 42
2.5
  3
OpenSans-Italic.ttf
  4

  0
STYLE
  5
45
330
5
100
AcDbSymbolTableRecord
100
AcDbTextStyleTableRecord
  2
OpenSans-SemiBold
 70
0
 40
0.0
 41
1.0
 50
0.0
 71
0
 42
2.5
  3
OpenSans-SemiBold.ttf
  4

  0
STYLE
  5
46
330
5
100
AcDbSymbolTableRecord
100
AcDbTextStyleTableRecord
  2
OpenSans-SemiBoldItalic
 70
0
 40
0.0
 41
1.0
 50
0.0
 71
0
 42
2.5
  3
OpenSans-SemiBoldItalic.ttf
  4

  0
STYLE
  5
47
330
5
100
AcDbSymbolTableRecord
100
AcDbTextStyleTableRecord
  2
OpenSans-Bold
 70
0
 40
0.0
 41
1.0
 50
0.0
 71
0
 42
2.5
  3
OpenSans-Bold.ttf
  4

  0
STYLE
  5
48
330
5
100
AcDbSymbolTableRecord
100
AcDbTextStyleTableRecord
  2
OpenSans-BoldItalic
 70
0
 40
0.0
 41
1.0
 50
0.0
 71
0
 42
2.5
  3
OpenSans-BoldItalic.ttf
  4

  0
STYLE
  5
49
330
5
100
AcDbSymbolTableRecord
100
AcDbTextStyleTableRecord
  2
OpenSans-ExtraBold
 70
0
 40
0.0
 41
1.0
 50
0.0
 71
0
 42
2.5
  3
OpenSans-ExtraBold.ttf
  4

  0
STYLE
  5
4A
330
5
100
AcDbSymbolTableRecord
100
AcDbTextStyleTableRecord
  2
OpenSans-ExtraBoldItalic
 70
0
 40
0.0
 41
1.0
 50
0.0
 71
0
 42
2.5
  3
OpenSans-ExtraBoldItalic.ttf
  4

  0
STYLE
  5
4B
330
5
100
AcDbSymbolTableRecord
100
AcDbTextStyleTableRecord
  2
OpenSansCondensed-Bold
 70
0
 40
0.0
 41
1.0
 50
0.0
 71
0
 42
2.5
  3
OpenSansCondensed-Bold.ttf
  4

  0
STYLE
  5
4C
330
5
100
AcDbSymbolTableRecord
100
AcDbTextStyleTableRecord
  2
OpenSansCondensed-Light
 70
0
 40
0.0
 41
1.0
 50
0.0
 71
0
 42
2.5
  3
OpenSansCondensed-Light.ttf
  4

  0
STYLE
  5
4D
330
5
100
AcDbSymbolTableRecord
100
AcDbTextStyleTableRecord
  2
OpenSansCondensed-Italic
 70
0
 40
0.0
 41
1.0
 50
0.0
 71
0
 42
2.5
  3
OpenSansCondensed-LightItalic.ttf
  4

  0
STYLE
  5
4E
330
5
100
AcDbSymbolTableRecord
100
AcDbTextStyleTableRecord
  2
LiberationSans
 70
0
 40
0.0
 41
1.0
 50
0.0
 71
0
 42
2.5
  3
LiberationSans-Regular.ttf
  4

  0
STYLE
  5
4F
330
5
100
AcDbSymbolTableRecord
100
AcDbTextStyleTableRecord
  2
LiberationSans-Bold
 70
0
 40
0.0
 41
1.0
 50
0.0
 71
0
 42
2.5
  3
LiberationSans-Bold.ttf
  4

  0
STYLE
  5
50
330
5
100
AcDbSymbolTableRecord
100
AcDbTextStyleTableRecord
  2
LiberationSans-BoldItalic
 70
0
 40
0.0
 41
1.0
 50
0.0
 71
0
 42
2.5
  3
LiberationSans-BoldItalic.ttf
  4

  0
STYLE
  5
51
330
5
100
AcDbSymbolTableRecord
100
AcDbTextStyleTableRecord
  2
LiberationSans-Italic
 70
0
 40
0.0
 41
1.0
 50
0.0
 71
0
 42
2.5
  3
LiberationSans-Italic.ttf
  4

  0
STYLE
  5
52
330
5
100
AcDbSymbolTableRecord
100
AcDbTextStyleTableRecord
  2
LiberationSerif
 70
0
 40
0.0
 41
1.0
 50
0.0
 71
0
 42
2.5
  3
LiberationSerif-Regular.ttf
  4

  0
STYLE
  5
53
330
5
100
AcDbSymbolTableRecord
100
AcDbTextStyleTableRecord
  2
LiberationSerif-Bold
 70
0
 40
0.0
 41
1.0
 50
0.0
 71
0
 42
2.5
  3
LiberationSerif-Bold.ttf
  4

  0
STYLE
  5
54
330
5
100
AcDbSymbolTableRecord
100
AcDbTextStyleTableRecord
  2
LiberationSerif-BoldItalic
 70
0
 40
0.0
 41
1.0
 50
0.0
 71
0
 42
2.5
  3
LiberationSerif-BoldItalic.ttf
  4

  0
STYLE
  5
55
330
5
100
AcDbSymbolTableRecord
100
AcDbTextStyleTableRecord
  2
LiberationSerif-Italic
 70
0
 40
0.0
 41
1.0
 50
0.0
 71
0
 42
2.5
  3
LiberationSerif-Italic.ttf
  4

  0
STYLE
  5
56
330
5
100
AcDbSymbolTableRecord
100
AcDbTextStyleTableRecord
  2
LiberationMono
 70
0
 40
0.0
 41
1.0
 50
0.0
 71
0
 42
2.5
  3
LiberationMono-Regular.ttf
  4

  0
STYLE
  5
57
330
5
100
AcDbSymbolTableRecord
100
AcDbTextStyleTableRecord
  2
LiberationMono-Bold
 70
0
 40
0.0
 41
1.0
 50
0.0
 71
0
 42
2.5
  3
LiberationMono-Bold.ttf
  4

  0
STYLE
  5
58
330
5
100
AcDbSymbolTableRecord
100
AcDbTextStyleTableRecord
  2
LiberationMono-BoldItalic
 70
0
 40
0.0
 41
1.0
 50
0.0
 71
0
 42
2.5
  3
LiberationMono-BoldItalic.ttf
  4

  0
STYLE
  5
59
330
5
100
AcDbSymbolTableRecord
100
AcDbTextStyleTableRecord
  2
LiberationMono-Italic
 70
0
 40
0.0
 41
1.0
 50
0.0
 71
0
 42
2.5
  3
LiberationMono-Italic.ttf
  4

  0
ENDTAB
  0
TABLE
  2
VIEW
  5
7
330
0
100
AcDbSymbolTable
 70
0
  0
ENDTAB
  0
TABLE
  2
UCS
  5
6
330
0
100
AcDbSymbolTable
 70
0
  0
ENDTAB
  0
TABLE
  2
APPID
  5
3
330
0
100
AcDbSymbolTable
 70
3
  0
APPID
  5
2A
330
3
100
AcDbSymbolTableRecord
100
AcDbRegAppTableRecord
  2
ACAD
 70
0
  0
APPID
  5
AB
330
3
100
AcDbSymbolTableRecord
100
AcDbRegAppTableRecord
  2
HATCHBACKGROUNDCOLOR
 70
0
  0
APPID
  5
AC
330
3
100
AcDbSymbolTableRecord
100
AcDbRegAppTableRecord
  2
EZDXF
 70
0
  0
ENDTAB
  0
TABLE
  2
DIMSTYLE
  5
4
330
0
100
AcDbSymbolTable
 70
12
100
AcDbDimStyleTable
  0
DIMSTYLE
105
2B
330
4
100
AcDbSymbolTableRecord
100
AcDbDimStyleTableRecord
  2
Standard
 70
0
 40
1.0
 41
2.5
 42
0.625
 43
3.75
 44
1.25
 45
0.0
 46
0.0
 47
0.0
 48
0.0
 49
2.5
140
2.5
141
2.5
142
0.0
143
0.03937007874
144
1.0
145
0.0
146
1.0
147
0.625
148
0.0
 69
0
 70
0
 71
0
 72
0
 73
0
 74
0
 75
0
 76
0
 77
1
 78
8
 79
3
170
0
171
3
172
1
173
0
174
0
175
0
176
0
177
0
178
0
179
2
271
2
272
2
273
2
274
3
275
0
276
0
277
2
278
44
279
0
280
0
281
0
282
0
283
0
284
8
285
0
286
0
288
0
289
3
290
0
371
-2
372
-2
  0
DIMSTYLE
105
73
330
4
100
AcDbSymbolTableRecord
100
AcDbDimStyleTableRecord
  2
EZDXF
 70
0
 40
1.0
 41
0.175
 42
0.125
 43
3.75
 44
0.375
 45
0.0
 46
0.0
 47
0.0
 48
0.0
 49
2.5
140
0.25
141
2.5
142
0.0
143
0.03937007874
144
100.0
145
0.0
146
0.5
147
0.1
148
0.0
 69
0
 70
0
 71
0
 72
0
 73
0
 74
0
 75
0
 76
0
 77
1
 78
12
 79
3
170
0
171
3
172
1
173
0
174
0
175
0
176
0
177
0
178
0
179
2
271
2
272
2
273
2
274
3
275
0
276
0
277
2
278
46
279
2
280
0
281
0
282
0
283
0
284
8
285
0
286
0
288
1
289
3
290
0
340
4C
342
74
371
-2
372
-2
  0
DIMSTYLE
105
7C
330
4
100
AcDbSymbolTableRecord
100
AcDbDimStyleTableRecord
  2
EZ_M_100_H25_CM
 70
0
 40
1.0
 41
0.25
 42
0.125
 43
3.75
 44
0.375
 45
0.0
 46
0.0
 47
0.0
 48
0.0
 49
2.5
140
0.25
141
2.5
142
0.125
143
0.03937007874
144
100.0
145
0.0
146
0.5
147
0.1
148
0.0
 69
0
 70
0
 71
0
 72
0
 73
0
 74
0
 75
0
 76
0
 77
1
 78
12
 79
3
170
0
171
3
172
1
173
0
174
0
175
0
176
0
177
0
178
0
179
2
271
2
272
2
273
2
274
3
275
0
276
0
277
2
278
46
279
2
280
0
281
0
282
0
283
0
284
8
285
0
286
0
288
1
289
3
290
0
340
4C
371
-2
372
-2
  0
DIMSTYLE
105
7D
330
4
100
AcDbSymbolTableRecord
100
AcDbDimStyleTableRecord
  2
EZ_M_50_H25_CM
 70
0
 40
1.0
 41
0.125
 42
0.0625
 43
3.75
 44
0.1875
 45
0.0
 46
0.0
 47
0.0
 48
0.0
 49
2.5
140
0.125
141
2.5
142
0.0625
143
0.03937007874
144
100.0
145
0.0
146
0.5
147
0.05
148
0.0
 69
0
 70
0
 71
0
 72
0
 73
0
 74
0
 75
0
 76
0
 77
1
 78
12
 79
3
170
0
171
3
172
1
173
0
174
0
175
0
176
0
177
0
178
0
179
2
271
2
272
2
273
2
274
3
275
0
276
0
277
2
278
46
279
2
280
0
281
0
282
0
283
0
284
8
285
0
286
0
288
1
289
3
290
0
340
4C
371
-2
372
-2
  0
DIMSTYLE
105
7E
330
4
100
AcDbSymbolTableRecord
100
AcDbDimStyleTableRecord
  2
EZ_M_25_H25_CM
 70
0
 40
1.0
 41
0.0625
 42
0.03125
 43
3.75
 44
0.09375
 45
0.0
 46
0.0
 47
0.0
 48
0.0
 49
2.5
140
0.0625
141
2.5
142
0.03125
143
0.03937007874
144
100.0
145
0.0
146
0.5
147
0.025
148
0.0
 69
0
 70
0
 71
0
 72
0
 73
0
 74
0
 75
0
 76
0
 77
1
 78
12
 79
3
170
0
171
3
172
1
173
0
174
0
175
0
176
0
177
0
178
0
179
2
271
2
272
2
273
2
274
3
275
0
276
0
277
2
278
46
279
2
280
0
281
0
282
0
283
0
284
8
285
0
286
0
288
1
289
3
290
0
340
4C
371
-2
372
-2
  0
DIMSTYLE
105
7F
330
4
100
AcDbSymbolTableRecord
100
AcDbDimStyleTableRecord
  2
EZ_M_20_H25_CM
 70
0
 40
1.0
 41
0.05
 42
0.025
 43
3.75
 44
0.07500000000000001
 45
0.0
 46
0.0
 47
0.0
 48
0.0
 49
2.5
140
0.05
141
2.5
142
0.025
143
0.03937007874
144
100.0
145
0.0
146
0.5
147
0.020000000000000004
148
0.0
 69
0
 70
0
 71
0
 72
0
 73
0
 74
0
 75
0
 76
0
 77
1
 78
12
 79
3
170
0
171
3
172
1
173
0
174
0
175
0
176
0
177
0
178
0
179
2
271
2
272
2
273
2
274
3
275
0
276
0
277
2
278
46
279
2
280
0
281
0
282
0
283
0
284
8
285
0
286
0
288
1
289
3
290
0
340
4C
371
-2
372
-2
  0
DIMSTYLE
105
80
330
4
100
AcDbSymbolTableRecord
100
AcDbDimStyleTableRecord
  2
EZ_M_10_H25_CM
 70
0
 40
1.0
 41
0.025
 42
0.0125
 43
3.75
 44
0.037500000000000006
 45
0.0
 46
0.0
 47
0.0
 48
0.0
 49
2.5
140
0.025
141
2.5
142
0.0125
143
0.03937007874
144
100.0
145
0.0
146
0.5
147
0.010000000000000002
148
0.0
 69
0
 70
0
 71
0
 72
0
 73
0
 74
0
 75
0
 76
0
 77
1
 78
12
 79
3
170
0
171
3
172
1
173
0
174
0
175
0
176
0
177
0
178
0
179
2
271
2
272
2
273
2
274
3
275
0
276
0
277
2
278
46
279
2
280
0
281
0
282
0
283
0
284
8
285
0
286
0
288
1
289
3
290
0
340
4C
371
-2
372
-2
  0
DIMSTYLE
105
81
330
4
100
AcDbSymbolTableRecord
100
AcDbDimStyleTableRecord
  2
EZ_M_5_H25_CM
 70
0
 40
1.0
 41
0.0125
 42
0.00625
 43
3.75
 44
0.018750000000000003
 45
0.0
 46
0.0
 47
0.0
 48
0.0
 49
2.5
140
0.0125
141
2.5
142
0.00625
143
0.03937007874
144
100.0
145
0.0
146
0.5
147
0.005000000000000001
148
0.0
 69
0
 70
0
 71
0
 72
0
 73
0
 74
0
 75
0
 76
0
 77
1
 78
12
 79
3
170
0
171
3
172
1
173
0
174
0
175
0
176
0
177
0
178
0
179
2
271
2
272
2
273
2
274
3
275
0
276
0
277
2
278
46
279
2
280
0
281
0
282
0
283
0
284
8
285
0
286
0
288
1
289
3
290
0
340
4C
371
-2
372
-2
  0
DIMSTYLE
105
82
330
4
100
AcDbSymbolTableRecord
100
AcDbDimStyleTableRecord
  2
EZ_M_1_H25_CM
 70
0
 40
1.0
 41
0.0025
 42
0.00125
 43
3.75
 44
0.00375
 45
0.0
 46
0.0
 47
0.0
 48
0.0
 49
2.5
140
0.0025
141
2.5
142
0.00125
143
0.03937007874
144
100.0
145
0.0
146
0.5
147
0.001
148
0.0
 69
0
 70
0
 71
0
 72
0
 73
0
 74
0
 75
0
 76
0
 77
1
 78
12
 79
3
170
0
171
3
172
1
173
0
174
0
175
0
176
0
177
0
178
0
179
2
271
2
272
2
273
2
274
3
275
0
276
0
277
2
278
46
279
2
280
0
281
0
282
0
283
0
284
8
285
0
286
0
288
1
289
3
290
0
340
4C
371
-2
372
-2
  0
DIMSTYLE
105
83
330
4
100
AcDbSymbolTableRecord
100
AcDbDimStyleTableRecord
  2
EZ_RADIUS
 70
0
 40
1.0
 41
0.25
 42
0.125
 43
3.75
 44
0.375
 45
0.0
 46
0.0
 47
0.0
 48
0.0
 49
2.5
140
0.25
141
0.0
142
0.0
143
0.03937007874
144
100.0
145
0.0
146
0.5
147
0.1
148
0.0
 69
0
 70
0
 71
0
 72
0
 73
0
 74
0
 75
0
 76
0
 77
1
 78
12
 79
3
170
0
171
3
172
0
173
0
174
0
175
0
176
0
177
0
178
0
179
2
271
2
272
2
273
2
274
3
275
0
276
0
277
2
278
46
279
1
280
0
281
0
282
0
283
0
284
8
285
0
286
0
288
1
289
3
290
0
340
4C
342
84
371
-2
372
-2
  0
DIMSTYLE
105
88
330
4
100
AcDbSymbolTableRecord
100
AcDbDimStyleTableRecord
  2
EZ_RADIUS_INSIDE
 70
0
 40
1.0
 41
0.25
 42
0.125
 43
3.75
 44
0.375
 45
0.0
 46
0.0
 47
0.0
 48
0.0
 49
2.5
140
0.25
141
0.0
142
0.0
143
0.03937007874
144
100.0
145
0.0
146
0.5
147
0.1
148
0.0
 69
0
 70
0
 71
0
 72
0
 73
0
 74
0
 75
0
 76
0
 77
0
 78
12
 79
3
170
0
171
3
172
0
173
0
174
1
175
0
176
0
177
0
178
0
179
2
271
2
272
2
273
2
274
3
275
0
276
0
277
2
278
46
279
0
280
0
281
0
282
0
283
0
284
8
285
0
286
0
288
1
289
0
290
0
340
4C
342
84
371
-2
372
-2
  0
DIMSTYLE
105
89
330
4
100
AcDbSymbolTableRecord
100
AcDbDimStyleTableRecord
  2
EZ_CURVED
 70
0
 40
1.0
 41
0.25
 42
0.125
 43
3.75
 44
0.375
 45
0.0
 46
0.0
 47
0.0
 48
0.0
 49
2.5
140
0.25
141
2.5
142
0.0
143
0.03937007874
144
100.0
145
0.0
146
0.5
147
0.1
148
0.0
 69
0
 70
0
 71
0
 72
0
 73
0
 74
0
 75
0
 76
0
 77
1
 78
12
 79
2
 90
2
170
0
171
3
172
1
173
0
174
0
175
0
176
0
177
0
178
0
179
2
271
2
272
2
273
2
274
3
275
0
276
0
277
2
278
46
279
2
280
0
281
0
282
0
283
0
284
8
285
0
286
0
288
1
289
3
290
0
340
4C
371
-2
372
-2
  0
ENDTAB
  0
TABLE
  2
BLOCK_RECORD
  5
9
330
0
100
AcDbSymbolTable
 70
5
  0
BLOCK_RECORD
  5
17
330
9
100
AcDbSymbolTableRecord
100
AcDbBlockTableRecord
  2
*Model_Space
340
1A
 70
0
280
1
281
0
  0
BLOCK_RECORD
  5
1B
330
9
100
AcDbSymbolTableRecord
100
AcDbBlockTableRecord
  2
*Paper_Space
340
1E
 70
0
280
1
281
0
  0
BLOCK_RECORD
  5
74
330
9
100
AcDbSymbolTableRecord
100
AcDbBlockTableRecord
  2
_ARCHTICK
340
0
 70
0
280
1
281
0
  0
BLOCK_RECORD
  5
78
330
9
100
AcDbSymbolTableRecord
100
AcDbBlockTableRecord
  2
_CLOSEDFILLED
340
0
 70
0
280
1
281
0
  0
BLOCK_RECORD
  5
84
330
9
100
AcDbSymbolTableRecord
100
AcDbBlockTableRecord
  2
_CLOSEDBLANK
340
0
 70
0
280
1
281
0
  0
ENDTAB
  0
ENDSEC
  0
SECTION
  2
BLOCKS
  0
BLOCK
  5
18
330
17
100
AcDbEntity
  8
0
100
AcDbBlockBegin
  2
*Model_Space
 70
0
 10
0.0
 20
0.0
 30
0.0
  3
*Model_Space
  1

  0
ENDBLK
  5
19
330
17
100
AcDbEntity
  8
0
100
AcDbBlockEnd
  0
BLOCK
  5
1C
330
1B
100
AcDbEntity
  8
0
100
AcDbBlockBegin
  2
*Paper_Space
 70
0
 10
0.0
 20
0.0
 30
0.0
  3
*Paper_Space
  1

  0
ENDBLK
  5
1D
330
1B
100
AcDbEntity
  8
0
100
AcDbBlockEnd
  0
BLOCK
  5
75
330
74
100
AcDbEntity
  8
0
100
AcDbBlockBegin
  2
_ARCHTICK
 70
0
 10
0.0
 20
0.0
 30
0.0
  3
_ARCHTICK
  1

  0
LWPOLYLINE
  5
77
330
74
100
AcDbEntity
  8
0
  6
BYBLOCK
 62
0
100
AcDbPolyline
 90
2
 70
0
 43
0.15
 10
-0.5
 20
-0.5
 10
0.5
 20
0.5
  0
ENDBLK
  5
76
330
74
100
AcDbEntity
  8
0
100
AcDbBlockEnd
  0
BLOCK
  5
79
330
78
100
AcDbEntity
  8
0
100
AcDbBlockBegin
  2
_CLOSEDFILLED
 70
0
 10
0.0
 20
0.0
 30
0.0
  3
_CLOSEDFILLED
  1

  0
SOLID
  5
7B
330
78
100
AcDbEntity
  8
0
  6
BYBLOCK
 62
0
100
AcDbTrace
 10
-1.0
 20
0.16439898372402537
 30
0.0
 11
0.0
 21
0.0
 31
0.0
 12
-1.0
 22
-0.16439898372402537
 32
0.0
 13
-1.0
 23
-0.16439898372402537
 33
0.0
  0
ENDBLK
  5
7A
330
78
100
AcDbEntity
  8
0
100
AcDbBlockEnd
  0
BLOCK
  5
85
330
84
100
AcDbEntity
  8
0
100
AcDbBlockBegin
  2
_CLOSEDBLANK
 70
0
 10
0.0
 20
0.0
 30
0.0
  3
_CLOSEDBLANK
  1

  0
LWPOLYLINE
  5
87
330
84
100
AcDbEntity
  8
0
  6
BYBLOCK
 62
0
100
AcDbPolyline
 90
3
 70
1
 10
-1.0
 20
0.16439898372402537
 10
0.0
 20
0.0
 10
-1.0
 20
-0.16439898372402537
  0
ENDBLK
  5
86
330
84
100
AcDbEntity
  8
0
100
AcDbBlockEnd
  0
ENDSEC
  0
SECTION
  2
ENTITIES
  0
LWPOLYLINE
  5
8C
330
17
100
AcDbEntity
  8
Layer
100
AcDbPolyline
 90
158
 70
1
 10
477.6310679776359
 20
253.10099264413685
 10
475.2930651502385
 20
253.44729946811873
 10
465.80847656821174
 20
254.76945563166987
 10
456.30495888757036
 20
256.01213507851406
 10
446.7830042027962
 20
257.1779831849843
 10
437.2450973769039
 20
258.2692670526593
 10
427.69639503067225
 20
259.28678181703106
 10
418.1437370466588
 20
260.2288154483581
 10
408.5912047880542
 20
261.09226334022054
 10
399.03863839666616
 20
261.8747038384338
 10
389.48601959578684
 20
262.57665352585207
 10
379.93750952847563
 20
263.1992552836167
 10
370.3985430901358
 20
263.7427476417897
 10
360.87181881444667
 20
264.2055306369876
 10
351.359329221893
 20
264.5869161530693
 10
341.86567909787254
 20
264.88598775358327
 10
332.39458027868926
 20
265.1009558325298
 10
322.9466831189606
 20
265.23053272669733
 10
313.5228198353024
 20
265.2759290233079
 10
304.1296287566619
 20
265.23855848800355
 10
294.7748113239577
 20
265.11668537446917
 10
285.4605743890991
 20
264.9063395238995
 10
276.18718392673196
 20
264.6062701675304
 10
266.95858730547803
 20
264.21770798910245
 10
257.78131224142015
 20
263.74101951003246
 10
248.65917967906802
 20
263.1754793042005
 10
239.59783198658963
 20
262.5218610505283
 10
230.60744992529533
 20
261.7791727794476
 10
221.69464781145658
 20
260.94253534439105
 10
212.85954874451957
 20
260.0083895773859
 10
204.10437961288986
 20
258.9792167501647
 10
195.43846698973732
 20
257.858972332815
 10
186.87268894324296
 20
256.6490168373805
 10
178.41765056714064
 20
255.3493581851721
 10
170.08884032455188
 20
253.96068779633248
 10
161.90034362641072
 20
252.48052210605653
 10
153.85846157149797
 20
250.90833135582534
 10
145.97251067723266
 20
249.25306836274916
 10
138.26563512289624
 20
247.52720193934886
 10
130.76342076091308
 20
245.7355663923275
 10
123.48458616733535
 20
243.8795390847693
 10
116.44478705130638
 20
241.9643678090804
 10
109.65755842263363
 20
239.99825031958585
 10
103.13276188410964
 20
237.99343782764782
 10
96.88430198251592
 20
235.96966093803462
 10
90.9322361192834
 20
233.94384049135272
 10
85.28878969366173
 20
231.92066819610454
 10
79.95025605757417
 20
229.90143630769677
 10
74.90587837385795
 20
227.89488373222946
 10
70.14683076951144
 20
225.9129121382761
 10
65.66484699650948
 20
223.96269637519123
 10
61.44949631389187
 20
222.04717410809454
 10
57.48813567181412
 20
220.16855551250055
 10
53.76773002221444
 20
218.32783093062383
 10
50.274063018729464
 20
216.52205958106396
 10
46.99076607644895
 20
214.746637202968
 10
43.901582893207205
 20
212.9990739844519
 10
40.99255939117222
 20
211.2798019911441
 10
38.2540245329003
 20
209.5903258743193
 10
35.678791403414834
 20
207.92892418946354
 10
33.25922719505064
 20
206.2906269529869
 10
30.985152883539683
 20
204.67007856628402
 10
28.84585527264983
 20
203.06754544110376
 10
26.83223628439822
 20
201.48641707516327
 10
24.9369281888238
 20
199.93088979649121
 10
23.154422141710143
 20
198.40223091803375
 10
21.48294732914553
 20
196.90128076499363
 10
19.924690301054056
 20
195.42512606691523
 10
18.483087253977033
 20
193.96945916929113
 10
17.159451033319442
 20
192.52795011696634
 10
15.951082442037375
 20
191.09549764645564
 10
14.852526495229199
 20
189.6714754711693
 10
13.85550678456758
 20
188.25554729857578
 10
12.952272922757459
 20
186.8514483193436
 10
12.139978787444363
 20
185.4678243926839
 10
11.423408443861717
 20
184.11722243752314
 10
10.809991766386588
 20
182.80336000795765
 10
10.302585272934039
 20
181.51707115487835
 10
9.898076464594624
 20
180.24774042680946
 10
9.590981921061996
 20
178.99473843700085
 10
9.376676182695007
 20
177.76786354190045
 10
9.250263682304308
 20
176.4829580736016
 10
9.22377372431174
 20
175.33737940034808
 10
9.294199730529101
 20
174.13840094558023
 10
9.47132666465626
 20
172.96121382189486
 10
9.766011341509909
 20
171.80717705551925
 10
10.191036451000116
 20
170.66919503331184
 10
10.754283057852263
 20
169.54013363659283
 10
11.453368189460889
 20
168.4203185713355
 10
12.279000553977994
 20
167.31771975766557
 10
13.226660780346378
 20
166.2404417174177
 10
14.30065266519506
 20
165.19224578514925
 10
15.508819115179392
 20
164.17336799930507
 10
16.85375912789067
 20
163.183917624914
 10
18.33455404256557
 20
162.22413302544868
 10
19.95070590764476
 20
161.29285869874388
 10
21.704473303922896
 20
160.3867264432842
 10
23.596373249094256
 20
159.50233229865466
 10
25.62797088801051
 20
158.63806426264802
 10
27.802128530813093
 20
157.79374684903064
 10
30.12537011567656
 20
156.96936209322985
 10
32.60476741830945
 20
156.1631414519742
 10
35.24830353000175
 20
155.37190517863442
 10
38.065762634192595
 20
154.59166163578493
 10
41.06709989220468
 20
153.81821994932875
 10
44.264052693522444
 20
153.04950060571497
 10
47.67166155431215
 20
152.28551016685384
 10
51.31032935399179
 20
151.52624076238277
 10
55.202272284907565
 20
150.76939647957863
 10
59.37010568747576
 20
150.0121267615005
 10
63.8371236007099
 20
149.2534777631763
 10
68.63083113247268
 20
148.494966252019
 10
73.78123915602737
 20
147.7382223007885
 10
79.31632930095407
 20
146.98306889009825
 10
85.25868069298832
 20
146.23037324261563
 10
91.62552299985094
 20
145.48512160874435
 10
98.42815839134056
 20
144.75412765849674
 10
105.6678496795214
 20
144.04217865670387
 10
113.33019925765089
 20
143.3535814754882
 10
121.38941409289006
 20
142.69620442578167
 10
129.8161419202244
 20
142.07636859759188
 10
138.57364022598443
 20
141.49541884495486
 10
147.61898261845784
 20
140.95587346698142
 10
156.9171822132254
 20
140.46101614020955
 10
166.43847084722546
 20
140.00911535564484
 10
176.1521550240107
 20
139.59826698580932
 10
186.0398357081363
 20
139.23001112028692
 10
192.72539856163814
 20
139.00974375666104
 10
192.69246970706496
 20
138.0102860584384
 10
196.06670722753142
 20
137.89911431921766
 10
206.2713864960648
 20
137.5893940235634
 10
216.5662729021365
 20
137.2941576484494
 10
226.90873411982915
 20
137.02524656662837
 10
237.30450997472113
 20
136.7960941265931
 10
247.7856510881953
 20
136.60467470761319
 10
258.36862840178753
 20
136.43548553371696
 10
269.0356067211692
 20
136.27161524911645
 10
279.751565419092
 20
136.1042144102119
 10
290.4867889917292
 20
135.9373040585245
 10
301.2206543290114
 20
135.78564972267935
 10
311.9717940615043
 20
135.66078485588486
 10
322.77265860530053
 20
135.558074709383
 10
333.6332265803389
 20
135.46242292339207
 10
344.5330402134583
 20
135.3642354565772
 10
355.4558396919352
 20
135.26618775902668
 10
366.39135016236327
 20
135.17251244812422
 10
377.3305187970852
 20
135.08115866521496
 10
388.2584019542472
 20
134.99076831915755
 10
399.1658400005758
 20
134.90861147569535
 10
410.06362795548245
 20
134.84207901654185
 10
420.9652148418158
 20
134.78536584101084
 10
431.8642382222486
 20
134.72222099685314
 10
442.76150157832114
 20
134.64543683051554
 10
453.65327455366776
 20
134.56410737463534
 10
464.5365937997302
 20
134.4915945681766
 10
475.4215772116837
 20
134.42776803961755
 10
477.6310679782366
 20
134.41470599952643
 10
477.6310679776359
 20
253.10099264413685
  0
LWPOLYLINE
  5
8D
330
17
100
AcDbEntity
  8
NumLabel
 62
1
100
AcDbPolyline
 90
6
 70
0
 10
271.87339805825246
 20
163.23689320388348
 10
276.87339805825246
 20
163.23689320388348
 10
276.87339805825246
 20
158.23689320388348
 10
271.87339805825246
 20
158.23689320388348
 10
271.87339805825246
 20
153.23689320388348
 10
276.87339805825246
 20
153.23689320388348
  0
LWPOLYLINE
  5
8E
330
17
100
AcDbEntity
  8
NumLabel
 62
1
100
AcDbPolyline
 90
2
 70
0
 10
284.37339805825246
 20
158.23689320388348
 10
282.37339805825246
 20
158.23689320388348
  0
LWPOLYLINE
  5
8F
330
17
100
AcDbEntity
  8
NumLabel
 62
1
100
AcDbPolyline
 90
4
 70
0
 10
281.37339805825246
 20
158.23689320388348
 10
279.37339805825246
 20
158.23689320388348
 10
279.37339805825246
 20
163.23689320388348
 10
281.37339805825246
 20
163.23689320388348
  0
LWPOLYLINE
  5
90
330
17
100
AcDbEntity
  8
NumLabel
 62
1
100
AcDbPolyline
 90
4
 70
0
 10
282.37339805825246
 20
163.23689320388348
 10
284.37339805825246
 20
163.23689320388348
 10
284.37339805825246
 20
153.23689320388348
 10
282.37339805825246
 20
153.23689320388348
  0
LWPOLYLINE
  5
91
330
17
100
AcDbEntity
  8
NumLabel
 62
1
100
AcDbPolyline
 90
2
 70
0
 10
281.37339805825246
 20
153.23689320388348
 10
279.37339805825246
 20
153.23689320388348
  0
LWPOLYLINE
  5
92
330
17
100
AcDbEntity
  8
Layer
100
AcDbPolyline
 90
5
 70
1
 10
268.82397559522633
 20
260.30922175579104
 10
264.82936240082097
 20
260.1016996435172
 10
264.6218402885471
 20
264.09631283792254
 10
268.61645348295247
 20
264.3038349501964
 10
268.82397559522633
 20
260.30922175579104
  0
LWPOLYLINE
  5
93
330
17
100
AcDbEntity
  8
Layer
100
AcDbPolyline
 90
5
 70
1
 10
109.1083915153669
 20
235.6449053672001
 10
105.28484124966307
 20
234.46997414979367
 10
104.10991003225668
 20
238.2935244154975
 10
107.93346029796051
 20
239.46845563290393
 10
109.1083915153669
 20
235.6449053672001
  0
LWPOLYLINE
  5
94
330
17
100
AcDbEntity
  8
Layer
100
AcDbPolyline
 90
5
 70
1
 10
28.347508161264653
 20
196.26897003211457
 10
26.829548044761555
 20
194.96674229292842
 10
23.57397869679615
 20
198.76164258418618
 10
25.091938813299247
 20
200.06387032337233
 10
28.347508161264653
 20
196.26897003211457
  0
LWPOLYLINE
  5
95
330
17
100
AcDbEntity
  8
Layer
100
AcDbPolyline
 90
5
 70
1
 10
18.864564633361628
 20
167.83785983718764
 10
20.54411444202631
 20
166.75199039742313
 10
17.829440842615096
 20
162.55311587576142
 10
16.149891033950414
 20
163.63898531552593
 10
18.864564633361628
 20
167.83785983718764
  0
LWPOLYLINE
  5
96
330
17
100
AcDbEntity
  8
Layer
100
AcDbPolyline
 90
5
 70
1
 10
144.27852868135
 20
145.16225643330284
 10
148.27143242361262
 20
144.92409744223795
 10
148.03327343254773
 20
140.93119369997532
 10
144.0403696902851
 20
141.16935269104022
 10
144.27852868135
 20
145.16225643330284
  0
LWPOLYLINE
  5
97
330
17
100
AcDbEntity
  8
Layer
100
AcDbPolyline
 90
300
 70
1
 10
416.88792657978706
 20
200.0
 10
416.8765586845783
 20
201.15003754637013
 10
416.8424600186945
 20
202.29956726853464
 10
416.78564563914654
 20
203.44808156652883
 10
416.7061406335651
 20
204.59507328877072
 10
416.6039801091225
 20
205.74003595600485
 10
416.4792091770304
 20
206.88246398494945
 10
416.33188293261986
 20
208.02185291154754
 10
416.1620664310131
 20
209.15769961372428
 10
415.96983465839673
 20
210.28950253355134
 10
415.7552724989099
 20
211.41676189872095
 10
415.51847469716216
 20
212.53897994323103
 10
415.2595458163966
 20
213.65566112718486
 10
414.9786001923178
 20
214.76631235560748
 10
414.6757618826044
 20
215.87044319618252
 10
414.35116461212874
 20
216.96756609581334
 10
414.0049517139077
 20
218.05719659591273
 10
413.6372760658108
 20
219.1388535463262
 10
413.2483000230538
 20
220.21205931779434
 10
412.838195346507
 20
221.27634001286043
 10
412.4071431268507
 20
222.33122567513024
 10
411.95533370461044
 20
223.3762504967916
 10
411.4829665861082
 20
224.41095302430188
 10
410.99025035536573
 20
225.434876362153
 10
410.477402582
 20
226.4475683746236
 10
409.9446497251506
 20
227.44858188542938
 10
409.39222703348145
 20
228.43747487518368
 10
408.8203784413018
 20
229.4138106765807
 10
408.2293564608518
 20
230.3771581672155
 10
407.61942207080006
 20
231.32709195995557
 10
406.9908446010029
 20
232.26319259077977
 10
406.3439016135758
 20
233.18504670400182
 10
405.6788787803298
 20
234.09224723479656
 10
404.99606975662687
 20
234.98439358894836
 10
404.2957760517101
 20
235.86109181974214
 10
403.5783068955655
 20
236.72195480191928
 10
402.84397910237476
 20
237.5666024026211
 10
402.09311693061926
 20
238.39466164924497
 10
401.3260519398964
 20
239.20576689413835
 10
400.54312284451225
 20
239.99955997605866
 10
399.74467536391506
 20
240.7756903783271
 10
398.93106207003507
 20
241.53381538360708
 10
398.1026422315986
 20
242.27360022523823
 10
397.2597816554854
 20
242.99471823506033
 10
396.40285252519845
 20
243.69685098766055
 10
395.5322332365181
 20
244.3796884409812
 10
394.6483082304132
 20
245.04292907322554
 10
393.75146782328306
 20
245.68628001600132
 10
392.8421080346043
 20
246.30945718364333
 10
391.9206304120601
 20
246.91218539865747
 10
390.98744185422805
 20
247.49419851323148
 10
390.0429544309048
 20
248.05523952675833
 10
389.0875852011481
 20
248.59506069932036
 10
388.1217560291151
 20
249.11342366108434
 10
387.145893397779
 20
249.61009951755892
 10
386.1604282206061
 20
250.08486895066784
 10
385.16579565127665
 20
250.53752231559474
 10
384.1624348915333
 20
250.96785973335642
 10
383.15078899724165
 20
251.37569117906367
 10
382.13130468274977
 20
251.76083656583094
 10
381.1044321236312
 20
252.1231258242978
 10
380.0706247579005
 20
252.4623989777265
 10
379.0303390857873
 20
252.7785062126435
 10
377.98403446815945
 20
253.07130794499253
 10
376.9321729236812
 20
253.34067488177138
 10
375.8752189247996
 20
253.58648807812372
 10
374.813639192646
 20
253.80863898986198
 10
373.74790249094553
 20
254.00702952139733
 10
372.67847941902386
 20
254.18157206905596
 10
371.6058422040041
 20
254.3321895597624
 10
370.5304644922844
 20
254.45881548507282
 10
369.45282114038923
 20
254.56139393054326
 10
368.3733880052858
 20
254.6398796004199
 10
367.29264173425923
 20
254.6942378376404
 10
366.21105955443875
 20
254.7244446391374
 10
365.129119062067
 20
254.7304866664378
 10
364.04729801160767
 20
254.71236125155235
 10
362.966074104782
 20
254.67007639815407
 10
361.88592477962976
 20
254.60365077804383
 10
360.8073269996853
 20
254.5131137229055
 10
359.7307570433645
 20
254.39850521135395
 10
358.6566902936535
 20
254.25987585128146
 10
357.5856010281927
 20
254.0972868575109
 10
356.51796220984926
 20
253.91081002476488
 10
355.4542452778702
 20
253.70052769596313
 10
354.39491993970785
 20
253.4665327258624
 10
353.34045396361023
 20
253.2089284400543
 10
352.29131297206794
 20
252.92782858933953
 10
351.2479602362084
 20
252.62335729949888
 10
350.21085647122817
 20
252.29564901648274
 10
349.1804596329542
 20
251.94484844704354
 10
348.1572247156234
 20
251.57111049483728
 10
347.14160355097
 20
251.17460019202255
 10
346.1340446087095
 20
250.7554926263868
 10
345.13499279850674
 20
250.31397286403268
 10
344.1448892735167
 20
249.85023586765794
 10
343.1641712355835
 20
249.36448641046547
 10
342.1932717421844
 20
248.85693898574112
 10
341.23261951520357
 20
248.32781771213968
 10
340.2826387516211
 20
247.77735623472012
 10
339.3437489361991
 20
247.2057976217748
 10
338.4163646562493
 20
246.61339425749713
 10
337.5008954185628
 20
246.00040773053598
 10
336.5977454685833
 20
245.36710871848538
 10
335.7073136119041
 20
244.7137768683609
 10
334.8299930381665
 20
244.04070067311554
 10
333.9661711474382
 20
243.34817734424928
 10
333.11622937914854
 20
242.63651268056879
 10
332.2805430436556
 20
241.90602093315536
 10
331.45948115651964
 20
241.1570246666005
 10
330.6534062755561
 20
240.38985461657043
 10
329.86267434074057
 20
239.6048495437625
 10
329.0876345170354
 20
238.80235608431803
 10
328.32862904020845
 20
237.98272859675765
 10
327.5859930657115
 20
237.1463290055064
 10
326.8600545206847
 20
236.29352664107816
 10
326.15113395915364
 20
235.42469807698967
 10
325.45954442048134
 20
234.54022696347639
 10
324.785591291139
 20
233.6405038580831
 10
324.12957216985603
 20
232.7259260532049
 10
323.49177673620864
 20
231.796897400654
 10
322.8724866227057
 20
230.85382813333018
 10
322.27197529042763
 20
229.89713468407342
 10
321.6905079082736
 20
228.92723950177884
 10
321.12834123587066
 20
227.94457086485534
 10
320.5857235101957
 20
226.94956269210968
 10
320.06289433596106
 20
225.94265435114033
 10
319.5600845798118
 20
224.92429046432505
 10
319.0775162683816
 20
223.89492071248813
 10
318.6154024902519
 20
222.85499963633407
 10
318.17394730185816
 20
221.8049864357351
 10
317.75334563738403
 20
220.74534476696152
 10
317.35378322268417
 20
219.67654253794416
 10
316.9754364932727
 20
218.5990517016593
 10
316.61847251641456
 20
217.51334804772767
 10
316.28304891735286
 20
216.41991099231905
 10
315.9693138097065
 20
215.31922336645556
 10
315.6774057300669
 20
214.2117712028072
 10
315.4074535768245
 20
213.09804352107335
 10
315.15957655325076
 20
211.9785321120456
 10
314.93388411486126
 20
210.8537313204466
 10
314.73047592108327
 20
209.7241378266415
 10
314.54944179124897
 20
208.59025042731778
 10
314.3908616649338
 20
207.45256981523082
 10
314.25480556665735
 20
206.31159835811184
 10
314.14133357496246
 20
205.16783987683664
 10
314.0504957958863
 20
204.02179942295248
 10
313.98233234083494
 20
202.87398305566143
 10
313.9368733088712
 20
201.7248976183589
 10
313.91413877342393
 20
200.575050514826
 10
313.91413877342393
 20
199.42494948517404
 10
313.9368733088712
 20
198.2751023816411
 10
313.98233234083494
 20
197.12601694433857
 10
314.0504957958863
 20
195.97820057704752
 10
314.14133357496246
 20
194.83216012316333
 10
314.25480556665735
 20
193.6884016418882
 10
314.3908616649338
 20
192.5474301847692
 10
314.54944179124897
 20
191.40974957268222
 10
314.73047592108327
 20
190.27586217335852
 10
314.93388411486126
 20
189.1462686795534
 10
315.15957655325076
 20
188.0214678879544
 10
315.4074535768245
 20
186.90195647892662
 10
315.6774057300669
 20
185.78822879719283
 10
315.9693138097065
 20
184.68077663354444
 10
316.28304891735286
 20
183.58008900768095
 10
316.61847251641456
 20
182.48665195227233
 10
316.9754364932727
 20
181.4009482983407
 10
317.35378322268417
 20
180.32345746205584
 10
317.75334563738403
 20
179.25465523303848
 10
318.17394730185816
 20
178.1950135642649
 10
318.6154024902519
 20
177.14500036366593
 10
319.0775162683816
 20
176.10507928751187
 10
319.56008457981176
 20
175.07570953567495
 10
320.062894335961
 20
174.05734564885967
 10
320.5857235101957
 20
173.05043730789032
 10
321.12834123587066
 20
172.05542913514466
 10
321.6905079082736
 20
171.07276049822113
 10
322.27197529042763
 20
170.1028653159266
 10
322.8724866227057
 20
169.14617186666982
 10
323.49177673620864
 20
168.203102599346
 10
324.12957216985603
 20
167.27407394679514
 10
324.785591291139
 20
166.35949614191694
 10
325.45954442048134
 20
165.45977303652364
 10
326.15113395915364
 20
164.5753019230103
 10
326.8600545206847
 20
163.70647335892184
 10
327.5859930657115
 20
162.8536709944936
 10
328.32862904020845
 20
162.01727140324238
 10
329.0876345170354
 20
161.19764391568197
 10
329.86267434074057
 20
160.3951504562375
 10
330.6534062755561
 20
159.61014538342957
 10
331.45948115651964
 20
158.8429753333995
 10
332.2805430436556
 20
158.09397906684464
 10
333.11622937914854
 20
157.36348731943124
 10
333.96617114743816
 20
156.65182265575075
 10
334.8299930381665
 20
155.95929932688446
 10
335.7073136119041
 20
155.28622313163913
 10
336.5977454685833
 20
154.63289128151465
 10
337.5008954185628
 20
153.99959226946402
 10
338.4163646562493
 20
153.38660574250287
 10
339.3437489361991
 20
152.79420237822518
 10
340.2826387516211
 20
152.22264376527988
 10
341.23261951520357
 20
151.67218228786032
 10
342.1932717421844
 20
151.14306101425888
 10
343.1641712355835
 20
150.63551358953453
 10
344.1448892735167
 20
150.14976413234209
 10
345.1349927985067
 20
149.68602713596735
 10
346.1340446087095
 20
149.2445073736132
 10
347.14160355097
 20
148.82539980797745
 10
348.1572247156234
 20
148.42888950516272
 10
349.1804596329542
 20
148.05515155295646
 10
350.21085647122817
 20
147.70435098351726
 10
351.2479602362084
 20
147.37664270050112
 10
352.29131297206794
 20
147.07217141066047
 10
353.34045396361023
 20
146.7910715599457
 10
354.39491993970785
 20
146.5334672741376
 10
355.45424527787026
 20
146.29947230403687
 10
356.5179622098493
 20
146.08918997523512
 10
357.5856010281927
 20
145.9027131424891
 10
358.6566902936535
 20
145.74012414871854
 10
359.7307570433645
 20
145.60149478864605
 10
360.80732699968524
 20
145.4868862770945
 10
361.8859247796297
 20
145.39634922195617
 10
362.966074104782
 20
145.32992360184593
 10
364.04729801160767
 20
145.28763874844765
 10
365.129119062067
 20
145.2695133335622
 10
366.21105955443875
 20
145.2755553608626
 10
367.29264173425923
 20
145.3057621623596
 10
368.3733880052858
 20
145.3601203995801
 10
369.45282114038923
 20
145.43860606945674
 10
370.5304644922844
 20
145.54118451492718
 10
371.6058422040041
 20
145.6678104402376
 10
372.67847941902386
 20
145.81842793094404
 10
373.74790249094553
 20
145.99297047860267
 10
374.81363919264606
 20
146.19136101013802
 10
375.8752189247996
 20
146.41351192187625
 10
376.9321729236812
 20
146.6593251182286
 10
377.9840344681594
 20
146.92869205500745
 10
379.0303390857873
 20
147.2214937873565
 10
380.0706247579004
 20
147.53760102227346
 10
381.1044321236312
 20
147.8768741757022
 10
382.13130468274977
 20
148.23916343416906
 10
383.15078899724165
 20
148.62430882093633
 10
384.1624348915333
 20
149.03214026664358
 10
385.16579565127665
 20
149.46247768440526
 10
386.1604282206061
 20
149.91513104933216
 10
387.145893397779
 20
150.38990048244108
 10
388.1217560291151
 20
150.88657633891566
 10
389.0875852011481
 20
151.40493930067967
 10
390.0429544309048
 20
151.9447604732417
 10
390.987441854228
 20
152.5058014867685
 10
391.9206304120601
 20
153.08781460134253
 10
392.8421080346043
 20
153.69054281635664
 10
393.751467823283
 20
154.31371998399868
 10
394.6483082304132
 20
154.95707092677446
 10
395.53223323651804
 20
155.6203115590188
 10
396.40285252519845
 20
156.30314901233942
 10
397.2597816554854
 20
157.00528176493967
 10
398.1026422315986
 20
157.72639977476177
 10
398.93106207003507
 20
158.46618461639292
 10
399.74467536391506
 20
159.2243096216729
 10
400.54312284451225
 20
160.00044002394134
 10
401.3260519398964
 20
160.79423310586168
 10
402.09311693061926
 20
161.60533835075506
 10
402.84397910237476
 20
162.4333975973789
 10
403.57830689556545
 20
163.2780451980807
 10
404.2957760517101
 20
164.13890818025783
 10
404.99606975662687
 20
165.01560641105164
 10
405.6788787803298
 20
165.90775276520344
 10
406.3439016135758
 20
166.81495329599818
 10
406.9908446010029
 20
167.73680740922023
 10
407.61942207080006
 20
168.6729080400444
 10
408.2293564608518
 20
169.6228418327845
 10
408.8203784413018
 20
170.5861893234193
 10
409.39222703348145
 20
171.56252512481632
 10
409.9446497251506
 20
172.55141811457062
 10
410.477402582
 20
173.5524316253764
 10
410.99025035536573
 20
174.56512363784702
 10
411.4829665861082
 20
175.58904697569812
 10
411.95533370461044
 20
176.62374950320842
 10
412.4071431268507
 20
177.66877432486973
 10
412.838195346507
 20
178.72365998713957
 10
413.2483000230538
 20
179.78794068220563
 10
413.6372760658108
 20
180.86114645367377
 10
414.0049517139077
 20
181.94280340408724
 10
414.35116461212874
 20
183.03243390418663
 10
414.6757618826044
 20
184.12955680381748
 10
414.9786001923178
 20
185.23368764439252
 10
415.2595458163966
 20
186.34433887281514
 10
415.51847469716216
 20
187.46102005676897
 10
415.7552724989099
 20
188.58323810127905
 10
415.96983465839673
 20
189.71049746644866
 10
416.1620664310131
 20
190.84230038627572
 10
416.33188293261986
 20
191.97814708845246
 10
416.4792091770304
 20
193.11753601505058
 10
416.6039801091225
 20
194.25996404399513
 10
416.7061406335651
 20
195.40492671122925
 10
416.78564563914654
 20
196.55191843347114
 10
416.8424600186945
 20
197.70043273146533
 10
416.8765586845783
 20
198.84996245362987
 10
416.88792657978706
 20
200.0
  0
LWPOLYLINE
  5
98
330
17
100
AcDbEntity
  8
Layer
100
AcDbPolyline
 90
5
 70
1
 10
164.05853673127396
 20
205.00000000000003
 10
169.05853673127396
 20
200.00000000000003
 10
164.05853673127396
 20
195.00000000000003
 10
159.05853673127396
 20
200.00000000000003
 10
164.05853673127396
 20
205.00000000000003
  0
LWPOLYLINE
  5
99
330
17
100
AcDbEntity
  8
Layer
100
AcDbPolyline
 90
5
 70
1
 10
362.86464016099325
 20
205.0
 10
367.86464016099325
 20
200.0
 10
362.86464016099325
 20
195.0
 10
357.86464016099325
 20
200.0
 10
362.86464016099325
 20
205.0
  0
LWPOLYLINE
  5
9A
330
17
100
AcDbEntity
  8
Layer
100
AcDbPolyline
 90
5
 70
1
 10
199.75227974016389
 20
170.35992674730647
 10
204.42036637987263
 20
165.04871529188762
 10
199.10915492445378
 20
160.38062865217887
 10
194.44106828474503
 20
165.69184010759773
 10
199.75227974016389
 20
170.35992674730647
  0
LWPOLYLINE
  5
9B
330
17
100
AcDbEntity
  8
Layer
100
AcDbPolyline
 90
5
 70
1
 10
429.2299065783225
 20
155.5710352778818
 10
433.89799321803133
 20
150.25982382246295
 10
428.5867817626125
 20
145.5917371827542
 10
423.91869512290367
 20
150.90294863817306
 10
429.2299065783225
 20
155.5710352778818
  0
LWPOLYLINE
  5
9C
330
17
100
AcDbEntity
  8
Layer
100
AcDbPolyline
 90
5
 70
1
 10
210.3996116504855
 20
182.3098835570178
 10
215.3996116504855
 20
187.3098835570178
 10
220.3996116504855
 20
182.3098835570178
 10
215.3996116504855
 20
177.3098835570178
 10
210.3996116504855
 20
182.3098835570178
  0
LWPOLYLINE
  5
9D
330
17
100
AcDbEntity
  8
Layer
100
AcDbPolyline
 90
5
 70
1
 10
210.3996116504855
 20
215.29468507696976
 10
215.3996116504855
 20
220.29468507696976
 10
220.3996116504855
 20
215.29468507696976
 10
215.3996116504855
 20
210.29468507696976
 10
210.3996116504855
 20
215.29468507696976
  0
LINE
  5
9E
330
17
100
AcDbEntity
  8
Layer
 62
7
100
AcDbLine
 10
25.021134444794427
 20
200.00000000000003
 30
0.0
 11
477.6310679611651
 21
200.0
 31
0.0
  0
LINE
  5
9F
330
17
100
AcDbEntity
  8
Layer
 62
7
100
AcDbLine
 10
158.05853673127396
 20
200.00000000000003
 30
0.0
 11
170.05853673127396
 21
200.00000000000003
 31
0.0
  0
LINE
  5
A0
330
17
100
AcDbEntity
  8
Layer
 62
7
100
AcDbLine
 10
356.86464016099325
 20
200.0
 30
0.0
 11
368.86464016099325
 21
200.0
 31
0.0
  0
LINE
  5
A1
330
17
100
AcDbEntity
  8
Layer
 62
7
100
AcDbLine
 10
9.362072099948932
 20
177.619422005494
 30
0.0
 11
477.6310679611651
 21
147.44140659847545
 31
0.0
  0
LINE
  5
A2
330
17
100
AcDbEntity
  8
Layer
 62
7
100
AcDbLine
 10
193.44313847523225
 20
165.75615258916872
 30
0.0
 11
205.41829618938542
 21
164.98440281031662
 31
0.0
  0
LINE
  5
A3
330
17
100
AcDbEntity
  8
Layer
 62
7
100
AcDbLine
 10
422.9207653133909
 20
150.96726111974405
 30
0.0
 11
434.8959230275441
 21
150.19551134089193
 31
0.0
  0
LINE
  5
A4
330
17
100
AcDbEntity
  8
Layer
100
AcDbLine
 10
365.3996116504855
 20
254.73124193548387
 30
0.0
 11
365.3996116504855
 21
255.73124193548387
 31
0.0
  0
LINE
  5
A5
330
17
100
AcDbEntity
  8
Layer
100
AcDbLine
 10
365.3996116504855
 20
145.26875806451613
 30
0.0
 11
365.3996116504855
 21
144.26875806451613
 31
0.0
  0
LINE
  5
A6
330
17
100
AcDbEntity
  8
Layer
100
AcDbLine
 10
416.88792657978706
 20
200.0
 30
0.0
 11
417.88792657978706
 21
200.0
 31
0.0
  0
LINE
  5
A7
330
17
100
AcDbEntity
  8
Layer
100
AcDbLine
 10
313.91129672118393
 20
200.0
 30
0.0
 11
312.91129672118393
 21
200.0
 31
0.0
  0
LINE
  5
A8
330
17
100
AcDbEntity
  8
Layer
 62
7
100
AcDbLine
 10
215.3996116504855
 20
137.32761511707383
 30
0.0
 11
215.3996116504855
 21
260.2769535169137
 31
0.0
  0
LINE
  5
A9
330
17
100
AcDbEntity
  8
Layer
 62
7
100
AcDbLine
 10
215.3996116504855
 20
176.3098835570178
 30
0.0
 11
215.3996116504855
 21
188.3098835570178
 31
0.0
  0
LINE
  5
AA
330
17
100
AcDbEntity
  8
Layer
 62
7
100
AcDbLine
 10
215.3996116504855
 20
209.29468507696976
 30
0.0
 11
215.3996116504855
 21
221.29468507696976
 31
0.0
  0
ENDSEC
  0
SECTION
  2
OBJECTS
  0
DICTIONARY
  5
A
330
0
100
AcDbDictionary
280
0
281
1
  3
ACAD_COLOR
350
B
  3
ACAD_GROUP
350
C
  3
ACAD_LAYOUT
350
D
  3
ACAD_MATERIAL
350
E
  3
ACAD_MLEADERSTYLE
350
F
  3
ACAD_MLINESTYLE
350
10
  3
ACAD_PLOTSETTINGS
350
11
  3
ACAD_PLOTSTYLENAME
350
12
  3
ACAD_SCALELIST
350
14
  3
ACAD_TABLESTYLE
350
15
  3
ACAD_VISUALSTYLE
350
16
  3
EZDXF_META
350
2D
  0
DICTIONARY
  5
B
330
A
100
AcDbDictionary
280
0
281
1
  0
DICTIONARY
  5
C
330
A
100
AcDbDictionary
280
0
281
1
  0
DICTIONARY
  5
D
330
A
100
AcDbDictionary
280
0
281
1
  3
Model
350
1A
  3
Layout1
350
1E
  0
DICTIONARY
  5
E
330
A
100
AcDbDictionary
280
0
281
1
  3
ByBlock
350
1F
  3
ByLayer
350
20
  3
Global
350
21
  0
DICTIONARY
  5
F
330
A
100
AcDbDictionary
280
0
281
1
  3
Standard
350
2C
  0
DICTIONARY
  5
10
330
A
100
AcDbDictionary
280
0
281
1
  3
Standard
350
22
  0
DICTIONARY
  5
11
330
A
100
AcDbDictionary
280
0
281
1
  0
ACDBDICTIONARYWDFLT
  5
12
330
A
100
AcDbDictionary
280
0
281
1
  3
Normal
350
13
100
AcDbDictionaryWithDefault
340
13
  0
ACDBPLACEHOLDER
  5
13
330
12
  0
DICTIONARY
  5
14
330
A
100
AcDbDictionary
280
0
281
1
  0
DICTIONARY
  5
15
330
A
100
AcDbDictionary
280
0
281
1
  0
DICTIONARY
  5
16
330
A
100
AcDbDictionary
280
0
281
1
  3
2dWireframe
350
5A
  3
Basic
350
5B
  3
Brighten
350
5C
  3
ColorChange
350
5D
  3
Conceptual
350
5E
  3
Dim
350
5F
  3
EdgeColorOff
350
60
  3
Facepattern
350
61
  3
Flat
350
62
  3
FlatWithEdges
350
63
  3
Gouraud
350
64
  3
GouraudWithEdges
350
65
  3
Hidden
350
66
  3
JitterOff
350
67
  3
Linepattern
350
68
  3
Modeling
350
69
  3
OverhangOff
350
6A
  3
Realistic
350
6B
  3
Shaded
350
6C
  3
Shaded with edges
350
6D
  3
Shades of Gray
350
6E
  3
Sketchy
350
6F
  3
Thicken
350
70
  3
Wireframe
350
71
  3
X-Ray
350
72
  0
LAYOUT
  5
1A
330
D
100
AcDbPlotSettings
  1

  2
Adobe PDF
  4
A3
  6

 40
7.5
 41
20.0
 42
7.5
 43
20.0
 44
420.0
 45
297.0
 46
0.0
 47
0.0
 48
0.0
 49
0.0
140
0.0
141
0.0
142
1.0
143
1.0
 70
1024
 72
1
 73
0
 74
5
  7

 75
16
 76
0
 77
2
 78
300
147
1.0
148
0.0
149
0.0
100
AcDbLayout
  1
Model
 70
1
 71
0
 10
0.0
 20
0.0
 11
420.0
 21
297.0
 12
0.0
 22
0.0
 32
0.0
 14
1e+20
 24
1e+20
 34
1e+20
 15
-1e+20
 25
-1e+20
 35
-1e+20
146
0.0
 13
0.0
 23
0.0
 33
0.0
 16
1.0
 26
0.0
 36
0.0
 17
0.0
 27
1.0
 37
0.0
 76
1
330
17
  0
LAYOUT
  5
1E
330
D
100
AcDbPlotSettings
  1

  2
Adobe PDF
  4
A3
  6

 40
7.5
 41
20.0
 42
7.5
 43
20.0
 44
420.0
 45
297.0
 46
0.0
 47
0.0
 48
0.0
 49
0.0
140
0.0
141
0.0
142
1.0
143
1.0
 70
0
 72
1
 73
0
 74
5
  7

 75
16
 76
0
 77
2
 78
300
147
1.0
148
0.0
149
0.0
100
AcDbLayout
  1
Layout1
 70
1
 71
1
 10
0.0
 20
0.0
 11
420.0
 21
297.0
 12
0.0
 22
0.0
 32
0.0
 14
1e+20
 24
1e+20
 34
1e+20
 15
-1e+20
 25
-1e+20
 35
-1e+20
146
0.0
 13
0.0
 23
0.0
 33
0.0
 16
1.0
 26
0.0
 36
0.0
 17
0.0
 27
1.0
 37
0.0
 76
1
330
1B
  0
MATERIAL
  5
1F
102
{ACAD_REACTORS
330
E
102
}
330
E
100
AcDbMaterial
  1
ByBlock
  2

 70
0
 40
1.0
 71
1
 41
1.0
 91
-1023410177
 42
1.0
 72
1
  3

 73
1
 74
1
 75
1
 44
0.5
 73
0
 45
1.0
 46
1.0
 77
1
  4

 78
1
 79
1
170
1
 48
1.0
171
1
  6

172
1
173
1
174
1
140
1.0
141
1.0
175
1
  7

176
1
177
1
178
1
143
1.0
179
1
  8

270
1
271
1
272
1
145
1.0
146
1.0
273
1
  9

274
1
275
1
276
1
 42
1.0
 72
1
  3

 73
1
 74
1
 75
1
 94
63
  0
MATERIAL
  5
20
102
{ACAD_REACTORS
330
E
102
}
330
E
100
AcDbMaterial
  1
ByLayer
  2

 70
0
 40
1.0
 71
1
 41
1.0
 91
-1023410177
 42
1.0
 72
1
  3

 73
1
 74
1
 75
1
 44
0.5
 73
0
 45
1.0
 46
1.0
 77
1
  4

 78
1
 79
1
170
1
 48
1.0
171
1
  6

172
1
173
1
174
1
140
1.0
141
1.0
175
1
  7

176
1
177
1
178
1
143
1.0
179
1
  8

270
1
271
1
272
1
145
1.0
146
1.0
273
1
  9

274
1
275
1
276
1
 42
1.0
 72
1
  3

 73
1
 74
1
 75
1
 94
63
  0
MATERIAL
  5
21
102
{ACAD_REACTORS
330
E
102
}
330
E
100
AcDbMaterial
  1
Global
  2

 70
0
 40
1.0
 71
1
 41
1.0
 91
-1023410177
 42
1.0
 72
1
  3

 73
1
 74
1
 75
1
 44
0.5
 73
0
 45
1.0
 46
1.0
 77
1
  4

 78
1
 79
1
170
1
 48
1.0
171
1
  6

172
1
173
1
174
1
140
1.0
141
1.0
175
1
  7

176
1
177
1
178
1
143
1.0
179
1
  8

270
1
271
1
272
1
145
1.0
146
1.0
273
1
  9

274
1
275
1
276
1
 42
1.0
 72
1
  3

 73
1
 74
1
 75
1
 94
63
  0
MLINESTYLE
  5
22
102
{ACAD_REACTORS
330
10
102
}
330
10
100
AcDbMlineStyle
  2
Standard
 70
0
  3

 62
256
 51
90.0
 52
90.0
 71
2
 49
0.5
 62
256
  6
BYLAYER
 49
-0.5
 62
256
  6
BYLAYER
  0
MLEADERSTYLE
  5
2C
102
{ACAD_REACTORS
330
F
102
}
330
F
100
AcDbMLeaderStyle
179
2
170
2
171
1
172
0
 90
2
 40
0.0
 41
0.0
173
1
 91
-1056964608
 92
-2
290
1
 42
2.0
291
1
 43
8.0
  3
Standard
 44
4.0
300

342
29
174
1
175
1
176
0
178
1
 93
-1056964608
 45
4.0
292
0
297
0
 46
4.0
 94
-1056964608
 47
1.0
 49
1.0
140
1.0
294
1
141
0.0
177
0
142
1.0
295
0
296
0
143
3.75
271
0
272
9
273
9
  0
DICTIONARY
  5
2D
330
A
100
AcDbDictionary
281
1
  3
CREATED_BY_EZDXF
350
2E
  3
WRITTEN_BY_EZDXF
350
AD
  0
DICTIONARYVAR
  5
2E
330
2D
100
DictionaryVariables
280
0
  1
1.3.0 @ 2026-01-06T17:07:12.209861+00:00
  0
VISUALSTYLE
  5
5A
102
{ACAD_REACTORS
330
16
102
}
330
16
100
AcDbVisualStyle
  2
2dWireframe
 70
4
 90
0
 40
0.6
 62
7
290
0
291
0
  0
VISUALSTYLE
  5
5B
102
{ACAD_REACTORS
330
16
102
}
330
16
100
AcDbVisualStyle
  2
Basic
 70
7
 90
1
 40
0.6
 62
7
290
0
291
1
  0
VISUALSTYLE
  5
5C
102
{ACAD_REACTORS
330
16
102
}
330
16
100
AcDbVisualStyle
  2
Brighten
 70
12
 90
2
 40
0.6
 62
7
290
0
291
1
  0
VISUALSTYLE
  5
5D
102
{ACAD_REACTORS
330
16
102
}
330
16
100
AcDbVisualStyle
  2
ColorChange
 70
16
 90
2
 40
0.6
 62
8
290
0
291
1
  0
VISUALSTYLE
  5
5E
102
{ACAD_REACTORS
330
16
102
}
330
16
100
AcDbVisualStyle
  2
Conceptual
 70
9
 90
3
 40
0.6
 62
7
290
0
291
0
  0
VISUALSTYLE
  5
5F
102
{ACAD_REACTORS
330
16
102
}
330
16
100
AcDbVisualStyle
  2
Dim
 70
11
 90
2
 40
0.6
 62
7
290
0
291
1
  0
VISUALSTYLE
  5
60
102
{ACAD_REACTORS
330
16
102
}
330
16
100
AcDbVisualStyle
  2
EdgeColorOff
 70
22
 90
2
 40
0.6
 62
7
290
0
291
1
  0
VISUALSTYLE
  5
61
102
{ACAD_REACTORS
330
16
102
}
330
16
100
AcDbVisualStyle
  2
Facepattern
 70
15
 90
2
 40
0.6
 62
7
290
0
291
1
  0
VISUALSTYLE
  5
62
102
{ACAD_REACTORS
330
16
102
}
330
16
100
AcDbVisualStyle
  2
Flat
 70
0
 90
2
 40
0.6
 62
7
290
0
291
1
  0
VISUALSTYLE
  5
63
102
{ACAD_REACTORS
330
16
102
}
330
16
100
AcDbVisualStyle
  2
FlatWithEdges
 70
1
 90
2
 40
0.6
 62
7
290
0
291
1
  0
VISUALSTYLE
  5
64
102
{ACAD_REACTORS
330
16
102
}
330
16
100
AcDbVisualStyle
  2
Gouraud
 70
2
 90
2
 40
0.6
 62
7
290
0
291
1
  0
VISUALSTYLE
  5
65
102
{ACAD_REACTORS
330
16
102
}
330
16
100
AcDbVisualStyle
  2
GouraudWithEdges
 70
3
 90
2
 40
0.6
 62
7
290
0
291
1
  0
VISUALSTYLE
  5
66
102
{ACAD_REACTORS
330
16
102
}
330
16
100
AcDbVisualStyle
  2
Hidden
 70
6
 90
1
 40
0.6
 62
7
290
0
291
0
  0
VISUALSTYLE
  5
67
102
{ACAD_REACTORS
330
16
102
}
330
16
100
AcDbVisualStyle
  2
JitterOff
 70
20
 90
2
 40
0.6
 62
7
290
0
291
1
  0
VISUALSTYLE
  5
68
102
{ACAD_REACTORS
330
16
102
}
330
16
100
AcDbVisualStyle
  2
Linepattern
 70
14
 90
2
 40
0.6
 62
7
290
0
291
1
  0
VISUALSTYLE
  5
69
102
{ACAD_REACTORS
330
16
102
}
330
16
100
AcDbVisualStyle
  2
Modeling
 70
10
 90
2
 40
0.6
 62
7
290
0
291
0
  0
VISUALSTYLE
  5
6A
102
{ACAD_REACTORS
330
16
102
}
330
16
100
AcDbVisualStyle
  2
OverhangOff
 70
21
 90
2
 40
0.6
 62
7
290
0
291
1
  0
VISUALSTYLE
  5
6B
102
{ACAD_REACTORS
330
16
102
}
330
16
100
AcDbVisualStyle
  2
Realistic
 70
8
 90
2
 40
0.6
 62
7
290
0
291
0
  0
VISUALSTYLE
  5
6C
102
{ACAD_REACTORS
330
16
102
}
330
16
100
AcDbVisualStyle
  2
Shaded
 70
27
 90
2
 40
0.6
 62
7
290
0
291
0
  0
VISUALSTYLE
  5
6D
102
{ACAD_REACTORS
330
16
102
}
330
16
100
AcDbVisualStyle
  2
Shaded with edges
 70
26
 90
2
 40
0.6
 62
7
290
0
291
0
  0
VISUALSTYLE
  5
6E
102
{ACAD_REACTORS
330
16
102
}
330
16
100
AcDbVisualStyle
  2
Shades of Gray
 70
23
 90
2
 40
0.6
 62
7
290
0
291
0
  0
VISUALSTYLE
  5
6F
102
{ACAD_REACTORS
330
16
102
}
330
16
100
AcDbVisualStyle
  2
Sketchy
 70
24
 90
1
 40
0.6
 62
7
290
0
291
0
  0
VISUALSTYLE
  5
70
102
{ACAD_REACTORS
330
16
102
}
330
16
100
AcDbVisualStyle
  2
Thicken
 70
13
 90
2
 40
0.6
 62
7
290
0
291
1
  0
VISUALSTYLE
  5
71
102
{ACAD_REACTORS
330
16
102
}
330
16
100
AcDbVisualStyle
  2
Wireframe
 70
5
 90
0
 40
0.6
 62
7
290
0
291
0
  0
VISUALSTYLE
  5
72
102
{ACAD_REACTORS
330
16
102
}
330
16
100
AcDbVisualStyle
  2
X-Ray
 70
25
 90
2
 40
0.5
 62
7
290
0
291
0
  0
DICTIONARYVAR
  5
AD
330
2D
100
DictionaryVariables
280
0
  1
1.3.0 @ 2026-01-06T17:07:12.230688+00:00
  0
ENDSEC
  0
EOF
