  0
SECTION
  2
HEADER
  9
$ACADVER
  1
AC1021
  9
$ACADMAINTVER
 70
25
  9
$DWGCODEPAGE
  3
ANSI_1252
  9
$LASTSAVEDBY
  1
ezdxf
  9
$INSBASE
 10
0.0
 20
0.0
 30
0.0
  9
$EXTMIN
 10
1e+20
 20
1e+20
 30
1e+20
  9
$EXTMAX
 10
-1e+20
 20
-1e+20
 30
-1e+20
  9
$LIMMIN
 10
0.0
 20
0.0
  9
$LIMMAX
 10
420.0
 20
297.0
  9
$ORTHOMODE
 70
0
  9
$REGENMODE
 70
1
  9
$FILLMODE
 70
1
  9
$QTEXTMODE
 70
0
  9
$MIRRTEXT
 70
1
  9
$LTSCALE
 40
1.0
  9
$ATTMODE
 70
1
  9
$TEXTSIZE
 40
2.5
  9
$TRACEWID
 40
1.0
  9
$TEXTSTYLE
  7
OpenSans
  9
$CLAYER
  8
0
  9
$CELTYPE
  6
ByLayer
  9
$CECOLOR
 62
256
  9
$CELTSCALE
 40
1.0
  9
$DISPSILH
 70
0
  9
$DIMSCALE
 40
1.0
  9
$DIMASZ
 40
0.175
  9
$DIMEXO
 40
0.125
  9
$DIMDLI
 40
3.75
  9
$DIMRND
 40
0.0
  9
$DIMDLE
 40
0.0
  9
$DIMEXE
 40
0.375
  9
$DIMTP
 40
0.0
  9
$DIMTM
 40
0.0
  9
$DIMTXT
 40
0.25
  9
$DIMCEN
 40
2.5
  9
$DIMTSZ
 40
0.0
  9
$DIMTOL
 70
0
  9
$DIMLIM
 70
0
  9
$DIMTIH
 70
0
  9
$DIMTOH
 70
0
  9
$DIMSE1
 70
0
  9
$DIMSE2
 70
0
  9
$DIMTAD
 70
1
  9
$DIMZIN
 70
12
  9
$DIMBLK
  1
ARCHTICK
  9
$DIMASO
 70
1
  9
$DIMSHO
 70
1
  9
$DIMPOST
  1

  9
$DIMAPOST
  1

  9
$DIMALT
 70
0
  9
$DIMALTD
 70
3
  9
$DIMALTF
 40
0.03937007874
  9
$DIMLFAC
 40
100.0
  9
$DIMTOFL
 70
1
  9
$DIMTVP
 40
0.0
  9
$DIMTIX
 70
0
  9
$DIMSOXD
 70
0
  9
$DIMSAH
 70
0
  9
$DIMBLK1
  1

  9
$DIMBLK2
  1

  9
$DIMSTYLE
  2
EZDXF
  9
$DIMCLRD
 70
0
  9
$DIMCLRE
 70
0
  9
$DIMCLRT
 70
0
  9
$DIMTFAC
 40
0.5
  9
$DIMGAP
 40
0.1
  9
$DIMJUST
 70
0
  9
$DIMSD1
 70
0
  9
$DIMSD2
 70
0
  9
$DIMTOLJ
 70
0
  9
$DIMTZIN
 70
8
  9
$DIMALTZ
 70
0
  9
$DIMALTTZ
 70
0
  9
$DIMUPT
 70
1
  9
$DIMDEC
 70
2
  9
$DIMTDEC
 70
2
  9
$DIMALTU
 70
2
  9
$DIMALTTD
 70
3
  9
$DIMTXSTY
  7
OpenSansCondensed-Light
  9
$DIMAUNIT
 70
0
  9
$DIMADEC
 70
2
  9
$DIMALTRND
 40
0.0
  9
$DIMAZIN
 70
3
  9
$DIMDSEP
 70
46
  9
$DIMATFIT
 70
3
  9
$DIMFRAC
 70
0
  9
$DIMLDRBLK
  1

  9
$DIMLUNIT
 70
2
  9
$DIMLWD
 70
-2
  9
$DIMLWE
 70
-2
  9
$DIMTMOVE
 70
2
  9
$DIMFXL
 40
1.0
  9
$DIMFXLON
 70
0
  9
$DIMJOGANG
 40
0.785398163397
  9
$DIMTFILL
 70
0
  9
$DIMTFILLCLR
 70
0
  9
$DIMARCSYM
 70
0
  9
$DIMLTYPE
  6

  9
$DIMLTEX1
  6

  9
$DIMLTEX2
  6

  9
$LUNITS
 70
2
  9
$LUPREC
 70
4
  9
$SKETCHINC
 40
1.0
  9
$FILLETRAD
 40
10.0
  9
$AUNITS
 70
0
  9
$AUPREC
 70
2
  9
$MENU
  1
.
  9
$ELEVATION
 40
0.0
  9
$PELEVATION
 40
0.0
  9
$THICKNESS
 40
0.0
  9
$LIMCHECK
 70
0
  9
$CHAMFERA
 40
0.0
  9
$CHAMFERB
 40
0.0
  9
$CHAMFERC
 40
0.0
  9
$CHAMFERD
 40
0.0
  9
$SKPOLY
 70
0
  9
$TDCREATE
 40
2461048.0883796294
  9
$TDUCREATE
 40
2458532.153996898
  9
$TDUPDATE
 40
2461048.0883796294
  9
$TDUUPDATE
 40
2458532.1544311
  9
$TDINDWG
 40
0.0
  9
$TDUSRTIMER
 40
0.0
  9
$USRTIMER
 70
1
  9
$ANGBASE
 50
0.0
  9
$ANGDIR
 70
0
  9
$PDMODE
 70
0
  9
$PDSIZE
 40
0.0
  9
$PLINEWID
 40
0.0
  9
$SPLFRAME
 70
0
  9
$SPLINETYPE
 70
6
  9
$SPLINESEGS
 70
8
  9
$HANDSEED
  5
B0
  9
$SURFTAB1
 70
6
  9
$SURFTAB2
 70
6
  9
$SURFTYPE
 70
6
  9
$SURFU
 70
6
  9
$SURFV
 70
6
  9
$UCSBASE
  2

  9
$UCSNAME
  2

  9
$UCSORG
 10
0.0
 20
0.0
 30
0.0
  9
$UCSXDIR
 10
1.0
 20
0.0
 30
0.0
  9
$UCSYDIR
 10
0.0
 20
1.0
 30
0.0
  9
$UCSORTHOREF
  2

  9
$UCSORTHOVIEW
 70
0
  9
$UCSORGTOP
 10
0.0
 20
0.0
 30
0.0
  9
$UCSORGBOTTOM
 10
0.0
 20
0.0
 30
0.0
  9
$UCSORGLEFT
 10
0.0
 20
0.0
 30
0.0
  9
$UCSORGRIGHT
 10
0.0
 20
0.0
 30
0.0
  9
$UCSORGFRONT
 10
0.0
 20
0.0
 30
0.0
  9
$UCSORGBACK
 10
0.0
 20
0.0
 30
0.0
  9
$PUCSBASE
  2

  9
$PUCSNAME
  2

  9
$PUCSORG
 10
0.0
 20
0.0
 30
0.0
  9
$PUCSXDIR
 10
1.0
 20
0.0
 30
0.0
  9
$PUCSYDIR
 10
0.0
 20
1.0
 30
0.0
  9
$PUCSORTHOREF
  2

  9
$PUCSORTHOVIEW
 70
0
  9
$PUCSORGTOP
 10
0.0
 20
0.0
 30
0.0
  9
$PUCSORGBOTTOM
 10
0.0
 20
0.0
 30
0.0
  9
$PUCSORGLEFT
 10
0.0
 20
0.0
 30
0.0
  9
$PUCSORGRIGHT
 10
0.0
 20
0.0
 30
0.0
  9
$PUCSORGFRONT
 10
0.0
 20
0.0
 30
0.0
  9
$PUCSORGBACK
 10
0.0
 20
0.0
 30
0.0
  9
$USERI1
 70
0
  9
$USERI2
 70
0
  9
$USERI3
 70
0
  9
$USERI4
 70
0
  9
$USERI5
 70
0
  9
$USERR1
 40
0.0
  9
$USERR2
 40
0.0
  9
$USERR3
 40
0.0
  9
$USERR4
 40
0.0
  9
$USERR5
 40
0.0
  9
$WORLDVIEW
 70
1
  9
$SHADEDGE
 70
3
  9
$SHADEDIF
 70
70
  9
$TILEMODE
 70
1
  9
$MAXACTVP
 70
64
  9
$PINSBASE
 10
0.0
 20
0.0
 30
0.0
  9
$PLIMCHECK
 70
0
  9
$PEXTMIN
 10
1e+20
 20
1e+20
 30
1e+20
  9
$PEXTMAX
 10
-1e+20
 20
-1e+20
 30
-1e+20
  9
$PLIMMIN
 10
0.0
 20
0.0
  9
$PLIMMAX
 10
420.0
 20
297.0
  9
$UNITMODE
 70
0
  9
$VISRETAIN
 70
1
  9
$PLINEGEN
 70
0
  9
$PSLTSCALE
 70
1
  9
$TREEDEPTH
 70
3020
  9
$CMLSTYLE
  2
Standard
  9
$CMLJUST
 70
0
  9
$CMLSCALE
 40
20.0
  9
$PROXYGRAPHICS
 70
1
  9
$MEASUREMENT
 70
1
  9
$CELWEIGHT
370
-1
  9
$ENDCAPS
280
0
  9
$JOINSTYLE
280
0
  9
$LWDISPLAY
290
0
  9
$INSUNITS
 70
6
  9
$HYPERLINKBASE
  1

  9
$STYLESHEET
  1

  9
$XEDIT
290
1
  9
$CEPSNTYPE
380
0
  9
$PSTYLEMODE
290
1
  9
$FINGERPRINTGUID
  2
{1F81C8D7-4D91-4719-AA68-D705BD8E0041}
  9
$VERSIONGUID
  2
{8C30D5E6-9D34-48D5-9CEF-A0ABB9E8096A}
  9
$EXTNAMES
290
1
  9
$PSVPSCALE
 40
0.0
  9
$OLESTARTUP
290
0
  9
$SORTENTS
280
127
  9
$INDEXCTL
280
0
  9
$HIDETEXT
280
1
  9
$XCLIPFRAME
290
1
  9
$HALOGAP
280
0
  9
$OBSCOLOR
 70
257
  9
$OBSLTYPE
280
0
  9
$INTERSECTIONDISPLAY
280
0
  9
$INTERSECTIONCOLOR
 70
257
  9
$DIMASSOC
280
2
  9
$PROJECTNAME
  1

  9
$CAMERADISPLAY
290
0
  9
$LENSLENGTH
 40
50.0
  9
$CAMERAHEIGHT
 40
0.0
  9
$STEPSPERSEC
 40
24.0
  9
$STEPSIZE
 40
100.0
  9
$3DDWFPREC
 40
2.0
  9
$PSOLWIDTH
 40
0.005
  9
$PSOLHEIGHT
 40
0.08
  9
$LOFTANG1
 40
1.570796326795
  9
$LOFTANG2
 40
1.570796326795
  9
$LOFTMAG1
 40
0.0
  9
$LOFTMAG2
 40
0.0
  9
$LOFTPARAM
 70
7
  9
$LOFTNORMALS
280
1
  9
$LATITUDE
 40
37.795
  9
$LONGITUDE
 40
-122.394
  9
$NORTHDIRECTION
 40
0.0
  9
$TIMEZONE
 70
-8000
  9
$LIGHTGLYPHDISPLAY
280
1
  9
$TILEMODELIGHTSYNCH
280
1
  9
$CMATERIAL
347
20
  9
$SOLIDHIST
280
0
  9
$SHOWHIST
280
1
  9
$DWFFRAME
280
2
  9
$DGNFRAME
280
2
  9
$REALWORLDSCALE
290
1
  9
$INTERFERECOLOR
 62
256
  9
$CSHADOW
280
0
  9
$SHADOWPLANELOCATION
 40
0.0
  0
ENDSEC
  0
SECTION
  2
CLASSES
  0
CLASS
  1
ACDBDICTIONARYWDFLT
  2
AcDbDictionaryWithDefault
  3
ObjectDBX Classes
 90
0
 91
0
280
0
281
0
  0
CLASS
  1
SUN
  2
AcDbSun
  3
SCENEOE
 90
1153
 91
0
280
0
281
0
  0
CLASS
  1
VISUALSTYLE
  2
AcDbVisualStyle
  3
ObjectDBX Classes
 90
4095
 91
0
280
0
281
0
  0
CLASS
  1
MATERIAL
  2
AcDbMaterial
  3
ObjectDBX Classes
 90
1153
 91
0
280
0
281
0
  0
CLASS
  1
SCALE
  2
AcDbScale
  3
ObjectDBX Classes
 90
1153
 91
0
280
0
281
0
  0
CLASS
  1
TABLESTYLE
  2
AcDbTableStyle
  3
ObjectDBX Classes
 90
4095
 91
0
280
0
281
0
  0
CLASS
  1
MLEADERSTYLE
  2
AcDbMLeaderStyle
  3
ACDB_MLEADERSTYLE_CLASS
 90
4095
 91
0
280
0
281
0
  0
CLASS
  1
DICTIONARYVAR
  2
AcDbDictionaryVar
  3
ObjectDBX Classes
 90
0
 91
0
280
0
281
0
  0
CLASS
  1
CELLSTYLEMAP
  2
AcDbCellStyleMap
  3
ObjectDBX Classes
 90
1152
 91
0
280
0
281
0
  0
CLASS
  1
MENTALRAYRENDERSETTINGS
  2
AcDbMentalRayRenderSettings
  3
SCENEOE
 90
1024
 91
0
280
0
281
0
  0
CLASS
  1
ACDBDETAILVIEWSTYLE
  2
AcDbDetailViewStyle
  3
ObjectDBX Classes
 90
1025
 91
0
280
0
281
0
  0
CLASS
  1
ACDBSECTIONVIEWSTYLE
  2
AcDbSectionViewStyle
  3
ObjectDBX Classes
 90
1025
 91
0
280
0
281
0
  0
CLASS
  1
RASTERVARIABLES
  2
AcDbRasterVariables
  3
ISM
 90
0
 91
0
280
0
281
0
  0
CLASS
  1
ACDBPLACEHOLDER
  2
AcDbPlaceHolder
  3
ObjectDBX Classes
 90
0
 91
0
280
0
281
0
  0
CLASS
  1
LAYOUT
  2
AcDbLayout
  3
ObjectDBX Classes
 90
0
 91
0
280
0
281
0
  0
ENDSEC
  0
SECTION
  2
TABLES
  0
TABLE
  2
VPORT
  5
8
330
0
100
AcDbSymbolTable
 70
1
  0
VPORT
  5
23
330
8
100
AcDbSymbolTableRecord
100
AcDbViewportTableRecord
  2
*Active
 70
0
 10
0.0
 20
0.0
 11
1.0
 21
1.0
 12
0.0
 22
0.0
 13
0.0
 23
0.0
 14
0.5
 24
0.5
 15
0.5
 25
0.5
 16
0.0
 26
0.0
 36
1.0
 17
0.0
 27
0.0
 37
0.0
 40
1000.0
 41
1.34
 42
50.0
 43
0.0
 44
0.0
 50
0.0
 51
0.0
 71
0
 72
1000
 73
1
 74
3
 75
0
 76
0
 77
0
 78
0
281
0
 65
0
146
0.0
  0
ENDTAB
  0
TABLE
  2
LTYPE
  5
2
330
0
100
AcDbSymbolTable
 70
21
  0
LTYPE
  5
24
330
2
100
AcDbSymbolTableRecord
100
AcDbLinetypeTableRecord
  2
ByBlock
 70
0
  3

 72
65
 73
0
 40
0.0
  0
LTYPE
  5
25
330
2
100
AcDbSymbolTableRecord
100
AcDbLinetypeTableRecord
  2
ByLayer
 70
0
  3

 72
65
 73
0
 40
0.0
  0
LTYPE
  5
26
330
2
100
AcDbSymbolTableRecord
100
AcDbLinetypeTableRecord
  2
Continuous
 70
0
  3

 72
65
 73
0
 40
0.0
  0
LTYPE
  5
2F
330
2
100
AcDbSymbolTableRecord
100
AcDbLinetypeTableRecord
  2
CENTER
 70
0
  3
Center ____ _ ____ _ ____ _ ____ _ ____ _ ____
 72
65
 73
4
 40
5.08
 49
3.175
 74
0
 49
-0.635
 74
0
 49
0.635
 74
0
 49
-0.635
 74
0
  0
LTYPE
  5
30
330
2
100
AcDbSymbolTableRecord
100
AcDbLinetypeTableRecord
  2
CENTERX2
 70
0
  3
Center (2x) ________  __  ________  __  ________
 72
65
 73
4
 40
8.89
 49
6.35
 74
0
 49
-0.635
 74
0
 49
1.27
 74
0
 49
-0.635
 74
0
  0
LTYPE
  5
31
330
2
100
AcDbSymbolTableRecord
100
AcDbLinetypeTableRecord
  2
CENTER2
 70
0
  3
Center (.5x) ____ _ ____ _ ____ _ ____ _ ____
 72
65
 73
4
 40
2.54
 49
1.587
 74
0
 49
-0.318
 74
0
 49
0.318
 74
0
 49
-0.318
 74
0
  0
LTYPE
  5
32
330
2
100
AcDbSymbolTableRecord
100
AcDbLinetypeTableRecord
  2
DASHED
 70
0
  3
Dashed __ __ __ __ __ __ __ __ __ __ __ __ __ _
 72
65
 73
2
 40
1.524
 49
1.27
 74
0
 49
-0.254
 74
0
  0
LTYPE
  5
33
330
2
100
AcDbSymbolTableRecord
100
AcDbLinetypeTableRecord
  2
DASHEDX2
 70
0
  3
Dashed (2x) ____  ____  ____  ____  ____  ____
 72
65
 73
2
 40
3.048
 49
2.54
 74
0
 49
-0.508
 74
0
  0
LTYPE
  5
34
330
2
100
AcDbSymbolTableRecord
100
AcDbLinetypeTableRecord
  2
DASHED2
 70
0
  3
Dashed (.5x) _ _ _ _ _ _ _ _ _ _ _ _ _ _
 72
65
 73
2
 40
0.762
 49
0.635
 74
0
 49
-0.127
 74
0
  0
LTYPE
  5
35
330
2
100
AcDbSymbolTableRecord
100
AcDbLinetypeTableRecord
  2
PHANTOM
 70
0
  3
Phantom ______  __  __  ______  __  __  ______
 72
65
 73
6
 40
6.35
 49
3.175
 74
0
 49
-0.635
 74
0
 49
0.635
 74
0
 49
-0.635
 74
0
 49
0.635
 74
0
 49
-0.635
 74
0
  0
LTYPE
  5
36
330
2
100
AcDbSymbolTableRecord
100
AcDbLinetypeTableRecord
  2
PHANTOMX2
 70
0
  3
Phantom (2x)____________    ____    ____    ____________
 72
65
 73
6
 40
10.795
 49
6.35
 74
0
 49
-0.635
 74
0
 49
1.27
 74
0
 49
-0.635
 74
0
 49
1.27
 74
0
 49
-0.635
 74
0
  0
LTYPE
  5
37
330
2
100
AcDbSymbolTableRecord
100
AcDbLinetypeTableRecord
  2
PHANTOM2
 70
0
  3
Phantom (.5x) ___ _ _ ___ _ _ ___ _ _ ___ _ _ ___
 72
65
 73
6
 40
3.175
 49
1.587
 74
0
 49
-0.318
 74
0
 49
0.318
 74
0
 49
-0.318
 74
0
 49
0.318
 74
0
 49
-0.318
 74
0
  0
LTYPE
  5
38
330
2
100
AcDbSymbolTableRecord
100
AcDbLinetypeTableRecord
  2
DASHDOT
 70
0
  3
Dash dot __ . __ . __ . __ . __ . __ . __ . __
 72
65
 73
4
 40
3.556
 49
2.54
 74
0
 49
-0.508
 74
0
 49
0.0
 74
0
 49
-0.508
 74
0
  0
LTYPE
  5
39
330
2
100
AcDbSymbolTableRecord
100
AcDbLinetypeTableRecord
  2
DASHDOTX2
 70
0
  3
Dash dot (2x) ____  .  ____  .  ____  .  ____
 72
65
 73
4
 40
6.096
 49
5.08
 74
0
 49
-0.508
 74
0
 49
0.0
 74
0
 49
-0.508
 74
0
  0
LTYPE
  5
3A
330
2
100
AcDbSymbolTableRecord
100
AcDbLinetypeTableRecord
  2
DASHDOT2
 70
0
  3
Dash dot (.5x) _ . _ . _ . _ . _ . _ . _ . _
 72
65
 73
4
 40
1.778
 49
1.27
 74
0
 49
-0.254
 74
0
 49
0.0
 74
0
 49
-0.254
 74
0
  0
LTYPE
  5
3B
330
2
100
AcDbSymbolTableRecord
100
AcDbLinetypeTableRecord
  2
DOT
 70
0
  3
Dot .  .  .  .  .  .  .  .  .  .  .  .  .  .  .  .
 72
65
 73
2
 40
0.508
 49
0.0
 74
0
 49
-0.508
 74
0
  0
LTYPE
  5
3C
330
2
100
AcDbSymbolTableRecord
100
AcDbLinetypeTableRecord
  2
DOTX2
 70
0
  3
Dot (2x) .    .    .    .    .    .    .    . 
 72
65
 73
2
 40
1.016
 49
0.0
 74
0
 49
-1.016
 74
0
  0
LTYPE
  5
3D
330
2
100
AcDbSymbolTableRecord
100
AcDbLinetypeTableRecord
  2
DOT2
 70
0
  3
Dot (.5) . . . . . . . . . . . . . . . . . . . 
 72
65
 73
2
 40
0.254
 49
0.0
 74
0
 49
-0.254
 74
0
  0
LTYPE
  5
3E
330
2
100
AcDbSymbolTableRecord
100
AcDbLinetypeTableRecord
  2
DIVIDE
 70
0
  3
Divide __ . . __ . . __ . . __ . . __ . . __
 72
65
 73
6
 40
4.064
 49
2.54
 74
0
 49
-0.508
 74
0
 49
0.0
 74
0
 49
-0.508
 74
0
 49
0.0
 74
0
 49
-0.508
 74
0
  0
LTYPE
  5
3F
330
2
100
AcDbSymbolTableRecord
100
AcDbLinetypeTableRecord
  2
DIVIDEX2
 70
0
  3
Divide (2x) ____  . .  ____  . .  ____  . .  ____
 72
65
 73
6
 40
6.604
 49
5.08
 74
0
 49
-0.508
 74
0
 49
0.0
 74
0
 49
-0.508
 74
0
 49
0.0
 74
0
 49
-0.508
 74
0
  0
LTYPE
  5
40
330
2
100
AcDbSymbolTableRecord
100
AcDbLinetypeTableRecord
  2
DIVIDE2
 70
0
  3
Divide(.5x) _ . _ . _ . _ . _ . _ . _ . _
 72
65
 73
6
 40
2.032
 49
1.27
 74
0
 49
-0.254
 74
0
 49
0.0
 74
0
 49
-0.254
 74
0
 49
0.0
 74
0
 49
-0.254
 74
0
  0
ENDTAB
  0
TABLE
  2
LAYER
  5
1
330
0
100
AcDbSymbolTable
 70
5
  0
LAYER
  5
27
330
1
100
AcDbSymbolTableRecord
100
AcDbLayerTableRecord
  2
0
 70
0
 62
7
  6
Continuous
370
-3
390
13
347
21
  0
LAYER
  5
28
330
1
100
AcDbSymbolTableRecord
100
AcDbLayerTableRecord
  2
Defpoints
 70
0
 62
7
  6
Continuous
290
0
370
-3
390
13
347
21
  0
LAYER
  5
8A
330
1
100
AcDbSymbolTableRecord
100
AcDbLayerTableRecord
  2
Layer
 70
0
 62
1
  6
Continuous
370
50
390
13
347
21
  0
LAYER
  5
8B
330
1
100
AcDbSymbolTableRecord
100
AcDbLayerTableRecord
  2
NumLabel
 70
0
 62
1
  6
Continuous
370
15
390
13
347
21
  0
LAYER
  5
AE
330
1
100
AcDbSymbolTableRecord
100
AcDbLayerTableRecord
  2
SplitMark
 70
0
 62
3
  6
Continuous
370
-3
390
13
347
21
  0
ENDTAB
  0
TABLE
  2
STYLE
  5
5
330
0
100
AcDbSymbolTable
 70
26
  0
STYLE
  5
29
330
5
100
AcDbSymbolTableRecord
100
AcDbTextStyleTableRecord
  2
Standard
 70
0
 40
0.0
 41
1.0
 50
0.0
 71
0
 42
2.5
  3
txt
  4

  0
STYLE
  5
41
330
5
100
AcDbSymbolTableRecord
100
AcDbTextStyleTableRecord
  2
OpenSans-Light
 70
0
 40
0.0
 41
1.0
 50
0.0
 71
0
 42
2.5
  3
OpenSans-Light.ttf
  4

  0
STYLE
  5
42
330
5
100
AcDbSymbolTableRecord
100
AcDbTextStyleTableRecord
  2
OpenSans-Light-Italic
 70
0
 40
0.0
 41
1.0
 50
0.0
 71
0
 42
2.5
  3
OpenSans-LightItalic.ttf
  4

  0
STYLE
  5
43
330
5
100
AcDbSymbolTableRecord
100
AcDbTextStyleTableRecord
  2
OpenSans
 70
0
 40
0.0
 41
1.0
 50
0.0
 71
0
 42
2.5
  3
OpenSans-Regular.ttf
  4

  0
STYLE
  5
44
330
5
100
AcDbSymbolTableRecord
100
AcDbTextStyleTableRecord
  2
OpenSans-Italic
 70
0
 40
0.0
 41
1.0
 50
0.0
 71
0
 42
2.5
  3
OpenSans-Italic.ttf
  4

  0
STYLE
  5
45
330
5
100
AcDbSymbolTableRecord
100
AcDbTextStyleTableRecord
  2
OpenSans-SemiBold
 70
0
 40
0.0
 41
1.0
 50
0.0
 71
0
 42
2.5
  3
OpenSans-SemiBold.ttf
  4

  0
STYLE
  5
46
330
5
100
AcDbSymbolTableRecord
100
AcDbTextStyleTableRecord
  2
OpenSans-SemiBoldItalic
 70
0
 40
0.0
 41
1.0
 50
0.0
 71
0
 42
2.5
  3
OpenSans-SemiBoldItalic.ttf
  4

  0
STYLE
  5
47
330
5
100
AcDbSymbolTableRecord
100
AcDbTextStyleTableRecord
  2
OpenSans-Bold
 70
0
 40
0.0
 41
1.0
 50
0.0
 71
0
 42
2.5
  3
OpenSans-Bold.ttf
  4

  0
STYLE
  5
48
330
5
100
AcDbSymbolTableRecord
100
AcDbTextStyleTableRecord
  2
OpenSans-BoldItalic
 70
0
 40
0.0
 41
1.0
 50
0.0
 71
0
 42
2.5
  3
OpenSans-BoldItalic.ttf
  4

  0
STYLE
  5
49
330
5
100
AcDbSymbolTableRecord
100
AcDbTextStyleTableRecord
  2
OpenSans-ExtraBold
 70
0
 40
0.0
 41
1.0
 50
0.0
 71
0
 42
2.5
  3
OpenSans-ExtraBold.ttf
  4

  0
STYLE
  5
4A
330
5
100
AcDbSymbolTableRecord
100
AcDbTextStyleTableRecord
  2
OpenSans-ExtraBoldItalic
 70
0
 40
0.0
 41
1.0
 50
0.0
 71
0
 42
2.5
  3
OpenSans-ExtraBoldItalic.ttf
  4

  0
STYLE
  5
4B
330
5
100
AcDbSymbolTableRecord
100
AcDbTextStyleTableRecord
  2
OpenSansCondensed-Bold
 70
0
 40
0.0
 41
1.0
 50
0.0
 71
0
 42
2.5
  3
OpenSansCondensed-Bold.ttf
  4

  0
STYLE
  5
4C
330
5
100
AcDbSymbolTableRecord
100
AcDbTextStyleTableRecord
  2
OpenSansCondensed-Light
 70
0
 40
0.0
 41
1.0
 50
0.0
 71
0
 42
2.5
  3
OpenSansCondensed-Light.ttf
  4

  0
STYLE
  5
4D
330
5
100
AcDbSymbolTableRecord
100
AcDbTextStyleTableRecord
  2
OpenSansCondensed-Italic
 70
0
 40
0.0
 41
1.0
 50
0.0
 71
0
 42
2.5
  3
OpenSansCondensed-LightItalic.ttf
  4

  0
STYLE
  5
4E
330
5
100
AcDbSymbolTableRecord
100
AcDbTextStyleTableRecord
  2
LiberationSans
 70
0
 40
0.0
 41
1.0
 50
0.0
 71
0
 42
2.5
  3
LiberationSans-Regular.ttf
  4

  0
STYLE
  5
4F
330
5
100
AcDbSymbolTableRecord
100
AcDbTextStyleTableRecord
  2
LiberationSans-Bold
 70
0
 40
0.0
 41
1.0
 50
0.0
 71
0
 42
2.5
  3
LiberationSans-Bold.ttf
  4

  0
STYLE
  5
50
330
5
100
AcDbSymbolTableRecord
100
AcDbTextStyleTableRecord
  2
LiberationSans-BoldItalic
 70
0
 40
0.0
 41
1.0
 50
0.0
 71
0
 42
2.5
  3
LiberationSans-BoldItalic.ttf
  4

  0
STYLE
  5
51
330
5
100
AcDbSymbolTableRecord
100
AcDbTextStyleTableRecord
  2
LiberationSans-Italic
 70
0
 40
0.0
 41
1.0
 50
0.0
 71
0
 42
2.5
  3
LiberationSans-Italic.ttf
  4

  0
STYLE
  5
52
330
5
100
AcDbSymbolTableRecord
100
AcDbTextStyleTableRecord
  2
LiberationSerif
 70
0
 40
0.0
 41
1.0
 50
0.0
 71
0
 42
2.5
  3
LiberationSerif-Regular.ttf
  4

  0
STYLE
  5
53
330
5
100
AcDbSymbolTableRecord
100
AcDbTextStyleTableRecord
  2
LiberationSerif-Bold
 70
0
 40
0.0
 41
1.0
 50
0.0
 71
0
 42
2.5
  3
LiberationSerif-Bold.ttf
  4

  0
STYLE
  5
54
330
5
100
AcDbSymbolTableRecord
100
AcDbTextStyleTableRecord
  2
LiberationSerif-BoldItalic
 70
0
 40
0.0
 41
1.0
 50
0.0
 71
0
 42
2.5
  3
LiberationSerif-BoldItalic.ttf
  4

  0
STYLE
  5
55
330
5
100
AcDbSymbolTableRecord
100
AcDbTextStyleTableRecord
  2
LiberationSerif-Italic
 70
0
 40
0.0
 41
1.0
 50
0.0
 71
0
 42
2.5
  3
LiberationSerif-Italic.ttf
  4

  0
STYLE
  5
56
330
5
100
AcDbSymbolTableRecord
100
AcDbTextStyleTableRecord
  2
LiberationMono
 70
0
 40
0.0
 41
1.0
 50
0.0
 71
0
 42
2.5
  3
LiberationMono-Regular.ttf
  4

  0
STYLE
  5
57
330
5
100
AcDbSymbolTableRecord
100
AcDbTextStyleTableRecord
  2
LiberationMono-Bold
 70
0
 40
0.0
 41
1.0
 50
0.0
 71
0
 42
2.5
  3
LiberationMono-Bold.ttf
  4

  0
STYLE
  5
58
330
5
100
AcDbSymbolTableRecord
100
AcDbTextStyleTableRecord
  2
LiberationMono-BoldItalic
 70
0
 40
0.0
 41
1.0
 50
0.0
 71
0
 42
2.5
  3
LiberationMono-BoldItalic.ttf
  4

  0
STYLE
  5
59
330
5
100
AcDbSymbolTableRecord
100
AcDbTextStyleTableRecord
  2
LiberationMono-Italic
 70
0
 40
0.0
 41
1.0
 50
0.0
 71
0
 42
2.5
  3
LiberationMono-Italic.ttf
  4

  0
ENDTAB
  0
TABLE
  2
VIEW
  5
7
330
0
100
AcDbSymbolTable
 70
0
  0
ENDTAB
  0
TABLE
  2
UCS
  5
6
330
0
100
AcDbSymbolTable
 70
0
  0
ENDTAB
  0
TABLE
  2
APPID
  5
3
330
0
100
AcDbSymbolTable
 70
3
  0
APPID
  5
2A
330
3
100
AcDbSymbolTableRecord
100
AcDbRegAppTableRecord
  2
ACAD
 70
0
  0
APPID
  5
AB
330
3
100
AcDbSymbolTableRecord
100
AcDbRegAppTableRecord
  2
HATCHBACKGROUNDCOLOR
 70
0
  0
APPID
  5
AC
330
3
100
AcDbSymbolTableRecord
100
AcDbRegAppTableRecord
  2
EZDXF
 70
0
  0
ENDTAB
  0
TABLE
  2
DIMSTYLE
  5
4
330
0
100
AcDbSymbolTable
 70
12
100
AcDbDimStyleTable
  0
DIMSTYLE
105
2B
330
4
100
AcDbSymbolTableRecord
100
AcDbDimStyleTableRecord
  2
Standard
 70
0
 40
1.0
 41
2.5
 42
0.625
 43
3.75
 44
1.25
 45
0.0
 46
0.0
 47
0.0
 48
0.0
 49
2.5
140
2.5
141
2.5
142
0.0
143
0.03937007874
144
1.0
145
0.0
146
1.0
147
0.625
148
0.0
 69
0
 70
0
 71
0
 72
0
 73
0
 74
0
 75
0
 76
0
 77
1
 78
8
 79
3
170
0
171
3
172
1
173
0
174
0
175
0
176
0
177
0
178
0
179
2
271
2
272
2
273
2
274
3
275
0
276
0
277
2
278
44
279
0
280
0
281
0
282
0
283
0
284
8
285
0
286
0
288
0
289
3
290
0
371
-2
372
-2
  0
DIMSTYLE
105
73
330
4
100
AcDbSymbolTableRecord
100
AcDbDimStyleTableRecord
  2
EZDXF
 70
0
 40
1.0
 41
0.175
 42
0.125
 43
3.75
 44
0.375
 45
0.0
 46
0.0
 47
0.0
 48
0.0
 49
2.5
140
0.25
141
2.5
142
0.0
143
0.03937007874
144
100.0
145
0.0
146
0.5
147
0.1
148
0.0
 69
0
 70
0
 71
0
 72
0
 73
0
 74
0
 75
0
 76
0
 77
1
 78
12
 79
3
170
0
171
3
172
1
173
0
174
0
175
0
176
0
177
0
178
0
179
2
271
2
272
2
273
2
274
3
275
0
276
0
277
2
278
46
279
2
280
0
281
0
282
0
283
0
284
8
285
0
286
0
288
1
289
3
290
0
340
4C
342
74
371
-2
372
-2
  0
DIMSTYLE
105
7C
330
4
100
AcDbSymbolTableRecord
100
AcDbDimStyleTableRecord
  2
EZ_M_100_H25_CM
 70
0
 40
1.0
 41
0.25
 42
0.125
 43
3.75
 44
0.375
 45
0.0
 46
0.0
 47
0.0
 48
0.0
 49
2.5
140
0.25
141
2.5
142
0.125
143
0.03937007874
144
100.0
145
0.0
146
0.5
147
0.1
148
0.0
 69
0
 70
0
 71
0
 72
0
 73
0
 74
0
 75
0
 76
0
 77
1
 78
12
 79
3
170
0
171
3
172
1
173
0
174
0
175
0
176
0
177
0
178
0
179
2
271
2
272
2
273
2
274
3
275
0
276
0
277
2
278
46
279
2
280
0
281
0
282
0
283
0
284
8
285
0
286
0
288
1
289
3
290
0
340
4C
371
-2
372
-2
  0
DIMSTYLE
105
7D
330
4
100
AcDbSymbolTableRecord
100
AcDbDimStyleTableRecord
  2
EZ_M_50_H25_CM
 70
0
 40
1.0
 41
0.125
 42
0.0625
 43
3.75
 44
0.1875
 45
0.0
 46
0.0
 47
0.0
 48
0.0
 49
2.5
140
0.125
141
2.5
142
0.0625
143
0.03937007874
144
100.0
145
0.0
146
0.5
147
0.05
148
0.0
 69
0
 70
0
 71
0
 72
0
 73
0
 74
0
 75
0
 76
0
 77
1
 78
12
 79
3
170
0
171
3
172
1
173
0
174
0
175
0
176
0
177
0
178
0
179
2
271
2
272
2
273
2
274
3
275
0
276
0
277
2
278
46
279
2
280
0
281
0
282
0
283
0
284
8
285
0
286
0
288
1
289
3
290
0
340
4C
371
-2
372
-2
  0
DIMSTYLE
105
7E
330
4
100
AcDbSymbolTableRecord
100
AcDbDimStyleTableRecord
  2
EZ_M_25_H25_CM
 70
0
 40
1.0
 41
0.0625
 42
0.03125
 43
3.75
 44
0.09375
 45
0.0
 46
0.0
 47
0.0
 48
0.0
 49
2.5
140
0.0625
141
2.5
142
0.03125
143
0.03937007874
144
100.0
145
0.0
146
0.5
147
0.025
148
0.0
 69
0
 70
0
 71
0
 72
0
 73
0
 74
0
 75
0
 76
0
 77
1
 78
12
 79
3
170
0
171
3
172
1
173
0
174
0
175
0
176
0
177
0
178
0
179
2
271
2
272
2
273
2
274
3
275
0
276
0
277
2
278
46
279
2
280
0
281
0
282
0
283
0
284
8
285
0
286
0
288
1
289
3
290
0
340
4C
371
-2
372
-2
  0
DIMSTYLE
105
7F
330
4
100
AcDbSymbolTableRecord
100
AcDbDimStyleTableRecord
  2
EZ_M_20_H25_CM
 70
0
 40
1.0
 41
0.05
 42
0.025
 43
3.75
 44
0.07500000000000001
 45
0.0
 46
0.0
 47
0.0
 48
0.0
 49
2.5
140
0.05
141
2.5
142
0.025
143
0.03937007874
144
100.0
145
0.0
146
0.5
147
0.020000000000000004
148
0.0
 69
0
 70
0
 71
0
 72
0
 73
0
 74
0
 75
0
 76
0
 77
1
 78
12
 79
3
170
0
171
3
172
1
173
0
174
0
175
0
176
0
177
0
178
0
179
2
271
2
272
2
273
2
274
3
275
0
276
0
277
2
278
46
279
2
280
0
281
0
282
0
283
0
284
8
285
0
286
0
288
1
289
3
290
0
340
4C
371
-2
372
-2
  0
DIMSTYLE
105
80
330
4
100
AcDbSymbolTableRecord
100
AcDbDimStyleTableRecord
  2
EZ_M_10_H25_CM
 70
0
 40
1.0
 41
0.025
 42
0.0125
 43
3.75
 44
0.037500000000000006
 45
0.0
 46
0.0
 47
0.0
 48
0.0
 49
2.5
140
0.025
141
2.5
142
0.0125
143
0.03937007874
144
100.0
145
0.0
146
0.5
147
0.010000000000000002
148
0.0
 69
0
 70
0
 71
0
 72
0
 73
0
 74
0
 75
0
 76
0
 77
1
 78
12
 79
3
170
0
171
3
172
1
173
0
174
0
175
0
176
0
177
0
178
0
179
2
271
2
272
2
273
2
274
3
275
0
276
0
277
2
278
46
279
2
280
0
281
0
282
0
283
0
284
8
285
0
286
0
288
1
289
3
290
0
340
4C
371
-2
372
-2
  0
DIMSTYLE
105
81
330
4
100
AcDbSymbolTableRecord
100
AcDbDimStyleTableRecord
  2
EZ_M_5_H25_CM
 70
0
 40
1.0
 41
0.0125
 42
0.00625
 43
3.75
 44
0.018750000000000003
 45
0.0
 46
0.0
 47
0.0
 48
0.0
 49
2.5
140
0.0125
141
2.5
142
0.00625
143
0.03937007874
144
100.0
145
0.0
146
0.5
147
0.005000000000000001
148
0.0
 69
0
 70
0
 71
0
 72
0
 73
0
 74
0
 75
0
 76
0
 77
1
 78
12
 79
3
170
0
171
3
172
1
173
0
174
0
175
0
176
0
177
0
178
0
179
2
271
2
272
2
273
2
274
3
275
0
276
0
277
2
278
46
279
2
280
0
281
0
282
0
283
0
284
8
285
0
286
0
288
1
289
3
290
0
340
4C
371
-2
372
-2
  0
DIMSTYLE
105
82
330
4
100
AcDbSymbolTableRecord
100
AcDbDimStyleTableRecord
  2
EZ_M_1_H25_CM
 70
0
 40
1.0
 41
0.0025
 42
0.00125
 43
3.75
 44
0.00375
 45
0.0
 46
0.0
 47
0.0
 48
0.0
 49
2.5
140
0.0025
141
2.5
142
0.00125
143
0.03937007874
144
100.0
145
0.0
146
0.5
147
0.001
148
0.0
 69
0
 70
0
 71
0
 72
0
 73
0
 74
0
 75
0
 76
0
 77
1
 78
12
 79
3
170
0
171
3
172
1
173
0
174
0
175
0
176
0
177
0
178
0
179
2
271
2
272
2
273
2
274
3
275
0
276
0
277
2
278
46
279
2
280
0
281
0
282
0
283
0
284
8
285
0
286
0
288
1
289
3
290
0
340
4C
371
-2
372
-2
  0
DIMSTYLE
105
83
330
4
100
AcDbSymbolTableRecord
100
AcDbDimStyleTableRecord
  2
EZ_RADIUS
 70
0
 40
1.0
 41
0.25
 42
0.125
 43
3.75
 44
0.375
 45
0.0
 46
0.0
 47
0.0
 48
0.0
 49
2.5
140
0.25
141
0.0
142
0.0
143
0.03937007874
144
100.0
145
0.0
146
0.5
147
0.1
148
0.0
 69
0
 70
0
 71
0
 72
0
 73
0
 74
0
 75
0
 76
0
 77
1
 78
12
 79
3
170
0
171
3
172
0
173
0
174
0
175
0
176
0
177
0
178
0
179
2
271
2
272
2
273
2
274
3
275
0
276
0
277
2
278
46
279
1
280
0
281
0
282
0
283
0
284
8
285
0
286
0
288
1
289
3
290
0
340
4C
342
84
371
-2
372
-2
  0
DIMSTYLE
105
88
330
4
100
AcDbSymbolTableRecord
100
AcDbDimStyleTableRecord
  2
EZ_RADIUS_INSIDE
 70
0
 40
1.0
 41
0.25
 42
0.125
 43
3.75
 44
0.375
 45
0.0
 46
0.0
 47
0.0
 48
0.0
 49
2.5
140
0.25
141
0.0
142
0.0
143
0.03937007874
144
100.0
145
0.0
146
0.5
147
0.1
148
0.0
 69
0
 70
0
 71
0
 72
0
 73
0
 74
0
 75
0
 76
0
 77
0
 78
12
 79
3
170
0
171
3
172
0
173
0
174
1
175
0
176
0
177
0
178
0
179
2
271
2
272
2
273
2
274
3
275
0
276
0
277
2
278
46
279
0
280
0
281
0
282
0
283
0
284
8
285
0
286
0
288
1
289
0
290
0
340
4C
342
84
371
-2
372
-2
  0
DIMSTYLE
105
89
330
4
100
AcDbSymbolTableRecord
100
AcDbDimStyleTableRecord
  2
EZ_CURVED
 70
0
 40
1.0
 41
0.25
 42
0.125
 43
3.75
 44
0.375
 45
0.0
 46
0.0
 47
0.0
 48
0.0
 49
2.5
140
0.25
141
2.5
142
0.0
143
0.03937007874
144
100.0
145
0.0
146
0.5
147
0.1
148
0.0
 69
0
 70
0
 71
0
 72
0
 73
0
 74
0
 75
0
 76
0
 77
1
 78
12
 79
2
 90
2
170
0
171
3
172
1
173
0
174
0
175
0
176
0
177
0
178
0
179
2
271
2
272
2
273
2
274
3
275
0
276
0
277
2
278
46
279
2
280
0
281
0
282
0
283
0
284
8
285
0
286
0
288
1
289
3
290
0
340
4C
371
-2
372
-2
  0
ENDTAB
  0
TABLE
  2
BLOCK_RECORD
  5
9
330
0
100
AcDbSymbolTable
 70
5
  0
BLOCK_RECORD
  5
17
330
9
100
AcDbSymbolTableRecord
100
AcDbBlockTableRecord
  2
*Model_Space
340
1A
 70
0
280
1
281
0
  0
BLOCK_RECORD
  5
1B
330
9
100
AcDbSymbolTableRecord
100
AcDbBlockTableRecord
  2
*Paper_Space
340
1E
 70
0
280
1
281
0
  0
BLOCK_RECORD
  5
74
330
9
100
AcDbSymbolTableRecord
100
AcDbBlockTableRecord
  2
_ARCHTICK
340
0
 70
0
280
1
281
0
  0
BLOCK_RECORD
  5
78
330
9
100
AcDbSymbolTableRecord
100
AcDbBlockTableRecord
  2
_CLOSEDFILLED
340
0
 70
0
280
1
281
0
  0
BLOCK_RECORD
  5
84
330
9
100
AcDbSymbolTableRecord
100
AcDbBlockTableRecord
  2
_CLOSEDBLANK
340
0
 70
0
280
1
281
0
  0
ENDTAB
  0
ENDSEC
  0
SECTION
  2
BLOCKS
  0
BLOCK
  5
18
330
17
100
AcDbEntity
  8
0
100
AcDbBlockBegin
  2
*Model_Space
 70
0
 10
0.0
 20
0.0
 30
0.0
  3
*Model_Space
  1

  0
ENDBLK
  5
19
330
17
100
AcDbEntity
  8
0
100
AcDbBlockEnd
  0
BLOCK
  5
1C
330
1B
100
AcDbEntity
  8
0
100
AcDbBlockBegin
  2
*Paper_Space
 70
0
 10
0.0
 20
0.0
 30
0.0
  3
*Paper_Space
  1

  0
ENDBLK
  5
1D
330
1B
100
AcDbEntity
  8
0
100
AcDbBlockEnd
  0
BLOCK
  5
75
330
74
100
AcDbEntity
  8
0
100
AcDbBlockBegin
  2
_ARCHTICK
 70
0
 10
0.0
 20
0.0
 30
0.0
  3
_ARCHTICK
  1

  0
LWPOLYLINE
  5
77
330
74
100
AcDbEntity
  8
0
  6
BYBLOCK
 62
0
100
AcDbPolyline
 90
2
 70
0
 43
0.15
 10
-0.5
 20
-0.5
 10
0.5
 20
0.5
  0
ENDBLK
  5
76
330
74
100
AcDbEntity
  8
0
100
AcDbBlockEnd
  0
BLOCK
  5
79
330
78
100
AcDbEntity
  8
0
100
AcDbBlockBegin
  2
_CLOSEDFILLED
 70
0
 10
0.0
 20
0.0
 30
0.0
  3
_CLOSEDFILLED
  1

  0
SOLID
  5
7B
330
78
100
AcDbEntity
  8
0
  6
BYBLOCK
 62
0
100
AcDbTrace
 10
-1.0
 20
0.16439898372402537
 30
0.0
 11
0.0
 21
0.0
 31
0.0
 12
-1.0
 22
-0.16439898372402537
 32
0.0
 13
-1.0
 23
-0.16439898372402537
 33
0.0
  0
ENDBLK
  5
7A
330
78
100
AcDbEntity
  8
0
100
AcDbBlockEnd
  0
BLOCK
  5
85
330
84
100
AcDbEntity
  8
0
100
AcDbBlockBegin
  2
_CLOSEDBLANK
 70
0
 10
0.0
 20
0.0
 30
0.0
  3
_CLOSEDBLANK
  1

  0
LWPOLYLINE
  5
87
330
84
100
AcDbEntity
  8
0
  6
BYBLOCK
 62
0
100
AcDbPolyline
 90
3
 70
1
 10
-1.0
 20
0.16439898372402537
 10
0.0
 20
0.0
 10
-1.0
 20
-0.16439898372402537
  0
ENDBLK
  5
86
330
84
100
AcDbEntity
  8
0
100
AcDbBlockEnd
  0
ENDSEC
  0
SECTION
  2
ENTITIES
  0
LWPOLYLINE
  5
8C
330
17
100
AcDbEntity
  8
Layer
100
AcDbPolyline
 90
178
 70
1
 10
617.5718479519
 20
196.66953312774456
 10
617.5718479519
 20
196.66953312774456
 10
617.1230617350373
 20
196.82084901969426
 10
608.9012860550757
 20
199.55338775479473
 10
600.7223166737049
 20
202.22695450676977
 10
592.5800752963568
 20
204.8401392322238
 10
584.4714662928681
 20
207.39196086031686
 10
576.393190914335
 20
209.8802063421601
 10
568.33876216328
 20
212.3035913819807
 10
560.3017585468026
 20
214.6626439840767
 10
552.2788675278957
 20
216.95762882006656
 10
544.2676158458559
 20
219.18757154582576
 10
536.2633147375442
 20
221.3519264532867
 10
528.2610582571219
 20
223.4512192546429
 10
520.259010071979
 20
225.48642219128652
 10
512.2566965215474
 20
227.45689725931007
 10
504.2515340780724
 20
229.36172260537825
 10
496.24007124868075
 20
231.20155315428087
 10
488.22148280021963
 20
232.97730725901806
 10
480.19686191797825
 20
234.68848937943977
 10
472.1650864509364
 20
236.334225492607
 10
464.1242384204695
 20
237.91473918099135
 10
456.0735183538843
 20
239.430805012485
 10
448.0147942867547
 20
240.88243792525563
 10
439.948550588391
 20
242.26856551111382
 10
431.8732308831918
 20
243.58898747238473
 10
423.78872322650506
 20
244.8445874827856
 10
415.6970124327065
 20
246.03505951894306
 10
407.5982456689182
 20
247.15918319523294
 10
399.48869388399316
 20
248.2163358867053
 10
391.36466273089235
 20
249.20821808184434
 10
383.2277459719456
 20
250.13665222571052
 10
375.0816378619179
 20
251.00139233609715
 10
366.92728958243964
 20
251.80133120892253
 10
358.76365551263007
 20
252.53662264606342
 10
350.5928923741887
 20
253.20890315529823
 10
342.4207174572229
 20
253.81812713129546
 10
334.25075458777275
 20
254.3625255623806
 10
326.0830235124154
 20
254.8410415210722
 10
317.919005065199
 20
255.25471601225732
 10
309.7640193700311
 20
255.6033782713412
 10
301.62218280755417
 20
255.88539420551095
 10
293.49339916442665
 20
256.09889132287384
 10
285.37818479217697
 20
256.2444879372465
 10
277.2814894584316
 20
256.3223775209093
 10
269.2076336536843
 20
256.3307539097569
 10
261.1573200057417
 20
256.2676043945023
 10
253.13076272546007
 20
256.13299509690825
 10
245.13302228742634
 20
255.9272915711056
 10
237.16939724653508
 20
255.6487998120815
 10
229.24074073780542
 20
255.29507400396068
 10
221.348326303432
 20
254.86611395742523
 10
213.497780245498
 20
254.36235890698475
 10
205.69539504593527
 20
253.78189285849646
 10
197.94247720578235
 20
253.1221288553906
 10
190.24164707272143
 20
252.3835781451153
 10
182.6007059283164
 20
251.5665811253339
 10
175.02570953207706
 20
250.6686291333955
 10
167.51890786406165
 20
249.68795921649485
 10
160.08593651523339
 20
248.62585530985933
 10
152.736247789271
 20
247.4821272457903
 10
145.4759236566979
 20
246.25488791928316
 10
138.31019890275547
 20
244.9455010883079
 10
131.25395891436278
 20
243.55933333225101
 10
124.32507520968332
 20
242.09721182347982
 10
117.53438742691344
 20
240.55823588758614
 10
110.89393105090488
 20
238.9479422439187
 10
104.42535484014815
 20
237.27421145086566
 10
98.14800390574553
 20
235.5397910687405
 10
92.07533233176108
 20
233.75002278627258
 10
86.22583780364423
 20
231.91785711889682
 10
80.62221616564062
 20
230.0547893651381
 10
75.27979978082598
 20
228.16792589800153
 10
70.20867141516669
 20
226.2697261393082
 10
65.42053458834803
 20
224.37599913329996
 10
60.92325499421895
 20
222.49701092035755
 10
56.71541734967934
 20
220.64007801598947
 10
52.79115719596092
 20
218.81576132838262
 10
49.143909785222036
 20
217.03353430310207
 10
45.76354191216723
 20
215.29672186053443
 10
42.634884820433854
 20
213.60541116037788
 10
39.740368533191315
 20
211.96130361494392
 10
37.063813187449284
 20
210.3671804937381
 10
34.59046175827382
 20
208.8226190194617
 10
32.30503834393238
 20
207.32413537483936
 10
30.19227697592106
 20
205.86821799683028
 10
28.237545671597786
 20
204.45260375308058
 10
26.428873469760617
 20
203.07647534939113
 10
24.75646270672007
 20
201.73716679032532
 10
23.211252259880382
 20
200.4298725808196
 10
21.782204787256887
 20
199.14815770684575
 10
20.457136565518454
 20
197.88984086575118
 10
19.224014508399364
 20
196.65575260213714
 10
18.073822238516698
 20
195.45109134420795
 10
17.00178398856815
 20
194.2797860949344
 10
16.00817620482087
 20
193.14478166668638
 10
15.09523000405784
 20
192.04179073066638
 10
14.264829555782342
 20
190.96428636270866
 10
13.516291399191346
 20
189.9033840301482
 10
12.844963821303566
 20
188.8505321546607
 10
12.244312146847392
 20
187.80352514551814
 10
11.70720088327056
 20
186.76382861080597
 10
11.228796398471275
 20
185.737903204166
 10
10.80703333030175
 20
184.7307158311776
 10
10.44263519752127
 20
183.74649963830515
 10
10.137686661763155
 20
182.78561698445182
 10
9.893861999325793
 20
181.84513764348202
 10
9.711327095140689
 20
180.92201857202767
 10
9.588494623186023
 20
180.01383901681427
 10
9.519050203753352
 20
179.04082097254448
 10
9.509712242091268
 20
178.22570959792085
 10
9.55413948385899
 20
177.3264851824371
 10
9.661069346818579
 20
176.43114429745344
 10
9.838310673243654
 20
175.54371923263906
 10
10.095718167449718
 20
174.66346135148038
 10
10.441816357306266
 20
173.78820531714823
 10
10.87995588135891
 20
172.9179745333403
 10
11.407535327722599
 20
172.0556182497448
 10
12.018574969198937
 20
171.206294478174
 10
12.709008280476098
 20
170.37491591606323
 10
13.4784249006467
 20
169.5653792210053
 10
14.330512771048745
 20
168.77939485934314
 10
15.26898929591539
 20
168.01696953472293
 10
16.296174867474235
 20
167.27633457415226
 10
17.410950875238825
 20
166.55515255533658
 10
18.612392754852692
 20
165.85086850382845
 10
19.899640891119702
 20
165.16217760575088
 10
21.276531116569288
 20
164.48856558739863
 10
22.748711646514266
 20
163.82983450608594
 10
24.32533558815328
 20
163.18518323395958
 10
26.015483122304772
 20
162.55208405212556
 10
27.828275733775456
 20
161.92665438308634
 10
29.773728959260495
 20
161.30461986548278
 10
31.86240226740466
 20
160.68222167385022
 10
34.10841879854752
 20
160.05741418773442
 10
36.52909268849709
 20
159.4292605515933
 10
39.1454438054908
 20
158.79677073760152
 10
41.980090031565226
 20
158.15801229285384
 10
45.05785576776822
 20
157.5111140739053
 10
48.40508576077423
 20
156.85533410406973
 10
52.05142285558247
 20
156.19187030373226
 10
56.02874124076976
 20
155.5227496484584
 10
60.367689013752056
 20
154.84887106193125
 10
65.09395414645564
 20
154.1717631469923
 10
70.22697618185754
 20
153.4965377246911
 10
75.7795402450239
 20
152.8305407706055
 10
81.75422849121367
 20
152.17938417794252
 10
88.13709569467738
 20
151.54776020549036
 10
94.9017400094786
 20
150.94387328151464
 10
102.01779540106907
 20
150.37463828154088
 10
109.44744278883317
 20
149.84203591948614
 10
117.14663799120686
 20
149.3489179381372
 10
125.07960170519311
 20
148.89866181788022
 10
133.21588226264825
 20
148.48959368505226
 10
141.52454088369637
 20
148.11980569476694
 10
149.98787286105073
 20
147.79039697394467
 10
158.60224885094456
 20
147.49461447564238
 10
167.3426906666822
 20
147.21609793261294
 10
168.26586976303875
 20
147.1879458861609
 10
168.22014900325638
 20
145.68864284403602
 10
176.10763889215374
 20
145.4481164038052
 10
184.94240143847253
 20
145.20191611760768
 10
193.80712471623207
 20
144.9924281852647
 10
202.73523750767114
 20
144.81815198221105
 10
211.74470218527154
 20
144.66429482098997
 10
220.81883503026006
 20
144.51504533013804
 10
229.92448817840886
 20
144.3623885852223
 10
239.0344518778029
 20
144.20986047565592
 10
248.12855271187135
 20
144.07069121956005
 10
257.2248600893255
 20
143.95573256232132
 10
266.3562293588254
 20
143.86214078474492
 10
275.5359024389017
 20
143.77745617918396
 10
284.74792972549756
 20
143.69223298768802
 10
293.97859195598625
 20
143.6064606607363
 10
303.2163416663361
 20
143.52234304271127
 10
312.4510402296876
 20
143.43874636424653
 10
330.41480708094053
 20
143.28431621887688
 10
617.5718479519
 20
196.66953312774456
  0
LWPOLYLINE
  5
8D
330
17
100
AcDbEntity
  8
Layer
100
AcDbPolyline
 90
5
 70
0
 10
538.9297021584262
 20
216.4872626538003
 10
535.0683684390326
 20
217.5313421083795
 10
536.1124478936117
 20
221.39267582777305
 10
539.9737816130053
 20
220.34859637319383
 10
538.9297021584262
 20
216.4872626538003
  0
LWPOLYLINE
  5
8E
330
17
100
AcDbEntity
  8
Layer
100
AcDbPolyline
 90
5
 70
0
 10
234.44015588362726
 20
251.52303382013105
 10
230.44413228493647
 20
251.34472117698317
 10
230.2658196417886
 20
255.34074477567395
 10
234.26184324047938
 20
255.51905741882183
 10
234.44015588362726
 20
251.52303382013105
  0
LWPOLYLINE
  5
8F
330
17
100
AcDbEntity
  8
Layer
100
AcDbPolyline
 90
5
 70
0
 10
96.29750563116704
 20
230.82418429889313
 10
92.46071346792331
 20
229.69324402811336
 10
91.32977319714354
 20
233.53003619135708
 10
95.16656536038727
 20
234.66097646213686
 10
96.29750563116704
 20
230.82418429889313
  0
LWPOLYLINE
  5
90
330
17
100
AcDbEntity
  8
Layer
100
AcDbPolyline
 90
5
 70
0
 10
26.690454261552407
 20
196.83399600530666
 10
25.201996014220352
 20
195.4981471942696
 10
21.86237398662764
 20
199.21929281259972
 10
23.350832233959697
 20
200.55514162363679
 10
26.690454261552407
 20
196.83399600530666
  0
LWPOLYLINE
  5
91
330
17
100
AcDbEntity
  8
Layer
100
AcDbPolyline
 90
5
 70
0
 10
18.285699158577703
 20
172.0062254518217
 10
19.909708222320052
 20
170.83892319409978
 10
16.991452578015238
 20
166.7789005347439
 10
15.36744351427289
 20
167.94620279246584
 10
18.285699158577703
 20
172.0062254518217
  0
LWPOLYLINE
  5
92
330
17
100
AcDbEntity
  8
Layer
100
AcDbPolyline
 90
5
 70
0
 10
126.01278334153852
 20
152.85679881801923
 10
130.00773795641675
 20
152.65595652898855
 10
129.80689566738607
 20
148.66100191411033
 10
125.81194105250785
 20
148.861844203141
 10
126.01278334153852
 20
152.85679881801923
  0
LWPOLYLINE
  5
93
330
17
100
AcDbEntity
  8
Layer
100
AcDbPolyline
 90
300
 70
1
 10
360.3236288021996
 20
200.0
 10
360.3142462852247
 20
200.9479031890822
 10
360.2861028773553
 20
201.8953878108007
 10
360.23921100592804
 20
202.84203548261928
 10
360.1735913770733
 20
203.7874281915753
 10
360.0892729665719
 20
204.73114847886237
 10
359.98629300706034
 20
205.67277962416844
 10
359.8646969715896
 20
206.61190582968774
 10
359.724538553546
 20
207.5481124037254
 10
359.56587964294124
 20
208.48098594381364
 10
359.38879029908384
 20
209.41011451925857
 10
359.19334871964276
 20
210.33508785303732
 10
358.97964120611766
 20
211.25549750296477
 10
358.7477621257303
 20
212.1709370420501
 10
358.49781386975496
 20
213.08100223796353
 10
358.22990680830515
 20
213.9852912315339
 10
357.94415924159733
 20
214.88340471419846
 10
357.6406973477128
 20
215.77494610432618
 10
357.3196551268811
 20
216.65952172233708
 10
356.98117434230926
 20
217.53674096454006
 10
356.62540445758316
 20
218.40621647561252
 10
356.25250257066847
 20
219.2675643196455
 10
355.8626333445409
 20
220.12040414967896
 10
355.45596893447544
 20
220.96435937565246
 10
355.0326889120275
 20
221.79905733069646
 10
354.5929801857392
 20
222.62412943569174
 10
354.13703691860565
 20
223.43921136202346
 10
353.6650604423384
 20
224.24394319245843
 10
353.1772591684627
 20
225.03796958007447
 10
352.6738484962889
 20
225.82093990517157
 10
352.1550507177982
 20
226.59250843009568
 10
351.6210949194848
 20
227.35233445190673
 10
351.0722168811979
 20
228.10008245282344
 10
350.50865897202755
 20
228.8354222483786
 10
349.9306700432817
 20
229.55802913321912
 10
349.3385053186002
 20
230.26758402448692
 10
348.7324262812553
 20
230.9637736027168
 10
348.1127005586882
 20
231.6462904501895
 10
347.4796018043319
 20
232.3148331866788
 10
346.8334095767739
 20
232.96910660253258
 10
346.1744092163108
 20
233.60882178902892
 10
345.50289171895014
 20
234.2336962659502
 10
344.81915360791487
 20
234.84345410631826
 10
344.1234968027067
 20
235.43782605823625
 10
343.41622848578737
 20
236.01654966378248
 10
342.69766096693513
 20
236.57936937490442
 10
341.9681115453379
 20
237.12603666626168
 10
341.22790236948254
 20
237.6563101449677
 10
340.4773602949033
 20
238.1699556571821
 10
339.7168167398518
 20
238.66674639150642
 10
338.94660753895175
 20
239.1464629791376
 10
338.167072794904
 20
239.60889359073505
 10
337.3785567283067
 20
240.05383402995875
 10
336.58140752565726
 20
240.48108782363624
 10
335.7759771856028
 20
240.89046630851996
 10
334.9626213635078
 20
241.28178871459545
 10
334.14169921440646
 20
241.65488224490434
 10
333.3135732344098
 20
242.0095821518467
 10
332.4786091006378
 20
242.34573180992882
 10
331.637175509747
 20
242.66318278492466
 10
330.7896440151236
 20
242.96179489942028
 10
329.9363888628167
 20
243.24143629471223
 10
329.0777868262815
 20
243.50198348903257
 10
328.2142170400067
 20
243.74332143207494
 10
327.34606083209934
 20
243.9653435557977
 10
326.4737015559013
 20
244.1679518214811
 10
325.597524420711
 20
244.35105676301876
 10
324.717916321686
 20
244.51457752642307
 10
323.8352656690008
 20
244.65844190552824
 10
322.949962216336
 20
244.78258637387435
 10
322.0623968887741
 20
244.88695611275904
 10
321.1729616101776
 20
244.97150503544373
 10
320.282049130127
 20
245.03619580750427
 10
319.39005285049325
 20
245.08099986331692
 10
318.4973666517227
 20
245.10589741867184
 10
317.60438471891064
 20
245.11087747950955
 10
316.7115013677401
 20
245.0959378467753
 10
315.81911087036326
 20
245.0610851173904
 10
314.92760728130196
 20
245.006334681339
 10
314.03738426344427
 20
244.93171071487234
 10
313.14883491421404
 20
244.83724616983326
 10
312.26235159199024
 20
244.7229827591056
 10
311.37832574285244
 20
244.58897093819488
 10
310.4971477277293
 20
244.4352698829486
 10
309.61920665002606
 20
244.2619474634259
 10
308.7448901838077
 20
244.06908021392806
 10
307.8745844026125
 20
243.85675329920298
 10
307.00867360897354
 20
243.62506047683897
 10
306.14754016472074
 20
243.37410405586397
 10
305.2915643221413
 20
243.10399485156876
 10
304.4411240560705
 20
242.81485213657407
 10
303.5965948969891
 20
242.50680358816317
 10
302.7583497651991
 20
242.1799852319031
 10
301.9267588061533
 20
241.83454138157964
 10
301.1021892270089
 20
241.4706245754725
 10
300.2850051344795
 20
241.0883955089986
 10
299.47556737405563
 20
240.6880229637534
 10
298.6742333706658
 20
240.26968373298206
 10
297.88135697084726
 20
239.83356254351207
 10
297.0972882864979
 20
239.37985197418345
 10
296.3223735402764
 20
238.9087523708111
 10
295.55695491271973
 20
238.42047175771785
 10
294.8013703911466
 20
237.91522574587685
 10
294.055953620411
 20
237.39323743770365
 10
293.32103375557466
 20
236.85473732854055
 10
292.59693531656103
 20
236.29996320487635
 10
291.8839780448565
 20
235.7291600393466
 10
291.1824767623218
 20
235.1425798825603
 10
290.4927412321752
 20
234.54048175180193
 10
289.81507602220995
 20
233.9231315166562
 10
289.1497803703057
 20
233.29080178160785
 10
288.4971480522935
 20
232.64377176566705
 10
287.85746725223265
 20
231.98232717907422
 10
287.23102043515667
 20
231.30676009713835
 10
286.6180842223448
 20
230.61736883126488
 10
286.01892926917384
 20
229.91445779722963
 10
285.4338201456041
 20
229.19833738075747
 10
284.8630152193531
 20
228.46932380046474
 10
284.30676654180746
 20
227.72773896822588
 10
283.7653197367241
 20
226.97391034702636
 10
283.2389138917699
 20
226.20817080636417
 10
282.72778145294694
 20
225.430858475264
 10
282.23214812195135
 20
224.64231659296905
 10
281.75223275650933
 20
223.84289335737617
 10
281.2882472737362
 20
223.03294177128151
 10
280.84039655655937
 20
222.21281948650443
 10
280.40887836324805
 20
221.38288864595853
 10
279.9938832400887
 20
220.54351572373943
 10
279.59559443724504
 20
219.6950713633003
 10
279.2141878278402
 20
218.83793021378602
 10
278.8498318302958
 20
217.9724707645987
 10
278.5026873339633
 20
217.09907517826747
 10
278.1729076280799
 20
216.21812912169614
 10
277.86063833407985
 20
215.3300215958636
 10
277.56601734129276
 20
214.43514476405207
 10
277.28917474605515
 20
213.53389377867865
 10
277.03023279426355
 20
212.6266666068072
 10
276.7893058273944
 20
211.71386385441735
 10
276.5665002320139
 20
210.79588858950817
 10
276.3619143928007
 20
209.87314616411447
 10
276.17563864910215
 20
208.94604403531517
 10
276.00775525504275
 20
208.01499158531126
 10
275.8583383432032
 20
207.0803999406545
 10
275.7274538918855
 20
206.14268179070532
 10
275.6151596959788
 20
205.20225120540096
 10
275.5215053414388
 20
204.2595234524136
 10
275.44653218339204
 20
203.31491481378015
 10
275.39027332787447
 20
202.3688424020836
 10
275.35275361721295
 20
201.42172397626794
 10
275.33398961905556
 20
200.4739777571675
 10
275.33398961905556
 20
199.5260222428325
 10
275.35275361721295
 20
198.5782760237321
 10
275.39027332787447
 20
197.6311575979164
 10
275.44653218339204
 20
196.68508518621985
 10
275.5215053414388
 20
195.74047654758638
 10
275.6151596959788
 20
194.79774879459907
 10
275.7274538918855
 20
193.85731820929468
 10
275.8583383432032
 20
192.91960005934553
 10
276.00775525504275
 20
191.98500841468876
 10
276.17563864910215
 20
191.05395596468483
 10
276.3619143928007
 20
190.1268538358855
 10
276.5665002320139
 20
189.20411141049183
 10
276.7893058273944
 20
188.28613614558265
 10
277.0302327942635
 20
187.3733333931928
 10
277.2891747460551
 20
186.46610622132138
 10
277.56601734129276
 20
185.56485523594793
 10
277.86063833407985
 20
184.6699784041364
 10
278.1729076280799
 20
183.7818708783039
 10
278.5026873339633
 20
182.90092482173253
 10
278.8498318302958
 20
182.0275292354013
 10
279.2141878278402
 20
181.16206978621398
 10
279.59559443724504
 20
180.3049286366997
 10
279.9938832400887
 20
179.4564842762606
 10
280.40887836324805
 20
178.6171113540415
 10
280.84039655655937
 20
177.78718051349557
 10
281.2882472737362
 20
176.96705822871849
 10
281.75223275650933
 20
176.15710664262383
 10
282.23214812195135
 20
175.35768340703098
 10
282.72778145294694
 20
174.569141524736
 10
283.2389138917699
 20
173.79182919363583
 10
283.7653197367241
 20
173.02608965297367
 10
284.30676654180746
 20
172.27226103177412
 10
284.8630152193531
 20
171.53067619953526
 10
285.4338201456041
 20
170.8016626192425
 10
286.01892926917384
 20
170.08554220277037
 10
286.6180842223448
 20
169.38263116873512
 10
287.23102043515667
 20
168.69323990286165
 10
287.8574672522326
 20
168.01767282092578
 10
288.4971480522935
 20
167.35622823433295
 10
289.1497803703057
 20
166.70919821839215
 10
289.81507602220995
 20
166.0768684833438
 10
290.4927412321752
 20
165.45951824819807
 10
291.1824767623218
 20
164.8574201174397
 10
291.8839780448565
 20
164.27083996065343
 10
292.59693531656103
 20
163.70003679512365
 10
293.32103375557466
 20
163.14526267145945
 10
294.055953620411
 20
162.60676256229635
 10
294.8013703911466
 20
162.08477425412315
 10
295.5569549127198
 20
161.57952824228212
 10
296.3223735402764
 20
161.0912476291889
 10
297.097288286498
 20
160.62014802581655
 10
297.88135697084726
 20
160.16643745648793
 10
298.6742333706658
 20
159.73031626701794
 10
299.47556737405563
 20
159.3119770362466
 10
300.2850051344795
 20
158.91160449100144
 10
301.1021892270089
 20
158.5293754245275
 10
301.9267588061533
 20
158.16545861842036
 10
302.7583497651991
 20
157.8200147680969
 10
303.5965948969891
 20
157.49319641183683
 10
304.4411240560705
 20
157.18514786342593
 10
305.2915643221413
 20
156.89600514843124
 10
306.14754016472074
 20
156.62589594413603
 10
307.00867360897354
 20
156.37493952316103
 10
307.8745844026125
 20
156.14324670079702
 10
308.7448901838077
 20
155.93091978607194
 10
309.6192066500261
 20
155.7380525365741
 10
310.4971477277293
 20
155.5647301170514
 10
311.37832574285244
 20
155.41102906180512
 10
312.26235159199024
 20
155.2770172408944
 10
313.148834914214
 20
155.16275383016674
 10
314.0373842634442
 20
155.06828928512766
 10
314.9276072813019
 20
154.993665318661
 10
315.81911087036326
 20
154.9389148826096
 10
316.7115013677401
 20
154.9040621532247
 10
317.60438471891064
 20
154.88912252049045
 10
318.4973666517227
 20
154.89410258132813
 10
319.39005285049325
 20
154.91900013668308
 10
320.282049130127
 20
154.96380419249573
 10
321.1729616101776
 20
155.02849496455627
 10
322.0623968887741
 20
155.11304388724096
 10
322.9499622163361
 20
155.21741362612565
 10
323.8352656690008
 20
155.34155809447176
 10
324.717916321686
 20
155.48542247357693
 10
325.597524420711
 20
155.64894323698124
 10
326.47370155590124
 20
155.8320481785189
 10
327.3460608320993
 20
156.0346564442023
 10
328.21421704000664
 20
156.25667856792506
 10
329.0777868262815
 20
156.49801651096743
 10
329.9363888628167
 20
156.75856370528777
 10
330.7896440151236
 20
157.03820510057972
 10
331.63717550974695
 20
157.33681721507534
 10
332.4786091006378
 20
157.65426819007118
 10
333.3135732344097
 20
157.9904178481533
 10
334.14169921440646
 20
158.34511775509566
 10
334.9626213635078
 20
158.71821128540455
 10
335.7759771856028
 20
159.10953369148004
 10
336.58140752565726
 20
159.51891217636376
 10
337.3785567283067
 20
159.94616597004125
 10
338.167072794904
 20
160.39110640926495
 10
338.94660753895175
 20
160.8535370208624
 10
339.7168167398518
 20
161.33325360849358
 10
340.4773602949033
 20
161.83004434281787
 10
341.2279023694825
 20
162.3436898550323
 10
341.9681115453379
 20
162.87396333373832
 10
342.69766096693513
 20
163.42063062509558
 10
343.41622848578737
 20
163.98345033621752
 10
344.1234968027067
 20
164.56217394176372
 10
344.81915360791487
 20
165.15654589368174
 10
345.50289171895014
 20
165.7663037340498
 10
346.1744092163108
 20
166.39117821097108
 10
346.8334095767739
 20
167.03089339746742
 10
347.4796018043319
 20
167.6851668133212
 10
348.1127005586882
 20
168.35370954981053
 10
348.73242628125536
 20
169.03622639728323
 10
349.33850531860014
 20
169.73241597551305
 10
349.9306700432817
 20
170.44197086678085
 10
350.50865897202755
 20
171.16457775162138
 10
351.0722168811979
 20
171.89991754717656
 10
351.6210949194848
 20
172.64766554809327
 10
352.1550507177982
 20
173.40749156990432
 10
352.6738484962889
 20
174.1790600948284
 10
353.1772591684627
 20
174.96203041992553
 10
353.6650604423384
 20
175.75605680754157
 10
354.13703691860565
 20
176.56078863797654
 10
354.5929801857392
 20
177.37587056430826
 10
355.03268891202754
 20
178.20094266930354
 10
355.45596893447544
 20
179.03564062434754
 10
355.8626333445409
 20
179.87959585032104
 10
356.25250257066847
 20
180.7324356803545
 10
356.6254044575831
 20
181.59378352438745
 10
356.98117434230926
 20
182.4632590354599
 10
357.3196551268811
 20
183.34047827766292
 10
357.6406973477128
 20
184.22505389567382
 10
357.94415924159733
 20
185.11659528580154
 10
358.22990680830515
 20
186.01470876846608
 10
358.49781386975496
 20
186.91899776203647
 10
358.7477621257303
 20
187.8290629579499
 10
358.97964120611766
 20
188.74450249703523
 10
359.19334871964276
 20
189.66491214696268
 10
359.38879029908384
 20
190.58988548074146
 10
359.56587964294124
 20
191.51901405618636
 10
359.724538553546
 20
192.4518875962746
 10
359.8646969715896
 20
193.38809417031226
 10
359.98629300706034
 20
194.32722037583156
 10
360.0892729665719
 20
195.2688515211376
 10
360.1735913770733
 20
196.21257180842468
 10
360.23921100592804
 20
197.1579645173807
 10
360.2861028773553
 20
198.1046121891993
 10
360.3142462852247
 20
199.05209681091776
 10
360.3236288021996
 20
200.0
  0
LINE
  5
94
330
17
100
AcDbEntity
  8
Layer
 62
7
100
AcDbLine
 10
22.731966002348145
 20
200.00000000000003
 30
0.0
 11
607.5350108812165
 21
199.99999999999997
 31
0.0
  0
LINE
  5
95
330
17
100
AcDbEntity
  8
Layer
 62
7
100
AcDbLine
 10
137.59257497812183
 20
200.00000000000003
 30
0.0
 11
149.59257497812183
 21
200.00000000000003
 31
0.0
  0
LWPOLYLINE
  5
96
330
17
100
AcDbEntity
  8
Layer
100
AcDbPolyline
 90
5
 70
0
 10
143.59257497812183
 20
205.00000000000003
 10
148.59257497812183
 20
200.00000000000003
 10
143.59257497812183
 20
195.00000000000003
 10
138.59257497812183
 20
200.00000000000003
 10
143.59257497812183
 20
205.00000000000003
  0
LINE
  5
97
330
17
100
AcDbEntity
  8
Layer
 62
7
100
AcDbLine
 10
309.13348844178233
 20
200.0
 30
0.0
 11
321.13348844178233
 21
200.0
 31
0.0
  0
LWPOLYLINE
  5
98
330
17
100
AcDbEntity
  8
Layer
100
AcDbPolyline
 90
5
 70
0
 10
315.13348844178233
 20
205.0
 10
320.13348844178233
 20
200.0
 10
315.13348844178233
 20
195.0
 10
310.13348844178233
 20
200.0
 10
315.13348844178233
 20
205.0
  0
LINE
  5
99
330
17
100
AcDbEntity
  8
Layer
 62
7
100
AcDbLine
 10
480.67440190544283
 20
199.99999999999997
 30
0.0
 11
492.67440190544283
 21
199.99999999999997
 31
0.0
  0
LWPOLYLINE
  5
9A
330
17
100
AcDbEntity
  8
Layer
100
AcDbPolyline
 90
5
 70
0
 10
486.67440190544283
 20
204.99999999999997
 10
491.67440190544283
 20
199.99999999999997
 10
486.67440190544283
 20
194.99999999999997
 10
481.67440190544283
 20
199.99999999999997
 10
486.67440190544283
 20
204.99999999999997
  0
LINE
  5
9B
330
17
100
AcDbEntity
  8
Layer
 62
7
100
AcDbLine
 10
9.574713303002056
 20
179.82074253299942
 30
0.0
 11
393.9616975043425
 21
155.0982857417828
 31
0.0
  0
LINE
  5
9C
330
17
100
AcDbEntity
  8
Layer
 62
7
100
AcDbLine
 10
84.35644016791957
 20
175.01103750349174
 30
0.0
 11
96.33169716992296
 21
174.24082991071677
 31
0.0
  0
LWPOLYLINE
  5
9D
330
17
100
AcDbEntity
  8
Layer
100
AcDbPolyline
 90
5
 70
0
 10
90.66498849924417
 20
179.6156241246057
 10
95.33375908642269
 20
174.30501387678135
 10
90.02314883859836
 20
169.63624328960282
 10
85.35437825141985
 20
174.94685353742716
 10
90.66498849924417
 20
179.6156241246057
  0
LINE
  5
9E
330
17
100
AcDbEntity
  8
Layer
 62
7
100
AcDbLine
 10
177.20988744687878
 20
169.03902119539745
 30
0.0
 11
189.18514444888217
 21
168.2688136026225
 31
0.0
  0
LWPOLYLINE
  5
9F
330
17
100
AcDbEntity
  8
Layer
100
AcDbPolyline
 90
5
 70
0
 10
183.51843577820338
 20
173.6436078165114
 10
188.1872063653819
 20
168.33299756868706
 10
182.87659611755757
 20
163.66422698150853
 10
178.20782553037904
 20
168.97483722933288
 10
183.51843577820338
 20
173.6436078165114
  0
LINE
  5
A0
330
17
100
AcDbEntity
  8
Layer
100
AcDbLine
 10
317.8276363636363
 20
245.11149999999998
 30
0.0
 11
317.8276363636363
 21
246.11149999999998
 31
0.0
  0
LINE
  5
A1
330
17
100
AcDbEntity
  8
Layer
100
AcDbLine
 10
317.8276363636363
 20
154.88850000000002
 30
0.0
 11
317.8276363636363
 21
153.88850000000002
 31
0.0
  0
LINE
  5
A2
330
17
100
AcDbEntity
  8
Layer
100
AcDbLine
 10
360.3236288021996
 20
200.0
 30
0.0
 11
361.3236288021996
 21
200.0
 31
0.0
  0
LINE
  5
A3
330
17
100
AcDbEntity
  8
Layer
100
AcDbLine
 10
275.331643925073
 20
200.0
 30
0.0
 11
274.331643925073
 21
200.0
 31
0.0
  0
LINE
  5
A4
330
17
100
AcDbEntity
  8
Layer
 62
7
100
AcDbLine
 10
167.82763636363632
 20
147.20130967122222
 30
0.0
 11
167.82763636363632
 21
249.72829074054624
 31
0.0
  0
LINE
  5
A5
330
17
100
AcDbEntity
  8
Layer
 62
7
100
AcDbLine
 10
167.82763636363632
 20
179.03575304548562
 30
0.0
 11
167.82763636363632
 21
191.03575304548562
 31
0.0
  0
LWPOLYLINE
  5
A6
330
17
100
AcDbEntity
  8
Layer
100
AcDbPolyline
 90
5
 70
0
 10
162.82763636363632
 20
185.03575304548562
 10
167.82763636363632
 20
190.03575304548562
 10
172.82763636363632
 20
185.03575304548562
 10
167.82763636363632
 20
180.03575304548562
 10
162.82763636363632
 20
185.03575304548562
  0
LINE
  5
A7
330
17
100
AcDbEntity
  8
Layer
 62
7
100
AcDbLine
 10
167.82763636363632
 20
205.89384736628284
 30
0.0
 11
167.82763636363632
 21
217.89384736628284
 31
0.0
  0
LWPOLYLINE
  5
A8
330
17
100
AcDbEntity
  8
Layer
100
AcDbPolyline
 90
5
 70
0
 10
162.82763636363632
 20
211.89384736628284
 10
167.82763636363632
 20
216.89384736628284
 10
172.82763636363632
 20
211.89384736628284
 10
167.82763636363632
 20
206.89384736628284
 10
162.82763636363632
 20
211.89384736628284
  0
LWPOLYLINE
  5
A9
330
17
100
AcDbEntity
  8
NumLabel
 62
1
100
AcDbPolyline
 90
5
 70
0
 10
236.8203636363636
 20
169.49636363636364
 10
236.8203636363636
 20
164.49636363636364
 10
241.8203636363636
 20
164.49636363636364
 10
241.8203636363636
 20
169.49636363636364
 10
241.8203636363636
 20
159.49636363636364
  0
LWPOLYLINE
  5
AA
330
17
100
AcDbEntity
  8
NumLabel
 62
1
100
AcDbPolyline
 90
6
 70
0
 10
244.3203636363636
 20
169.49636363636364
 10
249.3203636363636
 20
169.49636363636364
 10
249.3203636363636
 20
164.49636363636364
 10
244.3203636363636
 20
164.49636363636364
 10
244.3203636363636
 20
159.49636363636364
 10
249.3203636363636
 20
159.49636363636364
  0
ENDSEC
  0
SECTION
  2
OBJECTS
  0
DICTIONARY
  5
A
330
0
100
AcDbDictionary
280
0
281
1
  3
ACAD_COLOR
350
B
  3
ACAD_GROUP
350
C
  3
ACAD_LAYOUT
350
D
  3
ACAD_MATERIAL
350
E
  3
ACAD_MLEADERSTYLE
350
F
  3
ACAD_MLINESTYLE
350
10
  3
ACAD_PLOTSETTINGS
350
11
  3
ACAD_PLOTSTYLENAME
350
12
  3
ACAD_SCALELIST
350
14
  3
ACAD_TABLESTYLE
350
15
  3
ACAD_VISUALSTYLE
350
16
  3
EZDXF_META
350
2D
  0
DICTIONARY
  5
B
330
A
100
AcDbDictionary
280
0
281
1
  0
DICTIONARY
  5
C
330
A
100
AcDbDictionary
280
0
281
1
  0
DICTIONARY
  5
D
330
A
100
AcDbDictionary
280
0
281
1
  3
Model
350
1A
  3
Layout1
350
1E
  0
DICTIONARY
  5
E
330
A
100
AcDbDictionary
280
0
281
1
  3
ByBlock
350
1F
  3
ByLayer
350
20
  3
Global
350
21
  0
DICTIONARY
  5
F
330
A
100
AcDbDictionary
280
0
281
1
  3
Standard
350
2C
  0
DICTIONARY
  5
10
330
A
100
AcDbDictionary
280
0
281
1
  3
Standard
350
22
  0
DICTIONARY
  5
11
330
A
100
AcDbDictionary
280
0
281
1
  0
ACDBDICTIONARYWDFLT
  5
12
330
A
100
AcDbDictionary
280
0
281
1
  3
Normal
350
13
100
AcDbDictionaryWithDefault
340
13
  0
ACDBPLACEHOLDER
  5
13
330
12
  0
DICTIONARY
  5
14
330
A
100
AcDbDictionary
280
0
281
1
  0
DICTIONARY
  5
15
330
A
100
AcDbDictionary
280
0
281
1
  0
DICTIONARY
  5
16
330
A
100
AcDbDictionary
280
0
281
1
  3
2dWireframe
350
5A
  3
Basic
350
5B
  3
Brighten
350
5C
  3
ColorChange
350
5D
  3
Conceptual
350
5E
  3
Dim
350
5F
  3
EdgeColorOff
350
60
  3
Facepattern
350
61
  3
Flat
350
62
  3
FlatWithEdges
350
63
  3
Gouraud
350
64
  3
GouraudWithEdges
350
65
  3
Hidden
350
66
  3
JitterOff
350
67
  3
Linepattern
350
68
  3
Modeling
350
69
  3
OverhangOff
350
6A
  3
Realistic
350
6B
  3
Shaded
350
6C
  3
Shaded with edges
350
6D
  3
Shades of Gray
350
6E
  3
Sketchy
350
6F
  3
Thicken
350
70
  3
Wireframe
350
71
  3
X-Ray
350
72
  0
LAYOUT
  5
1A
330
D
100
AcDbPlotSettings
  1

  2
Adobe PDF
  4
A3
  6

 40
7.5
 41
20.0
 42
7.5
 43
20.0
 44
420.0
 45
297.0
 46
0.0
 47
0.0
 48
0.0
 49
0.0
140
0.0
141
0.0
142
1.0
143
1.0
 70
1024
 72
1
 73
0
 74
5
  7

 75
16
 76
0
 77
2
 78
300
147
1.0
148
0.0
149
0.0
100
AcDbLayout
  1
Model
 70
1
 71
0
 10
0.0
 20
0.0
 11
420.0
 21
297.0
 12
0.0
 22
0.0
 32
0.0
 14
1e+20
 24
1e+20
 34
1e+20
 15
-1e+20
 25
-1e+20
 35
-1e+20
146
0.0
 13
0.0
 23
0.0
 33
0.0
 16
1.0
 26
0.0
 36
0.0
 17
0.0
 27
1.0
 37
0.0
 76
1
330
17
  0
LAYOUT
  5
1E
330
D
100
AcDbPlotSettings
  1

  2
Adobe PDF
  4
A3
  6

 40
7.5
 41
20.0
 42
7.5
 43
20.0
 44
420.0
 45
297.0
 46
0.0
 47
0.0
 48
0.0
 49
0.0
140
0.0
141
0.0
142
1.0
143
1.0
 70
0
 72
1
 73
0
 74
5
  7

 75
16
 76
0
 77
2
 78
300
147
1.0
148
0.0
149
0.0
100
AcDbLayout
  1
Layout1
 70
1
 71
1
 10
0.0
 20
0.0
 11
420.0
 21
297.0
 12
0.0
 22
0.0
 32
0.0
 14
1e+20
 24
1e+20
 34
1e+20
 15
-1e+20
 25
-1e+20
 35
-1e+20
146
0.0
 13
0.0
 23
0.0
 33
0.0
 16
1.0
 26
0.0
 36
0.0
 17
0.0
 27
1.0
 37
0.0
 76
1
330
1B
  0
MATERIAL
  5
1F
102
{ACAD_REACTORS
330
E
102
}
330
E
100
AcDbMaterial
  1
ByBlock
  2

 70
0
 40
1.0
 71
1
 41
1.0
 91
-1023410177
 42
1.0
 72
1
  3

 73
1
 74
1
 75
1
 44
0.5
 73
0
 45
1.0
 46
1.0
 77
1
  4

 78
1
 79
1
170
1
 48
1.0
171
1
  6

172
1
173
1
174
1
140
1.0
141
1.0
175
1
  7

176
1
177
1
178
1
143
1.0
179
1
  8

270
1
271
1
272
1
145
1.0
146
1.0
273
1
  9

274
1
275
1
276
1
 42
1.0
 72
1
  3

 73
1
 74
1
 75
1
 94
63
  0
MATERIAL
  5
20
102
{ACAD_REACTORS
330
E
102
}
330
E
100
AcDbMaterial
  1
ByLayer
  2

 70
0
 40
1.0
 71
1
 41
1.0
 91
-1023410177
 42
1.0
 72
1
  3

 73
1
 74
1
 75
1
 44
0.5
 73
0
 45
1.0
 46
1.0
 77
1
  4

 78
1
 79
1
170
1
 48
1.0
171
1
  6

172
1
173
1
174
1
140
1.0
141
1.0
175
1
  7

176
1
177
1
178
1
143
1.0
179
1
  8

270
1
271
1
272
1
145
1.0
146
1.0
273
1
  9

274
1
275
1
276
1
 42
1.0
 72
1
  3

 73
1
 74
1
 75
1
 94
63
  0
MATERIAL
  5
21
102
{ACAD_REACTORS
330
E
102
}
330
E
100
AcDbMaterial
  1
Global
  2

 70
0
 40
1.0
 71
1
 41
1.0
 91
-1023410177
 42
1.0
 72
1
  3

 73
1
 74
1
 75
1
 44
0.5
 73
0
 45
1.0
 46
1.0
 77
1
  4

 78
1
 79
1
170
1
 48
1.0
171
1
  6

172
1
173
1
174
1
140
1.0
141
1.0
175
1
  7

176
1
177
1
178
1
143
1.0
179
1
  8

270
1
271
1
272
1
145
1.0
146
1.0
273
1
  9

274
1
275
1
276
1
 42
1.0
 72
1
  3

 73
1
 74
1
 75
1
 94
63
  0
MLINESTYLE
  5
22
102
{ACAD_REACTORS
330
10
102
}
330
10
100
AcDbMlineStyle
  2
Standard
 70
0
  3

 62
256
 51
90.0
 52
90.0
 71
2
 49
0.5
 62
256
  6
BYLAYER
 49
-0.5
 62
256
  6
BYLAYER
  0
MLEADERSTYLE
  5
2C
102
{ACAD_REACTORS
330
F
102
}
330
F
100
AcDbMLeaderStyle
179
2
170
2
171
1
172
0
 90
2
 40
0.0
 41
0.0
173
1
 91
-1056964608
 92
-2
290
1
 42
2.0
291
1
 43
8.0
  3
Standard
 44
4.0
300

342
29
174
1
175
1
176
0
178
1
 93
-1056964608
 45
4.0
292
0
297
0
 46
4.0
 94
-1056964608
 47
1.0
 49
1.0
140
1.0
294
1
141
0.0
177
0
142
1.0
295
0
296
0
143
3.75
271
0
272
9
273
9
  0
DICTIONARY
  5
2D
330
A
100
AcDbDictionary
281
1
  3
CREATED_BY_EZDXF
350
2E
  3
WRITTEN_BY_EZDXF
350
AD
  0
DICTIONARYVAR
  5
2E
330
2D
100
DictionaryVariables
280
0
  1
1.3.0 @ 2026-01-06T17:07:16.275308+00:00
  0
VISUALSTYLE
  5
5A
102
{ACAD_REACTORS
330
16
102
}
330
16
100
AcDbVisualStyle
  2
2dWireframe
 70
4
 90
0
 40
0.6
 62
7
290
0
291
0
  0
VISUALSTYLE
  5
5B
102
{ACAD_REACTORS
330
16
102
}
330
16
100
AcDbVisualStyle
  2
Basic
 70
7
 90
1
 40
0.6
 62
7
290
0
291
1
  0
VISUALSTYLE
  5
5C
102
{ACAD_REACTORS
330
16
102
}
330
16
100
AcDbVisualStyle
  2
Brighten
 70
12
 90
2
 40
0.6
 62
7
290
0
291
1
  0
VISUALSTYLE
  5
5D
102
{ACAD_REACTORS
330
16
102
}
330
16
100
AcDbVisualStyle
  2
ColorChange
 70
16
 90
2
 40
0.6
 62
8
290
0
291
1
  0
VISUALSTYLE
  5
5E
102
{ACAD_REACTORS
330
16
102
}
330
16
100
AcDbVisualStyle
  2
Conceptual
 70
9
 90
3
 40
0.6
 62
7
290
0
291
0
  0
VISUALSTYLE
  5
5F
102
{ACAD_REACTORS
330
16
102
}
330
16
100
AcDbVisualStyle
  2
Dim
 70
11
 90
2
 40
0.6
 62
7
290
0
291
1
  0
VISUALSTYLE
  5
60
102
{ACAD_REACTORS
330
16
102
}
330
16
100
AcDbVisualStyle
  2
EdgeColorOff
 70
22
 90
2
 40
0.6
 62
7
290
0
291
1
  0
VISUALSTYLE
  5
61
102
{ACAD_REACTORS
330
16
102
}
330
16
100
AcDbVisualStyle
  2
Facepattern
 70
15
 90
2
 40
0.6
 62
7
290
0
291
1
  0
VISUALSTYLE
  5
62
102
{ACAD_REACTORS
330
16
102
}
330
16
100
AcDbVisualStyle
  2
Flat
 70
0
 90
2
 40
0.6
 62
7
290
0
291
1
  0
VISUALSTYLE
  5
63
102
{ACAD_REACTORS
330
16
102
}
330
16
100
AcDbVisualStyle
  2
FlatWithEdges
 70
1
 90
2
 40
0.6
 62
7
290
0
291
1
  0
VISUALSTYLE
  5
64
102
{ACAD_REACTORS
330
16
102
}
330
16
100
AcDbVisualStyle
  2
Gouraud
 70
2
 90
2
 40
0.6
 62
7
290
0
291
1
  0
VISUALSTYLE
  5
65
102
{ACAD_REACTORS
330
16
102
}
330
16
100
AcDbVisualStyle
  2
GouraudWithEdges
 70
3
 90
2
 40
0.6
 62
7
290
0
291
1
  0
VISUALSTYLE
  5
66
102
{ACAD_REACTORS
330
16
102
}
330
16
100
AcDbVisualStyle
  2
Hidden
 70
6
 90
1
 40
0.6
 62
7
290
0
291
0
  0
VISUALSTYLE
  5
67
102
{ACAD_REACTORS
330
16
102
}
330
16
100
AcDbVisualStyle
  2
JitterOff
 70
20
 90
2
 40
0.6
 62
7
290
0
291
1
  0
VISUALSTYLE
  5
68
102
{ACAD_REACTORS
330
16
102
}
330
16
100
AcDbVisualStyle
  2
Linepattern
 70
14
 90
2
 40
0.6
 62
7
290
0
291
1
  0
VISUALSTYLE
  5
69
102
{ACAD_REACTORS
330
16
102
}
330
16
100
AcDbVisualStyle
  2
Modeling
 70
10
 90
2
 40
0.6
 62
7
290
0
291
0
  0
VISUALSTYLE
  5
6A
102
{ACAD_REACTORS
330
16
102
}
330
16
100
AcDbVisualStyle
  2
OverhangOff
 70
21
 90
2
 40
0.6
 62
7
290
0
291
1
  0
VISUALSTYLE
  5
6B
102
{ACAD_REACTORS
330
16
102
}
330
16
100
AcDbVisualStyle
  2
Realistic
 70
8
 90
2
 40
0.6
 62
7
290
0
291
0
  0
VISUALSTYLE
  5
6C
102
{ACAD_REACTORS
330
16
102
}
330
16
100
AcDbVisualStyle
  2
Shaded
 70
27
 90
2
 40
0.6
 62
7
290
0
291
0
  0
VISUALSTYLE
  5
6D
102
{ACAD_REACTORS
330
16
102
}
330
16
100
AcDbVisualStyle
  2
Shaded with edges
 70
26
 90
2
 40
0.6
 62
7
290
0
291
0
  0
VISUALSTYLE
  5
6E
102
{ACAD_REACTORS
330
16
102
}
330
16
100
AcDbVisualStyle
  2
Shades of Gray
 70
23
 90
2
 40
0.6
 62
7
290
0
291
0
  0
VISUALSTYLE
  5
6F
102
{ACAD_REACTORS
330
16
102
}
330
16
100
AcDbVisualStyle
  2
Sketchy
 70
24
 90
1
 40
0.6
 62
7
290
0
291
0
  0
VISUALSTYLE
  5
70
102
{ACAD_REACTORS
330
16
102
}
330
16
100
AcDbVisualStyle
  2
Thicken
 70
13
 90
2
 40
0.6
 62
7
290
0
291
1
  0
VISUALSTYLE
  5
71
102
{ACAD_REACTORS
330
16
102
}
330
16
100
AcDbVisualStyle
  2
Wireframe
 70
5
 90
0
 40
0.6
 62
7
290
0
291
0
  0
VISUALSTYLE
  5
72
102
{ACAD_REACTORS
330
16
102
}
330
16
100
AcDbVisualStyle
  2
X-Ray
 70
25
 90
2
 40
0.5
 62
7
290
0
291
0
  0
DICTIONARYVAR
  5
AD
330
2D
100
DictionaryVariables
280
0
  1
1.3.0 @ 2026-01-06T17:07:16.428360+00:00
  0
ENDSEC
  0
EOF
