<?xml version="1.0" encoding="utf-8" standalone="no"?>
<!DOCTYPE svg PUBLIC "-//W3C//DTD SVG 1.1//EN"
  "http://www.w3.org/Graphics/SVG/1.1/DTD/svg11.dtd">
<svg xmlns:xlink="http://www.w3.org/1999/xlink" width="1152pt" height="320.866671pt" viewBox="0 0 1152 320.866671" xmlns="http://www.w3.org/2000/svg" version="1.1">
 <metadata>
  <rdf:RDF xmlns:dc="http://purl.org/dc/elements/1.1/" xmlns:cc="http://creativecommons.org/ns#" xmlns:rdf="http://www.w3.org/1999/02/22-rdf-syntax-ns#">
   <cc:Work>
    <dc:type rdf:resource="http://purl.org/dc/dcmitype/StillImage"/>
    <dc:date>2026-01-07T02:07:19.005604</dc:date>
    <dc:format>image/svg+xml</dc:format>
    <dc:creator>
     <cc:Agent>
      <dc:title>Matplotlib v3.10.1, https://matplotlib.org/</dc:title>
     </cc:Agent>
    </dc:creator>
   </cc:Work>
  </rdf:RDF>
 </metadata>
 <defs>
  <style type="text/css">*{stroke-linejoin: round; stroke-linecap: butt}</style>
 </defs>
 <g id="figure_1">
  <g id="patch_1">
   <path d="M 0 320.866671 
L 1152 320.866671 
L 1152 0 
L 0 0 
z
" style="fill: #ffffff"/>
  </g>
  <g id="axes_1">
   <g id="patch_2">
    <path d="M 0 320.866671 
L 1152 320.866671 
L 1152 0 
L 0 0 
z
" style="fill: #212830"/>
   </g>
   <g id="patch_3">
    <path d="M 1099.636364 40.949021 
L 1080.374957 38.275491 
L 1059.427808 35.54483 
L 1038.443165 32.982755 
L 1017.425226 30.584566 
L 996.383587 28.350905 
L 975.320658 26.284627 
L 954.233663 24.385329 
L 933.128234 22.64879 
L 912.019228 21.075132 
L 890.915989 19.668925 
L 869.818472 18.432891 
L 848.730549 17.364345 
L 827.666036 16.463731 
L 806.635585 15.735269 
L 785.638839 15.183791 
L 764.677149 14.807701 
L 743.763393 14.606499 
L 722.908747 14.584849 
L 702.114935 14.747949 
L 681.382501 15.095627 
L 660.724616 15.626937 
L 640.155 16.34625 
L 619.67575 17.259886 
L 599.29015 18.367845 
L 579.01285 19.668984 
L 558.860126 21.168245 
L 538.835221 22.87232 
L 518.944941 24.779882 
L 499.209572 26.890036 
L 479.644712 29.20926 
L 460.256059 31.742119 
L 441.058278 34.485279 
L 422.075858 37.439214 
L 403.324364 40.608816 
L 384.81723 43.990577 
L 366.593186 47.570576 
L 348.69845 51.346653 
L 331.160757 55.321185 
L 314.011237 59.479857 
L 297.3061 63.802227 
L 281.095168 68.281224 
L 265.412934 72.903117 
L 250.307394 77.634384 
L 235.837366 82.445251 
L 222.042131 87.317461 
L 208.947626 92.218866 
L 196.584374 97.108511 
L 184.972691 101.95986 
L 174.1086 106.754145 
L 163.976979 111.464076 
L 154.561159 116.065035 
L 145.834993 120.548397 
L 137.759019 124.914072 
L 130.287731 129.157734 
L 123.379579 133.27205 
L 116.996613 137.257989 
L 111.099303 141.124564 
L 105.648045 144.880941 
L 100.604991 148.53299 
L 95.939483 152.082601 
L 91.626426 155.536437 
L 87.642317 158.906914 
L 83.957975 162.211208 
L 80.541485 165.455419 
L 74.395257 171.744359 
L 69.070624 177.688963 
L 66.719932 180.528634 
L 64.583634 183.300086 
L 62.659143 186.026951 
L 60.933424 188.732659 
L 59.389159 191.423772 
L 58.007934 194.096767 
L 56.777765 196.734125 
L 55.693698 199.322046 
L 54.757814 201.848557 
L 53.975298 204.312379 
L 53.349997 206.721623 
L 52.881925 209.085055 
L 52.566769 211.409916 
L 52.387536 213.921111 
L 52.363636 215.985016 
L 52.476183 218.283058 
L 52.74782 220.568214 
L 53.198058 222.830509 
L 53.852285 225.073861 
L 54.733324 227.30628 
L 55.850993 229.529148 
L 57.1993 231.735093 
L 58.762764 233.909848 
L 60.530604 236.039929 
L 62.501698 238.115002 
L 64.686185 240.131034 
L 67.094507 242.08837 
L 69.733401 243.991683 
L 72.600043 245.846624 
L 75.691778 247.65932 
L 79.005775 249.432615 
L 82.551794 251.167662 
L 86.344369 252.864872 
L 90.407571 254.526411 
L 94.765126 256.158805 
L 99.440592 257.771981 
L 104.459694 259.376851 
L 115.645607 262.595449 
L 121.893364 264.216764 
L 128.647001 265.849467 
L 135.964934 267.498526 
L 143.911188 269.168739 
L 152.553632 270.861975 
L 161.968832 272.575136 
L 172.239322 274.303012 
L 183.444313 276.043275 
L 195.649981 277.791943 
L 208.906479 279.535798 
L 223.247019 281.255881 
L 238.678376 282.937698 
L 255.164323 284.569101 
L 272.636679 286.128891 
L 291.017197 287.599217 
L 310.208071 288.974946 
L 330.095408 290.2487 
L 350.586941 291.411758 
L 371.603966 292.468438 
L 393.066374 293.423656 
L 437.182007 295.038672 
L 462.146285 295.830897 
L 462.060318 298.649967 
L 505.250513 299.907103 
L 551.206857 300.898322 
L 668.46859 302.829201 
L 715.552716 303.367913 
L 905.923625 305.03044 
L 1000.796867 305.690835 
L 1099.636364 306.281823 
L 1099.636364 40.949021 
L 1099.636364 40.949021 
" clip-path="url(#p0983cfe8d1)" style="fill: none; stroke: #ff0000; stroke-width: 0.72; stroke-linejoin: miter"/>
   </g>
   <g id="patch_4">
    <path d="M 653.339369 236.185166 
L 639.237467 236.185166 
L 639.237467 250.287068 
L 653.339369 250.287068 
L 653.339369 264.38897 
L 639.237467 264.38897 
" clip-path="url(#p0983cfe8d1)" style="fill: none; stroke: #ff0000; stroke-width: 0.72; stroke-linejoin: miter"/>
   </g>
   <g id="patch_5">
    <path d="M 666.031081 236.185166 
L 660.39032 236.185166 
L 660.39032 264.38897 
L 666.031081 264.38897 
" clip-path="url(#p0983cfe8d1)" style="fill: none; stroke: #ff0000; stroke-width: 0.72; stroke-linejoin: miter"/>
   </g>
   <g id="patch_6">
    <path d="M 668.851462 264.38897 
L 674.492222 264.38897 
L 674.492222 236.185166 
L 668.851462 236.185166 
" clip-path="url(#p0983cfe8d1)" style="fill: none; stroke: #ff0000; stroke-width: 0.72; stroke-linejoin: miter"/>
   </g>
   <g id="patch_7">
    <path d="M 633.620143 27.930599 
L 622.349837 28.433509 
L 621.846927 17.163202 
L 633.117234 16.660293 
L 633.620143 27.930599 
" clip-path="url(#p0983cfe8d1)" style="fill: none; stroke: #ff0000; stroke-width: 0.72; stroke-linejoin: miter"/>
   </g>
   <g id="patch_8">
    <path d="M 277.037342 81.238727 
L 266.216129 84.428408 
L 263.026447 73.607195 
L 273.84766 70.417513 
L 277.037342 81.238727 
" clip-path="url(#p0983cfe8d1)" style="fill: none; stroke: #ff0000; stroke-width: 0.72; stroke-linejoin: miter"/>
   </g>
   <g id="patch_9">
    <path d="M 97.598294 168.920042 
L 93.400276 172.687643 
L 83.981271 162.192597 
L 88.17929 158.424995 
L 97.598294 168.920042 
" clip-path="url(#p0983cfe8d1)" style="fill: none; stroke: #ff0000; stroke-width: 0.72; stroke-linejoin: miter"/>
   </g>
   <g id="patch_10">
    <path d="M 75.386994 230.682051 
L 79.967317 233.974287 
L 71.736726 245.425096 
L 67.156403 242.132859 
L 75.386994 230.682051 
" clip-path="url(#p0983cfe8d1)" style="fill: none; stroke: #ff0000; stroke-width: 0.72; stroke-linejoin: miter"/>
   </g>
   <g id="patch_11">
    <path d="M 352.571889 280.21578 
L 363.83918 280.782231 
L 363.272729 292.049523 
L 352.005437 291.483071 
L 352.571889 280.21578 
" clip-path="url(#p0983cfe8d1)" style="fill: none; stroke: #ff0000; stroke-width: 0.72; stroke-linejoin: miter"/>
   </g>
   <g id="patch_12">
    <path d="M 953.809475 159.752857 
L 953.71649 155.054153 
L 953.437701 150.363747 
L 952.973599 145.689923 
L 952.325004 141.040935 
L 951.493061 136.424995 
L 950.479241 131.850253 
L 949.285333 127.324791 
L 947.913445 122.856599 
L 946.366002 118.453569 
L 944.645735 114.123478 
L 942.755683 109.873972 
L 940.699184 105.712557 
L 938.47987 101.646582 
L 936.10166 97.683229 
L 933.568755 93.829496 
L 930.885627 90.092189 
L 928.057016 86.47791 
L 925.087917 82.993042 
L 921.983574 79.643738 
L 918.749469 76.435914 
L 915.391314 73.375236 
L 911.91504 70.467108 
L 908.326787 67.716668 
L 904.632891 65.128772 
L 900.839876 62.707991 
L 896.954441 60.458599 
L 892.983448 58.384571 
L 888.933911 56.489569 
L 884.812981 54.776939 
L 880.627935 53.249706 
L 876.386166 51.910568 
L 872.095165 50.761889 
L 867.762509 49.805698 
L 863.395851 49.043684 
L 859.002903 48.477193 
L 854.591422 48.107225 
L 850.169201 47.934433 
L 845.744049 47.959123 
L 841.323782 48.181251 
L 836.916205 48.600425 
L 832.529104 49.215904 
L 828.170225 50.026602 
L 823.847269 51.031086 
L 819.567868 52.227583 
L 815.339581 53.61398 
L 811.169876 55.187828 
L 807.066116 56.946347 
L 803.035549 58.886432 
L 799.085294 61.004657 
L 795.222327 63.29728 
L 791.453471 65.760252 
L 787.785381 68.389224 
L 784.224536 71.179553 
L 780.777224 74.12631 
L 777.449534 77.224292 
L 774.247343 80.468027 
L 771.176306 83.851786 
L 768.241847 87.369593 
L 765.449148 91.015236 
L 762.803142 94.782276 
L 760.308502 98.66406 
L 757.969633 102.653733 
L 755.790666 106.744248 
L 753.77545 110.928381 
L 751.927543 115.198742 
L 750.250209 119.54779 
L 748.74641 123.967844 
L 747.418803 128.451098 
L 746.269731 132.989633 
L 745.301225 137.575435 
L 744.514994 142.200404 
L 743.912428 146.856372 
L 743.49459 151.535117 
L 743.262218 156.228375 
L 743.215723 160.927858 
L 743.355187 165.625265 
L 743.680364 170.312302 
L 744.190679 174.980689 
L 744.885231 179.622182 
L 745.762793 184.228585 
L 746.821816 188.791761 
L 748.060429 193.303652 
L 749.476445 197.756288 
L 751.067362 202.141808 
L 752.830372 206.452464 
L 754.76236 210.680645 
L 756.859915 214.818883 
L 759.119331 218.859868 
L 761.53662 222.796466 
L 764.10751 226.621722 
L 766.827463 230.328882 
L 769.691674 233.911398 
L 772.695086 237.362944 
L 775.832392 240.677422 
L 779.098054 243.848981 
L 782.486303 246.872018 
L 785.991155 249.741194 
L 789.606421 252.451443 
L 793.325715 254.997978 
L 797.14247 257.3763 
L 801.049943 259.582211 
L 805.041235 261.611814 
L 809.109297 263.461525 
L 813.246943 265.128076 
L 817.446866 266.608525 
L 821.701649 267.900257 
L 826.003778 269.000991 
L 830.345654 269.908783 
L 834.71961 270.622029 
L 839.11792 271.13947 
L 843.532817 271.460191 
L 847.956503 271.583628 
L 852.381167 271.50956 
L 856.798993 271.23812 
L 861.202179 270.769787 
L 865.582949 270.105388 
L 869.933567 269.246096 
L 874.246348 268.193429 
L 878.513675 266.949245 
L 882.728013 265.515743 
L 886.881918 263.895454 
L 890.968054 262.09124 
L 894.979205 260.106286 
L 898.908286 257.944099 
L 902.748358 255.608497 
L 906.492641 253.103606 
L 910.13452 250.433848 
L 913.667563 247.603939 
L 917.085532 244.618877 
L 920.38239 241.483934 
L 923.552314 238.204646 
L 926.589706 234.786805 
L 929.489201 231.236448 
L 932.245679 227.559843 
L 934.854271 223.763485 
L 937.310371 219.854079 
L 939.609641 215.838528 
L 941.748019 211.723925 
L 943.721731 207.517536 
L 945.527289 203.22679 
L 947.161505 198.859265 
L 948.621492 194.422675 
L 949.904673 189.924855 
L 951.008781 185.373748 
L 951.931867 180.777392 
L 952.672299 176.143905 
L 953.22877 171.481469 
L 953.600298 166.79832 
L 953.786226 162.102728 
L 953.809475 159.752857 
L 953.809475 159.752857 
" clip-path="url(#p0983cfe8d1)" style="fill: none; stroke: #ff0000; stroke-width: 0.72; stroke-linejoin: miter"/>
   </g>
   <g id="patch_13">
    <path d="M 399.516446 145.650955 
L 413.618348 159.752857 
L 399.516446 173.854759 
L 385.414544 159.752857 
L 399.516446 145.650955 
" clip-path="url(#p0983cfe8d1)" style="fill: none; stroke: #ff0000; stroke-width: 0.72; stroke-linejoin: miter"/>
   </g>
   <g id="patch_14">
    <path d="M 841.243794 145.650955 
L 855.345696 159.752857 
L 841.243794 173.854759 
L 827.141892 159.752857 
L 841.243794 145.650955 
" clip-path="url(#p0983cfe8d1)" style="fill: none; stroke: #ff0000; stroke-width: 0.72; stroke-linejoin: miter"/>
   </g>
   <g id="patch_15">
    <path d="M 480.784559 225.319025 
L 493.952268 240.296966 
L 478.974327 253.464675 
L 465.806618 238.486734 
L 480.784559 225.319025 
" clip-path="url(#p0983cfe8d1)" style="fill: none; stroke: #ff0000; stroke-width: 0.72; stroke-linejoin: miter"/>
   </g>
   <g id="patch_16">
    <path d="M 992.101346 258.205172 
L 1005.269055 273.183113 
L 990.291114 286.350822 
L 977.123405 271.372881 
L 992.101346 258.205172 
" clip-path="url(#p0983cfe8d1)" style="fill: none; stroke: #ff0000; stroke-width: 0.72; stroke-linejoin: miter"/>
   </g>
   <g id="patch_17">
    <path d="M 411.350731 198.933423 
L 425.452633 184.831521 
L 439.554535 198.933423 
L 425.452633 213.035325 
L 411.350731 198.933423 
" clip-path="url(#p0983cfe8d1)" style="fill: none; stroke: #ff0000; stroke-width: 0.72; stroke-linejoin: miter"/>
   </g>
   <g id="patch_18">
    <path d="M 411.350731 132.616249 
L 425.452633 118.514347 
L 439.554535 132.616249 
L 425.452633 146.718151 
L 411.350731 132.616249 
" clip-path="url(#p0983cfe8d1)" style="fill: none; stroke: #ff0000; stroke-width: 0.72; stroke-linejoin: miter"/>
   </g>
   <g id="line2d_1">
    <path d="M 86.699076 159.752857 
L 1099.636364 159.752857 
" clip-path="url(#p0983cfe8d1)" style="fill: none; stroke: #ffffff; stroke-width: 0.72; stroke-linecap: square"/>
   </g>
   <g id="line2d_2">
    <path d="M 382.594164 159.752857 
L 416.438729 159.752857 
" clip-path="url(#p0983cfe8d1)" style="fill: none; stroke: #ffffff; stroke-width: 0.72; stroke-linecap: square"/>
   </g>
   <g id="line2d_3">
    <path d="M 824.321511 159.752857 
L 858.166076 159.752857 
" clip-path="url(#p0983cfe8d1)" style="fill: none; stroke: #ffffff; stroke-width: 0.72; stroke-linecap: square"/>
   </g>
   <g id="line2d_4">
    <path d="M 52.531341 211.906281 
L 1099.636364 279.252496 
" clip-path="url(#p0983cfe8d1)" style="fill: none; stroke: #ffffff; stroke-width: 0.72; stroke-linecap: square"/>
   </g>
   <g id="line2d_5">
    <path d="M 462.992053 238.30571 
L 496.766833 240.477989 
" clip-path="url(#p0983cfe8d1)" style="fill: none; stroke: #ffffff; stroke-width: 0.72; stroke-linecap: square"/>
   </g>
   <g id="line2d_6">
    <path d="M 974.30884 271.191858 
L 1008.08362 273.364137 
" clip-path="url(#p0983cfe8d1)" style="fill: none; stroke: #ffffff; stroke-width: 0.72; stroke-linecap: square"/>
   </g>
   <g id="line2d_7">
    <path d="M 848.509693 47.920544 
L 848.509693 45.100164 
" clip-path="url(#p0983cfe8d1)" style="fill: none; stroke: #ff0000; stroke-width: 0.72; stroke-linecap: square"/>
   </g>
   <g id="line2d_8">
    <path d="M 848.509693 271.585171 
L 848.509693 274.405551 
" clip-path="url(#p0983cfe8d1)" style="fill: none; stroke: #ff0000; stroke-width: 0.72; stroke-linecap: square"/>
   </g>
   <g id="line2d_9">
    <path d="M 953.809475 159.752857 
L 956.629855 159.752857 
" clip-path="url(#p0983cfe8d1)" style="fill: none; stroke: #ff0000; stroke-width: 0.72; stroke-linecap: square"/>
   </g>
   <g id="line2d_10">
    <path d="M 743.209911 159.752857 
L 740.389531 159.752857 
" clip-path="url(#p0983cfe8d1)" style="fill: none; stroke: #ff0000; stroke-width: 0.72; stroke-linecap: square"/>
   </g>
   <g id="line2d_11">
    <path d="M 425.452633 294.635932 
L 425.452633 36.91374 
" clip-path="url(#p0983cfe8d1)" style="fill: none; stroke: #ffffff; stroke-width: 0.72; stroke-linecap: square"/>
   </g>
   <g id="line2d_12">
    <path d="M 425.452633 215.855705 
L 425.452633 182.011141 
" clip-path="url(#p0983cfe8d1)" style="fill: none; stroke: #ffffff; stroke-width: 0.72; stroke-linecap: square"/>
   </g>
   <g id="line2d_13">
    <path d="M 425.452633 149.538531 
L 425.452633 115.693966 
" clip-path="url(#p0983cfe8d1)" style="fill: none; stroke: #ffffff; stroke-width: 0.72; stroke-linecap: square"/>
   </g>
  </g>
 </g>
 <defs>
  <clipPath id="p0983cfe8d1">
   <rect x="0" y="0" width="1152" height="320.866671"/>
  </clipPath>
 </defs>
</svg>
