  0
SECTION
  2
HEADER
  9
$ACADVER
  1
AC1021
  9
$ACADMAINTVER
 70
25
  9
$DWGCODEPAGE
  3
ANSI_1252
  9
$LASTSAVEDBY
  1
ezdxf
  9
$INSBASE
 10
0.0
 20
0.0
 30
0.0
  9
$EXTMIN
 10
1e+20
 20
1e+20
 30
1e+20
  9
$EXTMAX
 10
-1e+20
 20
-1e+20
 30
-1e+20
  9
$LIMMIN
 10
0.0
 20
0.0
  9
$LIMMAX
 10
420.0
 20
297.0
  9
$ORTHOMODE
 70
0
  9
$REGENMODE
 70
1
  9
$FILLMODE
 70
1
  9
$QTEXTMODE
 70
0
  9
$MIRRTEXT
 70
1
  9
$LTSCALE
 40
1.0
  9
$ATTMODE
 70
1
  9
$TEXTSIZE
 40
2.5
  9
$TRACEWID
 40
1.0
  9
$TEXTSTYLE
  7
OpenSans
  9
$CLAYER
  8
0
  9
$CELTYPE
  6
ByLayer
  9
$CECOLOR
 62
256
  9
$CELTSCALE
 40
1.0
  9
$DISPSILH
 70
0
  9
$DIMSCALE
 40
1.0
  9
$DIMASZ
 40
0.175
  9
$DIMEXO
 40
0.125
  9
$DIMDLI
 40
3.75
  9
$DIMRND
 40
0.0
  9
$DIMDLE
 40
0.0
  9
$DIMEXE
 40
0.375
  9
$DIMTP
 40
0.0
  9
$DIMTM
 40
0.0
  9
$DIMTXT
 40
0.25
  9
$DIMCEN
 40
2.5
  9
$DIMTSZ
 40
0.0
  9
$DIMTOL
 70
0
  9
$DIMLIM
 70
0
  9
$DIMTIH
 70
0
  9
$DIMTOH
 70
0
  9
$DIMSE1
 70
0
  9
$DIMSE2
 70
0
  9
$DIMTAD
 70
1
  9
$DIMZIN
 70
12
  9
$DIMBLK
  1
ARCHTICK
  9
$DIMASO
 70
1
  9
$DIMSHO
 70
1
  9
$DIMPOST
  1

  9
$DIMAPOST
  1

  9
$DIMALT
 70
0
  9
$DIMALTD
 70
3
  9
$DIMALTF
 40
0.03937007874
  9
$DIMLFAC
 40
100.0
  9
$DIMTOFL
 70
1
  9
$DIMTVP
 40
0.0
  9
$DIMTIX
 70
0
  9
$DIMSOXD
 70
0
  9
$DIMSAH
 70
0
  9
$DIMBLK1
  1

  9
$DIMBLK2
  1

  9
$DIMSTYLE
  2
EZDXF
  9
$DIMCLRD
 70
0
  9
$DIMCLRE
 70
0
  9
$DIMCLRT
 70
0
  9
$DIMTFAC
 40
0.5
  9
$DIMGAP
 40
0.1
  9
$DIMJUST
 70
0
  9
$DIMSD1
 70
0
  9
$DIMSD2
 70
0
  9
$DIMTOLJ
 70
0
  9
$DIMTZIN
 70
8
  9
$DIMALTZ
 70
0
  9
$DIMALTTZ
 70
0
  9
$DIMUPT
 70
1
  9
$DIMDEC
 70
2
  9
$DIMTDEC
 70
2
  9
$DIMALTU
 70
2
  9
$DIMALTTD
 70
3
  9
$DIMTXSTY
  7
OpenSansCondensed-Light
  9
$DIMAUNIT
 70
0
  9
$DIMADEC
 70
2
  9
$DIMALTRND
 40
0.0
  9
$DIMAZIN
 70
3
  9
$DIMDSEP
 70
46
  9
$DIMATFIT
 70
3
  9
$DIMFRAC
 70
0
  9
$DIMLDRBLK
  1

  9
$DIMLUNIT
 70
2
  9
$DIMLWD
 70
-2
  9
$DIMLWE
 70
-2
  9
$DIMTMOVE
 70
2
  9
$DIMFXL
 40
1.0
  9
$DIMFXLON
 70
0
  9
$DIMJOGANG
 40
0.785398163397
  9
$DIMTFILL
 70
0
  9
$DIMTFILLCLR
 70
0
  9
$DIMARCSYM
 70
0
  9
$DIMLTYPE
  6

  9
$DIMLTEX1
  6

  9
$DIMLTEX2
  6

  9
$LUNITS
 70
2
  9
$LUPREC
 70
4
  9
$SKETCHINC
 40
1.0
  9
$FILLETRAD
 40
10.0
  9
$AUNITS
 70
0
  9
$AUPREC
 70
2
  9
$MENU
  1
.
  9
$ELEVATION
 40
0.0
  9
$PELEVATION
 40
0.0
  9
$THICKNESS
 40
0.0
  9
$LIMCHECK
 70
0
  9
$CHAMFERA
 40
0.0
  9
$CHAMFERB
 40
0.0
  9
$CHAMFERC
 40
0.0
  9
$CHAMFERD
 40
0.0
  9
$SKPOLY
 70
0
  9
$TDCREATE
 40
2461048.088402778
  9
$TDUCREATE
 40
2458532.153996898
  9
$TDUPDATE
 40
2461048.088402778
  9
$TDUUPDATE
 40
2458532.1544311
  9
$TDINDWG
 40
0.0
  9
$TDUSRTIMER
 40
0.0
  9
$USRTIMER
 70
1
  9
$ANGBASE
 50
0.0
  9
$ANGDIR
 70
0
  9
$PDMODE
 70
0
  9
$PDSIZE
 40
0.0
  9
$PLINEWID
 40
0.0
  9
$SPLFRAME
 70
0
  9
$SPLINETYPE
 70
6
  9
$SPLINESEGS
 70
8
  9
$HANDSEED
  5
BE
  9
$SURFTAB1
 70
6
  9
$SURFTAB2
 70
6
  9
$SURFTYPE
 70
6
  9
$SURFU
 70
6
  9
$SURFV
 70
6
  9
$UCSBASE
  2

  9
$UCSNAME
  2

  9
$UCSORG
 10
0.0
 20
0.0
 30
0.0
  9
$UCSXDIR
 10
1.0
 20
0.0
 30
0.0
  9
$UCSYDIR
 10
0.0
 20
1.0
 30
0.0
  9
$UCSORTHOREF
  2

  9
$UCSORTHOVIEW
 70
0
  9
$UCSORGTOP
 10
0.0
 20
0.0
 30
0.0
  9
$UCSORGBOTTOM
 10
0.0
 20
0.0
 30
0.0
  9
$UCSORGLEFT
 10
0.0
 20
0.0
 30
0.0
  9
$UCSORGRIGHT
 10
0.0
 20
0.0
 30
0.0
  9
$UCSORGFRONT
 10
0.0
 20
0.0
 30
0.0
  9
$UCSORGBACK
 10
0.0
 20
0.0
 30
0.0
  9
$PUCSBASE
  2

  9
$PUCSNAME
  2

  9
$PUCSORG
 10
0.0
 20
0.0
 30
0.0
  9
$PUCSXDIR
 10
1.0
 20
0.0
 30
0.0
  9
$PUCSYDIR
 10
0.0
 20
1.0
 30
0.0
  9
$PUCSORTHOREF
  2

  9
$PUCSORTHOVIEW
 70
0
  9
$PUCSORGTOP
 10
0.0
 20
0.0
 30
0.0
  9
$PUCSORGBOTTOM
 10
0.0
 20
0.0
 30
0.0
  9
$PUCSORGLEFT
 10
0.0
 20
0.0
 30
0.0
  9
$PUCSORGRIGHT
 10
0.0
 20
0.0
 30
0.0
  9
$PUCSORGFRONT
 10
0.0
 20
0.0
 30
0.0
  9
$PUCSORGBACK
 10
0.0
 20
0.0
 30
0.0
  9
$USERI1
 70
0
  9
$USERI2
 70
0
  9
$USERI3
 70
0
  9
$USERI4
 70
0
  9
$USERI5
 70
0
  9
$USERR1
 40
0.0
  9
$USERR2
 40
0.0
  9
$USERR3
 40
0.0
  9
$USERR4
 40
0.0
  9
$USERR5
 40
0.0
  9
$WORLDVIEW
 70
1
  9
$SHADEDGE
 70
3
  9
$SHADEDIF
 70
70
  9
$TILEMODE
 70
1
  9
$MAXACTVP
 70
64
  9
$PINSBASE
 10
0.0
 20
0.0
 30
0.0
  9
$PLIMCHECK
 70
0
  9
$PEXTMIN
 10
1e+20
 20
1e+20
 30
1e+20
  9
$PEXTMAX
 10
-1e+20
 20
-1e+20
 30
-1e+20
  9
$PLIMMIN
 10
0.0
 20
0.0
  9
$PLIMMAX
 10
420.0
 20
297.0
  9
$UNITMODE
 70
0
  9
$VISRETAIN
 70
1
  9
$PLINEGEN
 70
0
  9
$PSLTSCALE
 70
1
  9
$TREEDEPTH
 70
3020
  9
$CMLSTYLE
  2
Standard
  9
$CMLJUST
 70
0
  9
$CMLSCALE
 40
20.0
  9
$PROXYGRAPHICS
 70
1
  9
$MEASUREMENT
 70
1
  9
$CELWEIGHT
370
-1
  9
$ENDCAPS
280
0
  9
$JOINSTYLE
280
0
  9
$LWDISPLAY
290
0
  9
$INSUNITS
 70
6
  9
$HYPERLINKBASE
  1

  9
$STYLESHEET
  1

  9
$XEDIT
290
1
  9
$CEPSNTYPE
380
0
  9
$PSTYLEMODE
290
1
  9
$FINGERPRINTGUID
  2
{C97AE653-3C6E-41CA-8760-A5D13559FDB4}
  9
$VERSIONGUID
  2
{DEAE27FD-CB7C-45DB-88B1-27CE7920488A}
  9
$EXTNAMES
290
1
  9
$PSVPSCALE
 40
0.0
  9
$OLESTARTUP
290
0
  9
$SORTENTS
280
127
  9
$INDEXCTL
280
0
  9
$HIDETEXT
280
1
  9
$XCLIPFRAME
290
1
  9
$HALOGAP
280
0
  9
$OBSCOLOR
 70
257
  9
$OBSLTYPE
280
0
  9
$INTERSECTIONDISPLAY
280
0
  9
$INTERSECTIONCOLOR
 70
257
  9
$DIMASSOC
280
2
  9
$PROJECTNAME
  1

  9
$CAMERADISPLAY
290
0
  9
$LENSLENGTH
 40
50.0
  9
$CAMERAHEIGHT
 40
0.0
  9
$STEPSPERSEC
 40
24.0
  9
$STEPSIZE
 40
100.0
  9
$3DDWFPREC
 40
2.0
  9
$PSOLWIDTH
 40
0.005
  9
$PSOLHEIGHT
 40
0.08
  9
$LOFTANG1
 40
1.570796326795
  9
$LOFTANG2
 40
1.570796326795
  9
$LOFTMAG1
 40
0.0
  9
$LOFTMAG2
 40
0.0
  9
$LOFTPARAM
 70
7
  9
$LOFTNORMALS
280
1
  9
$LATITUDE
 40
37.795
  9
$LONGITUDE
 40
-122.394
  9
$NORTHDIRECTION
 40
0.0
  9
$TIMEZONE
 70
-8000
  9
$LIGHTGLYPHDISPLAY
280
1
  9
$TILEMODELIGHTSYNCH
280
1
  9
$CMATERIAL
347
20
  9
$SOLIDHIST
280
0
  9
$SHOWHIST
280
1
  9
$DWFFRAME
280
2
  9
$DGNFRAME
280
2
  9
$REALWORLDSCALE
290
1
  9
$INTERFERECOLOR
 62
256
  9
$CSHADOW
280
0
  9
$SHADOWPLANELOCATION
 40
0.0
  0
ENDSEC
  0
SECTION
  2
CLASSES
  0
CLASS
  1
ACDBDICTIONARYWDFLT
  2
AcDbDictionaryWithDefault
  3
ObjectDBX Classes
 90
0
 91
0
280
0
281
0
  0
CLASS
  1
SUN
  2
AcDbSun
  3
SCENEOE
 90
1153
 91
0
280
0
281
0
  0
CLASS
  1
VISUALSTYLE
  2
AcDbVisualStyle
  3
ObjectDBX Classes
 90
4095
 91
0
280
0
281
0
  0
CLASS
  1
MATERIAL
  2
AcDbMaterial
  3
ObjectDBX Classes
 90
1153
 91
0
280
0
281
0
  0
CLASS
  1
SCALE
  2
AcDbScale
  3
ObjectDBX Classes
 90
1153
 91
0
280
0
281
0
  0
CLASS
  1
TABLESTYLE
  2
AcDbTableStyle
  3
ObjectDBX Classes
 90
4095
 91
0
280
0
281
0
  0
CLASS
  1
MLEADERSTYLE
  2
AcDbMLeaderStyle
  3
ACDB_MLEADERSTYLE_CLASS
 90
4095
 91
0
280
0
281
0
  0
CLASS
  1
DICTIONARYVAR
  2
AcDbDictionaryVar
  3
ObjectDBX Classes
 90
0
 91
0
280
0
281
0
  0
CLASS
  1
CELLSTYLEMAP
  2
AcDbCellStyleMap
  3
ObjectDBX Classes
 90
1152
 91
0
280
0
281
0
  0
CLASS
  1
MENTALRAYRENDERSETTINGS
  2
AcDbMentalRayRenderSettings
  3
SCENEOE
 90
1024
 91
0
280
0
281
0
  0
CLASS
  1
ACDBDETAILVIEWSTYLE
  2
AcDbDetailViewStyle
  3
ObjectDBX Classes
 90
1025
 91
0
280
0
281
0
  0
CLASS
  1
ACDBSECTIONVIEWSTYLE
  2
AcDbSectionViewStyle
  3
ObjectDBX Classes
 90
1025
 91
0
280
0
281
0
  0
CLASS
  1
RASTERVARIABLES
  2
AcDbRasterVariables
  3
ISM
 90
0
 91
0
280
0
281
0
  0
CLASS
  1
ACDBPLACEHOLDER
  2
AcDbPlaceHolder
  3
ObjectDBX Classes
 90
0
 91
0
280
0
281
0
  0
CLASS
  1
LAYOUT
  2
AcDbLayout
  3
ObjectDBX Classes
 90
0
 91
0
280
0
281
0
  0
ENDSEC
  0
SECTION
  2
TABLES
  0
TABLE
  2
VPORT
  5
8
330
0
100
AcDbSymbolTable
 70
1
  0
VPORT
  5
23
330
8
100
AcDbSymbolTableRecord
100
AcDbViewportTableRecord
  2
*Active
 70
0
 10
0.0
 20
0.0
 11
1.0
 21
1.0
 12
0.0
 22
0.0
 13
0.0
 23
0.0
 14
0.5
 24
0.5
 15
0.5
 25
0.5
 16
0.0
 26
0.0
 36
1.0
 17
0.0
 27
0.0
 37
0.0
 40
1000.0
 41
1.34
 42
50.0
 43
0.0
 44
0.0
 50
0.0
 51
0.0
 71
0
 72
1000
 73
1
 74
3
 75
0
 76
0
 77
0
 78
0
281
0
 65
0
146
0.0
  0
ENDTAB
  0
TABLE
  2
LTYPE
  5
2
330
0
100
AcDbSymbolTable
 70
21
  0
LTYPE
  5
24
330
2
100
AcDbSymbolTableRecord
100
AcDbLinetypeTableRecord
  2
ByBlock
 70
0
  3

 72
65
 73
0
 40
0.0
  0
LTYPE
  5
25
330
2
100
AcDbSymbolTableRecord
100
AcDbLinetypeTableRecord
  2
ByLayer
 70
0
  3

 72
65
 73
0
 40
0.0
  0
LTYPE
  5
26
330
2
100
AcDbSymbolTableRecord
100
AcDbLinetypeTableRecord
  2
Continuous
 70
0
  3

 72
65
 73
0
 40
0.0
  0
LTYPE
  5
2F
330
2
100
AcDbSymbolTableRecord
100
AcDbLinetypeTableRecord
  2
CENTER
 70
0
  3
Center ____ _ ____ _ ____ _ ____ _ ____ _ ____
 72
65
 73
4
 40
5.08
 49
3.175
 74
0
 49
-0.635
 74
0
 49
0.635
 74
0
 49
-0.635
 74
0
  0
LTYPE
  5
30
330
2
100
AcDbSymbolTableRecord
100
AcDbLinetypeTableRecord
  2
CENTERX2
 70
0
  3
Center (2x) ________  __  ________  __  ________
 72
65
 73
4
 40
8.89
 49
6.35
 74
0
 49
-0.635
 74
0
 49
1.27
 74
0
 49
-0.635
 74
0
  0
LTYPE
  5
31
330
2
100
AcDbSymbolTableRecord
100
AcDbLinetypeTableRecord
  2
CENTER2
 70
0
  3
Center (.5x) ____ _ ____ _ ____ _ ____ _ ____
 72
65
 73
4
 40
2.54
 49
1.587
 74
0
 49
-0.318
 74
0
 49
0.318
 74
0
 49
-0.318
 74
0
  0
LTYPE
  5
32
330
2
100
AcDbSymbolTableRecord
100
AcDbLinetypeTableRecord
  2
DASHED
 70
0
  3
Dashed __ __ __ __ __ __ __ __ __ __ __ __ __ _
 72
65
 73
2
 40
1.524
 49
1.27
 74
0
 49
-0.254
 74
0
  0
LTYPE
  5
33
330
2
100
AcDbSymbolTableRecord
100
AcDbLinetypeTableRecord
  2
DASHEDX2
 70
0
  3
Dashed (2x) ____  ____  ____  ____  ____  ____
 72
65
 73
2
 40
3.048
 49
2.54
 74
0
 49
-0.508
 74
0
  0
LTYPE
  5
34
330
2
100
AcDbSymbolTableRecord
100
AcDbLinetypeTableRecord
  2
DASHED2
 70
0
  3
Dashed (.5x) _ _ _ _ _ _ _ _ _ _ _ _ _ _
 72
65
 73
2
 40
0.762
 49
0.635
 74
0
 49
-0.127
 74
0
  0
LTYPE
  5
35
330
2
100
AcDbSymbolTableRecord
100
AcDbLinetypeTableRecord
  2
PHANTOM
 70
0
  3
Phantom ______  __  __  ______  __  __  ______
 72
65
 73
6
 40
6.35
 49
3.175
 74
0
 49
-0.635
 74
0
 49
0.635
 74
0
 49
-0.635
 74
0
 49
0.635
 74
0
 49
-0.635
 74
0
  0
LTYPE
  5
36
330
2
100
AcDbSymbolTableRecord
100
AcDbLinetypeTableRecord
  2
PHANTOMX2
 70
0
  3
Phantom (2x)____________    ____    ____    ____________
 72
65
 73
6
 40
10.795
 49
6.35
 74
0
 49
-0.635
 74
0
 49
1.27
 74
0
 49
-0.635
 74
0
 49
1.27
 74
0
 49
-0.635
 74
0
  0
LTYPE
  5
37
330
2
100
AcDbSymbolTableRecord
100
AcDbLinetypeTableRecord
  2
PHANTOM2
 70
0
  3
Phantom (.5x) ___ _ _ ___ _ _ ___ _ _ ___ _ _ ___
 72
65
 73
6
 40
3.175
 49
1.587
 74
0
 49
-0.318
 74
0
 49
0.318
 74
0
 49
-0.318
 74
0
 49
0.318
 74
0
 49
-0.318
 74
0
  0
LTYPE
  5
38
330
2
100
AcDbSymbolTableRecord
100
AcDbLinetypeTableRecord
  2
DASHDOT
 70
0
  3
Dash dot __ . __ . __ . __ . __ . __ . __ . __
 72
65
 73
4
 40
3.556
 49
2.54
 74
0
 49
-0.508
 74
0
 49
0.0
 74
0
 49
-0.508
 74
0
  0
LTYPE
  5
39
330
2
100
AcDbSymbolTableRecord
100
AcDbLinetypeTableRecord
  2
DASHDOTX2
 70
0
  3
Dash dot (2x) ____  .  ____  .  ____  .  ____
 72
65
 73
4
 40
6.096
 49
5.08
 74
0
 49
-0.508
 74
0
 49
0.0
 74
0
 49
-0.508
 74
0
  0
LTYPE
  5
3A
330
2
100
AcDbSymbolTableRecord
100
AcDbLinetypeTableRecord
  2
DASHDOT2
 70
0
  3
Dash dot (.5x) _ . _ . _ . _ . _ . _ . _ . _
 72
65
 73
4
 40
1.778
 49
1.27
 74
0
 49
-0.254
 74
0
 49
0.0
 74
0
 49
-0.254
 74
0
  0
LTYPE
  5
3B
330
2
100
AcDbSymbolTableRecord
100
AcDbLinetypeTableRecord
  2
DOT
 70
0
  3
Dot .  .  .  .  .  .  .  .  .  .  .  .  .  .  .  .
 72
65
 73
2
 40
0.508
 49
0.0
 74
0
 49
-0.508
 74
0
  0
LTYPE
  5
3C
330
2
100
AcDbSymbolTableRecord
100
AcDbLinetypeTableRecord
  2
DOTX2
 70
0
  3
Dot (2x) .    .    .    .    .    .    .    . 
 72
65
 73
2
 40
1.016
 49
0.0
 74
0
 49
-1.016
 74
0
  0
LTYPE
  5
3D
330
2
100
AcDbSymbolTableRecord
100
AcDbLinetypeTableRecord
  2
DOT2
 70
0
  3
Dot (.5) . . . . . . . . . . . . . . . . . . . 
 72
65
 73
2
 40
0.254
 49
0.0
 74
0
 49
-0.254
 74
0
  0
LTYPE
  5
3E
330
2
100
AcDbSymbolTableRecord
100
AcDbLinetypeTableRecord
  2
DIVIDE
 70
0
  3
Divide __ . . __ . . __ . . __ . . __ . . __
 72
65
 73
6
 40
4.064
 49
2.54
 74
0
 49
-0.508
 74
0
 49
0.0
 74
0
 49
-0.508
 74
0
 49
0.0
 74
0
 49
-0.508
 74
0
  0
LTYPE
  5
3F
330
2
100
AcDbSymbolTableRecord
100
AcDbLinetypeTableRecord
  2
DIVIDEX2
 70
0
  3
Divide (2x) ____  . .  ____  . .  ____  . .  ____
 72
65
 73
6
 40
6.604
 49
5.08
 74
0
 49
-0.508
 74
0
 49
0.0
 74
0
 49
-0.508
 74
0
 49
0.0
 74
0
 49
-0.508
 74
0
  0
LTYPE
  5
40
330
2
100
AcDbSymbolTableRecord
100
AcDbLinetypeTableRecord
  2
DIVIDE2
 70
0
  3
Divide(.5x) _ . _ . _ . _ . _ . _ . _ . _
 72
65
 73
6
 40
2.032
 49
1.27
 74
0
 49
-0.254
 74
0
 49
0.0
 74
0
 49
-0.254
 74
0
 49
0.0
 74
0
 49
-0.254
 74
0
  0
ENDTAB
  0
TABLE
  2
LAYER
  5
1
330
0
100
AcDbSymbolTable
 70
5
  0
LAYER
  5
27
330
1
100
AcDbSymbolTableRecord
100
AcDbLayerTableRecord
  2
0
 70
0
 62
7
  6
Continuous
370
-3
390
13
347
21
  0
LAYER
  5
28
330
1
100
AcDbSymbolTableRecord
100
AcDbLayerTableRecord
  2
Defpoints
 70
0
 62
7
  6
Continuous
290
0
370
-3
390
13
347
21
  0
LAYER
  5
8A
330
1
100
AcDbSymbolTableRecord
100
AcDbLayerTableRecord
  2
Layer
 70
0
 62
1
  6
Continuous
370
50
390
13
347
21
  0
LAYER
  5
8B
330
1
100
AcDbSymbolTableRecord
100
AcDbLayerTableRecord
  2
NumLabel
 70
0
 62
1
  6
Continuous
370
15
390
13
347
21
  0
LAYER
  5
BC
330
1
100
AcDbSymbolTableRecord
100
AcDbLayerTableRecord
  2
SplitMark
 70
0
 62
3
  6
Continuous
370
-3
390
13
347
21
  0
ENDTAB
  0
TABLE
  2
STYLE
  5
5
330
0
100
AcDbSymbolTable
 70
26
  0
STYLE
  5
29
330
5
100
AcDbSymbolTableRecord
100
AcDbTextStyleTableRecord
  2
Standard
 70
0
 40
0.0
 41
1.0
 50
0.0
 71
0
 42
2.5
  3
txt
  4

  0
STYLE
  5
41
330
5
100
AcDbSymbolTableRecord
100
AcDbTextStyleTableRecord
  2
OpenSans-Light
 70
0
 40
0.0
 41
1.0
 50
0.0
 71
0
 42
2.5
  3
OpenSans-Light.ttf
  4

  0
STYLE
  5
42
330
5
100
AcDbSymbolTableRecord
100
AcDbTextStyleTableRecord
  2
OpenSans-Light-Italic
 70
0
 40
0.0
 41
1.0
 50
0.0
 71
0
 42
2.5
  3
OpenSans-LightItalic.ttf
  4

  0
STYLE
  5
43
330
5
100
AcDbSymbolTableRecord
100
AcDbTextStyleTableRecord
  2
OpenSans
 70
0
 40
0.0
 41
1.0
 50
0.0
 71
0
 42
2.5
  3
OpenSans-Regular.ttf
  4

  0
STYLE
  5
44
330
5
100
AcDbSymbolTableRecord
100
AcDbTextStyleTableRecord
  2
OpenSans-Italic
 70
0
 40
0.0
 41
1.0
 50
0.0
 71
0
 42
2.5
  3
OpenSans-Italic.ttf
  4

  0
STYLE
  5
45
330
5
100
AcDbSymbolTableRecord
100
AcDbTextStyleTableRecord
  2
OpenSans-SemiBold
 70
0
 40
0.0
 41
1.0
 50
0.0
 71
0
 42
2.5
  3
OpenSans-SemiBold.ttf
  4

  0
STYLE
  5
46
330
5
100
AcDbSymbolTableRecord
100
AcDbTextStyleTableRecord
  2
OpenSans-SemiBoldItalic
 70
0
 40
0.0
 41
1.0
 50
0.0
 71
0
 42
2.5
  3
OpenSans-SemiBoldItalic.ttf
  4

  0
STYLE
  5
47
330
5
100
AcDbSymbolTableRecord
100
AcDbTextStyleTableRecord
  2
OpenSans-Bold
 70
0
 40
0.0
 41
1.0
 50
0.0
 71
0
 42
2.5
  3
OpenSans-Bold.ttf
  4

  0
STYLE
  5
48
330
5
100
AcDbSymbolTableRecord
100
AcDbTextStyleTableRecord
  2
OpenSans-BoldItalic
 70
0
 40
0.0
 41
1.0
 50
0.0
 71
0
 42
2.5
  3
OpenSans-BoldItalic.ttf
  4

  0
STYLE
  5
49
330
5
100
AcDbSymbolTableRecord
100
AcDbTextStyleTableRecord
  2
OpenSans-ExtraBold
 70
0
 40
0.0
 41
1.0
 50
0.0
 71
0
 42
2.5
  3
OpenSans-ExtraBold.ttf
  4

  0
STYLE
  5
4A
330
5
100
AcDbSymbolTableRecord
100
AcDbTextStyleTableRecord
  2
OpenSans-ExtraBoldItalic
 70
0
 40
0.0
 41
1.0
 50
0.0
 71
0
 42
2.5
  3
OpenSans-ExtraBoldItalic.ttf
  4

  0
STYLE
  5
4B
330
5
100
AcDbSymbolTableRecord
100
AcDbTextStyleTableRecord
  2
OpenSansCondensed-Bold
 70
0
 40
0.0
 41
1.0
 50
0.0
 71
0
 42
2.5
  3
OpenSansCondensed-Bold.ttf
  4

  0
STYLE
  5
4C
330
5
100
AcDbSymbolTableRecord
100
AcDbTextStyleTableRecord
  2
OpenSansCondensed-Light
 70
0
 40
0.0
 41
1.0
 50
0.0
 71
0
 42
2.5
  3
OpenSansCondensed-Light.ttf
  4

  0
STYLE
  5
4D
330
5
100
AcDbSymbolTableRecord
100
AcDbTextStyleTableRecord
  2
OpenSansCondensed-Italic
 70
0
 40
0.0
 41
1.0
 50
0.0
 71
0
 42
2.5
  3
OpenSansCondensed-LightItalic.ttf
  4

  0
STYLE
  5
4E
330
5
100
AcDbSymbolTableRecord
100
AcDbTextStyleTableRecord
  2
LiberationSans
 70
0
 40
0.0
 41
1.0
 50
0.0
 71
0
 42
2.5
  3
LiberationSans-Regular.ttf
  4

  0
STYLE
  5
4F
330
5
100
AcDbSymbolTableRecord
100
AcDbTextStyleTableRecord
  2
LiberationSans-Bold
 70
0
 40
0.0
 41
1.0
 50
0.0
 71
0
 42
2.5
  3
LiberationSans-Bold.ttf
  4

  0
STYLE
  5
50
330
5
100
AcDbSymbolTableRecord
100
AcDbTextStyleTableRecord
  2
LiberationSans-BoldItalic
 70
0
 40
0.0
 41
1.0
 50
0.0
 71
0
 42
2.5
  3
LiberationSans-BoldItalic.ttf
  4

  0
STYLE
  5
51
330
5
100
AcDbSymbolTableRecord
100
AcDbTextStyleTableRecord
  2
LiberationSans-Italic
 70
0
 40
0.0
 41
1.0
 50
0.0
 71
0
 42
2.5
  3
LiberationSans-Italic.ttf
  4

  0
STYLE
  5
52
330
5
100
AcDbSymbolTableRecord
100
AcDbTextStyleTableRecord
  2
LiberationSerif
 70
0
 40
0.0
 41
1.0
 50
0.0
 71
0
 42
2.5
  3
LiberationSerif-Regular.ttf
  4

  0
STYLE
  5
53
330
5
100
AcDbSymbolTableRecord
100
AcDbTextStyleTableRecord
  2
LiberationSerif-Bold
 70
0
 40
0.0
 41
1.0
 50
0.0
 71
0
 42
2.5
  3
LiberationSerif-Bold.ttf
  4

  0
STYLE
  5
54
330
5
100
AcDbSymbolTableRecord
100
AcDbTextStyleTableRecord
  2
LiberationSerif-BoldItalic
 70
0
 40
0.0
 41
1.0
 50
0.0
 71
0
 42
2.5
  3
LiberationSerif-BoldItalic.ttf
  4

  0
STYLE
  5
55
330
5
100
AcDbSymbolTableRecord
100
AcDbTextStyleTableRecord
  2
LiberationSerif-Italic
 70
0
 40
0.0
 41
1.0
 50
0.0
 71
0
 42
2.5
  3
LiberationSerif-Italic.ttf
  4

  0
STYLE
  5
56
330
5
100
AcDbSymbolTableRecord
100
AcDbTextStyleTableRecord
  2
LiberationMono
 70
0
 40
0.0
 41
1.0
 50
0.0
 71
0
 42
2.5
  3
LiberationMono-Regular.ttf
  4

  0
STYLE
  5
57
330
5
100
AcDbSymbolTableRecord
100
AcDbTextStyleTableRecord
  2
LiberationMono-Bold
 70
0
 40
0.0
 41
1.0
 50
0.0
 71
0
 42
2.5
  3
LiberationMono-Bold.ttf
  4

  0
STYLE
  5
58
330
5
100
AcDbSymbolTableRecord
100
AcDbTextStyleTableRecord
  2
LiberationMono-BoldItalic
 70
0
 40
0.0
 41
1.0
 50
0.0
 71
0
 42
2.5
  3
LiberationMono-BoldItalic.ttf
  4

  0
STYLE
  5
59
330
5
100
AcDbSymbolTableRecord
100
AcDbTextStyleTableRecord
  2
LiberationMono-Italic
 70
0
 40
0.0
 41
1.0
 50
0.0
 71
0
 42
2.5
  3
LiberationMono-Italic.ttf
  4

  0
ENDTAB
  0
TABLE
  2
VIEW
  5
7
330
0
100
AcDbSymbolTable
 70
0
  0
ENDTAB
  0
TABLE
  2
UCS
  5
6
330
0
100
AcDbSymbolTable
 70
0
  0
ENDTAB
  0
TABLE
  2
APPID
  5
3
330
0
100
AcDbSymbolTable
 70
3
  0
APPID
  5
2A
330
3
100
AcDbSymbolTableRecord
100
AcDbRegAppTableRecord
  2
ACAD
 70
0
  0
APPID
  5
B9
330
3
100
AcDbSymbolTableRecord
100
AcDbRegAppTableRecord
  2
HATCHBACKGROUNDCOLOR
 70
0
  0
APPID
  5
BA
330
3
100
AcDbSymbolTableRecord
100
AcDbRegAppTableRecord
  2
EZDXF
 70
0
  0
ENDTAB
  0
TABLE
  2
DIMSTYLE
  5
4
330
0
100
AcDbSymbolTable
 70
12
100
AcDbDimStyleTable
  0
DIMSTYLE
105
2B
330
4
100
AcDbSymbolTableRecord
100
AcDbDimStyleTableRecord
  2
Standard
 70
0
 40
1.0
 41
2.5
 42
0.625
 43
3.75
 44
1.25
 45
0.0
 46
0.0
 47
0.0
 48
0.0
 49
2.5
140
2.5
141
2.5
142
0.0
143
0.03937007874
144
1.0
145
0.0
146
1.0
147
0.625
148
0.0
 69
0
 70
0
 71
0
 72
0
 73
0
 74
0
 75
0
 76
0
 77
1
 78
8
 79
3
170
0
171
3
172
1
173
0
174
0
175
0
176
0
177
0
178
0
179
2
271
2
272
2
273
2
274
3
275
0
276
0
277
2
278
44
279
0
280
0
281
0
282
0
283
0
284
8
285
0
286
0
288
0
289
3
290
0
371
-2
372
-2
  0
DIMSTYLE
105
73
330
4
100
AcDbSymbolTableRecord
100
AcDbDimStyleTableRecord
  2
EZDXF
 70
0
 40
1.0
 41
0.175
 42
0.125
 43
3.75
 44
0.375
 45
0.0
 46
0.0
 47
0.0
 48
0.0
 49
2.5
140
0.25
141
2.5
142
0.0
143
0.03937007874
144
100.0
145
0.0
146
0.5
147
0.1
148
0.0
 69
0
 70
0
 71
0
 72
0
 73
0
 74
0
 75
0
 76
0
 77
1
 78
12
 79
3
170
0
171
3
172
1
173
0
174
0
175
0
176
0
177
0
178
0
179
2
271
2
272
2
273
2
274
3
275
0
276
0
277
2
278
46
279
2
280
0
281
0
282
0
283
0
284
8
285
0
286
0
288
1
289
3
290
0
340
4C
342
74
371
-2
372
-2
  0
DIMSTYLE
105
7C
330
4
100
AcDbSymbolTableRecord
100
AcDbDimStyleTableRecord
  2
EZ_M_100_H25_CM
 70
0
 40
1.0
 41
0.25
 42
0.125
 43
3.75
 44
0.375
 45
0.0
 46
0.0
 47
0.0
 48
0.0
 49
2.5
140
0.25
141
2.5
142
0.125
143
0.03937007874
144
100.0
145
0.0
146
0.5
147
0.1
148
0.0
 69
0
 70
0
 71
0
 72
0
 73
0
 74
0
 75
0
 76
0
 77
1
 78
12
 79
3
170
0
171
3
172
1
173
0
174
0
175
0
176
0
177
0
178
0
179
2
271
2
272
2
273
2
274
3
275
0
276
0
277
2
278
46
279
2
280
0
281
0
282
0
283
0
284
8
285
0
286
0
288
1
289
3
290
0
340
4C
371
-2
372
-2
  0
DIMSTYLE
105
7D
330
4
100
AcDbSymbolTableRecord
100
AcDbDimStyleTableRecord
  2
EZ_M_50_H25_CM
 70
0
 40
1.0
 41
0.125
 42
0.0625
 43
3.75
 44
0.1875
 45
0.0
 46
0.0
 47
0.0
 48
0.0
 49
2.5
140
0.125
141
2.5
142
0.0625
143
0.03937007874
144
100.0
145
0.0
146
0.5
147
0.05
148
0.0
 69
0
 70
0
 71
0
 72
0
 73
0
 74
0
 75
0
 76
0
 77
1
 78
12
 79
3
170
0
171
3
172
1
173
0
174
0
175
0
176
0
177
0
178
0
179
2
271
2
272
2
273
2
274
3
275
0
276
0
277
2
278
46
279
2
280
0
281
0
282
0
283
0
284
8
285
0
286
0
288
1
289
3
290
0
340
4C
371
-2
372
-2
  0
DIMSTYLE
105
7E
330
4
100
AcDbSymbolTableRecord
100
AcDbDimStyleTableRecord
  2
EZ_M_25_H25_CM
 70
0
 40
1.0
 41
0.0625
 42
0.03125
 43
3.75
 44
0.09375
 45
0.0
 46
0.0
 47
0.0
 48
0.0
 49
2.5
140
0.0625
141
2.5
142
0.03125
143
0.03937007874
144
100.0
145
0.0
146
0.5
147
0.025
148
0.0
 69
0
 70
0
 71
0
 72
0
 73
0
 74
0
 75
0
 76
0
 77
1
 78
12
 79
3
170
0
171
3
172
1
173
0
174
0
175
0
176
0
177
0
178
0
179
2
271
2
272
2
273
2
274
3
275
0
276
0
277
2
278
46
279
2
280
0
281
0
282
0
283
0
284
8
285
0
286
0
288
1
289
3
290
0
340
4C
371
-2
372
-2
  0
DIMSTYLE
105
7F
330
4
100
AcDbSymbolTableRecord
100
AcDbDimStyleTableRecord
  2
EZ_M_20_H25_CM
 70
0
 40
1.0
 41
0.05
 42
0.025
 43
3.75
 44
0.07500000000000001
 45
0.0
 46
0.0
 47
0.0
 48
0.0
 49
2.5
140
0.05
141
2.5
142
0.025
143
0.03937007874
144
100.0
145
0.0
146
0.5
147
0.020000000000000004
148
0.0
 69
0
 70
0
 71
0
 72
0
 73
0
 74
0
 75
0
 76
0
 77
1
 78
12
 79
3
170
0
171
3
172
1
173
0
174
0
175
0
176
0
177
0
178
0
179
2
271
2
272
2
273
2
274
3
275
0
276
0
277
2
278
46
279
2
280
0
281
0
282
0
283
0
284
8
285
0
286
0
288
1
289
3
290
0
340
4C
371
-2
372
-2
  0
DIMSTYLE
105
80
330
4
100
AcDbSymbolTableRecord
100
AcDbDimStyleTableRecord
  2
EZ_M_10_H25_CM
 70
0
 40
1.0
 41
0.025
 42
0.0125
 43
3.75
 44
0.037500000000000006
 45
0.0
 46
0.0
 47
0.0
 48
0.0
 49
2.5
140
0.025
141
2.5
142
0.0125
143
0.03937007874
144
100.0
145
0.0
146
0.5
147
0.010000000000000002
148
0.0
 69
0
 70
0
 71
0
 72
0
 73
0
 74
0
 75
0
 76
0
 77
1
 78
12
 79
3
170
0
171
3
172
1
173
0
174
0
175
0
176
0
177
0
178
0
179
2
271
2
272
2
273
2
274
3
275
0
276
0
277
2
278
46
279
2
280
0
281
0
282
0
283
0
284
8
285
0
286
0
288
1
289
3
290
0
340
4C
371
-2
372
-2
  0
DIMSTYLE
105
81
330
4
100
AcDbSymbolTableRecord
100
AcDbDimStyleTableRecord
  2
EZ_M_5_H25_CM
 70
0
 40
1.0
 41
0.0125
 42
0.00625
 43
3.75
 44
0.018750000000000003
 45
0.0
 46
0.0
 47
0.0
 48
0.0
 49
2.5
140
0.0125
141
2.5
142
0.00625
143
0.03937007874
144
100.0
145
0.0
146
0.5
147
0.005000000000000001
148
0.0
 69
0
 70
0
 71
0
 72
0
 73
0
 74
0
 75
0
 76
0
 77
1
 78
12
 79
3
170
0
171
3
172
1
173
0
174
0
175
0
176
0
177
0
178
0
179
2
271
2
272
2
273
2
274
3
275
0
276
0
277
2
278
46
279
2
280
0
281
0
282
0
283
0
284
8
285
0
286
0
288
1
289
3
290
0
340
4C
371
-2
372
-2
  0
DIMSTYLE
105
82
330
4
100
AcDbSymbolTableRecord
100
AcDbDimStyleTableRecord
  2
EZ_M_1_H25_CM
 70
0
 40
1.0
 41
0.0025
 42
0.00125
 43
3.75
 44
0.00375
 45
0.0
 46
0.0
 47
0.0
 48
0.0
 49
2.5
140
0.0025
141
2.5
142
0.00125
143
0.03937007874
144
100.0
145
0.0
146
0.5
147
0.001
148
0.0
 69
0
 70
0
 71
0
 72
0
 73
0
 74
0
 75
0
 76
0
 77
1
 78
12
 79
3
170
0
171
3
172
1
173
0
174
0
175
0
176
0
177
0
178
0
179
2
271
2
272
2
273
2
274
3
275
0
276
0
277
2
278
46
279
2
280
0
281
0
282
0
283
0
284
8
285
0
286
0
288
1
289
3
290
0
340
4C
371
-2
372
-2
  0
DIMSTYLE
105
83
330
4
100
AcDbSymbolTableRecord
100
AcDbDimStyleTableRecord
  2
EZ_RADIUS
 70
0
 40
1.0
 41
0.25
 42
0.125
 43
3.75
 44
0.375
 45
0.0
 46
0.0
 47
0.0
 48
0.0
 49
2.5
140
0.25
141
0.0
142
0.0
143
0.03937007874
144
100.0
145
0.0
146
0.5
147
0.1
148
0.0
 69
0
 70
0
 71
0
 72
0
 73
0
 74
0
 75
0
 76
0
 77
1
 78
12
 79
3
170
0
171
3
172
0
173
0
174
0
175
0
176
0
177
0
178
0
179
2
271
2
272
2
273
2
274
3
275
0
276
0
277
2
278
46
279
1
280
0
281
0
282
0
283
0
284
8
285
0
286
0
288
1
289
3
290
0
340
4C
342
84
371
-2
372
-2
  0
DIMSTYLE
105
88
330
4
100
AcDbSymbolTableRecord
100
AcDbDimStyleTableRecord
  2
EZ_RADIUS_INSIDE
 70
0
 40
1.0
 41
0.25
 42
0.125
 43
3.75
 44
0.375
 45
0.0
 46
0.0
 47
0.0
 48
0.0
 49
2.5
140
0.25
141
0.0
142
0.0
143
0.03937007874
144
100.0
145
0.0
146
0.5
147
0.1
148
0.0
 69
0
 70
0
 71
0
 72
0
 73
0
 74
0
 75
0
 76
0
 77
0
 78
12
 79
3
170
0
171
3
172
0
173
0
174
1
175
0
176
0
177
0
178
0
179
2
271
2
272
2
273
2
274
3
275
0
276
0
277
2
278
46
279
0
280
0
281
0
282
0
283
0
284
8
285
0
286
0
288
1
289
0
290
0
340
4C
342
84
371
-2
372
-2
  0
DIMSTYLE
105
89
330
4
100
AcDbSymbolTableRecord
100
AcDbDimStyleTableRecord
  2
EZ_CURVED
 70
0
 40
1.0
 41
0.25
 42
0.125
 43
3.75
 44
0.375
 45
0.0
 46
0.0
 47
0.0
 48
0.0
 49
2.5
140
0.25
141
2.5
142
0.0
143
0.03937007874
144
100.0
145
0.0
146
0.5
147
0.1
148
0.0
 69
0
 70
0
 71
0
 72
0
 73
0
 74
0
 75
0
 76
0
 77
1
 78
12
 79
2
 90
2
170
0
171
3
172
1
173
0
174
0
175
0
176
0
177
0
178
0
179
2
271
2
272
2
273
2
274
3
275
0
276
0
277
2
278
46
279
2
280
0
281
0
282
0
283
0
284
8
285
0
286
0
288
1
289
3
290
0
340
4C
371
-2
372
-2
  0
ENDTAB
  0
TABLE
  2
BLOCK_RECORD
  5
9
330
0
100
AcDbSymbolTable
 70
5
  0
BLOCK_RECORD
  5
17
330
9
100
AcDbSymbolTableRecord
100
AcDbBlockTableRecord
  2
*Model_Space
340
1A
 70
0
280
1
281
0
  0
BLOCK_RECORD
  5
1B
330
9
100
AcDbSymbolTableRecord
100
AcDbBlockTableRecord
  2
*Paper_Space
340
1E
 70
0
280
1
281
0
  0
BLOCK_RECORD
  5
74
330
9
100
AcDbSymbolTableRecord
100
AcDbBlockTableRecord
  2
_ARCHTICK
340
0
 70
0
280
1
281
0
  0
BLOCK_RECORD
  5
78
330
9
100
AcDbSymbolTableRecord
100
AcDbBlockTableRecord
  2
_CLOSEDFILLED
340
0
 70
0
280
1
281
0
  0
BLOCK_RECORD
  5
84
330
9
100
AcDbSymbolTableRecord
100
AcDbBlockTableRecord
  2
_CLOSEDBLANK
340
0
 70
0
280
1
281
0
  0
ENDTAB
  0
ENDSEC
  0
SECTION
  2
BLOCKS
  0
BLOCK
  5
18
330
17
100
AcDbEntity
  8
0
100
AcDbBlockBegin
  2
*Model_Space
 70
0
 10
0.0
 20
0.0
 30
0.0
  3
*Model_Space
  1

  0
ENDBLK
  5
19
330
17
100
AcDbEntity
  8
0
100
AcDbBlockEnd
  0
BLOCK
  5
1C
330
1B
100
AcDbEntity
  8
0
100
AcDbBlockBegin
  2
*Paper_Space
 70
0
 10
0.0
 20
0.0
 30
0.0
  3
*Paper_Space
  1

  0
ENDBLK
  5
1D
330
1B
100
AcDbEntity
  8
0
100
AcDbBlockEnd
  0
BLOCK
  5
75
330
74
100
AcDbEntity
  8
0
100
AcDbBlockBegin
  2
_ARCHTICK
 70
0
 10
0.0
 20
0.0
 30
0.0
  3
_ARCHTICK
  1

  0
LWPOLYLINE
  5
77
330
74
100
AcDbEntity
  8
0
  6
BYBLOCK
 62
0
100
AcDbPolyline
 90
2
 70
0
 43
0.15
 10
-0.5
 20
-0.5
 10
0.5
 20
0.5
  0
ENDBLK
  5
76
330
74
100
AcDbEntity
  8
0
100
AcDbBlockEnd
  0
BLOCK
  5
79
330
78
100
AcDbEntity
  8
0
100
AcDbBlockBegin
  2
_CLOSEDFILLED
 70
0
 10
0.0
 20
0.0
 30
0.0
  3
_CLOSEDFILLED
  1

  0
SOLID
  5
7B
330
78
100
AcDbEntity
  8
0
  6
BYBLOCK
 62
0
100
AcDbTrace
 10
-1.0
 20
0.16439898372402537
 30
0.0
 11
0.0
 21
0.0
 31
0.0
 12
-1.0
 22
-0.16439898372402537
 32
0.0
 13
-1.0
 23
-0.16439898372402537
 33
0.0
  0
ENDBLK
  5
7A
330
78
100
AcDbEntity
  8
0
100
AcDbBlockEnd
  0
BLOCK
  5
85
330
84
100
AcDbEntity
  8
0
100
AcDbBlockBegin
  2
_CLOSEDBLANK
 70
0
 10
0.0
 20
0.0
 30
0.0
  3
_CLOSEDBLANK
  1

  0
LWPOLYLINE
  5
87
330
84
100
AcDbEntity
  8
0
  6
BYBLOCK
 62
0
100
AcDbPolyline
 90
3
 70
1
 10
-1.0
 20
0.16439898372402537
 10
0.0
 20
0.0
 10
-1.0
 20
-0.16439898372402537
  0
ENDBLK
  5
86
330
84
100
AcDbEntity
  8
0
100
AcDbBlockEnd
  0
ENDSEC
  0
SECTION
  2
ENTITIES
  0
LWPOLYLINE
  5
8C
330
17
100
AcDbEntity
  8
Layer
100
AcDbPolyline
 90
261
 70
1
 10
757.0244538358868
 20
133.03812944234016
 10
754.2177318143812
 20
134.04987031700875
 10
749.6456007037448
 20
135.69114978950074
 10
744.622283418897
 20
137.4776877075564
 10
739.1436612928846
 20
139.38931489177537
 10
733.184857299033
 20
141.42351634585833
 10
726.7815599665346
 20
143.60653760624152
 10
720.0049248760654
 20
145.9297408945148
 10
712.9298408075255
 20
148.37622511142786
 10
705.6164710912334
 20
150.9266166328636
 10
698.1213654461947
 20
153.56154938605917
 10
690.4830593955078
 20
156.266832849718
 10
682.7342461239987
 20
159.02650642626458
 10
674.901714721188
 20
161.82992218774723
 10
667.0025335642099
 20
164.66650554173097
 10
659.0588329487084
 20
167.52366986836387
 10
651.0933385374829
 20
170.39126431939144
 10
643.1273001406382
 20
173.2570163826907
 10
635.1742484882157
 20
176.11137380157993
 10
627.2447439933245
 20
178.94859024976475
 10
619.3483024815814
 20
181.76149763450692
 10
611.4865726233162
 20
184.54491222805476
 10
603.6609069178205
 20
187.29610919839928
 10
595.8751358244598
 20
190.0111311159915
 10
588.130711294213
 20
192.68516081995634
 10
580.4263221535894
 20
195.31521936715464
 10
573.1820809432938
 20
197.75750194816825
 10
572.8626133704132
 20
196.809904739499
 10
572.4472756723342
 20
196.94994398667458
 10
564.8305538354036
 20
199.48139216894842
 10
557.2535381024887
 20
201.95819213397652
 10
549.7105810039761
 20
204.37904340928375
 10
542.1988300360808
 20
206.74303284642968
 10
534.7152297008171
 20
209.048110821805
 10
527.2537472777648
 20
211.29309511958036
 10
519.8084244937521
 20
213.4784779918651
 10
512.37620403596
 20
215.604501724139
 10
504.95479631930976
 20
217.67026372069466
 10
497.53984371216757
 20
219.67526263192215
 10
490.12678426257105
 20
221.6199901081041
 10
482.71393197946327
 20
223.50534306547374
 10
475.3008578694987
 20
225.33072837688354
 10
467.88515019232335
 20
227.09529670202517
 10
460.46359925212425
 20
228.79965757062624
 10
453.0354528838478
 20
230.44465898049228
 10
445.60173485496625
 20
232.02983969969185
 10
438.16139298734885
 20
233.5543928292735
 10
430.71263969052626
 20
235.018527596888
 10
423.25473743629107
 20
236.42296086806653
 10
415.7894346133703
 20
237.7677033388522
 10
408.31717300814427
 20
239.05176293294903
 10
400.8364928800206
 20
240.27495701225024
 10
393.3473018554401
 20
241.43810233602315
 10
385.851454742928
 20
242.540913179827
 10
378.34908661184534
 20
243.58225946662992
 10
370.8367103808727
 20
244.56156866451408
 10
363.3108923065146
 20
245.48041706422774
 10
355.77313375821626
 20
246.34048980441673
 10
348.2268733939338
 20
247.14155734198744
 10
340.6729782035845
 20
247.88259548088615
 10
333.11045568098916
 20
248.56374863813332
 10
325.54132336667806
 20
249.18653096175592
 10
317.9709047101579
 20
249.75089830210212
 10
310.4025514280066
 20
250.25521255395495
 10
302.8362525720946
 20
250.6984963571165
 10
295.27339446252347
 20
251.08171323348247
 10
287.7189279236572
 20
251.4047042331416
 10
280.1766726856188
 20
251.66595581073463
 10
272.6465056634099
 20
251.8637344827708
 10
265.12891042956005
 20
251.99861292169675
 10
257.62850158760324
 20
252.07077034419933
 10
250.14928590978852
 20
252.07853416876543
 10
242.69188603756393
 20
252.02004007936637
 10
235.2564979671452
 20
251.8953494005678
 10
227.84784030030528
 20
251.70480192498837
 10
220.47083172385373
 20
251.44682954733827
 10
213.12622946564045
 20
251.11916571247448
 10
205.81521157976567
 20
250.72181040384658
 10
198.54302644852268
 20
250.25517344416974
 10
191.31551017691442
 20
249.7174815972122
 10
184.13383213233226
 20
249.1063357873832
 10
177.0004312806637
 20
248.4222111783846
 10
169.92257643677505
 20
247.6654286960142
 10
162.90586371527016
 20
246.83366442661998
 10
155.9523423160872
 20
245.92528173619485
 10
149.06726608734976
 20
244.94147570705348
 10
142.2594141188798
 20
243.88207559550952
 10
135.53437557499086
 20
242.7453274600756
 10
128.8969726306109
 20
241.53249028499823
 10
122.36108160364006
 20
240.2485538657055
 10
115.94327534696029
 20
238.89429162016742
 10
109.65351338791174
 20
237.46885351099706
 10
103.50295770998454
 20
235.9773728482353
 10
97.51175315808868
 20
234.42717633163312
 10
91.69777495497632
 20
232.82080164660692
 10
86.0734060259501
 20
231.16317591979654
 10
80.65584862429796
 20
229.46631830221662
 10
75.46618792380946
 20
227.7409025366508
 10
70.51852694086892
 20
225.99348138124043
 10
65.82217245001047
 20
224.23558530006054
 10
61.388057195759274
 20
222.48189707700146
 10
57.223467381757416
 20
220.7419321548229
 10
53.326992250107
 20
219.02242779405088
 10
49.69320697109117
 20
217.33317053988713
 10
46.31611966297663
 20
215.68298221696782
 10
43.18635205944085
 20
214.0749541608738
 10
40.289764882383
 20
212.50912522488184
 10
37.61004410132654
 20
210.9870503874233
 10
35.13227692623178
 20
209.51135183315318
 10
32.84284487978323
 20
208.08167679992593
 10
30.72757454201775
 20
206.6947928785934
 10
28.77227116449086
 20
205.34741804186652
 10
26.963363455830915
 20
204.0374477479693
 10
25.289843746487804
 20
202.76419374548874
 10
23.742701425361133
 20
201.52525575957645
 10
22.313512845500327
 20
200.31618122913963
 10
20.991844979263078
 20
199.13083648863912
 10
19.766273210875227
 20
197.9670570679235
 10
18.625571151293002
 20
196.8255022535787
 10
17.561541982021367
 20
195.71112079465425
 10
16.569966390556544
 20
194.62777009509728
 10
15.651412428064248
 20
193.5785672082106
 10
14.808011025968824
 20
192.55970874562317
 10
14.04144184983096
 20
191.56520021309692
 10
13.350817144442999
 20
190.58659996391185
 10
12.731510848025493
 20
189.61556964315972
 10
12.177333635635648
 20
188.64979788655464
 10
11.68168098896922
 20
187.6905609655237
 10
11.24023050631206
 20
186.74410162340604
 10
10.851187196221076
 20
185.81532162685858
 10
10.515287230289175
 20
184.90846524595935
 10
10.23439954336618
 20
184.023974370125
 10
10.009926894131183
 20
183.1589660798069
 10
9.841894247588982
 20
182.3103407394208
 10
9.728765690431942
 20
181.47554894629417
 10
9.664479554088302
 20
180.57484419121627
 10
9.65589771847425
 20
179.8326455786013
 10
9.696367850369313
 20
179.00729362138102
 10
9.79400734191978
 20
178.18642486593197
 10
9.955845110607413
 20
177.37363829928432
 10
10.190989516427408
 20
176.56762447957612
 10
10.507586895185625
 20
175.7656276185346
 10
10.909102253824301
 20
174.96722207957018
 10
11.393350687586405
 20
174.17505126285184
 10
11.954782565434357
 20
173.39418583212745
 10
12.589544795963377
 20
172.6294232883325
 10
13.297237796027218
 20
171.88445666047616
 10
14.081468064925616
 20
171.16075096755887
 10
14.945939798985876
 20
170.45820035740692
 10
15.89303338662637
 20
169.77513376618452
 10
16.921732550173658
 20
169.1095056249194
 10
18.031098469677886
 20
168.45909612325642
 10
19.220144928066986
 20
167.82285927533445
 10
20.492379475267228
 20
167.20037354586756
 10
21.85301755112488
 20
166.5914867336728
 10
23.31067097300928
 20
165.99542655381882
 10
24.87383506152713
 20
165.40985212341974
 10
26.55095937275803
 20
164.83119864059114
 10
28.351276485852054
 20
164.25554650484605
 10
30.284436174036216
 20
163.67946995943674
 10
32.363450966114556
 20
163.10110225125322
 10
34.604350687434476
 20
162.51958315851127
 10
37.02665537852681
 20
161.9339892736747
 10
39.65131530213782
 20
161.34253718031283
 10
42.501296263836565
 20
160.74350511699018
 10
45.60094790978417
 20
160.1362197380615
 10
48.97772895657272
 20
159.52179262897016
 10
52.661229388618324
 20
158.90209327376527
 10
56.67985488072628
 20
158.2779559165733
 10
61.057347040889255
 20
157.65080753309573
 10
65.81169494956993
 20
157.02538767454297
 10
70.95480105515398
 20
156.4084962485011
 10
76.4890895987883
 20
155.80533152694613
 10
82.40157854714806
 20
155.22024925920454
 10
88.66781485914069
 20
154.66085103704611
 10
95.25972738323057
 20
154.13354004624287
 10
102.1422455122983
 20
153.64015604049456
 10
109.27452894105761
 20
153.1833447002183
 10
116.62348013509524
 20
152.76623343050764
 10
124.16087583959222
 20
152.3872736252896
 10
131.8579949466883
 20
152.0447013042131
 10
139.69852405357057
 20
151.7395320789514
 10
147.67922372371302
 20
151.4655071019937
 10
155.77684083468043
 20
151.2074742386407
 10
156.63213972455355
 20
151.18139217702006
 10
156.60165921803195
 20
150.18185681560345
 10
163.90787977253717
 20
149.95905427103614
 10
172.09091757561595
 20
149.73101126190286
 10
180.30177440545992
 20
149.5369710410722
 10
188.5721934941152
 20
149.37553148701707
 10
196.91888887164131
 20
149.23299252444247
 10
205.32597061922127
 20
149.0947145291732
 10
213.76208543612836
 20
148.95328262880994
 10
222.20148527886644
 20
148.81198125093613
 10
230.62557597385404
 20
148.683063548907
 10
239.05184922570334
 20
148.57657132199492
 10
247.51128826196484
 20
148.48986621699967
 10
256.01600447051055
 20
148.4114082443894
 10
264.55070329531986
 20
148.33245121858891
 10
273.10255333918883
 20
148.25298648033566
 10
281.66103614760453
 20
148.17505416814808
 10
290.21668355773363
 20
148.09760456736228
 10
298.75697703629095
 20
148.02089677215278
 10
307.2757351132057
 20
147.95112060613587
 10
315.78367254082747
 20
147.8936370611951
 10
324.29245259302667
 20
147.84373758735143
 10
332.79686839243334
 20
147.78902213175047
 10
341.30200408977055
 20
147.72423278095908
 10
349.80788082550725
 20
147.6568007976113
 10
358.3123267948244
 20
147.59810685212682
 10
366.8255681369508
 20
147.54872526923035
 10
375.3431693052797
 20
147.50102979041162
 10
383.84913825682423
 20
147.45187305139143
 10
392.33458413411694
 20
147.40950469357236
 10
400.8063676601494
 20
147.3798467679373
 10
409.27114444173424
 20
147.35588812130464
 10
417.7174339501564
 20
147.32118350687762
 10
426.15963301920584
 20
147.26888892625288
 10
434.6063772651713
 20
147.20701115883645
 10
443.0466489173645
 20
147.1475217679525
 10
451.455583222687
 20
147.0856623604837
 10
459.82080065542624
 20
147.00602507350533
 10
468.164133082573
 20
146.90238827124438
 10
476.48938746810563
 20
146.79418498927473
 10
484.77881243092406
 20
146.70968278505416
 10
493.0690099062431
 20
146.6579960622546
 10
501.3728457158997
 20
146.6163659929705
 10
509.6723753591823
 20
146.5552608906393
 10
517.9876325601247
 20
146.4652653067879
 10
526.3301725949677
 20
146.3613658090253
 10
534.6654801598679
 20
146.25691047361985
 10
542.9559222382464
 20
146.14201898603218
 10
551.2019156382883
 20
145.99404895761782
 10
559.4523842523488
 20
145.80452331457732
 10
567.7383589165308
 20
145.5911524352424
 10
576.0372183368349
 20
145.37620271597694
 10
584.3036598282529
 20
145.1600083843096
 10
592.5071494087476
 20
144.9187127758412
 10
600.6824192300749
 20
144.63265492032497
 10
608.8787231415508
 20
144.30624593490924
 10
617.1030271060904
 20
143.96222211721445
 10
625.3051178811362
 20
143.6170116318115
 10
633.4308675792956
 20
143.25989335531224
 10
641.4743645742783
 20
142.86225833579422
 10
649.4897939448952
 20
142.40518127664802
 10
657.5325362177321
 20
141.90045961691646
 10
665.5920345559141
 20
141.37894107232222
 10
673.5935371752388
 20
140.85257286532766
 10
681.4849709464343
 20
140.30235563332403
 10
689.2676415099884
 20
139.71279310349414
 10
696.9392831125883
 20
139.08945168243287
 10
704.4660932995688
 20
138.44149318113926
 10
711.7992285335157
 20
137.77331716765104
 10
718.8880723111585
 20
137.08197913103578
 10
725.6999240305776
 20
136.35789142658305
 10
732.213321802742
 20
135.61132856514402
 10
738.3764358864867
 20
134.876300705958
 10
744.1191431884388
 20
134.17916744287805
 10
749.3950548056586
 20
133.51894692490933
 10
754.2056497416722
 20
132.8955683973489
 10
757.1629209969608
 20
132.50629560178828
  0
LWPOLYLINE
  5
8D
330
17
100
AcDbEntity
  8
Layer
100
AcDbPolyline
 90
5
 70
0
 10
500.07456242817074
 20
214.84620119266418
 10
496.2132287087772
 20
215.8902806472434
 10
497.2573081633564
 20
219.75161436663694
 10
501.11864188274996
 20
218.70753491205772
 10
500.07456242817074
 20
214.84620119266418
  0
LWPOLYLINE
  5
8E
330
17
100
AcDbEntity
  8
Layer
100
AcDbPolyline
 90
5
 70
0
 10
218.1022904906423
 20
247.3371589046223
 10
214.10626689195152
 20
247.15884626147442
 10
213.92795424880364
 20
251.1548698601652
 10
217.92397784749443
 20
251.33318250331308
 10
218.1022904906423
 20
247.3371589046223
  0
LWPOLYLINE
  5
8F
330
17
100
AcDbEntity
  8
Layer
100
AcDbPolyline
 90
5
 70
0
 10
90.20755540369959
 20
228.2113913308326
 10
86.37076324045586
 20
227.08045106005284
 10
85.23982296967608
 20
230.91724322329657
 10
89.07661513291981
 20
232.04818349407634
 10
90.20755540369959
 20
228.2113913308326
  0
LWPOLYLINE
  5
90
330
17
100
AcDbEntity
  8
Layer
100
AcDbPolyline
 90
5
 70
0
 10
25.837173944171173
 20
196.76020542488178
 10
24.34871569683912
 20
195.4243566138447
 10
21.009093669246408
 20
199.14550223217483
 10
22.497551916578463
 20
200.4813510432119
 10
25.837173944171173
 20
196.76020542488178
  0
LWPOLYLINE
  5
91
330
17
100
AcDbEntity
  8
Layer
100
AcDbPolyline
 90
5
 70
0
 10
17.895704766335772
 20
174.4955748036116
 10
19.51971383007812
 20
173.32827254588966
 10
16.601458185773307
 20
169.2682498865338
 10
14.97744912203096
 20
170.43555214425572
 10
17.895704766335772
 20
174.4955748036116
  0
LWPOLYLINE
  5
92
330
17
100
AcDbEntity
  8
Layer
100
AcDbPolyline
 90
5
 70
0
 10
117.35594176064538
 20
156.73446142528954
 10
121.3508963755236
 20
156.53361913625886
 10
121.15005408649293
 20
152.53866452138064
 10
117.1550994716147
 20
152.7395068104113
 10
117.35594176064538
 20
156.73446142528954
  0
LINE
  5
93
330
17
100
AcDbEntity
  8
Layer
100
AcDbLine
 10
738.2513037412116
 20
139.69394565846076
 30
0.0
 11
737.9277750315317
 21
138.74772730416146
 31
0.0
  0
LINE
  5
94
330
17
100
AcDbEntity
  8
Layer
100
AcDbLine
 10
737.3450618098843
 20
136.00596065722036
 30
0.0
 11
737.2557319929081
 21
135.0099585569219
 31
0.0
  0
LINE
  5
95
330
17
100
AcDbEntity
  8
Layer
100
AcDbLine
 10
719.3268337992978
 20
146.16421713548533
 30
0.0
 11
719.0033126525818
 21
145.2179961953093
 31
0.0
  0
LINE
  5
96
330
17
100
AcDbEntity
  8
Layer
100
AcDbLine
 10
717.4769272848453
 20
138.22434021914347
 30
0.0
 11
717.3767773728258
 21
137.2293678601694
 31
0.0
  0
LINE
  5
97
330
17
100
AcDbEntity
  8
Layer
100
AcDbLine
 10
643.9466135819061
 20
172.96227148342777
 30
0.0
 11
643.6154560769129
 21
172.0186959926022
 31
0.0
  0
LINE
  5
98
330
17
100
AcDbEntity
  8
Layer
100
AcDbLine
 10
637.6610887717228
 20
144.0514582588284
 30
0.0
 11
637.5791599844076
 21
143.05482007282055
 31
0.0
  0
LWPOLYLINE
  5
99
330
17
100
AcDbEntity
  8
Layer
100
AcDbPolyline
 90
300
 70
1
 10
333.17385152087974
 20
200.0
 10
333.1654659838234
 20
200.84751620381593
 10
333.14031307547174
 20
201.6946581683348
 10
333.0984039026409
 20
202.54105181951311
 10
333.03975697124173
 20
203.38632341374148
 10
332.96439817810824
 20
204.2300997028792
 10
332.8723607995621
 20
205.0720080990703
 10
332.7636854767186
 20
205.91167683926773
 10
332.638420197541
 20
206.7487351493934
 10
332.4966202756503
 20
207.58281340806178
 10
332.3383483259001
 20
208.41354330979405
 10
332.16367423672784
 20
209.24055802765164
 10
331.97267513929415
 20
210.06349237521653
 10
331.76543537342354
 20
210.88198296784742
 10
331.54204645036253
 20
211.69566838314
 10
331.30260701237097
 20
212.5041893205211
 10
331.04722278916415
 20
213.30718875990559
 10
330.7760065512257
 20
214.10431211934633
 10
330.4890780600112
 20
214.89520741160774
 10
330.186564015065
 20
215.67952539959342
 10
329.8685979980733
 20
216.45691975055928
 10
329.535320413878
 20
217.2270471890445
 10
329.1868784284783
 20
217.9895676484522
 10
328.8234259040457
 20
218.74414442121335
 10
328.4451233309835
 20
219.4904443074673
 10
328.0521377570583
 20
220.22813776219346
 10
327.6446427136366
 20
220.95689904072918
 10
327.22281813905795
 20
221.67640634260928
 10
326.78685029917983
 20
222.3863419536642
 10
326.33693170512726
 20
223.0863923863137
 10
325.8732610282856
 20
223.77624851799382
 10
325.39604301257293
 20
224.45560572765714
 10
324.9054883840308
 20
225.12416403028453
 10
324.4018137577734
 20
225.7816282093502
 10
323.88524154233676
 20
226.4277079471811
 10
323.355999841469
 20
227.06211795315286
 10
322.81432235340657
 20
227.68457808966625
 10
322.2604482676793
 20
228.2948134958479
 10
321.6946221594913
 20
228.8925547089213
 10
321.11709388172324
 20
229.47753778319384
 10
320.5281184546045
 20
230.0495044066079
 10
319.9279559531034
 20
230.60820201480408
 10
319.3168713920853
 20
231.15338390264657
 10
318.69513460928965
 20
231.68480933316118
 10
318.06302014617705
 20
232.20224364383807
 10
317.4208071266998
 20
232.70545835025203
 10
316.76877913404815
 20
233.19423124695473
 10
316.10722408542836
 20
233.6683465055945
 10
315.4364341049264
 20
234.12759477022007
 10
314.75670539451403
 20
234.5717732497261
 10
314.06833810325475
 20
235.0006858074002
 10
313.371636194766
 20
235.4141430475313
 10
312.6669073129976
 20
235.8119623990414
 10
311.95446264638485
 20
236.19396819610395
 10
311.23461679043635
 20
236.55999175571293
 10
310.5076876088176
 20
236.90987145216835
 10
309.77399609299135
 20
237.24345278844578
 10
309.0338662204767
 20
237.56058846441783
 10
308.28762481178984
 20
237.8611384418977
 10
307.5356013861293
 20
238.14497000647617
 10
306.7781280158696
 20
238.41195782612454
 10
306.01553917992715
 20
238.66198400653764
 10
305.24817161606427
 20
238.89493814319272
 10
304.47636417219485
 20
239.11071737010099
 10
303.70045765675883
 20
239.30922640523022
 10
302.9207946882308
 20
239.4903775925788
 10
302.1377195438292
 20
239.65409094088199
 10
301.3515780074933
 20
239.80029415893392
 10
300.56271721719486
 20
239.92892268750927
 10
299.7714855116515
 20
240.03991972787088
 10
298.9782322765103
 20
240.13323626685042
 10
298.1833077900689
 20
240.2088310984912
 10
297.38706306860246
 20
240.2666708422437
 10
296.5898497113648
 20
240.30672995770533
 10
295.7920197453321
 20
240.3289907558984
 10
294.9939254697573
 20
240.33344340708106
 10
294.19591930060545
 20
240.32008594508795
 10
293.3983536149359
 20
240.28892426819823
 10
292.6015805953031
 20
240.23997213653118
 10
291.80595207424255
 20
240.1732511659701
 10
291.0118193789111
 20
240.0887908186173
 10
290.2195331759514
 20
239.98662838978453
 10
289.42944331664694
 20
239.86680899152438
 10
288.6418986824375
 20
239.72938553271
 10
287.85724703086333
 20
239.57441869567228
 10
287.075834842005
 20
239.4019769094039
 10
286.2980071654873
 20
239.21213631934324
 10
285.52410746811563
 20
239.00498075375066
 10
284.75447748221
 20
238.78060168669222
 10
283.98945705470635
 20
238.53909819764746
 10
283.2293839970892
 20
238.28057692775852
 10
282.47459393622387
 20
238.00515203274048
 10
281.72542016615307
 20
237.71294513247352
 10
280.9821935009235
 20
237.40408525729876
 10
280.24524212850787
 20
237.07870879104237
 10
279.5148914658862
 20
236.7369594107921
 10
278.79146401535087
 20
236.37898802345367
 10
278.0752792220988
 20
236.00495269911437
 10
277.3666533331732
 20
235.61501860124395
 10
276.665899257818
 20
235.2093579137629
 10
275.97332642930587
 20
234.788149765011
 10
275.28924066830115
 20
234.35158014864928
 10
274.6139440478181
 20
233.89984184153036
 10
273.9477347598339
 20
233.43313431857374
 10
273.2909069836156
 20
232.95166366468317
 10
272.64375075581876
 20
232.45564248374546
 10
272.0065518424154
 20
231.94528980475056
 10
271.3795916125076
 20
231.42083098507447
 10
270.7631469140835
 20
230.8824976109679
 10
270.1574899517682
 20
230.33052739529413
 10
269.56288816662624
 20
229.7651640725618
 10
268.9796041180673
 20
229.18665729129856
 10
268.4078953679071
 20
228.59526250381342
 10
267.8480143666354
 20
227.9912408533961
 10
267.30020834194113
 20
227.3748590590035
 10
266.76471918954337
 20
226.74638929748423
 10
266.24178336637726
 20
226.10610908339274
 10
265.731631786181
 20
225.454301146447
 10
265.23448971753106
 20
224.79125330668282
 10
264.7505766843699
 20
224.11725834736066
 10
264.28010636907015
 20
223.43261388568084
 10
263.8232865180788
 20
222.73762224136414
 10
263.38031885018216
 20
222.0325903031558
 10
262.95139896743217
 20
221.31782939331234
 10
262.5367162687745
 20
220.59365513013017
 10
262.13645386641514
 20
219.86038728857764
 10
261.7507885049631
 20
219.11834965909117
 10
261.37989048338505
 20
218.36786990459873
 10
261.02392357980614
 20
217.60927941583307
 10
260.6830449791901
 20
216.84291316499883
 10
260.3574052039308
 20
216.0691095578583
 10
260.0471480473859
 20
215.2882102843009
 10
259.7524105103817
 20
214.50056016746265
 10
259.47332274071726
 20
213.70650701146187
 10
259.210007975695
 20
212.90640144781875
 10
258.9625824877026
 20
212.10059678062632
 10
258.7311555328702
 20
211.28944883054123
 10
258.5158293028262
 20
210.47331577766357
 10
258.316698879572
 20
209.65255800337434
 10
258.13385219349686
 20
208.82753793120145
 10
257.9673699845499
 20
207.99861986678346
 10
257.81732576658806
 20
207.16616983700263
 10
257.68378579491394
 20
206.33055542835768
 10
257.5668090370198
 20
205.492145624648
 10
257.4664471465489
 20
204.65131064404068
 10
257.3827444404867
 20
203.8084217755927
 10
257.31573787959195
 20
202.96385121530005
 10
257.2654570520756
 20
202.11797190174656
 10
257.2319241605356
 20
201.2711573514246
 10
257.2151540121529
 20
200.4237814938008
 10
257.2151540121529
 20
199.57621850619924
 10
257.2319241605356
 20
198.7288426485754
 10
257.2654570520756
 20
197.88202809825344
 10
257.31573787959195
 20
197.03614878469995
 10
257.3827444404867
 20
196.1915782244073
 10
257.4664471465489
 20
195.34868935595932
 10
257.5668090370198
 20
194.507854375352
 10
257.68378579491394
 20
193.66944457164232
 10
257.81732576658806
 20
192.83383016299737
 10
257.9673699845499
 20
192.00138013321654
 10
258.13385219349686
 20
191.17246206879855
 10
258.316698879572
 20
190.34744199662563
 10
258.5158293028262
 20
189.52668422233643
 10
258.7311555328702
 20
188.71055116945877
 10
258.9625824877026
 20
187.8994032193737
 10
259.210007975695
 20
187.09359855218125
 10
259.47332274071726
 20
186.29349298853813
 10
259.7524105103817
 20
185.49943983253735
 10
260.0471480473859
 20
184.7117897156991
 10
260.3574052039308
 20
183.9308904421417
 10
260.6830449791901
 20
183.15708683500117
 10
261.02392357980614
 20
182.39072058416693
 10
261.37989048338505
 20
181.6321300954013
 10
261.7507885049631
 20
180.88165034090886
 10
262.13645386641514
 20
180.1396127114224
 10
262.5367162687745
 20
179.4063448698698
 10
262.95139896743217
 20
178.68217060668763
 10
263.38031885018216
 20
177.9674096968442
 10
263.8232865180788
 20
177.26237775863586
 10
264.28010636907015
 20
176.56738611431916
 10
264.7505766843699
 20
175.88274165263934
 10
265.23448971753106
 20
175.20874669331718
 10
265.731631786181
 20
174.545698853553
 10
266.24178336637726
 20
173.89389091660726
 10
266.76471918954337
 20
173.25361070251577
 10
267.30020834194113
 20
172.6251409409965
 10
267.8480143666354
 20
172.0087591466039
 10
268.4078953679071
 20
171.40473749618658
 10
268.9796041180673
 20
170.81334270870144
 10
269.56288816662624
 20
170.2348359274382
 10
270.1574899517682
 20
169.66947260470587
 10
270.7631469140835
 20
169.1175023890321
 10
271.3795916125076
 20
168.57916901492553
 10
272.0065518424153
 20
168.05471019524947
 10
272.64375075581876
 20
167.54435751625456
 10
273.2909069836156
 20
167.04833633531683
 10
273.9477347598339
 20
166.5668656814263
 10
274.6139440478181
 20
166.10015815846964
 10
275.28924066830115
 20
165.64841985135072
 10
275.97332642930587
 20
165.211850234989
 10
276.665899257818
 20
164.7906420862371
 10
277.36665333317325
 20
164.38498139875605
 10
278.0752792220988
 20
163.99504730088563
 10
278.7914640153509
 20
163.62101197654633
 10
279.5148914658862
 20
163.2630405892079
 10
280.2452421285078
 20
162.92129120895765
 10
280.9821935009235
 20
162.59591474270124
 10
281.72542016615307
 20
162.2870548675265
 10
282.47459393622387
 20
161.99484796725952
 10
283.2293839970892
 20
161.71942307224148
 10
283.98945705470635
 20
161.46090180235254
 10
284.75447748221
 20
161.21939831330778
 10
285.52410746811563
 20
160.99501924624934
 10
286.2980071654873
 20
160.78786368065676
 10
287.075834842005
 20
160.5980230905961
 10
287.85724703086333
 20
160.42558130432772
 10
288.6418986824375
 20
160.27061446729
 10
289.42944331664694
 20
160.13319100847562
 10
290.2195331759514
 20
160.01337161021547
 10
291.0118193789111
 20
159.9112091813827
 10
291.8059520742425
 20
159.8267488340299
 10
292.6015805953031
 20
159.76002786346882
 10
293.3983536149359
 20
159.71107573180177
 10
294.1959193006054
 20
159.67991405491205
 10
294.9939254697573
 20
159.66655659291894
 10
295.7920197453321
 20
159.6710092441016
 10
296.5898497113648
 20
159.69327004229467
 10
297.38706306860246
 20
159.7333291577563
 10
298.1833077900689
 20
159.7911689015088
 10
298.9782322765103
 20
159.86676373314958
 10
299.7714855116515
 20
159.96008027212912
 10
300.56271721719486
 20
160.07107731249073
 10
301.3515780074933
 20
160.19970584106608
 10
302.1377195438292
 20
160.34590905911801
 10
302.9207946882307
 20
160.5096224074212
 10
303.70045765675883
 20
160.69077359476978
 10
304.47636417219485
 20
160.88928262989901
 10
305.24817161606427
 20
161.10506185680725
 10
306.01553917992715
 20
161.33801599346236
 10
306.7781280158696
 20
161.58804217387544
 10
307.5356013861293
 20
161.8550299935238
 10
308.28762481178984
 20
162.1388615581023
 10
309.0338662204767
 20
162.43941153558217
 10
309.77399609299135
 20
162.75654721155422
 10
310.5076876088176
 20
163.09012854783165
 10
311.23461679043635
 20
163.44000824428707
 10
311.95446264638485
 20
163.80603180389605
 10
312.6669073129976
 20
164.1880376009586
 10
313.371636194766
 20
164.58585695246873
 10
314.06833810325475
 20
164.99931419259977
 10
314.75670539451403
 20
165.4282267502739
 10
315.4364341049263
 20
165.87240522977993
 10
316.10722408542836
 20
166.3316534944055
 10
316.76877913404815
 20
166.80576875304527
 10
317.4208071266998
 20
167.29454164974797
 10
318.06302014617705
 20
167.7977563561619
 10
318.69513460928965
 20
168.31519066683882
 10
319.3168713920853
 20
168.84661609735343
 10
319.9279559531034
 20
169.39179798519592
 10
320.5281184546045
 20
169.9504955933921
 10
321.11709388172324
 20
170.52246221680616
 10
321.6946221594913
 20
171.1074452910787
 10
322.2604482676793
 20
171.70518650415212
 10
322.81432235340657
 20
172.31542191033378
 10
323.355999841469
 20
172.9378820468471
 10
323.8852415423367
 20
173.57229205281888
 10
324.4018137577734
 20
174.21837179064977
 10
324.9054883840308
 20
174.87583596971547
 10
325.39604301257293
 20
175.54439427234286
 10
325.8732610282856
 20
176.22375148200615
 10
326.33693170512726
 20
176.9136076136863
 10
326.78685029917983
 20
177.6136580463358
 10
327.22281813905795
 20
178.32359365739072
 10
327.6446427136366
 20
179.04310095927082
 10
328.0521377570583
 20
179.77186223780654
 10
328.4451233309835
 20
180.5095556925327
 10
328.82342590404573
 20
181.25585557878665
 10
329.1868784284783
 20
182.01043235154782
 10
329.535320413878
 20
182.77295281095553
 10
329.8685979980733
 20
183.5430802494407
 10
330.186564015065
 20
184.32047460040656
 10
330.4890780600112
 20
185.10479258839223
 10
330.7760065512257
 20
185.89568788065367
 10
331.04722278916415
 20
186.69281124009441
 10
331.30260701237097
 20
187.49581067947886
 10
331.54204645036253
 20
188.30433161686
 10
331.76543537342354
 20
189.11801703215258
 10
331.97267513929415
 20
189.93650762478347
 10
332.16367423672784
 20
190.75944197234836
 10
332.3383483259001
 20
191.58645669020595
 10
332.4966202756503
 20
192.41718659193822
 10
332.638420197541
 20
193.2512648506066
 10
332.7636854767186
 20
194.08832316073227
 10
332.8723607995621
 20
194.9279919009297
 10
332.96439817810824
 20
195.76990029712078
 10
333.03975697124173
 20
196.61367658625852
 10
333.0984039026409
 20
197.45894818048686
 10
333.14031307547174
 20
198.30534183166517
 10
333.1654659838234
 20
199.15248379618407
 10
333.17385152087974
 20
200.0
  0
LINE
  5
9A
330
17
100
AcDbEntity
  8
Layer
 62
7
100
AcDbLine
 10
21.960968512883085
 20
200.00000000000003
 30
0.0
 11
563.244031003292
 21
199.99999999999997
 31
0.0
  0
LINE
  5
9B
330
17
100
AcDbEntity
  8
Layer
 62
7
100
AcDbLine
 10
128.11758101096484
 20
200.00000000000003
 30
0.0
 11
140.11758101096484
 21
200.00000000000003
 31
0.0
  0
LWPOLYLINE
  5
9C
330
17
100
AcDbEntity
  8
Layer
100
AcDbPolyline
 90
5
 70
0
 10
134.11758101096484
 20
205.00000000000003
 10
139.11758101096484
 20
200.00000000000003
 10
134.11758101096484
 20
195.00000000000003
 10
129.11758101096484
 20
200.00000000000003
 10
134.11758101096484
 20
205.00000000000003
  0
LINE
  5
9D
330
17
100
AcDbEntity
  8
Layer
 62
7
100
AcDbLine
 10
286.6024997580875
 20
200.0
 30
0.0
 11
298.6024997580875
 21
200.0
 31
0.0
  0
LWPOLYLINE
  5
9E
330
17
100
AcDbEntity
  8
Layer
100
AcDbPolyline
 90
5
 70
0
 10
292.6024997580875
 20
205.0
 10
297.6024997580875
 20
200.0
 10
292.6024997580875
 20
195.0
 10
287.6024997580875
 20
200.0
 10
292.6024997580875
 20
205.0
  0
LINE
  5
9F
330
17
100
AcDbEntity
  8
Layer
 62
7
100
AcDbLine
 10
445.08741850521017
 20
199.99999999999997
 30
0.0
 11
457.08741850521017
 21
199.99999999999997
 31
0.0
  0
LWPOLYLINE
  5
A0
330
17
100
AcDbEntity
  8
Layer
100
AcDbPolyline
 90
5
 70
0
 10
451.08741850521017
 20
204.99999999999997
 10
456.08741850521017
 20
199.99999999999997
 10
451.08741850521017
 20
194.99999999999997
 10
446.08741850521017
 20
199.99999999999997
 10
451.08741850521017
 20
204.99999999999997
  0
LINE
  5
A1
330
17
100
AcDbEntity
  8
Layer
 62
7
100
AcDbLine
 10
9.716051991550387
 20
181.29741895298437
 30
0.0
 11
756.3661215074007
 21
133.2754389160752
 31
0.0
  0
LINE
  5
A2
330
17
100
AcDbEntity
  8
Layer
 62
7
100
AcDbLine
 10
156.9503959193699
 20
171.82780927433816
 30
0.0
 11
168.92565292137328
 21
171.0576016815632
 31
0.0
  0
LWPOLYLINE
  5
A3
330
17
100
AcDbEntity
  8
Layer
100
AcDbPolyline
 90
5
 70
0
 10
163.2589442506945
 20
176.4323958954521
 10
167.92771483787303
 20
171.12178564762775
 10
162.61710459004868
 20
166.45301506044922
 10
157.94833400287015
 20
171.76362530827356
 10
163.2589442506945
 20
176.4323958954521
  0
LINE
  5
A4
330
17
100
AcDbEntity
  8
Layer
 62
7
100
AcDbLine
 10
340.3696145269565
 20
160.03091215482073
 30
0.0
 11
352.34487152895997
 21
159.26070456204576
 31
0.0
  0
LWPOLYLINE
  5
A5
330
17
100
AcDbEntity
  8
Layer
100
AcDbPolyline
 90
5
 70
0
 10
346.67816285828115
 20
164.6354987759347
 10
351.3469334454597
 20
159.32488852811036
 10
346.03632319763534
 20
154.65611794093184
 10
341.3675526104568
 20
159.96672818875618
 10
346.67816285828115
 20
164.6354987759347
  0
LINE
  5
A6
330
17
100
AcDbEntity
  8
Layer
100
AcDbLine
 10
295.1934545454544
 20
240.33399999999997
 30
0.0
 11
295.1934545454544
 21
241.33399999999997
 31
0.0
  0
LINE
  5
A7
330
17
100
AcDbEntity
  8
Layer
100
AcDbLine
 10
295.1934545454544
 20
159.66600000000003
 30
0.0
 11
295.1934545454544
 21
158.66600000000003
 31
0.0
  0
LINE
  5
A8
330
17
100
AcDbEntity
  8
Layer
100
AcDbLine
 10
333.17385152087974
 20
200.0
 30
0.0
 11
334.17385152087974
 21
200.0
 31
0.0
  0
LINE
  5
A9
330
17
100
AcDbEntity
  8
Layer
100
AcDbLine
 10
257.2130575700291
 20
200.0
 30
0.0
 11
256.2130575700291
 21
200.0
 31
0.0
  0
LINE
  5
AA
330
17
100
AcDbEntity
  8
Layer
 62
7
100
AcDbLine
 10
145.19345454545441
 20
151.55085837067293
 30
0.0
 11
145.19345454545441
 21
244.33865467061037
 31
0.0
  0
LINE
  5
AB
330
17
100
AcDbEntity
  8
Layer
 62
7
100
AcDbLine
 10
145.19345454545441
 20
179.97658707565103
 30
0.0
 11
145.19345454545441
 21
191.97658707565103
 31
0.0
  0
LWPOLYLINE
  5
AC
330
17
100
AcDbEntity
  8
Layer
100
AcDbPolyline
 90
5
 70
0
 10
140.19345454545441
 20
185.97658707565103
 10
145.19345454545441
 20
190.97658707565103
 10
150.19345454545441
 20
185.97658707565103
 10
145.19345454545441
 20
180.97658707565103
 10
140.19345454545441
 20
185.97658707565103
  0
LINE
  5
AD
330
17
100
AcDbEntity
  8
Layer
 62
7
100
AcDbLine
 10
145.19345454545441
 20
203.91292596563227
 30
0.0
 11
145.19345454545441
 21
215.91292596563227
 31
0.0
  0
LWPOLYLINE
  5
AE
330
17
100
AcDbEntity
  8
Layer
100
AcDbPolyline
 90
5
 70
0
 10
140.19345454545441
 20
209.91292596563227
 10
145.19345454545441
 20
214.91292596563227
 10
150.19345454545441
 20
209.91292596563227
 10
145.19345454545441
 20
204.91292596563227
 10
140.19345454545441
 20
209.91292596563227
  0
LINE
  5
AF
330
17
100
AcDbEntity
  8
Layer
 62
7
100
AcDbLine
 10
595.1934545454544
 20
144.82471726211958
 30
0.0
 11
595.1934545454544
 21
190.24650509136924
 31
0.0
  0
LINE
  5
B0
330
17
100
AcDbEntity
  8
Layer
 62
7
100
AcDbLine
 10
595.1934545454544
 20
156.67234300235697
 30
0.0
 11
595.1934545454544
 21
168.67234300235697
 31
0.0
  0
LWPOLYLINE
  5
B1
330
17
100
AcDbEntity
  8
Layer
100
AcDbPolyline
 90
5
 70
0
 10
590.1934545454544
 20
162.67234300235697
 10
595.1934545454544
 20
167.67234300235697
 10
600.1934545454544
 20
162.67234300235697
 10
595.1934545454544
 20
157.67234300235697
 10
590.1934545454544
 20
162.67234300235697
  0
LINE
  5
B2
330
17
100
AcDbEntity
  8
Layer
 62
7
100
AcDbLine
 10
595.1934545454544
 20
166.39887935113185
 30
0.0
 11
595.1934545454544
 21
178.39887935113185
 31
0.0
  0
LWPOLYLINE
  5
B3
330
17
100
AcDbEntity
  8
Layer
100
AcDbPolyline
 90
5
 70
0
 10
590.1934545454544
 20
172.39887935113185
 10
595.1934545454544
 20
177.39887935113185
 10
600.1934545454544
 20
172.39887935113185
 10
595.1934545454544
 20
167.39887935113185
 10
590.1934545454544
 20
172.39887935113185
  0
LWPOLYLINE
  5
B4
330
17
100
AcDbEntity
  8
NumLabel
 62
1
100
AcDbPolyline
 90
5
 70
0
 10
220.14254545454537
 20
172.47454545454548
 10
220.14254545454537
 20
167.47454545454548
 10
225.14254545454537
 20
167.47454545454548
 10
225.14254545454537
 20
172.47454545454548
 10
225.14254545454537
 20
162.47454545454548
  0
LWPOLYLINE
  5
B5
330
17
100
AcDbEntity
  8
NumLabel
 62
1
100
AcDbPolyline
 90
2
 70
0
 10
232.64254545454537
 20
167.47454545454548
 10
230.64254545454537
 20
167.47454545454548
  0
LWPOLYLINE
  5
B6
330
17
100
AcDbEntity
  8
NumLabel
 62
1
100
AcDbPolyline
 90
4
 70
0
 10
229.64254545454537
 20
167.47454545454548
 10
227.64254545454537
 20
167.47454545454548
 10
227.64254545454537
 20
172.47454545454548
 10
229.64254545454537
 20
172.47454545454548
  0
LWPOLYLINE
  5
B7
330
17
100
AcDbEntity
  8
NumLabel
 62
1
100
AcDbPolyline
 90
4
 70
0
 10
230.64254545454537
 20
172.47454545454548
 10
232.64254545454537
 20
172.47454545454548
 10
232.64254545454537
 20
162.47454545454548
 10
230.64254545454537
 20
162.47454545454548
  0
LWPOLYLINE
  5
B8
330
17
100
AcDbEntity
  8
NumLabel
 62
1
100
AcDbPolyline
 90
2
 70
0
 10
229.64254545454537
 20
162.47454545454548
 10
227.64254545454537
 20
162.47454545454548
  0
ENDSEC
  0
SECTION
  2
OBJECTS
  0
DICTIONARY
  5
A
330
0
100
AcDbDictionary
280
0
281
1
  3
ACAD_COLOR
350
B
  3
ACAD_GROUP
350
C
  3
ACAD_LAYOUT
350
D
  3
ACAD_MATERIAL
350
E
  3
ACAD_MLEADERSTYLE
350
F
  3
ACAD_MLINESTYLE
350
10
  3
ACAD_PLOTSETTINGS
350
11
  3
ACAD_PLOTSTYLENAME
350
12
  3
ACAD_SCALELIST
350
14
  3
ACAD_TABLESTYLE
350
15
  3
ACAD_VISUALSTYLE
350
16
  3
EZDXF_META
350
2D
  0
DICTIONARY
  5
B
330
A
100
AcDbDictionary
280
0
281
1
  0
DICTIONARY
  5
C
330
A
100
AcDbDictionary
280
0
281
1
  0
DICTIONARY
  5
D
330
A
100
AcDbDictionary
280
0
281
1
  3
Model
350
1A
  3
Layout1
350
1E
  0
DICTIONARY
  5
E
330
A
100
AcDbDictionary
280
0
281
1
  3
ByBlock
350
1F
  3
ByLayer
350
20
  3
Global
350
21
  0
DICTIONARY
  5
F
330
A
100
AcDbDictionary
280
0
281
1
  3
Standard
350
2C
  0
DICTIONARY
  5
10
330
A
100
AcDbDictionary
280
0
281
1
  3
Standard
350
22
  0
DICTIONARY
  5
11
330
A
100
AcDbDictionary
280
0
281
1
  0
ACDBDICTIONARYWDFLT
  5
12
330
A
100
AcDbDictionary
280
0
281
1
  3
Normal
350
13
100
AcDbDictionaryWithDefault
340
13
  0
ACDBPLACEHOLDER
  5
13
330
12
  0
DICTIONARY
  5
14
330
A
100
AcDbDictionary
280
0
281
1
  0
DICTIONARY
  5
15
330
A
100
AcDbDictionary
280
0
281
1
  0
DICTIONARY
  5
16
330
A
100
AcDbDictionary
280
0
281
1
  3
2dWireframe
350
5A
  3
Basic
350
5B
  3
Brighten
350
5C
  3
ColorChange
350
5D
  3
Conceptual
350
5E
  3
Dim
350
5F
  3
EdgeColorOff
350
60
  3
Facepattern
350
61
  3
Flat
350
62
  3
FlatWithEdges
350
63
  3
Gouraud
350
64
  3
GouraudWithEdges
350
65
  3
Hidden
350
66
  3
JitterOff
350
67
  3
Linepattern
350
68
  3
Modeling
350
69
  3
OverhangOff
350
6A
  3
Realistic
350
6B
  3
Shaded
350
6C
  3
Shaded with edges
350
6D
  3
Shades of Gray
350
6E
  3
Sketchy
350
6F
  3
Thicken
350
70
  3
Wireframe
350
71
  3
X-Ray
350
72
  0
LAYOUT
  5
1A
330
D
100
AcDbPlotSettings
  1

  2
Adobe PDF
  4
A3
  6

 40
7.5
 41
20.0
 42
7.5
 43
20.0
 44
420.0
 45
297.0
 46
0.0
 47
0.0
 48
0.0
 49
0.0
140
0.0
141
0.0
142
1.0
143
1.0
 70
1024
 72
1
 73
0
 74
5
  7

 75
16
 76
0
 77
2
 78
300
147
1.0
148
0.0
149
0.0
100
AcDbLayout
  1
Model
 70
1
 71
0
 10
0.0
 20
0.0
 11
420.0
 21
297.0
 12
0.0
 22
0.0
 32
0.0
 14
1e+20
 24
1e+20
 34
1e+20
 15
-1e+20
 25
-1e+20
 35
-1e+20
146
0.0
 13
0.0
 23
0.0
 33
0.0
 16
1.0
 26
0.0
 36
0.0
 17
0.0
 27
1.0
 37
0.0
 76
1
330
17
  0
LAYOUT
  5
1E
330
D
100
AcDbPlotSettings
  1

  2
Adobe PDF
  4
A3
  6

 40
7.5
 41
20.0
 42
7.5
 43
20.0
 44
420.0
 45
297.0
 46
0.0
 47
0.0
 48
0.0
 49
0.0
140
0.0
141
0.0
142
1.0
143
1.0
 70
0
 72
1
 73
0
 74
5
  7

 75
16
 76
0
 77
2
 78
300
147
1.0
148
0.0
149
0.0
100
AcDbLayout
  1
Layout1
 70
1
 71
1
 10
0.0
 20
0.0
 11
420.0
 21
297.0
 12
0.0
 22
0.0
 32
0.0
 14
1e+20
 24
1e+20
 34
1e+20
 15
-1e+20
 25
-1e+20
 35
-1e+20
146
0.0
 13
0.0
 23
0.0
 33
0.0
 16
1.0
 26
0.0
 36
0.0
 17
0.0
 27
1.0
 37
0.0
 76
1
330
1B
  0
MATERIAL
  5
1F
102
{ACAD_REACTORS
330
E
102
}
330
E
100
AcDbMaterial
  1
ByBlock
  2

 70
0
 40
1.0
 71
1
 41
1.0
 91
-1023410177
 42
1.0
 72
1
  3

 73
1
 74
1
 75
1
 44
0.5
 73
0
 45
1.0
 46
1.0
 77
1
  4

 78
1
 79
1
170
1
 48
1.0
171
1
  6

172
1
173
1
174
1
140
1.0
141
1.0
175
1
  7

176
1
177
1
178
1
143
1.0
179
1
  8

270
1
271
1
272
1
145
1.0
146
1.0
273
1
  9

274
1
275
1
276
1
 42
1.0
 72
1
  3

 73
1
 74
1
 75
1
 94
63
  0
MATERIAL
  5
20
102
{ACAD_REACTORS
330
E
102
}
330
E
100
AcDbMaterial
  1
ByLayer
  2

 70
0
 40
1.0
 71
1
 41
1.0
 91
-1023410177
 42
1.0
 72
1
  3

 73
1
 74
1
 75
1
 44
0.5
 73
0
 45
1.0
 46
1.0
 77
1
  4

 78
1
 79
1
170
1
 48
1.0
171
1
  6

172
1
173
1
174
1
140
1.0
141
1.0
175
1
  7

176
1
177
1
178
1
143
1.0
179
1
  8

270
1
271
1
272
1
145
1.0
146
1.0
273
1
  9

274
1
275
1
276
1
 42
1.0
 72
1
  3

 73
1
 74
1
 75
1
 94
63
  0
MATERIAL
  5
21
102
{ACAD_REACTORS
330
E
102
}
330
E
100
AcDbMaterial
  1
Global
  2

 70
0
 40
1.0
 71
1
 41
1.0
 91
-1023410177
 42
1.0
 72
1
  3

 73
1
 74
1
 75
1
 44
0.5
 73
0
 45
1.0
 46
1.0
 77
1
  4

 78
1
 79
1
170
1
 48
1.0
171
1
  6

172
1
173
1
174
1
140
1.0
141
1.0
175
1
  7

176
1
177
1
178
1
143
1.0
179
1
  8

270
1
271
1
272
1
145
1.0
146
1.0
273
1
  9

274
1
275
1
276
1
 42
1.0
 72
1
  3

 73
1
 74
1
 75
1
 94
63
  0
MLINESTYLE
  5
22
102
{ACAD_REACTORS
330
10
102
}
330
10
100
AcDbMlineStyle
  2
Standard
 70
0
  3

 62
256
 51
90.0
 52
90.0
 71
2
 49
0.5
 62
256
  6
BYLAYER
 49
-0.5
 62
256
  6
BYLAYER
  0
MLEADERSTYLE
  5
2C
102
{ACAD_REACTORS
330
F
102
}
330
F
100
AcDbMLeaderStyle
179
2
170
2
171
1
172
0
 90
2
 40
0.0
 41
0.0
173
1
 91
-1056964608
 92
-2
290
1
 42
2.0
291
1
 43
8.0
  3
Standard
 44
4.0
300

342
29
174
1
175
1
176
0
178
1
 93
-1056964608
 45
4.0
292
0
297
0
 46
4.0
 94
-1056964608
 47
1.0
 49
1.0
140
1.0
294
1
141
0.0
177
0
142
1.0
295
0
296
0
143
3.75
271
0
272
9
273
9
  0
DICTIONARY
  5
2D
330
A
100
AcDbDictionary
281
1
  3
CREATED_BY_EZDXF
350
2E
  3
WRITTEN_BY_EZDXF
350
BB
  0
DICTIONARYVAR
  5
2E
330
2D
100
DictionaryVariables
280
0
  1
1.3.0 @ 2026-01-06T17:07:18.412224+00:00
  0
VISUALSTYLE
  5
5A
102
{ACAD_REACTORS
330
16
102
}
330
16
100
AcDbVisualStyle
  2
2dWireframe
 70
4
 90
0
 40
0.6
 62
7
290
0
291
0
  0
VISUALSTYLE
  5
5B
102
{ACAD_REACTORS
330
16
102
}
330
16
100
AcDbVisualStyle
  2
Basic
 70
7
 90
1
 40
0.6
 62
7
290
0
291
1
  0
VISUALSTYLE
  5
5C
102
{ACAD_REACTORS
330
16
102
}
330
16
100
AcDbVisualStyle
  2
Brighten
 70
12
 90
2
 40
0.6
 62
7
290
0
291
1
  0
VISUALSTYLE
  5
5D
102
{ACAD_REACTORS
330
16
102
}
330
16
100
AcDbVisualStyle
  2
ColorChange
 70
16
 90
2
 40
0.6
 62
8
290
0
291
1
  0
VISUALSTYLE
  5
5E
102
{ACAD_REACTORS
330
16
102
}
330
16
100
AcDbVisualStyle
  2
Conceptual
 70
9
 90
3
 40
0.6
 62
7
290
0
291
0
  0
VISUALSTYLE
  5
5F
102
{ACAD_REACTORS
330
16
102
}
330
16
100
AcDbVisualStyle
  2
Dim
 70
11
 90
2
 40
0.6
 62
7
290
0
291
1
  0
VISUALSTYLE
  5
60
102
{ACAD_REACTORS
330
16
102
}
330
16
100
AcDbVisualStyle
  2
EdgeColorOff
 70
22
 90
2
 40
0.6
 62
7
290
0
291
1
  0
VISUALSTYLE
  5
61
102
{ACAD_REACTORS
330
16
102
}
330
16
100
AcDbVisualStyle
  2
Facepattern
 70
15
 90
2
 40
0.6
 62
7
290
0
291
1
  0
VISUALSTYLE
  5
62
102
{ACAD_REACTORS
330
16
102
}
330
16
100
AcDbVisualStyle
  2
Flat
 70
0
 90
2
 40
0.6
 62
7
290
0
291
1
  0
VISUALSTYLE
  5
63
102
{ACAD_REACTORS
330
16
102
}
330
16
100
AcDbVisualStyle
  2
FlatWithEdges
 70
1
 90
2
 40
0.6
 62
7
290
0
291
1
  0
VISUALSTYLE
  5
64
102
{ACAD_REACTORS
330
16
102
}
330
16
100
AcDbVisualStyle
  2
Gouraud
 70
2
 90
2
 40
0.6
 62
7
290
0
291
1
  0
VISUALSTYLE
  5
65
102
{ACAD_REACTORS
330
16
102
}
330
16
100
AcDbVisualStyle
  2
GouraudWithEdges
 70
3
 90
2
 40
0.6
 62
7
290
0
291
1
  0
VISUALSTYLE
  5
66
102
{ACAD_REACTORS
330
16
102
}
330
16
100
AcDbVisualStyle
  2
Hidden
 70
6
 90
1
 40
0.6
 62
7
290
0
291
0
  0
VISUALSTYLE
  5
67
102
{ACAD_REACTORS
330
16
102
}
330
16
100
AcDbVisualStyle
  2
JitterOff
 70
20
 90
2
 40
0.6
 62
7
290
0
291
1
  0
VISUALSTYLE
  5
68
102
{ACAD_REACTORS
330
16
102
}
330
16
100
AcDbVisualStyle
  2
Linepattern
 70
14
 90
2
 40
0.6
 62
7
290
0
291
1
  0
VISUALSTYLE
  5
69
102
{ACAD_REACTORS
330
16
102
}
330
16
100
AcDbVisualStyle
  2
Modeling
 70
10
 90
2
 40
0.6
 62
7
290
0
291
0
  0
VISUALSTYLE
  5
6A
102
{ACAD_REACTORS
330
16
102
}
330
16
100
AcDbVisualStyle
  2
OverhangOff
 70
21
 90
2
 40
0.6
 62
7
290
0
291
1
  0
VISUALSTYLE
  5
6B
102
{ACAD_REACTORS
330
16
102
}
330
16
100
AcDbVisualStyle
  2
Realistic
 70
8
 90
2
 40
0.6
 62
7
290
0
291
0
  0
VISUALSTYLE
  5
6C
102
{ACAD_REACTORS
330
16
102
}
330
16
100
AcDbVisualStyle
  2
Shaded
 70
27
 90
2
 40
0.6
 62
7
290
0
291
0
  0
VISUALSTYLE
  5
6D
102
{ACAD_REACTORS
330
16
102
}
330
16
100
AcDbVisualStyle
  2
Shaded with edges
 70
26
 90
2
 40
0.6
 62
7
290
0
291
0
  0
VISUALSTYLE
  5
6E
102
{ACAD_REACTORS
330
16
102
}
330
16
100
AcDbVisualStyle
  2
Shades of Gray
 70
23
 90
2
 40
0.6
 62
7
290
0
291
0
  0
VISUALSTYLE
  5
6F
102
{ACAD_REACTORS
330
16
102
}
330
16
100
AcDbVisualStyle
  2
Sketchy
 70
24
 90
1
 40
0.6
 62
7
290
0
291
0
  0
VISUALSTYLE
  5
70
102
{ACAD_REACTORS
330
16
102
}
330
16
100
AcDbVisualStyle
  2
Thicken
 70
13
 90
2
 40
0.6
 62
7
290
0
291
1
  0
VISUALSTYLE
  5
71
102
{ACAD_REACTORS
330
16
102
}
330
16
100
AcDbVisualStyle
  2
Wireframe
 70
5
 90
0
 40
0.6
 62
7
290
0
291
0
  0
VISUALSTYLE
  5
72
102
{ACAD_REACTORS
330
16
102
}
330
16
100
AcDbVisualStyle
  2
X-Ray
 70
25
 90
2
 40
0.5
 62
7
290
0
291
0
  0
DICTIONARYVAR
  5
BB
330
2D
100
DictionaryVariables
280
0
  1
1.3.0 @ 2026-01-06T17:07:18.557328+00:00
  0
ENDSEC
  0
EOF
