<?xml version="1.0" encoding="utf-8" standalone="no"?>
<!DOCTYPE svg PUBLIC "-//W3C//DTD SVG 1.1//EN"
  "http://www.w3.org/Graphics/SVG/1.1/DTD/svg11.dtd">
<svg xmlns:xlink="http://www.w3.org/1999/xlink" width="1152pt" height="328.06146pt" viewBox="0 0 1152 328.06146" xmlns="http://www.w3.org/2000/svg" version="1.1">
 <metadata>
  <rdf:RDF xmlns:dc="http://purl.org/dc/elements/1.1/" xmlns:cc="http://creativecommons.org/ns#" xmlns:rdf="http://www.w3.org/1999/02/22-rdf-syntax-ns#">
   <cc:Work>
    <dc:type rdf:resource="http://purl.org/dc/dcmitype/StillImage"/>
    <dc:date>2026-01-07T02:07:09.167169</dc:date>
    <dc:format>image/svg+xml</dc:format>
    <dc:creator>
     <cc:Agent>
      <dc:title>Matplotlib v3.10.1, https://matplotlib.org/</dc:title>
     </cc:Agent>
    </dc:creator>
   </cc:Work>
  </rdf:RDF>
 </metadata>
 <defs>
  <style type="text/css">*{stroke-linejoin: round; stroke-linecap: butt}</style>
 </defs>
 <g id="figure_1">
  <g id="patch_1">
   <path d="M 0 328.06146 
L 1152 328.06146 
L 1152 0 
L 0 0 
z
" style="fill: #ffffff"/>
  </g>
  <g id="axes_1">
   <g id="patch_2">
    <path d="M 0 328.06146 
L 1152 328.06146 
L 1152 0 
L 0 0 
z
" style="fill: #212830"/>
   </g>
   <g id="patch_3">
    <path d="M 1099.636364 41.960463 
L 1099.46587 41.934062 
L 1077.350252 38.724578 
L 1055.20735 35.730576 
L 1033.034141 32.940903 
L 1010.846719 30.341589 
L 988.668265 27.93278 
L 966.512365 25.724933 
L 944.382864 23.727234 
L 922.280059 21.941739 
L 900.204055 20.364733 
L 878.160395 18.986304 
L 856.16908 17.797016 
L 834.257192 16.799447 
L 812.437208 16.009795 
L 790.702575 15.438633 
L 769.046571 15.078399 
L 747.478853 14.911885 
L 726.021759 14.926562 
L 704.704455 15.119656 
L 683.557578 15.502175 
L 662.593613 16.097578 
L 641.797461 16.923235 
L 621.147706 17.9668 
L 600.654664 19.192941 
L 580.365494 20.576842 
L 560.332557 22.128885 
L 540.581653 23.881852 
L 521.10361 25.862464 
L 501.872529 28.068473 
L 482.880364 30.463278 
L 464.167045 32.997604 
L 445.808408 35.651373 
L 427.866082 38.452692 
L 410.342164 41.449588 
L 393.189042 44.653588 
L 376.376948 48.012003 
L 359.948353 51.448758 
L 343.989277 54.935407 
L 328.548005 58.50654 
L 313.604013 62.203789 
L 299.109449 66.027947 
L 285.037508 69.945036 
L 271.389798 73.918572 
L 258.184482 77.926611 
L 245.439777 81.964577 
L 233.163761 86.043301 
L 221.344856 90.182704 
L 209.955711 94.395385 
L 198.968004 98.677185 
L 188.36727 103.009167 
L 178.157697 107.372105 
L 168.3499 111.759932 
L 158.945168 116.179294 
L 149.933422 120.634276 
L 141.307686 125.113557 
L 133.074431 129.60139 
L 125.240975 134.094866 
L 117.801799 138.601414 
L 110.746342 143.12081 
L 104.075712 147.643603 
L 97.801698 152.160591 
L 91.934512 156.670869 
L 86.479832 161.17256 
L 81.439487 165.663951 
L 76.800451 170.153711 
L 72.534879 174.643533 
L 68.629436 179.097651 
L 65.116302 183.450841 
L 62.049026 187.674361 
L 59.447305 191.809301 
L 57.283457 195.914936 
L 55.519784 199.994405 
L 54.141201 203.9957 
L 53.151848 207.90155 
L 52.556242 211.765815 
L 52.363636 215.422294 
L 52.567742 218.989342 
L 53.192769 222.405379 
L 54.284717 225.719333 
L 55.886804 228.994526 
L 57.999399 232.250561 
L 60.589132 235.459321 
L 63.647224 238.585567 
L 67.208227 241.617866 
L 71.307763 244.564033 
L 75.944067 247.429639 
L 81.10033 250.207323 
L 86.780302 252.888486 
L 93.00385 255.478452 
L 99.775658 257.993516 
L 107.082685 260.445638 
L 114.910568 262.836608 
L 123.253268 265.163316 
L 132.108533 267.423511 
L 141.478531 269.615456 
L 151.371903 271.740722 
L 161.793845 273.806255 
L 172.741947 275.814808 
L 184.219056 277.759508 
L 196.245886 279.632972 
L 208.846525 281.44041 
L 222.033692 283.192617 
L 235.814207 284.892211 
L 250.206659 286.534823 
L 265.235953 288.12148 
L 297.259225 291.15504 
L 331.93474 293.990768 
L 369.234322 296.606823 
L 408.97005 298.968998 
L 450.86525 301.067173 
L 462.656296 301.582791 
L 462.568572 303.588845 
L 494.524831 304.900976 
L 539.834796 306.463698 
L 586.533639 307.757048 
L 634.354766 308.826573 
L 683.150816 309.624881 
L 809.090638 311.179222 
L 938.548813 312.239265 
L 1043.363119 312.923615 
L 1099.636364 313.149575 
L 1099.636364 41.960463 
L 1099.636364 41.960463 
" clip-path="url(#p3f4864c782)" style="fill: none; stroke: #ff0000; stroke-width: 0.72; stroke-linejoin: miter"/>
   </g>
   <g id="patch_4">
    <path d="M 639.69797 248.125941 
L 649.737824 248.125941 
L 649.737824 258.165795 
L 639.69797 258.165795 
L 639.69797 268.205649 
L 649.737824 268.205649 
" clip-path="url(#p3f4864c782)" style="fill: none; stroke: #ff0000; stroke-width: 0.72; stroke-linejoin: miter"/>
   </g>
   <g id="patch_5">
    <path d="M 658.773693 248.125941 
L 654.757751 248.125941 
L 654.757751 268.205649 
L 658.773693 268.205649 
" clip-path="url(#p3f4864c782)" style="fill: none; stroke: #ff0000; stroke-width: 0.72; stroke-linejoin: miter"/>
   </g>
   <g id="patch_6">
    <path d="M 660.781664 268.205649 
L 664.797606 268.205649 
L 664.797606 248.125941 
L 660.781664 248.125941 
" clip-path="url(#p3f4864c782)" style="fill: none; stroke: #ff0000; stroke-width: 0.72; stroke-linejoin: miter"/>
   </g>
   <g id="patch_7">
    <path d="M 632.539061 25.433316 
L 624.517417 25.838751 
L 624.111981 17.817107 
L 632.133625 17.411672 
L 632.539061 25.433316 
" clip-path="url(#p3f4864c782)" style="fill: none; stroke: #ff0000; stroke-width: 0.72; stroke-linejoin: miter"/>
   </g>
   <g id="patch_8">
    <path d="M 275.163926 81.166727 
L 267.478294 83.499583 
L 265.145438 75.813952 
L 272.83107 73.481096 
L 275.163926 81.166727 
" clip-path="url(#p3f4864c782)" style="fill: none; stroke: #ff0000; stroke-width: 0.72; stroke-linejoin: miter"/>
   </g>
   <g id="patch_9">
    <path d="M 94.568111 167.411785 
L 91.570848 170.084648 
L 84.888689 162.59149 
L 87.885952 159.918626 
L 94.568111 167.411785 
" clip-path="url(#p3f4864c782)" style="fill: none; stroke: #ff0000; stroke-width: 0.72; stroke-linejoin: miter"/>
   </g>
   <g id="patch_10">
    <path d="M 74.233661 234.300646 
L 77.49814 236.639655 
L 71.650617 244.800852 
L 68.386138 242.461843 
L 74.233661 234.300646 
" clip-path="url(#p3f4864c782)" style="fill: none; stroke: #ff0000; stroke-width: 0.72; stroke-linejoin: miter"/>
   </g>
   <g id="patch_11">
    <path d="M 354.880715 287.588445 
L 362.894388 288.128995 
L 362.353839 296.142668 
L 354.340166 295.602119 
L 354.880715 287.588445 
" clip-path="url(#p3f4864c782)" style="fill: none; stroke: #ff0000; stroke-width: 0.72; stroke-linejoin: miter"/>
   </g>
   <g id="patch_12">
    <path d="M 965.91825 163.674196 
L 965.814795 158.44692 
L 965.504611 153.228876 
L 964.988248 148.029279 
L 964.266616 142.857312 
L 963.34099 137.72211 
L 962.213005 132.632742 
L 960.884654 127.598196 
L 959.358281 122.627364 
L 957.636583 117.729023 
L 955.722601 112.911827 
L 953.619714 108.184281 
L 951.331637 103.554736 
L 948.86241 99.031367 
L 946.216395 94.622164 
L 943.398264 90.334912 
L 940.412995 86.177185 
L 937.26586 82.156324 
L 933.962417 78.279432 
L 930.5085 74.553355 
L 926.910209 70.984673 
L 923.1739 67.57969 
L 919.30617 64.344418 
L 915.31385 61.284572 
L 911.203992 58.405555 
L 906.983854 55.712453 
L 902.660888 53.210021 
L 898.24273 50.902679 
L 893.737182 48.794502 
L 889.152202 46.889213 
L 884.495888 45.190177 
L 879.776462 43.700395 
L 875.002259 42.422498 
L 870.181712 41.358742 
L 865.323334 40.511007 
L 860.435705 39.880789 
L 855.527457 39.469202 
L 850.607258 39.276972 
L 845.683799 39.30444 
L 840.765774 39.551556 
L 835.86187 40.017884 
L 830.980746 40.7026 
L 826.131023 41.604496 
L 821.321267 42.721978 
L 816.559972 44.053073 
L 811.855546 45.595429 
L 807.216299 47.346324 
L 802.650423 49.302665 
L 798.165983 51.460996 
L 793.770898 53.817506 
L 789.47293 56.368033 
L 785.27967 59.108073 
L 781.198524 62.032786 
L 777.236699 65.137008 
L 773.401193 68.415255 
L 769.698779 71.861738 
L 766.135995 75.470371 
L 762.719135 79.234779 
L 759.454233 83.148316 
L 756.347054 87.204068 
L 753.403087 91.394874 
L 750.62753 95.713332 
L 748.025286 100.151815 
L 745.60095 104.702484 
L 743.358805 109.357303 
L 741.302809 114.108051 
L 739.436594 118.946337 
L 737.763455 123.863616 
L 736.286349 128.851205 
L 735.007883 133.900294 
L 733.930315 139.001967 
L 733.055548 144.147213 
L 732.385128 149.326946 
L 731.920238 154.532017 
L 731.6617 159.753234 
L 731.609969 164.981376 
L 731.765138 170.207209 
L 732.126932 175.421505 
L 732.694712 180.615053 
L 733.467476 185.778683 
L 734.443859 190.903274 
L 735.622136 195.979776 
L 737.000227 200.999223 
L 738.575697 205.95275 
L 740.345765 210.83161 
L 742.307303 215.627186 
L 744.456849 220.331008 
L 746.790605 224.934768 
L 749.30445 229.430337 
L 751.993944 233.809774 
L 754.854337 238.065346 
L 757.880578 242.189536 
L 761.067323 246.17506 
L 764.408942 250.01488 
L 767.899534 253.702215 
L 771.532935 257.230552 
L 775.302728 260.59366 
L 779.202254 263.785599 
L 783.224628 266.800732 
L 787.362744 269.633734 
L 791.609296 272.279601 
L 795.956782 274.733662 
L 800.397525 276.991581 
L 804.923682 279.049371 
L 809.52726 280.903398 
L 814.200128 282.550388 
L 818.934034 283.987431 
L 823.720616 285.21199 
L 828.551422 286.221901 
L 833.41792 287.015383 
L 838.311515 287.591032 
L 843.223564 287.947833 
L 848.145393 288.085155 
L 853.068309 288.002755 
L 857.983617 287.70078 
L 862.882637 287.179763 
L 867.756717 286.440623 
L 872.597248 285.484667 
L 877.395683 284.313582 
L 882.143545 282.929436 
L 886.832451 281.334675 
L 891.454118 279.532115 
L 896.000386 277.524939 
L 900.463224 275.316692 
L 904.834751 272.911274 
L 909.107246 270.312933 
L 913.273165 267.526258 
L 917.325148 264.556171 
L 921.256041 261.407917 
L 925.0589 258.087056 
L 928.72701 254.599454 
L 932.253893 250.951269 
L 935.633319 247.148944 
L 938.85932 243.199196 
L 941.926199 239.108999 
L 944.82854 234.885577 
L 947.561216 230.53639 
L 950.119402 226.069117 
L 952.498579 221.491649 
L 954.694546 216.812071 
L 956.703424 212.038646 
L 958.521666 207.179805 
L 960.14606 202.244128 
L 961.573737 197.240334 
L 962.802177 192.177259 
L 963.829209 187.063845 
L 964.653019 181.909123 
L 965.272154 176.722196 
L 965.685519 171.512225 
L 965.892384 166.288412 
L 965.91825 163.674196 
L 965.91825 163.674196 
" clip-path="url(#p3f4864c782)" style="fill: none; stroke: #ff0000; stroke-width: 0.72; stroke-linejoin: miter"/>
   </g>
   <g id="patch_13">
    <path d="M 393.656133 153.634342 
L 403.695987 163.674196 
L 393.656133 173.714051 
L 383.616279 163.674196 
L 393.656133 153.634342 
" clip-path="url(#p3f4864c782)" style="fill: none; stroke: #ff0000; stroke-width: 0.72; stroke-linejoin: miter"/>
   </g>
   <g id="patch_14">
    <path d="M 839.053961 153.634342 
L 849.093816 163.674196 
L 839.053961 173.714051 
L 829.014107 163.674196 
L 839.053961 153.634342 
" clip-path="url(#p3f4864c782)" style="fill: none; stroke: #ff0000; stroke-width: 0.72; stroke-linejoin: miter"/>
   </g>
   <g id="patch_15">
    <path d="M 477.45651 229.036798 
L 486.825988 239.704985 
L 476.1578 249.074463 
L 466.788322 238.406275 
L 477.45651 229.036798 
" clip-path="url(#p3f4864c782)" style="fill: none; stroke: #ff0000; stroke-width: 0.72; stroke-linejoin: miter"/>
   </g>
   <g id="patch_16">
    <path d="M 991.449995 262.350482 
L 1000.819473 273.018669 
L 990.151285 282.388147 
L 980.781807 271.719959 
L 991.449995 262.350482 
" clip-path="url(#p3f4864c782)" style="fill: none; stroke: #ff0000; stroke-width: 0.72; stroke-linejoin: miter"/>
   </g>
   <g id="patch_17">
    <path d="M 537.525395 203.574175 
L 547.56525 193.53432 
L 557.605104 203.574175 
L 547.56525 213.614029 
L 537.525395 203.574175 
" clip-path="url(#p3f4864c782)" style="fill: none; stroke: #ff0000; stroke-width: 0.72; stroke-linejoin: miter"/>
   </g>
   <g id="patch_18">
    <path d="M 537.525395 126.377098 
L 547.56525 116.337244 
L 557.605104 126.377098 
L 547.56525 136.416952 
L 537.525395 126.377098 
" clip-path="url(#p3f4864c782)" style="fill: none; stroke: #ff0000; stroke-width: 0.72; stroke-linejoin: miter"/>
   </g>
   <g id="line2d_1">
    <path d="M 83.672437 163.674196 
L 1099.636364 163.674196 
" clip-path="url(#p3f4864c782)" style="fill: none; stroke: #ffffff; stroke-width: 0.72; stroke-linecap: square"/>
   </g>
   <g id="line2d_2">
    <path d="M 381.608308 163.674196 
L 405.703958 163.674196 
" clip-path="url(#p3f4864c782)" style="fill: none; stroke: #ffffff; stroke-width: 0.72; stroke-linecap: square"/>
   </g>
   <g id="line2d_3">
    <path d="M 827.006136 163.674196 
L 851.101787 163.674196 
" clip-path="url(#p3f4864c782)" style="fill: none; stroke: #ffffff; stroke-width: 0.72; stroke-linecap: square"/>
   </g>
   <g id="line2d_4">
    <path d="M 52.587884 211.560522 
L 1099.636364 279.423332 
" clip-path="url(#p3f4864c782)" style="fill: none; stroke: #ffffff; stroke-width: 0.72; stroke-linecap: square"/>
   </g>
   <g id="line2d_5">
    <path d="M 464.784556 238.276404 
L 488.829754 239.834856 
" clip-path="url(#p3f4864c782)" style="fill: none; stroke: #ffffff; stroke-width: 0.72; stroke-linecap: square"/>
   </g>
   <g id="line2d_6">
    <path d="M 978.77804 271.590088 
L 1002.823239 273.14854 
" clip-path="url(#p3f4864c782)" style="fill: none; stroke: #ffffff; stroke-width: 0.72; stroke-linecap: square"/>
   </g>
   <g id="line2d_7">
    <path d="M 848.760876 39.261521 
L 848.760876 37.25355 
" clip-path="url(#p3f4864c782)" style="fill: none; stroke: #ff0000; stroke-width: 0.72; stroke-linecap: square"/>
   </g>
   <g id="line2d_8">
    <path d="M 848.760876 288.086871 
L 848.760876 290.094842 
" clip-path="url(#p3f4864c782)" style="fill: none; stroke: #ff0000; stroke-width: 0.72; stroke-linecap: square"/>
   </g>
   <g id="line2d_9">
    <path d="M 965.91825 163.674196 
L 967.926221 163.674196 
" clip-path="url(#p3f4864c782)" style="fill: none; stroke: #ff0000; stroke-width: 0.72; stroke-linecap: square"/>
   </g>
   <g id="line2d_10">
    <path d="M 731.603502 163.674196 
L 729.595531 163.674196 
" clip-path="url(#p3f4864c782)" style="fill: none; stroke: #ff0000; stroke-width: 0.72; stroke-linecap: square"/>
   </g>
   <g id="line2d_11">
    <path d="M 547.56525 306.689241 
L 547.56525 23.262031 
" clip-path="url(#p3f4864c782)" style="fill: none; stroke: #ffffff; stroke-width: 0.72; stroke-linecap: square"/>
   </g>
   <g id="line2d_12">
    <path d="M 547.56525 215.622 
L 547.56525 191.526349 
" clip-path="url(#p3f4864c782)" style="fill: none; stroke: #ffffff; stroke-width: 0.72; stroke-linecap: square"/>
   </g>
   <g id="line2d_13">
    <path d="M 547.56525 138.424923 
L 547.56525 114.329273 
" clip-path="url(#p3f4864c782)" style="fill: none; stroke: #ffffff; stroke-width: 0.72; stroke-linecap: square"/>
   </g>
  </g>
 </g>
 <defs>
  <clipPath id="p3f4864c782">
   <rect x="0" y="0" width="1152" height="328.06146"/>
  </clipPath>
 </defs>
</svg>
