  0
SECTION
  2
HEADER
  9
$ACADVER
  1
AC1021
  9
$ACADMAINTVER
 70
25
  9
$DWGCODEPAGE
  3
ANSI_1252
  9
$LASTSAVEDBY
  1
ezdxf
  9
$INSBASE
 10
0.0
 20
0.0
 30
0.0
  9
$EXTMIN
 10
1e+20
 20
1e+20
 30
1e+20
  9
$EXTMAX
 10
-1e+20
 20
-1e+20
 30
-1e+20
  9
$LIMMIN
 10
0.0
 20
0.0
  9
$LIMMAX
 10
420.0
 20
297.0
  9
$ORTHOMODE
 70
0
  9
$REGENMODE
 70
1
  9
$FILLMODE
 70
1
  9
$QTEXTMODE
 70
0
  9
$MIRRTEXT
 70
1
  9
$LTSCALE
 40
1.0
  9
$ATTMODE
 70
1
  9
$TEXTSIZE
 40
2.5
  9
$TRACEWID
 40
1.0
  9
$TEXTSTYLE
  7
OpenSans
  9
$CLAYER
  8
0
  9
$CELTYPE
  6
ByLayer
  9
$CECOLOR
 62
256
  9
$CELTSCALE
 40
1.0
  9
$DISPSILH
 70
0
  9
$DIMSCALE
 40
1.0
  9
$DIMASZ
 40
0.175
  9
$DIMEXO
 40
0.125
  9
$DIMDLI
 40
3.75
  9
$DIMRND
 40
0.0
  9
$DIMDLE
 40
0.0
  9
$DIMEXE
 40
0.375
  9
$DIMTP
 40
0.0
  9
$DIMTM
 40
0.0
  9
$DIMTXT
 40
0.25
  9
$DIMCEN
 40
2.5
  9
$DIMTSZ
 40
0.0
  9
$DIMTOL
 70
0
  9
$DIMLIM
 70
0
  9
$DIMTIH
 70
0
  9
$DIMTOH
 70
0
  9
$DIMSE1
 70
0
  9
$DIMSE2
 70
0
  9
$DIMTAD
 70
1
  9
$DIMZIN
 70
12
  9
$DIMBLK
  1
ARCHTICK
  9
$DIMASO
 70
1
  9
$DIMSHO
 70
1
  9
$DIMPOST
  1

  9
$DIMAPOST
  1

  9
$DIMALT
 70
0
  9
$DIMALTD
 70
3
  9
$DIMALTF
 40
0.03937007874
  9
$DIMLFAC
 40
100.0
  9
$DIMTOFL
 70
1
  9
$DIMTVP
 40
0.0
  9
$DIMTIX
 70
0
  9
$DIMSOXD
 70
0
  9
$DIMSAH
 70
0
  9
$DIMBLK1
  1

  9
$DIMBLK2
  1

  9
$DIMSTYLE
  2
EZDXF
  9
$DIMCLRD
 70
0
  9
$DIMCLRE
 70
0
  9
$DIMCLRT
 70
0
  9
$DIMTFAC
 40
0.5
  9
$DIMGAP
 40
0.1
  9
$DIMJUST
 70
0
  9
$DIMSD1
 70
0
  9
$DIMSD2
 70
0
  9
$DIMTOLJ
 70
0
  9
$DIMTZIN
 70
8
  9
$DIMALTZ
 70
0
  9
$DIMALTTZ
 70
0
  9
$DIMUPT
 70
1
  9
$DIMDEC
 70
2
  9
$DIMTDEC
 70
2
  9
$DIMALTU
 70
2
  9
$DIMALTTD
 70
3
  9
$DIMTXSTY
  7
OpenSansCondensed-Light
  9
$DIMAUNIT
 70
0
  9
$DIMADEC
 70
2
  9
$DIMALTRND
 40
0.0
  9
$DIMAZIN
 70
3
  9
$DIMDSEP
 70
46
  9
$DIMATFIT
 70
3
  9
$DIMFRAC
 70
0
  9
$DIMLDRBLK
  1

  9
$DIMLUNIT
 70
2
  9
$DIMLWD
 70
-2
  9
$DIMLWE
 70
-2
  9
$DIMTMOVE
 70
2
  9
$DIMFXL
 40
1.0
  9
$DIMFXLON
 70
0
  9
$DIMJOGANG
 40
0.785398163397
  9
$DIMTFILL
 70
0
  9
$DIMTFILLCLR
 70
0
  9
$DIMARCSYM
 70
0
  9
$DIMLTYPE
  6

  9
$DIMLTEX1
  6

  9
$DIMLTEX2
  6

  9
$LUNITS
 70
2
  9
$LUPREC
 70
4
  9
$SKETCHINC
 40
1.0
  9
$FILLETRAD
 40
10.0
  9
$AUNITS
 70
0
  9
$AUPREC
 70
2
  9
$MENU
  1
.
  9
$ELEVATION
 40
0.0
  9
$PELEVATION
 40
0.0
  9
$THICKNESS
 40
0.0
  9
$LIMCHECK
 70
0
  9
$CHAMFERA
 40
0.0
  9
$CHAMFERB
 40
0.0
  9
$CHAMFERC
 40
0.0
  9
$CHAMFERD
 40
0.0
  9
$SKPOLY
 70
0
  9
$TDCREATE
 40
2461048.088402778
  9
$TDUCREATE
 40
2458532.153996898
  9
$TDUPDATE
 40
2461048.088402778
  9
$TDUUPDATE
 40
2458532.1544311
  9
$TDINDWG
 40
0.0
  9
$TDUSRTIMER
 40
0.0
  9
$USRTIMER
 70
1
  9
$ANGBASE
 50
0.0
  9
$ANGDIR
 70
0
  9
$PDMODE
 70
0
  9
$PDSIZE
 40
0.0
  9
$PLINEWID
 40
0.0
  9
$SPLFRAME
 70
0
  9
$SPLINETYPE
 70
6
  9
$SPLINESEGS
 70
8
  9
$HANDSEED
  5
AC
  9
$SURFTAB1
 70
6
  9
$SURFTAB2
 70
6
  9
$SURFTYPE
 70
6
  9
$SURFU
 70
6
  9
$SURFV
 70
6
  9
$UCSBASE
  2

  9
$UCSNAME
  2

  9
$UCSORG
 10
0.0
 20
0.0
 30
0.0
  9
$UCSXDIR
 10
1.0
 20
0.0
 30
0.0
  9
$UCSYDIR
 10
0.0
 20
1.0
 30
0.0
  9
$UCSORTHOREF
  2

  9
$UCSORTHOVIEW
 70
0
  9
$UCSORGTOP
 10
0.0
 20
0.0
 30
0.0
  9
$UCSORGBOTTOM
 10
0.0
 20
0.0
 30
0.0
  9
$UCSORGLEFT
 10
0.0
 20
0.0
 30
0.0
  9
$UCSORGRIGHT
 10
0.0
 20
0.0
 30
0.0
  9
$UCSORGFRONT
 10
0.0
 20
0.0
 30
0.0
  9
$UCSORGBACK
 10
0.0
 20
0.0
 30
0.0
  9
$PUCSBASE
  2

  9
$PUCSNAME
  2

  9
$PUCSORG
 10
0.0
 20
0.0
 30
0.0
  9
$PUCSXDIR
 10
1.0
 20
0.0
 30
0.0
  9
$PUCSYDIR
 10
0.0
 20
1.0
 30
0.0
  9
$PUCSORTHOREF
  2

  9
$PUCSORTHOVIEW
 70
0
  9
$PUCSORGTOP
 10
0.0
 20
0.0
 30
0.0
  9
$PUCSORGBOTTOM
 10
0.0
 20
0.0
 30
0.0
  9
$PUCSORGLEFT
 10
0.0
 20
0.0
 30
0.0
  9
$PUCSORGRIGHT
 10
0.0
 20
0.0
 30
0.0
  9
$PUCSORGFRONT
 10
0.0
 20
0.0
 30
0.0
  9
$PUCSORGBACK
 10
0.0
 20
0.0
 30
0.0
  9
$USERI1
 70
0
  9
$USERI2
 70
0
  9
$USERI3
 70
0
  9
$USERI4
 70
0
  9
$USERI5
 70
0
  9
$USERR1
 40
0.0
  9
$USERR2
 40
0.0
  9
$USERR3
 40
0.0
  9
$USERR4
 40
0.0
  9
$USERR5
 40
0.0
  9
$WORLDVIEW
 70
1
  9
$SHADEDGE
 70
3
  9
$SHADEDIF
 70
70
  9
$TILEMODE
 70
1
  9
$MAXACTVP
 70
64
  9
$PINSBASE
 10
0.0
 20
0.0
 30
0.0
  9
$PLIMCHECK
 70
0
  9
$PEXTMIN
 10
1e+20
 20
1e+20
 30
1e+20
  9
$PEXTMAX
 10
-1e+20
 20
-1e+20
 30
-1e+20
  9
$PLIMMIN
 10
0.0
 20
0.0
  9
$PLIMMAX
 10
420.0
 20
297.0
  9
$UNITMODE
 70
0
  9
$VISRETAIN
 70
1
  9
$PLINEGEN
 70
0
  9
$PSLTSCALE
 70
1
  9
$TREEDEPTH
 70
3020
  9
$CMLSTYLE
  2
Standard
  9
$CMLJUST
 70
0
  9
$CMLSCALE
 40
20.0
  9
$PROXYGRAPHICS
 70
1
  9
$MEASUREMENT
 70
1
  9
$CELWEIGHT
370
-1
  9
$ENDCAPS
280
0
  9
$JOINSTYLE
280
0
  9
$LWDISPLAY
290
0
  9
$INSUNITS
 70
6
  9
$HYPERLINKBASE
  1

  9
$STYLESHEET
  1

  9
$XEDIT
290
1
  9
$CEPSNTYPE
380
0
  9
$PSTYLEMODE
290
1
  9
$FINGERPRINTGUID
  2
{7B9A44DB-1844-4FA4-A008-FF7DBB9BBFCC}
  9
$VERSIONGUID
  2
{431ACB62-1BC8-40AA-BE42-CC560E103368}
  9
$EXTNAMES
290
1
  9
$PSVPSCALE
 40
0.0
  9
$OLESTARTUP
290
0
  9
$SORTENTS
280
127
  9
$INDEXCTL
280
0
  9
$HIDETEXT
280
1
  9
$XCLIPFRAME
290
1
  9
$HALOGAP
280
0
  9
$OBSCOLOR
 70
257
  9
$OBSLTYPE
280
0
  9
$INTERSECTIONDISPLAY
280
0
  9
$INTERSECTIONCOLOR
 70
257
  9
$DIMASSOC
280
2
  9
$PROJECTNAME
  1

  9
$CAMERADISPLAY
290
0
  9
$LENSLENGTH
 40
50.0
  9
$CAMERAHEIGHT
 40
0.0
  9
$STEPSPERSEC
 40
24.0
  9
$STEPSIZE
 40
100.0
  9
$3DDWFPREC
 40
2.0
  9
$PSOLWIDTH
 40
0.005
  9
$PSOLHEIGHT
 40
0.08
  9
$LOFTANG1
 40
1.570796326795
  9
$LOFTANG2
 40
1.570796326795
  9
$LOFTMAG1
 40
0.0
  9
$LOFTMAG2
 40
0.0
  9
$LOFTPARAM
 70
7
  9
$LOFTNORMALS
280
1
  9
$LATITUDE
 40
37.795
  9
$LONGITUDE
 40
-122.394
  9
$NORTHDIRECTION
 40
0.0
  9
$TIMEZONE
 70
-8000
  9
$LIGHTGLYPHDISPLAY
280
1
  9
$TILEMODELIGHTSYNCH
280
1
  9
$CMATERIAL
347
20
  9
$SOLIDHIST
280
0
  9
$SHOWHIST
280
1
  9
$DWFFRAME
280
2
  9
$DGNFRAME
280
2
  9
$REALWORLDSCALE
290
1
  9
$INTERFERECOLOR
 62
256
  9
$CSHADOW
280
0
  9
$SHADOWPLANELOCATION
 40
0.0
  0
ENDSEC
  0
SECTION
  2
CLASSES
  0
CLASS
  1
ACDBDICTIONARYWDFLT
  2
AcDbDictionaryWithDefault
  3
ObjectDBX Classes
 90
0
 91
0
280
0
281
0
  0
CLASS
  1
SUN
  2
AcDbSun
  3
SCENEOE
 90
1153
 91
0
280
0
281
0
  0
CLASS
  1
VISUALSTYLE
  2
AcDbVisualStyle
  3
ObjectDBX Classes
 90
4095
 91
0
280
0
281
0
  0
CLASS
  1
MATERIAL
  2
AcDbMaterial
  3
ObjectDBX Classes
 90
1153
 91
0
280
0
281
0
  0
CLASS
  1
SCALE
  2
AcDbScale
  3
ObjectDBX Classes
 90
1153
 91
0
280
0
281
0
  0
CLASS
  1
TABLESTYLE
  2
AcDbTableStyle
  3
ObjectDBX Classes
 90
4095
 91
0
280
0
281
0
  0
CLASS
  1
MLEADERSTYLE
  2
AcDbMLeaderStyle
  3
ACDB_MLEADERSTYLE_CLASS
 90
4095
 91
0
280
0
281
0
  0
CLASS
  1
DICTIONARYVAR
  2
AcDbDictionaryVar
  3
ObjectDBX Classes
 90
0
 91
0
280
0
281
0
  0
CLASS
  1
CELLSTYLEMAP
  2
AcDbCellStyleMap
  3
ObjectDBX Classes
 90
1152
 91
0
280
0
281
0
  0
CLASS
  1
MENTALRAYRENDERSETTINGS
  2
AcDbMentalRayRenderSettings
  3
SCENEOE
 90
1024
 91
0
280
0
281
0
  0
CLASS
  1
ACDBDETAILVIEWSTYLE
  2
AcDbDetailViewStyle
  3
ObjectDBX Classes
 90
1025
 91
0
280
0
281
0
  0
CLASS
  1
ACDBSECTIONVIEWSTYLE
  2
AcDbSectionViewStyle
  3
ObjectDBX Classes
 90
1025
 91
0
280
0
281
0
  0
CLASS
  1
RASTERVARIABLES
  2
AcDbRasterVariables
  3
ISM
 90
0
 91
0
280
0
281
0
  0
CLASS
  1
ACDBPLACEHOLDER
  2
AcDbPlaceHolder
  3
ObjectDBX Classes
 90
0
 91
0
280
0
281
0
  0
CLASS
  1
LAYOUT
  2
AcDbLayout
  3
ObjectDBX Classes
 90
0
 91
0
280
0
281
0
  0
ENDSEC
  0
SECTION
  2
TABLES
  0
TABLE
  2
VPORT
  5
8
330
0
100
AcDbSymbolTable
 70
1
  0
VPORT
  5
23
330
8
100
AcDbSymbolTableRecord
100
AcDbViewportTableRecord
  2
*Active
 70
0
 10
0.0
 20
0.0
 11
1.0
 21
1.0
 12
0.0
 22
0.0
 13
0.0
 23
0.0
 14
0.5
 24
0.5
 15
0.5
 25
0.5
 16
0.0
 26
0.0
 36
1.0
 17
0.0
 27
0.0
 37
0.0
 40
1000.0
 41
1.34
 42
50.0
 43
0.0
 44
0.0
 50
0.0
 51
0.0
 71
0
 72
1000
 73
1
 74
3
 75
0
 76
0
 77
0
 78
0
281
0
 65
0
146
0.0
  0
ENDTAB
  0
TABLE
  2
LTYPE
  5
2
330
0
100
AcDbSymbolTable
 70
21
  0
LTYPE
  5
24
330
2
100
AcDbSymbolTableRecord
100
AcDbLinetypeTableRecord
  2
ByBlock
 70
0
  3

 72
65
 73
0
 40
0.0
  0
LTYPE
  5
25
330
2
100
AcDbSymbolTableRecord
100
AcDbLinetypeTableRecord
  2
ByLayer
 70
0
  3

 72
65
 73
0
 40
0.0
  0
LTYPE
  5
26
330
2
100
AcDbSymbolTableRecord
100
AcDbLinetypeTableRecord
  2
Continuous
 70
0
  3

 72
65
 73
0
 40
0.0
  0
LTYPE
  5
2F
330
2
100
AcDbSymbolTableRecord
100
AcDbLinetypeTableRecord
  2
CENTER
 70
0
  3
Center ____ _ ____ _ ____ _ ____ _ ____ _ ____
 72
65
 73
4
 40
5.08
 49
3.175
 74
0
 49
-0.635
 74
0
 49
0.635
 74
0
 49
-0.635
 74
0
  0
LTYPE
  5
30
330
2
100
AcDbSymbolTableRecord
100
AcDbLinetypeTableRecord
  2
CENTERX2
 70
0
  3
Center (2x) ________  __  ________  __  ________
 72
65
 73
4
 40
8.89
 49
6.35
 74
0
 49
-0.635
 74
0
 49
1.27
 74
0
 49
-0.635
 74
0
  0
LTYPE
  5
31
330
2
100
AcDbSymbolTableRecord
100
AcDbLinetypeTableRecord
  2
CENTER2
 70
0
  3
Center (.5x) ____ _ ____ _ ____ _ ____ _ ____
 72
65
 73
4
 40
2.54
 49
1.587
 74
0
 49
-0.318
 74
0
 49
0.318
 74
0
 49
-0.318
 74
0
  0
LTYPE
  5
32
330
2
100
AcDbSymbolTableRecord
100
AcDbLinetypeTableRecord
  2
DASHED
 70
0
  3
Dashed __ __ __ __ __ __ __ __ __ __ __ __ __ _
 72
65
 73
2
 40
1.524
 49
1.27
 74
0
 49
-0.254
 74
0
  0
LTYPE
  5
33
330
2
100
AcDbSymbolTableRecord
100
AcDbLinetypeTableRecord
  2
DASHEDX2
 70
0
  3
Dashed (2x) ____  ____  ____  ____  ____  ____
 72
65
 73
2
 40
3.048
 49
2.54
 74
0
 49
-0.508
 74
0
  0
LTYPE
  5
34
330
2
100
AcDbSymbolTableRecord
100
AcDbLinetypeTableRecord
  2
DASHED2
 70
0
  3
Dashed (.5x) _ _ _ _ _ _ _ _ _ _ _ _ _ _
 72
65
 73
2
 40
0.762
 49
0.635
 74
0
 49
-0.127
 74
0
  0
LTYPE
  5
35
330
2
100
AcDbSymbolTableRecord
100
AcDbLinetypeTableRecord
  2
PHANTOM
 70
0
  3
Phantom ______  __  __  ______  __  __  ______
 72
65
 73
6
 40
6.35
 49
3.175
 74
0
 49
-0.635
 74
0
 49
0.635
 74
0
 49
-0.635
 74
0
 49
0.635
 74
0
 49
-0.635
 74
0
  0
LTYPE
  5
36
330
2
100
AcDbSymbolTableRecord
100
AcDbLinetypeTableRecord
  2
PHANTOMX2
 70
0
  3
Phantom (2x)____________    ____    ____    ____________
 72
65
 73
6
 40
10.795
 49
6.35
 74
0
 49
-0.635
 74
0
 49
1.27
 74
0
 49
-0.635
 74
0
 49
1.27
 74
0
 49
-0.635
 74
0
  0
LTYPE
  5
37
330
2
100
AcDbSymbolTableRecord
100
AcDbLinetypeTableRecord
  2
PHANTOM2
 70
0
  3
Phantom (.5x) ___ _ _ ___ _ _ ___ _ _ ___ _ _ ___
 72
65
 73
6
 40
3.175
 49
1.587
 74
0
 49
-0.318
 74
0
 49
0.318
 74
0
 49
-0.318
 74
0
 49
0.318
 74
0
 49
-0.318
 74
0
  0
LTYPE
  5
38
330
2
100
AcDbSymbolTableRecord
100
AcDbLinetypeTableRecord
  2
DASHDOT
 70
0
  3
Dash dot __ . __ . __ . __ . __ . __ . __ . __
 72
65
 73
4
 40
3.556
 49
2.54
 74
0
 49
-0.508
 74
0
 49
0.0
 74
0
 49
-0.508
 74
0
  0
LTYPE
  5
39
330
2
100
AcDbSymbolTableRecord
100
AcDbLinetypeTableRecord
  2
DASHDOTX2
 70
0
  3
Dash dot (2x) ____  .  ____  .  ____  .  ____
 72
65
 73
4
 40
6.096
 49
5.08
 74
0
 49
-0.508
 74
0
 49
0.0
 74
0
 49
-0.508
 74
0
  0
LTYPE
  5
3A
330
2
100
AcDbSymbolTableRecord
100
AcDbLinetypeTableRecord
  2
DASHDOT2
 70
0
  3
Dash dot (.5x) _ . _ . _ . _ . _ . _ . _ . _
 72
65
 73
4
 40
1.778
 49
1.27
 74
0
 49
-0.254
 74
0
 49
0.0
 74
0
 49
-0.254
 74
0
  0
LTYPE
  5
3B
330
2
100
AcDbSymbolTableRecord
100
AcDbLinetypeTableRecord
  2
DOT
 70
0
  3
Dot .  .  .  .  .  .  .  .  .  .  .  .  .  .  .  .
 72
65
 73
2
 40
0.508
 49
0.0
 74
0
 49
-0.508
 74
0
  0
LTYPE
  5
3C
330
2
100
AcDbSymbolTableRecord
100
AcDbLinetypeTableRecord
  2
DOTX2
 70
0
  3
Dot (2x) .    .    .    .    .    .    .    . 
 72
65
 73
2
 40
1.016
 49
0.0
 74
0
 49
-1.016
 74
0
  0
LTYPE
  5
3D
330
2
100
AcDbSymbolTableRecord
100
AcDbLinetypeTableRecord
  2
DOT2
 70
0
  3
Dot (.5) . . . . . . . . . . . . . . . . . . . 
 72
65
 73
2
 40
0.254
 49
0.0
 74
0
 49
-0.254
 74
0
  0
LTYPE
  5
3E
330
2
100
AcDbSymbolTableRecord
100
AcDbLinetypeTableRecord
  2
DIVIDE
 70
0
  3
Divide __ . . __ . . __ . . __ . . __ . . __
 72
65
 73
6
 40
4.064
 49
2.54
 74
0
 49
-0.508
 74
0
 49
0.0
 74
0
 49
-0.508
 74
0
 49
0.0
 74
0
 49
-0.508
 74
0
  0
LTYPE
  5
3F
330
2
100
AcDbSymbolTableRecord
100
AcDbLinetypeTableRecord
  2
DIVIDEX2
 70
0
  3
Divide (2x) ____  . .  ____  . .  ____  . .  ____
 72
65
 73
6
 40
6.604
 49
5.08
 74
0
 49
-0.508
 74
0
 49
0.0
 74
0
 49
-0.508
 74
0
 49
0.0
 74
0
 49
-0.508
 74
0
  0
LTYPE
  5
40
330
2
100
AcDbSymbolTableRecord
100
AcDbLinetypeTableRecord
  2
DIVIDE2
 70
0
  3
Divide(.5x) _ . _ . _ . _ . _ . _ . _ . _
 72
65
 73
6
 40
2.032
 49
1.27
 74
0
 49
-0.254
 74
0
 49
0.0
 74
0
 49
-0.254
 74
0
 49
0.0
 74
0
 49
-0.254
 74
0
  0
ENDTAB
  0
TABLE
  2
LAYER
  5
1
330
0
100
AcDbSymbolTable
 70
4
  0
LAYER
  5
27
330
1
100
AcDbSymbolTableRecord
100
AcDbLayerTableRecord
  2
0
 70
0
 62
7
  6
Continuous
370
-3
390
13
347
21
  0
LAYER
  5
28
330
1
100
AcDbSymbolTableRecord
100
AcDbLayerTableRecord
  2
Defpoints
 70
0
 62
7
  6
Continuous
290
0
370
-3
390
13
347
21
  0
LAYER
  5
8A
330
1
100
AcDbSymbolTableRecord
100
AcDbLayerTableRecord
  2
Layer
 70
0
 62
1
  6
Continuous
370
50
390
13
347
21
  0
LAYER
  5
8B
330
1
100
AcDbSymbolTableRecord
100
AcDbLayerTableRecord
  2
NumLabel
 70
0
 62
1
  6
Continuous
370
15
390
13
347
21
  0
ENDTAB
  0
TABLE
  2
STYLE
  5
5
330
0
100
AcDbSymbolTable
 70
26
  0
STYLE
  5
29
330
5
100
AcDbSymbolTableRecord
100
AcDbTextStyleTableRecord
  2
Standard
 70
0
 40
0.0
 41
1.0
 50
0.0
 71
0
 42
2.5
  3
txt
  4

  0
STYLE
  5
41
330
5
100
AcDbSymbolTableRecord
100
AcDbTextStyleTableRecord
  2
OpenSans-Light
 70
0
 40
0.0
 41
1.0
 50
0.0
 71
0
 42
2.5
  3
OpenSans-Light.ttf
  4

  0
STYLE
  5
42
330
5
100
AcDbSymbolTableRecord
100
AcDbTextStyleTableRecord
  2
OpenSans-Light-Italic
 70
0
 40
0.0
 41
1.0
 50
0.0
 71
0
 42
2.5
  3
OpenSans-LightItalic.ttf
  4

  0
STYLE
  5
43
330
5
100
AcDbSymbolTableRecord
100
AcDbTextStyleTableRecord
  2
OpenSans
 70
0
 40
0.0
 41
1.0
 50
0.0
 71
0
 42
2.5
  3
OpenSans-Regular.ttf
  4

  0
STYLE
  5
44
330
5
100
AcDbSymbolTableRecord
100
AcDbTextStyleTableRecord
  2
OpenSans-Italic
 70
0
 40
0.0
 41
1.0
 50
0.0
 71
0
 42
2.5
  3
OpenSans-Italic.ttf
  4

  0
STYLE
  5
45
330
5
100
AcDbSymbolTableRecord
100
AcDbTextStyleTableRecord
  2
OpenSans-SemiBold
 70
0
 40
0.0
 41
1.0
 50
0.0
 71
0
 42
2.5
  3
OpenSans-SemiBold.ttf
  4

  0
STYLE
  5
46
330
5
100
AcDbSymbolTableRecord
100
AcDbTextStyleTableRecord
  2
OpenSans-SemiBoldItalic
 70
0
 40
0.0
 41
1.0
 50
0.0
 71
0
 42
2.5
  3
OpenSans-SemiBoldItalic.ttf
  4

  0
STYLE
  5
47
330
5
100
AcDbSymbolTableRecord
100
AcDbTextStyleTableRecord
  2
OpenSans-Bold
 70
0
 40
0.0
 41
1.0
 50
0.0
 71
0
 42
2.5
  3
OpenSans-Bold.ttf
  4

  0
STYLE
  5
48
330
5
100
AcDbSymbolTableRecord
100
AcDbTextStyleTableRecord
  2
OpenSans-BoldItalic
 70
0
 40
0.0
 41
1.0
 50
0.0
 71
0
 42
2.5
  3
OpenSans-BoldItalic.ttf
  4

  0
STYLE
  5
49
330
5
100
AcDbSymbolTableRecord
100
AcDbTextStyleTableRecord
  2
OpenSans-ExtraBold
 70
0
 40
0.0
 41
1.0
 50
0.0
 71
0
 42
2.5
  3
OpenSans-ExtraBold.ttf
  4

  0
STYLE
  5
4A
330
5
100
AcDbSymbolTableRecord
100
AcDbTextStyleTableRecord
  2
OpenSans-ExtraBoldItalic
 70
0
 40
0.0
 41
1.0
 50
0.0
 71
0
 42
2.5
  3
OpenSans-ExtraBoldItalic.ttf
  4

  0
STYLE
  5
4B
330
5
100
AcDbSymbolTableRecord
100
AcDbTextStyleTableRecord
  2
OpenSansCondensed-Bold
 70
0
 40
0.0
 41
1.0
 50
0.0
 71
0
 42
2.5
  3
OpenSansCondensed-Bold.ttf
  4

  0
STYLE
  5
4C
330
5
100
AcDbSymbolTableRecord
100
AcDbTextStyleTableRecord
  2
OpenSansCondensed-Light
 70
0
 40
0.0
 41
1.0
 50
0.0
 71
0
 42
2.5
  3
OpenSansCondensed-Light.ttf
  4

  0
STYLE
  5
4D
330
5
100
AcDbSymbolTableRecord
100
AcDbTextStyleTableRecord
  2
OpenSansCondensed-Italic
 70
0
 40
0.0
 41
1.0
 50
0.0
 71
0
 42
2.5
  3
OpenSansCondensed-LightItalic.ttf
  4

  0
STYLE
  5
4E
330
5
100
AcDbSymbolTableRecord
100
AcDbTextStyleTableRecord
  2
LiberationSans
 70
0
 40
0.0
 41
1.0
 50
0.0
 71
0
 42
2.5
  3
LiberationSans-Regular.ttf
  4

  0
STYLE
  5
4F
330
5
100
AcDbSymbolTableRecord
100
AcDbTextStyleTableRecord
  2
LiberationSans-Bold
 70
0
 40
0.0
 41
1.0
 50
0.0
 71
0
 42
2.5
  3
LiberationSans-Bold.ttf
  4

  0
STYLE
  5
50
330
5
100
AcDbSymbolTableRecord
100
AcDbTextStyleTableRecord
  2
LiberationSans-BoldItalic
 70
0
 40
0.0
 41
1.0
 50
0.0
 71
0
 42
2.5
  3
LiberationSans-BoldItalic.ttf
  4

  0
STYLE
  5
51
330
5
100
AcDbSymbolTableRecord
100
AcDbTextStyleTableRecord
  2
LiberationSans-Italic
 70
0
 40
0.0
 41
1.0
 50
0.0
 71
0
 42
2.5
  3
LiberationSans-Italic.ttf
  4

  0
STYLE
  5
52
330
5
100
AcDbSymbolTableRecord
100
AcDbTextStyleTableRecord
  2
LiberationSerif
 70
0
 40
0.0
 41
1.0
 50
0.0
 71
0
 42
2.5
  3
LiberationSerif-Regular.ttf
  4

  0
STYLE
  5
53
330
5
100
AcDbSymbolTableRecord
100
AcDbTextStyleTableRecord
  2
LiberationSerif-Bold
 70
0
 40
0.0
 41
1.0
 50
0.0
 71
0
 42
2.5
  3
LiberationSerif-Bold.ttf
  4

  0
STYLE
  5
54
330
5
100
AcDbSymbolTableRecord
100
AcDbTextStyleTableRecord
  2
LiberationSerif-BoldItalic
 70
0
 40
0.0
 41
1.0
 50
0.0
 71
0
 42
2.5
  3
LiberationSerif-BoldItalic.ttf
  4

  0
STYLE
  5
55
330
5
100
AcDbSymbolTableRecord
100
AcDbTextStyleTableRecord
  2
LiberationSerif-Italic
 70
0
 40
0.0
 41
1.0
 50
0.0
 71
0
 42
2.5
  3
LiberationSerif-Italic.ttf
  4

  0
STYLE
  5
56
330
5
100
AcDbSymbolTableRecord
100
AcDbTextStyleTableRecord
  2
LiberationMono
 70
0
 40
0.0
 41
1.0
 50
0.0
 71
0
 42
2.5
  3
LiberationMono-Regular.ttf
  4

  0
STYLE
  5
57
330
5
100
AcDbSymbolTableRecord
100
AcDbTextStyleTableRecord
  2
LiberationMono-Bold
 70
0
 40
0.0
 41
1.0
 50
0.0
 71
0
 42
2.5
  3
LiberationMono-Bold.ttf
  4

  0
STYLE
  5
58
330
5
100
AcDbSymbolTableRecord
100
AcDbTextStyleTableRecord
  2
LiberationMono-BoldItalic
 70
0
 40
0.0
 41
1.0
 50
0.0
 71
0
 42
2.5
  3
LiberationMono-BoldItalic.ttf
  4

  0
STYLE
  5
59
330
5
100
AcDbSymbolTableRecord
100
AcDbTextStyleTableRecord
  2
LiberationMono-Italic
 70
0
 40
0.0
 41
1.0
 50
0.0
 71
0
 42
2.5
  3
LiberationMono-Italic.ttf
  4

  0
ENDTAB
  0
TABLE
  2
VIEW
  5
7
330
0
100
AcDbSymbolTable
 70
0
  0
ENDTAB
  0
TABLE
  2
UCS
  5
6
330
0
100
AcDbSymbolTable
 70
0
  0
ENDTAB
  0
TABLE
  2
APPID
  5
3
330
0
100
AcDbSymbolTable
 70
3
  0
APPID
  5
2A
330
3
100
AcDbSymbolTableRecord
100
AcDbRegAppTableRecord
  2
ACAD
 70
0
  0
APPID
  5
A9
330
3
100
AcDbSymbolTableRecord
100
AcDbRegAppTableRecord
  2
HATCHBACKGROUNDCOLOR
 70
0
  0
APPID
  5
AA
330
3
100
AcDbSymbolTableRecord
100
AcDbRegAppTableRecord
  2
EZDXF
 70
0
  0
ENDTAB
  0
TABLE
  2
DIMSTYLE
  5
4
330
0
100
AcDbSymbolTable
 70
12
100
AcDbDimStyleTable
  0
DIMSTYLE
105
2B
330
4
100
AcDbSymbolTableRecord
100
AcDbDimStyleTableRecord
  2
Standard
 70
0
 40
1.0
 41
2.5
 42
0.625
 43
3.75
 44
1.25
 45
0.0
 46
0.0
 47
0.0
 48
0.0
 49
2.5
140
2.5
141
2.5
142
0.0
143
0.03937007874
144
1.0
145
0.0
146
1.0
147
0.625
148
0.0
 69
0
 70
0
 71
0
 72
0
 73
0
 74
0
 75
0
 76
0
 77
1
 78
8
 79
3
170
0
171
3
172
1
173
0
174
0
175
0
176
0
177
0
178
0
179
2
271
2
272
2
273
2
274
3
275
0
276
0
277
2
278
44
279
0
280
0
281
0
282
0
283
0
284
8
285
0
286
0
288
0
289
3
290
0
371
-2
372
-2
  0
DIMSTYLE
105
73
330
4
100
AcDbSymbolTableRecord
100
AcDbDimStyleTableRecord
  2
EZDXF
 70
0
 40
1.0
 41
0.175
 42
0.125
 43
3.75
 44
0.375
 45
0.0
 46
0.0
 47
0.0
 48
0.0
 49
2.5
140
0.25
141
2.5
142
0.0
143
0.03937007874
144
100.0
145
0.0
146
0.5
147
0.1
148
0.0
 69
0
 70
0
 71
0
 72
0
 73
0
 74
0
 75
0
 76
0
 77
1
 78
12
 79
3
170
0
171
3
172
1
173
0
174
0
175
0
176
0
177
0
178
0
179
2
271
2
272
2
273
2
274
3
275
0
276
0
277
2
278
46
279
2
280
0
281
0
282
0
283
0
284
8
285
0
286
0
288
1
289
3
290
0
340
4C
342
74
371
-2
372
-2
  0
DIMSTYLE
105
7C
330
4
100
AcDbSymbolTableRecord
100
AcDbDimStyleTableRecord
  2
EZ_M_100_H25_CM
 70
0
 40
1.0
 41
0.25
 42
0.125
 43
3.75
 44
0.375
 45
0.0
 46
0.0
 47
0.0
 48
0.0
 49
2.5
140
0.25
141
2.5
142
0.125
143
0.03937007874
144
100.0
145
0.0
146
0.5
147
0.1
148
0.0
 69
0
 70
0
 71
0
 72
0
 73
0
 74
0
 75
0
 76
0
 77
1
 78
12
 79
3
170
0
171
3
172
1
173
0
174
0
175
0
176
0
177
0
178
0
179
2
271
2
272
2
273
2
274
3
275
0
276
0
277
2
278
46
279
2
280
0
281
0
282
0
283
0
284
8
285
0
286
0
288
1
289
3
290
0
340
4C
371
-2
372
-2
  0
DIMSTYLE
105
7D
330
4
100
AcDbSymbolTableRecord
100
AcDbDimStyleTableRecord
  2
EZ_M_50_H25_CM
 70
0
 40
1.0
 41
0.125
 42
0.0625
 43
3.75
 44
0.1875
 45
0.0
 46
0.0
 47
0.0
 48
0.0
 49
2.5
140
0.125
141
2.5
142
0.0625
143
0.03937007874
144
100.0
145
0.0
146
0.5
147
0.05
148
0.0
 69
0
 70
0
 71
0
 72
0
 73
0
 74
0
 75
0
 76
0
 77
1
 78
12
 79
3
170
0
171
3
172
1
173
0
174
0
175
0
176
0
177
0
178
0
179
2
271
2
272
2
273
2
274
3
275
0
276
0
277
2
278
46
279
2
280
0
281
0
282
0
283
0
284
8
285
0
286
0
288
1
289
3
290
0
340
4C
371
-2
372
-2
  0
DIMSTYLE
105
7E
330
4
100
AcDbSymbolTableRecord
100
AcDbDimStyleTableRecord
  2
EZ_M_25_H25_CM
 70
0
 40
1.0
 41
0.0625
 42
0.03125
 43
3.75
 44
0.09375
 45
0.0
 46
0.0
 47
0.0
 48
0.0
 49
2.5
140
0.0625
141
2.5
142
0.03125
143
0.03937007874
144
100.0
145
0.0
146
0.5
147
0.025
148
0.0
 69
0
 70
0
 71
0
 72
0
 73
0
 74
0
 75
0
 76
0
 77
1
 78
12
 79
3
170
0
171
3
172
1
173
0
174
0
175
0
176
0
177
0
178
0
179
2
271
2
272
2
273
2
274
3
275
0
276
0
277
2
278
46
279
2
280
0
281
0
282
0
283
0
284
8
285
0
286
0
288
1
289
3
290
0
340
4C
371
-2
372
-2
  0
DIMSTYLE
105
7F
330
4
100
AcDbSymbolTableRecord
100
AcDbDimStyleTableRecord
  2
EZ_M_20_H25_CM
 70
0
 40
1.0
 41
0.05
 42
0.025
 43
3.75
 44
0.07500000000000001
 45
0.0
 46
0.0
 47
0.0
 48
0.0
 49
2.5
140
0.05
141
2.5
142
0.025
143
0.03937007874
144
100.0
145
0.0
146
0.5
147
0.020000000000000004
148
0.0
 69
0
 70
0
 71
0
 72
0
 73
0
 74
0
 75
0
 76
0
 77
1
 78
12
 79
3
170
0
171
3
172
1
173
0
174
0
175
0
176
0
177
0
178
0
179
2
271
2
272
2
273
2
274
3
275
0
276
0
277
2
278
46
279
2
280
0
281
0
282
0
283
0
284
8
285
0
286
0
288
1
289
3
290
0
340
4C
371
-2
372
-2
  0
DIMSTYLE
105
80
330
4
100
AcDbSymbolTableRecord
100
AcDbDimStyleTableRecord
  2
EZ_M_10_H25_CM
 70
0
 40
1.0
 41
0.025
 42
0.0125
 43
3.75
 44
0.037500000000000006
 45
0.0
 46
0.0
 47
0.0
 48
0.0
 49
2.5
140
0.025
141
2.5
142
0.0125
143
0.03937007874
144
100.0
145
0.0
146
0.5
147
0.010000000000000002
148
0.0
 69
0
 70
0
 71
0
 72
0
 73
0
 74
0
 75
0
 76
0
 77
1
 78
12
 79
3
170
0
171
3
172
1
173
0
174
0
175
0
176
0
177
0
178
0
179
2
271
2
272
2
273
2
274
3
275
0
276
0
277
2
278
46
279
2
280
0
281
0
282
0
283
0
284
8
285
0
286
0
288
1
289
3
290
0
340
4C
371
-2
372
-2
  0
DIMSTYLE
105
81
330
4
100
AcDbSymbolTableRecord
100
AcDbDimStyleTableRecord
  2
EZ_M_5_H25_CM
 70
0
 40
1.0
 41
0.0125
 42
0.00625
 43
3.75
 44
0.018750000000000003
 45
0.0
 46
0.0
 47
0.0
 48
0.0
 49
2.5
140
0.0125
141
2.5
142
0.00625
143
0.03937007874
144
100.0
145
0.0
146
0.5
147
0.005000000000000001
148
0.0
 69
0
 70
0
 71
0
 72
0
 73
0
 74
0
 75
0
 76
0
 77
1
 78
12
 79
3
170
0
171
3
172
1
173
0
174
0
175
0
176
0
177
0
178
0
179
2
271
2
272
2
273
2
274
3
275
0
276
0
277
2
278
46
279
2
280
0
281
0
282
0
283
0
284
8
285
0
286
0
288
1
289
3
290
0
340
4C
371
-2
372
-2
  0
DIMSTYLE
105
82
330
4
100
AcDbSymbolTableRecord
100
AcDbDimStyleTableRecord
  2
EZ_M_1_H25_CM
 70
0
 40
1.0
 41
0.0025
 42
0.00125
 43
3.75
 44
0.00375
 45
0.0
 46
0.0
 47
0.0
 48
0.0
 49
2.5
140
0.0025
141
2.5
142
0.00125
143
0.03937007874
144
100.0
145
0.0
146
0.5
147
0.001
148
0.0
 69
0
 70
0
 71
0
 72
0
 73
0
 74
0
 75
0
 76
0
 77
1
 78
12
 79
3
170
0
171
3
172
1
173
0
174
0
175
0
176
0
177
0
178
0
179
2
271
2
272
2
273
2
274
3
275
0
276
0
277
2
278
46
279
2
280
0
281
0
282
0
283
0
284
8
285
0
286
0
288
1
289
3
290
0
340
4C
371
-2
372
-2
  0
DIMSTYLE
105
83
330
4
100
AcDbSymbolTableRecord
100
AcDbDimStyleTableRecord
  2
EZ_RADIUS
 70
0
 40
1.0
 41
0.25
 42
0.125
 43
3.75
 44
0.375
 45
0.0
 46
0.0
 47
0.0
 48
0.0
 49
2.5
140
0.25
141
0.0
142
0.0
143
0.03937007874
144
100.0
145
0.0
146
0.5
147
0.1
148
0.0
 69
0
 70
0
 71
0
 72
0
 73
0
 74
0
 75
0
 76
0
 77
1
 78
12
 79
3
170
0
171
3
172
0
173
0
174
0
175
0
176
0
177
0
178
0
179
2
271
2
272
2
273
2
274
3
275
0
276
0
277
2
278
46
279
1
280
0
281
0
282
0
283
0
284
8
285
0
286
0
288
1
289
3
290
0
340
4C
342
84
371
-2
372
-2
  0
DIMSTYLE
105
88
330
4
100
AcDbSymbolTableRecord
100
AcDbDimStyleTableRecord
  2
EZ_RADIUS_INSIDE
 70
0
 40
1.0
 41
0.25
 42
0.125
 43
3.75
 44
0.375
 45
0.0
 46
0.0
 47
0.0
 48
0.0
 49
2.5
140
0.25
141
0.0
142
0.0
143
0.03937007874
144
100.0
145
0.0
146
0.5
147
0.1
148
0.0
 69
0
 70
0
 71
0
 72
0
 73
0
 74
0
 75
0
 76
0
 77
0
 78
12
 79
3
170
0
171
3
172
0
173
0
174
1
175
0
176
0
177
0
178
0
179
2
271
2
272
2
273
2
274
3
275
0
276
0
277
2
278
46
279
0
280
0
281
0
282
0
283
0
284
8
285
0
286
0
288
1
289
0
290
0
340
4C
342
84
371
-2
372
-2
  0
DIMSTYLE
105
89
330
4
100
AcDbSymbolTableRecord
100
AcDbDimStyleTableRecord
  2
EZ_CURVED
 70
0
 40
1.0
 41
0.25
 42
0.125
 43
3.75
 44
0.375
 45
0.0
 46
0.0
 47
0.0
 48
0.0
 49
2.5
140
0.25
141
2.5
142
0.0
143
0.03937007874
144
100.0
145
0.0
146
0.5
147
0.1
148
0.0
 69
0
 70
0
 71
0
 72
0
 73
0
 74
0
 75
0
 76
0
 77
1
 78
12
 79
2
 90
2
170
0
171
3
172
1
173
0
174
0
175
0
176
0
177
0
178
0
179
2
271
2
272
2
273
2
274
3
275
0
276
0
277
2
278
46
279
2
280
0
281
0
282
0
283
0
284
8
285
0
286
0
288
1
289
3
290
0
340
4C
371
-2
372
-2
  0
ENDTAB
  0
TABLE
  2
BLOCK_RECORD
  5
9
330
0
100
AcDbSymbolTable
 70
5
  0
BLOCK_RECORD
  5
17
330
9
100
AcDbSymbolTableRecord
100
AcDbBlockTableRecord
  2
*Model_Space
340
1A
 70
0
280
1
281
0
  0
BLOCK_RECORD
  5
1B
330
9
100
AcDbSymbolTableRecord
100
AcDbBlockTableRecord
  2
*Paper_Space
340
1E
 70
0
280
1
281
0
  0
BLOCK_RECORD
  5
74
330
9
100
AcDbSymbolTableRecord
100
AcDbBlockTableRecord
  2
_ARCHTICK
340
0
 70
0
280
1
281
0
  0
BLOCK_RECORD
  5
78
330
9
100
AcDbSymbolTableRecord
100
AcDbBlockTableRecord
  2
_CLOSEDFILLED
340
0
 70
0
280
1
281
0
  0
BLOCK_RECORD
  5
84
330
9
100
AcDbSymbolTableRecord
100
AcDbBlockTableRecord
  2
_CLOSEDBLANK
340
0
 70
0
280
1
281
0
  0
ENDTAB
  0
ENDSEC
  0
SECTION
  2
BLOCKS
  0
BLOCK
  5
18
330
17
100
AcDbEntity
  8
0
100
AcDbBlockBegin
  2
*Model_Space
 70
0
 10
0.0
 20
0.0
 30
0.0
  3
*Model_Space
  1

  0
ENDBLK
  5
19
330
17
100
AcDbEntity
  8
0
100
AcDbBlockEnd
  0
BLOCK
  5
1C
330
1B
100
AcDbEntity
  8
0
100
AcDbBlockBegin
  2
*Paper_Space
 70
0
 10
0.0
 20
0.0
 30
0.0
  3
*Paper_Space
  1

  0
ENDBLK
  5
1D
330
1B
100
AcDbEntity
  8
0
100
AcDbBlockEnd
  0
BLOCK
  5
75
330
74
100
AcDbEntity
  8
0
100
AcDbBlockBegin
  2
_ARCHTICK
 70
0
 10
0.0
 20
0.0
 30
0.0
  3
_ARCHTICK
  1

  0
LWPOLYLINE
  5
77
330
74
100
AcDbEntity
  8
0
  6
BYBLOCK
 62
0
100
AcDbPolyline
 90
2
 70
0
 43
0.15
 10
-0.5
 20
-0.5
 10
0.5
 20
0.5
  0
ENDBLK
  5
76
330
74
100
AcDbEntity
  8
0
100
AcDbBlockEnd
  0
BLOCK
  5
79
330
78
100
AcDbEntity
  8
0
100
AcDbBlockBegin
  2
_CLOSEDFILLED
 70
0
 10
0.0
 20
0.0
 30
0.0
  3
_CLOSEDFILLED
  1

  0
SOLID
  5
7B
330
78
100
AcDbEntity
  8
0
  6
BYBLOCK
 62
0
100
AcDbTrace
 10
-1.0
 20
0.16439898372402537
 30
0.0
 11
0.0
 21
0.0
 31
0.0
 12
-1.0
 22
-0.16439898372402537
 32
0.0
 13
-1.0
 23
-0.16439898372402537
 33
0.0
  0
ENDBLK
  5
7A
330
78
100
AcDbEntity
  8
0
100
AcDbBlockEnd
  0
BLOCK
  5
85
330
84
100
AcDbEntity
  8
0
100
AcDbBlockBegin
  2
_CLOSEDBLANK
 70
0
 10
0.0
 20
0.0
 30
0.0
  3
_CLOSEDBLANK
  1

  0
LWPOLYLINE
  5
87
330
84
100
AcDbEntity
  8
0
  6
BYBLOCK
 62
0
100
AcDbPolyline
 90
3
 70
1
 10
-1.0
 20
0.16439898372402537
 10
0.0
 20
0.0
 10
-1.0
 20
-0.16439898372402537
  0
ENDBLK
  5
86
330
84
100
AcDbEntity
  8
0
100
AcDbBlockEnd
  0
ENDSEC
  0
SECTION
  2
ENTITIES
  0
LWPOLYLINE
  5
8C
330
17
100
AcDbEntity
  8
Layer
100
AcDbPolyline
 90
162
 70
1
 10
381.00000000064813
 20
242.1233379878833
 10
374.1706353179775
 20
243.07127036254371
 10
366.74356988042666
 20
244.03945906134385
 10
359.3032108173175
 20
244.94787406171105
 10
351.85104629911183
 20
245.79818088708902
 10
344.3904784699357
 20
246.59015234282884
 10
336.9223622923192
 20
247.32277609116665
 10
329.4457128478973
 20
247.99619520842896
 10
321.9625277941763
 20
248.6119063626784
 10
314.4780743177198
 20
249.16986561221728
 10
306.9956652623254
 20
249.66845355275123
 10
299.5152852949057
 20
250.10670419083706
 10
292.0383072335696
 20
250.48556997937175
 10
284.5696291456035
 20
250.80489365625587
 10
277.113028382485
 20
251.06317889719512
 10
269.6683780204073
 20
251.25871207704176
 10
262.23615694918595
 20
251.39205934804673
 10
254.82093189177039
 20
251.4633978903836
 10
247.42666480351747
 20
251.47107420576663
 10
240.05396689925263
 20
251.41324517720406
 10
232.70303157310005
 20
251.2899714439477
 10
225.37852858785922
 20
251.1015891184001
 10
218.08532236347054
 20
250.84654808094632
 10
210.82415642675957
 20
250.52260738511927
 10
203.59619519067033
 20
250.1297670390496
 10
196.40663304895463
 20
249.66843266376753
 10
189.2612409099113
 20
249.1368514170287
 10
182.16116855041065
 20
248.53265106338208
 10
175.10882902465534
 20
247.85630161170877
 10
168.11141508084046
 20
247.10812120611135
 10
161.17445717001192
 20
246.285812325652
 10
154.29997580923356
 20
245.38775638186624
 10
147.4931703119377
 20
244.41513576379543
 10
140.76272359453804
 20
243.36778250261222
 10
134.11415442046118
 20
242.24396168018876
 10
127.55222602030446
 20
241.04491731309682
 10
121.09067055925101
 20
239.7755853704847
 10
114.7458753665712
 20
238.43673159112276
 10
108.52767423948282
 20
237.02751317148432
 10
102.44710437556725
 20
235.5530057917091
 10
96.52409577362724
 20
234.02045702852357
 10
90.77631367629493
 20
232.4323745863021
 10
85.21598798226279
 20
230.7936263674428
 10
79.8601358843913
 20
229.1160984712623
 10
74.72961246069065
 20
227.41034727543828
 10
69.83834510658926
 20
225.68284645027452
 10
65.19552974070237
 20
223.94499375159657
 10
60.81198899681797
 20
222.21131106895882
 10
56.69492629426287
 20
220.49120661688937
 10
52.842931521596654
 20
218.7913349052025
 10
49.25064265325261
 20
217.12137185581634
 10
45.91214964551298
 20
215.49004620466292
 10
42.818182080479914
 20
213.9004159180651
 10
39.95474774837572
 20
212.3525129483824
 10
37.305712039631544
 20
210.84787135492036
 10
34.85634317420312
 20
209.38909059566058
 10
32.59318532571308
 20
207.97582791142082
 10
30.502222570315666
 20
206.60488680770112
 10
28.569413191429362
 20
205.27301804830026
 10
26.78133742500711
 20
203.9781397472391
 10
25.12712521459173
 20
202.7195820877884
 10
23.597878385166894
 20
201.49498275518374
 10
22.18526435773174
 20
200.29993960747106
 10
20.878936435263938
 20
199.12836202889534
 10
19.66757844592621
 20
197.9780879539481
 10
18.540079243134926
 20
196.84975220378462
 10
17.488359088337063
 20
195.74826785911384
 10
16.50827816226922
 20
194.67748209512055
 10
15.600446174241881
 20
193.64053657128548
 10
14.766979743384638
 20
192.63369703347416
 10
14.009529320409342
 20
191.65104504886668
 10
13.327177965193187
 20
190.68420224016378
 10
12.715303280414275
 20
189.7248607129453
 10
12.167765276891146
 20
188.77069399241702
 10
11.678035289783338
 20
187.82295130191196
 10
11.241863950289314
 20
186.88784425472608
 10
10.857494891352417
 20
185.97026531195584
 10
10.525666092124595
 20
185.07446033280326
 10
10.248215669309502
 20
184.2008825680783
 10
10.026507593389113
 20
183.34665585642477
 10
9.86054669793873
 20
182.50867247761983
 10
9.748804414324184
 20
181.6843646505056
 10
9.685255175564748
 20
180.79399036531225
 10
9.676781357957509
 20
180.06220786155504
 10
9.716686188442225
 20
179.24740911265874
 10
9.812998484077127
 20
178.4371792328575
 10
9.972635744516538
 20
177.6350553088051
 10
10.204599709125205
 20
176.8396477836228
 10
10.516982686311337
 20
176.0481165187327
 10
10.913266021319373
 20
175.2599717290316
 10
11.39132431037865
 20
174.47782740764407
 10
11.94566936489656
 20
173.7067417398351
 10
12.572478583890131
 20
172.95149577008527
 10
13.271353923938761
 20
172.21575343754344
 10
14.04589024976525
 20
171.500944697304
 10
14.899789870853112
 20
170.80694761779037
 10
15.835441746505182
 20
170.132105079332
 10
16.851844218021483
 20
169.4744132062884
 10
17.948056428938685
 20
168.831700068889
 10
19.12307407620233
 20
168.20295665670355
 10
20.380357812223963
 20
167.58777468279172
 10
21.725061252100318
 20
166.98600848034158
 10
23.165718885131525
 20
166.3968898852273
 10
24.71074248141599
 20
165.81810470503322
 10
26.368485606898332
 20
165.24613353452042
 10
28.148068989650824
 20
164.67710745332653
 10
30.059012446412112
 20
164.10764828594915
 10
32.11416984719557
 20
163.53591483175592
 10
34.32938754442546
 20
162.96105781664247
 10
36.72397131753195
 20
162.38216335025663
 10
39.31863319793388
 20
161.79746930709274
 10
42.136073477560586
 20
161.20527526600233
 10
45.20035678821412
 20
160.60491768577464
 10
48.53862982814272
 20
159.9974958182899
 10
52.18015626688239
 20
159.38485664880918
 10
56.15302143315111
 20
158.7678251815222
 10
60.48068888295117
 20
158.1478138739677
 10
65.1809404878145
 20
157.5295090959504
 10
70.26555259945818
 20
156.9196327453434
 10
75.73692689987033
 20
156.32332400537524
 10
81.58221895464382
 20
155.74489055259232
 10
87.77725412337807
 20
155.19184785926495
 10
94.29428909496784
 20
154.6705260126289
 10
101.09864590136468
 20
154.1827446292101
 10
108.14994193389333
 20
153.73111995194424
 10
115.4154627679383
 20
153.31874366088303
 10
122.86730349344123
 20
152.94408504532356
 10
130.4770598128299
 20
152.6054006769912
 10
138.22861708107328
 20
152.30369423680958
 10
146.11879156267983
 20
152.03277747718676
 10
154.1245765729658
 20
151.77767085378758
 10
154.97017829048409
 20
151.75188450428567
 10
154.93969778396254
 20
150.7523491428691
 10
162.163067297753
 20
150.53207311385657
 10
170.25330380640978
 20
150.30661621896533
 10
178.37104463109165
 20
150.11477648186985
 10
186.54768186432665
 20
149.95516754376456
 10
194.79974085748515
 20
149.81424471333187
 10
203.11150693932342
 20
149.6775344507402
 10
211.4519749978399
 20
149.53770607321715
 10
219.79568280369426
 20
149.39800686698396
 10
228.12424808703886
 20
149.2705510137642
 10
236.45497274947644
 20
149.16526632493148
 10
244.81849490244738
 20
149.07954431801733
 10
253.22678683928964
 20
149.00197588159693
 10
261.6647215403362
 20
148.92391404935077
 10
270.11961171699073
 20
148.84535027282968
 10
278.58106021142805
 20
148.76830154112594
 10
287.0397053553836
 20
148.69173004883498
 10
295.48316656426437
 20
148.61589198659013
 10
303.905332887737
 20
148.54690698666616
 10
312.3168043183034
 20
148.49007520818907
 10
320.72911710312707
 20
148.44074146269196
 10
329.13711860019
 20
148.38664631056858
 10
337.5458268791656
 20
148.32259151213947
 10
345.95526022111505
 20
148.25592409946915
 10
354.36327859405037
 20
148.19789565140644
 10
362.7799977218709
 20
148.14907395146895
 10
371.20102940132716
 20
148.10191922668912
 10
379.6105552741824
 20
148.05331983891003
 10
380.99999998976966
 20
148.0463822541794
 10
381.00000000064813
 20
242.1233379878833
  0
LWPOLYLINE
  5
8D
330
17
100
AcDbEntity
  8
NumLabel
 62
1
100
AcDbPolyline
 90
6
 70
0
 10
222.75999999999974
 20
172.90000000000003
 10
217.75999999999974
 20
172.90000000000003
 10
217.75999999999974
 20
167.90000000000003
 10
222.75999999999974
 20
167.90000000000003
 10
222.75999999999974
 20
162.90000000000003
 10
217.75999999999974
 20
162.90000000000003
  0
LWPOLYLINE
  5
8E
330
17
100
AcDbEntity
  8
NumLabel
 62
1
100
AcDbPolyline
 90
4
 70
0
 10
227.25999999999974
 20
172.90000000000003
 10
225.25999999999974
 20
172.90000000000003
 10
225.25999999999974
 20
162.90000000000003
 10
227.25999999999974
 20
162.90000000000003
  0
LWPOLYLINE
  5
8F
330
17
100
AcDbEntity
  8
NumLabel
 62
1
100
AcDbPolyline
 90
4
 70
0
 10
228.25999999999974
 20
162.90000000000003
 10
230.25999999999974
 20
162.90000000000003
 10
230.25999999999974
 20
172.90000000000003
 10
228.25999999999974
 20
172.90000000000003
  0
LWPOLYLINE
  5
90
330
17
100
AcDbEntity
  8
Layer
100
AcDbPolyline
 90
5
 70
1
 10
215.7683097202157
 20
246.7391767738353
 10
211.77228612152493
 20
246.56086413068743
 10
211.59397347837705
 20
250.55688772937822
 10
215.58999707706784
 20
250.7352003725261
 10
215.7683097202157
 20
246.7391767738353
  0
LWPOLYLINE
  5
91
330
17
100
AcDbEntity
  8
Layer
100
AcDbPolyline
 90
5
 70
1
 10
89.33756251406132
 20
227.83813519253823
 10
85.50077035081759
 20
226.70719492175846
 10
84.36983008003781
 20
230.5439870850022
 10
88.20662224328154
 20
231.67492735578196
 10
89.33756251406132
 20
227.83813519253823
  0
LWPOLYLINE
  5
92
330
17
100
AcDbEntity
  8
Layer
100
AcDbPolyline
 90
5
 70
1
 10
25.71527675597382
 20
196.7496639133925
 10
24.226818508641767
 20
195.41381510235544
 10
20.887196481049056
 20
199.13496072068557
 10
22.37565472838111
 20
200.47080953172264
 10
25.71527675597382
 20
196.7496639133925
  0
LWPOLYLINE
  5
93
330
17
100
AcDbEntity
  8
Layer
100
AcDbPolyline
 90
5
 70
1
 10
17.839991281729798
 20
174.8511961395816
 10
19.464000345472147
 20
173.68389388185966
 10
16.545744701167333
 20
169.6238712225038
 10
14.921735637424986
 20
170.79117348022572
 10
17.839991281729798
 20
174.8511961395816
  0
LWPOLYLINE
  5
94
330
17
100
AcDbEntity
  8
Layer
100
AcDbPolyline
 90
5
 70
1
 10
116.11925010623199
 20
157.2884132263282
 10
120.11420472111021
 20
157.08757093729753
 10
119.91336243207954
 20
153.0926163224193
 10
115.91840781720131
 20
153.29345861144998
 10
116.11925010623199
 20
157.2884132263282
  0
LWPOLYLINE
  5
95
330
17
100
AcDbEntity
  8
Layer
100
AcDbPolyline
 90
300
 70
1
 10
329.29531190926235
 20
200.0
 10
329.2870687979088
 20
200.83317520592075
 10
329.2623431037739
 20
201.66598250512538
 10
329.2211457450282
 20
202.4980541533551
 10
329.1634949132656
 20
203.3290227311938
 10
329.08941606547035
 20
204.15852130631018
 10
328.9989419127764
 20
204.98618359548485
 10
328.8921124060225
 20
205.8116441263506
 10
328.7689747181115
 20
206.63453839877457
 10
328.6295832231799
 20
207.45450304581152
 10
328.4739994725879
 20
208.27117599415627
 10
328.3022921677398
 20
209.0841966240251
 10
328.1145371297477
 20
209.89320592839536
 10
327.91081726595087
 20
210.69784667153274
 10
327.69122253330625
 20
211.49776354673665
 10
327.45584989866586
 20
212.2926033332336
 10
327.2048032959592
 20
213.08201505214944
 10
326.93819358029873
 20
213.86565012149205
 10
326.65613847902955
 20
214.643162510075
 10
326.3587625397442
 20
215.41420889031534
 10
326.04619707528593
 20
216.17844878983738
 10
325.7185801057649
 20
216.9355447418158
 10
325.37605629761197
 20
217.68516243399122
 10
325.01877689969837
 20
218.42697085629348
 10
324.64689967654846
 20
219.16064244700598
 10
324.2605888386751
 20
219.88585323740799
 10
323.8600149700693
 20
220.60228299482998
 10
323.4453549528748
 20
221.3096153640594
 10
323.01679188928205
 20
222.00753800703419
 10
322.57451502067534
 20
222.69574274076257
 10
322.1187196440693
 20
223.37392567340785
 10
321.64960702587103
 20
224.04178733847863
 10
321.1673843130067
 20
224.69903282706468
 10
320.67226444145115
 20
225.34537191806044
 10
320.1644660422015
 20
225.98051920631852
 10
319.64421334473576
 20
226.60419422867656
 10
319.1117360779994
 20
227.21612158780187
 10
318.56726936896354
 20
227.81603107379908
 10
318.0110536387996
 20
228.40365778352736
 10
317.44333449671575
 20
228.978742237574
 10
316.86436263150335
 20
229.54103049483345
 10
316.27439370083937
 20
230.09027426464033
 10
315.6736882183951
 20
230.62623101640773
 10
315.06251143880127
 20
231.14866408672188
 10
314.44113324051824
 20
231.65734278384602
 10
313.80982800666595
 20
232.1520424895874
 10
313.16887450386366
 20
232.6325447584823
 10
312.5185557591347
 20
233.09863741425548
 10
311.85915893492944
 20
233.55011464351122
 10
311.1909752023227
 20
233.98677708661464
 10
310.51429961244065
 20
234.40843192572345
 10
309.82943096617464
 20
234.81489296993072
 10
309.13667168223895
 20
235.20598073748175
 10
308.4363276636314
 20
235.58152253502791
 10
307.72870816255517
 20
235.94135253388336
 10
307.01412564386163
 20
236.28531184325018
 10
306.2928956470747
 20
236.61324858038026
 10
305.56533664705745
 20
236.92501793764228
 10
304.8317699133828
 20
237.22048224646468
 10
304.0925193684694
 20
237.4995110381264
 10
303.3479114445474
 20
237.761981101368
 10
302.5982749395141
 20
238.00777653679842
 10
301.8439408717473
 20
238.23678880807273
 10
301.0852423339358
 20
238.44891678981898
 10
300.32251434599567
 20
238.644066812292
 10
299.5560937071348
 20
238.8221527027356
 10
298.78631884713155
 20
238.98309582343387
 10
298.0135296768941
 20
239.1268251064355
 10
297.2380674383652
 20
239.25327708493515
 10
296.4602745538392
 20
239.36239592129897
 10
295.6804944747581
 20
239.4541334317206
 10
294.89907153005316
 20
239.528449107498
 10
294.11635077409875
 20
239.58531013292077
 10
293.33267783434627
 20
239.62469139976082
 10
292.5483987587046
 20
239.64657551835933
 10
291.7638598627352
 20
239.65095282530555
 10
290.9794075767288
 20
239.63782138770404
 10
290.19538829273176
 20
239.60718700402794
 10
289.4121482115888
 20
239.55906320155864
 10
288.63003319007066
 20
239.49347123041264
 10
287.8493885881534
 20
239.41044005415787
 10
287.07055911651713
 20
239.3100063370244
 10
286.2938886843316
 20
239.1922144277143
 10
285.5197202473956
 20
239.0571163398188
 10
284.748395656697
 20
238.90477172885033
 10
283.98025550746155
 20
238.73524786590045
 10
283.21563898875496
 20
238.5486196079347
 10
282.45488373370716
 20
238.34496936473803
 10
281.69832567042255
 20
238.12438706252482
 10
280.946298873644
 20
237.88697010423013
 10
280.1991354172345
 20
237.63282332649914
 10
279.45716522754293
 20
237.36205895339438
 10
278.72071593771767
 20
237.0747965468407
 10
277.9901127430333
 20
236.77116295383007
 10
277.2656782572932
 20
236.4512922504095
 10
276.5477323703726
 20
236.1153256824769
 10
275.8365921069643
 20
235.76341160341084
 10
275.13257148658903
 20
235.39570540856184
 10
274.4359813849338
 20
235.0123694666342
 10
273.7471293965778
 20
234.61357304798852
 10
273.066319699167
 20
234.1994922498967
 10
272.39385291909826
 20
233.77030991878235
 10
271.73002599877094
 20
233.32621556948087
 10
271.07513206546554
 20
232.86740530155515
 10
270.42946030190694
 20
232.39408171270352
 10
269.7932958185697
 20
231.90645380929817
 10
269.1669195277807
 20
231.40473691409397
 10
268.5506080196768
 20
230.88915257114795
 10
267.9446334400702
 20
230.35992844799162
 10
267.3492633702763
 20
229.81729823509954
 10
266.7647607089575
 20
229.26150154269806
 10
266.1913835560348
 20
228.69278379496018
 10
265.6293850987175
 20
228.1113961216333
 10
265.0790134997036
 20
227.5175952471472
 10
264.54051178759755
 20
226.9116433772519
 10
264.014117749596
 20
226.29380808323486
 10
263.5000638264875
 20
225.66436218376919
 10
262.9985770100134
 20
225.02358362444448
 10
262.5098787426342
 20
224.37175535503383
 10
262.0341848197476
 20
223.70916520455128
 10
261.57170529439855
 20
223.03610575415468
 10
261.12264438452604
 20
222.35287420794987
 10
260.68720038278633
 20
221.65977226175391
 10
260.2655655689923
 20
220.95710596987465
 10
259.85792612520834
 20
220.24518560996572
 10
259.4644620535372
 20
219.52432554601666
 10
259.08534709663644
 20
218.79484408953869
 10
258.7207486609986
 20
218.0570633590072
 10
258.37082774302894
 20
217.31130913762348
 10
258.03573885795413
 20
216.5579107294578
 10
257.7156299715927
 20
215.79720081403823
 10
257.4106424350175
 20
215.02951529944852
 10
257.1209109221389
 20
214.25519317400074
 10
256.84656337023665
 20
213.47457635654735
 10
256.5877209234665
 20
212.6880095454997
 10
256.3444978793663
 20
211.89584006661883
 10
256.11700163838526
 20
211.0984177196461
 10
255.9053326564591
 20
210.29609462384158
 10
255.70958440065155
 20
209.4892250624981
 10
255.5298433078818
 20
208.67816532649957
 10
255.36618874675656
 20
207.86327355699322
 10
255.2186929825229
 20
207.04490958724426
 10
255.08742114515812
 20
206.22343478374387
 10
254.9724312006102
 20
205.39921188663982
 10
254.87377392520153
 20
204.57260484956066
 10
254.7914928832076
 20
203.743978678904
 10
254.72562440762027
 20
202.91369927266004
 10
254.6761975841041
 20
202.08213325884128
 10
254.6432342381529
 20
201.24964783358985
 10
254.6267489254523
 20
200.4166105990341
 10
254.6267489254523
 20
199.5833894009659
 10
254.6432342381529
 20
198.75035216641018
 10
254.6761975841041
 20
197.91786674115872
 10
254.72562440762027
 20
197.08630072733996
 10
254.7914928832076
 20
196.256021321096
 10
254.87377392520153
 20
195.42739515043937
 10
254.9724312006102
 20
194.60078811336018
 10
255.08742114515812
 20
193.77656521625613
 10
255.2186929825229
 20
192.95509041275577
 10
255.36618874675656
 20
192.1367264430068
 10
255.52984330788183
 20
191.32183467350043
 10
255.70958440065155
 20
190.5107749375019
 10
255.9053326564591
 20
189.70390537615842
 10
256.11700163838526
 20
188.9015822803539
 10
256.3444978793663
 20
188.10415993338117
 10
256.5877209234665
 20
187.3119904545003
 10
256.84656337023665
 20
186.52542364345265
 10
257.1209109221389
 20
185.7448068259993
 10
257.4106424350175
 20
184.97048470055145
 10
257.7156299715927
 20
184.20279918596177
 10
258.03573885795413
 20
183.4420892705422
 10
258.3708277430289
 20
182.68869086237655
 10
258.7207486609986
 20
181.9429366409928
 10
259.08534709663644
 20
181.20515591046134
 10
259.4644620535372
 20
180.47567445398334
 10
259.85792612520834
 20
179.75481439003428
 10
260.2655655689923
 20
179.04289403012532
 10
260.68720038278633
 20
178.34022773824609
 10
261.12264438452604
 20
177.64712579205013
 10
261.57170529439855
 20
176.96389424584535
 10
262.0341848197476
 20
176.29083479544872
 10
262.5098787426342
 20
175.6282446449662
 10
262.9985770100133
 20
174.97641637555554
 10
263.5000638264875
 20
174.3356378162308
 10
264.014117749596
 20
173.70619191676514
 10
264.5405117875975
 20
173.0883566227481
 10
265.0790134997036
 20
172.4824047528528
 10
265.6293850987175
 20
171.8886038783667
 10
266.1913835560348
 20
171.30721620503982
 10
266.7647607089575
 20
170.73849845730194
 10
267.3492633702763
 20
170.18270176490046
 10
267.9446334400702
 20
169.64007155200838
 10
268.5506080196768
 20
169.11084742885208
 10
269.1669195277807
 20
168.59526308590603
 10
269.7932958185697
 20
168.09354619070183
 10
270.42946030190694
 20
167.60591828729648
 10
271.07513206546554
 20
167.13259469844485
 10
271.73002599877094
 20
166.67378443051913
 10
272.39385291909826
 20
166.22969008121765
 10
273.066319699167
 20
165.8005077501033
 10
273.7471293965778
 20
165.38642695201148
 10
274.4359813849338
 20
164.9876305333658
 10
275.13257148658903
 20
164.60429459143816
 10
275.8365921069643
 20
164.23658839658916
 10
276.5477323703726
 20
163.88467431752312
 10
277.2656782572932
 20
163.5487077495905
 10
277.9901127430333
 20
163.22883704616996
 10
278.72071593771767
 20
162.9252034531593
 10
279.45716522754293
 20
162.63794104660562
 10
280.1991354172345
 20
162.36717667350086
 10
280.946298873644
 20
162.11302989576987
 10
281.69832567042255
 20
161.87561293747518
 10
282.45488373370716
 20
161.65503063526197
 10
283.21563898875496
 20
161.4513803920653
 10
283.98025550746155
 20
161.26475213409955
 10
284.748395656697
 20
161.09522827114967
 10
285.5197202473956
 20
160.9428836601812
 10
286.29388868433165
 20
160.8077855722857
 10
287.07055911651713
 20
160.6899936629756
 10
287.8493885881533
 20
160.58955994584213
 10
288.6300331900706
 20
160.50652876958736
 10
289.41214821158877
 20
160.44093679844136
 10
290.19538829273176
 20
160.39281299597206
 10
290.9794075767288
 20
160.36217861229596
 10
291.76385986273516
 20
160.34904717469445
 10
292.5483987587046
 20
160.35342448164067
 10
293.33267783434627
 20
160.37530860023918
 10
294.11635077409875
 20
160.41468986707923
 10
294.89907153005316
 20
160.471550892502
 10
295.6804944747581
 20
160.5458665682794
 10
296.4602745538392
 20
160.63760407870103
 10
297.23806743836525
 20
160.74672291506485
 10
298.0135296768941
 20
160.8731748935645
 10
298.78631884713155
 20
161.01690417656613
 10
299.5560937071347
 20
161.1778472972644
 10
300.32251434599567
 20
161.355933187708
 10
301.08524233393575
 20
161.55108321018102
 10
301.8439408717473
 20
161.76321119192724
 10
302.5982749395141
 20
161.99222346320158
 10
303.3479114445473
 20
162.238018898632
 10
304.0925193684694
 20
162.5004889618736
 10
304.8317699133828
 20
162.77951775353532
 10
305.56533664705745
 20
163.07498206235772
 10
306.2928956470747
 20
163.38675141961974
 10
307.01412564386163
 20
163.71468815674982
 10
307.7287081625552
 20
164.05864746611667
 10
308.4363276636314
 20
164.41847746497209
 10
309.13667168223895
 20
164.79401926251825
 10
309.82943096617464
 20
165.18510703006928
 10
310.51429961244065
 20
165.59156807427655
 10
311.19097520232265
 20
166.01322291338533
 10
311.8591589349294
 20
166.44988535648878
 10
312.5185557591347
 20
166.9013625857445
 10
313.16887450386366
 20
167.3674552415177
 10
313.80982800666595
 20
167.84795751041258
 10
314.44113324051824
 20
168.34265721615395
 10
315.06251143880127
 20
168.8513359132781
 10
315.6736882183951
 20
169.37376898359227
 10
316.27439370083937
 20
169.90972573535967
 10
316.86436263150335
 20
170.45896950516655
 10
317.44333449671575
 20
171.021257762426
 10
318.0110536387996
 20
171.59634221647264
 10
318.56726936896354
 20
172.18396892620092
 10
319.1117360779994
 20
172.78387841219813
 10
319.64421334473576
 20
173.3958057713234
 10
320.1644660422015
 20
174.01948079368145
 10
320.67226444145115
 20
174.65462808193956
 10
321.16738431300666
 20
175.30096717293532
 10
321.64960702587103
 20
175.95821266152137
 10
322.1187196440693
 20
176.62607432659215
 10
322.57451502067534
 20
177.30425725923743
 10
323.01679188928205
 20
177.99246199296581
 10
323.4453549528748
 20
178.6903846359406
 10
323.8600149700693
 20
179.39771700517002
 10
324.2605888386751
 20
180.11414676259201
 10
324.64689967654846
 20
180.83935755299402
 10
325.01877689969837
 20
181.57302914370652
 10
325.37605629761197
 20
182.31483756600878
 10
325.7185801057649
 20
183.06445525818424
 10
326.04619707528593
 20
183.8215512101626
 10
326.3587625397442
 20
184.58579110968466
 10
326.65613847902955
 20
185.356837489925
 10
326.93819358029873
 20
186.13434987850792
 10
327.2048032959592
 20
186.91798494785053
 10
327.45584989866586
 20
187.7073966667664
 10
327.69122253330625
 20
188.50223645326335
 10
327.91081726595087
 20
189.30215332846726
 10
328.1145371297477
 20
190.10679407160464
 10
328.3022921677398
 20
190.9158033759749
 10
328.4739994725879
 20
191.72882400584373
 10
328.6295832231799
 20
192.54549695418848
 10
328.7689747181115
 20
193.36546160122546
 10
328.8921124060225
 20
194.18835587364944
 10
328.9989419127764
 20
195.01381640451515
 10
329.08941606547035
 20
195.8414786936898
 10
329.1634949132656
 20
196.6709772688062
 10
329.2211457450282
 20
197.5019458466449
 10
329.2623431037739
 20
198.3340174948746
 10
329.2870687979088
 20
199.16682479407925
 10
329.29531190926235
 20
200.0
  0
LWPOLYLINE
  5
96
330
17
100
AcDbEntity
  8
Layer
100
AcDbPolyline
 90
5
 70
1
 10
132.76401112129147
 20
205.00000000000003
 10
137.76401112129147
 20
200.00000000000003
 10
132.76401112129147
 20
195.00000000000003
 10
127.76401112129147
 20
200.00000000000003
 10
132.76401112129147
 20
205.00000000000003
  0
LWPOLYLINE
  5
97
330
17
100
AcDbEntity
  8
Layer
100
AcDbPolyline
 90
5
 70
1
 10
289.3837875266925
 20
205.0
 10
294.3837875266925
 20
200.0
 10
289.3837875266925
 20
195.0
 10
284.3837875266925
 20
200.0
 10
289.3837875266925
 20
205.0
  0
LWPOLYLINE
  5
98
330
17
100
AcDbEntity
  8
Layer
100
AcDbPolyline
 90
5
 70
1
 10
161.5786039980129
 20
176.75272204213135
 10
166.24737458519144
 20
171.442111794307
 10
160.9367643373671
 20
166.77334120712848
 10
156.26799375018857
 20
172.08395145495282
 10
161.5786039980129
 20
176.75272204213135
  0
LWPOLYLINE
  5
99
330
17
100
AcDbEntity
  8
Layer
100
AcDbPolyline
 90
5
 70
1
 10
342.8721582378064
 20
165.09254038813518
 10
347.5409288249849
 20
159.78193014031083
 10
342.2303185771606
 20
155.1131595531323
 10
337.56154798998205
 20
160.42376980095665
 10
342.8721582378064
 20
165.09254038813518
  0
LWPOLYLINE
  5
9A
330
17
100
AcDbEntity
  8
Layer
100
AcDbPolyline
 90
5
 70
1
 10
136.95999999999964
 20
186.1080563514109
 10
141.95999999999964
 20
191.1080563514109
 10
146.95999999999964
 20
186.1080563514109
 10
141.95999999999964
 20
181.1080563514109
 10
136.95999999999964
 20
186.1080563514109
  0
LWPOLYLINE
  5
9B
330
17
100
AcDbEntity
  8
Layer
100
AcDbPolyline
 90
5
 70
1
 10
136.95999999999964
 20
209.62161299441118
 10
141.95999999999964
 20
214.62161299441118
 10
146.95999999999964
 20
209.62161299441118
 10
141.95999999999964
 20
204.62161299441118
 10
136.95999999999964
 20
209.62161299441118
  0
LINE
  5
9C
330
17
100
AcDbEntity
  8
Layer
 62
7
100
AcDbLine
 10
21.850826851024124
 20
200.00000000000003
 30
0.0
 11
380.9999999999995
 21
200.0
 31
0.0
  0
LINE
  5
9D
330
17
100
AcDbEntity
  8
Layer
 62
7
100
AcDbLine
 10
126.76401112129147
 20
200.00000000000003
 30
0.0
 11
138.76401112129147
 21
200.00000000000003
 31
0.0
  0
LINE
  5
9E
330
17
100
AcDbEntity
  8
Layer
 62
7
100
AcDbLine
 10
283.3837875266925
 20
200.0
 30
0.0
 11
295.3837875266925
 21
200.0
 31
0.0
  0
LINE
  5
9F
330
17
100
AcDbEntity
  8
Layer
 62
7
100
AcDbLine
 10
9.73624323310338
 20
181.5083727272466
 30
0.0
 11
380.9999999999995
 21
157.6299570626656
 31
0.0
  0
LINE
  5
A0
330
17
100
AcDbEntity
  8
Layer
 62
7
100
AcDbLine
 10
155.2700556666883
 20
172.1481354210174
 30
0.0
 11
167.24531266869172
 21
171.37792782824243
 31
0.0
  0
LINE
  5
A1
330
17
100
AcDbEntity
  8
Layer
 62
7
100
AcDbLine
 10
336.56360990648176
 20
160.48795376702122
 30
0.0
 11
348.5388669084852
 21
159.71774617424626
 31
0.0
  0
LINE
  5
A2
330
17
100
AcDbEntity
  8
Layer
100
AcDbLine
 10
291.95999999999964
 20
239.65149999999997
 30
0.0
 11
291.95999999999964
 21
240.65149999999997
 31
0.0
  0
LINE
  5
A3
330
17
100
AcDbEntity
  8
Layer
100
AcDbLine
 10
291.95999999999964
 20
160.34850000000003
 30
0.0
 11
291.95999999999964
 21
159.34850000000003
 31
0.0
  0
LINE
  5
A4
330
17
100
AcDbEntity
  8
Layer
100
AcDbLine
 10
329.29531190926235
 20
200.0
 30
0.0
 11
330.29531190926235
 21
200.0
 31
0.0
  0
LINE
  5
A5
330
17
100
AcDbEntity
  8
Layer
100
AcDbLine
 10
254.6246880907369
 20
200.0
 30
0.0
 11
253.6246880907369
 21
200.0
 31
0.0
  0
LINE
  5
A6
330
17
100
AcDbEntity
  8
Layer
 62
7
100
AcDbLine
 10
141.95999999999964
 20
152.1755736012439
 30
0.0
 11
141.95999999999964
 21
243.55409574457818
 31
0.0
  0
LINE
  5
A7
330
17
100
AcDbEntity
  8
Layer
 62
7
100
AcDbLine
 10
141.95999999999964
 20
180.1080563514109
 30
0.0
 11
141.95999999999964
 21
192.1080563514109
 31
0.0
  0
LINE
  5
A8
330
17
100
AcDbEntity
  8
Layer
 62
7
100
AcDbLine
 10
141.95999999999964
 20
203.62161299441118
 30
0.0
 11
141.95999999999964
 21
215.62161299441118
 31
0.0
  0
ENDSEC
  0
SECTION
  2
OBJECTS
  0
DICTIONARY
  5
A
330
0
100
AcDbDictionary
280
0
281
1
  3
ACAD_COLOR
350
B
  3
ACAD_GROUP
350
C
  3
ACAD_LAYOUT
350
D
  3
ACAD_MATERIAL
350
E
  3
ACAD_MLEADERSTYLE
350
F
  3
ACAD_MLINESTYLE
350
10
  3
ACAD_PLOTSETTINGS
350
11
  3
ACAD_PLOTSTYLENAME
350
12
  3
ACAD_SCALELIST
350
14
  3
ACAD_TABLESTYLE
350
15
  3
ACAD_VISUALSTYLE
350
16
  3
EZDXF_META
350
2D
  0
DICTIONARY
  5
B
330
A
100
AcDbDictionary
280
0
281
1
  0
DICTIONARY
  5
C
330
A
100
AcDbDictionary
280
0
281
1
  0
DICTIONARY
  5
D
330
A
100
AcDbDictionary
280
0
281
1
  3
Model
350
1A
  3
Layout1
350
1E
  0
DICTIONARY
  5
E
330
A
100
AcDbDictionary
280
0
281
1
  3
ByBlock
350
1F
  3
ByLayer
350
20
  3
Global
350
21
  0
DICTIONARY
  5
F
330
A
100
AcDbDictionary
280
0
281
1
  3
Standard
350
2C
  0
DICTIONARY
  5
10
330
A
100
AcDbDictionary
280
0
281
1
  3
Standard
350
22
  0
DICTIONARY
  5
11
330
A
100
AcDbDictionary
280
0
281
1
  0
ACDBDICTIONARYWDFLT
  5
12
330
A
100
AcDbDictionary
280
0
281
1
  3
Normal
350
13
100
AcDbDictionaryWithDefault
340
13
  0
ACDBPLACEHOLDER
  5
13
330
12
  0
DICTIONARY
  5
14
330
A
100
AcDbDictionary
280
0
281
1
  0
DICTIONARY
  5
15
330
A
100
AcDbDictionary
280
0
281
1
  0
DICTIONARY
  5
16
330
A
100
AcDbDictionary
280
0
281
1
  3
2dWireframe
350
5A
  3
Basic
350
5B
  3
Brighten
350
5C
  3
ColorChange
350
5D
  3
Conceptual
350
5E
  3
Dim
350
5F
  3
EdgeColorOff
350
60
  3
Facepattern
350
61
  3
Flat
350
62
  3
FlatWithEdges
350
63
  3
Gouraud
350
64
  3
GouraudWithEdges
350
65
  3
Hidden
350
66
  3
JitterOff
350
67
  3
Linepattern
350
68
  3
Modeling
350
69
  3
OverhangOff
350
6A
  3
Realistic
350
6B
  3
Shaded
350
6C
  3
Shaded with edges
350
6D
  3
Shades of Gray
350
6E
  3
Sketchy
350
6F
  3
Thicken
350
70
  3
Wireframe
350
71
  3
X-Ray
350
72
  0
LAYOUT
  5
1A
330
D
100
AcDbPlotSettings
  1

  2
Adobe PDF
  4
A3
  6

 40
7.5
 41
20.0
 42
7.5
 43
20.0
 44
420.0
 45
297.0
 46
0.0
 47
0.0
 48
0.0
 49
0.0
140
0.0
141
0.0
142
1.0
143
1.0
 70
1024
 72
1
 73
0
 74
5
  7

 75
16
 76
0
 77
2
 78
300
147
1.0
148
0.0
149
0.0
100
AcDbLayout
  1
Model
 70
1
 71
0
 10
0.0
 20
0.0
 11
420.0
 21
297.0
 12
0.0
 22
0.0
 32
0.0
 14
1e+20
 24
1e+20
 34
1e+20
 15
-1e+20
 25
-1e+20
 35
-1e+20
146
0.0
 13
0.0
 23
0.0
 33
0.0
 16
1.0
 26
0.0
 36
0.0
 17
0.0
 27
1.0
 37
0.0
 76
1
330
17
  0
LAYOUT
  5
1E
330
D
100
AcDbPlotSettings
  1

  2
Adobe PDF
  4
A3
  6

 40
7.5
 41
20.0
 42
7.5
 43
20.0
 44
420.0
 45
297.0
 46
0.0
 47
0.0
 48
0.0
 49
0.0
140
0.0
141
0.0
142
1.0
143
1.0
 70
0
 72
1
 73
0
 74
5
  7

 75
16
 76
0
 77
2
 78
300
147
1.0
148
0.0
149
0.0
100
AcDbLayout
  1
Layout1
 70
1
 71
1
 10
0.0
 20
0.0
 11
420.0
 21
297.0
 12
0.0
 22
0.0
 32
0.0
 14
1e+20
 24
1e+20
 34
1e+20
 15
-1e+20
 25
-1e+20
 35
-1e+20
146
0.0
 13
0.0
 23
0.0
 33
0.0
 16
1.0
 26
0.0
 36
0.0
 17
0.0
 27
1.0
 37
0.0
 76
1
330
1B
  0
MATERIAL
  5
1F
102
{ACAD_REACTORS
330
E
102
}
330
E
100
AcDbMaterial
  1
ByBlock
  2

 70
0
 40
1.0
 71
1
 41
1.0
 91
-1023410177
 42
1.0
 72
1
  3

 73
1
 74
1
 75
1
 44
0.5
 73
0
 45
1.0
 46
1.0
 77
1
  4

 78
1
 79
1
170
1
 48
1.0
171
1
  6

172
1
173
1
174
1
140
1.0
141
1.0
175
1
  7

176
1
177
1
178
1
143
1.0
179
1
  8

270
1
271
1
272
1
145
1.0
146
1.0
273
1
  9

274
1
275
1
276
1
 42
1.0
 72
1
  3

 73
1
 74
1
 75
1
 94
63
  0
MATERIAL
  5
20
102
{ACAD_REACTORS
330
E
102
}
330
E
100
AcDbMaterial
  1
ByLayer
  2

 70
0
 40
1.0
 71
1
 41
1.0
 91
-1023410177
 42
1.0
 72
1
  3

 73
1
 74
1
 75
1
 44
0.5
 73
0
 45
1.0
 46
1.0
 77
1
  4

 78
1
 79
1
170
1
 48
1.0
171
1
  6

172
1
173
1
174
1
140
1.0
141
1.0
175
1
  7

176
1
177
1
178
1
143
1.0
179
1
  8

270
1
271
1
272
1
145
1.0
146
1.0
273
1
  9

274
1
275
1
276
1
 42
1.0
 72
1
  3

 73
1
 74
1
 75
1
 94
63
  0
MATERIAL
  5
21
102
{ACAD_REACTORS
330
E
102
}
330
E
100
AcDbMaterial
  1
Global
  2

 70
0
 40
1.0
 71
1
 41
1.0
 91
-1023410177
 42
1.0
 72
1
  3

 73
1
 74
1
 75
1
 44
0.5
 73
0
 45
1.0
 46
1.0
 77
1
  4

 78
1
 79
1
170
1
 48
1.0
171
1
  6

172
1
173
1
174
1
140
1.0
141
1.0
175
1
  7

176
1
177
1
178
1
143
1.0
179
1
  8

270
1
271
1
272
1
145
1.0
146
1.0
273
1
  9

274
1
275
1
276
1
 42
1.0
 72
1
  3

 73
1
 74
1
 75
1
 94
63
  0
MLINESTYLE
  5
22
102
{ACAD_REACTORS
330
10
102
}
330
10
100
AcDbMlineStyle
  2
Standard
 70
0
  3

 62
256
 51
90.0
 52
90.0
 71
2
 49
0.5
 62
256
  6
BYLAYER
 49
-0.5
 62
256
  6
BYLAYER
  0
MLEADERSTYLE
  5
2C
102
{ACAD_REACTORS
330
F
102
}
330
F
100
AcDbMLeaderStyle
179
2
170
2
171
1
172
0
 90
2
 40
0.0
 41
0.0
173
1
 91
-1056964608
 92
-2
290
1
 42
2.0
291
1
 43
8.0
  3
Standard
 44
4.0
300

342
29
174
1
175
1
176
0
178
1
 93
-1056964608
 45
4.0
292
0
297
0
 46
4.0
 94
-1056964608
 47
1.0
 49
1.0
140
1.0
294
1
141
0.0
177
0
142
1.0
295
0
296
0
143
3.75
271
0
272
9
273
9
  0
DICTIONARY
  5
2D
330
A
100
AcDbDictionary
281
1
  3
CREATED_BY_EZDXF
350
2E
  3
WRITTEN_BY_EZDXF
350
AB
  0
DICTIONARYVAR
  5
2E
330
2D
100
DictionaryVariables
280
0
  1
1.3.0 @ 2026-01-06T17:07:18.819814+00:00
  0
VISUALSTYLE
  5
5A
102
{ACAD_REACTORS
330
16
102
}
330
16
100
AcDbVisualStyle
  2
2dWireframe
 70
4
 90
0
 40
0.6
 62
7
290
0
291
0
  0
VISUALSTYLE
  5
5B
102
{ACAD_REACTORS
330
16
102
}
330
16
100
AcDbVisualStyle
  2
Basic
 70
7
 90
1
 40
0.6
 62
7
290
0
291
1
  0
VISUALSTYLE
  5
5C
102
{ACAD_REACTORS
330
16
102
}
330
16
100
AcDbVisualStyle
  2
Brighten
 70
12
 90
2
 40
0.6
 62
7
290
0
291
1
  0
VISUALSTYLE
  5
5D
102
{ACAD_REACTORS
330
16
102
}
330
16
100
AcDbVisualStyle
  2
ColorChange
 70
16
 90
2
 40
0.6
 62
8
290
0
291
1
  0
VISUALSTYLE
  5
5E
102
{ACAD_REACTORS
330
16
102
}
330
16
100
AcDbVisualStyle
  2
Conceptual
 70
9
 90
3
 40
0.6
 62
7
290
0
291
0
  0
VISUALSTYLE
  5
5F
102
{ACAD_REACTORS
330
16
102
}
330
16
100
AcDbVisualStyle
  2
Dim
 70
11
 90
2
 40
0.6
 62
7
290
0
291
1
  0
VISUALSTYLE
  5
60
102
{ACAD_REACTORS
330
16
102
}
330
16
100
AcDbVisualStyle
  2
EdgeColorOff
 70
22
 90
2
 40
0.6
 62
7
290
0
291
1
  0
VISUALSTYLE
  5
61
102
{ACAD_REACTORS
330
16
102
}
330
16
100
AcDbVisualStyle
  2
Facepattern
 70
15
 90
2
 40
0.6
 62
7
290
0
291
1
  0
VISUALSTYLE
  5
62
102
{ACAD_REACTORS
330
16
102
}
330
16
100
AcDbVisualStyle
  2
Flat
 70
0
 90
2
 40
0.6
 62
7
290
0
291
1
  0
VISUALSTYLE
  5
63
102
{ACAD_REACTORS
330
16
102
}
330
16
100
AcDbVisualStyle
  2
FlatWithEdges
 70
1
 90
2
 40
0.6
 62
7
290
0
291
1
  0
VISUALSTYLE
  5
64
102
{ACAD_REACTORS
330
16
102
}
330
16
100
AcDbVisualStyle
  2
Gouraud
 70
2
 90
2
 40
0.6
 62
7
290
0
291
1
  0
VISUALSTYLE
  5
65
102
{ACAD_REACTORS
330
16
102
}
330
16
100
AcDbVisualStyle
  2
GouraudWithEdges
 70
3
 90
2
 40
0.6
 62
7
290
0
291
1
  0
VISUALSTYLE
  5
66
102
{ACAD_REACTORS
330
16
102
}
330
16
100
AcDbVisualStyle
  2
Hidden
 70
6
 90
1
 40
0.6
 62
7
290
0
291
0
  0
VISUALSTYLE
  5
67
102
{ACAD_REACTORS
330
16
102
}
330
16
100
AcDbVisualStyle
  2
JitterOff
 70
20
 90
2
 40
0.6
 62
7
290
0
291
1
  0
VISUALSTYLE
  5
68
102
{ACAD_REACTORS
330
16
102
}
330
16
100
AcDbVisualStyle
  2
Linepattern
 70
14
 90
2
 40
0.6
 62
7
290
0
291
1
  0
VISUALSTYLE
  5
69
102
{ACAD_REACTORS
330
16
102
}
330
16
100
AcDbVisualStyle
  2
Modeling
 70
10
 90
2
 40
0.6
 62
7
290
0
291
0
  0
VISUALSTYLE
  5
6A
102
{ACAD_REACTORS
330
16
102
}
330
16
100
AcDbVisualStyle
  2
OverhangOff
 70
21
 90
2
 40
0.6
 62
7
290
0
291
1
  0
VISUALSTYLE
  5
6B
102
{ACAD_REACTORS
330
16
102
}
330
16
100
AcDbVisualStyle
  2
Realistic
 70
8
 90
2
 40
0.6
 62
7
290
0
291
0
  0
VISUALSTYLE
  5
6C
102
{ACAD_REACTORS
330
16
102
}
330
16
100
AcDbVisualStyle
  2
Shaded
 70
27
 90
2
 40
0.6
 62
7
290
0
291
0
  0
VISUALSTYLE
  5
6D
102
{ACAD_REACTORS
330
16
102
}
330
16
100
AcDbVisualStyle
  2
Shaded with edges
 70
26
 90
2
 40
0.6
 62
7
290
0
291
0
  0
VISUALSTYLE
  5
6E
102
{ACAD_REACTORS
330
16
102
}
330
16
100
AcDbVisualStyle
  2
Shades of Gray
 70
23
 90
2
 40
0.6
 62
7
290
0
291
0
  0
VISUALSTYLE
  5
6F
102
{ACAD_REACTORS
330
16
102
}
330
16
100
AcDbVisualStyle
  2
Sketchy
 70
24
 90
1
 40
0.6
 62
7
290
0
291
0
  0
VISUALSTYLE
  5
70
102
{ACAD_REACTORS
330
16
102
}
330
16
100
AcDbVisualStyle
  2
Thicken
 70
13
 90
2
 40
0.6
 62
7
290
0
291
1
  0
VISUALSTYLE
  5
71
102
{ACAD_REACTORS
330
16
102
}
330
16
100
AcDbVisualStyle
  2
Wireframe
 70
5
 90
0
 40
0.6
 62
7
290
0
291
0
  0
VISUALSTYLE
  5
72
102
{ACAD_REACTORS
330
16
102
}
330
16
100
AcDbVisualStyle
  2
X-Ray
 70
25
 90
2
 40
0.5
 62
7
290
0
291
0
  0
DICTIONARYVAR
  5
AB
330
2D
100
DictionaryVariables
280
0
  1
1.3.0 @ 2026-01-06T17:07:18.901514+00:00
  0
ENDSEC
  0
EOF
