  0
SECTION
  2
HEADER
  9
$ACADVER
  1
AC1021
  9
$ACADMAINTVER
 70
25
  9
$DWGCODEPAGE
  3
ANSI_1252
  9
$LASTSAVEDBY
  1
ezdxf
  9
$INSBASE
 10
0.0
 20
0.0
 30
0.0
  9
$EXTMIN
 10
1e+20
 20
1e+20
 30
1e+20
  9
$EXTMAX
 10
-1e+20
 20
-1e+20
 30
-1e+20
  9
$LIMMIN
 10
0.0
 20
0.0
  9
$LIMMAX
 10
420.0
 20
297.0
  9
$ORTHOMODE
 70
0
  9
$REGENMODE
 70
1
  9
$FILLMODE
 70
1
  9
$QTEXTMODE
 70
0
  9
$MIRRTEXT
 70
1
  9
$LTSCALE
 40
1.0
  9
$ATTMODE
 70
1
  9
$TEXTSIZE
 40
2.5
  9
$TRACEWID
 40
1.0
  9
$TEXTSTYLE
  7
OpenSans
  9
$CLAYER
  8
0
  9
$CELTYPE
  6
ByLayer
  9
$CECOLOR
 62
256
  9
$CELTSCALE
 40
1.0
  9
$DISPSILH
 70
0
  9
$DIMSCALE
 40
1.0
  9
$DIMASZ
 40
0.175
  9
$DIMEXO
 40
0.125
  9
$DIMDLI
 40
3.75
  9
$DIMRND
 40
0.0
  9
$DIMDLE
 40
0.0
  9
$DIMEXE
 40
0.375
  9
$DIMTP
 40
0.0
  9
$DIMTM
 40
0.0
  9
$DIMTXT
 40
0.25
  9
$DIMCEN
 40
2.5
  9
$DIMTSZ
 40
0.0
  9
$DIMTOL
 70
0
  9
$DIMLIM
 70
0
  9
$DIMTIH
 70
0
  9
$DIMTOH
 70
0
  9
$DIMSE1
 70
0
  9
$DIMSE2
 70
0
  9
$DIMTAD
 70
1
  9
$DIMZIN
 70
12
  9
$DIMBLK
  1
ARCHTICK
  9
$DIMASO
 70
1
  9
$DIMSHO
 70
1
  9
$DIMPOST
  1

  9
$DIMAPOST
  1

  9
$DIMALT
 70
0
  9
$DIMALTD
 70
3
  9
$DIMALTF
 40
0.03937007874
  9
$DIMLFAC
 40
100.0
  9
$DIMTOFL
 70
1
  9
$DIMTVP
 40
0.0
  9
$DIMTIX
 70
0
  9
$DIMSOXD
 70
0
  9
$DIMSAH
 70
0
  9
$DIMBLK1
  1

  9
$DIMBLK2
  1

  9
$DIMSTYLE
  2
EZDXF
  9
$DIMCLRD
 70
0
  9
$DIMCLRE
 70
0
  9
$DIMCLRT
 70
0
  9
$DIMTFAC
 40
0.5
  9
$DIMGAP
 40
0.1
  9
$DIMJUST
 70
0
  9
$DIMSD1
 70
0
  9
$DIMSD2
 70
0
  9
$DIMTOLJ
 70
0
  9
$DIMTZIN
 70
8
  9
$DIMALTZ
 70
0
  9
$DIMALTTZ
 70
0
  9
$DIMUPT
 70
1
  9
$DIMDEC
 70
2
  9
$DIMTDEC
 70
2
  9
$DIMALTU
 70
2
  9
$DIMALTTD
 70
3
  9
$DIMTXSTY
  7
OpenSansCondensed-Light
  9
$DIMAUNIT
 70
0
  9
$DIMADEC
 70
2
  9
$DIMALTRND
 40
0.0
  9
$DIMAZIN
 70
3
  9
$DIMDSEP
 70
46
  9
$DIMATFIT
 70
3
  9
$DIMFRAC
 70
0
  9
$DIMLDRBLK
  1

  9
$DIMLUNIT
 70
2
  9
$DIMLWD
 70
-2
  9
$DIMLWE
 70
-2
  9
$DIMTMOVE
 70
2
  9
$DIMFXL
 40
1.0
  9
$DIMFXLON
 70
0
  9
$DIMJOGANG
 40
0.785398163397
  9
$DIMTFILL
 70
0
  9
$DIMTFILLCLR
 70
0
  9
$DIMARCSYM
 70
0
  9
$DIMLTYPE
  6

  9
$DIMLTEX1
  6

  9
$DIMLTEX2
  6

  9
$LUNITS
 70
2
  9
$LUPREC
 70
4
  9
$SKETCHINC
 40
1.0
  9
$FILLETRAD
 40
10.0
  9
$AUNITS
 70
0
  9
$AUPREC
 70
2
  9
$MENU
  1
.
  9
$ELEVATION
 40
0.0
  9
$PELEVATION
 40
0.0
  9
$THICKNESS
 40
0.0
  9
$LIMCHECK
 70
0
  9
$CHAMFERA
 40
0.0
  9
$CHAMFERB
 40
0.0
  9
$CHAMFERC
 40
0.0
  9
$CHAMFERD
 40
0.0
  9
$SKPOLY
 70
0
  9
$TDCREATE
 40
2461048.0884722224
  9
$TDUCREATE
 40
2458532.153996898
  9
$TDUPDATE
 40
2461048.0884722224
  9
$TDUUPDATE
 40
2458532.1544311
  9
$TDINDWG
 40
0.0
  9
$TDUSRTIMER
 40
0.0
  9
$USRTIMER
 70
1
  9
$ANGBASE
 50
0.0
  9
$ANGDIR
 70
0
  9
$PDMODE
 70
0
  9
$PDSIZE
 40
0.0
  9
$PLINEWID
 40
0.0
  9
$SPLFRAME
 70
0
  9
$SPLINETYPE
 70
6
  9
$SPLINESEGS
 70
8
  9
$HANDSEED
  5
BC
  9
$SURFTAB1
 70
6
  9
$SURFTAB2
 70
6
  9
$SURFTYPE
 70
6
  9
$SURFU
 70
6
  9
$SURFV
 70
6
  9
$UCSBASE
  2

  9
$UCSNAME
  2

  9
$UCSORG
 10
0.0
 20
0.0
 30
0.0
  9
$UCSXDIR
 10
1.0
 20
0.0
 30
0.0
  9
$UCSYDIR
 10
0.0
 20
1.0
 30
0.0
  9
$UCSORTHOREF
  2

  9
$UCSORTHOVIEW
 70
0
  9
$UCSORGTOP
 10
0.0
 20
0.0
 30
0.0
  9
$UCSORGBOTTOM
 10
0.0
 20
0.0
 30
0.0
  9
$UCSORGLEFT
 10
0.0
 20
0.0
 30
0.0
  9
$UCSORGRIGHT
 10
0.0
 20
0.0
 30
0.0
  9
$UCSORGFRONT
 10
0.0
 20
0.0
 30
0.0
  9
$UCSORGBACK
 10
0.0
 20
0.0
 30
0.0
  9
$PUCSBASE
  2

  9
$PUCSNAME
  2

  9
$PUCSORG
 10
0.0
 20
0.0
 30
0.0
  9
$PUCSXDIR
 10
1.0
 20
0.0
 30
0.0
  9
$PUCSYDIR
 10
0.0
 20
1.0
 30
0.0
  9
$PUCSORTHOREF
  2

  9
$PUCSORTHOVIEW
 70
0
  9
$PUCSORGTOP
 10
0.0
 20
0.0
 30
0.0
  9
$PUCSORGBOTTOM
 10
0.0
 20
0.0
 30
0.0
  9
$PUCSORGLEFT
 10
0.0
 20
0.0
 30
0.0
  9
$PUCSORGRIGHT
 10
0.0
 20
0.0
 30
0.0
  9
$PUCSORGFRONT
 10
0.0
 20
0.0
 30
0.0
  9
$PUCSORGBACK
 10
0.0
 20
0.0
 30
0.0
  9
$USERI1
 70
0
  9
$USERI2
 70
0
  9
$USERI3
 70
0
  9
$USERI4
 70
0
  9
$USERI5
 70
0
  9
$USERR1
 40
0.0
  9
$USERR2
 40
0.0
  9
$USERR3
 40
0.0
  9
$USERR4
 40
0.0
  9
$USERR5
 40
0.0
  9
$WORLDVIEW
 70
1
  9
$SHADEDGE
 70
3
  9
$SHADEDIF
 70
70
  9
$TILEMODE
 70
1
  9
$MAXACTVP
 70
64
  9
$PINSBASE
 10
0.0
 20
0.0
 30
0.0
  9
$PLIMCHECK
 70
0
  9
$PEXTMIN
 10
1e+20
 20
1e+20
 30
1e+20
  9
$PEXTMAX
 10
-1e+20
 20
-1e+20
 30
-1e+20
  9
$PLIMMIN
 10
0.0
 20
0.0
  9
$PLIMMAX
 10
420.0
 20
297.0
  9
$UNITMODE
 70
0
  9
$VISRETAIN
 70
1
  9
$PLINEGEN
 70
0
  9
$PSLTSCALE
 70
1
  9
$TREEDEPTH
 70
3020
  9
$CMLSTYLE
  2
Standard
  9
$CMLJUST
 70
0
  9
$CMLSCALE
 40
20.0
  9
$PROXYGRAPHICS
 70
1
  9
$MEASUREMENT
 70
1
  9
$CELWEIGHT
370
-1
  9
$ENDCAPS
280
0
  9
$JOINSTYLE
280
0
  9
$LWDISPLAY
290
0
  9
$INSUNITS
 70
6
  9
$HYPERLINKBASE
  1

  9
$STYLESHEET
  1

  9
$XEDIT
290
1
  9
$CEPSNTYPE
380
0
  9
$PSTYLEMODE
290
1
  9
$FINGERPRINTGUID
  2
{B07027A8-DCAA-4CAB-95F1-FBDFBD36D790}
  9
$VERSIONGUID
  2
{4BD5280A-3FD3-41F3-B55F-E1A665868C71}
  9
$EXTNAMES
290
1
  9
$PSVPSCALE
 40
0.0
  9
$OLESTARTUP
290
0
  9
$SORTENTS
280
127
  9
$INDEXCTL
280
0
  9
$HIDETEXT
280
1
  9
$XCLIPFRAME
290
1
  9
$HALOGAP
280
0
  9
$OBSCOLOR
 70
257
  9
$OBSLTYPE
280
0
  9
$INTERSECTIONDISPLAY
280
0
  9
$INTERSECTIONCOLOR
 70
257
  9
$DIMASSOC
280
2
  9
$PROJECTNAME
  1

  9
$CAMERADISPLAY
290
0
  9
$LENSLENGTH
 40
50.0
  9
$CAMERAHEIGHT
 40
0.0
  9
$STEPSPERSEC
 40
24.0
  9
$STEPSIZE
 40
100.0
  9
$3DDWFPREC
 40
2.0
  9
$PSOLWIDTH
 40
0.005
  9
$PSOLHEIGHT
 40
0.08
  9
$LOFTANG1
 40
1.570796326795
  9
$LOFTANG2
 40
1.570796326795
  9
$LOFTMAG1
 40
0.0
  9
$LOFTMAG2
 40
0.0
  9
$LOFTPARAM
 70
7
  9
$LOFTNORMALS
280
1
  9
$LATITUDE
 40
37.795
  9
$LONGITUDE
 40
-122.394
  9
$NORTHDIRECTION
 40
0.0
  9
$TIMEZONE
 70
-8000
  9
$LIGHTGLYPHDISPLAY
280
1
  9
$TILEMODELIGHTSYNCH
280
1
  9
$CMATERIAL
347
20
  9
$SOLIDHIST
280
0
  9
$SHOWHIST
280
1
  9
$DWFFRAME
280
2
  9
$DGNFRAME
280
2
  9
$REALWORLDSCALE
290
1
  9
$INTERFERECOLOR
 62
256
  9
$CSHADOW
280
0
  9
$SHADOWPLANELOCATION
 40
0.0
  0
ENDSEC
  0
SECTION
  2
CLASSES
  0
CLASS
  1
ACDBDICTIONARYWDFLT
  2
AcDbDictionaryWithDefault
  3
ObjectDBX Classes
 90
0
 91
0
280
0
281
0
  0
CLASS
  1
SUN
  2
AcDbSun
  3
SCENEOE
 90
1153
 91
0
280
0
281
0
  0
CLASS
  1
VISUALSTYLE
  2
AcDbVisualStyle
  3
ObjectDBX Classes
 90
4095
 91
0
280
0
281
0
  0
CLASS
  1
MATERIAL
  2
AcDbMaterial
  3
ObjectDBX Classes
 90
1153
 91
0
280
0
281
0
  0
CLASS
  1
SCALE
  2
AcDbScale
  3
ObjectDBX Classes
 90
1153
 91
0
280
0
281
0
  0
CLASS
  1
TABLESTYLE
  2
AcDbTableStyle
  3
ObjectDBX Classes
 90
4095
 91
0
280
0
281
0
  0
CLASS
  1
MLEADERSTYLE
  2
AcDbMLeaderStyle
  3
ACDB_MLEADERSTYLE_CLASS
 90
4095
 91
0
280
0
281
0
  0
CLASS
  1
DICTIONARYVAR
  2
AcDbDictionaryVar
  3
ObjectDBX Classes
 90
0
 91
0
280
0
281
0
  0
CLASS
  1
CELLSTYLEMAP
  2
AcDbCellStyleMap
  3
ObjectDBX Classes
 90
1152
 91
0
280
0
281
0
  0
CLASS
  1
MENTALRAYRENDERSETTINGS
  2
AcDbMentalRayRenderSettings
  3
SCENEOE
 90
1024
 91
0
280
0
281
0
  0
CLASS
  1
ACDBDETAILVIEWSTYLE
  2
AcDbDetailViewStyle
  3
ObjectDBX Classes
 90
1025
 91
0
280
0
281
0
  0
CLASS
  1
ACDBSECTIONVIEWSTYLE
  2
AcDbSectionViewStyle
  3
ObjectDBX Classes
 90
1025
 91
0
280
0
281
0
  0
CLASS
  1
RASTERVARIABLES
  2
AcDbRasterVariables
  3
ISM
 90
0
 91
0
280
0
281
0
  0
CLASS
  1
ACDBPLACEHOLDER
  2
AcDbPlaceHolder
  3
ObjectDBX Classes
 90
0
 91
0
280
0
281
0
  0
CLASS
  1
LAYOUT
  2
AcDbLayout
  3
ObjectDBX Classes
 90
0
 91
0
280
0
281
0
  0
ENDSEC
  0
SECTION
  2
TABLES
  0
TABLE
  2
VPORT
  5
8
330
0
100
AcDbSymbolTable
 70
1
  0
VPORT
  5
23
330
8
100
AcDbSymbolTableRecord
100
AcDbViewportTableRecord
  2
*Active
 70
0
 10
0.0
 20
0.0
 11
1.0
 21
1.0
 12
0.0
 22
0.0
 13
0.0
 23
0.0
 14
0.5
 24
0.5
 15
0.5
 25
0.5
 16
0.0
 26
0.0
 36
1.0
 17
0.0
 27
0.0
 37
0.0
 40
1000.0
 41
1.34
 42
50.0
 43
0.0
 44
0.0
 50
0.0
 51
0.0
 71
0
 72
1000
 73
1
 74
3
 75
0
 76
0
 77
0
 78
0
281
0
 65
0
146
0.0
  0
ENDTAB
  0
TABLE
  2
LTYPE
  5
2
330
0
100
AcDbSymbolTable
 70
21
  0
LTYPE
  5
24
330
2
100
AcDbSymbolTableRecord
100
AcDbLinetypeTableRecord
  2
ByBlock
 70
0
  3

 72
65
 73
0
 40
0.0
  0
LTYPE
  5
25
330
2
100
AcDbSymbolTableRecord
100
AcDbLinetypeTableRecord
  2
ByLayer
 70
0
  3

 72
65
 73
0
 40
0.0
  0
LTYPE
  5
26
330
2
100
AcDbSymbolTableRecord
100
AcDbLinetypeTableRecord
  2
Continuous
 70
0
  3

 72
65
 73
0
 40
0.0
  0
LTYPE
  5
2F
330
2
100
AcDbSymbolTableRecord
100
AcDbLinetypeTableRecord
  2
CENTER
 70
0
  3
Center ____ _ ____ _ ____ _ ____ _ ____ _ ____
 72
65
 73
4
 40
5.08
 49
3.175
 74
0
 49
-0.635
 74
0
 49
0.635
 74
0
 49
-0.635
 74
0
  0
LTYPE
  5
30
330
2
100
AcDbSymbolTableRecord
100
AcDbLinetypeTableRecord
  2
CENTERX2
 70
0
  3
Center (2x) ________  __  ________  __  ________
 72
65
 73
4
 40
8.89
 49
6.35
 74
0
 49
-0.635
 74
0
 49
1.27
 74
0
 49
-0.635
 74
0
  0
LTYPE
  5
31
330
2
100
AcDbSymbolTableRecord
100
AcDbLinetypeTableRecord
  2
CENTER2
 70
0
  3
Center (.5x) ____ _ ____ _ ____ _ ____ _ ____
 72
65
 73
4
 40
2.54
 49
1.587
 74
0
 49
-0.318
 74
0
 49
0.318
 74
0
 49
-0.318
 74
0
  0
LTYPE
  5
32
330
2
100
AcDbSymbolTableRecord
100
AcDbLinetypeTableRecord
  2
DASHED
 70
0
  3
Dashed __ __ __ __ __ __ __ __ __ __ __ __ __ _
 72
65
 73
2
 40
1.524
 49
1.27
 74
0
 49
-0.254
 74
0
  0
LTYPE
  5
33
330
2
100
AcDbSymbolTableRecord
100
AcDbLinetypeTableRecord
  2
DASHEDX2
 70
0
  3
Dashed (2x) ____  ____  ____  ____  ____  ____
 72
65
 73
2
 40
3.048
 49
2.54
 74
0
 49
-0.508
 74
0
  0
LTYPE
  5
34
330
2
100
AcDbSymbolTableRecord
100
AcDbLinetypeTableRecord
  2
DASHED2
 70
0
  3
Dashed (.5x) _ _ _ _ _ _ _ _ _ _ _ _ _ _
 72
65
 73
2
 40
0.762
 49
0.635
 74
0
 49
-0.127
 74
0
  0
LTYPE
  5
35
330
2
100
AcDbSymbolTableRecord
100
AcDbLinetypeTableRecord
  2
PHANTOM
 70
0
  3
Phantom ______  __  __  ______  __  __  ______
 72
65
 73
6
 40
6.35
 49
3.175
 74
0
 49
-0.635
 74
0
 49
0.635
 74
0
 49
-0.635
 74
0
 49
0.635
 74
0
 49
-0.635
 74
0
  0
LTYPE
  5
36
330
2
100
AcDbSymbolTableRecord
100
AcDbLinetypeTableRecord
  2
PHANTOMX2
 70
0
  3
Phantom (2x)____________    ____    ____    ____________
 72
65
 73
6
 40
10.795
 49
6.35
 74
0
 49
-0.635
 74
0
 49
1.27
 74
0
 49
-0.635
 74
0
 49
1.27
 74
0
 49
-0.635
 74
0
  0
LTYPE
  5
37
330
2
100
AcDbSymbolTableRecord
100
AcDbLinetypeTableRecord
  2
PHANTOM2
 70
0
  3
Phantom (.5x) ___ _ _ ___ _ _ ___ _ _ ___ _ _ ___
 72
65
 73
6
 40
3.175
 49
1.587
 74
0
 49
-0.318
 74
0
 49
0.318
 74
0
 49
-0.318
 74
0
 49
0.318
 74
0
 49
-0.318
 74
0
  0
LTYPE
  5
38
330
2
100
AcDbSymbolTableRecord
100
AcDbLinetypeTableRecord
  2
DASHDOT
 70
0
  3
Dash dot __ . __ . __ . __ . __ . __ . __ . __
 72
65
 73
4
 40
3.556
 49
2.54
 74
0
 49
-0.508
 74
0
 49
0.0
 74
0
 49
-0.508
 74
0
  0
LTYPE
  5
39
330
2
100
AcDbSymbolTableRecord
100
AcDbLinetypeTableRecord
  2
DASHDOTX2
 70
0
  3
Dash dot (2x) ____  .  ____  .  ____  .  ____
 72
65
 73
4
 40
6.096
 49
5.08
 74
0
 49
-0.508
 74
0
 49
0.0
 74
0
 49
-0.508
 74
0
  0
LTYPE
  5
3A
330
2
100
AcDbSymbolTableRecord
100
AcDbLinetypeTableRecord
  2
DASHDOT2
 70
0
  3
Dash dot (.5x) _ . _ . _ . _ . _ . _ . _ . _
 72
65
 73
4
 40
1.778
 49
1.27
 74
0
 49
-0.254
 74
0
 49
0.0
 74
0
 49
-0.254
 74
0
  0
LTYPE
  5
3B
330
2
100
AcDbSymbolTableRecord
100
AcDbLinetypeTableRecord
  2
DOT
 70
0
  3
Dot .  .  .  .  .  .  .  .  .  .  .  .  .  .  .  .
 72
65
 73
2
 40
0.508
 49
0.0
 74
0
 49
-0.508
 74
0
  0
LTYPE
  5
3C
330
2
100
AcDbSymbolTableRecord
100
AcDbLinetypeTableRecord
  2
DOTX2
 70
0
  3
Dot (2x) .    .    .    .    .    .    .    . 
 72
65
 73
2
 40
1.016
 49
0.0
 74
0
 49
-1.016
 74
0
  0
LTYPE
  5
3D
330
2
100
AcDbSymbolTableRecord
100
AcDbLinetypeTableRecord
  2
DOT2
 70
0
  3
Dot (.5) . . . . . . . . . . . . . . . . . . . 
 72
65
 73
2
 40
0.254
 49
0.0
 74
0
 49
-0.254
 74
0
  0
LTYPE
  5
3E
330
2
100
AcDbSymbolTableRecord
100
AcDbLinetypeTableRecord
  2
DIVIDE
 70
0
  3
Divide __ . . __ . . __ . . __ . . __ . . __
 72
65
 73
6
 40
4.064
 49
2.54
 74
0
 49
-0.508
 74
0
 49
0.0
 74
0
 49
-0.508
 74
0
 49
0.0
 74
0
 49
-0.508
 74
0
  0
LTYPE
  5
3F
330
2
100
AcDbSymbolTableRecord
100
AcDbLinetypeTableRecord
  2
DIVIDEX2
 70
0
  3
Divide (2x) ____  . .  ____  . .  ____  . .  ____
 72
65
 73
6
 40
6.604
 49
5.08
 74
0
 49
-0.508
 74
0
 49
0.0
 74
0
 49
-0.508
 74
0
 49
0.0
 74
0
 49
-0.508
 74
0
  0
LTYPE
  5
40
330
2
100
AcDbSymbolTableRecord
100
AcDbLinetypeTableRecord
  2
DIVIDE2
 70
0
  3
Divide(.5x) _ . _ . _ . _ . _ . _ . _ . _
 72
65
 73
6
 40
2.032
 49
1.27
 74
0
 49
-0.254
 74
0
 49
0.0
 74
0
 49
-0.254
 74
0
 49
0.0
 74
0
 49
-0.254
 74
0
  0
ENDTAB
  0
TABLE
  2
LAYER
  5
1
330
0
100
AcDbSymbolTable
 70
4
  0
LAYER
  5
27
330
1
100
AcDbSymbolTableRecord
100
AcDbLayerTableRecord
  2
0
 70
0
 62
7
  6
Continuous
370
-3
390
13
347
21
  0
LAYER
  5
28
330
1
100
AcDbSymbolTableRecord
100
AcDbLayerTableRecord
  2
Defpoints
 70
0
 62
7
  6
Continuous
290
0
370
-3
390
13
347
21
  0
LAYER
  5
8A
330
1
100
AcDbSymbolTableRecord
100
AcDbLayerTableRecord
  2
Layer
 70
0
 62
1
  6
Continuous
370
50
390
13
347
21
  0
LAYER
  5
8B
330
1
100
AcDbSymbolTableRecord
100
AcDbLayerTableRecord
  2
NumLabel
 70
0
 62
1
  6
Continuous
370
15
390
13
347
21
  0
ENDTAB
  0
TABLE
  2
STYLE
  5
5
330
0
100
AcDbSymbolTable
 70
26
  0
STYLE
  5
29
330
5
100
AcDbSymbolTableRecord
100
AcDbTextStyleTableRecord
  2
Standard
 70
0
 40
0.0
 41
1.0
 50
0.0
 71
0
 42
2.5
  3
txt
  4

  0
STYLE
  5
41
330
5
100
AcDbSymbolTableRecord
100
AcDbTextStyleTableRecord
  2
OpenSans-Light
 70
0
 40
0.0
 41
1.0
 50
0.0
 71
0
 42
2.5
  3
OpenSans-Light.ttf
  4

  0
STYLE
  5
42
330
5
100
AcDbSymbolTableRecord
100
AcDbTextStyleTableRecord
  2
OpenSans-Light-Italic
 70
0
 40
0.0
 41
1.0
 50
0.0
 71
0
 42
2.5
  3
OpenSans-LightItalic.ttf
  4

  0
STYLE
  5
43
330
5
100
AcDbSymbolTableRecord
100
AcDbTextStyleTableRecord
  2
OpenSans
 70
0
 40
0.0
 41
1.0
 50
0.0
 71
0
 42
2.5
  3
OpenSans-Regular.ttf
  4

  0
STYLE
  5
44
330
5
100
AcDbSymbolTableRecord
100
AcDbTextStyleTableRecord
  2
OpenSans-Italic
 70
0
 40
0.0
 41
1.0
 50
0.0
 71
0
 42
2.5
  3
OpenSans-Italic.ttf
  4

  0
STYLE
  5
45
330
5
100
AcDbSymbolTableRecord
100
AcDbTextStyleTableRecord
  2
OpenSans-SemiBold
 70
0
 40
0.0
 41
1.0
 50
0.0
 71
0
 42
2.5
  3
OpenSans-SemiBold.ttf
  4

  0
STYLE
  5
46
330
5
100
AcDbSymbolTableRecord
100
AcDbTextStyleTableRecord
  2
OpenSans-SemiBoldItalic
 70
0
 40
0.0
 41
1.0
 50
0.0
 71
0
 42
2.5
  3
OpenSans-SemiBoldItalic.ttf
  4

  0
STYLE
  5
47
330
5
100
AcDbSymbolTableRecord
100
AcDbTextStyleTableRecord
  2
OpenSans-Bold
 70
0
 40
0.0
 41
1.0
 50
0.0
 71
0
 42
2.5
  3
OpenSans-Bold.ttf
  4

  0
STYLE
  5
48
330
5
100
AcDbSymbolTableRecord
100
AcDbTextStyleTableRecord
  2
OpenSans-BoldItalic
 70
0
 40
0.0
 41
1.0
 50
0.0
 71
0
 42
2.5
  3
OpenSans-BoldItalic.ttf
  4

  0
STYLE
  5
49
330
5
100
AcDbSymbolTableRecord
100
AcDbTextStyleTableRecord
  2
OpenSans-ExtraBold
 70
0
 40
0.0
 41
1.0
 50
0.0
 71
0
 42
2.5
  3
OpenSans-ExtraBold.ttf
  4

  0
STYLE
  5
4A
330
5
100
AcDbSymbolTableRecord
100
AcDbTextStyleTableRecord
  2
OpenSans-ExtraBoldItalic
 70
0
 40
0.0
 41
1.0
 50
0.0
 71
0
 42
2.5
  3
OpenSans-ExtraBoldItalic.ttf
  4

  0
STYLE
  5
4B
330
5
100
AcDbSymbolTableRecord
100
AcDbTextStyleTableRecord
  2
OpenSansCondensed-Bold
 70
0
 40
0.0
 41
1.0
 50
0.0
 71
0
 42
2.5
  3
OpenSansCondensed-Bold.ttf
  4

  0
STYLE
  5
4C
330
5
100
AcDbSymbolTableRecord
100
AcDbTextStyleTableRecord
  2
OpenSansCondensed-Light
 70
0
 40
0.0
 41
1.0
 50
0.0
 71
0
 42
2.5
  3
OpenSansCondensed-Light.ttf
  4

  0
STYLE
  5
4D
330
5
100
AcDbSymbolTableRecord
100
AcDbTextStyleTableRecord
  2
OpenSansCondensed-Italic
 70
0
 40
0.0
 41
1.0
 50
0.0
 71
0
 42
2.5
  3
OpenSansCondensed-LightItalic.ttf
  4

  0
STYLE
  5
4E
330
5
100
AcDbSymbolTableRecord
100
AcDbTextStyleTableRecord
  2
LiberationSans
 70
0
 40
0.0
 41
1.0
 50
0.0
 71
0
 42
2.5
  3
LiberationSans-Regular.ttf
  4

  0
STYLE
  5
4F
330
5
100
AcDbSymbolTableRecord
100
AcDbTextStyleTableRecord
  2
LiberationSans-Bold
 70
0
 40
0.0
 41
1.0
 50
0.0
 71
0
 42
2.5
  3
LiberationSans-Bold.ttf
  4

  0
STYLE
  5
50
330
5
100
AcDbSymbolTableRecord
100
AcDbTextStyleTableRecord
  2
LiberationSans-BoldItalic
 70
0
 40
0.0
 41
1.0
 50
0.0
 71
0
 42
2.5
  3
LiberationSans-BoldItalic.ttf
  4

  0
STYLE
  5
51
330
5
100
AcDbSymbolTableRecord
100
AcDbTextStyleTableRecord
  2
LiberationSans-Italic
 70
0
 40
0.0
 41
1.0
 50
0.0
 71
0
 42
2.5
  3
LiberationSans-Italic.ttf
  4

  0
STYLE
  5
52
330
5
100
AcDbSymbolTableRecord
100
AcDbTextStyleTableRecord
  2
LiberationSerif
 70
0
 40
0.0
 41
1.0
 50
0.0
 71
0
 42
2.5
  3
LiberationSerif-Regular.ttf
  4

  0
STYLE
  5
53
330
5
100
AcDbSymbolTableRecord
100
AcDbTextStyleTableRecord
  2
LiberationSerif-Bold
 70
0
 40
0.0
 41
1.0
 50
0.0
 71
0
 42
2.5
  3
LiberationSerif-Bold.ttf
  4

  0
STYLE
  5
54
330
5
100
AcDbSymbolTableRecord
100
AcDbTextStyleTableRecord
  2
LiberationSerif-BoldItalic
 70
0
 40
0.0
 41
1.0
 50
0.0
 71
0
 42
2.5
  3
LiberationSerif-BoldItalic.ttf
  4

  0
STYLE
  5
55
330
5
100
AcDbSymbolTableRecord
100
AcDbTextStyleTableRecord
  2
LiberationSerif-Italic
 70
0
 40
0.0
 41
1.0
 50
0.0
 71
0
 42
2.5
  3
LiberationSerif-Italic.ttf
  4

  0
STYLE
  5
56
330
5
100
AcDbSymbolTableRecord
100
AcDbTextStyleTableRecord
  2
LiberationMono
 70
0
 40
0.0
 41
1.0
 50
0.0
 71
0
 42
2.5
  3
LiberationMono-Regular.ttf
  4

  0
STYLE
  5
57
330
5
100
AcDbSymbolTableRecord
100
AcDbTextStyleTableRecord
  2
LiberationMono-Bold
 70
0
 40
0.0
 41
1.0
 50
0.0
 71
0
 42
2.5
  3
LiberationMono-Bold.ttf
  4

  0
STYLE
  5
58
330
5
100
AcDbSymbolTableRecord
100
AcDbTextStyleTableRecord
  2
LiberationMono-BoldItalic
 70
0
 40
0.0
 41
1.0
 50
0.0
 71
0
 42
2.5
  3
LiberationMono-BoldItalic.ttf
  4

  0
STYLE
  5
59
330
5
100
AcDbSymbolTableRecord
100
AcDbTextStyleTableRecord
  2
LiberationMono-Italic
 70
0
 40
0.0
 41
1.0
 50
0.0
 71
0
 42
2.5
  3
LiberationMono-Italic.ttf
  4

  0
ENDTAB
  0
TABLE
  2
VIEW
  5
7
330
0
100
AcDbSymbolTable
 70
0
  0
ENDTAB
  0
TABLE
  2
UCS
  5
6
330
0
100
AcDbSymbolTable
 70
0
  0
ENDTAB
  0
TABLE
  2
APPID
  5
3
330
0
100
AcDbSymbolTable
 70
3
  0
APPID
  5
2A
330
3
100
AcDbSymbolTableRecord
100
AcDbRegAppTableRecord
  2
ACAD
 70
0
  0
APPID
  5
B9
330
3
100
AcDbSymbolTableRecord
100
AcDbRegAppTableRecord
  2
HATCHBACKGROUNDCOLOR
 70
0
  0
APPID
  5
BA
330
3
100
AcDbSymbolTableRecord
100
AcDbRegAppTableRecord
  2
EZDXF
 70
0
  0
ENDTAB
  0
TABLE
  2
DIMSTYLE
  5
4
330
0
100
AcDbSymbolTable
 70
12
100
AcDbDimStyleTable
  0
DIMSTYLE
105
2B
330
4
100
AcDbSymbolTableRecord
100
AcDbDimStyleTableRecord
  2
Standard
 70
0
 40
1.0
 41
2.5
 42
0.625
 43
3.75
 44
1.25
 45
0.0
 46
0.0
 47
0.0
 48
0.0
 49
2.5
140
2.5
141
2.5
142
0.0
143
0.03937007874
144
1.0
145
0.0
146
1.0
147
0.625
148
0.0
 69
0
 70
0
 71
0
 72
0
 73
0
 74
0
 75
0
 76
0
 77
1
 78
8
 79
3
170
0
171
3
172
1
173
0
174
0
175
0
176
0
177
0
178
0
179
2
271
2
272
2
273
2
274
3
275
0
276
0
277
2
278
44
279
0
280
0
281
0
282
0
283
0
284
8
285
0
286
0
288
0
289
3
290
0
371
-2
372
-2
  0
DIMSTYLE
105
73
330
4
100
AcDbSymbolTableRecord
100
AcDbDimStyleTableRecord
  2
EZDXF
 70
0
 40
1.0
 41
0.175
 42
0.125
 43
3.75
 44
0.375
 45
0.0
 46
0.0
 47
0.0
 48
0.0
 49
2.5
140
0.25
141
2.5
142
0.0
143
0.03937007874
144
100.0
145
0.0
146
0.5
147
0.1
148
0.0
 69
0
 70
0
 71
0
 72
0
 73
0
 74
0
 75
0
 76
0
 77
1
 78
12
 79
3
170
0
171
3
172
1
173
0
174
0
175
0
176
0
177
0
178
0
179
2
271
2
272
2
273
2
274
3
275
0
276
0
277
2
278
46
279
2
280
0
281
0
282
0
283
0
284
8
285
0
286
0
288
1
289
3
290
0
340
4C
342
74
371
-2
372
-2
  0
DIMSTYLE
105
7C
330
4
100
AcDbSymbolTableRecord
100
AcDbDimStyleTableRecord
  2
EZ_M_100_H25_CM
 70
0
 40
1.0
 41
0.25
 42
0.125
 43
3.75
 44
0.375
 45
0.0
 46
0.0
 47
0.0
 48
0.0
 49
2.5
140
0.25
141
2.5
142
0.125
143
0.03937007874
144
100.0
145
0.0
146
0.5
147
0.1
148
0.0
 69
0
 70
0
 71
0
 72
0
 73
0
 74
0
 75
0
 76
0
 77
1
 78
12
 79
3
170
0
171
3
172
1
173
0
174
0
175
0
176
0
177
0
178
0
179
2
271
2
272
2
273
2
274
3
275
0
276
0
277
2
278
46
279
2
280
0
281
0
282
0
283
0
284
8
285
0
286
0
288
1
289
3
290
0
340
4C
371
-2
372
-2
  0
DIMSTYLE
105
7D
330
4
100
AcDbSymbolTableRecord
100
AcDbDimStyleTableRecord
  2
EZ_M_50_H25_CM
 70
0
 40
1.0
 41
0.125
 42
0.0625
 43
3.75
 44
0.1875
 45
0.0
 46
0.0
 47
0.0
 48
0.0
 49
2.5
140
0.125
141
2.5
142
0.0625
143
0.03937007874
144
100.0
145
0.0
146
0.5
147
0.05
148
0.0
 69
0
 70
0
 71
0
 72
0
 73
0
 74
0
 75
0
 76
0
 77
1
 78
12
 79
3
170
0
171
3
172
1
173
0
174
0
175
0
176
0
177
0
178
0
179
2
271
2
272
2
273
2
274
3
275
0
276
0
277
2
278
46
279
2
280
0
281
0
282
0
283
0
284
8
285
0
286
0
288
1
289
3
290
0
340
4C
371
-2
372
-2
  0
DIMSTYLE
105
7E
330
4
100
AcDbSymbolTableRecord
100
AcDbDimStyleTableRecord
  2
EZ_M_25_H25_CM
 70
0
 40
1.0
 41
0.0625
 42
0.03125
 43
3.75
 44
0.09375
 45
0.0
 46
0.0
 47
0.0
 48
0.0
 49
2.5
140
0.0625
141
2.5
142
0.03125
143
0.03937007874
144
100.0
145
0.0
146
0.5
147
0.025
148
0.0
 69
0
 70
0
 71
0
 72
0
 73
0
 74
0
 75
0
 76
0
 77
1
 78
12
 79
3
170
0
171
3
172
1
173
0
174
0
175
0
176
0
177
0
178
0
179
2
271
2
272
2
273
2
274
3
275
0
276
0
277
2
278
46
279
2
280
0
281
0
282
0
283
0
284
8
285
0
286
0
288
1
289
3
290
0
340
4C
371
-2
372
-2
  0
DIMSTYLE
105
7F
330
4
100
AcDbSymbolTableRecord
100
AcDbDimStyleTableRecord
  2
EZ_M_20_H25_CM
 70
0
 40
1.0
 41
0.05
 42
0.025
 43
3.75
 44
0.07500000000000001
 45
0.0
 46
0.0
 47
0.0
 48
0.0
 49
2.5
140
0.05
141
2.5
142
0.025
143
0.03937007874
144
100.0
145
0.0
146
0.5
147
0.020000000000000004
148
0.0
 69
0
 70
0
 71
0
 72
0
 73
0
 74
0
 75
0
 76
0
 77
1
 78
12
 79
3
170
0
171
3
172
1
173
0
174
0
175
0
176
0
177
0
178
0
179
2
271
2
272
2
273
2
274
3
275
0
276
0
277
2
278
46
279
2
280
0
281
0
282
0
283
0
284
8
285
0
286
0
288
1
289
3
290
0
340
4C
371
-2
372
-2
  0
DIMSTYLE
105
80
330
4
100
AcDbSymbolTableRecord
100
AcDbDimStyleTableRecord
  2
EZ_M_10_H25_CM
 70
0
 40
1.0
 41
0.025
 42
0.0125
 43
3.75
 44
0.037500000000000006
 45
0.0
 46
0.0
 47
0.0
 48
0.0
 49
2.5
140
0.025
141
2.5
142
0.0125
143
0.03937007874
144
100.0
145
0.0
146
0.5
147
0.010000000000000002
148
0.0
 69
0
 70
0
 71
0
 72
0
 73
0
 74
0
 75
0
 76
0
 77
1
 78
12
 79
3
170
0
171
3
172
1
173
0
174
0
175
0
176
0
177
0
178
0
179
2
271
2
272
2
273
2
274
3
275
0
276
0
277
2
278
46
279
2
280
0
281
0
282
0
283
0
284
8
285
0
286
0
288
1
289
3
290
0
340
4C
371
-2
372
-2
  0
DIMSTYLE
105
81
330
4
100
AcDbSymbolTableRecord
100
AcDbDimStyleTableRecord
  2
EZ_M_5_H25_CM
 70
0
 40
1.0
 41
0.0125
 42
0.00625
 43
3.75
 44
0.018750000000000003
 45
0.0
 46
0.0
 47
0.0
 48
0.0
 49
2.5
140
0.0125
141
2.5
142
0.00625
143
0.03937007874
144
100.0
145
0.0
146
0.5
147
0.005000000000000001
148
0.0
 69
0
 70
0
 71
0
 72
0
 73
0
 74
0
 75
0
 76
0
 77
1
 78
12
 79
3
170
0
171
3
172
1
173
0
174
0
175
0
176
0
177
0
178
0
179
2
271
2
272
2
273
2
274
3
275
0
276
0
277
2
278
46
279
2
280
0
281
0
282
0
283
0
284
8
285
0
286
0
288
1
289
3
290
0
340
4C
371
-2
372
-2
  0
DIMSTYLE
105
82
330
4
100
AcDbSymbolTableRecord
100
AcDbDimStyleTableRecord
  2
EZ_M_1_H25_CM
 70
0
 40
1.0
 41
0.0025
 42
0.00125
 43
3.75
 44
0.00375
 45
0.0
 46
0.0
 47
0.0
 48
0.0
 49
2.5
140
0.0025
141
2.5
142
0.00125
143
0.03937007874
144
100.0
145
0.0
146
0.5
147
0.001
148
0.0
 69
0
 70
0
 71
0
 72
0
 73
0
 74
0
 75
0
 76
0
 77
1
 78
12
 79
3
170
0
171
3
172
1
173
0
174
0
175
0
176
0
177
0
178
0
179
2
271
2
272
2
273
2
274
3
275
0
276
0
277
2
278
46
279
2
280
0
281
0
282
0
283
0
284
8
285
0
286
0
288
1
289
3
290
0
340
4C
371
-2
372
-2
  0
DIMSTYLE
105
83
330
4
100
AcDbSymbolTableRecord
100
AcDbDimStyleTableRecord
  2
EZ_RADIUS
 70
0
 40
1.0
 41
0.25
 42
0.125
 43
3.75
 44
0.375
 45
0.0
 46
0.0
 47
0.0
 48
0.0
 49
2.5
140
0.25
141
0.0
142
0.0
143
0.03937007874
144
100.0
145
0.0
146
0.5
147
0.1
148
0.0
 69
0
 70
0
 71
0
 72
0
 73
0
 74
0
 75
0
 76
0
 77
1
 78
12
 79
3
170
0
171
3
172
0
173
0
174
0
175
0
176
0
177
0
178
0
179
2
271
2
272
2
273
2
274
3
275
0
276
0
277
2
278
46
279
1
280
0
281
0
282
0
283
0
284
8
285
0
286
0
288
1
289
3
290
0
340
4C
342
84
371
-2
372
-2
  0
DIMSTYLE
105
88
330
4
100
AcDbSymbolTableRecord
100
AcDbDimStyleTableRecord
  2
EZ_RADIUS_INSIDE
 70
0
 40
1.0
 41
0.25
 42
0.125
 43
3.75
 44
0.375
 45
0.0
 46
0.0
 47
0.0
 48
0.0
 49
2.5
140
0.25
141
0.0
142
0.0
143
0.03937007874
144
100.0
145
0.0
146
0.5
147
0.1
148
0.0
 69
0
 70
0
 71
0
 72
0
 73
0
 74
0
 75
0
 76
0
 77
0
 78
12
 79
3
170
0
171
3
172
0
173
0
174
1
175
0
176
0
177
0
178
0
179
2
271
2
272
2
273
2
274
3
275
0
276
0
277
2
278
46
279
0
280
0
281
0
282
0
283
0
284
8
285
0
286
0
288
1
289
0
290
0
340
4C
342
84
371
-2
372
-2
  0
DIMSTYLE
105
89
330
4
100
AcDbSymbolTableRecord
100
AcDbDimStyleTableRecord
  2
EZ_CURVED
 70
0
 40
1.0
 41
0.25
 42
0.125
 43
3.75
 44
0.375
 45
0.0
 46
0.0
 47
0.0
 48
0.0
 49
2.5
140
0.25
141
2.5
142
0.0
143
0.03937007874
144
100.0
145
0.0
146
0.5
147
0.1
148
0.0
 69
0
 70
0
 71
0
 72
0
 73
0
 74
0
 75
0
 76
0
 77
1
 78
12
 79
2
 90
2
170
0
171
3
172
1
173
0
174
0
175
0
176
0
177
0
178
0
179
2
271
2
272
2
273
2
274
3
275
0
276
0
277
2
278
46
279
2
280
0
281
0
282
0
283
0
284
8
285
0
286
0
288
1
289
3
290
0
340
4C
371
-2
372
-2
  0
ENDTAB
  0
TABLE
  2
BLOCK_RECORD
  5
9
330
0
100
AcDbSymbolTable
 70
5
  0
BLOCK_RECORD
  5
17
330
9
100
AcDbSymbolTableRecord
100
AcDbBlockTableRecord
  2
*Model_Space
340
1A
 70
0
280
1
281
0
  0
BLOCK_RECORD
  5
1B
330
9
100
AcDbSymbolTableRecord
100
AcDbBlockTableRecord
  2
*Paper_Space
340
1E
 70
0
280
1
281
0
  0
BLOCK_RECORD
  5
74
330
9
100
AcDbSymbolTableRecord
100
AcDbBlockTableRecord
  2
_ARCHTICK
340
0
 70
0
280
1
281
0
  0
BLOCK_RECORD
  5
78
330
9
100
AcDbSymbolTableRecord
100
AcDbBlockTableRecord
  2
_CLOSEDFILLED
340
0
 70
0
280
1
281
0
  0
BLOCK_RECORD
  5
84
330
9
100
AcDbSymbolTableRecord
100
AcDbBlockTableRecord
  2
_CLOSEDBLANK
340
0
 70
0
280
1
281
0
  0
ENDTAB
  0
ENDSEC
  0
SECTION
  2
BLOCKS
  0
BLOCK
  5
18
330
17
100
AcDbEntity
  8
0
100
AcDbBlockBegin
  2
*Model_Space
 70
0
 10
0.0
 20
0.0
 30
0.0
  3
*Model_Space
  1

  0
ENDBLK
  5
19
330
17
100
AcDbEntity
  8
0
100
AcDbBlockEnd
  0
BLOCK
  5
1C
330
1B
100
AcDbEntity
  8
0
100
AcDbBlockBegin
  2
*Paper_Space
 70
0
 10
0.0
 20
0.0
 30
0.0
  3
*Paper_Space
  1

  0
ENDBLK
  5
1D
330
1B
100
AcDbEntity
  8
0
100
AcDbBlockEnd
  0
BLOCK
  5
75
330
74
100
AcDbEntity
  8
0
100
AcDbBlockBegin
  2
_ARCHTICK
 70
0
 10
0.0
 20
0.0
 30
0.0
  3
_ARCHTICK
  1

  0
LWPOLYLINE
  5
77
330
74
100
AcDbEntity
  8
0
  6
BYBLOCK
 62
0
100
AcDbPolyline
 90
2
 70
0
 43
0.15
 10
-0.5
 20
-0.5
 10
0.5
 20
0.5
  0
ENDBLK
  5
76
330
74
100
AcDbEntity
  8
0
100
AcDbBlockEnd
  0
BLOCK
  5
79
330
78
100
AcDbEntity
  8
0
100
AcDbBlockBegin
  2
_CLOSEDFILLED
 70
0
 10
0.0
 20
0.0
 30
0.0
  3
_CLOSEDFILLED
  1

  0
SOLID
  5
7B
330
78
100
AcDbEntity
  8
0
  6
BYBLOCK
 62
0
100
AcDbTrace
 10
-1.0
 20
0.16439898372402537
 30
0.0
 11
0.0
 21
0.0
 31
0.0
 12
-1.0
 22
-0.16439898372402537
 32
0.0
 13
-1.0
 23
-0.16439898372402537
 33
0.0
  0
ENDBLK
  5
7A
330
78
100
AcDbEntity
  8
0
100
AcDbBlockEnd
  0
BLOCK
  5
85
330
84
100
AcDbEntity
  8
0
100
AcDbBlockBegin
  2
_CLOSEDBLANK
 70
0
 10
0.0
 20
0.0
 30
0.0
  3
_CLOSEDBLANK
  1

  0
LWPOLYLINE
  5
87
330
84
100
AcDbEntity
  8
0
  6
BYBLOCK
 62
0
100
AcDbPolyline
 90
3
 70
1
 10
-1.0
 20
0.16439898372402537
 10
0.0
 20
0.0
 10
-1.0
 20
-0.16439898372402537
  0
ENDBLK
  5
86
330
84
100
AcDbEntity
  8
0
100
AcDbBlockEnd
  0
ENDSEC
  0
SECTION
  2
ENTITIES
  0
LWPOLYLINE
  5
8C
330
17
100
AcDbEntity
  8
Layer
100
AcDbPolyline
 90
261
 70
1
 10
463.0947464046909
 20
171.25744913584774
 10
461.00617412141526
 20
171.7031574875102
 10
457.6009371200979
 20
172.44402778237458
 10
453.942499980388
 20
173.2709852155568
 10
450.11234260462436
 20
174.15697958965245
 10
446.1767700280577
 20
175.08693149990935
 10
442.18518944396465
 20
176.0474246614975
 10
438.1619922666287
 20
177.0366734386392
 10
434.11939405444014
 20
178.04167708877037
 10
430.07486236241255
 20
179.06430969103425
 10
426.02567248037724
 20
180.10656105979368
 10
421.97273980990553
 20
181.15823623404765
 10
417.9295346531603
 20
182.2205377528495
 10
413.89521586584664
 20
183.30153617515444
 10
409.8640597917916
 20
184.40243135106505
 10
405.83020618879027
 20
185.51164399837972
 10
401.7889900600866
 20
186.62020412459682
 10
397.74860173613996
 20
187.744202419648
 10
393.698565978472
 20
188.88180173048943
 10
389.64458245277655
 20
190.02358860936795
 10
385.5935393705604
 20
191.16966548997942
 10
381.5492647038315
 20
192.32285561932943
 10
377.51003577876224
 20
193.4804586250259
 10
373.4737872358797
 20
194.62773289633117
 10
369.434581629622
 20
195.77459449834382
 10
365.3948721141421
 20
196.92549395928273
 10
361.35588163018
 20
198.0650528650645
 10
357.312248221575
 20
199.19516158799104
 10
353.2728672879166
 20
200.31770288630491
 10
350.7490676027782
 20
201.00924820741437
 10
350.4847992722057
 20
200.04479901255942
 10
348.9824431123474
 20
200.45647494454886
 10
344.9497724590264
 20
201.54187294289716
 10
340.91944113721195
 20
202.61254854263237
 10
336.88593703007905
 20
203.6638315898166
 10
332.84854977485304
 20
204.70013891398602
 10
328.81557326716427
 20
205.7189330086673
 10
324.7848895760785
 20
206.7146801302667
 10
320.7477090345823
 20
207.68718026048157
 10
316.70235649808654
 20
208.63970922868182
 10
312.6478771863241
 20
209.5744242743683
 10
308.59183048663965
 20
210.49353980323653
 10
304.53783170388806
 20
211.39169024928904
 10
300.481843847677
 20
212.26762736804463
 10
296.4235721382985
 20
213.11946111784732
 10
292.350721169566
 20
213.9509431036495
 10
288.2842910702321
 20
214.7678853263056
 10
284.2214745373455
 20
215.55464132743734
 10
280.1420864190989
 20
216.31699132788586
 10
276.05463955393117
 20
217.0631203535988
 10
271.9701642316806
 20
217.79066944202722
 10
267.88610289525406
 20
218.49373874760187
 10
263.79664961554454
 20
219.17214478517377
 10
259.6983420201438
 20
219.82862606328894
 10
255.59341283355542
 20
220.4662463644699
 10
251.48795319678055
 20
221.08508062553736
 10
247.3828286745222
 20
221.68068544493005
 10
243.26681345292025
 20
222.25383783015334
 10
239.1488571735248
 20
222.8108319276756
 10
235.0335729676919
 20
223.34682029010236
 10
230.917858179143
 20
223.86038888337598
 10
226.80270228275572
 20
224.35059224810917
 10
222.6823465762681
 20
224.81551346623817
 10
218.5502667380222
 20
225.26093015508647
 10
214.42726682927648
 20
225.69014357361033
 10
210.30417503284616
 20
226.09037403503638
 10
206.17349853536018
 20
226.4702114665196
 10
202.04975453162436
 20
226.82854929552417
 10
197.92543573560337
 20
227.15967734212205
 10
193.79628615280382
 20
227.46627270077357
 10
189.66817095963464
 20
227.75015694302604
 10
185.5382180478692
 20
228.0080964988416
 10
181.4044953279071
 20
228.24266327683634
 10
177.27458427891784
 20
228.45554653362925
 10
173.15285942751032
 20
228.6421731701242
 10
169.03183810015813
 20
228.7967782502449
 10
164.9001865115944
 20
228.9246936007139
 10
160.781595229015
 20
229.03166298246197
 10
156.6608383809892
 20
229.101565356043
 10
152.53320078959752
 20
229.14892593319033
 10
148.41677562938867
 20
229.16930724679517
 10
144.30185640069837
 20
229.15927470090034
 10
140.1976551481863
 20
229.11952482535068
 10
136.09384103654838
 20
229.04347448339416
 10
131.991065205614
 20
228.935665008871
 10
127.88845721620345
 20
228.79523793321553
 10
123.79268573447717
 20
228.62581815088555
 10
119.7059242818847
 20
228.4204240571963
 10
115.6213374257672
 20
228.17862284851887
 10
111.54095680845235
 20
227.90188586816373
 10
107.46546396789813
 20
227.59198462659575
 10
103.41004158790042
 20
227.2500588676117
 10
99.37443810898985
 20
226.86444185132171
 10
95.34352218356496
 20
226.4308286239158
 10
91.32796803959542
 20
225.95861076518173
 10
87.32847089623141
 20
225.43807889517544
 10
83.34186616901917
 20
224.8681290289819
 10
79.36200889803209
 20
224.24744446904572
 10
75.40028774609962
 20
223.5864612794345
 10
71.47456683975948
 20
222.87857241007686
 10
67.58105175204639
 20
222.11407606171753
 10
63.72342435938077
 20
221.2899244390735
 10
59.89843520856017
 20
220.4017041224602
 10
56.11722114039418
 20
219.44848465397342
 10
52.36900842165633
 20
218.42199123253116
 10
48.68280392487773
 20
217.34088631311081
 10
45.064559586992374
 20
216.18030554466407
 10
41.52338244240477
 20
214.9529158197705
 10
38.088925419185415
 20
213.65609376713698
 10
34.77437970345238
 20
212.29100904531143
 10
31.621226388158448
 20
210.87432209899796
 10
28.67253606090381
 20
209.4215514099481
 10
25.950769824032648
 20
207.93758561634223
 10
23.503432101067318
 20
206.48514783001949
 10
21.35935066795099
 20
205.08267647517292
 10
19.514487063966016
 20
203.75057915299973
 10
17.945323889617384
 20
202.50440930321915
 10
16.646327882346185
 20
201.38510353653197
 10
15.554346385462907
 20
200.31417976495078
 10
14.647322676300604
 20
199.3582593111921
 10
13.912872222048662
 20
198.49829677406484
 10
13.311071870215557
 20
197.68545778313714
 10
12.812414337990049
 20
196.91684687848792
 10
12.407235366724052
 20
196.2203681596354
 10
12.075173496707492
 20
195.5586054425434
 10
11.795463893040619
 20
194.91941050025758
 10
11.567778948690972
 20
194.35052559192695
 10
11.386729472050547
 20
193.82308969260268
 10
11.242226209830818
 20
193.31481608965072
 10
11.132262750125733
 20
192.86160737829724
 10
11.049898723535875
 20
192.40532189891303
 10
10.987747781303568
 20
191.9779344319925
 10
10.945877117075185
 20
191.61776707295454
 10
10.971788237281828
 20
191.30531031216955
 10
10.994240358601445
 20
190.85224246496153
 10
11.019600506711924
 20
190.44379856283024
 10
11.06818897517411
 20
190.04763236253245
 10
11.160848308583411
 20
189.63022039996738
 10
11.313396226710296
 20
189.17587648594662
 10
11.530652778370921
 20
188.68924791155905
 10
11.8182651989936
 20
188.1742594665046
 10
12.186427268548215
 20
187.63075059179414
 10
12.644395541613449
 20
187.06041954989504
 10
13.199970173302034
 20
186.467978110457
 10
13.868879877902799
 20
185.85653313728938
 10
14.67496468192104
 20
185.22787124704536
 10
15.654241616944432
 20
184.57925599751377
 10
16.84133952382541
 20
183.90292400025902
 10
18.2438460964284
 20
183.19347340184171
 10
19.87480990323951
 20
182.45963600842597
 10
21.801838226711936
 20
181.7203704492973
 10
24.080908152134356
 20
180.97697743647768
 10
26.708308304095937
 20
180.21745087501927
 10
29.634773438362004
 20
179.45595789871788
 10
32.84585549749096
 20
178.74085037734562
 10
36.308825381186466
 20
178.06743132444325
 10
39.92714650010828
 20
177.43729753974114
 10
43.66435179574785
 20
176.87662014973307
 10
47.516715761621185
 20
176.38834752616373
 10
51.48666334629064
 20
175.94403323701772
 10
55.50806670830487
 20
175.51168740288628
 10
59.50834591774749
 20
175.11008021209102
 10
63.52650468813593
 20
174.78149339013322
 10
67.62127292236882
 20
174.49909654960308
 10
71.74481701573295
 20
174.21877956231918
 10
75.86557563782435
 20
173.9512394523033
 10
79.97909795160103
 20
173.70972388366988
 10
84.09330244194102
 20
173.50348700670847
 10
88.22864285340411
 20
173.33006655159167
 10
92.3879717616148
 20
173.1766520634849
 10
96.56446370487419
 20
173.03625721776706
 10
99.51051608381897
 20
172.94180043991798
 10
99.47847039827268
 20
171.94231403478892
 10
100.71825630106838
 20
171.90256317632156
 10
104.88985233803827
 20
171.77556460543082
 10
109.05084454341593
 20
171.6679012983143
 10
113.20491243789586
 20
171.5629402759965
 10
117.36790118473297
 20
171.48375908598004
 10
121.55103195822447
 20
171.41375195609007
 10
125.74914783081888
 20
171.34167652459564
 10
129.9569584428228
 20
171.27539652580904
 10
134.16986329963774
 20
171.21329412159923
 10
138.38255991814367
 20
171.15587710112453
 10
142.59252706838146
 20
171.10479951699932
 10
146.8004393237237
 20
171.06285452634157
 10
151.01101168281946
 20
171.03125446326868
 10
155.2292478622852
 20
171.00760416505145
 10
159.4552713248299
 20
170.98707000706423
 10
163.68498019276032
 20
170.96691964246696
 10
167.91438624370775
 20
170.94614272212732
 10
172.1406192561459
 20
170.9255363044112
 10
176.36256991791006
 20
170.90892836778553
 10
180.5836098479576
 20
170.8990523547674
 10
184.8083135586091
 20
170.89426185613615
 10
189.03531047899023
 20
170.89013602367524
 10
193.26166153675274
 20
170.88753206127294
 10
197.4870534841122
 20
170.8878788592535
 10
201.709562477528
 20
170.89156932890987
 10
205.93073628721834
 20
170.90118808275992
 10
210.15446863981902
 20
170.91608005449032
 10
214.37988699328264
 20
170.9320091983269
 10
218.60319502238698
 20
170.94510060767558
 10
222.82287087731245
 20
170.9594179244545
 10
227.03787420849682
 20
170.97998063150223
 10
231.2512612044186
 20
171.0087057406799
 10
235.46723953918385
 20
171.04588335348782
 10
239.68906074467017
 20
171.0878774291731
 10
243.9129590809785
 20
171.12938616034677
 10
248.13621877170812
 20
171.16762840694292
 10
252.3557646373311
 20
171.2059562196347
 10
256.56802905653603
 20
171.24999709614835
 10
260.77730159792486
 20
171.3035522114448
 10
264.98798205973225
 20
171.36448047623864
 10
269.197821118071
 20
171.42254446987047
 10
273.4079087103308
 20
171.46996847197104
 10
277.6219600605963
 20
171.51174907440128
 10
281.83389265774605
 20
171.55594801273824
 10
286.042846221525
 20
171.6086852101518
 10
290.2544226053053
 20
171.6708065628655
 10
294.46966167105643
 20
171.7356834748129
 10
298.68214111916575
 20
171.7952354556894
 10
302.8918148759282
 20
171.84847349579502
 10
307.0979451586429
 20
171.90627840572506
 10
311.3030813528127
 20
171.97537469992304
 10
315.51465364182604
 20
172.05325577617901
 10
319.72834641191
 20
172.12995199482208
 10
323.9419234481421
 20
172.1989711203996
 10
328.158832550361
 20
172.25994646256078
 10
332.3802511445561
 20
172.31661085586606
 10
336.6027480650537
 20
172.37103597244405
 10
340.8218896897365
 20
172.42433827896684
 10
345.0339270357995
 20
172.4832519009887
 10
349.24499244026475
 20
172.54548947594603
 10
353.45204473501394
 20
172.59709789718826
 10
357.6639922755053
 20
172.6361550290908
 10
361.8844177891292
 20
172.6706570086112
 10
366.1097283053304
 20
172.7059398687427
 10
370.3355427124002
 20
172.74171125495351
 10
374.55699925057115
 20
172.77616367229155
 10
378.77146290088194
 20
172.80450095006327
 10
382.98211613282314
 20
172.82244351811687
 10
387.19357750447637
 20
172.83287953751747
 10
391.40163186221696
 20
172.83800457850234
 10
395.60415271378105
 20
172.83081893819133
 10
399.80857843088233
 20
172.81302780053457
 10
404.0118791100295
 20
172.7970802180705
 10
408.21040897671116
 20
172.77900578933927
 10
412.40401274026374
 20
172.7442591754442
 10
416.59903422893893
 20
172.69766746383047
 10
420.7955114413009
 20
172.6396176856005
 10
424.98943338902814
 20
172.5764856669579
 10
429.176041924384
 20
172.49889956683373
 10
433.35939975570676
 20
172.40776267554952
 10
437.5327522451168
 20
172.3063042012679
 10
441.68424827704075
 20
172.19292630337236
 10
445.80098774670296
 20
172.06323835858575
 10
449.8575113824196
 20
171.92294924382907
 10
453.80253786962385
 20
171.7732413625244
 10
457.5644305439632
 20
171.61507717832865
 10
461.0537188408357
 20
171.45045272612347
 10
463.1843325272565
 20
171.33829829195622
  0
LWPOLYLINE
  5
8D
330
17
100
AcDbEntity
  8
Layer
100
AcDbPolyline
 90
5
 70
0
 10
306.68234716779375
 20
206.81958400578264
 10
302.77703671602524
 20
207.68477200576137
 10
303.64222471600397
 20
211.59008245752995
 10
307.5475351677725
 20
210.72489445755122
 10
306.68234716779375
 20
206.81958400578264
  0
LWPOLYLINE
  5
8E
330
17
100
AcDbEntity
  8
Layer
100
AcDbPolyline
 90
5
 70
0
 10
136.1029540747093
 20
225.04233210371865
 10
132.1043355544929
 20
224.9372134575023
 10
131.99921690827657
 20
228.9358319777187
 10
135.99783542849295
 20
229.04095062393503
 10
136.1029540747093
 20
225.04233210371865
  0
LWPOLYLINE
  5
8F
330
17
100
AcDbEntity
  8
Layer
100
AcDbPolyline
 90
5
 70
0
 10
59.52414992029559
 20
216.18209015626402
 10
55.64557585611052
 20
215.2039985303767
 10
54.66748423022319
 20
219.08257259456175
 10
58.54605829440826
 20
220.06066422044907
 10
59.52414992029559
 20
216.18209015626402
  0
LWPOLYLINE
  5
90
330
17
100
AcDbEntity
  8
Layer
100
AcDbPolyline
 90
5
 70
0
 10
21.809593273066266
 20
199.23582022356862
 10
20.296767425763836
 20
197.9276314161965
 10
17.026295407333553
 20
201.70969603445258
 10
18.539121254635983
 20
203.0178848418247
 10
21.809593273066266
 20
199.23582022356862
  0
LWPOLYLINE
  5
91
330
17
100
AcDbEntity
  8
Layer
100
AcDbPolyline
 90
5
 70
0
 10
16.836643850642496
 20
189.88213257832436
 10
18.41890921005767
 20
188.65884343327534
 10
15.360686347435127
 20
184.70318003473741
 10
13.778420988019949
 20
185.92646917978644
 10
16.836643850642496
 20
189.88213257832436
  0
LWPOLYLINE
  5
92
330
17
100
AcDbEntity
  8
Layer
100
AcDbPolyline
 90
5
 70
0
 10
75.0985947576127
 20
178.00314589854912
 10
79.09172131866664
 20
177.76875249547322
 10
78.85732791559074
 20
173.77562593441928
 10
74.8642013545368
 20
174.01001933749518
 10
75.0985947576127
 20
178.00314589854912
  0
LINE
  5
93
330
17
100
AcDbEntity
  8
Layer
100
AcDbLine
 10
443.62372700232083
 20
175.70126968394425
 30
0.0
 11
443.4168035121346
 21
174.7229125563016
 31
0.0
  0
LINE
  5
94
330
17
100
AcDbEntity
  8
Layer
100
AcDbLine
 10
443.2283921258156
 20
173.14477505305103
 30
0.0
 11
443.1992729906258
 21
172.14519910497816
 31
0.0
  0
LINE
  5
95
330
17
100
AcDbEntity
  8
Layer
100
AcDbLine
 10
424.21935832058915
 20
180.57527246291983
 30
0.0
 11
423.9940467052304
 21
179.6009857104776
 31
0.0
  0
LINE
  5
96
330
17
100
AcDbEntity
  8
Layer
100
AcDbLine
 10
423.2303476192555
 20
173.60301874566466
 30
0.0
 11
423.20433409670113
 21
172.6033571546028
 31
0.0
  0
LINE
  5
97
330
17
100
AcDbEntity
  8
Layer
100
AcDbLine
 10
346.8641658436495
 20
201.0266117360317
 30
0.0
 11
346.6186342078074
 21
200.0572231576996
 31
0.0
  0
LINE
  5
98
330
17
100
AcDbEntity
  8
Layer
100
AcDbLine
 10
343.20159097251053
 20
173.45749099922907
 30
0.0
 11
343.1941351188591
 21
172.4575187944922
 31
0.0
  0
LWPOLYLINE
  5
99
330
17
100
AcDbEntity
  8
Layer
100
AcDbPolyline
 90
300
 70
1
 10
206.44314189189097
 20
200.0
 10
206.43787587161103
 20
200.5073508856098
 10
206.42208013609746
 20
201.01447773935107
 10
206.39576166030247
 20
201.52115662828132
 10
206.358932065724
 20
202.02716381726685
 10
206.31160761527428
 20
202.53227586777766
 10
206.25380920609834
 20
203.03626973655173
 10
206.18556236034664
 20
203.53892287408462
 10
206.10689721390497
 20
204.04001332290105
 10
206.01784850308752
 20
204.5393198155651
 10
205.9184555492982
 20
205.0366218723857
 10
205.8087622416673
 20
205.53169989877412
 10
205.6888170176715
 20
206.02433528221096
 10
205.55867284174516
 20
206.51431048877913
 10
205.41838718189265
 20
207.00140915922077
 10
205.26802198431213
 20
207.48541620447543
 10
205.10764364604194
 20
207.96611790065725
 10
204.93732298564137
 20
208.4433019834295
 10
204.75713521191935
 20
208.91675774173456
 10
204.5671598907243
 20
209.3862761108378
 10
204.36748090981
 20
209.85164976464497
 10
204.15818644179325
 20
210.31267320725135
 10
203.93936890521923
 20
210.769142863683
 10
203.7111249237521
 20
211.22085716978978
 10
203.4735552835088
 20
211.6676166612504
 10
203.22676488855458
 20
212.10922406165025
 10
202.97086271458042
 20
212.54548436959303
 10
202.7059617607824
 20
212.976204944808
 10
202.43217899996446
 20
213.4011955932144
 10
202.14963532688645
 20
213.82026865090592
 10
201.85845550488054
 20
214.23323906701762
 10
201.558768110759
 20
214.6399244854394
 10
201.25070547803858
 20
215.04014532533907
 10
200.93440363850556
 20
215.43372486046044
 10
200.61000226214802
 20
215.82048929716055
 10
200.2776445954815
 20
216.20026785115195
 10
199.9374773982953
 20
216.57289282291646
 10
199.58965087884764
 20
216.93819967175634
 10
199.2343186275378
 20
217.29602708845096
 10
198.8716375490849
 20
217.64621706648632
 10
198.50176779324337
 20
217.98861497182645
 10
198.1248726840851
 20
218.3230696111952
 10
197.7411186478802
 20
218.64943329883909
 10
197.35067513960803
 20
218.96756192174118
 10
196.95371456813038
 20
219.27731500325729
 10
196.5504122200607
 20
219.57855576514655
 10
196.14094618236248
 20
219.87115118796876
 10
195.72549726371105
 20
220.1549720698221
 10
195.3042489146535
 20
220.429893083395
 10
194.87738714660213
 20
220.69579283130727
 10
194.44510044969712
 20
220.95255389971558
 10
194.00757970957443
 20
221.20006291016023
 10
193.56501812307616
 20
221.4382105696299
 10
193.1176111129403
 20
221.66689171882226
 10
192.66555624150755
 20
221.8860053785795
 10
192.2090531234832
 20
222.09545479447775
 10
191.74830333779312
 20
222.29514747955122
 10
191.28351033857206
 20
222.4849952551317
 10
190.81487936532397
 20
222.664914289786
 10
190.34261735229416
 20
222.8348251363333
 10
189.86693283709286
 20
222.99465276692695
 10
189.38803586861093
 20
223.14432660618462
 10
188.90613791426813
 20
223.2837805623524
 10
188.42145176663516
 20
223.41295305648902
 10
187.9341914494703
 20
223.53178704965742
 10
187.44457212321265
 20
223.64023006811155
 10
186.95280998997342
 20
223.73823422646723
 10
186.4591221980669
 20
223.82575624884706
 10
185.96372674612414
 20
223.90275748798982
 10
185.4668423868308
 20
223.96920394231597
 10
184.96868853033206
 20
224.02506627094184
 10
184.4694851473473
 20
224.07031980663567
 10
183.9694526720374
 20
224.10494456671006
 10
183.46881190466686
 20
224.12892526184567
 10
182.967783914105
 20
224.1422513028426
 10
182.4665899402079
 20
224.14491680529633
 10
181.9654512961253
 20
224.136920592196
 10
181.46458927057478
 20
224.11826619444417
 10
180.96422503012693
 20
224.0889618492978
 10
180.46457952154455
 20
224.04902049673075
 10
179.96587337421866
 20
223.99845977371987
 10
179.4683268027447
 20
223.93730200645717
 10
178.97215950968217
 20
223.86557420049095
 10
178.47759058854
 20
223.78330802880112
 10
177.9848384270311
 20
223.69053981781323
 10
177.4941206106384
 20
223.58731053135773
 10
177.0056538265354
 20
223.47366575258144
 10
176.51965376790304
 20
223.3496556638195
 10
176.03633503868573
 20
223.21533502443606
 10
175.55591105882837
 20
223.07076314664417
 10
175.07859397003594
 20
222.9160038693152
 10
174.60459454209783
 20
222.7511255297894
 10
174.13412207981779
 20
222.57620093369997
 10
173.6673843305908
 20
222.3913073228242
 10
173.20458739266778
 20
222.1965263409757
 10
172.7459356241482
 20
221.99194399795275
 10
172.29163155274145
 20
221.7776506315588
 10
171.84187578633632
 20
221.55374086771184
 10
171.39686692441808
 20
221.32031357866026
 10
170.95680147037268
 20
221.0774718393237
 10
170.52187374471623
 20
220.8253228817779
 10
170.09227579928873
 20
220.5639780479043
 10
169.66819733244915
 20
220.29355274022436
 10
169.24982560531018
 20
220.01416637094115
 10
168.83734535904884
 20
219.72594230921032
 10
168.43093873333015
 20
219.42900782666368
 10
168.03078518587915
 20
219.12349404120968
 10
167.63706141323766
 20
218.80953585913542
 10
167.24994127273987
 20
218.4872719155358
 10
166.86959570574197
 20
218.15684451309625
 10
166.49619266213915
 20
217.81839955925574
 10
166.1298970262038
 20
217.47208650177828
 10
165.77087054377702
 20
217.11805826276094
 10
165.41927175084652
 20
216.75647117110776
 10
165.0752559035413
 20
216.38748489349936
 10
164.73897490957512
 20
216.01126236388853
 10
164.41057726116819
 20
215.62796971155322
 10
164.0902079694773
 20
215.2377761877386
 10
163.7780085005629
 20
214.84085409092037
 10
163.47411671292164
 20
214.43737869072268
 10
163.1786667966121
 20
214.02752815052398
 10
162.89178921400003
 20
213.61148344878504
 10
162.61361064215
 20
213.18942829913402
 10
162.34425391688828
 20
212.76154906924367
 10
162.08383797856206
 20
212.32803469853658
 10
161.83247781951866
 20
211.889076614755
 10
161.5902844333283
 20
211.4448686494315
 10
161.35736476577222
 20
210.9956069522986
 10
161.1338216676187
 20
210.54148990467453
 10
160.9197538492069
 20
210.08271803186364
 10
160.71525583685917
 20
209.61949391460993
 10
160.52041793114088
 20
209.15202209964337
 10
160.3353261669863
 20
208.68050900935754
 10
160.16006227570796
 20
208.20516285065946
 10
159.99470364890635
 20
207.72619352303133
 10
159.83932330429602
 20
207.24381252584462
 10
159.69398985346302
 20
206.75823286496816
 10
159.55876747156796
 20
206.26966895871053
 10
159.43371586900798
 20
205.77833654313915
 10
159.31889026505044
 20
205.2844525768171
 10
159.2143413634496
 20
204.78823514500056
 10
159.12011533005716
 20
204.2899033633383
 10
159.03625377243696
 20
203.7896772811165
 10
158.96279372149206
 20
203.28777778409113
 10
158.89976761511295
 20
202.78442649695103
 10
158.8472032838539
 20
202.2798456854547
 10
158.80512393864393
 20
201.7742581582839
 10
158.77354816053725
 20
201.26788716865786
 10
158.7524898925086
 20
200.7609563157506
 10
158.7419584332963
 20
200.2536894459561
 10
158.7419584332963
 20
199.7463105540439
 10
158.7524898925086
 20
199.2390436842494
 10
158.77354816053725
 20
198.73211283134214
 10
158.80512393864393
 20
198.2257418417161
 10
158.8472032838539
 20
197.7201543145453
 10
158.89976761511295
 20
197.21557350304897
 10
158.96279372149206
 20
196.71222221590887
 10
159.03625377243696
 20
196.2103227188835
 10
159.12011533005716
 20
195.7100966366617
 10
159.2143413634496
 20
195.21176485499944
 10
159.31889026505044
 20
194.7155474231829
 10
159.43371586900798
 20
194.22166345686085
 10
159.55876747156796
 20
193.73033104128947
 10
159.69398985346302
 20
193.24176713503186
 10
159.83932330429602
 20
192.75618747415538
 10
159.99470364890635
 20
192.27380647696867
 10
160.16006227570796
 20
191.79483714934054
 10
160.3353261669863
 20
191.31949099064246
 10
160.52041793114088
 20
190.84797790035663
 10
160.71525583685917
 20
190.38050608539007
 10
160.9197538492069
 20
189.9172819681364
 10
161.1338216676187
 20
189.45851009532547
 10
161.35736476577222
 20
189.0043930477014
 10
161.59028443332826
 20
188.5551313505685
 10
161.83247781951866
 20
188.110923385245
 10
162.08383797856206
 20
187.67196530146342
 10
162.34425391688828
 20
187.23845093075633
 10
162.61361064214998
 20
186.81057170086598
 10
162.89178921400003
 20
186.38851655121496
 10
163.17866679661208
 20
185.97247184947602
 10
163.47411671292164
 20
185.56262130927732
 10
163.7780085005629
 20
185.15914590907963
 10
164.0902079694773
 20
184.76222381226142
 10
164.41057726116819
 20
184.37203028844678
 10
164.73897490957512
 20
183.98873763611147
 10
165.0752559035413
 20
183.61251510650064
 10
165.41927175084652
 20
183.24352882889224
 10
165.77087054377702
 20
182.88194173723906
 10
166.12989702620376
 20
182.52791349822172
 10
166.49619266213915
 20
182.18160044074426
 10
166.86959570574197
 20
181.84315548690375
 10
167.24994127273987
 20
181.5127280844642
 10
167.63706141323766
 20
181.19046414086458
 10
168.03078518587915
 20
180.87650595879032
 10
168.43093873333015
 20
180.57099217333632
 10
168.83734535904884
 20
180.27405769078968
 10
169.24982560531018
 20
179.98583362905885
 10
169.66819733244915
 20
179.70644725977564
 10
170.09227579928873
 20
179.4360219520957
 10
170.52187374471623
 20
179.1746771182221
 10
170.95680147037268
 20
178.9225281606763
 10
171.39686692441808
 20
178.67968642133974
 10
171.84187578633632
 20
178.44625913228816
 10
172.29163155274145
 20
178.2223493684412
 10
172.74593562414816
 20
178.00805600204725
 10
173.20458739266775
 20
177.80347365902432
 10
173.6673843305908
 20
177.6086926771758
 10
174.13412207981779
 20
177.42379906630003
 10
174.60459454209783
 20
177.2488744702106
 10
175.07859397003594
 20
177.0839961306848
 10
175.55591105882837
 20
176.92923685335586
 10
176.03633503868573
 20
176.78466497556394
 10
176.51965376790304
 20
176.6503443361805
 10
177.0056538265354
 20
176.52633424741856
 10
177.4941206106384
 20
176.41268946864227
 10
177.9848384270311
 20
176.30946018218677
 10
178.47759058854
 20
176.21669197119888
 10
178.97215950968217
 20
176.13442579950905
 10
179.4683268027447
 20
176.06269799354283
 10
179.96587337421863
 20
176.00154022628013
 10
180.46457952154455
 20
175.95097950326925
 10
180.96422503012693
 20
175.9110381507022
 10
181.46458927057475
 20
175.88173380555583
 10
181.9654512961253
 20
175.863079407804
 10
182.4665899402079
 20
175.85508319470367
 10
182.96778391410498
 20
175.8577486971574
 10
183.46881190466686
 20
175.87107473815433
 10
183.9694526720374
 20
175.89505543328994
 10
184.4694851473473
 20
175.92968019336433
 10
184.96868853033206
 20
175.97493372905816
 10
185.46684238683082
 20
176.03079605768403
 10
185.96372674612417
 20
176.09724251201018
 10
186.4591221980669
 20
176.17424375115294
 10
186.95280998997342
 20
176.26176577353277
 10
187.44457212321265
 20
176.35976993188845
 10
187.93419144947026
 20
176.46821295034258
 10
188.42145176663513
 20
176.58704694351098
 10
188.90613791426813
 20
176.7162194376476
 10
189.38803586861093
 20
176.85567339381535
 10
189.86693283709286
 20
177.00534723307305
 10
190.34261735229416
 20
177.1651748636667
 10
190.81487936532397
 20
177.335085710214
 10
191.28351033857206
 20
177.5150047448683
 10
191.74830333779312
 20
177.70485252044878
 10
192.2090531234832
 20
177.90454520552225
 10
192.66555624150755
 20
178.1139946214205
 10
193.11761111294032
 20
178.33310828117774
 10
193.56501812307616
 20
178.5617894303701
 10
194.00757970957443
 20
178.79993708983977
 10
194.44510044969712
 20
179.04744610028442
 10
194.87738714660213
 20
179.30420716869273
 10
195.30424891465347
 20
179.57010691660497
 10
195.72549726371105
 20
179.8450279301779
 10
196.14094618236248
 20
180.12884881203124
 10
196.55041222006068
 20
180.42144423485345
 10
196.95371456813038
 20
180.72268499674271
 10
197.35067513960803
 20
181.03243807825882
 10
197.7411186478802
 20
181.35056670116091
 10
198.1248726840851
 20
181.6769303888048
 10
198.50176779324337
 20
182.01138502817355
 10
198.8716375490849
 20
182.35378293351368
 10
199.2343186275378
 20
182.70397291154907
 10
199.58965087884764
 20
183.06180032824366
 10
199.9374773982953
 20
183.42710717708354
 10
200.27764459548146
 20
183.79973214884802
 10
200.61000226214802
 20
184.17951070283945
 10
200.93440363850556
 20
184.56627513953956
 10
201.25070547803858
 20
184.95985467466093
 10
201.558768110759
 20
185.3600755145606
 10
201.85845550488054
 20
185.76676093298235
 10
202.14963532688645
 20
186.17973134909408
 10
202.43217899996446
 20
186.59880440678558
 10
202.7059617607824
 20
187.023795055192
 10
202.97086271458042
 20
187.45451563040697
 10
203.22676488855458
 20
187.89077593834975
 10
203.4735552835088
 20
188.3323833387496
 10
203.7111249237521
 20
188.77914283021022
 10
203.93936890521923
 20
189.230857136317
 10
204.15818644179325
 20
189.68732679274865
 10
204.36748090980998
 20
190.148350235355
 10
204.5671598907243
 20
190.61372388916217
 10
204.75713521191935
 20
191.08324225826544
 10
204.93732298564134
 20
191.55669801657046
 10
205.10764364604194
 20
192.03388209934275
 10
205.26802198431213
 20
192.51458379552457
 10
205.41838718189265
 20
192.99859084077923
 10
205.55867284174516
 20
193.48568951122087
 10
205.6888170176715
 20
193.97566471778904
 10
205.8087622416673
 20
194.46830010122588
 10
205.9184555492982
 20
194.9633781276143
 10
206.01784850308752
 20
195.4606801844349
 10
206.10689721390497
 20
195.95998667709895
 10
206.18556236034664
 20
196.4610771259154
 10
206.25380920609834
 20
196.9637302634483
 10
206.31160761527428
 20
197.46772413222234
 10
206.358932065724
 20
197.97283618273315
 10
206.39576166030247
 20
198.47884337171865
 10
206.42208013609746
 20
198.98552226064893
 10
206.43787587161103
 20
199.49264911439016
 10
206.44314189189097
 20
200.0
  0
LINE
  5
9A
330
17
100
AcDbEntity
  8
Layer
 62
7
100
AcDbLine
 10
15.256237380023293
 20
200.00000000000003
 30
0.0
 11
354.4160973707973
 21
199.99999999999997
 31
0.0
  0
LINE
  5
9B
330
17
100
AcDbEntity
  8
Layer
 62
7
100
AcDbLine
 10
80.98820937817808
 20
200.0
 30
0.0
 11
92.98820937817808
 21
200.0
 31
0.0
  0
LWPOLYLINE
  5
9C
330
17
100
AcDbEntity
  8
Layer
100
AcDbPolyline
 90
5
 70
0
 10
86.98820937817808
 20
205.0
 10
91.98820937817808
 20
200.0
 10
86.98820937817808
 20
195.0
 10
81.98820937817808
 20
200.0
 10
86.98820937817808
 20
205.0
  0
LINE
  5
9D
330
17
100
AcDbEntity
  8
Layer
 62
7
100
AcDbLine
 10
178.83616737541027
 20
200.0
 30
0.0
 11
190.83616737541027
 21
200.0
 31
0.0
  0
LWPOLYLINE
  5
9E
330
17
100
AcDbEntity
  8
Layer
100
AcDbPolyline
 90
5
 70
0
 10
184.83616737541027
 20
205.0
 10
189.83616737541027
 20
200.0
 10
184.83616737541027
 20
195.0
 10
179.83616737541027
 20
200.0
 10
184.83616737541027
 20
205.0
  0
LINE
  5
9F
330
17
100
AcDbEntity
  8
Layer
 62
7
100
AcDbLine
 10
276.6841253726425
 20
200.0
 30
0.0
 11
288.6841253726425
 21
200.0
 31
0.0
  0
LWPOLYLINE
  5
A0
330
17
100
AcDbEntity
  8
Layer
100
AcDbPolyline
 90
5
 70
0
 10
282.6841253726425
 20
205.0
 10
287.6841253726425
 20
200.0
 10
282.6841253726425
 20
195.0
 10
277.6841253726425
 20
200.0
 10
282.6841253726425
 20
205.0
  0
LINE
  5
A1
330
17
100
AcDbEntity
  8
Layer
 62
7
100
AcDbLine
 10
10.993557739263053
 20
192.01788721670903
 30
0.0
 11
461.2530708132697
 21
171.6504689028543
 31
0.0
  0
LINE
  5
A2
330
17
100
AcDbEntity
  8
Layer
 62
7
100
AcDbLine
 10
98.94760556305235
 20
188.0392996857234
 30
0.0
 11
110.93534722597832
 21
187.49703607552155
 31
0.0
  0
LWPOLYLINE
  5
A3
330
17
100
AcDbEntity
  8
Layer
100
AcDbPolyline
 90
5
 70
0
 10
105.16741956543277
 20
192.76306024017498
 10
109.93636875406781
 20
187.54222470970504
 10
104.7155332235979
 20
182.77327552107
 10
99.94658403496285
 20
187.99411105153993
 10
105.16741956543277
 20
192.76306024017498
  0
LINE
  5
A4
330
17
100
AcDbEntity
  8
Layer
 62
7
100
AcDbLine
 10
208.2658037978449
 20
183.09430816835606
 30
0.0
 11
220.25354546077085
 21
182.55204455815422
 31
0.0
  0
LWPOLYLINE
  5
A5
330
17
100
AcDbEntity
  8
Layer
100
AcDbPolyline
 90
5
 70
0
 10
214.48561780022533
 20
187.81806872280762
 10
219.25456698886038
 20
182.59723319233768
 10
214.03373145839043
 20
177.82828400370263
 10
209.2647822697554
 20
183.04911953417258
 10
214.48561780022533
 20
187.81806872280762
  0
LINE
  5
A6
330
17
100
AcDbEntity
  8
Layer
100
AcDbLine
 10
182.59189189189104
 20
224.14524999999995
 30
0.0
 11
182.59189189189104
 21
225.14524999999995
 31
0.0
  0
LINE
  5
A7
330
17
100
AcDbEntity
  8
Layer
100
AcDbLine
 10
182.59189189189104
 20
175.85475000000005
 30
0.0
 11
182.59189189189104
 21
174.85475000000005
 31
0.0
  0
LINE
  5
A8
330
17
100
AcDbEntity
  8
Layer
100
AcDbLine
 10
206.44314189189097
 20
200.0
 30
0.0
 11
207.44314189189097
 21
200.0
 31
0.0
  0
LINE
  5
A9
330
17
100
AcDbEntity
  8
Layer
100
AcDbLine
 10
158.7406418918911
 20
200.0
 30
0.0
 11
157.7406418918911
 21
200.0
 31
0.0
  0
LINE
  5
AA
330
17
100
AcDbEntity
  8
Layer
 62
7
100
AcDbLine
 10
102.59189189189104
 20
171.84552288759377
 30
0.0
 11
102.59189189189104
 21
227.1718816021042
 31
0.0
  0
LINE
  5
AB
330
17
100
AcDbEntity
  8
Layer
 62
7
100
AcDbLine
 10
102.59189189189104
 20
187.15974843767242
 30
0.0
 11
102.59189189189104
 21
199.15974843767242
 31
0.0
  0
LWPOLYLINE
  5
AC
330
17
100
AcDbEntity
  8
Layer
100
AcDbPolyline
 90
5
 70
0
 10
97.59189189189104
 20
193.15974843767242
 10
102.59189189189104
 20
198.15974843767242
 10
107.59189189189104
 20
193.15974843767242
 10
102.59189189189104
 20
188.15974843767242
 10
97.59189189189104
 20
193.15974843767242
  0
LINE
  5
AD
330
17
100
AcDbEntity
  8
Layer
 62
7
100
AcDbLine
 10
102.59189189189104
 20
199.85765605202556
 30
0.0
 11
102.59189189189104
 21
211.85765605202556
 31
0.0
  0
LWPOLYLINE
  5
AE
330
17
100
AcDbEntity
  8
Layer
100
AcDbPolyline
 90
5
 70
0
 10
97.59189189189104
 20
205.85765605202556
 10
102.59189189189104
 20
210.85765605202556
 10
107.59189189189104
 20
205.85765605202556
 10
102.59189189189104
 20
200.85765605202556
 10
97.59189189189104
 20
205.85765605202556
  0
LINE
  5
AF
330
17
100
AcDbEntity
  8
Layer
 62
7
100
AcDbLine
 10
312.591891891891
 20
171.9992075929581
 30
0.0
 11
312.591891891891
 21
209.5871107539164
 31
0.0
  0
LINE
  5
B0
330
17
100
AcDbEntity
  8
Layer
 62
7
100
AcDbLine
 10
312.591891891891
 20
181.1049736992935
 30
0.0
 11
312.591891891891
 21
193.1049736992935
 31
0.0
  0
LWPOLYLINE
  5
B1
330
17
100
AcDbEntity
  8
Layer
100
AcDbPolyline
 90
5
 70
0
 10
307.591891891891
 20
187.1049736992935
 10
312.591891891891
 20
192.1049736992935
 10
317.591891891891
 20
187.1049736992935
 10
312.591891891891
 20
182.1049736992935
 10
307.591891891891
 20
187.1049736992935
  0
LINE
  5
B2
330
17
100
AcDbEntity
  8
Layer
 62
7
100
AcDbLine
 10
312.591891891891
 20
188.48134464758098
 30
0.0
 11
312.591891891891
 21
200.48134464758098
 31
0.0
  0
LWPOLYLINE
  5
B3
330
17
100
AcDbEntity
  8
Layer
100
AcDbPolyline
 90
5
 70
0
 10
307.591891891891
 20
194.48134464758098
 10
312.591891891891
 20
199.48134464758098
 10
317.591891891891
 20
194.48134464758098
 10
312.591891891891
 20
189.48134464758098
 10
307.591891891891
 20
194.48134464758098
  0
LWPOLYLINE
  5
B4
330
17
100
AcDbEntity
  8
NumLabel
 62
1
100
AcDbPolyline
 90
4
 70
0
 10
137.17297297297236
 20
182.29054054054066
 10
137.17297297297236
 20
187.29054054054066
 10
142.17297297297236
 20
187.29054054054066
 10
142.17297297297236
 20
177.29054054054066
  0
LWPOLYLINE
  5
B5
330
17
100
AcDbEntity
  8
NumLabel
 62
1
100
AcDbPolyline
 90
2
 70
0
 10
149.67297297297236
 20
182.29054054054066
 10
147.67297297297236
 20
182.29054054054066
  0
LWPOLYLINE
  5
B6
330
17
100
AcDbEntity
  8
NumLabel
 62
1
100
AcDbPolyline
 90
4
 70
0
 10
146.67297297297236
 20
182.29054054054066
 10
144.67297297297236
 20
182.29054054054066
 10
144.67297297297236
 20
187.29054054054066
 10
146.67297297297236
 20
187.29054054054066
  0
LWPOLYLINE
  5
B7
330
17
100
AcDbEntity
  8
NumLabel
 62
1
100
AcDbPolyline
 90
4
 70
0
 10
147.67297297297236
 20
187.29054054054066
 10
149.67297297297236
 20
187.29054054054066
 10
149.67297297297236
 20
177.29054054054066
 10
147.67297297297236
 20
177.29054054054066
  0
LWPOLYLINE
  5
B8
330
17
100
AcDbEntity
  8
NumLabel
 62
1
100
AcDbPolyline
 90
2
 70
0
 10
146.67297297297236
 20
177.29054054054066
 10
144.67297297297236
 20
177.29054054054066
  0
ENDSEC
  0
SECTION
  2
OBJECTS
  0
DICTIONARY
  5
A
330
0
100
AcDbDictionary
280
0
281
1
  3
ACAD_COLOR
350
B
  3
ACAD_GROUP
350
C
  3
ACAD_LAYOUT
350
D
  3
ACAD_MATERIAL
350
E
  3
ACAD_MLEADERSTYLE
350
F
  3
ACAD_MLINESTYLE
350
10
  3
ACAD_PLOTSETTINGS
350
11
  3
ACAD_PLOTSTYLENAME
350
12
  3
ACAD_SCALELIST
350
14
  3
ACAD_TABLESTYLE
350
15
  3
ACAD_VISUALSTYLE
350
16
  3
EZDXF_META
350
2D
  0
DICTIONARY
  5
B
330
A
100
AcDbDictionary
280
0
281
1
  0
DICTIONARY
  5
C
330
A
100
AcDbDictionary
280
0
281
1
  0
DICTIONARY
  5
D
330
A
100
AcDbDictionary
280
0
281
1
  3
Model
350
1A
  3
Layout1
350
1E
  0
DICTIONARY
  5
E
330
A
100
AcDbDictionary
280
0
281
1
  3
ByBlock
350
1F
  3
ByLayer
350
20
  3
Global
350
21
  0
DICTIONARY
  5
F
330
A
100
AcDbDictionary
280
0
281
1
  3
Standard
350
2C
  0
DICTIONARY
  5
10
330
A
100
AcDbDictionary
280
0
281
1
  3
Standard
350
22
  0
DICTIONARY
  5
11
330
A
100
AcDbDictionary
280
0
281
1
  0
ACDBDICTIONARYWDFLT
  5
12
330
A
100
AcDbDictionary
280
0
281
1
  3
Normal
350
13
100
AcDbDictionaryWithDefault
340
13
  0
ACDBPLACEHOLDER
  5
13
330
12
  0
DICTIONARY
  5
14
330
A
100
AcDbDictionary
280
0
281
1
  0
DICTIONARY
  5
15
330
A
100
AcDbDictionary
280
0
281
1
  0
DICTIONARY
  5
16
330
A
100
AcDbDictionary
280
0
281
1
  3
2dWireframe
350
5A
  3
Basic
350
5B
  3
Brighten
350
5C
  3
ColorChange
350
5D
  3
Conceptual
350
5E
  3
Dim
350
5F
  3
EdgeColorOff
350
60
  3
Facepattern
350
61
  3
Flat
350
62
  3
FlatWithEdges
350
63
  3
Gouraud
350
64
  3
GouraudWithEdges
350
65
  3
Hidden
350
66
  3
JitterOff
350
67
  3
Linepattern
350
68
  3
Modeling
350
69
  3
OverhangOff
350
6A
  3
Realistic
350
6B
  3
Shaded
350
6C
  3
Shaded with edges
350
6D
  3
Shades of Gray
350
6E
  3
Sketchy
350
6F
  3
Thicken
350
70
  3
Wireframe
350
71
  3
X-Ray
350
72
  0
LAYOUT
  5
1A
330
D
100
AcDbPlotSettings
  1

  2
Adobe PDF
  4
A3
  6

 40
7.5
 41
20.0
 42
7.5
 43
20.0
 44
420.0
 45
297.0
 46
0.0
 47
0.0
 48
0.0
 49
0.0
140
0.0
141
0.0
142
1.0
143
1.0
 70
1024
 72
1
 73
0
 74
5
  7

 75
16
 76
0
 77
2
 78
300
147
1.0
148
0.0
149
0.0
100
AcDbLayout
  1
Model
 70
1
 71
0
 10
0.0
 20
0.0
 11
420.0
 21
297.0
 12
0.0
 22
0.0
 32
0.0
 14
1e+20
 24
1e+20
 34
1e+20
 15
-1e+20
 25
-1e+20
 35
-1e+20
146
0.0
 13
0.0
 23
0.0
 33
0.0
 16
1.0
 26
0.0
 36
0.0
 17
0.0
 27
1.0
 37
0.0
 76
1
330
17
  0
LAYOUT
  5
1E
330
D
100
AcDbPlotSettings
  1

  2
Adobe PDF
  4
A3
  6

 40
7.5
 41
20.0
 42
7.5
 43
20.0
 44
420.0
 45
297.0
 46
0.0
 47
0.0
 48
0.0
 49
0.0
140
0.0
141
0.0
142
1.0
143
1.0
 70
0
 72
1
 73
0
 74
5
  7

 75
16
 76
0
 77
2
 78
300
147
1.0
148
0.0
149
0.0
100
AcDbLayout
  1
Layout1
 70
1
 71
1
 10
0.0
 20
0.0
 11
420.0
 21
297.0
 12
0.0
 22
0.0
 32
0.0
 14
1e+20
 24
1e+20
 34
1e+20
 15
-1e+20
 25
-1e+20
 35
-1e+20
146
0.0
 13
0.0
 23
0.0
 33
0.0
 16
1.0
 26
0.0
 36
0.0
 17
0.0
 27
1.0
 37
0.0
 76
1
330
1B
  0
MATERIAL
  5
1F
102
{ACAD_REACTORS
330
E
102
}
330
E
100
AcDbMaterial
  1
ByBlock
  2

 70
0
 40
1.0
 71
1
 41
1.0
 91
-1023410177
 42
1.0
 72
1
  3

 73
1
 74
1
 75
1
 44
0.5
 73
0
 45
1.0
 46
1.0
 77
1
  4

 78
1
 79
1
170
1
 48
1.0
171
1
  6

172
1
173
1
174
1
140
1.0
141
1.0
175
1
  7

176
1
177
1
178
1
143
1.0
179
1
  8

270
1
271
1
272
1
145
1.0
146
1.0
273
1
  9

274
1
275
1
276
1
 42
1.0
 72
1
  3

 73
1
 74
1
 75
1
 94
63
  0
MATERIAL
  5
20
102
{ACAD_REACTORS
330
E
102
}
330
E
100
AcDbMaterial
  1
ByLayer
  2

 70
0
 40
1.0
 71
1
 41
1.0
 91
-1023410177
 42
1.0
 72
1
  3

 73
1
 74
1
 75
1
 44
0.5
 73
0
 45
1.0
 46
1.0
 77
1
  4

 78
1
 79
1
170
1
 48
1.0
171
1
  6

172
1
173
1
174
1
140
1.0
141
1.0
175
1
  7

176
1
177
1
178
1
143
1.0
179
1
  8

270
1
271
1
272
1
145
1.0
146
1.0
273
1
  9

274
1
275
1
276
1
 42
1.0
 72
1
  3

 73
1
 74
1
 75
1
 94
63
  0
MATERIAL
  5
21
102
{ACAD_REACTORS
330
E
102
}
330
E
100
AcDbMaterial
  1
Global
  2

 70
0
 40
1.0
 71
1
 41
1.0
 91
-1023410177
 42
1.0
 72
1
  3

 73
1
 74
1
 75
1
 44
0.5
 73
0
 45
1.0
 46
1.0
 77
1
  4

 78
1
 79
1
170
1
 48
1.0
171
1
  6

172
1
173
1
174
1
140
1.0
141
1.0
175
1
  7

176
1
177
1
178
1
143
1.0
179
1
  8

270
1
271
1
272
1
145
1.0
146
1.0
273
1
  9

274
1
275
1
276
1
 42
1.0
 72
1
  3

 73
1
 74
1
 75
1
 94
63
  0
MLINESTYLE
  5
22
102
{ACAD_REACTORS
330
10
102
}
330
10
100
AcDbMlineStyle
  2
Standard
 70
0
  3

 62
256
 51
90.0
 52
90.0
 71
2
 49
0.5
 62
256
  6
BYLAYER
 49
-0.5
 62
256
  6
BYLAYER
  0
MLEADERSTYLE
  5
2C
102
{ACAD_REACTORS
330
F
102
}
330
F
100
AcDbMLeaderStyle
179
2
170
2
171
1
172
0
 90
2
 40
0.0
 41
0.0
173
1
 91
-1056964608
 92
-2
290
1
 42
2.0
291
1
 43
8.0
  3
Standard
 44
4.0
300

342
29
174
1
175
1
176
0
178
1
 93
-1056964608
 45
4.0
292
0
297
0
 46
4.0
 94
-1056964608
 47
1.0
 49
1.0
140
1.0
294
1
141
0.0
177
0
142
1.0
295
0
296
0
143
3.75
271
0
272
9
273
9
  0
DICTIONARY
  5
2D
330
A
100
AcDbDictionary
281
1
  3
CREATED_BY_EZDXF
350
2E
  3
WRITTEN_BY_EZDXF
350
BB
  0
DICTIONARYVAR
  5
2E
330
2D
100
DictionaryVariables
280
0
  1
1.3.0 @ 2026-01-06T17:07:24.826366+00:00
  0
VISUALSTYLE
  5
5A
102
{ACAD_REACTORS
330
16
102
}
330
16
100
AcDbVisualStyle
  2
2dWireframe
 70
4
 90
0
 40
0.6
 62
7
290
0
291
0
  0
VISUALSTYLE
  5
5B
102
{ACAD_REACTORS
330
16
102
}
330
16
100
AcDbVisualStyle
  2
Basic
 70
7
 90
1
 40
0.6
 62
7
290
0
291
1
  0
VISUALSTYLE
  5
5C
102
{ACAD_REACTORS
330
16
102
}
330
16
100
AcDbVisualStyle
  2
Brighten
 70
12
 90
2
 40
0.6
 62
7
290
0
291
1
  0
VISUALSTYLE
  5
5D
102
{ACAD_REACTORS
330
16
102
}
330
16
100
AcDbVisualStyle
  2
ColorChange
 70
16
 90
2
 40
0.6
 62
8
290
0
291
1
  0
VISUALSTYLE
  5
5E
102
{ACAD_REACTORS
330
16
102
}
330
16
100
AcDbVisualStyle
  2
Conceptual
 70
9
 90
3
 40
0.6
 62
7
290
0
291
0
  0
VISUALSTYLE
  5
5F
102
{ACAD_REACTORS
330
16
102
}
330
16
100
AcDbVisualStyle
  2
Dim
 70
11
 90
2
 40
0.6
 62
7
290
0
291
1
  0
VISUALSTYLE
  5
60
102
{ACAD_REACTORS
330
16
102
}
330
16
100
AcDbVisualStyle
  2
EdgeColorOff
 70
22
 90
2
 40
0.6
 62
7
290
0
291
1
  0
VISUALSTYLE
  5
61
102
{ACAD_REACTORS
330
16
102
}
330
16
100
AcDbVisualStyle
  2
Facepattern
 70
15
 90
2
 40
0.6
 62
7
290
0
291
1
  0
VISUALSTYLE
  5
62
102
{ACAD_REACTORS
330
16
102
}
330
16
100
AcDbVisualStyle
  2
Flat
 70
0
 90
2
 40
0.6
 62
7
290
0
291
1
  0
VISUALSTYLE
  5
63
102
{ACAD_REACTORS
330
16
102
}
330
16
100
AcDbVisualStyle
  2
FlatWithEdges
 70
1
 90
2
 40
0.6
 62
7
290
0
291
1
  0
VISUALSTYLE
  5
64
102
{ACAD_REACTORS
330
16
102
}
330
16
100
AcDbVisualStyle
  2
Gouraud
 70
2
 90
2
 40
0.6
 62
7
290
0
291
1
  0
VISUALSTYLE
  5
65
102
{ACAD_REACTORS
330
16
102
}
330
16
100
AcDbVisualStyle
  2
GouraudWithEdges
 70
3
 90
2
 40
0.6
 62
7
290
0
291
1
  0
VISUALSTYLE
  5
66
102
{ACAD_REACTORS
330
16
102
}
330
16
100
AcDbVisualStyle
  2
Hidden
 70
6
 90
1
 40
0.6
 62
7
290
0
291
0
  0
VISUALSTYLE
  5
67
102
{ACAD_REACTORS
330
16
102
}
330
16
100
AcDbVisualStyle
  2
JitterOff
 70
20
 90
2
 40
0.6
 62
7
290
0
291
1
  0
VISUALSTYLE
  5
68
102
{ACAD_REACTORS
330
16
102
}
330
16
100
AcDbVisualStyle
  2
Linepattern
 70
14
 90
2
 40
0.6
 62
7
290
0
291
1
  0
VISUALSTYLE
  5
69
102
{ACAD_REACTORS
330
16
102
}
330
16
100
AcDbVisualStyle
  2
Modeling
 70
10
 90
2
 40
0.6
 62
7
290
0
291
0
  0
VISUALSTYLE
  5
6A
102
{ACAD_REACTORS
330
16
102
}
330
16
100
AcDbVisualStyle
  2
OverhangOff
 70
21
 90
2
 40
0.6
 62
7
290
0
291
1
  0
VISUALSTYLE
  5
6B
102
{ACAD_REACTORS
330
16
102
}
330
16
100
AcDbVisualStyle
  2
Realistic
 70
8
 90
2
 40
0.6
 62
7
290
0
291
0
  0
VISUALSTYLE
  5
6C
102
{ACAD_REACTORS
330
16
102
}
330
16
100
AcDbVisualStyle
  2
Shaded
 70
27
 90
2
 40
0.6
 62
7
290
0
291
0
  0
VISUALSTYLE
  5
6D
102
{ACAD_REACTORS
330
16
102
}
330
16
100
AcDbVisualStyle
  2
Shaded with edges
 70
26
 90
2
 40
0.6
 62
7
290
0
291
0
  0
VISUALSTYLE
  5
6E
102
{ACAD_REACTORS
330
16
102
}
330
16
100
AcDbVisualStyle
  2
Shades of Gray
 70
23
 90
2
 40
0.6
 62
7
290
0
291
0
  0
VISUALSTYLE
  5
6F
102
{ACAD_REACTORS
330
16
102
}
330
16
100
AcDbVisualStyle
  2
Sketchy
 70
24
 90
1
 40
0.6
 62
7
290
0
291
0
  0
VISUALSTYLE
  5
70
102
{ACAD_REACTORS
330
16
102
}
330
16
100
AcDbVisualStyle
  2
Thicken
 70
13
 90
2
 40
0.6
 62
7
290
0
291
1
  0
VISUALSTYLE
  5
71
102
{ACAD_REACTORS
330
16
102
}
330
16
100
AcDbVisualStyle
  2
Wireframe
 70
5
 90
0
 40
0.6
 62
7
290
0
291
0
  0
VISUALSTYLE
  5
72
102
{ACAD_REACTORS
330
16
102
}
330
16
100
AcDbVisualStyle
  2
X-Ray
 70
25
 90
2
 40
0.5
 62
7
290
0
291
0
  0
DICTIONARYVAR
  5
BB
330
2D
100
DictionaryVariables
280
0
  1
1.3.0 @ 2026-01-06T17:07:24.888994+00:00
  0
ENDSEC
  0
EOF
