  0
SECTION
  2
HEADER
  9
$ACADVER
  1
AC1021
  9
$ACADMAINTVER
 70
25
  9
$DWGCODEPAGE
  3
ANSI_1252
  9
$LASTSAVEDBY
  1
ezdxf
  9
$INSBASE
 10
0.0
 20
0.0
 30
0.0
  9
$EXTMIN
 10
1e+20
 20
1e+20
 30
1e+20
  9
$EXTMAX
 10
-1e+20
 20
-1e+20
 30
-1e+20
  9
$LIMMIN
 10
0.0
 20
0.0
  9
$LIMMAX
 10
420.0
 20
297.0
  9
$ORTHOMODE
 70
0
  9
$REGENMODE
 70
1
  9
$FILLMODE
 70
1
  9
$QTEXTMODE
 70
0
  9
$MIRRTEXT
 70
1
  9
$LTSCALE
 40
1.0
  9
$ATTMODE
 70
1
  9
$TEXTSIZE
 40
2.5
  9
$TRACEWID
 40
1.0
  9
$TEXTSTYLE
  7
OpenSans
  9
$CLAYER
  8
0
  9
$CELTYPE
  6
ByLayer
  9
$CECOLOR
 62
256
  9
$CELTSCALE
 40
1.0
  9
$DISPSILH
 70
0
  9
$DIMSCALE
 40
1.0
  9
$DIMASZ
 40
0.175
  9
$DIMEXO
 40
0.125
  9
$DIMDLI
 40
3.75
  9
$DIMRND
 40
0.0
  9
$DIMDLE
 40
0.0
  9
$DIMEXE
 40
0.375
  9
$DIMTP
 40
0.0
  9
$DIMTM
 40
0.0
  9
$DIMTXT
 40
0.25
  9
$DIMCEN
 40
2.5
  9
$DIMTSZ
 40
0.0
  9
$DIMTOL
 70
0
  9
$DIMLIM
 70
0
  9
$DIMTIH
 70
0
  9
$DIMTOH
 70
0
  9
$DIMSE1
 70
0
  9
$DIMSE2
 70
0
  9
$DIMTAD
 70
1
  9
$DIMZIN
 70
12
  9
$DIMBLK
  1
ARCHTICK
  9
$DIMASO
 70
1
  9
$DIMSHO
 70
1
  9
$DIMPOST
  1

  9
$DIMAPOST
  1

  9
$DIMALT
 70
0
  9
$DIMALTD
 70
3
  9
$DIMALTF
 40
0.03937007874
  9
$DIMLFAC
 40
100.0
  9
$DIMTOFL
 70
1
  9
$DIMTVP
 40
0.0
  9
$DIMTIX
 70
0
  9
$DIMSOXD
 70
0
  9
$DIMSAH
 70
0
  9
$DIMBLK1
  1

  9
$DIMBLK2
  1

  9
$DIMSTYLE
  2
EZDXF
  9
$DIMCLRD
 70
0
  9
$DIMCLRE
 70
0
  9
$DIMCLRT
 70
0
  9
$DIMTFAC
 40
0.5
  9
$DIMGAP
 40
0.1
  9
$DIMJUST
 70
0
  9
$DIMSD1
 70
0
  9
$DIMSD2
 70
0
  9
$DIMTOLJ
 70
0
  9
$DIMTZIN
 70
8
  9
$DIMALTZ
 70
0
  9
$DIMALTTZ
 70
0
  9
$DIMUPT
 70
1
  9
$DIMDEC
 70
2
  9
$DIMTDEC
 70
2
  9
$DIMALTU
 70
2
  9
$DIMALTTD
 70
3
  9
$DIMTXSTY
  7
OpenSansCondensed-Light
  9
$DIMAUNIT
 70
0
  9
$DIMADEC
 70
2
  9
$DIMALTRND
 40
0.0
  9
$DIMAZIN
 70
3
  9
$DIMDSEP
 70
46
  9
$DIMATFIT
 70
3
  9
$DIMFRAC
 70
0
  9
$DIMLDRBLK
  1

  9
$DIMLUNIT
 70
2
  9
$DIMLWD
 70
-2
  9
$DIMLWE
 70
-2
  9
$DIMTMOVE
 70
2
  9
$DIMFXL
 40
1.0
  9
$DIMFXLON
 70
0
  9
$DIMJOGANG
 40
0.785398163397
  9
$DIMTFILL
 70
0
  9
$DIMTFILLCLR
 70
0
  9
$DIMARCSYM
 70
0
  9
$DIMLTYPE
  6

  9
$DIMLTEX1
  6

  9
$DIMLTEX2
  6

  9
$LUNITS
 70
2
  9
$LUPREC
 70
4
  9
$SKETCHINC
 40
1.0
  9
$FILLETRAD
 40
10.0
  9
$AUNITS
 70
0
  9
$AUPREC
 70
2
  9
$MENU
  1
.
  9
$ELEVATION
 40
0.0
  9
$PELEVATION
 40
0.0
  9
$THICKNESS
 40
0.0
  9
$LIMCHECK
 70
0
  9
$CHAMFERA
 40
0.0
  9
$CHAMFERB
 40
0.0
  9
$CHAMFERC
 40
0.0
  9
$CHAMFERD
 40
0.0
  9
$SKPOLY
 70
0
  9
$TDCREATE
 40
2461048.0884837965
  9
$TDUCREATE
 40
2458532.153996898
  9
$TDUPDATE
 40
2461048.0884837965
  9
$TDUUPDATE
 40
2458532.1544311
  9
$TDINDWG
 40
0.0
  9
$TDUSRTIMER
 40
0.0
  9
$USRTIMER
 70
1
  9
$ANGBASE
 50
0.0
  9
$ANGDIR
 70
0
  9
$PDMODE
 70
0
  9
$PDSIZE
 40
0.0
  9
$PLINEWID
 40
0.0
  9
$SPLFRAME
 70
0
  9
$SPLINETYPE
 70
6
  9
$SPLINESEGS
 70
8
  9
$HANDSEED
  5
B2
  9
$SURFTAB1
 70
6
  9
$SURFTAB2
 70
6
  9
$SURFTYPE
 70
6
  9
$SURFU
 70
6
  9
$SURFV
 70
6
  9
$UCSBASE
  2

  9
$UCSNAME
  2

  9
$UCSORG
 10
0.0
 20
0.0
 30
0.0
  9
$UCSXDIR
 10
1.0
 20
0.0
 30
0.0
  9
$UCSYDIR
 10
0.0
 20
1.0
 30
0.0
  9
$UCSORTHOREF
  2

  9
$UCSORTHOVIEW
 70
0
  9
$UCSORGTOP
 10
0.0
 20
0.0
 30
0.0
  9
$UCSORGBOTTOM
 10
0.0
 20
0.0
 30
0.0
  9
$UCSORGLEFT
 10
0.0
 20
0.0
 30
0.0
  9
$UCSORGRIGHT
 10
0.0
 20
0.0
 30
0.0
  9
$UCSORGFRONT
 10
0.0
 20
0.0
 30
0.0
  9
$UCSORGBACK
 10
0.0
 20
0.0
 30
0.0
  9
$PUCSBASE
  2

  9
$PUCSNAME
  2

  9
$PUCSORG
 10
0.0
 20
0.0
 30
0.0
  9
$PUCSXDIR
 10
1.0
 20
0.0
 30
0.0
  9
$PUCSYDIR
 10
0.0
 20
1.0
 30
0.0
  9
$PUCSORTHOREF
  2

  9
$PUCSORTHOVIEW
 70
0
  9
$PUCSORGTOP
 10
0.0
 20
0.0
 30
0.0
  9
$PUCSORGBOTTOM
 10
0.0
 20
0.0
 30
0.0
  9
$PUCSORGLEFT
 10
0.0
 20
0.0
 30
0.0
  9
$PUCSORGRIGHT
 10
0.0
 20
0.0
 30
0.0
  9
$PUCSORGFRONT
 10
0.0
 20
0.0
 30
0.0
  9
$PUCSORGBACK
 10
0.0
 20
0.0
 30
0.0
  9
$USERI1
 70
0
  9
$USERI2
 70
0
  9
$USERI3
 70
0
  9
$USERI4
 70
0
  9
$USERI5
 70
0
  9
$USERR1
 40
0.0
  9
$USERR2
 40
0.0
  9
$USERR3
 40
0.0
  9
$USERR4
 40
0.0
  9
$USERR5
 40
0.0
  9
$WORLDVIEW
 70
1
  9
$SHADEDGE
 70
3
  9
$SHADEDIF
 70
70
  9
$TILEMODE
 70
1
  9
$MAXACTVP
 70
64
  9
$PINSBASE
 10
0.0
 20
0.0
 30
0.0
  9
$PLIMCHECK
 70
0
  9
$PEXTMIN
 10
1e+20
 20
1e+20
 30
1e+20
  9
$PEXTMAX
 10
-1e+20
 20
-1e+20
 30
-1e+20
  9
$PLIMMIN
 10
0.0
 20
0.0
  9
$PLIMMAX
 10
420.0
 20
297.0
  9
$UNITMODE
 70
0
  9
$VISRETAIN
 70
1
  9
$PLINEGEN
 70
0
  9
$PSLTSCALE
 70
1
  9
$TREEDEPTH
 70
3020
  9
$CMLSTYLE
  2
Standard
  9
$CMLJUST
 70
0
  9
$CMLSCALE
 40
20.0
  9
$PROXYGRAPHICS
 70
1
  9
$MEASUREMENT
 70
1
  9
$CELWEIGHT
370
-1
  9
$ENDCAPS
280
0
  9
$JOINSTYLE
280
0
  9
$LWDISPLAY
290
0
  9
$INSUNITS
 70
6
  9
$HYPERLINKBASE
  1

  9
$STYLESHEET
  1

  9
$XEDIT
290
1
  9
$CEPSNTYPE
380
0
  9
$PSTYLEMODE
290
1
  9
$FINGERPRINTGUID
  2
{DEEF5E0B-37FC-4E7D-B865-74631E5C9D64}
  9
$VERSIONGUID
  2
{AB6ABE32-D7EA-499C-8C93-05648850DD64}
  9
$EXTNAMES
290
1
  9
$PSVPSCALE
 40
0.0
  9
$OLESTARTUP
290
0
  9
$SORTENTS
280
127
  9
$INDEXCTL
280
0
  9
$HIDETEXT
280
1
  9
$XCLIPFRAME
290
1
  9
$HALOGAP
280
0
  9
$OBSCOLOR
 70
257
  9
$OBSLTYPE
280
0
  9
$INTERSECTIONDISPLAY
280
0
  9
$INTERSECTIONCOLOR
 70
257
  9
$DIMASSOC
280
2
  9
$PROJECTNAME
  1

  9
$CAMERADISPLAY
290
0
  9
$LENSLENGTH
 40
50.0
  9
$CAMERAHEIGHT
 40
0.0
  9
$STEPSPERSEC
 40
24.0
  9
$STEPSIZE
 40
100.0
  9
$3DDWFPREC
 40
2.0
  9
$PSOLWIDTH
 40
0.005
  9
$PSOLHEIGHT
 40
0.08
  9
$LOFTANG1
 40
1.570796326795
  9
$LOFTANG2
 40
1.570796326795
  9
$LOFTMAG1
 40
0.0
  9
$LOFTMAG2
 40
0.0
  9
$LOFTPARAM
 70
7
  9
$LOFTNORMALS
280
1
  9
$LATITUDE
 40
37.795
  9
$LONGITUDE
 40
-122.394
  9
$NORTHDIRECTION
 40
0.0
  9
$TIMEZONE
 70
-8000
  9
$LIGHTGLYPHDISPLAY
280
1
  9
$TILEMODELIGHTSYNCH
280
1
  9
$CMATERIAL
347
20
  9
$SOLIDHIST
280
0
  9
$SHOWHIST
280
1
  9
$DWFFRAME
280
2
  9
$DGNFRAME
280
2
  9
$REALWORLDSCALE
290
1
  9
$INTERFERECOLOR
 62
256
  9
$CSHADOW
280
0
  9
$SHADOWPLANELOCATION
 40
0.0
  0
ENDSEC
  0
SECTION
  2
CLASSES
  0
CLASS
  1
ACDBDICTIONARYWDFLT
  2
AcDbDictionaryWithDefault
  3
ObjectDBX Classes
 90
0
 91
0
280
0
281
0
  0
CLASS
  1
SUN
  2
AcDbSun
  3
SCENEOE
 90
1153
 91
0
280
0
281
0
  0
CLASS
  1
VISUALSTYLE
  2
AcDbVisualStyle
  3
ObjectDBX Classes
 90
4095
 91
0
280
0
281
0
  0
CLASS
  1
MATERIAL
  2
AcDbMaterial
  3
ObjectDBX Classes
 90
1153
 91
0
280
0
281
0
  0
CLASS
  1
SCALE
  2
AcDbScale
  3
ObjectDBX Classes
 90
1153
 91
0
280
0
281
0
  0
CLASS
  1
TABLESTYLE
  2
AcDbTableStyle
  3
ObjectDBX Classes
 90
4095
 91
0
280
0
281
0
  0
CLASS
  1
MLEADERSTYLE
  2
AcDbMLeaderStyle
  3
ACDB_MLEADERSTYLE_CLASS
 90
4095
 91
0
280
0
281
0
  0
CLASS
  1
DICTIONARYVAR
  2
AcDbDictionaryVar
  3
ObjectDBX Classes
 90
0
 91
0
280
0
281
0
  0
CLASS
  1
CELLSTYLEMAP
  2
AcDbCellStyleMap
  3
ObjectDBX Classes
 90
1152
 91
0
280
0
281
0
  0
CLASS
  1
MENTALRAYRENDERSETTINGS
  2
AcDbMentalRayRenderSettings
  3
SCENEOE
 90
1024
 91
0
280
0
281
0
  0
CLASS
  1
ACDBDETAILVIEWSTYLE
  2
AcDbDetailViewStyle
  3
ObjectDBX Classes
 90
1025
 91
0
280
0
281
0
  0
CLASS
  1
ACDBSECTIONVIEWSTYLE
  2
AcDbSectionViewStyle
  3
ObjectDBX Classes
 90
1025
 91
0
280
0
281
0
  0
CLASS
  1
RASTERVARIABLES
  2
AcDbRasterVariables
  3
ISM
 90
0
 91
0
280
0
281
0
  0
CLASS
  1
ACDBPLACEHOLDER
  2
AcDbPlaceHolder
  3
ObjectDBX Classes
 90
0
 91
0
280
0
281
0
  0
CLASS
  1
LAYOUT
  2
AcDbLayout
  3
ObjectDBX Classes
 90
0
 91
0
280
0
281
0
  0
ENDSEC
  0
SECTION
  2
TABLES
  0
TABLE
  2
VPORT
  5
8
330
0
100
AcDbSymbolTable
 70
1
  0
VPORT
  5
23
330
8
100
AcDbSymbolTableRecord
100
AcDbViewportTableRecord
  2
*Active
 70
0
 10
0.0
 20
0.0
 11
1.0
 21
1.0
 12
0.0
 22
0.0
 13
0.0
 23
0.0
 14
0.5
 24
0.5
 15
0.5
 25
0.5
 16
0.0
 26
0.0
 36
1.0
 17
0.0
 27
0.0
 37
0.0
 40
1000.0
 41
1.34
 42
50.0
 43
0.0
 44
0.0
 50
0.0
 51
0.0
 71
0
 72
1000
 73
1
 74
3
 75
0
 76
0
 77
0
 78
0
281
0
 65
0
146
0.0
  0
ENDTAB
  0
TABLE
  2
LTYPE
  5
2
330
0
100
AcDbSymbolTable
 70
21
  0
LTYPE
  5
24
330
2
100
AcDbSymbolTableRecord
100
AcDbLinetypeTableRecord
  2
ByBlock
 70
0
  3

 72
65
 73
0
 40
0.0
  0
LTYPE
  5
25
330
2
100
AcDbSymbolTableRecord
100
AcDbLinetypeTableRecord
  2
ByLayer
 70
0
  3

 72
65
 73
0
 40
0.0
  0
LTYPE
  5
26
330
2
100
AcDbSymbolTableRecord
100
AcDbLinetypeTableRecord
  2
Continuous
 70
0
  3

 72
65
 73
0
 40
0.0
  0
LTYPE
  5
2F
330
2
100
AcDbSymbolTableRecord
100
AcDbLinetypeTableRecord
  2
CENTER
 70
0
  3
Center ____ _ ____ _ ____ _ ____ _ ____ _ ____
 72
65
 73
4
 40
5.08
 49
3.175
 74
0
 49
-0.635
 74
0
 49
0.635
 74
0
 49
-0.635
 74
0
  0
LTYPE
  5
30
330
2
100
AcDbSymbolTableRecord
100
AcDbLinetypeTableRecord
  2
CENTERX2
 70
0
  3
Center (2x) ________  __  ________  __  ________
 72
65
 73
4
 40
8.89
 49
6.35
 74
0
 49
-0.635
 74
0
 49
1.27
 74
0
 49
-0.635
 74
0
  0
LTYPE
  5
31
330
2
100
AcDbSymbolTableRecord
100
AcDbLinetypeTableRecord
  2
CENTER2
 70
0
  3
Center (.5x) ____ _ ____ _ ____ _ ____ _ ____
 72
65
 73
4
 40
2.54
 49
1.587
 74
0
 49
-0.318
 74
0
 49
0.318
 74
0
 49
-0.318
 74
0
  0
LTYPE
  5
32
330
2
100
AcDbSymbolTableRecord
100
AcDbLinetypeTableRecord
  2
DASHED
 70
0
  3
Dashed __ __ __ __ __ __ __ __ __ __ __ __ __ _
 72
65
 73
2
 40
1.524
 49
1.27
 74
0
 49
-0.254
 74
0
  0
LTYPE
  5
33
330
2
100
AcDbSymbolTableRecord
100
AcDbLinetypeTableRecord
  2
DASHEDX2
 70
0
  3
Dashed (2x) ____  ____  ____  ____  ____  ____
 72
65
 73
2
 40
3.048
 49
2.54
 74
0
 49
-0.508
 74
0
  0
LTYPE
  5
34
330
2
100
AcDbSymbolTableRecord
100
AcDbLinetypeTableRecord
  2
DASHED2
 70
0
  3
Dashed (.5x) _ _ _ _ _ _ _ _ _ _ _ _ _ _
 72
65
 73
2
 40
0.762
 49
0.635
 74
0
 49
-0.127
 74
0
  0
LTYPE
  5
35
330
2
100
AcDbSymbolTableRecord
100
AcDbLinetypeTableRecord
  2
PHANTOM
 70
0
  3
Phantom ______  __  __  ______  __  __  ______
 72
65
 73
6
 40
6.35
 49
3.175
 74
0
 49
-0.635
 74
0
 49
0.635
 74
0
 49
-0.635
 74
0
 49
0.635
 74
0
 49
-0.635
 74
0
  0
LTYPE
  5
36
330
2
100
AcDbSymbolTableRecord
100
AcDbLinetypeTableRecord
  2
PHANTOMX2
 70
0
  3
Phantom (2x)____________    ____    ____    ____________
 72
65
 73
6
 40
10.795
 49
6.35
 74
0
 49
-0.635
 74
0
 49
1.27
 74
0
 49
-0.635
 74
0
 49
1.27
 74
0
 49
-0.635
 74
0
  0
LTYPE
  5
37
330
2
100
AcDbSymbolTableRecord
100
AcDbLinetypeTableRecord
  2
PHANTOM2
 70
0
  3
Phantom (.5x) ___ _ _ ___ _ _ ___ _ _ ___ _ _ ___
 72
65
 73
6
 40
3.175
 49
1.587
 74
0
 49
-0.318
 74
0
 49
0.318
 74
0
 49
-0.318
 74
0
 49
0.318
 74
0
 49
-0.318
 74
0
  0
LTYPE
  5
38
330
2
100
AcDbSymbolTableRecord
100
AcDbLinetypeTableRecord
  2
DASHDOT
 70
0
  3
Dash dot __ . __ . __ . __ . __ . __ . __ . __
 72
65
 73
4
 40
3.556
 49
2.54
 74
0
 49
-0.508
 74
0
 49
0.0
 74
0
 49
-0.508
 74
0
  0
LTYPE
  5
39
330
2
100
AcDbSymbolTableRecord
100
AcDbLinetypeTableRecord
  2
DASHDOTX2
 70
0
  3
Dash dot (2x) ____  .  ____  .  ____  .  ____
 72
65
 73
4
 40
6.096
 49
5.08
 74
0
 49
-0.508
 74
0
 49
0.0
 74
0
 49
-0.508
 74
0
  0
LTYPE
  5
3A
330
2
100
AcDbSymbolTableRecord
100
AcDbLinetypeTableRecord
  2
DASHDOT2
 70
0
  3
Dash dot (.5x) _ . _ . _ . _ . _ . _ . _ . _
 72
65
 73
4
 40
1.778
 49
1.27
 74
0
 49
-0.254
 74
0
 49
0.0
 74
0
 49
-0.254
 74
0
  0
LTYPE
  5
3B
330
2
100
AcDbSymbolTableRecord
100
AcDbLinetypeTableRecord
  2
DOT
 70
0
  3
Dot .  .  .  .  .  .  .  .  .  .  .  .  .  .  .  .
 72
65
 73
2
 40
0.508
 49
0.0
 74
0
 49
-0.508
 74
0
  0
LTYPE
  5
3C
330
2
100
AcDbSymbolTableRecord
100
AcDbLinetypeTableRecord
  2
DOTX2
 70
0
  3
Dot (2x) .    .    .    .    .    .    .    . 
 72
65
 73
2
 40
1.016
 49
0.0
 74
0
 49
-1.016
 74
0
  0
LTYPE
  5
3D
330
2
100
AcDbSymbolTableRecord
100
AcDbLinetypeTableRecord
  2
DOT2
 70
0
  3
Dot (.5) . . . . . . . . . . . . . . . . . . . 
 72
65
 73
2
 40
0.254
 49
0.0
 74
0
 49
-0.254
 74
0
  0
LTYPE
  5
3E
330
2
100
AcDbSymbolTableRecord
100
AcDbLinetypeTableRecord
  2
DIVIDE
 70
0
  3
Divide __ . . __ . . __ . . __ . . __ . . __
 72
65
 73
6
 40
4.064
 49
2.54
 74
0
 49
-0.508
 74
0
 49
0.0
 74
0
 49
-0.508
 74
0
 49
0.0
 74
0
 49
-0.508
 74
0
  0
LTYPE
  5
3F
330
2
100
AcDbSymbolTableRecord
100
AcDbLinetypeTableRecord
  2
DIVIDEX2
 70
0
  3
Divide (2x) ____  . .  ____  . .  ____  . .  ____
 72
65
 73
6
 40
6.604
 49
5.08
 74
0
 49
-0.508
 74
0
 49
0.0
 74
0
 49
-0.508
 74
0
 49
0.0
 74
0
 49
-0.508
 74
0
  0
LTYPE
  5
40
330
2
100
AcDbSymbolTableRecord
100
AcDbLinetypeTableRecord
  2
DIVIDE2
 70
0
  3
Divide(.5x) _ . _ . _ . _ . _ . _ . _ . _
 72
65
 73
6
 40
2.032
 49
1.27
 74
0
 49
-0.254
 74
0
 49
0.0
 74
0
 49
-0.254
 74
0
 49
0.0
 74
0
 49
-0.254
 74
0
  0
ENDTAB
  0
TABLE
  2
LAYER
  5
1
330
0
100
AcDbSymbolTable
 70
4
  0
LAYER
  5
27
330
1
100
AcDbSymbolTableRecord
100
AcDbLayerTableRecord
  2
0
 70
0
 62
7
  6
Continuous
370
-3
390
13
347
21
  0
LAYER
  5
28
330
1
100
AcDbSymbolTableRecord
100
AcDbLayerTableRecord
  2
Defpoints
 70
0
 62
7
  6
Continuous
290
0
370
-3
390
13
347
21
  0
LAYER
  5
8A
330
1
100
AcDbSymbolTableRecord
100
AcDbLayerTableRecord
  2
Layer
 70
0
 62
1
  6
Continuous
370
50
390
13
347
21
  0
LAYER
  5
8B
330
1
100
AcDbSymbolTableRecord
100
AcDbLayerTableRecord
  2
NumLabel
 70
0
 62
1
  6
Continuous
370
15
390
13
347
21
  0
ENDTAB
  0
TABLE
  2
STYLE
  5
5
330
0
100
AcDbSymbolTable
 70
26
  0
STYLE
  5
29
330
5
100
AcDbSymbolTableRecord
100
AcDbTextStyleTableRecord
  2
Standard
 70
0
 40
0.0
 41
1.0
 50
0.0
 71
0
 42
2.5
  3
txt
  4

  0
STYLE
  5
41
330
5
100
AcDbSymbolTableRecord
100
AcDbTextStyleTableRecord
  2
OpenSans-Light
 70
0
 40
0.0
 41
1.0
 50
0.0
 71
0
 42
2.5
  3
OpenSans-Light.ttf
  4

  0
STYLE
  5
42
330
5
100
AcDbSymbolTableRecord
100
AcDbTextStyleTableRecord
  2
OpenSans-Light-Italic
 70
0
 40
0.0
 41
1.0
 50
0.0
 71
0
 42
2.5
  3
OpenSans-LightItalic.ttf
  4

  0
STYLE
  5
43
330
5
100
AcDbSymbolTableRecord
100
AcDbTextStyleTableRecord
  2
OpenSans
 70
0
 40
0.0
 41
1.0
 50
0.0
 71
0
 42
2.5
  3
OpenSans-Regular.ttf
  4

  0
STYLE
  5
44
330
5
100
AcDbSymbolTableRecord
100
AcDbTextStyleTableRecord
  2
OpenSans-Italic
 70
0
 40
0.0
 41
1.0
 50
0.0
 71
0
 42
2.5
  3
OpenSans-Italic.ttf
  4

  0
STYLE
  5
45
330
5
100
AcDbSymbolTableRecord
100
AcDbTextStyleTableRecord
  2
OpenSans-SemiBold
 70
0
 40
0.0
 41
1.0
 50
0.0
 71
0
 42
2.5
  3
OpenSans-SemiBold.ttf
  4

  0
STYLE
  5
46
330
5
100
AcDbSymbolTableRecord
100
AcDbTextStyleTableRecord
  2
OpenSans-SemiBoldItalic
 70
0
 40
0.0
 41
1.0
 50
0.0
 71
0
 42
2.5
  3
OpenSans-SemiBoldItalic.ttf
  4

  0
STYLE
  5
47
330
5
100
AcDbSymbolTableRecord
100
AcDbTextStyleTableRecord
  2
OpenSans-Bold
 70
0
 40
0.0
 41
1.0
 50
0.0
 71
0
 42
2.5
  3
OpenSans-Bold.ttf
  4

  0
STYLE
  5
48
330
5
100
AcDbSymbolTableRecord
100
AcDbTextStyleTableRecord
  2
OpenSans-BoldItalic
 70
0
 40
0.0
 41
1.0
 50
0.0
 71
0
 42
2.5
  3
OpenSans-BoldItalic.ttf
  4

  0
STYLE
  5
49
330
5
100
AcDbSymbolTableRecord
100
AcDbTextStyleTableRecord
  2
OpenSans-ExtraBold
 70
0
 40
0.0
 41
1.0
 50
0.0
 71
0
 42
2.5
  3
OpenSans-ExtraBold.ttf
  4

  0
STYLE
  5
4A
330
5
100
AcDbSymbolTableRecord
100
AcDbTextStyleTableRecord
  2
OpenSans-ExtraBoldItalic
 70
0
 40
0.0
 41
1.0
 50
0.0
 71
0
 42
2.5
  3
OpenSans-ExtraBoldItalic.ttf
  4

  0
STYLE
  5
4B
330
5
100
AcDbSymbolTableRecord
100
AcDbTextStyleTableRecord
  2
OpenSansCondensed-Bold
 70
0
 40
0.0
 41
1.0
 50
0.0
 71
0
 42
2.5
  3
OpenSansCondensed-Bold.ttf
  4

  0
STYLE
  5
4C
330
5
100
AcDbSymbolTableRecord
100
AcDbTextStyleTableRecord
  2
OpenSansCondensed-Light
 70
0
 40
0.0
 41
1.0
 50
0.0
 71
0
 42
2.5
  3
OpenSansCondensed-Light.ttf
  4

  0
STYLE
  5
4D
330
5
100
AcDbSymbolTableRecord
100
AcDbTextStyleTableRecord
  2
OpenSansCondensed-Italic
 70
0
 40
0.0
 41
1.0
 50
0.0
 71
0
 42
2.5
  3
OpenSansCondensed-LightItalic.ttf
  4

  0
STYLE
  5
4E
330
5
100
AcDbSymbolTableRecord
100
AcDbTextStyleTableRecord
  2
LiberationSans
 70
0
 40
0.0
 41
1.0
 50
0.0
 71
0
 42
2.5
  3
LiberationSans-Regular.ttf
  4

  0
STYLE
  5
4F
330
5
100
AcDbSymbolTableRecord
100
AcDbTextStyleTableRecord
  2
LiberationSans-Bold
 70
0
 40
0.0
 41
1.0
 50
0.0
 71
0
 42
2.5
  3
LiberationSans-Bold.ttf
  4

  0
STYLE
  5
50
330
5
100
AcDbSymbolTableRecord
100
AcDbTextStyleTableRecord
  2
LiberationSans-BoldItalic
 70
0
 40
0.0
 41
1.0
 50
0.0
 71
0
 42
2.5
  3
LiberationSans-BoldItalic.ttf
  4

  0
STYLE
  5
51
330
5
100
AcDbSymbolTableRecord
100
AcDbTextStyleTableRecord
  2
LiberationSans-Italic
 70
0
 40
0.0
 41
1.0
 50
0.0
 71
0
 42
2.5
  3
LiberationSans-Italic.ttf
  4

  0
STYLE
  5
52
330
5
100
AcDbSymbolTableRecord
100
AcDbTextStyleTableRecord
  2
LiberationSerif
 70
0
 40
0.0
 41
1.0
 50
0.0
 71
0
 42
2.5
  3
LiberationSerif-Regular.ttf
  4

  0
STYLE
  5
53
330
5
100
AcDbSymbolTableRecord
100
AcDbTextStyleTableRecord
  2
LiberationSerif-Bold
 70
0
 40
0.0
 41
1.0
 50
0.0
 71
0
 42
2.5
  3
LiberationSerif-Bold.ttf
  4

  0
STYLE
  5
54
330
5
100
AcDbSymbolTableRecord
100
AcDbTextStyleTableRecord
  2
LiberationSerif-BoldItalic
 70
0
 40
0.0
 41
1.0
 50
0.0
 71
0
 42
2.5
  3
LiberationSerif-BoldItalic.ttf
  4

  0
STYLE
  5
55
330
5
100
AcDbSymbolTableRecord
100
AcDbTextStyleTableRecord
  2
LiberationSerif-Italic
 70
0
 40
0.0
 41
1.0
 50
0.0
 71
0
 42
2.5
  3
LiberationSerif-Italic.ttf
  4

  0
STYLE
  5
56
330
5
100
AcDbSymbolTableRecord
100
AcDbTextStyleTableRecord
  2
LiberationMono
 70
0
 40
0.0
 41
1.0
 50
0.0
 71
0
 42
2.5
  3
LiberationMono-Regular.ttf
  4

  0
STYLE
  5
57
330
5
100
AcDbSymbolTableRecord
100
AcDbTextStyleTableRecord
  2
LiberationMono-Bold
 70
0
 40
0.0
 41
1.0
 50
0.0
 71
0
 42
2.5
  3
LiberationMono-Bold.ttf
  4

  0
STYLE
  5
58
330
5
100
AcDbSymbolTableRecord
100
AcDbTextStyleTableRecord
  2
LiberationMono-BoldItalic
 70
0
 40
0.0
 41
1.0
 50
0.0
 71
0
 42
2.5
  3
LiberationMono-BoldItalic.ttf
  4

  0
STYLE
  5
59
330
5
100
AcDbSymbolTableRecord
100
AcDbTextStyleTableRecord
  2
LiberationMono-Italic
 70
0
 40
0.0
 41
1.0
 50
0.0
 71
0
 42
2.5
  3
LiberationMono-Italic.ttf
  4

  0
ENDTAB
  0
TABLE
  2
VIEW
  5
7
330
0
100
AcDbSymbolTable
 70
0
  0
ENDTAB
  0
TABLE
  2
UCS
  5
6
330
0
100
AcDbSymbolTable
 70
0
  0
ENDTAB
  0
TABLE
  2
APPID
  5
3
330
0
100
AcDbSymbolTable
 70
3
  0
APPID
  5
2A
330
3
100
AcDbSymbolTableRecord
100
AcDbRegAppTableRecord
  2
ACAD
 70
0
  0
APPID
  5
AF
330
3
100
AcDbSymbolTableRecord
100
AcDbRegAppTableRecord
  2
HATCHBACKGROUNDCOLOR
 70
0
  0
APPID
  5
B0
330
3
100
AcDbSymbolTableRecord
100
AcDbRegAppTableRecord
  2
EZDXF
 70
0
  0
ENDTAB
  0
TABLE
  2
DIMSTYLE
  5
4
330
0
100
AcDbSymbolTable
 70
12
100
AcDbDimStyleTable
  0
DIMSTYLE
105
2B
330
4
100
AcDbSymbolTableRecord
100
AcDbDimStyleTableRecord
  2
Standard
 70
0
 40
1.0
 41
2.5
 42
0.625
 43
3.75
 44
1.25
 45
0.0
 46
0.0
 47
0.0
 48
0.0
 49
2.5
140
2.5
141
2.5
142
0.0
143
0.03937007874
144
1.0
145
0.0
146
1.0
147
0.625
148
0.0
 69
0
 70
0
 71
0
 72
0
 73
0
 74
0
 75
0
 76
0
 77
1
 78
8
 79
3
170
0
171
3
172
1
173
0
174
0
175
0
176
0
177
0
178
0
179
2
271
2
272
2
273
2
274
3
275
0
276
0
277
2
278
44
279
0
280
0
281
0
282
0
283
0
284
8
285
0
286
0
288
0
289
3
290
0
371
-2
372
-2
  0
DIMSTYLE
105
73
330
4
100
AcDbSymbolTableRecord
100
AcDbDimStyleTableRecord
  2
EZDXF
 70
0
 40
1.0
 41
0.175
 42
0.125
 43
3.75
 44
0.375
 45
0.0
 46
0.0
 47
0.0
 48
0.0
 49
2.5
140
0.25
141
2.5
142
0.0
143
0.03937007874
144
100.0
145
0.0
146
0.5
147
0.1
148
0.0
 69
0
 70
0
 71
0
 72
0
 73
0
 74
0
 75
0
 76
0
 77
1
 78
12
 79
3
170
0
171
3
172
1
173
0
174
0
175
0
176
0
177
0
178
0
179
2
271
2
272
2
273
2
274
3
275
0
276
0
277
2
278
46
279
2
280
0
281
0
282
0
283
0
284
8
285
0
286
0
288
1
289
3
290
0
340
4C
342
74
371
-2
372
-2
  0
DIMSTYLE
105
7C
330
4
100
AcDbSymbolTableRecord
100
AcDbDimStyleTableRecord
  2
EZ_M_100_H25_CM
 70
0
 40
1.0
 41
0.25
 42
0.125
 43
3.75
 44
0.375
 45
0.0
 46
0.0
 47
0.0
 48
0.0
 49
2.5
140
0.25
141
2.5
142
0.125
143
0.03937007874
144
100.0
145
0.0
146
0.5
147
0.1
148
0.0
 69
0
 70
0
 71
0
 72
0
 73
0
 74
0
 75
0
 76
0
 77
1
 78
12
 79
3
170
0
171
3
172
1
173
0
174
0
175
0
176
0
177
0
178
0
179
2
271
2
272
2
273
2
274
3
275
0
276
0
277
2
278
46
279
2
280
0
281
0
282
0
283
0
284
8
285
0
286
0
288
1
289
3
290
0
340
4C
371
-2
372
-2
  0
DIMSTYLE
105
7D
330
4
100
AcDbSymbolTableRecord
100
AcDbDimStyleTableRecord
  2
EZ_M_50_H25_CM
 70
0
 40
1.0
 41
0.125
 42
0.0625
 43
3.75
 44
0.1875
 45
0.0
 46
0.0
 47
0.0
 48
0.0
 49
2.5
140
0.125
141
2.5
142
0.0625
143
0.03937007874
144
100.0
145
0.0
146
0.5
147
0.05
148
0.0
 69
0
 70
0
 71
0
 72
0
 73
0
 74
0
 75
0
 76
0
 77
1
 78
12
 79
3
170
0
171
3
172
1
173
0
174
0
175
0
176
0
177
0
178
0
179
2
271
2
272
2
273
2
274
3
275
0
276
0
277
2
278
46
279
2
280
0
281
0
282
0
283
0
284
8
285
0
286
0
288
1
289
3
290
0
340
4C
371
-2
372
-2
  0
DIMSTYLE
105
7E
330
4
100
AcDbSymbolTableRecord
100
AcDbDimStyleTableRecord
  2
EZ_M_25_H25_CM
 70
0
 40
1.0
 41
0.0625
 42
0.03125
 43
3.75
 44
0.09375
 45
0.0
 46
0.0
 47
0.0
 48
0.0
 49
2.5
140
0.0625
141
2.5
142
0.03125
143
0.03937007874
144
100.0
145
0.0
146
0.5
147
0.025
148
0.0
 69
0
 70
0
 71
0
 72
0
 73
0
 74
0
 75
0
 76
0
 77
1
 78
12
 79
3
170
0
171
3
172
1
173
0
174
0
175
0
176
0
177
0
178
0
179
2
271
2
272
2
273
2
274
3
275
0
276
0
277
2
278
46
279
2
280
0
281
0
282
0
283
0
284
8
285
0
286
0
288
1
289
3
290
0
340
4C
371
-2
372
-2
  0
DIMSTYLE
105
7F
330
4
100
AcDbSymbolTableRecord
100
AcDbDimStyleTableRecord
  2
EZ_M_20_H25_CM
 70
0
 40
1.0
 41
0.05
 42
0.025
 43
3.75
 44
0.07500000000000001
 45
0.0
 46
0.0
 47
0.0
 48
0.0
 49
2.5
140
0.05
141
2.5
142
0.025
143
0.03937007874
144
100.0
145
0.0
146
0.5
147
0.020000000000000004
148
0.0
 69
0
 70
0
 71
0
 72
0
 73
0
 74
0
 75
0
 76
0
 77
1
 78
12
 79
3
170
0
171
3
172
1
173
0
174
0
175
0
176
0
177
0
178
0
179
2
271
2
272
2
273
2
274
3
275
0
276
0
277
2
278
46
279
2
280
0
281
0
282
0
283
0
284
8
285
0
286
0
288
1
289
3
290
0
340
4C
371
-2
372
-2
  0
DIMSTYLE
105
80
330
4
100
AcDbSymbolTableRecord
100
AcDbDimStyleTableRecord
  2
EZ_M_10_H25_CM
 70
0
 40
1.0
 41
0.025
 42
0.0125
 43
3.75
 44
0.037500000000000006
 45
0.0
 46
0.0
 47
0.0
 48
0.0
 49
2.5
140
0.025
141
2.5
142
0.0125
143
0.03937007874
144
100.0
145
0.0
146
0.5
147
0.010000000000000002
148
0.0
 69
0
 70
0
 71
0
 72
0
 73
0
 74
0
 75
0
 76
0
 77
1
 78
12
 79
3
170
0
171
3
172
1
173
0
174
0
175
0
176
0
177
0
178
0
179
2
271
2
272
2
273
2
274
3
275
0
276
0
277
2
278
46
279
2
280
0
281
0
282
0
283
0
284
8
285
0
286
0
288
1
289
3
290
0
340
4C
371
-2
372
-2
  0
DIMSTYLE
105
81
330
4
100
AcDbSymbolTableRecord
100
AcDbDimStyleTableRecord
  2
EZ_M_5_H25_CM
 70
0
 40
1.0
 41
0.0125
 42
0.00625
 43
3.75
 44
0.018750000000000003
 45
0.0
 46
0.0
 47
0.0
 48
0.0
 49
2.5
140
0.0125
141
2.5
142
0.00625
143
0.03937007874
144
100.0
145
0.0
146
0.5
147
0.005000000000000001
148
0.0
 69
0
 70
0
 71
0
 72
0
 73
0
 74
0
 75
0
 76
0
 77
1
 78
12
 79
3
170
0
171
3
172
1
173
0
174
0
175
0
176
0
177
0
178
0
179
2
271
2
272
2
273
2
274
3
275
0
276
0
277
2
278
46
279
2
280
0
281
0
282
0
283
0
284
8
285
0
286
0
288
1
289
3
290
0
340
4C
371
-2
372
-2
  0
DIMSTYLE
105
82
330
4
100
AcDbSymbolTableRecord
100
AcDbDimStyleTableRecord
  2
EZ_M_1_H25_CM
 70
0
 40
1.0
 41
0.0025
 42
0.00125
 43
3.75
 44
0.00375
 45
0.0
 46
0.0
 47
0.0
 48
0.0
 49
2.5
140
0.0025
141
2.5
142
0.00125
143
0.03937007874
144
100.0
145
0.0
146
0.5
147
0.001
148
0.0
 69
0
 70
0
 71
0
 72
0
 73
0
 74
0
 75
0
 76
0
 77
1
 78
12
 79
3
170
0
171
3
172
1
173
0
174
0
175
0
176
0
177
0
178
0
179
2
271
2
272
2
273
2
274
3
275
0
276
0
277
2
278
46
279
2
280
0
281
0
282
0
283
0
284
8
285
0
286
0
288
1
289
3
290
0
340
4C
371
-2
372
-2
  0
DIMSTYLE
105
83
330
4
100
AcDbSymbolTableRecord
100
AcDbDimStyleTableRecord
  2
EZ_RADIUS
 70
0
 40
1.0
 41
0.25
 42
0.125
 43
3.75
 44
0.375
 45
0.0
 46
0.0
 47
0.0
 48
0.0
 49
2.5
140
0.25
141
0.0
142
0.0
143
0.03937007874
144
100.0
145
0.0
146
0.5
147
0.1
148
0.0
 69
0
 70
0
 71
0
 72
0
 73
0
 74
0
 75
0
 76
0
 77
1
 78
12
 79
3
170
0
171
3
172
0
173
0
174
0
175
0
176
0
177
0
178
0
179
2
271
2
272
2
273
2
274
3
275
0
276
0
277
2
278
46
279
1
280
0
281
0
282
0
283
0
284
8
285
0
286
0
288
1
289
3
290
0
340
4C
342
84
371
-2
372
-2
  0
DIMSTYLE
105
88
330
4
100
AcDbSymbolTableRecord
100
AcDbDimStyleTableRecord
  2
EZ_RADIUS_INSIDE
 70
0
 40
1.0
 41
0.25
 42
0.125
 43
3.75
 44
0.375
 45
0.0
 46
0.0
 47
0.0
 48
0.0
 49
2.5
140
0.25
141
0.0
142
0.0
143
0.03937007874
144
100.0
145
0.0
146
0.5
147
0.1
148
0.0
 69
0
 70
0
 71
0
 72
0
 73
0
 74
0
 75
0
 76
0
 77
0
 78
12
 79
3
170
0
171
3
172
0
173
0
174
1
175
0
176
0
177
0
178
0
179
2
271
2
272
2
273
2
274
3
275
0
276
0
277
2
278
46
279
0
280
0
281
0
282
0
283
0
284
8
285
0
286
0
288
1
289
0
290
0
340
4C
342
84
371
-2
372
-2
  0
DIMSTYLE
105
89
330
4
100
AcDbSymbolTableRecord
100
AcDbDimStyleTableRecord
  2
EZ_CURVED
 70
0
 40
1.0
 41
0.25
 42
0.125
 43
3.75
 44
0.375
 45
0.0
 46
0.0
 47
0.0
 48
0.0
 49
2.5
140
0.25
141
2.5
142
0.0
143
0.03937007874
144
100.0
145
0.0
146
0.5
147
0.1
148
0.0
 69
0
 70
0
 71
0
 72
0
 73
0
 74
0
 75
0
 76
0
 77
1
 78
12
 79
2
 90
2
170
0
171
3
172
1
173
0
174
0
175
0
176
0
177
0
178
0
179
2
271
2
272
2
273
2
274
3
275
0
276
0
277
2
278
46
279
2
280
0
281
0
282
0
283
0
284
8
285
0
286
0
288
1
289
3
290
0
340
4C
371
-2
372
-2
  0
ENDTAB
  0
TABLE
  2
BLOCK_RECORD
  5
9
330
0
100
AcDbSymbolTable
 70
5
  0
BLOCK_RECORD
  5
17
330
9
100
AcDbSymbolTableRecord
100
AcDbBlockTableRecord
  2
*Model_Space
340
1A
 70
0
280
1
281
0
  0
BLOCK_RECORD
  5
1B
330
9
100
AcDbSymbolTableRecord
100
AcDbBlockTableRecord
  2
*Paper_Space
340
1E
 70
0
280
1
281
0
  0
BLOCK_RECORD
  5
74
330
9
100
AcDbSymbolTableRecord
100
AcDbBlockTableRecord
  2
_ARCHTICK
340
0
 70
0
280
1
281
0
  0
BLOCK_RECORD
  5
78
330
9
100
AcDbSymbolTableRecord
100
AcDbBlockTableRecord
  2
_CLOSEDFILLED
340
0
 70
0
280
1
281
0
  0
BLOCK_RECORD
  5
84
330
9
100
AcDbSymbolTableRecord
100
AcDbBlockTableRecord
  2
_CLOSEDBLANK
340
0
 70
0
280
1
281
0
  0
ENDTAB
  0
ENDSEC
  0
SECTION
  2
BLOCKS
  0
BLOCK
  5
18
330
17
100
AcDbEntity
  8
0
100
AcDbBlockBegin
  2
*Model_Space
 70
0
 10
0.0
 20
0.0
 30
0.0
  3
*Model_Space
  1

  0
ENDBLK
  5
19
330
17
100
AcDbEntity
  8
0
100
AcDbBlockEnd
  0
BLOCK
  5
1C
330
1B
100
AcDbEntity
  8
0
100
AcDbBlockBegin
  2
*Paper_Space
 70
0
 10
0.0
 20
0.0
 30
0.0
  3
*Paper_Space
  1

  0
ENDBLK
  5
1D
330
1B
100
AcDbEntity
  8
0
100
AcDbBlockEnd
  0
BLOCK
  5
75
330
74
100
AcDbEntity
  8
0
100
AcDbBlockBegin
  2
_ARCHTICK
 70
0
 10
0.0
 20
0.0
 30
0.0
  3
_ARCHTICK
  1

  0
LWPOLYLINE
  5
77
330
74
100
AcDbEntity
  8
0
  6
BYBLOCK
 62
0
100
AcDbPolyline
 90
2
 70
0
 43
0.15
 10
-0.5
 20
-0.5
 10
0.5
 20
0.5
  0
ENDBLK
  5
76
330
74
100
AcDbEntity
  8
0
100
AcDbBlockEnd
  0
BLOCK
  5
79
330
78
100
AcDbEntity
  8
0
100
AcDbBlockBegin
  2
_CLOSEDFILLED
 70
0
 10
0.0
 20
0.0
 30
0.0
  3
_CLOSEDFILLED
  1

  0
SOLID
  5
7B
330
78
100
AcDbEntity
  8
0
  6
BYBLOCK
 62
0
100
AcDbTrace
 10
-1.0
 20
0.16439898372402537
 30
0.0
 11
0.0
 21
0.0
 31
0.0
 12
-1.0
 22
-0.16439898372402537
 32
0.0
 13
-1.0
 23
-0.16439898372402537
 33
0.0
  0
ENDBLK
  5
7A
330
78
100
AcDbEntity
  8
0
100
AcDbBlockEnd
  0
BLOCK
  5
85
330
84
100
AcDbEntity
  8
0
100
AcDbBlockBegin
  2
_CLOSEDBLANK
 70
0
 10
0.0
 20
0.0
 30
0.0
  3
_CLOSEDBLANK
  1

  0
LWPOLYLINE
  5
87
330
84
100
AcDbEntity
  8
0
  6
BYBLOCK
 62
0
100
AcDbPolyline
 90
3
 70
1
 10
-1.0
 20
0.16439898372402537
 10
0.0
 20
0.0
 10
-1.0
 20
-0.16439898372402537
  0
ENDBLK
  5
86
330
84
100
AcDbEntity
  8
0
100
AcDbBlockEnd
  0
ENDSEC
  0
SECTION
  2
ENTITIES
  0
LWPOLYLINE
  5
8C
330
17
100
AcDbEntity
  8
Layer
100
AcDbPolyline
 90
261
 70
1
 10
356.3776638226461
 20
178.8680401577616
 10
354.7793854215374
 20
179.20170967095027
 10
352.1732995079676
 20
179.75661224637
 10
349.37375264308594
 20
180.37638006248102
 10
346.44279400373136
 20
181.0406825355757
 10
343.43118779056294
 20
181.73821035137303
 10
340.37657245364767
 20
182.45891673619164
 10
337.29797063311287
 20
183.20142932930864
 10
334.2043237721082
 20
183.9559588374915
 10
331.1091069063156
 20
184.72396582223178
 10
328.0105286322673
 20
185.5068860230445
 10
324.90893375196623
 20
186.29702858397602
 10
321.8145297153626
 20
187.09538156492434
 10
318.7268633043694
 20
187.90805528165671
 10
315.6418939977626
 20
188.73585532453905
 10
312.5551038328975
 20
189.5699308076671
 10
309.46220877526287
 20
190.40361275716603
 10
306.3700196214205
 20
191.24906383742015
 10
303.27061495742964
 20
192.10482155577293
 10
300.1681258568858
 20
192.9637812336708
 10
297.0677679856973
 20
193.8260583655964
 10
293.9726416827276
 20
194.6937723800123
 10
290.88175505755953
 20
195.56476449731406
 10
287.79296774064494
 20
196.42793241113807
 10
284.70178794256987
 20
197.29081228618085
 10
281.61060017837167
 20
198.15666757348598
 10
278.51999091912637
 20
199.0138610590284
 10
275.42575156777866
 20
199.86384765625357
 10
272.3350324612502
 20
200.70799903359278
 10
270.40373189181696
 20
201.2279901490509
 10
270.14374649393733
 20
200.2623776010331
 10
268.9956366974887
 20
200.57151520482486
 10
265.9108778207121
 20
201.3871187047742
 10
262.828445791438
 20
202.19135612465791
 10
259.7433209398623
 20
202.9808528445024
 10
256.6553162013854
 20
203.75888614787027
 10
253.57123487302275
 20
204.52343444503586
 10
250.48917936260938
 20
205.27033942009032
 10
247.40200658478773
 20
205.99951990924805
 10
244.30849816113349
 20
206.71345367862617
 10
241.2077561169633
 20
207.41381960707574
 10
238.10624139985717
 20
208.10218150748682
 10
235.0065428962111
 20
208.77449694566505
 10
231.90556299803603
 20
209.4298045151836
 10
228.80282147542403
 20
210.06671361230508
 10
225.68818353681988
 20
210.68818962319457
 10
222.57983875404724
 20
211.2983228383184
 10
219.4742048803565
 20
211.8854422243447
 10
216.3551780606607
 20
212.45401021467075
 10
213.23007789854387
 20
213.01015401685947
 10
210.10784255507735
 20
213.55202437643857
 10
206.98610786470175
 20
214.07518179916798
 10
203.86015467834025
 20
214.57951202137366
 10
200.72722209891663
 20
215.0671090921704
 10
197.58920903088773
 20
215.5402883607311
 10
194.45121698609412
 20
215.99906358301
 10
191.31362937487094
 20
216.4400870660333
 10
188.16716366733138
 20
216.864006588397
 10
185.01962525528128
 20
217.27553017336498
 10
181.87435713863144
 20
217.6709977837539
 10
178.72890928424215
 20
218.0493302403779
 10
175.58418738076455
 20
218.40979362968977
 10
172.43514850217437
 20
218.75097375163665
 10
169.2767515374045
 20
219.07726133397222
 10
166.12651108384716
 20
219.39109072120473
 10
162.9756355341012
 20
219.6828425115757
 10
159.81901611655374
 20
219.95899249921578
 10
156.66831183001744
 20
220.21870103554213
 10
153.51706275172162
 20
220.45764003363576
 10
150.3620145387028
 20
220.67783709069923
 10
147.20812667151068
 20
220.88067286510164
 10
144.05271318525357
 20
221.06369757985962
 10
140.89431999529162
 20
221.22886533797592
 10
137.73929276032067
 20
221.37746701692168
 10
134.59113804920185
 20
221.50602441739986
 10
131.443206007426
 20
221.61014213991783
 10
128.2866916791189
 20
221.6938512037723
 10
125.14164523180003
 20
221.76158371800966
 10
121.99383068694374
 20
221.80101349701837
 10
118.84119922514961
 20
221.82320139426537
 10
115.69753458207953
 20
221.82482393892286
 10
112.55507538609572
 20
221.8032247127556
 10
109.42147045826749
 20
221.75897977065853
 10
106.28789555675225
 20
221.68700696338502
 10
103.15529186521513
 20
221.5907878921965
 10
100.0226397436195
 20
221.46964860513663
 10
96.89592619227543
 20
221.32642433447083
 10
93.77623260150735
 20
221.15576388726944
 10
90.65820808074713
 20
220.95730435940783
 10
87.54337044980758
 20
220.73217181407057
 10
84.43239819646999
 20
220.48173345941626
 10
81.3379007185543
 20
220.2070118906949
 10
78.25895263661448
 20
219.89903663392275
 10
75.18305067671216
 20
219.55435770590944
 10
72.11987631804544
 20
219.1803743369649
 10
69.06920778259473
 20
218.76958361494127
 10
66.02859244850416
 20
218.32112795284723
 10
62.99257379552779
 20
217.8338498211045
 10
59.97140774550276
 20
217.3160301961132
 10
56.978733913864176
 20
216.76270763482174
 10
54.01123483706448
 20
216.16639573331193
 10
51.07172510235512
 20
215.5247953710884
 10
48.15772530207094
 20
214.83454092329256
 10
45.27790186401931
 20
214.0950237111414
 10
42.42272951252038
 20
213.29952166155286
 10
39.61747679025167
 20
212.46336441626838
 10
36.863770123073266
 20
211.56669487080757
 10
34.170491572128256
 20
210.61992368404125
 10
31.559652512547373
 20
209.62099982613003
 10
29.041213950348663
 20
208.57088662497998
 10
26.64741497551138
 20
207.48282767804966
 10
24.411577348300327
 20
206.36925254165752
 10
22.347570018461667
 20
205.23227429248337
 10
20.495072103909038
 20
204.1221171305454
 10
18.87450029645747
 20
203.05224450582872
 10
17.481817638798347
 20
202.03768537472567
 10
16.29788770415992
 20
201.08925033170414
 10
15.325251691032776
 20
200.24460019540496
 10
14.503385621138534
 20
199.43174775042482
 10
13.826020750272477
 20
198.71228506120747
 10
13.282664201943106
 20
198.07175219218766
 10
12.837644272962848
 20
197.46627670869495
 10
12.468278915281303
 20
196.89226510356303
 10
12.171080988705569
 20
196.3776105718777
 10
11.927106407239052
 20
195.88711287486558
 10
11.720020090429074
 20
195.40864253811492
 10
11.554026426642992
 20
194.98988567686322
 10
11.42284974770783
 20
194.6038738831039
 10
11.317757078002103
 20
194.22915668060384
 10
11.239207275517117
 20
193.90188461289515
 10
11.179679419878994
 20
193.56486278815444
 10
11.135100257438552
 20
193.25015980711072
 10
11.105908219157698
 20
192.99676127176065
 10
11.126538081059522
 20
192.79175474787422
 10
11.144765252844024
 20
192.45278006348596
 10
11.162869579898313
 20
192.16489973972494
 10
11.194810627830464
 20
191.89583406240007
 10
11.256779346838726
 20
191.6113518334942
 10
11.362436265882792
 20
191.2950923863649
 10
11.515860010371142
 20
190.95138949692364
 10
11.72148002829627
 20
190.5839205324681
 10
11.987700388175398
 20
190.1922789422395
 10
12.321804410163566
 20
189.77808067025964
 10
12.729017389611357
 20
189.3459726696348
 10
13.221273947614947
 20
188.89838583034913
 10
13.817604693431349
 20
188.43612276971092
 10
14.548410781503193
 20
187.95574368510353
 10
15.44263597837795
 20
187.45099714772257
 10
16.50232999935332
 20
186.92041662965227
 10
17.73302710410968
 20
186.37259313938787
 10
19.191537222647327
 20
185.81997977643448
 10
20.924549451262408
 20
185.26298293829046
 10
22.926062816350594
 20
184.6938647274464
 10
25.153217158070518
 20
184.12464909802455
 10
27.600547538267477
 20
183.5908847670193
 10
30.24275396884255
 20
183.08916296956534
 10
33.0021897614818
 20
182.62111336347715
 10
35.85247748247518
 20
182.2063291383834
 10
38.79339683773122
 20
181.84679508426117
 10
41.82762454182628
 20
181.5208309213739
 10
44.90017733095655
 20
181.20427566503204
 10
47.952484292490524
 20
180.91145625073497
 10
51.02021969653549
 20
180.67426313149966
 10
54.150486132616294
 20
180.4723376606239
 10
57.30201075244682
 20
180.27214389270173
 10
60.45025151477162
 20
180.0817648856708
 10
63.59203805291017
 20
179.91127758826968
 10
66.73436329793108
 20
179.7677252965915
 10
69.89383514562581
 20
179.649268818107
 10
73.07220165096352
 20
179.5461576390603
 10
76.26424677430089
 20
179.45303570972376
 10
78.51625214562816
 20
179.39083516550397
 10
78.48864260645342
 20
178.3912163814935
 10
79.43616239790953
 20
178.36504516439945
 10
82.62443057131378
 20
178.28214266520968
 10
85.80499452823847
 20
178.21397101466118
 10
88.97959339186534
 20
178.14785274994014
 10
92.1613894000572
 20
178.1014590189744
 10
95.35886903249035
 20
178.0621411452382
 10
98.56759098947532
 20
178.02129593192117
 10
101.78375086955121
 20
177.98491236756615
 10
105.00377825219046
 20
177.9517390327851
 10
108.22358514790744
 20
177.92214627045757
 10
111.44120574691246
 20
177.8973897145978
 10
114.65718960552293
 20
177.87960584381665
 10
117.87523806894782
 20
177.86973691092288
 10
121.09925262830625
 20
177.86596962243098
 10
124.32928539665474
 20
177.86461036748827
 10
127.56216232910172
 20
177.86355693817006
 10
130.7947881188452
 20
177.86202361044056
 10
134.02488145183713
 20
177.86060982988658
 10
137.25161139552452
 20
177.8622373447403
 10
140.4776681763222
 20
177.86900687931015
 10
143.70663143500093
 20
177.87967605090682
 10
146.93732133681758
 20
177.89086091797645
 10
150.16747258018268
 20
177.9032065796432
 10
153.39686970765777
 20
177.91780415557835
 10
156.6239798388408
 20
177.9349470031906
 10
159.8500679530189
 20
177.95661626072422
 10
163.07821187382515
 20
177.9823253942887
 10
166.30774861666413
 20
178.00883381783473
 10
169.53556852982018
 20
178.03316529870511
 10
172.76046770283384
 20
178.05842019170186
 10
175.98172101284575
 20
178.0884317736033
 10
179.20170403930808
 20
178.12467590549457
 10
182.42374171533754
 20
178.16739017641828
 10
185.6503758736999
 20
178.21380755752475
 10
188.87867608954056
 20
178.2598620931942
 10
192.10640496546046
 20
178.30341656172848
 10
195.33113672335543
 20
178.3470215792952
 10
198.55017836781914
 20
178.39496644035074
 10
201.76696242319943
 20
178.4501735116729
 10
204.9850830758153
 20
178.51102589221517
 10
208.20278844658122
 20
178.56968981218301
 10
211.42058104430873
 20
178.62021970390558
 10
214.6411950105458
 20
178.66644636830694
 10
217.86000978407083
 20
178.71451136718204
 10
221.07649704344178
 20
178.76909119980252
 10
224.29514313855992
 20
178.8308555490632
 10
227.51680250969997
 20
178.89474272212112
 10
230.73639862653857
 20
178.95455095279826
 10
233.95356696294388
 20
179.0095184752882
 10
237.16782406030552
 20
179.06796055821854
 10
240.38135703865288
 20
179.1350302078452
 10
243.60005623811145
 20
179.2088420437127
 10
246.82056049538375
 20
179.28175936181802
 10
250.04101403719375
 20
179.34880847134497
 10
253.26393747384054
 20
179.40971872500728
 10
256.49026292015446
 20
179.46734825372613
 10
259.7173873848927
 20
179.52326935989913
 10
262.9417616137388
 20
179.57831756602798
 10
266.1607530060311
 20
179.63763150666665
 10
269.3793796148367
 20
179.6994897411742
 10
272.5950319024287
 20
179.75321048870745
 10
275.8142447852553
 20
179.79735115482788
 10
279.03980285031844
 20
179.83803708436625
 10
282.26909905962464
 20
179.8793365048878
 10
285.4988280134687
 20
179.92101164760393
 10
288.72536427052654
 20
179.96166546828434
 10
291.9466974177549
 20
179.99762260158008
 10
295.1650734477372
 20
180.02562083127165
 10
298.3840309039489
 20
180.04788379583542
 10
301.6005989621542
 20
180.06607650516855
 10
304.81293166416015
 20
180.0748403085826
 10
308.0264074851993
 20
180.07550427209196
 10
311.23912882503816
 20
180.07757350461975
 10
314.44862005766606
 20
180.0780000988261
 10
317.654266044313
 20
180.06566645859124
 10
320.86102469207253
 20
180.04428351755394
 10
324.0687572234908
 20
180.01414919032618
 10
327.2748201162458
 20
179.98011818457653
 10
330.47531578718394
 20
179.93501407068203
 10
333.67328702708926
 20
179.87954247210334
 10
336.8637018071261
 20
179.81614607767352
 10
340.03759248243205
 20
179.74356068292954
 10
343.1848428280824
 20
179.65839347906217
 10
346.2861390762858
 20
179.5649172547314
 10
349.30233502821943
 20
179.46385948102426
 10
352.1787115116264
 20
179.3557101721825
 10
354.84679462804485
 20
179.24169362377953
 10
356.4756154973677
 20
179.1632006038918
  0
LWPOLYLINE
  5
8D
330
17
100
AcDbEntity
  8
Layer
100
AcDbPolyline
 90
5
 70
0
 10
236.92011108904725
 20
204.2664399208193
 10
233.01099930042156
 20
205.1142872089719
 10
233.85884658857415
 20
209.02339899759758
 10
237.76795837719985
 20
208.175551709445
 10
236.92011108904725
 20
204.2664399208193
  0
LWPOLYLINE
  5
8E
330
17
100
AcDbEntity
  8
Layer
100
AcDbPolyline
 90
5
 70
0
 10
106.80854128898986
 20
217.70111838233967
 10
102.81042867691932
 20
217.57825446899412
 10
102.68756476357379
 20
221.57636708106466
 10
106.68567737564433
 20
221.69923099441021
 10
106.80854128898986
 20
217.70111838233967
  0
LWPOLYLINE
  5
8F
330
17
100
AcDbEntity
  8
Layer
100
AcDbPolyline
 90
5
 70
0
 10
48.57709615127499
 20
210.81238867590343
 10
44.70290115844268
 20
209.81709316324753
 10
43.707605645786764
 20
213.69128815607985
 10
47.58180063861908
 20
214.68658366873575
 10
48.57709615127499
 20
210.81238867590343
  0
LWPOLYLINE
  5
90
330
17
100
AcDbEntity
  8
Layer
100
AcDbPolyline
 90
5
 70
0
 10
20.214804235476002
 20
197.87115524924926
 10
18.707799170881415
 20
196.55626524043245
 10
15.4205741488394
 20
200.32377790191893
 10
16.927579213433987
 20
201.63866791073573
 10
20.214804235476002
 20
197.87115524924926
  0
LWPOLYLINE
  5
91
330
17
100
AcDbEntity
  8
Layer
100
AcDbPolyline
 90
5
 70
0
 10
16.00543818296729
 20
193.06405619065092
 10
17.593117048608583
 20
191.84780135732197
 10
14.552479965286262
 20
187.87860419321876
 10
12.964801099644967
 20
189.0948590265477
 10
16.00543818296729
 20
193.06405619065092
  0
LWPOLYLINE
  5
92
330
17
100
AcDbEntity
  8
Layer
100
AcDbPolyline
 90
5
 70
0
 10
59.43068383254331
 20
184.1429544438034
 10
63.424811330426806
 20
183.92628527052088
 10
63.208142157144295
 20
179.9321577726374
 10
59.2140146592608
 20
180.14882694591992
 10
59.43068383254331
 20
184.1429544438034
  0
LINE
  5
93
330
17
100
AcDbEntity
  8
Layer
100
AcDbLine
 10
336.8952581869298
 20
183.29964946806712
 30
0.0
 11
336.6911312304418
 21
182.32070504388616
 31
0.0
  0
LINE
  5
94
330
17
100
AcDbEntity
  8
Layer
100
AcDbLine
 10
336.51365102088494
 20
180.82324452983423
 30
0.0
 11
336.4833216027224
 21
179.82370457245688
 31
0.0
  0
LINE
  5
95
330
17
100
AcDbEntity
  8
Layer
100
AcDbLine
 10
317.5042017548295
 20
188.23613610922672
 30
0.0
 11
317.27872605505763
 21
187.26188731717596
 31
0.0
  0
LINE
  5
96
330
17
100
AcDbEntity
  8
Layer
100
AcDbLine
 10
316.5045507902403
 20
181.06994457765157
 30
0.0
 11
316.4832243924202
 21
180.07017201113655
 31
0.0
  0
LINE
  5
97
330
17
100
AcDbEntity
  8
Layer
100
AcDbLine
 10
239.90420092761693
 20
207.70313557339378
 30
0.0
 11
239.66681742444663
 21
206.73171955930786
 31
0.0
  0
LINE
  5
98
330
17
100
AcDbEntity
  8
Layer
100
AcDbLine
 10
236.47288114707962
 20
180.0553486085588
 30
0.0
 11
236.47422920353074
 21
179.05534951718732
 31
0.0
  0
LWPOLYLINE
  5
99
330
17
100
AcDbEntity
  8
Layer
100
AcDbPolyline
 90
300
 70
1
 10
163.7467857142839
 20
200.0
 10
163.74196540558887
 20
200.46493199989422
 10
163.72750660801645
 20
200.92965869890563
 10
163.70341570616458
 20
201.39397488680657
 10
163.66970333789732
 20
201.85767553463953
 10
163.62638438964748
 20
202.32055588525205
 10
163.57347798984316
 20
202.782411543712
 10
163.51100750046106
 20
203.24303856756228
 10
163.43900050671073
 20
203.7022335568764
 10
163.35748880485352
 20
204.15979374407394
 10
163.26650838816232
 20
204.61551708345706
 10
163.16609943102796
 20
205.06920234042826
 10
163.05630627121923
 20
205.52064918034978
 10
162.93717739030473
 20
205.96965825700588
 10
162.80876539224465
 20
206.41603130062842
 10
162.67112698016243
 20
206.85957120544725
 10
162.5243229313061
 20
207.30008211672657
 10
162.36841807021096
 20
207.73736951724885
 10
162.20348124007478
 20
208.17124031320816
 10
162.0295852723586
 20
208.60150291947497
 10
161.84680695462632
 20
209.0279673441947
 10
161.6552269966377
 20
209.45044527268288
 10
161.45492999470898
 20
209.8687501505796
 10
161.2460043943576
 20
210.28269726622642
 10
161.02854245124723
 20
210.69210383223023
 10
160.80264019045006
 20
211.09678906617674
 10
160.56839736404513
 20
211.49657427045898
 10
160.32591740707034
 20
211.8912829111852
 10
160.07530739184858
 20
212.28074069613106
 10
159.81667798070765
 20
212.66477565170248
 10
159.55014337711475
 20
213.04321819887411
 10
159.27582127524764
 20
213.4159012280707
 10
158.99383280802397
 20
213.78266017295803
 10
158.70430249361257
 20
214.14333308311066
 10
158.4073581804497
 20
214.4977606955249
 10
158.1031309907847
 20
214.84578650494458
 10
157.7917552627802
 20
215.18725683296967
 10
157.4733684911921
 20
215.52202089591603
 10
157.14811126665575
 20
215.84993087139745
 10
156.8161272136052
 20
216.17084196359986
 10
156.47756292685247
 20
216.4846124672189
 10
156.13256790685568
 20
216.79110383003322
 10
155.78129449370365
 20
217.09018071408508
 10
155.42389779984683
 20
217.38171105544177
 10
155.06053564160413
 20
217.66556612251156
 10
154.69136846947558
 20
217.94162057288762
 10
154.3165592972919
 20
218.20975250869594
 10
153.9362736302322
 20
218.46984353042185
 10
153.5506793917416
 20
218.72177878919206
 10
153.15994684938087
 20
218.96544703748853
 10
152.7642485396412
 20
219.20074067827238
 10
152.36375919175674
 20
219.42755581249563
 10
151.95865565054933
 20
219.64579228498008
 10
151.54911679833862
 20
219.85535372864314
 10
151.13532347595273
 20
220.05614760705063
 10
150.71745840287412
 20
220.24808525527843
 10
150.29570609655565
 20
220.43108191906438
 10
149.87025279094297
 20
220.6050567922333
 10
149.44128635423888
 20
220.7699330523788
 10
149.0089962059459
 20
220.92563789478587
 10
148.57357323322404
 20
221.07210256457932
 10
148.1352097066004
 20
221.20926238708415
 10
147.6940991950679
 20
221.337056796384
 10
147.25043648061072
 20
221.45542936206516
 10
146.80441747219388
 20
221.56432781413505
 10
146.35623911925558
 20
221.66370406610284
 10
145.90609932473976
 20
221.7535142362132
 10
145.45419685770767
 20
221.83371866682324
 10
145.00073126556723
 20
221.9042819419143
 10
144.5459027859583
 20
221.96517290273053
 10
144.08991225833358
 20
222.01636466153775
 10
143.6329610352734
 20
222.0578346134964
 10
143.17525089357417
 20
222.0895644466431
 10
142.71698394514937
 20
222.1115401499768
 10
142.2583625477827
 20
222.12375201964554
 10
141.7995892157725
 20
222.12619466323144
 10
141.3408665305072
 20
222.11886700213185
 10
140.88239705101108
 20
222.10177227203565
 10
140.4243832244998
 20
222.0749180214944
 10
139.96702729698555
 20
222.03831610858916
 10
139.5105312239708
 20
221.99198269569428
 10
139.0550965812705
 20
221.93593824234057
 10
138.60092447600192
 20
221.8702074961809
 10
138.14821545778122
 20
221.79481948206242
 10
137.69716943016658
 20
221.70980748920985
 10
137.24798556238636
 20
221.61520905652608
 10
136.80086220139148
 20
221.5110659560159
 10
136.35599678427118
 20
221.39742417434078
 10
135.91358575107012
 20
221.27433389251235
 10
135.47382445804624
 20
221.14184946373393
 10
135.0369070914067
 20
221.00002938939969
 10
134.60302658156095
 20
220.848936293262
 10
134.17237451792784
 20
220.68863689377875
 10
133.74514106433537
 20
220.5192019746521
 10
133.32151487504947
 20
220.34070635357259
 10
132.90168301146983
 20
220.15322884918157
 10
132.48583085952865
 20
219.9568522462673
 10
132.07414204782944
 20
219.7516632592094
 10
131.66679836656203
 20
219.53775249368823
 10
131.2639796872288
 20
219.31521440667606
 10
130.8658638832188
 20
219.08414726472736
 10
130.4726267512636
 20
218.84465310058724
 10
130.08444193381064
 20
218.59683766813654
 10
129.70148084234742
 20
218.34081039569395
 10
129.3239125817112
 20
218.0766843376955
 10
128.9519038754168
 20
217.80457612477295
 10
128.58561899203653
 20
217.52460591225298
 10
128.2252196726635
 20
217.23689732709994
 10
127.87086505949156
 20
216.94157741332572
 10
127.52271162554231
 20
216.63877657589066
 10
127.18091310557132
 20
216.32862852312036
 10
126.84562042818297
 20
216.0112702076639
 10
126.51698164918471
 20
215.68684176601937
 10
126.1951418862098
 20
215.3554864566536
 10
125.8802432546374
 20
215.0173505967432
 10
125.57242480483846
 20
214.67258349756491
 10
125.27182246077498
 20
214.32133739856417
 10
124.9785689599798
 20
213.96376740013037
 10
124.69279379494341
 20
213.60003139510874
 10
124.41462315593382
 20
213.23028999907953
 10
124.1441798752744
 20
212.8547064794346
 10
123.88158337310458
 20
212.47344668328313
 10
123.62694960464734
 20
212.08667896421818
 10
123.38039100900659
 20
211.6945741079765
 10
123.14201645951725
 20
211.29730525702445
 10
122.91193121566988
 20
210.89504783410302
 10
122.69023687663098
 20
210.48797946476617
 10
122.47703133637972
 20
210.07627989894635
 10
122.2724087404807
 20
209.66013093158202
 10
122.07645944451191
 20
209.23971632234208
 10
121.88926997416624
 20
208.81522171448285
 10
121.71092298704421
 20
208.38683455287307
 10
121.54149723615465
 20
207.95474400122382
 10
121.38106753513964
 20
207.51914085855879
 10
121.22970472523885
 20
207.0802174749631
 10
121.0874756440081
 20
206.6381676666467
 10
120.95444309580574
 20
206.19318663036074
 10
120.83066582406005
 20
205.74547085720414
 10
120.71619848532977
 20
205.29521804585863
 10
120.61109162516928
 20
204.84262701529053
 10
120.51539165580914
 20
204.38789761695799
 10
120.42914083566178
 20
203.93123064656217
 10
120.3523772506613
 20
203.47282775538147
 10
120.28513479744586
 20
203.0128913612281
 10
120.22744316838984
 20
202.55162455906594
 10
120.17932783849255
 20
202.0892310313297
 10
120.14081005412919
 20
201.62591495798424
 10
120.11190682366897
 20
201.16188092636474
 10
120.09263090996485
 20
200.69733384083642
 10
120.08299082471765
 20
200.23247883231474
 10
120.08299082471765
 20
199.76752116768526
 10
120.09263090996485
 20
199.30266615916358
 10
120.11190682366897
 20
198.83811907363526
 10
120.14081005412919
 20
198.37408504201576
 10
120.17932783849255
 20
197.9107689686703
 10
120.22744316838984
 20
197.44837544093406
 10
120.28513479744586
 20
196.9871086387719
 10
120.3523772506613
 20
196.52717224461853
 10
120.42914083566178
 20
196.06876935343786
 10
120.51539165580914
 20
195.61210238304201
 10
120.61109162516928
 20
195.15737298470947
 10
120.71619848532977
 20
194.70478195414137
 10
120.83066582406005
 20
194.25452914279586
 10
120.95444309580574
 20
193.80681336963926
 10
121.0874756440081
 20
193.36183233335333
 10
121.22970472523885
 20
192.91978252503694
 10
121.38106753513964
 20
192.48085914144121
 10
121.54149723615465
 20
192.04525599877618
 10
121.71092298704421
 20
191.6131654471269
 10
121.88926997416624
 20
191.18477828551715
 10
122.0764594445119
 20
190.76028367765792
 10
122.2724087404807
 20
190.33986906841798
 10
122.47703133637972
 20
189.92372010105365
 10
122.69023687663098
 20
189.51202053523383
 10
122.91193121566988
 20
189.10495216589698
 10
123.14201645951725
 20
188.70269474297555
 10
123.38039100900659
 20
188.3054258920235
 10
123.62694960464734
 20
187.91332103578185
 10
123.88158337310458
 20
187.52655331671687
 10
124.14417987527439
 20
187.1452935205654
 10
124.41462315593382
 20
186.76971000092047
 10
124.69279379494341
 20
186.39996860489126
 10
124.97856895997978
 20
186.03623259986963
 10
125.27182246077498
 20
185.6786626014358
 10
125.57242480483848
 20
185.32741650243509
 10
125.88024325463739
 20
184.98264940325683
 10
126.1951418862098
 20
184.6445135433464
 10
126.5169816491847
 20
184.31315823398063
 10
126.84562042818297
 20
183.9887297923361
 10
127.18091310557132
 20
183.67137147687964
 10
127.52271162554231
 20
183.36122342410934
 10
127.87086505949155
 20
183.05842258667428
 10
128.2252196726635
 20
182.76310267290006
 10
128.58561899203653
 20
182.47539408774705
 10
128.9519038754168
 20
182.19542387522708
 10
129.32391258171117
 20
181.9233156623045
 10
129.70148084234742
 20
181.65918960430605
 10
130.08444193381064
 20
181.40316233186346
 10
130.4726267512636
 20
181.15534689941273
 10
130.8658638832188
 20
180.91585273527264
 10
131.2639796872288
 20
180.68478559332394
 10
131.66679836656203
 20
180.46224750631177
 10
132.07414204782947
 20
180.2483367407906
 10
132.48583085952865
 20
180.0431477537327
 10
132.90168301146983
 20
179.84677115081845
 10
133.32151487504947
 20
179.65929364642741
 10
133.74514106433534
 20
179.4807980253479
 10
134.17237451792784
 20
179.31136310622125
 10
134.60302658156095
 20
179.151063706738
 10
135.0369070914067
 20
178.99997061060034
 10
135.47382445804624
 20
178.85815053626607
 10
135.91358575107012
 20
178.72566610748765
 10
136.35599678427118
 20
178.60257582565922
 10
136.80086220139148
 20
178.4889340439841
 10
137.24798556238636
 20
178.38479094347392
 10
137.69716943016658
 20
178.29019251079015
 10
138.14821545778122
 20
178.20518051793758
 10
138.60092447600192
 20
178.1297925038191
 10
139.05509658127053
 20
178.06406175765943
 10
139.5105312239708
 20
178.00801730430572
 10
139.96702729698552
 20
177.96168389141084
 10
140.4243832244998
 20
177.9250819785056
 10
140.88239705101108
 20
177.89822772796435
 10
141.3408665305072
 20
177.88113299786815
 10
141.7995892157725
 20
177.87380533676856
 10
142.2583625477827
 20
177.87624798035446
 10
142.71698394514937
 20
177.8884598500232
 10
143.17525089357417
 20
177.9104355533569
 10
143.6329610352734
 20
177.9421653865036
 10
144.08991225833358
 20
177.98363533846225
 10
144.5459027859583
 20
178.03482709726947
 10
145.00073126556723
 20
178.0957180580857
 10
145.45419685770767
 20
178.16628133317676
 10
145.90609932473976
 20
178.2464857637868
 10
146.35623911925558
 20
178.33629593389716
 10
146.80441747219388
 20
178.43567218586492
 10
147.25043648061072
 20
178.54457063793484
 10
147.6940991950679
 20
178.662943203616
 10
148.1352097066004
 20
178.79073761291585
 10
148.573573233224
 20
178.92789743542068
 10
149.0089962059459
 20
179.07436210521413
 10
149.44128635423888
 20
179.2300669476212
 10
149.87025279094297
 20
179.3949432077667
 10
150.29570609655565
 20
179.56891808093562
 10
150.71745840287412
 20
179.75191474472157
 10
151.13532347595273
 20
179.9438523929494
 10
151.54911679833862
 20
180.14464627135686
 10
151.95865565054933
 20
180.35420771501992
 10
152.36375919175674
 20
180.57244418750437
 10
152.7642485396412
 20
180.79925932172762
 10
153.15994684938087
 20
181.03455296251147
 10
153.5506793917416
 20
181.27822121080794
 10
153.9362736302322
 20
181.53015646957815
 10
154.3165592972919
 20
181.79024749130406
 10
154.69136846947558
 20
182.05837942711238
 10
155.06053564160413
 20
182.33443387748844
 10
155.42389779984683
 20
182.6182889445582
 10
155.78129449370365
 20
182.90981928591492
 10
156.13256790685568
 20
183.20889616996678
 10
156.4775629268525
 20
183.5153875327811
 10
156.8161272136052
 20
183.82915803640014
 10
157.14811126665577
 20
184.15006912860255
 10
157.4733684911921
 20
184.477979104084
 10
157.7917552627802
 20
184.81274316703033
 10
158.1031309907847
 20
185.1542134950554
 10
158.4073581804497
 20
185.5022393044751
 10
158.70430249361257
 20
185.8566669168893
 10
158.99383280802397
 20
186.21733982704197
 10
159.27582127524764
 20
186.5840987719293
 10
159.55014337711475
 20
186.95678180112589
 10
159.81667798070762
 20
187.33522434829752
 10
160.07530739184858
 20
187.71925930386894
 10
160.32591740707034
 20
188.1087170888148
 10
160.56839736404513
 20
188.50342572954102
 10
160.80264019045006
 20
188.90321093382326
 10
161.02854245124723
 20
189.30789616776977
 10
161.2460043943576
 20
189.71730273377358
 10
161.45492999470898
 20
190.13124984942044
 10
161.6552269966377
 20
190.54955472731712
 10
161.84680695462632
 20
190.9720326558053
 10
162.0295852723586
 20
191.39849708052503
 10
162.20348124007478
 20
191.82875968679184
 10
162.36841807021096
 20
192.26263048275115
 10
162.5243229313061
 20
192.6999178832734
 10
162.67112698016243
 20
193.14042879455275
 10
162.80876539224465
 20
193.58396869937158
 10
162.93717739030473
 20
194.03034174299412
 10
163.05630627121923
 20
194.47935081965022
 10
163.16609943102796
 20
194.93079765957174
 10
163.26650838816232
 20
195.38448291654294
 10
163.35748880485352
 20
195.84020625592606
 10
163.43900050671073
 20
196.2977664431236
 10
163.51100750046106
 20
196.75696143243772
 10
163.57347798984316
 20
197.21758845628804
 10
163.62638438964748
 20
197.67944411474792
 10
163.66970333789732
 20
198.14232446536047
 10
163.70341570616458
 20
198.6060251131934
 10
163.72750660801645
 20
199.07034130109434
 10
163.74196540558887
 20
199.53506800010578
 10
163.7467857142839
 20
200.0
  0
LINE
  5
9A
330
17
100
AcDbEntity
  8
Layer
 62
7
100
AcDbLine
 10
15.07793915290327
 20
200.00000000000003
 30
0.0
 11
274.9272525289664
 21
199.99999999999997
 31
0.0
  0
LINE
  5
9B
330
17
100
AcDbEntity
  8
Layer
 62
7
100
AcDbLine
 10
64.9478018281159
 20
200.0
 30
0.0
 11
76.9478018281159
 21
200.0
 31
0.0
  0
LWPOLYLINE
  5
9C
330
17
100
AcDbEntity
  8
Layer
100
AcDbPolyline
 90
5
 70
0
 10
70.9478018281159
 20
205.0
 10
75.9478018281159
 20
200.0
 10
70.9478018281159
 20
195.0
 10
65.9478018281159
 20
200.0
 10
70.9478018281159
 20
205.0
  0
LINE
  5
9D
330
17
100
AcDbEntity
  8
Layer
 62
7
100
AcDbLine
 10
139.00259584093482
 20
200.0
 30
0.0
 11
151.00259584093482
 21
200.0
 31
0.0
  0
LWPOLYLINE
  5
9E
330
17
100
AcDbEntity
  8
Layer
100
AcDbPolyline
 90
5
 70
0
 10
145.00259584093482
 20
205.0
 10
150.00259584093482
 20
200.0
 10
145.00259584093482
 20
195.0
 10
140.00259584093482
 20
200.0
 10
145.00259584093482
 20
205.0
  0
LINE
  5
9F
330
17
100
AcDbEntity
  8
Layer
 62
7
100
AcDbLine
 10
213.05738985375376
 20
200.0
 30
0.0
 11
225.05738985375376
 21
200.0
 31
0.0
  0
LWPOLYLINE
  5
A0
330
17
100
AcDbEntity
  8
Layer
100
AcDbPolyline
 90
5
 70
0
 10
219.05738985375376
 20
205.0
 10
224.05738985375376
 20
200.0
 10
219.05738985375376
 20
195.0
 10
214.05738985375376
 20
200.0
 10
219.05738985375376
 20
205.0
  0
LINE
  5
A1
330
17
100
AcDbEntity
  8
Layer
 62
7
100
AcDbLine
 10
11.142539157518058
 20
193.30267411878597
 30
0.0
 11
354.2883105999024
 21
179.3062721037657
 31
0.0
  0
LINE
  5
A2
330
17
100
AcDbEntity
  8
Layer
 62
7
100
AcDbLine
 10
77.67343815628584
 20
190.58897840604772
 30
0.0
 11
89.66346838319484
 21
190.09992303310034
 31
0.0
  0
LWPOLYLINE
  5
A3
330
17
100
AcDbEntity
  8
Layer
100
AcDbPolyline
 90
5
 70
0
 10
83.87222634180173
 20
195.34029664745276
 10
88.66429919761909
 20
190.1406776475126
 10
83.46468019767894
 20
185.34860479169527
 10
78.67260734186159
 20
190.54822379163542
 10
83.87222634180173
 20
195.34029664745276
  0
LINE
  5
A4
330
17
100
AcDbEntity
  8
Layer
 62
7
100
AcDbLine
 10
160.21258116376077
 20
187.22233039913255
 30
0.0
 11
172.20261139066974
 21
186.7332750261852
 31
0.0
  0
LWPOLYLINE
  5
A5
330
17
100
AcDbEntity
  8
Layer
100
AcDbPolyline
 90
5
 70
0
 10
166.41136934927667
 20
191.97364864053762
 10
171.203442205094
 20
186.77402964059746
 10
166.00382320515385
 20
181.98195678478012
 10
161.2117503493365
 20
187.18157578472028
 10
166.41136934927667
 20
191.97364864053762
  0
LINE
  5
A6
330
17
100
AcDbEntity
  8
Layer
100
AcDbLine
 10
141.91428571428398
 20
222.12649999999994
 30
0.0
 11
141.91428571428398
 21
223.12649999999994
 31
0.0
  0
LINE
  5
A7
330
17
100
AcDbEntity
  8
Layer
100
AcDbLine
 10
141.91428571428398
 20
177.87350000000006
 30
0.0
 11
141.91428571428398
 21
176.87350000000006
 31
0.0
  0
LINE
  5
A8
330
17
100
AcDbEntity
  8
Layer
100
AcDbLine
 10
163.7467857142839
 20
200.0
 30
0.0
 11
164.7467857142839
 21
200.0
 31
0.0
  0
LINE
  5
A9
330
17
100
AcDbEntity
  8
Layer
100
AcDbLine
 10
120.08178571428405
 20
200.0
 30
0.0
 11
119.08178571428405
 21
200.0
 31
0.0
  0
LWPOLYLINE
  5
AA
330
17
100
AcDbEntity
  8
NumLabel
 62
1
100
AcDbPolyline
 90
4
 70
0
 10
109.19999999999872
 20
192.64285714285737
 10
107.19999999999872
 20
192.64285714285737
 10
107.19999999999872
 20
182.64285714285737
 10
109.19999999999872
 20
182.64285714285737
  0
LWPOLYLINE
  5
AB
330
17
100
AcDbEntity
  8
NumLabel
 62
1
100
AcDbPolyline
 90
4
 70
0
 10
110.19999999999872
 20
182.64285714285737
 10
112.19999999999872
 20
182.64285714285737
 10
112.19999999999872
 20
192.64285714285737
 10
110.19999999999872
 20
192.64285714285737
  0
LWPOLYLINE
  5
AC
330
17
100
AcDbEntity
  8
NumLabel
 62
1
100
AcDbPolyline
 90
2
 70
0
 10
107.19999999999872
 20
187.64285714285737
 10
109.19999999999872
 20
187.64285714285737
  0
LWPOLYLINE
  5
AD
330
17
100
AcDbEntity
  8
NumLabel
 62
1
100
AcDbPolyline
 90
2
 70
0
 10
110.19999999999872
 20
187.64285714285737
 10
112.19999999999872
 20
187.64285714285737
  0
LWPOLYLINE
  5
AE
330
17
100
AcDbEntity
  8
NumLabel
 62
1
100
AcDbPolyline
 90
6
 70
0
 10
114.69999999999872
 20
192.64285714285737
 10
119.69999999999872
 20
192.64285714285737
 10
119.69999999999872
 20
187.64285714285737
 10
114.69999999999872
 20
187.64285714285737
 10
114.69999999999872
 20
182.64285714285737
 10
119.69999999999872
 20
182.64285714285737
  0
ENDSEC
  0
SECTION
  2
OBJECTS
  0
DICTIONARY
  5
A
330
0
100
AcDbDictionary
280
0
281
1
  3
ACAD_COLOR
350
B
  3
ACAD_GROUP
350
C
  3
ACAD_LAYOUT
350
D
  3
ACAD_MATERIAL
350
E
  3
ACAD_MLEADERSTYLE
350
F
  3
ACAD_MLINESTYLE
350
10
  3
ACAD_PLOTSETTINGS
350
11
  3
ACAD_PLOTSTYLENAME
350
12
  3
ACAD_SCALELIST
350
14
  3
ACAD_TABLESTYLE
350
15
  3
ACAD_VISUALSTYLE
350
16
  3
EZDXF_META
350
2D
  0
DICTIONARY
  5
B
330
A
100
AcDbDictionary
280
0
281
1
  0
DICTIONARY
  5
C
330
A
100
AcDbDictionary
280
0
281
1
  0
DICTIONARY
  5
D
330
A
100
AcDbDictionary
280
0
281
1
  3
Model
350
1A
  3
Layout1
350
1E
  0
DICTIONARY
  5
E
330
A
100
AcDbDictionary
280
0
281
1
  3
ByBlock
350
1F
  3
ByLayer
350
20
  3
Global
350
21
  0
DICTIONARY
  5
F
330
A
100
AcDbDictionary
280
0
281
1
  3
Standard
350
2C
  0
DICTIONARY
  5
10
330
A
100
AcDbDictionary
280
0
281
1
  3
Standard
350
22
  0
DICTIONARY
  5
11
330
A
100
AcDbDictionary
280
0
281
1
  0
ACDBDICTIONARYWDFLT
  5
12
330
A
100
AcDbDictionary
280
0
281
1
  3
Normal
350
13
100
AcDbDictionaryWithDefault
340
13
  0
ACDBPLACEHOLDER
  5
13
330
12
  0
DICTIONARY
  5
14
330
A
100
AcDbDictionary
280
0
281
1
  0
DICTIONARY
  5
15
330
A
100
AcDbDictionary
280
0
281
1
  0
DICTIONARY
  5
16
330
A
100
AcDbDictionary
280
0
281
1
  3
2dWireframe
350
5A
  3
Basic
350
5B
  3
Brighten
350
5C
  3
ColorChange
350
5D
  3
Conceptual
350
5E
  3
Dim
350
5F
  3
EdgeColorOff
350
60
  3
Facepattern
350
61
  3
Flat
350
62
  3
FlatWithEdges
350
63
  3
Gouraud
350
64
  3
GouraudWithEdges
350
65
  3
Hidden
350
66
  3
JitterOff
350
67
  3
Linepattern
350
68
  3
Modeling
350
69
  3
OverhangOff
350
6A
  3
Realistic
350
6B
  3
Shaded
350
6C
  3
Shaded with edges
350
6D
  3
Shades of Gray
350
6E
  3
Sketchy
350
6F
  3
Thicken
350
70
  3
Wireframe
350
71
  3
X-Ray
350
72
  0
LAYOUT
  5
1A
330
D
100
AcDbPlotSettings
  1

  2
Adobe PDF
  4
A3
  6

 40
7.5
 41
20.0
 42
7.5
 43
20.0
 44
420.0
 45
297.0
 46
0.0
 47
0.0
 48
0.0
 49
0.0
140
0.0
141
0.0
142
1.0
143
1.0
 70
1024
 72
1
 73
0
 74
5
  7

 75
16
 76
0
 77
2
 78
300
147
1.0
148
0.0
149
0.0
100
AcDbLayout
  1
Model
 70
1
 71
0
 10
0.0
 20
0.0
 11
420.0
 21
297.0
 12
0.0
 22
0.0
 32
0.0
 14
1e+20
 24
1e+20
 34
1e+20
 15
-1e+20
 25
-1e+20
 35
-1e+20
146
0.0
 13
0.0
 23
0.0
 33
0.0
 16
1.0
 26
0.0
 36
0.0
 17
0.0
 27
1.0
 37
0.0
 76
1
330
17
  0
LAYOUT
  5
1E
330
D
100
AcDbPlotSettings
  1

  2
Adobe PDF
  4
A3
  6

 40
7.5
 41
20.0
 42
7.5
 43
20.0
 44
420.0
 45
297.0
 46
0.0
 47
0.0
 48
0.0
 49
0.0
140
0.0
141
0.0
142
1.0
143
1.0
 70
0
 72
1
 73
0
 74
5
  7

 75
16
 76
0
 77
2
 78
300
147
1.0
148
0.0
149
0.0
100
AcDbLayout
  1
Layout1
 70
1
 71
1
 10
0.0
 20
0.0
 11
420.0
 21
297.0
 12
0.0
 22
0.0
 32
0.0
 14
1e+20
 24
1e+20
 34
1e+20
 15
-1e+20
 25
-1e+20
 35
-1e+20
146
0.0
 13
0.0
 23
0.0
 33
0.0
 16
1.0
 26
0.0
 36
0.0
 17
0.0
 27
1.0
 37
0.0
 76
1
330
1B
  0
MATERIAL
  5
1F
102
{ACAD_REACTORS
330
E
102
}
330
E
100
AcDbMaterial
  1
ByBlock
  2

 70
0
 40
1.0
 71
1
 41
1.0
 91
-1023410177
 42
1.0
 72
1
  3

 73
1
 74
1
 75
1
 44
0.5
 73
0
 45
1.0
 46
1.0
 77
1
  4

 78
1
 79
1
170
1
 48
1.0
171
1
  6

172
1
173
1
174
1
140
1.0
141
1.0
175
1
  7

176
1
177
1
178
1
143
1.0
179
1
  8

270
1
271
1
272
1
145
1.0
146
1.0
273
1
  9

274
1
275
1
276
1
 42
1.0
 72
1
  3

 73
1
 74
1
 75
1
 94
63
  0
MATERIAL
  5
20
102
{ACAD_REACTORS
330
E
102
}
330
E
100
AcDbMaterial
  1
ByLayer
  2

 70
0
 40
1.0
 71
1
 41
1.0
 91
-1023410177
 42
1.0
 72
1
  3

 73
1
 74
1
 75
1
 44
0.5
 73
0
 45
1.0
 46
1.0
 77
1
  4

 78
1
 79
1
170
1
 48
1.0
171
1
  6

172
1
173
1
174
1
140
1.0
141
1.0
175
1
  7

176
1
177
1
178
1
143
1.0
179
1
  8

270
1
271
1
272
1
145
1.0
146
1.0
273
1
  9

274
1
275
1
276
1
 42
1.0
 72
1
  3

 73
1
 74
1
 75
1
 94
63
  0
MATERIAL
  5
21
102
{ACAD_REACTORS
330
E
102
}
330
E
100
AcDbMaterial
  1
Global
  2

 70
0
 40
1.0
 71
1
 41
1.0
 91
-1023410177
 42
1.0
 72
1
  3

 73
1
 74
1
 75
1
 44
0.5
 73
0
 45
1.0
 46
1.0
 77
1
  4

 78
1
 79
1
170
1
 48
1.0
171
1
  6

172
1
173
1
174
1
140
1.0
141
1.0
175
1
  7

176
1
177
1
178
1
143
1.0
179
1
  8

270
1
271
1
272
1
145
1.0
146
1.0
273
1
  9

274
1
275
1
276
1
 42
1.0
 72
1
  3

 73
1
 74
1
 75
1
 94
63
  0
MLINESTYLE
  5
22
102
{ACAD_REACTORS
330
10
102
}
330
10
100
AcDbMlineStyle
  2
Standard
 70
0
  3

 62
256
 51
90.0
 52
90.0
 71
2
 49
0.5
 62
256
  6
BYLAYER
 49
-0.5
 62
256
  6
BYLAYER
  0
MLEADERSTYLE
  5
2C
102
{ACAD_REACTORS
330
F
102
}
330
F
100
AcDbMLeaderStyle
179
2
170
2
171
1
172
0
 90
2
 40
0.0
 41
0.0
173
1
 91
-1056964608
 92
-2
290
1
 42
2.0
291
1
 43
8.0
  3
Standard
 44
4.0
300

342
29
174
1
175
1
176
0
178
1
 93
-1056964608
 45
4.0
292
0
297
0
 46
4.0
 94
-1056964608
 47
1.0
 49
1.0
140
1.0
294
1
141
0.0
177
0
142
1.0
295
0
296
0
143
3.75
271
0
272
9
273
9
  0
DICTIONARY
  5
2D
330
A
100
AcDbDictionary
281
1
  3
CREATED_BY_EZDXF
350
2E
  3
WRITTEN_BY_EZDXF
350
B1
  0
DICTIONARYVAR
  5
2E
330
2D
100
DictionaryVariables
280
0
  1
1.3.0 @ 2026-01-06T17:07:25.090251+00:00
  0
VISUALSTYLE
  5
5A
102
{ACAD_REACTORS
330
16
102
}
330
16
100
AcDbVisualStyle
  2
2dWireframe
 70
4
 90
0
 40
0.6
 62
7
290
0
291
0
  0
VISUALSTYLE
  5
5B
102
{ACAD_REACTORS
330
16
102
}
330
16
100
AcDbVisualStyle
  2
Basic
 70
7
 90
1
 40
0.6
 62
7
290
0
291
1
  0
VISUALSTYLE
  5
5C
102
{ACAD_REACTORS
330
16
102
}
330
16
100
AcDbVisualStyle
  2
Brighten
 70
12
 90
2
 40
0.6
 62
7
290
0
291
1
  0
VISUALSTYLE
  5
5D
102
{ACAD_REACTORS
330
16
102
}
330
16
100
AcDbVisualStyle
  2
ColorChange
 70
16
 90
2
 40
0.6
 62
8
290
0
291
1
  0
VISUALSTYLE
  5
5E
102
{ACAD_REACTORS
330
16
102
}
330
16
100
AcDbVisualStyle
  2
Conceptual
 70
9
 90
3
 40
0.6
 62
7
290
0
291
0
  0
VISUALSTYLE
  5
5F
102
{ACAD_REACTORS
330
16
102
}
330
16
100
AcDbVisualStyle
  2
Dim
 70
11
 90
2
 40
0.6
 62
7
290
0
291
1
  0
VISUALSTYLE
  5
60
102
{ACAD_REACTORS
330
16
102
}
330
16
100
AcDbVisualStyle
  2
EdgeColorOff
 70
22
 90
2
 40
0.6
 62
7
290
0
291
1
  0
VISUALSTYLE
  5
61
102
{ACAD_REACTORS
330
16
102
}
330
16
100
AcDbVisualStyle
  2
Facepattern
 70
15
 90
2
 40
0.6
 62
7
290
0
291
1
  0
VISUALSTYLE
  5
62
102
{ACAD_REACTORS
330
16
102
}
330
16
100
AcDbVisualStyle
  2
Flat
 70
0
 90
2
 40
0.6
 62
7
290
0
291
1
  0
VISUALSTYLE
  5
63
102
{ACAD_REACTORS
330
16
102
}
330
16
100
AcDbVisualStyle
  2
FlatWithEdges
 70
1
 90
2
 40
0.6
 62
7
290
0
291
1
  0
VISUALSTYLE
  5
64
102
{ACAD_REACTORS
330
16
102
}
330
16
100
AcDbVisualStyle
  2
Gouraud
 70
2
 90
2
 40
0.6
 62
7
290
0
291
1
  0
VISUALSTYLE
  5
65
102
{ACAD_REACTORS
330
16
102
}
330
16
100
AcDbVisualStyle
  2
GouraudWithEdges
 70
3
 90
2
 40
0.6
 62
7
290
0
291
1
  0
VISUALSTYLE
  5
66
102
{ACAD_REACTORS
330
16
102
}
330
16
100
AcDbVisualStyle
  2
Hidden
 70
6
 90
1
 40
0.6
 62
7
290
0
291
0
  0
VISUALSTYLE
  5
67
102
{ACAD_REACTORS
330
16
102
}
330
16
100
AcDbVisualStyle
  2
JitterOff
 70
20
 90
2
 40
0.6
 62
7
290
0
291
1
  0
VISUALSTYLE
  5
68
102
{ACAD_REACTORS
330
16
102
}
330
16
100
AcDbVisualStyle
  2
Linepattern
 70
14
 90
2
 40
0.6
 62
7
290
0
291
1
  0
VISUALSTYLE
  5
69
102
{ACAD_REACTORS
330
16
102
}
330
16
100
AcDbVisualStyle
  2
Modeling
 70
10
 90
2
 40
0.6
 62
7
290
0
291
0
  0
VISUALSTYLE
  5
6A
102
{ACAD_REACTORS
330
16
102
}
330
16
100
AcDbVisualStyle
  2
OverhangOff
 70
21
 90
2
 40
0.6
 62
7
290
0
291
1
  0
VISUALSTYLE
  5
6B
102
{ACAD_REACTORS
330
16
102
}
330
16
100
AcDbVisualStyle
  2
Realistic
 70
8
 90
2
 40
0.6
 62
7
290
0
291
0
  0
VISUALSTYLE
  5
6C
102
{ACAD_REACTORS
330
16
102
}
330
16
100
AcDbVisualStyle
  2
Shaded
 70
27
 90
2
 40
0.6
 62
7
290
0
291
0
  0
VISUALSTYLE
  5
6D
102
{ACAD_REACTORS
330
16
102
}
330
16
100
AcDbVisualStyle
  2
Shaded with edges
 70
26
 90
2
 40
0.6
 62
7
290
0
291
0
  0
VISUALSTYLE
  5
6E
102
{ACAD_REACTORS
330
16
102
}
330
16
100
AcDbVisualStyle
  2
Shades of Gray
 70
23
 90
2
 40
0.6
 62
7
290
0
291
0
  0
VISUALSTYLE
  5
6F
102
{ACAD_REACTORS
330
16
102
}
330
16
100
AcDbVisualStyle
  2
Sketchy
 70
24
 90
1
 40
0.6
 62
7
290
0
291
0
  0
VISUALSTYLE
  5
70
102
{ACAD_REACTORS
330
16
102
}
330
16
100
AcDbVisualStyle
  2
Thicken
 70
13
 90
2
 40
0.6
 62
7
290
0
291
1
  0
VISUALSTYLE
  5
71
102
{ACAD_REACTORS
330
16
102
}
330
16
100
AcDbVisualStyle
  2
Wireframe
 70
5
 90
0
 40
0.6
 62
7
290
0
291
0
  0
VISUALSTYLE
  5
72
102
{ACAD_REACTORS
330
16
102
}
330
16
100
AcDbVisualStyle
  2
X-Ray
 70
25
 90
2
 40
0.5
 62
7
290
0
291
0
  0
DICTIONARYVAR
  5
B1
330
2D
100
DictionaryVariables
280
0
  1
1.3.0 @ 2026-01-06T17:07:25.147660+00:00
  0
ENDSEC
  0
EOF
