  0
SECTION
  2
HEADER
  9
$ACADVER
  1
AC1021
  9
$ACADMAINTVER
 70
25
  9
$DWGCODEPAGE
  3
ANSI_1252
  9
$LASTSAVEDBY
  1
ezdxf
  9
$INSBASE
 10
0.0
 20
0.0
 30
0.0
  9
$EXTMIN
 10
1e+20
 20
1e+20
 30
1e+20
  9
$EXTMAX
 10
-1e+20
 20
-1e+20
 30
-1e+20
  9
$LIMMIN
 10
0.0
 20
0.0
  9
$LIMMAX
 10
420.0
 20
297.0
  9
$ORTHOMODE
 70
0
  9
$REGENMODE
 70
1
  9
$FILLMODE
 70
1
  9
$QTEXTMODE
 70
0
  9
$MIRRTEXT
 70
1
  9
$LTSCALE
 40
1.0
  9
$ATTMODE
 70
1
  9
$TEXTSIZE
 40
2.5
  9
$TRACEWID
 40
1.0
  9
$TEXTSTYLE
  7
OpenSans
  9
$CLAYER
  8
0
  9
$CELTYPE
  6
ByLayer
  9
$CECOLOR
 62
256
  9
$CELTSCALE
 40
1.0
  9
$DISPSILH
 70
0
  9
$DIMSCALE
 40
1.0
  9
$DIMASZ
 40
0.175
  9
$DIMEXO
 40
0.125
  9
$DIMDLI
 40
3.75
  9
$DIMRND
 40
0.0
  9
$DIMDLE
 40
0.0
  9
$DIMEXE
 40
0.375
  9
$DIMTP
 40
0.0
  9
$DIMTM
 40
0.0
  9
$DIMTXT
 40
0.25
  9
$DIMCEN
 40
2.5
  9
$DIMTSZ
 40
0.0
  9
$DIMTOL
 70
0
  9
$DIMLIM
 70
0
  9
$DIMTIH
 70
0
  9
$DIMTOH
 70
0
  9
$DIMSE1
 70
0
  9
$DIMSE2
 70
0
  9
$DIMTAD
 70
1
  9
$DIMZIN
 70
12
  9
$DIMBLK
  1
ARCHTICK
  9
$DIMASO
 70
1
  9
$DIMSHO
 70
1
  9
$DIMPOST
  1

  9
$DIMAPOST
  1

  9
$DIMALT
 70
0
  9
$DIMALTD
 70
3
  9
$DIMALTF
 40
0.03937007874
  9
$DIMLFAC
 40
100.0
  9
$DIMTOFL
 70
1
  9
$DIMTVP
 40
0.0
  9
$DIMTIX
 70
0
  9
$DIMSOXD
 70
0
  9
$DIMSAH
 70
0
  9
$DIMBLK1
  1

  9
$DIMBLK2
  1

  9
$DIMSTYLE
  2
EZDXF
  9
$DIMCLRD
 70
0
  9
$DIMCLRE
 70
0
  9
$DIMCLRT
 70
0
  9
$DIMTFAC
 40
0.5
  9
$DIMGAP
 40
0.1
  9
$DIMJUST
 70
0
  9
$DIMSD1
 70
0
  9
$DIMSD2
 70
0
  9
$DIMTOLJ
 70
0
  9
$DIMTZIN
 70
8
  9
$DIMALTZ
 70
0
  9
$DIMALTTZ
 70
0
  9
$DIMUPT
 70
1
  9
$DIMDEC
 70
2
  9
$DIMTDEC
 70
2
  9
$DIMALTU
 70
2
  9
$DIMALTTD
 70
3
  9
$DIMTXSTY
  7
OpenSansCondensed-Light
  9
$DIMAUNIT
 70
0
  9
$DIMADEC
 70
2
  9
$DIMALTRND
 40
0.0
  9
$DIMAZIN
 70
3
  9
$DIMDSEP
 70
46
  9
$DIMATFIT
 70
3
  9
$DIMFRAC
 70
0
  9
$DIMLDRBLK
  1

  9
$DIMLUNIT
 70
2
  9
$DIMLWD
 70
-2
  9
$DIMLWE
 70
-2
  9
$DIMTMOVE
 70
2
  9
$DIMFXL
 40
1.0
  9
$DIMFXLON
 70
0
  9
$DIMJOGANG
 40
0.785398163397
  9
$DIMTFILL
 70
0
  9
$DIMTFILLCLR
 70
0
  9
$DIMARCSYM
 70
0
  9
$DIMLTYPE
  6

  9
$DIMLTEX1
  6

  9
$DIMLTEX2
  6

  9
$LUNITS
 70
2
  9
$LUPREC
 70
4
  9
$SKETCHINC
 40
1.0
  9
$FILLETRAD
 40
10.0
  9
$AUNITS
 70
0
  9
$AUPREC
 70
2
  9
$MENU
  1
.
  9
$ELEVATION
 40
0.0
  9
$PELEVATION
 40
0.0
  9
$THICKNESS
 40
0.0
  9
$LIMCHECK
 70
0
  9
$CHAMFERA
 40
0.0
  9
$CHAMFERB
 40
0.0
  9
$CHAMFERC
 40
0.0
  9
$CHAMFERD
 40
0.0
  9
$SKPOLY
 70
0
  9
$TDCREATE
 40
2461048.088449074
  9
$TDUCREATE
 40
2458532.153996898
  9
$TDUPDATE
 40
2461048.088449074
  9
$TDUUPDATE
 40
2458532.1544311
  9
$TDINDWG
 40
0.0
  9
$TDUSRTIMER
 40
0.0
  9
$USRTIMER
 70
1
  9
$ANGBASE
 50
0.0
  9
$ANGDIR
 70
0
  9
$PDMODE
 70
0
  9
$PDSIZE
 40
0.0
  9
$PLINEWID
 40
0.0
  9
$SPLFRAME
 70
0
  9
$SPLINETYPE
 70
6
  9
$SPLINESEGS
 70
8
  9
$HANDSEED
  5
B8
  9
$SURFTAB1
 70
6
  9
$SURFTAB2
 70
6
  9
$SURFTYPE
 70
6
  9
$SURFU
 70
6
  9
$SURFV
 70
6
  9
$UCSBASE
  2

  9
$UCSNAME
  2

  9
$UCSORG
 10
0.0
 20
0.0
 30
0.0
  9
$UCSXDIR
 10
1.0
 20
0.0
 30
0.0
  9
$UCSYDIR
 10
0.0
 20
1.0
 30
0.0
  9
$UCSORTHOREF
  2

  9
$UCSORTHOVIEW
 70
0
  9
$UCSORGTOP
 10
0.0
 20
0.0
 30
0.0
  9
$UCSORGBOTTOM
 10
0.0
 20
0.0
 30
0.0
  9
$UCSORGLEFT
 10
0.0
 20
0.0
 30
0.0
  9
$UCSORGRIGHT
 10
0.0
 20
0.0
 30
0.0
  9
$UCSORGFRONT
 10
0.0
 20
0.0
 30
0.0
  9
$UCSORGBACK
 10
0.0
 20
0.0
 30
0.0
  9
$PUCSBASE
  2

  9
$PUCSNAME
  2

  9
$PUCSORG
 10
0.0
 20
0.0
 30
0.0
  9
$PUCSXDIR
 10
1.0
 20
0.0
 30
0.0
  9
$PUCSYDIR
 10
0.0
 20
1.0
 30
0.0
  9
$PUCSORTHOREF
  2

  9
$PUCSORTHOVIEW
 70
0
  9
$PUCSORGTOP
 10
0.0
 20
0.0
 30
0.0
  9
$PUCSORGBOTTOM
 10
0.0
 20
0.0
 30
0.0
  9
$PUCSORGLEFT
 10
0.0
 20
0.0
 30
0.0
  9
$PUCSORGRIGHT
 10
0.0
 20
0.0
 30
0.0
  9
$PUCSORGFRONT
 10
0.0
 20
0.0
 30
0.0
  9
$PUCSORGBACK
 10
0.0
 20
0.0
 30
0.0
  9
$USERI1
 70
0
  9
$USERI2
 70
0
  9
$USERI3
 70
0
  9
$USERI4
 70
0
  9
$USERI5
 70
0
  9
$USERR1
 40
0.0
  9
$USERR2
 40
0.0
  9
$USERR3
 40
0.0
  9
$USERR4
 40
0.0
  9
$USERR5
 40
0.0
  9
$WORLDVIEW
 70
1
  9
$SHADEDGE
 70
3
  9
$SHADEDIF
 70
70
  9
$TILEMODE
 70
1
  9
$MAXACTVP
 70
64
  9
$PINSBASE
 10
0.0
 20
0.0
 30
0.0
  9
$PLIMCHECK
 70
0
  9
$PEXTMIN
 10
1e+20
 20
1e+20
 30
1e+20
  9
$PEXTMAX
 10
-1e+20
 20
-1e+20
 30
-1e+20
  9
$PLIMMIN
 10
0.0
 20
0.0
  9
$PLIMMAX
 10
420.0
 20
297.0
  9
$UNITMODE
 70
0
  9
$VISRETAIN
 70
1
  9
$PLINEGEN
 70
0
  9
$PSLTSCALE
 70
1
  9
$TREEDEPTH
 70
3020
  9
$CMLSTYLE
  2
Standard
  9
$CMLJUST
 70
0
  9
$CMLSCALE
 40
20.0
  9
$PROXYGRAPHICS
 70
1
  9
$MEASUREMENT
 70
1
  9
$CELWEIGHT
370
-1
  9
$ENDCAPS
280
0
  9
$JOINSTYLE
280
0
  9
$LWDISPLAY
290
0
  9
$INSUNITS
 70
6
  9
$HYPERLINKBASE
  1

  9
$STYLESHEET
  1

  9
$XEDIT
290
1
  9
$CEPSNTYPE
380
0
  9
$PSTYLEMODE
290
1
  9
$FINGERPRINTGUID
  2
{BE6A4E0E-981F-49B4-A906-5F965CEBE30B}
  9
$VERSIONGUID
  2
{A42C78F8-BD85-43FD-903C-1DA33F696A62}
  9
$EXTNAMES
290
1
  9
$PSVPSCALE
 40
0.0
  9
$OLESTARTUP
290
0
  9
$SORTENTS
280
127
  9
$INDEXCTL
280
0
  9
$HIDETEXT
280
1
  9
$XCLIPFRAME
290
1
  9
$HALOGAP
280
0
  9
$OBSCOLOR
 70
257
  9
$OBSLTYPE
280
0
  9
$INTERSECTIONDISPLAY
280
0
  9
$INTERSECTIONCOLOR
 70
257
  9
$DIMASSOC
280
2
  9
$PROJECTNAME
  1

  9
$CAMERADISPLAY
290
0
  9
$LENSLENGTH
 40
50.0
  9
$CAMERAHEIGHT
 40
0.0
  9
$STEPSPERSEC
 40
24.0
  9
$STEPSIZE
 40
100.0
  9
$3DDWFPREC
 40
2.0
  9
$PSOLWIDTH
 40
0.005
  9
$PSOLHEIGHT
 40
0.08
  9
$LOFTANG1
 40
1.570796326795
  9
$LOFTANG2
 40
1.570796326795
  9
$LOFTMAG1
 40
0.0
  9
$LOFTMAG2
 40
0.0
  9
$LOFTPARAM
 70
7
  9
$LOFTNORMALS
280
1
  9
$LATITUDE
 40
37.795
  9
$LONGITUDE
 40
-122.394
  9
$NORTHDIRECTION
 40
0.0
  9
$TIMEZONE
 70
-8000
  9
$LIGHTGLYPHDISPLAY
280
1
  9
$TILEMODELIGHTSYNCH
280
1
  9
$CMATERIAL
347
20
  9
$SOLIDHIST
280
0
  9
$SHOWHIST
280
1
  9
$DWFFRAME
280
2
  9
$DGNFRAME
280
2
  9
$REALWORLDSCALE
290
1
  9
$INTERFERECOLOR
 62
256
  9
$CSHADOW
280
0
  9
$SHADOWPLANELOCATION
 40
0.0
  0
ENDSEC
  0
SECTION
  2
CLASSES
  0
CLASS
  1
ACDBDICTIONARYWDFLT
  2
AcDbDictionaryWithDefault
  3
ObjectDBX Classes
 90
0
 91
0
280
0
281
0
  0
CLASS
  1
SUN
  2
AcDbSun
  3
SCENEOE
 90
1153
 91
0
280
0
281
0
  0
CLASS
  1
VISUALSTYLE
  2
AcDbVisualStyle
  3
ObjectDBX Classes
 90
4095
 91
0
280
0
281
0
  0
CLASS
  1
MATERIAL
  2
AcDbMaterial
  3
ObjectDBX Classes
 90
1153
 91
0
280
0
281
0
  0
CLASS
  1
SCALE
  2
AcDbScale
  3
ObjectDBX Classes
 90
1153
 91
0
280
0
281
0
  0
CLASS
  1
TABLESTYLE
  2
AcDbTableStyle
  3
ObjectDBX Classes
 90
4095
 91
0
280
0
281
0
  0
CLASS
  1
MLEADERSTYLE
  2
AcDbMLeaderStyle
  3
ACDB_MLEADERSTYLE_CLASS
 90
4095
 91
0
280
0
281
0
  0
CLASS
  1
DICTIONARYVAR
  2
AcDbDictionaryVar
  3
ObjectDBX Classes
 90
0
 91
0
280
0
281
0
  0
CLASS
  1
CELLSTYLEMAP
  2
AcDbCellStyleMap
  3
ObjectDBX Classes
 90
1152
 91
0
280
0
281
0
  0
CLASS
  1
MENTALRAYRENDERSETTINGS
  2
AcDbMentalRayRenderSettings
  3
SCENEOE
 90
1024
 91
0
280
0
281
0
  0
CLASS
  1
ACDBDETAILVIEWSTYLE
  2
AcDbDetailViewStyle
  3
ObjectDBX Classes
 90
1025
 91
0
280
0
281
0
  0
CLASS
  1
ACDBSECTIONVIEWSTYLE
  2
AcDbSectionViewStyle
  3
ObjectDBX Classes
 90
1025
 91
0
280
0
281
0
  0
CLASS
  1
RASTERVARIABLES
  2
AcDbRasterVariables
  3
ISM
 90
0
 91
0
280
0
281
0
  0
CLASS
  1
ACDBPLACEHOLDER
  2
AcDbPlaceHolder
  3
ObjectDBX Classes
 90
0
 91
0
280
0
281
0
  0
CLASS
  1
LAYOUT
  2
AcDbLayout
  3
ObjectDBX Classes
 90
0
 91
0
280
0
281
0
  0
ENDSEC
  0
SECTION
  2
TABLES
  0
TABLE
  2
VPORT
  5
8
330
0
100
AcDbSymbolTable
 70
1
  0
VPORT
  5
23
330
8
100
AcDbSymbolTableRecord
100
AcDbViewportTableRecord
  2
*Active
 70
0
 10
0.0
 20
0.0
 11
1.0
 21
1.0
 12
0.0
 22
0.0
 13
0.0
 23
0.0
 14
0.5
 24
0.5
 15
0.5
 25
0.5
 16
0.0
 26
0.0
 36
1.0
 17
0.0
 27
0.0
 37
0.0
 40
1000.0
 41
1.34
 42
50.0
 43
0.0
 44
0.0
 50
0.0
 51
0.0
 71
0
 72
1000
 73
1
 74
3
 75
0
 76
0
 77
0
 78
0
281
0
 65
0
146
0.0
  0
ENDTAB
  0
TABLE
  2
LTYPE
  5
2
330
0
100
AcDbSymbolTable
 70
21
  0
LTYPE
  5
24
330
2
100
AcDbSymbolTableRecord
100
AcDbLinetypeTableRecord
  2
ByBlock
 70
0
  3

 72
65
 73
0
 40
0.0
  0
LTYPE
  5
25
330
2
100
AcDbSymbolTableRecord
100
AcDbLinetypeTableRecord
  2
ByLayer
 70
0
  3

 72
65
 73
0
 40
0.0
  0
LTYPE
  5
26
330
2
100
AcDbSymbolTableRecord
100
AcDbLinetypeTableRecord
  2
Continuous
 70
0
  3

 72
65
 73
0
 40
0.0
  0
LTYPE
  5
2F
330
2
100
AcDbSymbolTableRecord
100
AcDbLinetypeTableRecord
  2
CENTER
 70
0
  3
Center ____ _ ____ _ ____ _ ____ _ ____ _ ____
 72
65
 73
4
 40
5.08
 49
3.175
 74
0
 49
-0.635
 74
0
 49
0.635
 74
0
 49
-0.635
 74
0
  0
LTYPE
  5
30
330
2
100
AcDbSymbolTableRecord
100
AcDbLinetypeTableRecord
  2
CENTERX2
 70
0
  3
Center (2x) ________  __  ________  __  ________
 72
65
 73
4
 40
8.89
 49
6.35
 74
0
 49
-0.635
 74
0
 49
1.27
 74
0
 49
-0.635
 74
0
  0
LTYPE
  5
31
330
2
100
AcDbSymbolTableRecord
100
AcDbLinetypeTableRecord
  2
CENTER2
 70
0
  3
Center (.5x) ____ _ ____ _ ____ _ ____ _ ____
 72
65
 73
4
 40
2.54
 49
1.587
 74
0
 49
-0.318
 74
0
 49
0.318
 74
0
 49
-0.318
 74
0
  0
LTYPE
  5
32
330
2
100
AcDbSymbolTableRecord
100
AcDbLinetypeTableRecord
  2
DASHED
 70
0
  3
Dashed __ __ __ __ __ __ __ __ __ __ __ __ __ _
 72
65
 73
2
 40
1.524
 49
1.27
 74
0
 49
-0.254
 74
0
  0
LTYPE
  5
33
330
2
100
AcDbSymbolTableRecord
100
AcDbLinetypeTableRecord
  2
DASHEDX2
 70
0
  3
Dashed (2x) ____  ____  ____  ____  ____  ____
 72
65
 73
2
 40
3.048
 49
2.54
 74
0
 49
-0.508
 74
0
  0
LTYPE
  5
34
330
2
100
AcDbSymbolTableRecord
100
AcDbLinetypeTableRecord
  2
DASHED2
 70
0
  3
Dashed (.5x) _ _ _ _ _ _ _ _ _ _ _ _ _ _
 72
65
 73
2
 40
0.762
 49
0.635
 74
0
 49
-0.127
 74
0
  0
LTYPE
  5
35
330
2
100
AcDbSymbolTableRecord
100
AcDbLinetypeTableRecord
  2
PHANTOM
 70
0
  3
Phantom ______  __  __  ______  __  __  ______
 72
65
 73
6
 40
6.35
 49
3.175
 74
0
 49
-0.635
 74
0
 49
0.635
 74
0
 49
-0.635
 74
0
 49
0.635
 74
0
 49
-0.635
 74
0
  0
LTYPE
  5
36
330
2
100
AcDbSymbolTableRecord
100
AcDbLinetypeTableRecord
  2
PHANTOMX2
 70
0
  3
Phantom (2x)____________    ____    ____    ____________
 72
65
 73
6
 40
10.795
 49
6.35
 74
0
 49
-0.635
 74
0
 49
1.27
 74
0
 49
-0.635
 74
0
 49
1.27
 74
0
 49
-0.635
 74
0
  0
LTYPE
  5
37
330
2
100
AcDbSymbolTableRecord
100
AcDbLinetypeTableRecord
  2
PHANTOM2
 70
0
  3
Phantom (.5x) ___ _ _ ___ _ _ ___ _ _ ___ _ _ ___
 72
65
 73
6
 40
3.175
 49
1.587
 74
0
 49
-0.318
 74
0
 49
0.318
 74
0
 49
-0.318
 74
0
 49
0.318
 74
0
 49
-0.318
 74
0
  0
LTYPE
  5
38
330
2
100
AcDbSymbolTableRecord
100
AcDbLinetypeTableRecord
  2
DASHDOT
 70
0
  3
Dash dot __ . __ . __ . __ . __ . __ . __ . __
 72
65
 73
4
 40
3.556
 49
2.54
 74
0
 49
-0.508
 74
0
 49
0.0
 74
0
 49
-0.508
 74
0
  0
LTYPE
  5
39
330
2
100
AcDbSymbolTableRecord
100
AcDbLinetypeTableRecord
  2
DASHDOTX2
 70
0
  3
Dash dot (2x) ____  .  ____  .  ____  .  ____
 72
65
 73
4
 40
6.096
 49
5.08
 74
0
 49
-0.508
 74
0
 49
0.0
 74
0
 49
-0.508
 74
0
  0
LTYPE
  5
3A
330
2
100
AcDbSymbolTableRecord
100
AcDbLinetypeTableRecord
  2
DASHDOT2
 70
0
  3
Dash dot (.5x) _ . _ . _ . _ . _ . _ . _ . _
 72
65
 73
4
 40
1.778
 49
1.27
 74
0
 49
-0.254
 74
0
 49
0.0
 74
0
 49
-0.254
 74
0
  0
LTYPE
  5
3B
330
2
100
AcDbSymbolTableRecord
100
AcDbLinetypeTableRecord
  2
DOT
 70
0
  3
Dot .  .  .  .  .  .  .  .  .  .  .  .  .  .  .  .
 72
65
 73
2
 40
0.508
 49
0.0
 74
0
 49
-0.508
 74
0
  0
LTYPE
  5
3C
330
2
100
AcDbSymbolTableRecord
100
AcDbLinetypeTableRecord
  2
DOTX2
 70
0
  3
Dot (2x) .    .    .    .    .    .    .    . 
 72
65
 73
2
 40
1.016
 49
0.0
 74
0
 49
-1.016
 74
0
  0
LTYPE
  5
3D
330
2
100
AcDbSymbolTableRecord
100
AcDbLinetypeTableRecord
  2
DOT2
 70
0
  3
Dot (.5) . . . . . . . . . . . . . . . . . . . 
 72
65
 73
2
 40
0.254
 49
0.0
 74
0
 49
-0.254
 74
0
  0
LTYPE
  5
3E
330
2
100
AcDbSymbolTableRecord
100
AcDbLinetypeTableRecord
  2
DIVIDE
 70
0
  3
Divide __ . . __ . . __ . . __ . . __ . . __
 72
65
 73
6
 40
4.064
 49
2.54
 74
0
 49
-0.508
 74
0
 49
0.0
 74
0
 49
-0.508
 74
0
 49
0.0
 74
0
 49
-0.508
 74
0
  0
LTYPE
  5
3F
330
2
100
AcDbSymbolTableRecord
100
AcDbLinetypeTableRecord
  2
DIVIDEX2
 70
0
  3
Divide (2x) ____  . .  ____  . .  ____  . .  ____
 72
65
 73
6
 40
6.604
 49
5.08
 74
0
 49
-0.508
 74
0
 49
0.0
 74
0
 49
-0.508
 74
0
 49
0.0
 74
0
 49
-0.508
 74
0
  0
LTYPE
  5
40
330
2
100
AcDbSymbolTableRecord
100
AcDbLinetypeTableRecord
  2
DIVIDE2
 70
0
  3
Divide(.5x) _ . _ . _ . _ . _ . _ . _ . _
 72
65
 73
6
 40
2.032
 49
1.27
 74
0
 49
-0.254
 74
0
 49
0.0
 74
0
 49
-0.254
 74
0
 49
0.0
 74
0
 49
-0.254
 74
0
  0
ENDTAB
  0
TABLE
  2
LAYER
  5
1
330
0
100
AcDbSymbolTable
 70
5
  0
LAYER
  5
27
330
1
100
AcDbSymbolTableRecord
100
AcDbLayerTableRecord
  2
0
 70
0
 62
7
  6
Continuous
370
-3
390
13
347
21
  0
LAYER
  5
28
330
1
100
AcDbSymbolTableRecord
100
AcDbLayerTableRecord
  2
Defpoints
 70
0
 62
7
  6
Continuous
290
0
370
-3
390
13
347
21
  0
LAYER
  5
8A
330
1
100
AcDbSymbolTableRecord
100
AcDbLayerTableRecord
  2
Layer
 70
0
 62
1
  6
Continuous
370
50
390
13
347
21
  0
LAYER
  5
8B
330
1
100
AcDbSymbolTableRecord
100
AcDbLayerTableRecord
  2
NumLabel
 70
0
 62
1
  6
Continuous
370
15
390
13
347
21
  0
LAYER
  5
B6
330
1
100
AcDbSymbolTableRecord
100
AcDbLayerTableRecord
  2
SplitMark
 70
0
 62
3
  6
Continuous
370
-3
390
13
347
21
  0
ENDTAB
  0
TABLE
  2
STYLE
  5
5
330
0
100
AcDbSymbolTable
 70
26
  0
STYLE
  5
29
330
5
100
AcDbSymbolTableRecord
100
AcDbTextStyleTableRecord
  2
Standard
 70
0
 40
0.0
 41
1.0
 50
0.0
 71
0
 42
2.5
  3
txt
  4

  0
STYLE
  5
41
330
5
100
AcDbSymbolTableRecord
100
AcDbTextStyleTableRecord
  2
OpenSans-Light
 70
0
 40
0.0
 41
1.0
 50
0.0
 71
0
 42
2.5
  3
OpenSans-Light.ttf
  4

  0
STYLE
  5
42
330
5
100
AcDbSymbolTableRecord
100
AcDbTextStyleTableRecord
  2
OpenSans-Light-Italic
 70
0
 40
0.0
 41
1.0
 50
0.0
 71
0
 42
2.5
  3
OpenSans-LightItalic.ttf
  4

  0
STYLE
  5
43
330
5
100
AcDbSymbolTableRecord
100
AcDbTextStyleTableRecord
  2
OpenSans
 70
0
 40
0.0
 41
1.0
 50
0.0
 71
0
 42
2.5
  3
OpenSans-Regular.ttf
  4

  0
STYLE
  5
44
330
5
100
AcDbSymbolTableRecord
100
AcDbTextStyleTableRecord
  2
OpenSans-Italic
 70
0
 40
0.0
 41
1.0
 50
0.0
 71
0
 42
2.5
  3
OpenSans-Italic.ttf
  4

  0
STYLE
  5
45
330
5
100
AcDbSymbolTableRecord
100
AcDbTextStyleTableRecord
  2
OpenSans-SemiBold
 70
0
 40
0.0
 41
1.0
 50
0.0
 71
0
 42
2.5
  3
OpenSans-SemiBold.ttf
  4

  0
STYLE
  5
46
330
5
100
AcDbSymbolTableRecord
100
AcDbTextStyleTableRecord
  2
OpenSans-SemiBoldItalic
 70
0
 40
0.0
 41
1.0
 50
0.0
 71
0
 42
2.5
  3
OpenSans-SemiBoldItalic.ttf
  4

  0
STYLE
  5
47
330
5
100
AcDbSymbolTableRecord
100
AcDbTextStyleTableRecord
  2
OpenSans-Bold
 70
0
 40
0.0
 41
1.0
 50
0.0
 71
0
 42
2.5
  3
OpenSans-Bold.ttf
  4

  0
STYLE
  5
48
330
5
100
AcDbSymbolTableRecord
100
AcDbTextStyleTableRecord
  2
OpenSans-BoldItalic
 70
0
 40
0.0
 41
1.0
 50
0.0
 71
0
 42
2.5
  3
OpenSans-BoldItalic.ttf
  4

  0
STYLE
  5
49
330
5
100
AcDbSymbolTableRecord
100
AcDbTextStyleTableRecord
  2
OpenSans-ExtraBold
 70
0
 40
0.0
 41
1.0
 50
0.0
 71
0
 42
2.5
  3
OpenSans-ExtraBold.ttf
  4

  0
STYLE
  5
4A
330
5
100
AcDbSymbolTableRecord
100
AcDbTextStyleTableRecord
  2
OpenSans-ExtraBoldItalic
 70
0
 40
0.0
 41
1.0
 50
0.0
 71
0
 42
2.5
  3
OpenSans-ExtraBoldItalic.ttf
  4

  0
STYLE
  5
4B
330
5
100
AcDbSymbolTableRecord
100
AcDbTextStyleTableRecord
  2
OpenSansCondensed-Bold
 70
0
 40
0.0
 41
1.0
 50
0.0
 71
0
 42
2.5
  3
OpenSansCondensed-Bold.ttf
  4

  0
STYLE
  5
4C
330
5
100
AcDbSymbolTableRecord
100
AcDbTextStyleTableRecord
  2
OpenSansCondensed-Light
 70
0
 40
0.0
 41
1.0
 50
0.0
 71
0
 42
2.5
  3
OpenSansCondensed-Light.ttf
  4

  0
STYLE
  5
4D
330
5
100
AcDbSymbolTableRecord
100
AcDbTextStyleTableRecord
  2
OpenSansCondensed-Italic
 70
0
 40
0.0
 41
1.0
 50
0.0
 71
0
 42
2.5
  3
OpenSansCondensed-LightItalic.ttf
  4

  0
STYLE
  5
4E
330
5
100
AcDbSymbolTableRecord
100
AcDbTextStyleTableRecord
  2
LiberationSans
 70
0
 40
0.0
 41
1.0
 50
0.0
 71
0
 42
2.5
  3
LiberationSans-Regular.ttf
  4

  0
STYLE
  5
4F
330
5
100
AcDbSymbolTableRecord
100
AcDbTextStyleTableRecord
  2
LiberationSans-Bold
 70
0
 40
0.0
 41
1.0
 50
0.0
 71
0
 42
2.5
  3
LiberationSans-Bold.ttf
  4

  0
STYLE
  5
50
330
5
100
AcDbSymbolTableRecord
100
AcDbTextStyleTableRecord
  2
LiberationSans-BoldItalic
 70
0
 40
0.0
 41
1.0
 50
0.0
 71
0
 42
2.5
  3
LiberationSans-BoldItalic.ttf
  4

  0
STYLE
  5
51
330
5
100
AcDbSymbolTableRecord
100
AcDbTextStyleTableRecord
  2
LiberationSans-Italic
 70
0
 40
0.0
 41
1.0
 50
0.0
 71
0
 42
2.5
  3
LiberationSans-Italic.ttf
  4

  0
STYLE
  5
52
330
5
100
AcDbSymbolTableRecord
100
AcDbTextStyleTableRecord
  2
LiberationSerif
 70
0
 40
0.0
 41
1.0
 50
0.0
 71
0
 42
2.5
  3
LiberationSerif-Regular.ttf
  4

  0
STYLE
  5
53
330
5
100
AcDbSymbolTableRecord
100
AcDbTextStyleTableRecord
  2
LiberationSerif-Bold
 70
0
 40
0.0
 41
1.0
 50
0.0
 71
0
 42
2.5
  3
LiberationSerif-Bold.ttf
  4

  0
STYLE
  5
54
330
5
100
AcDbSymbolTableRecord
100
AcDbTextStyleTableRecord
  2
LiberationSerif-BoldItalic
 70
0
 40
0.0
 41
1.0
 50
0.0
 71
0
 42
2.5
  3
LiberationSerif-BoldItalic.ttf
  4

  0
STYLE
  5
55
330
5
100
AcDbSymbolTableRecord
100
AcDbTextStyleTableRecord
  2
LiberationSerif-Italic
 70
0
 40
0.0
 41
1.0
 50
0.0
 71
0
 42
2.5
  3
LiberationSerif-Italic.ttf
  4

  0
STYLE
  5
56
330
5
100
AcDbSymbolTableRecord
100
AcDbTextStyleTableRecord
  2
LiberationMono
 70
0
 40
0.0
 41
1.0
 50
0.0
 71
0
 42
2.5
  3
LiberationMono-Regular.ttf
  4

  0
STYLE
  5
57
330
5
100
AcDbSymbolTableRecord
100
AcDbTextStyleTableRecord
  2
LiberationMono-Bold
 70
0
 40
0.0
 41
1.0
 50
0.0
 71
0
 42
2.5
  3
LiberationMono-Bold.ttf
  4

  0
STYLE
  5
58
330
5
100
AcDbSymbolTableRecord
100
AcDbTextStyleTableRecord
  2
LiberationMono-BoldItalic
 70
0
 40
0.0
 41
1.0
 50
0.0
 71
0
 42
2.5
  3
LiberationMono-BoldItalic.ttf
  4

  0
STYLE
  5
59
330
5
100
AcDbSymbolTableRecord
100
AcDbTextStyleTableRecord
  2
LiberationMono-Italic
 70
0
 40
0.0
 41
1.0
 50
0.0
 71
0
 42
2.5
  3
LiberationMono-Italic.ttf
  4

  0
ENDTAB
  0
TABLE
  2
VIEW
  5
7
330
0
100
AcDbSymbolTable
 70
0
  0
ENDTAB
  0
TABLE
  2
UCS
  5
6
330
0
100
AcDbSymbolTable
 70
0
  0
ENDTAB
  0
TABLE
  2
APPID
  5
3
330
0
100
AcDbSymbolTable
 70
3
  0
APPID
  5
2A
330
3
100
AcDbSymbolTableRecord
100
AcDbRegAppTableRecord
  2
ACAD
 70
0
  0
APPID
  5
B3
330
3
100
AcDbSymbolTableRecord
100
AcDbRegAppTableRecord
  2
HATCHBACKGROUNDCOLOR
 70
0
  0
APPID
  5
B4
330
3
100
AcDbSymbolTableRecord
100
AcDbRegAppTableRecord
  2
EZDXF
 70
0
  0
ENDTAB
  0
TABLE
  2
DIMSTYLE
  5
4
330
0
100
AcDbSymbolTable
 70
12
100
AcDbDimStyleTable
  0
DIMSTYLE
105
2B
330
4
100
AcDbSymbolTableRecord
100
AcDbDimStyleTableRecord
  2
Standard
 70
0
 40
1.0
 41
2.5
 42
0.625
 43
3.75
 44
1.25
 45
0.0
 46
0.0
 47
0.0
 48
0.0
 49
2.5
140
2.5
141
2.5
142
0.0
143
0.03937007874
144
1.0
145
0.0
146
1.0
147
0.625
148
0.0
 69
0
 70
0
 71
0
 72
0
 73
0
 74
0
 75
0
 76
0
 77
1
 78
8
 79
3
170
0
171
3
172
1
173
0
174
0
175
0
176
0
177
0
178
0
179
2
271
2
272
2
273
2
274
3
275
0
276
0
277
2
278
44
279
0
280
0
281
0
282
0
283
0
284
8
285
0
286
0
288
0
289
3
290
0
371
-2
372
-2
  0
DIMSTYLE
105
73
330
4
100
AcDbSymbolTableRecord
100
AcDbDimStyleTableRecord
  2
EZDXF
 70
0
 40
1.0
 41
0.175
 42
0.125
 43
3.75
 44
0.375
 45
0.0
 46
0.0
 47
0.0
 48
0.0
 49
2.5
140
0.25
141
2.5
142
0.0
143
0.03937007874
144
100.0
145
0.0
146
0.5
147
0.1
148
0.0
 69
0
 70
0
 71
0
 72
0
 73
0
 74
0
 75
0
 76
0
 77
1
 78
12
 79
3
170
0
171
3
172
1
173
0
174
0
175
0
176
0
177
0
178
0
179
2
271
2
272
2
273
2
274
3
275
0
276
0
277
2
278
46
279
2
280
0
281
0
282
0
283
0
284
8
285
0
286
0
288
1
289
3
290
0
340
4C
342
74
371
-2
372
-2
  0
DIMSTYLE
105
7C
330
4
100
AcDbSymbolTableRecord
100
AcDbDimStyleTableRecord
  2
EZ_M_100_H25_CM
 70
0
 40
1.0
 41
0.25
 42
0.125
 43
3.75
 44
0.375
 45
0.0
 46
0.0
 47
0.0
 48
0.0
 49
2.5
140
0.25
141
2.5
142
0.125
143
0.03937007874
144
100.0
145
0.0
146
0.5
147
0.1
148
0.0
 69
0
 70
0
 71
0
 72
0
 73
0
 74
0
 75
0
 76
0
 77
1
 78
12
 79
3
170
0
171
3
172
1
173
0
174
0
175
0
176
0
177
0
178
0
179
2
271
2
272
2
273
2
274
3
275
0
276
0
277
2
278
46
279
2
280
0
281
0
282
0
283
0
284
8
285
0
286
0
288
1
289
3
290
0
340
4C
371
-2
372
-2
  0
DIMSTYLE
105
7D
330
4
100
AcDbSymbolTableRecord
100
AcDbDimStyleTableRecord
  2
EZ_M_50_H25_CM
 70
0
 40
1.0
 41
0.125
 42
0.0625
 43
3.75
 44
0.1875
 45
0.0
 46
0.0
 47
0.0
 48
0.0
 49
2.5
140
0.125
141
2.5
142
0.0625
143
0.03937007874
144
100.0
145
0.0
146
0.5
147
0.05
148
0.0
 69
0
 70
0
 71
0
 72
0
 73
0
 74
0
 75
0
 76
0
 77
1
 78
12
 79
3
170
0
171
3
172
1
173
0
174
0
175
0
176
0
177
0
178
0
179
2
271
2
272
2
273
2
274
3
275
0
276
0
277
2
278
46
279
2
280
0
281
0
282
0
283
0
284
8
285
0
286
0
288
1
289
3
290
0
340
4C
371
-2
372
-2
  0
DIMSTYLE
105
7E
330
4
100
AcDbSymbolTableRecord
100
AcDbDimStyleTableRecord
  2
EZ_M_25_H25_CM
 70
0
 40
1.0
 41
0.0625
 42
0.03125
 43
3.75
 44
0.09375
 45
0.0
 46
0.0
 47
0.0
 48
0.0
 49
2.5
140
0.0625
141
2.5
142
0.03125
143
0.03937007874
144
100.0
145
0.0
146
0.5
147
0.025
148
0.0
 69
0
 70
0
 71
0
 72
0
 73
0
 74
0
 75
0
 76
0
 77
1
 78
12
 79
3
170
0
171
3
172
1
173
0
174
0
175
0
176
0
177
0
178
0
179
2
271
2
272
2
273
2
274
3
275
0
276
0
277
2
278
46
279
2
280
0
281
0
282
0
283
0
284
8
285
0
286
0
288
1
289
3
290
0
340
4C
371
-2
372
-2
  0
DIMSTYLE
105
7F
330
4
100
AcDbSymbolTableRecord
100
AcDbDimStyleTableRecord
  2
EZ_M_20_H25_CM
 70
0
 40
1.0
 41
0.05
 42
0.025
 43
3.75
 44
0.07500000000000001
 45
0.0
 46
0.0
 47
0.0
 48
0.0
 49
2.5
140
0.05
141
2.5
142
0.025
143
0.03937007874
144
100.0
145
0.0
146
0.5
147
0.020000000000000004
148
0.0
 69
0
 70
0
 71
0
 72
0
 73
0
 74
0
 75
0
 76
0
 77
1
 78
12
 79
3
170
0
171
3
172
1
173
0
174
0
175
0
176
0
177
0
178
0
179
2
271
2
272
2
273
2
274
3
275
0
276
0
277
2
278
46
279
2
280
0
281
0
282
0
283
0
284
8
285
0
286
0
288
1
289
3
290
0
340
4C
371
-2
372
-2
  0
DIMSTYLE
105
80
330
4
100
AcDbSymbolTableRecord
100
AcDbDimStyleTableRecord
  2
EZ_M_10_H25_CM
 70
0
 40
1.0
 41
0.025
 42
0.0125
 43
3.75
 44
0.037500000000000006
 45
0.0
 46
0.0
 47
0.0
 48
0.0
 49
2.5
140
0.025
141
2.5
142
0.0125
143
0.03937007874
144
100.0
145
0.0
146
0.5
147
0.010000000000000002
148
0.0
 69
0
 70
0
 71
0
 72
0
 73
0
 74
0
 75
0
 76
0
 77
1
 78
12
 79
3
170
0
171
3
172
1
173
0
174
0
175
0
176
0
177
0
178
0
179
2
271
2
272
2
273
2
274
3
275
0
276
0
277
2
278
46
279
2
280
0
281
0
282
0
283
0
284
8
285
0
286
0
288
1
289
3
290
0
340
4C
371
-2
372
-2
  0
DIMSTYLE
105
81
330
4
100
AcDbSymbolTableRecord
100
AcDbDimStyleTableRecord
  2
EZ_M_5_H25_CM
 70
0
 40
1.0
 41
0.0125
 42
0.00625
 43
3.75
 44
0.018750000000000003
 45
0.0
 46
0.0
 47
0.0
 48
0.0
 49
2.5
140
0.0125
141
2.5
142
0.00625
143
0.03937007874
144
100.0
145
0.0
146
0.5
147
0.005000000000000001
148
0.0
 69
0
 70
0
 71
0
 72
0
 73
0
 74
0
 75
0
 76
0
 77
1
 78
12
 79
3
170
0
171
3
172
1
173
0
174
0
175
0
176
0
177
0
178
0
179
2
271
2
272
2
273
2
274
3
275
0
276
0
277
2
278
46
279
2
280
0
281
0
282
0
283
0
284
8
285
0
286
0
288
1
289
3
290
0
340
4C
371
-2
372
-2
  0
DIMSTYLE
105
82
330
4
100
AcDbSymbolTableRecord
100
AcDbDimStyleTableRecord
  2
EZ_M_1_H25_CM
 70
0
 40
1.0
 41
0.0025
 42
0.00125
 43
3.75
 44
0.00375
 45
0.0
 46
0.0
 47
0.0
 48
0.0
 49
2.5
140
0.0025
141
2.5
142
0.00125
143
0.03937007874
144
100.0
145
0.0
146
0.5
147
0.001
148
0.0
 69
0
 70
0
 71
0
 72
0
 73
0
 74
0
 75
0
 76
0
 77
1
 78
12
 79
3
170
0
171
3
172
1
173
0
174
0
175
0
176
0
177
0
178
0
179
2
271
2
272
2
273
2
274
3
275
0
276
0
277
2
278
46
279
2
280
0
281
0
282
0
283
0
284
8
285
0
286
0
288
1
289
3
290
0
340
4C
371
-2
372
-2
  0
DIMSTYLE
105
83
330
4
100
AcDbSymbolTableRecord
100
AcDbDimStyleTableRecord
  2
EZ_RADIUS
 70
0
 40
1.0
 41
0.25
 42
0.125
 43
3.75
 44
0.375
 45
0.0
 46
0.0
 47
0.0
 48
0.0
 49
2.5
140
0.25
141
0.0
142
0.0
143
0.03937007874
144
100.0
145
0.0
146
0.5
147
0.1
148
0.0
 69
0
 70
0
 71
0
 72
0
 73
0
 74
0
 75
0
 76
0
 77
1
 78
12
 79
3
170
0
171
3
172
0
173
0
174
0
175
0
176
0
177
0
178
0
179
2
271
2
272
2
273
2
274
3
275
0
276
0
277
2
278
46
279
1
280
0
281
0
282
0
283
0
284
8
285
0
286
0
288
1
289
3
290
0
340
4C
342
84
371
-2
372
-2
  0
DIMSTYLE
105
88
330
4
100
AcDbSymbolTableRecord
100
AcDbDimStyleTableRecord
  2
EZ_RADIUS_INSIDE
 70
0
 40
1.0
 41
0.25
 42
0.125
 43
3.75
 44
0.375
 45
0.0
 46
0.0
 47
0.0
 48
0.0
 49
2.5
140
0.25
141
0.0
142
0.0
143
0.03937007874
144
100.0
145
0.0
146
0.5
147
0.1
148
0.0
 69
0
 70
0
 71
0
 72
0
 73
0
 74
0
 75
0
 76
0
 77
0
 78
12
 79
3
170
0
171
3
172
0
173
0
174
1
175
0
176
0
177
0
178
0
179
2
271
2
272
2
273
2
274
3
275
0
276
0
277
2
278
46
279
0
280
0
281
0
282
0
283
0
284
8
285
0
286
0
288
1
289
0
290
0
340
4C
342
84
371
-2
372
-2
  0
DIMSTYLE
105
89
330
4
100
AcDbSymbolTableRecord
100
AcDbDimStyleTableRecord
  2
EZ_CURVED
 70
0
 40
1.0
 41
0.25
 42
0.125
 43
3.75
 44
0.375
 45
0.0
 46
0.0
 47
0.0
 48
0.0
 49
2.5
140
0.25
141
2.5
142
0.0
143
0.03937007874
144
100.0
145
0.0
146
0.5
147
0.1
148
0.0
 69
0
 70
0
 71
0
 72
0
 73
0
 74
0
 75
0
 76
0
 77
1
 78
12
 79
2
 90
2
170
0
171
3
172
1
173
0
174
0
175
0
176
0
177
0
178
0
179
2
271
2
272
2
273
2
274
3
275
0
276
0
277
2
278
46
279
2
280
0
281
0
282
0
283
0
284
8
285
0
286
0
288
1
289
3
290
0
340
4C
371
-2
372
-2
  0
ENDTAB
  0
TABLE
  2
BLOCK_RECORD
  5
9
330
0
100
AcDbSymbolTable
 70
5
  0
BLOCK_RECORD
  5
17
330
9
100
AcDbSymbolTableRecord
100
AcDbBlockTableRecord
  2
*Model_Space
340
1A
 70
0
280
1
281
0
  0
BLOCK_RECORD
  5
1B
330
9
100
AcDbSymbolTableRecord
100
AcDbBlockTableRecord
  2
*Paper_Space
340
1E
 70
0
280
1
281
0
  0
BLOCK_RECORD
  5
74
330
9
100
AcDbSymbolTableRecord
100
AcDbBlockTableRecord
  2
_ARCHTICK
340
0
 70
0
280
1
281
0
  0
BLOCK_RECORD
  5
78
330
9
100
AcDbSymbolTableRecord
100
AcDbBlockTableRecord
  2
_CLOSEDFILLED
340
0
 70
0
280
1
281
0
  0
BLOCK_RECORD
  5
84
330
9
100
AcDbSymbolTableRecord
100
AcDbBlockTableRecord
  2
_CLOSEDBLANK
340
0
 70
0
280
1
281
0
  0
ENDTAB
  0
ENDSEC
  0
SECTION
  2
BLOCKS
  0
BLOCK
  5
18
330
17
100
AcDbEntity
  8
0
100
AcDbBlockBegin
  2
*Model_Space
 70
0
 10
0.0
 20
0.0
 30
0.0
  3
*Model_Space
  1

  0
ENDBLK
  5
19
330
17
100
AcDbEntity
  8
0
100
AcDbBlockEnd
  0
BLOCK
  5
1C
330
1B
100
AcDbEntity
  8
0
100
AcDbBlockBegin
  2
*Paper_Space
 70
0
 10
0.0
 20
0.0
 30
0.0
  3
*Paper_Space
  1

  0
ENDBLK
  5
1D
330
1B
100
AcDbEntity
  8
0
100
AcDbBlockEnd
  0
BLOCK
  5
75
330
74
100
AcDbEntity
  8
0
100
AcDbBlockBegin
  2
_ARCHTICK
 70
0
 10
0.0
 20
0.0
 30
0.0
  3
_ARCHTICK
  1

  0
LWPOLYLINE
  5
77
330
74
100
AcDbEntity
  8
0
  6
BYBLOCK
 62
0
100
AcDbPolyline
 90
2
 70
0
 43
0.15
 10
-0.5
 20
-0.5
 10
0.5
 20
0.5
  0
ENDBLK
  5
76
330
74
100
AcDbEntity
  8
0
100
AcDbBlockEnd
  0
BLOCK
  5
79
330
78
100
AcDbEntity
  8
0
100
AcDbBlockBegin
  2
_CLOSEDFILLED
 70
0
 10
0.0
 20
0.0
 30
0.0
  3
_CLOSEDFILLED
  1

  0
SOLID
  5
7B
330
78
100
AcDbEntity
  8
0
  6
BYBLOCK
 62
0
100
AcDbTrace
 10
-1.0
 20
0.16439898372402537
 30
0.0
 11
0.0
 21
0.0
 31
0.0
 12
-1.0
 22
-0.16439898372402537
 32
0.0
 13
-1.0
 23
-0.16439898372402537
 33
0.0
  0
ENDBLK
  5
7A
330
78
100
AcDbEntity
  8
0
100
AcDbBlockEnd
  0
BLOCK
  5
85
330
84
100
AcDbEntity
  8
0
100
AcDbBlockBegin
  2
_CLOSEDBLANK
 70
0
 10
0.0
 20
0.0
 30
0.0
  3
_CLOSEDBLANK
  1

  0
LWPOLYLINE
  5
87
330
84
100
AcDbEntity
  8
0
  6
BYBLOCK
 62
0
100
AcDbPolyline
 90
3
 70
1
 10
-1.0
 20
0.16439898372402537
 10
0.0
 20
0.0
 10
-1.0
 20
-0.16439898372402537
  0
ENDBLK
  5
86
330
84
100
AcDbEntity
  8
0
100
AcDbBlockEnd
  0
ENDSEC
  0
SECTION
  2
ENTITIES
  0
LWPOLYLINE
  5
8C
330
17
100
AcDbEntity
  8
Layer
100
AcDbPolyline
 90
175
 70
1
 10
465.9522841706322
 20
198.68554184770744
 10
465.9522841706322
 20
198.68554184770744
 10
464.59792659920754
 20
199.11252751244092
 10
458.7071997928151
 20
200.94442986906782
 10
452.83910425039596
 20
202.73813756143545
 10
446.9851918953502
 20
204.49337603761242
 10
441.14731944670336
 20
206.21053413180056
 10
435.3201859541481
 20
207.88675716768194
 10
429.5000503294177
 20
209.5243621492911
 10
423.6887929569416
 20
211.12232536106944
 10
417.8843854210956
 20
212.67760668863926
 10
412.08072206560735
 20
214.18982994138048
 10
406.2745374371783
 20
215.6607607653838
 10
400.46462836166177
 20
217.0918293330171
 10
394.65383459109387
 20
218.48377115741215
 10
388.8425576832866
 20
219.83364623746618
 10
383.0272232607273
 20
221.14122799796039
 10
377.2074498088457
 20
222.40607020739748
 10
371.378676274483
 20
223.6295981869376
 10
365.54864777666467
 20
224.81419821920443
 10
359.71585069900556
 20
225.9526872521617
 10
353.871156184724
 20
227.04809694944186
 10
348.0189771648046
 20
228.10421248541468
 10
342.16424127039306
 20
229.11944125666366
 10
336.3051721148545
 20
230.09096513002393
 10
330.43926104941863
 20
231.0191292375187
 10
324.5660465286206
 20
231.90503065653726
 10
318.68653299557513
 20
232.74946956619274
 10
312.80130567651395
 20
233.5521968674145
 10
306.90899231935
 20
234.31199073898802
 10
301.00577933397693
 20
235.03007177296118
 10
295.0970908790758
 20
235.70925863971766
 10
289.1855212023924
 20
236.34675954161014
 10
283.2691271188728
 20
236.94201925093284
 10
277.34935873190153
 20
237.49543325297037
 10
271.4268456905121
 20
238.00606942093623
 10
265.5005658709307
 20
238.47571528831827
 10
259.57893344659595
 20
238.9054473151168
 10
253.6594565433305
 20
239.28980145988754
 10
247.74122270192643
 20
239.63272378937882
 10
241.83248810103635
 20
239.93290332050518
 10
235.9301008516221
 20
240.18677773623043
 10
230.03243862155404
 20
240.39589480787708
 10
224.1444027498902
 20
240.5612120403606
 10
218.26711086664866
 20
240.6803353147463
 10
212.40001567890425
 20
240.75345879726152
 10
206.54633717345072
 20
240.78140651320814
 10
200.71048538790845
 20
240.76228280178168
 10
194.89217163003758
 20
240.69257659771648
 10
189.08688411372063
 20
240.5735624631243
 10
183.3048018844502
 20
240.40793644462053
 10
177.5431847065615
 20
240.18839079944422
 10
171.80249199632053
 20
239.9208133494485
 10
166.0912855675657
 20
239.60179397673096
 10
160.40675892786942
 20
239.2300547218423
 10
154.75662513329638
 20
238.80610854429366
 10
149.1396973294014
 20
238.3257007871577
 10
143.55708728107456
 20
237.79007627667076
 10
138.01144709490347
 20
237.19946387514403
 10
132.5101282197763
 20
236.55551089369624
 10
127.05718711608111
 20
235.85403570667958
 10
121.6521362139963
 20
235.09556007906247
 10
116.30341637306734
 20
234.28343283510793
 10
111.02031580942648
 20
233.41896420897785
 10
105.8143375609921
 20
232.5022713484371
 10
100.69138238982956
 20
231.53068858584913
 10
95.6560575664623
 20
230.50623589794935
 10
90.72205774798147
 20
229.43472281817242
 10
85.89630869668161
 20
228.3142783878873
 10
81.18655114664406
 20
227.15085360922606
 10
76.60167483460444
 20
225.9495541492111
 10
72.1539756486128
 20
224.71890252285192
 10
67.85613707893663
 20
223.4618966214855
 10
63.7125551879316
 20
222.18195989592445
 10
59.72872036731624
 20
220.88276174641683
 10
55.90262294067236
 20
219.56605664687095
 10
52.23616756101126
 20
218.23651357286874
 10
48.72178097158857
 20
216.894965133142
 10
45.36781356517497
 20
215.55211274181215
 10
42.16908124401661
 20
214.195901851358
 10
39.12185692412916
 20
212.83366446586442
 10
36.23130249335219
 20
211.4650678741921
 10
33.49661983458532
 20
210.09055389715604
 10
30.92932736700294
 20
208.71599049728425
 10
28.54150077432874
 20
207.3466229768795
 10
26.33528150907719
 20
205.98240947507864
 10
24.327270397980413
 20
204.65218485704946
 10
22.524751969449284
 20
203.3618631230789
 10
20.921068331662752
 20
202.1178875083195
 10
19.49990403199527
 20
200.92392344421626
 10
18.25252384556981
 20
199.79762826632938
 10
17.144032129148144
 20
198.70290354561504
 10
16.1598975115497
 20
197.67258204775905
 10
15.292202371027912
 20
196.69894591450202
 10
14.524307066777993
 20
195.76377928846364
 10
13.844442240614569
 20
194.8657911546555
 10
13.248732697513077
 20
194.01232085067346
 10
12.727867697620155
 20
193.184918664683
 10
12.26983415634544
 20
192.37502616896103
 10
11.870180403998432
 20
191.59625828055096
 10
11.523323782933971
 20
190.8385641637193
 10
11.222580531489399
 20
190.0986014100368
 10
10.9661067667964
 20
189.39023123912563
 10
10.750928164773086
 20
188.69916276968218
 10
10.5746237626727
 20
188.0353452568179
 10
10.444628900214838
 20
187.45284334762098
 10
10.365851032527871
 20
186.80861394183862
 10
10.313642402494935
 20
186.1195708074425
 10
10.296851907730229
 20
185.54560785315837
 10
10.317278518421716
 20
184.92322721843118
 10
10.385865750000988
 20
184.2922450515378
 10
10.51009975526128
 20
183.6505553404467
 10
10.695478231734484
 20
183.00051459661503
 10
10.950032217278448
 20
182.341490271402
 10
11.283451957844221
 20
181.67094411397656
 10
11.702464000642067
 20
180.98914875911206
 10
12.209691092936879
 20
180.30004493787757
 10
12.808740881098402
 20
179.60814546079695
 10
13.507766332642802
 20
178.91660592366395
 10
14.322981857969012
 20
178.22478271573516
 10
15.273561731601689
 20
177.52849225433312
 10
16.365337835057034
 20
176.82662815371987
 10
17.60322852159274
 20
176.12451555474624
 10
19.018797770207982
 20
175.4274195912308
 10
20.640486371811818
 20
174.7324767890605
 10
22.465967390567755
 20
174.03461116757802
 10
24.471082492557713
 20
173.3424881525327
 10
26.65591462497116
 20
172.67623642348272
 10
29.01033365084018
 20
172.03393989781068
 10
31.491068599996368
 20
171.41726500284247
 10
34.08701894161945
 20
170.83596802386845
 10
36.8032204006017
 20
170.28863021791946
 10
39.64689474002216
 20
169.76018778683243
 10
42.59179575948781
 20
169.2365654013146
 10
45.61138706171445
 20
168.72693999360237
 10
48.737011854249744
 20
168.2487234215013
 10
52.00778505975964
 20
167.78808414702854
 10
55.41171767919184
 20
167.32526145263927
 10
58.94739725949887
 20
166.8650197439885
 10
62.62775878805374
 20
166.4140152007089
 10
66.47238981745932
 20
165.97740544484904
 10
70.50580010554359
 20
165.55439063003757
 10
74.74179119416772
 20
165.14001229388157
 10
79.18667169073919
 20
164.7337426845059
 10
83.84264557753593
 20
164.3362745619472
 10
88.70001783104695
 20
163.95104500214532
 10
93.75586000628985
 20
163.58557953398346
 10
98.9957205703376
 20
163.2365371304663
 10
104.41501835031406
 20
162.91737742742828
 10
109.99957351594148
 20
162.62139937019717
 10
115.7238583386365
 20
162.34487961331558
 10
121.5685518686111
 20
162.09293232049282
 10
127.51633890228595
 20
161.86392637278834
 10
129.1784266035708
 20
161.80694393926336
 10
129.12703132411505
 20
160.3078246894204
 10
133.50427090759712
 20
160.15775693824463
 10
139.6183679436853
 20
159.97415980810632
 10
145.80486574493878
 20
159.81193430981966
 10
152.05413770754564
 20
159.663386526878
 10
158.34044723333662
 20
159.5235407410372
 10
164.642039203759
 20
159.39629156835372
 10
170.95999050273974
 20
159.287495527609
 10
177.30916000832443
 20
159.19607756282025
 10
183.6973651721243
 20
159.11513645316603
 10
190.1158445391834
 20
159.03852641190394
 10
196.54949973541255
 20
158.96339401854115
 10
202.9867476756777
 20
158.89063269757668
 10
209.4171794525291
 20
158.82473256975018
 10
215.84841981550753
 20
158.7715380318695
 10
222.29657862377115
 20
158.7303962149752
 10
228.76750733483206
 20
158.6953600348779
 10
235.2538710674661
 20
158.66286275942338
 10
241.75044111283506
 20
158.6325367895672
 10
250.83648310471884
 20
158.59156194945575
 10
465.9522841706322
 20
198.68554184770744
  0
LWPOLYLINE
  5
8D
330
17
100
AcDbEntity
  8
Layer
100
AcDbPolyline
 90
5
 70
0
 10
407.1108819390588
 20
211.33521059476394
 10
403.2269629594084
 20
212.29185753042597
 10
404.1836098950705
 20
216.17577651007636
 10
408.0675288747209
 20
215.21912957441432
 10
407.1108819390588
 20
211.33521059476394
  0
LWPOLYLINE
  5
8E
330
17
100
AcDbEntity
  8
Layer
100
AcDbPolyline
 90
5
 70
0
 10
178.71786075885782
 20
236.2388114603482
 10
174.722200865421
 20
236.05252668914937
 10
174.5359160942222
 20
240.0481865825862
 10
178.531575987659
 20
240.234471353785
 10
178.71786075885782
 20
236.2388114603482
  0
LWPOLYLINE
  5
8F
330
17
100
AcDbEntity
  8
Layer
100
AcDbPolyline
 90
5
 70
0
 10
75.43043479682946
 20
221.47510005342937
 10
71.57532460024622
 20
220.40827046431966
 10
70.5084950111365
 20
224.26338066090287
 10
74.36360520771974
 20
225.33021025001258
 10
75.43043479682946
 20
221.47510005342937
  0
LWPOLYLINE
  5
90
330
17
100
AcDbEntity
  8
Layer
100
AcDbPolyline
 90
5
 70
0
 10
23.83549653768277
 20
198.03576536256327
 10
22.30486100354224
 20
196.7484600912207
 10
19.08659782518585
 20
200.57504892657204
 10
20.61723335932638
 20
201.8623541979146
 10
23.83549653768277
 20
198.03576536256327
  0
LWPOLYLINE
  5
91
330
17
100
AcDbEntity
  8
Layer
100
AcDbPolyline
 90
5
 70
0
 10
17.357776550250676
 20
182.1999930138384
 10
18.973966494617144
 20
181.02188857715683
 10
16.028705402913303
 20
176.98141371624067
 10
14.412515458546837
 20
178.15951815292223
 10
17.357776550250676
 20
182.1999930138384
  0
LWPOLYLINE
  5
92
330
17
100
AcDbEntity
  8
Layer
100
AcDbPolyline
 90
5
 70
0
 10
97.12814402284486
 20
167.36983291717644
 10
101.11930112910404
 20
167.1040041129491
 10
100.8534723248767
 20
163.11284700668995
 10
96.86231521861752
 20
163.3786758109173
 10
97.12814402284486
 20
167.36983291717644
  0
LWPOLYLINE
  5
93
330
17
100
AcDbEntity
  8
Layer
100
AcDbPolyline
 90
300
 70
1
 10
275.73920871559625
 20
200.0
 10
275.7315499278603
 20
200.73507332471468
 10
275.7085769465577
 20
201.46982206174232
 10
275.67029991591005
 20
202.20392176672465
 10
275.6167357379767
 20
202.93704828189775
 10
275.5479080651906
 20
203.66887787923085
 10
275.4638472899146
 20
204.3990874033756
 10
275.36459053102067
 20
205.1273544143624
 10
275.2501816174992
 20
205.85335732998072
 10
275.1206710691058
 20
206.57677556778086
 10
274.9761160740527
 20
207.29728968663406
 10
274.81658046375634
 20
208.01458152778872
 10
274.6421346846511
 20
208.7283343553604
 10
274.45285576708227
 20
209.4382329961934
 10
274.24882729129126
 20
210.14396397903235
 10
274.0301393505095
 20
210.84521567294243
 10
273.79688851117527
 20
211.5416784249166
 10
273.54917777029294
 20
212.23304469660985
 10
273.2871165099523
 20
212.91900920013936
 10
273.01082044902864
 20
213.59926903289102
 10
272.7204115920844
 20
214.2735238112728
 10
272.41601817549554
 20
214.94147580335562
 10
272.09777461082564
 20
215.6028300603434
 10
271.76582142547403
 20
216.25729454681414
 10
271.4203052006225
 20
216.90458026967448
 10
271.0613785065093
 20
217.54440140577114
 10
270.6891998350583
 20
218.17647542810204
 10
270.3039335298935
 20
218.80052323057257
 10
269.9057497137697
 20
219.4162692512408
 10
269.49482421345067
 20
220.02344159399797
 10
269.07133848206934
 20
220.62177214863013
 10
268.6354795190031
 20
221.21099670920805
 10
268.18743978730015
 20
221.7908550907531
 10
267.7274171286931
 20
222.36109124412766
 10
267.2556146762379
 20
222.92145336909925
 10
266.7722407646157
 20
223.47169402552828
 10
266.2775088381384
 20
224.0115702426308
 10
265.77163735649737
 20
224.54084362626747
 10
265.25484969829813
 20
225.05928046421172
 10
264.72737406242237
 20
225.56665182935052
 10
264.1894433672618
 20
226.06273368077208
 10
263.64129514786805
 20
226.54730696269615
 10
263.08317145106383
 20
227.02015770120266
 10
262.5153187285618
 20
227.4810770987168
 10
261.9379877281385
 20
227.92986162620807
 10
261.35143338291124
 20
228.3663131130629
 10
260.7559146987667
 20
228.79023883459126
 10
260.15169463999115
 20
229.20145159712862
 10
259.5390400131531
 20
229.5997698206951
 10
258.9182213492889
 20
229.98501761917626
 10
258.2895127844437
 20
230.35702487798952
 10
257.65319193862086
 20
230.71562732920177
 10
257.0095397931928
 20
231.06066662406565
 10
256.3588405668273
 20
231.39199040294181
 10
255.70138158998483
 20
231.70945236257663
 10
255.03745317804137
 20
232.01291232070565
 10
254.36734850309327
 20
232.3022362779541
 10
253.6913634645007
 20
232.57729647700728
 10
253.00979655822707
 20
232.83797145902454
 10
252.3229487450312
 20
233.08414611727213
 10
251.6311233175719
 20
233.31571174795104
 10
250.9346257664822
 20
233.53256609819766
 10
250.23376364547352
 20
233.73461341123556
 10
249.5288464355284
 20
233.92176446865915
 10
248.82018540824248
 20
234.09393662983007
 10
248.10809348837586
 20
234.25105386836873
 10
247.3928851156741
 20
234.39304680572565
 10
246.67487610602063
 20
234.51985274181695
 10
245.95438351198135
 20
234.63141568271098
 10
245.23172548280314
 20
234.72768636535366
 10
244.507221123928
 20
234.80862227932167
 10
243.78119035608515
 20
234.87418768559385
 10
243.05395377402309
 20
234.92435363233253
 10
242.32583250494392
 20
234.95909796766784
 10
241.59714806670263
 20
234.97840534947943
 10
240.86822222583382
 20
234.98226725217097
 10
240.1393768554687
 20
234.97068197043498
 10
239.41093379320503
 20
234.94365462000573
 10
238.68321469899257
 20
234.9011971354003
 10
237.95654091309723
 20
234.84332826464868
 10
237.2312333142061
 20
234.77007356101512
 10
236.50761217773666
 20
234.68146537171452
 10
235.78599703441196
 20
234.5775428236289
 10
235.06670652916506
 20
234.45835180602992
 10
234.35005828043418
 20
234.3239449503156
 10
233.6363687399115
 20
234.17438160676969
 10
232.9259530528069
 20
234.00972781835435
 10
232.21912491868883
 20
233.83005629154732
 10
231.5161964529633
 20
233.6354463642369
 10
230.8174780490525
 20
233.42598397068852
 10
230.1232782413339
 20
233.20176160359853
 10
229.43390356890004
 20
232.96287827325213
 10
228.74965844019957
 20
232.70943946380316
 10
228.07084499861907
 20
232.44155708669527
 10
227.39776298906492
 20
232.159349431245
 10
226.73070962560456
 20
231.86294111240855
 10
226.06997946022494
 20
231.55246301575525
 10
225.4158642527668
 20
231.22805223967228
 10
224.76865284209163
 20
230.88985203482585
 10
224.12863101853867
 20
230.53801174090563
 10
223.49608139772783
 20
230.17268672068076
 10
222.87128329576467
 20
229.79403829139585
 10
222.25451260590225
 20
229.40223365353785
 10
221.6460416767144
 20
228.99744581700512
 10
221.04613919183424
 20
228.579853524711
 10
220.45507005131122
 20
228.1496411736561
 10
219.87309525463849
 20
227.70699873350367
 10
219.300471785503
 20
227.25212166269435
 10
218.7374524983087
 20
226.78521082213734
 10
218.18428600652322
 20
226.3064723865157
 10
217.64121657289704
 20
225.81611775324563
 10
217.10848400160398
 20
225.3143634491291
 10
216.58632353235052
 20
224.80143103474185
 10
216.07496573650047
 20
224.27754700659844
 10
215.57463641526118
 20
223.74294269713778
 10
215.08555649997606
 20
223.19785417257316
 10
214.6079419545675
 20
222.64252212865216
 10
214.1420036801734
 20
222.0771917843722
 10
213.68794742201902
 20
221.50211277369857
 10
213.24597367856572
 20
220.91753903533325
 10
212.8162776129766
 20
220.32372870058268
 10
212.39904896693776
 20
219.72094397937423
 10
211.9944719768738
 20
219.10945104447174
 10
211.60272529259424
 20
218.48951991394102
 10
211.22398189840678
 20
217.86142433191753
 10
210.85840903673218
 20
217.2254416477287
 10
210.50616813425486
 20
216.58185269342417
 10
210.1674147306414
 20
215.93094165976845
 10
209.84229840985853
 20
215.2729959707501
 10
209.5309627341211
 20
214.60830615666342
 10
209.23354518049905
 20
213.93716572581857
 10
208.95017708021146
 20
213.25987103493645
 10
208.68098356063422
 20
212.57672115828592
 10
208.4260834900475
 20
211.888017755621
 10
208.1855894251467
 20
211.19406493897657
 10
207.95960756134076
 20
210.4951691383809
 10
207.74823768585907
 20
209.79163896654475
 10
207.5515731336883
 20
209.0837850825869
 10
207.36970074635838
 20
208.37192005485554
 10
207.20270083359566
 20
207.65635822290716
 10
207.05064713786035
 20
206.9374155587028
 10
206.913606801784
 20
206.21540952708395
 10
206.79164033852118
 20
205.49065894558885
 10
206.68480160502858
 20
204.7634838436717
 10
206.59313777828328
 20
204.03420532138676
 10
206.51668933445072
 20
203.30314540759943
 10
206.45549003101158
 20
202.57062691778742
 10
206.40956689185543
 20
201.83697331149463
 10
206.37894019534775
 20
201.10250854950039
 10
206.3636234653755
 20
200.36755695076758
 10
206.3636234653755
 20
199.63244304923245
 10
206.37894019534775
 20
198.89749145049961
 10
206.40956689185543
 20
198.16302668850537
 10
206.45549003101158
 20
197.42937308221258
 10
206.51668933445072
 20
196.69685459240057
 10
206.59313777828328
 20
195.96579467861324
 10
206.68480160502858
 20
195.2365161563283
 10
206.79164033852118
 20
194.50934105441118
 10
206.913606801784
 20
193.78459047291608
 10
207.05064713786035
 20
193.06258444129722
 10
207.20270083359566
 20
192.34364177709284
 10
207.36970074635838
 20
191.62807994514444
 10
207.5515731336883
 20
190.9162149174131
 10
207.74823768585907
 20
190.20836103345525
 10
207.95960756134076
 20
189.50483086161913
 10
208.1855894251467
 20
188.80593506102343
 10
208.4260834900475
 20
188.111982244379
 10
208.68098356063422
 20
187.4232788417141
 10
208.95017708021146
 20
186.74012896506355
 10
209.23354518049908
 20
186.0628342741814
 10
209.5309627341211
 20
185.39169384333658
 10
209.84229840985853
 20
184.7270040292499
 10
210.1674147306414
 20
184.06905834023155
 10
210.50616813425486
 20
183.41814730657583
 10
210.85840903673216
 20
182.77455835227133
 10
211.22398189840678
 20
182.13857566808247
 10
211.60272529259424
 20
181.51048008605898
 10
211.9944719768738
 20
180.89054895552826
 10
212.39904896693773
 20
180.27905602062577
 10
212.8162776129766
 20
179.67627129941735
 10
213.24597367856572
 20
179.08246096466678
 10
213.687947422019
 20
178.49788722630143
 10
214.1420036801734
 20
177.9228082156278
 10
214.6079419545675
 20
177.3574778713478
 10
215.08555649997606
 20
176.80214582742684
 10
215.57463641526118
 20
176.25705730286222
 10
216.07496573650047
 20
175.72245299340156
 10
216.58632353235052
 20
175.19856896525815
 10
217.10848400160398
 20
174.6856365508709
 10
217.641216572897
 20
174.18388224675437
 10
218.18428600652322
 20
173.6935276134843
 10
218.7374524983087
 20
173.21478917786268
 10
219.300471785503
 20
172.74787833730565
 10
219.87309525463846
 20
172.29300126649633
 10
220.4550700513112
 20
171.8503588263439
 10
221.04613919183424
 20
171.420146475289
 10
221.64604167671436
 20
171.00255418299488
 10
222.25451260590225
 20
170.59776634646215
 10
222.8712832957647
 20
170.20596170860415
 10
223.49608139772783
 20
169.82731327931924
 10
224.12863101853867
 20
169.46198825909437
 10
224.76865284209165
 20
169.11014796517415
 10
225.41586425276682
 20
168.7719477603277
 10
226.06997946022494
 20
168.44753698424475
 10
226.73070962560456
 20
168.13705888759145
 10
227.39776298906492
 20
167.840650568755
 10
228.07084499861904
 20
167.55844291330473
 10
228.74965844019957
 20
167.29056053619684
 10
229.4339035689
 20
167.03712172674787
 10
230.12327824133388
 20
166.79823839640147
 10
230.8174780490525
 20
166.57401602931148
 10
231.5161964529633
 20
166.3645536357631
 10
232.21912491868883
 20
166.16994370845268
 10
232.9259530528069
 20
165.99027218164565
 10
233.6363687399115
 20
165.82561839323031
 10
234.35005828043418
 20
165.6760550496844
 10
235.06670652916506
 20
165.54164819397008
 10
235.785997034412
 20
165.4224571763711
 10
236.50761217773666
 20
165.31853462828548
 10
237.2312333142061
 20
165.22992643898488
 10
237.9565409130972
 20
165.15667173535132
 10
238.68321469899257
 20
165.0988028645997
 10
239.41093379320503
 20
165.05634537999427
 10
240.1393768554687
 20
165.02931802956502
 10
240.8682222258338
 20
165.01773274782903
 10
241.59714806670263
 20
165.02159465052057
 10
242.32583250494392
 20
165.04090203233216
 10
243.05395377402309
 20
165.07564636766747
 10
243.78119035608515
 20
165.12581231440615
 10
244.507221123928
 20
165.19137772067833
 10
245.23172548280314
 20
165.27231363464634
 10
245.95438351198138
 20
165.36858431728902
 10
246.67487610602063
 20
165.48014725818305
 10
247.3928851156741
 20
165.60695319427435
 10
248.10809348837583
 20
165.74894613163124
 10
248.82018540824248
 20
165.90606337016993
 10
249.52884643552838
 20
166.07823553134082
 10
250.23376364547352
 20
166.26538658876444
 10
250.9346257664822
 20
166.46743390180234
 10
251.6311233175719
 20
166.68428825204893
 10
252.3229487450312
 20
166.91585388272787
 10
253.00979655822707
 20
167.16202854097546
 10
253.6913634645007
 20
167.42270352299272
 10
254.36734850309324
 20
167.6977637220459
 10
255.03745317804137
 20
167.98708767929435
 10
255.70138158998486
 20
168.29054763742337
 10
256.3588405668273
 20
168.60800959705819
 10
257.0095397931928
 20
168.93933337593435
 10
257.6531919386209
 20
169.28437267079823
 10
258.2895127844437
 20
169.64297512201048
 10
258.9182213492889
 20
170.01498238082374
 10
259.5390400131531
 20
170.4002301793049
 10
260.1516946399911
 20
170.79854840287138
 10
260.7559146987667
 20
171.2097611654087
 10
261.35143338291124
 20
171.6336868869371
 10
261.9379877281385
 20
172.07013837379193
 10
262.5153187285618
 20
172.5189229012832
 10
263.08317145106383
 20
172.97984229879734
 10
263.64129514786805
 20
173.45269303730385
 10
264.1894433672618
 20
173.93726631922792
 10
264.72737406242237
 20
174.43334817064948
 10
265.25484969829813
 20
174.94071953578828
 10
265.77163735649737
 20
175.45915637373253
 10
266.2775088381384
 20
175.9884297573692
 10
266.7722407646157
 20
176.5283059744717
 10
267.2556146762379
 20
177.07854663090075
 10
267.7274171286931
 20
177.6389087558723
 10
268.18743978730015
 20
178.2091449092469
 10
268.6354795190031
 20
178.78900329079195
 10
269.07133848206934
 20
179.37822785136984
 10
269.49482421345067
 20
179.976558406002
 10
269.9057497137697
 20
180.5837307487592
 10
270.3039335298935
 20
181.19947676942743
 10
270.6891998350583
 20
181.82352457189796
 10
271.0613785065093
 20
182.45559859422886
 10
271.4203052006225
 20
183.09541973032552
 10
271.7658214254741
 20
183.7427054531859
 10
272.09777461082564
 20
184.3971699396566
 10
272.41601817549554
 20
185.05852419664438
 10
272.7204115920844
 20
185.7264761887272
 10
273.01082044902864
 20
186.40073096710896
 10
273.2871165099523
 20
187.08099079986064
 10
273.54917777029294
 20
187.76695530339012
 10
273.79688851117527
 20
188.45832157508337
 10
274.0301393505095
 20
189.15478432705757
 10
274.24882729129126
 20
189.85603602096765
 10
274.4528557670822
 20
190.5617670038066
 10
274.6421346846511
 20
191.2716656446396
 10
274.81658046375634
 20
191.98541847221128
 10
274.9761160740527
 20
192.70271031336594
 10
275.1206710691058
 20
193.42322443221914
 10
275.2501816174992
 20
194.14664267001928
 10
275.36459053102067
 20
194.87264558563763
 10
275.4638472899146
 20
195.6009125966244
 10
275.5479080651906
 20
196.33112212076912
 10
275.6167357379767
 20
197.06295171810223
 10
275.67029991591005
 20
197.79607823327532
 10
275.7085769465577
 20
198.53017793825768
 10
275.7315499278603
 20
199.26492667528532
 10
275.73920871559625
 20
200.0
  0
LINE
  5
94
330
17
100
AcDbEntity
  8
Layer
 62
7
100
AcDbLine
 10
18.476652027799048
 20
200.00000000000003
 30
0.0
 11
461.74414023145266
 21
199.99999999999997
 31
0.0
  0
LINE
  5
95
330
17
100
AcDbEntity
  8
Layer
 62
7
100
AcDbLine
 10
105.03014966852979
 20
200.00000000000003
 30
0.0
 11
117.03014966852979
 21
200.00000000000003
 31
0.0
  0
LWPOLYLINE
  5
96
330
17
100
AcDbEntity
  8
Layer
100
AcDbPolyline
 90
5
 70
0
 10
111.03014966852979
 20
205.00000000000003
 10
116.03014966852979
 20
200.00000000000003
 10
111.03014966852979
 20
195.00000000000003
 10
106.03014966852979
 20
200.00000000000003
 10
111.03014966852979
 20
205.00000000000003
  0
LINE
  5
97
330
17
100
AcDbEntity
  8
Layer
 62
7
100
AcDbLine
 10
234.11039612962585
 20
200.0
 30
0.0
 11
246.11039612962585
 21
200.0
 31
0.0
  0
LWPOLYLINE
  5
98
330
17
100
AcDbEntity
  8
Layer
100
AcDbPolyline
 90
5
 70
0
 10
240.11039612962585
 20
205.0
 10
245.11039612962585
 20
200.0
 10
240.11039612962585
 20
195.0
 10
235.11039612962585
 20
200.0
 10
240.11039612962585
 20
205.0
  0
LINE
  5
99
330
17
100
AcDbEntity
  8
Layer
 62
7
100
AcDbLine
 10
363.19064259072195
 20
199.99999999999997
 30
0.0
 11
375.19064259072195
 21
199.99999999999997
 31
0.0
  0
LWPOLYLINE
  5
9A
330
17
100
AcDbEntity
  8
Layer
100
AcDbPolyline
 90
5
 70
0
 10
369.19064259072195
 20
204.99999999999997
 10
374.19064259072195
 20
199.99999999999997
 10
369.19064259072195
 20
194.99999999999997
 10
364.19064259072195
 20
199.99999999999997
 10
369.19064259072195
 20
204.99999999999997
  0
LINE
  5
9B
330
17
100
AcDbEntity
  8
Layer
 62
7
100
AcDbLine
 10
10.355393052797865
 20
186.6705908003035
 30
0.0
 11
308.86195659610576
 21
169.40653767984085
 31
0.0
  0
LINE
  5
9C
330
17
100
AcDbEntity
  8
Layer
 62
7
100
AcDbLine
 10
67.9602090768195
 20
183.33903054236998
 30
0.0
 11
79.94019013190493
 21
182.64617130717556
 31
0.0
  0
LWPOLYLINE
  5
9D
330
17
100
AcDbEntity
  8
Layer
100
AcDbPolyline
 90
5
 70
0
 10
74.23889095235988
 20
187.98425969772504
 10
78.94185837731447
 20
182.7039095767751
 10
73.66150825636454
 20
178.0009421518205
 10
68.95854083140995
 20
183.28129227277046
 10
74.23889095235988
 20
187.98425969772504
  0
LINE
  5
9E
330
17
100
AcDbEntity
  8
Layer
 62
7
100
AcDbLine
 10
139.3422717602275
 20
179.21066663845284
 30
0.0
 11
151.32225281531294
 21
178.51780740325842
 31
0.0
  0
LWPOLYLINE
  5
9F
330
17
100
AcDbEntity
  8
Layer
100
AcDbPolyline
 90
5
 70
0
 10
145.6209536357679
 20
183.8558957938079
 10
150.32392106072248
 20
178.57554567285794
 10
145.04357093977254
 20
173.87257824790336
 10
140.34060351481796
 20
179.1529283688533
 10
145.6209536357679
 20
183.8558957938079
  0
LINE
  5
A0
330
17
100
AcDbEntity
  8
Layer
100
AcDbLine
 10
241.0504587155963
 20
234.98274999999995
 30
0.0
 11
241.0504587155963
 21
235.98274999999995
 31
0.0
  0
LINE
  5
A1
330
17
100
AcDbEntity
  8
Layer
100
AcDbLine
 10
241.0504587155963
 20
165.01725000000005
 30
0.0
 11
241.0504587155963
 21
164.01725000000005
 31
0.0
  0
LINE
  5
A2
330
17
100
AcDbEntity
  8
Layer
100
AcDbLine
 10
275.73920871559625
 20
200.0
 30
0.0
 11
276.73920871559625
 21
200.0
 31
0.0
  0
LINE
  5
A3
330
17
100
AcDbEntity
  8
Layer
100
AcDbLine
 10
206.36170871559636
 20
200.0
 30
0.0
 11
205.36170871559636
 21
200.0
 31
0.0
  0
LINE
  5
A4
330
17
100
AcDbEntity
  8
Layer
 62
7
100
AcDbLine
 10
161.0504587155963
 20
159.46881699492687
 30
0.0
 11
161.0504587155963
 21
239.27214942816147
 31
0.0
  0
LINE
  5
A5
330
17
100
AcDbEntity
  8
Layer
 62
7
100
AcDbLine
 10
161.0504587155963
 20
183.349983346559
 30
0.0
 11
161.0504587155963
 21
195.349983346559
 31
0.0
  0
LWPOLYLINE
  5
A6
330
17
100
AcDbEntity
  8
Layer
100
AcDbPolyline
 90
5
 70
0
 10
156.0504587155963
 20
189.349983346559
 10
161.0504587155963
 20
194.349983346559
 10
166.0504587155963
 20
189.349983346559
 10
161.0504587155963
 20
184.349983346559
 10
156.0504587155963
 20
189.349983346559
  0
LINE
  5
A7
330
17
100
AcDbEntity
  8
Layer
 62
7
100
AcDbLine
 10
161.0504587155963
 20
203.39098307652938
 30
0.0
 11
161.0504587155963
 21
215.39098307652938
 31
0.0
  0
LWPOLYLINE
  5
A8
330
17
100
AcDbEntity
  8
Layer
100
AcDbPolyline
 90
5
 70
0
 10
156.0504587155963
 20
209.39098307652938
 10
161.0504587155963
 20
214.39098307652938
 10
166.0504587155963
 20
209.39098307652938
 10
161.0504587155963
 20
204.39098307652938
 10
156.0504587155963
 20
209.39098307652938
  0
LINE
  5
A9
330
17
100
AcDbEntity
  8
Layer
 62
7
100
AcDbLine
 10
371.0504587155963
 20
180.99743217260405
 30
0.0
 11
371.0504587155963
 21
223.69628851803859
 31
0.0
  0
LINE
  5
AA
330
17
100
AcDbEntity
  8
Layer
 62
7
100
AcDbLine
 10
371.0504587155963
 20
191.89203189350613
 30
0.0
 11
371.0504587155963
 21
203.89203189350613
 31
0.0
  0
LWPOLYLINE
  5
AB
330
17
100
AcDbEntity
  8
Layer
100
AcDbPolyline
 90
5
 70
0
 10
366.0504587155963
 20
197.89203189350613
 10
371.0504587155963
 20
202.89203189350613
 10
376.0504587155963
 20
197.89203189350613
 10
371.0504587155963
 20
192.89203189350613
 10
366.0504587155963
 20
197.89203189350613
  0
LINE
  5
AC
330
17
100
AcDbEntity
  8
Layer
 62
7
100
AcDbLine
 10
371.0504587155963
 20
200.8016887971365
 30
0.0
 11
371.0504587155963
 21
212.8016887971365
 31
0.0
  0
LWPOLYLINE
  5
AD
330
17
100
AcDbEntity
  8
Layer
100
AcDbPolyline
 90
5
 70
0
 10
366.0504587155963
 20
206.8016887971365
 10
371.0504587155963
 20
211.8016887971365
 10
376.0504587155963
 20
206.8016887971365
 10
371.0504587155963
 20
201.8016887971365
 10
366.0504587155963
 20
206.8016887971365
  0
LWPOLYLINE
  5
AE
330
17
100
AcDbEntity
  8
NumLabel
 62
1
100
AcDbPolyline
 90
2
 70
0
 10
185.24770642201835
 20
179.598623853211
 10
183.24770642201835
 20
179.598623853211
  0
LWPOLYLINE
  5
AF
330
17
100
AcDbEntity
  8
NumLabel
 62
1
100
AcDbPolyline
 90
4
 70
0
 10
182.24770642201835
 20
179.598623853211
 10
180.24770642201835
 20
179.598623853211
 10
180.24770642201835
 20
169.598623853211
 10
182.24770642201835
 20
169.598623853211
  0
LWPOLYLINE
  5
B0
330
17
100
AcDbEntity
  8
NumLabel
 62
1
100
AcDbPolyline
 90
4
 70
0
 10
183.24770642201835
 20
169.598623853211
 10
185.24770642201835
 20
169.598623853211
 10
185.24770642201835
 20
174.598623853211
 10
183.24770642201835
 20
174.598623853211
  0
LWPOLYLINE
  5
B1
330
17
100
AcDbEntity
  8
NumLabel
 62
1
100
AcDbPolyline
 90
2
 70
0
 10
182.24770642201835
 20
174.598623853211
 10
180.24770642201835
 20
174.598623853211
  0
LWPOLYLINE
  5
B2
330
17
100
AcDbEntity
  8
NumLabel
 62
1
100
AcDbPolyline
 90
6
 70
0
 10
187.74770642201835
 20
179.598623853211
 10
192.74770642201835
 20
179.598623853211
 10
192.74770642201835
 20
174.598623853211
 10
187.74770642201835
 20
174.598623853211
 10
187.74770642201835
 20
169.598623853211
 10
192.74770642201835
 20
169.598623853211
  0
ENDSEC
  0
SECTION
  2
OBJECTS
  0
DICTIONARY
  5
A
330
0
100
AcDbDictionary
280
0
281
1
  3
ACAD_COLOR
350
B
  3
ACAD_GROUP
350
C
  3
ACAD_LAYOUT
350
D
  3
ACAD_MATERIAL
350
E
  3
ACAD_MLEADERSTYLE
350
F
  3
ACAD_MLINESTYLE
350
10
  3
ACAD_PLOTSETTINGS
350
11
  3
ACAD_PLOTSTYLENAME
350
12
  3
ACAD_SCALELIST
350
14
  3
ACAD_TABLESTYLE
350
15
  3
ACAD_VISUALSTYLE
350
16
  3
EZDXF_META
350
2D
  0
DICTIONARY
  5
B
330
A
100
AcDbDictionary
280
0
281
1
  0
DICTIONARY
  5
C
330
A
100
AcDbDictionary
280
0
281
1
  0
DICTIONARY
  5
D
330
A
100
AcDbDictionary
280
0
281
1
  3
Model
350
1A
  3
Layout1
350
1E
  0
DICTIONARY
  5
E
330
A
100
AcDbDictionary
280
0
281
1
  3
ByBlock
350
1F
  3
ByLayer
350
20
  3
Global
350
21
  0
DICTIONARY
  5
F
330
A
100
AcDbDictionary
280
0
281
1
  3
Standard
350
2C
  0
DICTIONARY
  5
10
330
A
100
AcDbDictionary
280
0
281
1
  3
Standard
350
22
  0
DICTIONARY
  5
11
330
A
100
AcDbDictionary
280
0
281
1
  0
ACDBDICTIONARYWDFLT
  5
12
330
A
100
AcDbDictionary
280
0
281
1
  3
Normal
350
13
100
AcDbDictionaryWithDefault
340
13
  0
ACDBPLACEHOLDER
  5
13
330
12
  0
DICTIONARY
  5
14
330
A
100
AcDbDictionary
280
0
281
1
  0
DICTIONARY
  5
15
330
A
100
AcDbDictionary
280
0
281
1
  0
DICTIONARY
  5
16
330
A
100
AcDbDictionary
280
0
281
1
  3
2dWireframe
350
5A
  3
Basic
350
5B
  3
Brighten
350
5C
  3
ColorChange
350
5D
  3
Conceptual
350
5E
  3
Dim
350
5F
  3
EdgeColorOff
350
60
  3
Facepattern
350
61
  3
Flat
350
62
  3
FlatWithEdges
350
63
  3
Gouraud
350
64
  3
GouraudWithEdges
350
65
  3
Hidden
350
66
  3
JitterOff
350
67
  3
Linepattern
350
68
  3
Modeling
350
69
  3
OverhangOff
350
6A
  3
Realistic
350
6B
  3
Shaded
350
6C
  3
Shaded with edges
350
6D
  3
Shades of Gray
350
6E
  3
Sketchy
350
6F
  3
Thicken
350
70
  3
Wireframe
350
71
  3
X-Ray
350
72
  0
LAYOUT
  5
1A
330
D
100
AcDbPlotSettings
  1

  2
Adobe PDF
  4
A3
  6

 40
7.5
 41
20.0
 42
7.5
 43
20.0
 44
420.0
 45
297.0
 46
0.0
 47
0.0
 48
0.0
 49
0.0
140
0.0
141
0.0
142
1.0
143
1.0
 70
1024
 72
1
 73
0
 74
5
  7

 75
16
 76
0
 77
2
 78
300
147
1.0
148
0.0
149
0.0
100
AcDbLayout
  1
Model
 70
1
 71
0
 10
0.0
 20
0.0
 11
420.0
 21
297.0
 12
0.0
 22
0.0
 32
0.0
 14
1e+20
 24
1e+20
 34
1e+20
 15
-1e+20
 25
-1e+20
 35
-1e+20
146
0.0
 13
0.0
 23
0.0
 33
0.0
 16
1.0
 26
0.0
 36
0.0
 17
0.0
 27
1.0
 37
0.0
 76
1
330
17
  0
LAYOUT
  5
1E
330
D
100
AcDbPlotSettings
  1

  2
Adobe PDF
  4
A3
  6

 40
7.5
 41
20.0
 42
7.5
 43
20.0
 44
420.0
 45
297.0
 46
0.0
 47
0.0
 48
0.0
 49
0.0
140
0.0
141
0.0
142
1.0
143
1.0
 70
0
 72
1
 73
0
 74
5
  7

 75
16
 76
0
 77
2
 78
300
147
1.0
148
0.0
149
0.0
100
AcDbLayout
  1
Layout1
 70
1
 71
1
 10
0.0
 20
0.0
 11
420.0
 21
297.0
 12
0.0
 22
0.0
 32
0.0
 14
1e+20
 24
1e+20
 34
1e+20
 15
-1e+20
 25
-1e+20
 35
-1e+20
146
0.0
 13
0.0
 23
0.0
 33
0.0
 16
1.0
 26
0.0
 36
0.0
 17
0.0
 27
1.0
 37
0.0
 76
1
330
1B
  0
MATERIAL
  5
1F
102
{ACAD_REACTORS
330
E
102
}
330
E
100
AcDbMaterial
  1
ByBlock
  2

 70
0
 40
1.0
 71
1
 41
1.0
 91
-1023410177
 42
1.0
 72
1
  3

 73
1
 74
1
 75
1
 44
0.5
 73
0
 45
1.0
 46
1.0
 77
1
  4

 78
1
 79
1
170
1
 48
1.0
171
1
  6

172
1
173
1
174
1
140
1.0
141
1.0
175
1
  7

176
1
177
1
178
1
143
1.0
179
1
  8

270
1
271
1
272
1
145
1.0
146
1.0
273
1
  9

274
1
275
1
276
1
 42
1.0
 72
1
  3

 73
1
 74
1
 75
1
 94
63
  0
MATERIAL
  5
20
102
{ACAD_REACTORS
330
E
102
}
330
E
100
AcDbMaterial
  1
ByLayer
  2

 70
0
 40
1.0
 71
1
 41
1.0
 91
-1023410177
 42
1.0
 72
1
  3

 73
1
 74
1
 75
1
 44
0.5
 73
0
 45
1.0
 46
1.0
 77
1
  4

 78
1
 79
1
170
1
 48
1.0
171
1
  6

172
1
173
1
174
1
140
1.0
141
1.0
175
1
  7

176
1
177
1
178
1
143
1.0
179
1
  8

270
1
271
1
272
1
145
1.0
146
1.0
273
1
  9

274
1
275
1
276
1
 42
1.0
 72
1
  3

 73
1
 74
1
 75
1
 94
63
  0
MATERIAL
  5
21
102
{ACAD_REACTORS
330
E
102
}
330
E
100
AcDbMaterial
  1
Global
  2

 70
0
 40
1.0
 71
1
 41
1.0
 91
-1023410177
 42
1.0
 72
1
  3

 73
1
 74
1
 75
1
 44
0.5
 73
0
 45
1.0
 46
1.0
 77
1
  4

 78
1
 79
1
170
1
 48
1.0
171
1
  6

172
1
173
1
174
1
140
1.0
141
1.0
175
1
  7

176
1
177
1
178
1
143
1.0
179
1
  8

270
1
271
1
272
1
145
1.0
146
1.0
273
1
  9

274
1
275
1
276
1
 42
1.0
 72
1
  3

 73
1
 74
1
 75
1
 94
63
  0
MLINESTYLE
  5
22
102
{ACAD_REACTORS
330
10
102
}
330
10
100
AcDbMlineStyle
  2
Standard
 70
0
  3

 62
256
 51
90.0
 52
90.0
 71
2
 49
0.5
 62
256
  6
BYLAYER
 49
-0.5
 62
256
  6
BYLAYER
  0
MLEADERSTYLE
  5
2C
102
{ACAD_REACTORS
330
F
102
}
330
F
100
AcDbMLeaderStyle
179
2
170
2
171
1
172
0
 90
2
 40
0.0
 41
0.0
173
1
 91
-1056964608
 92
-2
290
1
 42
2.0
291
1
 43
8.0
  3
Standard
 44
4.0
300

342
29
174
1
175
1
176
0
178
1
 93
-1056964608
 45
4.0
292
0
297
0
 46
4.0
 94
-1056964608
 47
1.0
 49
1.0
140
1.0
294
1
141
0.0
177
0
142
1.0
295
0
296
0
143
3.75
271
0
272
9
273
9
  0
DICTIONARY
  5
2D
330
A
100
AcDbDictionary
281
1
  3
CREATED_BY_EZDXF
350
2E
  3
WRITTEN_BY_EZDXF
350
B5
  0
DICTIONARYVAR
  5
2E
330
2D
100
DictionaryVariables
280
0
  1
1.3.0 @ 2026-01-06T17:07:22.722268+00:00
  0
VISUALSTYLE
  5
5A
102
{ACAD_REACTORS
330
16
102
}
330
16
100
AcDbVisualStyle
  2
2dWireframe
 70
4
 90
0
 40
0.6
 62
7
290
0
291
0
  0
VISUALSTYLE
  5
5B
102
{ACAD_REACTORS
330
16
102
}
330
16
100
AcDbVisualStyle
  2
Basic
 70
7
 90
1
 40
0.6
 62
7
290
0
291
1
  0
VISUALSTYLE
  5
5C
102
{ACAD_REACTORS
330
16
102
}
330
16
100
AcDbVisualStyle
  2
Brighten
 70
12
 90
2
 40
0.6
 62
7
290
0
291
1
  0
VISUALSTYLE
  5
5D
102
{ACAD_REACTORS
330
16
102
}
330
16
100
AcDbVisualStyle
  2
ColorChange
 70
16
 90
2
 40
0.6
 62
8
290
0
291
1
  0
VISUALSTYLE
  5
5E
102
{ACAD_REACTORS
330
16
102
}
330
16
100
AcDbVisualStyle
  2
Conceptual
 70
9
 90
3
 40
0.6
 62
7
290
0
291
0
  0
VISUALSTYLE
  5
5F
102
{ACAD_REACTORS
330
16
102
}
330
16
100
AcDbVisualStyle
  2
Dim
 70
11
 90
2
 40
0.6
 62
7
290
0
291
1
  0
VISUALSTYLE
  5
60
102
{ACAD_REACTORS
330
16
102
}
330
16
100
AcDbVisualStyle
  2
EdgeColorOff
 70
22
 90
2
 40
0.6
 62
7
290
0
291
1
  0
VISUALSTYLE
  5
61
102
{ACAD_REACTORS
330
16
102
}
330
16
100
AcDbVisualStyle
  2
Facepattern
 70
15
 90
2
 40
0.6
 62
7
290
0
291
1
  0
VISUALSTYLE
  5
62
102
{ACAD_REACTORS
330
16
102
}
330
16
100
AcDbVisualStyle
  2
Flat
 70
0
 90
2
 40
0.6
 62
7
290
0
291
1
  0
VISUALSTYLE
  5
63
102
{ACAD_REACTORS
330
16
102
}
330
16
100
AcDbVisualStyle
  2
FlatWithEdges
 70
1
 90
2
 40
0.6
 62
7
290
0
291
1
  0
VISUALSTYLE
  5
64
102
{ACAD_REACTORS
330
16
102
}
330
16
100
AcDbVisualStyle
  2
Gouraud
 70
2
 90
2
 40
0.6
 62
7
290
0
291
1
  0
VISUALSTYLE
  5
65
102
{ACAD_REACTORS
330
16
102
}
330
16
100
AcDbVisualStyle
  2
GouraudWithEdges
 70
3
 90
2
 40
0.6
 62
7
290
0
291
1
  0
VISUALSTYLE
  5
66
102
{ACAD_REACTORS
330
16
102
}
330
16
100
AcDbVisualStyle
  2
Hidden
 70
6
 90
1
 40
0.6
 62
7
290
0
291
0
  0
VISUALSTYLE
  5
67
102
{ACAD_REACTORS
330
16
102
}
330
16
100
AcDbVisualStyle
  2
JitterOff
 70
20
 90
2
 40
0.6
 62
7
290
0
291
1
  0
VISUALSTYLE
  5
68
102
{ACAD_REACTORS
330
16
102
}
330
16
100
AcDbVisualStyle
  2
Linepattern
 70
14
 90
2
 40
0.6
 62
7
290
0
291
1
  0
VISUALSTYLE
  5
69
102
{ACAD_REACTORS
330
16
102
}
330
16
100
AcDbVisualStyle
  2
Modeling
 70
10
 90
2
 40
0.6
 62
7
290
0
291
0
  0
VISUALSTYLE
  5
6A
102
{ACAD_REACTORS
330
16
102
}
330
16
100
AcDbVisualStyle
  2
OverhangOff
 70
21
 90
2
 40
0.6
 62
7
290
0
291
1
  0
VISUALSTYLE
  5
6B
102
{ACAD_REACTORS
330
16
102
}
330
16
100
AcDbVisualStyle
  2
Realistic
 70
8
 90
2
 40
0.6
 62
7
290
0
291
0
  0
VISUALSTYLE
  5
6C
102
{ACAD_REACTORS
330
16
102
}
330
16
100
AcDbVisualStyle
  2
Shaded
 70
27
 90
2
 40
0.6
 62
7
290
0
291
0
  0
VISUALSTYLE
  5
6D
102
{ACAD_REACTORS
330
16
102
}
330
16
100
AcDbVisualStyle
  2
Shaded with edges
 70
26
 90
2
 40
0.6
 62
7
290
0
291
0
  0
VISUALSTYLE
  5
6E
102
{ACAD_REACTORS
330
16
102
}
330
16
100
AcDbVisualStyle
  2
Shades of Gray
 70
23
 90
2
 40
0.6
 62
7
290
0
291
0
  0
VISUALSTYLE
  5
6F
102
{ACAD_REACTORS
330
16
102
}
330
16
100
AcDbVisualStyle
  2
Sketchy
 70
24
 90
1
 40
0.6
 62
7
290
0
291
0
  0
VISUALSTYLE
  5
70
102
{ACAD_REACTORS
330
16
102
}
330
16
100
AcDbVisualStyle
  2
Thicken
 70
13
 90
2
 40
0.6
 62
7
290
0
291
1
  0
VISUALSTYLE
  5
71
102
{ACAD_REACTORS
330
16
102
}
330
16
100
AcDbVisualStyle
  2
Wireframe
 70
5
 90
0
 40
0.6
 62
7
290
0
291
0
  0
VISUALSTYLE
  5
72
102
{ACAD_REACTORS
330
16
102
}
330
16
100
AcDbVisualStyle
  2
X-Ray
 70
25
 90
2
 40
0.5
 62
7
290
0
291
0
  0
DICTIONARYVAR
  5
B5
330
2D
100
DictionaryVariables
280
0
  1
1.3.0 @ 2026-01-06T17:07:22.923845+00:00
  0
ENDSEC
  0
EOF
