  0
SECTION
  2
HEADER
  9
$ACADVER
  1
AC1021
  9
$ACADMAINTVER
 70
25
  9
$DWGCODEPAGE
  3
ANSI_1252
  9
$LASTSAVEDBY
  1
ezdxf
  9
$INSBASE
 10
0.0
 20
0.0
 30
0.0
  9
$EXTMIN
 10
1e+20
 20
1e+20
 30
1e+20
  9
$EXTMAX
 10
-1e+20
 20
-1e+20
 30
-1e+20
  9
$LIMMIN
 10
0.0
 20
0.0
  9
$LIMMAX
 10
420.0
 20
297.0
  9
$ORTHOMODE
 70
0
  9
$REGENMODE
 70
1
  9
$FILLMODE
 70
1
  9
$QTEXTMODE
 70
0
  9
$MIRRTEXT
 70
1
  9
$LTSCALE
 40
1.0
  9
$ATTMODE
 70
1
  9
$TEXTSIZE
 40
2.5
  9
$TRACEWID
 40
1.0
  9
$TEXTSTYLE
  7
OpenSans
  9
$CLAYER
  8
0
  9
$CELTYPE
  6
ByLayer
  9
$CECOLOR
 62
256
  9
$CELTSCALE
 40
1.0
  9
$DISPSILH
 70
0
  9
$DIMSCALE
 40
1.0
  9
$DIMASZ
 40
0.175
  9
$DIMEXO
 40
0.125
  9
$DIMDLI
 40
3.75
  9
$DIMRND
 40
0.0
  9
$DIMDLE
 40
0.0
  9
$DIMEXE
 40
0.375
  9
$DIMTP
 40
0.0
  9
$DIMTM
 40
0.0
  9
$DIMTXT
 40
0.25
  9
$DIMCEN
 40
2.5
  9
$DIMTSZ
 40
0.0
  9
$DIMTOL
 70
0
  9
$DIMLIM
 70
0
  9
$DIMTIH
 70
0
  9
$DIMTOH
 70
0
  9
$DIMSE1
 70
0
  9
$DIMSE2
 70
0
  9
$DIMTAD
 70
1
  9
$DIMZIN
 70
12
  9
$DIMBLK
  1
ARCHTICK
  9
$DIMASO
 70
1
  9
$DIMSHO
 70
1
  9
$DIMPOST
  1

  9
$DIMAPOST
  1

  9
$DIMALT
 70
0
  9
$DIMALTD
 70
3
  9
$DIMALTF
 40
0.03937007874
  9
$DIMLFAC
 40
100.0
  9
$DIMTOFL
 70
1
  9
$DIMTVP
 40
0.0
  9
$DIMTIX
 70
0
  9
$DIMSOXD
 70
0
  9
$DIMSAH
 70
0
  9
$DIMBLK1
  1

  9
$DIMBLK2
  1

  9
$DIMSTYLE
  2
EZDXF
  9
$DIMCLRD
 70
0
  9
$DIMCLRE
 70
0
  9
$DIMCLRT
 70
0
  9
$DIMTFAC
 40
0.5
  9
$DIMGAP
 40
0.1
  9
$DIMJUST
 70
0
  9
$DIMSD1
 70
0
  9
$DIMSD2
 70
0
  9
$DIMTOLJ
 70
0
  9
$DIMTZIN
 70
8
  9
$DIMALTZ
 70
0
  9
$DIMALTTZ
 70
0
  9
$DIMUPT
 70
1
  9
$DIMDEC
 70
2
  9
$DIMTDEC
 70
2
  9
$DIMALTU
 70
2
  9
$DIMALTTD
 70
3
  9
$DIMTXSTY
  7
OpenSansCondensed-Light
  9
$DIMAUNIT
 70
0
  9
$DIMADEC
 70
2
  9
$DIMALTRND
 40
0.0
  9
$DIMAZIN
 70
3
  9
$DIMDSEP
 70
46
  9
$DIMATFIT
 70
3
  9
$DIMFRAC
 70
0
  9
$DIMLDRBLK
  1

  9
$DIMLUNIT
 70
2
  9
$DIMLWD
 70
-2
  9
$DIMLWE
 70
-2
  9
$DIMTMOVE
 70
2
  9
$DIMFXL
 40
1.0
  9
$DIMFXLON
 70
0
  9
$DIMJOGANG
 40
0.785398163397
  9
$DIMTFILL
 70
0
  9
$DIMTFILLCLR
 70
0
  9
$DIMARCSYM
 70
0
  9
$DIMLTYPE
  6

  9
$DIMLTEX1
  6

  9
$DIMLTEX2
  6

  9
$LUNITS
 70
2
  9
$LUPREC
 70
4
  9
$SKETCHINC
 40
1.0
  9
$FILLETRAD
 40
10.0
  9
$AUNITS
 70
0
  9
$AUPREC
 70
2
  9
$MENU
  1
.
  9
$ELEVATION
 40
0.0
  9
$PELEVATION
 40
0.0
  9
$THICKNESS
 40
0.0
  9
$LIMCHECK
 70
0
  9
$CHAMFERA
 40
0.0
  9
$CHAMFERB
 40
0.0
  9
$CHAMFERC
 40
0.0
  9
$CHAMFERD
 40
0.0
  9
$SKPOLY
 70
0
  9
$TDCREATE
 40
2461048.088391204
  9
$TDUCREATE
 40
2458532.153996898
  9
$TDUPDATE
 40
2461048.088391204
  9
$TDUUPDATE
 40
2458532.1544311
  9
$TDINDWG
 40
0.0
  9
$TDUSRTIMER
 40
0.0
  9
$USRTIMER
 70
1
  9
$ANGBASE
 50
0.0
  9
$ANGDIR
 70
0
  9
$PDMODE
 70
0
  9
$PDSIZE
 40
0.0
  9
$PLINEWID
 40
0.0
  9
$SPLFRAME
 70
0
  9
$SPLINETYPE
 70
6
  9
$SPLINESEGS
 70
8
  9
$HANDSEED
  5
BB
  9
$SURFTAB1
 70
6
  9
$SURFTAB2
 70
6
  9
$SURFTYPE
 70
6
  9
$SURFU
 70
6
  9
$SURFV
 70
6
  9
$UCSBASE
  2

  9
$UCSNAME
  2

  9
$UCSORG
 10
0.0
 20
0.0
 30
0.0
  9
$UCSXDIR
 10
1.0
 20
0.0
 30
0.0
  9
$UCSYDIR
 10
0.0
 20
1.0
 30
0.0
  9
$UCSORTHOREF
  2

  9
$UCSORTHOVIEW
 70
0
  9
$UCSORGTOP
 10
0.0
 20
0.0
 30
0.0
  9
$UCSORGBOTTOM
 10
0.0
 20
0.0
 30
0.0
  9
$UCSORGLEFT
 10
0.0
 20
0.0
 30
0.0
  9
$UCSORGRIGHT
 10
0.0
 20
0.0
 30
0.0
  9
$UCSORGFRONT
 10
0.0
 20
0.0
 30
0.0
  9
$UCSORGBACK
 10
0.0
 20
0.0
 30
0.0
  9
$PUCSBASE
  2

  9
$PUCSNAME
  2

  9
$PUCSORG
 10
0.0
 20
0.0
 30
0.0
  9
$PUCSXDIR
 10
1.0
 20
0.0
 30
0.0
  9
$PUCSYDIR
 10
0.0
 20
1.0
 30
0.0
  9
$PUCSORTHOREF
  2

  9
$PUCSORTHOVIEW
 70
0
  9
$PUCSORGTOP
 10
0.0
 20
0.0
 30
0.0
  9
$PUCSORGBOTTOM
 10
0.0
 20
0.0
 30
0.0
  9
$PUCSORGLEFT
 10
0.0
 20
0.0
 30
0.0
  9
$PUCSORGRIGHT
 10
0.0
 20
0.0
 30
0.0
  9
$PUCSORGFRONT
 10
0.0
 20
0.0
 30
0.0
  9
$PUCSORGBACK
 10
0.0
 20
0.0
 30
0.0
  9
$USERI1
 70
0
  9
$USERI2
 70
0
  9
$USERI3
 70
0
  9
$USERI4
 70
0
  9
$USERI5
 70
0
  9
$USERR1
 40
0.0
  9
$USERR2
 40
0.0
  9
$USERR3
 40
0.0
  9
$USERR4
 40
0.0
  9
$USERR5
 40
0.0
  9
$WORLDVIEW
 70
1
  9
$SHADEDGE
 70
3
  9
$SHADEDIF
 70
70
  9
$TILEMODE
 70
1
  9
$MAXACTVP
 70
64
  9
$PINSBASE
 10
0.0
 20
0.0
 30
0.0
  9
$PLIMCHECK
 70
0
  9
$PEXTMIN
 10
1e+20
 20
1e+20
 30
1e+20
  9
$PEXTMAX
 10
-1e+20
 20
-1e+20
 30
-1e+20
  9
$PLIMMIN
 10
0.0
 20
0.0
  9
$PLIMMAX
 10
420.0
 20
297.0
  9
$UNITMODE
 70
0
  9
$VISRETAIN
 70
1
  9
$PLINEGEN
 70
0
  9
$PSLTSCALE
 70
1
  9
$TREEDEPTH
 70
3020
  9
$CMLSTYLE
  2
Standard
  9
$CMLJUST
 70
0
  9
$CMLSCALE
 40
20.0
  9
$PROXYGRAPHICS
 70
1
  9
$MEASUREMENT
 70
1
  9
$CELWEIGHT
370
-1
  9
$ENDCAPS
280
0
  9
$JOINSTYLE
280
0
  9
$LWDISPLAY
290
0
  9
$INSUNITS
 70
6
  9
$HYPERLINKBASE
  1

  9
$STYLESHEET
  1

  9
$XEDIT
290
1
  9
$CEPSNTYPE
380
0
  9
$PSTYLEMODE
290
1
  9
$FINGERPRINTGUID
  2
{F8258E86-14AA-4D5A-9BFF-C42935B13DCC}
  9
$VERSIONGUID
  2
{6A0081E0-5786-4EC1-A353-2E757831E12A}
  9
$EXTNAMES
290
1
  9
$PSVPSCALE
 40
0.0
  9
$OLESTARTUP
290
0
  9
$SORTENTS
280
127
  9
$INDEXCTL
280
0
  9
$HIDETEXT
280
1
  9
$XCLIPFRAME
290
1
  9
$HALOGAP
280
0
  9
$OBSCOLOR
 70
257
  9
$OBSLTYPE
280
0
  9
$INTERSECTIONDISPLAY
280
0
  9
$INTERSECTIONCOLOR
 70
257
  9
$DIMASSOC
280
2
  9
$PROJECTNAME
  1

  9
$CAMERADISPLAY
290
0
  9
$LENSLENGTH
 40
50.0
  9
$CAMERAHEIGHT
 40
0.0
  9
$STEPSPERSEC
 40
24.0
  9
$STEPSIZE
 40
100.0
  9
$3DDWFPREC
 40
2.0
  9
$PSOLWIDTH
 40
0.005
  9
$PSOLHEIGHT
 40
0.08
  9
$LOFTANG1
 40
1.570796326795
  9
$LOFTANG2
 40
1.570796326795
  9
$LOFTMAG1
 40
0.0
  9
$LOFTMAG2
 40
0.0
  9
$LOFTPARAM
 70
7
  9
$LOFTNORMALS
280
1
  9
$LATITUDE
 40
37.795
  9
$LONGITUDE
 40
-122.394
  9
$NORTHDIRECTION
 40
0.0
  9
$TIMEZONE
 70
-8000
  9
$LIGHTGLYPHDISPLAY
280
1
  9
$TILEMODELIGHTSYNCH
280
1
  9
$CMATERIAL
347
20
  9
$SOLIDHIST
280
0
  9
$SHOWHIST
280
1
  9
$DWFFRAME
280
2
  9
$DGNFRAME
280
2
  9
$REALWORLDSCALE
290
1
  9
$INTERFERECOLOR
 62
256
  9
$CSHADOW
280
0
  9
$SHADOWPLANELOCATION
 40
0.0
  0
ENDSEC
  0
SECTION
  2
CLASSES
  0
CLASS
  1
ACDBDICTIONARYWDFLT
  2
AcDbDictionaryWithDefault
  3
ObjectDBX Classes
 90
0
 91
0
280
0
281
0
  0
CLASS
  1
SUN
  2
AcDbSun
  3
SCENEOE
 90
1153
 91
0
280
0
281
0
  0
CLASS
  1
VISUALSTYLE
  2
AcDbVisualStyle
  3
ObjectDBX Classes
 90
4095
 91
0
280
0
281
0
  0
CLASS
  1
MATERIAL
  2
AcDbMaterial
  3
ObjectDBX Classes
 90
1153
 91
0
280
0
281
0
  0
CLASS
  1
SCALE
  2
AcDbScale
  3
ObjectDBX Classes
 90
1153
 91
0
280
0
281
0
  0
CLASS
  1
TABLESTYLE
  2
AcDbTableStyle
  3
ObjectDBX Classes
 90
4095
 91
0
280
0
281
0
  0
CLASS
  1
MLEADERSTYLE
  2
AcDbMLeaderStyle
  3
ACDB_MLEADERSTYLE_CLASS
 90
4095
 91
0
280
0
281
0
  0
CLASS
  1
DICTIONARYVAR
  2
AcDbDictionaryVar
  3
ObjectDBX Classes
 90
0
 91
0
280
0
281
0
  0
CLASS
  1
CELLSTYLEMAP
  2
AcDbCellStyleMap
  3
ObjectDBX Classes
 90
1152
 91
0
280
0
281
0
  0
CLASS
  1
MENTALRAYRENDERSETTINGS
  2
AcDbMentalRayRenderSettings
  3
SCENEOE
 90
1024
 91
0
280
0
281
0
  0
CLASS
  1
ACDBDETAILVIEWSTYLE
  2
AcDbDetailViewStyle
  3
ObjectDBX Classes
 90
1025
 91
0
280
0
281
0
  0
CLASS
  1
ACDBSECTIONVIEWSTYLE
  2
AcDbSectionViewStyle
  3
ObjectDBX Classes
 90
1025
 91
0
280
0
281
0
  0
CLASS
  1
RASTERVARIABLES
  2
AcDbRasterVariables
  3
ISM
 90
0
 91
0
280
0
281
0
  0
CLASS
  1
ACDBPLACEHOLDER
  2
AcDbPlaceHolder
  3
ObjectDBX Classes
 90
0
 91
0
280
0
281
0
  0
CLASS
  1
LAYOUT
  2
AcDbLayout
  3
ObjectDBX Classes
 90
0
 91
0
280
0
281
0
  0
ENDSEC
  0
SECTION
  2
TABLES
  0
TABLE
  2
VPORT
  5
8
330
0
100
AcDbSymbolTable
 70
1
  0
VPORT
  5
23
330
8
100
AcDbSymbolTableRecord
100
AcDbViewportTableRecord
  2
*Active
 70
0
 10
0.0
 20
0.0
 11
1.0
 21
1.0
 12
0.0
 22
0.0
 13
0.0
 23
0.0
 14
0.5
 24
0.5
 15
0.5
 25
0.5
 16
0.0
 26
0.0
 36
1.0
 17
0.0
 27
0.0
 37
0.0
 40
1000.0
 41
1.34
 42
50.0
 43
0.0
 44
0.0
 50
0.0
 51
0.0
 71
0
 72
1000
 73
1
 74
3
 75
0
 76
0
 77
0
 78
0
281
0
 65
0
146
0.0
  0
ENDTAB
  0
TABLE
  2
LTYPE
  5
2
330
0
100
AcDbSymbolTable
 70
21
  0
LTYPE
  5
24
330
2
100
AcDbSymbolTableRecord
100
AcDbLinetypeTableRecord
  2
ByBlock
 70
0
  3

 72
65
 73
0
 40
0.0
  0
LTYPE
  5
25
330
2
100
AcDbSymbolTableRecord
100
AcDbLinetypeTableRecord
  2
ByLayer
 70
0
  3

 72
65
 73
0
 40
0.0
  0
LTYPE
  5
26
330
2
100
AcDbSymbolTableRecord
100
AcDbLinetypeTableRecord
  2
Continuous
 70
0
  3

 72
65
 73
0
 40
0.0
  0
LTYPE
  5
2F
330
2
100
AcDbSymbolTableRecord
100
AcDbLinetypeTableRecord
  2
CENTER
 70
0
  3
Center ____ _ ____ _ ____ _ ____ _ ____ _ ____
 72
65
 73
4
 40
5.08
 49
3.175
 74
0
 49
-0.635
 74
0
 49
0.635
 74
0
 49
-0.635
 74
0
  0
LTYPE
  5
30
330
2
100
AcDbSymbolTableRecord
100
AcDbLinetypeTableRecord
  2
CENTERX2
 70
0
  3
Center (2x) ________  __  ________  __  ________
 72
65
 73
4
 40
8.89
 49
6.35
 74
0
 49
-0.635
 74
0
 49
1.27
 74
0
 49
-0.635
 74
0
  0
LTYPE
  5
31
330
2
100
AcDbSymbolTableRecord
100
AcDbLinetypeTableRecord
  2
CENTER2
 70
0
  3
Center (.5x) ____ _ ____ _ ____ _ ____ _ ____
 72
65
 73
4
 40
2.54
 49
1.587
 74
0
 49
-0.318
 74
0
 49
0.318
 74
0
 49
-0.318
 74
0
  0
LTYPE
  5
32
330
2
100
AcDbSymbolTableRecord
100
AcDbLinetypeTableRecord
  2
DASHED
 70
0
  3
Dashed __ __ __ __ __ __ __ __ __ __ __ __ __ _
 72
65
 73
2
 40
1.524
 49
1.27
 74
0
 49
-0.254
 74
0
  0
LTYPE
  5
33
330
2
100
AcDbSymbolTableRecord
100
AcDbLinetypeTableRecord
  2
DASHEDX2
 70
0
  3
Dashed (2x) ____  ____  ____  ____  ____  ____
 72
65
 73
2
 40
3.048
 49
2.54
 74
0
 49
-0.508
 74
0
  0
LTYPE
  5
34
330
2
100
AcDbSymbolTableRecord
100
AcDbLinetypeTableRecord
  2
DASHED2
 70
0
  3
Dashed (.5x) _ _ _ _ _ _ _ _ _ _ _ _ _ _
 72
65
 73
2
 40
0.762
 49
0.635
 74
0
 49
-0.127
 74
0
  0
LTYPE
  5
35
330
2
100
AcDbSymbolTableRecord
100
AcDbLinetypeTableRecord
  2
PHANTOM
 70
0
  3
Phantom ______  __  __  ______  __  __  ______
 72
65
 73
6
 40
6.35
 49
3.175
 74
0
 49
-0.635
 74
0
 49
0.635
 74
0
 49
-0.635
 74
0
 49
0.635
 74
0
 49
-0.635
 74
0
  0
LTYPE
  5
36
330
2
100
AcDbSymbolTableRecord
100
AcDbLinetypeTableRecord
  2
PHANTOMX2
 70
0
  3
Phantom (2x)____________    ____    ____    ____________
 72
65
 73
6
 40
10.795
 49
6.35
 74
0
 49
-0.635
 74
0
 49
1.27
 74
0
 49
-0.635
 74
0
 49
1.27
 74
0
 49
-0.635
 74
0
  0
LTYPE
  5
37
330
2
100
AcDbSymbolTableRecord
100
AcDbLinetypeTableRecord
  2
PHANTOM2
 70
0
  3
Phantom (.5x) ___ _ _ ___ _ _ ___ _ _ ___ _ _ ___
 72
65
 73
6
 40
3.175
 49
1.587
 74
0
 49
-0.318
 74
0
 49
0.318
 74
0
 49
-0.318
 74
0
 49
0.318
 74
0
 49
-0.318
 74
0
  0
LTYPE
  5
38
330
2
100
AcDbSymbolTableRecord
100
AcDbLinetypeTableRecord
  2
DASHDOT
 70
0
  3
Dash dot __ . __ . __ . __ . __ . __ . __ . __
 72
65
 73
4
 40
3.556
 49
2.54
 74
0
 49
-0.508
 74
0
 49
0.0
 74
0
 49
-0.508
 74
0
  0
LTYPE
  5
39
330
2
100
AcDbSymbolTableRecord
100
AcDbLinetypeTableRecord
  2
DASHDOTX2
 70
0
  3
Dash dot (2x) ____  .  ____  .  ____  .  ____
 72
65
 73
4
 40
6.096
 49
5.08
 74
0
 49
-0.508
 74
0
 49
0.0
 74
0
 49
-0.508
 74
0
  0
LTYPE
  5
3A
330
2
100
AcDbSymbolTableRecord
100
AcDbLinetypeTableRecord
  2
DASHDOT2
 70
0
  3
Dash dot (.5x) _ . _ . _ . _ . _ . _ . _ . _
 72
65
 73
4
 40
1.778
 49
1.27
 74
0
 49
-0.254
 74
0
 49
0.0
 74
0
 49
-0.254
 74
0
  0
LTYPE
  5
3B
330
2
100
AcDbSymbolTableRecord
100
AcDbLinetypeTableRecord
  2
DOT
 70
0
  3
Dot .  .  .  .  .  .  .  .  .  .  .  .  .  .  .  .
 72
65
 73
2
 40
0.508
 49
0.0
 74
0
 49
-0.508
 74
0
  0
LTYPE
  5
3C
330
2
100
AcDbSymbolTableRecord
100
AcDbLinetypeTableRecord
  2
DOTX2
 70
0
  3
Dot (2x) .    .    .    .    .    .    .    . 
 72
65
 73
2
 40
1.016
 49
0.0
 74
0
 49
-1.016
 74
0
  0
LTYPE
  5
3D
330
2
100
AcDbSymbolTableRecord
100
AcDbLinetypeTableRecord
  2
DOT2
 70
0
  3
Dot (.5) . . . . . . . . . . . . . . . . . . . 
 72
65
 73
2
 40
0.254
 49
0.0
 74
0
 49
-0.254
 74
0
  0
LTYPE
  5
3E
330
2
100
AcDbSymbolTableRecord
100
AcDbLinetypeTableRecord
  2
DIVIDE
 70
0
  3
Divide __ . . __ . . __ . . __ . . __ . . __
 72
65
 73
6
 40
4.064
 49
2.54
 74
0
 49
-0.508
 74
0
 49
0.0
 74
0
 49
-0.508
 74
0
 49
0.0
 74
0
 49
-0.508
 74
0
  0
LTYPE
  5
3F
330
2
100
AcDbSymbolTableRecord
100
AcDbLinetypeTableRecord
  2
DIVIDEX2
 70
0
  3
Divide (2x) ____  . .  ____  . .  ____  . .  ____
 72
65
 73
6
 40
6.604
 49
5.08
 74
0
 49
-0.508
 74
0
 49
0.0
 74
0
 49
-0.508
 74
0
 49
0.0
 74
0
 49
-0.508
 74
0
  0
LTYPE
  5
40
330
2
100
AcDbSymbolTableRecord
100
AcDbLinetypeTableRecord
  2
DIVIDE2
 70
0
  3
Divide(.5x) _ . _ . _ . _ . _ . _ . _ . _
 72
65
 73
6
 40
2.032
 49
1.27
 74
0
 49
-0.254
 74
0
 49
0.0
 74
0
 49
-0.254
 74
0
 49
0.0
 74
0
 49
-0.254
 74
0
  0
ENDTAB
  0
TABLE
  2
LAYER
  5
1
330
0
100
AcDbSymbolTable
 70
5
  0
LAYER
  5
27
330
1
100
AcDbSymbolTableRecord
100
AcDbLayerTableRecord
  2
0
 70
0
 62
7
  6
Continuous
370
-3
390
13
347
21
  0
LAYER
  5
28
330
1
100
AcDbSymbolTableRecord
100
AcDbLayerTableRecord
  2
Defpoints
 70
0
 62
7
  6
Continuous
290
0
370
-3
390
13
347
21
  0
LAYER
  5
8A
330
1
100
AcDbSymbolTableRecord
100
AcDbLayerTableRecord
  2
Layer
 70
0
 62
1
  6
Continuous
370
50
390
13
347
21
  0
LAYER
  5
8B
330
1
100
AcDbSymbolTableRecord
100
AcDbLayerTableRecord
  2
NumLabel
 70
0
 62
1
  6
Continuous
370
15
390
13
347
21
  0
LAYER
  5
B9
330
1
100
AcDbSymbolTableRecord
100
AcDbLayerTableRecord
  2
SplitMark
 70
0
 62
3
  6
Continuous
370
-3
390
13
347
21
  0
ENDTAB
  0
TABLE
  2
STYLE
  5
5
330
0
100
AcDbSymbolTable
 70
26
  0
STYLE
  5
29
330
5
100
AcDbSymbolTableRecord
100
AcDbTextStyleTableRecord
  2
Standard
 70
0
 40
0.0
 41
1.0
 50
0.0
 71
0
 42
2.5
  3
txt
  4

  0
STYLE
  5
41
330
5
100
AcDbSymbolTableRecord
100
AcDbTextStyleTableRecord
  2
OpenSans-Light
 70
0
 40
0.0
 41
1.0
 50
0.0
 71
0
 42
2.5
  3
OpenSans-Light.ttf
  4

  0
STYLE
  5
42
330
5
100
AcDbSymbolTableRecord
100
AcDbTextStyleTableRecord
  2
OpenSans-Light-Italic
 70
0
 40
0.0
 41
1.0
 50
0.0
 71
0
 42
2.5
  3
OpenSans-LightItalic.ttf
  4

  0
STYLE
  5
43
330
5
100
AcDbSymbolTableRecord
100
AcDbTextStyleTableRecord
  2
OpenSans
 70
0
 40
0.0
 41
1.0
 50
0.0
 71
0
 42
2.5
  3
OpenSans-Regular.ttf
  4

  0
STYLE
  5
44
330
5
100
AcDbSymbolTableRecord
100
AcDbTextStyleTableRecord
  2
OpenSans-Italic
 70
0
 40
0.0
 41
1.0
 50
0.0
 71
0
 42
2.5
  3
OpenSans-Italic.ttf
  4

  0
STYLE
  5
45
330
5
100
AcDbSymbolTableRecord
100
AcDbTextStyleTableRecord
  2
OpenSans-SemiBold
 70
0
 40
0.0
 41
1.0
 50
0.0
 71
0
 42
2.5
  3
OpenSans-SemiBold.ttf
  4

  0
STYLE
  5
46
330
5
100
AcDbSymbolTableRecord
100
AcDbTextStyleTableRecord
  2
OpenSans-SemiBoldItalic
 70
0
 40
0.0
 41
1.0
 50
0.0
 71
0
 42
2.5
  3
OpenSans-SemiBoldItalic.ttf
  4

  0
STYLE
  5
47
330
5
100
AcDbSymbolTableRecord
100
AcDbTextStyleTableRecord
  2
OpenSans-Bold
 70
0
 40
0.0
 41
1.0
 50
0.0
 71
0
 42
2.5
  3
OpenSans-Bold.ttf
  4

  0
STYLE
  5
48
330
5
100
AcDbSymbolTableRecord
100
AcDbTextStyleTableRecord
  2
OpenSans-BoldItalic
 70
0
 40
0.0
 41
1.0
 50
0.0
 71
0
 42
2.5
  3
OpenSans-BoldItalic.ttf
  4

  0
STYLE
  5
49
330
5
100
AcDbSymbolTableRecord
100
AcDbTextStyleTableRecord
  2
OpenSans-ExtraBold
 70
0
 40
0.0
 41
1.0
 50
0.0
 71
0
 42
2.5
  3
OpenSans-ExtraBold.ttf
  4

  0
STYLE
  5
4A
330
5
100
AcDbSymbolTableRecord
100
AcDbTextStyleTableRecord
  2
OpenSans-ExtraBoldItalic
 70
0
 40
0.0
 41
1.0
 50
0.0
 71
0
 42
2.5
  3
OpenSans-ExtraBoldItalic.ttf
  4

  0
STYLE
  5
4B
330
5
100
AcDbSymbolTableRecord
100
AcDbTextStyleTableRecord
  2
OpenSansCondensed-Bold
 70
0
 40
0.0
 41
1.0
 50
0.0
 71
0
 42
2.5
  3
OpenSansCondensed-Bold.ttf
  4

  0
STYLE
  5
4C
330
5
100
AcDbSymbolTableRecord
100
AcDbTextStyleTableRecord
  2
OpenSansCondensed-Light
 70
0
 40
0.0
 41
1.0
 50
0.0
 71
0
 42
2.5
  3
OpenSansCondensed-Light.ttf
  4

  0
STYLE
  5
4D
330
5
100
AcDbSymbolTableRecord
100
AcDbTextStyleTableRecord
  2
OpenSansCondensed-Italic
 70
0
 40
0.0
 41
1.0
 50
0.0
 71
0
 42
2.5
  3
OpenSansCondensed-LightItalic.ttf
  4

  0
STYLE
  5
4E
330
5
100
AcDbSymbolTableRecord
100
AcDbTextStyleTableRecord
  2
LiberationSans
 70
0
 40
0.0
 41
1.0
 50
0.0
 71
0
 42
2.5
  3
LiberationSans-Regular.ttf
  4

  0
STYLE
  5
4F
330
5
100
AcDbSymbolTableRecord
100
AcDbTextStyleTableRecord
  2
LiberationSans-Bold
 70
0
 40
0.0
 41
1.0
 50
0.0
 71
0
 42
2.5
  3
LiberationSans-Bold.ttf
  4

  0
STYLE
  5
50
330
5
100
AcDbSymbolTableRecord
100
AcDbTextStyleTableRecord
  2
LiberationSans-BoldItalic
 70
0
 40
0.0
 41
1.0
 50
0.0
 71
0
 42
2.5
  3
LiberationSans-BoldItalic.ttf
  4

  0
STYLE
  5
51
330
5
100
AcDbSymbolTableRecord
100
AcDbTextStyleTableRecord
  2
LiberationSans-Italic
 70
0
 40
0.0
 41
1.0
 50
0.0
 71
0
 42
2.5
  3
LiberationSans-Italic.ttf
  4

  0
STYLE
  5
52
330
5
100
AcDbSymbolTableRecord
100
AcDbTextStyleTableRecord
  2
LiberationSerif
 70
0
 40
0.0
 41
1.0
 50
0.0
 71
0
 42
2.5
  3
LiberationSerif-Regular.ttf
  4

  0
STYLE
  5
53
330
5
100
AcDbSymbolTableRecord
100
AcDbTextStyleTableRecord
  2
LiberationSerif-Bold
 70
0
 40
0.0
 41
1.0
 50
0.0
 71
0
 42
2.5
  3
LiberationSerif-Bold.ttf
  4

  0
STYLE
  5
54
330
5
100
AcDbSymbolTableRecord
100
AcDbTextStyleTableRecord
  2
LiberationSerif-BoldItalic
 70
0
 40
0.0
 41
1.0
 50
0.0
 71
0
 42
2.5
  3
LiberationSerif-BoldItalic.ttf
  4

  0
STYLE
  5
55
330
5
100
AcDbSymbolTableRecord
100
AcDbTextStyleTableRecord
  2
LiberationSerif-Italic
 70
0
 40
0.0
 41
1.0
 50
0.0
 71
0
 42
2.5
  3
LiberationSerif-Italic.ttf
  4

  0
STYLE
  5
56
330
5
100
AcDbSymbolTableRecord
100
AcDbTextStyleTableRecord
  2
LiberationMono
 70
0
 40
0.0
 41
1.0
 50
0.0
 71
0
 42
2.5
  3
LiberationMono-Regular.ttf
  4

  0
STYLE
  5
57
330
5
100
AcDbSymbolTableRecord
100
AcDbTextStyleTableRecord
  2
LiberationMono-Bold
 70
0
 40
0.0
 41
1.0
 50
0.0
 71
0
 42
2.5
  3
LiberationMono-Bold.ttf
  4

  0
STYLE
  5
58
330
5
100
AcDbSymbolTableRecord
100
AcDbTextStyleTableRecord
  2
LiberationMono-BoldItalic
 70
0
 40
0.0
 41
1.0
 50
0.0
 71
0
 42
2.5
  3
LiberationMono-BoldItalic.ttf
  4

  0
STYLE
  5
59
330
5
100
AcDbSymbolTableRecord
100
AcDbTextStyleTableRecord
  2
LiberationMono-Italic
 70
0
 40
0.0
 41
1.0
 50
0.0
 71
0
 42
2.5
  3
LiberationMono-Italic.ttf
  4

  0
ENDTAB
  0
TABLE
  2
VIEW
  5
7
330
0
100
AcDbSymbolTable
 70
0
  0
ENDTAB
  0
TABLE
  2
UCS
  5
6
330
0
100
AcDbSymbolTable
 70
0
  0
ENDTAB
  0
TABLE
  2
APPID
  5
3
330
0
100
AcDbSymbolTable
 70
3
  0
APPID
  5
2A
330
3
100
AcDbSymbolTableRecord
100
AcDbRegAppTableRecord
  2
ACAD
 70
0
  0
APPID
  5
B6
330
3
100
AcDbSymbolTableRecord
100
AcDbRegAppTableRecord
  2
HATCHBACKGROUNDCOLOR
 70
0
  0
APPID
  5
B7
330
3
100
AcDbSymbolTableRecord
100
AcDbRegAppTableRecord
  2
EZDXF
 70
0
  0
ENDTAB
  0
TABLE
  2
DIMSTYLE
  5
4
330
0
100
AcDbSymbolTable
 70
12
100
AcDbDimStyleTable
  0
DIMSTYLE
105
2B
330
4
100
AcDbSymbolTableRecord
100
AcDbDimStyleTableRecord
  2
Standard
 70
0
 40
1.0
 41
2.5
 42
0.625
 43
3.75
 44
1.25
 45
0.0
 46
0.0
 47
0.0
 48
0.0
 49
2.5
140
2.5
141
2.5
142
0.0
143
0.03937007874
144
1.0
145
0.0
146
1.0
147
0.625
148
0.0
 69
0
 70
0
 71
0
 72
0
 73
0
 74
0
 75
0
 76
0
 77
1
 78
8
 79
3
170
0
171
3
172
1
173
0
174
0
175
0
176
0
177
0
178
0
179
2
271
2
272
2
273
2
274
3
275
0
276
0
277
2
278
44
279
0
280
0
281
0
282
0
283
0
284
8
285
0
286
0
288
0
289
3
290
0
371
-2
372
-2
  0
DIMSTYLE
105
73
330
4
100
AcDbSymbolTableRecord
100
AcDbDimStyleTableRecord
  2
EZDXF
 70
0
 40
1.0
 41
0.175
 42
0.125
 43
3.75
 44
0.375
 45
0.0
 46
0.0
 47
0.0
 48
0.0
 49
2.5
140
0.25
141
2.5
142
0.0
143
0.03937007874
144
100.0
145
0.0
146
0.5
147
0.1
148
0.0
 69
0
 70
0
 71
0
 72
0
 73
0
 74
0
 75
0
 76
0
 77
1
 78
12
 79
3
170
0
171
3
172
1
173
0
174
0
175
0
176
0
177
0
178
0
179
2
271
2
272
2
273
2
274
3
275
0
276
0
277
2
278
46
279
2
280
0
281
0
282
0
283
0
284
8
285
0
286
0
288
1
289
3
290
0
340
4C
342
74
371
-2
372
-2
  0
DIMSTYLE
105
7C
330
4
100
AcDbSymbolTableRecord
100
AcDbDimStyleTableRecord
  2
EZ_M_100_H25_CM
 70
0
 40
1.0
 41
0.25
 42
0.125
 43
3.75
 44
0.375
 45
0.0
 46
0.0
 47
0.0
 48
0.0
 49
2.5
140
0.25
141
2.5
142
0.125
143
0.03937007874
144
100.0
145
0.0
146
0.5
147
0.1
148
0.0
 69
0
 70
0
 71
0
 72
0
 73
0
 74
0
 75
0
 76
0
 77
1
 78
12
 79
3
170
0
171
3
172
1
173
0
174
0
175
0
176
0
177
0
178
0
179
2
271
2
272
2
273
2
274
3
275
0
276
0
277
2
278
46
279
2
280
0
281
0
282
0
283
0
284
8
285
0
286
0
288
1
289
3
290
0
340
4C
371
-2
372
-2
  0
DIMSTYLE
105
7D
330
4
100
AcDbSymbolTableRecord
100
AcDbDimStyleTableRecord
  2
EZ_M_50_H25_CM
 70
0
 40
1.0
 41
0.125
 42
0.0625
 43
3.75
 44
0.1875
 45
0.0
 46
0.0
 47
0.0
 48
0.0
 49
2.5
140
0.125
141
2.5
142
0.0625
143
0.03937007874
144
100.0
145
0.0
146
0.5
147
0.05
148
0.0
 69
0
 70
0
 71
0
 72
0
 73
0
 74
0
 75
0
 76
0
 77
1
 78
12
 79
3
170
0
171
3
172
1
173
0
174
0
175
0
176
0
177
0
178
0
179
2
271
2
272
2
273
2
274
3
275
0
276
0
277
2
278
46
279
2
280
0
281
0
282
0
283
0
284
8
285
0
286
0
288
1
289
3
290
0
340
4C
371
-2
372
-2
  0
DIMSTYLE
105
7E
330
4
100
AcDbSymbolTableRecord
100
AcDbDimStyleTableRecord
  2
EZ_M_25_H25_CM
 70
0
 40
1.0
 41
0.0625
 42
0.03125
 43
3.75
 44
0.09375
 45
0.0
 46
0.0
 47
0.0
 48
0.0
 49
2.5
140
0.0625
141
2.5
142
0.03125
143
0.03937007874
144
100.0
145
0.0
146
0.5
147
0.025
148
0.0
 69
0
 70
0
 71
0
 72
0
 73
0
 74
0
 75
0
 76
0
 77
1
 78
12
 79
3
170
0
171
3
172
1
173
0
174
0
175
0
176
0
177
0
178
0
179
2
271
2
272
2
273
2
274
3
275
0
276
0
277
2
278
46
279
2
280
0
281
0
282
0
283
0
284
8
285
0
286
0
288
1
289
3
290
0
340
4C
371
-2
372
-2
  0
DIMSTYLE
105
7F
330
4
100
AcDbSymbolTableRecord
100
AcDbDimStyleTableRecord
  2
EZ_M_20_H25_CM
 70
0
 40
1.0
 41
0.05
 42
0.025
 43
3.75
 44
0.07500000000000001
 45
0.0
 46
0.0
 47
0.0
 48
0.0
 49
2.5
140
0.05
141
2.5
142
0.025
143
0.03937007874
144
100.0
145
0.0
146
0.5
147
0.020000000000000004
148
0.0
 69
0
 70
0
 71
0
 72
0
 73
0
 74
0
 75
0
 76
0
 77
1
 78
12
 79
3
170
0
171
3
172
1
173
0
174
0
175
0
176
0
177
0
178
0
179
2
271
2
272
2
273
2
274
3
275
0
276
0
277
2
278
46
279
2
280
0
281
0
282
0
283
0
284
8
285
0
286
0
288
1
289
3
290
0
340
4C
371
-2
372
-2
  0
DIMSTYLE
105
80
330
4
100
AcDbSymbolTableRecord
100
AcDbDimStyleTableRecord
  2
EZ_M_10_H25_CM
 70
0
 40
1.0
 41
0.025
 42
0.0125
 43
3.75
 44
0.037500000000000006
 45
0.0
 46
0.0
 47
0.0
 48
0.0
 49
2.5
140
0.025
141
2.5
142
0.0125
143
0.03937007874
144
100.0
145
0.0
146
0.5
147
0.010000000000000002
148
0.0
 69
0
 70
0
 71
0
 72
0
 73
0
 74
0
 75
0
 76
0
 77
1
 78
12
 79
3
170
0
171
3
172
1
173
0
174
0
175
0
176
0
177
0
178
0
179
2
271
2
272
2
273
2
274
3
275
0
276
0
277
2
278
46
279
2
280
0
281
0
282
0
283
0
284
8
285
0
286
0
288
1
289
3
290
0
340
4C
371
-2
372
-2
  0
DIMSTYLE
105
81
330
4
100
AcDbSymbolTableRecord
100
AcDbDimStyleTableRecord
  2
EZ_M_5_H25_CM
 70
0
 40
1.0
 41
0.0125
 42
0.00625
 43
3.75
 44
0.018750000000000003
 45
0.0
 46
0.0
 47
0.0
 48
0.0
 49
2.5
140
0.0125
141
2.5
142
0.00625
143
0.03937007874
144
100.0
145
0.0
146
0.5
147
0.005000000000000001
148
0.0
 69
0
 70
0
 71
0
 72
0
 73
0
 74
0
 75
0
 76
0
 77
1
 78
12
 79
3
170
0
171
3
172
1
173
0
174
0
175
0
176
0
177
0
178
0
179
2
271
2
272
2
273
2
274
3
275
0
276
0
277
2
278
46
279
2
280
0
281
0
282
0
283
0
284
8
285
0
286
0
288
1
289
3
290
0
340
4C
371
-2
372
-2
  0
DIMSTYLE
105
82
330
4
100
AcDbSymbolTableRecord
100
AcDbDimStyleTableRecord
  2
EZ_M_1_H25_CM
 70
0
 40
1.0
 41
0.0025
 42
0.00125
 43
3.75
 44
0.00375
 45
0.0
 46
0.0
 47
0.0
 48
0.0
 49
2.5
140
0.0025
141
2.5
142
0.00125
143
0.03937007874
144
100.0
145
0.0
146
0.5
147
0.001
148
0.0
 69
0
 70
0
 71
0
 72
0
 73
0
 74
0
 75
0
 76
0
 77
1
 78
12
 79
3
170
0
171
3
172
1
173
0
174
0
175
0
176
0
177
0
178
0
179
2
271
2
272
2
273
2
274
3
275
0
276
0
277
2
278
46
279
2
280
0
281
0
282
0
283
0
284
8
285
0
286
0
288
1
289
3
290
0
340
4C
371
-2
372
-2
  0
DIMSTYLE
105
83
330
4
100
AcDbSymbolTableRecord
100
AcDbDimStyleTableRecord
  2
EZ_RADIUS
 70
0
 40
1.0
 41
0.25
 42
0.125
 43
3.75
 44
0.375
 45
0.0
 46
0.0
 47
0.0
 48
0.0
 49
2.5
140
0.25
141
0.0
142
0.0
143
0.03937007874
144
100.0
145
0.0
146
0.5
147
0.1
148
0.0
 69
0
 70
0
 71
0
 72
0
 73
0
 74
0
 75
0
 76
0
 77
1
 78
12
 79
3
170
0
171
3
172
0
173
0
174
0
175
0
176
0
177
0
178
0
179
2
271
2
272
2
273
2
274
3
275
0
276
0
277
2
278
46
279
1
280
0
281
0
282
0
283
0
284
8
285
0
286
0
288
1
289
3
290
0
340
4C
342
84
371
-2
372
-2
  0
DIMSTYLE
105
88
330
4
100
AcDbSymbolTableRecord
100
AcDbDimStyleTableRecord
  2
EZ_RADIUS_INSIDE
 70
0
 40
1.0
 41
0.25
 42
0.125
 43
3.75
 44
0.375
 45
0.0
 46
0.0
 47
0.0
 48
0.0
 49
2.5
140
0.25
141
0.0
142
0.0
143
0.03937007874
144
100.0
145
0.0
146
0.5
147
0.1
148
0.0
 69
0
 70
0
 71
0
 72
0
 73
0
 74
0
 75
0
 76
0
 77
0
 78
12
 79
3
170
0
171
3
172
0
173
0
174
1
175
0
176
0
177
0
178
0
179
2
271
2
272
2
273
2
274
3
275
0
276
0
277
2
278
46
279
0
280
0
281
0
282
0
283
0
284
8
285
0
286
0
288
1
289
0
290
0
340
4C
342
84
371
-2
372
-2
  0
DIMSTYLE
105
89
330
4
100
AcDbSymbolTableRecord
100
AcDbDimStyleTableRecord
  2
EZ_CURVED
 70
0
 40
1.0
 41
0.25
 42
0.125
 43
3.75
 44
0.375
 45
0.0
 46
0.0
 47
0.0
 48
0.0
 49
2.5
140
0.25
141
2.5
142
0.0
143
0.03937007874
144
100.0
145
0.0
146
0.5
147
0.1
148
0.0
 69
0
 70
0
 71
0
 72
0
 73
0
 74
0
 75
0
 76
0
 77
1
 78
12
 79
2
 90
2
170
0
171
3
172
1
173
0
174
0
175
0
176
0
177
0
178
0
179
2
271
2
272
2
273
2
274
3
275
0
276
0
277
2
278
46
279
2
280
0
281
0
282
0
283
0
284
8
285
0
286
0
288
1
289
3
290
0
340
4C
371
-2
372
-2
  0
ENDTAB
  0
TABLE
  2
BLOCK_RECORD
  5
9
330
0
100
AcDbSymbolTable
 70
5
  0
BLOCK_RECORD
  5
17
330
9
100
AcDbSymbolTableRecord
100
AcDbBlockTableRecord
  2
*Model_Space
340
1A
 70
0
280
1
281
0
  0
BLOCK_RECORD
  5
1B
330
9
100
AcDbSymbolTableRecord
100
AcDbBlockTableRecord
  2
*Paper_Space
340
1E
 70
0
280
1
281
0
  0
BLOCK_RECORD
  5
74
330
9
100
AcDbSymbolTableRecord
100
AcDbBlockTableRecord
  2
_ARCHTICK
340
0
 70
0
280
1
281
0
  0
BLOCK_RECORD
  5
78
330
9
100
AcDbSymbolTableRecord
100
AcDbBlockTableRecord
  2
_CLOSEDFILLED
340
0
 70
0
280
1
281
0
  0
BLOCK_RECORD
  5
84
330
9
100
AcDbSymbolTableRecord
100
AcDbBlockTableRecord
  2
_CLOSEDBLANK
340
0
 70
0
280
1
281
0
  0
ENDTAB
  0
ENDSEC
  0
SECTION
  2
BLOCKS
  0
BLOCK
  5
18
330
17
100
AcDbEntity
  8
0
100
AcDbBlockBegin
  2
*Model_Space
 70
0
 10
0.0
 20
0.0
 30
0.0
  3
*Model_Space
  1

  0
ENDBLK
  5
19
330
17
100
AcDbEntity
  8
0
100
AcDbBlockEnd
  0
BLOCK
  5
1C
330
1B
100
AcDbEntity
  8
0
100
AcDbBlockBegin
  2
*Paper_Space
 70
0
 10
0.0
 20
0.0
 30
0.0
  3
*Paper_Space
  1

  0
ENDBLK
  5
1D
330
1B
100
AcDbEntity
  8
0
100
AcDbBlockEnd
  0
BLOCK
  5
75
330
74
100
AcDbEntity
  8
0
100
AcDbBlockBegin
  2
_ARCHTICK
 70
0
 10
0.0
 20
0.0
 30
0.0
  3
_ARCHTICK
  1

  0
LWPOLYLINE
  5
77
330
74
100
AcDbEntity
  8
0
  6
BYBLOCK
 62
0
100
AcDbPolyline
 90
2
 70
0
 43
0.15
 10
-0.5
 20
-0.5
 10
0.5
 20
0.5
  0
ENDBLK
  5
76
330
74
100
AcDbEntity
  8
0
100
AcDbBlockEnd
  0
BLOCK
  5
79
330
78
100
AcDbEntity
  8
0
100
AcDbBlockBegin
  2
_CLOSEDFILLED
 70
0
 10
0.0
 20
0.0
 30
0.0
  3
_CLOSEDFILLED
  1

  0
SOLID
  5
7B
330
78
100
AcDbEntity
  8
0
  6
BYBLOCK
 62
0
100
AcDbTrace
 10
-1.0
 20
0.16439898372402537
 30
0.0
 11
0.0
 21
0.0
 31
0.0
 12
-1.0
 22
-0.16439898372402537
 32
0.0
 13
-1.0
 23
-0.16439898372402537
 33
0.0
  0
ENDBLK
  5
7A
330
78
100
AcDbEntity
  8
0
100
AcDbBlockEnd
  0
BLOCK
  5
85
330
84
100
AcDbEntity
  8
0
100
AcDbBlockBegin
  2
_CLOSEDBLANK
 70
0
 10
0.0
 20
0.0
 30
0.0
  3
_CLOSEDBLANK
  1

  0
LWPOLYLINE
  5
87
330
84
100
AcDbEntity
  8
0
  6
BYBLOCK
 62
0
100
AcDbPolyline
 90
3
 70
1
 10
-1.0
 20
0.16439898372402537
 10
0.0
 20
0.0
 10
-1.0
 20
-0.16439898372402537
  0
ENDBLK
  5
86
330
84
100
AcDbEntity
  8
0
100
AcDbBlockEnd
  0
ENDSEC
  0
SECTION
  2
ENTITIES
  0
LWPOLYLINE
  5
8C
330
17
100
AcDbEntity
  8
Layer
100
AcDbPolyline
 90
261
 70
1
 10
773.967464467619
 20
131.53040034732152
 10
771.0970844386638
 20
132.56508805389979
 10
766.4212463899055
 20
134.24359564273135
 10
761.2839588168309
 20
136.07066676777055
 10
755.681033844872
 20
138.0256660258234
 10
749.5871065038773
 20
140.10599554580054
 10
743.0386293804424
 20
142.33851169019502
 10
736.1083589837956
 20
144.7143850365107
 10
728.8728718372066
 20
147.2163347860818
 10
721.3936945968327
 20
149.8245483296829
 10
713.7286584605793
 20
152.51922075752918
 10
705.9171685427197
 20
155.2858412910328
 10
697.9926637617993
 20
158.10808588112596
 10
689.9825368075135
 20
160.97506654788722
 10
681.9042430969871
 20
163.87596893257887
 10
673.7804180341203
 20
166.7979198324107
 10
665.6342995004225
 20
169.73053934053084
 10
657.4876190747268
 20
172.66127668436854
 10
649.3542174967527
 20
175.5803618486953
 10
641.2448924189443
 20
178.48191899081513
 10
633.1693743418416
 20
181.3586178459945
 10
625.12935206103
 20
184.20515614244076
 10
617.1262082191045
 20
187.0187474224269
 10
609.1638579339979
 20
189.79534524964907
 10
601.243787034824
 20
192.53002284769943
 10
593.364656093215
 20
195.21973317163437
 10
585.9561479665756
 20
197.7173957733813
 10
585.6366803936951
 20
196.76979856471203
 10
585.2117859759637
 20
196.9130597103945
 10
577.4221916124527
 20
199.50196233633307
 10
569.6731891228362
 20
202.03498138334604
 10
561.9590079446564
 20
204.51078507298092
 10
554.2767261122017
 20
206.92844084954947
 10
546.6232186258826
 20
209.285852396968
 10
538.9923229593405
 20
211.58180833740903
 10
531.3779485089093
 20
213.816811132497
 10
523.7769650336559
 20
215.99110946583258
 10
516.1870304697516
 20
218.1037802421607
 10
508.6036925765608
 20
220.1543094380263
 10
501.0222911181569
 20
222.1431984356866
 10
493.44109714875344
 20
224.0713656728488
 10
485.85966891294106
 20
225.938205200434
 10
478.2755455882516
 20
227.74284696012603
 10
470.6854483939975
 20
229.4859134516704
 10
463.0886042885255
 20
231.16827277435678
 10
455.4860568729697
 20
232.78945389390555
 10
447.8767339769453
 20
234.34863073308304
 10
440.2588107562243
 20
235.8460166209175
 10
432.63153198417484
 20
237.2823449093289
 10
424.9966802343372
 20
238.657627506396
 10
417.35470945964335
 20
239.97084938385325
 10
409.7041323094981
 20
241.22182285800295
 10
402.04485081860145
 20
242.41138380652671
 10
394.3787569400076
 20
243.5392407052887
 10
386.7059891995804
 20
244.60423767480222
 10
379.0229913817643
 20
245.6057878708544
 10
371.3262552849082
 20
246.54550306926106
 10
363.61730867642467
 20
247.4251076390721
 10
355.89966324192915
 20
248.24436734030448
 10
348.17421002611445
 20
249.0022342603251
 10
340.43994134717224
 20
249.6988554975419
 10
332.6989145116811
 20
250.33578015991088
 10
324.9565654950336
 20
250.91296368187164
 10
317.2163237593683
 20
251.42873055636227
 10
309.478187126472
 20
251.88208068967526
 10
301.74356892043073
 20
252.27399974170385
 10
294.017525479764
 20
252.60432538691288
 10
286.3039612918861
 20
252.87150963781357
 10
278.6027609494147
 20
253.0737792942288
 10
270.9144173903077
 20
253.21172006899667
 10
263.24364097926843
 20
253.28551525183076
 10
255.59452812233013
 20
253.29345409476298
 10
247.9677243141861
 20
253.23362988369095
 10
240.36343075523516
 20
253.10610531380792
 10
232.786463725197
 20
252.9112275381647
 10
225.24185044461984
 20
252.64739248012202
 10
217.73037554340186
 20
252.31228236718482
 10
210.25324435795602
 20
251.90589713344048
 10
202.81581324765847
 20
251.42865500497402
 10
195.42404871092037
 20
250.87874195757914
 10
188.07915929617513
 20
250.2537052353853
 10
180.78363579268017
 20
249.55403031173626
 10
173.54489914864402
 20
248.78004367581983
 10
166.3686768057864
 20
247.92936862855584
 10
159.25707532979416
 20
247.000332444852
 10
152.21545763817363
 20
245.99415559356942
 10
145.252795167563
 20
244.91066178130401
 10
138.37481788405
 20
243.7480590198492
 10
131.58646585122366
 20
242.507636228801
 10
124.90190369241799
 20
241.19449085614707
 10
118.33807530773831
 20
239.80941167825668
 10
111.90519168476936
 20
238.3515341900225
 10
105.61466437881893
 20
236.8261069612877
 10
99.48706792701145
 20
235.24061493785211
 10
93.54069751233897
 20
233.5976557672165
 10
87.78824211332469
 20
231.90227502450398
 10
82.24727410411117
 20
230.16675796412525
 10
76.93933885004691
 20
228.40201305907573
 10
71.87889060942808
 20
226.61475124317218
 10
67.0754578686265
 20
224.81676839698844
 10
62.54019359364176
 20
223.02306909308675
 10
58.28054955674645
 20
221.24338323068994
 10
54.295113707127626
 20
219.48461357174762
 10
50.57833560676826
 20
217.7567679080287
 10
47.12405969790393
 20
216.06885424157758
 10
43.92269201736269
 20
214.4240306464911
 10
40.95979915039749
 20
212.8223497778807
 10
38.218708224716465
 20
211.2654084524292
 10
35.684144430288995
 20
209.75587430813835
 10
33.34216398792336
 20
208.29337457693615
 10
31.178278485421913
 20
206.87460502037797
 10
29.1779871106138
 20
205.49621802899904
 10
27.327415517478585
 20
204.15606374942968
 10
25.61528081028007
 20
202.85341706088943
 10
24.032347505749385
 20
201.58580176836185
 10
22.5700098210375
 20
200.34866447247674
 10
21.217662067261244
 20
199.13578540812674
 10
19.963662740773373
 20
197.94499529587426
 10
18.796554967609154
 20
196.77700235316684
 10
17.707907770095233
 20
195.636826666506
 10
16.693342847131362
 20
194.52834609505072
 10
15.753344935709038
 20
193.45462848206083
 10
14.890073591137082
 20
192.41173216992124
 10
14.105266908674253
 20
191.39351054155742
 10
13.39809550294251
 20
190.39139541140796
 10
12.76392598324776
 20
189.39698750358858
 10
12.196470353124766
 20
188.40800567482992
 10
11.688972387341039
 20
187.4257802927472
 10
11.236963618357606
 20
186.45661636076602
 10
10.838571805958395
 20
185.50543425666402
 10
10.494529506641243
 20
184.57647507234387
 10
10.206767291479593
 20
183.67015797421837
 10
9.976765495615382
 20
182.78358652657124
 10
9.80458934688943
 20
181.91367726302275
 10
9.688688242647402
 20
181.05791753787136
 10
9.622928311135468
 20
180.13655184302434
 10
9.614130439507335
 20
179.37352101269852
 10
9.655731174223547
 20
178.5270626388256
 10
9.756025057605143
 20
177.68491613208096
 10
9.92226384278922
 20
176.8508042802428
 10
10.163769131031813
 20
176.0235778714828
 10
10.488795312934371
 20
175.20064981813852
 10
10.900774718834214
 20
174.38172278064735
 10
11.397403441683991
 20
173.5694989737059
 10
11.973008966509951
 20
172.76907401671218
 10
12.623677220109812
 20
171.985278324827
 10
13.349005540204189
 20
171.22186310634163
 10
14.152623695246575
 20
170.48036350806865
 10
15.038239655251402
 20
169.76070583664008
 10
16.008216666868577
 20
169.0611911398896
 10
17.06150921447795
 20
168.37969046218146
 10
18.19718255115646
 20
167.7138882319913
 10
19.4142866317963
 20
167.06266451259629
 10
20.716422801353474
 20
166.42557127201928
 10
22.108930149174057
 20
165.80244324033532
 10
23.60057514876462
 20
165.1924998910019
 10
25.2000202217493
 20
164.59334696019283
 10
26.91590690447731
 20
164.00132885273263
 10
28.757691478254458
 20
163.4124246078851
 10
30.735283629284368
 20
162.82311330641204
 10
32.862013203952586
 20
162.23147709024784
 10
35.15427697345234
 20
161.636633842249
 10
37.63202350051654
 20
161.03764112051095
 10
40.31667951054567
 20
160.43267292675313
 10
43.23174183638844
 20
159.81996481896593
 10
46.402130152924144
 20
159.19882384263528
 10
49.855927213432636
 20
158.57038625033076
 10
53.62337563209019
 20
157.9365665236776
 10
57.73352177587648
 20
157.29821738667556
 10
62.210663356765394
 20
156.65679485135192
 10
67.07320387308067
 20
156.01714483172816
 10
72.33329796654539
 20
155.38622325481666
 10
77.9934149966241
 20
154.76934657008795
 10
84.04029773215643
 20
154.17096667242907
 10
90.44893633066579
 20
153.59885739260855
 10
97.19060395975583
 20
153.0595681134709
 10
104.22944473416538
 20
152.5549788630636
 10
111.52370295538594
 20
152.08779419676657
 10
119.03951486940892
 20
151.66121296975695
 10
126.74802053189393
 20
151.27365078522178
 10
134.61986521440488
 20
150.92330255865707
 10
142.6383379985649
 20
150.6112077632352
 10
150.80008804577918
 20
150.3309663516076
 10
159.0813693581095
 20
150.06708100834706
 10
159.95606258737163
 20
150.0404075226511
 10
159.9255820843971
 20
149.04087216112637
 10
167.39750472210525
 20
148.8130165853954
 10
175.766145114028
 20
148.57980134777802
 10
184.16323395419613
 20
148.38136015947703
 10
192.62121675369187
 20
148.2162593735222
 10
201.15718489995334
 20
148.07048814666376
 10
209.75489797901665
 20
147.9290746860392
 10
218.38230631270488
 20
147.78443573999567
 10
227.01309022921038
 20
147.63993001884054
 10
235.62823174748408
 20
147.50808861919268
 10
244.2456021781567
 20
147.39918131612188
 10
252.89687498099926
 20
147.31051001496442
 10
261.5944397329519
 20
147.23027296997446
 10
270.3226668052868
 20
147.14952555706526
 10
279.06843658358446
 20
147.06825889534778
 10
287.8209880217279
 20
146.9885594221764
 10
296.57063996243323
 20
146.909353604417
 10
305.30459798034366
 20
146.83090634327817
 10
314.01653956414253
 20
146.75954784507542
 10
322.7174089858751
 20
146.70076076720727
 10
331.4191235728254
 20
146.6497298366705
 10
340.1163679769194
 20
146.5937737741143
 10
348.81435851097973
 20
146.52751531859843
 10
357.5131220342911
 20
146.45855419389576
 10
366.21042319637195
 20
146.39852925356766
 10
374.9167089671099
 20
146.34802790475328
 10
383.62744911318407
 20
146.29925091785665
 10
392.3263042221073
 20
146.2489794763543
 10
401.00417889152703
 20
146.20565032225903
 10
409.66807209189653
 20
146.17531986375874
 10
418.3247775714265
 20
146.15081799270837
 10
426.96256741735067
 20
146.1153265550114
 10
435.59618489191234
 20
146.06184625441932
 10
444.2344665768796
 20
145.99856535402364
 10
452.8661222628289
 20
145.93772703557855
 10
461.46570897569484
 20
145.87446514101055
 10
470.0205791475736
 20
145.7930223982147
 10
478.5530944323495
 20
145.68703566072926
 10
487.0671600432816
 20
145.5763784449273
 10
495.54459688470683
 20
145.48995974087276
 10
504.0227927234708
 20
145.43710091702133
 10
512.5148956750228
 20
145.3945270291613
 10
521.0025822134662
 20
145.33203669374728
 10
529.5063736806203
 20
145.24000062869976
 10
538.038084247949
 20
145.13374516705196
 10
546.5623841910775
 20
145.02692145123254
 10
555.040770024241
 20
144.90942547605817
 10
563.473688624382
 20
144.75810131607489
 10
571.9112093954523
 20
144.5642788480858
 10
580.3850711188778
 20
144.34606971765652
 10
588.8721086167707
 20
144.12624597656213
 10
597.3259590274652
 20
143.90515035226522
 10
605.7154038440274
 20
143.65838527403133
 10
614.075997446595
 20
143.36584295446966
 10
622.4581340979614
 20
143.03203340287178
 10
630.868925492843
 20
142.6802087895202
 10
639.256981888293
 20
142.32717138248807
 10
647.5669251704611
 20
141.96195815885852
 10
655.7927269335344
 20
141.555311120527
 10
663.9898456805563
 20
141.08787347328263
 10
672.2149392777851
 20
140.57170839201217
 10
680.457178802485
 20
140.0383649346
 10
688.6400752784232
 20
139.500064061343
 10
696.7103835638677
 20
138.93737530260648
 10
704.6694684264071
 20
138.33444898741226
 10
712.5150142344871
 20
137.6969775150468
 10
720.2124423707515
 20
137.03433121353584
 10
727.7117885667183
 20
136.3510107233386
 10
734.9612776011982
 20
135.64400622017484
 10
741.9274989187858
 20
134.90350968761288
 10
748.5885397696353
 20
134.14002415945703
 10
754.891381999787
 20
133.38833200952524
 10
760.764266663086
 20
132.67539600427472
 10
766.1597630936169
 20
132.00021091216738
 10
771.0794181183855
 20
131.3626999109827
 10
774.1037470289615
 20
130.96460015344127
  0
LWPOLYLINE
  5
8D
330
17
100
AcDbEntity
  8
Layer
100
AcDbPolyline
 90
5
 70
0
 10
511.17603084292654
 20
215.315075889088
 10
507.31469713778546
 20
216.35915539637745
 10
508.3587766450749
 20
220.22048910151847
 10
512.2201103502159
 20
219.17640959422903
 10
511.17603084292654
 20
215.315075889088
  0
LWPOLYLINE
  5
8E
330
17
100
AcDbEntity
  8
Layer
100
AcDbPolyline
 90
5
 70
0
 10
222.77025203149512
 20
248.53312316619622
 10
218.77422843280434
 20
248.35481052304834
 10
218.59591578965646
 20
252.35083412173913
 10
222.59193938834724
 20
252.529146764887
 10
222.77025203149512
 20
248.53312316619622
  0
LWPOLYLINE
  5
8F
330
17
100
AcDbEntity
  8
Layer
100
AcDbPolyline
 90
5
 70
0
 10
91.94754118297598
 20
228.95790360742134
 10
88.11074901973225
 20
227.82696333664157
 10
86.97980874895248
 20
231.6637554998853
 10
90.81660091219621
 20
232.79469577066507
 10
91.94754118297598
 20
228.95790360742134
  0
LWPOLYLINE
  5
90
330
17
100
AcDbEntity
  8
Layer
100
AcDbPolyline
 90
5
 70
0
 10
26.08096832782066
 20
196.78128845670926
 10
24.592510082812925
 20
195.44543964308235
 10
21.252888048745586
 20
199.16658525560172
 10
22.74134629375332
 20
200.50243406922863
 10
26.08096832782066
 20
196.78128845670926
  0
LWPOLYLINE
  5
91
330
17
100
AcDbEntity
  8
Layer
100
AcDbPolyline
 90
5
 70
0
 10
18.007131735547777
 20
173.78433213167162
 10
19.631140799290126
 20
172.6170298739497
 10
16.71288515498531
 20
168.55700721459382
 10
15.088876091242964
 20
169.72430947231575
 10
18.007131735547777
 20
173.78433213167162
  0
LWPOLYLINE
  5
92
330
17
100
AcDbEntity
  8
Layer
100
AcDbPolyline
 90
5
 70
0
 10
119.82932506947202
 20
155.6265578232123
 10
123.82427968435024
 20
155.42571553418162
 10
123.62343739531957
 20
151.4307609193034
 10
119.62848278044135
 20
151.63160320833407
 10
119.82932506947202
 20
155.6265578232123
  0
LINE
  5
93
330
17
100
AcDbEntity
  8
Layer
100
AcDbLine
 10
755.1976407921326
 20
138.19068552492385
 30
0.0
 11
754.873565358912
 21
137.2446542814742
 31
0.0
  0
LINE
  5
94
330
17
100
AcDbEntity
  8
Layer
100
AcDbLine
 10
754.2842180319465
 20
134.46736262556723
 30
0.0
 11
754.196113981711
 21
133.47125134848415
 31
0.0
  0
LINE
  5
95
330
17
100
AcDbEntity
  8
Layer
100
AcDbLine
 10
736.2722271955872
 20
144.65820683646638
 30
0.0
 11
735.94850144668
 21
143.71205587626267
 31
0.0
  0
LINE
  5
96
330
17
100
AcDbEntity
  8
Layer
100
AcDbLine
 10
734.4184566096457
 20
136.70168478785186
 30
0.0
 11
734.3185187530559
 21
135.70669110705774
 31
0.0
  0
LINE
  5
97
330
17
100
AcDbEntity
  8
Layer
100
AcDbLine
 10
660.8859367945824
 20
171.4387447907162
 30
0.0
 11
660.5548570488188
 21
170.49514201308938
 31
0.0
  0
LINE
  5
98
330
17
100
AcDbEntity
  8
Layer
100
AcDbLine
 10
654.6106655282032
 20
142.61441406646128
 30
0.0
 11
654.528093400685
 21
141.6178289753842
 31
0.0
  0
LWPOLYLINE
  5
99
330
17
100
AcDbEntity
  8
Layer
100
AcDbPolyline
 90
300
 70
1
 10
340.930930744114
 20
200.0
 10
340.9222603556524
 20
200.8761981996063
 10
340.896253018867
 20
201.75200949475362
 10
340.85292021786574
 20
202.62704715182917
 10
340.7922810871936
 20
203.50092477883683
 10
340.7143624033836
 20
204.37325649601723
 10
340.61919857313296
 20
205.24365710624122
 10
340.50683161811025
 20
206.111742265102
 10
340.37731115639957
 20
206.97712865063113
 10
340.23069438059053
 20
207.8394341325623
 10
340.067046032524
 20
208.69827794106962
 10
339.8864383747035
 20
209.55328083490468
 10
339.68895115838654
 20
210.4040652688589
 10
339.4746715883683
 20
211.25025556047675
 10
339.24369428447466
 20
212.09147805594674
 10
338.99612123978073
 20
212.9273612950962
 10
338.7320617755736
 20
213.75753617541784
 10
338.4516324930791
 20
214.58163611505483
 10
338.154957221974
 20
215.39929721467325
 10
337.8421669657062
 20
216.2101584181496
 10
337.5133998436475
 20
217.01386167200306
 10
337.16880103010385
 20
217.81005208350192
 10
336.80852269021045
 20
218.59837807737415
 10
336.4327239127399
 20
219.3784915510531
 10
336.0415706398532
 20
220.1500480283899
 10
335.63523559382423
 20
220.9127068117644
 10
335.2138982007706
 20
221.66613113252754
 10
334.7777445114238
 20
222.40998829970903
 10
334.32696711897495
 20
223.1439498469243
 10
333.86176507403053
 20
223.86769167741596
 10
333.38234379671775
 20
224.58089420716578
 10
332.8889149859763
 20
225.28324250601418
 10
332.38169652607854
 20
225.9744264367242
 10
331.8609123904174
 20
226.65414079192973
 10
331.3267925426067
 20
227.32208542890626
 10
330.77957283493504
 20
227.97796540210544
 10
330.2194949042205
 20
228.62149109339498
 10
329.6468060651104
 20
229.2523783399455
 10
329.0617592008743
 20
229.87034855970916
 10
328.4646126517377
 20
230.4751288744335
 10
327.85563010080625
 20
231.06645223015676
 10
327.235080457631
 20
231.64405751513152
 10
326.60323773946516
 20
232.2076896751242
 10
325.9603809502659
 20
232.7570998260398
 10
325.3067939574943
 20
233.29204536382218
 10
324.64276536676704
 20
233.8122900715813
 10
323.96858839441666
 20
234.31760422389956
 10
323.2845607380152
 20
234.80776468827258
 10
322.59098444491974
 20
235.2825550236378
 10
321.8881657788962
 20
235.74176557594905
 10
321.1764150848824
 20
236.18519357075374
 10
320.45604665194827
 20
236.61264320273236
 10
319.7273785745145
 20
237.02392572216064
 10
318.9907326118912
 20
237.41885951825606
 10
318.24643404619815
 20
237.79727019937206
 10
317.4948115387291
 20
238.15899067000464
 10
316.73619698482423
 20
238.5038612045768
 10
315.9709253673147
 20
238.83172951796894
 10
315.1993346086035
 20
239.14245083276373
 10
314.42176542144864
 20
239.43588794317574
 10
313.63856115851354
 20
239.71191127563762
 10
312.85006766075276
 20
239.9703989460161
 10
312.05663310469777
 20
240.21123681343266
 10
311.2586078487125
 20
240.43431853066497
 10
310.4563442782847
 20
240.63954559110664
 10
309.65019665042234
 20
240.82682737226517
 10
308.84052093722397
 20
240.99608117577822
 10
308.0276746686912
 20
241.14723226393082
 10
307.2120167748537
 20
241.28021389265757
 10
306.3939074272756
 20
241.39496734101473
 10
305.57370788001424
 20
241.49144193711004
 10
304.75178031009995
 20
241.56959508047765
 10
303.9284876576095
 20
241.62939226088957
 10
303.1041934654015
 20
241.67080707359435
 10
302.2792617185865
 20
241.6938212309765
 10
301.4540566838011
 20
241.69842457063206
 10
300.62894274835816
 20
241.68461505985576
 10
299.8042842593437
 20
241.65239879653885
 10
298.98044536273136
 20
241.60179000647628
 10
298.1577898425859
 20
241.53281103708503
 10
297.33668096042624
 20
241.44549234753615
 10
296.5174812948197
 20
241.33987249530486
 10
295.70055258127707
 20
241.2159981191445
 10
294.8862555525208
 20
241.07392391849248
 10
294.07494977919555
 20
240.9137126293162
 10
293.26699351109147
 20
240.7354349964108
 10
292.4627435189517
 20
240.5391697421603
 10
291.66255493693217
 20
240.32500353177588
 10
290.8667811057845
 20
240.093030935027
 10
290.0757734168306
 20
239.84335438448213
 10
289.2898811567982
 20
239.57608413027725
 10
288.50945135358535
 20
239.2913381914327
 10
287.73482862302336
 20
238.9892423037391
 10
286.9663550167034
 20
238.66992986423617
 10
286.2043698709367
 20
238.3335418723081
 10
285.44920965691284
 20
237.98022686742252
 10
284.70120783212366
 20
237.6101408635393
 10
283.96069469311794
 20
237.22344728021943
 10
283.2279972296515
 20
236.8203168704634
 10
282.503438980298
 20
236.4009276453116
 10
281.78733988958317
 20
235.9654647952396
 10
281.08001616670646
 20
235.51412060838317
 10
280.38178014591193
 20
235.04709438562938
 10
279.6929401485702
 20
234.56459235261084
 10
279.0138003470325
 20
234.0668275686424
 10
278.3446606303165
 20
233.55401983264
 10
277.68581647168423
 20
233.0263955860637
 10
277.03755879816885
 20
232.4841878129276
 10
276.4001738621097
 20
231.9276359369205
 10
275.77394311475155
 20
231.3569857156833
 10
275.15914308196324
 20
230.77248913228922
 10
274.5560452421319
 20
230.17440428397526
 10
273.9649159062858
 20
229.56299526817364
 10
273.38601610049864
 20
228.9385320658939
 10
272.8196014506279
 20
228.30129042250678
 10
272.2659220694378
 20
227.6515517259829
 10
271.72522244615635
 20
226.98960288263982
 10
271.19774133851587
 20
226.31573619045207
 10
270.6837116673243
 20
225.63024920998083
 10
270.18336041361397
 20
224.93344463297944
 10
269.6969085184129
 20
224.22563014873322
 10
269.224570785184
 20
223.50711830819267
 10
268.7665557849733
 20
222.77822638595958
 10
268.3230657643113
 20
222.03927624018772
 10
267.8942965559064
 20
221.29059417045914
 10
267.4804374921706
 20
220.53251077369958
 10
267.08167132161594
 20
219.76536079819613
 10
266.69817412815746
 20
218.98948299578177
 10
266.3301152533601
 20
218.20521997225228
 10
265.9776572216615
 20
217.4129180360809
 10
265.64095566860647
 20
216.61292704549842
 10
265.3201592721223
 20
215.80560025400564
 10
265.01540968686686
 20
214.9912941543865
 10
264.726841481678
 20
214.17036832129094
 10
264.4545820801515
 20
213.34318525245683
 10
264.19875170437473
 20
212.51011020864127
 10
263.95946332183973
 20
211.6715110523315
 10
263.73682259555994
 20
210.82775808530752
 10
263.53092783741255
 20
209.97922388512686
 10
263.3418699647265
 20
209.12628314060515
 10
263.1697324601363
 20
208.26931248636396
 10
263.0145913347179
 20
207.40869033651938
 10
262.87651509442514
 20
206.54479671758534
 10
262.75556470983855
 20
205.67801310066437
 10
262.6517935892431
 20
204.80872223300076
 10
262.56524755504444
 20
203.9373079689701
 10
262.4959648235348
 20
203.06415510058008
 10
262.4439759880181
 20
202.18964918755717
 10
262.40930400530056
 20
201.31417638709414
 10
262.39196418555366
 20
200.43812328333414
 10
262.39196418555366
 20
199.5618767166659
 10
262.40930400530056
 20
198.6858236129059
 10
262.4439759880181
 20
197.81035081244286
 10
262.4959648235348
 20
196.93584489941992
 10
262.56524755504444
 20
196.06269203102988
 10
262.6517935892431
 20
195.19127776699924
 10
262.75556470983855
 20
194.32198689933563
 10
262.87651509442514
 20
193.45520328241466
 10
263.0145913347179
 20
192.59130966348064
 10
263.1697324601363
 20
191.73068751363607
 10
263.3418699647265
 20
190.87371685939482
 10
263.53092783741255
 20
190.02077611487312
 10
263.73682259555994
 20
189.1722419146925
 10
263.95946332183973
 20
188.3284889476685
 10
264.19875170437473
 20
187.48988979135873
 10
264.4545820801515
 20
186.65681474754317
 10
264.726841481678
 20
185.82963167870906
 10
265.01540968686686
 20
185.0087058456135
 10
265.3201592721223
 20
184.19439974599436
 10
265.64095566860647
 20
183.38707295450158
 10
265.9776572216615
 20
182.58708196391913
 10
266.3301152533601
 20
181.79478002774772
 10
266.69817412815746
 20
181.01051700421823
 10
267.08167132161594
 20
180.2346392018039
 10
267.4804374921706
 20
179.46748922630042
 10
267.8942965559064
 20
178.70940582954086
 10
268.3230657643113
 20
177.96072375981225
 10
268.7665557849733
 20
177.22177361404042
 10
269.224570785184
 20
176.49288169180736
 10
269.6969085184129
 20
175.77436985126678
 10
270.18336041361397
 20
175.06655536702058
 10
270.6837116673243
 20
174.36975079001917
 10
271.19774133851587
 20
173.68426380954793
 10
271.72522244615635
 20
173.01039711736018
 10
272.2659220694378
 20
172.34844827401707
 10
272.8196014506279
 20
171.69870957749325
 10
273.3860161004986
 20
171.0614679341061
 10
273.9649159062858
 20
170.43700473182636
 10
274.5560452421319
 20
169.82559571602474
 10
275.1591430819632
 20
169.22751086771078
 10
275.77394311475155
 20
168.6430142843167
 10
276.4001738621097
 20
168.07236406307953
 10
277.0375587981688
 20
167.5158121870724
 10
277.68581647168423
 20
166.9736044139363
 10
278.3446606303165
 20
166.44598016736
 10
279.0138003470325
 20
165.9331724313576
 10
279.6929401485702
 20
165.43540764738916
 10
280.38178014591193
 20
164.95290561437065
 10
281.08001616670646
 20
164.48587939161683
 10
281.78733988958317
 20
164.0345352047604
 10
282.50343898029803
 20
163.5990723546884
 10
283.2279972296515
 20
163.17968312953658
 10
283.96069469311794
 20
162.77655271978057
 10
284.70120783212366
 20
162.3898591364607
 10
285.4492096569128
 20
162.01977313257748
 10
286.2043698709367
 20
161.6664581276919
 10
286.9663550167034
 20
161.33007013576386
 10
287.73482862302336
 20
161.0107576962609
 10
288.50945135358535
 20
160.7086618085673
 10
289.2898811567981
 20
160.42391586972275
 10
290.0757734168306
 20
160.1566456155179
 10
290.8667811057845
 20
159.906969064973
 10
291.66255493693217
 20
159.67499646822412
 10
292.4627435189517
 20
159.4608302578397
 10
293.26699351109147
 20
159.2645650035892
 10
294.07494977919555
 20
159.0862873706838
 10
294.8862555525209
 20
158.92607608150752
 10
295.70055258127707
 20
158.7840018808555
 10
296.5174812948197
 20
158.66012750469514
 10
297.33668096042624
 20
158.55450765246385
 10
298.1577898425858
 20
158.46718896291497
 10
298.98044536273136
 20
158.39820999352372
 10
299.8042842593437
 20
158.34760120346115
 10
300.62894274835816
 20
158.31538494014424
 10
301.4540566838011
 20
158.30157542936794
 10
302.2792617185865
 20
158.3061787690235
 10
303.1041934654015
 20
158.32919292640565
 10
303.9284876576095
 20
158.37060773911043
 10
304.75178031009995
 20
158.43040491952235
 10
305.57370788001424
 20
158.50855806288996
 10
306.3939074272756
 20
158.60503265898527
 10
307.2120167748537
 20
158.71978610734243
 10
308.0276746686912
 20
158.85276773606918
 10
308.84052093722397
 20
159.00391882422178
 10
309.6501966504223
 20
159.17317262773483
 10
310.45634427828463
 20
159.36045440889336
 10
311.2586078487125
 20
159.56568146933503
 10
312.05663310469777
 20
159.7887631865673
 10
312.8500676607527
 20
160.0296010539839
 10
313.63856115851354
 20
160.28808872436238
 10
314.42176542144864
 20
160.56411205682423
 10
315.1993346086035
 20
160.85754916723627
 10
315.9709253673147
 20
161.16827048203106
 10
316.73619698482423
 20
161.4961387954232
 10
317.4948115387291
 20
161.84100932999536
 10
318.2464340461982
 20
162.20272980062794
 10
318.99073261189125
 20
162.58114048174394
 10
319.7273785745145
 20
162.97607427783936
 10
320.45604665194827
 20
163.38735679726764
 10
321.1764150848824
 20
163.81480642924623
 10
321.8881657788962
 20
164.25823442405093
 10
322.59098444491974
 20
164.71744497636217
 10
323.2845607380152
 20
165.19223531172742
 10
323.9685883944166
 20
165.68239577610044
 10
324.64276536676704
 20
166.1877099284187
 10
325.3067939574943
 20
166.7079546361778
 10
325.9603809502659
 20
167.2429001739602
 10
326.60323773946516
 20
167.7923103248758
 10
327.235080457631
 20
168.35594248486848
 10
327.85563010080625
 20
168.93354776984324
 10
328.4646126517377
 20
169.5248711255665
 10
329.0617592008743
 20
170.12965144029084
 10
329.6468060651104
 20
170.7476216600545
 10
330.2194949042205
 20
171.37850890660505
 10
330.77957283493504
 20
172.02203459789453
 10
331.3267925426067
 20
172.67791457109374
 10
331.8609123904174
 20
173.34585920807024
 10
332.3816965260785
 20
174.02557356327577
 10
332.8889149859763
 20
174.71675749398582
 10
333.38234379671775
 20
175.41910579283422
 10
333.86176507403053
 20
176.13230832258404
 10
334.32696711897495
 20
176.8560501530757
 10
334.7777445114238
 20
177.59001170029097
 10
335.2138982007706
 20
178.33386886747246
 10
335.63523559382423
 20
179.0872931882356
 10
336.0415706398532
 20
179.8499519716101
 10
336.4327239127399
 20
180.6215084489469
 10
336.80852269021045
 20
181.40162192262588
 10
337.16880103010385
 20
182.18994791649808
 10
337.5133998436475
 20
182.9861383279969
 10
337.8421669657062
 20
183.7898415818504
 10
338.154957221974
 20
184.60070278532672
 10
338.4516324930791
 20
185.41836388494514
 10
338.7320617755736
 20
186.24246382458216
 10
338.99612123978073
 20
187.0726387049038
 10
339.24369428447466
 20
187.90852194405326
 10
339.47467158836827
 20
188.74974443952325
 10
339.68895115838654
 20
189.5959347311411
 10
339.8864383747035
 20
190.44671916509532
 10
340.067046032524
 20
191.30172205893038
 10
340.23069438059053
 20
192.1605658674377
 10
340.37731115639957
 20
193.02287134936887
 10
340.50683161811025
 20
193.888257734898
 10
340.61919857313296
 20
194.7563428937588
 10
340.7143624033836
 20
195.62674350398274
 10
340.7922810871936
 20
196.49907522116314
 10
340.85292021786574
 20
197.37295284817083
 10
340.896253018867
 20
198.24799050524635
 10
340.9222603556524
 20
199.1238018003937
 10
340.930930744114
 20
200.0
  0
LINE
  5
9A
330
17
100
AcDbEntity
  8
Layer
 62
7
100
AcDbLine
 10
22.181252499689776
 20
200.00000000000003
 30
0.0
 11
575.8985966358462
 21
199.99999999999997
 31
0.0
  0
LINE
  5
9B
330
17
100
AcDbEntity
  8
Layer
 62
7
100
AcDbLine
 10
130.82472132692106
 20
200.00000000000003
 30
0.0
 11
142.82472132692106
 21
200.00000000000003
 31
0.0
  0
LWPOLYLINE
  5
9C
330
17
100
AcDbEntity
  8
Layer
100
AcDbPolyline
 90
5
 70
0
 10
136.82472132692106
 20
205.00000000000003
 10
141.82472132692106
 20
200.00000000000003
 10
136.82472132692106
 20
195.00000000000003
 10
131.82472132692106
 20
200.00000000000003
 10
136.82472132692106
 20
205.00000000000003
  0
LINE
  5
9D
330
17
100
AcDbEntity
  8
Layer
 62
7
100
AcDbLine
 10
293.03992456776797
 20
200.0
 30
0.0
 11
305.03992456776797
 21
200.0
 31
0.0
  0
LWPOLYLINE
  5
9E
330
17
100
AcDbEntity
  8
Layer
100
AcDbPolyline
 90
5
 70
0
 10
299.03992456776797
 20
205.0
 10
304.03992456776797
 20
200.0
 10
299.03992456776797
 20
195.0
 10
294.03992456776797
 20
200.0
 10
299.03992456776797
 20
205.0
  0
LINE
  5
9F
330
17
100
AcDbEntity
  8
Layer
 62
7
100
AcDbLine
 10
455.2551278086149
 20
199.99999999999997
 30
0.0
 11
467.2551278086149
 21
199.99999999999997
 31
0.0
  0
LWPOLYLINE
  5
A0
330
17
100
AcDbEntity
  8
Layer
100
AcDbPolyline
 90
5
 70
0
 10
461.2551278086149
 20
204.99999999999997
 10
466.2551278086149
 20
199.99999999999997
 10
461.2551278086149
 20
194.99999999999997
 10
456.2551278086149
 20
199.99999999999997
 10
461.2551278086149
 20
204.99999999999997
  0
LINE
  5
A1
330
17
100
AcDbEntity
  8
Layer
 62
7
100
AcDbLine
 10
9.67566950870912
 20
180.8755114044429
 30
0.0
 11
773.3310539673391
 21
131.75980764333576
 31
0.0
  0
LINE
  5
A2
330
17
100
AcDbEntity
  8
Layer
 62
7
100
AcDbLine
 10
160.31107642508454
 20
171.1871569809571
 30
0.0
 11
172.28633342708792
 21
170.41694938818213
 31
0.0
  0
LWPOLYLINE
  5
A3
330
17
100
AcDbEntity
  8
Layer
100
AcDbPolyline
 90
5
 70
0
 10
166.61962475640914
 20
175.79174360207105
 10
171.28839534358764
 20
170.4811333542467
 10
165.97778509576332
 20
165.81236276706818
 10
161.30901450858482
 20
171.12297301489252
 10
166.61962475640914
 20
175.79174360207105
  0
LINE
  5
A4
330
17
100
AcDbEntity
  8
Layer
 62
7
100
AcDbLine
 10
347.98162376836603
 20
159.1168289303902
 30
0.0
 11
359.9568807703695
 21
158.34662133761523
 31
0.0
  0
LWPOLYLINE
  5
A5
330
17
100
AcDbEntity
  8
Layer
100
AcDbPolyline
 90
5
 70
0
 10
354.29017209969066
 20
163.72141555150415
 10
358.9589426868692
 20
158.4108053036798
 10
353.64833243904485
 20
153.74203471650128
 10
348.9795618518663
 20
159.05264496432562
 10
354.29017209969066
 20
163.72141555150415
  0
LINE
  5
A6
330
17
100
AcDbEntity
  8
Layer
100
AcDbLine
 10
301.6603636363635
 20
241.69899999999998
 30
0.0
 11
301.6603636363635
 21
242.69899999999998
 31
0.0
  0
LINE
  5
A7
330
17
100
AcDbEntity
  8
Layer
100
AcDbLine
 10
301.6603636363635
 20
158.30100000000002
 30
0.0
 11
301.6603636363635
 21
157.30100000000002
 31
0.0
  0
LINE
  5
A8
330
17
100
AcDbEntity
  8
Layer
100
AcDbLine
 10
340.930930744114
 20
200.0
 30
0.0
 11
341.930930744114
 21
200.0
 31
0.0
  0
LINE
  5
A9
330
17
100
AcDbEntity
  8
Layer
100
AcDbLine
 10
262.38979652861303
 20
200.0
 30
0.0
 11
261.38979652861303
 21
200.0
 31
0.0
  0
LINE
  5
AA
330
17
100
AcDbEntity
  8
Layer
 62
7
100
AcDbLine
 10
151.6603636363635
 20
150.30355342950557
 30
0.0
 11
151.6603636363635
 21
245.90777471287535
 31
0.0
  0
LINE
  5
AB
330
17
100
AcDbEntity
  8
Layer
 62
7
100
AcDbLine
 10
151.6603636363635
 20
179.71503087868498
 30
0.0
 11
151.6603636363635
 21
191.71503087868498
 31
0.0
  0
LWPOLYLINE
  5
AC
330
17
100
AcDbEntity
  8
Layer
100
AcDbPolyline
 90
5
 70
0
 10
146.6603636363635
 20
185.71503087868498
 10
151.6603636363635
 20
190.71503087868498
 10
156.6603636363635
 20
185.71503087868498
 10
151.6603636363635
 20
180.71503087868498
 10
146.6603636363635
 20
185.71503087868498
  0
LINE
  5
AD
330
17
100
AcDbEntity
  8
Layer
 62
7
100
AcDbLine
 10
151.6603636363635
 20
204.4962972636959
 30
0.0
 11
151.6603636363635
 21
216.4962972636959
 31
0.0
  0
LWPOLYLINE
  5
AE
330
17
100
AcDbEntity
  8
Layer
100
AcDbPolyline
 90
5
 70
0
 10
146.6603636363635
 20
210.4962972636959
 10
151.6603636363635
 20
215.4962972636959
 10
156.6603636363635
 20
210.4962972636959
 10
151.6603636363635
 20
205.4962972636959
 10
146.6603636363635
 20
210.4962972636959
  0
LINE
  5
AF
330
17
100
AcDbEntity
  8
Layer
 62
7
100
AcDbLine
 10
601.6603636363635
 20
143.77765923505797
 30
0.0
 11
601.6603636363635
 21
192.38618541055973
 31
0.0
  0
LINE
  5
B0
330
17
100
AcDbEntity
  8
Layer
 62
7
100
AcDbLine
 10
601.6603636363635
 20
156.7406433964836
 30
0.0
 11
601.6603636363635
 21
168.7406433964836
 31
0.0
  0
LWPOLYLINE
  5
B1
330
17
100
AcDbEntity
  8
Layer
100
AcDbPolyline
 90
5
 70
0
 10
596.6603636363635
 20
162.7406433964836
 10
601.6603636363635
 20
167.7406433964836
 10
606.6603636363635
 20
162.7406433964836
 10
601.6603636363635
 20
157.7406433964836
 10
596.6603636363635
 20
162.7406433964836
  0
LINE
  5
B2
330
17
100
AcDbEntity
  8
Layer
 62
7
100
AcDbLine
 10
601.6603636363635
 20
167.4232012491341
 30
0.0
 11
601.6603636363635
 21
179.4232012491341
 31
0.0
  0
LWPOLYLINE
  5
B3
330
17
100
AcDbEntity
  8
Layer
100
AcDbPolyline
 90
5
 70
0
 10
596.6603636363635
 20
173.4232012491341
 10
601.6603636363635
 20
178.4232012491341
 10
606.6603636363635
 20
173.4232012491341
 10
601.6603636363635
 20
168.4232012491341
 10
596.6603636363635
 20
173.4232012491341
  0
LWPOLYLINE
  5
B4
330
17
100
AcDbEntity
  8
NumLabel
 62
1
100
AcDbPolyline
 90
5
 70
0
 10
224.90763636363627
 20
171.62363636363636
 10
224.90763636363627
 20
166.62363636363636
 10
229.90763636363627
 20
166.62363636363636
 10
229.90763636363627
 20
171.62363636363636
 10
229.90763636363627
 20
161.62363636363636
  0
LWPOLYLINE
  5
B5
330
17
100
AcDbEntity
  8
NumLabel
 62
1
100
AcDbPolyline
 90
4
 70
0
 10
232.40763636363627
 20
166.62363636363636
 10
232.40763636363627
 20
171.62363636363636
 10
237.40763636363627
 20
171.62363636363636
 10
237.40763636363627
 20
161.62363636363636
  0
ENDSEC
  0
SECTION
  2
OBJECTS
  0
DICTIONARY
  5
A
330
0
100
AcDbDictionary
280
0
281
1
  3
ACAD_COLOR
350
B
  3
ACAD_GROUP
350
C
  3
ACAD_LAYOUT
350
D
  3
ACAD_MATERIAL
350
E
  3
ACAD_MLEADERSTYLE
350
F
  3
ACAD_MLINESTYLE
350
10
  3
ACAD_PLOTSETTINGS
350
11
  3
ACAD_PLOTSTYLENAME
350
12
  3
ACAD_SCALELIST
350
14
  3
ACAD_TABLESTYLE
350
15
  3
ACAD_VISUALSTYLE
350
16
  3
EZDXF_META
350
2D
  0
DICTIONARY
  5
B
330
A
100
AcDbDictionary
280
0
281
1
  0
DICTIONARY
  5
C
330
A
100
AcDbDictionary
280
0
281
1
  0
DICTIONARY
  5
D
330
A
100
AcDbDictionary
280
0
281
1
  3
Model
350
1A
  3
Layout1
350
1E
  0
DICTIONARY
  5
E
330
A
100
AcDbDictionary
280
0
281
1
  3
ByBlock
350
1F
  3
ByLayer
350
20
  3
Global
350
21
  0
DICTIONARY
  5
F
330
A
100
AcDbDictionary
280
0
281
1
  3
Standard
350
2C
  0
DICTIONARY
  5
10
330
A
100
AcDbDictionary
280
0
281
1
  3
Standard
350
22
  0
DICTIONARY
  5
11
330
A
100
AcDbDictionary
280
0
281
1
  0
ACDBDICTIONARYWDFLT
  5
12
330
A
100
AcDbDictionary
280
0
281
1
  3
Normal
350
13
100
AcDbDictionaryWithDefault
340
13
  0
ACDBPLACEHOLDER
  5
13
330
12
  0
DICTIONARY
  5
14
330
A
100
AcDbDictionary
280
0
281
1
  0
DICTIONARY
  5
15
330
A
100
AcDbDictionary
280
0
281
1
  0
DICTIONARY
  5
16
330
A
100
AcDbDictionary
280
0
281
1
  3
2dWireframe
350
5A
  3
Basic
350
5B
  3
Brighten
350
5C
  3
ColorChange
350
5D
  3
Conceptual
350
5E
  3
Dim
350
5F
  3
EdgeColorOff
350
60
  3
Facepattern
350
61
  3
Flat
350
62
  3
FlatWithEdges
350
63
  3
Gouraud
350
64
  3
GouraudWithEdges
350
65
  3
Hidden
350
66
  3
JitterOff
350
67
  3
Linepattern
350
68
  3
Modeling
350
69
  3
OverhangOff
350
6A
  3
Realistic
350
6B
  3
Shaded
350
6C
  3
Shaded with edges
350
6D
  3
Shades of Gray
350
6E
  3
Sketchy
350
6F
  3
Thicken
350
70
  3
Wireframe
350
71
  3
X-Ray
350
72
  0
LAYOUT
  5
1A
330
D
100
AcDbPlotSettings
  1

  2
Adobe PDF
  4
A3
  6

 40
7.5
 41
20.0
 42
7.5
 43
20.0
 44
420.0
 45
297.0
 46
0.0
 47
0.0
 48
0.0
 49
0.0
140
0.0
141
0.0
142
1.0
143
1.0
 70
1024
 72
1
 73
0
 74
5
  7

 75
16
 76
0
 77
2
 78
300
147
1.0
148
0.0
149
0.0
100
AcDbLayout
  1
Model
 70
1
 71
0
 10
0.0
 20
0.0
 11
420.0
 21
297.0
 12
0.0
 22
0.0
 32
0.0
 14
1e+20
 24
1e+20
 34
1e+20
 15
-1e+20
 25
-1e+20
 35
-1e+20
146
0.0
 13
0.0
 23
0.0
 33
0.0
 16
1.0
 26
0.0
 36
0.0
 17
0.0
 27
1.0
 37
0.0
 76
1
330
17
  0
LAYOUT
  5
1E
330
D
100
AcDbPlotSettings
  1

  2
Adobe PDF
  4
A3
  6

 40
7.5
 41
20.0
 42
7.5
 43
20.0
 44
420.0
 45
297.0
 46
0.0
 47
0.0
 48
0.0
 49
0.0
140
0.0
141
0.0
142
1.0
143
1.0
 70
0
 72
1
 73
0
 74
5
  7

 75
16
 76
0
 77
2
 78
300
147
1.0
148
0.0
149
0.0
100
AcDbLayout
  1
Layout1
 70
1
 71
1
 10
0.0
 20
0.0
 11
420.0
 21
297.0
 12
0.0
 22
0.0
 32
0.0
 14
1e+20
 24
1e+20
 34
1e+20
 15
-1e+20
 25
-1e+20
 35
-1e+20
146
0.0
 13
0.0
 23
0.0
 33
0.0
 16
1.0
 26
0.0
 36
0.0
 17
0.0
 27
1.0
 37
0.0
 76
1
330
1B
  0
MATERIAL
  5
1F
102
{ACAD_REACTORS
330
E
102
}
330
E
100
AcDbMaterial
  1
ByBlock
  2

 70
0
 40
1.0
 71
1
 41
1.0
 91
-1023410177
 42
1.0
 72
1
  3

 73
1
 74
1
 75
1
 44
0.5
 73
0
 45
1.0
 46
1.0
 77
1
  4

 78
1
 79
1
170
1
 48
1.0
171
1
  6

172
1
173
1
174
1
140
1.0
141
1.0
175
1
  7

176
1
177
1
178
1
143
1.0
179
1
  8

270
1
271
1
272
1
145
1.0
146
1.0
273
1
  9

274
1
275
1
276
1
 42
1.0
 72
1
  3

 73
1
 74
1
 75
1
 94
63
  0
MATERIAL
  5
20
102
{ACAD_REACTORS
330
E
102
}
330
E
100
AcDbMaterial
  1
ByLayer
  2

 70
0
 40
1.0
 71
1
 41
1.0
 91
-1023410177
 42
1.0
 72
1
  3

 73
1
 74
1
 75
1
 44
0.5
 73
0
 45
1.0
 46
1.0
 77
1
  4

 78
1
 79
1
170
1
 48
1.0
171
1
  6

172
1
173
1
174
1
140
1.0
141
1.0
175
1
  7

176
1
177
1
178
1
143
1.0
179
1
  8

270
1
271
1
272
1
145
1.0
146
1.0
273
1
  9

274
1
275
1
276
1
 42
1.0
 72
1
  3

 73
1
 74
1
 75
1
 94
63
  0
MATERIAL
  5
21
102
{ACAD_REACTORS
330
E
102
}
330
E
100
AcDbMaterial
  1
Global
  2

 70
0
 40
1.0
 71
1
 41
1.0
 91
-1023410177
 42
1.0
 72
1
  3

 73
1
 74
1
 75
1
 44
0.5
 73
0
 45
1.0
 46
1.0
 77
1
  4

 78
1
 79
1
170
1
 48
1.0
171
1
  6

172
1
173
1
174
1
140
1.0
141
1.0
175
1
  7

176
1
177
1
178
1
143
1.0
179
1
  8

270
1
271
1
272
1
145
1.0
146
1.0
273
1
  9

274
1
275
1
276
1
 42
1.0
 72
1
  3

 73
1
 74
1
 75
1
 94
63
  0
MLINESTYLE
  5
22
102
{ACAD_REACTORS
330
10
102
}
330
10
100
AcDbMlineStyle
  2
Standard
 70
0
  3

 62
256
 51
90.0
 52
90.0
 71
2
 49
0.5
 62
256
  6
BYLAYER
 49
-0.5
 62
256
  6
BYLAYER
  0
MLEADERSTYLE
  5
2C
102
{ACAD_REACTORS
330
F
102
}
330
F
100
AcDbMLeaderStyle
179
2
170
2
171
1
172
0
 90
2
 40
0.0
 41
0.0
173
1
 91
-1056964608
 92
-2
290
1
 42
2.0
291
1
 43
8.0
  3
Standard
 44
4.0
300

342
29
174
1
175
1
176
0
178
1
 93
-1056964608
 45
4.0
292
0
297
0
 46
4.0
 94
-1056964608
 47
1.0
 49
1.0
140
1.0
294
1
141
0.0
177
0
142
1.0
295
0
296
0
143
3.75
271
0
272
9
273
9
  0
DICTIONARY
  5
2D
330
A
100
AcDbDictionary
281
1
  3
CREATED_BY_EZDXF
350
2E
  3
WRITTEN_BY_EZDXF
350
B8
  0
DICTIONARYVAR
  5
2E
330
2D
100
DictionaryVariables
280
0
  1
1.3.0 @ 2026-01-06T17:07:17.803424+00:00
  0
VISUALSTYLE
  5
5A
102
{ACAD_REACTORS
330
16
102
}
330
16
100
AcDbVisualStyle
  2
2dWireframe
 70
4
 90
0
 40
0.6
 62
7
290
0
291
0
  0
VISUALSTYLE
  5
5B
102
{ACAD_REACTORS
330
16
102
}
330
16
100
AcDbVisualStyle
  2
Basic
 70
7
 90
1
 40
0.6
 62
7
290
0
291
1
  0
VISUALSTYLE
  5
5C
102
{ACAD_REACTORS
330
16
102
}
330
16
100
AcDbVisualStyle
  2
Brighten
 70
12
 90
2
 40
0.6
 62
7
290
0
291
1
  0
VISUALSTYLE
  5
5D
102
{ACAD_REACTORS
330
16
102
}
330
16
100
AcDbVisualStyle
  2
ColorChange
 70
16
 90
2
 40
0.6
 62
8
290
0
291
1
  0
VISUALSTYLE
  5
5E
102
{ACAD_REACTORS
330
16
102
}
330
16
100
AcDbVisualStyle
  2
Conceptual
 70
9
 90
3
 40
0.6
 62
7
290
0
291
0
  0
VISUALSTYLE
  5
5F
102
{ACAD_REACTORS
330
16
102
}
330
16
100
AcDbVisualStyle
  2
Dim
 70
11
 90
2
 40
0.6
 62
7
290
0
291
1
  0
VISUALSTYLE
  5
60
102
{ACAD_REACTORS
330
16
102
}
330
16
100
AcDbVisualStyle
  2
EdgeColorOff
 70
22
 90
2
 40
0.6
 62
7
290
0
291
1
  0
VISUALSTYLE
  5
61
102
{ACAD_REACTORS
330
16
102
}
330
16
100
AcDbVisualStyle
  2
Facepattern
 70
15
 90
2
 40
0.6
 62
7
290
0
291
1
  0
VISUALSTYLE
  5
62
102
{ACAD_REACTORS
330
16
102
}
330
16
100
AcDbVisualStyle
  2
Flat
 70
0
 90
2
 40
0.6
 62
7
290
0
291
1
  0
VISUALSTYLE
  5
63
102
{ACAD_REACTORS
330
16
102
}
330
16
100
AcDbVisualStyle
  2
FlatWithEdges
 70
1
 90
2
 40
0.6
 62
7
290
0
291
1
  0
VISUALSTYLE
  5
64
102
{ACAD_REACTORS
330
16
102
}
330
16
100
AcDbVisualStyle
  2
Gouraud
 70
2
 90
2
 40
0.6
 62
7
290
0
291
1
  0
VISUALSTYLE
  5
65
102
{ACAD_REACTORS
330
16
102
}
330
16
100
AcDbVisualStyle
  2
GouraudWithEdges
 70
3
 90
2
 40
0.6
 62
7
290
0
291
1
  0
VISUALSTYLE
  5
66
102
{ACAD_REACTORS
330
16
102
}
330
16
100
AcDbVisualStyle
  2
Hidden
 70
6
 90
1
 40
0.6
 62
7
290
0
291
0
  0
VISUALSTYLE
  5
67
102
{ACAD_REACTORS
330
16
102
}
330
16
100
AcDbVisualStyle
  2
JitterOff
 70
20
 90
2
 40
0.6
 62
7
290
0
291
1
  0
VISUALSTYLE
  5
68
102
{ACAD_REACTORS
330
16
102
}
330
16
100
AcDbVisualStyle
  2
Linepattern
 70
14
 90
2
 40
0.6
 62
7
290
0
291
1
  0
VISUALSTYLE
  5
69
102
{ACAD_REACTORS
330
16
102
}
330
16
100
AcDbVisualStyle
  2
Modeling
 70
10
 90
2
 40
0.6
 62
7
290
0
291
0
  0
VISUALSTYLE
  5
6A
102
{ACAD_REACTORS
330
16
102
}
330
16
100
AcDbVisualStyle
  2
OverhangOff
 70
21
 90
2
 40
0.6
 62
7
290
0
291
1
  0
VISUALSTYLE
  5
6B
102
{ACAD_REACTORS
330
16
102
}
330
16
100
AcDbVisualStyle
  2
Realistic
 70
8
 90
2
 40
0.6
 62
7
290
0
291
0
  0
VISUALSTYLE
  5
6C
102
{ACAD_REACTORS
330
16
102
}
330
16
100
AcDbVisualStyle
  2
Shaded
 70
27
 90
2
 40
0.6
 62
7
290
0
291
0
  0
VISUALSTYLE
  5
6D
102
{ACAD_REACTORS
330
16
102
}
330
16
100
AcDbVisualStyle
  2
Shaded with edges
 70
26
 90
2
 40
0.6
 62
7
290
0
291
0
  0
VISUALSTYLE
  5
6E
102
{ACAD_REACTORS
330
16
102
}
330
16
100
AcDbVisualStyle
  2
Shades of Gray
 70
23
 90
2
 40
0.6
 62
7
290
0
291
0
  0
VISUALSTYLE
  5
6F
102
{ACAD_REACTORS
330
16
102
}
330
16
100
AcDbVisualStyle
  2
Sketchy
 70
24
 90
1
 40
0.6
 62
7
290
0
291
0
  0
VISUALSTYLE
  5
70
102
{ACAD_REACTORS
330
16
102
}
330
16
100
AcDbVisualStyle
  2
Thicken
 70
13
 90
2
 40
0.6
 62
7
290
0
291
1
  0
VISUALSTYLE
  5
71
102
{ACAD_REACTORS
330
16
102
}
330
16
100
AcDbVisualStyle
  2
Wireframe
 70
5
 90
0
 40
0.6
 62
7
290
0
291
0
  0
VISUALSTYLE
  5
72
102
{ACAD_REACTORS
330
16
102
}
330
16
100
AcDbVisualStyle
  2
X-Ray
 70
25
 90
2
 40
0.5
 62
7
290
0
291
0
  0
DICTIONARYVAR
  5
B8
330
2D
100
DictionaryVariables
280
0
  1
1.3.0 @ 2026-01-06T17:07:17.946194+00:00
  0
ENDSEC
  0
EOF
