  0
SECTION
  2
HEADER
  9
$ACADVER
  1
AC1021
  9
$ACADMAINTVER
 70
25
  9
$DWGCODEPAGE
  3
ANSI_1252
  9
$LASTSAVEDBY
  1
ezdxf
  9
$INSBASE
 10
0.0
 20
0.0
 30
0.0
  9
$EXTMIN
 10
1e+20
 20
1e+20
 30
1e+20
  9
$EXTMAX
 10
-1e+20
 20
-1e+20
 30
-1e+20
  9
$LIMMIN
 10
0.0
 20
0.0
  9
$LIMMAX
 10
420.0
 20
297.0
  9
$ORTHOMODE
 70
0
  9
$REGENMODE
 70
1
  9
$FILLMODE
 70
1
  9
$QTEXTMODE
 70
0
  9
$MIRRTEXT
 70
1
  9
$LTSCALE
 40
1.0
  9
$ATTMODE
 70
1
  9
$TEXTSIZE
 40
2.5
  9
$TRACEWID
 40
1.0
  9
$TEXTSTYLE
  7
OpenSans
  9
$CLAYER
  8
0
  9
$CELTYPE
  6
ByLayer
  9
$CECOLOR
 62
256
  9
$CELTSCALE
 40
1.0
  9
$DISPSILH
 70
0
  9
$DIMSCALE
 40
1.0
  9
$DIMASZ
 40
0.175
  9
$DIMEXO
 40
0.125
  9
$DIMDLI
 40
3.75
  9
$DIMRND
 40
0.0
  9
$DIMDLE
 40
0.0
  9
$DIMEXE
 40
0.375
  9
$DIMTP
 40
0.0
  9
$DIMTM
 40
0.0
  9
$DIMTXT
 40
0.25
  9
$DIMCEN
 40
2.5
  9
$DIMTSZ
 40
0.0
  9
$DIMTOL
 70
0
  9
$DIMLIM
 70
0
  9
$DIMTIH
 70
0
  9
$DIMTOH
 70
0
  9
$DIMSE1
 70
0
  9
$DIMSE2
 70
0
  9
$DIMTAD
 70
1
  9
$DIMZIN
 70
12
  9
$DIMBLK
  1
ARCHTICK
  9
$DIMASO
 70
1
  9
$DIMSHO
 70
1
  9
$DIMPOST
  1

  9
$DIMAPOST
  1

  9
$DIMALT
 70
0
  9
$DIMALTD
 70
3
  9
$DIMALTF
 40
0.03937007874
  9
$DIMLFAC
 40
100.0
  9
$DIMTOFL
 70
1
  9
$DIMTVP
 40
0.0
  9
$DIMTIX
 70
0
  9
$DIMSOXD
 70
0
  9
$DIMSAH
 70
0
  9
$DIMBLK1
  1

  9
$DIMBLK2
  1

  9
$DIMSTYLE
  2
EZDXF
  9
$DIMCLRD
 70
0
  9
$DIMCLRE
 70
0
  9
$DIMCLRT
 70
0
  9
$DIMTFAC
 40
0.5
  9
$DIMGAP
 40
0.1
  9
$DIMJUST
 70
0
  9
$DIMSD1
 70
0
  9
$DIMSD2
 70
0
  9
$DIMTOLJ
 70
0
  9
$DIMTZIN
 70
8
  9
$DIMALTZ
 70
0
  9
$DIMALTTZ
 70
0
  9
$DIMUPT
 70
1
  9
$DIMDEC
 70
2
  9
$DIMTDEC
 70
2
  9
$DIMALTU
 70
2
  9
$DIMALTTD
 70
3
  9
$DIMTXSTY
  7
OpenSansCondensed-Light
  9
$DIMAUNIT
 70
0
  9
$DIMADEC
 70
2
  9
$DIMALTRND
 40
0.0
  9
$DIMAZIN
 70
3
  9
$DIMDSEP
 70
46
  9
$DIMATFIT
 70
3
  9
$DIMFRAC
 70
0
  9
$DIMLDRBLK
  1

  9
$DIMLUNIT
 70
2
  9
$DIMLWD
 70
-2
  9
$DIMLWE
 70
-2
  9
$DIMTMOVE
 70
2
  9
$DIMFXL
 40
1.0
  9
$DIMFXLON
 70
0
  9
$DIMJOGANG
 40
0.785398163397
  9
$DIMTFILL
 70
0
  9
$DIMTFILLCLR
 70
0
  9
$DIMARCSYM
 70
0
  9
$DIMLTYPE
  6

  9
$DIMLTEX1
  6

  9
$DIMLTEX2
  6

  9
$LUNITS
 70
2
  9
$LUPREC
 70
4
  9
$SKETCHINC
 40
1.0
  9
$FILLETRAD
 40
10.0
  9
$AUNITS
 70
0
  9
$AUPREC
 70
2
  9
$MENU
  1
.
  9
$ELEVATION
 40
0.0
  9
$PELEVATION
 40
0.0
  9
$THICKNESS
 40
0.0
  9
$LIMCHECK
 70
0
  9
$CHAMFERA
 40
0.0
  9
$CHAMFERB
 40
0.0
  9
$CHAMFERC
 40
0.0
  9
$CHAMFERD
 40
0.0
  9
$SKPOLY
 70
0
  9
$TDCREATE
 40
2461048.088414352
  9
$TDUCREATE
 40
2458532.153996898
  9
$TDUPDATE
 40
2461048.088414352
  9
$TDUUPDATE
 40
2458532.1544311
  9
$TDINDWG
 40
0.0
  9
$TDUSRTIMER
 40
0.0
  9
$USRTIMER
 70
1
  9
$ANGBASE
 50
0.0
  9
$ANGDIR
 70
0
  9
$PDMODE
 70
0
  9
$PDSIZE
 40
0.0
  9
$PLINEWID
 40
0.0
  9
$SPLFRAME
 70
0
  9
$SPLINETYPE
 70
6
  9
$SPLINESEGS
 70
8
  9
$HANDSEED
  5
BB
  9
$SURFTAB1
 70
6
  9
$SURFTAB2
 70
6
  9
$SURFTYPE
 70
6
  9
$SURFU
 70
6
  9
$SURFV
 70
6
  9
$UCSBASE
  2

  9
$UCSNAME
  2

  9
$UCSORG
 10
0.0
 20
0.0
 30
0.0
  9
$UCSXDIR
 10
1.0
 20
0.0
 30
0.0
  9
$UCSYDIR
 10
0.0
 20
1.0
 30
0.0
  9
$UCSORTHOREF
  2

  9
$UCSORTHOVIEW
 70
0
  9
$UCSORGTOP
 10
0.0
 20
0.0
 30
0.0
  9
$UCSORGBOTTOM
 10
0.0
 20
0.0
 30
0.0
  9
$UCSORGLEFT
 10
0.0
 20
0.0
 30
0.0
  9
$UCSORGRIGHT
 10
0.0
 20
0.0
 30
0.0
  9
$UCSORGFRONT
 10
0.0
 20
0.0
 30
0.0
  9
$UCSORGBACK
 10
0.0
 20
0.0
 30
0.0
  9
$PUCSBASE
  2

  9
$PUCSNAME
  2

  9
$PUCSORG
 10
0.0
 20
0.0
 30
0.0
  9
$PUCSXDIR
 10
1.0
 20
0.0
 30
0.0
  9
$PUCSYDIR
 10
0.0
 20
1.0
 30
0.0
  9
$PUCSORTHOREF
  2

  9
$PUCSORTHOVIEW
 70
0
  9
$PUCSORGTOP
 10
0.0
 20
0.0
 30
0.0
  9
$PUCSORGBOTTOM
 10
0.0
 20
0.0
 30
0.0
  9
$PUCSORGLEFT
 10
0.0
 20
0.0
 30
0.0
  9
$PUCSORGRIGHT
 10
0.0
 20
0.0
 30
0.0
  9
$PUCSORGFRONT
 10
0.0
 20
0.0
 30
0.0
  9
$PUCSORGBACK
 10
0.0
 20
0.0
 30
0.0
  9
$USERI1
 70
0
  9
$USERI2
 70
0
  9
$USERI3
 70
0
  9
$USERI4
 70
0
  9
$USERI5
 70
0
  9
$USERR1
 40
0.0
  9
$USERR2
 40
0.0
  9
$USERR3
 40
0.0
  9
$USERR4
 40
0.0
  9
$USERR5
 40
0.0
  9
$WORLDVIEW
 70
1
  9
$SHADEDGE
 70
3
  9
$SHADEDIF
 70
70
  9
$TILEMODE
 70
1
  9
$MAXACTVP
 70
64
  9
$PINSBASE
 10
0.0
 20
0.0
 30
0.0
  9
$PLIMCHECK
 70
0
  9
$PEXTMIN
 10
1e+20
 20
1e+20
 30
1e+20
  9
$PEXTMAX
 10
-1e+20
 20
-1e+20
 30
-1e+20
  9
$PLIMMIN
 10
0.0
 20
0.0
  9
$PLIMMAX
 10
420.0
 20
297.0
  9
$UNITMODE
 70
0
  9
$VISRETAIN
 70
1
  9
$PLINEGEN
 70
0
  9
$PSLTSCALE
 70
1
  9
$TREEDEPTH
 70
3020
  9
$CMLSTYLE
  2
Standard
  9
$CMLJUST
 70
0
  9
$CMLSCALE
 40
20.0
  9
$PROXYGRAPHICS
 70
1
  9
$MEASUREMENT
 70
1
  9
$CELWEIGHT
370
-1
  9
$ENDCAPS
280
0
  9
$JOINSTYLE
280
0
  9
$LWDISPLAY
290
0
  9
$INSUNITS
 70
6
  9
$HYPERLINKBASE
  1

  9
$STYLESHEET
  1

  9
$XEDIT
290
1
  9
$CEPSNTYPE
380
0
  9
$PSTYLEMODE
290
1
  9
$FINGERPRINTGUID
  2
{F61E6192-F3D2-4036-A3DB-670D9C272EE7}
  9
$VERSIONGUID
  2
{12F1CB91-009F-4FB8-9EAC-1D4D6E06EB8E}
  9
$EXTNAMES
290
1
  9
$PSVPSCALE
 40
0.0
  9
$OLESTARTUP
290
0
  9
$SORTENTS
280
127
  9
$INDEXCTL
280
0
  9
$HIDETEXT
280
1
  9
$XCLIPFRAME
290
1
  9
$HALOGAP
280
0
  9
$OBSCOLOR
 70
257
  9
$OBSLTYPE
280
0
  9
$INTERSECTIONDISPLAY
280
0
  9
$INTERSECTIONCOLOR
 70
257
  9
$DIMASSOC
280
2
  9
$PROJECTNAME
  1

  9
$CAMERADISPLAY
290
0
  9
$LENSLENGTH
 40
50.0
  9
$CAMERAHEIGHT
 40
0.0
  9
$STEPSPERSEC
 40
24.0
  9
$STEPSIZE
 40
100.0
  9
$3DDWFPREC
 40
2.0
  9
$PSOLWIDTH
 40
0.005
  9
$PSOLHEIGHT
 40
0.08
  9
$LOFTANG1
 40
1.570796326795
  9
$LOFTANG2
 40
1.570796326795
  9
$LOFTMAG1
 40
0.0
  9
$LOFTMAG2
 40
0.0
  9
$LOFTPARAM
 70
7
  9
$LOFTNORMALS
280
1
  9
$LATITUDE
 40
37.795
  9
$LONGITUDE
 40
-122.394
  9
$NORTHDIRECTION
 40
0.0
  9
$TIMEZONE
 70
-8000
  9
$LIGHTGLYPHDISPLAY
280
1
  9
$TILEMODELIGHTSYNCH
280
1
  9
$CMATERIAL
347
20
  9
$SOLIDHIST
280
0
  9
$SHOWHIST
280
1
  9
$DWFFRAME
280
2
  9
$DGNFRAME
280
2
  9
$REALWORLDSCALE
290
1
  9
$INTERFERECOLOR
 62
256
  9
$CSHADOW
280
0
  9
$SHADOWPLANELOCATION
 40
0.0
  0
ENDSEC
  0
SECTION
  2
CLASSES
  0
CLASS
  1
ACDBDICTIONARYWDFLT
  2
AcDbDictionaryWithDefault
  3
ObjectDBX Classes
 90
0
 91
0
280
0
281
0
  0
CLASS
  1
SUN
  2
AcDbSun
  3
SCENEOE
 90
1153
 91
0
280
0
281
0
  0
CLASS
  1
VISUALSTYLE
  2
AcDbVisualStyle
  3
ObjectDBX Classes
 90
4095
 91
0
280
0
281
0
  0
CLASS
  1
MATERIAL
  2
AcDbMaterial
  3
ObjectDBX Classes
 90
1153
 91
0
280
0
281
0
  0
CLASS
  1
SCALE
  2
AcDbScale
  3
ObjectDBX Classes
 90
1153
 91
0
280
0
281
0
  0
CLASS
  1
TABLESTYLE
  2
AcDbTableStyle
  3
ObjectDBX Classes
 90
4095
 91
0
280
0
281
0
  0
CLASS
  1
MLEADERSTYLE
  2
AcDbMLeaderStyle
  3
ACDB_MLEADERSTYLE_CLASS
 90
4095
 91
0
280
0
281
0
  0
CLASS
  1
DICTIONARYVAR
  2
AcDbDictionaryVar
  3
ObjectDBX Classes
 90
0
 91
0
280
0
281
0
  0
CLASS
  1
CELLSTYLEMAP
  2
AcDbCellStyleMap
  3
ObjectDBX Classes
 90
1152
 91
0
280
0
281
0
  0
CLASS
  1
MENTALRAYRENDERSETTINGS
  2
AcDbMentalRayRenderSettings
  3
SCENEOE
 90
1024
 91
0
280
0
281
0
  0
CLASS
  1
ACDBDETAILVIEWSTYLE
  2
AcDbDetailViewStyle
  3
ObjectDBX Classes
 90
1025
 91
0
280
0
281
0
  0
CLASS
  1
ACDBSECTIONVIEWSTYLE
  2
AcDbSectionViewStyle
  3
ObjectDBX Classes
 90
1025
 91
0
280
0
281
0
  0
CLASS
  1
RASTERVARIABLES
  2
AcDbRasterVariables
  3
ISM
 90
0
 91
0
280
0
281
0
  0
CLASS
  1
ACDBPLACEHOLDER
  2
AcDbPlaceHolder
  3
ObjectDBX Classes
 90
0
 91
0
280
0
281
0
  0
CLASS
  1
LAYOUT
  2
AcDbLayout
  3
ObjectDBX Classes
 90
0
 91
0
280
0
281
0
  0
ENDSEC
  0
SECTION
  2
TABLES
  0
TABLE
  2
VPORT
  5
8
330
0
100
AcDbSymbolTable
 70
1
  0
VPORT
  5
23
330
8
100
AcDbSymbolTableRecord
100
AcDbViewportTableRecord
  2
*Active
 70
0
 10
0.0
 20
0.0
 11
1.0
 21
1.0
 12
0.0
 22
0.0
 13
0.0
 23
0.0
 14
0.5
 24
0.5
 15
0.5
 25
0.5
 16
0.0
 26
0.0
 36
1.0
 17
0.0
 27
0.0
 37
0.0
 40
1000.0
 41
1.34
 42
50.0
 43
0.0
 44
0.0
 50
0.0
 51
0.0
 71
0
 72
1000
 73
1
 74
3
 75
0
 76
0
 77
0
 78
0
281
0
 65
0
146
0.0
  0
ENDTAB
  0
TABLE
  2
LTYPE
  5
2
330
0
100
AcDbSymbolTable
 70
21
  0
LTYPE
  5
24
330
2
100
AcDbSymbolTableRecord
100
AcDbLinetypeTableRecord
  2
ByBlock
 70
0
  3

 72
65
 73
0
 40
0.0
  0
LTYPE
  5
25
330
2
100
AcDbSymbolTableRecord
100
AcDbLinetypeTableRecord
  2
ByLayer
 70
0
  3

 72
65
 73
0
 40
0.0
  0
LTYPE
  5
26
330
2
100
AcDbSymbolTableRecord
100
AcDbLinetypeTableRecord
  2
Continuous
 70
0
  3

 72
65
 73
0
 40
0.0
  0
LTYPE
  5
2F
330
2
100
AcDbSymbolTableRecord
100
AcDbLinetypeTableRecord
  2
CENTER
 70
0
  3
Center ____ _ ____ _ ____ _ ____ _ ____ _ ____
 72
65
 73
4
 40
5.08
 49
3.175
 74
0
 49
-0.635
 74
0
 49
0.635
 74
0
 49
-0.635
 74
0
  0
LTYPE
  5
30
330
2
100
AcDbSymbolTableRecord
100
AcDbLinetypeTableRecord
  2
CENTERX2
 70
0
  3
Center (2x) ________  __  ________  __  ________
 72
65
 73
4
 40
8.89
 49
6.35
 74
0
 49
-0.635
 74
0
 49
1.27
 74
0
 49
-0.635
 74
0
  0
LTYPE
  5
31
330
2
100
AcDbSymbolTableRecord
100
AcDbLinetypeTableRecord
  2
CENTER2
 70
0
  3
Center (.5x) ____ _ ____ _ ____ _ ____ _ ____
 72
65
 73
4
 40
2.54
 49
1.587
 74
0
 49
-0.318
 74
0
 49
0.318
 74
0
 49
-0.318
 74
0
  0
LTYPE
  5
32
330
2
100
AcDbSymbolTableRecord
100
AcDbLinetypeTableRecord
  2
DASHED
 70
0
  3
Dashed __ __ __ __ __ __ __ __ __ __ __ __ __ _
 72
65
 73
2
 40
1.524
 49
1.27
 74
0
 49
-0.254
 74
0
  0
LTYPE
  5
33
330
2
100
AcDbSymbolTableRecord
100
AcDbLinetypeTableRecord
  2
DASHEDX2
 70
0
  3
Dashed (2x) ____  ____  ____  ____  ____  ____
 72
65
 73
2
 40
3.048
 49
2.54
 74
0
 49
-0.508
 74
0
  0
LTYPE
  5
34
330
2
100
AcDbSymbolTableRecord
100
AcDbLinetypeTableRecord
  2
DASHED2
 70
0
  3
Dashed (.5x) _ _ _ _ _ _ _ _ _ _ _ _ _ _
 72
65
 73
2
 40
0.762
 49
0.635
 74
0
 49
-0.127
 74
0
  0
LTYPE
  5
35
330
2
100
AcDbSymbolTableRecord
100
AcDbLinetypeTableRecord
  2
PHANTOM
 70
0
  3
Phantom ______  __  __  ______  __  __  ______
 72
65
 73
6
 40
6.35
 49
3.175
 74
0
 49
-0.635
 74
0
 49
0.635
 74
0
 49
-0.635
 74
0
 49
0.635
 74
0
 49
-0.635
 74
0
  0
LTYPE
  5
36
330
2
100
AcDbSymbolTableRecord
100
AcDbLinetypeTableRecord
  2
PHANTOMX2
 70
0
  3
Phantom (2x)____________    ____    ____    ____________
 72
65
 73
6
 40
10.795
 49
6.35
 74
0
 49
-0.635
 74
0
 49
1.27
 74
0
 49
-0.635
 74
0
 49
1.27
 74
0
 49
-0.635
 74
0
  0
LTYPE
  5
37
330
2
100
AcDbSymbolTableRecord
100
AcDbLinetypeTableRecord
  2
PHANTOM2
 70
0
  3
Phantom (.5x) ___ _ _ ___ _ _ ___ _ _ ___ _ _ ___
 72
65
 73
6
 40
3.175
 49
1.587
 74
0
 49
-0.318
 74
0
 49
0.318
 74
0
 49
-0.318
 74
0
 49
0.318
 74
0
 49
-0.318
 74
0
  0
LTYPE
  5
38
330
2
100
AcDbSymbolTableRecord
100
AcDbLinetypeTableRecord
  2
DASHDOT
 70
0
  3
Dash dot __ . __ . __ . __ . __ . __ . __ . __
 72
65
 73
4
 40
3.556
 49
2.54
 74
0
 49
-0.508
 74
0
 49
0.0
 74
0
 49
-0.508
 74
0
  0
LTYPE
  5
39
330
2
100
AcDbSymbolTableRecord
100
AcDbLinetypeTableRecord
  2
DASHDOTX2
 70
0
  3
Dash dot (2x) ____  .  ____  .  ____  .  ____
 72
65
 73
4
 40
6.096
 49
5.08
 74
0
 49
-0.508
 74
0
 49
0.0
 74
0
 49
-0.508
 74
0
  0
LTYPE
  5
3A
330
2
100
AcDbSymbolTableRecord
100
AcDbLinetypeTableRecord
  2
DASHDOT2
 70
0
  3
Dash dot (.5x) _ . _ . _ . _ . _ . _ . _ . _
 72
65
 73
4
 40
1.778
 49
1.27
 74
0
 49
-0.254
 74
0
 49
0.0
 74
0
 49
-0.254
 74
0
  0
LTYPE
  5
3B
330
2
100
AcDbSymbolTableRecord
100
AcDbLinetypeTableRecord
  2
DOT
 70
0
  3
Dot .  .  .  .  .  .  .  .  .  .  .  .  .  .  .  .
 72
65
 73
2
 40
0.508
 49
0.0
 74
0
 49
-0.508
 74
0
  0
LTYPE
  5
3C
330
2
100
AcDbSymbolTableRecord
100
AcDbLinetypeTableRecord
  2
DOTX2
 70
0
  3
Dot (2x) .    .    .    .    .    .    .    . 
 72
65
 73
2
 40
1.016
 49
0.0
 74
0
 49
-1.016
 74
0
  0
LTYPE
  5
3D
330
2
100
AcDbSymbolTableRecord
100
AcDbLinetypeTableRecord
  2
DOT2
 70
0
  3
Dot (.5) . . . . . . . . . . . . . . . . . . . 
 72
65
 73
2
 40
0.254
 49
0.0
 74
0
 49
-0.254
 74
0
  0
LTYPE
  5
3E
330
2
100
AcDbSymbolTableRecord
100
AcDbLinetypeTableRecord
  2
DIVIDE
 70
0
  3
Divide __ . . __ . . __ . . __ . . __ . . __
 72
65
 73
6
 40
4.064
 49
2.54
 74
0
 49
-0.508
 74
0
 49
0.0
 74
0
 49
-0.508
 74
0
 49
0.0
 74
0
 49
-0.508
 74
0
  0
LTYPE
  5
3F
330
2
100
AcDbSymbolTableRecord
100
AcDbLinetypeTableRecord
  2
DIVIDEX2
 70
0
  3
Divide (2x) ____  . .  ____  . .  ____  . .  ____
 72
65
 73
6
 40
6.604
 49
5.08
 74
0
 49
-0.508
 74
0
 49
0.0
 74
0
 49
-0.508
 74
0
 49
0.0
 74
0
 49
-0.508
 74
0
  0
LTYPE
  5
40
330
2
100
AcDbSymbolTableRecord
100
AcDbLinetypeTableRecord
  2
DIVIDE2
 70
0
  3
Divide(.5x) _ . _ . _ . _ . _ . _ . _ . _
 72
65
 73
6
 40
2.032
 49
1.27
 74
0
 49
-0.254
 74
0
 49
0.0
 74
0
 49
-0.254
 74
0
 49
0.0
 74
0
 49
-0.254
 74
0
  0
ENDTAB
  0
TABLE
  2
LAYER
  5
1
330
0
100
AcDbSymbolTable
 70
5
  0
LAYER
  5
27
330
1
100
AcDbSymbolTableRecord
100
AcDbLayerTableRecord
  2
0
 70
0
 62
7
  6
Continuous
370
-3
390
13
347
21
  0
LAYER
  5
28
330
1
100
AcDbSymbolTableRecord
100
AcDbLayerTableRecord
  2
Defpoints
 70
0
 62
7
  6
Continuous
290
0
370
-3
390
13
347
21
  0
LAYER
  5
8A
330
1
100
AcDbSymbolTableRecord
100
AcDbLayerTableRecord
  2
Layer
 70
0
 62
1
  6
Continuous
370
50
390
13
347
21
  0
LAYER
  5
8B
330
1
100
AcDbSymbolTableRecord
100
AcDbLayerTableRecord
  2
NumLabel
 70
0
 62
1
  6
Continuous
370
15
390
13
347
21
  0
LAYER
  5
B9
330
1
100
AcDbSymbolTableRecord
100
AcDbLayerTableRecord
  2
SplitMark
 70
0
 62
3
  6
Continuous
370
-3
390
13
347
21
  0
ENDTAB
  0
TABLE
  2
STYLE
  5
5
330
0
100
AcDbSymbolTable
 70
26
  0
STYLE
  5
29
330
5
100
AcDbSymbolTableRecord
100
AcDbTextStyleTableRecord
  2
Standard
 70
0
 40
0.0
 41
1.0
 50
0.0
 71
0
 42
2.5
  3
txt
  4

  0
STYLE
  5
41
330
5
100
AcDbSymbolTableRecord
100
AcDbTextStyleTableRecord
  2
OpenSans-Light
 70
0
 40
0.0
 41
1.0
 50
0.0
 71
0
 42
2.5
  3
OpenSans-Light.ttf
  4

  0
STYLE
  5
42
330
5
100
AcDbSymbolTableRecord
100
AcDbTextStyleTableRecord
  2
OpenSans-Light-Italic
 70
0
 40
0.0
 41
1.0
 50
0.0
 71
0
 42
2.5
  3
OpenSans-LightItalic.ttf
  4

  0
STYLE
  5
43
330
5
100
AcDbSymbolTableRecord
100
AcDbTextStyleTableRecord
  2
OpenSans
 70
0
 40
0.0
 41
1.0
 50
0.0
 71
0
 42
2.5
  3
OpenSans-Regular.ttf
  4

  0
STYLE
  5
44
330
5
100
AcDbSymbolTableRecord
100
AcDbTextStyleTableRecord
  2
OpenSans-Italic
 70
0
 40
0.0
 41
1.0
 50
0.0
 71
0
 42
2.5
  3
OpenSans-Italic.ttf
  4

  0
STYLE
  5
45
330
5
100
AcDbSymbolTableRecord
100
AcDbTextStyleTableRecord
  2
OpenSans-SemiBold
 70
0
 40
0.0
 41
1.0
 50
0.0
 71
0
 42
2.5
  3
OpenSans-SemiBold.ttf
  4

  0
STYLE
  5
46
330
5
100
AcDbSymbolTableRecord
100
AcDbTextStyleTableRecord
  2
OpenSans-SemiBoldItalic
 70
0
 40
0.0
 41
1.0
 50
0.0
 71
0
 42
2.5
  3
OpenSans-SemiBoldItalic.ttf
  4

  0
STYLE
  5
47
330
5
100
AcDbSymbolTableRecord
100
AcDbTextStyleTableRecord
  2
OpenSans-Bold
 70
0
 40
0.0
 41
1.0
 50
0.0
 71
0
 42
2.5
  3
OpenSans-Bold.ttf
  4

  0
STYLE
  5
48
330
5
100
AcDbSymbolTableRecord
100
AcDbTextStyleTableRecord
  2
OpenSans-BoldItalic
 70
0
 40
0.0
 41
1.0
 50
0.0
 71
0
 42
2.5
  3
OpenSans-BoldItalic.ttf
  4

  0
STYLE
  5
49
330
5
100
AcDbSymbolTableRecord
100
AcDbTextStyleTableRecord
  2
OpenSans-ExtraBold
 70
0
 40
0.0
 41
1.0
 50
0.0
 71
0
 42
2.5
  3
OpenSans-ExtraBold.ttf
  4

  0
STYLE
  5
4A
330
5
100
AcDbSymbolTableRecord
100
AcDbTextStyleTableRecord
  2
OpenSans-ExtraBoldItalic
 70
0
 40
0.0
 41
1.0
 50
0.0
 71
0
 42
2.5
  3
OpenSans-ExtraBoldItalic.ttf
  4

  0
STYLE
  5
4B
330
5
100
AcDbSymbolTableRecord
100
AcDbTextStyleTableRecord
  2
OpenSansCondensed-Bold
 70
0
 40
0.0
 41
1.0
 50
0.0
 71
0
 42
2.5
  3
OpenSansCondensed-Bold.ttf
  4

  0
STYLE
  5
4C
330
5
100
AcDbSymbolTableRecord
100
AcDbTextStyleTableRecord
  2
OpenSansCondensed-Light
 70
0
 40
0.0
 41
1.0
 50
0.0
 71
0
 42
2.5
  3
OpenSansCondensed-Light.ttf
  4

  0
STYLE
  5
4D
330
5
100
AcDbSymbolTableRecord
100
AcDbTextStyleTableRecord
  2
OpenSansCondensed-Italic
 70
0
 40
0.0
 41
1.0
 50
0.0
 71
0
 42
2.5
  3
OpenSansCondensed-LightItalic.ttf
  4

  0
STYLE
  5
4E
330
5
100
AcDbSymbolTableRecord
100
AcDbTextStyleTableRecord
  2
LiberationSans
 70
0
 40
0.0
 41
1.0
 50
0.0
 71
0
 42
2.5
  3
LiberationSans-Regular.ttf
  4

  0
STYLE
  5
4F
330
5
100
AcDbSymbolTableRecord
100
AcDbTextStyleTableRecord
  2
LiberationSans-Bold
 70
0
 40
0.0
 41
1.0
 50
0.0
 71
0
 42
2.5
  3
LiberationSans-Bold.ttf
  4

  0
STYLE
  5
50
330
5
100
AcDbSymbolTableRecord
100
AcDbTextStyleTableRecord
  2
LiberationSans-BoldItalic
 70
0
 40
0.0
 41
1.0
 50
0.0
 71
0
 42
2.5
  3
LiberationSans-BoldItalic.ttf
  4

  0
STYLE
  5
51
330
5
100
AcDbSymbolTableRecord
100
AcDbTextStyleTableRecord
  2
LiberationSans-Italic
 70
0
 40
0.0
 41
1.0
 50
0.0
 71
0
 42
2.5
  3
LiberationSans-Italic.ttf
  4

  0
STYLE
  5
52
330
5
100
AcDbSymbolTableRecord
100
AcDbTextStyleTableRecord
  2
LiberationSerif
 70
0
 40
0.0
 41
1.0
 50
0.0
 71
0
 42
2.5
  3
LiberationSerif-Regular.ttf
  4

  0
STYLE
  5
53
330
5
100
AcDbSymbolTableRecord
100
AcDbTextStyleTableRecord
  2
LiberationSerif-Bold
 70
0
 40
0.0
 41
1.0
 50
0.0
 71
0
 42
2.5
  3
LiberationSerif-Bold.ttf
  4

  0
STYLE
  5
54
330
5
100
AcDbSymbolTableRecord
100
AcDbTextStyleTableRecord
  2
LiberationSerif-BoldItalic
 70
0
 40
0.0
 41
1.0
 50
0.0
 71
0
 42
2.5
  3
LiberationSerif-BoldItalic.ttf
  4

  0
STYLE
  5
55
330
5
100
AcDbSymbolTableRecord
100
AcDbTextStyleTableRecord
  2
LiberationSerif-Italic
 70
0
 40
0.0
 41
1.0
 50
0.0
 71
0
 42
2.5
  3
LiberationSerif-Italic.ttf
  4

  0
STYLE
  5
56
330
5
100
AcDbSymbolTableRecord
100
AcDbTextStyleTableRecord
  2
LiberationMono
 70
0
 40
0.0
 41
1.0
 50
0.0
 71
0
 42
2.5
  3
LiberationMono-Regular.ttf
  4

  0
STYLE
  5
57
330
5
100
AcDbSymbolTableRecord
100
AcDbTextStyleTableRecord
  2
LiberationMono-Bold
 70
0
 40
0.0
 41
1.0
 50
0.0
 71
0
 42
2.5
  3
LiberationMono-Bold.ttf
  4

  0
STYLE
  5
58
330
5
100
AcDbSymbolTableRecord
100
AcDbTextStyleTableRecord
  2
LiberationMono-BoldItalic
 70
0
 40
0.0
 41
1.0
 50
0.0
 71
0
 42
2.5
  3
LiberationMono-BoldItalic.ttf
  4

  0
STYLE
  5
59
330
5
100
AcDbSymbolTableRecord
100
AcDbTextStyleTableRecord
  2
LiberationMono-Italic
 70
0
 40
0.0
 41
1.0
 50
0.0
 71
0
 42
2.5
  3
LiberationMono-Italic.ttf
  4

  0
ENDTAB
  0
TABLE
  2
VIEW
  5
7
330
0
100
AcDbSymbolTable
 70
0
  0
ENDTAB
  0
TABLE
  2
UCS
  5
6
330
0
100
AcDbSymbolTable
 70
0
  0
ENDTAB
  0
TABLE
  2
APPID
  5
3
330
0
100
AcDbSymbolTable
 70
3
  0
APPID
  5
2A
330
3
100
AcDbSymbolTableRecord
100
AcDbRegAppTableRecord
  2
ACAD
 70
0
  0
APPID
  5
B6
330
3
100
AcDbSymbolTableRecord
100
AcDbRegAppTableRecord
  2
HATCHBACKGROUNDCOLOR
 70
0
  0
APPID
  5
B7
330
3
100
AcDbSymbolTableRecord
100
AcDbRegAppTableRecord
  2
EZDXF
 70
0
  0
ENDTAB
  0
TABLE
  2
DIMSTYLE
  5
4
330
0
100
AcDbSymbolTable
 70
12
100
AcDbDimStyleTable
  0
DIMSTYLE
105
2B
330
4
100
AcDbSymbolTableRecord
100
AcDbDimStyleTableRecord
  2
Standard
 70
0
 40
1.0
 41
2.5
 42
0.625
 43
3.75
 44
1.25
 45
0.0
 46
0.0
 47
0.0
 48
0.0
 49
2.5
140
2.5
141
2.5
142
0.0
143
0.03937007874
144
1.0
145
0.0
146
1.0
147
0.625
148
0.0
 69
0
 70
0
 71
0
 72
0
 73
0
 74
0
 75
0
 76
0
 77
1
 78
8
 79
3
170
0
171
3
172
1
173
0
174
0
175
0
176
0
177
0
178
0
179
2
271
2
272
2
273
2
274
3
275
0
276
0
277
2
278
44
279
0
280
0
281
0
282
0
283
0
284
8
285
0
286
0
288
0
289
3
290
0
371
-2
372
-2
  0
DIMSTYLE
105
73
330
4
100
AcDbSymbolTableRecord
100
AcDbDimStyleTableRecord
  2
EZDXF
 70
0
 40
1.0
 41
0.175
 42
0.125
 43
3.75
 44
0.375
 45
0.0
 46
0.0
 47
0.0
 48
0.0
 49
2.5
140
0.25
141
2.5
142
0.0
143
0.03937007874
144
100.0
145
0.0
146
0.5
147
0.1
148
0.0
 69
0
 70
0
 71
0
 72
0
 73
0
 74
0
 75
0
 76
0
 77
1
 78
12
 79
3
170
0
171
3
172
1
173
0
174
0
175
0
176
0
177
0
178
0
179
2
271
2
272
2
273
2
274
3
275
0
276
0
277
2
278
46
279
2
280
0
281
0
282
0
283
0
284
8
285
0
286
0
288
1
289
3
290
0
340
4C
342
74
371
-2
372
-2
  0
DIMSTYLE
105
7C
330
4
100
AcDbSymbolTableRecord
100
AcDbDimStyleTableRecord
  2
EZ_M_100_H25_CM
 70
0
 40
1.0
 41
0.25
 42
0.125
 43
3.75
 44
0.375
 45
0.0
 46
0.0
 47
0.0
 48
0.0
 49
2.5
140
0.25
141
2.5
142
0.125
143
0.03937007874
144
100.0
145
0.0
146
0.5
147
0.1
148
0.0
 69
0
 70
0
 71
0
 72
0
 73
0
 74
0
 75
0
 76
0
 77
1
 78
12
 79
3
170
0
171
3
172
1
173
0
174
0
175
0
176
0
177
0
178
0
179
2
271
2
272
2
273
2
274
3
275
0
276
0
277
2
278
46
279
2
280
0
281
0
282
0
283
0
284
8
285
0
286
0
288
1
289
3
290
0
340
4C
371
-2
372
-2
  0
DIMSTYLE
105
7D
330
4
100
AcDbSymbolTableRecord
100
AcDbDimStyleTableRecord
  2
EZ_M_50_H25_CM
 70
0
 40
1.0
 41
0.125
 42
0.0625
 43
3.75
 44
0.1875
 45
0.0
 46
0.0
 47
0.0
 48
0.0
 49
2.5
140
0.125
141
2.5
142
0.0625
143
0.03937007874
144
100.0
145
0.0
146
0.5
147
0.05
148
0.0
 69
0
 70
0
 71
0
 72
0
 73
0
 74
0
 75
0
 76
0
 77
1
 78
12
 79
3
170
0
171
3
172
1
173
0
174
0
175
0
176
0
177
0
178
0
179
2
271
2
272
2
273
2
274
3
275
0
276
0
277
2
278
46
279
2
280
0
281
0
282
0
283
0
284
8
285
0
286
0
288
1
289
3
290
0
340
4C
371
-2
372
-2
  0
DIMSTYLE
105
7E
330
4
100
AcDbSymbolTableRecord
100
AcDbDimStyleTableRecord
  2
EZ_M_25_H25_CM
 70
0
 40
1.0
 41
0.0625
 42
0.03125
 43
3.75
 44
0.09375
 45
0.0
 46
0.0
 47
0.0
 48
0.0
 49
2.5
140
0.0625
141
2.5
142
0.03125
143
0.03937007874
144
100.0
145
0.0
146
0.5
147
0.025
148
0.0
 69
0
 70
0
 71
0
 72
0
 73
0
 74
0
 75
0
 76
0
 77
1
 78
12
 79
3
170
0
171
3
172
1
173
0
174
0
175
0
176
0
177
0
178
0
179
2
271
2
272
2
273
2
274
3
275
0
276
0
277
2
278
46
279
2
280
0
281
0
282
0
283
0
284
8
285
0
286
0
288
1
289
3
290
0
340
4C
371
-2
372
-2
  0
DIMSTYLE
105
7F
330
4
100
AcDbSymbolTableRecord
100
AcDbDimStyleTableRecord
  2
EZ_M_20_H25_CM
 70
0
 40
1.0
 41
0.05
 42
0.025
 43
3.75
 44
0.07500000000000001
 45
0.0
 46
0.0
 47
0.0
 48
0.0
 49
2.5
140
0.05
141
2.5
142
0.025
143
0.03937007874
144
100.0
145
0.0
146
0.5
147
0.020000000000000004
148
0.0
 69
0
 70
0
 71
0
 72
0
 73
0
 74
0
 75
0
 76
0
 77
1
 78
12
 79
3
170
0
171
3
172
1
173
0
174
0
175
0
176
0
177
0
178
0
179
2
271
2
272
2
273
2
274
3
275
0
276
0
277
2
278
46
279
2
280
0
281
0
282
0
283
0
284
8
285
0
286
0
288
1
289
3
290
0
340
4C
371
-2
372
-2
  0
DIMSTYLE
105
80
330
4
100
AcDbSymbolTableRecord
100
AcDbDimStyleTableRecord
  2
EZ_M_10_H25_CM
 70
0
 40
1.0
 41
0.025
 42
0.0125
 43
3.75
 44
0.037500000000000006
 45
0.0
 46
0.0
 47
0.0
 48
0.0
 49
2.5
140
0.025
141
2.5
142
0.0125
143
0.03937007874
144
100.0
145
0.0
146
0.5
147
0.010000000000000002
148
0.0
 69
0
 70
0
 71
0
 72
0
 73
0
 74
0
 75
0
 76
0
 77
1
 78
12
 79
3
170
0
171
3
172
1
173
0
174
0
175
0
176
0
177
0
178
0
179
2
271
2
272
2
273
2
274
3
275
0
276
0
277
2
278
46
279
2
280
0
281
0
282
0
283
0
284
8
285
0
286
0
288
1
289
3
290
0
340
4C
371
-2
372
-2
  0
DIMSTYLE
105
81
330
4
100
AcDbSymbolTableRecord
100
AcDbDimStyleTableRecord
  2
EZ_M_5_H25_CM
 70
0
 40
1.0
 41
0.0125
 42
0.00625
 43
3.75
 44
0.018750000000000003
 45
0.0
 46
0.0
 47
0.0
 48
0.0
 49
2.5
140
0.0125
141
2.5
142
0.00625
143
0.03937007874
144
100.0
145
0.0
146
0.5
147
0.005000000000000001
148
0.0
 69
0
 70
0
 71
0
 72
0
 73
0
 74
0
 75
0
 76
0
 77
1
 78
12
 79
3
170
0
171
3
172
1
173
0
174
0
175
0
176
0
177
0
178
0
179
2
271
2
272
2
273
2
274
3
275
0
276
0
277
2
278
46
279
2
280
0
281
0
282
0
283
0
284
8
285
0
286
0
288
1
289
3
290
0
340
4C
371
-2
372
-2
  0
DIMSTYLE
105
82
330
4
100
AcDbSymbolTableRecord
100
AcDbDimStyleTableRecord
  2
EZ_M_1_H25_CM
 70
0
 40
1.0
 41
0.0025
 42
0.00125
 43
3.75
 44
0.00375
 45
0.0
 46
0.0
 47
0.0
 48
0.0
 49
2.5
140
0.0025
141
2.5
142
0.00125
143
0.03937007874
144
100.0
145
0.0
146
0.5
147
0.001
148
0.0
 69
0
 70
0
 71
0
 72
0
 73
0
 74
0
 75
0
 76
0
 77
1
 78
12
 79
3
170
0
171
3
172
1
173
0
174
0
175
0
176
0
177
0
178
0
179
2
271
2
272
2
273
2
274
3
275
0
276
0
277
2
278
46
279
2
280
0
281
0
282
0
283
0
284
8
285
0
286
0
288
1
289
3
290
0
340
4C
371
-2
372
-2
  0
DIMSTYLE
105
83
330
4
100
AcDbSymbolTableRecord
100
AcDbDimStyleTableRecord
  2
EZ_RADIUS
 70
0
 40
1.0
 41
0.25
 42
0.125
 43
3.75
 44
0.375
 45
0.0
 46
0.0
 47
0.0
 48
0.0
 49
2.5
140
0.25
141
0.0
142
0.0
143
0.03937007874
144
100.0
145
0.0
146
0.5
147
0.1
148
0.0
 69
0
 70
0
 71
0
 72
0
 73
0
 74
0
 75
0
 76
0
 77
1
 78
12
 79
3
170
0
171
3
172
0
173
0
174
0
175
0
176
0
177
0
178
0
179
2
271
2
272
2
273
2
274
3
275
0
276
0
277
2
278
46
279
1
280
0
281
0
282
0
283
0
284
8
285
0
286
0
288
1
289
3
290
0
340
4C
342
84
371
-2
372
-2
  0
DIMSTYLE
105
88
330
4
100
AcDbSymbolTableRecord
100
AcDbDimStyleTableRecord
  2
EZ_RADIUS_INSIDE
 70
0
 40
1.0
 41
0.25
 42
0.125
 43
3.75
 44
0.375
 45
0.0
 46
0.0
 47
0.0
 48
0.0
 49
2.5
140
0.25
141
0.0
142
0.0
143
0.03937007874
144
100.0
145
0.0
146
0.5
147
0.1
148
0.0
 69
0
 70
0
 71
0
 72
0
 73
0
 74
0
 75
0
 76
0
 77
0
 78
12
 79
3
170
0
171
3
172
0
173
0
174
1
175
0
176
0
177
0
178
0
179
2
271
2
272
2
273
2
274
3
275
0
276
0
277
2
278
46
279
0
280
0
281
0
282
0
283
0
284
8
285
0
286
0
288
1
289
0
290
0
340
4C
342
84
371
-2
372
-2
  0
DIMSTYLE
105
89
330
4
100
AcDbSymbolTableRecord
100
AcDbDimStyleTableRecord
  2
EZ_CURVED
 70
0
 40
1.0
 41
0.25
 42
0.125
 43
3.75
 44
0.375
 45
0.0
 46
0.0
 47
0.0
 48
0.0
 49
2.5
140
0.25
141
2.5
142
0.0
143
0.03937007874
144
100.0
145
0.0
146
0.5
147
0.1
148
0.0
 69
0
 70
0
 71
0
 72
0
 73
0
 74
0
 75
0
 76
0
 77
1
 78
12
 79
2
 90
2
170
0
171
3
172
1
173
0
174
0
175
0
176
0
177
0
178
0
179
2
271
2
272
2
273
2
274
3
275
0
276
0
277
2
278
46
279
2
280
0
281
0
282
0
283
0
284
8
285
0
286
0
288
1
289
3
290
0
340
4C
371
-2
372
-2
  0
ENDTAB
  0
TABLE
  2
BLOCK_RECORD
  5
9
330
0
100
AcDbSymbolTable
 70
5
  0
BLOCK_RECORD
  5
17
330
9
100
AcDbSymbolTableRecord
100
AcDbBlockTableRecord
  2
*Model_Space
340
1A
 70
0
280
1
281
0
  0
BLOCK_RECORD
  5
1B
330
9
100
AcDbSymbolTableRecord
100
AcDbBlockTableRecord
  2
*Paper_Space
340
1E
 70
0
280
1
281
0
  0
BLOCK_RECORD
  5
74
330
9
100
AcDbSymbolTableRecord
100
AcDbBlockTableRecord
  2
_ARCHTICK
340
0
 70
0
280
1
281
0
  0
BLOCK_RECORD
  5
78
330
9
100
AcDbSymbolTableRecord
100
AcDbBlockTableRecord
  2
_CLOSEDFILLED
340
0
 70
0
280
1
281
0
  0
BLOCK_RECORD
  5
84
330
9
100
AcDbSymbolTableRecord
100
AcDbBlockTableRecord
  2
_CLOSEDBLANK
340
0
 70
0
280
1
281
0
  0
ENDTAB
  0
ENDSEC
  0
SECTION
  2
BLOCKS
  0
BLOCK
  5
18
330
17
100
AcDbEntity
  8
0
100
AcDbBlockBegin
  2
*Model_Space
 70
0
 10
0.0
 20
0.0
 30
0.0
  3
*Model_Space
  1

  0
ENDBLK
  5
19
330
17
100
AcDbEntity
  8
0
100
AcDbBlockEnd
  0
BLOCK
  5
1C
330
1B
100
AcDbEntity
  8
0
100
AcDbBlockBegin
  2
*Paper_Space
 70
0
 10
0.0
 20
0.0
 30
0.0
  3
*Paper_Space
  1

  0
ENDBLK
  5
1D
330
1B
100
AcDbEntity
  8
0
100
AcDbBlockEnd
  0
BLOCK
  5
75
330
74
100
AcDbEntity
  8
0
100
AcDbBlockBegin
  2
_ARCHTICK
 70
0
 10
0.0
 20
0.0
 30
0.0
  3
_ARCHTICK
  1

  0
LWPOLYLINE
  5
77
330
74
100
AcDbEntity
  8
0
  6
BYBLOCK
 62
0
100
AcDbPolyline
 90
2
 70
0
 43
0.15
 10
-0.5
 20
-0.5
 10
0.5
 20
0.5
  0
ENDBLK
  5
76
330
74
100
AcDbEntity
  8
0
100
AcDbBlockEnd
  0
BLOCK
  5
79
330
78
100
AcDbEntity
  8
0
100
AcDbBlockBegin
  2
_CLOSEDFILLED
 70
0
 10
0.0
 20
0.0
 30
0.0
  3
_CLOSEDFILLED
  1

  0
SOLID
  5
7B
330
78
100
AcDbEntity
  8
0
  6
BYBLOCK
 62
0
100
AcDbTrace
 10
-1.0
 20
0.16439898372402537
 30
0.0
 11
0.0
 21
0.0
 31
0.0
 12
-1.0
 22
-0.16439898372402537
 32
0.0
 13
-1.0
 23
-0.16439898372402537
 33
0.0
  0
ENDBLK
  5
7A
330
78
100
AcDbEntity
  8
0
100
AcDbBlockEnd
  0
BLOCK
  5
85
330
84
100
AcDbEntity
  8
0
100
AcDbBlockBegin
  2
_CLOSEDBLANK
 70
0
 10
0.0
 20
0.0
 30
0.0
  3
_CLOSEDBLANK
  1

  0
LWPOLYLINE
  5
87
330
84
100
AcDbEntity
  8
0
  6
BYBLOCK
 62
0
100
AcDbPolyline
 90
3
 70
1
 10
-1.0
 20
0.16439898372402537
 10
0.0
 20
0.0
 10
-1.0
 20
-0.16439898372402537
  0
ENDBLK
  5
86
330
84
100
AcDbEntity
  8
0
100
AcDbBlockEnd
  0
ENDSEC
  0
SECTION
  2
ENTITIES
  0
LWPOLYLINE
  5
8C
330
17
100
AcDbEntity
  8
Layer
100
AcDbPolyline
 90
261
 70
1
 10
730.1608646105739
 20
135.42867359957376
 10
727.4550740350901
 20
136.40403166838558
 10
723.0473730039762
 20
137.98628498273388
 10
718.2047586095185
 20
139.70855643473698
 10
712.9232219176937
 20
141.55141605423873
 10
707.1786595466144
 20
143.51248024595
 10
701.0055485931671
 20
145.6170260652364
 10
694.4725063236767
 20
147.85671959042926
 10
687.6517455565171
 20
150.21526174569368
 10
680.601268033013
 20
152.67397492935407
 10
673.3755916536497
 20
155.21418885629424
 10
666.0118731818358
 20
157.82222078158077
 10
658.541623421959
 20
160.48268636954364
 10
650.9906744395794
 20
163.18531830094634
 10
643.37548094974
 20
165.91992213913665
 10
635.7173723856536
 20
168.67436564905276
 10
628.0382622738744
 20
171.43886116087438
 10
620.3586365690544
 20
174.20157735118687
 10
612.6915344681005
 20
176.95330722687726
 10
605.0471402395451
 20
179.688509811652
 10
597.4346293347207
 20
182.40027414129315
 10
589.855586804309
 20
185.0836044427454
 10
582.3113173546001
 20
187.73587359319754
 10
574.8055172165732
 20
190.35326528565287
 10
567.3395846265335
 20
192.93113615754788
 10
559.9122532098403
 20
195.4666152429467
 10
552.9284615182212
 20
197.8210913437187
 10
552.6089939453407
 20
196.87349413504947
 10
552.2088086777636
 20
197.0084249773555
 10
544.8661807810029
 20
199.44877762723988
 10
537.561854576806
 20
201.83644075833146
 10
530.2903777625027
 20
204.17016353460602
 10
523.0490079680205
 20
206.4490635783253
 10
515.8347999073508
 20
208.67116529340686
 10
508.64192662473965
 20
210.83533271499675
 10
501.4646397163449
 20
212.942041891091
 10
494.29999745408657
 20
214.9915249757959
 10
487.1457934886748
 20
216.98291186758075
 10
479.99782018375413
 20
218.9157213143491
 10
472.8516714191745
 20
220.79042953608183
 10
465.70572930973304
 20
222.60789932614875
 10
458.55958509667175
 20
224.36755788691212
 10
451.4109048606209
 20
226.06858872700994
 10
444.2565884416538
 20
227.71158081186536
 10
437.09591677511526
 20
229.2973502678518
 10
429.9298821816842
 20
230.8254514049188
 10
422.75746418147526
 20
232.29510773178592
 10
415.57693425083363
 20
233.70652197326217
 10
408.3875829228698
 20
235.0603848552754
 10
401.1911043853895
 20
236.35670515215435
 10
393.9879211343856
 20
237.5945271785548
 10
386.77661720565146
 20
238.77367629628705
 10
379.5571090914799
 20
239.89493895186945
 10
372.3311927067687
 20
240.95803861643037
 10
365.0989976405019
 20
241.96188612340933
 10
357.8571464255116
 20
242.9059316334086
 10
350.6023233736666
 20
243.7916951746683
 10
343.3359879997409
 20
244.62079968499606
 10
336.06146317441437
 20
245.39302306833994
 10
328.7795777481254
 20
246.10737873190723
 10
321.4893632760539
 20
246.7640068413078
 10
314.19277424861383
 20
247.36436611468127
 10
306.89495570255866
 20
247.9084130618096
 10
299.59913608683405
 20
248.3945688790854
 10
292.3052905483777
 20
248.82189225088842
 10
285.0147625917624
 20
249.19131159873672
 10
277.7323357458823
 20
249.5026733248594
 10
270.461695355945
 20
249.7545184928002
 10
263.20270616388905
 20
249.94517659091957
 10
255.95583689311118
 20
250.0751996157804
 10
248.72555031529168
 20
250.14476032617847
 10
241.51571108595587
 20
250.15224665451927
 10
234.32690561212985
 20
250.09586150803597
 10
227.1593216386603
 20
249.97566403812783
 10
220.01752289636494
 20
249.79198236725477
 10
212.90625598895474
 20
249.54330542364812
 10
205.8262346976107
 20
249.22744785862452
 10
198.77859381960843
 20
248.84440973389835
 10
191.76841053673485
 20
248.39458754842082
 10
184.80131421181272
 20
247.87627273636727
 10
177.87841208966017
 20
247.28715133364295
 10
171.00206096884796
 20
246.62768215774153
 10
164.17928845282484
 20
245.8981773135592
 10
157.41548243359628
 20
245.09639658012952
 10
150.71260115619637
 20
244.2207605468108
 10
144.0757255363723
 20
243.2724240448801
 10
137.51332969300697
 20
242.25122512987477
 10
131.03077954549568
 20
241.15547018438193
 10
124.63271035319201
 20
239.98637072936356
 10
118.33254131814343
 20
238.74874587428167
 10
112.14625698809505
 20
237.4433446859601
 10
106.08341819355186
 20
236.06934006596327
 10
100.15479121531942
 20
234.63168257688247
 10
94.37983960999401
 20
233.1374480151937
 10
88.77577274231578
 20
231.5890789948509
 10
83.35448828215226
 20
229.99131483930645
 10
78.13260164643614
 20
228.3557527856378
 10
73.13046836313026
 20
226.6926944057007
 10
68.36163454532442
 20
225.00844166594075
 10
63.83505543759938
 20
223.31410420558933
 10
59.56131461753765
 20
221.6238546041294
 10
55.5474357753603
 20
219.94686827795476
 10
51.7920102031203
 20
218.28962008072907
 10
48.28981222636631
 20
216.66154576539952
 10
45.03510947601956
 20
215.07117196742203
 10
42.018865678788444
 20
213.5214842067042
 10
39.227407917965195
 20
212.01249945335076
 10
36.64499111310269
 20
210.5457063482902
 10
34.25727647571992
 20
209.12365501426217
 10
32.051161293850384
 20
207.7460244034821
 10
30.012971579120347
 20
206.40969599589553
 10
28.128997855177545
 20
205.1114917464788
 10
26.386149331771094
 20
203.84937895618017
 10
24.773854717712027
 20
202.62272783093897
 10
23.283459942640206
 20
201.4292584693312
 10
21.906830140865736
 20
200.26467819200641
 10
20.633806043686945
 20
199.1229898465568
 10
19.453306916760482
 20
198.0020365880805
 10
18.354471810949747
 20
196.9024001219949
 10
17.32947517441727
 20
195.82891609116433
 10
16.3743497719085
 20
194.78540946359212
 10
15.489795754759086
 20
193.7750753200665
 10
14.677898669353226
 20
192.79432950051904
 10
13.94024553942819
 20
191.83741870547206
 10
13.275856062874652
 20
190.89610191886868
 10
12.680115798100587
 20
189.96213737761133
 10
12.146991866458961
 20
189.03316580119713
 10
11.670120284971802
 20
188.1103776901233
 10
11.245410243134643
 20
187.19991707272345
 10
10.871189229466438
 20
186.30665620723286
 10
10.548199147400283
 20
185.43484440284638
 10
10.278211205896866
 20
184.58495957679273
 10
10.062505164146387
 20
183.7541402398714
 10
9.901042149355874
 20
182.93926111976245
 10
9.792309538563984
 20
182.1377145346488
 10
9.730360143243786
 20
181.26976824328378
 10
9.72212083841481
 20
180.5605996600729
 10
9.760798369784766
 20
179.76871248188007
 10
9.85422925323445
 20
178.981580161051
 10
10.009089094450758
 20
178.20260539526464
 10
10.234148153798117
 20
177.43022469372414
 10
10.537381443360402
 20
176.66141478889955
 10
10.922305779696842
 20
175.8955466258886
 10
11.386924938809216
 20
175.13517035357455
 10
11.925884126886842
 20
174.38531706577933
 10
12.535426939257377
 20
173.65073207915376
 10
13.215158675325483
 20
172.93501617722896
 10
13.968648940535275
 20
172.23952318951376
 10
14.799595947933256
 20
171.56409627520176
 10
15.710407264663274
 20
170.907108588139
 10
16.700112970585906
 20
170.26664677110261
 10
17.767767787860066
 20
169.6406428455913
 10
18.912328147811934
 20
169.02816807678116
 10
20.13715288588031
 20
168.42884294058754
 10
21.447261392375935
 20
167.8425359566619
 10
22.85102027329168
 20
167.2684879073641
 10
24.356659908517486
 20
166.70444254588628
 10
25.972325457334648
 20
166.14697902791946
 10
27.706894820266655
 20
165.59233845989598
 10
29.569605669333555
 20
165.0372459685089
 10
31.572967417963582
 20
164.4799158288999
 10
33.732428089208696
 20
163.9195225349535
 10
36.06682829037206
 20
163.35517285862522
 10
38.59636284012274
 20
162.78515089812797
 10
41.343155586303624
 20
162.20780256319972
 10
44.330652379542386
 20
161.62248559857284
 10
47.585322509840836
 20
161.03027247931294
 10
51.1357211999557
 20
160.43296134462804
 10
55.00923829038939
 20
159.83135713831905
 10
59.22873367163831
 20
159.2268407982291
 10
63.81153935374036
 20
158.62398323453226
 10
68.7691579259083
 20
158.02933698190876
 10
74.10394209300907
 20
157.44791293880678
 10
79.80334615512817
 20
156.88391441323677
 10
85.8437998944199
 20
156.3446699075031
 10
92.19827175860814
 20
155.8363508080722
 10
98.83293621973263
 20
155.36073301260558
 10
105.70840435255005
 20
154.9203688537175
 10
112.79279348397941
 20
154.51827245051373
 10
120.05888984719269
 20
154.15295194408137
 10
127.47897695642706
 20
153.82270852578557
 10
135.03737168025708
 20
153.52851997426467
 10
142.73101121306857
 20
153.26435131806642
 10
150.53742389950665
 20
153.0155977156195
 10
151.36197254546522
 20
152.99045337269126
 10
151.33149203894365
 20
151.99091801127466
 10
158.37498758276138
 20
151.77612718050608
 10
166.26374759694937
 20
151.55628487574563
 10
174.17932867358195
 20
151.36922250465412
 10
182.1523605628125
 20
151.2135879301241
 10
190.19895898464642
 20
151.07617380763116
 10
198.30378973954555
 20
150.94286717519486
 10
206.43660365155623
 20
150.80652013015373
 10
214.57255900891306
 20
150.67029932287716
 10
222.69373359592734
 20
150.546017220362
 10
230.817017241879
 20
150.44335416025416
 10
238.97229879296924
 20
150.35976651101615
 10
247.1712485609816
 20
150.2841293044816
 10
255.39910325649055
 20
150.20801098455735
 10
263.6434884591573
 20
150.13140324336769
 10
271.8942703480705
 20
150.05627281142415
 10
280.1423184687031
 20
149.98160773887432
 10
288.3755517236808
 20
149.90765791267114
 10
296.5880122666543
 20
149.84039057597525
 10
304.7900509404556
 20
149.7849738167943
 10
312.99292821058236
 20
149.7368682973127
 10
321.1916091828203
 20
149.68411985668678
 10
329.3909684614056
 20
149.6216598100968
 10
337.5910181194747
 20
149.55665232060775
 10
345.78968710552834
 20
149.50006870247395
 10
353.9968514259745
 20
149.45246253790788
 10
362.20822566248364
 20
149.40648181860735
 10
370.4083685355528
 20
149.35909246970692
 10
378.5887134990124
 20
149.3182474796679
 10
386.7559020808658
 20
149.28965587258887
 10
394.91637086110336
 20
149.2665585225659
 10
403.059031544491
 20
149.23310143714198
 10
411.197731694717
 20
149.18268684672586
 10
419.34078829068613
 20
149.12303378357257
 10
427.477615520937
 20
149.06568315283494
 10
435.58426541693086
 20
149.00604742556948
 10
443.6487834409028
 20
148.9292727363017
 10
451.6921614687824
 20
148.82936181817954
 10
459.71805068772755
 20
148.72504931287827
 10
467.7093778693338
 20
148.64358576957864
 10
475.7014989918642
 20
148.59375744384272
 10
483.7068322938686
 20
148.55362382374696
 10
491.7080342283764
 20
148.4947150449221
 10
499.72436538881186
 20
148.40795469770399
 10
507.7669705662273
 20
148.3077906426805
 10
515.8026257419627
 20
148.20709043674717
 10
523.7950780512415
 20
148.09632843276736
 10
531.744696627442
 20
147.9536764682221
 10
539.698589124138
 20
147.770963554212
 10
547.6866639114933
 20
147.5652638493096
 10
555.687162037725
 20
147.35804201991758
 10
563.656461755817
 20
147.1496188166958
 10
571.5651144159681
 20
146.91699519647398
 10
579.4465485051969
 20
146.6412186293456
 10
587.3482097172415
 20
146.32654343636347
 10
595.2768329534098
 20
145.99488798546656
 10
603.1840703434723
 20
145.66208729027832
 10
611.0177762669867
 20
145.31780376547903
 10
618.7722242546679
 20
144.93445753894827
 10
626.4995803376953
 20
144.4938074648787
 10
634.2531997869894
 20
144.00722965113974
 10
642.022957164969
 20
143.50445981700028
 10
649.7368550511103
 20
142.99701116638235
 10
657.3446785727399
 20
142.4665678682118
 10
664.847639622771
 20
141.89819397175557
 10
672.2435515311558
 20
141.29725611888063
 10
679.4998424696009
 20
140.67258551135268
 10
686.5694458492924
 20
140.0284214642255
 10
693.4035823447132
 20
139.36192302259818
 10
699.9706770038788
 20
138.66385194692396
 10
706.2499827894438
 20
137.9441204188978
 10
712.1915542199911
 20
137.23551423122464
 10
717.7278618898195
 20
136.5634366317163
 10
722.8141686385659
 20
135.92694283984895
 10
727.4518459339658
 20
135.32597172111252
 10
730.3027955120118
 20
134.95069430607538
  0
LWPOLYLINE
  5
8D
330
17
100
AcDbEntity
  8
Layer
100
AcDbPolyline
 90
5
 70
0
 10
482.47289190685416
 20
214.1027880052036
 10
478.6115582017131
 20
215.14686751249303
 10
479.6556377090025
 20
219.00820121763405
 10
483.5169714141436
 20
217.9641217103446
 10
482.47289190685416
 20
214.1027880052036
  0
LWPOLYLINE
  5
8E
330
17
100
AcDbEntity
  8
Layer
100
AcDbPolyline
 90
5
 70
0
 10
210.70111462652682
 20
245.4409260951531
 10
206.70509102783603
 20
245.2626134520052
 10
206.52677838468816
 20
249.258637050696
 10
210.52280198337894
 20
249.43694969384387
 10
210.70111462652682
 20
245.4409260951531
  0
LWPOLYLINE
  5
8F
330
17
100
AcDbEntity
  8
Layer
100
AcDbPolyline
 90
5
 70
0
 10
87.44876219107088
 20
227.0277764930058
 10
83.6119700349136
 20
225.89683619818473
 10
82.48102974009255
 20
229.73362835434202
 10
86.31782189624984
 20
230.8645686491631
 10
87.44876219107088
 20
227.0277764930058
  0
LWPOLYLINE
  5
90
330
17
100
AcDbEntity
  8
Layer
100
AcDbPolyline
 90
5
 70
0
 10
25.450631552010822
 20
196.72677774598185
 10
23.962173307003088
 20
195.39092893235494
 10
20.62255127293575
 20
199.1120745448743
 10
22.111009517943483
 20
200.4479233585012
 10
25.450631552010822
 20
196.72677774598185
  0
LWPOLYLINE
  5
91
330
17
100
AcDbEntity
  8
Layer
100
AcDbPolyline
 90
5
 70
0
 10
17.71903436687761
 20
175.62326878069177
 10
19.343043432110317
 20
174.45596652504332
 10
16.424787792989164
 20
170.39594386196154
 10
14.800778727756455
 20
171.56324611761
 10
17.71903436687761
 20
175.62326878069177
  0
LWPOLYLINE
  5
92
330
17
100
AcDbEntity
  8
Layer
100
AcDbPolyline
 90
5
 70
0
 10
113.43432743546626
 20
158.49107174174097
 10
117.42928205034448
 20
158.2902294527103
 10
117.22843976131381
 20
154.29527483783207
 10
113.23348514643558
 20
154.49611712686274
 10
113.43432743546626
 20
158.49107174174097
  0
LINE
  5
93
330
17
100
AcDbEntity
  8
Layer
100
AcDbLine
 10
711.3824534154644
 20
142.07739971361207
 30
0.0
 11
711.0597917714495
 21
141.13088533787254
 31
0.0
  0
LINE
  5
94
330
17
100
AcDbEntity
  8
Layer
100
AcDbLine
 10
710.4876230447343
 20
138.4454405331013
 30
0.0
 11
710.3963500719917
 21
137.44961462238862
 31
0.0
  0
LINE
  5
95
330
17
100
AcDbEntity
  8
Layer
100
AcDbLine
 10
692.4597056226712
 20
148.5527233743949
 30
0.0
 11
692.1364916946227
 21
147.60639744918973
 31
0.0
  0
LINE
  5
96
330
17
100
AcDbEntity
  8
Layer
100
AcDbLine
 10
690.6156903120398
 20
140.63855025782286
 30
0.0
 11
690.5152041839654
 21
139.64361179838698
 31
0.0
  0
LINE
  5
97
330
17
100
AcDbEntity
  8
Layer
100
AcDbLine
 10
617.0880164769716
 20
175.37540585913092
 30
0.0
 11
616.7567561429162
 21
174.4318664635138
 31
0.0
  0
LINE
  5
98
330
17
100
AcDbEntity
  8
Layer
100
AcDbLine
 10
610.786927590215
 20
146.32822723556058
 30
0.0
 11
610.7060331006485
 21
145.33150456522654
 31
0.0
  0
LWPOLYLINE
  5
99
330
17
100
AcDbEntity
  8
Layer
100
AcDbPolyline
 90
300
 70
1
 10
321.6302268430998
 20
200.0
 10
321.62212615744886
 20
200.81883420802555
 10
321.5978276775308
 20
201.63730684191597
 10
321.5573421328703
 20
202.45505648719708
 10
321.5006874007442
 20
203.2717220486461
 10
321.4278884982873
 20
204.08694290974114
 10
321.3389775714455
 20
204.90035909189942
 10
321.2339938807812
 20
205.71161141343342
 10
321.1129837841368
 20
206.5203416481557
 10
320.9760007161644
 20
207.32619268356126
 10
320.8231051647305
 20
208.12880867851848
 10
320.6543646442065
 20
208.92783522039858
 10
320.46985366565605
 20
209.7229194815742
 10
320.2696537039331
 20
210.51371037521807
 10
320.05385316170475
 20
211.2998587103333
 10
319.82254733041555
 20
212.08101734594604
 10
319.575838348209
 20
212.85684134439333
 10
319.31383515482656
 20
213.6269881236378
 10
319.0366534435027
 20
214.39111760854223
 10
318.74441560987816
 20
215.14889238103723
 10
318.4372506979534
 20
215.8999778291155
 10
318.11529434310654
 20
216.64404229458708
 10
317.77868871220045
 20
217.38075721953027
 10
317.42758244080585
 20
218.1097972913736
 10
317.06213056756815
 20
218.83084058654467
 10
316.6824944657467
 20
219.54356871262252
 10
316.28884177195687
 20
220.2476669489308
 10
315.8813463121465
 20
220.9428243855095
 10
315.4601880248391
 20
221.62873406040416
 10
315.02555288167827
 20
222.30509309521145
 10
314.5776328053078
 20
222.9716028288219
 10
314.11662558462393
 20
223.6279689493001
 10
313.6427347874374
 20
224.27390162384484
 10
313.1561696705837
 20
224.90911562677067
 10
312.6571450875211
 20
225.53333046545595
 10
312.14588139345733
 20
226.1462705042003
 10
311.622604348047
 20
226.7476650859375
 10
311.0875450157026
 20
227.3372486517503
 10
310.5409396635626
 20
227.91476085813343
 10
309.9830296571631
 20
228.4799466919542
 10
309.41406135385705
 20
229.03255658305903
 10
308.8342859940301
 20
229.5723465144766
 10
308.24395959015976
 20
230.09907813016892
 10
307.6433428137677
 20
230.6125188402826
 10
307.0327008803142
 20
231.11244192385396
 10
306.4123034320869
 20
231.59862662892277
 10
305.78242441913403
 20
232.07085827000986
 10
305.14334197829584
 20
232.52892832291647
 10
304.4953383103873
 20
232.97263451680234
 10
303.8386995555861
 20
233.40178092350317
 10
303.17371566708135
 20
233.8161780440467
 10
302.50068028303804
 20
234.2156428923302
 10
301.81989059693507
 20
234.59999907592214
 10
301.1316472263328
 20
234.96907687395188
 10
300.43625408012883
 20
235.3227133120538
 10
299.73401822436045
 20
235.66075223433202
 10
299.0252497466128
 20
235.98304437231477
 10
298.31026161909307
 20
236.28944741086673
 10
297.5893695604305
 20
236.57982605103166
 10
296.86289189626433
 20
236.85405206977663
 10
296.1311494186799
 20
237.11200437661148
 10
295.39446524455593
 20
237.3535690670592
 10
294.6531646728851
 20
237.57863947295277
 10
293.90757504113157
 20
237.78711620953698
 10
293.1580255806873
 20
237.9789072193538
 10
292.4048472714935
 20
238.15392781289242
 10
291.6483726958887
 20
238.31210070598578
 10
290.8889358917497
 20
238.45335605393703
 10
290.1268722049904
 20
238.57763148236103
 10
289.3625181414817
 20
238.68487211472706
 10
288.5962112184607
 20
238.7750305965908
 10
287.8282898154922
 20
238.84806711650478
 10
287.05909302504983
 20
238.90394942359785
 10
286.2889605027825
 20
238.9426528418163
 10
285.51823231753195
 20
238.96416028082024
 10
284.74724880116787
 20
238.96846224353007
 10
283.97635039830703
 20
238.95555683032012
 10
283.2058775159824
 20
238.9254497398576
 10
282.4361703733293
 20
238.8781542665861
 10
281.66756885135356
 20
238.81369129485518
 10
280.90041234285036
 20
238.73208928969848
 10
280.1350396025376
 20
238.63338428426422
 10
279.3717885974711
 20
238.51761986390423
 10
278.61099635780846
 20
238.38484714692757
 10
277.8529988279855
 20
238.2351247620284
 10
277.0981307183729
 20
238.06851882239698
 10
276.34672535747734
 20
237.88510289652618
 10
275.59911454475343
 20
237.6849579757254
 10
274.8556284040899
 20
237.46817243835744
 10
274.11659523803644
 20
237.23484201081283
 10
273.3823413828346
 20
236.98506972523978
 10
272.6531910643168
 20
236.7189658740483
 10
271.9294662547371
 20
236.4366479612079
 10
271.2114865305979
 20
236.13824065036135
 10
270.49956893153336
 20
235.82387570977662
 10
269.7940278203139
 20
235.49369195416168
 10
269.0951747440325
 20
235.14783518336802
 10
268.40331829653405
 20
234.7864581180093
 10
267.71876398214926
 20
234.40972033202445
 10
267.0418140807924
 20
234.01778818221416
 10
266.372767514483
 20
233.6108347347824
 10
265.7119197153502
 20
233.1890396889154
 10
265.05956249517857
 20
232.75258929743137
 10
264.41598391655197
 20
232.3016762845366
 10
263.7814681656531
 20
231.8364997607239
 10
263.15629542677533
 20
231.3572651348509
 10
262.5407417586008
 20
230.86418402343742
 10
261.9350789723008
 20
230.3574741572214
 10
261.33957451151167
 20
229.83735928501534
 10
260.75449133423916
 20
229.30406907490496
 10
260.18008779674363
 20
228.75783901283432
 10
259.616617539457
 20
228.19891029862185
 10
259.0643293749827
 20
227.6275297394532
 10
258.52346717822655
 20
227.04394964089832
 10
257.9942697787087
 20
226.44842769550027
 10
257.47697085510333
 20
225.84122686898553
 10
256.9717988320525
 20
225.22261528414566
 10
256.47897677930047
 20
224.59286610244195
 10
255.9987223131922
 20
223.9522574033848
 10
255.53124750058018
 20
223.3010720617419
 10
255.07675876518172
 20
222.6395976226285
 10
254.63545679642803
 20
221.9681261745356
 10
254.2075364608453
 20
221.28695422035202
 10
253.7931867160073
 20
220.59638254643698
 10
253.39259052709696
 20
219.89671608980123
 10
253.005924786114
 20
219.1882638034557
 10
252.6333602337646
 20
218.4713385199862
 10
252.27506138406693
 20
217.74625681341567
 10
251.93118645170648
 20
217.01333885941386
 10
251.60188728217298
 20
216.27290829391677
 10
251.28730928470944
 20
215.52529207021817
 10
250.9875913681039
 20
214.77082031459616
 10
250.70286587935087
 20
214.0098261805388
 10
250.43325854521086
 20
213.24264570163282
 10
250.17888841669287
 20
212.46961764318067
 10
249.93986781648482
 20
211.69108335261137
 10
249.7163022893551
 20
210.90738660875098
 10
249.5082905555468
 20
210.11887347001962
 10
249.31592446718588
 20
209.32589212162182
 10
249.13928896772154
 20
208.5287927217977
 10
248.97846205441795
 20
207.72792724720296
 10
248.8335147439125
 20
206.92364933748587
 10
248.70451104085708
 20
206.11631413913005
 10
248.59150790965538
 20
205.30627814863163
 10
248.49455524930897
 20
204.49389905508062
 10
248.4136958713833
 20
203.6795355822153
 10
248.34896548110342
 20
202.86354733002003
 10
248.3003926615874
 20
202.04629461593598
 10
248.26799886122498
 20
201.22813831575507
 10
248.2517983842065
 20
200.40943970426744
 10
248.2517983842065
 20
199.5905602957326
 10
248.26799886122498
 20
198.77186168424493
 10
248.3003926615874
 20
197.95370538406402
 10
248.34896548110342
 20
197.13645266997997
 10
248.4136958713833
 20
196.3204644177847
 10
248.49455524930897
 20
195.50610094491938
 10
248.59150790965538
 20
194.69372185136837
 10
248.70451104085708
 20
193.88368586086997
 10
248.8335147439125
 20
193.07635066251413
 10
248.97846205441795
 20
192.27207275279704
 10
249.13928896772157
 20
191.4712072782023
 10
249.31592446718588
 20
190.67410787837815
 10
249.5082905555468
 20
189.88112652998038
 10
249.71630228935507
 20
189.09261339124905
 10
249.93986781648482
 20
188.30891664738866
 10
250.17888841669287
 20
187.53038235681933
 10
250.43325854521086
 20
186.7573542983672
 10
250.70286587935087
 20
185.9901738194612
 10
250.9875913681039
 20
185.22917968540384
 10
251.28730928470947
 20
184.47470792978183
 10
251.60188728217295
 20
183.72709170608323
 10
251.93118645170648
 20
182.98666114058614
 10
252.27506138406693
 20
182.25374318658433
 10
252.6333602337646
 20
181.52866148001382
 10
253.005924786114
 20
180.8117361965443
 10
253.39259052709696
 20
180.10328391019874
 10
253.7931867160073
 20
179.40361745356302
 10
254.2075364608453
 20
178.71304577964798
 10
254.635456796428
 20
178.0318738254644
 10
255.07675876518172
 20
177.3604023773715
 10
255.53124750058018
 20
176.6989279382581
 10
255.9987223131922
 20
176.0477425966152
 10
256.47897677930047
 20
175.40713389755805
 10
256.9717988320525
 20
174.7773847158543
 10
257.47697085510333
 20
174.15877313101447
 10
257.9942697787087
 20
173.55157230449973
 10
258.52346717822655
 20
172.95605035910168
 10
259.0643293749827
 20
172.3724702605468
 10
259.616617539457
 20
171.80108970137817
 10
260.18008779674363
 20
171.24216098716568
 10
260.75449133423916
 20
170.69593092509504
 10
261.33957451151167
 20
170.16264071498466
 10
261.9350789723008
 20
169.6425258427786
 10
262.5407417586008
 20
169.1358159765626
 10
263.15629542677533
 20
168.6427348651491
 10
263.7814681656531
 20
168.16350023927612
 10
264.4159839165519
 20
167.6983237154634
 10
265.05956249517857
 20
167.24741070256863
 10
265.7119197153502
 20
166.8109603110846
 10
266.372767514483
 20
166.38916526521757
 10
267.0418140807924
 20
165.98221181778584
 10
267.71876398214926
 20
165.59027966797552
 10
268.40331829653405
 20
165.2135418819907
 10
269.0951747440325
 20
164.85216481663198
 10
269.7940278203139
 20
164.50630804583832
 10
270.4995689315333
 20
164.1761242902234
 10
271.2114865305979
 20
163.86175934963865
 10
271.9294662547371
 20
163.5633520387921
 10
272.6531910643168
 20
163.2810341259517
 10
273.3823413828346
 20
163.01493027476022
 10
274.11659523803644
 20
162.7651579891872
 10
274.8556284040899
 20
162.53182756164256
 10
275.59911454475343
 20
162.3150420242746
 10
276.34672535747734
 20
162.11489710347382
 10
277.0981307183729
 20
161.93148117760302
 10
277.8529988279855
 20
161.7648752379716
 10
278.61099635780846
 20
161.61515285307243
 10
279.3717885974711
 20
161.48238013609577
 10
280.1350396025376
 20
161.36661571573578
 10
280.90041234285036
 20
161.26791071030152
 10
281.6675688513535
 20
161.18630870514482
 10
282.4361703733293
 20
161.1218457334139
 10
283.2058775159824
 20
161.0745502601424
 10
283.97635039830703
 20
161.04444316967988
 10
284.74724880116787
 20
161.03153775646993
 10
285.51823231753195
 20
161.03583971917976
 10
286.2889605027825
 20
161.0573471581837
 10
287.05909302504983
 20
161.09605057640215
 10
287.8282898154922
 20
161.15193288349522
 10
288.5962112184607
 20
161.2249694034092
 10
289.3625181414817
 20
161.31512788527294
 10
290.1268722049904
 20
161.42236851763897
 10
290.8889358917497
 20
161.54664394606297
 10
291.6483726958887
 20
161.68789929401422
 10
292.4048472714935
 20
161.84607218710758
 10
293.1580255806873
 20
162.0210927806462
 10
293.9075750411315
 20
162.21288379046302
 10
294.6531646728851
 20
162.42136052704723
 10
295.39446524455593
 20
162.6464309329408
 10
296.1311494186799
 20
162.88799562338852
 10
296.86289189626433
 20
163.14594793022337
 10
297.5893695604305
 20
163.42017394896834
 10
298.310261619093
 20
163.71055258913327
 10
299.0252497466128
 20
164.01695562768523
 10
299.73401822436045
 20
164.33924776566798
 10
300.43625408012883
 20
164.67728668794624
 10
301.1316472263328
 20
165.03092312604812
 10
301.81989059693507
 20
165.40000092407786
 10
302.50068028303804
 20
165.7843571076698
 10
303.17371566708135
 20
166.1838219559533
 10
303.8386995555861
 20
166.59821907649683
 10
304.4953383103873
 20
167.02736548319763
 10
305.1433419782958
 20
167.47107167708353
 10
305.782424419134
 20
167.9291417299901
 10
306.4123034320869
 20
168.40137337107723
 10
307.0327008803142
 20
168.887558076146
 10
307.6433428137677
 20
169.3874811597174
 10
308.24395959015976
 20
169.90092186983108
 10
308.8342859940301
 20
170.4276534855234
 10
309.41406135385705
 20
170.96744341694097
 10
309.9830296571631
 20
171.5200533080458
 10
310.5409396635626
 20
172.08523914186657
 10
311.0875450157026
 20
172.6627513482497
 10
311.622604348047
 20
173.2523349140625
 10
312.14588139345733
 20
173.8537294957997
 10
312.6571450875211
 20
174.46666953454402
 10
313.1561696705837
 20
175.09088437322933
 10
313.6427347874374
 20
175.72609837615516
 10
314.11662558462393
 20
176.37203105069986
 10
314.5776328053078
 20
177.0283971711781
 10
315.02555288167827
 20
177.69490690478855
 10
315.4601880248391
 20
178.37126593959584
 10
315.8813463121465
 20
179.0571756144905
 10
316.28884177195687
 20
179.7523330510692
 10
316.6824944657467
 20
180.45643128737748
 10
317.06213056756815
 20
181.16915941345533
 10
317.42758244080585
 20
181.8902027086264
 10
317.77868871220045
 20
182.61924278046973
 10
318.1152943431066
 20
183.35595770541295
 10
318.4372506979534
 20
184.10002217088447
 10
318.74441560987816
 20
184.85110761896274
 10
319.0366534435027
 20
185.60888239145774
 10
319.31383515482656
 20
186.3730118763622
 10
319.575838348209
 20
187.14315865560667
 10
319.82254733041555
 20
187.91898265405396
 10
320.05385316170475
 20
188.7001412896667
 10
320.26965370393305
 20
189.48628962478193
 10
320.46985366565605
 20
190.2770805184258
 10
320.6543646442065
 20
191.07216477960142
 10
320.8231051647305
 20
191.87119132148152
 10
320.9760007161644
 20
192.67380731643877
 10
321.1129837841368
 20
193.4796583518443
 10
321.2339938807812
 20
194.28838858656658
 10
321.3389775714455
 20
195.0996409081006
 10
321.4278884982873
 20
195.91305709025883
 10
321.5006874007442
 20
196.7282779513539
 10
321.5573421328703
 20
197.54494351280292
 10
321.5978276775308
 20
198.362693158084
 10
321.62212615744886
 20
199.18116579197442
 10
321.6302268430998
 20
200.0
  0
LINE
  5
9A
330
17
100
AcDbEntity
  8
Layer
 62
7
100
AcDbLine
 10
21.61170431448346
 20
200.00000000000003
 30
0.0
 11
543.1798842640187
 21
199.99999999999997
 31
0.0
  0
LINE
  5
9B
330
17
100
AcDbEntity
  8
Layer
 62
7
100
AcDbLine
 10
123.82534030439052
 20
200.00000000000003
 30
0.0
 11
135.82534030439052
 21
200.00000000000003
 31
0.0
  0
LWPOLYLINE
  5
9C
330
17
100
AcDbEntity
  8
Layer
100
AcDbPolyline
 90
5
 70
0
 10
129.82534030439052
 20
205.00000000000003
 10
134.82534030439052
 20
200.00000000000003
 10
129.82534030439052
 20
195.00000000000003
 10
124.82534030439052
 20
200.00000000000003
 10
129.82534030439052
 20
205.00000000000003
  0
LINE
  5
9D
330
17
100
AcDbEntity
  8
Layer
 62
7
100
AcDbLine
 10
276.3957942892511
 20
200.0
 30
0.0
 11
288.3957942892511
 21
200.0
 31
0.0
  0
LWPOLYLINE
  5
9E
330
17
100
AcDbEntity
  8
Layer
100
AcDbPolyline
 90
5
 70
0
 10
282.3957942892511
 20
205.0
 10
287.3957942892511
 20
200.0
 10
282.3957942892511
 20
195.0
 10
277.3957942892511
 20
200.0
 10
282.3957942892511
 20
205.0
  0
LINE
  5
9F
330
17
100
AcDbEntity
  8
Layer
 62
7
100
AcDbLine
 10
428.9662482741117
 20
199.99999999999997
 30
0.0
 11
440.9662482741117
 21
199.99999999999997
 31
0.0
  0
LWPOLYLINE
  5
A0
330
17
100
AcDbEntity
  8
Layer
100
AcDbPolyline
 90
5
 70
0
 10
434.9662482741117
 20
204.99999999999997
 10
439.9662482741117
 20
199.99999999999997
 10
434.9662482741117
 20
194.99999999999997
 10
429.9662482741117
 20
199.99999999999997
 10
434.9662482741117
 20
204.99999999999997
  0
LINE
  5
A1
330
17
100
AcDbEntity
  8
Layer
 62
7
100
AcDbLine
 10
9.780079481528844
 20
181.96636447397975
 30
0.0
 11
729.4677746485283
 21
135.67851218391155
 31
0.0
  0
LINE
  5
A2
330
17
100
AcDbEntity
  8
Layer
 62
7
100
AcDbLine
 10
151.62194853957814
 20
172.8435803447017
 30
0.0
 11
163.59720554158156
 21
172.07337275192674
 31
0.0
  0
LWPOLYLINE
  5
A3
330
17
100
AcDbEntity
  8
Layer
100
AcDbPolyline
 90
5
 70
0
 10
157.93049687090274
 20
177.44816696581566
 10
162.59926745808127
 20
172.13755671799132
 10
157.28865721025693
 20
167.4687861308128
 10
152.6198866230784
 20
172.77939637863713
 10
157.93049687090274
 20
177.44816696581566
  0
LINE
  5
A4
330
17
100
AcDbEntity
  8
Layer
 62
7
100
AcDbLine
 10
328.30057355995206
 20
161.48021516189453
 30
0.0
 11
340.2758305619555
 21
160.71000756911957
 31
0.0
  0
LWPOLYLINE
  5
A5
330
17
100
AcDbEntity
  8
Layer
100
AcDbPolyline
 90
5
 70
0
 10
334.6091218912767
 20
166.08480178300852
 10
339.2778924784552
 20
160.77419153518417
 10
333.9672822306309
 20
156.10542094800564
 10
329.29851164345234
 20
161.41603119583
 10
334.6091218912767
 20
166.08480178300852
  0
LINE
  5
A6
330
17
100
AcDbEntity
  8
Layer
100
AcDbLine
 10
284.93999999999966
 20
238.969
 30
0.0
 11
284.93999999999966
 21
239.969
 31
0.0
  0
LINE
  5
A7
330
17
100
AcDbEntity
  8
Layer
100
AcDbLine
 10
284.93999999999966
 20
161.031
 30
0.0
 11
284.93999999999966
 21
160.031
 31
0.0
  0
LINE
  5
A8
330
17
100
AcDbEntity
  8
Layer
100
AcDbLine
 10
321.6302268430998
 20
200.0
 30
0.0
 11
322.6302268430998
 21
200.0
 31
0.0
  0
LINE
  5
A9
330
17
100
AcDbEntity
  8
Layer
100
AcDbLine
 10
248.2497731568995
 20
200.0
 30
0.0
 11
247.2497731568995
 21
200.0
 31
0.0
  0
LINE
  5
AA
330
17
100
AcDbEntity
  8
Layer
 62
7
100
AcDbLine
 10
134.93999999999966
 20
153.53230988397706
 30
0.0
 11
134.93999999999966
 21
241.81625144307978
 31
0.0
  0
LINE
  5
AB
330
17
100
AcDbEntity
  8
Layer
 62
7
100
AcDbLine
 10
134.93999999999966
 20
180.38168942966303
 30
0.0
 11
134.93999999999966
 21
192.38168942966303
 31
0.0
  0
LWPOLYLINE
  5
AC
330
17
100
AcDbEntity
  8
Layer
100
AcDbPolyline
 90
5
 70
0
 10
129.93999999999966
 20
186.38168942966303
 10
134.93999999999966
 20
191.38168942966303
 10
139.93999999999966
 20
186.38168942966303
 10
134.93999999999966
 20
181.38168942966303
 10
129.93999999999966
 20
186.38168942966303
  0
LINE
  5
AD
330
17
100
AcDbEntity
  8
Layer
 62
7
100
AcDbLine
 10
134.93999999999966
 20
202.96687189739384
 30
0.0
 11
134.93999999999966
 21
214.96687189739384
 31
0.0
  0
LWPOLYLINE
  5
AE
330
17
100
AcDbEntity
  8
Layer
100
AcDbPolyline
 90
5
 70
0
 10
129.93999999999966
 20
208.96687189739384
 10
134.93999999999966
 20
213.96687189739384
 10
139.93999999999966
 20
208.96687189739384
 10
134.93999999999966
 20
203.96687189739384
 10
129.93999999999966
 20
208.96687189739384
  0
LINE
  5
AF
330
17
100
AcDbEntity
  8
Layer
 62
7
100
AcDbLine
 10
584.9399999999996
 20
146.42244780851743
 30
0.0
 11
584.9399999999996
 21
186.81173190748518
 31
0.0
  0
LINE
  5
B0
330
17
100
AcDbEntity
  8
Layer
 62
7
100
AcDbLine
 10
584.9399999999996
 20
156.50869724315615
 30
0.0
 11
584.9399999999996
 21
168.50869724315615
 31
0.0
  0
LWPOLYLINE
  5
B1
330
17
100
AcDbEntity
  8
Layer
100
AcDbPolyline
 90
5
 70
0
 10
579.9399999999996
 20
162.50869724315615
 10
584.9399999999996
 20
167.50869724315615
 10
589.9399999999996
 20
162.50869724315615
 10
584.9399999999996
 20
157.50869724315615
 10
579.9399999999996
 20
162.50869724315615
  0
LINE
  5
B2
330
17
100
AcDbEntity
  8
Layer
 62
7
100
AcDbLine
 10
584.9399999999996
 20
164.72548247284647
 30
0.0
 11
584.9399999999996
 21
176.72548247284647
 31
0.0
  0
LWPOLYLINE
  5
B3
330
17
100
AcDbEntity
  8
Layer
100
AcDbPolyline
 90
5
 70
0
 10
579.9399999999996
 20
170.72548247284647
 10
584.9399999999996
 20
175.72548247284647
 10
589.9399999999996
 20
170.72548247284647
 10
584.9399999999996
 20
165.72548247284647
 10
579.9399999999996
 20
170.72548247284647
  0
LWPOLYLINE
  5
B4
330
17
100
AcDbEntity
  8
NumLabel
 62
1
100
AcDbPolyline
 90
6
 70
0
 10
217.5873684210524
 20
173.82368421052635
 10
212.5873684210524
 20
173.82368421052635
 10
212.5873684210524
 20
168.82368421052635
 10
217.5873684210524
 20
168.82368421052635
 10
217.5873684210524
 20
163.82368421052635
 10
212.5873684210524
 20
163.82368421052635
  0
LWPOLYLINE
  5
B5
330
17
100
AcDbEntity
  8
NumLabel
 62
1
100
AcDbPolyline
 90
2
 70
0
 10
222.5873684210524
 20
173.82368421052635
 10
222.5873684210524
 20
163.82368421052635
  0
ENDSEC
  0
SECTION
  2
OBJECTS
  0
DICTIONARY
  5
A
330
0
100
AcDbDictionary
280
0
281
1
  3
ACAD_COLOR
350
B
  3
ACAD_GROUP
350
C
  3
ACAD_LAYOUT
350
D
  3
ACAD_MATERIAL
350
E
  3
ACAD_MLEADERSTYLE
350
F
  3
ACAD_MLINESTYLE
350
10
  3
ACAD_PLOTSETTINGS
350
11
  3
ACAD_PLOTSTYLENAME
350
12
  3
ACAD_SCALELIST
350
14
  3
ACAD_TABLESTYLE
350
15
  3
ACAD_VISUALSTYLE
350
16
  3
EZDXF_META
350
2D
  0
DICTIONARY
  5
B
330
A
100
AcDbDictionary
280
0
281
1
  0
DICTIONARY
  5
C
330
A
100
AcDbDictionary
280
0
281
1
  0
DICTIONARY
  5
D
330
A
100
AcDbDictionary
280
0
281
1
  3
Model
350
1A
  3
Layout1
350
1E
  0
DICTIONARY
  5
E
330
A
100
AcDbDictionary
280
0
281
1
  3
ByBlock
350
1F
  3
ByLayer
350
20
  3
Global
350
21
  0
DICTIONARY
  5
F
330
A
100
AcDbDictionary
280
0
281
1
  3
Standard
350
2C
  0
DICTIONARY
  5
10
330
A
100
AcDbDictionary
280
0
281
1
  3
Standard
350
22
  0
DICTIONARY
  5
11
330
A
100
AcDbDictionary
280
0
281
1
  0
ACDBDICTIONARYWDFLT
  5
12
330
A
100
AcDbDictionary
280
0
281
1
  3
Normal
350
13
100
AcDbDictionaryWithDefault
340
13
  0
ACDBPLACEHOLDER
  5
13
330
12
  0
DICTIONARY
  5
14
330
A
100
AcDbDictionary
280
0
281
1
  0
DICTIONARY
  5
15
330
A
100
AcDbDictionary
280
0
281
1
  0
DICTIONARY
  5
16
330
A
100
AcDbDictionary
280
0
281
1
  3
2dWireframe
350
5A
  3
Basic
350
5B
  3
Brighten
350
5C
  3
ColorChange
350
5D
  3
Conceptual
350
5E
  3
Dim
350
5F
  3
EdgeColorOff
350
60
  3
Facepattern
350
61
  3
Flat
350
62
  3
FlatWithEdges
350
63
  3
Gouraud
350
64
  3
GouraudWithEdges
350
65
  3
Hidden
350
66
  3
JitterOff
350
67
  3
Linepattern
350
68
  3
Modeling
350
69
  3
OverhangOff
350
6A
  3
Realistic
350
6B
  3
Shaded
350
6C
  3
Shaded with edges
350
6D
  3
Shades of Gray
350
6E
  3
Sketchy
350
6F
  3
Thicken
350
70
  3
Wireframe
350
71
  3
X-Ray
350
72
  0
LAYOUT
  5
1A
330
D
100
AcDbPlotSettings
  1

  2
Adobe PDF
  4
A3
  6

 40
7.5
 41
20.0
 42
7.5
 43
20.0
 44
420.0
 45
297.0
 46
0.0
 47
0.0
 48
0.0
 49
0.0
140
0.0
141
0.0
142
1.0
143
1.0
 70
1024
 72
1
 73
0
 74
5
  7

 75
16
 76
0
 77
2
 78
300
147
1.0
148
0.0
149
0.0
100
AcDbLayout
  1
Model
 70
1
 71
0
 10
0.0
 20
0.0
 11
420.0
 21
297.0
 12
0.0
 22
0.0
 32
0.0
 14
1e+20
 24
1e+20
 34
1e+20
 15
-1e+20
 25
-1e+20
 35
-1e+20
146
0.0
 13
0.0
 23
0.0
 33
0.0
 16
1.0
 26
0.0
 36
0.0
 17
0.0
 27
1.0
 37
0.0
 76
1
330
17
  0
LAYOUT
  5
1E
330
D
100
AcDbPlotSettings
  1

  2
Adobe PDF
  4
A3
  6

 40
7.5
 41
20.0
 42
7.5
 43
20.0
 44
420.0
 45
297.0
 46
0.0
 47
0.0
 48
0.0
 49
0.0
140
0.0
141
0.0
142
1.0
143
1.0
 70
0
 72
1
 73
0
 74
5
  7

 75
16
 76
0
 77
2
 78
300
147
1.0
148
0.0
149
0.0
100
AcDbLayout
  1
Layout1
 70
1
 71
1
 10
0.0
 20
0.0
 11
420.0
 21
297.0
 12
0.0
 22
0.0
 32
0.0
 14
1e+20
 24
1e+20
 34
1e+20
 15
-1e+20
 25
-1e+20
 35
-1e+20
146
0.0
 13
0.0
 23
0.0
 33
0.0
 16
1.0
 26
0.0
 36
0.0
 17
0.0
 27
1.0
 37
0.0
 76
1
330
1B
  0
MATERIAL
  5
1F
102
{ACAD_REACTORS
330
E
102
}
330
E
100
AcDbMaterial
  1
ByBlock
  2

 70
0
 40
1.0
 71
1
 41
1.0
 91
-1023410177
 42
1.0
 72
1
  3

 73
1
 74
1
 75
1
 44
0.5
 73
0
 45
1.0
 46
1.0
 77
1
  4

 78
1
 79
1
170
1
 48
1.0
171
1
  6

172
1
173
1
174
1
140
1.0
141
1.0
175
1
  7

176
1
177
1
178
1
143
1.0
179
1
  8

270
1
271
1
272
1
145
1.0
146
1.0
273
1
  9

274
1
275
1
276
1
 42
1.0
 72
1
  3

 73
1
 74
1
 75
1
 94
63
  0
MATERIAL
  5
20
102
{ACAD_REACTORS
330
E
102
}
330
E
100
AcDbMaterial
  1
ByLayer
  2

 70
0
 40
1.0
 71
1
 41
1.0
 91
-1023410177
 42
1.0
 72
1
  3

 73
1
 74
1
 75
1
 44
0.5
 73
0
 45
1.0
 46
1.0
 77
1
  4

 78
1
 79
1
170
1
 48
1.0
171
1
  6

172
1
173
1
174
1
140
1.0
141
1.0
175
1
  7

176
1
177
1
178
1
143
1.0
179
1
  8

270
1
271
1
272
1
145
1.0
146
1.0
273
1
  9

274
1
275
1
276
1
 42
1.0
 72
1
  3

 73
1
 74
1
 75
1
 94
63
  0
MATERIAL
  5
21
102
{ACAD_REACTORS
330
E
102
}
330
E
100
AcDbMaterial
  1
Global
  2

 70
0
 40
1.0
 71
1
 41
1.0
 91
-1023410177
 42
1.0
 72
1
  3

 73
1
 74
1
 75
1
 44
0.5
 73
0
 45
1.0
 46
1.0
 77
1
  4

 78
1
 79
1
170
1
 48
1.0
171
1
  6

172
1
173
1
174
1
140
1.0
141
1.0
175
1
  7

176
1
177
1
178
1
143
1.0
179
1
  8

270
1
271
1
272
1
145
1.0
146
1.0
273
1
  9

274
1
275
1
276
1
 42
1.0
 72
1
  3

 73
1
 74
1
 75
1
 94
63
  0
MLINESTYLE
  5
22
102
{ACAD_REACTORS
330
10
102
}
330
10
100
AcDbMlineStyle
  2
Standard
 70
0
  3

 62
256
 51
90.0
 52
90.0
 71
2
 49
0.5
 62
256
  6
BYLAYER
 49
-0.5
 62
256
  6
BYLAYER
  0
MLEADERSTYLE
  5
2C
102
{ACAD_REACTORS
330
F
102
}
330
F
100
AcDbMLeaderStyle
179
2
170
2
171
1
172
0
 90
2
 40
0.0
 41
0.0
173
1
 91
-1056964608
 92
-2
290
1
 42
2.0
291
1
 43
8.0
  3
Standard
 44
4.0
300

342
29
174
1
175
1
176
0
178
1
 93
-1056964608
 45
4.0
292
0
297
0
 46
4.0
 94
-1056964608
 47
1.0
 49
1.0
140
1.0
294
1
141
0.0
177
0
142
1.0
295
0
296
0
143
3.75
271
0
272
9
273
9
  0
DICTIONARY
  5
2D
330
A
100
AcDbDictionary
281
1
  3
CREATED_BY_EZDXF
350
2E
  3
WRITTEN_BY_EZDXF
350
B8
  0
DICTIONARYVAR
  5
2E
330
2D
100
DictionaryVariables
280
0
  1
1.3.0 @ 2026-01-06T17:07:19.077403+00:00
  0
VISUALSTYLE
  5
5A
102
{ACAD_REACTORS
330
16
102
}
330
16
100
AcDbVisualStyle
  2
2dWireframe
 70
4
 90
0
 40
0.6
 62
7
290
0
291
0
  0
VISUALSTYLE
  5
5B
102
{ACAD_REACTORS
330
16
102
}
330
16
100
AcDbVisualStyle
  2
Basic
 70
7
 90
1
 40
0.6
 62
7
290
0
291
1
  0
VISUALSTYLE
  5
5C
102
{ACAD_REACTORS
330
16
102
}
330
16
100
AcDbVisualStyle
  2
Brighten
 70
12
 90
2
 40
0.6
 62
7
290
0
291
1
  0
VISUALSTYLE
  5
5D
102
{ACAD_REACTORS
330
16
102
}
330
16
100
AcDbVisualStyle
  2
ColorChange
 70
16
 90
2
 40
0.6
 62
8
290
0
291
1
  0
VISUALSTYLE
  5
5E
102
{ACAD_REACTORS
330
16
102
}
330
16
100
AcDbVisualStyle
  2
Conceptual
 70
9
 90
3
 40
0.6
 62
7
290
0
291
0
  0
VISUALSTYLE
  5
5F
102
{ACAD_REACTORS
330
16
102
}
330
16
100
AcDbVisualStyle
  2
Dim
 70
11
 90
2
 40
0.6
 62
7
290
0
291
1
  0
VISUALSTYLE
  5
60
102
{ACAD_REACTORS
330
16
102
}
330
16
100
AcDbVisualStyle
  2
EdgeColorOff
 70
22
 90
2
 40
0.6
 62
7
290
0
291
1
  0
VISUALSTYLE
  5
61
102
{ACAD_REACTORS
330
16
102
}
330
16
100
AcDbVisualStyle
  2
Facepattern
 70
15
 90
2
 40
0.6
 62
7
290
0
291
1
  0
VISUALSTYLE
  5
62
102
{ACAD_REACTORS
330
16
102
}
330
16
100
AcDbVisualStyle
  2
Flat
 70
0
 90
2
 40
0.6
 62
7
290
0
291
1
  0
VISUALSTYLE
  5
63
102
{ACAD_REACTORS
330
16
102
}
330
16
100
AcDbVisualStyle
  2
FlatWithEdges
 70
1
 90
2
 40
0.6
 62
7
290
0
291
1
  0
VISUALSTYLE
  5
64
102
{ACAD_REACTORS
330
16
102
}
330
16
100
AcDbVisualStyle
  2
Gouraud
 70
2
 90
2
 40
0.6
 62
7
290
0
291
1
  0
VISUALSTYLE
  5
65
102
{ACAD_REACTORS
330
16
102
}
330
16
100
AcDbVisualStyle
  2
GouraudWithEdges
 70
3
 90
2
 40
0.6
 62
7
290
0
291
1
  0
VISUALSTYLE
  5
66
102
{ACAD_REACTORS
330
16
102
}
330
16
100
AcDbVisualStyle
  2
Hidden
 70
6
 90
1
 40
0.6
 62
7
290
0
291
0
  0
VISUALSTYLE
  5
67
102
{ACAD_REACTORS
330
16
102
}
330
16
100
AcDbVisualStyle
  2
JitterOff
 70
20
 90
2
 40
0.6
 62
7
290
0
291
1
  0
VISUALSTYLE
  5
68
102
{ACAD_REACTORS
330
16
102
}
330
16
100
AcDbVisualStyle
  2
Linepattern
 70
14
 90
2
 40
0.6
 62
7
290
0
291
1
  0
VISUALSTYLE
  5
69
102
{ACAD_REACTORS
330
16
102
}
330
16
100
AcDbVisualStyle
  2
Modeling
 70
10
 90
2
 40
0.6
 62
7
290
0
291
0
  0
VISUALSTYLE
  5
6A
102
{ACAD_REACTORS
330
16
102
}
330
16
100
AcDbVisualStyle
  2
OverhangOff
 70
21
 90
2
 40
0.6
 62
7
290
0
291
1
  0
VISUALSTYLE
  5
6B
102
{ACAD_REACTORS
330
16
102
}
330
16
100
AcDbVisualStyle
  2
Realistic
 70
8
 90
2
 40
0.6
 62
7
290
0
291
0
  0
VISUALSTYLE
  5
6C
102
{ACAD_REACTORS
330
16
102
}
330
16
100
AcDbVisualStyle
  2
Shaded
 70
27
 90
2
 40
0.6
 62
7
290
0
291
0
  0
VISUALSTYLE
  5
6D
102
{ACAD_REACTORS
330
16
102
}
330
16
100
AcDbVisualStyle
  2
Shaded with edges
 70
26
 90
2
 40
0.6
 62
7
290
0
291
0
  0
VISUALSTYLE
  5
6E
102
{ACAD_REACTORS
330
16
102
}
330
16
100
AcDbVisualStyle
  2
Shades of Gray
 70
23
 90
2
 40
0.6
 62
7
290
0
291
0
  0
VISUALSTYLE
  5
6F
102
{ACAD_REACTORS
330
16
102
}
330
16
100
AcDbVisualStyle
  2
Sketchy
 70
24
 90
1
 40
0.6
 62
7
290
0
291
0
  0
VISUALSTYLE
  5
70
102
{ACAD_REACTORS
330
16
102
}
330
16
100
AcDbVisualStyle
  2
Thicken
 70
13
 90
2
 40
0.6
 62
7
290
0
291
1
  0
VISUALSTYLE
  5
71
102
{ACAD_REACTORS
330
16
102
}
330
16
100
AcDbVisualStyle
  2
Wireframe
 70
5
 90
0
 40
0.6
 62
7
290
0
291
0
  0
VISUALSTYLE
  5
72
102
{ACAD_REACTORS
330
16
102
}
330
16
100
AcDbVisualStyle
  2
X-Ray
 70
25
 90
2
 40
0.5
 62
7
290
0
291
0
  0
DICTIONARYVAR
  5
B8
330
2D
100
DictionaryVariables
280
0
  1
1.3.0 @ 2026-01-06T17:07:19.234001+00:00
  0
ENDSEC
  0
EOF
