<?xml version="1.0" encoding="utf-8" standalone="no"?>
<!DOCTYPE svg PUBLIC "-//W3C//DTD SVG 1.1//EN"
  "http://www.w3.org/Graphics/SVG/1.1/DTD/svg11.dtd">
<svg xmlns:xlink="http://www.w3.org/1999/xlink" width="1152pt" height="309.460797pt" viewBox="0 0 1152 309.460797" xmlns="http://www.w3.org/2000/svg" version="1.1">
 <metadata>
  <rdf:RDF xmlns:dc="http://purl.org/dc/elements/1.1/" xmlns:cc="http://creativecommons.org/ns#" xmlns:rdf="http://www.w3.org/1999/02/22-rdf-syntax-ns#">
   <cc:Work>
    <dc:type rdf:resource="http://purl.org/dc/dcmitype/StillImage"/>
    <dc:date>2026-01-07T02:07:25.514896</dc:date>
    <dc:format>image/svg+xml</dc:format>
    <dc:creator>
     <cc:Agent>
      <dc:title>Matplotlib v3.10.1, https://matplotlib.org/</dc:title>
     </cc:Agent>
    </dc:creator>
   </cc:Work>
  </rdf:RDF>
 </metadata>
 <defs>
  <style type="text/css">*{stroke-linejoin: round; stroke-linecap: butt}</style>
 </defs>
 <g id="figure_1">
  <g id="patch_1">
   <path d="M 0 309.460797 
L 1152 309.460797 
L 1152 0 
L 0 0 
z
" style="fill: #ffffff"/>
  </g>
  <g id="axes_1">
   <g id="patch_2">
    <path d="M 0 309.460797 
L 1152 309.460797 
L 1152 0 
L 0 0 
z
" style="fill: #212830"/>
   </g>
   <g id="patch_3">
    <path d="M 1098.885969 213.855575 
L 1086.016732 211.28446 
L 1068.486818 207.560144 
L 1049.930398 203.438345 
L 1021.584085 196.842618 
L 993.153445 189.923825 
L 964.834155 182.691275 
L 936.434744 175.275124 
L 898.550005 165.146481 
L 851.303823 152.568 
L 835.956839 148.581563 
L 834.19841 155.413616 
L 821.303358 152.139897 
L 802.498884 147.502556 
L 783.686312 143.021772 
L 764.895818 138.745523 
L 746.016414 134.654639 
L 727.127924 130.729077 
L 708.241066 127.012962 
L 689.290616 123.480232 
L 670.341352 120.178981 
L 651.321214 117.053015 
L 632.311778 114.142782 
L 613.219441 111.433953 
L 594.127145 108.912141 
L 574.96664 106.584741 
L 555.83088 104.445974 
L 536.689699 102.526661 
L 517.50195 100.794372 
L 498.317044 99.281269 
L 479.166225 97.979352 
L 459.991815 96.90698 
L 440.799926 96.061886 
L 421.661645 95.432684 
L 402.50775 95.074509 
L 383.409615 94.960973 
L 364.300383 95.100424 
L 345.268922 95.510876 
L 326.26855 96.231531 
L 307.294054 97.243498 
L 288.397927 98.571771 
L 269.535017 100.222941 
L 250.874763 102.192518 
L 232.318917 104.572876 
L 223.108678 105.91681 
L 213.930885 107.374155 
L 195.641862 110.616889 
L 186.629655 112.386066 
L 177.701856 114.282523 
L 168.866952 116.312873 
L 160.117312 118.487145 
L 151.481932 120.805772 
L 142.909655 123.295952 
L 134.530544 125.893063 
L 126.299282 128.672989 
L 118.275848 131.591455 
L 110.516193 134.656585 
L 103.048649 137.864708 
L 95.981021 141.167979 
L 89.422118 144.520115 
L 83.358683 147.943713 
L 77.970484 151.24757 
L 73.293021 154.402608 
L 69.298609 157.372751 
L 65.909885 160.142854 
L 63.249558 162.488092 
L 59.096674 166.804366 
L 57.714654 168.445424 
L 56.582357 170.000798 
L 54.908571 172.757202 
L 53.767053 175.257371 
L 53.077563 177.131165 
L 52.523694 179.527194 
L 52.423115 180.730823 
L 52.617289 183.086103 
L 53.21202 184.352363 
L 54.468391 186.069625 
L 55.390512 187.056852 
L 56.544697 188.11145 
L 58.002914 189.241119 
L 59.9069 190.479769 
L 62.386827 191.852415 
L 65.384448 193.319355 
L 68.841041 194.823209 
L 73.018194 196.361642 
L 78.124814 197.944316 
L 84.088118 199.570959 
L 90.689118 201.184176 
L 98.007806 202.697791 
L 105.962012 204.118141 
L 114.249288 205.43109 
L 122.815537 206.582368 
L 131.704893 207.569787 
L 150.272422 209.315539 
L 159.475751 210.096535 
L 168.758449 210.711224 
L 197.461238 212.195347 
L 216.526307 212.936557 
L 235.802567 213.396464 
L 252.392765 213.685622 
L 252.276242 220.739377 
L 274.569947 221.032018 
L 293.9319 221.159895 
L 352.692958 221.129885 
L 382.122932 220.899091 
L 460.871818 219.949445 
L 510.059744 219.124889 
L 569.009129 217.906766 
L 667.194682 215.295955 
L 706.426409 214.164805 
L 775.067509 212.018962 
L 843.812174 210.02319 
L 902.800661 208.623459 
L 942.03323 207.952668 
L 990.970439 207.502914 
L 1020.29583 207.51085 
L 1049.468977 207.771233 
L 1077.739813 208.310903 
L 1099.636364 208.985417 
L 1098.885969 213.855575 
L 1098.885969 213.855575 
" clip-path="url(#p3392cd28ec)" style="fill: none; stroke: #ff0000; stroke-width: 0.72; stroke-linejoin: miter"/>
   </g>
   <g id="patch_4">
    <path d="M 737.708063 161.708752 
L 710.065721 156.033774 
L 715.740698 128.391431 
L 743.383041 134.066409 
L 737.708063 161.708752 
" clip-path="url(#p3392cd28ec)" style="fill: none; stroke: #ff0000; stroke-width: 0.72; stroke-linejoin: miter"/>
   </g>
   <g id="patch_5">
    <path d="M 346.163758 123.642997 
L 317.969558 124.822656 
L 316.789899 96.628457 
L 344.984098 95.448797 
L 346.163758 123.642997 
" clip-path="url(#p3392cd28ec)" style="fill: none; stroke: #ff0000; stroke-width: 0.72; stroke-linejoin: miter"/>
   </g>
   <g id="patch_6">
    <path d="M 173.429307 144.12963 
L 146.177545 151.45397 
L 138.853206 124.202208 
L 166.104968 116.877868 
L 173.429307 144.12963 
" clip-path="url(#p3392cd28ec)" style="fill: none; stroke: #ff0000; stroke-width: 0.72; stroke-linejoin: miter"/>
   </g>
   <g id="patch_7">
    <path d="M 94.284012 182.099343 
L 83.756092 191.492906 
L 60.272185 165.173107 
L 70.800105 155.779544 
L 94.284012 182.099343 
" clip-path="url(#p3392cd28ec)" style="fill: none; stroke: #ff0000; stroke-width: 0.72; stroke-linejoin: miter"/>
   </g>
   <g id="patch_8">
    <path d="M 73.687859 156.882454 
L 84.982993 165.337988 
L 63.84416 193.575825 
L 52.549025 185.120291 
L 73.687859 156.882454 
" clip-path="url(#p3392cd28ec)" style="fill: none; stroke: #ff0000; stroke-width: 0.72; stroke-linejoin: miter"/>
   </g>
   <g id="patch_9">
    <path d="M 186.901229 183.494849 
L 215.093892 184.710663 
L 213.878078 212.903327 
L 185.685414 211.687512 
L 186.901229 183.494849 
" clip-path="url(#p3392cd28ec)" style="fill: none; stroke: #ff0000; stroke-width: 0.72; stroke-linejoin: miter"/>
   </g>
   <g id="line2d_1">
    <path d="M 961.473521 181.825299 
L 960.023637 188.729418 
" clip-path="url(#p3392cd28ec)" style="fill: none; stroke: #ff0000; stroke-width: 0.72; stroke-linecap: square"/>
   </g>
   <g id="line2d_2">
    <path d="M 958.647635 200.710639 
L 958.494673 207.763698 
" clip-path="url(#p3392cd28ec)" style="fill: none; stroke: #ff0000; stroke-width: 0.72; stroke-linecap: square"/>
   </g>
   <g id="line2d_3">
    <path d="M 823.42306 152.675259 
L 821.969368 159.578578 
" clip-path="url(#p3392cd28ec)" style="fill: none; stroke: #ff0000; stroke-width: 0.72; stroke-linecap: square"/>
   </g>
   <g id="line2d_4">
    <path d="M 817.36782 203.740233 
L 817.36712 210.79495 
" clip-path="url(#p3392cd28ec)" style="fill: none; stroke: #ff0000; stroke-width: 0.72; stroke-linecap: square"/>
   </g>
   <g id="line2d_5">
    <path d="M 260.122045 101.164227 
L 259.208222 108.159509 
" clip-path="url(#p3392cd28ec)" style="fill: none; stroke: #ff0000; stroke-width: 0.72; stroke-linecap: square"/>
   </g>
   <g id="line2d_6">
    <path d="M 252.965229 213.697895 
L 253.047972 220.752126 
" clip-path="url(#p3392cd28ec)" style="fill: none; stroke: #ff0000; stroke-width: 0.72; stroke-linecap: square"/>
   </g>
   <g id="patch_10">
    <path d="M 576.37818 154.730399 
L 576.262028 149.116721 
L 575.913778 143.512958 
L 575.334046 137.929006 
L 574.523853 132.374727 
L 573.484633 126.85993 
L 572.218219 121.394355 
L 570.726849 115.987654 
L 569.013156 110.649377 
L 567.080168 105.388951 
L 564.931297 100.215666 
L 562.570339 95.138659 
L 560.001464 90.166897 
L 557.229208 85.30916 
L 554.258468 80.574027 
L 551.09449 75.969862 
L 547.742862 71.504795 
L 544.209503 67.186711 
L 540.500654 63.023238 
L 536.622864 59.021729 
L 532.582983 55.18925 
L 528.388145 51.532569 
L 524.045758 48.058146 
L 519.563492 44.772115 
L 514.949263 41.680281 
L 510.211219 38.788104 
L 505.357729 36.100692 
L 500.397365 33.622791 
L 495.338886 31.358777 
L 490.191227 29.312649 
L 484.963479 27.48802 
L 479.664874 25.888113 
L 474.30477 24.515753 
L 468.892635 23.373364 
L 463.438025 22.462964 
L 457.950575 21.786161 
L 452.439976 21.344149 
L 446.915959 21.13771 
L 441.388282 21.167208 
L 435.866706 21.432591 
L 430.360982 21.93339 
L 424.880836 22.668721 
L 419.435944 23.637285 
L 414.035924 24.837371 
L 408.690311 26.266861 
L 403.408548 27.923229 
L 398.199962 29.80355 
L 393.073751 31.904503 
L 388.03897 34.222379 
L 383.10451 36.753083 
L 378.279086 39.492145 
L 373.57122 42.434729 
L 368.989226 45.575638 
L 364.541197 48.909324 
L 360.234989 52.4299 
L 356.078206 56.131147 
L 352.078189 60.006531 
L 348.242004 64.049205 
L 344.576426 68.252031 
L 341.087927 72.607585 
L 337.782669 77.108176 
L 334.66649 81.745855 
L 331.744892 86.512432 
L 329.023037 91.399488 
L 326.50573 96.398391 
L 324.197417 101.500315 
L 322.102176 106.696248 
L 320.223706 111.977014 
L 318.565326 117.333286 
L 317.129963 122.755605 
L 315.920154 128.234394 
L 314.938034 133.759978 
L 314.185338 139.322597 
L 313.663396 144.912428 
L 313.373129 150.519598 
L 313.31505 156.134205 
L 313.489262 161.746333 
L 313.895456 167.34607 
L 314.532915 172.923527 
L 315.400515 178.468853 
L 316.496721 183.972254 
L 317.8196 189.424012 
L 319.366813 194.814498 
L 321.135628 200.134191 
L 323.122922 205.373697 
L 325.325186 210.523762 
L 327.738528 215.575292 
L 330.358688 220.519363 
L 333.181038 225.347245 
L 336.200593 230.050411 
L 339.41202 234.620555 
L 342.809649 239.049606 
L 346.387477 243.329741 
L 350.139188 247.453401 
L 354.058153 251.413304 
L 358.137454 255.202457 
L 362.369884 258.814166 
L 366.747969 262.242054 
L 371.263978 265.480066 
L 375.909933 268.522484 
L 380.677631 271.363934 
L 385.558651 273.999399 
L 390.544372 276.424224 
L 395.62599 278.634127 
L 400.79453 280.625204 
L 406.040863 282.393939 
L 411.355724 283.937209 
L 416.729727 285.252287 
L 422.15338 286.336852 
L 427.617106 287.188987 
L 433.111254 287.807188 
L 438.626121 288.190364 
L 444.151968 288.337837 
L 449.679035 288.249347 
L 455.197561 287.92505 
L 460.697801 287.365518 
L 466.170039 286.571742 
L 471.604611 285.545121 
L 476.99192 284.287469 
L 482.322451 282.801007 
L 487.58679 281.088361 
L 492.775639 279.152555 
L 497.879835 276.997008 
L 502.890363 274.625527 
L 507.798374 272.0423 
L 512.5952 269.251889 
L 517.272369 266.259223 
L 521.821621 263.069587 
L 526.234922 259.688613 
L 530.504477 256.122274 
L 534.622746 252.376867 
L 538.582455 248.459008 
L 542.376612 244.375615 
L 545.998516 240.1339 
L 549.44177 235.741355 
L 552.700292 231.205737 
L 555.768329 226.535057 
L 558.640461 221.737563 
L 561.311616 216.821728 
L 563.777077 211.796234 
L 566.032489 206.669957 
L 568.07387 201.451949 
L 569.897613 196.151427 
L 571.500498 190.777752 
L 572.879695 185.340413 
L 574.032766 179.849015 
L 574.957677 174.313254 
L 575.652793 168.742909 
L 576.116887 163.147816 
L 576.349139 157.537857 
L 576.37818 154.730399 
L 576.37818 154.730399 
" clip-path="url(#p3392cd28ec)" style="fill: none; stroke: #ff0000; stroke-width: 0.72; stroke-linejoin: miter"/>
   </g>
   <g id="line2d_7">
    <path d="M 72.85219 154.730399 
L 859.53203 154.730399 
" clip-path="url(#p3392cd28ec)" style="fill: none; stroke: #ffffff; stroke-width: 0.72; stroke-linecap: square"/>
   </g>
   <g id="line2d_8">
    <path d="M 215.373252 154.730399 
L 300.029854 154.730399 
" clip-path="url(#p3392cd28ec)" style="fill: none; stroke: #ffffff; stroke-width: 0.72; stroke-linecap: square"/>
   </g>
   <g id="patch_11">
    <path d="M 257.701553 119.456815 
L 292.975137 154.730399 
L 257.701553 190.003983 
L 222.427969 154.730399 
L 257.701553 119.456815 
" clip-path="url(#p3392cd28ec)" style="fill: none; stroke: #ff0000; stroke-width: 0.72; stroke-linejoin: miter"/>
   </g>
   <g id="line2d_9">
    <path d="M 423.863809 154.730399 
L 508.520411 154.730399 
" clip-path="url(#p3392cd28ec)" style="fill: none; stroke: #ffffff; stroke-width: 0.72; stroke-linecap: square"/>
   </g>
   <g id="patch_12">
    <path d="M 466.19211 119.456815 
L 501.465694 154.730399 
L 466.19211 190.003983 
L 430.918526 154.730399 
L 466.19211 119.456815 
" clip-path="url(#p3392cd28ec)" style="fill: none; stroke: #ff0000; stroke-width: 0.72; stroke-linejoin: miter"/>
   </g>
   <g id="line2d_10">
    <path d="M 632.354365 154.730399 
L 717.010967 154.730399 
" clip-path="url(#p3392cd28ec)" style="fill: none; stroke: #ffffff; stroke-width: 0.72; stroke-linecap: square"/>
   </g>
   <g id="patch_13">
    <path d="M 674.682666 119.456815 
L 709.95625 154.730399 
L 674.682666 190.003983 
L 639.409082 154.730399 
L 674.682666 119.456815 
" clip-path="url(#p3392cd28ec)" style="fill: none; stroke: #ff0000; stroke-width: 0.72; stroke-linejoin: miter"/>
   </g>
   <g id="line2d_11">
    <path d="M 52.493824 179.746868 
L 1081.222862 210.278833 
" clip-path="url(#p3392cd28ec)" style="fill: none; stroke: #ffffff; stroke-width: 0.72; stroke-linecap: square"/>
   </g>
   <g id="line2d_12">
    <path d="M 243.431247 185.413758 
L 328.050588 187.925202 
" clip-path="url(#p3392cd28ec)" style="fill: none; stroke: #ffffff; stroke-width: 0.72; stroke-linecap: square"/>
   </g>
   <g id="patch_14">
    <path d="M 286.787353 151.411421 
L 320.998977 187.715915 
L 284.694483 221.927539 
L 250.482859 185.623045 
L 286.787353 151.411421 
" clip-path="url(#p3392cd28ec)" style="fill: none; stroke: #ff0000; stroke-width: 0.72; stroke-linejoin: miter"/>
   </g>
   <g id="line2d_13">
    <path d="M 477.695769 192.366567 
L 562.31511 194.878011 
" clip-path="url(#p3392cd28ec)" style="fill: none; stroke: #ffffff; stroke-width: 0.72; stroke-linecap: square"/>
   </g>
   <g id="patch_15">
    <path d="M 521.051874 158.36423 
L 555.263498 194.668724 
L 518.959004 228.880348 
L 484.74738 192.575854 
L 521.051874 158.36423 
" clip-path="url(#p3392cd28ec)" style="fill: none; stroke: #ff0000; stroke-width: 0.72; stroke-linejoin: miter"/>
   </g>
   <g id="line2d_14">
    <path d="M 444.842985 21.121117 
L 444.842985 14.0664 
" clip-path="url(#p3392cd28ec)" style="fill: none; stroke: #ff0000; stroke-width: 0.72; stroke-linecap: square"/>
   </g>
   <g id="line2d_15">
    <path d="M 444.842985 288.339681 
L 444.842985 295.394397 
" clip-path="url(#p3392cd28ec)" style="fill: none; stroke: #ff0000; stroke-width: 0.72; stroke-linecap: square"/>
   </g>
   <g id="line2d_16">
    <path d="M 576.37818 154.730399 
L 583.432897 154.730399 
" clip-path="url(#p3392cd28ec)" style="fill: none; stroke: #ff0000; stroke-width: 0.72; stroke-linecap: square"/>
   </g>
   <g id="line2d_17">
    <path d="M 313.30779 154.730399 
L 306.253073 154.730399 
" clip-path="url(#p3392cd28ec)" style="fill: none; stroke: #ff0000; stroke-width: 0.72; stroke-linecap: square"/>
   </g>
   <g id="patch_16">
    <path d="M 353.131666 137.093607 
L 339.022232 137.093607 
L 339.022232 207.640775 
L 353.131666 207.640775 
" clip-path="url(#p3392cd28ec)" style="fill: none; stroke: #ff0000; stroke-width: 0.72; stroke-linejoin: miter"/>
   </g>
   <g id="patch_17">
    <path d="M 360.186383 207.640775 
L 374.295817 207.640775 
L 374.295817 137.093607 
L 360.186383 137.093607 
" clip-path="url(#p3392cd28ec)" style="fill: none; stroke: #ff0000; stroke-width: 0.72; stroke-linejoin: miter"/>
   </g>
   <g id="patch_18">
    <path d="M 339.022232 172.367191 
L 353.131666 172.367191 
" clip-path="url(#p3392cd28ec)" style="fill: none; stroke: #ff0000; stroke-width: 0.72; stroke-linejoin: miter"/>
   </g>
   <g id="patch_19">
    <path d="M 360.186383 172.367191 
L 374.295817 172.367191 
" clip-path="url(#p3392cd28ec)" style="fill: none; stroke: #ff0000; stroke-width: 0.72; stroke-linejoin: miter"/>
   </g>
   <g id="patch_20">
    <path d="M 391.932609 172.367191 
L 391.932609 137.093607 
L 427.206193 137.093607 
L 427.206193 207.640775 
" clip-path="url(#p3392cd28ec)" style="fill: none; stroke: #ff0000; stroke-width: 0.72; stroke-linejoin: miter"/>
   </g>
  </g>
 </g>
 <defs>
  <clipPath id="p3392cd28ec">
   <rect x="0" y="0" width="1152" height="309.460797"/>
  </clipPath>
 </defs>
</svg>
