<?xml version="1.0" encoding="utf-8" standalone="no"?>
<!DOCTYPE svg PUBLIC "-//W3C//DTD SVG 1.1//EN"
  "http://www.w3.org/Graphics/SVG/1.1/DTD/svg11.dtd">
<svg xmlns:xlink="http://www.w3.org/1999/xlink" width="804.102835pt" height="345.6pt" viewBox="0 0 804.102835 345.6" xmlns="http://www.w3.org/2000/svg" version="1.1">
 <metadata>
  <rdf:RDF xmlns:dc="http://purl.org/dc/elements/1.1/" xmlns:cc="http://creativecommons.org/ns#" xmlns:rdf="http://www.w3.org/1999/02/22-rdf-syntax-ns#">
   <cc:Work>
    <dc:type rdf:resource="http://purl.org/dc/dcmitype/StillImage"/>
    <dc:date>2026-01-07T02:07:18.409191</dc:date>
    <dc:format>image/svg+xml</dc:format>
    <dc:creator>
     <cc:Agent>
      <dc:title>Matplotlib v3.10.1, https://matplotlib.org/</dc:title>
     </cc:Agent>
    </dc:creator>
   </cc:Work>
  </rdf:RDF>
 </metadata>
 <defs>
  <style type="text/css">*{stroke-linejoin: round; stroke-linecap: butt}</style>
 </defs>
 <g id="figure_1">
  <g id="patch_1">
   <path d="M 0 345.6 
L 804.102835 345.6 
L 804.102835 0 
L 0 0 
z
" style="fill: #ffffff"/>
  </g>
  <g id="axes_1">
   <g id="patch_2">
    <path d="M 0 345.6 
L 804.102835 345.6 
L 804.102835 0 
L 0 0 
z
" style="fill: #212830"/>
   </g>
   <g id="patch_3">
    <path d="M 36.55013 329.890909 
L 767.552707 194.218756 
L 767.552707 194.218756 
L 765.934149 193.673028 
L 736.256633 183.809587 
L 706.733797 174.159066 
L 677.343645 164.726535 
L 648.075055 155.515549 
L 618.916121 146.534096 
L 589.84335 137.786786 
L 560.833533 129.271702 
L 531.874751 120.9879 
L 502.958082 112.938896 
L 474.066554 105.126645 
L 445.182404 97.549236 
L 416.299052 90.20317 
L 387.414821 83.090759 
L 358.520326 76.215313 
L 329.603068 69.57446 
L 300.660107 63.164894 
L 271.695428 56.98841 
L 242.704937 51.048155 
L 213.681676 45.343315 
L 184.622769 39.871095 
L 155.535019 34.631453 
L 126.42015 29.628254 
L 97.272485 24.862212 
L 68.091659 20.330144 
L 38.884888 16.033161 
L 36.550129 15.709091 
L 36.55013 329.890909 
" clip-path="url(#p76f99a56c5)" style="fill: none; stroke: #ff0000; stroke-width: 0.72; stroke-linejoin: miter"/>
   </g>
   <g id="patch_4">
    <path d="M 631.721792 289.536069 
L 631.721792 308.799282 
L 650.985005 308.799282 
L 650.985005 289.536069 
L 650.985005 328.062496 
" clip-path="url(#p76f99a56c5)" style="fill: none; stroke: #ff0000; stroke-width: 0.72; stroke-linejoin: miter"/>
   </g>
   <g id="patch_5">
    <path d="M 668.321898 289.536069 
L 660.616612 289.536069 
L 660.616612 328.062496 
L 668.321898 328.062496 
" clip-path="url(#p76f99a56c5)" style="fill: none; stroke: #ff0000; stroke-width: 0.72; stroke-linejoin: miter"/>
   </g>
   <g id="patch_6">
    <path d="M 672.174541 328.062496 
L 679.879826 328.062496 
L 679.879826 289.536069 
L 672.174541 289.536069 
" clip-path="url(#p76f99a56c5)" style="fill: none; stroke: #ff0000; stroke-width: 0.72; stroke-linejoin: miter"/>
   </g>
   <g id="patch_7">
    <path d="M 660.616612 308.799282 
L 668.321898 308.799282 
" clip-path="url(#p76f99a56c5)" style="fill: none; stroke: #ff0000; stroke-width: 0.72; stroke-linejoin: miter"/>
   </g>
   <g id="patch_8">
    <path d="M 672.174541 308.799282 
L 679.879826 308.799282 
" clip-path="url(#p76f99a56c5)" style="fill: none; stroke: #ff0000; stroke-width: 0.72; stroke-linejoin: miter"/>
   </g>
   <g id="patch_9">
    <path d="M 483.904387 123.750888 
L 469.028048 119.728423 
L 473.050513 104.852084 
L 487.926852 108.874549 
L 483.904387 123.750888 
" clip-path="url(#p76f99a56c5)" style="fill: none; stroke: #ff0000; stroke-width: 0.72; stroke-linejoin: miter"/>
   </g>
   <g id="patch_10">
    <path d="M 293.375702 162.587987 
L 312.638916 181.851201 
L 293.375702 201.114415 
L 274.112488 181.851201 
L 293.375702 162.587987 
" clip-path="url(#p76f99a56c5)" style="fill: none; stroke: #ff0000; stroke-width: 0.72; stroke-linejoin: miter"/>
   </g>
   <g id="line2d_1">
    <path d="M 36.550129 181.851201 
L 730.265547 181.851201 
" clip-path="url(#p76f99a56c5)" style="fill: none; stroke: #ffffff; stroke-width: 0.72; stroke-linecap: square"/>
   </g>
   <g id="line2d_2">
    <path d="M 270.259846 181.851201 
L 316.491559 181.851201 
" clip-path="url(#p76f99a56c5)" style="fill: none; stroke: #ffffff; stroke-width: 0.72; stroke-linecap: square"/>
   </g>
  </g>
 </g>
 <defs>
  <clipPath id="p76f99a56c5">
   <rect x="0" y="0" width="804.102835" height="345.6"/>
  </clipPath>
 </defs>
</svg>
