<?xml version="1.0" encoding="utf-8" standalone="no"?>
<!DOCTYPE svg PUBLIC "-//W3C//DTD SVG 1.1//EN"
  "http://www.w3.org/Graphics/SVG/1.1/DTD/svg11.dtd">
<svg xmlns:xlink="http://www.w3.org/1999/xlink" width="1152pt" height="184.356376pt" viewBox="0 0 1152 184.356376" xmlns="http://www.w3.org/2000/svg" version="1.1">
 <metadata>
  <rdf:RDF xmlns:dc="http://purl.org/dc/elements/1.1/" xmlns:cc="http://creativecommons.org/ns#" xmlns:rdf="http://www.w3.org/1999/02/22-rdf-syntax-ns#">
   <cc:Work>
    <dc:type rdf:resource="http://purl.org/dc/dcmitype/StillImage"/>
    <dc:date>2026-01-07T02:07:12.869572</dc:date>
    <dc:format>image/svg+xml</dc:format>
    <dc:creator>
     <cc:Agent>
      <dc:title>Matplotlib v3.10.1, https://matplotlib.org/</dc:title>
     </cc:Agent>
    </dc:creator>
   </cc:Work>
  </rdf:RDF>
 </metadata>
 <defs>
  <style type="text/css">*{stroke-linejoin: round; stroke-linecap: butt}</style>
 </defs>
 <g id="figure_1">
  <g id="patch_1">
   <path d="M 0 184.356376 
L 1152 184.356376 
L 1152 0 
L 0 0 
z
" style="fill: #ffffff"/>
  </g>
  <g id="axes_1">
   <g id="patch_2">
    <path d="M 0 184.356376 
L 1152 184.356376 
L 1152 0 
L 0 0 
z
" style="fill: #212830"/>
   </g>
   <g id="patch_3">
    <path d="M 1099.491571 175.003715 
L 1083.169489 169.158988 
L 1068.020016 163.92797 
L 1041.071237 154.669045 
L 1011.056785 144.116401 
L 968.776763 128.988929 
L 914.900779 109.703763 
L 882.812767 98.435132 
L 861.597511 91.147158 
L 842.012871 84.573917 
L 841.648415 85.66767 
L 829.704794 81.741354 
L 808.854256 75.076465 
L 788.095964 68.699516 
L 767.380471 62.618916 
L 746.67656 56.838302 
L 725.952999 51.360443 
L 705.196588 46.189186 
L 684.391956 41.330233 
L 663.535882 36.789838 
L 642.621417 32.574441 
L 621.64935 28.687777 
L 600.62102 25.134252 
L 579.542217 21.917691 
L 558.403519 19.044694 
L 537.19508 16.512969 
L 515.928283 14.320081 
L 494.623879 12.458373 
L 473.322191 10.938483 
L 452.037435 9.765229 
L 430.806923 8.942461 
L 409.649162 8.477564 
L 388.59927 8.379835 
L 367.673384 8.655496 
L 346.916842 9.311307 
L 326.351762 10.361014 
L 306.024176 11.809221 
L 285.974034 13.662514 
L 276.07428 14.745021 
L 266.262568 15.935715 
L 256.544396 17.232526 
L 246.931358 18.633976 
L 237.433007 20.141034 
L 228.058053 21.75257 
L 218.825 23.463925 
L 209.754301 25.275465 
L 200.857536 27.188136 
L 192.148413 29.193701 
L 183.654171 31.280563 
L 175.401328 33.444444 
L 167.408741 35.680366 
L 159.697947 37.975593 
L 152.293062 40.317365 
L 145.210861 42.694752 
L 138.465432 45.089333 
L 132.074584 47.481169 
L 126.049808 49.859918 
L 115.081337 54.546263 
L 105.490438 59.061514 
L 97.163416 63.369476 
L 89.950618 67.455447 
L 83.702065 71.339971 
L 78.273929 75.044475 
L 73.563105 78.585877 
L 69.473573 82.008254 
L 65.898407 85.310196 
L 62.771837 88.459984 
L 60.096097 91.469786 
L 57.879437 94.402768 
L 56.076193 97.297712 
L 54.625907 100.1267 
L 53.524706 102.833525 
L 52.796138 105.430955 
L 52.422986 107.977288 
L 52.388601 110.435814 
L 52.727812 112.898344 
L 53.064128 114.107125 
L 53.527842 115.304599 
L 54.124596 116.493215 
L 54.851013 117.670483 
L 56.661348 119.961978 
L 58.94539 122.135227 
L 61.735905 124.181551 
L 65.037257 126.115567 
L 68.852663 127.960204 
L 73.220755 129.72271 
L 78.218719 131.41789 
L 83.939022 133.082677 
L 90.502711 134.745436 
L 98.092158 136.41602 
L 106.936712 138.112068 
L 117.305498 139.832192 
L 129.490139 141.564162 
L 143.703082 143.274933 
L 160.003205 144.906356 
L 178.207109 146.396772 
L 197.978826 147.701439 
L 218.94184 148.797761 
L 240.804255 149.693408 
L 258.567239 150.277698 
L 258.531168 151.43001 
L 286.385359 152.237324 
L 309.60887 152.72591 
L 380.838736 153.823434 
L 477.290895 154.68806 
L 621.495923 155.52448 
L 669.118933 155.826288 
L 704.467042 156.191313 
L 739.430892 156.577548 
L 774.279589 156.910882 
L 820.503084 157.647962 
L 866.289979 158.870269 
L 888.83819 159.628361 
L 933.664212 161.559793 
L 955.529028 162.743051 
L 988.165667 164.86754 
L 1009.28085 166.412923 
L 1029.673785 168.121304 
L 1048.950045 169.93648 
L 1066.689225 171.887917 
L 1089.431715 174.648416 
L 1099.636364 175.976541 
L 1099.491571 175.003715 
L 1099.491571 175.003715 
" clip-path="url(#pead8e2574c)" style="fill: none; stroke: #ff0000; stroke-width: 0.72; stroke-linejoin: miter"/>
   </g>
   <g id="patch_4">
    <path d="M 739.451929 59.675939 
L 734.997689 58.481905 
L 736.191724 54.027664 
L 740.645964 55.221699 
L 739.451929 59.675939 
" clip-path="url(#pead8e2574c)" style="fill: none; stroke: #ff0000; stroke-width: 0.72; stroke-linejoin: miter"/>
   </g>
   <g id="patch_5">
    <path d="M 344.118635 14.056915 
L 339.512038 14.269599 
L 339.299354 9.663002 
L 343.905951 9.450318 
L 344.118635 14.056915 
" clip-path="url(#pead8e2574c)" style="fill: none; stroke: #ff0000; stroke-width: 0.72; stroke-linejoin: miter"/>
   </g>
   <g id="patch_6">
    <path d="M 164.677772 41.304882 
L 160.257961 42.62065 
L 158.942193 38.20084 
L 163.362004 36.885071 
L 164.677772 41.304882 
" clip-path="url(#pead8e2574c)" style="fill: none; stroke: #ff0000; stroke-width: 0.72; stroke-linejoin: miter"/>
   </g>
   <g id="patch_7">
    <path d="M 74.119699 85.578741 
L 72.409296 87.125032 
L 68.543569 82.849024 
L 70.253973 81.302733 
L 74.119699 85.578741 
" clip-path="url(#pead8e2574c)" style="fill: none; stroke: #ff0000; stroke-width: 0.72; stroke-linejoin: miter"/>
   </g>
   <g id="patch_8">
    <path d="M 63.417146 118.337707 
L 65.316224 119.645376 
L 62.04705 124.393069 
L 60.147973 123.0854 
L 63.417146 118.337707 
" clip-path="url(#pead8e2574c)" style="fill: none; stroke: #ff0000; stroke-width: 0.72; stroke-linejoin: miter"/>
   </g>
   <g id="patch_9">
    <path d="M 204.034694 143.418582 
L 208.639128 143.673845 
L 208.383865 148.278279 
L 203.779431 148.023016 
L 204.034694 143.418582 
" clip-path="url(#pead8e2574c)" style="fill: none; stroke: #ff0000; stroke-width: 0.72; stroke-linejoin: miter"/>
   </g>
   <g id="line2d_1">
    <path d="M 1077.868604 167.30807 
L 1077.493774 168.398311 
" clip-path="url(#pead8e2574c)" style="fill: none; stroke: #ff0000; stroke-width: 0.72; stroke-linecap: square"/>
   </g>
   <g id="line2d_2">
    <path d="M 1076.767422 171.929553 
L 1076.681147 173.079197 
" clip-path="url(#pead8e2574c)" style="fill: none; stroke: #ff0000; stroke-width: 0.72; stroke-linecap: square"/>
   </g>
   <g id="line2d_3">
    <path d="M 1056.05468 159.837943 
L 1055.680512 160.928412 
" clip-path="url(#pead8e2574c)" style="fill: none; stroke: #ff0000; stroke-width: 0.72; stroke-linecap: square"/>
   </g>
   <g id="line2d_4">
    <path d="M 1053.873717 169.299123 
L 1053.764772 170.44684 
" clip-path="url(#pead8e2574c)" style="fill: none; stroke: #ff0000; stroke-width: 0.72; stroke-linecap: square"/>
   </g>
   <g id="line2d_5">
    <path d="M 969.0949 129.103176 
L 968.714055 130.19133 
" clip-path="url(#pead8e2574c)" style="fill: none; stroke: #ff0000; stroke-width: 0.72; stroke-linecap: square"/>
   </g>
   <g id="line2d_6">
    <path d="M 961.917974 161.993369 
L 961.820787 163.142142 
" clip-path="url(#pead8e2574c)" style="fill: none; stroke: #ff0000; stroke-width: 0.72; stroke-linecap: square"/>
   </g>
   <g id="patch_10">
    <path d="M 510.234762 81.661353 
L 510.120335 77.802807 
L 509.777508 73.959591 
L 509.207644 70.146973 
L 508.413006 66.380103 
L 507.396752 62.673944 
L 506.162919 59.043221 
L 504.716409 55.502361 
L 503.062969 52.065429 
L 501.209168 48.746081 
L 499.162372 45.557504 
L 496.930711 42.512368 
L 494.523053 39.622769 
L 491.948963 36.900189 
L 489.218668 34.355444 
L 486.343016 31.998644 
L 483.33343 29.839153 
L 480.201868 27.88555 
L 476.960773 26.145597 
L 473.623019 24.626207 
L 470.20187 23.333417 
L 466.710915 22.272362 
L 463.164026 21.447258 
L 459.575293 20.861383 
L 455.958976 20.517065 
L 452.32944 20.415672 
L 448.701106 20.557607 
L 445.088391 20.942305 
L 441.505646 21.568239 
L 437.967106 22.432921 
L 434.486829 23.532917 
L 431.078643 24.863855 
L 427.756088 26.420449 
L 424.532365 28.196513 
L 421.420281 30.184992 
L 418.432201 32.377985 
L 415.579996 34.76678 
L 412.874998 37.341886 
L 410.327954 40.093073 
L 407.948984 43.009409 
L 405.747538 46.079308 
L 403.732363 49.290574 
L 401.911465 52.630448 
L 400.292079 56.085662 
L 398.880639 59.642487 
L 397.682752 63.286792 
L 396.703177 67.0041 
L 395.945806 70.77964 
L 395.413648 74.598413 
L 395.108818 78.445247 
L 395.032526 82.304858 
L 395.185076 86.161913 
L 395.565861 90.001087 
L 396.173369 93.807128 
L 397.005186 97.564913 
L 398.058008 101.259514 
L 399.32765 104.876253 
L 400.80907 108.400758 
L 402.496382 111.819029 
L 404.382881 115.117484 
L 406.461073 118.283019 
L 408.722701 121.303057 
L 411.158781 124.165599 
L 413.759632 126.859272 
L 416.514923 129.373376 
L 419.413706 131.69792 
L 422.444465 133.823671 
L 425.595159 135.742182 
L 428.85327 137.445831 
L 432.205853 138.927849 
L 435.639589 140.182349 
L 439.140835 141.204347 
L 442.695682 141.989781 
L 446.290006 142.535532 
L 449.909527 142.839432 
L 453.539864 142.900272 
L 457.166595 142.717812 
L 460.77531 142.292775 
L 464.351672 141.626852 
L 467.881472 140.722687 
L 471.350686 139.583872 
L 474.745532 138.214933 
L 478.052522 136.621307 
L 481.258516 134.809327 
L 484.350779 132.786192 
L 487.317024 130.559938 
L 490.145466 128.139412 
L 492.824868 125.534229 
L 495.344585 122.754741 
L 497.694606 119.811989 
L 499.865595 116.717666 
L 501.848925 113.484065 
L 503.636719 110.124033 
L 505.221872 106.650919 
L 506.598087 103.078522 
L 507.759896 99.421036 
L 508.702683 95.69299 
L 509.422704 91.909198 
L 509.917096 88.084691 
L 510.183896 84.234664 
L 510.234762 81.661353 
L 510.234762 81.661353 
" clip-path="url(#pead8e2574c)" style="fill: none; stroke: #ff0000; stroke-width: 0.72; stroke-linejoin: miter"/>
   </g>
   <g id="line2d_7">
    <path d="M 69.876938 81.661353 
L 829.456773 81.661353 
" clip-path="url(#pead8e2574c)" style="fill: none; stroke: #ffffff; stroke-width: 0.72; stroke-linecap: square"/>
   </g>
   <g id="line2d_8">
    <path d="M 219.371865 81.661353 
L 233.206379 81.661353 
" clip-path="url(#pead8e2574c)" style="fill: none; stroke: #ffffff; stroke-width: 0.72; stroke-linecap: square"/>
   </g>
   <g id="patch_11">
    <path d="M 226.289122 75.896972 
L 232.053503 81.661353 
L 226.289122 87.425733 
L 220.524741 81.661353 
L 226.289122 75.896972 
" clip-path="url(#pead8e2574c)" style="fill: none; stroke: #ff0000; stroke-width: 0.72; stroke-linejoin: miter"/>
   </g>
   <g id="line2d_9">
    <path d="M 442.749599 81.661353 
L 456.584112 81.661353 
" clip-path="url(#pead8e2574c)" style="fill: none; stroke: #ffffff; stroke-width: 0.72; stroke-linecap: square"/>
   </g>
   <g id="patch_12">
    <path d="M 449.666855 75.896972 
L 455.431236 81.661353 
L 449.666855 87.425733 
L 443.902475 81.661353 
L 449.666855 75.896972 
" clip-path="url(#pead8e2574c)" style="fill: none; stroke: #ff0000; stroke-width: 0.72; stroke-linejoin: miter"/>
   </g>
   <g id="line2d_10">
    <path d="M 666.127332 81.661353 
L 679.961846 81.661353 
" clip-path="url(#pead8e2574c)" style="fill: none; stroke: #ffffff; stroke-width: 0.72; stroke-linecap: square"/>
   </g>
   <g id="patch_13">
    <path d="M 673.044589 75.896972 
L 678.80897 81.661353 
L 673.044589 87.425733 
L 667.280208 81.661353 
L 673.044589 75.896972 
" clip-path="url(#pead8e2574c)" style="fill: none; stroke: #ff0000; stroke-width: 0.72; stroke-linejoin: miter"/>
   </g>
   <g id="line2d_11">
    <path d="M 52.488157 107.403394 
L 1098.780007 174.747156 
" clip-path="url(#pead8e2574c)" style="fill: none; stroke: #ffffff; stroke-width: 0.72; stroke-linecap: square"/>
   </g>
   <g id="line2d_12">
    <path d="M 259.330487 120.716639 
L 273.136432 121.605248 
" clip-path="url(#pead8e2574c)" style="fill: none; stroke: #ffffff; stroke-width: 0.72; stroke-linecap: square"/>
   </g>
   <g id="patch_14">
    <path d="M 266.603713 115.408467 
L 271.985937 121.531198 
L 265.863206 126.913421 
L 260.480982 120.79069 
L 266.603713 115.408467 
" clip-path="url(#pead8e2574c)" style="fill: none; stroke: #ff0000; stroke-width: 0.72; stroke-linejoin: miter"/>
   </g>
   <g id="line2d_13">
    <path d="M 517.164339 137.311915 
L 530.970285 138.200524 
" clip-path="url(#pead8e2574c)" style="fill: none; stroke: #ffffff; stroke-width: 0.72; stroke-linecap: square"/>
   </g>
   <g id="patch_15">
    <path d="M 524.437565 132.003742 
L 529.819789 138.126473 
L 523.697058 143.508697 
L 518.314834 137.385966 
L 524.437565 132.003742 
" clip-path="url(#pead8e2574c)" style="fill: none; stroke: #ff0000; stroke-width: 0.72; stroke-linejoin: miter"/>
   </g>
   <g id="line2d_14">
    <path d="M 452.632054 20.414827 
L 452.632054 19.261951 
" clip-path="url(#pead8e2574c)" style="fill: none; stroke: #ff0000; stroke-width: 0.72; stroke-linecap: square"/>
   </g>
   <g id="line2d_15">
    <path d="M 452.632054 142.907879 
L 452.632054 144.060755 
" clip-path="url(#pead8e2574c)" style="fill: none; stroke: #ff0000; stroke-width: 0.72; stroke-linecap: square"/>
   </g>
   <g id="line2d_16">
    <path d="M 510.234762 81.661353 
L 511.387638 81.661353 
" clip-path="url(#pead8e2574c)" style="fill: none; stroke: #ff0000; stroke-width: 0.72; stroke-linecap: square"/>
   </g>
   <g id="line2d_17">
    <path d="M 395.029347 81.661353 
L 393.876471 81.661353 
" clip-path="url(#pead8e2574c)" style="fill: none; stroke: #ff0000; stroke-width: 0.72; stroke-linecap: square"/>
   </g>
   <g id="line2d_18">
    <path d="M 279.700635 152.055678 
L 279.700635 14.348491 
" clip-path="url(#pead8e2574c)" style="fill: none; stroke: #ffffff; stroke-width: 0.72; stroke-linecap: square"/>
   </g>
   <g id="line2d_19">
    <path d="M 279.700635 108.527311 
L 279.700635 94.692797 
" clip-path="url(#pead8e2574c)" style="fill: none; stroke: #ffffff; stroke-width: 0.72; stroke-linecap: square"/>
   </g>
   <g id="patch_16">
    <path d="M 273.936254 101.610054 
L 279.700635 95.845673 
L 285.465015 101.610054 
L 279.700635 107.374435 
L 273.936254 101.610054 
" clip-path="url(#pead8e2574c)" style="fill: none; stroke: #ff0000; stroke-width: 0.72; stroke-linejoin: miter"/>
   </g>
   <g id="line2d_20">
    <path d="M 279.700635 71.711371 
L 279.700635 57.876858 
" clip-path="url(#pead8e2574c)" style="fill: none; stroke: #ffffff; stroke-width: 0.72; stroke-linecap: square"/>
   </g>
   <g id="patch_17">
    <path d="M 273.936254 64.794115 
L 279.700635 59.029734 
L 285.465015 64.794115 
L 279.700635 70.558495 
L 273.936254 64.794115 
" clip-path="url(#pead8e2574c)" style="fill: none; stroke: #ff0000; stroke-width: 0.72; stroke-linejoin: miter"/>
   </g>
   <g id="line2d_21">
    <path d="M 798.494894 157.25762 
L 798.494894 71.859728 
" clip-path="url(#pead8e2574c)" style="fill: none; stroke: #ffffff; stroke-width: 0.72; stroke-linecap: square"/>
   </g>
   <g id="line2d_22">
    <path d="M 798.494894 132.037506 
L 798.494894 118.202993 
" clip-path="url(#pead8e2574c)" style="fill: none; stroke: #ffffff; stroke-width: 0.72; stroke-linecap: square"/>
   </g>
   <g id="patch_18">
    <path d="M 792.730513 125.120249 
L 798.494894 119.355869 
L 804.259274 125.120249 
L 798.494894 130.88463 
L 792.730513 125.120249 
" clip-path="url(#pead8e2574c)" style="fill: none; stroke: #ff0000; stroke-width: 0.72; stroke-linejoin: miter"/>
   </g>
   <g id="line2d_23">
    <path d="M 798.494894 110.914355 
L 798.494894 97.079842 
" clip-path="url(#pead8e2574c)" style="fill: none; stroke: #ffffff; stroke-width: 0.72; stroke-linecap: square"/>
   </g>
   <g id="patch_19">
    <path d="M 792.730513 103.997099 
L 798.494894 98.232718 
L 804.259274 103.997099 
L 798.494894 109.761479 
L 792.730513 103.997099 
" clip-path="url(#pead8e2574c)" style="fill: none; stroke: #ff0000; stroke-width: 0.72; stroke-linejoin: miter"/>
   </g>
   <g id="patch_20">
    <path d="M 347.521091 122.688073 
L 353.285472 122.688073 
L 353.285472 128.452454 
L 347.521091 128.452454 
L 353.285472 128.452454 
L 353.285472 134.216834 
L 347.521091 134.216834 
" clip-path="url(#pead8e2574c)" style="fill: none; stroke: #ff0000; stroke-width: 0.72; stroke-linejoin: miter"/>
   </g>
   <g id="patch_21">
    <path d="M 359.049853 122.688073 
L 359.049853 134.216834 
" clip-path="url(#pead8e2574c)" style="fill: none; stroke: #ff0000; stroke-width: 0.72; stroke-linejoin: miter"/>
   </g>
  </g>
 </g>
 <defs>
  <clipPath id="pead8e2574c">
   <rect x="0" y="0" width="1152" height="184.356376"/>
  </clipPath>
 </defs>
</svg>
