<?xml version="1.0" encoding="utf-8" standalone="no"?>
<!DOCTYPE svg PUBLIC "-//W3C//DTD SVG 1.1//EN"
  "http://www.w3.org/Graphics/SVG/1.1/DTD/svg11.dtd">
<svg xmlns:xlink="http://www.w3.org/1999/xlink" width="1152pt" height="325.026118pt" viewBox="0 0 1152 325.026118" xmlns="http://www.w3.org/2000/svg" version="1.1">
 <metadata>
  <rdf:RDF xmlns:dc="http://purl.org/dc/elements/1.1/" xmlns:cc="http://creativecommons.org/ns#" xmlns:rdf="http://www.w3.org/1999/02/22-rdf-syntax-ns#">
   <cc:Work>
    <dc:type rdf:resource="http://purl.org/dc/dcmitype/StillImage"/>
    <dc:date>2026-01-07T02:07:10.185892</dc:date>
    <dc:format>image/svg+xml</dc:format>
    <dc:creator>
     <cc:Agent>
      <dc:title>Matplotlib v3.10.1, https://matplotlib.org/</dc:title>
     </cc:Agent>
    </dc:creator>
   </cc:Work>
  </rdf:RDF>
 </metadata>
 <defs>
  <style type="text/css">*{stroke-linejoin: round; stroke-linecap: butt}</style>
 </defs>
 <g id="figure_1">
  <g id="patch_1">
   <path d="M 0 325.026118 
L 1152 325.026118 
L 1152 0 
L 0 0 
z
" style="fill: #ffffff"/>
  </g>
  <g id="axes_1">
   <g id="patch_2">
    <path d="M 0 325.026118 
L 1152 325.026118 
L 1152 0 
L 0 0 
z
" style="fill: #212830"/>
   </g>
   <g id="patch_3">
    <path d="M 1099.636364 42.286026 
L 1091.772375 41.098209 
L 1069.929399 37.981798 
L 1048.076404 35.056877 
L 1026.212148 32.333934 
L 1004.329607 29.814656 
L 982.429853 27.490766 
L 960.527732 25.352766 
L 938.640767 23.401924 
L 916.779473 21.645722 
L 894.949796 20.090981 
L 873.154689 18.740414 
L 851.394713 17.592505 
L 829.674184 16.639743 
L 808.011412 15.874778 
L 786.430235 15.300608 
L 764.940605 14.930986 
L 743.538274 14.773914 
L 722.221655 14.823459 
L 701.002093 15.067875 
L 679.897401 15.499323 
L 658.93126 16.115358 
L 638.131682 16.924052 
L 617.511888 17.944686 
L 597.061799 19.19153 
L 576.768719 20.654561 
L 556.646565 22.307268 
L 536.735069 24.132003 
L 517.077065 26.13562 
L 497.701136 28.339519 
L 478.611539 30.76345 
L 459.79565 33.406355 
L 441.255025 36.237197 
L 423.03366 39.213801 
L 405.201424 42.319019 
L 387.813343 45.570471 
L 370.882105 48.996471 
L 354.385742 52.598868 
L 338.311884 56.333384 
L 322.699605 60.13436 
L 307.621431 63.970057 
L 293.118578 67.860063 
L 279.174371 71.831298 
L 265.748695 75.87794 
L 252.817086 79.968543 
L 240.37467 84.073344 
L 228.426122 88.175305 
L 216.97439 92.269567 
L 206.015075 96.362673 
L 195.529634 100.470261 
L 185.487441 104.604276 
L 175.857467 108.763814 
L 166.619814 112.935851 
L 157.770165 117.106453 
L 149.310244 121.272916 
L 141.235143 125.443426 
L 133.530733 129.624424 
L 126.184717 133.807778 
L 119.195029 137.980009 
L 112.560777 142.136295 
L 106.273572 146.281277 
L 100.324442 150.415089 
L 94.71583 154.533805 
L 89.458472 158.634398 
L 84.560631 162.720417 
L 80.024643 166.79334 
L 75.847767 170.85181 
L 72.01461 174.902119 
L 68.500256 178.94371 
L 65.294105 182.946266 
L 62.422081 186.855671 
L 59.925348 190.649104 
L 57.818003 194.361779 
L 56.078593 198.042494 
L 54.678133 201.693089 
L 53.603496 205.269534 
L 52.855062 208.774279 
L 52.434226 212.359579 
L 52.363636 215.572184 
L 52.631794 218.821253 
L 53.266845 221.952346 
L 54.309417 225.004152 
L 55.794793 228.024783 
L 57.721651 231.026902 
L 60.06055 233.985157 
L 62.802234 236.869968 
L 65.973702 239.671631 
L 69.605278 242.395378 
L 73.697457 245.044114 
L 78.237613 247.612029 
L 83.22793 250.09429 
L 88.683877 252.497223 
L 94.609279 254.834322 
L 100.996315 257.114555 
L 107.837266 259.339107 
L 115.132608 261.505761 
L 122.885861 263.614271 
L 131.104398 265.665883 
L 139.801434 267.664703 
L 148.988012 269.618568 
L 158.671189 271.530858 
L 168.864018 273.396987 
L 179.595612 275.212058 
L 190.898678 276.98128 
L 202.798471 278.713967 
L 215.316856 280.412583 
L 228.486755 282.073095 
L 242.347099 283.694967 
L 256.929542 285.283775 
L 272.254305 286.841262 
L 288.337556 288.360068 
L 305.190348 289.832059 
L 322.808516 291.253699 
L 341.166423 292.61993 
L 360.226146 293.919923 
L 400.274706 296.300926 
L 442.514373 298.380564 
L 462.662762 299.233522 
L 462.574843 301.310315 
L 486.478902 302.231712 
L 532.031478 303.701948 
L 578.848769 304.940857 
L 626.504185 305.936158 
L 675.092529 306.665577 
L 774.460093 307.969061 
L 850.172603 308.627866 
L 978.036693 309.620695 
L 1054.888612 310.016069 
L 1099.636364 310.252203 
L 1099.636364 42.286026 
L 1099.636364 42.286026 
" clip-path="url(#p5863db0a5e)" style="fill: none; stroke: #ff0000; stroke-width: 0.72; stroke-linejoin: miter"/>
   </g>
   <g id="patch_4">
    <path d="M 639.65096 245.961326 
L 650.044227 245.961326 
L 650.044227 256.354593 
L 639.65096 256.354593 
L 639.65096 266.74786 
L 650.044227 266.74786 
" clip-path="url(#p5863db0a5e)" style="fill: none; stroke: #ff0000; stroke-width: 0.72; stroke-linejoin: miter"/>
   </g>
   <g id="patch_5">
    <path d="M 655.24086 245.961326 
L 665.634127 245.961326 
L 665.634127 256.354593 
L 655.24086 256.354593 
L 665.634127 256.354593 
L 665.634127 266.74786 
L 655.24086 266.74786 
" clip-path="url(#p5863db0a5e)" style="fill: none; stroke: #ff0000; stroke-width: 0.72; stroke-linejoin: miter"/>
   </g>
   <g id="patch_6">
    <path d="M 632.546676 25.52535 
L 624.242234 25.936483 
L 623.8311 17.632041 
L 632.135543 17.220907 
L 632.546676 25.52535 
" clip-path="url(#p5863db0a5e)" style="fill: none; stroke: #ff0000; stroke-width: 0.72; stroke-linejoin: miter"/>
   </g>
   <g id="patch_7">
    <path d="M 275.192948 81.715574 
L 267.23214 84.115225 
L 264.832488 76.154416 
L 272.793297 73.754765 
L 275.192948 81.715574 
" clip-path="url(#p5863db0a5e)" style="fill: none; stroke: #ff0000; stroke-width: 0.72; stroke-linejoin: miter"/>
   </g>
   <g id="patch_8">
    <path d="M 94.446165 168.009437 
L 91.254737 170.673642 
L 84.594225 162.695072 
L 87.785654 160.030867 
L 94.446165 168.009437 
" clip-path="url(#p5863db0a5e)" style="fill: none; stroke: #ff0000; stroke-width: 0.72; stroke-linejoin: miter"/>
   </g>
   <g id="patch_9">
    <path d="M 73.722509 232.682318 
L 77.215074 234.937354 
L 71.577486 243.668768 
L 68.084921 241.413733 
L 73.722509 232.682318 
" clip-path="url(#p5863db0a5e)" style="fill: none; stroke: #ff0000; stroke-width: 0.72; stroke-linejoin: miter"/>
   </g>
   <g id="patch_10">
    <path d="M 354.752865 285.212642 
L 363.048207 285.778412 
L 362.482437 294.073754 
L 354.187095 293.507984 
L 354.752865 285.212642 
" clip-path="url(#p5863db0a5e)" style="fill: none; stroke: #ff0000; stroke-width: 0.72; stroke-linejoin: miter"/>
   </g>
   <g id="patch_11">
    <path d="M 965.264972 162.205722 
L 965.162071 157.004867 
L 964.853549 151.813197 
L 964.339952 146.639881 
L 963.622186 141.494056 
L 962.701519 136.384809 
L 961.579577 131.321165 
L 960.258341 126.312066 
L 958.740146 121.366358 
L 957.027671 116.492776 
L 955.123942 111.699927 
L 953.032321 106.996277 
L 950.756502 102.390131 
L 948.300503 97.889625 
L 945.668663 93.502708 
L 942.86563 89.237126 
L 939.896354 85.100414 
L 936.766079 81.099876 
L 933.480333 77.242579 
L 930.044919 73.535335 
L 926.465905 69.984691 
L 922.749612 66.596918 
L 918.902602 63.377999 
L 914.93167 60.333618 
L 910.843829 57.469154 
L 906.646299 54.789663 
L 902.346492 52.29988 
L 897.952003 50.0042 
L 893.470593 47.906678 
L 888.910176 46.01102 
L 884.278806 44.320571 
L 879.584663 42.838319 
L 874.836037 41.566881 
L 870.041314 40.508502 
L 865.208963 39.665052 
L 860.347518 39.038019 
L 855.465565 38.628513 
L 850.571725 38.437255 
L 845.674642 38.464583 
L 840.782964 38.71045 
L 835.90533 39.174421 
L 831.050356 39.855677 
L 826.226614 40.753014 
L 821.442625 41.864848 
L 816.706837 43.189214 
L 812.027614 44.723775 
L 807.41322 46.465821 
L 802.871805 48.412273 
L 798.411388 50.559695 
L 794.039849 52.904294 
L 789.764906 55.44193 
L 785.59411 58.168121 
L 781.534828 61.078051 
L 777.594227 64.166582 
L 773.779269 67.42826 
L 770.096689 70.857323 
L 766.552992 74.447716 
L 763.154437 78.193098 
L 759.907025 82.086854 
L 756.816493 86.122107 
L 753.888297 90.29173 
L 751.127609 94.588361 
L 748.539306 99.00441 
L 746.127958 103.532079 
L 743.897824 108.16337 
L 741.852842 112.890105 
L 739.996625 117.703937 
L 738.33245 122.596362 
L 736.863256 127.558741 
L 735.591639 132.58231 
L 734.519844 137.658197 
L 733.649764 142.777437 
L 732.982935 147.930989 
L 732.520536 153.109752 
L 732.263383 158.304579 
L 732.211929 163.506295 
L 732.366267 168.705715 
L 732.726123 173.893655 
L 733.290861 179.060953 
L 734.059485 184.198484 
L 735.030637 189.297173 
L 736.202602 194.348016 
L 737.57331 199.342092 
L 739.14034 204.270583 
L 740.900925 209.124783 
L 742.851955 213.89612 
L 744.989985 218.576166 
L 747.311239 223.156658 
L 749.811617 227.629504 
L 752.486703 231.986806 
L 755.331772 236.220868 
L 758.341801 240.324212 
L 761.511473 244.289592 
L 764.835191 248.110004 
L 768.307083 251.778702 
L 771.921019 255.289205 
L 775.670616 258.635314 
L 779.549252 261.81112 
L 783.550077 264.811013 
L 787.666025 267.629696 
L 791.889827 270.26219 
L 796.214023 272.703847 
L 800.630976 274.950353 
L 805.132886 276.997743 
L 809.711801 278.842399 
L 814.359636 280.481064 
L 819.068181 281.910843 
L 823.829121 283.129212 
L 828.634047 284.13402 
L 833.474474 284.92349 
L 838.341852 285.49623 
L 843.227587 285.851227 
L 848.123048 285.987855 
L 853.019591 285.905873 
L 857.908567 285.605424 
L 862.781342 285.08704 
L 867.62931 284.351636 
L 872.44391 283.400512 
L 877.216638 282.235346 
L 881.939065 280.858196 
L 886.602852 279.271496 
L 891.19976 277.478046 
L 895.721672 275.481015 
L 900.160602 273.28393 
L 904.50871 270.89067 
L 908.758317 268.305462 
L 912.901917 265.532872 
L 916.932193 262.577797 
L 920.842027 259.445456 
L 924.624514 256.14138 
L 928.272973 252.671405 
L 931.780961 249.04166 
L 935.142283 245.258554 
L 938.351002 241.328769 
L 941.401451 237.259246 
L 944.288244 233.057171 
L 947.00628 228.729966 
L 949.550761 224.285273 
L 951.917193 219.730942 
L 954.101395 215.075016 
L 956.099511 210.325718 
L 957.908012 205.491435 
L 959.523704 200.580706 
L 960.943733 195.602203 
L 962.165592 190.564719 
L 963.187122 185.47715 
L 964.006519 180.348482 
L 964.622337 175.187772 
L 965.033487 170.004135 
L 965.239244 164.806724 
L 965.264972 162.205722 
L 965.264972 162.205722 
" clip-path="url(#p5863db0a5e)" style="fill: none; stroke: #ff0000; stroke-width: 0.72; stroke-linejoin: miter"/>
   </g>
   <g id="patch_12">
    <path d="M 395.228063 151.812456 
L 405.62133 162.205722 
L 395.228063 172.598989 
L 384.834797 162.205722 
L 395.228063 151.812456 
" clip-path="url(#p5863db0a5e)" style="fill: none; stroke: #ff0000; stroke-width: 0.72; stroke-linejoin: miter"/>
   </g>
   <g id="patch_13">
    <path d="M 840.036907 151.812456 
L 850.430174 162.205722 
L 840.036907 172.598989 
L 829.643641 162.205722 
L 840.036907 151.812456 
" clip-path="url(#p5863db0a5e)" style="fill: none; stroke: #ff0000; stroke-width: 0.72; stroke-linejoin: miter"/>
   </g>
   <g id="patch_14">
    <path d="M 477.760173 227.426058 
L 487.460813 238.468593 
L 476.418278 248.169233 
L 466.717638 237.126698 
L 477.760173 227.426058 
" clip-path="url(#p5863db0a5e)" style="fill: none; stroke: #ff0000; stroke-width: 0.72; stroke-linejoin: miter"/>
   </g>
   <g id="patch_15">
    <path d="M 991.429016 260.655769 
L 1001.129656 271.698304 
L 990.087121 281.398943 
L 980.386481 270.356409 
L 991.429016 260.655769 
" clip-path="url(#p5863db0a5e)" style="fill: none; stroke: #ff0000; stroke-width: 0.72; stroke-linejoin: miter"/>
   </g>
   <g id="patch_16">
    <path d="M 526.543964 201.880546 
L 536.937231 191.487279 
L 547.330497 201.880546 
L 536.937231 212.273813 
L 526.543964 201.880546 
" clip-path="url(#p5863db0a5e)" style="fill: none; stroke: #ff0000; stroke-width: 0.72; stroke-linejoin: miter"/>
   </g>
   <g id="patch_17">
    <path d="M 526.543964 126.070166 
L 536.937231 115.676899 
L 547.330497 126.070166 
L 536.937231 136.463433 
L 526.543964 126.070166 
" clip-path="url(#p5863db0a5e)" style="fill: none; stroke: #ff0000; stroke-width: 0.72; stroke-linejoin: miter"/>
   </g>
   <g id="line2d_1">
    <path d="M 85.177587 162.205722 
L 1099.636364 162.205722 
" clip-path="url(#p5863db0a5e)" style="fill: none; stroke: #ffffff; stroke-width: 0.72; stroke-linecap: square"/>
   </g>
   <g id="line2d_2">
    <path d="M 382.756143 162.205722 
L 407.699983 162.205722 
" clip-path="url(#p5863db0a5e)" style="fill: none; stroke: #ffffff; stroke-width: 0.72; stroke-linecap: square"/>
   </g>
   <g id="line2d_3">
    <path d="M 827.564987 162.205722 
L 852.508827 162.205722 
" clip-path="url(#p5863db0a5e)" style="fill: none; stroke: #ffffff; stroke-width: 0.72; stroke-linecap: square"/>
   </g>
   <g id="line2d_4">
    <path d="M 52.671088 210.341645 
L 1099.636364 278.070793 
" clip-path="url(#p5863db0a5e)" style="fill: none; stroke: #ffffff; stroke-width: 0.72; stroke-linecap: square"/>
   </g>
   <g id="line2d_5">
    <path d="M 464.643321 236.992508 
L 489.53513 238.602782 
" clip-path="url(#p5863db0a5e)" style="fill: none; stroke: #ffffff; stroke-width: 0.72; stroke-linecap: square"/>
   </g>
   <g id="line2d_6">
    <path d="M 978.312164 270.222219 
L 1003.203973 271.832493 
" clip-path="url(#p5863db0a5e)" style="fill: none; stroke: #ffffff; stroke-width: 0.72; stroke-linecap: square"/>
   </g>
   <g id="line2d_7">
    <path d="M 848.735234 38.421881 
L 848.735234 36.343228 
" clip-path="url(#p5863db0a5e)" style="fill: none; stroke: #ff0000; stroke-width: 0.72; stroke-linecap: square"/>
   </g>
   <g id="line2d_8">
    <path d="M 848.735234 285.989564 
L 848.735234 288.068217 
" clip-path="url(#p5863db0a5e)" style="fill: none; stroke: #ff0000; stroke-width: 0.72; stroke-linecap: square"/>
   </g>
   <g id="line2d_9">
    <path d="M 965.264972 162.205722 
L 967.343625 162.205722 
" clip-path="url(#p5863db0a5e)" style="fill: none; stroke: #ff0000; stroke-width: 0.72; stroke-linecap: square"/>
   </g>
   <g id="line2d_10">
    <path d="M 732.205497 162.205722 
L 730.126844 162.205722 
" clip-path="url(#p5863db0a5e)" style="fill: none; stroke: #ff0000; stroke-width: 0.72; stroke-linecap: square"/>
   </g>
   <g id="line2d_11">
    <path d="M 536.937231 303.837236 
L 536.937231 24.113476 
" clip-path="url(#p5863db0a5e)" style="fill: none; stroke: #ffffff; stroke-width: 0.72; stroke-linecap: square"/>
   </g>
   <g id="line2d_12">
    <path d="M 536.937231 214.352466 
L 536.937231 189.408626 
" clip-path="url(#p5863db0a5e)" style="fill: none; stroke: #ffffff; stroke-width: 0.72; stroke-linecap: square"/>
   </g>
   <g id="line2d_13">
    <path d="M 536.937231 138.542086 
L 536.937231 113.598246 
" clip-path="url(#p5863db0a5e)" style="fill: none; stroke: #ffffff; stroke-width: 0.72; stroke-linecap: square"/>
   </g>
  </g>
 </g>
 <defs>
  <clipPath id="p5863db0a5e">
   <rect x="0" y="0" width="1152" height="325.026118"/>
  </clipPath>
 </defs>
</svg>
