<?xml version="1.0" encoding="utf-8" standalone="no"?>
<!DOCTYPE svg PUBLIC "-//W3C//DTD SVG 1.1//EN"
  "http://www.w3.org/Graphics/SVG/1.1/DTD/svg11.dtd">
<svg xmlns:xlink="http://www.w3.org/1999/xlink" width="1152pt" height="332.239252pt" viewBox="0 0 1152 332.239252" xmlns="http://www.w3.org/2000/svg" version="1.1">
 <metadata>
  <rdf:RDF xmlns:dc="http://purl.org/dc/elements/1.1/" xmlns:cc="http://creativecommons.org/ns#" xmlns:rdf="http://www.w3.org/1999/02/22-rdf-syntax-ns#">
   <cc:Work>
    <dc:type rdf:resource="http://purl.org/dc/dcmitype/StillImage"/>
    <dc:date>2026-01-07T02:07:08.111732</dc:date>
    <dc:format>image/svg+xml</dc:format>
    <dc:creator>
     <cc:Agent>
      <dc:title>Matplotlib v3.10.1, https://matplotlib.org/</dc:title>
     </cc:Agent>
    </dc:creator>
   </cc:Work>
  </rdf:RDF>
 </metadata>
 <defs>
  <style type="text/css">*{stroke-linejoin: round; stroke-linecap: butt}</style>
 </defs>
 <g id="figure_1">
  <g id="patch_1">
   <path d="M 0 332.239252 
L 1152 332.239252 
L 1152 0 
L 0 0 
z
" style="fill: #ffffff"/>
  </g>
  <g id="axes_1">
   <g id="patch_2">
    <path d="M 0 332.239252 
L 1152 332.239252 
L 1152 0 
L 0 0 
z
" style="fill: #212830"/>
   </g>
   <g id="patch_3">
    <path d="M 1099.636364 41.735703 
L 1083.619291 39.412733 
L 1061.146997 36.352147 
L 1038.677439 33.485413 
L 1016.227297 30.825965 
L 993.798352 28.385348 
L 971.388262 26.164948 
L 948.996674 24.158857 
L 926.630351 22.354759 
L 904.310967 20.741135 
L 882.068805 19.320154 
L 859.918877 18.110464 
L 837.852391 17.125198 
L 815.857535 16.355139 
L 793.942246 15.77762 
L 772.133321 15.37544 
L 750.465385 15.14551 
L 728.971694 15.101784 
L 707.664026 15.271895 
L 686.522349 15.676283 
L 665.516605 16.300236 
L 644.653439 17.099603 
L 623.987277 18.042468 
L 603.579967 19.142791 
L 583.454664 20.444698 
L 563.588884 21.981819 
L 543.9435 23.750677 
L 524.500892 25.709079 
L 505.296823 27.800669 
L 486.412875 30.002563 
L 467.917251 32.35343 
L 449.801759 34.920877 
L 431.993425 37.72592 
L 414.444984 40.707466 
L 397.201975 43.779188 
L 380.363689 46.916039 
L 363.985512 50.167607 
L 348.04324 53.590166 
L 332.481446 57.191031 
L 317.271023 60.933638 
L 302.419922 64.774827 
L 287.959563 68.687868 
L 273.923281 72.668537 
L 260.331683 76.73192 
L 247.180321 80.902144 
L 234.445256 85.192414 
L 222.100917 89.595303 
L 210.138206 94.085992 
L 198.569774 98.639942 
L 187.415124 103.247697 
L 176.681785 107.91435 
L 166.363619 112.641752 
L 156.458783 117.415542 
L 146.982037 122.217893 
L 137.949046 127.04772 
L 129.357524 131.914976 
L 121.195737 136.818666 
L 113.463463 141.743684 
L 106.173377 146.674676 
L 99.337356 151.606509 
L 92.964015 156.534429 
L 87.05958 161.456714 
L 81.613643 166.384369 
L 76.5959 171.320795 
L 71.990159 176.224614 
L 67.834201 181.020021 
L 64.193676 185.673047 
L 61.094495 190.230521 
L 58.503376 194.761488 
L 56.373822 199.270549 
L 54.688451 203.698501 
L 53.455573 208.008477 
L 52.682933 212.198998 
L 52.363636 216.570523 
L 52.506632 220.14776 
L 53.122125 223.853013 
L 54.264779 227.432994 
L 55.985208 230.965598 
L 58.285212 234.477476 
L 61.127636 237.938226 
L 64.504148 241.306984 
L 68.456272 244.570182 
L 73.024506 247.738245 
L 78.205127 250.819927 
L 83.977647 253.806706 
L 90.347336 256.686184 
L 97.338161 259.462564 
L 104.955531 262.15491 
L 113.18138 264.778264 
L 121.994858 267.33507 
L 131.383605 269.821383 
L 141.339724 272.23297 
L 151.860178 274.565082 
L 162.948943 276.816715 
L 174.605272 278.993887 
L 186.81733 281.098714 
L 199.577782 283.122036 
L 212.89888 285.053974 
L 226.796034 286.899725 
L 241.26947 288.671564 
L 256.310975 290.372257 
L 271.924772 291.997089 
L 288.121766 293.548651 
L 322.258673 296.469714 
L 358.671423 299.150578 
L 397.292729 301.594998 
L 437.982597 303.792814 
L 462.61223 304.960169 
L 462.526322 306.90021 
L 502.437912 308.589808 
L 547.506063 310.208831 
L 593.994744 311.584825 
L 641.788097 312.710397 
L 690.723453 313.587918 
L 766.2383 314.536665 
L 843.704078 315.396775 
L 1002.60443 316.605836 
L 1099.636364 317.137468 
L 1099.636364 41.735703 
L 1099.636364 41.735703 
" clip-path="url(#p74239f7e37)" style="fill: none; stroke: #ff0000; stroke-width: 0.72; stroke-linejoin: miter"/>
   </g>
   <g id="patch_4">
    <path d="M 644.595659 250.829405 
L 644.595659 270.248823 
" clip-path="url(#p74239f7e37)" style="fill: none; stroke: #ff0000; stroke-width: 0.72; stroke-linejoin: miter"/>
   </g>
   <g id="patch_5">
    <path d="M 654.305368 260.539114 
L 654.305368 250.829405 
L 664.015077 250.829405 
L 664.015077 270.248823 
" clip-path="url(#p74239f7e37)" style="fill: none; stroke: #ff0000; stroke-width: 0.72; stroke-linejoin: miter"/>
   </g>
   <g id="patch_6">
    <path d="M 632.510548 25.429513 
L 624.750854 25.783576 
L 624.396791 18.023883 
L 632.156485 17.66982 
L 632.510548 25.429513 
" clip-path="url(#p74239f7e37)" style="fill: none; stroke: #ff0000; stroke-width: 0.72; stroke-linejoin: miter"/>
   </g>
   <g id="patch_7">
    <path d="M 275.142899 80.411423 
L 267.700669 82.636602 
L 265.47549 75.194372 
L 272.91772 72.969193 
L 275.142899 80.411423 
" clip-path="url(#p74239f7e37)" style="fill: none; stroke: #ff0000; stroke-width: 0.72; stroke-linejoin: miter"/>
   </g>
   <g id="patch_8">
    <path d="M 94.465648 167.849418 
L 91.586609 170.456272 
L 85.069475 163.258674 
L 87.948514 160.65182 
L 94.465648 167.849418 
" clip-path="url(#p74239f7e37)" style="fill: none; stroke: #ff0000; stroke-width: 0.72; stroke-linejoin: miter"/>
   </g>
   <g id="patch_9">
    <path d="M 73.932645 236.552013 
L 77.126946 238.76131 
L 71.603703 246.747062 
L 68.409402 244.537765 
L 73.932645 236.552013 
" clip-path="url(#p74239f7e37)" style="fill: none; stroke: #ff0000; stroke-width: 0.72; stroke-linejoin: miter"/>
   </g>
   <g id="patch_10">
    <path d="M 355.001068 291.103349 
L 362.749424 291.652151 
L 362.200622 299.400507 
L 354.452266 298.851705 
L 355.001068 291.103349 
" clip-path="url(#p74239f7e37)" style="fill: none; stroke: #ff0000; stroke-width: 0.72; stroke-linejoin: miter"/>
   </g>
   <g id="patch_11">
    <path d="M 966.528248 165.727105 
L 966.424274 160.475133 
L 966.112538 155.232437 
L 965.593589 150.008275 
L 964.868343 144.811875 
L 963.938083 139.652412 
L 962.80445 134.539 
L 961.469447 129.480669 
L 959.935431 124.486352 
L 958.205112 119.564871 
L 956.281546 114.724916 
L 954.16813 109.975036 
L 951.868596 105.323619 
L 949.387005 100.77888 
L 946.727741 96.348846 
L 943.895499 92.04134 
L 940.895282 87.86397 
L 937.732389 83.824114 
L 934.412405 79.928906 
L 930.941193 76.185225 
L 927.324885 72.599684 
L 923.569867 69.178614 
L 919.68277 65.928058 
L 915.67046 62.853756 
L 911.540023 59.961138 
L 907.298753 57.255312 
L 902.954142 54.741058 
L 898.513861 52.422815 
L 893.985753 50.304678 
L 889.377815 48.390388 
L 884.698185 46.683325 
L 879.955128 45.186505 
L 875.15702 43.90257 
L 870.312335 42.833789 
L 865.42963 41.982049 
L 860.517527 41.348854 
L 855.584703 40.935322 
L 850.639868 40.742185 
L 845.691756 40.769782 
L 840.749105 41.018065 
L 835.820645 41.486596 
L 830.915081 42.174547 
L 826.041074 43.080704 
L 821.207235 44.203465 
L 816.422099 45.540849 
L 811.694117 47.090492 
L 807.03164 48.849659 
L 802.442902 50.815242 
L 797.936007 52.98377 
L 793.518915 55.351413 
L 789.199426 57.91399 
L 784.98517 60.666974 
L 780.883588 63.605505 
L 776.901926 66.724392 
L 773.047214 70.018126 
L 769.326261 73.480892 
L 765.745638 77.106573 
L 762.311669 80.888766 
L 759.030418 84.820791 
L 755.907681 88.895705 
L 752.948973 93.10631 
L 750.159519 97.445169 
L 747.544244 101.904621 
L 745.10777 106.47679 
L 742.854397 111.1536 
L 740.788106 115.926791 
L 738.912546 120.787935 
L 737.23103 125.728446 
L 735.746528 130.739597 
L 734.46166 135.81254 
L 733.378696 140.938315 
L 732.49955 146.107869 
L 731.825773 151.312073 
L 731.358555 156.541735 
L 731.098722 161.787619 
L 731.046732 167.04046 
L 731.202678 172.290982 
L 731.566284 177.529912 
L 732.136907 182.747996 
L 732.91354 187.936021 
L 733.894812 193.084822 
L 735.078989 198.185307 
L 736.46398 203.228468 
L 738.047339 208.205398 
L 739.82627 213.107307 
L 741.79763 217.925539 
L 743.957939 222.651583 
L 746.303381 227.277093 
L 748.829813 231.793901 
L 751.532774 236.194028 
L 754.40749 240.469704 
L 757.448884 244.613378 
L 760.651585 248.617732 
L 764.009937 252.475693 
L 767.518007 256.180448 
L 771.169601 259.725454 
L 774.95827 263.10445 
L 778.877323 266.311469 
L 782.919837 269.340846 
L 787.078674 272.187232 
L 791.346489 274.8456 
L 795.715744 277.311255 
L 800.178723 279.579841 
L 804.727544 281.647353 
L 809.354173 283.510139 
L 814.050439 285.164909 
L 818.808048 286.608742 
L 823.618598 287.839086 
L 828.473593 288.853769 
L 833.364459 289.650998 
L 838.282557 290.229367 
L 843.219202 290.587854 
L 848.165675 290.725824 
L 853.113241 290.643036 
L 858.053162 290.339634 
L 862.976712 289.816155 
L 867.875198 289.073524 
L 872.739967 288.113051 
L 877.562428 286.936433 
L 882.334064 285.545749 
L 887.046448 283.943454 
L 891.691257 282.132377 
L 896.260289 280.115718 
L 900.745474 277.897039 
L 905.13889 275.480257 
L 909.432779 272.86964 
L 913.619556 270.0698 
L 917.691829 267.085682 
L 921.642404 263.922554 
L 925.464306 260.586004 
L 929.150783 257.081925 
L 932.695325 253.416505 
L 936.091673 249.596217 
L 939.333828 245.627809 
L 942.416063 241.518288 
L 945.332937 237.274913 
L 948.079296 232.905179 
L 950.650291 228.416801 
L 953.041381 223.817708 
L 955.248344 219.116021 
L 957.267281 214.320045 
L 959.094627 209.438249 
L 960.727155 204.479255 
L 962.161981 199.451821 
L 963.396571 194.364826 
L 964.428746 189.227255 
L 965.256682 184.04818 
L 965.878916 178.836748 
L 966.294351 173.602163 
L 966.502252 168.353671 
L 966.528248 165.727105 
L 966.528248 165.727105 
" clip-path="url(#p74239f7e37)" style="fill: none; stroke: #ff0000; stroke-width: 0.72; stroke-linejoin: miter"/>
   </g>
   <g id="patch_12">
    <path d="M 392.839738 156.017396 
L 402.549447 165.727105 
L 392.839738 175.436814 
L 383.130029 165.727105 
L 392.839738 156.017396 
" clip-path="url(#p74239f7e37)" style="fill: none; stroke: #ff0000; stroke-width: 0.72; stroke-linejoin: miter"/>
   </g>
   <g id="patch_13">
    <path d="M 839.655358 156.017396 
L 849.365067 165.727105 
L 839.655358 175.436814 
L 829.945649 165.727105 
L 839.655358 156.017396 
" clip-path="url(#p74239f7e37)" style="fill: none; stroke: #ff0000; stroke-width: 0.72; stroke-linejoin: miter"/>
   </g>
   <g id="patch_14">
    <path d="M 477.238695 231.667902 
L 486.298813 241.986388 
L 475.980326 251.046506 
L 466.920208 240.72802 
L 477.238695 231.667902 
" clip-path="url(#p74239f7e37)" style="fill: none; stroke: #ff0000; stroke-width: 0.72; stroke-linejoin: miter"/>
   </g>
   <g id="patch_15">
    <path d="M 991.549929 265.065193 
L 1000.610047 275.383679 
L 990.291561 284.443797 
L 981.231443 274.125311 
L 991.549929 265.065193 
" clip-path="url(#p74239f7e37)" style="fill: none; stroke: #ff0000; stroke-width: 0.72; stroke-linejoin: miter"/>
   </g>
   <g id="patch_16">
    <path d="M 547.783261 205.937536 
L 557.49297 196.227827 
L 567.202679 205.937536 
L 557.49297 215.647245 
L 547.783261 205.937536 
" clip-path="url(#p74239f7e37)" style="fill: none; stroke: #ff0000; stroke-width: 0.72; stroke-linejoin: miter"/>
   </g>
   <g id="patch_17">
    <path d="M 547.783261 127.114048 
L 557.49297 117.404339 
L 567.202679 127.114048 
L 557.49297 136.823757 
L 547.783261 127.114048 
" clip-path="url(#p74239f7e37)" style="fill: none; stroke: #ff0000; stroke-width: 0.72; stroke-linejoin: miter"/>
   </g>
   <g id="line2d_1">
    <path d="M 82.340037 165.727105 
L 1099.636364 165.727105 
" clip-path="url(#p74239f7e37)" style="fill: none; stroke: #ffffff; stroke-width: 0.72; stroke-linecap: square"/>
   </g>
   <g id="line2d_2">
    <path d="M 381.188087 165.727105 
L 404.491389 165.727105 
" clip-path="url(#p74239f7e37)" style="fill: none; stroke: #ffffff; stroke-width: 0.72; stroke-linecap: square"/>
   </g>
   <g id="line2d_3">
    <path d="M 828.003707 165.727105 
L 851.307009 165.727105 
" clip-path="url(#p74239f7e37)" style="fill: none; stroke: #ffffff; stroke-width: 0.72; stroke-linecap: square"/>
   </g>
   <g id="line2d_4">
    <path d="M 52.56443 213.821433 
L 1099.636364 281.814047 
" clip-path="url(#p74239f7e37)" style="fill: none; stroke: #ffffff; stroke-width: 0.72; stroke-linecap: square"/>
   </g>
   <g id="line2d_5">
    <path d="M 464.982348 240.602183 
L 488.236673 242.112225 
" clip-path="url(#p74239f7e37)" style="fill: none; stroke: #ffffff; stroke-width: 0.72; stroke-linecap: square"/>
   </g>
   <g id="line2d_6">
    <path d="M 979.293582 273.999474 
L 1002.547908 275.509516 
" clip-path="url(#p74239f7e37)" style="fill: none; stroke: #ffffff; stroke-width: 0.72; stroke-linecap: square"/>
   </g>
   <g id="line2d_7">
    <path d="M 848.78424 40.72666 
L 848.78424 38.784718 
" clip-path="url(#p74239f7e37)" style="fill: none; stroke: #ff0000; stroke-width: 0.72; stroke-linecap: square"/>
   </g>
   <g id="line2d_8">
    <path d="M 848.78424 290.727549 
L 848.78424 292.669491 
" clip-path="url(#p74239f7e37)" style="fill: none; stroke: #ff0000; stroke-width: 0.72; stroke-linecap: square"/>
   </g>
   <g id="line2d_9">
    <path d="M 966.528248 165.727105 
L 968.47019 165.727105 
" clip-path="url(#p74239f7e37)" style="fill: none; stroke: #ff0000; stroke-width: 0.72; stroke-linecap: square"/>
   </g>
   <g id="line2d_10">
    <path d="M 731.040233 165.727105 
L 729.098291 165.727105 
" clip-path="url(#p74239f7e37)" style="fill: none; stroke: #ff0000; stroke-width: 0.72; stroke-linecap: square"/>
   </g>
   <g id="line2d_11">
    <path d="M 557.49297 310.520894 
L 557.49297 22.530691 
" clip-path="url(#p74239f7e37)" style="fill: none; stroke: #ffffff; stroke-width: 0.72; stroke-linecap: square"/>
   </g>
   <g id="line2d_12">
    <path d="M 557.49297 217.589187 
L 557.49297 194.285885 
" clip-path="url(#p74239f7e37)" style="fill: none; stroke: #ffffff; stroke-width: 0.72; stroke-linecap: square"/>
   </g>
   <g id="line2d_13">
    <path d="M 557.49297 138.765699 
L 557.49297 115.462398 
" clip-path="url(#p74239f7e37)" style="fill: none; stroke: #ffffff; stroke-width: 0.72; stroke-linecap: square"/>
   </g>
  </g>
 </g>
 <defs>
  <clipPath id="p74239f7e37">
   <rect x="0" y="0" width="1152" height="332.239252"/>
  </clipPath>
 </defs>
</svg>
