  0
SECTION
  2
HEADER
  9
$ACADVER
  1
AC1021
  9
$ACADMAINTVER
 70
25
  9
$DWGCODEPAGE
  3
ANSI_1252
  9
$LASTSAVEDBY
  1
ezdxf
  9
$INSBASE
 10
0.0
 20
0.0
 30
0.0
  9
$EXTMIN
 10
1e+20
 20
1e+20
 30
1e+20
  9
$EXTMAX
 10
-1e+20
 20
-1e+20
 30
-1e+20
  9
$LIMMIN
 10
0.0
 20
0.0
  9
$LIMMAX
 10
420.0
 20
297.0
  9
$ORTHOMODE
 70
0
  9
$REGENMODE
 70
1
  9
$FILLMODE
 70
1
  9
$QTEXTMODE
 70
0
  9
$MIRRTEXT
 70
1
  9
$LTSCALE
 40
1.0
  9
$ATTMODE
 70
1
  9
$TEXTSIZE
 40
2.5
  9
$TRACEWID
 40
1.0
  9
$TEXTSTYLE
  7
OpenSans
  9
$CLAYER
  8
0
  9
$CELTYPE
  6
ByLayer
  9
$CECOLOR
 62
256
  9
$CELTSCALE
 40
1.0
  9
$DISPSILH
 70
0
  9
$DIMSCALE
 40
1.0
  9
$DIMASZ
 40
0.175
  9
$DIMEXO
 40
0.125
  9
$DIMDLI
 40
3.75
  9
$DIMRND
 40
0.0
  9
$DIMDLE
 40
0.0
  9
$DIMEXE
 40
0.375
  9
$DIMTP
 40
0.0
  9
$DIMTM
 40
0.0
  9
$DIMTXT
 40
0.25
  9
$DIMCEN
 40
2.5
  9
$DIMTSZ
 40
0.0
  9
$DIMTOL
 70
0
  9
$DIMLIM
 70
0
  9
$DIMTIH
 70
0
  9
$DIMTOH
 70
0
  9
$DIMSE1
 70
0
  9
$DIMSE2
 70
0
  9
$DIMTAD
 70
1
  9
$DIMZIN
 70
12
  9
$DIMBLK
  1
ARCHTICK
  9
$DIMASO
 70
1
  9
$DIMSHO
 70
1
  9
$DIMPOST
  1

  9
$DIMAPOST
  1

  9
$DIMALT
 70
0
  9
$DIMALTD
 70
3
  9
$DIMALTF
 40
0.03937007874
  9
$DIMLFAC
 40
100.0
  9
$DIMTOFL
 70
1
  9
$DIMTVP
 40
0.0
  9
$DIMTIX
 70
0
  9
$DIMSOXD
 70
0
  9
$DIMSAH
 70
0
  9
$DIMBLK1
  1

  9
$DIMBLK2
  1

  9
$DIMSTYLE
  2
EZDXF
  9
$DIMCLRD
 70
0
  9
$DIMCLRE
 70
0
  9
$DIMCLRT
 70
0
  9
$DIMTFAC
 40
0.5
  9
$DIMGAP
 40
0.1
  9
$DIMJUST
 70
0
  9
$DIMSD1
 70
0
  9
$DIMSD2
 70
0
  9
$DIMTOLJ
 70
0
  9
$DIMTZIN
 70
8
  9
$DIMALTZ
 70
0
  9
$DIMALTTZ
 70
0
  9
$DIMUPT
 70
1
  9
$DIMDEC
 70
2
  9
$DIMTDEC
 70
2
  9
$DIMALTU
 70
2
  9
$DIMALTTD
 70
3
  9
$DIMTXSTY
  7
OpenSansCondensed-Light
  9
$DIMAUNIT
 70
0
  9
$DIMADEC
 70
2
  9
$DIMALTRND
 40
0.0
  9
$DIMAZIN
 70
3
  9
$DIMDSEP
 70
46
  9
$DIMATFIT
 70
3
  9
$DIMFRAC
 70
0
  9
$DIMLDRBLK
  1

  9
$DIMLUNIT
 70
2
  9
$DIMLWD
 70
-2
  9
$DIMLWE
 70
-2
  9
$DIMTMOVE
 70
2
  9
$DIMFXL
 40
1.0
  9
$DIMFXLON
 70
0
  9
$DIMJOGANG
 40
0.785398163397
  9
$DIMTFILL
 70
0
  9
$DIMTFILLCLR
 70
0
  9
$DIMARCSYM
 70
0
  9
$DIMLTYPE
  6

  9
$DIMLTEX1
  6

  9
$DIMLTEX2
  6

  9
$LUNITS
 70
2
  9
$LUPREC
 70
4
  9
$SKETCHINC
 40
1.0
  9
$FILLETRAD
 40
10.0
  9
$AUNITS
 70
0
  9
$AUPREC
 70
2
  9
$MENU
  1
.
  9
$ELEVATION
 40
0.0
  9
$PELEVATION
 40
0.0
  9
$THICKNESS
 40
0.0
  9
$LIMCHECK
 70
0
  9
$CHAMFERA
 40
0.0
  9
$CHAMFERB
 40
0.0
  9
$CHAMFERC
 40
0.0
  9
$CHAMFERD
 40
0.0
  9
$SKPOLY
 70
0
  9
$TDCREATE
 40
2461048.088449074
  9
$TDUCREATE
 40
2458532.153996898
  9
$TDUPDATE
 40
2461048.088449074
  9
$TDUUPDATE
 40
2458532.1544311
  9
$TDINDWG
 40
0.0
  9
$TDUSRTIMER
 40
0.0
  9
$USRTIMER
 70
1
  9
$ANGBASE
 50
0.0
  9
$ANGDIR
 70
0
  9
$PDMODE
 70
0
  9
$PDSIZE
 40
0.0
  9
$PLINEWID
 40
0.0
  9
$SPLFRAME
 70
0
  9
$SPLINETYPE
 70
6
  9
$SPLINESEGS
 70
8
  9
$HANDSEED
  5
BE
  9
$SURFTAB1
 70
6
  9
$SURFTAB2
 70
6
  9
$SURFTYPE
 70
6
  9
$SURFU
 70
6
  9
$SURFV
 70
6
  9
$UCSBASE
  2

  9
$UCSNAME
  2

  9
$UCSORG
 10
0.0
 20
0.0
 30
0.0
  9
$UCSXDIR
 10
1.0
 20
0.0
 30
0.0
  9
$UCSYDIR
 10
0.0
 20
1.0
 30
0.0
  9
$UCSORTHOREF
  2

  9
$UCSORTHOVIEW
 70
0
  9
$UCSORGTOP
 10
0.0
 20
0.0
 30
0.0
  9
$UCSORGBOTTOM
 10
0.0
 20
0.0
 30
0.0
  9
$UCSORGLEFT
 10
0.0
 20
0.0
 30
0.0
  9
$UCSORGRIGHT
 10
0.0
 20
0.0
 30
0.0
  9
$UCSORGFRONT
 10
0.0
 20
0.0
 30
0.0
  9
$UCSORGBACK
 10
0.0
 20
0.0
 30
0.0
  9
$PUCSBASE
  2

  9
$PUCSNAME
  2

  9
$PUCSORG
 10
0.0
 20
0.0
 30
0.0
  9
$PUCSXDIR
 10
1.0
 20
0.0
 30
0.0
  9
$PUCSYDIR
 10
0.0
 20
1.0
 30
0.0
  9
$PUCSORTHOREF
  2

  9
$PUCSORTHOVIEW
 70
0
  9
$PUCSORGTOP
 10
0.0
 20
0.0
 30
0.0
  9
$PUCSORGBOTTOM
 10
0.0
 20
0.0
 30
0.0
  9
$PUCSORGLEFT
 10
0.0
 20
0.0
 30
0.0
  9
$PUCSORGRIGHT
 10
0.0
 20
0.0
 30
0.0
  9
$PUCSORGFRONT
 10
0.0
 20
0.0
 30
0.0
  9
$PUCSORGBACK
 10
0.0
 20
0.0
 30
0.0
  9
$USERI1
 70
0
  9
$USERI2
 70
0
  9
$USERI3
 70
0
  9
$USERI4
 70
0
  9
$USERI5
 70
0
  9
$USERR1
 40
0.0
  9
$USERR2
 40
0.0
  9
$USERR3
 40
0.0
  9
$USERR4
 40
0.0
  9
$USERR5
 40
0.0
  9
$WORLDVIEW
 70
1
  9
$SHADEDGE
 70
3
  9
$SHADEDIF
 70
70
  9
$TILEMODE
 70
1
  9
$MAXACTVP
 70
64
  9
$PINSBASE
 10
0.0
 20
0.0
 30
0.0
  9
$PLIMCHECK
 70
0
  9
$PEXTMIN
 10
1e+20
 20
1e+20
 30
1e+20
  9
$PEXTMAX
 10
-1e+20
 20
-1e+20
 30
-1e+20
  9
$PLIMMIN
 10
0.0
 20
0.0
  9
$PLIMMAX
 10
420.0
 20
297.0
  9
$UNITMODE
 70
0
  9
$VISRETAIN
 70
1
  9
$PLINEGEN
 70
0
  9
$PSLTSCALE
 70
1
  9
$TREEDEPTH
 70
3020
  9
$CMLSTYLE
  2
Standard
  9
$CMLJUST
 70
0
  9
$CMLSCALE
 40
20.0
  9
$PROXYGRAPHICS
 70
1
  9
$MEASUREMENT
 70
1
  9
$CELWEIGHT
370
-1
  9
$ENDCAPS
280
0
  9
$JOINSTYLE
280
0
  9
$LWDISPLAY
290
0
  9
$INSUNITS
 70
6
  9
$HYPERLINKBASE
  1

  9
$STYLESHEET
  1

  9
$XEDIT
290
1
  9
$CEPSNTYPE
380
0
  9
$PSTYLEMODE
290
1
  9
$FINGERPRINTGUID
  2
{486FB0F2-47A7-458C-A4E6-7EC28218203B}
  9
$VERSIONGUID
  2
{3E224E5D-8F47-46E5-83A4-BCA623CDD790}
  9
$EXTNAMES
290
1
  9
$PSVPSCALE
 40
0.0
  9
$OLESTARTUP
290
0
  9
$SORTENTS
280
127
  9
$INDEXCTL
280
0
  9
$HIDETEXT
280
1
  9
$XCLIPFRAME
290
1
  9
$HALOGAP
280
0
  9
$OBSCOLOR
 70
257
  9
$OBSLTYPE
280
0
  9
$INTERSECTIONDISPLAY
280
0
  9
$INTERSECTIONCOLOR
 70
257
  9
$DIMASSOC
280
2
  9
$PROJECTNAME
  1

  9
$CAMERADISPLAY
290
0
  9
$LENSLENGTH
 40
50.0
  9
$CAMERAHEIGHT
 40
0.0
  9
$STEPSPERSEC
 40
24.0
  9
$STEPSIZE
 40
100.0
  9
$3DDWFPREC
 40
2.0
  9
$PSOLWIDTH
 40
0.005
  9
$PSOLHEIGHT
 40
0.08
  9
$LOFTANG1
 40
1.570796326795
  9
$LOFTANG2
 40
1.570796326795
  9
$LOFTMAG1
 40
0.0
  9
$LOFTMAG2
 40
0.0
  9
$LOFTPARAM
 70
7
  9
$LOFTNORMALS
280
1
  9
$LATITUDE
 40
37.795
  9
$LONGITUDE
 40
-122.394
  9
$NORTHDIRECTION
 40
0.0
  9
$TIMEZONE
 70
-8000
  9
$LIGHTGLYPHDISPLAY
280
1
  9
$TILEMODELIGHTSYNCH
280
1
  9
$CMATERIAL
347
20
  9
$SOLIDHIST
280
0
  9
$SHOWHIST
280
1
  9
$DWFFRAME
280
2
  9
$DGNFRAME
280
2
  9
$REALWORLDSCALE
290
1
  9
$INTERFERECOLOR
 62
256
  9
$CSHADOW
280
0
  9
$SHADOWPLANELOCATION
 40
0.0
  0
ENDSEC
  0
SECTION
  2
CLASSES
  0
CLASS
  1
ACDBDICTIONARYWDFLT
  2
AcDbDictionaryWithDefault
  3
ObjectDBX Classes
 90
0
 91
0
280
0
281
0
  0
CLASS
  1
SUN
  2
AcDbSun
  3
SCENEOE
 90
1153
 91
0
280
0
281
0
  0
CLASS
  1
VISUALSTYLE
  2
AcDbVisualStyle
  3
ObjectDBX Classes
 90
4095
 91
0
280
0
281
0
  0
CLASS
  1
MATERIAL
  2
AcDbMaterial
  3
ObjectDBX Classes
 90
1153
 91
0
280
0
281
0
  0
CLASS
  1
SCALE
  2
AcDbScale
  3
ObjectDBX Classes
 90
1153
 91
0
280
0
281
0
  0
CLASS
  1
TABLESTYLE
  2
AcDbTableStyle
  3
ObjectDBX Classes
 90
4095
 91
0
280
0
281
0
  0
CLASS
  1
MLEADERSTYLE
  2
AcDbMLeaderStyle
  3
ACDB_MLEADERSTYLE_CLASS
 90
4095
 91
0
280
0
281
0
  0
CLASS
  1
DICTIONARYVAR
  2
AcDbDictionaryVar
  3
ObjectDBX Classes
 90
0
 91
0
280
0
281
0
  0
CLASS
  1
CELLSTYLEMAP
  2
AcDbCellStyleMap
  3
ObjectDBX Classes
 90
1152
 91
0
280
0
281
0
  0
CLASS
  1
MENTALRAYRENDERSETTINGS
  2
AcDbMentalRayRenderSettings
  3
SCENEOE
 90
1024
 91
0
280
0
281
0
  0
CLASS
  1
ACDBDETAILVIEWSTYLE
  2
AcDbDetailViewStyle
  3
ObjectDBX Classes
 90
1025
 91
0
280
0
281
0
  0
CLASS
  1
ACDBSECTIONVIEWSTYLE
  2
AcDbSectionViewStyle
  3
ObjectDBX Classes
 90
1025
 91
0
280
0
281
0
  0
CLASS
  1
RASTERVARIABLES
  2
AcDbRasterVariables
  3
ISM
 90
0
 91
0
280
0
281
0
  0
CLASS
  1
ACDBPLACEHOLDER
  2
AcDbPlaceHolder
  3
ObjectDBX Classes
 90
0
 91
0
280
0
281
0
  0
CLASS
  1
LAYOUT
  2
AcDbLayout
  3
ObjectDBX Classes
 90
0
 91
0
280
0
281
0
  0
ENDSEC
  0
SECTION
  2
TABLES
  0
TABLE
  2
VPORT
  5
8
330
0
100
AcDbSymbolTable
 70
1
  0
VPORT
  5
23
330
8
100
AcDbSymbolTableRecord
100
AcDbViewportTableRecord
  2
*Active
 70
0
 10
0.0
 20
0.0
 11
1.0
 21
1.0
 12
0.0
 22
0.0
 13
0.0
 23
0.0
 14
0.5
 24
0.5
 15
0.5
 25
0.5
 16
0.0
 26
0.0
 36
1.0
 17
0.0
 27
0.0
 37
0.0
 40
1000.0
 41
1.34
 42
50.0
 43
0.0
 44
0.0
 50
0.0
 51
0.0
 71
0
 72
1000
 73
1
 74
3
 75
0
 76
0
 77
0
 78
0
281
0
 65
0
146
0.0
  0
ENDTAB
  0
TABLE
  2
LTYPE
  5
2
330
0
100
AcDbSymbolTable
 70
21
  0
LTYPE
  5
24
330
2
100
AcDbSymbolTableRecord
100
AcDbLinetypeTableRecord
  2
ByBlock
 70
0
  3

 72
65
 73
0
 40
0.0
  0
LTYPE
  5
25
330
2
100
AcDbSymbolTableRecord
100
AcDbLinetypeTableRecord
  2
ByLayer
 70
0
  3

 72
65
 73
0
 40
0.0
  0
LTYPE
  5
26
330
2
100
AcDbSymbolTableRecord
100
AcDbLinetypeTableRecord
  2
Continuous
 70
0
  3

 72
65
 73
0
 40
0.0
  0
LTYPE
  5
2F
330
2
100
AcDbSymbolTableRecord
100
AcDbLinetypeTableRecord
  2
CENTER
 70
0
  3
Center ____ _ ____ _ ____ _ ____ _ ____ _ ____
 72
65
 73
4
 40
5.08
 49
3.175
 74
0
 49
-0.635
 74
0
 49
0.635
 74
0
 49
-0.635
 74
0
  0
LTYPE
  5
30
330
2
100
AcDbSymbolTableRecord
100
AcDbLinetypeTableRecord
  2
CENTERX2
 70
0
  3
Center (2x) ________  __  ________  __  ________
 72
65
 73
4
 40
8.89
 49
6.35
 74
0
 49
-0.635
 74
0
 49
1.27
 74
0
 49
-0.635
 74
0
  0
LTYPE
  5
31
330
2
100
AcDbSymbolTableRecord
100
AcDbLinetypeTableRecord
  2
CENTER2
 70
0
  3
Center (.5x) ____ _ ____ _ ____ _ ____ _ ____
 72
65
 73
4
 40
2.54
 49
1.587
 74
0
 49
-0.318
 74
0
 49
0.318
 74
0
 49
-0.318
 74
0
  0
LTYPE
  5
32
330
2
100
AcDbSymbolTableRecord
100
AcDbLinetypeTableRecord
  2
DASHED
 70
0
  3
Dashed __ __ __ __ __ __ __ __ __ __ __ __ __ _
 72
65
 73
2
 40
1.524
 49
1.27
 74
0
 49
-0.254
 74
0
  0
LTYPE
  5
33
330
2
100
AcDbSymbolTableRecord
100
AcDbLinetypeTableRecord
  2
DASHEDX2
 70
0
  3
Dashed (2x) ____  ____  ____  ____  ____  ____
 72
65
 73
2
 40
3.048
 49
2.54
 74
0
 49
-0.508
 74
0
  0
LTYPE
  5
34
330
2
100
AcDbSymbolTableRecord
100
AcDbLinetypeTableRecord
  2
DASHED2
 70
0
  3
Dashed (.5x) _ _ _ _ _ _ _ _ _ _ _ _ _ _
 72
65
 73
2
 40
0.762
 49
0.635
 74
0
 49
-0.127
 74
0
  0
LTYPE
  5
35
330
2
100
AcDbSymbolTableRecord
100
AcDbLinetypeTableRecord
  2
PHANTOM
 70
0
  3
Phantom ______  __  __  ______  __  __  ______
 72
65
 73
6
 40
6.35
 49
3.175
 74
0
 49
-0.635
 74
0
 49
0.635
 74
0
 49
-0.635
 74
0
 49
0.635
 74
0
 49
-0.635
 74
0
  0
LTYPE
  5
36
330
2
100
AcDbSymbolTableRecord
100
AcDbLinetypeTableRecord
  2
PHANTOMX2
 70
0
  3
Phantom (2x)____________    ____    ____    ____________
 72
65
 73
6
 40
10.795
 49
6.35
 74
0
 49
-0.635
 74
0
 49
1.27
 74
0
 49
-0.635
 74
0
 49
1.27
 74
0
 49
-0.635
 74
0
  0
LTYPE
  5
37
330
2
100
AcDbSymbolTableRecord
100
AcDbLinetypeTableRecord
  2
PHANTOM2
 70
0
  3
Phantom (.5x) ___ _ _ ___ _ _ ___ _ _ ___ _ _ ___
 72
65
 73
6
 40
3.175
 49
1.587
 74
0
 49
-0.318
 74
0
 49
0.318
 74
0
 49
-0.318
 74
0
 49
0.318
 74
0
 49
-0.318
 74
0
  0
LTYPE
  5
38
330
2
100
AcDbSymbolTableRecord
100
AcDbLinetypeTableRecord
  2
DASHDOT
 70
0
  3
Dash dot __ . __ . __ . __ . __ . __ . __ . __
 72
65
 73
4
 40
3.556
 49
2.54
 74
0
 49
-0.508
 74
0
 49
0.0
 74
0
 49
-0.508
 74
0
  0
LTYPE
  5
39
330
2
100
AcDbSymbolTableRecord
100
AcDbLinetypeTableRecord
  2
DASHDOTX2
 70
0
  3
Dash dot (2x) ____  .  ____  .  ____  .  ____
 72
65
 73
4
 40
6.096
 49
5.08
 74
0
 49
-0.508
 74
0
 49
0.0
 74
0
 49
-0.508
 74
0
  0
LTYPE
  5
3A
330
2
100
AcDbSymbolTableRecord
100
AcDbLinetypeTableRecord
  2
DASHDOT2
 70
0
  3
Dash dot (.5x) _ . _ . _ . _ . _ . _ . _ . _
 72
65
 73
4
 40
1.778
 49
1.27
 74
0
 49
-0.254
 74
0
 49
0.0
 74
0
 49
-0.254
 74
0
  0
LTYPE
  5
3B
330
2
100
AcDbSymbolTableRecord
100
AcDbLinetypeTableRecord
  2
DOT
 70
0
  3
Dot .  .  .  .  .  .  .  .  .  .  .  .  .  .  .  .
 72
65
 73
2
 40
0.508
 49
0.0
 74
0
 49
-0.508
 74
0
  0
LTYPE
  5
3C
330
2
100
AcDbSymbolTableRecord
100
AcDbLinetypeTableRecord
  2
DOTX2
 70
0
  3
Dot (2x) .    .    .    .    .    .    .    . 
 72
65
 73
2
 40
1.016
 49
0.0
 74
0
 49
-1.016
 74
0
  0
LTYPE
  5
3D
330
2
100
AcDbSymbolTableRecord
100
AcDbLinetypeTableRecord
  2
DOT2
 70
0
  3
Dot (.5) . . . . . . . . . . . . . . . . . . . 
 72
65
 73
2
 40
0.254
 49
0.0
 74
0
 49
-0.254
 74
0
  0
LTYPE
  5
3E
330
2
100
AcDbSymbolTableRecord
100
AcDbLinetypeTableRecord
  2
DIVIDE
 70
0
  3
Divide __ . . __ . . __ . . __ . . __ . . __
 72
65
 73
6
 40
4.064
 49
2.54
 74
0
 49
-0.508
 74
0
 49
0.0
 74
0
 49
-0.508
 74
0
 49
0.0
 74
0
 49
-0.508
 74
0
  0
LTYPE
  5
3F
330
2
100
AcDbSymbolTableRecord
100
AcDbLinetypeTableRecord
  2
DIVIDEX2
 70
0
  3
Divide (2x) ____  . .  ____  . .  ____  . .  ____
 72
65
 73
6
 40
6.604
 49
5.08
 74
0
 49
-0.508
 74
0
 49
0.0
 74
0
 49
-0.508
 74
0
 49
0.0
 74
0
 49
-0.508
 74
0
  0
LTYPE
  5
40
330
2
100
AcDbSymbolTableRecord
100
AcDbLinetypeTableRecord
  2
DIVIDE2
 70
0
  3
Divide(.5x) _ . _ . _ . _ . _ . _ . _ . _
 72
65
 73
6
 40
2.032
 49
1.27
 74
0
 49
-0.254
 74
0
 49
0.0
 74
0
 49
-0.254
 74
0
 49
0.0
 74
0
 49
-0.254
 74
0
  0
ENDTAB
  0
TABLE
  2
LAYER
  5
1
330
0
100
AcDbSymbolTable
 70
5
  0
LAYER
  5
27
330
1
100
AcDbSymbolTableRecord
100
AcDbLayerTableRecord
  2
0
 70
0
 62
7
  6
Continuous
370
-3
390
13
347
21
  0
LAYER
  5
28
330
1
100
AcDbSymbolTableRecord
100
AcDbLayerTableRecord
  2
Defpoints
 70
0
 62
7
  6
Continuous
290
0
370
-3
390
13
347
21
  0
LAYER
  5
8A
330
1
100
AcDbSymbolTableRecord
100
AcDbLayerTableRecord
  2
Layer
 70
0
 62
1
  6
Continuous
370
50
390
13
347
21
  0
LAYER
  5
8B
330
1
100
AcDbSymbolTableRecord
100
AcDbLayerTableRecord
  2
NumLabel
 70
0
 62
1
  6
Continuous
370
15
390
13
347
21
  0
LAYER
  5
BC
330
1
100
AcDbSymbolTableRecord
100
AcDbLayerTableRecord
  2
SplitMark
 70
0
 62
3
  6
Continuous
370
-3
390
13
347
21
  0
ENDTAB
  0
TABLE
  2
STYLE
  5
5
330
0
100
AcDbSymbolTable
 70
26
  0
STYLE
  5
29
330
5
100
AcDbSymbolTableRecord
100
AcDbTextStyleTableRecord
  2
Standard
 70
0
 40
0.0
 41
1.0
 50
0.0
 71
0
 42
2.5
  3
txt
  4

  0
STYLE
  5
41
330
5
100
AcDbSymbolTableRecord
100
AcDbTextStyleTableRecord
  2
OpenSans-Light
 70
0
 40
0.0
 41
1.0
 50
0.0
 71
0
 42
2.5
  3
OpenSans-Light.ttf
  4

  0
STYLE
  5
42
330
5
100
AcDbSymbolTableRecord
100
AcDbTextStyleTableRecord
  2
OpenSans-Light-Italic
 70
0
 40
0.0
 41
1.0
 50
0.0
 71
0
 42
2.5
  3
OpenSans-LightItalic.ttf
  4

  0
STYLE
  5
43
330
5
100
AcDbSymbolTableRecord
100
AcDbTextStyleTableRecord
  2
OpenSans
 70
0
 40
0.0
 41
1.0
 50
0.0
 71
0
 42
2.5
  3
OpenSans-Regular.ttf
  4

  0
STYLE
  5
44
330
5
100
AcDbSymbolTableRecord
100
AcDbTextStyleTableRecord
  2
OpenSans-Italic
 70
0
 40
0.0
 41
1.0
 50
0.0
 71
0
 42
2.5
  3
OpenSans-Italic.ttf
  4

  0
STYLE
  5
45
330
5
100
AcDbSymbolTableRecord
100
AcDbTextStyleTableRecord
  2
OpenSans-SemiBold
 70
0
 40
0.0
 41
1.0
 50
0.0
 71
0
 42
2.5
  3
OpenSans-SemiBold.ttf
  4

  0
STYLE
  5
46
330
5
100
AcDbSymbolTableRecord
100
AcDbTextStyleTableRecord
  2
OpenSans-SemiBoldItalic
 70
0
 40
0.0
 41
1.0
 50
0.0
 71
0
 42
2.5
  3
OpenSans-SemiBoldItalic.ttf
  4

  0
STYLE
  5
47
330
5
100
AcDbSymbolTableRecord
100
AcDbTextStyleTableRecord
  2
OpenSans-Bold
 70
0
 40
0.0
 41
1.0
 50
0.0
 71
0
 42
2.5
  3
OpenSans-Bold.ttf
  4

  0
STYLE
  5
48
330
5
100
AcDbSymbolTableRecord
100
AcDbTextStyleTableRecord
  2
OpenSans-BoldItalic
 70
0
 40
0.0
 41
1.0
 50
0.0
 71
0
 42
2.5
  3
OpenSans-BoldItalic.ttf
  4

  0
STYLE
  5
49
330
5
100
AcDbSymbolTableRecord
100
AcDbTextStyleTableRecord
  2
OpenSans-ExtraBold
 70
0
 40
0.0
 41
1.0
 50
0.0
 71
0
 42
2.5
  3
OpenSans-ExtraBold.ttf
  4

  0
STYLE
  5
4A
330
5
100
AcDbSymbolTableRecord
100
AcDbTextStyleTableRecord
  2
OpenSans-ExtraBoldItalic
 70
0
 40
0.0
 41
1.0
 50
0.0
 71
0
 42
2.5
  3
OpenSans-ExtraBoldItalic.ttf
  4

  0
STYLE
  5
4B
330
5
100
AcDbSymbolTableRecord
100
AcDbTextStyleTableRecord
  2
OpenSansCondensed-Bold
 70
0
 40
0.0
 41
1.0
 50
0.0
 71
0
 42
2.5
  3
OpenSansCondensed-Bold.ttf
  4

  0
STYLE
  5
4C
330
5
100
AcDbSymbolTableRecord
100
AcDbTextStyleTableRecord
  2
OpenSansCondensed-Light
 70
0
 40
0.0
 41
1.0
 50
0.0
 71
0
 42
2.5
  3
OpenSansCondensed-Light.ttf
  4

  0
STYLE
  5
4D
330
5
100
AcDbSymbolTableRecord
100
AcDbTextStyleTableRecord
  2
OpenSansCondensed-Italic
 70
0
 40
0.0
 41
1.0
 50
0.0
 71
0
 42
2.5
  3
OpenSansCondensed-LightItalic.ttf
  4

  0
STYLE
  5
4E
330
5
100
AcDbSymbolTableRecord
100
AcDbTextStyleTableRecord
  2
LiberationSans
 70
0
 40
0.0
 41
1.0
 50
0.0
 71
0
 42
2.5
  3
LiberationSans-Regular.ttf
  4

  0
STYLE
  5
4F
330
5
100
AcDbSymbolTableRecord
100
AcDbTextStyleTableRecord
  2
LiberationSans-Bold
 70
0
 40
0.0
 41
1.0
 50
0.0
 71
0
 42
2.5
  3
LiberationSans-Bold.ttf
  4

  0
STYLE
  5
50
330
5
100
AcDbSymbolTableRecord
100
AcDbTextStyleTableRecord
  2
LiberationSans-BoldItalic
 70
0
 40
0.0
 41
1.0
 50
0.0
 71
0
 42
2.5
  3
LiberationSans-BoldItalic.ttf
  4

  0
STYLE
  5
51
330
5
100
AcDbSymbolTableRecord
100
AcDbTextStyleTableRecord
  2
LiberationSans-Italic
 70
0
 40
0.0
 41
1.0
 50
0.0
 71
0
 42
2.5
  3
LiberationSans-Italic.ttf
  4

  0
STYLE
  5
52
330
5
100
AcDbSymbolTableRecord
100
AcDbTextStyleTableRecord
  2
LiberationSerif
 70
0
 40
0.0
 41
1.0
 50
0.0
 71
0
 42
2.5
  3
LiberationSerif-Regular.ttf
  4

  0
STYLE
  5
53
330
5
100
AcDbSymbolTableRecord
100
AcDbTextStyleTableRecord
  2
LiberationSerif-Bold
 70
0
 40
0.0
 41
1.0
 50
0.0
 71
0
 42
2.5
  3
LiberationSerif-Bold.ttf
  4

  0
STYLE
  5
54
330
5
100
AcDbSymbolTableRecord
100
AcDbTextStyleTableRecord
  2
LiberationSerif-BoldItalic
 70
0
 40
0.0
 41
1.0
 50
0.0
 71
0
 42
2.5
  3
LiberationSerif-BoldItalic.ttf
  4

  0
STYLE
  5
55
330
5
100
AcDbSymbolTableRecord
100
AcDbTextStyleTableRecord
  2
LiberationSerif-Italic
 70
0
 40
0.0
 41
1.0
 50
0.0
 71
0
 42
2.5
  3
LiberationSerif-Italic.ttf
  4

  0
STYLE
  5
56
330
5
100
AcDbSymbolTableRecord
100
AcDbTextStyleTableRecord
  2
LiberationMono
 70
0
 40
0.0
 41
1.0
 50
0.0
 71
0
 42
2.5
  3
LiberationMono-Regular.ttf
  4

  0
STYLE
  5
57
330
5
100
AcDbSymbolTableRecord
100
AcDbTextStyleTableRecord
  2
LiberationMono-Bold
 70
0
 40
0.0
 41
1.0
 50
0.0
 71
0
 42
2.5
  3
LiberationMono-Bold.ttf
  4

  0
STYLE
  5
58
330
5
100
AcDbSymbolTableRecord
100
AcDbTextStyleTableRecord
  2
LiberationMono-BoldItalic
 70
0
 40
0.0
 41
1.0
 50
0.0
 71
0
 42
2.5
  3
LiberationMono-BoldItalic.ttf
  4

  0
STYLE
  5
59
330
5
100
AcDbSymbolTableRecord
100
AcDbTextStyleTableRecord
  2
LiberationMono-Italic
 70
0
 40
0.0
 41
1.0
 50
0.0
 71
0
 42
2.5
  3
LiberationMono-Italic.ttf
  4

  0
ENDTAB
  0
TABLE
  2
VIEW
  5
7
330
0
100
AcDbSymbolTable
 70
0
  0
ENDTAB
  0
TABLE
  2
UCS
  5
6
330
0
100
AcDbSymbolTable
 70
0
  0
ENDTAB
  0
TABLE
  2
APPID
  5
3
330
0
100
AcDbSymbolTable
 70
3
  0
APPID
  5
2A
330
3
100
AcDbSymbolTableRecord
100
AcDbRegAppTableRecord
  2
ACAD
 70
0
  0
APPID
  5
B9
330
3
100
AcDbSymbolTableRecord
100
AcDbRegAppTableRecord
  2
HATCHBACKGROUNDCOLOR
 70
0
  0
APPID
  5
BA
330
3
100
AcDbSymbolTableRecord
100
AcDbRegAppTableRecord
  2
EZDXF
 70
0
  0
ENDTAB
  0
TABLE
  2
DIMSTYLE
  5
4
330
0
100
AcDbSymbolTable
 70
12
100
AcDbDimStyleTable
  0
DIMSTYLE
105
2B
330
4
100
AcDbSymbolTableRecord
100
AcDbDimStyleTableRecord
  2
Standard
 70
0
 40
1.0
 41
2.5
 42
0.625
 43
3.75
 44
1.25
 45
0.0
 46
0.0
 47
0.0
 48
0.0
 49
2.5
140
2.5
141
2.5
142
0.0
143
0.03937007874
144
1.0
145
0.0
146
1.0
147
0.625
148
0.0
 69
0
 70
0
 71
0
 72
0
 73
0
 74
0
 75
0
 76
0
 77
1
 78
8
 79
3
170
0
171
3
172
1
173
0
174
0
175
0
176
0
177
0
178
0
179
2
271
2
272
2
273
2
274
3
275
0
276
0
277
2
278
44
279
0
280
0
281
0
282
0
283
0
284
8
285
0
286
0
288
0
289
3
290
0
371
-2
372
-2
  0
DIMSTYLE
105
73
330
4
100
AcDbSymbolTableRecord
100
AcDbDimStyleTableRecord
  2
EZDXF
 70
0
 40
1.0
 41
0.175
 42
0.125
 43
3.75
 44
0.375
 45
0.0
 46
0.0
 47
0.0
 48
0.0
 49
2.5
140
0.25
141
2.5
142
0.0
143
0.03937007874
144
100.0
145
0.0
146
0.5
147
0.1
148
0.0
 69
0
 70
0
 71
0
 72
0
 73
0
 74
0
 75
0
 76
0
 77
1
 78
12
 79
3
170
0
171
3
172
1
173
0
174
0
175
0
176
0
177
0
178
0
179
2
271
2
272
2
273
2
274
3
275
0
276
0
277
2
278
46
279
2
280
0
281
0
282
0
283
0
284
8
285
0
286
0
288
1
289
3
290
0
340
4C
342
74
371
-2
372
-2
  0
DIMSTYLE
105
7C
330
4
100
AcDbSymbolTableRecord
100
AcDbDimStyleTableRecord
  2
EZ_M_100_H25_CM
 70
0
 40
1.0
 41
0.25
 42
0.125
 43
3.75
 44
0.375
 45
0.0
 46
0.0
 47
0.0
 48
0.0
 49
2.5
140
0.25
141
2.5
142
0.125
143
0.03937007874
144
100.0
145
0.0
146
0.5
147
0.1
148
0.0
 69
0
 70
0
 71
0
 72
0
 73
0
 74
0
 75
0
 76
0
 77
1
 78
12
 79
3
170
0
171
3
172
1
173
0
174
0
175
0
176
0
177
0
178
0
179
2
271
2
272
2
273
2
274
3
275
0
276
0
277
2
278
46
279
2
280
0
281
0
282
0
283
0
284
8
285
0
286
0
288
1
289
3
290
0
340
4C
371
-2
372
-2
  0
DIMSTYLE
105
7D
330
4
100
AcDbSymbolTableRecord
100
AcDbDimStyleTableRecord
  2
EZ_M_50_H25_CM
 70
0
 40
1.0
 41
0.125
 42
0.0625
 43
3.75
 44
0.1875
 45
0.0
 46
0.0
 47
0.0
 48
0.0
 49
2.5
140
0.125
141
2.5
142
0.0625
143
0.03937007874
144
100.0
145
0.0
146
0.5
147
0.05
148
0.0
 69
0
 70
0
 71
0
 72
0
 73
0
 74
0
 75
0
 76
0
 77
1
 78
12
 79
3
170
0
171
3
172
1
173
0
174
0
175
0
176
0
177
0
178
0
179
2
271
2
272
2
273
2
274
3
275
0
276
0
277
2
278
46
279
2
280
0
281
0
282
0
283
0
284
8
285
0
286
0
288
1
289
3
290
0
340
4C
371
-2
372
-2
  0
DIMSTYLE
105
7E
330
4
100
AcDbSymbolTableRecord
100
AcDbDimStyleTableRecord
  2
EZ_M_25_H25_CM
 70
0
 40
1.0
 41
0.0625
 42
0.03125
 43
3.75
 44
0.09375
 45
0.0
 46
0.0
 47
0.0
 48
0.0
 49
2.5
140
0.0625
141
2.5
142
0.03125
143
0.03937007874
144
100.0
145
0.0
146
0.5
147
0.025
148
0.0
 69
0
 70
0
 71
0
 72
0
 73
0
 74
0
 75
0
 76
0
 77
1
 78
12
 79
3
170
0
171
3
172
1
173
0
174
0
175
0
176
0
177
0
178
0
179
2
271
2
272
2
273
2
274
3
275
0
276
0
277
2
278
46
279
2
280
0
281
0
282
0
283
0
284
8
285
0
286
0
288
1
289
3
290
0
340
4C
371
-2
372
-2
  0
DIMSTYLE
105
7F
330
4
100
AcDbSymbolTableRecord
100
AcDbDimStyleTableRecord
  2
EZ_M_20_H25_CM
 70
0
 40
1.0
 41
0.05
 42
0.025
 43
3.75
 44
0.07500000000000001
 45
0.0
 46
0.0
 47
0.0
 48
0.0
 49
2.5
140
0.05
141
2.5
142
0.025
143
0.03937007874
144
100.0
145
0.0
146
0.5
147
0.020000000000000004
148
0.0
 69
0
 70
0
 71
0
 72
0
 73
0
 74
0
 75
0
 76
0
 77
1
 78
12
 79
3
170
0
171
3
172
1
173
0
174
0
175
0
176
0
177
0
178
0
179
2
271
2
272
2
273
2
274
3
275
0
276
0
277
2
278
46
279
2
280
0
281
0
282
0
283
0
284
8
285
0
286
0
288
1
289
3
290
0
340
4C
371
-2
372
-2
  0
DIMSTYLE
105
80
330
4
100
AcDbSymbolTableRecord
100
AcDbDimStyleTableRecord
  2
EZ_M_10_H25_CM
 70
0
 40
1.0
 41
0.025
 42
0.0125
 43
3.75
 44
0.037500000000000006
 45
0.0
 46
0.0
 47
0.0
 48
0.0
 49
2.5
140
0.025
141
2.5
142
0.0125
143
0.03937007874
144
100.0
145
0.0
146
0.5
147
0.010000000000000002
148
0.0
 69
0
 70
0
 71
0
 72
0
 73
0
 74
0
 75
0
 76
0
 77
1
 78
12
 79
3
170
0
171
3
172
1
173
0
174
0
175
0
176
0
177
0
178
0
179
2
271
2
272
2
273
2
274
3
275
0
276
0
277
2
278
46
279
2
280
0
281
0
282
0
283
0
284
8
285
0
286
0
288
1
289
3
290
0
340
4C
371
-2
372
-2
  0
DIMSTYLE
105
81
330
4
100
AcDbSymbolTableRecord
100
AcDbDimStyleTableRecord
  2
EZ_M_5_H25_CM
 70
0
 40
1.0
 41
0.0125
 42
0.00625
 43
3.75
 44
0.018750000000000003
 45
0.0
 46
0.0
 47
0.0
 48
0.0
 49
2.5
140
0.0125
141
2.5
142
0.00625
143
0.03937007874
144
100.0
145
0.0
146
0.5
147
0.005000000000000001
148
0.0
 69
0
 70
0
 71
0
 72
0
 73
0
 74
0
 75
0
 76
0
 77
1
 78
12
 79
3
170
0
171
3
172
1
173
0
174
0
175
0
176
0
177
0
178
0
179
2
271
2
272
2
273
2
274
3
275
0
276
0
277
2
278
46
279
2
280
0
281
0
282
0
283
0
284
8
285
0
286
0
288
1
289
3
290
0
340
4C
371
-2
372
-2
  0
DIMSTYLE
105
82
330
4
100
AcDbSymbolTableRecord
100
AcDbDimStyleTableRecord
  2
EZ_M_1_H25_CM
 70
0
 40
1.0
 41
0.0025
 42
0.00125
 43
3.75
 44
0.00375
 45
0.0
 46
0.0
 47
0.0
 48
0.0
 49
2.5
140
0.0025
141
2.5
142
0.00125
143
0.03937007874
144
100.0
145
0.0
146
0.5
147
0.001
148
0.0
 69
0
 70
0
 71
0
 72
0
 73
0
 74
0
 75
0
 76
0
 77
1
 78
12
 79
3
170
0
171
3
172
1
173
0
174
0
175
0
176
0
177
0
178
0
179
2
271
2
272
2
273
2
274
3
275
0
276
0
277
2
278
46
279
2
280
0
281
0
282
0
283
0
284
8
285
0
286
0
288
1
289
3
290
0
340
4C
371
-2
372
-2
  0
DIMSTYLE
105
83
330
4
100
AcDbSymbolTableRecord
100
AcDbDimStyleTableRecord
  2
EZ_RADIUS
 70
0
 40
1.0
 41
0.25
 42
0.125
 43
3.75
 44
0.375
 45
0.0
 46
0.0
 47
0.0
 48
0.0
 49
2.5
140
0.25
141
0.0
142
0.0
143
0.03937007874
144
100.0
145
0.0
146
0.5
147
0.1
148
0.0
 69
0
 70
0
 71
0
 72
0
 73
0
 74
0
 75
0
 76
0
 77
1
 78
12
 79
3
170
0
171
3
172
0
173
0
174
0
175
0
176
0
177
0
178
0
179
2
271
2
272
2
273
2
274
3
275
0
276
0
277
2
278
46
279
1
280
0
281
0
282
0
283
0
284
8
285
0
286
0
288
1
289
3
290
0
340
4C
342
84
371
-2
372
-2
  0
DIMSTYLE
105
88
330
4
100
AcDbSymbolTableRecord
100
AcDbDimStyleTableRecord
  2
EZ_RADIUS_INSIDE
 70
0
 40
1.0
 41
0.25
 42
0.125
 43
3.75
 44
0.375
 45
0.0
 46
0.0
 47
0.0
 48
0.0
 49
2.5
140
0.25
141
0.0
142
0.0
143
0.03937007874
144
100.0
145
0.0
146
0.5
147
0.1
148
0.0
 69
0
 70
0
 71
0
 72
0
 73
0
 74
0
 75
0
 76
0
 77
0
 78
12
 79
3
170
0
171
3
172
0
173
0
174
1
175
0
176
0
177
0
178
0
179
2
271
2
272
2
273
2
274
3
275
0
276
0
277
2
278
46
279
0
280
0
281
0
282
0
283
0
284
8
285
0
286
0
288
1
289
0
290
0
340
4C
342
84
371
-2
372
-2
  0
DIMSTYLE
105
89
330
4
100
AcDbSymbolTableRecord
100
AcDbDimStyleTableRecord
  2
EZ_CURVED
 70
0
 40
1.0
 41
0.25
 42
0.125
 43
3.75
 44
0.375
 45
0.0
 46
0.0
 47
0.0
 48
0.0
 49
2.5
140
0.25
141
2.5
142
0.0
143
0.03937007874
144
100.0
145
0.0
146
0.5
147
0.1
148
0.0
 69
0
 70
0
 71
0
 72
0
 73
0
 74
0
 75
0
 76
0
 77
1
 78
12
 79
2
 90
2
170
0
171
3
172
1
173
0
174
0
175
0
176
0
177
0
178
0
179
2
271
2
272
2
273
2
274
3
275
0
276
0
277
2
278
46
279
2
280
0
281
0
282
0
283
0
284
8
285
0
286
0
288
1
289
3
290
0
340
4C
371
-2
372
-2
  0
ENDTAB
  0
TABLE
  2
BLOCK_RECORD
  5
9
330
0
100
AcDbSymbolTable
 70
5
  0
BLOCK_RECORD
  5
17
330
9
100
AcDbSymbolTableRecord
100
AcDbBlockTableRecord
  2
*Model_Space
340
1A
 70
0
280
1
281
0
  0
BLOCK_RECORD
  5
1B
330
9
100
AcDbSymbolTableRecord
100
AcDbBlockTableRecord
  2
*Paper_Space
340
1E
 70
0
280
1
281
0
  0
BLOCK_RECORD
  5
74
330
9
100
AcDbSymbolTableRecord
100
AcDbBlockTableRecord
  2
_ARCHTICK
340
0
 70
0
280
1
281
0
  0
BLOCK_RECORD
  5
78
330
9
100
AcDbSymbolTableRecord
100
AcDbBlockTableRecord
  2
_CLOSEDFILLED
340
0
 70
0
280
1
281
0
  0
BLOCK_RECORD
  5
84
330
9
100
AcDbSymbolTableRecord
100
AcDbBlockTableRecord
  2
_CLOSEDBLANK
340
0
 70
0
280
1
281
0
  0
ENDTAB
  0
ENDSEC
  0
SECTION
  2
BLOCKS
  0
BLOCK
  5
18
330
17
100
AcDbEntity
  8
0
100
AcDbBlockBegin
  2
*Model_Space
 70
0
 10
0.0
 20
0.0
 30
0.0
  3
*Model_Space
  1

  0
ENDBLK
  5
19
330
17
100
AcDbEntity
  8
0
100
AcDbBlockEnd
  0
BLOCK
  5
1C
330
1B
100
AcDbEntity
  8
0
100
AcDbBlockBegin
  2
*Paper_Space
 70
0
 10
0.0
 20
0.0
 30
0.0
  3
*Paper_Space
  1

  0
ENDBLK
  5
1D
330
1B
100
AcDbEntity
  8
0
100
AcDbBlockEnd
  0
BLOCK
  5
75
330
74
100
AcDbEntity
  8
0
100
AcDbBlockBegin
  2
_ARCHTICK
 70
0
 10
0.0
 20
0.0
 30
0.0
  3
_ARCHTICK
  1

  0
LWPOLYLINE
  5
77
330
74
100
AcDbEntity
  8
0
  6
BYBLOCK
 62
0
100
AcDbPolyline
 90
2
 70
0
 43
0.15
 10
-0.5
 20
-0.5
 10
0.5
 20
0.5
  0
ENDBLK
  5
76
330
74
100
AcDbEntity
  8
0
100
AcDbBlockEnd
  0
BLOCK
  5
79
330
78
100
AcDbEntity
  8
0
100
AcDbBlockBegin
  2
_CLOSEDFILLED
 70
0
 10
0.0
 20
0.0
 30
0.0
  3
_CLOSEDFILLED
  1

  0
SOLID
  5
7B
330
78
100
AcDbEntity
  8
0
  6
BYBLOCK
 62
0
100
AcDbTrace
 10
-1.0
 20
0.16439898372402537
 30
0.0
 11
0.0
 21
0.0
 31
0.0
 12
-1.0
 22
-0.16439898372402537
 32
0.0
 13
-1.0
 23
-0.16439898372402537
 33
0.0
  0
ENDBLK
  5
7A
330
78
100
AcDbEntity
  8
0
100
AcDbBlockEnd
  0
BLOCK
  5
85
330
84
100
AcDbEntity
  8
0
100
AcDbBlockBegin
  2
_CLOSEDBLANK
 70
0
 10
0.0
 20
0.0
 30
0.0
  3
_CLOSEDBLANK
  1

  0
LWPOLYLINE
  5
87
330
84
100
AcDbEntity
  8
0
  6
BYBLOCK
 62
0
100
AcDbPolyline
 90
3
 70
1
 10
-1.0
 20
0.16439898372402537
 10
0.0
 20
0.0
 10
-1.0
 20
-0.16439898372402537
  0
ENDBLK
  5
86
330
84
100
AcDbEntity
  8
0
100
AcDbBlockEnd
  0
ENDSEC
  0
SECTION
  2
ENTITIES
  0
LWPOLYLINE
  5
8C
330
17
100
AcDbEntity
  8
Layer
100
AcDbPolyline
 90
261
 70
1
 10
618.3839128466466
 20
150.2314835297714
 10
615.9498783718589
 20
150.9932134692296
 10
611.9836698290344
 20
152.23583261091542
 10
607.6577696023254
 20
153.59586693222298
 10
603.0009391555777
 20
155.05077904830176
 10
598.0236361612675
 20
156.5929716971182
 10
592.7657484618328
 20
158.23239734499356
 10
587.2779326051752
 20
159.96345691757406
 10
581.6087077458665
 20
161.771474641945
 10
575.7998288931095
 20
163.64598136264868
 10
569.8830631028119
 20
165.57668966228917
 10
563.8814227919096
 20
167.55151431929744
 10
557.8191945681996
 20
169.56164341489614
 10
551.7116356949994
 20
171.60406484587557
 10
545.5663300835572
 20
173.67320614356254
 10
539.3939163141149
 20
175.75741128745878
 10
533.2062987715033
 20
177.8473346934628
 10
527.0187545837828
 20
179.94207868172936
 10
520.8350833631822
 20
182.0355016436026
 10
514.663755278221
 20
184.1206214688968
 10
508.5130059007089
 20
186.1932872293405
 10
502.38516570504623
 20
188.2515745391745
 10
496.28017855445717
 20
190.29292150935873
 10
490.19979659896194
 20
192.30931678483662
 10
484.1425970834907
 20
194.30179876170777
 10
478.1084800094901
 20
196.27039471292048
 10
472.09849469851093
 20
198.20775869417625
 10
468.3181011245488
 20
199.41024285683937
 10
468.0149817775581
 20
198.4572902549331
 10
465.81232094777374
 20
199.15793534452422
 10
459.854625224611
 20
201.0262983902927
 10
453.9204869168796
 20
202.85513445059965
 10
448.00243429878464
 20
204.64409434169758
 10
442.10161716459487
 20
206.39323348154434
 10
436.21277775904844
 20
208.09999443357384
 10
430.33197407373854
 20
209.7663934519091
 10
424.46038379442786
 20
211.39159699619069
 10
418.5960002628859
 20
212.97292666179771
 10
412.7331091234714
 20
214.51000252576375
 10
406.86835361194596
 20
216.00437703597328
 10
401.00050703508225
 20
217.45737012867176
 10
395.1319000582175
 20
218.86952074073653
 10
389.2625453914697
 20
220.23824169120624
 10
383.38900612011366
 20
221.56342462231643
 10
377.51086821917056
 20
222.84480393014638
 10
371.62444288501433
 20
224.08351977106628
 10
365.7360836902214
 20
225.28147424519375
 10
359.84428489476204
 20
226.4326461331918
 10
353.9412780037275
 20
227.53968641509488
 10
348.0310095454566
 20
228.6057807703779
 10
342.11767555687345
 20
229.62945633513317
 10
336.1995830094867
 20
230.60831760273607
 10
330.2746155530723
 20
231.5427631957419
 10
324.3426387062749
 20
232.4336790239526
 10
318.4045153459027
 20
233.28158939077085
 10
312.46026047631335
 20
234.08620967605373
 10
306.50826020311325
 20
234.84671792159065
 10
300.5455222888697
 20
235.5643637938858
 10
294.57706470885165
 20
236.24149009966996
 10
288.60517843257463
 20
236.87561045371405
 10
282.6280883831538
 20
237.46627819437808
 10
276.6472852618657
 20
238.01402595107842
 10
270.6640173981594
 20
238.51806284600605
 10
264.6778736254157
 20
238.97968028194512
 10
258.69590247167173
 20
239.39965643401328
 10
252.71620633502914
 20
239.7735140990181
 10
246.73868259795987
 20
240.1045601413785
 10
240.77077583219958
 20
240.39148971013327
 10
234.80980960905683
 20
240.63107584047452
 10
228.8544872727239
 20
240.82469842738993
 10
222.90954825949206
 20
240.97318796283957
 10
216.97646795494828
 20
241.07430829497503
 10
211.0548608500913
 20
241.12797842689804
 10
205.14745538062903
 20
241.13490025097406
 10
199.25859123097365
 20
241.09352333831853
 10
193.38868381158414
 20
241.00068435049002
 10
187.53403803504978
 20
240.85716174156659
 10
181.7033484795587
 20
240.66522691552
 10
175.8950315964081
 20
240.41877424396029
 10
170.11025254032774
 20
240.12254057992996
 10
164.35634136655568
 20
239.77333030556474
 10
158.6312706794494
 20
239.37013381451817
 10
152.94249475706687
 20
238.91342771859667
 10
147.2897580876017
 20
238.39932392977485
 10
141.67425093795907
 20
237.8286568961839
 10
136.09891377203735
 20
237.2017768926256
 10
130.571096513597
 20
236.5200561573609
 10
125.0949281968689
 20
235.77973664786077
 10
119.67062644575148
 20
234.98142543859302
 10
114.3071545658692
 20
234.12860423443433
 10
109.01453261621037
 20
233.22248703896332
 10
103.80371077478853
 20
232.26306153637177
 10
98.68111241124836
 20
231.24875148626506
 10
93.65331963279726
 20
230.18223184025817
 10
88.73419458986041
 20
229.06874257103013
 10
83.93115375379523
 20
227.9073420062975
 10
79.25299234916966
 20
226.7046285016621
 10
74.70999589999275
 20
225.46630593847874
 10
70.3143604506871
 20
224.20043639133414
 10
66.07793925800578
 20
222.91104421498446
 10
62.00590309000415
 20
221.60295068135872
 10
58.103821197632925
 20
220.2804939207303
 10
54.36981303505519
 20
218.94604850779456
 10
50.80474182717984
 20
217.6048208245691
 10
47.40148060932455
 20
216.258659851446
 10
44.16595624008227
 20
214.91709987151307
 10
41.091782789990276
 20
213.56986557889033
 10
38.173851246246215
 20
212.2234720692578
 10
35.41449639114623
 20
210.87793113594043
 10
32.81134104455887
 20
209.53361355357683
 10
30.3722632180112
 20
208.19507396629507
 10
28.105568225632084
 20
206.8663178696478
 10
26.011031156090667
 20
205.54681276680287
 10
24.10140988010835
 20
204.2609441552186
 10
22.381442330753885
 20
203.01318615791962
 10
20.84431627062193
 20
201.8082840272918
 10
19.474823368281392
 20
200.64841665307276
 10
18.264334689371395
 20
199.54840764217158
 10
17.181493423686305
 20
198.4773853090369
 10
16.2134369049148
 20
197.46409023958844
 10
15.352951808754057
 20
196.5024920910482
 10
14.586104787993918
 20
195.5777582706162
 10
13.903338614288884
 20
194.68848345022636
 10
13.301699120490696
 20
193.84010703047755
 10
12.773099247782284
 20
193.01597072501818
 10
12.306722601586443
 20
192.20768008265864
 10
11.89801678847951
 20
191.42615128488453
 10
11.541377803749924
 20
190.66310565929444
 10
11.230644061601652
 20
189.9167321036237
 10
10.964099362733634
 20
189.1993218239893
 10
10.739311486720965
 20
188.49978661055286
 10
10.554494759614954
 20
187.82647019662704
 10
10.416362302534168
 20
187.22357862020704
 10
10.328233400827855
 20
186.5724048354954
 10
10.26950676546491
 20
185.88715180304368
 10
10.24755243544655
 20
185.2962705799551
 10
10.263326911695174
 20
184.6664646224051
 10
10.326304188593753
 20
184.0294764474981
 10
10.443264419845804
 20
183.38449065560516
 10
10.619660145298354
 20
182.73383971575834
 10
10.863475515256653
 20
182.07654432025413
 10
11.184067823890018
 20
181.40982014710326
 10
11.587703695801281
 20
180.7337169858988
 10
12.076350256017804
 20
180.0519840140238
 10
12.652235885289457
 20
179.3692150672862
 10
13.321629882513719
 20
178.6887259084946
 10
14.098193226631395
 20
178.01026204835384
 10
14.99884070812709
 20
177.3302298371313
 10
16.028971459757713
 20
176.64792170157955
 10
17.19261001456678
 20
175.9680293225609
 10
18.516543558226175
 20
175.29433813429952
 10
20.02528531990211
 20
174.6237380671067
 10
21.71668407600464
 20
173.95201887448647
 10
23.57011127147996
 20
173.28690867545598
 10
25.587118172162576
 20
172.64494524703022
 10
27.76040400920155
 20
172.02449955975183
 10
30.053848627862124
 20
171.42707342391995
 10
32.459395055281504
 20
170.86033825614385
 10
34.98285857198556
 20
170.322448952448
 10
37.631766430279384
 20
169.8002266038324
 10
40.38505725250761
 20
169.28184158791578
 10
43.22202804428338
 20
168.77506962985777
 10
46.17232895820919
 20
168.294196729011
 10
49.27192873101009
 20
167.827251476899
 10
52.513217103876315
 20
167.3575674191593
 10
55.898170604102745
 20
166.88908537237845
 10
59.44134557052925
 20
166.42754474020538
 10
63.163206876279474
 20
165.97751480661967
 10
67.08818207616736
 20
165.53841433451967
 10
71.23097713950884
 20
165.10627056371274
 10
75.59925735697914
 20
164.6812733682239
 10
80.19645999126084
 20
164.26491165927564
 10
85.0147543471783
 20
163.86077568026155
 10
90.04997255299543
 20
163.4757535416309
 10
95.28672816987779
 20
163.10804166970462
 10
100.71749927699105
 20
162.7697834277304
 10
106.32570831892997
 20
162.4555720103197
 10
112.08447845006819
 20
162.16261927686475
 10
117.97320079395723
 20
161.89563311637045
 10
123.97357740614079
 20
161.65303187326077
 10
129.66102584314962
 20
161.4485243350258
 10
129.62509137114773
 20
160.44917018672703
 10
130.03524431468722
 20
160.43441703495165
 10
136.21476602170466
 20
160.23986222566253
 10
142.47403919863748
 20
160.06742987079178
 10
148.80183569038266
 20
159.90864021694406
 10
155.16881487733457
 20
159.75840353790227
 10
161.55108013600278
 20
159.6215268056787
 10
167.95084186629117
 20
159.50466878025674
 10
174.38521522731094
 20
159.4067441621588
 10
180.86295087040736
 20
159.32014464944035
 10
187.37435243940843
 20
159.2377660906816
 10
193.90230666031968
 20
159.15622294803921
 10
200.43341085451553
 20
159.07669533048957
 10
206.95634918862373
 20
159.0045751522271
 10
213.48029202335798
 20
158.94610671823494
 10
220.02325709784597
 20
158.90039828324603
 10
226.5916142611249
 20
158.86092727191846
 10
233.1769477080071
 20
158.82353480175593
 10
239.77318971713208
 20
158.7879057029113
 10
246.37388879263156
 20
158.7535789277176
 10
252.972178648187
 20
158.71844879615915
 10
259.56016129912103
 20
158.6841892356248
 10
266.1338007911933
 20
158.6563117423455
 10
272.7005745657997
 20
158.6386892432248
 10
279.2689164252667
 20
158.62870579223585
 10
285.836958251024
 20
158.61771598195256
 10
292.40612330406907
 20
158.6006655968983
 10
298.97540683568394
 20
158.58083272315454
 10
305.5424945129908
 20
158.5661356449548
 10
312.1120597794934
 20
158.55911232162293
 10
318.68306134955446
 20
158.55673967946367
 10
325.2476204428249
 20
158.5562917380069
 10
331.7996825572638
 20
158.55864256008647
 10
338.34393944815884
 20
158.56428254254698
 10
344.88588221204816
 20
158.57103874751238
 10
351.4164608721545
 20
158.57241391654873
 10
357.94354893290205
 20
158.56681429292703
 10
364.4741382283245
 20
158.55922300316803
 10
371.00228679133227
 20
158.55403646684536
 10
377.5112503340773
 20
158.54534880442816
 10
383.9939391753747
 20
158.5237703755015
 10
390.4625354209468
 20
158.48991289280406
 10
396.91996574665336
 20
158.45766120748453
 10
403.35871468639033
 20
158.44242275420373
 10
409.79874348943287
 20
158.44583475223112
 10
416.2468908148673
 20
158.45221243342883
 10
422.6939763117616
 20
158.44414080318188
 10
429.15189633979423
 20
158.41762079387078
 10
435.6260364747411
 20
158.38222728034583
 10
442.09488605981323
 20
158.3460764489548
 10
448.5351411913937
 20
158.30588996937024
 10
454.94912745361563
 20
158.24757051083014
 10
461.3640439920235
 20
158.16101771451127
 10
467.8014208585415
 20
158.05586671454967
 10
474.2496113277758
 20
157.9480520643824
 10
480.68103761291945
 20
157.83968298468315
 10
487.076245696588
 20
157.7166798820445
 10
493.45336763720104
 20
157.56703401480235
 10
499.83986076061524
 20
157.3916499318721
 10
506.2410857222295
 20
157.20214263101028
 10
512.6298010507716
 20
157.00899959470388
 10
518.9729482961579
 20
156.80666179173198
 10
525.2663448583826
 20
156.57578588085684
 10
531.544319833306
 20
156.30614316502334
 10
537.8375655979992
 20
156.00955049459674
 10
544.1384555717177
 20
155.70243349681846
 10
550.4038902071634
 20
155.38596004375933
 10
556.6059427148618
 20
155.05070990824876
 10
562.7453170595392
 20
154.68781724136892
 10
568.8189191420082
 20
154.3029676396672
 10
574.8053593157126
 20
153.897838375858
 10
580.6778466740177
 20
153.47516286669992
 10
586.4043440244488
 20
153.03433330663586
 10
591.9610674900837
 20
152.56911359178687
 10
597.3304337836742
 20
152.08381937937972
 10
602.4724933556597
 20
151.60040047784074
 10
607.3270019992124
 20
151.1346996747538
 10
611.8395925931977
 20
150.6867279487207
 10
615.9768053878016
 20
150.25767723829492
 10
618.5145975238449
 20
149.9862983860087
  0
LWPOLYLINE
  5
8D
330
17
100
AcDbEntity
  8
Layer
100
AcDbPolyline
 90
5
 70
0
 10
408.88463939944944
 20
211.3627880015948
 10
405.0084865933887
 20
212.35043137046213
 10
405.996129962256
 20
216.22658417652283
 10
409.8722827683168
 20
215.2389408076555
 10
408.88463939944944
 20
211.3627880015948
  0
LWPOLYLINE
  5
8E
330
17
100
AcDbEntity
  8
Layer
100
AcDbPolyline
 90
5
 70
0
 10
179.49749532824464
 20
236.5680076503203
 10
175.5010929316816
 20
236.3983966697048
 10
175.33148195106608
 20
240.39479906626784
 10
179.32788434762912
 20
240.56441004688335
 10
179.49749532824464
 20
236.5680076503203
  0
LWPOLYLINE
  5
8F
330
17
100
AcDbEntity
  8
Layer
100
AcDbPolyline
 90
5
 70
0
 10
75.7770520847508
 20
221.61103335449152
 10
71.93330969962034
 20
220.5039450667965
 10
70.82622141192533
 20
224.347687451927
 10
74.6699637970558
 20
225.45477573962202
 10
75.7770520847508
 20
221.61103335449152
  0
LWPOLYLINE
  5
90
330
17
100
AcDbEntity
  8
Layer
100
AcDbPolyline
 90
5
 70
0
 10
23.866969817180646
 20
197.81580162142808
 10
22.34145225730004
 20
196.52243540318364
 10
19.10803671168894
 20
200.33622930288516
 10
20.633554271569544
 20
201.6295955211296
 10
23.866969817180646
 20
197.81580162142808
  0
LWPOLYLINE
  5
91
330
17
100
AcDbEntity
  8
Layer
100
AcDbPolyline
 90
5
 70
0
 10
17.046840744418244
 20
181.96909463636084
 10
18.716365689072656
 20
180.86787419558763
 10
15.963314587139696
 20
176.69406183395162
 10
14.293789642485283
 20
177.79528227472483
 10
17.046840744418244
 20
181.96909463636084
  0
LWPOLYLINE
  5
92
330
17
100
AcDbEntity
  8
Layer
100
AcDbPolyline
 90
5
 70
0
 10
97.44449103805307
 20
166.98140607195364
 10
101.43675590872103
 20
166.73276737337545
 10
101.1881172101428
 20
162.7405025027075
 10
97.19585233947485
 20
162.9891412012857
 10
97.44449103805307
 20
166.98140607195364
  0
LINE
  5
93
330
17
100
AcDbEntity
  8
Layer
100
AcDbLine
 10
599.3429919921821
 20
156.18417583599916
 30
0.0
 11
599.0593613788576
 21
155.22524222245482
 31
0.0
  0
LINE
  5
94
330
17
100
AcDbEntity
  8
Layer
100
AcDbLine
 10
598.6474819125187
 20
152.96419005052223
 30
0.0
 11
598.5747181813874
 21
151.96684084415978
 31
0.0
  0
LINE
  5
95
330
17
100
AcDbEntity
  8
Layer
100
AcDbLine
 10
580.2686909049672
 20
162.20389381228617
 30
0.0
 11
579.9763826942966
 21
161.24756964654813
 31
0.0
  0
LINE
  5
96
330
17
100
AcDbEntity
  8
Layer
100
AcDbLine
 10
578.7204850708088
 20
154.61861402064258
 30
0.0
 11
578.6427333018262
 21
153.6216412715566
 31
0.0
  0
LINE
  5
97
330
17
100
AcDbEntity
  8
Layer
100
AcDbLine
 10
504.38986108680575
 20
187.5782150956174
 30
0.0
 11
504.08097237401694
 21
186.6271169076727
 31
0.0
  0
LINE
  5
98
330
17
100
AcDbEntity
  8
Layer
100
AcDbLine
 10
498.77841398073156
 20
158.42072092195252
 30
0.0
 11
498.7208238884028
 21
157.4223806085996
 31
0.0
  0
LWPOLYLINE
  5
99
330
17
100
AcDbEntity
  8
Layer
100
AcDbPolyline
 90
300
 70
1
 10
277.42258027522934
 20
200.0
 10
277.4147807364666
 20
200.74846876230907
 10
277.3913855642351
 20
201.49660702188297
 10
277.3524050891844
 20
202.2440844219272
 10
277.2978565239949
 20
202.9905708974643
 10
277.2277639557773
 20
203.73573682108105
 10
277.1421583354366
 20
204.47925314848288
 10
277.04107746400484
 20
205.2207915637905
 10
276.9245659759493
 20
205.9600246245148
 10
276.79267531946317
 20
206.6966259061465
 10
276.6454637337475
 20
207.43027014629573
 10
276.4829962232943
 20
208.16063338831898
 10
276.30534452918266
 20
208.88739312436917
 10
276.1125870973995
 20
209.61022843780597
 10
275.9048090442004
 20
210.32882014490363
 10
275.6821021185245
 20
211.04285093579344
 10
275.44456466148057
 20
211.7520055145789
 10
275.1923015629228
 20
212.45597073856166
 10
274.92542421513406
 20
213.1544357565161
 10
274.64405046363817
 20
213.84709214595298
 10
274.34830455516277
 20
214.53363404930974
 10
274.03831708277545
 20
215.21375830900882
 10
273.7142249282176
 20
215.88716460132343
 10
273.37617120146103
 20
216.55355556899204
 10
273.0243051775149
 20
217.21263695252298
 10
272.65878223051
 20
217.8641177201312
 10
272.27976376508974
 20
218.50771019624963
 10
271.88741714513867
 20
219.14313018855873
 10
271.4819156198792
 20
219.77009711347765
 10
271.06343824736956
 20
220.38833412006224
 10
270.6321698154367
 20
220.9975682122544
 10
270.18830076007964
 20
221.59753036942973
 10
269.73202708137774
 20
222.1879556651892
 10
269.2635502569428
 20
222.76858338434337
 10
268.7830771529524
 20
223.33915713803682
 10
268.2908199328034
 20
223.8994249769622
 10
267.7869959634266
 20
224.449139502614
 10
267.27182771930364
 20
224.98805797653284
 10
266.74554268422855
 20
225.51594242749178
 10
266.20837325085733
 20
226.03255975657783
 10
265.66055661808974
 20
226.53768184012185
 10
265.10233468632924
 20
227.0310856304315
 10
264.5339539506662
 20
227.51255325428286
 10
263.95566539203304
 20
227.98187210912715
 10
263.3677243663777
 20
228.43883495696988
 10
262.7703904919058
 20
228.88324001588148
 10
262.16392753444086
 20
229.3148910490985
 10
261.54860329095214
 20
229.73359745167608
 10
260.9246894713035
 20
230.13917433465392
 10
260.29246157827384
 20
230.53144260669796
 10
259.6521987859027
 20
230.9102290531821
 10
259.00418381621523
 20
231.2753664126748
 10
258.34870281437946
 20
231.62669345079718
 10
257.6860452223534
 20
231.96405503141943
 10
257.0165036510751
 20
232.2873021851647
 10
256.34037375125405
 20
232.59629217518963
 10
255.65795408282014
 20
232.89088856021309
 10
254.9695459830881
 20
233.17096125476468
 10
254.2754534336953
 20
233.4363865866268
 10
253.57598292637203
 20
233.68704735144502
 10
252.87144332760343
 20
233.92283286448188
 10
252.1621457422427
 20
234.14363900949252
 10
251.448403376136
 20
234.34936828469927
 10
250.7305313978196
 20
234.53992984584565
 10
250.0088467993501
 20
234.7152395463108
 10
249.28366825632997
 20
234.87521997426623
 10
248.55531598718923
 20
235.01980048685851
 10
247.82411161178595
 20
235.1489172414034
 10
247.09037800938808
 20
235.26251322357692
 10
246.35443917609896
 20
235.36053827259116
 10
245.61662008178993
 20
235.442949103344
 10
244.87724652660248
 20
235.50970932553258
 10
244.13664499708443
 20
235.5607894597221
 10
243.39514252202238
 20
235.59616695036328
 10
242.65306652803525
 20
235.61582617575218
 10
241.91074469499162
 20
235.6197584549283
 10
241.16850481131578
 20
235.60796205150785
 10
240.42667462924547
 20
235.58044217445052
 10
239.6855817201057
 20
235.53721097575925
 10
238.9455533296625
 20
235.47828754511443
 10
238.20691623362046
 20
235.40369790144425
 10
237.46999659332778
 20
235.31347498143555
 10
236.73511981175236
 20
235.20765862498996
 10
236.0026103897934
 20
235.08629555763162
 10
235.27279178299065
 20
234.94943936987454
 10
234.5459862586956
 20
234.7971504935586
 10
233.8225147537674
 20
234.6294961751645
 10
233.10269673285606
 20
234.44655044611955
 10
232.3868500473359
 20
234.24839409010755
 10
231.6752907949514
 20
234.03511460739702
 10
230.96833318023712
 20
233.80680617620345
 10
230.26628937577408
 20
233.56356961110288
 10
229.56946938434302
 20
233.30551231851513
 10
228.87818090203584
 20
233.03274824927593
 10
228.19272918238576
 20
232.74539784831967
 10
227.51341690157594
 20
232.4435880014942
 10
226.84054402478614
 20
232.12745197953154
 10
226.17440767373665
 20
231.7971293791994
 10
225.51530199548756
 20
231.4527660616591
 10
224.86351803255178
 20
231.0945140880575
 10
224.21934359437893
 20
230.72253165238092
 10
223.58306313026662
 20
230.33698301160123
 10
222.9549576037558
 20
229.93803841314454
 10
222.33530436856503
 20
229.52587401971476
 10
221.7243770461191
 20
229.10067183150517
 10
221.1224454047252
 20
228.66261960583213
 10
220.5297752404512
 20
228.21191077422685
 10
219.94662825975723
 20
227.74874435702134
 10
219.37326196393374
 20
227.27332487546684
 10
218.80992953539604
 20
226.78586226142275
 10
218.25687972588614
 20
226.28657176465683
 10
217.71435674663087
 20
225.77567385779682
 10
217.18260016050525
 20
225.25339413897603
 10
216.6618447762482
 20
224.71996323221555
 10
216.15232054477747
 20
224.1756166855871
 10
215.65425245765005
 20
223.62059486720165
 10
215.16786044771197
 20
223.05514285906975
 10
214.6933592919824
 20
222.47951034888007
 10
214.2309585168139
 20
221.89395151974435
 10
213.78086230537167
 20
221.2987249379574
 10
213.34326940747198
 20
220.69409343882143
 10
212.91837305181977
 20
220.08032401058537
 10
212.50636086068442
 20
219.45768767655045
 10
212.1074147670509
 20
218.8264593753938
 10
211.72171093428332
 20
218.18691783976345
 10
211.34941967833632
 20
217.53934547319773
 10
210.99070539254802
 20
216.88402822542375
 10
210.64572647504883
 20
216.2212554660902
 10
210.31463525881716
 20
215.55131985698983
 10
209.99757794441354
 20
214.87451722282813
 10
209.6946945354224
 20
214.19114642059557
 10
209.4061187766307
 20
213.50150920760075
 10
209.13197809496978
 20
212.80591010822286
 10
208.87239354324726
 20
212.10465627944228
 10
208.6274797466936
 20
211.39805737520865
 10
208.39734485234675
 20
210.68642540970654
 10
208.18209048129745
 20
209.9700746195787
 10
207.98181168381637
 20
209.24932132516787
 10
207.79659689738236
 20
208.52448379083887
 10
207.62652790763107
 20
207.79588208444184
 10
207.47167981224078
 20
207.0638379359794
 10
207.33212098777128
 20
206.32867459553955
 10
207.20791305947066
 20
205.5907166905578
 10
207.09911087406348
 20
204.85029008247056
 10
207.00576247553192
 20
204.10772172282418
 10
206.92790908390094
 20
203.36333950890207
 10
206.86558507703654
 20
202.6174721389347
 10
206.81881797546572
 20
201.87044896695562
 10
206.78762843022398
 20
201.12259985736802
 10
206.77203021373646
 20
200.37425503928588
 10
206.77203021373646
 20
199.62574496071412
 10
206.78762843022398
 20
198.87740014263198
 10
206.81881797546572
 20
198.12955103304438
 10
206.86558507703654
 20
197.3825278610653
 10
206.92790908390094
 20
196.63666049109793
 10
207.00576247553192
 20
195.89227827717585
 10
207.09911087406348
 20
195.14970991752944
 10
207.20791305947066
 20
194.4092833094422
 10
207.33212098777128
 20
193.67132540446045
 10
207.47167981224078
 20
192.9361620640206
 10
207.62652790763107
 20
192.20411791555813
 10
207.79659689738236
 20
191.47551620916113
 10
207.98181168381637
 20
190.75067867483216
 10
208.18209048129745
 20
190.02992538042133
 10
208.39734485234675
 20
189.31357459029346
 10
208.6274797466936
 20
188.60194262479135
 10
208.87239354324726
 20
187.89534372055775
 10
209.13197809496978
 20
187.19408989177714
 10
209.4061187766307
 20
186.49849079239925
 10
209.6946945354224
 20
185.80885357940443
 10
209.9975779444135
 20
185.1254827771719
 10
210.31463525881716
 20
184.4486801430102
 10
210.64572647504883
 20
183.7787445339098
 10
210.99070539254802
 20
183.11597177457625
 10
211.34941967833632
 20
182.46065452680227
 10
211.72171093428335
 20
181.81308216023652
 10
212.1074147670509
 20
181.17354062460618
 10
212.50636086068442
 20
180.54231232344958
 10
212.91837305181977
 20
179.91967598941466
 10
213.34326940747195
 20
179.3059065611786
 10
213.78086230537167
 20
178.7012750620426
 10
214.2309585168139
 20
178.10604848025568
 10
214.6933592919824
 20
177.52048965111993
 10
215.167860447712
 20
176.94485714093022
 10
215.65425245765005
 20
176.37940513279833
 10
216.15232054477747
 20
175.82438331441293
 10
216.6618447762482
 20
175.28003676778445
 10
217.18260016050525
 20
174.74660586102397
 10
217.71435674663087
 20
174.22432614220318
 10
218.2568797258861
 20
173.7134282353432
 10
218.80992953539607
 20
173.21413773857725
 10
219.37326196393374
 20
172.7266751245332
 10
219.94662825975723
 20
172.25125564297866
 10
220.5297752404512
 20
171.78808922577318
 10
221.1224454047252
 20
171.33738039416787
 10
221.72437704611906
 20
170.89932816849483
 10
222.33530436856503
 20
170.47412598028524
 10
222.9549576037558
 20
170.0619615868555
 10
223.58306313026662
 20
169.66301698839877
 10
224.21934359437893
 20
169.27746834761908
 10
224.86351803255178
 20
168.9054859119425
 10
225.51530199548756
 20
168.5472339383409
 10
226.17440767373665
 20
168.2028706208006
 10
226.84054402478617
 20
167.87254802046846
 10
227.5134169015759
 20
167.5564119985058
 10
228.19272918238573
 20
167.25460215168033
 10
228.8781809020358
 20
166.96725175072407
 10
229.569469384343
 20
166.6944876814849
 10
230.26628937577408
 20
166.43643038889712
 10
230.96833318023712
 20
166.19319382379658
 10
231.6752907949514
 20
165.96488539260298
 10
232.3868500473359
 20
165.75160590989245
 10
233.10269673285606
 20
165.55344955388045
 10
233.8225147537674
 20
165.3705038248355
 10
234.5459862586956
 20
165.2028495064414
 10
235.27279178299065
 20
165.05056063012546
 10
236.0026103897934
 20
164.91370444236838
 10
236.73511981175238
 20
164.79234137501004
 10
237.46999659332778
 20
164.68652501856445
 10
238.20691623362046
 20
164.59630209855575
 10
238.94555332966246
 20
164.52171245488557
 10
239.68558172010566
 20
164.46278902424075
 10
240.42667462924544
 20
164.41955782554948
 10
241.16850481131578
 20
164.39203794849215
 10
241.91074469499162
 20
164.3802415450717
 10
242.65306652803525
 20
164.3841738242478
 10
243.39514252202238
 20
164.40383304963672
 10
244.13664499708443
 20
164.4392105402779
 10
244.87724652660248
 20
164.49029067446742
 10
245.6166200817899
 20
164.557050896656
 10
246.354439176099
 20
164.63946172740884
 10
247.09037800938808
 20
164.73748677642308
 10
247.82411161178595
 20
164.8510827585966
 10
248.55531598718923
 20
164.98019951314149
 10
249.28366825632995
 20
165.12478002573377
 10
250.00884679935007
 20
165.28476045368916
 10
250.73053139781956
 20
165.46007015415435
 10
251.448403376136
 20
165.65063171530073
 10
252.1621457422427
 20
165.85636099050748
 10
252.87144332760343
 20
166.07716713551812
 10
253.57598292637203
 20
166.31295264855498
 10
254.2754534336953
 20
166.5636134133732
 10
254.9695459830881
 20
166.82903874523532
 10
255.65795408282014
 20
167.10911143978691
 10
256.34037375125405
 20
167.40370782481037
 10
257.0165036510751
 20
167.7126978148353
 10
257.6860452223534
 20
168.03594496858057
 10
258.34870281437946
 20
168.37330654920282
 10
259.00418381621523
 20
168.7246335873252
 10
259.6521987859027
 20
169.0897709468179
 10
260.2924615782738
 20
169.46855739330204
 10
260.9246894713035
 20
169.86082566534608
 10
261.5486032909521
 20
170.26640254832392
 10
262.16392753444086
 20
170.6851089509015
 10
262.7703904919058
 20
171.11675998411852
 10
263.3677243663777
 20
171.56116504303012
 10
263.95566539203304
 20
172.01812789087285
 10
264.5339539506662
 20
172.48744674571714
 10
265.10233468632924
 20
172.9689143695685
 10
265.66055661808974
 20
173.46231815987815
 10
266.20837325085733
 20
173.96744024342217
 10
266.74554268422855
 20
174.48405757250822
 10
267.27182771930364
 20
175.01194202346718
 10
267.7869959634266
 20
175.550860497386
 10
268.2908199328034
 20
176.1005750230378
 10
268.7830771529524
 20
176.66084286196318
 10
269.2635502569428
 20
177.2314166156566
 10
269.73202708137774
 20
177.81204433481076
 10
270.18830076007964
 20
178.40246963057027
 10
270.6321698154367
 20
179.0024317877456
 10
271.06343824736956
 20
179.61166587993776
 10
271.4819156198792
 20
180.22990288652235
 10
271.88741714513867
 20
180.85686981144127
 10
272.27976376508974
 20
181.49228980375037
 10
272.65878223051
 20
182.1358822798688
 10
273.0243051775149
 20
182.78736304747704
 10
273.37617120146103
 20
183.446444431008
 10
273.7142249282176
 20
184.11283539867657
 10
274.03831708277545
 20
184.78624169099118
 10
274.34830455516277
 20
185.46636595069026
 10
274.6440504636381
 20
186.15290785404702
 10
274.92542421513406
 20
186.8455642434839
 10
275.1923015629228
 20
187.54402926143834
 10
275.44456466148057
 20
188.24799448542106
 10
275.6821021185245
 20
188.95714906420656
 10
275.9048090442004
 20
189.67117985509637
 10
276.1125870973995
 20
190.389771562194
 10
276.30534452918266
 20
191.1126068756308
 10
276.4829962232943
 20
191.83936661168102
 10
276.6454637337475
 20
192.56972985370427
 10
276.79267531946317
 20
193.3033740938535
 10
276.9245659759493
 20
194.0399753754852
 10
277.04107746400484
 20
194.7792084362095
 10
277.1421583354366
 20
195.52074685151712
 10
277.2277639557773
 20
196.26426317891895
 10
277.2978565239949
 20
197.0094291025357
 10
277.3524050891844
 20
197.75591557807277
 10
277.3913855642351
 20
198.503392978117
 10
277.4147807364666
 20
199.25153123769093
 10
277.42258027522934
 20
200.0
  0
LINE
  5
9A
330
17
100
AcDbEntity
  8
Layer
 62
7
100
AcDbLine
 10
18.761282833628655
 20
200.00000000000003
 30
0.0
 11
463.12720843288184
 21
199.99999999999997
 31
0.0
  0
LINE
  5
9B
330
17
100
AcDbEntity
  8
Layer
 62
7
100
AcDbLine
 10
105.5344679534793
 20
200.00000000000003
 30
0.0
 11
117.5344679534793
 21
200.00000000000003
 31
0.0
  0
LWPOLYLINE
  5
9C
330
17
100
AcDbEntity
  8
Layer
100
AcDbPolyline
 90
5
 70
0
 10
111.5344679534793
 20
205.00000000000003
 10
116.5344679534793
 20
200.00000000000003
 10
111.5344679534793
 20
195.00000000000003
 10
106.5344679534793
 20
200.00000000000003
 10
111.5344679534793
 20
205.00000000000003
  0
LINE
  5
9D
330
17
100
AcDbEntity
  8
Layer
 62
7
100
AcDbLine
 10
234.94424563325526
 20
200.0
 30
0.0
 11
246.94424563325526
 21
200.0
 31
0.0
  0
LWPOLYLINE
  5
9E
330
17
100
AcDbEntity
  8
Layer
100
AcDbPolyline
 90
5
 70
0
 10
240.94424563325526
 20
205.0
 10
245.94424563325526
 20
200.0
 10
240.94424563325526
 20
195.0
 10
235.94424563325526
 20
200.0
 10
240.94424563325526
 20
205.0
  0
LINE
  5
9F
330
17
100
AcDbEntity
  8
Layer
 62
7
100
AcDbLine
 10
364.35402331303123
 20
199.99999999999997
 30
0.0
 11
376.35402331303123
 21
199.99999999999997
 31
0.0
  0
LWPOLYLINE
  5
A0
330
17
100
AcDbEntity
  8
Layer
100
AcDbPolyline
 90
5
 70
0
 10
370.35402331303123
 20
204.99999999999997
 10
375.35402331303123
 20
199.99999999999997
 10
370.35402331303123
 20
194.99999999999997
 10
365.35402331303123
 20
199.99999999999997
 10
370.35402331303123
 20
204.99999999999997
  0
LINE
  5
A1
330
17
100
AcDbEntity
  8
Layer
 62
7
100
AcDbLine
 10
10.307167260504741
 20
186.32659411521152
 30
0.0
 11
617.2495633886302
 21
150.58647765698296
 31
0.0
  0
LINE
  5
A2
330
17
100
AcDbEntity
  8
Layer
 62
7
100
AcDbLine
 10
129.59927792408604
 20
179.30201656903486
 30
0.0
 11
141.5785268500506
 21
178.59661230921168
 31
0.0
  0
LWPOLYLINE
  5
A3
330
17
100
AcDbEntity
  8
Layer
100
AcDbPolyline
 90
5
 70
0
 10
135.88282082866132
 20
183.94066815827517
 10
140.58025610622022
 20
178.65539599753026
 10
135.2949839454753
 20
173.95796071997137
 10
130.5975486679164
 20
179.24323288071628
 10
135.88282082866132
 20
183.94066815827517
  0
LINE
  5
A4
330
17
100
AcDbEntity
  8
Layer
 62
7
100
AcDbLine
 10
278.0904970386686
 20
170.55803444151317
 30
0.0
 11
290.0697459646332
 21
169.85263018169
 31
0.0
  0
LWPOLYLINE
  5
A5
330
17
100
AcDbEntity
  8
Layer
100
AcDbPolyline
 90
5
 70
0
 10
284.37403994324393
 20
175.19668603075348
 10
289.0714752208028
 20
169.91141387000857
 10
283.7862030600579
 20
165.21397859244968
 10
279.088767782499
 20
170.4992507531946
 10
284.37403994324393
 20
175.19668603075348
  0
LINE
  5
A6
330
17
100
AcDbEntity
  8
Layer
100
AcDbLine
 10
242.09633027522938
 20
235.62024999999997
 30
0.0
 11
242.09633027522938
 21
236.62024999999997
 31
0.0
  0
LINE
  5
A7
330
17
100
AcDbEntity
  8
Layer
100
AcDbLine
 10
242.09633027522938
 20
164.37975000000003
 30
0.0
 11
242.09633027522938
 21
163.37975000000003
 31
0.0
  0
LINE
  5
A8
330
17
100
AcDbEntity
  8
Layer
100
AcDbLine
 10
277.42258027522934
 20
200.0
 30
0.0
 11
278.42258027522934
 21
200.0
 31
0.0
  0
LINE
  5
A9
330
17
100
AcDbEntity
  8
Layer
100
AcDbLine
 10
206.77008027522942
 20
200.0
 30
0.0
 11
205.77008027522942
 21
200.0
 31
0.0
  0
LINE
  5
AA
330
17
100
AcDbEntity
  8
Layer
 62
7
100
AcDbLine
 10
162.09633027522938
 20
159.61157067647946
 30
0.0
 11
162.09633027522938
 21
239.614165713274
 31
0.0
  0
LINE
  5
AB
330
17
100
AcDbEntity
  8
Layer
 62
7
100
AcDbLine
 10
162.09633027522938
 20
183.56247893935753
 30
0.0
 11
162.09633027522938
 21
195.56247893935753
 31
0.0
  0
LWPOLYLINE
  5
AC
330
17
100
AcDbEntity
  8
Layer
100
AcDbPolyline
 90
5
 70
0
 10
157.09633027522938
 20
189.56247893935753
 10
162.09633027522938
 20
194.56247893935753
 10
167.09633027522938
 20
189.56247893935753
 10
162.09633027522938
 20
184.56247893935753
 10
157.09633027522938
 20
189.56247893935753
  0
LINE
  5
AD
330
17
100
AcDbEntity
  8
Layer
 62
7
100
AcDbLine
 10
162.09633027522938
 20
203.66325745039592
 30
0.0
 11
162.09633027522938
 21
215.66325745039592
 31
0.0
  0
LWPOLYLINE
  5
AE
330
17
100
AcDbEntity
  8
Layer
100
AcDbPolyline
 90
5
 70
0
 10
157.09633027522938
 20
209.66325745039592
 10
162.09633027522938
 20
214.66325745039592
 10
167.09633027522938
 20
209.66325745039592
 10
162.09633027522938
 20
204.66325745039592
 10
157.09633027522938
 20
209.66325745039592
  0
LINE
  5
AF
330
17
100
AcDbEntity
  8
Layer
 62
7
100
AcDbLine
 10
372.0963302752294
 20
158.55257622200062
 30
0.0
 11
372.0963302752294
 21
223.98421767306837
 31
0.0
  0
LINE
  5
B0
330
17
100
AcDbEntity
  8
Layer
 62
7
100
AcDbLine
 10
372.0963302752294
 20
177.40365072987433
 30
0.0
 11
372.0963302752294
 21
189.40365072987433
 31
0.0
  0
LWPOLYLINE
  5
B1
330
17
100
AcDbEntity
  8
Layer
100
AcDbPolyline
 90
5
 70
0
 10
367.0963302752294
 20
183.40365072987433
 10
372.0963302752294
 20
188.40365072987433
 10
377.0963302752294
 20
183.40365072987433
 10
372.0963302752294
 20
178.40365072987433
 10
367.0963302752294
 20
183.40365072987433
  0
LINE
  5
B2
330
17
100
AcDbEntity
  8
Layer
 62
7
100
AcDbLine
 10
372.0963302752294
 20
193.13314316519467
 30
0.0
 11
372.0963302752294
 21
205.13314316519467
 31
0.0
  0
LWPOLYLINE
  5
B3
330
17
100
AcDbEntity
  8
Layer
100
AcDbPolyline
 90
5
 70
0
 10
367.0963302752294
 20
199.13314316519467
 10
372.0963302752294
 20
204.13314316519467
 10
377.0963302752294
 20
199.13314316519467
 10
372.0963302752294
 20
194.13314316519467
 10
367.0963302752294
 20
199.13314316519467
  0
LWPOLYLINE
  5
B4
330
17
100
AcDbEntity
  8
NumLabel
 62
1
100
AcDbPolyline
 90
2
 70
0
 10
186.01834862385323
 20
179.46100917431193
 10
184.01834862385323
 20
179.46100917431193
  0
LWPOLYLINE
  5
B5
330
17
100
AcDbEntity
  8
NumLabel
 62
1
100
AcDbPolyline
 90
4
 70
0
 10
183.01834862385323
 20
179.46100917431193
 10
181.01834862385323
 20
179.46100917431193
 10
181.01834862385323
 20
169.46100917431193
 10
183.01834862385323
 20
169.46100917431193
  0
LWPOLYLINE
  5
B6
330
17
100
AcDbEntity
  8
NumLabel
 62
1
100
AcDbPolyline
 90
4
 70
0
 10
184.01834862385323
 20
169.46100917431193
 10
186.01834862385323
 20
169.46100917431193
 10
186.01834862385323
 20
174.46100917431193
 10
184.01834862385323
 20
174.46100917431193
  0
LWPOLYLINE
  5
B7
330
17
100
AcDbEntity
  8
NumLabel
 62
1
100
AcDbPolyline
 90
2
 70
0
 10
183.01834862385323
 20
174.46100917431193
 10
181.01834862385323
 20
174.46100917431193
  0
LWPOLYLINE
  5
B8
330
17
100
AcDbEntity
  8
NumLabel
 62
1
100
AcDbPolyline
 90
2
 70
0
 10
191.01834862385323
 20
179.46100917431193
 10
191.01834862385323
 20
169.46100917431193
  0
ENDSEC
  0
SECTION
  2
OBJECTS
  0
DICTIONARY
  5
A
330
0
100
AcDbDictionary
280
0
281
1
  3
ACAD_COLOR
350
B
  3
ACAD_GROUP
350
C
  3
ACAD_LAYOUT
350
D
  3
ACAD_MATERIAL
350
E
  3
ACAD_MLEADERSTYLE
350
F
  3
ACAD_MLINESTYLE
350
10
  3
ACAD_PLOTSETTINGS
350
11
  3
ACAD_PLOTSTYLENAME
350
12
  3
ACAD_SCALELIST
350
14
  3
ACAD_TABLESTYLE
350
15
  3
ACAD_VISUALSTYLE
350
16
  3
EZDXF_META
350
2D
  0
DICTIONARY
  5
B
330
A
100
AcDbDictionary
280
0
281
1
  0
DICTIONARY
  5
C
330
A
100
AcDbDictionary
280
0
281
1
  0
DICTIONARY
  5
D
330
A
100
AcDbDictionary
280
0
281
1
  3
Model
350
1A
  3
Layout1
350
1E
  0
DICTIONARY
  5
E
330
A
100
AcDbDictionary
280
0
281
1
  3
ByBlock
350
1F
  3
ByLayer
350
20
  3
Global
350
21
  0
DICTIONARY
  5
F
330
A
100
AcDbDictionary
280
0
281
1
  3
Standard
350
2C
  0
DICTIONARY
  5
10
330
A
100
AcDbDictionary
280
0
281
1
  3
Standard
350
22
  0
DICTIONARY
  5
11
330
A
100
AcDbDictionary
280
0
281
1
  0
ACDBDICTIONARYWDFLT
  5
12
330
A
100
AcDbDictionary
280
0
281
1
  3
Normal
350
13
100
AcDbDictionaryWithDefault
340
13
  0
ACDBPLACEHOLDER
  5
13
330
12
  0
DICTIONARY
  5
14
330
A
100
AcDbDictionary
280
0
281
1
  0
DICTIONARY
  5
15
330
A
100
AcDbDictionary
280
0
281
1
  0
DICTIONARY
  5
16
330
A
100
AcDbDictionary
280
0
281
1
  3
2dWireframe
350
5A
  3
Basic
350
5B
  3
Brighten
350
5C
  3
ColorChange
350
5D
  3
Conceptual
350
5E
  3
Dim
350
5F
  3
EdgeColorOff
350
60
  3
Facepattern
350
61
  3
Flat
350
62
  3
FlatWithEdges
350
63
  3
Gouraud
350
64
  3
GouraudWithEdges
350
65
  3
Hidden
350
66
  3
JitterOff
350
67
  3
Linepattern
350
68
  3
Modeling
350
69
  3
OverhangOff
350
6A
  3
Realistic
350
6B
  3
Shaded
350
6C
  3
Shaded with edges
350
6D
  3
Shades of Gray
350
6E
  3
Sketchy
350
6F
  3
Thicken
350
70
  3
Wireframe
350
71
  3
X-Ray
350
72
  0
LAYOUT
  5
1A
330
D
100
AcDbPlotSettings
  1

  2
Adobe PDF
  4
A3
  6

 40
7.5
 41
20.0
 42
7.5
 43
20.0
 44
420.0
 45
297.0
 46
0.0
 47
0.0
 48
0.0
 49
0.0
140
0.0
141
0.0
142
1.0
143
1.0
 70
1024
 72
1
 73
0
 74
5
  7

 75
16
 76
0
 77
2
 78
300
147
1.0
148
0.0
149
0.0
100
AcDbLayout
  1
Model
 70
1
 71
0
 10
0.0
 20
0.0
 11
420.0
 21
297.0
 12
0.0
 22
0.0
 32
0.0
 14
1e+20
 24
1e+20
 34
1e+20
 15
-1e+20
 25
-1e+20
 35
-1e+20
146
0.0
 13
0.0
 23
0.0
 33
0.0
 16
1.0
 26
0.0
 36
0.0
 17
0.0
 27
1.0
 37
0.0
 76
1
330
17
  0
LAYOUT
  5
1E
330
D
100
AcDbPlotSettings
  1

  2
Adobe PDF
  4
A3
  6

 40
7.5
 41
20.0
 42
7.5
 43
20.0
 44
420.0
 45
297.0
 46
0.0
 47
0.0
 48
0.0
 49
0.0
140
0.0
141
0.0
142
1.0
143
1.0
 70
0
 72
1
 73
0
 74
5
  7

 75
16
 76
0
 77
2
 78
300
147
1.0
148
0.0
149
0.0
100
AcDbLayout
  1
Layout1
 70
1
 71
1
 10
0.0
 20
0.0
 11
420.0
 21
297.0
 12
0.0
 22
0.0
 32
0.0
 14
1e+20
 24
1e+20
 34
1e+20
 15
-1e+20
 25
-1e+20
 35
-1e+20
146
0.0
 13
0.0
 23
0.0
 33
0.0
 16
1.0
 26
0.0
 36
0.0
 17
0.0
 27
1.0
 37
0.0
 76
1
330
1B
  0
MATERIAL
  5
1F
102
{ACAD_REACTORS
330
E
102
}
330
E
100
AcDbMaterial
  1
ByBlock
  2

 70
0
 40
1.0
 71
1
 41
1.0
 91
-1023410177
 42
1.0
 72
1
  3

 73
1
 74
1
 75
1
 44
0.5
 73
0
 45
1.0
 46
1.0
 77
1
  4

 78
1
 79
1
170
1
 48
1.0
171
1
  6

172
1
173
1
174
1
140
1.0
141
1.0
175
1
  7

176
1
177
1
178
1
143
1.0
179
1
  8

270
1
271
1
272
1
145
1.0
146
1.0
273
1
  9

274
1
275
1
276
1
 42
1.0
 72
1
  3

 73
1
 74
1
 75
1
 94
63
  0
MATERIAL
  5
20
102
{ACAD_REACTORS
330
E
102
}
330
E
100
AcDbMaterial
  1
ByLayer
  2

 70
0
 40
1.0
 71
1
 41
1.0
 91
-1023410177
 42
1.0
 72
1
  3

 73
1
 74
1
 75
1
 44
0.5
 73
0
 45
1.0
 46
1.0
 77
1
  4

 78
1
 79
1
170
1
 48
1.0
171
1
  6

172
1
173
1
174
1
140
1.0
141
1.0
175
1
  7

176
1
177
1
178
1
143
1.0
179
1
  8

270
1
271
1
272
1
145
1.0
146
1.0
273
1
  9

274
1
275
1
276
1
 42
1.0
 72
1
  3

 73
1
 74
1
 75
1
 94
63
  0
MATERIAL
  5
21
102
{ACAD_REACTORS
330
E
102
}
330
E
100
AcDbMaterial
  1
Global
  2

 70
0
 40
1.0
 71
1
 41
1.0
 91
-1023410177
 42
1.0
 72
1
  3

 73
1
 74
1
 75
1
 44
0.5
 73
0
 45
1.0
 46
1.0
 77
1
  4

 78
1
 79
1
170
1
 48
1.0
171
1
  6

172
1
173
1
174
1
140
1.0
141
1.0
175
1
  7

176
1
177
1
178
1
143
1.0
179
1
  8

270
1
271
1
272
1
145
1.0
146
1.0
273
1
  9

274
1
275
1
276
1
 42
1.0
 72
1
  3

 73
1
 74
1
 75
1
 94
63
  0
MLINESTYLE
  5
22
102
{ACAD_REACTORS
330
10
102
}
330
10
100
AcDbMlineStyle
  2
Standard
 70
0
  3

 62
256
 51
90.0
 52
90.0
 71
2
 49
0.5
 62
256
  6
BYLAYER
 49
-0.5
 62
256
  6
BYLAYER
  0
MLEADERSTYLE
  5
2C
102
{ACAD_REACTORS
330
F
102
}
330
F
100
AcDbMLeaderStyle
179
2
170
2
171
1
172
0
 90
2
 40
0.0
 41
0.0
173
1
 91
-1056964608
 92
-2
290
1
 42
2.0
291
1
 43
8.0
  3
Standard
 44
4.0
300

342
29
174
1
175
1
176
0
178
1
 93
-1056964608
 45
4.0
292
0
297
0
 46
4.0
 94
-1056964608
 47
1.0
 49
1.0
140
1.0
294
1
141
0.0
177
0
142
1.0
295
0
296
0
143
3.75
271
0
272
9
273
9
  0
DICTIONARY
  5
2D
330
A
100
AcDbDictionary
281
1
  3
CREATED_BY_EZDXF
350
2E
  3
WRITTEN_BY_EZDXF
350
BB
  0
DICTIONARYVAR
  5
2E
330
2D
100
DictionaryVariables
280
0
  1
1.3.0 @ 2026-01-06T17:07:22.390911+00:00
  0
VISUALSTYLE
  5
5A
102
{ACAD_REACTORS
330
16
102
}
330
16
100
AcDbVisualStyle
  2
2dWireframe
 70
4
 90
0
 40
0.6
 62
7
290
0
291
0
  0
VISUALSTYLE
  5
5B
102
{ACAD_REACTORS
330
16
102
}
330
16
100
AcDbVisualStyle
  2
Basic
 70
7
 90
1
 40
0.6
 62
7
290
0
291
1
  0
VISUALSTYLE
  5
5C
102
{ACAD_REACTORS
330
16
102
}
330
16
100
AcDbVisualStyle
  2
Brighten
 70
12
 90
2
 40
0.6
 62
7
290
0
291
1
  0
VISUALSTYLE
  5
5D
102
{ACAD_REACTORS
330
16
102
}
330
16
100
AcDbVisualStyle
  2
ColorChange
 70
16
 90
2
 40
0.6
 62
8
290
0
291
1
  0
VISUALSTYLE
  5
5E
102
{ACAD_REACTORS
330
16
102
}
330
16
100
AcDbVisualStyle
  2
Conceptual
 70
9
 90
3
 40
0.6
 62
7
290
0
291
0
  0
VISUALSTYLE
  5
5F
102
{ACAD_REACTORS
330
16
102
}
330
16
100
AcDbVisualStyle
  2
Dim
 70
11
 90
2
 40
0.6
 62
7
290
0
291
1
  0
VISUALSTYLE
  5
60
102
{ACAD_REACTORS
330
16
102
}
330
16
100
AcDbVisualStyle
  2
EdgeColorOff
 70
22
 90
2
 40
0.6
 62
7
290
0
291
1
  0
VISUALSTYLE
  5
61
102
{ACAD_REACTORS
330
16
102
}
330
16
100
AcDbVisualStyle
  2
Facepattern
 70
15
 90
2
 40
0.6
 62
7
290
0
291
1
  0
VISUALSTYLE
  5
62
102
{ACAD_REACTORS
330
16
102
}
330
16
100
AcDbVisualStyle
  2
Flat
 70
0
 90
2
 40
0.6
 62
7
290
0
291
1
  0
VISUALSTYLE
  5
63
102
{ACAD_REACTORS
330
16
102
}
330
16
100
AcDbVisualStyle
  2
FlatWithEdges
 70
1
 90
2
 40
0.6
 62
7
290
0
291
1
  0
VISUALSTYLE
  5
64
102
{ACAD_REACTORS
330
16
102
}
330
16
100
AcDbVisualStyle
  2
Gouraud
 70
2
 90
2
 40
0.6
 62
7
290
0
291
1
  0
VISUALSTYLE
  5
65
102
{ACAD_REACTORS
330
16
102
}
330
16
100
AcDbVisualStyle
  2
GouraudWithEdges
 70
3
 90
2
 40
0.6
 62
7
290
0
291
1
  0
VISUALSTYLE
  5
66
102
{ACAD_REACTORS
330
16
102
}
330
16
100
AcDbVisualStyle
  2
Hidden
 70
6
 90
1
 40
0.6
 62
7
290
0
291
0
  0
VISUALSTYLE
  5
67
102
{ACAD_REACTORS
330
16
102
}
330
16
100
AcDbVisualStyle
  2
JitterOff
 70
20
 90
2
 40
0.6
 62
7
290
0
291
1
  0
VISUALSTYLE
  5
68
102
{ACAD_REACTORS
330
16
102
}
330
16
100
AcDbVisualStyle
  2
Linepattern
 70
14
 90
2
 40
0.6
 62
7
290
0
291
1
  0
VISUALSTYLE
  5
69
102
{ACAD_REACTORS
330
16
102
}
330
16
100
AcDbVisualStyle
  2
Modeling
 70
10
 90
2
 40
0.6
 62
7
290
0
291
0
  0
VISUALSTYLE
  5
6A
102
{ACAD_REACTORS
330
16
102
}
330
16
100
AcDbVisualStyle
  2
OverhangOff
 70
21
 90
2
 40
0.6
 62
7
290
0
291
1
  0
VISUALSTYLE
  5
6B
102
{ACAD_REACTORS
330
16
102
}
330
16
100
AcDbVisualStyle
  2
Realistic
 70
8
 90
2
 40
0.6
 62
7
290
0
291
0
  0
VISUALSTYLE
  5
6C
102
{ACAD_REACTORS
330
16
102
}
330
16
100
AcDbVisualStyle
  2
Shaded
 70
27
 90
2
 40
0.6
 62
7
290
0
291
0
  0
VISUALSTYLE
  5
6D
102
{ACAD_REACTORS
330
16
102
}
330
16
100
AcDbVisualStyle
  2
Shaded with edges
 70
26
 90
2
 40
0.6
 62
7
290
0
291
0
  0
VISUALSTYLE
  5
6E
102
{ACAD_REACTORS
330
16
102
}
330
16
100
AcDbVisualStyle
  2
Shades of Gray
 70
23
 90
2
 40
0.6
 62
7
290
0
291
0
  0
VISUALSTYLE
  5
6F
102
{ACAD_REACTORS
330
16
102
}
330
16
100
AcDbVisualStyle
  2
Sketchy
 70
24
 90
1
 40
0.6
 62
7
290
0
291
0
  0
VISUALSTYLE
  5
70
102
{ACAD_REACTORS
330
16
102
}
330
16
100
AcDbVisualStyle
  2
Thicken
 70
13
 90
2
 40
0.6
 62
7
290
0
291
1
  0
VISUALSTYLE
  5
71
102
{ACAD_REACTORS
330
16
102
}
330
16
100
AcDbVisualStyle
  2
Wireframe
 70
5
 90
0
 40
0.6
 62
7
290
0
291
0
  0
VISUALSTYLE
  5
72
102
{ACAD_REACTORS
330
16
102
}
330
16
100
AcDbVisualStyle
  2
X-Ray
 70
25
 90
2
 40
0.5
 62
7
290
0
291
0
  0
DICTIONARYVAR
  5
BB
330
2D
100
DictionaryVariables
280
0
  1
1.3.0 @ 2026-01-06T17:07:22.554139+00:00
  0
ENDSEC
  0
EOF
