<?xml version="1.0" encoding="utf-8" standalone="no"?>
<!DOCTYPE svg PUBLIC "-//W3C//DTD SVG 1.1//EN"
  "http://www.w3.org/Graphics/SVG/1.1/DTD/svg11.dtd">
<svg xmlns:xlink="http://www.w3.org/1999/xlink" width="1152pt" height="340.507627pt" viewBox="0 0 1152 340.507627" xmlns="http://www.w3.org/2000/svg" version="1.1">
 <metadata>
  <rdf:RDF xmlns:dc="http://purl.org/dc/elements/1.1/" xmlns:cc="http://creativecommons.org/ns#" xmlns:rdf="http://www.w3.org/1999/02/22-rdf-syntax-ns#">
   <cc:Work>
    <dc:type rdf:resource="http://purl.org/dc/dcmitype/StillImage"/>
    <dc:date>2026-01-07T02:07:20.028813</dc:date>
    <dc:format>image/svg+xml</dc:format>
    <dc:creator>
     <cc:Agent>
      <dc:title>Matplotlib v3.10.1, https://matplotlib.org/</dc:title>
     </cc:Agent>
    </dc:creator>
   </cc:Work>
  </rdf:RDF>
 </metadata>
 <defs>
  <style type="text/css">*{stroke-linejoin: round; stroke-linecap: butt}</style>
 </defs>
 <g id="figure_1">
  <g id="patch_1">
   <path d="M 0 340.507627 
L 1152 340.507627 
L 1152 0 
L 0 0 
z
" style="fill: #ffffff"/>
  </g>
  <g id="axes_1">
   <g id="patch_2">
    <path d="M 0 340.507627 
L 1152 340.507627 
L 1152 0 
L 0 0 
z
" style="fill: #212830"/>
   </g>
   <g id="patch_3">
    <path d="M 1099.184888 323.785728 
L 1091.281611 320.936829 
L 1078.407326 316.315286 
L 1064.262923 311.28484 
L 1048.836523 305.902183 
L 1032.057197 300.174099 
L 1014.025961 294.026864 
L 994.943327 287.48485 
L 975.020295 280.59569 
L 954.426289 273.413942 
L 933.320557 265.994141 
L 911.811659 258.376265 
L 889.991606 250.60524 
L 867.935876 242.711064 
L 845.692534 234.723515 
L 823.323857 226.678022 
L 800.893874 218.603182 
L 778.462424 210.533553 
L 756.067571 202.49602 
L 733.739078 194.506773 
L 711.503752 186.586001 
L 689.366205 178.748289 
L 667.330251 171.001312 
L 645.406702 163.356222 
L 623.599636 155.826579 
L 601.905343 148.420766 
L 581.506307 141.54355 
L 580.522955 144.460346 
L 579.355011 144.066547 
L 557.908951 136.938857 
L 536.574869 129.965096 
L 515.336803 123.148903 
L 494.186777 116.492866 
L 473.116189 110.002752 
L 452.107972 103.681865 
L 431.145314 97.528807 
L 410.219649 91.542906 
L 389.324535 85.726702 
L 368.447654 80.081594 
L 347.5761 74.60618 
L 326.70518 69.297949 
L 305.833721 64.158576 
L 284.954867 59.190439 
L 264.059537 54.391809 
L 243.145658 49.76031 
L 222.21615 45.297248 
L 201.268008 41.004884 
L 180.296158 36.882622 
L 159.298535 32.928447 
L 138.280127 29.142339 
L 117.242152 25.527087 
L 96.180436 22.083194 
L 75.094759 18.808367 
L 53.990402 15.703419 
L 52.363636 15.477619 
L 52.363636 282.96344 
L 72.300754 283.062988 
L 96.156334 283.146501 
L 119.99244 283.213967 
L 143.776593 283.311693 
L 167.549103 283.45895 
L 191.334227 283.633191 
L 215.101202 283.800707 
L 238.780177 283.974899 
L 262.336147 284.199154 
L 285.830186 284.490985 
L 309.272876 284.79567 
L 332.614522 285.033616 
L 355.958703 285.179159 
L 379.341756 285.296387 
L 402.712829 285.468457 
L 426.127949 285.721878 
L 449.619691 286.014448 
L 473.091231 286.308586 
L 496.436796 286.632117 
L 519.657322 287.048799 
L 542.890154 287.582492 
L 566.222624 288.183323 
L 589.591389 288.7886 
L 612.869262 289.397393 
L 635.970172 290.07688 
L 658.991521 290.882413 
L 682.07173 291.801558 
L 705.230555 292.770295 
L 728.32704 293.742382 
L 751.209029 294.748024 
L 773.859678 295.867776 
L 796.431047 297.154903 
L 819.078835 298.576163 
L 841.77369 300.044714 
L 864.305609 301.526948 
L 886.527857 303.07636 
L 908.443769 304.736563 
L 930.046947 306.491881 
L 951.24232 308.316523 
L 971.892501 310.198116 
L 991.855086 312.144968 
L 1011.037629 314.184042 
L 1029.379282 316.286356 
L 1046.734249 318.356152 
L 1062.9056 320.319266 
L 1077.762592 322.178451 
L 1091.308993 323.933855 
L 1099.636364 325.030007 
L 1099.184888 323.785728 
" clip-path="url(#pcb0390933d)" style="fill: none; stroke: #ff0000; stroke-width: 0.72; stroke-linejoin: miter"/>
   </g>
   <g id="patch_4">
    <path d="M 494.216272 209.991522 
L 478.82579 209.991522 
L 478.82579 225.382004 
L 494.216272 225.382004 
L 494.216272 240.772486 
L 478.82579 240.772486 
" clip-path="url(#pcb0390933d)" style="fill: none; stroke: #ff0000; stroke-width: 0.72; stroke-linejoin: miter"/>
   </g>
   <g id="patch_5">
    <path d="M 501.911513 209.991522 
L 517.301995 209.991522 
L 517.301995 225.382004 
L 501.911513 225.382004 
L 517.301995 225.382004 
L 517.301995 240.772486 
L 501.911513 240.772486 
" clip-path="url(#pcb0390933d)" style="fill: none; stroke: #ff0000; stroke-width: 0.72; stroke-linejoin: miter"/>
   </g>
   <g id="patch_6">
    <path d="M 375.814763 94.82829 
L 363.929205 91.614513 
L 367.142983 79.728955 
L 379.02854 82.942732 
L 375.814763 94.82829 
" clip-path="url(#pcb0390933d)" style="fill: none; stroke: #ff0000; stroke-width: 0.72; stroke-linejoin: miter"/>
   </g>
   <g id="patch_7">
    <path d="M 235.824781 119.714195 
L 251.215263 135.104677 
L 235.824781 150.495159 
L 220.434299 135.104677 
L 235.824781 119.714195 
" clip-path="url(#pcb0390933d)" style="fill: none; stroke: #ff0000; stroke-width: 0.72; stroke-linejoin: miter"/>
   </g>
   <g id="patch_8">
    <path d="M 706.799328 251.399786 
L 722.18981 236.009304 
L 737.580292 251.399786 
L 722.18981 266.790268 
L 706.799328 251.399786 
" clip-path="url(#pcb0390933d)" style="fill: none; stroke: #ff0000; stroke-width: 0.72; stroke-linejoin: miter"/>
   </g>
   <g id="patch_9">
    <path d="M 706.799328 232.476931 
L 722.18981 217.086449 
L 737.580292 232.476931 
L 722.18981 247.867412 
L 706.799328 232.476931 
" clip-path="url(#pcb0390933d)" style="fill: none; stroke: #ff0000; stroke-width: 0.72; stroke-linejoin: miter"/>
   </g>
   <g id="line2d_1">
    <path d="M 1041.361034 303.35022 
L 1040.371507 306.264926 
" clip-path="url(#pcb0390933d)" style="fill: none; stroke: #ff0000; stroke-width: 0.72; stroke-linecap: square"/>
   </g>
   <g id="line2d_2">
    <path d="M 1038.654937 314.293624 
L 1038.365802 317.35811 
" clip-path="url(#pcb0390933d)" style="fill: none; stroke: #ff0000; stroke-width: 0.72; stroke-linecap: square"/>
   </g>
   <g id="line2d_3">
    <path d="M 983.122188 283.397233 
L 982.128599 286.310558 
" clip-path="url(#pcb0390933d)" style="fill: none; stroke: #ff0000; stroke-width: 0.72; stroke-linecap: square"/>
   </g>
   <g id="line2d_4">
    <path d="M 977.470964 307.649479 
L 977.160241 310.711852 
" clip-path="url(#pcb0390933d)" style="fill: none; stroke: #ff0000; stroke-width: 0.72; stroke-linecap: square"/>
   </g>
   <g id="line2d_5">
    <path d="M 751.154209 200.737995 
L 750.134186 203.642169 
" clip-path="url(#pcb0390933d)" style="fill: none; stroke: #ff0000; stroke-width: 0.72; stroke-linecap: square"/>
   </g>
   <g id="line2d_6">
    <path d="M 731.688403 290.810972 
L 731.444558 293.879394 
" clip-path="url(#pcb0390933d)" style="fill: none; stroke: #ff0000; stroke-width: 0.72; stroke-linecap: square"/>
   </g>
   <g id="line2d_7">
    <path d="M 52.363636 135.104677 
L 552.29784 135.104677 
" clip-path="url(#pcb0390933d)" style="fill: none; stroke: #ffffff; stroke-width: 0.72; stroke-linecap: square"/>
   </g>
   <g id="line2d_8">
    <path d="M 217.356202 135.104677 
L 254.293359 135.104677 
" clip-path="url(#pcb0390933d)" style="fill: none; stroke: #ffffff; stroke-width: 0.72; stroke-linecap: square"/>
   </g>
   <g id="line2d_9">
    <path d="M 52.363636 255.782564 
L 1096.904993 322.963893 
" clip-path="url(#pcb0390933d)" style="fill: none; stroke: #ffffff; stroke-width: 0.72; stroke-linecap: square"/>
   </g>
   <g id="line2d_10">
    <path d="M 722.18981 293.484078 
L 722.18981 190.392639 
" clip-path="url(#pcb0390933d)" style="fill: none; stroke: #ffffff; stroke-width: 0.72; stroke-linecap: square"/>
   </g>
   <g id="line2d_11">
    <path d="M 722.18981 269.868365 
L 722.18981 232.931208 
" clip-path="url(#pcb0390933d)" style="fill: none; stroke: #ffffff; stroke-width: 0.72; stroke-linecap: square"/>
   </g>
   <g id="line2d_12">
    <path d="M 722.18981 250.945509 
L 722.18981 214.008352 
" clip-path="url(#pcb0390933d)" style="fill: none; stroke: #ffffff; stroke-width: 0.72; stroke-linecap: square"/>
   </g>
  </g>
 </g>
 <defs>
  <clipPath id="pcb0390933d">
   <rect x="0" y="0" width="1152" height="340.507627"/>
  </clipPath>
 </defs>
</svg>
