<?xml version="1.0" encoding="utf-8" standalone="no"?>
<!DOCTYPE svg PUBLIC "-//W3C//DTD SVG 1.1//EN"
  "http://www.w3.org/Graphics/SVG/1.1/DTD/svg11.dtd">
<svg xmlns:xlink="http://www.w3.org/1999/xlink" width="1152pt" height="335.570033pt" viewBox="0 0 1152 335.570033" xmlns="http://www.w3.org/2000/svg" version="1.1">
 <metadata>
  <rdf:RDF xmlns:dc="http://purl.org/dc/elements/1.1/" xmlns:cc="http://creativecommons.org/ns#" xmlns:rdf="http://www.w3.org/1999/02/22-rdf-syntax-ns#">
   <cc:Work>
    <dc:type rdf:resource="http://purl.org/dc/dcmitype/StillImage"/>
    <dc:date>2026-01-07T02:07:04.881974</dc:date>
    <dc:format>image/svg+xml</dc:format>
    <dc:creator>
     <cc:Agent>
      <dc:title>Matplotlib v3.10.1, https://matplotlib.org/</dc:title>
     </cc:Agent>
    </dc:creator>
   </cc:Work>
  </rdf:RDF>
 </metadata>
 <defs>
  <style type="text/css">*{stroke-linejoin: round; stroke-linecap: butt}</style>
 </defs>
 <g id="figure_1">
  <g id="patch_1">
   <path d="M 0 335.570033 
L 1152 335.570033 
L 1152 0 
L 0 0 
z
" style="fill: #ffffff"/>
  </g>
  <g id="axes_1">
   <g id="patch_2">
    <path d="M 0 335.570033 
L 1152 335.570033 
L 1152 0 
L 0 0 
z
" style="fill: #212830"/>
   </g>
   <g id="patch_3">
    <path d="M 1099.636364 41.627339 
L 1094.684749 40.891419 
L 1072.020931 37.719374 
L 1049.374424 34.758838 
L 1026.745658 32.022919 
L 1004.130536 29.51256 
L 981.528396 27.220384 
L 958.946817 25.132477 
L 936.408577 23.235929 
L 913.946074 21.532643 
L 891.576011 20.042905 
L 869.288138 18.781545 
L 847.067273 17.738238 
L 824.92019 16.886671 
L 802.87663 16.206539 
L 780.974839 15.694552 
L 759.249817 15.366627 
L 737.712887 15.253183 
L 716.34077 15.376695 
L 695.097688 15.720851 
L 673.987806 16.23562 
L 653.070314 16.884381 
L 632.413361 17.683507 
L 612.038405 18.684673 
L 591.914147 19.926081 
L 571.992669 21.403422 
L 552.249981 23.070762 
L 532.719021 24.867027 
L 513.485086 26.767519 
L 494.620739 28.817988 
L 476.11107 31.099041 
L 457.866343 33.63793 
L 439.827582 36.36797 
L 422.042206 39.196061 
L 404.618244 42.099467 
L 387.615829 45.137771 
L 371.008376 48.376988 
L 354.735493 51.828739 
L 338.766558 55.454716 
L 323.113699 59.207324 
L 307.817074 63.056679 
L 292.920034 66.998819 
L 278.451562 71.051654 
L 264.412038 75.242092 
L 250.779854 79.583722 
L 237.531295 84.066941 
L 224.660817 88.663011 
L 212.186701 93.343841 
L 200.134371 98.09771 
L 188.515531 102.928669 
L 177.326627 107.837129 
L 166.569166 112.806749 
L 156.263331 117.818376 
L 146.430403 122.872114 
L 137.070397 127.979512 
L 128.170969 133.138912 
L 119.731018 138.331389 
L 111.76375 143.537487 
L 104.282037 148.749332 
L 97.296284 153.960419 
L 90.815561 159.169146 
L 84.831297 164.388076 
L 79.311752 169.621554 
L 74.238804 174.824363 
L 69.653698 179.913813 
L 65.629978 184.852735 
L 62.197912 189.691804 
L 59.32077 194.506331 
L 56.946173 199.301912 
L 55.055062 204.014775 
L 53.658647 208.595165 
L 52.765078 213.038657 
L 52.363636 217.603689 
L 52.464394 221.439634 
L 53.073656 225.339587 
L 54.250666 229.098664 
L 56.050707 232.804141 
L 58.476387 236.487411 
L 61.488081 240.116772 
L 65.077728 243.647619 
L 69.291237 247.064811 
L 74.172197 250.38056 
L 79.715734 253.605961 
L 85.899128 256.731872 
L 92.72864 259.743342 
L 100.230854 262.643786 
L 108.411614 265.454103 
L 117.249591 268.191421 
L 126.719666 270.858631 
L 136.805339 273.451251 
L 147.495003 275.96373 
L 158.782149 278.389303 
L 170.667603 280.725233 
L 183.146617 282.976905 
L 196.201094 285.146006 
L 209.816912 287.221849 
L 224.000661 289.192888 
L 238.76194 291.064305 
L 254.092661 292.849362 
L 269.974595 294.55092 
L 286.40237 296.164027 
L 303.377563 297.692317 
L 338.923065 300.538618 
L 376.493564 303.116438 
L 415.995832 305.446601 
L 457.321817 307.534975 
L 462.54652 307.770657 
L 462.460884 309.669071 
L 500.298745 311.306223 
L 544.955838 312.973143 
L 591.07456 314.436219 
L 638.541997 315.652073 
L 687.29171 316.615523 
L 737.260073 317.335566 
L 866.781162 318.738094 
L 1055.051149 320.07639 
L 1099.636364 320.31685 
L 1099.636364 41.627339 
L 1099.636364 41.627339 
" clip-path="url(#p6d3ebc7475)" style="fill: none; stroke: #ff0000; stroke-width: 0.72; stroke-linejoin: miter"/>
   </g>
   <g id="patch_4">
    <path d="M 649.254683 262.441965 
L 645.453994 262.441965 
" clip-path="url(#p6d3ebc7475)" style="fill: none; stroke: #ff0000; stroke-width: 0.72; stroke-linejoin: miter"/>
   </g>
   <g id="patch_5">
    <path d="M 643.553649 262.441965 
L 639.75296 262.441965 
L 639.75296 252.940242 
L 643.553649 252.940242 
" clip-path="url(#p6d3ebc7475)" style="fill: none; stroke: #ff0000; stroke-width: 0.72; stroke-linejoin: miter"/>
   </g>
   <g id="patch_6">
    <path d="M 645.453994 252.940242 
L 649.254683 252.940242 
L 649.254683 271.943689 
L 645.453994 271.943689 
" clip-path="url(#p6d3ebc7475)" style="fill: none; stroke: #ff0000; stroke-width: 0.72; stroke-linejoin: miter"/>
   </g>
   <g id="patch_7">
    <path d="M 643.553649 271.943689 
L 639.75296 271.943689 
" clip-path="url(#p6d3ebc7475)" style="fill: none; stroke: #ff0000; stroke-width: 0.72; stroke-linejoin: miter"/>
   </g>
   <g id="patch_8">
    <path d="M 632.580987 25.285822 
L 624.988773 25.658965 
L 624.61563 18.06675 
L 632.207845 17.693608 
L 632.580987 25.285822 
" clip-path="url(#p6d3ebc7475)" style="fill: none; stroke: #ff0000; stroke-width: 0.72; stroke-linejoin: miter"/>
   </g>
   <g id="patch_9">
    <path d="M 275.146939 79.970941 
L 267.863158 82.14522 
L 265.688879 74.861439 
L 272.97266 72.68716 
L 275.146939 79.970941 
" clip-path="url(#p6d3ebc7475)" style="fill: none; stroke: #ff0000; stroke-width: 0.72; stroke-linejoin: miter"/>
   </g>
   <g id="patch_10">
    <path d="M 94.176348 168.847267 
L 91.312713 171.346234 
L 85.065296 164.187147 
L 87.92893 161.68818 
L 94.176348 168.847267 
" clip-path="url(#p6d3ebc7475)" style="fill: none; stroke: #ff0000; stroke-width: 0.72; stroke-linejoin: miter"/>
   </g>
   <g id="patch_11">
    <path d="M 73.712832 238.583259 
L 76.85919 240.715315 
L 71.529049 248.581213 
L 68.38269 246.449156 
L 73.712832 238.583259 
" clip-path="url(#p6d3ebc7475)" style="fill: none; stroke: #ff0000; stroke-width: 0.72; stroke-linejoin: miter"/>
   </g>
   <g id="patch_12">
    <path d="M 354.955005 294.077751 
L 362.5399 294.578076 
L 362.039575 302.162971 
L 354.45468 301.662645 
L 354.955005 294.077751 
" clip-path="url(#p6d3ebc7475)" style="fill: none; stroke: #ff0000; stroke-width: 0.72; stroke-linejoin: miter"/>
   </g>
   <g id="patch_13">
    <path d="M 975.796604 167.424733 
L 975.684452 161.763419 
L 975.348195 156.112104 
L 974.788425 150.480768 
L 974.006132 144.879356 
L 973.002697 139.317762 
L 971.779893 133.805807 
L 970.339879 128.353226 
L 968.685198 122.969649 
L 966.818772 117.664584 
L 964.743899 112.4474 
L 962.464241 107.327311 
L 959.983826 102.313359 
L 957.307034 97.4144 
L 954.438592 92.639086 
L 951.383567 87.995851 
L 948.147353 83.492894 
L 944.735667 79.138168 
L 941.154533 74.939365 
L 937.410277 70.903899 
L 933.509511 67.038898 
L 929.459123 63.351188 
L 925.266268 59.847282 
L 920.93835 56.533367 
L 916.483014 53.415296 
L 911.908126 50.498577 
L 907.221768 47.78836 
L 902.432216 45.289431 
L 897.547927 43.006206 
L 892.57753 40.942714 
L 887.529801 39.102602 
L 882.413656 37.489118 
L 877.238129 36.105113 
L 872.012362 34.95303 
L 866.745584 34.034905 
L 861.447096 33.352358 
L 856.126256 32.906596 
L 850.792461 32.698405 
L 845.455132 32.728153 
L 840.123693 32.995788 
L 834.807561 33.500836 
L 829.516125 34.242407 
L 824.258731 35.21919 
L 819.044662 36.42946 
L 813.883128 37.87108 
L 808.783244 39.541504 
L 803.754017 41.437781 
L 798.804329 43.556563 
L 793.942923 45.894107 
L 789.178382 48.446286 
L 784.519123 51.208592 
L 779.973374 54.176146 
L 775.549163 57.343708 
L 771.254304 60.705683 
L 767.096381 64.256133 
L 763.082738 67.988789 
L 759.220464 71.897058 
L 755.51638 75.974038 
L 751.977026 80.212528 
L 748.608655 84.605043 
L 745.417215 89.143825 
L 742.408343 93.820858 
L 739.587352 98.627883 
L 736.959224 103.556409 
L 734.528601 108.597733 
L 732.299776 113.74295 
L 730.276686 118.982975 
L 728.462902 124.308552 
L 726.861628 129.710276 
L 725.475693 135.178608 
L 724.307544 140.703889 
L 723.359243 146.276361 
L 722.632467 151.886184 
L 722.128498 157.523449 
L 721.848227 163.178201 
L 721.792147 168.840452 
L 721.96036 174.500204 
L 722.352567 180.147459 
L 722.968075 185.772245 
L 723.805799 191.364627 
L 724.864257 196.914729 
L 726.141581 202.412749 
L 727.635515 207.848978 
L 729.343421 213.213813 
L 731.262282 218.49778 
L 733.38871 223.691548 
L 735.718948 228.785943 
L 738.248882 233.771969 
L 740.974043 238.64082 
L 743.889618 243.383896 
L 746.990459 247.992821 
L 750.271089 252.459456 
L 753.725714 256.775911 
L 757.348233 260.934564 
L 761.132248 264.92807 
L 765.071076 268.749376 
L 769.157761 272.391734 
L 773.385085 275.84871 
L 777.745583 279.114199 
L 782.231554 282.182435 
L 786.835074 285.047997 
L 791.548014 287.705826 
L 796.36205 290.151228 
L 801.268681 292.379883 
L 806.25924 294.387856 
L 811.324914 296.1716 
L 816.456756 297.727966 
L 821.645703 299.054203 
L 826.882591 300.147972 
L 832.158171 301.007338 
L 837.463126 301.630785 
L 842.788087 302.017212 
L 848.123649 302.165937 
L 853.46039 302.076696 
L 858.788884 301.749647 
L 864.09972 301.185367 
L 869.38352 300.384855 
L 874.630951 299.349522 
L 879.832746 298.081198 
L 884.979718 296.582123 
L 890.062778 294.854943 
L 895.072947 292.90271 
L 900.001378 290.728872 
L 904.839367 288.337267 
L 909.578368 285.732119 
L 914.210014 282.91803 
L 918.726123 279.899968 
L 923.11872 276.683265 
L 927.380047 273.273602 
L 931.502578 269.676999 
L 935.479033 265.89981 
L 939.302389 261.948704 
L 942.965893 257.83066 
L 946.463075 253.552951 
L 949.787759 249.123132 
L 952.934073 244.549026 
L 955.89646 239.838711 
L 958.66969 235.000507 
L 961.248863 230.042957 
L 963.629425 224.974818 
L 965.807171 219.80504 
L 967.778256 214.542753 
L 969.539198 209.197252 
L 971.086887 203.777977 
L 972.41859 198.294498 
L 973.531956 192.756501 
L 974.425017 187.173765 
L 975.096196 181.556151 
L 975.544309 175.913579 
L 975.768563 170.256015 
L 975.796604 167.424733 
L 975.796604 167.424733 
" clip-path="url(#p6d3ebc7475)" style="fill: none; stroke: #ff0000; stroke-width: 0.72; stroke-linejoin: miter"/>
   </g>
   <g id="patch_14">
    <path d="M 392.877172 157.92301 
L 402.378895 167.424733 
L 392.877172 176.926456 
L 383.375449 167.424733 
L 392.877172 157.92301 
" clip-path="url(#p6d3ebc7475)" style="fill: none; stroke: #ff0000; stroke-width: 0.72; stroke-linejoin: miter"/>
   </g>
   <g id="patch_15">
    <path d="M 841.22159 157.92301 
L 850.723313 167.424733 
L 841.22159 176.926456 
L 831.719867 167.424733 
L 841.22159 157.92301 
" clip-path="url(#p6d3ebc7475)" style="fill: none; stroke: #ff0000; stroke-width: 0.72; stroke-linejoin: miter"/>
   </g>
   <g id="patch_16">
    <path d="M 460.723256 232.91689 
L 469.588482 243.015071 
L 459.4903 251.880296 
L 450.625075 241.782115 
L 460.723256 232.91689 
" clip-path="url(#p6d3ebc7475)" style="fill: none; stroke: #ff0000; stroke-width: 0.72; stroke-linejoin: miter"/>
   </g>
   <g id="patch_17">
    <path d="M 954.806905 265.041039 
L 963.672131 275.13922 
L 953.573949 284.004445 
L 944.708724 273.906264 
L 954.806905 265.041039 
" clip-path="url(#p6d3ebc7475)" style="fill: none; stroke: #ff0000; stroke-width: 0.72; stroke-linejoin: miter"/>
   </g>
   <g id="line2d_1">
    <path d="M 81.628653 167.424733 
L 1099.636364 167.424733 
" clip-path="url(#p6d3ebc7475)" style="fill: none; stroke: #ffffff; stroke-width: 0.72; stroke-linecap: square"/>
   </g>
   <g id="line2d_2">
    <path d="M 381.475104 167.424733 
L 404.27924 167.424733 
" clip-path="url(#p6d3ebc7475)" style="fill: none; stroke: #ffffff; stroke-width: 0.72; stroke-linecap: square"/>
   </g>
   <g id="line2d_3">
    <path d="M 829.819522 167.424733 
L 852.623658 167.424733 
" clip-path="url(#p6d3ebc7475)" style="fill: none; stroke: #ffffff; stroke-width: 0.72; stroke-linecap: square"/>
   </g>
   <g id="line2d_4">
    <path d="M 52.513645 215.897852 
L 1099.636364 283.979293 
" clip-path="url(#p6d3ebc7475)" style="fill: none; stroke: #ffffff; stroke-width: 0.72; stroke-linecap: square"/>
   </g>
   <g id="line2d_5">
    <path d="M 448.728734 241.658819 
L 471.484822 243.138366 
" clip-path="url(#p6d3ebc7475)" style="fill: none; stroke: #ffffff; stroke-width: 0.72; stroke-linecap: square"/>
   </g>
   <g id="line2d_6">
    <path d="M 942.812383 273.782969 
L 965.568471 275.262516 
" clip-path="url(#p6d3ebc7475)" style="fill: none; stroke: #ffffff; stroke-width: 0.72; stroke-linecap: square"/>
   </g>
   <g id="line2d_7">
    <path d="M 848.790871 32.68167 
L 848.790871 30.781326 
" clip-path="url(#p6d3ebc7475)" style="fill: none; stroke: #ff0000; stroke-width: 0.72; stroke-linecap: square"/>
   </g>
   <g id="line2d_8">
    <path d="M 848.790871 302.167796 
L 848.790871 304.068141 
" clip-path="url(#p6d3ebc7475)" style="fill: none; stroke: #ff0000; stroke-width: 0.72; stroke-linecap: square"/>
   </g>
   <g id="line2d_9">
    <path d="M 975.796604 167.424733 
L 977.696949 167.424733 
" clip-path="url(#p6d3ebc7475)" style="fill: none; stroke: #ff0000; stroke-width: 0.72; stroke-linecap: square"/>
   </g>
   <g id="line2d_10">
    <path d="M 721.785137 167.424733 
L 719.884792 167.424733 
" clip-path="url(#p6d3ebc7475)" style="fill: none; stroke: #ff0000; stroke-width: 0.72; stroke-linecap: square"/>
   </g>
  </g>
 </g>
 <defs>
  <clipPath id="p6d3ebc7475">
   <rect x="0" y="0" width="1152" height="335.570033"/>
  </clipPath>
 </defs>
</svg>
