<?xml version="1.0" encoding="utf-8" standalone="no"?>
<!DOCTYPE svg PUBLIC "-//W3C//DTD SVG 1.1//EN"
  "http://www.w3.org/Graphics/SVG/1.1/DTD/svg11.dtd">
<svg xmlns:xlink="http://www.w3.org/1999/xlink" width="1152pt" height="309.830432pt" viewBox="0 0 1152 309.830432" xmlns="http://www.w3.org/2000/svg" version="1.1">
 <metadata>
  <rdf:RDF xmlns:dc="http://purl.org/dc/elements/1.1/" xmlns:cc="http://creativecommons.org/ns#" xmlns:rdf="http://www.w3.org/1999/02/22-rdf-syntax-ns#">
   <cc:Work>
    <dc:type rdf:resource="http://purl.org/dc/dcmitype/StillImage"/>
    <dc:date>2026-01-07T02:07:23.377303</dc:date>
    <dc:format>image/svg+xml</dc:format>
    <dc:creator>
     <cc:Agent>
      <dc:title>Matplotlib v3.10.1, https://matplotlib.org/</dc:title>
     </cc:Agent>
    </dc:creator>
   </cc:Work>
  </rdf:RDF>
 </metadata>
 <defs>
  <style type="text/css">*{stroke-linejoin: round; stroke-linecap: butt}</style>
 </defs>
 <g id="figure_1">
  <g id="patch_1">
   <path d="M 0 309.830432 
L 1152 309.830432 
L 1152 0 
L 0 0 
z
" style="fill: #ffffff"/>
  </g>
  <g id="axes_1">
   <g id="patch_2">
    <path d="M 0 309.830432 
L 1152 309.830432 
L 1152 0 
L 0 0 
z
" style="fill: #212830"/>
   </g>
   <g id="patch_3">
    <path d="M 1099.211373 294.94007 
L 1090.606507 292.39364 
L 1076.583626 288.229701 
L 1061.328495 283.661223 
L 1044.983568 278.773945 
L 1027.626737 273.601395 
L 1009.409868 268.12423 
L 990.498112 262.359914 
L 971.042283 256.360464 
L 951.176872 250.155014 
L 930.992523 243.771922 
L 910.557457 237.253709 
L 889.952419 230.62525 
L 869.221283 223.889445 
L 848.381834 217.061553 
L 827.460999 210.183799 
L 806.490929 203.289944 
L 785.521687 196.370966 
L 764.556797 189.445984 
L 743.625297 182.542177 
L 722.756246 175.671618 
L 701.959048 168.83789 
L 681.232009 162.050319 
L 660.579282 155.342962 
L 639.992451 148.705639 
L 619.472531 142.134988 
L 599.023761 135.663561 
L 580.438882 129.857419 
L 579.399807 133.183396 
L 577.612539 132.624994 
L 557.318514 126.367578 
L 537.100142 120.238652 
L 516.924601 114.238921 
L 496.800815 108.365875 
L 476.710155 102.630486 
L 456.640284 97.023642 
L 436.600188 91.549564 
L 416.582722 86.220092 
L 396.565253 81.036525 
L 376.53672 75.991975 
L 356.493008 71.081078 
L 336.445777 66.30059 
L 316.397771 61.661971 
L 296.336061 57.166419 
L 276.259427 52.816112 
L 256.148951 48.605101 
L 236.036454 44.523399 
L 215.916623 40.600041 
L 195.752939 36.823156 
L 175.562394 33.177483 
L 155.364694 29.668983 
L 135.15336 26.308935 
L 114.918292 23.09632 
L 94.656748 20.02659 
L 74.372716 17.096003 
L 54.070212 14.305303 
L 52.363636 14.083201 
L 52.363636 270.939568 
L 56.696311 270.936352 
L 78.904047 270.899453 
L 101.093714 270.851715 
L 123.245999 270.797913 
L 145.375705 270.742152 
L 167.501704 270.68721 
L 189.593221 270.646315 
L 211.672512 270.619695 
L 233.763777 270.592191 
L 255.850348 270.555738 
L 277.878903 270.533413 
L 299.829009 270.5534 
L 321.735616 270.606058 
L 343.608791 270.64602 
L 365.431667 270.630168 
L 387.259595 270.560675 
L 409.11118 270.487949 
L 430.962194 270.463221 
L 452.848164 270.49545 
L 474.782313 270.555115 
L 496.698809 270.617798 
L 518.52677 270.688377 
L 540.277107 270.809721 
L 562.027263 271.021118 
L 583.846669 271.295728 
L 605.703836 271.581376 
L 627.515595 271.868225 
L 649.222014 272.197705 
L 670.872506 272.606053 
L 692.545301 273.093869 
L 714.258414 273.630257 
L 735.935599 274.18271 
L 757.477141 274.766069 
L 778.869548 275.441861 
L 800.218695 276.238608 
L 821.611637 277.112695 
L 843.02312 278.018978 
L 864.327567 278.964673 
L 885.447903 279.974084 
L 906.386345 281.072842 
L 927.130604 282.239774 
L 947.614935 283.476756 
L 967.764017 284.775344 
L 987.479345 286.135144 
L 1006.682889 287.575582 
L 1025.314168 289.087203 
L 1043.238118 290.60183 
L 1060.242024 292.072248 
L 1076.115938 293.497496 
L 1090.698265 294.872156 
L 1099.636364 295.747231 
L 1099.211373 294.94007 
" clip-path="url(#pd9bd8e0316)" style="fill: none; stroke: #ff0000; stroke-width: 0.72; stroke-linejoin: miter"/>
   </g>
   <g id="patch_4">
    <path d="M 490.228824 199.967632 
L 483.259808 199.967632 
" clip-path="url(#pd9bd8e0316)" style="fill: none; stroke: #ff0000; stroke-width: 0.72; stroke-linejoin: miter"/>
   </g>
   <g id="patch_5">
    <path d="M 479.7753 199.967632 
L 472.806285 199.967632 
L 472.806285 234.812712 
L 479.7753 234.812712 
" clip-path="url(#pd9bd8e0316)" style="fill: none; stroke: #ff0000; stroke-width: 0.72; stroke-linejoin: miter"/>
   </g>
   <g id="patch_6">
    <path d="M 483.259808 234.812712 
L 490.228824 234.812712 
L 490.228824 217.390172 
L 483.259808 217.390172 
" clip-path="url(#pd9bd8e0316)" style="fill: none; stroke: #ff0000; stroke-width: 0.72; stroke-linejoin: miter"/>
   </g>
   <g id="patch_7">
    <path d="M 479.7753 217.390172 
L 472.806285 217.390172 
" clip-path="url(#pd9bd8e0316)" style="fill: none; stroke: #ff0000; stroke-width: 0.72; stroke-linejoin: miter"/>
   </g>
   <g id="patch_8">
    <path d="M 498.940094 199.967632 
L 516.362634 199.967632 
L 516.362634 217.390172 
L 498.940094 217.390172 
L 516.362634 217.390172 
L 516.362634 234.812712 
L 498.940094 234.812712 
" clip-path="url(#pd9bd8e0316)" style="fill: none; stroke: #ff0000; stroke-width: 0.72; stroke-linejoin: miter"/>
   </g>
   <g id="patch_9">
    <path d="M 375.236927 90.023786 
L 361.699287 86.707007 
L 365.016066 73.169366 
L 378.553706 76.486145 
L 375.236927 90.023786 
" clip-path="url(#pd9bd8e0316)" style="fill: none; stroke: #ff0000; stroke-width: 0.72; stroke-linejoin: miter"/>
   </g>
   <g id="patch_10">
    <path d="M 245.304402 111.935854 
L 262.726942 129.358394 
L 245.304402 146.780934 
L 227.881863 129.358394 
L 245.304402 111.935854 
" clip-path="url(#pd9bd8e0316)" style="fill: none; stroke: #ff0000; stroke-width: 0.72; stroke-linejoin: miter"/>
   </g>
   <g id="patch_11">
    <path d="M 234.836769 185.805795 
L 252.259308 168.383255 
L 269.681848 185.805795 
L 252.259308 203.228334 
L 234.836769 185.805795 
" clip-path="url(#pd9bd8e0316)" style="fill: none; stroke: #ff0000; stroke-width: 0.72; stroke-linejoin: miter"/>
   </g>
   <g id="patch_12">
    <path d="M 234.836769 132.571593 
L 252.259308 115.149053 
L 269.681848 132.571593 
L 252.259308 149.994133 
L 234.836769 132.571593 
" clip-path="url(#pd9bd8e0316)" style="fill: none; stroke: #ff0000; stroke-width: 0.72; stroke-linejoin: miter"/>
   </g>
   <g id="line2d_1">
    <path d="M 1032.572812 275.075387 
L 1031.631071 278.430222 
" clip-path="url(#pd9bd8e0316)" style="fill: none; stroke: #ff0000; stroke-width: 0.72; stroke-linecap: square"/>
   </g>
   <g id="line2d_2">
    <path d="M 1030.340406 286.015771 
L 1030.11956 289.493273 
" clip-path="url(#pd9bd8e0316)" style="fill: none; stroke: #ff0000; stroke-width: 0.72; stroke-linecap: square"/>
   </g>
   <g id="line2d_3">
    <path d="M 965.902035 254.754781 
L 964.923149 258.098967 
" clip-path="url(#pd9bd8e0316)" style="fill: none; stroke: #ff0000; stroke-width: 0.72; stroke-linecap: square"/>
   </g>
   <g id="line2d_4">
    <path d="M 960.859622 280.838661 
L 960.61974 284.314903 
" clip-path="url(#pd9bd8e0316)" style="fill: none; stroke: #ff0000; stroke-width: 0.72; stroke-linecap: square"/>
   </g>
   <g id="line2d_5">
    <path d="M 700.792151 168.455761 
L 699.746698 171.779738 
" clip-path="url(#pd9bd8e0316)" style="fill: none; stroke: #ff0000; stroke-width: 0.72; stroke-linecap: square"/>
   </g>
   <g id="line2d_6">
    <path d="M 682.234272 269.377748 
L 682.058835 272.857837 
" clip-path="url(#pd9bd8e0316)" style="fill: none; stroke: #ff0000; stroke-width: 0.72; stroke-linecap: square"/>
   </g>
   <g id="line2d_7">
    <path d="M 52.363636 129.358394 
L 567.018317 129.358394 
" clip-path="url(#pd9bd8e0316)" style="fill: none; stroke: #ffffff; stroke-width: 0.72; stroke-linecap: square"/>
   </g>
   <g id="line2d_8">
    <path d="M 224.397355 129.358394 
L 266.21145 129.358394 
" clip-path="url(#pd9bd8e0316)" style="fill: none; stroke: #ffffff; stroke-width: 0.72; stroke-linecap: square"/>
   </g>
   <g id="line2d_9">
    <path d="M 52.363636 234.439855 
L 1094.79609 293.63346 
" clip-path="url(#pd9bd8e0316)" style="fill: none; stroke: #ffffff; stroke-width: 0.72; stroke-linecap: square"/>
   </g>
   <g id="line2d_10">
    <path d="M 252.259308 270.561665 
L 252.259308 47.815723 
" clip-path="url(#pd9bd8e0316)" style="fill: none; stroke: #ffffff; stroke-width: 0.72; stroke-linecap: square"/>
   </g>
   <g id="line2d_11">
    <path d="M 252.259308 206.712842 
L 252.259308 164.898747 
" clip-path="url(#pd9bd8e0316)" style="fill: none; stroke: #ffffff; stroke-width: 0.72; stroke-linecap: square"/>
   </g>
   <g id="line2d_12">
    <path d="M 252.259308 153.478641 
L 252.259308 111.664545 
" clip-path="url(#pd9bd8e0316)" style="fill: none; stroke: #ffffff; stroke-width: 0.72; stroke-linecap: square"/>
   </g>
  </g>
 </g>
 <defs>
  <clipPath id="pd9bd8e0316">
   <rect x="0" y="0" width="1152" height="309.830432"/>
  </clipPath>
 </defs>
</svg>
