<?xml version="1.0" encoding="utf-8" standalone="no"?>
<!DOCTYPE svg PUBLIC "-//W3C//DTD SVG 1.1//EN"
  "http://www.w3.org/Graphics/SVG/1.1/DTD/svg11.dtd">
<svg xmlns:xlink="http://www.w3.org/1999/xlink" width="1152pt" height="322.10363pt" viewBox="0 0 1152 322.10363" xmlns="http://www.w3.org/2000/svg" version="1.1">
 <metadata>
  <rdf:RDF xmlns:dc="http://purl.org/dc/elements/1.1/" xmlns:cc="http://creativecommons.org/ns#" xmlns:rdf="http://www.w3.org/1999/02/22-rdf-syntax-ns#">
   <cc:Work>
    <dc:type rdf:resource="http://purl.org/dc/dcmitype/StillImage"/>
    <dc:date>2026-01-07T02:07:11.995974</dc:date>
    <dc:format>image/svg+xml</dc:format>
    <dc:creator>
     <cc:Agent>
      <dc:title>Matplotlib v3.10.1, https://matplotlib.org/</dc:title>
     </cc:Agent>
    </dc:creator>
   </cc:Work>
  </rdf:RDF>
 </metadata>
 <defs>
  <style type="text/css">*{stroke-linejoin: round; stroke-linecap: butt}</style>
 </defs>
 <g id="figure_1">
  <g id="patch_1">
   <path d="M 0 322.10363 
L 1152 322.10363 
L 1152 0 
L 0 0 
z
" style="fill: #ffffff"/>
  </g>
  <g id="axes_1">
   <g id="patch_2">
    <path d="M 0 322.10363 
L 1152 322.10363 
L 1152 0 
L 0 0 
z
" style="fill: #212830"/>
   </g>
   <g id="patch_3">
    <path d="M 1099.636364 42.021287 
L 1090.790603 40.718367 
L 1069.474994 37.767679 
L 1048.111874 34.99017 
L 1026.709354 32.379302 
L 1005.280869 29.934077 
L 983.841914 27.659494 
L 962.401533 25.563244 
L 940.959216 23.651586 
L 919.513736 21.923846 
L 898.073022 20.376519 
L 876.649695 19.007574 
L 855.251719 17.820196 
L 833.884551 16.816915 
L 812.557747 16.000579 
L 791.278711 15.374977 
L 770.04875 14.942256 
L 748.870135 14.698909 
L 727.758294 14.641074 
L 706.731563 14.772481 
L 685.795707 15.102817 
L 664.95049 15.635754 
L 644.20299 16.368018 
L 623.567272 17.296968 
L 603.053446 18.422641 
L 582.675982 19.74318 
L 562.458515 21.261779 
L 542.415561 22.990742 
L 522.545639 24.939093 
L 502.85076 27.100556 
L 483.35065 29.463339 
L 464.072252 32.021936 
L 445.042469 34.777457 
L 426.294871 37.732201 
L 407.856374 40.894115 
L 389.7366 44.264023 
L 371.953161 47.820086 
L 354.556551 51.532031 
L 337.606155 55.387939 
L 321.146008 59.388156 
L 305.207273 63.527697 
L 289.811413 67.79169 
L 274.974783 72.149924 
L 260.729922 76.554612 
L 247.126349 80.968882 
L 234.193673 85.38727 
L 221.922127 89.811908 
L 210.284922 94.225609 
L 199.261535 98.600986 
L 188.835833 102.919676 
L 178.989278 107.173272 
L 169.698885 111.356778 
L 160.939611 115.469462 
L 152.681799 119.519483 
L 144.889785 123.517462 
L 137.528108 127.467892 
L 130.567522 131.367754 
L 123.989336 135.211916 
L 117.780451 139.00316 
L 111.925796 142.752138 
L 106.404121 146.469772 
L 101.193549 150.154018 
L 96.276926 153.796089 
L 91.640257 157.387492 
L 87.27166 160.926945 
L 83.166137 164.413317 
L 79.328227 167.851455 
L 75.766255 171.248815 
L 72.484219 174.617504 
L 69.477642 177.966775 
L 66.735879 181.297287 
L 64.240708 184.610889 
L 61.97339 187.900993 
L 59.927062 191.146322 
L 58.115224 194.313891 
L 56.558406 197.392754 
L 55.263838 200.406465 
L 54.222001 203.383484 
L 53.417946 206.324871 
L 52.840931 209.204045 
L 52.482501 212.138253 
L 52.363636 214.883533 
L 52.482295 217.674756 
L 52.856835 220.407143 
L 53.511142 223.076837 
L 54.475967 225.703694 
L 55.772041 228.309158 
L 57.394739 230.894669 
L 59.321733 233.440922 
L 61.543025 235.927865 
L 64.071377 238.347158 
L 66.926735 240.699368 
L 70.113974 242.98453 
L 73.629022 245.200936 
L 77.471332 247.349944 
L 81.647912 249.439008 
L 86.160514 251.476772 
L 91.01065 253.467641 
L 96.202257 255.412067 
L 101.747418 257.309636 
L 107.659789 259.163565 
L 113.955457 260.979998 
L 120.654917 262.767095 
L 127.778619 264.534004 
L 135.349571 266.28516 
L 143.397943 268.019781 
L 151.966636 269.737078 
L 161.102528 271.442205 
L 170.851928 273.142021 
L 181.261859 274.838714 
L 192.389063 276.528791 
L 204.295925 278.209121 
L 217.039825 279.88096 
L 230.666188 281.542987 
L 245.209818 283.184687 
L 260.693603 284.79201 
L 277.119192 286.355446 
L 294.455505 287.866134 
L 312.648177 289.307611 
L 331.635679 290.66692 
L 351.340704 291.941715 
L 371.672827 293.126904 
L 392.558348 294.215586 
L 435.73615 296.118642 
L 462.651033 297.087139 
L 462.579279 299.293944 
L 503.314802 300.558139 
L 549.643429 301.798109 
L 596.556533 302.722585 
L 716.747908 304.522795 
L 765.291341 305.022335 
L 937.437011 306.459102 
L 1099.636364 307.462556 
L 1099.636364 42.021287 
L 1099.636364 42.021287 
" clip-path="url(#pc8d73a3dfe)" style="fill: none; stroke: #ff0000; stroke-width: 0.72; stroke-linejoin: miter"/>
   </g>
   <g id="patch_4">
    <path d="M 639.613478 243.19245 
L 650.653334 243.19245 
L 650.653334 254.232306 
L 639.613478 254.232306 
L 639.613478 265.272163 
L 650.653334 265.272163 
" clip-path="url(#pc8d73a3dfe)" style="fill: none; stroke: #ff0000; stroke-width: 0.72; stroke-linejoin: miter"/>
   </g>
   <g id="patch_5">
    <path d="M 660.589205 243.19245 
L 656.173263 243.19245 
L 656.173263 265.272163 
L 660.589205 265.272163 
" clip-path="url(#pc8d73a3dfe)" style="fill: none; stroke: #ff0000; stroke-width: 0.72; stroke-linejoin: miter"/>
   </g>
   <g id="patch_6">
    <path d="M 662.797176 265.272163 
L 667.213119 265.272163 
L 667.213119 243.19245 
L 662.797176 243.19245 
" clip-path="url(#pc8d73a3dfe)" style="fill: none; stroke: #ff0000; stroke-width: 0.72; stroke-linejoin: miter"/>
   </g>
   <g id="patch_7">
    <path d="M 656.173263 254.232306 
L 660.589205 254.232306 
" clip-path="url(#pc8d73a3dfe)" style="fill: none; stroke: #ff0000; stroke-width: 0.72; stroke-linejoin: miter"/>
   </g>
   <g id="patch_8">
    <path d="M 662.797176 254.232306 
L 667.213119 254.232306 
" clip-path="url(#pc8d73a3dfe)" style="fill: none; stroke: #ff0000; stroke-width: 0.72; stroke-linejoin: miter"/>
   </g>
   <g id="patch_9">
    <path d="M 632.65804 25.728655 
L 623.835093 26.125903 
L 623.437845 17.302956 
L 632.260792 16.905708 
L 632.65804 25.728655 
" clip-path="url(#pc8d73a3dfe)" style="fill: none; stroke: #ff0000; stroke-width: 0.72; stroke-linejoin: miter"/>
   </g>
   <g id="patch_10">
    <path d="M 275.613838 81.196833 
L 267.176177 83.806061 
L 264.566949 75.3684 
L 273.00461 72.759172 
L 275.613838 81.196833 
" clip-path="url(#pc8d73a3dfe)" style="fill: none; stroke: #ff0000; stroke-width: 0.72; stroke-linejoin: miter"/>
   </g>
   <g id="patch_11">
    <path d="M 94.972189 168.870889 
L 91.606786 171.730017 
L 84.458966 163.31651 
L 87.824369 160.457382 
L 94.972189 168.870889 
" clip-path="url(#pc8d73a3dfe)" style="fill: none; stroke: #ff0000; stroke-width: 0.72; stroke-linejoin: miter"/>
   </g>
   <g id="patch_12">
    <path d="M 74.514098 232.552531 
L 78.106718 235.120338 
L 71.687201 244.101887 
L 68.094581 241.53408 
L 74.514098 232.552531 
" clip-path="url(#pc8d73a3dfe)" style="fill: none; stroke: #ff0000; stroke-width: 0.72; stroke-linejoin: miter"/>
   </g>
   <g id="patch_13">
    <path d="M 354.379767 283.271981 
L 363.196687 283.785905 
L 362.682762 292.602825 
L 353.865842 292.088901 
L 354.379767 283.271981 
" clip-path="url(#pc8d73a3dfe)" style="fill: none; stroke: #ff0000; stroke-width: 0.72; stroke-linejoin: miter"/>
   </g>
   <g id="patch_14">
    <path d="M 964.081945 160.721507 
L 963.98007 155.569623 
L 963.674627 150.426837 
L 963.166153 145.302233 
L 962.455548 140.204861 
L 961.544067 135.143723 
L 960.433318 130.127757 
L 959.125264 125.165824 
L 957.622215 120.266684 
L 955.926825 115.438992 
L 954.042089 110.691273 
L 951.971336 106.031912 
L 949.718221 101.469137 
L 947.286726 97.011008 
L 944.681143 92.665398 
L 941.906075 88.43998 
L 938.966422 84.342219 
L 935.867376 80.379351 
L 932.614411 76.558374 
L 929.213272 72.886037 
L 925.669965 69.368826 
L 921.990748 66.012952 
L 918.182118 62.824342 
L 914.250803 59.808627 
L 910.203746 56.971134 
L 906.048093 54.316874 
L 901.791184 51.850534 
L 897.440538 49.57647 
L 893.003837 47.498699 
L 888.488918 45.62089 
L 883.903754 43.946359 
L 879.256443 42.478063 
L 874.555192 41.218597 
L 869.808305 40.170184 
L 865.024165 39.334675 
L 860.211221 38.713547 
L 855.377974 38.307896 
L 850.532958 38.118439 
L 845.684732 38.14551 
L 840.841857 38.389062 
L 836.012886 38.848664 
L 831.206348 39.523505 
L 826.430731 40.412393 
L 821.69447 41.513758 
L 817.00593 42.825654 
L 812.37339 44.345766 
L 807.805033 46.071408 
L 803.308926 47.999533 
L 798.893009 50.126735 
L 794.565083 52.449257 
L 790.33279 54.962999 
L 786.203606 57.66352 
L 782.184821 60.54605 
L 778.283535 63.6055 
L 774.506637 66.836466 
L 770.860797 70.233241 
L 767.352455 73.789827 
L 763.987806 77.499942 
L 760.772793 81.357035 
L 757.713093 85.354292 
L 754.814111 89.484655 
L 752.080966 93.740828 
L 749.518486 98.115296 
L 747.131195 102.600332 
L 744.92331 107.188015 
L 742.898731 111.870244 
L 741.061033 116.638748 
L 739.413461 121.485107 
L 737.958925 126.400761 
L 736.699994 131.377028 
L 735.638892 136.40512 
L 734.777492 141.476157 
L 734.117317 146.581184 
L 733.65953 151.711183 
L 733.404943 156.857096 
L 733.354002 162.009833 
L 733.5068 167.160296 
L 733.863066 172.299386 
L 734.42217 177.418029 
L 735.183126 182.507185 
L 736.144589 187.557865 
L 737.304862 192.561149 
L 738.661895 197.508202 
L 740.213291 202.390286 
L 741.956311 207.198779 
L 743.887876 211.925189 
L 746.004576 216.561169 
L 748.302671 221.09853 
L 750.778103 225.52926 
L 753.426501 229.845534 
L 756.243186 234.039728 
L 759.223185 238.104435 
L 762.361234 242.032478 
L 765.651792 245.816917 
L 769.089046 249.45107 
L 772.666927 252.928518 
L 776.379115 256.243121 
L 780.219055 259.389023 
L 784.179965 262.360669 
L 788.254849 265.152811 
L 792.436511 267.760518 
L 796.717566 270.179184 
L 801.090453 272.404538 
L 805.547448 274.432649 
L 810.080681 276.259936 
L 814.682146 277.883171 
L 819.343715 279.299488 
L 824.057157 280.506385 
L 828.814146 281.501731 
L 833.606281 282.283768 
L 838.425099 282.851115 
L 843.26209 283.20277 
L 848.108711 283.338111 
L 852.956402 283.2569 
L 857.796603 282.959281 
L 862.620764 282.445778 
L 867.420365 281.717299 
L 872.186931 280.77513 
L 876.912043 279.620935 
L 881.587356 278.256753 
L 886.204613 276.684993 
L 890.755659 274.90843 
L 895.232458 272.930203 
L 899.627102 270.753805 
L 903.93183 268.38308 
L 908.139039 265.822214 
L 912.2413 263.075731 
L 916.231368 260.148481 
L 920.102194 257.045634 
L 923.846944 253.772669 
L 927.459004 250.335368 
L 930.931994 246.7398 
L 934.259781 242.992316 
L 937.436488 239.099534 
L 940.456504 235.068329 
L 943.314495 230.90582 
L 946.005415 226.61936 
L 948.52451 222.216518 
L 950.867332 217.705071 
L 953.029744 213.092984 
L 955.007925 208.388406 
L 956.798383 203.599643 
L 958.397956 198.735153 
L 959.803818 193.803527 
L 961.013486 188.813476 
L 962.024825 183.773812 
L 962.836047 178.693435 
L 963.445721 173.581318 
L 963.852769 168.446489 
L 964.056473 163.298018 
L 964.081945 160.721507 
L 964.081945 160.721507 
" clip-path="url(#pc8d73a3dfe)" style="fill: none; stroke: #ff0000; stroke-width: 0.72; stroke-linejoin: miter"/>
   </g>
   <g id="patch_15">
    <path d="M 398.242952 149.68165 
L 409.282809 160.721507 
L 398.242952 171.761363 
L 387.203096 160.721507 
L 398.242952 149.68165 
" clip-path="url(#pc8d73a3dfe)" style="fill: none; stroke: #ff0000; stroke-width: 0.72; stroke-linejoin: miter"/>
   </g>
   <g id="patch_16">
    <path d="M 842.791827 149.68165 
L 853.831683 160.721507 
L 842.791827 171.761363 
L 831.75197 160.721507 
L 842.791827 149.68165 
" clip-path="url(#pc8d73a3dfe)" style="fill: none; stroke: #ff0000; stroke-width: 0.72; stroke-linejoin: miter"/>
   </g>
   <g id="patch_17">
    <path d="M 478.252994 226.658853 
L 488.559518 238.386275 
L 476.832096 248.692799 
L 466.525572 236.965377 
L 478.252994 226.658853 
" clip-path="url(#pc8d73a3dfe)" style="fill: none; stroke: #ff0000; stroke-width: 0.72; stroke-linejoin: miter"/>
   </g>
   <g id="patch_18">
    <path d="M 991.391682 259.749491 
L 1001.698206 271.476913 
L 989.970785 281.783437 
L 979.66426 270.056015 
L 991.391682 259.749491 
" clip-path="url(#pc8d73a3dfe)" style="fill: none; stroke: #ff0000; stroke-width: 0.72; stroke-linejoin: miter"/>
   </g>
   <g id="patch_19">
    <path d="M 506.479241 200.238576 
L 517.519097 189.198719 
L 528.558953 200.238576 
L 517.519097 211.278432 
L 506.479241 200.238576 
" clip-path="url(#pc8d73a3dfe)" style="fill: none; stroke: #ff0000; stroke-width: 0.72; stroke-linejoin: miter"/>
   </g>
   <g id="patch_20">
    <path d="M 506.479241 126.209644 
L 517.519097 115.169787 
L 528.558953 126.209644 
L 517.519097 137.2495 
L 506.479241 126.209644 
" clip-path="url(#pc8d73a3dfe)" style="fill: none; stroke: #ff0000; stroke-width: 0.72; stroke-linejoin: miter"/>
   </g>
   <g id="line2d_1">
    <path d="M 87.525223 160.721507 
L 1099.636364 160.721507 
" clip-path="url(#pc8d73a3dfe)" style="fill: none; stroke: #ffffff; stroke-width: 0.72; stroke-linecap: square"/>
   </g>
   <g id="line2d_2">
    <path d="M 384.995125 160.721507 
L 411.49078 160.721507 
" clip-path="url(#pc8d73a3dfe)" style="fill: none; stroke: #ffffff; stroke-width: 0.72; stroke-linecap: square"/>
   </g>
   <g id="line2d_3">
    <path d="M 829.543999 160.721507 
L 856.039654 160.721507 
" clip-path="url(#pc8d73a3dfe)" style="fill: none; stroke: #ffffff; stroke-width: 0.72; stroke-linecap: square"/>
   </g>
   <g id="line2d_4">
    <path d="M 52.70953 210.279733 
L 1099.636364 277.792625 
" clip-path="url(#pc8d73a3dfe)" style="fill: none; stroke: #ffffff; stroke-width: 0.72; stroke-linecap: square"/>
   </g>
   <g id="line2d_5">
    <path d="M 464.322178 236.823288 
L 490.762913 238.528364 
" clip-path="url(#pc8d73a3dfe)" style="fill: none; stroke: #ffffff; stroke-width: 0.72; stroke-linecap: square"/>
   </g>
   <g id="line2d_6">
    <path d="M 977.460866 269.913926 
L 1003.901601 271.619002 
" clip-path="url(#pc8d73a3dfe)" style="fill: none; stroke: #ffffff; stroke-width: 0.72; stroke-linecap: square"/>
   </g>
   <g id="line2d_7">
    <path d="M 848.71479 38.10321 
L 848.71479 35.895239 
" clip-path="url(#pc8d73a3dfe)" style="fill: none; stroke: #ff0000; stroke-width: 0.72; stroke-linecap: square"/>
   </g>
   <g id="line2d_8">
    <path d="M 848.71479 283.339803 
L 848.71479 285.547775 
" clip-path="url(#pc8d73a3dfe)" style="fill: none; stroke: #ff0000; stroke-width: 0.72; stroke-linecap: square"/>
   </g>
   <g id="line2d_9">
    <path d="M 964.081945 160.721507 
L 966.289916 160.721507 
" clip-path="url(#pc8d73a3dfe)" style="fill: none; stroke: #ff0000; stroke-width: 0.72; stroke-linecap: square"/>
   </g>
   <g id="line2d_10">
    <path d="M 733.347634 160.721507 
L 731.139663 160.721507 
" clip-path="url(#pc8d73a3dfe)" style="fill: none; stroke: #ff0000; stroke-width: 0.72; stroke-linecap: square"/>
   </g>
   <g id="line2d_11">
    <path d="M 517.519097 300.957476 
L 517.519097 25.490743 
" clip-path="url(#pc8d73a3dfe)" style="fill: none; stroke: #ffffff; stroke-width: 0.72; stroke-linecap: square"/>
   </g>
   <g id="line2d_12">
    <path d="M 517.519097 213.486403 
L 517.519097 186.990748 
" clip-path="url(#pc8d73a3dfe)" style="fill: none; stroke: #ffffff; stroke-width: 0.72; stroke-linecap: square"/>
   </g>
   <g id="line2d_13">
    <path d="M 517.519097 139.457471 
L 517.519097 112.961816 
" clip-path="url(#pc8d73a3dfe)" style="fill: none; stroke: #ffffff; stroke-width: 0.72; stroke-linecap: square"/>
   </g>
  </g>
 </g>
 <defs>
  <clipPath id="pc8d73a3dfe">
   <rect x="0" y="0" width="1152" height="322.10363"/>
  </clipPath>
 </defs>
</svg>
