<?xml version="1.0" encoding="utf-8" standalone="no"?>
<!DOCTYPE svg PUBLIC "-//W3C//DTD SVG 1.1//EN"
  "http://www.w3.org/Graphics/SVG/1.1/DTD/svg11.dtd">
<svg xmlns:xlink="http://www.w3.org/1999/xlink" width="1152pt" height="186.318602pt" viewBox="0 0 1152 186.318602" xmlns="http://www.w3.org/2000/svg" version="1.1">
 <metadata>
  <rdf:RDF xmlns:dc="http://purl.org/dc/elements/1.1/" xmlns:cc="http://creativecommons.org/ns#" xmlns:rdf="http://www.w3.org/1999/02/22-rdf-syntax-ns#">
   <cc:Work>
    <dc:type rdf:resource="http://purl.org/dc/dcmitype/StillImage"/>
    <dc:date>2026-01-07T02:07:07.529834</dc:date>
    <dc:format>image/svg+xml</dc:format>
    <dc:creator>
     <cc:Agent>
      <dc:title>Matplotlib v3.10.1, https://matplotlib.org/</dc:title>
     </cc:Agent>
    </dc:creator>
   </cc:Work>
  </rdf:RDF>
 </metadata>
 <defs>
  <style type="text/css">*{stroke-linejoin: round; stroke-linecap: butt}</style>
 </defs>
 <g id="figure_1">
  <g id="patch_1">
   <path d="M 0 186.318602 
L 1152 186.318602 
L 1152 0 
L 0 0 
z
" style="fill: #ffffff"/>
  </g>
  <g id="axes_1">
   <g id="patch_2">
    <path d="M 0 186.318602 
L 1152 186.318602 
L 1152 0 
L 0 0 
z
" style="fill: #212830"/>
   </g>
   <g id="patch_3">
    <path d="M 1099.42675 176.843549 
L 1083.946653 171.304366 
L 1062.856134 163.930369 
L 974.876462 133.562193 
L 872.910108 98.247945 
L 842.067669 87.707437 
L 841.758131 88.622176 
L 821.180919 81.698035 
L 800.107351 74.796139 
L 778.809475 68.053641 
L 757.271835 61.547527 
L 735.534466 55.29021 
L 713.610434 49.339819 
L 691.57127 43.719278 
L 680.510616 41.08067 
L 658.210249 36.131641 
L 635.738927 31.532136 
L 613.20179 27.319951 
L 601.91539 25.380389 
L 590.60928 23.557073 
L 567.93405 20.226518 
L 545.253628 17.295946 
L 522.610182 14.805627 
L 500.002248 12.746903 
L 477.489666 11.079258 
L 455.150007 9.836009 
L 432.960218 9.020982 
L 410.985565 8.562444 
L 389.352492 8.483273 
L 378.666125 8.615969 
L 357.495907 9.189646 
L 336.721327 10.067178 
L 326.541085 10.646086 
L 316.489091 11.344507 
L 296.693741 13.071865 
L 277.375781 15.080326 
L 267.984881 16.186661 
L 258.778682 17.405397 
L 240.770967 20.184358 
L 223.353859 23.185666 
L 214.963217 24.766713 
L 206.781426 26.441242 
L 198.779369 28.214016 
L 183.274462 31.975025 
L 168.521897 35.917725 
L 161.468643 37.957852 
L 154.633873 40.059423 
L 148.006132 42.229174 
L 135.330894 46.746914 
L 123.454121 51.421393 
L 117.835614 53.80876 
L 112.429536 56.230878 
L 102.263214 61.146911 
L 97.521042 63.631283 
L 93.008713 66.138552 
L 88.720168 68.668057 
L 84.655074 71.211245 
L 80.81994 73.759367 
L 77.220989 76.309151 
L 73.863012 78.85776 
L 70.749857 81.404352 
L 67.876749 83.954852 
L 65.228085 86.511216 
L 62.795239 89.051679 
L 60.598087 91.536398 
L 58.671625 93.947477 
L 57.029968 96.309424 
L 55.655503 98.658535 
L 54.523378 100.997371 
L 53.624438 103.295015 
L 52.963585 105.529682 
L 52.544808 107.6999 
L 52.363636 109.94582 
L 52.424967 111.809484 
L 52.732821 113.721064 
L 53.315873 115.565749 
L 54.200756 117.385074 
L 55.388583 119.193628 
L 56.860053 120.97579 
L 58.611047 122.710075 
L 60.663553 124.389273 
L 63.038717 126.019072 
L 65.734368 127.60445 
L 68.739636 129.140963 
L 72.05742 130.621736 
L 75.700433 132.048685 
L 79.671505 133.431856 
L 83.960729 134.779335 
L 88.556548 136.092462 
L 93.451704 137.369118 
L 104.122918 139.802744 
L 115.964512 142.069122 
L 128.94559 144.173792 
L 143.062945 146.089197 
L 158.3276 147.838451 
L 174.71991 149.426492 
L 192.23547 150.876179 
L 210.832098 152.198004 
L 230.469438 153.398146 
L 258.592088 154.824651 
L 258.547225 155.789301 
L 272.573168 156.404409 
L 306.395817 157.645913 
L 329.845338 158.329791 
L 366.235327 159.118096 
L 403.959564 159.63954 
L 469.218746 160.312993 
L 590.770805 161.090622 
L 645.209686 161.327188 
L 777.586297 162.213204 
L 803.008349 162.530028 
L 827.867972 162.998998 
L 863.860452 163.95058 
L 898.035242 165.09831 
L 930.206355 166.373695 
L 960.17044 167.763455 
L 987.736992 169.236538 
L 1012.69046 170.765955 
L 1041.601835 172.778207 
L 1065.158838 174.703552 
L 1094.690011 177.348589 
L 1099.636364 177.849575 
L 1099.42675 176.843549 
L 1099.42675 176.843549 
" clip-path="url(#p407134a302)" style="fill: none; stroke: #ff0000; stroke-width: 0.72; stroke-linejoin: miter"/>
   </g>
   <g id="patch_4">
    <path d="M 739.428277 60.411412 
L 735.712412 59.356268 
L 736.767557 55.640402 
L 740.483422 56.695547 
L 739.428277 60.411412 
" clip-path="url(#p407134a302)" style="fill: none; stroke: #ff0000; stroke-width: 0.72; stroke-linejoin: miter"/>
   </g>
   <g id="patch_5">
    <path d="M 344.027108 13.596168 
L 340.168467 13.774683 
L 339.989952 9.916041 
L 343.848593 9.737526 
L 344.027108 13.596168 
" clip-path="url(#p407134a302)" style="fill: none; stroke: #ff0000; stroke-width: 0.72; stroke-linejoin: miter"/>
   </g>
   <g id="patch_6">
    <path d="M 164.397164 41.098568 
L 160.70503 42.233967 
L 159.569631 38.541833 
L 163.261764 37.406434 
L 164.397164 41.098568 
" clip-path="url(#p407134a302)" style="fill: none; stroke: #ff0000; stroke-width: 0.72; stroke-linejoin: miter"/>
   </g>
   <g id="patch_7">
    <path d="M 73.453604 85.460989 
L 72.009647 86.743655 
L 68.80298 83.133763 
L 70.246937 81.851096 
L 73.453604 85.460989 
" clip-path="url(#p407134a302)" style="fill: none; stroke: #ff0000; stroke-width: 0.72; stroke-linejoin: miter"/>
   </g>
   <g id="patch_8">
    <path d="M 63.150559 120.24036 
L 64.744398 121.331196 
L 62.017309 125.315793 
L 60.423469 124.224957 
L 63.150559 120.24036 
" clip-path="url(#p407134a302)" style="fill: none; stroke: #ff0000; stroke-width: 0.72; stroke-linejoin: miter"/>
   </g>
   <g id="patch_9">
    <path d="M 204.495973 147.893065 
L 208.349748 148.156509 
L 208.086305 152.010284 
L 204.23253 151.74684 
L 204.495973 147.893065 
" clip-path="url(#p407134a302)" style="fill: none; stroke: #ff0000; stroke-width: 0.72; stroke-linejoin: miter"/>
   </g>
   <g id="line2d_1">
    <path d="M 1081.470891 170.426506 
L 1081.148645 171.336846 
" clip-path="url(#p407134a302)" style="fill: none; stroke: #ff0000; stroke-width: 0.72; stroke-linecap: square"/>
   </g>
   <g id="line2d_2">
    <path d="M 1080.425108 175.058229 
L 1080.382686 176.022989 
" clip-path="url(#p407134a302)" style="fill: none; stroke: #ff0000; stroke-width: 0.72; stroke-linecap: square"/>
   </g>
   <g id="line2d_3">
    <path d="M 1063.235936 164.061401 
L 1062.915686 164.972445 
" clip-path="url(#p407134a302)" style="fill: none; stroke: #ff0000; stroke-width: 0.72; stroke-linecap: square"/>
   </g>
   <g id="line2d_4">
    <path d="M 1061.194368 173.398355 
L 1061.131633 174.362007 
" clip-path="url(#p407134a302)" style="fill: none; stroke: #ff0000; stroke-width: 0.72; stroke-linecap: square"/>
   </g>
   <g id="line2d_5">
    <path d="M 990.199755 138.878444 
L 989.883147 139.79076 
" clip-path="url(#p407134a302)" style="fill: none; stroke: #ff0000; stroke-width: 0.72; stroke-linecap: square"/>
   </g>
   <g id="line2d_6">
    <path d="M 984.125563 168.066893 
L 984.060221 169.030372 
" clip-path="url(#p407134a302)" style="fill: none; stroke: #ff0000; stroke-width: 0.72; stroke-linecap: square"/>
   </g>
   <g id="patch_10">
    <path d="M 512.032593 84.562268 
L 511.914818 80.597283 
L 511.561962 76.648052 
L 510.975428 72.730263 
L 510.157544 68.859483 
L 509.111561 65.051089 
L 507.841634 61.320213 
L 506.352808 57.681677 
L 504.651 54.149938 
L 502.742969 50.739025 
L 500.636296 47.462492 
L 498.339352 44.333355 
L 495.861262 41.364046 
L 493.211871 38.566363 
L 490.401705 35.951421 
L 487.44193 33.529609 
L 484.344303 31.310548 
L 481.121133 29.303055 
L 477.785223 27.515106 
L 474.349829 25.953803 
L 470.828599 24.625351 
L 467.235522 23.535026 
L 463.584874 22.687162 
L 459.891159 22.085126 
L 456.169051 21.73131 
L 452.433339 21.62712 
L 448.698864 21.77297 
L 444.980464 22.16828 
L 441.292911 22.81148 
L 437.650856 23.700015 
L 434.068769 24.830354 
L 430.560882 26.198006 
L 427.141131 27.797539 
L 423.823103 29.622596 
L 420.61998 31.665927 
L 417.544488 33.919414 
L 414.608846 36.374104 
L 411.824718 39.020245 
L 409.203164 41.847323 
L 406.7546 44.844106 
L 404.488754 47.998689 
L 402.414628 51.298538 
L 400.540463 54.730543 
L 398.873704 58.281069 
L 397.420974 61.93601 
L 396.188045 65.680844 
L 395.179814 69.500693 
L 394.400287 73.380382 
L 393.852562 77.304496 
L 393.538815 81.257445 
L 393.460291 85.223524 
L 393.617304 89.186976 
L 394.009228 93.132054 
L 394.634508 97.043084 
L 395.490658 100.904529 
L 396.574278 104.701046 
L 397.881063 108.417552 
L 399.405819 112.039282 
L 401.14249 115.551846 
L 403.084176 118.941289 
L 405.223163 122.194145 
L 407.550952 125.297491 
L 410.058295 128.238997 
L 412.73523 131.006975 
L 415.571123 133.590431 
L 418.554705 135.979098 
L 421.674125 138.163487 
L 424.916987 140.134921 
L 428.270409 141.885565 
L 431.721067 143.408465 
L 435.255251 144.69757 
L 438.858921 145.74776 
L 442.51776 146.554861 
L 446.21723 147.115666 
L 449.942635 147.427949 
L 453.679172 147.490467 
L 457.411997 147.302974 
L 461.126279 146.866213 
L 464.807262 146.18192 
L 468.440321 145.252813 
L 472.011023 144.082584 
L 475.50518 142.675883 
L 478.90891 141.038297 
L 482.208691 139.176333 
L 485.391413 137.097389 
L 488.444431 134.809724 
L 491.355615 132.322428 
L 494.113398 129.645381 
L 496.706826 126.78922 
L 499.125593 123.765292 
L 501.360091 120.585612 
L 503.401441 117.262811 
L 505.241534 113.810093 
L 506.873058 110.241173 
L 508.289532 106.570231 
L 509.485328 102.811853 
L 510.455696 98.980969 
L 511.196779 95.0928 
L 511.705634 91.162794 
L 511.980239 87.206564 
L 512.032593 84.562268 
L 512.032593 84.562268 
" clip-path="url(#p407134a302)" style="fill: none; stroke: #ff0000; stroke-width: 0.72; stroke-linejoin: miter"/>
   </g>
   <g id="line2d_7">
    <path d="M 67.247403 84.562268 
L 829.739739 84.562268 
" clip-path="url(#p407134a302)" style="fill: none; stroke: #ffffff; stroke-width: 0.72; stroke-linecap: square"/>
   </g>
   <g id="line2d_8">
    <path d="M 217.717916 84.562268 
L 229.306223 84.562268 
" clip-path="url(#p407134a302)" style="fill: none; stroke: #ffffff; stroke-width: 0.72; stroke-linecap: square"/>
   </g>
   <g id="patch_11">
    <path d="M 223.51207 79.733806 
L 228.340531 84.562268 
L 223.51207 89.390729 
L 218.683609 84.562268 
L 223.51207 79.733806 
" clip-path="url(#p407134a302)" style="fill: none; stroke: #ff0000; stroke-width: 0.72; stroke-linejoin: miter"/>
   </g>
   <g id="line2d_9">
    <path d="M 442.699418 84.562268 
L 454.287724 84.562268 
" clip-path="url(#p407134a302)" style="fill: none; stroke: #ffffff; stroke-width: 0.72; stroke-linecap: square"/>
   </g>
   <g id="patch_12">
    <path d="M 448.493571 79.733806 
L 453.322032 84.562268 
L 448.493571 89.390729 
L 443.66511 84.562268 
L 448.493571 79.733806 
" clip-path="url(#p407134a302)" style="fill: none; stroke: #ff0000; stroke-width: 0.72; stroke-linejoin: miter"/>
   </g>
   <g id="line2d_10">
    <path d="M 667.680919 84.562268 
L 679.269226 84.562268 
" clip-path="url(#p407134a302)" style="fill: none; stroke: #ffffff; stroke-width: 0.72; stroke-linecap: square"/>
   </g>
   <g id="patch_13">
    <path d="M 673.475072 79.733806 
L 678.303533 84.562268 
L 673.475072 89.390729 
L 668.646611 84.562268 
L 673.475072 79.733806 
" clip-path="url(#p407134a302)" style="fill: none; stroke: #ff0000; stroke-width: 0.72; stroke-linejoin: miter"/>
   </g>
   <g id="line2d_11">
    <path d="M 52.453955 108.82617 
L 1061.373845 174.382549 
" clip-path="url(#p407134a302)" style="fill: none; stroke: #ffffff; stroke-width: 0.72; stroke-linecap: square"/>
   </g>
   <g id="line2d_12">
    <path d="M 252.214247 121.805953 
L 263.778168 122.55734 
" clip-path="url(#p407134a302)" style="fill: none; stroke: #ffffff; stroke-width: 0.72; stroke-linecap: square"/>
   </g>
   <g id="patch_14">
    <path d="M 258.309285 117.363346 
L 262.814508 122.494724 
L 257.68313 126.999947 
L 253.177907 121.868569 
L 258.309285 117.363346 
" clip-path="url(#p407134a302)" style="fill: none; stroke: #ff0000; stroke-width: 0.72; stroke-linejoin: miter"/>
   </g>
   <g id="line2d_13">
    <path d="M 501.312324 137.991547 
L 512.876245 138.742934 
" clip-path="url(#p407134a302)" style="fill: none; stroke: #ffffff; stroke-width: 0.72; stroke-linecap: square"/>
   </g>
   <g id="patch_15">
    <path d="M 507.407362 133.54894 
L 511.912585 138.680318 
L 506.781207 143.185541 
L 502.275984 138.054163 
L 507.407362 133.54894 
" clip-path="url(#p407134a302)" style="fill: none; stroke: #ff0000; stroke-width: 0.72; stroke-linejoin: miter"/>
   </g>
   <g id="line2d_14">
    <path d="M 452.744806 21.626251 
L 452.744806 20.660559 
" clip-path="url(#p407134a302)" style="fill: none; stroke: #ff0000; stroke-width: 0.72; stroke-linecap: square"/>
   </g>
   <g id="line2d_15">
    <path d="M 452.744806 147.498284 
L 452.744806 148.463976 
" clip-path="url(#p407134a302)" style="fill: none; stroke: #ff0000; stroke-width: 0.72; stroke-linecap: square"/>
   </g>
   <g id="line2d_16">
    <path d="M 512.032593 84.562268 
L 512.998285 84.562268 
" clip-path="url(#p407134a302)" style="fill: none; stroke: #ff0000; stroke-width: 0.72; stroke-linecap: square"/>
   </g>
   <g id="line2d_17">
    <path d="M 393.457019 84.562268 
L 392.491326 84.562268 
" clip-path="url(#p407134a302)" style="fill: none; stroke: #ff0000; stroke-width: 0.72; stroke-linecap: square"/>
   </g>
   <g id="line2d_18">
    <path d="M 307.890971 157.691921 
L 307.890971 12.049929 
" clip-path="url(#p407134a302)" style="fill: none; stroke: #ffffff; stroke-width: 0.72; stroke-linecap: square"/>
   </g>
   <g id="line2d_19">
    <path d="M 307.890971 110.628278 
L 307.890971 99.039971 
" clip-path="url(#p407134a302)" style="fill: none; stroke: #ffffff; stroke-width: 0.72; stroke-linecap: square"/>
   </g>
   <g id="patch_16">
    <path d="M 303.06251 104.834124 
L 307.890971 100.005663 
L 312.719432 104.834124 
L 307.890971 109.662585 
L 303.06251 104.834124 
" clip-path="url(#p407134a302)" style="fill: none; stroke: #ff0000; stroke-width: 0.72; stroke-linejoin: miter"/>
   </g>
   <g id="line2d_20">
    <path d="M 307.890971 70.701879 
L 307.890971 59.113573 
" clip-path="url(#p407134a302)" style="fill: none; stroke: #ffffff; stroke-width: 0.72; stroke-linecap: square"/>
   </g>
   <g id="patch_17">
    <path d="M 303.06251 64.907726 
L 307.890971 60.079265 
L 312.719432 64.907726 
L 307.890971 69.736187 
L 303.06251 64.907726 
" clip-path="url(#p407134a302)" style="fill: none; stroke: #ff0000; stroke-width: 0.72; stroke-linejoin: miter"/>
   </g>
   <g id="line2d_21">
    <path d="M 742.452475 161.944384 
L 742.452475 57.254656 
" clip-path="url(#p407134a302)" style="fill: none; stroke: #ffffff; stroke-width: 0.72; stroke-linecap: square"/>
   </g>
   <g id="line2d_22">
    <path d="M 742.452475 129.214033 
L 742.452475 117.625726 
" clip-path="url(#p407134a302)" style="fill: none; stroke: #ffffff; stroke-width: 0.72; stroke-linecap: square"/>
   </g>
   <g id="patch_18">
    <path d="M 737.624014 123.419879 
L 742.452475 118.591418 
L 747.280936 123.419879 
L 742.452475 128.24834 
L 737.624014 123.419879 
" clip-path="url(#p407134a302)" style="fill: none; stroke: #ff0000; stroke-width: 0.72; stroke-linejoin: miter"/>
   </g>
   <g id="line2d_23">
    <path d="M 742.452475 101.573314 
L 742.452475 89.985007 
" clip-path="url(#p407134a302)" style="fill: none; stroke: #ffffff; stroke-width: 0.72; stroke-linecap: square"/>
   </g>
   <g id="patch_19">
    <path d="M 737.624014 95.77916 
L 742.452475 90.950699 
L 747.280936 95.77916 
L 742.452475 100.607622 
L 737.624014 95.77916 
" clip-path="url(#p407134a302)" style="fill: none; stroke: #ff0000; stroke-width: 0.72; stroke-linejoin: miter"/>
   </g>
   <g id="patch_20">
    <path d="M 350.06922 127.450253 
L 350.06922 137.107176 
" clip-path="url(#p407134a302)" style="fill: none; stroke: #ff0000; stroke-width: 0.72; stroke-linejoin: miter"/>
   </g>
   <g id="patch_21">
    <path d="M 359.726142 127.450253 
L 357.794758 127.450253 
" clip-path="url(#p407134a302)" style="fill: none; stroke: #ff0000; stroke-width: 0.72; stroke-linejoin: miter"/>
   </g>
   <g id="patch_22">
    <path d="M 356.829065 127.450253 
L 354.897681 127.450253 
L 354.897681 137.107176 
L 356.829065 137.107176 
" clip-path="url(#p407134a302)" style="fill: none; stroke: #ff0000; stroke-width: 0.72; stroke-linejoin: miter"/>
   </g>
   <g id="patch_23">
    <path d="M 357.794758 137.107176 
L 359.726142 137.107176 
L 359.726142 132.278715 
L 357.794758 132.278715 
" clip-path="url(#p407134a302)" style="fill: none; stroke: #ff0000; stroke-width: 0.72; stroke-linejoin: miter"/>
   </g>
   <g id="patch_24">
    <path d="M 356.829065 132.278715 
L 354.897681 132.278715 
" clip-path="url(#p407134a302)" style="fill: none; stroke: #ff0000; stroke-width: 0.72; stroke-linejoin: miter"/>
   </g>
  </g>
 </g>
 <defs>
  <clipPath id="p407134a302">
   <rect x="0" y="0" width="1152" height="186.318602"/>
  </clipPath>
 </defs>
</svg>
