  0
SECTION
  2
HEADER
  9
$ACADVER
  1
AC1021
  9
$ACADMAINTVER
 70
25
  9
$DWGCODEPAGE
  3
ANSI_1252
  9
$LASTSAVEDBY
  1
ezdxf
  9
$INSBASE
 10
0.0
 20
0.0
 30
0.0
  9
$EXTMIN
 10
1e+20
 20
1e+20
 30
1e+20
  9
$EXTMAX
 10
-1e+20
 20
-1e+20
 30
-1e+20
  9
$LIMMIN
 10
0.0
 20
0.0
  9
$LIMMAX
 10
420.0
 20
297.0
  9
$ORTHOMODE
 70
0
  9
$REGENMODE
 70
1
  9
$FILLMODE
 70
1
  9
$QTEXTMODE
 70
0
  9
$MIRRTEXT
 70
1
  9
$LTSCALE
 40
1.0
  9
$ATTMODE
 70
1
  9
$TEXTSIZE
 40
2.5
  9
$TRACEWID
 40
1.0
  9
$TEXTSTYLE
  7
OpenSans
  9
$CLAYER
  8
0
  9
$CELTYPE
  6
ByLayer
  9
$CECOLOR
 62
256
  9
$CELTSCALE
 40
1.0
  9
$DISPSILH
 70
0
  9
$DIMSCALE
 40
1.0
  9
$DIMASZ
 40
0.175
  9
$DIMEXO
 40
0.125
  9
$DIMDLI
 40
3.75
  9
$DIMRND
 40
0.0
  9
$DIMDLE
 40
0.0
  9
$DIMEXE
 40
0.375
  9
$DIMTP
 40
0.0
  9
$DIMTM
 40
0.0
  9
$DIMTXT
 40
0.25
  9
$DIMCEN
 40
2.5
  9
$DIMTSZ
 40
0.0
  9
$DIMTOL
 70
0
  9
$DIMLIM
 70
0
  9
$DIMTIH
 70
0
  9
$DIMTOH
 70
0
  9
$DIMSE1
 70
0
  9
$DIMSE2
 70
0
  9
$DIMTAD
 70
1
  9
$DIMZIN
 70
12
  9
$DIMBLK
  1
ARCHTICK
  9
$DIMASO
 70
1
  9
$DIMSHO
 70
1
  9
$DIMPOST
  1

  9
$DIMAPOST
  1

  9
$DIMALT
 70
0
  9
$DIMALTD
 70
3
  9
$DIMALTF
 40
0.03937007874
  9
$DIMLFAC
 40
100.0
  9
$DIMTOFL
 70
1
  9
$DIMTVP
 40
0.0
  9
$DIMTIX
 70
0
  9
$DIMSOXD
 70
0
  9
$DIMSAH
 70
0
  9
$DIMBLK1
  1

  9
$DIMBLK2
  1

  9
$DIMSTYLE
  2
EZDXF
  9
$DIMCLRD
 70
0
  9
$DIMCLRE
 70
0
  9
$DIMCLRT
 70
0
  9
$DIMTFAC
 40
0.5
  9
$DIMGAP
 40
0.1
  9
$DIMJUST
 70
0
  9
$DIMSD1
 70
0
  9
$DIMSD2
 70
0
  9
$DIMTOLJ
 70
0
  9
$DIMTZIN
 70
8
  9
$DIMALTZ
 70
0
  9
$DIMALTTZ
 70
0
  9
$DIMUPT
 70
1
  9
$DIMDEC
 70
2
  9
$DIMTDEC
 70
2
  9
$DIMALTU
 70
2
  9
$DIMALTTD
 70
3
  9
$DIMTXSTY
  7
OpenSansCondensed-Light
  9
$DIMAUNIT
 70
0
  9
$DIMADEC
 70
2
  9
$DIMALTRND
 40
0.0
  9
$DIMAZIN
 70
3
  9
$DIMDSEP
 70
46
  9
$DIMATFIT
 70
3
  9
$DIMFRAC
 70
0
  9
$DIMLDRBLK
  1

  9
$DIMLUNIT
 70
2
  9
$DIMLWD
 70
-2
  9
$DIMLWE
 70
-2
  9
$DIMTMOVE
 70
2
  9
$DIMFXL
 40
1.0
  9
$DIMFXLON
 70
0
  9
$DIMJOGANG
 40
0.785398163397
  9
$DIMTFILL
 70
0
  9
$DIMTFILLCLR
 70
0
  9
$DIMARCSYM
 70
0
  9
$DIMLTYPE
  6

  9
$DIMLTEX1
  6

  9
$DIMLTEX2
  6

  9
$LUNITS
 70
2
  9
$LUPREC
 70
4
  9
$SKETCHINC
 40
1.0
  9
$FILLETRAD
 40
10.0
  9
$AUNITS
 70
0
  9
$AUPREC
 70
2
  9
$MENU
  1
.
  9
$ELEVATION
 40
0.0
  9
$PELEVATION
 40
0.0
  9
$THICKNESS
 40
0.0
  9
$LIMCHECK
 70
0
  9
$CHAMFERA
 40
0.0
  9
$CHAMFERB
 40
0.0
  9
$CHAMFERC
 40
0.0
  9
$CHAMFERD
 40
0.0
  9
$SKPOLY
 70
0
  9
$TDCREATE
 40
2461048.0883217594
  9
$TDUCREATE
 40
2458532.153996898
  9
$TDUPDATE
 40
2461048.0883217594
  9
$TDUUPDATE
 40
2458532.1544311
  9
$TDINDWG
 40
0.0
  9
$TDUSRTIMER
 40
0.0
  9
$USRTIMER
 70
1
  9
$ANGBASE
 50
0.0
  9
$ANGDIR
 70
0
  9
$PDMODE
 70
0
  9
$PDSIZE
 40
0.0
  9
$PLINEWID
 40
0.0
  9
$SPLFRAME
 70
0
  9
$SPLINETYPE
 70
6
  9
$SPLINESEGS
 70
8
  9
$HANDSEED
  5
BB
  9
$SURFTAB1
 70
6
  9
$SURFTAB2
 70
6
  9
$SURFTYPE
 70
6
  9
$SURFU
 70
6
  9
$SURFV
 70
6
  9
$UCSBASE
  2

  9
$UCSNAME
  2

  9
$UCSORG
 10
0.0
 20
0.0
 30
0.0
  9
$UCSXDIR
 10
1.0
 20
0.0
 30
0.0
  9
$UCSYDIR
 10
0.0
 20
1.0
 30
0.0
  9
$UCSORTHOREF
  2

  9
$UCSORTHOVIEW
 70
0
  9
$UCSORGTOP
 10
0.0
 20
0.0
 30
0.0
  9
$UCSORGBOTTOM
 10
0.0
 20
0.0
 30
0.0
  9
$UCSORGLEFT
 10
0.0
 20
0.0
 30
0.0
  9
$UCSORGRIGHT
 10
0.0
 20
0.0
 30
0.0
  9
$UCSORGFRONT
 10
0.0
 20
0.0
 30
0.0
  9
$UCSORGBACK
 10
0.0
 20
0.0
 30
0.0
  9
$PUCSBASE
  2

  9
$PUCSNAME
  2

  9
$PUCSORG
 10
0.0
 20
0.0
 30
0.0
  9
$PUCSXDIR
 10
1.0
 20
0.0
 30
0.0
  9
$PUCSYDIR
 10
0.0
 20
1.0
 30
0.0
  9
$PUCSORTHOREF
  2

  9
$PUCSORTHOVIEW
 70
0
  9
$PUCSORGTOP
 10
0.0
 20
0.0
 30
0.0
  9
$PUCSORGBOTTOM
 10
0.0
 20
0.0
 30
0.0
  9
$PUCSORGLEFT
 10
0.0
 20
0.0
 30
0.0
  9
$PUCSORGRIGHT
 10
0.0
 20
0.0
 30
0.0
  9
$PUCSORGFRONT
 10
0.0
 20
0.0
 30
0.0
  9
$PUCSORGBACK
 10
0.0
 20
0.0
 30
0.0
  9
$USERI1
 70
0
  9
$USERI2
 70
0
  9
$USERI3
 70
0
  9
$USERI4
 70
0
  9
$USERI5
 70
0
  9
$USERR1
 40
0.0
  9
$USERR2
 40
0.0
  9
$USERR3
 40
0.0
  9
$USERR4
 40
0.0
  9
$USERR5
 40
0.0
  9
$WORLDVIEW
 70
1
  9
$SHADEDGE
 70
3
  9
$SHADEDIF
 70
70
  9
$TILEMODE
 70
1
  9
$MAXACTVP
 70
64
  9
$PINSBASE
 10
0.0
 20
0.0
 30
0.0
  9
$PLIMCHECK
 70
0
  9
$PEXTMIN
 10
1e+20
 20
1e+20
 30
1e+20
  9
$PEXTMAX
 10
-1e+20
 20
-1e+20
 30
-1e+20
  9
$PLIMMIN
 10
0.0
 20
0.0
  9
$PLIMMAX
 10
420.0
 20
297.0
  9
$UNITMODE
 70
0
  9
$VISRETAIN
 70
1
  9
$PLINEGEN
 70
0
  9
$PSLTSCALE
 70
1
  9
$TREEDEPTH
 70
3020
  9
$CMLSTYLE
  2
Standard
  9
$CMLJUST
 70
0
  9
$CMLSCALE
 40
20.0
  9
$PROXYGRAPHICS
 70
1
  9
$MEASUREMENT
 70
1
  9
$CELWEIGHT
370
-1
  9
$ENDCAPS
280
0
  9
$JOINSTYLE
280
0
  9
$LWDISPLAY
290
0
  9
$INSUNITS
 70
6
  9
$HYPERLINKBASE
  1

  9
$STYLESHEET
  1

  9
$XEDIT
290
1
  9
$CEPSNTYPE
380
0
  9
$PSTYLEMODE
290
1
  9
$FINGERPRINTGUID
  2
{4BD56436-9A0A-431C-963D-53D44609CB0E}
  9
$VERSIONGUID
  2
{34DED761-987F-4083-AA53-8B7A6EC045D7}
  9
$EXTNAMES
290
1
  9
$PSVPSCALE
 40
0.0
  9
$OLESTARTUP
290
0
  9
$SORTENTS
280
127
  9
$INDEXCTL
280
0
  9
$HIDETEXT
280
1
  9
$XCLIPFRAME
290
1
  9
$HALOGAP
280
0
  9
$OBSCOLOR
 70
257
  9
$OBSLTYPE
280
0
  9
$INTERSECTIONDISPLAY
280
0
  9
$INTERSECTIONCOLOR
 70
257
  9
$DIMASSOC
280
2
  9
$PROJECTNAME
  1

  9
$CAMERADISPLAY
290
0
  9
$LENSLENGTH
 40
50.0
  9
$CAMERAHEIGHT
 40
0.0
  9
$STEPSPERSEC
 40
24.0
  9
$STEPSIZE
 40
100.0
  9
$3DDWFPREC
 40
2.0
  9
$PSOLWIDTH
 40
0.005
  9
$PSOLHEIGHT
 40
0.08
  9
$LOFTANG1
 40
1.570796326795
  9
$LOFTANG2
 40
1.570796326795
  9
$LOFTMAG1
 40
0.0
  9
$LOFTMAG2
 40
0.0
  9
$LOFTPARAM
 70
7
  9
$LOFTNORMALS
280
1
  9
$LATITUDE
 40
37.795
  9
$LONGITUDE
 40
-122.394
  9
$NORTHDIRECTION
 40
0.0
  9
$TIMEZONE
 70
-8000
  9
$LIGHTGLYPHDISPLAY
280
1
  9
$TILEMODELIGHTSYNCH
280
1
  9
$CMATERIAL
347
20
  9
$SOLIDHIST
280
0
  9
$SHOWHIST
280
1
  9
$DWFFRAME
280
2
  9
$DGNFRAME
280
2
  9
$REALWORLDSCALE
290
1
  9
$INTERFERECOLOR
 62
256
  9
$CSHADOW
280
0
  9
$SHADOWPLANELOCATION
 40
0.0
  0
ENDSEC
  0
SECTION
  2
CLASSES
  0
CLASS
  1
ACDBDICTIONARYWDFLT
  2
AcDbDictionaryWithDefault
  3
ObjectDBX Classes
 90
0
 91
0
280
0
281
0
  0
CLASS
  1
SUN
  2
AcDbSun
  3
SCENEOE
 90
1153
 91
0
280
0
281
0
  0
CLASS
  1
VISUALSTYLE
  2
AcDbVisualStyle
  3
ObjectDBX Classes
 90
4095
 91
0
280
0
281
0
  0
CLASS
  1
MATERIAL
  2
AcDbMaterial
  3
ObjectDBX Classes
 90
1153
 91
0
280
0
281
0
  0
CLASS
  1
SCALE
  2
AcDbScale
  3
ObjectDBX Classes
 90
1153
 91
0
280
0
281
0
  0
CLASS
  1
TABLESTYLE
  2
AcDbTableStyle
  3
ObjectDBX Classes
 90
4095
 91
0
280
0
281
0
  0
CLASS
  1
MLEADERSTYLE
  2
AcDbMLeaderStyle
  3
ACDB_MLEADERSTYLE_CLASS
 90
4095
 91
0
280
0
281
0
  0
CLASS
  1
DICTIONARYVAR
  2
AcDbDictionaryVar
  3
ObjectDBX Classes
 90
0
 91
0
280
0
281
0
  0
CLASS
  1
CELLSTYLEMAP
  2
AcDbCellStyleMap
  3
ObjectDBX Classes
 90
1152
 91
0
280
0
281
0
  0
CLASS
  1
MENTALRAYRENDERSETTINGS
  2
AcDbMentalRayRenderSettings
  3
SCENEOE
 90
1024
 91
0
280
0
281
0
  0
CLASS
  1
ACDBDETAILVIEWSTYLE
  2
AcDbDetailViewStyle
  3
ObjectDBX Classes
 90
1025
 91
0
280
0
281
0
  0
CLASS
  1
ACDBSECTIONVIEWSTYLE
  2
AcDbSectionViewStyle
  3
ObjectDBX Classes
 90
1025
 91
0
280
0
281
0
  0
CLASS
  1
RASTERVARIABLES
  2
AcDbRasterVariables
  3
ISM
 90
0
 91
0
280
0
281
0
  0
CLASS
  1
ACDBPLACEHOLDER
  2
AcDbPlaceHolder
  3
ObjectDBX Classes
 90
0
 91
0
280
0
281
0
  0
CLASS
  1
LAYOUT
  2
AcDbLayout
  3
ObjectDBX Classes
 90
0
 91
0
280
0
281
0
  0
ENDSEC
  0
SECTION
  2
TABLES
  0
TABLE
  2
VPORT
  5
8
330
0
100
AcDbSymbolTable
 70
1
  0
VPORT
  5
23
330
8
100
AcDbSymbolTableRecord
100
AcDbViewportTableRecord
  2
*Active
 70
0
 10
0.0
 20
0.0
 11
1.0
 21
1.0
 12
0.0
 22
0.0
 13
0.0
 23
0.0
 14
0.5
 24
0.5
 15
0.5
 25
0.5
 16
0.0
 26
0.0
 36
1.0
 17
0.0
 27
0.0
 37
0.0
 40
1000.0
 41
1.34
 42
50.0
 43
0.0
 44
0.0
 50
0.0
 51
0.0
 71
0
 72
1000
 73
1
 74
3
 75
0
 76
0
 77
0
 78
0
281
0
 65
0
146
0.0
  0
ENDTAB
  0
TABLE
  2
LTYPE
  5
2
330
0
100
AcDbSymbolTable
 70
21
  0
LTYPE
  5
24
330
2
100
AcDbSymbolTableRecord
100
AcDbLinetypeTableRecord
  2
ByBlock
 70
0
  3

 72
65
 73
0
 40
0.0
  0
LTYPE
  5
25
330
2
100
AcDbSymbolTableRecord
100
AcDbLinetypeTableRecord
  2
ByLayer
 70
0
  3

 72
65
 73
0
 40
0.0
  0
LTYPE
  5
26
330
2
100
AcDbSymbolTableRecord
100
AcDbLinetypeTableRecord
  2
Continuous
 70
0
  3

 72
65
 73
0
 40
0.0
  0
LTYPE
  5
2F
330
2
100
AcDbSymbolTableRecord
100
AcDbLinetypeTableRecord
  2
CENTER
 70
0
  3
Center ____ _ ____ _ ____ _ ____ _ ____ _ ____
 72
65
 73
4
 40
5.08
 49
3.175
 74
0
 49
-0.635
 74
0
 49
0.635
 74
0
 49
-0.635
 74
0
  0
LTYPE
  5
30
330
2
100
AcDbSymbolTableRecord
100
AcDbLinetypeTableRecord
  2
CENTERX2
 70
0
  3
Center (2x) ________  __  ________  __  ________
 72
65
 73
4
 40
8.89
 49
6.35
 74
0
 49
-0.635
 74
0
 49
1.27
 74
0
 49
-0.635
 74
0
  0
LTYPE
  5
31
330
2
100
AcDbSymbolTableRecord
100
AcDbLinetypeTableRecord
  2
CENTER2
 70
0
  3
Center (.5x) ____ _ ____ _ ____ _ ____ _ ____
 72
65
 73
4
 40
2.54
 49
1.587
 74
0
 49
-0.318
 74
0
 49
0.318
 74
0
 49
-0.318
 74
0
  0
LTYPE
  5
32
330
2
100
AcDbSymbolTableRecord
100
AcDbLinetypeTableRecord
  2
DASHED
 70
0
  3
Dashed __ __ __ __ __ __ __ __ __ __ __ __ __ _
 72
65
 73
2
 40
1.524
 49
1.27
 74
0
 49
-0.254
 74
0
  0
LTYPE
  5
33
330
2
100
AcDbSymbolTableRecord
100
AcDbLinetypeTableRecord
  2
DASHEDX2
 70
0
  3
Dashed (2x) ____  ____  ____  ____  ____  ____
 72
65
 73
2
 40
3.048
 49
2.54
 74
0
 49
-0.508
 74
0
  0
LTYPE
  5
34
330
2
100
AcDbSymbolTableRecord
100
AcDbLinetypeTableRecord
  2
DASHED2
 70
0
  3
Dashed (.5x) _ _ _ _ _ _ _ _ _ _ _ _ _ _
 72
65
 73
2
 40
0.762
 49
0.635
 74
0
 49
-0.127
 74
0
  0
LTYPE
  5
35
330
2
100
AcDbSymbolTableRecord
100
AcDbLinetypeTableRecord
  2
PHANTOM
 70
0
  3
Phantom ______  __  __  ______  __  __  ______
 72
65
 73
6
 40
6.35
 49
3.175
 74
0
 49
-0.635
 74
0
 49
0.635
 74
0
 49
-0.635
 74
0
 49
0.635
 74
0
 49
-0.635
 74
0
  0
LTYPE
  5
36
330
2
100
AcDbSymbolTableRecord
100
AcDbLinetypeTableRecord
  2
PHANTOMX2
 70
0
  3
Phantom (2x)____________    ____    ____    ____________
 72
65
 73
6
 40
10.795
 49
6.35
 74
0
 49
-0.635
 74
0
 49
1.27
 74
0
 49
-0.635
 74
0
 49
1.27
 74
0
 49
-0.635
 74
0
  0
LTYPE
  5
37
330
2
100
AcDbSymbolTableRecord
100
AcDbLinetypeTableRecord
  2
PHANTOM2
 70
0
  3
Phantom (.5x) ___ _ _ ___ _ _ ___ _ _ ___ _ _ ___
 72
65
 73
6
 40
3.175
 49
1.587
 74
0
 49
-0.318
 74
0
 49
0.318
 74
0
 49
-0.318
 74
0
 49
0.318
 74
0
 49
-0.318
 74
0
  0
LTYPE
  5
38
330
2
100
AcDbSymbolTableRecord
100
AcDbLinetypeTableRecord
  2
DASHDOT
 70
0
  3
Dash dot __ . __ . __ . __ . __ . __ . __ . __
 72
65
 73
4
 40
3.556
 49
2.54
 74
0
 49
-0.508
 74
0
 49
0.0
 74
0
 49
-0.508
 74
0
  0
LTYPE
  5
39
330
2
100
AcDbSymbolTableRecord
100
AcDbLinetypeTableRecord
  2
DASHDOTX2
 70
0
  3
Dash dot (2x) ____  .  ____  .  ____  .  ____
 72
65
 73
4
 40
6.096
 49
5.08
 74
0
 49
-0.508
 74
0
 49
0.0
 74
0
 49
-0.508
 74
0
  0
LTYPE
  5
3A
330
2
100
AcDbSymbolTableRecord
100
AcDbLinetypeTableRecord
  2
DASHDOT2
 70
0
  3
Dash dot (.5x) _ . _ . _ . _ . _ . _ . _ . _
 72
65
 73
4
 40
1.778
 49
1.27
 74
0
 49
-0.254
 74
0
 49
0.0
 74
0
 49
-0.254
 74
0
  0
LTYPE
  5
3B
330
2
100
AcDbSymbolTableRecord
100
AcDbLinetypeTableRecord
  2
DOT
 70
0
  3
Dot .  .  .  .  .  .  .  .  .  .  .  .  .  .  .  .
 72
65
 73
2
 40
0.508
 49
0.0
 74
0
 49
-0.508
 74
0
  0
LTYPE
  5
3C
330
2
100
AcDbSymbolTableRecord
100
AcDbLinetypeTableRecord
  2
DOTX2
 70
0
  3
Dot (2x) .    .    .    .    .    .    .    . 
 72
65
 73
2
 40
1.016
 49
0.0
 74
0
 49
-1.016
 74
0
  0
LTYPE
  5
3D
330
2
100
AcDbSymbolTableRecord
100
AcDbLinetypeTableRecord
  2
DOT2
 70
0
  3
Dot (.5) . . . . . . . . . . . . . . . . . . . 
 72
65
 73
2
 40
0.254
 49
0.0
 74
0
 49
-0.254
 74
0
  0
LTYPE
  5
3E
330
2
100
AcDbSymbolTableRecord
100
AcDbLinetypeTableRecord
  2
DIVIDE
 70
0
  3
Divide __ . . __ . . __ . . __ . . __ . . __
 72
65
 73
6
 40
4.064
 49
2.54
 74
0
 49
-0.508
 74
0
 49
0.0
 74
0
 49
-0.508
 74
0
 49
0.0
 74
0
 49
-0.508
 74
0
  0
LTYPE
  5
3F
330
2
100
AcDbSymbolTableRecord
100
AcDbLinetypeTableRecord
  2
DIVIDEX2
 70
0
  3
Divide (2x) ____  . .  ____  . .  ____  . .  ____
 72
65
 73
6
 40
6.604
 49
5.08
 74
0
 49
-0.508
 74
0
 49
0.0
 74
0
 49
-0.508
 74
0
 49
0.0
 74
0
 49
-0.508
 74
0
  0
LTYPE
  5
40
330
2
100
AcDbSymbolTableRecord
100
AcDbLinetypeTableRecord
  2
DIVIDE2
 70
0
  3
Divide(.5x) _ . _ . _ . _ . _ . _ . _ . _
 72
65
 73
6
 40
2.032
 49
1.27
 74
0
 49
-0.254
 74
0
 49
0.0
 74
0
 49
-0.254
 74
0
 49
0.0
 74
0
 49
-0.254
 74
0
  0
ENDTAB
  0
TABLE
  2
LAYER
  5
1
330
0
100
AcDbSymbolTable
 70
5
  0
LAYER
  5
27
330
1
100
AcDbSymbolTableRecord
100
AcDbLayerTableRecord
  2
0
 70
0
 62
7
  6
Continuous
370
-3
390
13
347
21
  0
LAYER
  5
28
330
1
100
AcDbSymbolTableRecord
100
AcDbLayerTableRecord
  2
Defpoints
 70
0
 62
7
  6
Continuous
290
0
370
-3
390
13
347
21
  0
LAYER
  5
8A
330
1
100
AcDbSymbolTableRecord
100
AcDbLayerTableRecord
  2
Layer
 70
0
 62
1
  6
Continuous
370
50
390
13
347
21
  0
LAYER
  5
8B
330
1
100
AcDbSymbolTableRecord
100
AcDbLayerTableRecord
  2
NumLabel
 70
0
 62
1
  6
Continuous
370
15
390
13
347
21
  0
LAYER
  5
B9
330
1
100
AcDbSymbolTableRecord
100
AcDbLayerTableRecord
  2
SplitMark
 70
0
 62
3
  6
Continuous
370
-3
390
13
347
21
  0
ENDTAB
  0
TABLE
  2
STYLE
  5
5
330
0
100
AcDbSymbolTable
 70
26
  0
STYLE
  5
29
330
5
100
AcDbSymbolTableRecord
100
AcDbTextStyleTableRecord
  2
Standard
 70
0
 40
0.0
 41
1.0
 50
0.0
 71
0
 42
2.5
  3
txt
  4

  0
STYLE
  5
41
330
5
100
AcDbSymbolTableRecord
100
AcDbTextStyleTableRecord
  2
OpenSans-Light
 70
0
 40
0.0
 41
1.0
 50
0.0
 71
0
 42
2.5
  3
OpenSans-Light.ttf
  4

  0
STYLE
  5
42
330
5
100
AcDbSymbolTableRecord
100
AcDbTextStyleTableRecord
  2
OpenSans-Light-Italic
 70
0
 40
0.0
 41
1.0
 50
0.0
 71
0
 42
2.5
  3
OpenSans-LightItalic.ttf
  4

  0
STYLE
  5
43
330
5
100
AcDbSymbolTableRecord
100
AcDbTextStyleTableRecord
  2
OpenSans
 70
0
 40
0.0
 41
1.0
 50
0.0
 71
0
 42
2.5
  3
OpenSans-Regular.ttf
  4

  0
STYLE
  5
44
330
5
100
AcDbSymbolTableRecord
100
AcDbTextStyleTableRecord
  2
OpenSans-Italic
 70
0
 40
0.0
 41
1.0
 50
0.0
 71
0
 42
2.5
  3
OpenSans-Italic.ttf
  4

  0
STYLE
  5
45
330
5
100
AcDbSymbolTableRecord
100
AcDbTextStyleTableRecord
  2
OpenSans-SemiBold
 70
0
 40
0.0
 41
1.0
 50
0.0
 71
0
 42
2.5
  3
OpenSans-SemiBold.ttf
  4

  0
STYLE
  5
46
330
5
100
AcDbSymbolTableRecord
100
AcDbTextStyleTableRecord
  2
OpenSans-SemiBoldItalic
 70
0
 40
0.0
 41
1.0
 50
0.0
 71
0
 42
2.5
  3
OpenSans-SemiBoldItalic.ttf
  4

  0
STYLE
  5
47
330
5
100
AcDbSymbolTableRecord
100
AcDbTextStyleTableRecord
  2
OpenSans-Bold
 70
0
 40
0.0
 41
1.0
 50
0.0
 71
0
 42
2.5
  3
OpenSans-Bold.ttf
  4

  0
STYLE
  5
48
330
5
100
AcDbSymbolTableRecord
100
AcDbTextStyleTableRecord
  2
OpenSans-BoldItalic
 70
0
 40
0.0
 41
1.0
 50
0.0
 71
0
 42
2.5
  3
OpenSans-BoldItalic.ttf
  4

  0
STYLE
  5
49
330
5
100
AcDbSymbolTableRecord
100
AcDbTextStyleTableRecord
  2
OpenSans-ExtraBold
 70
0
 40
0.0
 41
1.0
 50
0.0
 71
0
 42
2.5
  3
OpenSans-ExtraBold.ttf
  4

  0
STYLE
  5
4A
330
5
100
AcDbSymbolTableRecord
100
AcDbTextStyleTableRecord
  2
OpenSans-ExtraBoldItalic
 70
0
 40
0.0
 41
1.0
 50
0.0
 71
0
 42
2.5
  3
OpenSans-ExtraBoldItalic.ttf
  4

  0
STYLE
  5
4B
330
5
100
AcDbSymbolTableRecord
100
AcDbTextStyleTableRecord
  2
OpenSansCondensed-Bold
 70
0
 40
0.0
 41
1.0
 50
0.0
 71
0
 42
2.5
  3
OpenSansCondensed-Bold.ttf
  4

  0
STYLE
  5
4C
330
5
100
AcDbSymbolTableRecord
100
AcDbTextStyleTableRecord
  2
OpenSansCondensed-Light
 70
0
 40
0.0
 41
1.0
 50
0.0
 71
0
 42
2.5
  3
OpenSansCondensed-Light.ttf
  4

  0
STYLE
  5
4D
330
5
100
AcDbSymbolTableRecord
100
AcDbTextStyleTableRecord
  2
OpenSansCondensed-Italic
 70
0
 40
0.0
 41
1.0
 50
0.0
 71
0
 42
2.5
  3
OpenSansCondensed-LightItalic.ttf
  4

  0
STYLE
  5
4E
330
5
100
AcDbSymbolTableRecord
100
AcDbTextStyleTableRecord
  2
LiberationSans
 70
0
 40
0.0
 41
1.0
 50
0.0
 71
0
 42
2.5
  3
LiberationSans-Regular.ttf
  4

  0
STYLE
  5
4F
330
5
100
AcDbSymbolTableRecord
100
AcDbTextStyleTableRecord
  2
LiberationSans-Bold
 70
0
 40
0.0
 41
1.0
 50
0.0
 71
0
 42
2.5
  3
LiberationSans-Bold.ttf
  4

  0
STYLE
  5
50
330
5
100
AcDbSymbolTableRecord
100
AcDbTextStyleTableRecord
  2
LiberationSans-BoldItalic
 70
0
 40
0.0
 41
1.0
 50
0.0
 71
0
 42
2.5
  3
LiberationSans-BoldItalic.ttf
  4

  0
STYLE
  5
51
330
5
100
AcDbSymbolTableRecord
100
AcDbTextStyleTableRecord
  2
LiberationSans-Italic
 70
0
 40
0.0
 41
1.0
 50
0.0
 71
0
 42
2.5
  3
LiberationSans-Italic.ttf
  4

  0
STYLE
  5
52
330
5
100
AcDbSymbolTableRecord
100
AcDbTextStyleTableRecord
  2
LiberationSerif
 70
0
 40
0.0
 41
1.0
 50
0.0
 71
0
 42
2.5
  3
LiberationSerif-Regular.ttf
  4

  0
STYLE
  5
53
330
5
100
AcDbSymbolTableRecord
100
AcDbTextStyleTableRecord
  2
LiberationSerif-Bold
 70
0
 40
0.0
 41
1.0
 50
0.0
 71
0
 42
2.5
  3
LiberationSerif-Bold.ttf
  4

  0
STYLE
  5
54
330
5
100
AcDbSymbolTableRecord
100
AcDbTextStyleTableRecord
  2
LiberationSerif-BoldItalic
 70
0
 40
0.0
 41
1.0
 50
0.0
 71
0
 42
2.5
  3
LiberationSerif-BoldItalic.ttf
  4

  0
STYLE
  5
55
330
5
100
AcDbSymbolTableRecord
100
AcDbTextStyleTableRecord
  2
LiberationSerif-Italic
 70
0
 40
0.0
 41
1.0
 50
0.0
 71
0
 42
2.5
  3
LiberationSerif-Italic.ttf
  4

  0
STYLE
  5
56
330
5
100
AcDbSymbolTableRecord
100
AcDbTextStyleTableRecord
  2
LiberationMono
 70
0
 40
0.0
 41
1.0
 50
0.0
 71
0
 42
2.5
  3
LiberationMono-Regular.ttf
  4

  0
STYLE
  5
57
330
5
100
AcDbSymbolTableRecord
100
AcDbTextStyleTableRecord
  2
LiberationMono-Bold
 70
0
 40
0.0
 41
1.0
 50
0.0
 71
0
 42
2.5
  3
LiberationMono-Bold.ttf
  4

  0
STYLE
  5
58
330
5
100
AcDbSymbolTableRecord
100
AcDbTextStyleTableRecord
  2
LiberationMono-BoldItalic
 70
0
 40
0.0
 41
1.0
 50
0.0
 71
0
 42
2.5
  3
LiberationMono-BoldItalic.ttf
  4

  0
STYLE
  5
59
330
5
100
AcDbSymbolTableRecord
100
AcDbTextStyleTableRecord
  2
LiberationMono-Italic
 70
0
 40
0.0
 41
1.0
 50
0.0
 71
0
 42
2.5
  3
LiberationMono-Italic.ttf
  4

  0
ENDTAB
  0
TABLE
  2
VIEW
  5
7
330
0
100
AcDbSymbolTable
 70
0
  0
ENDTAB
  0
TABLE
  2
UCS
  5
6
330
0
100
AcDbSymbolTable
 70
0
  0
ENDTAB
  0
TABLE
  2
APPID
  5
3
330
0
100
AcDbSymbolTable
 70
3
  0
APPID
  5
2A
330
3
100
AcDbSymbolTableRecord
100
AcDbRegAppTableRecord
  2
ACAD
 70
0
  0
APPID
  5
B6
330
3
100
AcDbSymbolTableRecord
100
AcDbRegAppTableRecord
  2
HATCHBACKGROUNDCOLOR
 70
0
  0
APPID
  5
B7
330
3
100
AcDbSymbolTableRecord
100
AcDbRegAppTableRecord
  2
EZDXF
 70
0
  0
ENDTAB
  0
TABLE
  2
DIMSTYLE
  5
4
330
0
100
AcDbSymbolTable
 70
12
100
AcDbDimStyleTable
  0
DIMSTYLE
105
2B
330
4
100
AcDbSymbolTableRecord
100
AcDbDimStyleTableRecord
  2
Standard
 70
0
 40
1.0
 41
2.5
 42
0.625
 43
3.75
 44
1.25
 45
0.0
 46
0.0
 47
0.0
 48
0.0
 49
2.5
140
2.5
141
2.5
142
0.0
143
0.03937007874
144
1.0
145
0.0
146
1.0
147
0.625
148
0.0
 69
0
 70
0
 71
0
 72
0
 73
0
 74
0
 75
0
 76
0
 77
1
 78
8
 79
3
170
0
171
3
172
1
173
0
174
0
175
0
176
0
177
0
178
0
179
2
271
2
272
2
273
2
274
3
275
0
276
0
277
2
278
44
279
0
280
0
281
0
282
0
283
0
284
8
285
0
286
0
288
0
289
3
290
0
371
-2
372
-2
  0
DIMSTYLE
105
73
330
4
100
AcDbSymbolTableRecord
100
AcDbDimStyleTableRecord
  2
EZDXF
 70
0
 40
1.0
 41
0.175
 42
0.125
 43
3.75
 44
0.375
 45
0.0
 46
0.0
 47
0.0
 48
0.0
 49
2.5
140
0.25
141
2.5
142
0.0
143
0.03937007874
144
100.0
145
0.0
146
0.5
147
0.1
148
0.0
 69
0
 70
0
 71
0
 72
0
 73
0
 74
0
 75
0
 76
0
 77
1
 78
12
 79
3
170
0
171
3
172
1
173
0
174
0
175
0
176
0
177
0
178
0
179
2
271
2
272
2
273
2
274
3
275
0
276
0
277
2
278
46
279
2
280
0
281
0
282
0
283
0
284
8
285
0
286
0
288
1
289
3
290
0
340
4C
342
74
371
-2
372
-2
  0
DIMSTYLE
105
7C
330
4
100
AcDbSymbolTableRecord
100
AcDbDimStyleTableRecord
  2
EZ_M_100_H25_CM
 70
0
 40
1.0
 41
0.25
 42
0.125
 43
3.75
 44
0.375
 45
0.0
 46
0.0
 47
0.0
 48
0.0
 49
2.5
140
0.25
141
2.5
142
0.125
143
0.03937007874
144
100.0
145
0.0
146
0.5
147
0.1
148
0.0
 69
0
 70
0
 71
0
 72
0
 73
0
 74
0
 75
0
 76
0
 77
1
 78
12
 79
3
170
0
171
3
172
1
173
0
174
0
175
0
176
0
177
0
178
0
179
2
271
2
272
2
273
2
274
3
275
0
276
0
277
2
278
46
279
2
280
0
281
0
282
0
283
0
284
8
285
0
286
0
288
1
289
3
290
0
340
4C
371
-2
372
-2
  0
DIMSTYLE
105
7D
330
4
100
AcDbSymbolTableRecord
100
AcDbDimStyleTableRecord
  2
EZ_M_50_H25_CM
 70
0
 40
1.0
 41
0.125
 42
0.0625
 43
3.75
 44
0.1875
 45
0.0
 46
0.0
 47
0.0
 48
0.0
 49
2.5
140
0.125
141
2.5
142
0.0625
143
0.03937007874
144
100.0
145
0.0
146
0.5
147
0.05
148
0.0
 69
0
 70
0
 71
0
 72
0
 73
0
 74
0
 75
0
 76
0
 77
1
 78
12
 79
3
170
0
171
3
172
1
173
0
174
0
175
0
176
0
177
0
178
0
179
2
271
2
272
2
273
2
274
3
275
0
276
0
277
2
278
46
279
2
280
0
281
0
282
0
283
0
284
8
285
0
286
0
288
1
289
3
290
0
340
4C
371
-2
372
-2
  0
DIMSTYLE
105
7E
330
4
100
AcDbSymbolTableRecord
100
AcDbDimStyleTableRecord
  2
EZ_M_25_H25_CM
 70
0
 40
1.0
 41
0.0625
 42
0.03125
 43
3.75
 44
0.09375
 45
0.0
 46
0.0
 47
0.0
 48
0.0
 49
2.5
140
0.0625
141
2.5
142
0.03125
143
0.03937007874
144
100.0
145
0.0
146
0.5
147
0.025
148
0.0
 69
0
 70
0
 71
0
 72
0
 73
0
 74
0
 75
0
 76
0
 77
1
 78
12
 79
3
170
0
171
3
172
1
173
0
174
0
175
0
176
0
177
0
178
0
179
2
271
2
272
2
273
2
274
3
275
0
276
0
277
2
278
46
279
2
280
0
281
0
282
0
283
0
284
8
285
0
286
0
288
1
289
3
290
0
340
4C
371
-2
372
-2
  0
DIMSTYLE
105
7F
330
4
100
AcDbSymbolTableRecord
100
AcDbDimStyleTableRecord
  2
EZ_M_20_H25_CM
 70
0
 40
1.0
 41
0.05
 42
0.025
 43
3.75
 44
0.07500000000000001
 45
0.0
 46
0.0
 47
0.0
 48
0.0
 49
2.5
140
0.05
141
2.5
142
0.025
143
0.03937007874
144
100.0
145
0.0
146
0.5
147
0.020000000000000004
148
0.0
 69
0
 70
0
 71
0
 72
0
 73
0
 74
0
 75
0
 76
0
 77
1
 78
12
 79
3
170
0
171
3
172
1
173
0
174
0
175
0
176
0
177
0
178
0
179
2
271
2
272
2
273
2
274
3
275
0
276
0
277
2
278
46
279
2
280
0
281
0
282
0
283
0
284
8
285
0
286
0
288
1
289
3
290
0
340
4C
371
-2
372
-2
  0
DIMSTYLE
105
80
330
4
100
AcDbSymbolTableRecord
100
AcDbDimStyleTableRecord
  2
EZ_M_10_H25_CM
 70
0
 40
1.0
 41
0.025
 42
0.0125
 43
3.75
 44
0.037500000000000006
 45
0.0
 46
0.0
 47
0.0
 48
0.0
 49
2.5
140
0.025
141
2.5
142
0.0125
143
0.03937007874
144
100.0
145
0.0
146
0.5
147
0.010000000000000002
148
0.0
 69
0
 70
0
 71
0
 72
0
 73
0
 74
0
 75
0
 76
0
 77
1
 78
12
 79
3
170
0
171
3
172
1
173
0
174
0
175
0
176
0
177
0
178
0
179
2
271
2
272
2
273
2
274
3
275
0
276
0
277
2
278
46
279
2
280
0
281
0
282
0
283
0
284
8
285
0
286
0
288
1
289
3
290
0
340
4C
371
-2
372
-2
  0
DIMSTYLE
105
81
330
4
100
AcDbSymbolTableRecord
100
AcDbDimStyleTableRecord
  2
EZ_M_5_H25_CM
 70
0
 40
1.0
 41
0.0125
 42
0.00625
 43
3.75
 44
0.018750000000000003
 45
0.0
 46
0.0
 47
0.0
 48
0.0
 49
2.5
140
0.0125
141
2.5
142
0.00625
143
0.03937007874
144
100.0
145
0.0
146
0.5
147
0.005000000000000001
148
0.0
 69
0
 70
0
 71
0
 72
0
 73
0
 74
0
 75
0
 76
0
 77
1
 78
12
 79
3
170
0
171
3
172
1
173
0
174
0
175
0
176
0
177
0
178
0
179
2
271
2
272
2
273
2
274
3
275
0
276
0
277
2
278
46
279
2
280
0
281
0
282
0
283
0
284
8
285
0
286
0
288
1
289
3
290
0
340
4C
371
-2
372
-2
  0
DIMSTYLE
105
82
330
4
100
AcDbSymbolTableRecord
100
AcDbDimStyleTableRecord
  2
EZ_M_1_H25_CM
 70
0
 40
1.0
 41
0.0025
 42
0.00125
 43
3.75
 44
0.00375
 45
0.0
 46
0.0
 47
0.0
 48
0.0
 49
2.5
140
0.0025
141
2.5
142
0.00125
143
0.03937007874
144
100.0
145
0.0
146
0.5
147
0.001
148
0.0
 69
0
 70
0
 71
0
 72
0
 73
0
 74
0
 75
0
 76
0
 77
1
 78
12
 79
3
170
0
171
3
172
1
173
0
174
0
175
0
176
0
177
0
178
0
179
2
271
2
272
2
273
2
274
3
275
0
276
0
277
2
278
46
279
2
280
0
281
0
282
0
283
0
284
8
285
0
286
0
288
1
289
3
290
0
340
4C
371
-2
372
-2
  0
DIMSTYLE
105
83
330
4
100
AcDbSymbolTableRecord
100
AcDbDimStyleTableRecord
  2
EZ_RADIUS
 70
0
 40
1.0
 41
0.25
 42
0.125
 43
3.75
 44
0.375
 45
0.0
 46
0.0
 47
0.0
 48
0.0
 49
2.5
140
0.25
141
0.0
142
0.0
143
0.03937007874
144
100.0
145
0.0
146
0.5
147
0.1
148
0.0
 69
0
 70
0
 71
0
 72
0
 73
0
 74
0
 75
0
 76
0
 77
1
 78
12
 79
3
170
0
171
3
172
0
173
0
174
0
175
0
176
0
177
0
178
0
179
2
271
2
272
2
273
2
274
3
275
0
276
0
277
2
278
46
279
1
280
0
281
0
282
0
283
0
284
8
285
0
286
0
288
1
289
3
290
0
340
4C
342
84
371
-2
372
-2
  0
DIMSTYLE
105
88
330
4
100
AcDbSymbolTableRecord
100
AcDbDimStyleTableRecord
  2
EZ_RADIUS_INSIDE
 70
0
 40
1.0
 41
0.25
 42
0.125
 43
3.75
 44
0.375
 45
0.0
 46
0.0
 47
0.0
 48
0.0
 49
2.5
140
0.25
141
0.0
142
0.0
143
0.03937007874
144
100.0
145
0.0
146
0.5
147
0.1
148
0.0
 69
0
 70
0
 71
0
 72
0
 73
0
 74
0
 75
0
 76
0
 77
0
 78
12
 79
3
170
0
171
3
172
0
173
0
174
1
175
0
176
0
177
0
178
0
179
2
271
2
272
2
273
2
274
3
275
0
276
0
277
2
278
46
279
0
280
0
281
0
282
0
283
0
284
8
285
0
286
0
288
1
289
0
290
0
340
4C
342
84
371
-2
372
-2
  0
DIMSTYLE
105
89
330
4
100
AcDbSymbolTableRecord
100
AcDbDimStyleTableRecord
  2
EZ_CURVED
 70
0
 40
1.0
 41
0.25
 42
0.125
 43
3.75
 44
0.375
 45
0.0
 46
0.0
 47
0.0
 48
0.0
 49
2.5
140
0.25
141
2.5
142
0.0
143
0.03937007874
144
100.0
145
0.0
146
0.5
147
0.1
148
0.0
 69
0
 70
0
 71
0
 72
0
 73
0
 74
0
 75
0
 76
0
 77
1
 78
12
 79
2
 90
2
170
0
171
3
172
1
173
0
174
0
175
0
176
0
177
0
178
0
179
2
271
2
272
2
273
2
274
3
275
0
276
0
277
2
278
46
279
2
280
0
281
0
282
0
283
0
284
8
285
0
286
0
288
1
289
3
290
0
340
4C
371
-2
372
-2
  0
ENDTAB
  0
TABLE
  2
BLOCK_RECORD
  5
9
330
0
100
AcDbSymbolTable
 70
5
  0
BLOCK_RECORD
  5
17
330
9
100
AcDbSymbolTableRecord
100
AcDbBlockTableRecord
  2
*Model_Space
340
1A
 70
0
280
1
281
0
  0
BLOCK_RECORD
  5
1B
330
9
100
AcDbSymbolTableRecord
100
AcDbBlockTableRecord
  2
*Paper_Space
340
1E
 70
0
280
1
281
0
  0
BLOCK_RECORD
  5
74
330
9
100
AcDbSymbolTableRecord
100
AcDbBlockTableRecord
  2
_ARCHTICK
340
0
 70
0
280
1
281
0
  0
BLOCK_RECORD
  5
78
330
9
100
AcDbSymbolTableRecord
100
AcDbBlockTableRecord
  2
_CLOSEDFILLED
340
0
 70
0
280
1
281
0
  0
BLOCK_RECORD
  5
84
330
9
100
AcDbSymbolTableRecord
100
AcDbBlockTableRecord
  2
_CLOSEDBLANK
340
0
 70
0
280
1
281
0
  0
ENDTAB
  0
ENDSEC
  0
SECTION
  2
BLOCKS
  0
BLOCK
  5
18
330
17
100
AcDbEntity
  8
0
100
AcDbBlockBegin
  2
*Model_Space
 70
0
 10
0.0
 20
0.0
 30
0.0
  3
*Model_Space
  1

  0
ENDBLK
  5
19
330
17
100
AcDbEntity
  8
0
100
AcDbBlockEnd
  0
BLOCK
  5
1C
330
1B
100
AcDbEntity
  8
0
100
AcDbBlockBegin
  2
*Paper_Space
 70
0
 10
0.0
 20
0.0
 30
0.0
  3
*Paper_Space
  1

  0
ENDBLK
  5
1D
330
1B
100
AcDbEntity
  8
0
100
AcDbBlockEnd
  0
BLOCK
  5
75
330
74
100
AcDbEntity
  8
0
100
AcDbBlockBegin
  2
_ARCHTICK
 70
0
 10
0.0
 20
0.0
 30
0.0
  3
_ARCHTICK
  1

  0
LWPOLYLINE
  5
77
330
74
100
AcDbEntity
  8
0
  6
BYBLOCK
 62
0
100
AcDbPolyline
 90
2
 70
0
 43
0.15
 10
-0.5
 20
-0.5
 10
0.5
 20
0.5
  0
ENDBLK
  5
76
330
74
100
AcDbEntity
  8
0
100
AcDbBlockEnd
  0
BLOCK
  5
79
330
78
100
AcDbEntity
  8
0
100
AcDbBlockBegin
  2
_CLOSEDFILLED
 70
0
 10
0.0
 20
0.0
 30
0.0
  3
_CLOSEDFILLED
  1

  0
SOLID
  5
7B
330
78
100
AcDbEntity
  8
0
  6
BYBLOCK
 62
0
100
AcDbTrace
 10
-1.0
 20
0.16439898372402537
 30
0.0
 11
0.0
 21
0.0
 31
0.0
 12
-1.0
 22
-0.16439898372402537
 32
0.0
 13
-1.0
 23
-0.16439898372402537
 33
0.0
  0
ENDBLK
  5
7A
330
78
100
AcDbEntity
  8
0
100
AcDbBlockEnd
  0
BLOCK
  5
85
330
84
100
AcDbEntity
  8
0
100
AcDbBlockBegin
  2
_CLOSEDBLANK
 70
0
 10
0.0
 20
0.0
 30
0.0
  3
_CLOSEDBLANK
  1

  0
LWPOLYLINE
  5
87
330
84
100
AcDbEntity
  8
0
  6
BYBLOCK
 62
0
100
AcDbPolyline
 90
3
 70
1
 10
-1.0
 20
0.16439898372402537
 10
0.0
 20
0.0
 10
-1.0
 20
-0.16439898372402537
  0
ENDBLK
  5
86
330
84
100
AcDbEntity
  8
0
100
AcDbBlockEnd
  0
ENDSEC
  0
SECTION
  2
ENTITIES
  0
LWPOLYLINE
  5
8C
330
17
100
AcDbEntity
  8
Layer
100
AcDbPolyline
 90
261
 70
1
 10
964.4136201055351
 20
115.61153413873195
 10
961.8443104080741
 20
116.53877671189572
 10
957.580652053348
 20
118.07180848940445
 10
952.8065103609531
 20
119.77368813841063
 10
947.5225410452135
 20
121.62431953468715
 10
941.709461459387
 20
123.6198744459046
 10
935.4014791189187
 20
125.7825177611691
 10
928.6640293014252
 20
128.10367534221888
 10
921.5660978414014
 20
130.5676599880294
 10
914.164020996047
 20
133.15607175575286
 10
906.5101123021886
 20
135.84948794629196
 10
898.6391795943844
 20
138.633310533625
 10
890.5798885608305
 20
141.49261320795543
 10
882.3563480266669
 20
144.4186028742621
 10
873.9852255524536
 20
147.4026916503394
 10
865.4883119326996
 20
150.43407173785548
 10
856.8881234795634
 20
153.50352890445603
 10
848.2056690290962
 20
156.5997349335142
 10
839.4548801897038
 20
159.71368921180186
 10
830.6470834733268
 20
162.83993886751847
 10
821.7929142591876
 20
165.97188093967264
 10
812.8962203420517
 20
169.10417566670233
 10
803.9601837764426
 20
172.2335451084175
 10
794.9900873708954
 20
175.3560495785115
 10
785.9897022539976
 20
178.46687275455196
 10
776.9603925905296
 20
181.56240264709072
 10
767.9047783940309
 20
184.639363689891
 10
758.8260872619246
 20
187.69328712933776
 10
749.7242946103686
 20
190.72012699623676
 10
740.5970918216226
 20
193.71751780120906
 10
731.4438469288507
 20
196.68351719343218
 10
729.5387380926707
 20
197.29208305519356
 10
729.2344472595132
 20
196.33950387798237
 10
721.9642229738713
 20
198.66191184259412
 10
712.7610402031552
 20
201.55677190594892
 10
703.5272783739239
 20
204.41353718126567
 10
694.2605097692924
 20
207.2308540222027
 10
684.9601748092978
 20
210.00878405732664
 10
675.6275097433763
 20
212.74721395837784
 10
666.2639411850621
 20
215.44364566535486
 10
656.8696405533001
 20
218.09503767551357
 10
647.4449842448033
 20
220.69967474119284
 10
637.9923350131014
 20
223.25628940039897
 10
628.5144321579235
 20
225.76145525777844
 10
619.0116997373348
 20
228.21009675552327
 10
609.4835006246434
 20
230.5989805628107
 10
599.9303806631444
 20
232.9268960674777
 10
590.3546233257562
 20
235.19122143852184
 10
580.7557001194546
 20
237.38748551759537
 10
571.1319977008234
 20
239.5137704935877
 10
561.4840869319793
 20
241.570593656597
 10
551.8150441469932
 20
243.5571733262264
 10
542.1264676936838
 20
245.47028758801844
 10
532.417669086504
 20
247.30762594027556
 10
522.6896293481936
 20
249.06982308834745
 10
512.9454220609014
 20
250.7555020186228
 10
503.18523119554936
 20
252.35931541525608
 10
493.4048602213507
 20
253.87664381812368
 10
483.599752398234
 20
255.30866969055165
 10
473.7699777332019
 20
256.6606458277274
 10
463.92042141458205
 20
257.93624133320463
 10
454.05811738247434
 20
259.1355572520045
 10
444.19026574065515
 20
260.25576358226687
 10
434.3209759294461
 20
261.2929898165433
 10
424.4499441428276
 20
262.243977614499
 10
414.5760687048475
 20
263.10881849545274
 10
404.7023560025155
 20
263.88955538247643
 10
394.83480402928114
 20
264.58780548090283
 10
384.9779478883293
 20
265.2022861388579
 10
375.1347500359949
 20
265.7313839040139
 10
365.3092560630759
 20
266.1734264005203
 10
355.50445158795407
 20
266.5267741162567
 10
345.7208685303727
 20
266.79077843486976
 10
335.9597357658299
 20
266.96741494843366
 10
326.2283950933452
 20
267.05877431509975
 10
316.53576354036056
 20
267.06321547179925
 10
306.884867178806
 20
266.97592415492545
 10
297.275221642729
 20
266.7948170149388
 10
287.70927224003805
 20
266.52163619538567
 10
278.19322432786237
 20
266.15842785897627
 10
268.73242840991986
 20
265.70590056268514
 10
259.33436674572306
 20
265.1649612531817
 10
250.01027876239897
 20
264.53369961077317
 10
240.76669820997736
 20
263.8058326372355
 10
231.60214602507543
 20
262.9767368418692
 10
222.516187449686
 20
262.04962751245773
 10
213.517345206321
 20
261.03126304438155
 10
204.61916683426043
 20
259.9252914920046
 10
195.83545080499135
 20
258.7306839483969
 10
187.18111500486856
 20
257.4446271785445
 10
178.6664104631361
 20
256.06238556934096
 10
170.2937037116982
 20
254.5837478736977
 10
162.0695959854331
 20
253.01956803571485
 10
154.01665912308366
 20
251.38482251688066
 10
146.1631113620544
 20
249.68547524822185
 10
138.53014809936116
 20
247.91979243846873
 10
131.13032249432055
 20
246.08698114094392
 10
123.96945895587149
 20
244.19229487078928
 10
117.05243837908137
 20
242.25087871357454
 10
110.39482342690116
 20
240.28631246380866
 10
104.02145380573154
 20
238.3150527011092
 10
97.94695838392727
 20
236.33730358725515
 10
92.16619761327036
 20
234.3497966397207
 10
86.66564291242116
 20
232.35935012865485
 10
81.43552255015675
 20
230.37888332343016
 10
76.46949752971386
 20
228.41787521948743
 10
71.76123797241229
 20
226.4810022726437
 10
67.30260944709107
 20
224.57056516735062
 10
63.08401371450367
 20
222.68622399773434
 10
59.092844244501805
 20
220.82352982804042
 10
55.3131868454264
 20
218.97747312546704
 10
51.72918624970322
 20
217.14648739231498
 10
48.3283096325174
 20
215.332887535032
 10
45.10332014742829
 20
213.53983471921822
 10
42.049571275137566
 20
211.7665485996181
 10
39.16107361445961
 20
210.0083618616274
 10
36.428759232572645
 20
208.2607173929777
 10
33.84351950361645
 20
206.52516997330665
 10
31.398922646484323
 20
204.8062470535637
 10
29.08971439716322
 20
203.10746915589007
 10
26.910689178070754
 20
201.4287857174093
 10
24.8591191991992
 20
199.77046876242562
 10
22.9369080845824
 20
198.13107428087162
 10
21.14813773106846
 20
196.50816377227818
 10
19.495093194727815
 20
194.89705533899235
 10
17.97640891380894
 20
193.29437506895687
 10
16.587930089530232
 20
191.7000995885556
 10
15.321484069301334
 20
190.11292465511238
 10
14.16785152142819
 20
188.53516714444615
 10
13.123608289934396
 20
186.97743665030941
 10
12.196184315322796
 20
185.45698369149778
 10
11.396844119417949
 20
183.98000792119342
 10
10.729380162275731
 20
182.53446405082516
 10
10.188270536156153
 20
181.10525292553976
 10
9.765406210997128
 20
179.6919396650442
 10
9.455676480794523
 20
178.30862039677606
 10
9.256808753687721
 20
176.93121343812845
 10
9.174474868601521
 20
175.59038457036652
 10
9.211076709106862
 20
174.25923409057032
 10
9.373027520479638
 20
172.95974292099154
 10
9.671104932977983
 20
171.6940452503292
 10
10.12037199516459
 20
170.45123664649833
 10
10.731731111396414
 20
169.21898517205898
 10
11.503379558171446
 20
167.99562226851236
 10
12.424391384065132
 20
166.79063334787025
 10
13.490240676368558
 20
165.6140950632777
 10
14.708171313856155
 20
164.46986043658524
 10
16.088375348394834
 20
163.35720373382955
 10
17.632664669498922
 20
162.27593141986551
 10
19.338298385014753
 20
161.2273000743865
 10
21.20528293756786
 20
160.21125078778192
 10
23.237679448538643
 20
159.22443094103733
 10
25.436529002083887
 20
158.26241586546254
 10
27.801633240533988
 20
157.32279738810766
 10
30.333691680529455
 20
156.40532220558111
 10
33.03713231991526
 20
155.51037051237842
 10
35.917252365976594
 20
154.63679493260472
 10
38.9806255833559
 20
153.78222232485786
 10
42.23600236937011
 20
152.94327182316158
 10
45.691919325699814
 20
152.11585737603605
 10
49.357450548601776
 20
151.29804305825556
 10
53.24485329873801
 20
150.49053661471407
 10
57.372546735537526
 20
149.69407435336655
 10
61.76073769696666
 20
148.90628402097747
 10
66.42871943950882
 20
148.1237967432319
 10
71.39574023925815
 20
147.34558377614462
 10
76.6856371527478
 20
146.57329474362407
 10
82.32486010728724
 20
145.80812839077274
 10
88.33734899436575
 20
145.04911390589564
 10
94.74161840819642
 20
144.29657547354432
 10
101.5519191424454
 20
143.55504353077842
 10
108.77765767059992
 20
142.83041866321335
 10
116.41905199789966
 20
142.12651392779418
 10
124.46235589990741
 20
141.44704219256127
 10
132.8841530559023
 20
140.7990350755719
 10
141.65810632191292
 20
140.18789343476607
 10
150.7509863473365
 20
139.61439298993776
 10
160.12387193593884
 20
139.08061903337176
 10
169.74504189376148
 20
138.58953683266878
 10
179.58745426772697
 20
138.13950431753068
 10
189.62283492428168
 20
137.72876691890278
 10
197.32164046208834
 20
137.4500371448894
 10
197.2854598778024
 20
136.45069187656583
 10
199.80167790154644
 20
136.35958976259548
 10
210.18617162456417
 20
136.02638436424778
 10
220.71961808898706
 20
135.71656791833112
 10
231.35339977710606
 20
135.4235627485151
 10
242.04927702803627
 20
135.15777283152607
 10
252.81188880655606
 20
134.9310432612254
 10
263.66934027037934
 20
134.74111637172325
 10
274.63570476832246
 20
134.5731178654917
 10
285.69391181128015
 20
134.4105753175149
 10
296.81059591393165
 20
134.2446710458873
 10
307.95675599834243
 20
134.07948149194735
 10
319.11291152387133
 20
133.9298158580944
 10
330.2962139257593
 20
133.80686116828747
 10
341.53601591875446
 20
133.7049942128254
 10
352.8392201818324
 20
133.6082771513657
 10
364.1838836557985
 20
133.50772102944939
 10
375.55314452589755
 20
133.40780824590297
 10
386.93832177273094
 20
133.31397178259368
 10
398.33190014472314
 20
133.22362809619517
 10
409.71894124472317
 20
133.1342967331289
 10
421.08912079953734
 20
133.05314315988213
 10
432.4519278180335
 20
132.98820351475183
 10
443.82050630367144
 20
132.9335672470636
 10
455.1883581014954
 20
132.87205849578234
 10
466.5526246431846
 20
132.79586566397737
 10
477.90701595812124
 20
132.71420416706778
 10
489.2484135840801
 20
132.64023961358032
 10
500.58555923638426
 20
132.573290415553
 10
511.91009792524267
 20
132.50416066967176
 10
523.2019940021122
 20
132.43197678875347
 10
534.4517209988484
 20
132.36881560697833
 10
545.6681967944758
 20
132.3215812143054
 10
556.8588627455895
 20
132.2806981562428
 10
568.0109505648371
 20
132.2273344373772
 10
579.1335786340245
 20
132.15380270983232
 10
590.2321674936853
 20
132.0665686133913
 10
601.2945180917604
 20
131.9739805637927
 10
612.2938757938434
 20
131.8689198431341
 10
623.2136618638243
 20
131.73688823445514
 10
634.0691756792878
 20
131.57302048062508
 10
644.8604750985235
 20
131.39518747306394
 10
655.5673364784204
 20
131.22876370434665
 10
666.2177967966895
 20
131.08321876366674
 10
676.820415621622
 20
130.94054455910236
 10
687.3579171334898
 20
130.77577390007787
 10
697.8467291612618
 20
130.58087139181697
 10
708.2948189433108
 20
130.36962900612093
 10
718.6692285557897
 20
130.15475865547083
 10
728.9347112510608
 20
129.92756784155154
 10
739.089660633209
 20
129.6674830435934
 10
749.1753279558286
 20
129.36704138722172
 10
759.2172127100132
 20
129.04277735548786
 10
769.1932030650505
 20
128.71483627905104
 10
779.0602808925518
 20
128.3834133726939
 10
788.7886241151102
 20
128.0276945569646
 10
798.4074117627588
 20
127.6310579250561
 10
807.9591002101158
 20
127.19791470716032
 10
817.4477128862221
 20
126.74893814747747
 10
826.8261369275058
 20
126.29989995772728
 10
836.0449678244781
 20
125.84234028125759
 10
845.0985386143727
 20
125.35051000795072
 10
854.0333167745273
 20
124.8064125114029
 10
862.8953284463133
 20
124.22070881666674
 10
871.6720934548239
 20
123.62279424315558
 10
880.2951922846454
 20
123.02565443943791
 10
888.7175681844285
 20
122.41410364834644
 10
896.9401462055893
 20
121.77564956407612
 10
904.9611276765706
 20
121.11605756174347
 10
912.7503591946471
 20
120.44333929488857
 10
920.2631870876813
 20
119.76080631663953
 10
927.452609395544
 20
119.06581128293809
 10
934.287895547691
 20
118.35047100460733
 10
940.7487978271707
 20
117.62466665522133
 10
946.7877502235914
 20
116.91904163963031
 10
952.340467131916
 20
116.25731778689807
 10
957.3632284376143
 20
115.63888357270301
 10
961.8535841700689
 20
115.06395527255923
 10
964.5617028082394
 20
114.70978334651387
  0
LWPOLYLINE
  5
8D
330
17
100
AcDbEntity
  8
Layer
100
AcDbPolyline
 90
5
 70
0
 10
635.9289945886112
 20
219.66429330970294
 10
632.0617983888978
 20
220.68644474316238
 10
633.0839498223572
 20
224.5536409428757
 10
636.9511460220706
 20
223.53148950941625
 10
635.9289945886112
 20
219.66429330970294
  0
LWPOLYLINE
  5
8E
330
17
100
AcDbEntity
  8
Layer
100
AcDbPolyline
 90
5
 70
0
 10
275.2660676512422
 20
262.0138200972153
 10
271.27063700673125
 20
261.8226814959258
 10
271.07949840544177
 20
265.81811214043677
 10
275.07492904995274
 20
266.00925074172625
 10
275.2660676512422
 20
262.0138200972153
  0
LWPOLYLINE
  5
8F
330
17
100
AcDbEntity
  8
Layer
100
AcDbPolyline
 90
5
 70
0
 10
111.50982902141705
 20
236.44421857635623
 10
107.68846910269501
 20
235.26218288671535
 10
106.50643341305413
 20
239.08354280543736
 10
110.32779333177616
 20
240.26557849507824
 10
111.50982902141705
 20
236.44421857635623
  0
LWPOLYLINE
  5
90
330
17
100
AcDbEntity
  8
Layer
100
AcDbPolyline
 90
5
 70
0
 10
28.682894339029126
 20
196.46042733493206
 10
27.161537378788154
 20
195.16216965653135
 10
23.915893182786427
 20
198.96556205713378
 10
25.4372501430274
 20
200.2638197355345
 10
28.682894339029126
 20
196.46042733493206
  0
LWPOLYLINE
  5
91
330
17
100
AcDbEntity
  8
Layer
100
AcDbPolyline
 90
5
 70
0
 10
19.256339164745302
 20
167.24348423508695
 10
20.896268421092312
 20
166.09865584874376
 10
18.03419745523436
 20
161.9988327078762
 10
16.39426819888735
 20
163.1436610942194
 10
19.256339164745302
 20
167.24348423508695
  0
LWPOLYLINE
  5
92
330
17
100
AcDbEntity
  8
Layer
100
AcDbPolyline
 90
5
 70
0
 10
147.72303014934238
 20
143.81333632669873
 10
151.71509858263795
 20
143.56156336571024
 10
151.46332562164946
 20
139.56949493241467
 10
147.4712571883539
 20
139.82126789340316
 10
147.72303014934238
 20
143.81333632669873
  0
LINE
  5
93
330
17
100
AcDbEntity
  8
Layer
100
AcDbLine
 10
945.6636439195153
 20
122.26245483523928
 30
0.0
 11
945.342046713094
 21
121.31557826629165
 31
0.0
  0
LINE
  5
94
330
17
100
AcDbEntity
  8
Layer
100
AcDbLine
 10
944.7134490842645
 20
118.16699314055364
 30
0.0
 11
944.646511239493
 21
117.16923599327914
 31
0.0
  0
LINE
  5
95
330
17
100
AcDbEntity
  8
Layer
100
AcDbLine
 10
926.7510996200641
 20
128.76773210156284
 30
0.0
 11
926.427669077652
 21
127.82148018783427
 31
0.0
  0
LINE
  5
96
330
17
100
AcDbEntity
  8
Layer
100
AcDbLine
 10
924.8416695955301
 20
120.32283071263363
 30
0.0
 11
924.7542659106687
 21
119.32665773775797
 31
0.0
  0
LINE
  5
97
330
17
100
AcDbEntity
  8
Layer
100
AcDbLine
 10
851.3413185892562
 20
155.48154685333856
 30
0.0
 11
851.0108932856994
 21
154.5377147078967
 31
0.0
  0
LINE
  5
98
330
17
100
AcDbEntity
  8
Layer
100
AcDbLine
 10
845.0592987036326
 20
126.35379822075457
 30
0.0
 11
844.9799116769152
 21
125.35695435134022
 31
0.0
  0
LWPOLYLINE
  5
99
330
17
100
AcDbEntity
  8
Layer
100
AcDbPolyline
 90
300
 70
1
 10
427.35480320922613
 20
200.0
 10
427.34309884421504
 20
201.18378896545047
 10
427.30799091749986
 20
202.36705520301885
 10
427.2494949317527
 20
203.54927621564488
 10
427.1676367171541
 20
204.72992996781028
 10
427.0624524199873
 20
205.90849511605487
 10
426.93398848667687
 20
207.08445123918713
 10
426.7823016432793
 20
208.2572790680876
 10
426.60745887043447
 20
209.42646071500351
 10
426.40953737378885
 20
210.59147990223337
 10
426.1886245499037
 20
211.75182219010074
 10
425.944817947663
 20
212.90697520411624
 10
425.67822522519896
 20
214.0564288612278
 10
425.3889641023529
 20
215.19967559505886
 10
425.0771623086936
 20
216.33621058003547
 10
424.74295752711555
 20
217.46553195430303
 10
424.3864973330421
 20
218.58714104133438
 10
424.0079391292602
 20
219.70054257013126
 10
423.6074500764157
 20
220.80524489392207
 10
423.1852070192002
 20
221.90076020725925
 10
422.74139640826115
 20
222.9866047614205
 10
422.27621421787046
 20
224.0622990780184
 10
421.7898658593881
 20
225.12736816072487
 10
421.2825660905578
 20
226.18134170501583
 10
420.7545389206765
 20
227.2237543058447
 10
420.2060175116778
 20
228.25414566315206
 10
419.63724407517446
 20
229.27206078512125
 10
419.04846976550436
 20
230.27705018908986
 10
418.439954568828
 20
231.26867010002874
 10
417.8119671883258
 20
232.24648264650045
 10
417.1647849255465
 20
233.21005605401098
 10
416.4986935579583
 20
234.15896483566928
 10
415.813987212758
 20
235.09278998007028
 10
415.11096823699233
 20
236.01111913631843
 10
414.38994706405015
 20
236.91354679611038
 10
413.6512420765839
 20
237.7996744727959
 10
412.8951794659207
 20
238.66911087733854
 10
412.1220930880253
 20
239.52147209109762
 10
411.33232431607894
 20
240.35638173535614
 10
410.52622188973845
 20
241.17347113751882
 10
409.7041417611425
 20
241.9723794939077
 10
408.8664469377335
 20
242.75275402908278
 10
408.0135073219633
 20
243.51425015161777
 10
407.1456995479551
 20
244.25653160626194
 10
406.26340681519196
 20
244.979270622421
 10
405.3670187193072
 20
245.68214805889136
 10
404.4569310800496
 20
246.3648535447839
 10
403.53354576650077
 20
247.0270856165749
 10
402.59727051962057
 20
247.66855185122415
 10
401.648518772201
 20
248.2889689953004
 10
400.68770946630514
 20
248.88806309005827
 10
399.7152668682746
 20
249.46556959241076
 10
398.7316203813854
 20
250.02123349174383
 10
397.73720435623534
 20
250.55480942252214
 10
396.7324578989471
 20
251.06606177263546
 10
395.7178246772715
 20
251.55476478743827
 10
394.6937527246761
 20
252.02070266943684
 10
393.6606942425064
 20
252.46366967357912
 10
392.61910540030635
 20
252.88347019810615
 10
391.56944613438674
 20
253.27991887092412
 10
390.51217994473024
 20
253.65284063145964
 10
389.447773690323
 20
254.00207080796142
 10
388.3766973830027
 20
254.32745519021475
 10
387.2994239799146
 20
254.62885009763636
 10
386.21642917466704
 20
254.90612244271975
 10
385.12819118727845
 20
255.15914978980288
 10
384.03519055300893
 20
255.38782040913227
 10
382.9379099101693
 20
255.59203332619978
 10
381.8368337870018
 20
255.77169836633004
 10
380.7324483877258
 20
255.92673619449914
 10
379.625241377844
 20
256.0570783503666
 10
378.5157016688027
 20
256.16266727850575
 10
377.40431920210267
 20
256.24345635381826
 10
376.29158473295445
 20
256.29940990212293
 10
375.17798961357494
 20
256.3305032159078
 10
374.06402557621976
 20
256.336722565241
 10
372.9501845160486
 20
256.3180652038328
 10
371.83695827391756
 20
256.27453937024893
 10
370.72483841919666
 20
256.206164284272
 10
369.6143160327063
 20
256.1129701384153
 10
368.5058814898698
 20
255.99499808459004
 10
367.4000242441777
 20
255.85230021593415
 10
366.2972326110584
 20
255.68493954380932
 10
365.19799355225234
 20
255.492989969977
 10
364.10279246078295
 20
255.27653625396536
 10
363.0121129466212
 20
255.03567397564197
 10
361.9264366231365
 20
254.7705094930084
 10
360.8462428944303
 20
254.4811598952355
 10
359.7720087436446
 20
254.1677529509601
 10
358.7042085223394
 20
253.83042705186605
 10
357.6433137410326
 20
253.46933115157427
 10
356.5897928609943
 20
253.08462469986907
 10
355.5441110873872
 20
252.67647757228957
 10
354.5067301638454
 20
252.24506999511752
 10
353.47810816858134
 20
251.7905924657944
 10
352.45869931211115
 20
251.31324566880303
 10
351.4489537366884
 20
250.81324038705117
 10
350.44931731753366
 20
250.29079740879547
 10
349.46023146594865
 20
249.7461474301478
 10
348.48213293440165
 20
249.17953095320618
 10
347.51545362366954
 20
248.59119817985592
 10
346.5606203921228
 20
247.9814089012875
 10
345.6180548672368
 20
247.35043238328007
 10
344.6881732594131
 20
246.69854724730126
 10
343.7713861781924
 20
246.0260413474758
 10
342.8680984509412
 20
245.33321164347723
 10
341.9787089440913
 20
244.6203640693989
 10
341.1036103870115
 20
243.88781339866205
 10
340.2431891985896
 20
243.13588310502072
 10
339.39782531660063
 20
242.3649052197249
 10
338.56789202993684
 20
241.5752201849048
 10
337.7537558137741
 20
240.76717670324126
 10
336.9557761677466
 20
239.94113158398844
 10
336.1743054572019
 20
239.09744958541688
 10
335.40968875760655
 20
238.23650325374652
 10
334.6622637021702
 20
237.3586727586408
 10
333.93236033275656
 20
236.46434572533445
 10
333.22030095414584
 20
235.55391706346902
 10
332.52639999171436
 20
234.62778879271195
 10
331.85096385259305
 20
233.6863698652361
 10
331.19429079036667
 20
232.73007598513774
 10
330.5566707733733
 20
231.7593294248736
 10
329.9383853566628
 20
230.77455883879708
 10
329.3397075576697
 20
229.7761990738765
 10
328.7609017356566
 20
228.76469097767915
 10
328.2022234749805
 20
227.74048120370514
 10
327.6639194722337
 20
226.704022014158
 10
327.14622742731007
 20
225.6557710802383
 10
326.64937593844303
 20
224.596191280049
 10
326.1735844012631
 20
223.52575049420147
 10
325.71906291191897
 20
222.44492139921263
 10
325.28601217430514
 20
221.35418125878422
 10
324.87462341143635
 20
220.25401171305668
 10
324.4850782810093
 20
219.14489856593033
 10
324.11754879518736
 20
218.02733157054817
 10
323.7721972446452
 20
216.90180421303455
 10
323.4491761269054
 20
215.76881349458566
 10
323.1486280790002
 20
214.62885971200777
 10
322.87068581448676
 20
213.48244623680029
 10
322.6154720648447
 20
212.33007929288098
 10
322.3830995252813
 20
211.17226773305185
 10
322.1736708049685
 20
210.00952281430395
 10
321.9872783817334
 20
208.84235797206085
 10
321.82400456122315
 20
207.6712885934598
 10
321.68392144056037
 20
206.49683178977148
 10
321.5670908765078
 20
205.31950616805807
 10
321.4735644581534
 20
204.13983160217106
 10
321.40338348413087
 20
202.95832900318956
 10
321.3565789443825
 20
201.7755200894006
 10
321.3331715064755
 20
200.5919271559231
 10
321.3331715064755
 20
199.40807284407694
 10
321.3565789443825
 20
198.22447991059943
 10
321.40338348413087
 20
197.04167099681047
 10
321.4735644581534
 20
195.86016839782894
 10
321.5670908765078
 20
194.68049383194193
 10
321.68392144056037
 20
193.50316821022855
 10
321.82400456122315
 20
192.3287114065402
 10
321.9872783817334
 20
191.15764202793918
 10
322.1736708049684
 20
189.99047718569605
 10
322.3830995252813
 20
188.82773226694817
 10
322.6154720648447
 20
187.66992070711902
 10
322.87068581448676
 20
186.51755376319971
 10
323.1486280790002
 20
185.37114028799223
 10
323.4491761269054
 20
184.23118650541437
 10
323.7721972446452
 20
183.09819578696548
 10
324.11754879518736
 20
181.97266842945186
 10
324.4850782810093
 20
180.8551014340697
 10
324.87462341143635
 20
179.74598828694334
 10
325.28601217430514
 20
178.64581874121578
 10
325.71906291191897
 20
177.55507860078737
 10
326.17358440126304
 20
176.47424950579853
 10
326.64937593844303
 20
175.403808719951
 10
327.14622742731007
 20
174.34422891976172
 10
327.6639194722337
 20
173.295977985842
 10
328.2022234749804
 20
172.25951879629486
 10
328.7609017356566
 20
171.23530902232085
 10
329.3397075576697
 20
170.2238009261235
 10
329.9383853566628
 20
169.22544116120292
 10
330.5566707733733
 20
168.2406705751264
 10
331.19429079036667
 20
167.26992401486226
 10
331.85096385259305
 20
166.3136301347639
 10
332.52639999171436
 20
165.37221120728805
 10
333.22030095414584
 20
164.44608293653098
 10
333.93236033275656
 20
163.53565427466555
 10
334.6622637021702
 20
162.6413272413592
 10
335.40968875760655
 20
161.76349674625348
 10
336.1743054572019
 20
160.90255041458315
 10
336.9557761677466
 20
160.05886841601156
 10
337.7537558137741
 20
159.23282329675874
 10
338.56789202993684
 20
158.4247798150952
 10
339.39782531660063
 20
157.6350947802751
 10
340.24318919858956
 20
156.86411689497928
 10
341.1036103870115
 20
156.11218660133795
 10
341.97870894409124
 20
155.3796359306011
 10
342.8680984509412
 20
154.66678835652277
 10
343.7713861781924
 20
153.97395865252423
 10
344.6881732594131
 20
153.30145275269876
 10
345.6180548672368
 20
152.64956761671993
 10
346.5606203921228
 20
152.01859109871248
 10
347.51545362366954
 20
151.40880182014408
 10
348.4821329344017
 20
150.82046904679382
 10
349.4602314659487
 20
150.2538525698522
 10
350.44931731753366
 20
149.7092025912045
 10
351.4489537366884
 20
149.18675961294883
 10
352.45869931211115
 20
148.686754331197
 10
353.4781081685813
 20
148.20940753420564
 10
354.50673016384536
 20
147.75493000488248
 10
355.54411108738714
 20
147.32352242771043
 10
356.58979286099424
 20
146.91537530013096
 10
357.6433137410326
 20
146.53066884842573
 10
358.7042085223394
 20
146.16957294813395
 10
359.7720087436446
 20
145.8322470490399
 10
360.8462428944303
 20
145.5188401047645
 10
361.92643662313645
 20
145.2294905069916
 10
363.0121129466212
 20
144.96432602435803
 10
364.102792460783
 20
144.72346374603464
 10
365.19799355225234
 20
144.507010030023
 10
366.2972326110584
 20
144.31506045619068
 10
367.4000242441777
 20
144.14769978406585
 10
368.5058814898698
 20
144.00500191540996
 10
369.61431603270626
 20
143.88702986158472
 10
370.72483841919666
 20
143.793835715728
 10
371.83695827391756
 20
143.7254606297511
 10
372.9501845160486
 20
143.68193479616716
 10
374.06402557621976
 20
143.66327743475898
 10
375.17798961357494
 20
143.66949678409216
 10
376.29158473295445
 20
143.70059009787707
 10
377.40431920210267
 20
143.7565436461817
 10
378.5157016688027
 20
143.83733272149425
 10
379.625241377844
 20
143.94292164963338
 10
380.73244838772587
 20
144.07326380550086
 10
381.8368337870018
 20
144.22830163366996
 10
382.9379099101693
 20
144.40796667380022
 10
384.03519055300893
 20
144.61217959086775
 10
385.1281911872784
 20
144.84085021019712
 10
386.216429174667
 20
145.09387755728022
 10
387.2994239799146
 20
145.37114990236364
 10
388.3766973830027
 20
145.67254480978525
 10
389.447773690323
 20
145.99792919203855
 10
390.51217994473024
 20
146.34715936854036
 10
391.5694461343867
 20
146.72008112907588
 10
392.61910540030635
 20
147.11652980189385
 10
393.6606942425064
 20
147.53633032642088
 10
394.6937527246761
 20
147.97929733056316
 10
395.7178246772715
 20
148.44523521256173
 10
396.7324578989471
 20
148.93393822736454
 10
397.73720435623534
 20
149.44519057747786
 10
398.7316203813854
 20
149.97876650825617
 10
399.7152668682747
 20
150.53443040758927
 10
400.6877094663051
 20
151.1119369099417
 10
401.64851877220093
 20
151.71103100469958
 10
402.59727051962057
 20
152.33144814877585
 10
403.5335457665007
 20
152.9729143834251
 10
404.4569310800496
 20
153.6351464552161
 10
405.3670187193072
 20
154.31785194110861
 10
406.26340681519196
 20
155.02072937757896
 10
407.1456995479551
 20
155.74346839373806
 10
408.0135073219633
 20
156.48574984838223
 10
408.8664469377335
 20
157.24724597091722
 10
409.7041417611425
 20
158.0276205060923
 10
410.52622188973845
 20
158.82652886248118
 10
411.33232431607894
 20
159.64361826464386
 10
412.1220930880253
 20
160.47852790890238
 10
412.8951794659207
 20
161.33088912266146
 10
413.6512420765839
 20
162.20032552720406
 10
414.38994706405015
 20
163.0864532038896
 10
415.1109682369923
 20
163.98888086368152
 10
415.813987212758
 20
164.9072100199297
 10
416.4986935579583
 20
165.8410351643307
 10
417.1647849255465
 20
166.78994394598902
 10
417.8119671883258
 20
167.75351735349955
 10
418.439954568828
 20
168.73132989997126
 10
419.04846976550436
 20
169.72294981091014
 10
419.63724407517446
 20
170.72793921487875
 10
420.2060175116778
 20
171.74585433684794
 10
420.7545389206765
 20
172.7762456941553
 10
421.2825660905578
 20
173.8186582949842
 10
421.7898658593881
 20
174.87263183927516
 10
422.27621421787046
 20
175.9377009219816
 10
422.7413964082611
 20
177.01339523857948
 10
423.1852070192002
 20
178.09923979274072
 10
423.6074500764157
 20
179.19475510607793
 10
424.0079391292602
 20
180.29945742986874
 10
424.3864973330421
 20
181.4128589586656
 10
424.74295752711555
 20
182.53446804569694
 10
425.0771623086936
 20
183.66378941996453
 10
425.3889641023529
 20
184.80032440494114
 10
425.67822522519896
 20
185.9435711387722
 10
425.944817947663
 20
187.09302479588376
 10
426.1886245499037
 20
188.24817780989926
 10
426.40953737378885
 20
189.40852009776663
 10
426.60745887043447
 20
190.57353928499649
 10
426.7823016432793
 20
191.7427209319124
 10
426.93398848667687
 20
192.9155487608129
 10
427.0624524199873
 20
194.0915048839451
 10
427.1676367171541
 20
195.2700700321897
 10
427.2494949317527
 20
196.4507237843551
 10
427.30799091749986
 20
197.63294479698112
 10
427.34309884421504
 20
198.8162110345495
 10
427.35480320922613
 20
200.0
  0
LINE
  5
9A
330
17
100
AcDbEntity
  8
Layer
 62
7
100
AcDbLine
 10
25.1430814386286
 20
200.00000000000006
 30
0.0
 11
717.7102453699711
 21
199.99999999999997
 31
0.0
  0
LINE
  5
9B
330
17
100
AcDbEntity
  8
Layer
 62
7
100
AcDbLine
 10
161.55651422489711
 20
200.00000000000003
 30
0.0
 11
173.55651422489711
 21
200.00000000000003
 31
0.0
  0
LWPOLYLINE
  5
9C
330
17
100
AcDbEntity
  8
Layer
100
AcDbPolyline
 90
5
 70
0
 10
167.55651422489711
 20
205.00000000000003
 10
172.55651422489711
 20
200.00000000000003
 10
167.55651422489711
 20
195.00000000000003
 10
162.55651422489711
 20
200.00000000000003
 10
167.55651422489711
 20
205.00000000000003
  0
LINE
  5
9D
330
17
100
AcDbEntity
  8
Layer
 62
7
100
AcDbLine
 10
365.42666340429986
 20
200.0
 30
0.0
 11
377.42666340429986
 21
200.0
 31
0.0
  0
LWPOLYLINE
  5
9E
330
17
100
AcDbEntity
  8
Layer
100
AcDbPolyline
 90
5
 70
0
 10
371.42666340429986
 20
205.0
 10
376.42666340429986
 20
200.0
 10
371.42666340429986
 20
195.0
 10
366.42666340429986
 20
200.0
 10
371.42666340429986
 20
205.0
  0
LINE
  5
9F
330
17
100
AcDbEntity
  8
Layer
 62
7
100
AcDbLine
 10
569.2968125837026
 20
199.99999999999997
 30
0.0
 11
581.2968125837026
 21
199.99999999999997
 31
0.0
  0
LWPOLYLINE
  5
A0
330
17
100
AcDbEntity
  8
Layer
100
AcDbPolyline
 90
5
 70
0
 10
575.2968125837026
 20
204.99999999999997
 10
580.2968125837026
 20
199.99999999999997
 10
575.2968125837026
 20
194.99999999999997
 10
570.2968125837026
 20
199.99999999999997
 10
575.2968125837026
 20
204.99999999999997
  0
LINE
  5
A1
330
17
100
AcDbEntity
  8
Layer
 62
7
100
AcDbLine
 10
9.33481857583871
 20
177.4715287192263
 30
0.0
 11
963.6339050818926
 21
115.89292682781593
 31
0.0
  0
LINE
  5
A2
330
17
100
AcDbEntity
  8
Layer
 62
7
100
AcDbLine
 10
198.09899426890044
 20
165.29103500323495
 30
0.0
 11
210.07408917260952
 21
164.5183112187166
 31
0.0
  0
LWPOLYLINE
  5
A3
330
17
100
AcDbEntity
  8
Layer
100
AcDbPolyline
 90
5
 70
0
 10
204.4085099643043
 20
169.89429598752125
 10
209.07616459730045
 20
164.58270486742646
 10
203.76457347720566
 20
159.9150502344303
 10
199.0969188442095
 20
165.2266413545251
 10
204.4085099643043
 20
169.89429598752125
  0
LINE
  5
A4
330
17
100
AcDbEntity
  8
Layer
 62
7
100
AcDbLine
 10
433.43051102565937
 20
150.1056638886894
 30
0.0
 11
445.40560592936845
 21
149.33294010417106
 31
0.0
  0
LWPOLYLINE
  5
A5
330
17
100
AcDbEntity
  8
Layer
100
AcDbPolyline
 90
5
 70
0
 10
439.7400267210632
 20
154.7089248729757
 10
444.4076813540594
 20
149.3973337528809
 10
439.0960902339646
 20
144.72967911988476
 10
434.42843560096844
 20
150.04127023997955
 10
439.7400267210632
 20
154.7089248729757
  0
LINE
  5
A6
330
17
100
AcDbEntity
  8
Layer
100
AcDbLine
 10
374.3425242718447
 20
256.33750000000003
 30
0.0
 11
374.3425242718447
 21
257.33750000000003
 31
0.0
  0
LINE
  5
A7
330
17
100
AcDbEntity
  8
Layer
100
AcDbLine
 10
374.3425242718447
 20
143.6625
 30
0.0
 11
374.3425242718447
 21
142.6625
 31
0.0
  0
LINE
  5
A8
330
17
100
AcDbEntity
  8
Layer
100
AcDbLine
 10
427.35480320922613
 20
200.0
 30
0.0
 11
428.35480320922613
 21
200.0
 31
0.0
  0
LINE
  5
A9
330
17
100
AcDbEntity
  8
Layer
100
AcDbLine
 10
321.33024533446326
 20
200.0
 30
0.0
 11
320.33024533446326
 21
200.0
 31
0.0
  0
LINE
  5
AA
330
17
100
AcDbEntity
  8
Layer
 62
7
100
AcDbLine
 10
224.3425242718447
 20
135.61674169728673
 30
0.0
 11
224.3425242718447
 21
262.23598252304043
 31
0.0
  0
LINE
  5
AB
330
17
100
AcDbEntity
  8
Layer
 62
7
100
AcDbLine
 10
224.3425242718447
 20
175.88347598630054
 30
0.0
 11
224.3425242718447
 21
187.88347598630054
 31
0.0
  0
LWPOLYLINE
  5
AC
330
17
100
AcDbEntity
  8
Layer
100
AcDbPolyline
 90
5
 70
0
 10
219.3425242718447
 20
181.88347598630054
 10
224.3425242718447
 20
186.88347598630054
 10
229.3425242718447
 20
181.88347598630054
 10
224.3425242718447
 20
176.88347598630054
 10
219.3425242718447
 20
181.88347598630054
  0
LINE
  5
AD
330
17
100
AcDbEntity
  8
Layer
 62
7
100
AcDbLine
 10
224.3425242718447
 20
209.96924823402668
 30
0.0
 11
224.3425242718447
 21
221.96924823402668
 31
0.0
  0
LWPOLYLINE
  5
AE
330
17
100
AcDbEntity
  8
Layer
100
AcDbPolyline
 90
5
 70
0
 10
219.3425242718447
 20
215.96924823402668
 10
224.3425242718447
 20
220.96924823402668
 10
229.3425242718447
 20
215.96924823402668
 10
224.3425242718447
 20
210.96924823402668
 10
219.3425242718447
 20
215.96924823402668
  0
LINE
  5
AF
330
17
100
AcDbEntity
  8
Layer
 62
7
100
AcDbLine
 10
674.3425242718447
 20
130.97388831908881
 30
0.0
 11
674.3425242718447
 21
213.11725189283246
 31
0.0
  0
LINE
  5
B0
330
17
100
AcDbEntity
  8
Layer
 62
7
100
AcDbLine
 10
674.3425242718447
 20
155.67406556989908
 30
0.0
 11
674.3425242718447
 21
167.67406556989908
 31
0.0
  0
LWPOLYLINE
  5
B1
330
17
100
AcDbEntity
  8
Layer
100
AcDbPolyline
 90
5
 70
0
 10
669.3425242718447
 20
161.67406556989908
 10
674.3425242718447
 20
166.67406556989908
 10
679.3425242718447
 20
161.67406556989908
 10
674.3425242718447
 20
156.67406556989908
 10
669.3425242718447
 20
161.67406556989908
  0
LINE
  5
B2
330
17
100
AcDbEntity
  8
Layer
 62
7
100
AcDbLine
 10
674.3425242718447
 20
176.4170746420222
 30
0.0
 11
674.3425242718447
 21
188.4170746420222
 31
0.0
  0
LWPOLYLINE
  5
B3
330
17
100
AcDbEntity
  8
Layer
100
AcDbPolyline
 90
5
 70
0
 10
669.3425242718447
 20
182.4170746420222
 10
674.3425242718447
 20
187.4170746420222
 10
679.3425242718447
 20
182.4170746420222
 10
674.3425242718447
 20
177.4170746420222
 10
669.3425242718447
 20
182.4170746420222
  0
LWPOLYLINE
  5
B4
330
17
100
AcDbEntity
  8
NumLabel
 62
1
100
AcDbPolyline
 90
6
 70
0
 10
278.4629126213593
 20
162.06019417475727
 10
283.4629126213593
 20
162.06019417475727
 10
283.4629126213593
 20
157.06019417475727
 10
278.4629126213593
 20
157.06019417475727
 10
278.4629126213593
 20
152.06019417475727
 10
283.4629126213593
 20
152.06019417475727
  0
LWPOLYLINE
  5
B5
330
17
100
AcDbEntity
  8
NumLabel
 62
1
100
AcDbPolyline
 90
4
 70
0
 10
285.9629126213593
 20
157.06019417475727
 10
285.9629126213593
 20
162.06019417475727
 10
290.9629126213593
 20
162.06019417475727
 10
290.9629126213593
 20
152.06019417475727
  0
ENDSEC
  0
SECTION
  2
OBJECTS
  0
DICTIONARY
  5
A
330
0
100
AcDbDictionary
280
0
281
1
  3
ACAD_COLOR
350
B
  3
ACAD_GROUP
350
C
  3
ACAD_LAYOUT
350
D
  3
ACAD_MATERIAL
350
E
  3
ACAD_MLEADERSTYLE
350
F
  3
ACAD_MLINESTYLE
350
10
  3
ACAD_PLOTSETTINGS
350
11
  3
ACAD_PLOTSTYLENAME
350
12
  3
ACAD_SCALELIST
350
14
  3
ACAD_TABLESTYLE
350
15
  3
ACAD_VISUALSTYLE
350
16
  3
EZDXF_META
350
2D
  0
DICTIONARY
  5
B
330
A
100
AcDbDictionary
280
0
281
1
  0
DICTIONARY
  5
C
330
A
100
AcDbDictionary
280
0
281
1
  0
DICTIONARY
  5
D
330
A
100
AcDbDictionary
280
0
281
1
  3
Model
350
1A
  3
Layout1
350
1E
  0
DICTIONARY
  5
E
330
A
100
AcDbDictionary
280
0
281
1
  3
ByBlock
350
1F
  3
ByLayer
350
20
  3
Global
350
21
  0
DICTIONARY
  5
F
330
A
100
AcDbDictionary
280
0
281
1
  3
Standard
350
2C
  0
DICTIONARY
  5
10
330
A
100
AcDbDictionary
280
0
281
1
  3
Standard
350
22
  0
DICTIONARY
  5
11
330
A
100
AcDbDictionary
280
0
281
1
  0
ACDBDICTIONARYWDFLT
  5
12
330
A
100
AcDbDictionary
280
0
281
1
  3
Normal
350
13
100
AcDbDictionaryWithDefault
340
13
  0
ACDBPLACEHOLDER
  5
13
330
12
  0
DICTIONARY
  5
14
330
A
100
AcDbDictionary
280
0
281
1
  0
DICTIONARY
  5
15
330
A
100
AcDbDictionary
280
0
281
1
  0
DICTIONARY
  5
16
330
A
100
AcDbDictionary
280
0
281
1
  3
2dWireframe
350
5A
  3
Basic
350
5B
  3
Brighten
350
5C
  3
ColorChange
350
5D
  3
Conceptual
350
5E
  3
Dim
350
5F
  3
EdgeColorOff
350
60
  3
Facepattern
350
61
  3
Flat
350
62
  3
FlatWithEdges
350
63
  3
Gouraud
350
64
  3
GouraudWithEdges
350
65
  3
Hidden
350
66
  3
JitterOff
350
67
  3
Linepattern
350
68
  3
Modeling
350
69
  3
OverhangOff
350
6A
  3
Realistic
350
6B
  3
Shaded
350
6C
  3
Shaded with edges
350
6D
  3
Shades of Gray
350
6E
  3
Sketchy
350
6F
  3
Thicken
350
70
  3
Wireframe
350
71
  3
X-Ray
350
72
  0
LAYOUT
  5
1A
330
D
100
AcDbPlotSettings
  1

  2
Adobe PDF
  4
A3
  6

 40
7.5
 41
20.0
 42
7.5
 43
20.0
 44
420.0
 45
297.0
 46
0.0
 47
0.0
 48
0.0
 49
0.0
140
0.0
141
0.0
142
1.0
143
1.0
 70
1024
 72
1
 73
0
 74
5
  7

 75
16
 76
0
 77
2
 78
300
147
1.0
148
0.0
149
0.0
100
AcDbLayout
  1
Model
 70
1
 71
0
 10
0.0
 20
0.0
 11
420.0
 21
297.0
 12
0.0
 22
0.0
 32
0.0
 14
1e+20
 24
1e+20
 34
1e+20
 15
-1e+20
 25
-1e+20
 35
-1e+20
146
0.0
 13
0.0
 23
0.0
 33
0.0
 16
1.0
 26
0.0
 36
0.0
 17
0.0
 27
1.0
 37
0.0
 76
1
330
17
  0
LAYOUT
  5
1E
330
D
100
AcDbPlotSettings
  1

  2
Adobe PDF
  4
A3
  6

 40
7.5
 41
20.0
 42
7.5
 43
20.0
 44
420.0
 45
297.0
 46
0.0
 47
0.0
 48
0.0
 49
0.0
140
0.0
141
0.0
142
1.0
143
1.0
 70
0
 72
1
 73
0
 74
5
  7

 75
16
 76
0
 77
2
 78
300
147
1.0
148
0.0
149
0.0
100
AcDbLayout
  1
Layout1
 70
1
 71
1
 10
0.0
 20
0.0
 11
420.0
 21
297.0
 12
0.0
 22
0.0
 32
0.0
 14
1e+20
 24
1e+20
 34
1e+20
 15
-1e+20
 25
-1e+20
 35
-1e+20
146
0.0
 13
0.0
 23
0.0
 33
0.0
 16
1.0
 26
0.0
 36
0.0
 17
0.0
 27
1.0
 37
0.0
 76
1
330
1B
  0
MATERIAL
  5
1F
102
{ACAD_REACTORS
330
E
102
}
330
E
100
AcDbMaterial
  1
ByBlock
  2

 70
0
 40
1.0
 71
1
 41
1.0
 91
-1023410177
 42
1.0
 72
1
  3

 73
1
 74
1
 75
1
 44
0.5
 73
0
 45
1.0
 46
1.0
 77
1
  4

 78
1
 79
1
170
1
 48
1.0
171
1
  6

172
1
173
1
174
1
140
1.0
141
1.0
175
1
  7

176
1
177
1
178
1
143
1.0
179
1
  8

270
1
271
1
272
1
145
1.0
146
1.0
273
1
  9

274
1
275
1
276
1
 42
1.0
 72
1
  3

 73
1
 74
1
 75
1
 94
63
  0
MATERIAL
  5
20
102
{ACAD_REACTORS
330
E
102
}
330
E
100
AcDbMaterial
  1
ByLayer
  2

 70
0
 40
1.0
 71
1
 41
1.0
 91
-1023410177
 42
1.0
 72
1
  3

 73
1
 74
1
 75
1
 44
0.5
 73
0
 45
1.0
 46
1.0
 77
1
  4

 78
1
 79
1
170
1
 48
1.0
171
1
  6

172
1
173
1
174
1
140
1.0
141
1.0
175
1
  7

176
1
177
1
178
1
143
1.0
179
1
  8

270
1
271
1
272
1
145
1.0
146
1.0
273
1
  9

274
1
275
1
276
1
 42
1.0
 72
1
  3

 73
1
 74
1
 75
1
 94
63
  0
MATERIAL
  5
21
102
{ACAD_REACTORS
330
E
102
}
330
E
100
AcDbMaterial
  1
Global
  2

 70
0
 40
1.0
 71
1
 41
1.0
 91
-1023410177
 42
1.0
 72
1
  3

 73
1
 74
1
 75
1
 44
0.5
 73
0
 45
1.0
 46
1.0
 77
1
  4

 78
1
 79
1
170
1
 48
1.0
171
1
  6

172
1
173
1
174
1
140
1.0
141
1.0
175
1
  7

176
1
177
1
178
1
143
1.0
179
1
  8

270
1
271
1
272
1
145
1.0
146
1.0
273
1
  9

274
1
275
1
276
1
 42
1.0
 72
1
  3

 73
1
 74
1
 75
1
 94
63
  0
MLINESTYLE
  5
22
102
{ACAD_REACTORS
330
10
102
}
330
10
100
AcDbMlineStyle
  2
Standard
 70
0
  3

 62
256
 51
90.0
 52
90.0
 71
2
 49
0.5
 62
256
  6
BYLAYER
 49
-0.5
 62
256
  6
BYLAYER
  0
MLEADERSTYLE
  5
2C
102
{ACAD_REACTORS
330
F
102
}
330
F
100
AcDbMLeaderStyle
179
2
170
2
171
1
172
0
 90
2
 40
0.0
 41
0.0
173
1
 91
-1056964608
 92
-2
290
1
 42
2.0
291
1
 43
8.0
  3
Standard
 44
4.0
300

342
29
174
1
175
1
176
0
178
1
 93
-1056964608
 45
4.0
292
0
297
0
 46
4.0
 94
-1056964608
 47
1.0
 49
1.0
140
1.0
294
1
141
0.0
177
0
142
1.0
295
0
296
0
143
3.75
271
0
272
9
273
9
  0
DICTIONARY
  5
2D
330
A
100
AcDbDictionary
281
1
  3
CREATED_BY_EZDXF
350
2E
  3
WRITTEN_BY_EZDXF
350
B8
  0
DICTIONARYVAR
  5
2E
330
2D
100
DictionaryVariables
280
0
  1
1.3.0 @ 2026-01-06T17:07:11.315576+00:00
  0
VISUALSTYLE
  5
5A
102
{ACAD_REACTORS
330
16
102
}
330
16
100
AcDbVisualStyle
  2
2dWireframe
 70
4
 90
0
 40
0.6
 62
7
290
0
291
0
  0
VISUALSTYLE
  5
5B
102
{ACAD_REACTORS
330
16
102
}
330
16
100
AcDbVisualStyle
  2
Basic
 70
7
 90
1
 40
0.6
 62
7
290
0
291
1
  0
VISUALSTYLE
  5
5C
102
{ACAD_REACTORS
330
16
102
}
330
16
100
AcDbVisualStyle
  2
Brighten
 70
12
 90
2
 40
0.6
 62
7
290
0
291
1
  0
VISUALSTYLE
  5
5D
102
{ACAD_REACTORS
330
16
102
}
330
16
100
AcDbVisualStyle
  2
ColorChange
 70
16
 90
2
 40
0.6
 62
8
290
0
291
1
  0
VISUALSTYLE
  5
5E
102
{ACAD_REACTORS
330
16
102
}
330
16
100
AcDbVisualStyle
  2
Conceptual
 70
9
 90
3
 40
0.6
 62
7
290
0
291
0
  0
VISUALSTYLE
  5
5F
102
{ACAD_REACTORS
330
16
102
}
330
16
100
AcDbVisualStyle
  2
Dim
 70
11
 90
2
 40
0.6
 62
7
290
0
291
1
  0
VISUALSTYLE
  5
60
102
{ACAD_REACTORS
330
16
102
}
330
16
100
AcDbVisualStyle
  2
EdgeColorOff
 70
22
 90
2
 40
0.6
 62
7
290
0
291
1
  0
VISUALSTYLE
  5
61
102
{ACAD_REACTORS
330
16
102
}
330
16
100
AcDbVisualStyle
  2
Facepattern
 70
15
 90
2
 40
0.6
 62
7
290
0
291
1
  0
VISUALSTYLE
  5
62
102
{ACAD_REACTORS
330
16
102
}
330
16
100
AcDbVisualStyle
  2
Flat
 70
0
 90
2
 40
0.6
 62
7
290
0
291
1
  0
VISUALSTYLE
  5
63
102
{ACAD_REACTORS
330
16
102
}
330
16
100
AcDbVisualStyle
  2
FlatWithEdges
 70
1
 90
2
 40
0.6
 62
7
290
0
291
1
  0
VISUALSTYLE
  5
64
102
{ACAD_REACTORS
330
16
102
}
330
16
100
AcDbVisualStyle
  2
Gouraud
 70
2
 90
2
 40
0.6
 62
7
290
0
291
1
  0
VISUALSTYLE
  5
65
102
{ACAD_REACTORS
330
16
102
}
330
16
100
AcDbVisualStyle
  2
GouraudWithEdges
 70
3
 90
2
 40
0.6
 62
7
290
0
291
1
  0
VISUALSTYLE
  5
66
102
{ACAD_REACTORS
330
16
102
}
330
16
100
AcDbVisualStyle
  2
Hidden
 70
6
 90
1
 40
0.6
 62
7
290
0
291
0
  0
VISUALSTYLE
  5
67
102
{ACAD_REACTORS
330
16
102
}
330
16
100
AcDbVisualStyle
  2
JitterOff
 70
20
 90
2
 40
0.6
 62
7
290
0
291
1
  0
VISUALSTYLE
  5
68
102
{ACAD_REACTORS
330
16
102
}
330
16
100
AcDbVisualStyle
  2
Linepattern
 70
14
 90
2
 40
0.6
 62
7
290
0
291
1
  0
VISUALSTYLE
  5
69
102
{ACAD_REACTORS
330
16
102
}
330
16
100
AcDbVisualStyle
  2
Modeling
 70
10
 90
2
 40
0.6
 62
7
290
0
291
0
  0
VISUALSTYLE
  5
6A
102
{ACAD_REACTORS
330
16
102
}
330
16
100
AcDbVisualStyle
  2
OverhangOff
 70
21
 90
2
 40
0.6
 62
7
290
0
291
1
  0
VISUALSTYLE
  5
6B
102
{ACAD_REACTORS
330
16
102
}
330
16
100
AcDbVisualStyle
  2
Realistic
 70
8
 90
2
 40
0.6
 62
7
290
0
291
0
  0
VISUALSTYLE
  5
6C
102
{ACAD_REACTORS
330
16
102
}
330
16
100
AcDbVisualStyle
  2
Shaded
 70
27
 90
2
 40
0.6
 62
7
290
0
291
0
  0
VISUALSTYLE
  5
6D
102
{ACAD_REACTORS
330
16
102
}
330
16
100
AcDbVisualStyle
  2
Shaded with edges
 70
26
 90
2
 40
0.6
 62
7
290
0
291
0
  0
VISUALSTYLE
  5
6E
102
{ACAD_REACTORS
330
16
102
}
330
16
100
AcDbVisualStyle
  2
Shades of Gray
 70
23
 90
2
 40
0.6
 62
7
290
0
291
0
  0
VISUALSTYLE
  5
6F
102
{ACAD_REACTORS
330
16
102
}
330
16
100
AcDbVisualStyle
  2
Sketchy
 70
24
 90
1
 40
0.6
 62
7
290
0
291
0
  0
VISUALSTYLE
  5
70
102
{ACAD_REACTORS
330
16
102
}
330
16
100
AcDbVisualStyle
  2
Thicken
 70
13
 90
2
 40
0.6
 62
7
290
0
291
1
  0
VISUALSTYLE
  5
71
102
{ACAD_REACTORS
330
16
102
}
330
16
100
AcDbVisualStyle
  2
Wireframe
 70
5
 90
0
 40
0.6
 62
7
290
0
291
0
  0
VISUALSTYLE
  5
72
102
{ACAD_REACTORS
330
16
102
}
330
16
100
AcDbVisualStyle
  2
X-Ray
 70
25
 90
2
 40
0.5
 62
7
290
0
291
0
  0
DICTIONARYVAR
  5
B8
330
2D
100
DictionaryVariables
280
0
  1
1.3.0 @ 2026-01-06T17:07:11.510869+00:00
  0
ENDSEC
  0
EOF
