<?xml version="1.0" encoding="utf-8" standalone="no"?>
<!DOCTYPE svg PUBLIC "-//W3C//DTD SVG 1.1//EN"
  "http://www.w3.org/Graphics/SVG/1.1/DTD/svg11.dtd">
<svg xmlns:xlink="http://www.w3.org/1999/xlink" width="1152pt" height="323.566754pt" viewBox="0 0 1152 323.566754" xmlns="http://www.w3.org/2000/svg" version="1.1">
 <metadata>
  <rdf:RDF xmlns:dc="http://purl.org/dc/elements/1.1/" xmlns:cc="http://creativecommons.org/ns#" xmlns:rdf="http://www.w3.org/1999/02/22-rdf-syntax-ns#">
   <cc:Work>
    <dc:type rdf:resource="http://purl.org/dc/dcmitype/StillImage"/>
    <dc:date>2026-01-07T02:07:10.819870</dc:date>
    <dc:format>image/svg+xml</dc:format>
    <dc:creator>
     <cc:Agent>
      <dc:title>Matplotlib v3.10.1, https://matplotlib.org/</dc:title>
     </cc:Agent>
    </dc:creator>
   </cc:Work>
  </rdf:RDF>
 </metadata>
 <defs>
  <style type="text/css">*{stroke-linejoin: round; stroke-linecap: butt}</style>
 </defs>
 <g id="figure_1">
  <g id="patch_1">
   <path d="M 0 323.566754 
L 1152 323.566754 
L 1152 0 
L 0 0 
z
" style="fill: #ffffff"/>
  </g>
  <g id="axes_1">
   <g id="patch_2">
    <path d="M 0 323.566754 
L 1152 323.566754 
L 1152 0 
L 0 0 
z
" style="fill: #212830"/>
   </g>
   <g id="patch_3">
    <path d="M 1099.636364 42.300202 
L 1078.835327 39.296825 
L 1057.168623 36.34078 
L 1035.486555 33.561024 
L 1013.797916 30.967499 
L 992.101749 28.569001 
L 970.393326 26.366278 
L 948.676458 24.352968 
L 926.965124 22.522555 
L 905.273043 20.877067 
L 883.608698 19.422005 
L 861.979461 18.162605 
L 840.390061 17.102014 
L 818.841361 16.240181 
L 797.336859 15.571197 
L 775.893723 15.089105 
L 754.533605 14.797191 
L 733.264777 14.70758 
L 712.08457 14.826549 
L 690.994846 15.149237 
L 670.008055 15.667542 
L 649.138953 16.376764 
L 628.407547 17.274688 
L 607.8401 18.36743 
L 587.450338 19.671484 
L 567.231586 21.199036 
L 547.177004 22.941582 
L 527.302865 24.878493 
L 507.643849 26.996947 
L 488.236425 29.301479 
L 469.111114 31.805871 
L 450.281194 34.525182 
L 431.742921 37.459123 
L 413.504267 40.580351 
L 395.611872 43.851437 
L 378.131498 47.257267 
L 361.113762 50.808521 
L 344.578612 54.520271 
L 328.52134 58.387778 
L 312.941116 62.372382 
L 297.874537 66.415486 
L 283.385004 70.483235 
L 269.509056 74.585207 
L 256.232695 78.738458 
L 243.521066 82.93268 
L 231.351279 87.138084 
L 219.714038 91.329428 
L 208.604861 95.493036 
L 198.016404 99.62393 
L 187.935988 103.725769 
L 178.340538 107.811262 
L 169.197342 111.891876 
L 160.47359 115.968869 
L 152.145702 120.033185 
L 144.203656 124.07441 
L 136.643246 128.092058 
L 129.455467 132.095325 
L 122.623411 136.092332 
L 116.131081 140.077218 
L 109.970529 144.038191 
L 104.135509 147.969064 
L 98.616001 151.872374 
L 93.404396 155.748122 
L 88.50401 159.595971 
L 83.924742 163.417038 
L 79.673335 167.21806 
L 75.749602 171.003181 
L 72.147665 174.771575 
L 68.850779 178.527882 
L 65.836293 182.269574 
L 63.095285 185.969906 
L 60.649036 189.582682 
L 58.530375 193.089514 
L 56.750191 196.521413 
L 55.291581 199.919589 
L 54.131273 203.285245 
L 53.257217 206.580464 
L 52.667665 209.820647 
L 52.363636 213.237637 
L 52.372092 216.142322 
L 52.682755 219.182325 
L 53.32499 222.126501 
L 54.335645 225.006258 
L 55.744386 227.859224 
L 57.548629 230.693511 
L 59.721672 233.48594 
L 62.253939 236.210722 
L 65.167009 238.858984 
L 68.487338 241.434188 
L 72.217092 243.937825 
L 76.346793 246.365439 
L 80.877552 248.714687 
L 85.821667 250.992453 
L 91.182266 253.210335 
L 96.955151 255.375389 
L 103.137156 257.488448 
L 109.73326 259.547949 
L 116.750934 261.555002 
L 124.201028 263.512829 
L 132.099732 265.427189 
L 140.461915 267.306476 
L 149.300979 269.154492 
L 158.636803 270.968169 
L 168.504052 272.744263 
L 178.941136 274.487971 
L 189.981702 276.207622 
L 201.657658 277.905569 
L 214.011467 279.578001 
L 227.091425 281.223341 
L 240.939442 282.845433 
L 255.585809 284.444798 
L 271.054151 286.012815 
L 287.360242 287.538985 
L 304.502228 289.01738 
L 322.452311 290.441425 
L 341.166002 291.79804 
L 360.594054 293.077801 
L 380.673661 294.280328 
L 401.33102 295.402156 
L 444.147196 297.39023 
L 462.660359 298.123028 
L 462.576171 300.249916 
L 488.562772 301.179814 
L 534.491852 302.550988 
L 581.383013 303.726989 
L 629.005161 304.604054 
L 751.359694 306.31171 
L 825.993397 306.99165 
L 951.950902 308.004767 
L 1027.563506 308.421239 
L 1099.636364 308.859174 
L 1099.636364 42.300202 
L 1099.636364 42.300202 
" clip-path="url(#pc9e32b14ad)" style="fill: none; stroke: #ff0000; stroke-width: 0.72; stroke-linejoin: miter"/>
   </g>
   <g id="patch_4">
    <path d="M 639.629002 244.737559 
L 650.271772 244.737559 
L 650.271772 255.380328 
L 639.629002 255.380328 
L 639.629002 266.023098 
L 650.271772 266.023098 
" clip-path="url(#pc9e32b14ad)" style="fill: none; stroke: #ff0000; stroke-width: 0.72; stroke-linejoin: miter"/>
   </g>
   <g id="patch_5">
    <path d="M 666.235926 244.737559 
L 655.593156 244.737559 
L 655.593156 255.380328 
L 666.235926 255.380328 
L 666.235926 266.023098 
L 655.593156 266.023098 
" clip-path="url(#pc9e32b14ad)" style="fill: none; stroke: #ff0000; stroke-width: 0.72; stroke-linejoin: miter"/>
   </g>
   <g id="patch_6">
    <path d="M 632.633444 25.576357 
L 624.131224 26.028154 
L 623.679426 17.525934 
L 632.181646 17.074137 
L 632.633444 25.576357 
" clip-path="url(#pc9e32b14ad)" style="fill: none; stroke: #ff0000; stroke-width: 0.72; stroke-linejoin: miter"/>
   </g>
   <g id="patch_7">
    <path d="M 275.393399 81.66541 
L 267.267586 84.207658 
L 264.725337 76.081845 
L 272.85115 73.539597 
L 275.393399 81.66541 
" clip-path="url(#pc9e32b14ad)" style="fill: none; stroke: #ff0000; stroke-width: 0.72; stroke-linejoin: miter"/>
   </g>
   <g id="patch_8">
    <path d="M 94.59147 168.378055 
L 91.323685 171.106524 
L 84.502512 162.93706 
L 87.770297 160.208591 
L 94.59147 168.378055 
" clip-path="url(#pc9e32b14ad)" style="fill: none; stroke: #ff0000; stroke-width: 0.72; stroke-linejoin: miter"/>
   </g>
   <g id="patch_9">
    <path d="M 73.993314 232.312695 
L 77.530903 234.680908 
L 71.610372 243.52488 
L 68.072783 241.156667 
L 73.993314 232.312695 
" clip-path="url(#pc9e32b14ad)" style="fill: none; stroke: #ff0000; stroke-width: 0.72; stroke-linejoin: miter"/>
   </g>
   <g id="patch_10">
    <path d="M 354.626485 284.152001 
L 363.12229 284.71161 
L 362.562681 293.207415 
L 354.066876 292.647806 
L 354.626485 284.152001 
" clip-path="url(#pc9e32b14ad)" style="fill: none; stroke: #ff0000; stroke-width: 0.72; stroke-linejoin: miter"/>
   </g>
   <g id="patch_11">
    <path d="M 964.80659 161.47597 
L 964.704083 156.293914 
L 964.396743 151.12101 
L 963.885113 145.966393 
L 963.170097 140.839168 
L 962.252957 135.74839 
L 961.135313 130.703048 
L 959.819139 125.712055 
L 958.306759 120.784224 
L 956.600845 115.928258 
L 954.704409 111.152734 
L 952.6208 106.466085 
L 950.353699 101.876589 
L 947.907109 97.39235 
L 945.285351 93.02129 
L 942.493056 88.771126 
L 939.535154 84.649366 
L 936.416871 80.663289 
L 933.143712 76.819935 
L 929.721459 73.126091 
L 926.156155 69.588281 
L 922.454098 66.212754 
L 918.621826 63.005469 
L 914.666106 59.972093 
L 910.593925 57.117982 
L 906.412475 54.448177 
L 902.12914 51.967393 
L 897.751485 49.680012 
L 893.287243 47.590072 
L 888.744296 45.701265 
L 884.130668 44.016927 
L 879.454507 42.540033 
L 874.724072 41.27319 
L 869.947717 40.218637 
L 865.133878 39.378235 
L 860.291057 38.753469 
L 855.427805 38.345443 
L 850.552713 38.154876 
L 845.674389 38.182106 
L 840.801451 38.427084 
L 835.942502 38.889378 
L 831.106126 39.568171 
L 826.300864 40.462265 
L 821.535201 41.57008 
L 816.817555 42.88966 
L 812.156257 44.418674 
L 807.55954 46.154422 
L 803.035522 48.093839 
L 798.592193 50.233499 
L 794.2374 52.569623 
L 789.978834 55.098087 
L 785.824016 57.814423 
L 781.780284 60.713835 
L 777.854779 63.791203 
L 774.054435 67.041091 
L 770.385963 70.457759 
L 766.855841 74.035174 
L 763.470305 77.767018 
L 760.235334 81.646699 
L 757.15664 85.667366 
L 754.239662 89.821919 
L 751.48955 94.103019 
L 748.911162 98.503106 
L 746.509052 103.014408 
L 744.287461 107.628959 
L 742.250313 112.338609 
L 740.401207 117.135041 
L 738.743407 122.009782 
L 737.279842 126.954224 
L 736.013096 131.959635 
L 734.945407 137.017174 
L 734.078659 142.11791 
L 733.414385 147.252834 
L 732.953757 152.412878 
L 732.697589 157.588927 
L 732.646333 162.771842 
L 732.800079 167.952468 
L 733.158556 173.121656 
L 733.721132 178.270276 
L 734.486811 183.389236 
L 735.454243 188.469496 
L 736.621718 193.502082 
L 737.987175 198.478107 
L 739.548202 203.388783 
L 741.302043 208.225437 
L 743.245599 212.979527 
L 745.375438 217.642658 
L 747.6878 222.206592 
L 750.178599 226.663271 
L 752.843437 231.004823 
L 755.677608 235.22358 
L 758.676106 239.312093 
L 761.833635 243.26314 
L 765.14462 247.069743 
L 768.603213 250.725179 
L 772.203304 254.222993 
L 775.938537 257.557007 
L 779.802315 260.721334 
L 783.787813 263.710384 
L 787.887993 266.518878 
L 792.095614 269.141857 
L 796.403245 271.574688 
L 800.803278 273.813074 
L 805.287942 275.853063 
L 809.849316 277.691051 
L 814.479346 279.323793 
L 819.169853 280.748405 
L 823.912554 281.96237 
L 828.699074 282.963545 
L 833.520958 283.750162 
L 838.369691 284.320832 
L 843.236709 284.674546 
L 848.113416 284.81068 
L 852.991201 284.728994 
L 857.861448 284.429631 
L 862.715557 283.913121 
L 867.544954 283.180375 
L 872.341109 282.232689 
L 877.095554 281.071734 
L 881.79989 279.699563 
L 886.44581 278.118598 
L 891.025109 276.331631 
L 895.529698 274.341818 
L 899.951623 272.152674 
L 904.283074 269.768065 
L 908.516401 267.192201 
L 912.644128 264.429633 
L 916.658965 261.48524 
L 920.553821 258.364221 
L 924.321818 255.072088 
L 927.956301 251.614656 
L 931.45085 247.99803 
L 934.799296 244.228599 
L 937.995723 240.313019 
L 941.034486 236.258205 
L 943.910219 232.071319 
L 946.617844 227.759755 
L 949.152577 223.331128 
L 951.509943 218.793259 
L 953.685779 214.154162 
L 955.67624 209.422031 
L 957.477813 204.605222 
L 959.087316 199.712244 
L 960.501905 194.751736 
L 961.719082 189.73246 
L 962.736699 184.663281 
L 963.552958 179.553151 
L 964.166416 174.411095 
L 964.575991 169.246194 
L 964.78096 164.067571 
L 964.80659 161.47597 
L 964.80659 161.47597 
" clip-path="url(#pc9e32b14ad)" style="fill: none; stroke: #ff0000; stroke-width: 0.72; stroke-linejoin: miter"/>
   </g>
   <g id="patch_12">
    <path d="M 396.538973 150.833201 
L 407.181743 161.47597 
L 396.538973 172.11874 
L 385.896204 161.47597 
L 396.538973 150.833201 
" clip-path="url(#pc9e32b14ad)" style="fill: none; stroke: #ff0000; stroke-width: 0.72; stroke-linejoin: miter"/>
   </g>
   <g id="patch_13">
    <path d="M 841.217579 150.833201 
L 851.860349 161.47597 
L 841.217579 172.11874 
L 830.57481 161.47597 
L 841.217579 150.833201 
" clip-path="url(#pc9e32b14ad)" style="fill: none; stroke: #ff0000; stroke-width: 0.72; stroke-linejoin: miter"/>
   </g>
   <g id="patch_14">
    <path d="M 477.905739 226.815906 
L 487.840174 238.122722 
L 476.533358 248.057157 
L 466.598923 236.750341 
L 477.905739 226.815906 
" clip-path="url(#pc9e32b14ad)" style="fill: none; stroke: #ff0000; stroke-width: 0.72; stroke-linejoin: miter"/>
   </g>
   <g id="patch_15">
    <path d="M 991.357636 259.989646 
L 1001.292071 271.296462 
L 989.985255 281.230896 
L 980.05082 269.92408 
L 991.357636 259.989646 
" clip-path="url(#pc9e32b14ad)" style="fill: none; stroke: #ff0000; stroke-width: 0.72; stroke-linejoin: miter"/>
   </g>
   <g id="patch_16">
    <path d="M 518.797404 201.048486 
L 529.440173 190.405717 
L 540.082943 201.048486 
L 529.440173 211.691256 
L 518.797404 201.048486 
" clip-path="url(#pc9e32b14ad)" style="fill: none; stroke: #ff0000; stroke-width: 0.72; stroke-linejoin: miter"/>
   </g>
   <g id="patch_17">
    <path d="M 518.797404 126.028782 
L 529.440173 115.386012 
L 540.082943 126.028782 
L 529.440173 136.671551 
L 518.797404 126.028782 
" clip-path="url(#pc9e32b14ad)" style="fill: none; stroke: #ff0000; stroke-width: 0.72; stroke-linejoin: miter"/>
   </g>
   <g id="line2d_1">
    <path d="M 86.250969 161.47597 
L 1099.636364 161.47597 
" clip-path="url(#pc9e32b14ad)" style="fill: none; stroke: #ffffff; stroke-width: 0.72; stroke-linecap: square"/>
   </g>
   <g id="line2d_2">
    <path d="M 383.76765 161.47597 
L 409.310296 161.47597 
" clip-path="url(#pc9e32b14ad)" style="fill: none; stroke: #ffffff; stroke-width: 0.72; stroke-linecap: square"/>
   </g>
   <g id="line2d_3">
    <path d="M 828.446256 161.47597 
L 853.988903 161.47597 
" clip-path="url(#pc9e32b14ad)" style="fill: none; stroke: #ffffff; stroke-width: 0.72; stroke-linecap: square"/>
   </g>
   <g id="line2d_4">
    <path d="M 52.651218 210.005492 
L 1099.636364 277.650412 
" clip-path="url(#pc9e32b14ad)" style="fill: none; stroke: #ffffff; stroke-width: 0.72; stroke-linecap: square"/>
   </g>
   <g id="line2d_5">
    <path d="M 464.474798 236.613102 
L 489.964299 238.25996 
" clip-path="url(#pc9e32b14ad)" style="fill: none; stroke: #ffffff; stroke-width: 0.72; stroke-linecap: square"/>
   </g>
   <g id="line2d_6">
    <path d="M 977.926695 269.786842 
L 1003.416196 271.4337 
" clip-path="url(#pc9e32b14ad)" style="fill: none; stroke: #ffffff; stroke-width: 0.72; stroke-linecap: square"/>
   </g>
   <g id="line2d_7">
    <path d="M 848.723257 38.139559 
L 848.723257 36.011005 
" clip-path="url(#pc9e32b14ad)" style="fill: none; stroke: #ff0000; stroke-width: 0.72; stroke-linecap: square"/>
   </g>
   <g id="line2d_8">
    <path d="M 848.723257 284.812382 
L 848.723257 286.940936 
" clip-path="url(#pc9e32b14ad)" style="fill: none; stroke: #ff0000; stroke-width: 0.72; stroke-linecap: square"/>
   </g>
   <g id="line2d_9">
    <path d="M 964.80659 161.47597 
L 966.935143 161.47597 
" clip-path="url(#pc9e32b14ad)" style="fill: none; stroke: #ff0000; stroke-width: 0.72; stroke-linecap: square"/>
   </g>
   <g id="line2d_10">
    <path d="M 732.639925 161.47597 
L 730.511371 161.47597 
" clip-path="url(#pc9e32b14ad)" style="fill: none; stroke: #ff0000; stroke-width: 0.72; stroke-linecap: square"/>
   </g>
   <g id="line2d_11">
    <path d="M 529.440173 302.407075 
L 529.440173 24.670193 
" clip-path="url(#pc9e32b14ad)" style="fill: none; stroke: #ffffff; stroke-width: 0.72; stroke-linecap: square"/>
   </g>
   <g id="line2d_12">
    <path d="M 529.440173 213.81981 
L 529.440173 188.277163 
" clip-path="url(#pc9e32b14ad)" style="fill: none; stroke: #ffffff; stroke-width: 0.72; stroke-linecap: square"/>
   </g>
   <g id="line2d_13">
    <path d="M 529.440173 138.800105 
L 529.440173 113.257459 
" clip-path="url(#pc9e32b14ad)" style="fill: none; stroke: #ffffff; stroke-width: 0.72; stroke-linecap: square"/>
   </g>
  </g>
 </g>
 <defs>
  <clipPath id="pc9e32b14ad">
   <rect x="0" y="0" width="1152" height="323.566754"/>
  </clipPath>
 </defs>
</svg>
