<?xml version="1.0" encoding="utf-8" standalone="no"?>
<!DOCTYPE svg PUBLIC "-//W3C//DTD SVG 1.1//EN"
  "http://www.w3.org/Graphics/SVG/1.1/DTD/svg11.dtd">
<svg xmlns:xlink="http://www.w3.org/1999/xlink" width="1152pt" height="321.416462pt" viewBox="0 0 1152 321.416462" xmlns="http://www.w3.org/2000/svg" version="1.1">
 <metadata>
  <rdf:RDF xmlns:dc="http://purl.org/dc/elements/1.1/" xmlns:cc="http://creativecommons.org/ns#" xmlns:rdf="http://www.w3.org/1999/02/22-rdf-syntax-ns#">
   <cc:Work>
    <dc:type rdf:resource="http://purl.org/dc/dcmitype/StillImage"/>
    <dc:date>2026-01-07T02:07:15.594907</dc:date>
    <dc:format>image/svg+xml</dc:format>
    <dc:creator>
     <cc:Agent>
      <dc:title>Matplotlib v3.10.1, https://matplotlib.org/</dc:title>
     </cc:Agent>
    </dc:creator>
   </cc:Work>
  </rdf:RDF>
 </metadata>
 <defs>
  <style type="text/css">*{stroke-linejoin: round; stroke-linecap: butt}</style>
 </defs>
 <g id="figure_1">
  <g id="patch_1">
   <path d="M 0 321.416462 
L 1152 321.416462 
L 1152 0 
L 0 0 
z
" style="fill: #ffffff"/>
  </g>
  <g id="axes_1">
   <g id="patch_2">
    <path d="M 0 321.416462 
L 1152 321.416462 
L 1152 0 
L 0 0 
z
" style="fill: #212830"/>
   </g>
   <g id="patch_3">
    <path d="M 1099.636364 40.957549 
L 1080.444884 38.293741 
L 1059.503371 35.563831 
L 1038.524498 33.002474 
L 1017.512355 30.604962 
L 996.476463 28.371926 
L 975.419294 26.306229 
L 954.338173 24.407474 
L 933.238648 22.671434 
L 912.135455 21.098225 
L 891.037957 19.692415 
L 869.946236 18.456736 
L 848.8641 17.388498 
L 827.805264 16.488142 
L 806.780351 15.759888 
L 785.789149 15.208572 
L 764.832985 14.832598 
L 743.92461 14.631465 
L 723.075176 14.609839 
L 702.286527 14.772917 
L 681.559221 15.120529 
L 660.90629 15.651732 
L 640.341408 16.370901 
L 619.866811 17.284352 
L 599.485792 18.392085 
L 579.21284 19.692969 
L 559.064196 21.191954 
L 539.043279 22.895717 
L 519.156842 24.802939 
L 499.424986 26.912748 
L 479.863363 29.231622 
L 460.477822 31.76411 
L 441.28288 34.506902 
L 422.30292 37.460494 
L 403.553698 40.629755 
L 385.048759 44.011157 
L 366.82645 47.590863 
L 348.932902 51.366743 
L 331.396195 55.341107 
L 314.247393 59.499662 
L 297.542305 63.822085 
L 281.330934 68.301275 
L 265.64811 72.923413 
L 250.541528 77.655082 
L 236.069731 82.466624 
L 222.272421 87.339655 
L 209.175669 92.241988 
L 196.8096 97.13284 
L 185.194528 101.985707 
L 174.326903 106.781651 
L 164.191573 111.493405 
L 154.771491 116.096554 
L 146.04048 120.582524 
L 137.959462 124.951045 
L 130.483108 129.197701 
L 123.569554 133.315359 
L 117.180636 137.305152 
L 111.276933 141.176072 
L 105.819079 144.937154 
L 100.769307 148.594235 
L 96.096617 152.149498 
L 91.775637 155.609904 
L 87.783001 158.987859 
L 84.09043 162.299797 
L 80.666611 165.551196 
L 74.508811 171.852307 
L 69.170984 177.81216 
L 66.810973 180.663565 
L 64.663731 183.44995 
L 62.727765 186.194029 
L 60.991404 188.917441 
L 59.437918 191.625591 
L 58.048876 194.314609 
L 56.811628 196.968088 
L 55.720716 199.573523 
L 54.777935 202.12033 
L 53.988736 204.607688 
L 53.357602 207.042981 
L 52.8851 209.433767 
L 52.567199 211.785969 
L 52.387824 214.299329 
L 52.363636 216.418041 
L 52.479098 218.748345 
L 52.756745 221.069571 
L 53.216963 223.371159 
L 53.885222 225.654382 
L 54.783268 227.924027 
L 55.919365 230.179554 
L 57.286555 232.41361 
L 58.869407 234.613188 
L 60.657511 236.765866 
L 62.649831 238.861673 
L 64.855683 240.896062 
L 67.28439 242.868896 
L 69.941695 244.784707 
L 72.824687 246.64966 
L 75.931069 248.47051 
L 79.258823 250.250802 
L 82.817905 251.991922 
L 86.622918 253.694414 
L 90.697355 255.360316 
L 95.064576 256.996155 
L 99.748134 258.611992 
L 104.773943 260.218907 
L 115.971085 263.440585 
L 122.223686 265.063089 
L 128.981442 266.696728 
L 136.302763 268.3465 
L 144.251786 270.017249 
L 152.8966 271.710906 
L 162.313756 273.424379 
L 172.585494 275.152427 
L 183.790942 276.892728 
L 195.996495 278.641347 
L 209.252371 280.385089 
L 223.591523 282.104977 
L 239.020584 283.786521 
L 255.503612 285.417613 
L 272.972423 286.977067 
L 291.34854 288.447025 
L 310.53434 289.822376 
L 330.416129 291.095762 
L 350.901462 292.258458 
L 371.91172 293.314789 
L 393.367072 294.269687 
L 437.466116 295.884091 
L 462.419767 296.675978 
L 462.343465 299.178138 
L 505.515235 300.434736 
L 551.451857 301.425529 
L 668.66133 303.355546 
L 715.724729 303.89402 
L 906.010189 305.5558 
L 1000.840417 306.215896 
L 1099.636364 306.806623 
L 1099.636364 40.957549 
L 1099.636364 40.957549 
" clip-path="url(#pfd1c94b7af)" style="fill: none; stroke: #ff0000; stroke-width: 0.72; stroke-linejoin: miter"/>
   </g>
   <g id="patch_4">
    <path d="M 639.445405 239.741563 
L 651.962022 239.741563 
L 651.962022 252.25818 
L 639.445405 252.25818 
L 651.962022 252.25818 
L 651.962022 264.774798 
L 639.445405 264.774798 
" clip-path="url(#pfd1c94b7af)" style="fill: none; stroke: #ff0000; stroke-width: 0.72; stroke-linejoin: miter"/>
   </g>
   <g id="patch_5">
    <path d="M 670.736948 252.25818 
L 665.730301 252.25818 
" clip-path="url(#pfd1c94b7af)" style="fill: none; stroke: #ff0000; stroke-width: 0.72; stroke-linejoin: miter"/>
   </g>
   <g id="patch_6">
    <path d="M 663.226978 252.25818 
L 658.220331 252.25818 
L 658.220331 239.741563 
L 663.226978 239.741563 
" clip-path="url(#pfd1c94b7af)" style="fill: none; stroke: #ff0000; stroke-width: 0.72; stroke-linejoin: miter"/>
   </g>
   <g id="patch_7">
    <path d="M 665.730301 239.741563 
L 670.736948 239.741563 
L 670.736948 264.774798 
L 665.730301 264.774798 
" clip-path="url(#pfd1c94b7af)" style="fill: none; stroke: #ff0000; stroke-width: 0.72; stroke-linejoin: miter"/>
   </g>
   <g id="patch_8">
    <path d="M 663.226978 264.774798 
L 658.220331 264.774798 
" clip-path="url(#pfd1c94b7af)" style="fill: none; stroke: #ff0000; stroke-width: 0.72; stroke-linejoin: miter"/>
   </g>
   <g id="patch_9">
    <path d="M 633.122256 26.716296 
L 623.118916 27.16267 
L 622.672542 17.159331 
L 632.675881 16.712956 
L 633.122256 26.716296 
" clip-path="url(#pfd1c94b7af)" style="fill: none; stroke: #ff0000; stroke-width: 0.72; stroke-linejoin: miter"/>
   </g>
   <g id="patch_10">
    <path d="M 276.312012 80.219897 
L 266.70728 83.051006 
L 263.876171 73.446275 
L 273.480903 70.615165 
L 276.312012 80.219897 
" clip-path="url(#pfd1c94b7af)" style="fill: none; stroke: #ff0000; stroke-width: 0.72; stroke-linejoin: miter"/>
   </g>
   <g id="patch_11">
    <path d="M 96.444871 168.032309 
L 92.718778 171.376371 
L 84.358624 162.06114 
L 88.084717 158.717078 
L 96.444871 168.032309 
" clip-path="url(#pfd1c94b7af)" style="fill: none; stroke: #ff0000; stroke-width: 0.72; stroke-linejoin: miter"/>
   </g>
   <g id="patch_12">
    <path d="M 74.908012 232.934122 
L 78.973432 235.856257 
L 71.668095 246.019807 
L 67.602675 243.097672 
L 74.908012 232.934122 
" clip-path="url(#pfd1c94b7af)" style="fill: none; stroke: #ff0000; stroke-width: 0.72; stroke-linejoin: miter"/>
   </g>
   <g id="patch_13">
    <path d="M 353.452861 282.360787 
L 363.453525 282.86356 
L 362.950751 292.864224 
L 352.950088 292.36145 
L 353.452861 282.360787 
" clip-path="url(#pfd1c94b7af)" style="fill: none; stroke: #ff0000; stroke-width: 0.72; stroke-linejoin: miter"/>
   </g>
   <g id="patch_14">
    <path d="M 959.848898 160.185943 
L 959.750681 155.225821 
L 959.456201 150.274459 
L 958.965981 145.340602 
L 958.280885 140.432962 
L 957.402123 135.560209 
L 956.331247 130.730946 
L 955.070149 125.953704 
L 953.621055 121.236919 
L 951.986525 116.588922 
L 950.169446 112.017921 
L 948.173027 107.53199 
L 946.000794 103.13905 
L 943.656582 98.84686 
L 941.144533 94.663 
L 938.469082 90.594861 
L 935.634955 86.649625 
L 932.647157 82.834261 
L 929.510964 79.155508 
L 926.231917 75.619862 
L 922.815805 72.233567 
L 919.268662 69.002605 
L 915.596752 65.93268 
L 911.806561 63.029216 
L 907.904781 60.297339 
L 903.898305 57.741875 
L 899.794208 55.367337 
L 895.599738 53.177918 
L 891.322303 51.177484 
L 886.969457 49.36957 
L 882.548888 47.757368 
L 878.068403 46.343725 
L 873.535915 45.131139 
L 868.959429 44.121749 
L 864.347026 43.31734 
L 859.706854 42.719331 
L 855.047107 42.328779 
L 850.376015 42.146374 
L 845.701826 42.172438 
L 841.032797 42.406924 
L 836.377174 42.849419 
L 831.743177 43.499141 
L 827.138993 44.354943 
L 822.572751 45.415313 
L 818.052516 46.678379 
L 813.586272 48.141909 
L 809.181907 49.80332 
L 804.847198 51.659676 
L 800.589801 53.7077 
L 796.417236 55.943775 
L 792.336871 58.36395 
L 788.355913 60.963953 
L 784.481392 63.739191 
L 780.720151 66.684763 
L 777.078834 69.795466 
L 773.56387 73.065808 
L 770.181468 76.490011 
L 766.937601 80.06203 
L 763.837998 83.775554 
L 760.888133 87.624027 
L 758.093217 91.60065 
L 755.458184 95.698402 
L 752.98769 99.910044 
L 750.686097 104.228139 
L 748.557469 108.645061 
L 746.605567 113.153009 
L 744.833837 117.744021 
L 743.245408 122.40999 
L 741.843086 127.142675 
L 740.629348 131.933717 
L 739.606336 136.774655 
L 738.775859 141.656939 
L 738.139381 146.571948 
L 737.698028 151.511 
L 737.45258 156.465373 
L 737.403468 161.426316 
L 737.550781 166.385069 
L 737.894257 171.332874 
L 738.433292 176.260993 
L 739.166931 181.160721 
L 740.09388 186.023406 
L 741.212502 190.840459 
L 742.520821 195.603374 
L 744.016527 200.303739 
L 745.696977 204.933251 
L 747.559204 209.483736 
L 749.59992 213.947156 
L 751.81552 218.315629 
L 754.20209 222.58144 
L 756.755418 226.737055 
L 759.470991 230.775134 
L 762.344016 234.688546 
L 765.369418 238.470379 
L 768.541853 242.113955 
L 771.85572 245.612839 
L 775.305164 248.96085 
L 778.884095 252.152077 
L 782.586192 255.180884 
L 786.404915 258.04192 
L 790.333522 260.730134 
L 794.365074 263.240778 
L 798.49245 265.569417 
L 802.708362 267.711939 
L 807.005363 269.66456 
L 811.375866 271.423832 
L 815.81215 272.986648 
L 820.306381 274.350247 
L 824.850623 275.512221 
L 829.436849 276.470519 
L 834.056959 277.223447 
L 838.702795 277.769676 
L 843.366151 278.108242 
L 848.038791 278.238546 
L 852.712464 278.160358 
L 857.378914 277.873816 
L 862.0299 277.379426 
L 866.657209 276.678062 
L 871.252668 275.770963 
L 875.808161 274.659729 
L 880.315643 273.346324 
L 884.767153 271.833068 
L 889.154829 270.122632 
L 893.470922 268.218038 
L 897.70781 266.122649 
L 901.85801 263.840166 
L 905.914192 261.374621 
L 909.869193 258.730367 
L 913.716028 255.912074 
L 917.447902 252.92472 
L 921.058226 249.773581 
L 924.540622 246.464221 
L 927.888941 243.002487 
L 931.09727 239.39449 
L 934.159941 235.646604 
L 937.071546 231.765448 
L 939.826944 227.757875 
L 942.421267 223.630965 
L 944.849933 219.392004 
L 947.108655 215.04848 
L 949.193441 210.608064 
L 951.100611 206.078598 
L 952.826797 201.468081 
L 954.368949 196.784656 
L 955.724344 192.036594 
L 956.890589 187.232281 
L 957.865623 182.380202 
L 958.647725 177.488925 
L 959.235513 172.56709 
L 959.627949 167.623389 
L 959.824341 162.666552 
L 959.848898 160.185943 
L 959.848898 160.185943 
" clip-path="url(#pfd1c94b7af)" style="fill: none; stroke: #ff0000; stroke-width: 0.72; stroke-linejoin: miter"/>
   </g>
   <g id="patch_15">
    <path d="M 398.338529 147.669326 
L 410.855146 160.185943 
L 398.338529 172.702561 
L 385.821911 160.185943 
L 398.338529 147.669326 
" clip-path="url(#pfd1c94b7af)" style="fill: none; stroke: #ff0000; stroke-width: 0.72; stroke-linejoin: miter"/>
   </g>
   <g id="patch_16">
    <path d="M 841.768082 147.669326 
L 854.2847 160.185943 
L 841.768082 172.702561 
L 829.251465 160.185943 
L 841.768082 147.669326 
" clip-path="url(#pfd1c94b7af)" style="fill: none; stroke: #ff0000; stroke-width: 0.72; stroke-linejoin: miter"/>
   </g>
   <g id="patch_17">
    <path d="M 479.468884 227.202079 
L 491.156327 240.496255 
L 477.862151 252.183698 
L 466.174708 238.889522 
L 479.468884 227.202079 
" clip-path="url(#pfd1c94b7af)" style="fill: none; stroke: #ff0000; stroke-width: 0.72; stroke-linejoin: miter"/>
   </g>
   <g id="patch_18">
    <path d="M 991.838772 260.155959 
L 1003.526215 273.450134 
L 990.23204 285.137577 
L 978.544597 271.843402 
L 991.838772 260.155959 
" clip-path="url(#pfd1c94b7af)" style="fill: none; stroke: #ff0000; stroke-width: 0.72; stroke-linejoin: miter"/>
   </g>
   <g id="patch_19">
    <path d="M 460.607977 200.337196 
L 473.124594 187.820578 
L 485.641211 200.337196 
L 473.124594 212.853813 
L 460.607977 200.337196 
" clip-path="url(#pfd1c94b7af)" style="fill: none; stroke: #ff0000; stroke-width: 0.72; stroke-linejoin: miter"/>
   </g>
   <g id="patch_20">
    <path d="M 460.607977 129.281673 
L 473.124594 116.765056 
L 485.641211 129.281673 
L 473.124594 141.798291 
L 460.607977 129.281673 
" clip-path="url(#pfd1c94b7af)" style="fill: none; stroke: #ff0000; stroke-width: 0.72; stroke-linejoin: miter"/>
   </g>
   <g id="line2d_1">
    <path d="M 86.447224 160.185943 
L 1099.636364 160.185943 
" clip-path="url(#pfd1c94b7af)" style="fill: none; stroke: #ffffff; stroke-width: 0.72; stroke-linecap: square"/>
   </g>
   <g id="line2d_2">
    <path d="M 383.318588 160.185943 
L 413.358469 160.185943 
" clip-path="url(#pfd1c94b7af)" style="fill: none; stroke: #ffffff; stroke-width: 0.72; stroke-linecap: square"/>
   </g>
   <g id="line2d_3">
    <path d="M 826.748141 160.185943 
L 856.788023 160.185943 
" clip-path="url(#pfd1c94b7af)" style="fill: none; stroke: #ffffff; stroke-width: 0.72; stroke-linecap: square"/>
   </g>
   <g id="line2d_4">
    <path d="M 52.531555 212.285409 
L 1099.636364 279.631611 
" clip-path="url(#pfd1c94b7af)" style="fill: none; stroke: #ffffff; stroke-width: 0.72; stroke-linecap: square"/>
   </g>
   <g id="line2d_5">
    <path d="M 463.676547 238.728849 
L 493.654488 240.656928 
" clip-path="url(#pfd1c94b7af)" style="fill: none; stroke: #ffffff; stroke-width: 0.72; stroke-linecap: square"/>
   </g>
   <g id="line2d_6">
    <path d="M 976.046435 271.682729 
L 1006.024377 273.610808 
" clip-path="url(#pfd1c94b7af)" style="fill: none; stroke: #ffffff; stroke-width: 0.72; stroke-linecap: square"/>
   </g>
   <g id="line2d_7">
    <path d="M 848.623113 42.131712 
L 848.623113 39.628389 
" clip-path="url(#pfd1c94b7af)" style="fill: none; stroke: #ff0000; stroke-width: 0.72; stroke-linecap: square"/>
   </g>
   <g id="line2d_8">
    <path d="M 848.623113 278.240175 
L 848.623113 280.743498 
" clip-path="url(#pfd1c94b7af)" style="fill: none; stroke: #ff0000; stroke-width: 0.72; stroke-linecap: square"/>
   </g>
   <g id="line2d_9">
    <path d="M 959.848898 160.185943 
L 962.352222 160.185943 
" clip-path="url(#pfd1c94b7af)" style="fill: none; stroke: #ff0000; stroke-width: 0.72; stroke-linecap: square"/>
   </g>
   <g id="line2d_10">
    <path d="M 737.397329 160.185943 
L 734.894005 160.185943 
" clip-path="url(#pfd1c94b7af)" style="fill: none; stroke: #ff0000; stroke-width: 0.72; stroke-linecap: square"/>
   </g>
   <g id="line2d_11">
    <path d="M 473.124594 299.506908 
L 473.124594 30.111961 
" clip-path="url(#pfd1c94b7af)" style="fill: none; stroke: #ffffff; stroke-width: 0.72; stroke-linecap: square"/>
   </g>
   <g id="line2d_12">
    <path d="M 473.124594 215.357137 
L 473.124594 185.317255 
" clip-path="url(#pfd1c94b7af)" style="fill: none; stroke: #ffffff; stroke-width: 0.72; stroke-linecap: square"/>
   </g>
   <g id="line2d_13">
    <path d="M 473.124594 144.301614 
L 473.124594 114.261733 
" clip-path="url(#pfd1c94b7af)" style="fill: none; stroke: #ffffff; stroke-width: 0.72; stroke-linecap: square"/>
   </g>
  </g>
 </g>
 <defs>
  <clipPath id="pfd1c94b7af">
   <rect x="0" y="0" width="1152" height="321.416462"/>
  </clipPath>
 </defs>
</svg>
