<?xml version="1.0" encoding="utf-8" standalone="no"?>
<!DOCTYPE svg PUBLIC "-//W3C//DTD SVG 1.1//EN"
  "http://www.w3.org/Graphics/SVG/1.1/DTD/svg11.dtd">
<svg xmlns:xlink="http://www.w3.org/1999/xlink" width="1152pt" height="213.851647pt" viewBox="0 0 1152 213.851647" xmlns="http://www.w3.org/2000/svg" version="1.1">
 <metadata>
  <rdf:RDF xmlns:dc="http://purl.org/dc/elements/1.1/" xmlns:cc="http://creativecommons.org/ns#" xmlns:rdf="http://www.w3.org/1999/02/22-rdf-syntax-ns#">
   <cc:Work>
    <dc:type rdf:resource="http://purl.org/dc/dcmitype/StillImage"/>
    <dc:date>2026-01-07T02:07:19.439529</dc:date>
    <dc:format>image/svg+xml</dc:format>
    <dc:creator>
     <cc:Agent>
      <dc:title>Matplotlib v3.10.1, https://matplotlib.org/</dc:title>
     </cc:Agent>
    </dc:creator>
   </cc:Work>
  </rdf:RDF>
 </metadata>
 <defs>
  <style type="text/css">*{stroke-linejoin: round; stroke-linecap: butt}</style>
 </defs>
 <g id="figure_1">
  <g id="patch_1">
   <path d="M 0 213.851647 
L 1152 213.851647 
L 1152 0 
L 0 0 
z
" style="fill: #ffffff"/>
  </g>
  <g id="axes_1">
   <g id="patch_2">
    <path d="M 0 213.851647 
L 1152 213.851647 
L 1152 0 
L 0 0 
z
" style="fill: #212830"/>
   </g>
   <g id="patch_3">
    <path d="M 1099.636364 112.505393 
L 1084.699089 107.537209 
L 1056.579299 98.42866 
L 1028.691574 89.745317 
L 1000.968719 81.505955 
L 973.344931 73.710341 
L 945.768883 66.36492 
L 918.196798 59.463971 
L 904.40568 56.182368 
L 876.789432 49.953487 
L 862.964845 47.005499 
L 849.127946 44.170262 
L 835.275393 41.447384 
L 821.405819 38.835532 
L 807.522504 36.334692 
L 793.626261 33.946707 
L 779.714343 31.671912 
L 765.786599 29.50879 
L 751.846503 27.457876 
L 737.894305 25.521272 
L 723.923466 23.700035 
L 709.927583 21.991233 
L 681.875603 18.901973 
L 667.827517 17.523848 
L 639.686872 15.098882 
L 611.533078 13.111428 
L 597.461914 12.287041 
L 569.348035 10.973685 
L 555.321676 10.487829 
L 541.317793 10.120013 
L 527.337292 9.869172 
L 513.388804 9.734975 
L 499.479786 9.720529 
L 485.611352 9.829303 
L 471.783861 10.061181 
L 458.006139 10.415531 
L 444.287349 10.895265 
L 430.628847 11.504602 
L 417.032821 12.24354 
L 403.509089 13.111313 
L 390.068518 14.111216 
L 376.713214 15.247714 
L 363.447733 16.519921 
L 350.285661 17.927232 
L 337.237383 19.473968 
L 324.306652 21.163178 
L 311.503293 22.992631 
L 298.843671 24.962636 
L 286.338106 27.076463 
L 273.995521 29.331778 
L 261.841865 31.719273 
L 249.907986 34.237496 
L 238.212274 36.888055 
L 226.775506 39.661395 
L 215.635293 42.543849 
L 204.824805 45.530708 
L 194.366939 48.612846 
L 184.293795 51.767872 
L 174.644683 54.975896 
L 165.445668 58.224783 
L 156.714004 61.493106 
L 148.47017 64.753499 
L 140.727716 67.988256 
L 133.483856 71.184915 
L 126.728514 74.325269 
L 120.450692 77.392839 
L 114.632965 80.381855 
L 109.248895 83.292316 
L 99.662909 88.864044 
L 91.477384 94.09811 
L 84.483173 99.035546 
L 78.50033 103.702137 
L 73.391682 108.148637 
L 68.996865 112.430125 
L 65.178904 116.511933 
L 61.909034 120.349557 
L 59.208004 124.006198 
L 57.033542 127.594344 
L 55.296725 131.125637 
L 53.953966 134.524508 
L 53.019039 137.758742 
L 52.498965 140.868161 
L 52.363636 143.901382 
L 52.617052 146.93646 
L 52.914188 148.432855 
L 53.346093 149.916437 
L 53.928324 151.393555 
L 54.667914 152.865729 
L 55.561167 154.328037 
L 56.597746 155.770572 
L 57.770344 157.184009 
L 59.078186 158.561346 
L 60.528291 159.900052 
L 62.12797 161.200507 
L 63.882029 162.465872 
L 67.84583 164.906047 
L 72.412212 167.241585 
L 77.643624 169.47843 
L 83.661953 171.640906 
L 90.599293 173.781048 
L 98.627978 175.936783 
L 108.009578 178.124785 
L 119.070521 180.367479 
L 132.197366 182.66206 
L 147.809185 184.988736 
L 166.213518 187.298837 
L 187.499919 189.508514 
L 199.15286 190.548801 
L 224.211147 192.44699 
L 251.142373 194.07226 
L 279.475055 195.414149 
L 308.899737 196.491349 
L 325.551046 197.019768 
L 325.460527 199.988111 
L 354.275419 200.826812 
L 384.935083 201.488094 
L 463.154418 202.776079 
L 510.381298 203.281366 
L 604.945693 204.131118 
L 1099.636364 112.505393 
L 1099.636364 112.505393 
" clip-path="url(#p0d29842ac2)" style="fill: none; stroke: #ff0000; stroke-width: 0.72; stroke-linejoin: miter"/>
   </g>
   <g id="patch_4">
    <path d="M 964.374483 79.488445 
L 956.729755 77.42136 
L 958.79684 69.776632 
L 966.441567 71.843717 
L 964.374483 79.488445 
" clip-path="url(#p0d29842ac2)" style="fill: none; stroke: #ff0000; stroke-width: 0.72; stroke-linejoin: miter"/>
   </g>
   <g id="patch_5">
    <path d="M 440.143061 19.007336 
L 432.231672 19.360362 
L 431.878646 11.448973 
L 439.790035 11.095947 
L 440.143061 19.007336 
" clip-path="url(#p0d29842ac2)" style="fill: none; stroke: #ff0000; stroke-width: 0.72; stroke-linejoin: miter"/>
   </g>
   <g id="patch_6">
    <path d="M 202.418795 54.496036 
L 194.822655 56.735089 
L 192.583602 49.138949 
L 200.179742 46.899896 
L 202.418795 54.496036 
" clip-path="url(#p0d29842ac2)" style="fill: none; stroke: #ff0000; stroke-width: 0.72; stroke-linejoin: miter"/>
   </g>
   <g id="patch_7">
    <path d="M 82.889471 112.927369 
L 79.942599 115.572103 
L 73.330764 108.204922 
L 76.277636 105.560188 
L 82.889471 112.927369 
" clip-path="url(#p0d29842ac2)" style="fill: none; stroke: #ff0000; stroke-width: 0.72; stroke-linejoin: miter"/>
   </g>
   <g id="patch_8">
    <path d="M 67.866812 153.134548 
L 71.082051 155.445591 
L 65.304443 163.483687 
L 62.089205 161.172644 
L 67.866812 153.134548 
" clip-path="url(#p0d29842ac2)" style="fill: none; stroke: #ff0000; stroke-width: 0.72; stroke-linejoin: miter"/>
   </g>
   <g id="patch_9">
    <path d="M 252.289241 186.200655 
L 260.198514 186.598285 
L 259.800883 194.507558 
L 251.891611 194.109927 
L 252.289241 186.200655 
" clip-path="url(#p0d29842ac2)" style="fill: none; stroke: #ff0000; stroke-width: 0.72; stroke-linejoin: miter"/>
   </g>
   <g id="patch_10">
    <path d="M 654.618879 106.401683 
L 654.477118 101.626252 
L 654.052397 96.869793 
L 653.346405 92.151205 
L 652.361946 87.489233 
L 651.102931 82.9024 
L 649.574362 78.408929 
L 647.782313 74.026673 
L 645.733903 69.773042 
L 643.43727 65.664936 
L 640.901539 61.718676 
L 638.136784 57.94994 
L 635.153989 54.373702 
L 631.965006 51.00417 
L 628.582504 47.854731 
L 625.019921 44.937898 
L 621.291411 42.265258 
L 617.411789 39.847432 
L 613.396467 37.694024 
L 609.261398 35.81359 
L 605.023011 34.2136 
L 600.698144 32.900413 
L 596.303981 31.879244 
L 591.85798 31.154151 
L 587.377803 30.728014 
L 582.881251 30.602528 
L 578.386189 30.77819 
L 573.910475 31.254302 
L 569.471891 32.028973 
L 565.088072 33.099125 
L 560.776434 34.460506 
L 556.554107 36.107708 
L 552.437867 38.034186 
L 548.444068 40.232287 
L 544.588576 42.693277 
L 540.886709 45.40738 
L 537.353175 48.363811 
L 534.002013 51.550825 
L 530.846536 54.955761 
L 527.899282 58.56509 
L 525.171959 62.364472 
L 522.675403 66.338814 
L 520.419533 70.472324 
L 518.413312 74.748581 
L 516.664709 79.150595 
L 515.180673 83.660877 
L 513.967099 88.261507 
L 513.028809 92.934208 
L 512.369531 97.660415 
L 511.991883 102.421351 
L 511.897367 107.198101 
L 512.086358 111.971686 
L 512.558105 116.723142 
L 513.310733 121.433591 
L 514.341253 126.084319 
L 515.64557 130.656848 
L 517.218502 135.133011 
L 519.053801 139.495026 
L 521.144174 143.725562 
L 523.481316 147.807811 
L 526.055942 151.725554 
L 528.857824 155.463227 
L 531.875829 159.005979 
L 535.097966 162.339735 
L 538.511435 165.451251 
L 542.102674 168.328165 
L 545.857415 170.959046 
L 549.76074 173.333442 
L 553.797141 175.441919 
L 557.950582 177.276102 
L 562.204562 178.828702 
L 566.54218 180.093551 
L 570.946201 181.065624 
L 575.39913 181.741059 
L 579.883274 182.117172 
L 584.380819 182.19247 
L 588.873896 181.966652 
L 593.344653 181.440617 
L 597.775329 180.616453 
L 602.148321 179.497436 
L 606.446254 178.088012 
L 610.652054 176.393779 
L 614.749011 174.421469 
L 618.720847 172.178918 
L 622.551783 169.675036 
L 626.226598 166.91977 
L 629.730692 163.924067 
L 633.050145 160.699829 
L 636.171767 157.259866 
L 639.083156 153.617845 
L 641.772746 149.788234 
L 644.229851 145.78625 
L 646.444709 141.627792 
L 648.40852 137.329382 
L 650.113482 132.908096 
L 651.552822 128.381502 
L 652.720821 123.767581 
L 653.612838 119.084667 
L 654.22533 114.351363 
L 654.555862 109.586475 
L 654.618879 106.401683 
L 654.618879 106.401683 
" clip-path="url(#p0d29842ac2)" style="fill: none; stroke: #ff0000; stroke-width: 0.72; stroke-linejoin: miter"/>
   </g>
   <g id="line2d_1">
    <path d="M 75.339636 106.401683 
L 1081.225293 106.401683 
" clip-path="url(#p0d29842ac2)" style="fill: none; stroke: #ffffff; stroke-width: 0.72; stroke-linecap: square"/>
   </g>
   <g id="line2d_2">
    <path d="M 272.359156 106.401683 
L 296.11694 106.401683 
" clip-path="url(#p0d29842ac2)" style="fill: none; stroke: #ffffff; stroke-width: 0.72; stroke-linecap: square"/>
   </g>
   <g id="patch_11">
    <path d="M 284.238048 96.502606 
L 294.137124 106.401683 
L 284.238048 116.30076 
L 274.338971 106.401683 
L 284.238048 96.502606 
" clip-path="url(#p0d29842ac2)" style="fill: none; stroke: #ff0000; stroke-width: 0.72; stroke-linejoin: miter"/>
   </g>
   <g id="line2d_3">
    <path d="M 566.403573 106.401683 
L 590.161357 106.401683 
" clip-path="url(#p0d29842ac2)" style="fill: none; stroke: #ffffff; stroke-width: 0.72; stroke-linecap: square"/>
   </g>
   <g id="patch_12">
    <path d="M 578.282465 96.502606 
L 588.181542 106.401683 
L 578.282465 116.30076 
L 568.383388 106.401683 
L 578.282465 96.502606 
" clip-path="url(#p0d29842ac2)" style="fill: none; stroke: #ff0000; stroke-width: 0.72; stroke-linejoin: miter"/>
   </g>
   <g id="line2d_4">
    <path d="M 860.44799 106.401683 
L 884.205774 106.401683 
" clip-path="url(#p0d29842ac2)" style="fill: none; stroke: #ffffff; stroke-width: 0.72; stroke-linecap: square"/>
   </g>
   <g id="patch_13">
    <path d="M 872.326882 96.502606 
L 882.225959 106.401683 
L 872.326882 116.30076 
L 862.427805 106.401683 
L 872.326882 96.502606 
" clip-path="url(#p0d29842ac2)" style="fill: none; stroke: #ff0000; stroke-width: 0.72; stroke-linejoin: miter"/>
   </g>
   <g id="line2d_5">
    <path d="M 52.475408 141.198212 
L 714.749639 183.793427 
" clip-path="url(#p0d29842ac2)" style="fill: none; stroke: #ffffff; stroke-width: 0.72; stroke-linecap: square"/>
   </g>
   <g id="line2d_6">
    <path d="M 180.781214 149.450403 
L 204.490012 150.975272 
" clip-path="url(#p0d29842ac2)" style="fill: none; stroke: #ffffff; stroke-width: 0.72; stroke-linecap: square"/>
   </g>
   <g id="patch_14">
    <path d="M 193.270975 140.334172 
L 202.514279 150.8482 
L 192.000251 160.091503 
L 182.756947 149.577476 
L 193.270975 140.334172 
" clip-path="url(#p0d29842ac2)" style="fill: none; stroke: #ff0000; stroke-width: 0.72; stroke-linejoin: miter"/>
   </g>
   <g id="line2d_7">
    <path d="M 339.928639 159.686221 
L 363.637437 161.21109 
" clip-path="url(#p0d29842ac2)" style="fill: none; stroke: #ffffff; stroke-width: 0.72; stroke-linecap: square"/>
   </g>
   <g id="patch_15">
    <path d="M 352.4184 150.56999 
L 361.661704 161.084018 
L 351.147676 170.327322 
L 341.904372 159.813294 
L 352.4184 150.56999 
" clip-path="url(#p0d29842ac2)" style="fill: none; stroke: #ff0000; stroke-width: 0.72; stroke-linejoin: miter"/>
   </g>
   <g id="line2d_8">
    <path d="M 583.256154 30.601482 
L 583.256154 28.621667 
" clip-path="url(#p0d29842ac2)" style="fill: none; stroke: #ff0000; stroke-width: 0.72; stroke-linecap: square"/>
   </g>
   <g id="line2d_9">
    <path d="M 583.256154 182.201884 
L 583.256154 184.181699 
" clip-path="url(#p0d29842ac2)" style="fill: none; stroke: #ff0000; stroke-width: 0.72; stroke-linecap: square"/>
   </g>
   <g id="line2d_10">
    <path d="M 654.618879 106.401683 
L 656.598694 106.401683 
" clip-path="url(#p0d29842ac2)" style="fill: none; stroke: #ff0000; stroke-width: 0.72; stroke-linecap: square"/>
   </g>
   <g id="line2d_11">
    <path d="M 511.893428 106.401683 
L 509.913613 106.401683 
" clip-path="url(#p0d29842ac2)" style="fill: none; stroke: #ff0000; stroke-width: 0.72; stroke-linecap: square"/>
   </g>
   <g id="line2d_12">
    <path d="M 286.283849 195.679162 
L 286.283849 27.086377 
" clip-path="url(#p0d29842ac2)" style="fill: none; stroke: #ffffff; stroke-width: 0.72; stroke-linecap: square"/>
   </g>
   <g id="line2d_13">
    <path d="M 286.283849 144.689939 
L 286.283849 120.932155 
" clip-path="url(#p0d29842ac2)" style="fill: none; stroke: #ffffff; stroke-width: 0.72; stroke-linecap: square"/>
   </g>
   <g id="patch_16">
    <path d="M 276.384773 132.811047 
L 286.283849 122.91197 
L 296.182926 132.811047 
L 286.283849 142.710124 
L 276.384773 132.811047 
" clip-path="url(#p0d29842ac2)" style="fill: none; stroke: #ff0000; stroke-width: 0.72; stroke-linejoin: miter"/>
   </g>
   <g id="line2d_14">
    <path d="M 286.283849 101.833384 
L 286.283849 78.075599 
" clip-path="url(#p0d29842ac2)" style="fill: none; stroke: #ffffff; stroke-width: 0.72; stroke-linecap: square"/>
   </g>
   <g id="patch_17">
    <path d="M 276.384773 89.954492 
L 286.283849 80.055415 
L 296.182926 89.954492 
L 286.283849 99.853568 
L 276.384773 89.954492 
" clip-path="url(#p0d29842ac2)" style="fill: none; stroke: #ff0000; stroke-width: 0.72; stroke-linejoin: miter"/>
   </g>
   <g id="patch_18">
    <path d="M 453.567827 156.397231 
L 443.668751 156.397231 
L 443.668751 166.296307 
L 453.567827 166.296307 
L 453.567827 176.195384 
L 443.668751 176.195384 
" clip-path="url(#p0d29842ac2)" style="fill: none; stroke: #ff0000; stroke-width: 0.72; stroke-linejoin: miter"/>
   </g>
   <g id="patch_19">
    <path d="M 458.517366 156.397231 
L 468.416443 156.397231 
L 468.416443 166.296307 
L 458.517366 166.296307 
L 458.517366 176.195384 
L 468.416443 176.195384 
" clip-path="url(#p0d29842ac2)" style="fill: none; stroke: #ff0000; stroke-width: 0.72; stroke-linejoin: miter"/>
   </g>
  </g>
 </g>
 <defs>
  <clipPath id="p0d29842ac2">
   <rect x="0" y="0" width="1152" height="213.851647"/>
  </clipPath>
 </defs>
</svg>
