<?xml version="1.0" encoding="utf-8" standalone="no"?>
<!DOCTYPE svg PUBLIC "-//W3C//DTD SVG 1.1//EN"
  "http://www.w3.org/Graphics/SVG/1.1/DTD/svg11.dtd">
<svg xmlns:xlink="http://www.w3.org/1999/xlink" width="1152pt" height="335.570033pt" viewBox="0 0 1152 335.570033" xmlns="http://www.w3.org/2000/svg" version="1.1">
 <metadata>
  <rdf:RDF xmlns:dc="http://purl.org/dc/elements/1.1/" xmlns:cc="http://creativecommons.org/ns#" xmlns:rdf="http://www.w3.org/1999/02/22-rdf-syntax-ns#">
   <cc:Work>
    <dc:type rdf:resource="http://purl.org/dc/dcmitype/StillImage"/>
    <dc:date>2026-01-07T02:07:02.349252</dc:date>
    <dc:format>image/svg+xml</dc:format>
    <dc:creator>
     <cc:Agent>
      <dc:title>Matplotlib v3.10.1, https://matplotlib.org/</dc:title>
     </cc:Agent>
    </dc:creator>
   </cc:Work>
  </rdf:RDF>
 </metadata>
 <defs>
  <style type="text/css">*{stroke-linejoin: round; stroke-linecap: butt}</style>
 </defs>
 <g id="figure_1">
  <g id="patch_1">
   <path d="M 0 335.570033 
L 1152 335.570033 
L 1152 0 
L 0 0 
z
" style="fill: #ffffff"/>
  </g>
  <g id="axes_1">
   <g id="patch_2">
    <path d="M 0 335.570033 
L 1152 335.570033 
L 1152 0 
L 0 0 
z
" style="fill: #212830"/>
   </g>
   <g id="patch_3">
    <path d="M 1099.636364 41.627339 
L 1094.684749 40.891419 
L 1072.020931 37.719374 
L 1049.374424 34.758838 
L 1026.745658 32.022919 
L 1004.130536 29.51256 
L 981.528396 27.220384 
L 958.946817 25.132477 
L 936.408577 23.235929 
L 913.946074 21.532643 
L 891.576011 20.042905 
L 869.288138 18.781545 
L 847.067273 17.738238 
L 824.92019 16.886671 
L 802.87663 16.206539 
L 780.974839 15.694552 
L 759.249817 15.366627 
L 737.712887 15.253183 
L 716.34077 15.376695 
L 695.097688 15.720851 
L 673.987806 16.23562 
L 653.070314 16.884381 
L 632.413361 17.683507 
L 612.038405 18.684673 
L 591.914147 19.926081 
L 571.992669 21.403422 
L 552.249981 23.070762 
L 532.719021 24.867027 
L 513.485086 26.767519 
L 494.620739 28.817988 
L 476.11107 31.099041 
L 457.866343 33.63793 
L 439.827582 36.36797 
L 422.042206 39.196061 
L 404.618244 42.099467 
L 387.615829 45.137771 
L 371.008376 48.376988 
L 354.735493 51.828739 
L 338.766558 55.454716 
L 323.113699 59.207324 
L 307.817074 63.056679 
L 292.920034 66.998819 
L 278.451562 71.051654 
L 264.412038 75.242092 
L 250.779854 79.583722 
L 237.531295 84.066941 
L 224.660817 88.663011 
L 212.186701 93.343841 
L 200.134371 98.09771 
L 188.515531 102.928669 
L 177.326627 107.837129 
L 166.569166 112.806749 
L 156.263331 117.818376 
L 146.430403 122.872114 
L 137.070397 127.979512 
L 128.170969 133.138912 
L 119.731018 138.331389 
L 111.76375 143.537487 
L 104.282037 148.749332 
L 97.296284 153.960419 
L 90.815561 159.169146 
L 84.831297 164.388076 
L 79.311752 169.621554 
L 74.238804 174.824363 
L 69.653698 179.913813 
L 65.629978 184.852735 
L 62.197912 189.691804 
L 59.32077 194.506331 
L 56.946173 199.301912 
L 55.055062 204.014775 
L 53.658647 208.595165 
L 52.765078 213.038657 
L 52.363636 217.603689 
L 52.464394 221.439634 
L 53.073656 225.339587 
L 54.250666 229.098664 
L 56.050707 232.804141 
L 58.476387 236.487411 
L 61.488081 240.116772 
L 65.077728 243.647619 
L 69.291237 247.064811 
L 74.172197 250.38056 
L 79.715734 253.605961 
L 85.899128 256.731872 
L 92.72864 259.743342 
L 100.230854 262.643786 
L 108.411614 265.454103 
L 117.249591 268.191421 
L 126.719666 270.858631 
L 136.805339 273.451251 
L 147.495003 275.96373 
L 158.782149 278.389303 
L 170.667603 280.725233 
L 183.146617 282.976905 
L 196.201094 285.146006 
L 209.816912 287.221849 
L 224.000661 289.192888 
L 238.76194 291.064305 
L 254.092661 292.849362 
L 269.974595 294.55092 
L 286.40237 296.164027 
L 303.377563 297.692317 
L 338.923065 300.538618 
L 376.493564 303.116438 
L 415.995832 305.446601 
L 457.321817 307.534975 
L 462.54652 307.770657 
L 462.460884 309.669071 
L 500.298745 311.306223 
L 544.955838 312.973143 
L 591.07456 314.436219 
L 638.541997 315.652073 
L 687.29171 316.615523 
L 737.260073 317.335566 
L 866.781162 318.738094 
L 1055.051149 320.07639 
L 1099.636364 320.31685 
L 1099.636364 41.627339 
L 1099.636364 41.627339 
" clip-path="url(#p3a48443196)" style="fill: none; stroke: #ff0000; stroke-width: 0.72; stroke-linejoin: miter"/>
   </g>
   <g id="patch_4">
    <path d="M 639.75296 252.940242 
L 649.254683 252.940242 
L 649.254683 262.441965 
L 639.75296 262.441965 
L 639.75296 271.943689 
L 649.254683 271.943689 
" clip-path="url(#p3a48443196)" style="fill: none; stroke: #ff0000; stroke-width: 0.72; stroke-linejoin: miter"/>
   </g>
   <g id="patch_5">
    <path d="M 632.580987 25.285822 
L 624.988773 25.658965 
L 624.61563 18.06675 
L 632.207845 17.693608 
L 632.580987 25.285822 
" clip-path="url(#p3a48443196)" style="fill: none; stroke: #ff0000; stroke-width: 0.72; stroke-linejoin: miter"/>
   </g>
   <g id="patch_6">
    <path d="M 275.146939 79.970941 
L 267.863158 82.14522 
L 265.688879 74.861439 
L 272.97266 72.68716 
L 275.146939 79.970941 
" clip-path="url(#p3a48443196)" style="fill: none; stroke: #ff0000; stroke-width: 0.72; stroke-linejoin: miter"/>
   </g>
   <g id="patch_7">
    <path d="M 94.176348 168.847267 
L 91.312713 171.346234 
L 85.065296 164.187147 
L 87.92893 161.68818 
L 94.176348 168.847267 
" clip-path="url(#p3a48443196)" style="fill: none; stroke: #ff0000; stroke-width: 0.72; stroke-linejoin: miter"/>
   </g>
   <g id="patch_8">
    <path d="M 73.712832 238.583259 
L 76.85919 240.715315 
L 71.529049 248.581213 
L 68.38269 246.449156 
L 73.712832 238.583259 
" clip-path="url(#p3a48443196)" style="fill: none; stroke: #ff0000; stroke-width: 0.72; stroke-linejoin: miter"/>
   </g>
   <g id="patch_9">
    <path d="M 354.955005 294.077751 
L 362.5399 294.578076 
L 362.039575 302.162971 
L 354.45468 301.662645 
L 354.955005 294.077751 
" clip-path="url(#p3a48443196)" style="fill: none; stroke: #ff0000; stroke-width: 0.72; stroke-linejoin: miter"/>
   </g>
   <g id="patch_10">
    <path d="M 965.764685 167.424733 
L 965.661392 162.510006 
L 965.351694 157.603958 
L 964.83614 152.715254 
L 964.115638 147.852529 
L 963.191463 143.02437 
L 962.065245 138.239304 
L 960.738975 133.505783 
L 959.214994 128.832166 
L 957.495993 124.226706 
L 955.585009 119.697539 
L 953.485417 115.252661 
L 951.200925 110.899925 
L 948.735567 106.647017 
L 946.093698 102.501448 
L 943.279983 98.470539 
L 940.299391 94.56141 
L 937.157187 90.780964 
L 933.858919 87.135878 
L 930.410414 83.63259 
L 926.817761 80.277286 
L 923.087305 77.075893 
L 919.225635 74.034064 
L 915.239571 71.157171 
L 911.136152 68.450297 
L 906.922625 65.91822 
L 902.606433 63.565413 
L 898.195197 61.396031 
L 893.696709 59.413906 
L 889.118912 57.622537 
L 884.469893 56.02509 
L 879.757861 54.624384 
L 874.991139 53.422895 
L 870.178145 52.422743 
L 865.327379 51.625696 
L 860.447407 51.03316 
L 855.546849 50.646182 
L 850.63436 50.465447 
L 845.718615 50.491272 
L 840.808295 50.723612 
L 835.912074 51.162057 
L 831.038598 51.805833 
L 826.196473 52.653803 
L 821.394253 53.704469 
L 816.640418 54.955975 
L 811.943363 56.406111 
L 807.311384 58.052317 
L 802.752662 59.891684 
L 798.275248 61.920965 
L 793.887049 64.136575 
L 789.595815 66.534602 
L 785.409126 69.110809 
L 781.334374 71.860649 
L 777.378756 74.779263 
L 773.549259 77.861498 
L 769.852646 81.10191 
L 766.295445 84.494775 
L 762.883938 88.034103 
L 759.624151 91.713642 
L 756.521841 95.526894 
L 753.582486 99.467124 
L 750.811278 103.527373 
L 748.213111 107.700471 
L 745.792574 111.979048 
L 743.553941 116.355547 
L 741.501166 120.822238 
L 739.637875 125.371234 
L 737.967358 129.994501 
L 736.492566 134.683872 
L 735.216103 139.431067 
L 734.140223 144.227702 
L 733.266827 149.065304 
L 732.597458 153.935331 
L 732.133296 158.829182 
L 731.875163 163.738213 
L 731.823513 168.653754 
L 731.978439 173.567126 
L 732.339666 178.469649 
L 732.906557 183.352666 
L 733.67811 188.207552 
L 734.652963 193.025734 
L 735.829394 197.798703 
L 737.205326 202.518028 
L 738.778327 207.175376 
L 740.545622 211.762519 
L 742.504087 216.271359 
L 744.650265 220.693931 
L 746.980364 225.022424 
L 749.49027 229.249194 
L 752.175551 233.366777 
L 755.031463 237.3679 
L 758.052962 241.245497 
L 761.234713 244.99272 
L 764.571097 248.60295 
L 768.05622 252.069813 
L 771.683928 255.387184 
L 775.447815 258.549205 
L 779.341232 261.550292 
L 783.357303 264.385145 
L 787.488936 267.048757 
L 791.728834 269.536423 
L 796.069509 271.843751 
L 800.503294 273.966665 
L 805.02236 275.901416 
L 809.618725 277.644587 
L 814.284272 279.1931 
L 819.01076 280.54422 
L 823.789843 281.69556 
L 828.613081 282.645087 
L 833.471953 283.391125 
L 838.357881 283.932355 
L 843.262234 284.267822 
L 848.176352 284.396933 
L 853.091554 284.319461 
L 857.999161 284.035541 
L 862.890506 283.545677 
L 867.756949 282.850732 
L 872.589896 281.951933 
L 877.380813 280.85087 
L 882.121236 279.549485 
L 886.802795 278.050078 
L 891.417222 276.355296 
L 895.956366 274.468132 
L 900.412212 272.39192 
L 904.77689 270.130326 
L 909.042691 267.687345 
L 913.202082 265.067291 
L 917.247717 262.274791 
L 921.172451 259.314776 
L 924.969352 256.192476 
L 928.631715 252.913404 
L 932.153072 249.48335 
L 935.527203 245.908374 
L 938.74815 242.194788 
L 941.810224 238.349151 
L 944.708017 234.378256 
L 947.436412 230.289114 
L 949.99059 226.088948 
L 952.366039 221.785175 
L 954.558565 217.385397 
L 956.564296 212.897384 
L 958.379689 208.329062 
L 960.001538 203.688499 
L 961.426978 198.983891 
L 962.653493 194.223546 
L 963.678916 189.415872 
L 964.501436 184.56936 
L 965.119601 179.692569 
L 965.532318 174.794112 
L 965.738859 169.88264 
L 965.764685 167.424733 
L 965.764685 167.424733 
" clip-path="url(#p3a48443196)" style="fill: none; stroke: #ff0000; stroke-width: 0.72; stroke-linejoin: miter"/>
   </g>
   <g id="patch_11">
    <path d="M 392.877172 157.92301 
L 402.378895 167.424733 
L 392.877172 176.926456 
L 383.375449 167.424733 
L 392.877172 157.92301 
" clip-path="url(#p3a48443196)" style="fill: none; stroke: #ff0000; stroke-width: 0.72; stroke-linejoin: miter"/>
   </g>
   <g id="patch_12">
    <path d="M 841.22159 157.92301 
L 850.723313 167.424733 
L 841.22159 176.926456 
L 831.719867 167.424733 
L 841.22159 157.92301 
" clip-path="url(#p3a48443196)" style="fill: none; stroke: #ff0000; stroke-width: 0.72; stroke-linejoin: miter"/>
   </g>
   <g id="patch_13">
    <path d="M 460.723256 232.91689 
L 469.588482 243.015071 
L 459.4903 251.880296 
L 450.625075 241.782115 
L 460.723256 232.91689 
" clip-path="url(#p3a48443196)" style="fill: none; stroke: #ff0000; stroke-width: 0.72; stroke-linejoin: miter"/>
   </g>
   <g id="patch_14">
    <path d="M 954.806905 265.041039 
L 963.672131 275.13922 
L 953.573949 284.004445 
L 944.708724 273.906264 
L 954.806905 265.041039 
" clip-path="url(#p3a48443196)" style="fill: none; stroke: #ff0000; stroke-width: 0.72; stroke-linejoin: miter"/>
   </g>
   <g id="patch_15">
    <path d="M 554.237451 207.867005 
L 563.739174 198.365282 
L 573.240897 207.867005 
L 563.739174 217.368728 
L 554.237451 207.867005 
" clip-path="url(#p3a48443196)" style="fill: none; stroke: #ff0000; stroke-width: 0.72; stroke-linejoin: miter"/>
   </g>
   <g id="patch_16">
    <path d="M 554.237451 127.829633 
L 563.739174 118.32791 
L 573.240897 127.829633 
L 563.739174 137.331356 
L 554.237451 127.829633 
" clip-path="url(#p3a48443196)" style="fill: none; stroke: #ff0000; stroke-width: 0.72; stroke-linejoin: miter"/>
   </g>
   <g id="line2d_1">
    <path d="M 81.628653 167.424733 
L 1099.636364 167.424733 
" clip-path="url(#p3a48443196)" style="fill: none; stroke: #ffffff; stroke-width: 0.72; stroke-linecap: square"/>
   </g>
   <g id="line2d_2">
    <path d="M 381.475104 167.424733 
L 404.27924 167.424733 
" clip-path="url(#p3a48443196)" style="fill: none; stroke: #ffffff; stroke-width: 0.72; stroke-linecap: square"/>
   </g>
   <g id="line2d_3">
    <path d="M 829.819522 167.424733 
L 852.623658 167.424733 
" clip-path="url(#p3a48443196)" style="fill: none; stroke: #ffffff; stroke-width: 0.72; stroke-linecap: square"/>
   </g>
   <g id="line2d_4">
    <path d="M 52.513645 215.897852 
L 1099.636364 283.979293 
" clip-path="url(#p3a48443196)" style="fill: none; stroke: #ffffff; stroke-width: 0.72; stroke-linecap: square"/>
   </g>
   <g id="line2d_5">
    <path d="M 448.728734 241.658819 
L 471.484822 243.138366 
" clip-path="url(#p3a48443196)" style="fill: none; stroke: #ffffff; stroke-width: 0.72; stroke-linecap: square"/>
   </g>
   <g id="line2d_6">
    <path d="M 942.812383 273.782969 
L 965.568471 275.262516 
" clip-path="url(#p3a48443196)" style="fill: none; stroke: #ffffff; stroke-width: 0.72; stroke-linecap: square"/>
   </g>
   <g id="line2d_7">
    <path d="M 848.790871 50.450919 
L 848.790871 48.550574 
" clip-path="url(#p3a48443196)" style="fill: none; stroke: #ff0000; stroke-width: 0.72; stroke-linecap: square"/>
   </g>
   <g id="line2d_8">
    <path d="M 848.790871 284.398547 
L 848.790871 286.298892 
" clip-path="url(#p3a48443196)" style="fill: none; stroke: #ff0000; stroke-width: 0.72; stroke-linecap: square"/>
   </g>
   <g id="line2d_9">
    <path d="M 965.764685 167.424733 
L 967.665029 167.424733 
" clip-path="url(#p3a48443196)" style="fill: none; stroke: #ff0000; stroke-width: 0.72; stroke-linecap: square"/>
   </g>
   <g id="line2d_10">
    <path d="M 731.817056 167.424733 
L 729.916712 167.424733 
" clip-path="url(#p3a48443196)" style="fill: none; stroke: #ff0000; stroke-width: 0.72; stroke-linecap: square"/>
   </g>
   <g id="line2d_11">
    <path d="M 563.739174 313.596179 
L 563.739174 22.100459 
" clip-path="url(#p3a48443196)" style="fill: none; stroke: #ffffff; stroke-width: 0.72; stroke-linecap: square"/>
   </g>
   <g id="line2d_12">
    <path d="M 563.739174 219.269073 
L 563.739174 196.464937 
" clip-path="url(#p3a48443196)" style="fill: none; stroke: #ffffff; stroke-width: 0.72; stroke-linecap: square"/>
   </g>
   <g id="line2d_13">
    <path d="M 563.739174 139.231701 
L 563.739174 116.427565 
" clip-path="url(#p3a48443196)" style="fill: none; stroke: #ffffff; stroke-width: 0.72; stroke-linecap: square"/>
   </g>
  </g>
 </g>
 <defs>
  <clipPath id="p3a48443196">
   <rect x="0" y="0" width="1152" height="335.570033"/>
  </clipPath>
 </defs>
</svg>
