<?xml version="1.0" encoding="utf-8" standalone="no"?>
<!DOCTYPE svg PUBLIC "-//W3C//DTD SVG 1.1//EN"
  "http://www.w3.org/Graphics/SVG/1.1/DTD/svg11.dtd">
<svg xmlns:xlink="http://www.w3.org/1999/xlink" width="1152pt" height="183.793525pt" viewBox="0 0 1152 183.793525" xmlns="http://www.w3.org/2000/svg" version="1.1">
 <metadata>
  <rdf:RDF xmlns:dc="http://purl.org/dc/elements/1.1/" xmlns:cc="http://creativecommons.org/ns#" xmlns:rdf="http://www.w3.org/1999/02/22-rdf-syntax-ns#">
   <cc:Work>
    <dc:type rdf:resource="http://purl.org/dc/dcmitype/StillImage"/>
    <dc:date>2026-01-07T02:07:10.307307</dc:date>
    <dc:format>image/svg+xml</dc:format>
    <dc:creator>
     <cc:Agent>
      <dc:title>Matplotlib v3.10.1, https://matplotlib.org/</dc:title>
     </cc:Agent>
    </dc:creator>
   </cc:Work>
  </rdf:RDF>
 </metadata>
 <defs>
  <style type="text/css">*{stroke-linejoin: round; stroke-linecap: butt}</style>
 </defs>
 <g id="figure_1">
  <g id="patch_1">
   <path d="M 0 183.793525 
L 1152 183.793525 
L 1152 0 
L 0 0 
z
" style="fill: #ffffff"/>
  </g>
  <g id="axes_1">
   <g id="patch_2">
    <path d="M 0 183.793525 
L 1152 183.793525 
L 1152 0 
L 0 0 
z
" style="fill: #212830"/>
   </g>
   <g id="patch_3">
    <path d="M 1099.460228 174.442594 
L 1084.736291 169.191355 
L 1047.037161 156.07227 
L 936.96565 117.269086 
L 908.833865 107.600121 
L 880.024031 97.917568 
L 850.586402 88.308017 
L 841.989453 85.565233 
L 841.668112 86.572441 
L 830.313227 82.991415 
L 810.098752 76.745116 
L 789.659507 70.595007 
L 769.015831 64.572786 
L 748.209965 58.71425 
L 727.249515 53.071413 
L 706.153608 47.676311 
L 684.914993 42.566918 
L 663.553459 37.751338 
L 642.077834 33.25879 
L 620.517233 29.103361 
L 598.853496 25.344471 
L 577.0536 21.948656 
L 555.184299 18.895394 
L 533.293393 16.221326 
L 511.37596 13.944524 
L 489.462318 12.043318 
L 467.60094 10.528985 
L 445.812787 9.417906 
L 424.115672 8.696908 
L 402.577194 8.363826 
L 381.21737 8.447805 
L 360.060796 8.926182 
L 339.184598 9.784562 
L 328.877875 10.368816 
L 318.65678 11.066094 
L 298.464326 12.773908 
L 278.701145 14.847687 
L 269.02482 16.031002 
L 259.494692 17.323633 
L 250.106645 18.725242 
L 231.786761 21.791375 
L 222.911801 23.427779 
L 214.264743 25.13748 
L 205.853779 26.931388 
L 197.672197 28.808784 
L 182.006263 32.72027 
L 167.442758 36.71525 
L 154.032477 40.828343 
L 141.671903 44.998465 
L 130.337542 49.143098 
L 120.002809 53.261913 
L 110.568195 57.396612 
L 101.93327 61.530576 
L 94.070936 65.641868 
L 86.939585 69.750228 
L 80.500797 73.826882 
L 74.728548 77.862702 
L 69.615183 81.856 
L 65.189644 85.813363 
L 63.234692 87.780524 
L 59.802016 91.698752 
L 56.970921 95.525269 
L 55.811103 97.359974 
L 54.834218 99.155516 
L 54.030606 100.934554 
L 53.387139 102.697835 
L 52.897502 104.424711 
L 52.561328 106.11969 
L 52.379111 107.878509 
L 52.363636 109.416608 
L 52.509113 110.997032 
L 52.830092 112.523719 
L 53.346059 114.014309 
L 54.073353 115.490368 
L 55.010999 116.957112 
L 56.144879 118.402326 
L 57.470259 119.812093 
L 58.999371 121.181764 
L 60.746504 122.513528 
L 62.712318 123.80847 
L 64.891238 125.063991 
L 67.284095 126.278288 
L 69.89788 127.454687 
L 75.790474 129.716741 
L 82.554823 131.869085 
L 90.205114 133.911131 
L 98.786541 135.857993 
L 108.349742 137.727887 
L 118.990655 139.513327 
L 130.836856 141.234627 
L 144.022449 142.893411 
L 158.700295 144.493784 
L 174.963707 146.023089 
L 192.824937 147.453202 
L 212.157356 148.750802 
L 232.75042 149.896393 
L 258.594536 151.044149 
L 258.553422 152.100576 
L 276.772529 152.761634 
L 311.723045 153.74832 
L 335.569467 154.258502 
L 384.590624 154.9733 
L 422.041018 155.425738 
L 536.635316 156.289632 
L 600.455394 156.6527 
L 737.897482 157.573209 
L 773.96415 158.157087 
L 832.020761 159.300482 
L 876.468304 160.499568 
L 918.802722 162.045607 
L 939.004678 162.919967 
L 977.58439 164.901878 
L 995.692395 166.001167 
L 1029.767997 168.434761 
L 1052.719355 170.334953 
L 1066.465107 171.615366 
L 1084.11779 173.54007 
L 1099.636364 175.439274 
L 1099.460228 174.442594 
L 1099.460228 174.442594 
" clip-path="url(#p937f408f5f)" style="fill: none; stroke: #ff0000; stroke-width: 0.72; stroke-linejoin: miter"/>
   </g>
   <g id="patch_4">
    <path d="M 739.319248 60.675503 
L 735.239001 59.56409 
L 736.350414 55.483843 
L 740.430661 56.595256 
L 739.319248 60.675503 
" clip-path="url(#p937f408f5f)" style="fill: none; stroke: #ff0000; stroke-width: 0.72; stroke-linejoin: miter"/>
   </g>
   <g id="patch_5">
    <path d="M 343.979435 13.797588 
L 339.75499 13.991803 
L 339.560775 9.767359 
L 343.78522 9.573144 
L 343.979435 13.797588 
" clip-path="url(#p937f408f5f)" style="fill: none; stroke: #ff0000; stroke-width: 0.72; stroke-linejoin: miter"/>
   </g>
   <g id="patch_6">
    <path d="M 164.374564 42.044394 
L 160.322337 43.253983 
L 159.112748 39.201755 
L 163.164976 37.992167 
L 164.374564 42.044394 
" clip-path="url(#p937f408f5f)" style="fill: none; stroke: #ff0000; stroke-width: 0.72; stroke-linejoin: miter"/>
   </g>
   <g id="patch_7">
    <path d="M 73.623406 85.379494 
L 72.022419 86.760709 
L 68.569382 82.758241 
L 70.170369 81.377026 
L 73.623406 85.379494 
" clip-path="url(#p937f408f5f)" style="fill: none; stroke: #ff0000; stroke-width: 0.72; stroke-linejoin: miter"/>
   </g>
   <g id="patch_8">
    <path d="M 63.162933 117.77617 
L 64.930088 118.937237 
L 62.027421 123.355125 
L 60.260266 122.194057 
L 63.162933 117.77617 
" clip-path="url(#p937f408f5f)" style="fill: none; stroke: #ff0000; stroke-width: 0.72; stroke-linejoin: miter"/>
   </g>
   <g id="patch_9">
    <path d="M 204.308504 144.010719 
L 208.52877 144.280905 
L 208.258584 148.501172 
L 204.038317 148.230986 
L 204.308504 144.010719 
" clip-path="url(#p937f408f5f)" style="fill: none; stroke: #ff0000; stroke-width: 0.72; stroke-linejoin: miter"/>
   </g>
   <g id="line2d_1">
    <path d="M 1079.663159 167.441244 
L 1079.322295 168.442013 
" clip-path="url(#p937f408f5f)" style="fill: none; stroke: #ff0000; stroke-width: 0.72; stroke-linecap: square"/>
   </g>
   <g id="line2d_2">
    <path d="M 1078.644992 171.850732 
L 1078.577355 172.905793 
" clip-path="url(#p937f408f5f)" style="fill: none; stroke: #ff0000; stroke-width: 0.72; stroke-linecap: square"/>
   </g>
   <g id="line2d_3">
    <path d="M 1059.684505 160.516575 
L 1059.340956 161.516427 
" clip-path="url(#p937f408f5f)" style="fill: none; stroke: #ff0000; stroke-width: 0.72; stroke-linecap: square"/>
   </g>
   <g id="line2d_4">
    <path d="M 1057.620737 169.717331 
L 1057.533548 170.770957 
" clip-path="url(#p937f408f5f)" style="fill: none; stroke: #ff0000; stroke-width: 0.72; stroke-linecap: square"/>
   </g>
   <g id="line2d_5">
    <path d="M 979.94234 132.323729 
L 979.592884 133.321531 
" clip-path="url(#p937f408f5f)" style="fill: none; stroke: #ff0000; stroke-width: 0.72; stroke-linecap: square"/>
   </g>
   <g id="line2d_6">
    <path d="M 973.254545 163.611237 
L 973.174603 164.665436 
" clip-path="url(#p937f408f5f)" style="fill: none; stroke: #ff0000; stroke-width: 0.72; stroke-linecap: square"/>
   </g>
   <g id="patch_10">
    <path d="M 511.116582 82.272417 
L 511.000446 78.359549 
L 510.652501 74.462227 
L 510.074128 70.595934 
L 509.267626 66.776032 
L 508.236198 63.017696 
L 506.983943 59.33586 
L 505.515836 55.745149 
L 503.837709 52.259831 
L 501.956229 48.893752 
L 499.878872 45.660285 
L 497.613892 42.572278 
L 495.170286 39.641999 
L 492.557763 36.881089 
L 489.786702 34.300518 
L 486.868114 31.910538 
L 483.813592 29.720645 
L 480.635274 27.739538 
L 477.345787 25.97509 
L 473.958198 24.434309 
L 470.485968 23.123318 
L 466.942891 22.047325 
L 463.343044 21.210605 
L 459.700729 20.616482 
L 456.030417 20.267317 
L 452.346689 20.164497 
L 448.664182 20.308429 
L 444.997526 20.698544 
L 441.361287 21.33329 
L 437.769914 22.210145 
L 434.237674 23.325627 
L 430.778602 24.675303 
L 427.406439 26.253811 
L 424.134583 28.054879 
L 420.976033 30.071353 
L 417.943339 32.29522 
L 415.048548 34.717645 
L 412.303163 37.329005 
L 409.718089 40.118923 
L 407.303599 43.076316 
L 405.069283 46.189435 
L 403.02402 49.445911 
L 401.175935 52.832805 
L 399.532371 56.336662 
L 398.099856 59.943562 
L 396.884084 63.639173 
L 395.889883 67.408814 
L 395.121204 71.237508 
L 394.581101 75.110043 
L 394.271719 79.011034 
L 394.194289 82.924982 
L 394.349116 86.836338 
L 394.735587 90.729562 
L 395.352165 94.589185 
L 396.196402 98.399874 
L 397.264943 102.14649 
L 398.553542 105.814145 
L 400.057081 109.388271 
L 401.769585 112.854665 
L 403.684251 116.199557 
L 405.793473 119.409658 
L 408.088869 122.472212 
L 410.56132 125.375055 
L 413.201005 128.106651 
L 415.997434 130.656149 
L 418.939498 133.013419 
L 422.015509 135.169097 
L 425.213245 137.114617 
L 428.520002 138.842251 
L 431.922641 140.345134 
L 435.407646 141.617295 
L 438.961169 142.653681 
L 442.569092 143.450173 
L 446.217082 144.003607 
L 449.890645 144.311785 
L 453.575186 144.373482 
L 457.256066 144.188453 
L 460.918662 143.757432 
L 464.548422 143.082134 
L 468.130925 142.165239 
L 471.651937 141.010392 
L 475.097471 139.62218 
L 478.453836 138.006119 
L 481.707699 136.16863 
L 484.846131 134.117012 
L 487.856664 131.859416 
L 490.727337 129.404813 
L 493.446745 126.762953 
L 496.004083 123.944334 
L 498.389192 120.960153 
L 500.592595 117.822267 
L 502.605539 114.543142 
L 504.420025 111.135806 
L 506.028846 107.613796 
L 507.425609 103.991106 
L 508.604764 100.282128 
L 509.561628 96.501598 
L 510.292399 92.664536 
L 510.794173 88.786186 
L 511.064957 84.881957 
L 511.116582 82.272417 
L 511.116582 82.272417 
" clip-path="url(#p937f408f5f)" style="fill: none; stroke: #ff0000; stroke-width: 0.72; stroke-linejoin: miter"/>
   </g>
   <g id="line2d_7">
    <path d="M 69.132155 82.272417 
L 828.000468 82.272417 
" clip-path="url(#p937f408f5f)" style="fill: none; stroke: #ffffff; stroke-width: 0.72; stroke-linecap: square"/>
   </g>
   <g id="line2d_8">
    <path d="M 218.685642 82.272417 
L 231.372362 82.272417 
" clip-path="url(#p937f408f5f)" style="fill: none; stroke: #ffffff; stroke-width: 0.72; stroke-linecap: square"/>
   </g>
   <g id="patch_11">
    <path d="M 225.029002 76.986284 
L 230.315136 82.272417 
L 225.029002 87.558551 
L 219.742868 82.272417 
L 225.029002 76.986284 
" clip-path="url(#p937f408f5f)" style="fill: none; stroke: #ff0000; stroke-width: 0.72; stroke-linejoin: miter"/>
   </g>
   <g id="line2d_9">
    <path d="M 442.222951 82.272417 
L 454.909672 82.272417 
" clip-path="url(#p937f408f5f)" style="fill: none; stroke: #ffffff; stroke-width: 0.72; stroke-linecap: square"/>
   </g>
   <g id="patch_12">
    <path d="M 448.566312 76.986284 
L 453.852445 82.272417 
L 448.566312 87.558551 
L 443.280178 82.272417 
L 448.566312 76.986284 
" clip-path="url(#p937f408f5f)" style="fill: none; stroke: #ff0000; stroke-width: 0.72; stroke-linejoin: miter"/>
   </g>
   <g id="line2d_10">
    <path d="M 665.760261 82.272417 
L 678.446982 82.272417 
" clip-path="url(#p937f408f5f)" style="fill: none; stroke: #ffffff; stroke-width: 0.72; stroke-linecap: square"/>
   </g>
   <g id="patch_13">
    <path d="M 672.103621 76.986284 
L 677.389755 82.272417 
L 672.103621 87.558551 
L 666.817488 82.272417 
L 672.103621 76.986284 
" clip-path="url(#p937f408f5f)" style="fill: none; stroke: #ff0000; stroke-width: 0.72; stroke-linejoin: miter"/>
   </g>
   <g id="line2d_11">
    <path d="M 52.515777 106.559359 
L 1098.791963 174.201201 
" clip-path="url(#p937f408f5f)" style="fill: none; stroke: #ffffff; stroke-width: 0.72; stroke-linecap: square"/>
   </g>
   <g id="line2d_12">
    <path d="M 259.555464 119.944492 
L 272.215754 120.76298 
" clip-path="url(#p937f408f5f)" style="fill: none; stroke: #ffffff; stroke-width: 0.72; stroke-linecap: square"/>
   </g>
   <g id="patch_14">
    <path d="M 266.226646 115.078615 
L 271.16073 120.694773 
L 265.544572 125.628857 
L 260.610488 120.012699 
L 266.226646 115.078615 
" clip-path="url(#p937f408f5f)" style="fill: none; stroke: #ff0000; stroke-width: 0.72; stroke-linejoin: miter"/>
   </g>
   <g id="line2d_13">
    <path d="M 517.695682 136.633278 
L 530.355972 137.451767 
" clip-path="url(#p937f408f5f)" style="fill: none; stroke: #ffffff; stroke-width: 0.72; stroke-linecap: square"/>
   </g>
   <g id="patch_15">
    <path d="M 524.366864 131.767402 
L 529.300948 137.38356 
L 523.68479 142.317644 
L 518.750706 136.701486 
L 524.366864 131.767402 
" clip-path="url(#p937f408f5f)" style="fill: none; stroke: #ff0000; stroke-width: 0.72; stroke-linejoin: miter"/>
   </g>
   <g id="line2d_14">
    <path d="M 452.653822 20.16364 
L 452.653822 19.106413 
" clip-path="url(#p937f408f5f)" style="fill: none; stroke: #ff0000; stroke-width: 0.72; stroke-linecap: square"/>
   </g>
   <g id="line2d_15">
    <path d="M 452.653822 144.381195 
L 452.653822 145.438422 
" clip-path="url(#p937f408f5f)" style="fill: none; stroke: #ff0000; stroke-width: 0.72; stroke-linecap: square"/>
   </g>
   <g id="line2d_16">
    <path d="M 511.116582 82.272417 
L 512.173809 82.272417 
" clip-path="url(#p937f408f5f)" style="fill: none; stroke: #ff0000; stroke-width: 0.72; stroke-linecap: square"/>
   </g>
   <g id="line2d_17">
    <path d="M 394.191062 82.272417 
L 393.133835 82.272417 
" clip-path="url(#p937f408f5f)" style="fill: none; stroke: #ff0000; stroke-width: 0.72; stroke-linecap: square"/>
   </g>
   <g id="line2d_18">
    <path d="M 294.069816 153.278576 
L 294.069816 13.211823 
" clip-path="url(#p937f408f5f)" style="fill: none; stroke: #ffffff; stroke-width: 0.72; stroke-linecap: square"/>
   </g>
   <g id="line2d_19">
    <path d="M 294.069816 108.536981 
L 294.069816 95.85026 
" clip-path="url(#p937f408f5f)" style="fill: none; stroke: #ffffff; stroke-width: 0.72; stroke-linecap: square"/>
   </g>
   <g id="patch_16">
    <path d="M 288.783682 102.193621 
L 294.069816 96.907487 
L 299.355949 102.193621 
L 294.069816 107.479754 
L 288.783682 102.193621 
" clip-path="url(#p937f408f5f)" style="fill: none; stroke: #ff0000; stroke-width: 0.72; stroke-linejoin: miter"/>
   </g>
   <g id="line2d_20">
    <path d="M 294.069816 70.640139 
L 294.069816 57.953418 
" clip-path="url(#p937f408f5f)" style="fill: none; stroke: #ffffff; stroke-width: 0.72; stroke-linecap: square"/>
   </g>
   <g id="patch_17">
    <path d="M 288.783682 64.296779 
L 294.069816 59.010645 
L 299.355949 64.296779 
L 294.069816 69.582912 
L 288.783682 64.296779 
" clip-path="url(#p937f408f5f)" style="fill: none; stroke: #ff0000; stroke-width: 0.72; stroke-linejoin: miter"/>
   </g>
   <g id="line2d_21">
    <path d="M 769.821834 158.080623 
L 769.821834 64.806074 
" clip-path="url(#p937f408f5f)" style="fill: none; stroke: #ffffff; stroke-width: 0.72; stroke-linecap: square"/>
   </g>
   <g id="line2d_22">
    <path d="M 769.821834 129.716299 
L 769.821834 117.029578 
" clip-path="url(#p937f408f5f)" style="fill: none; stroke: #ffffff; stroke-width: 0.72; stroke-linecap: square"/>
   </g>
   <g id="patch_18">
    <path d="M 764.5357 123.372939 
L 769.821834 118.086805 
L 775.107967 123.372939 
L 769.821834 128.659072 
L 764.5357 123.372939 
" clip-path="url(#p937f408f5f)" style="fill: none; stroke: #ff0000; stroke-width: 0.72; stroke-linejoin: miter"/>
   </g>
   <g id="line2d_23">
    <path d="M 769.821834 105.857119 
L 769.821834 93.170398 
" clip-path="url(#p937f408f5f)" style="fill: none; stroke: #ffffff; stroke-width: 0.72; stroke-linecap: square"/>
   </g>
   <g id="patch_19">
    <path d="M 764.5357 99.513758 
L 769.821834 94.227625 
L 775.107967 99.513758 
L 769.821834 104.799892 
L 764.5357 99.513758 
" clip-path="url(#p937f408f5f)" style="fill: none; stroke: #ff0000; stroke-width: 0.72; stroke-linejoin: miter"/>
   </g>
   <g id="patch_20">
    <path d="M 347.555223 124.24945 
L 352.841356 124.24945 
L 352.841356 129.535583 
L 347.555223 129.535583 
L 347.555223 134.821717 
L 352.841356 134.821717 
" clip-path="url(#p937f408f5f)" style="fill: none; stroke: #ff0000; stroke-width: 0.72; stroke-linejoin: miter"/>
   </g>
   <g id="patch_21">
    <path d="M 355.484423 124.24945 
L 355.484423 129.535583 
L 360.770557 129.535583 
L 360.770557 124.24945 
L 360.770557 134.821717 
" clip-path="url(#p937f408f5f)" style="fill: none; stroke: #ff0000; stroke-width: 0.72; stroke-linejoin: miter"/>
   </g>
  </g>
 </g>
 <defs>
  <clipPath id="p937f408f5f">
   <rect x="0" y="0" width="1152" height="183.793525"/>
  </clipPath>
 </defs>
</svg>
