<?xml version="1.0" encoding="utf-8" standalone="no"?>
<!DOCTYPE svg PUBLIC "-//W3C//DTD SVG 1.1//EN"
  "http://www.w3.org/Graphics/SVG/1.1/DTD/svg11.dtd">
<svg xmlns:xlink="http://www.w3.org/1999/xlink" width="1152pt" height="209.546643pt" viewBox="0 0 1152 209.546643" xmlns="http://www.w3.org/2000/svg" version="1.1">
 <metadata>
  <rdf:RDF xmlns:dc="http://purl.org/dc/elements/1.1/" xmlns:cc="http://creativecommons.org/ns#" xmlns:rdf="http://www.w3.org/1999/02/22-rdf-syntax-ns#">
   <cc:Work>
    <dc:type rdf:resource="http://purl.org/dc/dcmitype/StillImage"/>
    <dc:date>2026-01-07T02:07:22.114037</dc:date>
    <dc:format>image/svg+xml</dc:format>
    <dc:creator>
     <cc:Agent>
      <dc:title>Matplotlib v3.10.1, https://matplotlib.org/</dc:title>
     </cc:Agent>
    </dc:creator>
   </cc:Work>
  </rdf:RDF>
 </metadata>
 <defs>
  <style type="text/css">*{stroke-linejoin: round; stroke-linecap: butt}</style>
 </defs>
 <g id="figure_1">
  <g id="patch_1">
   <path d="M 0 209.546643 
L 1152 209.546643 
L 1152 0 
L 0 0 
z
" style="fill: #ffffff"/>
  </g>
  <g id="axes_1">
   <g id="patch_2">
    <path d="M 0 209.546643 
L 1152 209.546643 
L 1152 0 
L 0 0 
z
" style="fill: #212830"/>
   </g>
   <g id="patch_3">
    <path d="M 1099.636364 108.095983 
L 1078.952376 101.522875 
L 1051.663866 93.125912 
L 1024.530443 85.112187 
L 997.490233 77.487516 
L 970.511338 70.269051 
L 943.526473 63.452795 
L 916.5308 57.030193 
L 889.50232 51.01582 
L 862.422539 45.401183 
L 835.294095 40.202639 
L 808.101485 35.401201 
L 780.861356 31.012643 
L 753.561246 27.033204 
L 726.198475 23.462812 
L 698.754777 20.292072 
L 671.266624 17.520998 
L 643.742302 15.153746 
L 616.212387 13.186738 
L 588.708859 11.63263 
L 561.273909 10.496625 
L 533.911417 9.791547 
L 506.662476 9.524847 
L 493.086671 9.557266 
L 479.554731 9.702495 
L 466.069216 9.966937 
L 452.623574 10.349964 
L 439.234218 10.847381 
L 425.900185 11.47032 
L 412.625745 12.210653 
L 399.424772 13.075156 
L 386.294432 14.065515 
L 373.251116 15.180728 
L 360.296372 16.428805 
L 347.433095 17.808795 
L 334.668641 19.319616 
L 322.019745 20.958784 
L 309.495983 22.733877 
L 297.09947 24.643321 
L 284.85182 26.67888 
L 272.777522 28.838016 
L 260.900256 31.121062 
L 249.235867 33.529093 
L 237.803869 36.054513 
L 226.636218 38.686714 
L 215.750945 41.425698 
L 205.170511 44.25495 
L 194.921545 47.160098 
L 185.031569 50.123872 
L 175.525696 53.134738 
L 166.417483 56.178498 
L 157.719801 59.243733 
L 149.428636 62.323629 
L 141.543578 65.405086 
L 134.049425 68.481534 
L 126.953995 71.534022 
L 120.240088 74.581777 
L 113.892755 77.61193 
L 107.910873 80.623612 
L 102.285363 83.616149 
L 97.025762 86.582207 
L 92.142292 89.515531 
L 87.629174 92.418318 
L 83.506461 95.245386 
L 79.779235 97.989728 
L 76.431683 100.644384 
L 73.431736 103.207782 
L 70.759773 105.652905 
L 66.185363 110.306217 
L 62.498612 114.550198 
L 59.553698 118.475143 
L 57.251207 122.18104 
L 55.465141 125.716612 
L 54.104437 129.085073 
L 53.129992 132.252583 
L 52.796358 133.671635 
L 52.425748 136.723503 
L 52.388722 139.558919 
L 52.519111 141.023436 
L 52.768726 142.500017 
L 53.149896 143.983334 
L 53.680661 145.476369 
L 54.381527 146.986018 
L 55.265691 148.51271 
L 56.336151 150.048408 
L 57.594862 151.58247 
L 59.051794 153.106912 
L 60.732101 154.621246 
L 62.668917 156.132166 
L 64.873637 157.640578 
L 67.353726 159.137515 
L 70.158925 160.617479 
L 73.335593 162.087901 
L 76.879336 163.556506 
L 80.751775 165.008089 
L 84.959313 166.413048 
L 89.491853 167.774498 
L 94.284028 169.089575 
L 99.324348 170.345563 
L 110.211518 172.721251 
L 122.080899 175.034929 
L 135.060498 177.211813 
L 149.428603 179.381008 
L 165.374345 181.51032 
L 183.282135 183.570829 
L 203.386581 185.57228 
L 225.687298 187.457183 
L 249.998202 189.151388 
L 276.016331 190.613695 
L 303.311887 191.840121 
L 325.497778 192.636556 
L 325.385344 196.050615 
L 345.87035 196.666627 
L 389.878923 197.75266 
L 419.499484 198.27595 
L 494.744011 199.264238 
L 540.119284 199.625162 
L 605.084814 200.021796 
L 1099.636364 108.095983 
L 1099.636364 108.095983 
" clip-path="url(#p8758e24723)" style="fill: none; stroke: #ff0000; stroke-width: 0.72; stroke-linejoin: miter"/>
   </g>
   <g id="patch_4">
    <path d="M 964.411389 78.109293 
L 955.58743 75.848031 
L 957.848692 67.024072 
L 966.672651 69.285334 
L 964.411389 78.109293 
" clip-path="url(#p8758e24723)" style="fill: none; stroke: #ff0000; stroke-width: 0.72; stroke-linejoin: miter"/>
   </g>
   <g id="patch_5">
    <path d="M 439.790238 19.94043 
L 430.691075 20.36562 
L 430.265885 11.266457 
L 439.365048 10.841267 
L 439.790238 19.94043 
" clip-path="url(#p8758e24723)" style="fill: none; stroke: #ff0000; stroke-width: 0.72; stroke-linejoin: miter"/>
   </g>
   <g id="patch_6">
    <path d="M 202.345009 54.524038 
L 193.581284 57.008523 
L 191.096799 48.244797 
L 199.860525 45.760312 
L 202.345009 54.524038 
" clip-path="url(#p8758e24723)" style="fill: none; stroke: #ff0000; stroke-width: 0.72; stroke-linejoin: miter"/>
   </g>
   <g id="patch_7">
    <path d="M 83.566877 109.524749 
L 80.10576 112.485247 
L 72.704513 103.832452 
L 76.165631 100.871954 
L 83.566877 109.524749 
" clip-path="url(#p8758e24723)" style="fill: none; stroke: #ff0000; stroke-width: 0.72; stroke-linejoin: miter"/>
   </g>
   <g id="patch_8">
    <path d="M 68.082845 146.042997 
L 71.84711 148.607016 
L 65.437061 158.017679 
L 61.672796 155.45366 
L 68.082845 146.042997 
" clip-path="url(#p8758e24723)" style="fill: none; stroke: #ff0000; stroke-width: 0.72; stroke-linejoin: miter"/>
   </g>
   <g id="patch_9">
    <path d="M 251.781312 180.131723 
L 260.874563 180.668694 
L 260.337592 189.761945 
L 251.244341 189.224974 
L 251.781312 180.131723 
" clip-path="url(#p8758e24723)" style="fill: none; stroke: #ff0000; stroke-width: 0.72; stroke-linejoin: miter"/>
   </g>
   <g id="patch_10">
    <path d="M 664.743687 104.03097 
L 664.580995 98.829116 
L 664.093566 93.647929 
L 663.283335 88.507993 
L 662.153523 83.42973 
L 660.708617 78.433315 
L 658.954359 73.538599 
L 656.897717 68.765028 
L 654.546864 64.131568 
L 651.911138 59.656628 
L 649.001012 55.357985 
L 645.828047 51.25272 
L 642.404849 47.357141 
L 638.74502 43.686726 
L 634.863098 40.256057 
L 630.774508 37.078765 
L 626.495492 34.167472 
L 622.043051 31.533745 
L 617.434876 29.188048 
L 612.689273 27.1397 
L 607.825097 25.396839 
L 602.861674 23.96639 
L 597.818722 22.854036 
L 592.716278 22.064195 
L 587.574613 21.600007 
L 582.414155 21.463315 
L 577.255407 21.654663 
L 572.118863 22.173289 
L 567.024932 23.017135 
L 561.993852 24.182846 
L 557.04561 25.665792 
L 552.199866 27.460082 
L 547.475872 29.558585 
L 542.892397 31.952966 
L 538.46765 34.633711 
L 534.219211 37.590169 
L 530.163958 40.810595 
L 526.318004 44.282195 
L 522.696628 47.991175 
L 519.314218 51.9228 
L 516.184212 56.061449 
L 513.319045 60.39068 
L 510.7301 64.893293 
L 508.427665 69.551399 
L 506.420885 74.346491 
L 504.717734 79.25952 
L 503.324979 84.270964 
L 502.248153 89.360915 
L 501.491533 94.50915 
L 501.058127 99.695214 
L 500.949656 104.898505 
L 501.16655 110.098348 
L 501.707949 115.274086 
L 502.571701 120.405156 
L 503.754375 125.471171 
L 505.251272 130.452005 
L 507.056444 135.327869 
L 509.162721 140.07939 
L 511.561732 144.687693 
L 514.243949 149.134467 
L 517.198713 153.402046 
L 520.414286 157.473474 
L 523.877893 161.332577 
L 527.575772 164.964022 
L 531.493233 168.353382 
L 535.61471 171.48719 
L 539.92383 174.352995 
L 544.403472 176.939414 
L 549.03584 179.236168 
L 553.802527 181.234134 
L 558.684598 182.925374 
L 563.662655 184.303168 
L 568.716921 185.362043 
L 573.827315 186.097791 
L 578.973534 186.507489 
L 584.135131 186.58951 
L 589.291601 186.343528 
L 594.422456 185.77052 
L 599.507311 184.872763 
L 604.525966 183.653823 
L 609.45848 182.118544 
L 614.285257 180.273024 
L 618.98712 178.124597 
L 623.545389 175.681797 
L 627.941954 172.95433 
L 632.159348 169.953032 
L 636.180814 166.689827 
L 639.990376 163.177681 
L 643.572899 159.430545 
L 646.914149 155.463309 
L 650.000851 151.291733 
L 652.820742 146.932391 
L 655.362619 142.402602 
L 657.616382 137.720365 
L 659.573079 132.904279 
L 661.224934 127.973481 
L 662.565385 122.94756 
L 663.589107 117.846484 
L 664.292031 112.690519 
L 664.671367 107.50015 
L 664.743687 104.03097 
L 664.743687 104.03097 
" clip-path="url(#p8758e24723)" style="fill: none; stroke: #ff0000; stroke-width: 0.72; stroke-linejoin: miter"/>
   </g>
   <g id="line2d_1">
    <path d="M 72.532179 104.03097 
L 1086.884088 104.03097 
" clip-path="url(#p8758e24723)" style="fill: none; stroke: #ffffff; stroke-width: 0.72; stroke-linecap: square"/>
   </g>
   <g id="line2d_2">
    <path d="M 270.620287 104.03097 
L 297.947563 104.03097 
" clip-path="url(#p8758e24723)" style="fill: none; stroke: #ffffff; stroke-width: 0.72; stroke-linecap: square"/>
   </g>
   <g id="patch_11">
    <path d="M 284.283925 92.644605 
L 295.67029 104.03097 
L 284.283925 115.417335 
L 272.89756 104.03097 
L 284.283925 92.644605 
" clip-path="url(#p8758e24723)" style="fill: none; stroke: #ff0000; stroke-width: 0.72; stroke-linejoin: miter"/>
   </g>
   <g id="line2d_3">
    <path d="M 566.044495 104.03097 
L 593.371771 104.03097 
" clip-path="url(#p8758e24723)" style="fill: none; stroke: #ffffff; stroke-width: 0.72; stroke-linecap: square"/>
   </g>
   <g id="patch_12">
    <path d="M 579.708133 92.644605 
L 591.094498 104.03097 
L 579.708133 115.417335 
L 568.321768 104.03097 
L 579.708133 92.644605 
" clip-path="url(#p8758e24723)" style="fill: none; stroke: #ff0000; stroke-width: 0.72; stroke-linejoin: miter"/>
   </g>
   <g id="line2d_4">
    <path d="M 861.468703 104.03097 
L 888.795979 104.03097 
" clip-path="url(#p8758e24723)" style="fill: none; stroke: #ffffff; stroke-width: 0.72; stroke-linecap: square"/>
   </g>
   <g id="patch_13">
    <path d="M 875.132341 92.644605 
L 886.518706 104.03097 
L 875.132341 115.417335 
L 863.745976 104.03097 
L 875.132341 92.644605 
" clip-path="url(#p8758e24723)" style="fill: none; stroke: #ff0000; stroke-width: 0.72; stroke-linejoin: miter"/>
   </g>
   <g id="line2d_5">
    <path d="M 52.496973 135.978905 
L 730.882449 176.638895 
" clip-path="url(#p8758e24723)" style="fill: none; stroke: #ffffff; stroke-width: 0.72; stroke-linecap: square"/>
   </g>
   <g id="line2d_6">
    <path d="M 183.400362 143.824784 
L 210.678684 145.459749 
" clip-path="url(#p8758e24723)" style="fill: none; stroke: #ffffff; stroke-width: 0.72; stroke-linecap: square"/>
   </g>
   <g id="patch_14">
    <path d="M 197.720758 133.276298 
L 208.405491 145.323502 
L 196.358288 156.008234 
L 185.673555 143.961031 
L 197.720758 133.276298 
" clip-path="url(#p8758e24723)" style="fill: none; stroke: #ff0000; stroke-width: 0.72; stroke-linejoin: miter"/>
   </g>
   <g id="line2d_7">
    <path d="M 345.608852 153.546978 
L 372.887175 155.181943 
" clip-path="url(#p8758e24723)" style="fill: none; stroke: #ffffff; stroke-width: 0.72; stroke-linecap: square"/>
   </g>
   <g id="patch_15">
    <path d="M 359.929248 142.998493 
L 370.613981 155.045696 
L 358.566778 165.730429 
L 347.882045 153.683226 
L 359.929248 142.998493 
" clip-path="url(#p8758e24723)" style="fill: none; stroke: #ff0000; stroke-width: 0.72; stroke-linejoin: miter"/>
   </g>
   <g id="line2d_8">
    <path d="M 582.844411 21.462176 
L 582.844411 19.184903 
" clip-path="url(#p8758e24723)" style="fill: none; stroke: #ff0000; stroke-width: 0.72; stroke-linecap: square"/>
   </g>
   <g id="line2d_9">
    <path d="M 582.844411 186.599765 
L 582.844411 188.877038 
" clip-path="url(#p8758e24723)" style="fill: none; stroke: #ff0000; stroke-width: 0.72; stroke-linecap: square"/>
   </g>
   <g id="line2d_10">
    <path d="M 664.743687 104.03097 
L 667.02096 104.03097 
" clip-path="url(#p8758e24723)" style="fill: none; stroke: #ff0000; stroke-width: 0.72; stroke-linecap: square"/>
   </g>
   <g id="line2d_11">
    <path d="M 500.945135 104.03097 
L 498.667862 104.03097 
" clip-path="url(#p8758e24723)" style="fill: none; stroke: #ff0000; stroke-width: 0.72; stroke-linecap: square"/>
   </g>
   <g id="line2d_12">
    <path d="M 400.662572 197.960771 
L 400.662572 12.994095 
" clip-path="url(#p8758e24723)" style="fill: none; stroke: #ffffff; stroke-width: 0.72; stroke-linecap: square"/>
   </g>
   <g id="line2d_13">
    <path d="M 400.662572 142.44539 
L 400.662572 115.118114 
" clip-path="url(#p8758e24723)" style="fill: none; stroke: #ffffff; stroke-width: 0.72; stroke-linecap: square"/>
   </g>
   <g id="patch_16">
    <path d="M 389.276208 128.781752 
L 400.662572 117.395387 
L 412.048937 128.781752 
L 400.662572 140.168117 
L 389.276208 128.781752 
" clip-path="url(#p8758e24723)" style="fill: none; stroke: #ff0000; stroke-width: 0.72; stroke-linejoin: miter"/>
   </g>
   <g id="line2d_14">
    <path d="M 400.662572 95.836752 
L 400.662572 68.509476 
" clip-path="url(#p8758e24723)" style="fill: none; stroke: #ffffff; stroke-width: 0.72; stroke-linecap: square"/>
   </g>
   <g id="patch_17">
    <path d="M 389.276208 82.173114 
L 400.662572 70.786749 
L 412.048937 82.173114 
L 400.662572 93.559479 
L 389.276208 82.173114 
" clip-path="url(#p8758e24723)" style="fill: none; stroke: #ff0000; stroke-width: 0.72; stroke-linejoin: miter"/>
   </g>
   <g id="line2d_15">
    <path d="M 878.889899 149.127698 
L 878.889899 48.776954 
" clip-path="url(#p8758e24723)" style="fill: none; stroke: #ffffff; stroke-width: 0.72; stroke-linecap: square"/>
   </g>
   <g id="line2d_16">
    <path d="M 878.889899 123.227893 
L 878.889899 95.900617 
" clip-path="url(#p8758e24723)" style="fill: none; stroke: #ffffff; stroke-width: 0.72; stroke-linecap: square"/>
   </g>
   <g id="patch_18">
    <path d="M 867.503534 109.564255 
L 878.889899 98.17789 
L 890.276264 109.564255 
L 878.889899 120.95062 
L 867.503534 109.564255 
" clip-path="url(#p8758e24723)" style="fill: none; stroke: #ff0000; stroke-width: 0.72; stroke-linejoin: miter"/>
   </g>
   <g id="line2d_17">
    <path d="M 878.889899 102.004035 
L 878.889899 74.676759 
" clip-path="url(#p8758e24723)" style="fill: none; stroke: #ffffff; stroke-width: 0.72; stroke-linecap: square"/>
   </g>
   <g id="patch_19">
    <path d="M 867.503534 88.340397 
L 878.889899 76.954032 
L 890.276264 88.340397 
L 878.889899 99.726762 
L 867.503534 88.340397 
" clip-path="url(#p8758e24723)" style="fill: none; stroke: #ff0000; stroke-width: 0.72; stroke-linejoin: miter"/>
   </g>
   <g id="patch_20">
    <path d="M 454.512766 151.117245 
L 449.95822 151.117245 
" clip-path="url(#p8758e24723)" style="fill: none; stroke: #ff0000; stroke-width: 0.72; stroke-linejoin: miter"/>
   </g>
   <g id="patch_21">
    <path d="M 447.680947 151.117245 
L 443.126401 151.117245 
L 443.126401 173.889975 
L 447.680947 173.889975 
" clip-path="url(#p8758e24723)" style="fill: none; stroke: #ff0000; stroke-width: 0.72; stroke-linejoin: miter"/>
   </g>
   <g id="patch_22">
    <path d="M 449.95822 173.889975 
L 454.512766 173.889975 
L 454.512766 162.50361 
L 449.95822 162.50361 
" clip-path="url(#p8758e24723)" style="fill: none; stroke: #ff0000; stroke-width: 0.72; stroke-linejoin: miter"/>
   </g>
   <g id="patch_23">
    <path d="M 447.680947 162.50361 
L 443.126401 162.50361 
" clip-path="url(#p8758e24723)" style="fill: none; stroke: #ff0000; stroke-width: 0.72; stroke-linejoin: miter"/>
   </g>
   <g id="patch_24">
    <path d="M 464.760495 151.117245 
L 460.205949 151.117245 
L 460.205949 173.889975 
L 464.760495 173.889975 
" clip-path="url(#p8758e24723)" style="fill: none; stroke: #ff0000; stroke-width: 0.72; stroke-linejoin: miter"/>
   </g>
   <g id="patch_25">
    <path d="M 467.037768 173.889975 
L 471.592314 173.889975 
L 471.592314 151.117245 
L 467.037768 151.117245 
" clip-path="url(#p8758e24723)" style="fill: none; stroke: #ff0000; stroke-width: 0.72; stroke-linejoin: miter"/>
   </g>
  </g>
 </g>
 <defs>
  <clipPath id="p8758e24723">
   <rect x="0" y="0" width="1152" height="209.546643"/>
  </clipPath>
 </defs>
</svg>
