<?xml version="1.0" encoding="utf-8" standalone="no"?>
<!DOCTYPE svg PUBLIC "-//W3C//DTD SVG 1.1//EN"
  "http://www.w3.org/Graphics/SVG/1.1/DTD/svg11.dtd">
<svg xmlns:xlink="http://www.w3.org/1999/xlink" width="1152pt" height="184.275484pt" viewBox="0 0 1152 184.275484" xmlns="http://www.w3.org/2000/svg" version="1.1">
 <metadata>
  <rdf:RDF xmlns:dc="http://purl.org/dc/elements/1.1/" xmlns:cc="http://creativecommons.org/ns#" xmlns:rdf="http://www.w3.org/1999/02/22-rdf-syntax-ns#">
   <cc:Work>
    <dc:type rdf:resource="http://purl.org/dc/dcmitype/StillImage"/>
    <dc:date>2026-01-07T02:07:18.472022</dc:date>
    <dc:format>image/svg+xml</dc:format>
    <dc:creator>
     <cc:Agent>
      <dc:title>Matplotlib v3.10.1, https://matplotlib.org/</dc:title>
     </cc:Agent>
    </dc:creator>
   </cc:Work>
  </rdf:RDF>
 </metadata>
 <defs>
  <style type="text/css">*{stroke-linejoin: round; stroke-linecap: butt}</style>
 </defs>
 <g id="figure_1">
  <g id="patch_1">
   <path d="M 0 184.275484 
L 1152 184.275484 
L 1152 0 
L 0 0 
z
" style="fill: #ffffff"/>
  </g>
  <g id="axes_1">
   <g id="patch_2">
    <path d="M 0 184.275484 
L 1152 184.275484 
L 1152 0 
L 0 0 
z
" style="fill: #212830"/>
   </g>
   <g id="patch_3">
    <path d="M 1099.442368 175.154216 
L 1082.066672 168.934303 
L 1066.042603 163.406116 
L 1037.664908 153.665228 
L 1006.216505 142.610324 
L 962.190517 126.839264 
L 906.555246 106.891774 
L 873.668856 95.333868 
L 852.02475 87.902731 
L 841.875419 84.481043 
L 841.427839 85.808646 
L 830.174758 82.065837 
L 808.991365 75.204127 
L 787.982569 68.662667 
L 767.097828 62.455632 
L 746.287589 56.582854 
L 725.513239 51.049206 
L 704.741811 45.850385 
L 683.954506 40.990344 
L 663.132728 36.464792 
L 642.272799 32.277579 
L 621.365082 28.425927 
L 600.415703 24.913213 
L 579.421356 21.738562 
L 558.38539 18.907582 
L 537.281009 16.415277 
L 516.12538 14.254755 
L 494.92562 12.427914 
L 473.715889 10.930669 
L 452.519629 9.772725 
L 431.368811 8.954189 
L 410.286586 8.48813 
L 389.299824 8.376158 
L 368.434721 8.632804 
L 347.719699 9.26119 
L 327.186873 10.276956 
L 306.872493 11.684042 
L 286.816773 13.498742 
L 276.900552 14.55901 
L 267.069993 15.724329 
L 257.327967 16.996992 
L 247.681833 18.375324 
L 238.143893 19.859566 
L 228.721975 21.452173 
L 219.422837 23.151383 
L 210.265919 24.950204 
L 201.27444 26.847554 
L 192.462354 28.844622 
L 183.845299 30.934217 
L 175.451498 33.106074 
L 167.305995 35.356638 
L 159.426139 37.679006 
L 151.836029 40.056338 
L 144.565208 42.473681 
L 137.633433 44.921854 
L 131.053743 47.384703 
L 124.841457 49.841656 
L 119.006781 52.279383 
L 108.456731 57.055128 
L 99.340493 61.619956 
L 91.527971 65.946173 
L 84.849027 70.016661 
L 79.146069 73.847414 
L 74.267117 77.466564 
L 70.097216 80.89628 
L 66.528481 84.187452 
L 63.439607 87.348065 
L 60.763476 90.335816 
L 58.507874 93.156585 
L 56.672634 95.888058 
L 55.2018 98.585034 
L 54.038262 101.212283 
L 53.174129 103.721998 
L 52.624221 106.122834 
L 52.37566 108.5543 
L 52.420336 110.750471 
L 52.783869 113.039255 
L 53.113311 114.168497 
L 53.55687 115.292111 
L 54.797844 117.520542 
L 56.473736 119.685998 
L 58.563952 121.743638 
L 61.101992 123.684917 
L 64.097465 125.528712 
L 67.54577 127.292209 
L 71.494255 128.980364 
L 76.033966 130.611471 
L 81.264643 132.225067 
L 87.316933 133.850092 
L 94.387834 135.499158 
L 102.723392 137.189234 
L 112.614991 138.91827 
L 124.378125 140.671347 
L 138.244662 142.411851 
L 154.281833 144.076609 
L 172.296364 145.599111 
L 191.931389 146.930355 
L 212.787468 148.045667 
L 234.556033 148.953166 
L 258.280377 149.735131 
L 258.237673 151.135501 
L 291.442022 152.038999 
L 338.320607 152.856759 
L 373.752087 153.384539 
L 469.335155 154.260808 
L 600.373497 155.061175 
L 647.728006 155.303321 
L 694.743113 155.730104 
L 729.635358 156.072502 
L 764.546861 156.342522 
L 811.080755 157.002706 
L 857.45698 158.171214 
L 880.403959 158.910047 
L 926.28521 160.833314 
L 948.784096 162.030783 
L 982.553937 164.20602 
L 1004.513679 165.802875 
L 1025.807023 167.583992 
L 1046.012513 169.488699 
L 1064.681462 171.549111 
L 1088.753423 174.480581 
L 1099.636364 175.899326 
L 1099.442368 175.154216 
L 1099.442368 175.154216 
" clip-path="url(#pdc68846162)" style="fill: none; stroke: #ff0000; stroke-width: 0.72; stroke-linejoin: miter"/>
   </g>
   <g id="patch_4">
    <path d="M 739.450281 60.539423 
L 734.040473 59.076647 
L 735.50325 53.666838 
L 740.913058 55.129615 
L 739.450281 60.539423 
" clip-path="url(#pdc68846162)" style="fill: none; stroke: #ff0000; stroke-width: 0.72; stroke-linejoin: miter"/>
   </g>
   <g id="patch_5">
    <path d="M 344.401324 15.018923 
L 338.802812 15.268742 
L 338.552993 9.670231 
L 344.151504 9.420411 
L 344.401324 15.018923 
" clip-path="url(#pdc68846162)" style="fill: none; stroke: #ff0000; stroke-width: 0.72; stroke-linejoin: miter"/>
   </g>
   <g id="patch_6">
    <path d="M 165.218167 41.814517 
L 159.842742 43.398987 
L 158.258272 38.023563 
L 163.633696 36.439092 
L 165.218167 41.814517 
" clip-path="url(#pdc68846162)" style="fill: none; stroke: #ff0000; stroke-width: 0.72; stroke-linejoin: miter"/>
   </g>
   <g id="patch_7">
    <path d="M 75.033937 85.878276 
L 72.948577 87.749827 
L 68.269698 82.536426 
L 70.355058 80.664874 
L 75.033937 85.878276 
" clip-path="url(#pdc68846162)" style="fill: none; stroke: #ff0000; stroke-width: 0.72; stroke-linejoin: miter"/>
   </g>
   <g id="patch_8">
    <path d="M 63.907776 117.071482 
L 66.183046 118.706896 
L 62.09451 124.395071 
L 59.819239 122.759657 
L 63.907776 117.071482 
" clip-path="url(#pdc68846162)" style="fill: none; stroke: #ff0000; stroke-width: 0.72; stroke-linejoin: miter"/>
   </g>
   <g id="patch_9">
    <path d="M 203.253615 141.955167 
L 208.850629 142.236551 
L 208.569245 147.833565 
L 202.972231 147.552181 
L 203.253615 141.955167 
" clip-path="url(#pdc68846162)" style="fill: none; stroke: #ff0000; stroke-width: 0.72; stroke-linejoin: miter"/>
   </g>
   <g id="line2d_1">
    <path d="M 1073.140799 165.82928 
L 1072.687528 167.154952 
" clip-path="url(#pdc68846162)" style="fill: none; stroke: #ff0000; stroke-width: 0.72; stroke-linecap: square"/>
   </g>
   <g id="line2d_2">
    <path d="M 1071.871135 170.996223 
L 1071.745982 172.391643 
" clip-path="url(#pdc68846162)" style="fill: none; stroke: #ff0000; stroke-width: 0.72; stroke-linecap: square"/>
   </g>
   <g id="line2d_3">
    <path d="M 1046.627227 156.764297 
L 1046.173967 158.089972 
" clip-path="url(#pdc68846162)" style="fill: none; stroke: #ff0000; stroke-width: 0.72; stroke-linecap: square"/>
   </g>
   <g id="line2d_4">
    <path d="M 1044.035469 167.888228 
L 1043.895157 169.282205 
" clip-path="url(#pdc68846162)" style="fill: none; stroke: #ff0000; stroke-width: 0.72; stroke-linecap: square"/>
   </g>
   <g id="line2d_5">
    <path d="M 941.017986 119.219671 
L 940.554028 120.54164 
" clip-path="url(#pdc68846162)" style="fill: none; stroke: #ff0000; stroke-width: 0.72; stroke-linecap: square"/>
   </g>
   <g id="line2d_6">
    <path d="M 932.211837 159.724316 
L 932.097053 161.120626 
" clip-path="url(#pdc68846162)" style="fill: none; stroke: #ff0000; stroke-width: 0.72; stroke-linecap: square"/>
   </g>
   <g id="patch_10">
    <path d="M 505.618949 81.339257 
L 505.513246 77.779191 
L 505.196555 74.233269 
L 504.670134 70.715579 
L 503.936077 67.240097 
L 502.997297 63.82063 
L 501.857526 60.470765 
L 500.521292 57.203809 
L 498.993904 54.032743 
L 497.281429 50.970165 
L 495.390672 48.028243 
L 493.329144 45.218665 
L 491.105036 42.552593 
L 488.727184 40.04062 
L 486.205035 37.692725 
L 483.54861 35.518236 
L 480.768462 33.525794 
L 477.875638 31.723313 
L 474.88163 30.117956 
L 471.798333 28.716099 
L 468.637997 27.523313 
L 465.413179 26.544337 
L 462.13669 25.783059 
L 458.821547 25.242505 
L 455.480922 24.924822 
L 452.128087 24.831272 
L 448.776363 24.962227 
L 445.439065 25.317167 
L 442.129454 25.894682 
L 438.860677 26.692476 
L 435.645722 27.707381 
L 432.497362 28.935363 
L 429.428105 30.371546 
L 426.450145 32.010222 
L 423.575314 33.844881 
L 420.815032 35.868234 
L 418.180267 38.072242 
L 415.681487 40.448149 
L 413.328619 42.986516 
L 411.131011 45.677257 
L 409.097394 48.509682 
L 407.235848 51.472539 
L 405.553768 54.554055 
L 404.057837 57.741989 
L 402.753999 61.023674 
L 401.647434 64.386072 
L 400.742538 67.815824 
L 400.042906 71.299305 
L 399.551317 74.822675 
L 399.269726 78.371935 
L 399.199251 81.932983 
L 399.340171 85.491673 
L 399.691926 89.033866 
L 400.253121 92.545488 
L 401.021523 96.012588 
L 401.994082 99.421391 
L 403.166932 102.758354 
L 404.535415 106.01022 
L 406.094093 109.164068 
L 407.836773 112.207369 
L 409.756533 115.128032 
L 411.845744 117.914453 
L 414.096107 120.555561 
L 416.49868 123.040864 
L 419.043919 125.360488 
L 421.721711 127.505216 
L 424.521418 129.466528 
L 427.431916 131.236631 
L 430.441642 132.808493 
L 433.538638 134.175869 
L 436.7106 135.333327 
L 439.944926 136.276267 
L 443.228767 137.000944 
L 446.549074 137.504478 
L 449.892658 137.784869 
L 453.246234 137.841003 
L 456.596477 137.672657 
L 459.930079 137.280499 
L 463.233794 136.666089 
L 466.494497 135.831866 
L 469.699233 134.781145 
L 472.83527 133.518101 
L 475.890149 132.047751 
L 478.851732 130.375938 
L 481.708253 128.509303 
L 484.448364 126.455263 
L 487.061177 124.221978 
L 489.536313 121.818321 
L 491.863937 119.253841 
L 494.034802 116.538728 
L 496.040284 113.683768 
L 497.872414 110.700304 
L 499.523914 107.600189 
L 500.988221 104.39574 
L 502.259519 101.099688 
L 503.332757 97.725129 
L 504.20367 94.285469 
L 504.868799 90.794374 
L 505.325501 87.265714 
L 505.571961 83.713508 
L 505.618949 81.339257 
L 505.618949 81.339257 
" clip-path="url(#pdc68846162)" style="fill: none; stroke: #ff0000; stroke-width: 0.72; stroke-linejoin: miter"/>
   </g>
   <g id="line2d_7">
    <path d="M 69.603294 81.339257 
L 827.952007 81.339257 
" clip-path="url(#pdc68846162)" style="fill: none; stroke: #ffffff; stroke-width: 0.72; stroke-linecap: square"/>
   </g>
   <g id="line2d_8">
    <path d="M 218.330893 81.339257 
L 235.14314 81.339257 
" clip-path="url(#pdc68846162)" style="fill: none; stroke: #ffffff; stroke-width: 0.72; stroke-linecap: square"/>
   </g>
   <g id="patch_11">
    <path d="M 226.737017 74.334154 
L 233.74212 81.339257 
L 226.737017 88.34436 
L 219.731914 81.339257 
L 226.737017 74.334154 
" clip-path="url(#pdc68846162)" style="fill: none; stroke: #ff0000; stroke-width: 0.72; stroke-linejoin: miter"/>
   </g>
   <g id="line2d_9">
    <path d="M 440.371527 81.339257 
L 457.183774 81.339257 
" clip-path="url(#pdc68846162)" style="fill: none; stroke: #ffffff; stroke-width: 0.72; stroke-linecap: square"/>
   </g>
   <g id="patch_12">
    <path d="M 448.77765 74.334154 
L 455.782753 81.339257 
L 448.77765 88.34436 
L 441.772547 81.339257 
L 448.77765 74.334154 
" clip-path="url(#pdc68846162)" style="fill: none; stroke: #ff0000; stroke-width: 0.72; stroke-linejoin: miter"/>
   </g>
   <g id="line2d_10">
    <path d="M 662.41216 81.339257 
L 679.224407 81.339257 
" clip-path="url(#pdc68846162)" style="fill: none; stroke: #ffffff; stroke-width: 0.72; stroke-linecap: square"/>
   </g>
   <g id="patch_13">
    <path d="M 670.818284 74.334154 
L 677.823387 81.339257 
L 670.818284 88.34436 
L 663.813181 81.339257 
L 670.818284 74.334154 
" clip-path="url(#pdc68846162)" style="fill: none; stroke: #ff0000; stroke-width: 0.72; stroke-linejoin: miter"/>
   </g>
   <g id="line2d_11">
    <path d="M 52.447914 107.541958 
L 1098.520031 174.82174 
" clip-path="url(#pdc68846162)" style="fill: none; stroke: #ffffff; stroke-width: 0.72; stroke-linecap: square"/>
   </g>
   <g id="line2d_12">
    <path d="M 258.72626 120.809076 
L 275.503842 121.888153 
" clip-path="url(#pdc68846162)" style="fill: none; stroke: #ffffff; stroke-width: 0.72; stroke-linecap: square"/>
   </g>
   <g id="patch_14">
    <path d="M 267.564667 114.357955 
L 274.10571 121.79823 
L 266.665436 128.339273 
L 260.124392 120.898999 
L 267.564667 114.357955 
" clip-path="url(#pdc68846162)" style="fill: none; stroke: #ff0000; stroke-width: 0.72; stroke-linejoin: miter"/>
   </g>
   <g id="line2d_13">
    <path d="M 515.700361 137.336772 
L 532.477943 138.415848 
" clip-path="url(#pdc68846162)" style="fill: none; stroke: #ffffff; stroke-width: 0.72; stroke-linecap: square"/>
   </g>
   <g id="patch_15">
    <path d="M 524.538768 130.885651 
L 531.079811 138.325925 
L 523.639537 144.866969 
L 517.098493 137.426695 
L 524.538768 130.885651 
" clip-path="url(#pdc68846162)" style="fill: none; stroke: #ff0000; stroke-width: 0.72; stroke-linejoin: miter"/>
   </g>
   <g id="line2d_14">
    <path d="M 452.407631 24.830493 
L 452.407631 23.429472 
" clip-path="url(#pdc68846162)" style="fill: none; stroke: #ff0000; stroke-width: 0.72; stroke-linecap: square"/>
   </g>
   <g id="line2d_15">
    <path d="M 452.407631 137.848021 
L 452.407631 139.249042 
" clip-path="url(#pdc68846162)" style="fill: none; stroke: #ff0000; stroke-width: 0.72; stroke-linecap: square"/>
   </g>
   <g id="line2d_16">
    <path d="M 505.618949 81.339257 
L 507.01997 81.339257 
" clip-path="url(#pdc68846162)" style="fill: none; stroke: #ff0000; stroke-width: 0.72; stroke-linecap: square"/>
   </g>
   <g id="line2d_17">
    <path d="M 399.196313 81.339257 
L 397.795293 81.339257 
" clip-path="url(#pdc68846162)" style="fill: none; stroke: #ff0000; stroke-width: 0.72; stroke-linecap: square"/>
   </g>
   <g id="line2d_18">
    <path d="M 242.254544 149.217502 
L 242.254544 19.219889 
" clip-path="url(#pdc68846162)" style="fill: none; stroke: #ffffff; stroke-width: 0.72; stroke-linecap: square"/>
   </g>
   <g id="line2d_19">
    <path d="M 242.254544 109.392471 
L 242.254544 92.580223 
" clip-path="url(#pdc68846162)" style="fill: none; stroke: #ffffff; stroke-width: 0.72; stroke-linecap: square"/>
   </g>
   <g id="patch_16">
    <path d="M 235.249441 100.986347 
L 242.254544 93.981244 
L 249.259646 100.986347 
L 242.254544 107.99145 
L 235.249441 100.986347 
" clip-path="url(#pdc68846162)" style="fill: none; stroke: #ff0000; stroke-width: 0.72; stroke-linejoin: miter"/>
   </g>
   <g id="line2d_20">
    <path d="M 242.254544 75.857167 
L 242.254544 59.04492 
" clip-path="url(#pdc68846162)" style="fill: none; stroke: #ffffff; stroke-width: 0.72; stroke-linecap: square"/>
   </g>
   <g id="patch_17">
    <path d="M 235.249441 67.451043 
L 242.254544 60.445941 
L 249.259646 67.451043 
L 242.254544 74.456146 
L 235.249441 67.451043 
" clip-path="url(#pdc68846162)" style="fill: none; stroke: #ff0000; stroke-width: 0.72; stroke-linejoin: miter"/>
   </g>
   <g id="line2d_21">
    <path d="M 872.713807 158.640964 
L 872.713807 95.004104 
" clip-path="url(#pdc68846162)" style="fill: none; stroke: #ffffff; stroke-width: 0.72; stroke-linecap: square"/>
   </g>
   <g id="line2d_22">
    <path d="M 872.713807 142.042196 
L 872.713807 125.229949 
" clip-path="url(#pdc68846162)" style="fill: none; stroke: #ffffff; stroke-width: 0.72; stroke-linecap: square"/>
   </g>
   <g id="patch_18">
    <path d="M 865.708704 133.636073 
L 872.713807 126.63097 
L 879.71891 133.636073 
L 872.713807 140.641176 
L 865.708704 133.636073 
" clip-path="url(#pdc68846162)" style="fill: none; stroke: #ff0000; stroke-width: 0.72; stroke-linejoin: miter"/>
   </g>
   <g id="line2d_23">
    <path d="M 872.713807 128.415119 
L 872.713807 111.602872 
" clip-path="url(#pdc68846162)" style="fill: none; stroke: #ffffff; stroke-width: 0.72; stroke-linecap: square"/>
   </g>
   <g id="patch_19">
    <path d="M 865.708704 120.008995 
L 872.713807 113.003892 
L 879.71891 120.008995 
L 872.713807 127.014098 
L 865.708704 120.008995 
" clip-path="url(#pdc68846162)" style="fill: none; stroke: #ff0000; stroke-width: 0.72; stroke-linejoin: miter"/>
   </g>
   <g id="patch_20">
    <path d="M 347.259763 119.902985 
L 347.259763 126.908088 
L 354.264866 126.908088 
L 354.264866 119.902985 
L 354.264866 133.913191 
" clip-path="url(#pdc68846162)" style="fill: none; stroke: #ff0000; stroke-width: 0.72; stroke-linejoin: miter"/>
   </g>
   <g id="patch_21">
    <path d="M 364.77252 126.908088 
L 361.970479 126.908088 
" clip-path="url(#pdc68846162)" style="fill: none; stroke: #ff0000; stroke-width: 0.72; stroke-linejoin: miter"/>
   </g>
   <g id="patch_22">
    <path d="M 360.569458 126.908088 
L 357.767417 126.908088 
L 357.767417 119.902985 
L 360.569458 119.902985 
" clip-path="url(#pdc68846162)" style="fill: none; stroke: #ff0000; stroke-width: 0.72; stroke-linejoin: miter"/>
   </g>
   <g id="patch_23">
    <path d="M 361.970479 119.902985 
L 364.77252 119.902985 
L 364.77252 133.913191 
L 361.970479 133.913191 
" clip-path="url(#pdc68846162)" style="fill: none; stroke: #ff0000; stroke-width: 0.72; stroke-linejoin: miter"/>
   </g>
   <g id="patch_24">
    <path d="M 360.569458 133.913191 
L 357.767417 133.913191 
" clip-path="url(#pdc68846162)" style="fill: none; stroke: #ff0000; stroke-width: 0.72; stroke-linejoin: miter"/>
   </g>
  </g>
 </g>
 <defs>
  <clipPath id="pdc68846162">
   <rect x="0" y="0" width="1152" height="184.275484"/>
  </clipPath>
 </defs>
</svg>
