<?xml version="1.0" encoding="utf-8" standalone="no"?>
<!DOCTYPE svg PUBLIC "-//W3C//DTD SVG 1.1//EN"
  "http://www.w3.org/Graphics/SVG/1.1/DTD/svg11.dtd">
<svg xmlns:xlink="http://www.w3.org/1999/xlink" width="1152pt" height="319.946751pt" viewBox="0 0 1152 319.946751" xmlns="http://www.w3.org/2000/svg" version="1.1">
 <metadata>
  <rdf:RDF xmlns:dc="http://purl.org/dc/elements/1.1/" xmlns:cc="http://creativecommons.org/ns#" xmlns:rdf="http://www.w3.org/1999/02/22-rdf-syntax-ns#">
   <cc:Work>
    <dc:type rdf:resource="http://purl.org/dc/dcmitype/StillImage"/>
    <dc:date>2026-01-07T02:07:20.903522</dc:date>
    <dc:format>image/svg+xml</dc:format>
    <dc:creator>
     <cc:Agent>
      <dc:title>Matplotlib v3.10.1, https://matplotlib.org/</dc:title>
     </cc:Agent>
    </dc:creator>
   </cc:Work>
  </rdf:RDF>
 </metadata>
 <defs>
  <style type="text/css">*{stroke-linejoin: round; stroke-linecap: butt}</style>
 </defs>
 <g id="figure_1">
  <g id="patch_1">
   <path d="M 0 319.946751 
L 1152 319.946751 
L 1152 0 
L 0 0 
z
" style="fill: #ffffff"/>
  </g>
  <g id="axes_1">
   <g id="patch_2">
    <path d="M 0 319.946751 
L 1152 319.946751 
L 1152 0 
L 0 0 
z
" style="fill: #212830"/>
   </g>
   <g id="patch_3">
    <path d="M 1099.636364 40.93475 
L 1080.257956 38.244955 
L 1059.301374 35.513038 
L 1038.307076 32.949759 
L 1017.27944 30.550439 
L 996.228184 28.315732 
L 975.155619 26.248484 
L 954.058794 24.348277 
L 932.943487 22.610901 
L 911.824755 21.036494 
L 890.711909 19.62962 
L 869.604694 18.392994 
L 848.507089 17.323933 
L 827.433076 16.422886 
L 806.39336 15.694075 
L 785.387338 15.142326 
L 764.416401 14.766042 
L 743.493643 14.564725 
L 722.630276 14.543034 
L 701.827822 14.70617 
L 681.08681 15.053961 
L 660.420636 15.58545 
L 639.8431 16.305003 
L 619.356063 17.218949 
L 598.962798 18.327287 
L 578.678223 19.628851 
L 558.518672 21.128575 
L 538.487095 22.833172 
L 518.590384 24.741304 
L 498.849137 26.852033 
L 479.278859 29.171842 
L 459.885001 31.705324 
L 440.682471 34.4491 
L 421.695934 37.403607 
L 402.940639 40.57378 
L 384.42983 43.956142 
L 366.202882 47.536632 
L 348.306159 51.313038 
L 330.766819 55.287851 
L 313.616096 59.446719 
L 296.910877 63.769 
L 280.700679 68.247674 
L 265.019433 72.869157 
L 249.915636 77.599751 
L 235.448568 82.40949 
L 221.656807 87.280326 
L 208.566061 92.180179 
L 196.20752 97.067804 
L 184.601509 101.916613 
L 173.743332 106.708121 
L 163.617916 111.415002 
L 154.209226 116.012297 
L 145.491169 120.491295 
L 137.423634 124.852208 
L 129.960822 129.09086 
L 123.06171 133.199586 
L 116.688701 137.179074 
L 110.802088 141.038381 
L 105.361868 144.786884 
L 100.330055 148.430514 
L 95.676565 151.970668 
L 91.376762 155.413512 
L 87.406921 158.771474 
L 83.736348 162.062979 
L 80.332121 165.295162 
L 74.205257 171.56374 
L 68.902701 177.482828 
L 66.5676 180.302864 
L 64.449614 183.049332 
L 62.544324 185.747392 
L 60.836411 188.423479 
L 59.307573 191.086084 
L 57.939429 193.732269 
L 55.648491 198.90127 
L 54.724148 201.39382 
L 53.952814 203.818262 
L 53.337272 206.18392 
L 52.876612 208.501582 
L 52.566048 210.780698 
L 52.387054 213.288268 
L 52.363636 215.260469 
L 52.471307 217.504531 
L 52.732888 219.729336 
L 53.166427 221.925884 
L 53.797174 224.102522 
L 54.649756 226.272654 
L 55.736593 228.440876 
L 57.053303 230.599785 
L 58.584326 232.733006 
L 60.31826 234.825276 
L 62.253841 236.865658 
L 64.402578 238.850976 
L 66.776792 240.78238 
L 69.384881 242.66478 
L 72.224164 244.50297 
L 75.291393 246.30202 
L 78.58237 248.06361 
L 82.106531 249.788497 
L 85.878296 251.476867 
L 89.922699 253.131105 
L 94.26408 254.757735 
L 98.926006 256.36646 
L 103.933887 257.967908 
L 115.101011 261.18135 
L 121.340662 262.800677 
L 128.087407 264.431813 
L 135.399673 266.079681 
L 143.341292 267.748996 
L 151.979771 269.44153 
L 161.391699 271.154167 
L 171.660101 272.881755 
L 182.864326 274.621955 
L 195.070189 276.370704 
L 208.327726 278.114748 
L 222.670589 279.835156 
L 238.105787 281.517432 
L 254.596619 283.149354 
L 272.074905 284.709708 
L 290.462787 286.180651 
L 309.662152 287.557011 
L 329.558773 288.83138 
L 350.060677 289.995044 
L 371.089027 291.052306 
L 392.56324 292.008062 
L 436.706631 293.624101 
L 461.68869 294.416891 
L 461.586553 297.76622 
L 504.807575 299.024257 
L 550.796919 300.01619 
L 668.146093 301.948511 
L 715.2649 302.487619 
L 905.778785 304.151396 
L 1000.723996 304.812292 
L 1099.636364 305.403717 
L 1099.636364 40.93475 
L 1099.636364 40.93475 
" clip-path="url(#p91bcae364a)" style="fill: none; stroke: #ff0000; stroke-width: 0.72; stroke-linejoin: miter"/>
   </g>
   <g id="patch_4">
    <path d="M 655.643973 230.234537 
L 638.889543 230.234537 
L 638.889543 246.988967 
L 655.643973 246.988967 
L 655.643973 263.743396 
L 638.889543 263.743396 
" clip-path="url(#p91bcae364a)" style="fill: none; stroke: #ff0000; stroke-width: 0.72; stroke-linejoin: miter"/>
   </g>
   <g id="patch_5">
    <path d="M 680.775617 230.234537 
L 674.073845 230.234537 
" clip-path="url(#p91bcae364a)" style="fill: none; stroke: #ff0000; stroke-width: 0.72; stroke-linejoin: miter"/>
   </g>
   <g id="patch_6">
    <path d="M 670.722959 230.234537 
L 664.021188 230.234537 
L 664.021188 263.743396 
L 670.722959 263.743396 
" clip-path="url(#p91bcae364a)" style="fill: none; stroke: #ff0000; stroke-width: 0.72; stroke-linejoin: miter"/>
   </g>
   <g id="patch_7">
    <path d="M 674.073845 263.743396 
L 680.775617 263.743396 
L 680.775617 246.988967 
L 674.073845 246.988967 
" clip-path="url(#p91bcae364a)" style="fill: none; stroke: #ff0000; stroke-width: 0.72; stroke-linejoin: miter"/>
   </g>
   <g id="patch_8">
    <path d="M 670.722959 246.988967 
L 664.021188 246.988967 
" clip-path="url(#p91bcae364a)" style="fill: none; stroke: #ff0000; stroke-width: 0.72; stroke-linejoin: miter"/>
   </g>
   <g id="patch_9">
    <path d="M 634.453218 29.962395 
L 621.062999 30.5599 
L 620.465493 17.169681 
L 633.855713 16.572175 
L 634.453218 29.962395 
" clip-path="url(#p91bcae364a)" style="fill: none; stroke: #ff0000; stroke-width: 0.72; stroke-linejoin: miter"/>
   </g>
   <g id="patch_10">
    <path d="M 278.250977 82.943451 
L 265.394324 86.733103 
L 261.604672 73.87645 
L 274.461326 70.086798 
L 278.250977 82.943451 
" clip-path="url(#p91bcae364a)" style="fill: none; stroke: #ff0000; stroke-width: 0.72; stroke-linejoin: miter"/>
   </g>
   <g id="patch_11">
    <path d="M 99.528224 170.405412 
L 94.54057 174.881689 
L 83.349878 162.412555 
L 88.337532 157.936278 
L 99.528224 170.405412 
" clip-path="url(#p91bcae364a)" style="fill: none; stroke: #ff0000; stroke-width: 0.72; stroke-linejoin: miter"/>
   </g>
   <g id="patch_12">
    <path d="M 76.188434 226.913844 
L 81.630303 230.825341 
L 71.851561 244.430014 
L 66.409692 240.518517 
L 76.188434 226.913844 
" clip-path="url(#p91bcae364a)" style="fill: none; stroke: #ff0000; stroke-width: 0.72; stroke-linejoin: miter"/>
   </g>
   <g id="patch_13">
    <path d="M 351.09783 276.626714 
L 364.484467 277.299713 
L 363.811467 290.686351 
L 350.42483 290.013351 
L 351.09783 276.626714 
" clip-path="url(#p91bcae364a)" style="fill: none; stroke: #ff0000; stroke-width: 0.72; stroke-linejoin: miter"/>
   </g>
   <g id="patch_14">
    <path d="M 977.731132 159.02821 
L 977.616856 153.549525 
L 977.27423 148.080516 
L 976.703858 142.630841 
L 975.906748 137.210126 
L 974.884309 131.827943 
L 973.638344 126.493799 
L 972.171056 121.217113 
L 970.485036 116.007205 
L 968.58326 110.873277 
L 966.469089 105.824394 
L 964.146255 100.869474 
L 961.618861 96.017268 
L 958.89137 91.276345 
L 955.9686 86.655079 
L 952.855713 82.161629 
L 949.558206 77.803934 
L 946.081902 73.589688 
L 942.432942 69.526334 
L 938.61777 65.621049 
L 934.643123 61.880729 
L 930.516021 58.311981 
L 926.243754 54.921107 
L 921.833866 51.714096 
L 917.294145 48.696611 
L 912.63261 45.873982 
L 907.857492 43.251195 
L 902.977225 40.83288 
L 898.000429 38.623308 
L 892.935892 36.626383 
L 887.79256 34.845631 
L 882.579515 33.284197 
L 877.305964 31.944839 
L 871.981221 30.829921 
L 866.614691 29.941414 
L 861.21585 29.280885 
L 855.794233 28.849503 
L 850.359417 28.648028 
L 844.920998 28.676816 
L 839.488582 28.935817 
L 834.071763 29.424574 
L 828.680108 30.142222 
L 823.323138 31.087495 
L 818.010315 32.258723 
L 812.751022 33.653837 
L 807.554546 35.270375 
L 802.430066 37.10548 
L 797.386632 39.155912 
L 792.43315 41.418049 
L 787.57837 43.887897 
L 782.830865 46.561093 
L 778.199019 49.432917 
L 773.691014 52.498296 
L 769.31481 55.751817 
L 765.078137 59.187733 
L 760.988476 62.799977 
L 757.05305 66.582169 
L 753.27881 70.527629 
L 749.672422 74.629389 
L 746.240254 78.880206 
L 742.988369 83.272571 
L 739.922508 87.798727 
L 737.048087 92.450682 
L 734.370183 97.220219 
L 731.893525 102.098914 
L 729.622486 107.078151 
L 727.561078 112.149137 
L 725.712941 117.302916 
L 724.081339 122.530386 
L 722.669154 127.822314 
L 721.478881 133.169355 
L 720.51262 138.562065 
L 719.772078 143.99092 
L 719.258564 149.446332 
L 718.972984 154.918667 
L 718.915843 160.398259 
L 719.087241 165.875432 
L 719.486877 171.340512 
L 720.114043 176.783848 
L 720.967632 182.195825 
L 722.046138 187.566886 
L 723.347655 192.887545 
L 724.869884 198.148406 
L 726.610138 203.340176 
L 728.565342 208.453688 
L 730.732044 213.479909 
L 733.106416 218.409964 
L 735.684267 223.235145 
L 738.461042 227.946931 
L 741.431839 232.537 
L 744.59141 236.997246 
L 747.934174 241.319791 
L 751.45423 245.497002 
L 755.145359 249.5215 
L 759.001043 253.38618 
L 763.014472 257.084214 
L 767.178559 260.609072 
L 771.485948 263.95453 
L 775.929034 267.114677 
L 780.499969 270.083934 
L 785.190679 272.857056 
L 789.992882 275.429146 
L 794.898096 277.795662 
L 799.897658 279.952422 
L 804.982738 281.89562 
L 810.144355 283.621822 
L 815.373394 285.127981 
L 820.66062 286.411435 
L 825.996694 287.46992 
L 831.372194 288.301564 
L 836.777624 288.904899 
L 842.20344 289.27886 
L 847.640057 289.422787 
L 853.077876 289.336425 
L 858.507291 289.019926 
L 863.918714 288.47385 
L 869.302589 287.699161 
L 874.649406 286.697227 
L 879.949723 285.469818 
L 885.194179 284.019102 
L 890.373511 282.347639 
L 895.478573 280.458384 
L 900.500348 278.354671 
L 905.429968 276.040217 
L 910.258726 273.519109 
L 914.978094 270.7958 
L 919.579738 267.875098 
L 924.055531 264.762163 
L 928.397568 261.462492 
L 932.598179 257.981912 
L 936.649948 254.326572 
L 940.545718 250.502925 
L 944.278608 246.517726 
L 947.842027 242.378012 
L 951.22968 238.091094 
L 954.435585 233.664544 
L 957.45408 229.10618 
L 960.279835 224.424051 
L 962.907857 219.626428 
L 965.333507 214.721782 
L 967.552499 209.718776 
L 969.560916 204.626246 
L 971.355211 199.453186 
L 972.932213 194.208731 
L 974.289139 188.902145 
L 975.423591 183.542798 
L 976.333567 178.140156 
L 977.017458 172.703761 
L 977.474058 167.243213 
L 977.70256 161.768157 
L 977.731132 159.02821 
L 977.731132 159.02821 
" clip-path="url(#p91bcae364a)" style="fill: none; stroke: #ff0000; stroke-width: 0.72; stroke-linejoin: miter"/>
   </g>
   <g id="patch_15">
    <path d="M 401.487473 142.27378 
L 418.241903 159.02821 
L 401.487473 175.78264 
L 384.733043 159.02821 
L 401.487473 142.27378 
" clip-path="url(#p91bcae364a)" style="fill: none; stroke: #ff0000; stroke-width: 0.72; stroke-linejoin: miter"/>
   </g>
   <g id="patch_16">
    <path d="M 840.366618 142.27378 
L 857.121047 159.02821 
L 840.366618 175.78264 
L 823.612188 159.02821 
L 840.366618 142.27378 
" clip-path="url(#p91bcae364a)" style="fill: none; stroke: #ff0000; stroke-width: 0.72; stroke-linejoin: miter"/>
   </g>
   <g id="patch_17">
    <path d="M 482.985973 222.168262 
L 498.630491 239.963511 
L 480.835241 255.608029 
L 465.190723 237.81278 
L 482.985973 222.168262 
" clip-path="url(#p91bcae364a)" style="fill: none; stroke: #ff0000; stroke-width: 0.72; stroke-linejoin: miter"/>
   </g>
   <g id="patch_18">
    <path d="M 992.54069 254.94108 
L 1008.185208 272.736329 
L 990.389958 288.380847 
L 974.745441 270.585597 
L 992.54069 254.94108 
" clip-path="url(#p91bcae364a)" style="fill: none; stroke: #ff0000; stroke-width: 0.72; stroke-linejoin: miter"/>
   </g>
   <g id="line2d_1">
    <path d="M 87.120618 159.02821 
L 1099.636364 159.02821 
" clip-path="url(#p91bcae364a)" style="fill: none; stroke: #ffffff; stroke-width: 0.72; stroke-linecap: square"/>
   </g>
   <g id="line2d_2">
    <path d="M 381.382157 159.02821 
L 421.592789 159.02821 
" clip-path="url(#p91bcae364a)" style="fill: none; stroke: #ffffff; stroke-width: 0.72; stroke-linecap: square"/>
   </g>
   <g id="line2d_3">
    <path d="M 820.261302 159.02821 
L 860.471933 159.02821 
" clip-path="url(#p91bcae364a)" style="fill: none; stroke: #ffffff; stroke-width: 0.72; stroke-linecap: square"/>
   </g>
   <g id="line2d_4">
    <path d="M 52.530984 211.271916 
L 1099.636364 278.618155 
" clip-path="url(#p91bcae364a)" style="fill: none; stroke: #ffffff; stroke-width: 0.72; stroke-linecap: square"/>
   </g>
   <g id="line2d_5">
    <path d="M 461.846747 237.597707 
L 501.974467 240.178585 
" clip-path="url(#p91bcae364a)" style="fill: none; stroke: #ffffff; stroke-width: 0.72; stroke-linecap: square"/>
   </g>
   <g id="line2d_6">
    <path d="M 971.401464 270.370524 
L 1011.529185 272.951402 
" clip-path="url(#p91bcae364a)" style="fill: none; stroke: #ffffff; stroke-width: 0.72; stroke-linecap: square"/>
   </g>
   <g id="line2d_7">
    <path d="M 848.319916 28.631833 
L 848.319916 25.280947 
" clip-path="url(#p91bcae364a)" style="fill: none; stroke: #ff0000; stroke-width: 0.72; stroke-linecap: square"/>
   </g>
   <g id="line2d_8">
    <path d="M 848.319916 289.424586 
L 848.319916 292.775472 
" clip-path="url(#p91bcae364a)" style="fill: none; stroke: #ff0000; stroke-width: 0.72; stroke-linecap: square"/>
   </g>
   <g id="line2d_9">
    <path d="M 977.731132 159.02821 
L 981.082018 159.02821 
" clip-path="url(#p91bcae364a)" style="fill: none; stroke: #ff0000; stroke-width: 0.72; stroke-linecap: square"/>
   </g>
   <g id="line2d_10">
    <path d="M 718.9087 159.02821 
L 715.557814 159.02821 
" clip-path="url(#p91bcae364a)" style="fill: none; stroke: #ff0000; stroke-width: 0.72; stroke-linecap: square"/>
   </g>
  </g>
 </g>
 <defs>
  <clipPath id="p91bcae364a">
   <rect x="0" y="0" width="1152" height="319.946751"/>
  </clipPath>
 </defs>
</svg>
