  0
SECTION
  2
HEADER
  9
$ACADVER
  1
AC1021
  9
$ACADMAINTVER
 70
25
  9
$DWGCODEPAGE
  3
ANSI_1252
  9
$LASTSAVEDBY
  1
ezdxf
  9
$INSBASE
 10
0.0
 20
0.0
 30
0.0
  9
$EXTMIN
 10
1e+20
 20
1e+20
 30
1e+20
  9
$EXTMAX
 10
-1e+20
 20
-1e+20
 30
-1e+20
  9
$LIMMIN
 10
0.0
 20
0.0
  9
$LIMMAX
 10
420.0
 20
297.0
  9
$ORTHOMODE
 70
0
  9
$REGENMODE
 70
1
  9
$FILLMODE
 70
1
  9
$QTEXTMODE
 70
0
  9
$MIRRTEXT
 70
1
  9
$LTSCALE
 40
1.0
  9
$ATTMODE
 70
1
  9
$TEXTSIZE
 40
2.5
  9
$TRACEWID
 40
1.0
  9
$TEXTSTYLE
  7
OpenSans
  9
$CLAYER
  8
0
  9
$CELTYPE
  6
ByLayer
  9
$CECOLOR
 62
256
  9
$CELTSCALE
 40
1.0
  9
$DISPSILH
 70
0
  9
$DIMSCALE
 40
1.0
  9
$DIMASZ
 40
0.175
  9
$DIMEXO
 40
0.125
  9
$DIMDLI
 40
3.75
  9
$DIMRND
 40
0.0
  9
$DIMDLE
 40
0.0
  9
$DIMEXE
 40
0.375
  9
$DIMTP
 40
0.0
  9
$DIMTM
 40
0.0
  9
$DIMTXT
 40
0.25
  9
$DIMCEN
 40
2.5
  9
$DIMTSZ
 40
0.0
  9
$DIMTOL
 70
0
  9
$DIMLIM
 70
0
  9
$DIMTIH
 70
0
  9
$DIMTOH
 70
0
  9
$DIMSE1
 70
0
  9
$DIMSE2
 70
0
  9
$DIMTAD
 70
1
  9
$DIMZIN
 70
12
  9
$DIMBLK
  1
ARCHTICK
  9
$DIMASO
 70
1
  9
$DIMSHO
 70
1
  9
$DIMPOST
  1

  9
$DIMAPOST
  1

  9
$DIMALT
 70
0
  9
$DIMALTD
 70
3
  9
$DIMALTF
 40
0.03937007874
  9
$DIMLFAC
 40
100.0
  9
$DIMTOFL
 70
1
  9
$DIMTVP
 40
0.0
  9
$DIMTIX
 70
0
  9
$DIMSOXD
 70
0
  9
$DIMSAH
 70
0
  9
$DIMBLK1
  1

  9
$DIMBLK2
  1

  9
$DIMSTYLE
  2
EZDXF
  9
$DIMCLRD
 70
0
  9
$DIMCLRE
 70
0
  9
$DIMCLRT
 70
0
  9
$DIMTFAC
 40
0.5
  9
$DIMGAP
 40
0.1
  9
$DIMJUST
 70
0
  9
$DIMSD1
 70
0
  9
$DIMSD2
 70
0
  9
$DIMTOLJ
 70
0
  9
$DIMTZIN
 70
8
  9
$DIMALTZ
 70
0
  9
$DIMALTTZ
 70
0
  9
$DIMUPT
 70
1
  9
$DIMDEC
 70
2
  9
$DIMTDEC
 70
2
  9
$DIMALTU
 70
2
  9
$DIMALTTD
 70
3
  9
$DIMTXSTY
  7
OpenSansCondensed-Light
  9
$DIMAUNIT
 70
0
  9
$DIMADEC
 70
2
  9
$DIMALTRND
 40
0.0
  9
$DIMAZIN
 70
3
  9
$DIMDSEP
 70
46
  9
$DIMATFIT
 70
3
  9
$DIMFRAC
 70
0
  9
$DIMLDRBLK
  1

  9
$DIMLUNIT
 70
2
  9
$DIMLWD
 70
-2
  9
$DIMLWE
 70
-2
  9
$DIMTMOVE
 70
2
  9
$DIMFXL
 40
1.0
  9
$DIMFXLON
 70
0
  9
$DIMJOGANG
 40
0.785398163397
  9
$DIMTFILL
 70
0
  9
$DIMTFILLCLR
 70
0
  9
$DIMARCSYM
 70
0
  9
$DIMLTYPE
  6

  9
$DIMLTEX1
  6

  9
$DIMLTEX2
  6

  9
$LUNITS
 70
2
  9
$LUPREC
 70
4
  9
$SKETCHINC
 40
1.0
  9
$FILLETRAD
 40
10.0
  9
$AUNITS
 70
0
  9
$AUPREC
 70
2
  9
$MENU
  1
.
  9
$ELEVATION
 40
0.0
  9
$PELEVATION
 40
0.0
  9
$THICKNESS
 40
0.0
  9
$LIMCHECK
 70
0
  9
$CHAMFERA
 40
0.0
  9
$CHAMFERB
 40
0.0
  9
$CHAMFERC
 40
0.0
  9
$CHAMFERD
 40
0.0
  9
$SKPOLY
 70
0
  9
$TDCREATE
 40
2461048.0883680554
  9
$TDUCREATE
 40
2458532.153996898
  9
$TDUPDATE
 40
2461048.0883680554
  9
$TDUUPDATE
 40
2458532.1544311
  9
$TDINDWG
 40
0.0
  9
$TDUSRTIMER
 40
0.0
  9
$USRTIMER
 70
1
  9
$ANGBASE
 50
0.0
  9
$ANGDIR
 70
0
  9
$PDMODE
 70
0
  9
$PDSIZE
 40
0.0
  9
$PLINEWID
 40
0.0
  9
$SPLFRAME
 70
0
  9
$SPLINETYPE
 70
6
  9
$SPLINESEGS
 70
8
  9
$HANDSEED
  5
AE
  9
$SURFTAB1
 70
6
  9
$SURFTAB2
 70
6
  9
$SURFTYPE
 70
6
  9
$SURFU
 70
6
  9
$SURFV
 70
6
  9
$UCSBASE
  2

  9
$UCSNAME
  2

  9
$UCSORG
 10
0.0
 20
0.0
 30
0.0
  9
$UCSXDIR
 10
1.0
 20
0.0
 30
0.0
  9
$UCSYDIR
 10
0.0
 20
1.0
 30
0.0
  9
$UCSORTHOREF
  2

  9
$UCSORTHOVIEW
 70
0
  9
$UCSORGTOP
 10
0.0
 20
0.0
 30
0.0
  9
$UCSORGBOTTOM
 10
0.0
 20
0.0
 30
0.0
  9
$UCSORGLEFT
 10
0.0
 20
0.0
 30
0.0
  9
$UCSORGRIGHT
 10
0.0
 20
0.0
 30
0.0
  9
$UCSORGFRONT
 10
0.0
 20
0.0
 30
0.0
  9
$UCSORGBACK
 10
0.0
 20
0.0
 30
0.0
  9
$PUCSBASE
  2

  9
$PUCSNAME
  2

  9
$PUCSORG
 10
0.0
 20
0.0
 30
0.0
  9
$PUCSXDIR
 10
1.0
 20
0.0
 30
0.0
  9
$PUCSYDIR
 10
0.0
 20
1.0
 30
0.0
  9
$PUCSORTHOREF
  2

  9
$PUCSORTHOVIEW
 70
0
  9
$PUCSORGTOP
 10
0.0
 20
0.0
 30
0.0
  9
$PUCSORGBOTTOM
 10
0.0
 20
0.0
 30
0.0
  9
$PUCSORGLEFT
 10
0.0
 20
0.0
 30
0.0
  9
$PUCSORGRIGHT
 10
0.0
 20
0.0
 30
0.0
  9
$PUCSORGFRONT
 10
0.0
 20
0.0
 30
0.0
  9
$PUCSORGBACK
 10
0.0
 20
0.0
 30
0.0
  9
$USERI1
 70
0
  9
$USERI2
 70
0
  9
$USERI3
 70
0
  9
$USERI4
 70
0
  9
$USERI5
 70
0
  9
$USERR1
 40
0.0
  9
$USERR2
 40
0.0
  9
$USERR3
 40
0.0
  9
$USERR4
 40
0.0
  9
$USERR5
 40
0.0
  9
$WORLDVIEW
 70
1
  9
$SHADEDGE
 70
3
  9
$SHADEDIF
 70
70
  9
$TILEMODE
 70
1
  9
$MAXACTVP
 70
64
  9
$PINSBASE
 10
0.0
 20
0.0
 30
0.0
  9
$PLIMCHECK
 70
0
  9
$PEXTMIN
 10
1e+20
 20
1e+20
 30
1e+20
  9
$PEXTMAX
 10
-1e+20
 20
-1e+20
 30
-1e+20
  9
$PLIMMIN
 10
0.0
 20
0.0
  9
$PLIMMAX
 10
420.0
 20
297.0
  9
$UNITMODE
 70
0
  9
$VISRETAIN
 70
1
  9
$PLINEGEN
 70
0
  9
$PSLTSCALE
 70
1
  9
$TREEDEPTH
 70
3020
  9
$CMLSTYLE
  2
Standard
  9
$CMLJUST
 70
0
  9
$CMLSCALE
 40
20.0
  9
$PROXYGRAPHICS
 70
1
  9
$MEASUREMENT
 70
1
  9
$CELWEIGHT
370
-1
  9
$ENDCAPS
280
0
  9
$JOINSTYLE
280
0
  9
$LWDISPLAY
290
0
  9
$INSUNITS
 70
6
  9
$HYPERLINKBASE
  1

  9
$STYLESHEET
  1

  9
$XEDIT
290
1
  9
$CEPSNTYPE
380
0
  9
$PSTYLEMODE
290
1
  9
$FINGERPRINTGUID
  2
{8A115FF3-21E3-412A-9B8E-206DCF9D05A1}
  9
$VERSIONGUID
  2
{79DD4249-1644-45D3-8670-8B43FD58A86D}
  9
$EXTNAMES
290
1
  9
$PSVPSCALE
 40
0.0
  9
$OLESTARTUP
290
0
  9
$SORTENTS
280
127
  9
$INDEXCTL
280
0
  9
$HIDETEXT
280
1
  9
$XCLIPFRAME
290
1
  9
$HALOGAP
280
0
  9
$OBSCOLOR
 70
257
  9
$OBSLTYPE
280
0
  9
$INTERSECTIONDISPLAY
280
0
  9
$INTERSECTIONCOLOR
 70
257
  9
$DIMASSOC
280
2
  9
$PROJECTNAME
  1

  9
$CAMERADISPLAY
290
0
  9
$LENSLENGTH
 40
50.0
  9
$CAMERAHEIGHT
 40
0.0
  9
$STEPSPERSEC
 40
24.0
  9
$STEPSIZE
 40
100.0
  9
$3DDWFPREC
 40
2.0
  9
$PSOLWIDTH
 40
0.005
  9
$PSOLHEIGHT
 40
0.08
  9
$LOFTANG1
 40
1.570796326795
  9
$LOFTANG2
 40
1.570796326795
  9
$LOFTMAG1
 40
0.0
  9
$LOFTMAG2
 40
0.0
  9
$LOFTPARAM
 70
7
  9
$LOFTNORMALS
280
1
  9
$LATITUDE
 40
37.795
  9
$LONGITUDE
 40
-122.394
  9
$NORTHDIRECTION
 40
0.0
  9
$TIMEZONE
 70
-8000
  9
$LIGHTGLYPHDISPLAY
280
1
  9
$TILEMODELIGHTSYNCH
280
1
  9
$CMATERIAL
347
20
  9
$SOLIDHIST
280
0
  9
$SHOWHIST
280
1
  9
$DWFFRAME
280
2
  9
$DGNFRAME
280
2
  9
$REALWORLDSCALE
290
1
  9
$INTERFERECOLOR
 62
256
  9
$CSHADOW
280
0
  9
$SHADOWPLANELOCATION
 40
0.0
  0
ENDSEC
  0
SECTION
  2
CLASSES
  0
CLASS
  1
ACDBDICTIONARYWDFLT
  2
AcDbDictionaryWithDefault
  3
ObjectDBX Classes
 90
0
 91
0
280
0
281
0
  0
CLASS
  1
SUN
  2
AcDbSun
  3
SCENEOE
 90
1153
 91
0
280
0
281
0
  0
CLASS
  1
VISUALSTYLE
  2
AcDbVisualStyle
  3
ObjectDBX Classes
 90
4095
 91
0
280
0
281
0
  0
CLASS
  1
MATERIAL
  2
AcDbMaterial
  3
ObjectDBX Classes
 90
1153
 91
0
280
0
281
0
  0
CLASS
  1
SCALE
  2
AcDbScale
  3
ObjectDBX Classes
 90
1153
 91
0
280
0
281
0
  0
CLASS
  1
TABLESTYLE
  2
AcDbTableStyle
  3
ObjectDBX Classes
 90
4095
 91
0
280
0
281
0
  0
CLASS
  1
MLEADERSTYLE
  2
AcDbMLeaderStyle
  3
ACDB_MLEADERSTYLE_CLASS
 90
4095
 91
0
280
0
281
0
  0
CLASS
  1
DICTIONARYVAR
  2
AcDbDictionaryVar
  3
ObjectDBX Classes
 90
0
 91
0
280
0
281
0
  0
CLASS
  1
CELLSTYLEMAP
  2
AcDbCellStyleMap
  3
ObjectDBX Classes
 90
1152
 91
0
280
0
281
0
  0
CLASS
  1
MENTALRAYRENDERSETTINGS
  2
AcDbMentalRayRenderSettings
  3
SCENEOE
 90
1024
 91
0
280
0
281
0
  0
CLASS
  1
ACDBDETAILVIEWSTYLE
  2
AcDbDetailViewStyle
  3
ObjectDBX Classes
 90
1025
 91
0
280
0
281
0
  0
CLASS
  1
ACDBSECTIONVIEWSTYLE
  2
AcDbSectionViewStyle
  3
ObjectDBX Classes
 90
1025
 91
0
280
0
281
0
  0
CLASS
  1
RASTERVARIABLES
  2
AcDbRasterVariables
  3
ISM
 90
0
 91
0
280
0
281
0
  0
CLASS
  1
ACDBPLACEHOLDER
  2
AcDbPlaceHolder
  3
ObjectDBX Classes
 90
0
 91
0
280
0
281
0
  0
CLASS
  1
LAYOUT
  2
AcDbLayout
  3
ObjectDBX Classes
 90
0
 91
0
280
0
281
0
  0
ENDSEC
  0
SECTION
  2
TABLES
  0
TABLE
  2
VPORT
  5
8
330
0
100
AcDbSymbolTable
 70
1
  0
VPORT
  5
23
330
8
100
AcDbSymbolTableRecord
100
AcDbViewportTableRecord
  2
*Active
 70
0
 10
0.0
 20
0.0
 11
1.0
 21
1.0
 12
0.0
 22
0.0
 13
0.0
 23
0.0
 14
0.5
 24
0.5
 15
0.5
 25
0.5
 16
0.0
 26
0.0
 36
1.0
 17
0.0
 27
0.0
 37
0.0
 40
1000.0
 41
1.34
 42
50.0
 43
0.0
 44
0.0
 50
0.0
 51
0.0
 71
0
 72
1000
 73
1
 74
3
 75
0
 76
0
 77
0
 78
0
281
0
 65
0
146
0.0
  0
ENDTAB
  0
TABLE
  2
LTYPE
  5
2
330
0
100
AcDbSymbolTable
 70
21
  0
LTYPE
  5
24
330
2
100
AcDbSymbolTableRecord
100
AcDbLinetypeTableRecord
  2
ByBlock
 70
0
  3

 72
65
 73
0
 40
0.0
  0
LTYPE
  5
25
330
2
100
AcDbSymbolTableRecord
100
AcDbLinetypeTableRecord
  2
ByLayer
 70
0
  3

 72
65
 73
0
 40
0.0
  0
LTYPE
  5
26
330
2
100
AcDbSymbolTableRecord
100
AcDbLinetypeTableRecord
  2
Continuous
 70
0
  3

 72
65
 73
0
 40
0.0
  0
LTYPE
  5
2F
330
2
100
AcDbSymbolTableRecord
100
AcDbLinetypeTableRecord
  2
CENTER
 70
0
  3
Center ____ _ ____ _ ____ _ ____ _ ____ _ ____
 72
65
 73
4
 40
5.08
 49
3.175
 74
0
 49
-0.635
 74
0
 49
0.635
 74
0
 49
-0.635
 74
0
  0
LTYPE
  5
30
330
2
100
AcDbSymbolTableRecord
100
AcDbLinetypeTableRecord
  2
CENTERX2
 70
0
  3
Center (2x) ________  __  ________  __  ________
 72
65
 73
4
 40
8.89
 49
6.35
 74
0
 49
-0.635
 74
0
 49
1.27
 74
0
 49
-0.635
 74
0
  0
LTYPE
  5
31
330
2
100
AcDbSymbolTableRecord
100
AcDbLinetypeTableRecord
  2
CENTER2
 70
0
  3
Center (.5x) ____ _ ____ _ ____ _ ____ _ ____
 72
65
 73
4
 40
2.54
 49
1.587
 74
0
 49
-0.318
 74
0
 49
0.318
 74
0
 49
-0.318
 74
0
  0
LTYPE
  5
32
330
2
100
AcDbSymbolTableRecord
100
AcDbLinetypeTableRecord
  2
DASHED
 70
0
  3
Dashed __ __ __ __ __ __ __ __ __ __ __ __ __ _
 72
65
 73
2
 40
1.524
 49
1.27
 74
0
 49
-0.254
 74
0
  0
LTYPE
  5
33
330
2
100
AcDbSymbolTableRecord
100
AcDbLinetypeTableRecord
  2
DASHEDX2
 70
0
  3
Dashed (2x) ____  ____  ____  ____  ____  ____
 72
65
 73
2
 40
3.048
 49
2.54
 74
0
 49
-0.508
 74
0
  0
LTYPE
  5
34
330
2
100
AcDbSymbolTableRecord
100
AcDbLinetypeTableRecord
  2
DASHED2
 70
0
  3
Dashed (.5x) _ _ _ _ _ _ _ _ _ _ _ _ _ _
 72
65
 73
2
 40
0.762
 49
0.635
 74
0
 49
-0.127
 74
0
  0
LTYPE
  5
35
330
2
100
AcDbSymbolTableRecord
100
AcDbLinetypeTableRecord
  2
PHANTOM
 70
0
  3
Phantom ______  __  __  ______  __  __  ______
 72
65
 73
6
 40
6.35
 49
3.175
 74
0
 49
-0.635
 74
0
 49
0.635
 74
0
 49
-0.635
 74
0
 49
0.635
 74
0
 49
-0.635
 74
0
  0
LTYPE
  5
36
330
2
100
AcDbSymbolTableRecord
100
AcDbLinetypeTableRecord
  2
PHANTOMX2
 70
0
  3
Phantom (2x)____________    ____    ____    ____________
 72
65
 73
6
 40
10.795
 49
6.35
 74
0
 49
-0.635
 74
0
 49
1.27
 74
0
 49
-0.635
 74
0
 49
1.27
 74
0
 49
-0.635
 74
0
  0
LTYPE
  5
37
330
2
100
AcDbSymbolTableRecord
100
AcDbLinetypeTableRecord
  2
PHANTOM2
 70
0
  3
Phantom (.5x) ___ _ _ ___ _ _ ___ _ _ ___ _ _ ___
 72
65
 73
6
 40
3.175
 49
1.587
 74
0
 49
-0.318
 74
0
 49
0.318
 74
0
 49
-0.318
 74
0
 49
0.318
 74
0
 49
-0.318
 74
0
  0
LTYPE
  5
38
330
2
100
AcDbSymbolTableRecord
100
AcDbLinetypeTableRecord
  2
DASHDOT
 70
0
  3
Dash dot __ . __ . __ . __ . __ . __ . __ . __
 72
65
 73
4
 40
3.556
 49
2.54
 74
0
 49
-0.508
 74
0
 49
0.0
 74
0
 49
-0.508
 74
0
  0
LTYPE
  5
39
330
2
100
AcDbSymbolTableRecord
100
AcDbLinetypeTableRecord
  2
DASHDOTX2
 70
0
  3
Dash dot (2x) ____  .  ____  .  ____  .  ____
 72
65
 73
4
 40
6.096
 49
5.08
 74
0
 49
-0.508
 74
0
 49
0.0
 74
0
 49
-0.508
 74
0
  0
LTYPE
  5
3A
330
2
100
AcDbSymbolTableRecord
100
AcDbLinetypeTableRecord
  2
DASHDOT2
 70
0
  3
Dash dot (.5x) _ . _ . _ . _ . _ . _ . _ . _
 72
65
 73
4
 40
1.778
 49
1.27
 74
0
 49
-0.254
 74
0
 49
0.0
 74
0
 49
-0.254
 74
0
  0
LTYPE
  5
3B
330
2
100
AcDbSymbolTableRecord
100
AcDbLinetypeTableRecord
  2
DOT
 70
0
  3
Dot .  .  .  .  .  .  .  .  .  .  .  .  .  .  .  .
 72
65
 73
2
 40
0.508
 49
0.0
 74
0
 49
-0.508
 74
0
  0
LTYPE
  5
3C
330
2
100
AcDbSymbolTableRecord
100
AcDbLinetypeTableRecord
  2
DOTX2
 70
0
  3
Dot (2x) .    .    .    .    .    .    .    . 
 72
65
 73
2
 40
1.016
 49
0.0
 74
0
 49
-1.016
 74
0
  0
LTYPE
  5
3D
330
2
100
AcDbSymbolTableRecord
100
AcDbLinetypeTableRecord
  2
DOT2
 70
0
  3
Dot (.5) . . . . . . . . . . . . . . . . . . . 
 72
65
 73
2
 40
0.254
 49
0.0
 74
0
 49
-0.254
 74
0
  0
LTYPE
  5
3E
330
2
100
AcDbSymbolTableRecord
100
AcDbLinetypeTableRecord
  2
DIVIDE
 70
0
  3
Divide __ . . __ . . __ . . __ . . __ . . __
 72
65
 73
6
 40
4.064
 49
2.54
 74
0
 49
-0.508
 74
0
 49
0.0
 74
0
 49
-0.508
 74
0
 49
0.0
 74
0
 49
-0.508
 74
0
  0
LTYPE
  5
3F
330
2
100
AcDbSymbolTableRecord
100
AcDbLinetypeTableRecord
  2
DIVIDEX2
 70
0
  3
Divide (2x) ____  . .  ____  . .  ____  . .  ____
 72
65
 73
6
 40
6.604
 49
5.08
 74
0
 49
-0.508
 74
0
 49
0.0
 74
0
 49
-0.508
 74
0
 49
0.0
 74
0
 49
-0.508
 74
0
  0
LTYPE
  5
40
330
2
100
AcDbSymbolTableRecord
100
AcDbLinetypeTableRecord
  2
DIVIDE2
 70
0
  3
Divide(.5x) _ . _ . _ . _ . _ . _ . _ . _
 72
65
 73
6
 40
2.032
 49
1.27
 74
0
 49
-0.254
 74
0
 49
0.0
 74
0
 49
-0.254
 74
0
 49
0.0
 74
0
 49
-0.254
 74
0
  0
ENDTAB
  0
TABLE
  2
LAYER
  5
1
330
0
100
AcDbSymbolTable
 70
4
  0
LAYER
  5
27
330
1
100
AcDbSymbolTableRecord
100
AcDbLayerTableRecord
  2
0
 70
0
 62
7
  6
Continuous
370
-3
390
13
347
21
  0
LAYER
  5
28
330
1
100
AcDbSymbolTableRecord
100
AcDbLayerTableRecord
  2
Defpoints
 70
0
 62
7
  6
Continuous
290
0
370
-3
390
13
347
21
  0
LAYER
  5
8A
330
1
100
AcDbSymbolTableRecord
100
AcDbLayerTableRecord
  2
Layer
 70
0
 62
1
  6
Continuous
370
50
390
13
347
21
  0
LAYER
  5
8B
330
1
100
AcDbSymbolTableRecord
100
AcDbLayerTableRecord
  2
NumLabel
 70
0
 62
1
  6
Continuous
370
15
390
13
347
21
  0
ENDTAB
  0
TABLE
  2
STYLE
  5
5
330
0
100
AcDbSymbolTable
 70
26
  0
STYLE
  5
29
330
5
100
AcDbSymbolTableRecord
100
AcDbTextStyleTableRecord
  2
Standard
 70
0
 40
0.0
 41
1.0
 50
0.0
 71
0
 42
2.5
  3
txt
  4

  0
STYLE
  5
41
330
5
100
AcDbSymbolTableRecord
100
AcDbTextStyleTableRecord
  2
OpenSans-Light
 70
0
 40
0.0
 41
1.0
 50
0.0
 71
0
 42
2.5
  3
OpenSans-Light.ttf
  4

  0
STYLE
  5
42
330
5
100
AcDbSymbolTableRecord
100
AcDbTextStyleTableRecord
  2
OpenSans-Light-Italic
 70
0
 40
0.0
 41
1.0
 50
0.0
 71
0
 42
2.5
  3
OpenSans-LightItalic.ttf
  4

  0
STYLE
  5
43
330
5
100
AcDbSymbolTableRecord
100
AcDbTextStyleTableRecord
  2
OpenSans
 70
0
 40
0.0
 41
1.0
 50
0.0
 71
0
 42
2.5
  3
OpenSans-Regular.ttf
  4

  0
STYLE
  5
44
330
5
100
AcDbSymbolTableRecord
100
AcDbTextStyleTableRecord
  2
OpenSans-Italic
 70
0
 40
0.0
 41
1.0
 50
0.0
 71
0
 42
2.5
  3
OpenSans-Italic.ttf
  4

  0
STYLE
  5
45
330
5
100
AcDbSymbolTableRecord
100
AcDbTextStyleTableRecord
  2
OpenSans-SemiBold
 70
0
 40
0.0
 41
1.0
 50
0.0
 71
0
 42
2.5
  3
OpenSans-SemiBold.ttf
  4

  0
STYLE
  5
46
330
5
100
AcDbSymbolTableRecord
100
AcDbTextStyleTableRecord
  2
OpenSans-SemiBoldItalic
 70
0
 40
0.0
 41
1.0
 50
0.0
 71
0
 42
2.5
  3
OpenSans-SemiBoldItalic.ttf
  4

  0
STYLE
  5
47
330
5
100
AcDbSymbolTableRecord
100
AcDbTextStyleTableRecord
  2
OpenSans-Bold
 70
0
 40
0.0
 41
1.0
 50
0.0
 71
0
 42
2.5
  3
OpenSans-Bold.ttf
  4

  0
STYLE
  5
48
330
5
100
AcDbSymbolTableRecord
100
AcDbTextStyleTableRecord
  2
OpenSans-BoldItalic
 70
0
 40
0.0
 41
1.0
 50
0.0
 71
0
 42
2.5
  3
OpenSans-BoldItalic.ttf
  4

  0
STYLE
  5
49
330
5
100
AcDbSymbolTableRecord
100
AcDbTextStyleTableRecord
  2
OpenSans-ExtraBold
 70
0
 40
0.0
 41
1.0
 50
0.0
 71
0
 42
2.5
  3
OpenSans-ExtraBold.ttf
  4

  0
STYLE
  5
4A
330
5
100
AcDbSymbolTableRecord
100
AcDbTextStyleTableRecord
  2
OpenSans-ExtraBoldItalic
 70
0
 40
0.0
 41
1.0
 50
0.0
 71
0
 42
2.5
  3
OpenSans-ExtraBoldItalic.ttf
  4

  0
STYLE
  5
4B
330
5
100
AcDbSymbolTableRecord
100
AcDbTextStyleTableRecord
  2
OpenSansCondensed-Bold
 70
0
 40
0.0
 41
1.0
 50
0.0
 71
0
 42
2.5
  3
OpenSansCondensed-Bold.ttf
  4

  0
STYLE
  5
4C
330
5
100
AcDbSymbolTableRecord
100
AcDbTextStyleTableRecord
  2
OpenSansCondensed-Light
 70
0
 40
0.0
 41
1.0
 50
0.0
 71
0
 42
2.5
  3
OpenSansCondensed-Light.ttf
  4

  0
STYLE
  5
4D
330
5
100
AcDbSymbolTableRecord
100
AcDbTextStyleTableRecord
  2
OpenSansCondensed-Italic
 70
0
 40
0.0
 41
1.0
 50
0.0
 71
0
 42
2.5
  3
OpenSansCondensed-LightItalic.ttf
  4

  0
STYLE
  5
4E
330
5
100
AcDbSymbolTableRecord
100
AcDbTextStyleTableRecord
  2
LiberationSans
 70
0
 40
0.0
 41
1.0
 50
0.0
 71
0
 42
2.5
  3
LiberationSans-Regular.ttf
  4

  0
STYLE
  5
4F
330
5
100
AcDbSymbolTableRecord
100
AcDbTextStyleTableRecord
  2
LiberationSans-Bold
 70
0
 40
0.0
 41
1.0
 50
0.0
 71
0
 42
2.5
  3
LiberationSans-Bold.ttf
  4

  0
STYLE
  5
50
330
5
100
AcDbSymbolTableRecord
100
AcDbTextStyleTableRecord
  2
LiberationSans-BoldItalic
 70
0
 40
0.0
 41
1.0
 50
0.0
 71
0
 42
2.5
  3
LiberationSans-BoldItalic.ttf
  4

  0
STYLE
  5
51
330
5
100
AcDbSymbolTableRecord
100
AcDbTextStyleTableRecord
  2
LiberationSans-Italic
 70
0
 40
0.0
 41
1.0
 50
0.0
 71
0
 42
2.5
  3
LiberationSans-Italic.ttf
  4

  0
STYLE
  5
52
330
5
100
AcDbSymbolTableRecord
100
AcDbTextStyleTableRecord
  2
LiberationSerif
 70
0
 40
0.0
 41
1.0
 50
0.0
 71
0
 42
2.5
  3
LiberationSerif-Regular.ttf
  4

  0
STYLE
  5
53
330
5
100
AcDbSymbolTableRecord
100
AcDbTextStyleTableRecord
  2
LiberationSerif-Bold
 70
0
 40
0.0
 41
1.0
 50
0.0
 71
0
 42
2.5
  3
LiberationSerif-Bold.ttf
  4

  0
STYLE
  5
54
330
5
100
AcDbSymbolTableRecord
100
AcDbTextStyleTableRecord
  2
LiberationSerif-BoldItalic
 70
0
 40
0.0
 41
1.0
 50
0.0
 71
0
 42
2.5
  3
LiberationSerif-BoldItalic.ttf
  4

  0
STYLE
  5
55
330
5
100
AcDbSymbolTableRecord
100
AcDbTextStyleTableRecord
  2
LiberationSerif-Italic
 70
0
 40
0.0
 41
1.0
 50
0.0
 71
0
 42
2.5
  3
LiberationSerif-Italic.ttf
  4

  0
STYLE
  5
56
330
5
100
AcDbSymbolTableRecord
100
AcDbTextStyleTableRecord
  2
LiberationMono
 70
0
 40
0.0
 41
1.0
 50
0.0
 71
0
 42
2.5
  3
LiberationMono-Regular.ttf
  4

  0
STYLE
  5
57
330
5
100
AcDbSymbolTableRecord
100
AcDbTextStyleTableRecord
  2
LiberationMono-Bold
 70
0
 40
0.0
 41
1.0
 50
0.0
 71
0
 42
2.5
  3
LiberationMono-Bold.ttf
  4

  0
STYLE
  5
58
330
5
100
AcDbSymbolTableRecord
100
AcDbTextStyleTableRecord
  2
LiberationMono-BoldItalic
 70
0
 40
0.0
 41
1.0
 50
0.0
 71
0
 42
2.5
  3
LiberationMono-BoldItalic.ttf
  4

  0
STYLE
  5
59
330
5
100
AcDbSymbolTableRecord
100
AcDbTextStyleTableRecord
  2
LiberationMono-Italic
 70
0
 40
0.0
 41
1.0
 50
0.0
 71
0
 42
2.5
  3
LiberationMono-Italic.ttf
  4

  0
ENDTAB
  0
TABLE
  2
VIEW
  5
7
330
0
100
AcDbSymbolTable
 70
0
  0
ENDTAB
  0
TABLE
  2
UCS
  5
6
330
0
100
AcDbSymbolTable
 70
0
  0
ENDTAB
  0
TABLE
  2
APPID
  5
3
330
0
100
AcDbSymbolTable
 70
3
  0
APPID
  5
2A
330
3
100
AcDbSymbolTableRecord
100
AcDbRegAppTableRecord
  2
ACAD
 70
0
  0
APPID
  5
AB
330
3
100
AcDbSymbolTableRecord
100
AcDbRegAppTableRecord
  2
HATCHBACKGROUNDCOLOR
 70
0
  0
APPID
  5
AC
330
3
100
AcDbSymbolTableRecord
100
AcDbRegAppTableRecord
  2
EZDXF
 70
0
  0
ENDTAB
  0
TABLE
  2
DIMSTYLE
  5
4
330
0
100
AcDbSymbolTable
 70
12
100
AcDbDimStyleTable
  0
DIMSTYLE
105
2B
330
4
100
AcDbSymbolTableRecord
100
AcDbDimStyleTableRecord
  2
Standard
 70
0
 40
1.0
 41
2.5
 42
0.625
 43
3.75
 44
1.25
 45
0.0
 46
0.0
 47
0.0
 48
0.0
 49
2.5
140
2.5
141
2.5
142
0.0
143
0.03937007874
144
1.0
145
0.0
146
1.0
147
0.625
148
0.0
 69
0
 70
0
 71
0
 72
0
 73
0
 74
0
 75
0
 76
0
 77
1
 78
8
 79
3
170
0
171
3
172
1
173
0
174
0
175
0
176
0
177
0
178
0
179
2
271
2
272
2
273
2
274
3
275
0
276
0
277
2
278
44
279
0
280
0
281
0
282
0
283
0
284
8
285
0
286
0
288
0
289
3
290
0
371
-2
372
-2
  0
DIMSTYLE
105
73
330
4
100
AcDbSymbolTableRecord
100
AcDbDimStyleTableRecord
  2
EZDXF
 70
0
 40
1.0
 41
0.175
 42
0.125
 43
3.75
 44
0.375
 45
0.0
 46
0.0
 47
0.0
 48
0.0
 49
2.5
140
0.25
141
2.5
142
0.0
143
0.03937007874
144
100.0
145
0.0
146
0.5
147
0.1
148
0.0
 69
0
 70
0
 71
0
 72
0
 73
0
 74
0
 75
0
 76
0
 77
1
 78
12
 79
3
170
0
171
3
172
1
173
0
174
0
175
0
176
0
177
0
178
0
179
2
271
2
272
2
273
2
274
3
275
0
276
0
277
2
278
46
279
2
280
0
281
0
282
0
283
0
284
8
285
0
286
0
288
1
289
3
290
0
340
4C
342
74
371
-2
372
-2
  0
DIMSTYLE
105
7C
330
4
100
AcDbSymbolTableRecord
100
AcDbDimStyleTableRecord
  2
EZ_M_100_H25_CM
 70
0
 40
1.0
 41
0.25
 42
0.125
 43
3.75
 44
0.375
 45
0.0
 46
0.0
 47
0.0
 48
0.0
 49
2.5
140
0.25
141
2.5
142
0.125
143
0.03937007874
144
100.0
145
0.0
146
0.5
147
0.1
148
0.0
 69
0
 70
0
 71
0
 72
0
 73
0
 74
0
 75
0
 76
0
 77
1
 78
12
 79
3
170
0
171
3
172
1
173
0
174
0
175
0
176
0
177
0
178
0
179
2
271
2
272
2
273
2
274
3
275
0
276
0
277
2
278
46
279
2
280
0
281
0
282
0
283
0
284
8
285
0
286
0
288
1
289
3
290
0
340
4C
371
-2
372
-2
  0
DIMSTYLE
105
7D
330
4
100
AcDbSymbolTableRecord
100
AcDbDimStyleTableRecord
  2
EZ_M_50_H25_CM
 70
0
 40
1.0
 41
0.125
 42
0.0625
 43
3.75
 44
0.1875
 45
0.0
 46
0.0
 47
0.0
 48
0.0
 49
2.5
140
0.125
141
2.5
142
0.0625
143
0.03937007874
144
100.0
145
0.0
146
0.5
147
0.05
148
0.0
 69
0
 70
0
 71
0
 72
0
 73
0
 74
0
 75
0
 76
0
 77
1
 78
12
 79
3
170
0
171
3
172
1
173
0
174
0
175
0
176
0
177
0
178
0
179
2
271
2
272
2
273
2
274
3
275
0
276
0
277
2
278
46
279
2
280
0
281
0
282
0
283
0
284
8
285
0
286
0
288
1
289
3
290
0
340
4C
371
-2
372
-2
  0
DIMSTYLE
105
7E
330
4
100
AcDbSymbolTableRecord
100
AcDbDimStyleTableRecord
  2
EZ_M_25_H25_CM
 70
0
 40
1.0
 41
0.0625
 42
0.03125
 43
3.75
 44
0.09375
 45
0.0
 46
0.0
 47
0.0
 48
0.0
 49
2.5
140
0.0625
141
2.5
142
0.03125
143
0.03937007874
144
100.0
145
0.0
146
0.5
147
0.025
148
0.0
 69
0
 70
0
 71
0
 72
0
 73
0
 74
0
 75
0
 76
0
 77
1
 78
12
 79
3
170
0
171
3
172
1
173
0
174
0
175
0
176
0
177
0
178
0
179
2
271
2
272
2
273
2
274
3
275
0
276
0
277
2
278
46
279
2
280
0
281
0
282
0
283
0
284
8
285
0
286
0
288
1
289
3
290
0
340
4C
371
-2
372
-2
  0
DIMSTYLE
105
7F
330
4
100
AcDbSymbolTableRecord
100
AcDbDimStyleTableRecord
  2
EZ_M_20_H25_CM
 70
0
 40
1.0
 41
0.05
 42
0.025
 43
3.75
 44
0.07500000000000001
 45
0.0
 46
0.0
 47
0.0
 48
0.0
 49
2.5
140
0.05
141
2.5
142
0.025
143
0.03937007874
144
100.0
145
0.0
146
0.5
147
0.020000000000000004
148
0.0
 69
0
 70
0
 71
0
 72
0
 73
0
 74
0
 75
0
 76
0
 77
1
 78
12
 79
3
170
0
171
3
172
1
173
0
174
0
175
0
176
0
177
0
178
0
179
2
271
2
272
2
273
2
274
3
275
0
276
0
277
2
278
46
279
2
280
0
281
0
282
0
283
0
284
8
285
0
286
0
288
1
289
3
290
0
340
4C
371
-2
372
-2
  0
DIMSTYLE
105
80
330
4
100
AcDbSymbolTableRecord
100
AcDbDimStyleTableRecord
  2
EZ_M_10_H25_CM
 70
0
 40
1.0
 41
0.025
 42
0.0125
 43
3.75
 44
0.037500000000000006
 45
0.0
 46
0.0
 47
0.0
 48
0.0
 49
2.5
140
0.025
141
2.5
142
0.0125
143
0.03937007874
144
100.0
145
0.0
146
0.5
147
0.010000000000000002
148
0.0
 69
0
 70
0
 71
0
 72
0
 73
0
 74
0
 75
0
 76
0
 77
1
 78
12
 79
3
170
0
171
3
172
1
173
0
174
0
175
0
176
0
177
0
178
0
179
2
271
2
272
2
273
2
274
3
275
0
276
0
277
2
278
46
279
2
280
0
281
0
282
0
283
0
284
8
285
0
286
0
288
1
289
3
290
0
340
4C
371
-2
372
-2
  0
DIMSTYLE
105
81
330
4
100
AcDbSymbolTableRecord
100
AcDbDimStyleTableRecord
  2
EZ_M_5_H25_CM
 70
0
 40
1.0
 41
0.0125
 42
0.00625
 43
3.75
 44
0.018750000000000003
 45
0.0
 46
0.0
 47
0.0
 48
0.0
 49
2.5
140
0.0125
141
2.5
142
0.00625
143
0.03937007874
144
100.0
145
0.0
146
0.5
147
0.005000000000000001
148
0.0
 69
0
 70
0
 71
0
 72
0
 73
0
 74
0
 75
0
 76
0
 77
1
 78
12
 79
3
170
0
171
3
172
1
173
0
174
0
175
0
176
0
177
0
178
0
179
2
271
2
272
2
273
2
274
3
275
0
276
0
277
2
278
46
279
2
280
0
281
0
282
0
283
0
284
8
285
0
286
0
288
1
289
3
290
0
340
4C
371
-2
372
-2
  0
DIMSTYLE
105
82
330
4
100
AcDbSymbolTableRecord
100
AcDbDimStyleTableRecord
  2
EZ_M_1_H25_CM
 70
0
 40
1.0
 41
0.0025
 42
0.00125
 43
3.75
 44
0.00375
 45
0.0
 46
0.0
 47
0.0
 48
0.0
 49
2.5
140
0.0025
141
2.5
142
0.00125
143
0.03937007874
144
100.0
145
0.0
146
0.5
147
0.001
148
0.0
 69
0
 70
0
 71
0
 72
0
 73
0
 74
0
 75
0
 76
0
 77
1
 78
12
 79
3
170
0
171
3
172
1
173
0
174
0
175
0
176
0
177
0
178
0
179
2
271
2
272
2
273
2
274
3
275
0
276
0
277
2
278
46
279
2
280
0
281
0
282
0
283
0
284
8
285
0
286
0
288
1
289
3
290
0
340
4C
371
-2
372
-2
  0
DIMSTYLE
105
83
330
4
100
AcDbSymbolTableRecord
100
AcDbDimStyleTableRecord
  2
EZ_RADIUS
 70
0
 40
1.0
 41
0.25
 42
0.125
 43
3.75
 44
0.375
 45
0.0
 46
0.0
 47
0.0
 48
0.0
 49
2.5
140
0.25
141
0.0
142
0.0
143
0.03937007874
144
100.0
145
0.0
146
0.5
147
0.1
148
0.0
 69
0
 70
0
 71
0
 72
0
 73
0
 74
0
 75
0
 76
0
 77
1
 78
12
 79
3
170
0
171
3
172
0
173
0
174
0
175
0
176
0
177
0
178
0
179
2
271
2
272
2
273
2
274
3
275
0
276
0
277
2
278
46
279
1
280
0
281
0
282
0
283
0
284
8
285
0
286
0
288
1
289
3
290
0
340
4C
342
84
371
-2
372
-2
  0
DIMSTYLE
105
88
330
4
100
AcDbSymbolTableRecord
100
AcDbDimStyleTableRecord
  2
EZ_RADIUS_INSIDE
 70
0
 40
1.0
 41
0.25
 42
0.125
 43
3.75
 44
0.375
 45
0.0
 46
0.0
 47
0.0
 48
0.0
 49
2.5
140
0.25
141
0.0
142
0.0
143
0.03937007874
144
100.0
145
0.0
146
0.5
147
0.1
148
0.0
 69
0
 70
0
 71
0
 72
0
 73
0
 74
0
 75
0
 76
0
 77
0
 78
12
 79
3
170
0
171
3
172
0
173
0
174
1
175
0
176
0
177
0
178
0
179
2
271
2
272
2
273
2
274
3
275
0
276
0
277
2
278
46
279
0
280
0
281
0
282
0
283
0
284
8
285
0
286
0
288
1
289
0
290
0
340
4C
342
84
371
-2
372
-2
  0
DIMSTYLE
105
89
330
4
100
AcDbSymbolTableRecord
100
AcDbDimStyleTableRecord
  2
EZ_CURVED
 70
0
 40
1.0
 41
0.25
 42
0.125
 43
3.75
 44
0.375
 45
0.0
 46
0.0
 47
0.0
 48
0.0
 49
2.5
140
0.25
141
2.5
142
0.0
143
0.03937007874
144
100.0
145
0.0
146
0.5
147
0.1
148
0.0
 69
0
 70
0
 71
0
 72
0
 73
0
 74
0
 75
0
 76
0
 77
1
 78
12
 79
2
 90
2
170
0
171
3
172
1
173
0
174
0
175
0
176
0
177
0
178
0
179
2
271
2
272
2
273
2
274
3
275
0
276
0
277
2
278
46
279
2
280
0
281
0
282
0
283
0
284
8
285
0
286
0
288
1
289
3
290
0
340
4C
371
-2
372
-2
  0
ENDTAB
  0
TABLE
  2
BLOCK_RECORD
  5
9
330
0
100
AcDbSymbolTable
 70
5
  0
BLOCK_RECORD
  5
17
330
9
100
AcDbSymbolTableRecord
100
AcDbBlockTableRecord
  2
*Model_Space
340
1A
 70
0
280
1
281
0
  0
BLOCK_RECORD
  5
1B
330
9
100
AcDbSymbolTableRecord
100
AcDbBlockTableRecord
  2
*Paper_Space
340
1E
 70
0
280
1
281
0
  0
BLOCK_RECORD
  5
74
330
9
100
AcDbSymbolTableRecord
100
AcDbBlockTableRecord
  2
_ARCHTICK
340
0
 70
0
280
1
281
0
  0
BLOCK_RECORD
  5
78
330
9
100
AcDbSymbolTableRecord
100
AcDbBlockTableRecord
  2
_CLOSEDFILLED
340
0
 70
0
280
1
281
0
  0
BLOCK_RECORD
  5
84
330
9
100
AcDbSymbolTableRecord
100
AcDbBlockTableRecord
  2
_CLOSEDBLANK
340
0
 70
0
280
1
281
0
  0
ENDTAB
  0
ENDSEC
  0
SECTION
  2
BLOCKS
  0
BLOCK
  5
18
330
17
100
AcDbEntity
  8
0
100
AcDbBlockBegin
  2
*Model_Space
 70
0
 10
0.0
 20
0.0
 30
0.0
  3
*Model_Space
  1

  0
ENDBLK
  5
19
330
17
100
AcDbEntity
  8
0
100
AcDbBlockEnd
  0
BLOCK
  5
1C
330
1B
100
AcDbEntity
  8
0
100
AcDbBlockBegin
  2
*Paper_Space
 70
0
 10
0.0
 20
0.0
 30
0.0
  3
*Paper_Space
  1

  0
ENDBLK
  5
1D
330
1B
100
AcDbEntity
  8
0
100
AcDbBlockEnd
  0
BLOCK
  5
75
330
74
100
AcDbEntity
  8
0
100
AcDbBlockBegin
  2
_ARCHTICK
 70
0
 10
0.0
 20
0.0
 30
0.0
  3
_ARCHTICK
  1

  0
LWPOLYLINE
  5
77
330
74
100
AcDbEntity
  8
0
  6
BYBLOCK
 62
0
100
AcDbPolyline
 90
2
 70
0
 43
0.15
 10
-0.5
 20
-0.5
 10
0.5
 20
0.5
  0
ENDBLK
  5
76
330
74
100
AcDbEntity
  8
0
100
AcDbBlockEnd
  0
BLOCK
  5
79
330
78
100
AcDbEntity
  8
0
100
AcDbBlockBegin
  2
_CLOSEDFILLED
 70
0
 10
0.0
 20
0.0
 30
0.0
  3
_CLOSEDFILLED
  1

  0
SOLID
  5
7B
330
78
100
AcDbEntity
  8
0
  6
BYBLOCK
 62
0
100
AcDbTrace
 10
-1.0
 20
0.16439898372402537
 30
0.0
 11
0.0
 21
0.0
 31
0.0
 12
-1.0
 22
-0.16439898372402537
 32
0.0
 13
-1.0
 23
-0.16439898372402537
 33
0.0
  0
ENDBLK
  5
7A
330
78
100
AcDbEntity
  8
0
100
AcDbBlockEnd
  0
BLOCK
  5
85
330
84
100
AcDbEntity
  8
0
100
AcDbBlockBegin
  2
_CLOSEDBLANK
 70
0
 10
0.0
 20
0.0
 30
0.0
  3
_CLOSEDBLANK
  1

  0
LWPOLYLINE
  5
87
330
84
100
AcDbEntity
  8
0
  6
BYBLOCK
 62
0
100
AcDbPolyline
 90
3
 70
1
 10
-1.0
 20
0.16439898372402537
 10
0.0
 20
0.0
 10
-1.0
 20
-0.16439898372402537
  0
ENDBLK
  5
86
330
84
100
AcDbEntity
  8
0
100
AcDbBlockEnd
  0
ENDSEC
  0
SECTION
  2
ENTITIES
  0
LWPOLYLINE
  5
8C
330
17
100
AcDbEntity
  8
Layer
100
AcDbPolyline
 90
152
 70
1
 10
432.054545755978
 20
157.3107710463234
 10
432.0545454665245
 20
248.1284691718281
 10
424.3120508443884
 20
249.2031396115775
 10
415.8612558857762
 20
250.30477429938603
 10
407.3953886876796
 20
251.33839009191098
 10
398.91609580836234
 20
252.30588789502124
 10
390.4272175579089
 20
253.20701233273127
 10
381.92975322749976
 20
254.04060876780045
 10
373.42262684499633
 20
254.8068363648806
 10
364.90807466419477
 20
255.5074015516081
 10
356.39203902697443
 20
256.1422578908345
 10
347.8782992504963
 20
256.7095615671953
 10
339.36689262117017
 20
257.2082101861898
 10
330.85935398101356
 20
257.6392890287001
 10
322.3612144822448
 20
258.00262057888386
 10
313.8767600200887
 20
258.29650185966887
 10
305.40590973643623
 20
258.51898094578985
 10
296.9491987136724
 20
258.6707022318463
 10
288.5117682417621
 20
258.7518673361721
 10
280.09811807876764
 20
258.76059376175203
 10
271.7089965589862
 20
258.6947840031515
 10
263.34462830164
 20
258.5545069233885
 10
255.01026913720983
 20
258.34014279745827
 10
246.7114346880673
 20
258.04992567764907
 10
238.44903289332828
 20
257.68130731338135
 10
230.22439185981273
 20
257.23428741661303
 10
222.04335384376964
 20
256.70932202859336
 10
213.9124721139472
 20
256.1044135792303
 10
205.83313153346813
 20
255.41686775139485
 10
197.80805609675437
 20
254.64721641181856
 10
189.84535135205428
 20
253.79581108494517
 10
181.95133571310956
 20
252.86003753726723
 10
174.12837389147563
 20
251.8380606338091
 10
166.3823196168812
 20
250.73121508289125
 10
158.72300988663747
 20
249.53929961737933
 10
151.15680827481617
 20
248.26035103883032
 10
143.68918534398094
 20
246.89579297591345
 10
136.3356030919186
 20
245.45120731313418
 10
129.11467513123935
 20
243.9274519396583
 10
122.03774402062874
 20
242.32359724563705
 10
115.11734438857368
 20
240.64541047002348
 10
108.37598437799363
 20
238.9010886633037
 10
101.83384902047075
 20
237.09349930995967
 10
95.50500450651018
 20
235.22822099568745
 10
89.4086887632707
 20
233.31873644271406
 10
83.56851801811555
 20
231.37701040998803
 10
78.00052711794433
 20
229.410465621865
 10
72.71524225239881
 20
227.43209233316398
 10
67.72480738411298
 20
225.4583431654705
 10
63.03741934419702
 20
223.49991307209163
 10
58.65166026372066
 20
221.56444957138294
 10
54.5614144673151
 20
219.66295606466574
 10
50.75978985507663
 20
217.80527835232164
 10
47.23622182801091
 20
215.99487483176907
 10
43.97495335646289
 20
214.2318602663756
 10
40.95769677997117
 20
212.51801974495567
 10
38.16754819556377
 20
210.85622544370847
 10
35.589099971707526
 20
209.24601457161506
 10
33.20644623074065
 20
207.6837596584085
 10
31.00370886816694
 20
206.1658179710953
 10
28.965649794893125
 20
204.68983575600132
 10
27.079747597344976
 20
203.25492198019248
 10
25.33575486749669
 20
201.85825880789608
 10
23.724246210954675
 20
200.49483906749384
 10
22.23383896325339
 20
199.15805554582096
 10
20.85191562531469
 20
197.84571732165273
 10
19.565982141031554
 20
196.55875280131337
 10
18.366553811843175
 20
195.3025030848275
 10
17.248536902367732
 20
194.08093809558446
 10
16.212041220110393
 20
192.89690421438684
 10
15.259355134394468
 20
191.74583757926246
 10
14.39247967346887
 20
190.62090701962967
 10
13.610848116190482
 20
189.5129749251404
 10
12.90979409174821
 20
188.41336787551842
 10
12.282585581825572
 20
187.3199407220687
 10
11.721783680014198
 20
186.23426726525295
 10
11.222262622562255
 20
185.16293267888597
 10
10.781802549739098
 20
184.11094109068716
 10
10.401119750225462
 20
183.08251929107422
 10
10.082422157989981
 20
182.07798419263858
 10
9.82753920229419
 20
181.09437853701064
 10
9.636717293741697
 20
180.12869161923157
 10
9.508339727616942
 20
179.17857619996863
 10
9.435947717847625
 20
178.16423627616058
 10
9.426177684157778
 20
177.30746046611065
 10
9.4728661315674
 20
176.36602321732627
 10
9.585104778189361
 20
175.42812682975145
 10
9.771148137607213
 20
174.49805119455604
 10
10.041277396658472
 20
173.57536813529367
 10
10.404233192803702
 20
172.65824971635598
 10
10.863300811378679
 20
171.74697593549467
 10
11.41564083655345
 20
170.84451367057594
 10
12.055027771350126
 20
169.95607084734345
 10
12.777273128769082
 20
169.0866259890522
 10
13.581960389000699
 20
168.24019211273622
 10
14.47282403169055
 20
167.4186199403627
 10
15.453589008446556
 20
166.6219804931892
 10
16.52654142795876
 20
165.84844932156238
 10
17.690504203847354
 20
165.0955222298607
 10
18.94456091780961
 20
164.3604527212982
 10
20.287924298578275
 20
163.64178808027458
 10
21.724617766604695
 20
162.9389610406571
 10
23.260536842612566
 20
162.25174751941097
 10
24.90514393966413
 20
161.57932990832572
 10
26.667853442749106
 20
160.91907372567178
 10
28.558170797214018
 20
160.26691480736932
 10
30.58655894406536
 20
159.6183760715609
 10
32.764097177900965
 20
158.96950836780076
 10
35.105543274223464
 20
158.3181638657237
 10
37.62894526053276
 20
157.66336191906873
 10
40.35618004947031
 20
157.00407443127398
 10
43.31081844838087
 20
156.3382837857344
 10
46.51874691287202
 20
155.66403347785678
 10
50.00745024705424
 20
154.98054231321728
 10
53.807819369302365
 20
154.28905754645345
 10
57.95303372771349
 20
153.591696148283
 10
62.4750228040524
 20
152.8893940021358
 10
67.40058677820781
 20
152.18373778350465
 10
72.74999402887903
 20
151.48005203906146
 10
78.53653406780671
 20
150.78599478323656
 10
84.7628792868853
 20
150.1074142642262
 10
91.41453406469415
 20
149.44919503193938
 10
98.4639829525288
 20
148.8198859926395
 10
105.87954855411962
 20
148.22669441599686
 10
113.62184123256733
 20
147.67168156462418
 10
121.64498601986361
 20
147.1578169312337
 10
129.91167117382042
 20
146.6886208963788
 10
138.39017164725166
 20
146.26234800491665
 10
147.04828141912952
 20
145.87700820365484
 10
155.86750075103942
 20
145.53374834251224
 10
164.84397749507684
 20
145.22553297487022
 10
173.9517477135403
 20
144.93531147202563
 10
174.91371549931597
 20
144.90597657709853
 10
174.86799473953363
 20
143.40667353497366
 10
183.08688879128994
 20
143.15604103252366
 10
192.29285651529665
 20
142.89949628935793
 10
201.5300438137045
 20
142.6812064220743
 10
210.83328402682454
 20
142.49960775522132
 10
220.22129424189563
 20
142.3392860654325
 10
229.67668974985082
 20
142.18376564387006
 10
239.16492993156197
 20
142.0246948075937
 10
248.6576617784908
 20
141.86575801146478
 10
258.1338642591314
 20
141.7207413601314
 10
267.61236599423233
 20
141.60095255057524
 10
277.12740279689433
 20
141.5034283806744
 10
286.6927729637844
 20
141.41518563035405
 10
296.2918567454314
 20
141.32638166464073
 10
305.91035844477756
 20
141.2370054907605
 10
315.53624541458277
 20
141.1493535507679
 10
325.1589530390869
 20
141.06224443835592
 10
343.8774932338229
 20
140.90132568967047
 10
432.054545755978
 20
157.3107710463234
  0
LWPOLYLINE
  5
8D
330
17
100
AcDbEntity
  8
NumLabel
 62
1
100
AcDbPolyline
 90
7
 70
0
 10
246.35054545454545
 20
167.79454545454547
 10
251.35054545454545
 20
167.79454545454547
 10
251.35054545454545
 20
162.79454545454547
 10
246.35054545454545
 20
162.79454545454547
 10
251.35054545454545
 20
162.79454545454547
 10
251.35054545454545
 20
157.79454545454547
 10
246.35054545454545
 20
157.79454545454547
  0
LWPOLYLINE
  5
8E
330
17
100
AcDbEntity
  8
NumLabel
 62
1
100
AcDbPolyline
 90
4
 70
0
 10
255.85054545454545
 20
167.79454545454547
 10
253.85054545454545
 20
167.79454545454547
 10
253.85054545454545
 20
157.79454545454547
 10
255.85054545454545
 20
157.79454545454547
  0
LWPOLYLINE
  5
8F
330
17
100
AcDbEntity
  8
NumLabel
 62
1
100
AcDbPolyline
 90
4
 70
0
 10
256.85054545454545
 20
157.79454545454547
 10
258.85054545454545
 20
157.79454545454547
 10
258.85054545454545
 20
167.79454545454547
 10
256.85054545454545
 20
167.79454545454547
  0
LWPOLYLINE
  5
90
330
17
100
AcDbEntity
  8
NumLabel
 62
1
100
AcDbPolyline
 90
2
 70
0
 10
253.85054545454545
 20
162.79454545454547
 10
255.85054545454545
 20
162.79454545454547
  0
LWPOLYLINE
  5
91
330
17
100
AcDbEntity
  8
NumLabel
 62
1
100
AcDbPolyline
 90
2
 70
0
 10
256.85054545454545
 20
162.79454545454547
 10
258.85054545454545
 20
162.79454545454547
  0
LWPOLYLINE
  5
92
330
17
100
AcDbEntity
  8
Layer
100
AcDbPolyline
 90
5
 70
1
 10
243.77607896533289
 20
253.9149623432789
 10
239.7800553666421
 20
253.736649700131
 10
239.60174272349423
 20
257.73267329882174
 10
243.597766322185
 20
257.91098594196967
 10
243.77607896533289
 20
253.9149623432789
  0
LWPOLYLINE
  5
93
330
17
100
AcDbEntity
  8
Layer
100
AcDbPolyline
 90
5
 70
1
 10
99.7774771897198
 20
232.3172088520706
 10
95.94068502647607
 20
231.18626858129082
 10
94.8097447556963
 20
235.02306074453455
 10
98.64653691894003
 20
236.15400101531432
 10
99.7774771897198
 20
232.3172088520706
  0
LWPOLYLINE
  5
94
330
17
100
AcDbEntity
  8
Layer
100
AcDbPolyline
 90
5
 70
1
 10
27.178043014341643
 20
196.87616205126375
 10
25.68958476700959
 20
195.54031324022668
 10
22.349962739416878
 20
199.2614588585568
 10
23.838420986748933
 20
200.59730766959387
 10
27.178043014341643
 20
196.87616205126375
  0
LWPOLYLINE
  5
95
330
17
100
AcDbEntity
  8
Layer
100
AcDbPolyline
 90
5
 70
1
 10
18.508553089517694
 20
170.58374011174874
 10
20.1325621547504
 20
169.4164378561003
 10
17.214306515629243
 20
165.3564151930185
 10
15.590297450396536
 20
166.52371744866696
 10
18.508553089517694
 20
170.58374011174874
  0
LWPOLYLINE
  5
96
330
17
100
AcDbEntity
  8
Layer
100
AcDbPolyline
 90
5
 70
1
 10
130.95954995919175
 20
150.6409916138648
 10
134.95450457406997
 20
150.44014932483412
 10
134.7536622850393
 20
146.4451947099559
 10
130.75870767016107
 20
146.64603699898657
 10
130.95954995919175
 20
150.6409916138648
  0
LWPOLYLINE
  5
97
330
17
100
AcDbEntity
  8
Layer
100
AcDbPolyline
 90
300
 70
1
 10
375.8377872486681
 20
200.0
 10
375.82783502888253
 20
201.00526718066297
 10
375.79798276414584
 20
202.01009046363836
 10
375.7482436363778
 20
203.01402614725137
 10
375.67863960897705
 20
204.01663092176605
 10
375.5892014171226
 20
205.0174620651385
 10
375.4799685542021
 20
206.01607763851024
 10
375.350989254373
 20
207.01203668135634
 10
375.2023204712631
 20
208.00489940620085
 10
375.03402785282174
 20
208.99422739281468
 10
374.84618571233165
 20
209.9795837818097
 10
374.6388769955941
 20
210.96053346754343
 10
374.41219324430244
 20
211.93664329024946
 10
374.16623455561984
 20
212.90748222730878
 10
373.90110953797915
 20
213.87262158357694
 10
373.6169352631247
 20
214.83163518068406
 10
373.31383721441625
 20
215.78409954522297
 10
372.99194923141965
 20
216.72959409574324
 10
372.65141345080673
 20
217.6677013284681
 10
372.29238024359165
 20
218.59800700165243
 10
371.9150081487316
 20
219.52010031850008
 10
371.5194638031201
 20
220.43357410856032
 10
371.1059218680052
 20
221.33802500752284
 10
370.67456495186383
 20
222.23305363533194
 10
370.2255835297669
 20
223.1182647725417
 10
369.75917585927107
 20
223.99326753483362
 10
369.2755478928737
 20
224.8576755456202
 10
368.77491318707007
 20
225.71110710665795
 10
368.2574928080529
 20
226.55318536659462
 10
367.7235152340955
 20
227.3835384873761
 10
367.17321625466246
 20
228.20179980843957
 10
366.6068388662916
 20
229.00760800862076
 10
366.0246331652934
 20
229.8006072657028
 10
365.42685623731563
 20
230.58044741353766
 10
364.81377204382164
 20
231.34678409666944
 10
364.18565130553225
 20
232.0992789223921
 10
363.54277138288313
 20
232.83759961017424
 10
362.8854161535504
 20
233.56142013838468
 10
362.2138758870979
 20
234.27042088825453
 10
361.5284471168028
 20
234.96428878501186
 10
360.8294325087143
 20
235.64271743612665
 10
360.1171407280054
 20
236.30540726660507
 10
359.39188630267455
 20
236.95206565127353
 10
358.6539894846593
 20
237.58240704399344
 10
357.90377610842177
 20
238.1961531037507
 10
357.1415774470696
 20
238.7930328175629
 10
356.36773006607484
 20
239.37278262015136
 10
355.58257567465625
 20
239.93514651032382
 10
354.78646097489013
 20
240.47987616401755
 10
353.97973750861627
 20
241.0067310439523
 10
353.16276150220716
 20
241.51547850584464
 10
352.3358937092686
 20
242.0058939011372
 10
351.49949925134047
 20
242.47776067619722
 10
350.65394745667
 20
242.9308704679404
 10
349.79961169712647
 20
243.36502319583826
 10
348.9368692233308
 20
243.78002715026807
 10
348.06610099807216
 20
244.1756990771664
 10
347.18769152808574
 20
244.5518642589489
 10
346.30202869426523
 20
244.9083565916609
 10
345.4095035803856
 20
245.24501865832377
 10
344.51051030041157
 20
245.56170179844642
 10
343.6054458244679
 20
245.85826617366916
 10
342.6947098035485
 20
246.13458082951246
 10
341.778704393042
 20
246.3905237532029
 10
340.857834075151
 20
246.6259819275505
 10
339.9325054802844
 20
246.84085138085385
 10
339.0031272075006
 20
247.0350372328112
 10
338.0701096440818
 20
247.20845373641686
 10
337.13386478431846
 20
247.36102431582475
 10
336.19480604758434
 20
247.49268160016203
 10
335.253348095782
 20
247.60336745327825
 10
334.3099066502397
 20
247.69303299941657
 10
333.364898308141
 20
247.76163864479605
 10
332.4187403585666
 20
247.80915409509498
 10
331.47185059823164
 20
247.83555836882812
 10
330.52464714699823
 20
247.84083980661154
 10
329.5775482632456
 20
247.82499607631095
 10
328.63097215917884
 20
247.78803417407167
 10
327.6853368161584
 20
247.72997042122918
 10
326.74105980013087
 20
247.6508304571022
 10
325.7985580772442
 20
247.55064922767096
 10
324.8582478297267
 20
247.4294709701462
 10
323.92054427211275
 20
247.28734919343515
 10
322.98586146789603
 20
247.1243466545135
 10
322.0546121466905
 20
246.94053533071371
 10
321.1272075219806
 20
246.73599638794187
 10
320.20405710954117
 20
246.5108201448371
 10
319.2855685466066
 20
246.26510603288943
 10
318.3721474118697
 20
245.99896255253353
 10
317.4641970463898
 20
245.71250722523806
 10
316.5621183754884
 20
245.40586654161154
 10
315.666309731712
 20
245.07917590554754
 10
314.7771666789397
 20
244.73257957443428
 10
313.8950818377132
 20
244.36623059545445
 10
313.0204447118666
 20
243.98029073800402
 10
312.1536415165328
 20
243.5749304222594
 10
311.2950550076012
 20
243.1503286439247
 10
310.445064312704
 20
242.70667289519216
 10
309.6040447638038
 20
242.244159081951
 10
308.7723677314579
 20
241.7629914372809
 10
307.9504004608309
 20
241.26338243126827
 10
307.13850590953035
 20
240.74555267718563
 10
306.3370425873343
 20
240.20973083407486
 10
305.5463643978836
 20
239.6561535057779
 10
304.7668204824084
 20
239.08506513645906
 10
303.99875506555657
 20
238.49671790266547
 10
303.24250730339435
 20
237.89137160197288
 10
302.4984111336442
 20
237.2692935382665
 10
301.76679512822756
 20
236.6307584037071
 10
301.0479823481766
 20
235.97604815743452
 10
300.3422902009796
 20
235.30545190106275
 10
299.6500303004227
 20
234.6192657510205
 10
298.97150832899007
 20
233.91779270779466
 10
298.3070239028831
 20
233.20134252213393
 10
297.6568704397183
 20
232.47023155827137
 10
297.02133502896265
 20
231.724782654227
 10
296.4006983051623
 20
230.9653249792516
 10
295.79523432402283
 20
230.19219388847486
 10
295.20521044139394
 20
229.4057307748219
 10
294.63088719521227
 20
228.6062829182639
 10
294.0725181904554
 20
227.7942033324689
 10
293.5303499871573
 20
226.96985060892106
 10
293.0046219915337
 20
226.13358875857662
 10
292.4955663502677
 20
225.2857870511269
 10
292.003407848
 20
224.4268198519394
 10
291.52836380807037
 20
223.55706645674834
 10
291.0706439965537
 20
222.67691092416845
 10
290.6304505296336
 20
221.78674190610553
 10
290.2079777843529
 20
220.8869524761387
 10
289.80341231278305
 20
219.97793995595012
 10
289.4169327596471
 20
219.06010573987896
 10
289.04870978343604
 20
218.13385511767694
 10
288.6989059810502
 20
217.19959709554382
 10
288.3676758160013
 20
216.25774421552174
 10
288.05516555020574
 20
215.30871237332823
 10
287.7615131793994
 20
214.35292063470854
 10
287.48684837220253
 20
213.39079105038775
 10
287.2312924128619
 20
212.42274846970525
 10
286.9949581476949
 20
211.4492203530132
 10
286.77794993526004
 20
210.47063658292194
 10
286.58036360027484
 20
209.48742927447614
 10
286.40228639130254
 20
208.50003258434475
 10
286.2437969422256
 20
207.50888251910982
 10
286.10496523752295
 20
206.5144167427381
 10
285.9858525813672
 20
205.51707438332107
 10
285.88651157055426
 20
204.5172958391684
 10
285.8069860712777
 20
203.5155225843402
 10
285.7473111997595
 20
202.5121969737048
 10
285.7075133067429
 20
201.50776204760697
 10
285.68760996585706
 20
200.50266133623418
 10
285.68760996585706
 20
199.49733866376582
 10
285.7075133067429
 20
198.49223795239303
 10
285.7473111997595
 20
197.48780302629524
 10
285.8069860712777
 20
196.4844774156598
 10
285.88651157055426
 20
195.4827041608316
 10
285.9858525813672
 20
194.48292561667893
 10
286.10496523752295
 20
193.48558325726194
 10
286.2437969422256
 20
192.4911174808902
 10
286.40228639130254
 20
191.49996741565525
 10
286.58036360027484
 20
190.51257072552386
 10
286.77794993526004
 20
189.52936341707806
 10
286.9949581476949
 20
188.5507796469868
 10
287.2312924128619
 20
187.57725153029475
 10
287.48684837220253
 20
186.60920894961228
 10
287.7615131793994
 20
185.6470793652915
 10
288.05516555020574
 20
184.69128762667177
 10
288.3676758160013
 20
183.7422557844783
 10
288.6989059810502
 20
182.80040290445618
 10
289.04870978343604
 20
181.86614488232306
 10
289.4169327596471
 20
180.93989426012104
 10
289.80341231278305
 20
180.02206004404988
 10
290.2079777843529
 20
179.11304752386133
 10
290.63045052963355
 20
178.21325809389447
 10
291.0706439965537
 20
177.32308907583158
 10
291.52836380807037
 20
176.44293354325168
 10
292.003407848
 20
175.5731801480606
 10
292.4955663502677
 20
174.71421294887307
 10
293.0046219915337
 20
173.8664112414234
 10
293.5303499871573
 20
173.03014939107894
 10
294.0725181904554
 20
172.2057966675311
 10
294.63088719521227
 20
171.39371708173613
 10
295.20521044139394
 20
170.5942692251781
 10
295.79523432402283
 20
169.80780611152514
 10
296.4006983051623
 20
169.03467502074838
 10
297.02133502896265
 20
168.275217345773
 10
297.6568704397183
 20
167.52976844172863
 10
298.3070239028831
 20
166.79865747786607
 10
298.97150832899007
 20
166.08220729220534
 10
299.6500303004227
 20
165.38073424897954
 10
300.3422902009796
 20
164.69454809893728
 10
301.0479823481766
 20
164.02395184256545
 10
301.76679512822756
 20
163.3692415962929
 10
302.4984111336442
 20
162.7307064617335
 10
303.2425073033943
 20
162.10862839802712
 10
303.99875506555657
 20
161.50328209733453
 10
304.7668204824084
 20
160.91493486354094
 10
305.5463643978836
 20
160.3438464942221
 10
306.3370425873343
 20
159.79026916592514
 10
307.13850590953035
 20
159.25444732281437
 10
307.9504004608309
 20
158.73661756873173
 10
308.7723677314579
 20
158.2370085627191
 10
309.60404476380387
 20
157.755840918049
 10
310.445064312704
 20
157.29332710480784
 10
311.2950550076012
 20
156.8496713560753
 10
312.15364151653273
 20
156.4250695777406
 10
313.0204447118666
 20
156.01970926199598
 10
313.8950818377132
 20
155.63376940454557
 10
314.7771666789397
 20
155.26742042556572
 10
315.666309731712
 20
154.92082409445246
 10
316.56211837548835
 20
154.59413345838846
 10
317.4641970463898
 20
154.28749277476194
 10
318.3721474118697
 20
154.00103744746647
 10
319.2855685466066
 20
153.73489396711057
 10
320.20405710954117
 20
153.4891798551629
 10
321.1272075219806
 20
153.26400361205813
 10
322.0546121466905
 20
153.05946466928629
 10
322.98586146789603
 20
152.8756533454865
 10
323.92054427211275
 20
152.71265080656485
 10
324.8582478297267
 20
152.5705290298538
 10
325.7985580772442
 20
152.44935077232904
 10
326.74105980013087
 20
152.3491695428978
 10
327.6853368161584
 20
152.27002957877082
 10
328.63097215917884
 20
152.21196582592833
 10
329.5775482632456
 20
152.17500392368905
 10
330.52464714699823
 20
152.15916019338846
 10
331.47185059823164
 20
152.16444163117188
 10
332.4187403585666
 20
152.19084590490502
 10
333.364898308141
 20
152.23836135520395
 10
334.3099066502397
 20
152.30696700058343
 10
335.253348095782
 20
152.39663254672175
 10
336.19480604758434
 20
152.50731839983797
 10
337.13386478431846
 20
152.63897568417525
 10
338.0701096440818
 20
152.79154626358314
 10
339.0031272075006
 20
152.9649627671888
 10
339.93250548028436
 20
153.15914861914615
 10
340.857834075151
 20
153.3740180724495
 10
341.77870439304195
 20
153.6094762467971
 10
342.6947098035485
 20
153.86541917048754
 10
343.6054458244679
 20
154.14173382633084
 10
344.51051030041157
 20
154.43829820155355
 10
345.4095035803856
 20
154.75498134167623
 10
346.30202869426523
 20
155.0916434083391
 10
347.18769152808574
 20
155.4481357410511
 10
348.06610099807216
 20
155.8243009228336
 10
348.9368692233308
 20
156.21997284973193
 10
349.79961169712647
 20
156.63497680416174
 10
350.65394745667
 20
157.0691295320596
 10
351.49949925134047
 20
157.52223932380278
 10
352.3358937092686
 20
157.9941060988628
 10
353.16276150220716
 20
158.48452149415533
 10
353.9797375086162
 20
158.99326895604767
 10
354.7864609748901
 20
159.52012383598242
 10
355.58257567465625
 20
160.06485348967618
 10
356.36773006607484
 20
160.62721737984862
 10
357.1415774470696
 20
161.20696718243707
 10
357.90377610842177
 20
161.8038468962493
 10
358.6539894846593
 20
162.41759295600656
 10
359.39188630267455
 20
163.04793434872647
 10
360.1171407280054
 20
163.69459273339493
 10
360.8294325087143
 20
164.35728256387335
 10
361.5284471168028
 20
165.03571121498814
 10
362.2138758870979
 20
165.72957911174547
 10
362.8854161535504
 20
166.43857986161532
 10
363.5427713828832
 20
167.16240038982576
 10
364.18565130553225
 20
167.90072107760787
 10
364.81377204382164
 20
168.65321590333053
 10
365.42685623731563
 20
169.41955258646232
 10
366.0246331652933
 20
170.19939273429716
 10
366.6068388662916
 20
170.99239199137924
 10
367.17321625466246
 20
171.7982001915604
 10
367.7235152340955
 20
172.6164615126239
 10
368.2574928080529
 20
173.44681463340538
 10
368.77491318707007
 20
174.28889289334205
 10
369.2755478928737
 20
175.1423244543798
 10
369.75917585927107
 20
176.00673246516638
 10
370.2255835297669
 20
176.8817352274583
 10
370.67456495186383
 20
177.76694636466806
 10
371.1059218680052
 20
178.66197499247716
 10
371.5194638031201
 20
179.56642589143968
 10
371.91500814873154
 20
180.4798996814999
 10
372.29238024359165
 20
181.40199299834757
 10
372.65141345080673
 20
182.33229867153187
 10
372.99194923141965
 20
183.27040590425676
 10
373.31383721441625
 20
184.21590045477703
 10
373.6169352631247
 20
185.1683648193159
 10
373.90110953797915
 20
186.12737841642303
 10
374.16623455561984
 20
187.09251777269122
 10
374.41219324430244
 20
188.06335670975054
 10
374.6388769955941
 20
189.03946653245657
 10
374.84618571233165
 20
190.0204162181903
 10
375.03402785282174
 20
191.00577260718532
 10
375.2023204712631
 20
191.99510059379915
 10
375.350989254373
 20
192.98796331864366
 10
375.4799685542021
 20
193.98392236148976
 10
375.5892014171225
 20
194.9825379348615
 10
375.678639608977
 20
195.98336907823392
 10
375.7482436363778
 20
196.9859738527486
 10
375.79798276414584
 20
197.98990953636164
 10
375.82783502888253
 20
198.99473281933703
 10
375.8377872486681
 20
200.0
  0
LWPOLYLINE
  5
98
330
17
100
AcDbEntity
  8
Layer
100
AcDbPolyline
 90
5
 70
1
 10
149.00686050881433
 20
205.00000000000003
 10
154.00686050881433
 20
200.00000000000003
 10
149.00686050881433
 20
195.00000000000003
 10
144.00686050881433
 20
200.00000000000003
 10
149.00686050881433
 20
205.00000000000003
  0
LWPOLYLINE
  5
99
330
17
100
AcDbEntity
  8
Layer
100
AcDbPolyline
 90
5
 70
1
 10
328.0083412283074
 20
205.0
 10
333.0083412283074
 20
200.0
 10
328.0083412283074
 20
195.0
 10
323.0083412283074
 20
200.0
 10
328.0083412283074
 20
205.0
  0
LWPOLYLINE
  5
9A
330
17
100
AcDbEntity
  8
Layer
100
AcDbPolyline
 90
5
 70
1
 10
93.81702312421237
 20
178.5638864092255
 10
98.48579371139088
 20
173.25327616140115
 10
93.17518346356655
 20
168.58450557422262
 10
88.50641287638804
 20
173.89511582204696
 10
93.81702312421237
 20
178.5638864092255
  0
LWPOLYLINE
  5
9B
330
17
100
AcDbEntity
  8
Layer
100
AcDbPolyline
 90
5
 70
1
 10
190.71146988849137
 20
172.3319668284522
 10
195.3802404756699
 20
167.02135658062787
 10
190.06963022784555
 20
162.35258599344934
 10
185.40085964066702
 20
167.66319624127368
 10
190.71146988849137
 20
172.3319668284522
  0
LWPOLYLINE
  5
9C
330
17
100
AcDbEntity
  8
Layer
100
AcDbPolyline
 90
5
 70
1
 10
175.7614545454545
 20
183.49412815701655
 10
180.7614545454545
 20
188.49412815701655
 10
185.7614545454545
 20
183.49412815701655
 10
180.7614545454545
 20
178.49412815701655
 10
175.7614545454545
 20
183.49412815701655
  0
LWPOLYLINE
  5
9D
330
17
100
AcDbEntity
  8
Layer
100
AcDbPolyline
 90
5
 70
1
 10
175.7614545454545
 20
212.4374199539412
 10
180.7614545454545
 20
217.4374199539412
 10
185.7614545454545
 20
212.4374199539412
 10
180.7614545454545
 20
207.4374199539412
 10
175.7614545454545
 20
212.4374199539412
  0
LINE
  5
9E
330
17
100
AcDbEntity
  8
Layer
 62
7
100
AcDbLine
 10
23.172540029152287
 20
200.00000000000003
 30
0.0
 11
432.0545454545454
 21
200.0
 31
0.0
  0
LINE
  5
9F
330
17
100
AcDbEntity
  8
Layer
 62
7
100
AcDbLine
 10
143.00686050881433
 20
200.00000000000003
 30
0.0
 11
155.00686050881433
 21
200.00000000000003
 31
0.0
  0
LINE
  5
A0
330
17
100
AcDbEntity
  8
Layer
 62
7
100
AcDbLine
 10
322.0083412283074
 20
200.0
 30
0.0
 11
334.0083412283074
 21
200.0
 31
0.0
  0
LINE
  5
A1
330
17
100
AcDbEntity
  8
Layer
 62
7
100
AcDbLine
 10
9.493948339714393
 20
178.97692743576246
 30
0.0
 11
410.0449304823341
 21
153.21485755382975
 31
0.0
  0
LINE
  5
A2
330
17
100
AcDbEntity
  8
Layer
 62
7
100
AcDbLine
 10
87.50847479288777
 20
173.95929978811154
 30
0.0
 11
99.48373179489116
 21
173.18909219533657
 31
0.0
  0
LINE
  5
A3
330
17
100
AcDbEntity
  8
Layer
 62
7
100
AcDbLine
 10
184.40292155716676
 20
167.72738020733823
 30
0.0
 11
196.37817855917015
 21
166.95717261456326
 31
0.0
  0
LINE
  5
A4
330
17
100
AcDbEntity
  8
Layer
100
AcDbLine
 10
330.7614545454545
 20
247.8415
 30
0.0
 11
330.7614545454545
 21
248.8415
 31
0.0
  0
LINE
  5
A5
330
17
100
AcDbEntity
  8
Layer
100
AcDbLine
 10
330.7614545454545
 20
152.1585
 30
0.0
 11
330.7614545454545
 21
151.1585
 31
0.0
  0
LINE
  5
A6
330
17
100
AcDbEntity
  8
Layer
100
AcDbLine
 10
375.8377872486681
 20
200.0
 30
0.0
 11
376.8377872486681
 21
200.0
 31
0.0
  0
LINE
  5
A7
330
17
100
AcDbEntity
  8
Layer
100
AcDbLine
 10
285.6851218422409
 20
200.0
 30
0.0
 11
284.6851218422409
 21
200.0
 31
0.0
  0
LINE
  5
A8
330
17
100
AcDbEntity
  8
Layer
 62
7
100
AcDbLine
 10
180.7614545454545
 20
143.2269543939378
 30
0.0
 11
180.7614545454545
 21
252.70459371701997
 31
0.0
  0
LINE
  5
A9
330
17
100
AcDbEntity
  8
Layer
 62
7
100
AcDbLine
 10
180.7614545454545
 20
177.49412815701655
 30
0.0
 11
180.7614545454545
 21
189.49412815701655
 31
0.0
  0
LINE
  5
AA
330
17
100
AcDbEntity
  8
Layer
 62
7
100
AcDbLine
 10
180.7614545454545
 20
206.4374199539412
 30
0.0
 11
180.7614545454545
 21
218.4374199539412
 31
0.0
  0
ENDSEC
  0
SECTION
  2
OBJECTS
  0
DICTIONARY
  5
A
330
0
100
AcDbDictionary
280
0
281
1
  3
ACAD_COLOR
350
B
  3
ACAD_GROUP
350
C
  3
ACAD_LAYOUT
350
D
  3
ACAD_MATERIAL
350
E
  3
ACAD_MLEADERSTYLE
350
F
  3
ACAD_MLINESTYLE
350
10
  3
ACAD_PLOTSETTINGS
350
11
  3
ACAD_PLOTSTYLENAME
350
12
  3
ACAD_SCALELIST
350
14
  3
ACAD_TABLESTYLE
350
15
  3
ACAD_VISUALSTYLE
350
16
  3
EZDXF_META
350
2D
  0
DICTIONARY
  5
B
330
A
100
AcDbDictionary
280
0
281
1
  0
DICTIONARY
  5
C
330
A
100
AcDbDictionary
280
0
281
1
  0
DICTIONARY
  5
D
330
A
100
AcDbDictionary
280
0
281
1
  3
Model
350
1A
  3
Layout1
350
1E
  0
DICTIONARY
  5
E
330
A
100
AcDbDictionary
280
0
281
1
  3
ByBlock
350
1F
  3
ByLayer
350
20
  3
Global
350
21
  0
DICTIONARY
  5
F
330
A
100
AcDbDictionary
280
0
281
1
  3
Standard
350
2C
  0
DICTIONARY
  5
10
330
A
100
AcDbDictionary
280
0
281
1
  3
Standard
350
22
  0
DICTIONARY
  5
11
330
A
100
AcDbDictionary
280
0
281
1
  0
ACDBDICTIONARYWDFLT
  5
12
330
A
100
AcDbDictionary
280
0
281
1
  3
Normal
350
13
100
AcDbDictionaryWithDefault
340
13
  0
ACDBPLACEHOLDER
  5
13
330
12
  0
DICTIONARY
  5
14
330
A
100
AcDbDictionary
280
0
281
1
  0
DICTIONARY
  5
15
330
A
100
AcDbDictionary
280
0
281
1
  0
DICTIONARY
  5
16
330
A
100
AcDbDictionary
280
0
281
1
  3
2dWireframe
350
5A
  3
Basic
350
5B
  3
Brighten
350
5C
  3
ColorChange
350
5D
  3
Conceptual
350
5E
  3
Dim
350
5F
  3
EdgeColorOff
350
60
  3
Facepattern
350
61
  3
Flat
350
62
  3
FlatWithEdges
350
63
  3
Gouraud
350
64
  3
GouraudWithEdges
350
65
  3
Hidden
350
66
  3
JitterOff
350
67
  3
Linepattern
350
68
  3
Modeling
350
69
  3
OverhangOff
350
6A
  3
Realistic
350
6B
  3
Shaded
350
6C
  3
Shaded with edges
350
6D
  3
Shades of Gray
350
6E
  3
Sketchy
350
6F
  3
Thicken
350
70
  3
Wireframe
350
71
  3
X-Ray
350
72
  0
LAYOUT
  5
1A
330
D
100
AcDbPlotSettings
  1

  2
Adobe PDF
  4
A3
  6

 40
7.5
 41
20.0
 42
7.5
 43
20.0
 44
420.0
 45
297.0
 46
0.0
 47
0.0
 48
0.0
 49
0.0
140
0.0
141
0.0
142
1.0
143
1.0
 70
1024
 72
1
 73
0
 74
5
  7

 75
16
 76
0
 77
2
 78
300
147
1.0
148
0.0
149
0.0
100
AcDbLayout
  1
Model
 70
1
 71
0
 10
0.0
 20
0.0
 11
420.0
 21
297.0
 12
0.0
 22
0.0
 32
0.0
 14
1e+20
 24
1e+20
 34
1e+20
 15
-1e+20
 25
-1e+20
 35
-1e+20
146
0.0
 13
0.0
 23
0.0
 33
0.0
 16
1.0
 26
0.0
 36
0.0
 17
0.0
 27
1.0
 37
0.0
 76
1
330
17
  0
LAYOUT
  5
1E
330
D
100
AcDbPlotSettings
  1

  2
Adobe PDF
  4
A3
  6

 40
7.5
 41
20.0
 42
7.5
 43
20.0
 44
420.0
 45
297.0
 46
0.0
 47
0.0
 48
0.0
 49
0.0
140
0.0
141
0.0
142
1.0
143
1.0
 70
0
 72
1
 73
0
 74
5
  7

 75
16
 76
0
 77
2
 78
300
147
1.0
148
0.0
149
0.0
100
AcDbLayout
  1
Layout1
 70
1
 71
1
 10
0.0
 20
0.0
 11
420.0
 21
297.0
 12
0.0
 22
0.0
 32
0.0
 14
1e+20
 24
1e+20
 34
1e+20
 15
-1e+20
 25
-1e+20
 35
-1e+20
146
0.0
 13
0.0
 23
0.0
 33
0.0
 16
1.0
 26
0.0
 36
0.0
 17
0.0
 27
1.0
 37
0.0
 76
1
330
1B
  0
MATERIAL
  5
1F
102
{ACAD_REACTORS
330
E
102
}
330
E
100
AcDbMaterial
  1
ByBlock
  2

 70
0
 40
1.0
 71
1
 41
1.0
 91
-1023410177
 42
1.0
 72
1
  3

 73
1
 74
1
 75
1
 44
0.5
 73
0
 45
1.0
 46
1.0
 77
1
  4

 78
1
 79
1
170
1
 48
1.0
171
1
  6

172
1
173
1
174
1
140
1.0
141
1.0
175
1
  7

176
1
177
1
178
1
143
1.0
179
1
  8

270
1
271
1
272
1
145
1.0
146
1.0
273
1
  9

274
1
275
1
276
1
 42
1.0
 72
1
  3

 73
1
 74
1
 75
1
 94
63
  0
MATERIAL
  5
20
102
{ACAD_REACTORS
330
E
102
}
330
E
100
AcDbMaterial
  1
ByLayer
  2

 70
0
 40
1.0
 71
1
 41
1.0
 91
-1023410177
 42
1.0
 72
1
  3

 73
1
 74
1
 75
1
 44
0.5
 73
0
 45
1.0
 46
1.0
 77
1
  4

 78
1
 79
1
170
1
 48
1.0
171
1
  6

172
1
173
1
174
1
140
1.0
141
1.0
175
1
  7

176
1
177
1
178
1
143
1.0
179
1
  8

270
1
271
1
272
1
145
1.0
146
1.0
273
1
  9

274
1
275
1
276
1
 42
1.0
 72
1
  3

 73
1
 74
1
 75
1
 94
63
  0
MATERIAL
  5
21
102
{ACAD_REACTORS
330
E
102
}
330
E
100
AcDbMaterial
  1
Global
  2

 70
0
 40
1.0
 71
1
 41
1.0
 91
-1023410177
 42
1.0
 72
1
  3

 73
1
 74
1
 75
1
 44
0.5
 73
0
 45
1.0
 46
1.0
 77
1
  4

 78
1
 79
1
170
1
 48
1.0
171
1
  6

172
1
173
1
174
1
140
1.0
141
1.0
175
1
  7

176
1
177
1
178
1
143
1.0
179
1
  8

270
1
271
1
272
1
145
1.0
146
1.0
273
1
  9

274
1
275
1
276
1
 42
1.0
 72
1
  3

 73
1
 74
1
 75
1
 94
63
  0
MLINESTYLE
  5
22
102
{ACAD_REACTORS
330
10
102
}
330
10
100
AcDbMlineStyle
  2
Standard
 70
0
  3

 62
256
 51
90.0
 52
90.0
 71
2
 49
0.5
 62
256
  6
BYLAYER
 49
-0.5
 62
256
  6
BYLAYER
  0
MLEADERSTYLE
  5
2C
102
{ACAD_REACTORS
330
F
102
}
330
F
100
AcDbMLeaderStyle
179
2
170
2
171
1
172
0
 90
2
 40
0.0
 41
0.0
173
1
 91
-1056964608
 92
-2
290
1
 42
2.0
291
1
 43
8.0
  3
Standard
 44
4.0
300

342
29
174
1
175
1
176
0
178
1
 93
-1056964608
 45
4.0
292
0
297
0
 46
4.0
 94
-1056964608
 47
1.0
 49
1.0
140
1.0
294
1
141
0.0
177
0
142
1.0
295
0
296
0
143
3.75
271
0
272
9
273
9
  0
DICTIONARY
  5
2D
330
A
100
AcDbDictionary
281
1
  3
CREATED_BY_EZDXF
350
2E
  3
WRITTEN_BY_EZDXF
350
AD
  0
DICTIONARYVAR
  5
2E
330
2D
100
DictionaryVariables
280
0
  1
1.3.0 @ 2026-01-06T17:07:15.156326+00:00
  0
VISUALSTYLE
  5
5A
102
{ACAD_REACTORS
330
16
102
}
330
16
100
AcDbVisualStyle
  2
2dWireframe
 70
4
 90
0
 40
0.6
 62
7
290
0
291
0
  0
VISUALSTYLE
  5
5B
102
{ACAD_REACTORS
330
16
102
}
330
16
100
AcDbVisualStyle
  2
Basic
 70
7
 90
1
 40
0.6
 62
7
290
0
291
1
  0
VISUALSTYLE
  5
5C
102
{ACAD_REACTORS
330
16
102
}
330
16
100
AcDbVisualStyle
  2
Brighten
 70
12
 90
2
 40
0.6
 62
7
290
0
291
1
  0
VISUALSTYLE
  5
5D
102
{ACAD_REACTORS
330
16
102
}
330
16
100
AcDbVisualStyle
  2
ColorChange
 70
16
 90
2
 40
0.6
 62
8
290
0
291
1
  0
VISUALSTYLE
  5
5E
102
{ACAD_REACTORS
330
16
102
}
330
16
100
AcDbVisualStyle
  2
Conceptual
 70
9
 90
3
 40
0.6
 62
7
290
0
291
0
  0
VISUALSTYLE
  5
5F
102
{ACAD_REACTORS
330
16
102
}
330
16
100
AcDbVisualStyle
  2
Dim
 70
11
 90
2
 40
0.6
 62
7
290
0
291
1
  0
VISUALSTYLE
  5
60
102
{ACAD_REACTORS
330
16
102
}
330
16
100
AcDbVisualStyle
  2
EdgeColorOff
 70
22
 90
2
 40
0.6
 62
7
290
0
291
1
  0
VISUALSTYLE
  5
61
102
{ACAD_REACTORS
330
16
102
}
330
16
100
AcDbVisualStyle
  2
Facepattern
 70
15
 90
2
 40
0.6
 62
7
290
0
291
1
  0
VISUALSTYLE
  5
62
102
{ACAD_REACTORS
330
16
102
}
330
16
100
AcDbVisualStyle
  2
Flat
 70
0
 90
2
 40
0.6
 62
7
290
0
291
1
  0
VISUALSTYLE
  5
63
102
{ACAD_REACTORS
330
16
102
}
330
16
100
AcDbVisualStyle
  2
FlatWithEdges
 70
1
 90
2
 40
0.6
 62
7
290
0
291
1
  0
VISUALSTYLE
  5
64
102
{ACAD_REACTORS
330
16
102
}
330
16
100
AcDbVisualStyle
  2
Gouraud
 70
2
 90
2
 40
0.6
 62
7
290
0
291
1
  0
VISUALSTYLE
  5
65
102
{ACAD_REACTORS
330
16
102
}
330
16
100
AcDbVisualStyle
  2
GouraudWithEdges
 70
3
 90
2
 40
0.6
 62
7
290
0
291
1
  0
VISUALSTYLE
  5
66
102
{ACAD_REACTORS
330
16
102
}
330
16
100
AcDbVisualStyle
  2
Hidden
 70
6
 90
1
 40
0.6
 62
7
290
0
291
0
  0
VISUALSTYLE
  5
67
102
{ACAD_REACTORS
330
16
102
}
330
16
100
AcDbVisualStyle
  2
JitterOff
 70
20
 90
2
 40
0.6
 62
7
290
0
291
1
  0
VISUALSTYLE
  5
68
102
{ACAD_REACTORS
330
16
102
}
330
16
100
AcDbVisualStyle
  2
Linepattern
 70
14
 90
2
 40
0.6
 62
7
290
0
291
1
  0
VISUALSTYLE
  5
69
102
{ACAD_REACTORS
330
16
102
}
330
16
100
AcDbVisualStyle
  2
Modeling
 70
10
 90
2
 40
0.6
 62
7
290
0
291
0
  0
VISUALSTYLE
  5
6A
102
{ACAD_REACTORS
330
16
102
}
330
16
100
AcDbVisualStyle
  2
OverhangOff
 70
21
 90
2
 40
0.6
 62
7
290
0
291
1
  0
VISUALSTYLE
  5
6B
102
{ACAD_REACTORS
330
16
102
}
330
16
100
AcDbVisualStyle
  2
Realistic
 70
8
 90
2
 40
0.6
 62
7
290
0
291
0
  0
VISUALSTYLE
  5
6C
102
{ACAD_REACTORS
330
16
102
}
330
16
100
AcDbVisualStyle
  2
Shaded
 70
27
 90
2
 40
0.6
 62
7
290
0
291
0
  0
VISUALSTYLE
  5
6D
102
{ACAD_REACTORS
330
16
102
}
330
16
100
AcDbVisualStyle
  2
Shaded with edges
 70
26
 90
2
 40
0.6
 62
7
290
0
291
0
  0
VISUALSTYLE
  5
6E
102
{ACAD_REACTORS
330
16
102
}
330
16
100
AcDbVisualStyle
  2
Shades of Gray
 70
23
 90
2
 40
0.6
 62
7
290
0
291
0
  0
VISUALSTYLE
  5
6F
102
{ACAD_REACTORS
330
16
102
}
330
16
100
AcDbVisualStyle
  2
Sketchy
 70
24
 90
1
 40
0.6
 62
7
290
0
291
0
  0
VISUALSTYLE
  5
70
102
{ACAD_REACTORS
330
16
102
}
330
16
100
AcDbVisualStyle
  2
Thicken
 70
13
 90
2
 40
0.6
 62
7
290
0
291
1
  0
VISUALSTYLE
  5
71
102
{ACAD_REACTORS
330
16
102
}
330
16
100
AcDbVisualStyle
  2
Wireframe
 70
5
 90
0
 40
0.6
 62
7
290
0
291
0
  0
VISUALSTYLE
  5
72
102
{ACAD_REACTORS
330
16
102
}
330
16
100
AcDbVisualStyle
  2
X-Ray
 70
25
 90
2
 40
0.5
 62
7
290
0
291
0
  0
DICTIONARYVAR
  5
AD
330
2D
100
DictionaryVariables
280
0
  1
1.3.0 @ 2026-01-06T17:07:15.175660+00:00
  0
ENDSEC
  0
EOF
