<?xml version="1.0" encoding="utf-8" standalone="no"?>
<!DOCTYPE svg PUBLIC "-//W3C//DTD SVG 1.1//EN"
  "http://www.w3.org/Graphics/SVG/1.1/DTD/svg11.dtd">
<svg xmlns:xlink="http://www.w3.org/1999/xlink" width="1152pt" height="214.337627pt" viewBox="0 0 1152 214.337627" xmlns="http://www.w3.org/2000/svg" version="1.1">
 <metadata>
  <rdf:RDF xmlns:dc="http://purl.org/dc/elements/1.1/" xmlns:cc="http://creativecommons.org/ns#" xmlns:rdf="http://www.w3.org/1999/02/22-rdf-syntax-ns#">
   <cc:Work>
    <dc:type rdf:resource="http://purl.org/dc/dcmitype/StillImage"/>
    <dc:date>2026-01-07T02:07:13.851791</dc:date>
    <dc:format>image/svg+xml</dc:format>
    <dc:creator>
     <cc:Agent>
      <dc:title>Matplotlib v3.10.1, https://matplotlib.org/</dc:title>
     </cc:Agent>
    </dc:creator>
   </cc:Work>
  </rdf:RDF>
 </metadata>
 <defs>
  <style type="text/css">*{stroke-linejoin: round; stroke-linecap: butt}</style>
 </defs>
 <g id="figure_1">
  <g id="patch_1">
   <path d="M 0 214.337627 
L 1152 214.337627 
L 1152 0 
L 0 0 
z
" style="fill: #ffffff"/>
  </g>
  <g id="axes_1">
   <g id="patch_2">
    <path d="M 0 214.337627 
L 1152 214.337627 
L 1152 0 
L 0 0 
z
" style="fill: #212830"/>
   </g>
   <g id="patch_3">
    <path d="M 1099.636364 112.482451 
L 1084.704959 107.516222 
L 1056.599719 98.412406 
L 1028.725461 89.733281 
L 1001.015355 81.497737 
L 973.403714 73.705584 
L 945.839464 66.363339 
L 918.278901 59.465311 
L 904.493454 56.185075 
L 876.888603 49.958802 
L 863.069619 47.012028 
L 849.238307 44.177955 
L 835.391384 41.456203 
L 821.527468 38.845435 
L 807.649742 36.345621 
L 793.759055 33.95861 
L 779.852757 31.684753 
L 765.930637 29.522523 
L 751.996081 27.472444 
L 738.049347 25.536619 
L 724.084072 23.716127 
L 710.093914 22.008042 
L 682.053381 18.92008 
L 668.011001 17.542534 
L 639.882085 15.118613 
L 611.739743 13.132005 
L 583.615304 11.595602 
L 569.571792 10.995185 
L 555.550868 10.509537 
L 541.552429 10.141885 
L 527.577354 9.891162 
L 513.634114 9.757036 
L 499.730141 9.742619 
L 485.866696 9.851377 
L 472.044152 10.083196 
L 458.271169 10.437449 
L 444.556852 10.917054 
L 430.90273 11.526223 
L 417.310999 12.264956 
L 403.791283 13.132501 
L 390.354405 14.132162 
L 377.002689 15.268389 
L 363.740626 16.540304 
L 350.581575 17.94733 
L 337.535988 19.493789 
L 324.607805 21.182709 
L 311.80667 23.011891 
L 299.148818 24.98167 
L 286.644806 27.095287 
L 274.303697 29.350386 
L 262.150967 31.737757 
L 250.21736 34.25599 
L 238.521692 36.906606 
L 227.084666 39.68008 
L 215.943398 42.562888 
L 205.131285 45.550285 
L 194.671642 48.633033 
L 184.596202 51.788872 
L 174.943939 54.998051 
L 165.741438 58.248277 
L 157.006125 61.518073 
L 148.757986 64.780284 
L 141.01057 68.017241 
L 133.761619 71.216269 
L 127.00102 74.35919 
L 120.717306 77.429771 
L 114.89301 80.422309 
L 109.502171 83.336576 
L 99.902295 88.916688 
L 91.700703 94.161405 
L 84.689345 99.111362 
L 78.687246 103.793516 
L 73.557391 108.259141 
L 69.145572 112.55767 
L 65.313302 116.655207 
L 62.022439 120.518523 
L 59.293448 124.215237 
L 57.094235 127.846652 
L 55.338846 131.418002 
L 53.978978 134.863914 
L 53.028498 138.159717 
L 52.499511 141.337004 
L 52.363636 144.4409 
L 52.6281 147.56068 
L 52.937593 149.105758 
L 53.386873 150.638736 
L 53.990169 152.161982 
L 54.752594 153.674642 
L 55.669261 155.171817 
L 56.72989 156.645157 
L 57.927635 158.086648 
L 59.261825 159.489731 
L 60.738464 160.851244 
L 62.363482 162.170972 
L 64.140456 163.451902 
L 68.142941 165.914759 
L 72.742909 168.266672 
L 78.004084 170.515656 
L 84.04495 172.68589 
L 90.998532 174.830834 
L 99.040611 176.989997 
L 108.432423 179.180255 
L 119.500821 181.424354 
L 132.632938 183.719764 
L 148.246743 186.046659 
L 166.650438 188.356612 
L 187.93253 190.565789 
L 199.58226 191.605764 
L 224.631353 193.503222 
L 251.550767 195.127754 
L 279.869213 196.46895 
L 309.276353 197.545503 
L 325.916204 198.073557 
L 325.843581 200.455051 
L 354.63726 201.293135 
L 385.274354 201.95393 
L 463.436106 203.240966 
L 510.62822 203.745881 
L 605.123 204.595008 
L 1099.636364 112.482451 
L 1099.636364 112.482451 
" clip-path="url(#p1c12950e7c)" style="fill: none; stroke: #ff0000; stroke-width: 0.72; stroke-linejoin: miter"/>
   </g>
   <g id="patch_4">
    <path d="M 964.094138 77.770103 
L 957.960795 76.111687 
L 959.619211 69.978344 
L 965.752554 71.63676 
L 964.094138 77.770103 
" clip-path="url(#p1c12950e7c)" style="fill: none; stroke: #ff0000; stroke-width: 0.72; stroke-linejoin: miter"/>
   </g>
   <g id="patch_5">
    <path d="M 439.56694 17.49964 
L 433.219655 17.782872 
L 432.936423 11.435587 
L 439.283708 11.152355 
L 439.56694 17.49964 
" clip-path="url(#p1c12950e7c)" style="fill: none; stroke: #ff0000; stroke-width: 0.72; stroke-linejoin: miter"/>
   </g>
   <g id="patch_6">
    <path d="M 201.537934 53.233335 
L 195.443573 55.029721 
L 193.647187 48.93536 
L 199.741549 47.138974 
L 201.537934 53.233335 
" clip-path="url(#p1c12950e7c)" style="fill: none; stroke: #ff0000; stroke-width: 0.72; stroke-linejoin: miter"/>
   </g>
   <g id="patch_7">
    <path d="M 81.467876 111.832446 
L 79.103608 113.954309 
L 73.798952 108.04364 
L 76.163219 105.921778 
L 81.467876 111.832446 
" clip-path="url(#p1c12950e7c)" style="fill: none; stroke: #ff0000; stroke-width: 0.72; stroke-linejoin: miter"/>
   </g>
   <g id="patch_8">
    <path d="M 67.276751 155.921787 
L 69.856327 157.775931 
L 65.220969 164.224872 
L 62.641393 162.370728 
L 67.276751 155.921787 
" clip-path="url(#p1c12950e7c)" style="fill: none; stroke: #ff0000; stroke-width: 0.72; stroke-linejoin: miter"/>
   </g>
   <g id="patch_9">
    <path d="M 253.397403 188.858966 
L 259.74299 189.177984 
L 259.423972 195.523571 
L 253.078385 195.204553 
L 253.397403 188.858966 
" clip-path="url(#p1c12950e7c)" style="fill: none; stroke: #ff0000; stroke-width: 0.72; stroke-linejoin: miter"/>
   </g>
   <g id="patch_10">
    <path d="M 659.147297 106.937518 
L 658.996924 101.876848 
L 658.546403 96.836284 
L 657.797523 91.835852 
L 656.75326 86.895419 
L 655.417762 82.034612 
L 653.796336 77.272744 
L 651.895423 72.628734 
L 649.722576 68.121031 
L 647.286427 63.767546 
L 644.596655 59.585574 
L 641.663947 55.59173 
L 638.499954 51.801882 
L 635.117246 48.231086 
L 631.529264 44.893529 
L 627.750261 41.802472 
L 623.795252 38.970195 
L 619.67995 36.407951 
L 615.420705 34.125919 
L 611.034439 32.133165 
L 606.538578 30.437608 
L 601.950984 29.045983 
L 597.289885 27.963819 
L 592.573797 27.195416 
L 587.821459 26.743826 
L 583.05175 26.610844 
L 578.283622 26.796999 
L 573.536017 27.301549 
L 568.827798 28.122491 
L 564.17767 29.256564 
L 559.604109 30.699261 
L 555.125284 32.444852 
L 550.758991 34.486399 
L 546.522576 36.815794 
L 542.432871 39.42378 
L 538.506123 42.299997 
L 534.757934 45.433017 
L 531.203195 48.810393 
L 527.856029 52.418707 
L 524.729735 56.243623 
L 521.836732 60.269945 
L 519.188516 64.481675 
L 516.795606 68.862082 
L 514.667511 73.393762 
L 512.812684 78.05871 
L 511.238496 82.838393 
L 509.9512 87.713821 
L 508.955911 92.665625 
L 508.256582 97.67413 
L 507.855994 102.719439 
L 507.755736 107.781506 
L 507.956207 112.84022 
L 508.456611 117.875483 
L 509.25496 122.867289 
L 510.348082 127.795807 
L 511.731634 132.641455 
L 513.400119 137.384982 
L 515.346908 142.007542 
L 517.564267 146.490769 
L 520.043386 150.816853 
L 522.774416 154.968605 
L 525.746507 158.92953 
L 528.947849 162.683893 
L 532.365725 166.216776 
L 535.986556 169.514144 
L 539.795955 172.562897 
L 543.778789 175.350922 
L 547.919233 177.867141 
L 552.200838 180.101559 
L 556.606593 182.045298 
L 561.118993 183.690636 
L 565.720112 185.031035 
L 570.39167 186.061171 
L 575.115105 186.77695 
L 579.871652 187.175528 
L 584.642414 187.255323 
L 589.408436 187.016018 
L 594.150783 186.458562 
L 598.850614 185.585171 
L 603.489256 184.399314 
L 608.048281 182.905704 
L 612.509575 181.110274 
L 616.855413 179.020157 
L 621.068531 176.643658 
L 625.132188 173.990217 
L 629.030241 171.070378 
L 632.747202 167.895741 
L 636.268305 164.478918 
L 639.579559 160.833484 
L 642.66781 156.973923 
L 645.520787 152.915568 
L 648.127156 148.674544 
L 650.476562 144.267699 
L 652.559671 139.712543 
L 654.368207 135.027172 
L 655.894983 130.230201 
L 657.133936 125.340689 
L 658.080141 120.378062 
L 658.72984 115.362036 
L 659.080452 110.31254 
L 659.147297 106.937518 
L 659.147297 106.937518 
" clip-path="url(#p1c12950e7c)" style="fill: none; stroke: #ff0000; stroke-width: 0.72; stroke-linejoin: miter"/>
   </g>
   <g id="line2d_1">
    <path d="M 75.03086 106.937518 
L 1082.934586 106.937518 
" clip-path="url(#p1c12950e7c)" style="fill: none; stroke: #ffffff; stroke-width: 0.72; stroke-linecap: square"/>
   </g>
   <g id="line2d_2">
    <path d="M 273.275964 106.937518 
L 292.336767 106.937518 
" clip-path="url(#p1c12950e7c)" style="fill: none; stroke: #ffffff; stroke-width: 0.72; stroke-linecap: square"/>
   </g>
   <g id="patch_11">
    <path d="M 282.806366 98.995517 
L 290.748367 106.937518 
L 282.806366 114.879519 
L 274.864365 106.937518 
L 282.806366 98.995517 
" clip-path="url(#p1c12950e7c)" style="fill: none; stroke: #ff0000; stroke-width: 0.72; stroke-linejoin: miter"/>
   </g>
   <g id="line2d_3">
    <path d="M 569.452322 106.937518 
L 588.513124 106.937518 
" clip-path="url(#p1c12950e7c)" style="fill: none; stroke: #ffffff; stroke-width: 0.72; stroke-linecap: square"/>
   </g>
   <g id="patch_12">
    <path d="M 578.982723 98.995517 
L 586.924724 106.937518 
L 578.982723 114.879519 
L 571.040722 106.937518 
L 578.982723 98.995517 
" clip-path="url(#p1c12950e7c)" style="fill: none; stroke: #ff0000; stroke-width: 0.72; stroke-linejoin: miter"/>
   </g>
   <g id="line2d_4">
    <path d="M 865.628679 106.937518 
L 884.689481 106.937518 
" clip-path="url(#p1c12950e7c)" style="fill: none; stroke: #ffffff; stroke-width: 0.72; stroke-linecap: square"/>
   </g>
   <g id="patch_13">
    <path d="M 875.15908 98.995517 
L 883.101081 106.937518 
L 875.15908 114.879519 
L 867.217079 106.937518 
L 875.15908 98.995517 
" clip-path="url(#p1c12950e7c)" style="fill: none; stroke: #ff0000; stroke-width: 0.72; stroke-linejoin: miter"/>
   </g>
   <g id="line2d_5">
    <path d="M 52.475683 141.670887 
L 714.385967 184.242694 
" clip-path="url(#p1c12950e7c)" style="fill: none; stroke: #ffffff; stroke-width: 0.72; stroke-linecap: square"/>
   </g>
   <g id="line2d_6">
    <path d="M 181.528977 149.971154 
L 200.550478 151.194552 
" clip-path="url(#p1c12950e7c)" style="fill: none; stroke: #ffffff; stroke-width: 0.72; stroke-linecap: square"/>
   </g>
   <g id="patch_14">
    <path d="M 191.549476 142.657227 
L 198.965353 151.092602 
L 190.529978 158.508478 
L 183.114102 150.073103 
L 191.549476 142.657227 
" clip-path="url(#p1c12950e7c)" style="fill: none; stroke: #ff0000; stroke-width: 0.72; stroke-linejoin: miter"/>
   </g>
   <g id="line2d_7">
    <path d="M 341.854891 160.282768 
L 360.876392 161.506166 
" clip-path="url(#p1c12950e7c)" style="fill: none; stroke: #ffffff; stroke-width: 0.72; stroke-linecap: square"/>
   </g>
   <g id="patch_15">
    <path d="M 351.875391 152.968842 
L 359.291267 161.404216 
L 350.855893 168.820093 
L 343.440017 160.384718 
L 351.875391 152.968842 
" clip-path="url(#p1c12950e7c)" style="fill: none; stroke: #ff0000; stroke-width: 0.72; stroke-linejoin: miter"/>
   </g>
   <g id="line2d_8">
    <path d="M 583.449427 26.609736 
L 583.449427 25.021336 
" clip-path="url(#p1c12950e7c)" style="fill: none; stroke: #ff0000; stroke-width: 0.72; stroke-linecap: square"/>
   </g>
   <g id="line2d_9">
    <path d="M 583.449427 187.2653 
L 583.449427 188.8537 
" clip-path="url(#p1c12950e7c)" style="fill: none; stroke: #ff0000; stroke-width: 0.72; stroke-linecap: square"/>
   </g>
   <g id="line2d_10">
    <path d="M 659.147297 106.937518 
L 660.735697 106.937518 
" clip-path="url(#p1c12950e7c)" style="fill: none; stroke: #ff0000; stroke-width: 0.72; stroke-linecap: square"/>
   </g>
   <g id="line2d_11">
    <path d="M 507.751557 106.937518 
L 506.163157 106.937518 
" clip-path="url(#p1c12950e7c)" style="fill: none; stroke: #ff0000; stroke-width: 0.72; stroke-linecap: square"/>
   </g>
   <g id="line2d_12">
    <path d="M 345.189394 201.029849 
L 345.189394 18.586534 
" clip-path="url(#p1c12950e7c)" style="fill: none; stroke: #ffffff; stroke-width: 0.72; stroke-linecap: square"/>
   </g>
   <g id="line2d_13">
    <path d="M 345.189394 143.607709 
L 345.189394 124.546907 
" clip-path="url(#p1c12950e7c)" style="fill: none; stroke: #ffffff; stroke-width: 0.72; stroke-linecap: square"/>
   </g>
   <g id="patch_16">
    <path d="M 337.247393 134.077308 
L 345.189394 126.135307 
L 353.131395 134.077308 
L 345.189394 142.019309 
L 337.247393 134.077308 
" clip-path="url(#p1c12950e7c)" style="fill: none; stroke: #ff0000; stroke-width: 0.72; stroke-linejoin: miter"/>
   </g>
   <g id="line2d_14">
    <path d="M 345.189394 95.069476 
L 345.189394 76.008673 
" clip-path="url(#p1c12950e7c)" style="fill: none; stroke: #ffffff; stroke-width: 0.72; stroke-linecap: square"/>
   </g>
   <g id="patch_17">
    <path d="M 337.247393 85.539074 
L 345.189394 77.597073 
L 353.131395 85.539074 
L 345.189394 93.481075 
L 337.247393 85.539074 
" clip-path="url(#p1c12950e7c)" style="fill: none; stroke: #ff0000; stroke-width: 0.72; stroke-linejoin: miter"/>
   </g>
   <g id="line2d_15">
    <path d="M 1059.969494 119.871163 
L 1059.969494 99.493906 
" clip-path="url(#p1c12950e7c)" style="fill: none; stroke: #ffffff; stroke-width: 0.72; stroke-linecap: square"/>
   </g>
   <g id="line2d_16">
    <path d="M 1059.969494 119.212936 
L 1059.969494 100.152133 
" clip-path="url(#p1c12950e7c)" style="fill: none; stroke: #ffffff; stroke-width: 0.72; stroke-linecap: square"/>
   </g>
   <g id="patch_18">
    <path d="M 1052.027493 109.682534 
L 1059.969494 101.740533 
L 1067.911495 109.682534 
L 1059.969494 117.624535 
L 1052.027493 109.682534 
" clip-path="url(#p1c12950e7c)" style="fill: none; stroke: #ff0000; stroke-width: 0.72; stroke-linejoin: miter"/>
   </g>
   <g id="patch_19">
    <path d="M 443.964784 160.795837 
L 451.906785 160.795837 
L 451.906785 168.737838 
L 443.964784 168.737838 
L 451.906785 168.737838 
L 451.906785 176.679839 
L 443.964784 176.679839 
" clip-path="url(#p1c12950e7c)" style="fill: none; stroke: #ff0000; stroke-width: 0.72; stroke-linejoin: miter"/>
   </g>
   <g id="patch_20">
    <path d="M 455.877786 160.795837 
L 455.877786 168.737838 
L 463.819787 168.737838 
L 463.819787 160.795837 
L 463.819787 176.679839 
" clip-path="url(#p1c12950e7c)" style="fill: none; stroke: #ff0000; stroke-width: 0.72; stroke-linejoin: miter"/>
   </g>
  </g>
 </g>
 <defs>
  <clipPath id="p1c12950e7c">
   <rect x="0" y="0" width="1152" height="214.337627"/>
  </clipPath>
 </defs>
</svg>
