<?xml version="1.0" encoding="utf-8" standalone="no"?>
<!DOCTYPE svg PUBLIC "-//W3C//DTD SVG 1.1//EN"
  "http://www.w3.org/Graphics/SVG/1.1/DTD/svg11.dtd">
<svg xmlns:xlink="http://www.w3.org/1999/xlink" width="1152pt" height="321.619557pt" viewBox="0 0 1152 321.619557" xmlns="http://www.w3.org/2000/svg" version="1.1">
 <metadata>
  <rdf:RDF xmlns:dc="http://purl.org/dc/elements/1.1/" xmlns:cc="http://creativecommons.org/ns#" xmlns:rdf="http://www.w3.org/1999/02/22-rdf-syntax-ns#">
   <cc:Work>
    <dc:type rdf:resource="http://purl.org/dc/dcmitype/StillImage"/>
    <dc:date>2026-01-07T02:07:13.052344</dc:date>
    <dc:format>image/svg+xml</dc:format>
    <dc:creator>
     <cc:Agent>
      <dc:title>Matplotlib v3.10.1, https://matplotlib.org/</dc:title>
     </cc:Agent>
    </dc:creator>
   </cc:Work>
  </rdf:RDF>
 </metadata>
 <defs>
  <style type="text/css">*{stroke-linejoin: round; stroke-linecap: butt}</style>
 </defs>
 <g id="figure_1">
  <g id="patch_1">
   <path d="M 0 321.619557 
L 1152 321.619557 
L 1152 0 
L 0 0 
z
" style="fill: #ffffff"/>
  </g>
  <g id="axes_1">
   <g id="patch_2">
    <path d="M 0 321.619557 
L 1152 321.619557 
L 1152 0 
L 0 0 
z
" style="fill: #212830"/>
   </g>
   <g id="patch_3">
    <path d="M 1099.636364 41.335987 
L 1080.172912 38.609257 
L 1059.126903 35.836743 
L 1038.045188 33.233648 
L 1016.932843 30.79989 
L 995.791871 28.535099 
L 974.62268 26.437154 
L 953.432991 24.502726 
L 932.237699 22.733297 
L 911.046088 21.134309 
L 889.858119 19.709485 
L 868.676147 18.456704 
L 847.512227 17.375303 
L 826.377546 16.467748 
L 805.274251 15.73841 
L 784.20481 15.186847 
L 763.181015 14.813501 
L 742.212958 14.622795 
L 721.302384 14.619071 
L 700.450332 14.801224 
L 679.670462 15.167497 
L 658.977741 15.722079 
L 638.375448 16.472228 
L 617.865869 17.418979 
L 597.461345 18.560613 
L 577.177508 19.899956 
L 557.019736 21.441812 
L 536.996928 23.184712 
L 517.130101 25.128927 
L 497.434601 27.28257 
L 477.914259 29.651447 
L 458.580015 32.231444 
L 439.454935 35.019621 
L 420.558023 38.017904 
L 401.906609 41.224044 
L 383.537506 44.628775 
L 365.491407 48.232823 
L 347.791347 52.03807 
L 330.464599 56.028129 
L 313.565357 60.179929 
L 297.146376 64.484956 
L 281.245172 68.933311 
L 265.904594 73.499651 
L 251.172621 78.158592 
L 237.082625 82.888389 
L 223.662635 87.652393 
L 210.948082 92.410937 
L 198.961827 97.143444 
L 187.698666 101.836882 
L 177.140121 106.466897 
L 167.268026 111.008368 
L 158.059085 115.449962 
L 149.480231 119.788948 
L 141.492525 124.020626 
L 134.058662 128.139766 
L 127.142707 132.149641 
L 120.706285 136.059774 
L 114.711249 139.877878 
L 109.122357 143.607206 
L 103.912007 147.247966 
L 99.058175 150.806098 
L 94.539849 154.293564 
L 90.331145 157.724732 
L 86.403751 161.102362 
L 79.290979 167.671555 
L 73.070689 173.938039 
L 70.293903 176.960306 
L 67.74732 179.926021 
L 65.431517 182.854068 
L 63.337288 185.761172 
L 61.44958 188.650684 
L 59.749745 191.520645 
L 58.223282 194.358361 
L 56.864411 197.1489 
L 55.678062 199.875203 
L 54.673578 202.534113 
L 53.85622 205.138463 
L 53.224095 207.701682 
L 52.770228 210.226942 
L 52.481711 212.767596 
L 52.363636 215.179859 
L 52.413304 217.658819 
L 52.648528 220.12289 
L 53.088161 222.558008 
L 53.757261 224.962871 
L 54.679817 227.345237 
L 55.867054 229.709983 
L 57.312256 232.05215 
L 58.997948 234.357241 
L 60.913908 236.611065 
L 63.06317 238.804579 
L 65.457995 240.934729 
L 68.106053 243.001045 
L 71.009708 245.005879 
L 74.166689 246.954257 
L 77.577727 248.853592 
L 81.242448 250.709272 
L 85.168455 252.523487 
L 89.367264 254.296676 
L 93.858747 256.029982 
L 98.663241 257.728926 
L 103.802166 259.402531 
L 109.300057 261.061181 
L 115.182673 262.714616 
L 121.482817 264.367934 
L 128.241093 266.022664 
L 135.508502 267.680424 
L 143.340251 269.34628 
L 151.795483 271.02565 
L 160.936439 272.720558 
L 170.834119 274.427809 
L 181.565075 276.142735 
L 193.202281 277.864018 
L 205.806344 279.588479 
L 219.423209 281.303689 
L 234.082907 282.992047 
L 249.79062 284.64046 
L 266.511903 286.237753 
L 284.182457 287.764071 
L 302.72846 289.202926 
L 322.058061 290.549992 
L 342.06417 291.798554 
L 362.659518 292.940396 
L 383.76996 293.979679 
L 405.319895 294.921091 
L 449.595698 296.516792 
L 462.60445 296.924005 
L 462.532687 299.216523 
L 495.02722 300.199823 
L 540.962499 301.35292 
L 587.558288 302.184916 
L 705.862849 303.978225 
L 825.677271 305.086967 
L 921.703779 305.854344 
L 1017.488394 306.500042 
L 1099.636364 307.000486 
L 1099.636364 41.335987 
L 1099.636364 41.335987 
" clip-path="url(#p736c31b9a4)" style="fill: none; stroke: #ff0000; stroke-width: 0.72; stroke-linejoin: miter"/>
   </g>
   <g id="patch_4">
    <path d="M 639.577597 242.034614 
L 651.045798 242.034614 
L 651.045798 253.502814 
L 639.577597 253.502814 
L 651.045798 253.502814 
L 651.045798 264.971014 
L 639.577597 264.971014 
" clip-path="url(#p736c31b9a4)" style="fill: none; stroke: #ff0000; stroke-width: 0.72; stroke-linejoin: miter"/>
   </g>
   <g id="patch_5">
    <path d="M 662.513998 242.034614 
L 662.513998 264.971014 
" clip-path="url(#p736c31b9a4)" style="fill: none; stroke: #ff0000; stroke-width: 0.72; stroke-linejoin: miter"/>
   </g>
   <g id="patch_6">
    <path d="M 632.808431 25.913587 
L 623.643633 26.33672 
L 623.2205 17.171923 
L 632.385298 16.74879 
L 632.808431 25.913587 
" clip-path="url(#p736c31b9a4)" style="fill: none; stroke: #ff0000; stroke-width: 0.72; stroke-linejoin: miter"/>
   </g>
   <g id="patch_7">
    <path d="M 275.811927 80.123251 
L 267.01874 82.740964 
L 264.401027 73.947777 
L 273.194214 71.330064 
L 275.811927 80.123251 
" clip-path="url(#p736c31b9a4)" style="fill: none; stroke: #ff0000; stroke-width: 0.72; stroke-linejoin: miter"/>
   </g>
   <g id="patch_8">
    <path d="M 95.64719 168.205825 
L 92.244354 171.28216 
L 84.553515 162.775068 
L 87.956351 159.698733 
L 95.64719 168.205825 
" clip-path="url(#p736c31b9a4)" style="fill: none; stroke: #ff0000; stroke-width: 0.72; stroke-linejoin: miter"/>
   </g>
   <g id="patch_9">
    <path d="M 74.354527 233.379587 
L 78.13273 235.981188 
L 71.628729 245.426694 
L 67.850526 242.825094 
L 74.354527 233.379587 
" clip-path="url(#p736c31b9a4)" style="fill: none; stroke: #ff0000; stroke-width: 0.72; stroke-linejoin: miter"/>
   </g>
   <g id="patch_10">
    <path d="M 354.112282 283.277836 
L 363.272776 283.78568 
L 362.764931 292.946174 
L 353.604438 292.43833 
L 354.112282 283.277836 
" clip-path="url(#p736c31b9a4)" style="fill: none; stroke: #ff0000; stroke-width: 0.72; stroke-linejoin: miter"/>
   </g>
   <g id="patch_11">
    <path d="M 963.295455 160.412204 
L 963.194257 155.292617 
L 962.890844 150.182072 
L 962.385751 145.089595 
L 961.67987 140.024179 
L 960.774447 134.994769 
L 959.671082 130.01025 
L 958.371724 125.079423 
L 956.878667 120.210996 
L 955.194547 115.413569 
L 953.32234 110.695614 
L 951.265352 106.065463 
L 949.027216 101.531293 
L 946.611884 97.101112 
L 944.023622 92.782745 
L 941.267001 88.583817 
L 938.346891 84.511745 
L 935.268446 80.57372 
L 932.037106 76.776698 
L 928.658576 73.127383 
L 925.138824 69.632222 
L 921.484064 66.297386 
L 917.700754 63.128766 
L 913.795573 60.131957 
L 909.775418 57.312252 
L 905.647391 54.674632 
L 901.41878 52.223754 
L 897.097055 49.963946 
L 892.689848 47.899201 
L 888.204942 46.033163 
L 883.650259 44.36913 
L 879.033842 42.91004 
L 874.363843 41.658469 
L 869.648512 40.616628 
L 864.896175 39.786358 
L 860.115226 39.169123 
L 855.314108 38.766016 
L 850.5013 38.577746 
L 845.685303 38.604648 
L 840.874622 38.846673 
L 836.077752 39.303394 
L 831.303166 39.974004 
L 826.559296 40.857319 
L 821.85452 41.95178 
L 817.197147 43.255452 
L 812.595403 44.766034 
L 808.057415 46.480858 
L 803.591196 48.396895 
L 799.204635 50.510761 
L 794.90548 52.818724 
L 790.701322 55.316706 
L 786.599586 58.000297 
L 782.607517 60.864757 
L 778.732165 63.905027 
L 774.980375 67.115737 
L 771.358771 70.491218 
L 767.873751 74.025507 
L 764.531469 77.712363 
L 761.337828 81.545275 
L 758.298468 85.517473 
L 755.418758 89.621942 
L 752.703782 93.851434 
L 750.158336 98.198477 
L 747.786915 102.655396 
L 745.593707 107.214319 
L 743.582586 111.867194 
L 741.757104 116.605804 
L 740.120485 121.421781 
L 738.675618 126.306618 
L 737.425057 131.251688 
L 736.371008 136.248259 
L 735.515335 141.287505 
L 734.859548 146.360528 
L 734.404805 151.458367 
L 734.151909 156.572019 
L 734.101308 161.692454 
L 734.25309 166.810627 
L 734.606987 171.917501 
L 735.162375 177.004054 
L 735.918272 182.061305 
L 736.873344 187.080322 
L 738.025903 192.052241 
L 739.373915 196.96828 
L 740.914998 201.819758 
L 742.646431 206.598106 
L 744.565156 211.294885 
L 746.667785 215.901801 
L 748.950603 220.410718 
L 751.409579 224.813671 
L 754.040371 229.102886 
L 756.838332 233.270786 
L 759.798521 237.310012 
L 762.91571 241.213428 
L 766.184393 244.974143 
L 769.598798 248.585513 
L 773.152894 252.041161 
L 776.840405 255.334984 
L 780.654819 258.461164 
L 784.589398 261.414181 
L 788.637194 264.188819 
L 792.791058 266.780178 
L 797.043654 269.183681 
L 801.387471 271.395083 
L 805.814838 273.41048 
L 810.317936 275.226312 
L 814.888811 276.839371 
L 819.519392 278.246808 
L 824.2015 279.446139 
L 828.926867 280.435246 
L 833.687146 281.21238 
L 838.47393 281.77617 
L 843.278767 282.12562 
L 848.093169 282.260113 
L 852.908634 282.179411 
L 857.716659 281.883657 
L 862.50875 281.373374 
L 867.276446 280.649462 
L 872.011326 279.713199 
L 876.705027 278.56624 
L 881.34926 277.21061 
L 885.935823 275.648704 
L 890.456616 273.883279 
L 894.903654 271.917453 
L 899.269084 269.754699 
L 903.545196 267.398836 
L 907.724437 264.854025 
L 911.799428 262.12476 
L 915.762971 259.215861 
L 919.608066 256.132466 
L 923.327922 252.88002 
L 926.91597 249.464267 
L 930.365873 245.89124 
L 933.671538 242.167249 
L 936.827127 238.298871 
L 939.827067 234.292938 
L 942.666059 230.156525 
L 945.339091 225.896937 
L 947.84144 221.521697 
L 950.168688 217.038532 
L 952.316725 212.45536 
L 954.281756 207.780274 
L 956.060312 203.021532 
L 957.649251 198.187539 
L 959.045767 193.28683 
L 960.247394 188.328062 
L 961.252009 183.319992 
L 962.057839 178.271464 
L 962.66346 173.191396 
L 963.067803 168.088758 
L 963.270153 162.972562 
L 963.295455 160.412204 
L 963.295455 160.412204 
" clip-path="url(#p736c31b9a4)" style="fill: none; stroke: #ff0000; stroke-width: 0.72; stroke-linejoin: miter"/>
   </g>
   <g id="patch_12">
    <path d="M 398.387332 148.944004 
L 409.855532 160.412204 
L 398.387332 171.880404 
L 386.919131 160.412204 
L 398.387332 148.944004 
" clip-path="url(#p736c31b9a4)" style="fill: none; stroke: #ff0000; stroke-width: 0.72; stroke-linejoin: miter"/>
   </g>
   <g id="patch_13">
    <path d="M 842.795973 148.944004 
L 854.264174 160.412204 
L 842.795973 171.880404 
L 831.327773 160.412204 
L 842.795973 148.944004 
" clip-path="url(#p736c31b9a4)" style="fill: none; stroke: #ff0000; stroke-width: 0.72; stroke-linejoin: miter"/>
   </g>
   <g id="patch_14">
    <path d="M 478.592966 227.551881 
L 489.300867 239.733018 
L 477.119731 250.440919 
L 466.411829 238.259783 
L 478.592966 227.551881 
" clip-path="url(#p736c31b9a4)" style="fill: none; stroke: #ff0000; stroke-width: 0.72; stroke-linejoin: miter"/>
   </g>
   <g id="patch_15">
    <path d="M 991.551846 260.568082 
L 1002.259747 272.749218 
L 990.078611 283.457119 
L 979.370709 271.275983 
L 991.551846 260.568082 
" clip-path="url(#p736c31b9a4)" style="fill: none; stroke: #ff0000; stroke-width: 0.72; stroke-linejoin: miter"/>
   </g>
   <g id="patch_16">
    <path d="M 493.181011 200.100023 
L 504.649211 188.631823 
L 516.117411 200.100023 
L 504.649211 211.568224 
L 493.181011 200.100023 
" clip-path="url(#p736c31b9a4)" style="fill: none; stroke: #ff0000; stroke-width: 0.72; stroke-linejoin: miter"/>
   </g>
   <g id="patch_17">
    <path d="M 493.181011 126.854936 
L 504.649211 115.386736 
L 516.117411 126.854936 
L 504.649211 138.323137 
L 493.181011 126.854936 
" clip-path="url(#p736c31b9a4)" style="fill: none; stroke: #ff0000; stroke-width: 0.72; stroke-linejoin: miter"/>
   </g>
   <g id="line2d_1">
    <path d="M 87.206243 160.412204 
L 1099.636364 160.412204 
" clip-path="url(#p736c31b9a4)" style="fill: none; stroke: #ffffff; stroke-width: 0.72; stroke-linecap: square"/>
   </g>
   <g id="line2d_2">
    <path d="M 384.625491 160.412204 
L 412.149172 160.412204 
" clip-path="url(#p736c31b9a4)" style="fill: none; stroke: #ffffff; stroke-width: 0.72; stroke-linecap: square"/>
   </g>
   <g id="line2d_3">
    <path d="M 829.034133 160.412204 
L 856.557814 160.412204 
" clip-path="url(#p736c31b9a4)" style="fill: none; stroke: #ffffff; stroke-width: 0.72; stroke-linecap: square"/>
   </g>
   <g id="line2d_4">
    <path d="M 52.61137 211.625837 
L 1099.636364 279.016788 
" clip-path="url(#p736c31b9a4)" style="fill: none; stroke: #ffffff; stroke-width: 0.72; stroke-linecap: square"/>
   </g>
   <g id="line2d_5">
    <path d="M 464.122926 238.112459 
L 491.589771 239.880341 
" clip-path="url(#p736c31b9a4)" style="fill: none; stroke: #ffffff; stroke-width: 0.72; stroke-linecap: square"/>
   </g>
   <g id="line2d_6">
    <path d="M 977.081806 271.128659 
L 1004.548651 272.896542 
" clip-path="url(#p736c31b9a4)" style="fill: none; stroke: #ffffff; stroke-width: 0.72; stroke-linecap: square"/>
   </g>
   <g id="line2d_7">
    <path d="M 848.695218 38.562613 
L 848.695218 36.268973 
" clip-path="url(#p736c31b9a4)" style="fill: none; stroke: #ff0000; stroke-width: 0.72; stroke-linecap: square"/>
   </g>
   <g id="line2d_8">
    <path d="M 848.695218 282.261795 
L 848.695218 284.555435 
" clip-path="url(#p736c31b9a4)" style="fill: none; stroke: #ff0000; stroke-width: 0.72; stroke-linecap: square"/>
   </g>
   <g id="line2d_9">
    <path d="M 963.295455 160.412204 
L 965.589095 160.412204 
" clip-path="url(#p736c31b9a4)" style="fill: none; stroke: #ff0000; stroke-width: 0.72; stroke-linecap: square"/>
   </g>
   <g id="line2d_10">
    <path d="M 734.094982 160.412204 
L 731.801342 160.412204 
" clip-path="url(#p736c31b9a4)" style="fill: none; stroke: #ff0000; stroke-width: 0.72; stroke-linecap: square"/>
   </g>
   <g id="line2d_11">
    <path d="M 504.649211 300.461285 
L 504.649211 26.493674 
" clip-path="url(#p736c31b9a4)" style="fill: none; stroke: #ffffff; stroke-width: 0.72; stroke-linecap: square"/>
   </g>
   <g id="line2d_12">
    <path d="M 504.649211 213.861864 
L 504.649211 186.338183 
" clip-path="url(#p736c31b9a4)" style="fill: none; stroke: #ffffff; stroke-width: 0.72; stroke-linecap: square"/>
   </g>
   <g id="line2d_13">
    <path d="M 504.649211 140.616777 
L 504.649211 113.093096 
" clip-path="url(#p736c31b9a4)" style="fill: none; stroke: #ffffff; stroke-width: 0.72; stroke-linecap: square"/>
   </g>
  </g>
 </g>
 <defs>
  <clipPath id="p736c31b9a4">
   <rect x="0" y="0" width="1152" height="321.619557"/>
  </clipPath>
 </defs>
</svg>
