<?xml version="1.0" encoding="utf-8" standalone="no"?>
<!DOCTYPE svg PUBLIC "-//W3C//DTD SVG 1.1//EN"
  "http://www.w3.org/Graphics/SVG/1.1/DTD/svg11.dtd">
<svg xmlns:xlink="http://www.w3.org/1999/xlink" width="1152pt" height="340.858519pt" viewBox="0 0 1152 340.858519" xmlns="http://www.w3.org/2000/svg" version="1.1">
 <metadata>
  <rdf:RDF xmlns:dc="http://purl.org/dc/elements/1.1/" xmlns:cc="http://creativecommons.org/ns#" xmlns:rdf="http://www.w3.org/1999/02/22-rdf-syntax-ns#">
   <cc:Work>
    <dc:type rdf:resource="http://purl.org/dc/dcmitype/StillImage"/>
    <dc:date>2026-01-07T02:07:19.382227</dc:date>
    <dc:format>image/svg+xml</dc:format>
    <dc:creator>
     <cc:Agent>
      <dc:title>Matplotlib v3.10.1, https://matplotlib.org/</dc:title>
     </cc:Agent>
    </dc:creator>
   </cc:Work>
  </rdf:RDF>
 </metadata>
 <defs>
  <style type="text/css">*{stroke-linejoin: round; stroke-linecap: butt}</style>
 </defs>
 <g id="figure_1">
  <g id="patch_1">
   <path d="M 0 340.858519 
L 1152 340.858519 
L 1152 0 
L 0 0 
z
" style="fill: #ffffff"/>
  </g>
  <g id="axes_1">
   <g id="patch_2">
    <path d="M 0 340.858519 
L 1152 340.858519 
L 1152 0 
L 0 0 
z
" style="fill: #212830"/>
   </g>
   <g id="patch_3">
    <path d="M 1099.221792 323.968801 
L 1091.31834 321.119839 
L 1078.443711 316.498172 
L 1064.298725 311.46752 
L 1048.871674 306.084638 
L 1032.092153 300.356488 
L 1014.060867 294.209236 
L 994.978243 287.667226 
L 975.055211 280.778066 
L 954.46119 273.596312 
L 933.355423 266.1765 
L 911.846444 258.558596 
L 890.026294 250.787536 
L 867.970426 242.89331 
L 845.726904 234.905697 
L 823.358029 226.860133 
L 800.92781 218.785208 
L 778.496085 210.71548 
L 756.100941 202.677842 
L 733.772125 194.68848 
L 711.536438 186.767579 
L 689.39851 178.929733 
L 667.362153 171.182614 
L 645.438162 163.53737 
L 623.630621 156.007565 
L 601.935833 148.601583 
L 581.536597 141.724299 
L 580.603452 144.492174 
L 579.434535 144.098049 
L 557.98716 136.969926 
L 536.651662 129.995705 
L 515.412115 123.179041 
L 494.26051 116.522511 
L 473.188242 110.031886 
L 452.178291 103.710483 
L 431.213868 97.556912 
L 410.286378 91.570495 
L 389.389379 85.753774 
L 368.510578 80.108153 
L 347.637107 74.632243 
L 326.76424 69.323523 
L 305.890782 64.183667 
L 285.009917 59.215058 
L 264.112589 54.415977 
L 243.196697 49.784039 
L 222.265141 45.320548 
L 201.314939 41.02777 
L 180.341043 36.905114 
L 159.34138 32.950562 
L 138.320899 29.164088 
L 117.280834 25.548484 
L 96.217048 22.104261 
L 75.129299 18.82912 
L 54.022832 15.72387 
L 52.363636 15.493569 
L 52.363636 283.298644 
L 72.300674 283.398191 
L 96.156541 283.481705 
L 119.99278 283.549171 
L 143.777002 283.646897 
L 167.549656 283.794155 
L 191.335035 283.968398 
L 215.102218 284.135916 
L 238.781255 284.310108 
L 262.337227 284.534362 
L 285.831451 284.826196 
L 309.274591 285.130887 
L 332.616777 285.368837 
L 355.961282 285.514382 
L 379.34438 285.63161 
L 402.715409 285.803679 
L 426.130631 286.057101 
L 449.622597 286.349674 
L 473.094263 286.643813 
L 496.439735 286.967343 
L 519.660093 287.38402 
L 542.892935 287.917714 
L 566.225622 288.51855 
L 589.594596 289.123833 
L 612.872441 289.732624 
L 635.97314 290.412104 
L 658.994335 291.217631 
L 682.074612 292.136778 
L 705.233644 293.105524 
L 728.330209 294.077615 
L 751.211993 295.083246 
L 773.86227 296.202977 
L 796.433412 297.49009 
L 819.081269 298.911354 
L 841.776263 300.379915 
L 864.308095 301.862142 
L 886.53009 303.411535 
L 908.445788 305.071721 
L 930.048802 306.827024 
L 951.243992 308.651649 
L 971.893878 310.533214 
L 991.85598 312.480016 
L 1011.038069 314.519039 
L 1029.379544 316.621332 
L 1046.734517 318.691128 
L 1062.905738 320.654226 
L 1077.762535 322.513386 
L 1091.308911 324.268787 
L 1099.636364 325.36495 
L 1099.221792 323.968801 
" clip-path="url(#pb2a5d5b62a)" style="fill: none; stroke: #ff0000; stroke-width: 0.72; stroke-linejoin: miter"/>
   </g>
   <g id="patch_4">
    <path d="M 502.701849 211.819283 
L 488.097149 211.819283 
L 488.097149 226.423982 
L 502.701849 226.423982 
L 502.701849 241.028682 
L 488.097149 241.028682 
" clip-path="url(#pb2a5d5b62a)" style="fill: none; stroke: #ff0000; stroke-width: 0.72; stroke-linejoin: miter"/>
   </g>
   <g id="patch_5">
    <path d="M 517.306548 211.819283 
L 517.306548 241.028682 
" clip-path="url(#pb2a5d5b62a)" style="fill: none; stroke: #ff0000; stroke-width: 0.72; stroke-linejoin: miter"/>
   </g>
   <g id="patch_6">
    <path d="M 375.740114 94.166442 
L 364.46139 91.116749 
L 367.511084 79.838025 
L 378.789807 82.887719 
L 375.740114 94.166442 
" clip-path="url(#pb2a5d5b62a)" style="fill: none; stroke: #ff0000; stroke-width: 0.72; stroke-linejoin: miter"/>
   </g>
   <g id="patch_7">
    <path d="M 236.976064 120.755139 
L 251.580763 135.359838 
L 236.976064 149.964538 
L 222.371364 135.359838 
L 236.976064 120.755139 
" clip-path="url(#pb2a5d5b62a)" style="fill: none; stroke: #ff0000; stroke-width: 0.72; stroke-linejoin: miter"/>
   </g>
   <g id="patch_8">
    <path d="M 660.435677 244.86968 
L 675.040377 230.26498 
L 689.645076 244.86968 
L 675.040377 259.474379 
L 660.435677 244.86968 
" clip-path="url(#pb2a5d5b62a)" style="fill: none; stroke: #ff0000; stroke-width: 0.72; stroke-linejoin: miter"/>
   </g>
   <g id="patch_9">
    <path d="M 660.435677 220.868944 
L 675.040377 206.264245 
L 689.645076 220.868944 
L 675.040377 235.473643 
L 660.435677 220.868944 
" clip-path="url(#pb2a5d5b62a)" style="fill: none; stroke: #ff0000; stroke-width: 0.72; stroke-linejoin: miter"/>
   </g>
   <g id="line2d_1">
    <path d="M 1044.371182 304.548272 
L 1043.428707 307.312983 
" clip-path="url(#pb2a5d5b62a)" style="fill: none; stroke: #ff0000; stroke-width: 0.72; stroke-linecap: square"/>
   </g>
   <g id="line2d_2">
    <path d="M 1041.757436 315.157006 
L 1041.490833 318.065754 
" clip-path="url(#pb2a5d5b62a)" style="fill: none; stroke: #ff0000; stroke-width: 0.72; stroke-linecap: square"/>
   </g>
   <g id="line2d_3">
    <path d="M 989.098973 285.63424 
L 988.154885 288.398402 
" clip-path="url(#pb2a5d5b62a)" style="fill: none; stroke: #ff0000; stroke-width: 0.72; stroke-linecap: square"/>
   </g>
   <g id="line2d_4">
    <path d="M 983.712715 308.751064 
L 983.419201 311.65722 
" clip-path="url(#pb2a5d5b62a)" style="fill: none; stroke: #ff0000; stroke-width: 0.72; stroke-linecap: square"/>
   </g>
   <g id="line2d_5">
    <path d="M 768.9428 207.286797 
L 767.975209 210.042819 
" clip-path="url(#pb2a5d5b62a)" style="fill: none; stroke: #ff0000; stroke-width: 0.72; stroke-linecap: square"/>
   </g>
   <g id="line2d_6">
    <path d="M 750.537698 292.13186 
L 750.30141 295.043227 
" clip-path="url(#pb2a5d5b62a)" style="fill: none; stroke: #ff0000; stroke-width: 0.72; stroke-linecap: square"/>
   </g>
   <g id="line2d_7">
    <path d="M 52.363636 135.359838 
L 553.061589 135.359838 
" clip-path="url(#pb2a5d5b62a)" style="fill: none; stroke: #ffffff; stroke-width: 0.72; stroke-linecap: square"/>
   </g>
   <g id="line2d_8">
    <path d="M 219.450425 135.359838 
L 254.501703 135.359838 
" clip-path="url(#pb2a5d5b62a)" style="fill: none; stroke: #ffffff; stroke-width: 0.72; stroke-linecap: square"/>
   </g>
   <g id="line2d_9">
    <path d="M 52.363636 256.038907 
L 1097.197318 323.239037 
" clip-path="url(#pb2a5d5b62a)" style="fill: none; stroke: #ffffff; stroke-width: 0.72; stroke-linecap: square"/>
   </g>
   <g id="line2d_10">
    <path d="M 675.040377 291.856647 
L 675.040377 173.881976 
" clip-path="url(#pb2a5d5b62a)" style="fill: none; stroke: #ffffff; stroke-width: 0.72; stroke-linecap: square"/>
   </g>
   <g id="line2d_11">
    <path d="M 675.040377 262.395319 
L 675.040377 227.34404 
" clip-path="url(#pb2a5d5b62a)" style="fill: none; stroke: #ffffff; stroke-width: 0.72; stroke-linecap: square"/>
   </g>
   <g id="line2d_12">
    <path d="M 675.040377 238.394583 
L 675.040377 203.343305 
" clip-path="url(#pb2a5d5b62a)" style="fill: none; stroke: #ffffff; stroke-width: 0.72; stroke-linecap: square"/>
   </g>
  </g>
 </g>
 <defs>
  <clipPath id="pb2a5d5b62a">
   <rect x="0" y="0" width="1152" height="340.858519"/>
  </clipPath>
 </defs>
</svg>
