<?xml version="1.0" encoding="utf-8" standalone="no"?>
<!DOCTYPE svg PUBLIC "-//W3C//DTD SVG 1.1//EN"
  "http://www.w3.org/Graphics/SVG/1.1/DTD/svg11.dtd">
<svg xmlns:xlink="http://www.w3.org/1999/xlink" width="1152pt" height="252.375133pt" viewBox="0 0 1152 252.375133" xmlns="http://www.w3.org/2000/svg" version="1.1">
 <metadata>
  <rdf:RDF xmlns:dc="http://purl.org/dc/elements/1.1/" xmlns:cc="http://creativecommons.org/ns#" xmlns:rdf="http://www.w3.org/1999/02/22-rdf-syntax-ns#">
   <cc:Work>
    <dc:type rdf:resource="http://purl.org/dc/dcmitype/StillImage"/>
    <dc:date>2026-01-07T02:07:25.434096</dc:date>
    <dc:format>image/svg+xml</dc:format>
    <dc:creator>
     <cc:Agent>
      <dc:title>Matplotlib v3.10.1, https://matplotlib.org/</dc:title>
     </cc:Agent>
    </dc:creator>
   </cc:Work>
  </rdf:RDF>
 </metadata>
 <defs>
  <style type="text/css">*{stroke-linejoin: round; stroke-linecap: butt}</style>
 </defs>
 <g id="figure_1">
  <g id="patch_1">
   <path d="M 0 252.375133 
L 1152 252.375133 
L 1152 0 
L 0 0 
z
" style="fill: #ffffff"/>
  </g>
  <g id="axes_1">
   <g id="patch_2">
    <path d="M 0 252.375133 
L 1152 252.375133 
L 1152 0 
L 0 0 
z
" style="fill: #212830"/>
   </g>
   <g id="patch_3">
    <path d="M 1099.048831 185.92375 
L 1086.219815 183.331084 
L 1068.740363 179.576948 
L 1050.236858 175.423812 
L 1021.969862 168.780403 
L 993.618724 161.814303 
L 965.376596 154.534659 
L 937.05553 147.071797 
L 899.271093 136.880075 
L 852.143596 124.221142 
L 836.833736 120.208062 
L 835.432133 125.604098 
L 822.553663 122.304162 
L 803.779335 117.630072 
L 784.995125 113.112026 
L 766.228431 108.797433 
L 747.377978 104.669043 
L 728.514317 100.705014 
L 709.649275 96.949759 
L 690.722895 93.37812 
L 671.795822 90.037493 
L 652.798984 86.872112 
L 633.808915 83.921774 
L 614.740881 81.173261 
L 595.668047 78.611016 
L 576.531911 76.243523 
L 557.415432 74.064018 
L 538.292537 72.103729 
L 519.12396 70.330361 
L 499.958862 68.776075 
L 480.821882 67.432514 
L 461.662628 66.318418 
L 442.487315 65.431478 
L 423.35814 64.760198 
L 404.218187 64.359858 
L 385.12686 64.204083 
L 366.025156 64.301204 
L 346.995686 64.669525 
L 327.99747 65.348022 
L 309.023753 66.317887 
L 290.124311 67.604419 
L 271.259746 69.21371 
L 252.582302 71.14351 
L 234.009956 73.484415 
L 224.787906 74.809357 
L 215.597791 76.247941 
L 197.287066 79.452981 
L 188.255691 81.205389 
L 179.305995 83.086067 
L 170.446497 85.101742 
L 161.669625 87.262521 
L 153.003382 89.569312 
L 144.404831 92.046827 
L 135.984314 94.637051 
L 127.715082 97.410019 
L 119.64492 100.32613 
L 111.83375 103.392666 
L 104.310585 106.606175 
L 97.179464 109.921473 
L 90.546271 113.295264 
L 84.418036 116.739322 
L 78.952423 120.076628 
L 74.194547 123.273634 
L 70.122305 126.290778 
L 66.665366 129.106512 
L 63.904083 131.536854 
L 59.616091 135.983153 
L 58.140572 137.738264 
L 56.932345 139.399494 
L 55.137866 142.360206 
L 53.919347 145.024077 
L 53.157443 147.107981 
L 52.69605 148.885145 
L 52.363636 151.145439 
L 52.426199 151.406205 
L 52.630524 153.929048 
L 53.143443 155.309259 
L 54.240548 157.096552 
L 55.074272 158.132664 
L 56.114171 159.235852 
L 57.395663 160.398376 
L 58.985447 161.62412 
L 61.007015 162.938257 
L 63.57496 164.363467 
L 66.654813 165.876183 
L 70.215617 167.430415 
L 74.48597 169.010604 
L 79.649987 170.622237 
L 85.655039 172.273727 
L 92.314853 173.9155 
L 99.673677 175.453604 
L 107.651377 176.89598 
L 115.970174 178.23222 
L 124.566337 179.406353 
L 133.467507 180.414845 
L 152.018913 182.200531 
L 161.242403 183.003474 
L 170.532957 183.639213 
L 199.197197 185.18505 
L 218.259032 185.968349 
L 237.513767 186.470467 
L 254.073378 186.795851 
L 253.968925 192.369969 
L 276.222135 192.71147 
L 295.551122 192.882017 
L 354.199062 192.9822 
L 383.57412 192.817024 
L 462.169888 192.043652 
L 511.263958 191.329637 
L 570.102045 190.244422 
L 668.096372 187.856292 
L 707.254394 186.814231 
L 775.762475 184.824709 
L 844.369546 182.985287 
L 903.238862 181.71908 
L 942.387815 181.136606 
L 991.220593 180.796162 
L 1020.481182 180.869 
L 1049.587984 181.193372 
L 1077.793074 181.794385 
L 1099.636364 182.515772 
L 1099.048831 185.92375 
L 1099.048831 185.92375 
" clip-path="url(#p53dd286cff)" style="fill: none; stroke: #ff0000; stroke-width: 0.72; stroke-linejoin: miter"/>
   </g>
   <g id="patch_4">
    <path d="M 737.337928 125.312967 
L 715.503156 120.779766 
L 720.036356 98.944994 
L 741.871129 103.478194 
L 737.337928 125.312967 
" clip-path="url(#p53dd286cff)" style="fill: none; stroke: #ff0000; stroke-width: 0.72; stroke-linejoin: miter"/>
   </g>
   <g id="patch_5">
    <path d="M 344.648753 87.006479 
L 322.365848 87.889277 
L 321.483049 65.606373 
L 343.765954 64.723574 
L 344.648753 87.006479 
" clip-path="url(#p53dd286cff)" style="fill: none; stroke: #ff0000; stroke-width: 0.72; stroke-linejoin: miter"/>
   </g>
   <g id="patch_6">
    <path d="M 170.55703 107.973095 
L 149.008123 113.713461 
L 143.267758 92.164554 
L 164.816665 86.424188 
L 170.55703 107.973095 
" clip-path="url(#p53dd286cff)" style="fill: none; stroke: #ff0000; stroke-width: 0.72; stroke-linejoin: miter"/>
   </g>
   <g id="patch_7">
    <path d="M 88.972099 146.576772 
L 80.635799 153.981696 
L 62.123489 133.140947 
L 70.459788 125.736022 
L 88.972099 146.576772 
" clip-path="url(#p53dd286cff)" style="fill: none; stroke: #ff0000; stroke-width: 0.72; stroke-linejoin: miter"/>
   </g>
   <g id="patch_8">
    <path d="M 71.340608 136.006952 
L 80.251909 142.708856 
L 63.497149 164.987108 
L 54.585848 158.285204 
L 71.340608 136.006952 
" clip-path="url(#p53dd286cff)" style="fill: none; stroke: #ff0000; stroke-width: 0.72; stroke-linejoin: miter"/>
   </g>
   <g id="patch_9">
    <path d="M 191.384326 162.507443 
L 213.661816 163.517696 
L 212.651563 185.795187 
L 190.374073 184.784933 
L 191.384326 162.507443 
" clip-path="url(#p53dd286cff)" style="fill: none; stroke: #ff0000; stroke-width: 0.72; stroke-linejoin: miter"/>
   </g>
   <g id="line2d_1">
    <path d="M 990.397468 160.996966 
L 989.266452 166.456133 
" clip-path="url(#p53dd286cff)" style="fill: none; stroke: #ff0000; stroke-width: 0.72; stroke-linecap: square"/>
   </g>
   <g id="line2d_2">
    <path d="M 988.254998 175.2297 
L 988.114286 180.80302 
" clip-path="url(#p53dd286cff)" style="fill: none; stroke: #ff0000; stroke-width: 0.72; stroke-linecap: square"/>
   </g>
   <g id="line2d_3">
    <path d="M 882.545568 132.368004 
L 881.264337 137.793881 
" clip-path="url(#p53dd286cff)" style="fill: none; stroke: #ff0000; stroke-width: 0.72; stroke-linecap: square"/>
   </g>
   <g id="line2d_4">
    <path d="M 876.614256 176.704703 
L 876.580817 182.279699 
" clip-path="url(#p53dd286cff)" style="fill: none; stroke: #ff0000; stroke-width: 0.72; stroke-linecap: square"/>
   </g>
   <g id="line2d_5">
    <path d="M 441.100676 65.378487 
L 440.115353 70.865821 
" clip-path="url(#p53dd286cff)" style="fill: none; stroke: #ff0000; stroke-width: 0.72; stroke-linecap: square"/>
   </g>
   <g id="line2d_6">
    <path d="M 430.553584 186.837153 
L 430.626871 192.411768 
" clip-path="url(#p53dd286cff)" style="fill: none; stroke: #ff0000; stroke-width: 0.72; stroke-linecap: square"/>
   </g>
   <g id="patch_10">
    <path d="M 553.810207 126.187567 
L 553.715278 121.601945 
L 553.430658 117.024421 
L 552.956851 112.463081 
L 552.294693 107.92598 
L 551.445353 103.42113 
L 550.410331 98.956487 
L 549.191456 94.539938 
L 547.79088 90.179281 
L 546.211077 85.882218 
L 544.454836 81.656338 
L 542.52526 77.509104 
L 540.425756 73.44784 
L 538.160031 69.479721 
L 535.732089 65.611752 
L 533.146216 61.850766 
L 530.406979 58.203404 
L 527.519217 54.676109 
L 524.488028 51.27511 
L 521.318767 48.006413 
L 518.017032 44.875791 
L 514.588652 41.888773 
L 511.039682 39.050635 
L 507.376392 36.366389 
L 503.605249 33.840775 
L 499.732916 31.478254 
L 495.766229 29.282998 
L 491.712196 27.258885 
L 487.577975 25.409489 
L 483.370868 23.738077 
L 479.098306 22.2476 
L 474.767833 20.94069 
L 470.387099 19.819656 
L 465.96384 18.886478 
L 461.505867 18.142803 
L 457.021054 17.589945 
L 452.517321 17.228881 
L 448.002623 17.060248 
L 443.484933 17.084344 
L 438.97223 17.301126 
L 434.472483 17.710212 
L 429.993639 18.310878 
L 425.543608 19.102065 
L 421.13025 20.082375 
L 416.76136 21.250076 
L 412.444651 22.603107 
L 408.18775 24.139077 
L 403.998173 25.855275 
L 399.88332 27.748668 
L 395.850458 29.815914 
L 391.906709 32.053361 
L 388.059039 34.457058 
L 384.314242 37.022759 
L 380.678933 39.745934 
L 377.159532 42.621772 
L 373.762253 45.645195 
L 370.493099 48.810864 
L 367.357841 52.113187 
L 364.362017 55.546332 
L 361.510918 59.104236 
L 358.809579 62.780616 
L 356.262771 66.568978 
L 353.874992 70.462632 
L 351.650459 74.454702 
L 349.593101 78.538136 
L 347.70655 82.705724 
L 345.99414 86.950104 
L 344.458895 91.263782 
L 343.103524 95.639138 
L 341.930424 100.068446 
L 340.941664 104.543882 
L 340.138992 109.057544 
L 339.523825 113.601458 
L 339.097249 118.167601 
L 338.860018 122.747907 
L 338.812551 127.334288 
L 338.954931 131.918645 
L 339.286908 136.492879 
L 339.807894 141.048914 
L 340.516971 145.578701 
L 341.412884 150.074243 
L 342.494053 154.527598 
L 343.758568 158.930902 
L 345.204195 163.276379 
L 346.828382 167.556353 
L 348.628259 171.763266 
L 350.600649 175.889688 
L 352.742067 179.928331 
L 355.048732 183.872064 
L 357.516571 187.71392 
L 360.141224 191.447115 
L 362.918056 195.065056 
L 365.842163 198.561353 
L 368.908381 201.92983 
L 372.111294 205.16454 
L 375.445247 208.25977 
L 378.90435 211.210052 
L 382.482496 214.010177 
L 386.173363 216.655199 
L 389.970435 219.140446 
L 393.867005 221.461531 
L 397.856191 223.614352 
L 401.930948 225.595109 
L 406.08408 227.400303 
L 410.308252 229.026746 
L 414.596004 230.471566 
L 418.939762 231.73221 
L 423.331857 232.806453 
L 427.764529 233.692397 
L 432.229952 234.388478 
L 436.720239 234.893465 
L 441.22746 235.206468 
L 445.743654 235.326934 
L 450.260845 235.254649 
L 454.771056 234.989742 
L 459.266321 234.53268 
L 463.738702 233.884271 
L 468.180298 233.045659 
L 472.583267 232.018326 
L 476.939833 230.804086 
L 481.2423 229.405084 
L 485.483071 227.82379 
L 489.654655 226.062997 
L 493.749687 224.125815 
L 497.760932 222.015664 
L 501.681308 219.736273 
L 505.50389 217.291666 
L 509.221927 214.68616 
L 512.828854 211.924358 
L 516.318299 209.011137 
L 519.6841 205.951642 
L 522.920313 202.751276 
L 526.021222 199.415691 
L 528.981351 195.950779 
L 531.795472 192.362659 
L 534.458615 188.657667 
L 536.966076 184.842347 
L 539.313428 180.923438 
L 541.496524 176.907859 
L 543.511509 172.802705 
L 545.354825 168.615223 
L 547.023215 164.35281 
L 548.513734 160.022994 
L 549.823749 155.633422 
L 550.950946 151.191845 
L 551.893334 146.706109 
L 552.64925 142.184135 
L 553.217359 137.633909 
L 553.596656 133.063468 
L 553.786472 128.480884 
L 553.810207 126.187567 
L 553.810207 126.187567 
" clip-path="url(#p53dd286cff)" style="fill: none; stroke: #ff0000; stroke-width: 0.72; stroke-linejoin: miter"/>
   </g>
   <g id="line2d_7">
    <path d="M 70.26161 126.187567 
L 859.55912 126.187567 
" clip-path="url(#p53dd286cff)" style="fill: none; stroke: #ffffff; stroke-width: 0.72; stroke-linecap: square"/>
   </g>
   <g id="line2d_8">
    <path d="M 216.413409 126.187567 
L 283.314565 126.187567 
" clip-path="url(#p53dd286cff)" style="fill: none; stroke: #ffffff; stroke-width: 0.72; stroke-linecap: square"/>
   </g>
   <g id="patch_11">
    <path d="M 249.863987 98.312085 
L 277.739469 126.187567 
L 249.863987 154.063048 
L 221.988506 126.187567 
L 249.863987 98.312085 
" clip-path="url(#p53dd286cff)" style="fill: none; stroke: #ff0000; stroke-width: 0.72; stroke-linejoin: miter"/>
   </g>
   <g id="line2d_9">
    <path d="M 431.459787 126.187567 
L 498.360943 126.187567 
" clip-path="url(#p53dd286cff)" style="fill: none; stroke: #ffffff; stroke-width: 0.72; stroke-linecap: square"/>
   </g>
   <g id="patch_12">
    <path d="M 464.910365 98.312085 
L 492.785846 126.187567 
L 464.910365 154.063048 
L 437.034883 126.187567 
L 464.910365 98.312085 
" clip-path="url(#p53dd286cff)" style="fill: none; stroke: #ff0000; stroke-width: 0.72; stroke-linejoin: miter"/>
   </g>
   <g id="line2d_10">
    <path d="M 646.506164 126.187567 
L 713.40732 126.187567 
" clip-path="url(#p53dd286cff)" style="fill: none; stroke: #ffffff; stroke-width: 0.72; stroke-linecap: square"/>
   </g>
   <g id="patch_13">
    <path d="M 679.956742 98.312085 
L 707.832224 126.187567 
L 679.956742 154.063048 
L 652.08126 126.187567 
L 679.956742 98.312085 
" clip-path="url(#p53dd286cff)" style="fill: none; stroke: #ff0000; stroke-width: 0.72; stroke-linejoin: miter"/>
   </g>
   <g id="line2d_11">
    <path d="M 52.484453 150.214397 
L 1085.442635 183.166252 
" clip-path="url(#p53dd286cff)" style="fill: none; stroke: #ffffff; stroke-width: 0.72; stroke-linecap: square"/>
   </g>
   <g id="line2d_12">
    <path d="M 247.37434 156.431477 
L 314.241481 158.56457 
" clip-path="url(#p53dd286cff)" style="fill: none; stroke: #ffffff; stroke-width: 0.72; stroke-linecap: square"/>
   </g>
   <g id="patch_14">
    <path d="M 281.696699 129.636715 
L 308.669219 158.386812 
L 279.919122 185.359332 
L 252.946602 156.609235 
L 281.696699 129.636715 
" clip-path="url(#p53dd286cff)" style="fill: none; stroke: #ff0000; stroke-width: 0.72; stroke-linejoin: miter"/>
   </g>
   <g id="line2d_13">
    <path d="M 487.504034 164.091728 
L 554.371176 166.224821 
" clip-path="url(#p53dd286cff)" style="fill: none; stroke: #ffffff; stroke-width: 0.72; stroke-linecap: square"/>
   </g>
   <g id="patch_15">
    <path d="M 521.826394 137.296966 
L 548.798914 166.047063 
L 520.048816 193.019583 
L 493.076296 164.269485 
L 521.826394 137.296966 
" clip-path="url(#p53dd286cff)" style="fill: none; stroke: #ff0000; stroke-width: 0.72; stroke-linejoin: miter"/>
   </g>
   <g id="line2d_14">
    <path d="M 446.308412 17.046693 
L 446.308412 11.471597 
" clip-path="url(#p53dd286cff)" style="fill: none; stroke: #ff0000; stroke-width: 0.72; stroke-linecap: square"/>
   </g>
   <g id="line2d_15">
    <path d="M 446.308412 235.32844 
L 446.308412 240.903536 
" clip-path="url(#p53dd286cff)" style="fill: none; stroke: #ff0000; stroke-width: 0.72; stroke-linecap: square"/>
   </g>
   <g id="line2d_16">
    <path d="M 553.810207 126.187567 
L 559.385303 126.187567 
" clip-path="url(#p53dd286cff)" style="fill: none; stroke: #ff0000; stroke-width: 0.72; stroke-linecap: square"/>
   </g>
   <g id="line2d_17">
    <path d="M 338.806617 126.187567 
L 333.23152 126.187567 
" clip-path="url(#p53dd286cff)" style="fill: none; stroke: #ff0000; stroke-width: 0.72; stroke-linecap: square"/>
   </g>
   <g id="patch_16">
    <path d="M 351.850351 123.24073 
L 340.700158 123.24073 
L 340.700158 178.991693 
L 351.850351 178.991693 
" clip-path="url(#p53dd286cff)" style="fill: none; stroke: #ff0000; stroke-width: 0.72; stroke-linejoin: miter"/>
   </g>
   <g id="patch_17">
    <path d="M 357.425447 178.991693 
L 368.57564 178.991693 
L 368.57564 123.24073 
L 357.425447 123.24073 
" clip-path="url(#p53dd286cff)" style="fill: none; stroke: #ff0000; stroke-width: 0.72; stroke-linejoin: miter"/>
   </g>
   <g id="patch_18">
    <path d="M 340.700158 151.116212 
L 351.850351 151.116212 
" clip-path="url(#p53dd286cff)" style="fill: none; stroke: #ff0000; stroke-width: 0.72; stroke-linejoin: miter"/>
   </g>
   <g id="patch_19">
    <path d="M 357.425447 151.116212 
L 368.57564 151.116212 
" clip-path="url(#p53dd286cff)" style="fill: none; stroke: #ff0000; stroke-width: 0.72; stroke-linejoin: miter"/>
   </g>
   <g id="patch_20">
    <path d="M 410.388863 123.24073 
L 399.23867 123.24073 
" clip-path="url(#p53dd286cff)" style="fill: none; stroke: #ff0000; stroke-width: 0.72; stroke-linejoin: miter"/>
   </g>
   <g id="patch_21">
    <path d="M 393.663574 123.24073 
L 382.513381 123.24073 
L 382.513381 178.991693 
L 393.663574 178.991693 
" clip-path="url(#p53dd286cff)" style="fill: none; stroke: #ff0000; stroke-width: 0.72; stroke-linejoin: miter"/>
   </g>
   <g id="patch_22">
    <path d="M 399.23867 178.991693 
L 410.388863 178.991693 
L 410.388863 151.116212 
L 399.23867 151.116212 
" clip-path="url(#p53dd286cff)" style="fill: none; stroke: #ff0000; stroke-width: 0.72; stroke-linejoin: miter"/>
   </g>
   <g id="patch_23">
    <path d="M 393.663574 151.116212 
L 382.513381 151.116212 
" clip-path="url(#p53dd286cff)" style="fill: none; stroke: #ff0000; stroke-width: 0.72; stroke-linejoin: miter"/>
   </g>
  </g>
 </g>
 <defs>
  <clipPath id="p53dd286cff">
   <rect x="0" y="0" width="1152" height="252.375133"/>
  </clipPath>
 </defs>
</svg>
