<?xml version="1.0" encoding="utf-8" standalone="no"?>
<!DOCTYPE svg PUBLIC "-//W3C//DTD SVG 1.1//EN"
  "http://www.w3.org/Graphics/SVG/1.1/DTD/svg11.dtd">
<svg xmlns:xlink="http://www.w3.org/1999/xlink" width="1152pt" height="335.570033pt" viewBox="0 0 1152 335.570033" xmlns="http://www.w3.org/2000/svg" version="1.1">
 <metadata>
  <rdf:RDF xmlns:dc="http://purl.org/dc/elements/1.1/" xmlns:cc="http://creativecommons.org/ns#" xmlns:rdf="http://www.w3.org/1999/02/22-rdf-syntax-ns#">
   <cc:Work>
    <dc:type rdf:resource="http://purl.org/dc/dcmitype/StillImage"/>
    <dc:date>2026-01-07T02:07:07.369087</dc:date>
    <dc:format>image/svg+xml</dc:format>
    <dc:creator>
     <cc:Agent>
      <dc:title>Matplotlib v3.10.1, https://matplotlib.org/</dc:title>
     </cc:Agent>
    </dc:creator>
   </cc:Work>
  </rdf:RDF>
 </metadata>
 <defs>
  <style type="text/css">*{stroke-linejoin: round; stroke-linecap: butt}</style>
 </defs>
 <g id="figure_1">
  <g id="patch_1">
   <path d="M 0 335.570033 
L 1152 335.570033 
L 1152 0 
L 0 0 
z
" style="fill: #ffffff"/>
  </g>
  <g id="axes_1">
   <g id="patch_2">
    <path d="M 0 335.570033 
L 1152 335.570033 
L 1152 0 
L 0 0 
z
" style="fill: #212830"/>
   </g>
   <g id="patch_3">
    <path d="M 1099.636364 41.627339 
L 1094.684749 40.891419 
L 1072.020931 37.719374 
L 1049.374424 34.758838 
L 1026.745658 32.022919 
L 1004.130536 29.51256 
L 981.528396 27.220384 
L 958.946817 25.132477 
L 936.408577 23.235929 
L 913.946074 21.532643 
L 891.576011 20.042905 
L 869.288138 18.781545 
L 847.067273 17.738238 
L 824.92019 16.886671 
L 802.87663 16.206539 
L 780.974839 15.694552 
L 759.249817 15.366627 
L 737.712887 15.253183 
L 716.34077 15.376695 
L 695.097688 15.720851 
L 673.987806 16.23562 
L 653.070314 16.884381 
L 632.413361 17.683507 
L 612.038405 18.684673 
L 591.914147 19.926081 
L 571.992669 21.403422 
L 552.249981 23.070762 
L 532.719021 24.867027 
L 513.485086 26.767519 
L 494.620739 28.817988 
L 476.11107 31.099041 
L 457.866343 33.63793 
L 439.827582 36.36797 
L 422.042206 39.196061 
L 404.618244 42.099467 
L 387.615829 45.137771 
L 371.008376 48.376988 
L 354.735493 51.828739 
L 338.766558 55.454716 
L 323.113699 59.207324 
L 307.817074 63.056679 
L 292.920034 66.998819 
L 278.451562 71.051654 
L 264.412038 75.242092 
L 250.779854 79.583722 
L 237.531295 84.066941 
L 224.660817 88.663011 
L 212.186701 93.343841 
L 200.134371 98.09771 
L 188.515531 102.928669 
L 177.326627 107.837129 
L 166.569166 112.806749 
L 156.263331 117.818376 
L 146.430403 122.872114 
L 137.070397 127.979512 
L 128.170969 133.138912 
L 119.731018 138.331389 
L 111.76375 143.537487 
L 104.282037 148.749332 
L 97.296284 153.960419 
L 90.815561 159.169146 
L 84.831297 164.388076 
L 79.311752 169.621554 
L 74.238804 174.824363 
L 69.653698 179.913813 
L 65.629978 184.852735 
L 62.197912 189.691804 
L 59.32077 194.506331 
L 56.946173 199.301912 
L 55.055062 204.014775 
L 53.658647 208.595165 
L 52.765078 213.038657 
L 52.363636 217.603689 
L 52.464394 221.439634 
L 53.073656 225.339587 
L 54.250666 229.098664 
L 56.050707 232.804141 
L 58.476387 236.487411 
L 61.488081 240.116772 
L 65.077728 243.647619 
L 69.291237 247.064811 
L 74.172197 250.38056 
L 79.715734 253.605961 
L 85.899128 256.731872 
L 92.72864 259.743342 
L 100.230854 262.643786 
L 108.411614 265.454103 
L 117.249591 268.191421 
L 126.719666 270.858631 
L 136.805339 273.451251 
L 147.495003 275.96373 
L 158.782149 278.389303 
L 170.667603 280.725233 
L 183.146617 282.976905 
L 196.201094 285.146006 
L 209.816912 287.221849 
L 224.000661 289.192888 
L 238.76194 291.064305 
L 254.092661 292.849362 
L 269.974595 294.55092 
L 286.40237 296.164027 
L 303.377563 297.692317 
L 338.923065 300.538618 
L 376.493564 303.116438 
L 415.995832 305.446601 
L 457.321817 307.534975 
L 462.54652 307.770657 
L 462.460884 309.669071 
L 500.298745 311.306223 
L 544.955838 312.973143 
L 591.07456 314.436219 
L 638.541997 315.652073 
L 687.29171 316.615523 
L 737.260073 317.335566 
L 866.781162 318.738094 
L 1055.051149 320.07639 
L 1099.636364 320.31685 
L 1099.636364 41.627339 
L 1099.636364 41.627339 
" clip-path="url(#pec1b6aeb23)" style="fill: none; stroke: #ff0000; stroke-width: 0.72; stroke-linejoin: miter"/>
   </g>
   <g id="patch_4">
    <path d="M 644.503821 252.940242 
L 644.503821 271.943689 
" clip-path="url(#pec1b6aeb23)" style="fill: none; stroke: #ff0000; stroke-width: 0.72; stroke-linejoin: miter"/>
   </g>
   <g id="patch_5">
    <path d="M 663.507268 252.940242 
L 654.005545 252.940242 
L 654.005545 262.441965 
L 663.507268 262.441965 
L 663.507268 271.943689 
L 654.005545 271.943689 
" clip-path="url(#pec1b6aeb23)" style="fill: none; stroke: #ff0000; stroke-width: 0.72; stroke-linejoin: miter"/>
   </g>
   <g id="patch_6">
    <path d="M 632.580987 25.285822 
L 624.988773 25.658965 
L 624.61563 18.06675 
L 632.207845 17.693608 
L 632.580987 25.285822 
" clip-path="url(#pec1b6aeb23)" style="fill: none; stroke: #ff0000; stroke-width: 0.72; stroke-linejoin: miter"/>
   </g>
   <g id="patch_7">
    <path d="M 275.146939 79.970941 
L 267.863158 82.14522 
L 265.688879 74.861439 
L 272.97266 72.68716 
L 275.146939 79.970941 
" clip-path="url(#pec1b6aeb23)" style="fill: none; stroke: #ff0000; stroke-width: 0.72; stroke-linejoin: miter"/>
   </g>
   <g id="patch_8">
    <path d="M 94.176348 168.847267 
L 91.312713 171.346234 
L 85.065296 164.187147 
L 87.92893 161.68818 
L 94.176348 168.847267 
" clip-path="url(#pec1b6aeb23)" style="fill: none; stroke: #ff0000; stroke-width: 0.72; stroke-linejoin: miter"/>
   </g>
   <g id="patch_9">
    <path d="M 73.712832 238.583259 
L 76.85919 240.715315 
L 71.529049 248.581213 
L 68.38269 246.449156 
L 73.712832 238.583259 
" clip-path="url(#pec1b6aeb23)" style="fill: none; stroke: #ff0000; stroke-width: 0.72; stroke-linejoin: miter"/>
   </g>
   <g id="patch_10">
    <path d="M 354.955005 294.077751 
L 362.5399 294.578076 
L 362.039575 302.162971 
L 354.45468 301.662645 
L 354.955005 294.077751 
" clip-path="url(#pec1b6aeb23)" style="fill: none; stroke: #ff0000; stroke-width: 0.72; stroke-linejoin: miter"/>
   </g>
   <g id="patch_11">
    <path d="M 966.908812 167.424733 
L 966.804508 162.157011 
L 966.491782 156.898591 
L 965.971185 151.658762 
L 965.243636 146.446777 
L 964.310421 141.271841 
L 963.173188 136.143093 
L 961.833945 131.069592 
L 960.295058 126.060297 
L 958.559244 121.124055 
L 956.629569 116.269585 
L 954.50944 111.50546 
L 952.202603 106.840093 
L 949.713132 102.281724 
L 947.045422 97.838404 
L 944.204186 93.51798 
L 941.194441 89.328082 
L 938.021502 85.276109 
L 934.690974 81.369219 
L 931.208739 77.614311 
L 927.580946 74.018016 
L 923.814003 70.586686 
L 919.914561 67.326382 
L 915.889509 64.24286 
L 911.745954 61.341566 
L 907.491215 58.627626 
L 903.132806 56.105831 
L 898.678423 53.780636 
L 894.135935 51.656147 
L 889.513363 49.736115 
L 884.818872 48.023933 
L 880.060751 46.522623 
L 875.247405 45.234838 
L 870.387335 44.162852 
L 865.489123 43.308557 
L 860.56142 42.673463 
L 855.61293 42.258691 
L 850.652391 42.064974 
L 845.688565 42.092654 
L 840.730217 42.341682 
L 835.786106 42.811618 
L 830.864962 43.501633 
L 825.975476 44.410507 
L 821.126285 45.536636 
L 816.325952 46.87803 
L 811.582956 48.432321 
L 806.905671 50.196763 
L 802.30236 52.168241 
L 797.781152 54.343273 
L 793.350032 56.718017 
L 789.016825 59.288279 
L 784.789185 62.04952 
L 780.674578 64.996863 
L 776.680271 68.125104 
L 772.813317 71.428717 
L 769.080547 74.901868 
L 765.488553 78.538422 
L 762.043678 82.331958 
L 758.752007 86.275776 
L 755.619352 90.36291 
L 752.651248 94.586143 
L 749.852934 98.938015 
L 747.229355 103.410842 
L 744.785142 107.996722 
L 742.524613 112.687558 
L 740.45176 117.475065 
L 738.570244 122.350788 
L 736.883388 127.306115 
L 735.39417 132.332296 
L 734.105222 137.420453 
L 733.018819 142.5616 
L 732.13688 147.746658 
L 731.460964 152.96647 
L 730.992262 158.211816 
L 730.731604 163.473432 
L 730.679449 168.742027 
L 730.83589 174.008296 
L 731.200651 179.262938 
L 731.773086 184.496672 
L 732.552186 189.700255 
L 733.536574 194.864498 
L 734.724512 199.98028 
L 736.113901 205.038566 
L 737.702289 210.030422 
L 739.486869 214.947032 
L 741.46449 219.779714 
L 743.63166 224.519932 
L 745.98455 229.159315 
L 748.519006 233.689668 
L 751.230551 238.102992 
L 754.114397 242.391491 
L 757.16545 246.547592 
L 760.378322 250.563955 
L 763.747339 254.433487 
L 767.26655 258.149352 
L 770.929741 261.70499 
L 774.730442 265.09412 
L 778.661941 268.310757 
L 782.717294 271.34922 
L 786.889338 274.204143 
L 791.170707 276.870483 
L 795.553838 279.343532 
L 800.030991 281.618922 
L 804.594258 283.692634 
L 809.23558 285.561007 
L 813.946761 287.22074 
L 818.71948 288.668903 
L 823.545307 289.902937 
L 828.41572 290.920663 
L 833.322118 291.720284 
L 838.255835 292.300387 
L 843.208158 292.659948 
L 848.170341 292.798333 
L 853.133619 292.715296 
L 858.089228 292.410985 
L 863.028415 291.885936 
L 867.942457 291.141077 
L 872.822676 290.177724 
L 877.660452 288.997577 
L 882.447242 287.602722 
L 887.174592 285.995621 
L 891.834153 284.179113 
L 896.417695 282.156406 
L 900.917123 279.931073 
L 905.324492 277.507043 
L 909.632018 274.888597 
L 913.832092 272.08036 
L 917.917297 269.087292 
L 921.880419 265.914678 
L 925.714458 262.568122 
L 929.412643 259.053533 
L 932.968442 255.37712 
L 936.375576 251.545375 
L 939.628027 247.565065 
L 942.720051 243.44322 
L 945.646188 239.187119 
L 948.401269 234.804279 
L 950.98043 230.302441 
L 953.379114 225.689554 
L 955.593085 220.973767 
L 957.618434 216.163407 
L 959.451583 211.26697 
L 961.089295 206.293104 
L 962.528678 201.250592 
L 963.76719 196.148341 
L 964.802642 190.995362 
L 965.633207 185.800754 
L 966.257418 180.573693 
L 966.674172 175.32341 
L 966.882733 170.059176 
L 966.908812 167.424733 
L 966.908812 167.424733 
" clip-path="url(#pec1b6aeb23)" style="fill: none; stroke: #ff0000; stroke-width: 0.72; stroke-linejoin: miter"/>
   </g>
   <g id="patch_12">
    <path d="M 392.877172 157.92301 
L 402.378895 167.424733 
L 392.877172 176.926456 
L 383.375449 167.424733 
L 392.877172 157.92301 
" clip-path="url(#pec1b6aeb23)" style="fill: none; stroke: #ff0000; stroke-width: 0.72; stroke-linejoin: miter"/>
   </g>
   <g id="patch_13">
    <path d="M 841.22159 157.92301 
L 850.723313 167.424733 
L 841.22159 176.926456 
L 831.719867 167.424733 
L 841.22159 157.92301 
" clip-path="url(#pec1b6aeb23)" style="fill: none; stroke: #ff0000; stroke-width: 0.72; stroke-linejoin: miter"/>
   </g>
   <g id="patch_14">
    <path d="M 460.723256 232.91689 
L 469.588482 243.015071 
L 459.4903 251.880296 
L 450.625075 241.782115 
L 460.723256 232.91689 
" clip-path="url(#pec1b6aeb23)" style="fill: none; stroke: #ff0000; stroke-width: 0.72; stroke-linejoin: miter"/>
   </g>
   <g id="patch_15">
    <path d="M 954.806905 265.041039 
L 963.672131 275.13922 
L 953.573949 284.004445 
L 944.708724 273.906264 
L 954.806905 265.041039 
" clip-path="url(#pec1b6aeb23)" style="fill: none; stroke: #ff0000; stroke-width: 0.72; stroke-linejoin: miter"/>
   </g>
   <g id="patch_16">
    <path d="M 554.237451 207.867005 
L 563.739174 198.365282 
L 573.240897 207.867005 
L 563.739174 217.368728 
L 554.237451 207.867005 
" clip-path="url(#pec1b6aeb23)" style="fill: none; stroke: #ff0000; stroke-width: 0.72; stroke-linejoin: miter"/>
   </g>
   <g id="patch_17">
    <path d="M 554.237451 127.829633 
L 563.739174 118.32791 
L 573.240897 127.829633 
L 563.739174 137.331356 
L 554.237451 127.829633 
" clip-path="url(#pec1b6aeb23)" style="fill: none; stroke: #ff0000; stroke-width: 0.72; stroke-linejoin: miter"/>
   </g>
   <g id="line2d_1">
    <path d="M 81.628653 167.424733 
L 1099.636364 167.424733 
" clip-path="url(#pec1b6aeb23)" style="fill: none; stroke: #ffffff; stroke-width: 0.72; stroke-linecap: square"/>
   </g>
   <g id="line2d_2">
    <path d="M 381.475104 167.424733 
L 404.27924 167.424733 
" clip-path="url(#pec1b6aeb23)" style="fill: none; stroke: #ffffff; stroke-width: 0.72; stroke-linecap: square"/>
   </g>
   <g id="line2d_3">
    <path d="M 829.819522 167.424733 
L 852.623658 167.424733 
" clip-path="url(#pec1b6aeb23)" style="fill: none; stroke: #ffffff; stroke-width: 0.72; stroke-linecap: square"/>
   </g>
   <g id="line2d_4">
    <path d="M 52.513645 215.897852 
L 1099.636364 283.979293 
" clip-path="url(#pec1b6aeb23)" style="fill: none; stroke: #ffffff; stroke-width: 0.72; stroke-linecap: square"/>
   </g>
   <g id="line2d_5">
    <path d="M 448.728734 241.658819 
L 471.484822 243.138366 
" clip-path="url(#pec1b6aeb23)" style="fill: none; stroke: #ffffff; stroke-width: 0.72; stroke-linecap: square"/>
   </g>
   <g id="line2d_6">
    <path d="M 942.812383 273.782969 
L 965.568471 275.262516 
" clip-path="url(#pec1b6aeb23)" style="fill: none; stroke: #ffffff; stroke-width: 0.72; stroke-linecap: square"/>
   </g>
   <g id="line2d_7">
    <path d="M 848.790871 42.049403 
L 848.790871 40.149059 
" clip-path="url(#pec1b6aeb23)" style="fill: none; stroke: #ff0000; stroke-width: 0.72; stroke-linecap: square"/>
   </g>
   <g id="line2d_8">
    <path d="M 848.790871 292.800063 
L 848.790871 294.700408 
" clip-path="url(#pec1b6aeb23)" style="fill: none; stroke: #ff0000; stroke-width: 0.72; stroke-linecap: square"/>
   </g>
   <g id="line2d_9">
    <path d="M 966.908812 167.424733 
L 968.809157 167.424733 
" clip-path="url(#pec1b6aeb23)" style="fill: none; stroke: #ff0000; stroke-width: 0.72; stroke-linecap: square"/>
   </g>
   <g id="line2d_10">
    <path d="M 730.672929 167.424733 
L 728.772585 167.424733 
" clip-path="url(#pec1b6aeb23)" style="fill: none; stroke: #ff0000; stroke-width: 0.72; stroke-linecap: square"/>
   </g>
   <g id="line2d_11">
    <path d="M 563.739174 313.596179 
L 563.739174 22.100459 
" clip-path="url(#pec1b6aeb23)" style="fill: none; stroke: #ffffff; stroke-width: 0.72; stroke-linecap: square"/>
   </g>
   <g id="line2d_12">
    <path d="M 563.739174 219.269073 
L 563.739174 196.464937 
" clip-path="url(#pec1b6aeb23)" style="fill: none; stroke: #ffffff; stroke-width: 0.72; stroke-linecap: square"/>
   </g>
   <g id="line2d_13">
    <path d="M 563.739174 139.231701 
L 563.739174 116.427565 
" clip-path="url(#pec1b6aeb23)" style="fill: none; stroke: #ffffff; stroke-width: 0.72; stroke-linecap: square"/>
   </g>
  </g>
 </g>
 <defs>
  <clipPath id="pec1b6aeb23">
   <rect x="0" y="0" width="1152" height="335.570033"/>
  </clipPath>
 </defs>
</svg>
