  0
SECTION
  2
HEADER
  9
$ACADVER
  1
AC1021
  9
$ACADMAINTVER
 70
25
  9
$DWGCODEPAGE
  3
ANSI_1252
  9
$LASTSAVEDBY
  1
ezdxf
  9
$INSBASE
 10
0.0
 20
0.0
 30
0.0
  9
$EXTMIN
 10
1e+20
 20
1e+20
 30
1e+20
  9
$EXTMAX
 10
-1e+20
 20
-1e+20
 30
-1e+20
  9
$LIMMIN
 10
0.0
 20
0.0
  9
$LIMMAX
 10
420.0
 20
297.0
  9
$ORTHOMODE
 70
0
  9
$REGENMODE
 70
1
  9
$FILLMODE
 70
1
  9
$QTEXTMODE
 70
0
  9
$MIRRTEXT
 70
1
  9
$LTSCALE
 40
1.0
  9
$ATTMODE
 70
1
  9
$TEXTSIZE
 40
2.5
  9
$TRACEWID
 40
1.0
  9
$TEXTSTYLE
  7
OpenSans
  9
$CLAYER
  8
0
  9
$CELTYPE
  6
ByLayer
  9
$CECOLOR
 62
256
  9
$CELTSCALE
 40
1.0
  9
$DISPSILH
 70
0
  9
$DIMSCALE
 40
1.0
  9
$DIMASZ
 40
0.175
  9
$DIMEXO
 40
0.125
  9
$DIMDLI
 40
3.75
  9
$DIMRND
 40
0.0
  9
$DIMDLE
 40
0.0
  9
$DIMEXE
 40
0.375
  9
$DIMTP
 40
0.0
  9
$DIMTM
 40
0.0
  9
$DIMTXT
 40
0.25
  9
$DIMCEN
 40
2.5
  9
$DIMTSZ
 40
0.0
  9
$DIMTOL
 70
0
  9
$DIMLIM
 70
0
  9
$DIMTIH
 70
0
  9
$DIMTOH
 70
0
  9
$DIMSE1
 70
0
  9
$DIMSE2
 70
0
  9
$DIMTAD
 70
1
  9
$DIMZIN
 70
12
  9
$DIMBLK
  1
ARCHTICK
  9
$DIMASO
 70
1
  9
$DIMSHO
 70
1
  9
$DIMPOST
  1

  9
$DIMAPOST
  1

  9
$DIMALT
 70
0
  9
$DIMALTD
 70
3
  9
$DIMALTF
 40
0.03937007874
  9
$DIMLFAC
 40
100.0
  9
$DIMTOFL
 70
1
  9
$DIMTVP
 40
0.0
  9
$DIMTIX
 70
0
  9
$DIMSOXD
 70
0
  9
$DIMSAH
 70
0
  9
$DIMBLK1
  1

  9
$DIMBLK2
  1

  9
$DIMSTYLE
  2
EZDXF
  9
$DIMCLRD
 70
0
  9
$DIMCLRE
 70
0
  9
$DIMCLRT
 70
0
  9
$DIMTFAC
 40
0.5
  9
$DIMGAP
 40
0.1
  9
$DIMJUST
 70
0
  9
$DIMSD1
 70
0
  9
$DIMSD2
 70
0
  9
$DIMTOLJ
 70
0
  9
$DIMTZIN
 70
8
  9
$DIMALTZ
 70
0
  9
$DIMALTTZ
 70
0
  9
$DIMUPT
 70
1
  9
$DIMDEC
 70
2
  9
$DIMTDEC
 70
2
  9
$DIMALTU
 70
2
  9
$DIMALTTD
 70
3
  9
$DIMTXSTY
  7
OpenSansCondensed-Light
  9
$DIMAUNIT
 70
0
  9
$DIMADEC
 70
2
  9
$DIMALTRND
 40
0.0
  9
$DIMAZIN
 70
3
  9
$DIMDSEP
 70
46
  9
$DIMATFIT
 70
3
  9
$DIMFRAC
 70
0
  9
$DIMLDRBLK
  1

  9
$DIMLUNIT
 70
2
  9
$DIMLWD
 70
-2
  9
$DIMLWE
 70
-2
  9
$DIMTMOVE
 70
2
  9
$DIMFXL
 40
1.0
  9
$DIMFXLON
 70
0
  9
$DIMJOGANG
 40
0.785398163397
  9
$DIMTFILL
 70
0
  9
$DIMTFILLCLR
 70
0
  9
$DIMARCSYM
 70
0
  9
$DIMLTYPE
  6

  9
$DIMLTEX1
  6

  9
$DIMLTEX2
  6

  9
$LUNITS
 70
2
  9
$LUPREC
 70
4
  9
$SKETCHINC
 40
1.0
  9
$FILLETRAD
 40
10.0
  9
$AUNITS
 70
0
  9
$AUPREC
 70
2
  9
$MENU
  1
.
  9
$ELEVATION
 40
0.0
  9
$PELEVATION
 40
0.0
  9
$THICKNESS
 40
0.0
  9
$LIMCHECK
 70
0
  9
$CHAMFERA
 40
0.0
  9
$CHAMFERB
 40
0.0
  9
$CHAMFERC
 40
0.0
  9
$CHAMFERD
 40
0.0
  9
$SKPOLY
 70
0
  9
$TDCREATE
 40
2461048.088287037
  9
$TDUCREATE
 40
2458532.153996898
  9
$TDUPDATE
 40
2461048.088287037
  9
$TDUUPDATE
 40
2458532.1544311
  9
$TDINDWG
 40
0.0
  9
$TDUSRTIMER
 40
0.0
  9
$USRTIMER
 70
1
  9
$ANGBASE
 50
0.0
  9
$ANGDIR
 70
0
  9
$PDMODE
 70
0
  9
$PDSIZE
 40
0.0
  9
$PLINEWID
 40
0.0
  9
$SPLFRAME
 70
0
  9
$SPLINETYPE
 70
6
  9
$SPLINESEGS
 70
8
  9
$HANDSEED
  5
AE
  9
$SURFTAB1
 70
6
  9
$SURFTAB2
 70
6
  9
$SURFTYPE
 70
6
  9
$SURFU
 70
6
  9
$SURFV
 70
6
  9
$UCSBASE
  2

  9
$UCSNAME
  2

  9
$UCSORG
 10
0.0
 20
0.0
 30
0.0
  9
$UCSXDIR
 10
1.0
 20
0.0
 30
0.0
  9
$UCSYDIR
 10
0.0
 20
1.0
 30
0.0
  9
$UCSORTHOREF
  2

  9
$UCSORTHOVIEW
 70
0
  9
$UCSORGTOP
 10
0.0
 20
0.0
 30
0.0
  9
$UCSORGBOTTOM
 10
0.0
 20
0.0
 30
0.0
  9
$UCSORGLEFT
 10
0.0
 20
0.0
 30
0.0
  9
$UCSORGRIGHT
 10
0.0
 20
0.0
 30
0.0
  9
$UCSORGFRONT
 10
0.0
 20
0.0
 30
0.0
  9
$UCSORGBACK
 10
0.0
 20
0.0
 30
0.0
  9
$PUCSBASE
  2

  9
$PUCSNAME
  2

  9
$PUCSORG
 10
0.0
 20
0.0
 30
0.0
  9
$PUCSXDIR
 10
1.0
 20
0.0
 30
0.0
  9
$PUCSYDIR
 10
0.0
 20
1.0
 30
0.0
  9
$PUCSORTHOREF
  2

  9
$PUCSORTHOVIEW
 70
0
  9
$PUCSORGTOP
 10
0.0
 20
0.0
 30
0.0
  9
$PUCSORGBOTTOM
 10
0.0
 20
0.0
 30
0.0
  9
$PUCSORGLEFT
 10
0.0
 20
0.0
 30
0.0
  9
$PUCSORGRIGHT
 10
0.0
 20
0.0
 30
0.0
  9
$PUCSORGFRONT
 10
0.0
 20
0.0
 30
0.0
  9
$PUCSORGBACK
 10
0.0
 20
0.0
 30
0.0
  9
$USERI1
 70
0
  9
$USERI2
 70
0
  9
$USERI3
 70
0
  9
$USERI4
 70
0
  9
$USERI5
 70
0
  9
$USERR1
 40
0.0
  9
$USERR2
 40
0.0
  9
$USERR3
 40
0.0
  9
$USERR4
 40
0.0
  9
$USERR5
 40
0.0
  9
$WORLDVIEW
 70
1
  9
$SHADEDGE
 70
3
  9
$SHADEDIF
 70
70
  9
$TILEMODE
 70
1
  9
$MAXACTVP
 70
64
  9
$PINSBASE
 10
0.0
 20
0.0
 30
0.0
  9
$PLIMCHECK
 70
0
  9
$PEXTMIN
 10
1e+20
 20
1e+20
 30
1e+20
  9
$PEXTMAX
 10
-1e+20
 20
-1e+20
 30
-1e+20
  9
$PLIMMIN
 10
0.0
 20
0.0
  9
$PLIMMAX
 10
420.0
 20
297.0
  9
$UNITMODE
 70
0
  9
$VISRETAIN
 70
1
  9
$PLINEGEN
 70
0
  9
$PSLTSCALE
 70
1
  9
$TREEDEPTH
 70
3020
  9
$CMLSTYLE
  2
Standard
  9
$CMLJUST
 70
0
  9
$CMLSCALE
 40
20.0
  9
$PROXYGRAPHICS
 70
1
  9
$MEASUREMENT
 70
1
  9
$CELWEIGHT
370
-1
  9
$ENDCAPS
280
0
  9
$JOINSTYLE
280
0
  9
$LWDISPLAY
290
0
  9
$INSUNITS
 70
6
  9
$HYPERLINKBASE
  1

  9
$STYLESHEET
  1

  9
$XEDIT
290
1
  9
$CEPSNTYPE
380
0
  9
$PSTYLEMODE
290
1
  9
$FINGERPRINTGUID
  2
{A3D8A062-537F-49AD-8E03-24AC1BD3811F}
  9
$VERSIONGUID
  2
{0DB35DB1-0FF8-4699-8437-5CBB09A3BF7B}
  9
$EXTNAMES
290
1
  9
$PSVPSCALE
 40
0.0
  9
$OLESTARTUP
290
0
  9
$SORTENTS
280
127
  9
$INDEXCTL
280
0
  9
$HIDETEXT
280
1
  9
$XCLIPFRAME
290
1
  9
$HALOGAP
280
0
  9
$OBSCOLOR
 70
257
  9
$OBSLTYPE
280
0
  9
$INTERSECTIONDISPLAY
280
0
  9
$INTERSECTIONCOLOR
 70
257
  9
$DIMASSOC
280
2
  9
$PROJECTNAME
  1

  9
$CAMERADISPLAY
290
0
  9
$LENSLENGTH
 40
50.0
  9
$CAMERAHEIGHT
 40
0.0
  9
$STEPSPERSEC
 40
24.0
  9
$STEPSIZE
 40
100.0
  9
$3DDWFPREC
 40
2.0
  9
$PSOLWIDTH
 40
0.005
  9
$PSOLHEIGHT
 40
0.08
  9
$LOFTANG1
 40
1.570796326795
  9
$LOFTANG2
 40
1.570796326795
  9
$LOFTMAG1
 40
0.0
  9
$LOFTMAG2
 40
0.0
  9
$LOFTPARAM
 70
7
  9
$LOFTNORMALS
280
1
  9
$LATITUDE
 40
37.795
  9
$LONGITUDE
 40
-122.394
  9
$NORTHDIRECTION
 40
0.0
  9
$TIMEZONE
 70
-8000
  9
$LIGHTGLYPHDISPLAY
280
1
  9
$TILEMODELIGHTSYNCH
280
1
  9
$CMATERIAL
347
20
  9
$SOLIDHIST
280
0
  9
$SHOWHIST
280
1
  9
$DWFFRAME
280
2
  9
$DGNFRAME
280
2
  9
$REALWORLDSCALE
290
1
  9
$INTERFERECOLOR
 62
256
  9
$CSHADOW
280
0
  9
$SHADOWPLANELOCATION
 40
0.0
  0
ENDSEC
  0
SECTION
  2
CLASSES
  0
CLASS
  1
ACDBDICTIONARYWDFLT
  2
AcDbDictionaryWithDefault
  3
ObjectDBX Classes
 90
0
 91
0
280
0
281
0
  0
CLASS
  1
SUN
  2
AcDbSun
  3
SCENEOE
 90
1153
 91
0
280
0
281
0
  0
CLASS
  1
VISUALSTYLE
  2
AcDbVisualStyle
  3
ObjectDBX Classes
 90
4095
 91
0
280
0
281
0
  0
CLASS
  1
MATERIAL
  2
AcDbMaterial
  3
ObjectDBX Classes
 90
1153
 91
0
280
0
281
0
  0
CLASS
  1
SCALE
  2
AcDbScale
  3
ObjectDBX Classes
 90
1153
 91
0
280
0
281
0
  0
CLASS
  1
TABLESTYLE
  2
AcDbTableStyle
  3
ObjectDBX Classes
 90
4095
 91
0
280
0
281
0
  0
CLASS
  1
MLEADERSTYLE
  2
AcDbMLeaderStyle
  3
ACDB_MLEADERSTYLE_CLASS
 90
4095
 91
0
280
0
281
0
  0
CLASS
  1
DICTIONARYVAR
  2
AcDbDictionaryVar
  3
ObjectDBX Classes
 90
0
 91
0
280
0
281
0
  0
CLASS
  1
CELLSTYLEMAP
  2
AcDbCellStyleMap
  3
ObjectDBX Classes
 90
1152
 91
0
280
0
281
0
  0
CLASS
  1
MENTALRAYRENDERSETTINGS
  2
AcDbMentalRayRenderSettings
  3
SCENEOE
 90
1024
 91
0
280
0
281
0
  0
CLASS
  1
ACDBDETAILVIEWSTYLE
  2
AcDbDetailViewStyle
  3
ObjectDBX Classes
 90
1025
 91
0
280
0
281
0
  0
CLASS
  1
ACDBSECTIONVIEWSTYLE
  2
AcDbSectionViewStyle
  3
ObjectDBX Classes
 90
1025
 91
0
280
0
281
0
  0
CLASS
  1
RASTERVARIABLES
  2
AcDbRasterVariables
  3
ISM
 90
0
 91
0
280
0
281
0
  0
CLASS
  1
ACDBPLACEHOLDER
  2
AcDbPlaceHolder
  3
ObjectDBX Classes
 90
0
 91
0
280
0
281
0
  0
CLASS
  1
LAYOUT
  2
AcDbLayout
  3
ObjectDBX Classes
 90
0
 91
0
280
0
281
0
  0
ENDSEC
  0
SECTION
  2
TABLES
  0
TABLE
  2
VPORT
  5
8
330
0
100
AcDbSymbolTable
 70
1
  0
VPORT
  5
23
330
8
100
AcDbSymbolTableRecord
100
AcDbViewportTableRecord
  2
*Active
 70
0
 10
0.0
 20
0.0
 11
1.0
 21
1.0
 12
0.0
 22
0.0
 13
0.0
 23
0.0
 14
0.5
 24
0.5
 15
0.5
 25
0.5
 16
0.0
 26
0.0
 36
1.0
 17
0.0
 27
0.0
 37
0.0
 40
1000.0
 41
1.34
 42
50.0
 43
0.0
 44
0.0
 50
0.0
 51
0.0
 71
0
 72
1000
 73
1
 74
3
 75
0
 76
0
 77
0
 78
0
281
0
 65
0
146
0.0
  0
ENDTAB
  0
TABLE
  2
LTYPE
  5
2
330
0
100
AcDbSymbolTable
 70
21
  0
LTYPE
  5
24
330
2
100
AcDbSymbolTableRecord
100
AcDbLinetypeTableRecord
  2
ByBlock
 70
0
  3

 72
65
 73
0
 40
0.0
  0
LTYPE
  5
25
330
2
100
AcDbSymbolTableRecord
100
AcDbLinetypeTableRecord
  2
ByLayer
 70
0
  3

 72
65
 73
0
 40
0.0
  0
LTYPE
  5
26
330
2
100
AcDbSymbolTableRecord
100
AcDbLinetypeTableRecord
  2
Continuous
 70
0
  3

 72
65
 73
0
 40
0.0
  0
LTYPE
  5
2F
330
2
100
AcDbSymbolTableRecord
100
AcDbLinetypeTableRecord
  2
CENTER
 70
0
  3
Center ____ _ ____ _ ____ _ ____ _ ____ _ ____
 72
65
 73
4
 40
5.08
 49
3.175
 74
0
 49
-0.635
 74
0
 49
0.635
 74
0
 49
-0.635
 74
0
  0
LTYPE
  5
30
330
2
100
AcDbSymbolTableRecord
100
AcDbLinetypeTableRecord
  2
CENTERX2
 70
0
  3
Center (2x) ________  __  ________  __  ________
 72
65
 73
4
 40
8.89
 49
6.35
 74
0
 49
-0.635
 74
0
 49
1.27
 74
0
 49
-0.635
 74
0
  0
LTYPE
  5
31
330
2
100
AcDbSymbolTableRecord
100
AcDbLinetypeTableRecord
  2
CENTER2
 70
0
  3
Center (.5x) ____ _ ____ _ ____ _ ____ _ ____
 72
65
 73
4
 40
2.54
 49
1.587
 74
0
 49
-0.318
 74
0
 49
0.318
 74
0
 49
-0.318
 74
0
  0
LTYPE
  5
32
330
2
100
AcDbSymbolTableRecord
100
AcDbLinetypeTableRecord
  2
DASHED
 70
0
  3
Dashed __ __ __ __ __ __ __ __ __ __ __ __ __ _
 72
65
 73
2
 40
1.524
 49
1.27
 74
0
 49
-0.254
 74
0
  0
LTYPE
  5
33
330
2
100
AcDbSymbolTableRecord
100
AcDbLinetypeTableRecord
  2
DASHEDX2
 70
0
  3
Dashed (2x) ____  ____  ____  ____  ____  ____
 72
65
 73
2
 40
3.048
 49
2.54
 74
0
 49
-0.508
 74
0
  0
LTYPE
  5
34
330
2
100
AcDbSymbolTableRecord
100
AcDbLinetypeTableRecord
  2
DASHED2
 70
0
  3
Dashed (.5x) _ _ _ _ _ _ _ _ _ _ _ _ _ _
 72
65
 73
2
 40
0.762
 49
0.635
 74
0
 49
-0.127
 74
0
  0
LTYPE
  5
35
330
2
100
AcDbSymbolTableRecord
100
AcDbLinetypeTableRecord
  2
PHANTOM
 70
0
  3
Phantom ______  __  __  ______  __  __  ______
 72
65
 73
6
 40
6.35
 49
3.175
 74
0
 49
-0.635
 74
0
 49
0.635
 74
0
 49
-0.635
 74
0
 49
0.635
 74
0
 49
-0.635
 74
0
  0
LTYPE
  5
36
330
2
100
AcDbSymbolTableRecord
100
AcDbLinetypeTableRecord
  2
PHANTOMX2
 70
0
  3
Phantom (2x)____________    ____    ____    ____________
 72
65
 73
6
 40
10.795
 49
6.35
 74
0
 49
-0.635
 74
0
 49
1.27
 74
0
 49
-0.635
 74
0
 49
1.27
 74
0
 49
-0.635
 74
0
  0
LTYPE
  5
37
330
2
100
AcDbSymbolTableRecord
100
AcDbLinetypeTableRecord
  2
PHANTOM2
 70
0
  3
Phantom (.5x) ___ _ _ ___ _ _ ___ _ _ ___ _ _ ___
 72
65
 73
6
 40
3.175
 49
1.587
 74
0
 49
-0.318
 74
0
 49
0.318
 74
0
 49
-0.318
 74
0
 49
0.318
 74
0
 49
-0.318
 74
0
  0
LTYPE
  5
38
330
2
100
AcDbSymbolTableRecord
100
AcDbLinetypeTableRecord
  2
DASHDOT
 70
0
  3
Dash dot __ . __ . __ . __ . __ . __ . __ . __
 72
65
 73
4
 40
3.556
 49
2.54
 74
0
 49
-0.508
 74
0
 49
0.0
 74
0
 49
-0.508
 74
0
  0
LTYPE
  5
39
330
2
100
AcDbSymbolTableRecord
100
AcDbLinetypeTableRecord
  2
DASHDOTX2
 70
0
  3
Dash dot (2x) ____  .  ____  .  ____  .  ____
 72
65
 73
4
 40
6.096
 49
5.08
 74
0
 49
-0.508
 74
0
 49
0.0
 74
0
 49
-0.508
 74
0
  0
LTYPE
  5
3A
330
2
100
AcDbSymbolTableRecord
100
AcDbLinetypeTableRecord
  2
DASHDOT2
 70
0
  3
Dash dot (.5x) _ . _ . _ . _ . _ . _ . _ . _
 72
65
 73
4
 40
1.778
 49
1.27
 74
0
 49
-0.254
 74
0
 49
0.0
 74
0
 49
-0.254
 74
0
  0
LTYPE
  5
3B
330
2
100
AcDbSymbolTableRecord
100
AcDbLinetypeTableRecord
  2
DOT
 70
0
  3
Dot .  .  .  .  .  .  .  .  .  .  .  .  .  .  .  .
 72
65
 73
2
 40
0.508
 49
0.0
 74
0
 49
-0.508
 74
0
  0
LTYPE
  5
3C
330
2
100
AcDbSymbolTableRecord
100
AcDbLinetypeTableRecord
  2
DOTX2
 70
0
  3
Dot (2x) .    .    .    .    .    .    .    . 
 72
65
 73
2
 40
1.016
 49
0.0
 74
0
 49
-1.016
 74
0
  0
LTYPE
  5
3D
330
2
100
AcDbSymbolTableRecord
100
AcDbLinetypeTableRecord
  2
DOT2
 70
0
  3
Dot (.5) . . . . . . . . . . . . . . . . . . . 
 72
65
 73
2
 40
0.254
 49
0.0
 74
0
 49
-0.254
 74
0
  0
LTYPE
  5
3E
330
2
100
AcDbSymbolTableRecord
100
AcDbLinetypeTableRecord
  2
DIVIDE
 70
0
  3
Divide __ . . __ . . __ . . __ . . __ . . __
 72
65
 73
6
 40
4.064
 49
2.54
 74
0
 49
-0.508
 74
0
 49
0.0
 74
0
 49
-0.508
 74
0
 49
0.0
 74
0
 49
-0.508
 74
0
  0
LTYPE
  5
3F
330
2
100
AcDbSymbolTableRecord
100
AcDbLinetypeTableRecord
  2
DIVIDEX2
 70
0
  3
Divide (2x) ____  . .  ____  . .  ____  . .  ____
 72
65
 73
6
 40
6.604
 49
5.08
 74
0
 49
-0.508
 74
0
 49
0.0
 74
0
 49
-0.508
 74
0
 49
0.0
 74
0
 49
-0.508
 74
0
  0
LTYPE
  5
40
330
2
100
AcDbSymbolTableRecord
100
AcDbLinetypeTableRecord
  2
DIVIDE2
 70
0
  3
Divide(.5x) _ . _ . _ . _ . _ . _ . _ . _
 72
65
 73
6
 40
2.032
 49
1.27
 74
0
 49
-0.254
 74
0
 49
0.0
 74
0
 49
-0.254
 74
0
 49
0.0
 74
0
 49
-0.254
 74
0
  0
ENDTAB
  0
TABLE
  2
LAYER
  5
1
330
0
100
AcDbSymbolTable
 70
4
  0
LAYER
  5
27
330
1
100
AcDbSymbolTableRecord
100
AcDbLayerTableRecord
  2
0
 70
0
 62
7
  6
Continuous
370
-3
390
13
347
21
  0
LAYER
  5
28
330
1
100
AcDbSymbolTableRecord
100
AcDbLayerTableRecord
  2
Defpoints
 70
0
 62
7
  6
Continuous
290
0
370
-3
390
13
347
21
  0
LAYER
  5
8A
330
1
100
AcDbSymbolTableRecord
100
AcDbLayerTableRecord
  2
Layer
 70
0
 62
1
  6
Continuous
370
50
390
13
347
21
  0
LAYER
  5
8B
330
1
100
AcDbSymbolTableRecord
100
AcDbLayerTableRecord
  2
NumLabel
 70
0
 62
1
  6
Continuous
370
15
390
13
347
21
  0
ENDTAB
  0
TABLE
  2
STYLE
  5
5
330
0
100
AcDbSymbolTable
 70
26
  0
STYLE
  5
29
330
5
100
AcDbSymbolTableRecord
100
AcDbTextStyleTableRecord
  2
Standard
 70
0
 40
0.0
 41
1.0
 50
0.0
 71
0
 42
2.5
  3
txt
  4

  0
STYLE
  5
41
330
5
100
AcDbSymbolTableRecord
100
AcDbTextStyleTableRecord
  2
OpenSans-Light
 70
0
 40
0.0
 41
1.0
 50
0.0
 71
0
 42
2.5
  3
OpenSans-Light.ttf
  4

  0
STYLE
  5
42
330
5
100
AcDbSymbolTableRecord
100
AcDbTextStyleTableRecord
  2
OpenSans-Light-Italic
 70
0
 40
0.0
 41
1.0
 50
0.0
 71
0
 42
2.5
  3
OpenSans-LightItalic.ttf
  4

  0
STYLE
  5
43
330
5
100
AcDbSymbolTableRecord
100
AcDbTextStyleTableRecord
  2
OpenSans
 70
0
 40
0.0
 41
1.0
 50
0.0
 71
0
 42
2.5
  3
OpenSans-Regular.ttf
  4

  0
STYLE
  5
44
330
5
100
AcDbSymbolTableRecord
100
AcDbTextStyleTableRecord
  2
OpenSans-Italic
 70
0
 40
0.0
 41
1.0
 50
0.0
 71
0
 42
2.5
  3
OpenSans-Italic.ttf
  4

  0
STYLE
  5
45
330
5
100
AcDbSymbolTableRecord
100
AcDbTextStyleTableRecord
  2
OpenSans-SemiBold
 70
0
 40
0.0
 41
1.0
 50
0.0
 71
0
 42
2.5
  3
OpenSans-SemiBold.ttf
  4

  0
STYLE
  5
46
330
5
100
AcDbSymbolTableRecord
100
AcDbTextStyleTableRecord
  2
OpenSans-SemiBoldItalic
 70
0
 40
0.0
 41
1.0
 50
0.0
 71
0
 42
2.5
  3
OpenSans-SemiBoldItalic.ttf
  4

  0
STYLE
  5
47
330
5
100
AcDbSymbolTableRecord
100
AcDbTextStyleTableRecord
  2
OpenSans-Bold
 70
0
 40
0.0
 41
1.0
 50
0.0
 71
0
 42
2.5
  3
OpenSans-Bold.ttf
  4

  0
STYLE
  5
48
330
5
100
AcDbSymbolTableRecord
100
AcDbTextStyleTableRecord
  2
OpenSans-BoldItalic
 70
0
 40
0.0
 41
1.0
 50
0.0
 71
0
 42
2.5
  3
OpenSans-BoldItalic.ttf
  4

  0
STYLE
  5
49
330
5
100
AcDbSymbolTableRecord
100
AcDbTextStyleTableRecord
  2
OpenSans-ExtraBold
 70
0
 40
0.0
 41
1.0
 50
0.0
 71
0
 42
2.5
  3
OpenSans-ExtraBold.ttf
  4

  0
STYLE
  5
4A
330
5
100
AcDbSymbolTableRecord
100
AcDbTextStyleTableRecord
  2
OpenSans-ExtraBoldItalic
 70
0
 40
0.0
 41
1.0
 50
0.0
 71
0
 42
2.5
  3
OpenSans-ExtraBoldItalic.ttf
  4

  0
STYLE
  5
4B
330
5
100
AcDbSymbolTableRecord
100
AcDbTextStyleTableRecord
  2
OpenSansCondensed-Bold
 70
0
 40
0.0
 41
1.0
 50
0.0
 71
0
 42
2.5
  3
OpenSansCondensed-Bold.ttf
  4

  0
STYLE
  5
4C
330
5
100
AcDbSymbolTableRecord
100
AcDbTextStyleTableRecord
  2
OpenSansCondensed-Light
 70
0
 40
0.0
 41
1.0
 50
0.0
 71
0
 42
2.5
  3
OpenSansCondensed-Light.ttf
  4

  0
STYLE
  5
4D
330
5
100
AcDbSymbolTableRecord
100
AcDbTextStyleTableRecord
  2
OpenSansCondensed-Italic
 70
0
 40
0.0
 41
1.0
 50
0.0
 71
0
 42
2.5
  3
OpenSansCondensed-LightItalic.ttf
  4

  0
STYLE
  5
4E
330
5
100
AcDbSymbolTableRecord
100
AcDbTextStyleTableRecord
  2
LiberationSans
 70
0
 40
0.0
 41
1.0
 50
0.0
 71
0
 42
2.5
  3
LiberationSans-Regular.ttf
  4

  0
STYLE
  5
4F
330
5
100
AcDbSymbolTableRecord
100
AcDbTextStyleTableRecord
  2
LiberationSans-Bold
 70
0
 40
0.0
 41
1.0
 50
0.0
 71
0
 42
2.5
  3
LiberationSans-Bold.ttf
  4

  0
STYLE
  5
50
330
5
100
AcDbSymbolTableRecord
100
AcDbTextStyleTableRecord
  2
LiberationSans-BoldItalic
 70
0
 40
0.0
 41
1.0
 50
0.0
 71
0
 42
2.5
  3
LiberationSans-BoldItalic.ttf
  4

  0
STYLE
  5
51
330
5
100
AcDbSymbolTableRecord
100
AcDbTextStyleTableRecord
  2
LiberationSans-Italic
 70
0
 40
0.0
 41
1.0
 50
0.0
 71
0
 42
2.5
  3
LiberationSans-Italic.ttf
  4

  0
STYLE
  5
52
330
5
100
AcDbSymbolTableRecord
100
AcDbTextStyleTableRecord
  2
LiberationSerif
 70
0
 40
0.0
 41
1.0
 50
0.0
 71
0
 42
2.5
  3
LiberationSerif-Regular.ttf
  4

  0
STYLE
  5
53
330
5
100
AcDbSymbolTableRecord
100
AcDbTextStyleTableRecord
  2
LiberationSerif-Bold
 70
0
 40
0.0
 41
1.0
 50
0.0
 71
0
 42
2.5
  3
LiberationSerif-Bold.ttf
  4

  0
STYLE
  5
54
330
5
100
AcDbSymbolTableRecord
100
AcDbTextStyleTableRecord
  2
LiberationSerif-BoldItalic
 70
0
 40
0.0
 41
1.0
 50
0.0
 71
0
 42
2.5
  3
LiberationSerif-BoldItalic.ttf
  4

  0
STYLE
  5
55
330
5
100
AcDbSymbolTableRecord
100
AcDbTextStyleTableRecord
  2
LiberationSerif-Italic
 70
0
 40
0.0
 41
1.0
 50
0.0
 71
0
 42
2.5
  3
LiberationSerif-Italic.ttf
  4

  0
STYLE
  5
56
330
5
100
AcDbSymbolTableRecord
100
AcDbTextStyleTableRecord
  2
LiberationMono
 70
0
 40
0.0
 41
1.0
 50
0.0
 71
0
 42
2.5
  3
LiberationMono-Regular.ttf
  4

  0
STYLE
  5
57
330
5
100
AcDbSymbolTableRecord
100
AcDbTextStyleTableRecord
  2
LiberationMono-Bold
 70
0
 40
0.0
 41
1.0
 50
0.0
 71
0
 42
2.5
  3
LiberationMono-Bold.ttf
  4

  0
STYLE
  5
58
330
5
100
AcDbSymbolTableRecord
100
AcDbTextStyleTableRecord
  2
LiberationMono-BoldItalic
 70
0
 40
0.0
 41
1.0
 50
0.0
 71
0
 42
2.5
  3
LiberationMono-BoldItalic.ttf
  4

  0
STYLE
  5
59
330
5
100
AcDbSymbolTableRecord
100
AcDbTextStyleTableRecord
  2
LiberationMono-Italic
 70
0
 40
0.0
 41
1.0
 50
0.0
 71
0
 42
2.5
  3
LiberationMono-Italic.ttf
  4

  0
ENDTAB
  0
TABLE
  2
VIEW
  5
7
330
0
100
AcDbSymbolTable
 70
0
  0
ENDTAB
  0
TABLE
  2
UCS
  5
6
330
0
100
AcDbSymbolTable
 70
0
  0
ENDTAB
  0
TABLE
  2
APPID
  5
3
330
0
100
AcDbSymbolTable
 70
3
  0
APPID
  5
2A
330
3
100
AcDbSymbolTableRecord
100
AcDbRegAppTableRecord
  2
ACAD
 70
0
  0
APPID
  5
AB
330
3
100
AcDbSymbolTableRecord
100
AcDbRegAppTableRecord
  2
HATCHBACKGROUNDCOLOR
 70
0
  0
APPID
  5
AC
330
3
100
AcDbSymbolTableRecord
100
AcDbRegAppTableRecord
  2
EZDXF
 70
0
  0
ENDTAB
  0
TABLE
  2
DIMSTYLE
  5
4
330
0
100
AcDbSymbolTable
 70
12
100
AcDbDimStyleTable
  0
DIMSTYLE
105
2B
330
4
100
AcDbSymbolTableRecord
100
AcDbDimStyleTableRecord
  2
Standard
 70
0
 40
1.0
 41
2.5
 42
0.625
 43
3.75
 44
1.25
 45
0.0
 46
0.0
 47
0.0
 48
0.0
 49
2.5
140
2.5
141
2.5
142
0.0
143
0.03937007874
144
1.0
145
0.0
146
1.0
147
0.625
148
0.0
 69
0
 70
0
 71
0
 72
0
 73
0
 74
0
 75
0
 76
0
 77
1
 78
8
 79
3
170
0
171
3
172
1
173
0
174
0
175
0
176
0
177
0
178
0
179
2
271
2
272
2
273
2
274
3
275
0
276
0
277
2
278
44
279
0
280
0
281
0
282
0
283
0
284
8
285
0
286
0
288
0
289
3
290
0
371
-2
372
-2
  0
DIMSTYLE
105
73
330
4
100
AcDbSymbolTableRecord
100
AcDbDimStyleTableRecord
  2
EZDXF
 70
0
 40
1.0
 41
0.175
 42
0.125
 43
3.75
 44
0.375
 45
0.0
 46
0.0
 47
0.0
 48
0.0
 49
2.5
140
0.25
141
2.5
142
0.0
143
0.03937007874
144
100.0
145
0.0
146
0.5
147
0.1
148
0.0
 69
0
 70
0
 71
0
 72
0
 73
0
 74
0
 75
0
 76
0
 77
1
 78
12
 79
3
170
0
171
3
172
1
173
0
174
0
175
0
176
0
177
0
178
0
179
2
271
2
272
2
273
2
274
3
275
0
276
0
277
2
278
46
279
2
280
0
281
0
282
0
283
0
284
8
285
0
286
0
288
1
289
3
290
0
340
4C
342
74
371
-2
372
-2
  0
DIMSTYLE
105
7C
330
4
100
AcDbSymbolTableRecord
100
AcDbDimStyleTableRecord
  2
EZ_M_100_H25_CM
 70
0
 40
1.0
 41
0.25
 42
0.125
 43
3.75
 44
0.375
 45
0.0
 46
0.0
 47
0.0
 48
0.0
 49
2.5
140
0.25
141
2.5
142
0.125
143
0.03937007874
144
100.0
145
0.0
146
0.5
147
0.1
148
0.0
 69
0
 70
0
 71
0
 72
0
 73
0
 74
0
 75
0
 76
0
 77
1
 78
12
 79
3
170
0
171
3
172
1
173
0
174
0
175
0
176
0
177
0
178
0
179
2
271
2
272
2
273
2
274
3
275
0
276
0
277
2
278
46
279
2
280
0
281
0
282
0
283
0
284
8
285
0
286
0
288
1
289
3
290
0
340
4C
371
-2
372
-2
  0
DIMSTYLE
105
7D
330
4
100
AcDbSymbolTableRecord
100
AcDbDimStyleTableRecord
  2
EZ_M_50_H25_CM
 70
0
 40
1.0
 41
0.125
 42
0.0625
 43
3.75
 44
0.1875
 45
0.0
 46
0.0
 47
0.0
 48
0.0
 49
2.5
140
0.125
141
2.5
142
0.0625
143
0.03937007874
144
100.0
145
0.0
146
0.5
147
0.05
148
0.0
 69
0
 70
0
 71
0
 72
0
 73
0
 74
0
 75
0
 76
0
 77
1
 78
12
 79
3
170
0
171
3
172
1
173
0
174
0
175
0
176
0
177
0
178
0
179
2
271
2
272
2
273
2
274
3
275
0
276
0
277
2
278
46
279
2
280
0
281
0
282
0
283
0
284
8
285
0
286
0
288
1
289
3
290
0
340
4C
371
-2
372
-2
  0
DIMSTYLE
105
7E
330
4
100
AcDbSymbolTableRecord
100
AcDbDimStyleTableRecord
  2
EZ_M_25_H25_CM
 70
0
 40
1.0
 41
0.0625
 42
0.03125
 43
3.75
 44
0.09375
 45
0.0
 46
0.0
 47
0.0
 48
0.0
 49
2.5
140
0.0625
141
2.5
142
0.03125
143
0.03937007874
144
100.0
145
0.0
146
0.5
147
0.025
148
0.0
 69
0
 70
0
 71
0
 72
0
 73
0
 74
0
 75
0
 76
0
 77
1
 78
12
 79
3
170
0
171
3
172
1
173
0
174
0
175
0
176
0
177
0
178
0
179
2
271
2
272
2
273
2
274
3
275
0
276
0
277
2
278
46
279
2
280
0
281
0
282
0
283
0
284
8
285
0
286
0
288
1
289
3
290
0
340
4C
371
-2
372
-2
  0
DIMSTYLE
105
7F
330
4
100
AcDbSymbolTableRecord
100
AcDbDimStyleTableRecord
  2
EZ_M_20_H25_CM
 70
0
 40
1.0
 41
0.05
 42
0.025
 43
3.75
 44
0.07500000000000001
 45
0.0
 46
0.0
 47
0.0
 48
0.0
 49
2.5
140
0.05
141
2.5
142
0.025
143
0.03937007874
144
100.0
145
0.0
146
0.5
147
0.020000000000000004
148
0.0
 69
0
 70
0
 71
0
 72
0
 73
0
 74
0
 75
0
 76
0
 77
1
 78
12
 79
3
170
0
171
3
172
1
173
0
174
0
175
0
176
0
177
0
178
0
179
2
271
2
272
2
273
2
274
3
275
0
276
0
277
2
278
46
279
2
280
0
281
0
282
0
283
0
284
8
285
0
286
0
288
1
289
3
290
0
340
4C
371
-2
372
-2
  0
DIMSTYLE
105
80
330
4
100
AcDbSymbolTableRecord
100
AcDbDimStyleTableRecord
  2
EZ_M_10_H25_CM
 70
0
 40
1.0
 41
0.025
 42
0.0125
 43
3.75
 44
0.037500000000000006
 45
0.0
 46
0.0
 47
0.0
 48
0.0
 49
2.5
140
0.025
141
2.5
142
0.0125
143
0.03937007874
144
100.0
145
0.0
146
0.5
147
0.010000000000000002
148
0.0
 69
0
 70
0
 71
0
 72
0
 73
0
 74
0
 75
0
 76
0
 77
1
 78
12
 79
3
170
0
171
3
172
1
173
0
174
0
175
0
176
0
177
0
178
0
179
2
271
2
272
2
273
2
274
3
275
0
276
0
277
2
278
46
279
2
280
0
281
0
282
0
283
0
284
8
285
0
286
0
288
1
289
3
290
0
340
4C
371
-2
372
-2
  0
DIMSTYLE
105
81
330
4
100
AcDbSymbolTableRecord
100
AcDbDimStyleTableRecord
  2
EZ_M_5_H25_CM
 70
0
 40
1.0
 41
0.0125
 42
0.00625
 43
3.75
 44
0.018750000000000003
 45
0.0
 46
0.0
 47
0.0
 48
0.0
 49
2.5
140
0.0125
141
2.5
142
0.00625
143
0.03937007874
144
100.0
145
0.0
146
0.5
147
0.005000000000000001
148
0.0
 69
0
 70
0
 71
0
 72
0
 73
0
 74
0
 75
0
 76
0
 77
1
 78
12
 79
3
170
0
171
3
172
1
173
0
174
0
175
0
176
0
177
0
178
0
179
2
271
2
272
2
273
2
274
3
275
0
276
0
277
2
278
46
279
2
280
0
281
0
282
0
283
0
284
8
285
0
286
0
288
1
289
3
290
0
340
4C
371
-2
372
-2
  0
DIMSTYLE
105
82
330
4
100
AcDbSymbolTableRecord
100
AcDbDimStyleTableRecord
  2
EZ_M_1_H25_CM
 70
0
 40
1.0
 41
0.0025
 42
0.00125
 43
3.75
 44
0.00375
 45
0.0
 46
0.0
 47
0.0
 48
0.0
 49
2.5
140
0.0025
141
2.5
142
0.00125
143
0.03937007874
144
100.0
145
0.0
146
0.5
147
0.001
148
0.0
 69
0
 70
0
 71
0
 72
0
 73
0
 74
0
 75
0
 76
0
 77
1
 78
12
 79
3
170
0
171
3
172
1
173
0
174
0
175
0
176
0
177
0
178
0
179
2
271
2
272
2
273
2
274
3
275
0
276
0
277
2
278
46
279
2
280
0
281
0
282
0
283
0
284
8
285
0
286
0
288
1
289
3
290
0
340
4C
371
-2
372
-2
  0
DIMSTYLE
105
83
330
4
100
AcDbSymbolTableRecord
100
AcDbDimStyleTableRecord
  2
EZ_RADIUS
 70
0
 40
1.0
 41
0.25
 42
0.125
 43
3.75
 44
0.375
 45
0.0
 46
0.0
 47
0.0
 48
0.0
 49
2.5
140
0.25
141
0.0
142
0.0
143
0.03937007874
144
100.0
145
0.0
146
0.5
147
0.1
148
0.0
 69
0
 70
0
 71
0
 72
0
 73
0
 74
0
 75
0
 76
0
 77
1
 78
12
 79
3
170
0
171
3
172
0
173
0
174
0
175
0
176
0
177
0
178
0
179
2
271
2
272
2
273
2
274
3
275
0
276
0
277
2
278
46
279
1
280
0
281
0
282
0
283
0
284
8
285
0
286
0
288
1
289
3
290
0
340
4C
342
84
371
-2
372
-2
  0
DIMSTYLE
105
88
330
4
100
AcDbSymbolTableRecord
100
AcDbDimStyleTableRecord
  2
EZ_RADIUS_INSIDE
 70
0
 40
1.0
 41
0.25
 42
0.125
 43
3.75
 44
0.375
 45
0.0
 46
0.0
 47
0.0
 48
0.0
 49
2.5
140
0.25
141
0.0
142
0.0
143
0.03937007874
144
100.0
145
0.0
146
0.5
147
0.1
148
0.0
 69
0
 70
0
 71
0
 72
0
 73
0
 74
0
 75
0
 76
0
 77
0
 78
12
 79
3
170
0
171
3
172
0
173
0
174
1
175
0
176
0
177
0
178
0
179
2
271
2
272
2
273
2
274
3
275
0
276
0
277
2
278
46
279
0
280
0
281
0
282
0
283
0
284
8
285
0
286
0
288
1
289
0
290
0
340
4C
342
84
371
-2
372
-2
  0
DIMSTYLE
105
89
330
4
100
AcDbSymbolTableRecord
100
AcDbDimStyleTableRecord
  2
EZ_CURVED
 70
0
 40
1.0
 41
0.25
 42
0.125
 43
3.75
 44
0.375
 45
0.0
 46
0.0
 47
0.0
 48
0.0
 49
2.5
140
0.25
141
2.5
142
0.0
143
0.03937007874
144
100.0
145
0.0
146
0.5
147
0.1
148
0.0
 69
0
 70
0
 71
0
 72
0
 73
0
 74
0
 75
0
 76
0
 77
1
 78
12
 79
2
 90
2
170
0
171
3
172
1
173
0
174
0
175
0
176
0
177
0
178
0
179
2
271
2
272
2
273
2
274
3
275
0
276
0
277
2
278
46
279
2
280
0
281
0
282
0
283
0
284
8
285
0
286
0
288
1
289
3
290
0
340
4C
371
-2
372
-2
  0
ENDTAB
  0
TABLE
  2
BLOCK_RECORD
  5
9
330
0
100
AcDbSymbolTable
 70
5
  0
BLOCK_RECORD
  5
17
330
9
100
AcDbSymbolTableRecord
100
AcDbBlockTableRecord
  2
*Model_Space
340
1A
 70
0
280
1
281
0
  0
BLOCK_RECORD
  5
1B
330
9
100
AcDbSymbolTableRecord
100
AcDbBlockTableRecord
  2
*Paper_Space
340
1E
 70
0
280
1
281
0
  0
BLOCK_RECORD
  5
74
330
9
100
AcDbSymbolTableRecord
100
AcDbBlockTableRecord
  2
_ARCHTICK
340
0
 70
0
280
1
281
0
  0
BLOCK_RECORD
  5
78
330
9
100
AcDbSymbolTableRecord
100
AcDbBlockTableRecord
  2
_CLOSEDFILLED
340
0
 70
0
280
1
281
0
  0
BLOCK_RECORD
  5
84
330
9
100
AcDbSymbolTableRecord
100
AcDbBlockTableRecord
  2
_CLOSEDBLANK
340
0
 70
0
280
1
281
0
  0
ENDTAB
  0
ENDSEC
  0
SECTION
  2
BLOCKS
  0
BLOCK
  5
18
330
17
100
AcDbEntity
  8
0
100
AcDbBlockBegin
  2
*Model_Space
 70
0
 10
0.0
 20
0.0
 30
0.0
  3
*Model_Space
  1

  0
ENDBLK
  5
19
330
17
100
AcDbEntity
  8
0
100
AcDbBlockEnd
  0
BLOCK
  5
1C
330
1B
100
AcDbEntity
  8
0
100
AcDbBlockBegin
  2
*Paper_Space
 70
0
 10
0.0
 20
0.0
 30
0.0
  3
*Paper_Space
  1

  0
ENDBLK
  5
1D
330
1B
100
AcDbEntity
  8
0
100
AcDbBlockEnd
  0
BLOCK
  5
75
330
74
100
AcDbEntity
  8
0
100
AcDbBlockBegin
  2
_ARCHTICK
 70
0
 10
0.0
 20
0.0
 30
0.0
  3
_ARCHTICK
  1

  0
LWPOLYLINE
  5
77
330
74
100
AcDbEntity
  8
0
  6
BYBLOCK
 62
0
100
AcDbPolyline
 90
2
 70
0
 43
0.15
 10
-0.5
 20
-0.5
 10
0.5
 20
0.5
  0
ENDBLK
  5
76
330
74
100
AcDbEntity
  8
0
100
AcDbBlockEnd
  0
BLOCK
  5
79
330
78
100
AcDbEntity
  8
0
100
AcDbBlockBegin
  2
_CLOSEDFILLED
 70
0
 10
0.0
 20
0.0
 30
0.0
  3
_CLOSEDFILLED
  1

  0
SOLID
  5
7B
330
78
100
AcDbEntity
  8
0
  6
BYBLOCK
 62
0
100
AcDbTrace
 10
-1.0
 20
0.16439898372402537
 30
0.0
 11
0.0
 21
0.0
 31
0.0
 12
-1.0
 22
-0.16439898372402537
 32
0.0
 13
-1.0
 23
-0.16439898372402537
 33
0.0
  0
ENDBLK
  5
7A
330
78
100
AcDbEntity
  8
0
100
AcDbBlockEnd
  0
BLOCK
  5
85
330
84
100
AcDbEntity
  8
0
100
AcDbBlockBegin
  2
_CLOSEDBLANK
 70
0
 10
0.0
 20
0.0
 30
0.0
  3
_CLOSEDBLANK
  1

  0
LWPOLYLINE
  5
87
330
84
100
AcDbEntity
  8
0
  6
BYBLOCK
 62
0
100
AcDbPolyline
 90
3
 70
1
 10
-1.0
 20
0.16439898372402537
 10
0.0
 20
0.0
 10
-1.0
 20
-0.16439898372402537
  0
ENDBLK
  5
86
330
84
100
AcDbEntity
  8
0
100
AcDbBlockEnd
  0
ENDSEC
  0
SECTION
  2
ENTITIES
  0
LWPOLYLINE
  5
8C
330
17
100
AcDbEntity
  8
Layer
100
AcDbPolyline
 90
143
 70
1
 10
542.3495145605216
 20
262.73632826048174
 10
536.9862534263807
 20
263.53192499472544
 10
525.6005109668323
 20
265.1108658593863
 10
514.2035103289612
 20
266.59134273215034
 10
502.8089634053551
 20
267.97365676754134
 10
491.42483932703107
 20
269.2514718815661
 10
480.0523934354485
 20
270.4193084805466
 10
468.6908796903531
 20
271.4763459660285
 10
457.3401964913095
 20
272.42522151573826
 10
446.00358138441686
 20
273.27179929710167
 10
434.6917904138166
 20
274.0215928013031
 10
423.41970544207794
 20
274.6734285665854
 10
412.1945411597598
 20
275.2182246208652
 10
401.0121970532882
 20
275.6497269036564
 10
389.86751875006365
 20
275.9723470780289
 10
378.7648416860818
 20
276.19670319234643
 10
367.717060536257
 20
276.3307631934083
 10
356.74088496256724
 20
276.37604802326035
 10
345.8528079294664
 20
276.3259512475677
 10
335.05894736252594
 20
276.1671076790557
 10
324.3499329190598
 20
275.8896269530379
 10
313.7119191580373
 20
275.5005976645548
 10
303.1489165353478
 20
275.0210095962095
 10
292.6874201004533
 20
274.4659152747203
 10
282.35732124149183
 20
273.8288156962652
 10
272.17085504821614
 20
273.089160425926
 10
262.11882386519505
 20
272.23099160775826
 10
252.183542934153
 20
271.25586914908433
 10
242.3576620629367
 20
270.184331807659
 10
232.6601082725696
 20
269.0438814877788
 10
223.13146846474817
 20
267.8457015632538
 10
213.80536531294317
 20
266.57189611900714
 10
204.6793576940516
 20
265.19134928156365
 10
195.7205706155449
 20
263.694959414481
 10
186.90790606719028
 20
262.11241518944934
 10
178.26405423544279
 20
260.4859511424048
 10
169.83734381141235
 20
258.82890553430485
 10
161.65477716669068
 20
257.11856968091354
 10
153.7046423733717
 20
255.32876430889823
 10
145.9599883022513
 20
253.45686757982804
 10
138.4063783629888
 20
251.521059893873
 10
131.0467915521926
 20
249.54219174711181
 10
123.89499092102687
 20
247.53306943370012
 10
116.9653948930412
 20
245.4959067925575
 10
110.26636889563986
 20
243.42374153021174
 10
103.79442962329733
 20
241.304996034365
 10
97.53679817666108
 20
239.13304641611856
 10
91.4799823013762
 20
236.91111956987464
 10
85.61843914214336
 20
234.65085874048566
 10
79.95717745568322
 20
232.3638590243612
 10
74.50462143942786
 20
230.05435929607535
 10
69.2635446413151
 20
227.7195024923189
 10
64.23015674521884
 20
225.3579710522031
 10
59.4026564014506
 20
222.97656983598938
 10
54.7871649499163
 20
220.5840317684224
 10
50.390237664863434
 20
218.1812162466776
 10
46.210145077829736
 20
215.7634722767667
 10
42.24109065659138
 20
213.33115763284775
 10
38.483185759393166
 20
210.8910002470991
 10
34.942743433774865
 20
208.44977638105843
 10
31.62554248896214
 20
206.0093916786442
 10
28.535491715125943
 20
203.57179846853705
 10
25.67502417762904
 20
201.13788699611192
 10
23.038384429240125
 20
198.70244953675282
 10
20.61053308722586
 20
196.2640192359503
 10
18.3837113148291
 20
193.84270885155345
 10
16.376242164618816
 20
191.47535059432622
 10
14.619524341384874
 20
189.17838997393116
 10
13.125674390902645
 20
186.9289507889664
 10
11.878660851786492
 20
184.6934971955165
 10
10.856298342090952
 20
182.46993714791475
 10
10.050140850041032
 20
180.28723138635405
 10
9.463696753547936
 20
178.1608454011923
 10
9.1008338063873
 20
176.09082100358341
 10
8.959158857287491
 20
173.9123605765616
 10
9.042548827238932
 20
172.15717415390736
 10
9.357627608662426
 20
170.319358090671
 10
9.930922600929193
 20
168.54139079685552
 10
10.786984813111815
 20
166.7860386453231
 10
11.926503297215504
 20
165.0409290673437
 10
13.331190439376769
 20
163.3211826448151
 10
14.996729930211018
 20
161.6466579427567
 10
16.94311438905231
 20
160.02388564846507
 10
19.190161831380237
 20
158.44800241339266
 10
21.73629167736067
 20
156.91511556521056
 10
24.57166932448206
 20
155.4293854189297
 10
27.698722859640554
 20
153.9964798279682
 10
31.128976870670783
 20
152.61406243165723
 10
34.86506839714724
 20
151.27289298025298
 10
38.8986399398201
 20
149.96583693004925
 10
43.2201670981658
 20
148.69176255922574
 10
47.824418790456775
 20
147.45253947832785
 10
52.70832606325797
 20
146.2499877648883
 10
57.87122578933207
 20
145.08601387874887
 10
63.315939440839884
 20
143.96069022442074
 10
69.04309900360767
 20
142.87079165610115
 10
75.04827617345802
 20
141.81513328844466
 10
81.3294619996878
 20
140.79799075018104
 10
87.8943365421448
 20
139.82397177617605
 10
94.75222380338045
 20
138.8904271552581
 10
101.90535837118625
 20
137.99135580989474
 10
109.35210877457092
 20
137.12537339917083
 10
117.09706671069387
 20
136.29482259505073
 10
125.1481614572582
 20
135.49864930845385
 10
133.5085304274795
 20
134.73180322455474
 10
142.175683330344
 20
133.99184446934123
 10
151.14835363561417
 20
133.28093041082002
 10
160.4262059404409
 20
132.60017983382545
 10
170.00423081911418
 20
131.9483480871664
 10
179.87208616982363
 20
131.32608833898158
 10
190.0187981092219
 20
130.73604954209293
 10
200.43388823628908
 20
130.17882743808087
 10
211.1025496368646
 20
129.65228018893868
 10
217.92224875429196
 20
129.34206197561284
 10
217.87680719900717
 20
128.34309497663173
 10
221.9651911040052
 20
128.15711679916228
 10
233.0941654245046
 20
127.6927400315495
 10
244.4313658989094
 20
127.2590219809009
 10
255.961639741376
 20
126.8549896937732
 10
267.67282242847966
 20
126.48343976931515
 10
279.5593491153945
 20
126.14620029385763
 10
291.6134448873762
 20
125.84053760498222
 10
303.8181426050571
 20
125.56333385448698
 10
316.1582592022167
 20
125.31745727739394
 10
328.63279232913726
 20
125.10643026681092
 10
341.24927186028617
 20
124.92684931763495
 10
354.009278270889
 20
124.76729752725538
 10
366.8998950923712
 20
124.61380532737824
 10
379.8967255085387
 20
124.4578501452594
 10
392.9748520170447
 20
124.3037267872556
 10
406.1209297476052
 20
124.16623477456207
 10
419.3442637240315
 20
124.05461605641236
 10
432.65791746167037
 20
123.9582789091105
 10
446.0529808093411
 20
123.85722951146636
 10
459.5002656555489
 20
123.74572035146686
 10
472.9800640225101
 20
123.63742108124661
 10
486.49193935121417
 20
123.54382585730522
 10
500.0363403785327
 20
123.4596592649921
 10
513.5986047741713
 20
123.37672898776857
 10
527.162632610451
 20
123.3015549340657
 10
540.7310787267937
 20
123.24535712201087
 10
542.3495145601596
 20
123.24016507487181
 10
542.3495145605216
 20
262.73632826048174
  0
LWPOLYLINE
  5
8D
330
17
100
AcDbEntity
  8
NumLabel
 62
1
100
AcDbPolyline
 90
2
 70
0
 10
310.61572815533987
 20
156.76504854368932
 10
310.61572815533987
 20
146.76504854368932
  0
LWPOLYLINE
  5
8E
330
17
100
AcDbEntity
  8
NumLabel
 62
1
100
AcDbPolyline
 90
4
 70
0
 10
317.61572815533987
 20
156.76504854368932
 10
315.61572815533987
 20
156.76504854368932
 10
315.61572815533987
 20
146.76504854368932
 10
317.61572815533987
 20
146.76504854368932
  0
LWPOLYLINE
  5
8F
330
17
100
AcDbEntity
  8
NumLabel
 62
1
100
AcDbPolyline
 90
4
 70
0
 10
318.61572815533987
 20
146.76504854368932
 10
320.61572815533987
 20
146.76504854368932
 10
320.61572815533987
 20
156.76504854368932
 10
318.61572815533987
 20
156.76504854368932
  0
LWPOLYLINE
  5
90
330
17
100
AcDbEntity
  8
NumLabel
 62
1
100
AcDbPolyline
 90
2
 70
0
 10
315.61572815533987
 20
151.76504854368932
 10
317.61572815533987
 20
151.76504854368932
  0
LWPOLYLINE
  5
91
330
17
100
AcDbEntity
  8
NumLabel
 62
1
100
AcDbPolyline
 90
2
 70
0
 10
318.61572815533987
 20
151.76504854368932
 10
320.61572815533987
 20
151.76504854368932
  0
LWPOLYLINE
  5
92
330
17
100
AcDbEntity
  8
Layer
100
AcDbPolyline
 90
5
 70
1
 10
304.47368551368146
 20
271.08568175424745
 10
300.47930564793234
 20
270.8737159831937
 10
300.26733987687857
 20
274.8680958489428
 10
304.2617197426277
 20
275.08006161999657
 10
304.47368551368146
 20
271.08568175424745
  0
LWPOLYLINE
  5
93
330
17
100
AcDbEntity
  8
Layer
100
AcDbPolyline
 90
5
 70
1
 10
122.40444934414131
 20
242.9255544486475
 10
118.56686756615952
 20
241.7972964562973
 10
117.43860957380934
 20
245.6348782342791
 10
121.27619135179114
 20
246.7631362266293
 10
122.40444934414131
 20
242.9255544486475
  0
LWPOLYLINE
  5
94
330
17
100
AcDbEntity
  8
Layer
100
AcDbPolyline
 90
5
 70
1
 10
30.311166339629374
 20
198.5167943124052
 10
28.788378950965708
 20
197.2202147471926
 10
25.54693003793421
 20
201.02718321885177
 10
27.069717426597876
 20
202.32376278406437
 10
30.311166339629374
 20
198.5167943124052
  0
LWPOLYLINE
  5
95
330
17
100
AcDbEntity
  8
Layer
100
AcDbPolyline
 90
5
 70
1
 10
20.004007229809538
 20
163.98466288006543
 10
21.642963537177224
 20
162.83844203636224
 10
18.777411427919212
 20
158.74105126794305
 10
17.138455120551527
 20
159.88727211164624
 10
20.004007229809538
 20
163.98466288006543
  0
LWPOLYLINE
  5
96
330
17
100
AcDbEntity
  8
Layer
100
AcDbPolyline
 90
5
 70
1
 10
163.07743792356322
 20
136.42900730861737
 10
167.06820755581353
 20
136.1574235419654
 10
166.79662378916154
 20
132.16665390971508
 10
162.80585415691124
 20
132.43823767636707
 10
163.07743792356322
 20
136.42900730861737
  0
LWPOLYLINE
  5
97
330
17
100
AcDbEntity
  8
Layer
100
AcDbPolyline
 90
300
 70
1
 10
474.4557480417018
 20
200.0
 10
474.44252956258026
 20
201.33567035131213
 10
474.40287996212396
 20
202.67075090819776
 10
474.3368167484804
 20
204.00465213666706
 10
474.2443690933047
 20
205.33678502348835
 10
474.12557781887915
 20
206.6665613362799
 10
473.98049538008627
 20
207.99339388325672
 10
473.8091858412468
 20
209.3166967725179
 10
473.6117248478306
 20
210.63588567076008
 10
473.38819959305357
 20
211.95037806130242
 10
473.1387087793757
 20
213.25959350130978
 10
472.8633625749169
 20
214.56295387809976
 10
472.5622825648097
 20
215.85988366442103
 10
472.2356016975109
 20
217.1498101725901
 10
471.883464226095
 20
218.43216380737374
 10
471.5060256445563
 20
219.70637831750668
 10
471.10345261914705
 20
220.9718910457318
 10
470.67592291478246
 20
222.22814317725394
 10
470.2236253165444
 20
223.4745799864968
 10
469.7467595463197
 20
224.710651082054
 10
469.2455361746081
 20
225.9358106497266
 10
468.72017652754056
 20
227.1495176935391
 10
468.1709125891477
 20
228.35123627462832
 10
467.5979868989223
 20
229.5404357478985
 10
467.0016524447207
 20
230.71659099633962
 10
466.38217255105036
 20
231.8791826629041
 10
465.7398207627932
 20
233.02769737984028
 10
465.07488072441606
 20
234.16162799538114
 10
464.387646054721
 20
235.28047379768827
 10
463.6784202171918
 20
236.38374073595227
 10
462.9475163859926
 20
237.47094163855138
 10
462.1952573076797
 20
238.54159642817297
 10
461.42197515868503
 20
239.59523233380207
 10
460.6280113986367
 20
240.63138409948385
 10
459.81371661958036
 20
241.64959418976747
 10
458.97945039116695
 20
242.6494129917408
 10
458.1255811018774
 20
243.630399013567
 10
457.2524857963526
 20
244.59211907943464
 10
456.3605500089006
 20
245.53414852083617
 10
455.4501675932563
 20
246.45607136408952
 10
454.5217405486661
 20
247.3574805140203
 10
453.5756788423766
 20
248.23797793372356
 10
452.61240022860454
 20
249.0971748203258
 10
451.63233006406836
 20
249.93469177666924
 10
450.63590112016266
 20
250.75015897884307
 10
449.6235533918585
 20
251.54321633948712
 10
448.5957339034138
 20
252.31351366679644
 10
447.5528965109805
 20
253.060710819156
 10
446.4955017021939
 20
253.7844778553378
 10
445.42401639283474
 20
254.48449518019353
 10
444.33891372065216
 20
255.16045368577883
 10
443.2406728364392
 20
255.81205488784667
 10
442.1297786924536
 20
256.4390110576495
 10
441.0067218282765
 20
257.04104534899227
 10
439.87199815420365
 20
257.6178919204799
 10
438.72610873226586
 20
258.1692960529053
 10
437.5695595549737
 20
258.6950142617262
 10
436.4028613218856
 20
259.1948144045813
 10
435.2265292140975
 20
259.66847578379736
 10
434.0410826667531
 20
260.11578924384344
 10
432.84704513967597
 20
260.53655726368794
 10
431.64494388622455
 20
260.9305940440185
 10
430.4353097204718
 20
261.29772558928545
 10
429.21867678281285
 20
261.63778978453354
 10
427.9955823041032
 20
261.9506364669874
 10
426.76656636843325
 20
262.23612749235906
 10
425.5321716746419
 20
262.49413679584853
 10
424.2929432966764
 20
262.72455044781077
 10
423.04942844290264
 20
262.9272667040634
 10
421.8021762144737
 20
263.10219605081437
 10
420.5517373628622
 20
263.2492612441887
 10
419.29866404666353
 20
263.36839734433687
 10
418.0435095877788
 20
263.459551744111
 10
416.78682822708294
 20
263.52268419229426
 10
415.52917487968784
 20
263.55776681137473
 10
414.27110488990735
 20
263.56478410985545
 10
413.0131737860328
 20
263.543732989095
 10
411.7559370350275
 20
263.49462274467567
 10
410.49994979724795
 20
263.4174750622988
 10
409.24576668130095
 20
263.3123240082093
 10
407.99394149914383
 20
263.1792160141524
 10
406.7450270215366
 20
263.0182098568712
 10
405.49957473395426
 20
262.82937663215216
 10
404.25813459306613
 20
262.6127997234316
 10
403.0212547838904
 20
262.36857476497534
 10
401.7894814777313
 20
262.09680959964993
 10
400.5633585910048
 20
261.7976242313019
 10
399.3434275450611
 20
261.4711507717674
 10
398.1302270271076
 20
261.1175333825356
 10
396.92429275234
 20
260.7369282110909
 10
395.7261572273856
 20
260.32950332196253
 10
394.53634951516335
 20
259.89543862251196
 10
393.35539500126447
 20
259.43492578349117
 10
392.18381516195717
 20
258.9481681544058
 10
391.02212733391707
 20
258.4353806737221
 10
389.87084448578617
 20
257.896789773956
 10
388.7304749916604
 20
257.33263328168687
 10
387.6015224066055
 20
256.74316031254006
 10
386.4844852443018
 20
256.1286311611844
 10
385.37985675691436
 20
255.4893171863934
 10
384.2881247172865
 20
254.82550069122095
 10
383.20977120355354
 20
254.13747479834407
 10
382.14527238627016
 20
253.4255433206284
 10
381.0950983181473
 20
252.69002062697274
 10
380.0597127264897
 20
251.93123150349285
 10
379.0395728084274
 20
251.14951101010485
 10
378.0351290290302
 20
250.34520433257228
 10
377.04682492239476
 20
249.51866663008178
 10
376.0750968957926
 20
248.67026287841483
 10
375.12037403696513
 20
247.80036770878456
 10
374.18307792465026
 20
246.90936524240942
 10
373.2636224424252
 20
245.99764892089576
 10
372.36241359594703
 20
245.06562133250526
 10
371.4798493336725
 20
244.11369403438334
 10
370.6163193711346
 20
243.14228737082703
 10
369.7722050188553
 20
242.15183028767274
 10
368.94787901396984
 20
241.14276014288583
 10
368.14370535563626
 20
240.11552251343585
 10
367.3600391443037
 20
239.07057099854194
 10
366.59722642490993
 20
238.00836701937655
 10
365.8556040340778
 20
236.92937961531462
 10
365.13549945137765
 20
235.83408523681902
 10
364.4372306547213
 20
234.72296753505353
 10
363.76110597995233
 20
233.59651714831597
 10
363.10742398469347
 20
232.4552314853863
 10
362.47647331651194
 20
231.29961450588473
 10
361.86853258546074
 20
230.13017649773747
 10
361.2838702410525
 20
228.9474338518479
 10
360.72274445371966
 20
227.75190883407288
 10
360.1854030008135
 20
226.54412935460485
 10
359.67208315719284
 20
225.32462873486156
 10
359.1830115904501
 20
224.09394547198636
 10
358.71840426082133
 20
222.852623001063
 10
358.2784663258239
 20
221.60120945514996
 10
357.8633920496652
 20
220.34025742324036
 10
357.47336471746075
 20
219.0703237062543
 10
357.10855655430083
 20
217.79196907117105
 10
356.7691286492004
 20
216.5057580034104
 10
356.45523088396715
 20
215.21225845757144
 10
356.1670018670176
 20
213.9120416066402
 10
355.90456887217164
 20
212.60568158977543
 10
355.668047782452
 20
211.29375525878504
 10
355.45754303891357
 20
209.97684192340452
 10
355.2731475945252
 20
208.65552309549022
 10
355.1149428731241
 20
207.33038223223986
 10
354.9829987334616
 20
206.00200447855443
 10
354.8773734383555
 20
204.67097640865458
 10
354.7981136289626
 20
203.33788576706607
 10
354.7452543041834
 20
202.0033212090881
 10
354.71881880520766
 20
200.66787204086
 10
354.71881880520766
 20
199.33212795914002
 10
354.7452543041834
 20
197.99667879091191
 10
354.7981136289626
 20
196.66211423293393
 10
354.8773734383555
 20
195.3290235913454
 10
354.9829987334616
 20
193.99799552144555
 10
355.1149428731241
 20
192.66961776776014
 10
355.2731475945252
 20
191.3444769045098
 10
355.45754303891357
 20
190.02315807659548
 10
355.668047782452
 20
188.706244741215
 10
355.90456887217164
 20
187.39431841022457
 10
356.1670018670176
 20
186.0879583933598
 10
356.45523088396715
 20
184.78774154242853
 10
356.7691286492004
 20
183.49424199658964
 10
357.10855655430083
 20
182.20803092882895
 10
357.47336471746075
 20
180.92967629374573
 10
357.8633920496652
 20
179.65974257675964
 10
358.27846632582384
 20
178.39879054485007
 10
358.71840426082133
 20
177.147376998937
 10
359.1830115904501
 20
175.90605452801364
 10
359.67208315719284
 20
174.67537126513844
 10
360.1854030008135
 20
173.45587064539518
 10
360.72274445371966
 20
172.24809116592715
 10
361.2838702410525
 20
171.05256614815212
 10
361.86853258546074
 20
169.86982350226253
 10
362.47647331651194
 20
168.70038549411527
 10
363.10742398469347
 20
167.5447685146137
 10
363.76110597995233
 20
166.40348285168403
 10
364.4372306547213
 20
165.2770324649465
 10
365.13549945137765
 20
164.16591476318098
 10
365.8556040340778
 20
163.0706203846854
 10
366.59722642490993
 20
161.99163298062345
 10
367.3600391443037
 20
160.92942900145806
 10
368.14370535563626
 20
159.88447748656418
 10
368.94787901396984
 20
158.85723985711417
 10
369.7722050188553
 20
157.84816971232726
 10
370.6163193711345
 20
156.85771262917297
 10
371.4798493336725
 20
155.88630596561666
 10
372.36241359594703
 20
154.93437866749477
 10
373.2636224424252
 20
154.00235107910427
 10
374.18307792465026
 20
153.09063475759058
 10
375.1203740369652
 20
152.1996322912154
 10
376.0750968957926
 20
151.3297371215852
 10
377.0468249223947
 20
150.48133336991822
 10
378.0351290290302
 20
149.65479566742775
 10
379.0395728084274
 20
148.85048898989518
 10
380.0597127264897
 20
148.06876849650718
 10
381.0950983181472
 20
147.30997937302726
 10
382.14527238627016
 20
146.57445667937162
 10
383.20977120355354
 20
145.8625252016559
 10
384.28812471728656
 20
145.17449930877905
 10
385.37985675691436
 20
144.5106828136066
 10
386.4844852443019
 20
143.8713688388156
 10
387.60152240660557
 20
143.25683968745994
 10
388.7304749916604
 20
142.66736671831313
 10
389.87084448578617
 20
142.10321022604404
 10
391.022127333917
 20
141.56461932627792
 10
392.1838151619571
 20
141.05183184559422
 10
393.35539500126447
 20
140.56507421650886
 10
394.53634951516335
 20
140.10456137748804
 10
395.7261572273856
 20
139.6704966780375
 10
396.92429275233997
 20
139.2630717889091
 10
398.1302270271076
 20
138.8824666174644
 10
399.3434275450611
 20
138.52884922823262
 10
400.5633585910048
 20
138.20237576869812
 10
401.7894814777313
 20
137.90319040035007
 10
403.0212547838904
 20
137.63142523502466
 10
404.25813459306613
 20
137.38720027656842
 10
405.4995747339543
 20
137.1706233678478
 10
406.7450270215366
 20
136.98179014312882
 10
407.9939414991438
 20
136.82078398584758
 10
409.24576668130095
 20
136.6876759917907
 10
410.49994979724795
 20
136.58252493770118
 10
411.75593703502744
 20
136.50537725532433
 10
413.0131737860328
 20
136.45626701090498
 10
414.27110488990735
 20
136.43521589014452
 10
415.52917487968784
 20
136.44223318862527
 10
416.78682822708294
 20
136.47731580770574
 10
418.0435095877788
 20
136.54044825588898
 10
419.29866404666353
 20
136.63160265566313
 10
420.5517373628622
 20
136.75073875581134
 10
421.8021762144737
 20
136.8978039491856
 10
423.04942844290264
 20
137.0727332959366
 10
424.2929432966764
 20
137.27544955218923
 10
425.532171674642
 20
137.50586320415147
 10
426.76656636843325
 20
137.76387250764094
 10
427.9955823041032
 20
138.04936353301258
 10
429.2186767828128
 20
138.36221021546646
 10
430.4353097204718
 20
138.70227441071455
 10
431.6449438862245
 20
139.0694059559815
 10
432.8470451396759
 20
139.46344273631203
 10
434.0410826667531
 20
139.88421075615656
 10
435.2265292140975
 20
140.33152421620264
 10
436.4028613218856
 20
140.8051855954187
 10
437.5695595549737
 20
141.30498573827379
 10
438.72610873226586
 20
141.83070394709472
 10
439.8719981542037
 20
142.38210807952012
 10
441.0067218282765
 20
142.95895465100776
 10
442.12977869245367
 20
143.56098894235052
 10
443.2406728364392
 20
144.18794511215336
 10
444.3389137206521
 20
144.83954631422114
 10
445.42401639283474
 20
145.51550481980644
 10
446.49550170219385
 20
146.21552214466217
 10
447.5528965109804
 20
146.93928918084399
 10
448.59573390341376
 20
147.68648633320356
 10
449.6235533918585
 20
148.45678366051288
 10
450.63590112016266
 20
149.24984102115693
 10
451.63233006406836
 20
150.06530822333076
 10
452.61240022860454
 20
150.9028251796742
 10
453.5756788423766
 20
151.76202206627644
 10
454.5217405486661
 20
152.6425194859797
 10
455.4501675932563
 20
153.54392863591048
 10
456.3605500089006
 20
154.46585147916383
 10
457.2524857963526
 20
155.4078809205654
 10
458.1255811018774
 20
156.36960098643303
 10
458.9794503911669
 20
157.35058700825917
 10
459.8137166195803
 20
158.3504058102325
 10
460.6280113986367
 20
159.36861590051612
 10
461.421975158685
 20
160.40476766619793
 10
462.1952573076797
 20
161.45840357182703
 10
462.9475163859926
 20
162.52905836144862
 10
463.6784202171918
 20
163.6162592640477
 10
464.387646054721
 20
164.71952620231173
 10
465.07488072441606
 20
165.83837200461886
 10
465.7398207627932
 20
166.97230262015972
 10
466.38217255105036
 20
168.1208173370959
 10
467.0016524447207
 20
169.28340900366038
 10
467.59798689892233
 20
170.4595642521015
 10
468.1709125891477
 20
171.6487637253717
 10
468.72017652754056
 20
172.8504823064609
 10
469.2455361746081
 20
174.06418935027338
 10
469.7467595463197
 20
175.28934891794597
 10
470.2236253165444
 20
176.52542001350318
 10
470.6759229147824
 20
177.77185682274603
 10
471.10345261914705
 20
179.0281089542682
 10
471.50602564455625
 20
180.2936216824933
 10
471.883464226095
 20
181.56783619262623
 10
472.2356016975109
 20
182.8501898274099
 10
472.5622825648097
 20
184.14011633557894
 10
472.8633625749169
 20
185.43704612190024
 10
473.1387087793757
 20
186.74040649869022
 10
473.38819959305357
 20
188.04962193869758
 10
473.6117248478306
 20
189.36411432923995
 10
473.8091858412468
 20
190.6833032274821
 10
473.98049538008627
 20
192.0066061167433
 10
474.12557781887915
 20
193.33343866372007
 10
474.2443690933047
 20
194.66321497651163
 10
474.3368167484804
 20
195.9953478633329
 10
474.40287996212396
 20
197.3292490918022
 10
474.44252956258026
 20
198.66432964868787
 10
474.4557480417018
 20
199.99999999999997
  0
LWPOLYLINE
  5
98
330
17
100
AcDbEntity
  8
Layer
100
AcDbPolyline
 90
5
 70
1
 10
182.45717870889686
 20
205.00000000000003
 10
187.45717870889686
 20
200.00000000000003
 10
182.45717870889686
 20
195.00000000000003
 10
177.45717870889686
 20
200.00000000000003
 10
182.45717870889686
 20
205.00000000000003
  0
LWPOLYLINE
  5
99
330
17
100
AcDbEntity
  8
Layer
100
AcDbPolyline
 90
5
 70
1
 10
409.7282498364252
 20
205.0
 10
414.7282498364252
 20
200.0
 10
409.7282498364252
 20
195.0
 10
404.7282498364252
 20
200.0
 10
409.7282498364252
 20
205.0
  0
LWPOLYLINE
  5
9A
330
17
100
AcDbEntity
  8
Layer
100
AcDbPolyline
 90
5
 70
1
 10
225.38188961265342
 20
166.5514268686064
 10
230.04759983335796
 20
161.2381276923494
 10
224.73430065710096
 20
156.57241747164485
 10
220.06859043639642
 20
161.88571664790186
 10
225.38188961265342
 20
166.5514268686064
  0
LWPOLYLINE
  5
9B
330
17
100
AcDbEntity
  8
Layer
100
AcDbPolyline
 90
5
 70
1
 10
487.26215668265036
 20
149.55667700061838
 10
491.92786690335487
 20
144.24337782436137
 10
486.6145677270979
 20
139.57766760365683
 10
481.9488575063934
 20
144.89096677991384
 10
487.26215668265036
 20
149.55667700061838
  0
LWPOLYLINE
  5
9C
330
17
100
AcDbEntity
  8
Layer
100
AcDbPolyline
 90
5
 70
1
 10
259.5856310679612
 20
179.58245610345966
 10
264.5856310679612
 20
184.58245610345966
 10
269.5856310679612
 20
179.58245610345966
 10
264.5856310679612
 20
174.58245610345966
 10
259.5856310679612
 20
179.58245610345966
  0
LWPOLYLINE
  5
9D
330
17
100
AcDbEntity
  8
Layer
100
AcDbPolyline
 90
5
 70
1
 10
259.5856310679612
 20
219.44051769138588
 10
264.5856310679612
 20
224.44051769138588
 10
269.5856310679612
 20
219.44051769138588
 10
264.5856310679612
 20
214.44051769138588
 10
259.5856310679612
 20
219.44051769138588
  0
LINE
  5
9E
330
17
100
AcDbEntity
  8
Layer
 62
7
100
AcDbLine
 10
24.443131290544613
 20
200.00000000000006
 30
0.0
 11
542.3495145631068
 21
199.99999999999997
 31
0.0
  0
LINE
  5
9F
330
17
100
AcDbEntity
  8
Layer
 62
7
100
AcDbLine
 10
176.45717870889686
 20
200.00000000000003
 30
0.0
 11
188.45717870889686
 21
200.00000000000003
 31
0.0
  0
LINE
  5
A0
330
17
100
AcDbEntity
  8
Layer
 62
7
100
AcDbLine
 10
403.7282498364252
 20
200.0
 30
0.0
 11
415.7282498364252
 21
200.0
 31
0.0
  0
LINE
  5
A1
330
17
100
AcDbEntity
  8
Layer
 62
7
100
AcDbLine
 10
9.06752537085464
 20
175.57865488562516
 30
0.0
 11
542.3495145631068
 21
140.97125923560085
 31
0.0
  0
LINE
  5
A2
330
17
100
AcDbEntity
  8
Layer
 62
7
100
AcDbLine
 10
219.07068949670028
 20
161.95047554345712
 30
0.0
 11
231.0455007730541
 21
161.17336879679414
 31
0.0
  0
LINE
  5
A3
330
17
100
AcDbEntity
  8
Layer
 62
7
100
AcDbLine
 10
480.9509565666972
 20
144.9557256754691
 30
0.0
 11
492.92576784305106
 21
144.17861892880612
 31
0.0
  0
LINE
  5
A4
330
17
100
AcDbEntity
  8
Layer
100
AcDbLine
 10
414.5856310679612
 20
263.56566129032257
 30
0.0
 11
414.5856310679612
 21
264.5656612903226
 31
0.0
  0
LINE
  5
A5
330
17
100
AcDbEntity
  8
Layer
100
AcDbLine
 10
414.5856310679612
 20
136.4343387096774
 30
0.0
 11
414.5856310679612
 21
135.4343387096774
 31
0.0
  0
LINE
  5
A6
330
17
100
AcDbEntity
  8
Layer
100
AcDbLine
 10
474.4557480417018
 20
200.0
 30
0.0
 11
475.4557480417018
 21
200.0
 31
0.0
  0
LINE
  5
A7
330
17
100
AcDbEntity
  8
Layer
100
AcDbLine
 10
354.71551409422057
 20
200.0
 30
0.0
 11
353.71551409422057
 21
200.0
 31
0.0
  0
LINE
  5
A8
330
17
100
AcDbEntity
  8
Layer
 62
7
100
AcDbLine
 10
264.5856310679612
 20
126.58138425087903
 30
0.0
 11
264.5856310679612
 21
272.44158954396653
 31
0.0
  0
LINE
  5
A9
330
17
100
AcDbEntity
  8
Layer
 62
7
100
AcDbLine
 10
264.5856310679612
 20
173.58245610345966
 30
0.0
 11
264.5856310679612
 21
185.58245610345966
 31
0.0
  0
LINE
  5
AA
330
17
100
AcDbEntity
  8
Layer
 62
7
100
AcDbLine
 10
264.5856310679612
 20
213.44051769138588
 30
0.0
 11
264.5856310679612
 21
225.44051769138588
 31
0.0
  0
ENDSEC
  0
SECTION
  2
OBJECTS
  0
DICTIONARY
  5
A
330
0
100
AcDbDictionary
280
0
281
1
  3
ACAD_COLOR
350
B
  3
ACAD_GROUP
350
C
  3
ACAD_LAYOUT
350
D
  3
ACAD_MATERIAL
350
E
  3
ACAD_MLEADERSTYLE
350
F
  3
ACAD_MLINESTYLE
350
10
  3
ACAD_PLOTSETTINGS
350
11
  3
ACAD_PLOTSTYLENAME
350
12
  3
ACAD_SCALELIST
350
14
  3
ACAD_TABLESTYLE
350
15
  3
ACAD_VISUALSTYLE
350
16
  3
EZDXF_META
350
2D
  0
DICTIONARY
  5
B
330
A
100
AcDbDictionary
280
0
281
1
  0
DICTIONARY
  5
C
330
A
100
AcDbDictionary
280
0
281
1
  0
DICTIONARY
  5
D
330
A
100
AcDbDictionary
280
0
281
1
  3
Model
350
1A
  3
Layout1
350
1E
  0
DICTIONARY
  5
E
330
A
100
AcDbDictionary
280
0
281
1
  3
ByBlock
350
1F
  3
ByLayer
350
20
  3
Global
350
21
  0
DICTIONARY
  5
F
330
A
100
AcDbDictionary
280
0
281
1
  3
Standard
350
2C
  0
DICTIONARY
  5
10
330
A
100
AcDbDictionary
280
0
281
1
  3
Standard
350
22
  0
DICTIONARY
  5
11
330
A
100
AcDbDictionary
280
0
281
1
  0
ACDBDICTIONARYWDFLT
  5
12
330
A
100
AcDbDictionary
280
0
281
1
  3
Normal
350
13
100
AcDbDictionaryWithDefault
340
13
  0
ACDBPLACEHOLDER
  5
13
330
12
  0
DICTIONARY
  5
14
330
A
100
AcDbDictionary
280
0
281
1
  0
DICTIONARY
  5
15
330
A
100
AcDbDictionary
280
0
281
1
  0
DICTIONARY
  5
16
330
A
100
AcDbDictionary
280
0
281
1
  3
2dWireframe
350
5A
  3
Basic
350
5B
  3
Brighten
350
5C
  3
ColorChange
350
5D
  3
Conceptual
350
5E
  3
Dim
350
5F
  3
EdgeColorOff
350
60
  3
Facepattern
350
61
  3
Flat
350
62
  3
FlatWithEdges
350
63
  3
Gouraud
350
64
  3
GouraudWithEdges
350
65
  3
Hidden
350
66
  3
JitterOff
350
67
  3
Linepattern
350
68
  3
Modeling
350
69
  3
OverhangOff
350
6A
  3
Realistic
350
6B
  3
Shaded
350
6C
  3
Shaded with edges
350
6D
  3
Shades of Gray
350
6E
  3
Sketchy
350
6F
  3
Thicken
350
70
  3
Wireframe
350
71
  3
X-Ray
350
72
  0
LAYOUT
  5
1A
330
D
100
AcDbPlotSettings
  1

  2
Adobe PDF
  4
A3
  6

 40
7.5
 41
20.0
 42
7.5
 43
20.0
 44
420.0
 45
297.0
 46
0.0
 47
0.0
 48
0.0
 49
0.0
140
0.0
141
0.0
142
1.0
143
1.0
 70
1024
 72
1
 73
0
 74
5
  7

 75
16
 76
0
 77
2
 78
300
147
1.0
148
0.0
149
0.0
100
AcDbLayout
  1
Model
 70
1
 71
0
 10
0.0
 20
0.0
 11
420.0
 21
297.0
 12
0.0
 22
0.0
 32
0.0
 14
1e+20
 24
1e+20
 34
1e+20
 15
-1e+20
 25
-1e+20
 35
-1e+20
146
0.0
 13
0.0
 23
0.0
 33
0.0
 16
1.0
 26
0.0
 36
0.0
 17
0.0
 27
1.0
 37
0.0
 76
1
330
17
  0
LAYOUT
  5
1E
330
D
100
AcDbPlotSettings
  1

  2
Adobe PDF
  4
A3
  6

 40
7.5
 41
20.0
 42
7.5
 43
20.0
 44
420.0
 45
297.0
 46
0.0
 47
0.0
 48
0.0
 49
0.0
140
0.0
141
0.0
142
1.0
143
1.0
 70
0
 72
1
 73
0
 74
5
  7

 75
16
 76
0
 77
2
 78
300
147
1.0
148
0.0
149
0.0
100
AcDbLayout
  1
Layout1
 70
1
 71
1
 10
0.0
 20
0.0
 11
420.0
 21
297.0
 12
0.0
 22
0.0
 32
0.0
 14
1e+20
 24
1e+20
 34
1e+20
 15
-1e+20
 25
-1e+20
 35
-1e+20
146
0.0
 13
0.0
 23
0.0
 33
0.0
 16
1.0
 26
0.0
 36
0.0
 17
0.0
 27
1.0
 37
0.0
 76
1
330
1B
  0
MATERIAL
  5
1F
102
{ACAD_REACTORS
330
E
102
}
330
E
100
AcDbMaterial
  1
ByBlock
  2

 70
0
 40
1.0
 71
1
 41
1.0
 91
-1023410177
 42
1.0
 72
1
  3

 73
1
 74
1
 75
1
 44
0.5
 73
0
 45
1.0
 46
1.0
 77
1
  4

 78
1
 79
1
170
1
 48
1.0
171
1
  6

172
1
173
1
174
1
140
1.0
141
1.0
175
1
  7

176
1
177
1
178
1
143
1.0
179
1
  8

270
1
271
1
272
1
145
1.0
146
1.0
273
1
  9

274
1
275
1
276
1
 42
1.0
 72
1
  3

 73
1
 74
1
 75
1
 94
63
  0
MATERIAL
  5
20
102
{ACAD_REACTORS
330
E
102
}
330
E
100
AcDbMaterial
  1
ByLayer
  2

 70
0
 40
1.0
 71
1
 41
1.0
 91
-1023410177
 42
1.0
 72
1
  3

 73
1
 74
1
 75
1
 44
0.5
 73
0
 45
1.0
 46
1.0
 77
1
  4

 78
1
 79
1
170
1
 48
1.0
171
1
  6

172
1
173
1
174
1
140
1.0
141
1.0
175
1
  7

176
1
177
1
178
1
143
1.0
179
1
  8

270
1
271
1
272
1
145
1.0
146
1.0
273
1
  9

274
1
275
1
276
1
 42
1.0
 72
1
  3

 73
1
 74
1
 75
1
 94
63
  0
MATERIAL
  5
21
102
{ACAD_REACTORS
330
E
102
}
330
E
100
AcDbMaterial
  1
Global
  2

 70
0
 40
1.0
 71
1
 41
1.0
 91
-1023410177
 42
1.0
 72
1
  3

 73
1
 74
1
 75
1
 44
0.5
 73
0
 45
1.0
 46
1.0
 77
1
  4

 78
1
 79
1
170
1
 48
1.0
171
1
  6

172
1
173
1
174
1
140
1.0
141
1.0
175
1
  7

176
1
177
1
178
1
143
1.0
179
1
  8

270
1
271
1
272
1
145
1.0
146
1.0
273
1
  9

274
1
275
1
276
1
 42
1.0
 72
1
  3

 73
1
 74
1
 75
1
 94
63
  0
MLINESTYLE
  5
22
102
{ACAD_REACTORS
330
10
102
}
330
10
100
AcDbMlineStyle
  2
Standard
 70
0
  3

 62
256
 51
90.0
 52
90.0
 71
2
 49
0.5
 62
256
  6
BYLAYER
 49
-0.5
 62
256
  6
BYLAYER
  0
MLEADERSTYLE
  5
2C
102
{ACAD_REACTORS
330
F
102
}
330
F
100
AcDbMLeaderStyle
179
2
170
2
171
1
172
0
 90
2
 40
0.0
 41
0.0
173
1
 91
-1056964608
 92
-2
290
1
 42
2.0
291
1
 43
8.0
  3
Standard
 44
4.0
300

342
29
174
1
175
1
176
0
178
1
 93
-1056964608
 45
4.0
292
0
297
0
 46
4.0
 94
-1056964608
 47
1.0
 49
1.0
140
1.0
294
1
141
0.0
177
0
142
1.0
295
0
296
0
143
3.75
271
0
272
9
273
9
  0
DICTIONARY
  5
2D
330
A
100
AcDbDictionary
281
1
  3
CREATED_BY_EZDXF
350
2E
  3
WRITTEN_BY_EZDXF
350
AD
  0
DICTIONARYVAR
  5
2E
330
2D
100
DictionaryVariables
280
0
  1
1.3.0 @ 2026-01-06T17:07:08.292040+00:00
  0
VISUALSTYLE
  5
5A
102
{ACAD_REACTORS
330
16
102
}
330
16
100
AcDbVisualStyle
  2
2dWireframe
 70
4
 90
0
 40
0.6
 62
7
290
0
291
0
  0
VISUALSTYLE
  5
5B
102
{ACAD_REACTORS
330
16
102
}
330
16
100
AcDbVisualStyle
  2
Basic
 70
7
 90
1
 40
0.6
 62
7
290
0
291
1
  0
VISUALSTYLE
  5
5C
102
{ACAD_REACTORS
330
16
102
}
330
16
100
AcDbVisualStyle
  2
Brighten
 70
12
 90
2
 40
0.6
 62
7
290
0
291
1
  0
VISUALSTYLE
  5
5D
102
{ACAD_REACTORS
330
16
102
}
330
16
100
AcDbVisualStyle
  2
ColorChange
 70
16
 90
2
 40
0.6
 62
8
290
0
291
1
  0
VISUALSTYLE
  5
5E
102
{ACAD_REACTORS
330
16
102
}
330
16
100
AcDbVisualStyle
  2
Conceptual
 70
9
 90
3
 40
0.6
 62
7
290
0
291
0
  0
VISUALSTYLE
  5
5F
102
{ACAD_REACTORS
330
16
102
}
330
16
100
AcDbVisualStyle
  2
Dim
 70
11
 90
2
 40
0.6
 62
7
290
0
291
1
  0
VISUALSTYLE
  5
60
102
{ACAD_REACTORS
330
16
102
}
330
16
100
AcDbVisualStyle
  2
EdgeColorOff
 70
22
 90
2
 40
0.6
 62
7
290
0
291
1
  0
VISUALSTYLE
  5
61
102
{ACAD_REACTORS
330
16
102
}
330
16
100
AcDbVisualStyle
  2
Facepattern
 70
15
 90
2
 40
0.6
 62
7
290
0
291
1
  0
VISUALSTYLE
  5
62
102
{ACAD_REACTORS
330
16
102
}
330
16
100
AcDbVisualStyle
  2
Flat
 70
0
 90
2
 40
0.6
 62
7
290
0
291
1
  0
VISUALSTYLE
  5
63
102
{ACAD_REACTORS
330
16
102
}
330
16
100
AcDbVisualStyle
  2
FlatWithEdges
 70
1
 90
2
 40
0.6
 62
7
290
0
291
1
  0
VISUALSTYLE
  5
64
102
{ACAD_REACTORS
330
16
102
}
330
16
100
AcDbVisualStyle
  2
Gouraud
 70
2
 90
2
 40
0.6
 62
7
290
0
291
1
  0
VISUALSTYLE
  5
65
102
{ACAD_REACTORS
330
16
102
}
330
16
100
AcDbVisualStyle
  2
GouraudWithEdges
 70
3
 90
2
 40
0.6
 62
7
290
0
291
1
  0
VISUALSTYLE
  5
66
102
{ACAD_REACTORS
330
16
102
}
330
16
100
AcDbVisualStyle
  2
Hidden
 70
6
 90
1
 40
0.6
 62
7
290
0
291
0
  0
VISUALSTYLE
  5
67
102
{ACAD_REACTORS
330
16
102
}
330
16
100
AcDbVisualStyle
  2
JitterOff
 70
20
 90
2
 40
0.6
 62
7
290
0
291
1
  0
VISUALSTYLE
  5
68
102
{ACAD_REACTORS
330
16
102
}
330
16
100
AcDbVisualStyle
  2
Linepattern
 70
14
 90
2
 40
0.6
 62
7
290
0
291
1
  0
VISUALSTYLE
  5
69
102
{ACAD_REACTORS
330
16
102
}
330
16
100
AcDbVisualStyle
  2
Modeling
 70
10
 90
2
 40
0.6
 62
7
290
0
291
0
  0
VISUALSTYLE
  5
6A
102
{ACAD_REACTORS
330
16
102
}
330
16
100
AcDbVisualStyle
  2
OverhangOff
 70
21
 90
2
 40
0.6
 62
7
290
0
291
1
  0
VISUALSTYLE
  5
6B
102
{ACAD_REACTORS
330
16
102
}
330
16
100
AcDbVisualStyle
  2
Realistic
 70
8
 90
2
 40
0.6
 62
7
290
0
291
0
  0
VISUALSTYLE
  5
6C
102
{ACAD_REACTORS
330
16
102
}
330
16
100
AcDbVisualStyle
  2
Shaded
 70
27
 90
2
 40
0.6
 62
7
290
0
291
0
  0
VISUALSTYLE
  5
6D
102
{ACAD_REACTORS
330
16
102
}
330
16
100
AcDbVisualStyle
  2
Shaded with edges
 70
26
 90
2
 40
0.6
 62
7
290
0
291
0
  0
VISUALSTYLE
  5
6E
102
{ACAD_REACTORS
330
16
102
}
330
16
100
AcDbVisualStyle
  2
Shades of Gray
 70
23
 90
2
 40
0.6
 62
7
290
0
291
0
  0
VISUALSTYLE
  5
6F
102
{ACAD_REACTORS
330
16
102
}
330
16
100
AcDbVisualStyle
  2
Sketchy
 70
24
 90
1
 40
0.6
 62
7
290
0
291
0
  0
VISUALSTYLE
  5
70
102
{ACAD_REACTORS
330
16
102
}
330
16
100
AcDbVisualStyle
  2
Thicken
 70
13
 90
2
 40
0.6
 62
7
290
0
291
1
  0
VISUALSTYLE
  5
71
102
{ACAD_REACTORS
330
16
102
}
330
16
100
AcDbVisualStyle
  2
Wireframe
 70
5
 90
0
 40
0.6
 62
7
290
0
291
0
  0
VISUALSTYLE
  5
72
102
{ACAD_REACTORS
330
16
102
}
330
16
100
AcDbVisualStyle
  2
X-Ray
 70
25
 90
2
 40
0.5
 62
7
290
0
291
0
  0
DICTIONARYVAR
  5
AD
330
2D
100
DictionaryVariables
280
0
  1
1.3.0 @ 2026-01-06T17:07:08.312546+00:00
  0
ENDSEC
  0
EOF
