<?xml version="1.0" encoding="utf-8" standalone="no"?>
<!DOCTYPE svg PUBLIC "-//W3C//DTD SVG 1.1//EN"
  "http://www.w3.org/Graphics/SVG/1.1/DTD/svg11.dtd">
<svg xmlns:xlink="http://www.w3.org/1999/xlink" width="1152pt" height="321.719104pt" viewBox="0 0 1152 321.719104" xmlns="http://www.w3.org/2000/svg" version="1.1">
 <metadata>
  <rdf:RDF xmlns:dc="http://purl.org/dc/elements/1.1/" xmlns:cc="http://creativecommons.org/ns#" xmlns:rdf="http://www.w3.org/1999/02/22-rdf-syntax-ns#">
   <cc:Work>
    <dc:type rdf:resource="http://purl.org/dc/dcmitype/StillImage"/>
    <dc:date>2026-01-07T02:07:13.345353</dc:date>
    <dc:format>image/svg+xml</dc:format>
    <dc:creator>
     <cc:Agent>
      <dc:title>Matplotlib v3.10.1, https://matplotlib.org/</dc:title>
     </cc:Agent>
    </dc:creator>
   </cc:Work>
  </rdf:RDF>
 </metadata>
 <defs>
  <style type="text/css">*{stroke-linejoin: round; stroke-linecap: butt}</style>
 </defs>
 <g id="figure_1">
  <g id="patch_1">
   <path d="M 0 321.719104 
L 1152 321.719104 
L 1152 0 
L 0 0 
z
" style="fill: #ffffff"/>
  </g>
  <g id="axes_1">
   <g id="patch_2">
    <path d="M 0 321.719104 
L 1152 321.719104 
L 1152 0 
L 0 0 
z
" style="fill: #212830"/>
   </g>
   <g id="patch_3">
    <path d="M 1099.636364 40.962244 
L 1080.483376 38.303787 
L 1059.544966 35.57429 
L 1038.56927 33.01333 
L 1017.560317 30.616189 
L 996.527588 28.383498 
L 975.47359 26.318119 
L 954.395702 24.419664 
L 933.299428 22.683899 
L 912.199434 21.110936 
L 891.105097 19.705346 
L 870.016566 18.469862 
L 848.937616 17.401794 
L 827.881905 16.50158 
L 806.86004 15.77344 
L 785.87189 15.222214 
L 764.918768 14.846303 
L 744.013354 14.645208 
L 723.166789 14.623596 
L 702.380984 14.786662 
L 681.656499 15.134237 
L 661.006296 15.665381 
L 640.444019 16.384471 
L 619.971985 17.29782 
L 599.593487 18.405428 
L 579.322928 19.706172 
L 559.17653 21.205005 
L 539.157808 22.908596 
L 519.273487 24.815631 
L 499.543564 26.925251 
L 479.983724 29.243932 
L 460.599896 31.776215 
L 441.406516 34.518804 
L 422.427911 37.472209 
L 403.679939 40.641281 
L 385.176209 44.022486 
L 366.954855 47.60203 
L 349.061961 51.377802 
L 331.525795 55.352073 
L 314.377389 59.510564 
L 297.672328 63.833017 
L 281.460716 68.312312 
L 265.777567 72.934586 
L 250.670412 77.666476 
L 236.197641 82.478389 
L 222.399187 87.351871 
L 209.301199 92.254715 
L 196.933581 97.146232 
L 185.316642 101.999935 
L 174.447071 106.796792 
L 164.309701 111.509549 
L 154.887273 116.113904 
L 146.153594 120.601309 
L 138.0698 124.971397 
L 130.590657 129.219702 
L 123.674129 133.339199 
L 117.281936 137.331114 
L 111.374713 141.204425 
L 105.913228 144.968098 
L 100.859757 148.627948 
L 96.183113 152.186323 
L 91.857773 155.650345 
L 87.860443 159.032417 
L 84.163343 162.348563 
L 80.735489 165.603918 
L 74.571318 171.911728 
L 69.226229 177.879976 
L 66.861089 180.737841 
L 64.707822 183.532445 
L 62.765539 186.286001 
L 61.02332 189.019157 
L 59.464759 191.736686 
L 58.071413 194.434525 
L 56.830269 197.096877 
L 55.735588 199.711953 
L 54.789011 202.269933 
L 53.996133 204.770246 
L 53.361789 207.219878 
L 52.886848 209.625723 
L 52.567437 211.992974 
L 52.387982 214.507527 
L 52.363636 216.656408 
L 52.480702 219.004471 
L 52.761657 221.345551 
L 53.227369 223.668769 
L 53.903353 225.97394 
L 54.810761 228.264078 
L 55.957002 230.537582 
L 57.334586 232.787112 
L 58.92811 235.000354 
L 60.72737 237.165472 
L 62.731373 239.272691 
L 64.948986 241.317185 
L 67.388914 243.29855 
L 70.056353 245.221241 
L 72.948347 247.091705 
L 76.062791 248.917045 
L 79.398118 250.701187 
L 82.964391 252.44565 
L 86.77625 254.15105 
L 90.856872 255.819354 
L 95.229414 257.457089 
L 99.917427 259.074391 
L 104.946927 260.682431 
L 116.15025 263.905806 
L 122.405518 265.528964 
L 129.165542 267.163118 
L 136.488727 268.813282 
L 144.439274 270.484326 
L 153.085394 272.178215 
L 162.503625 273.89186 
L 172.77605 275.620002 
L 183.98175 277.360324 
L 196.187239 279.108917 
L 209.442773 280.852596 
L 223.781161 282.572378 
L 239.208959 284.253771 
L 255.69038 285.884692 
L 273.15724 287.44396 
L 291.530934 288.913715 
L 310.71394 290.288859 
L 330.592675 291.562042 
L 351.074597 292.724539 
L 372.081128 293.780679 
L 393.532597 294.7354 
L 437.622509 296.349467 
L 462.57031 297.141168 
L 462.499327 299.46888 
L 505.660955 300.725182 
L 551.586722 301.715739 
L 668.767427 303.645282 
L 715.819417 304.183626 
L 906.057839 305.844995 
L 1000.864391 306.504926 
L 1099.636364 307.095509 
L 1099.636364 40.962244 
L 1099.636364 40.962244 
" clip-path="url(#pcd724bc334)" style="fill: none; stroke: #ff0000; stroke-width: 0.72; stroke-linejoin: miter"/>
   </g>
   <g id="patch_4">
    <path d="M 639.559868 241.699246 
L 651.203836 241.699246 
L 651.203836 253.343215 
L 639.559868 253.343215 
L 651.203836 253.343215 
L 651.203836 264.987183 
L 639.559868 264.987183 
" clip-path="url(#pcd724bc334)" style="fill: none; stroke: #ff0000; stroke-width: 0.72; stroke-linejoin: miter"/>
   </g>
   <g id="patch_5">
    <path d="M 657.025821 241.699246 
L 668.66979 241.699246 
L 668.66979 253.343215 
L 657.025821 253.343215 
L 657.025821 264.987183 
L 668.66979 264.987183 
" clip-path="url(#pcd724bc334)" style="fill: none; stroke: #ff0000; stroke-width: 0.72; stroke-linejoin: miter"/>
   </g>
   <g id="patch_6">
    <path d="M 632.848184 26.047861 
L 623.542269 26.463114 
L 623.127016 17.157199 
L 632.432931 16.741946 
L 632.848184 26.047861 
" clip-path="url(#pcd724bc334)" style="fill: none; stroke: #ff0000; stroke-width: 0.72; stroke-linejoin: miter"/>
   </g>
   <g id="patch_7">
    <path d="M 275.912741 79.659064 
L 266.977644 82.292791 
L 264.343917 73.357693 
L 273.279015 70.723966 
L 275.912741 79.659064 
" clip-path="url(#pcd724bc334)" style="fill: none; stroke: #ff0000; stroke-width: 0.72; stroke-linejoin: miter"/>
   </g>
   <g id="patch_8">
    <path d="M 95.809948 167.543641 
L 92.343636 170.654557 
L 84.566345 161.988776 
L 88.032657 158.87786 
L 95.809948 167.543641 
" clip-path="url(#pcd724bc334)" style="fill: none; stroke: #ff0000; stroke-width: 0.72; stroke-linejoin: miter"/>
   </g>
   <g id="patch_9">
    <path d="M 74.644349 234.173815 
L 78.426331 236.892221 
L 71.630315 246.347176 
L 67.848333 243.62877 
L 74.644349 234.173815 
" clip-path="url(#pcd724bc334)" style="fill: none; stroke: #ff0000; stroke-width: 0.72; stroke-linejoin: miter"/>
   </g>
   <g id="patch_10">
    <path d="M 353.937808 283.541545 
L 363.241233 284.009265 
L 362.773513 293.31269 
L 353.470088 292.84497 
L 353.937808 283.541545 
" clip-path="url(#pcd724bc334)" style="fill: none; stroke: #ff0000; stroke-width: 0.72; stroke-linejoin: miter"/>
   </g>
   <g id="patch_11">
    <path d="M 963.173407 160.424343 
L 963.072309 155.317971 
L 962.769194 150.220617 
L 962.264596 145.141283 
L 961.559407 140.088941 
L 960.654872 135.072513 
L 959.552589 130.100859 
L 958.254505 125.182758 
L 956.762912 120.326898 
L 955.080444 115.541853 
L 953.210073 110.836075 
L 951.155102 106.217875 
L 948.91916 101.695408 
L 946.506197 97.276662 
L 943.920473 92.96944 
L 941.166555 88.78135 
L 938.249308 84.719789 
L 935.173882 80.791928 
L 931.94571 77.004706 
L 928.570494 73.36481 
L 925.054192 69.87867 
L 921.403017 66.552442 
L 917.623416 63.392 
L 913.722065 60.402926 
L 909.705853 57.590499 
L 905.581873 54.959687 
L 901.357409 52.515134 
L 897.039922 50.26116 
L 892.637036 48.201743 
L 888.156529 46.340523 
L 883.606311 44.680784 
L 878.994421 43.22546 
L 874.329002 41.97712 
L 869.618295 40.937968 
L 864.870618 40.10984 
L 860.094357 39.494199 
L 855.297947 39.092132 
L 850.489859 38.904348 
L 845.678584 38.931181 
L 840.87262 39.172581 
L 836.080454 39.628123 
L 831.31055 40.297002 
L 826.571332 41.178038 
L 821.871169 42.269673 
L 817.218364 43.569981 
L 812.621132 45.076664 
L 808.087593 46.787061 
L 803.625754 48.698153 
L 799.243495 50.806563 
L 794.948555 53.108569 
L 790.748519 55.600104 
L 786.650806 58.276768 
L 782.662652 61.133835 
L 778.7911 64.166258 
L 775.042988 67.368681 
L 771.424936 70.735449 
L 767.943334 74.260616 
L 764.604329 77.937957 
L 761.41382 81.760975 
L 758.37744 85.722921 
L 755.500554 89.816796 
L 752.78824 94.035371 
L 750.24529 98.371195 
L 747.876194 102.81661 
L 745.685137 107.363766 
L 743.675989 112.004632 
L 741.852297 116.731011 
L 740.217282 121.534557 
L 738.773832 126.406786 
L 737.524497 131.339093 
L 736.471482 136.322767 
L 735.616648 141.349007 
L 734.961504 146.408936 
L 734.507207 151.493617 
L 734.254559 156.594071 
L 734.204007 161.701289 
L 734.355641 166.806252 
L 734.709191 171.899944 
L 735.264034 176.973369 
L 736.01919 182.017567 
L 736.973325 187.02363 
L 738.124755 191.982715 
L 739.471444 196.886066 
L 741.011016 201.725022 
L 742.740752 206.491037 
L 744.657595 211.175693 
L 746.758162 215.770719 
L 749.038741 220.267997 
L 751.495307 224.659586 
L 754.123519 228.93773 
L 756.918736 233.094873 
L 759.876022 237.123673 
L 762.990154 241.017015 
L 766.255632 244.768022 
L 769.666689 248.370071 
L 773.2173 251.8168 
L 776.901195 255.102121 
L 780.711868 258.220233 
L 784.642589 261.165628 
L 788.686416 263.933104 
L 792.836206 266.517774 
L 797.084632 268.915074 
L 801.42419 271.120769 
L 805.847215 273.130964 
L 810.345898 274.942108 
L 814.912291 276.551004 
L 819.538331 277.954809 
L 824.215848 279.151045 
L 828.936581 280.137598 
L 833.692192 280.912726 
L 838.474282 281.475061 
L 843.274407 281.823609 
L 848.084088 281.957755 
L 852.894832 281.877262 
L 857.698142 281.582271 
L 862.485534 281.073305 
L 867.248555 280.351261 
L 871.978791 279.417415 
L 876.66789 278.273417 
L 881.307569 276.921286 
L 885.889634 275.36341 
L 890.405994 273.602542 
L 894.848671 271.641791 
L 899.209821 269.484619 
L 903.481739 267.134837 
L 907.656883 264.596594 
L 911.727877 261.874373 
L 915.687534 258.972982 
L 919.528858 255.897545 
L 923.245067 252.653494 
L 926.829596 249.246557 
L 930.276116 245.682753 
L 933.57854 241.968374 
L 936.731034 238.10998 
L 939.728032 234.114387 
L 942.564241 229.98865 
L 945.234651 225.740057 
L 947.734547 221.376109 
L 950.059513 216.904516 
L 952.205443 212.333173 
L 954.168547 207.670154 
L 955.945359 202.923695 
L 957.53274 198.102178 
L 958.927887 193.214118 
L 960.128336 188.268149 
L 961.131966 183.273005 
L 961.937005 178.237508 
L 962.542033 173.170551 
L 962.945978 168.081084 
L 963.14813 162.978094 
L 963.173407 160.424343 
L 963.173407 160.424343 
" clip-path="url(#pcd724bc334)" style="fill: none; stroke: #ff0000; stroke-width: 0.72; stroke-linejoin: miter"/>
   </g>
   <g id="patch_12">
    <path d="M 397.690144 148.780375 
L 409.334113 160.424343 
L 397.690144 172.068312 
L 386.046175 160.424343 
L 397.690144 148.780375 
" clip-path="url(#pcd724bc334)" style="fill: none; stroke: #ff0000; stroke-width: 0.72; stroke-linejoin: miter"/>
   </g>
   <g id="patch_13">
    <path d="M 842.0567 148.780375 
L 853.700669 160.424343 
L 842.0567 172.068312 
L 830.412731 160.424343 
L 842.0567 148.780375 
" clip-path="url(#pcd724bc334)" style="fill: none; stroke: #ff0000; stroke-width: 0.72; stroke-linejoin: miter"/>
   </g>
   <g id="patch_14">
    <path d="M 478.744646 228.238641 
L 489.61725 240.605957 
L 477.249934 251.478561 
L 466.37733 239.111245 
L 478.744646 228.238641 
" clip-path="url(#pcd724bc334)" style="fill: none; stroke: #ff0000; stroke-width: 0.72; stroke-linejoin: miter"/>
   </g>
   <g id="patch_15">
    <path d="M 991.694233 261.229805 
L 1002.566837 273.597121 
L 990.199521 284.469725 
L 979.326917 272.102409 
L 991.694233 261.229805 
" clip-path="url(#pcd724bc334)" style="fill: none; stroke: #ff0000; stroke-width: 0.72; stroke-linejoin: miter"/>
   </g>
   <g id="line2d_1">
    <path d="M 86.308614 160.424343 
L 1099.636364 160.424343 
" clip-path="url(#pcd724bc334)" style="fill: none; stroke: #ffffff; stroke-width: 0.72; stroke-linecap: square"/>
   </g>
   <g id="line2d_2">
    <path d="M 383.717381 160.424343 
L 411.662907 160.424343 
" clip-path="url(#pcd724bc334)" style="fill: none; stroke: #ffffff; stroke-width: 0.72; stroke-linecap: square"/>
   </g>
   <g id="line2d_3">
    <path d="M 828.083937 160.424343 
L 856.029463 160.424343 
" clip-path="url(#pcd724bc334)" style="fill: none; stroke: #ffffff; stroke-width: 0.72; stroke-linecap: square"/>
   </g>
   <g id="line2d_4">
    <path d="M 52.531672 212.494107 
L 1099.636364 279.840301 
" clip-path="url(#pcd724bc334)" style="fill: none; stroke: #ffffff; stroke-width: 0.72; stroke-linecap: square"/>
   </g>
   <g id="line2d_5">
    <path d="M 464.053338 238.961773 
L 491.941242 240.755428 
" clip-path="url(#pcd724bc334)" style="fill: none; stroke: #ffffff; stroke-width: 0.72; stroke-linecap: square"/>
   </g>
   <g id="line2d_6">
    <path d="M 977.002925 271.952937 
L 1004.890829 273.746592 
" clip-path="url(#pcd724bc334)" style="fill: none; stroke: #ffffff; stroke-width: 0.72; stroke-linecap: square"/>
   </g>
   <g id="line2d_7">
    <path d="M 848.685548 38.889255 
L 848.685548 36.560461 
" clip-path="url(#pcd724bc334)" style="fill: none; stroke: #ff0000; stroke-width: 0.72; stroke-linecap: square"/>
   </g>
   <g id="line2d_8">
    <path d="M 848.685548 281.959432 
L 848.685548 284.288226 
" clip-path="url(#pcd724bc334)" style="fill: none; stroke: #ff0000; stroke-width: 0.72; stroke-linecap: square"/>
   </g>
   <g id="line2d_9">
    <path d="M 963.173407 160.424343 
L 965.502201 160.424343 
" clip-path="url(#pcd724bc334)" style="fill: none; stroke: #ff0000; stroke-width: 0.72; stroke-linecap: square"/>
   </g>
   <g id="line2d_10">
    <path d="M 734.197688 160.424343 
L 731.868894 160.424343 
" clip-path="url(#pcd724bc334)" style="fill: none; stroke: #ff0000; stroke-width: 0.72; stroke-linecap: square"/>
   </g>
  </g>
 </g>
 <defs>
  <clipPath id="pcd724bc334">
   <rect x="0" y="0" width="1152" height="321.719104"/>
  </clipPath>
 </defs>
</svg>
