<?xml version="1.0" encoding="utf-8" standalone="no"?>
<!DOCTYPE svg PUBLIC "-//W3C//DTD SVG 1.1//EN"
  "http://www.w3.org/Graphics/SVG/1.1/DTD/svg11.dtd">
<svg xmlns:xlink="http://www.w3.org/1999/xlink" width="1152pt" height="341.365671pt" viewBox="0 0 1152 341.365671" xmlns="http://www.w3.org/2000/svg" version="1.1">
 <metadata>
  <rdf:RDF xmlns:dc="http://purl.org/dc/elements/1.1/" xmlns:cc="http://creativecommons.org/ns#" xmlns:rdf="http://www.w3.org/1999/02/22-rdf-syntax-ns#">
   <cc:Work>
    <dc:type rdf:resource="http://purl.org/dc/dcmitype/StillImage"/>
    <dc:date>2026-01-07T02:07:17.538392</dc:date>
    <dc:format>image/svg+xml</dc:format>
    <dc:creator>
     <cc:Agent>
      <dc:title>Matplotlib v3.10.1, https://matplotlib.org/</dc:title>
     </cc:Agent>
    </dc:creator>
   </cc:Work>
  </rdf:RDF>
 </metadata>
 <defs>
  <style type="text/css">*{stroke-linejoin: round; stroke-linecap: butt}</style>
 </defs>
 <g id="figure_1">
  <g id="patch_1">
   <path d="M 0 341.365671 
L 1152 341.365671 
L 1152 0 
L 0 0 
z
" style="fill: #ffffff"/>
  </g>
  <g id="axes_1">
   <g id="patch_2">
    <path d="M 0 341.365671 
L 1152 341.365671 
L 1152 0 
L 0 0 
z
" style="fill: #212830"/>
   </g>
   <g id="patch_3">
    <path d="M 1099.275131 324.2334 
L 1091.371426 321.384347 
L 1078.496298 316.762502 
L 1064.350472 311.731553 
L 1048.922478 306.348345 
L 1032.142675 300.620098 
L 1014.111317 294.472822 
L 995.028708 287.930817 
L 975.105675 281.041658 
L 954.511633 273.859897 
L 933.405817 266.440068 
L 911.896721 258.822122 
L 890.07643 251.051012 
L 868.020362 243.156715 
L 845.776579 235.169008 
L 823.407418 227.123342 
L 800.976858 219.048293 
L 778.544735 210.978423 
L 756.14917 202.940634 
L 733.819888 194.951105 
L 711.583679 187.030019 
L 689.445202 179.191978 
L 667.408261 171.444654 
L 645.483631 163.799188 
L 623.675405 156.269147 
L 601.979901 148.862921 
L 581.580377 141.985541 
L 580.719796 144.538176 
L 579.549472 144.14358 
L 558.100197 137.01483 
L 536.762654 130.039946 
L 515.520967 123.222601 
L 494.367077 116.565359 
L 473.29238 110.073993 
L 452.279926 103.751844 
L 431.31295 97.597533 
L 410.382824 91.610371 
L 389.483098 85.7929 
L 368.601524 80.14654 
L 347.725282 74.669913 
L 326.8496 69.360487 
L 305.973254 64.21993 
L 285.089482 59.25064 
L 264.189266 54.450907 
L 243.270466 49.818336 
L 222.335949 45.354224 
L 201.382771 41.060848 
L 180.405917 36.937621 
L 159.403305 32.982525 
L 138.379828 29.195523 
L 117.336742 25.579411 
L 96.269966 22.13471 
L 75.179221 18.859115 
L 54.069704 15.753427 
L 52.363636 15.516621 
L 52.363636 283.783121 
L 72.300559 283.882668 
L 96.156839 283.966183 
L 119.99327 284.03365 
L 143.777592 284.131376 
L 167.550454 284.278635 
L 191.336201 284.452881 
L 215.103686 284.620401 
L 238.782812 284.794594 
L 262.338788 285.018847 
L 285.833279 285.310684 
L 309.277069 285.615383 
L 332.620036 285.85334 
L 355.96501 285.998889 
L 379.348172 286.116116 
L 402.719139 286.288184 
L 426.134507 286.541608 
L 449.626797 286.834185 
L 473.098644 287.128326 
L 496.443984 287.451853 
L 519.6641 287.868525 
L 542.896955 288.402218 
L 566.229954 289.003062 
L 589.59923 289.608353 
L 612.877036 290.217143 
L 635.977429 290.896612 
L 658.998402 291.702129 
L 682.078779 292.62128 
L 705.238109 293.590038 
L 728.334791 294.562134 
L 751.216277 295.567751 
L 773.866016 296.687452 
L 796.436831 297.974544 
L 819.084787 299.395815 
L 841.779981 300.864388 
L 864.311688 302.346606 
L 886.533318 303.895971 
L 908.448707 305.556132 
L 930.051484 307.311415 
L 951.246409 309.136016 
L 971.895869 311.017539 
L 991.857272 312.964269 
L 1011.038704 315.003219 
L 1029.379922 317.105481 
L 1046.734903 319.175277 
L 1062.905938 321.138352 
L 1077.762452 322.997476 
L 1091.308793 324.752872 
L 1099.636364 325.84905 
L 1099.275131 324.2334 
" clip-path="url(#p3dfe7cfce1)" style="fill: none; stroke: #ff0000; stroke-width: 0.72; stroke-linejoin: miter"/>
   </g>
   <g id="patch_4">
    <path d="M 483.640658 214.46099 
L 483.640658 227.929979 
L 497.109647 227.929979 
L 497.109647 214.46099 
L 497.109647 241.398968 
" clip-path="url(#p3dfe7cfce1)" style="fill: none; stroke: #ff0000; stroke-width: 0.72; stroke-linejoin: miter"/>
   </g>
   <g id="patch_5">
    <path d="M 517.31313 214.46099 
L 503.844141 214.46099 
L 503.844141 227.929979 
L 517.31313 227.929979 
L 517.31313 241.398968 
L 503.844141 241.398968 
" clip-path="url(#p3dfe7cfce1)" style="fill: none; stroke: #ff0000; stroke-width: 0.72; stroke-linejoin: miter"/>
   </g>
   <g id="patch_6">
    <path d="M 375.632223 93.209858 
L 365.23057 90.397319 
L 368.043109 79.995667 
L 378.444762 82.808206 
L 375.632223 93.209858 
" clip-path="url(#p3dfe7cfce1)" style="fill: none; stroke: #ff0000; stroke-width: 0.72; stroke-linejoin: miter"/>
   </g>
   <g id="patch_7">
    <path d="M 238.640048 122.25964 
L 252.109037 135.728629 
L 238.640048 149.197617 
L 225.171059 135.728629 
L 238.640048 122.25964 
" clip-path="url(#p3dfe7cfce1)" style="fill: none; stroke: #ff0000; stroke-width: 0.72; stroke-linejoin: miter"/>
   </g>
   <g id="patch_8">
    <path d="M 593.425161 235.975707 
L 606.89415 222.506719 
L 620.363139 235.975707 
L 606.89415 249.444696 
L 593.425161 235.975707 
" clip-path="url(#p3dfe7cfce1)" style="fill: none; stroke: #ff0000; stroke-width: 0.72; stroke-linejoin: miter"/>
   </g>
   <g id="patch_9">
    <path d="M 593.425161 204.625469 
L 606.89415 191.15648 
L 620.363139 204.625469 
L 606.89415 218.094458 
L 593.425161 204.625469 
" clip-path="url(#p3dfe7cfce1)" style="fill: none; stroke: #ff0000; stroke-width: 0.72; stroke-linejoin: miter"/>
   </g>
   <g id="line2d_1">
    <path d="M 1048.721999 306.279906 
L 1047.847533 308.827818 
" clip-path="url(#p3dfe7cfce1)" style="fill: none; stroke: #ff0000; stroke-width: 0.72; stroke-linecap: square"/>
   </g>
   <g id="line2d_2">
    <path d="M 1046.242111 316.404982 
L 1046.008079 319.088595 
" clip-path="url(#p3dfe7cfce1)" style="fill: none; stroke: #ff0000; stroke-width: 0.72; stroke-linecap: square"/>
   </g>
   <g id="line2d_3">
    <path d="M 997.739869 288.860272 
L 996.867145 291.408782 
" clip-path="url(#p3dfe7cfce1)" style="fill: none; stroke: #ff0000; stroke-width: 0.72; stroke-linecap: square"/>
   </g>
   <g id="line2d_4">
    <path d="M 992.733458 310.348481 
L 992.464949 313.028864 
" clip-path="url(#p3dfe7cfce1)" style="fill: none; stroke: #ff0000; stroke-width: 0.72; stroke-linecap: square"/>
   </g>
   <g id="line2d_5">
    <path d="M 794.646424 216.770944 
L 793.754772 219.312893 
" clip-path="url(#p3dfe7cfce1)" style="fill: none; stroke: #ff0000; stroke-width: 0.72; stroke-linecap: square"/>
   </g>
   <g id="line2d_6">
    <path d="M 777.767386 294.212683 
L 777.543452 296.897156 
" clip-path="url(#p3dfe7cfce1)" style="fill: none; stroke: #ff0000; stroke-width: 0.72; stroke-linecap: square"/>
   </g>
   <g id="line2d_7">
    <path d="M 52.363636 135.728629 
L 554.165455 135.728629 
" clip-path="url(#p3dfe7cfce1)" style="fill: none; stroke: #ffffff; stroke-width: 0.72; stroke-linecap: square"/>
   </g>
   <g id="line2d_8">
    <path d="M 222.477261 135.728629 
L 254.802834 135.728629 
" clip-path="url(#p3dfe7cfce1)" style="fill: none; stroke: #ffffff; stroke-width: 0.72; stroke-linecap: square"/>
   </g>
   <g id="line2d_9">
    <path d="M 52.363636 256.409405 
L 1097.619823 323.63671 
" clip-path="url(#p3dfe7cfce1)" style="fill: none; stroke: #ffffff; stroke-width: 0.72; stroke-linecap: square"/>
   </g>
   <g id="line2d_10">
    <path d="M 606.89415 290.060671 
L 606.89415 150.540505 
" clip-path="url(#p3dfe7cfce1)" style="fill: none; stroke: #ffffff; stroke-width: 0.72; stroke-linecap: square"/>
   </g>
   <g id="line2d_11">
    <path d="M 606.89415 252.138494 
L 606.89415 219.812921 
" clip-path="url(#p3dfe7cfce1)" style="fill: none; stroke: #ffffff; stroke-width: 0.72; stroke-linecap: square"/>
   </g>
   <g id="line2d_12">
    <path d="M 606.89415 220.788255 
L 606.89415 188.462682 
" clip-path="url(#p3dfe7cfce1)" style="fill: none; stroke: #ffffff; stroke-width: 0.72; stroke-linecap: square"/>
   </g>
  </g>
 </g>
 <defs>
  <clipPath id="p3dfe7cfce1">
   <rect x="0" y="0" width="1152" height="341.365671"/>
  </clipPath>
 </defs>
</svg>
