<?xml version="1.0" encoding="utf-8" standalone="no"?>
<!DOCTYPE svg PUBLIC "-//W3C//DTD SVG 1.1//EN"
  "http://www.w3.org/Graphics/SVG/1.1/DTD/svg11.dtd">
<svg xmlns:xlink="http://www.w3.org/1999/xlink" width="1152pt" height="329.340434pt" viewBox="0 0 1152 329.340434" xmlns="http://www.w3.org/2000/svg" version="1.1">
 <metadata>
  <rdf:RDF xmlns:dc="http://purl.org/dc/elements/1.1/" xmlns:cc="http://creativecommons.org/ns#" xmlns:rdf="http://www.w3.org/1999/02/22-rdf-syntax-ns#">
   <cc:Work>
    <dc:type rdf:resource="http://purl.org/dc/dcmitype/StillImage"/>
    <dc:date>2026-01-07T02:07:08.792938</dc:date>
    <dc:format>image/svg+xml</dc:format>
    <dc:creator>
     <cc:Agent>
      <dc:title>Matplotlib v3.10.1, https://matplotlib.org/</dc:title>
     </cc:Agent>
    </dc:creator>
   </cc:Work>
  </rdf:RDF>
 </metadata>
 <defs>
  <style type="text/css">*{stroke-linejoin: round; stroke-linecap: butt}</style>
 </defs>
 <g id="figure_1">
  <g id="patch_1">
   <path d="M 0 329.340434 
L 1152 329.340434 
L 1152 0 
L 0 0 
z
" style="fill: #ffffff"/>
  </g>
  <g id="axes_1">
   <g id="patch_2">
    <path d="M 0 329.340434 
L 1152 329.340434 
L 1152 0 
L 0 0 
z
" style="fill: #212830"/>
   </g>
   <g id="patch_3">
    <path d="M 1099.636364 41.886162 
L 1094.38837 41.089094 
L 1072.158821 37.936877 
L 1049.894613 34.991964 
L 1027.612247 32.238894 
L 1005.336775 29.677445 
L 983.082815 27.319065 
L 960.853517 25.173728 
L 938.648297 23.243266 
L 916.46711 21.523234 
L 894.315903 20.002919 
L 872.21524 18.67219 
L 850.193272 17.533487 
L 828.263319 16.603825 
L 806.418078 15.894632 
L 784.649124 15.397794 
L 762.965544 15.094286 
L 741.391168 14.97002 
L 719.956986 15.022113 
L 698.694507 15.262557 
L 677.61598 15.716201 
L 656.70465 16.401441 
L 635.936214 17.305147 
L 615.319769 18.389047 
L 594.904915 19.625954 
L 574.747179 21.027433 
L 554.871466 22.630055 
L 535.264154 24.462849 
L 515.894929 26.52316 
L 496.75255 28.772528 
L 477.875569 31.159313 
L 459.341762 33.662493 
L 441.214952 36.313684 
L 423.493775 39.167455 
L 406.122137 42.238514 
L 389.064446 45.471369 
L 372.364231 48.786514 
L 356.111959 52.156625 
L 340.358279 55.62129 
L 325.081423 59.227031 
L 310.230998 62.976821 
L 295.779428 66.835827 
L 281.730446 70.765335 
L 268.106657 74.741795 
L 254.931333 78.760744 
L 242.216721 82.834432 
L 229.953606 86.984191 
L 218.115759 91.222824 
L 206.675772 95.545084 
L 195.620973 99.930071 
L 184.958375 104.356791 
L 174.701557 108.81805 
L 164.853884 113.319976 
L 155.406601 117.865899 
L 146.354459 122.443471 
L 137.706717 127.036239 
L 129.473463 131.641907 
L 121.65022 136.268767 
L 114.225999 140.916375 
L 107.201461 145.573408 
L 100.588706 150.228611 
L 94.398527 154.87965 
L 88.637621 159.523648 
L 83.309301 164.158861 
L 78.401391 168.794733 
L 73.885181 173.433579 
L 69.74639 178.037779 
L 66.01913 182.538539 
L 62.761016 186.90531 
L 59.993765 191.181096 
L 57.687763 195.428489 
L 55.802386 199.65111 
L 54.321817 203.794487 
L 53.251551 207.83479 
L 52.597586 211.797711 
L 52.363636 215.598128 
L 52.546269 219.272089 
L 53.168081 222.784109 
L 54.276803 226.186352 
L 55.918176 229.547066 
L 58.093076 232.888194 
L 60.766857 236.180808 
L 63.930895 239.387793 
L 67.622121 242.497038 
L 71.877825 245.517224 
L 76.695554 248.454931 
L 82.057225 251.302375 
L 87.967097 254.049695 
L 94.446433 256.701853 
L 101.50017 259.276067 
L 109.113573 261.785318 
L 117.270102 264.23161 
L 125.961594 266.611551 
L 135.183903 268.922227 
L 144.937463 271.160899 
L 155.229368 273.328283 
L 166.062841 275.431021 
L 177.432328 277.471653 
L 189.33728 279.442544 
L 201.795596 281.335481 
L 214.828476 283.15567 
L 228.444472 284.914399 
L 242.645392 286.614338 
L 257.445038 288.251002 
L 272.863648 289.825939 
L 305.591623 292.821959 
L 340.846351 295.606031 
L 378.586594 298.164845 
L 418.640408 300.472209 
L 462.646105 302.605472 
L 462.561356 304.589116 
L 504.611014 306.304361 
L 550.082566 307.847118 
L 596.934934 309.124935 
L 644.941595 310.173206 
L 693.971934 310.955816 
L 820.627558 312.479665 
L 950.993513 313.528795 
L 1056.59271 314.200663 
L 1099.636364 314.370415 
L 1099.636364 41.886162 
L 1099.636364 41.886162 
" clip-path="url(#p724a92942a)" style="fill: none; stroke: #ff0000; stroke-width: 0.72; stroke-linejoin: miter"/>
   </g>
   <g id="patch_4">
    <path d="M 644.67933 248.978759 
L 644.67933 268.833302 
" clip-path="url(#p724a92942a)" style="fill: none; stroke: #ff0000; stroke-width: 0.72; stroke-linejoin: miter"/>
   </g>
   <g id="patch_5">
    <path d="M 664.533874 258.90603 
L 660.562965 258.90603 
" clip-path="url(#p724a92942a)" style="fill: none; stroke: #ff0000; stroke-width: 0.72; stroke-linejoin: miter"/>
   </g>
   <g id="patch_6">
    <path d="M 658.57751 258.90603 
L 654.606602 258.90603 
L 654.606602 248.978759 
L 658.57751 248.978759 
" clip-path="url(#p724a92942a)" style="fill: none; stroke: #ff0000; stroke-width: 0.72; stroke-linejoin: miter"/>
   </g>
   <g id="patch_7">
    <path d="M 660.562965 248.978759 
L 664.533874 248.978759 
L 664.533874 268.833302 
L 660.562965 268.833302 
" clip-path="url(#p724a92942a)" style="fill: none; stroke: #ff0000; stroke-width: 0.72; stroke-linejoin: miter"/>
   </g>
   <g id="patch_8">
    <path d="M 658.57751 268.833302 
L 654.606602 268.833302 
" clip-path="url(#p724a92942a)" style="fill: none; stroke: #ff0000; stroke-width: 0.72; stroke-linejoin: miter"/>
   </g>
   <g id="patch_9">
    <path d="M 632.565975 25.435139 
L 624.635113 25.852137 
L 624.218115 17.921275 
L 632.148977 17.504277 
L 632.565975 25.435139 
" clip-path="url(#p724a92942a)" style="fill: none; stroke: #ff0000; stroke-width: 0.72; stroke-linejoin: miter"/>
   </g>
   <g id="patch_10">
    <path d="M 275.070412 80.982581 
L 267.446731 83.20788 
L 265.221432 75.584199 
L 272.845113 73.3589 
L 275.070412 80.982581 
" clip-path="url(#p724a92942a)" style="fill: none; stroke: #ff0000; stroke-width: 0.72; stroke-linejoin: miter"/>
   </g>
   <g id="patch_11">
    <path d="M 94.418142 167.653406 
L 91.423122 170.260698 
L 84.904892 162.773148 
L 87.899912 160.165856 
L 94.418142 167.653406 
" clip-path="url(#p724a92942a)" style="fill: none; stroke: #ff0000; stroke-width: 0.72; stroke-linejoin: miter"/>
   </g>
   <g id="patch_12">
    <path d="M 74.137592 234.946205 
L 77.379027 237.239939 
L 71.644693 245.343527 
L 68.403258 243.049794 
L 74.137592 234.946205 
" clip-path="url(#p724a92942a)" style="fill: none; stroke: #ff0000; stroke-width: 0.72; stroke-linejoin: miter"/>
   </g>
   <g id="patch_13">
    <path d="M 354.952518 288.638293 
L 362.874701 289.196402 
L 362.316592 297.118585 
L 354.39441 296.560476 
L 354.952518 288.638293 
" clip-path="url(#p724a92942a)" style="fill: none; stroke: #ff0000; stroke-width: 0.72; stroke-linejoin: miter"/>
   </g>
   <g id="patch_14">
    <path d="M 966.127048 164.305877 
L 966.023416 159.07022 
L 965.712706 153.84381 
L 965.195465 148.635877 
L 964.472606 143.455618 
L 963.545407 138.312183 
L 962.415505 133.214655 
L 961.084896 128.172037 
L 959.555929 123.193235 
L 957.831304 118.287042 
L 955.914069 113.462122 
L 953.807608 108.726997 
L 951.515641 104.090029 
L 949.042218 99.559408 
L 946.391705 95.143135 
L 943.568785 90.84901 
L 940.578442 86.684617 
L 937.425958 82.65731 
L 934.1169 78.774202 
L 930.657112 75.042151 
L 927.052706 71.467747 
L 923.310045 68.057305 
L 919.435742 64.816846 
L 915.436636 61.752094 
L 911.319793 58.868462 
L 907.092482 56.171042 
L 902.762168 53.664598 
L 898.336501 51.353556 
L 893.823295 49.241999 
L 889.230522 47.333656 
L 884.566293 45.631896 
L 879.838846 44.139725 
L 875.056529 42.859779 
L 870.227788 41.794318 
L 865.361152 40.945223 
L 860.465216 40.313995 
L 855.548625 39.901748 
L 850.620064 39.709211 
L 845.688237 39.736722 
L 840.761853 39.984234 
L 835.849613 40.45131 
L 830.960193 41.137124 
L 826.102227 42.040466 
L 821.284296 43.159739 
L 816.514908 44.492968 
L 811.802487 46.037798 
L 807.155354 47.7915 
L 802.581718 49.750977 
L 798.089655 51.912768 
L 793.6871 54.273057 
L 789.381827 56.827673 
L 785.18144 59.572106 
L 781.093358 62.501508 
L 777.124799 65.610707 
L 773.282773 68.89421 
L 769.574066 72.346218 
L 766.005227 75.960637 
L 762.58256 79.731081 
L 759.312108 83.650892 
L 756.199648 87.713147 
L 753.250677 91.910672 
L 750.470403 96.236053 
L 747.863736 100.681652 
L 745.43528 105.239618 
L 743.189323 109.901899 
L 741.129832 114.660264 
L 739.260445 119.506307 
L 737.584463 124.43147 
L 736.104846 129.427055 
L 734.824207 134.484239 
L 733.744807 139.594092 
L 732.868554 144.747587 
L 732.196994 149.935624 
L 731.731314 155.149041 
L 731.472336 160.378629 
L 731.420518 165.615153 
L 731.575951 170.849364 
L 731.93836 176.07202 
L 732.507105 181.273895 
L 733.281182 186.445803 
L 734.259225 191.57861 
L 735.439505 196.663251 
L 736.819938 201.690746 
L 738.398086 206.652215 
L 740.171162 211.538898 
L 742.136034 216.342162 
L 744.289233 221.053525 
L 746.626956 225.664667 
L 749.145073 230.167443 
L 751.839139 234.553902 
L 754.704394 238.816296 
L 757.735779 242.947098 
L 760.92794 246.939013 
L 764.275238 250.784989 
L 767.771763 254.478236 
L 771.41134 258.012229 
L 775.18754 261.380729 
L 779.093695 264.577786 
L 783.122905 267.597753 
L 787.268055 270.435297 
L 791.521824 273.085406 
L 795.8767 275.543401 
L 800.324991 277.804941 
L 804.858841 279.86603 
L 809.470243 281.72303 
L 814.151054 283.37266 
L 818.893006 284.812007 
L 823.687724 286.038529 
L 828.526741 287.05006 
L 833.40151 287.844813 
L 838.303422 288.421385 
L 843.22382 288.778758 
L 848.154014 288.9163 
L 853.085298 288.833769 
L 858.00896 288.53131 
L 862.916307 288.009457 
L 867.798671 287.269132 
L 872.64743 286.311643 
L 877.45402 285.138681 
L 882.209953 283.752316 
L 886.906828 282.154998 
L 891.536351 280.349548 
L 896.090346 278.339154 
L 900.560769 276.127366 
L 904.939726 273.718091 
L 909.219483 271.115585 
L 913.392482 268.324442 
L 917.451353 265.349593 
L 921.388927 262.196292 
L 925.19825 258.870107 
L 928.872594 255.376913 
L 932.405471 251.722879 
L 935.790642 247.914458 
L 939.022126 243.958377 
L 942.094218 239.861623 
L 945.001492 235.631429 
L 947.738812 231.275269 
L 950.301346 226.800834 
L 952.684567 222.216027 
L 954.884267 217.528946 
L 956.896559 212.747868 
L 958.717891 207.881237 
L 960.345046 202.937648 
L 961.77515 197.925831 
L 963.005678 192.854638 
L 964.034455 187.733026 
L 964.859666 182.570039 
L 965.479853 177.374796 
L 965.89392 172.156473 
L 966.101137 166.924284 
L 966.127048 164.305877 
L 966.127048 164.305877 
" clip-path="url(#p724a92942a)" style="fill: none; stroke: #ff0000; stroke-width: 0.72; stroke-linejoin: miter"/>
   </g>
   <g id="patch_15">
    <path d="M 393.245184 154.378605 
L 403.172456 164.305877 
L 393.245184 174.233149 
L 383.317912 164.305877 
L 393.245184 154.378605 
" clip-path="url(#p724a92942a)" style="fill: none; stroke: #ff0000; stroke-width: 0.72; stroke-linejoin: miter"/>
   </g>
   <g id="patch_16">
    <path d="M 839.024294 154.378605 
L 848.951566 164.305877 
L 839.024294 174.233149 
L 829.097022 164.305877 
L 839.024294 154.378605 
" clip-path="url(#p724a92942a)" style="fill: none; stroke: #ff0000; stroke-width: 0.72; stroke-linejoin: miter"/>
   </g>
   <g id="patch_17">
    <path d="M 477.36749 229.798917 
L 486.631473 240.347853 
L 476.082537 249.611836 
L 466.818553 239.0629 
L 477.36749 229.798917 
" clip-path="url(#p724a92942a)" style="fill: none; stroke: #ff0000; stroke-width: 0.72; stroke-linejoin: miter"/>
   </g>
   <g id="patch_18">
    <path d="M 991.459524 263.139983 
L 1000.723508 273.688919 
L 990.174572 282.952903 
L 980.910588 272.403967 
L 991.459524 263.139983 
" clip-path="url(#p724a92942a)" style="fill: none; stroke: #ff0000; stroke-width: 0.72; stroke-linejoin: miter"/>
   </g>
   <g id="patch_19">
    <path d="M 541.02512 204.293995 
L 550.952391 194.366723 
L 560.879663 204.293995 
L 550.952391 214.221267 
L 541.02512 204.293995 
" clip-path="url(#p724a92942a)" style="fill: none; stroke: #ff0000; stroke-width: 0.72; stroke-linejoin: miter"/>
   </g>
   <g id="patch_20">
    <path d="M 541.02512 126.574541 
L 550.952391 116.647269 
L 560.879663 126.574541 
L 550.952391 136.501812 
L 541.02512 126.574541 
" clip-path="url(#p724a92942a)" style="fill: none; stroke: #ff0000; stroke-width: 0.72; stroke-linejoin: miter"/>
   </g>
   <g id="line2d_1">
    <path d="M 83.153658 164.305877 
L 1099.636364 164.305877 
" clip-path="url(#p724a92942a)" style="fill: none; stroke: #ffffff; stroke-width: 0.72; stroke-linecap: square"/>
   </g>
   <g id="line2d_2">
    <path d="M 381.332458 164.305877 
L 405.15791 164.305877 
" clip-path="url(#p724a92942a)" style="fill: none; stroke: #ffffff; stroke-width: 0.72; stroke-linecap: square"/>
   </g>
   <g id="line2d_3">
    <path d="M 827.111568 164.305877 
L 850.93702 164.305877 
" clip-path="url(#p724a92942a)" style="fill: none; stroke: #ffffff; stroke-width: 0.72; stroke-linecap: square"/>
   </g>
   <g id="line2d_4">
    <path d="M 52.572988 212.197304 
L 1099.636364 280.103841 
" clip-path="url(#p724a92942a)" style="fill: none; stroke: #ffffff; stroke-width: 0.72; stroke-linecap: square"/>
   </g>
   <g id="line2d_5">
    <path d="M 464.837261 238.934405 
L 488.612765 240.476348 
" clip-path="url(#p724a92942a)" style="fill: none; stroke: #ffffff; stroke-width: 0.72; stroke-linecap: square"/>
   </g>
   <g id="line2d_6">
    <path d="M 978.929296 272.275471 
L 1002.7048 273.817414 
" clip-path="url(#p724a92942a)" style="fill: none; stroke: #ffffff; stroke-width: 0.72; stroke-linecap: square"/>
   </g>
   <g id="line2d_7">
    <path d="M 848.770544 39.693734 
L 848.770544 37.70828 
" clip-path="url(#p724a92942a)" style="fill: none; stroke: #ff0000; stroke-width: 0.72; stroke-linecap: square"/>
   </g>
   <g id="line2d_8">
    <path d="M 848.770544 288.91802 
L 848.770544 290.903474 
" clip-path="url(#p724a92942a)" style="fill: none; stroke: #ff0000; stroke-width: 0.72; stroke-linecap: square"/>
   </g>
   <g id="line2d_9">
    <path d="M 966.127048 164.305877 
L 968.112502 164.305877 
" clip-path="url(#p724a92942a)" style="fill: none; stroke: #ff0000; stroke-width: 0.72; stroke-linecap: square"/>
   </g>
   <g id="line2d_10">
    <path d="M 731.41404 164.305877 
L 729.428586 164.305877 
" clip-path="url(#p724a92942a)" style="fill: none; stroke: #ff0000; stroke-width: 0.72; stroke-linecap: square"/>
   </g>
   <g id="line2d_11">
    <path d="M 550.952391 307.872145 
L 550.952391 22.996391 
" clip-path="url(#p724a92942a)" style="fill: none; stroke: #ffffff; stroke-width: 0.72; stroke-linecap: square"/>
   </g>
   <g id="line2d_12">
    <path d="M 550.952391 216.206721 
L 550.952391 192.381269 
" clip-path="url(#p724a92942a)" style="fill: none; stroke: #ffffff; stroke-width: 0.72; stroke-linecap: square"/>
   </g>
   <g id="line2d_13">
    <path d="M 550.952391 138.487267 
L 550.952391 114.661815 
" clip-path="url(#p724a92942a)" style="fill: none; stroke: #ffffff; stroke-width: 0.72; stroke-linecap: square"/>
   </g>
  </g>
 </g>
 <defs>
  <clipPath id="p724a92942a">
   <rect x="0" y="0" width="1152" height="329.340434"/>
  </clipPath>
 </defs>
</svg>
