  0
SECTION
  2
HEADER
  9
$ACADVER
  1
AC1021
  9
$ACADMAINTVER
 70
25
  9
$DWGCODEPAGE
  3
ANSI_1252
  9
$LASTSAVEDBY
  1
ezdxf
  9
$INSBASE
 10
0.0
 20
0.0
 30
0.0
  9
$EXTMIN
 10
1e+20
 20
1e+20
 30
1e+20
  9
$EXTMAX
 10
-1e+20
 20
-1e+20
 30
-1e+20
  9
$LIMMIN
 10
0.0
 20
0.0
  9
$LIMMAX
 10
420.0
 20
297.0
  9
$ORTHOMODE
 70
0
  9
$REGENMODE
 70
1
  9
$FILLMODE
 70
1
  9
$QTEXTMODE
 70
0
  9
$MIRRTEXT
 70
1
  9
$LTSCALE
 40
1.0
  9
$ATTMODE
 70
1
  9
$TEXTSIZE
 40
2.5
  9
$TRACEWID
 40
1.0
  9
$TEXTSTYLE
  7
OpenSans
  9
$CLAYER
  8
0
  9
$CELTYPE
  6
ByLayer
  9
$CECOLOR
 62
256
  9
$CELTSCALE
 40
1.0
  9
$DISPSILH
 70
0
  9
$DIMSCALE
 40
1.0
  9
$DIMASZ
 40
0.175
  9
$DIMEXO
 40
0.125
  9
$DIMDLI
 40
3.75
  9
$DIMRND
 40
0.0
  9
$DIMDLE
 40
0.0
  9
$DIMEXE
 40
0.375
  9
$DIMTP
 40
0.0
  9
$DIMTM
 40
0.0
  9
$DIMTXT
 40
0.25
  9
$DIMCEN
 40
2.5
  9
$DIMTSZ
 40
0.0
  9
$DIMTOL
 70
0
  9
$DIMLIM
 70
0
  9
$DIMTIH
 70
0
  9
$DIMTOH
 70
0
  9
$DIMSE1
 70
0
  9
$DIMSE2
 70
0
  9
$DIMTAD
 70
1
  9
$DIMZIN
 70
12
  9
$DIMBLK
  1
ARCHTICK
  9
$DIMASO
 70
1
  9
$DIMSHO
 70
1
  9
$DIMPOST
  1

  9
$DIMAPOST
  1

  9
$DIMALT
 70
0
  9
$DIMALTD
 70
3
  9
$DIMALTF
 40
0.03937007874
  9
$DIMLFAC
 40
100.0
  9
$DIMTOFL
 70
1
  9
$DIMTVP
 40
0.0
  9
$DIMTIX
 70
0
  9
$DIMSOXD
 70
0
  9
$DIMSAH
 70
0
  9
$DIMBLK1
  1

  9
$DIMBLK2
  1

  9
$DIMSTYLE
  2
EZDXF
  9
$DIMCLRD
 70
0
  9
$DIMCLRE
 70
0
  9
$DIMCLRT
 70
0
  9
$DIMTFAC
 40
0.5
  9
$DIMGAP
 40
0.1
  9
$DIMJUST
 70
0
  9
$DIMSD1
 70
0
  9
$DIMSD2
 70
0
  9
$DIMTOLJ
 70
0
  9
$DIMTZIN
 70
8
  9
$DIMALTZ
 70
0
  9
$DIMALTTZ
 70
0
  9
$DIMUPT
 70
1
  9
$DIMDEC
 70
2
  9
$DIMTDEC
 70
2
  9
$DIMALTU
 70
2
  9
$DIMALTTD
 70
3
  9
$DIMTXSTY
  7
OpenSansCondensed-Light
  9
$DIMAUNIT
 70
0
  9
$DIMADEC
 70
2
  9
$DIMALTRND
 40
0.0
  9
$DIMAZIN
 70
3
  9
$DIMDSEP
 70
46
  9
$DIMATFIT
 70
3
  9
$DIMFRAC
 70
0
  9
$DIMLDRBLK
  1

  9
$DIMLUNIT
 70
2
  9
$DIMLWD
 70
-2
  9
$DIMLWE
 70
-2
  9
$DIMTMOVE
 70
2
  9
$DIMFXL
 40
1.0
  9
$DIMFXLON
 70
0
  9
$DIMJOGANG
 40
0.785398163397
  9
$DIMTFILL
 70
0
  9
$DIMTFILLCLR
 70
0
  9
$DIMARCSYM
 70
0
  9
$DIMLTYPE
  6

  9
$DIMLTEX1
  6

  9
$DIMLTEX2
  6

  9
$LUNITS
 70
2
  9
$LUPREC
 70
4
  9
$SKETCHINC
 40
1.0
  9
$FILLETRAD
 40
10.0
  9
$AUNITS
 70
0
  9
$AUPREC
 70
2
  9
$MENU
  1
.
  9
$ELEVATION
 40
0.0
  9
$PELEVATION
 40
0.0
  9
$THICKNESS
 40
0.0
  9
$LIMCHECK
 70
0
  9
$CHAMFERA
 40
0.0
  9
$CHAMFERB
 40
0.0
  9
$CHAMFERC
 40
0.0
  9
$CHAMFERD
 40
0.0
  9
$SKPOLY
 70
0
  9
$TDCREATE
 40
2461048.088460648
  9
$TDUCREATE
 40
2458532.153996898
  9
$TDUPDATE
 40
2461048.0884722224
  9
$TDUUPDATE
 40
2458532.1544311
  9
$TDINDWG
 40
0.0
  9
$TDUSRTIMER
 40
0.0
  9
$USRTIMER
 70
1
  9
$ANGBASE
 50
0.0
  9
$ANGDIR
 70
0
  9
$PDMODE
 70
0
  9
$PDSIZE
 40
0.0
  9
$PLINEWID
 40
0.0
  9
$SPLFRAME
 70
0
  9
$SPLINETYPE
 70
6
  9
$SPLINESEGS
 70
8
  9
$HANDSEED
  5
B9
  9
$SURFTAB1
 70
6
  9
$SURFTAB2
 70
6
  9
$SURFTYPE
 70
6
  9
$SURFU
 70
6
  9
$SURFV
 70
6
  9
$UCSBASE
  2

  9
$UCSNAME
  2

  9
$UCSORG
 10
0.0
 20
0.0
 30
0.0
  9
$UCSXDIR
 10
1.0
 20
0.0
 30
0.0
  9
$UCSYDIR
 10
0.0
 20
1.0
 30
0.0
  9
$UCSORTHOREF
  2

  9
$UCSORTHOVIEW
 70
0
  9
$UCSORGTOP
 10
0.0
 20
0.0
 30
0.0
  9
$UCSORGBOTTOM
 10
0.0
 20
0.0
 30
0.0
  9
$UCSORGLEFT
 10
0.0
 20
0.0
 30
0.0
  9
$UCSORGRIGHT
 10
0.0
 20
0.0
 30
0.0
  9
$UCSORGFRONT
 10
0.0
 20
0.0
 30
0.0
  9
$UCSORGBACK
 10
0.0
 20
0.0
 30
0.0
  9
$PUCSBASE
  2

  9
$PUCSNAME
  2

  9
$PUCSORG
 10
0.0
 20
0.0
 30
0.0
  9
$PUCSXDIR
 10
1.0
 20
0.0
 30
0.0
  9
$PUCSYDIR
 10
0.0
 20
1.0
 30
0.0
  9
$PUCSORTHOREF
  2

  9
$PUCSORTHOVIEW
 70
0
  9
$PUCSORGTOP
 10
0.0
 20
0.0
 30
0.0
  9
$PUCSORGBOTTOM
 10
0.0
 20
0.0
 30
0.0
  9
$PUCSORGLEFT
 10
0.0
 20
0.0
 30
0.0
  9
$PUCSORGRIGHT
 10
0.0
 20
0.0
 30
0.0
  9
$PUCSORGFRONT
 10
0.0
 20
0.0
 30
0.0
  9
$PUCSORGBACK
 10
0.0
 20
0.0
 30
0.0
  9
$USERI1
 70
0
  9
$USERI2
 70
0
  9
$USERI3
 70
0
  9
$USERI4
 70
0
  9
$USERI5
 70
0
  9
$USERR1
 40
0.0
  9
$USERR2
 40
0.0
  9
$USERR3
 40
0.0
  9
$USERR4
 40
0.0
  9
$USERR5
 40
0.0
  9
$WORLDVIEW
 70
1
  9
$SHADEDGE
 70
3
  9
$SHADEDIF
 70
70
  9
$TILEMODE
 70
1
  9
$MAXACTVP
 70
64
  9
$PINSBASE
 10
0.0
 20
0.0
 30
0.0
  9
$PLIMCHECK
 70
0
  9
$PEXTMIN
 10
1e+20
 20
1e+20
 30
1e+20
  9
$PEXTMAX
 10
-1e+20
 20
-1e+20
 30
-1e+20
  9
$PLIMMIN
 10
0.0
 20
0.0
  9
$PLIMMAX
 10
420.0
 20
297.0
  9
$UNITMODE
 70
0
  9
$VISRETAIN
 70
1
  9
$PLINEGEN
 70
0
  9
$PSLTSCALE
 70
1
  9
$TREEDEPTH
 70
3020
  9
$CMLSTYLE
  2
Standard
  9
$CMLJUST
 70
0
  9
$CMLSCALE
 40
20.0
  9
$PROXYGRAPHICS
 70
1
  9
$MEASUREMENT
 70
1
  9
$CELWEIGHT
370
-1
  9
$ENDCAPS
280
0
  9
$JOINSTYLE
280
0
  9
$LWDISPLAY
290
0
  9
$INSUNITS
 70
6
  9
$HYPERLINKBASE
  1

  9
$STYLESHEET
  1

  9
$XEDIT
290
1
  9
$CEPSNTYPE
380
0
  9
$PSTYLEMODE
290
1
  9
$FINGERPRINTGUID
  2
{D8C8B582-1B40-4588-8A70-2C275505A4FE}
  9
$VERSIONGUID
  2
{BACA6739-0863-49BA-816C-28DF76895DEC}
  9
$EXTNAMES
290
1
  9
$PSVPSCALE
 40
0.0
  9
$OLESTARTUP
290
0
  9
$SORTENTS
280
127
  9
$INDEXCTL
280
0
  9
$HIDETEXT
280
1
  9
$XCLIPFRAME
290
1
  9
$HALOGAP
280
0
  9
$OBSCOLOR
 70
257
  9
$OBSLTYPE
280
0
  9
$INTERSECTIONDISPLAY
280
0
  9
$INTERSECTIONCOLOR
 70
257
  9
$DIMASSOC
280
2
  9
$PROJECTNAME
  1

  9
$CAMERADISPLAY
290
0
  9
$LENSLENGTH
 40
50.0
  9
$CAMERAHEIGHT
 40
0.0
  9
$STEPSPERSEC
 40
24.0
  9
$STEPSIZE
 40
100.0
  9
$3DDWFPREC
 40
2.0
  9
$PSOLWIDTH
 40
0.005
  9
$PSOLHEIGHT
 40
0.08
  9
$LOFTANG1
 40
1.570796326795
  9
$LOFTANG2
 40
1.570796326795
  9
$LOFTMAG1
 40
0.0
  9
$LOFTMAG2
 40
0.0
  9
$LOFTPARAM
 70
7
  9
$LOFTNORMALS
280
1
  9
$LATITUDE
 40
37.795
  9
$LONGITUDE
 40
-122.394
  9
$NORTHDIRECTION
 40
0.0
  9
$TIMEZONE
 70
-8000
  9
$LIGHTGLYPHDISPLAY
280
1
  9
$TILEMODELIGHTSYNCH
280
1
  9
$CMATERIAL
347
20
  9
$SOLIDHIST
280
0
  9
$SHOWHIST
280
1
  9
$DWFFRAME
280
2
  9
$DGNFRAME
280
2
  9
$REALWORLDSCALE
290
1
  9
$INTERFERECOLOR
 62
256
  9
$CSHADOW
280
0
  9
$SHADOWPLANELOCATION
 40
0.0
  0
ENDSEC
  0
SECTION
  2
CLASSES
  0
CLASS
  1
ACDBDICTIONARYWDFLT
  2
AcDbDictionaryWithDefault
  3
ObjectDBX Classes
 90
0
 91
0
280
0
281
0
  0
CLASS
  1
SUN
  2
AcDbSun
  3
SCENEOE
 90
1153
 91
0
280
0
281
0
  0
CLASS
  1
VISUALSTYLE
  2
AcDbVisualStyle
  3
ObjectDBX Classes
 90
4095
 91
0
280
0
281
0
  0
CLASS
  1
MATERIAL
  2
AcDbMaterial
  3
ObjectDBX Classes
 90
1153
 91
0
280
0
281
0
  0
CLASS
  1
SCALE
  2
AcDbScale
  3
ObjectDBX Classes
 90
1153
 91
0
280
0
281
0
  0
CLASS
  1
TABLESTYLE
  2
AcDbTableStyle
  3
ObjectDBX Classes
 90
4095
 91
0
280
0
281
0
  0
CLASS
  1
MLEADERSTYLE
  2
AcDbMLeaderStyle
  3
ACDB_MLEADERSTYLE_CLASS
 90
4095
 91
0
280
0
281
0
  0
CLASS
  1
DICTIONARYVAR
  2
AcDbDictionaryVar
  3
ObjectDBX Classes
 90
0
 91
0
280
0
281
0
  0
CLASS
  1
CELLSTYLEMAP
  2
AcDbCellStyleMap
  3
ObjectDBX Classes
 90
1152
 91
0
280
0
281
0
  0
CLASS
  1
MENTALRAYRENDERSETTINGS
  2
AcDbMentalRayRenderSettings
  3
SCENEOE
 90
1024
 91
0
280
0
281
0
  0
CLASS
  1
ACDBDETAILVIEWSTYLE
  2
AcDbDetailViewStyle
  3
ObjectDBX Classes
 90
1025
 91
0
280
0
281
0
  0
CLASS
  1
ACDBSECTIONVIEWSTYLE
  2
AcDbSectionViewStyle
  3
ObjectDBX Classes
 90
1025
 91
0
280
0
281
0
  0
CLASS
  1
RASTERVARIABLES
  2
AcDbRasterVariables
  3
ISM
 90
0
 91
0
280
0
281
0
  0
CLASS
  1
ACDBPLACEHOLDER
  2
AcDbPlaceHolder
  3
ObjectDBX Classes
 90
0
 91
0
280
0
281
0
  0
CLASS
  1
LAYOUT
  2
AcDbLayout
  3
ObjectDBX Classes
 90
0
 91
0
280
0
281
0
  0
ENDSEC
  0
SECTION
  2
TABLES
  0
TABLE
  2
VPORT
  5
8
330
0
100
AcDbSymbolTable
 70
1
  0
VPORT
  5
23
330
8
100
AcDbSymbolTableRecord
100
AcDbViewportTableRecord
  2
*Active
 70
0
 10
0.0
 20
0.0
 11
1.0
 21
1.0
 12
0.0
 22
0.0
 13
0.0
 23
0.0
 14
0.5
 24
0.5
 15
0.5
 25
0.5
 16
0.0
 26
0.0
 36
1.0
 17
0.0
 27
0.0
 37
0.0
 40
1000.0
 41
1.34
 42
50.0
 43
0.0
 44
0.0
 50
0.0
 51
0.0
 71
0
 72
1000
 73
1
 74
3
 75
0
 76
0
 77
0
 78
0
281
0
 65
0
146
0.0
  0
ENDTAB
  0
TABLE
  2
LTYPE
  5
2
330
0
100
AcDbSymbolTable
 70
21
  0
LTYPE
  5
24
330
2
100
AcDbSymbolTableRecord
100
AcDbLinetypeTableRecord
  2
ByBlock
 70
0
  3

 72
65
 73
0
 40
0.0
  0
LTYPE
  5
25
330
2
100
AcDbSymbolTableRecord
100
AcDbLinetypeTableRecord
  2
ByLayer
 70
0
  3

 72
65
 73
0
 40
0.0
  0
LTYPE
  5
26
330
2
100
AcDbSymbolTableRecord
100
AcDbLinetypeTableRecord
  2
Continuous
 70
0
  3

 72
65
 73
0
 40
0.0
  0
LTYPE
  5
2F
330
2
100
AcDbSymbolTableRecord
100
AcDbLinetypeTableRecord
  2
CENTER
 70
0
  3
Center ____ _ ____ _ ____ _ ____ _ ____ _ ____
 72
65
 73
4
 40
5.08
 49
3.175
 74
0
 49
-0.635
 74
0
 49
0.635
 74
0
 49
-0.635
 74
0
  0
LTYPE
  5
30
330
2
100
AcDbSymbolTableRecord
100
AcDbLinetypeTableRecord
  2
CENTERX2
 70
0
  3
Center (2x) ________  __  ________  __  ________
 72
65
 73
4
 40
8.89
 49
6.35
 74
0
 49
-0.635
 74
0
 49
1.27
 74
0
 49
-0.635
 74
0
  0
LTYPE
  5
31
330
2
100
AcDbSymbolTableRecord
100
AcDbLinetypeTableRecord
  2
CENTER2
 70
0
  3
Center (.5x) ____ _ ____ _ ____ _ ____ _ ____
 72
65
 73
4
 40
2.54
 49
1.587
 74
0
 49
-0.318
 74
0
 49
0.318
 74
0
 49
-0.318
 74
0
  0
LTYPE
  5
32
330
2
100
AcDbSymbolTableRecord
100
AcDbLinetypeTableRecord
  2
DASHED
 70
0
  3
Dashed __ __ __ __ __ __ __ __ __ __ __ __ __ _
 72
65
 73
2
 40
1.524
 49
1.27
 74
0
 49
-0.254
 74
0
  0
LTYPE
  5
33
330
2
100
AcDbSymbolTableRecord
100
AcDbLinetypeTableRecord
  2
DASHEDX2
 70
0
  3
Dashed (2x) ____  ____  ____  ____  ____  ____
 72
65
 73
2
 40
3.048
 49
2.54
 74
0
 49
-0.508
 74
0
  0
LTYPE
  5
34
330
2
100
AcDbSymbolTableRecord
100
AcDbLinetypeTableRecord
  2
DASHED2
 70
0
  3
Dashed (.5x) _ _ _ _ _ _ _ _ _ _ _ _ _ _
 72
65
 73
2
 40
0.762
 49
0.635
 74
0
 49
-0.127
 74
0
  0
LTYPE
  5
35
330
2
100
AcDbSymbolTableRecord
100
AcDbLinetypeTableRecord
  2
PHANTOM
 70
0
  3
Phantom ______  __  __  ______  __  __  ______
 72
65
 73
6
 40
6.35
 49
3.175
 74
0
 49
-0.635
 74
0
 49
0.635
 74
0
 49
-0.635
 74
0
 49
0.635
 74
0
 49
-0.635
 74
0
  0
LTYPE
  5
36
330
2
100
AcDbSymbolTableRecord
100
AcDbLinetypeTableRecord
  2
PHANTOMX2
 70
0
  3
Phantom (2x)____________    ____    ____    ____________
 72
65
 73
6
 40
10.795
 49
6.35
 74
0
 49
-0.635
 74
0
 49
1.27
 74
0
 49
-0.635
 74
0
 49
1.27
 74
0
 49
-0.635
 74
0
  0
LTYPE
  5
37
330
2
100
AcDbSymbolTableRecord
100
AcDbLinetypeTableRecord
  2
PHANTOM2
 70
0
  3
Phantom (.5x) ___ _ _ ___ _ _ ___ _ _ ___ _ _ ___
 72
65
 73
6
 40
3.175
 49
1.587
 74
0
 49
-0.318
 74
0
 49
0.318
 74
0
 49
-0.318
 74
0
 49
0.318
 74
0
 49
-0.318
 74
0
  0
LTYPE
  5
38
330
2
100
AcDbSymbolTableRecord
100
AcDbLinetypeTableRecord
  2
DASHDOT
 70
0
  3
Dash dot __ . __ . __ . __ . __ . __ . __ . __
 72
65
 73
4
 40
3.556
 49
2.54
 74
0
 49
-0.508
 74
0
 49
0.0
 74
0
 49
-0.508
 74
0
  0
LTYPE
  5
39
330
2
100
AcDbSymbolTableRecord
100
AcDbLinetypeTableRecord
  2
DASHDOTX2
 70
0
  3
Dash dot (2x) ____  .  ____  .  ____  .  ____
 72
65
 73
4
 40
6.096
 49
5.08
 74
0
 49
-0.508
 74
0
 49
0.0
 74
0
 49
-0.508
 74
0
  0
LTYPE
  5
3A
330
2
100
AcDbSymbolTableRecord
100
AcDbLinetypeTableRecord
  2
DASHDOT2
 70
0
  3
Dash dot (.5x) _ . _ . _ . _ . _ . _ . _ . _
 72
65
 73
4
 40
1.778
 49
1.27
 74
0
 49
-0.254
 74
0
 49
0.0
 74
0
 49
-0.254
 74
0
  0
LTYPE
  5
3B
330
2
100
AcDbSymbolTableRecord
100
AcDbLinetypeTableRecord
  2
DOT
 70
0
  3
Dot .  .  .  .  .  .  .  .  .  .  .  .  .  .  .  .
 72
65
 73
2
 40
0.508
 49
0.0
 74
0
 49
-0.508
 74
0
  0
LTYPE
  5
3C
330
2
100
AcDbSymbolTableRecord
100
AcDbLinetypeTableRecord
  2
DOTX2
 70
0
  3
Dot (2x) .    .    .    .    .    .    .    . 
 72
65
 73
2
 40
1.016
 49
0.0
 74
0
 49
-1.016
 74
0
  0
LTYPE
  5
3D
330
2
100
AcDbSymbolTableRecord
100
AcDbLinetypeTableRecord
  2
DOT2
 70
0
  3
Dot (.5) . . . . . . . . . . . . . . . . . . . 
 72
65
 73
2
 40
0.254
 49
0.0
 74
0
 49
-0.254
 74
0
  0
LTYPE
  5
3E
330
2
100
AcDbSymbolTableRecord
100
AcDbLinetypeTableRecord
  2
DIVIDE
 70
0
  3
Divide __ . . __ . . __ . . __ . . __ . . __
 72
65
 73
6
 40
4.064
 49
2.54
 74
0
 49
-0.508
 74
0
 49
0.0
 74
0
 49
-0.508
 74
0
 49
0.0
 74
0
 49
-0.508
 74
0
  0
LTYPE
  5
3F
330
2
100
AcDbSymbolTableRecord
100
AcDbLinetypeTableRecord
  2
DIVIDEX2
 70
0
  3
Divide (2x) ____  . .  ____  . .  ____  . .  ____
 72
65
 73
6
 40
6.604
 49
5.08
 74
0
 49
-0.508
 74
0
 49
0.0
 74
0
 49
-0.508
 74
0
 49
0.0
 74
0
 49
-0.508
 74
0
  0
LTYPE
  5
40
330
2
100
AcDbSymbolTableRecord
100
AcDbLinetypeTableRecord
  2
DIVIDE2
 70
0
  3
Divide(.5x) _ . _ . _ . _ . _ . _ . _ . _
 72
65
 73
6
 40
2.032
 49
1.27
 74
0
 49
-0.254
 74
0
 49
0.0
 74
0
 49
-0.254
 74
0
 49
0.0
 74
0
 49
-0.254
 74
0
  0
ENDTAB
  0
TABLE
  2
LAYER
  5
1
330
0
100
AcDbSymbolTable
 70
4
  0
LAYER
  5
27
330
1
100
AcDbSymbolTableRecord
100
AcDbLayerTableRecord
  2
0
 70
0
 62
7
  6
Continuous
370
-3
390
13
347
21
  0
LAYER
  5
28
330
1
100
AcDbSymbolTableRecord
100
AcDbLayerTableRecord
  2
Defpoints
 70
0
 62
7
  6
Continuous
290
0
370
-3
390
13
347
21
  0
LAYER
  5
8A
330
1
100
AcDbSymbolTableRecord
100
AcDbLayerTableRecord
  2
Layer
 70
0
 62
1
  6
Continuous
370
50
390
13
347
21
  0
LAYER
  5
8B
330
1
100
AcDbSymbolTableRecord
100
AcDbLayerTableRecord
  2
NumLabel
 70
0
 62
1
  6
Continuous
370
15
390
13
347
21
  0
ENDTAB
  0
TABLE
  2
STYLE
  5
5
330
0
100
AcDbSymbolTable
 70
26
  0
STYLE
  5
29
330
5
100
AcDbSymbolTableRecord
100
AcDbTextStyleTableRecord
  2
Standard
 70
0
 40
0.0
 41
1.0
 50
0.0
 71
0
 42
2.5
  3
txt
  4

  0
STYLE
  5
41
330
5
100
AcDbSymbolTableRecord
100
AcDbTextStyleTableRecord
  2
OpenSans-Light
 70
0
 40
0.0
 41
1.0
 50
0.0
 71
0
 42
2.5
  3
OpenSans-Light.ttf
  4

  0
STYLE
  5
42
330
5
100
AcDbSymbolTableRecord
100
AcDbTextStyleTableRecord
  2
OpenSans-Light-Italic
 70
0
 40
0.0
 41
1.0
 50
0.0
 71
0
 42
2.5
  3
OpenSans-LightItalic.ttf
  4

  0
STYLE
  5
43
330
5
100
AcDbSymbolTableRecord
100
AcDbTextStyleTableRecord
  2
OpenSans
 70
0
 40
0.0
 41
1.0
 50
0.0
 71
0
 42
2.5
  3
OpenSans-Regular.ttf
  4

  0
STYLE
  5
44
330
5
100
AcDbSymbolTableRecord
100
AcDbTextStyleTableRecord
  2
OpenSans-Italic
 70
0
 40
0.0
 41
1.0
 50
0.0
 71
0
 42
2.5
  3
OpenSans-Italic.ttf
  4

  0
STYLE
  5
45
330
5
100
AcDbSymbolTableRecord
100
AcDbTextStyleTableRecord
  2
OpenSans-SemiBold
 70
0
 40
0.0
 41
1.0
 50
0.0
 71
0
 42
2.5
  3
OpenSans-SemiBold.ttf
  4

  0
STYLE
  5
46
330
5
100
AcDbSymbolTableRecord
100
AcDbTextStyleTableRecord
  2
OpenSans-SemiBoldItalic
 70
0
 40
0.0
 41
1.0
 50
0.0
 71
0
 42
2.5
  3
OpenSans-SemiBoldItalic.ttf
  4

  0
STYLE
  5
47
330
5
100
AcDbSymbolTableRecord
100
AcDbTextStyleTableRecord
  2
OpenSans-Bold
 70
0
 40
0.0
 41
1.0
 50
0.0
 71
0
 42
2.5
  3
OpenSans-Bold.ttf
  4

  0
STYLE
  5
48
330
5
100
AcDbSymbolTableRecord
100
AcDbTextStyleTableRecord
  2
OpenSans-BoldItalic
 70
0
 40
0.0
 41
1.0
 50
0.0
 71
0
 42
2.5
  3
OpenSans-BoldItalic.ttf
  4

  0
STYLE
  5
49
330
5
100
AcDbSymbolTableRecord
100
AcDbTextStyleTableRecord
  2
OpenSans-ExtraBold
 70
0
 40
0.0
 41
1.0
 50
0.0
 71
0
 42
2.5
  3
OpenSans-ExtraBold.ttf
  4

  0
STYLE
  5
4A
330
5
100
AcDbSymbolTableRecord
100
AcDbTextStyleTableRecord
  2
OpenSans-ExtraBoldItalic
 70
0
 40
0.0
 41
1.0
 50
0.0
 71
0
 42
2.5
  3
OpenSans-ExtraBoldItalic.ttf
  4

  0
STYLE
  5
4B
330
5
100
AcDbSymbolTableRecord
100
AcDbTextStyleTableRecord
  2
OpenSansCondensed-Bold
 70
0
 40
0.0
 41
1.0
 50
0.0
 71
0
 42
2.5
  3
OpenSansCondensed-Bold.ttf
  4

  0
STYLE
  5
4C
330
5
100
AcDbSymbolTableRecord
100
AcDbTextStyleTableRecord
  2
OpenSansCondensed-Light
 70
0
 40
0.0
 41
1.0
 50
0.0
 71
0
 42
2.5
  3
OpenSansCondensed-Light.ttf
  4

  0
STYLE
  5
4D
330
5
100
AcDbSymbolTableRecord
100
AcDbTextStyleTableRecord
  2
OpenSansCondensed-Italic
 70
0
 40
0.0
 41
1.0
 50
0.0
 71
0
 42
2.5
  3
OpenSansCondensed-LightItalic.ttf
  4

  0
STYLE
  5
4E
330
5
100
AcDbSymbolTableRecord
100
AcDbTextStyleTableRecord
  2
LiberationSans
 70
0
 40
0.0
 41
1.0
 50
0.0
 71
0
 42
2.5
  3
LiberationSans-Regular.ttf
  4

  0
STYLE
  5
4F
330
5
100
AcDbSymbolTableRecord
100
AcDbTextStyleTableRecord
  2
LiberationSans-Bold
 70
0
 40
0.0
 41
1.0
 50
0.0
 71
0
 42
2.5
  3
LiberationSans-Bold.ttf
  4

  0
STYLE
  5
50
330
5
100
AcDbSymbolTableRecord
100
AcDbTextStyleTableRecord
  2
LiberationSans-BoldItalic
 70
0
 40
0.0
 41
1.0
 50
0.0
 71
0
 42
2.5
  3
LiberationSans-BoldItalic.ttf
  4

  0
STYLE
  5
51
330
5
100
AcDbSymbolTableRecord
100
AcDbTextStyleTableRecord
  2
LiberationSans-Italic
 70
0
 40
0.0
 41
1.0
 50
0.0
 71
0
 42
2.5
  3
LiberationSans-Italic.ttf
  4

  0
STYLE
  5
52
330
5
100
AcDbSymbolTableRecord
100
AcDbTextStyleTableRecord
  2
LiberationSerif
 70
0
 40
0.0
 41
1.0
 50
0.0
 71
0
 42
2.5
  3
LiberationSerif-Regular.ttf
  4

  0
STYLE
  5
53
330
5
100
AcDbSymbolTableRecord
100
AcDbTextStyleTableRecord
  2
LiberationSerif-Bold
 70
0
 40
0.0
 41
1.0
 50
0.0
 71
0
 42
2.5
  3
LiberationSerif-Bold.ttf
  4

  0
STYLE
  5
54
330
5
100
AcDbSymbolTableRecord
100
AcDbTextStyleTableRecord
  2
LiberationSerif-BoldItalic
 70
0
 40
0.0
 41
1.0
 50
0.0
 71
0
 42
2.5
  3
LiberationSerif-BoldItalic.ttf
  4

  0
STYLE
  5
55
330
5
100
AcDbSymbolTableRecord
100
AcDbTextStyleTableRecord
  2
LiberationSerif-Italic
 70
0
 40
0.0
 41
1.0
 50
0.0
 71
0
 42
2.5
  3
LiberationSerif-Italic.ttf
  4

  0
STYLE
  5
56
330
5
100
AcDbSymbolTableRecord
100
AcDbTextStyleTableRecord
  2
LiberationMono
 70
0
 40
0.0
 41
1.0
 50
0.0
 71
0
 42
2.5
  3
LiberationMono-Regular.ttf
  4

  0
STYLE
  5
57
330
5
100
AcDbSymbolTableRecord
100
AcDbTextStyleTableRecord
  2
LiberationMono-Bold
 70
0
 40
0.0
 41
1.0
 50
0.0
 71
0
 42
2.5
  3
LiberationMono-Bold.ttf
  4

  0
STYLE
  5
58
330
5
100
AcDbSymbolTableRecord
100
AcDbTextStyleTableRecord
  2
LiberationMono-BoldItalic
 70
0
 40
0.0
 41
1.0
 50
0.0
 71
0
 42
2.5
  3
LiberationMono-BoldItalic.ttf
  4

  0
STYLE
  5
59
330
5
100
AcDbSymbolTableRecord
100
AcDbTextStyleTableRecord
  2
LiberationMono-Italic
 70
0
 40
0.0
 41
1.0
 50
0.0
 71
0
 42
2.5
  3
LiberationMono-Italic.ttf
  4

  0
ENDTAB
  0
TABLE
  2
VIEW
  5
7
330
0
100
AcDbSymbolTable
 70
0
  0
ENDTAB
  0
TABLE
  2
UCS
  5
6
330
0
100
AcDbSymbolTable
 70
0
  0
ENDTAB
  0
TABLE
  2
APPID
  5
3
330
0
100
AcDbSymbolTable
 70
3
  0
APPID
  5
2A
330
3
100
AcDbSymbolTableRecord
100
AcDbRegAppTableRecord
  2
ACAD
 70
0
  0
APPID
  5
B6
330
3
100
AcDbSymbolTableRecord
100
AcDbRegAppTableRecord
  2
HATCHBACKGROUNDCOLOR
 70
0
  0
APPID
  5
B7
330
3
100
AcDbSymbolTableRecord
100
AcDbRegAppTableRecord
  2
EZDXF
 70
0
  0
ENDTAB
  0
TABLE
  2
DIMSTYLE
  5
4
330
0
100
AcDbSymbolTable
 70
12
100
AcDbDimStyleTable
  0
DIMSTYLE
105
2B
330
4
100
AcDbSymbolTableRecord
100
AcDbDimStyleTableRecord
  2
Standard
 70
0
 40
1.0
 41
2.5
 42
0.625
 43
3.75
 44
1.25
 45
0.0
 46
0.0
 47
0.0
 48
0.0
 49
2.5
140
2.5
141
2.5
142
0.0
143
0.03937007874
144
1.0
145
0.0
146
1.0
147
0.625
148
0.0
 69
0
 70
0
 71
0
 72
0
 73
0
 74
0
 75
0
 76
0
 77
1
 78
8
 79
3
170
0
171
3
172
1
173
0
174
0
175
0
176
0
177
0
178
0
179
2
271
2
272
2
273
2
274
3
275
0
276
0
277
2
278
44
279
0
280
0
281
0
282
0
283
0
284
8
285
0
286
0
288
0
289
3
290
0
371
-2
372
-2
  0
DIMSTYLE
105
73
330
4
100
AcDbSymbolTableRecord
100
AcDbDimStyleTableRecord
  2
EZDXF
 70
0
 40
1.0
 41
0.175
 42
0.125
 43
3.75
 44
0.375
 45
0.0
 46
0.0
 47
0.0
 48
0.0
 49
2.5
140
0.25
141
2.5
142
0.0
143
0.03937007874
144
100.0
145
0.0
146
0.5
147
0.1
148
0.0
 69
0
 70
0
 71
0
 72
0
 73
0
 74
0
 75
0
 76
0
 77
1
 78
12
 79
3
170
0
171
3
172
1
173
0
174
0
175
0
176
0
177
0
178
0
179
2
271
2
272
2
273
2
274
3
275
0
276
0
277
2
278
46
279
2
280
0
281
0
282
0
283
0
284
8
285
0
286
0
288
1
289
3
290
0
340
4C
342
74
371
-2
372
-2
  0
DIMSTYLE
105
7C
330
4
100
AcDbSymbolTableRecord
100
AcDbDimStyleTableRecord
  2
EZ_M_100_H25_CM
 70
0
 40
1.0
 41
0.25
 42
0.125
 43
3.75
 44
0.375
 45
0.0
 46
0.0
 47
0.0
 48
0.0
 49
2.5
140
0.25
141
2.5
142
0.125
143
0.03937007874
144
100.0
145
0.0
146
0.5
147
0.1
148
0.0
 69
0
 70
0
 71
0
 72
0
 73
0
 74
0
 75
0
 76
0
 77
1
 78
12
 79
3
170
0
171
3
172
1
173
0
174
0
175
0
176
0
177
0
178
0
179
2
271
2
272
2
273
2
274
3
275
0
276
0
277
2
278
46
279
2
280
0
281
0
282
0
283
0
284
8
285
0
286
0
288
1
289
3
290
0
340
4C
371
-2
372
-2
  0
DIMSTYLE
105
7D
330
4
100
AcDbSymbolTableRecord
100
AcDbDimStyleTableRecord
  2
EZ_M_50_H25_CM
 70
0
 40
1.0
 41
0.125
 42
0.0625
 43
3.75
 44
0.1875
 45
0.0
 46
0.0
 47
0.0
 48
0.0
 49
2.5
140
0.125
141
2.5
142
0.0625
143
0.03937007874
144
100.0
145
0.0
146
0.5
147
0.05
148
0.0
 69
0
 70
0
 71
0
 72
0
 73
0
 74
0
 75
0
 76
0
 77
1
 78
12
 79
3
170
0
171
3
172
1
173
0
174
0
175
0
176
0
177
0
178
0
179
2
271
2
272
2
273
2
274
3
275
0
276
0
277
2
278
46
279
2
280
0
281
0
282
0
283
0
284
8
285
0
286
0
288
1
289
3
290
0
340
4C
371
-2
372
-2
  0
DIMSTYLE
105
7E
330
4
100
AcDbSymbolTableRecord
100
AcDbDimStyleTableRecord
  2
EZ_M_25_H25_CM
 70
0
 40
1.0
 41
0.0625
 42
0.03125
 43
3.75
 44
0.09375
 45
0.0
 46
0.0
 47
0.0
 48
0.0
 49
2.5
140
0.0625
141
2.5
142
0.03125
143
0.03937007874
144
100.0
145
0.0
146
0.5
147
0.025
148
0.0
 69
0
 70
0
 71
0
 72
0
 73
0
 74
0
 75
0
 76
0
 77
1
 78
12
 79
3
170
0
171
3
172
1
173
0
174
0
175
0
176
0
177
0
178
0
179
2
271
2
272
2
273
2
274
3
275
0
276
0
277
2
278
46
279
2
280
0
281
0
282
0
283
0
284
8
285
0
286
0
288
1
289
3
290
0
340
4C
371
-2
372
-2
  0
DIMSTYLE
105
7F
330
4
100
AcDbSymbolTableRecord
100
AcDbDimStyleTableRecord
  2
EZ_M_20_H25_CM
 70
0
 40
1.0
 41
0.05
 42
0.025
 43
3.75
 44
0.07500000000000001
 45
0.0
 46
0.0
 47
0.0
 48
0.0
 49
2.5
140
0.05
141
2.5
142
0.025
143
0.03937007874
144
100.0
145
0.0
146
0.5
147
0.020000000000000004
148
0.0
 69
0
 70
0
 71
0
 72
0
 73
0
 74
0
 75
0
 76
0
 77
1
 78
12
 79
3
170
0
171
3
172
1
173
0
174
0
175
0
176
0
177
0
178
0
179
2
271
2
272
2
273
2
274
3
275
0
276
0
277
2
278
46
279
2
280
0
281
0
282
0
283
0
284
8
285
0
286
0
288
1
289
3
290
0
340
4C
371
-2
372
-2
  0
DIMSTYLE
105
80
330
4
100
AcDbSymbolTableRecord
100
AcDbDimStyleTableRecord
  2
EZ_M_10_H25_CM
 70
0
 40
1.0
 41
0.025
 42
0.0125
 43
3.75
 44
0.037500000000000006
 45
0.0
 46
0.0
 47
0.0
 48
0.0
 49
2.5
140
0.025
141
2.5
142
0.0125
143
0.03937007874
144
100.0
145
0.0
146
0.5
147
0.010000000000000002
148
0.0
 69
0
 70
0
 71
0
 72
0
 73
0
 74
0
 75
0
 76
0
 77
1
 78
12
 79
3
170
0
171
3
172
1
173
0
174
0
175
0
176
0
177
0
178
0
179
2
271
2
272
2
273
2
274
3
275
0
276
0
277
2
278
46
279
2
280
0
281
0
282
0
283
0
284
8
285
0
286
0
288
1
289
3
290
0
340
4C
371
-2
372
-2
  0
DIMSTYLE
105
81
330
4
100
AcDbSymbolTableRecord
100
AcDbDimStyleTableRecord
  2
EZ_M_5_H25_CM
 70
0
 40
1.0
 41
0.0125
 42
0.00625
 43
3.75
 44
0.018750000000000003
 45
0.0
 46
0.0
 47
0.0
 48
0.0
 49
2.5
140
0.0125
141
2.5
142
0.00625
143
0.03937007874
144
100.0
145
0.0
146
0.5
147
0.005000000000000001
148
0.0
 69
0
 70
0
 71
0
 72
0
 73
0
 74
0
 75
0
 76
0
 77
1
 78
12
 79
3
170
0
171
3
172
1
173
0
174
0
175
0
176
0
177
0
178
0
179
2
271
2
272
2
273
2
274
3
275
0
276
0
277
2
278
46
279
2
280
0
281
0
282
0
283
0
284
8
285
0
286
0
288
1
289
3
290
0
340
4C
371
-2
372
-2
  0
DIMSTYLE
105
82
330
4
100
AcDbSymbolTableRecord
100
AcDbDimStyleTableRecord
  2
EZ_M_1_H25_CM
 70
0
 40
1.0
 41
0.0025
 42
0.00125
 43
3.75
 44
0.00375
 45
0.0
 46
0.0
 47
0.0
 48
0.0
 49
2.5
140
0.0025
141
2.5
142
0.00125
143
0.03937007874
144
100.0
145
0.0
146
0.5
147
0.001
148
0.0
 69
0
 70
0
 71
0
 72
0
 73
0
 74
0
 75
0
 76
0
 77
1
 78
12
 79
3
170
0
171
3
172
1
173
0
174
0
175
0
176
0
177
0
178
0
179
2
271
2
272
2
273
2
274
3
275
0
276
0
277
2
278
46
279
2
280
0
281
0
282
0
283
0
284
8
285
0
286
0
288
1
289
3
290
0
340
4C
371
-2
372
-2
  0
DIMSTYLE
105
83
330
4
100
AcDbSymbolTableRecord
100
AcDbDimStyleTableRecord
  2
EZ_RADIUS
 70
0
 40
1.0
 41
0.25
 42
0.125
 43
3.75
 44
0.375
 45
0.0
 46
0.0
 47
0.0
 48
0.0
 49
2.5
140
0.25
141
0.0
142
0.0
143
0.03937007874
144
100.0
145
0.0
146
0.5
147
0.1
148
0.0
 69
0
 70
0
 71
0
 72
0
 73
0
 74
0
 75
0
 76
0
 77
1
 78
12
 79
3
170
0
171
3
172
0
173
0
174
0
175
0
176
0
177
0
178
0
179
2
271
2
272
2
273
2
274
3
275
0
276
0
277
2
278
46
279
1
280
0
281
0
282
0
283
0
284
8
285
0
286
0
288
1
289
3
290
0
340
4C
342
84
371
-2
372
-2
  0
DIMSTYLE
105
88
330
4
100
AcDbSymbolTableRecord
100
AcDbDimStyleTableRecord
  2
EZ_RADIUS_INSIDE
 70
0
 40
1.0
 41
0.25
 42
0.125
 43
3.75
 44
0.375
 45
0.0
 46
0.0
 47
0.0
 48
0.0
 49
2.5
140
0.25
141
0.0
142
0.0
143
0.03937007874
144
100.0
145
0.0
146
0.5
147
0.1
148
0.0
 69
0
 70
0
 71
0
 72
0
 73
0
 74
0
 75
0
 76
0
 77
0
 78
12
 79
3
170
0
171
3
172
0
173
0
174
1
175
0
176
0
177
0
178
0
179
2
271
2
272
2
273
2
274
3
275
0
276
0
277
2
278
46
279
0
280
0
281
0
282
0
283
0
284
8
285
0
286
0
288
1
289
0
290
0
340
4C
342
84
371
-2
372
-2
  0
DIMSTYLE
105
89
330
4
100
AcDbSymbolTableRecord
100
AcDbDimStyleTableRecord
  2
EZ_CURVED
 70
0
 40
1.0
 41
0.25
 42
0.125
 43
3.75
 44
0.375
 45
0.0
 46
0.0
 47
0.0
 48
0.0
 49
2.5
140
0.25
141
2.5
142
0.0
143
0.03937007874
144
100.0
145
0.0
146
0.5
147
0.1
148
0.0
 69
0
 70
0
 71
0
 72
0
 73
0
 74
0
 75
0
 76
0
 77
1
 78
12
 79
2
 90
2
170
0
171
3
172
1
173
0
174
0
175
0
176
0
177
0
178
0
179
2
271
2
272
2
273
2
274
3
275
0
276
0
277
2
278
46
279
2
280
0
281
0
282
0
283
0
284
8
285
0
286
0
288
1
289
3
290
0
340
4C
371
-2
372
-2
  0
ENDTAB
  0
TABLE
  2
BLOCK_RECORD
  5
9
330
0
100
AcDbSymbolTable
 70
5
  0
BLOCK_RECORD
  5
17
330
9
100
AcDbSymbolTableRecord
100
AcDbBlockTableRecord
  2
*Model_Space
340
1A
 70
0
280
1
281
0
  0
BLOCK_RECORD
  5
1B
330
9
100
AcDbSymbolTableRecord
100
AcDbBlockTableRecord
  2
*Paper_Space
340
1E
 70
0
280
1
281
0
  0
BLOCK_RECORD
  5
74
330
9
100
AcDbSymbolTableRecord
100
AcDbBlockTableRecord
  2
_ARCHTICK
340
0
 70
0
280
1
281
0
  0
BLOCK_RECORD
  5
78
330
9
100
AcDbSymbolTableRecord
100
AcDbBlockTableRecord
  2
_CLOSEDFILLED
340
0
 70
0
280
1
281
0
  0
BLOCK_RECORD
  5
84
330
9
100
AcDbSymbolTableRecord
100
AcDbBlockTableRecord
  2
_CLOSEDBLANK
340
0
 70
0
280
1
281
0
  0
ENDTAB
  0
ENDSEC
  0
SECTION
  2
BLOCKS
  0
BLOCK
  5
18
330
17
100
AcDbEntity
  8
0
100
AcDbBlockBegin
  2
*Model_Space
 70
0
 10
0.0
 20
0.0
 30
0.0
  3
*Model_Space
  1

  0
ENDBLK
  5
19
330
17
100
AcDbEntity
  8
0
100
AcDbBlockEnd
  0
BLOCK
  5
1C
330
1B
100
AcDbEntity
  8
0
100
AcDbBlockBegin
  2
*Paper_Space
 70
0
 10
0.0
 20
0.0
 30
0.0
  3
*Paper_Space
  1

  0
ENDBLK
  5
1D
330
1B
100
AcDbEntity
  8
0
100
AcDbBlockEnd
  0
BLOCK
  5
75
330
74
100
AcDbEntity
  8
0
100
AcDbBlockBegin
  2
_ARCHTICK
 70
0
 10
0.0
 20
0.0
 30
0.0
  3
_ARCHTICK
  1

  0
LWPOLYLINE
  5
77
330
74
100
AcDbEntity
  8
0
  6
BYBLOCK
 62
0
100
AcDbPolyline
 90
2
 70
0
 43
0.15
 10
-0.5
 20
-0.5
 10
0.5
 20
0.5
  0
ENDBLK
  5
76
330
74
100
AcDbEntity
  8
0
100
AcDbBlockEnd
  0
BLOCK
  5
79
330
78
100
AcDbEntity
  8
0
100
AcDbBlockBegin
  2
_CLOSEDFILLED
 70
0
 10
0.0
 20
0.0
 30
0.0
  3
_CLOSEDFILLED
  1

  0
SOLID
  5
7B
330
78
100
AcDbEntity
  8
0
  6
BYBLOCK
 62
0
100
AcDbTrace
 10
-1.0
 20
0.16439898372402537
 30
0.0
 11
0.0
 21
0.0
 31
0.0
 12
-1.0
 22
-0.16439898372402537
 32
0.0
 13
-1.0
 23
-0.16439898372402537
 33
0.0
  0
ENDBLK
  5
7A
330
78
100
AcDbEntity
  8
0
100
AcDbBlockEnd
  0
BLOCK
  5
85
330
84
100
AcDbEntity
  8
0
100
AcDbBlockBegin
  2
_CLOSEDBLANK
 70
0
 10
0.0
 20
0.0
 30
0.0
  3
_CLOSEDBLANK
  1

  0
LWPOLYLINE
  5
87
330
84
100
AcDbEntity
  8
0
  6
BYBLOCK
 62
0
100
AcDbPolyline
 90
3
 70
1
 10
-1.0
 20
0.16439898372402537
 10
0.0
 20
0.0
 10
-1.0
 20
-0.16439898372402537
  0
ENDBLK
  5
86
330
84
100
AcDbEntity
  8
0
100
AcDbBlockEnd
  0
ENDSEC
  0
SECTION
  2
ENTITIES
  0
LWPOLYLINE
  5
8C
330
17
100
AcDbEntity
  8
Layer
100
AcDbPolyline
 90
171
 70
1
 10
453.56538064184883
 20
199.7999418779129
 10
453.56538064184883
 20
199.7999418779129
 10
451.66534961806525
 20
200.36013452240365
 10
446.1873154639615
 20
201.9498293030215
 10
440.7122862403916
 20
203.50919537622502
 10
435.24631249430166
 20
205.04057161122068
 10
429.78377468395365
 20
206.53939139372775
 10
424.3221386964583
 20
208.00971595019317
 10
418.86741313557513
 20
209.44944029463727
 10
413.4174254974085
 20
210.85343078723898
 10
407.9637642417026
 20
212.2213229623301
 10
402.5037022359718
 20
213.55612037797746
 10
397.0361490270492
 20
214.85989844152994
 10
391.56695521020544
 20
216.13454212470046
 10
386.0987825442396
 20
217.37508322738364
 10
380.6272675896689
 20
218.58060116101183
 10
375.15220079532793
 20
219.74960840482248
 10
369.66386422867527
 20
220.88517019024567
 10
364.1782694638379
 20
221.99248614417786
 10
358.6937870710535
 20
223.05766373033882
 10
353.1932991440409
 20
224.08590552074327
 10
347.68396687440685
 20
225.08447753902152
 10
342.1750241917224
 20
226.05110775499904
 10
336.6642015314396
 20
226.98053068895797
 10
331.14668640010785
 20
227.87277290701857
 10
325.6200878183919
 20
228.73014972082387
 10
320.0862312761645
 20
229.55506493416473
 10
314.54906358401945
 20
230.347481781381
 10
309.0086345002495
 20
231.10387169322706
 10
303.4562708720673
 20
231.82527974144114
 10
297.8998112862961
 20
232.51727224319927
 10
292.34362365799956
 20
233.1753023349295
 10
286.78479083990044
 20
233.79817754832655
 10
281.224552041086
 20
234.38548986681917
 10
275.65988790510573
 20
234.93548953646015
 10
270.0861496675916
 20
235.45282494239424
 10
264.5198615891001
 20
235.94029032806984
 10
258.95498488441496
 20
236.38674341851828
 10
253.38586283172006
 20
236.7997849477953
 10
247.82555171779543
 20
237.17807968635037
 10
242.2680980691601
 20
237.51612779820928
 10
236.70996265490402
 20
237.81643813656603
 10
231.15702689795862
 20
238.08069466806006
 10
225.60829022701955
 20
238.30559651629727
 10
220.0622378887513
 20
238.49292519504903
 10
214.52499875435026
 20
238.64420762508462
 10
209.0014354410004
 20
238.75554419528964
 10
203.4871235893633
 20
238.82142664172582
 10
197.97268377130982
 20
238.84597536298102
 10
192.47714197530954
 20
238.83431686763086
 10
186.990904434024
 20
238.77226326887572
 10
181.51026502004663
 20
238.67226347774098
 10
176.05107264671332
 20
238.52972218010171
 10
170.6059195290049
 20
238.34178716813787
 10
165.18411262640467
 20
238.10917164652005
 10
159.7789719224781
 20
237.82550736795463
 10
154.39117639045665
 20
237.49438747472908
 10
149.02167576371502
 20
237.11535380290124
 10
143.67784855346167
 20
236.69159611354038
 10
138.36338089752178
 20
236.2165142064669
 10
133.07367344974682
 20
235.69010706636863
 10
127.81414894894492
 20
235.11495877728666
 10
122.58975039089296
 20
234.49289006472384
 10
117.41529247146195
 20
233.82470618110057
 10
112.29379393855422
 20
233.10148912292698
 10
107.21827818870258
 20
232.32146430736245
 10
102.20146721805858
 20
231.49359616366237
 10
97.24754889547805
 20
230.61066756133349
 10
92.35820463485368
 20
229.67486607254156
 10
87.53420302465312
 20
228.68786634307332
 10
82.78820023487984
 20
227.66062141945395
 10
78.1378954465514
 20
226.590231173528
 10
73.58319642742322
 20
225.47204389537205
 10
69.12916466468207
 20
224.30584984901594
 10
64.77283262341314
 20
223.0896776308443
 10
60.522246199485295
 20
221.82512204053342
 10
56.36733965564869
 20
220.50729342174748
 10
52.32973075826709
 20
219.15319548229576
 10
48.41200741676866
 20
217.74098668800093
 10
44.61759728686613
 20
216.28226115179848
 10
40.96847848676964
 20
214.77502852284093
 10
37.47291484347721
 20
213.22017840264232
 10
34.16332117649128
 20
211.63115788378408
 10
31.073483876766034
 20
210.02035258397558
 10
28.220398534670323
 20
208.39144906799845
 10
25.641751865979273
 20
206.79839367224167
 10
23.360428168133183
 20
205.2561620479204
 10
21.370967096359948
 20
203.78136655862633
 10
19.650734411493517
 20
202.3864467937786
 10
18.18883137567653
 20
201.1039259390756
 10
16.93265133657829
 20
199.870250994559
 10
15.85580681150276
 20
198.73986401229809
 10
14.946723003238048
 20
197.69601495182332
 10
14.173842358192388
 20
196.70133343797184
 10
13.512372953303355
 20
195.75448558574493
 10
12.952348548879712
 20
194.873586256865
 10
12.477712148975428
 20
194.02937791437185
 10
12.069415501350079
 20
193.21184814282316
 10
11.722996473651392
 20
192.45135072909582
 10
11.433297007093842
 20
191.72725265584785
 10
11.190851549284758
 20
191.02659841438773
 10
10.992698098269472
 20
190.37345867352047
 10
10.83338228784973
 20
189.73261749688658
 10
10.706419415948858
 20
189.124393480545
 10
10.618637922555962
 20
188.64623168090182
 10
10.596412812660873
 20
188.05792295098448
 10
10.586027697663724
 20
187.45044974979888
 10
10.595268043930929
 20
186.8683082699627
 10
10.641486889103987
 20
186.2888810197367
 10
10.741635626721404
 20
185.69170892031963
 10
10.908171215706943
 20
185.0675940751479
 10
11.146848070365223
 20
184.41971006770405
 10
11.465572208545723
 20
183.74976797609557
 10
11.875616235892778
 20
183.05668516715787
 10
12.386234344110335
 20
182.34175962054368
 10
13.00405302937591
 20
181.60962785653297
 10
13.740981319592748
 20
180.8643991315407
 10
14.616124090995697
 20
180.10881117188015
 10
15.659715954190801
 20
179.341076159966
 10
16.902804369121128
 20
178.55420135898493
 10
18.354632693654167
 20
177.74333747106772
 10
20.027522403944744
 20
176.91615061464597
 10
21.97888031836561
 20
176.08810472793
 10
24.25765376592514
 20
175.25875278781487
 10
26.86150019809901
 20
174.4172520597652
 10
29.74844619835727
 20
173.57662096006666
 10
32.907157850651544
 20
172.7786946322026
 10
36.311369610164604
 20
172.01950907925584
 10
39.87853847240842
 20
171.3008527989436
 10
43.57903602353181
 20
170.64471334462573
 10
47.41198115619122
 20
170.05242455599435
 10
51.382233644263835
 20
169.49809089207065
 10
55.43561777388928
 20
168.95399684725604
 10
59.513146835058166
 20
168.43695836108108
 10
63.65330724180694
 20
167.98311929780402
 10
67.91252974901181
 20
167.56815707158688
 10
72.25556679688896
 20
167.15378105141602
 10
76.66139114426602
 20
166.7493897829932
 10
81.13333517249791
 20
166.36692099520127
 10
85.6856533925087
 20
166.0149592646883
 10
90.34313105772065
 20
165.69149903120885
 10
95.11449008702851
 20
165.38580234313957
 10
99.99827513322606
 20
165.09310762769115
 10
104.9896588033998
 20
164.8093907032219
 10
110.0682043784015
 20
164.53708504273317
 10
115.23802423512686
 20
164.28755833006105
 10
120.4901518443033
 20
164.04849488551156
 10
125.83700633907536
 20
163.8412008974824
 10
126.27232153912655
 20
163.82602887476344
 10
126.22007382121551
 20
162.32693909227106
 10
131.22918754308034
 20
162.1523566582533
 10
136.75224528273026
 20
161.9710743453145
 10
142.33957066233387
 20
161.80588364632516
 10
147.98005920785755
 20
161.65488959071993
 10
153.6619449241957
 20
161.51799747588697
 10
159.37859375773058
 20
161.39687842559937
 10
165.12919045190424
 20
161.29233200675574
 10
170.9118703228621
 20
161.20136051133085
 10
176.7171880039184
 20
161.11988579441908
 10
182.53477224937313
 20
161.04658483914886
 10
188.36257981195558
 20
160.98254547806522
 10
194.2053797673259
 20
160.9266470101644
 10
200.06536437453693
 20
160.87608480709855
 10
205.93750135835558
 20
160.83034162102953
 10
211.8163236197257
 20
160.7897529871454
 10
217.69895174745653
 20
160.7536282190597
 10
223.579805334278
 20
160.72124300644305
 10
229.46070916243923
 20
160.69603349537363
 10
235.34922354795094
 20
160.67866381085494
 10
244.59403572149589
 20
160.66255848912368
 10
453.56538064184883
 20
199.7999418779129
  0
LWPOLYLINE
  5
8D
330
17
100
AcDbEntity
  8
Layer
100
AcDbPolyline
 90
5
 70
0
 10
396.2582125096809
 20
210.93400761428197
 10
392.36260693302495
 20
211.84189372560152
 10
393.27049304434456
 20
215.73749930225748
 10
397.1660986210005
 20
214.82961319093792
 10
396.2582125096809
 20
210.93400761428197
  0
LWPOLYLINE
  5
8E
330
17
100
AcDbEntity
  8
Layer
100
AcDbPolyline
 90
5
 70
0
 10
173.86606100824747
 20
234.45190405415022
 10
169.86844267313762
 20
234.3138908417628
 10
169.7304294607502
 20
238.31150917687265
 10
173.72804779586005
 20
238.44952238926007
 10
173.86606100824747
 20
234.45190405415022
  0
LWPOLYLINE
  5
8F
330
17
100
AcDbEntity
  8
Layer
100
AcDbPolyline
 90
5
 70
0
 10
73.60765623478416
 20
221.3435670939327
 10
69.7381385013196
 20
220.33023964912368
 10
68.72481105651057
 20
224.19975738258827
 10
72.59432878997514
 20
225.2130848273973
 10
73.60765623478416
 20
221.3435670939327
  0
LWPOLYLINE
  5
90
330
17
100
AcDbEntity
  8
Layer
100
AcDbPolyline
 90
5
 70
0
 10
23.644927294645434
 20
199.1872532041955
 10
22.09213993597742
 20
197.92675670727024
 10
18.940898693664316
 20
201.8087251039403
 10
20.49368605233233
 20
203.06922160086557
 10
23.644927294645434
 20
199.1872532041955
  0
LWPOLYLINE
  5
91
330
17
100
AcDbEntity
  8
Layer
100
AcDbPolyline
 90
5
 70
0
 10
17.53833760452998
 20
184.16615286935323
 10
19.15258634624172
 20
182.98538998041997
 10
16.200679123908536
 20
178.94976812614058
 10
14.586430382196792
 20
180.13053101507384
 10
17.53833760452998
 20
184.16615286935323
  0
LWPOLYLINE
  5
92
330
17
100
AcDbEntity
  8
Layer
100
AcDbPolyline
 90
5
 70
0
 10
95.01310752090905
 20
169.39905513351815
 10
99.0059434883911
 20
169.15976255782547
 10
98.76665091269842
 20
165.16692659034342
 10
94.77381494521637
 20
165.4062191660361
 10
95.01310752090905
 20
169.39905513351815
  0
LWPOLYLINE
  5
93
330
17
100
AcDbEntity
  8
Layer
100
AcDbPolyline
 90
300
 70
1
 10
265.6389793577981
 20
200.0
 10
265.63216507622315
 20
200.65470069914826
 10
265.6117252404931
 20
201.30911230089833
 10
265.57766887626406
 20
201.96294583550937
 10
265.53001102186767
 20
202.61591258849862
 10
265.4687727216709
 20
203.2677242281297
 10
265.3939810167832
 20
203.9180929327319
 10
265.3056689331159
 20
204.56673151779376
 10
265.2038754667991
 20
205.21335356277612
 10
265.0886455669619
 20
205.85767353758706
 10
264.96003011588425
 20
206.49940692866403
 10
264.8180859065286
 20
207.13827036460708
 10
264.662875617462
 20
207.77398174130764
 10
264.49446778517876
 20
208.40626034651777
 10
264.31293677383667
 20
209.03482698380475
 10
264.11836274242006
 20
209.65940409583644
 10
263.9108316093437
 20
210.2797158869427
 10
263.69043501451375
 20
210.89548844489914
 10
263.45727027886204
 20
211.50644986187882
 10
263.211440361372
 20
212.1123303545193
 10
262.9530538136148
 20
212.71286238305123
 10
262.68222473181606
 20
213.30778076943648
 10
262.39907270647416
 20
213.89682281446326
 10
262.1037227695524
 20
214.4797284137467
 10
261.7963053392685
 20
215.05624017258364
 10
261.4769561625055
 20
215.6261035196108
 10
261.1458162548698
 20
216.18906681921652
 10
260.8030318384227
 20
216.74488148265567
 10
260.44875427711276
 20
217.29330207781973
 10
260.0831400099376
 20
217.83408643761254
 10
259.70635048186523
 20
218.36699576688454
 10
259.3185520725442
 20
218.89179474787792
 10
258.9199160228351
 20
219.40825164413639
 10
258.51061835919535
 20
219.91613840283335
 10
258.0908398159511
 20
220.41523075547383
 10
257.6607657554897
 20
220.90530831692487
 10
257.22058608640924
 20
221.38615468273161
 10
256.77049517966003
 20
221.85755752467531
 10
256.3106917827159
 20
222.31930868453145
 10
255.84137893181287
 20
222.77120426598668
 10
255.36276386229432
 20
223.21304472467364
 10
254.87505791710132
 20
223.64463495628405
 10
254.37847645344982
 20
224.0657843827214
 10
253.8732387477348
 20
224.4763070362548
 10
253.35956789870409
 20
224.8760216416372
 10
252.8376907289442
 20
225.26475169615122
 10
252.30783768472185
 20
225.64232554754804
 10
251.7702427342254
 20
226.00857646984397
 10
251.22514326425107
 20
226.36334273694212
 10
250.67277997537965
 20
226.70646769404604
 10
250.1133967756898
 20
227.037799826834
 10
249.54724067305526
 20
227.35719282836357
 10
248.974561666073
 20
227.66450566367655
 10
248.3956126336709
 20
227.9596026320761
 10
247.81064922344365
 20
228.24235342704824
 10
247.21992973876576
 20
228.5126331938017
 10
246.62371502473223
 20
228.77032258440013
 10
246.02226835297668
 20
229.01530781046296
 10
245.41585530541792
 20
229.24748069341095
 10
244.80474365698657
 20
229.4667387122349
 10
244.189203257383
 20
229.67298504876607
 10
243.5695059119196
 20
229.86612863042836
 10
242.94592526149887
 20
230.04608417045327
 10
242.31873666178157
 20
230.2127722055403
 10
241.6882170615972
 20
230.3661191309456
 10
241.05464488065138
 20
230.50605723298386
 10
240.41829988658344
 20
230.63252471892855
 10
239.77946307142892
 20
230.74546574429817
 10
239.13841652754135
 20
230.84483043751527
 10
238.49544332302838
 20
230.9305749219286
 10
237.85082737675668
 20
231.0026613351876
 10
237.2048533329814
 20
231.06105784596156
 10
236.55780643565538
 20
231.10573866799518
 10
235.9099724024734
 20
231.13668407149532
 10
235.2616372987072
 20
231.1538803918429
 10
234.61308741088723
 20
231.15732003562698
 10
233.9646091203865
 20
231.14700148399768
 10
233.31648877696279
 20
231.12292929333694
 10
232.6690125723143
 20
231.0851140932465
 10
232.02246641370587
 20
231.03357258185412
 10
231.37713579772014
 20
230.96832751844033
 10
230.73330568419027
 20
230.8894077133884
 10
230.0912603703699
 20
230.79684801546256
 10
229.45128336539523
 20
230.69068929641975
 10
228.81365726509563
 20
230.57097843296182
 10
228.17866362720707
 20
230.43776828603606
 10
227.54658284704422
 20
230.29111767749333
 10
226.91769403368582
 20
230.13109136411398
 10
226.29227488672788
 20
229.95776000901307
 10
225.67060157365947
 20
229.77120015043758
 10
225.0529486079148
 20
229.57149416796912
 10
224.43958872765592
 20
229.35873024614764
 10
223.83079277533912
 20
229.13300233553144
 10
223.2268295781187
 20
228.89441011121136
 10
222.62796582914024
 20
228.64305892879702
 10
222.03446596977662
 20
228.37905977789475
 10
221.446592072858
 20
228.1025292330977
 10
220.864603726948
 20
227.8135894025098
 10
220.28875792171647
 20
227.51236787382624
 10
219.7193089344603
 20
227.19899765799437
 10
219.15650821782157
 20
226.87361713047974
 10
218.60060428875335
 20
226.53636997016355
 10
218.05184261878134
 20
226.1874050958978
 10
217.51046552561073
 20
225.82687660074725
 10
216.97671206612546
 20
225.45494368394606
 10
216.4508179308275
 20
225.07177058059995
 10
215.93301533976245
 20
224.67752648916462
 10
215.42353293997775
 20
224.27238549673237
 10
214.92259570455872
 20
223.85652650216034
 10
214.43042483328648
 20
223.43013313707354
 10
213.94723765496266
 20
222.99339368477862
 10
213.47324753144292
 20
222.54650099712293
 10
213.00866376342242
 20
222.08965240933682
 10
212.55369149801456
 20
221.62304965289587
 10
212.10853163816378
 20
221.14689876644186
 10
211.67338075393238
 20
220.66141000480212
 10
211.2484309957009
 20
220.16679774614664
 10
210.83387000931967
 20
219.66328039732505
 10
210.42988085324998
 20
219.1510802974239
 10
210.03664191773035
 20
218.63042361958833
 10
209.6543268460046
 20
218.10154027115018
 10
209.2831044576458
 20
217.56466379210747
 10
208.9231386740103
 20
217.0200312519996
 10
208.5745884458547
 20
216.4678831452243
 10
208.23760768314764
 20
215.9084632848419
 10
207.9123451871076
 20
215.34201869491443
 10
207.59894458449625
 20
214.76879950142677
 10
207.29754426419717
 20
214.1890588218379
 10
207.008277316107
 20
213.60305265331166
 10
206.73127147236687
 20
213.01103975967527
 10
206.4666490509593
 20
212.41328155715672
 10
206.21452690169613
 20
211.81004199895065
 10
205.97501635462103
 20
211.20158745866414
 10
205.74822317084903
 20
210.58818661269342
 10
205.5342474958656
 20
209.97011032158414
 10
205.33318381530518
 20
209.3476315104269
 10
205.14512091322888
 20
208.72102504834126
 10
204.97014183292012
 20
208.0905676271011
 10
204.8083238402149
 20
207.45653763895564
 10
204.65973838938342
 20
206.81921505369888
 10
204.5244510915779
 20
206.1788812950432
 10
204.4025216858606
 20
205.53581911635018
 10
204.2940040128246
 20
204.89031247577506
 10
204.19894599081942
 20
204.24264641087856
 10
204.11738959479158
 20
203.5931069127624
 10
204.04937083774968
 20
202.94198079978364
 10
203.994919754862
 20
202.28955559090383
 10
203.95406039019392
 20
201.63611937872872
 10
203.92681078609058
 20
200.98196070229457
 10
203.9131829752101
 20
200.32736841965763
 10
203.9131829752101
 20
199.67263158034237
 10
203.92681078609058
 20
199.01803929770543
 10
203.95406039019392
 20
198.36388062127128
 10
203.994919754862
 20
197.71044440909617
 10
204.04937083774968
 20
197.05801920021636
 10
204.11738959479158
 20
196.40689308723762
 10
204.19894599081942
 20
195.75735358912144
 10
204.2940040128246
 20
195.10968752422494
 10
204.4025216858606
 20
194.46418088364982
 10
204.5244510915779
 20
193.82111870495683
 10
204.65973838938342
 20
193.1807849463011
 10
204.8083238402149
 20
192.54346236104436
 10
204.97014183292012
 20
191.9094323728989
 10
205.14512091322888
 20
191.27897495165877
 10
205.33318381530515
 20
190.6523684895731
 10
205.5342474958656
 20
190.02988967841588
 10
205.74822317084903
 20
189.4118133873066
 10
205.97501635462103
 20
188.79841254133586
 10
206.21452690169613
 20
188.18995800104935
 10
206.4666490509593
 20
187.58671844284328
 10
206.73127147236687
 20
186.98896024032476
 10
207.008277316107
 20
186.39694734668834
 10
207.29754426419717
 20
185.8109411781621
 10
207.59894458449625
 20
185.23120049857326
 10
207.91234518710758
 20
184.65798130508557
 10
208.23760768314764
 20
184.0915367151581
 10
208.5745884458547
 20
183.5321168547757
 10
208.9231386740103
 20
182.9799687480004
 10
209.28310445764578
 20
182.43533620789253
 10
209.6543268460046
 20
181.89845972884982
 10
210.03664191773035
 20
181.36957638041167
 10
210.42988085324998
 20
180.8489197025761
 10
210.83387000931967
 20
180.33671960267495
 10
211.2484309957009
 20
179.83320225385333
 10
211.67338075393238
 20
179.33858999519788
 10
212.10853163816375
 20
178.85310123355814
 10
212.55369149801456
 20
178.37695034710416
 10
213.00866376342242
 20
177.91034759066318
 10
213.47324753144292
 20
177.45349900287707
 10
213.94723765496266
 20
177.00660631522138
 10
214.43042483328648
 20
176.56986686292646
 10
214.92259570455872
 20
176.1434734978397
 10
215.42353293997775
 20
175.72761450326763
 10
215.93301533976242
 20
175.32247351083538
 10
216.4508179308275
 20
174.92822941940005
 10
216.97671206612546
 20
174.54505631605394
 10
217.51046552561073
 20
174.17312339925275
 10
218.05184261878134
 20
173.8125949041022
 10
218.60060428875335
 20
173.46363002983645
 10
219.1565082178216
 20
173.12638286952023
 10
219.7193089344603
 20
172.80100234200563
 10
220.28875792171647
 20
172.48763212617376
 10
220.864603726948
 20
172.1864105974902
 10
221.44659207285804
 20
171.8974707669023
 10
222.0344659697766
 20
171.62094022210528
 10
222.62796582914024
 20
171.35694107120298
 10
223.22682957811867
 20
171.10558988878864
 10
223.83079277533912
 20
170.86699766446856
 10
224.43958872765592
 20
170.64126975385236
 10
225.0529486079148
 20
170.42850583203088
 10
225.67060157365947
 20
170.22879984956242
 10
226.29227488672788
 20
170.04223999098693
 10
226.91769403368582
 20
169.86890863588602
 10
227.54658284704422
 20
169.70888232250667
 10
228.17866362720707
 20
169.56223171396394
 10
228.81365726509563
 20
169.42902156703818
 10
229.45128336539523
 20
169.30931070358025
 10
230.0912603703699
 20
169.20315198453744
 10
230.73330568419027
 20
169.1105922866116
 10
231.37713579772011
 20
169.03167248155967
 10
232.02246641370587
 20
168.96642741814588
 10
232.6690125723143
 20
168.9148859067535
 10
233.31648877696276
 20
168.87707070666306
 10
233.9646091203865
 20
168.85299851600232
 10
234.6130874108872
 20
168.84267996437302
 10
235.26163729870717
 20
168.8461196081571
 10
235.9099724024734
 20
168.86331592850468
 10
236.55780643565538
 20
168.89426133200482
 10
237.2048533329814
 20
168.93894215403844
 10
237.85082737675668
 20
168.9973386648124
 10
238.49544332302838
 20
169.0694250780714
 10
239.13841652754138
 20
169.15516956248473
 10
239.77946307142892
 20
169.25453425570183
 10
240.41829988658344
 20
169.36747528107145
 10
241.05464488065138
 20
169.49394276701614
 10
241.6882170615972
 20
169.6338808690544
 10
242.31873666178154
 20
169.7872277944597
 10
242.94592526149887
 20
169.95391582954673
 10
243.5695059119196
 20
170.13387136957164
 10
244.189203257383
 20
170.32701495123393
 10
244.80474365698655
 20
170.5332612877651
 10
245.41585530541792
 20
170.75251930658905
 10
246.02226835297668
 20
170.98469218953704
 10
246.62371502473223
 20
171.22967741559987
 10
247.21992973876576
 20
171.4873668061983
 10
247.81064922344365
 20
171.75764657295178
 10
248.3956126336709
 20
172.0403973679239
 10
248.974561666073
 20
172.33549433632345
 10
249.54724067305528
 20
172.64280717163643
 10
250.1133967756898
 20
172.96220017316597
 10
250.67277997537963
 20
173.29353230595396
 10
251.22514326425107
 20
173.63665726305788
 10
251.7702427342254
 20
173.99142353015603
 10
252.30783768472185
 20
174.35767445245196
 10
252.83769072894418
 20
174.73524830384875
 10
253.35956789870409
 20
175.1239783583628
 10
253.8732387477348
 20
175.5236929637452
 10
254.37847645344982
 20
175.9342156172786
 10
254.87505791710132
 20
176.35536504371595
 10
255.36276386229432
 20
176.78695527532636
 10
255.84137893181287
 20
177.22879573401332
 10
256.3106917827159
 20
177.68069131546855
 10
256.77049517966003
 20
178.1424424753247
 10
257.22058608640924
 20
178.61384531726839
 10
257.6607657554897
 20
179.0946916830751
 10
258.0908398159511
 20
179.58476924452617
 10
258.51061835919535
 20
180.08386159716662
 10
258.9199160228351
 20
180.59174835586361
 10
259.3185520725442
 20
181.10820525212205
 10
259.70635048186523
 20
181.63300423311546
 10
260.0831400099376
 20
182.16591356238743
 10
260.44875427711276
 20
182.70669792218027
 10
260.8030318384227
 20
183.25511851734433
 10
261.1458162548698
 20
183.81093318078348
 10
261.4769561625055
 20
184.3738964803892
 10
261.7963053392685
 20
184.94375982741636
 10
262.1037227695524
 20
185.5202715862533
 10
262.39907270647416
 20
186.10317718553674
 10
262.68222473181606
 20
186.69221923056352
 10
262.9530538136148
 20
187.28713761694877
 10
263.211440361372
 20
187.88766964548068
 10
263.45727027886204
 20
188.49355013812115
 10
263.69043501451375
 20
189.10451155510083
 10
263.9108316093437
 20
189.72028411305726
 10
264.11836274242006
 20
190.34059590416356
 10
264.31293677383667
 20
190.96517301619525
 10
264.49446778517876
 20
191.59373965348223
 10
264.662875617462
 20
192.22601825869236
 10
264.8180859065286
 20
192.86172963539292
 10
264.96003011588425
 20
193.50059307133597
 10
265.0886455669619
 20
194.14232646241294
 10
265.2038754667991
 20
194.78664643722388
 10
265.3056689331159
 20
195.43326848220624
 10
265.3939810167832
 20
196.08190706726813
 10
265.4687727216709
 20
196.73227577187026
 10
265.53001102186767
 20
197.38408741150138
 10
265.57766887626406
 20
198.03705416449063
 10
265.6117252404931
 20
198.69088769910164
 10
265.63216507622315
 20
199.34529930085174
 10
265.6389793577981
 20
200.0
  0
LINE
  5
94
330
17
100
AcDbEntity
  8
Layer
 62
7
100
AcDbLine
 10
17.064767265050648
 20
200.00000000000003
 30
0.0
 11
452.88683435556027
 21
199.99999999999997
 31
0.0
  0
LINE
  5
95
330
17
100
AcDbEntity
  8
Layer
 62
7
100
AcDbLine
 10
102.12918068315258
 20
200.00000000000003
 30
0.0
 11
114.12918068315258
 21
200.00000000000003
 31
0.0
  0
LWPOLYLINE
  5
96
330
17
100
AcDbEntity
  8
Layer
100
AcDbPolyline
 90
5
 70
0
 10
108.12918068315258
 20
205.00000000000003
 10
113.12918068315258
 20
200.00000000000003
 10
108.12918068315258
 20
195.00000000000003
 10
103.12918068315258
 20
200.00000000000003
 10
108.12918068315258
 20
205.00000000000003
  0
LINE
  5
97
330
17
100
AcDbEntity
  8
Layer
 62
7
100
AcDbLine
 10
228.9758008103055
 20
200.0
 30
0.0
 11
240.9758008103055
 21
200.0
 31
0.0
  0
LWPOLYLINE
  5
98
330
17
100
AcDbEntity
  8
Layer
100
AcDbPolyline
 90
5
 70
0
 10
234.9758008103055
 20
205.0
 10
239.9758008103055
 20
200.0
 10
234.9758008103055
 20
195.0
 10
229.9758008103055
 20
200.0
 10
234.9758008103055
 20
205.0
  0
LINE
  5
99
330
17
100
AcDbEntity
  8
Layer
 62
7
100
AcDbLine
 10
355.8224209374584
 20
199.99999999999997
 30
0.0
 11
367.8224209374584
 21
199.99999999999997
 31
0.0
  0
LWPOLYLINE
  5
9A
330
17
100
AcDbEntity
  8
Layer
100
AcDbPolyline
 90
5
 70
0
 10
361.8224209374584
 20
204.99999999999997
 10
366.8224209374584
 20
199.99999999999997
 10
361.8224209374584
 20
194.99999999999997
 10
356.8224209374584
 20
199.99999999999997
 10
361.8224209374584
 20
204.99999999999997
  0
LINE
  5
9B
330
17
100
AcDbEntity
  8
Layer
 62
7
100
AcDbLine
 10
10.613424819556911
 20
188.50823848227463
 30
0.0
 11
310.70283558579587
 21
173.04380361461193
 31
0.0
  0
LINE
  5
9C
330
17
100
AcDbEntity
  8
Layer
 62
7
100
AcDbLine
 10
68.53408983770794
 20
185.5234268910298
 30
0.0
 11
80.51818775254645
 21
184.90585327795725
 31
0.0
  0
LWPOLYLINE
  5
9D
330
17
100
AcDbEntity
  8
Layer
100
AcDbPolyline
 90
5
 70
0
 10
74.78346113390742
 20
190.20801421567623
 10
79.5195129263099
 20
184.95731774571328
 10
74.26881645634697
 20
180.2212659533108
 10
69.53276466394449
 20
185.47196242327374
 10
74.78346113390742
 20
190.20801421567623
  0
LINE
  5
9E
330
17
100
AcDbEntity
  8
Layer
 62
7
100
AcDbLine
 10
140.31074934399894
 20
181.82457769432125
 30
0.0
 11
152.29484725883745
 21
181.20700408124873
 31
0.0
  0
LWPOLYLINE
  5
9F
330
17
100
AcDbEntity
  8
Layer
100
AcDbPolyline
 90
5
 70
0
 10
146.56012064019842
 20
186.5091650189677
 10
151.2961724326009
 20
181.25846854900476
 10
146.04547596263797
 20
176.52241675660227
 10
141.30942417023547
 20
181.77311322656521
 10
146.56012064019842
 20
186.5091650189677
  0
LINE
  5
A0
330
17
100
AcDbEntity
  8
Layer
100
AcDbLine
 10
234.77522935779817
 20
231.15774999999996
 30
0.0
 11
234.77522935779817
 21
232.15774999999996
 31
0.0
  0
LINE
  5
A1
330
17
100
AcDbEntity
  8
Layer
100
AcDbLine
 10
234.77522935779817
 20
168.84225000000004
 30
0.0
 11
234.77522935779817
 21
167.84225000000004
 31
0.0
  0
LINE
  5
A2
330
17
100
AcDbEntity
  8
Layer
100
AcDbLine
 10
265.6389793577981
 20
200.0
 30
0.0
 11
266.6389793577981
 21
200.0
 31
0.0
  0
LINE
  5
A3
330
17
100
AcDbEntity
  8
Layer
100
AcDbLine
 10
203.9114793577982
 20
200.0
 30
0.0
 11
202.9114793577982
 21
200.0
 31
0.0
  0
LINE
  5
A4
330
17
100
AcDbEntity
  8
Layer
 62
7
100
AcDbLine
 10
154.77522935779817
 20
161.4944102384644
 30
0.0
 11
154.77522935779817
 21
237.51799037071564
 31
0.0
  0
LINE
  5
A5
330
17
100
AcDbEntity
  8
Layer
 62
7
100
AcDbLine
 10
154.77522935779817
 20
184.05266328475236
 30
0.0
 11
154.77522935779817
 21
196.05266328475236
 31
0.0
  0
LWPOLYLINE
  5
A6
330
17
100
AcDbEntity
  8
Layer
100
AcDbPolyline
 90
5
 70
0
 10
149.77522935779817
 20
190.05266328475236
 10
154.77522935779817
 20
195.05266328475236
 10
159.77522935779817
 20
190.05266328475236
 10
154.77522935779817
 20
185.05266328475236
 10
149.77522935779817
 20
190.05266328475236
  0
LINE
  5
A7
330
17
100
AcDbEntity
  8
Layer
 62
7
100
AcDbLine
 10
154.77522935779817
 20
202.9597373244277
 30
0.0
 11
154.77522935779817
 21
214.9597373244277
 31
0.0
  0
LWPOLYLINE
  5
A8
330
17
100
AcDbEntity
  8
Layer
100
AcDbPolyline
 90
5
 70
0
 10
149.77522935779817
 20
208.9597373244277
 10
154.77522935779817
 20
213.9597373244277
 10
159.77522935779817
 20
208.9597373244277
 10
154.77522935779817
 20
203.9597373244277
 10
149.77522935779817
 20
208.9597373244277
  0
LINE
  5
A9
330
17
100
AcDbEntity
  8
Layer
 62
7
100
AcDbLine
 10
364.77522935779814
 20
183.17079976621835
 30
0.0
 11
364.77522935779814
 21
221.87198449526332
 31
0.0
  0
LINE
  5
AA
330
17
100
AcDbEntity
  8
Layer
 62
7
100
AcDbLine
 10
364.77522935779814
 20
192.6662144213841
 30
0.0
 11
364.77522935779814
 21
204.6662144213841
 31
0.0
  0
LWPOLYLINE
  5
AB
330
17
100
AcDbEntity
  8
Layer
100
AcDbPolyline
 90
5
 70
0
 10
359.77522935779814
 20
198.6662144213841
 10
364.77522935779814
 20
203.6662144213841
 10
369.77522935779814
 20
198.6662144213841
 10
364.77522935779814
 20
193.6662144213841
 10
359.77522935779814
 20
198.6662144213841
  0
LINE
  5
AC
330
17
100
AcDbEntity
  8
Layer
 62
7
100
AcDbLine
 10
364.77522935779814
 20
200.3765698400976
 30
0.0
 11
364.77522935779814
 21
212.3765698400976
 31
0.0
  0
LWPOLYLINE
  5
AD
330
17
100
AcDbEntity
  8
Layer
100
AcDbPolyline
 90
5
 70
0
 10
359.77522935779814
 20
206.3765698400976
 10
364.77522935779814
 20
211.3765698400976
 10
369.77522935779814
 20
206.3765698400976
 10
364.77522935779814
 20
201.3765698400976
 10
359.77522935779814
 20
206.3765698400976
  0
LWPOLYLINE
  5
AE
330
17
100
AcDbEntity
  8
NumLabel
 62
1
100
AcDbPolyline
 90
2
 70
0
 10
180.6238532110092
 20
180.4243119266055
 10
178.6238532110092
 20
180.4243119266055
  0
LWPOLYLINE
  5
AF
330
17
100
AcDbEntity
  8
NumLabel
 62
1
100
AcDbPolyline
 90
4
 70
0
 10
177.6238532110092
 20
180.4243119266055
 10
175.6238532110092
 20
180.4243119266055
 10
175.6238532110092
 20
170.4243119266055
 10
177.6238532110092
 20
170.4243119266055
  0
LWPOLYLINE
  5
B0
330
17
100
AcDbEntity
  8
NumLabel
 62
1
100
AcDbPolyline
 90
4
 70
0
 10
178.6238532110092
 20
170.4243119266055
 10
180.6238532110092
 20
170.4243119266055
 10
180.6238532110092
 20
175.4243119266055
 10
178.6238532110092
 20
175.4243119266055
  0
LWPOLYLINE
  5
B1
330
17
100
AcDbEntity
  8
NumLabel
 62
1
100
AcDbPolyline
 90
2
 70
0
 10
177.6238532110092
 20
175.4243119266055
 10
175.6238532110092
 20
175.4243119266055
  0
LWPOLYLINE
  5
B2
330
17
100
AcDbEntity
  8
NumLabel
 62
1
100
AcDbPolyline
 90
4
 70
0
 10
185.1238532110092
 20
180.4243119266055
 10
183.1238532110092
 20
180.4243119266055
 10
183.1238532110092
 20
170.4243119266055
 10
185.1238532110092
 20
170.4243119266055
  0
LWPOLYLINE
  5
B3
330
17
100
AcDbEntity
  8
NumLabel
 62
1
100
AcDbPolyline
 90
4
 70
0
 10
186.1238532110092
 20
170.4243119266055
 10
188.1238532110092
 20
170.4243119266055
 10
188.1238532110092
 20
180.4243119266055
 10
186.1238532110092
 20
180.4243119266055
  0
LWPOLYLINE
  5
B4
330
17
100
AcDbEntity
  8
NumLabel
 62
1
100
AcDbPolyline
 90
2
 70
0
 10
183.1238532110092
 20
175.4243119266055
 10
185.1238532110092
 20
175.4243119266055
  0
LWPOLYLINE
  5
B5
330
17
100
AcDbEntity
  8
NumLabel
 62
1
100
AcDbPolyline
 90
2
 70
0
 10
186.1238532110092
 20
175.4243119266055
 10
188.1238532110092
 20
175.4243119266055
  0
ENDSEC
  0
SECTION
  2
OBJECTS
  0
DICTIONARY
  5
A
330
0
100
AcDbDictionary
280
0
281
1
  3
ACAD_COLOR
350
B
  3
ACAD_GROUP
350
C
  3
ACAD_LAYOUT
350
D
  3
ACAD_MATERIAL
350
E
  3
ACAD_MLEADERSTYLE
350
F
  3
ACAD_MLINESTYLE
350
10
  3
ACAD_PLOTSETTINGS
350
11
  3
ACAD_PLOTSTYLENAME
350
12
  3
ACAD_SCALELIST
350
14
  3
ACAD_TABLESTYLE
350
15
  3
ACAD_VISUALSTYLE
350
16
  3
EZDXF_META
350
2D
  0
DICTIONARY
  5
B
330
A
100
AcDbDictionary
280
0
281
1
  0
DICTIONARY
  5
C
330
A
100
AcDbDictionary
280
0
281
1
  0
DICTIONARY
  5
D
330
A
100
AcDbDictionary
280
0
281
1
  3
Model
350
1A
  3
Layout1
350
1E
  0
DICTIONARY
  5
E
330
A
100
AcDbDictionary
280
0
281
1
  3
ByBlock
350
1F
  3
ByLayer
350
20
  3
Global
350
21
  0
DICTIONARY
  5
F
330
A
100
AcDbDictionary
280
0
281
1
  3
Standard
350
2C
  0
DICTIONARY
  5
10
330
A
100
AcDbDictionary
280
0
281
1
  3
Standard
350
22
  0
DICTIONARY
  5
11
330
A
100
AcDbDictionary
280
0
281
1
  0
ACDBDICTIONARYWDFLT
  5
12
330
A
100
AcDbDictionary
280
0
281
1
  3
Normal
350
13
100
AcDbDictionaryWithDefault
340
13
  0
ACDBPLACEHOLDER
  5
13
330
12
  0
DICTIONARY
  5
14
330
A
100
AcDbDictionary
280
0
281
1
  0
DICTIONARY
  5
15
330
A
100
AcDbDictionary
280
0
281
1
  0
DICTIONARY
  5
16
330
A
100
AcDbDictionary
280
0
281
1
  3
2dWireframe
350
5A
  3
Basic
350
5B
  3
Brighten
350
5C
  3
ColorChange
350
5D
  3
Conceptual
350
5E
  3
Dim
350
5F
  3
EdgeColorOff
350
60
  3
Facepattern
350
61
  3
Flat
350
62
  3
FlatWithEdges
350
63
  3
Gouraud
350
64
  3
GouraudWithEdges
350
65
  3
Hidden
350
66
  3
JitterOff
350
67
  3
Linepattern
350
68
  3
Modeling
350
69
  3
OverhangOff
350
6A
  3
Realistic
350
6B
  3
Shaded
350
6C
  3
Shaded with edges
350
6D
  3
Shades of Gray
350
6E
  3
Sketchy
350
6F
  3
Thicken
350
70
  3
Wireframe
350
71
  3
X-Ray
350
72
  0
LAYOUT
  5
1A
330
D
100
AcDbPlotSettings
  1

  2
Adobe PDF
  4
A3
  6

 40
7.5
 41
20.0
 42
7.5
 43
20.0
 44
420.0
 45
297.0
 46
0.0
 47
0.0
 48
0.0
 49
0.0
140
0.0
141
0.0
142
1.0
143
1.0
 70
1024
 72
1
 73
0
 74
5
  7

 75
16
 76
0
 77
2
 78
300
147
1.0
148
0.0
149
0.0
100
AcDbLayout
  1
Model
 70
1
 71
0
 10
0.0
 20
0.0
 11
420.0
 21
297.0
 12
0.0
 22
0.0
 32
0.0
 14
1e+20
 24
1e+20
 34
1e+20
 15
-1e+20
 25
-1e+20
 35
-1e+20
146
0.0
 13
0.0
 23
0.0
 33
0.0
 16
1.0
 26
0.0
 36
0.0
 17
0.0
 27
1.0
 37
0.0
 76
1
330
17
  0
LAYOUT
  5
1E
330
D
100
AcDbPlotSettings
  1

  2
Adobe PDF
  4
A3
  6

 40
7.5
 41
20.0
 42
7.5
 43
20.0
 44
420.0
 45
297.0
 46
0.0
 47
0.0
 48
0.0
 49
0.0
140
0.0
141
0.0
142
1.0
143
1.0
 70
0
 72
1
 73
0
 74
5
  7

 75
16
 76
0
 77
2
 78
300
147
1.0
148
0.0
149
0.0
100
AcDbLayout
  1
Layout1
 70
1
 71
1
 10
0.0
 20
0.0
 11
420.0
 21
297.0
 12
0.0
 22
0.0
 32
0.0
 14
1e+20
 24
1e+20
 34
1e+20
 15
-1e+20
 25
-1e+20
 35
-1e+20
146
0.0
 13
0.0
 23
0.0
 33
0.0
 16
1.0
 26
0.0
 36
0.0
 17
0.0
 27
1.0
 37
0.0
 76
1
330
1B
  0
MATERIAL
  5
1F
102
{ACAD_REACTORS
330
E
102
}
330
E
100
AcDbMaterial
  1
ByBlock
  2

 70
0
 40
1.0
 71
1
 41
1.0
 91
-1023410177
 42
1.0
 72
1
  3

 73
1
 74
1
 75
1
 44
0.5
 73
0
 45
1.0
 46
1.0
 77
1
  4

 78
1
 79
1
170
1
 48
1.0
171
1
  6

172
1
173
1
174
1
140
1.0
141
1.0
175
1
  7

176
1
177
1
178
1
143
1.0
179
1
  8

270
1
271
1
272
1
145
1.0
146
1.0
273
1
  9

274
1
275
1
276
1
 42
1.0
 72
1
  3

 73
1
 74
1
 75
1
 94
63
  0
MATERIAL
  5
20
102
{ACAD_REACTORS
330
E
102
}
330
E
100
AcDbMaterial
  1
ByLayer
  2

 70
0
 40
1.0
 71
1
 41
1.0
 91
-1023410177
 42
1.0
 72
1
  3

 73
1
 74
1
 75
1
 44
0.5
 73
0
 45
1.0
 46
1.0
 77
1
  4

 78
1
 79
1
170
1
 48
1.0
171
1
  6

172
1
173
1
174
1
140
1.0
141
1.0
175
1
  7

176
1
177
1
178
1
143
1.0
179
1
  8

270
1
271
1
272
1
145
1.0
146
1.0
273
1
  9

274
1
275
1
276
1
 42
1.0
 72
1
  3

 73
1
 74
1
 75
1
 94
63
  0
MATERIAL
  5
21
102
{ACAD_REACTORS
330
E
102
}
330
E
100
AcDbMaterial
  1
Global
  2

 70
0
 40
1.0
 71
1
 41
1.0
 91
-1023410177
 42
1.0
 72
1
  3

 73
1
 74
1
 75
1
 44
0.5
 73
0
 45
1.0
 46
1.0
 77
1
  4

 78
1
 79
1
170
1
 48
1.0
171
1
  6

172
1
173
1
174
1
140
1.0
141
1.0
175
1
  7

176
1
177
1
178
1
143
1.0
179
1
  8

270
1
271
1
272
1
145
1.0
146
1.0
273
1
  9

274
1
275
1
276
1
 42
1.0
 72
1
  3

 73
1
 74
1
 75
1
 94
63
  0
MLINESTYLE
  5
22
102
{ACAD_REACTORS
330
10
102
}
330
10
100
AcDbMlineStyle
  2
Standard
 70
0
  3

 62
256
 51
90.0
 52
90.0
 71
2
 49
0.5
 62
256
  6
BYLAYER
 49
-0.5
 62
256
  6
BYLAYER
  0
MLEADERSTYLE
  5
2C
102
{ACAD_REACTORS
330
F
102
}
330
F
100
AcDbMLeaderStyle
179
2
170
2
171
1
172
0
 90
2
 40
0.0
 41
0.0
173
1
 91
-1056964608
 92
-2
290
1
 42
2.0
291
1
 43
8.0
  3
Standard
 44
4.0
300

342
29
174
1
175
1
176
0
178
1
 93
-1056964608
 45
4.0
292
0
297
0
 46
4.0
 94
-1056964608
 47
1.0
 49
1.0
140
1.0
294
1
141
0.0
177
0
142
1.0
295
0
296
0
143
3.75
271
0
272
9
273
9
  0
DICTIONARY
  5
2D
330
A
100
AcDbDictionary
281
1
  3
CREATED_BY_EZDXF
350
2E
  3
WRITTEN_BY_EZDXF
350
B8
  0
DICTIONARYVAR
  5
2E
330
2D
100
DictionaryVariables
280
0
  1
1.3.0 @ 2026-01-06T17:07:23.934747+00:00
  0
VISUALSTYLE
  5
5A
102
{ACAD_REACTORS
330
16
102
}
330
16
100
AcDbVisualStyle
  2
2dWireframe
 70
4
 90
0
 40
0.6
 62
7
290
0
291
0
  0
VISUALSTYLE
  5
5B
102
{ACAD_REACTORS
330
16
102
}
330
16
100
AcDbVisualStyle
  2
Basic
 70
7
 90
1
 40
0.6
 62
7
290
0
291
1
  0
VISUALSTYLE
  5
5C
102
{ACAD_REACTORS
330
16
102
}
330
16
100
AcDbVisualStyle
  2
Brighten
 70
12
 90
2
 40
0.6
 62
7
290
0
291
1
  0
VISUALSTYLE
  5
5D
102
{ACAD_REACTORS
330
16
102
}
330
16
100
AcDbVisualStyle
  2
ColorChange
 70
16
 90
2
 40
0.6
 62
8
290
0
291
1
  0
VISUALSTYLE
  5
5E
102
{ACAD_REACTORS
330
16
102
}
330
16
100
AcDbVisualStyle
  2
Conceptual
 70
9
 90
3
 40
0.6
 62
7
290
0
291
0
  0
VISUALSTYLE
  5
5F
102
{ACAD_REACTORS
330
16
102
}
330
16
100
AcDbVisualStyle
  2
Dim
 70
11
 90
2
 40
0.6
 62
7
290
0
291
1
  0
VISUALSTYLE
  5
60
102
{ACAD_REACTORS
330
16
102
}
330
16
100
AcDbVisualStyle
  2
EdgeColorOff
 70
22
 90
2
 40
0.6
 62
7
290
0
291
1
  0
VISUALSTYLE
  5
61
102
{ACAD_REACTORS
330
16
102
}
330
16
100
AcDbVisualStyle
  2
Facepattern
 70
15
 90
2
 40
0.6
 62
7
290
0
291
1
  0
VISUALSTYLE
  5
62
102
{ACAD_REACTORS
330
16
102
}
330
16
100
AcDbVisualStyle
  2
Flat
 70
0
 90
2
 40
0.6
 62
7
290
0
291
1
  0
VISUALSTYLE
  5
63
102
{ACAD_REACTORS
330
16
102
}
330
16
100
AcDbVisualStyle
  2
FlatWithEdges
 70
1
 90
2
 40
0.6
 62
7
290
0
291
1
  0
VISUALSTYLE
  5
64
102
{ACAD_REACTORS
330
16
102
}
330
16
100
AcDbVisualStyle
  2
Gouraud
 70
2
 90
2
 40
0.6
 62
7
290
0
291
1
  0
VISUALSTYLE
  5
65
102
{ACAD_REACTORS
330
16
102
}
330
16
100
AcDbVisualStyle
  2
GouraudWithEdges
 70
3
 90
2
 40
0.6
 62
7
290
0
291
1
  0
VISUALSTYLE
  5
66
102
{ACAD_REACTORS
330
16
102
}
330
16
100
AcDbVisualStyle
  2
Hidden
 70
6
 90
1
 40
0.6
 62
7
290
0
291
0
  0
VISUALSTYLE
  5
67
102
{ACAD_REACTORS
330
16
102
}
330
16
100
AcDbVisualStyle
  2
JitterOff
 70
20
 90
2
 40
0.6
 62
7
290
0
291
1
  0
VISUALSTYLE
  5
68
102
{ACAD_REACTORS
330
16
102
}
330
16
100
AcDbVisualStyle
  2
Linepattern
 70
14
 90
2
 40
0.6
 62
7
290
0
291
1
  0
VISUALSTYLE
  5
69
102
{ACAD_REACTORS
330
16
102
}
330
16
100
AcDbVisualStyle
  2
Modeling
 70
10
 90
2
 40
0.6
 62
7
290
0
291
0
  0
VISUALSTYLE
  5
6A
102
{ACAD_REACTORS
330
16
102
}
330
16
100
AcDbVisualStyle
  2
OverhangOff
 70
21
 90
2
 40
0.6
 62
7
290
0
291
1
  0
VISUALSTYLE
  5
6B
102
{ACAD_REACTORS
330
16
102
}
330
16
100
AcDbVisualStyle
  2
Realistic
 70
8
 90
2
 40
0.6
 62
7
290
0
291
0
  0
VISUALSTYLE
  5
6C
102
{ACAD_REACTORS
330
16
102
}
330
16
100
AcDbVisualStyle
  2
Shaded
 70
27
 90
2
 40
0.6
 62
7
290
0
291
0
  0
VISUALSTYLE
  5
6D
102
{ACAD_REACTORS
330
16
102
}
330
16
100
AcDbVisualStyle
  2
Shaded with edges
 70
26
 90
2
 40
0.6
 62
7
290
0
291
0
  0
VISUALSTYLE
  5
6E
102
{ACAD_REACTORS
330
16
102
}
330
16
100
AcDbVisualStyle
  2
Shades of Gray
 70
23
 90
2
 40
0.6
 62
7
290
0
291
0
  0
VISUALSTYLE
  5
6F
102
{ACAD_REACTORS
330
16
102
}
330
16
100
AcDbVisualStyle
  2
Sketchy
 70
24
 90
1
 40
0.6
 62
7
290
0
291
0
  0
VISUALSTYLE
  5
70
102
{ACAD_REACTORS
330
16
102
}
330
16
100
AcDbVisualStyle
  2
Thicken
 70
13
 90
2
 40
0.6
 62
7
290
0
291
1
  0
VISUALSTYLE
  5
71
102
{ACAD_REACTORS
330
16
102
}
330
16
100
AcDbVisualStyle
  2
Wireframe
 70
5
 90
0
 40
0.6
 62
7
290
0
291
0
  0
VISUALSTYLE
  5
72
102
{ACAD_REACTORS
330
16
102
}
330
16
100
AcDbVisualStyle
  2
X-Ray
 70
25
 90
2
 40
0.5
 62
7
290
0
291
0
  0
DICTIONARYVAR
  5
B8
330
2D
100
DictionaryVariables
280
0
  1
1.3.0 @ 2026-01-06T17:07:24.000231+00:00
  0
ENDSEC
  0
EOF
