<?xml version="1.0" encoding="utf-8" standalone="no"?>
<!DOCTYPE svg PUBLIC "-//W3C//DTD SVG 1.1//EN"
  "http://www.w3.org/Graphics/SVG/1.1/DTD/svg11.dtd">
<svg xmlns:xlink="http://www.w3.org/1999/xlink" width="1152pt" height="309.341668pt" viewBox="0 0 1152 309.341668" xmlns="http://www.w3.org/2000/svg" version="1.1">
 <metadata>
  <rdf:RDF xmlns:dc="http://purl.org/dc/elements/1.1/" xmlns:cc="http://creativecommons.org/ns#" xmlns:rdf="http://www.w3.org/1999/02/22-rdf-syntax-ns#">
   <cc:Work>
    <dc:type rdf:resource="http://purl.org/dc/dcmitype/StillImage"/>
    <dc:date>2026-01-07T02:07:23.596288</dc:date>
    <dc:format>image/svg+xml</dc:format>
    <dc:creator>
     <cc:Agent>
      <dc:title>Matplotlib v3.10.1, https://matplotlib.org/</dc:title>
     </cc:Agent>
    </dc:creator>
   </cc:Work>
  </rdf:RDF>
 </metadata>
 <defs>
  <style type="text/css">*{stroke-linejoin: round; stroke-linecap: butt}</style>
 </defs>
 <g id="figure_1">
  <g id="patch_1">
   <path d="M 0 309.341668 
L 1152 309.341668 
L 1152 0 
L 0 0 
z
" style="fill: #ffffff"/>
  </g>
  <g id="axes_1">
   <g id="patch_2">
    <path d="M 0 309.341668 
L 1152 309.341668 
L 1152 0 
L 0 0 
z
" style="fill: #212830"/>
   </g>
   <g id="patch_3">
    <path d="M 1099.636363 254.644709 
L 1099.636364 39.56522 
L 1087.116863 37.920561 
L 1066.979996 35.417638 
L 1046.825727 33.03892 
L 1026.665173 30.796212 
L 1006.49042 28.692195 
L 986.306247 26.726438 
L 966.11057 24.903154 
L 945.895598 23.212727 
L 925.700085 21.649365 
L 905.511229 20.23884 
L 885.320273 18.963056 
L 865.161572 17.826611 
L 845.020868 16.844203 
L 824.890267 16.0093 
L 804.787961 15.317702 
L 784.715362 14.778821 
L 764.669443 14.390099 
L 744.664813 14.147831 
L 724.717327 14.060985 
L 704.821122 14.144159 
L 684.954826 14.389531 
L 665.164173 14.784813 
L 645.431616 15.36365 
L 625.753876 16.097705 
L 606.169278 17.00029 
L 586.662666 18.077705 
L 567.26271 19.327918 
L 547.958842 20.768251 
L 528.754404 22.391568 
L 509.656635 24.1979 
L 490.691143 26.179649 
L 471.871575 28.354259 
L 453.191384 30.720514 
L 434.676373 33.267664 
L 416.3538 35.990514 
L 398.267553 38.887797 
L 380.434664 41.976233 
L 362.857549 45.253284 
L 345.582732 48.694893 
L 328.631012 52.313925 
L 312.022128 56.094109 
L 295.777436 60.021754 
L 279.940309 64.064165 
L 264.56071 68.217916 
L 249.648626 72.480663 
L 235.222648 76.844219 
L 221.274777 81.306809 
L 207.818852 85.855841 
L 194.825482 90.495296 
L 182.339925 95.180203 
L 170.35282 99.964417 
L 158.860164 104.817116 
L 147.899563 109.741627 
L 137.478988 114.735922 
L 127.663384 119.770608 
L 118.520571 124.818966 
L 110.074903 129.877245 
L 102.40986 134.814978 
L 95.568793 139.601256 
L 89.52978 144.2018 
L 84.228496 148.593553 
L 79.632942 152.696497 
L 75.598927 156.670523 
L 72.063196 160.37447 
L 68.993588 163.846369 
L 66.314028 167.172611 
L 63.968249 170.3573 
L 61.936044 173.361979 
L 60.176782 176.263382 
L 58.640375 179.092674 
L 57.31174 181.783387 
L 56.171742 184.382827 
L 54.369986 189.315838 
L 53.131675 193.907933 
L 52.741462 195.693945 
L 52.387776 200.416978 
L 52.363636 202.296964 
L 52.466041 204.412452 
L 52.742737 206.568095 
L 53.225091 208.779922 
L 53.932583 211.039223 
L 54.893308 213.345635 
L 56.143105 215.706271 
L 57.708469 218.118789 
L 59.603137 220.568396 
L 61.849315 223.039922 
L 64.488358 225.523207 
L 67.593815 228.022497 
L 71.247199 230.55598 
L 75.472231 233.131076 
L 80.293487 235.725769 
L 85.852532 238.310588 
L 92.273855 240.893142 
L 99.548677 243.497511 
L 107.57036 246.08783 
L 116.327335 248.568793 
L 125.765066 250.949271 
L 135.685304 253.222879 
L 146.028007 255.341236 
L 156.804488 257.306153 
L 179.601139 261.036339 
L 191.364206 262.825149 
L 203.445701 264.466891 
L 228.964955 267.581733 
L 256.053978 270.61681 
L 270.276632 272.040989 
L 300.439457 274.717422 
L 333.041477 277.252276 
L 350.214613 278.461795 
L 386.209442 280.68443 
L 424.265113 282.568603 
L 462.50793 284.135008 
L 462.306434 289.352336 
L 484.167889 290.115225 
L 525.587811 291.316381 
L 567.81618 292.259308 
L 610.500304 293.053352 
L 653.422832 293.65228 
L 740.237377 294.551798 
L 783.714935 294.890019 
L 849.247983 295.177189 
L 882.080691 295.280683 
L 1099.636363 254.644709 
L 1099.636363 254.644709 
" clip-path="url(#pabd2913fa6)" style="fill: none; stroke: #ff0000; stroke-width: 0.72; stroke-linejoin: miter"/>
   </g>
   <g id="patch_4">
    <path d="M 655.641338 223.69949 
L 648.679716 223.69949 
" clip-path="url(#pabd2913fa6)" style="fill: none; stroke: #ff0000; stroke-width: 0.72; stroke-linejoin: miter"/>
   </g>
   <g id="patch_5">
    <path d="M 645.198905 223.69949 
L 638.237283 223.69949 
L 638.237283 258.507602 
L 645.198905 258.507602 
" clip-path="url(#pabd2913fa6)" style="fill: none; stroke: #ff0000; stroke-width: 0.72; stroke-linejoin: miter"/>
   </g>
   <g id="patch_6">
    <path d="M 648.679716 258.507602 
L 655.641338 258.507602 
L 655.641338 241.103546 
L 648.679716 241.103546 
" clip-path="url(#pabd2913fa6)" style="fill: none; stroke: #ff0000; stroke-width: 0.72; stroke-linejoin: miter"/>
   </g>
   <g id="patch_7">
    <path d="M 645.198905 241.103546 
L 638.237283 241.103546 
" clip-path="url(#pabd2913fa6)" style="fill: none; stroke: #ff0000; stroke-width: 0.72; stroke-linejoin: miter"/>
   </g>
   <g id="patch_8">
    <path d="M 664.343366 223.69949 
L 664.343366 241.103546 
L 681.747422 241.103546 
L 681.747422 223.69949 
L 681.747422 258.507602 
" clip-path="url(#pabd2913fa6)" style="fill: none; stroke: #ff0000; stroke-width: 0.72; stroke-linejoin: miter"/>
   </g>
   <g id="patch_9">
    <path d="M 632.69736 29.715657 
L 618.788885 30.356805 
L 618.147738 16.44833 
L 632.056213 15.807183 
L 632.69736 29.715657 
" clip-path="url(#pabd2913fa6)" style="fill: none; stroke: #ff0000; stroke-width: 0.72; stroke-linejoin: miter"/>
   </g>
   <g id="patch_10">
    <path d="M 276.598113 79.389212 
L 263.156612 83.020024 
L 259.5258 69.578524 
L 272.9673 65.947711 
L 276.598113 79.389212 
" clip-path="url(#pabd2913fa6)" style="fill: none; stroke: #ff0000; stroke-width: 0.72; stroke-linejoin: miter"/>
   </g>
   <g id="patch_11">
    <path d="M 98.943579 159.005115 
L 93.584976 163.449163 
L 82.474857 150.052655 
L 87.83346 145.608607 
L 98.943579 159.005115 
" clip-path="url(#pabd2913fa6)" style="fill: none; stroke: #ff0000; stroke-width: 0.72; stroke-linejoin: miter"/>
   </g>
   <g id="patch_12">
    <path d="M 76.31187 212.892346 
L 82.040521 216.847943 
L 72.15153 231.16957 
L 66.422879 227.213974 
L 76.31187 212.892346 
" clip-path="url(#pabd2913fa6)" style="fill: none; stroke: #ff0000; stroke-width: 0.72; stroke-linejoin: miter"/>
   </g>
   <g id="patch_13">
    <path d="M 351.846256 264.614549 
L 365.741003 265.504916 
L 364.850637 279.399662 
L 350.95589 278.509296 
L 351.846256 264.614549 
" clip-path="url(#pabd2913fa6)" style="fill: none; stroke: #ff0000; stroke-width: 0.72; stroke-linejoin: miter"/>
   </g>
   <g id="patch_14">
    <path d="M 964.271091 153.644174 
L 964.168387 148.714468 
L 963.860455 143.793468 
L 963.347839 138.889865 
L 962.631446 134.01232 
L 961.712539 129.169447 
L 960.592742 124.369798 
L 959.274032 119.62185 
L 957.758739 114.933989 
L 956.049539 110.314494 
L 954.149449 105.771523 
L 952.061827 101.313099 
L 949.790359 96.947097 
L 947.339056 92.681227 
L 944.712247 88.523024 
L 941.914573 84.47983 
L 938.950973 80.558787 
L 935.826683 76.76682 
L 932.547218 73.110625 
L 929.118373 69.59666 
L 925.546201 66.23113 
L 921.837013 63.01998 
L 917.997358 59.968881 
L 914.034018 57.083221 
L 909.953992 54.368096 
L 905.764487 51.828302 
L 901.472901 49.468325 
L 897.086813 47.292331 
L 892.61397 45.304165 
L 888.062272 43.507337 
L 883.439756 41.905021 
L 878.754588 40.500047 
L 874.01504 39.294896 
L 869.229484 38.291696 
L 864.406372 37.492219 
L 859.554221 36.897878 
L 854.681601 36.509721 
L 849.797117 36.328434 
L 844.909396 36.354338 
L 840.02707 36.587386 
L 835.158762 37.027168 
L 830.313069 37.672906 
L 825.49855 38.52346 
L 820.723707 39.577328 
L 815.996973 40.832648 
L 811.326696 42.287204 
L 806.721124 43.938427 
L 802.188391 45.7834 
L 797.736502 47.818865 
L 793.37332 50.041228 
L 789.10655 52.446563 
L 784.943728 55.030622 
L 780.892206 57.788842 
L 776.95914 60.716351 
L 773.151474 63.80798 
L 769.475935 67.058267 
L 765.939013 70.461473 
L 762.546956 74.011588 
L 759.305752 77.702341 
L 756.221128 81.527214 
L 753.29853 85.479452 
L 750.543121 89.552076 
L 747.959766 93.737892 
L 745.553028 98.029508 
L 743.327157 102.419345 
L 741.286086 106.89965 
L 739.433417 111.46251 
L 737.772424 116.099867 
L 736.306039 120.80353 
L 735.036853 125.565193 
L 733.967107 130.376446 
L 733.09869 135.228792 
L 732.433136 140.113661 
L 731.971621 145.022426 
L 731.714959 149.946418 
L 731.663604 154.876941 
L 731.817647 159.805287 
L 732.176815 164.722751 
L 732.740474 169.62065 
L 733.507628 174.490332 
L 734.476924 179.323199 
L 735.646648 184.110714 
L 737.014735 188.844422 
L 738.57877 193.515963 
L 740.335988 198.117087 
L 742.283289 202.639668 
L 744.417231 207.075718 
L 746.734047 211.417404 
L 749.229644 215.657056 
L 751.899616 219.787188 
L 754.739246 223.800505 
L 757.743521 227.68992 
L 760.907133 231.448563 
L 764.224496 235.069796 
L 767.689751 238.547224 
L 771.296778 241.874705 
L 775.039206 245.046363 
L 778.910427 248.056597 
L 782.903603 250.900089 
L 787.011682 253.571819 
L 791.227408 256.067067 
L 795.543337 258.381426 
L 799.951846 260.51081 
L 804.445149 262.451458 
L 809.01531 264.199942 
L 813.654259 265.753174 
L 818.353802 267.108412 
L 823.10564 268.263261 
L 827.90138 269.215682 
L 832.732553 269.963993 
L 837.590626 270.506873 
L 842.46702 270.843362 
L 847.353122 270.972867 
L 852.240303 270.895158 
L 857.119932 270.610374 
L 861.983392 270.119016 
L 866.822092 269.421953 
L 871.627487 268.520416 
L 876.39109 267.415996 
L 881.104489 266.110645 
L 885.759359 264.606668 
L 890.347479 262.906721 
L 894.860746 261.013806 
L 899.291189 258.931266 
L 903.630984 256.66278 
L 907.872466 254.212353 
L 912.008145 251.584314 
L 916.030716 248.783303 
L 919.933075 245.814268 
L 923.70833 242.682452 
L 927.349814 239.393386 
L 930.851096 235.952879 
L 934.205991 232.367007 
L 937.408576 228.642103 
L 940.453193 224.784747 
L 943.334466 220.801749 
L 946.047307 216.700145 
L 948.586923 212.487178 
L 950.94883 208.170289 
L 953.128857 203.757102 
L 955.123153 199.255411 
L 956.928197 194.673166 
L 958.540799 190.01846 
L 959.958114 185.299514 
L 961.177636 180.524661 
L 962.197213 175.702335 
L 963.015044 170.841052 
L 963.629684 165.949399 
L 964.040049 161.036012 
L 964.245412 156.109572 
L 964.271091 153.644174 
L 964.271091 153.644174 
" clip-path="url(#pabd2913fa6)" style="fill: none; stroke: #ff0000; stroke-width: 0.72; stroke-linejoin: miter"/>
   </g>
   <g id="patch_15">
    <path d="M 399.226477 136.240118 
L 416.630533 153.644174 
L 399.226477 171.04823 
L 381.822422 153.644174 
L 399.226477 136.240118 
" clip-path="url(#pabd2913fa6)" style="fill: none; stroke: #ff0000; stroke-width: 0.72; stroke-linejoin: miter"/>
   </g>
   <g id="patch_16">
    <path d="M 846.121845 136.240118 
L 863.525901 153.644174 
L 846.121845 171.04823 
L 828.71779 153.644174 
L 846.121845 136.240118 
" clip-path="url(#pabd2913fa6)" style="fill: none; stroke: #ff0000; stroke-width: 0.72; stroke-linejoin: miter"/>
   </g>
   <g id="patch_17">
    <path d="M 275.291672 192.715481 
L 291.700272 211.061057 
L 273.354697 227.469657 
L 256.946097 209.124082 
L 275.291672 192.715481 
" clip-path="url(#pabd2913fa6)" style="fill: none; stroke: #ff0000; stroke-width: 0.72; stroke-linejoin: miter"/>
   </g>
   <g id="patch_18">
    <path d="M 524.27993 206.592494 
L 540.688531 224.93807 
L 522.342955 241.34667 
L 505.934355 223.001094 
L 524.27993 206.592494 
" clip-path="url(#pabd2913fa6)" style="fill: none; stroke: #ff0000; stroke-width: 0.72; stroke-linejoin: miter"/>
   </g>
   <g id="patch_19">
    <path d="M 552.09519 189.91666 
L 569.499246 172.512604 
L 586.903302 189.91666 
L 569.499246 207.320716 
L 552.09519 189.91666 
" clip-path="url(#pabd2913fa6)" style="fill: none; stroke: #ff0000; stroke-width: 0.72; stroke-linejoin: miter"/>
   </g>
   <g id="patch_20">
    <path d="M 552.09519 121.559306 
L 569.499246 104.15525 
L 586.903302 121.559306 
L 569.499246 138.963361 
L 552.09519 121.559306 
" clip-path="url(#pabd2913fa6)" style="fill: none; stroke: #ff0000; stroke-width: 0.72; stroke-linejoin: miter"/>
   </g>
   <g id="line2d_1">
    <path d="M 78.67096 153.644174 
L 1099.636364 153.644174 
" clip-path="url(#pabd2913fa6)" style="fill: none; stroke: #ffffff; stroke-width: 0.72; stroke-linecap: square"/>
   </g>
   <g id="line2d_2">
    <path d="M 378.341611 153.644174 
L 420.111344 153.644174 
" clip-path="url(#pabd2913fa6)" style="fill: none; stroke: #ffffff; stroke-width: 0.72; stroke-linecap: square"/>
   </g>
   <g id="line2d_3">
    <path d="M 825.236979 153.644174 
L 867.006712 153.644174 
" clip-path="url(#pabd2913fa6)" style="fill: none; stroke: #ffffff; stroke-width: 0.72; stroke-linecap: square"/>
   </g>
   <g id="line2d_4">
    <path d="M 52.542364 197.731925 
L 1093.675825 255.758044 
" clip-path="url(#pabd2913fa6)" style="fill: none; stroke: #ffffff; stroke-width: 0.72; stroke-linecap: square"/>
   </g>
   <g id="line2d_5">
    <path d="M 253.470679 208.930384 
L 295.17569 211.254755 
" clip-path="url(#pabd2913fa6)" style="fill: none; stroke: #ffffff; stroke-width: 0.72; stroke-linecap: square"/>
   </g>
   <g id="line2d_6">
    <path d="M 502.458937 222.807397 
L 544.163948 225.131767 
" clip-path="url(#pabd2913fa6)" style="fill: none; stroke: #ffffff; stroke-width: 0.72; stroke-linecap: square"/>
   </g>
   <g id="line2d_7">
    <path d="M 847.964138 36.313862 
L 847.964138 32.833051 
" clip-path="url(#pabd2913fa6)" style="fill: none; stroke: #ff0000; stroke-width: 0.72; stroke-linecap: square"/>
   </g>
   <g id="line2d_8">
    <path d="M 847.964138 270.974486 
L 847.964138 274.455297 
" clip-path="url(#pabd2913fa6)" style="fill: none; stroke: #ff0000; stroke-width: 0.72; stroke-linecap: square"/>
   </g>
   <g id="line2d_9">
    <path d="M 964.271091 153.644174 
L 967.751902 153.644174 
" clip-path="url(#pabd2913fa6)" style="fill: none; stroke: #ff0000; stroke-width: 0.72; stroke-linecap: square"/>
   </g>
   <g id="line2d_10">
    <path d="M 731.657184 153.644174 
L 728.176373 153.644174 
" clip-path="url(#pabd2913fa6)" style="fill: none; stroke: #ff0000; stroke-width: 0.72; stroke-linecap: square"/>
   </g>
   <g id="line2d_11">
    <path d="M 569.499246 292.292179 
L 569.499246 19.183787 
" clip-path="url(#pabd2913fa6)" style="fill: none; stroke: #ffffff; stroke-width: 0.72; stroke-linecap: square"/>
   </g>
   <g id="line2d_12">
    <path d="M 569.499246 210.801527 
L 569.499246 169.031793 
" clip-path="url(#pabd2913fa6)" style="fill: none; stroke: #ffffff; stroke-width: 0.72; stroke-linecap: square"/>
   </g>
   <g id="line2d_13">
    <path d="M 569.499246 142.444173 
L 569.499246 100.674439 
" clip-path="url(#pabd2913fa6)" style="fill: none; stroke: #ffffff; stroke-width: 0.72; stroke-linecap: square"/>
   </g>
  </g>
 </g>
 <defs>
  <clipPath id="pabd2913fa6">
   <rect x="0" y="0" width="1152" height="309.341668"/>
  </clipPath>
 </defs>
</svg>
