<?xml version="1.0" encoding="utf-8" standalone="no"?>
<!DOCTYPE svg PUBLIC "-//W3C//DTD SVG 1.1//EN"
  "http://www.w3.org/Graphics/SVG/1.1/DTD/svg11.dtd">
<svg xmlns:xlink="http://www.w3.org/1999/xlink" width="1152pt" height="185.810146pt" viewBox="0 0 1152 185.810146" xmlns="http://www.w3.org/2000/svg" version="1.1">
 <metadata>
  <rdf:RDF xmlns:dc="http://purl.org/dc/elements/1.1/" xmlns:cc="http://creativecommons.org/ns#" xmlns:rdf="http://www.w3.org/1999/02/22-rdf-syntax-ns#">
   <cc:Work>
    <dc:type rdf:resource="http://purl.org/dc/dcmitype/StillImage"/>
    <dc:date>2026-01-07T02:07:07.933093</dc:date>
    <dc:format>image/svg+xml</dc:format>
    <dc:creator>
     <cc:Agent>
      <dc:title>Matplotlib v3.10.1, https://matplotlib.org/</dc:title>
     </cc:Agent>
    </dc:creator>
   </cc:Work>
  </rdf:RDF>
 </metadata>
 <defs>
  <style type="text/css">*{stroke-linejoin: round; stroke-linecap: butt}</style>
 </defs>
 <g id="figure_1">
  <g id="patch_1">
   <path d="M 0 185.810146 
L 1152 185.810146 
L 1152 0 
L 0 0 
z
" style="fill: #ffffff"/>
  </g>
  <g id="axes_1">
   <g id="patch_2">
    <path d="M 0 185.810146 
L 1152 185.810146 
L 1152 0 
L 0 0 
z
" style="fill: #212830"/>
   </g>
   <g id="patch_3">
    <path d="M 1099.429025 176.358375 
L 1084.747651 171.125109 
L 1052.483873 159.836506 
L 883.770551 101.637571 
L 842.042485 87.53133 
L 841.733232 88.457296 
L 812.059841 78.637136 
L 791.000315 71.892622 
L 769.727626 65.31855 
L 748.227296 58.987032 
L 726.53687 52.909941 
L 704.668845 47.141795 
L 682.68953 41.704405 
L 671.659732 39.154458 
L 649.429887 34.377909 
L 627.036976 29.949921 
L 604.581747 25.905677 
L 593.337685 24.047673 
L 570.791344 20.667395 
L 548.1984 17.687642 
L 525.637009 15.123763 
L 503.114532 12.999042 
L 480.650356 11.280902 
L 458.333786 9.958424 
L 436.183487 9.075996 
L 414.202668 8.583487 
L 392.50467 8.445916 
L 381.792985 8.531433 
L 371.164747 8.734725 
L 350.116617 9.450249 
L 329.468365 10.47739 
L 319.351073 11.131879 
L 309.364247 11.904612 
L 289.714127 13.778362 
L 270.566708 15.936761 
L 261.26868 17.118577 
L 252.16175 18.409272 
L 234.387369 21.318277 
L 217.254189 24.43942 
L 209.020634 26.074031 
L 201.006214 27.794603 
L 185.536559 31.486277 
L 170.801247 35.384445 
L 156.912297 39.428311 
L 150.30091 41.524745 
L 143.898801 43.681528 
L 131.679282 48.152463 
L 120.256048 52.75819 
L 114.860237 55.104186 
L 104.69383 59.880578 
L 99.929728 62.294793 
L 95.388707 64.722819 
L 91.06962 67.169662 
L 86.966567 69.63482 
L 83.079437 72.110701 
L 79.414601 74.589585 
L 75.978031 77.068891 
L 72.774057 79.546231 
L 69.805808 82.020737 
L 67.068054 84.497943 
L 64.545559 86.979559 
L 62.230184 89.444783 
L 60.140922 91.855506 
L 58.310775 94.194652 
L 56.75277 96.485762 
L 55.450176 98.763547 
L 54.379617 101.03032 
L 53.532356 103.256318 
L 52.912569 105.423008 
L 52.524152 107.529645 
L 52.363636 109.727277 
L 52.435522 111.525607 
L 52.74494 113.388294 
L 53.319369 115.188004 
L 54.184255 116.963897 
L 55.340501 118.729371 
L 56.76943 120.469142 
L 58.466854 122.162667 
L 60.453646 123.803126 
L 62.750166 125.395759 
L 65.354542 126.944967 
L 68.256474 128.446465 
L 71.458613 129.894022 
L 74.973005 131.28975 
L 78.802372 132.643233 
L 82.93763 133.962033 
L 87.368298 135.247377 
L 97.093252 137.709625 
L 107.956531 140.013942 
L 119.955528 142.166568 
L 133.067115 144.154936 
L 147.329436 145.973553 
L 162.740317 147.645345 
L 179.318985 149.173919 
L 197.054485 150.583167 
L 215.922449 151.870663 
L 235.866643 153.038546 
L 258.601766 154.16208 
L 258.558579 155.137367 
L 278.622735 155.986754 
L 312.878617 157.163111 
L 348.676166 158.058236 
L 385.790739 158.673217 
L 463.322236 159.516191 
L 584.004354 160.30435 
L 638.024051 160.546543 
L 769.560102 161.416211 
L 807.328498 161.933117 
L 843.768752 162.76529 
L 878.575676 163.804076 
L 911.570697 164.992555 
L 942.536482 166.299146 
L 971.327629 167.714405 
L 997.696996 169.211197 
L 1028.840199 171.235215 
L 1048.968213 172.767934 
L 1080.063158 175.406872 
L 1095.667769 176.925092 
L 1099.636364 177.36423 
L 1099.429025 176.358375 
L 1099.429025 176.358375 
" clip-path="url(#pad733ca635)" style="fill: none; stroke: #ff0000; stroke-width: 0.72; stroke-linejoin: miter"/>
   </g>
   <g id="patch_4">
    <path d="M 739.390322 60.536068 
L 735.633984 59.468948 
L 736.701104 55.71261 
L 740.457442 56.779731 
L 739.390322 60.536068 
" clip-path="url(#pad733ca635)" style="fill: none; stroke: #ff0000; stroke-width: 0.72; stroke-linejoin: miter"/>
   </g>
   <g id="patch_5">
    <path d="M 344.012203 13.63782 
L 340.111288 13.815813 
L 339.933295 9.914898 
L 343.83421 9.736906 
L 344.012203 13.63782 
" clip-path="url(#pad733ca635)" style="fill: none; stroke: #ff0000; stroke-width: 0.72; stroke-linejoin: miter"/>
   </g>
   <g id="patch_6">
    <path d="M 164.358118 41.278052 
L 160.616797 42.396683 
L 159.498166 38.655362 
L 163.239487 37.536731 
L 164.358118 41.278052 
" clip-path="url(#pad733ca635)" style="fill: none; stroke: #ff0000; stroke-width: 0.72; stroke-linejoin: miter"/>
   </g>
   <g id="patch_7">
    <path d="M 73.52895 85.234446 
L 72.081614 86.54495 
L 68.805353 82.926609 
L 70.252689 81.616105 
L 73.52895 85.234446 
" clip-path="url(#pad733ca635)" style="fill: none; stroke: #ff0000; stroke-width: 0.72; stroke-linejoin: miter"/>
   </g>
   <g id="patch_8">
    <path d="M 63.206701 119.772272 
L 64.812524 120.882919 
L 62.035907 124.897476 
L 60.430084 123.786829 
L 63.206701 119.772272 
" clip-path="url(#pad733ca635)" style="fill: none; stroke: #ff0000; stroke-width: 0.72; stroke-linejoin: miter"/>
   </g>
   <g id="patch_9">
    <path d="M 204.504019 147.196048 
L 208.399234 147.471939 
L 208.123343 151.367154 
L 204.228128 151.091263 
L 204.504019 147.196048 
" clip-path="url(#pad733ca635)" style="fill: none; stroke: #ff0000; stroke-width: 0.72; stroke-linejoin: miter"/>
   </g>
   <g id="line2d_1">
    <path d="M 1081.250305 169.888975 
L 1080.927406 170.810271 
" clip-path="url(#pad733ca635)" style="fill: none; stroke: #ff0000; stroke-width: 0.72; stroke-linecap: square"/>
   </g>
   <g id="line2d_2">
    <path d="M 1080.22005 174.441876 
L 1080.173553 175.417011 
" clip-path="url(#pad733ca635)" style="fill: none; stroke: #ff0000; stroke-width: 0.72; stroke-linecap: square"/>
   </g>
   <g id="line2d_3">
    <path d="M 1062.828771 163.418458 
L 1062.505559 164.339645 
" clip-path="url(#pad733ca635)" style="fill: none; stroke: #ff0000; stroke-width: 0.72; stroke-linecap: square"/>
   </g>
   <g id="line2d_4">
    <path d="M 1060.779452 172.758786 
L 1060.714099 173.732839 
" clip-path="url(#pad733ca635)" style="fill: none; stroke: #ff0000; stroke-width: 0.72; stroke-linecap: square"/>
   </g>
   <g id="line2d_5">
    <path d="M 989.01995 137.887611 
L 988.699455 138.809747 
" clip-path="url(#pad733ca635)" style="fill: none; stroke: #ff0000; stroke-width: 0.72; stroke-linecap: square"/>
   </g>
   <g id="line2d_6">
    <path d="M 982.867662 167.366824 
L 982.800944 168.340785 
" clip-path="url(#pad733ca635)" style="fill: none; stroke: #ff0000; stroke-width: 0.72; stroke-linecap: square"/>
   </g>
   <g id="patch_10">
    <path d="M 511.927918 84.167527 
L 511.810334 80.208617 
L 511.458051 76.265435 
L 510.872467 72.353648 
L 510.055909 68.488798 
L 509.011621 64.686239 
L 507.743753 60.961078 
L 506.257341 57.328117 
L 504.55829 53.801787 
L 502.653352 50.3961 
L 500.550095 47.124586 
L 498.256874 44.000243 
L 495.782801 41.035483 
L 493.137705 38.242086 
L 490.332094 35.63115 
L 487.377116 33.213048 
L 484.284511 30.997387 
L 481.066565 28.992969 
L 477.736064 27.207758 
L 474.306238 25.648848 
L 470.790716 24.322431 
L 467.203464 23.233777 
L 463.558733 22.387211 
L 459.871005 21.786097 
L 456.154931 21.432823 
L 452.425275 21.328793 
L 448.696853 21.474419 
L 444.984481 21.869124 
L 441.302905 22.511339 
L 437.666755 23.398512 
L 434.090474 24.52712 
L 430.588273 25.892677 
L 427.174066 27.489759 
L 423.861416 29.31202 
L 420.663485 31.352221 
L 417.592979 33.602256 
L 414.662096 36.053186 
L 411.88248 38.695273 
L 409.265176 41.51802 
L 406.820581 44.510212 
L 404.558408 47.659962 
L 402.487645 50.954756 
L 400.616517 54.381504 
L 398.952461 57.92659 
L 397.502086 61.575931 
L 396.271155 65.315028 
L 395.264558 69.129026 
L 394.486295 73.002771 
L 393.939458 76.920874 
L 393.626219 80.867767 
L 393.547823 84.82777 
L 393.704581 88.78515 
L 394.09587 92.724185 
L 394.720136 96.629224 
L 395.574899 100.484753 
L 396.656762 104.275454 
L 397.961428 107.986266 
L 399.483713 111.602448 
L 401.217569 115.109631 
L 403.156108 118.493881 
L 405.291627 121.741754 
L 407.615642 124.840346 
L 410.118921 127.777345 
L 412.791517 130.541084 
L 415.622812 133.120581 
L 418.601559 135.505589 
L 421.715922 137.686632 
L 424.953527 139.655045 
L 428.301513 141.403007 
L 431.746577 142.923575 
L 435.275033 144.210705 
L 438.872862 145.259286 
L 442.525769 146.06515 
L 446.219243 146.625097 
L 449.938608 146.936901 
L 453.669088 146.999324 
L 457.395862 146.812117 
L 461.104124 146.376025 
L 464.77914 145.69278 
L 468.40631 144.765097 
L 471.971223 143.596661 
L 475.459716 142.192114 
L 478.857929 140.557037 
L 482.152361 138.697926 
L 485.329924 136.622167 
L 488.377992 134.338007 
L 491.284457 131.854521 
L 494.037771 129.181575 
L 496.626994 126.329789 
L 499.041841 123.310494 
L 501.272716 120.135685 
L 503.310758 116.817975 
L 505.147867 113.370546 
L 506.776747 109.807093 
L 508.190925 106.141776 
L 509.384783 102.389155 
L 510.353577 98.56414 
L 511.093459 94.681927 
L 511.601489 90.757941 
L 511.875649 86.807772 
L 511.927918 84.167527 
L 511.927918 84.167527 
" clip-path="url(#pad733ca635)" style="fill: none; stroke: #ff0000; stroke-width: 0.72; stroke-linejoin: miter"/>
   </g>
   <g id="line2d_7">
    <path d="M 67.433223 84.167527 
L 828.860798 84.167527 
" clip-path="url(#pad733ca635)" style="fill: none; stroke: #ffffff; stroke-width: 0.72; stroke-linecap: square"/>
   </g>
   <g id="line2d_8">
    <path d="M 217.668627 84.167527 
L 229.383547 84.167527 
" clip-path="url(#pad733ca635)" style="fill: none; stroke: #ffffff; stroke-width: 0.72; stroke-linecap: square"/>
   </g>
   <g id="patch_11">
    <path d="M 223.526087 79.28631 
L 228.407303 84.167527 
L 223.526087 89.048743 
L 218.64487 84.167527 
L 223.526087 79.28631 
" clip-path="url(#pad733ca635)" style="fill: none; stroke: #ff0000; stroke-width: 0.72; stroke-linejoin: miter"/>
   </g>
   <g id="line2d_9">
    <path d="M 442.28955 84.167527 
L 454.00447 84.167527 
" clip-path="url(#pad733ca635)" style="fill: none; stroke: #ffffff; stroke-width: 0.72; stroke-linecap: square"/>
   </g>
   <g id="patch_12">
    <path d="M 448.14701 79.28631 
L 453.028227 84.167527 
L 448.14701 89.048743 
L 443.265794 84.167527 
L 448.14701 79.28631 
" clip-path="url(#pad733ca635)" style="fill: none; stroke: #ff0000; stroke-width: 0.72; stroke-linejoin: miter"/>
   </g>
   <g id="line2d_10">
    <path d="M 666.910474 84.167527 
L 678.625394 84.167527 
" clip-path="url(#pad733ca635)" style="fill: none; stroke: #ffffff; stroke-width: 0.72; stroke-linecap: square"/>
   </g>
   <g id="patch_13">
    <path d="M 672.767934 79.28631 
L 677.64915 84.167527 
L 672.767934 89.048743 
L 667.886717 84.167527 
L 672.767934 79.28631 
" clip-path="url(#pad733ca635)" style="fill: none; stroke: #ff0000; stroke-width: 0.72; stroke-linejoin: miter"/>
   </g>
   <g id="line2d_11">
    <path d="M 52.464578 108.345268 
L 1099.337 176.324927 
" clip-path="url(#pad733ca635)" style="fill: none; stroke: #ffffff; stroke-width: 0.72; stroke-linecap: square"/>
   </g>
   <g id="line2d_12">
    <path d="M 259.79326 121.808353 
L 271.483559 122.567474 
" clip-path="url(#pad733ca635)" style="fill: none; stroke: #ffffff; stroke-width: 0.72; stroke-linecap: square"/>
   </g>
   <g id="patch_14">
    <path d="M 265.95471 117.316956 
L 270.509367 122.504214 
L 265.322109 127.058872 
L 260.767452 121.871614 
L 265.95471 117.316956 
" clip-path="url(#pad733ca635)" style="fill: none; stroke: #ff0000; stroke-width: 0.72; stroke-linejoin: miter"/>
   </g>
   <g id="line2d_13">
    <path d="M 518.345243 138.597673 
L 530.035542 139.356794 
" clip-path="url(#pad733ca635)" style="fill: none; stroke: #ffffff; stroke-width: 0.72; stroke-linecap: square"/>
   </g>
   <g id="patch_15">
    <path d="M 524.506693 134.106276 
L 529.06135 139.293534 
L 523.874092 143.848191 
L 519.319435 138.660933 
L 524.506693 134.106276 
" clip-path="url(#pad733ca635)" style="fill: none; stroke: #ff0000; stroke-width: 0.72; stroke-linejoin: miter"/>
   </g>
   <g id="line2d_14">
    <path d="M 452.736237 21.327926 
L 452.736237 20.351682 
" clip-path="url(#pad733ca635)" style="fill: none; stroke: #ff0000; stroke-width: 0.72; stroke-linecap: square"/>
   </g>
   <g id="line2d_15">
    <path d="M 452.736237 147.007128 
L 452.736237 147.983371 
" clip-path="url(#pad733ca635)" style="fill: none; stroke: #ff0000; stroke-width: 0.72; stroke-linecap: square"/>
   </g>
   <g id="line2d_16">
    <path d="M 511.927918 84.167527 
L 512.904161 84.167527 
" clip-path="url(#pad733ca635)" style="fill: none; stroke: #ff0000; stroke-width: 0.72; stroke-linecap: square"/>
   </g>
   <g id="line2d_17">
    <path d="M 393.544555 84.167527 
L 392.568312 84.167527 
" clip-path="url(#pad733ca635)" style="fill: none; stroke: #ff0000; stroke-width: 0.72; stroke-linecap: square"/>
   </g>
   <g id="line2d_18">
    <path d="M 306.29974 156.957539 
L 306.29974 12.180539 
" clip-path="url(#pad733ca635)" style="fill: none; stroke: #ffffff; stroke-width: 0.72; stroke-linecap: square"/>
   </g>
   <g id="line2d_19">
    <path d="M 306.29974 110.239375 
L 306.29974 98.524455 
" clip-path="url(#pad733ca635)" style="fill: none; stroke: #ffffff; stroke-width: 0.72; stroke-linecap: square"/>
   </g>
   <g id="patch_16">
    <path d="M 301.418523 104.381915 
L 306.29974 99.500698 
L 311.180956 104.381915 
L 306.29974 109.263131 
L 301.418523 104.381915 
" clip-path="url(#pad733ca635)" style="fill: none; stroke: #ff0000; stroke-width: 0.72; stroke-linejoin: miter"/>
   </g>
   <g id="line2d_20">
    <path d="M 306.29974 70.613623 
L 306.29974 58.898704 
" clip-path="url(#pad733ca635)" style="fill: none; stroke: #ffffff; stroke-width: 0.72; stroke-linecap: square"/>
   </g>
   <g id="patch_17">
    <path d="M 301.418523 64.756163 
L 306.29974 59.874947 
L 311.180956 64.756163 
L 306.29974 69.63738 
L 301.418523 64.756163 
" clip-path="url(#pad733ca635)" style="fill: none; stroke: #ff0000; stroke-width: 0.72; stroke-linejoin: miter"/>
   </g>
   <g id="line2d_21">
    <path d="M 745.60923 161.220629 
L 745.60923 58.243268 
" clip-path="url(#pad733ca635)" style="fill: none; stroke: #ffffff; stroke-width: 0.72; stroke-linecap: square"/>
   </g>
   <g id="line2d_22">
    <path d="M 745.60923 129.132338 
L 745.60923 117.417418 
" clip-path="url(#pad733ca635)" style="fill: none; stroke: #ffffff; stroke-width: 0.72; stroke-linecap: square"/>
   </g>
   <g id="patch_18">
    <path d="M 740.728014 123.274878 
L 745.60923 118.393662 
L 750.490447 123.274878 
L 745.60923 128.156095 
L 740.728014 123.274878 
" clip-path="url(#pad733ca635)" style="fill: none; stroke: #ff0000; stroke-width: 0.72; stroke-linejoin: miter"/>
   </g>
   <g id="line2d_23">
    <path d="M 745.60923 102.046479 
L 745.60923 90.331559 
" clip-path="url(#pad733ca635)" style="fill: none; stroke: #ffffff; stroke-width: 0.72; stroke-linecap: square"/>
   </g>
   <g id="patch_19">
    <path d="M 740.728014 96.189019 
L 745.60923 91.307802 
L 750.490447 96.189019 
L 745.60923 101.070235 
L 740.728014 96.189019 
" clip-path="url(#pad733ca635)" style="fill: none; stroke: #ff0000; stroke-width: 0.72; stroke-linejoin: miter"/>
   </g>
   <g id="patch_20">
    <path d="M 350.08757 126.949731 
L 350.08757 136.712164 
" clip-path="url(#pad733ca635)" style="fill: none; stroke: #ff0000; stroke-width: 0.72; stroke-linejoin: miter"/>
   </g>
   <g id="patch_21">
    <path d="M 354.968786 131.830948 
L 354.968786 126.949731 
L 359.850003 126.949731 
L 359.850003 136.712164 
" clip-path="url(#pad733ca635)" style="fill: none; stroke: #ff0000; stroke-width: 0.72; stroke-linejoin: miter"/>
   </g>
  </g>
 </g>
 <defs>
  <clipPath id="pad733ca635">
   <rect x="0" y="0" width="1152" height="185.810146"/>
  </clipPath>
 </defs>
</svg>
