<?xml version="1.0" encoding="utf-8" standalone="no"?>
<!DOCTYPE svg PUBLIC "-//W3C//DTD SVG 1.1//EN"
  "http://www.w3.org/Graphics/SVG/1.1/DTD/svg11.dtd">
<svg xmlns:xlink="http://www.w3.org/1999/xlink" width="1152pt" height="340.175461pt" viewBox="0 0 1152 340.175461" xmlns="http://www.w3.org/2000/svg" version="1.1">
 <metadata>
  <rdf:RDF xmlns:dc="http://purl.org/dc/elements/1.1/" xmlns:cc="http://creativecommons.org/ns#" xmlns:rdf="http://www.w3.org/1999/02/22-rdf-syntax-ns#">
   <cc:Work>
    <dc:type rdf:resource="http://purl.org/dc/dcmitype/StillImage"/>
    <dc:date>2026-01-07T02:07:12.811194</dc:date>
    <dc:format>image/svg+xml</dc:format>
    <dc:creator>
     <cc:Agent>
      <dc:title>Matplotlib v3.10.1, https://matplotlib.org/</dc:title>
     </cc:Agent>
    </dc:creator>
   </cc:Work>
  </rdf:RDF>
 </metadata>
 <defs>
  <style type="text/css">*{stroke-linejoin: round; stroke-linecap: butt}</style>
 </defs>
 <g id="figure_1">
  <g id="patch_1">
   <path d="M 0 340.175461 
L 1152 340.175461 
L 1152 0 
L 0 0 
z
" style="fill: #ffffff"/>
  </g>
  <g id="axes_1">
   <g id="patch_2">
    <path d="M 0 340.175461 
L 1152 340.175461 
L 1152 0 
L 0 0 
z
" style="fill: #212830"/>
   </g>
   <g id="patch_3">
    <path d="M 1099.336656 322.747964 
L 1092.372301 320.236389 
L 1080.954963 316.135356 
L 1068.327653 311.640598 
L 1054.484524 306.803774 
L 1039.367953 301.63283 
L 1023.067393 296.064186 
L 1005.759534 290.119843 
L 987.63047 283.841901 
L 968.830634 277.279039 
L 949.500836 270.480878 
L 929.736218 263.4841 
L 909.61679 256.32862 
L 889.208597 249.039962 
L 868.554951 241.643356 
L 847.712216 234.169384 
L 826.738324 226.64315 
L 805.687439 219.095191 
L 784.594599 211.54946 
L 763.487515 204.020384 
L 742.391562 196.525783 
L 721.313022 189.079079 
L 700.257043 181.687755 
L 679.234744 174.361916 
L 658.251994 167.113893 
L 637.307926 159.951902 
L 616.406075 152.882888 
L 595.551886 145.918044 
L 581.656296 141.343935 
L 580.940776 143.517597 
L 574.035214 141.244404 
L 553.266307 134.515833 
L 532.524359 127.909271 
L 511.804158 121.430201 
L 491.094272 115.082773 
L 470.382468 108.868021 
L 449.661449 102.786793 
L 428.926948 96.84051 
L 408.173054 91.030112 
L 387.3937 85.357119 
L 366.586215 79.822861 
L 345.750208 74.42989 
L 324.884017 69.180782 
L 303.984987 64.077709 
L 283.05221 59.123965 
L 262.086716 54.32329 
L 241.087361 49.678132 
L 220.053389 45.19057 
L 198.983064 40.863563 
L 177.877662 36.698863 
L 156.738484 32.697622 
L 135.566082 28.86086 
L 114.361713 25.190212 
L 93.127688 21.688284 
L 71.865173 18.35634 
L 52.363636 15.462521 
L 52.363636 283.717582 
L 56.935618 283.744164 
L 81.281319 283.891215 
L 105.554582 284.018828 
L 129.774662 284.110938 
L 153.959157 284.187859 
L 178.077653 284.293887 
L 202.162371 284.447323 
L 226.232509 284.629098 
L 250.258492 284.811919 
L 274.174747 285.010144 
L 297.945864 285.262368 
L 321.62212 285.583269 
L 345.209942 285.924552 
L 368.661288 286.216538 
L 392.061372 286.435571 
L 415.439034 286.635513 
L 438.749311 286.887729 
L 462.040557 287.215044 
L 485.338993 287.580207 
L 508.557331 287.949639 
L 531.601247 288.347523 
L 554.470187 288.829901 
L 577.282714 289.417542 
L 600.113192 290.066211 
L 622.90382 290.720868 
L 645.540368 291.380777 
L 667.945436 292.104182 
L 690.2032 292.938608 
L 712.433717 293.872781 
L 734.651952 294.850411 
L 756.73181 295.830039 
L 778.53885 296.837 
L 800.058367 297.941875 
L 821.422433 299.192274 
L 842.764398 300.559076 
L 864.05509 301.96465 
L 885.108552 303.377423 
L 905.796243 304.842497 
L 926.12149 306.396782 
L 946.078939 308.025849 
L 965.585331 309.707301 
L 984.519378 311.430866 
L 1002.754745 313.203789 
L 1020.20992 315.049064 
L 1036.831502 316.94081 
L 1052.490626 318.795075 
L 1067.012682 320.546766 
L 1080.281511 322.198064 
L 1092.297672 323.748937 
L 1099.636364 324.71294 
L 1099.336656 322.747964 
" clip-path="url(#pf2bbe46af4)" style="fill: none; stroke: #ff0000; stroke-width: 0.72; stroke-linejoin: miter"/>
   </g>
   <g id="patch_4">
    <path d="M 488.690453 218.362088 
L 500.132454 218.362088 
L 500.132454 229.804089 
L 488.690453 229.804089 
L 500.132454 229.804089 
L 500.132454 241.246089 
L 488.690453 241.246089 
" clip-path="url(#pf2bbe46af4)" style="fill: none; stroke: #ff0000; stroke-width: 0.72; stroke-linejoin: miter"/>
   </g>
   <g id="patch_5">
    <path d="M 510.430255 218.362088 
L 505.853454 218.362088 
L 505.853454 241.246089 
L 510.430255 241.246089 
" clip-path="url(#pf2bbe46af4)" style="fill: none; stroke: #ff0000; stroke-width: 0.72; stroke-linejoin: miter"/>
   </g>
   <g id="patch_6">
    <path d="M 512.718655 241.246089 
L 517.295455 241.246089 
L 517.295455 218.362088 
L 512.718655 218.362088 
" clip-path="url(#pf2bbe46af4)" style="fill: none; stroke: #ff0000; stroke-width: 0.72; stroke-linejoin: miter"/>
   </g>
   <g id="patch_7">
    <path d="M 375.421531 91.644708 
L 366.575471 89.291916 
L 368.928262 80.445856 
L 377.774322 82.798648 
L 375.421531 91.644708 
" clip-path="url(#pf2bbe46af4)" style="fill: none; stroke: #ff0000; stroke-width: 0.72; stroke-linejoin: miter"/>
   </g>
   <g id="patch_8">
    <path d="M 242.228292 124.137766 
L 253.670292 135.579767 
L 242.228292 147.021768 
L 230.786291 135.579767 
L 242.228292 124.137766 
" clip-path="url(#pf2bbe46af4)" style="fill: none; stroke: #ff0000; stroke-width: 0.72; stroke-linejoin: miter"/>
   </g>
   <g id="patch_9">
    <path d="M 473.842513 222.133027 
L 485.284514 210.691026 
L 496.726515 222.133027 
L 485.284514 233.575027 
L 473.842513 222.133027 
" clip-path="url(#pf2bbe46af4)" style="fill: none; stroke: #ff0000; stroke-width: 0.72; stroke-linejoin: miter"/>
   </g>
   <g id="patch_10">
    <path d="M 473.842513 178.785833 
L 485.284514 167.343832 
L 496.726515 178.785833 
L 485.284514 190.227834 
L 473.842513 178.785833 
" clip-path="url(#pf2bbe46af4)" style="fill: none; stroke: #ff0000; stroke-width: 0.72; stroke-linejoin: miter"/>
   </g>
   <g id="line2d_1">
    <path d="M 1056.411711 307.477137 
L 1055.671095 309.642377 
" clip-path="url(#pf2bbe46af4)" style="fill: none; stroke: #ff0000; stroke-width: 0.72; stroke-linecap: square"/>
   </g>
   <g id="line2d_2">
    <path d="M 1054.233809 316.702986 
L 1054.068605 318.985415 
" clip-path="url(#pf2bbe46af4)" style="fill: none; stroke: #ff0000; stroke-width: 0.72; stroke-linecap: square"/>
   </g>
   <g id="line2d_3">
    <path d="M 1013.113494 292.645543 
L 1012.372396 294.810618 
" clip-path="url(#pf2bbe46af4)" style="fill: none; stroke: #ff0000; stroke-width: 0.72; stroke-linecap: square"/>
   </g>
   <g id="line2d_4">
    <path d="M 1008.78508 311.540319 
L 1008.573317 313.8189 
" clip-path="url(#pf2bbe46af4)" style="fill: none; stroke: #ff0000; stroke-width: 0.72; stroke-linecap: square"/>
   </g>
   <g id="line2d_5">
    <path d="M 840.519859 231.588492 
L 839.764018 233.748464 
" clip-path="url(#pf2bbe46af4)" style="fill: none; stroke: #ff0000; stroke-width: 0.72; stroke-linecap: square"/>
   </g>
   <g id="line2d_6">
    <path d="M 826.246711 297.208568 
L 826.056708 299.489066 
" clip-path="url(#pf2bbe46af4)" style="fill: none; stroke: #ff0000; stroke-width: 0.72; stroke-linecap: square"/>
   </g>
   <g id="line2d_7">
    <path d="M 52.363636 135.579767 
L 556.550324 135.579767 
" clip-path="url(#pf2bbe46af4)" style="fill: none; stroke: #ffffff; stroke-width: 0.72; stroke-linecap: square"/>
   </g>
   <g id="line2d_8">
    <path d="M 228.497891 135.579767 
L 255.958693 135.579767 
" clip-path="url(#pf2bbe46af4)" style="fill: none; stroke: #ffffff; stroke-width: 0.72; stroke-linecap: square"/>
   </g>
   <g id="line2d_9">
    <path d="M 52.363636 254.834623 
L 1097.706219 322.159975 
" clip-path="url(#pf2bbe46af4)" style="fill: none; stroke: #ffffff; stroke-width: 0.72; stroke-linecap: square"/>
   </g>
   <g id="line2d_10">
    <path d="M 485.284514 287.579354 
L 485.284514 113.339506 
" clip-path="url(#pf2bbe46af4)" style="fill: none; stroke: #ffffff; stroke-width: 0.72; stroke-linecap: square"/>
   </g>
   <g id="line2d_11">
    <path d="M 485.284514 235.863428 
L 485.284514 208.402626 
" clip-path="url(#pf2bbe46af4)" style="fill: none; stroke: #ffffff; stroke-width: 0.72; stroke-linecap: square"/>
   </g>
   <g id="line2d_12">
    <path d="M 485.284514 192.516234 
L 485.284514 165.055432 
" clip-path="url(#pf2bbe46af4)" style="fill: none; stroke: #ffffff; stroke-width: 0.72; stroke-linecap: square"/>
   </g>
  </g>
 </g>
 <defs>
  <clipPath id="pf2bbe46af4">
   <rect x="0" y="0" width="1152" height="340.175461"/>
  </clipPath>
 </defs>
</svg>
