  0
SECTION
  2
HEADER
  9
$ACADVER
  1
AC1021
  9
$ACADMAINTVER
 70
25
  9
$DWGCODEPAGE
  3
ANSI_1252
  9
$LASTSAVEDBY
  1
ezdxf
  9
$INSBASE
 10
0.0
 20
0.0
 30
0.0
  9
$EXTMIN
 10
1e+20
 20
1e+20
 30
1e+20
  9
$EXTMAX
 10
-1e+20
 20
-1e+20
 30
-1e+20
  9
$LIMMIN
 10
0.0
 20
0.0
  9
$LIMMAX
 10
420.0
 20
297.0
  9
$ORTHOMODE
 70
0
  9
$REGENMODE
 70
1
  9
$FILLMODE
 70
1
  9
$QTEXTMODE
 70
0
  9
$MIRRTEXT
 70
1
  9
$LTSCALE
 40
1.0
  9
$ATTMODE
 70
1
  9
$TEXTSIZE
 40
2.5
  9
$TRACEWID
 40
1.0
  9
$TEXTSTYLE
  7
OpenSans
  9
$CLAYER
  8
0
  9
$CELTYPE
  6
ByLayer
  9
$CECOLOR
 62
256
  9
$CELTSCALE
 40
1.0
  9
$DISPSILH
 70
0
  9
$DIMSCALE
 40
1.0
  9
$DIMASZ
 40
0.175
  9
$DIMEXO
 40
0.125
  9
$DIMDLI
 40
3.75
  9
$DIMRND
 40
0.0
  9
$DIMDLE
 40
0.0
  9
$DIMEXE
 40
0.375
  9
$DIMTP
 40
0.0
  9
$DIMTM
 40
0.0
  9
$DIMTXT
 40
0.25
  9
$DIMCEN
 40
2.5
  9
$DIMTSZ
 40
0.0
  9
$DIMTOL
 70
0
  9
$DIMLIM
 70
0
  9
$DIMTIH
 70
0
  9
$DIMTOH
 70
0
  9
$DIMSE1
 70
0
  9
$DIMSE2
 70
0
  9
$DIMTAD
 70
1
  9
$DIMZIN
 70
12
  9
$DIMBLK
  1
ARCHTICK
  9
$DIMASO
 70
1
  9
$DIMSHO
 70
1
  9
$DIMPOST
  1

  9
$DIMAPOST
  1

  9
$DIMALT
 70
0
  9
$DIMALTD
 70
3
  9
$DIMALTF
 40
0.03937007874
  9
$DIMLFAC
 40
100.0
  9
$DIMTOFL
 70
1
  9
$DIMTVP
 40
0.0
  9
$DIMTIX
 70
0
  9
$DIMSOXD
 70
0
  9
$DIMSAH
 70
0
  9
$DIMBLK1
  1

  9
$DIMBLK2
  1

  9
$DIMSTYLE
  2
EZDXF
  9
$DIMCLRD
 70
0
  9
$DIMCLRE
 70
0
  9
$DIMCLRT
 70
0
  9
$DIMTFAC
 40
0.5
  9
$DIMGAP
 40
0.1
  9
$DIMJUST
 70
0
  9
$DIMSD1
 70
0
  9
$DIMSD2
 70
0
  9
$DIMTOLJ
 70
0
  9
$DIMTZIN
 70
8
  9
$DIMALTZ
 70
0
  9
$DIMALTTZ
 70
0
  9
$DIMUPT
 70
1
  9
$DIMDEC
 70
2
  9
$DIMTDEC
 70
2
  9
$DIMALTU
 70
2
  9
$DIMALTTD
 70
3
  9
$DIMTXSTY
  7
OpenSansCondensed-Light
  9
$DIMAUNIT
 70
0
  9
$DIMADEC
 70
2
  9
$DIMALTRND
 40
0.0
  9
$DIMAZIN
 70
3
  9
$DIMDSEP
 70
46
  9
$DIMATFIT
 70
3
  9
$DIMFRAC
 70
0
  9
$DIMLDRBLK
  1

  9
$DIMLUNIT
 70
2
  9
$DIMLWD
 70
-2
  9
$DIMLWE
 70
-2
  9
$DIMTMOVE
 70
2
  9
$DIMFXL
 40
1.0
  9
$DIMFXLON
 70
0
  9
$DIMJOGANG
 40
0.785398163397
  9
$DIMTFILL
 70
0
  9
$DIMTFILLCLR
 70
0
  9
$DIMARCSYM
 70
0
  9
$DIMLTYPE
  6

  9
$DIMLTEX1
  6

  9
$DIMLTEX2
  6

  9
$LUNITS
 70
2
  9
$LUPREC
 70
4
  9
$SKETCHINC
 40
1.0
  9
$FILLETRAD
 40
10.0
  9
$AUNITS
 70
0
  9
$AUPREC
 70
2
  9
$MENU
  1
.
  9
$ELEVATION
 40
0.0
  9
$PELEVATION
 40
0.0
  9
$THICKNESS
 40
0.0
  9
$LIMCHECK
 70
0
  9
$CHAMFERA
 40
0.0
  9
$CHAMFERB
 40
0.0
  9
$CHAMFERC
 40
0.0
  9
$CHAMFERD
 40
0.0
  9
$SKPOLY
 70
0
  9
$TDCREATE
 40
2461048.0883449074
  9
$TDUCREATE
 40
2458532.153996898
  9
$TDUPDATE
 40
2461048.0883449074
  9
$TDUUPDATE
 40
2458532.1544311
  9
$TDINDWG
 40
0.0
  9
$TDUSRTIMER
 40
0.0
  9
$USRTIMER
 70
1
  9
$ANGBASE
 50
0.0
  9
$ANGDIR
 70
0
  9
$PDMODE
 70
0
  9
$PDSIZE
 40
0.0
  9
$PLINEWID
 40
0.0
  9
$SPLFRAME
 70
0
  9
$SPLINETYPE
 70
6
  9
$SPLINESEGS
 70
8
  9
$HANDSEED
  5
AB
  9
$SURFTAB1
 70
6
  9
$SURFTAB2
 70
6
  9
$SURFTYPE
 70
6
  9
$SURFU
 70
6
  9
$SURFV
 70
6
  9
$UCSBASE
  2

  9
$UCSNAME
  2

  9
$UCSORG
 10
0.0
 20
0.0
 30
0.0
  9
$UCSXDIR
 10
1.0
 20
0.0
 30
0.0
  9
$UCSYDIR
 10
0.0
 20
1.0
 30
0.0
  9
$UCSORTHOREF
  2

  9
$UCSORTHOVIEW
 70
0
  9
$UCSORGTOP
 10
0.0
 20
0.0
 30
0.0
  9
$UCSORGBOTTOM
 10
0.0
 20
0.0
 30
0.0
  9
$UCSORGLEFT
 10
0.0
 20
0.0
 30
0.0
  9
$UCSORGRIGHT
 10
0.0
 20
0.0
 30
0.0
  9
$UCSORGFRONT
 10
0.0
 20
0.0
 30
0.0
  9
$UCSORGBACK
 10
0.0
 20
0.0
 30
0.0
  9
$PUCSBASE
  2

  9
$PUCSNAME
  2

  9
$PUCSORG
 10
0.0
 20
0.0
 30
0.0
  9
$PUCSXDIR
 10
1.0
 20
0.0
 30
0.0
  9
$PUCSYDIR
 10
0.0
 20
1.0
 30
0.0
  9
$PUCSORTHOREF
  2

  9
$PUCSORTHOVIEW
 70
0
  9
$PUCSORGTOP
 10
0.0
 20
0.0
 30
0.0
  9
$PUCSORGBOTTOM
 10
0.0
 20
0.0
 30
0.0
  9
$PUCSORGLEFT
 10
0.0
 20
0.0
 30
0.0
  9
$PUCSORGRIGHT
 10
0.0
 20
0.0
 30
0.0
  9
$PUCSORGFRONT
 10
0.0
 20
0.0
 30
0.0
  9
$PUCSORGBACK
 10
0.0
 20
0.0
 30
0.0
  9
$USERI1
 70
0
  9
$USERI2
 70
0
  9
$USERI3
 70
0
  9
$USERI4
 70
0
  9
$USERI5
 70
0
  9
$USERR1
 40
0.0
  9
$USERR2
 40
0.0
  9
$USERR3
 40
0.0
  9
$USERR4
 40
0.0
  9
$USERR5
 40
0.0
  9
$WORLDVIEW
 70
1
  9
$SHADEDGE
 70
3
  9
$SHADEDIF
 70
70
  9
$TILEMODE
 70
1
  9
$MAXACTVP
 70
64
  9
$PINSBASE
 10
0.0
 20
0.0
 30
0.0
  9
$PLIMCHECK
 70
0
  9
$PEXTMIN
 10
1e+20
 20
1e+20
 30
1e+20
  9
$PEXTMAX
 10
-1e+20
 20
-1e+20
 30
-1e+20
  9
$PLIMMIN
 10
0.0
 20
0.0
  9
$PLIMMAX
 10
420.0
 20
297.0
  9
$UNITMODE
 70
0
  9
$VISRETAIN
 70
1
  9
$PLINEGEN
 70
0
  9
$PSLTSCALE
 70
1
  9
$TREEDEPTH
 70
3020
  9
$CMLSTYLE
  2
Standard
  9
$CMLJUST
 70
0
  9
$CMLSCALE
 40
20.0
  9
$PROXYGRAPHICS
 70
1
  9
$MEASUREMENT
 70
1
  9
$CELWEIGHT
370
-1
  9
$ENDCAPS
280
0
  9
$JOINSTYLE
280
0
  9
$LWDISPLAY
290
0
  9
$INSUNITS
 70
6
  9
$HYPERLINKBASE
  1

  9
$STYLESHEET
  1

  9
$XEDIT
290
1
  9
$CEPSNTYPE
380
0
  9
$PSTYLEMODE
290
1
  9
$FINGERPRINTGUID
  2
{770DBBE4-1F9C-47E4-9E45-A373599FF36B}
  9
$VERSIONGUID
  2
{0B668324-3B2F-49A2-89DE-D04CB899F15E}
  9
$EXTNAMES
290
1
  9
$PSVPSCALE
 40
0.0
  9
$OLESTARTUP
290
0
  9
$SORTENTS
280
127
  9
$INDEXCTL
280
0
  9
$HIDETEXT
280
1
  9
$XCLIPFRAME
290
1
  9
$HALOGAP
280
0
  9
$OBSCOLOR
 70
257
  9
$OBSLTYPE
280
0
  9
$INTERSECTIONDISPLAY
280
0
  9
$INTERSECTIONCOLOR
 70
257
  9
$DIMASSOC
280
2
  9
$PROJECTNAME
  1

  9
$CAMERADISPLAY
290
0
  9
$LENSLENGTH
 40
50.0
  9
$CAMERAHEIGHT
 40
0.0
  9
$STEPSPERSEC
 40
24.0
  9
$STEPSIZE
 40
100.0
  9
$3DDWFPREC
 40
2.0
  9
$PSOLWIDTH
 40
0.005
  9
$PSOLHEIGHT
 40
0.08
  9
$LOFTANG1
 40
1.570796326795
  9
$LOFTANG2
 40
1.570796326795
  9
$LOFTMAG1
 40
0.0
  9
$LOFTMAG2
 40
0.0
  9
$LOFTPARAM
 70
7
  9
$LOFTNORMALS
280
1
  9
$LATITUDE
 40
37.795
  9
$LONGITUDE
 40
-122.394
  9
$NORTHDIRECTION
 40
0.0
  9
$TIMEZONE
 70
-8000
  9
$LIGHTGLYPHDISPLAY
280
1
  9
$TILEMODELIGHTSYNCH
280
1
  9
$CMATERIAL
347
20
  9
$SOLIDHIST
280
0
  9
$SHOWHIST
280
1
  9
$DWFFRAME
280
2
  9
$DGNFRAME
280
2
  9
$REALWORLDSCALE
290
1
  9
$INTERFERECOLOR
 62
256
  9
$CSHADOW
280
0
  9
$SHADOWPLANELOCATION
 40
0.0
  0
ENDSEC
  0
SECTION
  2
CLASSES
  0
CLASS
  1
ACDBDICTIONARYWDFLT
  2
AcDbDictionaryWithDefault
  3
ObjectDBX Classes
 90
0
 91
0
280
0
281
0
  0
CLASS
  1
SUN
  2
AcDbSun
  3
SCENEOE
 90
1153
 91
0
280
0
281
0
  0
CLASS
  1
VISUALSTYLE
  2
AcDbVisualStyle
  3
ObjectDBX Classes
 90
4095
 91
0
280
0
281
0
  0
CLASS
  1
MATERIAL
  2
AcDbMaterial
  3
ObjectDBX Classes
 90
1153
 91
0
280
0
281
0
  0
CLASS
  1
SCALE
  2
AcDbScale
  3
ObjectDBX Classes
 90
1153
 91
0
280
0
281
0
  0
CLASS
  1
TABLESTYLE
  2
AcDbTableStyle
  3
ObjectDBX Classes
 90
4095
 91
0
280
0
281
0
  0
CLASS
  1
MLEADERSTYLE
  2
AcDbMLeaderStyle
  3
ACDB_MLEADERSTYLE_CLASS
 90
4095
 91
0
280
0
281
0
  0
CLASS
  1
DICTIONARYVAR
  2
AcDbDictionaryVar
  3
ObjectDBX Classes
 90
0
 91
0
280
0
281
0
  0
CLASS
  1
CELLSTYLEMAP
  2
AcDbCellStyleMap
  3
ObjectDBX Classes
 90
1152
 91
0
280
0
281
0
  0
CLASS
  1
MENTALRAYRENDERSETTINGS
  2
AcDbMentalRayRenderSettings
  3
SCENEOE
 90
1024
 91
0
280
0
281
0
  0
CLASS
  1
ACDBDETAILVIEWSTYLE
  2
AcDbDetailViewStyle
  3
ObjectDBX Classes
 90
1025
 91
0
280
0
281
0
  0
CLASS
  1
ACDBSECTIONVIEWSTYLE
  2
AcDbSectionViewStyle
  3
ObjectDBX Classes
 90
1025
 91
0
280
0
281
0
  0
CLASS
  1
RASTERVARIABLES
  2
AcDbRasterVariables
  3
ISM
 90
0
 91
0
280
0
281
0
  0
CLASS
  1
ACDBPLACEHOLDER
  2
AcDbPlaceHolder
  3
ObjectDBX Classes
 90
0
 91
0
280
0
281
0
  0
CLASS
  1
LAYOUT
  2
AcDbLayout
  3
ObjectDBX Classes
 90
0
 91
0
280
0
281
0
  0
ENDSEC
  0
SECTION
  2
TABLES
  0
TABLE
  2
VPORT
  5
8
330
0
100
AcDbSymbolTable
 70
1
  0
VPORT
  5
23
330
8
100
AcDbSymbolTableRecord
100
AcDbViewportTableRecord
  2
*Active
 70
0
 10
0.0
 20
0.0
 11
1.0
 21
1.0
 12
0.0
 22
0.0
 13
0.0
 23
0.0
 14
0.5
 24
0.5
 15
0.5
 25
0.5
 16
0.0
 26
0.0
 36
1.0
 17
0.0
 27
0.0
 37
0.0
 40
1000.0
 41
1.34
 42
50.0
 43
0.0
 44
0.0
 50
0.0
 51
0.0
 71
0
 72
1000
 73
1
 74
3
 75
0
 76
0
 77
0
 78
0
281
0
 65
0
146
0.0
  0
ENDTAB
  0
TABLE
  2
LTYPE
  5
2
330
0
100
AcDbSymbolTable
 70
21
  0
LTYPE
  5
24
330
2
100
AcDbSymbolTableRecord
100
AcDbLinetypeTableRecord
  2
ByBlock
 70
0
  3

 72
65
 73
0
 40
0.0
  0
LTYPE
  5
25
330
2
100
AcDbSymbolTableRecord
100
AcDbLinetypeTableRecord
  2
ByLayer
 70
0
  3

 72
65
 73
0
 40
0.0
  0
LTYPE
  5
26
330
2
100
AcDbSymbolTableRecord
100
AcDbLinetypeTableRecord
  2
Continuous
 70
0
  3

 72
65
 73
0
 40
0.0
  0
LTYPE
  5
2F
330
2
100
AcDbSymbolTableRecord
100
AcDbLinetypeTableRecord
  2
CENTER
 70
0
  3
Center ____ _ ____ _ ____ _ ____ _ ____ _ ____
 72
65
 73
4
 40
5.08
 49
3.175
 74
0
 49
-0.635
 74
0
 49
0.635
 74
0
 49
-0.635
 74
0
  0
LTYPE
  5
30
330
2
100
AcDbSymbolTableRecord
100
AcDbLinetypeTableRecord
  2
CENTERX2
 70
0
  3
Center (2x) ________  __  ________  __  ________
 72
65
 73
4
 40
8.89
 49
6.35
 74
0
 49
-0.635
 74
0
 49
1.27
 74
0
 49
-0.635
 74
0
  0
LTYPE
  5
31
330
2
100
AcDbSymbolTableRecord
100
AcDbLinetypeTableRecord
  2
CENTER2
 70
0
  3
Center (.5x) ____ _ ____ _ ____ _ ____ _ ____
 72
65
 73
4
 40
2.54
 49
1.587
 74
0
 49
-0.318
 74
0
 49
0.318
 74
0
 49
-0.318
 74
0
  0
LTYPE
  5
32
330
2
100
AcDbSymbolTableRecord
100
AcDbLinetypeTableRecord
  2
DASHED
 70
0
  3
Dashed __ __ __ __ __ __ __ __ __ __ __ __ __ _
 72
65
 73
2
 40
1.524
 49
1.27
 74
0
 49
-0.254
 74
0
  0
LTYPE
  5
33
330
2
100
AcDbSymbolTableRecord
100
AcDbLinetypeTableRecord
  2
DASHEDX2
 70
0
  3
Dashed (2x) ____  ____  ____  ____  ____  ____
 72
65
 73
2
 40
3.048
 49
2.54
 74
0
 49
-0.508
 74
0
  0
LTYPE
  5
34
330
2
100
AcDbSymbolTableRecord
100
AcDbLinetypeTableRecord
  2
DASHED2
 70
0
  3
Dashed (.5x) _ _ _ _ _ _ _ _ _ _ _ _ _ _
 72
65
 73
2
 40
0.762
 49
0.635
 74
0
 49
-0.127
 74
0
  0
LTYPE
  5
35
330
2
100
AcDbSymbolTableRecord
100
AcDbLinetypeTableRecord
  2
PHANTOM
 70
0
  3
Phantom ______  __  __  ______  __  __  ______
 72
65
 73
6
 40
6.35
 49
3.175
 74
0
 49
-0.635
 74
0
 49
0.635
 74
0
 49
-0.635
 74
0
 49
0.635
 74
0
 49
-0.635
 74
0
  0
LTYPE
  5
36
330
2
100
AcDbSymbolTableRecord
100
AcDbLinetypeTableRecord
  2
PHANTOMX2
 70
0
  3
Phantom (2x)____________    ____    ____    ____________
 72
65
 73
6
 40
10.795
 49
6.35
 74
0
 49
-0.635
 74
0
 49
1.27
 74
0
 49
-0.635
 74
0
 49
1.27
 74
0
 49
-0.635
 74
0
  0
LTYPE
  5
37
330
2
100
AcDbSymbolTableRecord
100
AcDbLinetypeTableRecord
  2
PHANTOM2
 70
0
  3
Phantom (.5x) ___ _ _ ___ _ _ ___ _ _ ___ _ _ ___
 72
65
 73
6
 40
3.175
 49
1.587
 74
0
 49
-0.318
 74
0
 49
0.318
 74
0
 49
-0.318
 74
0
 49
0.318
 74
0
 49
-0.318
 74
0
  0
LTYPE
  5
38
330
2
100
AcDbSymbolTableRecord
100
AcDbLinetypeTableRecord
  2
DASHDOT
 70
0
  3
Dash dot __ . __ . __ . __ . __ . __ . __ . __
 72
65
 73
4
 40
3.556
 49
2.54
 74
0
 49
-0.508
 74
0
 49
0.0
 74
0
 49
-0.508
 74
0
  0
LTYPE
  5
39
330
2
100
AcDbSymbolTableRecord
100
AcDbLinetypeTableRecord
  2
DASHDOTX2
 70
0
  3
Dash dot (2x) ____  .  ____  .  ____  .  ____
 72
65
 73
4
 40
6.096
 49
5.08
 74
0
 49
-0.508
 74
0
 49
0.0
 74
0
 49
-0.508
 74
0
  0
LTYPE
  5
3A
330
2
100
AcDbSymbolTableRecord
100
AcDbLinetypeTableRecord
  2
DASHDOT2
 70
0
  3
Dash dot (.5x) _ . _ . _ . _ . _ . _ . _ . _
 72
65
 73
4
 40
1.778
 49
1.27
 74
0
 49
-0.254
 74
0
 49
0.0
 74
0
 49
-0.254
 74
0
  0
LTYPE
  5
3B
330
2
100
AcDbSymbolTableRecord
100
AcDbLinetypeTableRecord
  2
DOT
 70
0
  3
Dot .  .  .  .  .  .  .  .  .  .  .  .  .  .  .  .
 72
65
 73
2
 40
0.508
 49
0.0
 74
0
 49
-0.508
 74
0
  0
LTYPE
  5
3C
330
2
100
AcDbSymbolTableRecord
100
AcDbLinetypeTableRecord
  2
DOTX2
 70
0
  3
Dot (2x) .    .    .    .    .    .    .    . 
 72
65
 73
2
 40
1.016
 49
0.0
 74
0
 49
-1.016
 74
0
  0
LTYPE
  5
3D
330
2
100
AcDbSymbolTableRecord
100
AcDbLinetypeTableRecord
  2
DOT2
 70
0
  3
Dot (.5) . . . . . . . . . . . . . . . . . . . 
 72
65
 73
2
 40
0.254
 49
0.0
 74
0
 49
-0.254
 74
0
  0
LTYPE
  5
3E
330
2
100
AcDbSymbolTableRecord
100
AcDbLinetypeTableRecord
  2
DIVIDE
 70
0
  3
Divide __ . . __ . . __ . . __ . . __ . . __
 72
65
 73
6
 40
4.064
 49
2.54
 74
0
 49
-0.508
 74
0
 49
0.0
 74
0
 49
-0.508
 74
0
 49
0.0
 74
0
 49
-0.508
 74
0
  0
LTYPE
  5
3F
330
2
100
AcDbSymbolTableRecord
100
AcDbLinetypeTableRecord
  2
DIVIDEX2
 70
0
  3
Divide (2x) ____  . .  ____  . .  ____  . .  ____
 72
65
 73
6
 40
6.604
 49
5.08
 74
0
 49
-0.508
 74
0
 49
0.0
 74
0
 49
-0.508
 74
0
 49
0.0
 74
0
 49
-0.508
 74
0
  0
LTYPE
  5
40
330
2
100
AcDbSymbolTableRecord
100
AcDbLinetypeTableRecord
  2
DIVIDE2
 70
0
  3
Divide(.5x) _ . _ . _ . _ . _ . _ . _ . _
 72
65
 73
6
 40
2.032
 49
1.27
 74
0
 49
-0.254
 74
0
 49
0.0
 74
0
 49
-0.254
 74
0
 49
0.0
 74
0
 49
-0.254
 74
0
  0
ENDTAB
  0
TABLE
  2
LAYER
  5
1
330
0
100
AcDbSymbolTable
 70
4
  0
LAYER
  5
27
330
1
100
AcDbSymbolTableRecord
100
AcDbLayerTableRecord
  2
0
 70
0
 62
7
  6
Continuous
370
-3
390
13
347
21
  0
LAYER
  5
28
330
1
100
AcDbSymbolTableRecord
100
AcDbLayerTableRecord
  2
Defpoints
 70
0
 62
7
  6
Continuous
290
0
370
-3
390
13
347
21
  0
LAYER
  5
8A
330
1
100
AcDbSymbolTableRecord
100
AcDbLayerTableRecord
  2
Layer
 70
0
 62
1
  6
Continuous
370
50
390
13
347
21
  0
LAYER
  5
8B
330
1
100
AcDbSymbolTableRecord
100
AcDbLayerTableRecord
  2
NumLabel
 70
0
 62
1
  6
Continuous
370
15
390
13
347
21
  0
ENDTAB
  0
TABLE
  2
STYLE
  5
5
330
0
100
AcDbSymbolTable
 70
26
  0
STYLE
  5
29
330
5
100
AcDbSymbolTableRecord
100
AcDbTextStyleTableRecord
  2
Standard
 70
0
 40
0.0
 41
1.0
 50
0.0
 71
0
 42
2.5
  3
txt
  4

  0
STYLE
  5
41
330
5
100
AcDbSymbolTableRecord
100
AcDbTextStyleTableRecord
  2
OpenSans-Light
 70
0
 40
0.0
 41
1.0
 50
0.0
 71
0
 42
2.5
  3
OpenSans-Light.ttf
  4

  0
STYLE
  5
42
330
5
100
AcDbSymbolTableRecord
100
AcDbTextStyleTableRecord
  2
OpenSans-Light-Italic
 70
0
 40
0.0
 41
1.0
 50
0.0
 71
0
 42
2.5
  3
OpenSans-LightItalic.ttf
  4

  0
STYLE
  5
43
330
5
100
AcDbSymbolTableRecord
100
AcDbTextStyleTableRecord
  2
OpenSans
 70
0
 40
0.0
 41
1.0
 50
0.0
 71
0
 42
2.5
  3
OpenSans-Regular.ttf
  4

  0
STYLE
  5
44
330
5
100
AcDbSymbolTableRecord
100
AcDbTextStyleTableRecord
  2
OpenSans-Italic
 70
0
 40
0.0
 41
1.0
 50
0.0
 71
0
 42
2.5
  3
OpenSans-Italic.ttf
  4

  0
STYLE
  5
45
330
5
100
AcDbSymbolTableRecord
100
AcDbTextStyleTableRecord
  2
OpenSans-SemiBold
 70
0
 40
0.0
 41
1.0
 50
0.0
 71
0
 42
2.5
  3
OpenSans-SemiBold.ttf
  4

  0
STYLE
  5
46
330
5
100
AcDbSymbolTableRecord
100
AcDbTextStyleTableRecord
  2
OpenSans-SemiBoldItalic
 70
0
 40
0.0
 41
1.0
 50
0.0
 71
0
 42
2.5
  3
OpenSans-SemiBoldItalic.ttf
  4

  0
STYLE
  5
47
330
5
100
AcDbSymbolTableRecord
100
AcDbTextStyleTableRecord
  2
OpenSans-Bold
 70
0
 40
0.0
 41
1.0
 50
0.0
 71
0
 42
2.5
  3
OpenSans-Bold.ttf
  4

  0
STYLE
  5
48
330
5
100
AcDbSymbolTableRecord
100
AcDbTextStyleTableRecord
  2
OpenSans-BoldItalic
 70
0
 40
0.0
 41
1.0
 50
0.0
 71
0
 42
2.5
  3
OpenSans-BoldItalic.ttf
  4

  0
STYLE
  5
49
330
5
100
AcDbSymbolTableRecord
100
AcDbTextStyleTableRecord
  2
OpenSans-ExtraBold
 70
0
 40
0.0
 41
1.0
 50
0.0
 71
0
 42
2.5
  3
OpenSans-ExtraBold.ttf
  4

  0
STYLE
  5
4A
330
5
100
AcDbSymbolTableRecord
100
AcDbTextStyleTableRecord
  2
OpenSans-ExtraBoldItalic
 70
0
 40
0.0
 41
1.0
 50
0.0
 71
0
 42
2.5
  3
OpenSans-ExtraBoldItalic.ttf
  4

  0
STYLE
  5
4B
330
5
100
AcDbSymbolTableRecord
100
AcDbTextStyleTableRecord
  2
OpenSansCondensed-Bold
 70
0
 40
0.0
 41
1.0
 50
0.0
 71
0
 42
2.5
  3
OpenSansCondensed-Bold.ttf
  4

  0
STYLE
  5
4C
330
5
100
AcDbSymbolTableRecord
100
AcDbTextStyleTableRecord
  2
OpenSansCondensed-Light
 70
0
 40
0.0
 41
1.0
 50
0.0
 71
0
 42
2.5
  3
OpenSansCondensed-Light.ttf
  4

  0
STYLE
  5
4D
330
5
100
AcDbSymbolTableRecord
100
AcDbTextStyleTableRecord
  2
OpenSansCondensed-Italic
 70
0
 40
0.0
 41
1.0
 50
0.0
 71
0
 42
2.5
  3
OpenSansCondensed-LightItalic.ttf
  4

  0
STYLE
  5
4E
330
5
100
AcDbSymbolTableRecord
100
AcDbTextStyleTableRecord
  2
LiberationSans
 70
0
 40
0.0
 41
1.0
 50
0.0
 71
0
 42
2.5
  3
LiberationSans-Regular.ttf
  4

  0
STYLE
  5
4F
330
5
100
AcDbSymbolTableRecord
100
AcDbTextStyleTableRecord
  2
LiberationSans-Bold
 70
0
 40
0.0
 41
1.0
 50
0.0
 71
0
 42
2.5
  3
LiberationSans-Bold.ttf
  4

  0
STYLE
  5
50
330
5
100
AcDbSymbolTableRecord
100
AcDbTextStyleTableRecord
  2
LiberationSans-BoldItalic
 70
0
 40
0.0
 41
1.0
 50
0.0
 71
0
 42
2.5
  3
LiberationSans-BoldItalic.ttf
  4

  0
STYLE
  5
51
330
5
100
AcDbSymbolTableRecord
100
AcDbTextStyleTableRecord
  2
LiberationSans-Italic
 70
0
 40
0.0
 41
1.0
 50
0.0
 71
0
 42
2.5
  3
LiberationSans-Italic.ttf
  4

  0
STYLE
  5
52
330
5
100
AcDbSymbolTableRecord
100
AcDbTextStyleTableRecord
  2
LiberationSerif
 70
0
 40
0.0
 41
1.0
 50
0.0
 71
0
 42
2.5
  3
LiberationSerif-Regular.ttf
  4

  0
STYLE
  5
53
330
5
100
AcDbSymbolTableRecord
100
AcDbTextStyleTableRecord
  2
LiberationSerif-Bold
 70
0
 40
0.0
 41
1.0
 50
0.0
 71
0
 42
2.5
  3
LiberationSerif-Bold.ttf
  4

  0
STYLE
  5
54
330
5
100
AcDbSymbolTableRecord
100
AcDbTextStyleTableRecord
  2
LiberationSerif-BoldItalic
 70
0
 40
0.0
 41
1.0
 50
0.0
 71
0
 42
2.5
  3
LiberationSerif-BoldItalic.ttf
  4

  0
STYLE
  5
55
330
5
100
AcDbSymbolTableRecord
100
AcDbTextStyleTableRecord
  2
LiberationSerif-Italic
 70
0
 40
0.0
 41
1.0
 50
0.0
 71
0
 42
2.5
  3
LiberationSerif-Italic.ttf
  4

  0
STYLE
  5
56
330
5
100
AcDbSymbolTableRecord
100
AcDbTextStyleTableRecord
  2
LiberationMono
 70
0
 40
0.0
 41
1.0
 50
0.0
 71
0
 42
2.5
  3
LiberationMono-Regular.ttf
  4

  0
STYLE
  5
57
330
5
100
AcDbSymbolTableRecord
100
AcDbTextStyleTableRecord
  2
LiberationMono-Bold
 70
0
 40
0.0
 41
1.0
 50
0.0
 71
0
 42
2.5
  3
LiberationMono-Bold.ttf
  4

  0
STYLE
  5
58
330
5
100
AcDbSymbolTableRecord
100
AcDbTextStyleTableRecord
  2
LiberationMono-BoldItalic
 70
0
 40
0.0
 41
1.0
 50
0.0
 71
0
 42
2.5
  3
LiberationMono-BoldItalic.ttf
  4

  0
STYLE
  5
59
330
5
100
AcDbSymbolTableRecord
100
AcDbTextStyleTableRecord
  2
LiberationMono-Italic
 70
0
 40
0.0
 41
1.0
 50
0.0
 71
0
 42
2.5
  3
LiberationMono-Italic.ttf
  4

  0
ENDTAB
  0
TABLE
  2
VIEW
  5
7
330
0
100
AcDbSymbolTable
 70
0
  0
ENDTAB
  0
TABLE
  2
UCS
  5
6
330
0
100
AcDbSymbolTable
 70
0
  0
ENDTAB
  0
TABLE
  2
APPID
  5
3
330
0
100
AcDbSymbolTable
 70
3
  0
APPID
  5
2A
330
3
100
AcDbSymbolTableRecord
100
AcDbRegAppTableRecord
  2
ACAD
 70
0
  0
APPID
  5
A8
330
3
100
AcDbSymbolTableRecord
100
AcDbRegAppTableRecord
  2
HATCHBACKGROUNDCOLOR
 70
0
  0
APPID
  5
A9
330
3
100
AcDbSymbolTableRecord
100
AcDbRegAppTableRecord
  2
EZDXF
 70
0
  0
ENDTAB
  0
TABLE
  2
DIMSTYLE
  5
4
330
0
100
AcDbSymbolTable
 70
12
100
AcDbDimStyleTable
  0
DIMSTYLE
105
2B
330
4
100
AcDbSymbolTableRecord
100
AcDbDimStyleTableRecord
  2
Standard
 70
0
 40
1.0
 41
2.5
 42
0.625
 43
3.75
 44
1.25
 45
0.0
 46
0.0
 47
0.0
 48
0.0
 49
2.5
140
2.5
141
2.5
142
0.0
143
0.03937007874
144
1.0
145
0.0
146
1.0
147
0.625
148
0.0
 69
0
 70
0
 71
0
 72
0
 73
0
 74
0
 75
0
 76
0
 77
1
 78
8
 79
3
170
0
171
3
172
1
173
0
174
0
175
0
176
0
177
0
178
0
179
2
271
2
272
2
273
2
274
3
275
0
276
0
277
2
278
44
279
0
280
0
281
0
282
0
283
0
284
8
285
0
286
0
288
0
289
3
290
0
371
-2
372
-2
  0
DIMSTYLE
105
73
330
4
100
AcDbSymbolTableRecord
100
AcDbDimStyleTableRecord
  2
EZDXF
 70
0
 40
1.0
 41
0.175
 42
0.125
 43
3.75
 44
0.375
 45
0.0
 46
0.0
 47
0.0
 48
0.0
 49
2.5
140
0.25
141
2.5
142
0.0
143
0.03937007874
144
100.0
145
0.0
146
0.5
147
0.1
148
0.0
 69
0
 70
0
 71
0
 72
0
 73
0
 74
0
 75
0
 76
0
 77
1
 78
12
 79
3
170
0
171
3
172
1
173
0
174
0
175
0
176
0
177
0
178
0
179
2
271
2
272
2
273
2
274
3
275
0
276
0
277
2
278
46
279
2
280
0
281
0
282
0
283
0
284
8
285
0
286
0
288
1
289
3
290
0
340
4C
342
74
371
-2
372
-2
  0
DIMSTYLE
105
7C
330
4
100
AcDbSymbolTableRecord
100
AcDbDimStyleTableRecord
  2
EZ_M_100_H25_CM
 70
0
 40
1.0
 41
0.25
 42
0.125
 43
3.75
 44
0.375
 45
0.0
 46
0.0
 47
0.0
 48
0.0
 49
2.5
140
0.25
141
2.5
142
0.125
143
0.03937007874
144
100.0
145
0.0
146
0.5
147
0.1
148
0.0
 69
0
 70
0
 71
0
 72
0
 73
0
 74
0
 75
0
 76
0
 77
1
 78
12
 79
3
170
0
171
3
172
1
173
0
174
0
175
0
176
0
177
0
178
0
179
2
271
2
272
2
273
2
274
3
275
0
276
0
277
2
278
46
279
2
280
0
281
0
282
0
283
0
284
8
285
0
286
0
288
1
289
3
290
0
340
4C
371
-2
372
-2
  0
DIMSTYLE
105
7D
330
4
100
AcDbSymbolTableRecord
100
AcDbDimStyleTableRecord
  2
EZ_M_50_H25_CM
 70
0
 40
1.0
 41
0.125
 42
0.0625
 43
3.75
 44
0.1875
 45
0.0
 46
0.0
 47
0.0
 48
0.0
 49
2.5
140
0.125
141
2.5
142
0.0625
143
0.03937007874
144
100.0
145
0.0
146
0.5
147
0.05
148
0.0
 69
0
 70
0
 71
0
 72
0
 73
0
 74
0
 75
0
 76
0
 77
1
 78
12
 79
3
170
0
171
3
172
1
173
0
174
0
175
0
176
0
177
0
178
0
179
2
271
2
272
2
273
2
274
3
275
0
276
0
277
2
278
46
279
2
280
0
281
0
282
0
283
0
284
8
285
0
286
0
288
1
289
3
290
0
340
4C
371
-2
372
-2
  0
DIMSTYLE
105
7E
330
4
100
AcDbSymbolTableRecord
100
AcDbDimStyleTableRecord
  2
EZ_M_25_H25_CM
 70
0
 40
1.0
 41
0.0625
 42
0.03125
 43
3.75
 44
0.09375
 45
0.0
 46
0.0
 47
0.0
 48
0.0
 49
2.5
140
0.0625
141
2.5
142
0.03125
143
0.03937007874
144
100.0
145
0.0
146
0.5
147
0.025
148
0.0
 69
0
 70
0
 71
0
 72
0
 73
0
 74
0
 75
0
 76
0
 77
1
 78
12
 79
3
170
0
171
3
172
1
173
0
174
0
175
0
176
0
177
0
178
0
179
2
271
2
272
2
273
2
274
3
275
0
276
0
277
2
278
46
279
2
280
0
281
0
282
0
283
0
284
8
285
0
286
0
288
1
289
3
290
0
340
4C
371
-2
372
-2
  0
DIMSTYLE
105
7F
330
4
100
AcDbSymbolTableRecord
100
AcDbDimStyleTableRecord
  2
EZ_M_20_H25_CM
 70
0
 40
1.0
 41
0.05
 42
0.025
 43
3.75
 44
0.07500000000000001
 45
0.0
 46
0.0
 47
0.0
 48
0.0
 49
2.5
140
0.05
141
2.5
142
0.025
143
0.03937007874
144
100.0
145
0.0
146
0.5
147
0.020000000000000004
148
0.0
 69
0
 70
0
 71
0
 72
0
 73
0
 74
0
 75
0
 76
0
 77
1
 78
12
 79
3
170
0
171
3
172
1
173
0
174
0
175
0
176
0
177
0
178
0
179
2
271
2
272
2
273
2
274
3
275
0
276
0
277
2
278
46
279
2
280
0
281
0
282
0
283
0
284
8
285
0
286
0
288
1
289
3
290
0
340
4C
371
-2
372
-2
  0
DIMSTYLE
105
80
330
4
100
AcDbSymbolTableRecord
100
AcDbDimStyleTableRecord
  2
EZ_M_10_H25_CM
 70
0
 40
1.0
 41
0.025
 42
0.0125
 43
3.75
 44
0.037500000000000006
 45
0.0
 46
0.0
 47
0.0
 48
0.0
 49
2.5
140
0.025
141
2.5
142
0.0125
143
0.03937007874
144
100.0
145
0.0
146
0.5
147
0.010000000000000002
148
0.0
 69
0
 70
0
 71
0
 72
0
 73
0
 74
0
 75
0
 76
0
 77
1
 78
12
 79
3
170
0
171
3
172
1
173
0
174
0
175
0
176
0
177
0
178
0
179
2
271
2
272
2
273
2
274
3
275
0
276
0
277
2
278
46
279
2
280
0
281
0
282
0
283
0
284
8
285
0
286
0
288
1
289
3
290
0
340
4C
371
-2
372
-2
  0
DIMSTYLE
105
81
330
4
100
AcDbSymbolTableRecord
100
AcDbDimStyleTableRecord
  2
EZ_M_5_H25_CM
 70
0
 40
1.0
 41
0.0125
 42
0.00625
 43
3.75
 44
0.018750000000000003
 45
0.0
 46
0.0
 47
0.0
 48
0.0
 49
2.5
140
0.0125
141
2.5
142
0.00625
143
0.03937007874
144
100.0
145
0.0
146
0.5
147
0.005000000000000001
148
0.0
 69
0
 70
0
 71
0
 72
0
 73
0
 74
0
 75
0
 76
0
 77
1
 78
12
 79
3
170
0
171
3
172
1
173
0
174
0
175
0
176
0
177
0
178
0
179
2
271
2
272
2
273
2
274
3
275
0
276
0
277
2
278
46
279
2
280
0
281
0
282
0
283
0
284
8
285
0
286
0
288
1
289
3
290
0
340
4C
371
-2
372
-2
  0
DIMSTYLE
105
82
330
4
100
AcDbSymbolTableRecord
100
AcDbDimStyleTableRecord
  2
EZ_M_1_H25_CM
 70
0
 40
1.0
 41
0.0025
 42
0.00125
 43
3.75
 44
0.00375
 45
0.0
 46
0.0
 47
0.0
 48
0.0
 49
2.5
140
0.0025
141
2.5
142
0.00125
143
0.03937007874
144
100.0
145
0.0
146
0.5
147
0.001
148
0.0
 69
0
 70
0
 71
0
 72
0
 73
0
 74
0
 75
0
 76
0
 77
1
 78
12
 79
3
170
0
171
3
172
1
173
0
174
0
175
0
176
0
177
0
178
0
179
2
271
2
272
2
273
2
274
3
275
0
276
0
277
2
278
46
279
2
280
0
281
0
282
0
283
0
284
8
285
0
286
0
288
1
289
3
290
0
340
4C
371
-2
372
-2
  0
DIMSTYLE
105
83
330
4
100
AcDbSymbolTableRecord
100
AcDbDimStyleTableRecord
  2
EZ_RADIUS
 70
0
 40
1.0
 41
0.25
 42
0.125
 43
3.75
 44
0.375
 45
0.0
 46
0.0
 47
0.0
 48
0.0
 49
2.5
140
0.25
141
0.0
142
0.0
143
0.03937007874
144
100.0
145
0.0
146
0.5
147
0.1
148
0.0
 69
0
 70
0
 71
0
 72
0
 73
0
 74
0
 75
0
 76
0
 77
1
 78
12
 79
3
170
0
171
3
172
0
173
0
174
0
175
0
176
0
177
0
178
0
179
2
271
2
272
2
273
2
274
3
275
0
276
0
277
2
278
46
279
1
280
0
281
0
282
0
283
0
284
8
285
0
286
0
288
1
289
3
290
0
340
4C
342
84
371
-2
372
-2
  0
DIMSTYLE
105
88
330
4
100
AcDbSymbolTableRecord
100
AcDbDimStyleTableRecord
  2
EZ_RADIUS_INSIDE
 70
0
 40
1.0
 41
0.25
 42
0.125
 43
3.75
 44
0.375
 45
0.0
 46
0.0
 47
0.0
 48
0.0
 49
2.5
140
0.25
141
0.0
142
0.0
143
0.03937007874
144
100.0
145
0.0
146
0.5
147
0.1
148
0.0
 69
0
 70
0
 71
0
 72
0
 73
0
 74
0
 75
0
 76
0
 77
0
 78
12
 79
3
170
0
171
3
172
0
173
0
174
1
175
0
176
0
177
0
178
0
179
2
271
2
272
2
273
2
274
3
275
0
276
0
277
2
278
46
279
0
280
0
281
0
282
0
283
0
284
8
285
0
286
0
288
1
289
0
290
0
340
4C
342
84
371
-2
372
-2
  0
DIMSTYLE
105
89
330
4
100
AcDbSymbolTableRecord
100
AcDbDimStyleTableRecord
  2
EZ_CURVED
 70
0
 40
1.0
 41
0.25
 42
0.125
 43
3.75
 44
0.375
 45
0.0
 46
0.0
 47
0.0
 48
0.0
 49
2.5
140
0.25
141
2.5
142
0.0
143
0.03937007874
144
100.0
145
0.0
146
0.5
147
0.1
148
0.0
 69
0
 70
0
 71
0
 72
0
 73
0
 74
0
 75
0
 76
0
 77
1
 78
12
 79
2
 90
2
170
0
171
3
172
1
173
0
174
0
175
0
176
0
177
0
178
0
179
2
271
2
272
2
273
2
274
3
275
0
276
0
277
2
278
46
279
2
280
0
281
0
282
0
283
0
284
8
285
0
286
0
288
1
289
3
290
0
340
4C
371
-2
372
-2
  0
ENDTAB
  0
TABLE
  2
BLOCK_RECORD
  5
9
330
0
100
AcDbSymbolTable
 70
5
  0
BLOCK_RECORD
  5
17
330
9
100
AcDbSymbolTableRecord
100
AcDbBlockTableRecord
  2
*Model_Space
340
1A
 70
0
280
1
281
0
  0
BLOCK_RECORD
  5
1B
330
9
100
AcDbSymbolTableRecord
100
AcDbBlockTableRecord
  2
*Paper_Space
340
1E
 70
0
280
1
281
0
  0
BLOCK_RECORD
  5
74
330
9
100
AcDbSymbolTableRecord
100
AcDbBlockTableRecord
  2
_ARCHTICK
340
0
 70
0
280
1
281
0
  0
BLOCK_RECORD
  5
78
330
9
100
AcDbSymbolTableRecord
100
AcDbBlockTableRecord
  2
_CLOSEDFILLED
340
0
 70
0
280
1
281
0
  0
BLOCK_RECORD
  5
84
330
9
100
AcDbSymbolTableRecord
100
AcDbBlockTableRecord
  2
_CLOSEDBLANK
340
0
 70
0
280
1
281
0
  0
ENDTAB
  0
ENDSEC
  0
SECTION
  2
BLOCKS
  0
BLOCK
  5
18
330
17
100
AcDbEntity
  8
0
100
AcDbBlockBegin
  2
*Model_Space
 70
0
 10
0.0
 20
0.0
 30
0.0
  3
*Model_Space
  1

  0
ENDBLK
  5
19
330
17
100
AcDbEntity
  8
0
100
AcDbBlockEnd
  0
BLOCK
  5
1C
330
1B
100
AcDbEntity
  8
0
100
AcDbBlockBegin
  2
*Paper_Space
 70
0
 10
0.0
 20
0.0
 30
0.0
  3
*Paper_Space
  1

  0
ENDBLK
  5
1D
330
1B
100
AcDbEntity
  8
0
100
AcDbBlockEnd
  0
BLOCK
  5
75
330
74
100
AcDbEntity
  8
0
100
AcDbBlockBegin
  2
_ARCHTICK
 70
0
 10
0.0
 20
0.0
 30
0.0
  3
_ARCHTICK
  1

  0
LWPOLYLINE
  5
77
330
74
100
AcDbEntity
  8
0
  6
BYBLOCK
 62
0
100
AcDbPolyline
 90
2
 70
0
 43
0.15
 10
-0.5
 20
-0.5
 10
0.5
 20
0.5
  0
ENDBLK
  5
76
330
74
100
AcDbEntity
  8
0
100
AcDbBlockEnd
  0
BLOCK
  5
79
330
78
100
AcDbEntity
  8
0
100
AcDbBlockBegin
  2
_CLOSEDFILLED
 70
0
 10
0.0
 20
0.0
 30
0.0
  3
_CLOSEDFILLED
  1

  0
SOLID
  5
7B
330
78
100
AcDbEntity
  8
0
  6
BYBLOCK
 62
0
100
AcDbTrace
 10
-1.0
 20
0.16439898372402537
 30
0.0
 11
0.0
 21
0.0
 31
0.0
 12
-1.0
 22
-0.16439898372402537
 32
0.0
 13
-1.0
 23
-0.16439898372402537
 33
0.0
  0
ENDBLK
  5
7A
330
78
100
AcDbEntity
  8
0
100
AcDbBlockEnd
  0
BLOCK
  5
85
330
84
100
AcDbEntity
  8
0
100
AcDbBlockBegin
  2
_CLOSEDBLANK
 70
0
 10
0.0
 20
0.0
 30
0.0
  3
_CLOSEDBLANK
  1

  0
LWPOLYLINE
  5
87
330
84
100
AcDbEntity
  8
0
  6
BYBLOCK
 62
0
100
AcDbPolyline
 90
3
 70
1
 10
-1.0
 20
0.16439898372402537
 10
0.0
 20
0.0
 10
-1.0
 20
-0.16439898372402537
  0
ENDBLK
  5
86
330
84
100
AcDbEntity
  8
0
100
AcDbBlockEnd
  0
ENDSEC
  0
SECTION
  2
ENTITIES
  0
LWPOLYLINE
  5
8C
330
17
100
AcDbEntity
  8
Layer
100
AcDbPolyline
 90
152
 70
1
 10
449.0727267371186
 20
155.6052738136574
 10
449.0727272567855
 20
250.13017956185854
 10
441.02585601985857
 20
251.2470960279221
 10
432.23381788755927
 20
252.3932127120667
 10
423.4261146444668
 20
253.46856210197762
 10
414.60444564477916
 20
254.47512356433197
 10
405.77279725389974
 20
255.4126323293654
 10
396.9322168725598
 20
256.27988632667837
 10
388.08159817736254
 20
257.0770500836978
 10
379.2232569542008
 20
257.80589994791796
 10
370.36336059672584
 20
258.4663886503736
 10
361.5058439132199
 20
259.05659757200993
 10
352.65076172992485
 20
259.5753788513073
 10
343.79970289682814
 20
260.02386204514283
 10
334.9584095944585
 20
260.4018628864265
 10
326.1313372326231
 20
260.70760951382675
 10
317.31842030844575
 20
260.9390705687059
 10
308.5202126351678
 20
261.09691652644614
 10
299.74204702509263
 20
261.18135715143495
 10
290.98860250385087
 20
261.19043361374713
 10
282.2606731122306
 20
261.1219636118006
 10
273.55849387781984
 20
260.97601874986873
 10
264.8875159869933
 20
260.752994023811
 10
256.25347212959946
 20
260.45105154321664
 10
247.65732504885113
 20
260.067540622802
 10
239.10045741619348
 20
259.60246087580083
 10
230.5889274420412
 20
259.0562851502019
 10
222.1295491819591
 20
258.4269342999641
 10
213.7237858611539
 20
257.7116066473991
 10
205.37446512078733
 20
256.9108546785218
 10
197.08999677579214
 20
256.0250410445564
 10
188.87696189414206
 20
255.05144594113898
 10
180.73783991888962
 20
253.9881620511234
 10
172.67870271852897
 20
252.83657485592317
 10
164.70977198400388
 20
251.59647198896835
 10
156.83769289293446
 20
250.2658141583775
 10
149.06817178520637
 20
248.84608486351897
 10
141.41724726947442
 20
247.3430812940173
 10
133.9042750527954
 20
245.75769205583683
 10
126.54110061434403
 20
244.08895860368796
 10
119.34075772624246
 20
242.34287869612825
 10
112.32661391583915
 20
240.52796587574176
 10
105.519694135196
 20
238.64720755117884
 10
98.93467667240353
 20
236.70641920232816
 10
92.59153972289712
 20
234.71961576653132
 10
86.51481987059049
 20
232.6992314548379
 10
80.72125445506259
 20
230.65300534572847
 10
75.22181308963098
 20
228.59445852701978
 10
70.02908017987806
 20
226.54068719764103
 10
65.15158369417509
 20
224.5028152238257
 10
60.58790317776197
 20
222.4888211267764
 10
56.331671738669286
 20
220.51015080094885
 10
52.37566992493112
 20
218.5770224015412
 10
48.70890174385454
 20
216.6930278030037
 10
45.31502189249193
 20
214.85830937237333
 10
42.17502502675103
 20
213.07473587496744
 10
39.27128320367825
 20
211.34527039367885
 10
36.587738187987895
 20
209.6694101256355
 10
34.10785411754904
 20
208.0433839419776
 10
31.815140760412817
 20
206.46341794536028
 10
29.693753918188463
 20
204.92706775892205
 10
27.73062172492945
 20
203.43336861099382
 10
25.91504702827325
 20
201.97935082546687
 10
24.23724016202891
 20
200.5598055541681
 10
22.685473139249837
 20
199.16795338479616
 10
21.24669468511081
 20
197.80159377755427
 10
19.907949773663802
 20
196.46175300048964
 10
18.65928538658028
 20
195.15391482698905
 10
17.495289815517197
 20
193.88209009549138
 10
16.415906235399802
 20
192.6490267620873
 10
15.42348026473104
 20
191.44988442785856
 10
14.520129791155341
 20
190.27752767655068
 10
13.705404833189561
 20
189.12256582013262
 10
12.974624362192856
 20
187.97620359637614
 10
12.320859016803695
 20
186.83635629861928
 10
11.736366476683997
 20
185.70470591954114
 10
11.215728846653292
 20
184.58796215360593
 10
10.756571769213792
 20
183.49116635029802
 10
10.35960430292954
 20
182.41853894384326
 10
10.02715765421675
 20
181.37035140082537
 10
9.761216405262587
 20
180.3436194305393
 10
9.562107492342705
 20
179.3353646664355
 10
9.428184832047805
 20
178.34331338312296
 10
9.352845231941956
 20
177.2876515797767
 10
9.342643126224516
 20
176.38921133429588
 10
9.391592779275811
 20
175.40556125221545
 10
9.509140209560087
 20
174.42510936204943
 10
9.703985601970771
 20
173.45238315647302
 10
9.986836625867227
 20
172.487274919107
 10
10.366650028301194
 20
171.52829411556377
 10
10.846645741632926
 20
170.57597733726917
 10
11.423746345384302
 20
169.63340909140706
 10
12.091480573501315
 20
168.7058472165129
 10
12.845537977062065
 20
167.7983360620412
 10
13.685495877354754
 20
166.91500500446716
 10
14.615135292332354
 20
166.05784502138232
 10
15.638188720977666
 20
165.2269914516555
 10
16.756907988443345
 20
164.4205640689725
 10
17.970057532456053
 20
163.6358919043848
 10
19.276729080766643
 20
162.87003693876792
 10
20.676207706036962
 20
162.12139855479825
 10
22.172704418777357
 20
161.38935649296056
 10
23.772362038710867
 20
160.673660532736
 10
25.484952291175034
 20
159.97347658269186
 10
27.32022376319344
 20
159.28606339921797
 10
29.288065860652637
 20
158.6071752316523
 10
31.39938892887011
 20
157.93213227763906
 10
33.66579208839721
 20
157.25679506175132
 10
36.10266774989947
 20
156.57891354371299
 10
38.728797832568546
 20
155.89746328654414
 10
41.56691629344971
 20
155.21137812494644
 10
44.641546865196574
 20
154.518555278615
 10
47.97963805797576
 20
153.81695288180828
 10
51.609814733334304
 20
153.10575052236484
 10
55.56421588302214
 20
152.38624478917467
 10
59.87732621465722
 20
151.66064264810763
 10
64.58235659435292
 20
150.92991694234033
 10
69.70721940996009
 20
150.195712420017
 10
75.27301187590052
 20
149.46356635343182
 10
81.29352789058953
 20
148.74144879586763
 10
87.77153008255692
 20
148.03544435050986
 10
94.69197243471092
 20
147.35062985838843
 10
102.02622589557902
 20
146.69589870376439
 10
109.74130170717018
 20
146.07875055045287
 10
117.79623967630155
 20
145.50132720976222
 10
126.14333404852033
 20
144.9667159243302
 10
134.7437406424478
 20
144.47857997487742
 10
143.5644610318551
 20
144.035102324781
 10
152.5720219545627
 20
143.63421071254274
 10
161.74712864102807
 20
143.2770997110798
 10
171.08570613920912
 20
142.95645147409806
 10
180.56080476039844
 20
142.65452501143832
 10
181.56156123559322
 20
142.62400726803617
 10
181.51584047581088
 20
141.12470422591127
 10
190.06613869042607
 20
140.86396566124216
 10
199.64331159212074
 20
140.5970764611082
 10
209.25296291117698
 20
140.3699846588839
 10
218.93133054597797
 20
140.18106352823156
 10
228.69788629851968
 20
140.01427730987504
 10
238.5345444694416
 20
139.8524859576021
 10
248.40537168471502
 20
139.68700102996513
 10
258.2808716791787
 20
139.5216555472736
 10
268.13917580639145
 20
139.37079150070275
 10
277.9998718991392
 20
139.24617253882917
 10
287.89857623496323
 20
139.1447159766039
 10
297.8496434886672
 20
139.05291508152413
 10
307.83578376536525
 20
138.96053034159345
 10
317.8421249335688
 20
138.8675503207847
 10
327.85614916282947
 20
138.7763640588245
 10
337.86686584848627
 20
138.68574251246528
 10
357.3401793867053
 20
138.51833516046406
 10
449.0727267371186
 20
155.6052738136574
  0
LWPOLYLINE
  5
8D
330
17
100
AcDbEntity
  8
NumLabel
 62
1
100
AcDbPolyline
 90
7
 70
0
 10
255.88072727272728
 20
166.09272727272727
 10
260.8807272727273
 20
166.09272727272727
 10
260.8807272727273
 20
161.09272727272727
 10
255.88072727272728
 20
161.09272727272727
 10
260.8807272727273
 20
161.09272727272727
 10
260.8807272727273
 20
156.09272727272727
 10
255.88072727272728
 20
156.09272727272727
  0
LWPOLYLINE
  5
8E
330
17
100
AcDbEntity
  8
NumLabel
 62
1
100
AcDbPolyline
 90
5
 70
0
 10
263.3807272727273
 20
166.09272727272727
 10
263.3807272727273
 20
161.09272727272727
 10
268.3807272727273
 20
161.09272727272727
 10
268.3807272727273
 20
166.09272727272727
 10
268.3807272727273
 20
156.09272727272727
  0
LWPOLYLINE
  5
8F
330
17
100
AcDbEntity
  8
Layer
100
AcDbPolyline
 90
5
 70
1
 10
253.11200204703854
 20
256.3068908664268
 10
249.11597844834776
 20
256.12857822327885
 10
248.93766580519988
 20
260.1246018219696
 10
252.93368940389067
 20
260.3029144651175
 10
253.11200204703854
 20
256.3068908664268
  0
LWPOLYLINE
  5
90
330
17
100
AcDbEntity
  8
Layer
100
AcDbPolyline
 90
5
 70
1
 10
103.25744874827265
 20
233.810233405248
 10
99.42065658502892
 20
232.67929313446822
 10
98.28971631424915
 20
236.51608529771195
 10
102.12650847749288
 20
237.64702556849173
 10
103.25744874827265
 20
233.810233405248
  0
LWPOLYLINE
  5
91
330
17
100
AcDbEntity
  8
Layer
100
AcDbPolyline
 90
5
 70
1
 10
27.665631774385776
 20
196.91832810606977
 10
26.17717352937804
 20
195.58247929244286
 10
22.837551495310702
 20
199.30362490496222
 10
24.326009740318437
 20
200.63947371858913
 10
27.665631774385776
 20
196.91832810606977
  0
LWPOLYLINE
  5
92
330
17
100
AcDbEntity
  8
Layer
100
AcDbPolyline
 90
5
 70
1
 10
18.731407035425608
 20
169.16125476406185
 10
20.355416099167957
 20
167.99395250633992
 10
17.437160454863143
 20
163.93392984698406
 10
15.813151391120796
 20
165.10123210470599
 10
18.731407035425608
 20
169.16125476406185
  0
LWPOLYLINE
  5
93
330
17
100
AcDbEntity
  8
Layer
100
AcDbPolyline
 90
5
 70
1
 10
135.906316576845
 20
148.4251844097103
 10
139.90127119172323
 20
148.22434212067964
 10
139.70042890269255
 20
144.2293875058014
 10
135.70547428781433
 20
144.4302297948321
 10
135.906316576845
 20
148.4251844097103
  0
LWPOLYLINE
  5
94
330
17
100
AcDbEntity
  8
Layer
100
AcDbPolyline
 90
300
 70
1
 10
391.3519456951366
 20
200.0
 10
391.34142377254034
 20
201.0626311722437
 10
391.3098626509364
 20
202.124793116476
 10
391.2572762668276
 20
203.18601681188346
 10
391.18368784088074
 20
204.24583365195681
 10
391.0891298676732
 20
205.30377565141458
 10
390.97364410134395
 20
206.35937565285204
 10
390.8372815371564
 20
207.41216753302493
 10
390.6801023889802
 20
208.4616864086763
 10
390.50217606270223
 20
209.50746884181575
 10
390.30358112557946
 20
210.54905304436085
 10
390.08440527154545
 20
211.5859790820495
 10
389.8447452824873
 20
212.61778907753418
 10
389.5847069855094
 20
213.64402741256745
 10
389.3044052062034
 20
214.66424092919038
 10
389.00396371794415
 20
215.67797912983423
 10
388.6835151872352
 20
216.68479437624745
 10
388.3432011151266
 20
217.68424208716027
 10
387.9831717747324
 20
218.67588093459915
 10
387.60358614487404
 20
219.65927303876478
 10
387.20461183988004
 20
220.63398416138764
 10
386.78642503557177
 20
221.59958389747518
 10
386.34921039146957
 20
222.55564586536673
 10
385.8931609692522
 20
223.50174789501145
 10
385.4184781475063
 20
224.43747221438693
 10
384.92537153280296
 20
225.3624056339755
 10
384.4140588671417
 20
226.27613972921694
 10
383.8847659318017
 20
227.1782710208575
 10
383.3377264476431
 20
228.06840115311476
 10
382.7731819719021
 20
228.9461370695806
 10
382.19138179152674
 20
229.8110911867835
 10
381.5925828130983
 20
230.6628815653348
 10
380.9770494493888
 20
231.5011320785822
 10
380.34505350260366
 20
232.32547257869675
 10
379.6968740443616
 20
233.13553906011975
 10
379.03279729246435
 20
233.93097382029728
 10
378.353116484511
 20
234.7114256176317
 10
377.6581317484126
 20
235.47654982657986
 10
376.94814996986395
 20
236.22600858983026
 10
376.22348465683166
 20
236.95947096749114
 10
375.48445580111786
 20
237.67661308322437
 10
374.7313897370607
 20
238.37711826726002
 10
373.9646189974343
 20
239.06067719622877
 10
373.18448216661193
 20
239.72698802975063
 10
372.3913237310562
 20
240.37575654371892
 10
371.5854939272041
 20
241.00669626022142
 10
370.76734858681186
 20
241.61952857404106
 10
369.93724897983003
 20
242.21398287567993
 10
369.0955616548769
 20
242.789796670853
 10
368.24265827738066
 20
243.3467156963982
 10
367.3789154654626
 20
243.88449403255171
 10
366.5047146236331
 20
244.40289421153938
 10
365.62044177437417
 20
244.90168732243572
 10
364.72648738768277
 20
245.38065311224457
 10
363.8232462086502
 20
245.8395800831566
 10
362.9111170831538
 20
246.27826558594072
 10
361.9905027817379
 20
246.69651590942846
 10
361.06180982176176
 20
247.09414636605115
 10
360.1254482878926
 20
247.47098137339293
 10
359.18183165102425
 20
247.82685453172292
 10
358.2313765856996
 20
248.16160869747256
 10
357.27450278611906
 20
248.47509605262607
 10
356.3116327808155
 20
248.76717816999238
 10
355.3431917460773
 20
249.0377260743309
 10
354.36960731820267
 20
249.28662029930334
 10
353.39130940466754
 20
249.5137509402266
 10
352.4087299942902
 20
249.71901770260365
 10
351.4223029664776
 20
249.90232994641067
 10
350.4324638996361
 20
250.06360672612132
 10
349.4396498788326
 20
250.20277682644974
 10
348.44429930278983
 20
250.31977879379747
 10
347.4468516903018
 20
250.41456096338945
 10
346.447747486155
 20
250.4870814820878
 10
345.44742786663994
 20
250.53730832687302
 10
344.4463345447406
 20
250.5652193189844
 10
343.44490957508583
 20
250.57080213371353
 10
342.44359515875107
 20
250.5540543058466
 10
341.4428334479945
 20
250.51498323075293
 10
340.4430663510148
 20
250.45360616111935
 10
339.44473533681753
 20
250.36995019933204
 10
338.4482812402744
 20
250.26405228550865
 10
337.4541440674631
 20
250.13595918118685
 10
336.462762801373
 20
249.98572744867545
 10
335.47457520806273
 20
249.8134234260784
 10
334.49001764335486
 20
249.6191231980015
 10
333.50952486015353
 20
249.40291256195567
 10
332.5335298164698
 20
249.16488699047125
 10
331.56246348423963
 20
248.9051515889399
 10
330.59675465901864
 20
248.6238210492031
 10
329.6368297706383
 20
248.32101959890736
 10
328.68311269490624
 20
247.99688094664901
 10
327.73602456643493
 20
247.65154822293192
 10
326.7959835926803
 20
247.28517391696545
 10
325.86340486927304
 20
246.89791980932924
 10
324.9387001967243
 20
246.48995690053553
 10
324.022277898586
 20
246.06146533552027
 10
323.1145426411467
 20
245.612634324096
 10
322.21589525474224
 20
245.14366205740228
 10
321.3267325567604
 20
244.65475562038995
 10
320.4474471764178
 20
244.14613090037835
 10
319.57842738138544
 20
243.61801249172547
 10
318.7200569063409
 20
243.0706335966534
 10
317.87271478352193
 20
242.50423592227287
 10
317.03677517535624
 20
241.91906957385214
 10
316.2126072092421
 20
241.31539294437758
 10
315.4005748145521
 20
240.69347260045456
 10
314.6010365619321
 20
240.0535831645992
 10
313.8143455049665
 20
239.3960071939727
 10
313.04084902427996
 20
238.72103505561225
 10
312.2808886741433
 20
238.02896479821285
 10
311.53480003165356
 20
237.32010202051765
 10
310.80291254855194
 20
236.59475973637393
 10
310.0855494057475
 20
235.85325823651513
 10
309.38302737060945
 20
235.0959249471295
 10
308.69565665709183
 20
234.32309428527788
 10
308.0237407887514
 20
233.5351075112244
 10
307.3675764647204
 20
232.73231257774574
 10
306.72745342869257
 20
231.915063976485
 10
306.10365434098037
 20
231.08372258141793
 10
305.49645465370037
 20
230.23865548950144
 10
304.90612248914096
 20
229.38023585857366
 10
304.3329185213676
 20
228.50884274257814
 10
303.7770958611161
 20
227.6248609241842
 10
303.23889994402606
 20
226.72868074487766
 10
302.7185684222638
 20
225.82069793259728
 10
302.2163310595813
 20
224.90131342699223
 10
301.7324096298594
 20
223.97093320237838
 10
301.2670178191785
 20
223.02996808847163
 10
300.82036113146086
 20
222.07883358897712
 10
300.3926367977259
 20
221.11794969811422
 10
299.9840336889985
 20
220.1477407151592
 10
299.5947322329088
 20
219.16863505708642
 10
299.22490433402055
 20
218.18106506939154
 10
298.87471329792277
 20
217.18546683517985
 10
298.5443137591187
 20
216.18227998260443
 10
298.23385161274365
 20
215.17194749073843
 10
297.9434639501415
 20
214.1549154939683
 10
297.67327899832935
 20
213.13163308499315
 10
297.42341606337595
 20
212.1025521165182
 10
297.1939854777193
 20
211.0681270017294
 10
296.98508855144746
 20
210.02881451363712
 10
296.7968175275623
 20
208.98507358337827
 10
296.6292555412479
 20
207.9373650975651
 10
296.4824765831604
 20
206.88615169477083
 10
296.35654546675573
 20
205.83189756124122
 10
296.25151779966967
 20
204.7750682259232
 10
296.16743995916346
 20
203.71613035490026
 10
296.10434907164455
 20
202.65555154532595
 10
296.0622729962728
 20
201.59380011894604
 10
296.0412303126585
 20
200.53134491530088
 10
296.0412303126585
 20
199.46865508469912
 10
296.0622729962728
 20
198.406199881054
 10
296.10434907164455
 20
197.34444845467408
 10
296.16743995916346
 20
196.28386964509974
 10
296.25151779966967
 20
195.2249317740768
 10
296.35654546675573
 20
194.16810243875878
 10
296.4824765831604
 20
193.11384830522917
 10
296.6292555412479
 20
192.0626349024349
 10
296.7968175275623
 20
191.01492641662176
 10
296.98508855144746
 20
189.97118548636288
 10
297.19398547771937
 20
188.9318729982706
 10
297.42341606337595
 20
187.89744788348176
 10
297.67327899832935
 20
186.86836691500687
 10
297.9434639501415
 20
185.84508450603172
 10
298.23385161274365
 20
184.82805250926157
 10
298.5443137591187
 20
183.8177200173956
 10
298.87471329792277
 20
182.81453316482015
 10
299.22490433402055
 20
181.81893493060846
 10
299.5947322329088
 20
180.83136494291358
 10
299.9840336889985
 20
179.85225928484078
 10
300.3926367977259
 20
178.88205030188578
 10
300.82036113146086
 20
177.9211664110229
 10
301.2670178191785
 20
176.97003191152837
 10
301.7324096298594
 20
176.02906679762165
 10
302.2163310595813
 20
175.0986865730078
 10
302.7185684222638
 20
174.1793020674027
 10
303.2388999440261
 20
173.2713192551223
 10
303.7770958611161
 20
172.37513907581584
 10
304.3329185213676
 20
171.49115725742186
 10
304.90612248914096
 20
170.61976414142634
 10
305.4964546537003
 20
169.7613445104986
 10
306.10365434098037
 20
168.91627741858207
 10
306.72745342869257
 20
168.084936023515
 10
307.3675764647204
 20
167.26768742225426
 10
308.0237407887514
 20
166.4648924887756
 10
308.69565665709183
 20
165.67690571472212
 10
309.38302737060945
 20
164.9040750528705
 10
310.0855494057475
 20
164.14674176348487
 10
310.80291254855194
 20
163.4052402636261
 10
311.53480003165356
 20
162.67989797948235
 10
312.28088867414334
 20
161.97103520178712
 10
313.0408490242799
 20
161.27896494438775
 10
313.8143455049665
 20
160.6039928060273
 10
314.6010365619321
 20
159.94641683540084
 10
315.4005748145521
 20
159.30652739954544
 10
316.2126072092421
 20
158.68460705562242
 10
317.0367751753562
 20
158.08093042614786
 10
317.87271478352193
 20
157.49576407772713
 10
318.720056906341
 20
156.9293664033466
 10
319.57842738138544
 20
156.38198750827453
 10
320.4474471764178
 20
155.85386909962165
 10
321.3267325567604
 20
155.34524437961005
 10
322.21589525474224
 20
154.85633794259772
 10
323.1145426411467
 20
154.387365675904
 10
324.022277898586
 20
153.93853466447976
 10
324.9387001967243
 20
153.5100430994645
 10
325.86340486927304
 20
153.1020801906708
 10
326.7959835926803
 20
152.71482608303455
 10
327.73602456643493
 20
152.34845177706808
 10
328.68311269490624
 20
152.003119053351
 10
329.63682977063826
 20
151.67898040109264
 10
330.59675465901864
 20
151.3761789507969
 10
331.56246348423963
 20
151.0948484110601
 10
332.5335298164698
 20
150.83511300952875
 10
333.50952486015353
 20
150.59708743804433
 10
334.49001764335486
 20
150.3808768019985
 10
335.47457520806273
 20
150.1865765739216
 10
336.462762801373
 20
150.01427255132455
 10
337.4541440674631
 20
149.86404081881315
 10
338.4482812402744
 20
149.73594771449135
 10
339.44473533681753
 20
149.63004980066796
 10
340.4430663510148
 20
149.54639383888065
 10
341.4428334479944
 20
149.48501676924707
 10
342.44359515875107
 20
149.4459456941534
 10
343.44490957508583
 20
149.42919786628647
 10
344.4463345447405
 20
149.4347806810156
 10
345.44742786663994
 20
149.46269167312698
 10
346.447747486155
 20
149.5129185179122
 10
347.4468516903018
 20
149.58543903661055
 10
348.44429930278983
 20
149.68022120620253
 10
349.4396498788326
 20
149.79722317355026
 10
350.43246389963616
 20
149.93639327387868
 10
351.4223029664776
 20
150.09767005358933
 10
352.4087299942902
 20
150.28098229739638
 10
353.3913094046675
 20
150.4862490597734
 10
354.36960731820267
 20
150.71337970069666
 10
355.34319174607725
 20
150.9622739256691
 10
356.31163278081544
 20
151.23282183000762
 10
357.27450278611906
 20
151.52490394737393
 10
358.2313765856996
 20
151.8383913025274
 10
359.18183165102425
 20
152.17314546827708
 10
360.1254482878926
 20
152.52901862660707
 10
361.06180982176176
 20
152.90585363394885
 10
361.9905027817379
 20
153.30348409057154
 10
362.9111170831538
 20
153.72173441405928
 10
363.8232462086502
 20
154.1604199168434
 10
364.72648738768277
 20
154.61934688775543
 10
365.6204417743742
 20
155.09831267756428
 10
366.5047146236331
 20
155.59710578846062
 10
367.37891546546257
 20
156.11550596744826
 10
368.24265827738066
 20
156.65328430360177
 10
369.0955616548769
 20
157.21020332914696
 10
369.93724897983003
 20
157.78601712432007
 10
370.7673485868118
 20
158.38047142595894
 10
371.5854939272041
 20
158.99330373977855
 10
372.3913237310562
 20
159.62424345628108
 10
373.18448216661193
 20
160.27301197024937
 10
373.9646189974343
 20
160.93932280377123
 10
374.7313897370607
 20
161.62288173273998
 10
375.48445580111786
 20
162.32338691677563
 10
376.22348465683166
 20
163.04052903250886
 10
376.94814996986395
 20
163.77399141016974
 10
377.6581317484126
 20
164.52345017342014
 10
378.353116484511
 20
165.28857438236832
 10
379.0327972924643
 20
166.0690261797027
 10
379.6968740443616
 20
166.86446093988025
 10
380.34505350260366
 20
167.67452742130322
 10
380.9770494493888
 20
168.4988679214178
 10
381.5925828130983
 20
169.3371184346652
 10
382.19138179152674
 20
170.1889088132165
 10
382.7731819719021
 20
171.0538629304194
 10
383.3377264476431
 20
171.93159884688524
 10
383.8847659318017
 20
172.8217289791425
 10
384.4140588671417
 20
173.72386027078306
 10
384.92537153280296
 20
174.6375943660245
 10
385.4184781475063
 20
175.56252778561307
 10
385.8931609692522
 20
176.49825210498855
 10
386.34921039146957
 20
177.4443541346333
 10
386.78642503557177
 20
178.40041610252482
 10
387.20461183988004
 20
179.36601583861233
 10
387.60358614487404
 20
180.3407269612352
 10
387.98317177473234
 20
181.32411906540085
 10
388.3432011151266
 20
182.3157579128397
 10
388.6835151872352
 20
183.31520562375252
 10
389.00396371794415
 20
184.32202087016574
 10
389.3044052062034
 20
185.3357590708096
 10
389.5847069855094
 20
186.35597258743255
 10
389.8447452824873
 20
187.38221092246582
 10
390.08440527154545
 20
188.4140209179505
 10
390.30358112557946
 20
189.45094695563915
 10
390.50217606270223
 20
190.49253115818425
 10
390.6801023889802
 20
191.5383135913237
 10
390.8372815371564
 20
192.58783246697507
 10
390.97364410134395
 20
193.64062434714796
 10
391.0891298676732
 20
194.6962243485854
 10
391.18368784088074
 20
195.75416634804316
 10
391.2572762668276
 20
196.8139831881165
 10
391.3098626509364
 20
197.87520688352396
 10
391.34142377254034
 20
198.9373688277563
 10
391.3519456951366
 20
200.0
  0
LWPOLYLINE
  5
95
330
17
100
AcDbEntity
  8
Layer
100
AcDbPolyline
 90
5
 70
1
 10
154.42114806104593
 20
205.00000000000003
 10
159.42114806104593
 20
200.00000000000003
 10
154.42114806104593
 20
195.00000000000003
 10
149.42114806104593
 20
200.00000000000003
 10
154.42114806104593
 20
205.00000000000003
  0
LWPOLYLINE
  5
96
330
17
100
AcDbEntity
  8
Layer
100
AcDbPolyline
 90
5
 70
1
 10
340.883195321976
 20
205.0
 10
345.883195321976
 20
200.0
 10
340.883195321976
 20
195.0
 10
335.883195321976
 20
200.0
 10
340.883195321976
 20
205.0
  0
LWPOLYLINE
  5
97
330
17
100
AcDbEntity
  8
Layer
100
AcDbPolyline
 90
5
 70
1
 10
96.96907260159179
 20
177.51214773858896
 10
101.6378431887703
 20
172.20153749076462
 10
96.32723294094598
 20
167.5327669035861
 10
91.65846235376746
 20
172.84337715141044
 10
96.96907260159179
 20
177.51214773858896
  0
LWPOLYLINE
  5
98
330
17
100
AcDbEntity
  8
Layer
100
AcDbPolyline
 90
5
 70
1
 10
197.90453741546543
 20
171.02032369114596
 10
202.57330800264396
 20
165.70971344332162
 10
197.2626977548196
 20
161.0409428561431
 10
192.59392716764108
 20
166.35155310396743
 10
197.90453741546543
 20
171.02032369114596
  0
LWPOLYLINE
  5
99
330
17
100
AcDbEntity
  8
Layer
100
AcDbPolyline
 90
5
 70
1
 10
188.6952727272727
 20
182.91375814041058
 10
193.6952727272727
 20
187.91375814041058
 10
198.6952727272727
 20
182.91375814041058
 10
193.6952727272727
 20
177.91375814041058
 10
188.6952727272727
 20
182.91375814041058
  0
LWPOLYLINE
  5
9A
330
17
100
AcDbEntity
  8
Layer
100
AcDbPolyline
 90
5
 70
1
 10
188.6952727272727
 20
213.47169502196158
 10
193.6952727272727
 20
218.47169502196158
 10
198.6952727272727
 20
213.47169502196158
 10
193.6952727272727
 20
208.47169502196158
 10
188.6952727272727
 20
213.47169502196158
  0
LINE
  5
9B
330
17
100
AcDbEntity
  8
Layer
 62
7
100
AcDbLine
 10
23.61311655375914
 20
200.00000000000003
 30
0.0
 11
449.07272727272726
 21
200.0
 31
0.0
  0
LINE
  5
9C
330
17
100
AcDbEntity
  8
Layer
 62
7
100
AcDbLine
 10
148.42114806104593
 20
200.00000000000003
 30
0.0
 11
160.42114806104593
 21
200.00000000000003
 31
0.0
  0
LINE
  5
9D
330
17
100
AcDbEntity
  8
Layer
 62
7
100
AcDbLine
 10
334.883195321976
 20
200.0
 30
0.0
 11
346.883195321976
 21
200.0
 31
0.0
  0
LINE
  5
9E
330
17
100
AcDbEntity
  8
Layer
 62
7
100
AcDbLine
 10
9.413183377418079
 20
178.13311233846173
 30
0.0
 11
426.12823771841636
 21
151.33142458985014
 31
0.0
  0
LINE
  5
9F
330
17
100
AcDbEntity
  8
Layer
 62
7
100
AcDbLine
 10
90.66052427026719
 20
172.907561117475
 30
0.0
 11
102.63578127227058
 21
172.13735352470005
 31
0.0
  0
LINE
  5
A0
330
17
100
AcDbEntity
  8
Layer
 62
7
100
AcDbLine
 10
191.59598908414083
 20
166.415737070032
 30
0.0
 11
203.5712460861442
 21
165.64552947725704
 31
0.0
  0
LINE
  5
A1
330
17
100
AcDbEntity
  8
Layer
100
AcDbLine
 10
343.6952727272727
 20
250.57150000000001
 30
0.0
 11
343.6952727272727
 21
251.57150000000001
 31
0.0
  0
LINE
  5
A2
330
17
100
AcDbEntity
  8
Layer
100
AcDbLine
 10
343.6952727272727
 20
149.42849999999999
 30
0.0
 11
343.6952727272727
 21
148.42849999999999
 31
0.0
  0
LINE
  5
A3
330
17
100
AcDbEntity
  8
Layer
100
AcDbLine
 10
391.3519456951366
 20
200.0
 30
0.0
 11
392.3519456951366
 21
200.0
 31
0.0
  0
LINE
  5
A4
330
17
100
AcDbEntity
  8
Layer
100
AcDbLine
 10
296.03859975940884
 20
200.0
 30
0.0
 11
295.03859975940884
 21
200.0
 31
0.0
  0
LINE
  5
A5
330
17
100
AcDbEntity
  8
Layer
 62
7
100
AcDbLine
 10
193.6952727272727
 20
140.7628317786011
 30
0.0
 11
193.6952727272727
 21
255.62262138377105
 31
0.0
  0
LINE
  5
A6
330
17
100
AcDbEntity
  8
Layer
 62
7
100
AcDbLine
 10
193.6952727272727
 20
176.91375814041058
 30
0.0
 11
193.6952727272727
 21
188.91375814041058
 31
0.0
  0
LINE
  5
A7
330
17
100
AcDbEntity
  8
Layer
 62
7
100
AcDbLine
 10
193.6952727272727
 20
207.47169502196158
 30
0.0
 11
193.6952727272727
 21
219.47169502196158
 31
0.0
  0
ENDSEC
  0
SECTION
  2
OBJECTS
  0
DICTIONARY
  5
A
330
0
100
AcDbDictionary
280
0
281
1
  3
ACAD_COLOR
350
B
  3
ACAD_GROUP
350
C
  3
ACAD_LAYOUT
350
D
  3
ACAD_MATERIAL
350
E
  3
ACAD_MLEADERSTYLE
350
F
  3
ACAD_MLINESTYLE
350
10
  3
ACAD_PLOTSETTINGS
350
11
  3
ACAD_PLOTSTYLENAME
350
12
  3
ACAD_SCALELIST
350
14
  3
ACAD_TABLESTYLE
350
15
  3
ACAD_VISUALSTYLE
350
16
  3
EZDXF_META
350
2D
  0
DICTIONARY
  5
B
330
A
100
AcDbDictionary
280
0
281
1
  0
DICTIONARY
  5
C
330
A
100
AcDbDictionary
280
0
281
1
  0
DICTIONARY
  5
D
330
A
100
AcDbDictionary
280
0
281
1
  3
Model
350
1A
  3
Layout1
350
1E
  0
DICTIONARY
  5
E
330
A
100
AcDbDictionary
280
0
281
1
  3
ByBlock
350
1F
  3
ByLayer
350
20
  3
Global
350
21
  0
DICTIONARY
  5
F
330
A
100
AcDbDictionary
280
0
281
1
  3
Standard
350
2C
  0
DICTIONARY
  5
10
330
A
100
AcDbDictionary
280
0
281
1
  3
Standard
350
22
  0
DICTIONARY
  5
11
330
A
100
AcDbDictionary
280
0
281
1
  0
ACDBDICTIONARYWDFLT
  5
12
330
A
100
AcDbDictionary
280
0
281
1
  3
Normal
350
13
100
AcDbDictionaryWithDefault
340
13
  0
ACDBPLACEHOLDER
  5
13
330
12
  0
DICTIONARY
  5
14
330
A
100
AcDbDictionary
280
0
281
1
  0
DICTIONARY
  5
15
330
A
100
AcDbDictionary
280
0
281
1
  0
DICTIONARY
  5
16
330
A
100
AcDbDictionary
280
0
281
1
  3
2dWireframe
350
5A
  3
Basic
350
5B
  3
Brighten
350
5C
  3
ColorChange
350
5D
  3
Conceptual
350
5E
  3
Dim
350
5F
  3
EdgeColorOff
350
60
  3
Facepattern
350
61
  3
Flat
350
62
  3
FlatWithEdges
350
63
  3
Gouraud
350
64
  3
GouraudWithEdges
350
65
  3
Hidden
350
66
  3
JitterOff
350
67
  3
Linepattern
350
68
  3
Modeling
350
69
  3
OverhangOff
350
6A
  3
Realistic
350
6B
  3
Shaded
350
6C
  3
Shaded with edges
350
6D
  3
Shades of Gray
350
6E
  3
Sketchy
350
6F
  3
Thicken
350
70
  3
Wireframe
350
71
  3
X-Ray
350
72
  0
LAYOUT
  5
1A
330
D
100
AcDbPlotSettings
  1

  2
Adobe PDF
  4
A3
  6

 40
7.5
 41
20.0
 42
7.5
 43
20.0
 44
420.0
 45
297.0
 46
0.0
 47
0.0
 48
0.0
 49
0.0
140
0.0
141
0.0
142
1.0
143
1.0
 70
1024
 72
1
 73
0
 74
5
  7

 75
16
 76
0
 77
2
 78
300
147
1.0
148
0.0
149
0.0
100
AcDbLayout
  1
Model
 70
1
 71
0
 10
0.0
 20
0.0
 11
420.0
 21
297.0
 12
0.0
 22
0.0
 32
0.0
 14
1e+20
 24
1e+20
 34
1e+20
 15
-1e+20
 25
-1e+20
 35
-1e+20
146
0.0
 13
0.0
 23
0.0
 33
0.0
 16
1.0
 26
0.0
 36
0.0
 17
0.0
 27
1.0
 37
0.0
 76
1
330
17
  0
LAYOUT
  5
1E
330
D
100
AcDbPlotSettings
  1

  2
Adobe PDF
  4
A3
  6

 40
7.5
 41
20.0
 42
7.5
 43
20.0
 44
420.0
 45
297.0
 46
0.0
 47
0.0
 48
0.0
 49
0.0
140
0.0
141
0.0
142
1.0
143
1.0
 70
0
 72
1
 73
0
 74
5
  7

 75
16
 76
0
 77
2
 78
300
147
1.0
148
0.0
149
0.0
100
AcDbLayout
  1
Layout1
 70
1
 71
1
 10
0.0
 20
0.0
 11
420.0
 21
297.0
 12
0.0
 22
0.0
 32
0.0
 14
1e+20
 24
1e+20
 34
1e+20
 15
-1e+20
 25
-1e+20
 35
-1e+20
146
0.0
 13
0.0
 23
0.0
 33
0.0
 16
1.0
 26
0.0
 36
0.0
 17
0.0
 27
1.0
 37
0.0
 76
1
330
1B
  0
MATERIAL
  5
1F
102
{ACAD_REACTORS
330
E
102
}
330
E
100
AcDbMaterial
  1
ByBlock
  2

 70
0
 40
1.0
 71
1
 41
1.0
 91
-1023410177
 42
1.0
 72
1
  3

 73
1
 74
1
 75
1
 44
0.5
 73
0
 45
1.0
 46
1.0
 77
1
  4

 78
1
 79
1
170
1
 48
1.0
171
1
  6

172
1
173
1
174
1
140
1.0
141
1.0
175
1
  7

176
1
177
1
178
1
143
1.0
179
1
  8

270
1
271
1
272
1
145
1.0
146
1.0
273
1
  9

274
1
275
1
276
1
 42
1.0
 72
1
  3

 73
1
 74
1
 75
1
 94
63
  0
MATERIAL
  5
20
102
{ACAD_REACTORS
330
E
102
}
330
E
100
AcDbMaterial
  1
ByLayer
  2

 70
0
 40
1.0
 71
1
 41
1.0
 91
-1023410177
 42
1.0
 72
1
  3

 73
1
 74
1
 75
1
 44
0.5
 73
0
 45
1.0
 46
1.0
 77
1
  4

 78
1
 79
1
170
1
 48
1.0
171
1
  6

172
1
173
1
174
1
140
1.0
141
1.0
175
1
  7

176
1
177
1
178
1
143
1.0
179
1
  8

270
1
271
1
272
1
145
1.0
146
1.0
273
1
  9

274
1
275
1
276
1
 42
1.0
 72
1
  3

 73
1
 74
1
 75
1
 94
63
  0
MATERIAL
  5
21
102
{ACAD_REACTORS
330
E
102
}
330
E
100
AcDbMaterial
  1
Global
  2

 70
0
 40
1.0
 71
1
 41
1.0
 91
-1023410177
 42
1.0
 72
1
  3

 73
1
 74
1
 75
1
 44
0.5
 73
0
 45
1.0
 46
1.0
 77
1
  4

 78
1
 79
1
170
1
 48
1.0
171
1
  6

172
1
173
1
174
1
140
1.0
141
1.0
175
1
  7

176
1
177
1
178
1
143
1.0
179
1
  8

270
1
271
1
272
1
145
1.0
146
1.0
273
1
  9

274
1
275
1
276
1
 42
1.0
 72
1
  3

 73
1
 74
1
 75
1
 94
63
  0
MLINESTYLE
  5
22
102
{ACAD_REACTORS
330
10
102
}
330
10
100
AcDbMlineStyle
  2
Standard
 70
0
  3

 62
256
 51
90.0
 52
90.0
 71
2
 49
0.5
 62
256
  6
BYLAYER
 49
-0.5
 62
256
  6
BYLAYER
  0
MLEADERSTYLE
  5
2C
102
{ACAD_REACTORS
330
F
102
}
330
F
100
AcDbMLeaderStyle
179
2
170
2
171
1
172
0
 90
2
 40
0.0
 41
0.0
173
1
 91
-1056964608
 92
-2
290
1
 42
2.0
291
1
 43
8.0
  3
Standard
 44
4.0
300

342
29
174
1
175
1
176
0
178
1
 93
-1056964608
 45
4.0
292
0
297
0
 46
4.0
 94
-1056964608
 47
1.0
 49
1.0
140
1.0
294
1
141
0.0
177
0
142
1.0
295
0
296
0
143
3.75
271
0
272
9
273
9
  0
DICTIONARY
  5
2D
330
A
100
AcDbDictionary
281
1
  3
CREATED_BY_EZDXF
350
2E
  3
WRITTEN_BY_EZDXF
350
AA
  0
DICTIONARYVAR
  5
2E
330
2D
100
DictionaryVariables
280
0
  1
1.3.0 @ 2026-01-06T17:07:13.900850+00:00
  0
VISUALSTYLE
  5
5A
102
{ACAD_REACTORS
330
16
102
}
330
16
100
AcDbVisualStyle
  2
2dWireframe
 70
4
 90
0
 40
0.6
 62
7
290
0
291
0
  0
VISUALSTYLE
  5
5B
102
{ACAD_REACTORS
330
16
102
}
330
16
100
AcDbVisualStyle
  2
Basic
 70
7
 90
1
 40
0.6
 62
7
290
0
291
1
  0
VISUALSTYLE
  5
5C
102
{ACAD_REACTORS
330
16
102
}
330
16
100
AcDbVisualStyle
  2
Brighten
 70
12
 90
2
 40
0.6
 62
7
290
0
291
1
  0
VISUALSTYLE
  5
5D
102
{ACAD_REACTORS
330
16
102
}
330
16
100
AcDbVisualStyle
  2
ColorChange
 70
16
 90
2
 40
0.6
 62
8
290
0
291
1
  0
VISUALSTYLE
  5
5E
102
{ACAD_REACTORS
330
16
102
}
330
16
100
AcDbVisualStyle
  2
Conceptual
 70
9
 90
3
 40
0.6
 62
7
290
0
291
0
  0
VISUALSTYLE
  5
5F
102
{ACAD_REACTORS
330
16
102
}
330
16
100
AcDbVisualStyle
  2
Dim
 70
11
 90
2
 40
0.6
 62
7
290
0
291
1
  0
VISUALSTYLE
  5
60
102
{ACAD_REACTORS
330
16
102
}
330
16
100
AcDbVisualStyle
  2
EdgeColorOff
 70
22
 90
2
 40
0.6
 62
7
290
0
291
1
  0
VISUALSTYLE
  5
61
102
{ACAD_REACTORS
330
16
102
}
330
16
100
AcDbVisualStyle
  2
Facepattern
 70
15
 90
2
 40
0.6
 62
7
290
0
291
1
  0
VISUALSTYLE
  5
62
102
{ACAD_REACTORS
330
16
102
}
330
16
100
AcDbVisualStyle
  2
Flat
 70
0
 90
2
 40
0.6
 62
7
290
0
291
1
  0
VISUALSTYLE
  5
63
102
{ACAD_REACTORS
330
16
102
}
330
16
100
AcDbVisualStyle
  2
FlatWithEdges
 70
1
 90
2
 40
0.6
 62
7
290
0
291
1
  0
VISUALSTYLE
  5
64
102
{ACAD_REACTORS
330
16
102
}
330
16
100
AcDbVisualStyle
  2
Gouraud
 70
2
 90
2
 40
0.6
 62
7
290
0
291
1
  0
VISUALSTYLE
  5
65
102
{ACAD_REACTORS
330
16
102
}
330
16
100
AcDbVisualStyle
  2
GouraudWithEdges
 70
3
 90
2
 40
0.6
 62
7
290
0
291
1
  0
VISUALSTYLE
  5
66
102
{ACAD_REACTORS
330
16
102
}
330
16
100
AcDbVisualStyle
  2
Hidden
 70
6
 90
1
 40
0.6
 62
7
290
0
291
0
  0
VISUALSTYLE
  5
67
102
{ACAD_REACTORS
330
16
102
}
330
16
100
AcDbVisualStyle
  2
JitterOff
 70
20
 90
2
 40
0.6
 62
7
290
0
291
1
  0
VISUALSTYLE
  5
68
102
{ACAD_REACTORS
330
16
102
}
330
16
100
AcDbVisualStyle
  2
Linepattern
 70
14
 90
2
 40
0.6
 62
7
290
0
291
1
  0
VISUALSTYLE
  5
69
102
{ACAD_REACTORS
330
16
102
}
330
16
100
AcDbVisualStyle
  2
Modeling
 70
10
 90
2
 40
0.6
 62
7
290
0
291
0
  0
VISUALSTYLE
  5
6A
102
{ACAD_REACTORS
330
16
102
}
330
16
100
AcDbVisualStyle
  2
OverhangOff
 70
21
 90
2
 40
0.6
 62
7
290
0
291
1
  0
VISUALSTYLE
  5
6B
102
{ACAD_REACTORS
330
16
102
}
330
16
100
AcDbVisualStyle
  2
Realistic
 70
8
 90
2
 40
0.6
 62
7
290
0
291
0
  0
VISUALSTYLE
  5
6C
102
{ACAD_REACTORS
330
16
102
}
330
16
100
AcDbVisualStyle
  2
Shaded
 70
27
 90
2
 40
0.6
 62
7
290
0
291
0
  0
VISUALSTYLE
  5
6D
102
{ACAD_REACTORS
330
16
102
}
330
16
100
AcDbVisualStyle
  2
Shaded with edges
 70
26
 90
2
 40
0.6
 62
7
290
0
291
0
  0
VISUALSTYLE
  5
6E
102
{ACAD_REACTORS
330
16
102
}
330
16
100
AcDbVisualStyle
  2
Shades of Gray
 70
23
 90
2
 40
0.6
 62
7
290
0
291
0
  0
VISUALSTYLE
  5
6F
102
{ACAD_REACTORS
330
16
102
}
330
16
100
AcDbVisualStyle
  2
Sketchy
 70
24
 90
1
 40
0.6
 62
7
290
0
291
0
  0
VISUALSTYLE
  5
70
102
{ACAD_REACTORS
330
16
102
}
330
16
100
AcDbVisualStyle
  2
Thicken
 70
13
 90
2
 40
0.6
 62
7
290
0
291
1
  0
VISUALSTYLE
  5
71
102
{ACAD_REACTORS
330
16
102
}
330
16
100
AcDbVisualStyle
  2
Wireframe
 70
5
 90
0
 40
0.6
 62
7
290
0
291
0
  0
VISUALSTYLE
  5
72
102
{ACAD_REACTORS
330
16
102
}
330
16
100
AcDbVisualStyle
  2
X-Ray
 70
25
 90
2
 40
0.5
 62
7
290
0
291
0
  0
DICTIONARYVAR
  5
AA
330
2D
100
DictionaryVariables
280
0
  1
1.3.0 @ 2026-01-06T17:07:13.917953+00:00
  0
ENDSEC
  0
EOF
