<?xml version="1.0" encoding="utf-8" standalone="no"?>
<!DOCTYPE svg PUBLIC "-//W3C//DTD SVG 1.1//EN"
  "http://www.w3.org/Graphics/SVG/1.1/DTD/svg11.dtd">
<svg xmlns:xlink="http://www.w3.org/1999/xlink" width="1152pt" height="333.848434pt" viewBox="0 0 1152 333.848434" xmlns="http://www.w3.org/2000/svg" version="1.1">
 <metadata>
  <rdf:RDF xmlns:dc="http://purl.org/dc/elements/1.1/" xmlns:cc="http://creativecommons.org/ns#" xmlns:rdf="http://www.w3.org/1999/02/22-rdf-syntax-ns#">
   <cc:Work>
    <dc:type rdf:resource="http://purl.org/dc/dcmitype/StillImage"/>
    <dc:date>2026-01-07T02:07:07.781278</dc:date>
    <dc:format>image/svg+xml</dc:format>
    <dc:creator>
     <cc:Agent>
      <dc:title>Matplotlib v3.10.1, https://matplotlib.org/</dc:title>
     </cc:Agent>
    </dc:creator>
   </cc:Work>
  </rdf:RDF>
 </metadata>
 <defs>
  <style type="text/css">*{stroke-linejoin: round; stroke-linecap: butt}</style>
 </defs>
 <g id="figure_1">
  <g id="patch_1">
   <path d="M 0 333.848434 
L 1152 333.848434 
L 1152 0 
L 0 0 
z
" style="fill: #ffffff"/>
  </g>
  <g id="axes_1">
   <g id="patch_2">
    <path d="M 0 333.848434 
L 1152 333.848434 
L 1152 0 
L 0 0 
z
" style="fill: #212830"/>
   </g>
   <g id="patch_3">
    <path d="M 1099.636364 41.655993 
L 1077.917609 38.562503 
L 1055.350891 35.54311 
L 1032.802537 32.733115 
L 1010.273652 30.144844 
L 987.761014 27.779462 
L 965.264117 25.630327 
L 942.790132 23.684324 
L 920.361285 21.929239 
L 898.00892 20.367105 
L 875.748893 19.017391 
L 853.57168 17.894078 
L 831.463783 16.987397 
L 809.432557 16.272857 
L 787.506275 15.731705 
L 765.721374 15.360751 
L 744.111983 15.174929 
L 722.689649 15.203266 
L 701.432716 15.467219 
L 680.308259 15.951281 
L 659.321686 16.608358 
L 638.529814 17.404181 
L 617.997644 18.353913 
L 597.747477 19.505456 
L 577.752414 20.894728 
L 557.968931 22.51784 
L 538.376221 24.330727 
L 519.008639 26.274673 
L 499.949637 28.325885 
L 481.269599 30.526567 
L 462.956961 32.950831 
L 444.930357 35.622818 
L 427.136667 38.47864 
L 409.622387 41.428576 
L 392.491187 44.448733 
L 375.800827 47.593694 
L 359.525905 50.924607 
L 343.608503 54.450944 
L 328.018754 58.13527 
L 312.766703 61.932206 
L 297.888148 65.813442 
L 283.421436 69.774884 
L 269.391361 73.833029 
L 255.795882 78.013398 
L 242.61222 82.329389 
L 229.815732 86.772487 
L 217.399096 91.315912 
L 205.377782 95.933352 
L 193.774251 100.614217 
L 182.59812 105.363081 
L 171.844547 110.18107 
L 161.513369 115.05283 
L 151.622067 119.959866 
L 142.18911 124.901689 
L 133.213349 129.889056 
L 124.682731 134.920655 
L 116.596594 139.979473 
L 108.967883 145.048106 
L 101.808982 150.120043 
L 95.129416 155.189643 
L 88.93684 160.255233 
L 83.221758 165.328595 
L 77.953131 170.41362 
L 73.113802 175.467019 
L 68.743307 180.40953 
L 64.911259 185.205562 
L 61.645734 189.903861 
L 58.911698 194.576626 
L 56.659715 199.228955 
L 54.871576 203.799345 
L 53.557033 208.244464 
L 52.724017 212.561382 
L 52.363636 217.028886 
L 52.485633 220.736019 
L 53.098005 224.538464 
L 54.257792 228.207844 
L 56.017967 231.82678 
L 58.38075 235.42429 
L 61.307744 238.969301 
L 64.790758 242.419078 
L 68.873531 245.759278 
L 73.598119 249.001215 
L 78.960211 252.154793 
L 84.938181 255.211168 
L 91.537797 258.156667 
L 98.784346 260.995103 
L 106.683458 263.746457 
L 115.215427 266.426813 
L 124.357263 269.038837 
L 134.094531 271.578315 
L 144.417476 274.040353 
L 155.321322 276.419197 
L 166.808476 278.712975 
L 178.876193 280.927394 
L 191.509504 283.064351 
L 204.697682 285.113926 
L 218.45015 287.065405 
L 232.779413 288.92398 
L 247.68154 290.702417 
L 263.14331 292.403533 
L 279.16415 294.022491 
L 295.750299 295.562407 
L 330.591617 298.446071 
L 367.583354 301.075397 
L 406.645239 303.462677 
L 447.653249 305.605763 
L 462.585795 306.300229 
L 462.496556 308.219075 
L 490.396452 309.442627 
L 534.871497 311.141675 
L 580.828362 312.624646 
L 628.141948 313.855966 
L 676.705822 314.840594 
L 726.439612 315.576247 
L 855.244158 317.00901 
L 1015.242057 318.205168 
L 1099.636364 318.673506 
L 1099.636364 41.655993 
L 1099.636364 41.655993 
" clip-path="url(#p96eb849309)" style="fill: none; stroke: #ff0000; stroke-width: 0.72; stroke-linejoin: miter"/>
   </g>
   <g id="patch_4">
    <path d="M 644.548789 251.84807 
L 644.548789 271.057269 
" clip-path="url(#p96eb849309)" style="fill: none; stroke: #ff0000; stroke-width: 0.72; stroke-linejoin: miter"/>
   </g>
   <g id="patch_5">
    <path d="M 663.757988 251.84807 
L 659.916148 251.84807 
" clip-path="url(#p96eb849309)" style="fill: none; stroke: #ff0000; stroke-width: 0.72; stroke-linejoin: miter"/>
   </g>
   <g id="patch_6">
    <path d="M 657.995228 251.84807 
L 654.153388 251.84807 
L 654.153388 271.057269 
L 657.995228 271.057269 
" clip-path="url(#p96eb849309)" style="fill: none; stroke: #ff0000; stroke-width: 0.72; stroke-linejoin: miter"/>
   </g>
   <g id="patch_7">
    <path d="M 659.916148 271.057269 
L 663.757988 271.057269 
L 663.757988 261.452669 
L 659.916148 261.452669 
" clip-path="url(#p96eb849309)" style="fill: none; stroke: #ff0000; stroke-width: 0.72; stroke-linejoin: miter"/>
   </g>
   <g id="patch_8">
    <path d="M 657.995228 261.452669 
L 654.153388 261.452669 
" clip-path="url(#p96eb849309)" style="fill: none; stroke: #ff0000; stroke-width: 0.72; stroke-linejoin: miter"/>
   </g>
   <g id="patch_9">
    <path d="M 632.53004 25.373651 
L 624.854569 25.728746 
L 624.499474 18.053276 
L 632.174944 17.698181 
L 632.53004 25.373651 
" clip-path="url(#p96eb849309)" style="fill: none; stroke: #ff0000; stroke-width: 0.72; stroke-linejoin: miter"/>
   </g>
   <g id="patch_10">
    <path d="M 275.216667 80.080427 
L 267.872409 82.338923 
L 265.613913 74.994664 
L 272.958172 72.736169 
L 275.216667 80.080427 
" clip-path="url(#p96eb849309)" style="fill: none; stroke: #ff0000; stroke-width: 0.72; stroke-linejoin: miter"/>
   </g>
   <g id="patch_11">
    <path d="M 94.315035 168.324547 
L 91.442768 170.875981 
L 85.064183 163.695314 
L 87.93645 161.143879 
L 94.315035 168.324547 
" clip-path="url(#p96eb849309)" style="fill: none; stroke: #ff0000; stroke-width: 0.72; stroke-linejoin: miter"/>
   </g>
   <g id="patch_12">
    <path d="M 73.820592 237.506411 
L 76.990999 239.676262 
L 71.566371 247.602279 
L 68.395964 245.432428 
L 73.820592 237.506411 
" clip-path="url(#p96eb849309)" style="fill: none; stroke: #ff0000; stroke-width: 0.72; stroke-linejoin: miter"/>
   </g>
   <g id="patch_13">
    <path d="M 354.979765 292.51217 
L 362.645554 293.036203 
L 362.121522 300.701992 
L 354.455732 300.177959 
L 354.979765 292.51217 
" clip-path="url(#p96eb849309)" style="fill: none; stroke: #ff0000; stroke-width: 0.72; stroke-linejoin: miter"/>
   </g>
   <g id="patch_14">
    <path d="M 966.720457 166.536843 
L 966.616317 161.276905 
L 966.30408 156.026257 
L 965.784297 150.794172 
L 965.057887 145.589889 
L 964.126132 140.422601 
L 962.990679 135.301433 
L 961.653531 130.23543 
L 960.117052 125.233538 
L 958.383954 120.304592 
L 956.457298 115.457296 
L 954.340488 110.700211 
L 952.03726 106.041739 
L 949.551684 101.490107 
L 946.888149 97.053353 
L 944.051358 92.739314 
L 941.046322 88.555608 
L 937.878349 84.509624 
L 934.553033 80.608508 
L 931.076246 76.859149 
L 927.45413 73.268169 
L 923.693081 69.84191 
L 919.799741 66.586424 
L 915.780987 63.507459 
L 911.643916 60.610453 
L 907.395834 57.900524 
L 903.044245 55.382456 
L 898.596832 53.060697 
L 894.061452 50.939347 
L 889.446113 49.022154 
L 884.758967 47.312502 
L 880.008292 45.813411 
L 875.202478 44.527529 
L 870.350012 43.457127 
L 865.459465 42.604094 
L 860.539473 41.969939 
L 855.598725 41.55578 
L 850.645949 41.36235 
L 845.689889 41.389989 
L 840.7393 41.638649 
L 835.802925 42.10789 
L 830.889482 42.796885 
L 826.007647 43.704416 
L 821.166044 44.82888 
L 816.373222 46.168292 
L 811.637647 47.720286 
L 806.967682 49.482121 
L 802.371574 51.450685 
L 797.85744 53.622502 
L 793.433253 55.993737 
L 789.106827 58.5602 
L 784.885802 61.317361 
L 780.777633 64.260348 
L 776.789576 67.383966 
L 772.928673 70.682696 
L 769.201744 74.150714 
L 765.61537 77.781895 
L 762.175886 81.569824 
L 758.889365 85.507814 
L 755.761613 89.588908 
L 752.798152 93.805899 
L 750.004218 98.15134 
L 747.384743 102.617556 
L 744.944355 107.196659 
L 742.687363 111.880563 
L 740.617754 116.660994 
L 738.739182 121.529511 
L 737.054965 126.477515 
L 735.568078 131.496268 
L 734.281147 136.576905 
L 733.196444 141.710455 
L 732.315885 146.88785 
L 731.641026 152.099947 
L 731.173058 157.337541 
L 730.912807 162.591382 
L 730.860734 167.852191 
L 731.016931 173.110676 
L 731.38112 178.357552 
L 731.95266 183.583552 
L 732.730541 188.779445 
L 733.713389 193.936056 
L 734.899468 199.044277 
L 736.286683 204.095087 
L 737.872585 209.079566 
L 739.654373 213.98891 
L 741.6289 218.81445 
L 743.792678 223.547663 
L 746.141887 228.180189 
L 748.672377 232.703847 
L 751.379679 237.110649 
L 754.259012 241.39281 
L 757.305291 245.542769 
L 760.513136 249.553196 
L 763.876881 253.417009 
L 767.390586 257.127383 
L 771.048045 260.677766 
L 774.842799 264.061887 
L 778.768145 267.273771 
L 782.817153 270.307743 
L 786.982669 273.158446 
L 791.257338 275.820846 
L 795.633611 278.29024 
L 800.103758 280.562268 
L 804.659885 282.632916 
L 809.293945 284.498527 
L 813.997754 286.155807 
L 818.763004 287.60183 
L 823.58128 288.83404 
L 828.444073 289.850262 
L 833.342793 290.648701 
L 838.26879 291.227947 
L 843.213364 291.586977 
L 848.167782 291.725157 
L 853.123294 291.642243 
L 858.071149 291.338381 
L 863.002607 290.814108 
L 867.90896 290.07035 
L 872.781543 289.108421 
L 877.611749 287.930018 
L 882.391049 286.537225 
L 887.111001 284.932499 
L 891.763271 283.118676 
L 896.339641 281.098958 
L 900.832029 278.876913 
L 905.232502 276.456465 
L 909.533287 273.841889 
L 913.726789 271.037803 
L 917.805602 268.049158 
L 921.762523 264.881232 
L 925.590562 261.539622 
L 929.28296 258.030228 
L 932.833195 254.359248 
L 936.234998 250.533166 
L 939.48236 246.558738 
L 942.569546 242.442984 
L 945.491104 238.193173 
L 948.241874 233.816811 
L 950.816999 229.321625 
L 953.211929 224.715556 
L 955.422437 220.006738 
L 957.444616 215.203488 
L 959.274897 210.314287 
L 960.910047 205.347771 
L 962.347177 200.312712 
L 963.583751 195.218002 
L 964.617583 190.072637 
L 965.446849 184.885707 
L 966.070083 179.666371 
L 966.486184 174.423846 
L 966.694419 169.167393 
L 966.720457 166.536843 
L 966.720457 166.536843 
" clip-path="url(#p96eb849309)" style="fill: none; stroke: #ff0000; stroke-width: 0.72; stroke-linejoin: miter"/>
   </g>
   <g id="patch_15">
    <path d="M 392.805894 156.932243 
L 402.410494 166.536843 
L 392.805894 176.141443 
L 383.201295 166.536843 
L 392.805894 156.932243 
" clip-path="url(#p96eb849309)" style="fill: none; stroke: #ff0000; stroke-width: 0.72; stroke-linejoin: miter"/>
   </g>
   <g id="patch_16">
    <path d="M 840.330939 156.932243 
L 849.935539 166.536843 
L 840.330939 176.141443 
L 830.726339 166.536843 
L 840.330939 156.932243 
" clip-path="url(#p96eb849309)" style="fill: none; stroke: #ff0000; stroke-width: 0.72; stroke-linejoin: miter"/>
   </g>
   <g id="patch_17">
    <path d="M 462.023254 231.783559 
L 470.98488 241.99071 
L 460.777728 250.952336 
L 451.816103 240.745185 
L 462.023254 231.783559 
" clip-path="url(#p96eb849309)" style="fill: none; stroke: #ff0000; stroke-width: 0.72; stroke-linejoin: miter"/>
   </g>
   <g id="patch_18">
    <path d="M 957.520117 263.979356 
L 966.481743 274.186507 
L 956.274591 283.148133 
L 947.312966 272.940982 
L 957.520117 263.979356 
" clip-path="url(#p96eb849309)" style="fill: none; stroke: #ff0000; stroke-width: 0.72; stroke-linejoin: miter"/>
   </g>
   <g id="patch_19">
    <path d="M 551.044745 206.860885 
L 560.649345 197.256285 
L 570.253945 206.860885 
L 560.649345 216.465485 
L 551.044745 206.860885 
" clip-path="url(#p96eb849309)" style="fill: none; stroke: #ff0000; stroke-width: 0.72; stroke-linejoin: miter"/>
   </g>
   <g id="patch_20">
    <path d="M 551.044745 127.440742 
L 560.649345 117.836142 
L 570.253945 127.440742 
L 560.649345 137.045342 
L 551.044745 127.440742 
" clip-path="url(#p96eb849309)" style="fill: none; stroke: #ff0000; stroke-width: 0.72; stroke-linejoin: miter"/>
   </g>
   <g id="line2d_1">
    <path d="M 81.969885 166.536843 
L 1099.636364 166.536843 
" clip-path="url(#p96eb849309)" style="fill: none; stroke: #ffffff; stroke-width: 0.72; stroke-linecap: square"/>
   </g>
   <g id="line2d_2">
    <path d="M 381.280375 166.536843 
L 404.331414 166.536843 
" clip-path="url(#p96eb849309)" style="fill: none; stroke: #ffffff; stroke-width: 0.72; stroke-linecap: square"/>
   </g>
   <g id="line2d_3">
    <path d="M 828.805419 166.536843 
L 851.856459 166.536843 
" clip-path="url(#p96eb849309)" style="fill: none; stroke: #ffffff; stroke-width: 0.72; stroke-linecap: square"/>
   </g>
   <g id="line2d_4">
    <path d="M 52.543296 214.801718 
L 1099.636364 282.838468 
" clip-path="url(#p96eb849309)" style="fill: none; stroke: #ffffff; stroke-width: 0.72; stroke-linecap: square"/>
   </g>
   <g id="line2d_5">
    <path d="M 449.899225 240.620632 
L 472.901758 242.115263 
" clip-path="url(#p96eb849309)" style="fill: none; stroke: #ffffff; stroke-width: 0.72; stroke-linecap: square"/>
   </g>
   <g id="line2d_6">
    <path d="M 945.396088 272.816429 
L 968.398621 274.31106 
" clip-path="url(#p96eb849309)" style="fill: none; stroke: #ffffff; stroke-width: 0.72; stroke-linecap: square"/>
   </g>
   <g id="line2d_7">
    <path d="M 848.787341 41.346802 
L 848.787341 39.425882 
" clip-path="url(#p96eb849309)" style="fill: none; stroke: #ff0000; stroke-width: 0.72; stroke-linecap: square"/>
   </g>
   <g id="line2d_8">
    <path d="M 848.787341 291.726885 
L 848.787341 293.647805 
" clip-path="url(#p96eb849309)" style="fill: none; stroke: #ff0000; stroke-width: 0.72; stroke-linecap: square"/>
   </g>
   <g id="line2d_9">
    <path d="M 966.720457 166.536843 
L 968.641377 166.536843 
" clip-path="url(#p96eb849309)" style="fill: none; stroke: #ff0000; stroke-width: 0.72; stroke-linecap: square"/>
   </g>
   <g id="line2d_10">
    <path d="M 730.854225 166.536843 
L 728.933305 166.536843 
" clip-path="url(#p96eb849309)" style="fill: none; stroke: #ff0000; stroke-width: 0.72; stroke-linecap: square"/>
   </g>
   <g id="line2d_11">
    <path d="M 560.649345 312.003699 
L 560.649345 22.297928 
" clip-path="url(#p96eb849309)" style="fill: none; stroke: #ffffff; stroke-width: 0.72; stroke-linecap: square"/>
   </g>
   <g id="line2d_12">
    <path d="M 560.649345 218.386405 
L 560.649345 195.335365 
" clip-path="url(#p96eb849309)" style="fill: none; stroke: #ffffff; stroke-width: 0.72; stroke-linecap: square"/>
   </g>
   <g id="line2d_13">
    <path d="M 560.649345 138.966262 
L 560.649345 115.915222 
" clip-path="url(#p96eb849309)" style="fill: none; stroke: #ffffff; stroke-width: 0.72; stroke-linecap: square"/>
   </g>
  </g>
 </g>
 <defs>
  <clipPath id="p96eb849309">
   <rect x="0" y="0" width="1152" height="333.848434"/>
  </clipPath>
 </defs>
</svg>
