<?xml version="1.0" encoding="utf-8" standalone="no"?>
<!DOCTYPE svg PUBLIC "-//W3C//DTD SVG 1.1//EN"
  "http://www.w3.org/Graphics/SVG/1.1/DTD/svg11.dtd">
<svg xmlns:xlink="http://www.w3.org/1999/xlink" width="1152pt" height="340.349424pt" viewBox="0 0 1152 340.349424" xmlns="http://www.w3.org/2000/svg" version="1.1">
 <metadata>
  <rdf:RDF xmlns:dc="http://purl.org/dc/elements/1.1/" xmlns:cc="http://creativecommons.org/ns#" xmlns:rdf="http://www.w3.org/1999/02/22-rdf-syntax-ns#">
   <cc:Work>
    <dc:type rdf:resource="http://purl.org/dc/dcmitype/StillImage"/>
    <dc:date>2026-01-07T02:07:09.604214</dc:date>
    <dc:format>image/svg+xml</dc:format>
    <dc:creator>
     <cc:Agent>
      <dc:title>Matplotlib v3.10.1, https://matplotlib.org/</dc:title>
     </cc:Agent>
    </dc:creator>
   </cc:Work>
  </rdf:RDF>
 </metadata>
 <defs>
  <style type="text/css">*{stroke-linejoin: round; stroke-linecap: butt}</style>
 </defs>
 <g id="figure_1">
  <g id="patch_1">
   <path d="M 0 340.349424 
L 1152 340.349424 
L 1152 0 
L 0 0 
z
" style="fill: #ffffff"/>
  </g>
  <g id="axes_1">
   <g id="patch_2">
    <path d="M 0 340.349424 
L 1152 340.349424 
L 1152 0 
L 0 0 
z
" style="fill: #212830"/>
   </g>
   <g id="patch_3">
    <path d="M 1099.253929 322.863774 
L 1096.193778 321.756862 
L 1090.836309 319.823893 
L 1084.523314 317.561967 
L 1077.270939 315.00069 
L 1069.067424 312.149654 
L 1059.959719 308.989354 
L 1050.026999 305.532412 
L 1039.35318 301.798322 
L 1028.009987 297.811391 
L 1016.061684 293.600779 
L 1003.54803 289.189588 
L 990.498479 284.596645 
L 976.940327 279.829024 
L 962.897198 274.893061 
L 948.40051 269.799064 
L 933.483284 264.55775 
L 918.176123 259.182943 
L 902.501088 253.686256 
L 886.477645 248.074884 
L 870.125386 242.356853 
L 853.457207 236.540631 
L 836.483851 230.632925 
L 819.218013 224.639577 
L 801.672903 218.567775 
L 783.859283 212.424973 
L 765.787409 206.218943 
L 747.467738 199.956843 
L 728.909829 193.64537 
L 710.120635 187.291352 
L 691.10698 180.901191 
L 671.877527 174.479076 
L 652.442752 168.032196 
L 632.809188 161.571626 
L 612.976582 155.104981 
L 592.949973 148.629051 
L 581.577146 144.977305 
L 580.949559 146.931831 
L 572.124892 144.098275 
L 551.773962 137.615812 
L 531.276192 131.153633 
L 510.634879 124.717945 
L 489.868725 118.311982 
L 469.001018 111.954111 
L 448.036562 105.671315 
L 426.969198 99.477449 
L 405.804643 93.375624 
L 384.559354 87.379076 
L 363.233536 81.51146 
L 341.814171 75.781884 
L 320.302251 70.184613 
L 298.716795 64.72284 
L 277.066034 59.414615 
L 255.341016 54.269925 
L 233.545655 49.282036 
L 211.705241 44.455762 
L 189.832004 39.821817 
L 167.901922 35.407599 
L 145.88244 31.20657 
L 123.770606 27.190354 
L 101.592371 23.34205 
L 79.374794 19.666191 
L 57.13505 16.176109 
L 52.363636 15.470428 
L 52.363636 288.342585 
L 61.075302 288.380505 
L 87.39292 288.532137 
L 113.660654 288.701159 
L 139.871118 288.86208 
L 166.032839 289.020023 
L 192.120434 289.193846 
L 218.090338 289.377415 
L 243.926279 289.540187 
L 269.64874 289.668644 
L 295.271785 289.785468 
L 320.771785 289.926584 
L 346.144484 290.106214 
L 371.387272 290.319735 
L 396.478759 290.566539 
L 421.3733 290.864978 
L 446.032056 291.233725 
L 470.45545 291.675588 
L 494.630953 292.168991 
L 518.521109 292.685524 
L 542.141082 293.209847 
L 565.489765 293.753287 
L 588.542742 294.338221 
L 611.311809 294.972133 
L 633.797203 295.638324 
L 655.955661 296.319901 
L 677.742824 297.025973 
L 699.149158 297.780503 
L 720.210223 298.591286 
L 740.945896 299.437457 
L 761.325598 300.295885 
L 781.29335 301.166757 
L 800.806773 302.071217 
L 819.890465 303.024122 
L 838.585066 304.018841 
L 856.88723 305.031249 
L 874.737546 306.039984 
L 892.078185 307.050328 
L 908.90116 308.091384 
L 925.249704 309.186918 
L 941.161499 310.324661 
L 956.612207 311.465498 
L 971.521125 312.586721 
L 985.834224 313.698554 
L 999.55114 314.809794 
L 1012.670762 315.911183 
L 1025.160231 316.994554 
L 1036.966767 318.058559 
L 1048.032126 319.106218 
L 1058.316353 320.143688 
L 1067.792676 321.157446 
L 1076.404254 322.112792 
L 1084.075 322.983058 
L 1090.748433 323.767973 
L 1096.407429 324.466205 
L 1099.636364 324.878996 
L 1099.253929 322.863774 
" clip-path="url(#pf60d7eff5e)" style="fill: none; stroke: #ff0000; stroke-width: 0.72; stroke-linejoin: miter"/>
   </g>
   <g id="patch_4">
    <path d="M 496.730853 222.934463 
L 506.994913 222.934463 
L 506.994913 233.198523 
L 496.730853 233.198523 
L 496.730853 243.462583 
L 506.994913 243.462583 
" clip-path="url(#pf60d7eff5e)" style="fill: none; stroke: #ff0000; stroke-width: 0.72; stroke-linejoin: miter"/>
   </g>
   <g id="patch_5">
    <path d="M 517.258973 222.934463 
L 517.258973 243.462583 
" clip-path="url(#pf60d7eff5e)" style="fill: none; stroke: #ff0000; stroke-width: 0.72; stroke-linejoin: miter"/>
   </g>
   <g id="patch_6">
    <path d="M 375.154569 93.307843 
L 367.237519 91.129564 
L 369.415797 83.212514 
L 377.332848 85.390792 
L 375.154569 93.307843 
" clip-path="url(#pf60d7eff5e)" style="fill: none; stroke: #ff0000; stroke-width: 0.72; stroke-linejoin: miter"/>
   </g>
   <g id="patch_7">
    <path d="M 239.076313 127.540492 
L 249.340373 137.804552 
L 239.076313 148.068611 
L 228.812253 137.804552 
L 239.076313 127.540492 
" clip-path="url(#pf60d7eff5e)" style="fill: none; stroke: #ff0000; stroke-width: 0.72; stroke-linejoin: miter"/>
   </g>
   <g id="patch_8">
    <path d="M 404.363883 218.578486 
L 414.627943 208.314427 
L 424.892002 218.578486 
L 414.627943 228.842546 
L 404.363883 218.578486 
" clip-path="url(#pf60d7eff5e)" style="fill: none; stroke: #ff0000; stroke-width: 0.72; stroke-linejoin: miter"/>
   </g>
   <g id="patch_9">
    <path d="M 404.363883 168.125043 
L 414.627943 157.860984 
L 424.892002 168.125043 
L 414.627943 178.389103 
L 404.363883 168.125043 
" clip-path="url(#pf60d7eff5e)" style="fill: none; stroke: #ff0000; stroke-width: 0.72; stroke-linejoin: miter"/>
   </g>
   <g id="line2d_1">
    <path d="M 1060.88215 309.30943 
L 1060.216197 311.251219 
" clip-path="url(#pf60d7eff5e)" style="fill: none; stroke: #ff0000; stroke-width: 0.72; stroke-linecap: square"/>
   </g>
   <g id="line2d_2">
    <path d="M 1058.856395 318.139226 
L 1058.734391 320.188409 
" clip-path="url(#pf60d7eff5e)" style="fill: none; stroke: #ff0000; stroke-width: 0.72; stroke-linecap: square"/>
   </g>
   <g id="line2d_3">
    <path d="M 1022.132632 295.740196 
L 1021.460424 297.679828 
" clip-path="url(#pf60d7eff5e)" style="fill: none; stroke: #ff0000; stroke-width: 0.72; stroke-linecap: square"/>
   </g>
   <g id="line2d_4">
    <path d="M 1018.0018 314.313197 
L 1017.845088 316.360018 
" clip-path="url(#pf60d7eff5e)" style="fill: none; stroke: #ff0000; stroke-width: 0.72; stroke-linecap: square"/>
   </g>
   <g id="line2d_5">
    <path d="M 867.182584 241.329987 
L 866.505097 243.267781 
" clip-path="url(#pf60d7eff5e)" style="fill: none; stroke: #ff0000; stroke-width: 0.72; stroke-linecap: square"/>
   </g>
   <g id="line2d_6">
    <path d="M 854.169224 302.825242 
L 854.021259 304.872714 
" clip-path="url(#pf60d7eff5e)" style="fill: none; stroke: #ff0000; stroke-width: 0.72; stroke-linecap: square"/>
   </g>
   <g id="line2d_7">
    <path d="M 52.363636 137.804552 
L 552.366489 137.804552 
" clip-path="url(#pf60d7eff5e)" style="fill: none; stroke: #ffffff; stroke-width: 0.72; stroke-linecap: square"/>
   </g>
   <g id="line2d_8">
    <path d="M 226.759441 137.804552 
L 251.393185 137.804552 
" clip-path="url(#pf60d7eff5e)" style="fill: none; stroke: #ffffff; stroke-width: 0.72; stroke-linecap: square"/>
   </g>
   <g id="line2d_9">
    <path d="M 52.363636 254.788631 
L 1098.360369 322.540557 
" clip-path="url(#pf60d7eff5e)" style="fill: none; stroke: #ffffff; stroke-width: 0.72; stroke-linecap: square"/>
   </g>
   <g id="line2d_10">
    <path d="M 414.627943 290.784114 
L 414.627943 95.919416 
" clip-path="url(#pf60d7eff5e)" style="fill: none; stroke: #ffffff; stroke-width: 0.72; stroke-linecap: square"/>
   </g>
   <g id="line2d_11">
    <path d="M 414.627943 230.895358 
L 414.627943 206.261615 
" clip-path="url(#pf60d7eff5e)" style="fill: none; stroke: #ffffff; stroke-width: 0.72; stroke-linecap: square"/>
   </g>
   <g id="line2d_12">
    <path d="M 414.627943 180.441915 
L 414.627943 155.808172 
" clip-path="url(#pf60d7eff5e)" style="fill: none; stroke: #ffffff; stroke-width: 0.72; stroke-linecap: square"/>
   </g>
  </g>
 </g>
 <defs>
  <clipPath id="pf60d7eff5e">
   <rect x="0" y="0" width="1152" height="340.349424"/>
  </clipPath>
 </defs>
</svg>
