<?xml version="1.0" encoding="utf-8" standalone="no"?>
<!DOCTYPE svg PUBLIC "-//W3C//DTD SVG 1.1//EN"
  "http://www.w3.org/Graphics/SVG/1.1/DTD/svg11.dtd">
<svg xmlns:xlink="http://www.w3.org/1999/xlink" width="1152pt" height="176.853374pt" viewBox="0 0 1152 176.853374" xmlns="http://www.w3.org/2000/svg" version="1.1">
 <metadata>
  <rdf:RDF xmlns:dc="http://purl.org/dc/elements/1.1/" xmlns:cc="http://creativecommons.org/ns#" xmlns:rdf="http://www.w3.org/1999/02/22-rdf-syntax-ns#">
   <cc:Work>
    <dc:type rdf:resource="http://purl.org/dc/dcmitype/StillImage"/>
    <dc:date>2026-01-07T02:07:21.714362</dc:date>
    <dc:format>image/svg+xml</dc:format>
    <dc:creator>
     <cc:Agent>
      <dc:title>Matplotlib v3.10.1, https://matplotlib.org/</dc:title>
     </cc:Agent>
    </dc:creator>
   </cc:Work>
  </rdf:RDF>
 </metadata>
 <defs>
  <style type="text/css">*{stroke-linejoin: round; stroke-linecap: butt}</style>
 </defs>
 <g id="figure_1">
  <g id="patch_1">
   <path d="M 0 176.853374 
L 1152 176.853374 
L 1152 0 
L 0 0 
z
" style="fill: #ffffff"/>
  </g>
  <g id="axes_1">
   <g id="patch_2">
    <path d="M 0 176.853374 
L 1152 176.853374 
L 1152 0 
L 0 0 
z
" style="fill: #212830"/>
   </g>
   <g id="patch_3">
    <path d="M 1099.397973 168.372643 
L 1073.463866 159.83965 
L 1046.487353 151.106676 
L 1016.256971 141.043558 
L 984.482255 130.19882 
L 876.692761 93.066778 
L 845.051436 82.564828 
L 841.295142 81.349024 
L 840.76963 82.972625 
L 823.683241 77.492879 
L 803.009717 71.080718 
L 782.461972 64.966762 
L 761.990375 59.155621 
L 741.56782 53.657791 
L 721.145426 48.470971 
L 700.715973 43.590097 
L 680.260736 39.023656 
L 659.768034 34.766467 
L 639.236535 30.828405 
L 618.658001 27.198132 
L 598.041421 23.885582 
L 577.38108 20.888511 
L 556.671427 18.208153 
L 535.900084 15.836121 
L 515.092421 13.773071 
L 494.256288 12.020067 
L 473.418676 10.576569 
L 452.602018 9.450441 
L 431.83978 8.646593 
L 411.137343 8.173977 
L 390.527361 8.03879 
L 370.029343 8.246707 
L 349.673667 8.814275 
L 329.483473 9.745914 
L 309.493837 11.050418 
L 289.743513 12.739512 
L 270.277865 14.828036 
L 251.137155 17.316922 
L 241.712325 18.714506 
L 232.389756 20.214505 
L 223.186555 21.810516 
L 214.122332 23.500812 
L 205.213887 25.285878 
L 196.474031 27.164612 
L 187.920797 29.130181 
L 179.578428 31.175652 
L 171.46131 33.299399 
L 163.588121 35.48792 
L 155.981241 37.729393 
L 148.661085 40.011725 
L 141.645075 42.324471 
L 134.944719 44.654551 
L 128.569811 46.99224 
L 116.785774 51.661221 
L 106.253501 56.260738 
L 96.90853 60.773404 
L 88.66795 65.181828 
L 81.500592 69.471562 
L 75.393996 73.612792 
L 70.351104 77.518765 
L 66.254379 81.168572 
L 62.899151 84.585418 
L 60.150968 87.72659 
L 57.929272 90.643199 
L 56.176347 93.41125 
L 54.805363 96.074085 
L 53.750856 98.624459 
L 52.989111 101.029129 
L 52.541824 103.263318 
L 52.363636 105.487139 
L 52.46188 107.69572 
L 52.90645 109.921204 
L 53.285845 111.037314 
L 53.789176 112.162169 
L 54.425508 113.296528 
L 55.195989 114.434797 
L 56.099769 115.568871 
L 57.14109 116.692398 
L 58.334236 117.804055 
L 59.69981 118.9076 
L 61.245732 120.003359 
L 62.976621 121.086156 
L 64.921005 122.153985 
L 69.528884 124.266016 
L 75.029024 126.314218 
L 81.375493 128.244688 
L 88.459801 130.041266 
L 96.338257 131.771699 
L 104.973622 133.451583 
L 114.635665 135.090651 
L 125.459344 136.738619 
L 137.70588 138.354649 
L 151.639744 139.940954 
L 167.366185 141.470107 
L 184.810803 142.885938 
L 203.767996 144.128222 
L 223.913737 145.192806 
L 244.939116 146.070727 
L 257.941723 146.508389 
L 257.890231 148.214142 
L 288.811929 149.076822 
L 311.194191 149.572316 
L 356.733087 150.253844 
L 391.113245 150.677718 
L 472.131609 151.250012 
L 541.42194 151.551883 
L 599.13229 151.705501 
L 668.014731 151.847904 
L 702.177973 152.046384 
L 736.094223 152.223412 
L 770.036636 152.35569 
L 815.280247 152.788048 
L 860.393751 153.668285 
L 882.758795 154.240879 
L 927.456921 155.785526 
L 949.436634 156.776331 
L 982.416527 158.588027 
L 1003.944765 159.942223 
L 1024.917936 161.464915 
L 1044.983587 163.113458 
L 1063.744011 164.914593 
L 1088.37775 167.525262 
L 1099.636364 168.814584 
L 1099.397973 168.372643 
L 1099.397973 168.372643 
" clip-path="url(#p5254b8065e)" style="fill: none; stroke: #ff0000; stroke-width: 0.72; stroke-linejoin: miter"/>
   </g>
   <g id="patch_4">
    <path d="M 739.0102 60.047806 
L 732.400081 58.344213 
L 734.103673 51.734094 
L 740.713792 53.437686 
L 739.0102 60.047806 
" clip-path="url(#p5254b8065e)" style="fill: none; stroke: #ff0000; stroke-width: 0.72; stroke-linejoin: miter"/>
   </g>
   <g id="patch_5">
    <path d="M 344.105039 15.876509 
L 337.284749 16.158549 
L 337.002708 9.33826 
L 343.822998 9.056219 
L 344.105039 15.876509 
" clip-path="url(#p5254b8065e)" style="fill: none; stroke: #ff0000; stroke-width: 0.72; stroke-linejoin: miter"/>
   </g>
   <g id="patch_6">
    <path d="M 165.441871 42.057986 
L 158.894174 43.987639 
L 156.964521 37.439942 
L 163.512218 35.510289 
L 165.441871 42.057986 
" clip-path="url(#p5254b8065e)" style="fill: none; stroke: #ff0000; stroke-width: 0.72; stroke-linejoin: miter"/>
   </g>
   <g id="patch_7">
    <path d="M 75.89097 84.008638 
L 73.308026 86.239641 
L 67.730518 79.782281 
L 70.313462 77.551278 
L 75.89097 84.008638 
" clip-path="url(#p5254b8065e)" style="fill: none; stroke: #ff0000; stroke-width: 0.72; stroke-linejoin: miter"/>
   </g>
   <g id="patch_8">
    <path d="M 64.332733 111.733727 
L 67.121631 113.701218 
L 62.202902 120.673464 
L 59.414004 118.705972 
L 64.332733 111.733727 
" clip-path="url(#p5254b8065e)" style="fill: none; stroke: #ff0000; stroke-width: 0.72; stroke-linejoin: miter"/>
   </g>
   <g id="patch_9">
    <path d="M 202.437828 137.216951 
L 209.253276 137.598487 
L 208.87174 144.413935 
L 202.056292 144.032399 
L 202.437828 137.216951 
" clip-path="url(#p5254b8065e)" style="fill: none; stroke: #ff0000; stroke-width: 0.72; stroke-linejoin: miter"/>
   </g>
   <g id="line2d_1">
    <path d="M 1067.055928 157.777048 
L 1066.548693 159.406451 
" clip-path="url(#p5254b8065e)" style="fill: none; stroke: #ff0000; stroke-width: 0.72; stroke-linecap: square"/>
   </g>
   <g id="line2d_2">
    <path d="M 1065.770077 163.409327 
L 1065.629492 165.110056 
" clip-path="url(#p5254b8065e)" style="fill: none; stroke: #ff0000; stroke-width: 0.72; stroke-linecap: square"/>
   </g>
   <g id="line2d_3">
    <path d="M 1034.608262 147.186682 
L 1034.089885 148.812575 
" clip-path="url(#p5254b8065e)" style="fill: none; stroke: #ff0000; stroke-width: 0.72; stroke-linecap: square"/>
   </g>
   <g id="line2d_4">
    <path d="M 1031.788307 160.298814 
L 1031.640236 161.998908 
" clip-path="url(#p5254b8065e)" style="fill: none; stroke: #ff0000; stroke-width: 0.72; stroke-linecap: square"/>
   </g>
   <g id="line2d_5">
    <path d="M 905.46816 102.86746 
L 904.926041 104.485592 
" clip-path="url(#p5254b8065e)" style="fill: none; stroke: #ff0000; stroke-width: 0.72; stroke-linecap: square"/>
   </g>
   <g id="line2d_6">
    <path d="M 895.401646 152.945777 
L 895.291037 154.648718 
" clip-path="url(#p5254b8065e)" style="fill: none; stroke: #ff0000; stroke-width: 0.72; stroke-linecap: square"/>
   </g>
   <g id="patch_10">
    <path d="M 514.227273 79.502634 
L 514.103195 75.53596 
L 513.731453 71.585045 
L 513.113524 67.665587 
L 512.251864 63.793156 
L 511.149895 59.98314 
L 509.811996 56.250673 
L 508.243483 52.610587 
L 506.450586 49.077342 
L 504.440429 45.664975 
L 502.220999 42.387045 
L 499.801112 39.256575 
L 497.190384 36.286001 
L 494.399186 33.487125 
L 491.438609 30.871069 
L 488.320413 28.448224 
L 485.056988 26.228217 
L 481.6613 24.219869 
L 478.146839 22.431157 
L 474.527568 20.869189 
L 470.817866 19.540171 
L 467.032473 18.449382 
L 463.186427 17.601156 
L 459.295008 16.998863 
L 455.373677 16.644896 
L 451.438014 16.540662 
L 447.503654 16.686574 
L 443.586229 17.082053 
L 439.701303 17.725527 
L 435.86431 18.61444 
L 432.090494 19.745261 
L 428.39485 21.113496 
L 424.792059 22.71371 
L 421.296436 24.539546 
L 417.921868 26.583748 
L 414.681763 28.838196 
L 411.588993 31.293932 
L 408.655847 33.9412 
L 405.893976 36.769483 
L 403.314354 39.767544 
L 400.927231 42.923471 
L 398.742089 46.224727 
L 396.76761 49.658195 
L 395.01164 53.210234 
L 393.481154 56.866732 
L 392.182232 60.613162 
L 391.120037 64.43464 
L 390.298787 68.315982 
L 389.721745 72.241769 
L 389.391204 76.196403 
L 389.308478 80.164172 
L 389.473894 84.129314 
L 389.886796 88.076073 
L 390.545544 91.988771 
L 391.447519 95.851861 
L 392.589139 99.649996 
L 393.965868 103.368086 
L 395.572236 106.99136 
L 397.401861 110.505421 
L 399.447474 113.896309 
L 401.700948 117.150552 
L 404.15333 120.25522 
L 406.794877 123.197979 
L 409.615093 125.967138 
L 412.602775 128.551694 
L 415.746052 130.94138 
L 419.032436 133.1267 
L 422.44887 135.098974 
L 425.981781 136.850364 
L 429.617133 138.373913 
L 433.340482 139.663568 
L 437.137036 140.714205 
L 440.991711 141.52165 
L 444.889193 142.082695 
L 448.813997 142.39511 
L 452.750529 142.457656 
L 456.683151 142.270082 
L 460.596237 141.833135 
L 464.474242 141.14855 
L 468.301758 140.219047 
L 472.063578 139.04832 
L 475.744758 137.641019 
L 479.33067 136.002735 
L 482.80707 134.139978 
L 486.160144 132.060148 
L 489.376572 129.771508 
L 492.443575 127.283151 
L 495.348967 124.604963 
L 498.081206 121.747585 
L 500.629436 118.722368 
L 502.983534 115.541332 
L 505.134146 112.217116 
L 507.072728 108.762925 
L 508.791578 105.192484 
L 510.283868 101.519978 
L 511.543668 97.759998 
L 512.565974 93.927481 
L 513.346723 90.037655 
L 513.882814 86.105974 
L 514.172117 82.148057 
L 514.227273 79.502634 
L 514.227273 79.502634 
" clip-path="url(#p5254b8065e)" style="fill: none; stroke: #ff0000; stroke-width: 0.72; stroke-linejoin: miter"/>
   </g>
   <g id="line2d_7">
    <path d="M 68.061035 79.502634 
L 829.987375 79.502634 
" clip-path="url(#p5254b8065e)" style="fill: none; stroke: #ffffff; stroke-width: 0.72; stroke-linecap: square"/>
   </g>
   <g id="line2d_8">
    <path d="M 216.86259 79.502634 
L 237.340947 79.502634 
" clip-path="url(#p5254b8065e)" style="fill: none; stroke: #ffffff; stroke-width: 0.72; stroke-linecap: square"/>
   </g>
   <g id="patch_11">
    <path d="M 227.101769 70.969985 
L 235.634417 79.502634 
L 227.101769 88.035283 
L 218.56912 79.502634 
L 227.101769 70.969985 
" clip-path="url(#p5254b8065e)" style="fill: none; stroke: #ff0000; stroke-width: 0.72; stroke-linejoin: miter"/>
   </g>
   <g id="line2d_9">
    <path d="M 438.785026 79.502634 
L 459.263383 79.502634 
" clip-path="url(#p5254b8065e)" style="fill: none; stroke: #ffffff; stroke-width: 0.72; stroke-linecap: square"/>
   </g>
   <g id="patch_12">
    <path d="M 449.024205 70.969985 
L 457.556853 79.502634 
L 449.024205 88.035283 
L 440.491556 79.502634 
L 449.024205 70.969985 
" clip-path="url(#p5254b8065e)" style="fill: none; stroke: #ff0000; stroke-width: 0.72; stroke-linejoin: miter"/>
   </g>
   <g id="line2d_10">
    <path d="M 660.707462 79.502634 
L 681.185819 79.502634 
" clip-path="url(#p5254b8065e)" style="fill: none; stroke: #ffffff; stroke-width: 0.72; stroke-linecap: square"/>
   </g>
   <g id="patch_13">
    <path d="M 670.946641 70.969985 
L 679.479289 79.502634 
L 670.946641 88.035283 
L 662.413992 79.502634 
L 670.946641 70.969985 
" clip-path="url(#p5254b8065e)" style="fill: none; stroke: #ff0000; stroke-width: 0.72; stroke-linejoin: miter"/>
   </g>
   <g id="line2d_11">
    <path d="M 52.458033 104.056569 
L 1097.670657 167.801407 
" clip-path="url(#p5254b8065e)" style="fill: none; stroke: #ffffff; stroke-width: 0.72; stroke-linecap: square"/>
   </g>
   <g id="line2d_12">
    <path d="M 257.923491 116.587381 
L 278.36387 117.833987 
" clip-path="url(#p5254b8065e)" style="fill: none; stroke: #ffffff; stroke-width: 0.72; stroke-linecap: square"/>
   </g>
   <g id="patch_14">
    <path d="M 268.6631 108.693859 
L 276.660505 117.730103 
L 267.624261 125.727508 
L 259.626856 116.691264 
L 268.6631 108.693859 
" clip-path="url(#p5254b8065e)" style="fill: none; stroke: #ff0000; stroke-width: 0.72; stroke-linejoin: miter"/>
   </g>
   <g id="line2d_13">
    <path d="M 513.690712 132.185968 
L 534.13109 133.432574 
" clip-path="url(#p5254b8065e)" style="fill: none; stroke: #ffffff; stroke-width: 0.72; stroke-linecap: square"/>
   </g>
   <g id="patch_15">
    <path d="M 524.43032 124.292446 
L 532.427725 133.32869 
L 523.391481 141.326095 
L 515.394076 132.289852 
L 524.43032 124.292446 
" clip-path="url(#p5254b8065e)" style="fill: none; stroke: #ff0000; stroke-width: 0.72; stroke-linejoin: miter"/>
   </g>
   <g id="line2d_14">
    <path d="M 451.766151 16.539793 
L 451.766151 14.833263 
" clip-path="url(#p5254b8065e)" style="fill: none; stroke: #ff0000; stroke-width: 0.72; stroke-linecap: square"/>
   </g>
   <g id="line2d_15">
    <path d="M 451.766151 142.465475 
L 451.766151 144.172005 
" clip-path="url(#p5254b8065e)" style="fill: none; stroke: #ff0000; stroke-width: 0.72; stroke-linecap: square"/>
   </g>
   <g id="line2d_16">
    <path d="M 514.227273 79.502634 
L 515.933803 79.502634 
" clip-path="url(#p5254b8065e)" style="fill: none; stroke: #ff0000; stroke-width: 0.72; stroke-linecap: square"/>
   </g>
   <g id="line2d_17">
    <path d="M 389.30503 79.502634 
L 387.5985 79.502634 
" clip-path="url(#p5254b8065e)" style="fill: none; stroke: #ff0000; stroke-width: 0.72; stroke-linecap: square"/>
   </g>
   <g id="line2d_18">
    <path d="M 315.243773 149.640641 
L 315.243773 10.646489 
" clip-path="url(#p5254b8065e)" style="fill: none; stroke: #ffffff; stroke-width: 0.72; stroke-linecap: square"/>
   </g>
   <g id="line2d_19">
    <path d="M 315.243773 107.904133 
L 315.243773 87.425776 
" clip-path="url(#p5254b8065e)" style="fill: none; stroke: #ffffff; stroke-width: 0.72; stroke-linecap: square"/>
   </g>
   <g id="patch_16">
    <path d="M 306.711124 97.664954 
L 315.243773 89.132306 
L 323.776421 97.664954 
L 315.243773 106.197603 
L 306.711124 97.664954 
" clip-path="url(#p5254b8065e)" style="fill: none; stroke: #ff0000; stroke-width: 0.72; stroke-linejoin: miter"/>
   </g>
   <g id="line2d_20">
    <path d="M 315.243773 72.861353 
L 315.243773 52.382996 
" clip-path="url(#p5254b8065e)" style="fill: none; stroke: #ffffff; stroke-width: 0.72; stroke-linecap: square"/>
   </g>
   <g id="patch_17">
    <path d="M 306.711124 62.622175 
L 315.243773 54.089526 
L 323.776421 62.622175 
L 315.243773 71.154824 
L 306.711124 62.622175 
" clip-path="url(#p5254b8065e)" style="fill: none; stroke: #ff0000; stroke-width: 0.72; stroke-linejoin: miter"/>
   </g>
   <g id="line2d_21">
    <path d="M 673.615017 151.868473 
L 673.615017 37.618064 
" clip-path="url(#p5254b8065e)" style="fill: none; stroke: #ffffff; stroke-width: 0.72; stroke-linecap: square"/>
   </g>
   <g id="line2d_22">
    <path d="M 673.615017 118.792275 
L 673.615017 98.313919 
" clip-path="url(#p5254b8065e)" style="fill: none; stroke: #ffffff; stroke-width: 0.72; stroke-linecap: square"/>
   </g>
   <g id="patch_18">
    <path d="M 665.082368 108.553097 
L 673.615017 100.020448 
L 682.147666 108.553097 
L 673.615017 117.085746 
L 665.082368 108.553097 
" clip-path="url(#p5254b8065e)" style="fill: none; stroke: #ff0000; stroke-width: 0.72; stroke-linejoin: miter"/>
   </g>
   <g id="line2d_23">
    <path d="M 673.615017 91.172618 
L 673.615017 70.694262 
" clip-path="url(#p5254b8065e)" style="fill: none; stroke: #ffffff; stroke-width: 0.72; stroke-linecap: square"/>
   </g>
   <g id="patch_19">
    <path d="M 665.082368 80.93344 
L 673.615017 72.400791 
L 682.147666 80.93344 
L 673.615017 89.466089 
L 665.082368 80.93344 
" clip-path="url(#p5254b8065e)" style="fill: none; stroke: #ff0000; stroke-width: 0.72; stroke-linejoin: miter"/>
   </g>
   <g id="patch_20">
    <path d="M 355.128034 115.02272 
L 346.595385 115.02272 
L 346.595385 123.555368 
L 355.128034 123.555368 
L 355.128034 132.088017 
L 346.595385 132.088017 
" clip-path="url(#p5254b8065e)" style="fill: none; stroke: #ff0000; stroke-width: 0.72; stroke-linejoin: miter"/>
   </g>
   <g id="patch_21">
    <path d="M 367.927007 123.555368 
L 364.513948 123.555368 
" clip-path="url(#p5254b8065e)" style="fill: none; stroke: #ff0000; stroke-width: 0.72; stroke-linejoin: miter"/>
   </g>
   <g id="patch_22">
    <path d="M 362.807418 123.555368 
L 359.394358 123.555368 
L 359.394358 115.02272 
L 362.807418 115.02272 
" clip-path="url(#p5254b8065e)" style="fill: none; stroke: #ff0000; stroke-width: 0.72; stroke-linejoin: miter"/>
   </g>
   <g id="patch_23">
    <path d="M 364.513948 115.02272 
L 367.927007 115.02272 
L 367.927007 132.088017 
L 364.513948 132.088017 
" clip-path="url(#p5254b8065e)" style="fill: none; stroke: #ff0000; stroke-width: 0.72; stroke-linejoin: miter"/>
   </g>
   <g id="patch_24">
    <path d="M 362.807418 132.088017 
L 359.394358 132.088017 
" clip-path="url(#p5254b8065e)" style="fill: none; stroke: #ff0000; stroke-width: 0.72; stroke-linejoin: miter"/>
   </g>
  </g>
 </g>
 <defs>
  <clipPath id="p5254b8065e">
   <rect x="0" y="0" width="1152" height="176.853374"/>
  </clipPath>
 </defs>
</svg>
