<?xml version="1.0" encoding="utf-8" standalone="no"?>
<!DOCTYPE svg PUBLIC "-//W3C//DTD SVG 1.1//EN"
  "http://www.w3.org/Graphics/SVG/1.1/DTD/svg11.dtd">
<svg xmlns:xlink="http://www.w3.org/1999/xlink" width="1152pt" height="335.570033pt" viewBox="0 0 1152 335.570033" xmlns="http://www.w3.org/2000/svg" version="1.1">
 <metadata>
  <rdf:RDF xmlns:dc="http://purl.org/dc/elements/1.1/" xmlns:cc="http://creativecommons.org/ns#" xmlns:rdf="http://www.w3.org/1999/02/22-rdf-syntax-ns#">
   <cc:Work>
    <dc:type rdf:resource="http://purl.org/dc/dcmitype/StillImage"/>
    <dc:date>2026-01-07T02:07:06.118685</dc:date>
    <dc:format>image/svg+xml</dc:format>
    <dc:creator>
     <cc:Agent>
      <dc:title>Matplotlib v3.10.1, https://matplotlib.org/</dc:title>
     </cc:Agent>
    </dc:creator>
   </cc:Work>
  </rdf:RDF>
 </metadata>
 <defs>
  <style type="text/css">*{stroke-linejoin: round; stroke-linecap: butt}</style>
 </defs>
 <g id="figure_1">
  <g id="patch_1">
   <path d="M 0 335.570033 
L 1152 335.570033 
L 1152 0 
L 0 0 
z
" style="fill: #ffffff"/>
  </g>
  <g id="axes_1">
   <g id="patch_2">
    <path d="M 0 335.570033 
L 1152 335.570033 
L 1152 0 
L 0 0 
z
" style="fill: #212830"/>
   </g>
   <g id="patch_3">
    <path d="M 1099.636364 41.627339 
L 1094.684749 40.891419 
L 1072.020931 37.719374 
L 1049.374424 34.758838 
L 1026.745658 32.022919 
L 1004.130536 29.51256 
L 981.528396 27.220384 
L 958.946817 25.132477 
L 936.408577 23.235929 
L 913.946074 21.532643 
L 891.576011 20.042905 
L 869.288138 18.781545 
L 847.067273 17.738238 
L 824.92019 16.886671 
L 802.87663 16.206539 
L 780.974839 15.694552 
L 759.249817 15.366627 
L 737.712887 15.253183 
L 716.34077 15.376695 
L 695.097688 15.720851 
L 673.987806 16.23562 
L 653.070314 16.884381 
L 632.413361 17.683507 
L 612.038405 18.684673 
L 591.914147 19.926081 
L 571.992669 21.403422 
L 552.249981 23.070762 
L 532.719021 24.867027 
L 513.485086 26.767519 
L 494.620739 28.817988 
L 476.11107 31.099041 
L 457.866343 33.63793 
L 439.827582 36.36797 
L 422.042206 39.196061 
L 404.618244 42.099467 
L 387.615829 45.137771 
L 371.008376 48.376988 
L 354.735493 51.828739 
L 338.766558 55.454716 
L 323.113699 59.207324 
L 307.817074 63.056679 
L 292.920034 66.998819 
L 278.451562 71.051654 
L 264.412038 75.242092 
L 250.779854 79.583722 
L 237.531295 84.066941 
L 224.660817 88.663011 
L 212.186701 93.343841 
L 200.134371 98.09771 
L 188.515531 102.928669 
L 177.326627 107.837129 
L 166.569166 112.806749 
L 156.263331 117.818376 
L 146.430403 122.872114 
L 137.070397 127.979512 
L 128.170969 133.138912 
L 119.731018 138.331389 
L 111.76375 143.537487 
L 104.282037 148.749332 
L 97.296284 153.960419 
L 90.815561 159.169146 
L 84.831297 164.388076 
L 79.311752 169.621554 
L 74.238804 174.824363 
L 69.653698 179.913813 
L 65.629978 184.852735 
L 62.197912 189.691804 
L 59.32077 194.506331 
L 56.946173 199.301912 
L 55.055062 204.014775 
L 53.658647 208.595165 
L 52.765078 213.038657 
L 52.363636 217.603689 
L 52.464394 221.439634 
L 53.073656 225.339587 
L 54.250666 229.098664 
L 56.050707 232.804141 
L 58.476387 236.487411 
L 61.488081 240.116772 
L 65.077728 243.647619 
L 69.291237 247.064811 
L 74.172197 250.38056 
L 79.715734 253.605961 
L 85.899128 256.731872 
L 92.72864 259.743342 
L 100.230854 262.643786 
L 108.411614 265.454103 
L 117.249591 268.191421 
L 126.719666 270.858631 
L 136.805339 273.451251 
L 147.495003 275.96373 
L 158.782149 278.389303 
L 170.667603 280.725233 
L 183.146617 282.976905 
L 196.201094 285.146006 
L 209.816912 287.221849 
L 224.000661 289.192888 
L 238.76194 291.064305 
L 254.092661 292.849362 
L 269.974595 294.55092 
L 286.40237 296.164027 
L 303.377563 297.692317 
L 338.923065 300.538618 
L 376.493564 303.116438 
L 415.995832 305.446601 
L 457.321817 307.534975 
L 462.54652 307.770657 
L 462.460884 309.669071 
L 500.298745 311.306223 
L 544.955838 312.973143 
L 591.07456 314.436219 
L 638.541997 315.652073 
L 687.29171 316.615523 
L 737.260073 317.335566 
L 866.781162 318.738094 
L 1055.051149 320.07639 
L 1099.636364 320.31685 
L 1099.636364 41.627339 
L 1099.636364 41.627339 
" clip-path="url(#p54fbc9404e)" style="fill: none; stroke: #ff0000; stroke-width: 0.72; stroke-linejoin: miter"/>
   </g>
   <g id="patch_4">
    <path d="M 644.503821 252.940242 
L 644.503821 271.943689 
" clip-path="url(#p54fbc9404e)" style="fill: none; stroke: #ff0000; stroke-width: 0.72; stroke-linejoin: miter"/>
   </g>
   <g id="patch_5">
    <path d="M 654.005545 252.940242 
L 663.507268 252.940242 
L 663.507268 262.441965 
L 654.005545 262.441965 
L 654.005545 271.943689 
L 663.507268 271.943689 
" clip-path="url(#p54fbc9404e)" style="fill: none; stroke: #ff0000; stroke-width: 0.72; stroke-linejoin: miter"/>
   </g>
   <g id="patch_6">
    <path d="M 632.580987 25.285822 
L 624.988773 25.658965 
L 624.61563 18.06675 
L 632.207845 17.693608 
L 632.580987 25.285822 
" clip-path="url(#p54fbc9404e)" style="fill: none; stroke: #ff0000; stroke-width: 0.72; stroke-linejoin: miter"/>
   </g>
   <g id="patch_7">
    <path d="M 275.146939 79.970941 
L 267.863158 82.14522 
L 265.688879 74.861439 
L 272.97266 72.68716 
L 275.146939 79.970941 
" clip-path="url(#p54fbc9404e)" style="fill: none; stroke: #ff0000; stroke-width: 0.72; stroke-linejoin: miter"/>
   </g>
   <g id="patch_8">
    <path d="M 94.176348 168.847267 
L 91.312713 171.346234 
L 85.065296 164.187147 
L 87.92893 161.68818 
L 94.176348 168.847267 
" clip-path="url(#p54fbc9404e)" style="fill: none; stroke: #ff0000; stroke-width: 0.72; stroke-linejoin: miter"/>
   </g>
   <g id="patch_9">
    <path d="M 73.712832 238.583259 
L 76.85919 240.715315 
L 71.529049 248.581213 
L 68.38269 246.449156 
L 73.712832 238.583259 
" clip-path="url(#p54fbc9404e)" style="fill: none; stroke: #ff0000; stroke-width: 0.72; stroke-linejoin: miter"/>
   </g>
   <g id="patch_10">
    <path d="M 354.955005 294.077751 
L 362.5399 294.578076 
L 362.039575 302.162971 
L 354.45468 301.662645 
L 354.955005 294.077751 
" clip-path="url(#p54fbc9404e)" style="fill: none; stroke: #ff0000; stroke-width: 0.72; stroke-linejoin: miter"/>
   </g>
   <g id="patch_11">
    <path d="M 971.252897 167.424733 
L 971.144758 161.964635 
L 970.82053 156.51418 
L 970.280786 151.082994 
L 969.52648 145.680669 
L 968.558944 140.316746 
L 967.379886 135.000698 
L 965.991389 129.741914 
L 964.395906 124.549681 
L 962.596253 119.43317 
L 960.595609 114.401416 
L 958.397508 109.463306 
L 956.005831 104.627562 
L 953.424802 99.902723 
L 950.658981 95.297134 
L 947.713251 90.818929 
L 944.592815 86.476017 
L 941.303184 82.276068 
L 937.850167 78.2265 
L 934.239864 74.334464 
L 930.47865 70.606834 
L 926.573168 67.050193 
L 922.530315 63.670823 
L 918.357231 60.474692 
L 914.061286 57.467444 
L 909.650068 54.654391 
L 905.131368 52.040501 
L 900.513164 49.630391 
L 895.803614 47.428316 
L 891.011036 45.438166 
L 886.143892 43.663455 
L 881.21078 42.107318 
L 876.220411 40.772503 
L 871.181599 39.661368 
L 866.103243 38.775875 
L 860.994312 38.117588 
L 855.863828 37.687669 
L 850.720853 37.486877 
L 845.57447 37.515568 
L 840.433766 37.77369 
L 835.307823 38.260788 
L 830.205691 38.976002 
L 825.136383 39.918068 
L 820.10885 41.085322 
L 815.131973 42.475704 
L 810.214541 44.086757 
L 805.365237 45.915636 
L 800.592628 47.959112 
L 795.905141 50.213575 
L 791.311055 52.675044 
L 786.818484 55.339171 
L 782.435362 58.201252 
L 778.16943 61.256231 
L 774.028221 64.498714 
L 770.019051 67.922974 
L 766.148999 71.522963 
L 762.4249 75.292323 
L 758.853331 79.224398 
L 755.4406 83.312243 
L 752.192735 87.548638 
L 749.11547 91.926102 
L 746.214242 96.436903 
L 743.494174 101.073075 
L 740.960069 105.826431 
L 738.616403 110.688575 
L 736.467316 115.65092 
L 734.516602 120.704702 
L 732.767708 125.840997 
L 731.22372 131.050732 
L 729.887368 136.324706 
L 728.76101 141.653607 
L 727.846636 147.028021 
L 727.14586 152.438459 
L 726.659921 157.875363 
L 726.389676 163.329132 
L 726.335604 168.790135 
L 726.497798 174.248726 
L 726.875974 179.695265 
L 727.469462 185.120133 
L 728.277215 190.51375 
L 729.297806 195.866589 
L 730.529434 201.169198 
L 731.969922 206.41221 
L 733.616726 211.586367 
L 735.466939 216.682531 
L 737.517292 221.691701 
L 739.764164 226.60503 
L 742.203588 231.413841 
L 744.831255 236.109642 
L 747.642524 240.684139 
L 750.632431 245.129253 
L 753.795694 249.437133 
L 757.126727 253.600172 
L 760.619648 257.611018 
L 764.268288 261.462586 
L 768.066202 265.148074 
L 772.006683 268.660974 
L 776.082773 271.995081 
L 780.287271 275.144508 
L 784.612753 278.103691 
L 789.05158 280.867406 
L 793.595912 283.43077 
L 798.237723 285.789256 
L 802.968816 287.9387 
L 807.780835 289.875305 
L 812.665281 291.595651 
L 817.613528 293.0967 
L 822.616838 294.3758 
L 827.666373 295.430693 
L 832.753216 296.259516 
L 837.868383 296.860805 
L 843.00284 297.233497 
L 848.147519 297.376936 
L 853.293335 297.290866 
L 858.431199 296.975441 
L 863.552037 296.431218 
L 868.646805 295.659157 
L 873.706506 294.660623 
L 878.722204 293.437378 
L 883.68504 291.991583 
L 888.58625 290.325791 
L 893.417178 288.442945 
L 898.169291 286.34637 
L 902.834198 284.039767 
L 907.403659 281.527212 
L 911.869604 278.813142 
L 916.224147 275.902349 
L 920.459596 272.799975 
L 924.568472 269.511498 
L 928.543517 266.042727 
L 932.377712 262.399787 
L 936.064285 258.589112 
L 939.596724 254.617433 
L 942.968793 250.491764 
L 946.174534 246.21939 
L 949.208287 241.807858 
L 952.064693 237.264958 
L 954.738708 232.598714 
L 957.22561 227.817366 
L 959.521006 222.92936 
L 961.620842 217.943327 
L 963.52141 212.868074 
L 965.219353 207.712564 
L 966.711673 202.485902 
L 967.995734 197.197318 
L 969.069268 191.856153 
L 969.930379 186.471841 
L 970.577547 181.053889 
L 971.009628 175.611867 
L 971.225859 170.155385 
L 971.252897 167.424733 
L 971.252897 167.424733 
" clip-path="url(#p54fbc9404e)" style="fill: none; stroke: #ff0000; stroke-width: 0.72; stroke-linejoin: miter"/>
   </g>
   <g id="patch_12">
    <path d="M 392.877172 157.92301 
L 402.378895 167.424733 
L 392.877172 176.926456 
L 383.375449 167.424733 
L 392.877172 157.92301 
" clip-path="url(#p54fbc9404e)" style="fill: none; stroke: #ff0000; stroke-width: 0.72; stroke-linejoin: miter"/>
   </g>
   <g id="patch_13">
    <path d="M 841.22159 157.92301 
L 850.723313 167.424733 
L 841.22159 176.926456 
L 831.719867 167.424733 
L 841.22159 157.92301 
" clip-path="url(#p54fbc9404e)" style="fill: none; stroke: #ff0000; stroke-width: 0.72; stroke-linejoin: miter"/>
   </g>
   <g id="patch_14">
    <path d="M 460.723256 232.91689 
L 469.588482 243.015071 
L 459.4903 251.880296 
L 450.625075 241.782115 
L 460.723256 232.91689 
" clip-path="url(#p54fbc9404e)" style="fill: none; stroke: #ff0000; stroke-width: 0.72; stroke-linejoin: miter"/>
   </g>
   <g id="patch_15">
    <path d="M 954.806905 265.041039 
L 963.672131 275.13922 
L 953.573949 284.004445 
L 944.708724 273.906264 
L 954.806905 265.041039 
" clip-path="url(#p54fbc9404e)" style="fill: none; stroke: #ff0000; stroke-width: 0.72; stroke-linejoin: miter"/>
   </g>
   <g id="patch_16">
    <path d="M 554.237451 207.867005 
L 563.739174 198.365282 
L 573.240897 207.867005 
L 563.739174 217.368728 
L 554.237451 207.867005 
" clip-path="url(#p54fbc9404e)" style="fill: none; stroke: #ff0000; stroke-width: 0.72; stroke-linejoin: miter"/>
   </g>
   <g id="patch_17">
    <path d="M 554.237451 127.829633 
L 563.739174 118.32791 
L 573.240897 127.829633 
L 563.739174 137.331356 
L 554.237451 127.829633 
" clip-path="url(#p54fbc9404e)" style="fill: none; stroke: #ff0000; stroke-width: 0.72; stroke-linejoin: miter"/>
   </g>
   <g id="line2d_1">
    <path d="M 81.628653 167.424733 
L 1099.636364 167.424733 
" clip-path="url(#p54fbc9404e)" style="fill: none; stroke: #ffffff; stroke-width: 0.72; stroke-linecap: square"/>
   </g>
   <g id="line2d_2">
    <path d="M 381.475104 167.424733 
L 404.27924 167.424733 
" clip-path="url(#p54fbc9404e)" style="fill: none; stroke: #ffffff; stroke-width: 0.72; stroke-linecap: square"/>
   </g>
   <g id="line2d_3">
    <path d="M 829.819522 167.424733 
L 852.623658 167.424733 
" clip-path="url(#p54fbc9404e)" style="fill: none; stroke: #ffffff; stroke-width: 0.72; stroke-linecap: square"/>
   </g>
   <g id="line2d_4">
    <path d="M 52.513645 215.897852 
L 1099.636364 283.979293 
" clip-path="url(#p54fbc9404e)" style="fill: none; stroke: #ffffff; stroke-width: 0.72; stroke-linecap: square"/>
   </g>
   <g id="line2d_5">
    <path d="M 448.728734 241.658819 
L 471.484822 243.138366 
" clip-path="url(#p54fbc9404e)" style="fill: none; stroke: #ffffff; stroke-width: 0.72; stroke-linecap: square"/>
   </g>
   <g id="line2d_6">
    <path d="M 942.812383 273.782969 
L 965.568471 275.262516 
" clip-path="url(#p54fbc9404e)" style="fill: none; stroke: #ffffff; stroke-width: 0.72; stroke-linecap: square"/>
   </g>
   <g id="line2d_7">
    <path d="M 848.790871 37.470738 
L 848.790871 35.570393 
" clip-path="url(#p54fbc9404e)" style="fill: none; stroke: #ff0000; stroke-width: 0.72; stroke-linecap: square"/>
   </g>
   <g id="line2d_8">
    <path d="M 848.790871 297.378729 
L 848.790871 299.279074 
" clip-path="url(#p54fbc9404e)" style="fill: none; stroke: #ff0000; stroke-width: 0.72; stroke-linecap: square"/>
   </g>
   <g id="line2d_9">
    <path d="M 971.252897 167.424733 
L 973.153242 167.424733 
" clip-path="url(#p54fbc9404e)" style="fill: none; stroke: #ff0000; stroke-width: 0.72; stroke-linecap: square"/>
   </g>
   <g id="line2d_10">
    <path d="M 726.328844 167.424733 
L 724.428499 167.424733 
" clip-path="url(#p54fbc9404e)" style="fill: none; stroke: #ff0000; stroke-width: 0.72; stroke-linecap: square"/>
   </g>
   <g id="line2d_11">
    <path d="M 563.739174 313.596179 
L 563.739174 22.100459 
" clip-path="url(#p54fbc9404e)" style="fill: none; stroke: #ffffff; stroke-width: 0.72; stroke-linecap: square"/>
   </g>
   <g id="line2d_12">
    <path d="M 563.739174 219.269073 
L 563.739174 196.464937 
" clip-path="url(#p54fbc9404e)" style="fill: none; stroke: #ffffff; stroke-width: 0.72; stroke-linecap: square"/>
   </g>
   <g id="line2d_13">
    <path d="M 563.739174 139.231701 
L 563.739174 116.427565 
" clip-path="url(#p54fbc9404e)" style="fill: none; stroke: #ffffff; stroke-width: 0.72; stroke-linecap: square"/>
   </g>
  </g>
 </g>
 <defs>
  <clipPath id="p54fbc9404e">
   <rect x="0" y="0" width="1152" height="335.570033"/>
  </clipPath>
 </defs>
</svg>
