<?xml version="1.0" encoding="utf-8" standalone="no"?>
<!DOCTYPE svg PUBLIC "-//W3C//DTD SVG 1.1//EN"
  "http://www.w3.org/Graphics/SVG/1.1/DTD/svg11.dtd">
<svg xmlns:xlink="http://www.w3.org/1999/xlink" width="1152pt" height="321.667258pt" viewBox="0 0 1152 321.667258" xmlns="http://www.w3.org/2000/svg" version="1.1">
 <metadata>
  <rdf:RDF xmlns:dc="http://purl.org/dc/elements/1.1/" xmlns:cc="http://creativecommons.org/ns#" xmlns:rdf="http://www.w3.org/1999/02/22-rdf-syntax-ns#">
   <cc:Work>
    <dc:type rdf:resource="http://purl.org/dc/dcmitype/StillImage"/>
    <dc:date>2026-01-07T02:07:13.733928</dc:date>
    <dc:format>image/svg+xml</dc:format>
    <dc:creator>
     <cc:Agent>
      <dc:title>Matplotlib v3.10.1, https://matplotlib.org/</dc:title>
     </cc:Agent>
    </dc:creator>
   </cc:Work>
  </rdf:RDF>
 </metadata>
 <defs>
  <style type="text/css">*{stroke-linejoin: round; stroke-linecap: butt}</style>
 </defs>
 <g id="figure_1">
  <g id="patch_1">
   <path d="M 0 321.667258 
L 1152 321.667258 
L 1152 0 
L 0 0 
z
" style="fill: #ffffff"/>
  </g>
  <g id="axes_1">
   <g id="patch_2">
    <path d="M 0 321.667258 
L 1152 321.667258 
L 1152 0 
L 0 0 
z
" style="fill: #212830"/>
   </g>
   <g id="patch_3">
    <path d="M 1099.636364 40.96144 
L 1080.476781 38.302066 
L 1059.53784 35.572498 
L 1038.5616 33.01147 
L 1017.5521 30.614266 
L 996.51883 28.381515 
L 975.464288 26.316082 
L 954.385847 24.417575 
L 933.289015 22.681764 
L 912.188474 21.108759 
L 891.093595 19.70313 
L 870.004517 18.467613 
L 848.925021 17.399516 
L 827.868776 16.499278 
L 806.846389 15.771119 
L 785.857715 15.219877 
L 764.904072 14.843955 
L 743.998151 14.642854 
L 723.151095 14.621239 
L 702.364802 14.784307 
L 681.639834 15.131889 
L 660.989164 15.663042 
L 640.42644 16.382146 
L 619.953967 17.295513 
L 599.575037 18.403142 
L 579.304068 19.70391 
L 559.157286 21.202769 
L 539.138187 22.906389 
L 519.253504 24.813457 
L 499.52325 26.923109 
L 479.963105 29.241823 
L 460.578983 31.774141 
L 441.385335 34.516765 
L 422.406498 37.470202 
L 403.658312 40.639307 
L 385.154375 44.020545 
L 366.932858 47.600117 
L 349.039852 51.375907 
L 331.503593 55.350195 
L 314.355119 59.508696 
L 297.650053 63.831144 
L 281.438483 68.310421 
L 265.755389 72.932672 
L 250.648332 77.664524 
L 236.175728 82.476373 
L 222.377471 87.349779 
L 209.279694 92.252535 
L 196.912341 97.143938 
L 185.295722 101.997497 
L 174.426485 106.794199 
L 164.289464 111.506784 
L 154.867438 116.110931 
L 146.134216 120.598091 
L 138.050898 124.967911 
L 130.572232 129.215933 
L 123.656213 133.335115 
L 117.264582 137.326667 
L 111.357962 141.199568 
L 105.897099 144.962796 
L 100.844262 148.622172 
L 96.168295 152.180014 
L 91.843702 155.643417 
L 87.847176 159.024784 
L 84.150852 162.340208 
L 80.723689 165.594886 
L 74.56061 171.901548 
L 69.216765 177.868359 
L 66.852503 180.725116 
L 64.700268 183.518312 
L 62.759068 186.270245 
L 61.017852 189.001732 
L 59.46016 191.717654 
L 58.067552 194.413982 
L 56.827076 197.074814 
L 55.73304 199.688238 
L 54.787113 202.244304 
L 53.994866 204.742398 
L 53.361072 207.189574 
L 52.886548 209.592838 
L 52.567396 211.957511 
L 52.387955 214.47186 
L 52.363636 216.615573 
L 52.480427 218.960593 
L 52.760816 221.298272 
L 53.225587 223.617785 
L 53.900247 225.919196 
L 54.806051 228.205822 
L 55.950554 230.476247 
L 57.326358 232.723126 
L 58.918054 234.934027 
L 60.715402 237.097014 
L 62.717403 239.202278 
L 64.933002 241.245041 
L 67.371008 243.224944 
L 70.036711 245.146457 
L 72.927162 247.015977 
L 76.040225 248.840547 
L 79.374255 250.62403 
L 82.939296 252.36792 
L 86.749982 254.072822 
L 90.829545 255.740715 
L 95.201175 257.378125 
L 99.888424 258.995175 
L 104.917292 260.603023 
L 116.119557 263.826107 
L 122.374368 265.449153 
L 129.134003 267.083219 
L 136.456869 268.733316 
L 144.407155 270.40431 
L 153.053051 272.098158 
L 162.471098 273.811775 
L 172.743405 275.5399 
L 183.949062 277.280218 
L 196.154562 279.028816 
L 209.410155 280.772506 
L 223.748673 282.492306 
L 239.176688 284.173725 
L 255.658384 285.804675 
L 273.125578 287.363975 
L 291.499687 288.833765 
L 310.683172 290.208944 
L 330.56243 291.482162 
L 351.044936 292.644693 
L 372.052106 293.700866 
L 393.50424 294.655617 
L 437.595717 296.269742 
L 462.54452 297.061475 
L 462.472626 299.419072 
L 505.635991 300.675424 
L 551.563618 301.666022 
L 668.749251 303.595647 
L 715.803196 304.134012 
L 906.049676 305.795452 
L 1000.860284 306.455411 
L 1099.636364 307.046019 
L 1099.636364 40.96144 
L 1099.636364 40.96144 
" clip-path="url(#p46fa7ae009)" style="fill: none; stroke: #ff0000; stroke-width: 0.72; stroke-linejoin: miter"/>
   </g>
   <g id="patch_4">
    <path d="M 639.540259 241.363868 
L 651.333724 241.363868 
L 651.333724 253.157334 
L 639.540259 253.157334 
L 651.333724 253.157334 
L 651.333724 264.950799 
L 639.540259 264.950799 
" clip-path="url(#p46fa7ae009)" style="fill: none; stroke: #ff0000; stroke-width: 0.72; stroke-linejoin: miter"/>
   </g>
   <g id="patch_5">
    <path d="M 657.230457 241.363868 
L 669.023922 241.363868 
L 669.023922 253.157334 
L 657.230457 253.157334 
L 669.023922 253.157334 
L 669.023922 264.950799 
L 657.230457 264.950799 
" clip-path="url(#p46fa7ae009)" style="fill: none; stroke: #ff0000; stroke-width: 0.72; stroke-linejoin: miter"/>
   </g>
   <g id="patch_6">
    <path d="M 632.895136 26.162373 
L 623.469743 26.582958 
L 623.049158 17.157564 
L 632.474552 16.73698 
L 632.895136 26.162373 
" clip-path="url(#p46fa7ae009)" style="fill: none; stroke: #ff0000; stroke-width: 0.72; stroke-linejoin: miter"/>
   </g>
   <g id="patch_7">
    <path d="M 275.981142 79.755142 
L 266.931327 82.422683 
L 264.263786 73.372868 
L 273.313601 70.705327 
L 275.981142 79.755142 
" clip-path="url(#p46fa7ae009)" style="fill: none; stroke: #ff0000; stroke-width: 0.72; stroke-linejoin: miter"/>
   </g>
   <g id="patch_8">
    <path d="M 95.918719 167.627356 
L 92.407903 170.778214 
L 84.530759 162.001173 
L 88.041576 158.850316 
L 95.918719 167.627356 
" clip-path="url(#p46fa7ae009)" style="fill: none; stroke: #ff0000; stroke-width: 0.72; stroke-linejoin: miter"/>
   </g>
   <g id="patch_9">
    <path d="M 74.689518 233.961439 
L 78.520057 236.714746 
L 71.636787 246.291094 
L 67.806248 243.537786 
L 74.689518 233.961439 
" clip-path="url(#p46fa7ae009)" style="fill: none; stroke: #ff0000; stroke-width: 0.72; stroke-linejoin: miter"/>
   </g>
   <g id="patch_10">
    <path d="M 353.85473 283.339265 
L 363.277602 283.81299 
L 362.803876 293.235862 
L 353.381005 292.762136 
L 353.85473 283.339265 
" clip-path="url(#p46fa7ae009)" style="fill: none; stroke: #ff0000; stroke-width: 0.72; stroke-linejoin: miter"/>
   </g>
   <g id="patch_11">
    <path d="M 962.603874 160.383502 
L 962.503269 155.30413 
L 962.201633 150.233729 
L 961.699498 145.181253 
L 960.997751 140.155626 
L 960.097632 135.165723 
L 959.000729 130.220357 
L 957.708981 125.328262 
L 956.224669 120.498078 
L 954.550414 115.738335 
L 952.689172 111.057439 
L 950.644232 106.463658 
L 948.419204 101.965105 
L 946.018019 97.569723 
L 943.444916 93.285277 
L 940.704441 89.119332 
L 937.801434 85.079246 
L 934.74102 81.172155 
L 931.528605 77.404958 
L 928.169864 73.784309 
L 924.670726 70.316602 
L 921.037373 67.007962 
L 917.276221 63.864231 
L 913.393913 60.890963 
L 909.397305 58.093407 
L 905.293455 55.476505 
L 901.089612 53.044879 
L 896.793199 50.802822 
L 892.411805 48.754296 
L 887.953167 46.902916 
L 883.42516 45.251954 
L 878.835781 43.804325 
L 874.193135 42.562585 
L 869.505422 41.528928 
L 864.780919 40.705179 
L 860.027972 40.092794 
L 855.254975 39.692852 
L 850.470356 39.506062 
L 845.682566 39.532752 
L 840.90006 39.772876 
L 836.131286 40.226009 
L 831.384665 40.891352 
L 826.66858 41.767729 
L 821.99136 42.853592 
L 817.361265 44.147024 
L 812.786473 45.64574 
L 808.275064 47.347094 
L 803.835004 49.24808 
L 799.474135 51.345342 
L 795.20016 53.635175 
L 791.020626 56.113536 
L 786.942914 58.776047 
L 782.974227 61.618007 
L 779.121573 64.634395 
L 775.391756 67.819885 
L 771.791365 71.168851 
L 768.326756 74.675378 
L 765.00405 78.333274 
L 761.829114 82.136078 
L 758.807556 86.077074 
L 755.944712 90.149303 
L 753.245638 94.345571 
L 750.7151 98.658468 
L 748.357569 103.080378 
L 746.177207 107.60349 
L 744.177865 112.219817 
L 742.363075 116.921205 
L 740.736041 121.699351 
L 739.299637 126.545817 
L 738.0564 131.452044 
L 737.008525 136.409367 
L 736.157864 141.40903 
L 735.505917 146.442203 
L 735.053838 151.499998 
L 734.802424 156.573483 
L 734.752118 161.653696 
L 734.903011 166.731666 
L 735.254836 171.798424 
L 735.806971 176.845023 
L 736.558441 181.862549 
L 737.507919 186.842141 
L 738.653728 191.775005 
L 739.993844 196.652428 
L 741.525901 201.465797 
L 743.247193 206.206611 
L 745.15468 210.866497 
L 747.244994 215.437226 
L 749.514441 219.910724 
L 751.959015 224.279092 
L 754.574399 228.534615 
L 757.355972 232.669776 
L 760.298823 236.677273 
L 763.397754 240.550028 
L 766.647293 244.281202 
L 770.041699 247.864205 
L 773.57498 251.292708 
L 777.240893 254.560658 
L 781.032965 257.662282 
L 784.9445 260.592102 
L 788.968587 263.344945 
L 793.098122 265.915949 
L 797.32581 268.300573 
L 801.644186 270.494605 
L 806.045622 272.49417 
L 810.522345 274.295738 
L 815.066449 275.896126 
L 819.669909 277.292509 
L 824.324594 278.482419 
L 829.022283 279.463756 
L 833.754681 280.234786 
L 838.51343 280.794147 
L 843.290124 281.140852 
L 848.076328 281.274289 
L 852.86359 281.194221 
L 857.643454 280.90079 
L 862.407478 280.394515 
L 867.147249 279.676289 
L 871.854396 278.747381 
L 876.520606 277.609431 
L 881.137638 276.26445 
L 885.697338 274.714812 
L 890.191652 272.963255 
L 894.612644 271.012871 
L 898.952506 268.867106 
L 903.203572 266.529748 
L 907.358336 264.004927 
L 911.40946 261.2971 
L 915.349788 258.411051 
L 919.172362 255.351876 
L 922.870431 252.124978 
L 926.437464 248.736056 
L 929.867161 245.191095 
L 933.153464 241.496357 
L 936.290571 237.658365 
L 939.27294 233.683899 
L 942.095305 229.579978 
L 944.75268 225.353849 
L 947.240373 221.012977 
L 949.553991 216.565027 
L 951.689446 212.017856 
L 953.642968 207.379494 
L 955.411107 202.658132 
L 956.99074 197.862109 
L 958.379077 192.999896 
L 959.573666 188.080079 
L 960.572397 183.111348 
L 961.373507 178.102477 
L 961.975581 173.062313 
L 962.377555 167.999756 
L 962.57872 162.923749 
L 962.603874 160.383502 
L 962.603874 160.383502 
" clip-path="url(#p46fa7ae009)" style="fill: none; stroke: #ff0000; stroke-width: 0.72; stroke-linejoin: miter"/>
   </g>
   <g id="patch_12">
    <path d="M 397.80122 148.590037 
L 409.594685 160.383502 
L 397.80122 172.176968 
L 386.007755 160.383502 
L 397.80122 148.590037 
" clip-path="url(#p46fa7ae009)" style="fill: none; stroke: #ff0000; stroke-width: 0.72; stroke-linejoin: miter"/>
   </g>
   <g id="patch_13">
    <path d="M 842.007255 148.590037 
L 853.800721 160.383502 
L 842.007255 172.176968 
L 830.21379 160.383502 
L 842.007255 148.590037 
" clip-path="url(#p46fa7ae009)" style="fill: none; stroke: #ff0000; stroke-width: 0.72; stroke-linejoin: miter"/>
   </g>
   <g id="patch_14">
    <path d="M 478.868718 228.061064 
L 489.880915 240.587163 
L 477.354815 251.59936 
L 466.342618 239.073261 
L 478.868718 228.061064 
" clip-path="url(#p46fa7ae009)" style="fill: none; stroke: #ff0000; stroke-width: 0.72; stroke-linejoin: miter"/>
   </g>
   <g id="patch_15">
    <path d="M 991.718995 261.04584 
L 1002.731192 273.57194 
L 990.205092 284.584137 
L 979.192895 272.058037 
L 991.718995 261.04584 
" clip-path="url(#p46fa7ae009)" style="fill: none; stroke: #ff0000; stroke-width: 0.72; stroke-linejoin: miter"/>
   </g>
   <g id="patch_16">
    <path d="M 483.077426 200.26069 
L 494.870891 188.467225 
L 506.664357 200.26069 
L 494.870891 212.054155 
L 483.077426 200.26069 
" clip-path="url(#p46fa7ae009)" style="fill: none; stroke: #ff0000; stroke-width: 0.72; stroke-linejoin: miter"/>
   </g>
   <g id="patch_17">
    <path d="M 483.077426 127.589349 
L 494.870891 115.795883 
L 506.664357 127.589349 
L 494.870891 139.382814 
L 483.077426 127.589349 
" clip-path="url(#p46fa7ae009)" style="fill: none; stroke: #ff0000; stroke-width: 0.72; stroke-linejoin: miter"/>
   </g>
   <g id="line2d_1">
    <path d="M 86.332358 160.383502 
L 1099.636364 160.383502 
" clip-path="url(#p46fa7ae009)" style="fill: none; stroke: #ffffff; stroke-width: 0.72; stroke-linecap: square"/>
   </g>
   <g id="line2d_2">
    <path d="M 383.649062 160.383502 
L 411.953378 160.383502 
" clip-path="url(#p46fa7ae009)" style="fill: none; stroke: #ffffff; stroke-width: 0.72; stroke-linecap: square"/>
   </g>
   <g id="line2d_3">
    <path d="M 827.855097 160.383502 
L 856.159414 160.383502 
" clip-path="url(#p46fa7ae009)" style="fill: none; stroke: #ffffff; stroke-width: 0.72; stroke-linecap: square"/>
   </g>
   <g id="line2d_4">
    <path d="M 52.531652 212.458354 
L 1099.636364 279.804549 
" clip-path="url(#p46fa7ae009)" style="fill: none; stroke: #ffffff; stroke-width: 0.72; stroke-linecap: square"/>
   </g>
   <g id="line2d_5">
    <path d="M 463.988789 238.92187 
L 492.234744 240.738554 
" clip-path="url(#p46fa7ae009)" style="fill: none; stroke: #ffffff; stroke-width: 0.72; stroke-linecap: square"/>
   </g>
   <g id="line2d_6">
    <path d="M 976.839066 271.906647 
L 1005.085021 273.72333 
" clip-path="url(#p46fa7ae009)" style="fill: none; stroke: #ffffff; stroke-width: 0.72; stroke-linecap: square"/>
   </g>
   <g id="line2d_7">
    <path d="M 848.674852 39.491048 
L 848.674852 37.132355 
" clip-path="url(#p46fa7ae009)" style="fill: none; stroke: #ff0000; stroke-width: 0.72; stroke-linecap: square"/>
   </g>
   <g id="line2d_8">
    <path d="M 848.674852 281.275957 
L 848.674852 283.63465 
" clip-path="url(#p46fa7ae009)" style="fill: none; stroke: #ff0000; stroke-width: 0.72; stroke-linecap: square"/>
   </g>
   <g id="line2d_9">
    <path d="M 962.603874 160.383502 
L 964.962567 160.383502 
" clip-path="url(#p46fa7ae009)" style="fill: none; stroke: #ff0000; stroke-width: 0.72; stroke-linecap: square"/>
   </g>
   <g id="line2d_10">
    <path d="M 734.74583 160.383502 
L 732.387137 160.383502 
" clip-path="url(#p46fa7ae009)" style="fill: none; stroke: #ff0000; stroke-width: 0.72; stroke-linecap: square"/>
   </g>
   <g id="line2d_11">
    <path d="M 494.870891 300.375426 
L 494.870891 27.474613 
" clip-path="url(#p46fa7ae009)" style="fill: none; stroke: #ffffff; stroke-width: 0.72; stroke-linecap: square"/>
   </g>
   <g id="line2d_12">
    <path d="M 494.870891 214.412848 
L 494.870891 186.108531 
" clip-path="url(#p46fa7ae009)" style="fill: none; stroke: #ffffff; stroke-width: 0.72; stroke-linecap: square"/>
   </g>
   <g id="line2d_13">
    <path d="M 494.870891 141.741507 
L 494.870891 113.43719 
" clip-path="url(#p46fa7ae009)" style="fill: none; stroke: #ffffff; stroke-width: 0.72; stroke-linecap: square"/>
   </g>
  </g>
 </g>
 <defs>
  <clipPath id="p46fa7ae009">
   <rect x="0" y="0" width="1152" height="321.667258"/>
  </clipPath>
 </defs>
</svg>
