  0
SECTION
  2
HEADER
  9
$ACADVER
  1
AC1021
  9
$ACADMAINTVER
 70
25
  9
$DWGCODEPAGE
  3
ANSI_1252
  9
$LASTSAVEDBY
  1
ezdxf
  9
$INSBASE
 10
0.0
 20
0.0
 30
0.0
  9
$EXTMIN
 10
1e+20
 20
1e+20
 30
1e+20
  9
$EXTMAX
 10
-1e+20
 20
-1e+20
 30
-1e+20
  9
$LIMMIN
 10
0.0
 20
0.0
  9
$LIMMAX
 10
420.0
 20
297.0
  9
$ORTHOMODE
 70
0
  9
$REGENMODE
 70
1
  9
$FILLMODE
 70
1
  9
$QTEXTMODE
 70
0
  9
$MIRRTEXT
 70
1
  9
$LTSCALE
 40
1.0
  9
$ATTMODE
 70
1
  9
$TEXTSIZE
 40
2.5
  9
$TRACEWID
 40
1.0
  9
$TEXTSTYLE
  7
OpenSans
  9
$CLAYER
  8
0
  9
$CELTYPE
  6
ByLayer
  9
$CECOLOR
 62
256
  9
$CELTSCALE
 40
1.0
  9
$DISPSILH
 70
0
  9
$DIMSCALE
 40
1.0
  9
$DIMASZ
 40
0.175
  9
$DIMEXO
 40
0.125
  9
$DIMDLI
 40
3.75
  9
$DIMRND
 40
0.0
  9
$DIMDLE
 40
0.0
  9
$DIMEXE
 40
0.375
  9
$DIMTP
 40
0.0
  9
$DIMTM
 40
0.0
  9
$DIMTXT
 40
0.25
  9
$DIMCEN
 40
2.5
  9
$DIMTSZ
 40
0.0
  9
$DIMTOL
 70
0
  9
$DIMLIM
 70
0
  9
$DIMTIH
 70
0
  9
$DIMTOH
 70
0
  9
$DIMSE1
 70
0
  9
$DIMSE2
 70
0
  9
$DIMTAD
 70
1
  9
$DIMZIN
 70
12
  9
$DIMBLK
  1
ARCHTICK
  9
$DIMASO
 70
1
  9
$DIMSHO
 70
1
  9
$DIMPOST
  1

  9
$DIMAPOST
  1

  9
$DIMALT
 70
0
  9
$DIMALTD
 70
3
  9
$DIMALTF
 40
0.03937007874
  9
$DIMLFAC
 40
100.0
  9
$DIMTOFL
 70
1
  9
$DIMTVP
 40
0.0
  9
$DIMTIX
 70
0
  9
$DIMSOXD
 70
0
  9
$DIMSAH
 70
0
  9
$DIMBLK1
  1

  9
$DIMBLK2
  1

  9
$DIMSTYLE
  2
EZDXF
  9
$DIMCLRD
 70
0
  9
$DIMCLRE
 70
0
  9
$DIMCLRT
 70
0
  9
$DIMTFAC
 40
0.5
  9
$DIMGAP
 40
0.1
  9
$DIMJUST
 70
0
  9
$DIMSD1
 70
0
  9
$DIMSD2
 70
0
  9
$DIMTOLJ
 70
0
  9
$DIMTZIN
 70
8
  9
$DIMALTZ
 70
0
  9
$DIMALTTZ
 70
0
  9
$DIMUPT
 70
1
  9
$DIMDEC
 70
2
  9
$DIMTDEC
 70
2
  9
$DIMALTU
 70
2
  9
$DIMALTTD
 70
3
  9
$DIMTXSTY
  7
OpenSansCondensed-Light
  9
$DIMAUNIT
 70
0
  9
$DIMADEC
 70
2
  9
$DIMALTRND
 40
0.0
  9
$DIMAZIN
 70
3
  9
$DIMDSEP
 70
46
  9
$DIMATFIT
 70
3
  9
$DIMFRAC
 70
0
  9
$DIMLDRBLK
  1

  9
$DIMLUNIT
 70
2
  9
$DIMLWD
 70
-2
  9
$DIMLWE
 70
-2
  9
$DIMTMOVE
 70
2
  9
$DIMFXL
 40
1.0
  9
$DIMFXLON
 70
0
  9
$DIMJOGANG
 40
0.785398163397
  9
$DIMTFILL
 70
0
  9
$DIMTFILLCLR
 70
0
  9
$DIMARCSYM
 70
0
  9
$DIMLTYPE
  6

  9
$DIMLTEX1
  6

  9
$DIMLTEX2
  6

  9
$LUNITS
 70
2
  9
$LUPREC
 70
4
  9
$SKETCHINC
 40
1.0
  9
$FILLETRAD
 40
10.0
  9
$AUNITS
 70
0
  9
$AUPREC
 70
2
  9
$MENU
  1
.
  9
$ELEVATION
 40
0.0
  9
$PELEVATION
 40
0.0
  9
$THICKNESS
 40
0.0
  9
$LIMCHECK
 70
0
  9
$CHAMFERA
 40
0.0
  9
$CHAMFERB
 40
0.0
  9
$CHAMFERC
 40
0.0
  9
$CHAMFERD
 40
0.0
  9
$SKPOLY
 70
0
  9
$TDCREATE
 40
2461048.088460648
  9
$TDUCREATE
 40
2458532.153996898
  9
$TDUPDATE
 40
2461048.088460648
  9
$TDUUPDATE
 40
2458532.1544311
  9
$TDINDWG
 40
0.0
  9
$TDUSRTIMER
 40
0.0
  9
$USRTIMER
 70
1
  9
$ANGBASE
 50
0.0
  9
$ANGDIR
 70
0
  9
$PDMODE
 70
0
  9
$PDSIZE
 40
0.0
  9
$PLINEWID
 40
0.0
  9
$SPLFRAME
 70
0
  9
$SPLINETYPE
 70
6
  9
$SPLINESEGS
 70
8
  9
$HANDSEED
  5
BC
  9
$SURFTAB1
 70
6
  9
$SURFTAB2
 70
6
  9
$SURFTYPE
 70
6
  9
$SURFU
 70
6
  9
$SURFV
 70
6
  9
$UCSBASE
  2

  9
$UCSNAME
  2

  9
$UCSORG
 10
0.0
 20
0.0
 30
0.0
  9
$UCSXDIR
 10
1.0
 20
0.0
 30
0.0
  9
$UCSYDIR
 10
0.0
 20
1.0
 30
0.0
  9
$UCSORTHOREF
  2

  9
$UCSORTHOVIEW
 70
0
  9
$UCSORGTOP
 10
0.0
 20
0.0
 30
0.0
  9
$UCSORGBOTTOM
 10
0.0
 20
0.0
 30
0.0
  9
$UCSORGLEFT
 10
0.0
 20
0.0
 30
0.0
  9
$UCSORGRIGHT
 10
0.0
 20
0.0
 30
0.0
  9
$UCSORGFRONT
 10
0.0
 20
0.0
 30
0.0
  9
$UCSORGBACK
 10
0.0
 20
0.0
 30
0.0
  9
$PUCSBASE
  2

  9
$PUCSNAME
  2

  9
$PUCSORG
 10
0.0
 20
0.0
 30
0.0
  9
$PUCSXDIR
 10
1.0
 20
0.0
 30
0.0
  9
$PUCSYDIR
 10
0.0
 20
1.0
 30
0.0
  9
$PUCSORTHOREF
  2

  9
$PUCSORTHOVIEW
 70
0
  9
$PUCSORGTOP
 10
0.0
 20
0.0
 30
0.0
  9
$PUCSORGBOTTOM
 10
0.0
 20
0.0
 30
0.0
  9
$PUCSORGLEFT
 10
0.0
 20
0.0
 30
0.0
  9
$PUCSORGRIGHT
 10
0.0
 20
0.0
 30
0.0
  9
$PUCSORGFRONT
 10
0.0
 20
0.0
 30
0.0
  9
$PUCSORGBACK
 10
0.0
 20
0.0
 30
0.0
  9
$USERI1
 70
0
  9
$USERI2
 70
0
  9
$USERI3
 70
0
  9
$USERI4
 70
0
  9
$USERI5
 70
0
  9
$USERR1
 40
0.0
  9
$USERR2
 40
0.0
  9
$USERR3
 40
0.0
  9
$USERR4
 40
0.0
  9
$USERR5
 40
0.0
  9
$WORLDVIEW
 70
1
  9
$SHADEDGE
 70
3
  9
$SHADEDIF
 70
70
  9
$TILEMODE
 70
1
  9
$MAXACTVP
 70
64
  9
$PINSBASE
 10
0.0
 20
0.0
 30
0.0
  9
$PLIMCHECK
 70
0
  9
$PEXTMIN
 10
1e+20
 20
1e+20
 30
1e+20
  9
$PEXTMAX
 10
-1e+20
 20
-1e+20
 30
-1e+20
  9
$PLIMMIN
 10
0.0
 20
0.0
  9
$PLIMMAX
 10
420.0
 20
297.0
  9
$UNITMODE
 70
0
  9
$VISRETAIN
 70
1
  9
$PLINEGEN
 70
0
  9
$PSLTSCALE
 70
1
  9
$TREEDEPTH
 70
3020
  9
$CMLSTYLE
  2
Standard
  9
$CMLJUST
 70
0
  9
$CMLSCALE
 40
20.0
  9
$PROXYGRAPHICS
 70
1
  9
$MEASUREMENT
 70
1
  9
$CELWEIGHT
370
-1
  9
$ENDCAPS
280
0
  9
$JOINSTYLE
280
0
  9
$LWDISPLAY
290
0
  9
$INSUNITS
 70
6
  9
$HYPERLINKBASE
  1

  9
$STYLESHEET
  1

  9
$XEDIT
290
1
  9
$CEPSNTYPE
380
0
  9
$PSTYLEMODE
290
1
  9
$FINGERPRINTGUID
  2
{BB3F73C8-0E4C-47A5-BF0D-31A77E231715}
  9
$VERSIONGUID
  2
{1CD71E1A-DB44-4742-AC6A-82F61779BEF3}
  9
$EXTNAMES
290
1
  9
$PSVPSCALE
 40
0.0
  9
$OLESTARTUP
290
0
  9
$SORTENTS
280
127
  9
$INDEXCTL
280
0
  9
$HIDETEXT
280
1
  9
$XCLIPFRAME
290
1
  9
$HALOGAP
280
0
  9
$OBSCOLOR
 70
257
  9
$OBSLTYPE
280
0
  9
$INTERSECTIONDISPLAY
280
0
  9
$INTERSECTIONCOLOR
 70
257
  9
$DIMASSOC
280
2
  9
$PROJECTNAME
  1

  9
$CAMERADISPLAY
290
0
  9
$LENSLENGTH
 40
50.0
  9
$CAMERAHEIGHT
 40
0.0
  9
$STEPSPERSEC
 40
24.0
  9
$STEPSIZE
 40
100.0
  9
$3DDWFPREC
 40
2.0
  9
$PSOLWIDTH
 40
0.005
  9
$PSOLHEIGHT
 40
0.08
  9
$LOFTANG1
 40
1.570796326795
  9
$LOFTANG2
 40
1.570796326795
  9
$LOFTMAG1
 40
0.0
  9
$LOFTMAG2
 40
0.0
  9
$LOFTPARAM
 70
7
  9
$LOFTNORMALS
280
1
  9
$LATITUDE
 40
37.795
  9
$LONGITUDE
 40
-122.394
  9
$NORTHDIRECTION
 40
0.0
  9
$TIMEZONE
 70
-8000
  9
$LIGHTGLYPHDISPLAY
280
1
  9
$TILEMODELIGHTSYNCH
280
1
  9
$CMATERIAL
347
20
  9
$SOLIDHIST
280
0
  9
$SHOWHIST
280
1
  9
$DWFFRAME
280
2
  9
$DGNFRAME
280
2
  9
$REALWORLDSCALE
290
1
  9
$INTERFERECOLOR
 62
256
  9
$CSHADOW
280
0
  9
$SHADOWPLANELOCATION
 40
0.0
  0
ENDSEC
  0
SECTION
  2
CLASSES
  0
CLASS
  1
ACDBDICTIONARYWDFLT
  2
AcDbDictionaryWithDefault
  3
ObjectDBX Classes
 90
0
 91
0
280
0
281
0
  0
CLASS
  1
SUN
  2
AcDbSun
  3
SCENEOE
 90
1153
 91
0
280
0
281
0
  0
CLASS
  1
VISUALSTYLE
  2
AcDbVisualStyle
  3
ObjectDBX Classes
 90
4095
 91
0
280
0
281
0
  0
CLASS
  1
MATERIAL
  2
AcDbMaterial
  3
ObjectDBX Classes
 90
1153
 91
0
280
0
281
0
  0
CLASS
  1
SCALE
  2
AcDbScale
  3
ObjectDBX Classes
 90
1153
 91
0
280
0
281
0
  0
CLASS
  1
TABLESTYLE
  2
AcDbTableStyle
  3
ObjectDBX Classes
 90
4095
 91
0
280
0
281
0
  0
CLASS
  1
MLEADERSTYLE
  2
AcDbMLeaderStyle
  3
ACDB_MLEADERSTYLE_CLASS
 90
4095
 91
0
280
0
281
0
  0
CLASS
  1
DICTIONARYVAR
  2
AcDbDictionaryVar
  3
ObjectDBX Classes
 90
0
 91
0
280
0
281
0
  0
CLASS
  1
CELLSTYLEMAP
  2
AcDbCellStyleMap
  3
ObjectDBX Classes
 90
1152
 91
0
280
0
281
0
  0
CLASS
  1
MENTALRAYRENDERSETTINGS
  2
AcDbMentalRayRenderSettings
  3
SCENEOE
 90
1024
 91
0
280
0
281
0
  0
CLASS
  1
ACDBDETAILVIEWSTYLE
  2
AcDbDetailViewStyle
  3
ObjectDBX Classes
 90
1025
 91
0
280
0
281
0
  0
CLASS
  1
ACDBSECTIONVIEWSTYLE
  2
AcDbSectionViewStyle
  3
ObjectDBX Classes
 90
1025
 91
0
280
0
281
0
  0
CLASS
  1
RASTERVARIABLES
  2
AcDbRasterVariables
  3
ISM
 90
0
 91
0
280
0
281
0
  0
CLASS
  1
ACDBPLACEHOLDER
  2
AcDbPlaceHolder
  3
ObjectDBX Classes
 90
0
 91
0
280
0
281
0
  0
CLASS
  1
LAYOUT
  2
AcDbLayout
  3
ObjectDBX Classes
 90
0
 91
0
280
0
281
0
  0
ENDSEC
  0
SECTION
  2
TABLES
  0
TABLE
  2
VPORT
  5
8
330
0
100
AcDbSymbolTable
 70
1
  0
VPORT
  5
23
330
8
100
AcDbSymbolTableRecord
100
AcDbViewportTableRecord
  2
*Active
 70
0
 10
0.0
 20
0.0
 11
1.0
 21
1.0
 12
0.0
 22
0.0
 13
0.0
 23
0.0
 14
0.5
 24
0.5
 15
0.5
 25
0.5
 16
0.0
 26
0.0
 36
1.0
 17
0.0
 27
0.0
 37
0.0
 40
1000.0
 41
1.34
 42
50.0
 43
0.0
 44
0.0
 50
0.0
 51
0.0
 71
0
 72
1000
 73
1
 74
3
 75
0
 76
0
 77
0
 78
0
281
0
 65
0
146
0.0
  0
ENDTAB
  0
TABLE
  2
LTYPE
  5
2
330
0
100
AcDbSymbolTable
 70
21
  0
LTYPE
  5
24
330
2
100
AcDbSymbolTableRecord
100
AcDbLinetypeTableRecord
  2
ByBlock
 70
0
  3

 72
65
 73
0
 40
0.0
  0
LTYPE
  5
25
330
2
100
AcDbSymbolTableRecord
100
AcDbLinetypeTableRecord
  2
ByLayer
 70
0
  3

 72
65
 73
0
 40
0.0
  0
LTYPE
  5
26
330
2
100
AcDbSymbolTableRecord
100
AcDbLinetypeTableRecord
  2
Continuous
 70
0
  3

 72
65
 73
0
 40
0.0
  0
LTYPE
  5
2F
330
2
100
AcDbSymbolTableRecord
100
AcDbLinetypeTableRecord
  2
CENTER
 70
0
  3
Center ____ _ ____ _ ____ _ ____ _ ____ _ ____
 72
65
 73
4
 40
5.08
 49
3.175
 74
0
 49
-0.635
 74
0
 49
0.635
 74
0
 49
-0.635
 74
0
  0
LTYPE
  5
30
330
2
100
AcDbSymbolTableRecord
100
AcDbLinetypeTableRecord
  2
CENTERX2
 70
0
  3
Center (2x) ________  __  ________  __  ________
 72
65
 73
4
 40
8.89
 49
6.35
 74
0
 49
-0.635
 74
0
 49
1.27
 74
0
 49
-0.635
 74
0
  0
LTYPE
  5
31
330
2
100
AcDbSymbolTableRecord
100
AcDbLinetypeTableRecord
  2
CENTER2
 70
0
  3
Center (.5x) ____ _ ____ _ ____ _ ____ _ ____
 72
65
 73
4
 40
2.54
 49
1.587
 74
0
 49
-0.318
 74
0
 49
0.318
 74
0
 49
-0.318
 74
0
  0
LTYPE
  5
32
330
2
100
AcDbSymbolTableRecord
100
AcDbLinetypeTableRecord
  2
DASHED
 70
0
  3
Dashed __ __ __ __ __ __ __ __ __ __ __ __ __ _
 72
65
 73
2
 40
1.524
 49
1.27
 74
0
 49
-0.254
 74
0
  0
LTYPE
  5
33
330
2
100
AcDbSymbolTableRecord
100
AcDbLinetypeTableRecord
  2
DASHEDX2
 70
0
  3
Dashed (2x) ____  ____  ____  ____  ____  ____
 72
65
 73
2
 40
3.048
 49
2.54
 74
0
 49
-0.508
 74
0
  0
LTYPE
  5
34
330
2
100
AcDbSymbolTableRecord
100
AcDbLinetypeTableRecord
  2
DASHED2
 70
0
  3
Dashed (.5x) _ _ _ _ _ _ _ _ _ _ _ _ _ _
 72
65
 73
2
 40
0.762
 49
0.635
 74
0
 49
-0.127
 74
0
  0
LTYPE
  5
35
330
2
100
AcDbSymbolTableRecord
100
AcDbLinetypeTableRecord
  2
PHANTOM
 70
0
  3
Phantom ______  __  __  ______  __  __  ______
 72
65
 73
6
 40
6.35
 49
3.175
 74
0
 49
-0.635
 74
0
 49
0.635
 74
0
 49
-0.635
 74
0
 49
0.635
 74
0
 49
-0.635
 74
0
  0
LTYPE
  5
36
330
2
100
AcDbSymbolTableRecord
100
AcDbLinetypeTableRecord
  2
PHANTOMX2
 70
0
  3
Phantom (2x)____________    ____    ____    ____________
 72
65
 73
6
 40
10.795
 49
6.35
 74
0
 49
-0.635
 74
0
 49
1.27
 74
0
 49
-0.635
 74
0
 49
1.27
 74
0
 49
-0.635
 74
0
  0
LTYPE
  5
37
330
2
100
AcDbSymbolTableRecord
100
AcDbLinetypeTableRecord
  2
PHANTOM2
 70
0
  3
Phantom (.5x) ___ _ _ ___ _ _ ___ _ _ ___ _ _ ___
 72
65
 73
6
 40
3.175
 49
1.587
 74
0
 49
-0.318
 74
0
 49
0.318
 74
0
 49
-0.318
 74
0
 49
0.318
 74
0
 49
-0.318
 74
0
  0
LTYPE
  5
38
330
2
100
AcDbSymbolTableRecord
100
AcDbLinetypeTableRecord
  2
DASHDOT
 70
0
  3
Dash dot __ . __ . __ . __ . __ . __ . __ . __
 72
65
 73
4
 40
3.556
 49
2.54
 74
0
 49
-0.508
 74
0
 49
0.0
 74
0
 49
-0.508
 74
0
  0
LTYPE
  5
39
330
2
100
AcDbSymbolTableRecord
100
AcDbLinetypeTableRecord
  2
DASHDOTX2
 70
0
  3
Dash dot (2x) ____  .  ____  .  ____  .  ____
 72
65
 73
4
 40
6.096
 49
5.08
 74
0
 49
-0.508
 74
0
 49
0.0
 74
0
 49
-0.508
 74
0
  0
LTYPE
  5
3A
330
2
100
AcDbSymbolTableRecord
100
AcDbLinetypeTableRecord
  2
DASHDOT2
 70
0
  3
Dash dot (.5x) _ . _ . _ . _ . _ . _ . _ . _
 72
65
 73
4
 40
1.778
 49
1.27
 74
0
 49
-0.254
 74
0
 49
0.0
 74
0
 49
-0.254
 74
0
  0
LTYPE
  5
3B
330
2
100
AcDbSymbolTableRecord
100
AcDbLinetypeTableRecord
  2
DOT
 70
0
  3
Dot .  .  .  .  .  .  .  .  .  .  .  .  .  .  .  .
 72
65
 73
2
 40
0.508
 49
0.0
 74
0
 49
-0.508
 74
0
  0
LTYPE
  5
3C
330
2
100
AcDbSymbolTableRecord
100
AcDbLinetypeTableRecord
  2
DOTX2
 70
0
  3
Dot (2x) .    .    .    .    .    .    .    . 
 72
65
 73
2
 40
1.016
 49
0.0
 74
0
 49
-1.016
 74
0
  0
LTYPE
  5
3D
330
2
100
AcDbSymbolTableRecord
100
AcDbLinetypeTableRecord
  2
DOT2
 70
0
  3
Dot (.5) . . . . . . . . . . . . . . . . . . . 
 72
65
 73
2
 40
0.254
 49
0.0
 74
0
 49
-0.254
 74
0
  0
LTYPE
  5
3E
330
2
100
AcDbSymbolTableRecord
100
AcDbLinetypeTableRecord
  2
DIVIDE
 70
0
  3
Divide __ . . __ . . __ . . __ . . __ . . __
 72
65
 73
6
 40
4.064
 49
2.54
 74
0
 49
-0.508
 74
0
 49
0.0
 74
0
 49
-0.508
 74
0
 49
0.0
 74
0
 49
-0.508
 74
0
  0
LTYPE
  5
3F
330
2
100
AcDbSymbolTableRecord
100
AcDbLinetypeTableRecord
  2
DIVIDEX2
 70
0
  3
Divide (2x) ____  . .  ____  . .  ____  . .  ____
 72
65
 73
6
 40
6.604
 49
5.08
 74
0
 49
-0.508
 74
0
 49
0.0
 74
0
 49
-0.508
 74
0
 49
0.0
 74
0
 49
-0.508
 74
0
  0
LTYPE
  5
40
330
2
100
AcDbSymbolTableRecord
100
AcDbLinetypeTableRecord
  2
DIVIDE2
 70
0
  3
Divide(.5x) _ . _ . _ . _ . _ . _ . _ . _
 72
65
 73
6
 40
2.032
 49
1.27
 74
0
 49
-0.254
 74
0
 49
0.0
 74
0
 49
-0.254
 74
0
 49
0.0
 74
0
 49
-0.254
 74
0
  0
ENDTAB
  0
TABLE
  2
LAYER
  5
1
330
0
100
AcDbSymbolTable
 70
4
  0
LAYER
  5
27
330
1
100
AcDbSymbolTableRecord
100
AcDbLayerTableRecord
  2
0
 70
0
 62
7
  6
Continuous
370
-3
390
13
347
21
  0
LAYER
  5
28
330
1
100
AcDbSymbolTableRecord
100
AcDbLayerTableRecord
  2
Defpoints
 70
0
 62
7
  6
Continuous
290
0
370
-3
390
13
347
21
  0
LAYER
  5
8A
330
1
100
AcDbSymbolTableRecord
100
AcDbLayerTableRecord
  2
Layer
 70
0
 62
1
  6
Continuous
370
50
390
13
347
21
  0
LAYER
  5
8B
330
1
100
AcDbSymbolTableRecord
100
AcDbLayerTableRecord
  2
NumLabel
 70
0
 62
1
  6
Continuous
370
15
390
13
347
21
  0
ENDTAB
  0
TABLE
  2
STYLE
  5
5
330
0
100
AcDbSymbolTable
 70
26
  0
STYLE
  5
29
330
5
100
AcDbSymbolTableRecord
100
AcDbTextStyleTableRecord
  2
Standard
 70
0
 40
0.0
 41
1.0
 50
0.0
 71
0
 42
2.5
  3
txt
  4

  0
STYLE
  5
41
330
5
100
AcDbSymbolTableRecord
100
AcDbTextStyleTableRecord
  2
OpenSans-Light
 70
0
 40
0.0
 41
1.0
 50
0.0
 71
0
 42
2.5
  3
OpenSans-Light.ttf
  4

  0
STYLE
  5
42
330
5
100
AcDbSymbolTableRecord
100
AcDbTextStyleTableRecord
  2
OpenSans-Light-Italic
 70
0
 40
0.0
 41
1.0
 50
0.0
 71
0
 42
2.5
  3
OpenSans-LightItalic.ttf
  4

  0
STYLE
  5
43
330
5
100
AcDbSymbolTableRecord
100
AcDbTextStyleTableRecord
  2
OpenSans
 70
0
 40
0.0
 41
1.0
 50
0.0
 71
0
 42
2.5
  3
OpenSans-Regular.ttf
  4

  0
STYLE
  5
44
330
5
100
AcDbSymbolTableRecord
100
AcDbTextStyleTableRecord
  2
OpenSans-Italic
 70
0
 40
0.0
 41
1.0
 50
0.0
 71
0
 42
2.5
  3
OpenSans-Italic.ttf
  4

  0
STYLE
  5
45
330
5
100
AcDbSymbolTableRecord
100
AcDbTextStyleTableRecord
  2
OpenSans-SemiBold
 70
0
 40
0.0
 41
1.0
 50
0.0
 71
0
 42
2.5
  3
OpenSans-SemiBold.ttf
  4

  0
STYLE
  5
46
330
5
100
AcDbSymbolTableRecord
100
AcDbTextStyleTableRecord
  2
OpenSans-SemiBoldItalic
 70
0
 40
0.0
 41
1.0
 50
0.0
 71
0
 42
2.5
  3
OpenSans-SemiBoldItalic.ttf
  4

  0
STYLE
  5
47
330
5
100
AcDbSymbolTableRecord
100
AcDbTextStyleTableRecord
  2
OpenSans-Bold
 70
0
 40
0.0
 41
1.0
 50
0.0
 71
0
 42
2.5
  3
OpenSans-Bold.ttf
  4

  0
STYLE
  5
48
330
5
100
AcDbSymbolTableRecord
100
AcDbTextStyleTableRecord
  2
OpenSans-BoldItalic
 70
0
 40
0.0
 41
1.0
 50
0.0
 71
0
 42
2.5
  3
OpenSans-BoldItalic.ttf
  4

  0
STYLE
  5
49
330
5
100
AcDbSymbolTableRecord
100
AcDbTextStyleTableRecord
  2
OpenSans-ExtraBold
 70
0
 40
0.0
 41
1.0
 50
0.0
 71
0
 42
2.5
  3
OpenSans-ExtraBold.ttf
  4

  0
STYLE
  5
4A
330
5
100
AcDbSymbolTableRecord
100
AcDbTextStyleTableRecord
  2
OpenSans-ExtraBoldItalic
 70
0
 40
0.0
 41
1.0
 50
0.0
 71
0
 42
2.5
  3
OpenSans-ExtraBoldItalic.ttf
  4

  0
STYLE
  5
4B
330
5
100
AcDbSymbolTableRecord
100
AcDbTextStyleTableRecord
  2
OpenSansCondensed-Bold
 70
0
 40
0.0
 41
1.0
 50
0.0
 71
0
 42
2.5
  3
OpenSansCondensed-Bold.ttf
  4

  0
STYLE
  5
4C
330
5
100
AcDbSymbolTableRecord
100
AcDbTextStyleTableRecord
  2
OpenSansCondensed-Light
 70
0
 40
0.0
 41
1.0
 50
0.0
 71
0
 42
2.5
  3
OpenSansCondensed-Light.ttf
  4

  0
STYLE
  5
4D
330
5
100
AcDbSymbolTableRecord
100
AcDbTextStyleTableRecord
  2
OpenSansCondensed-Italic
 70
0
 40
0.0
 41
1.0
 50
0.0
 71
0
 42
2.5
  3
OpenSansCondensed-LightItalic.ttf
  4

  0
STYLE
  5
4E
330
5
100
AcDbSymbolTableRecord
100
AcDbTextStyleTableRecord
  2
LiberationSans
 70
0
 40
0.0
 41
1.0
 50
0.0
 71
0
 42
2.5
  3
LiberationSans-Regular.ttf
  4

  0
STYLE
  5
4F
330
5
100
AcDbSymbolTableRecord
100
AcDbTextStyleTableRecord
  2
LiberationSans-Bold
 70
0
 40
0.0
 41
1.0
 50
0.0
 71
0
 42
2.5
  3
LiberationSans-Bold.ttf
  4

  0
STYLE
  5
50
330
5
100
AcDbSymbolTableRecord
100
AcDbTextStyleTableRecord
  2
LiberationSans-BoldItalic
 70
0
 40
0.0
 41
1.0
 50
0.0
 71
0
 42
2.5
  3
LiberationSans-BoldItalic.ttf
  4

  0
STYLE
  5
51
330
5
100
AcDbSymbolTableRecord
100
AcDbTextStyleTableRecord
  2
LiberationSans-Italic
 70
0
 40
0.0
 41
1.0
 50
0.0
 71
0
 42
2.5
  3
LiberationSans-Italic.ttf
  4

  0
STYLE
  5
52
330
5
100
AcDbSymbolTableRecord
100
AcDbTextStyleTableRecord
  2
LiberationSerif
 70
0
 40
0.0
 41
1.0
 50
0.0
 71
0
 42
2.5
  3
LiberationSerif-Regular.ttf
  4

  0
STYLE
  5
53
330
5
100
AcDbSymbolTableRecord
100
AcDbTextStyleTableRecord
  2
LiberationSerif-Bold
 70
0
 40
0.0
 41
1.0
 50
0.0
 71
0
 42
2.5
  3
LiberationSerif-Bold.ttf
  4

  0
STYLE
  5
54
330
5
100
AcDbSymbolTableRecord
100
AcDbTextStyleTableRecord
  2
LiberationSerif-BoldItalic
 70
0
 40
0.0
 41
1.0
 50
0.0
 71
0
 42
2.5
  3
LiberationSerif-BoldItalic.ttf
  4

  0
STYLE
  5
55
330
5
100
AcDbSymbolTableRecord
100
AcDbTextStyleTableRecord
  2
LiberationSerif-Italic
 70
0
 40
0.0
 41
1.0
 50
0.0
 71
0
 42
2.5
  3
LiberationSerif-Italic.ttf
  4

  0
STYLE
  5
56
330
5
100
AcDbSymbolTableRecord
100
AcDbTextStyleTableRecord
  2
LiberationMono
 70
0
 40
0.0
 41
1.0
 50
0.0
 71
0
 42
2.5
  3
LiberationMono-Regular.ttf
  4

  0
STYLE
  5
57
330
5
100
AcDbSymbolTableRecord
100
AcDbTextStyleTableRecord
  2
LiberationMono-Bold
 70
0
 40
0.0
 41
1.0
 50
0.0
 71
0
 42
2.5
  3
LiberationMono-Bold.ttf
  4

  0
STYLE
  5
58
330
5
100
AcDbSymbolTableRecord
100
AcDbTextStyleTableRecord
  2
LiberationMono-BoldItalic
 70
0
 40
0.0
 41
1.0
 50
0.0
 71
0
 42
2.5
  3
LiberationMono-BoldItalic.ttf
  4

  0
STYLE
  5
59
330
5
100
AcDbSymbolTableRecord
100
AcDbTextStyleTableRecord
  2
LiberationMono-Italic
 70
0
 40
0.0
 41
1.0
 50
0.0
 71
0
 42
2.5
  3
LiberationMono-Italic.ttf
  4

  0
ENDTAB
  0
TABLE
  2
VIEW
  5
7
330
0
100
AcDbSymbolTable
 70
0
  0
ENDTAB
  0
TABLE
  2
UCS
  5
6
330
0
100
AcDbSymbolTable
 70
0
  0
ENDTAB
  0
TABLE
  2
APPID
  5
3
330
0
100
AcDbSymbolTable
 70
3
  0
APPID
  5
2A
330
3
100
AcDbSymbolTableRecord
100
AcDbRegAppTableRecord
  2
ACAD
 70
0
  0
APPID
  5
B9
330
3
100
AcDbSymbolTableRecord
100
AcDbRegAppTableRecord
  2
HATCHBACKGROUNDCOLOR
 70
0
  0
APPID
  5
BA
330
3
100
AcDbSymbolTableRecord
100
AcDbRegAppTableRecord
  2
EZDXF
 70
0
  0
ENDTAB
  0
TABLE
  2
DIMSTYLE
  5
4
330
0
100
AcDbSymbolTable
 70
12
100
AcDbDimStyleTable
  0
DIMSTYLE
105
2B
330
4
100
AcDbSymbolTableRecord
100
AcDbDimStyleTableRecord
  2
Standard
 70
0
 40
1.0
 41
2.5
 42
0.625
 43
3.75
 44
1.25
 45
0.0
 46
0.0
 47
0.0
 48
0.0
 49
2.5
140
2.5
141
2.5
142
0.0
143
0.03937007874
144
1.0
145
0.0
146
1.0
147
0.625
148
0.0
 69
0
 70
0
 71
0
 72
0
 73
0
 74
0
 75
0
 76
0
 77
1
 78
8
 79
3
170
0
171
3
172
1
173
0
174
0
175
0
176
0
177
0
178
0
179
2
271
2
272
2
273
2
274
3
275
0
276
0
277
2
278
44
279
0
280
0
281
0
282
0
283
0
284
8
285
0
286
0
288
0
289
3
290
0
371
-2
372
-2
  0
DIMSTYLE
105
73
330
4
100
AcDbSymbolTableRecord
100
AcDbDimStyleTableRecord
  2
EZDXF
 70
0
 40
1.0
 41
0.175
 42
0.125
 43
3.75
 44
0.375
 45
0.0
 46
0.0
 47
0.0
 48
0.0
 49
2.5
140
0.25
141
2.5
142
0.0
143
0.03937007874
144
100.0
145
0.0
146
0.5
147
0.1
148
0.0
 69
0
 70
0
 71
0
 72
0
 73
0
 74
0
 75
0
 76
0
 77
1
 78
12
 79
3
170
0
171
3
172
1
173
0
174
0
175
0
176
0
177
0
178
0
179
2
271
2
272
2
273
2
274
3
275
0
276
0
277
2
278
46
279
2
280
0
281
0
282
0
283
0
284
8
285
0
286
0
288
1
289
3
290
0
340
4C
342
74
371
-2
372
-2
  0
DIMSTYLE
105
7C
330
4
100
AcDbSymbolTableRecord
100
AcDbDimStyleTableRecord
  2
EZ_M_100_H25_CM
 70
0
 40
1.0
 41
0.25
 42
0.125
 43
3.75
 44
0.375
 45
0.0
 46
0.0
 47
0.0
 48
0.0
 49
2.5
140
0.25
141
2.5
142
0.125
143
0.03937007874
144
100.0
145
0.0
146
0.5
147
0.1
148
0.0
 69
0
 70
0
 71
0
 72
0
 73
0
 74
0
 75
0
 76
0
 77
1
 78
12
 79
3
170
0
171
3
172
1
173
0
174
0
175
0
176
0
177
0
178
0
179
2
271
2
272
2
273
2
274
3
275
0
276
0
277
2
278
46
279
2
280
0
281
0
282
0
283
0
284
8
285
0
286
0
288
1
289
3
290
0
340
4C
371
-2
372
-2
  0
DIMSTYLE
105
7D
330
4
100
AcDbSymbolTableRecord
100
AcDbDimStyleTableRecord
  2
EZ_M_50_H25_CM
 70
0
 40
1.0
 41
0.125
 42
0.0625
 43
3.75
 44
0.1875
 45
0.0
 46
0.0
 47
0.0
 48
0.0
 49
2.5
140
0.125
141
2.5
142
0.0625
143
0.03937007874
144
100.0
145
0.0
146
0.5
147
0.05
148
0.0
 69
0
 70
0
 71
0
 72
0
 73
0
 74
0
 75
0
 76
0
 77
1
 78
12
 79
3
170
0
171
3
172
1
173
0
174
0
175
0
176
0
177
0
178
0
179
2
271
2
272
2
273
2
274
3
275
0
276
0
277
2
278
46
279
2
280
0
281
0
282
0
283
0
284
8
285
0
286
0
288
1
289
3
290
0
340
4C
371
-2
372
-2
  0
DIMSTYLE
105
7E
330
4
100
AcDbSymbolTableRecord
100
AcDbDimStyleTableRecord
  2
EZ_M_25_H25_CM
 70
0
 40
1.0
 41
0.0625
 42
0.03125
 43
3.75
 44
0.09375
 45
0.0
 46
0.0
 47
0.0
 48
0.0
 49
2.5
140
0.0625
141
2.5
142
0.03125
143
0.03937007874
144
100.0
145
0.0
146
0.5
147
0.025
148
0.0
 69
0
 70
0
 71
0
 72
0
 73
0
 74
0
 75
0
 76
0
 77
1
 78
12
 79
3
170
0
171
3
172
1
173
0
174
0
175
0
176
0
177
0
178
0
179
2
271
2
272
2
273
2
274
3
275
0
276
0
277
2
278
46
279
2
280
0
281
0
282
0
283
0
284
8
285
0
286
0
288
1
289
3
290
0
340
4C
371
-2
372
-2
  0
DIMSTYLE
105
7F
330
4
100
AcDbSymbolTableRecord
100
AcDbDimStyleTableRecord
  2
EZ_M_20_H25_CM
 70
0
 40
1.0
 41
0.05
 42
0.025
 43
3.75
 44
0.07500000000000001
 45
0.0
 46
0.0
 47
0.0
 48
0.0
 49
2.5
140
0.05
141
2.5
142
0.025
143
0.03937007874
144
100.0
145
0.0
146
0.5
147
0.020000000000000004
148
0.0
 69
0
 70
0
 71
0
 72
0
 73
0
 74
0
 75
0
 76
0
 77
1
 78
12
 79
3
170
0
171
3
172
1
173
0
174
0
175
0
176
0
177
0
178
0
179
2
271
2
272
2
273
2
274
3
275
0
276
0
277
2
278
46
279
2
280
0
281
0
282
0
283
0
284
8
285
0
286
0
288
1
289
3
290
0
340
4C
371
-2
372
-2
  0
DIMSTYLE
105
80
330
4
100
AcDbSymbolTableRecord
100
AcDbDimStyleTableRecord
  2
EZ_M_10_H25_CM
 70
0
 40
1.0
 41
0.025
 42
0.0125
 43
3.75
 44
0.037500000000000006
 45
0.0
 46
0.0
 47
0.0
 48
0.0
 49
2.5
140
0.025
141
2.5
142
0.0125
143
0.03937007874
144
100.0
145
0.0
146
0.5
147
0.010000000000000002
148
0.0
 69
0
 70
0
 71
0
 72
0
 73
0
 74
0
 75
0
 76
0
 77
1
 78
12
 79
3
170
0
171
3
172
1
173
0
174
0
175
0
176
0
177
0
178
0
179
2
271
2
272
2
273
2
274
3
275
0
276
0
277
2
278
46
279
2
280
0
281
0
282
0
283
0
284
8
285
0
286
0
288
1
289
3
290
0
340
4C
371
-2
372
-2
  0
DIMSTYLE
105
81
330
4
100
AcDbSymbolTableRecord
100
AcDbDimStyleTableRecord
  2
EZ_M_5_H25_CM
 70
0
 40
1.0
 41
0.0125
 42
0.00625
 43
3.75
 44
0.018750000000000003
 45
0.0
 46
0.0
 47
0.0
 48
0.0
 49
2.5
140
0.0125
141
2.5
142
0.00625
143
0.03937007874
144
100.0
145
0.0
146
0.5
147
0.005000000000000001
148
0.0
 69
0
 70
0
 71
0
 72
0
 73
0
 74
0
 75
0
 76
0
 77
1
 78
12
 79
3
170
0
171
3
172
1
173
0
174
0
175
0
176
0
177
0
178
0
179
2
271
2
272
2
273
2
274
3
275
0
276
0
277
2
278
46
279
2
280
0
281
0
282
0
283
0
284
8
285
0
286
0
288
1
289
3
290
0
340
4C
371
-2
372
-2
  0
DIMSTYLE
105
82
330
4
100
AcDbSymbolTableRecord
100
AcDbDimStyleTableRecord
  2
EZ_M_1_H25_CM
 70
0
 40
1.0
 41
0.0025
 42
0.00125
 43
3.75
 44
0.00375
 45
0.0
 46
0.0
 47
0.0
 48
0.0
 49
2.5
140
0.0025
141
2.5
142
0.00125
143
0.03937007874
144
100.0
145
0.0
146
0.5
147
0.001
148
0.0
 69
0
 70
0
 71
0
 72
0
 73
0
 74
0
 75
0
 76
0
 77
1
 78
12
 79
3
170
0
171
3
172
1
173
0
174
0
175
0
176
0
177
0
178
0
179
2
271
2
272
2
273
2
274
3
275
0
276
0
277
2
278
46
279
2
280
0
281
0
282
0
283
0
284
8
285
0
286
0
288
1
289
3
290
0
340
4C
371
-2
372
-2
  0
DIMSTYLE
105
83
330
4
100
AcDbSymbolTableRecord
100
AcDbDimStyleTableRecord
  2
EZ_RADIUS
 70
0
 40
1.0
 41
0.25
 42
0.125
 43
3.75
 44
0.375
 45
0.0
 46
0.0
 47
0.0
 48
0.0
 49
2.5
140
0.25
141
0.0
142
0.0
143
0.03937007874
144
100.0
145
0.0
146
0.5
147
0.1
148
0.0
 69
0
 70
0
 71
0
 72
0
 73
0
 74
0
 75
0
 76
0
 77
1
 78
12
 79
3
170
0
171
3
172
0
173
0
174
0
175
0
176
0
177
0
178
0
179
2
271
2
272
2
273
2
274
3
275
0
276
0
277
2
278
46
279
1
280
0
281
0
282
0
283
0
284
8
285
0
286
0
288
1
289
3
290
0
340
4C
342
84
371
-2
372
-2
  0
DIMSTYLE
105
88
330
4
100
AcDbSymbolTableRecord
100
AcDbDimStyleTableRecord
  2
EZ_RADIUS_INSIDE
 70
0
 40
1.0
 41
0.25
 42
0.125
 43
3.75
 44
0.375
 45
0.0
 46
0.0
 47
0.0
 48
0.0
 49
2.5
140
0.25
141
0.0
142
0.0
143
0.03937007874
144
100.0
145
0.0
146
0.5
147
0.1
148
0.0
 69
0
 70
0
 71
0
 72
0
 73
0
 74
0
 75
0
 76
0
 77
0
 78
12
 79
3
170
0
171
3
172
0
173
0
174
1
175
0
176
0
177
0
178
0
179
2
271
2
272
2
273
2
274
3
275
0
276
0
277
2
278
46
279
0
280
0
281
0
282
0
283
0
284
8
285
0
286
0
288
1
289
0
290
0
340
4C
342
84
371
-2
372
-2
  0
DIMSTYLE
105
89
330
4
100
AcDbSymbolTableRecord
100
AcDbDimStyleTableRecord
  2
EZ_CURVED
 70
0
 40
1.0
 41
0.25
 42
0.125
 43
3.75
 44
0.375
 45
0.0
 46
0.0
 47
0.0
 48
0.0
 49
2.5
140
0.25
141
2.5
142
0.0
143
0.03937007874
144
100.0
145
0.0
146
0.5
147
0.1
148
0.0
 69
0
 70
0
 71
0
 72
0
 73
0
 74
0
 75
0
 76
0
 77
1
 78
12
 79
2
 90
2
170
0
171
3
172
1
173
0
174
0
175
0
176
0
177
0
178
0
179
2
271
2
272
2
273
2
274
3
275
0
276
0
277
2
278
46
279
2
280
0
281
0
282
0
283
0
284
8
285
0
286
0
288
1
289
3
290
0
340
4C
371
-2
372
-2
  0
ENDTAB
  0
TABLE
  2
BLOCK_RECORD
  5
9
330
0
100
AcDbSymbolTable
 70
5
  0
BLOCK_RECORD
  5
17
330
9
100
AcDbSymbolTableRecord
100
AcDbBlockTableRecord
  2
*Model_Space
340
1A
 70
0
280
1
281
0
  0
BLOCK_RECORD
  5
1B
330
9
100
AcDbSymbolTableRecord
100
AcDbBlockTableRecord
  2
*Paper_Space
340
1E
 70
0
280
1
281
0
  0
BLOCK_RECORD
  5
74
330
9
100
AcDbSymbolTableRecord
100
AcDbBlockTableRecord
  2
_ARCHTICK
340
0
 70
0
280
1
281
0
  0
BLOCK_RECORD
  5
78
330
9
100
AcDbSymbolTableRecord
100
AcDbBlockTableRecord
  2
_CLOSEDFILLED
340
0
 70
0
280
1
281
0
  0
BLOCK_RECORD
  5
84
330
9
100
AcDbSymbolTableRecord
100
AcDbBlockTableRecord
  2
_CLOSEDBLANK
340
0
 70
0
280
1
281
0
  0
ENDTAB
  0
ENDSEC
  0
SECTION
  2
BLOCKS
  0
BLOCK
  5
18
330
17
100
AcDbEntity
  8
0
100
AcDbBlockBegin
  2
*Model_Space
 70
0
 10
0.0
 20
0.0
 30
0.0
  3
*Model_Space
  1

  0
ENDBLK
  5
19
330
17
100
AcDbEntity
  8
0
100
AcDbBlockEnd
  0
BLOCK
  5
1C
330
1B
100
AcDbEntity
  8
0
100
AcDbBlockBegin
  2
*Paper_Space
 70
0
 10
0.0
 20
0.0
 30
0.0
  3
*Paper_Space
  1

  0
ENDBLK
  5
1D
330
1B
100
AcDbEntity
  8
0
100
AcDbBlockEnd
  0
BLOCK
  5
75
330
74
100
AcDbEntity
  8
0
100
AcDbBlockBegin
  2
_ARCHTICK
 70
0
 10
0.0
 20
0.0
 30
0.0
  3
_ARCHTICK
  1

  0
LWPOLYLINE
  5
77
330
74
100
AcDbEntity
  8
0
  6
BYBLOCK
 62
0
100
AcDbPolyline
 90
2
 70
0
 43
0.15
 10
-0.5
 20
-0.5
 10
0.5
 20
0.5
  0
ENDBLK
  5
76
330
74
100
AcDbEntity
  8
0
100
AcDbBlockEnd
  0
BLOCK
  5
79
330
78
100
AcDbEntity
  8
0
100
AcDbBlockBegin
  2
_CLOSEDFILLED
 70
0
 10
0.0
 20
0.0
 30
0.0
  3
_CLOSEDFILLED
  1

  0
SOLID
  5
7B
330
78
100
AcDbEntity
  8
0
  6
BYBLOCK
 62
0
100
AcDbTrace
 10
-1.0
 20
0.16439898372402537
 30
0.0
 11
0.0
 21
0.0
 31
0.0
 12
-1.0
 22
-0.16439898372402537
 32
0.0
 13
-1.0
 23
-0.16439898372402537
 33
0.0
  0
ENDBLK
  5
7A
330
78
100
AcDbEntity
  8
0
100
AcDbBlockEnd
  0
BLOCK
  5
85
330
84
100
AcDbEntity
  8
0
100
AcDbBlockBegin
  2
_CLOSEDBLANK
 70
0
 10
0.0
 20
0.0
 30
0.0
  3
_CLOSEDBLANK
  1

  0
LWPOLYLINE
  5
87
330
84
100
AcDbEntity
  8
0
  6
BYBLOCK
 62
0
100
AcDbPolyline
 90
3
 70
1
 10
-1.0
 20
0.16439898372402537
 10
0.0
 20
0.0
 10
-1.0
 20
-0.16439898372402537
  0
ENDBLK
  5
86
330
84
100
AcDbEntity
  8
0
100
AcDbBlockEnd
  0
ENDSEC
  0
SECTION
  2
ENTITIES
  0
LWPOLYLINE
  5
8C
330
17
100
AcDbEntity
  8
Layer
100
AcDbPolyline
 90
261
 70
1
 10
607.7392950829587
 20
154.6733855299134
 10
605.2355580335168
 20
155.3734152831471
 10
601.1549757045789
 20
156.52100984020615
 10
596.726778146824
 20
157.78339470391595
 10
592.0037414834472
 20
159.13399162914052
 10
587.0198983686811
 20
160.56125077580825
 10
581.8224636197485
 20
162.06641339888859
 10
576.4556289740653
 20
163.64503225323364
 10
570.9575206315601
 20
165.28191091220455
 10
565.363619952423
 20
166.97075017449842
 10
559.6942888453799
 20
168.7054992401653
 10
553.9657216798637
 20
170.47382835228387
 10
548.1999839629015
 20
172.27023917684073
 10
542.407042166148
 20
174.0960304934402
 10
536.5895705005028
 20
175.94798441325622
 10
530.7524381183092
 20
177.81351925228913
 10
524.9022210921869
 20
179.68260290137044
 10
519.0523925789422
 20
181.5612422377855
 10
513.2012290347193
 20
183.44458236280428
 10
507.3569239742348
 20
185.3240224795123
 10
501.5279131539984
 20
187.19677260504255
 10
495.71725837076843
 20
189.0626858310878
 10
489.9240605589988
 20
190.91897032440667
 10
484.14895050298264
 20
192.75412402896305
 10
478.3885349392522
 20
194.57291258432517
 10
472.6434998615222
 20
196.3772199323315
 10
466.9152212808157
 20
198.1557491354619
 10
461.2008379249918
 20
199.90806776986295
 10
460.0546686022153
 20
200.25534753616375
 10
459.7646950613703
 20
199.2983128734635
 10
455.2192135475325
 20
200.67557229852534
 10
449.5474504272113
 20
202.36584053177944
 10
443.8842305266601
 20
204.02177399265102
 10
438.2335173211849
 20
205.64474737764752
 10
432.5898636461769
 20
207.23103475107825
 10
426.9501313248034
 20
208.7838381683
 10
421.31828369071445
 20
210.30158054069122
 10
415.6922234295225
 20
211.78015850835715
 10
410.0646829512484
 20
213.21920399383745
 10
404.43266795130234
 20
214.6211104611962
 10
398.7950377175699
 20
215.98763419223692
 10
393.15614662688336
 20
217.32009194474134
 10
387.5175420526028
 20
218.61451064780198
 10
381.8752475217101
 20
219.87031338766445
 10
376.2289724360128
 20
221.08652419902995
 10
370.57156106256843
 20
222.26540341440165
 10
364.9149089488538
 20
223.41076403412734
 10
359.2574597610095
 20
224.51201204791408
 10
353.58605300543496
 20
225.57328858911944
 10
347.9064863501586
 20
226.6001443073172
 10
342.22585832607353
 20
227.59063869874163
 10
336.54214455849734
 20
228.54071093251
 10
330.8516738196367
 20
229.450546245159
 10
325.1530127642589
 20
230.32186122161744
 10
319.44758246823574
 20
231.15626896015266
 10
313.7376616744882
 20
231.95362687321284
 10
308.0225950462685
 20
232.71153998263924
 10
302.2961247046873
 20
233.43114104643325
 10
296.56488683544654
 20
234.11664585415522
 10
290.83237224050396
 20
234.76436853075296
 10
285.0961434782665
 20
235.37343213379233
 10
279.3575380475179
 20
235.94382629693138
 10
273.6153475202531
 20
236.4742034267927
 10
267.8667285558009
 20
236.9678060911021
 10
262.12416780460995
 20
237.42658584776416
 10
256.38339595241695
 20
237.84218693754303
 10
250.6411041739678
 20
238.22042133678966
 10
244.90796332914726
 20
238.55996365278187
 10
239.17940966118294
 20
238.85626653682897
 10
233.45285470845693
 20
239.11136809443394
 10
227.7336877783389
 20
239.32659689822174
 10
222.02196134419668
 20
239.4990964258142
 10
216.3166438995367
 20
239.6298680885064
 10
210.6224184382738
 20
239.72009406802988
 10
204.9439146271058
 20
239.7668623705568
 10
199.2787566442268
 20
239.7656438589965
 10
193.61999257573922
 20
239.7191635786258
 10
187.98223740594216
 20
239.6313591397742
 10
182.3593050739444
 20
239.49141051563862
 10
176.74955832185717
 20
239.30855983603013
 10
171.1652242379604
 20
239.0787832552345
 10
165.60118012436303
 20
238.80000749994431
 10
160.06592712078154
 20
238.472849929519
 10
154.5555112472731
 20
238.09198015055773
 10
149.07081992315875
 20
237.6598417533508
 10
143.61364784252223
 20
237.17631109795667
 10
138.19135667601665
 20
236.6438299481853
 10
132.80780355409914
 20
236.05698131612647
 10
127.46041951181518
 20
235.4160277775933
 10
122.15611132132
 20
234.7239290870324
 10
116.90198479820435
 20
233.98226451194785
 10
111.71120143517317
 20
233.19151460783237
 10
106.5881672455539
 20
232.3458278968825
 10
101.53163977744072
 20
231.4452979009861
 10
96.55482255662886
 20
230.49736733719448
 10
91.66322977581098
 20
229.49744441421961
 10
86.86151719775023
 20
228.4495739567696
 10
82.15445976834602
 20
227.35711413270255
 10
77.55458477251699
 20
226.2298696448217
 10
73.07708203178865
 20
225.06783607624638
 10
68.72406928374323
 20
223.87033392136337
 10
64.50081561069788
 20
222.63906588034982
 10
60.40486600567465
 20
221.37391982963032
 10
56.44122343894958
 20
220.07799743869688
 10
52.6010227519445
 20
218.74919433123625
 10
48.89950083818434
 20
217.40148972629393
 10
45.335256383084044
 20
216.0177661123324
 10
41.908348003448964
 20
214.60759494438093
 10
38.63238890771339
 20
213.16973828730684
 10
35.51118571091709
 20
211.70485085570678
 10
32.56689889007416
 20
210.22264452848088
 10
29.822651194071767
 20
208.7319900151271
 10
27.287912398701025
 20
207.23457859375182
 10
24.990216522023474
 20
205.77210378925574
 10
22.94462298134809
 20
204.35495599884197
 10
21.145032059261666
 20
202.99468387049868
 10
19.571905355539087
 20
201.69937912058995
 10
18.21571259063498
 20
200.4945450987183
 10
17.03201537936164
 20
199.3296051899917
 10
16.000690982675962
 20
198.2487656773997
 10
15.111879496207507
 20
197.23957419640672
 10
14.341211290465452
 20
196.27399231509818
 10
13.670342272476063
 20
195.35084543346485
 10
13.092461988140712
 20
194.48299162860803
 10
12.594758624869627
 20
193.6465840223038
 10
12.161665458025851
 20
192.83243817502967
 10
11.78886381818802
 20
192.06242894714097
 10
11.470920513414
 20
191.32119976958523
 10
11.199680767420574
 20
190.6006927088651
 10
10.972827053268645
 20
189.91970395209802
 10
10.785958988511766
 20
189.2538550761612
 10
10.634688732954487
 20
188.61812404838037
 10
10.527568778433164
 20
188.09767945664615
 10
10.475980868630614
 20
187.4594810312478
 10
10.446480792996425
 20
186.84940151385624
 10
10.442001606249704
 20
186.24723963853705
 10
10.475766163949999
 20
185.64668433707251
 10
10.560559954487587
 20
185.03308041962646
 10
10.706209429766659
 20
184.40062118453685
 10
10.918359181648015
 20
183.7519289671597
 10
11.205070965568666
 20
183.0874967574715
 10
11.576914466010038
 20
182.40552618268129
 10
12.04192698372185
 20
181.70686787952718
 10
12.604721758019224
 20
180.99589501514632
 10
13.27306569650284
 20
180.27689429200356
 10
14.060676795500996
 20
179.55270574041498
 10
14.991048676600911
 20
178.82190450013857
 10
16.089602370774514
 20
178.07879409665873
 10
17.363702896147288
 20
177.32063449131016
 10
18.821623708074497
 20
176.5541517065246
 10
20.50838863014974
 20
175.78950333453406
 10
22.46321348430618
 20
175.02490238021633
 10
24.683555062744404
 20
174.25247171511097
 10
27.135771353837868
 20
173.48324882089827
 10
29.814656272964044
 20
172.74824688435922
 10
32.701834437713956
 20
172.04457821506628
 10
35.73376008484098
 20
171.37410485839465
 10
38.89009052554891
 20
170.7527759683091
 10
42.17309915888606
 20
170.18053259313598
 10
45.588900300942896
 20
169.63680360124465
 10
49.09671397097813
 20
169.10069355864957
 10
52.653314887359926
 20
168.58534093446255
 10
56.29414659245643
 20
168.11756947643178
 10
60.06726633884199
 20
167.6781729992617
 10
63.948504915459154
 20
167.23808668684916
 10
67.92649515220538
 20
166.80445723681277
 10
72.0093375907181
 20
166.38663107504044
 10
76.21396124995098
 20
165.99150454469995
 10
80.56505378090364
 20
165.61765519185215
 10
85.07380582356134
 20
165.25720443046254
 10
89.74256416846004
 20
164.90749145541986
 10
94.56993717628748
 20
164.56683681768857
 10
99.54076167957061
 20
164.2381938169489
 10
104.6557088559183
 20
163.9310079502966
 10
109.90309400353775
 20
163.63739705862574
 10
115.28697164040685
 20
163.37475681956323
 10
120.80024024656859
 20
163.13260076426957
 10
126.42132986509306
 20
162.904461428558
 10
127.73426774391287
 20
162.85671269346443
 10
127.69792391537455
 20
161.85737334863347
 10
132.10206186354833
 20
161.69720088452806
 10
137.89676382024203
 20
161.50788135565637
 10
143.7544082331277
 20
161.33671553898114
 10
149.66663096344416
 20
161.1851660187455
 10
155.6322484781631
 20
161.0526024608663
 10
161.64551338844785
 20
160.93370299661376
 10
167.6884525043725
 20
160.82393146364006
 10
173.7448625185619
 20
160.724523403158
 10
179.81459478943222
 20
160.6389176443702
 10
185.90770874186046
 20
160.5660285166256
 10
192.02906017146688
 20
160.50104170494856
 10
198.1716173173205
 20
160.44066044178868
 10
204.32505451046504
 20
160.38363396914005
 10
210.4820527537383
 20
160.33004056027167
 10
216.63440507223345
 20
160.28172153094383
 10
222.78716683140942
 20
160.24330700558158
 10
228.95247142376965
 20
160.21482339016086
 10
235.1339167016656
 20
160.19202118511964
 10
241.32636986097398
 20
160.17309476223735
 10
247.52723112381597
 20
160.15753205605523
 10
253.73175579822112
 20
160.1432830401739
 10
259.9338339698537
 20
160.1273352747878
 10
266.1274903478439
 20
160.11246150916028
 10
272.3095189111465
 20
160.1044414705597
 10
278.4862373396756
 20
160.1066966520613
 10
284.6650574591758
 20
160.1175745679215
 10
290.8460046855217
 20
160.12970244681628
 10
297.0285222998659
 20
160.1375082555139
 10
303.21088218631036
 20
160.14209794261944
 10
309.39030381688326
 20
160.1502217157115
 10
315.568519274628
 20
160.16591897629348
 10
321.74649402417384
 20
160.18865995669364
 10
327.9205242556392
 20
160.21568094032278
 10
334.08557728460835
 20
160.24340866134204
 10
340.2454584091675
 20
160.2690263970236
 10
346.4054967957979
 20
160.2930871395001
 10
352.55707071978964
 20
160.31444828895644
 10
358.7051095095377
 20
160.33453964511153
 10
364.85652046468147
 20
160.3570894510832
 10
371.0076617005889
 20
160.38237200648805
 10
377.14464295429116
 20
160.4030669004996
 10
383.26279595750157
 20
160.4123700107574
 10
389.3700375394308
 20
160.41515557545898
 10
395.4692331236329
 20
160.4235909676549
 10
401.55817940290785
 20
160.4470817338741
 10
407.6487519058938
 20
160.48276653448173
 10
413.7448049554732
 20
160.5173727225048
 10
419.8415682052696
 20
160.538872152284
 10
425.9475688854949
 20
160.54609129905168
 10
432.06504347347914
 20
160.54640965325734
 10
438.17766567500973
 20
160.54575625399082
 10
444.26799979959605
 20
160.54458684334867
 10
450.33997260761134
 20
160.5323671175647
 10
456.4109281621834
 20
160.49665013335567
 10
462.4992146482173
 20
160.4432345551379
 10
468.59835843224835
 20
160.3861567219369
 10
474.68813014429395
 20
160.32895516492874
 10
480.7535398771144
 20
160.26190059637005
 10
486.8048894472407
 20
160.1761607035137
 10
492.85972066716397
 20
160.070486792395
 10
498.92302135851816
 20
159.95104337218163
 10
504.9781715214762
 20
159.82604195429633
 10
511.000916430032
 20
159.692517264218
 10
516.987680544006
 20
159.53447200030342
 10
522.9649627968686
 20
159.3457128734667
 10
528.9521515146437
 20
159.1394218698299
 10
534.9423892179102
 20
158.9251457353017
 10
540.9065683769024
 20
158.69765948916748
 10
546.8282690159044
 20
158.45241322884345
 10
552.7080571775693
 20
158.18353639731112
 10
558.5419918128914
 20
157.89748649789078
 10
564.313688241994
 20
157.59155879659318
 10
570.0066146507627
 20
157.26789038953783
 10
575.596205068943
 20
156.92731690100842
 10
581.0614371749002
 20
156.5649192956096
 10
586.3851851694669
 20
156.1818395011473
 10
591.5298662264471
 20
155.79530285947376
 10
596.433658738175
 20
155.41659714501537
 10
601.0305279456924
 20
155.0462347389498
 10
605.2614185195241
 20
154.6860737527076
 10
607.8528198498839
 20
154.4550726519709
  0
LWPOLYLINE
  5
8D
330
17
100
AcDbEntity
  8
Layer
100
AcDbPolyline
 90
5
 70
0
 10
401.6700862468708
 20
211.17490155544428
 10
397.78265422332083
 20
212.1171712951037
 10
398.72492396298026
 20
216.0046033186537
 10
402.61235598653025
 20
215.06233357899427
 10
401.6700862468708
 20
211.17490155544428
  0
LWPOLYLINE
  5
8E
330
17
100
AcDbEntity
  8
Layer
100
AcDbPolyline
 90
5
 70
0
 10
176.28955959060391
 20
235.28624107304503
 10
172.29294315237087
 20
235.12175081301254
 10
172.12845289233837
 20
239.1183672512456
 10
176.12506933057142
 20
239.28285751127808
 10
176.28955959060391
 20
235.28624107304503
  0
LWPOLYLINE
  5
8F
330
17
100
AcDbEntity
  8
Layer
100
AcDbPolyline
 90
5
 70
0
 10
74.54046870202193
 20
221.32182956230736
 10
70.68378399215233
 20
220.26070607813688
 10
69.62266050798185
 20
224.11739078800645
 10
73.47934521785145
 20
225.17851427217693
 10
74.54046870202193
 20
221.32182956230736
  0
LWPOLYLINE
  5
90
330
17
100
AcDbEntity
  8
Layer
100
AcDbPolyline
 90
5
 70
0
 10
23.741459969960072
 20
198.65520648390674
 10
22.198174952859144
 20
197.38309353452223
 10
19.01789257939784
 20
201.24130607727454
 10
20.56117759649877
 20
202.51341902665905
 10
23.741459969960072
 20
198.65520648390674
  0
LWPOLYLINE
  5
91
330
17
100
AcDbEntity
  8
Layer
100
AcDbPolyline
 90
5
 70
0
 10
17.232349250179396
 20
183.34078278568813
 10
18.891028611708514
 20
182.223293288808
 10
16.097304869508232
 20
178.07659488498524
 10
14.438625507979118
 20
179.19408438186537
 10
17.232349250179396
 20
183.34078278568813
  0
LWPOLYLINE
  5
92
330
17
100
AcDbEntity
  8
Layer
100
AcDbPolyline
 90
5
 70
0
 10
96.09544402006571
 20
168.47471850026545
 10
100.0867317974811
 20
168.21085892046108
 10
99.82287221767672
 20
164.2195711430457
 10
95.83158444026134
 20
164.48343072285007
 10
96.09544402006571
 20
168.47471850026545
  0
LINE
  5
93
330
17
100
AcDbEntity
  8
Layer
100
AcDbLine
 10
588.5383005946632
 20
160.12641496427705
 30
0.0
 11
588.280884486036
 21
159.16011431384817
 31
0.0
  0
LINE
  5
94
330
17
100
AcDbEntity
  8
Layer
100
AcDbLine
 10
587.9485886014954
 20
157.06698482162233
 30
0.0
 11
587.8940701733318
 21
156.06847205706168
 31
0.0
  0
LINE
  5
95
330
17
100
AcDbEntity
  8
Layer
100
AcDbLine
 10
569.3470810283616
 20
165.76811433043434
 30
0.0
 11
569.0773306220326
 21
164.80518405347485
 31
0.0
  0
LINE
  5
96
330
17
100
AcDbEntity
  8
Layer
100
AcDbLine
 10
567.9969618660845
 20
158.38375718812213
 30
0.0
 11
567.9367752900752
 21
157.38557004330994
 31
0.0
  0
LINE
  5
97
330
17
100
AcDbEntity
  8
Layer
100
AcDbLine
 10
493.06216793350814
 20
189.91344276485458
 30
0.0
 11
492.77104011608003
 21
188.95675859862232
 31
0.0
  0
LINE
  5
98
330
17
100
AcDbEntity
  8
Layer
100
AcDbLine
 10
488.01917380928944
 20
161.15478978780388
 30
0.0
 11
487.9760270203022
 21
160.155721044123
 31
0.0
  0
LWPOLYLINE
  5
99
330
17
100
AcDbEntity
  8
Layer
100
AcDbPolyline
 90
300
 70
1
 10
270.6890940366972
 20
200.0
 10
270.6818575020418
 20
200.69488701193146
 10
270.6601510935254
 20
201.38946718132033
 10
270.62398439608705
 20
202.08343380111702
 10
270.5733733799222
 20
202.77648043519818
 10
270.5083403934308
 20
203.46830105368028
 10
270.42891415334896
 20
204.15859016805373
 10
270.3351297320683
 20
204.84704296607808
 10
270.2270285421492
 20
205.53335544637844
 10
270.1046583180339
 20
206.21722455268397
 10
269.9680730949685
 20
206.89834830764906
 10
269.8173331851425
 20
207.5764259461979
 10
269.65250515105663
 20
208.25115804833402
 10
269.47366177613054
 20
208.92224667135557
 10
269.280882032564
 20
209.58939548141853
 10
269.0742510464648
 20
210.25230988438943
 10
268.85386006025954
 20
210.91069715592965
 10
268.61980639240335
 20
211.5642665707545
 10
268.3721933944072
 20
212.2127295310091
 10
268.11113040520036
 20
212.85579969370517
 10
267.83673270284964
 20
213.49319309716202
 10
267.54912145365586
 20
214.12462828639605
 10
267.2484236586499
 20
214.74982643740333
 10
266.93477209751325
 20
215.3685114802804
 10
266.6083052699455
 20
215.98041022112906
 10
266.2691673345074
 20
216.585252462691
 10
265.91750804496405
 20
217.18277112365928
 10
265.55348268415815
 20
217.7727023566141
 10
265.1772519954412
 20
218.35478566453025
 10
264.78898211169417
 20
218.92876401580526
 10
264.38884448196734
 20
219.49438395775735
 10
263.9770157957737
 20
220.05139572854299
 10
263.5536779050677
 20
220.59955336744474
 10
263.11901774394426
 20
221.1386148234805
 10
262.6732272460945
 20
221.66834206228654
 10
262.2165032600527
 20
222.1885011712266
 10
261.74904746227384
 20
222.6988624626812
 10
261.2710662680787
 20
223.1992005754714
 10
260.78277074050703
 20
223.6892945743716
 10
260.28437649711765
 20
224.1689280476686
 10
259.7761036147781
 20
224.63788920272287
 10
259.25817653248475
 20
225.0959709594901
 10
258.73082395225686
 20
225.54297104196203
 10
258.19427873814834
 20
225.9786920674858
 10
257.64877781342136
 20
226.40294163392264
 10
257.0945620559278
 20
226.81553240460707
 10
256.5318761917443
 20
227.21628219106967
 10
255.96096868710828
 20
227.6050140334863
 10
255.38209163870212
 20
227.9815562788186
 10
254.7955006623343
 20
228.34574265661115
 10
254.2014547800668
 20
228.69741235241176
 10
253.6002163058381
 20
229.03641007878267
 10
252.99205072963292
 20
229.3625861438711
 10
252.37722660024912
 20
229.67579651750896
 10
251.75601540671425
 20
229.97590289481244
 10
251.12869145840358
 20
230.26277275725366
 10
250.49553176391277
 20
230.53627943117712
 10
249.85681590873872
 20
230.79630214373512
 10
249.21282593182252
 20
231.04272607621775
 10
248.56384620100891
 20
231.2754424147535
 10
247.91016328747747
 20
231.49434839835857
 10
247.25206583920095
 20
231.69934736431298
 10
246.58984445348622
 20
231.8903487908444
 10
245.923791548655
 20
232.06726833709973
 10
245.25420123491986
 20
232.23002788038784
 10
244.58136918451365
 20
232.3785555506763
 10
243.90559250112878
 20
232.5127857623271
 10
243.2271695887248
 20
232.63265924305756
 10
242.5464000197614
 20
232.73812306011314
 10
241.8635844029158
 20
232.82913064364112
 10
241.17902425034237
 20
232.90564180725465
 10
240.4930218445333
 20
232.96762276577772
 10
239.80588010483928
 20
233.01504615016387
 10
239.1179024537087
 20
233.04789101958158
 10
238.42939268270493
 20
233.06614287066117
 10
237.74065481836055
 20
233.06979364389898
 10
237.05199298792763
 20
233.05884172721633
 10
236.36371128508392
 20
233.03329195667135
 10
235.67611363565348
 20
232.99315561432337
 10
234.9895036634016
 20
232.9384504232514
 10
234.30418455596313
 20
232.86920053972773
 10
233.62045893096348
 20
232.78543654255148
 10
232.93862870239096
 20
232.68719541954573
 10
232.25899494728017
 20
232.57452055122485
 10
231.58185777276492
 20
232.4474616916387
 10
230.9075161835593
 20
232.30607494640287
 10
230.23626794992558
 20
232.1504227479238
 10
229.56840947618736
 20
231.98057382783065
 10
228.90423566984563
 20
231.796603186625
 10
228.24403981135603
 20
231.59859206056305
 10
227.58811342462437
 20
231.38662788578384
 10
226.936746148278
 20
231.1608042596999
 10
226.29022560776937
 20
230.9212208996673
 10
225.6488372883689
 20
230.66798359895333
 10
225.0128644091026
 20
230.401204180021
 10
224.3825877976906
 20
230.12100044515165
 10
223.75828576654152
 20
229.8274961244265
 10
223.14023398985742
 20
229.52082082109104
 10
222.52870538190408
 20
229.20110995432603
 10
221.9239699764995
 20
228.86850469945
 10
221.32629480777473
 20
228.52315192558027
 10
220.73594379225904
 20
228.1652041307797
 10
220.15317761234184
 20
227.79481937471783
 10
219.57825360116257
 20
227.41216120887617
 10
219.01142562897988
 20
227.01739860432855
 10
218.4529439910694
 20
226.61070587712803
 10
217.9030552972005
 20
226.19226261133414
 10
217.3620023627404
 20
225.76225357971336
 10
216.83002410143374
 20
225.32086866214883
 10
216.30735541990487
 20
224.86830276179464
 10
215.79422711392988
 20
224.40475571901214
 10
215.29086576652347
 20
223.93043222312602
 10
214.7974936478865
 20
223.44554172203934
 10
214.31432861725756
 20
222.95029832974717
 10
213.8415840267125
 20
222.4449207317898
 10
213.37946862695424
 20
221.92963208868764
 10
212.92818647513423
 20
221.4046599373994
 10
212.48793684474657
 20
220.87023609084864
 10
212.05891413763453
 20
220.32659653556124
 10
211.64130779814806
 20
219.7739813274608
 10
211.23530222949063
 20
219.21263448586643
 10
210.8410767122918
 20
218.64280388574085
 10
210.45880532544206
 20
218.06474114823567
 10
210.08865686922448
 20
217.47870152958265
 10
209.73079479077722
 20
216.88494380837972
 10
209.38537711191992
 20
216.28373017132157
 10
209.0525563593756
 20
215.67532609742545
 10
208.73247949741932
 20
215.0600002408032
 10
208.4252878629828
 20
214.43802431203088
 10
208.131117103244
 20
213.80967295816936
 10
207.8500971157292
 20
213.17522364148766
 10
207.5823519909538
 20
212.53495651694357
 10
207.32799995762764
 20
211.889154308475
 10
207.08715333044827
 20
211.2381021841572
 10
206.85991846050618
 20
210.58208763028037
 10
206.646395688323
 20
209.9214003244039
 10
206.446679299544
 20
209.256332007443
 10
206.26085748330425
 20
208.58717635484402
 10
206.08901229328666
 20
207.9142288469056
 10
205.93121961148955
 20
207.23778663830302
 10
205.78754911471916
 20
206.558148426873
 10
205.6580642438223
 20
205.87561432171705
 10
205.5428221756729
 20
205.19048571068194
 10
205.44187379792402
 20
204.50306512727514
 10
205.35526368653746
 20
203.8136561170746
 10
205.2830300861002
 20
203.12256310369153
 10
205.2252048929368
 20
202.43009125434563
 10
205.1818136410247
 20
201.7365463451117
 10
205.1528754907192
 20
201.0422346258975
 10
205.13840322029284
 20
200.3474626852126
 10
205.13840322029284
 20
199.6525373147874
 10
205.1528754907192
 20
198.9577653741025
 10
205.1818136410247
 20
198.26345365488834
 10
205.2252048929368
 20
197.56990874565437
 10
205.2830300861002
 20
196.87743689630847
 10
205.35526368653746
 20
196.18634388292543
 10
205.44187379792402
 20
195.49693487272486
 10
205.5428221756729
 20
194.80951428931806
 10
205.6580642438223
 20
194.12438567828295
 10
205.78754911471916
 20
193.44185157312702
 10
205.93121961148955
 20
192.76221336169698
 10
206.08901229328666
 20
192.0857711530944
 10
206.26085748330425
 20
191.412823645156
 10
206.446679299544
 20
190.743667992557
 10
206.646395688323
 20
190.0785996755961
 10
206.85991846050618
 20
189.41791236971966
 10
207.08715333044827
 20
188.76189781584281
 10
207.32799995762764
 20
188.110845691525
 10
207.5823519909538
 20
187.46504348305643
 10
207.8500971157292
 20
186.82477635851234
 10
208.131117103244
 20
186.19032704183067
 10
208.4252878629828
 20
185.56197568796912
 10
208.73247949741932
 20
184.93999975919684
 10
209.0525563593756
 20
184.32467390257455
 10
209.38537711191992
 20
183.71626982867843
 10
209.73079479077722
 20
183.11505619162028
 10
210.0886568692245
 20
182.52129847041732
 10
210.45880532544206
 20
181.93525885176433
 10
210.8410767122918
 20
181.35719611425915
 10
211.23530222949063
 20
180.78736551413357
 10
211.64130779814806
 20
180.22601867253923
 10
212.05891413763453
 20
179.67340346443876
 10
212.48793684474657
 20
179.1297639091514
 10
212.92818647513423
 20
178.59534006260057
 10
213.37946862695424
 20
178.07036791131236
 10
213.8415840267125
 20
177.5550792682102
 10
214.31432861725756
 20
177.04970167025286
 10
214.79749364788648
 20
176.55445827796066
 10
215.29086576652347
 20
176.06956777687398
 10
215.79422711392988
 20
175.59524428098786
 10
216.3073554199049
 20
175.13169723820536
 10
216.83002410143374
 20
174.67913133785117
 10
217.36200236274038
 20
174.23774642028664
 10
217.90305529720047
 20
173.80773738866586
 10
218.45294399106936
 20
173.38929412287197
 10
219.01142562897988
 20
172.98260139567145
 10
219.57825360116257
 20
172.58783879112383
 10
220.15317761234184
 20
172.20518062528217
 10
220.73594379225906
 20
171.8347958692203
 10
221.32629480777473
 20
171.47684807441973
 10
221.9239699764995
 20
171.13149530055
 10
222.52870538190408
 20
170.79889004567397
 10
223.14023398985742
 20
170.47917917890896
 10
223.75828576654152
 20
170.1725038755735
 10
224.3825877976906
 20
169.87899955484835
 10
225.0128644091026
 20
169.598795819979
 10
225.6488372883689
 20
169.33201640104667
 10
226.29022560776937
 20
169.0787791003327
 10
226.936746148278
 20
168.8391957403001
 10
227.58811342462437
 20
168.6133721142162
 10
228.244039811356
 20
168.40140793943695
 10
228.90423566984563
 20
168.203396813375
 10
229.56840947618736
 20
168.01942617216935
 10
230.23626794992558
 20
167.8495772520762
 10
230.9075161835593
 20
167.69392505359713
 10
231.58185777276492
 20
167.5525383083613
 10
232.25899494728017
 20
167.42547944877515
 10
232.93862870239096
 20
167.31280458045427
 10
233.6204589309635
 20
167.21456345744852
 10
234.30418455596313
 20
167.13079946027227
 10
234.98950366340156
 20
167.0615495767486
 10
235.67611363565345
 20
167.00684438567663
 10
236.36371128508392
 20
166.96670804332865
 10
237.05199298792763
 20
166.94115827278367
 10
237.74065481836053
 20
166.93020635610102
 10
238.42939268270493
 20
166.93385712933883
 10
239.1179024537087
 20
166.95210898041842
 10
239.80588010483928
 20
166.98495384983613
 10
240.4930218445333
 20
167.03237723422228
 10
241.17902425034237
 20
167.09435819274535
 10
241.8635844029158
 20
167.17086935635888
 10
242.5464000197614
 20
167.26187693988686
 10
243.2271695887248
 20
167.36734075694244
 10
243.9055925011288
 20
167.4872142376729
 10
244.58136918451362
 20
167.6214444493237
 10
245.25420123491986
 20
167.76997211961213
 10
245.923791548655
 20
167.93273166290027
 10
246.58984445348622
 20
168.1096512091556
 10
247.25206583920092
 20
168.300652635687
 10
247.91016328747747
 20
168.50565160164143
 10
248.56384620100891
 20
168.7245575852465
 10
249.21282593182252
 20
168.95727392378225
 10
249.85681590873872
 20
169.20369785626488
 10
250.49553176391277
 20
169.46372056882288
 10
251.12869145840358
 20
169.73722724274634
 10
251.75601540671428
 20
170.02409710518756
 10
252.37722660024914
 20
170.32420348249104
 10
252.99205072963292
 20
170.6374138561289
 10
253.6002163058381
 20
170.96358992121733
 10
254.20145478006677
 20
171.30258764758824
 10
254.7955006623343
 20
171.65425734338885
 10
255.38209163870212
 20
172.0184437211814
 10
255.96096868710828
 20
172.3949859665137
 10
256.5318761917443
 20
172.78371780893033
 10
257.0945620559277
 20
173.18446759539293
 10
257.64877781342136
 20
173.59705836607736
 10
258.19427873814834
 20
174.0213079325142
 10
258.73082395225686
 20
174.45702895803797
 10
259.25817653248475
 20
174.9040290405099
 10
259.7761036147781
 20
175.36211079727713
 10
260.28437649711765
 20
175.8310719523314
 10
260.78277074050703
 20
176.3107054256284
 10
261.2710662680787
 20
176.8007994245286
 10
261.74904746227384
 20
177.3011375373188
 10
262.2165032600527
 20
177.8114988287734
 10
262.6732272460945
 20
178.33165793771346
 10
263.11901774394426
 20
178.8613851765195
 10
263.5536779050677
 20
179.40044663255526
 10
263.9770157957737
 20
179.94860427145701
 10
264.38884448196734
 20
180.50561604224265
 10
264.78898211169417
 20
181.07123598419471
 10
265.1772519954412
 20
181.64521433546975
 10
265.55348268415815
 20
182.2272976433859
 10
265.91750804496405
 20
182.81722887634072
 10
266.2691673345074
 20
183.414747537309
 10
266.6083052699455
 20
184.01958977887094
 10
266.93477209751325
 20
184.6314885197196
 10
267.2484236586499
 20
185.25017356259667
 10
267.54912145365586
 20
185.87537171360395
 10
267.83673270284964
 20
186.50680690283798
 10
268.11113040520036
 20
187.14420030629483
 10
268.3721933944072
 20
187.7872704689909
 10
268.61980639240335
 20
188.4357334292455
 10
268.8538600602595
 20
189.08930284407032
 10
269.0742510464648
 20
189.74769011561057
 10
269.280882032564
 20
190.41060451858144
 10
269.47366177613054
 20
191.07775332864443
 10
269.65250515105663
 20
191.74884195166598
 10
269.8173331851425
 20
192.4235740538021
 10
269.9680730949685
 20
193.10165169235097
 10
270.1046583180339
 20
193.78277544731606
 10
270.2270285421492
 20
194.4666445536216
 10
270.3351297320683
 20
195.15295703392192
 10
270.42891415334896
 20
195.84140983194627
 10
270.5083403934308
 20
196.5316989463197
 10
270.5733733799222
 20
197.2235195648018
 10
270.62398439608705
 20
197.91656619888298
 10
270.6601510935254
 20
198.61053281867967
 10
270.6818575020418
 20
199.30511298806852
 10
270.6890940366972
 20
200.0
  0
LINE
  5
9A
330
17
100
AcDbEntity
  8
Layer
 62
7
100
AcDbLine
 10
17.713204564412706
 20
200.00000000000003
 30
0.0
 11
460.8974228914012
 21
199.99999999999997
 31
0.0
  0
LINE
  5
9B
330
17
100
AcDbEntity
  8
Layer
 62
7
100
AcDbLine
 10
104.2500482298104
 20
200.00000000000003
 30
0.0
 11
116.2500482298104
 21
200.00000000000003
 31
0.0
  0
LWPOLYLINE
  5
9C
330
17
100
AcDbEntity
  8
Layer
100
AcDbPolyline
 90
5
 70
0
 10
110.2500482298104
 20
205.00000000000003
 10
115.2500482298104
 20
200.00000000000003
 10
110.2500482298104
 20
195.00000000000003
 10
105.2500482298104
 20
200.00000000000003
 10
110.2500482298104
 20
205.00000000000003
  0
LINE
  5
9D
330
17
100
AcDbEntity
  8
Layer
 62
7
100
AcDbLine
 10
233.30531372790693
 20
200.0
 30
0.0
 11
245.30531372790693
 21
200.0
 31
0.0
  0
LWPOLYLINE
  5
9E
330
17
100
AcDbEntity
  8
Layer
100
AcDbPolyline
 90
5
 70
0
 10
239.30531372790693
 20
205.0
 10
244.30531372790693
 20
200.0
 10
239.30531372790693
 20
195.0
 10
234.30531372790693
 20
200.0
 10
239.30531372790693
 20
205.0
  0
LINE
  5
9F
330
17
100
AcDbEntity
  8
Layer
 62
7
100
AcDbLine
 10
362.36057922600355
 20
199.99999999999997
 30
0.0
 11
374.36057922600355
 21
199.99999999999997
 31
0.0
  0
LWPOLYLINE
  5
A0
330
17
100
AcDbEntity
  8
Layer
100
AcDbPolyline
 90
5
 70
0
 10
368.36057922600355
 20
204.99999999999997
 10
373.36057922600355
 20
199.99999999999997
 10
368.36057922600355
 20
194.99999999999997
 10
363.36057922600355
 20
199.99999999999997
 10
368.36057922600355
 20
204.99999999999997
  0
LINE
  5
A1
330
17
100
AcDbEntity
  8
Layer
 62
7
100
AcDbLine
 10
10.490928587106879
 20
187.64440052946244
 30
0.0
 11
606.354056590867
 21
155.06068984368113
 31
0.0
  0
LINE
  5
A2
330
17
100
AcDbEntity
  8
Layer
 62
7
100
AcDbLine
 10
127.5666869303739
 20
181.24232183237046
 30
0.0
 11
139.54878554457383
 21
180.58710217486023
 31
0.0
  0
LWPOLYLINE
  5
A3
330
17
100
AcDbEntity
  8
Layer
100
AcDbPolyline
 90
5
 70
0
 10
133.83074442810315
 20
185.90725309286535
 10
138.55027732672386
 20
180.6417038129861
 10
133.2847280468446
 20
175.92217091436538
 10
128.5651951482239
 20
181.18772019424463
 10
133.83074442810315
 20
185.90725309286535
  0
LINE
  5
A4
330
17
100
AcDbEntity
  8
Layer
 62
7
100
AcDbLine
 10
273.28731722330144
 20
173.27384948483416
 30
0.0
 11
285.2694158375014
 21
172.61862982732393
 31
0.0
  0
LWPOLYLINE
  5
A5
330
17
100
AcDbEntity
  8
Layer
100
AcDbPolyline
 90
5
 70
0
 10
279.55137472103064
 20
177.938780745329
 10
284.2709076196514
 20
172.67323146544976
 10
279.00535833977216
 20
167.95369856682905
 10
274.2858254411514
 20
173.2192478467083
 10
279.55137472103064
 20
177.938780745329
  0
LINE
  5
A6
330
17
100
AcDbEntity
  8
Layer
100
AcDbLine
 10
237.91284403669727
 20
233.07024999999996
 30
0.0
 11
237.91284403669727
 21
234.07024999999996
 31
0.0
  0
LINE
  5
A7
330
17
100
AcDbEntity
  8
Layer
100
AcDbLine
 10
237.91284403669727
 20
166.92975000000004
 30
0.0
 11
237.91284403669727
 21
165.92975000000004
 31
0.0
  0
LINE
  5
A8
330
17
100
AcDbEntity
  8
Layer
100
AcDbLine
 10
270.6890940366972
 20
200.0
 30
0.0
 11
271.6890940366972
 21
200.0
 31
0.0
  0
LINE
  5
A9
330
17
100
AcDbEntity
  8
Layer
100
AcDbLine
 10
205.13659403669732
 20
200.0
 30
0.0
 11
204.13659403669732
 21
200.0
 31
0.0
  0
LINE
  5
AA
330
17
100
AcDbEntity
  8
Layer
 62
7
100
AcDbLine
 10
157.91284403669727
 20
161.0075085569502
 30
0.0
 11
157.91284403669727
 21
238.32403279898938
 31
0.0
  0
LINE
  5
AB
330
17
100
AcDbEntity
  8
Layer
 62
7
100
AcDbLine
 10
157.91284403669727
 20
184.0182920416639
 30
0.0
 11
157.91284403669727
 21
196.0182920416639
 31
0.0
  0
LWPOLYLINE
  5
AC
330
17
100
AcDbEntity
  8
Layer
100
AcDbPolyline
 90
5
 70
0
 10
152.91284403669727
 20
190.0182920416639
 10
157.91284403669727
 20
195.0182920416639
 10
162.91284403669727
 20
190.0182920416639
 10
157.91284403669727
 20
185.0182920416639
 10
152.91284403669727
 20
190.0182920416639
  0
LINE
  5
AD
330
17
100
AcDbEntity
  8
Layer
 62
7
100
AcDbLine
 10
157.91284403669727
 20
203.31324931427565
 30
0.0
 11
157.91284403669727
 21
215.31324931427565
 31
0.0
  0
LWPOLYLINE
  5
AE
330
17
100
AcDbEntity
  8
Layer
100
AcDbPolyline
 90
5
 70
0
 10
152.91284403669727
 20
209.31324931427565
 10
157.91284403669727
 20
214.31324931427565
 10
162.91284403669727
 20
209.31324931427565
 10
157.91284403669727
 20
204.31324931427565
 10
152.91284403669727
 20
209.31324931427565
  0
LINE
  5
AF
330
17
100
AcDbEntity
  8
Layer
 62
7
100
AcDbLine
 10
367.91284403669727
 20
160.36965161915595
 30
0.0
 11
367.91284403669727
 21
222.80374123670538
 31
0.0
  0
LINE
  5
B0
330
17
100
AcDbEntity
  8
Layer
 62
7
100
AcDbLine
 10
367.91284403669727
 20
178.17158298529824
 30
0.0
 11
367.91284403669727
 21
190.17158298529824
 31
0.0
  0
LWPOLYLINE
  5
B1
330
17
100
AcDbEntity
  8
Layer
100
AcDbPolyline
 90
5
 70
0
 10
362.91284403669727
 20
184.17158298529824
 10
367.91284403669727
 20
189.17158298529824
 10
372.91284403669727
 20
184.17158298529824
 10
367.91284403669727
 20
179.17158298529824
 10
362.91284403669727
 20
184.17158298529824
  0
LINE
  5
B2
330
17
100
AcDbEntity
  8
Layer
 62
7
100
AcDbLine
 10
367.91284403669727
 20
193.00180987056308
 30
0.0
 11
367.91284403669727
 21
205.00180987056308
 31
0.0
  0
LWPOLYLINE
  5
B3
330
17
100
AcDbEntity
  8
Layer
100
AcDbPolyline
 90
5
 70
0
 10
362.91284403669727
 20
199.00180987056308
 10
367.91284403669727
 20
204.00180987056308
 10
372.91284403669727
 20
199.00180987056308
 10
367.91284403669727
 20
194.00180987056308
 10
362.91284403669727
 20
199.00180987056308
  0
LWPOLYLINE
  5
B4
330
17
100
AcDbEntity
  8
NumLabel
 62
1
100
AcDbPolyline
 90
2
 70
0
 10
182.9357798165138
 20
180.01146788990826
 10
180.9357798165138
 20
180.01146788990826
  0
LWPOLYLINE
  5
B5
330
17
100
AcDbEntity
  8
NumLabel
 62
1
100
AcDbPolyline
 90
4
 70
0
 10
179.9357798165138
 20
180.01146788990826
 10
177.9357798165138
 20
180.01146788990826
 10
177.9357798165138
 20
170.01146788990826
 10
179.9357798165138
 20
170.01146788990826
  0
LWPOLYLINE
  5
B6
330
17
100
AcDbEntity
  8
NumLabel
 62
1
100
AcDbPolyline
 90
4
 70
0
 10
180.9357798165138
 20
170.01146788990826
 10
182.9357798165138
 20
170.01146788990826
 10
182.9357798165138
 20
175.01146788990826
 10
180.9357798165138
 20
175.01146788990826
  0
LWPOLYLINE
  5
B7
330
17
100
AcDbEntity
  8
NumLabel
 62
1
100
AcDbPolyline
 90
2
 70
0
 10
179.9357798165138
 20
175.01146788990826
 10
177.9357798165138
 20
175.01146788990826
  0
LWPOLYLINE
  5
B8
330
17
100
AcDbEntity
  8
NumLabel
 62
1
100
AcDbPolyline
 90
6
 70
0
 10
190.4357798165138
 20
180.01146788990826
 10
185.4357798165138
 20
180.01146788990826
 10
185.4357798165138
 20
175.01146788990826
 10
190.4357798165138
 20
175.01146788990826
 10
190.4357798165138
 20
170.01146788990826
 10
185.4357798165138
 20
170.01146788990826
  0
ENDSEC
  0
SECTION
  2
OBJECTS
  0
DICTIONARY
  5
A
330
0
100
AcDbDictionary
280
0
281
1
  3
ACAD_COLOR
350
B
  3
ACAD_GROUP
350
C
  3
ACAD_LAYOUT
350
D
  3
ACAD_MATERIAL
350
E
  3
ACAD_MLEADERSTYLE
350
F
  3
ACAD_MLINESTYLE
350
10
  3
ACAD_PLOTSETTINGS
350
11
  3
ACAD_PLOTSTYLENAME
350
12
  3
ACAD_SCALELIST
350
14
  3
ACAD_TABLESTYLE
350
15
  3
ACAD_VISUALSTYLE
350
16
  3
EZDXF_META
350
2D
  0
DICTIONARY
  5
B
330
A
100
AcDbDictionary
280
0
281
1
  0
DICTIONARY
  5
C
330
A
100
AcDbDictionary
280
0
281
1
  0
DICTIONARY
  5
D
330
A
100
AcDbDictionary
280
0
281
1
  3
Model
350
1A
  3
Layout1
350
1E
  0
DICTIONARY
  5
E
330
A
100
AcDbDictionary
280
0
281
1
  3
ByBlock
350
1F
  3
ByLayer
350
20
  3
Global
350
21
  0
DICTIONARY
  5
F
330
A
100
AcDbDictionary
280
0
281
1
  3
Standard
350
2C
  0
DICTIONARY
  5
10
330
A
100
AcDbDictionary
280
0
281
1
  3
Standard
350
22
  0
DICTIONARY
  5
11
330
A
100
AcDbDictionary
280
0
281
1
  0
ACDBDICTIONARYWDFLT
  5
12
330
A
100
AcDbDictionary
280
0
281
1
  3
Normal
350
13
100
AcDbDictionaryWithDefault
340
13
  0
ACDBPLACEHOLDER
  5
13
330
12
  0
DICTIONARY
  5
14
330
A
100
AcDbDictionary
280
0
281
1
  0
DICTIONARY
  5
15
330
A
100
AcDbDictionary
280
0
281
1
  0
DICTIONARY
  5
16
330
A
100
AcDbDictionary
280
0
281
1
  3
2dWireframe
350
5A
  3
Basic
350
5B
  3
Brighten
350
5C
  3
ColorChange
350
5D
  3
Conceptual
350
5E
  3
Dim
350
5F
  3
EdgeColorOff
350
60
  3
Facepattern
350
61
  3
Flat
350
62
  3
FlatWithEdges
350
63
  3
Gouraud
350
64
  3
GouraudWithEdges
350
65
  3
Hidden
350
66
  3
JitterOff
350
67
  3
Linepattern
350
68
  3
Modeling
350
69
  3
OverhangOff
350
6A
  3
Realistic
350
6B
  3
Shaded
350
6C
  3
Shaded with edges
350
6D
  3
Shades of Gray
350
6E
  3
Sketchy
350
6F
  3
Thicken
350
70
  3
Wireframe
350
71
  3
X-Ray
350
72
  0
LAYOUT
  5
1A
330
D
100
AcDbPlotSettings
  1

  2
Adobe PDF
  4
A3
  6

 40
7.5
 41
20.0
 42
7.5
 43
20.0
 44
420.0
 45
297.0
 46
0.0
 47
0.0
 48
0.0
 49
0.0
140
0.0
141
0.0
142
1.0
143
1.0
 70
1024
 72
1
 73
0
 74
5
  7

 75
16
 76
0
 77
2
 78
300
147
1.0
148
0.0
149
0.0
100
AcDbLayout
  1
Model
 70
1
 71
0
 10
0.0
 20
0.0
 11
420.0
 21
297.0
 12
0.0
 22
0.0
 32
0.0
 14
1e+20
 24
1e+20
 34
1e+20
 15
-1e+20
 25
-1e+20
 35
-1e+20
146
0.0
 13
0.0
 23
0.0
 33
0.0
 16
1.0
 26
0.0
 36
0.0
 17
0.0
 27
1.0
 37
0.0
 76
1
330
17
  0
LAYOUT
  5
1E
330
D
100
AcDbPlotSettings
  1

  2
Adobe PDF
  4
A3
  6

 40
7.5
 41
20.0
 42
7.5
 43
20.0
 44
420.0
 45
297.0
 46
0.0
 47
0.0
 48
0.0
 49
0.0
140
0.0
141
0.0
142
1.0
143
1.0
 70
0
 72
1
 73
0
 74
5
  7

 75
16
 76
0
 77
2
 78
300
147
1.0
148
0.0
149
0.0
100
AcDbLayout
  1
Layout1
 70
1
 71
1
 10
0.0
 20
0.0
 11
420.0
 21
297.0
 12
0.0
 22
0.0
 32
0.0
 14
1e+20
 24
1e+20
 34
1e+20
 15
-1e+20
 25
-1e+20
 35
-1e+20
146
0.0
 13
0.0
 23
0.0
 33
0.0
 16
1.0
 26
0.0
 36
0.0
 17
0.0
 27
1.0
 37
0.0
 76
1
330
1B
  0
MATERIAL
  5
1F
102
{ACAD_REACTORS
330
E
102
}
330
E
100
AcDbMaterial
  1
ByBlock
  2

 70
0
 40
1.0
 71
1
 41
1.0
 91
-1023410177
 42
1.0
 72
1
  3

 73
1
 74
1
 75
1
 44
0.5
 73
0
 45
1.0
 46
1.0
 77
1
  4

 78
1
 79
1
170
1
 48
1.0
171
1
  6

172
1
173
1
174
1
140
1.0
141
1.0
175
1
  7

176
1
177
1
178
1
143
1.0
179
1
  8

270
1
271
1
272
1
145
1.0
146
1.0
273
1
  9

274
1
275
1
276
1
 42
1.0
 72
1
  3

 73
1
 74
1
 75
1
 94
63
  0
MATERIAL
  5
20
102
{ACAD_REACTORS
330
E
102
}
330
E
100
AcDbMaterial
  1
ByLayer
  2

 70
0
 40
1.0
 71
1
 41
1.0
 91
-1023410177
 42
1.0
 72
1
  3

 73
1
 74
1
 75
1
 44
0.5
 73
0
 45
1.0
 46
1.0
 77
1
  4

 78
1
 79
1
170
1
 48
1.0
171
1
  6

172
1
173
1
174
1
140
1.0
141
1.0
175
1
  7

176
1
177
1
178
1
143
1.0
179
1
  8

270
1
271
1
272
1
145
1.0
146
1.0
273
1
  9

274
1
275
1
276
1
 42
1.0
 72
1
  3

 73
1
 74
1
 75
1
 94
63
  0
MATERIAL
  5
21
102
{ACAD_REACTORS
330
E
102
}
330
E
100
AcDbMaterial
  1
Global
  2

 70
0
 40
1.0
 71
1
 41
1.0
 91
-1023410177
 42
1.0
 72
1
  3

 73
1
 74
1
 75
1
 44
0.5
 73
0
 45
1.0
 46
1.0
 77
1
  4

 78
1
 79
1
170
1
 48
1.0
171
1
  6

172
1
173
1
174
1
140
1.0
141
1.0
175
1
  7

176
1
177
1
178
1
143
1.0
179
1
  8

270
1
271
1
272
1
145
1.0
146
1.0
273
1
  9

274
1
275
1
276
1
 42
1.0
 72
1
  3

 73
1
 74
1
 75
1
 94
63
  0
MLINESTYLE
  5
22
102
{ACAD_REACTORS
330
10
102
}
330
10
100
AcDbMlineStyle
  2
Standard
 70
0
  3

 62
256
 51
90.0
 52
90.0
 71
2
 49
0.5
 62
256
  6
BYLAYER
 49
-0.5
 62
256
  6
BYLAYER
  0
MLEADERSTYLE
  5
2C
102
{ACAD_REACTORS
330
F
102
}
330
F
100
AcDbMLeaderStyle
179
2
170
2
171
1
172
0
 90
2
 40
0.0
 41
0.0
173
1
 91
-1056964608
 92
-2
290
1
 42
2.0
291
1
 43
8.0
  3
Standard
 44
4.0
300

342
29
174
1
175
1
176
0
178
1
 93
-1056964608
 45
4.0
292
0
297
0
 46
4.0
 94
-1056964608
 47
1.0
 49
1.0
140
1.0
294
1
141
0.0
177
0
142
1.0
295
0
296
0
143
3.75
271
0
272
9
273
9
  0
DICTIONARY
  5
2D
330
A
100
AcDbDictionary
281
1
  3
CREATED_BY_EZDXF
350
2E
  3
WRITTEN_BY_EZDXF
350
BB
  0
DICTIONARYVAR
  5
2E
330
2D
100
DictionaryVariables
280
0
  1
1.3.0 @ 2026-01-06T17:07:23.722923+00:00
  0
VISUALSTYLE
  5
5A
102
{ACAD_REACTORS
330
16
102
}
330
16
100
AcDbVisualStyle
  2
2dWireframe
 70
4
 90
0
 40
0.6
 62
7
290
0
291
0
  0
VISUALSTYLE
  5
5B
102
{ACAD_REACTORS
330
16
102
}
330
16
100
AcDbVisualStyle
  2
Basic
 70
7
 90
1
 40
0.6
 62
7
290
0
291
1
  0
VISUALSTYLE
  5
5C
102
{ACAD_REACTORS
330
16
102
}
330
16
100
AcDbVisualStyle
  2
Brighten
 70
12
 90
2
 40
0.6
 62
7
290
0
291
1
  0
VISUALSTYLE
  5
5D
102
{ACAD_REACTORS
330
16
102
}
330
16
100
AcDbVisualStyle
  2
ColorChange
 70
16
 90
2
 40
0.6
 62
8
290
0
291
1
  0
VISUALSTYLE
  5
5E
102
{ACAD_REACTORS
330
16
102
}
330
16
100
AcDbVisualStyle
  2
Conceptual
 70
9
 90
3
 40
0.6
 62
7
290
0
291
0
  0
VISUALSTYLE
  5
5F
102
{ACAD_REACTORS
330
16
102
}
330
16
100
AcDbVisualStyle
  2
Dim
 70
11
 90
2
 40
0.6
 62
7
290
0
291
1
  0
VISUALSTYLE
  5
60
102
{ACAD_REACTORS
330
16
102
}
330
16
100
AcDbVisualStyle
  2
EdgeColorOff
 70
22
 90
2
 40
0.6
 62
7
290
0
291
1
  0
VISUALSTYLE
  5
61
102
{ACAD_REACTORS
330
16
102
}
330
16
100
AcDbVisualStyle
  2
Facepattern
 70
15
 90
2
 40
0.6
 62
7
290
0
291
1
  0
VISUALSTYLE
  5
62
102
{ACAD_REACTORS
330
16
102
}
330
16
100
AcDbVisualStyle
  2
Flat
 70
0
 90
2
 40
0.6
 62
7
290
0
291
1
  0
VISUALSTYLE
  5
63
102
{ACAD_REACTORS
330
16
102
}
330
16
100
AcDbVisualStyle
  2
FlatWithEdges
 70
1
 90
2
 40
0.6
 62
7
290
0
291
1
  0
VISUALSTYLE
  5
64
102
{ACAD_REACTORS
330
16
102
}
330
16
100
AcDbVisualStyle
  2
Gouraud
 70
2
 90
2
 40
0.6
 62
7
290
0
291
1
  0
VISUALSTYLE
  5
65
102
{ACAD_REACTORS
330
16
102
}
330
16
100
AcDbVisualStyle
  2
GouraudWithEdges
 70
3
 90
2
 40
0.6
 62
7
290
0
291
1
  0
VISUALSTYLE
  5
66
102
{ACAD_REACTORS
330
16
102
}
330
16
100
AcDbVisualStyle
  2
Hidden
 70
6
 90
1
 40
0.6
 62
7
290
0
291
0
  0
VISUALSTYLE
  5
67
102
{ACAD_REACTORS
330
16
102
}
330
16
100
AcDbVisualStyle
  2
JitterOff
 70
20
 90
2
 40
0.6
 62
7
290
0
291
1
  0
VISUALSTYLE
  5
68
102
{ACAD_REACTORS
330
16
102
}
330
16
100
AcDbVisualStyle
  2
Linepattern
 70
14
 90
2
 40
0.6
 62
7
290
0
291
1
  0
VISUALSTYLE
  5
69
102
{ACAD_REACTORS
330
16
102
}
330
16
100
AcDbVisualStyle
  2
Modeling
 70
10
 90
2
 40
0.6
 62
7
290
0
291
0
  0
VISUALSTYLE
  5
6A
102
{ACAD_REACTORS
330
16
102
}
330
16
100
AcDbVisualStyle
  2
OverhangOff
 70
21
 90
2
 40
0.6
 62
7
290
0
291
1
  0
VISUALSTYLE
  5
6B
102
{ACAD_REACTORS
330
16
102
}
330
16
100
AcDbVisualStyle
  2
Realistic
 70
8
 90
2
 40
0.6
 62
7
290
0
291
0
  0
VISUALSTYLE
  5
6C
102
{ACAD_REACTORS
330
16
102
}
330
16
100
AcDbVisualStyle
  2
Shaded
 70
27
 90
2
 40
0.6
 62
7
290
0
291
0
  0
VISUALSTYLE
  5
6D
102
{ACAD_REACTORS
330
16
102
}
330
16
100
AcDbVisualStyle
  2
Shaded with edges
 70
26
 90
2
 40
0.6
 62
7
290
0
291
0
  0
VISUALSTYLE
  5
6E
102
{ACAD_REACTORS
330
16
102
}
330
16
100
AcDbVisualStyle
  2
Shades of Gray
 70
23
 90
2
 40
0.6
 62
7
290
0
291
0
  0
VISUALSTYLE
  5
6F
102
{ACAD_REACTORS
330
16
102
}
330
16
100
AcDbVisualStyle
  2
Sketchy
 70
24
 90
1
 40
0.6
 62
7
290
0
291
0
  0
VISUALSTYLE
  5
70
102
{ACAD_REACTORS
330
16
102
}
330
16
100
AcDbVisualStyle
  2
Thicken
 70
13
 90
2
 40
0.6
 62
7
290
0
291
1
  0
VISUALSTYLE
  5
71
102
{ACAD_REACTORS
330
16
102
}
330
16
100
AcDbVisualStyle
  2
Wireframe
 70
5
 90
0
 40
0.6
 62
7
290
0
291
0
  0
VISUALSTYLE
  5
72
102
{ACAD_REACTORS
330
16
102
}
330
16
100
AcDbVisualStyle
  2
X-Ray
 70
25
 90
2
 40
0.5
 62
7
290
0
291
0
  0
DICTIONARYVAR
  5
BB
330
2D
100
DictionaryVariables
280
0
  1
1.3.0 @ 2026-01-06T17:07:23.783323+00:00
  0
ENDSEC
  0
EOF
