<?xml version="1.0" encoding="utf-8" standalone="no"?>
<!DOCTYPE svg PUBLIC "-//W3C//DTD SVG 1.1//EN"
  "http://www.w3.org/Graphics/SVG/1.1/DTD/svg11.dtd">
<svg xmlns:xlink="http://www.w3.org/1999/xlink" width="1152pt" height="215.089926pt" viewBox="0 0 1152 215.089926" xmlns="http://www.w3.org/2000/svg" version="1.1">
 <metadata>
  <rdf:RDF xmlns:dc="http://purl.org/dc/elements/1.1/" xmlns:cc="http://creativecommons.org/ns#" xmlns:rdf="http://www.w3.org/1999/02/22-rdf-syntax-ns#">
   <cc:Work>
    <dc:type rdf:resource="http://purl.org/dc/dcmitype/StillImage"/>
    <dc:date>2026-01-07T02:07:25.349597</dc:date>
    <dc:format>image/svg+xml</dc:format>
    <dc:creator>
     <cc:Agent>
      <dc:title>Matplotlib v3.10.1, https://matplotlib.org/</dc:title>
     </cc:Agent>
    </dc:creator>
   </cc:Work>
  </rdf:RDF>
 </metadata>
 <defs>
  <style type="text/css">*{stroke-linejoin: round; stroke-linecap: butt}</style>
 </defs>
 <g id="figure_1">
  <g id="patch_1">
   <path d="M 0 215.089926 
L 1152 215.089926 
L 1152 0 
L 0 0 
z
" style="fill: #ffffff"/>
  </g>
  <g id="axes_1">
   <g id="patch_2">
    <path d="M 0 215.089926 
L 1152 215.089926 
L 1152 0 
L 0 0 
z
" style="fill: #212830"/>
   </g>
   <g id="patch_3">
    <path d="M 1099.156822 168.180674 
L 1086.355733 165.564093 
L 1068.911671 161.777054 
L 1050.445437 157.589231 
L 1022.234615 150.892943 
L 993.940017 143.874134 
L 965.753144 136.541987 
L 937.488243 129.026809 
L 899.776164 118.764776 
L 852.734688 106.016968 
L 837.451761 101.974683 
L 836.283228 106.432742 
L 823.417799 103.105714 
L 804.666277 98.39311 
L 785.903587 93.836208 
L 767.155279 89.482058 
L 748.326431 85.314615 
L 729.481556 81.31089 
L 710.633174 77.515495 
L 691.724784 73.903831 
L 672.814295 70.522875 
L 653.834629 67.317096 
L 634.858999 64.325909 
L 615.80847 61.536783 
L 596.749837 58.933425 
L 577.630956 56.525011 
L 558.528264 54.30417 
L 539.418339 52.30239 
L 520.263166 50.487436 
L 501.111718 48.891509 
L 481.98433 47.506015 
L 462.835351 46.349928 
L 443.671066 45.420916 
L 424.547875 44.707434 
L 405.416857 44.264849 
L 386.329617 44.066806 
L 367.232277 44.1216 
L 348.203346 44.447774 
L 329.20554 45.084138 
L 310.231108 46.011932 
L 291.328036 47.256686 
L 272.460679 48.824149 
L 253.770047 50.713603 
L 235.184649 53.014469 
L 225.953628 54.319915 
L 216.754122 55.73918 
L 198.426284 58.905545 
L 189.380803 60.640049 
L 180.415119 62.503528 
L 171.537766 64.502792 
L 162.741205 66.647992 
L 154.052785 68.940365 
L 145.43493 71.402992 
L 136.985124 73.982199 
L 128.688715 76.744237 
L 120.585535 79.652556 
L 112.738101 82.713948 
L 105.175876 85.925125 
L 98.000467 89.242713 
L 91.315874 92.625437 
L 85.142405 96.078067 
L 79.623382 99.4329 
L 74.810243 102.653529 
L 70.684571 105.698113 
L 67.180661 108.540886 
L 64.351224 111.024483 
L 59.971036 115.552172 
L 58.432709 117.38044 
L 57.173257 119.109724 
L 55.297006 122.202267 
L 54.025622 124.972003 
L 53.214175 127.192433 
L 52.719475 129.103816 
L 52.363636 131.548562 
L 52.486189 132.927713 
L 52.709725 134.86976 
L 53.329388 136.48456 
L 53.854151 137.429904 
L 54.556569 138.465151 
L 55.460153 139.583325 
L 56.575839 140.763444 
L 57.93933 141.997864 
L 59.613891 143.288014 
L 61.711105 144.653402 
L 64.33538 146.115226 
L 67.467754 147.660503 
L 71.095405 149.250735 
L 75.425441 150.861808 
L 80.625793 152.49655 
L 86.656964 154.169067 
L 93.354063 155.834841 
L 100.738084 157.394769 
L 108.73021 158.857787 
L 117.068764 160.215777 
L 125.68377 161.411578 
L 134.592101 162.440753 
L 153.132071 164.26681 
L 162.368342 165.091272 
L 171.66377 165.747953 
L 200.302362 167.356099 
L 219.36196 168.181578 
L 238.602733 168.72604 
L 255.142529 169.087753 
L 255.045957 173.695403 
L 277.273011 174.085839 
L 296.580818 174.299043 
L 355.156256 174.529081 
L 384.496301 174.42921 
L 462.994605 173.831001 
L 512.029139 173.226682 
L 570.796823 172.273209 
L 668.670512 170.105325 
L 707.782163 169.151346 
L 776.206586 167.316211 
L 844.726896 165.631262 
L 903.520804 164.497196 
L 942.616561 164.002279 
L 991.382603 163.770507 
L 1020.601536 163.908073 
L 1049.665481 164.296461 
L 1077.82787 164.959079 
L 1099.636364 165.727762 
L 1099.156822 168.180674 
L 1099.156822 168.180674 
" clip-path="url(#p811e861586)" style="fill: none; stroke: #ff0000; stroke-width: 0.72; stroke-linejoin: miter"/>
   </g>
   <g id="patch_4">
    <path d="M 737.157501 101.758877 
L 719.116115 97.971456 
L 722.903536 79.930069 
L 740.944923 83.71749 
L 737.157501 101.758877 
" clip-path="url(#p811e861586)" style="fill: none; stroke: #ff0000; stroke-width: 0.72; stroke-linejoin: miter"/>
   </g>
   <g id="patch_5">
    <path d="M 343.738211 62.988433 
L 325.31644 63.677323 
L 324.627551 45.255552 
L 343.049321 44.566663 
L 343.738211 62.988433 
" clip-path="url(#p811e861586)" style="fill: none; stroke: #ff0000; stroke-width: 0.72; stroke-linejoin: miter"/>
   </g>
   <g id="patch_6">
    <path d="M 168.736812 84.131373 
L 150.91289 88.837114 
L 146.207149 71.013192 
L 164.031072 66.307451 
L 168.736812 84.131373 
" clip-path="url(#p811e861586)" style="fill: none; stroke: #ff0000; stroke-width: 0.72; stroke-linejoin: miter"/>
   </g>
   <g id="patch_7">
    <path d="M 85.524031 123.080563 
L 78.61925 129.186548 
L 63.354289 111.924595 
L 70.25907 105.818611 
L 85.524031 123.080563 
" clip-path="url(#p811e861586)" style="fill: none; stroke: #ff0000; stroke-width: 0.72; stroke-linejoin: miter"/>
   </g>
   <g id="patch_8">
    <path d="M 69.794369 122.073891 
L 77.148597 127.630363 
L 63.257417 146.015933 
L 55.903189 140.459461 
L 69.794369 122.073891 
" clip-path="url(#p811e861586)" style="fill: none; stroke: #ff0000; stroke-width: 0.72; stroke-linejoin: miter"/>
   </g>
   <g id="patch_9">
    <path d="M 194.283848 148.614289 
L 212.69767 149.49028 
L 211.821679 167.904102 
L 193.407857 167.028111 
L 194.283848 148.614289 
" clip-path="url(#p811e861586)" style="fill: none; stroke: #ff0000; stroke-width: 0.72; stroke-linejoin: miter"/>
   </g>
   <g id="line2d_1">
    <path d="M 1009.328018 147.715861 
L 1008.396384 152.229377 
" clip-path="url(#p811e861586)" style="fill: none; stroke: #ff0000; stroke-width: 0.72; stroke-linecap: square"/>
   </g>
   <g id="line2d_2">
    <path d="M 1007.58592 159.215303 
L 1007.459607 163.822234 
" clip-path="url(#p811e861586)" style="fill: none; stroke: #ff0000; stroke-width: 0.72; stroke-linecap: square"/>
   </g>
   <g id="line2d_3">
    <path d="M 920.104662 124.328363 
L 919.054159 128.815701 
" clip-path="url(#p811e861586)" style="fill: none; stroke: #ff0000; stroke-width: 0.72; stroke-linecap: square"/>
   </g>
   <g id="line2d_4">
    <path d="M 915.313571 159.711985 
L 915.262868 164.320368 
" clip-path="url(#p811e861586)" style="fill: none; stroke: #ff0000; stroke-width: 0.72; stroke-linecap: square"/>
   </g>
   <g id="line2d_5">
    <path d="M 558.038585 54.251339 
L 557.104442 58.764335 
" clip-path="url(#p811e861586)" style="fill: none; stroke: #ff0000; stroke-width: 0.72; stroke-linecap: square"/>
   </g>
   <g id="line2d_6">
    <path d="M 546.542353 168.10901 
L 546.595427 172.717367 
" clip-path="url(#p811e861586)" style="fill: none; stroke: #ff0000; stroke-width: 0.72; stroke-linecap: square"/>
   </g>
   <g id="patch_10">
    <path d="M 539.09902 107.544963 
L 539.017952 103.630809 
L 538.774893 99.723568 
L 538.37027 95.83014 
L 537.804799 91.957402 
L 537.079479 88.112192 
L 536.195589 84.301303 
L 535.154693 80.531464 
L 533.958627 76.809334 
L 532.609504 73.141485 
L 531.109707 69.534396 
L 529.461885 65.994438 
L 527.668947 62.527861 
L 525.73406 59.140789 
L 523.660642 55.839203 
L 521.452355 52.628934 
L 519.113097 49.515652 
L 516.647002 46.504855 
L 514.058423 43.601861 
L 511.351933 40.811796 
L 508.532312 38.139588 
L 505.604539 35.589956 
L 502.573785 33.167404 
L 499.445403 30.876209 
L 496.224917 28.720418 
L 492.918016 26.703838 
L 489.530539 24.830032 
L 486.06847 23.102308 
L 482.537922 21.523717 
L 478.945131 20.097048 
L 475.296442 18.82482 
L 471.598298 17.709279 
L 467.857233 16.752397 
L 464.079851 15.955863 
L 460.272825 15.321084 
L 456.442878 14.849181 
L 452.596774 14.540987 
L 448.741305 14.397046 
L 444.883282 14.417614 
L 441.029516 14.602653 
L 437.186816 14.951836 
L 433.361966 15.464548 
L 429.561723 16.139882 
L 425.792797 16.976646 
L 422.061845 17.973362 
L 418.375456 19.12827 
L 414.740141 20.43933 
L 411.16232 21.904226 
L 407.648312 23.520372 
L 404.204322 25.284913 
L 400.836434 27.194733 
L 397.550595 29.246459 
L 394.352608 31.436467 
L 391.248121 33.76089 
L 388.242618 36.215623 
L 385.341405 38.796329 
L 382.549608 41.498452 
L 379.872156 44.317219 
L 377.313777 47.247653 
L 374.878992 50.284577 
L 372.572098 53.422628 
L 370.397172 56.656264 
L 368.358053 59.979774 
L 366.458343 63.387289 
L 364.701397 66.87279 
L 363.090318 70.430122 
L 361.627952 74.053003 
L 360.31688 77.735033 
L 359.159419 81.46971 
L 358.157613 85.250439 
L 357.31323 89.070542 
L 356.627763 92.923272 
L 356.102422 96.801826 
L 355.738134 100.699353 
L 355.535543 104.60897 
L 355.495007 108.523772 
L 355.616597 112.436845 
L 355.900099 116.341279 
L 356.345012 120.230178 
L 356.95055 124.096674 
L 357.715644 127.933938 
L 358.638942 131.735193 
L 359.718814 135.493726 
L 360.953353 139.202898 
L 362.340378 142.85616 
L 363.87744 146.447059 
L 365.561824 149.969254 
L 367.390556 153.416523 
L 369.360405 156.782779 
L 371.467894 160.062076 
L 373.709298 163.248623 
L 376.080662 166.336792 
L 378.577795 169.32113 
L 381.196288 172.196365 
L 383.931517 174.957419 
L 386.778651 177.599418 
L 389.732661 180.117693 
L 392.788331 182.507798 
L 395.940263 184.765512 
L 399.182892 186.886848 
L 402.510491 188.868058 
L 405.917182 190.705644 
L 409.396949 192.396361 
L 412.943647 193.937222 
L 416.551011 195.325507 
L 420.212671 196.558763 
L 423.922161 197.634813 
L 427.672928 198.551755 
L 431.458348 199.307971 
L 435.271737 199.902125 
L 439.106358 200.333168 
L 442.955441 200.600338 
L 446.812187 200.703164 
L 450.669785 200.641464 
L 454.521421 200.415347 
L 458.360294 200.025212 
L 462.179624 199.471749 
L 465.972666 198.755934 
L 469.73272 197.879033 
L 473.453145 196.842593 
L 477.127373 195.648445 
L 480.748912 194.298698 
L 484.311368 192.795736 
L 487.808449 191.142214 
L 491.233979 189.341051 
L 494.581907 187.395428 
L 497.846321 185.308782 
L 501.021456 183.084798 
L 504.101704 180.727404 
L 507.081626 178.240763 
L 509.955957 175.629266 
L 512.719623 172.897527 
L 515.367742 170.050368 
L 517.895637 167.09282 
L 520.298844 164.030104 
L 522.573119 160.867631 
L 524.714445 157.610984 
L 526.719039 154.265916 
L 528.583363 150.838335 
L 530.304123 147.334294 
L 531.87828 143.759981 
L 533.303055 140.121709 
L 534.57593 136.425904 
L 535.694659 132.679092 
L 536.657264 128.887891 
L 537.462047 125.058996 
L 538.107585 121.19917 
L 538.592739 117.315229 
L 538.916651 113.414034 
L 539.078751 109.502472 
L 539.09902 107.544963 
L 539.09902 107.544963 
" clip-path="url(#p811e861586)" style="fill: none; stroke: #ff0000; stroke-width: 0.72; stroke-linejoin: miter"/>
   </g>
   <g id="line2d_7">
    <path d="M 68.408203 107.544963 
L 858.445685 107.544963 
" clip-path="url(#p811e861586)" style="fill: none; stroke: #ffffff; stroke-width: 0.72; stroke-linecap: square"/>
   </g>
   <g id="line2d_8">
    <path d="M 216.73751 107.544963 
L 272.04145 107.544963 
" clip-path="url(#p811e861586)" style="fill: none; stroke: #ffffff; stroke-width: 0.72; stroke-linecap: square"/>
   </g>
   <g id="patch_11">
    <path d="M 244.38948 84.501655 
L 267.432788 107.544963 
L 244.38948 130.588271 
L 221.346172 107.544963 
L 244.38948 84.501655 
" clip-path="url(#p811e861586)" style="fill: none; stroke: #ff0000; stroke-width: 0.72; stroke-linejoin: miter"/>
   </g>
   <g id="line2d_9">
    <path d="M 435.774974 107.544963 
L 491.078914 107.544963 
" clip-path="url(#p811e861586)" style="fill: none; stroke: #ffffff; stroke-width: 0.72; stroke-linecap: square"/>
   </g>
   <g id="patch_12">
    <path d="M 463.426944 84.501655 
L 486.470252 107.544963 
L 463.426944 130.588271 
L 440.383636 107.544963 
L 463.426944 84.501655 
" clip-path="url(#p811e861586)" style="fill: none; stroke: #ff0000; stroke-width: 0.72; stroke-linejoin: miter"/>
   </g>
   <g id="line2d_10">
    <path d="M 654.812438 107.544963 
L 710.116378 107.544963 
" clip-path="url(#p811e861586)" style="fill: none; stroke: #ffffff; stroke-width: 0.72; stroke-linecap: square"/>
   </g>
   <g id="patch_13">
    <path d="M 682.464408 84.501655 
L 705.507717 107.544963 
L 682.464408 130.588271 
L 659.4211 107.544963 
L 682.464408 84.501655 
" clip-path="url(#p811e861586)" style="fill: none; stroke: #ff0000; stroke-width: 0.72; stroke-linejoin: miter"/>
   </g>
   <g id="line2d_11">
    <path d="M 52.479466 130.618752 
L 1088.290689 165.962655 
" clip-path="url(#p811e861586)" style="fill: none; stroke: #ffffff; stroke-width: 0.72; stroke-linecap: square"/>
   </g>
   <g id="line2d_12">
    <path d="M 249.969151 137.357486 
L 305.240923 139.243467 
" clip-path="url(#p811e861586)" style="fill: none; stroke: #ffffff; stroke-width: 0.72; stroke-linecap: square"/>
   </g>
   <g id="patch_14">
    <path d="M 278.390862 115.270571 
L 300.634942 139.086302 
L 276.819212 161.330382 
L 254.575132 137.514651 
L 278.390862 115.270571 
" clip-path="url(#p811e861586)" style="fill: none; stroke: #ff0000; stroke-width: 0.72; stroke-linejoin: miter"/>
   </g>
   <g id="line2d_13">
    <path d="M 493.952518 145.682675 
L 549.224291 147.568656 
" clip-path="url(#p811e861586)" style="fill: none; stroke: #ffffff; stroke-width: 0.72; stroke-linecap: square"/>
   </g>
   <g id="patch_15">
    <path d="M 522.37423 123.595761 
L 544.61831 147.411491 
L 520.802579 169.655571 
L 498.558499 145.83984 
L 522.37423 123.595761 
" clip-path="url(#p811e861586)" style="fill: none; stroke: #ff0000; stroke-width: 0.72; stroke-linejoin: miter"/>
   </g>
   <g id="line2d_14">
    <path d="M 447.29448 14.385476 
L 447.29448 9.776815 
" clip-path="url(#p811e861586)" style="fill: none; stroke: #ff0000; stroke-width: 0.72; stroke-linecap: square"/>
   </g>
   <g id="line2d_15">
    <path d="M 447.29448 200.70445 
L 447.29448 205.313112 
" clip-path="url(#p811e861586)" style="fill: none; stroke: #ff0000; stroke-width: 0.72; stroke-linecap: square"/>
   </g>
   <g id="line2d_16">
    <path d="M 539.09902 107.544963 
L 543.707682 107.544963 
" clip-path="url(#p811e861586)" style="fill: none; stroke: #ff0000; stroke-width: 0.72; stroke-linecap: square"/>
   </g>
   <g id="line2d_17">
    <path d="M 355.48994 107.544963 
L 350.881278 107.544963 
" clip-path="url(#p811e861586)" style="fill: none; stroke: #ff0000; stroke-width: 0.72; stroke-linecap: square"/>
   </g>
   <g id="patch_16">
    <path d="M 351.039289 114.194604 
L 341.821966 114.194604 
L 341.821966 160.28122 
L 351.039289 160.28122 
" clip-path="url(#p811e861586)" style="fill: none; stroke: #ff0000; stroke-width: 0.72; stroke-linejoin: miter"/>
   </g>
   <g id="patch_17">
    <path d="M 355.647951 160.28122 
L 364.865274 160.28122 
L 364.865274 114.194604 
L 355.647951 114.194604 
" clip-path="url(#p811e861586)" style="fill: none; stroke: #ff0000; stroke-width: 0.72; stroke-linejoin: miter"/>
   </g>
   <g id="patch_18">
    <path d="M 341.821966 137.237912 
L 351.039289 137.237912 
" clip-path="url(#p811e861586)" style="fill: none; stroke: #ff0000; stroke-width: 0.72; stroke-linejoin: miter"/>
   </g>
   <g id="patch_19">
    <path d="M 355.647951 137.237912 
L 364.865274 137.237912 
" clip-path="url(#p811e861586)" style="fill: none; stroke: #ff0000; stroke-width: 0.72; stroke-linejoin: miter"/>
   </g>
   <g id="patch_20">
    <path d="M 399.430237 114.194604 
L 376.386928 114.194604 
L 376.386928 137.237912 
L 399.430237 137.237912 
L 399.430237 160.28122 
L 376.386928 160.28122 
" clip-path="url(#p811e861586)" style="fill: none; stroke: #ff0000; stroke-width: 0.72; stroke-linejoin: miter"/>
   </g>
  </g>
 </g>
 <defs>
  <clipPath id="p811e861586">
   <rect x="0" y="0" width="1152" height="215.089926"/>
  </clipPath>
 </defs>
</svg>
