<?xml version="1.0" encoding="utf-8" standalone="no"?>
<!DOCTYPE svg PUBLIC "-//W3C//DTD SVG 1.1//EN"
  "http://www.w3.org/Graphics/SVG/1.1/DTD/svg11.dtd">
<svg xmlns:xlink="http://www.w3.org/1999/xlink" width="1152pt" height="321.26068pt" viewBox="0 0 1152 321.26068" xmlns="http://www.w3.org/2000/svg" version="1.1">
 <metadata>
  <rdf:RDF xmlns:dc="http://purl.org/dc/elements/1.1/" xmlns:cc="http://creativecommons.org/ns#" xmlns:rdf="http://www.w3.org/1999/02/22-rdf-syntax-ns#">
   <cc:Work>
    <dc:type rdf:resource="http://purl.org/dc/dcmitype/StillImage"/>
    <dc:date>2026-01-07T02:07:15.271780</dc:date>
    <dc:format>image/svg+xml</dc:format>
    <dc:creator>
     <cc:Agent>
      <dc:title>Matplotlib v3.10.1, https://matplotlib.org/</dc:title>
     </cc:Agent>
    </dc:creator>
   </cc:Work>
  </rdf:RDF>
 </metadata>
 <defs>
  <style type="text/css">*{stroke-linejoin: round; stroke-linecap: butt}</style>
 </defs>
 <g id="figure_1">
  <g id="patch_1">
   <path d="M 0 321.26068 
L 1152 321.26068 
L 1152 0 
L 0 0 
z
" style="fill: #ffffff"/>
  </g>
  <g id="axes_1">
   <g id="patch_2">
    <path d="M 0 321.26068 
L 1152 321.26068 
L 1152 0 
L 0 0 
z
" style="fill: #212830"/>
   </g>
   <g id="patch_3">
    <path d="M 1099.636364 265.99533 
L 1099.636363 40.949154 
L 1080.450468 38.286121 
L 1059.509405 35.556271 
L 1038.530994 32.994972 
L 1017.519314 30.597514 
L 996.483881 28.364528 
L 975.427171 26.298877 
L 954.34652 24.400166 
L 933.247467 22.664166 
L 912.144738 21.090992 
L 891.047698 19.685214 
L 869.95644 18.449563 
L 848.874767 17.38135 
L 827.816384 16.481015 
L 806.791914 15.752777 
L 785.801154 15.201475 
L 764.845432 14.825509 
L 743.937486 14.624382 
L 723.088468 14.602758 
L 702.300233 14.765835 
L 681.573335 15.113441 
L 660.920801 15.644635 
L 640.356296 16.363793 
L 619.882072 17.277229 
L 599.501418 18.384944 
L 579.228813 19.685808 
L 559.080496 21.18477 
L 539.059897 22.888508 
L 519.173767 24.795704 
L 499.442191 26.905485 
L 479.880827 29.224331 
L 460.495535 31.756789 
L 441.300819 34.499552 
L 422.321056 37.453117 
L 403.572015 40.62235 
L 385.067252 44.003724 
L 366.845082 47.583406 
L 348.951629 51.359271 
L 331.414999 55.333621 
L 314.266255 59.492167 
L 297.561171 63.814594 
L 281.349765 68.293799 
L 265.666894 72.915957 
L 250.560229 77.647658 
L 236.088291 82.459254 
L 222.290814 87.33235 
L 209.193883 92.234757 
L 196.82759 97.125706 
L 185.212246 101.978694 
L 174.344339 106.774771 
L 164.208714 111.48667 
L 154.788291 116.089994 
L 146.056893 120.576172 
L 137.975472 124.944921 
L 130.498713 129.191816 
L 123.584727 133.309741 
L 117.195335 137.299842 
L 111.291121 141.171109 
L 105.83274 144.932567 
L 100.782431 148.590049 
L 96.109167 152.145764 
L 91.787555 155.606695 
L 87.794238 158.985247 
L 84.10101 162.297796 
L 80.676605 165.549769 
L 74.517881 171.851851 
L 69.179 177.812923 
L 66.818245 180.665266 
L 64.670128 183.452842 
L 62.733246 186.198297 
L 60.996035 188.923123 
L 59.441813 191.632634 
L 58.052146 194.322932 
L 56.814333 196.977698 
L 55.722874 199.584532 
L 54.779542 202.132961 
L 53.98981 204.622198 
L 53.35821 207.059572 
L 52.885353 209.452543 
L 52.567234 211.806928 
L 52.387846 214.320462 
L 52.363636 216.443551 
L 52.47933 218.776432 
L 52.757458 221.100539 
L 53.218473 223.405265 
L 53.887853 225.691673 
L 54.787257 227.964292 
L 55.924826 230.222427 
L 57.293524 232.458728 
L 58.877925 234.660288 
L 60.667648 236.814772 
L 62.661662 238.912234 
L 64.869222 240.94809 
L 67.299556 242.922161 
L 69.958332 244.838971 
L 72.84263 246.704724 
L 75.950182 248.526225 
L 79.279035 250.307076 
L 82.83916 252.04868 
L 86.645166 253.751595 
L 90.720501 255.417845 
L 95.088494 257.053959 
L 99.772699 258.670009 
L 104.799043 260.277087 
L 115.997082 263.499012 
L 122.25007 265.12161 
L 129.008155 266.755324 
L 136.329747 268.405153 
L 144.278991 270.075945 
L 152.923994 271.769635 
L 162.341306 273.483134 
L 172.613143 275.211195 
L 183.818628 276.951499 
L 196.024172 278.700114 
L 209.279998 280.443847 
L 223.619039 282.16372 
L 239.047917 283.845242 
L 255.530712 285.476309 
L 272.99924 287.035736 
L 291.375005 288.505664 
L 310.5604 289.880986 
L 330.441745 291.154342 
L 350.926584 292.317009 
L 371.936301 293.373313 
L 393.391089 294.328185 
L 437.488809 295.94254 
L 462.441611 296.7344 
L 462.328315 300.449672 
L 505.507107 301.706457 
L 551.45027 302.69738 
L 668.661067 304.62741 
L 715.727039 305.165912 
L 881.133704 306.657922 
L 1099.636364 265.99533 
L 1099.636364 265.99533 
" clip-path="url(#pd0e6335aef)" style="fill: none; stroke: #ff0000; stroke-width: 0.72; stroke-linejoin: miter"/>
   </g>
   <g id="patch_4">
    <path d="M 639.462013 240.016546 
L 651.852009 240.016546 
L 651.852009 252.406542 
L 639.462013 252.406542 
L 651.852009 252.406542 
L 651.852009 264.796538 
L 639.462013 264.796538 
" clip-path="url(#pd0e6335aef)" style="fill: none; stroke: #ff0000; stroke-width: 0.72; stroke-linejoin: miter"/>
   </g>
   <g id="patch_5">
    <path d="M 663.003005 240.016546 
L 658.047006 240.016546 
L 658.047006 264.796538 
L 663.003005 264.796538 
" clip-path="url(#pd0e6335aef)" style="fill: none; stroke: #ff0000; stroke-width: 0.72; stroke-linejoin: miter"/>
   </g>
   <g id="patch_6">
    <path d="M 665.481004 264.796538 
L 670.437002 264.796538 
L 670.437002 240.016546 
L 665.481004 240.016546 
" clip-path="url(#pd0e6335aef)" style="fill: none; stroke: #ff0000; stroke-width: 0.72; stroke-linejoin: miter"/>
   </g>
   <g id="patch_7">
    <path d="M 658.047006 252.406542 
L 663.003005 252.406542 
" clip-path="url(#pd0e6335aef)" style="fill: none; stroke: #ff0000; stroke-width: 0.72; stroke-linejoin: miter"/>
   </g>
   <g id="patch_8">
    <path d="M 665.481004 252.406542 
L 670.437002 252.406542 
" clip-path="url(#pd0e6335aef)" style="fill: none; stroke: #ff0000; stroke-width: 0.72; stroke-linejoin: miter"/>
   </g>
   <g id="patch_9">
    <path d="M 633.082487 26.610229 
L 623.180344 27.052087 
L 622.738486 17.149944 
L 632.640629 16.708086 
L 633.082487 26.610229 
" clip-path="url(#pd0e6335aef)" style="fill: none; stroke: #ff0000; stroke-width: 0.72; stroke-linejoin: miter"/>
   </g>
   <g id="patch_10">
    <path d="M 276.254078 80.129443 
L 266.74651 82.931912 
L 263.944041 73.424344 
L 273.451609 70.621875 
L 276.254078 80.129443 
" clip-path="url(#pd0e6335aef)" style="fill: none; stroke: #ff0000; stroke-width: 0.72; stroke-linejoin: miter"/>
   </g>
   <g id="patch_11">
    <path d="M 96.352743 167.952326 
L 92.664345 171.262558 
L 84.388764 162.041563 
L 88.077163 158.73133 
L 96.352743 167.952326 
" clip-path="url(#pd0e6335aef)" style="fill: none; stroke: #ff0000; stroke-width: 0.72; stroke-linejoin: miter"/>
   </g>
   <g id="patch_12">
    <path d="M 74.869755 233.104925 
L 78.894048 235.997499 
L 71.662613 246.058231 
L 67.63832 243.165657 
L 74.869755 233.104925 
" clip-path="url(#pd0e6335aef)" style="fill: none; stroke: #ff0000; stroke-width: 0.72; stroke-linejoin: miter"/>
   </g>
   <g id="patch_13">
    <path d="M 353.523227 282.523038 
L 363.422721 283.020725 
L 362.925034 292.920219 
L 353.02554 292.422532 
L 353.523227 282.523038 
" clip-path="url(#pd0e6335aef)" style="fill: none; stroke: #ff0000; stroke-width: 0.72; stroke-linejoin: miter"/>
   </g>
   <g id="patch_14">
    <path d="M 960.331285 160.211458 
L 960.23265 155.230456 
L 959.936917 150.25825 
L 959.444611 145.303623 
L 958.756599 140.375324 
L 957.874097 135.482058 
L 956.798664 130.632467 
L 955.532199 125.835114 
L 954.076939 121.098473 
L 952.435454 116.43091 
L 950.610642 111.840667 
L 948.605727 107.335851 
L 946.424249 102.924418 
L 944.070062 98.61416 
L 941.547322 94.412688 
L 938.860486 90.327423 
L 936.014298 86.365579 
L 933.013785 82.534155 
L 929.864247 78.839915 
L 926.571245 75.289385 
L 923.140595 71.888836 
L 919.578357 68.644272 
L 915.890821 65.561424 
L 912.0845 62.645737 
L 908.166117 59.90236 
L 904.142591 57.336139 
L 900.021029 54.951604 
L 895.808709 52.752969 
L 891.513071 50.744114 
L 887.141701 48.92859 
L 882.70232 47.309601 
L 878.202768 45.890007 
L 873.650992 44.672316 
L 869.05503 43.658677 
L 864.422999 42.850881 
L 859.76308 42.250355 
L 855.083503 41.858159 
L 850.392533 41.674986 
L 845.698453 41.70116 
L 841.009555 41.936633 
L 836.334119 42.380991 
L 831.680402 43.033448 
L 827.056624 43.892853 
L 822.47095 44.957687 
L 817.93148 46.226069 
L 813.446229 47.695761 
L 809.023121 49.364165 
L 804.669965 51.228336 
L 800.394451 53.284982 
L 796.204129 55.530469 
L 792.1064 57.960833 
L 788.1085 60.57178 
L 784.217491 63.358701 
L 780.440245 66.316672 
L 776.783431 69.440471 
L 773.253509 72.724579 
L 769.856713 76.163198 
L 766.599041 79.750253 
L 763.486248 83.47941 
L 760.52383 87.344083 
L 757.71702 91.337447 
L 755.070774 95.452448 
L 752.589766 99.68182 
L 750.278378 104.018093 
L 748.140692 108.453608 
L 746.180483 112.980533 
L 744.401213 117.590872 
L 742.806025 122.276482 
L 741.397736 127.02909 
L 740.178832 131.8403 
L 739.151467 136.701617 
L 738.317455 141.604454 
L 737.678269 146.540153 
L 737.235038 151.499996 
L 736.988545 156.475225 
L 736.939224 161.457053 
L 737.087164 166.43668 
L 737.432102 171.405313 
L 737.97343 176.354177 
L 738.710192 181.274532 
L 739.641086 186.157687 
L 740.764468 190.995018 
L 742.078355 195.777983 
L 743.580425 200.498134 
L 745.268027 205.147135 
L 747.138179 209.716776 
L 749.187579 214.198986 
L 751.412607 218.585848 
L 753.809334 222.869616 
L 756.373527 227.042725 
L 759.100658 231.097802 
L 761.985909 235.027688 
L 765.024185 238.825442 
L 768.210121 242.484356 
L 771.53809 245.997969 
L 775.002214 249.360074 
L 778.596375 252.564735 
L 782.314226 255.606292 
L 786.149201 258.479372 
L 790.094526 261.178902 
L 794.143234 263.700115 
L 798.288175 266.038556 
L 802.522028 268.190098 
L 806.837315 270.150939 
L 811.226416 271.917617 
L 815.68158 273.487011 
L 820.194937 274.856351 
L 824.758516 276.023217 
L 829.364259 276.985548 
L 834.004031 277.741646 
L 838.669637 278.290175 
L 843.352839 278.630165 
L 848.045363 278.761018 
L 852.738925 278.6825 
L 857.425233 278.394752 
L 862.096012 277.898282 
L 866.743013 277.193965 
L 871.358028 276.283047 
L 875.932908 275.167136 
L 880.459571 273.848202 
L 884.930025 272.328575 
L 889.336373 270.610939 
L 893.670834 268.698327 
L 897.925752 266.594118 
L 902.093613 264.302027 
L 906.167057 261.826102 
L 910.138889 259.170716 
L 914.002094 256.34056 
L 917.749849 253.34063 
L 921.375537 250.176226 
L 924.872753 246.852935 
L 928.235321 243.376628 
L 931.457302 239.753443 
L 934.533007 235.98978 
L 937.457003 232.092286 
L 940.224126 228.067843 
L 942.829489 223.923559 
L 945.268491 219.666754 
L 947.536825 215.304946 
L 949.630483 210.845837 
L 951.54577 206.297303 
L 953.279301 201.667378 
L 954.828016 196.964237 
L 956.189179 192.196188 
L 957.360387 187.371651 
L 958.33957 182.499146 
L 959.125 177.587279 
L 959.71529 172.644725 
L 960.109396 167.680212 
L 960.306624 162.702509 
L 960.331285 160.211458 
L 960.331285 160.211458 
" clip-path="url(#pd0e6335aef)" style="fill: none; stroke: #ff0000; stroke-width: 0.72; stroke-linejoin: miter"/>
   </g>
   <g id="patch_15">
    <path d="M 398.244447 147.821463 
L 410.634442 160.211458 
L 398.244447 172.601454 
L 385.854451 160.211458 
L 398.244447 147.821463 
" clip-path="url(#pd0e6335aef)" style="fill: none; stroke: #ff0000; stroke-width: 0.72; stroke-linejoin: miter"/>
   </g>
   <g id="patch_16">
    <path d="M 841.80996 147.821463 
L 854.199955 160.211458 
L 841.80996 172.601454 
L 829.419964 160.211458 
L 841.80996 147.821463 
" clip-path="url(#pd0e6335aef)" style="fill: none; stroke: #ff0000; stroke-width: 0.72; stroke-linejoin: miter"/>
   </g>
   <g id="patch_17">
    <path d="M 261.484078 213.330129 
L 273.053287 226.489817 
L 259.8936 238.059026 
L 248.32439 224.899338 
L 261.484078 213.330129 
" clip-path="url(#pd0e6335aef)" style="fill: none; stroke: #ff0000; stroke-width: 0.72; stroke-linejoin: miter"/>
   </g>
   <g id="patch_18">
    <path d="M 501.588432 228.77282 
L 513.157642 241.932508 
L 499.997954 253.501717 
L 488.428745 240.34203 
L 501.588432 228.77282 
" clip-path="url(#pd0e6335aef)" style="fill: none; stroke: #ff0000; stroke-width: 0.72; stroke-linejoin: miter"/>
   </g>
   <g id="patch_19">
    <path d="M 464.542307 201.112994 
L 476.932303 188.722999 
L 489.322299 201.112994 
L 476.932303 213.50299 
L 464.542307 201.112994 
" clip-path="url(#pd0e6335aef)" style="fill: none; stroke: #ff0000; stroke-width: 0.72; stroke-linejoin: miter"/>
   </g>
   <g id="patch_20">
    <path d="M 464.542307 129.391542 
L 476.932303 117.001547 
L 489.322299 129.391542 
L 476.932303 141.781538 
L 464.542307 129.391542 
" clip-path="url(#pd0e6335aef)" style="fill: none; stroke: #ff0000; stroke-width: 0.72; stroke-linejoin: miter"/>
   </g>
   <g id="line2d_1">
    <path d="M 86.42711 160.211458 
L 1099.636363 160.211458 
" clip-path="url(#pd0e6335aef)" style="fill: none; stroke: #ffffff; stroke-width: 0.72; stroke-linecap: square"/>
   </g>
   <g id="line2d_2">
    <path d="M 383.376452 160.211458 
L 413.112441 160.211458 
" clip-path="url(#pd0e6335aef)" style="fill: none; stroke: #ffffff; stroke-width: 0.72; stroke-linecap: square"/>
   </g>
   <g id="line2d_3">
    <path d="M 826.941965 160.211458 
L 856.677954 160.211458 
" clip-path="url(#pd0e6335aef)" style="fill: none; stroke: #ffffff; stroke-width: 0.72; stroke-linecap: square"/>
   </g>
   <g id="line2d_4">
    <path d="M 52.531572 212.306614 
L 1045.096556 276.145 
" clip-path="url(#pd0e6335aef)" style="fill: none; stroke: #ffffff; stroke-width: 0.72; stroke-linecap: square"/>
   </g>
   <g id="line2d_5">
    <path d="M 245.8515 224.740291 
L 275.526177 226.648864 
" clip-path="url(#pd0e6335aef)" style="fill: none; stroke: #ffffff; stroke-width: 0.72; stroke-linecap: square"/>
   </g>
   <g id="line2d_6">
    <path d="M 485.955855 240.182982 
L 515.630531 242.091556 
" clip-path="url(#pd0e6335aef)" style="fill: none; stroke: #ffffff; stroke-width: 0.72; stroke-linecap: square"/>
   </g>
   <g id="line2d_7">
    <path d="M 848.632172 41.660263 
L 848.632172 39.182264 
" clip-path="url(#pd0e6335aef)" style="fill: none; stroke: #ff0000; stroke-width: 0.72; stroke-linecap: square"/>
   </g>
   <g id="line2d_8">
    <path d="M 848.632172 278.762653 
L 848.632172 281.240653 
" clip-path="url(#pd0e6335aef)" style="fill: none; stroke: #ff0000; stroke-width: 0.72; stroke-linecap: square"/>
   </g>
   <g id="line2d_9">
    <path d="M 960.331285 160.211458 
L 962.809284 160.211458 
" clip-path="url(#pd0e6335aef)" style="fill: none; stroke: #ff0000; stroke-width: 0.72; stroke-linecap: square"/>
   </g>
   <g id="line2d_10">
    <path d="M 736.933059 160.211458 
L 734.45506 160.211458 
" clip-path="url(#pd0e6335aef)" style="fill: none; stroke: #ff0000; stroke-width: 0.72; stroke-linecap: square"/>
   </g>
   <g id="line2d_11">
    <path d="M 476.932303 300.895016 
L 476.932303 29.609521 
" clip-path="url(#pd0e6335aef)" style="fill: none; stroke: #ffffff; stroke-width: 0.72; stroke-linecap: square"/>
   </g>
   <g id="line2d_12">
    <path d="M 476.932303 215.980989 
L 476.932303 186.244999 
" clip-path="url(#pd0e6335aef)" style="fill: none; stroke: #ffffff; stroke-width: 0.72; stroke-linecap: square"/>
   </g>
   <g id="line2d_13">
    <path d="M 476.932303 144.259537 
L 476.932303 114.523548 
" clip-path="url(#pd0e6335aef)" style="fill: none; stroke: #ffffff; stroke-width: 0.72; stroke-linecap: square"/>
   </g>
  </g>
 </g>
 <defs>
  <clipPath id="pd0e6335aef">
   <rect x="0" y="0" width="1152" height="321.26068"/>
  </clipPath>
 </defs>
</svg>
