<?xml version="1.0" encoding="utf-8" standalone="no"?>
<!DOCTYPE svg PUBLIC "-//W3C//DTD SVG 1.1//EN"
  "http://www.w3.org/Graphics/SVG/1.1/DTD/svg11.dtd">
<svg xmlns:xlink="http://www.w3.org/1999/xlink" width="1152pt" height="321.586942pt" viewBox="0 0 1152 321.586942" xmlns="http://www.w3.org/2000/svg" version="1.1">
 <metadata>
  <rdf:RDF xmlns:dc="http://purl.org/dc/elements/1.1/" xmlns:cc="http://creativecommons.org/ns#" xmlns:rdf="http://www.w3.org/1999/02/22-rdf-syntax-ns#">
   <cc:Work>
    <dc:type rdf:resource="http://purl.org/dc/dcmitype/StillImage"/>
    <dc:date>2026-01-07T02:07:14.354645</dc:date>
    <dc:format>image/svg+xml</dc:format>
    <dc:creator>
     <cc:Agent>
      <dc:title>Matplotlib v3.10.1, https://matplotlib.org/</dc:title>
     </cc:Agent>
    </dc:creator>
   </cc:Work>
  </rdf:RDF>
 </metadata>
 <defs>
  <style type="text/css">*{stroke-linejoin: round; stroke-linecap: butt}</style>
 </defs>
 <g id="figure_1">
  <g id="patch_1">
   <path d="M 0 321.586942 
L 1152 321.586942 
L 1152 0 
L 0 0 
z
" style="fill: #ffffff"/>
  </g>
  <g id="axes_1">
   <g id="patch_2">
    <path d="M 0 321.586942 
L 1152 321.586942 
L 1152 0 
L 0 0 
z
" style="fill: #212830"/>
   </g>
   <g id="patch_3">
    <path d="M 1099.636364 40.960194 
L 1080.466566 38.2994 
L 1059.526801 35.569723 
L 1038.549718 33.008589 
L 1017.539372 30.611286 
L 996.505262 28.378444 
L 975.449879 26.312927 
L 954.37058 24.414341 
L 933.272886 22.678456 
L 912.171495 21.105385 
L 891.075777 19.699699 
L 869.985853 18.46413 
L 848.905512 17.395988 
L 827.848437 16.495712 
L 806.825241 15.767522 
L 785.835757 15.216257 
L 764.881307 14.840318 
L 743.9746 14.639207 
L 723.126782 14.617588 
L 702.339735 14.78066 
L 681.614018 15.128251 
L 660.962624 15.65942 
L 640.399209 16.378545 
L 619.926056 17.291938 
L 599.546457 18.399601 
L 579.274853 19.700406 
L 559.127475 21.199305 
L 539.107794 22.902972 
L 519.222548 24.810089 
L 499.491782 26.919791 
L 479.931163 29.238557 
L 460.546587 31.770929 
L 441.352525 34.513606 
L 422.373328 37.467093 
L 403.62481 40.636248 
L 385.120553 44.017539 
L 366.898782 47.597153 
L 349.005602 51.372973 
L 331.469199 55.347285 
L 314.320621 59.505803 
L 297.615548 63.828243 
L 281.404041 68.307492 
L 265.721034 72.929707 
L 250.614129 77.6615 
L 236.141784 82.473251 
L 222.343829 87.346536 
L 209.246381 92.249157 
L 196.879439 97.140384 
L 185.263315 101.993721 
L 174.394595 106.79018 
L 164.258115 111.502499 
L 154.836712 116.106327 
L 146.104198 120.593106 
L 138.021616 124.96251 
L 130.543691 129.210094 
L 123.628461 133.328788 
L 117.237699 137.319777 
L 111.332013 141.192043 
L 105.872113 144.954585 
L 100.820258 148.613226 
L 96.145341 152.170242 
L 91.821905 155.632684 
L 87.826624 159.012959 
L 84.131502 162.327267 
L 80.70541 165.580895 
L 74.544022 171.885779 
L 69.202104 177.850362 
L 66.839203 180.705405 
L 64.688567 183.496419 
L 62.749043 186.245837 
L 61.009382 188.974738 
L 59.453038 191.688172 
L 58.061571 194.382158 
L 56.822129 197.040636 
L 55.729093 199.651502 
L 54.784174 202.204603 
L 53.992903 204.699258 
L 53.359961 207.142628 
L 52.886084 209.541897 
L 52.567333 211.902576 
L 52.387913 214.416608 
L 52.363636 216.552315 
L 52.480001 218.892623 
L 52.759512 221.225032 
L 53.222825 223.538805 
L 53.895435 225.834391 
L 54.798755 228.11558 
L 55.940566 230.381234 
L 57.313611 232.624006 
L 58.902475 234.831281 
L 60.696863 236.990967 
L 62.695764 239.093202 
L 64.908242 241.133283 
L 67.343269 243.110923 
L 70.006282 245.030609 
L 72.894345 246.898667 
L 76.005268 248.722046 
L 79.337289 250.504507 
L 82.900421 252.247509 
L 86.709291 253.95164 
L 90.787212 255.618895 
L 95.15743 257.255802 
L 99.843498 258.872464 
L 104.871386 260.480013 
L 116.07201 263.702647 
L 122.326113 265.325519 
L 129.085147 266.959449 
L 136.407518 268.609441 
L 144.357399 270.280356 
L 153.002949 271.974144 
L 162.42071 273.687714 
L 172.692835 275.415815 
L 183.898425 277.156127 
L 196.103942 278.904732 
L 209.359625 280.648438 
L 223.698347 282.368267 
L 239.126697 284.049726 
L 255.608819 285.680721 
L 273.076532 287.240071 
L 291.451284 288.709914 
L 310.63551 290.085149 
L 330.515578 291.35842 
L 350.99899 292.521004 
L 372.007149 293.577228 
L 393.460313 294.532026 
L 437.554213 296.14624 
L 462.504569 296.938023 
L 462.431263 299.341915 
L 505.59732 300.598346 
L 551.527827 301.589006 
L 668.721095 303.518756 
L 715.778068 304.057157 
L 906.03703 305.718705 
L 1000.853922 306.378708 
L 1099.636364 306.969354 
L 1099.636364 40.960194 
L 1099.636364 40.960194 
" clip-path="url(#pf14a9eff3d)" style="fill: none; stroke: #ff0000; stroke-width: 0.72; stroke-linejoin: miter"/>
   </g>
   <g id="patch_4">
    <path d="M 639.509882 240.844338 
L 651.534932 240.844338 
L 651.534932 252.869387 
L 639.509882 252.869387 
L 651.534932 252.869387 
L 651.534932 264.894436 
L 639.509882 264.894436 
" clip-path="url(#pf14a9eff3d)" style="fill: none; stroke: #ff0000; stroke-width: 0.72; stroke-linejoin: miter"/>
   </g>
   <g id="patch_5">
    <path d="M 669.572505 240.844338 
L 657.547456 240.844338 
L 657.547456 252.869387 
L 669.572505 252.869387 
L 669.572505 264.894436 
L 657.547456 264.894436 
" clip-path="url(#pf14a9eff3d)" style="fill: none; stroke: #ff0000; stroke-width: 0.72; stroke-linejoin: miter"/>
   </g>
   <g id="patch_6">
    <path d="M 632.967869 26.339762 
L 623.357393 26.768606 
L 622.92855 17.15813 
L 632.539026 16.729286 
L 632.967869 26.339762 
" clip-path="url(#pf14a9eff3d)" style="fill: none; stroke: #ff0000; stroke-width: 0.72; stroke-linejoin: miter"/>
   </g>
   <g id="patch_7">
    <path d="M 276.087101 79.903977 
L 266.859578 82.623899 
L 264.139655 73.396376 
L 273.367178 70.676454 
L 276.087101 79.903977 
" clip-path="url(#pf14a9eff3d)" style="fill: none; stroke: #ff0000; stroke-width: 0.72; stroke-linejoin: miter"/>
   </g>
   <g id="patch_8">
    <path d="M 96.087215 167.757039 
L 92.507458 170.969769 
L 84.475634 162.020377 
L 88.055391 158.807647 
L 96.087215 167.757039 
" clip-path="url(#pf14a9eff3d)" style="fill: none; stroke: #ff0000; stroke-width: 0.72; stroke-linejoin: miter"/>
   </g>
   <g id="patch_9">
    <path d="M 74.759489 233.632448 
L 78.665247 236.439822 
L 71.646813 246.204216 
L 67.741056 243.396843 
L 74.759489 233.632448 
" clip-path="url(#pf14a9eff3d)" style="fill: none; stroke: #ff0000; stroke-width: 0.72; stroke-linejoin: miter"/>
   </g>
   <g id="patch_10">
    <path d="M 353.726035 283.025915 
L 363.33394 283.508942 
L 362.850912 293.116848 
L 353.243007 292.63382 
L 353.726035 283.025915 
" clip-path="url(#pf14a9eff3d)" style="fill: none; stroke: #ff0000; stroke-width: 0.72; stroke-linejoin: miter"/>
   </g>
   <g id="patch_11">
    <path d="M 961.721614 160.320236 
L 961.621774 155.279053 
L 961.32243 150.246773 
L 960.82411 145.232283 
L 960.127696 140.244441 
L 959.234416 135.292054 
L 958.145848 130.383869 
L 956.863916 125.528555 
L 955.390882 120.734686 
L 953.729348 116.010729 
L 951.882249 111.365026 
L 949.852848 106.805783 
L 947.644727 102.341051 
L 945.261787 97.978716 
L 942.708236 93.726482 
L 939.988585 89.591859 
L 937.107635 85.582148 
L 934.070476 81.704432 
L 930.882472 77.965558 
L 927.549251 74.372131 
L 924.076702 70.930495 
L 920.470957 67.646731 
L 916.738384 64.526636 
L 912.885576 61.575722 
L 908.919336 58.799199 
L 904.846669 56.201972 
L 900.674769 53.788628 
L 896.411002 51.563428 
L 892.0629 49.530303 
L 887.638142 47.692843 
L 883.144541 46.054294 
L 878.590034 44.617548 
L 873.982666 43.385145 
L 869.330572 42.359259 
L 864.641969 41.541703 
L 859.925137 40.933922 
L 855.188407 40.536987 
L 850.440144 40.351601 
L 845.688734 40.378091 
L 840.942568 40.616409 
L 836.21003 41.066136 
L 831.499476 41.726476 
L 826.819226 42.596264 
L 822.177546 43.673963 
L 817.582633 44.957671 
L 813.042603 46.445119 
L 808.565473 48.133681 
L 804.159151 50.020375 
L 799.831419 52.101869 
L 795.589919 54.374486 
L 791.442143 56.834214 
L 787.395416 59.476707 
L 783.456885 62.297299 
L 779.633505 65.291009 
L 775.93203 68.45255 
L 772.358996 71.776337 
L 768.920713 75.2565 
L 765.623255 78.886895 
L 762.472444 82.661108 
L 759.473845 86.572474 
L 756.632754 90.614085 
L 753.954189 94.778805 
L 751.442879 99.059276 
L 749.103262 103.44794 
L 746.939467 107.937045 
L 744.955318 112.518664 
L 743.154317 117.184705 
L 741.539646 121.926928 
L 740.114157 126.736956 
L 738.880367 131.606296 
L 737.840454 136.526347 
L 736.996256 141.488421 
L 736.349264 146.483753 
L 735.900619 151.503521 
L 735.651115 156.538861 
L 735.601193 161.580879 
L 735.750939 166.620671 
L 736.10009 171.649335 
L 736.64803 176.657992 
L 737.39379 181.637794 
L 738.336053 186.579947 
L 739.473155 191.475724 
L 740.803089 196.316477 
L 742.323505 201.093657 
L 744.031717 205.798827 
L 745.92471 210.423679 
L 747.99914 214.960043 
L 750.251344 219.399907 
L 752.677343 223.735432 
L 755.272853 227.95896 
L 758.033291 232.063031 
L 760.95378 236.040398 
L 764.029164 239.884037 
L 767.254011 243.587158 
L 770.622625 247.143222 
L 774.129058 250.545949 
L 777.767116 253.789328 
L 781.530374 256.867633 
L 785.412186 259.775426 
L 789.405697 262.507572 
L 793.503854 265.059246 
L 797.699418 267.425941 
L 801.98498 269.603477 
L 806.352972 271.58801 
L 810.795678 273.376032 
L 815.305254 274.964388 
L 819.873734 276.350272 
L 824.49305 277.531236 
L 829.155045 278.505195 
L 833.851484 279.270428 
L 838.574073 279.825584 
L 843.314471 280.169682 
L 848.064308 280.302115 
L 852.815193 280.22265 
L 857.558737 279.931425 
L 862.286562 279.428956 
L 866.990318 278.71613 
L 871.661698 277.794206 
L 876.292451 276.664812 
L 880.874401 275.329943 
L 885.399453 273.791956 
L 889.859618 272.053567 
L 894.247017 270.117847 
L 898.553902 267.988215 
L 902.772667 265.66843 
L 906.89586 263.162592 
L 910.916201 260.475124 
L 914.826589 257.610773 
L 918.620117 254.574598 
L 922.290086 251.371961 
L 925.830015 248.008519 
L 929.233651 244.49021 
L 932.494984 240.82325 
L 935.608253 237.014114 
L 938.567961 233.06953 
L 941.36888 228.996464 
L 944.006063 224.802109 
L 946.474854 220.493873 
L 948.770891 216.079365 
L 950.89012 211.566381 
L 952.828798 206.962892 
L 954.583502 202.277027 
L 956.151132 197.517063 
L 957.528919 192.691406 
L 958.714431 187.808579 
L 959.705574 182.877204 
L 960.500596 177.905992 
L 961.098095 172.903721 
L 961.497015 167.879228 
L 961.696651 162.841384 
L 961.721614 160.320236 
L 961.721614 160.320236 
" clip-path="url(#pf14a9eff3d)" style="fill: none; stroke: #ff0000; stroke-width: 0.72; stroke-linejoin: miter"/>
   </g>
   <g id="patch_12">
    <path d="M 397.973288 148.295186 
L 409.998337 160.320236 
L 397.973288 172.345285 
L 385.948239 160.320236 
L 397.973288 148.295186 
" clip-path="url(#pf14a9eff3d)" style="fill: none; stroke: #ff0000; stroke-width: 0.72; stroke-linejoin: miter"/>
   </g>
   <g id="patch_13">
    <path d="M 841.930661 148.295186 
L 853.95571 160.320236 
L 841.930661 172.345285 
L 829.905612 160.320236 
L 841.930661 148.295186 
" clip-path="url(#pf14a9eff3d)" style="fill: none; stroke: #ff0000; stroke-width: 0.72; stroke-linejoin: miter"/>
   </g>
   <g id="patch_14">
    <path d="M 479.060916 227.785981 
L 490.289355 240.558051 
L 477.517286 251.78649 
L 466.288846 239.01442 
L 479.060916 227.785981 
" clip-path="url(#pf14a9eff3d)" style="fill: none; stroke: #ff0000; stroke-width: 0.72; stroke-linejoin: miter"/>
   </g>
   <g id="patch_15">
    <path d="M 991.757353 260.760863 
L 1002.985792 273.532933 
L 990.213722 284.761372 
L 978.985283 271.989302 
L 991.757353 260.760863 
" clip-path="url(#pf14a9eff3d)" style="fill: none; stroke: #ff0000; stroke-width: 0.72; stroke-linejoin: miter"/>
   </g>
   <g id="patch_16">
    <path d="M 475.881759 200.281296 
L 487.906808 188.256247 
L 499.931857 200.281296 
L 487.906808 212.306345 
L 475.881759 200.281296 
" clip-path="url(#pf14a9eff3d)" style="fill: none; stroke: #ff0000; stroke-width: 0.72; stroke-linejoin: miter"/>
   </g>
   <g id="patch_17">
    <path d="M 475.881759 128.11716 
L 487.906808 116.09211 
L 499.931857 128.11716 
L 487.906808 140.142209 
L 475.881759 128.11716 
" clip-path="url(#pf14a9eff3d)" style="fill: none; stroke: #ff0000; stroke-width: 0.72; stroke-linejoin: miter"/>
   </g>
   <g id="line2d_1">
    <path d="M 86.369142 160.320236 
L 1099.636364 160.320236 
" clip-path="url(#pf14a9eff3d)" style="fill: none; stroke: #ffffff; stroke-width: 0.72; stroke-linecap: square"/>
   </g>
   <g id="line2d_2">
    <path d="M 383.543229 160.320236 
L 412.403347 160.320236 
" clip-path="url(#pf14a9eff3d)" style="fill: none; stroke: #ffffff; stroke-width: 0.72; stroke-linecap: square"/>
   </g>
   <g id="line2d_3">
    <path d="M 827.500602 160.320236 
L 856.36072 160.320236 
" clip-path="url(#pf14a9eff3d)" style="fill: none; stroke: #ffffff; stroke-width: 0.72; stroke-linecap: square"/>
   </g>
   <g id="line2d_4">
    <path d="M 52.531621 212.40297 
L 1099.636364 279.749167 
" clip-path="url(#pf14a9eff3d)" style="fill: none; stroke: #ffffff; stroke-width: 0.72; stroke-linecap: square"/>
   </g>
   <g id="line2d_5">
    <path d="M 463.888796 238.860057 
L 492.689406 240.712414 
" clip-path="url(#pf14a9eff3d)" style="fill: none; stroke: #ffffff; stroke-width: 0.72; stroke-linecap: square"/>
   </g>
   <g id="line2d_6">
    <path d="M 976.585232 271.834939 
L 1005.385843 273.687296 
" clip-path="url(#pf14a9eff3d)" style="fill: none; stroke: #ffffff; stroke-width: 0.72; stroke-linecap: square"/>
   </g>
   <g id="line2d_7">
    <path d="M 848.658283 40.3367 
L 848.658283 37.93169 
" clip-path="url(#pf14a9eff3d)" style="fill: none; stroke: #ff0000; stroke-width: 0.72; stroke-linecap: square"/>
   </g>
   <g id="line2d_8">
    <path d="M 848.658283 280.303771 
L 848.658283 282.708781 
" clip-path="url(#pf14a9eff3d)" style="fill: none; stroke: #ff0000; stroke-width: 0.72; stroke-linecap: square"/>
   </g>
   <g id="line2d_9">
    <path d="M 961.721614 160.320236 
L 964.126624 160.320236 
" clip-path="url(#pf14a9eff3d)" style="fill: none; stroke: #ff0000; stroke-width: 0.72; stroke-linecap: square"/>
   </g>
   <g id="line2d_10">
    <path d="M 735.594952 160.320236 
L 733.189942 160.320236 
" clip-path="url(#pf14a9eff3d)" style="fill: none; stroke: #ff0000; stroke-width: 0.72; stroke-linecap: square"/>
   </g>
   <g id="line2d_11">
    <path d="M 487.906808 300.105352 
L 487.906808 28.293103 
" clip-path="url(#pf14a9eff3d)" style="fill: none; stroke: #ffffff; stroke-width: 0.72; stroke-linecap: square"/>
   </g>
   <g id="line2d_12">
    <path d="M 487.906808 214.711355 
L 487.906808 185.851237 
" clip-path="url(#pf14a9eff3d)" style="fill: none; stroke: #ffffff; stroke-width: 0.72; stroke-linecap: square"/>
   </g>
   <g id="line2d_13">
    <path d="M 487.906808 142.547219 
L 487.906808 113.687101 
" clip-path="url(#pf14a9eff3d)" style="fill: none; stroke: #ffffff; stroke-width: 0.72; stroke-linecap: square"/>
   </g>
  </g>
 </g>
 <defs>
  <clipPath id="pf14a9eff3d">
   <rect x="0" y="0" width="1152" height="321.586942"/>
  </clipPath>
 </defs>
</svg>
