<?xml version="1.0" encoding="utf-8" standalone="no"?>
<!DOCTYPE svg PUBLIC "-//W3C//DTD SVG 1.1//EN"
  "http://www.w3.org/Graphics/SVG/1.1/DTD/svg11.dtd">
<svg xmlns:xlink="http://www.w3.org/1999/xlink" width="802.880108pt" height="345.6pt" viewBox="0 0 802.880108 345.6" xmlns="http://www.w3.org/2000/svg" version="1.1">
 <metadata>
  <rdf:RDF xmlns:dc="http://purl.org/dc/elements/1.1/" xmlns:cc="http://creativecommons.org/ns#" xmlns:rdf="http://www.w3.org/1999/02/22-rdf-syntax-ns#">
   <cc:Work>
    <dc:type rdf:resource="http://purl.org/dc/dcmitype/StillImage"/>
    <dc:date>2026-01-07T02:07:14.072396</dc:date>
    <dc:format>image/svg+xml</dc:format>
    <dc:creator>
     <cc:Agent>
      <dc:title>Matplotlib v3.10.1, https://matplotlib.org/</dc:title>
     </cc:Agent>
    </dc:creator>
   </cc:Work>
  </rdf:RDF>
 </metadata>
 <defs>
  <style type="text/css">*{stroke-linejoin: round; stroke-linecap: butt}</style>
 </defs>
 <g id="figure_1">
  <g id="patch_1">
   <path d="M 0 345.6 
L 802.880108 345.6 
L 802.880108 0 
L 0 0 
z
" style="fill: #ffffff"/>
  </g>
  <g id="axes_1">
   <g id="patch_2">
    <path d="M 0 345.6 
L 802.880108 345.6 
L 802.880108 0 
L 0 0 
z
" style="fill: #212830"/>
   </g>
   <g id="patch_3">
    <path d="M 36.49455 329.890909 
L 766.385558 193.934771 
L 766.385558 193.934771 
L 764.766824 193.388992 
L 735.140917 183.542713 
L 705.669066 173.90887 
L 676.329432 164.492565 
L 647.110801 155.297318 
L 618.001286 146.331104 
L 588.977599 137.59858 
L 560.016636 129.097856 
L 531.106419 120.827967 
L 502.238028 112.792423 
L 473.394622 104.993207 
L 444.558587 97.428443 
L 415.723249 90.094613 
L 386.886863 82.994007 
L 358.04019 76.129966 
L 329.17084 69.500139 
L 300.275791 63.101208 
L 271.358941 56.93495 
L 242.416295 51.004524 
L 213.440983 45.309134 
L 184.43011 39.845984 
L 155.390342 34.615011 
L 126.32345 29.620083 
L 97.223894 24.861933 
L 68.091226 20.337369 
L 38.932539 16.047487 
L 36.494552 15.709091 
L 36.49455 329.890909 
" clip-path="url(#p900f12117d)" style="fill: none; stroke: #ff0000; stroke-width: 0.72; stroke-linejoin: miter"/>
   </g>
   <g id="patch_4">
    <path d="M 637.0785 295.032718 
L 653.697497 295.032718 
L 653.697497 311.651715 
L 637.0785 311.651715 
L 653.697497 311.651715 
L 653.697497 328.270712 
L 637.0785 328.270712 
" clip-path="url(#p900f12117d)" style="fill: none; stroke: #ff0000; stroke-width: 0.72; stroke-linejoin: miter"/>
   </g>
   <g id="patch_5">
    <path d="M 662.006995 295.032718 
L 662.006995 311.651715 
L 678.625992 311.651715 
L 678.625992 295.032718 
L 678.625992 328.270712 
" clip-path="url(#p900f12117d)" style="fill: none; stroke: #ff0000; stroke-width: 0.72; stroke-linejoin: miter"/>
   </g>
   <g id="patch_6">
    <path d="M 482.757319 121.297614 
L 469.923021 117.827303 
L 473.393331 104.993005 
L 486.22763 108.463315 
L 482.757319 121.297614 
" clip-path="url(#p900f12117d)" style="fill: none; stroke: #ff0000; stroke-width: 0.72; stroke-linejoin: miter"/>
   </g>
   <g id="patch_7">
    <path d="M 296.656686 165.712751 
L 313.275683 182.331748 
L 296.656686 198.950745 
L 280.037689 182.331748 
L 296.656686 165.712751 
" clip-path="url(#p900f12117d)" style="fill: none; stroke: #ff0000; stroke-width: 0.72; stroke-linejoin: miter"/>
   </g>
   <g id="patch_8">
    <path d="M 666.761841 188.075819 
L 683.380838 171.456823 
L 699.999835 188.075819 
L 683.380838 204.694816 
L 666.761841 188.075819 
" clip-path="url(#p900f12117d)" style="fill: none; stroke: #ff0000; stroke-width: 0.72; stroke-linejoin: miter"/>
   </g>
   <g id="line2d_1">
    <path d="M 36.494552 182.331748 
L 731.436333 182.331748 
" clip-path="url(#p900f12117d)" style="fill: none; stroke: #ffffff; stroke-width: 0.72; stroke-linecap: square"/>
   </g>
   <g id="line2d_2">
    <path d="M 276.71389 182.331748 
L 316.599482 182.331748 
" clip-path="url(#p900f12117d)" style="fill: none; stroke: #ffffff; stroke-width: 0.72; stroke-linecap: square"/>
   </g>
   <g id="line2d_3">
    <path d="M 683.380838 209.395985 
L 683.380838 166.755654 
" clip-path="url(#p900f12117d)" style="fill: none; stroke: #ffffff; stroke-width: 0.72; stroke-linecap: square"/>
   </g>
   <g id="line2d_4">
    <path d="M 683.380838 208.018615 
L 683.380838 168.133023 
" clip-path="url(#p900f12117d)" style="fill: none; stroke: #ffffff; stroke-width: 0.72; stroke-linecap: square"/>
   </g>
  </g>
 </g>
 <defs>
  <clipPath id="p900f12117d">
   <rect x="0" y="0" width="802.880108" height="345.6"/>
  </clipPath>
 </defs>
</svg>
