  0
SECTION
  2
HEADER
  9
$ACADVER
  1
AC1021
  9
$ACADMAINTVER
 70
25
  9
$DWGCODEPAGE
  3
ANSI_1252
  9
$LASTSAVEDBY
  1
ezdxf
  9
$INSBASE
 10
0.0
 20
0.0
 30
0.0
  9
$EXTMIN
 10
1e+20
 20
1e+20
 30
1e+20
  9
$EXTMAX
 10
-1e+20
 20
-1e+20
 30
-1e+20
  9
$LIMMIN
 10
0.0
 20
0.0
  9
$LIMMAX
 10
420.0
 20
297.0
  9
$ORTHOMODE
 70
0
  9
$REGENMODE
 70
1
  9
$FILLMODE
 70
1
  9
$QTEXTMODE
 70
0
  9
$MIRRTEXT
 70
1
  9
$LTSCALE
 40
1.0
  9
$ATTMODE
 70
1
  9
$TEXTSIZE
 40
2.5
  9
$TRACEWID
 40
1.0
  9
$TEXTSTYLE
  7
OpenSans
  9
$CLAYER
  8
0
  9
$CELTYPE
  6
ByLayer
  9
$CECOLOR
 62
256
  9
$CELTSCALE
 40
1.0
  9
$DISPSILH
 70
0
  9
$DIMSCALE
 40
1.0
  9
$DIMASZ
 40
0.175
  9
$DIMEXO
 40
0.125
  9
$DIMDLI
 40
3.75
  9
$DIMRND
 40
0.0
  9
$DIMDLE
 40
0.0
  9
$DIMEXE
 40
0.375
  9
$DIMTP
 40
0.0
  9
$DIMTM
 40
0.0
  9
$DIMTXT
 40
0.25
  9
$DIMCEN
 40
2.5
  9
$DIMTSZ
 40
0.0
  9
$DIMTOL
 70
0
  9
$DIMLIM
 70
0
  9
$DIMTIH
 70
0
  9
$DIMTOH
 70
0
  9
$DIMSE1
 70
0
  9
$DIMSE2
 70
0
  9
$DIMTAD
 70
1
  9
$DIMZIN
 70
12
  9
$DIMBLK
  1
ARCHTICK
  9
$DIMASO
 70
1
  9
$DIMSHO
 70
1
  9
$DIMPOST
  1

  9
$DIMAPOST
  1

  9
$DIMALT
 70
0
  9
$DIMALTD
 70
3
  9
$DIMALTF
 40
0.03937007874
  9
$DIMLFAC
 40
100.0
  9
$DIMTOFL
 70
1
  9
$DIMTVP
 40
0.0
  9
$DIMTIX
 70
0
  9
$DIMSOXD
 70
0
  9
$DIMSAH
 70
0
  9
$DIMBLK1
  1

  9
$DIMBLK2
  1

  9
$DIMSTYLE
  2
EZDXF
  9
$DIMCLRD
 70
0
  9
$DIMCLRE
 70
0
  9
$DIMCLRT
 70
0
  9
$DIMTFAC
 40
0.5
  9
$DIMGAP
 40
0.1
  9
$DIMJUST
 70
0
  9
$DIMSD1
 70
0
  9
$DIMSD2
 70
0
  9
$DIMTOLJ
 70
0
  9
$DIMTZIN
 70
8
  9
$DIMALTZ
 70
0
  9
$DIMALTTZ
 70
0
  9
$DIMUPT
 70
1
  9
$DIMDEC
 70
2
  9
$DIMTDEC
 70
2
  9
$DIMALTU
 70
2
  9
$DIMALTTD
 70
3
  9
$DIMTXSTY
  7
OpenSansCondensed-Light
  9
$DIMAUNIT
 70
0
  9
$DIMADEC
 70
2
  9
$DIMALTRND
 40
0.0
  9
$DIMAZIN
 70
3
  9
$DIMDSEP
 70
46
  9
$DIMATFIT
 70
3
  9
$DIMFRAC
 70
0
  9
$DIMLDRBLK
  1

  9
$DIMLUNIT
 70
2
  9
$DIMLWD
 70
-2
  9
$DIMLWE
 70
-2
  9
$DIMTMOVE
 70
2
  9
$DIMFXL
 40
1.0
  9
$DIMFXLON
 70
0
  9
$DIMJOGANG
 40
0.785398163397
  9
$DIMTFILL
 70
0
  9
$DIMTFILLCLR
 70
0
  9
$DIMARCSYM
 70
0
  9
$DIMLTYPE
  6

  9
$DIMLTEX1
  6

  9
$DIMLTEX2
  6

  9
$LUNITS
 70
2
  9
$LUPREC
 70
4
  9
$SKETCHINC
 40
1.0
  9
$FILLETRAD
 40
10.0
  9
$AUNITS
 70
0
  9
$AUPREC
 70
2
  9
$MENU
  1
.
  9
$ELEVATION
 40
0.0
  9
$PELEVATION
 40
0.0
  9
$THICKNESS
 40
0.0
  9
$LIMCHECK
 70
0
  9
$CHAMFERA
 40
0.0
  9
$CHAMFERB
 40
0.0
  9
$CHAMFERC
 40
0.0
  9
$CHAMFERD
 40
0.0
  9
$SKPOLY
 70
0
  9
$TDCREATE
 40
2461048.0884722224
  9
$TDUCREATE
 40
2458532.153996898
  9
$TDUPDATE
 40
2461048.0884722224
  9
$TDUUPDATE
 40
2458532.1544311
  9
$TDINDWG
 40
0.0
  9
$TDUSRTIMER
 40
0.0
  9
$USRTIMER
 70
1
  9
$ANGBASE
 50
0.0
  9
$ANGDIR
 70
0
  9
$PDMODE
 70
0
  9
$PDSIZE
 40
0.0
  9
$PLINEWID
 40
0.0
  9
$SPLFRAME
 70
0
  9
$SPLINETYPE
 70
6
  9
$SPLINESEGS
 70
8
  9
$HANDSEED
  5
B9
  9
$SURFTAB1
 70
6
  9
$SURFTAB2
 70
6
  9
$SURFTYPE
 70
6
  9
$SURFU
 70
6
  9
$SURFV
 70
6
  9
$UCSBASE
  2

  9
$UCSNAME
  2

  9
$UCSORG
 10
0.0
 20
0.0
 30
0.0
  9
$UCSXDIR
 10
1.0
 20
0.0
 30
0.0
  9
$UCSYDIR
 10
0.0
 20
1.0
 30
0.0
  9
$UCSORTHOREF
  2

  9
$UCSORTHOVIEW
 70
0
  9
$UCSORGTOP
 10
0.0
 20
0.0
 30
0.0
  9
$UCSORGBOTTOM
 10
0.0
 20
0.0
 30
0.0
  9
$UCSORGLEFT
 10
0.0
 20
0.0
 30
0.0
  9
$UCSORGRIGHT
 10
0.0
 20
0.0
 30
0.0
  9
$UCSORGFRONT
 10
0.0
 20
0.0
 30
0.0
  9
$UCSORGBACK
 10
0.0
 20
0.0
 30
0.0
  9
$PUCSBASE
  2

  9
$PUCSNAME
  2

  9
$PUCSORG
 10
0.0
 20
0.0
 30
0.0
  9
$PUCSXDIR
 10
1.0
 20
0.0
 30
0.0
  9
$PUCSYDIR
 10
0.0
 20
1.0
 30
0.0
  9
$PUCSORTHOREF
  2

  9
$PUCSORTHOVIEW
 70
0
  9
$PUCSORGTOP
 10
0.0
 20
0.0
 30
0.0
  9
$PUCSORGBOTTOM
 10
0.0
 20
0.0
 30
0.0
  9
$PUCSORGLEFT
 10
0.0
 20
0.0
 30
0.0
  9
$PUCSORGRIGHT
 10
0.0
 20
0.0
 30
0.0
  9
$PUCSORGFRONT
 10
0.0
 20
0.0
 30
0.0
  9
$PUCSORGBACK
 10
0.0
 20
0.0
 30
0.0
  9
$USERI1
 70
0
  9
$USERI2
 70
0
  9
$USERI3
 70
0
  9
$USERI4
 70
0
  9
$USERI5
 70
0
  9
$USERR1
 40
0.0
  9
$USERR2
 40
0.0
  9
$USERR3
 40
0.0
  9
$USERR4
 40
0.0
  9
$USERR5
 40
0.0
  9
$WORLDVIEW
 70
1
  9
$SHADEDGE
 70
3
  9
$SHADEDIF
 70
70
  9
$TILEMODE
 70
1
  9
$MAXACTVP
 70
64
  9
$PINSBASE
 10
0.0
 20
0.0
 30
0.0
  9
$PLIMCHECK
 70
0
  9
$PEXTMIN
 10
1e+20
 20
1e+20
 30
1e+20
  9
$PEXTMAX
 10
-1e+20
 20
-1e+20
 30
-1e+20
  9
$PLIMMIN
 10
0.0
 20
0.0
  9
$PLIMMAX
 10
420.0
 20
297.0
  9
$UNITMODE
 70
0
  9
$VISRETAIN
 70
1
  9
$PLINEGEN
 70
0
  9
$PSLTSCALE
 70
1
  9
$TREEDEPTH
 70
3020
  9
$CMLSTYLE
  2
Standard
  9
$CMLJUST
 70
0
  9
$CMLSCALE
 40
20.0
  9
$PROXYGRAPHICS
 70
1
  9
$MEASUREMENT
 70
1
  9
$CELWEIGHT
370
-1
  9
$ENDCAPS
280
0
  9
$JOINSTYLE
280
0
  9
$LWDISPLAY
290
0
  9
$INSUNITS
 70
6
  9
$HYPERLINKBASE
  1

  9
$STYLESHEET
  1

  9
$XEDIT
290
1
  9
$CEPSNTYPE
380
0
  9
$PSTYLEMODE
290
1
  9
$FINGERPRINTGUID
  2
{DF319EB9-0E37-41D1-AB57-BF5E80BE2EB9}
  9
$VERSIONGUID
  2
{9CDFF37C-A6D6-458C-8254-8689524443D4}
  9
$EXTNAMES
290
1
  9
$PSVPSCALE
 40
0.0
  9
$OLESTARTUP
290
0
  9
$SORTENTS
280
127
  9
$INDEXCTL
280
0
  9
$HIDETEXT
280
1
  9
$XCLIPFRAME
290
1
  9
$HALOGAP
280
0
  9
$OBSCOLOR
 70
257
  9
$OBSLTYPE
280
0
  9
$INTERSECTIONDISPLAY
280
0
  9
$INTERSECTIONCOLOR
 70
257
  9
$DIMASSOC
280
2
  9
$PROJECTNAME
  1

  9
$CAMERADISPLAY
290
0
  9
$LENSLENGTH
 40
50.0
  9
$CAMERAHEIGHT
 40
0.0
  9
$STEPSPERSEC
 40
24.0
  9
$STEPSIZE
 40
100.0
  9
$3DDWFPREC
 40
2.0
  9
$PSOLWIDTH
 40
0.005
  9
$PSOLHEIGHT
 40
0.08
  9
$LOFTANG1
 40
1.570796326795
  9
$LOFTANG2
 40
1.570796326795
  9
$LOFTMAG1
 40
0.0
  9
$LOFTMAG2
 40
0.0
  9
$LOFTPARAM
 70
7
  9
$LOFTNORMALS
280
1
  9
$LATITUDE
 40
37.795
  9
$LONGITUDE
 40
-122.394
  9
$NORTHDIRECTION
 40
0.0
  9
$TIMEZONE
 70
-8000
  9
$LIGHTGLYPHDISPLAY
280
1
  9
$TILEMODELIGHTSYNCH
280
1
  9
$CMATERIAL
347
20
  9
$SOLIDHIST
280
0
  9
$SHOWHIST
280
1
  9
$DWFFRAME
280
2
  9
$DGNFRAME
280
2
  9
$REALWORLDSCALE
290
1
  9
$INTERFERECOLOR
 62
256
  9
$CSHADOW
280
0
  9
$SHADOWPLANELOCATION
 40
0.0
  0
ENDSEC
  0
SECTION
  2
CLASSES
  0
CLASS
  1
ACDBDICTIONARYWDFLT
  2
AcDbDictionaryWithDefault
  3
ObjectDBX Classes
 90
0
 91
0
280
0
281
0
  0
CLASS
  1
SUN
  2
AcDbSun
  3
SCENEOE
 90
1153
 91
0
280
0
281
0
  0
CLASS
  1
VISUALSTYLE
  2
AcDbVisualStyle
  3
ObjectDBX Classes
 90
4095
 91
0
280
0
281
0
  0
CLASS
  1
MATERIAL
  2
AcDbMaterial
  3
ObjectDBX Classes
 90
1153
 91
0
280
0
281
0
  0
CLASS
  1
SCALE
  2
AcDbScale
  3
ObjectDBX Classes
 90
1153
 91
0
280
0
281
0
  0
CLASS
  1
TABLESTYLE
  2
AcDbTableStyle
  3
ObjectDBX Classes
 90
4095
 91
0
280
0
281
0
  0
CLASS
  1
MLEADERSTYLE
  2
AcDbMLeaderStyle
  3
ACDB_MLEADERSTYLE_CLASS
 90
4095
 91
0
280
0
281
0
  0
CLASS
  1
DICTIONARYVAR
  2
AcDbDictionaryVar
  3
ObjectDBX Classes
 90
0
 91
0
280
0
281
0
  0
CLASS
  1
CELLSTYLEMAP
  2
AcDbCellStyleMap
  3
ObjectDBX Classes
 90
1152
 91
0
280
0
281
0
  0
CLASS
  1
MENTALRAYRENDERSETTINGS
  2
AcDbMentalRayRenderSettings
  3
SCENEOE
 90
1024
 91
0
280
0
281
0
  0
CLASS
  1
ACDBDETAILVIEWSTYLE
  2
AcDbDetailViewStyle
  3
ObjectDBX Classes
 90
1025
 91
0
280
0
281
0
  0
CLASS
  1
ACDBSECTIONVIEWSTYLE
  2
AcDbSectionViewStyle
  3
ObjectDBX Classes
 90
1025
 91
0
280
0
281
0
  0
CLASS
  1
RASTERVARIABLES
  2
AcDbRasterVariables
  3
ISM
 90
0
 91
0
280
0
281
0
  0
CLASS
  1
ACDBPLACEHOLDER
  2
AcDbPlaceHolder
  3
ObjectDBX Classes
 90
0
 91
0
280
0
281
0
  0
CLASS
  1
LAYOUT
  2
AcDbLayout
  3
ObjectDBX Classes
 90
0
 91
0
280
0
281
0
  0
ENDSEC
  0
SECTION
  2
TABLES
  0
TABLE
  2
VPORT
  5
8
330
0
100
AcDbSymbolTable
 70
1
  0
VPORT
  5
23
330
8
100
AcDbSymbolTableRecord
100
AcDbViewportTableRecord
  2
*Active
 70
0
 10
0.0
 20
0.0
 11
1.0
 21
1.0
 12
0.0
 22
0.0
 13
0.0
 23
0.0
 14
0.5
 24
0.5
 15
0.5
 25
0.5
 16
0.0
 26
0.0
 36
1.0
 17
0.0
 27
0.0
 37
0.0
 40
1000.0
 41
1.34
 42
50.0
 43
0.0
 44
0.0
 50
0.0
 51
0.0
 71
0
 72
1000
 73
1
 74
3
 75
0
 76
0
 77
0
 78
0
281
0
 65
0
146
0.0
  0
ENDTAB
  0
TABLE
  2
LTYPE
  5
2
330
0
100
AcDbSymbolTable
 70
21
  0
LTYPE
  5
24
330
2
100
AcDbSymbolTableRecord
100
AcDbLinetypeTableRecord
  2
ByBlock
 70
0
  3

 72
65
 73
0
 40
0.0
  0
LTYPE
  5
25
330
2
100
AcDbSymbolTableRecord
100
AcDbLinetypeTableRecord
  2
ByLayer
 70
0
  3

 72
65
 73
0
 40
0.0
  0
LTYPE
  5
26
330
2
100
AcDbSymbolTableRecord
100
AcDbLinetypeTableRecord
  2
Continuous
 70
0
  3

 72
65
 73
0
 40
0.0
  0
LTYPE
  5
2F
330
2
100
AcDbSymbolTableRecord
100
AcDbLinetypeTableRecord
  2
CENTER
 70
0
  3
Center ____ _ ____ _ ____ _ ____ _ ____ _ ____
 72
65
 73
4
 40
5.08
 49
3.175
 74
0
 49
-0.635
 74
0
 49
0.635
 74
0
 49
-0.635
 74
0
  0
LTYPE
  5
30
330
2
100
AcDbSymbolTableRecord
100
AcDbLinetypeTableRecord
  2
CENTERX2
 70
0
  3
Center (2x) ________  __  ________  __  ________
 72
65
 73
4
 40
8.89
 49
6.35
 74
0
 49
-0.635
 74
0
 49
1.27
 74
0
 49
-0.635
 74
0
  0
LTYPE
  5
31
330
2
100
AcDbSymbolTableRecord
100
AcDbLinetypeTableRecord
  2
CENTER2
 70
0
  3
Center (.5x) ____ _ ____ _ ____ _ ____ _ ____
 72
65
 73
4
 40
2.54
 49
1.587
 74
0
 49
-0.318
 74
0
 49
0.318
 74
0
 49
-0.318
 74
0
  0
LTYPE
  5
32
330
2
100
AcDbSymbolTableRecord
100
AcDbLinetypeTableRecord
  2
DASHED
 70
0
  3
Dashed __ __ __ __ __ __ __ __ __ __ __ __ __ _
 72
65
 73
2
 40
1.524
 49
1.27
 74
0
 49
-0.254
 74
0
  0
LTYPE
  5
33
330
2
100
AcDbSymbolTableRecord
100
AcDbLinetypeTableRecord
  2
DASHEDX2
 70
0
  3
Dashed (2x) ____  ____  ____  ____  ____  ____
 72
65
 73
2
 40
3.048
 49
2.54
 74
0
 49
-0.508
 74
0
  0
LTYPE
  5
34
330
2
100
AcDbSymbolTableRecord
100
AcDbLinetypeTableRecord
  2
DASHED2
 70
0
  3
Dashed (.5x) _ _ _ _ _ _ _ _ _ _ _ _ _ _
 72
65
 73
2
 40
0.762
 49
0.635
 74
0
 49
-0.127
 74
0
  0
LTYPE
  5
35
330
2
100
AcDbSymbolTableRecord
100
AcDbLinetypeTableRecord
  2
PHANTOM
 70
0
  3
Phantom ______  __  __  ______  __  __  ______
 72
65
 73
6
 40
6.35
 49
3.175
 74
0
 49
-0.635
 74
0
 49
0.635
 74
0
 49
-0.635
 74
0
 49
0.635
 74
0
 49
-0.635
 74
0
  0
LTYPE
  5
36
330
2
100
AcDbSymbolTableRecord
100
AcDbLinetypeTableRecord
  2
PHANTOMX2
 70
0
  3
Phantom (2x)____________    ____    ____    ____________
 72
65
 73
6
 40
10.795
 49
6.35
 74
0
 49
-0.635
 74
0
 49
1.27
 74
0
 49
-0.635
 74
0
 49
1.27
 74
0
 49
-0.635
 74
0
  0
LTYPE
  5
37
330
2
100
AcDbSymbolTableRecord
100
AcDbLinetypeTableRecord
  2
PHANTOM2
 70
0
  3
Phantom (.5x) ___ _ _ ___ _ _ ___ _ _ ___ _ _ ___
 72
65
 73
6
 40
3.175
 49
1.587
 74
0
 49
-0.318
 74
0
 49
0.318
 74
0
 49
-0.318
 74
0
 49
0.318
 74
0
 49
-0.318
 74
0
  0
LTYPE
  5
38
330
2
100
AcDbSymbolTableRecord
100
AcDbLinetypeTableRecord
  2
DASHDOT
 70
0
  3
Dash dot __ . __ . __ . __ . __ . __ . __ . __
 72
65
 73
4
 40
3.556
 49
2.54
 74
0
 49
-0.508
 74
0
 49
0.0
 74
0
 49
-0.508
 74
0
  0
LTYPE
  5
39
330
2
100
AcDbSymbolTableRecord
100
AcDbLinetypeTableRecord
  2
DASHDOTX2
 70
0
  3
Dash dot (2x) ____  .  ____  .  ____  .  ____
 72
65
 73
4
 40
6.096
 49
5.08
 74
0
 49
-0.508
 74
0
 49
0.0
 74
0
 49
-0.508
 74
0
  0
LTYPE
  5
3A
330
2
100
AcDbSymbolTableRecord
100
AcDbLinetypeTableRecord
  2
DASHDOT2
 70
0
  3
Dash dot (.5x) _ . _ . _ . _ . _ . _ . _ . _
 72
65
 73
4
 40
1.778
 49
1.27
 74
0
 49
-0.254
 74
0
 49
0.0
 74
0
 49
-0.254
 74
0
  0
LTYPE
  5
3B
330
2
100
AcDbSymbolTableRecord
100
AcDbLinetypeTableRecord
  2
DOT
 70
0
  3
Dot .  .  .  .  .  .  .  .  .  .  .  .  .  .  .  .
 72
65
 73
2
 40
0.508
 49
0.0
 74
0
 49
-0.508
 74
0
  0
LTYPE
  5
3C
330
2
100
AcDbSymbolTableRecord
100
AcDbLinetypeTableRecord
  2
DOTX2
 70
0
  3
Dot (2x) .    .    .    .    .    .    .    . 
 72
65
 73
2
 40
1.016
 49
0.0
 74
0
 49
-1.016
 74
0
  0
LTYPE
  5
3D
330
2
100
AcDbSymbolTableRecord
100
AcDbLinetypeTableRecord
  2
DOT2
 70
0
  3
Dot (.5) . . . . . . . . . . . . . . . . . . . 
 72
65
 73
2
 40
0.254
 49
0.0
 74
0
 49
-0.254
 74
0
  0
LTYPE
  5
3E
330
2
100
AcDbSymbolTableRecord
100
AcDbLinetypeTableRecord
  2
DIVIDE
 70
0
  3
Divide __ . . __ . . __ . . __ . . __ . . __
 72
65
 73
6
 40
4.064
 49
2.54
 74
0
 49
-0.508
 74
0
 49
0.0
 74
0
 49
-0.508
 74
0
 49
0.0
 74
0
 49
-0.508
 74
0
  0
LTYPE
  5
3F
330
2
100
AcDbSymbolTableRecord
100
AcDbLinetypeTableRecord
  2
DIVIDEX2
 70
0
  3
Divide (2x) ____  . .  ____  . .  ____  . .  ____
 72
65
 73
6
 40
6.604
 49
5.08
 74
0
 49
-0.508
 74
0
 49
0.0
 74
0
 49
-0.508
 74
0
 49
0.0
 74
0
 49
-0.508
 74
0
  0
LTYPE
  5
40
330
2
100
AcDbSymbolTableRecord
100
AcDbLinetypeTableRecord
  2
DIVIDE2
 70
0
  3
Divide(.5x) _ . _ . _ . _ . _ . _ . _ . _
 72
65
 73
6
 40
2.032
 49
1.27
 74
0
 49
-0.254
 74
0
 49
0.0
 74
0
 49
-0.254
 74
0
 49
0.0
 74
0
 49
-0.254
 74
0
  0
ENDTAB
  0
TABLE
  2
LAYER
  5
1
330
0
100
AcDbSymbolTable
 70
4
  0
LAYER
  5
27
330
1
100
AcDbSymbolTableRecord
100
AcDbLayerTableRecord
  2
0
 70
0
 62
7
  6
Continuous
370
-3
390
13
347
21
  0
LAYER
  5
28
330
1
100
AcDbSymbolTableRecord
100
AcDbLayerTableRecord
  2
Defpoints
 70
0
 62
7
  6
Continuous
290
0
370
-3
390
13
347
21
  0
LAYER
  5
8A
330
1
100
AcDbSymbolTableRecord
100
AcDbLayerTableRecord
  2
Layer
 70
0
 62
1
  6
Continuous
370
50
390
13
347
21
  0
LAYER
  5
8B
330
1
100
AcDbSymbolTableRecord
100
AcDbLayerTableRecord
  2
NumLabel
 70
0
 62
1
  6
Continuous
370
15
390
13
347
21
  0
ENDTAB
  0
TABLE
  2
STYLE
  5
5
330
0
100
AcDbSymbolTable
 70
26
  0
STYLE
  5
29
330
5
100
AcDbSymbolTableRecord
100
AcDbTextStyleTableRecord
  2
Standard
 70
0
 40
0.0
 41
1.0
 50
0.0
 71
0
 42
2.5
  3
txt
  4

  0
STYLE
  5
41
330
5
100
AcDbSymbolTableRecord
100
AcDbTextStyleTableRecord
  2
OpenSans-Light
 70
0
 40
0.0
 41
1.0
 50
0.0
 71
0
 42
2.5
  3
OpenSans-Light.ttf
  4

  0
STYLE
  5
42
330
5
100
AcDbSymbolTableRecord
100
AcDbTextStyleTableRecord
  2
OpenSans-Light-Italic
 70
0
 40
0.0
 41
1.0
 50
0.0
 71
0
 42
2.5
  3
OpenSans-LightItalic.ttf
  4

  0
STYLE
  5
43
330
5
100
AcDbSymbolTableRecord
100
AcDbTextStyleTableRecord
  2
OpenSans
 70
0
 40
0.0
 41
1.0
 50
0.0
 71
0
 42
2.5
  3
OpenSans-Regular.ttf
  4

  0
STYLE
  5
44
330
5
100
AcDbSymbolTableRecord
100
AcDbTextStyleTableRecord
  2
OpenSans-Italic
 70
0
 40
0.0
 41
1.0
 50
0.0
 71
0
 42
2.5
  3
OpenSans-Italic.ttf
  4

  0
STYLE
  5
45
330
5
100
AcDbSymbolTableRecord
100
AcDbTextStyleTableRecord
  2
OpenSans-SemiBold
 70
0
 40
0.0
 41
1.0
 50
0.0
 71
0
 42
2.5
  3
OpenSans-SemiBold.ttf
  4

  0
STYLE
  5
46
330
5
100
AcDbSymbolTableRecord
100
AcDbTextStyleTableRecord
  2
OpenSans-SemiBoldItalic
 70
0
 40
0.0
 41
1.0
 50
0.0
 71
0
 42
2.5
  3
OpenSans-SemiBoldItalic.ttf
  4

  0
STYLE
  5
47
330
5
100
AcDbSymbolTableRecord
100
AcDbTextStyleTableRecord
  2
OpenSans-Bold
 70
0
 40
0.0
 41
1.0
 50
0.0
 71
0
 42
2.5
  3
OpenSans-Bold.ttf
  4

  0
STYLE
  5
48
330
5
100
AcDbSymbolTableRecord
100
AcDbTextStyleTableRecord
  2
OpenSans-BoldItalic
 70
0
 40
0.0
 41
1.0
 50
0.0
 71
0
 42
2.5
  3
OpenSans-BoldItalic.ttf
  4

  0
STYLE
  5
49
330
5
100
AcDbSymbolTableRecord
100
AcDbTextStyleTableRecord
  2
OpenSans-ExtraBold
 70
0
 40
0.0
 41
1.0
 50
0.0
 71
0
 42
2.5
  3
OpenSans-ExtraBold.ttf
  4

  0
STYLE
  5
4A
330
5
100
AcDbSymbolTableRecord
100
AcDbTextStyleTableRecord
  2
OpenSans-ExtraBoldItalic
 70
0
 40
0.0
 41
1.0
 50
0.0
 71
0
 42
2.5
  3
OpenSans-ExtraBoldItalic.ttf
  4

  0
STYLE
  5
4B
330
5
100
AcDbSymbolTableRecord
100
AcDbTextStyleTableRecord
  2
OpenSansCondensed-Bold
 70
0
 40
0.0
 41
1.0
 50
0.0
 71
0
 42
2.5
  3
OpenSansCondensed-Bold.ttf
  4

  0
STYLE
  5
4C
330
5
100
AcDbSymbolTableRecord
100
AcDbTextStyleTableRecord
  2
OpenSansCondensed-Light
 70
0
 40
0.0
 41
1.0
 50
0.0
 71
0
 42
2.5
  3
OpenSansCondensed-Light.ttf
  4

  0
STYLE
  5
4D
330
5
100
AcDbSymbolTableRecord
100
AcDbTextStyleTableRecord
  2
OpenSansCondensed-Italic
 70
0
 40
0.0
 41
1.0
 50
0.0
 71
0
 42
2.5
  3
OpenSansCondensed-LightItalic.ttf
  4

  0
STYLE
  5
4E
330
5
100
AcDbSymbolTableRecord
100
AcDbTextStyleTableRecord
  2
LiberationSans
 70
0
 40
0.0
 41
1.0
 50
0.0
 71
0
 42
2.5
  3
LiberationSans-Regular.ttf
  4

  0
STYLE
  5
4F
330
5
100
AcDbSymbolTableRecord
100
AcDbTextStyleTableRecord
  2
LiberationSans-Bold
 70
0
 40
0.0
 41
1.0
 50
0.0
 71
0
 42
2.5
  3
LiberationSans-Bold.ttf
  4

  0
STYLE
  5
50
330
5
100
AcDbSymbolTableRecord
100
AcDbTextStyleTableRecord
  2
LiberationSans-BoldItalic
 70
0
 40
0.0
 41
1.0
 50
0.0
 71
0
 42
2.5
  3
LiberationSans-BoldItalic.ttf
  4

  0
STYLE
  5
51
330
5
100
AcDbSymbolTableRecord
100
AcDbTextStyleTableRecord
  2
LiberationSans-Italic
 70
0
 40
0.0
 41
1.0
 50
0.0
 71
0
 42
2.5
  3
LiberationSans-Italic.ttf
  4

  0
STYLE
  5
52
330
5
100
AcDbSymbolTableRecord
100
AcDbTextStyleTableRecord
  2
LiberationSerif
 70
0
 40
0.0
 41
1.0
 50
0.0
 71
0
 42
2.5
  3
LiberationSerif-Regular.ttf
  4

  0
STYLE
  5
53
330
5
100
AcDbSymbolTableRecord
100
AcDbTextStyleTableRecord
  2
LiberationSerif-Bold
 70
0
 40
0.0
 41
1.0
 50
0.0
 71
0
 42
2.5
  3
LiberationSerif-Bold.ttf
  4

  0
STYLE
  5
54
330
5
100
AcDbSymbolTableRecord
100
AcDbTextStyleTableRecord
  2
LiberationSerif-BoldItalic
 70
0
 40
0.0
 41
1.0
 50
0.0
 71
0
 42
2.5
  3
LiberationSerif-BoldItalic.ttf
  4

  0
STYLE
  5
55
330
5
100
AcDbSymbolTableRecord
100
AcDbTextStyleTableRecord
  2
LiberationSerif-Italic
 70
0
 40
0.0
 41
1.0
 50
0.0
 71
0
 42
2.5
  3
LiberationSerif-Italic.ttf
  4

  0
STYLE
  5
56
330
5
100
AcDbSymbolTableRecord
100
AcDbTextStyleTableRecord
  2
LiberationMono
 70
0
 40
0.0
 41
1.0
 50
0.0
 71
0
 42
2.5
  3
LiberationMono-Regular.ttf
  4

  0
STYLE
  5
57
330
5
100
AcDbSymbolTableRecord
100
AcDbTextStyleTableRecord
  2
LiberationMono-Bold
 70
0
 40
0.0
 41
1.0
 50
0.0
 71
0
 42
2.5
  3
LiberationMono-Bold.ttf
  4

  0
STYLE
  5
58
330
5
100
AcDbSymbolTableRecord
100
AcDbTextStyleTableRecord
  2
LiberationMono-BoldItalic
 70
0
 40
0.0
 41
1.0
 50
0.0
 71
0
 42
2.5
  3
LiberationMono-BoldItalic.ttf
  4

  0
STYLE
  5
59
330
5
100
AcDbSymbolTableRecord
100
AcDbTextStyleTableRecord
  2
LiberationMono-Italic
 70
0
 40
0.0
 41
1.0
 50
0.0
 71
0
 42
2.5
  3
LiberationMono-Italic.ttf
  4

  0
ENDTAB
  0
TABLE
  2
VIEW
  5
7
330
0
100
AcDbSymbolTable
 70
0
  0
ENDTAB
  0
TABLE
  2
UCS
  5
6
330
0
100
AcDbSymbolTable
 70
0
  0
ENDTAB
  0
TABLE
  2
APPID
  5
3
330
0
100
AcDbSymbolTable
 70
3
  0
APPID
  5
2A
330
3
100
AcDbSymbolTableRecord
100
AcDbRegAppTableRecord
  2
ACAD
 70
0
  0
APPID
  5
B6
330
3
100
AcDbSymbolTableRecord
100
AcDbRegAppTableRecord
  2
HATCHBACKGROUNDCOLOR
 70
0
  0
APPID
  5
B7
330
3
100
AcDbSymbolTableRecord
100
AcDbRegAppTableRecord
  2
EZDXF
 70
0
  0
ENDTAB
  0
TABLE
  2
DIMSTYLE
  5
4
330
0
100
AcDbSymbolTable
 70
12
100
AcDbDimStyleTable
  0
DIMSTYLE
105
2B
330
4
100
AcDbSymbolTableRecord
100
AcDbDimStyleTableRecord
  2
Standard
 70
0
 40
1.0
 41
2.5
 42
0.625
 43
3.75
 44
1.25
 45
0.0
 46
0.0
 47
0.0
 48
0.0
 49
2.5
140
2.5
141
2.5
142
0.0
143
0.03937007874
144
1.0
145
0.0
146
1.0
147
0.625
148
0.0
 69
0
 70
0
 71
0
 72
0
 73
0
 74
0
 75
0
 76
0
 77
1
 78
8
 79
3
170
0
171
3
172
1
173
0
174
0
175
0
176
0
177
0
178
0
179
2
271
2
272
2
273
2
274
3
275
0
276
0
277
2
278
44
279
0
280
0
281
0
282
0
283
0
284
8
285
0
286
0
288
0
289
3
290
0
371
-2
372
-2
  0
DIMSTYLE
105
73
330
4
100
AcDbSymbolTableRecord
100
AcDbDimStyleTableRecord
  2
EZDXF
 70
0
 40
1.0
 41
0.175
 42
0.125
 43
3.75
 44
0.375
 45
0.0
 46
0.0
 47
0.0
 48
0.0
 49
2.5
140
0.25
141
2.5
142
0.0
143
0.03937007874
144
100.0
145
0.0
146
0.5
147
0.1
148
0.0
 69
0
 70
0
 71
0
 72
0
 73
0
 74
0
 75
0
 76
0
 77
1
 78
12
 79
3
170
0
171
3
172
1
173
0
174
0
175
0
176
0
177
0
178
0
179
2
271
2
272
2
273
2
274
3
275
0
276
0
277
2
278
46
279
2
280
0
281
0
282
0
283
0
284
8
285
0
286
0
288
1
289
3
290
0
340
4C
342
74
371
-2
372
-2
  0
DIMSTYLE
105
7C
330
4
100
AcDbSymbolTableRecord
100
AcDbDimStyleTableRecord
  2
EZ_M_100_H25_CM
 70
0
 40
1.0
 41
0.25
 42
0.125
 43
3.75
 44
0.375
 45
0.0
 46
0.0
 47
0.0
 48
0.0
 49
2.5
140
0.25
141
2.5
142
0.125
143
0.03937007874
144
100.0
145
0.0
146
0.5
147
0.1
148
0.0
 69
0
 70
0
 71
0
 72
0
 73
0
 74
0
 75
0
 76
0
 77
1
 78
12
 79
3
170
0
171
3
172
1
173
0
174
0
175
0
176
0
177
0
178
0
179
2
271
2
272
2
273
2
274
3
275
0
276
0
277
2
278
46
279
2
280
0
281
0
282
0
283
0
284
8
285
0
286
0
288
1
289
3
290
0
340
4C
371
-2
372
-2
  0
DIMSTYLE
105
7D
330
4
100
AcDbSymbolTableRecord
100
AcDbDimStyleTableRecord
  2
EZ_M_50_H25_CM
 70
0
 40
1.0
 41
0.125
 42
0.0625
 43
3.75
 44
0.1875
 45
0.0
 46
0.0
 47
0.0
 48
0.0
 49
2.5
140
0.125
141
2.5
142
0.0625
143
0.03937007874
144
100.0
145
0.0
146
0.5
147
0.05
148
0.0
 69
0
 70
0
 71
0
 72
0
 73
0
 74
0
 75
0
 76
0
 77
1
 78
12
 79
3
170
0
171
3
172
1
173
0
174
0
175
0
176
0
177
0
178
0
179
2
271
2
272
2
273
2
274
3
275
0
276
0
277
2
278
46
279
2
280
0
281
0
282
0
283
0
284
8
285
0
286
0
288
1
289
3
290
0
340
4C
371
-2
372
-2
  0
DIMSTYLE
105
7E
330
4
100
AcDbSymbolTableRecord
100
AcDbDimStyleTableRecord
  2
EZ_M_25_H25_CM
 70
0
 40
1.0
 41
0.0625
 42
0.03125
 43
3.75
 44
0.09375
 45
0.0
 46
0.0
 47
0.0
 48
0.0
 49
2.5
140
0.0625
141
2.5
142
0.03125
143
0.03937007874
144
100.0
145
0.0
146
0.5
147
0.025
148
0.0
 69
0
 70
0
 71
0
 72
0
 73
0
 74
0
 75
0
 76
0
 77
1
 78
12
 79
3
170
0
171
3
172
1
173
0
174
0
175
0
176
0
177
0
178
0
179
2
271
2
272
2
273
2
274
3
275
0
276
0
277
2
278
46
279
2
280
0
281
0
282
0
283
0
284
8
285
0
286
0
288
1
289
3
290
0
340
4C
371
-2
372
-2
  0
DIMSTYLE
105
7F
330
4
100
AcDbSymbolTableRecord
100
AcDbDimStyleTableRecord
  2
EZ_M_20_H25_CM
 70
0
 40
1.0
 41
0.05
 42
0.025
 43
3.75
 44
0.07500000000000001
 45
0.0
 46
0.0
 47
0.0
 48
0.0
 49
2.5
140
0.05
141
2.5
142
0.025
143
0.03937007874
144
100.0
145
0.0
146
0.5
147
0.020000000000000004
148
0.0
 69
0
 70
0
 71
0
 72
0
 73
0
 74
0
 75
0
 76
0
 77
1
 78
12
 79
3
170
0
171
3
172
1
173
0
174
0
175
0
176
0
177
0
178
0
179
2
271
2
272
2
273
2
274
3
275
0
276
0
277
2
278
46
279
2
280
0
281
0
282
0
283
0
284
8
285
0
286
0
288
1
289
3
290
0
340
4C
371
-2
372
-2
  0
DIMSTYLE
105
80
330
4
100
AcDbSymbolTableRecord
100
AcDbDimStyleTableRecord
  2
EZ_M_10_H25_CM
 70
0
 40
1.0
 41
0.025
 42
0.0125
 43
3.75
 44
0.037500000000000006
 45
0.0
 46
0.0
 47
0.0
 48
0.0
 49
2.5
140
0.025
141
2.5
142
0.0125
143
0.03937007874
144
100.0
145
0.0
146
0.5
147
0.010000000000000002
148
0.0
 69
0
 70
0
 71
0
 72
0
 73
0
 74
0
 75
0
 76
0
 77
1
 78
12
 79
3
170
0
171
3
172
1
173
0
174
0
175
0
176
0
177
0
178
0
179
2
271
2
272
2
273
2
274
3
275
0
276
0
277
2
278
46
279
2
280
0
281
0
282
0
283
0
284
8
285
0
286
0
288
1
289
3
290
0
340
4C
371
-2
372
-2
  0
DIMSTYLE
105
81
330
4
100
AcDbSymbolTableRecord
100
AcDbDimStyleTableRecord
  2
EZ_M_5_H25_CM
 70
0
 40
1.0
 41
0.0125
 42
0.00625
 43
3.75
 44
0.018750000000000003
 45
0.0
 46
0.0
 47
0.0
 48
0.0
 49
2.5
140
0.0125
141
2.5
142
0.00625
143
0.03937007874
144
100.0
145
0.0
146
0.5
147
0.005000000000000001
148
0.0
 69
0
 70
0
 71
0
 72
0
 73
0
 74
0
 75
0
 76
0
 77
1
 78
12
 79
3
170
0
171
3
172
1
173
0
174
0
175
0
176
0
177
0
178
0
179
2
271
2
272
2
273
2
274
3
275
0
276
0
277
2
278
46
279
2
280
0
281
0
282
0
283
0
284
8
285
0
286
0
288
1
289
3
290
0
340
4C
371
-2
372
-2
  0
DIMSTYLE
105
82
330
4
100
AcDbSymbolTableRecord
100
AcDbDimStyleTableRecord
  2
EZ_M_1_H25_CM
 70
0
 40
1.0
 41
0.0025
 42
0.00125
 43
3.75
 44
0.00375
 45
0.0
 46
0.0
 47
0.0
 48
0.0
 49
2.5
140
0.0025
141
2.5
142
0.00125
143
0.03937007874
144
100.0
145
0.0
146
0.5
147
0.001
148
0.0
 69
0
 70
0
 71
0
 72
0
 73
0
 74
0
 75
0
 76
0
 77
1
 78
12
 79
3
170
0
171
3
172
1
173
0
174
0
175
0
176
0
177
0
178
0
179
2
271
2
272
2
273
2
274
3
275
0
276
0
277
2
278
46
279
2
280
0
281
0
282
0
283
0
284
8
285
0
286
0
288
1
289
3
290
0
340
4C
371
-2
372
-2
  0
DIMSTYLE
105
83
330
4
100
AcDbSymbolTableRecord
100
AcDbDimStyleTableRecord
  2
EZ_RADIUS
 70
0
 40
1.0
 41
0.25
 42
0.125
 43
3.75
 44
0.375
 45
0.0
 46
0.0
 47
0.0
 48
0.0
 49
2.5
140
0.25
141
0.0
142
0.0
143
0.03937007874
144
100.0
145
0.0
146
0.5
147
0.1
148
0.0
 69
0
 70
0
 71
0
 72
0
 73
0
 74
0
 75
0
 76
0
 77
1
 78
12
 79
3
170
0
171
3
172
0
173
0
174
0
175
0
176
0
177
0
178
0
179
2
271
2
272
2
273
2
274
3
275
0
276
0
277
2
278
46
279
1
280
0
281
0
282
0
283
0
284
8
285
0
286
0
288
1
289
3
290
0
340
4C
342
84
371
-2
372
-2
  0
DIMSTYLE
105
88
330
4
100
AcDbSymbolTableRecord
100
AcDbDimStyleTableRecord
  2
EZ_RADIUS_INSIDE
 70
0
 40
1.0
 41
0.25
 42
0.125
 43
3.75
 44
0.375
 45
0.0
 46
0.0
 47
0.0
 48
0.0
 49
2.5
140
0.25
141
0.0
142
0.0
143
0.03937007874
144
100.0
145
0.0
146
0.5
147
0.1
148
0.0
 69
0
 70
0
 71
0
 72
0
 73
0
 74
0
 75
0
 76
0
 77
0
 78
12
 79
3
170
0
171
3
172
0
173
0
174
1
175
0
176
0
177
0
178
0
179
2
271
2
272
2
273
2
274
3
275
0
276
0
277
2
278
46
279
0
280
0
281
0
282
0
283
0
284
8
285
0
286
0
288
1
289
0
290
0
340
4C
342
84
371
-2
372
-2
  0
DIMSTYLE
105
89
330
4
100
AcDbSymbolTableRecord
100
AcDbDimStyleTableRecord
  2
EZ_CURVED
 70
0
 40
1.0
 41
0.25
 42
0.125
 43
3.75
 44
0.375
 45
0.0
 46
0.0
 47
0.0
 48
0.0
 49
2.5
140
0.25
141
2.5
142
0.0
143
0.03937007874
144
100.0
145
0.0
146
0.5
147
0.1
148
0.0
 69
0
 70
0
 71
0
 72
0
 73
0
 74
0
 75
0
 76
0
 77
1
 78
12
 79
2
 90
2
170
0
171
3
172
1
173
0
174
0
175
0
176
0
177
0
178
0
179
2
271
2
272
2
273
2
274
3
275
0
276
0
277
2
278
46
279
2
280
0
281
0
282
0
283
0
284
8
285
0
286
0
288
1
289
3
290
0
340
4C
371
-2
372
-2
  0
ENDTAB
  0
TABLE
  2
BLOCK_RECORD
  5
9
330
0
100
AcDbSymbolTable
 70
5
  0
BLOCK_RECORD
  5
17
330
9
100
AcDbSymbolTableRecord
100
AcDbBlockTableRecord
  2
*Model_Space
340
1A
 70
0
280
1
281
0
  0
BLOCK_RECORD
  5
1B
330
9
100
AcDbSymbolTableRecord
100
AcDbBlockTableRecord
  2
*Paper_Space
340
1E
 70
0
280
1
281
0
  0
BLOCK_RECORD
  5
74
330
9
100
AcDbSymbolTableRecord
100
AcDbBlockTableRecord
  2
_ARCHTICK
340
0
 70
0
280
1
281
0
  0
BLOCK_RECORD
  5
78
330
9
100
AcDbSymbolTableRecord
100
AcDbBlockTableRecord
  2
_CLOSEDFILLED
340
0
 70
0
280
1
281
0
  0
BLOCK_RECORD
  5
84
330
9
100
AcDbSymbolTableRecord
100
AcDbBlockTableRecord
  2
_CLOSEDBLANK
340
0
 70
0
280
1
281
0
  0
ENDTAB
  0
ENDSEC
  0
SECTION
  2
BLOCKS
  0
BLOCK
  5
18
330
17
100
AcDbEntity
  8
0
100
AcDbBlockBegin
  2
*Model_Space
 70
0
 10
0.0
 20
0.0
 30
0.0
  3
*Model_Space
  1

  0
ENDBLK
  5
19
330
17
100
AcDbEntity
  8
0
100
AcDbBlockEnd
  0
BLOCK
  5
1C
330
1B
100
AcDbEntity
  8
0
100
AcDbBlockBegin
  2
*Paper_Space
 70
0
 10
0.0
 20
0.0
 30
0.0
  3
*Paper_Space
  1

  0
ENDBLK
  5
1D
330
1B
100
AcDbEntity
  8
0
100
AcDbBlockEnd
  0
BLOCK
  5
75
330
74
100
AcDbEntity
  8
0
100
AcDbBlockBegin
  2
_ARCHTICK
 70
0
 10
0.0
 20
0.0
 30
0.0
  3
_ARCHTICK
  1

  0
LWPOLYLINE
  5
77
330
74
100
AcDbEntity
  8
0
  6
BYBLOCK
 62
0
100
AcDbPolyline
 90
2
 70
0
 43
0.15
 10
-0.5
 20
-0.5
 10
0.5
 20
0.5
  0
ENDBLK
  5
76
330
74
100
AcDbEntity
  8
0
100
AcDbBlockEnd
  0
BLOCK
  5
79
330
78
100
AcDbEntity
  8
0
100
AcDbBlockBegin
  2
_CLOSEDFILLED
 70
0
 10
0.0
 20
0.0
 30
0.0
  3
_CLOSEDFILLED
  1

  0
SOLID
  5
7B
330
78
100
AcDbEntity
  8
0
  6
BYBLOCK
 62
0
100
AcDbTrace
 10
-1.0
 20
0.16439898372402537
 30
0.0
 11
0.0
 21
0.0
 31
0.0
 12
-1.0
 22
-0.16439898372402537
 32
0.0
 13
-1.0
 23
-0.16439898372402537
 33
0.0
  0
ENDBLK
  5
7A
330
78
100
AcDbEntity
  8
0
100
AcDbBlockEnd
  0
BLOCK
  5
85
330
84
100
AcDbEntity
  8
0
100
AcDbBlockBegin
  2
_CLOSEDBLANK
 70
0
 10
0.0
 20
0.0
 30
0.0
  3
_CLOSEDBLANK
  1

  0
LWPOLYLINE
  5
87
330
84
100
AcDbEntity
  8
0
  6
BYBLOCK
 62
0
100
AcDbPolyline
 90
3
 70
1
 10
-1.0
 20
0.16439898372402537
 10
0.0
 20
0.0
 10
-1.0
 20
-0.16439898372402537
  0
ENDBLK
  5
86
330
84
100
AcDbEntity
  8
0
100
AcDbBlockEnd
  0
ENDSEC
  0
SECTION
  2
ENTITIES
  0
LWPOLYLINE
  5
8C
330
17
100
AcDbEntity
  8
Layer
100
AcDbPolyline
 90
261
 70
1
 10
559.5327096667513
 20
165.24526615466885
 10
557.0001157639055
 20
165.78572935421178
 10
552.8711045787085
 20
166.68406613573202
 10
548.4346950509679
 20
167.68687599029596
 10
543.7899924693655
 20
168.7612902517827
 10
539.0173789509457
 20
169.88902893625541
 10
534.176927896282
 20
171.0537842658209
 10
529.2978836798701
 20
172.25347368393415
 10
524.3954572570451
 20
173.47223267663514
 10
519.4907151660626
 20
174.71236268242097
 10
514.5800842759547
 20
175.97634660626215
 10
509.66502598334205
 20
177.25172992578769
 10
504.7619526462563
 20
178.5399497362568
 10
499.86964838620474
 20
179.8508446746722
 10
494.9808666342061
 20
181.18595437241973
 10
490.08857067417466
 20
182.53121798451
 10
485.18777823521873
 20
183.8755707781994
 10
480.28787650852496
 20
185.23867732899276
 10
475.37609027956773
 20
186.61833046111
 10
470.4595639525653
 20
188.003048703693
 10
465.54669540715656
 20
189.39294359928675
 10
460.64196110667916
 20
190.791486291706
 10
455.74298721967097
 20
192.19548342791722
 10
450.84782057898974
 20
193.58689891250236
 10
445.94918826493426
 20
194.97777961367305
 10
441.04959234669775
 20
196.37365741723087
 10
436.15087705075825
 20
197.75577834724567
 10
431.2466332225379
 20
199.12640908684295
 10
426.3473263891761
 20
200.48792250438447
 10
423.2864777499135
 20
201.32662439010494
 10
423.022209419341
 20
200.36217519525
 10
421.1987668188466
 20
200.86183189171973
 10
416.3069619070959
 20
202.17846511098685
 10
411.4175531581603
 20
203.47735484483195
 10
406.5245973331772
 20
204.75264109607352
 10
401.62689844691005
 20
206.00976883789167
 10
396.73410438384116
 20
207.24576199855724
 10
391.8439149219822
 20
208.45383736499124
 10
386.9460540060937
 20
209.63365898703847
 10
382.0384241379062
 20
210.78921838282992
 10
377.12001254404925
 20
211.92310109783492
 10
372.1993641330665
 20
213.0381348435338
 10
367.28103714212506
 20
214.1277697809503
 10
362.3601502769627
 20
215.19048626605695
 10
357.436581767334
 20
216.22394139336197
 10
352.49607348598454
 20
217.2325560352576
 10
347.5621468846639
 20
218.22376959313118
 10
342.6327410708038
 20
219.1783318678741
 10
337.68396799837285
 20
220.10314837886608
 10
332.725393351938
 20
221.00829147359505
 10
327.7699438211139
 20
221.89097779046404
 10
322.81490502870577
 20
222.74397946429661
 10
317.85349021514793
 20
223.56703160610888
 10
312.88159527204135
 20
224.363443538397
 10
307.9017450536901
 20
225.1369624101109
 10
302.9209242000069
 20
225.88773883760055
 10
297.94044700545066
 20
226.61034164765005
 10
292.94733045008957
 20
227.3056273347052
 10
287.95153849502174
 20
227.98135342120722
 10
282.95884572279664
 20
228.6316137493273
 10
277.96556454745894
 20
229.25468212850768
 10
272.97276304060483
 20
229.84942572409824
 10
267.9740418707992
 20
230.4134535106092
 10
262.9615199352485
 20
230.95377512200145
 10
257.958961646319
 20
231.4745447291175
 10
252.9568903747851
 20
231.96009401300466
 10
247.94563483949094
 20
232.42090126931998
 10
242.94229627552662
 20
232.85566563899673
 10
237.93843905196465
 20
233.25740317177093
 10
232.9288946621839
 20
233.62936434983476
 10
227.92034051767078
 20
233.9737887159237
 10
222.90974623987188
 20
234.28672425425722
 10
217.8947403210015
 20
234.57129486085307
 10
212.88401490615468
 20
234.82957491457728
 10
207.88274214114372
 20
235.05601678692275
 10
202.88270498060126
 20
235.24359234660545
 10
197.87027021083827
 20
235.39877263120638
 10
192.872397616134
 20
235.52856603035005
 10
187.87301684770912
 20
235.6133681010881
 10
182.86496102001354
 20
235.67082380014523
 10
177.87022759947564
 20
235.69554507163528
 10
172.87736446897097
 20
235.68336360464735
 10
167.89699281659983
 20
235.63511535606557
 10
162.91744183869244
 20
235.5428265922442
 10
157.93908686145062
 20
235.4119992473757
 10
152.96119484576656
 20
235.24160416713968
 10
147.99103860410042
 20
235.0360032215445
 10
143.03179915951569
 20
234.78674704577926
 10
138.0753021412104
 20
234.49331828185632
 10
133.12403860646953
 20
234.15750610722483
 10
128.17868737946867
 20
233.7814497950124
 10
123.25675047586394
 20
233.36644539223104
 10
118.35862067588612
 20
232.89838800353334
 10
113.46680750993626
 20
232.37215061512478
 10
108.59285198707347
 20
231.79896249655013
 10
103.73830729256368
 20
231.1671211615648
 10
98.89936947633738
 20
230.4752903290296
 10
94.06927657999906
 20
229.72198771653086
 10
89.26040689507153
 20
228.91963631665078
 10
84.49445872800842
 20
228.0601979253268
 10
79.76723697683462
 20
227.13195717356194
 10
75.0832158029429
 20
226.13120156945445
 10
70.43846397692928
 20
225.05256171045565
 10
65.84635130207946
 20
223.89485133371986
 10
61.29500371825708
 20
222.64835550664628
 10
56.81674209881524
 20
221.33484715692506
 10
52.42150333083492
 20
219.92494739541206
 10
48.11855593297739
 20
218.43339587785653
 10
43.944460552914336
 20
216.85714066469126
 10
39.91532104186601
 20
215.19757763124062
 10
36.08091000353929
 20
213.4745814779118
 10
32.493050417662744
 20
211.70659320910616
 10
29.181952626922453
 20
209.90106302441941
 10
26.20198535192145
 20
208.13215832638457
 10
23.589516716490067
 20
206.4228912239293
 10
21.340446631867223
 20
204.7985094701173
 10
19.427258780893766
 20
203.27877208755575
 10
17.836978843024724
 20
201.90758380678892
 10
16.504368730534168
 20
200.600355370254
 10
15.39287041339233
 20
199.42822428403156
 10
14.488449290817982
 20
198.3679629043832
 10
13.747519196016071
 20
197.3661135632517
 10
13.134424761964112
 20
196.42032012616642
 10
12.633812810686123
 20
195.55848281218996
 10
12.224183061688194
 20
194.74110851010903
 10
11.880819656883858
 20
193.9559664991219
 10
11.599112156084999
 20
193.25086699991456
 10
11.374579745809939
 20
192.59521481888694
 10
11.195994508694753
 20
191.96593304871746
 10
11.058979368906932
 20
191.39870258034296
 10
10.957347232015252
 20
190.83449630316855
 10
10.880591927681394
 20
190.3051882539921
 10
10.828289259136056
 20
189.8485035732012
 10
10.85979030496685
 20
189.43911433267985
 10
10.887415437322659
 20
188.88310550530318
 10
10.920480334302852
 20
188.36587865751784
 10
10.985177653390792
 20
187.85508312841569
 10
11.106687021525744
 20
187.31789901698508
 10
11.302839494886996
 20
186.73930369034957
 10
11.579107200074759
 20
186.12424388392984
 10
11.94222217736467
 20
185.47688555847932
 10
12.40399578272428
 20
184.79732392474014
 10
12.975459728754373
 20
184.0873607674598
 10
13.666720354633355
 20
183.35178735504513
 10
14.49692230300468
 20
182.59436871044883
 10
15.494244819762372
 20
181.8178561345386
 10
16.69978938285385
 20
181.0202700138747
 10
18.153343008647823
 20
180.1925977836562
 10
19.86749934717261
 20
179.32589271292235
 10
21.86205701371813
 20
178.42903598304517
 10
24.214322476923286
 20
177.52708760256587
 10
26.988657433175376
 20
176.62234281862882
 10
30.183448653832073
 20
175.69891780758581
 10
33.743599405027624
 20
174.7727430718048
 10
37.646408563647725
 20
173.90370845083078
 10
41.85245295182838
 20
173.08585245826504
 10
46.248133695814744
 20
172.3204311072717
 10
50.787795393272575
 20
171.63944900964287
 10
55.46453984049526
 20
171.04672365867953
 10
60.2806515745373
 20
170.50771021632735
 10
65.16003699701594
 20
169.98312981546212
 10
70.01740996579204
 20
169.4955297448115
 10
74.89465277187105
 20
169.0967169027548
 10
79.86107523731278
 20
168.754206338026
 10
84.86305427392367
 20
168.41417515770735
 10
89.86265846599082
 20
168.08958218143525
 10
94.85424046270278
 20
167.79652519566278
 10
99.84652624326534
 20
167.54628254221637
 10
104.86344936847512
 20
167.33589592662582
 10
109.90889872376592
 20
167.14979909112813
 10
114.97461718011147
 20
166.97951284011884
 10
118.54757127325479
 20
166.86495624450194
 10
118.51552558770848
 20
165.86546983937285
 10
120.01930234331662
 20
165.81725486617475
 10
125.07907364102094
 20
165.6632181161881
 10
130.12556404447417
 20
165.53264306650394
 10
135.16425580807424
 20
165.40533228740617
 10
140.21334573261342
 20
165.3092974870377
 10
145.28657481494383
 20
165.22439405348757
 10
150.37817444564968
 20
165.13697893601065
 10
155.48148861084707
 20
165.0565933247592
 10
160.59099177919623
 20
164.9812742361507
 10
165.70028341605
 20
164.9116371777987
 10
170.8063357762594
 20
164.84968805556278
 10
175.90992774655794
 20
164.7988151413367
 10
181.01668578378022
 20
164.7604894565641
 10
186.13261606245834
 20
164.73180610500378
 10
191.25792126986275
 20
164.70690235665356
 10
196.38767021097993
 20
164.6824641956067
 10
201.5170716008204
 20
164.65726605608555
 10
206.64272108930123
 20
164.6322742786565
 10
211.7632463112391
 20
164.61213174397082
 10
216.88262569900633
 20
164.6001539537034
 10
222.00633700948788
 20
164.59434404889117
 10
227.13285101318115
 20
164.5893402343275
 10
232.2586177087548
 20
164.58618214500626
 10
237.38323117998704
 20
164.58660277974005
 10
242.5044134072122
 20
164.59107879410314
 10
247.62395955615514
 20
164.60274474430867
 10
252.74650198263402
 20
164.62080573019045
 10
257.870991921209
 20
164.64012425238326
 10
262.9930249696854
 20
164.65600153393666
 10
268.11077978724484
 20
164.6733661408197
 10
273.2229160499182
 20
164.69830567120982
 10
278.3330985532319
 20
164.73314496976963
 10
283.44633104693634
 20
164.77823487498634
 10
288.5665169372867
 20
164.82916490412717
 10
293.6891525719443
 20
164.87950566103484
 10
298.8110988056835
 20
164.9258856484018
 10
303.92868389402054
 20
164.9723708085619
 10
309.0375333315368
 20
165.0257861066388
 10
314.1426988067202
 20
165.0907399451083
 10
319.24931398949866
 20
165.16463234980307
 10
324.35471180139245
 20
165.23504863243022
 10
329.4605363808279
 20
165.2925626480535
 10
334.5713734135782
 20
165.34323453305157
 10
339.67979578947944
 20
165.39684122530133
 10
344.78462477072867
 20
165.4608037930179
 10
349.892466718528
 20
165.53614521256094
 10
355.0045491972205
 20
165.61482556072264
 10
360.1132596596663
 20
165.68704771139392
 10
365.21884260254757
 20
165.7516160163347
 10
370.3202972997715
 20
165.82172576719728
 10
375.42047958356255
 20
165.9055291516416
 10
380.528217519249
 20
165.9999822725282
 10
385.63836432224355
 20
166.0929956223653
 10
390.7483602019979
 20
166.17669844081865
 10
395.86249119450736
 20
166.2506474211193
 10
400.9821447649116
 20
166.31936889969052
 10
406.1031356924038
 20
166.38537499706888
 10
411.22022850824965
 20
166.4500216207535
 10
416.32864567110767
 20
166.52147290999406
 10
421.43553251058466
 20
166.59695064188656
 10
426.5375009326763
 20
166.65953758473958
 10
431.6456080322805
 20
166.70690481353847
 10
436.76413263212237
 20
166.74874875492583
 10
441.88857527034395
 20
166.7915396918559
 10
447.0135845339031
 20
166.834922739183
 10
452.13318799644276
 20
166.87670527970246
 10
457.2442014122706
 20
166.91107111560797
 10
462.3506658571414
 20
166.93283111173707
 10
467.45816612046036
 20
166.94548760376847
 10
472.56135688605275
 20
166.95170329824163
 10
477.65787983209987
 20
166.9429893952261
 10
482.7570278663205
 20
166.9214122268073
 10
487.854710661412
 20
166.9020713171719
 10
492.9462381446747
 20
166.8801534279551
 10
498.0319147503312
 20
166.8380158591562
 10
503.11932078424115
 20
166.78151333660477
 10
508.2086526551848
 20
166.71111279834702
 10
513.2946452578695
 20
166.63455288950738
 10
518.3717921903257
 20
166.54046392196682
 10
523.445074210657
 20
166.42993985183432
 10
528.5061715609412
 20
166.3068998682288
 10
533.5406347196869
 20
166.16940895650586
 10
538.5330636126179
 20
166.01213503306903
 10
543.4524330997888
 20
165.842006219451
 10
548.2365022025721
 20
165.66045880939674
 10
552.7983575536451
 20
165.46866256910383
 10
557.0295658673873
 20
165.2690359461135
 10
559.6135609606894
 20
165.13301574243823
  0
LWPOLYLINE
  5
8D
330
17
100
AcDbEntity
  8
Layer
100
AcDbPolyline
 90
5
 70
0
 10
369.65214828532856
 20
209.5054632107804
 10
365.74683783356005
 20
210.37065121075912
 10
366.6120258335388
 20
214.2759616625277
 10
370.5173362853073
 20
213.41077366254896
 10
369.65214828532856
 20
209.5054632107804
  0
LWPOLYLINE
  5
8E
330
17
100
AcDbEntity
  8
Layer
100
AcDbPolyline
 90
5
 70
0
 10
162.48068483779002
 20
231.52996285214877
 10
158.48206631757364
 20
231.42484420593243
 10
158.3769476713573
 20
235.4234627261488
 10
162.37556619157368
 20
235.52858137236515
 10
162.48068483779002
 20
231.52996285214877
  0
LWPOLYLINE
  5
8F
330
17
100
AcDbEntity
  8
Layer
100
AcDbPolyline
 90
5
 70
0
 10
69.36373298658107
 20
220.6563106516591
 10
65.48515892558247
 20
219.67821901313596
 10
64.50706728705931
 20
223.55679307413453
 10
68.38564134805792
 20
224.53488471265769
 10
69.36373298658107
 20
220.6563106516591
  0
LWPOLYLINE
  5
90
330
17
100
AcDbEntity
  8
Layer
100
AcDbPolyline
 90
5
 70
0
 10
23.256924579833903
 20
199.98026018365485
 10
21.744098732531473
 20
198.67207137628273
 10
18.47362671410119
 20
202.4541359945388
 10
19.98645256140362
 20
203.76232480191092
 10
23.256924579833903
 20
199.98026018365485
  0
LWPOLYLINE
  5
91
330
17
100
AcDbEntity
  8
Layer
100
AcDbPolyline
 90
5
 70
0
 10
17.61378532557459
 20
186.50469592672152
 10
19.19605068426283
 20
185.28140678073225
 10
16.137827819289633
 20
181.32574338401167
 10
14.555562460601394
 20
182.54903253000094
 10
17.61378532557459
 20
186.50469592672152
  0
LWPOLYLINE
  5
92
330
17
100
AcDbEntity
  8
Layer
100
AcDbPolyline
 90
5
 70
0
 10
89.30744764553089
 20
172.12905789068296
 10
93.30057420658483
 20
171.89466448760706
 10
93.06618080350893
 20
167.90153792655312
 10
89.07305424245499
 20
168.13593132962902
 10
89.30744764553089
 20
172.12905789068296
  0
LINE
  5
93
330
17
100
AcDbEntity
  8
Layer
100
AcDbLine
 10
540.0584368762003
 20
169.64303346845662
 30
0.0
 11
539.8518624755806
 21
168.66460257308967
 31
0.0
  0
LINE
  5
94
330
17
100
AcDbEntity
  8
Layer
100
AcDbLine
 10
539.6554808890909
 20
166.97385031843993
 30
0.0
 11
539.6323529672007
 21
165.97411780459984
 31
0.0
  0
LINE
  5
95
330
17
100
AcDbEntity
  8
Layer
100
AcDbLine
 10
520.632479805666
 20
174.42367541551644
 30
0.0
 11
520.409676733249
 21
173.44881194255137
 31
0.0
  0
LINE
  5
96
330
17
100
AcDbEntity
  8
Layer
100
AcDbLine
 10
519.664554100926
 20
167.5125324207413
 30
0.0
 11
519.6395219496341
 21
166.51284577413563
 31
0.0
  0
LINE
  5
97
330
17
100
AcDbEntity
  8
Layer
100
AcDbLine
 10
443.4813465795388
 20
195.68085911019165
 30
0.0
 11
443.2299357204033
 21
194.71297865274414
 31
0.0
  0
LINE
  5
98
330
17
100
AcDbEntity
  8
Layer
100
AcDbLine
 10
439.64413352891927
 20
167.7726548109685
 30
0.0
 11
439.63362394226147
 21
166.7727100381994
 31
0.0
  0
LWPOLYLINE
  5
99
330
17
100
AcDbEntity
  8
Layer
100
AcDbPolyline
 90
300
 70
1
 10
245.71962837837762
 20
200.0
 10
245.71379935399037
 20
200.56093263598743
 10
245.69631485476174
 20
201.1216175799137
 10
245.66718260135434
 20
201.68180724909152
 10
245.6264154577512
 20
202.24125427953294
 10
245.57403142557527
 20
202.7997116351784
 10
245.51005363614053
 20
203.35693271698088
 10
245.43451034023767
 20
203.91267147179704
 10
245.3474348956596
 20
204.46668250103744
 10
245.24886575247135
 20
205.01872116902763
 10
245.13884643603168
 20
205.56854371103236
 10
245.01742552777364
 20
206.1159073408952
 10
244.88465664375212
 20
206.6605703582461
 10
244.74059841096872
 20
207.20229225522954
 10
244.5853144414836
 20
207.74083382270584
 10
244.41887330432633
 20
208.27595725587943
 10
244.24134849521752
 20
208.8074262593065
 10
244.05281840411536
 20
209.33500615123666
 10
243.85336628060074
 20
209.85846396724156
 10
243.6430801971166
 20
210.37756856308562
 10
243.4220530100776
 20
210.8920907167927
 10
243.1903823188674
 20
211.40180322986413
 10
242.9481704227414
 20
211.9064810276031
 10
242.69552427565444
 20
212.4059012585014
 10
242.4325554390327
 20
212.8998433926443
 10
242.15938003251168
 20
213.38808931909045
 10
241.8761186826606
 20
213.87042344218338
 10
241.58289646971747
 20
214.34663277675259
 10
241.27984287235697
 20
214.8165070421618
 10
240.96709171051637
 20
215.27983875516287
 10
240.64478108630448
 20
215.7364233215147
 10
240.3130533230195
 20
216.18605912632614
 10
239.97205490230317
 20
216.62854762308353
 10
239.62193639945863
 20
217.0636934213233
 10
239.26285241696044
 20
217.49130437291083
 10
238.8949615161867
 20
217.91119165688755
 10
238.51842614740258
 20
218.32316986284926
 10
238.1334125780271
 20
218.7270570728178
 10
237.74009081921386
 20
219.12267494157112
 10
237.33863455077912
 20
219.50984877539554
 10
236.92922104450957
 20
219.88840760922542
 10
236.51203108588413
 20
220.2581842821366
 10
236.0872488942441
 20
220.61901551115992
 10
235.65506204144725
 20
220.9707419633825
 10
235.21566136904121
 20
221.31320832630453
 10
234.76924090399328
 20
221.646263376421
 10
234.31599777301358
 20
221.9697600459976
 10
233.8561321155094
 20
222.28355548801187
 10
233.38984699520938
 20
222.58751113923032
 10
232.91734831049618
 20
222.8814927813941
 10
232.4388447034876
 20
223.16537060048591
 10
231.95454746790605
 20
223.43901924405236
 10
231.46467045577722
 20
223.70231787655595
 10
230.96942998299912
 20
223.95515023273273
 10
230.4690447338229
 20
224.19740466893177
 10
229.96373566428815
 20
224.42897421241372
 10
229.45372590465502
 20
224.64975660858718
 10
228.93924066087595
 20
224.85965436616127
 10
228.42050711515128
 20
225.05857480019506
 10
227.8977543256118
 20
225.24643007302478
 10
227.37121312517334
 20
225.42313723305028
 10
226.84111601960723
 20
225.58861825136415
 10
226.30769708487244
 20
225.74280005620727
 10
225.77119186375427
 20
225.88561456523493
 10
225.23183726185502
 20
226.0169987155804
 10
224.6898714429835
 20
226.13689449170147
 10
224.14553372398836
 20
226.24524895099862
 10
223.59906446908258
 20
226.3420142471929
 10
223.05070498370537
 20
226.42714765145362
 10
222.50069740796852
 20
226.500611571266
 10
221.94928460973415
 20
226.56237356703122
 10
221.39671007737104
 20
226.61240636639053
 10
220.84321781223707
 20
226.65068787626828
 10
220.2890522209351
 20
226.67720119262734
 10
219.73445800738983
 20
226.6919346079336
 10
219.17968006479353
 20
226.69488161632566
 10
218.62496336746798
 20
226.6860409164875
 10
218.07055286269082
 20
226.66541641222335
 10
217.51669336253366
 20
226.63301721073367
 10
216.96362943576
 20
226.58885761859378
 10
216.4116052998305
 20
226.5329571354364
 10
215.8608647130635
 20
226.46534044534124
 10
215.31165086699812
 20
226.38603740593516
 10
214.76420627900777
 20
226.2950830352079
 10
214.21877268521132
 20
226.19251749604908
 10
213.67559093372924
 20
226.07838607851346
 10
213.13490087833173
 20
225.95273917982212
 10
212.59694127252627
 20
225.8156322821084
 10
212.06194966413057
 20
225.6671259279186
 10
211.53016229037829
 20
225.50728569347814
 10
211.00181397360322
 20
225.33618215973482
 10
210.47713801754844
 20
225.15389088119238
 10
209.95636610434596
 20
224.96049235254776
 10
209.43972819221227
 20
224.7560719731468
 10
208.92745241390543
 20
224.54072000927437
 10
208.41976497598802
 20
224.31453155429529
 10
207.9168900589406
 20
224.07760648666385
 10
207.41904971817004
 20
223.83004942582016
 10
206.9264637859561
 20
223.57196968599334
 10
206.43934977437948
 20
223.3034812279312
 10
205.95792277927495
 20
223.0247026085786
 10
205.4823953852508
 20
222.73575692872583
 10
205.01297757181763
 20
222.43677177865106
 10
204.54987662066713
 20
222.12787918177975
 10
204.09329702414257
 20
221.80921553638694
 10
203.64344039494048
 20
221.4809215553678
 10
203.2005053770844
 20
221.1431422041024
 10
202.764687558209
 20
220.7960266364434
 10
202.3361793831944
 20
220.4397281288538
 10
201.91517006918764
 20
220.07440401272436
 10
201.50184552204993
 20
219.70021560490042
 10
201.0963882542657
 20
219.31732813644905
 10
200.6989773043503
 20
218.9259106796976
 10
200.30978815779167
 20
218.52613607357617
 10
199.92899266956078
 20
218.11818084729663
 10
199.55675898822543
 20
217.70222514240254
 10
199.19325148170049
 20
217.27845263322354
 10
198.83863066466765
 20
216.84705044577004
 10
198.49305312769678
 20
216.40820907510346
 10
198.15667146809977
 20
215.9621223012193
 10
197.82963422254795
 20
215.50898710347897
 10
197.51208580148253
 20
215.04900357362956
 10
197.20416642534687
 20
214.58237482744877
 10
196.9060120626692
 20
214.1093069150548
 10
196.61775437002268
 20
213.63000872992035
 10
196.3395206338896
 20
213.14469191663116
 10
196.07143371445522
 20
212.65357077742976
 10
195.81361199135625
 20
212.15686217758562
 10
195.56616931140758
 20
211.6547854496335
 10
195.32921493833092
 20
211.1475622965224
 10
195.1028535045069
 20
210.63541669371784
 10
194.8871849647723
 20
210.11857479030056
 10
194.68230455228297
 20
209.59726480910538
 10
194.4883027364615
 20
209.07171694594453
 10
194.3052651830483
 20
208.5421632679596
 10
194.1332727162743
 20
208.00883761114727
 10
193.97240128317102
 20
207.47197547710383
 10
193.8227219200346
 20
206.93181392903438
 10
193.68430072105818
 20
206.3885914870724
 10
193.55719880914648
 20
205.84254802295592
 10
193.44147230892574
 20
205.29392465410697
 10
193.33717232196065
 20
204.7429636371608
 10
193.24434490418923
 20
204.18990826099235
 10
193.16303104558605
 20
203.63500273928656
 10
193.09326665206194
 20
203.07849210270064
 10
193.03508252960916
 20
202.52062209066523
 10
192.9885043706982
 20
201.96163904287297
 10
192.9535527429328
 20
201.40178979050182
 10
192.9302430799679
 20
200.84132154722113
 10
192.91858567469447
 20
200.28048180002938
 10
192.91858567469447
 20
199.71951819997062
 10
192.9302430799679
 20
199.15867845277887
 10
192.9535527429328
 20
198.5982102094982
 10
192.9885043706982
 20
198.03836095712703
 10
193.03508252960916
 20
197.47937790933477
 10
193.09326665206194
 20
196.9215078972994
 10
193.16303104558605
 20
196.36499726071344
 10
193.24434490418923
 20
195.81009173900765
 10
193.33717232196062
 20
195.2570363628392
 10
193.44147230892574
 20
194.70607534589303
 10
193.55719880914648
 20
194.15745197704405
 10
193.68430072105818
 20
193.6114085129276
 10
193.8227219200346
 20
193.06818607096562
 10
193.97240128317102
 20
192.52802452289617
 10
194.1332727162743
 20
191.99116238885273
 10
194.3052651830483
 20
191.4578367320404
 10
194.4883027364615
 20
190.92828305405547
 10
194.68230455228297
 20
190.40273519089462
 10
194.8871849647723
 20
189.88142520969944
 10
195.1028535045069
 20
189.36458330628216
 10
195.32921493833092
 20
188.85243770347762
 10
195.56616931140758
 20
188.3452145503665
 10
195.81361199135625
 20
187.84313782241438
 10
196.07143371445522
 20
187.34642922257024
 10
196.3395206338896
 20
186.85530808336884
 10
196.61775437002268
 20
186.36999127007965
 10
196.9060120626692
 20
185.89069308494518
 10
197.20416642534687
 20
185.41762517255123
 10
197.51208580148253
 20
184.95099642637044
 10
197.82963422254795
 20
184.49101289652103
 10
198.15667146809977
 20
184.0378776987807
 10
198.49305312769678
 20
183.59179092489654
 10
198.83863066466765
 20
183.15294955422996
 10
199.19325148170049
 20
182.72154736677643
 10
199.55675898822545
 20
182.29777485759746
 10
199.92899266956078
 20
181.88181915270337
 10
200.30978815779167
 20
181.47386392642383
 10
200.6989773043503
 20
181.0740893203024
 10
201.0963882542657
 20
180.68267186355095
 10
201.50184552204993
 20
180.29978439509958
 10
201.91517006918764
 20
179.92559598727564
 10
202.3361793831944
 20
179.5602718711462
 10
202.764687558209
 20
179.2039733635566
 10
203.2005053770844
 20
178.8568577958976
 10
203.64344039494048
 20
178.5190784446322
 10
204.09329702414257
 20
178.19078446361306
 10
204.54987662066713
 20
177.87212081822028
 10
205.01297757181763
 20
177.56322822134894
 10
205.4823953852508
 20
177.26424307127417
 10
205.95792277927495
 20
176.9752973914214
 10
206.43934977437948
 20
176.6965187720688
 10
206.9264637859561
 20
176.42803031400666
 10
207.41904971817007
 20
176.1699505741798
 10
207.91689005894062
 20
175.92239351333615
 10
208.41976497598802
 20
175.68546844570471
 10
208.92745241390543
 20
175.45927999072563
 10
209.43972819221227
 20
175.2439280268532
 10
209.95636610434593
 20
175.03950764745224
 10
210.47713801754844
 20
174.84610911880762
 10
211.0018139736032
 20
174.6638178402652
 10
211.53016229037826
 20
174.4927143065219
 10
212.06194966413057
 20
174.3328740720814
 10
212.59694127252627
 20
174.1843677178916
 10
213.13490087833173
 20
174.04726082017788
 10
213.67559093372924
 20
173.92161392148654
 10
214.21877268521132
 20
173.80748250395092
 10
214.76420627900777
 20
173.7049169647921
 10
215.31165086699812
 20
173.61396259406484
 10
215.8608647130635
 20
173.53465955465876
 10
216.41160529983048
 20
173.4670428645636
 10
216.96362943575997
 20
173.41114238140622
 10
217.51669336253366
 20
173.36698278926633
 10
218.07055286269082
 20
173.33458358777665
 10
218.62496336746796
 20
173.3139590835125
 10
219.17968006479353
 20
173.30511838367434
 10
219.73445800738983
 20
173.3080653920664
 10
220.2890522209351
 20
173.32279880737266
 10
220.84321781223707
 20
173.34931212373172
 10
221.39671007737104
 20
173.38759363360947
 10
221.94928460973415
 20
173.43762643296878
 10
222.50069740796852
 20
173.499388428734
 10
223.05070498370537
 20
173.57285234854638
 10
223.59906446908258
 20
173.6579857528071
 10
224.14553372398836
 20
173.75475104900138
 10
224.6898714429835
 20
173.86310550829853
 10
225.23183726185502
 20
173.9830012844196
 10
225.77119186375424
 20
174.11438543476507
 10
226.30769708487244
 20
174.25719994379273
 10
226.84111601960723
 20
174.41138174863585
 10
227.3712131251733
 20
174.57686276694972
 10
227.8977543256118
 20
174.75356992697522
 10
228.42050711515128
 20
174.94142519980494
 10
228.93924066087595
 20
175.14034563383873
 10
229.45372590465502
 20
175.35024339141282
 10
229.96373566428815
 20
175.57102578758628
 10
230.4690447338229
 20
175.80259533106823
 10
230.96942998299912
 20
176.04484976726727
 10
231.46467045577722
 20
176.29768212344405
 10
231.95454746790605
 20
176.56098075594764
 10
232.43884470348758
 20
176.83462939951409
 10
232.91734831049618
 20
177.11850721860588
 10
233.38984699520938
 20
177.41248886076966
 10
233.85613211550938
 20
177.71644451198813
 10
234.31599777301355
 20
178.0302399540024
 10
234.76924090399328
 20
178.353736623579
 10
235.21566136904121
 20
178.68679167369547
 10
235.65506204144725
 20
179.0292580366175
 10
236.0872488942441
 20
179.38098448884008
 10
236.51203108588413
 20
179.7418157178634
 10
236.92922104450957
 20
180.11159239077458
 10
237.33863455077912
 20
180.49015122460446
 10
237.74009081921386
 20
180.87732505842888
 10
238.1334125780271
 20
181.27294292718224
 10
238.51842614740258
 20
181.67683013715077
 10
238.89496151618667
 20
182.08880834311242
 10
239.26285241696044
 20
182.50869562708917
 10
239.6219363994586
 20
182.93630657867666
 10
239.97205490230317
 20
183.37145237691644
 10
240.3130533230195
 20
183.81394087367386
 10
240.64478108630448
 20
184.2635766784853
 10
240.96709171051637
 20
184.72016124483713
 10
241.27984287235697
 20
185.1834929578382
 10
241.58289646971747
 20
185.65336722324741
 10
241.8761186826606
 20
186.12957655781662
 10
242.15938003251168
 20
186.61191068090955
 10
242.43255543903274
 20
187.1001566073557
 10
242.69552427565444
 20
187.5940987414986
 10
242.9481704227414
 20
188.0935189723969
 10
243.19038231886742
 20
188.5981967701359
 10
243.4220530100776
 20
189.10790928320728
 10
243.6430801971166
 20
189.62243143691435
 10
243.85336628060074
 20
190.14153603275844
 10
244.05281840411536
 20
190.66499384876334
 10
244.24134849521752
 20
191.1925737406935
 10
244.41887330432633
 20
191.72404274412057
 10
244.5853144414836
 20
192.25916617729413
 10
244.7405984109687
 20
192.79770774477046
 10
244.88465664375212
 20
193.3394296417539
 10
245.01742552777364
 20
193.8840926591048
 10
245.13884643603168
 20
194.43145628896764
 10
245.24886575247135
 20
194.98127883097237
 10
245.3474348956596
 20
195.53331749896256
 10
245.43451034023767
 20
196.087328528203
 10
245.51005363614053
 20
196.64306728301915
 10
245.57403142557527
 20
197.20028836482157
 10
245.6264154577512
 20
197.75874572046703
 10
245.66718260135434
 20
198.31819275090848
 10
245.69631485476174
 20
198.87838242008627
 10
245.71379935399037
 20
199.43906736401257
 10
245.71962837837762
 20
200.0
  0
LINE
  5
9A
330
17
100
AcDbEntity
  8
Layer
 62
7
100
AcDbLine
 10
15.935068938413735
 20
200.00000000000003
 30
0.0
 11
428.1030799712439
 21
199.99999999999997
 31
0.0
  0
LINE
  5
9B
330
17
100
AcDbEntity
  8
Layer
 62
7
100
AcDbLine
 10
96.26867114497978
 20
200.00000000000003
 30
0.0
 11
108.26867114497978
 21
200.0
 31
0.0
  0
LWPOLYLINE
  5
9C
330
17
100
AcDbEntity
  8
Layer
100
AcDbPolyline
 90
5
 70
0
 10
102.26867114497978
 20
205.00000000000003
 10
107.26867114497978
 20
200.00000000000003
 10
102.26867114497978
 20
195.00000000000003
 10
97.26867114497978
 20
200.00000000000003
 10
102.26867114497978
 20
205.00000000000003
  0
LINE
  5
9D
330
17
100
AcDbEntity
  8
Layer
 62
7
100
AcDbLine
 10
216.01907445482885
 20
200.0
 30
0.0
 11
228.01907445482885
 21
200.0
 31
0.0
  0
LWPOLYLINE
  5
9E
330
17
100
AcDbEntity
  8
Layer
100
AcDbPolyline
 90
5
 70
0
 10
222.01907445482885
 20
205.0
 10
227.01907445482885
 20
200.0
 10
222.01907445482885
 20
195.0
 10
217.01907445482885
 20
200.0
 10
222.01907445482885
 20
205.0
  0
LINE
  5
9F
330
17
100
AcDbEntity
  8
Layer
 62
7
100
AcDbLine
 10
335.7694777646779
 20
199.99999999999997
 30
0.0
 11
347.7694777646779
 21
199.99999999999997
 31
0.0
  0
LWPOLYLINE
  5
A0
330
17
100
AcDbEntity
  8
Layer
100
AcDbPolyline
 90
5
 70
0
 10
341.7694777646779
 20
204.99999999999997
 10
346.7694777646779
 20
199.99999999999997
 10
341.7694777646779
 20
194.99999999999997
 10
336.7694777646779
 20
199.99999999999997
 10
341.7694777646779
 20
204.99999999999997
  0
LINE
  5
A1
330
17
100
AcDbEntity
  8
Layer
 62
7
100
AcDbLine
 10
10.8847451147997
 20
190.33382882015044
 30
0.0
 11
557.9238547219273
 21
165.58860066641307
 31
0.0
  0
LINE
  5
A2
330
17
100
AcDbEntity
  8
Layer
 62
7
100
AcDbLine
 10
118.19471224521317
 20
185.4796793211883
 30
0.0
 11
130.18245390813914
 21
184.93741571098644
 31
0.0
  0
LWPOLYLINE
  5
A3
330
17
100
AcDbEntity
  8
Layer
100
AcDbPolyline
 90
5
 70
0
 10
124.41452624759359
 20
190.20343987563987
 10
129.18347543622863
 20
184.98260434516993
 10
123.96263990575872
 20
180.21365515653488
 10
119.19369071712367
 20
185.43449068700482
 10
124.41452624759359
 20
190.20343987563987
  0
LINE
  5
A4
330
17
100
AcDbEntity
  8
Layer
 62
7
100
AcDbLine
 10
251.70780961328595
 20
179.4402353438503
 30
0.0
 11
263.6955512762119
 21
178.89797173364843
 31
0.0
  0
LWPOLYLINE
  5
A5
330
17
100
AcDbEntity
  8
Layer
100
AcDbPolyline
 90
5
 70
0
 10
257.9276236156664
 20
184.16399589830186
 10
262.6965728043014
 20
178.94316036783192
 10
257.4757372738315
 20
174.17421117919687
 10
252.70678808519645
 20
179.39504670966681
 10
257.9276236156664
 20
184.16399589830186
  0
LINE
  5
A6
330
17
100
AcDbEntity
  8
Layer
100
AcDbLine
 10
219.31837837837767
 20
226.69524999999993
 30
0.0
 11
219.31837837837767
 21
227.69524999999993
 31
0.0
  0
LINE
  5
A7
330
17
100
AcDbEntity
  8
Layer
100
AcDbLine
 10
219.31837837837767
 20
173.30475000000007
 30
0.0
 11
219.31837837837767
 21
172.30475000000007
 31
0.0
  0
LINE
  5
A8
330
17
100
AcDbEntity
  8
Layer
100
AcDbLine
 10
245.71962837837762
 20
200.0
 30
0.0
 11
246.71962837837762
 21
200.0
 31
0.0
  0
LINE
  5
A9
330
17
100
AcDbEntity
  8
Layer
100
AcDbLine
 10
192.91712837837773
 20
200.0
 30
0.0
 11
191.91712837837773
 21
200.0
 31
0.0
  0
LINE
  5
AA
330
17
100
AcDbEntity
  8
Layer
 62
7
100
AcDbLine
 10
139.31837837837767
 20
165.326319962867
 30
0.0
 11
139.31837837837767
 21
234.56690943350773
 31
0.0
  0
LINE
  5
AB
330
17
100
AcDbEntity
  8
Layer
 62
7
100
AcDbLine
 10
139.31837837837767
 20
185.51052627759125
 30
0.0
 11
139.31837837837767
 21
197.51052627759125
 31
0.0
  0
LWPOLYLINE
  5
AC
330
17
100
AcDbEntity
  8
Layer
100
AcDbPolyline
 90
5
 70
0
 10
134.31837837837767
 20
191.51052627759125
 10
139.31837837837767
 20
196.51052627759125
 10
144.31837837837767
 20
191.51052627759125
 10
139.31837837837767
 20
186.51052627759125
 10
134.31837837837767
 20
191.51052627759125
  0
LINE
  5
AD
330
17
100
AcDbEntity
  8
Layer
 62
7
100
AcDbLine
 10
139.31837837837767
 20
202.38270311878347
 30
0.0
 11
139.31837837837767
 21
214.38270311878347
 31
0.0
  0
LWPOLYLINE
  5
AE
330
17
100
AcDbEntity
  8
Layer
100
AcDbPolyline
 90
5
 70
0
 10
134.31837837837767
 20
208.38270311878347
 10
139.31837837837767
 20
213.38270311878347
 10
144.31837837837767
 20
208.38270311878347
 10
139.31837837837767
 20
203.38270311878347
 10
134.31837837837767
 20
208.38270311878347
  0
LINE
  5
AF
330
17
100
AcDbEntity
  8
Layer
 62
7
100
AcDbLine
 10
349.3183783783777
 20
165.5276773251572
 30
0.0
 11
349.3183783783777
 21
217.87094706292416
 31
0.0
  0
LINE
  5
B0
330
17
100
AcDbEntity
  8
Layer
 62
7
100
AcDbLine
 10
349.3183783783777
 20
179.79782173337566
 30
0.0
 11
349.3183783783777
 21
191.79782173337566
 31
0.0
  0
LWPOLYLINE
  5
B1
330
17
100
AcDbEntity
  8
Layer
100
AcDbPolyline
 90
5
 70
0
 10
344.3183783783777
 20
185.79782173337566
 10
349.3183783783777
 20
190.79782173337566
 10
354.3183783783777
 20
185.79782173337566
 10
349.3183783783777
 20
180.79782173337566
 10
344.3183783783777
 20
185.79782173337566
  0
LINE
  5
B2
330
17
100
AcDbEntity
  8
Layer
 62
7
100
AcDbLine
 10
349.3183783783777
 20
191.60080265470572
 30
0.0
 11
349.3183783783777
 21
203.60080265470572
 31
0.0
  0
LWPOLYLINE
  5
B3
330
17
100
AcDbEntity
  8
Layer
100
AcDbPolyline
 90
5
 70
0
 10
344.3183783783777
 20
197.60080265470572
 10
349.3183783783777
 20
202.60080265470572
 10
354.3183783783777
 20
197.60080265470572
 10
349.3183783783777
 20
192.60080265470572
 10
344.3183783783777
 20
197.60080265470572
  0
LWPOLYLINE
  5
B4
330
17
100
AcDbEntity
  8
NumLabel
 62
1
100
AcDbPolyline
 90
4
 70
0
 10
164.23459459459409
 20
177.4581081081082
 10
164.23459459459409
 20
182.4581081081082
 10
169.23459459459409
 20
182.4581081081082
 10
169.23459459459409
 20
172.4581081081082
  0
LWPOLYLINE
  5
B5
330
17
100
AcDbEntity
  8
NumLabel
 62
1
100
AcDbPolyline
 90
6
 70
0
 10
176.73459459459409
 20
182.4581081081082
 10
171.73459459459409
 20
182.4581081081082
 10
171.73459459459409
 20
177.4581081081082
 10
176.73459459459409
 20
177.4581081081082
 10
176.73459459459409
 20
172.4581081081082
 10
171.73459459459409
 20
172.4581081081082
  0
ENDSEC
  0
SECTION
  2
OBJECTS
  0
DICTIONARY
  5
A
330
0
100
AcDbDictionary
280
0
281
1
  3
ACAD_COLOR
350
B
  3
ACAD_GROUP
350
C
  3
ACAD_LAYOUT
350
D
  3
ACAD_MATERIAL
350
E
  3
ACAD_MLEADERSTYLE
350
F
  3
ACAD_MLINESTYLE
350
10
  3
ACAD_PLOTSETTINGS
350
11
  3
ACAD_PLOTSTYLENAME
350
12
  3
ACAD_SCALELIST
350
14
  3
ACAD_TABLESTYLE
350
15
  3
ACAD_VISUALSTYLE
350
16
  3
EZDXF_META
350
2D
  0
DICTIONARY
  5
B
330
A
100
AcDbDictionary
280
0
281
1
  0
DICTIONARY
  5
C
330
A
100
AcDbDictionary
280
0
281
1
  0
DICTIONARY
  5
D
330
A
100
AcDbDictionary
280
0
281
1
  3
Model
350
1A
  3
Layout1
350
1E
  0
DICTIONARY
  5
E
330
A
100
AcDbDictionary
280
0
281
1
  3
ByBlock
350
1F
  3
ByLayer
350
20
  3
Global
350
21
  0
DICTIONARY
  5
F
330
A
100
AcDbDictionary
280
0
281
1
  3
Standard
350
2C
  0
DICTIONARY
  5
10
330
A
100
AcDbDictionary
280
0
281
1
  3
Standard
350
22
  0
DICTIONARY
  5
11
330
A
100
AcDbDictionary
280
0
281
1
  0
ACDBDICTIONARYWDFLT
  5
12
330
A
100
AcDbDictionary
280
0
281
1
  3
Normal
350
13
100
AcDbDictionaryWithDefault
340
13
  0
ACDBPLACEHOLDER
  5
13
330
12
  0
DICTIONARY
  5
14
330
A
100
AcDbDictionary
280
0
281
1
  0
DICTIONARY
  5
15
330
A
100
AcDbDictionary
280
0
281
1
  0
DICTIONARY
  5
16
330
A
100
AcDbDictionary
280
0
281
1
  3
2dWireframe
350
5A
  3
Basic
350
5B
  3
Brighten
350
5C
  3
ColorChange
350
5D
  3
Conceptual
350
5E
  3
Dim
350
5F
  3
EdgeColorOff
350
60
  3
Facepattern
350
61
  3
Flat
350
62
  3
FlatWithEdges
350
63
  3
Gouraud
350
64
  3
GouraudWithEdges
350
65
  3
Hidden
350
66
  3
JitterOff
350
67
  3
Linepattern
350
68
  3
Modeling
350
69
  3
OverhangOff
350
6A
  3
Realistic
350
6B
  3
Shaded
350
6C
  3
Shaded with edges
350
6D
  3
Shades of Gray
350
6E
  3
Sketchy
350
6F
  3
Thicken
350
70
  3
Wireframe
350
71
  3
X-Ray
350
72
  0
LAYOUT
  5
1A
330
D
100
AcDbPlotSettings
  1

  2
Adobe PDF
  4
A3
  6

 40
7.5
 41
20.0
 42
7.5
 43
20.0
 44
420.0
 45
297.0
 46
0.0
 47
0.0
 48
0.0
 49
0.0
140
0.0
141
0.0
142
1.0
143
1.0
 70
1024
 72
1
 73
0
 74
5
  7

 75
16
 76
0
 77
2
 78
300
147
1.0
148
0.0
149
0.0
100
AcDbLayout
  1
Model
 70
1
 71
0
 10
0.0
 20
0.0
 11
420.0
 21
297.0
 12
0.0
 22
0.0
 32
0.0
 14
1e+20
 24
1e+20
 34
1e+20
 15
-1e+20
 25
-1e+20
 35
-1e+20
146
0.0
 13
0.0
 23
0.0
 33
0.0
 16
1.0
 26
0.0
 36
0.0
 17
0.0
 27
1.0
 37
0.0
 76
1
330
17
  0
LAYOUT
  5
1E
330
D
100
AcDbPlotSettings
  1

  2
Adobe PDF
  4
A3
  6

 40
7.5
 41
20.0
 42
7.5
 43
20.0
 44
420.0
 45
297.0
 46
0.0
 47
0.0
 48
0.0
 49
0.0
140
0.0
141
0.0
142
1.0
143
1.0
 70
0
 72
1
 73
0
 74
5
  7

 75
16
 76
0
 77
2
 78
300
147
1.0
148
0.0
149
0.0
100
AcDbLayout
  1
Layout1
 70
1
 71
1
 10
0.0
 20
0.0
 11
420.0
 21
297.0
 12
0.0
 22
0.0
 32
0.0
 14
1e+20
 24
1e+20
 34
1e+20
 15
-1e+20
 25
-1e+20
 35
-1e+20
146
0.0
 13
0.0
 23
0.0
 33
0.0
 16
1.0
 26
0.0
 36
0.0
 17
0.0
 27
1.0
 37
0.0
 76
1
330
1B
  0
MATERIAL
  5
1F
102
{ACAD_REACTORS
330
E
102
}
330
E
100
AcDbMaterial
  1
ByBlock
  2

 70
0
 40
1.0
 71
1
 41
1.0
 91
-1023410177
 42
1.0
 72
1
  3

 73
1
 74
1
 75
1
 44
0.5
 73
0
 45
1.0
 46
1.0
 77
1
  4

 78
1
 79
1
170
1
 48
1.0
171
1
  6

172
1
173
1
174
1
140
1.0
141
1.0
175
1
  7

176
1
177
1
178
1
143
1.0
179
1
  8

270
1
271
1
272
1
145
1.0
146
1.0
273
1
  9

274
1
275
1
276
1
 42
1.0
 72
1
  3

 73
1
 74
1
 75
1
 94
63
  0
MATERIAL
  5
20
102
{ACAD_REACTORS
330
E
102
}
330
E
100
AcDbMaterial
  1
ByLayer
  2

 70
0
 40
1.0
 71
1
 41
1.0
 91
-1023410177
 42
1.0
 72
1
  3

 73
1
 74
1
 75
1
 44
0.5
 73
0
 45
1.0
 46
1.0
 77
1
  4

 78
1
 79
1
170
1
 48
1.0
171
1
  6

172
1
173
1
174
1
140
1.0
141
1.0
175
1
  7

176
1
177
1
178
1
143
1.0
179
1
  8

270
1
271
1
272
1
145
1.0
146
1.0
273
1
  9

274
1
275
1
276
1
 42
1.0
 72
1
  3

 73
1
 74
1
 75
1
 94
63
  0
MATERIAL
  5
21
102
{ACAD_REACTORS
330
E
102
}
330
E
100
AcDbMaterial
  1
Global
  2

 70
0
 40
1.0
 71
1
 41
1.0
 91
-1023410177
 42
1.0
 72
1
  3

 73
1
 74
1
 75
1
 44
0.5
 73
0
 45
1.0
 46
1.0
 77
1
  4

 78
1
 79
1
170
1
 48
1.0
171
1
  6

172
1
173
1
174
1
140
1.0
141
1.0
175
1
  7

176
1
177
1
178
1
143
1.0
179
1
  8

270
1
271
1
272
1
145
1.0
146
1.0
273
1
  9

274
1
275
1
276
1
 42
1.0
 72
1
  3

 73
1
 74
1
 75
1
 94
63
  0
MLINESTYLE
  5
22
102
{ACAD_REACTORS
330
10
102
}
330
10
100
AcDbMlineStyle
  2
Standard
 70
0
  3

 62
256
 51
90.0
 52
90.0
 71
2
 49
0.5
 62
256
  6
BYLAYER
 49
-0.5
 62
256
  6
BYLAYER
  0
MLEADERSTYLE
  5
2C
102
{ACAD_REACTORS
330
F
102
}
330
F
100
AcDbMLeaderStyle
179
2
170
2
171
1
172
0
 90
2
 40
0.0
 41
0.0
173
1
 91
-1056964608
 92
-2
290
1
 42
2.0
291
1
 43
8.0
  3
Standard
 44
4.0
300

342
29
174
1
175
1
176
0
178
1
 93
-1056964608
 45
4.0
292
0
297
0
 46
4.0
 94
-1056964608
 47
1.0
 49
1.0
140
1.0
294
1
141
0.0
177
0
142
1.0
295
0
296
0
143
3.75
271
0
272
9
273
9
  0
DICTIONARY
  5
2D
330
A
100
AcDbDictionary
281
1
  3
CREATED_BY_EZDXF
350
2E
  3
WRITTEN_BY_EZDXF
350
B8
  0
DICTIONARYVAR
  5
2E
330
2D
100
DictionaryVariables
280
0
  1
1.3.0 @ 2026-01-06T17:07:24.465489+00:00
  0
VISUALSTYLE
  5
5A
102
{ACAD_REACTORS
330
16
102
}
330
16
100
AcDbVisualStyle
  2
2dWireframe
 70
4
 90
0
 40
0.6
 62
7
290
0
291
0
  0
VISUALSTYLE
  5
5B
102
{ACAD_REACTORS
330
16
102
}
330
16
100
AcDbVisualStyle
  2
Basic
 70
7
 90
1
 40
0.6
 62
7
290
0
291
1
  0
VISUALSTYLE
  5
5C
102
{ACAD_REACTORS
330
16
102
}
330
16
100
AcDbVisualStyle
  2
Brighten
 70
12
 90
2
 40
0.6
 62
7
290
0
291
1
  0
VISUALSTYLE
  5
5D
102
{ACAD_REACTORS
330
16
102
}
330
16
100
AcDbVisualStyle
  2
ColorChange
 70
16
 90
2
 40
0.6
 62
8
290
0
291
1
  0
VISUALSTYLE
  5
5E
102
{ACAD_REACTORS
330
16
102
}
330
16
100
AcDbVisualStyle
  2
Conceptual
 70
9
 90
3
 40
0.6
 62
7
290
0
291
0
  0
VISUALSTYLE
  5
5F
102
{ACAD_REACTORS
330
16
102
}
330
16
100
AcDbVisualStyle
  2
Dim
 70
11
 90
2
 40
0.6
 62
7
290
0
291
1
  0
VISUALSTYLE
  5
60
102
{ACAD_REACTORS
330
16
102
}
330
16
100
AcDbVisualStyle
  2
EdgeColorOff
 70
22
 90
2
 40
0.6
 62
7
290
0
291
1
  0
VISUALSTYLE
  5
61
102
{ACAD_REACTORS
330
16
102
}
330
16
100
AcDbVisualStyle
  2
Facepattern
 70
15
 90
2
 40
0.6
 62
7
290
0
291
1
  0
VISUALSTYLE
  5
62
102
{ACAD_REACTORS
330
16
102
}
330
16
100
AcDbVisualStyle
  2
Flat
 70
0
 90
2
 40
0.6
 62
7
290
0
291
1
  0
VISUALSTYLE
  5
63
102
{ACAD_REACTORS
330
16
102
}
330
16
100
AcDbVisualStyle
  2
FlatWithEdges
 70
1
 90
2
 40
0.6
 62
7
290
0
291
1
  0
VISUALSTYLE
  5
64
102
{ACAD_REACTORS
330
16
102
}
330
16
100
AcDbVisualStyle
  2
Gouraud
 70
2
 90
2
 40
0.6
 62
7
290
0
291
1
  0
VISUALSTYLE
  5
65
102
{ACAD_REACTORS
330
16
102
}
330
16
100
AcDbVisualStyle
  2
GouraudWithEdges
 70
3
 90
2
 40
0.6
 62
7
290
0
291
1
  0
VISUALSTYLE
  5
66
102
{ACAD_REACTORS
330
16
102
}
330
16
100
AcDbVisualStyle
  2
Hidden
 70
6
 90
1
 40
0.6
 62
7
290
0
291
0
  0
VISUALSTYLE
  5
67
102
{ACAD_REACTORS
330
16
102
}
330
16
100
AcDbVisualStyle
  2
JitterOff
 70
20
 90
2
 40
0.6
 62
7
290
0
291
1
  0
VISUALSTYLE
  5
68
102
{ACAD_REACTORS
330
16
102
}
330
16
100
AcDbVisualStyle
  2
Linepattern
 70
14
 90
2
 40
0.6
 62
7
290
0
291
1
  0
VISUALSTYLE
  5
69
102
{ACAD_REACTORS
330
16
102
}
330
16
100
AcDbVisualStyle
  2
Modeling
 70
10
 90
2
 40
0.6
 62
7
290
0
291
0
  0
VISUALSTYLE
  5
6A
102
{ACAD_REACTORS
330
16
102
}
330
16
100
AcDbVisualStyle
  2
OverhangOff
 70
21
 90
2
 40
0.6
 62
7
290
0
291
1
  0
VISUALSTYLE
  5
6B
102
{ACAD_REACTORS
330
16
102
}
330
16
100
AcDbVisualStyle
  2
Realistic
 70
8
 90
2
 40
0.6
 62
7
290
0
291
0
  0
VISUALSTYLE
  5
6C
102
{ACAD_REACTORS
330
16
102
}
330
16
100
AcDbVisualStyle
  2
Shaded
 70
27
 90
2
 40
0.6
 62
7
290
0
291
0
  0
VISUALSTYLE
  5
6D
102
{ACAD_REACTORS
330
16
102
}
330
16
100
AcDbVisualStyle
  2
Shaded with edges
 70
26
 90
2
 40
0.6
 62
7
290
0
291
0
  0
VISUALSTYLE
  5
6E
102
{ACAD_REACTORS
330
16
102
}
330
16
100
AcDbVisualStyle
  2
Shades of Gray
 70
23
 90
2
 40
0.6
 62
7
290
0
291
0
  0
VISUALSTYLE
  5
6F
102
{ACAD_REACTORS
330
16
102
}
330
16
100
AcDbVisualStyle
  2
Sketchy
 70
24
 90
1
 40
0.6
 62
7
290
0
291
0
  0
VISUALSTYLE
  5
70
102
{ACAD_REACTORS
330
16
102
}
330
16
100
AcDbVisualStyle
  2
Thicken
 70
13
 90
2
 40
0.6
 62
7
290
0
291
1
  0
VISUALSTYLE
  5
71
102
{ACAD_REACTORS
330
16
102
}
330
16
100
AcDbVisualStyle
  2
Wireframe
 70
5
 90
0
 40
0.6
 62
7
290
0
291
0
  0
VISUALSTYLE
  5
72
102
{ACAD_REACTORS
330
16
102
}
330
16
100
AcDbVisualStyle
  2
X-Ray
 70
25
 90
2
 40
0.5
 62
7
290
0
291
0
  0
DICTIONARYVAR
  5
B8
330
2D
100
DictionaryVariables
280
0
  1
1.3.0 @ 2026-01-06T17:07:24.527281+00:00
  0
ENDSEC
  0
EOF
