<?xml version="1.0" encoding="utf-8" standalone="no"?>
<!DOCTYPE svg PUBLIC "-//W3C//DTD SVG 1.1//EN"
  "http://www.w3.org/Graphics/SVG/1.1/DTD/svg11.dtd">
<svg xmlns:xlink="http://www.w3.org/1999/xlink" width="1152pt" height="213.715172pt" viewBox="0 0 1152 213.715172" xmlns="http://www.w3.org/2000/svg" version="1.1">
 <metadata>
  <rdf:RDF xmlns:dc="http://purl.org/dc/elements/1.1/" xmlns:cc="http://creativecommons.org/ns#" xmlns:rdf="http://www.w3.org/1999/02/22-rdf-syntax-ns#">
   <cc:Work>
    <dc:type rdf:resource="http://purl.org/dc/dcmitype/StillImage"/>
    <dc:date>2026-01-07T02:07:20.085098</dc:date>
    <dc:format>image/svg+xml</dc:format>
    <dc:creator>
     <cc:Agent>
      <dc:title>Matplotlib v3.10.1, https://matplotlib.org/</dc:title>
     </cc:Agent>
    </dc:creator>
   </cc:Work>
  </rdf:RDF>
 </metadata>
 <defs>
  <style type="text/css">*{stroke-linejoin: round; stroke-linecap: butt}</style>
 </defs>
 <g id="figure_1">
  <g id="patch_1">
   <path d="M 0 213.715172 
L 1152 213.715172 
L 1152 0 
L 0 0 
z
" style="fill: #ffffff"/>
  </g>
  <g id="axes_1">
   <g id="patch_2">
    <path d="M 0 213.715172 
L 1152 213.715172 
L 1152 0 
L 0 0 
z
" style="fill: #212830"/>
   </g>
   <g id="patch_3">
    <path d="M 1099.636364 112.511836 
L 1084.697441 107.543103 
L 1056.573565 98.433225 
L 1028.682058 89.748697 
L 1000.955622 81.508263 
L 973.328423 73.711677 
L 945.749062 66.365364 
L 918.173742 59.463595 
L 904.381031 56.181607 
L 876.761583 49.951995 
L 862.935422 47.003665 
L 849.096954 44.168102 
L 835.242819 41.444907 
L 821.371656 38.832751 
L 807.486773 36.331623 
L 793.588969 33.943365 
L 779.675473 31.668306 
L 765.746149 29.504933 
L 751.804497 27.453785 
L 737.850765 25.516962 
L 723.878364 23.695516 
L 709.880873 21.986512 
L 681.825679 18.896888 
L 667.77599 17.518601 
L 639.632051 15.093341 
L 611.475042 13.10565 
L 597.402263 12.281163 
L 569.285198 10.967648 
L 555.257313 10.481732 
L 541.251901 10.11387 
L 527.269877 9.862997 
L 513.319914 9.728779 
L 499.40948 9.714326 
L 485.539645 9.823104 
L 471.710764 10.054999 
L 457.931711 10.409376 
L 444.211666 10.889147 
L 430.551934 11.49853 
L 416.954701 12.237526 
L 403.429842 13.105363 
L 389.988233 14.105333 
L 376.631922 15.241907 
L 363.365481 16.514197 
L 350.202561 17.921588 
L 337.153527 19.468401 
L 324.222081 21.157693 
L 311.418098 22.987223 
L 298.757978 24.95729 
L 286.251976 27.071176 
L 273.908977 29.326553 
L 261.755061 31.714082 
L 249.821106 34.232303 
L 238.125381 36.882845 
L 226.688686 39.656148 
L 215.54877 42.538502 
L 204.738738 45.525211 
L 194.281371 48.607176 
L 184.208871 51.761974 
L 174.560644 54.969675 
L 165.362609 58.218185 
L 156.631969 61.486094 
L 148.389344 64.745976 
L 140.648283 67.980116 
L 133.405853 71.176109 
L 126.651987 74.315744 
L 120.375821 77.382467 
L 114.559938 80.370495 
L 109.177768 83.279886 
L 99.595684 88.84926 
L 91.41467 94.080335 
L 84.425274 99.014255 
L 78.447839 103.676475 
L 73.345146 108.117605 
L 68.955105 112.394308 
L 65.141162 116.471698 
L 61.877186 120.302107 
L 59.18401 123.947494 
L 57.016498 127.523489 
L 55.284897 131.043534 
L 53.946943 134.429194 
L 53.016383 137.646138 
L 52.498812 140.736498 
L 52.363636 143.749872 
L 52.61395 146.761163 
L 52.907615 148.243887 
L 53.33464 149.713598 
L 53.910956 151.177762 
L 54.644134 152.638566 
L 55.530812 154.091082 
L 56.560636 155.524966 
L 57.726172 156.930526 
L 59.026616 158.300632 
L 60.469269 159.632934 
L 62.061833 160.927976 
L 63.809456 162.188971 
L 67.762394 164.622776 
L 72.319344 166.953714 
L 77.542398 169.187151 
L 83.554398 171.347448 
L 90.487177 173.486243 
L 98.512101 175.641014 
L 107.890833 177.828383 
L 118.949682 180.070682 
L 132.075047 182.36503 
L 147.686308 184.691644 
L 166.090821 187.001787 
L 187.378431 189.211605 
L 199.032273 190.25198 
L 224.093143 192.150373 
L 251.027685 193.775851 
L 279.364365 195.117935 
L 308.793974 196.195316 
L 325.4485 196.723837 
L 325.352956 199.856982 
L 354.173804 200.695857 
L 384.839807 201.357276 
L 463.075312 202.645527 
L 510.311956 203.150918 
L 604.895901 204.000846 
L 1099.636364 112.511836 
L 1099.636364 112.511836 
" clip-path="url(#p43e778c484)" style="fill: none; stroke: #ff0000; stroke-width: 0.72; stroke-linejoin: miter"/>
   </g>
   <g id="patch_4">
    <path d="M 964.45321 79.970998 
L 956.384048 77.789149 
L 958.565897 69.719986 
L 966.635059 71.901835 
L 964.45321 79.970998 
" clip-path="url(#p43e778c484)" style="fill: none; stroke: #ff0000; stroke-width: 0.72; stroke-linejoin: miter"/>
   </g>
   <g id="patch_5">
    <path d="M 440.30485 19.430734 
L 431.954222 19.803361 
L 431.581596 11.452732 
L 439.932224 11.080106 
L 440.30485 19.430734 
" clip-path="url(#p43e778c484)" style="fill: none; stroke: #ff0000; stroke-width: 0.72; stroke-linejoin: miter"/>
   </g>
   <g id="patch_6">
    <path d="M 202.666163 54.850634 
L 194.648286 57.213999 
L 192.284921 49.196122 
L 200.302798 46.832757 
L 202.666163 54.850634 
" clip-path="url(#p43e778c484)" style="fill: none; stroke: #ff0000; stroke-width: 0.72; stroke-linejoin: miter"/>
   </g>
   <g id="patch_7">
    <path d="M 83.28869 113.23485 
L 80.178208 116.02642 
L 73.199285 108.250213 
L 76.309767 105.458644 
L 83.28869 113.23485 
" clip-path="url(#p43e778c484)" style="fill: none; stroke: #ff0000; stroke-width: 0.72; stroke-linejoin: miter"/>
   </g>
   <g id="patch_8">
    <path d="M 68.032516 152.351822 
L 71.426264 154.791174 
L 65.327885 163.275543 
L 61.934137 160.836192 
L 68.032516 152.351822 
" clip-path="url(#p43e778c484)" style="fill: none; stroke: #ff0000; stroke-width: 0.72; stroke-linejoin: miter"/>
   </g>
   <g id="patch_9">
    <path d="M 251.978042 185.454135 
L 260.326436 185.873842 
L 259.906729 194.222236 
L 251.558335 193.802529 
L 251.978042 185.454135 
" clip-path="url(#p43e778c484)" style="fill: none; stroke: #ff0000; stroke-width: 0.72; stroke-linejoin: miter"/>
   </g>
   <g id="patch_10">
    <path d="M 655.83054 106.251207 
L 655.686264 101.390352 
L 655.254009 96.548809 
L 654.535493 91.745813 
L 653.53357 87.000447 
L 652.252221 82.331564 
L 650.696536 77.757713 
L 648.872697 73.297066 
L 646.787949 68.967345 
L 644.450575 64.785752 
L 641.869861 60.7689 
L 639.056061 56.932749 
L 636.020354 53.292538 
L 632.7748 49.862731 
L 629.332293 46.656954 
L 625.706512 43.687944 
L 621.911861 40.967496 
L 617.963416 38.506419 
L 613.876864 36.31449 
L 609.668441 34.400418 
L 605.354867 32.771808 
L 600.95328 31.43513 
L 596.481167 30.395694 
L 591.956295 29.65763 
L 587.396643 29.223871 
L 582.820325 29.09614 
L 578.245522 29.274944 
L 573.690411 29.759573 
L 569.173089 30.548101 
L 564.711504 31.637396 
L 560.323379 33.023131 
L 556.026151 34.699798 
L 551.836891 36.660738 
L 547.772244 38.898159 
L 543.848357 41.403172 
L 540.080821 44.165824 
L 536.484605 47.175141 
L 533.073994 50.419165 
L 529.862541 53.885009 
L 526.863004 57.558902 
L 524.0873 61.426249 
L 521.546456 65.471685 
L 519.250568 69.679136 
L 517.208758 74.031888 
L 515.429136 78.512646 
L 513.918774 83.103608 
L 512.683672 87.786536 
L 511.728737 92.542823 
L 511.057763 97.353574 
L 510.673417 102.199674 
L 510.577224 107.061871 
L 510.769567 111.920848 
L 511.249682 116.757299 
L 512.015662 121.552009 
L 513.064462 126.28593 
L 514.391917 130.940254 
L 515.992753 135.496488 
L 517.860609 139.936531 
L 519.988064 144.242744 
L 522.366666 148.398017 
L 524.986965 152.385842 
L 527.83855 156.190375 
L 530.910093 159.7965 
L 534.189389 163.189892 
L 537.663412 166.357067 
L 541.318357 169.285443 
L 545.139705 171.963386 
L 549.112273 174.380256 
L 553.220278 176.526451 
L 557.447399 178.393443 
L 561.776842 179.973816 
L 566.191406 181.261291 
L 570.673553 182.250753 
L 575.205474 182.93827 
L 579.769165 183.321112 
L 584.346494 183.397756 
L 588.919275 183.167899 
L 593.469342 182.632454 
L 597.978616 181.793548 
L 602.429182 180.654513 
L 606.803359 179.219877 
L 611.083767 177.495337 
L 615.253401 175.487746 
L 619.295696 173.20508 
L 623.19459 170.656408 
L 626.934595 167.851855 
L 630.50085 164.802565 
L 633.879188 161.520651 
L 637.056186 158.019153 
L 640.019222 154.311982 
L 642.756524 150.413867 
L 645.257216 146.340295 
L 647.511365 142.107449 
L 649.510013 137.732148 
L 651.24522 133.231773 
L 652.710093 128.624206 
L 653.898811 123.927751 
L 654.806652 119.161067 
L 655.430009 114.343093 
L 655.766406 109.49297 
L 655.83054 106.251207 
L 655.83054 106.251207 
" clip-path="url(#p43e778c484)" style="fill: none; stroke: #ff0000; stroke-width: 0.72; stroke-linejoin: miter"/>
   </g>
   <g id="line2d_1">
    <path d="M 75.426374 106.251207 
L 1080.745282 106.251207 
" clip-path="url(#p43e778c484)" style="fill: none; stroke: #ffffff; stroke-width: 0.72; stroke-linecap: square"/>
   </g>
   <g id="line2d_2">
    <path d="M 272.101713 106.251207 
L 297.178527 106.251207 
" clip-path="url(#p43e778c484)" style="fill: none; stroke: #ffffff; stroke-width: 0.72; stroke-linecap: square"/>
   </g>
   <g id="patch_11">
    <path d="M 284.64012 95.802534 
L 295.088793 106.251207 
L 284.64012 116.699879 
L 274.191448 106.251207 
L 284.64012 95.802534 
" clip-path="url(#p43e778c484)" style="fill: none; stroke: #ff0000; stroke-width: 0.72; stroke-linejoin: miter"/>
   </g>
   <g id="line2d_3">
    <path d="M 565.547421 106.251207 
L 590.624235 106.251207 
" clip-path="url(#p43e778c484)" style="fill: none; stroke: #ffffff; stroke-width: 0.72; stroke-linecap: square"/>
   </g>
   <g id="patch_12">
    <path d="M 578.085828 95.802534 
L 588.534501 106.251207 
L 578.085828 116.699879 
L 567.637156 106.251207 
L 578.085828 95.802534 
" clip-path="url(#p43e778c484)" style="fill: none; stroke: #ff0000; stroke-width: 0.72; stroke-linejoin: miter"/>
   </g>
   <g id="line2d_4">
    <path d="M 858.993129 106.251207 
L 884.069943 106.251207 
" clip-path="url(#p43e778c484)" style="fill: none; stroke: #ffffff; stroke-width: 0.72; stroke-linecap: square"/>
   </g>
   <g id="patch_13">
    <path d="M 871.531536 95.802534 
L 881.980209 106.251207 
L 871.531536 116.699879 
L 861.082864 106.251207 
L 871.531536 95.802534 
" clip-path="url(#p43e778c484)" style="fill: none; stroke: #ff0000; stroke-width: 0.72; stroke-linejoin: miter"/>
   </g>
   <g id="line2d_5">
    <path d="M 52.47533 141.065473 
L 714.852527 183.66731 
" clip-path="url(#p43e778c484)" style="fill: none; stroke: #ffffff; stroke-width: 0.72; stroke-linecap: square"/>
   </g>
   <g id="line2d_6">
    <path d="M 180.571376 149.304173 
L 205.596484 150.913703 
" clip-path="url(#p43e778c484)" style="fill: none; stroke: #ffffff; stroke-width: 0.72; stroke-linecap: square"/>
   </g>
   <g id="patch_14">
    <path d="M 193.754567 139.68181 
L 203.511058 150.779575 
L 192.413293 160.536066 
L 182.656802 149.438301 
L 193.754567 139.68181 
" clip-path="url(#p43e778c484)" style="fill: none; stroke: #ff0000; stroke-width: 0.72; stroke-linejoin: miter"/>
   </g>
   <g id="line2d_7">
    <path d="M 339.388042 159.518718 
L 364.413149 161.128248 
" clip-path="url(#p43e778c484)" style="fill: none; stroke: #ffffff; stroke-width: 0.72; stroke-linecap: square"/>
   </g>
   <g id="patch_15">
    <path d="M 352.571233 149.896355 
L 362.327724 160.99412 
L 351.229958 170.750611 
L 341.473468 159.652846 
L 352.571233 149.896355 
" clip-path="url(#p43e778c484)" style="fill: none; stroke: #ff0000; stroke-width: 0.72; stroke-linejoin: miter"/>
   </g>
   <g id="line2d_8">
    <path d="M 583.201878 29.095075 
L 583.201878 27.005341 
" clip-path="url(#p43e778c484)" style="fill: none; stroke: #ff0000; stroke-width: 0.72; stroke-linecap: square"/>
   </g>
   <g id="line2d_9">
    <path d="M 583.201878 183.407339 
L 583.201878 185.497073 
" clip-path="url(#p43e778c484)" style="fill: none; stroke: #ff0000; stroke-width: 0.72; stroke-linecap: square"/>
   </g>
   <g id="line2d_10">
    <path d="M 655.83054 106.251207 
L 657.920275 106.251207 
" clip-path="url(#p43e778c484)" style="fill: none; stroke: #ff0000; stroke-width: 0.72; stroke-linecap: square"/>
   </g>
   <g id="line2d_11">
    <path d="M 510.573215 106.251207 
L 508.48348 106.251207 
" clip-path="url(#p43e778c484)" style="fill: none; stroke: #ff0000; stroke-width: 0.72; stroke-linecap: square"/>
   </g>
   <g id="line2d_12">
    <path d="M 269.741705 194.689659 
L 269.741705 30.145177 
" clip-path="url(#p43e778c484)" style="fill: none; stroke: #ffffff; stroke-width: 0.72; stroke-linecap: square"/>
   </g>
   <g id="line2d_13">
    <path d="M 269.741705 145.562515 
L 269.741705 120.485701 
" clip-path="url(#p43e778c484)" style="fill: none; stroke: #ffffff; stroke-width: 0.72; stroke-linecap: square"/>
   </g>
   <g id="patch_16">
    <path d="M 259.293033 133.024108 
L 269.741705 122.575436 
L 280.190378 133.024108 
L 269.741705 143.472781 
L 259.293033 133.024108 
" clip-path="url(#p43e778c484)" style="fill: none; stroke: #ff0000; stroke-width: 0.72; stroke-linejoin: miter"/>
   </g>
   <g id="line2d_14">
    <path d="M 269.741705 104.349135 
L 269.741705 79.272321 
" clip-path="url(#p43e778c484)" style="fill: none; stroke: #ffffff; stroke-width: 0.72; stroke-linecap: square"/>
   </g>
   <g id="patch_17">
    <path d="M 259.293033 91.810728 
L 269.741705 81.362056 
L 280.190378 91.810728 
L 269.741705 102.2594 
L 259.293033 91.810728 
" clip-path="url(#p43e778c484)" style="fill: none; stroke: #ff0000; stroke-width: 0.72; stroke-linejoin: miter"/>
   </g>
   <g id="patch_18">
    <path d="M 454.034289 155.161992 
L 443.585617 155.161992 
L 443.585617 165.610665 
L 454.034289 165.610665 
L 454.034289 176.059337 
L 443.585617 176.059337 
" clip-path="url(#p43e778c484)" style="fill: none; stroke: #ff0000; stroke-width: 0.72; stroke-linejoin: miter"/>
   </g>
   <g id="patch_19">
    <path d="M 459.258626 155.161992 
L 459.258626 165.610665 
L 469.707298 165.610665 
L 469.707298 155.161992 
L 469.707298 176.059337 
" clip-path="url(#p43e778c484)" style="fill: none; stroke: #ff0000; stroke-width: 0.72; stroke-linejoin: miter"/>
   </g>
  </g>
 </g>
 <defs>
  <clipPath id="p43e778c484">
   <rect x="0" y="0" width="1152" height="213.715172"/>
  </clipPath>
 </defs>
</svg>
