  0
SECTION
  2
HEADER
  9
$ACADVER
  1
AC1021
  9
$ACADMAINTVER
 70
25
  9
$DWGCODEPAGE
  3
ANSI_1252
  9
$LASTSAVEDBY
  1
ezdxf
  9
$INSBASE
 10
0.0
 20
0.0
 30
0.0
  9
$EXTMIN
 10
1e+20
 20
1e+20
 30
1e+20
  9
$EXTMAX
 10
-1e+20
 20
-1e+20
 30
-1e+20
  9
$LIMMIN
 10
0.0
 20
0.0
  9
$LIMMAX
 10
420.0
 20
297.0
  9
$ORTHOMODE
 70
0
  9
$REGENMODE
 70
1
  9
$FILLMODE
 70
1
  9
$QTEXTMODE
 70
0
  9
$MIRRTEXT
 70
1
  9
$LTSCALE
 40
1.0
  9
$ATTMODE
 70
1
  9
$TEXTSIZE
 40
2.5
  9
$TRACEWID
 40
1.0
  9
$TEXTSTYLE
  7
OpenSans
  9
$CLAYER
  8
0
  9
$CELTYPE
  6
ByLayer
  9
$CECOLOR
 62
256
  9
$CELTSCALE
 40
1.0
  9
$DISPSILH
 70
0
  9
$DIMSCALE
 40
1.0
  9
$DIMASZ
 40
0.175
  9
$DIMEXO
 40
0.125
  9
$DIMDLI
 40
3.75
  9
$DIMRND
 40
0.0
  9
$DIMDLE
 40
0.0
  9
$DIMEXE
 40
0.375
  9
$DIMTP
 40
0.0
  9
$DIMTM
 40
0.0
  9
$DIMTXT
 40
0.25
  9
$DIMCEN
 40
2.5
  9
$DIMTSZ
 40
0.0
  9
$DIMTOL
 70
0
  9
$DIMLIM
 70
0
  9
$DIMTIH
 70
0
  9
$DIMTOH
 70
0
  9
$DIMSE1
 70
0
  9
$DIMSE2
 70
0
  9
$DIMTAD
 70
1
  9
$DIMZIN
 70
12
  9
$DIMBLK
  1
ARCHTICK
  9
$DIMASO
 70
1
  9
$DIMSHO
 70
1
  9
$DIMPOST
  1

  9
$DIMAPOST
  1

  9
$DIMALT
 70
0
  9
$DIMALTD
 70
3
  9
$DIMALTF
 40
0.03937007874
  9
$DIMLFAC
 40
100.0
  9
$DIMTOFL
 70
1
  9
$DIMTVP
 40
0.0
  9
$DIMTIX
 70
0
  9
$DIMSOXD
 70
0
  9
$DIMSAH
 70
0
  9
$DIMBLK1
  1

  9
$DIMBLK2
  1

  9
$DIMSTYLE
  2
EZDXF
  9
$DIMCLRD
 70
0
  9
$DIMCLRE
 70
0
  9
$DIMCLRT
 70
0
  9
$DIMTFAC
 40
0.5
  9
$DIMGAP
 40
0.1
  9
$DIMJUST
 70
0
  9
$DIMSD1
 70
0
  9
$DIMSD2
 70
0
  9
$DIMTOLJ
 70
0
  9
$DIMTZIN
 70
8
  9
$DIMALTZ
 70
0
  9
$DIMALTTZ
 70
0
  9
$DIMUPT
 70
1
  9
$DIMDEC
 70
2
  9
$DIMTDEC
 70
2
  9
$DIMALTU
 70
2
  9
$DIMALTTD
 70
3
  9
$DIMTXSTY
  7
OpenSansCondensed-Light
  9
$DIMAUNIT
 70
0
  9
$DIMADEC
 70
2
  9
$DIMALTRND
 40
0.0
  9
$DIMAZIN
 70
3
  9
$DIMDSEP
 70
46
  9
$DIMATFIT
 70
3
  9
$DIMFRAC
 70
0
  9
$DIMLDRBLK
  1

  9
$DIMLUNIT
 70
2
  9
$DIMLWD
 70
-2
  9
$DIMLWE
 70
-2
  9
$DIMTMOVE
 70
2
  9
$DIMFXL
 40
1.0
  9
$DIMFXLON
 70
0
  9
$DIMJOGANG
 40
0.785398163397
  9
$DIMTFILL
 70
0
  9
$DIMTFILLCLR
 70
0
  9
$DIMARCSYM
 70
0
  9
$DIMLTYPE
  6

  9
$DIMLTEX1
  6

  9
$DIMLTEX2
  6

  9
$LUNITS
 70
2
  9
$LUPREC
 70
4
  9
$SKETCHINC
 40
1.0
  9
$FILLETRAD
 40
10.0
  9
$AUNITS
 70
0
  9
$AUPREC
 70
2
  9
$MENU
  1
.
  9
$ELEVATION
 40
0.0
  9
$PELEVATION
 40
0.0
  9
$THICKNESS
 40
0.0
  9
$LIMCHECK
 70
0
  9
$CHAMFERA
 40
0.0
  9
$CHAMFERB
 40
0.0
  9
$CHAMFERC
 40
0.0
  9
$CHAMFERD
 40
0.0
  9
$SKPOLY
 70
0
  9
$TDCREATE
 40
2461048.0884837965
  9
$TDUCREATE
 40
2458532.153996898
  9
$TDUPDATE
 40
2461048.0884837965
  9
$TDUUPDATE
 40
2458532.1544311
  9
$TDINDWG
 40
0.0
  9
$TDUSRTIMER
 40
0.0
  9
$USRTIMER
 70
1
  9
$ANGBASE
 50
0.0
  9
$ANGDIR
 70
0
  9
$PDMODE
 70
0
  9
$PDSIZE
 40
0.0
  9
$PLINEWID
 40
0.0
  9
$SPLFRAME
 70
0
  9
$SPLINETYPE
 70
6
  9
$SPLINESEGS
 70
8
  9
$HANDSEED
  5
B5
  9
$SURFTAB1
 70
6
  9
$SURFTAB2
 70
6
  9
$SURFTYPE
 70
6
  9
$SURFU
 70
6
  9
$SURFV
 70
6
  9
$UCSBASE
  2

  9
$UCSNAME
  2

  9
$UCSORG
 10
0.0
 20
0.0
 30
0.0
  9
$UCSXDIR
 10
1.0
 20
0.0
 30
0.0
  9
$UCSYDIR
 10
0.0
 20
1.0
 30
0.0
  9
$UCSORTHOREF
  2

  9
$UCSORTHOVIEW
 70
0
  9
$UCSORGTOP
 10
0.0
 20
0.0
 30
0.0
  9
$UCSORGBOTTOM
 10
0.0
 20
0.0
 30
0.0
  9
$UCSORGLEFT
 10
0.0
 20
0.0
 30
0.0
  9
$UCSORGRIGHT
 10
0.0
 20
0.0
 30
0.0
  9
$UCSORGFRONT
 10
0.0
 20
0.0
 30
0.0
  9
$UCSORGBACK
 10
0.0
 20
0.0
 30
0.0
  9
$PUCSBASE
  2

  9
$PUCSNAME
  2

  9
$PUCSORG
 10
0.0
 20
0.0
 30
0.0
  9
$PUCSXDIR
 10
1.0
 20
0.0
 30
0.0
  9
$PUCSYDIR
 10
0.0
 20
1.0
 30
0.0
  9
$PUCSORTHOREF
  2

  9
$PUCSORTHOVIEW
 70
0
  9
$PUCSORGTOP
 10
0.0
 20
0.0
 30
0.0
  9
$PUCSORGBOTTOM
 10
0.0
 20
0.0
 30
0.0
  9
$PUCSORGLEFT
 10
0.0
 20
0.0
 30
0.0
  9
$PUCSORGRIGHT
 10
0.0
 20
0.0
 30
0.0
  9
$PUCSORGFRONT
 10
0.0
 20
0.0
 30
0.0
  9
$PUCSORGBACK
 10
0.0
 20
0.0
 30
0.0
  9
$USERI1
 70
0
  9
$USERI2
 70
0
  9
$USERI3
 70
0
  9
$USERI4
 70
0
  9
$USERI5
 70
0
  9
$USERR1
 40
0.0
  9
$USERR2
 40
0.0
  9
$USERR3
 40
0.0
  9
$USERR4
 40
0.0
  9
$USERR5
 40
0.0
  9
$WORLDVIEW
 70
1
  9
$SHADEDGE
 70
3
  9
$SHADEDIF
 70
70
  9
$TILEMODE
 70
1
  9
$MAXACTVP
 70
64
  9
$PINSBASE
 10
0.0
 20
0.0
 30
0.0
  9
$PLIMCHECK
 70
0
  9
$PEXTMIN
 10
1e+20
 20
1e+20
 30
1e+20
  9
$PEXTMAX
 10
-1e+20
 20
-1e+20
 30
-1e+20
  9
$PLIMMIN
 10
0.0
 20
0.0
  9
$PLIMMAX
 10
420.0
 20
297.0
  9
$UNITMODE
 70
0
  9
$VISRETAIN
 70
1
  9
$PLINEGEN
 70
0
  9
$PSLTSCALE
 70
1
  9
$TREEDEPTH
 70
3020
  9
$CMLSTYLE
  2
Standard
  9
$CMLJUST
 70
0
  9
$CMLSCALE
 40
20.0
  9
$PROXYGRAPHICS
 70
1
  9
$MEASUREMENT
 70
1
  9
$CELWEIGHT
370
-1
  9
$ENDCAPS
280
0
  9
$JOINSTYLE
280
0
  9
$LWDISPLAY
290
0
  9
$INSUNITS
 70
6
  9
$HYPERLINKBASE
  1

  9
$STYLESHEET
  1

  9
$XEDIT
290
1
  9
$CEPSNTYPE
380
0
  9
$PSTYLEMODE
290
1
  9
$FINGERPRINTGUID
  2
{57CAE80F-1AD3-4EE7-A18D-496C07904DBE}
  9
$VERSIONGUID
  2
{BB8BDDA9-7411-43DD-A802-A46809AB0EE9}
  9
$EXTNAMES
290
1
  9
$PSVPSCALE
 40
0.0
  9
$OLESTARTUP
290
0
  9
$SORTENTS
280
127
  9
$INDEXCTL
280
0
  9
$HIDETEXT
280
1
  9
$XCLIPFRAME
290
1
  9
$HALOGAP
280
0
  9
$OBSCOLOR
 70
257
  9
$OBSLTYPE
280
0
  9
$INTERSECTIONDISPLAY
280
0
  9
$INTERSECTIONCOLOR
 70
257
  9
$DIMASSOC
280
2
  9
$PROJECTNAME
  1

  9
$CAMERADISPLAY
290
0
  9
$LENSLENGTH
 40
50.0
  9
$CAMERAHEIGHT
 40
0.0
  9
$STEPSPERSEC
 40
24.0
  9
$STEPSIZE
 40
100.0
  9
$3DDWFPREC
 40
2.0
  9
$PSOLWIDTH
 40
0.005
  9
$PSOLHEIGHT
 40
0.08
  9
$LOFTANG1
 40
1.570796326795
  9
$LOFTANG2
 40
1.570796326795
  9
$LOFTMAG1
 40
0.0
  9
$LOFTMAG2
 40
0.0
  9
$LOFTPARAM
 70
7
  9
$LOFTNORMALS
280
1
  9
$LATITUDE
 40
37.795
  9
$LONGITUDE
 40
-122.394
  9
$NORTHDIRECTION
 40
0.0
  9
$TIMEZONE
 70
-8000
  9
$LIGHTGLYPHDISPLAY
280
1
  9
$TILEMODELIGHTSYNCH
280
1
  9
$CMATERIAL
347
20
  9
$SOLIDHIST
280
0
  9
$SHOWHIST
280
1
  9
$DWFFRAME
280
2
  9
$DGNFRAME
280
2
  9
$REALWORLDSCALE
290
1
  9
$INTERFERECOLOR
 62
256
  9
$CSHADOW
280
0
  9
$SHADOWPLANELOCATION
 40
0.0
  0
ENDSEC
  0
SECTION
  2
CLASSES
  0
CLASS
  1
ACDBDICTIONARYWDFLT
  2
AcDbDictionaryWithDefault
  3
ObjectDBX Classes
 90
0
 91
0
280
0
281
0
  0
CLASS
  1
SUN
  2
AcDbSun
  3
SCENEOE
 90
1153
 91
0
280
0
281
0
  0
CLASS
  1
VISUALSTYLE
  2
AcDbVisualStyle
  3
ObjectDBX Classes
 90
4095
 91
0
280
0
281
0
  0
CLASS
  1
MATERIAL
  2
AcDbMaterial
  3
ObjectDBX Classes
 90
1153
 91
0
280
0
281
0
  0
CLASS
  1
SCALE
  2
AcDbScale
  3
ObjectDBX Classes
 90
1153
 91
0
280
0
281
0
  0
CLASS
  1
TABLESTYLE
  2
AcDbTableStyle
  3
ObjectDBX Classes
 90
4095
 91
0
280
0
281
0
  0
CLASS
  1
MLEADERSTYLE
  2
AcDbMLeaderStyle
  3
ACDB_MLEADERSTYLE_CLASS
 90
4095
 91
0
280
0
281
0
  0
CLASS
  1
DICTIONARYVAR
  2
AcDbDictionaryVar
  3
ObjectDBX Classes
 90
0
 91
0
280
0
281
0
  0
CLASS
  1
CELLSTYLEMAP
  2
AcDbCellStyleMap
  3
ObjectDBX Classes
 90
1152
 91
0
280
0
281
0
  0
CLASS
  1
MENTALRAYRENDERSETTINGS
  2
AcDbMentalRayRenderSettings
  3
SCENEOE
 90
1024
 91
0
280
0
281
0
  0
CLASS
  1
ACDBDETAILVIEWSTYLE
  2
AcDbDetailViewStyle
  3
ObjectDBX Classes
 90
1025
 91
0
280
0
281
0
  0
CLASS
  1
ACDBSECTIONVIEWSTYLE
  2
AcDbSectionViewStyle
  3
ObjectDBX Classes
 90
1025
 91
0
280
0
281
0
  0
CLASS
  1
RASTERVARIABLES
  2
AcDbRasterVariables
  3
ISM
 90
0
 91
0
280
0
281
0
  0
CLASS
  1
ACDBPLACEHOLDER
  2
AcDbPlaceHolder
  3
ObjectDBX Classes
 90
0
 91
0
280
0
281
0
  0
CLASS
  1
LAYOUT
  2
AcDbLayout
  3
ObjectDBX Classes
 90
0
 91
0
280
0
281
0
  0
ENDSEC
  0
SECTION
  2
TABLES
  0
TABLE
  2
VPORT
  5
8
330
0
100
AcDbSymbolTable
 70
1
  0
VPORT
  5
23
330
8
100
AcDbSymbolTableRecord
100
AcDbViewportTableRecord
  2
*Active
 70
0
 10
0.0
 20
0.0
 11
1.0
 21
1.0
 12
0.0
 22
0.0
 13
0.0
 23
0.0
 14
0.5
 24
0.5
 15
0.5
 25
0.5
 16
0.0
 26
0.0
 36
1.0
 17
0.0
 27
0.0
 37
0.0
 40
1000.0
 41
1.34
 42
50.0
 43
0.0
 44
0.0
 50
0.0
 51
0.0
 71
0
 72
1000
 73
1
 74
3
 75
0
 76
0
 77
0
 78
0
281
0
 65
0
146
0.0
  0
ENDTAB
  0
TABLE
  2
LTYPE
  5
2
330
0
100
AcDbSymbolTable
 70
21
  0
LTYPE
  5
24
330
2
100
AcDbSymbolTableRecord
100
AcDbLinetypeTableRecord
  2
ByBlock
 70
0
  3

 72
65
 73
0
 40
0.0
  0
LTYPE
  5
25
330
2
100
AcDbSymbolTableRecord
100
AcDbLinetypeTableRecord
  2
ByLayer
 70
0
  3

 72
65
 73
0
 40
0.0
  0
LTYPE
  5
26
330
2
100
AcDbSymbolTableRecord
100
AcDbLinetypeTableRecord
  2
Continuous
 70
0
  3

 72
65
 73
0
 40
0.0
  0
LTYPE
  5
2F
330
2
100
AcDbSymbolTableRecord
100
AcDbLinetypeTableRecord
  2
CENTER
 70
0
  3
Center ____ _ ____ _ ____ _ ____ _ ____ _ ____
 72
65
 73
4
 40
5.08
 49
3.175
 74
0
 49
-0.635
 74
0
 49
0.635
 74
0
 49
-0.635
 74
0
  0
LTYPE
  5
30
330
2
100
AcDbSymbolTableRecord
100
AcDbLinetypeTableRecord
  2
CENTERX2
 70
0
  3
Center (2x) ________  __  ________  __  ________
 72
65
 73
4
 40
8.89
 49
6.35
 74
0
 49
-0.635
 74
0
 49
1.27
 74
0
 49
-0.635
 74
0
  0
LTYPE
  5
31
330
2
100
AcDbSymbolTableRecord
100
AcDbLinetypeTableRecord
  2
CENTER2
 70
0
  3
Center (.5x) ____ _ ____ _ ____ _ ____ _ ____
 72
65
 73
4
 40
2.54
 49
1.587
 74
0
 49
-0.318
 74
0
 49
0.318
 74
0
 49
-0.318
 74
0
  0
LTYPE
  5
32
330
2
100
AcDbSymbolTableRecord
100
AcDbLinetypeTableRecord
  2
DASHED
 70
0
  3
Dashed __ __ __ __ __ __ __ __ __ __ __ __ __ _
 72
65
 73
2
 40
1.524
 49
1.27
 74
0
 49
-0.254
 74
0
  0
LTYPE
  5
33
330
2
100
AcDbSymbolTableRecord
100
AcDbLinetypeTableRecord
  2
DASHEDX2
 70
0
  3
Dashed (2x) ____  ____  ____  ____  ____  ____
 72
65
 73
2
 40
3.048
 49
2.54
 74
0
 49
-0.508
 74
0
  0
LTYPE
  5
34
330
2
100
AcDbSymbolTableRecord
100
AcDbLinetypeTableRecord
  2
DASHED2
 70
0
  3
Dashed (.5x) _ _ _ _ _ _ _ _ _ _ _ _ _ _
 72
65
 73
2
 40
0.762
 49
0.635
 74
0
 49
-0.127
 74
0
  0
LTYPE
  5
35
330
2
100
AcDbSymbolTableRecord
100
AcDbLinetypeTableRecord
  2
PHANTOM
 70
0
  3
Phantom ______  __  __  ______  __  __  ______
 72
65
 73
6
 40
6.35
 49
3.175
 74
0
 49
-0.635
 74
0
 49
0.635
 74
0
 49
-0.635
 74
0
 49
0.635
 74
0
 49
-0.635
 74
0
  0
LTYPE
  5
36
330
2
100
AcDbSymbolTableRecord
100
AcDbLinetypeTableRecord
  2
PHANTOMX2
 70
0
  3
Phantom (2x)____________    ____    ____    ____________
 72
65
 73
6
 40
10.795
 49
6.35
 74
0
 49
-0.635
 74
0
 49
1.27
 74
0
 49
-0.635
 74
0
 49
1.27
 74
0
 49
-0.635
 74
0
  0
LTYPE
  5
37
330
2
100
AcDbSymbolTableRecord
100
AcDbLinetypeTableRecord
  2
PHANTOM2
 70
0
  3
Phantom (.5x) ___ _ _ ___ _ _ ___ _ _ ___ _ _ ___
 72
65
 73
6
 40
3.175
 49
1.587
 74
0
 49
-0.318
 74
0
 49
0.318
 74
0
 49
-0.318
 74
0
 49
0.318
 74
0
 49
-0.318
 74
0
  0
LTYPE
  5
38
330
2
100
AcDbSymbolTableRecord
100
AcDbLinetypeTableRecord
  2
DASHDOT
 70
0
  3
Dash dot __ . __ . __ . __ . __ . __ . __ . __
 72
65
 73
4
 40
3.556
 49
2.54
 74
0
 49
-0.508
 74
0
 49
0.0
 74
0
 49
-0.508
 74
0
  0
LTYPE
  5
39
330
2
100
AcDbSymbolTableRecord
100
AcDbLinetypeTableRecord
  2
DASHDOTX2
 70
0
  3
Dash dot (2x) ____  .  ____  .  ____  .  ____
 72
65
 73
4
 40
6.096
 49
5.08
 74
0
 49
-0.508
 74
0
 49
0.0
 74
0
 49
-0.508
 74
0
  0
LTYPE
  5
3A
330
2
100
AcDbSymbolTableRecord
100
AcDbLinetypeTableRecord
  2
DASHDOT2
 70
0
  3
Dash dot (.5x) _ . _ . _ . _ . _ . _ . _ . _
 72
65
 73
4
 40
1.778
 49
1.27
 74
0
 49
-0.254
 74
0
 49
0.0
 74
0
 49
-0.254
 74
0
  0
LTYPE
  5
3B
330
2
100
AcDbSymbolTableRecord
100
AcDbLinetypeTableRecord
  2
DOT
 70
0
  3
Dot .  .  .  .  .  .  .  .  .  .  .  .  .  .  .  .
 72
65
 73
2
 40
0.508
 49
0.0
 74
0
 49
-0.508
 74
0
  0
LTYPE
  5
3C
330
2
100
AcDbSymbolTableRecord
100
AcDbLinetypeTableRecord
  2
DOTX2
 70
0
  3
Dot (2x) .    .    .    .    .    .    .    . 
 72
65
 73
2
 40
1.016
 49
0.0
 74
0
 49
-1.016
 74
0
  0
LTYPE
  5
3D
330
2
100
AcDbSymbolTableRecord
100
AcDbLinetypeTableRecord
  2
DOT2
 70
0
  3
Dot (.5) . . . . . . . . . . . . . . . . . . . 
 72
65
 73
2
 40
0.254
 49
0.0
 74
0
 49
-0.254
 74
0
  0
LTYPE
  5
3E
330
2
100
AcDbSymbolTableRecord
100
AcDbLinetypeTableRecord
  2
DIVIDE
 70
0
  3
Divide __ . . __ . . __ . . __ . . __ . . __
 72
65
 73
6
 40
4.064
 49
2.54
 74
0
 49
-0.508
 74
0
 49
0.0
 74
0
 49
-0.508
 74
0
 49
0.0
 74
0
 49
-0.508
 74
0
  0
LTYPE
  5
3F
330
2
100
AcDbSymbolTableRecord
100
AcDbLinetypeTableRecord
  2
DIVIDEX2
 70
0
  3
Divide (2x) ____  . .  ____  . .  ____  . .  ____
 72
65
 73
6
 40
6.604
 49
5.08
 74
0
 49
-0.508
 74
0
 49
0.0
 74
0
 49
-0.508
 74
0
 49
0.0
 74
0
 49
-0.508
 74
0
  0
LTYPE
  5
40
330
2
100
AcDbSymbolTableRecord
100
AcDbLinetypeTableRecord
  2
DIVIDE2
 70
0
  3
Divide(.5x) _ . _ . _ . _ . _ . _ . _ . _
 72
65
 73
6
 40
2.032
 49
1.27
 74
0
 49
-0.254
 74
0
 49
0.0
 74
0
 49
-0.254
 74
0
 49
0.0
 74
0
 49
-0.254
 74
0
  0
ENDTAB
  0
TABLE
  2
LAYER
  5
1
330
0
100
AcDbSymbolTable
 70
4
  0
LAYER
  5
27
330
1
100
AcDbSymbolTableRecord
100
AcDbLayerTableRecord
  2
0
 70
0
 62
7
  6
Continuous
370
-3
390
13
347
21
  0
LAYER
  5
28
330
1
100
AcDbSymbolTableRecord
100
AcDbLayerTableRecord
  2
Defpoints
 70
0
 62
7
  6
Continuous
290
0
370
-3
390
13
347
21
  0
LAYER
  5
8A
330
1
100
AcDbSymbolTableRecord
100
AcDbLayerTableRecord
  2
Layer
 70
0
 62
1
  6
Continuous
370
50
390
13
347
21
  0
LAYER
  5
8B
330
1
100
AcDbSymbolTableRecord
100
AcDbLayerTableRecord
  2
NumLabel
 70
0
 62
1
  6
Continuous
370
15
390
13
347
21
  0
ENDTAB
  0
TABLE
  2
STYLE
  5
5
330
0
100
AcDbSymbolTable
 70
26
  0
STYLE
  5
29
330
5
100
AcDbSymbolTableRecord
100
AcDbTextStyleTableRecord
  2
Standard
 70
0
 40
0.0
 41
1.0
 50
0.0
 71
0
 42
2.5
  3
txt
  4

  0
STYLE
  5
41
330
5
100
AcDbSymbolTableRecord
100
AcDbTextStyleTableRecord
  2
OpenSans-Light
 70
0
 40
0.0
 41
1.0
 50
0.0
 71
0
 42
2.5
  3
OpenSans-Light.ttf
  4

  0
STYLE
  5
42
330
5
100
AcDbSymbolTableRecord
100
AcDbTextStyleTableRecord
  2
OpenSans-Light-Italic
 70
0
 40
0.0
 41
1.0
 50
0.0
 71
0
 42
2.5
  3
OpenSans-LightItalic.ttf
  4

  0
STYLE
  5
43
330
5
100
AcDbSymbolTableRecord
100
AcDbTextStyleTableRecord
  2
OpenSans
 70
0
 40
0.0
 41
1.0
 50
0.0
 71
0
 42
2.5
  3
OpenSans-Regular.ttf
  4

  0
STYLE
  5
44
330
5
100
AcDbSymbolTableRecord
100
AcDbTextStyleTableRecord
  2
OpenSans-Italic
 70
0
 40
0.0
 41
1.0
 50
0.0
 71
0
 42
2.5
  3
OpenSans-Italic.ttf
  4

  0
STYLE
  5
45
330
5
100
AcDbSymbolTableRecord
100
AcDbTextStyleTableRecord
  2
OpenSans-SemiBold
 70
0
 40
0.0
 41
1.0
 50
0.0
 71
0
 42
2.5
  3
OpenSans-SemiBold.ttf
  4

  0
STYLE
  5
46
330
5
100
AcDbSymbolTableRecord
100
AcDbTextStyleTableRecord
  2
OpenSans-SemiBoldItalic
 70
0
 40
0.0
 41
1.0
 50
0.0
 71
0
 42
2.5
  3
OpenSans-SemiBoldItalic.ttf
  4

  0
STYLE
  5
47
330
5
100
AcDbSymbolTableRecord
100
AcDbTextStyleTableRecord
  2
OpenSans-Bold
 70
0
 40
0.0
 41
1.0
 50
0.0
 71
0
 42
2.5
  3
OpenSans-Bold.ttf
  4

  0
STYLE
  5
48
330
5
100
AcDbSymbolTableRecord
100
AcDbTextStyleTableRecord
  2
OpenSans-BoldItalic
 70
0
 40
0.0
 41
1.0
 50
0.0
 71
0
 42
2.5
  3
OpenSans-BoldItalic.ttf
  4

  0
STYLE
  5
49
330
5
100
AcDbSymbolTableRecord
100
AcDbTextStyleTableRecord
  2
OpenSans-ExtraBold
 70
0
 40
0.0
 41
1.0
 50
0.0
 71
0
 42
2.5
  3
OpenSans-ExtraBold.ttf
  4

  0
STYLE
  5
4A
330
5
100
AcDbSymbolTableRecord
100
AcDbTextStyleTableRecord
  2
OpenSans-ExtraBoldItalic
 70
0
 40
0.0
 41
1.0
 50
0.0
 71
0
 42
2.5
  3
OpenSans-ExtraBoldItalic.ttf
  4

  0
STYLE
  5
4B
330
5
100
AcDbSymbolTableRecord
100
AcDbTextStyleTableRecord
  2
OpenSansCondensed-Bold
 70
0
 40
0.0
 41
1.0
 50
0.0
 71
0
 42
2.5
  3
OpenSansCondensed-Bold.ttf
  4

  0
STYLE
  5
4C
330
5
100
AcDbSymbolTableRecord
100
AcDbTextStyleTableRecord
  2
OpenSansCondensed-Light
 70
0
 40
0.0
 41
1.0
 50
0.0
 71
0
 42
2.5
  3
OpenSansCondensed-Light.ttf
  4

  0
STYLE
  5
4D
330
5
100
AcDbSymbolTableRecord
100
AcDbTextStyleTableRecord
  2
OpenSansCondensed-Italic
 70
0
 40
0.0
 41
1.0
 50
0.0
 71
0
 42
2.5
  3
OpenSansCondensed-LightItalic.ttf
  4

  0
STYLE
  5
4E
330
5
100
AcDbSymbolTableRecord
100
AcDbTextStyleTableRecord
  2
LiberationSans
 70
0
 40
0.0
 41
1.0
 50
0.0
 71
0
 42
2.5
  3
LiberationSans-Regular.ttf
  4

  0
STYLE
  5
4F
330
5
100
AcDbSymbolTableRecord
100
AcDbTextStyleTableRecord
  2
LiberationSans-Bold
 70
0
 40
0.0
 41
1.0
 50
0.0
 71
0
 42
2.5
  3
LiberationSans-Bold.ttf
  4

  0
STYLE
  5
50
330
5
100
AcDbSymbolTableRecord
100
AcDbTextStyleTableRecord
  2
LiberationSans-BoldItalic
 70
0
 40
0.0
 41
1.0
 50
0.0
 71
0
 42
2.5
  3
LiberationSans-BoldItalic.ttf
  4

  0
STYLE
  5
51
330
5
100
AcDbSymbolTableRecord
100
AcDbTextStyleTableRecord
  2
LiberationSans-Italic
 70
0
 40
0.0
 41
1.0
 50
0.0
 71
0
 42
2.5
  3
LiberationSans-Italic.ttf
  4

  0
STYLE
  5
52
330
5
100
AcDbSymbolTableRecord
100
AcDbTextStyleTableRecord
  2
LiberationSerif
 70
0
 40
0.0
 41
1.0
 50
0.0
 71
0
 42
2.5
  3
LiberationSerif-Regular.ttf
  4

  0
STYLE
  5
53
330
5
100
AcDbSymbolTableRecord
100
AcDbTextStyleTableRecord
  2
LiberationSerif-Bold
 70
0
 40
0.0
 41
1.0
 50
0.0
 71
0
 42
2.5
  3
LiberationSerif-Bold.ttf
  4

  0
STYLE
  5
54
330
5
100
AcDbSymbolTableRecord
100
AcDbTextStyleTableRecord
  2
LiberationSerif-BoldItalic
 70
0
 40
0.0
 41
1.0
 50
0.0
 71
0
 42
2.5
  3
LiberationSerif-BoldItalic.ttf
  4

  0
STYLE
  5
55
330
5
100
AcDbSymbolTableRecord
100
AcDbTextStyleTableRecord
  2
LiberationSerif-Italic
 70
0
 40
0.0
 41
1.0
 50
0.0
 71
0
 42
2.5
  3
LiberationSerif-Italic.ttf
  4

  0
STYLE
  5
56
330
5
100
AcDbSymbolTableRecord
100
AcDbTextStyleTableRecord
  2
LiberationMono
 70
0
 40
0.0
 41
1.0
 50
0.0
 71
0
 42
2.5
  3
LiberationMono-Regular.ttf
  4

  0
STYLE
  5
57
330
5
100
AcDbSymbolTableRecord
100
AcDbTextStyleTableRecord
  2
LiberationMono-Bold
 70
0
 40
0.0
 41
1.0
 50
0.0
 71
0
 42
2.5
  3
LiberationMono-Bold.ttf
  4

  0
STYLE
  5
58
330
5
100
AcDbSymbolTableRecord
100
AcDbTextStyleTableRecord
  2
LiberationMono-BoldItalic
 70
0
 40
0.0
 41
1.0
 50
0.0
 71
0
 42
2.5
  3
LiberationMono-BoldItalic.ttf
  4

  0
STYLE
  5
59
330
5
100
AcDbSymbolTableRecord
100
AcDbTextStyleTableRecord
  2
LiberationMono-Italic
 70
0
 40
0.0
 41
1.0
 50
0.0
 71
0
 42
2.5
  3
LiberationMono-Italic.ttf
  4

  0
ENDTAB
  0
TABLE
  2
VIEW
  5
7
330
0
100
AcDbSymbolTable
 70
0
  0
ENDTAB
  0
TABLE
  2
UCS
  5
6
330
0
100
AcDbSymbolTable
 70
0
  0
ENDTAB
  0
TABLE
  2
APPID
  5
3
330
0
100
AcDbSymbolTable
 70
3
  0
APPID
  5
2A
330
3
100
AcDbSymbolTableRecord
100
AcDbRegAppTableRecord
  2
ACAD
 70
0
  0
APPID
  5
B2
330
3
100
AcDbSymbolTableRecord
100
AcDbRegAppTableRecord
  2
HATCHBACKGROUNDCOLOR
 70
0
  0
APPID
  5
B3
330
3
100
AcDbSymbolTableRecord
100
AcDbRegAppTableRecord
  2
EZDXF
 70
0
  0
ENDTAB
  0
TABLE
  2
DIMSTYLE
  5
4
330
0
100
AcDbSymbolTable
 70
12
100
AcDbDimStyleTable
  0
DIMSTYLE
105
2B
330
4
100
AcDbSymbolTableRecord
100
AcDbDimStyleTableRecord
  2
Standard
 70
0
 40
1.0
 41
2.5
 42
0.625
 43
3.75
 44
1.25
 45
0.0
 46
0.0
 47
0.0
 48
0.0
 49
2.5
140
2.5
141
2.5
142
0.0
143
0.03937007874
144
1.0
145
0.0
146
1.0
147
0.625
148
0.0
 69
0
 70
0
 71
0
 72
0
 73
0
 74
0
 75
0
 76
0
 77
1
 78
8
 79
3
170
0
171
3
172
1
173
0
174
0
175
0
176
0
177
0
178
0
179
2
271
2
272
2
273
2
274
3
275
0
276
0
277
2
278
44
279
0
280
0
281
0
282
0
283
0
284
8
285
0
286
0
288
0
289
3
290
0
371
-2
372
-2
  0
DIMSTYLE
105
73
330
4
100
AcDbSymbolTableRecord
100
AcDbDimStyleTableRecord
  2
EZDXF
 70
0
 40
1.0
 41
0.175
 42
0.125
 43
3.75
 44
0.375
 45
0.0
 46
0.0
 47
0.0
 48
0.0
 49
2.5
140
0.25
141
2.5
142
0.0
143
0.03937007874
144
100.0
145
0.0
146
0.5
147
0.1
148
0.0
 69
0
 70
0
 71
0
 72
0
 73
0
 74
0
 75
0
 76
0
 77
1
 78
12
 79
3
170
0
171
3
172
1
173
0
174
0
175
0
176
0
177
0
178
0
179
2
271
2
272
2
273
2
274
3
275
0
276
0
277
2
278
46
279
2
280
0
281
0
282
0
283
0
284
8
285
0
286
0
288
1
289
3
290
0
340
4C
342
74
371
-2
372
-2
  0
DIMSTYLE
105
7C
330
4
100
AcDbSymbolTableRecord
100
AcDbDimStyleTableRecord
  2
EZ_M_100_H25_CM
 70
0
 40
1.0
 41
0.25
 42
0.125
 43
3.75
 44
0.375
 45
0.0
 46
0.0
 47
0.0
 48
0.0
 49
2.5
140
0.25
141
2.5
142
0.125
143
0.03937007874
144
100.0
145
0.0
146
0.5
147
0.1
148
0.0
 69
0
 70
0
 71
0
 72
0
 73
0
 74
0
 75
0
 76
0
 77
1
 78
12
 79
3
170
0
171
3
172
1
173
0
174
0
175
0
176
0
177
0
178
0
179
2
271
2
272
2
273
2
274
3
275
0
276
0
277
2
278
46
279
2
280
0
281
0
282
0
283
0
284
8
285
0
286
0
288
1
289
3
290
0
340
4C
371
-2
372
-2
  0
DIMSTYLE
105
7D
330
4
100
AcDbSymbolTableRecord
100
AcDbDimStyleTableRecord
  2
EZ_M_50_H25_CM
 70
0
 40
1.0
 41
0.125
 42
0.0625
 43
3.75
 44
0.1875
 45
0.0
 46
0.0
 47
0.0
 48
0.0
 49
2.5
140
0.125
141
2.5
142
0.0625
143
0.03937007874
144
100.0
145
0.0
146
0.5
147
0.05
148
0.0
 69
0
 70
0
 71
0
 72
0
 73
0
 74
0
 75
0
 76
0
 77
1
 78
12
 79
3
170
0
171
3
172
1
173
0
174
0
175
0
176
0
177
0
178
0
179
2
271
2
272
2
273
2
274
3
275
0
276
0
277
2
278
46
279
2
280
0
281
0
282
0
283
0
284
8
285
0
286
0
288
1
289
3
290
0
340
4C
371
-2
372
-2
  0
DIMSTYLE
105
7E
330
4
100
AcDbSymbolTableRecord
100
AcDbDimStyleTableRecord
  2
EZ_M_25_H25_CM
 70
0
 40
1.0
 41
0.0625
 42
0.03125
 43
3.75
 44
0.09375
 45
0.0
 46
0.0
 47
0.0
 48
0.0
 49
2.5
140
0.0625
141
2.5
142
0.03125
143
0.03937007874
144
100.0
145
0.0
146
0.5
147
0.025
148
0.0
 69
0
 70
0
 71
0
 72
0
 73
0
 74
0
 75
0
 76
0
 77
1
 78
12
 79
3
170
0
171
3
172
1
173
0
174
0
175
0
176
0
177
0
178
0
179
2
271
2
272
2
273
2
274
3
275
0
276
0
277
2
278
46
279
2
280
0
281
0
282
0
283
0
284
8
285
0
286
0
288
1
289
3
290
0
340
4C
371
-2
372
-2
  0
DIMSTYLE
105
7F
330
4
100
AcDbSymbolTableRecord
100
AcDbDimStyleTableRecord
  2
EZ_M_20_H25_CM
 70
0
 40
1.0
 41
0.05
 42
0.025
 43
3.75
 44
0.07500000000000001
 45
0.0
 46
0.0
 47
0.0
 48
0.0
 49
2.5
140
0.05
141
2.5
142
0.025
143
0.03937007874
144
100.0
145
0.0
146
0.5
147
0.020000000000000004
148
0.0
 69
0
 70
0
 71
0
 72
0
 73
0
 74
0
 75
0
 76
0
 77
1
 78
12
 79
3
170
0
171
3
172
1
173
0
174
0
175
0
176
0
177
0
178
0
179
2
271
2
272
2
273
2
274
3
275
0
276
0
277
2
278
46
279
2
280
0
281
0
282
0
283
0
284
8
285
0
286
0
288
1
289
3
290
0
340
4C
371
-2
372
-2
  0
DIMSTYLE
105
80
330
4
100
AcDbSymbolTableRecord
100
AcDbDimStyleTableRecord
  2
EZ_M_10_H25_CM
 70
0
 40
1.0
 41
0.025
 42
0.0125
 43
3.75
 44
0.037500000000000006
 45
0.0
 46
0.0
 47
0.0
 48
0.0
 49
2.5
140
0.025
141
2.5
142
0.0125
143
0.03937007874
144
100.0
145
0.0
146
0.5
147
0.010000000000000002
148
0.0
 69
0
 70
0
 71
0
 72
0
 73
0
 74
0
 75
0
 76
0
 77
1
 78
12
 79
3
170
0
171
3
172
1
173
0
174
0
175
0
176
0
177
0
178
0
179
2
271
2
272
2
273
2
274
3
275
0
276
0
277
2
278
46
279
2
280
0
281
0
282
0
283
0
284
8
285
0
286
0
288
1
289
3
290
0
340
4C
371
-2
372
-2
  0
DIMSTYLE
105
81
330
4
100
AcDbSymbolTableRecord
100
AcDbDimStyleTableRecord
  2
EZ_M_5_H25_CM
 70
0
 40
1.0
 41
0.0125
 42
0.00625
 43
3.75
 44
0.018750000000000003
 45
0.0
 46
0.0
 47
0.0
 48
0.0
 49
2.5
140
0.0125
141
2.5
142
0.00625
143
0.03937007874
144
100.0
145
0.0
146
0.5
147
0.005000000000000001
148
0.0
 69
0
 70
0
 71
0
 72
0
 73
0
 74
0
 75
0
 76
0
 77
1
 78
12
 79
3
170
0
171
3
172
1
173
0
174
0
175
0
176
0
177
0
178
0
179
2
271
2
272
2
273
2
274
3
275
0
276
0
277
2
278
46
279
2
280
0
281
0
282
0
283
0
284
8
285
0
286
0
288
1
289
3
290
0
340
4C
371
-2
372
-2
  0
DIMSTYLE
105
82
330
4
100
AcDbSymbolTableRecord
100
AcDbDimStyleTableRecord
  2
EZ_M_1_H25_CM
 70
0
 40
1.0
 41
0.0025
 42
0.00125
 43
3.75
 44
0.00375
 45
0.0
 46
0.0
 47
0.0
 48
0.0
 49
2.5
140
0.0025
141
2.5
142
0.00125
143
0.03937007874
144
100.0
145
0.0
146
0.5
147
0.001
148
0.0
 69
0
 70
0
 71
0
 72
0
 73
0
 74
0
 75
0
 76
0
 77
1
 78
12
 79
3
170
0
171
3
172
1
173
0
174
0
175
0
176
0
177
0
178
0
179
2
271
2
272
2
273
2
274
3
275
0
276
0
277
2
278
46
279
2
280
0
281
0
282
0
283
0
284
8
285
0
286
0
288
1
289
3
290
0
340
4C
371
-2
372
-2
  0
DIMSTYLE
105
83
330
4
100
AcDbSymbolTableRecord
100
AcDbDimStyleTableRecord
  2
EZ_RADIUS
 70
0
 40
1.0
 41
0.25
 42
0.125
 43
3.75
 44
0.375
 45
0.0
 46
0.0
 47
0.0
 48
0.0
 49
2.5
140
0.25
141
0.0
142
0.0
143
0.03937007874
144
100.0
145
0.0
146
0.5
147
0.1
148
0.0
 69
0
 70
0
 71
0
 72
0
 73
0
 74
0
 75
0
 76
0
 77
1
 78
12
 79
3
170
0
171
3
172
0
173
0
174
0
175
0
176
0
177
0
178
0
179
2
271
2
272
2
273
2
274
3
275
0
276
0
277
2
278
46
279
1
280
0
281
0
282
0
283
0
284
8
285
0
286
0
288
1
289
3
290
0
340
4C
342
84
371
-2
372
-2
  0
DIMSTYLE
105
88
330
4
100
AcDbSymbolTableRecord
100
AcDbDimStyleTableRecord
  2
EZ_RADIUS_INSIDE
 70
0
 40
1.0
 41
0.25
 42
0.125
 43
3.75
 44
0.375
 45
0.0
 46
0.0
 47
0.0
 48
0.0
 49
2.5
140
0.25
141
0.0
142
0.0
143
0.03937007874
144
100.0
145
0.0
146
0.5
147
0.1
148
0.0
 69
0
 70
0
 71
0
 72
0
 73
0
 74
0
 75
0
 76
0
 77
0
 78
12
 79
3
170
0
171
3
172
0
173
0
174
1
175
0
176
0
177
0
178
0
179
2
271
2
272
2
273
2
274
3
275
0
276
0
277
2
278
46
279
0
280
0
281
0
282
0
283
0
284
8
285
0
286
0
288
1
289
0
290
0
340
4C
342
84
371
-2
372
-2
  0
DIMSTYLE
105
89
330
4
100
AcDbSymbolTableRecord
100
AcDbDimStyleTableRecord
  2
EZ_CURVED
 70
0
 40
1.0
 41
0.25
 42
0.125
 43
3.75
 44
0.375
 45
0.0
 46
0.0
 47
0.0
 48
0.0
 49
2.5
140
0.25
141
2.5
142
0.0
143
0.03937007874
144
100.0
145
0.0
146
0.5
147
0.1
148
0.0
 69
0
 70
0
 71
0
 72
0
 73
0
 74
0
 75
0
 76
0
 77
1
 78
12
 79
2
 90
2
170
0
171
3
172
1
173
0
174
0
175
0
176
0
177
0
178
0
179
2
271
2
272
2
273
2
274
3
275
0
276
0
277
2
278
46
279
2
280
0
281
0
282
0
283
0
284
8
285
0
286
0
288
1
289
3
290
0
340
4C
371
-2
372
-2
  0
ENDTAB
  0
TABLE
  2
BLOCK_RECORD
  5
9
330
0
100
AcDbSymbolTable
 70
5
  0
BLOCK_RECORD
  5
17
330
9
100
AcDbSymbolTableRecord
100
AcDbBlockTableRecord
  2
*Model_Space
340
1A
 70
0
280
1
281
0
  0
BLOCK_RECORD
  5
1B
330
9
100
AcDbSymbolTableRecord
100
AcDbBlockTableRecord
  2
*Paper_Space
340
1E
 70
0
280
1
281
0
  0
BLOCK_RECORD
  5
74
330
9
100
AcDbSymbolTableRecord
100
AcDbBlockTableRecord
  2
_ARCHTICK
340
0
 70
0
280
1
281
0
  0
BLOCK_RECORD
  5
78
330
9
100
AcDbSymbolTableRecord
100
AcDbBlockTableRecord
  2
_CLOSEDFILLED
340
0
 70
0
280
1
281
0
  0
BLOCK_RECORD
  5
84
330
9
100
AcDbSymbolTableRecord
100
AcDbBlockTableRecord
  2
_CLOSEDBLANK
340
0
 70
0
280
1
281
0
  0
ENDTAB
  0
ENDSEC
  0
SECTION
  2
BLOCKS
  0
BLOCK
  5
18
330
17
100
AcDbEntity
  8
0
100
AcDbBlockBegin
  2
*Model_Space
 70
0
 10
0.0
 20
0.0
 30
0.0
  3
*Model_Space
  1

  0
ENDBLK
  5
19
330
17
100
AcDbEntity
  8
0
100
AcDbBlockEnd
  0
BLOCK
  5
1C
330
1B
100
AcDbEntity
  8
0
100
AcDbBlockBegin
  2
*Paper_Space
 70
0
 10
0.0
 20
0.0
 30
0.0
  3
*Paper_Space
  1

  0
ENDBLK
  5
1D
330
1B
100
AcDbEntity
  8
0
100
AcDbBlockEnd
  0
BLOCK
  5
75
330
74
100
AcDbEntity
  8
0
100
AcDbBlockBegin
  2
_ARCHTICK
 70
0
 10
0.0
 20
0.0
 30
0.0
  3
_ARCHTICK
  1

  0
LWPOLYLINE
  5
77
330
74
100
AcDbEntity
  8
0
  6
BYBLOCK
 62
0
100
AcDbPolyline
 90
2
 70
0
 43
0.15
 10
-0.5
 20
-0.5
 10
0.5
 20
0.5
  0
ENDBLK
  5
76
330
74
100
AcDbEntity
  8
0
100
AcDbBlockEnd
  0
BLOCK
  5
79
330
78
100
AcDbEntity
  8
0
100
AcDbBlockBegin
  2
_CLOSEDFILLED
 70
0
 10
0.0
 20
0.0
 30
0.0
  3
_CLOSEDFILLED
  1

  0
SOLID
  5
7B
330
78
100
AcDbEntity
  8
0
  6
BYBLOCK
 62
0
100
AcDbTrace
 10
-1.0
 20
0.16439898372402537
 30
0.0
 11
0.0
 21
0.0
 31
0.0
 12
-1.0
 22
-0.16439898372402537
 32
0.0
 13
-1.0
 23
-0.16439898372402537
 33
0.0
  0
ENDBLK
  5
7A
330
78
100
AcDbEntity
  8
0
100
AcDbBlockEnd
  0
BLOCK
  5
85
330
84
100
AcDbEntity
  8
0
100
AcDbBlockBegin
  2
_CLOSEDBLANK
 70
0
 10
0.0
 20
0.0
 30
0.0
  3
_CLOSEDBLANK
  1

  0
LWPOLYLINE
  5
87
330
84
100
AcDbEntity
  8
0
  6
BYBLOCK
 62
0
100
AcDbPolyline
 90
3
 70
1
 10
-1.0
 20
0.16439898372402537
 10
0.0
 20
0.0
 10
-1.0
 20
-0.16439898372402537
  0
ENDBLK
  5
86
330
84
100
AcDbEntity
  8
0
100
AcDbBlockEnd
  0
ENDSEC
  0
SECTION
  2
ENTITIES
  0
LWPOLYLINE
  5
8C
330
17
100
AcDbEntity
  8
Layer
100
AcDbPolyline
 90
261
 70
1
 10
199.0643174726188
 20
189.2851746492366
 10
198.1897031338301
 20
189.45968116016198
 10
196.7631882896187
 20
189.75021879578088
 10
195.23147830311473
 20
190.07507936766837
 10
193.62791484376925
 20
190.42359483507062
 10
191.98032157320324
 20
190.7898234200869
 10
190.30895790625814
 20
191.16853910341177
 10
188.62493295375486
 20
191.55891747124676
 10
186.93232492997544
 20
191.95585668034087
 10
185.23873224740976
 20
192.36016133225345
 10
183.54374590068096
 20
192.7724650724257
 10
181.8468389555709
 20
193.18875544285532
 10
180.15341427522816
 20
193.60966442471448
 10
178.46361428552757
 20
194.03842126254477
 10
176.77588377146103
 20
194.47527432152697
 10
175.0876492332571
 20
194.9154076550885
 10
173.39515817991443
 20
195.3555393795164
 10
171.70323792830715
 20
195.80203466890373
 10
170.00772515583196
 20
196.2540145082995
 10
168.31041155109648
 20
196.70775414226122
 10
166.61404843640014
 20
197.16336769506634
 10
164.92067315997716
 20
197.62193077633881
 10
163.23036480549717
 20
198.08209442477175
 10
161.54082699522252
 20
198.5381109018935
 10
159.84972659376396
 20
198.99402841773014
 10
158.15936273514322
 20
199.45136596059606
 10
156.46933807830862
 20
199.90398634164947
 10
154.77714815587578
 20
200.35271579058784
 10
153.08737953845412
 20
200.798155570591
 10
152.0310322800513
 20
201.07253834314255
 10
151.7796280258177
 20
200.10465617006918
 10
151.15464344268634
 20
200.26700976507746
 10
149.4696284129433
 20
200.69656268976536
 10
147.78688264531786
 20
201.11969887096043
 10
146.102094258283
 20
201.53495007648704
 10
144.41586179397183
 20
201.94392475081318
 10
142.732787428275
 20
202.34534795074956
 10
141.05128086178377
 20
202.73708738125126
 10
139.36662235684798
 20
203.1192525753083
 10
137.67827626336052
 20
203.4931517885544
 10
135.98543373394074
 20
203.85975824848663
 10
134.29294680113182
 20
204.21967092951346
 10
132.60187583897414
 20
204.57078241023694
 10
130.91050364554602
 20
204.91256500828518
 10
129.2180702117551
 20
205.24435908620154
 10
127.51763190533313
 20
205.5679905642268
 10
125.82326263143662
 20
205.8850008368868
 10
124.13018767219432
 20
206.1895514935095
 10
122.42833060914597
 20
206.4842061669096
 10
120.72327946095687
 20
206.7720544014179
 10
119.02088490011234
 20
207.05197763644503
 10
117.31904928820444
 20
207.32168588692073
 10
115.61465331562178
 20
207.5811771411234
 10
113.90597712062375
 20
207.8316034125715
 10
112.19443716416674
 20
208.07417542743514
 10
110.48367836903265
 20
208.3088093252289
 10
108.77336019818362
 20
208.53376293267263
 10
107.05706366897064
 20
208.74951009011224
 10
105.34092883434614
 20
208.9584181068334
 10
103.62641290766345
 20
209.15855901442356
 10
101.91202317644435
 20
209.3493539786206
 10
100.19853949709326
 20
209.53038118337784
 10
98.4819666898303
 20
209.70096923692012
 10
96.75946547281738
 20
209.86348316146652
 10
95.04371633228531
 20
210.0190566635154
 10
93.32644798909803
 20
210.16271264986764
 10
91.60608997544365
 20
210.29784741926642
 10
89.8900877292135
 20
210.42398571556618
 10
88.17350708725765
 20
210.53884084693263
 10
86.45457723956707
 20
210.6434956803454
 10
84.73692898423015
 20
210.73867519612418
 10
83.0181408292452
 20
210.82308159051425
 10
81.2974704036867
 20
210.8977648585256
 10
79.57944776678133
 20
210.96341962243145
 10
77.86628756885729
 20
211.01817174261862
 10
76.15255006247685
 20
211.05964406115842
 10
74.4331715720241
 20
211.08998040708406
 10
72.72285523566866
 20
211.11165617797369
 10
71.00877732319405
 20
211.11792148318128
 10
69.2928590956601
 20
211.11478137502547
 10
67.58252201715842
 20
211.10050109751603
 10
65.87286096566476
 20
211.0735905646857
 10
64.16922308588437
 20
211.03443558395216
 10
62.46498579484533
 20
210.98017401194278
 10
60.76153024755557
 20
210.91273426047186
 10
59.057614924026524
 20
210.83170887415582
 10
57.35823165177406
 20
210.73877047571318
 10
55.662833471262765
 20
210.6309507176078
 10
53.9682558142718
 20
210.50800627115296
 10
52.27526371408428
 20
210.37054803922615
 10
50.584535930082716
 20
210.21934918529416
 10
48.904891254533425
 20
210.05523875850065
 10
47.23437963530631
 20
209.87320273105982
 10
45.56436040109674
 20
209.67107287395342
 10
43.90307458402815
 20
209.453316694459
 10
42.24892377979801
 20
209.21566309243318
 10
40.60050126501201
 20
208.95762566928647
 10
38.953364169511936
 20
208.67828209751278
 10
37.31612290246841
 20
208.3827405129248
 10
35.69617331439047
 20
208.06841262907477
 10
34.09087454911047
 20
207.73107711020603
 10
32.501754290598804
 20
207.3695272728926
 10
30.927454773017388
 20
206.98195029299998
 10
29.37299842537798
 20
206.5681833175592
 10
27.83068414077313
 20
206.1237937477636
 10
26.32030354135614
 20
205.6591875839258
 10
24.83705897729542
 20
205.16180267608695
 10
23.38952129496915
 20
204.63874250296726
 10
21.98843865424169
 20
204.08870069855428
 10
20.6390155020028
 20
203.51229658307636
 10
19.359912765058212
 20
202.9176345779504
 10
18.170122912784628
 20
202.3124807275764
 10
17.070906913479035
 20
201.69472310163962
 10
16.090544771274992
 20
201.0961134797192
 10
15.237128766946185
 20
200.52266936718783
 10
14.506694415880034
 20
199.98148702194143
 10
13.886626443583737
 20
199.47643144572567
 10
13.39133762165558
 20
199.04050314958485
 10
12.964215410389215
 20
198.61119083214106
 10
12.622204321745443
 20
198.24297455090786
 10
12.357541771071695
 20
197.9281617632408
 10
12.140823322349505
 20
197.63018849178775
 10
11.95944318159033
 20
197.3445136060621
 10
11.818949211869608
 20
197.0991281805253
 10
11.702523590228836
 20
196.86207884925457
 10
11.600384581927756
 20
196.62131206815715
 10
11.523302859550853
 20
196.42453154990656
 10
11.463722512086392
 20
196.24752412977426
 10
11.414942080125371
 20
196.07007675026435
 10
11.38096289053405
 20
195.92875586116807
 10
11.35352364230819
 20
195.76773047970457
 10
11.333354979572235
 20
195.6192639525098
 10
11.321338100395167
 20
195.52332895693013
 10
11.332559836501105
 20
195.47655560480166
 10
11.34311782816718
 20
195.30561109077559
 10
11.348841533554932
 20
195.195235086189
 10
11.354394533670515
 20
195.11315267963155
 10
11.369209507925106
 20
195.0240355119727
 10
11.403820948991367
 20
194.91051835565298
 10
11.461211373583197
 20
194.7764682518932
 10
11.544012592725934
 20
194.62518465500762
 10
11.657998132912411
 20
194.45588314536857
 10
11.807542428994722
 20
194.2700367708018
 10
11.994068084184804
 20
194.07215885652982
 10
12.223928245337802
 20
193.86363800751266
 10
12.509086361872676
 20
193.64377738963418
 10
12.871693142043455
 20
193.40806180803108
 10
13.332303033880464
 20
193.1524231862846
 10
13.884733522149318
 20
192.88108861602944
 10
14.523431677453814
 20
192.60230750425595
 10
15.28940118376147
 20
192.3188704472121
 10
16.215666245755017
 20
192.02979330835907
 10
17.292787028346766
 20
191.73356688690953
 10
18.487351820589097
 20
191.4390836586258
 10
19.807297461221886
 20
191.1631953886827
 10
21.238250357631316
 20
190.90447758871684
 10
22.73038533723645
 20
190.66479740070454
 10
24.27227132100691
 20
190.45419432221524
 10
25.868866136562488
 20
190.2733019062298
 10
27.52313544693598
 20
190.11041822367784
 10
29.19641523221413
 20
189.95300506524595
 10
30.85082434201292
 20
189.80898193164907
 10
32.51726258638965
 20
189.6949500314945
 10
34.22562543949013
 20
189.59996622397935
 10
35.94417495525377
 20
189.50610351287702
 10
37.658741426743205
 20
189.41767465571778
 10
39.36807943490568
 20
189.3401035523981
 10
41.077845511694775
 20
189.27717490200192
 10
42.79897448259261
 20
189.22793075183233
 10
44.531550070664586
 20
189.1871105800461
 10
46.27270758346439
 20
189.15177925184645
 10
47.5018325100023
 20
189.12874668481342
 10
47.48309680321078
 20
188.12892221357308
 10
47.999877332364164
 20
188.11923761058455
 10
49.7389446377509
 20
188.08945905395473
 10
51.47463505573691
 20
188.0676674930768
 10
53.205781230832216
 20
188.0469783013081
 10
54.941658094533054
 20
188.0370766642394
 10
56.68667561778806
 20
188.03110926208024
 10
58.437414952418536
 20
188.02436427702452
 10
60.19228345636779
 20
188.0200892814914
 10
61.94922382902389
 20
188.01758448059584
 10
63.705938963783
 20
188.01703201078982
 10
65.46128611017399
 20
188.0191068982433
 10
67.2156385530371
 20
188.02497710816485
 10
68.97120754627703
 20
188.0351758107861
 10
70.73026373872332
 20
188.04873435990672
 10
72.49274040718963
 20
188.06363720903582
 10
74.25682283415838
 20
188.0787211792963
 10
76.02072848154208
 20
188.09354171686638
 10
77.78304601122926
 20
188.1084133835293
 10
79.54336551770919
 20
188.1249264871259
 10
81.30338099037003
 20
188.1442426261329
 10
83.06520152751041
 20
188.16570344023708
 10
84.82791581761256
 20
188.1874534265099
 10
86.59025373340897
 20
188.20983315433804
 10
88.35214795009298
 20
188.23343759151103
 10
90.11264276732956
 20
188.25841752829348
 10
91.8725938090636
 20
188.28586254232897
 10
93.63387484371219
 20
188.31552555545426
 10
95.39611963509837
 20
188.34563494299795
 10
97.15721936117994
 20
188.3745444972616
 10
98.916450108037
 20
188.4039389866597
 10
100.67356542610104
 20
188.43590878844992
 10
102.42994350774406
 20
188.47127211354515
 10
104.18760941673631
 20
188.51017965470206
 10
105.94804896896616
 20
188.55113653766728
 10
107.7095474868742
 20
188.59190685963256
 10
109.47056461094968
 20
188.63130609986501
 10
111.22964093623014
 20
188.6707113561306
 10
112.98538809943429
 20
188.71245148950473
 10
114.7399865475206
 20
188.75814551889883
 10
116.49583725861368
 20
188.80694132153124
 10
118.25189229710577
 20
188.85455158096923
 10
120.00776678605581
 20
188.89771635911802
 10
121.76476354178457
 20
188.93853629141654
 10
123.520438901928
 20
188.98034222538266
 10
125.27477094822927
 20
189.0256896445111
 10
127.03060471428773
 20
189.0749772633315
 10
128.78850260261396
 20
189.12544993813168
 10
130.5453481418895
 20
189.1736879581825
 10
132.3003049755913
 20
189.21925720854856
 10
134.05329518403778
 20
189.26669754406532
 10
135.80599105202666
 20
189.31884500787194
 10
137.5620068441905
 20
189.37471290354497
 10
139.31935946916107
 20
189.43011201195438
 10
141.0767353975761
 20
189.48230871678203
 10
142.8352881389961
 20
189.531161556984
 10
144.5955989245133
 20
189.57823751475706
 10
146.35629086061167
 20
189.62438343502848
 10
148.11512098000617
 20
189.67003003237207
 10
149.8711205293514
 20
189.71798138404876
 10
151.62765909258752
 20
189.7673395799225
 10
153.3827237228113
 20
189.81224415788049
 10
155.13934697677212
 20
189.85192765403147
 10
156.8991600930843
 20
189.88975042483975
 10
158.66102377893847
 20
189.927926351294
 10
160.42321674576408
 20
189.96631144613445
 10
162.18392998668068
 20
190.00412906959838
 10
163.9420597957452
 20
190.03936245362132
 10
165.69846029520835
 20
190.0702349170544
 10
167.45508690889267
 20
190.09797828635226
 10
169.21080837116085
 20
190.12349347044443
 10
170.96417228104775
 20
190.1438404212673
 10
172.7175269299473
 20
190.15976631999501
 10
174.4706782879011
 20
190.17645735758342
 10
176.22286353539505
 20
190.1922417070699
 10
177.97274881828903
 20
190.20104068485742
 10
179.72326369289442
 20
190.20490543771152
 10
181.47401000278856
 20
190.20399881196363
 10
183.22437717347862
 20
190.2009554135425
 10
184.97170898525167
 20
190.1918406170685
 10
186.71754801870986
 20
190.17705597389838
 10
188.45940953751986
 20
190.1579075830589
 10
190.19256993035364
 20
190.13365830764397
 10
191.91100219794635
 20
190.102416162529
 10
193.60446364999206
 20
190.06641383638217
 10
195.25169142576812
 20
190.0258551468988
 10
196.82289545493353
 20
189.98073804589674
 10
198.28054406497455
 20
189.93140173959307
 10
199.1697025969812
 20
189.89646065571554
  0
LWPOLYLINE
  5
8D
330
17
100
AcDbEntity
  8
Layer
100
AcDbPolyline
 90
5
 70
0
 10
134.18455897105903
 20
200.15687620221897
 10
130.26807557146125
 20
200.96999229520642
 10
131.0811916644487
 20
204.8864756948042
 10
134.9976750640465
 20
204.07335960181675
 10
134.18455897105903
 20
200.15687620221897
  0
LWPOLYLINE
  5
8E
330
17
100
AcDbEntity
  8
Layer
100
AcDbPolyline
 90
5
 70
0
 10
63.748255771452676
 20
207.02787639162946
 10
59.75139121490756
 20
206.86952956774778
 10
59.593044391025884
 20
210.8663941242929
 10
63.589908947571004
 20
211.02474094817458
 10
63.748255771452676
 20
207.02787639162946
  0
LWPOLYLINE
  5
8F
330
17
100
AcDbEntity
  8
Layer
100
AcDbPolyline
 90
5
 70
0
 10
32.52158051741864
 20
203.26711328741786
 10
28.65637251819127
 20
202.23746911455586
 10
27.626728345329255
 20
206.10267711378324
 10
31.491936344556628
 20
207.13232128664524
 10
32.52158051741864
 20
203.26711328741786
  0
LWPOLYLINE
  5
90
330
17
100
AcDbEntity
  8
Layer
100
AcDbPolyline
 90
5
 70
0
 10
17.887764999332532
 20
196.34280666844708
 10
16.39249043491546
 20
195.01459208600667
 10
13.071953978814449
 20
198.75277849704938
 10
14.567228543231522
 20
200.0809930794898
 10
17.887764999332532
 20
196.34280666844708
  0
LWPOLYLINE
  5
91
330
17
100
AcDbEntity
  8
Layer
100
AcDbPolyline
 90
5
 70
0
 10
14.725220430257778
 20
198.23870566319982
 10
16.32363238707901
 20
197.03659118600103
 10
13.318346194082025
 20
193.04056129394797
 10
11.719934237260794
 20
194.24267577114676
 10
14.725220430257778
 20
198.23870566319982
  0
LWPOLYLINE
  5
92
330
17
100
AcDbEntity
  8
Layer
100
AcDbPolyline
 90
5
 70
0
 10
36.25735382149455
 20
193.48533653096638
 10
40.25324715987787
 20
193.30412828539295
 10
40.07203891430446
 20
189.30823494700962
 10
36.07614557592113
 20
189.48944319258305
 10
36.25735382149455
 20
193.48533653096638
  0
LINE
  5
93
330
17
100
AcDbEntity
  8
Layer
100
AcDbLine
 10
179.57562047458012
 20
193.75626937464568
 30
0.0
 11
179.3727510557776
 21
192.7770635745634
 31
0.0
  0
LINE
  5
94
330
17
100
AcDbEntity
  8
Layer
100
AcDbLine
 10
179.19132745374344
 20
191.2033567516919
 30
0.0
 11
179.16608805260097
 21
190.20367531611856
 31
0.0
  0
LINE
  5
95
330
17
100
AcDbEntity
  8
Layer
100
AcDbLine
 10
160.2303224339386
 20
198.89142048869144
 30
0.0
 11
160.00050907277708
 21
197.91818576929862
 31
0.0
  0
LINE
  5
96
330
17
100
AcDbEntity
  8
Layer
100
AcDbLine
 10
159.16642825484632
 20
190.9387867225345
 30
0.0
 11
159.1604303261609
 21
189.93880471027052
 31
0.0
  0
LINE
  5
97
330
17
100
AcDbEntity
  8
Layer
100
AcDbLine
 10
81.04875032455058
 20
210.90726977291004
 30
0.0
 11
80.8720137634694
 21
209.92301158118534
 31
0.0
  0
LINE
  5
98
330
17
100
AcDbEntity
  8
Layer
100
AcDbLine
 10
79.15692785469949
 20
189.12133832364646
 30
0.0
 11
79.1700733786219
 21
188.12142472977908
 31
0.0
  0
LWPOLYLINE
  5
99
330
17
100
AcDbEntity
  8
Layer
100
AcDbPolyline
 90
300
 70
1
 10
101.26535714285524
 20
200.0
 10
101.2610998382675
 20
200.4113502495166
 10
101.24832980441015
 20
200.822518858343
 10
101.22705268017066
 20
201.2333242659964
 10
101.1972778609281
 20
201.6435850723734
 10
101.15901849440445
 20
202.0531201178513
 10
101.11229147485895
 20
202.46174856328284
 10
101.05711743562799
 20
202.86928996984986
 10
100.99352074001408
 20
203.27556437874
 10
100.92152947052767
 20
203.68039239061142
 10
100.84117541648678
 20
204.0835952448104
 10
100.75249405997957
 20
204.48499489830718
 10
100.6555245601966
 20
204.88441410431463
 10
100.55030973613917
 20
205.28167649055547
 10
100.43689604771168
 20
205.67660663714335
 10
100.3153335752062
 20
206.06903015404325
 10
100.18567599718847
 20
206.4587737580773
 10
100.04798056679493
 20
206.84566534944173
 10
99.90230808645137
 20
207.22953408770115
 10
99.74872288102424
 20
207.61021046722715
 10
99.58729276941668
 20
207.98752639204696
 10
99.41808903462152
 20
208.36131525007013
 10
99.24118639224474
 20
208.73141198665948
 10
99.05666295751325
 20
209.0976531775148
 10
98.86460021078126
 20
209.4598771008363
 10
98.66508296155095
 20
209.8179238087365
 10
98.45819931102291
 20
210.17163519786862
 10
98.24404061319322
 20
210.52085507924056
 10
98.02270143451403
 20
210.86542924718367
 10
97.79427951213569
 20
211.20520554744553
 10
97.5588757107488
 20
211.54003394437706
 10
97.31659397804512
 20
211.86976658718396
 10
97.06754129881735
 20
212.19425787521354
 10
96.8118276477175
 20
212.5133645222478
 10
96.54956594069525
 20
212.82694561977462
 10
96.28087198513745
 20
213.13486269920898
 10
96.00586442873087
 20
213.43697979303687
 10
95.72466470707062
 20
213.73316349485458
 10
95.43739699003766
 20
214.02328301827728
 10
95.14418812696896
 20
214.30721025469063
 10
94.84516759064425
 20
214.58481982981993
 10
94.54046742011462
 20
214.85598915909182
 10
94.23022216239771
 20
215.12059850176422
 10
93.91456881306557
 20
215.37853101380045
 10
93.59364675575125
 20
215.62967279946432
 10
93.26759770060096
 20
215.8739129616132
 10
92.93656562169878
 20
216.1111436506671
 10
92.60069669349181
 20
216.34126011223208
 10
92.26013922624367
 20
216.56416073335674
 10
91.9150436005448
 20
216.77974708740172
 10
91.56556220090869
 20
216.98792397750205
 10
91.21184934848309
 20
217.1885994786035
 10
90.85406123290622
 20
217.38168497805404
 10
90.49235584333776
 20
217.56709521473266
 10
90.12689289869535
 20
217.74474831669835
 10
89.75783377712712
 20
217.91456583734248
 10
89.38534144475172
 20
218.07647279002842
 10
89.00958038369704
 20
218.23039768120378
 10
88.63071651946954
 20
218.37627254196974
 10
88.24891714768621
 20
218.51403295809436
 10
87.86435086020153
 20
218.64361809845602
 10
87.47718747066207
 20
218.76497074190462
 10
87.08759793952157
 20
218.87803730252912
 10
86.69575429854959
 20
218.98276785331925
 10
86.30182957486711
 20
219.07911614821208
 10
85.9059977145427
 20
219.16703964251292
 10
85.50843350578275
 20
219.2464995116818
 10
85.10931250174995
 20
219.3174606684774
 10
84.70881094304397
 20
219.3798917784505
 10
84.30710567987856
 20
219.43376527378047
 10
83.90437409398947
 20
219.47905736544837
 10
83.50079402030768
 20
219.51574805374153
 10
83.09654366843246
 20
219.54382113708488
 10
82.6918015439391
 20
219.5632642191951
 10
82.28674636955583
 20
219.57406871455453
 10
81.88155700624488
 20
219.57622985220212
 10
81.47641237422253
 20
219.56974667784033
 10
81.07149137395301
 20
219.55462205425647
 10
80.66697280715105
 20
219.53086266005852
 10
80.26303529782807
 20
219.49847898672613
 10
79.8598572134169
 20
219.45748533397776
 10
79.45761658600969
 20
219.4078998034565
 10
79.05649103374395
 20
219.3497442907367
 10
78.65665768237143
 20
219.28304447565566
 10
78.25829308704432
 20
219.207829810974
 10
77.8615731543535
 20
219.12413350937032
 10
77.46667306465312
 20
219.03199252877522
 10
77.07376719470591
 20
218.9314475560519
 10
76.68302904068327
 20
218.82254298902978
 10
76.2946311415543
 20
218.70532691689996
 10
75.90874500289742
 20
218.57985109898007
 10
75.5255410211683
 20
218.446170941859
 10
75.14518840845764
 20
218.30434547493095
 10
74.76785511777187
 20
218.1544373243295
 10
74.39370776886977
 20
217.99651268527393
 10
74.02291157468797
 20
217.83064129283903
 10
73.65563026838744
 20
217.65689639116223
 10
73.29202603105367
 20
217.47535470110105
 10
72.93225942008199
 20
217.28609638635515
 10
72.57648929827997
 20
217.08920501806855
 10
72.22487276371804
 20
216.8847675379267
 10
71.87756508035947
 20
216.6728742197657
 10
71.53471960950013
 20
216.45361862970984
 10
71.19648774204843
 20
216.22709758485536
 10
70.86301883167543
 20
215.99341111051885
 10
70.53446012886442
 20
215.75266239606884
 10
70.21095671588927
 20
215.50495774936027
 10
69.89265144275014
 20
215.25040654979196
 10
69.57968486409499
 20
214.98912120000773
 10
69.2721951771546
 20
214.72121707626255
 10
68.97031816071852
 20
214.44681247747567
 10
68.67418711517902
 20
214.1660285729931
 10
68.3839328036694
 20
213.8789893490827
 10
68.09968339432261
 20
213.58582155418523
 10
67.82156440367588
 20
213.2866546429459
 10
67.54969864124611
 20
212.98162071905088
 10
67.28420615530065
 20
212.67085447689385
 10
67.02520417984739
 20
212.35449314209893
 10
66.77280708286749
 20
212.03267641092563
 10
66.52712631581367
 20
211.70554638858295
 10
66.2882703643965
 20
211.37324752647964
 10
66.05634470068004
 20
211.03592655843863
 10
65.83145173650843
 20
210.6937324359034
 10
65.61369077828363
 20
210.34681626216536
 10
65.4031579831146
 20
209.9953312256407
 10
65.19994631635691
 20
209.63943253222686
 10
65.004145510562
 20
209.2792773367679
 10
64.81584202585366
 20
208.91502467365933
 10
64.63511901174978
 20
208.54683538662306
 10
64.46205627044584
 20
208.1748720576833
 10
64.29673022157648
 20
207.7992989353749
 10
64.13921386847076
 20
207.4202818622159
 10
63.989576765915956
 20
207.03798820147597
 10
63.84788498944409
 20
206.65258676327372
 10
63.71420110615486
 20
206.26424773003478
 10
63.588584147087786
 20
205.87314258134404
 10
63.47108958115572
 20
205.47944401822508
 10
63.36176929065137
 20
205.0833258868803
 10
63.26067154833754
 20
204.68496310192535
 10
63.167840996131204
 20
204.28453156915168
 10
63.083318625390945
 20
203.8822081078516
 10
63.007141758816275
 20
203.47817037273967
 10
62.939344033967004
 20
203.07259677550562
 10
62.87995538840984
 20
202.66566640603267
 10
62.82900204649881
 20
202.25755895331636
 10
62.786506507795295
 20
201.84845462611915
 10
62.7524875371329
 20
201.43853407339518
 10
62.72696015633139
 20
201.0279783045208
 10
62.709935637563504
 20
200.6169686093659
 10
62.70142149837747
 20
200.20568647824146
 10
62.70142149837747
 20
199.79431352175854
 10
62.709935637563504
 20
199.38303139063413
 10
62.72696015633139
 20
198.9720216954792
 10
62.7524875371329
 20
198.56146592660482
 10
62.786506507795295
 20
198.15154537388085
 10
62.82900204649881
 20
197.74244104668364
 10
62.87995538840984
 20
197.33433359396733
 10
62.939344033967004
 20
196.92740322449438
 10
63.007141758816275
 20
196.52182962726033
 10
63.083318625390945
 20
196.11779189214843
 10
63.167840996131204
 20
195.71546843084832
 10
63.26067154833754
 20
195.31503689807465
 10
63.36176929065137
 20
194.9166741131197
 10
63.47108958115572
 20
194.52055598177495
 10
63.588584147087786
 20
194.12685741865596
 10
63.71420110615486
 20
193.73575226996522
 10
63.84788498944409
 20
193.34741323672628
 10
63.989576765915956
 20
192.96201179852403
 10
64.13921386847076
 20
192.5797181377841
 10
64.29673022157648
 20
192.2007010646251
 10
64.46205627044584
 20
191.8251279423167
 10
64.63511901174978
 20
191.45316461337694
 10
64.81584202585366
 20
191.08497532634067
 10
65.004145510562
 20
190.7207226632321
 10
65.19994631635691
 20
190.36056746777314
 10
65.4031579831146
 20
190.0046687743593
 10
65.61369077828364
 20
189.65318373783464
 10
65.83145173650843
 20
189.3062675640966
 10
66.05634470068004
 20
188.9640734415614
 10
66.2882703643965
 20
188.62675247352036
 10
66.52712631581366
 20
188.29445361141705
 10
66.77280708286747
 20
187.96732358907437
 10
67.02520417984739
 20
187.64550685790107
 10
67.28420615530067
 20
187.32914552310615
 10
67.54969864124611
 20
187.01837928094912
 10
67.82156440367588
 20
186.7133453570541
 10
68.0996833943226
 20
186.41417844581477
 10
68.3839328036694
 20
186.1210106509173
 10
68.67418711517902
 20
185.8339714270069
 10
68.97031816071852
 20
185.55318752252433
 10
69.2721951771546
 20
185.27878292373745
 10
69.57968486409499
 20
185.0108787999923
 10
69.89265144275014
 20
184.74959345020804
 10
70.21095671588927
 20
184.49504225063973
 10
70.53446012886442
 20
184.24733760393116
 10
70.86301883167543
 20
184.00658888948115
 10
71.19648774204842
 20
183.77290241514464
 10
71.53471960950013
 20
183.54638137029016
 10
71.87756508035947
 20
183.3271257802343
 10
72.22487276371805
 20
183.1152324620733
 10
72.57648929827997
 20
182.91079498193145
 10
72.932259420082
 20
182.71390361364485
 10
73.29202603105368
 20
182.52464529889895
 10
73.65563026838744
 20
182.34310360883777
 10
74.02291157468795
 20
182.169358707161
 10
74.39370776886977
 20
182.00348731472607
 10
74.76785511777186
 20
181.8455626756705
 10
75.14518840845764
 20
181.69565452506905
 10
75.5255410211683
 20
181.553829058141
 10
75.9087450028974
 20
181.42014890101993
 10
76.2946311415543
 20
181.29467308310004
 10
76.68302904068327
 20
181.17745701097022
 10
77.07376719470591
 20
181.0685524439481
 10
77.46667306465312
 20
180.96800747122478
 10
77.8615731543535
 20
180.87586649062968
 10
78.25829308704432
 20
180.792170189026
 10
78.65665768237143
 20
180.71695552434434
 10
79.05649103374395
 20
180.6502557092633
 10
79.45761658600969
 20
180.5921001965435
 10
79.85985721341689
 20
180.54251466602224
 10
80.26303529782807
 20
180.5015210132739
 10
80.66697280715104
 20
180.46913733994148
 10
81.07149137395301
 20
180.44537794574353
 10
81.47641237422252
 20
180.43025332215967
 10
81.88155700624486
 20
180.42377014779788
 10
82.28674636955583
 20
180.42593128544547
 10
82.6918015439391
 20
180.4367357808049
 10
83.09654366843246
 20
180.45617886291512
 10
83.50079402030768
 20
180.48425194625847
 10
83.90437409398947
 20
180.52094263455163
 10
84.30710567987857
 20
180.56623472621953
 10
84.70881094304397
 20
180.6201082215495
 10
85.10931250174995
 20
180.6825393315226
 10
85.50843350578276
 20
180.7535004883182
 10
85.90599771454269
 20
180.83296035748708
 10
86.30182957486711
 20
180.9208838517879
 10
86.69575429854959
 20
181.01723214668073
 10
87.08759793952157
 20
181.12196269747088
 10
87.47718747066207
 20
181.23502925809535
 10
87.86435086020153
 20
181.35638190154398
 10
88.2489171476862
 20
181.4859670419056
 10
88.63071651946954
 20
181.62372745803026
 10
89.00958038369704
 20
181.76960231879622
 10
89.38534144475172
 20
181.92352720997158
 10
89.75783377712712
 20
182.08543416265752
 10
90.12689289869536
 20
182.25525168330165
 10
90.49235584333778
 20
182.43290478526734
 10
90.85406123290622
 20
182.618315021946
 10
91.21184934848309
 20
182.8114005213965
 10
91.56556220090867
 20
183.01207602249795
 10
91.91504360054479
 20
183.22025291259828
 10
92.26013922624367
 20
183.43583926664326
 10
92.60069669349181
 20
183.65873988776792
 10
92.93656562169878
 20
183.8888563493329
 10
93.26759770060096
 20
184.1260870383868
 10
93.59364675575125
 20
184.37032720053568
 10
93.91456881306557
 20
184.62146898619955
 10
94.23022216239771
 20
184.87940149823578
 10
94.54046742011462
 20
185.14401084090818
 10
94.84516759064425
 20
185.41518017018007
 10
95.14418812696896
 20
185.69278974530937
 10
95.43739699003766
 20
185.97671698172272
 10
95.72466470707062
 20
186.26683650514542
 10
96.00586442873087
 20
186.56302020696313
 10
96.28087198513745
 20
186.86513730079102
 10
96.54956594069523
 20
187.17305438022538
 10
96.81182764771748
 20
187.4866354777522
 10
97.06754129881735
 20
187.80574212478643
 10
97.31659397804512
 20
188.130233412816
 10
97.5588757107488
 20
188.45996605562294
 10
97.79427951213569
 20
188.79479445255447
 10
98.02270143451403
 20
189.13457075281633
 10
98.24404061319322
 20
189.47914492075944
 10
98.45819931102291
 20
189.82836480213138
 10
98.66508296155095
 20
190.1820761912635
 10
98.86460021078128
 20
190.5401228991637
 10
99.05666295751325
 20
190.9023468224852
 10
99.24118639224476
 20
191.26858801334052
 10
99.41808903462152
 20
191.6386847499299
 10
99.58729276941668
 20
192.012473607953
 10
99.74872288102424
 20
192.38978953277285
 10
99.90230808645137
 20
192.77046591229885
 10
100.04798056679493
 20
193.15433465055827
 10
100.18567599718847
 20
193.5412262419227
 10
100.3153335752062
 20
193.93096984595672
 10
100.43689604771168
 20
194.32339336285665
 10
100.55030973613917
 20
194.71832350944453
 10
100.6555245601966
 20
195.11558589568537
 10
100.75249405997957
 20
195.51500510169282
 10
100.84117541648678
 20
195.9164047551896
 10
100.92152947052767
 20
196.31960760938858
 10
100.99352074001408
 20
196.72443562126
 10
101.05711743562799
 20
197.13071003015014
 10
101.11229147485895
 20
197.5382514367172
 10
101.15901849440445
 20
197.9468798821487
 10
101.1972778609281
 20
198.35641492762656
 10
101.22705268017066
 20
198.7666757340036
 10
101.24832980441015
 20
199.177481141657
 10
101.2610998382675
 20
199.5886497504834
 10
101.26535714285524
 20
200.0
  0
LINE
  5
9A
330
17
100
AcDbEntity
  8
Layer
 62
7
100
AcDbLine
 10
14.531681400827537
 20
200.0
 30
0.0
 11
156.10726390318808
 21
200.0
 31
0.0
  0
LINE
  5
9B
330
17
100
AcDbEntity
  8
Layer
 62
7
100
AcDbLine
 10
40.74679790129965
 20
200.0
 30
0.0
 11
52.74679790129965
 21
200.0
 31
0.0
  0
LWPOLYLINE
  5
9C
330
17
100
AcDbEntity
  8
Layer
100
AcDbPolyline
 90
5
 70
0
 10
46.74679790129965
 20
205.0
 10
51.74679790129965
 20
200.0
 10
46.74679790129965
 20
195.0
 10
41.74679790129965
 20
200.0
 10
46.74679790129965
 20
205.0
  0
LINE
  5
9D
330
17
100
AcDbEntity
  8
Layer
 62
7
100
AcDbLine
 10
79.31947265200782
 20
200.0
 30
0.0
 11
91.31947265200782
 21
200.0
 31
0.0
  0
LWPOLYLINE
  5
9E
330
17
100
AcDbEntity
  8
Layer
100
AcDbPolyline
 90
5
 70
0
 10
85.31947265200782
 20
205.0
 10
90.31947265200782
 20
200.0
 10
85.31947265200782
 20
195.0
 10
80.31947265200782
 20
200.0
 10
85.31947265200782
 20
205.0
  0
LINE
  5
9F
330
17
100
AcDbEntity
  8
Layer
 62
7
100
AcDbLine
 10
117.89214740271598
 20
200.0
 30
0.0
 11
129.89214740271598
 21
200.0
 31
0.0
  0
LWPOLYLINE
  5
A0
330
17
100
AcDbEntity
  8
Layer
100
AcDbPolyline
 90
5
 70
0
 10
123.89214740271598
 20
205.0
 10
128.89214740271598
 20
200.0
 10
123.89214740271598
 20
195.0
 10
118.89214740271598
 20
200.0
 10
123.89214740271598
 20
205.0
  0
LINE
  5
A1
330
17
100
AcDbEntity
  8
Layer
 62
7
100
AcDbLine
 10
11.3430089295899
 20
195.69032907227475
 30
0.0
 11
196.62378623196196
 21
189.77978459646877
 31
0.0
  0
LINE
  5
A2
330
17
100
AcDbEntity
  8
Layer
 62
7
100
AcDbLine
 10
46.30023209742865
 20
194.57517711052
 30
0.0
 11
58.29413091248958
 21
194.1925660624832
 31
0.0
  0
LWPOLYLINE
  5
A3
330
17
100
AcDbEntity
  8
Layer
100
AcDbPolyline
 90
5
 70
0
 10
52.45660277497445
 20
199.3813294261103
 10
57.29463934456784
 20
194.22445031648624
 10
52.13776023494378
 20
189.38641374689286
 10
47.299723665350385
 20
194.54329285651693
 10
52.45660277497445
 20
199.3813294261103
  0
LINE
  5
A4
330
17
100
AcDbEntity
  8
Layer
 62
7
100
AcDbLine
 10
89.372078827276
 20
193.20116481707848
 30
0.0
 11
101.36597764233693
 21
192.81855376904167
 31
0.0
  0
LWPOLYLINE
  5
A5
330
17
100
AcDbEntity
  8
Layer
100
AcDbPolyline
 90
5
 70
0
 10
95.5284495048218
 20
198.0073171326688
 10
100.36648607441519
 20
192.85043802304472
 10
95.20960696479113
 20
188.01240145345133
 10
90.37157039519774
 20
193.1692805630754
 10
95.5284495048218
 20
198.0073171326688
  0
LINE
  5
A6
330
17
100
AcDbEntity
  8
Layer
100
AcDbLine
 10
81.98285714285531
 20
219.57649999999992
 30
0.0
 11
81.98285714285531
 21
220.57649999999992
 31
0.0
  0
LINE
  5
A7
330
17
100
AcDbEntity
  8
Layer
100
AcDbLine
 10
81.98285714285531
 20
180.42350000000008
 30
0.0
 11
81.98285714285531
 21
179.42350000000008
 31
0.0
  0
LINE
  5
A8
330
17
100
AcDbEntity
  8
Layer
100
AcDbLine
 10
101.26535714285524
 20
200.0
 30
0.0
 11
102.26535714285524
 21
200.0
 31
0.0
  0
LINE
  5
A9
330
17
100
AcDbEntity
  8
Layer
100
AcDbLine
 10
62.70035714285539
 20
200.0
 30
0.0
 11
61.70035714285539
 21
200.0
 31
0.0
  0
LWPOLYLINE
  5
AA
330
17
100
AcDbEntity
  8
NumLabel
 62
1
100
AcDbPolyline
 90
4
 70
0
 10
65.03999999999866
 20
200.52857142857167
 10
63.039999999998656
 20
200.52857142857167
 10
63.039999999998656
 20
190.52857142857167
 10
65.03999999999866
 20
190.52857142857167
  0
LWPOLYLINE
  5
AB
330
17
100
AcDbEntity
  8
NumLabel
 62
1
100
AcDbPolyline
 90
4
 70
0
 10
66.03999999999866
 20
190.52857142857167
 10
68.03999999999866
 20
190.52857142857167
 10
68.03999999999866
 20
200.52857142857167
 10
66.03999999999866
 20
200.52857142857167
  0
LWPOLYLINE
  5
AC
330
17
100
AcDbEntity
  8
NumLabel
 62
1
100
AcDbPolyline
 90
2
 70
0
 10
63.039999999998656
 20
195.52857142857167
 10
65.03999999999866
 20
195.52857142857167
  0
LWPOLYLINE
  5
AD
330
17
100
AcDbEntity
  8
NumLabel
 62
1
100
AcDbPolyline
 90
2
 70
0
 10
66.03999999999866
 20
195.52857142857167
 10
68.03999999999866
 20
195.52857142857167
  0
LWPOLYLINE
  5
AE
330
17
100
AcDbEntity
  8
NumLabel
 62
1
100
AcDbPolyline
 90
2
 70
0
 10
75.53999999999866
 20
200.52857142857167
 10
73.53999999999866
 20
200.52857142857167
  0
LWPOLYLINE
  5
AF
330
17
100
AcDbEntity
  8
NumLabel
 62
1
100
AcDbPolyline
 90
4
 70
0
 10
72.53999999999866
 20
200.52857142857167
 10
70.53999999999866
 20
200.52857142857167
 10
70.53999999999866
 20
190.52857142857167
 10
72.53999999999866
 20
190.52857142857167
  0
LWPOLYLINE
  5
B0
330
17
100
AcDbEntity
  8
NumLabel
 62
1
100
AcDbPolyline
 90
4
 70
0
 10
73.53999999999866
 20
190.52857142857167
 10
75.53999999999866
 20
190.52857142857167
 10
75.53999999999866
 20
195.52857142857167
 10
73.53999999999866
 20
195.52857142857167
  0
LWPOLYLINE
  5
B1
330
17
100
AcDbEntity
  8
NumLabel
 62
1
100
AcDbPolyline
 90
2
 70
0
 10
72.53999999999866
 20
195.52857142857167
 10
70.53999999999866
 20
195.52857142857167
  0
ENDSEC
  0
SECTION
  2
OBJECTS
  0
DICTIONARY
  5
A
330
0
100
AcDbDictionary
280
0
281
1
  3
ACAD_COLOR
350
B
  3
ACAD_GROUP
350
C
  3
ACAD_LAYOUT
350
D
  3
ACAD_MATERIAL
350
E
  3
ACAD_MLEADERSTYLE
350
F
  3
ACAD_MLINESTYLE
350
10
  3
ACAD_PLOTSETTINGS
350
11
  3
ACAD_PLOTSTYLENAME
350
12
  3
ACAD_SCALELIST
350
14
  3
ACAD_TABLESTYLE
350
15
  3
ACAD_VISUALSTYLE
350
16
  3
EZDXF_META
350
2D
  0
DICTIONARY
  5
B
330
A
100
AcDbDictionary
280
0
281
1
  0
DICTIONARY
  5
C
330
A
100
AcDbDictionary
280
0
281
1
  0
DICTIONARY
  5
D
330
A
100
AcDbDictionary
280
0
281
1
  3
Model
350
1A
  3
Layout1
350
1E
  0
DICTIONARY
  5
E
330
A
100
AcDbDictionary
280
0
281
1
  3
ByBlock
350
1F
  3
ByLayer
350
20
  3
Global
350
21
  0
DICTIONARY
  5
F
330
A
100
AcDbDictionary
280
0
281
1
  3
Standard
350
2C
  0
DICTIONARY
  5
10
330
A
100
AcDbDictionary
280
0
281
1
  3
Standard
350
22
  0
DICTIONARY
  5
11
330
A
100
AcDbDictionary
280
0
281
1
  0
ACDBDICTIONARYWDFLT
  5
12
330
A
100
AcDbDictionary
280
0
281
1
  3
Normal
350
13
100
AcDbDictionaryWithDefault
340
13
  0
ACDBPLACEHOLDER
  5
13
330
12
  0
DICTIONARY
  5
14
330
A
100
AcDbDictionary
280
0
281
1
  0
DICTIONARY
  5
15
330
A
100
AcDbDictionary
280
0
281
1
  0
DICTIONARY
  5
16
330
A
100
AcDbDictionary
280
0
281
1
  3
2dWireframe
350
5A
  3
Basic
350
5B
  3
Brighten
350
5C
  3
ColorChange
350
5D
  3
Conceptual
350
5E
  3
Dim
350
5F
  3
EdgeColorOff
350
60
  3
Facepattern
350
61
  3
Flat
350
62
  3
FlatWithEdges
350
63
  3
Gouraud
350
64
  3
GouraudWithEdges
350
65
  3
Hidden
350
66
  3
JitterOff
350
67
  3
Linepattern
350
68
  3
Modeling
350
69
  3
OverhangOff
350
6A
  3
Realistic
350
6B
  3
Shaded
350
6C
  3
Shaded with edges
350
6D
  3
Shades of Gray
350
6E
  3
Sketchy
350
6F
  3
Thicken
350
70
  3
Wireframe
350
71
  3
X-Ray
350
72
  0
LAYOUT
  5
1A
330
D
100
AcDbPlotSettings
  1

  2
Adobe PDF
  4
A3
  6

 40
7.5
 41
20.0
 42
7.5
 43
20.0
 44
420.0
 45
297.0
 46
0.0
 47
0.0
 48
0.0
 49
0.0
140
0.0
141
0.0
142
1.0
143
1.0
 70
1024
 72
1
 73
0
 74
5
  7

 75
16
 76
0
 77
2
 78
300
147
1.0
148
0.0
149
0.0
100
AcDbLayout
  1
Model
 70
1
 71
0
 10
0.0
 20
0.0
 11
420.0
 21
297.0
 12
0.0
 22
0.0
 32
0.0
 14
1e+20
 24
1e+20
 34
1e+20
 15
-1e+20
 25
-1e+20
 35
-1e+20
146
0.0
 13
0.0
 23
0.0
 33
0.0
 16
1.0
 26
0.0
 36
0.0
 17
0.0
 27
1.0
 37
0.0
 76
1
330
17
  0
LAYOUT
  5
1E
330
D
100
AcDbPlotSettings
  1

  2
Adobe PDF
  4
A3
  6

 40
7.5
 41
20.0
 42
7.5
 43
20.0
 44
420.0
 45
297.0
 46
0.0
 47
0.0
 48
0.0
 49
0.0
140
0.0
141
0.0
142
1.0
143
1.0
 70
0
 72
1
 73
0
 74
5
  7

 75
16
 76
0
 77
2
 78
300
147
1.0
148
0.0
149
0.0
100
AcDbLayout
  1
Layout1
 70
1
 71
1
 10
0.0
 20
0.0
 11
420.0
 21
297.0
 12
0.0
 22
0.0
 32
0.0
 14
1e+20
 24
1e+20
 34
1e+20
 15
-1e+20
 25
-1e+20
 35
-1e+20
146
0.0
 13
0.0
 23
0.0
 33
0.0
 16
1.0
 26
0.0
 36
0.0
 17
0.0
 27
1.0
 37
0.0
 76
1
330
1B
  0
MATERIAL
  5
1F
102
{ACAD_REACTORS
330
E
102
}
330
E
100
AcDbMaterial
  1
ByBlock
  2

 70
0
 40
1.0
 71
1
 41
1.0
 91
-1023410177
 42
1.0
 72
1
  3

 73
1
 74
1
 75
1
 44
0.5
 73
0
 45
1.0
 46
1.0
 77
1
  4

 78
1
 79
1
170
1
 48
1.0
171
1
  6

172
1
173
1
174
1
140
1.0
141
1.0
175
1
  7

176
1
177
1
178
1
143
1.0
179
1
  8

270
1
271
1
272
1
145
1.0
146
1.0
273
1
  9

274
1
275
1
276
1
 42
1.0
 72
1
  3

 73
1
 74
1
 75
1
 94
63
  0
MATERIAL
  5
20
102
{ACAD_REACTORS
330
E
102
}
330
E
100
AcDbMaterial
  1
ByLayer
  2

 70
0
 40
1.0
 71
1
 41
1.0
 91
-1023410177
 42
1.0
 72
1
  3

 73
1
 74
1
 75
1
 44
0.5
 73
0
 45
1.0
 46
1.0
 77
1
  4

 78
1
 79
1
170
1
 48
1.0
171
1
  6

172
1
173
1
174
1
140
1.0
141
1.0
175
1
  7

176
1
177
1
178
1
143
1.0
179
1
  8

270
1
271
1
272
1
145
1.0
146
1.0
273
1
  9

274
1
275
1
276
1
 42
1.0
 72
1
  3

 73
1
 74
1
 75
1
 94
63
  0
MATERIAL
  5
21
102
{ACAD_REACTORS
330
E
102
}
330
E
100
AcDbMaterial
  1
Global
  2

 70
0
 40
1.0
 71
1
 41
1.0
 91
-1023410177
 42
1.0
 72
1
  3

 73
1
 74
1
 75
1
 44
0.5
 73
0
 45
1.0
 46
1.0
 77
1
  4

 78
1
 79
1
170
1
 48
1.0
171
1
  6

172
1
173
1
174
1
140
1.0
141
1.0
175
1
  7

176
1
177
1
178
1
143
1.0
179
1
  8

270
1
271
1
272
1
145
1.0
146
1.0
273
1
  9

274
1
275
1
276
1
 42
1.0
 72
1
  3

 73
1
 74
1
 75
1
 94
63
  0
MLINESTYLE
  5
22
102
{ACAD_REACTORS
330
10
102
}
330
10
100
AcDbMlineStyle
  2
Standard
 70
0
  3

 62
256
 51
90.0
 52
90.0
 71
2
 49
0.5
 62
256
  6
BYLAYER
 49
-0.5
 62
256
  6
BYLAYER
  0
MLEADERSTYLE
  5
2C
102
{ACAD_REACTORS
330
F
102
}
330
F
100
AcDbMLeaderStyle
179
2
170
2
171
1
172
0
 90
2
 40
0.0
 41
0.0
173
1
 91
-1056964608
 92
-2
290
1
 42
2.0
291
1
 43
8.0
  3
Standard
 44
4.0
300

342
29
174
1
175
1
176
0
178
1
 93
-1056964608
 45
4.0
292
0
297
0
 46
4.0
 94
-1056964608
 47
1.0
 49
1.0
140
1.0
294
1
141
0.0
177
0
142
1.0
295
0
296
0
143
3.75
271
0
272
9
273
9
  0
DICTIONARY
  5
2D
330
A
100
AcDbDictionary
281
1
  3
CREATED_BY_EZDXF
350
2E
  3
WRITTEN_BY_EZDXF
350
B4
  0
DICTIONARYVAR
  5
2E
330
2D
100
DictionaryVariables
280
0
  1
1.3.0 @ 2026-01-06T17:07:25.365651+00:00
  0
VISUALSTYLE
  5
5A
102
{ACAD_REACTORS
330
16
102
}
330
16
100
AcDbVisualStyle
  2
2dWireframe
 70
4
 90
0
 40
0.6
 62
7
290
0
291
0
  0
VISUALSTYLE
  5
5B
102
{ACAD_REACTORS
330
16
102
}
330
16
100
AcDbVisualStyle
  2
Basic
 70
7
 90
1
 40
0.6
 62
7
290
0
291
1
  0
VISUALSTYLE
  5
5C
102
{ACAD_REACTORS
330
16
102
}
330
16
100
AcDbVisualStyle
  2
Brighten
 70
12
 90
2
 40
0.6
 62
7
290
0
291
1
  0
VISUALSTYLE
  5
5D
102
{ACAD_REACTORS
330
16
102
}
330
16
100
AcDbVisualStyle
  2
ColorChange
 70
16
 90
2
 40
0.6
 62
8
290
0
291
1
  0
VISUALSTYLE
  5
5E
102
{ACAD_REACTORS
330
16
102
}
330
16
100
AcDbVisualStyle
  2
Conceptual
 70
9
 90
3
 40
0.6
 62
7
290
0
291
0
  0
VISUALSTYLE
  5
5F
102
{ACAD_REACTORS
330
16
102
}
330
16
100
AcDbVisualStyle
  2
Dim
 70
11
 90
2
 40
0.6
 62
7
290
0
291
1
  0
VISUALSTYLE
  5
60
102
{ACAD_REACTORS
330
16
102
}
330
16
100
AcDbVisualStyle
  2
EdgeColorOff
 70
22
 90
2
 40
0.6
 62
7
290
0
291
1
  0
VISUALSTYLE
  5
61
102
{ACAD_REACTORS
330
16
102
}
330
16
100
AcDbVisualStyle
  2
Facepattern
 70
15
 90
2
 40
0.6
 62
7
290
0
291
1
  0
VISUALSTYLE
  5
62
102
{ACAD_REACTORS
330
16
102
}
330
16
100
AcDbVisualStyle
  2
Flat
 70
0
 90
2
 40
0.6
 62
7
290
0
291
1
  0
VISUALSTYLE
  5
63
102
{ACAD_REACTORS
330
16
102
}
330
16
100
AcDbVisualStyle
  2
FlatWithEdges
 70
1
 90
2
 40
0.6
 62
7
290
0
291
1
  0
VISUALSTYLE
  5
64
102
{ACAD_REACTORS
330
16
102
}
330
16
100
AcDbVisualStyle
  2
Gouraud
 70
2
 90
2
 40
0.6
 62
7
290
0
291
1
  0
VISUALSTYLE
  5
65
102
{ACAD_REACTORS
330
16
102
}
330
16
100
AcDbVisualStyle
  2
GouraudWithEdges
 70
3
 90
2
 40
0.6
 62
7
290
0
291
1
  0
VISUALSTYLE
  5
66
102
{ACAD_REACTORS
330
16
102
}
330
16
100
AcDbVisualStyle
  2
Hidden
 70
6
 90
1
 40
0.6
 62
7
290
0
291
0
  0
VISUALSTYLE
  5
67
102
{ACAD_REACTORS
330
16
102
}
330
16
100
AcDbVisualStyle
  2
JitterOff
 70
20
 90
2
 40
0.6
 62
7
290
0
291
1
  0
VISUALSTYLE
  5
68
102
{ACAD_REACTORS
330
16
102
}
330
16
100
AcDbVisualStyle
  2
Linepattern
 70
14
 90
2
 40
0.6
 62
7
290
0
291
1
  0
VISUALSTYLE
  5
69
102
{ACAD_REACTORS
330
16
102
}
330
16
100
AcDbVisualStyle
  2
Modeling
 70
10
 90
2
 40
0.6
 62
7
290
0
291
0
  0
VISUALSTYLE
  5
6A
102
{ACAD_REACTORS
330
16
102
}
330
16
100
AcDbVisualStyle
  2
OverhangOff
 70
21
 90
2
 40
0.6
 62
7
290
0
291
1
  0
VISUALSTYLE
  5
6B
102
{ACAD_REACTORS
330
16
102
}
330
16
100
AcDbVisualStyle
  2
Realistic
 70
8
 90
2
 40
0.6
 62
7
290
0
291
0
  0
VISUALSTYLE
  5
6C
102
{ACAD_REACTORS
330
16
102
}
330
16
100
AcDbVisualStyle
  2
Shaded
 70
27
 90
2
 40
0.6
 62
7
290
0
291
0
  0
VISUALSTYLE
  5
6D
102
{ACAD_REACTORS
330
16
102
}
330
16
100
AcDbVisualStyle
  2
Shaded with edges
 70
26
 90
2
 40
0.6
 62
7
290
0
291
0
  0
VISUALSTYLE
  5
6E
102
{ACAD_REACTORS
330
16
102
}
330
16
100
AcDbVisualStyle
  2
Shades of Gray
 70
23
 90
2
 40
0.6
 62
7
290
0
291
0
  0
VISUALSTYLE
  5
6F
102
{ACAD_REACTORS
330
16
102
}
330
16
100
AcDbVisualStyle
  2
Sketchy
 70
24
 90
1
 40
0.6
 62
7
290
0
291
0
  0
VISUALSTYLE
  5
70
102
{ACAD_REACTORS
330
16
102
}
330
16
100
AcDbVisualStyle
  2
Thicken
 70
13
 90
2
 40
0.6
 62
7
290
0
291
1
  0
VISUALSTYLE
  5
71
102
{ACAD_REACTORS
330
16
102
}
330
16
100
AcDbVisualStyle
  2
Wireframe
 70
5
 90
0
 40
0.6
 62
7
290
0
291
0
  0
VISUALSTYLE
  5
72
102
{ACAD_REACTORS
330
16
102
}
330
16
100
AcDbVisualStyle
  2
X-Ray
 70
25
 90
2
 40
0.5
 62
7
290
0
291
0
  0
DICTIONARYVAR
  5
B4
330
2D
100
DictionaryVariables
280
0
  1
1.3.0 @ 2026-01-06T17:07:25.439200+00:00
  0
ENDSEC
  0
EOF
