  0
SECTION
  2
HEADER
  9
$ACADVER
  1
AC1021
  9
$ACADMAINTVER
 70
25
  9
$DWGCODEPAGE
  3
ANSI_1252
  9
$LASTSAVEDBY
  1
ezdxf
  9
$INSBASE
 10
0.0
 20
0.0
 30
0.0
  9
$EXTMIN
 10
1e+20
 20
1e+20
 30
1e+20
  9
$EXTMAX
 10
-1e+20
 20
-1e+20
 30
-1e+20
  9
$LIMMIN
 10
0.0
 20
0.0
  9
$LIMMAX
 10
420.0
 20
297.0
  9
$ORTHOMODE
 70
0
  9
$REGENMODE
 70
1
  9
$FILLMODE
 70
1
  9
$QTEXTMODE
 70
0
  9
$MIRRTEXT
 70
1
  9
$LTSCALE
 40
1.0
  9
$ATTMODE
 70
1
  9
$TEXTSIZE
 40
2.5
  9
$TRACEWID
 40
1.0
  9
$TEXTSTYLE
  7
OpenSans
  9
$CLAYER
  8
0
  9
$CELTYPE
  6
ByLayer
  9
$CECOLOR
 62
256
  9
$CELTSCALE
 40
1.0
  9
$DISPSILH
 70
0
  9
$DIMSCALE
 40
1.0
  9
$DIMASZ
 40
0.175
  9
$DIMEXO
 40
0.125
  9
$DIMDLI
 40
3.75
  9
$DIMRND
 40
0.0
  9
$DIMDLE
 40
0.0
  9
$DIMEXE
 40
0.375
  9
$DIMTP
 40
0.0
  9
$DIMTM
 40
0.0
  9
$DIMTXT
 40
0.25
  9
$DIMCEN
 40
2.5
  9
$DIMTSZ
 40
0.0
  9
$DIMTOL
 70
0
  9
$DIMLIM
 70
0
  9
$DIMTIH
 70
0
  9
$DIMTOH
 70
0
  9
$DIMSE1
 70
0
  9
$DIMSE2
 70
0
  9
$DIMTAD
 70
1
  9
$DIMZIN
 70
12
  9
$DIMBLK
  1
ARCHTICK
  9
$DIMASO
 70
1
  9
$DIMSHO
 70
1
  9
$DIMPOST
  1

  9
$DIMAPOST
  1

  9
$DIMALT
 70
0
  9
$DIMALTD
 70
3
  9
$DIMALTF
 40
0.03937007874
  9
$DIMLFAC
 40
100.0
  9
$DIMTOFL
 70
1
  9
$DIMTVP
 40
0.0
  9
$DIMTIX
 70
0
  9
$DIMSOXD
 70
0
  9
$DIMSAH
 70
0
  9
$DIMBLK1
  1

  9
$DIMBLK2
  1

  9
$DIMSTYLE
  2
EZDXF
  9
$DIMCLRD
 70
0
  9
$DIMCLRE
 70
0
  9
$DIMCLRT
 70
0
  9
$DIMTFAC
 40
0.5
  9
$DIMGAP
 40
0.1
  9
$DIMJUST
 70
0
  9
$DIMSD1
 70
0
  9
$DIMSD2
 70
0
  9
$DIMTOLJ
 70
0
  9
$DIMTZIN
 70
8
  9
$DIMALTZ
 70
0
  9
$DIMALTTZ
 70
0
  9
$DIMUPT
 70
1
  9
$DIMDEC
 70
2
  9
$DIMTDEC
 70
2
  9
$DIMALTU
 70
2
  9
$DIMALTTD
 70
3
  9
$DIMTXSTY
  7
OpenSansCondensed-Light
  9
$DIMAUNIT
 70
0
  9
$DIMADEC
 70
2
  9
$DIMALTRND
 40
0.0
  9
$DIMAZIN
 70
3
  9
$DIMDSEP
 70
46
  9
$DIMATFIT
 70
3
  9
$DIMFRAC
 70
0
  9
$DIMLDRBLK
  1

  9
$DIMLUNIT
 70
2
  9
$DIMLWD
 70
-2
  9
$DIMLWE
 70
-2
  9
$DIMTMOVE
 70
2
  9
$DIMFXL
 40
1.0
  9
$DIMFXLON
 70
0
  9
$DIMJOGANG
 40
0.785398163397
  9
$DIMTFILL
 70
0
  9
$DIMTFILLCLR
 70
0
  9
$DIMARCSYM
 70
0
  9
$DIMLTYPE
  6

  9
$DIMLTEX1
  6

  9
$DIMLTEX2
  6

  9
$LUNITS
 70
2
  9
$LUPREC
 70
4
  9
$SKETCHINC
 40
1.0
  9
$FILLETRAD
 40
10.0
  9
$AUNITS
 70
0
  9
$AUPREC
 70
2
  9
$MENU
  1
.
  9
$ELEVATION
 40
0.0
  9
$PELEVATION
 40
0.0
  9
$THICKNESS
 40
0.0
  9
$LIMCHECK
 70
0
  9
$CHAMFERA
 40
0.0
  9
$CHAMFERB
 40
0.0
  9
$CHAMFERC
 40
0.0
  9
$CHAMFERD
 40
0.0
  9
$SKPOLY
 70
0
  9
$TDCREATE
 40
2461048.0882986113
  9
$TDUCREATE
 40
2458532.153996898
  9
$TDUPDATE
 40
2461048.0882986113
  9
$TDUUPDATE
 40
2458532.1544311
  9
$TDINDWG
 40
0.0
  9
$TDUSRTIMER
 40
0.0
  9
$USRTIMER
 70
1
  9
$ANGBASE
 50
0.0
  9
$ANGDIR
 70
0
  9
$PDMODE
 70
0
  9
$PDSIZE
 40
0.0
  9
$PLINEWID
 40
0.0
  9
$SPLFRAME
 70
0
  9
$SPLINETYPE
 70
6
  9
$SPLINESEGS
 70
8
  9
$HANDSEED
  5
BB
  9
$SURFTAB1
 70
6
  9
$SURFTAB2
 70
6
  9
$SURFTYPE
 70
6
  9
$SURFU
 70
6
  9
$SURFV
 70
6
  9
$UCSBASE
  2

  9
$UCSNAME
  2

  9
$UCSORG
 10
0.0
 20
0.0
 30
0.0
  9
$UCSXDIR
 10
1.0
 20
0.0
 30
0.0
  9
$UCSYDIR
 10
0.0
 20
1.0
 30
0.0
  9
$UCSORTHOREF
  2

  9
$UCSORTHOVIEW
 70
0
  9
$UCSORGTOP
 10
0.0
 20
0.0
 30
0.0
  9
$UCSORGBOTTOM
 10
0.0
 20
0.0
 30
0.0
  9
$UCSORGLEFT
 10
0.0
 20
0.0
 30
0.0
  9
$UCSORGRIGHT
 10
0.0
 20
0.0
 30
0.0
  9
$UCSORGFRONT
 10
0.0
 20
0.0
 30
0.0
  9
$UCSORGBACK
 10
0.0
 20
0.0
 30
0.0
  9
$PUCSBASE
  2

  9
$PUCSNAME
  2

  9
$PUCSORG
 10
0.0
 20
0.0
 30
0.0
  9
$PUCSXDIR
 10
1.0
 20
0.0
 30
0.0
  9
$PUCSYDIR
 10
0.0
 20
1.0
 30
0.0
  9
$PUCSORTHOREF
  2

  9
$PUCSORTHOVIEW
 70
0
  9
$PUCSORGTOP
 10
0.0
 20
0.0
 30
0.0
  9
$PUCSORGBOTTOM
 10
0.0
 20
0.0
 30
0.0
  9
$PUCSORGLEFT
 10
0.0
 20
0.0
 30
0.0
  9
$PUCSORGRIGHT
 10
0.0
 20
0.0
 30
0.0
  9
$PUCSORGFRONT
 10
0.0
 20
0.0
 30
0.0
  9
$PUCSORGBACK
 10
0.0
 20
0.0
 30
0.0
  9
$USERI1
 70
0
  9
$USERI2
 70
0
  9
$USERI3
 70
0
  9
$USERI4
 70
0
  9
$USERI5
 70
0
  9
$USERR1
 40
0.0
  9
$USERR2
 40
0.0
  9
$USERR3
 40
0.0
  9
$USERR4
 40
0.0
  9
$USERR5
 40
0.0
  9
$WORLDVIEW
 70
1
  9
$SHADEDGE
 70
3
  9
$SHADEDIF
 70
70
  9
$TILEMODE
 70
1
  9
$MAXACTVP
 70
64
  9
$PINSBASE
 10
0.0
 20
0.0
 30
0.0
  9
$PLIMCHECK
 70
0
  9
$PEXTMIN
 10
1e+20
 20
1e+20
 30
1e+20
  9
$PEXTMAX
 10
-1e+20
 20
-1e+20
 30
-1e+20
  9
$PLIMMIN
 10
0.0
 20
0.0
  9
$PLIMMAX
 10
420.0
 20
297.0
  9
$UNITMODE
 70
0
  9
$VISRETAIN
 70
1
  9
$PLINEGEN
 70
0
  9
$PSLTSCALE
 70
1
  9
$TREEDEPTH
 70
3020
  9
$CMLSTYLE
  2
Standard
  9
$CMLJUST
 70
0
  9
$CMLSCALE
 40
20.0
  9
$PROXYGRAPHICS
 70
1
  9
$MEASUREMENT
 70
1
  9
$CELWEIGHT
370
-1
  9
$ENDCAPS
280
0
  9
$JOINSTYLE
280
0
  9
$LWDISPLAY
290
0
  9
$INSUNITS
 70
6
  9
$HYPERLINKBASE
  1

  9
$STYLESHEET
  1

  9
$XEDIT
290
1
  9
$CEPSNTYPE
380
0
  9
$PSTYLEMODE
290
1
  9
$FINGERPRINTGUID
  2
{17B0B880-4249-4037-9F71-CAEA3944484C}
  9
$VERSIONGUID
  2
{6EC1F49E-F6E5-4EC0-897C-DBE2CDCF5E2C}
  9
$EXTNAMES
290
1
  9
$PSVPSCALE
 40
0.0
  9
$OLESTARTUP
290
0
  9
$SORTENTS
280
127
  9
$INDEXCTL
280
0
  9
$HIDETEXT
280
1
  9
$XCLIPFRAME
290
1
  9
$HALOGAP
280
0
  9
$OBSCOLOR
 70
257
  9
$OBSLTYPE
280
0
  9
$INTERSECTIONDISPLAY
280
0
  9
$INTERSECTIONCOLOR
 70
257
  9
$DIMASSOC
280
2
  9
$PROJECTNAME
  1

  9
$CAMERADISPLAY
290
0
  9
$LENSLENGTH
 40
50.0
  9
$CAMERAHEIGHT
 40
0.0
  9
$STEPSPERSEC
 40
24.0
  9
$STEPSIZE
 40
100.0
  9
$3DDWFPREC
 40
2.0
  9
$PSOLWIDTH
 40
0.005
  9
$PSOLHEIGHT
 40
0.08
  9
$LOFTANG1
 40
1.570796326795
  9
$LOFTANG2
 40
1.570796326795
  9
$LOFTMAG1
 40
0.0
  9
$LOFTMAG2
 40
0.0
  9
$LOFTPARAM
 70
7
  9
$LOFTNORMALS
280
1
  9
$LATITUDE
 40
37.795
  9
$LONGITUDE
 40
-122.394
  9
$NORTHDIRECTION
 40
0.0
  9
$TIMEZONE
 70
-8000
  9
$LIGHTGLYPHDISPLAY
280
1
  9
$TILEMODELIGHTSYNCH
280
1
  9
$CMATERIAL
347
20
  9
$SOLIDHIST
280
0
  9
$SHOWHIST
280
1
  9
$DWFFRAME
280
2
  9
$DGNFRAME
280
2
  9
$REALWORLDSCALE
290
1
  9
$INTERFERECOLOR
 62
256
  9
$CSHADOW
280
0
  9
$SHADOWPLANELOCATION
 40
0.0
  0
ENDSEC
  0
SECTION
  2
CLASSES
  0
CLASS
  1
ACDBDICTIONARYWDFLT
  2
AcDbDictionaryWithDefault
  3
ObjectDBX Classes
 90
0
 91
0
280
0
281
0
  0
CLASS
  1
SUN
  2
AcDbSun
  3
SCENEOE
 90
1153
 91
0
280
0
281
0
  0
CLASS
  1
VISUALSTYLE
  2
AcDbVisualStyle
  3
ObjectDBX Classes
 90
4095
 91
0
280
0
281
0
  0
CLASS
  1
MATERIAL
  2
AcDbMaterial
  3
ObjectDBX Classes
 90
1153
 91
0
280
0
281
0
  0
CLASS
  1
SCALE
  2
AcDbScale
  3
ObjectDBX Classes
 90
1153
 91
0
280
0
281
0
  0
CLASS
  1
TABLESTYLE
  2
AcDbTableStyle
  3
ObjectDBX Classes
 90
4095
 91
0
280
0
281
0
  0
CLASS
  1
MLEADERSTYLE
  2
AcDbMLeaderStyle
  3
ACDB_MLEADERSTYLE_CLASS
 90
4095
 91
0
280
0
281
0
  0
CLASS
  1
DICTIONARYVAR
  2
AcDbDictionaryVar
  3
ObjectDBX Classes
 90
0
 91
0
280
0
281
0
  0
CLASS
  1
CELLSTYLEMAP
  2
AcDbCellStyleMap
  3
ObjectDBX Classes
 90
1152
 91
0
280
0
281
0
  0
CLASS
  1
MENTALRAYRENDERSETTINGS
  2
AcDbMentalRayRenderSettings
  3
SCENEOE
 90
1024
 91
0
280
0
281
0
  0
CLASS
  1
ACDBDETAILVIEWSTYLE
  2
AcDbDetailViewStyle
  3
ObjectDBX Classes
 90
1025
 91
0
280
0
281
0
  0
CLASS
  1
ACDBSECTIONVIEWSTYLE
  2
AcDbSectionViewStyle
  3
ObjectDBX Classes
 90
1025
 91
0
280
0
281
0
  0
CLASS
  1
RASTERVARIABLES
  2
AcDbRasterVariables
  3
ISM
 90
0
 91
0
280
0
281
0
  0
CLASS
  1
ACDBPLACEHOLDER
  2
AcDbPlaceHolder
  3
ObjectDBX Classes
 90
0
 91
0
280
0
281
0
  0
CLASS
  1
LAYOUT
  2
AcDbLayout
  3
ObjectDBX Classes
 90
0
 91
0
280
0
281
0
  0
ENDSEC
  0
SECTION
  2
TABLES
  0
TABLE
  2
VPORT
  5
8
330
0
100
AcDbSymbolTable
 70
1
  0
VPORT
  5
23
330
8
100
AcDbSymbolTableRecord
100
AcDbViewportTableRecord
  2
*Active
 70
0
 10
0.0
 20
0.0
 11
1.0
 21
1.0
 12
0.0
 22
0.0
 13
0.0
 23
0.0
 14
0.5
 24
0.5
 15
0.5
 25
0.5
 16
0.0
 26
0.0
 36
1.0
 17
0.0
 27
0.0
 37
0.0
 40
1000.0
 41
1.34
 42
50.0
 43
0.0
 44
0.0
 50
0.0
 51
0.0
 71
0
 72
1000
 73
1
 74
3
 75
0
 76
0
 77
0
 78
0
281
0
 65
0
146
0.0
  0
ENDTAB
  0
TABLE
  2
LTYPE
  5
2
330
0
100
AcDbSymbolTable
 70
21
  0
LTYPE
  5
24
330
2
100
AcDbSymbolTableRecord
100
AcDbLinetypeTableRecord
  2
ByBlock
 70
0
  3

 72
65
 73
0
 40
0.0
  0
LTYPE
  5
25
330
2
100
AcDbSymbolTableRecord
100
AcDbLinetypeTableRecord
  2
ByLayer
 70
0
  3

 72
65
 73
0
 40
0.0
  0
LTYPE
  5
26
330
2
100
AcDbSymbolTableRecord
100
AcDbLinetypeTableRecord
  2
Continuous
 70
0
  3

 72
65
 73
0
 40
0.0
  0
LTYPE
  5
2F
330
2
100
AcDbSymbolTableRecord
100
AcDbLinetypeTableRecord
  2
CENTER
 70
0
  3
Center ____ _ ____ _ ____ _ ____ _ ____ _ ____
 72
65
 73
4
 40
5.08
 49
3.175
 74
0
 49
-0.635
 74
0
 49
0.635
 74
0
 49
-0.635
 74
0
  0
LTYPE
  5
30
330
2
100
AcDbSymbolTableRecord
100
AcDbLinetypeTableRecord
  2
CENTERX2
 70
0
  3
Center (2x) ________  __  ________  __  ________
 72
65
 73
4
 40
8.89
 49
6.35
 74
0
 49
-0.635
 74
0
 49
1.27
 74
0
 49
-0.635
 74
0
  0
LTYPE
  5
31
330
2
100
AcDbSymbolTableRecord
100
AcDbLinetypeTableRecord
  2
CENTER2
 70
0
  3
Center (.5x) ____ _ ____ _ ____ _ ____ _ ____
 72
65
 73
4
 40
2.54
 49
1.587
 74
0
 49
-0.318
 74
0
 49
0.318
 74
0
 49
-0.318
 74
0
  0
LTYPE
  5
32
330
2
100
AcDbSymbolTableRecord
100
AcDbLinetypeTableRecord
  2
DASHED
 70
0
  3
Dashed __ __ __ __ __ __ __ __ __ __ __ __ __ _
 72
65
 73
2
 40
1.524
 49
1.27
 74
0
 49
-0.254
 74
0
  0
LTYPE
  5
33
330
2
100
AcDbSymbolTableRecord
100
AcDbLinetypeTableRecord
  2
DASHEDX2
 70
0
  3
Dashed (2x) ____  ____  ____  ____  ____  ____
 72
65
 73
2
 40
3.048
 49
2.54
 74
0
 49
-0.508
 74
0
  0
LTYPE
  5
34
330
2
100
AcDbSymbolTableRecord
100
AcDbLinetypeTableRecord
  2
DASHED2
 70
0
  3
Dashed (.5x) _ _ _ _ _ _ _ _ _ _ _ _ _ _
 72
65
 73
2
 40
0.762
 49
0.635
 74
0
 49
-0.127
 74
0
  0
LTYPE
  5
35
330
2
100
AcDbSymbolTableRecord
100
AcDbLinetypeTableRecord
  2
PHANTOM
 70
0
  3
Phantom ______  __  __  ______  __  __  ______
 72
65
 73
6
 40
6.35
 49
3.175
 74
0
 49
-0.635
 74
0
 49
0.635
 74
0
 49
-0.635
 74
0
 49
0.635
 74
0
 49
-0.635
 74
0
  0
LTYPE
  5
36
330
2
100
AcDbSymbolTableRecord
100
AcDbLinetypeTableRecord
  2
PHANTOMX2
 70
0
  3
Phantom (2x)____________    ____    ____    ____________
 72
65
 73
6
 40
10.795
 49
6.35
 74
0
 49
-0.635
 74
0
 49
1.27
 74
0
 49
-0.635
 74
0
 49
1.27
 74
0
 49
-0.635
 74
0
  0
LTYPE
  5
37
330
2
100
AcDbSymbolTableRecord
100
AcDbLinetypeTableRecord
  2
PHANTOM2
 70
0
  3
Phantom (.5x) ___ _ _ ___ _ _ ___ _ _ ___ _ _ ___
 72
65
 73
6
 40
3.175
 49
1.587
 74
0
 49
-0.318
 74
0
 49
0.318
 74
0
 49
-0.318
 74
0
 49
0.318
 74
0
 49
-0.318
 74
0
  0
LTYPE
  5
38
330
2
100
AcDbSymbolTableRecord
100
AcDbLinetypeTableRecord
  2
DASHDOT
 70
0
  3
Dash dot __ . __ . __ . __ . __ . __ . __ . __
 72
65
 73
4
 40
3.556
 49
2.54
 74
0
 49
-0.508
 74
0
 49
0.0
 74
0
 49
-0.508
 74
0
  0
LTYPE
  5
39
330
2
100
AcDbSymbolTableRecord
100
AcDbLinetypeTableRecord
  2
DASHDOTX2
 70
0
  3
Dash dot (2x) ____  .  ____  .  ____  .  ____
 72
65
 73
4
 40
6.096
 49
5.08
 74
0
 49
-0.508
 74
0
 49
0.0
 74
0
 49
-0.508
 74
0
  0
LTYPE
  5
3A
330
2
100
AcDbSymbolTableRecord
100
AcDbLinetypeTableRecord
  2
DASHDOT2
 70
0
  3
Dash dot (.5x) _ . _ . _ . _ . _ . _ . _ . _
 72
65
 73
4
 40
1.778
 49
1.27
 74
0
 49
-0.254
 74
0
 49
0.0
 74
0
 49
-0.254
 74
0
  0
LTYPE
  5
3B
330
2
100
AcDbSymbolTableRecord
100
AcDbLinetypeTableRecord
  2
DOT
 70
0
  3
Dot .  .  .  .  .  .  .  .  .  .  .  .  .  .  .  .
 72
65
 73
2
 40
0.508
 49
0.0
 74
0
 49
-0.508
 74
0
  0
LTYPE
  5
3C
330
2
100
AcDbSymbolTableRecord
100
AcDbLinetypeTableRecord
  2
DOTX2
 70
0
  3
Dot (2x) .    .    .    .    .    .    .    . 
 72
65
 73
2
 40
1.016
 49
0.0
 74
0
 49
-1.016
 74
0
  0
LTYPE
  5
3D
330
2
100
AcDbSymbolTableRecord
100
AcDbLinetypeTableRecord
  2
DOT2
 70
0
  3
Dot (.5) . . . . . . . . . . . . . . . . . . . 
 72
65
 73
2
 40
0.254
 49
0.0
 74
0
 49
-0.254
 74
0
  0
LTYPE
  5
3E
330
2
100
AcDbSymbolTableRecord
100
AcDbLinetypeTableRecord
  2
DIVIDE
 70
0
  3
Divide __ . . __ . . __ . . __ . . __ . . __
 72
65
 73
6
 40
4.064
 49
2.54
 74
0
 49
-0.508
 74
0
 49
0.0
 74
0
 49
-0.508
 74
0
 49
0.0
 74
0
 49
-0.508
 74
0
  0
LTYPE
  5
3F
330
2
100
AcDbSymbolTableRecord
100
AcDbLinetypeTableRecord
  2
DIVIDEX2
 70
0
  3
Divide (2x) ____  . .  ____  . .  ____  . .  ____
 72
65
 73
6
 40
6.604
 49
5.08
 74
0
 49
-0.508
 74
0
 49
0.0
 74
0
 49
-0.508
 74
0
 49
0.0
 74
0
 49
-0.508
 74
0
  0
LTYPE
  5
40
330
2
100
AcDbSymbolTableRecord
100
AcDbLinetypeTableRecord
  2
DIVIDE2
 70
0
  3
Divide(.5x) _ . _ . _ . _ . _ . _ . _ . _
 72
65
 73
6
 40
2.032
 49
1.27
 74
0
 49
-0.254
 74
0
 49
0.0
 74
0
 49
-0.254
 74
0
 49
0.0
 74
0
 49
-0.254
 74
0
  0
ENDTAB
  0
TABLE
  2
LAYER
  5
1
330
0
100
AcDbSymbolTable
 70
5
  0
LAYER
  5
27
330
1
100
AcDbSymbolTableRecord
100
AcDbLayerTableRecord
  2
0
 70
0
 62
7
  6
Continuous
370
-3
390
13
347
21
  0
LAYER
  5
28
330
1
100
AcDbSymbolTableRecord
100
AcDbLayerTableRecord
  2
Defpoints
 70
0
 62
7
  6
Continuous
290
0
370
-3
390
13
347
21
  0
LAYER
  5
8A
330
1
100
AcDbSymbolTableRecord
100
AcDbLayerTableRecord
  2
Layer
 70
0
 62
1
  6
Continuous
370
50
390
13
347
21
  0
LAYER
  5
8B
330
1
100
AcDbSymbolTableRecord
100
AcDbLayerTableRecord
  2
NumLabel
 70
0
 62
1
  6
Continuous
370
15
390
13
347
21
  0
LAYER
  5
B9
330
1
100
AcDbSymbolTableRecord
100
AcDbLayerTableRecord
  2
SplitMark
 70
0
 62
3
  6
Continuous
370
-3
390
13
347
21
  0
ENDTAB
  0
TABLE
  2
STYLE
  5
5
330
0
100
AcDbSymbolTable
 70
26
  0
STYLE
  5
29
330
5
100
AcDbSymbolTableRecord
100
AcDbTextStyleTableRecord
  2
Standard
 70
0
 40
0.0
 41
1.0
 50
0.0
 71
0
 42
2.5
  3
txt
  4

  0
STYLE
  5
41
330
5
100
AcDbSymbolTableRecord
100
AcDbTextStyleTableRecord
  2
OpenSans-Light
 70
0
 40
0.0
 41
1.0
 50
0.0
 71
0
 42
2.5
  3
OpenSans-Light.ttf
  4

  0
STYLE
  5
42
330
5
100
AcDbSymbolTableRecord
100
AcDbTextStyleTableRecord
  2
OpenSans-Light-Italic
 70
0
 40
0.0
 41
1.0
 50
0.0
 71
0
 42
2.5
  3
OpenSans-LightItalic.ttf
  4

  0
STYLE
  5
43
330
5
100
AcDbSymbolTableRecord
100
AcDbTextStyleTableRecord
  2
OpenSans
 70
0
 40
0.0
 41
1.0
 50
0.0
 71
0
 42
2.5
  3
OpenSans-Regular.ttf
  4

  0
STYLE
  5
44
330
5
100
AcDbSymbolTableRecord
100
AcDbTextStyleTableRecord
  2
OpenSans-Italic
 70
0
 40
0.0
 41
1.0
 50
0.0
 71
0
 42
2.5
  3
OpenSans-Italic.ttf
  4

  0
STYLE
  5
45
330
5
100
AcDbSymbolTableRecord
100
AcDbTextStyleTableRecord
  2
OpenSans-SemiBold
 70
0
 40
0.0
 41
1.0
 50
0.0
 71
0
 42
2.5
  3
OpenSans-SemiBold.ttf
  4

  0
STYLE
  5
46
330
5
100
AcDbSymbolTableRecord
100
AcDbTextStyleTableRecord
  2
OpenSans-SemiBoldItalic
 70
0
 40
0.0
 41
1.0
 50
0.0
 71
0
 42
2.5
  3
OpenSans-SemiBoldItalic.ttf
  4

  0
STYLE
  5
47
330
5
100
AcDbSymbolTableRecord
100
AcDbTextStyleTableRecord
  2
OpenSans-Bold
 70
0
 40
0.0
 41
1.0
 50
0.0
 71
0
 42
2.5
  3
OpenSans-Bold.ttf
  4

  0
STYLE
  5
48
330
5
100
AcDbSymbolTableRecord
100
AcDbTextStyleTableRecord
  2
OpenSans-BoldItalic
 70
0
 40
0.0
 41
1.0
 50
0.0
 71
0
 42
2.5
  3
OpenSans-BoldItalic.ttf
  4

  0
STYLE
  5
49
330
5
100
AcDbSymbolTableRecord
100
AcDbTextStyleTableRecord
  2
OpenSans-ExtraBold
 70
0
 40
0.0
 41
1.0
 50
0.0
 71
0
 42
2.5
  3
OpenSans-ExtraBold.ttf
  4

  0
STYLE
  5
4A
330
5
100
AcDbSymbolTableRecord
100
AcDbTextStyleTableRecord
  2
OpenSans-ExtraBoldItalic
 70
0
 40
0.0
 41
1.0
 50
0.0
 71
0
 42
2.5
  3
OpenSans-ExtraBoldItalic.ttf
  4

  0
STYLE
  5
4B
330
5
100
AcDbSymbolTableRecord
100
AcDbTextStyleTableRecord
  2
OpenSansCondensed-Bold
 70
0
 40
0.0
 41
1.0
 50
0.0
 71
0
 42
2.5
  3
OpenSansCondensed-Bold.ttf
  4

  0
STYLE
  5
4C
330
5
100
AcDbSymbolTableRecord
100
AcDbTextStyleTableRecord
  2
OpenSansCondensed-Light
 70
0
 40
0.0
 41
1.0
 50
0.0
 71
0
 42
2.5
  3
OpenSansCondensed-Light.ttf
  4

  0
STYLE
  5
4D
330
5
100
AcDbSymbolTableRecord
100
AcDbTextStyleTableRecord
  2
OpenSansCondensed-Italic
 70
0
 40
0.0
 41
1.0
 50
0.0
 71
0
 42
2.5
  3
OpenSansCondensed-LightItalic.ttf
  4

  0
STYLE
  5
4E
330
5
100
AcDbSymbolTableRecord
100
AcDbTextStyleTableRecord
  2
LiberationSans
 70
0
 40
0.0
 41
1.0
 50
0.0
 71
0
 42
2.5
  3
LiberationSans-Regular.ttf
  4

  0
STYLE
  5
4F
330
5
100
AcDbSymbolTableRecord
100
AcDbTextStyleTableRecord
  2
LiberationSans-Bold
 70
0
 40
0.0
 41
1.0
 50
0.0
 71
0
 42
2.5
  3
LiberationSans-Bold.ttf
  4

  0
STYLE
  5
50
330
5
100
AcDbSymbolTableRecord
100
AcDbTextStyleTableRecord
  2
LiberationSans-BoldItalic
 70
0
 40
0.0
 41
1.0
 50
0.0
 71
0
 42
2.5
  3
LiberationSans-BoldItalic.ttf
  4

  0
STYLE
  5
51
330
5
100
AcDbSymbolTableRecord
100
AcDbTextStyleTableRecord
  2
LiberationSans-Italic
 70
0
 40
0.0
 41
1.0
 50
0.0
 71
0
 42
2.5
  3
LiberationSans-Italic.ttf
  4

  0
STYLE
  5
52
330
5
100
AcDbSymbolTableRecord
100
AcDbTextStyleTableRecord
  2
LiberationSerif
 70
0
 40
0.0
 41
1.0
 50
0.0
 71
0
 42
2.5
  3
LiberationSerif-Regular.ttf
  4

  0
STYLE
  5
53
330
5
100
AcDbSymbolTableRecord
100
AcDbTextStyleTableRecord
  2
LiberationSerif-Bold
 70
0
 40
0.0
 41
1.0
 50
0.0
 71
0
 42
2.5
  3
LiberationSerif-Bold.ttf
  4

  0
STYLE
  5
54
330
5
100
AcDbSymbolTableRecord
100
AcDbTextStyleTableRecord
  2
LiberationSerif-BoldItalic
 70
0
 40
0.0
 41
1.0
 50
0.0
 71
0
 42
2.5
  3
LiberationSerif-BoldItalic.ttf
  4

  0
STYLE
  5
55
330
5
100
AcDbSymbolTableRecord
100
AcDbTextStyleTableRecord
  2
LiberationSerif-Italic
 70
0
 40
0.0
 41
1.0
 50
0.0
 71
0
 42
2.5
  3
LiberationSerif-Italic.ttf
  4

  0
STYLE
  5
56
330
5
100
AcDbSymbolTableRecord
100
AcDbTextStyleTableRecord
  2
LiberationMono
 70
0
 40
0.0
 41
1.0
 50
0.0
 71
0
 42
2.5
  3
LiberationMono-Regular.ttf
  4

  0
STYLE
  5
57
330
5
100
AcDbSymbolTableRecord
100
AcDbTextStyleTableRecord
  2
LiberationMono-Bold
 70
0
 40
0.0
 41
1.0
 50
0.0
 71
0
 42
2.5
  3
LiberationMono-Bold.ttf
  4

  0
STYLE
  5
58
330
5
100
AcDbSymbolTableRecord
100
AcDbTextStyleTableRecord
  2
LiberationMono-BoldItalic
 70
0
 40
0.0
 41
1.0
 50
0.0
 71
0
 42
2.5
  3
LiberationMono-BoldItalic.ttf
  4

  0
STYLE
  5
59
330
5
100
AcDbSymbolTableRecord
100
AcDbTextStyleTableRecord
  2
LiberationMono-Italic
 70
0
 40
0.0
 41
1.0
 50
0.0
 71
0
 42
2.5
  3
LiberationMono-Italic.ttf
  4

  0
ENDTAB
  0
TABLE
  2
VIEW
  5
7
330
0
100
AcDbSymbolTable
 70
0
  0
ENDTAB
  0
TABLE
  2
UCS
  5
6
330
0
100
AcDbSymbolTable
 70
0
  0
ENDTAB
  0
TABLE
  2
APPID
  5
3
330
0
100
AcDbSymbolTable
 70
3
  0
APPID
  5
2A
330
3
100
AcDbSymbolTableRecord
100
AcDbRegAppTableRecord
  2
ACAD
 70
0
  0
APPID
  5
B6
330
3
100
AcDbSymbolTableRecord
100
AcDbRegAppTableRecord
  2
HATCHBACKGROUNDCOLOR
 70
0
  0
APPID
  5
B7
330
3
100
AcDbSymbolTableRecord
100
AcDbRegAppTableRecord
  2
EZDXF
 70
0
  0
ENDTAB
  0
TABLE
  2
DIMSTYLE
  5
4
330
0
100
AcDbSymbolTable
 70
12
100
AcDbDimStyleTable
  0
DIMSTYLE
105
2B
330
4
100
AcDbSymbolTableRecord
100
AcDbDimStyleTableRecord
  2
Standard
 70
0
 40
1.0
 41
2.5
 42
0.625
 43
3.75
 44
1.25
 45
0.0
 46
0.0
 47
0.0
 48
0.0
 49
2.5
140
2.5
141
2.5
142
0.0
143
0.03937007874
144
1.0
145
0.0
146
1.0
147
0.625
148
0.0
 69
0
 70
0
 71
0
 72
0
 73
0
 74
0
 75
0
 76
0
 77
1
 78
8
 79
3
170
0
171
3
172
1
173
0
174
0
175
0
176
0
177
0
178
0
179
2
271
2
272
2
273
2
274
3
275
0
276
0
277
2
278
44
279
0
280
0
281
0
282
0
283
0
284
8
285
0
286
0
288
0
289
3
290
0
371
-2
372
-2
  0
DIMSTYLE
105
73
330
4
100
AcDbSymbolTableRecord
100
AcDbDimStyleTableRecord
  2
EZDXF
 70
0
 40
1.0
 41
0.175
 42
0.125
 43
3.75
 44
0.375
 45
0.0
 46
0.0
 47
0.0
 48
0.0
 49
2.5
140
0.25
141
2.5
142
0.0
143
0.03937007874
144
100.0
145
0.0
146
0.5
147
0.1
148
0.0
 69
0
 70
0
 71
0
 72
0
 73
0
 74
0
 75
0
 76
0
 77
1
 78
12
 79
3
170
0
171
3
172
1
173
0
174
0
175
0
176
0
177
0
178
0
179
2
271
2
272
2
273
2
274
3
275
0
276
0
277
2
278
46
279
2
280
0
281
0
282
0
283
0
284
8
285
0
286
0
288
1
289
3
290
0
340
4C
342
74
371
-2
372
-2
  0
DIMSTYLE
105
7C
330
4
100
AcDbSymbolTableRecord
100
AcDbDimStyleTableRecord
  2
EZ_M_100_H25_CM
 70
0
 40
1.0
 41
0.25
 42
0.125
 43
3.75
 44
0.375
 45
0.0
 46
0.0
 47
0.0
 48
0.0
 49
2.5
140
0.25
141
2.5
142
0.125
143
0.03937007874
144
100.0
145
0.0
146
0.5
147
0.1
148
0.0
 69
0
 70
0
 71
0
 72
0
 73
0
 74
0
 75
0
 76
0
 77
1
 78
12
 79
3
170
0
171
3
172
1
173
0
174
0
175
0
176
0
177
0
178
0
179
2
271
2
272
2
273
2
274
3
275
0
276
0
277
2
278
46
279
2
280
0
281
0
282
0
283
0
284
8
285
0
286
0
288
1
289
3
290
0
340
4C
371
-2
372
-2
  0
DIMSTYLE
105
7D
330
4
100
AcDbSymbolTableRecord
100
AcDbDimStyleTableRecord
  2
EZ_M_50_H25_CM
 70
0
 40
1.0
 41
0.125
 42
0.0625
 43
3.75
 44
0.1875
 45
0.0
 46
0.0
 47
0.0
 48
0.0
 49
2.5
140
0.125
141
2.5
142
0.0625
143
0.03937007874
144
100.0
145
0.0
146
0.5
147
0.05
148
0.0
 69
0
 70
0
 71
0
 72
0
 73
0
 74
0
 75
0
 76
0
 77
1
 78
12
 79
3
170
0
171
3
172
1
173
0
174
0
175
0
176
0
177
0
178
0
179
2
271
2
272
2
273
2
274
3
275
0
276
0
277
2
278
46
279
2
280
0
281
0
282
0
283
0
284
8
285
0
286
0
288
1
289
3
290
0
340
4C
371
-2
372
-2
  0
DIMSTYLE
105
7E
330
4
100
AcDbSymbolTableRecord
100
AcDbDimStyleTableRecord
  2
EZ_M_25_H25_CM
 70
0
 40
1.0
 41
0.0625
 42
0.03125
 43
3.75
 44
0.09375
 45
0.0
 46
0.0
 47
0.0
 48
0.0
 49
2.5
140
0.0625
141
2.5
142
0.03125
143
0.03937007874
144
100.0
145
0.0
146
0.5
147
0.025
148
0.0
 69
0
 70
0
 71
0
 72
0
 73
0
 74
0
 75
0
 76
0
 77
1
 78
12
 79
3
170
0
171
3
172
1
173
0
174
0
175
0
176
0
177
0
178
0
179
2
271
2
272
2
273
2
274
3
275
0
276
0
277
2
278
46
279
2
280
0
281
0
282
0
283
0
284
8
285
0
286
0
288
1
289
3
290
0
340
4C
371
-2
372
-2
  0
DIMSTYLE
105
7F
330
4
100
AcDbSymbolTableRecord
100
AcDbDimStyleTableRecord
  2
EZ_M_20_H25_CM
 70
0
 40
1.0
 41
0.05
 42
0.025
 43
3.75
 44
0.07500000000000001
 45
0.0
 46
0.0
 47
0.0
 48
0.0
 49
2.5
140
0.05
141
2.5
142
0.025
143
0.03937007874
144
100.0
145
0.0
146
0.5
147
0.020000000000000004
148
0.0
 69
0
 70
0
 71
0
 72
0
 73
0
 74
0
 75
0
 76
0
 77
1
 78
12
 79
3
170
0
171
3
172
1
173
0
174
0
175
0
176
0
177
0
178
0
179
2
271
2
272
2
273
2
274
3
275
0
276
0
277
2
278
46
279
2
280
0
281
0
282
0
283
0
284
8
285
0
286
0
288
1
289
3
290
0
340
4C
371
-2
372
-2
  0
DIMSTYLE
105
80
330
4
100
AcDbSymbolTableRecord
100
AcDbDimStyleTableRecord
  2
EZ_M_10_H25_CM
 70
0
 40
1.0
 41
0.025
 42
0.0125
 43
3.75
 44
0.037500000000000006
 45
0.0
 46
0.0
 47
0.0
 48
0.0
 49
2.5
140
0.025
141
2.5
142
0.0125
143
0.03937007874
144
100.0
145
0.0
146
0.5
147
0.010000000000000002
148
0.0
 69
0
 70
0
 71
0
 72
0
 73
0
 74
0
 75
0
 76
0
 77
1
 78
12
 79
3
170
0
171
3
172
1
173
0
174
0
175
0
176
0
177
0
178
0
179
2
271
2
272
2
273
2
274
3
275
0
276
0
277
2
278
46
279
2
280
0
281
0
282
0
283
0
284
8
285
0
286
0
288
1
289
3
290
0
340
4C
371
-2
372
-2
  0
DIMSTYLE
105
81
330
4
100
AcDbSymbolTableRecord
100
AcDbDimStyleTableRecord
  2
EZ_M_5_H25_CM
 70
0
 40
1.0
 41
0.0125
 42
0.00625
 43
3.75
 44
0.018750000000000003
 45
0.0
 46
0.0
 47
0.0
 48
0.0
 49
2.5
140
0.0125
141
2.5
142
0.00625
143
0.03937007874
144
100.0
145
0.0
146
0.5
147
0.005000000000000001
148
0.0
 69
0
 70
0
 71
0
 72
0
 73
0
 74
0
 75
0
 76
0
 77
1
 78
12
 79
3
170
0
171
3
172
1
173
0
174
0
175
0
176
0
177
0
178
0
179
2
271
2
272
2
273
2
274
3
275
0
276
0
277
2
278
46
279
2
280
0
281
0
282
0
283
0
284
8
285
0
286
0
288
1
289
3
290
0
340
4C
371
-2
372
-2
  0
DIMSTYLE
105
82
330
4
100
AcDbSymbolTableRecord
100
AcDbDimStyleTableRecord
  2
EZ_M_1_H25_CM
 70
0
 40
1.0
 41
0.0025
 42
0.00125
 43
3.75
 44
0.00375
 45
0.0
 46
0.0
 47
0.0
 48
0.0
 49
2.5
140
0.0025
141
2.5
142
0.00125
143
0.03937007874
144
100.0
145
0.0
146
0.5
147
0.001
148
0.0
 69
0
 70
0
 71
0
 72
0
 73
0
 74
0
 75
0
 76
0
 77
1
 78
12
 79
3
170
0
171
3
172
1
173
0
174
0
175
0
176
0
177
0
178
0
179
2
271
2
272
2
273
2
274
3
275
0
276
0
277
2
278
46
279
2
280
0
281
0
282
0
283
0
284
8
285
0
286
0
288
1
289
3
290
0
340
4C
371
-2
372
-2
  0
DIMSTYLE
105
83
330
4
100
AcDbSymbolTableRecord
100
AcDbDimStyleTableRecord
  2
EZ_RADIUS
 70
0
 40
1.0
 41
0.25
 42
0.125
 43
3.75
 44
0.375
 45
0.0
 46
0.0
 47
0.0
 48
0.0
 49
2.5
140
0.25
141
0.0
142
0.0
143
0.03937007874
144
100.0
145
0.0
146
0.5
147
0.1
148
0.0
 69
0
 70
0
 71
0
 72
0
 73
0
 74
0
 75
0
 76
0
 77
1
 78
12
 79
3
170
0
171
3
172
0
173
0
174
0
175
0
176
0
177
0
178
0
179
2
271
2
272
2
273
2
274
3
275
0
276
0
277
2
278
46
279
1
280
0
281
0
282
0
283
0
284
8
285
0
286
0
288
1
289
3
290
0
340
4C
342
84
371
-2
372
-2
  0
DIMSTYLE
105
88
330
4
100
AcDbSymbolTableRecord
100
AcDbDimStyleTableRecord
  2
EZ_RADIUS_INSIDE
 70
0
 40
1.0
 41
0.25
 42
0.125
 43
3.75
 44
0.375
 45
0.0
 46
0.0
 47
0.0
 48
0.0
 49
2.5
140
0.25
141
0.0
142
0.0
143
0.03937007874
144
100.0
145
0.0
146
0.5
147
0.1
148
0.0
 69
0
 70
0
 71
0
 72
0
 73
0
 74
0
 75
0
 76
0
 77
0
 78
12
 79
3
170
0
171
3
172
0
173
0
174
1
175
0
176
0
177
0
178
0
179
2
271
2
272
2
273
2
274
3
275
0
276
0
277
2
278
46
279
0
280
0
281
0
282
0
283
0
284
8
285
0
286
0
288
1
289
0
290
0
340
4C
342
84
371
-2
372
-2
  0
DIMSTYLE
105
89
330
4
100
AcDbSymbolTableRecord
100
AcDbDimStyleTableRecord
  2
EZ_CURVED
 70
0
 40
1.0
 41
0.25
 42
0.125
 43
3.75
 44
0.375
 45
0.0
 46
0.0
 47
0.0
 48
0.0
 49
2.5
140
0.25
141
2.5
142
0.0
143
0.03937007874
144
100.0
145
0.0
146
0.5
147
0.1
148
0.0
 69
0
 70
0
 71
0
 72
0
 73
0
 74
0
 75
0
 76
0
 77
1
 78
12
 79
2
 90
2
170
0
171
3
172
1
173
0
174
0
175
0
176
0
177
0
178
0
179
2
271
2
272
2
273
2
274
3
275
0
276
0
277
2
278
46
279
2
280
0
281
0
282
0
283
0
284
8
285
0
286
0
288
1
289
3
290
0
340
4C
371
-2
372
-2
  0
ENDTAB
  0
TABLE
  2
BLOCK_RECORD
  5
9
330
0
100
AcDbSymbolTable
 70
5
  0
BLOCK_RECORD
  5
17
330
9
100
AcDbSymbolTableRecord
100
AcDbBlockTableRecord
  2
*Model_Space
340
1A
 70
0
280
1
281
0
  0
BLOCK_RECORD
  5
1B
330
9
100
AcDbSymbolTableRecord
100
AcDbBlockTableRecord
  2
*Paper_Space
340
1E
 70
0
280
1
281
0
  0
BLOCK_RECORD
  5
74
330
9
100
AcDbSymbolTableRecord
100
AcDbBlockTableRecord
  2
_ARCHTICK
340
0
 70
0
280
1
281
0
  0
BLOCK_RECORD
  5
78
330
9
100
AcDbSymbolTableRecord
100
AcDbBlockTableRecord
  2
_CLOSEDFILLED
340
0
 70
0
280
1
281
0
  0
BLOCK_RECORD
  5
84
330
9
100
AcDbSymbolTableRecord
100
AcDbBlockTableRecord
  2
_CLOSEDBLANK
340
0
 70
0
280
1
281
0
  0
ENDTAB
  0
ENDSEC
  0
SECTION
  2
BLOCKS
  0
BLOCK
  5
18
330
17
100
AcDbEntity
  8
0
100
AcDbBlockBegin
  2
*Model_Space
 70
0
 10
0.0
 20
0.0
 30
0.0
  3
*Model_Space
  1

  0
ENDBLK
  5
19
330
17
100
AcDbEntity
  8
0
100
AcDbBlockEnd
  0
BLOCK
  5
1C
330
1B
100
AcDbEntity
  8
0
100
AcDbBlockBegin
  2
*Paper_Space
 70
0
 10
0.0
 20
0.0
 30
0.0
  3
*Paper_Space
  1

  0
ENDBLK
  5
1D
330
1B
100
AcDbEntity
  8
0
100
AcDbBlockEnd
  0
BLOCK
  5
75
330
74
100
AcDbEntity
  8
0
100
AcDbBlockBegin
  2
_ARCHTICK
 70
0
 10
0.0
 20
0.0
 30
0.0
  3
_ARCHTICK
  1

  0
LWPOLYLINE
  5
77
330
74
100
AcDbEntity
  8
0
  6
BYBLOCK
 62
0
100
AcDbPolyline
 90
2
 70
0
 43
0.15
 10
-0.5
 20
-0.5
 10
0.5
 20
0.5
  0
ENDBLK
  5
76
330
74
100
AcDbEntity
  8
0
100
AcDbBlockEnd
  0
BLOCK
  5
79
330
78
100
AcDbEntity
  8
0
100
AcDbBlockBegin
  2
_CLOSEDFILLED
 70
0
 10
0.0
 20
0.0
 30
0.0
  3
_CLOSEDFILLED
  1

  0
SOLID
  5
7B
330
78
100
AcDbEntity
  8
0
  6
BYBLOCK
 62
0
100
AcDbTrace
 10
-1.0
 20
0.16439898372402537
 30
0.0
 11
0.0
 21
0.0
 31
0.0
 12
-1.0
 22
-0.16439898372402537
 32
0.0
 13
-1.0
 23
-0.16439898372402537
 33
0.0
  0
ENDBLK
  5
7A
330
78
100
AcDbEntity
  8
0
100
AcDbBlockEnd
  0
BLOCK
  5
85
330
84
100
AcDbEntity
  8
0
100
AcDbBlockBegin
  2
_CLOSEDBLANK
 70
0
 10
0.0
 20
0.0
 30
0.0
  3
_CLOSEDBLANK
  1

  0
LWPOLYLINE
  5
87
330
84
100
AcDbEntity
  8
0
  6
BYBLOCK
 62
0
100
AcDbPolyline
 90
3
 70
1
 10
-1.0
 20
0.16439898372402537
 10
0.0
 20
0.0
 10
-1.0
 20
-0.16439898372402537
  0
ENDBLK
  5
86
330
84
100
AcDbEntity
  8
0
100
AcDbBlockEnd
  0
ENDSEC
  0
SECTION
  2
ENTITIES
  0
LWPOLYLINE
  5
8C
330
17
100
AcDbEntity
  8
Layer
100
AcDbPolyline
 90
261
 70
1
 10
1034.6776952117061
 20
109.85086397047516
 10
1033.1869836871833
 20
110.39008163921586
 10
1030.5771636208178
 20
111.33170162252638
 10
1027.5018722942973
 20
112.43356880093555
 10
1023.9689747043892
 20
113.6812606859128
 10
1019.9727412443513
 20
115.0701046823932
 10
1015.5360442055683
 20
116.60960299299018
 10
1010.6974520262146
 20
118.29360632192551
 10
1005.4978430563006
 20
120.11261852006622
 10
999.9721577784912
 20
122.05479899278252
 10
994.1517010328448
 20
124.10594249973111
 10
988.0558408373938
 20
126.25479528757316
 10
981.6989259232831
 20
128.49218639794196
 10
975.0942529091803
 20
130.8146694347526
 10
968.2533293250511
 20
133.21915799497725
 10
961.1914611437278
 20
135.70063071713668
 10
953.9247327462218
 20
138.25386736718167
 10
946.4680530339785
 20
140.87213272083756
 10
938.8321684890487
 20
143.54977078533287
 10
931.0265618084936
 20
146.2832757994372
 10
923.0607766279163
 20
149.06873858303905
 10
914.9410952410216
 20
151.90203377016326
 10
906.6727508000499
 20
154.77989417633515
 10
898.2619275319526
 20
157.69947356850702
 10
889.7150610915023
 20
160.65727126164887
 10
881.0373933874835
 20
163.64965516603482
 10
872.2339203762576
 20
166.67284045284933
 10
863.3097366075297
 20
169.7233387428377
 10
854.2694981371885
 20
172.79788901168723
 10
845.1165926795767
 20
175.8931641298506
 10
835.8543436797222
 20
179.00604581579015
 10
826.4869717594468
 20
182.13449358766817
 10
817.0195799145464
 20
185.27500540348248
 10
807.4553506700788
 20
188.42218604739594
 10
797.7941608249621
 20
191.5723262006663
 10
788.0384650154338
 20
194.72698926792046
 10
782.4983435424058
 20
196.505888647111
 10
782.192623160001
 20
195.55376730621887
 10
777.8938037363661
 20
196.93409638224458
 10
767.9801192050043
 20
200.09194221569115
 10
757.994903838531
 20
203.2399062863001
 10
747.9397627831796
 20
206.3749661779965
 10
737.8238072579608
 20
209.4955455703244
 10
727.6583818465506
 20
212.5926978871442
 10
717.4458261660892
 20
215.65327830153595
 10
707.183140565724
 20
218.67053790018926
 10
696.8731092061385
 20
221.64296065225
 10
686.5237495892753
 20
224.56409922073902
 10
676.1351611289634
 20
227.42242996388057
 10
665.7010031089824
 20
230.21351650746425
 10
655.2217577237711
 20
232.940152869948
 10
644.7066900956529
 20
235.60078253178744
 10
634.1598102140936
 20
238.18661387954924
 10
623.5767567429568
 20
240.69278103349026
 10
612.959437072682
 20
243.12256500567457
 10
602.32017027625
 20
245.47361989804182
 10
591.6649139457917
 20
247.7309842720745
 10
580.9819666328644
 20
249.8813120972661
 10
570.2554692857093
 20
251.9277874975022
 10
559.4839836471889
 20
253.88423356823162
 10
548.6801516348163
 20
255.75888339889894
 10
537.8571549126833
 20
257.54952942084924
 10
527.0233596880943
 20
259.2496763036845
 10
516.1829253452654
 20
260.8529505041762
 10
505.3351061828481
 20
262.3533546707679
 10
494.4753273277701
 20
263.7496008377968
 10
483.60277174568614
 20
265.0467078210047
 10
472.72516190712616
 20
266.25082075130575
 10
461.85298555342695
 20
267.3616837979125
 10
450.9924273735225
 20
268.3746373108578
 10
440.1457222808601
 20
269.2855452672236
 10
429.31345171674417
 20
270.0932881670323
 10
418.49574307347586
 20
270.799333290038
 10
407.6951236026429
 20
271.40816746567407
 10
396.9211655782604
 20
271.92409420154223
 10
386.18667271941695
 20
272.3457759938248
 10
375.49737319292706
 20
272.6656393356359
 10
364.85041572517804
 20
272.87889891107733
 10
354.243330655474
 20
272.98901019189225
 10
343.68115124200034
 20
273.00354872994365
 10
333.1741371952636
 20
272.9279148600359
 10
322.73575090778957
 20
272.76342184466597
 10
312.3806458736476
 20
272.5051312640369
 10
302.1150890495014
 20
272.14217878103096
 10
291.93246426266677
 20
271.6665187280388
 10
281.82365431216556
 20
271.08384599647184
 10
271.79433330908046
 20
270.41010990932295
 10
261.86651134851115
 20
269.6563557058598
 10
252.06440770445107
 20
268.81805467113804
 10
242.40117423117283
 20
267.88093085346725
 10
232.87449257248852
 20
266.8329679452727
 10
223.47378631229495
 20
265.6750756877991
 10
214.19666882917852
 20
264.4243603882891
 10
205.06347321915965
 20
263.10391965221027
 10
196.11057242259926
 20
261.7231650962382
 10
187.36722769083156
 20
260.2699839628983
 10
178.83619224084333
 20
258.72395585554375
 10
170.4982157961406
 20
257.08098162698104
 10
162.34150266272883
 20
255.36562482986304
 10
154.38642654441497
 20
253.61364247518935
 10
146.67313827660732
 20
251.83958768078742
 10
139.22424961375947
 20
250.02889155539782
 10
132.03027672208606
 20
248.16346522209437
 10
125.06891937381562
 20
246.24399823067478
 10
118.32736214502762
 20
244.28680164081976
 10
111.80534109255251
 20
242.30873913843433
 10
105.50960006406564
 20
240.31981750329516
 10
99.44661193735902
 20
238.32234127481897
 10
93.61830322826773
 20
236.31167909620942
 10
88.01782001863955
 20
234.2787206194705
 10
82.63114973553456
 20
232.21736578320244
 10
77.44390093609098
 20
230.12912806826705
 10
72.44806374736203
 20
228.02236239273805
 10
67.64430741425036
 20
225.90566584743735
 10
63.03639970287219
 20
223.78147183625126
 10
58.62395506384843
 20
221.64625413622193
 10
54.4013529692715
 20
219.49762301974266
 10
50.36429782787235
 20
217.34064011597266
 10
46.514590356572
 20
215.18269868737175
 10
42.85447679072382
 20
213.02553920201686
 10
39.38074592166549
 20
210.86594319182163
 10
36.08843241668387
 20
208.70393405511325
 10
32.9783009231557
 20
206.54324985875954
 10
30.05599447204213
 20
204.38741037172719
 10
27.326239351429763
 20
202.23614561205224
 10
24.791307869974162
 20
200.0898616994385
 10
22.451360808662685
 20
197.9493665718337
 10
20.29957845778688
 20
195.81077879167108
 10
18.322703048540177
 20
193.6735970404399
 10
16.514627551806655
 20
191.55452881189743
 10
14.89021071444597
 20
189.48390318834132
 10
13.473798952409027
 20
187.47494288490094
 10
12.274129577233623
 20
185.50836567789932
 10
11.27855830005359
 20
183.55665953733495
 10
10.469960239263798
 20
181.61850448600006
 10
9.841250377038648
 20
179.71825628769568
 10
9.393820960332391
 20
177.86117970334783
 10
9.129259212837212
 20
176.0058173864184
 10
9.054634265285415
 20
174.27728438097495
 10
9.16566949057028
 20
172.5734135552773
 10
9.475022161483366
 20
170.93849275100095
 10
10.004475568962164
 20
169.35006642740487
 10
10.774037448761817
 20
167.7794190031156
 10
11.783626096218995
 20
166.2180432741157
 10
13.01744614858228
 20
164.67935942056818
 10
14.471098395775698
 20
163.1797901768234
 10
16.160389878000842
 20
161.72465540293203
 10
18.10201811476105
 20
160.31053032751564
 10
20.295468185720324
 20
158.93514073194612
 10
22.733119013816804
 20
157.60188247559833
 10
25.416562533846957
 20
156.3143690210096
 10
28.354878659962424
 20
155.06980666682267
 10
31.55024204315214
 20
153.86062994405054
 10
34.99707509893511
 20
152.6814473003995
 10
38.68938737963464
 20
151.53147991984696
 10
42.62526196116647
 20
150.41211711739732
 10
46.804528248564054
 20
149.32413929887977
 10
51.22910819548531
 20
148.26791092514208
 10
55.904013377937474
 20
147.24223972230658
 10
60.83276713363932
 20
146.24355650377754
 10
66.01573401500684
 20
145.27040299654305
 10
71.45598974139438
 20
144.32578751520583
 10
77.16511537758925
 20
143.41293615876384
 10
83.15638915868237
 20
142.52928389297048
 10
89.43812883518132
 20
141.66975809560296
 10
96.0161597494535
 20
140.83309480607306
 10
102.90198924870299
 20
140.02138900737353
 10
110.11017996819288
 20
139.23439250599833
 10
117.65128625141529
 20
138.46850523001953
 10
125.53031470130412
 20
137.72226733587408
 10
133.751551787018
 20
136.99868704223982
 10
142.31812600037938
 20
136.3005997825899
 10
151.2268614722509
 20
135.6285701832088
 10
160.46618907301757
 20
134.98434362361456
 10
170.02066512261356
 20
134.3721434359736
 10
179.87410590871693
 20
133.79428854617282
 10
190.00508725885877
 20
133.24967532946482
 10
200.3881563956537
 20
132.73894658041445
 10
211.00261906452755
 20
132.2639902408481
 10
211.06760958221707
 20
132.26134628426476
 10
211.02696101650488
 20
131.26217277875858
 10
221.7936865914754
 20
130.8241553415309
 10
232.8188828861979
 20
130.41669918714874
 10
244.02328118495578
 20
130.04488406468715
 10
255.40133214987858
 20
129.70829221933946
 10
266.94069003691095
 20
129.40042490998113
 10
278.6130384292608
 20
129.11692025259225
 10
290.39491216527506
 20
128.86335223177736
 10
302.2873141845864
 20
128.64623060603054
 10
314.30514457271795
 20
128.46255216876182
 10
326.45445723004207
 20
128.29963362865055
 10
338.7208220113994
 20
128.14257587222062
 10
351.07657732732787
 20
127.98273070895404
 10
363.49528758718594
 20
127.82432569585619
 10
375.9613826029756
 20
127.68220060388927
 10
388.48699687271215
 20
127.5663154421144
 10
401.0910497413493
 20
127.4678292714069
 10
413.77026019167795
 20
127.36814963516728
 10
426.49795796012
 20
127.26035459443315
 10
439.25540915207495
 20
127.15485933006283
 10
452.0392342683682
 20
127.06101764153068
 10
464.84703766667366
 20
126.97450513600391
 10
477.6640197421771
 20
126.88915370521671
 10
490.47610345296755
 20
126.81172992795081
 10
503.28839527340824
 20
126.75234127001194
 10
516.1129290312749
 20
126.70477437227704
 10
528.9428011498383
 20
126.6489294959963
 10
541.7630780874448
 20
126.5750640342194
 10
554.5590549571662
 20
126.49272716843168
 10
567.327133577308
 20
126.41433637601322
 10
580.0714677770148
 20
126.33739668534356
 10
592.7796919420448
 20
126.25272129790592
 10
605.4305851991163
 20
126.16329785513636
 10
618.0162197210561
 20
126.084005555759
 10
630.5465741236037
 20
126.02142942766471
 10
643.02849928684
 20
125.96452030659812
 10
655.4504845782901
 20
125.8957775751198
 10
667.8104572626456
 20
125.8082732744463
 10
680.1071452979829
 20
125.70425914086309
 10
692.3301289260221
 20
125.58403208793054
 10
704.4571731213346
 20
125.43865121799996
 10
716.4693578586323
 20
125.25902106116929
 10
728.3668891995231
 20
125.04377357537733
 10
740.1436635991191
 20
124.80341900938915
 10
751.78143490094
 20
124.55179650852266
 10
763.2875899677554
 20
124.29637967429758
 10
774.6615899482106
 20
124.03165005440145
 10
785.8915408126697
 20
123.74670726689064
 10
796.9831885667265
 20
123.43790541020671
 10
807.9366491330954
 20
123.11337924712032
 10
818.7308465813744
 20
122.78135826167728
 10
829.3441733440427
 20
122.43740446326784
 10
839.7719839474759
 20
122.06984544034093
 10
850.0316008795367
 20
121.67488328326357
 10
860.1327079675975
 20
121.26268259058467
 10
870.0604083450369
 20
120.84451041567984
 10
879.7874330139284
 20
120.42027674090413
 10
889.2931374671703
 20
119.9796811600502
 10
898.5895038658321
 20
119.51548641078311
 10
907.6963296588981
 20
119.03092200986386
 10
916.6119851016658
 20
118.53774088675753
 10
925.3075290422901
 20
118.04634920064184
 10
933.754790457516
 20
117.55417346479281
 10
941.9498786484966
 20
117.0470370020781
 10
949.9138539198392
 20
116.51336215018117
 10
957.6650733256475
 20
115.95912599959672
 10
965.1916799497697
 20
115.40338246356067
 10
972.4543607127357
 20
114.85719334764482
 10
979.4267965089323
 20
114.31557867876889
 10
986.108809281354
 20
113.77425316779605
 10
992.4998586003708
 20
113.23772598891424
 10
998.5839367874468
 20
112.70997632748141
 10
1004.3353335788257
 20
112.19166028977799
 10
1009.725675810553
 20
111.68130739029495
 10
1014.7355001258325
 20
111.17591755859974
 10
1019.3517648141545
 20
110.68207881813188
 10
1023.546780182206
 20
110.21669475390772
 10
1027.283482386047
 20
109.79275659989224
 10
1030.5343559960897
 20
109.41039542422824
 10
1033.291060640947
 20
109.07026092931793
 10
1034.863993266958
 20
108.86917540241372
  0
LWPOLYLINE
  5
8D
330
17
100
AcDbEntity
  8
Layer
100
AcDbPolyline
 90
5
 70
0
 10
681.9423340099386
 20
221.67597923184752
 10
678.0856481440096
 20
222.7370985142768
 10
679.1467674264388
 20
226.59378438020582
 10
683.0034532923678
 20
225.53266509777654
 10
681.9423340099386
 20
221.67597923184752
  0
LWPOLYLINE
  5
8E
330
17
100
AcDbEntity
  8
Layer
100
AcDbPolyline
 90
5
 70
0
 10
294.69552324488
 20
267.7911608489392
 10
290.6998819363619
 20
267.6044778725756
 10
290.5131989599983
 20
271.6001191810937
 10
294.5088402685164
 20
271.7868021574573
 10
294.69552324488
 20
267.7911608489392
  0
LWPOLYLINE
  5
8F
330
17
100
AcDbEntity
  8
Layer
100
AcDbPolyline
 90
5
 70
0
 10
118.75562559926139
 20
240.23675500700153
 10
114.92782074934512
 20
239.0757597309743
 10
113.76682547331792
 20
242.9035645808906
 10
117.5946303232342
 20
244.0645598569178
 10
118.75562559926139
 20
240.23675500700153
  0
LWPOLYLINE
  5
90
330
17
100
AcDbEntity
  8
Layer
100
AcDbPolyline
 90
5
 70
0
 10
29.75118943194
 20
197.73737454207264
 10
28.225246117632956
 20
196.4445106662057
 10
24.993086427965657
 20
200.25936895197333
 10
26.5190297422727
 20
201.55223282784027
 10
29.75118943194
 20
197.73737454207264
  0
LWPOLYLINE
  5
91
330
17
100
AcDbEntity
  8
Layer
100
AcDbPolyline
 90
5
 70
0
 10
19.873211988859932
 20
165.20785294755305
 10
21.491624278567176
 20
164.0328033058253
 10
18.554000174247765
 20
159.98677258155718
 10
16.93558788454052
 20
161.16182222328493
 10
19.873211988859932
 20
165.20785294755305
  0
LWPOLYLINE
  5
92
330
17
100
AcDbEntity
  8
Layer
100
AcDbPolyline
 90
5
 70
0
 10
157.99620614267562
 20
139.1662955602335
 10
161.98651858149182
 20
138.8880750710013
 10
161.70829809225964
 20
134.8977626321851
 10
157.71798565344344
 20
135.1759831214173
 10
157.99620614267562
 20
139.1662955602335
  0
LINE
  5
93
330
17
100
AcDbEntity
  8
Layer
100
AcDbLine
 10
1015.9853943601667
 20
116.45368209106162
 30
0.0
 11
1015.6609842283478
 21
115.50776556917754
 31
0.0
  0
LINE
  5
94
330
17
100
AcDbEntity
  8
Layer
100
AcDbLine
 10
1014.9985746644674
 20
112.1523646835991
 30
0.0
 11
1014.9391418410983
 21
111.1541323762145
 31
0.0
  0
LINE
  5
95
330
17
100
AcDbEntity
  8
Layer
100
AcDbLine
 10
997.1090821846984
 20
123.06375398905554
 30
0.0
 11
996.781625301429
 21
122.11888786647546
 31
0.0
  0
LINE
  5
96
330
17
100
AcDbEntity
  8
Layer
100
AcDbLine
 10
995.0968024833293
 20
114.01616372647364
 30
0.0
 11
995.0204624062443
 21
113.01908188799163
 31
0.0
  0
LINE
  5
97
330
17
100
AcDbEntity
  8
Layer
100
AcDbLine
 10
921.6272298893363
 20
149.5689627767485
 30
0.0
 11
921.2972008637919
 21
148.62499199208497
 31
0.0
  0
LINE
  5
98
330
17
100
AcDbEntity
  8
Layer
100
AcDbLine
 10
915.2879445990769
 20
119.61236798477664
 30
0.0
 11
915.2158655140247
 21
118.61496906483636
 31
0.0
  0
LWPOLYLINE
  5
99
330
17
100
AcDbEntity
  8
Layer
100
AcDbPolyline
 90
300
 70
1
 10
458.75543309754323
 20
200.0
 10
458.7427193231252
 20
201.28504322269157
 10
458.70458361391593
 20
202.56951900647147
 10
458.6410428095711
 20
203.85286016299298
 10
458.5521249679212
 20
205.13450000492898
 10
458.43786935258186
 20
206.4138725962049
 10
458.29832641561643
 20
207.6904130019002
 10
458.1335577752576
 20
208.9635575377078
 10
457.9436361886985
 20
210.2327440188412
 10
457.7286455199653
 20
211.4974120082794
 10
457.488680702885
 20
212.7570030642401
 10
457.2238476991656
 20
214.01096098677192
 10
456.93426345160617
 20
215.25873206335663
 10
456.6200558324582
 20
216.499765313413
 10
456.28136358696116
 20
217.73351273159432
 10
455.91833627207603
 20
218.95942952977214
 10
455.5311341904454
 20
220.17697437759932
 10
455.11992831960833
 20
221.38560964154638
 10
454.68490023650156
 20
222.5848016223052
 10
454.2262420372799
 20
223.77402079045575
 10
453.7441562524925
 20
224.95274202029123
 10
453.2388557576505
 20
226.1204448216989
 10
452.7105636792278
 20
227.27661356999383
 10
452.15951329613415
 20
228.42073773360428
 10
451.58594793670596
 20
229.552312099508
 10
450.99012087125953
 20
230.67083699632008
 10
450.37229520025363
 20
231.77581851493392
 10
449.73274373811216
 20
232.86676872661738
 10
449.0717488927567
 20
233.94320589846842
 10
448.3896025409031
 20
235.004654706135
 10
447.68660589917727
 20
236.05064644370458
 10
446.96306939110593
 20
237.08071923067172
 10
446.2193125100427
 20
238.09441821589147
 10
445.4556636780886
 20
239.09129577842873
 10
444.67246010107027
 20
240.07091172521513
 10
443.87004761963925
 20
241.03283348542584
 10
443.0487805565585
 20
241.97663630149083
 10
442.20902156024346
 20
242.9019034166556
 10
441.3511414446267
 20
243.8082262590095
 10
440.47551902541704
 20
244.69520462189928
 10
439.5825409528249
 20
245.56244684064944
 10
438.6726015408289
 20
246.40956996550997
 10
437.74610259305746
 20
247.23619993075644
 10
436.80345322536397
 20
248.0419717198668
 10
435.84506968517246
 20
248.8265295267024
 10
434.8713751676747
 20
249.58952691262186
 10
433.8827996289591
 20
250.33062695945893
 10
432.87977959615387
 20
251.04950241829565
 10
431.8627579746694
 20
251.74583585396658
 10
430.8321838526235
 20
252.41931978522916
 10
429.78851230253645
 20
253.06965682053865
 10
428.7322041803844
 20
253.69655978936802
 10
427.66372592209757
 20
254.29975186901427
 10
426.58354933759614
 20
254.87896670683554
 10
425.4921514024515
 20
255.43394853786506
 10
424.39001404726775
 20
255.9644522977496
 10
423.2776239448745
 20
256.4702437309631
 10
422.15547229542585
 20
256.9510994942473
 10
421.02405460950047
 20
257.4068072552336
 10
419.88387048929764
 20
257.8371657862037
 10
418.7354234080274
 20
258.2419850529452
 10
417.5792204875907
 20
258.6210862986661
 10
416.41577227464876
 20
258.9743021229285
 10
415.2455925151801
 20
259.30147655556783
 10
414.0691979276245
 20
259.60246512556483
 10
412.887107974715
 20
259.87713492484033
 10
411.6998446340976
 20
260.12536466694314
 10
410.5079321678407
 20
260.3470447406071
 10
409.3118968909357
 20
260.5420772581523
 10
408.1122669388911
 20
260.7103760987093
 10
406.9095720345228
 20
260.851866946248
 10
405.70434325404324
 20
260.96648732239316
 10
404.4971127925534
 20
261.0541866140134
 10
403.2884137290401
 20
261.11492609557047
 10
402.07877979098356
 20
261.1486789462191
 10
400.8687451186782
 20
261.1554302616507
 10
399.6588440293714
 20
261.13517706067427
 10
398.44961078132417
 20
261.0879282865334
 10
397.2415793378975
 20
261.01370480295657
 10
396.0352831317694
 20
260.91253938494464
 10
394.83125482938584
 20
260.7844767042983
 10
393.6300260957503
 20
260.6295733098922
 10
392.4321273596557
 20
260.4478976027046
 10
391.23808757946153
 20
260.2395298056134
 10
390.04843400952126
 20
260.004561927972
 10
388.8636919673612
 20
259.7430977249806
 10
387.68438460171535
 20
259.45525265187075
 10
386.5110326615175
 20
259.14115381292345
 10
385.34415426595325
 20
258.8009399053438
 10
384.18426467567315
 20
258.434761158016
 10
383.03187606526797
 20
258.0427792651665
 10
381.88749729710696
 20
257.62516731496436
 10
380.7516336966387
 20
257.1821097130906
 10
379.62478682925325
 20
256.7138021013097
 10
378.50745427880514
 20
256.2204512710795
 10
377.4001294278945
 20
255.70227507223834
 10
376.30330124000307
 20
255.1595023168083
 10
375.21745404358154
 20
254.59237267795854
 10
374.14306731818414
 20
254.0011365841722
 10
373.08061548274344
 20
253.38605510866432
 10
372.0305676860809
 20
252.74739985409929
 10
370.9933875997433
 20
252.08545283265858
 10
369.96953321325907
 20
251.40050634151228
 10
368.9594566319025
 20
250.6928628337489
 10
367.96360387705727
 20
249.9628347848205
 10
366.98241468926534
 20
249.2107445545623
 10
366.0163223340505
 20
248.43692424484783
 10
365.06575341060034
 20
247.6417155529419
 10
364.1311276633916
 20
246.8254696206168
 10
363.21285779684365
 20
245.988546879098
 10
362.31134929307916
 20
245.13131688990788
 10
361.42700023287483
 20
244.25415818167758
 10
360.5602011198802
 20
243.35745808299964
 10
359.71133470818233
 20
242.4416125513945
 10
358.88077583329186
 20
241.50702599846687
 10
358.0688912466269
 20
240.55411111132875
 10
357.2760394535654
 20
239.5832886703687
 10
356.50257055513947
 20
238.5949873634469
 10
355.7488260934406
 20
237.58964359659862
 10
355.01513890080435
 20
236.56770130132975
 10
354.30183295284075
 20
235.52961173858898
 10
353.6092232253762
 20
234.4758332995039
 10
352.93761555536844
 20
233.40683130296804
 10
352.2873065058581
 20
232.3230777901695
 10
351.65858323501453
 20
231.22505131615057
 10
351.05172336933475
 20
230.11323673849154
 10
350.46699488105173
 20
228.988125003211
 10
349.90465596980505
 20
227.85021292797802
 10
349.3649549486274
 20
226.70000298273158
 10
348.8481301342967
 20
225.53800306780371
 10
348.35440974210155
 20
224.36472628964526
 10
347.8840117850685
 20
223.18069073425232
 10
347.437143977693
 20
221.98641923839423
 10
347.014003644219
 20
220.78243915874341
 10
346.61477763150594
 20
219.56928213900963
 10
346.2396422265222
 20
218.34748387518104
 10
345.88876307850234
 20
217.11758387897592
 10
345.56229512580035
 20
215.8801252396095
 10
345.26038252747367
 20
214.63565438398106
 10
344.9831585996266
 20
213.38472083538713
 10
344.7307457565415
 20
212.1278769708676
 10
344.5032554566242
 20
210.86567777729135
 10
344.3007881531869
 20
209.59868060628997
 10
344.1234332500912
 20
208.32744492814675
 10
343.9712690622695
 20
207.0525320847504
 10
343.8443627811437
 20
205.7745050417223
 10
343.74277044495483
 20
204.49392813982675
 10
343.66653691401865
 20
203.2113668457739
 10
343.6156958509164
 20
201.9273875025256
 10
343.5902697056303
 20
200.64255707921436
 10
343.5902697056303
 20
199.35744292078564
 10
343.6156958509164
 20
198.0726124974744
 10
343.66653691401865
 20
196.78863315422612
 10
343.74277044495483
 20
195.50607186017325
 10
343.8443627811437
 20
194.2254949582777
 10
343.9712690622695
 20
192.9474679152496
 10
344.1234332500912
 20
191.67255507185325
 10
344.3007881531869
 20
190.40131939371005
 10
344.5032554566242
 20
189.13432222270868
 10
344.7307457565415
 20
187.87212302913244
 10
344.9831585996266
 20
186.61527916461287
 10
345.26038252747367
 20
185.36434561601894
 10
345.56229512580035
 20
184.1198747603905
 10
345.88876307850234
 20
182.88241612102408
 10
346.2396422265222
 20
181.652516124819
 10
346.6147776315059
 20
180.4307178609904
 10
347.014003644219
 20
179.2175608412566
 10
347.437143977693
 20
178.0135807616058
 10
347.8840117850685
 20
176.81930926574768
 10
348.35440974210155
 20
175.63527371035474
 10
348.8481301342967
 20
174.46199693219629
 10
349.3649549486274
 20
173.29999701726842
 10
349.90465596980505
 20
172.14978707202198
 10
350.46699488105173
 20
171.01187499678903
 10
351.05172336933475
 20
169.88676326150846
 10
351.65858323501453
 20
168.7749486838494
 10
352.28730650585817
 20
167.6769222098305
 10
352.93761555536844
 20
166.59316869703198
 10
353.6092232253762
 20
165.52416670049612
 10
354.30183295284075
 20
164.47038826141102
 10
355.01513890080435
 20
163.43229869867028
 10
355.7488260934406
 20
162.4103564034014
 10
356.50257055513947
 20
161.40501263655312
 10
357.2760394535654
 20
160.41671132963128
 10
358.06889124662695
 20
159.44588888867122
 10
358.88077583329186
 20
158.49297400153313
 10
359.7113347081823
 20
157.5583874486055
 10
360.5602011198802
 20
156.64254191700036
 10
361.42700023287483
 20
155.74584181832245
 10
362.31134929307916
 20
154.86868311009212
 10
363.21285779684365
 20
154.011453120902
 10
364.1311276633916
 20
153.1745303793832
 10
365.0657534106003
 20
152.35828444705814
 10
366.0163223340505
 20
151.5630757551522
 10
366.98241468926534
 20
150.7892554454377
 10
367.96360387705727
 20
150.03716521517953
 10
368.9594566319025
 20
149.3071371662511
 10
369.96953321325907
 20
148.59949365848772
 10
370.9933875997433
 20
147.91454716734142
 10
372.0305676860809
 20
147.25260014590071
 10
373.0806154827435
 20
146.61394489133565
 10
374.14306731818414
 20
145.9988634158278
 10
375.2174540435816
 20
145.40762732204146
 10
376.30330124000307
 20
144.8404976831917
 10
377.4001294278945
 20
144.2977249277617
 10
378.50745427880514
 20
143.77954872892047
 10
379.6247868292532
 20
143.28619789869032
 10
380.7516336966387
 20
142.81789028690937
 10
381.88749729710696
 20
142.37483268503567
 10
383.0318760652679
 20
141.95722073483356
 10
384.18426467567315
 20
141.56523884198404
 10
385.34415426595325
 20
141.1990600946562
 10
386.5110326615175
 20
140.85884618707655
 10
387.68438460171535
 20
140.54474734812928
 10
388.8636919673612
 20
140.25690227501937
 10
390.04843400952126
 20
139.99543807202798
 10
391.23808757946153
 20
139.7604701943866
 10
392.4321273596557
 20
139.5521023972954
 10
393.63002609575034
 20
139.37042669010782
 10
394.8312548293858
 20
139.21552329570173
 10
396.0352831317694
 20
139.08746061505536
 10
397.2415793378975
 20
138.98629519704343
 10
398.44961078132417
 20
138.9120717134666
 10
399.6588440293714
 20
138.8648229393257
 10
400.86874511867813
 20
138.84456973834935
 10
402.0787797909835
 20
138.85132105378088
 10
403.2884137290401
 20
138.88507390442953
 10
404.4971127925534
 20
138.94581338598655
 10
405.70434325404324
 20
139.03351267760684
 10
406.9095720345228
 20
139.14813305375202
 10
408.1122669388911
 20
139.2896239012907
 10
409.3118968909357
 20
139.4579227418477
 10
410.5079321678407
 20
139.65295525939288
 10
411.6998446340976
 20
139.8746353330569
 10
412.8871079747149
 20
140.12286507515967
 10
414.0691979276245
 20
140.39753487443514
 10
415.2455925151801
 20
140.69852344443217
 10
416.41577227464876
 20
141.02569787707145
 10
417.57922048759065
 20
141.37891370133386
 10
418.7354234080274
 20
141.7580149470548
 10
419.88387048929764
 20
142.16283421379632
 10
421.02405460950047
 20
142.59319274476638
 10
422.15547229542585
 20
143.04890050575275
 10
423.27762394487445
 20
143.5297562690369
 10
424.39001404726775
 20
144.0355477022504
 10
425.4921514024515
 20
144.56605146213494
 10
426.58354933759614
 20
145.12103329316446
 10
427.66372592209757
 20
145.70024813098576
 10
428.7322041803844
 20
146.30344021063198
 10
429.78851230253645
 20
146.93034317946132
 10
430.8321838526235
 20
147.58068021477084
 10
431.8627579746694
 20
148.2541641460334
 10
432.87977959615387
 20
148.95049758170435
 10
433.88279962895905
 20
149.66937304054107
 10
434.8713751676747
 20
150.4104730873781
 10
435.84506968517246
 20
151.1734704732976
 10
436.8034532253639
 20
151.9580282801332
 10
437.74610259305746
 20
152.76380006924356
 10
438.6726015408289
 20
153.59043003449003
 10
439.5825409528249
 20
154.43755315935056
 10
440.47551902541704
 20
155.30479537810072
 10
441.3511414446267
 20
156.1917737409905
 10
442.20902156024346
 20
157.0980965833444
 10
443.04878055655854
 20
158.02336369850917
 10
443.87004761963925
 20
158.96716651457413
 10
444.67246010107027
 20
159.92908827478487
 10
445.45566367808857
 20
160.90870422157127
 10
446.21931251004264
 20
161.9055817841085
 10
446.96306939110593
 20
162.91928076932825
 10
447.68660589917727
 20
163.94935355629542
 10
448.3896025409031
 20
164.995345293865
 10
449.0717488927567
 20
166.05679410153155
 10
449.73274373811216
 20
167.13323127338262
 10
450.37229520025363
 20
168.22418148506608
 10
450.99012087125953
 20
169.32916300367992
 10
451.58594793670596
 20
170.447687900492
 10
452.15951329613415
 20
171.57926226639574
 10
452.7105636792278
 20
172.72338643000617
 10
453.2388557576505
 20
173.87955517830113
 10
453.7441562524924
 20
175.04725797970875
 10
454.22624203727986
 20
176.22597920954422
 10
454.6849002365015
 20
177.41519837769476
 10
455.11992831960833
 20
178.6143903584536
 10
455.5311341904454
 20
179.82302562240065
 10
455.91833627207603
 20
181.04057047022786
 10
456.28136358696116
 20
182.26648726840565
 10
456.6200558324582
 20
183.500234686587
 10
456.9342634516061
 20
184.74126793664337
 10
457.2238476991656
 20
185.98903901322808
 10
457.488680702885
 20
187.2429969357599
 10
457.7286455199653
 20
188.5025879917206
 10
457.9436361886985
 20
189.7672559811588
 10
458.1335577752576
 20
191.0364424622922
 10
458.29832641561643
 20
192.30958699809983
 10
458.43786935258186
 20
193.58612740379507
 10
458.5521249679212
 20
194.865499995071
 10
458.6410428095711
 20
196.147139837007
 10
458.70458361391593
 20
197.43048099352853
 10
458.7427193231252
 20
198.7149567773084
 10
458.75543309754323
 20
199.99999999999997
  0
LINE
  5
9A
330
17
100
AcDbEntity
  8
Layer
 62
7
100
AcDbLine
 10
24.693072832288863
 20
200.00000000000006
 30
0.0
 11
768.268760946733
 21
199.99999999999994
 31
0.0
  0
LINE
  5
9B
330
17
100
AcDbEntity
  8
Layer
 62
7
100
AcDbLine
 10
171.30821045517771
 20
200.00000000000003
 30
0.0
 11
183.30821045517771
 21
200.00000000000003
 31
0.0
  0
LWPOLYLINE
  5
9C
330
17
100
AcDbEntity
  8
Layer
100
AcDbPolyline
 90
5
 70
0
 10
177.30821045517771
 20
205.00000000000003
 10
182.30821045517771
 20
200.00000000000003
 10
177.30821045517771
 20
195.00000000000003
 10
172.30821045517771
 20
200.00000000000003
 10
177.30821045517771
 20
205.00000000000003
  0
LINE
  5
9D
330
17
100
AcDbEntity
  8
Layer
 62
7
100
AcDbLine
 10
390.4809168895109
 20
200.0
 30
0.0
 11
402.4809168895109
 21
200.0
 31
0.0
  0
LWPOLYLINE
  5
9E
330
17
100
AcDbEntity
  8
Layer
100
AcDbPolyline
 90
5
 70
0
 10
396.4809168895109
 20
205.0
 10
401.4809168895109
 20
200.0
 10
396.4809168895109
 20
195.0
 10
391.4809168895109
 20
200.0
 10
396.4809168895109
 20
205.0
  0
LINE
  5
9F
330
17
100
AcDbEntity
  8
Layer
 62
7
100
AcDbLine
 10
609.6536233238443
 20
199.99999999999997
 30
0.0
 11
621.6536233238443
 21
199.99999999999997
 31
0.0
  0
LWPOLYLINE
  5
A0
330
17
100
AcDbEntity
  8
Layer
100
AcDbPolyline
 90
5
 70
0
 10
615.6536233238443
 20
204.99999999999997
 10
620.6536233238443
 20
199.99999999999997
 10
615.6536233238443
 20
194.99999999999997
 10
610.6536233238443
 20
199.99999999999997
 10
615.6536233238443
 20
204.99999999999997
  0
LINE
  5
A1
330
17
100
AcDbEntity
  8
Layer
 62
7
100
AcDbLine
 10
9.186020182429218
 20
176.4038800884194
 30
0.0
 11
1034.242409533712
 21
110.00831477477912
 31
0.0
  0
LINE
  5
A2
330
17
100
AcDbEntity
  8
Layer
 62
7
100
AcDbLine
 10
212.1016895032018
 20
163.2605050355848
 30
0.0
 11
224.07659550025286
 21
162.4848592647652
 31
0.0
  0
LWPOLYLINE
  5
A3
330
17
100
AcDbEntity
  8
Layer
100
AcDbPolyline
 90
5
 70
0
 10
218.41232823956884
 20
167.86222631561293
 10
223.07868666716527
 20
162.5494964123335
 10
217.76595676388584
 20
157.88313798473706
 10
213.0995983362894
 20
163.1958678880165
 10
218.41232823956884
 20
167.86222631561293
  0
LINE
  5
A4
330
17
100
AcDbEntity
  8
Layer
 62
7
100
AcDbLine
 10
465.1225831334878
 20
146.8716844367717
 30
0.0
 11
477.0974891305389
 21
146.0960386659521
 31
0.0
  0
LWPOLYLINE
  5
A5
330
17
100
AcDbEntity
  8
Layer
100
AcDbPolyline
 90
5
 70
0
 10
471.43322186985483
 20
151.47340571679982
 10
476.0995802974513
 20
146.16067581352038
 10
470.7868503941719
 20
141.49431738592395
 10
466.1204919665754
 20
146.80704728920338
 10
471.43322186985483
 20
151.47340571679982
  0
LINE
  5
A6
330
17
100
AcDbEntity
  8
Layer
100
AcDbLine
 10
401.17126213592235
 20
261.15627419354837
 30
0.0
 11
401.17126213592235
 21
262.15627419354837
 31
0.0
  0
LINE
  5
A7
330
17
100
AcDbEntity
  8
Layer
100
AcDbLine
 10
401.17126213592235
 20
138.8437258064516
 30
0.0
 11
401.17126213592235
 21
137.8437258064516
 31
0.0
  0
LINE
  5
A8
330
17
100
AcDbEntity
  8
Layer
100
AcDbLine
 10
458.75543309754323
 20
200.0
 30
0.0
 11
459.75543309754323
 21
200.0
 31
0.0
  0
LINE
  5
A9
330
17
100
AcDbEntity
  8
Layer
100
AcDbLine
 10
343.58709117430146
 20
200.0
 30
0.0
 11
342.58709117430146
 21
200.0
 31
0.0
  0
LINE
  5
AA
330
17
100
AcDbEntity
  8
Layer
 62
7
100
AcDbLine
 10
251.17126213592235
 20
129.83342850817638
 30
0.0
 11
251.17126213592235
 21
268.73143894491864
 31
0.0
  0
LINE
  5
AB
330
17
100
AcDbEntity
  8
Layer
 62
7
100
AcDbLine
 10
251.17126213592235
 20
174.39773216103617
 30
0.0
 11
251.17126213592235
 21
186.39773216103617
 31
0.0
  0
LWPOLYLINE
  5
AC
330
17
100
AcDbEntity
  8
Layer
100
AcDbPolyline
 90
5
 70
0
 10
246.17126213592235
 20
180.39773216103617
 10
251.17126213592235
 20
185.39773216103617
 10
256.17126213592235
 20
180.39773216103617
 10
251.17126213592235
 20
175.39773216103617
 10
246.17126213592235
 20
180.39773216103617
  0
LINE
  5
AD
330
17
100
AcDbEntity
  8
Layer
 62
7
100
AcDbLine
 10
251.17126213592235
 20
212.16713529205884
 30
0.0
 11
251.17126213592235
 21
224.16713529205884
 31
0.0
  0
LWPOLYLINE
  5
AE
330
17
100
AcDbEntity
  8
Layer
100
AcDbPolyline
 90
5
 70
0
 10
246.17126213592235
 20
218.16713529205884
 10
251.17126213592235
 20
223.16713529205884
 10
256.17126213592235
 20
218.16713529205884
 10
251.17126213592235
 20
213.16713529205884
 10
246.17126213592235
 20
218.16713529205884
  0
LINE
  5
AF
330
17
100
AcDbEntity
  8
Layer
 62
7
100
AcDbLine
 10
701.1712621359223
 20
125.47804322398922
 30
0.0
 11
701.1712621359223
 21
220.4037861905304
 31
0.0
  0
LINE
  5
B0
330
17
100
AcDbEntity
  8
Layer
 62
7
100
AcDbLine
 10
701.1712621359223
 20
154.65205326227863
 30
0.0
 11
701.1712621359223
 21
166.65205326227863
 31
0.0
  0
LWPOLYLINE
  5
B1
330
17
100
AcDbEntity
  8
Layer
100
AcDbPolyline
 90
5
 70
0
 10
696.1712621359223
 20
160.65205326227863
 10
701.1712621359223
 20
165.65205326227863
 10
706.1712621359223
 20
160.65205326227863
 10
701.1712621359223
 20
155.65205326227863
 10
696.1712621359223
 20
160.65205326227863
  0
LINE
  5
B2
330
17
100
AcDbEntity
  8
Layer
 62
7
100
AcDbLine
 10
701.1712621359223
 20
179.22977615224102
 30
0.0
 11
701.1712621359223
 21
191.22977615224102
 31
0.0
  0
LWPOLYLINE
  5
B3
330
17
100
AcDbEntity
  8
Layer
100
AcDbPolyline
 90
5
 70
0
 10
696.1712621359223
 20
185.22977615224102
 10
701.1712621359223
 20
190.22977615224102
 10
706.1712621359223
 20
185.22977615224102
 10
701.1712621359223
 20
180.22977615224102
 10
696.1712621359223
 20
185.22977615224102
  0
LWPOLYLINE
  5
B4
330
17
100
AcDbEntity
  8
NumLabel
 62
1
100
AcDbPolyline
 90
6
 70
0
 10
298.2314563106797
 20
158.53009708737864
 10
303.2314563106797
 20
158.53009708737864
 10
303.2314563106797
 20
153.53009708737864
 10
298.2314563106797
 20
153.53009708737864
 10
298.2314563106797
 20
148.53009708737864
 10
303.2314563106797
 20
148.53009708737864
  0
LWPOLYLINE
  5
B5
330
17
100
AcDbEntity
  8
NumLabel
 62
1
100
AcDbPolyline
 90
2
 70
0
 10
308.2314563106797
 20
158.53009708737864
 10
308.2314563106797
 20
148.53009708737864
  0
ENDSEC
  0
SECTION
  2
OBJECTS
  0
DICTIONARY
  5
A
330
0
100
AcDbDictionary
280
0
281
1
  3
ACAD_COLOR
350
B
  3
ACAD_GROUP
350
C
  3
ACAD_LAYOUT
350
D
  3
ACAD_MATERIAL
350
E
  3
ACAD_MLEADERSTYLE
350
F
  3
ACAD_MLINESTYLE
350
10
  3
ACAD_PLOTSETTINGS
350
11
  3
ACAD_PLOTSTYLENAME
350
12
  3
ACAD_SCALELIST
350
14
  3
ACAD_TABLESTYLE
350
15
  3
ACAD_VISUALSTYLE
350
16
  3
EZDXF_META
350
2D
  0
DICTIONARY
  5
B
330
A
100
AcDbDictionary
280
0
281
1
  0
DICTIONARY
  5
C
330
A
100
AcDbDictionary
280
0
281
1
  0
DICTIONARY
  5
D
330
A
100
AcDbDictionary
280
0
281
1
  3
Model
350
1A
  3
Layout1
350
1E
  0
DICTIONARY
  5
E
330
A
100
AcDbDictionary
280
0
281
1
  3
ByBlock
350
1F
  3
ByLayer
350
20
  3
Global
350
21
  0
DICTIONARY
  5
F
330
A
100
AcDbDictionary
280
0
281
1
  3
Standard
350
2C
  0
DICTIONARY
  5
10
330
A
100
AcDbDictionary
280
0
281
1
  3
Standard
350
22
  0
DICTIONARY
  5
11
330
A
100
AcDbDictionary
280
0
281
1
  0
ACDBDICTIONARYWDFLT
  5
12
330
A
100
AcDbDictionary
280
0
281
1
  3
Normal
350
13
100
AcDbDictionaryWithDefault
340
13
  0
ACDBPLACEHOLDER
  5
13
330
12
  0
DICTIONARY
  5
14
330
A
100
AcDbDictionary
280
0
281
1
  0
DICTIONARY
  5
15
330
A
100
AcDbDictionary
280
0
281
1
  0
DICTIONARY
  5
16
330
A
100
AcDbDictionary
280
0
281
1
  3
2dWireframe
350
5A
  3
Basic
350
5B
  3
Brighten
350
5C
  3
ColorChange
350
5D
  3
Conceptual
350
5E
  3
Dim
350
5F
  3
EdgeColorOff
350
60
  3
Facepattern
350
61
  3
Flat
350
62
  3
FlatWithEdges
350
63
  3
Gouraud
350
64
  3
GouraudWithEdges
350
65
  3
Hidden
350
66
  3
JitterOff
350
67
  3
Linepattern
350
68
  3
Modeling
350
69
  3
OverhangOff
350
6A
  3
Realistic
350
6B
  3
Shaded
350
6C
  3
Shaded with edges
350
6D
  3
Shades of Gray
350
6E
  3
Sketchy
350
6F
  3
Thicken
350
70
  3
Wireframe
350
71
  3
X-Ray
350
72
  0
LAYOUT
  5
1A
330
D
100
AcDbPlotSettings
  1

  2
Adobe PDF
  4
A3
  6

 40
7.5
 41
20.0
 42
7.5
 43
20.0
 44
420.0
 45
297.0
 46
0.0
 47
0.0
 48
0.0
 49
0.0
140
0.0
141
0.0
142
1.0
143
1.0
 70
1024
 72
1
 73
0
 74
5
  7

 75
16
 76
0
 77
2
 78
300
147
1.0
148
0.0
149
0.0
100
AcDbLayout
  1
Model
 70
1
 71
0
 10
0.0
 20
0.0
 11
420.0
 21
297.0
 12
0.0
 22
0.0
 32
0.0
 14
1e+20
 24
1e+20
 34
1e+20
 15
-1e+20
 25
-1e+20
 35
-1e+20
146
0.0
 13
0.0
 23
0.0
 33
0.0
 16
1.0
 26
0.0
 36
0.0
 17
0.0
 27
1.0
 37
0.0
 76
1
330
17
  0
LAYOUT
  5
1E
330
D
100
AcDbPlotSettings
  1

  2
Adobe PDF
  4
A3
  6

 40
7.5
 41
20.0
 42
7.5
 43
20.0
 44
420.0
 45
297.0
 46
0.0
 47
0.0
 48
0.0
 49
0.0
140
0.0
141
0.0
142
1.0
143
1.0
 70
0
 72
1
 73
0
 74
5
  7

 75
16
 76
0
 77
2
 78
300
147
1.0
148
0.0
149
0.0
100
AcDbLayout
  1
Layout1
 70
1
 71
1
 10
0.0
 20
0.0
 11
420.0
 21
297.0
 12
0.0
 22
0.0
 32
0.0
 14
1e+20
 24
1e+20
 34
1e+20
 15
-1e+20
 25
-1e+20
 35
-1e+20
146
0.0
 13
0.0
 23
0.0
 33
0.0
 16
1.0
 26
0.0
 36
0.0
 17
0.0
 27
1.0
 37
0.0
 76
1
330
1B
  0
MATERIAL
  5
1F
102
{ACAD_REACTORS
330
E
102
}
330
E
100
AcDbMaterial
  1
ByBlock
  2

 70
0
 40
1.0
 71
1
 41
1.0
 91
-1023410177
 42
1.0
 72
1
  3

 73
1
 74
1
 75
1
 44
0.5
 73
0
 45
1.0
 46
1.0
 77
1
  4

 78
1
 79
1
170
1
 48
1.0
171
1
  6

172
1
173
1
174
1
140
1.0
141
1.0
175
1
  7

176
1
177
1
178
1
143
1.0
179
1
  8

270
1
271
1
272
1
145
1.0
146
1.0
273
1
  9

274
1
275
1
276
1
 42
1.0
 72
1
  3

 73
1
 74
1
 75
1
 94
63
  0
MATERIAL
  5
20
102
{ACAD_REACTORS
330
E
102
}
330
E
100
AcDbMaterial
  1
ByLayer
  2

 70
0
 40
1.0
 71
1
 41
1.0
 91
-1023410177
 42
1.0
 72
1
  3

 73
1
 74
1
 75
1
 44
0.5
 73
0
 45
1.0
 46
1.0
 77
1
  4

 78
1
 79
1
170
1
 48
1.0
171
1
  6

172
1
173
1
174
1
140
1.0
141
1.0
175
1
  7

176
1
177
1
178
1
143
1.0
179
1
  8

270
1
271
1
272
1
145
1.0
146
1.0
273
1
  9

274
1
275
1
276
1
 42
1.0
 72
1
  3

 73
1
 74
1
 75
1
 94
63
  0
MATERIAL
  5
21
102
{ACAD_REACTORS
330
E
102
}
330
E
100
AcDbMaterial
  1
Global
  2

 70
0
 40
1.0
 71
1
 41
1.0
 91
-1023410177
 42
1.0
 72
1
  3

 73
1
 74
1
 75
1
 44
0.5
 73
0
 45
1.0
 46
1.0
 77
1
  4

 78
1
 79
1
170
1
 48
1.0
171
1
  6

172
1
173
1
174
1
140
1.0
141
1.0
175
1
  7

176
1
177
1
178
1
143
1.0
179
1
  8

270
1
271
1
272
1
145
1.0
146
1.0
273
1
  9

274
1
275
1
276
1
 42
1.0
 72
1
  3

 73
1
 74
1
 75
1
 94
63
  0
MLINESTYLE
  5
22
102
{ACAD_REACTORS
330
10
102
}
330
10
100
AcDbMlineStyle
  2
Standard
 70
0
  3

 62
256
 51
90.0
 52
90.0
 71
2
 49
0.5
 62
256
  6
BYLAYER
 49
-0.5
 62
256
  6
BYLAYER
  0
MLEADERSTYLE
  5
2C
102
{ACAD_REACTORS
330
F
102
}
330
F
100
AcDbMLeaderStyle
179
2
170
2
171
1
172
0
 90
2
 40
0.0
 41
0.0
173
1
 91
-1056964608
 92
-2
290
1
 42
2.0
291
1
 43
8.0
  3
Standard
 44
4.0
300

342
29
174
1
175
1
176
0
178
1
 93
-1056964608
 45
4.0
292
0
297
0
 46
4.0
 94
-1056964608
 47
1.0
 49
1.0
140
1.0
294
1
141
0.0
177
0
142
1.0
295
0
296
0
143
3.75
271
0
272
9
273
9
  0
DICTIONARY
  5
2D
330
A
100
AcDbDictionary
281
1
  3
CREATED_BY_EZDXF
350
2E
  3
WRITTEN_BY_EZDXF
350
B8
  0
DICTIONARYVAR
  5
2E
330
2D
100
DictionaryVariables
280
0
  1
1.3.0 @ 2026-01-06T17:07:09.238833+00:00
  0
VISUALSTYLE
  5
5A
102
{ACAD_REACTORS
330
16
102
}
330
16
100
AcDbVisualStyle
  2
2dWireframe
 70
4
 90
0
 40
0.6
 62
7
290
0
291
0
  0
VISUALSTYLE
  5
5B
102
{ACAD_REACTORS
330
16
102
}
330
16
100
AcDbVisualStyle
  2
Basic
 70
7
 90
1
 40
0.6
 62
7
290
0
291
1
  0
VISUALSTYLE
  5
5C
102
{ACAD_REACTORS
330
16
102
}
330
16
100
AcDbVisualStyle
  2
Brighten
 70
12
 90
2
 40
0.6
 62
7
290
0
291
1
  0
VISUALSTYLE
  5
5D
102
{ACAD_REACTORS
330
16
102
}
330
16
100
AcDbVisualStyle
  2
ColorChange
 70
16
 90
2
 40
0.6
 62
8
290
0
291
1
  0
VISUALSTYLE
  5
5E
102
{ACAD_REACTORS
330
16
102
}
330
16
100
AcDbVisualStyle
  2
Conceptual
 70
9
 90
3
 40
0.6
 62
7
290
0
291
0
  0
VISUALSTYLE
  5
5F
102
{ACAD_REACTORS
330
16
102
}
330
16
100
AcDbVisualStyle
  2
Dim
 70
11
 90
2
 40
0.6
 62
7
290
0
291
1
  0
VISUALSTYLE
  5
60
102
{ACAD_REACTORS
330
16
102
}
330
16
100
AcDbVisualStyle
  2
EdgeColorOff
 70
22
 90
2
 40
0.6
 62
7
290
0
291
1
  0
VISUALSTYLE
  5
61
102
{ACAD_REACTORS
330
16
102
}
330
16
100
AcDbVisualStyle
  2
Facepattern
 70
15
 90
2
 40
0.6
 62
7
290
0
291
1
  0
VISUALSTYLE
  5
62
102
{ACAD_REACTORS
330
16
102
}
330
16
100
AcDbVisualStyle
  2
Flat
 70
0
 90
2
 40
0.6
 62
7
290
0
291
1
  0
VISUALSTYLE
  5
63
102
{ACAD_REACTORS
330
16
102
}
330
16
100
AcDbVisualStyle
  2
FlatWithEdges
 70
1
 90
2
 40
0.6
 62
7
290
0
291
1
  0
VISUALSTYLE
  5
64
102
{ACAD_REACTORS
330
16
102
}
330
16
100
AcDbVisualStyle
  2
Gouraud
 70
2
 90
2
 40
0.6
 62
7
290
0
291
1
  0
VISUALSTYLE
  5
65
102
{ACAD_REACTORS
330
16
102
}
330
16
100
AcDbVisualStyle
  2
GouraudWithEdges
 70
3
 90
2
 40
0.6
 62
7
290
0
291
1
  0
VISUALSTYLE
  5
66
102
{ACAD_REACTORS
330
16
102
}
330
16
100
AcDbVisualStyle
  2
Hidden
 70
6
 90
1
 40
0.6
 62
7
290
0
291
0
  0
VISUALSTYLE
  5
67
102
{ACAD_REACTORS
330
16
102
}
330
16
100
AcDbVisualStyle
  2
JitterOff
 70
20
 90
2
 40
0.6
 62
7
290
0
291
1
  0
VISUALSTYLE
  5
68
102
{ACAD_REACTORS
330
16
102
}
330
16
100
AcDbVisualStyle
  2
Linepattern
 70
14
 90
2
 40
0.6
 62
7
290
0
291
1
  0
VISUALSTYLE
  5
69
102
{ACAD_REACTORS
330
16
102
}
330
16
100
AcDbVisualStyle
  2
Modeling
 70
10
 90
2
 40
0.6
 62
7
290
0
291
0
  0
VISUALSTYLE
  5
6A
102
{ACAD_REACTORS
330
16
102
}
330
16
100
AcDbVisualStyle
  2
OverhangOff
 70
21
 90
2
 40
0.6
 62
7
290
0
291
1
  0
VISUALSTYLE
  5
6B
102
{ACAD_REACTORS
330
16
102
}
330
16
100
AcDbVisualStyle
  2
Realistic
 70
8
 90
2
 40
0.6
 62
7
290
0
291
0
  0
VISUALSTYLE
  5
6C
102
{ACAD_REACTORS
330
16
102
}
330
16
100
AcDbVisualStyle
  2
Shaded
 70
27
 90
2
 40
0.6
 62
7
290
0
291
0
  0
VISUALSTYLE
  5
6D
102
{ACAD_REACTORS
330
16
102
}
330
16
100
AcDbVisualStyle
  2
Shaded with edges
 70
26
 90
2
 40
0.6
 62
7
290
0
291
0
  0
VISUALSTYLE
  5
6E
102
{ACAD_REACTORS
330
16
102
}
330
16
100
AcDbVisualStyle
  2
Shades of Gray
 70
23
 90
2
 40
0.6
 62
7
290
0
291
0
  0
VISUALSTYLE
  5
6F
102
{ACAD_REACTORS
330
16
102
}
330
16
100
AcDbVisualStyle
  2
Sketchy
 70
24
 90
1
 40
0.6
 62
7
290
0
291
0
  0
VISUALSTYLE
  5
70
102
{ACAD_REACTORS
330
16
102
}
330
16
100
AcDbVisualStyle
  2
Thicken
 70
13
 90
2
 40
0.6
 62
7
290
0
291
1
  0
VISUALSTYLE
  5
71
102
{ACAD_REACTORS
330
16
102
}
330
16
100
AcDbVisualStyle
  2
Wireframe
 70
5
 90
0
 40
0.6
 62
7
290
0
291
0
  0
VISUALSTYLE
  5
72
102
{ACAD_REACTORS
330
16
102
}
330
16
100
AcDbVisualStyle
  2
X-Ray
 70
25
 90
2
 40
0.5
 62
7
290
0
291
0
  0
DICTIONARYVAR
  5
B8
330
2D
100
DictionaryVariables
280
0
  1
1.3.0 @ 2026-01-06T17:07:09.454566+00:00
  0
ENDSEC
  0
EOF
