  0
SECTION
  2
HEADER
  9
$ACADVER
  1
AC1021
  9
$ACADMAINTVER
 70
25
  9
$DWGCODEPAGE
  3
ANSI_1252
  9
$LASTSAVEDBY
  1
ezdxf
  9
$INSBASE
 10
0.0
 20
0.0
 30
0.0
  9
$EXTMIN
 10
1e+20
 20
1e+20
 30
1e+20
  9
$EXTMAX
 10
-1e+20
 20
-1e+20
 30
-1e+20
  9
$LIMMIN
 10
0.0
 20
0.0
  9
$LIMMAX
 10
420.0
 20
297.0
  9
$ORTHOMODE
 70
0
  9
$REGENMODE
 70
1
  9
$FILLMODE
 70
1
  9
$QTEXTMODE
 70
0
  9
$MIRRTEXT
 70
1
  9
$LTSCALE
 40
1.0
  9
$ATTMODE
 70
1
  9
$TEXTSIZE
 40
2.5
  9
$TRACEWID
 40
1.0
  9
$TEXTSTYLE
  7
OpenSans
  9
$CLAYER
  8
0
  9
$CELTYPE
  6
ByLayer
  9
$CECOLOR
 62
256
  9
$CELTSCALE
 40
1.0
  9
$DISPSILH
 70
0
  9
$DIMSCALE
 40
1.0
  9
$DIMASZ
 40
0.175
  9
$DIMEXO
 40
0.125
  9
$DIMDLI
 40
3.75
  9
$DIMRND
 40
0.0
  9
$DIMDLE
 40
0.0
  9
$DIMEXE
 40
0.375
  9
$DIMTP
 40
0.0
  9
$DIMTM
 40
0.0
  9
$DIMTXT
 40
0.25
  9
$DIMCEN
 40
2.5
  9
$DIMTSZ
 40
0.0
  9
$DIMTOL
 70
0
  9
$DIMLIM
 70
0
  9
$DIMTIH
 70
0
  9
$DIMTOH
 70
0
  9
$DIMSE1
 70
0
  9
$DIMSE2
 70
0
  9
$DIMTAD
 70
1
  9
$DIMZIN
 70
12
  9
$DIMBLK
  1
ARCHTICK
  9
$DIMASO
 70
1
  9
$DIMSHO
 70
1
  9
$DIMPOST
  1

  9
$DIMAPOST
  1

  9
$DIMALT
 70
0
  9
$DIMALTD
 70
3
  9
$DIMALTF
 40
0.03937007874
  9
$DIMLFAC
 40
100.0
  9
$DIMTOFL
 70
1
  9
$DIMTVP
 40
0.0
  9
$DIMTIX
 70
0
  9
$DIMSOXD
 70
0
  9
$DIMSAH
 70
0
  9
$DIMBLK1
  1

  9
$DIMBLK2
  1

  9
$DIMSTYLE
  2
EZDXF
  9
$DIMCLRD
 70
0
  9
$DIMCLRE
 70
0
  9
$DIMCLRT
 70
0
  9
$DIMTFAC
 40
0.5
  9
$DIMGAP
 40
0.1
  9
$DIMJUST
 70
0
  9
$DIMSD1
 70
0
  9
$DIMSD2
 70
0
  9
$DIMTOLJ
 70
0
  9
$DIMTZIN
 70
8
  9
$DIMALTZ
 70
0
  9
$DIMALTTZ
 70
0
  9
$DIMUPT
 70
1
  9
$DIMDEC
 70
2
  9
$DIMTDEC
 70
2
  9
$DIMALTU
 70
2
  9
$DIMALTTD
 70
3
  9
$DIMTXSTY
  7
OpenSansCondensed-Light
  9
$DIMAUNIT
 70
0
  9
$DIMADEC
 70
2
  9
$DIMALTRND
 40
0.0
  9
$DIMAZIN
 70
3
  9
$DIMDSEP
 70
46
  9
$DIMATFIT
 70
3
  9
$DIMFRAC
 70
0
  9
$DIMLDRBLK
  1

  9
$DIMLUNIT
 70
2
  9
$DIMLWD
 70
-2
  9
$DIMLWE
 70
-2
  9
$DIMTMOVE
 70
2
  9
$DIMFXL
 40
1.0
  9
$DIMFXLON
 70
0
  9
$DIMJOGANG
 40
0.785398163397
  9
$DIMTFILL
 70
0
  9
$DIMTFILLCLR
 70
0
  9
$DIMARCSYM
 70
0
  9
$DIMLTYPE
  6

  9
$DIMLTEX1
  6

  9
$DIMLTEX2
  6

  9
$LUNITS
 70
2
  9
$LUPREC
 70
4
  9
$SKETCHINC
 40
1.0
  9
$FILLETRAD
 40
10.0
  9
$AUNITS
 70
0
  9
$AUPREC
 70
2
  9
$MENU
  1
.
  9
$ELEVATION
 40
0.0
  9
$PELEVATION
 40
0.0
  9
$THICKNESS
 40
0.0
  9
$LIMCHECK
 70
0
  9
$CHAMFERA
 40
0.0
  9
$CHAMFERB
 40
0.0
  9
$CHAMFERC
 40
0.0
  9
$CHAMFERD
 40
0.0
  9
$SKPOLY
 70
0
  9
$TDCREATE
 40
2461048.0884722224
  9
$TDUCREATE
 40
2458532.153996898
  9
$TDUPDATE
 40
2461048.0884722224
  9
$TDUUPDATE
 40
2458532.1544311
  9
$TDINDWG
 40
0.0
  9
$TDUSRTIMER
 40
0.0
  9
$USRTIMER
 70
1
  9
$ANGBASE
 50
0.0
  9
$ANGDIR
 70
0
  9
$PDMODE
 70
0
  9
$PDSIZE
 40
0.0
  9
$PLINEWID
 40
0.0
  9
$SPLFRAME
 70
0
  9
$SPLINETYPE
 70
6
  9
$SPLINESEGS
 70
8
  9
$HANDSEED
  5
B3
  9
$SURFTAB1
 70
6
  9
$SURFTAB2
 70
6
  9
$SURFTYPE
 70
6
  9
$SURFU
 70
6
  9
$SURFV
 70
6
  9
$UCSBASE
  2

  9
$UCSNAME
  2

  9
$UCSORG
 10
0.0
 20
0.0
 30
0.0
  9
$UCSXDIR
 10
1.0
 20
0.0
 30
0.0
  9
$UCSYDIR
 10
0.0
 20
1.0
 30
0.0
  9
$UCSORTHOREF
  2

  9
$UCSORTHOVIEW
 70
0
  9
$UCSORGTOP
 10
0.0
 20
0.0
 30
0.0
  9
$UCSORGBOTTOM
 10
0.0
 20
0.0
 30
0.0
  9
$UCSORGLEFT
 10
0.0
 20
0.0
 30
0.0
  9
$UCSORGRIGHT
 10
0.0
 20
0.0
 30
0.0
  9
$UCSORGFRONT
 10
0.0
 20
0.0
 30
0.0
  9
$UCSORGBACK
 10
0.0
 20
0.0
 30
0.0
  9
$PUCSBASE
  2

  9
$PUCSNAME
  2

  9
$PUCSORG
 10
0.0
 20
0.0
 30
0.0
  9
$PUCSXDIR
 10
1.0
 20
0.0
 30
0.0
  9
$PUCSYDIR
 10
0.0
 20
1.0
 30
0.0
  9
$PUCSORTHOREF
  2

  9
$PUCSORTHOVIEW
 70
0
  9
$PUCSORGTOP
 10
0.0
 20
0.0
 30
0.0
  9
$PUCSORGBOTTOM
 10
0.0
 20
0.0
 30
0.0
  9
$PUCSORGLEFT
 10
0.0
 20
0.0
 30
0.0
  9
$PUCSORGRIGHT
 10
0.0
 20
0.0
 30
0.0
  9
$PUCSORGFRONT
 10
0.0
 20
0.0
 30
0.0
  9
$PUCSORGBACK
 10
0.0
 20
0.0
 30
0.0
  9
$USERI1
 70
0
  9
$USERI2
 70
0
  9
$USERI3
 70
0
  9
$USERI4
 70
0
  9
$USERI5
 70
0
  9
$USERR1
 40
0.0
  9
$USERR2
 40
0.0
  9
$USERR3
 40
0.0
  9
$USERR4
 40
0.0
  9
$USERR5
 40
0.0
  9
$WORLDVIEW
 70
1
  9
$SHADEDGE
 70
3
  9
$SHADEDIF
 70
70
  9
$TILEMODE
 70
1
  9
$MAXACTVP
 70
64
  9
$PINSBASE
 10
0.0
 20
0.0
 30
0.0
  9
$PLIMCHECK
 70
0
  9
$PEXTMIN
 10
1e+20
 20
1e+20
 30
1e+20
  9
$PEXTMAX
 10
-1e+20
 20
-1e+20
 30
-1e+20
  9
$PLIMMIN
 10
0.0
 20
0.0
  9
$PLIMMAX
 10
420.0
 20
297.0
  9
$UNITMODE
 70
0
  9
$VISRETAIN
 70
1
  9
$PLINEGEN
 70
0
  9
$PSLTSCALE
 70
1
  9
$TREEDEPTH
 70
3020
  9
$CMLSTYLE
  2
Standard
  9
$CMLJUST
 70
0
  9
$CMLSCALE
 40
20.0
  9
$PROXYGRAPHICS
 70
1
  9
$MEASUREMENT
 70
1
  9
$CELWEIGHT
370
-1
  9
$ENDCAPS
280
0
  9
$JOINSTYLE
280
0
  9
$LWDISPLAY
290
0
  9
$INSUNITS
 70
6
  9
$HYPERLINKBASE
  1

  9
$STYLESHEET
  1

  9
$XEDIT
290
1
  9
$CEPSNTYPE
380
0
  9
$PSTYLEMODE
290
1
  9
$FINGERPRINTGUID
  2
{096AFD58-042F-482F-8E6B-0718667F76BA}
  9
$VERSIONGUID
  2
{D074C937-D9A3-491C-A5D9-596C62BE75CC}
  9
$EXTNAMES
290
1
  9
$PSVPSCALE
 40
0.0
  9
$OLESTARTUP
290
0
  9
$SORTENTS
280
127
  9
$INDEXCTL
280
0
  9
$HIDETEXT
280
1
  9
$XCLIPFRAME
290
1
  9
$HALOGAP
280
0
  9
$OBSCOLOR
 70
257
  9
$OBSLTYPE
280
0
  9
$INTERSECTIONDISPLAY
280
0
  9
$INTERSECTIONCOLOR
 70
257
  9
$DIMASSOC
280
2
  9
$PROJECTNAME
  1

  9
$CAMERADISPLAY
290
0
  9
$LENSLENGTH
 40
50.0
  9
$CAMERAHEIGHT
 40
0.0
  9
$STEPSPERSEC
 40
24.0
  9
$STEPSIZE
 40
100.0
  9
$3DDWFPREC
 40
2.0
  9
$PSOLWIDTH
 40
0.005
  9
$PSOLHEIGHT
 40
0.08
  9
$LOFTANG1
 40
1.570796326795
  9
$LOFTANG2
 40
1.570796326795
  9
$LOFTMAG1
 40
0.0
  9
$LOFTMAG2
 40
0.0
  9
$LOFTPARAM
 70
7
  9
$LOFTNORMALS
280
1
  9
$LATITUDE
 40
37.795
  9
$LONGITUDE
 40
-122.394
  9
$NORTHDIRECTION
 40
0.0
  9
$TIMEZONE
 70
-8000
  9
$LIGHTGLYPHDISPLAY
280
1
  9
$TILEMODELIGHTSYNCH
280
1
  9
$CMATERIAL
347
20
  9
$SOLIDHIST
280
0
  9
$SHOWHIST
280
1
  9
$DWFFRAME
280
2
  9
$DGNFRAME
280
2
  9
$REALWORLDSCALE
290
1
  9
$INTERFERECOLOR
 62
256
  9
$CSHADOW
280
0
  9
$SHADOWPLANELOCATION
 40
0.0
  0
ENDSEC
  0
SECTION
  2
CLASSES
  0
CLASS
  1
ACDBDICTIONARYWDFLT
  2
AcDbDictionaryWithDefault
  3
ObjectDBX Classes
 90
0
 91
0
280
0
281
0
  0
CLASS
  1
SUN
  2
AcDbSun
  3
SCENEOE
 90
1153
 91
0
280
0
281
0
  0
CLASS
  1
VISUALSTYLE
  2
AcDbVisualStyle
  3
ObjectDBX Classes
 90
4095
 91
0
280
0
281
0
  0
CLASS
  1
MATERIAL
  2
AcDbMaterial
  3
ObjectDBX Classes
 90
1153
 91
0
280
0
281
0
  0
CLASS
  1
SCALE
  2
AcDbScale
  3
ObjectDBX Classes
 90
1153
 91
0
280
0
281
0
  0
CLASS
  1
TABLESTYLE
  2
AcDbTableStyle
  3
ObjectDBX Classes
 90
4095
 91
0
280
0
281
0
  0
CLASS
  1
MLEADERSTYLE
  2
AcDbMLeaderStyle
  3
ACDB_MLEADERSTYLE_CLASS
 90
4095
 91
0
280
0
281
0
  0
CLASS
  1
DICTIONARYVAR
  2
AcDbDictionaryVar
  3
ObjectDBX Classes
 90
0
 91
0
280
0
281
0
  0
CLASS
  1
CELLSTYLEMAP
  2
AcDbCellStyleMap
  3
ObjectDBX Classes
 90
1152
 91
0
280
0
281
0
  0
CLASS
  1
MENTALRAYRENDERSETTINGS
  2
AcDbMentalRayRenderSettings
  3
SCENEOE
 90
1024
 91
0
280
0
281
0
  0
CLASS
  1
ACDBDETAILVIEWSTYLE
  2
AcDbDetailViewStyle
  3
ObjectDBX Classes
 90
1025
 91
0
280
0
281
0
  0
CLASS
  1
ACDBSECTIONVIEWSTYLE
  2
AcDbSectionViewStyle
  3
ObjectDBX Classes
 90
1025
 91
0
280
0
281
0
  0
CLASS
  1
RASTERVARIABLES
  2
AcDbRasterVariables
  3
ISM
 90
0
 91
0
280
0
281
0
  0
CLASS
  1
ACDBPLACEHOLDER
  2
AcDbPlaceHolder
  3
ObjectDBX Classes
 90
0
 91
0
280
0
281
0
  0
CLASS
  1
LAYOUT
  2
AcDbLayout
  3
ObjectDBX Classes
 90
0
 91
0
280
0
281
0
  0
ENDSEC
  0
SECTION
  2
TABLES
  0
TABLE
  2
VPORT
  5
8
330
0
100
AcDbSymbolTable
 70
1
  0
VPORT
  5
23
330
8
100
AcDbSymbolTableRecord
100
AcDbViewportTableRecord
  2
*Active
 70
0
 10
0.0
 20
0.0
 11
1.0
 21
1.0
 12
0.0
 22
0.0
 13
0.0
 23
0.0
 14
0.5
 24
0.5
 15
0.5
 25
0.5
 16
0.0
 26
0.0
 36
1.0
 17
0.0
 27
0.0
 37
0.0
 40
1000.0
 41
1.34
 42
50.0
 43
0.0
 44
0.0
 50
0.0
 51
0.0
 71
0
 72
1000
 73
1
 74
3
 75
0
 76
0
 77
0
 78
0
281
0
 65
0
146
0.0
  0
ENDTAB
  0
TABLE
  2
LTYPE
  5
2
330
0
100
AcDbSymbolTable
 70
21
  0
LTYPE
  5
24
330
2
100
AcDbSymbolTableRecord
100
AcDbLinetypeTableRecord
  2
ByBlock
 70
0
  3

 72
65
 73
0
 40
0.0
  0
LTYPE
  5
25
330
2
100
AcDbSymbolTableRecord
100
AcDbLinetypeTableRecord
  2
ByLayer
 70
0
  3

 72
65
 73
0
 40
0.0
  0
LTYPE
  5
26
330
2
100
AcDbSymbolTableRecord
100
AcDbLinetypeTableRecord
  2
Continuous
 70
0
  3

 72
65
 73
0
 40
0.0
  0
LTYPE
  5
2F
330
2
100
AcDbSymbolTableRecord
100
AcDbLinetypeTableRecord
  2
CENTER
 70
0
  3
Center ____ _ ____ _ ____ _ ____ _ ____ _ ____
 72
65
 73
4
 40
5.08
 49
3.175
 74
0
 49
-0.635
 74
0
 49
0.635
 74
0
 49
-0.635
 74
0
  0
LTYPE
  5
30
330
2
100
AcDbSymbolTableRecord
100
AcDbLinetypeTableRecord
  2
CENTERX2
 70
0
  3
Center (2x) ________  __  ________  __  ________
 72
65
 73
4
 40
8.89
 49
6.35
 74
0
 49
-0.635
 74
0
 49
1.27
 74
0
 49
-0.635
 74
0
  0
LTYPE
  5
31
330
2
100
AcDbSymbolTableRecord
100
AcDbLinetypeTableRecord
  2
CENTER2
 70
0
  3
Center (.5x) ____ _ ____ _ ____ _ ____ _ ____
 72
65
 73
4
 40
2.54
 49
1.587
 74
0
 49
-0.318
 74
0
 49
0.318
 74
0
 49
-0.318
 74
0
  0
LTYPE
  5
32
330
2
100
AcDbSymbolTableRecord
100
AcDbLinetypeTableRecord
  2
DASHED
 70
0
  3
Dashed __ __ __ __ __ __ __ __ __ __ __ __ __ _
 72
65
 73
2
 40
1.524
 49
1.27
 74
0
 49
-0.254
 74
0
  0
LTYPE
  5
33
330
2
100
AcDbSymbolTableRecord
100
AcDbLinetypeTableRecord
  2
DASHEDX2
 70
0
  3
Dashed (2x) ____  ____  ____  ____  ____  ____
 72
65
 73
2
 40
3.048
 49
2.54
 74
0
 49
-0.508
 74
0
  0
LTYPE
  5
34
330
2
100
AcDbSymbolTableRecord
100
AcDbLinetypeTableRecord
  2
DASHED2
 70
0
  3
Dashed (.5x) _ _ _ _ _ _ _ _ _ _ _ _ _ _
 72
65
 73
2
 40
0.762
 49
0.635
 74
0
 49
-0.127
 74
0
  0
LTYPE
  5
35
330
2
100
AcDbSymbolTableRecord
100
AcDbLinetypeTableRecord
  2
PHANTOM
 70
0
  3
Phantom ______  __  __  ______  __  __  ______
 72
65
 73
6
 40
6.35
 49
3.175
 74
0
 49
-0.635
 74
0
 49
0.635
 74
0
 49
-0.635
 74
0
 49
0.635
 74
0
 49
-0.635
 74
0
  0
LTYPE
  5
36
330
2
100
AcDbSymbolTableRecord
100
AcDbLinetypeTableRecord
  2
PHANTOMX2
 70
0
  3
Phantom (2x)____________    ____    ____    ____________
 72
65
 73
6
 40
10.795
 49
6.35
 74
0
 49
-0.635
 74
0
 49
1.27
 74
0
 49
-0.635
 74
0
 49
1.27
 74
0
 49
-0.635
 74
0
  0
LTYPE
  5
37
330
2
100
AcDbSymbolTableRecord
100
AcDbLinetypeTableRecord
  2
PHANTOM2
 70
0
  3
Phantom (.5x) ___ _ _ ___ _ _ ___ _ _ ___ _ _ ___
 72
65
 73
6
 40
3.175
 49
1.587
 74
0
 49
-0.318
 74
0
 49
0.318
 74
0
 49
-0.318
 74
0
 49
0.318
 74
0
 49
-0.318
 74
0
  0
LTYPE
  5
38
330
2
100
AcDbSymbolTableRecord
100
AcDbLinetypeTableRecord
  2
DASHDOT
 70
0
  3
Dash dot __ . __ . __ . __ . __ . __ . __ . __
 72
65
 73
4
 40
3.556
 49
2.54
 74
0
 49
-0.508
 74
0
 49
0.0
 74
0
 49
-0.508
 74
0
  0
LTYPE
  5
39
330
2
100
AcDbSymbolTableRecord
100
AcDbLinetypeTableRecord
  2
DASHDOTX2
 70
0
  3
Dash dot (2x) ____  .  ____  .  ____  .  ____
 72
65
 73
4
 40
6.096
 49
5.08
 74
0
 49
-0.508
 74
0
 49
0.0
 74
0
 49
-0.508
 74
0
  0
LTYPE
  5
3A
330
2
100
AcDbSymbolTableRecord
100
AcDbLinetypeTableRecord
  2
DASHDOT2
 70
0
  3
Dash dot (.5x) _ . _ . _ . _ . _ . _ . _ . _
 72
65
 73
4
 40
1.778
 49
1.27
 74
0
 49
-0.254
 74
0
 49
0.0
 74
0
 49
-0.254
 74
0
  0
LTYPE
  5
3B
330
2
100
AcDbSymbolTableRecord
100
AcDbLinetypeTableRecord
  2
DOT
 70
0
  3
Dot .  .  .  .  .  .  .  .  .  .  .  .  .  .  .  .
 72
65
 73
2
 40
0.508
 49
0.0
 74
0
 49
-0.508
 74
0
  0
LTYPE
  5
3C
330
2
100
AcDbSymbolTableRecord
100
AcDbLinetypeTableRecord
  2
DOTX2
 70
0
  3
Dot (2x) .    .    .    .    .    .    .    . 
 72
65
 73
2
 40
1.016
 49
0.0
 74
0
 49
-1.016
 74
0
  0
LTYPE
  5
3D
330
2
100
AcDbSymbolTableRecord
100
AcDbLinetypeTableRecord
  2
DOT2
 70
0
  3
Dot (.5) . . . . . . . . . . . . . . . . . . . 
 72
65
 73
2
 40
0.254
 49
0.0
 74
0
 49
-0.254
 74
0
  0
LTYPE
  5
3E
330
2
100
AcDbSymbolTableRecord
100
AcDbLinetypeTableRecord
  2
DIVIDE
 70
0
  3
Divide __ . . __ . . __ . . __ . . __ . . __
 72
65
 73
6
 40
4.064
 49
2.54
 74
0
 49
-0.508
 74
0
 49
0.0
 74
0
 49
-0.508
 74
0
 49
0.0
 74
0
 49
-0.508
 74
0
  0
LTYPE
  5
3F
330
2
100
AcDbSymbolTableRecord
100
AcDbLinetypeTableRecord
  2
DIVIDEX2
 70
0
  3
Divide (2x) ____  . .  ____  . .  ____  . .  ____
 72
65
 73
6
 40
6.604
 49
5.08
 74
0
 49
-0.508
 74
0
 49
0.0
 74
0
 49
-0.508
 74
0
 49
0.0
 74
0
 49
-0.508
 74
0
  0
LTYPE
  5
40
330
2
100
AcDbSymbolTableRecord
100
AcDbLinetypeTableRecord
  2
DIVIDE2
 70
0
  3
Divide(.5x) _ . _ . _ . _ . _ . _ . _ . _
 72
65
 73
6
 40
2.032
 49
1.27
 74
0
 49
-0.254
 74
0
 49
0.0
 74
0
 49
-0.254
 74
0
 49
0.0
 74
0
 49
-0.254
 74
0
  0
ENDTAB
  0
TABLE
  2
LAYER
  5
1
330
0
100
AcDbSymbolTable
 70
4
  0
LAYER
  5
27
330
1
100
AcDbSymbolTableRecord
100
AcDbLayerTableRecord
  2
0
 70
0
 62
7
  6
Continuous
370
-3
390
13
347
21
  0
LAYER
  5
28
330
1
100
AcDbSymbolTableRecord
100
AcDbLayerTableRecord
  2
Defpoints
 70
0
 62
7
  6
Continuous
290
0
370
-3
390
13
347
21
  0
LAYER
  5
8A
330
1
100
AcDbSymbolTableRecord
100
AcDbLayerTableRecord
  2
Layer
 70
0
 62
1
  6
Continuous
370
50
390
13
347
21
  0
LAYER
  5
8B
330
1
100
AcDbSymbolTableRecord
100
AcDbLayerTableRecord
  2
NumLabel
 70
0
 62
1
  6
Continuous
370
15
390
13
347
21
  0
ENDTAB
  0
TABLE
  2
STYLE
  5
5
330
0
100
AcDbSymbolTable
 70
26
  0
STYLE
  5
29
330
5
100
AcDbSymbolTableRecord
100
AcDbTextStyleTableRecord
  2
Standard
 70
0
 40
0.0
 41
1.0
 50
0.0
 71
0
 42
2.5
  3
txt
  4

  0
STYLE
  5
41
330
5
100
AcDbSymbolTableRecord
100
AcDbTextStyleTableRecord
  2
OpenSans-Light
 70
0
 40
0.0
 41
1.0
 50
0.0
 71
0
 42
2.5
  3
OpenSans-Light.ttf
  4

  0
STYLE
  5
42
330
5
100
AcDbSymbolTableRecord
100
AcDbTextStyleTableRecord
  2
OpenSans-Light-Italic
 70
0
 40
0.0
 41
1.0
 50
0.0
 71
0
 42
2.5
  3
OpenSans-LightItalic.ttf
  4

  0
STYLE
  5
43
330
5
100
AcDbSymbolTableRecord
100
AcDbTextStyleTableRecord
  2
OpenSans
 70
0
 40
0.0
 41
1.0
 50
0.0
 71
0
 42
2.5
  3
OpenSans-Regular.ttf
  4

  0
STYLE
  5
44
330
5
100
AcDbSymbolTableRecord
100
AcDbTextStyleTableRecord
  2
OpenSans-Italic
 70
0
 40
0.0
 41
1.0
 50
0.0
 71
0
 42
2.5
  3
OpenSans-Italic.ttf
  4

  0
STYLE
  5
45
330
5
100
AcDbSymbolTableRecord
100
AcDbTextStyleTableRecord
  2
OpenSans-SemiBold
 70
0
 40
0.0
 41
1.0
 50
0.0
 71
0
 42
2.5
  3
OpenSans-SemiBold.ttf
  4

  0
STYLE
  5
46
330
5
100
AcDbSymbolTableRecord
100
AcDbTextStyleTableRecord
  2
OpenSans-SemiBoldItalic
 70
0
 40
0.0
 41
1.0
 50
0.0
 71
0
 42
2.5
  3
OpenSans-SemiBoldItalic.ttf
  4

  0
STYLE
  5
47
330
5
100
AcDbSymbolTableRecord
100
AcDbTextStyleTableRecord
  2
OpenSans-Bold
 70
0
 40
0.0
 41
1.0
 50
0.0
 71
0
 42
2.5
  3
OpenSans-Bold.ttf
  4

  0
STYLE
  5
48
330
5
100
AcDbSymbolTableRecord
100
AcDbTextStyleTableRecord
  2
OpenSans-BoldItalic
 70
0
 40
0.0
 41
1.0
 50
0.0
 71
0
 42
2.5
  3
OpenSans-BoldItalic.ttf
  4

  0
STYLE
  5
49
330
5
100
AcDbSymbolTableRecord
100
AcDbTextStyleTableRecord
  2
OpenSans-ExtraBold
 70
0
 40
0.0
 41
1.0
 50
0.0
 71
0
 42
2.5
  3
OpenSans-ExtraBold.ttf
  4

  0
STYLE
  5
4A
330
5
100
AcDbSymbolTableRecord
100
AcDbTextStyleTableRecord
  2
OpenSans-ExtraBoldItalic
 70
0
 40
0.0
 41
1.0
 50
0.0
 71
0
 42
2.5
  3
OpenSans-ExtraBoldItalic.ttf
  4

  0
STYLE
  5
4B
330
5
100
AcDbSymbolTableRecord
100
AcDbTextStyleTableRecord
  2
OpenSansCondensed-Bold
 70
0
 40
0.0
 41
1.0
 50
0.0
 71
0
 42
2.5
  3
OpenSansCondensed-Bold.ttf
  4

  0
STYLE
  5
4C
330
5
100
AcDbSymbolTableRecord
100
AcDbTextStyleTableRecord
  2
OpenSansCondensed-Light
 70
0
 40
0.0
 41
1.0
 50
0.0
 71
0
 42
2.5
  3
OpenSansCondensed-Light.ttf
  4

  0
STYLE
  5
4D
330
5
100
AcDbSymbolTableRecord
100
AcDbTextStyleTableRecord
  2
OpenSansCondensed-Italic
 70
0
 40
0.0
 41
1.0
 50
0.0
 71
0
 42
2.5
  3
OpenSansCondensed-LightItalic.ttf
  4

  0
STYLE
  5
4E
330
5
100
AcDbSymbolTableRecord
100
AcDbTextStyleTableRecord
  2
LiberationSans
 70
0
 40
0.0
 41
1.0
 50
0.0
 71
0
 42
2.5
  3
LiberationSans-Regular.ttf
  4

  0
STYLE
  5
4F
330
5
100
AcDbSymbolTableRecord
100
AcDbTextStyleTableRecord
  2
LiberationSans-Bold
 70
0
 40
0.0
 41
1.0
 50
0.0
 71
0
 42
2.5
  3
LiberationSans-Bold.ttf
  4

  0
STYLE
  5
50
330
5
100
AcDbSymbolTableRecord
100
AcDbTextStyleTableRecord
  2
LiberationSans-BoldItalic
 70
0
 40
0.0
 41
1.0
 50
0.0
 71
0
 42
2.5
  3
LiberationSans-BoldItalic.ttf
  4

  0
STYLE
  5
51
330
5
100
AcDbSymbolTableRecord
100
AcDbTextStyleTableRecord
  2
LiberationSans-Italic
 70
0
 40
0.0
 41
1.0
 50
0.0
 71
0
 42
2.5
  3
LiberationSans-Italic.ttf
  4

  0
STYLE
  5
52
330
5
100
AcDbSymbolTableRecord
100
AcDbTextStyleTableRecord
  2
LiberationSerif
 70
0
 40
0.0
 41
1.0
 50
0.0
 71
0
 42
2.5
  3
LiberationSerif-Regular.ttf
  4

  0
STYLE
  5
53
330
5
100
AcDbSymbolTableRecord
100
AcDbTextStyleTableRecord
  2
LiberationSerif-Bold
 70
0
 40
0.0
 41
1.0
 50
0.0
 71
0
 42
2.5
  3
LiberationSerif-Bold.ttf
  4

  0
STYLE
  5
54
330
5
100
AcDbSymbolTableRecord
100
AcDbTextStyleTableRecord
  2
LiberationSerif-BoldItalic
 70
0
 40
0.0
 41
1.0
 50
0.0
 71
0
 42
2.5
  3
LiberationSerif-BoldItalic.ttf
  4

  0
STYLE
  5
55
330
5
100
AcDbSymbolTableRecord
100
AcDbTextStyleTableRecord
  2
LiberationSerif-Italic
 70
0
 40
0.0
 41
1.0
 50
0.0
 71
0
 42
2.5
  3
LiberationSerif-Italic.ttf
  4

  0
STYLE
  5
56
330
5
100
AcDbSymbolTableRecord
100
AcDbTextStyleTableRecord
  2
LiberationMono
 70
0
 40
0.0
 41
1.0
 50
0.0
 71
0
 42
2.5
  3
LiberationMono-Regular.ttf
  4

  0
STYLE
  5
57
330
5
100
AcDbSymbolTableRecord
100
AcDbTextStyleTableRecord
  2
LiberationMono-Bold
 70
0
 40
0.0
 41
1.0
 50
0.0
 71
0
 42
2.5
  3
LiberationMono-Bold.ttf
  4

  0
STYLE
  5
58
330
5
100
AcDbSymbolTableRecord
100
AcDbTextStyleTableRecord
  2
LiberationMono-BoldItalic
 70
0
 40
0.0
 41
1.0
 50
0.0
 71
0
 42
2.5
  3
LiberationMono-BoldItalic.ttf
  4

  0
STYLE
  5
59
330
5
100
AcDbSymbolTableRecord
100
AcDbTextStyleTableRecord
  2
LiberationMono-Italic
 70
0
 40
0.0
 41
1.0
 50
0.0
 71
0
 42
2.5
  3
LiberationMono-Italic.ttf
  4

  0
ENDTAB
  0
TABLE
  2
VIEW
  5
7
330
0
100
AcDbSymbolTable
 70
0
  0
ENDTAB
  0
TABLE
  2
UCS
  5
6
330
0
100
AcDbSymbolTable
 70
0
  0
ENDTAB
  0
TABLE
  2
APPID
  5
3
330
0
100
AcDbSymbolTable
 70
3
  0
APPID
  5
2A
330
3
100
AcDbSymbolTableRecord
100
AcDbRegAppTableRecord
  2
ACAD
 70
0
  0
APPID
  5
B0
330
3
100
AcDbSymbolTableRecord
100
AcDbRegAppTableRecord
  2
HATCHBACKGROUNDCOLOR
 70
0
  0
APPID
  5
B1
330
3
100
AcDbSymbolTableRecord
100
AcDbRegAppTableRecord
  2
EZDXF
 70
0
  0
ENDTAB
  0
TABLE
  2
DIMSTYLE
  5
4
330
0
100
AcDbSymbolTable
 70
12
100
AcDbDimStyleTable
  0
DIMSTYLE
105
2B
330
4
100
AcDbSymbolTableRecord
100
AcDbDimStyleTableRecord
  2
Standard
 70
0
 40
1.0
 41
2.5
 42
0.625
 43
3.75
 44
1.25
 45
0.0
 46
0.0
 47
0.0
 48
0.0
 49
2.5
140
2.5
141
2.5
142
0.0
143
0.03937007874
144
1.0
145
0.0
146
1.0
147
0.625
148
0.0
 69
0
 70
0
 71
0
 72
0
 73
0
 74
0
 75
0
 76
0
 77
1
 78
8
 79
3
170
0
171
3
172
1
173
0
174
0
175
0
176
0
177
0
178
0
179
2
271
2
272
2
273
2
274
3
275
0
276
0
277
2
278
44
279
0
280
0
281
0
282
0
283
0
284
8
285
0
286
0
288
0
289
3
290
0
371
-2
372
-2
  0
DIMSTYLE
105
73
330
4
100
AcDbSymbolTableRecord
100
AcDbDimStyleTableRecord
  2
EZDXF
 70
0
 40
1.0
 41
0.175
 42
0.125
 43
3.75
 44
0.375
 45
0.0
 46
0.0
 47
0.0
 48
0.0
 49
2.5
140
0.25
141
2.5
142
0.0
143
0.03937007874
144
100.0
145
0.0
146
0.5
147
0.1
148
0.0
 69
0
 70
0
 71
0
 72
0
 73
0
 74
0
 75
0
 76
0
 77
1
 78
12
 79
3
170
0
171
3
172
1
173
0
174
0
175
0
176
0
177
0
178
0
179
2
271
2
272
2
273
2
274
3
275
0
276
0
277
2
278
46
279
2
280
0
281
0
282
0
283
0
284
8
285
0
286
0
288
1
289
3
290
0
340
4C
342
74
371
-2
372
-2
  0
DIMSTYLE
105
7C
330
4
100
AcDbSymbolTableRecord
100
AcDbDimStyleTableRecord
  2
EZ_M_100_H25_CM
 70
0
 40
1.0
 41
0.25
 42
0.125
 43
3.75
 44
0.375
 45
0.0
 46
0.0
 47
0.0
 48
0.0
 49
2.5
140
0.25
141
2.5
142
0.125
143
0.03937007874
144
100.0
145
0.0
146
0.5
147
0.1
148
0.0
 69
0
 70
0
 71
0
 72
0
 73
0
 74
0
 75
0
 76
0
 77
1
 78
12
 79
3
170
0
171
3
172
1
173
0
174
0
175
0
176
0
177
0
178
0
179
2
271
2
272
2
273
2
274
3
275
0
276
0
277
2
278
46
279
2
280
0
281
0
282
0
283
0
284
8
285
0
286
0
288
1
289
3
290
0
340
4C
371
-2
372
-2
  0
DIMSTYLE
105
7D
330
4
100
AcDbSymbolTableRecord
100
AcDbDimStyleTableRecord
  2
EZ_M_50_H25_CM
 70
0
 40
1.0
 41
0.125
 42
0.0625
 43
3.75
 44
0.1875
 45
0.0
 46
0.0
 47
0.0
 48
0.0
 49
2.5
140
0.125
141
2.5
142
0.0625
143
0.03937007874
144
100.0
145
0.0
146
0.5
147
0.05
148
0.0
 69
0
 70
0
 71
0
 72
0
 73
0
 74
0
 75
0
 76
0
 77
1
 78
12
 79
3
170
0
171
3
172
1
173
0
174
0
175
0
176
0
177
0
178
0
179
2
271
2
272
2
273
2
274
3
275
0
276
0
277
2
278
46
279
2
280
0
281
0
282
0
283
0
284
8
285
0
286
0
288
1
289
3
290
0
340
4C
371
-2
372
-2
  0
DIMSTYLE
105
7E
330
4
100
AcDbSymbolTableRecord
100
AcDbDimStyleTableRecord
  2
EZ_M_25_H25_CM
 70
0
 40
1.0
 41
0.0625
 42
0.03125
 43
3.75
 44
0.09375
 45
0.0
 46
0.0
 47
0.0
 48
0.0
 49
2.5
140
0.0625
141
2.5
142
0.03125
143
0.03937007874
144
100.0
145
0.0
146
0.5
147
0.025
148
0.0
 69
0
 70
0
 71
0
 72
0
 73
0
 74
0
 75
0
 76
0
 77
1
 78
12
 79
3
170
0
171
3
172
1
173
0
174
0
175
0
176
0
177
0
178
0
179
2
271
2
272
2
273
2
274
3
275
0
276
0
277
2
278
46
279
2
280
0
281
0
282
0
283
0
284
8
285
0
286
0
288
1
289
3
290
0
340
4C
371
-2
372
-2
  0
DIMSTYLE
105
7F
330
4
100
AcDbSymbolTableRecord
100
AcDbDimStyleTableRecord
  2
EZ_M_20_H25_CM
 70
0
 40
1.0
 41
0.05
 42
0.025
 43
3.75
 44
0.07500000000000001
 45
0.0
 46
0.0
 47
0.0
 48
0.0
 49
2.5
140
0.05
141
2.5
142
0.025
143
0.03937007874
144
100.0
145
0.0
146
0.5
147
0.020000000000000004
148
0.0
 69
0
 70
0
 71
0
 72
0
 73
0
 74
0
 75
0
 76
0
 77
1
 78
12
 79
3
170
0
171
3
172
1
173
0
174
0
175
0
176
0
177
0
178
0
179
2
271
2
272
2
273
2
274
3
275
0
276
0
277
2
278
46
279
2
280
0
281
0
282
0
283
0
284
8
285
0
286
0
288
1
289
3
290
0
340
4C
371
-2
372
-2
  0
DIMSTYLE
105
80
330
4
100
AcDbSymbolTableRecord
100
AcDbDimStyleTableRecord
  2
EZ_M_10_H25_CM
 70
0
 40
1.0
 41
0.025
 42
0.0125
 43
3.75
 44
0.037500000000000006
 45
0.0
 46
0.0
 47
0.0
 48
0.0
 49
2.5
140
0.025
141
2.5
142
0.0125
143
0.03937007874
144
100.0
145
0.0
146
0.5
147
0.010000000000000002
148
0.0
 69
0
 70
0
 71
0
 72
0
 73
0
 74
0
 75
0
 76
0
 77
1
 78
12
 79
3
170
0
171
3
172
1
173
0
174
0
175
0
176
0
177
0
178
0
179
2
271
2
272
2
273
2
274
3
275
0
276
0
277
2
278
46
279
2
280
0
281
0
282
0
283
0
284
8
285
0
286
0
288
1
289
3
290
0
340
4C
371
-2
372
-2
  0
DIMSTYLE
105
81
330
4
100
AcDbSymbolTableRecord
100
AcDbDimStyleTableRecord
  2
EZ_M_5_H25_CM
 70
0
 40
1.0
 41
0.0125
 42
0.00625
 43
3.75
 44
0.018750000000000003
 45
0.0
 46
0.0
 47
0.0
 48
0.0
 49
2.5
140
0.0125
141
2.5
142
0.00625
143
0.03937007874
144
100.0
145
0.0
146
0.5
147
0.005000000000000001
148
0.0
 69
0
 70
0
 71
0
 72
0
 73
0
 74
0
 75
0
 76
0
 77
1
 78
12
 79
3
170
0
171
3
172
1
173
0
174
0
175
0
176
0
177
0
178
0
179
2
271
2
272
2
273
2
274
3
275
0
276
0
277
2
278
46
279
2
280
0
281
0
282
0
283
0
284
8
285
0
286
0
288
1
289
3
290
0
340
4C
371
-2
372
-2
  0
DIMSTYLE
105
82
330
4
100
AcDbSymbolTableRecord
100
AcDbDimStyleTableRecord
  2
EZ_M_1_H25_CM
 70
0
 40
1.0
 41
0.0025
 42
0.00125
 43
3.75
 44
0.00375
 45
0.0
 46
0.0
 47
0.0
 48
0.0
 49
2.5
140
0.0025
141
2.5
142
0.00125
143
0.03937007874
144
100.0
145
0.0
146
0.5
147
0.001
148
0.0
 69
0
 70
0
 71
0
 72
0
 73
0
 74
0
 75
0
 76
0
 77
1
 78
12
 79
3
170
0
171
3
172
1
173
0
174
0
175
0
176
0
177
0
178
0
179
2
271
2
272
2
273
2
274
3
275
0
276
0
277
2
278
46
279
2
280
0
281
0
282
0
283
0
284
8
285
0
286
0
288
1
289
3
290
0
340
4C
371
-2
372
-2
  0
DIMSTYLE
105
83
330
4
100
AcDbSymbolTableRecord
100
AcDbDimStyleTableRecord
  2
EZ_RADIUS
 70
0
 40
1.0
 41
0.25
 42
0.125
 43
3.75
 44
0.375
 45
0.0
 46
0.0
 47
0.0
 48
0.0
 49
2.5
140
0.25
141
0.0
142
0.0
143
0.03937007874
144
100.0
145
0.0
146
0.5
147
0.1
148
0.0
 69
0
 70
0
 71
0
 72
0
 73
0
 74
0
 75
0
 76
0
 77
1
 78
12
 79
3
170
0
171
3
172
0
173
0
174
0
175
0
176
0
177
0
178
0
179
2
271
2
272
2
273
2
274
3
275
0
276
0
277
2
278
46
279
1
280
0
281
0
282
0
283
0
284
8
285
0
286
0
288
1
289
3
290
0
340
4C
342
84
371
-2
372
-2
  0
DIMSTYLE
105
88
330
4
100
AcDbSymbolTableRecord
100
AcDbDimStyleTableRecord
  2
EZ_RADIUS_INSIDE
 70
0
 40
1.0
 41
0.25
 42
0.125
 43
3.75
 44
0.375
 45
0.0
 46
0.0
 47
0.0
 48
0.0
 49
2.5
140
0.25
141
0.0
142
0.0
143
0.03937007874
144
100.0
145
0.0
146
0.5
147
0.1
148
0.0
 69
0
 70
0
 71
0
 72
0
 73
0
 74
0
 75
0
 76
0
 77
0
 78
12
 79
3
170
0
171
3
172
0
173
0
174
1
175
0
176
0
177
0
178
0
179
2
271
2
272
2
273
2
274
3
275
0
276
0
277
2
278
46
279
0
280
0
281
0
282
0
283
0
284
8
285
0
286
0
288
1
289
0
290
0
340
4C
342
84
371
-2
372
-2
  0
DIMSTYLE
105
89
330
4
100
AcDbSymbolTableRecord
100
AcDbDimStyleTableRecord
  2
EZ_CURVED
 70
0
 40
1.0
 41
0.25
 42
0.125
 43
3.75
 44
0.375
 45
0.0
 46
0.0
 47
0.0
 48
0.0
 49
2.5
140
0.25
141
2.5
142
0.0
143
0.03937007874
144
100.0
145
0.0
146
0.5
147
0.1
148
0.0
 69
0
 70
0
 71
0
 72
0
 73
0
 74
0
 75
0
 76
0
 77
1
 78
12
 79
2
 90
2
170
0
171
3
172
1
173
0
174
0
175
0
176
0
177
0
178
0
179
2
271
2
272
2
273
2
274
3
275
0
276
0
277
2
278
46
279
2
280
0
281
0
282
0
283
0
284
8
285
0
286
0
288
1
289
3
290
0
340
4C
371
-2
372
-2
  0
ENDTAB
  0
TABLE
  2
BLOCK_RECORD
  5
9
330
0
100
AcDbSymbolTable
 70
5
  0
BLOCK_RECORD
  5
17
330
9
100
AcDbSymbolTableRecord
100
AcDbBlockTableRecord
  2
*Model_Space
340
1A
 70
0
280
1
281
0
  0
BLOCK_RECORD
  5
1B
330
9
100
AcDbSymbolTableRecord
100
AcDbBlockTableRecord
  2
*Paper_Space
340
1E
 70
0
280
1
281
0
  0
BLOCK_RECORD
  5
74
330
9
100
AcDbSymbolTableRecord
100
AcDbBlockTableRecord
  2
_ARCHTICK
340
0
 70
0
280
1
281
0
  0
BLOCK_RECORD
  5
78
330
9
100
AcDbSymbolTableRecord
100
AcDbBlockTableRecord
  2
_CLOSEDFILLED
340
0
 70
0
280
1
281
0
  0
BLOCK_RECORD
  5
84
330
9
100
AcDbSymbolTableRecord
100
AcDbBlockTableRecord
  2
_CLOSEDBLANK
340
0
 70
0
280
1
281
0
  0
ENDTAB
  0
ENDSEC
  0
SECTION
  2
BLOCKS
  0
BLOCK
  5
18
330
17
100
AcDbEntity
  8
0
100
AcDbBlockBegin
  2
*Model_Space
 70
0
 10
0.0
 20
0.0
 30
0.0
  3
*Model_Space
  1

  0
ENDBLK
  5
19
330
17
100
AcDbEntity
  8
0
100
AcDbBlockEnd
  0
BLOCK
  5
1C
330
1B
100
AcDbEntity
  8
0
100
AcDbBlockBegin
  2
*Paper_Space
 70
0
 10
0.0
 20
0.0
 30
0.0
  3
*Paper_Space
  1

  0
ENDBLK
  5
1D
330
1B
100
AcDbEntity
  8
0
100
AcDbBlockEnd
  0
BLOCK
  5
75
330
74
100
AcDbEntity
  8
0
100
AcDbBlockBegin
  2
_ARCHTICK
 70
0
 10
0.0
 20
0.0
 30
0.0
  3
_ARCHTICK
  1

  0
LWPOLYLINE
  5
77
330
74
100
AcDbEntity
  8
0
  6
BYBLOCK
 62
0
100
AcDbPolyline
 90
2
 70
0
 43
0.15
 10
-0.5
 20
-0.5
 10
0.5
 20
0.5
  0
ENDBLK
  5
76
330
74
100
AcDbEntity
  8
0
100
AcDbBlockEnd
  0
BLOCK
  5
79
330
78
100
AcDbEntity
  8
0
100
AcDbBlockBegin
  2
_CLOSEDFILLED
 70
0
 10
0.0
 20
0.0
 30
0.0
  3
_CLOSEDFILLED
  1

  0
SOLID
  5
7B
330
78
100
AcDbEntity
  8
0
  6
BYBLOCK
 62
0
100
AcDbTrace
 10
-1.0
 20
0.16439898372402537
 30
0.0
 11
0.0
 21
0.0
 31
0.0
 12
-1.0
 22
-0.16439898372402537
 32
0.0
 13
-1.0
 23
-0.16439898372402537
 33
0.0
  0
ENDBLK
  5
7A
330
78
100
AcDbEntity
  8
0
100
AcDbBlockEnd
  0
BLOCK
  5
85
330
84
100
AcDbEntity
  8
0
100
AcDbBlockBegin
  2
_CLOSEDBLANK
 70
0
 10
0.0
 20
0.0
 30
0.0
  3
_CLOSEDBLANK
  1

  0
LWPOLYLINE
  5
87
330
84
100
AcDbEntity
  8
0
  6
BYBLOCK
 62
0
100
AcDbPolyline
 90
3
 70
1
 10
-1.0
 20
0.16439898372402537
 10
0.0
 20
0.0
 10
-1.0
 20
-0.16439898372402537
  0
ENDBLK
  5
86
330
84
100
AcDbEntity
  8
0
100
AcDbBlockEnd
  0
ENDSEC
  0
SECTION
  2
ENTITIES
  0
LWPOLYLINE
  5
8C
330
17
100
AcDbEntity
  8
Layer
100
AcDbPolyline
 90
261
 70
1
 10
434.96700711992105
 20
173.01100250535848
 10
433.0079411422854
 20
173.42907402640392
 10
429.8138049446676
 20
174.12401659597884
 10
426.3822764181332
 20
174.8996837395914
 10
422.78969472740596
 20
175.730722313198
 10
419.0982590922131
 20
176.60298641430862
 10
415.35426572849576
 20
177.5039031102877
 10
411.5806906044312
 20
178.43177336709502
 10
407.7888756203448
 20
179.37443170897666
 10
403.99523862801243
 20
180.3336275685466
 10
400.19730237345163
 20
181.31120694204273
 10
396.3958230093177
 20
182.29763390729028
 10
392.6034127385052
 20
183.29404259102253
 10
388.81933971407346
 20
184.30798786279524
 10
385.03832446275203
 20
185.34057046983673
 10
381.2548498805512
 20
186.38093491909183
 10
377.46434350900444
 20
187.42072218396285
 10
373.6746465941924
 20
188.47498057108922
 10
369.8759547237473
 20
189.5419808507918
 10
366.07354618200293
 20
190.61291274852323
 10
362.27386885988454
 20
191.68787604143154
 10
358.48056158633244
 20
192.76950500655303
 10
354.6920916084953
 20
193.85524305751602
 10
350.90636084413734
 20
194.93130947494797
 10
347.1178213609874
 20
196.00699883970617
 10
343.32891204631153
 20
197.0864462840479
 10
339.54067463250954
 20
198.1552579327617
 10
335.7480525962924
 20
199.21521440082594
 10
331.95948338338087
 20
200.2680554976984
 10
329.59232297652864
 20
200.91668015412966
 10
329.32805464595606
 20
199.95223095927471
 10
327.9193486979501
 20
200.3382458349574
 10
324.1372588700044
 20
201.35620022720437
 10
320.3574917963281
 20
202.36031337153253
 10
316.57466110834036
 20
203.3462621504917
 10
312.78819807738853
 20
204.31816351987888
 10
309.00600169001393
 20
205.27360788697453
 10
305.22600718352163
 20
206.20742593680535
 10
301.4398584193511
 20
207.1194572982251
 10
297.6460034350056
 20
208.01276905905976
 10
293.84350437365265
 20
208.8893935341905
 10
290.03963317814595
 20
209.75136624869788
 10
286.2377301177341
 20
210.59366705255448
 10
282.4340044724671
 20
211.41512685612435
 10
278.6281109964949
 20
212.21398770415553
 10
274.8083267439424
 20
212.9938059985971
 10
270.9949164576881
 20
213.75991908181473
 10
267.1848551317521
 20
214.49773158647656
 10
263.3590376251426
 20
215.21269552134987
 10
259.5256696961777
 20
215.91244544359984
 10
255.6952285180945
 20
216.59474617373306
 10
251.86520227299596
 20
217.2540852052325
 10
248.03007110732557
 20
217.89030279573427
 10
244.18655982167238
 20
218.50597096638234
 10
240.33681593601483
 20
219.1039541844912
 10
236.48666998750497
 20
219.68430531368548
 10
232.6368566613335
 20
220.24286905246996
 10
228.776662662078
 20
220.78039922465894
 10
224.91474178808699
 20
221.30276315872877
 10
221.05536841411848
 20
221.8054221978283
 10
217.19561048838304
 20
222.2870533535458
 10
213.33643456171527
 20
222.74676581761221
 10
209.47226878202872
 20
223.18278095329651
 10
205.59698455549682
 20
223.60051703973616
 10
201.730522507638
 20
224.0030265699206
 10
197.8637997247796
 20
224.3783723747955
 10
193.9899587799877
 20
224.73459360736936
 10
190.12276318965186
 20
225.07064036201123
 10
186.254976434997
 20
225.381173975141
 10
182.3826086709003
 20
225.6687043031306
 10
178.51128817187316
 20
225.9349310092641
 10
174.63818899186748
 20
226.1768300701786
 10
170.76150720492038
 20
226.39681239816463
 10
166.8885003459729
 20
226.59645492251923
 10
163.0233103026997
 20
226.77146878189114
 10
159.15866859336137
 20
226.9164574721396
 10
155.28391209931414
 20
227.03642055015342
 10
151.4217778661045
 20
227.1367329268278
 10
147.55728632819512
 20
227.2022895554047
 10
143.68643738905877
 20
227.24670572199497
 10
139.8261854714459
 20
227.26582121455
 10
135.96733321411816
 20
227.25641543730728
 10
132.11868166156495
 20
227.219144253892
 10
128.27029080258905
 20
227.14783011831273
 10
124.42289222266102
 20
227.046734189307
 10
120.57557540758025
 20
226.91504778165418
 10
116.73483281416976
 20
226.75618083860985
 10
112.90254410924175
 20
226.56357985219276
 10
109.07226438376237
 20
226.33683668046194
 10
105.24589128403014
 20
226.0773299651041
 10
101.42410713952286
 20
225.78672395247403
 10
97.62141816224388
 20
225.4661127979309
 10
93.83738486031127
 20
225.10454089025984
 10
90.05756396337289
 20
224.69794304314635
 10
86.29237688824722
 20
224.25517484353247
 10
82.54226861396741
 20
223.76710823414507
 10
78.80426103771764
 20
223.23270698313453
 10
75.072389157458
 20
222.65070268852904
 10
71.3577529943158
 20
222.0309518935796
 10
67.67709837235319
 20
221.3672649681288
 10
64.02674773302743
 20
220.65052740513852
 10
60.410151855008195
 20
219.8778852760456
 10
56.82426015111892
 20
219.04520399262805
 10
53.27955817521172
 20
218.15162770534212
 10
49.765593126814196
 20
217.18930165258078
 10
46.31040529081241
 20
216.1759810669982
 10
42.91878432837143
 20
215.08811833819578
 10
39.59979017432093
 20
213.93777580282864
 10
36.381061004000344
 20
212.72245508819702
 10
33.27493847974827
 20
211.4432598744153
 10
30.32048533367228
 20
210.11591311348133
 10
27.558219373515698
 20
208.7550808851936
 10
25.00834150745635
 20
207.3649047062075
 10
22.716354068102362
 20
206.00476976761956
 10
20.708885570460325
 20
204.69178050678556
 10
18.98191552298249
 20
203.44493281023222
 10
17.513092879661684
 20
202.2785534911209
 10
16.299054685481536
 20
201.23271345770698
 10
15.277256534817099
 20
200.23071188007063
 10
14.429871252982139
 20
199.33785286078054
 10
13.74499557699093
 20
198.5363108193886
 10
13.183774733523734
 20
197.77859984727036
 10
12.718494630997583
 20
197.06166718124834
 10
12.341150278901694
 20
196.4134180526403
 10
12.031712373622184
 20
195.79704204791497
 10
11.770568461927269
 20
195.20041500060802
 10
11.55864009653439
 20
194.67125934793054
 10
11.390273142204023
 20
194.18121986410307
 10
11.25571045599392
 20
193.70824030991633
 10
11.153637069647402
 20
193.28828794436438
 10
11.076892908562712
 20
192.86347936433847
 10
11.019001571943335
 20
192.46581873390917
 10
10.980173575640748
 20
192.1338022603826
 10
11.004454300873675
 20
191.84961747285405
 10
11.02539762730774
 20
191.42657407819524
 10
11.048510556997428
 20
191.04985853521626
 10
11.092400610694256
 20
190.68712588914988
 10
11.176645350641877
 20
190.3046474700039
 10
11.316475273492102
 20
189.88654355132908
 10
11.516520238707272
 20
189.43737408628425
 10
11.782111080301974
 20
188.96099352301198
 10
12.12296978535531
 20
188.45716670288482
 10
12.547835153697378
 20
187.927561694772
 10
13.063834703747006
 20
187.3768670807855
 10
13.68570083724805
 20
186.80799776178458
 10
14.436007975050643
 20
186.22245898819318
 10
15.349290185220866
 20
185.61729357607518
 10
16.458671840752146
 20
184.98510248010155
 10
17.77028056496127
 20
184.32151776944326
 10
19.295196162683226
 20
183.6352276824954
 10
21.0981969870669
 20
182.94341127959402
 10
23.232814612536487
 20
182.2470791998131
 10
25.69472570208947
 20
181.53535635302075
 10
28.43636586475111
 20
180.8218955565676
 10
31.445694187274967
 20
180.15168343910074
 10
34.69193400566246
 20
179.52039182720975
 10
38.083525233933415
 20
178.92971691599215
 10
41.58668074570363
 20
178.40412839902316
 10
45.19860040451378
 20
177.94632115426612
 10
48.921750113051814
 20
177.52962745138584
 10
52.69290870743055
 20
177.1241833658851
 10
56.44320223706754
 20
176.74765743171432
 10
60.210794830379555
 20
176.439553198952
 10
64.05133058050987
 20
176.17468952797987
 10
67.91866447943576
 20
175.91178918050363
 10
71.78309314893495
 20
175.66088948948382
 10
75.64051472185712
 20
175.43440683420536
 10
79.49861216655438
 20
175.2410049755188
 10
83.37682428917051
 20
175.07836631710862
 10
87.27770139499097
 20
174.93448418051193
 10
91.1948356052668
 20
174.8028076613333
 10
93.95804165090367
 20
174.71421333033317
 10
93.92599596713251
 20
173.71472692514718
 10
95.0887845387455
 20
173.67744476678118
 10
99.00132945800118
 20
173.5583323314601
 10
102.90405135649429
 20
173.45735161590335
 10
106.80010395492663
 20
173.35890927266882
 10
110.70464652582126
 20
173.28464371899017
 10
114.62816529168074
 20
173.21898134434926
 10
118.56568173456716
 20
173.15137998793716
 10
122.512303810223
 20
173.0892141261192
 10
126.46370082669132
 20
173.030966588185
 10
130.41489056458698
 20
172.97711374542803
 10
134.36349952884171
 20
172.9292070265825
 10
138.31017186680435
 20
172.88986601363675
 10
142.2593567369638
 20
172.8602275902229
 10
146.21576547056728
 20
172.8380452658988
 10
150.1794984244532
 20
172.81878557176628
 10
154.14669560437076
 20
172.79988581446673
 10
158.11360301480772
 20
172.7803984163884
 10
162.07750622147475
 20
172.76107106192313
 10
166.03737263652155
 20
172.74549404973163
 10
169.99639689165934
 20
172.7362310550776
 10
173.95889005210188
 20
172.73173788324942
 10
177.9235278229251
 20
172.727868128902
 10
181.88754931991787
 20
172.72542578685085
 10
185.8506683228144
 20
172.72575104911175
 10
189.81106428970244
 20
172.729212401562
 10
193.7702128337774
 20
172.73823405647505
 10
197.7317922481636
 20
172.75220173241127
 10
201.69498138930305
 20
172.76714230756065
 10
205.65616128775724
 20
172.7794211708496
 10
209.61389744524774
 20
172.7928496946815
 10
213.56723700474782
 20
172.81213582825433
 10
217.5190586443469
 20
172.83907763219554
 10
221.47333784942157
 20
172.87394749305093
 10
225.43313602182252
 20
172.9133352489783
 10
229.39490264611226
 20
172.95226797264624
 10
233.35604542846409
 20
172.98813671151757
 10
237.3136631874621
 20
173.02408529786442
 10
241.26442364299285
 20
173.0653919680888
 10
245.21239407869166
 20
173.1156224557931
 10
249.16176024688244
 20
173.17276951311587
 10
253.11039466876758
 20
173.2272307557907
 10
257.0592256397678
 20
173.27171183728052
 10
261.0117144993085
 20
173.31089914896177
 10
264.962170910989
 20
173.35235415907417
 10
268.9098274784483
 20
173.4018172901559
 10
272.85999307228053
 20
173.46008279003783
 10
276.81365280938616
 20
173.5209336997579
 10
280.76473154485166
 20
173.57679021444244
 10
284.7130984555337
 20
173.62672359396933
 10
288.65809245094124
 20
173.6809395919646
 10
292.60217353563814
 20
173.74574631817435
 10
296.5523641775761
 20
173.81879388141067
 10
300.5045911880612
 20
173.8907309367888
 10
304.456712728266
 20
173.95546731861086
 10
308.4119321124834
 20
174.0126586829814
 10
312.3713655052841
 20
174.06580642641745
 10
316.33180167374155
 20
174.11685375692866
 10
320.2890408676684
 20
174.16684730427923
 10
324.23963410049964
 20
174.22210410669564
 10
328.1894182530864
 20
174.28047996921356
 10
332.1354533440273
 20
174.32888632165265
 10
336.0860210131108
 20
174.36551967529374
 10
340.04450095992104
 20
174.3978802492696
 10
344.007564607135
 20
174.43097325366764
 10
347.9711138477933
 20
174.46452457205345
 10
351.9306108663568
 20
174.49683903679687
 10
355.8835808350583
 20
174.52341798511293
 10
359.8329557965617
 20
174.54024713664447
 10
363.7830724914791
 20
174.55003551819445
 10
367.73004539692954
 20
174.5548424519119
 10
371.6718156376028
 20
174.5481025548897
 10
375.61528067887764
 20
174.53141567620523
 10
379.55771990757324
 20
174.516457814166
 10
383.49579213608547
 20
174.49950439474293
 10
387.4292079873253
 20
174.4669134760284
 10
391.363950650307
 20
174.42321241760482
 10
395.3000119205827
 20
174.368764944383
 10
399.2337465939472
 20
174.3095493937145
 10
403.1606147634822
 20
174.2367766299201
 10
407.0844113729553
 20
174.151294332468
 10
410.99883827798294
 20
174.0561304650716
 10
414.8928022312667
 20
173.94978552954194
 10
418.75413228580896
 20
173.828143495195
 10
422.55899254818473
 20
173.69655762593953
 10
426.2592982725117
 20
173.55613627385353
 10
429.7878684994705
 20
173.4077814393528
 10
433.06076345808924
 20
173.2533659536266
 10
435.05914090083627
 20
173.14817236889917
  0
LWPOLYLINE
  5
8D
330
17
100
AcDbEntity
  8
Layer
100
AcDbPolyline
 90
5
 70
0
 10
288.31615519518255
 20
206.03620257362226
 10
284.4108447404311
 20
206.90139056013678
 10
285.2760327269457
 20
210.8067010148882
 10
289.1813431816971
 20
209.9415130283737
 10
288.31615519518255
 20
206.03620257362226
  0
LWPOLYLINE
  5
8E
330
17
100
AcDbEntity
  8
Layer
100
AcDbPolyline
 90
5
 70
0
 10
128.4094492688101
 20
223.15010646875973
 10
124.4108307485937
 20
223.04498782254333
 10
124.30571210237733
 20
227.04360634275972
 10
128.30433062259374
 20
227.1487249889761
 10
128.4094492688101
 20
223.15010646875973
  0
LWPOLYLINE
  5
8F
330
17
100
AcDbEntity
  8
Layer
100
AcDbPolyline
 90
5
 70
0
 10
56.65427151478383
 20
214.87710917086162
 10
52.775697447412284
 20
213.89901755761014
 10
51.79760583416078
 20
217.7775916249817
 10
55.67617990153232
 20
218.7556832382332
 10
56.65427151478383
 20
214.87710917086162
  0
LWPOLYLINE
  5
90
330
17
100
AcDbEntity
  8
Layer
100
AcDbPolyline
 90
5
 70
0
 10
21.387454975259
 20
199.01869190187674
 10
19.87462912795657
 20
197.71050309450462
 10
16.604157109526287
 20
201.4925677127607
 10
18.116982956828718
 20
202.8007565201328
 10
21.387454975259
 20
199.01869190187674
  0
LWPOLYLINE
  5
91
330
17
100
AcDbEntity
  8
Layer
100
AcDbPolyline
 90
5
 70
0
 10
16.609977591537223
 20
190.86721826593083
 10
18.192242950225463
 20
189.64392911994156
 10
15.134020085252267
 20
185.68826572322098
 10
13.551754726564027
 20
186.91155486921025
 10
16.609977591537223
 20
190.86721826593083
  0
LWPOLYLINE
  5
92
330
17
100
AcDbEntity
  8
Layer
100
AcDbPolyline
 90
5
 70
0
 10
70.95434600859576
 20
179.71642157048382
 10
74.94747256923341
 20
179.48202816031596
 10
74.71307915906556
 20
175.4889015996783
 10
70.71995259842791
 20
175.72329500984614
 10
70.95434600859576
 20
179.71642157048382
  0
LINE
  5
93
330
17
100
AcDbEntity
  8
Layer
100
AcDbLine
 10
415.4971337460538
 20
177.46952479552175
 30
0.0
 11
415.2900456902578
 21
176.49120248812676
 31
0.0
  0
LINE
  5
94
330
17
100
AcDbEntity
  8
Layer
100
AcDbLine
 10
415.1038837701475
 20
174.94363176677479
 30
0.0
 11
415.0730667480873
 21
173.9441067239913
 31
0.0
  0
LINE
  5
95
330
17
100
AcDbEntity
  8
Layer
100
AcDbLine
 10
396.10023409881444
 20
182.37529622128284
 30
0.0
 11
395.87404579063787
 21
181.4012126266955
 31
0.0
  0
LINE
  5
96
330
17
100
AcDbEntity
  8
Layer
100
AcDbLine
 10
395.1032996828726
 20
175.3715064146878
 30
0.0
 11
395.0771976607509
 21
174.37184713051084
 31
0.0
  0
LINE
  5
97
330
17
100
AcDbEntity
  8
Layer
100
AcDbLine
 10
318.7348313224966
 20
202.78324007505108
 30
0.0
 11
318.48936903935396
 21
201.81383393335688
 31
0.0
  0
LINE
  5
98
330
17
100
AcDbEntity
  8
Layer
100
AcDbLine
 10
315.07250088535835
 20
175.10051848576245
 30
0.0
 11
315.0660611105912
 21
174.10053922132695
 31
0.0
  0
LWPOLYLINE
  5
99
330
17
100
AcDbEntity
  8
Layer
100
AcDbPolyline
 90
300
 70
1
 10
194.98749999999814
 20
200.0
 10
194.98239818924947
 20
200.491722875083
 10
194.9670950098195
 20
200.98322861918695
 10
194.94159721916142
 20
201.47430019721168
 10
194.90591607638183
 20
201.96472076577257
 10
194.8600673372689
 20
202.45427376895242
 10
194.80407124733514
 20
202.94274303392655
 10
194.7379525328775
 20
203.42991286641848
 10
194.66174039005895
 20
203.9155681459446
 10
194.57546847201635
 20
204.3994944208052
 10
194.479174874
 20
204.8814780027804
 10
194.37290211655204
 20
205.3613060614888
 10
194.25669712673044
 20
205.83876671836737
 10
194.1306112173874
 20
206.3136491402311
 10
193.99470006451105
 20
206.78574363237095
 10
193.84902368264042
 20
207.25484173114927
 10
193.69364639836482
 20
207.7207362960512
 10
193.52863682191887
 20
208.18322160115244
 10
193.35406781688638
 20
208.64209342596166
 10
193.17001646802564
 20
209.09714914559885
 10
192.97656404723105
 20
209.54818782026857
 10
192.7737959776457
 20
209.99501028398927
 10
192.561801795941
 20
210.4374192325396
 10
192.3406751127797
 20
210.87521931058222
 10
192.11051357148008
 20
211.30821719792718
 10
191.87141880489952
 20
211.73622169489684
 10
191.62349639055614
 20
212.15904380675417
 10
191.36685580400876
 20
212.57649682715748
 10
191.10161037051574
 20
212.98839642060474
 10
190.82787721499352
 20
213.39456070383096
 10
190.54577721029764
 20
213.79481032612264
 10
190.25543492384878
 20
214.18896854851408
 10
189.95697856262717
 20
214.57686132183025
 10
189.65053991656004
 20
214.9583173635421
 10
189.33625430032683
 20
215.33316823340004
 10
189.01426049360822
 20
215.7012484078124
 10
188.68470067980476
 20
216.06239535293605
 10
188.34772038325272
 20
216.41644959644674
 10
188.0034684049647
 20
216.76325479795756
 10
187.6520967569232
 20
217.10265781805447
 10
187.2937605949565
 20
217.4345087859184
 10
186.92861815022613
 20
217.75866116550392
 10
186.5568306593565
 20
218.07497182024548
 10
186.17856229323735
 20
218.38330107626246
 10
185.79398008453046
 20
218.68351278403517
 10
185.4032538539128
 20
218.97547437852484
 10
185.00655613508835
 20
219.25905693771034
 10
184.6040620986023
 20
219.53413523951673
 10
184.19594947449045
 20
219.80058781710972
 10
183.78239847379882
 20
220.05829701253194
 10
183.36359170900732
 20
220.30714902865756
 10
182.93971411339345
 20
220.5470339794417
 10
182.51095285937078
 20
220.77784593844314
 10
182.0774972758389
 20
220.99948298559838
 10
181.63953876458132
 20
221.21184725222676
 10
181.19727071574752
 20
221.4148449642464
 10
180.7508884224575
 20
221.60838648358236
 10
180.30058899456586
 20
221.79238634774808
 10
179.84657127162345
 20
221.96676330758336
 10
179.38903573507562
 20
222.13144036313162
 10
178.92818441973517
 20
222.286344797641
 10
178.46422082456945
 20
222.43140820967392
 10
177.997349822841
 20
222.5665665433114
 10
177.5277775716412
 20
222.69176011643813
 10
177.05571142085716
 20
222.80693364709657
 10
176.58135982161193
 20
222.9120362778978
 10
176.10493223421815
 20
223.0070215984789
 10
175.62663903568642
 20
223.09184766599617
 10
175.14669142682874
 20
223.16647702364622
 10
174.66530133899806
 20
223.23087671720555
 10
174.18268134050555
 20
223.28501830958243
 10
173.69904454275618
 20
223.32887789337383
 10
173.21460450614492
 20
223.36243610142222
 10
172.72957514575438
 20
223.38567811536765
 10
172.24417063689603
 20
223.39859367219105
 10
171.75860532053622
 20
223.4011770687461
 10
171.27309360864948
 20
223.39342716427763
 10
170.78784988954
 20
223.37534738092523
 10
170.30308843317408
 20
223.34694570221234
 10
169.81902329656415
 20
223.3082346695207
 10
169.33586822924764
 20
223.25923137655255
 10
168.85383657890083
 20
223.19995746178262
 10
168.3731411971308
 20
223.13043909890303
 10
167.89399434548602
 20
223.0507069852658
 10
167.4166076017276
 20
222.96079632832777
 10
166.94119176640268
 20
222.86074683010395
 10
166.46795676976058
 20
222.75060266963624
 10
165.9971115790537
 20
222.63041248348523
 10
165.52886410626346
 20
222.50022934425363
 10
165.0634211162921
 20
222.3601107371509
 10
164.60098813566125
 20
222.21011853460948
 10
164.14176936175716
 20
222.05031896896352
 10
163.68596757266283
 20
221.88078260320268
 10
163.233784037617
 20
221.70158429981342
 10
162.78541842813922
 20
221.51280318772191
 10
162.34106872986067
 20
221.31452262735283
 10
161.90093115509913
 20
221.10683017381982
 10
161.46520005621724
 20
220.88981753826357
 10
161.03406783980193
 20
220.6635805473548
 10
160.60772488170312
 20
220.42821910097982
 10
160.18635944296906
 20
220.18383712812772
 10
159.77015758671556
 20
219.93054254099803
 10
159.3593030959658
 20
219.6684471873499
 10
158.95397739249682
 20
219.39766680111325
 10
158.55435945672895
 20
219.1183209512838
 10
158.1606257486929
 20
218.830532989125
 10
157.77295013011008
 20
218.53442999369932
 10
157.3915037876201
 20
218.2301427157539
 10
157.01645515718974
 20
217.9178055199847
 10
156.64796984973606
 20
217.59755632570472
 10
156.28621057799762
 20
217.26953654594269
 10
155.93133708468483
 20
216.9338910249993
 10
155.58350607194225
 20
216.59076797448773
 10
155.24287113215328
 20
216.24031890788783
 10
154.90958268011806
 20
215.88269857364182
 10
154.58378788663452
 20
215.51806488682192
 10
154.26563061351203
 20
215.14657885939937
 10
153.95525135004587
 20
214.7684045291461
 10
153.65278715098128
 20
214.3837088872003
 10
153.3583715759938
 20
213.99266180432784
 10
153.07213463071324
 20
213.5954359559121
 10
152.79420270931675
 20
213.1922067457054
 10
152.52469853871668
 20
212.78315222837554
 10
152.26374112436795
 20
212.36845303088208
 10
152.01144569771847
 20
211.94829227271634
 10
151.76792366532624
 20
211.5228554850411
 10
151.53328255966537
 20
211.09233052876533
 10
151.30762599164265
 20
210.65690751158988
 10
151.09105360484605
 20
210.2167787040615
 10
150.88366103154482
 20
209.77213845467148
 10
150.685539850461
 20
209.3231831040368
 10
150.49677754633083
 20
208.8701108982017
 10
150.31745747127388
 20
208.41312190109775
 10
150.1476588079873
 20
207.95241790620133
 10
149.98745653478073
 20
207.48820234742723
 10
149.83692139246813
 20
207.020680209298
 10
149.69611985313065
 20
206.55005793642857
 10
149.5651140907643
 20
206.07654334236608
 10
149.44396195382578
 20
205.60034551782528
 10
149.3327169396882
 20
205.12167473835993
 10
149.23142817101814
 20
204.6407423715112
 10
149.1401403740844
 20
204.1577607834734
 10
149.05889385900835
 20
203.6729432453194
 10
148.98772450196375
 20
203.18650383882581
 10
148.92666372933525
 20
202.69865736194075
 10
148.8757385038411
 20
202.20961923393494
 10
148.8349713126272
 20
201.71960540027877
 10
148.80438015733768
 20
201.22883223728672
 10
148.7839785461654
 20
200.73751645657168
 10
148.77377548788763
 20
200.24587500935138
 10
148.77377548788763
 20
199.75412499064862
 10
148.7839785461654
 20
199.26248354342832
 10
148.80438015733768
 20
198.7711677627133
 10
148.8349713126272
 20
198.28039459972123
 10
148.8757385038411
 20
197.79038076606506
 10
148.92666372933525
 20
197.30134263805925
 10
148.98772450196375
 20
196.81349616117419
 10
149.05889385900835
 20
196.32705675468063
 10
149.1401403740844
 20
195.8422392165266
 10
149.23142817101814
 20
195.35925762848882
 10
149.3327169396882
 20
194.87832526164004
 10
149.44396195382578
 20
194.39965448217472
 10
149.5651140907643
 20
193.92345665763392
 10
149.69611985313065
 20
193.44994206357143
 10
149.83692139246813
 20
192.979319790702
 10
149.98745653478073
 20
192.51179765257277
 10
150.1476588079873
 20
192.04758209379867
 10
150.31745747127388
 20
191.58687809890225
 10
150.49677754633083
 20
191.1298891017983
 10
150.68553985046103
 20
190.6768168959632
 10
150.88366103154482
 20
190.22786154532852
 10
151.09105360484605
 20
189.7832212959385
 10
151.30762599164265
 20
189.34309248841012
 10
151.53328255966537
 20
188.90766947123467
 10
151.76792366532624
 20
188.4771445149589
 10
152.01144569771847
 20
188.05170772728366
 10
152.26374112436795
 20
187.63154696911792
 10
152.52469853871668
 20
187.21684777162446
 10
152.79420270931672
 20
186.8077932542946
 10
153.07213463071324
 20
186.4045640440879
 10
153.3583715759938
 20
186.00733819567216
 10
153.65278715098125
 20
185.6162911127997
 10
153.95525135004587
 20
185.23159547085393
 10
154.26563061351203
 20
184.85342114060063
 10
154.58378788663455
 20
184.48193511317808
 10
154.90958268011804
 20
184.11730142635818
 10
155.24287113215328
 20
183.75968109211217
 10
155.58350607194225
 20
183.40923202551227
 10
155.93133708468483
 20
183.0661089750007
 10
156.28621057799762
 20
182.73046345405731
 10
156.64796984973609
 20
182.40244367429528
 10
157.01645515718974
 20
182.0821944800153
 10
157.3915037876201
 20
181.7698572842461
 10
157.77295013011008
 20
181.46557000630068
 10
158.1606257486929
 20
181.16946701087502
 10
158.55435945672895
 20
180.8816790487162
 10
158.95397739249682
 20
180.60233319888675
 10
159.35930309596577
 20
180.3315528126501
 10
159.77015758671556
 20
180.06945745900197
 10
160.18635944296906
 20
179.81616287187228
 10
160.60772488170312
 20
179.57178089902018
 10
161.03406783980193
 20
179.3364194526452
 10
161.46520005621724
 20
179.11018246173643
 10
161.90093115509913
 20
178.89316982618018
 10
162.34106872986067
 20
178.68547737264717
 10
162.78541842813922
 20
178.48719681227809
 10
163.233784037617
 20
178.29841570018658
 10
163.68596757266283
 20
178.11921739679732
 10
164.14176936175716
 20
177.9496810310365
 10
164.60098813566125
 20
177.78988146539052
 10
165.0634211162921
 20
177.6398892628491
 10
165.52886410626346
 20
177.49977065574637
 10
165.9971115790537
 20
177.36958751651477
 10
166.46795676976058
 20
177.24939733036376
 10
166.94119176640268
 20
177.13925316989605
 10
167.41660760172763
 20
177.03920367167223
 10
167.89399434548602
 20
176.9492930147342
 10
168.3731411971308
 20
176.86956090109697
 10
168.85383657890083
 20
176.80004253821738
 10
169.3358682292476
 20
176.74076862344745
 10
169.81902329656415
 20
176.6917653304793
 10
170.30308843317405
 20
176.65305429778766
 10
170.78784988954
 20
176.62465261907477
 10
171.27309360864948
 20
176.60657283572237
 10
171.75860532053622
 20
176.5988229312539
 10
172.24417063689603
 20
176.60140632780895
 10
172.72957514575438
 20
176.61432188463235
 10
173.21460450614492
 20
176.63756389857778
 10
173.69904454275618
 20
176.67112210662617
 10
174.18268134050555
 20
176.71498169041757
 10
174.6653013389981
 20
176.76912328279445
 10
175.14669142682874
 20
176.83352297635378
 10
175.62663903568642
 20
176.90815233400383
 10
176.10493223421815
 20
176.9929784015211
 10
176.58135982161193
 20
177.0879637221022
 10
177.05571142085716
 20
177.19306635290343
 10
177.52777757164117
 20
177.30823988356187
 10
177.997349822841
 20
177.4334334566886
 10
178.46422082456945
 20
177.56859179032605
 10
178.92818441973517
 20
177.713655202359
 10
179.38903573507562
 20
177.86855963686838
 10
179.84657127162345
 20
178.03323669241664
 10
180.30058899456586
 20
178.20761365225192
 10
180.7508884224575
 20
178.39161351641764
 10
181.19727071574752
 20
178.5851550357536
 10
181.63953876458132
 20
178.78815274777324
 10
182.07749727583894
 20
179.00051701440162
 10
182.51095285937078
 20
179.22215406155686
 10
182.93971411339348
 20
179.4529660205583
 10
183.36359170900732
 20
179.69285097134244
 10
183.78239847379882
 20
179.94170298746803
 10
184.19594947449045
 20
180.19941218289028
 10
184.60406209860227
 20
180.46586476048327
 10
185.00655613508835
 20
180.74094306228966
 10
185.4032538539128
 20
181.02452562147516
 10
185.79398008453046
 20
181.3164872159648
 10
186.17856229323735
 20
181.61669892373754
 10
186.5568306593565
 20
181.92502817975452
 10
186.92861815022613
 20
182.24133883449608
 10
187.2937605949565
 20
182.5654912140816
 10
187.6520967569232
 20
182.89734218194553
 10
188.0034684049647
 20
183.23674520204244
 10
188.34772038325275
 20
183.58355040355326
 10
188.68470067980476
 20
183.93760464706395
 10
189.01426049360822
 20
184.29875159218759
 10
189.33625430032683
 20
184.66683176659996
 10
189.65053991656
 20
185.0416826364579
 10
189.95697856262717
 20
185.42313867816972
 10
190.25543492384878
 20
185.81103145148592
 10
190.54577721029764
 20
186.20518967387733
 10
190.8278772149935
 20
186.605439296169
 10
191.10161037051574
 20
187.01160357939526
 10
191.36685580400876
 20
187.42350317284252
 10
191.62349639055614
 20
187.84095619324583
 10
191.87141880489952
 20
188.26377830510316
 10
192.11051357148008
 20
188.69178280207282
 10
192.3406751127797
 20
189.12478068941778
 10
192.561801795941
 20
189.5625807674604
 10
192.7737959776457
 20
190.00498971601073
 10
192.97656404723105
 20
190.45181217973143
 10
193.17001646802564
 20
190.90285085440112
 10
193.35406781688638
 20
191.3579065740383
 10
193.52863682191887
 20
191.81677839884756
 10
193.69364639836482
 20
192.27926370394877
 10
193.84902368264042
 20
192.74515826885073
 10
193.99470006451105
 20
193.21425636762905
 10
194.1306112173874
 20
193.6863508597689
 10
194.25669712673044
 20
194.16123328163263
 10
194.37290211655204
 20
194.6386939385112
 10
194.479174874
 20
195.1185219972196
 10
194.57546847201635
 20
195.6005055791948
 10
194.66174039005895
 20
196.0844318540554
 10
194.7379525328775
 20
196.57008713358152
 10
194.80407124733514
 20
197.05725696607345
 10
194.8600673372689
 20
197.54572623104755
 10
194.90591607638183
 20
198.03527923422743
 10
194.94159721916142
 20
198.5256998027883
 10
194.9670950098195
 20
199.01677138081303
 10
194.98239818924947
 20
199.508277124917
 10
194.98749999999814
 20
200.0
  0
LINE
  5
9A
330
17
100
AcDbEntity
  8
Layer
 62
7
100
AcDbLine
 10
15.058294921289644
 20
200.00000000000003
 30
0.0
 11
332.92406085755874
 21
199.99999999999997
 31
0.0
  0
LINE
  5
9B
330
17
100
AcDbEntity
  8
Layer
 62
7
100
AcDbLine
 10
76.53144810854346
 20
200.0
 30
0.0
 11
88.53144810854346
 21
200.0
 31
0.0
  0
LWPOLYLINE
  5
9C
330
17
100
AcDbEntity
  8
Layer
100
AcDbPolyline
 90
5
 70
0
 10
82.53144810854346
 20
205.0
 10
87.53144810854346
 20
200.0
 10
82.53144810854346
 20
195.0
 10
77.53144810854346
 20
200.0
 10
82.53144810854346
 20
205.0
  0
LINE
  5
9D
330
17
100
AcDbEntity
  8
Layer
 62
7
100
AcDbLine
 10
167.9911778894242
 20
200.0
 30
0.0
 11
179.9911778894242
 21
200.0
 31
0.0
  0
LWPOLYLINE
  5
9E
330
17
100
AcDbEntity
  8
Layer
100
AcDbPolyline
 90
5
 70
0
 10
173.9911778894242
 20
205.0
 10
178.9911778894242
 20
200.0
 10
173.9911778894242
 20
195.0
 10
168.9911778894242
 20
200.0
 10
173.9911778894242
 20
205.0
  0
LINE
  5
9F
330
17
100
AcDbEntity
  8
Layer
 62
7
100
AcDbLine
 10
259.4509076703049
 20
200.0
 30
0.0
 11
271.4509076703049
 21
200.0
 31
0.0
  0
LWPOLYLINE
  5
A0
330
17
100
AcDbEntity
  8
Layer
100
AcDbPolyline
 90
5
 70
0
 10
265.4509076703049
 20
205.0
 10
270.4509076703049
 20
200.0
 10
265.4509076703049
 20
195.0
 10
260.4509076703049
 20
200.0
 10
265.4509076703049
 20
205.0
  0
LINE
  5
A1
330
17
100
AcDbEntity
  8
Layer
 62
7
100
AcDbLine
 10
11.025298191283838
 20
192.50907076025334
 30
0.0
 11
433.05742601265194
 21
173.41851378225763
 31
0.0
  0
LINE
  5
A2
330
17
100
AcDbEntity
  8
Layer
 62
7
100
AcDbLine
 10
93.3338689645454
 20
188.78585549643952
 30
0.0
 11
105.32161062747137
 21
188.24359188623768
 31
0.0
  0
LWPOLYLINE
  5
A3
330
17
100
AcDbEntity
  8
Layer
100
AcDbPolyline
 90
5
 70
0
 10
99.55368296692582
 20
193.50961605089108
 10
104.32263215556087
 20
188.28878052042114
 10
99.10179662509096
 20
183.5198313317861
 10
94.3328474364559
 20
188.74066686225603
 10
99.55368296692582
 20
193.50961605089108
  0
LINE
  5
A4
330
17
100
AcDbEntity
  8
Layer
 62
7
100
AcDbLine
 10
195.59522088617834
 20
184.16007931303693
 30
0.0
 11
207.58296254910428
 21
183.6178157028351
 31
0.0
  0
LWPOLYLINE
  5
A5
330
17
100
AcDbEntity
  8
Layer
100
AcDbPolyline
 90
5
 70
0
 10
201.81503488855876
 20
188.8838398674885
 10
206.5839840771938
 20
183.66300433701855
 10
201.36314854672386
 20
178.8940551483835
 10
196.59419935808882
 20
184.11489067885344
 10
201.81503488855876
 20
188.8838398674885
  0
LINE
  5
A6
330
17
100
AcDbEntity
  8
Layer
100
AcDbLine
 10
171.8799999999982
 20
223.40149999999994
 30
0.0
 11
171.8799999999982
 21
224.40149999999994
 31
0.0
  0
LINE
  5
A7
330
17
100
AcDbEntity
  8
Layer
100
AcDbLine
 10
171.8799999999982
 20
176.59850000000006
 30
0.0
 11
171.8799999999982
 21
175.59850000000006
 31
0.0
  0
LINE
  5
A8
330
17
100
AcDbEntity
  8
Layer
100
AcDbLine
 10
194.98749999999814
 20
200.0
 30
0.0
 11
195.98749999999814
 21
200.0
 31
0.0
  0
LINE
  5
A9
330
17
100
AcDbEntity
  8
Layer
100
AcDbLine
 10
148.77249999999827
 20
200.0
 30
0.0
 11
147.77249999999827
 21
200.0
 31
0.0
  0
LWPOLYLINE
  5
AA
330
17
100
AcDbEntity
  8
NumLabel
 62
1
100
AcDbPolyline
 90
4
 70
0
 10
131.2799999999987
 20
188.70000000000024
 10
129.2799999999987
 20
188.70000000000024
 10
129.2799999999987
 20
178.70000000000024
 10
131.2799999999987
 20
178.70000000000024
  0
LWPOLYLINE
  5
AB
330
17
100
AcDbEntity
  8
NumLabel
 62
1
100
AcDbPolyline
 90
4
 70
0
 10
132.2799999999987
 20
178.70000000000024
 10
134.2799999999987
 20
178.70000000000024
 10
134.2799999999987
 20
188.70000000000024
 10
132.2799999999987
 20
188.70000000000024
  0
LWPOLYLINE
  5
AC
330
17
100
AcDbEntity
  8
NumLabel
 62
1
100
AcDbPolyline
 90
2
 70
0
 10
129.2799999999987
 20
183.70000000000024
 10
131.2799999999987
 20
183.70000000000024
  0
LWPOLYLINE
  5
AD
330
17
100
AcDbEntity
  8
NumLabel
 62
1
100
AcDbPolyline
 90
2
 70
0
 10
132.2799999999987
 20
183.70000000000024
 10
134.2799999999987
 20
183.70000000000024
  0
LWPOLYLINE
  5
AE
330
17
100
AcDbEntity
  8
NumLabel
 62
1
100
AcDbPolyline
 90
4
 70
0
 10
138.7799999999987
 20
188.70000000000024
 10
136.7799999999987
 20
188.70000000000024
 10
136.7799999999987
 20
178.70000000000024
 10
138.7799999999987
 20
178.70000000000024
  0
LWPOLYLINE
  5
AF
330
17
100
AcDbEntity
  8
NumLabel
 62
1
100
AcDbPolyline
 90
4
 70
0
 10
139.7799999999987
 20
178.70000000000024
 10
141.7799999999987
 20
178.70000000000024
 10
141.7799999999987
 20
188.70000000000024
 10
139.7799999999987
 20
188.70000000000024
  0
ENDSEC
  0
SECTION
  2
OBJECTS
  0
DICTIONARY
  5
A
330
0
100
AcDbDictionary
280
0
281
1
  3
ACAD_COLOR
350
B
  3
ACAD_GROUP
350
C
  3
ACAD_LAYOUT
350
D
  3
ACAD_MATERIAL
350
E
  3
ACAD_MLEADERSTYLE
350
F
  3
ACAD_MLINESTYLE
350
10
  3
ACAD_PLOTSETTINGS
350
11
  3
ACAD_PLOTSTYLENAME
350
12
  3
ACAD_SCALELIST
350
14
  3
ACAD_TABLESTYLE
350
15
  3
ACAD_VISUALSTYLE
350
16
  3
EZDXF_META
350
2D
  0
DICTIONARY
  5
B
330
A
100
AcDbDictionary
280
0
281
1
  0
DICTIONARY
  5
C
330
A
100
AcDbDictionary
280
0
281
1
  0
DICTIONARY
  5
D
330
A
100
AcDbDictionary
280
0
281
1
  3
Model
350
1A
  3
Layout1
350
1E
  0
DICTIONARY
  5
E
330
A
100
AcDbDictionary
280
0
281
1
  3
ByBlock
350
1F
  3
ByLayer
350
20
  3
Global
350
21
  0
DICTIONARY
  5
F
330
A
100
AcDbDictionary
280
0
281
1
  3
Standard
350
2C
  0
DICTIONARY
  5
10
330
A
100
AcDbDictionary
280
0
281
1
  3
Standard
350
22
  0
DICTIONARY
  5
11
330
A
100
AcDbDictionary
280
0
281
1
  0
ACDBDICTIONARYWDFLT
  5
12
330
A
100
AcDbDictionary
280
0
281
1
  3
Normal
350
13
100
AcDbDictionaryWithDefault
340
13
  0
ACDBPLACEHOLDER
  5
13
330
12
  0
DICTIONARY
  5
14
330
A
100
AcDbDictionary
280
0
281
1
  0
DICTIONARY
  5
15
330
A
100
AcDbDictionary
280
0
281
1
  0
DICTIONARY
  5
16
330
A
100
AcDbDictionary
280
0
281
1
  3
2dWireframe
350
5A
  3
Basic
350
5B
  3
Brighten
350
5C
  3
ColorChange
350
5D
  3
Conceptual
350
5E
  3
Dim
350
5F
  3
EdgeColorOff
350
60
  3
Facepattern
350
61
  3
Flat
350
62
  3
FlatWithEdges
350
63
  3
Gouraud
350
64
  3
GouraudWithEdges
350
65
  3
Hidden
350
66
  3
JitterOff
350
67
  3
Linepattern
350
68
  3
Modeling
350
69
  3
OverhangOff
350
6A
  3
Realistic
350
6B
  3
Shaded
350
6C
  3
Shaded with edges
350
6D
  3
Shades of Gray
350
6E
  3
Sketchy
350
6F
  3
Thicken
350
70
  3
Wireframe
350
71
  3
X-Ray
350
72
  0
LAYOUT
  5
1A
330
D
100
AcDbPlotSettings
  1

  2
Adobe PDF
  4
A3
  6

 40
7.5
 41
20.0
 42
7.5
 43
20.0
 44
420.0
 45
297.0
 46
0.0
 47
0.0
 48
0.0
 49
0.0
140
0.0
141
0.0
142
1.0
143
1.0
 70
1024
 72
1
 73
0
 74
5
  7

 75
16
 76
0
 77
2
 78
300
147
1.0
148
0.0
149
0.0
100
AcDbLayout
  1
Model
 70
1
 71
0
 10
0.0
 20
0.0
 11
420.0
 21
297.0
 12
0.0
 22
0.0
 32
0.0
 14
1e+20
 24
1e+20
 34
1e+20
 15
-1e+20
 25
-1e+20
 35
-1e+20
146
0.0
 13
0.0
 23
0.0
 33
0.0
 16
1.0
 26
0.0
 36
0.0
 17
0.0
 27
1.0
 37
0.0
 76
1
330
17
  0
LAYOUT
  5
1E
330
D
100
AcDbPlotSettings
  1

  2
Adobe PDF
  4
A3
  6

 40
7.5
 41
20.0
 42
7.5
 43
20.0
 44
420.0
 45
297.0
 46
0.0
 47
0.0
 48
0.0
 49
0.0
140
0.0
141
0.0
142
1.0
143
1.0
 70
0
 72
1
 73
0
 74
5
  7

 75
16
 76
0
 77
2
 78
300
147
1.0
148
0.0
149
0.0
100
AcDbLayout
  1
Layout1
 70
1
 71
1
 10
0.0
 20
0.0
 11
420.0
 21
297.0
 12
0.0
 22
0.0
 32
0.0
 14
1e+20
 24
1e+20
 34
1e+20
 15
-1e+20
 25
-1e+20
 35
-1e+20
146
0.0
 13
0.0
 23
0.0
 33
0.0
 16
1.0
 26
0.0
 36
0.0
 17
0.0
 27
1.0
 37
0.0
 76
1
330
1B
  0
MATERIAL
  5
1F
102
{ACAD_REACTORS
330
E
102
}
330
E
100
AcDbMaterial
  1
ByBlock
  2

 70
0
 40
1.0
 71
1
 41
1.0
 91
-1023410177
 42
1.0
 72
1
  3

 73
1
 74
1
 75
1
 44
0.5
 73
0
 45
1.0
 46
1.0
 77
1
  4

 78
1
 79
1
170
1
 48
1.0
171
1
  6

172
1
173
1
174
1
140
1.0
141
1.0
175
1
  7

176
1
177
1
178
1
143
1.0
179
1
  8

270
1
271
1
272
1
145
1.0
146
1.0
273
1
  9

274
1
275
1
276
1
 42
1.0
 72
1
  3

 73
1
 74
1
 75
1
 94
63
  0
MATERIAL
  5
20
102
{ACAD_REACTORS
330
E
102
}
330
E
100
AcDbMaterial
  1
ByLayer
  2

 70
0
 40
1.0
 71
1
 41
1.0
 91
-1023410177
 42
1.0
 72
1
  3

 73
1
 74
1
 75
1
 44
0.5
 73
0
 45
1.0
 46
1.0
 77
1
  4

 78
1
 79
1
170
1
 48
1.0
171
1
  6

172
1
173
1
174
1
140
1.0
141
1.0
175
1
  7

176
1
177
1
178
1
143
1.0
179
1
  8

270
1
271
1
272
1
145
1.0
146
1.0
273
1
  9

274
1
275
1
276
1
 42
1.0
 72
1
  3

 73
1
 74
1
 75
1
 94
63
  0
MATERIAL
  5
21
102
{ACAD_REACTORS
330
E
102
}
330
E
100
AcDbMaterial
  1
Global
  2

 70
0
 40
1.0
 71
1
 41
1.0
 91
-1023410177
 42
1.0
 72
1
  3

 73
1
 74
1
 75
1
 44
0.5
 73
0
 45
1.0
 46
1.0
 77
1
  4

 78
1
 79
1
170
1
 48
1.0
171
1
  6

172
1
173
1
174
1
140
1.0
141
1.0
175
1
  7

176
1
177
1
178
1
143
1.0
179
1
  8

270
1
271
1
272
1
145
1.0
146
1.0
273
1
  9

274
1
275
1
276
1
 42
1.0
 72
1
  3

 73
1
 74
1
 75
1
 94
63
  0
MLINESTYLE
  5
22
102
{ACAD_REACTORS
330
10
102
}
330
10
100
AcDbMlineStyle
  2
Standard
 70
0
  3

 62
256
 51
90.0
 52
90.0
 71
2
 49
0.5
 62
256
  6
BYLAYER
 49
-0.5
 62
256
  6
BYLAYER
  0
MLEADERSTYLE
  5
2C
102
{ACAD_REACTORS
330
F
102
}
330
F
100
AcDbMLeaderStyle
179
2
170
2
171
1
172
0
 90
2
 40
0.0
 41
0.0
173
1
 91
-1056964608
 92
-2
290
1
 42
2.0
291
1
 43
8.0
  3
Standard
 44
4.0
300

342
29
174
1
175
1
176
0
178
1
 93
-1056964608
 45
4.0
292
0
297
0
 46
4.0
 94
-1056964608
 47
1.0
 49
1.0
140
1.0
294
1
141
0.0
177
0
142
1.0
295
0
296
0
143
3.75
271
0
272
9
273
9
  0
DICTIONARY
  5
2D
330
A
100
AcDbDictionary
281
1
  3
CREATED_BY_EZDXF
350
2E
  3
WRITTEN_BY_EZDXF
350
B2
  0
DICTIONARYVAR
  5
2E
330
2D
100
DictionaryVariables
280
0
  1
1.3.0 @ 2026-01-06T17:07:24.900106+00:00
  0
VISUALSTYLE
  5
5A
102
{ACAD_REACTORS
330
16
102
}
330
16
100
AcDbVisualStyle
  2
2dWireframe
 70
4
 90
0
 40
0.6
 62
7
290
0
291
0
  0
VISUALSTYLE
  5
5B
102
{ACAD_REACTORS
330
16
102
}
330
16
100
AcDbVisualStyle
  2
Basic
 70
7
 90
1
 40
0.6
 62
7
290
0
291
1
  0
VISUALSTYLE
  5
5C
102
{ACAD_REACTORS
330
16
102
}
330
16
100
AcDbVisualStyle
  2
Brighten
 70
12
 90
2
 40
0.6
 62
7
290
0
291
1
  0
VISUALSTYLE
  5
5D
102
{ACAD_REACTORS
330
16
102
}
330
16
100
AcDbVisualStyle
  2
ColorChange
 70
16
 90
2
 40
0.6
 62
8
290
0
291
1
  0
VISUALSTYLE
  5
5E
102
{ACAD_REACTORS
330
16
102
}
330
16
100
AcDbVisualStyle
  2
Conceptual
 70
9
 90
3
 40
0.6
 62
7
290
0
291
0
  0
VISUALSTYLE
  5
5F
102
{ACAD_REACTORS
330
16
102
}
330
16
100
AcDbVisualStyle
  2
Dim
 70
11
 90
2
 40
0.6
 62
7
290
0
291
1
  0
VISUALSTYLE
  5
60
102
{ACAD_REACTORS
330
16
102
}
330
16
100
AcDbVisualStyle
  2
EdgeColorOff
 70
22
 90
2
 40
0.6
 62
7
290
0
291
1
  0
VISUALSTYLE
  5
61
102
{ACAD_REACTORS
330
16
102
}
330
16
100
AcDbVisualStyle
  2
Facepattern
 70
15
 90
2
 40
0.6
 62
7
290
0
291
1
  0
VISUALSTYLE
  5
62
102
{ACAD_REACTORS
330
16
102
}
330
16
100
AcDbVisualStyle
  2
Flat
 70
0
 90
2
 40
0.6
 62
7
290
0
291
1
  0
VISUALSTYLE
  5
63
102
{ACAD_REACTORS
330
16
102
}
330
16
100
AcDbVisualStyle
  2
FlatWithEdges
 70
1
 90
2
 40
0.6
 62
7
290
0
291
1
  0
VISUALSTYLE
  5
64
102
{ACAD_REACTORS
330
16
102
}
330
16
100
AcDbVisualStyle
  2
Gouraud
 70
2
 90
2
 40
0.6
 62
7
290
0
291
1
  0
VISUALSTYLE
  5
65
102
{ACAD_REACTORS
330
16
102
}
330
16
100
AcDbVisualStyle
  2
GouraudWithEdges
 70
3
 90
2
 40
0.6
 62
7
290
0
291
1
  0
VISUALSTYLE
  5
66
102
{ACAD_REACTORS
330
16
102
}
330
16
100
AcDbVisualStyle
  2
Hidden
 70
6
 90
1
 40
0.6
 62
7
290
0
291
0
  0
VISUALSTYLE
  5
67
102
{ACAD_REACTORS
330
16
102
}
330
16
100
AcDbVisualStyle
  2
JitterOff
 70
20
 90
2
 40
0.6
 62
7
290
0
291
1
  0
VISUALSTYLE
  5
68
102
{ACAD_REACTORS
330
16
102
}
330
16
100
AcDbVisualStyle
  2
Linepattern
 70
14
 90
2
 40
0.6
 62
7
290
0
291
1
  0
VISUALSTYLE
  5
69
102
{ACAD_REACTORS
330
16
102
}
330
16
100
AcDbVisualStyle
  2
Modeling
 70
10
 90
2
 40
0.6
 62
7
290
0
291
0
  0
VISUALSTYLE
  5
6A
102
{ACAD_REACTORS
330
16
102
}
330
16
100
AcDbVisualStyle
  2
OverhangOff
 70
21
 90
2
 40
0.6
 62
7
290
0
291
1
  0
VISUALSTYLE
  5
6B
102
{ACAD_REACTORS
330
16
102
}
330
16
100
AcDbVisualStyle
  2
Realistic
 70
8
 90
2
 40
0.6
 62
7
290
0
291
0
  0
VISUALSTYLE
  5
6C
102
{ACAD_REACTORS
330
16
102
}
330
16
100
AcDbVisualStyle
  2
Shaded
 70
27
 90
2
 40
0.6
 62
7
290
0
291
0
  0
VISUALSTYLE
  5
6D
102
{ACAD_REACTORS
330
16
102
}
330
16
100
AcDbVisualStyle
  2
Shaded with edges
 70
26
 90
2
 40
0.6
 62
7
290
0
291
0
  0
VISUALSTYLE
  5
6E
102
{ACAD_REACTORS
330
16
102
}
330
16
100
AcDbVisualStyle
  2
Shades of Gray
 70
23
 90
2
 40
0.6
 62
7
290
0
291
0
  0
VISUALSTYLE
  5
6F
102
{ACAD_REACTORS
330
16
102
}
330
16
100
AcDbVisualStyle
  2
Sketchy
 70
24
 90
1
 40
0.6
 62
7
290
0
291
0
  0
VISUALSTYLE
  5
70
102
{ACAD_REACTORS
330
16
102
}
330
16
100
AcDbVisualStyle
  2
Thicken
 70
13
 90
2
 40
0.6
 62
7
290
0
291
1
  0
VISUALSTYLE
  5
71
102
{ACAD_REACTORS
330
16
102
}
330
16
100
AcDbVisualStyle
  2
Wireframe
 70
5
 90
0
 40
0.6
 62
7
290
0
291
0
  0
VISUALSTYLE
  5
72
102
{ACAD_REACTORS
330
16
102
}
330
16
100
AcDbVisualStyle
  2
X-Ray
 70
25
 90
2
 40
0.5
 62
7
290
0
291
0
  0
DICTIONARYVAR
  5
B2
330
2D
100
DictionaryVariables
280
0
  1
1.3.0 @ 2026-01-06T17:07:24.961197+00:00
  0
ENDSEC
  0
EOF
