<?xml version="1.0" encoding="utf-8" standalone="no"?>
<!DOCTYPE svg PUBLIC "-//W3C//DTD SVG 1.1//EN"
  "http://www.w3.org/Graphics/SVG/1.1/DTD/svg11.dtd">
<svg xmlns:xlink="http://www.w3.org/1999/xlink" width="1152pt" height="148.906152pt" viewBox="0 0 1152 148.906152" xmlns="http://www.w3.org/2000/svg" version="1.1">
 <metadata>
  <rdf:RDF xmlns:dc="http://purl.org/dc/elements/1.1/" xmlns:cc="http://creativecommons.org/ns#" xmlns:rdf="http://www.w3.org/1999/02/22-rdf-syntax-ns#">
   <cc:Work>
    <dc:type rdf:resource="http://purl.org/dc/dcmitype/StillImage"/>
    <dc:date>2026-01-07T02:07:24.738164</dc:date>
    <dc:format>image/svg+xml</dc:format>
    <dc:creator>
     <cc:Agent>
      <dc:title>Matplotlib v3.10.1, https://matplotlib.org/</dc:title>
     </cc:Agent>
    </dc:creator>
   </cc:Work>
  </rdf:RDF>
 </metadata>
 <defs>
  <style type="text/css">*{stroke-linejoin: round; stroke-linecap: butt}</style>
 </defs>
 <g id="figure_1">
  <g id="patch_1">
   <path d="M 0 148.906152 
L 1152 148.906152 
L 1152 0 
L 0 0 
z
" style="fill: #ffffff"/>
  </g>
  <g id="axes_1">
   <g id="patch_2">
    <path d="M 0 148.906152 
L 1152 148.906152 
L 1152 0 
L 0 0 
z
" style="fill: #212830"/>
   </g>
   <g id="patch_3">
    <path d="M 1099.458052 141.061148 
L 1086.741037 138.314472 
L 1069.405781 134.349184 
L 1051.055176 129.972986 
L 1023.02059 122.989104 
L 994.904871 115.682625 
L 966.895216 108.063793 
L 938.810851 100.261984 
L 891.990136 86.960053 
L 845.22344 73.787334 
L 839.380772 72.186386 
L 838.827816 74.204403 
L 826.011558 70.737956 
L 807.340833 65.824852 
L 788.654774 61.066494 
L 769.973886 56.509089 
L 751.219807 52.139433 
L 732.441511 47.931678 
L 713.653072 43.931063 
L 694.807092 40.114255 
L 675.954136 36.527368 
L 657.032588 33.115173 
L 638.106833 29.916381 
L 619.11306 26.920026 
L 600.101606 24.108026 
L 581.036798 21.49131 
L 561.97817 19.061103 
L 542.909015 16.849541 
L 523.794743 14.824386 
L 504.683677 13.018198 
L 485.584994 11.421728 
L 466.465278 10.054483 
L 447.331006 8.91411 
L 428.223561 7.989026 
L 409.114536 7.33486 
L 390.035372 6.925307 
L 370.945485 6.768461 
L 351.912612 6.883766 
L 332.908885 7.309544 
L 313.924061 8.027074 
L 295.001323 9.062689 
L 276.114779 10.421189 
L 257.376163 12.106206 
L 238.740969 14.204109 
L 229.477855 15.409724 
L 220.244557 16.729801 
L 201.851765 19.698212 
L 192.758526 21.337952 
L 183.739497 23.108897 
L 174.80321 25.018118 
L 165.942152 27.07585 
L 157.181964 29.284308 
L 148.498949 31.662314 
L 139.957271 34.167562 
L 131.573551 36.856803 
L 123.367015 39.701364 
L 115.406934 42.707183 
L 107.723958 45.871574 
L 100.413557 49.156316 
L 93.575007 52.525879 
L 87.263415 55.967356 
L 81.585359 59.33753 
L 76.609048 62.593036 
L 72.325968 65.686109 
L 68.682726 68.579806 
L 65.659961 71.185365 
L 61.011568 75.899763 
L 59.296977 77.908705 
L 57.89221 79.807235 
L 55.781454 83.23116 
L 54.353635 86.26878 
L 53.396387 88.839373 
L 52.799982 91.097071 
L 52.363636 94.0202 
L 52.655736 97.748397 
L 52.8798 98.747097 
L 53.244611 99.82776 
L 53.760937 100.980348 
L 54.441729 102.196397 
L 55.310009 103.475976 
L 56.387003 104.815422 
L 57.691444 106.204793 
L 59.259817 107.636901 
L 61.146545 109.106996 
L 63.432309 110.620015 
L 66.194963 112.193507 
L 69.455621 113.842483 
L 73.248648 115.548518 
L 77.725652 117.265559 
L 83.012533 118.989844 
L 89.103719 120.75055 
L 95.890028 122.516191 
L 103.332593 124.173524 
L 111.355929 125.733698 
L 119.740191 127.19373 
L 128.399464 128.492756 
L 137.322631 129.623698 
L 155.826642 131.653595 
L 165.093533 132.583886 
L 174.399917 133.344892 
L 202.968627 135.267171 
L 222.021628 136.304012 
L 241.226797 137.060749 
L 257.716209 137.604454 
L 257.649156 139.695783 
L 279.810232 140.331078 
L 299.065405 140.757392 
L 357.46189 141.634704 
L 386.71683 141.859719 
L 464.979305 142.131662 
L 513.87125 142.0716 
L 572.471727 141.771097 
L 670.061174 140.692604 
L 709.064491 140.174184 
L 874.912667 137.92802 
L 913.972062 137.658315 
L 943.191691 137.638925 
L 991.794375 137.947164 
L 1020.909623 138.407302 
L 1049.865399 139.11561 
L 1077.918416 140.08715 
L 1099.636364 141.094 
L 1099.458052 141.061148 
" clip-path="url(#p29346ae712)" style="fill: none; stroke: #ff0000; stroke-width: 0.72; stroke-linejoin: miter"/>
   </g>
   <g id="patch_4">
    <path d="M 737.165767 57.550888 
L 728.994282 55.740566 
L 730.804604 47.569081 
L 738.976089 49.379403 
L 737.165767 57.550888 
" clip-path="url(#p29346ae712)" style="fill: none; stroke: #ff0000; stroke-width: 0.72; stroke-linejoin: miter"/>
   </g>
   <g id="patch_5">
    <path d="M 341.962178 15.444149 
L 333.595455 15.6641 
L 333.375504 7.297377 
L 341.742227 7.077426 
L 341.962178 15.444149 
" clip-path="url(#p29346ae712)" style="fill: none; stroke: #ff0000; stroke-width: 0.72; stroke-linejoin: miter"/>
   </g>
   <g id="patch_6">
    <path d="M 164.426189 36.089783 
L 156.310647 38.136345 
L 154.264085 30.020803 
L 162.379627 27.974241 
L 164.426189 36.089783 
" clip-path="url(#p29346ae712)" style="fill: none; stroke: #ff0000; stroke-width: 0.72; stroke-linejoin: miter"/>
   </g>
   <g id="patch_7">
    <path d="M 76.732134 75.450318 
L 73.566692 78.187577 
L 66.723545 70.273972 
L 69.888987 67.536713 
L 76.732134 75.450318 
" clip-path="url(#p29346ae712)" style="fill: none; stroke: #ff0000; stroke-width: 0.72; stroke-linejoin: miter"/>
   </g>
   <g id="patch_8">
    <path d="M 65.625564 99.334321 
L 68.936302 101.893935 
L 62.537266 110.170779 
L 59.226528 107.611164 
L 65.625564 99.334321 
" clip-path="url(#p29346ae712)" style="fill: none; stroke: #ff0000; stroke-width: 0.72; stroke-linejoin: miter"/>
   </g>
   <g id="patch_9">
    <path d="M 201.585348 126.801954 
L 209.94058 127.292399 
L 209.450134 135.647631 
L 201.094902 135.157185 
L 201.585348 126.801954 
" clip-path="url(#p29346ae712)" style="fill: none; stroke: #ff0000; stroke-width: 0.72; stroke-linejoin: miter"/>
   </g>
   <g id="line2d_1">
    <path d="M 1058.712421 131.815546 
L 1058.280044 133.862788 
" clip-path="url(#p29346ae712)" style="fill: none; stroke: #ff0000; stroke-width: 0.72; stroke-linecap: square"/>
   </g>
   <g id="line2d_2">
    <path d="M 1057.878316 137.274625 
L 1057.823478 139.36631 
" clip-path="url(#p29346ae712)" style="fill: none; stroke: #ff0000; stroke-width: 0.72; stroke-linecap: square"/>
   </g>
   <g id="line2d_3">
    <path d="M 1018.086985 121.719207 
L 1017.618388 123.758464 
" clip-path="url(#p29346ae712)" style="fill: none; stroke: #ff0000; stroke-width: 0.72; stroke-linecap: square"/>
   </g>
   <g id="line2d_4">
    <path d="M 1016.042254 136.224391 
L 1015.98858 138.316106 
" clip-path="url(#p29346ae712)" style="fill: none; stroke: #ff0000; stroke-width: 0.72; stroke-linecap: square"/>
   </g>
   <g id="line2d_5">
    <path d="M 856.724742 76.986932 
L 856.195774 79.011369 
" clip-path="url(#p29346ae712)" style="fill: none; stroke: #ff0000; stroke-width: 0.72; stroke-linecap: square"/>
   </g>
   <g id="line2d_6">
    <path d="M 848.59866 136.06014 
L 848.579405 138.152455 
" clip-path="url(#p29346ae712)" style="fill: none; stroke: #ff0000; stroke-width: 0.72; stroke-linecap: square"/>
   </g>
   <g id="patch_10">
    <path d="M 502.636926 74.63018 
L 502.532488 71.279234 
L 502.219589 67.941601 
L 501.699471 64.630542 
L 500.974202 61.35921 
L 500.046662 58.140605 
L 498.920537 54.987511 
L 497.600301 51.912458 
L 496.091199 48.927662 
L 494.399226 46.044981 
L 492.531106 43.275869 
L 490.494259 40.631326 
L 488.296779 38.12186 
L 485.947396 35.757441 
L 483.455443 33.547462 
L 480.830822 31.500704 
L 478.083959 29.625299 
L 475.225769 27.928697 
L 472.267606 26.417638 
L 469.221224 25.098127 
L 466.098725 23.975406 
L 462.912515 23.053935 
L 459.675253 22.337375 
L 456.399801 21.828573 
L 453.099171 21.529551 
L 449.786478 21.441497 
L 446.474882 21.56476 
L 443.17754 21.89885 
L 439.907552 22.442441 
L 436.677911 23.193372 
L 433.501446 24.148661 
L 430.39078 25.304512 
L 427.358269 26.656332 
L 424.415962 28.198752 
L 421.575549 29.925642 
L 418.848315 31.830143 
L 416.245095 33.904687 
L 413.776231 36.141032 
L 411.451533 38.530294 
L 409.280235 41.06298 
L 407.270965 43.729028 
L 405.431706 46.517845 
L 403.769765 49.418352 
L 402.291744 52.419025 
L 401.003516 55.507942 
L 399.910199 58.672832 
L 399.016136 61.90112 
L 398.324881 65.17998 
L 397.839178 68.496385 
L 397.560958 71.83716 
L 397.491326 75.189031 
L 397.630559 78.538682 
L 397.978104 81.872805 
L 398.532579 85.178153 
L 399.291782 88.441594 
L 400.252697 91.650163 
L 401.411506 94.791112 
L 402.763604 97.851961 
L 404.303621 100.820552 
L 406.025437 103.685088 
L 407.922213 106.43419 
L 409.986411 109.056935 
L 412.209831 111.542904 
L 414.58364 113.882219 
L 417.098407 116.065587 
L 419.744139 118.084333 
L 422.510327 119.930437 
L 425.385979 121.596564 
L 428.359671 123.076094 
L 431.419589 124.36315 
L 434.553575 125.452618 
L 437.749179 126.340169 
L 440.993704 127.022278 
L 444.274259 127.496235 
L 447.577812 127.760156 
L 450.891237 127.812992 
L 454.201371 127.654535 
L 457.495061 127.285413 
L 460.759223 126.707093 
L 463.980887 125.921872 
L 467.147255 124.932871 
L 470.245746 123.744019 
L 473.264051 122.360038 
L 476.190177 120.786428 
L 479.012498 119.02944 
L 481.719803 117.096055 
L 484.301335 114.993954 
L 486.746837 112.731488 
L 489.046595 110.317647 
L 491.191469 107.762021 
L 493.172941 105.074762 
L 494.983136 102.266548 
L 496.614863 99.348535 
L 498.061639 96.332317 
L 499.317717 93.229877 
L 500.378105 90.05354 
L 501.238591 86.815927 
L 501.895757 83.5299 
L 502.346991 80.208515 
L 502.590501 76.864967 
L 502.636926 74.63018 
L 502.636926 74.63018 
" clip-path="url(#p29346ae712)" style="fill: none; stroke: #ff0000; stroke-width: 0.72; stroke-linejoin: miter"/>
   </g>
   <g id="line2d_7">
    <path d="M 62.215806 74.63018 
L 848.256362 74.63018 
" clip-path="url(#p29346ae712)" style="fill: none; stroke: #ffffff; stroke-width: 0.72; stroke-linecap: square"/>
   </g>
   <g id="line2d_8">
    <path d="M 215.02987 74.63018 
L 240.138711 74.63018 
" clip-path="url(#p29346ae712)" style="fill: none; stroke: #ffffff; stroke-width: 0.72; stroke-linecap: square"/>
   </g>
   <g id="patch_11">
    <path d="M 227.58429 64.168163 
L 238.046307 74.63018 
L 227.58429 85.092197 
L 217.122273 74.63018 
L 227.58429 64.168163 
" clip-path="url(#p29346ae712)" style="fill: none; stroke: #ff0000; stroke-width: 0.72; stroke-linejoin: miter"/>
   </g>
   <g id="line2d_9">
    <path d="M 442.681663 74.63018 
L 467.790504 74.63018 
" clip-path="url(#p29346ae712)" style="fill: none; stroke: #ffffff; stroke-width: 0.72; stroke-linecap: square"/>
   </g>
   <g id="patch_12">
    <path d="M 455.236084 64.168163 
L 465.698101 74.63018 
L 455.236084 85.092197 
L 444.774067 74.63018 
L 455.236084 64.168163 
" clip-path="url(#p29346ae712)" style="fill: none; stroke: #ff0000; stroke-width: 0.72; stroke-linejoin: miter"/>
   </g>
   <g id="line2d_10">
    <path d="M 670.333457 74.63018 
L 695.442298 74.63018 
" clip-path="url(#p29346ae712)" style="fill: none; stroke: #ffffff; stroke-width: 0.72; stroke-linecap: square"/>
   </g>
   <g id="patch_13">
    <path d="M 682.887877 64.168163 
L 693.349894 74.63018 
L 682.887877 85.092197 
L 672.42586 74.63018 
L 682.887877 64.168163 
" clip-path="url(#p29346ae712)" style="fill: none; stroke: #ff0000; stroke-width: 0.72; stroke-linejoin: miter"/>
   </g>
   <g id="line2d_11">
    <path d="M 52.47258 93.093845 
L 1095.8481 140.290773 
" clip-path="url(#p29346ae712)" style="fill: none; stroke: #ffffff; stroke-width: 0.72; stroke-linecap: square"/>
   </g>
   <g id="line2d_12">
    <path d="M 256.758126 102.334669 
L 281.841317 103.469304 
" clip-path="url(#p29346ae712)" style="fill: none; stroke: #ffffff; stroke-width: 0.72; stroke-linecap: square"/>
   </g>
   <g id="patch_14">
    <path d="M 269.772486 92.450657 
L 279.751051 103.374751 
L 268.826957 113.353316 
L 258.848392 102.429222 
L 269.772486 92.450657 
" clip-path="url(#p29346ae712)" style="fill: none; stroke: #ff0000; stroke-width: 0.72; stroke-linejoin: miter"/>
   </g>
   <g id="line2d_13">
    <path d="M 510.808641 113.826605 
L 535.891833 114.961239 
" clip-path="url(#p29346ae712)" style="fill: none; stroke: #ffffff; stroke-width: 0.72; stroke-linecap: square"/>
   </g>
   <g id="patch_15">
    <path d="M 523.823001 103.942592 
L 533.801567 114.866686 
L 522.877473 124.845251 
L 512.898907 113.921157 
L 523.823001 103.942592 
" clip-path="url(#p29346ae712)" style="fill: none; stroke: #ff0000; stroke-width: 0.72; stroke-linejoin: miter"/>
   </g>
   <g id="line2d_14">
    <path d="M 450.062675 21.440763 
L 450.062675 19.348359 
" clip-path="url(#p29346ae712)" style="fill: none; stroke: #ff0000; stroke-width: 0.72; stroke-linecap: square"/>
   </g>
   <g id="line2d_15">
    <path d="M 450.062675 127.819598 
L 450.062675 129.912001 
" clip-path="url(#p29346ae712)" style="fill: none; stroke: #ff0000; stroke-width: 0.72; stroke-linecap: square"/>
   </g>
   <g id="line2d_16">
    <path d="M 502.636926 74.63018 
L 504.72933 74.63018 
" clip-path="url(#p29346ae712)" style="fill: none; stroke: #ff0000; stroke-width: 0.72; stroke-linecap: square"/>
   </g>
   <g id="line2d_17">
    <path d="M 397.488424 74.63018 
L 395.396021 74.63018 
" clip-path="url(#p29346ae712)" style="fill: none; stroke: #ff0000; stroke-width: 0.72; stroke-linecap: square"/>
   </g>
   <g id="line2d_18">
    <path d="M 282.670403 140.403345 
L 282.670403 9.92269 
" clip-path="url(#p29346ae712)" style="fill: none; stroke: #ffffff; stroke-width: 0.72; stroke-linecap: square"/>
   </g>
   <g id="line2d_19">
    <path d="M 282.670403 103.20935 
L 282.670403 78.100509 
" clip-path="url(#p29346ae712)" style="fill: none; stroke: #ffffff; stroke-width: 0.72; stroke-linecap: square"/>
   </g>
   <g id="patch_16">
    <path d="M 272.208386 90.654929 
L 282.670403 80.192912 
L 293.13242 90.654929 
L 282.670403 101.116946 
L 272.208386 90.654929 
" clip-path="url(#p29346ae712)" style="fill: none; stroke: #ff0000; stroke-width: 0.72; stroke-linejoin: miter"/>
   </g>
   <g id="line2d_20">
    <path d="M 282.670403 72.225526 
L 282.670403 47.116686 
" clip-path="url(#p29346ae712)" style="fill: none; stroke: #ffffff; stroke-width: 0.72; stroke-linecap: square"/>
   </g>
   <g id="patch_17">
    <path d="M 272.208386 59.671106 
L 282.670403 49.209089 
L 293.13242 59.671106 
L 282.670403 70.133123 
L 272.208386 59.671106 
" clip-path="url(#p29346ae712)" style="fill: none; stroke: #ff0000; stroke-width: 0.72; stroke-linejoin: miter"/>
   </g>
   <g id="line2d_21">
    <path d="M 722.075118 139.99511 
L 722.075118 45.698851 
" clip-path="url(#p29346ae712)" style="fill: none; stroke: #ffffff; stroke-width: 0.72; stroke-linecap: square"/>
   </g>
   <g id="line2d_22">
    <path d="M 722.075118 115.465653 
L 722.075118 90.356812 
" clip-path="url(#p29346ae712)" style="fill: none; stroke: #ffffff; stroke-width: 0.72; stroke-linecap: square"/>
   </g>
   <g id="patch_18">
    <path d="M 711.613101 102.911232 
L 722.075118 92.449215 
L 732.537135 102.911232 
L 722.075118 113.373249 
L 711.613101 102.911232 
" clip-path="url(#p29346ae712)" style="fill: none; stroke: #ff0000; stroke-width: 0.72; stroke-linejoin: miter"/>
   </g>
   <g id="line2d_23">
    <path d="M 722.075118 95.337148 
L 722.075118 70.228307 
" clip-path="url(#p29346ae712)" style="fill: none; stroke: #ffffff; stroke-width: 0.72; stroke-linecap: square"/>
   </g>
   <g id="patch_19">
    <path d="M 711.613101 82.782728 
L 722.075118 72.320711 
L 732.537135 82.782728 
L 722.075118 93.244745 
L 711.613101 82.782728 
" clip-path="url(#p29346ae712)" style="fill: none; stroke: #ff0000; stroke-width: 0.72; stroke-linejoin: miter"/>
   </g>
   <g id="patch_20">
    <path d="M 344.916577 116.741213 
L 344.916577 106.279196 
L 355.378594 106.279196 
L 355.378594 127.20323 
" clip-path="url(#p29346ae712)" style="fill: none; stroke: #ff0000; stroke-width: 0.72; stroke-linejoin: miter"/>
   </g>
   <g id="patch_21">
    <path d="M 360.609602 116.741213 
L 360.609602 106.279196 
L 371.071619 106.279196 
L 371.071619 127.20323 
" clip-path="url(#p29346ae712)" style="fill: none; stroke: #ff0000; stroke-width: 0.72; stroke-linejoin: miter"/>
   </g>
  </g>
 </g>
 <defs>
  <clipPath id="p29346ae712">
   <rect x="0" y="0" width="1152" height="148.906152"/>
  </clipPath>
 </defs>
</svg>
