<?xml version="1.0" encoding="utf-8" standalone="no"?>
<!DOCTYPE svg PUBLIC "-//W3C//DTD SVG 1.1//EN"
  "http://www.w3.org/Graphics/SVG/1.1/DTD/svg11.dtd">
<svg xmlns:xlink="http://www.w3.org/1999/xlink" width="1152pt" height="341.020863pt" viewBox="0 0 1152 341.020863" xmlns="http://www.w3.org/2000/svg" version="1.1">
 <metadata>
  <rdf:RDF xmlns:dc="http://purl.org/dc/elements/1.1/" xmlns:cc="http://creativecommons.org/ns#" xmlns:rdf="http://www.w3.org/1999/02/22-rdf-syntax-ns#">
   <cc:Work>
    <dc:type rdf:resource="http://purl.org/dc/dcmitype/StillImage"/>
    <dc:date>2026-01-07T02:07:19.071891</dc:date>
    <dc:format>image/svg+xml</dc:format>
    <dc:creator>
     <cc:Agent>
      <dc:title>Matplotlib v3.10.1, https://matplotlib.org/</dc:title>
     </cc:Agent>
    </dc:creator>
   </cc:Work>
  </rdf:RDF>
 </metadata>
 <defs>
  <style type="text/css">*{stroke-linejoin: round; stroke-linecap: butt}</style>
 </defs>
 <g id="figure_1">
  <g id="patch_1">
   <path d="M 0 341.020863 
L 1152 341.020863 
L 1152 0 
L 0 0 
z
" style="fill: #ffffff"/>
  </g>
  <g id="axes_1">
   <g id="patch_2">
    <path d="M 0 341.020863 
L 1152 341.020863 
L 1152 0 
L 0 0 
z
" style="fill: #212830"/>
   </g>
   <g id="patch_3">
    <path d="M 1099.238866 324.053501 
L 1091.335333 321.20451 
L 1078.460544 316.582786 
L 1064.31529 311.55204 
L 1048.887937 306.169053 
L 1032.108325 300.440872 
L 1014.077016 294.293612 
L 994.994397 287.751604 
L 975.071365 280.862444 
L 954.477337 273.680688 
L 933.371555 266.260871 
L 911.862538 258.642953 
L 890.042343 250.871877 
L 867.986411 242.977628 
L 845.742805 234.989985 
L 823.373839 226.944388 
L 800.943511 218.869424 
L 778.511658 210.79965 
L 756.116379 202.761964 
L 733.787414 194.772549 
L 711.55156 186.851589 
L 689.413457 179.01368 
L 667.376912 171.266496 
L 645.452717 163.621181 
L 623.644957 156.091299 
L 601.94994 148.685239 
L 581.550611 141.807925 
L 580.640694 144.5069 
L 579.471327 144.112624 
L 558.023344 136.9843 
L 536.687191 130.009867 
L 515.44696 123.192985 
L 494.294623 116.536227 
L 473.221577 110.045364 
L 452.210825 103.723723 
L 431.245585 97.569915 
L 410.317251 91.58326 
L 389.419379 85.766298 
L 368.539691 80.120441 
L 347.665333 74.644302 
L 326.791565 69.335356 
L 305.917182 64.195275 
L 285.035387 59.226448 
L 264.137134 54.427158 
L 243.220312 49.795018 
L 222.287807 45.331328 
L 201.336653 41.038359 
L 180.36181 36.91552 
L 159.361203 32.960793 
L 138.339763 29.174151 
L 117.29873 25.558384 
L 96.233988 22.114008 
L 75.14528 18.838721 
L 54.037836 15.733331 
L 52.363636 15.500948 
L 52.363636 283.453729 
L 72.300637 283.553276 
L 96.156636 283.636791 
L 119.992937 283.704257 
L 143.777191 283.801983 
L 167.549911 283.949241 
L 191.335408 284.123485 
L 215.102688 284.291004 
L 238.781753 284.465196 
L 262.337727 284.68945 
L 285.832036 284.981285 
L 309.275384 285.285978 
L 332.61782 285.523931 
L 355.962476 285.669477 
L 379.345594 285.786705 
L 402.716603 285.958774 
L 426.131872 286.212196 
L 449.623942 286.50477 
L 473.095665 286.79891 
L 496.441095 287.122438 
L 519.661376 287.539114 
L 542.894222 288.072808 
L 566.227008 288.673647 
L 589.596079 289.278932 
L 612.873912 289.887723 
L 635.974513 290.567199 
L 658.995637 291.372723 
L 682.075946 292.291872 
L 705.235074 293.260621 
L 728.331676 294.232713 
L 751.213365 295.23834 
L 773.863469 296.358062 
L 796.434507 297.645168 
L 819.082395 299.066434 
L 841.777453 300.534999 
L 864.309245 302.017223 
L 886.531123 303.566607 
L 908.446723 305.226785 
L 930.049661 306.982082 
L 951.244765 308.806699 
L 971.894516 310.688251 
L 991.856394 312.635029 
L 1011.038272 314.674029 
L 1029.379665 316.776312 
L 1046.73464 318.846108 
L 1062.905802 320.809199 
L 1077.762508 322.668348 
L 1091.308874 324.423747 
L 1099.636364 325.519914 
L 1099.238866 324.053501 
" clip-path="url(#p7e5ab107a3)" style="fill: none; stroke: #ff0000; stroke-width: 0.72; stroke-linejoin: miter"/>
   </g>
   <g id="patch_4">
    <path d="M 495.946932 212.664917 
L 481.705784 212.664917 
L 481.705784 226.906065 
L 495.946932 226.906065 
L 495.946932 241.147214 
L 481.705784 241.147214 
" clip-path="url(#p7e5ab107a3)" style="fill: none; stroke: #ff0000; stroke-width: 0.72; stroke-linejoin: miter"/>
   </g>
   <g id="patch_5">
    <path d="M 508.763966 212.664917 
L 503.067507 212.664917 
L 503.067507 241.147214 
L 508.763966 241.147214 
" clip-path="url(#p7e5ab107a3)" style="fill: none; stroke: #ff0000; stroke-width: 0.72; stroke-linejoin: miter"/>
   </g>
   <g id="patch_6">
    <path d="M 511.612196 241.147214 
L 517.308655 241.147214 
L 517.308655 212.664917 
L 511.612196 212.664917 
" clip-path="url(#p7e5ab107a3)" style="fill: none; stroke: #ff0000; stroke-width: 0.72; stroke-linejoin: miter"/>
   </g>
   <g id="patch_7">
    <path d="M 375.705577 93.860231 
L 364.707612 90.886453 
L 367.68139 79.888488 
L 378.679355 82.862266 
L 375.705577 93.860231 
" clip-path="url(#p7e5ab107a3)" style="fill: none; stroke: #ff0000; stroke-width: 0.72; stroke-linejoin: miter"/>
   </g>
   <g id="patch_8">
    <path d="M 237.508719 121.236743 
L 251.749867 135.477891 
L 237.508719 149.71904 
L 223.26757 135.477891 
L 237.508719 121.236743 
" clip-path="url(#p7e5ab107a3)" style="fill: none; stroke: #ff0000; stroke-width: 0.72; stroke-linejoin: miter"/>
   </g>
   <g id="patch_9">
    <path d="M 638.985029 241.92317 
L 653.226177 227.682022 
L 667.467326 241.92317 
L 653.226177 256.164319 
L 638.985029 241.92317 
" clip-path="url(#p7e5ab107a3)" style="fill: none; stroke: #ff0000; stroke-width: 0.72; stroke-linejoin: miter"/>
   </g>
   <g id="patch_10">
    <path d="M 638.985029 215.579585 
L 653.226177 201.338437 
L 667.467326 215.579585 
L 653.226177 229.820734 
L 638.985029 215.579585 
" clip-path="url(#p7e5ab107a3)" style="fill: none; stroke: #ff0000; stroke-width: 0.72; stroke-linejoin: miter"/>
   </g>
   <g id="line2d_1">
    <path d="M 1045.763892 305.102574 
L 1044.843186 307.797888 
" clip-path="url(#p7e5ab107a3)" style="fill: none; stroke: #ff0000; stroke-width: 0.72; stroke-linecap: square"/>
   </g>
   <g id="line2d_2">
    <path d="M 1043.192946 315.556479 
L 1042.936769 318.393165 
" clip-path="url(#p7e5ab107a3)" style="fill: none; stroke: #ff0000; stroke-width: 0.72; stroke-linecap: square"/>
   </g>
   <g id="line2d_3">
    <path d="M 991.864205 286.669218 
L 990.943018 289.364367 
" clip-path="url(#p7e5ab107a3)" style="fill: none; stroke: #ff0000; stroke-width: 0.72; stroke-linecap: square"/>
   </g>
   <g id="line2d_4">
    <path d="M 986.600537 309.260725 
L 986.314985 312.094604 
" clip-path="url(#p7e5ab107a3)" style="fill: none; stroke: #ff0000; stroke-width: 0.72; stroke-linecap: square"/>
   </g>
   <g id="line2d_5">
    <path d="M 777.172102 210.318882 
L 776.228787 213.006366 
" clip-path="url(#p7e5ab107a3)" style="fill: none; stroke: #ff0000; stroke-width: 0.72; stroke-linecap: square"/>
   </g>
   <g id="line2d_6">
    <path d="M 759.255215 292.785674 
L 759.02278 295.624403 
" clip-path="url(#p7e5ab107a3)" style="fill: none; stroke: #ff0000; stroke-width: 0.72; stroke-linecap: square"/>
   </g>
   <g id="line2d_7">
    <path d="M 52.363636 135.477891 
L 553.414946 135.477891 
" clip-path="url(#p7e5ab107a3)" style="fill: none; stroke: #ffffff; stroke-width: 0.72; stroke-linecap: square"/>
   </g>
   <g id="line2d_8">
    <path d="M 220.41934 135.477891 
L 254.598097 135.477891 
" clip-path="url(#p7e5ab107a3)" style="fill: none; stroke: #ffffff; stroke-width: 0.72; stroke-linecap: square"/>
   </g>
   <g id="line2d_9">
    <path d="M 52.363636 256.157507 
L 1097.332565 323.366336 
" clip-path="url(#p7e5ab107a3)" style="fill: none; stroke: #ffffff; stroke-width: 0.72; stroke-linecap: square"/>
   </g>
   <g id="line2d_10">
    <path d="M 653.226177 291.170846 
L 653.226177 166.33191 
" clip-path="url(#p7e5ab107a3)" style="fill: none; stroke: #ffffff; stroke-width: 0.72; stroke-linecap: square"/>
   </g>
   <g id="line2d_11">
    <path d="M 653.226177 259.012549 
L 653.226177 224.833792 
" clip-path="url(#p7e5ab107a3)" style="fill: none; stroke: #ffffff; stroke-width: 0.72; stroke-linecap: square"/>
   </g>
   <g id="line2d_12">
    <path d="M 653.226177 232.668964 
L 653.226177 198.490207 
" clip-path="url(#p7e5ab107a3)" style="fill: none; stroke: #ffffff; stroke-width: 0.72; stroke-linecap: square"/>
   </g>
  </g>
 </g>
 <defs>
  <clipPath id="p7e5ab107a3">
   <rect x="0" y="0" width="1152" height="341.020863"/>
  </clipPath>
 </defs>
</svg>
