<?xml version="1.0" encoding="utf-8" standalone="no"?>
<!DOCTYPE svg PUBLIC "-//W3C//DTD SVG 1.1//EN"
  "http://www.w3.org/Graphics/SVG/1.1/DTD/svg11.dtd">
<svg xmlns:xlink="http://www.w3.org/1999/xlink" width="1152pt" height="321.679669pt" viewBox="0 0 1152 321.679669" xmlns="http://www.w3.org/2000/svg" version="1.1">
 <metadata>
  <rdf:RDF xmlns:dc="http://purl.org/dc/elements/1.1/" xmlns:cc="http://creativecommons.org/ns#" xmlns:rdf="http://www.w3.org/1999/02/22-rdf-syntax-ns#">
   <cc:Work>
    <dc:type rdf:resource="http://purl.org/dc/dcmitype/StillImage"/>
    <dc:date>2026-01-07T02:07:12.685555</dc:date>
    <dc:format>image/svg+xml</dc:format>
    <dc:creator>
     <cc:Agent>
      <dc:title>Matplotlib v3.10.1, https://matplotlib.org/</dc:title>
     </cc:Agent>
    </dc:creator>
   </cc:Work>
  </rdf:RDF>
 </metadata>
 <defs>
  <style type="text/css">*{stroke-linejoin: round; stroke-linecap: butt}</style>
 </defs>
 <g id="figure_1">
  <g id="patch_1">
   <path d="M 0 321.679669 
L 1152 321.679669 
L 1152 0 
L 0 0 
z
" style="fill: #ffffff"/>
  </g>
  <g id="axes_1">
   <g id="patch_2">
    <path d="M 0 321.679669 
L 1152 321.679669 
L 1152 0 
L 0 0 
z
" style="fill: #212830"/>
   </g>
   <g id="patch_3">
    <path d="M 1099.636364 41.620445 
L 1097.863031 41.357302 
L 1076.756774 38.403449 
L 1055.612721 35.623816 
L 1034.432183 33.017704 
L 1013.216718 30.58197 
L 991.969314 28.313017 
L 970.699595 26.208292 
L 949.422655 24.270448 
L 928.147697 22.505679 
L 906.874523 20.918552 
L 885.604285 19.507431 
L 864.347663 18.270709 
L 843.116329 17.20935 
L 821.914378 16.327326 
L 800.745268 15.625187 
L 779.620042 15.104179 
L 758.547893 14.768514 
L 737.530422 14.621803 
L 716.569079 14.662141 
L 695.678116 14.887067 
L 674.87363 15.300617 
L 654.159727 15.910856 
L 633.537841 16.719702 
L 613.018553 17.724922 
L 592.616979 18.92752 
L 572.340086 20.330705 
L 552.198633 21.932877 
L 532.214507 23.73528 
L 512.402776 25.747426 
L 492.765484 27.9762 
L 473.310588 30.416775 
L 454.060052 33.063258 
L 435.035554 35.915084 
L 416.257611 38.971115 
L 397.761936 42.225951 
L 379.584613 45.682739 
L 361.744201 49.343015 
L 344.264751 53.18858 
L 327.199243 57.193955 
L 310.602672 61.349468 
L 294.514718 65.648622 
L 278.974277 70.072901 
L 264.020451 74.600474 
L 249.680961 79.206769 
L 235.985393 83.851385 
L 222.973894 88.495557 
L 210.671549 93.123759 
L 199.071588 97.728049 
L 188.152732 102.286502 
L 177.896032 106.773263 
L 168.280621 111.174635 
L 159.278335 115.485939 
L 150.855589 119.702328 
L 142.979151 123.820091 
L 135.615141 127.844178 
L 128.726058 131.78452 
L 122.274664 135.647757 
L 116.227764 139.435009 
L 110.560768 143.14469 
L 105.254633 146.781703 
L 100.290315 150.357597 
L 95.64351 153.885487 
L 91.288122 157.366364 
L 87.200558 160.794009 
L 79.759608 167.453927 
L 76.390725 170.67872 
L 73.260477 173.840592 
L 70.375827 176.951404 
L 67.738567 180.02755 
L 65.341071 183.0829 
L 63.169656 186.11975 
L 61.20567 189.137605 
L 59.433213 192.126087 
L 57.84629 195.067955 
L 56.452724 197.940445 
L 55.265378 200.737876 
L 54.289991 203.477217 
L 53.522162 206.177197 
L 52.966934 208.723241 
L 52.577276 211.323078 
L 52.364539 214.269592 
L 52.363636 216.641137 
L 52.559924 219.212729 
L 52.977622 221.745578 
L 53.641395 224.237493 
L 54.577571 226.700299 
L 55.800599 229.14442 
L 57.304453 231.566992 
L 59.06997 233.951795 
L 61.086971 236.28266 
L 63.361833 238.550951 
L 65.909536 240.754943 
L 68.736828 242.894222 
L 71.843796 244.9696 
L 75.228752 246.984882 
L 78.894662 248.947595 
L 82.841984 250.864268 
L 87.076246 252.737765 
L 91.606374 254.568467 
L 96.449544 256.356929 
L 101.623789 258.107867 
L 107.148732 259.829352 
L 113.0476 261.53105 
L 119.34442 263.222531 
L 126.068698 264.908665 
L 133.257538 266.590205 
L 140.959257 268.267974 
L 149.226305 269.947075 
L 158.113522 271.6334 
L 167.67806 273.329028 
L 177.98617 275.030667 
L 189.109671 276.734159 
L 201.116327 278.439043 
L 214.061679 280.142761 
L 227.987966 281.833527 
L 242.922838 283.494922 
L 258.870297 285.11505 
L 275.797032 286.683509 
L 293.642062 288.181576 
L 312.335664 289.593943 
L 331.790839 290.916941 
L 351.906055 292.1444 
L 372.598566 293.26854 
L 393.79802 294.293377 
L 415.432306 295.223384 
L 459.867383 296.803354 
L 462.618194 296.888148 
L 462.548428 299.151437 
L 505.466519 300.438198 
L 551.618245 301.571543 
L 598.464537 302.390669 
L 717.541881 304.153361 
L 862.550085 305.461441 
L 935.123013 306.006614 
L 1007.598847 306.456447 
L 1099.636364 307.057866 
L 1099.636364 41.620445 
L 1099.636364 41.620445 
" clip-path="url(#p86c64fa569)" style="fill: none; stroke: #ff0000; stroke-width: 0.72; stroke-linejoin: miter"/>
   </g>
   <g id="patch_4">
    <path d="M 639.587997 242.388839 
L 650.909815 242.388839 
L 650.909815 253.710657 
L 639.587997 253.710657 
L 650.909815 253.710657 
L 650.909815 265.032476 
L 639.587997 265.032476 
" clip-path="url(#p86c64fa569)" style="fill: none; stroke: #ff0000; stroke-width: 0.72; stroke-linejoin: miter"/>
   </g>
   <g id="patch_5">
    <path d="M 661.099452 242.388839 
L 656.570725 242.388839 
L 656.570725 265.032476 
L 661.099452 265.032476 
" clip-path="url(#p86c64fa569)" style="fill: none; stroke: #ff0000; stroke-width: 0.72; stroke-linejoin: miter"/>
   </g>
   <g id="patch_6">
    <path d="M 663.363816 265.032476 
L 667.892544 265.032476 
L 667.892544 242.388839 
L 663.363816 242.388839 
" clip-path="url(#p86c64fa569)" style="fill: none; stroke: #ff0000; stroke-width: 0.72; stroke-linejoin: miter"/>
   </g>
   <g id="patch_7">
    <path d="M 632.792012 25.824566 
L 623.74541 26.267825 
L 623.302151 17.221222 
L 632.348754 16.777964 
L 632.792012 25.824566 
" clip-path="url(#p86c64fa569)" style="fill: none; stroke: #ff0000; stroke-width: 0.72; stroke-linejoin: miter"/>
   </g>
   <g id="patch_8">
    <path d="M 275.748489 80.513271 
L 267.079739 83.138201 
L 264.454809 74.469451 
L 273.123559 71.844521 
L 275.748489 80.513271 
" clip-path="url(#p86c64fa569)" style="fill: none; stroke: #ff0000; stroke-width: 0.72; stroke-linejoin: miter"/>
   </g>
   <g id="patch_9">
    <path d="M 95.349128 168.706953 
L 91.943681 171.692301 
L 84.48031 163.178684 
L 87.885757 160.193336 
L 95.349128 168.706953 
" clip-path="url(#p86c64fa569)" style="fill: none; stroke: #ff0000; stroke-width: 0.72; stroke-linejoin: miter"/>
   </g>
   <g id="patch_10">
    <path d="M 74.123429 232.878548 
L 77.89232 235.389491 
L 71.614963 244.811718 
L 67.846072 242.300775 
L 74.123429 232.878548 
" clip-path="url(#p86c64fa569)" style="fill: none; stroke: #ff0000; stroke-width: 0.72; stroke-linejoin: miter"/>
   </g>
   <g id="patch_11">
    <path d="M 354.177644 283.19699 
L 363.221764 283.688294 
L 362.730461 292.732414 
L 353.68634 292.241111 
L 354.177644 283.19699 
" clip-path="url(#p86c64fa569)" style="fill: none; stroke: #ff0000; stroke-width: 0.72; stroke-linejoin: miter"/>
   </g>
   <g id="patch_12">
    <path d="M 963.563761 160.476029 
L 963.462331 155.345381 
L 963.158223 150.223794 
L 962.651972 145.120313 
L 961.944473 140.043953 
L 961.036976 135.003676 
L 959.931082 130.008387 
L 958.628746 125.066906 
L 957.132267 120.187961 
L 955.444288 115.380169 
L 953.567791 110.652019 
L 951.506089 106.011864 
L 949.262823 101.467897 
L 946.841956 97.028145 
L 944.247762 92.700447 
L 941.484824 88.492447 
L 938.558021 84.411576 
L 935.472522 80.465043 
L 932.233776 76.659816 
L 928.847503 73.002617 
L 925.319685 69.499903 
L 921.65655 66.157862 
L 917.864569 62.982396 
L 913.950438 59.979112 
L 909.92107 57.153315 
L 905.783583 54.509995 
L 901.545281 52.053822 
L 897.213652 49.789132 
L 892.796345 47.719925 
L 888.301161 45.849856 
L 883.736039 44.182227 
L 879.109042 42.719984 
L 874.428341 41.465709 
L 869.702204 40.421618 
L 864.938976 39.589553 
L 860.14707 38.970985 
L 855.334949 38.567006 
L 850.511112 38.37833 
L 845.684078 38.40529 
L 840.862371 38.647838 
L 836.054509 39.105546 
L 831.26898 39.777605 
L 826.514239 40.662829 
L 821.798681 41.759654 
L 817.130634 43.066143 
L 812.518344 44.579989 
L 807.969956 46.298517 
L 803.493502 48.218694 
L 799.096888 50.337128 
L 794.78788 52.650077 
L 790.574087 55.153457 
L 786.462951 57.842846 
L 782.461734 60.713495 
L 778.577501 63.760334 
L 774.817112 66.977982 
L 771.187209 70.360756 
L 767.694202 73.902681 
L 764.34426 77.597503 
L 761.1433 81.438697 
L 758.096975 85.419477 
L 755.210665 89.532815 
L 752.489467 93.771445 
L 749.938187 98.127881 
L 747.561332 102.594429 
L 745.363098 107.163202 
L 743.347368 111.826131 
L 741.517703 116.574979 
L 739.877332 121.401361 
L 738.429155 126.296753 
L 737.175727 131.252508 
L 736.119263 136.259874 
L 735.261629 141.310009 
L 734.604339 146.393993 
L 734.148553 151.502846 
L 733.895078 156.627547 
L 733.844361 161.759045 
L 733.996491 166.888277 
L 734.351199 172.006185 
L 734.90786 177.103729 
L 735.665489 182.171907 
L 736.62275 187.201768 
L 737.777951 192.184429 
L 739.129052 197.11109 
L 740.673667 201.97305 
L 742.409068 206.761722 
L 744.33219 211.46865 
L 746.439637 216.08552 
L 748.727687 220.604179 
L 751.192299 225.016645 
L 753.82912 229.315127 
L 756.633493 233.492033 
L 759.600466 237.539986 
L 762.724798 241.451837 
L 766.000972 245.220676 
L 769.423202 248.839849 
L 772.985443 252.302964 
L 776.681405 255.603903 
L 780.50456 258.736838 
L 784.448157 261.696236 
L 788.505229 264.476869 
L 792.668612 267.073826 
L 796.930954 269.482523 
L 801.284726 271.698704 
L 805.72224 273.718455 
L 810.235657 275.53821 
L 814.817008 277.154754 
L 819.458201 278.565233 
L 824.151039 279.767155 
L 828.887235 280.758398 
L 833.658423 281.537212 
L 838.456178 282.10222 
L 843.272026 282.452425 
L 848.097461 282.587209 
L 852.923963 282.506333 
L 857.743006 282.20994 
L 862.54608 281.698553 
L 867.324702 280.973077 
L 872.070432 280.034792 
L 876.77489 278.885355 
L 881.429767 277.526796 
L 886.026841 275.961514 
L 890.557994 274.192275 
L 895.015224 272.222202 
L 899.390658 270.054775 
L 903.67657 267.693822 
L 907.865389 265.143512 
L 911.949719 262.40835 
L 915.922345 259.493166 
L 919.776252 256.403109 
L 923.504633 253.143635 
L 927.100904 249.720502 
L 930.558713 246.139755 
L 933.871954 242.407718 
L 937.034774 238.530982 
L 940.041589 234.516394 
L 942.887088 230.371043 
L 945.566245 226.102252 
L 948.07433 221.717559 
L 950.406911 217.224707 
L 952.55987 212.631632 
L 954.529405 207.946445 
L 956.312037 203.177421 
L 957.904617 198.332983 
L 959.304334 193.421686 
L 960.508715 188.452203 
L 961.515632 183.433313 
L 962.323309 178.373877 
L 962.930318 173.282832 
L 963.335587 168.169169 
L 963.538401 163.04192 
L 963.563761 160.476029 
L 963.563761 160.476029 
" clip-path="url(#p86c64fa569)" style="fill: none; stroke: #ff0000; stroke-width: 0.72; stroke-linejoin: miter"/>
   </g>
   <g id="patch_13">
    <path d="M 398.600281 149.15421 
L 409.9221 160.476029 
L 398.600281 171.797848 
L 387.278462 160.476029 
L 398.600281 149.15421 
" clip-path="url(#p86c64fa569)" style="fill: none; stroke: #ff0000; stroke-width: 0.72; stroke-linejoin: miter"/>
   </g>
   <g id="patch_14">
    <path d="M 843.05352 149.15421 
L 854.375339 160.476029 
L 843.05352 171.797848 
L 831.731701 160.476029 
L 843.05352 149.15421 
" clip-path="url(#p86c64fa569)" style="fill: none; stroke: #ff0000; stroke-width: 0.72; stroke-linejoin: miter"/>
   </g>
   <g id="patch_15">
    <path d="M 478.43541 227.124521 
L 489.006145 239.150606 
L 476.980061 249.721341 
L 466.409325 237.695256 
L 478.43541 227.124521 
" clip-path="url(#p86c64fa569)" style="fill: none; stroke: #ff0000; stroke-width: 0.72; stroke-linejoin: miter"/>
   </g>
   <g id="patch_16">
    <path d="M 991.436482 260.164386 
L 1002.007218 272.190471 
L 989.981133 282.761206 
L 979.410397 270.735121 
L 991.436482 260.164386 
" clip-path="url(#p86c64fa569)" style="fill: none; stroke: #ff0000; stroke-width: 0.72; stroke-linejoin: miter"/>
   </g>
   <g id="patch_17">
    <path d="M 497.724508 200.076108 
L 509.046327 188.754289 
L 520.368145 200.076108 
L 509.046327 211.397927 
L 497.724508 200.076108 
" clip-path="url(#p86c64fa569)" style="fill: none; stroke: #ff0000; stroke-width: 0.72; stroke-linejoin: miter"/>
   </g>
   <g id="patch_18">
    <path d="M 497.724508 126.58563 
L 509.046327 115.263811 
L 520.368145 126.58563 
L 509.046327 137.907448 
L 497.724508 126.58563 
" clip-path="url(#p86c64fa569)" style="fill: none; stroke: #ff0000; stroke-width: 0.72; stroke-linejoin: miter"/>
   </g>
   <g id="line2d_1">
    <path d="M 87.579757 160.476029 
L 1099.636364 160.476029 
" clip-path="url(#p86c64fa569)" style="fill: none; stroke: #ffffff; stroke-width: 0.72; stroke-linecap: square"/>
   </g>
   <g id="line2d_2">
    <path d="M 385.014098 160.476029 
L 412.186463 160.476029 
" clip-path="url(#p86c64fa569)" style="fill: none; stroke: #ffffff; stroke-width: 0.72; stroke-linecap: square"/>
   </g>
   <g id="line2d_3">
    <path d="M 829.467337 160.476029 
L 856.639702 160.476029 
" clip-path="url(#p86c64fa569)" style="fill: none; stroke: #ffffff; stroke-width: 0.72; stroke-linecap: square"/>
   </g>
   <g id="line2d_4">
    <path d="M 52.618944 211.045062 
L 1099.636364 278.478282 
" clip-path="url(#p86c64fa569)" style="fill: none; stroke: #ffffff; stroke-width: 0.72; stroke-linecap: square"/>
   </g>
   <g id="line2d_5">
    <path d="M 464.149643 237.549721 
L 491.265827 239.296141 
" clip-path="url(#p86c64fa569)" style="fill: none; stroke: #ffffff; stroke-width: 0.72; stroke-linecap: square"/>
   </g>
   <g id="line2d_6">
    <path d="M 977.150715 270.589586 
L 1004.2669 272.336006 
" clip-path="url(#p86c64fa569)" style="fill: none; stroke: #ffffff; stroke-width: 0.72; stroke-linecap: square"/>
   </g>
   <g id="line2d_7">
    <path d="M 848.700891 38.363165 
L 848.700891 36.098801 
" clip-path="url(#p86c64fa569)" style="fill: none; stroke: #ff0000; stroke-width: 0.72; stroke-linecap: square"/>
   </g>
   <g id="line2d_8">
    <path d="M 848.700891 282.588894 
L 848.700891 284.853257 
" clip-path="url(#p86c64fa569)" style="fill: none; stroke: #ff0000; stroke-width: 0.72; stroke-linecap: square"/>
   </g>
   <g id="line2d_9">
    <path d="M 963.563761 160.476029 
L 965.828124 160.476029 
" clip-path="url(#p86c64fa569)" style="fill: none; stroke: #ff0000; stroke-width: 0.72; stroke-linecap: square"/>
   </g>
   <g id="line2d_10">
    <path d="M 733.838021 160.476029 
L 731.573657 160.476029 
" clip-path="url(#p86c64fa569)" style="fill: none; stroke: #ff0000; stroke-width: 0.72; stroke-linecap: square"/>
   </g>
   <g id="line2d_11">
    <path d="M 509.046327 300.533365 
L 509.046327 26.128373 
" clip-path="url(#p86c64fa569)" style="fill: none; stroke: #ffffff; stroke-width: 0.72; stroke-linecap: square"/>
   </g>
   <g id="line2d_12">
    <path d="M 509.046327 213.662291 
L 509.046327 186.489926 
" clip-path="url(#p86c64fa569)" style="fill: none; stroke: #ffffff; stroke-width: 0.72; stroke-linecap: square"/>
   </g>
   <g id="line2d_13">
    <path d="M 509.046327 140.171812 
L 509.046327 112.999447 
" clip-path="url(#p86c64fa569)" style="fill: none; stroke: #ffffff; stroke-width: 0.72; stroke-linecap: square"/>
   </g>
  </g>
 </g>
 <defs>
  <clipPath id="p86c64fa569">
   <rect x="0" y="0" width="1152" height="321.679669"/>
  </clipPath>
 </defs>
</svg>
