<?xml version="1.0" encoding="utf-8" standalone="no"?>
<!DOCTYPE svg PUBLIC "-//W3C//DTD SVG 1.1//EN"
  "http://www.w3.org/Graphics/SVG/1.1/DTD/svg11.dtd">
<svg xmlns:xlink="http://www.w3.org/1999/xlink" width="1152pt" height="214.125322pt" viewBox="0 0 1152 214.125322" xmlns="http://www.w3.org/2000/svg" version="1.1">
 <metadata>
  <rdf:RDF xmlns:dc="http://purl.org/dc/elements/1.1/" xmlns:cc="http://creativecommons.org/ns#" xmlns:rdf="http://www.w3.org/1999/02/22-rdf-syntax-ns#">
   <cc:Work>
    <dc:type rdf:resource="http://purl.org/dc/dcmitype/StillImage"/>
    <dc:date>2026-01-07T02:07:16.975111</dc:date>
    <dc:format>image/svg+xml</dc:format>
    <dc:creator>
     <cc:Agent>
      <dc:title>Matplotlib v3.10.1, https://matplotlib.org/</dc:title>
     </cc:Agent>
    </dc:creator>
   </cc:Work>
  </rdf:RDF>
 </metadata>
 <defs>
  <style type="text/css">*{stroke-linejoin: round; stroke-linecap: butt}</style>
 </defs>
 <g id="figure_1">
  <g id="patch_1">
   <path d="M 0 214.125322 
L 1152 214.125322 
L 1152 0 
L 0 0 
z
" style="fill: #ffffff"/>
  </g>
  <g id="axes_1">
   <g id="patch_2">
    <path d="M 0 214.125322 
L 1152 214.125322 
L 1152 0 
L 0 0 
z
" style="fill: #212830"/>
   </g>
   <g id="patch_3">
    <path d="M 1099.636364 112.492473 
L 1084.702395 107.525391 
L 1056.590799 98.419507 
L 1028.710657 89.738539 
L 1000.994982 81.501327 
L 973.378034 73.707662 
L 945.80863 66.36403 
L 918.243034 59.464725 
L 904.455109 56.183892 
L 876.845279 49.95648 
L 863.023847 47.009176 
L 849.190095 44.174594 
L 835.340712 41.45235 
L 821.474324 38.841109 
L 807.594157 36.340847 
L 793.701042 33.95341 
L 779.79229 31.679143 
L 765.867712 29.516523 
L 751.930736 27.46608 
L 737.981615 25.529915 
L 724.01391 23.709097 
L 710.021251 22.000699 
L 681.975717 18.91217 
L 667.930844 17.534371 
L 639.796804 15.109994 
L 611.649459 13.123016 
L 597.581533 12.298828 
L 569.474041 10.985793 
L 555.450743 10.500054 
L 541.449926 10.13233 
L 527.47248 9.881556 
L 513.526948 9.747399 
L 499.620771 9.732969 
L 485.755146 9.841734 
L 471.930441 10.073579 
L 458.155388 10.427874 
L 444.439117 10.907535 
L 430.783082 11.516778 
L 417.189474 12.2556 
L 403.668004 13.123245 
L 390.229512 14.123012 
L 376.876229 15.259357 
L 363.612673 16.531399 
L 350.452302 17.93855 
L 337.405539 19.48513 
L 324.476243 21.174177 
L 311.674137 23.003477 
L 299.015512 24.973355 
L 286.510821 27.087064 
L 274.169067 29.342257 
L 262.015932 31.729682 
L 250.082207 34.247911 
L 238.38652 36.898502 
L 226.949606 39.671917 
L 215.8088 42.55457 
L 204.997396 45.541733 
L 194.53853 48.624214 
L 184.464092 51.779698 
L 174.813206 54.988373 
L 165.612228 58.238013 
L 156.878509 61.507166 
L 148.632251 64.768583 
L 140.887002 68.004578 
L 133.640275 71.202572 
L 126.881973 74.344371 
L 120.600833 77.413637 
L 114.779407 80.404636 
L 109.391524 83.31724 
L 99.797717 88.89369 
L 91.603144 94.133754 
L 84.599277 99.078241 
L 78.60559 103.753596 
L 73.484999 108.210866 
L 69.080608 112.501951 
L 65.254589 116.592616 
L 61.972897 120.444709 
L 59.256121 124.123916 
L 57.067721 127.736429 
L 55.320445 131.290279 
L 53.968051 134.715641 
L 53.024366 137.984547 
L 52.499273 141.132185 
L 52.363636 144.205206 
L 52.623274 147.287983 
L 52.927368 148.811794 
L 53.369058 150.323193 
L 53.963151 151.826287 
L 54.715601 153.32126 
L 55.622039 154.803203 
L 56.672162 156.263085 
L 57.858921 157.692321 
L 59.1816 159.084157 
L 60.646648 160.435706 
L 62.260597 161.747015 
L 64.02756 163.021145 
L 68.013145 165.474093 
L 72.59844 167.818852 
L 77.846613 170.062533 
L 83.877634 172.229378 
L 90.82412 174.372224 
L 98.860348 176.52989 
L 108.247699 178.719162 
L 119.31284 180.962647 
L 132.442654 183.257695 
L 148.055591 185.584494 
L 166.459565 187.894512 
L 187.74354 190.103908 
L 199.394672 191.144019 
L 224.447782 193.041796 
L 251.372356 194.66665 
L 279.697021 196.008149 
L 309.111825 197.084985 
L 325.756681 197.613198 
L 325.67624 200.251063 
L 354.479186 201.089417 
L 385.12614 201.750425 
L 463.313048 203.037875 
L 510.520349 203.542953 
L 605.045542 204.392353 
L 1099.636364 112.492473 
L 1099.636364 112.492473 
" clip-path="url(#pedd19663e1)" style="fill: none; stroke: #ff0000; stroke-width: 0.72; stroke-linejoin: miter"/>
   </g>
   <g id="patch_4">
    <path d="M 964.21661 78.520778 
L 957.423002 76.683831 
L 959.25995 69.890224 
L 966.053557 71.727171 
L 964.21661 78.520778 
" clip-path="url(#pedd19663e1)" style="fill: none; stroke: #ff0000; stroke-width: 0.72; stroke-linejoin: miter"/>
   </g>
   <g id="patch_5">
    <path d="M 439.818624 18.158292 
L 432.788045 18.472014 
L 432.474323 11.441435 
L 439.504902 11.127713 
L 439.818624 18.158292 
" clip-path="url(#pedd19663e1)" style="fill: none; stroke: #ff0000; stroke-width: 0.72; stroke-linejoin: miter"/>
   </g>
   <g id="patch_6">
    <path d="M 201.922747 53.784959 
L 195.172319 55.774729 
L 193.182549 49.0243 
L 199.932978 47.03453 
L 201.922747 53.784959 
" clip-path="url(#pedd19663e1)" style="fill: none; stroke: #ff0000; stroke-width: 0.72; stroke-linejoin: miter"/>
   </g>
   <g id="patch_7">
    <path d="M 82.088914 112.310774 
L 79.47013 114.661059 
L 73.594419 108.114098 
L 76.213203 105.763813 
L 82.088914 112.310774 
" clip-path="url(#pedd19663e1)" style="fill: none; stroke: #ff0000; stroke-width: 0.72; stroke-linejoin: miter"/>
   </g>
   <g id="patch_8">
    <path d="M 67.534525 154.704154 
L 70.391797 156.757898 
L 65.257436 163.901077 
L 62.400164 161.847333 
L 67.534525 154.704154 
" clip-path="url(#pedd19663e1)" style="fill: none; stroke: #ff0000; stroke-width: 0.72; stroke-linejoin: miter"/>
   </g>
   <g id="patch_9">
    <path d="M 252.913291 187.697656 
L 259.94199 188.051016 
L 259.58863 195.079715 
L 252.559931 194.726355 
L 252.913291 187.697656 
" clip-path="url(#pedd19663e1)" style="fill: none; stroke: #ff0000; stroke-width: 0.72; stroke-linejoin: miter"/>
   </g>
   <g id="patch_10">
    <path d="M 655.862267 106.703433 
L 655.718252 101.854472 
L 655.286779 97.024777 
L 654.569563 92.233535 
L 653.569453 87.499781 
L 652.290421 82.842322 
L 650.737551 78.279664 
L 648.917011 73.829932 
L 646.836035 69.510806 
L 644.502889 65.339446 
L 641.926844 61.332424 
L 639.118134 57.505659 
L 636.087918 53.874357 
L 632.848236 50.452943 
L 629.411957 47.25501 
L 625.792735 44.293265 
L 622.004949 41.579475 
L 618.063646 39.12442 
L 613.984487 36.937855 
L 609.783678 35.028467 
L 605.477907 33.403842 
L 601.084283 32.070435 
L 596.62026 31.033542 
L 592.103574 30.297285 
L 587.552171 29.864587 
L 582.984131 29.737168 
L 578.417605 29.915535 
L 573.870734 30.398978 
L 569.361584 31.185577 
L 564.90807 32.272206 
L 560.527884 33.654549 
L 556.238429 35.327114 
L 552.056748 37.283255 
L 547.999454 39.515201 
L 544.082666 42.014084 
L 540.321946 44.769976 
L 536.732235 47.771929 
L 533.327795 51.008015 
L 530.122151 54.465378 
L 527.12804 58.130281 
L 524.357357 61.988164 
L 521.82111 66.0237 
L 519.529376 70.220856 
L 517.491259 74.562956 
L 515.714857 79.032749 
L 514.207227 83.612478 
L 512.974359 88.283946 
L 512.021152 93.028594 
L 511.351392 97.827573 
L 510.967741 102.661814 
L 510.871722 107.512113 
L 511.063717 112.3592 
L 511.542964 117.183816 
L 512.307558 121.966793 
L 513.354461 126.68913 
L 514.679515 131.332064 
L 516.277454 135.877149 
L 518.141931 140.306327 
L 520.265537 144.602002 
L 522.639836 148.747107 
L 525.255395 152.725174 
L 528.101821 156.520397 
L 531.167807 160.117698 
L 534.441172 163.502786 
L 537.908909 166.662211 
L 541.557243 169.583421 
L 545.371677 172.254811 
L 549.337059 174.665766 
L 553.437632 176.806709 
L 557.657106 178.669133 
L 561.978717 180.245639 
L 566.385295 181.529964 
L 570.859334 182.517004 
L 575.383056 183.202839 
L 579.938491 183.584743 
L 584.50754 183.6612 
L 589.072049 183.431906 
L 593.613884 182.897771 
L 598.115 182.060917 
L 602.557515 180.92467 
L 606.923778 179.493544 
L 611.196443 177.773225 
L 615.358535 175.770546 
L 619.393516 173.493466 
L 623.285358 170.951031 
L 627.018596 168.153341 
L 630.5784 165.111512 
L 633.950626 161.837629 
L 637.121877 158.3447 
L 640.079552 154.646601 
L 642.811902 150.758024 
L 645.308071 146.69442 
L 647.558141 142.471933 
L 649.553174 138.107338 
L 651.285242 133.617976 
L 652.747465 129.021683 
L 653.934033 124.336721 
L 654.840232 119.581702 
L 655.462461 114.775517 
L 655.798249 109.937263 
L 655.862267 106.703433 
L 655.862267 106.703433 
" clip-path="url(#pedd19663e1)" style="fill: none; stroke: #ff0000; stroke-width: 0.72; stroke-linejoin: miter"/>
   </g>
   <g id="line2d_1">
    <path d="M 75.165734 106.703433 
L 1082.187863 106.703433 
" clip-path="url(#pedd19663e1)" style="fill: none; stroke: #ffffff; stroke-width: 0.72; stroke-linecap: square"/>
   </g>
   <g id="line2d_2">
    <path d="M 272.875433 106.703433 
L 293.98816 106.703433 
" clip-path="url(#pedd19663e1)" style="fill: none; stroke: #ffffff; stroke-width: 0.72; stroke-linecap: square"/>
   </g>
   <g id="patch_11">
    <path d="M 283.431797 97.906463 
L 292.228766 106.703433 
L 283.431797 115.500402 
L 274.634827 106.703433 
L 283.431797 97.906463 
" clip-path="url(#pedd19663e1)" style="fill: none; stroke: #ff0000; stroke-width: 0.72; stroke-linejoin: miter"/>
   </g>
   <g id="line2d_3">
    <path d="M 568.120435 106.703433 
L 589.233162 106.703433 
" clip-path="url(#pedd19663e1)" style="fill: none; stroke: #ffffff; stroke-width: 0.72; stroke-linecap: square"/>
   </g>
   <g id="patch_12">
    <path d="M 578.676799 97.906463 
L 587.473768 106.703433 
L 578.676799 115.500402 
L 569.879829 106.703433 
L 578.676799 97.906463 
" clip-path="url(#pedd19663e1)" style="fill: none; stroke: #ff0000; stroke-width: 0.72; stroke-linejoin: miter"/>
   </g>
   <g id="line2d_4">
    <path d="M 863.365438 106.703433 
L 884.478165 106.703433 
" clip-path="url(#pedd19663e1)" style="fill: none; stroke: #ffffff; stroke-width: 0.72; stroke-linecap: square"/>
   </g>
   <g id="patch_13">
    <path d="M 873.921801 97.906463 
L 882.718771 106.703433 
L 873.921801 115.500402 
L 865.124832 106.703433 
L 873.921801 97.906463 
" clip-path="url(#pedd19663e1)" style="fill: none; stroke: #ff0000; stroke-width: 0.72; stroke-linejoin: miter"/>
   </g>
   <g id="line2d_5">
    <path d="M 52.475562 141.464394 
L 714.544322 184.046394 
" clip-path="url(#pedd19663e1)" style="fill: none; stroke: #ffffff; stroke-width: 0.72; stroke-linecap: square"/>
   </g>
   <g id="line2d_6">
    <path d="M 181.202205 149.743652 
L 202.2714 151.09875 
" clip-path="url(#pedd19663e1)" style="fill: none; stroke: #ffffff; stroke-width: 0.72; stroke-linecap: square"/>
   </g>
   <g id="patch_14">
    <path d="M 192.301427 141.64237 
L 200.515634 150.985825 
L 191.172178 159.200032 
L 182.957972 149.856577 
L 192.301427 141.64237 
" clip-path="url(#pedd19663e1)" style="fill: none; stroke: #ff0000; stroke-width: 0.72; stroke-linejoin: miter"/>
   </g>
   <g id="line2d_7">
    <path d="M 341.013155 160.022146 
L 362.08235 161.377244 
" clip-path="url(#pedd19663e1)" style="fill: none; stroke: #ffffff; stroke-width: 0.72; stroke-linecap: square"/>
   </g>
   <g id="patch_15">
    <path d="M 352.112377 151.920864 
L 360.326583 161.264319 
L 350.983128 169.478526 
L 342.768921 160.135071 
L 352.112377 151.920864 
" clip-path="url(#pedd19663e1)" style="fill: none; stroke: #ff0000; stroke-width: 0.72; stroke-linejoin: miter"/>
   </g>
   <g id="line2d_8">
    <path d="M 583.364994 29.736106 
L 583.364994 27.976712 
" clip-path="url(#pedd19663e1)" style="fill: none; stroke: #ff0000; stroke-width: 0.72; stroke-linecap: square"/>
   </g>
   <g id="line2d_9">
    <path d="M 583.364994 183.670759 
L 583.364994 185.430153 
" clip-path="url(#pedd19663e1)" style="fill: none; stroke: #ff0000; stroke-width: 0.72; stroke-linecap: square"/>
   </g>
   <g id="line2d_10">
    <path d="M 655.862267 106.703433 
L 657.621661 106.703433 
" clip-path="url(#pedd19663e1)" style="fill: none; stroke: #ff0000; stroke-width: 0.72; stroke-linecap: square"/>
   </g>
   <g id="line2d_11">
    <path d="M 510.86772 106.703433 
L 509.108326 106.703433 
" clip-path="url(#pedd19663e1)" style="fill: none; stroke: #ff0000; stroke-width: 0.72; stroke-linecap: square"/>
   </g>
   <g id="line2d_12">
    <path d="M 319.455905 197.414602 
L 319.455905 21.891536 
" clip-path="url(#pedd19663e1)" style="fill: none; stroke: #ffffff; stroke-width: 0.72; stroke-linecap: square"/>
   </g>
   <g id="line2d_13">
    <path d="M 319.455905 143.107074 
L 319.455905 121.994347 
" clip-path="url(#pedd19663e1)" style="fill: none; stroke: #ffffff; stroke-width: 0.72; stroke-linecap: square"/>
   </g>
   <g id="patch_16">
    <path d="M 310.658935 132.550711 
L 319.455905 123.753741 
L 328.252874 132.550711 
L 319.455905 141.34768 
L 310.658935 132.550711 
" clip-path="url(#pedd19663e1)" style="fill: none; stroke: #ff0000; stroke-width: 0.72; stroke-linejoin: miter"/>
   </g>
   <g id="line2d_14">
    <path d="M 319.455905 97.311791 
L 319.455905 76.199063 
" clip-path="url(#pedd19663e1)" style="fill: none; stroke: #ffffff; stroke-width: 0.72; stroke-linecap: square"/>
   </g>
   <g id="patch_17">
    <path d="M 310.658935 86.755427 
L 319.455905 77.958457 
L 328.252874 86.755427 
L 319.455905 95.552397 
L 310.658935 86.755427 
" clip-path="url(#pedd19663e1)" style="fill: none; stroke: #ff0000; stroke-width: 0.72; stroke-linejoin: miter"/>
   </g>
   <g id="patch_18">
    <path d="M 443.835459 158.874261 
L 443.835459 167.671231 
L 452.632428 167.671231 
L 452.632428 158.874261 
L 452.632428 176.4682 
" clip-path="url(#pedd19663e1)" style="fill: none; stroke: #ff0000; stroke-width: 0.72; stroke-linejoin: miter"/>
   </g>
   <g id="patch_19">
    <path d="M 457.030913 158.874261 
L 457.030913 167.671231 
L 465.827883 167.671231 
L 465.827883 158.874261 
L 465.827883 176.4682 
" clip-path="url(#pedd19663e1)" style="fill: none; stroke: #ff0000; stroke-width: 0.72; stroke-linejoin: miter"/>
   </g>
  </g>
 </g>
 <defs>
  <clipPath id="pedd19663e1">
   <rect x="0" y="0" width="1152" height="214.125322"/>
  </clipPath>
 </defs>
</svg>
