<?xml version="1.0" encoding="utf-8" standalone="no"?>
<!DOCTYPE svg PUBLIC "-//W3C//DTD SVG 1.1//EN"
  "http://www.w3.org/Graphics/SVG/1.1/DTD/svg11.dtd">
<svg xmlns:xlink="http://www.w3.org/1999/xlink" width="1152pt" height="184.325476pt" viewBox="0 0 1152 184.325476" xmlns="http://www.w3.org/2000/svg" version="1.1">
 <metadata>
  <rdf:RDF xmlns:dc="http://purl.org/dc/elements/1.1/" xmlns:cc="http://creativecommons.org/ns#" xmlns:rdf="http://www.w3.org/1999/02/22-rdf-syntax-ns#">
   <cc:Work>
    <dc:type rdf:resource="http://purl.org/dc/dcmitype/StillImage"/>
    <dc:date>2026-01-07T02:07:09.298023</dc:date>
    <dc:format>image/svg+xml</dc:format>
    <dc:creator>
     <cc:Agent>
      <dc:title>Matplotlib v3.10.1, https://matplotlib.org/</dc:title>
     </cc:Agent>
    </dc:creator>
   </cc:Work>
  </rdf:RDF>
 </metadata>
 <defs>
  <style type="text/css">*{stroke-linejoin: round; stroke-linecap: butt}</style>
 </defs>
 <g id="figure_1">
  <g id="patch_1">
   <path d="M 0 184.325476 
L 1152 184.325476 
L 1152 0 
L 0 0 
z
" style="fill: #ffffff"/>
  </g>
  <g id="axes_1">
   <g id="patch_2">
    <path d="M 0 184.325476 
L 1152 184.325476 
L 1152 0 
L 0 0 
z
" style="fill: #212830"/>
   </g>
   <g id="patch_3">
    <path d="M 1099.446168 174.944816 
L 1084.433537 169.616371 
L 1051.848828 158.19766 
L 977.204277 132.013795 
L 933.603525 116.933934 
L 896.462765 104.342676 
L 867.46957 94.729519 
L 841.990379 86.476678 
L 841.678262 87.448721 
L 816.974245 79.601762 
L 786.002982 70.053279 
L 765.09933 63.84827 
L 744.007675 57.831396 
L 722.749247 52.063774 
L 701.315663 46.563788 
L 679.74362 41.365248 
L 658.042275 36.484378 
L 647.164075 34.179782 
L 636.257604 31.984462 
L 614.309812 27.897786 
L 592.230477 24.1558 
L 570.10275 20.78326 
L 547.940956 17.826002 
L 525.735705 15.272448 
L 503.548249 13.104194 
L 481.415676 11.349584 
L 459.34502 10.007193 
L 437.38654 9.049966 
L 415.603857 8.505689 
L 393.991661 8.378431 
L 372.608013 8.623582 
L 351.555898 9.257823 
L 341.160218 9.743436 
L 320.60073 11.026133 
L 300.457988 12.651499 
L 290.592568 13.608231 
L 280.866556 14.678121 
L 261.79793 17.137124 
L 243.333411 19.894838 
L 234.407127 21.378424 
L 225.697593 22.956801 
L 208.85778 26.385399 
L 192.861581 29.985213 
L 185.256836 31.833795 
L 177.912341 33.738252 
L 163.922716 37.696028 
L 150.836763 41.746015 
L 138.696661 45.838017 
L 127.479619 50.017997 
L 117.083469 54.300774 
L 107.474881 58.630398 
L 98.65916 63.00388 
L 90.60738 67.409087 
L 83.324272 71.816163 
L 76.787866 76.229302 
L 73.804415 78.430249 
L 71.017545 80.626525 
L 68.429574 82.817716 
L 66.040667 85.002998 
L 63.843862 87.186332 
L 61.825624 89.368231 
L 58.321313 93.645587 
L 56.875265 95.696582 
L 55.650494 97.704306 
L 54.634092 99.696848 
L 53.808576 101.675556 
L 53.166711 103.615564 
L 52.70992 105.511497 
L 52.439823 107.40568 
L 52.363636 109.170379 
L 52.476995 110.909901 
L 52.79282 112.57903 
L 53.333352 114.200691 
L 54.119015 115.804202 
L 55.149728 117.398247 
L 56.409364 118.969125 
L 57.893431 120.50007 
L 59.618068 121.985651 
L 61.600322 123.429365 
L 63.839666 124.833532 
L 66.328321 126.194686 
L 69.067911 127.509139 
L 72.067707 128.779742 
L 75.329928 130.014218 
L 82.618448 132.392102 
L 90.903385 134.645628 
L 100.193261 136.771088 
L 110.516553 138.784182 
L 121.899217 140.680513 
L 134.429023 142.460164 
L 148.174592 144.143023 
L 163.232494 145.728398 
L 179.669631 147.22897 
L 197.510583 148.627754 
L 216.697616 149.910469 
L 237.100179 151.056423 
L 258.6034 152.065432 
L 258.561901 153.085511 
L 280.809783 153.948675 
L 303.864732 154.671904 
L 339.590495 155.534523 
L 376.404527 156.110036 
L 439.734995 156.858698 
L 556.938423 157.689703 
L 622.317067 158.03478 
L 749.935543 158.882458 
L 786.726313 159.43402 
L 833.989654 160.467321 
L 867.960939 161.404805 
L 900.462376 162.470173 
L 931.384536 163.721146 
L 960.510555 165.077977 
L 996.411618 167.080328 
L 1012.908783 168.142916 
L 1043.039235 170.386685 
L 1068.468942 172.555043 
L 1083.799567 174.09621 
L 1099.636364 175.947045 
L 1099.446168 174.944816 
L 1099.446168 174.944816 
" clip-path="url(#p849a9f7f8b)" style="fill: none; stroke: #ff0000; stroke-width: 0.72; stroke-linejoin: miter"/>
   </g>
   <g id="patch_4">
    <path d="M 739.330401 60.779945 
L 735.39302 59.696623 
L 736.476342 55.759243 
L 740.413722 56.842564 
L 739.330401 60.779945 
" clip-path="url(#p849a9f7f8b)" style="fill: none; stroke: #ff0000; stroke-width: 0.72; stroke-linejoin: miter"/>
   </g>
   <g id="patch_5">
    <path d="M 343.98109 13.699879 
L 339.901846 13.890468 
L 339.711257 9.811225 
L 343.790501 9.620636 
L 343.98109 13.699879 
" clip-path="url(#p849a9f7f8b)" style="fill: none; stroke: #ff0000; stroke-width: 0.72; stroke-linejoin: miter"/>
   </g>
   <g id="patch_6">
    <path d="M 164.35994 41.830816 
L 160.452045 43.016103 
L 159.266757 39.108207 
L 163.174653 37.92292 
L 164.35994 41.830816 
" clip-path="url(#p849a9f7f8b)" style="fill: none; stroke: #ff0000; stroke-width: 0.72; stroke-linejoin: miter"/>
   </g>
   <g id="patch_7">
    <path d="M 73.493233 85.219425 
L 71.935362 86.53934 
L 68.635574 82.644662 
L 70.193446 81.324748 
L 73.493233 85.219425 
" clip-path="url(#p849a9f7f8b)" style="fill: none; stroke: #ff0000; stroke-width: 0.72; stroke-linejoin: miter"/>
   </g>
   <g id="patch_8">
    <path d="M 63.408575 118.429574 
L 65.06085 119.629209 
L 62.061761 123.759896 
L 60.409486 122.560261 
L 63.408575 118.429574 
" clip-path="url(#p849a9f7f8b)" style="fill: none; stroke: #ff0000; stroke-width: 0.72; stroke-linejoin: miter"/>
   </g>
   <g id="patch_9">
    <path d="M 204.421565 145.016008 
L 208.495368 145.300049 
L 208.211326 149.373853 
L 204.137523 149.089811 
L 204.421565 145.016008 
" clip-path="url(#p849a9f7f8b)" style="fill: none; stroke: #ff0000; stroke-width: 0.72; stroke-linejoin: miter"/>
   </g>
   <g id="line2d_1">
    <path d="M 1080.362761 168.203845 
L 1080.031563 169.169553 
" clip-path="url(#p849a9f7f8b)" style="fill: none; stroke: #ff0000; stroke-width: 0.72; stroke-linecap: square"/>
   </g>
   <g id="line2d_2">
    <path d="M 1079.355294 172.59516 
L 1079.294618 173.614279 
" clip-path="url(#p849a9f7f8b)" style="fill: none; stroke: #ff0000; stroke-width: 0.72; stroke-linecap: square"/>
   </g>
   <g id="line2d_3">
    <path d="M 1061.091493 161.455468 
L 1060.757185 162.420104 
" clip-path="url(#p849a9f7f8b)" style="fill: none; stroke: #ff0000; stroke-width: 0.72; stroke-linecap: square"/>
   </g>
   <g id="line2d_4">
    <path d="M 1059.03711 170.692364 
L 1058.959173 171.710309 
" clip-path="url(#p849a9f7f8b)" style="fill: none; stroke: #ff0000; stroke-width: 0.72; stroke-linecap: square"/>
   </g>
   <g id="line2d_5">
    <path d="M 984.030308 134.395682 
L 983.693373 135.359404 
" clip-path="url(#p849a9f7f8b)" style="fill: none; stroke: #ff0000; stroke-width: 0.72; stroke-linecap: square"/>
   </g>
   <g id="line2d_6">
    <path d="M 977.558383 164.979069 
L 977.484796 165.997337 
" clip-path="url(#p849a9f7f8b)" style="fill: none; stroke: #ff0000; stroke-width: 0.72; stroke-linecap: square"/>
   </g>
   <g id="patch_10">
    <path d="M 511.473682 82.909458 
L 511.356899 78.975983 
L 511.007012 75.058136 
L 510.425411 71.171482 
L 509.614408 67.331462 
L 508.577224 63.553334 
L 507.31798 59.852107 
L 505.84168 56.242486 
L 504.154188 52.738813 
L 502.262208 49.355007 
L 500.173258 46.104512 
L 497.895637 43.000242 
L 495.438394 40.05453 
L 492.811291 37.27908 
L 490.024766 34.684919 
L 487.08989 32.282352 
L 484.018322 30.080926 
L 480.822267 28.089387 
L 477.514421 26.315646 
L 474.107928 24.766751 
L 470.61632 23.448856 
L 467.05347 22.367196 
L 463.433533 21.52607 
L 459.770892 20.928818 
L 456.080096 20.577814 
L 452.375811 20.474452 
L 448.672753 20.619142 
L 444.985634 21.011311 
L 441.329103 21.6494 
L 437.717687 22.530873 
L 434.165735 23.65223 
L 430.687358 25.009013 
L 427.296376 26.595834 
L 424.006261 28.406388 
L 420.830084 30.433481 
L 417.780465 32.66906 
L 414.86952 35.104243 
L 412.108813 37.729355 
L 409.509313 40.533966 
L 407.081347 43.506934 
L 404.834563 46.636448 
L 402.777886 49.910073 
L 400.919487 53.314805 
L 399.26675 56.837115 
L 397.826242 60.463009 
L 396.603684 64.178084 
L 395.603935 67.967577 
L 394.830966 71.816434 
L 394.287849 75.709364 
L 393.976741 79.630899 
L 393.898878 83.56546 
L 394.05457 87.497414 
L 394.443197 91.411141 
L 395.063217 95.291091 
L 395.912165 99.121849 
L 396.986669 102.888195 
L 398.28246 106.575167 
L 399.794389 110.168115 
L 401.51645 113.652765 
L 403.441802 117.015272 
L 405.562794 120.242278 
L 407.871 123.320962 
L 410.35725 126.239092 
L 413.011665 128.985073 
L 415.823701 131.547998 
L 418.782184 133.917683 
L 421.875361 136.084713 
L 425.090942 138.04048 
L 428.416153 139.777212 
L 431.837782 141.288009 
L 435.342235 142.56687 
L 438.915589 143.608714 
L 442.543648 144.409401 
L 446.211996 144.96575 
L 449.90606 145.275551 
L 453.611164 145.337572 
L 457.312586 145.151569 
L 460.995622 144.718279 
L 464.645638 144.039423 
L 468.248134 143.1177 
L 471.788796 141.956771 
L 475.253559 140.561249 
L 478.628655 138.936677 
L 481.900677 137.08951 
L 485.056624 135.027087 
L 488.083957 132.757602 
L 490.970651 130.290072 
L 493.705235 127.634299 
L 496.276845 124.800836 
L 498.675264 121.800939 
L 500.890964 118.646528 
L 502.915141 115.350133 
L 504.739754 111.924853 
L 506.357553 108.384295 
L 507.762111 104.742526 
L 508.947847 101.014015 
L 509.910051 97.213575 
L 510.6449 93.356306 
L 511.149474 89.457531 
L 511.421769 85.53274 
L 511.473682 82.909458 
L 511.473682 82.909458 
" clip-path="url(#p849a9f7f8b)" style="fill: none; stroke: #ff0000; stroke-width: 0.72; stroke-linejoin: miter"/>
   </g>
   <g id="line2d_7">
    <path d="M 68.329283 82.909458 
L 827.463066 82.909458 
" clip-path="url(#p849a9f7f8b)" style="fill: none; stroke: #ffffff; stroke-width: 0.72; stroke-linecap: square"/>
   </g>
   <g id="line2d_8">
    <path d="M 218.012101 82.909458 
L 230.263181 82.909458 
" clip-path="url(#p849a9f7f8b)" style="fill: none; stroke: #ffffff; stroke-width: 0.72; stroke-linecap: square"/>
   </g>
   <g id="patch_11">
    <path d="M 224.137641 77.804841 
L 229.242258 82.909458 
L 224.137641 88.014075 
L 219.033024 82.909458 
L 224.137641 77.804841 
" clip-path="url(#p849a9f7f8b)" style="fill: none; stroke: #ff0000; stroke-width: 0.72; stroke-linejoin: miter"/>
   </g>
   <g id="line2d_9">
    <path d="M 441.770635 82.909458 
L 454.021715 82.909458 
" clip-path="url(#p849a9f7f8b)" style="fill: none; stroke: #ffffff; stroke-width: 0.72; stroke-linecap: square"/>
   </g>
   <g id="patch_12">
    <path d="M 447.896175 77.804841 
L 453.000791 82.909458 
L 447.896175 88.014075 
L 442.791558 82.909458 
L 447.896175 77.804841 
" clip-path="url(#p849a9f7f8b)" style="fill: none; stroke: #ff0000; stroke-width: 0.72; stroke-linejoin: miter"/>
   </g>
   <g id="line2d_10">
    <path d="M 665.529168 82.909458 
L 677.780248 82.909458 
" clip-path="url(#p849a9f7f8b)" style="fill: none; stroke: #ffffff; stroke-width: 0.72; stroke-linecap: square"/>
   </g>
   <g id="patch_13">
    <path d="M 671.654708 77.804841 
L 676.759325 82.909458 
L 671.654708 88.014075 
L 666.550092 82.909458 
L 671.654708 77.804841 
" clip-path="url(#p849a9f7f8b)" style="fill: none; stroke: #ff0000; stroke-width: 0.72; stroke-linejoin: miter"/>
   </g>
   <g id="line2d_11">
    <path d="M 52.497771 106.999288 
L 1099.001774 174.784071 
" clip-path="url(#p849a9f7f8b)" style="fill: none; stroke: #ffffff; stroke-width: 0.72; stroke-linecap: square"/>
   </g>
   <g id="line2d_12">
    <path d="M 259.659116 120.417667 
L 271.884577 121.209541 
" clip-path="url(#p849a9f7f8b)" style="fill: none; stroke: #ffffff; stroke-width: 0.72; stroke-linecap: square"/>
   </g>
   <g id="patch_14">
    <path d="M 266.101795 115.719662 
L 270.865789 121.143552 
L 265.441899 125.907546 
L 260.677905 120.483656 
L 266.101795 115.719662 
" clip-path="url(#p849a9f7f8b)" style="fill: none; stroke: #ff0000; stroke-width: 0.72; stroke-linejoin: miter"/>
   </g>
   <g id="line2d_13">
    <path d="M 517.974055 137.149396 
L 530.199516 137.941271 
" clip-path="url(#p849a9f7f8b)" style="fill: none; stroke: #ffffff; stroke-width: 0.72; stroke-linecap: square"/>
   </g>
   <g id="patch_15">
    <path d="M 524.416733 132.451391 
L 529.180727 137.875281 
L 523.756837 142.639276 
L 518.992843 137.215386 
L 524.416733 132.451391 
" clip-path="url(#p849a9f7f8b)" style="fill: none; stroke: #ff0000; stroke-width: 0.72; stroke-linejoin: miter"/>
   </g>
   <g id="line2d_14">
    <path d="M 452.684658 20.47359 
L 452.684658 19.452667 
" clip-path="url(#p849a9f7f8b)" style="fill: none; stroke: #ff0000; stroke-width: 0.72; stroke-linecap: square"/>
   </g>
   <g id="line2d_15">
    <path d="M 452.684658 145.345327 
L 452.684658 146.36625 
" clip-path="url(#p849a9f7f8b)" style="fill: none; stroke: #ff0000; stroke-width: 0.72; stroke-linecap: square"/>
   </g>
   <g id="line2d_16">
    <path d="M 511.473682 82.909458 
L 512.494606 82.909458 
" clip-path="url(#p849a9f7f8b)" style="fill: none; stroke: #ff0000; stroke-width: 0.72; stroke-linecap: square"/>
   </g>
   <g id="line2d_17">
    <path d="M 393.895633 82.909458 
L 392.87471 82.909458 
" clip-path="url(#p849a9f7f8b)" style="fill: none; stroke: #ff0000; stroke-width: 0.72; stroke-linecap: square"/>
   </g>
   <g id="line2d_18">
    <path d="M 299.546155 154.544149 
L 299.546155 12.739927 
" clip-path="url(#p849a9f7f8b)" style="fill: none; stroke: #ffffff; stroke-width: 0.72; stroke-linecap: square"/>
   </g>
   <g id="line2d_19">
    <path d="M 299.546155 109.047411 
L 299.546155 96.796331 
" clip-path="url(#p849a9f7f8b)" style="fill: none; stroke: #ffffff; stroke-width: 0.72; stroke-linecap: square"/>
   </g>
   <g id="patch_16">
    <path d="M 294.441538 102.921871 
L 299.546155 97.817254 
L 304.650772 102.921871 
L 299.546155 108.026488 
L 294.441538 102.921871 
" clip-path="url(#p849a9f7f8b)" style="fill: none; stroke: #ff0000; stroke-width: 0.72; stroke-linejoin: miter"/>
   </g>
   <g id="line2d_20">
    <path d="M 299.546155 70.487746 
L 299.546155 58.236666 
" clip-path="url(#p849a9f7f8b)" style="fill: none; stroke: #ffffff; stroke-width: 0.72; stroke-linecap: square"/>
   </g>
   <g id="patch_17">
    <path d="M 294.441538 64.362206 
L 299.546155 59.257589 
L 304.650772 64.362206 
L 299.546155 69.466822 
L 294.441538 64.362206 
" clip-path="url(#p849a9f7f8b)" style="fill: none; stroke: #ff0000; stroke-width: 0.72; stroke-linejoin: miter"/>
   </g>
   <g id="line2d_21">
    <path d="M 758.961663 158.990664 
L 758.961663 62.078756 
" clip-path="url(#p849a9f7f8b)" style="fill: none; stroke: #ffffff; stroke-width: 0.72; stroke-linecap: square"/>
   </g>
   <g id="line2d_22">
    <path d="M 758.961663 129.206236 
L 758.961663 116.955156 
" clip-path="url(#p849a9f7f8b)" style="fill: none; stroke: #ffffff; stroke-width: 0.72; stroke-linecap: square"/>
   </g>
   <g id="patch_18">
    <path d="M 753.857046 123.080696 
L 758.961663 117.976079 
L 764.066279 123.080696 
L 758.961663 128.185313 
L 753.857046 123.080696 
" clip-path="url(#p849a9f7f8b)" style="fill: none; stroke: #ff0000; stroke-width: 0.72; stroke-linejoin: miter"/>
   </g>
   <g id="line2d_23">
    <path d="M 758.961663 104.114265 
L 758.961663 91.863185 
" clip-path="url(#p849a9f7f8b)" style="fill: none; stroke: #ffffff; stroke-width: 0.72; stroke-linecap: square"/>
   </g>
   <g id="patch_19">
    <path d="M 753.857046 97.988725 
L 758.961663 92.884108 
L 764.066279 97.988725 
L 758.961663 103.093341 
L 753.857046 97.988725 
" clip-path="url(#p849a9f7f8b)" style="fill: none; stroke: #ff0000; stroke-width: 0.72; stroke-linejoin: miter"/>
   </g>
   <g id="patch_20">
    <path d="M 347.591006 125.24705 
L 352.695623 125.24705 
L 352.695623 130.351667 
L 347.591006 130.351667 
L 347.591006 135.456284 
L 352.695623 135.456284 
" clip-path="url(#p849a9f7f8b)" style="fill: none; stroke: #ff0000; stroke-width: 0.72; stroke-linejoin: miter"/>
   </g>
   <g id="patch_21">
    <path d="M 357.80024 125.24705 
L 357.80024 135.456284 
" clip-path="url(#p849a9f7f8b)" style="fill: none; stroke: #ff0000; stroke-width: 0.72; stroke-linejoin: miter"/>
   </g>
  </g>
 </g>
 <defs>
  <clipPath id="p849a9f7f8b">
   <rect x="0" y="0" width="1152" height="184.325476"/>
  </clipPath>
 </defs>
</svg>
