<?xml version="1.0" encoding="utf-8" standalone="no"?>
<!DOCTYPE svg PUBLIC "-//W3C//DTD SVG 1.1//EN"
  "http://www.w3.org/Graphics/SVG/1.1/DTD/svg11.dtd">
<svg xmlns:xlink="http://www.w3.org/1999/xlink" width="1152pt" height="311.746557pt" viewBox="0 0 1152 311.746557" xmlns="http://www.w3.org/2000/svg" version="1.1">
 <metadata>
  <rdf:RDF xmlns:dc="http://purl.org/dc/elements/1.1/" xmlns:cc="http://creativecommons.org/ns#" xmlns:rdf="http://www.w3.org/1999/02/22-rdf-syntax-ns#">
   <cc:Work>
    <dc:type rdf:resource="http://purl.org/dc/dcmitype/StillImage"/>
    <dc:date>2026-01-07T02:07:23.009507</dc:date>
    <dc:format>image/svg+xml</dc:format>
    <dc:creator>
     <cc:Agent>
      <dc:title>Matplotlib v3.10.1, https://matplotlib.org/</dc:title>
     </cc:Agent>
    </dc:creator>
   </cc:Work>
  </rdf:RDF>
 </metadata>
 <defs>
  <style type="text/css">*{stroke-linejoin: round; stroke-linecap: butt}</style>
 </defs>
 <g id="figure_1">
  <g id="patch_1">
   <path d="M 0 311.746557 
L 1152 311.746557 
L 1152 0 
L 0 0 
z
" style="fill: #ffffff"/>
  </g>
  <g id="axes_1">
   <g id="patch_2">
    <path d="M 0 311.746557 
L 1152 311.746557 
L 1152 0 
L 0 0 
z
" style="fill: #212830"/>
   </g>
   <g id="patch_3">
    <path d="M 1099.636363 256.973216 
L 1099.636364 39.66821 
L 1095.455589 39.097965 
L 1075.13779 36.478054 
L 1054.782408 34.001976 
L 1034.408144 31.660013 
L 1014.023946 29.461791 
L 993.623112 27.409224 
L 973.210643 25.500949 
L 952.78871 23.74018 
L 932.353789 22.120753 
L 911.934892 20.638956 
L 891.523428 19.313631 
L 871.116251 18.131171 
L 850.741829 17.096096 
L 830.389293 16.220689 
L 810.05305 15.499615 
L 789.750001 14.92957 
L 769.483999 14.51881 
L 749.253157 14.266667 
L 729.068578 14.170298 
L 708.94547 14.23624 
L 688.882835 14.4766 
L 668.865118 14.886983 
L 648.927416 15.458093 
L 629.060282 16.215127 
L 609.2653 17.137784 
L 589.571992 18.237823 
L 569.97068 19.519649 
L 550.487962 20.981495 
L 531.119744 22.638031 
L 511.86986 24.484964 
L 492.747455 26.521506 
L 473.777878 28.741977 
L 454.975117 31.160794 
L 436.33749 33.77616 
L 417.894104 36.576527 
L 399.676984 39.557377 
L 381.725797 42.718305 
L 364.06089 46.068504 
L 346.698148 49.601009 
L 329.684793 53.295786 
L 313.044707 57.159288 
L 296.804582 61.170995 
L 280.995071 65.3133 
L 265.658572 69.556817 
L 250.838821 73.891209 
L 236.550975 78.30467 
L 222.813967 82.784548 
L 209.620867 87.324794 
L 196.978243 91.909307 
L 184.859981 96.535217 
L 173.294874 101.165623 
L 162.265046 105.842092 
L 151.757647 110.539341 
L 141.790474 115.258519 
L 132.360777 119.9981 
L 123.508272 124.737852 
L 115.274599 129.459687 
L 107.667142 134.16375 
L 100.743144 138.750614 
L 94.527724 143.199885 
L 88.997922 147.489345 
L 84.097482 151.606357 
L 79.796282 155.490033 
L 75.973995 159.264849 
L 72.580515 162.81759 
L 69.588539 166.17487 
L 66.940693 169.399499 
L 64.596392 172.49593 
L 62.542274 175.438856 
L 60.746234 178.291893 
L 59.166848 181.084554 
L 57.788767 183.769891 
L 56.592741 186.382562 
L 54.671352 191.376685 
L 53.321446 196.048586 
L 52.873199 198.057161 
L 52.421533 202.654534 
L 52.363636 204.633666 
L 52.434071 206.779751 
L 52.670573 208.955495 
L 53.098955 211.168162 
L 53.738175 213.409624 
L 54.615924 215.682063 
L 55.765618 217.994232 
L 57.21045 220.345189 
L 58.959464 222.721348 
L 61.025099 225.107147 
L 63.43547 227.491705 
L 66.246486 229.877241 
L 69.524263 232.278181 
L 73.288911 234.698339 
L 77.55739 237.119355 
L 82.438538 239.523072 
L 88.030423 241.919365 
L 94.325023 244.325736 
L 101.239035 246.712306 
L 108.772745 249.009666 
L 116.891223 251.224425 
L 125.445261 253.350835 
L 134.396583 255.355256 
L 143.762554 257.242579 
L 163.722645 260.870296 
L 174.134761 262.627579 
L 184.9125 264.27656 
L 207.928134 267.460829 
L 232.810394 270.602977 
L 246.067401 272.108489 
L 274.581844 274.995977 
L 305.963293 277.767415 
L 322.712421 279.095759 
L 358.21393 281.559516 
L 376.900683 282.660038 
L 415.895679 284.634118 
L 456.558358 286.292534 
L 462.289548 286.489021 
L 462.112327 291.658264 
L 498.288419 292.808803 
L 541.16928 293.880408 
L 584.574719 294.801401 
L 628.253321 295.491776 
L 716.794448 296.545007 
L 761.1439 296.955668 
L 850.458915 297.43497 
L 881.789288 297.576259 
L 1099.636363 256.973216 
L 1099.636363 256.973216 
" clip-path="url(#pa5a21c09d9)" style="fill: none; stroke: #ff0000; stroke-width: 0.72; stroke-linejoin: miter"/>
   </g>
   <g id="patch_4">
    <path d="M 655.626915 225.139979 
L 648.730541 225.139979 
" clip-path="url(#pa5a21c09d9)" style="fill: none; stroke: #ff0000; stroke-width: 0.72; stroke-linejoin: miter"/>
   </g>
   <g id="patch_5">
    <path d="M 645.282353 225.139979 
L 638.385979 225.139979 
L 638.385979 259.62185 
L 645.282353 259.62185 
" clip-path="url(#pa5a21c09d9)" style="fill: none; stroke: #ff0000; stroke-width: 0.72; stroke-linejoin: miter"/>
   </g>
   <g id="patch_6">
    <path d="M 648.730541 259.62185 
L 655.626915 259.62185 
L 655.626915 242.380915 
L 648.730541 242.380915 
" clip-path="url(#pa5a21c09d9)" style="fill: none; stroke: #ff0000; stroke-width: 0.72; stroke-linejoin: miter"/>
   </g>
   <g id="patch_7">
    <path d="M 645.282353 242.380915 
L 638.385979 242.380915 
" clip-path="url(#pa5a21c09d9)" style="fill: none; stroke: #ff0000; stroke-width: 0.72; stroke-linejoin: miter"/>
   </g>
   <g id="patch_8">
    <path d="M 664.247382 225.139979 
L 681.488318 225.139979 
L 681.488318 242.380915 
L 664.247382 242.380915 
L 664.247382 259.62185 
L 681.488318 259.62185 
" clip-path="url(#pa5a21c09d9)" style="fill: none; stroke: #ff0000; stroke-width: 0.72; stroke-linejoin: miter"/>
   </g>
   <g id="patch_9">
    <path d="M 633.110785 29.834016 
L 619.333002 30.47636 
L 618.690658 16.698578 
L 632.46844 16.056233 
L 633.110785 29.834016 
" clip-path="url(#pa5a21c09d9)" style="fill: none; stroke: #ff0000; stroke-width: 0.72; stroke-linejoin: miter"/>
   </g>
   <g id="patch_10">
    <path d="M 276.956416 80.742055 
L 263.663275 84.420683 
L 259.984647 71.127542 
L 273.277788 67.448914 
L 276.956416 80.742055 
" clip-path="url(#pa5a21c09d9)" style="fill: none; stroke: #ff0000; stroke-width: 0.72; stroke-linejoin: miter"/>
   </g>
   <g id="patch_11">
    <path d="M 99.047416 161.565266 
L 93.769498 166.004136 
L 82.672325 152.809341 
L 87.950242 148.370472 
L 99.047416 161.565266 
" clip-path="url(#pa5a21c09d9)" style="fill: none; stroke: #ff0000; stroke-width: 0.72; stroke-linejoin: miter"/>
   </g>
   <g id="patch_12">
    <path d="M 76.711026 216.169972 
L 82.283951 220.232296 
L 72.12814 234.16461 
L 66.555214 230.102285 
L 76.711026 216.169972 
" clip-path="url(#pa5a21c09d9)" style="fill: none; stroke: #ff0000; stroke-width: 0.72; stroke-linejoin: miter"/>
   </g>
   <g id="patch_13">
    <path d="M 351.774177 267.307139 
L 365.536433 268.223766 
L 364.619806 281.986022 
L 350.85755 281.069395 
L 351.774177 267.307139 
" clip-path="url(#pa5a21c09d9)" style="fill: none; stroke: #ff0000; stroke-width: 0.72; stroke-linejoin: miter"/>
   </g>
   <g id="patch_14">
    <path d="M 967.658545 154.792218 
L 967.552921 149.723996 
L 967.236235 144.664726 
L 966.709047 139.623341 
L 965.972288 134.608746 
L 965.027259 129.629797 
L 963.875628 124.695288 
L 962.519431 119.813932 
L 960.961061 114.994351 
L 959.203272 110.245057 
L 957.249168 105.574437 
L 955.102199 100.99074 
L 952.766158 96.502062 
L 950.245169 92.11633 
L 947.543687 87.841289 
L 944.666481 83.684489 
L 941.618633 79.653272 
L 938.405525 75.754758 
L 935.032833 71.995831 
L 931.506513 68.38313 
L 927.832793 64.923036 
L 924.018161 61.621659 
L 920.069353 58.484829 
L 915.993344 55.518088 
L 911.797332 52.726673 
L 907.488729 50.115516 
L 903.075142 47.689228 
L 898.564368 45.452093 
L 893.964372 43.408063 
L 889.283279 41.560748 
L 884.529356 39.91341 
L 879.710998 38.468959 
L 874.836716 37.229945 
L 869.915118 36.198558 
L 864.954895 35.376617 
L 859.964808 34.765576 
L 854.953671 34.366512 
L 849.930332 34.180132 
L 844.903664 34.206763 
L 839.882545 34.44636 
L 834.875841 34.898499 
L 829.892396 35.562381 
L 824.941011 36.436834 
L 820.030429 37.520313 
L 815.169325 38.810906 
L 810.366282 40.306332 
L 805.629784 42.003951 
L 800.968196 43.900764 
L 796.38975 45.993422 
L 791.902532 48.278229 
L 787.514468 50.751149 
L 783.233306 53.407815 
L 779.066608 56.243536 
L 775.021734 59.253302 
L 771.105825 62.431799 
L 767.325798 65.773414 
L 763.68833 69.272243 
L 760.199843 72.922109 
L 756.8665 76.716565 
L 753.694187 80.64891 
L 750.688506 84.712199 
L 747.854766 88.899255 
L 745.197972 93.202685 
L 742.722816 97.614887 
L 740.433669 102.12807 
L 738.334574 106.734263 
L 736.429238 111.42533 
L 734.721027 116.192987 
L 733.212956 121.028815 
L 731.90769 125.924271 
L 730.807533 130.870711 
L 729.91443 135.859398 
L 729.229956 140.881523 
L 728.75532 145.928215 
L 728.491362 150.990562 
L 728.438547 156.059623 
L 728.596969 161.126445 
L 728.966347 166.182081 
L 729.54603 171.217601 
L 730.334993 176.224113 
L 731.331843 181.192773 
L 732.53482 186.114808 
L 733.941799 190.981524 
L 735.550295 195.784327 
L 737.357468 200.514734 
L 739.360126 205.16439 
L 741.554731 209.725085 
L 743.937409 214.188763 
L 746.503951 218.547542 
L 749.249824 222.793722 
L 752.170178 226.919806 
L 755.259858 230.918505 
L 758.513404 234.782759 
L 761.925072 238.505742 
L 765.488837 242.080879 
L 769.198403 245.501856 
L 773.047221 248.762632 
L 777.028492 251.857447 
L 781.135185 254.780836 
L 785.360047 257.527636 
L 789.695617 260.092996 
L 794.134238 262.472384 
L 798.668071 264.6616 
L 803.289108 266.656776 
L 807.989189 268.454389 
L 812.760013 270.051264 
L 817.593154 271.444581 
L 822.480076 272.631879 
L 827.412148 273.611062 
L 832.38066 274.380399 
L 837.376837 274.938532 
L 842.391856 275.284476 
L 847.416859 275.41762 
L 852.442972 275.337728 
L 857.461318 275.044941 
L 862.463035 274.539777 
L 867.439288 273.823128 
L 872.38129 272.896259 
L 877.280312 271.760808 
L 882.127702 270.418779 
L 886.914899 268.872543 
L 891.633449 267.124831 
L 896.275019 265.178729 
L 900.83141 263.037674 
L 905.294575 260.705447 
L 909.656633 258.186168 
L 913.90988 255.484286 
L 918.046804 252.604572 
L 922.060098 249.552113 
L 925.942675 246.332299 
L 929.687679 242.950816 
L 933.288494 239.413638 
L 936.738762 235.72701 
L 940.032389 231.897444 
L 943.163558 227.931703 
L 946.126739 223.83679 
L 948.916699 219.619939 
L 951.528511 215.288596 
L 953.957562 210.850411 
L 956.199562 206.313222 
L 958.250552 201.685042 
L 960.106908 196.974044 
L 961.765354 192.18855 
L 963.222959 187.337011 
L 964.47715 182.427994 
L 965.525711 177.47017 
L 966.366791 172.472295 
L 966.998904 167.443195 
L 967.420934 162.391752 
L 967.632136 157.326888 
L 967.658545 154.792218 
L 967.658545 154.792218 
" clip-path="url(#pa5a21c09d9)" style="fill: none; stroke: #ff0000; stroke-width: 0.72; stroke-linejoin: miter"/>
   </g>
   <g id="patch_15">
    <path d="M 399.710893 137.551282 
L 416.951829 154.792218 
L 399.710893 172.033153 
L 382.469958 154.792218 
L 399.710893 137.551282 
" clip-path="url(#pa5a21c09d9)" style="fill: none; stroke: #ff0000; stroke-width: 0.72; stroke-linejoin: miter"/>
   </g>
   <g id="patch_16">
    <path d="M 844.803733 137.551282 
L 862.044669 154.792218 
L 844.803733 172.033153 
L 827.562798 154.792218 
L 844.803733 137.551282 
" clip-path="url(#pa5a21c09d9)" style="fill: none; stroke: #ff0000; stroke-width: 0.72; stroke-linejoin: miter"/>
   </g>
   <g id="patch_17">
    <path d="M 272.84775 196.224738 
L 289.064462 214.432373 
L 270.856826 230.649085 
L 254.640115 212.44145 
L 272.84775 196.224738 
" clip-path="url(#pa5a21c09d9)" style="fill: none; stroke: #ff0000; stroke-width: 0.72; stroke-linejoin: miter"/>
   </g>
   <g id="patch_18">
    <path d="M 518.986457 210.460109 
L 535.203169 228.667744 
L 516.995534 244.884456 
L 500.778822 226.676821 
L 518.986457 210.460109 
" clip-path="url(#pa5a21c09d9)" style="fill: none; stroke: #ff0000; stroke-width: 0.72; stroke-linejoin: miter"/>
   </g>
   <g id="patch_19">
    <path d="M 554.949342 191.515468 
L 572.190277 174.274532 
L 589.431213 191.515468 
L 572.190277 208.756403 
L 554.949342 191.515468 
" clip-path="url(#pa5a21c09d9)" style="fill: none; stroke: #ff0000; stroke-width: 0.72; stroke-linejoin: miter"/>
   </g>
   <g id="patch_20">
    <path d="M 554.949342 122.410351 
L 572.190277 105.169416 
L 589.431213 122.410351 
L 572.190277 139.651286 
L 554.949342 122.410351 
" clip-path="url(#pa5a21c09d9)" style="fill: none; stroke: #ff0000; stroke-width: 0.72; stroke-linejoin: miter"/>
   </g>
   <g id="line2d_1">
    <path d="M 80.569118 154.792218 
L 1099.636364 154.792218 
" clip-path="url(#pa5a21c09d9)" style="fill: none; stroke: #ffffff; stroke-width: 0.72; stroke-linecap: square"/>
   </g>
   <g id="line2d_2">
    <path d="M 379.021771 154.792218 
L 420.400016 154.792218 
" clip-path="url(#pa5a21c09d9)" style="fill: none; stroke: #ffffff; stroke-width: 0.72; stroke-linecap: square"/>
   </g>
   <g id="line2d_3">
    <path d="M 824.114611 154.792218 
L 865.492856 154.792218 
" clip-path="url(#pa5a21c09d9)" style="fill: none; stroke: #ffffff; stroke-width: 0.72; stroke-linecap: square"/>
   </g>
   <g id="line2d_4">
    <path d="M 52.565497 200.754514 
L 1081.871977 260.284199 
" clip-path="url(#pa5a21c09d9)" style="fill: none; stroke: #ffffff; stroke-width: 0.72; stroke-linecap: square"/>
   </g>
   <g id="line2d_5">
    <path d="M 251.19768 212.242357 
L 292.506896 214.631466 
" clip-path="url(#pa5a21c09d9)" style="fill: none; stroke: #ffffff; stroke-width: 0.72; stroke-linecap: square"/>
   </g>
   <g id="line2d_6">
    <path d="M 497.336387 226.477729 
L 538.645603 228.866837 
" clip-path="url(#pa5a21c09d9)" style="fill: none; stroke: #ffffff; stroke-width: 0.72; stroke-linecap: square"/>
   </g>
   <g id="line2d_7">
    <path d="M 848.045245 34.165151 
L 848.045245 30.716964 
" clip-path="url(#pa5a21c09d9)" style="fill: none; stroke: #ff0000; stroke-width: 0.72; stroke-linecap: square"/>
   </g>
   <g id="line2d_8">
    <path d="M 848.045245 275.419285 
L 848.045245 278.867472 
" clip-path="url(#pa5a21c09d9)" style="fill: none; stroke: #ff0000; stroke-width: 0.72; stroke-linecap: square"/>
   </g>
   <g id="line2d_9">
    <path d="M 967.658545 154.792218 
L 971.106732 154.792218 
" clip-path="url(#pa5a21c09d9)" style="fill: none; stroke: #ff0000; stroke-width: 0.72; stroke-linecap: square"/>
   </g>
   <g id="line2d_10">
    <path d="M 728.431945 154.792218 
L 724.983758 154.792218 
" clip-path="url(#pa5a21c09d9)" style="fill: none; stroke: #ff0000; stroke-width: 0.72; stroke-linecap: square"/>
   </g>
   <g id="line2d_11">
    <path d="M 572.190277 294.55132 
L 572.190277 19.374499 
" clip-path="url(#pa5a21c09d9)" style="fill: none; stroke: #ffffff; stroke-width: 0.72; stroke-linecap: square"/>
   </g>
   <g id="line2d_12">
    <path d="M 572.190277 212.20459 
L 572.190277 170.826345 
" clip-path="url(#pa5a21c09d9)" style="fill: none; stroke: #ffffff; stroke-width: 0.72; stroke-linecap: square"/>
   </g>
   <g id="line2d_13">
    <path d="M 572.190277 143.099474 
L 572.190277 101.721228 
" clip-path="url(#pa5a21c09d9)" style="fill: none; stroke: #ffffff; stroke-width: 0.72; stroke-linecap: square"/>
   </g>
  </g>
 </g>
 <defs>
  <clipPath id="pa5a21c09d9">
   <rect x="0" y="0" width="1152" height="311.746557"/>
  </clipPath>
 </defs>
</svg>
