<?xml version="1.0" encoding="utf-8" standalone="no"?>
<!DOCTYPE svg PUBLIC "-//W3C//DTD SVG 1.1//EN"
  "http://www.w3.org/Graphics/SVG/1.1/DTD/svg11.dtd">
<svg xmlns:xlink="http://www.w3.org/1999/xlink" width="1152pt" height="321.23145pt" viewBox="0 0 1152 321.23145" xmlns="http://www.w3.org/2000/svg" version="1.1">
 <metadata>
  <rdf:RDF xmlns:dc="http://purl.org/dc/elements/1.1/" xmlns:cc="http://creativecommons.org/ns#" xmlns:rdf="http://www.w3.org/1999/02/22-rdf-syntax-ns#">
   <cc:Work>
    <dc:type rdf:resource="http://purl.org/dc/dcmitype/StillImage"/>
    <dc:date>2026-01-07T02:07:16.858338</dc:date>
    <dc:format>image/svg+xml</dc:format>
    <dc:creator>
     <cc:Agent>
      <dc:title>Matplotlib v3.10.1, https://matplotlib.org/</dc:title>
     </cc:Agent>
    </dc:creator>
   </cc:Work>
  </rdf:RDF>
 </metadata>
 <defs>
  <style type="text/css">*{stroke-linejoin: round; stroke-linecap: butt}</style>
 </defs>
 <g id="figure_1">
  <g id="patch_1">
   <path d="M 0 321.23145 
L 1152 321.23145 
L 1152 0 
L 0 0 
z
" style="fill: #ffffff"/>
  </g>
  <g id="axes_1">
   <g id="patch_2">
    <path d="M 0 321.23145 
L 1152 321.23145 
L 1152 0 
L 0 0 
z
" style="fill: #212830"/>
   </g>
   <g id="patch_3">
    <path d="M 1099.636364 40.954679 
L 1080.421352 38.287599 
L 1059.477943 35.557437 
L 1038.497128 32.995838 
L 1017.483035 30.598098 
L 996.445209 28.364852 
L 975.386102 26.298959 
L 954.303004 24.400022 
L 933.201492 22.663814 
L 912.096343 21.090454 
L 890.996913 19.68451 
L 869.903241 18.448712 
L 848.819158 17.380371 
L 827.758412 16.479928 
L 806.731636 15.751603 
L 785.738568 15.200233 
L 764.780544 14.82422 
L 743.870358 14.623064 
L 723.01917 14.60143 
L 702.228784 14.764515 
L 681.499752 15.112149 
L 660.845154 15.643388 
L 640.278679 16.362606 
L 619.802517 17.276119 
L 599.419956 18.383928 
L 579.14554 19.684898 
L 558.995524 21.183975 
L 538.973264 22.887843 
L 519.085534 24.79518 
L 499.352496 26.905105 
L 479.789784 29.224097 
L 460.403196 31.75671 
L 441.207298 34.499625 
L 422.226511 37.453333 
L 403.476524 40.622709 
L 384.970847 44.004232 
L 366.747954 47.584036 
L 348.854006 51.359983 
L 331.316967 55.334403 
L 314.167923 59.492997 
L 297.462818 63.815403 
L 281.251595 68.294527 
L 265.56897 72.916583 
L 250.462739 77.648117 
L 235.991537 82.459432 
L 222.194925 87.332186 
L 209.098929 92.234207 
L 196.733808 97.124653 
L 185.119876 101.977009 
L 174.253441 106.772395 
L 164.119359 111.483535 
L 154.700712 116.085947 
L 145.971331 120.57104 
L 137.89201 124.938603 
L 130.417361 129.184252 
L 123.505624 133.300785 
L 117.11871 137.289281 
L 111.217158 141.158739 
L 105.761524 144.918237 
L 100.714012 148.573625 
L 96.043739 152.126987 
L 91.725425 155.585181 
L 87.735659 158.96062 
L 84.045857 162.269986 
L 80.624504 165.518966 
L 74.470598 171.815981 
L 69.137212 177.770703 
L 66.780337 180.618159 
L 64.636777 183.399519 
L 62.704673 186.137805 
L 60.971893 188.855259 
L 59.42151 191.557676 
L 58.035098 194.241302 
L 56.800233 196.889356 
L 55.711624 199.488898 
L 54.771164 202.028875 
L 53.984214 204.508312 
L 53.355043 206.93484 
L 52.884031 209.316421 
L 52.567055 211.659422 
L 52.387727 214.172053 
L 52.363636 216.272322 
L 52.478117 218.59177 
L 52.753742 220.900857 
L 53.210601 223.189223 
L 53.874138 225.459029 
L 54.766461 227.716147 
L 55.896357 229.960684 
L 57.257192 232.185279 
L 58.83352 234.376504 
L 60.614805 236.521578 
L 62.599982 238.610408 
L 64.798645 240.638619 
L 67.220492 242.606238 
L 69.871601 244.517843 
L 72.749091 246.379427 
L 75.850544 248.197533 
L 79.173669 249.975471 
L 82.728355 251.714547 
L 86.529182 253.415262 
L 90.599839 255.079695 
L 94.963807 256.714375 
L 99.644642 258.329316 
L 104.668194 259.935543 
L 115.861557 263.156185 
L 122.112528 264.778289 
L 128.868898 266.411613 
L 136.189079 268.061145 
L 144.13717 269.731713 
L 152.781187 271.425229 
L 162.197684 273.138597 
L 172.469002 274.866587 
L 183.674296 276.606875 
L 195.879888 278.355511 
L 209.135973 280.09929 
L 223.475592 281.819245 
L 238.905426 283.500881 
L 255.389437 285.132077 
L 272.859441 286.691644 
L 291.237038 288.161726 
L 310.424546 289.537204 
L 330.308202 290.810713 
L 350.795622 291.973531 
L 371.808156 293.02998 
L 393.265883 293.984986 
L 437.37051 295.599595 
L 462.327737 296.391596 
L 462.248182 299.000401 
L 505.426152 300.25718 
L 551.369411 301.248116 
L 668.59647 303.178424 
L 715.666844 303.716978 
L 905.981059 305.379009 
L 1000.825762 306.039206 
L 1099.636364 306.63002 
L 1099.636364 40.954679 
L 1099.636364 40.954679 
" clip-path="url(#p8f4c487bf9)" style="fill: none; stroke: #ff0000; stroke-width: 0.72; stroke-linejoin: miter"/>
   </g>
   <g id="patch_4">
    <path d="M 639.375431 238.544786 
L 639.375431 251.594874 
L 652.425519 251.594874 
L 652.425519 238.544786 
L 652.425519 264.644961 
" clip-path="url(#p8f4c487bf9)" style="fill: none; stroke: #ff0000; stroke-width: 0.72; stroke-linejoin: miter"/>
   </g>
   <g id="patch_5">
    <path d="M 658.950562 238.544786 
L 672.00065 238.544786 
L 672.00065 251.594874 
L 658.950562 251.594874 
L 672.00065 251.594874 
L 672.00065 264.644961 
L 658.950562 264.644961 
" clip-path="url(#p8f4c487bf9)" style="fill: none; stroke: #ff0000; stroke-width: 0.72; stroke-linejoin: miter"/>
   </g>
   <g id="patch_6">
    <path d="M 633.289802 27.124926 
L 622.86011 27.590325 
L 622.394711 17.160633 
L 632.824403 16.695234 
L 633.289802 27.124926 
" clip-path="url(#p8f4c487bf9)" style="fill: none; stroke: #ff0000; stroke-width: 0.72; stroke-linejoin: miter"/>
   </g>
   <g id="patch_7">
    <path d="M 276.556096 80.562747 
L 266.542001 83.514521 
L 263.590227 73.500427 
L 273.604322 70.548653 
L 276.556096 80.562747 
" clip-path="url(#p8f4c487bf9)" style="fill: none; stroke: #ff0000; stroke-width: 0.72; stroke-linejoin: miter"/>
   </g>
   <g id="patch_8">
    <path d="M 96.833014 168.331043 
L 92.948112 171.817632 
L 84.23164 162.105377 
L 88.116542 158.618788 
L 96.833014 168.331043 
" clip-path="url(#p8f4c487bf9)" style="fill: none; stroke: #ff0000; stroke-width: 0.72; stroke-linejoin: miter"/>
   </g>
   <g id="patch_9">
    <path d="M 75.069196 232.176269 
L 79.307888 235.222948 
L 71.69119 245.819678 
L 67.452498 242.772999 
L 75.069196 232.176269 
" clip-path="url(#p8f4c487bf9)" style="fill: none; stroke: #ff0000; stroke-width: 0.72; stroke-linejoin: miter"/>
   </g>
   <g id="patch_10">
    <path d="M 353.156402 281.638962 
L 363.583303 282.163164 
L 363.059101 292.590065 
L 352.6322 292.065864 
L 353.156402 281.638962 
" clip-path="url(#p8f4c487bf9)" style="fill: none; stroke: #ff0000; stroke-width: 0.72; stroke-linejoin: miter"/>
   </g>
   <g id="patch_11">
    <path d="M 957.816548 160.040204 
L 957.720091 155.168053 
L 957.430892 150.304506 
L 956.949461 145.458153 
L 956.276648 140.637554 
L 955.413641 135.851221 
L 954.361965 131.107609 
L 953.123477 126.415094 
L 951.700365 121.781964 
L 950.095141 117.216402 
L 948.310641 112.72647 
L 946.350015 108.320099 
L 944.216728 104.005071 
L 941.914546 99.789005 
L 939.447536 95.679349 
L 936.820053 91.68336 
L 934.03674 87.808096 
L 931.10251 84.0604 
L 928.022547 80.446892 
L 924.80229 76.973952 
L 921.447426 73.647716 
L 917.96388 70.474056 
L 914.357805 67.458579 
L 910.635568 64.606609 
L 906.803745 61.923184 
L 902.869101 59.413042 
L 898.838587 57.080617 
L 894.71932 54.930029 
L 890.518576 52.965075 
L 886.243773 51.189225 
L 881.902461 49.605617 
L 877.502307 48.217045 
L 873.051082 47.025964 
L 868.556648 46.034477 
L 864.026942 45.244334 
L 859.469965 44.656932 
L 854.893763 44.273307 
L 850.306419 44.094136 
L 845.716035 44.119738 
L 841.130718 44.350065 
L 836.558565 44.784713 
L 832.007652 45.422912 
L 827.486017 46.263535 
L 823.001644 47.305099 
L 818.562453 48.545763 
L 814.176285 49.983337 
L 809.850886 51.615282 
L 805.593895 53.438715 
L 801.412829 55.450416 
L 797.315075 57.646832 
L 793.307867 60.024084 
L 789.398284 62.577974 
L 785.59323 65.303992 
L 781.899426 68.197322 
L 778.323394 71.252856 
L 774.87145 74.465196 
L 771.549691 77.828669 
L 768.363984 81.337335 
L 765.319954 84.984999 
L 762.422978 88.765216 
L 759.678172 92.671312 
L 757.090384 96.696387 
L 754.664183 100.833334 
L 752.403855 105.074845 
L 750.313392 109.41343 
L 748.396486 113.841427 
L 746.656521 118.351015 
L 745.096572 122.93423 
L 743.719393 127.582977 
L 742.527415 132.289047 
L 741.522746 137.044128 
L 740.707158 141.839823 
L 740.082092 146.667661 
L 739.648652 151.519116 
L 739.407604 156.38562 
L 739.359373 161.258578 
L 739.504044 166.129385 
L 739.841363 170.989437 
L 740.370733 175.830153 
L 741.091219 180.642981 
L 742.001548 185.419424 
L 743.100114 190.151044 
L 744.384976 194.829486 
L 745.853865 199.446486 
L 747.504186 203.993892 
L 749.333026 208.463671 
L 751.337153 212.84793 
L 753.513029 217.138925 
L 755.85681 221.329079 
L 758.364359 225.410992 
L 761.031245 229.377453 
L 763.852759 233.221458 
L 766.823917 236.936219 
L 769.939474 240.515174 
L 773.193925 243.952002 
L 776.581524 247.240635 
L 780.096288 250.375264 
L 783.732009 253.350353 
L 787.482267 256.160647 
L 791.340437 258.801184 
L 795.299706 261.267299 
L 799.353082 263.554639 
L 803.493406 265.659162 
L 807.713366 267.577152 
L 812.005509 269.305223 
L 816.362255 270.840321 
L 820.775909 272.179736 
L 825.238676 273.321102 
L 829.742674 274.262403 
L 834.27995 275.001978 
L 838.84249 275.538519 
L 843.422236 275.87108 
L 848.0111 275.999073 
L 852.600978 275.922272 
L 857.183762 275.640812 
L 861.75136 275.155191 
L 866.295706 274.466266 
L 870.808772 273.575254 
L 875.282589 272.483729 
L 879.709256 271.193618 
L 884.080954 269.7072 
L 888.389963 268.0271 
L 892.628672 266.156285 
L 896.789596 264.098059 
L 900.865387 261.856058 
L 904.848845 259.43424 
L 908.732936 256.836883 
L 912.5108 254.068574 
L 916.175766 251.134203 
L 919.721359 248.038951 
L 923.141319 244.788285 
L 926.429606 241.387947 
L 929.580412 237.84394 
L 932.588172 234.162525 
L 935.447575 230.350203 
L 938.15357 226.413708 
L 940.701379 222.35999 
L 943.086502 218.19621 
L 945.304726 213.929721 
L 947.352134 209.568058 
L 949.225111 205.118925 
L 950.920347 200.590178 
L 952.43485 195.989816 
L 953.765944 191.325964 
L 954.911279 186.606859 
L 955.868831 181.840834 
L 956.636911 177.036307 
L 957.21416 172.201764 
L 957.599561 167.345742 
L 957.792431 162.476818 
L 957.816548 160.040204 
L 957.816548 160.040204 
" clip-path="url(#p8f4c487bf9)" style="fill: none; stroke: #ff0000; stroke-width: 0.72; stroke-linejoin: miter"/>
   </g>
   <g id="patch_12">
    <path d="M 398.734909 146.990116 
L 411.784996 160.040204 
L 398.734909 173.090292 
L 385.684821 160.040204 
L 398.734909 146.990116 
" clip-path="url(#p8f4c487bf9)" style="fill: none; stroke: #ff0000; stroke-width: 0.72; stroke-linejoin: miter"/>
   </g>
   <g id="patch_13">
    <path d="M 841.591648 146.990116 
L 854.641736 160.040204 
L 841.591648 173.090292 
L 828.541561 160.040204 
L 841.591648 146.990116 
" clip-path="url(#p8f4c487bf9)" style="fill: none; stroke: #ff0000; stroke-width: 0.72; stroke-linejoin: miter"/>
   </g>
   <g id="patch_14">
    <path d="M 479.911627 226.568405 
L 492.0972 240.429191 
L 478.236414 252.614764 
L 466.050841 238.753978 
L 479.911627 226.568405 
" clip-path="url(#p8f4c487bf9)" style="fill: none; stroke: #ff0000; stroke-width: 0.72; stroke-linejoin: miter"/>
   </g>
   <g id="patch_15">
    <path d="M 991.927132 259.499492 
L 1004.112705 273.360278 
L 990.251919 285.545851 
L 978.066346 271.685065 
L 991.927132 259.499492 
" clip-path="url(#p8f4c487bf9)" style="fill: none; stroke: #ff0000; stroke-width: 0.72; stroke-linejoin: miter"/>
   </g>
   <g id="patch_16">
    <path d="M 444.032227 198.739414 
L 457.082315 185.689326 
L 470.132403 198.739414 
L 457.082315 211.789501 
L 444.032227 198.739414 
" clip-path="url(#p8f4c487bf9)" style="fill: none; stroke: #ff0000; stroke-width: 0.72; stroke-linejoin: miter"/>
   </g>
   <g id="patch_17">
    <path d="M 444.032227 129.719537 
L 457.082315 116.669449 
L 470.132403 129.719537 
L 457.082315 142.769624 
L 444.032227 129.719537 
" clip-path="url(#p8f4c487bf9)" style="fill: none; stroke: #ff0000; stroke-width: 0.72; stroke-linejoin: miter"/>
   </g>
   <g id="line2d_1">
    <path d="M 86.531969 160.040204 
L 1099.636364 160.040204 
" clip-path="url(#p8f4c487bf9)" style="fill: none; stroke: #ffffff; stroke-width: 0.72; stroke-linecap: square"/>
   </g>
   <g id="line2d_2">
    <path d="M 383.074804 160.040204 
L 414.395014 160.040204 
" clip-path="url(#p8f4c487bf9)" style="fill: none; stroke: #ffffff; stroke-width: 0.72; stroke-linecap: square"/>
   </g>
   <g id="line2d_3">
    <path d="M 825.931543 160.040204 
L 857.251753 160.040204 
" clip-path="url(#p8f4c487bf9)" style="fill: none; stroke: #ffffff; stroke-width: 0.72; stroke-linecap: square"/>
   </g>
   <g id="line2d_4">
    <path d="M 52.531483 212.157827 
L 1099.636364 279.504033 
" clip-path="url(#p8f4c487bf9)" style="fill: none; stroke: #ffffff; stroke-width: 0.72; stroke-linecap: square"/>
   </g>
   <g id="line2d_5">
    <path d="M 463.446205 238.586457 
L 494.701836 240.596712 
" clip-path="url(#p8f4c487bf9)" style="fill: none; stroke: #ffffff; stroke-width: 0.72; stroke-linecap: square"/>
   </g>
   <g id="line2d_6">
    <path d="M 975.46171 271.517544 
L 1006.717341 273.527799 
" clip-path="url(#p8f4c487bf9)" style="fill: none; stroke: #ffffff; stroke-width: 0.72; stroke-linecap: square"/>
   </g>
   <g id="line2d_7">
    <path d="M 848.584946 44.079735 
L 848.584946 41.469717 
" clip-path="url(#p8f4c487bf9)" style="fill: none; stroke: #ff0000; stroke-width: 0.72; stroke-linecap: square"/>
   </g>
   <g id="line2d_8">
    <path d="M 848.584946 276.000673 
L 848.584946 278.610691 
" clip-path="url(#p8f4c487bf9)" style="fill: none; stroke: #ff0000; stroke-width: 0.72; stroke-linecap: square"/>
   </g>
   <g id="line2d_9">
    <path d="M 957.816548 160.040204 
L 960.426566 160.040204 
" clip-path="url(#p8f4c487bf9)" style="fill: none; stroke: #ff0000; stroke-width: 0.72; stroke-linecap: square"/>
   </g>
   <g id="line2d_10">
    <path d="M 739.353344 160.040204 
L 736.743326 160.040204 
" clip-path="url(#p8f4c487bf9)" style="fill: none; stroke: #ff0000; stroke-width: 0.72; stroke-linecap: square"/>
   </g>
   <g id="line2d_11">
    <path d="M 457.082315 296.227717 
L 457.082315 32.231233 
" clip-path="url(#p8f4c487bf9)" style="fill: none; stroke: #ffffff; stroke-width: 0.72; stroke-linecap: square"/>
   </g>
   <g id="line2d_12">
    <path d="M 457.082315 214.399519 
L 457.082315 183.079308 
" clip-path="url(#p8f4c487bf9)" style="fill: none; stroke: #ffffff; stroke-width: 0.72; stroke-linecap: square"/>
   </g>
   <g id="line2d_13">
    <path d="M 457.082315 145.379642 
L 457.082315 114.059431 
" clip-path="url(#p8f4c487bf9)" style="fill: none; stroke: #ffffff; stroke-width: 0.72; stroke-linecap: square"/>
   </g>
  </g>
 </g>
 <defs>
  <clipPath id="p8f4c487bf9">
   <rect x="0" y="0" width="1152" height="321.23145"/>
  </clipPath>
 </defs>
</svg>
