<?xml version="1.0" encoding="utf-8" standalone="no"?>
<!DOCTYPE svg PUBLIC "-//W3C//DTD SVG 1.1//EN"
  "http://www.w3.org/Graphics/SVG/1.1/DTD/svg11.dtd">
<svg xmlns:xlink="http://www.w3.org/1999/xlink" width="1152pt" height="169.328193pt" viewBox="0 0 1152 169.328193" xmlns="http://www.w3.org/2000/svg" version="1.1">
 <metadata>
  <rdf:RDF xmlns:dc="http://purl.org/dc/elements/1.1/" xmlns:cc="http://creativecommons.org/ns#" xmlns:rdf="http://www.w3.org/1999/02/22-rdf-syntax-ns#">
   <cc:Work>
    <dc:type rdf:resource="http://purl.org/dc/dcmitype/StillImage"/>
    <dc:date>2026-01-07T02:07:25.207871</dc:date>
    <dc:format>image/svg+xml</dc:format>
    <dc:creator>
     <cc:Agent>
      <dc:title>Matplotlib v3.10.1, https://matplotlib.org/</dc:title>
     </cc:Agent>
    </dc:creator>
   </cc:Work>
  </rdf:RDF>
 </metadata>
 <defs>
  <style type="text/css">*{stroke-linejoin: round; stroke-linecap: butt}</style>
 </defs>
 <g id="figure_1">
  <g id="patch_1">
   <path d="M 0 169.328193 
L 1152 169.328193 
L 1152 0 
L 0 0 
z
" style="fill: #ffffff"/>
  </g>
  <g id="axes_1">
   <g id="patch_2">
    <path d="M 0 169.328193 
L 1152 169.328193 
L 1152 0 
L 0 0 
z
" style="fill: #212830"/>
   </g>
   <g id="patch_3">
    <path d="M 1099.292971 147.519021 
L 1086.529854 144.851163 
L 1069.134642 140.993823 
L 1050.72019 136.731741 
L 1022.588047 129.922116 
L 994.373124 122.790012 
L 966.26489 115.344975 
L 938.080054 107.716996 
L 891.09578 94.705995 
L 844.17372 81.826024 
L 838.311204 80.261521 
L 837.428754 83.568243 
L 824.584258 80.185749 
L 805.867667 75.39354 
L 787.138065 70.756594 
L 768.418657 66.321557 
L 749.622329 62.073746 
L 730.80624 57.988825 
L 711.983677 54.111683 
L 693.102418 50.418336 
L 674.216942 46.955329 
L 655.262707 43.667312 
L 636.308788 40.593334 
L 617.283379 37.72162 
L 598.245495 35.035032 
L 579.150773 32.543561 
L 560.067666 30.239169 
L 540.975945 28.153644 
L 521.839188 26.254771 
L 502.706085 24.574881 
L 483.5917 23.105091 
L 464.45617 21.864623 
L 445.305868 20.851129 
L 426.190103 20.053049 
L 407.06967 19.525847 
L 387.986646 19.243212 
L 368.893429 19.213347 
L 349.863463 19.455189 
L 330.863935 20.007318 
L 311.885903 20.851003 
L 292.97511 22.012131 
L 274.100511 23.496001 
L 255.389322 25.303925 
L 236.782837 27.523851 
L 227.538006 28.789569 
L 218.323978 30.169382 
L 199.968593 33.256956 
L 190.902262 34.953995 
L 181.913198 36.781005 
L 173.009941 38.744913 
L 164.184972 40.855916 
L 155.464837 43.115694 
L 146.818511 45.545305 
L 138.327758 48.096465 
L 129.992691 50.830856 
L 121.843421 53.715676 
L 113.94565 56.757243 
L 106.329395 59.952528 
L 99.093347 63.260525 
L 92.339259 66.642603 
L 86.103786 70.095074 
L 80.512867 73.461789 
L 75.625791 76.702971 
L 71.428757 79.773973 
L 67.861814 82.643775 
L 64.943788 85.187542 
L 60.441642 89.807248 
L 58.822352 91.722324 
L 57.496391 93.532719 
L 55.513222 96.783472 
L 54.171222 99.680785 
L 53.293964 102.067212 
L 52.75396 104.142407 
L 52.363636 106.813002 
L 52.796902 110.795714 
L 53.542983 112.700588 
L 54.142849 113.772555 
L 54.924982 114.921817 
L 55.911819 116.14295 
L 57.117989 117.420142 
L 58.579555 118.745935 
L 60.355592 120.118823 
L 62.543083 121.551452 
L 65.233917 123.063302 
L 68.428101 124.654473 
L 72.135085 126.295792 
L 76.53572 127.952817 
L 81.778094 129.625268 
L 87.838764 131.33428 
L 94.579109 133.041434 
L 101.991788 134.641141 
L 109.999572 136.143432 
L 118.360526 137.542685 
L 126.997111 138.780102 
L 135.912995 139.850077 
L 154.436906 141.757526 
L 163.687998 142.624405 
L 172.988838 143.322822 
L 201.594906 145.05647 
L 220.651483 145.966447 
L 239.875331 146.595803 
L 256.391171 147.030334 
L 256.304271 150.451675 
L 278.499872 150.940105 
L 297.782464 151.238619 
L 356.271994 151.727906 
L 385.570977 151.758207 
L 463.955326 151.508755 
L 512.920722 151.122624 
L 571.607104 150.430972 
L 669.342215 148.700091 
L 708.400896 147.92084 
L 776.729819 146.391702 
L 845.150571 145.013009 
L 903.857341 144.141243 
L 942.890962 143.82036 
L 991.578377 143.805029 
L 1020.747679 144.071815 
L 1049.760078 144.588295 
L 1077.870596 145.37452 
L 1099.636364 146.238426 
L 1099.292971 147.519021 
L 1099.292971 147.519021 
" clip-path="url(#p13a47a9877)" style="fill: none; stroke: #ff0000; stroke-width: 0.72; stroke-linejoin: miter"/>
   </g>
   <g id="patch_4">
    <path d="M 737.072707 73.334848 
L 723.687582 70.462833 
L 726.559597 57.077707 
L 739.944722 59.949723 
L 737.072707 73.334848 
" clip-path="url(#p13a47a9877)" style="fill: none; stroke: #ff0000; stroke-width: 0.72; stroke-linejoin: miter"/>
   </g>
   <g id="patch_5">
    <path d="M 342.796642 33.311485 
L 329.114289 33.762343 
L 328.663431 20.07999 
L 342.345784 19.629132 
L 342.796642 33.311485 
" clip-path="url(#p13a47a9877)" style="fill: none; stroke: #ff0000; stroke-width: 0.72; stroke-linejoin: miter"/>
   </g>
   <g id="patch_6">
    <path d="M 166.627097 54.365163 
L 153.37547 57.800922 
L 149.939711 44.549295 
L 163.191338 41.113536 
L 166.627097 54.365163 
" clip-path="url(#p13a47a9877)" style="fill: none; stroke: #ff0000; stroke-width: 0.72; stroke-linejoin: miter"/>
   </g>
   <g id="patch_7">
    <path d="M 81.339686 93.585654 
L 76.192043 98.097227 
L 64.913112 85.228119 
L 70.060755 80.716547 
L 81.339686 93.585654 
" clip-path="url(#p13a47a9877)" style="fill: none; stroke: #ff0000; stroke-width: 0.72; stroke-linejoin: miter"/>
   </g>
   <g id="patch_8">
    <path d="M 67.867302 104.308493 
L 73.310269 108.45899 
L 62.934026 122.066407 
L 57.49106 117.91591 
L 67.867302 104.308493 
" clip-path="url(#p13a47a9877)" style="fill: none; stroke: #ff0000; stroke-width: 0.72; stroke-linejoin: miter"/>
   </g>
   <g id="patch_9">
    <path d="M 197.778872 131.149663 
L 211.450165 131.860866 
L 210.738962 145.532158 
L 197.067669 144.820956 
L 197.778872 131.149663 
" clip-path="url(#p13a47a9877)" style="fill: none; stroke: #ff0000; stroke-width: 0.72; stroke-linejoin: miter"/>
   </g>
   <g id="line2d_1">
    <path d="M 1032.597696 132.379622 
L 1031.903226 135.730867 
" clip-path="url(#p13a47a9877)" style="fill: none; stroke: #ff0000; stroke-width: 0.72; stroke-linecap: square"/>
   </g>
   <g id="line2d_2">
    <path d="M 1031.305824 140.810954 
L 1031.203967 144.231883 
" clip-path="url(#p13a47a9877)" style="fill: none; stroke: #ff0000; stroke-width: 0.72; stroke-linecap: square"/>
   </g>
   <g id="line2d_3">
    <path d="M 966.263312 115.344553 
L 965.4902 118.678534 
" clip-path="url(#p13a47a9877)" style="fill: none; stroke: #ff0000; stroke-width: 0.72; stroke-linecap: square"/>
   </g>
   <g id="line2d_4">
    <path d="M 962.810124 140.346084 
L 962.747597 143.767957 
" clip-path="url(#p13a47a9877)" style="fill: none; stroke: #ff0000; stroke-width: 0.72; stroke-linecap: square"/>
   </g>
   <g id="line2d_5">
    <path d="M 699.954297 51.74751 
L 699.166617 55.078079 
" clip-path="url(#p13a47a9877)" style="fill: none; stroke: #ff0000; stroke-width: 0.72; stroke-linecap: square"/>
   </g>
   <g id="line2d_6">
    <path d="M 688.917111 144.921472 
L 688.934402 148.343873 
" clip-path="url(#p13a47a9877)" style="fill: none; stroke: #ff0000; stroke-width: 0.72; stroke-linecap: square"/>
   </g>
   <g id="patch_10">
    <path d="M 521.107918 84.664097 
L 520.963821 80.030749 
L 520.532102 75.41581 
L 519.814475 70.837613 
L 518.813793 66.31435 
L 517.534031 61.863989 
L 515.980273 57.504212 
L 514.158692 53.252341 
L 512.076526 49.125269 
L 509.742047 45.139391 
L 507.164529 41.310544 
L 504.354213 37.65394 
L 501.322265 34.184105 
L 498.080731 30.914827 
L 494.642488 27.859094 
L 491.021197 25.029045 
L 487.231245 22.435925 
L 483.28769 20.090036 
L 479.206199 18.000698 
L 475.002988 16.176213 
L 470.694756 14.623828 
L 466.29862 13.349711 
L 461.832045 12.358925 
L 457.312778 11.655406 
L 452.758772 11.241949 
L 448.188121 11.120196 
L 443.618984 11.290631 
L 439.069515 11.752577 
L 434.557787 12.5042 
L 430.101726 13.542511 
L 425.719037 14.863387 
L 421.42713 16.46158 
L 417.243058 18.33074 
L 413.183445 20.463441 
L 409.264418 22.851209 
L 405.501548 25.484558 
L 401.909785 28.353027 
L 398.503398 31.445218 
L 395.295922 34.748846 
L 392.3001 38.250787 
L 389.527833 41.937126 
L 386.990136 45.793219 
L 384.697092 49.803745 
L 382.657809 53.95277 
L 380.880392 58.223811 
L 379.3719 62.599898 
L 378.138328 67.063646 
L 377.184576 71.59732 
L 376.514433 76.182908 
L 376.130562 80.802192 
L 376.034488 85.436819 
L 376.226593 90.068376 
L 376.706114 94.678461 
L 377.471145 99.24876 
L 378.518647 103.761115 
L 379.844458 108.197597 
L 381.443311 112.540581 
L 383.308853 116.772813 
L 385.433673 120.877478 
L 387.80933 124.838267 
L 390.426384 128.639446 
L 393.274438 132.265911 
L 396.342176 135.703256 
L 399.617412 138.937823 
L 403.087132 141.956762 
L 406.737551 144.748079 
L 410.554166 147.300683 
L 414.521814 149.604433 
L 418.624732 151.650178 
L 422.846618 153.429787 
L 427.170699 154.936193 
L 431.579797 156.163409 
L 436.056392 157.10656 
L 440.582701 157.761899 
L 445.14074 158.126821 
L 449.7124 158.199879 
L 454.279519 157.98078 
L 458.82395 157.470395 
L 463.32764 156.670753 
L 467.772694 155.585031 
L 472.141454 154.217541 
L 476.416561 152.573716 
L 480.581032 150.660089 
L 484.61832 148.484261 
L 488.512386 146.054876 
L 492.247759 143.381588 
L 495.809598 140.475016 
L 499.183751 137.346709 
L 502.356815 134.009096 
L 505.316181 130.475435 
L 508.050093 126.759767 
L 510.547689 122.876854 
L 512.799046 118.842123 
L 514.795219 114.671603 
L 516.528277 110.381864 
L 517.991336 105.989949 
L 519.178582 101.513307 
L 520.085299 96.969724 
L 520.707884 92.37725 
L 521.043863 87.754132 
L 521.107918 84.664097 
L 521.107918 84.664097 
" clip-path="url(#p13a47a9877)" style="fill: none; stroke: #ff0000; stroke-width: 0.72; stroke-linejoin: miter"/>
   </g>
   <g id="line2d_7">
    <path d="M 65.544247 84.664097 
L 854.649947 84.664097 
" clip-path="url(#p13a47a9877)" style="fill: none; stroke: #ffffff; stroke-width: 0.72; stroke-linecap: square"/>
   </g>
   <g id="line2d_8">
    <path d="M 216.178253 84.664097 
L 257.24759 84.664097 
" clip-path="url(#p13a47a9877)" style="fill: none; stroke: #ffffff; stroke-width: 0.72; stroke-linecap: square"/>
   </g>
   <g id="patch_11">
    <path d="M 236.712921 67.551873 
L 253.825145 84.664097 
L 236.712921 101.776321 
L 219.600698 84.664097 
L 236.712921 67.551873 
" clip-path="url(#p13a47a9877)" style="fill: none; stroke: #ff0000; stroke-width: 0.72; stroke-linejoin: miter"/>
   </g>
   <g id="line2d_9">
    <path d="M 439.562428 84.664097 
L 480.631765 84.664097 
" clip-path="url(#p13a47a9877)" style="fill: none; stroke: #ffffff; stroke-width: 0.72; stroke-linecap: square"/>
   </g>
   <g id="patch_12">
    <path d="M 460.097097 67.551873 
L 477.209321 84.664097 
L 460.097097 101.776321 
L 442.984873 84.664097 
L 460.097097 67.551873 
" clip-path="url(#p13a47a9877)" style="fill: none; stroke: #ff0000; stroke-width: 0.72; stroke-linejoin: miter"/>
   </g>
   <g id="line2d_10">
    <path d="M 662.946603 84.664097 
L 704.015941 84.664097 
" clip-path="url(#p13a47a9877)" style="fill: none; stroke: #ffffff; stroke-width: 0.72; stroke-linecap: square"/>
   </g>
   <g id="patch_13">
    <path d="M 683.481272 67.551873 
L 700.593496 84.664097 
L 683.481272 101.776321 
L 666.369048 84.664097 
L 683.481272 67.551873 
" clip-path="url(#p13a47a9877)" style="fill: none; stroke: #ff0000; stroke-width: 0.72; stroke-linejoin: miter"/>
   </g>
   <g id="line2d_11">
    <path d="M 52.475302 105.884803 
L 1091.836309 145.968744 
" clip-path="url(#p13a47a9877)" style="fill: none; stroke: #ffffff; stroke-width: 0.72; stroke-linecap: square"/>
   </g>
   <g id="line2d_12">
    <path d="M 253.165708 113.624619 
L 294.204537 115.20732 
" clip-path="url(#p13a47a9877)" style="fill: none; stroke: #ffffff; stroke-width: 0.72; stroke-linecap: square"/>
   </g>
   <g id="patch_14">
    <path d="M 274.344582 97.316457 
L 290.784635 115.075428 
L 273.025664 131.515482 
L 256.58561 113.756511 
L 274.344582 97.316457 
" clip-path="url(#p13a47a9877)" style="fill: none; stroke: #ff0000; stroke-width: 0.72; stroke-linejoin: miter"/>
   </g>
   <g id="line2d_13">
    <path d="M 501.891277 123.216956 
L 542.930106 124.799657 
" clip-path="url(#p13a47a9877)" style="fill: none; stroke: #ffffff; stroke-width: 0.72; stroke-linecap: square"/>
   </g>
   <g id="patch_15">
    <path d="M 523.07015 106.908794 
L 539.510204 124.667765 
L 521.751233 141.107819 
L 505.311179 123.348847 
L 523.07015 106.908794 
" clip-path="url(#p13a47a9877)" style="fill: none; stroke: #ff0000; stroke-width: 0.72; stroke-linejoin: miter"/>
   </g>
   <g id="line2d_14">
    <path d="M 448.569201 11.119181 
L 448.569201 7.696736 
" clip-path="url(#p13a47a9877)" style="fill: none; stroke: #ff0000; stroke-width: 0.72; stroke-linecap: square"/>
   </g>
   <g id="line2d_15">
    <path d="M 448.569201 158.209012 
L 448.569201 161.631457 
" clip-path="url(#p13a47a9877)" style="fill: none; stroke: #ff0000; stroke-width: 0.72; stroke-linecap: square"/>
   </g>
   <g id="line2d_16">
    <path d="M 521.107918 84.664097 
L 524.530363 84.664097 
" clip-path="url(#p13a47a9877)" style="fill: none; stroke: #ff0000; stroke-width: 0.72; stroke-linecap: square"/>
   </g>
   <g id="line2d_17">
    <path d="M 376.030484 84.664097 
L 372.60804 84.664097 
" clip-path="url(#p13a47a9877)" style="fill: none; stroke: #ff0000; stroke-width: 0.72; stroke-linecap: square"/>
   </g>
   <g id="patch_16">
    <path d="M 350.100576 103.096406 
L 343.255686 103.096406 
L 343.255686 137.320854 
L 350.100576 137.320854 
" clip-path="url(#p13a47a9877)" style="fill: none; stroke: #ff0000; stroke-width: 0.72; stroke-linejoin: miter"/>
   </g>
   <g id="patch_17">
    <path d="M 353.523021 137.320854 
L 360.36791 137.320854 
L 360.36791 103.096406 
L 353.523021 103.096406 
" clip-path="url(#p13a47a9877)" style="fill: none; stroke: #ff0000; stroke-width: 0.72; stroke-linejoin: miter"/>
   </g>
   <g id="patch_18">
    <path d="M 343.255686 120.20863 
L 350.100576 120.20863 
" clip-path="url(#p13a47a9877)" style="fill: none; stroke: #ff0000; stroke-width: 0.72; stroke-linejoin: miter"/>
   </g>
   <g id="patch_19">
    <path d="M 353.523021 120.20863 
L 360.36791 120.20863 
" clip-path="url(#p13a47a9877)" style="fill: none; stroke: #ff0000; stroke-width: 0.72; stroke-linejoin: miter"/>
   </g>
   <g id="patch_20">
    <path d="M 368.924022 103.096406 
L 386.036246 103.096406 
L 386.036246 120.20863 
L 368.924022 120.20863 
L 386.036246 120.20863 
L 386.036246 137.320854 
L 368.924022 137.320854 
" clip-path="url(#p13a47a9877)" style="fill: none; stroke: #ff0000; stroke-width: 0.72; stroke-linejoin: miter"/>
   </g>
  </g>
 </g>
 <defs>
  <clipPath id="p13a47a9877">
   <rect x="0" y="0" width="1152" height="169.328193"/>
  </clipPath>
 </defs>
</svg>
