<?xml version="1.0" encoding="utf-8" standalone="no"?>
<!DOCTYPE svg PUBLIC "-//W3C//DTD SVG 1.1//EN"
  "http://www.w3.org/Graphics/SVG/1.1/DTD/svg11.dtd">
<svg xmlns:xlink="http://www.w3.org/1999/xlink" width="1152pt" height="320.678453pt" viewBox="0 0 1152 320.678453" xmlns="http://www.w3.org/2000/svg" version="1.1">
 <metadata>
  <rdf:RDF xmlns:dc="http://purl.org/dc/elements/1.1/" xmlns:cc="http://creativecommons.org/ns#" xmlns:rdf="http://www.w3.org/1999/02/22-rdf-syntax-ns#">
   <cc:Work>
    <dc:type rdf:resource="http://purl.org/dc/dcmitype/StillImage"/>
    <dc:date>2026-01-07T02:07:19.608294</dc:date>
    <dc:format>image/svg+xml</dc:format>
    <dc:creator>
     <cc:Agent>
      <dc:title>Matplotlib v3.10.1, https://matplotlib.org/</dc:title>
     </cc:Agent>
    </dc:creator>
   </cc:Work>
  </rdf:RDF>
 </metadata>
 <defs>
  <style type="text/css">*{stroke-linejoin: round; stroke-linecap: butt}</style>
 </defs>
 <g id="figure_1">
  <g id="patch_1">
   <path d="M 0 320.678453 
L 1152 320.678453 
L 1152 0 
L 0 0 
z
" style="fill: #ffffff"/>
  </g>
  <g id="axes_1">
   <g id="patch_2">
    <path d="M 0 320.678453 
L 1152 320.678453 
L 1152 0 
L 0 0 
z
" style="fill: #212830"/>
   </g>
   <g id="patch_3">
    <path d="M 1099.636363 265.603177 
L 1099.636364 40.948172 
L 1080.342222 38.270091 
L 1059.392434 35.539079 
L 1038.40509 32.976666 
L 1017.384438 30.578161 
L 996.340108 28.344208 
L 975.274483 26.277659 
L 954.184738 24.378106 
L 933.076545 22.641333 
L 911.964818 21.067465 
L 890.858891 19.661072 
L 869.75866 18.424872 
L 848.668029 17.356182 
L 827.600858 16.455447 
L 806.567815 15.726887 
L 785.568474 15.175333 
L 764.604196 14.799189 
L 743.687922 14.597955 
L 722.830836 14.576293 
L 702.034606 14.739403 
L 681.299772 15.087113 
L 660.639568 15.618473 
L 640.067736 16.337853 
L 619.586307 17.251576 
L 599.198563 18.359641 
L 578.919227 19.660899 
L 558.764593 21.160289 
L 538.737822 22.86451 
L 518.845742 24.772232 
L 499.108729 26.882547 
L 479.542353 29.201934 
L 460.152244 31.734968 
L 440.953134 34.478301 
L 421.969562 37.432395 
L 403.217005 40.602157 
L 384.708842 43.984086 
L 366.483986 47.564223 
L 348.588694 51.340392 
L 331.05054 55.315002 
L 313.900684 59.473729 
L 297.195523 63.796075 
L 280.984797 68.274981 
L 265.30284 72.896759 
L 250.197787 77.627838 
L 235.728587 82.43839 
L 221.934325 87.310215 
L 208.840871 92.211186 
L 196.478937 97.100265 
L 184.868841 101.950904 
L 174.006405 106.744412 
L 163.87652 111.45349 
L 154.462694 116.053423 
L 145.738798 120.535564 
L 137.665185 124.899907 
L 130.196268 129.142167 
L 123.290645 133.25492 
L 116.910465 137.239053 
L 111.016147 141.103595 
L 105.567978 144.857769 
L 100.528069 148.507463 
L 95.865924 152.054428 
L 91.556574 155.505189 
L 87.576457 158.872164 
L 83.895968 162.17288 
L 80.482908 165.413725 
L 74.342098 171.696969 
L 69.023642 177.634434 
L 66.677312 180.468611 
L 64.546137 183.233073 
L 62.627019 185.951879 
L 60.906282 188.649299 
L 59.366332 191.332437 
L 57.988767 193.99793 
L 56.761912 196.627741 
L 55.68105 199.207464 
L 54.748395 201.724473 
L 53.969008 204.177277 
L 53.346437 206.574327 
L 52.880438 208.924953 
L 52.566567 211.237016 
L 52.387401 213.747196 
L 52.363636 215.785444 
L 52.474819 218.068384 
L 52.743643 220.336655 
L 53.189208 222.580555 
L 53.836866 224.805241 
L 54.709943 227.020234 
L 55.818986 229.227813 
L 57.158452 231.420598 
L 58.71284 233.583732 
L 60.471194 235.703234 
L 62.432352 237.768601 
L 64.606837 239.776041 
L 67.005616 241.726121 
L 69.635892 243.623583 
L 72.494879 245.473837 
L 75.579758 247.282715 
L 78.887314 249.052736 
L 82.427217 250.78494 
L 86.21397 252.479677 
L 90.271913 254.139173 
L 94.624942 255.769954 
L 99.29662 257.381885 
L 104.312583 258.985798 
L 115.493239 262.202953 
L 121.738728 263.823712 
L 128.490436 265.455976 
L 135.806784 267.104702 
L 143.751741 268.774664 
L 152.393076 270.467704 
L 161.807361 272.180718 
L 172.077266 273.908513 
L 183.282043 275.648759 
L 195.487766 277.397449 
L 208.744554 279.141357 
L 223.085744 280.861531 
L 238.518176 282.543477 
L 255.00549 284.175025 
L 272.479505 285.734973 
L 290.862083 287.205471 
L 310.055333 288.581377 
L 329.945267 289.855303 
L 350.439702 291.01853 
L 371.459896 292.075373 
L 392.925606 293.030742 
L 437.049006 294.646044 
L 462.018258 295.438427 
L 461.882522 299.889567 
L 505.091518 301.147231 
L 551.066818 302.138848 
L 668.359603 304.070228 
L 715.458497 304.609106 
L 880.980864 306.102159 
L 1099.636363 265.603177 
L 1099.636363 265.603177 
" clip-path="url(#p26d413a071)" style="fill: none; stroke: #ff0000; stroke-width: 0.72; stroke-linejoin: miter"/>
   </g>
   <g id="patch_4">
    <path d="M 653.984156 234.52343 
L 639.140124 234.52343 
L 639.140124 249.367462 
L 653.984156 249.367462 
L 653.984156 264.211494 
L 639.140124 264.211494 
" clip-path="url(#p26d413a071)" style="fill: none; stroke: #ff0000; stroke-width: 0.72; stroke-linejoin: miter"/>
   </g>
   <g id="patch_5">
    <path d="M 661.406172 234.52343 
L 676.250204 234.52343 
L 676.250204 249.367462 
L 661.406172 249.367462 
L 661.406172 264.211494 
L 676.250204 264.211494 
" clip-path="url(#p26d413a071)" style="fill: none; stroke: #ff0000; stroke-width: 0.72; stroke-linejoin: miter"/>
   </g>
   <g id="patch_6">
    <path d="M 633.853223 28.502203 
L 621.989802 29.031579 
L 621.460427 17.168158 
L 633.323847 16.638783 
L 633.853223 28.502203 
" clip-path="url(#p26d413a071)" style="fill: none; stroke: #ff0000; stroke-width: 0.72; stroke-linejoin: miter"/>
   </g>
   <g id="patch_7">
    <path d="M 277.376896 81.718821 
L 265.986203 85.076364 
L 262.62866 73.685671 
L 274.019353 70.328129 
L 277.376896 81.718821 
" clip-path="url(#p26d413a071)" style="fill: none; stroke: #ff0000; stroke-width: 0.72; stroke-linejoin: miter"/>
   </g>
   <g id="patch_8">
    <path d="M 98.138254 169.338765 
L 93.71931 173.304642 
L 83.804619 162.257281 
L 88.223563 158.291405 
L 98.138254 169.338765 
" clip-path="url(#p26d413a071)" style="fill: none; stroke: #ff0000; stroke-width: 0.72; stroke-linejoin: miter"/>
   </g>
   <g id="patch_9">
    <path d="M 75.611222 229.630918 
L 80.432591 233.096412 
L 71.768855 245.149833 
L 66.947486 241.684339 
L 75.611222 229.630918 
" clip-path="url(#p26d413a071)" style="fill: none; stroke: #ff0000; stroke-width: 0.72; stroke-linejoin: miter"/>
   </g>
   <g id="patch_10">
    <path d="M 352.159473 279.214767 
L 364.01972 279.811029 
L 363.423458 291.671275 
L 351.563212 291.075013 
L 352.159473 279.214767 
" clip-path="url(#p26d413a071)" style="fill: none; stroke: #ff0000; stroke-width: 0.72; stroke-linejoin: miter"/>
   </g>
   <g id="patch_11">
    <path d="M 955.467642 159.553258 
L 955.373147 154.777543 
L 955.089826 150.010263 
L 954.618182 145.259837 
L 953.959047 140.534654 
L 953.113584 135.84306 
L 952.083287 131.19334 
L 950.869977 126.593707 
L 949.475794 122.052283 
L 947.903203 117.577089 
L 946.154979 113.176029 
L 944.234212 108.856876 
L 942.144292 104.627257 
L 939.888911 100.494642 
L 937.472052 96.46633 
L 934.897983 92.549436 
L 932.171251 88.750877 
L 929.296671 85.077361 
L 926.279321 81.535377 
L 923.124528 78.131179 
L 919.837864 74.87078 
L 916.425135 71.759938 
L 912.892367 68.804148 
L 909.245799 66.008629 
L 905.491872 63.378318 
L 901.637216 60.917861 
L 897.688637 58.631603 
L 893.653111 56.523582 
L 889.537763 54.597522 
L 885.349862 52.856822 
L 881.096804 51.304559 
L 876.7861 49.943472 
L 872.425364 48.775967 
L 868.022297 47.804105 
L 863.584675 47.029602 
L 859.120335 46.453826 
L 854.637163 46.077794 
L 850.143074 45.90217 
L 845.646008 45.927265 
L 841.153905 46.153033 
L 836.674699 46.579077 
L 832.216301 47.204644 
L 827.786585 48.028629 
L 823.393375 49.049577 
L 819.044428 50.265684 
L 814.747426 51.674803 
L 810.509957 53.274446 
L 806.339506 55.061786 
L 802.243437 57.033669 
L 798.228985 59.18661 
L 794.30324 61.516808 
L 790.473134 64.020148 
L 786.745433 66.692208 
L 783.126719 69.528269 
L 779.623384 72.523323 
L 776.241614 75.672079 
L 772.987383 78.968978 
L 769.866438 82.408195 
L 766.88429 85.983658 
L 764.046206 89.689052 
L 761.357199 93.517832 
L 758.822017 97.463238 
L 756.445139 101.518299 
L 754.230761 105.675856 
L 752.182794 109.928565 
L 750.304856 114.268916 
L 748.600264 118.689244 
L 747.072026 123.181741 
L 745.722843 127.738473 
L 744.555098 132.351394 
L 743.570852 137.012355 
L 742.771844 141.713126 
L 742.159485 146.445404 
L 741.734856 151.200832 
L 741.498709 155.97101 
L 741.451458 160.747516 
L 741.593189 165.521912 
L 741.92365 170.285767 
L 742.442258 175.030668 
L 743.148097 179.748234 
L 744.039921 184.430133 
L 745.116154 189.068098 
L 746.374897 193.653937 
L 747.813924 198.179551 
L 749.430696 202.636947 
L 751.222357 207.018254 
L 753.185743 211.315733 
L 755.317386 215.521795 
L 757.613521 219.629011 
L 760.070094 223.630128 
L 762.682765 227.518079 
L 765.446921 231.285998 
L 768.357679 234.92723 
L 771.4099 238.435345 
L 774.598192 241.804147 
L 777.916925 245.027686 
L 781.360237 248.100269 
L 784.922048 251.01647 
L 788.596067 253.771139 
L 792.375805 256.35941 
L 796.254587 258.776713 
L 800.225562 261.018778 
L 804.281718 263.081645 
L 808.415891 264.961672 
L 812.620779 266.655538 
L 816.888957 268.160251 
L 821.212886 269.473154 
L 825.58493 270.591928 
L 829.997368 271.514598 
L 834.442406 272.239534 
L 838.912195 272.765456 
L 843.39884 273.091434 
L 847.894417 273.216893 
L 852.390987 273.141612 
L 856.880609 272.865723 
L 861.355353 272.389714 
L 865.807317 271.714426 
L 870.228637 270.84105 
L 874.611507 269.77113 
L 878.948184 268.506555 
L 883.23101 267.049558 
L 887.452422 265.402713 
L 891.604963 263.568928 
L 895.681301 261.551442 
L 899.674235 259.353818 
L 903.576714 256.979936 
L 907.381846 254.43399 
L 911.08291 251.720476 
L 914.673371 248.844186 
L 918.146886 245.8102 
L 921.497322 242.623877 
L 924.718762 239.290843 
L 927.805515 235.816984 
L 930.752131 232.208438 
L 933.553405 228.471575 
L 936.204391 224.612996 
L 938.700406 220.639516 
L 941.037042 216.558152 
L 943.210172 212.376112 
L 945.215959 208.100782 
L 947.050859 203.739712 
L 948.711633 199.300605 
L 950.195348 194.791301 
L 951.499382 190.219763 
L 952.621434 185.594065 
L 953.55952 180.922376 
L 954.311986 176.212948 
L 954.8775 171.474097 
L 955.255066 166.714193 
L 955.444016 161.941642 
L 955.467642 159.553258 
L 955.467642 159.553258 
" clip-path="url(#p26d413a071)" style="fill: none; stroke: #ff0000; stroke-width: 0.72; stroke-linejoin: miter"/>
   </g>
   <g id="patch_12">
    <path d="M 400.06789 144.709226 
L 414.911922 159.553258 
L 400.06789 174.397289 
L 385.223858 159.553258 
L 400.06789 144.709226 
" clip-path="url(#p26d413a071)" style="fill: none; stroke: #ff0000; stroke-width: 0.72; stroke-linejoin: miter"/>
   </g>
   <g id="patch_13">
    <path d="M 840.998366 144.709226 
L 855.842398 159.553258 
L 840.998366 174.397289 
L 826.154335 159.553258 
L 840.998366 144.709226 
" clip-path="url(#p26d413a071)" style="fill: none; stroke: #ff0000; stroke-width: 0.72; stroke-linejoin: miter"/>
   </g>
   <g id="patch_14">
    <path d="M 263.659401 210.43628 
L 277.520077 226.202453 
L 261.753904 240.063129 
L 247.893228 224.296955 
L 263.659401 210.43628 
" clip-path="url(#p26d413a071)" style="fill: none; stroke: #ff0000; stroke-width: 0.72; stroke-linejoin: miter"/>
   </g>
   <g id="patch_15">
    <path d="M 502.30685 225.785268 
L 516.167526 241.551441 
L 500.401352 255.412117 
L 486.540676 239.645944 
L 502.30685 225.785268 
" clip-path="url(#p26d413a071)" style="fill: none; stroke: #ff0000; stroke-width: 0.72; stroke-linejoin: miter"/>
   </g>
   <g id="patch_16">
    <path d="M 388.291614 199.155076 
L 403.135645 184.311044 
L 417.979677 199.155076 
L 403.135645 213.999108 
L 388.291614 199.155076 
" clip-path="url(#p26d413a071)" style="fill: none; stroke: #ff0000; stroke-width: 0.72; stroke-linejoin: miter"/>
   </g>
   <g id="patch_17">
    <path d="M 388.291614 134.890086 
L 403.135645 120.046055 
L 417.979677 134.890086 
L 403.135645 149.734118 
L 388.291614 134.890086 
" clip-path="url(#p26d413a071)" style="fill: none; stroke: #ff0000; stroke-width: 0.72; stroke-linejoin: miter"/>
   </g>
   <g id="line2d_1">
    <path d="M 86.816998 159.553258 
L 1099.636364 159.553258 
" clip-path="url(#p26d413a071)" style="fill: none; stroke: #ffffff; stroke-width: 0.72; stroke-linecap: square"/>
   </g>
   <g id="line2d_2">
    <path d="M 382.255052 159.553258 
L 417.880728 159.553258 
" clip-path="url(#p26d413a071)" style="fill: none; stroke: #ffffff; stroke-width: 0.72; stroke-linecap: square"/>
   </g>
   <g id="line2d_3">
    <path d="M 823.185528 159.553258 
L 858.811204 159.553258 
" clip-path="url(#p26d413a071)" style="fill: none; stroke: #ffffff; stroke-width: 0.72; stroke-linecap: square"/>
   </g>
   <g id="line2d_4">
    <path d="M 52.531242 211.73194 
L 1045.63594 275.60504 
" clip-path="url(#p26d413a071)" style="fill: none; stroke: #ffffff; stroke-width: 0.72; stroke-linecap: square"/>
   </g>
   <g id="line2d_5">
    <path d="M 244.930543 224.106406 
L 280.482762 226.393003 
" clip-path="url(#p26d413a071)" style="fill: none; stroke: #ffffff; stroke-width: 0.72; stroke-linecap: square"/>
   </g>
   <g id="line2d_6">
    <path d="M 483.577991 239.455394 
L 519.13021 241.741991 
" clip-path="url(#p26d413a071)" style="fill: none; stroke: #ffffff; stroke-width: 0.72; stroke-linecap: square"/>
   </g>
   <g id="line2d_7">
    <path d="M 848.456597 45.888054 
L 848.456597 42.919247 
" clip-path="url(#p26d413a071)" style="fill: none; stroke: #ff0000; stroke-width: 0.72; stroke-linecap: square"/>
   </g>
   <g id="line2d_8">
    <path d="M 848.456597 273.218462 
L 848.456597 276.187268 
" clip-path="url(#p26d413a071)" style="fill: none; stroke: #ff0000; stroke-width: 0.72; stroke-linecap: square"/>
   </g>
   <g id="line2d_9">
    <path d="M 955.467642 159.553258 
L 958.436449 159.553258 
" clip-path="url(#p26d413a071)" style="fill: none; stroke: #ff0000; stroke-width: 0.72; stroke-linecap: square"/>
   </g>
   <g id="line2d_10">
    <path d="M 741.445551 159.553258 
L 738.476745 159.553258 
" clip-path="url(#p26d413a071)" style="fill: none; stroke: #ff0000; stroke-width: 0.72; stroke-linecap: square"/>
   </g>
   <g id="line2d_11">
    <path d="M 403.135645 293.428139 
L 403.135645 40.617024 
" clip-path="url(#p26d413a071)" style="fill: none; stroke: #ffffff; stroke-width: 0.72; stroke-linecap: square"/>
   </g>
   <g id="line2d_12">
    <path d="M 403.135645 216.967914 
L 403.135645 181.342238 
" clip-path="url(#p26d413a071)" style="fill: none; stroke: #ffffff; stroke-width: 0.72; stroke-linecap: square"/>
   </g>
   <g id="line2d_13">
    <path d="M 403.135645 152.702924 
L 403.135645 117.077248 
" clip-path="url(#p26d413a071)" style="fill: none; stroke: #ffffff; stroke-width: 0.72; stroke-linecap: square"/>
   </g>
  </g>
 </g>
 <defs>
  <clipPath id="p26d413a071">
   <rect x="0" y="0" width="1152" height="320.678453"/>
  </clipPath>
 </defs>
</svg>
