  0
SECTION
  2
HEADER
  9
$ACADVER
  1
AC1021
  9
$ACADMAINTVER
 70
25
  9
$DWGCODEPAGE
  3
ANSI_1252
  9
$LASTSAVEDBY
  1
ezdxf
  9
$INSBASE
 10
0.0
 20
0.0
 30
0.0
  9
$EXTMIN
 10
1e+20
 20
1e+20
 30
1e+20
  9
$EXTMAX
 10
-1e+20
 20
-1e+20
 30
-1e+20
  9
$LIMMIN
 10
0.0
 20
0.0
  9
$LIMMAX
 10
420.0
 20
297.0
  9
$ORTHOMODE
 70
0
  9
$REGENMODE
 70
1
  9
$FILLMODE
 70
1
  9
$QTEXTMODE
 70
0
  9
$MIRRTEXT
 70
1
  9
$LTSCALE
 40
1.0
  9
$ATTMODE
 70
1
  9
$TEXTSIZE
 40
2.5
  9
$TRACEWID
 40
1.0
  9
$TEXTSTYLE
  7
OpenSans
  9
$CLAYER
  8
0
  9
$CELTYPE
  6
ByLayer
  9
$CECOLOR
 62
256
  9
$CELTSCALE
 40
1.0
  9
$DISPSILH
 70
0
  9
$DIMSCALE
 40
1.0
  9
$DIMASZ
 40
0.175
  9
$DIMEXO
 40
0.125
  9
$DIMDLI
 40
3.75
  9
$DIMRND
 40
0.0
  9
$DIMDLE
 40
0.0
  9
$DIMEXE
 40
0.375
  9
$DIMTP
 40
0.0
  9
$DIMTM
 40
0.0
  9
$DIMTXT
 40
0.25
  9
$DIMCEN
 40
2.5
  9
$DIMTSZ
 40
0.0
  9
$DIMTOL
 70
0
  9
$DIMLIM
 70
0
  9
$DIMTIH
 70
0
  9
$DIMTOH
 70
0
  9
$DIMSE1
 70
0
  9
$DIMSE2
 70
0
  9
$DIMTAD
 70
1
  9
$DIMZIN
 70
12
  9
$DIMBLK
  1
ARCHTICK
  9
$DIMASO
 70
1
  9
$DIMSHO
 70
1
  9
$DIMPOST
  1

  9
$DIMAPOST
  1

  9
$DIMALT
 70
0
  9
$DIMALTD
 70
3
  9
$DIMALTF
 40
0.03937007874
  9
$DIMLFAC
 40
100.0
  9
$DIMTOFL
 70
1
  9
$DIMTVP
 40
0.0
  9
$DIMTIX
 70
0
  9
$DIMSOXD
 70
0
  9
$DIMSAH
 70
0
  9
$DIMBLK1
  1

  9
$DIMBLK2
  1

  9
$DIMSTYLE
  2
EZDXF
  9
$DIMCLRD
 70
0
  9
$DIMCLRE
 70
0
  9
$DIMCLRT
 70
0
  9
$DIMTFAC
 40
0.5
  9
$DIMGAP
 40
0.1
  9
$DIMJUST
 70
0
  9
$DIMSD1
 70
0
  9
$DIMSD2
 70
0
  9
$DIMTOLJ
 70
0
  9
$DIMTZIN
 70
8
  9
$DIMALTZ
 70
0
  9
$DIMALTTZ
 70
0
  9
$DIMUPT
 70
1
  9
$DIMDEC
 70
2
  9
$DIMTDEC
 70
2
  9
$DIMALTU
 70
2
  9
$DIMALTTD
 70
3
  9
$DIMTXSTY
  7
OpenSansCondensed-Light
  9
$DIMAUNIT
 70
0
  9
$DIMADEC
 70
2
  9
$DIMALTRND
 40
0.0
  9
$DIMAZIN
 70
3
  9
$DIMDSEP
 70
46
  9
$DIMATFIT
 70
3
  9
$DIMFRAC
 70
0
  9
$DIMLDRBLK
  1

  9
$DIMLUNIT
 70
2
  9
$DIMLWD
 70
-2
  9
$DIMLWE
 70
-2
  9
$DIMTMOVE
 70
2
  9
$DIMFXL
 40
1.0
  9
$DIMFXLON
 70
0
  9
$DIMJOGANG
 40
0.785398163397
  9
$DIMTFILL
 70
0
  9
$DIMTFILLCLR
 70
0
  9
$DIMARCSYM
 70
0
  9
$DIMLTYPE
  6

  9
$DIMLTEX1
  6

  9
$DIMLTEX2
  6

  9
$LUNITS
 70
2
  9
$LUPREC
 70
4
  9
$SKETCHINC
 40
1.0
  9
$FILLETRAD
 40
10.0
  9
$AUNITS
 70
0
  9
$AUPREC
 70
2
  9
$MENU
  1
.
  9
$ELEVATION
 40
0.0
  9
$PELEVATION
 40
0.0
  9
$THICKNESS
 40
0.0
  9
$LIMCHECK
 70
0
  9
$CHAMFERA
 40
0.0
  9
$CHAMFERB
 40
0.0
  9
$CHAMFERC
 40
0.0
  9
$CHAMFERD
 40
0.0
  9
$SKPOLY
 70
0
  9
$TDCREATE
 40
2461048.0882986113
  9
$TDUCREATE
 40
2458532.153996898
  9
$TDUPDATE
 40
2461048.0882986113
  9
$TDUUPDATE
 40
2458532.1544311
  9
$TDINDWG
 40
0.0
  9
$TDUSRTIMER
 40
0.0
  9
$USRTIMER
 70
1
  9
$ANGBASE
 50
0.0
  9
$ANGDIR
 70
0
  9
$PDMODE
 70
0
  9
$PDSIZE
 40
0.0
  9
$PLINEWID
 40
0.0
  9
$SPLFRAME
 70
0
  9
$SPLINETYPE
 70
6
  9
$SPLINESEGS
 70
8
  9
$HANDSEED
  5
AB
  9
$SURFTAB1
 70
6
  9
$SURFTAB2
 70
6
  9
$SURFTYPE
 70
6
  9
$SURFU
 70
6
  9
$SURFV
 70
6
  9
$UCSBASE
  2

  9
$UCSNAME
  2

  9
$UCSORG
 10
0.0
 20
0.0
 30
0.0
  9
$UCSXDIR
 10
1.0
 20
0.0
 30
0.0
  9
$UCSYDIR
 10
0.0
 20
1.0
 30
0.0
  9
$UCSORTHOREF
  2

  9
$UCSORTHOVIEW
 70
0
  9
$UCSORGTOP
 10
0.0
 20
0.0
 30
0.0
  9
$UCSORGBOTTOM
 10
0.0
 20
0.0
 30
0.0
  9
$UCSORGLEFT
 10
0.0
 20
0.0
 30
0.0
  9
$UCSORGRIGHT
 10
0.0
 20
0.0
 30
0.0
  9
$UCSORGFRONT
 10
0.0
 20
0.0
 30
0.0
  9
$UCSORGBACK
 10
0.0
 20
0.0
 30
0.0
  9
$PUCSBASE
  2

  9
$PUCSNAME
  2

  9
$PUCSORG
 10
0.0
 20
0.0
 30
0.0
  9
$PUCSXDIR
 10
1.0
 20
0.0
 30
0.0
  9
$PUCSYDIR
 10
0.0
 20
1.0
 30
0.0
  9
$PUCSORTHOREF
  2

  9
$PUCSORTHOVIEW
 70
0
  9
$PUCSORGTOP
 10
0.0
 20
0.0
 30
0.0
  9
$PUCSORGBOTTOM
 10
0.0
 20
0.0
 30
0.0
  9
$PUCSORGLEFT
 10
0.0
 20
0.0
 30
0.0
  9
$PUCSORGRIGHT
 10
0.0
 20
0.0
 30
0.0
  9
$PUCSORGFRONT
 10
0.0
 20
0.0
 30
0.0
  9
$PUCSORGBACK
 10
0.0
 20
0.0
 30
0.0
  9
$USERI1
 70
0
  9
$USERI2
 70
0
  9
$USERI3
 70
0
  9
$USERI4
 70
0
  9
$USERI5
 70
0
  9
$USERR1
 40
0.0
  9
$USERR2
 40
0.0
  9
$USERR3
 40
0.0
  9
$USERR4
 40
0.0
  9
$USERR5
 40
0.0
  9
$WORLDVIEW
 70
1
  9
$SHADEDGE
 70
3
  9
$SHADEDIF
 70
70
  9
$TILEMODE
 70
1
  9
$MAXACTVP
 70
64
  9
$PINSBASE
 10
0.0
 20
0.0
 30
0.0
  9
$PLIMCHECK
 70
0
  9
$PEXTMIN
 10
1e+20
 20
1e+20
 30
1e+20
  9
$PEXTMAX
 10
-1e+20
 20
-1e+20
 30
-1e+20
  9
$PLIMMIN
 10
0.0
 20
0.0
  9
$PLIMMAX
 10
420.0
 20
297.0
  9
$UNITMODE
 70
0
  9
$VISRETAIN
 70
1
  9
$PLINEGEN
 70
0
  9
$PSLTSCALE
 70
1
  9
$TREEDEPTH
 70
3020
  9
$CMLSTYLE
  2
Standard
  9
$CMLJUST
 70
0
  9
$CMLSCALE
 40
20.0
  9
$PROXYGRAPHICS
 70
1
  9
$MEASUREMENT
 70
1
  9
$CELWEIGHT
370
-1
  9
$ENDCAPS
280
0
  9
$JOINSTYLE
280
0
  9
$LWDISPLAY
290
0
  9
$INSUNITS
 70
6
  9
$HYPERLINKBASE
  1

  9
$STYLESHEET
  1

  9
$XEDIT
290
1
  9
$CEPSNTYPE
380
0
  9
$PSTYLEMODE
290
1
  9
$FINGERPRINTGUID
  2
{0ECFEEEA-ABE7-4669-9028-43C50A39D2B2}
  9
$VERSIONGUID
  2
{171B7299-B09D-4BAC-BF6F-7F9A24EFA732}
  9
$EXTNAMES
290
1
  9
$PSVPSCALE
 40
0.0
  9
$OLESTARTUP
290
0
  9
$SORTENTS
280
127
  9
$INDEXCTL
280
0
  9
$HIDETEXT
280
1
  9
$XCLIPFRAME
290
1
  9
$HALOGAP
280
0
  9
$OBSCOLOR
 70
257
  9
$OBSLTYPE
280
0
  9
$INTERSECTIONDISPLAY
280
0
  9
$INTERSECTIONCOLOR
 70
257
  9
$DIMASSOC
280
2
  9
$PROJECTNAME
  1

  9
$CAMERADISPLAY
290
0
  9
$LENSLENGTH
 40
50.0
  9
$CAMERAHEIGHT
 40
0.0
  9
$STEPSPERSEC
 40
24.0
  9
$STEPSIZE
 40
100.0
  9
$3DDWFPREC
 40
2.0
  9
$PSOLWIDTH
 40
0.005
  9
$PSOLHEIGHT
 40
0.08
  9
$LOFTANG1
 40
1.570796326795
  9
$LOFTANG2
 40
1.570796326795
  9
$LOFTMAG1
 40
0.0
  9
$LOFTMAG2
 40
0.0
  9
$LOFTPARAM
 70
7
  9
$LOFTNORMALS
280
1
  9
$LATITUDE
 40
37.795
  9
$LONGITUDE
 40
-122.394
  9
$NORTHDIRECTION
 40
0.0
  9
$TIMEZONE
 70
-8000
  9
$LIGHTGLYPHDISPLAY
280
1
  9
$TILEMODELIGHTSYNCH
280
1
  9
$CMATERIAL
347
20
  9
$SOLIDHIST
280
0
  9
$SHOWHIST
280
1
  9
$DWFFRAME
280
2
  9
$DGNFRAME
280
2
  9
$REALWORLDSCALE
290
1
  9
$INTERFERECOLOR
 62
256
  9
$CSHADOW
280
0
  9
$SHADOWPLANELOCATION
 40
0.0
  0
ENDSEC
  0
SECTION
  2
CLASSES
  0
CLASS
  1
ACDBDICTIONARYWDFLT
  2
AcDbDictionaryWithDefault
  3
ObjectDBX Classes
 90
0
 91
0
280
0
281
0
  0
CLASS
  1
SUN
  2
AcDbSun
  3
SCENEOE
 90
1153
 91
0
280
0
281
0
  0
CLASS
  1
VISUALSTYLE
  2
AcDbVisualStyle
  3
ObjectDBX Classes
 90
4095
 91
0
280
0
281
0
  0
CLASS
  1
MATERIAL
  2
AcDbMaterial
  3
ObjectDBX Classes
 90
1153
 91
0
280
0
281
0
  0
CLASS
  1
SCALE
  2
AcDbScale
  3
ObjectDBX Classes
 90
1153
 91
0
280
0
281
0
  0
CLASS
  1
TABLESTYLE
  2
AcDbTableStyle
  3
ObjectDBX Classes
 90
4095
 91
0
280
0
281
0
  0
CLASS
  1
MLEADERSTYLE
  2
AcDbMLeaderStyle
  3
ACDB_MLEADERSTYLE_CLASS
 90
4095
 91
0
280
0
281
0
  0
CLASS
  1
DICTIONARYVAR
  2
AcDbDictionaryVar
  3
ObjectDBX Classes
 90
0
 91
0
280
0
281
0
  0
CLASS
  1
CELLSTYLEMAP
  2
AcDbCellStyleMap
  3
ObjectDBX Classes
 90
1152
 91
0
280
0
281
0
  0
CLASS
  1
MENTALRAYRENDERSETTINGS
  2
AcDbMentalRayRenderSettings
  3
SCENEOE
 90
1024
 91
0
280
0
281
0
  0
CLASS
  1
ACDBDETAILVIEWSTYLE
  2
AcDbDetailViewStyle
  3
ObjectDBX Classes
 90
1025
 91
0
280
0
281
0
  0
CLASS
  1
ACDBSECTIONVIEWSTYLE
  2
AcDbSectionViewStyle
  3
ObjectDBX Classes
 90
1025
 91
0
280
0
281
0
  0
CLASS
  1
RASTERVARIABLES
  2
AcDbRasterVariables
  3
ISM
 90
0
 91
0
280
0
281
0
  0
CLASS
  1
ACDBPLACEHOLDER
  2
AcDbPlaceHolder
  3
ObjectDBX Classes
 90
0
 91
0
280
0
281
0
  0
CLASS
  1
LAYOUT
  2
AcDbLayout
  3
ObjectDBX Classes
 90
0
 91
0
280
0
281
0
  0
ENDSEC
  0
SECTION
  2
TABLES
  0
TABLE
  2
VPORT
  5
8
330
0
100
AcDbSymbolTable
 70
1
  0
VPORT
  5
23
330
8
100
AcDbSymbolTableRecord
100
AcDbViewportTableRecord
  2
*Active
 70
0
 10
0.0
 20
0.0
 11
1.0
 21
1.0
 12
0.0
 22
0.0
 13
0.0
 23
0.0
 14
0.5
 24
0.5
 15
0.5
 25
0.5
 16
0.0
 26
0.0
 36
1.0
 17
0.0
 27
0.0
 37
0.0
 40
1000.0
 41
1.34
 42
50.0
 43
0.0
 44
0.0
 50
0.0
 51
0.0
 71
0
 72
1000
 73
1
 74
3
 75
0
 76
0
 77
0
 78
0
281
0
 65
0
146
0.0
  0
ENDTAB
  0
TABLE
  2
LTYPE
  5
2
330
0
100
AcDbSymbolTable
 70
21
  0
LTYPE
  5
24
330
2
100
AcDbSymbolTableRecord
100
AcDbLinetypeTableRecord
  2
ByBlock
 70
0
  3

 72
65
 73
0
 40
0.0
  0
LTYPE
  5
25
330
2
100
AcDbSymbolTableRecord
100
AcDbLinetypeTableRecord
  2
ByLayer
 70
0
  3

 72
65
 73
0
 40
0.0
  0
LTYPE
  5
26
330
2
100
AcDbSymbolTableRecord
100
AcDbLinetypeTableRecord
  2
Continuous
 70
0
  3

 72
65
 73
0
 40
0.0
  0
LTYPE
  5
2F
330
2
100
AcDbSymbolTableRecord
100
AcDbLinetypeTableRecord
  2
CENTER
 70
0
  3
Center ____ _ ____ _ ____ _ ____ _ ____ _ ____
 72
65
 73
4
 40
5.08
 49
3.175
 74
0
 49
-0.635
 74
0
 49
0.635
 74
0
 49
-0.635
 74
0
  0
LTYPE
  5
30
330
2
100
AcDbSymbolTableRecord
100
AcDbLinetypeTableRecord
  2
CENTERX2
 70
0
  3
Center (2x) ________  __  ________  __  ________
 72
65
 73
4
 40
8.89
 49
6.35
 74
0
 49
-0.635
 74
0
 49
1.27
 74
0
 49
-0.635
 74
0
  0
LTYPE
  5
31
330
2
100
AcDbSymbolTableRecord
100
AcDbLinetypeTableRecord
  2
CENTER2
 70
0
  3
Center (.5x) ____ _ ____ _ ____ _ ____ _ ____
 72
65
 73
4
 40
2.54
 49
1.587
 74
0
 49
-0.318
 74
0
 49
0.318
 74
0
 49
-0.318
 74
0
  0
LTYPE
  5
32
330
2
100
AcDbSymbolTableRecord
100
AcDbLinetypeTableRecord
  2
DASHED
 70
0
  3
Dashed __ __ __ __ __ __ __ __ __ __ __ __ __ _
 72
65
 73
2
 40
1.524
 49
1.27
 74
0
 49
-0.254
 74
0
  0
LTYPE
  5
33
330
2
100
AcDbSymbolTableRecord
100
AcDbLinetypeTableRecord
  2
DASHEDX2
 70
0
  3
Dashed (2x) ____  ____  ____  ____  ____  ____
 72
65
 73
2
 40
3.048
 49
2.54
 74
0
 49
-0.508
 74
0
  0
LTYPE
  5
34
330
2
100
AcDbSymbolTableRecord
100
AcDbLinetypeTableRecord
  2
DASHED2
 70
0
  3
Dashed (.5x) _ _ _ _ _ _ _ _ _ _ _ _ _ _
 72
65
 73
2
 40
0.762
 49
0.635
 74
0
 49
-0.127
 74
0
  0
LTYPE
  5
35
330
2
100
AcDbSymbolTableRecord
100
AcDbLinetypeTableRecord
  2
PHANTOM
 70
0
  3
Phantom ______  __  __  ______  __  __  ______
 72
65
 73
6
 40
6.35
 49
3.175
 74
0
 49
-0.635
 74
0
 49
0.635
 74
0
 49
-0.635
 74
0
 49
0.635
 74
0
 49
-0.635
 74
0
  0
LTYPE
  5
36
330
2
100
AcDbSymbolTableRecord
100
AcDbLinetypeTableRecord
  2
PHANTOMX2
 70
0
  3
Phantom (2x)____________    ____    ____    ____________
 72
65
 73
6
 40
10.795
 49
6.35
 74
0
 49
-0.635
 74
0
 49
1.27
 74
0
 49
-0.635
 74
0
 49
1.27
 74
0
 49
-0.635
 74
0
  0
LTYPE
  5
37
330
2
100
AcDbSymbolTableRecord
100
AcDbLinetypeTableRecord
  2
PHANTOM2
 70
0
  3
Phantom (.5x) ___ _ _ ___ _ _ ___ _ _ ___ _ _ ___
 72
65
 73
6
 40
3.175
 49
1.587
 74
0
 49
-0.318
 74
0
 49
0.318
 74
0
 49
-0.318
 74
0
 49
0.318
 74
0
 49
-0.318
 74
0
  0
LTYPE
  5
38
330
2
100
AcDbSymbolTableRecord
100
AcDbLinetypeTableRecord
  2
DASHDOT
 70
0
  3
Dash dot __ . __ . __ . __ . __ . __ . __ . __
 72
65
 73
4
 40
3.556
 49
2.54
 74
0
 49
-0.508
 74
0
 49
0.0
 74
0
 49
-0.508
 74
0
  0
LTYPE
  5
39
330
2
100
AcDbSymbolTableRecord
100
AcDbLinetypeTableRecord
  2
DASHDOTX2
 70
0
  3
Dash dot (2x) ____  .  ____  .  ____  .  ____
 72
65
 73
4
 40
6.096
 49
5.08
 74
0
 49
-0.508
 74
0
 49
0.0
 74
0
 49
-0.508
 74
0
  0
LTYPE
  5
3A
330
2
100
AcDbSymbolTableRecord
100
AcDbLinetypeTableRecord
  2
DASHDOT2
 70
0
  3
Dash dot (.5x) _ . _ . _ . _ . _ . _ . _ . _
 72
65
 73
4
 40
1.778
 49
1.27
 74
0
 49
-0.254
 74
0
 49
0.0
 74
0
 49
-0.254
 74
0
  0
LTYPE
  5
3B
330
2
100
AcDbSymbolTableRecord
100
AcDbLinetypeTableRecord
  2
DOT
 70
0
  3
Dot .  .  .  .  .  .  .  .  .  .  .  .  .  .  .  .
 72
65
 73
2
 40
0.508
 49
0.0
 74
0
 49
-0.508
 74
0
  0
LTYPE
  5
3C
330
2
100
AcDbSymbolTableRecord
100
AcDbLinetypeTableRecord
  2
DOTX2
 70
0
  3
Dot (2x) .    .    .    .    .    .    .    . 
 72
65
 73
2
 40
1.016
 49
0.0
 74
0
 49
-1.016
 74
0
  0
LTYPE
  5
3D
330
2
100
AcDbSymbolTableRecord
100
AcDbLinetypeTableRecord
  2
DOT2
 70
0
  3
Dot (.5) . . . . . . . . . . . . . . . . . . . 
 72
65
 73
2
 40
0.254
 49
0.0
 74
0
 49
-0.254
 74
0
  0
LTYPE
  5
3E
330
2
100
AcDbSymbolTableRecord
100
AcDbLinetypeTableRecord
  2
DIVIDE
 70
0
  3
Divide __ . . __ . . __ . . __ . . __ . . __
 72
65
 73
6
 40
4.064
 49
2.54
 74
0
 49
-0.508
 74
0
 49
0.0
 74
0
 49
-0.508
 74
0
 49
0.0
 74
0
 49
-0.508
 74
0
  0
LTYPE
  5
3F
330
2
100
AcDbSymbolTableRecord
100
AcDbLinetypeTableRecord
  2
DIVIDEX2
 70
0
  3
Divide (2x) ____  . .  ____  . .  ____  . .  ____
 72
65
 73
6
 40
6.604
 49
5.08
 74
0
 49
-0.508
 74
0
 49
0.0
 74
0
 49
-0.508
 74
0
 49
0.0
 74
0
 49
-0.508
 74
0
  0
LTYPE
  5
40
330
2
100
AcDbSymbolTableRecord
100
AcDbLinetypeTableRecord
  2
DIVIDE2
 70
0
  3
Divide(.5x) _ . _ . _ . _ . _ . _ . _ . _
 72
65
 73
6
 40
2.032
 49
1.27
 74
0
 49
-0.254
 74
0
 49
0.0
 74
0
 49
-0.254
 74
0
 49
0.0
 74
0
 49
-0.254
 74
0
  0
ENDTAB
  0
TABLE
  2
LAYER
  5
1
330
0
100
AcDbSymbolTable
 70
4
  0
LAYER
  5
27
330
1
100
AcDbSymbolTableRecord
100
AcDbLayerTableRecord
  2
0
 70
0
 62
7
  6
Continuous
370
-3
390
13
347
21
  0
LAYER
  5
28
330
1
100
AcDbSymbolTableRecord
100
AcDbLayerTableRecord
  2
Defpoints
 70
0
 62
7
  6
Continuous
290
0
370
-3
390
13
347
21
  0
LAYER
  5
8A
330
1
100
AcDbSymbolTableRecord
100
AcDbLayerTableRecord
  2
Layer
 70
0
 62
1
  6
Continuous
370
50
390
13
347
21
  0
LAYER
  5
8B
330
1
100
AcDbSymbolTableRecord
100
AcDbLayerTableRecord
  2
NumLabel
 70
0
 62
1
  6
Continuous
370
15
390
13
347
21
  0
ENDTAB
  0
TABLE
  2
STYLE
  5
5
330
0
100
AcDbSymbolTable
 70
26
  0
STYLE
  5
29
330
5
100
AcDbSymbolTableRecord
100
AcDbTextStyleTableRecord
  2
Standard
 70
0
 40
0.0
 41
1.0
 50
0.0
 71
0
 42
2.5
  3
txt
  4

  0
STYLE
  5
41
330
5
100
AcDbSymbolTableRecord
100
AcDbTextStyleTableRecord
  2
OpenSans-Light
 70
0
 40
0.0
 41
1.0
 50
0.0
 71
0
 42
2.5
  3
OpenSans-Light.ttf
  4

  0
STYLE
  5
42
330
5
100
AcDbSymbolTableRecord
100
AcDbTextStyleTableRecord
  2
OpenSans-Light-Italic
 70
0
 40
0.0
 41
1.0
 50
0.0
 71
0
 42
2.5
  3
OpenSans-LightItalic.ttf
  4

  0
STYLE
  5
43
330
5
100
AcDbSymbolTableRecord
100
AcDbTextStyleTableRecord
  2
OpenSans
 70
0
 40
0.0
 41
1.0
 50
0.0
 71
0
 42
2.5
  3
OpenSans-Regular.ttf
  4

  0
STYLE
  5
44
330
5
100
AcDbSymbolTableRecord
100
AcDbTextStyleTableRecord
  2
OpenSans-Italic
 70
0
 40
0.0
 41
1.0
 50
0.0
 71
0
 42
2.5
  3
OpenSans-Italic.ttf
  4

  0
STYLE
  5
45
330
5
100
AcDbSymbolTableRecord
100
AcDbTextStyleTableRecord
  2
OpenSans-SemiBold
 70
0
 40
0.0
 41
1.0
 50
0.0
 71
0
 42
2.5
  3
OpenSans-SemiBold.ttf
  4

  0
STYLE
  5
46
330
5
100
AcDbSymbolTableRecord
100
AcDbTextStyleTableRecord
  2
OpenSans-SemiBoldItalic
 70
0
 40
0.0
 41
1.0
 50
0.0
 71
0
 42
2.5
  3
OpenSans-SemiBoldItalic.ttf
  4

  0
STYLE
  5
47
330
5
100
AcDbSymbolTableRecord
100
AcDbTextStyleTableRecord
  2
OpenSans-Bold
 70
0
 40
0.0
 41
1.0
 50
0.0
 71
0
 42
2.5
  3
OpenSans-Bold.ttf
  4

  0
STYLE
  5
48
330
5
100
AcDbSymbolTableRecord
100
AcDbTextStyleTableRecord
  2
OpenSans-BoldItalic
 70
0
 40
0.0
 41
1.0
 50
0.0
 71
0
 42
2.5
  3
OpenSans-BoldItalic.ttf
  4

  0
STYLE
  5
49
330
5
100
AcDbSymbolTableRecord
100
AcDbTextStyleTableRecord
  2
OpenSans-ExtraBold
 70
0
 40
0.0
 41
1.0
 50
0.0
 71
0
 42
2.5
  3
OpenSans-ExtraBold.ttf
  4

  0
STYLE
  5
4A
330
5
100
AcDbSymbolTableRecord
100
AcDbTextStyleTableRecord
  2
OpenSans-ExtraBoldItalic
 70
0
 40
0.0
 41
1.0
 50
0.0
 71
0
 42
2.5
  3
OpenSans-ExtraBoldItalic.ttf
  4

  0
STYLE
  5
4B
330
5
100
AcDbSymbolTableRecord
100
AcDbTextStyleTableRecord
  2
OpenSansCondensed-Bold
 70
0
 40
0.0
 41
1.0
 50
0.0
 71
0
 42
2.5
  3
OpenSansCondensed-Bold.ttf
  4

  0
STYLE
  5
4C
330
5
100
AcDbSymbolTableRecord
100
AcDbTextStyleTableRecord
  2
OpenSansCondensed-Light
 70
0
 40
0.0
 41
1.0
 50
0.0
 71
0
 42
2.5
  3
OpenSansCondensed-Light.ttf
  4

  0
STYLE
  5
4D
330
5
100
AcDbSymbolTableRecord
100
AcDbTextStyleTableRecord
  2
OpenSansCondensed-Italic
 70
0
 40
0.0
 41
1.0
 50
0.0
 71
0
 42
2.5
  3
OpenSansCondensed-LightItalic.ttf
  4

  0
STYLE
  5
4E
330
5
100
AcDbSymbolTableRecord
100
AcDbTextStyleTableRecord
  2
LiberationSans
 70
0
 40
0.0
 41
1.0
 50
0.0
 71
0
 42
2.5
  3
LiberationSans-Regular.ttf
  4

  0
STYLE
  5
4F
330
5
100
AcDbSymbolTableRecord
100
AcDbTextStyleTableRecord
  2
LiberationSans-Bold
 70
0
 40
0.0
 41
1.0
 50
0.0
 71
0
 42
2.5
  3
LiberationSans-Bold.ttf
  4

  0
STYLE
  5
50
330
5
100
AcDbSymbolTableRecord
100
AcDbTextStyleTableRecord
  2
LiberationSans-BoldItalic
 70
0
 40
0.0
 41
1.0
 50
0.0
 71
0
 42
2.5
  3
LiberationSans-BoldItalic.ttf
  4

  0
STYLE
  5
51
330
5
100
AcDbSymbolTableRecord
100
AcDbTextStyleTableRecord
  2
LiberationSans-Italic
 70
0
 40
0.0
 41
1.0
 50
0.0
 71
0
 42
2.5
  3
LiberationSans-Italic.ttf
  4

  0
STYLE
  5
52
330
5
100
AcDbSymbolTableRecord
100
AcDbTextStyleTableRecord
  2
LiberationSerif
 70
0
 40
0.0
 41
1.0
 50
0.0
 71
0
 42
2.5
  3
LiberationSerif-Regular.ttf
  4

  0
STYLE
  5
53
330
5
100
AcDbSymbolTableRecord
100
AcDbTextStyleTableRecord
  2
LiberationSerif-Bold
 70
0
 40
0.0
 41
1.0
 50
0.0
 71
0
 42
2.5
  3
LiberationSerif-Bold.ttf
  4

  0
STYLE
  5
54
330
5
100
AcDbSymbolTableRecord
100
AcDbTextStyleTableRecord
  2
LiberationSerif-BoldItalic
 70
0
 40
0.0
 41
1.0
 50
0.0
 71
0
 42
2.5
  3
LiberationSerif-BoldItalic.ttf
  4

  0
STYLE
  5
55
330
5
100
AcDbSymbolTableRecord
100
AcDbTextStyleTableRecord
  2
LiberationSerif-Italic
 70
0
 40
0.0
 41
1.0
 50
0.0
 71
0
 42
2.5
  3
LiberationSerif-Italic.ttf
  4

  0
STYLE
  5
56
330
5
100
AcDbSymbolTableRecord
100
AcDbTextStyleTableRecord
  2
LiberationMono
 70
0
 40
0.0
 41
1.0
 50
0.0
 71
0
 42
2.5
  3
LiberationMono-Regular.ttf
  4

  0
STYLE
  5
57
330
5
100
AcDbSymbolTableRecord
100
AcDbTextStyleTableRecord
  2
LiberationMono-Bold
 70
0
 40
0.0
 41
1.0
 50
0.0
 71
0
 42
2.5
  3
LiberationMono-Bold.ttf
  4

  0
STYLE
  5
58
330
5
100
AcDbSymbolTableRecord
100
AcDbTextStyleTableRecord
  2
LiberationMono-BoldItalic
 70
0
 40
0.0
 41
1.0
 50
0.0
 71
0
 42
2.5
  3
LiberationMono-BoldItalic.ttf
  4

  0
STYLE
  5
59
330
5
100
AcDbSymbolTableRecord
100
AcDbTextStyleTableRecord
  2
LiberationMono-Italic
 70
0
 40
0.0
 41
1.0
 50
0.0
 71
0
 42
2.5
  3
LiberationMono-Italic.ttf
  4

  0
ENDTAB
  0
TABLE
  2
VIEW
  5
7
330
0
100
AcDbSymbolTable
 70
0
  0
ENDTAB
  0
TABLE
  2
UCS
  5
6
330
0
100
AcDbSymbolTable
 70
0
  0
ENDTAB
  0
TABLE
  2
APPID
  5
3
330
0
100
AcDbSymbolTable
 70
3
  0
APPID
  5
2A
330
3
100
AcDbSymbolTableRecord
100
AcDbRegAppTableRecord
  2
ACAD
 70
0
  0
APPID
  5
A8
330
3
100
AcDbSymbolTableRecord
100
AcDbRegAppTableRecord
  2
HATCHBACKGROUNDCOLOR
 70
0
  0
APPID
  5
A9
330
3
100
AcDbSymbolTableRecord
100
AcDbRegAppTableRecord
  2
EZDXF
 70
0
  0
ENDTAB
  0
TABLE
  2
DIMSTYLE
  5
4
330
0
100
AcDbSymbolTable
 70
12
100
AcDbDimStyleTable
  0
DIMSTYLE
105
2B
330
4
100
AcDbSymbolTableRecord
100
AcDbDimStyleTableRecord
  2
Standard
 70
0
 40
1.0
 41
2.5
 42
0.625
 43
3.75
 44
1.25
 45
0.0
 46
0.0
 47
0.0
 48
0.0
 49
2.5
140
2.5
141
2.5
142
0.0
143
0.03937007874
144
1.0
145
0.0
146
1.0
147
0.625
148
0.0
 69
0
 70
0
 71
0
 72
0
 73
0
 74
0
 75
0
 76
0
 77
1
 78
8
 79
3
170
0
171
3
172
1
173
0
174
0
175
0
176
0
177
0
178
0
179
2
271
2
272
2
273
2
274
3
275
0
276
0
277
2
278
44
279
0
280
0
281
0
282
0
283
0
284
8
285
0
286
0
288
0
289
3
290
0
371
-2
372
-2
  0
DIMSTYLE
105
73
330
4
100
AcDbSymbolTableRecord
100
AcDbDimStyleTableRecord
  2
EZDXF
 70
0
 40
1.0
 41
0.175
 42
0.125
 43
3.75
 44
0.375
 45
0.0
 46
0.0
 47
0.0
 48
0.0
 49
2.5
140
0.25
141
2.5
142
0.0
143
0.03937007874
144
100.0
145
0.0
146
0.5
147
0.1
148
0.0
 69
0
 70
0
 71
0
 72
0
 73
0
 74
0
 75
0
 76
0
 77
1
 78
12
 79
3
170
0
171
3
172
1
173
0
174
0
175
0
176
0
177
0
178
0
179
2
271
2
272
2
273
2
274
3
275
0
276
0
277
2
278
46
279
2
280
0
281
0
282
0
283
0
284
8
285
0
286
0
288
1
289
3
290
0
340
4C
342
74
371
-2
372
-2
  0
DIMSTYLE
105
7C
330
4
100
AcDbSymbolTableRecord
100
AcDbDimStyleTableRecord
  2
EZ_M_100_H25_CM
 70
0
 40
1.0
 41
0.25
 42
0.125
 43
3.75
 44
0.375
 45
0.0
 46
0.0
 47
0.0
 48
0.0
 49
2.5
140
0.25
141
2.5
142
0.125
143
0.03937007874
144
100.0
145
0.0
146
0.5
147
0.1
148
0.0
 69
0
 70
0
 71
0
 72
0
 73
0
 74
0
 75
0
 76
0
 77
1
 78
12
 79
3
170
0
171
3
172
1
173
0
174
0
175
0
176
0
177
0
178
0
179
2
271
2
272
2
273
2
274
3
275
0
276
0
277
2
278
46
279
2
280
0
281
0
282
0
283
0
284
8
285
0
286
0
288
1
289
3
290
0
340
4C
371
-2
372
-2
  0
DIMSTYLE
105
7D
330
4
100
AcDbSymbolTableRecord
100
AcDbDimStyleTableRecord
  2
EZ_M_50_H25_CM
 70
0
 40
1.0
 41
0.125
 42
0.0625
 43
3.75
 44
0.1875
 45
0.0
 46
0.0
 47
0.0
 48
0.0
 49
2.5
140
0.125
141
2.5
142
0.0625
143
0.03937007874
144
100.0
145
0.0
146
0.5
147
0.05
148
0.0
 69
0
 70
0
 71
0
 72
0
 73
0
 74
0
 75
0
 76
0
 77
1
 78
12
 79
3
170
0
171
3
172
1
173
0
174
0
175
0
176
0
177
0
178
0
179
2
271
2
272
2
273
2
274
3
275
0
276
0
277
2
278
46
279
2
280
0
281
0
282
0
283
0
284
8
285
0
286
0
288
1
289
3
290
0
340
4C
371
-2
372
-2
  0
DIMSTYLE
105
7E
330
4
100
AcDbSymbolTableRecord
100
AcDbDimStyleTableRecord
  2
EZ_M_25_H25_CM
 70
0
 40
1.0
 41
0.0625
 42
0.03125
 43
3.75
 44
0.09375
 45
0.0
 46
0.0
 47
0.0
 48
0.0
 49
2.5
140
0.0625
141
2.5
142
0.03125
143
0.03937007874
144
100.0
145
0.0
146
0.5
147
0.025
148
0.0
 69
0
 70
0
 71
0
 72
0
 73
0
 74
0
 75
0
 76
0
 77
1
 78
12
 79
3
170
0
171
3
172
1
173
0
174
0
175
0
176
0
177
0
178
0
179
2
271
2
272
2
273
2
274
3
275
0
276
0
277
2
278
46
279
2
280
0
281
0
282
0
283
0
284
8
285
0
286
0
288
1
289
3
290
0
340
4C
371
-2
372
-2
  0
DIMSTYLE
105
7F
330
4
100
AcDbSymbolTableRecord
100
AcDbDimStyleTableRecord
  2
EZ_M_20_H25_CM
 70
0
 40
1.0
 41
0.05
 42
0.025
 43
3.75
 44
0.07500000000000001
 45
0.0
 46
0.0
 47
0.0
 48
0.0
 49
2.5
140
0.05
141
2.5
142
0.025
143
0.03937007874
144
100.0
145
0.0
146
0.5
147
0.020000000000000004
148
0.0
 69
0
 70
0
 71
0
 72
0
 73
0
 74
0
 75
0
 76
0
 77
1
 78
12
 79
3
170
0
171
3
172
1
173
0
174
0
175
0
176
0
177
0
178
0
179
2
271
2
272
2
273
2
274
3
275
0
276
0
277
2
278
46
279
2
280
0
281
0
282
0
283
0
284
8
285
0
286
0
288
1
289
3
290
0
340
4C
371
-2
372
-2
  0
DIMSTYLE
105
80
330
4
100
AcDbSymbolTableRecord
100
AcDbDimStyleTableRecord
  2
EZ_M_10_H25_CM
 70
0
 40
1.0
 41
0.025
 42
0.0125
 43
3.75
 44
0.037500000000000006
 45
0.0
 46
0.0
 47
0.0
 48
0.0
 49
2.5
140
0.025
141
2.5
142
0.0125
143
0.03937007874
144
100.0
145
0.0
146
0.5
147
0.010000000000000002
148
0.0
 69
0
 70
0
 71
0
 72
0
 73
0
 74
0
 75
0
 76
0
 77
1
 78
12
 79
3
170
0
171
3
172
1
173
0
174
0
175
0
176
0
177
0
178
0
179
2
271
2
272
2
273
2
274
3
275
0
276
0
277
2
278
46
279
2
280
0
281
0
282
0
283
0
284
8
285
0
286
0
288
1
289
3
290
0
340
4C
371
-2
372
-2
  0
DIMSTYLE
105
81
330
4
100
AcDbSymbolTableRecord
100
AcDbDimStyleTableRecord
  2
EZ_M_5_H25_CM
 70
0
 40
1.0
 41
0.0125
 42
0.00625
 43
3.75
 44
0.018750000000000003
 45
0.0
 46
0.0
 47
0.0
 48
0.0
 49
2.5
140
0.0125
141
2.5
142
0.00625
143
0.03937007874
144
100.0
145
0.0
146
0.5
147
0.005000000000000001
148
0.0
 69
0
 70
0
 71
0
 72
0
 73
0
 74
0
 75
0
 76
0
 77
1
 78
12
 79
3
170
0
171
3
172
1
173
0
174
0
175
0
176
0
177
0
178
0
179
2
271
2
272
2
273
2
274
3
275
0
276
0
277
2
278
46
279
2
280
0
281
0
282
0
283
0
284
8
285
0
286
0
288
1
289
3
290
0
340
4C
371
-2
372
-2
  0
DIMSTYLE
105
82
330
4
100
AcDbSymbolTableRecord
100
AcDbDimStyleTableRecord
  2
EZ_M_1_H25_CM
 70
0
 40
1.0
 41
0.0025
 42
0.00125
 43
3.75
 44
0.00375
 45
0.0
 46
0.0
 47
0.0
 48
0.0
 49
2.5
140
0.0025
141
2.5
142
0.00125
143
0.03937007874
144
100.0
145
0.0
146
0.5
147
0.001
148
0.0
 69
0
 70
0
 71
0
 72
0
 73
0
 74
0
 75
0
 76
0
 77
1
 78
12
 79
3
170
0
171
3
172
1
173
0
174
0
175
0
176
0
177
0
178
0
179
2
271
2
272
2
273
2
274
3
275
0
276
0
277
2
278
46
279
2
280
0
281
0
282
0
283
0
284
8
285
0
286
0
288
1
289
3
290
0
340
4C
371
-2
372
-2
  0
DIMSTYLE
105
83
330
4
100
AcDbSymbolTableRecord
100
AcDbDimStyleTableRecord
  2
EZ_RADIUS
 70
0
 40
1.0
 41
0.25
 42
0.125
 43
3.75
 44
0.375
 45
0.0
 46
0.0
 47
0.0
 48
0.0
 49
2.5
140
0.25
141
0.0
142
0.0
143
0.03937007874
144
100.0
145
0.0
146
0.5
147
0.1
148
0.0
 69
0
 70
0
 71
0
 72
0
 73
0
 74
0
 75
0
 76
0
 77
1
 78
12
 79
3
170
0
171
3
172
0
173
0
174
0
175
0
176
0
177
0
178
0
179
2
271
2
272
2
273
2
274
3
275
0
276
0
277
2
278
46
279
1
280
0
281
0
282
0
283
0
284
8
285
0
286
0
288
1
289
3
290
0
340
4C
342
84
371
-2
372
-2
  0
DIMSTYLE
105
88
330
4
100
AcDbSymbolTableRecord
100
AcDbDimStyleTableRecord
  2
EZ_RADIUS_INSIDE
 70
0
 40
1.0
 41
0.25
 42
0.125
 43
3.75
 44
0.375
 45
0.0
 46
0.0
 47
0.0
 48
0.0
 49
2.5
140
0.25
141
0.0
142
0.0
143
0.03937007874
144
100.0
145
0.0
146
0.5
147
0.1
148
0.0
 69
0
 70
0
 71
0
 72
0
 73
0
 74
0
 75
0
 76
0
 77
0
 78
12
 79
3
170
0
171
3
172
0
173
0
174
1
175
0
176
0
177
0
178
0
179
2
271
2
272
2
273
2
274
3
275
0
276
0
277
2
278
46
279
0
280
0
281
0
282
0
283
0
284
8
285
0
286
0
288
1
289
0
290
0
340
4C
342
84
371
-2
372
-2
  0
DIMSTYLE
105
89
330
4
100
AcDbSymbolTableRecord
100
AcDbDimStyleTableRecord
  2
EZ_CURVED
 70
0
 40
1.0
 41
0.25
 42
0.125
 43
3.75
 44
0.375
 45
0.0
 46
0.0
 47
0.0
 48
0.0
 49
2.5
140
0.25
141
2.5
142
0.0
143
0.03937007874
144
100.0
145
0.0
146
0.5
147
0.1
148
0.0
 69
0
 70
0
 71
0
 72
0
 73
0
 74
0
 75
0
 76
0
 77
1
 78
12
 79
2
 90
2
170
0
171
3
172
1
173
0
174
0
175
0
176
0
177
0
178
0
179
2
271
2
272
2
273
2
274
3
275
0
276
0
277
2
278
46
279
2
280
0
281
0
282
0
283
0
284
8
285
0
286
0
288
1
289
3
290
0
340
4C
371
-2
372
-2
  0
ENDTAB
  0
TABLE
  2
BLOCK_RECORD
  5
9
330
0
100
AcDbSymbolTable
 70
5
  0
BLOCK_RECORD
  5
17
330
9
100
AcDbSymbolTableRecord
100
AcDbBlockTableRecord
  2
*Model_Space
340
1A
 70
0
280
1
281
0
  0
BLOCK_RECORD
  5
1B
330
9
100
AcDbSymbolTableRecord
100
AcDbBlockTableRecord
  2
*Paper_Space
340
1E
 70
0
280
1
281
0
  0
BLOCK_RECORD
  5
74
330
9
100
AcDbSymbolTableRecord
100
AcDbBlockTableRecord
  2
_ARCHTICK
340
0
 70
0
280
1
281
0
  0
BLOCK_RECORD
  5
78
330
9
100
AcDbSymbolTableRecord
100
AcDbBlockTableRecord
  2
_CLOSEDFILLED
340
0
 70
0
280
1
281
0
  0
BLOCK_RECORD
  5
84
330
9
100
AcDbSymbolTableRecord
100
AcDbBlockTableRecord
  2
_CLOSEDBLANK
340
0
 70
0
280
1
281
0
  0
ENDTAB
  0
ENDSEC
  0
SECTION
  2
BLOCKS
  0
BLOCK
  5
18
330
17
100
AcDbEntity
  8
0
100
AcDbBlockBegin
  2
*Model_Space
 70
0
 10
0.0
 20
0.0
 30
0.0
  3
*Model_Space
  1

  0
ENDBLK
  5
19
330
17
100
AcDbEntity
  8
0
100
AcDbBlockEnd
  0
BLOCK
  5
1C
330
1B
100
AcDbEntity
  8
0
100
AcDbBlockBegin
  2
*Paper_Space
 70
0
 10
0.0
 20
0.0
 30
0.0
  3
*Paper_Space
  1

  0
ENDBLK
  5
1D
330
1B
100
AcDbEntity
  8
0
100
AcDbBlockEnd
  0
BLOCK
  5
75
330
74
100
AcDbEntity
  8
0
100
AcDbBlockBegin
  2
_ARCHTICK
 70
0
 10
0.0
 20
0.0
 30
0.0
  3
_ARCHTICK
  1

  0
LWPOLYLINE
  5
77
330
74
100
AcDbEntity
  8
0
  6
BYBLOCK
 62
0
100
AcDbPolyline
 90
2
 70
0
 43
0.15
 10
-0.5
 20
-0.5
 10
0.5
 20
0.5
  0
ENDBLK
  5
76
330
74
100
AcDbEntity
  8
0
100
AcDbBlockEnd
  0
BLOCK
  5
79
330
78
100
AcDbEntity
  8
0
100
AcDbBlockBegin
  2
_CLOSEDFILLED
 70
0
 10
0.0
 20
0.0
 30
0.0
  3
_CLOSEDFILLED
  1

  0
SOLID
  5
7B
330
78
100
AcDbEntity
  8
0
  6
BYBLOCK
 62
0
100
AcDbTrace
 10
-1.0
 20
0.16439898372402537
 30
0.0
 11
0.0
 21
0.0
 31
0.0
 12
-1.0
 22
-0.16439898372402537
 32
0.0
 13
-1.0
 23
-0.16439898372402537
 33
0.0
  0
ENDBLK
  5
7A
330
78
100
AcDbEntity
  8
0
100
AcDbBlockEnd
  0
BLOCK
  5
85
330
84
100
AcDbEntity
  8
0
100
AcDbBlockBegin
  2
_CLOSEDBLANK
 70
0
 10
0.0
 20
0.0
 30
0.0
  3
_CLOSEDBLANK
  1

  0
LWPOLYLINE
  5
87
330
84
100
AcDbEntity
  8
0
  6
BYBLOCK
 62
0
100
AcDbPolyline
 90
3
 70
1
 10
-1.0
 20
0.16439898372402537
 10
0.0
 20
0.0
 10
-1.0
 20
-0.16439898372402537
  0
ENDBLK
  5
86
330
84
100
AcDbEntity
  8
0
100
AcDbBlockEnd
  0
ENDSEC
  0
SECTION
  2
ENTITIES
  0
LWPOLYLINE
  5
8C
330
17
100
AcDbEntity
  8
Layer
100
AcDbPolyline
 90
148
 70
1
 10
518.8155339955331
 20
258.61899196100194
 10
512.7359126626737
 20
259.5298883041459
 10
502.05963119425587
 20
261.0341527756131
 10
491.37695968828365
 20
262.4384179011549
 10
480.68392531421784
 20
263.74163675465195
 10
469.9803853101963
 20
264.94830341220495
 10
459.27377081378563
 20
266.0637672452767
 10
448.57353152638154
 20
267.08759331788093
 10
437.88528279633476
 20
268.01565799827654
 10
427.2115750880748
 20
268.8442564616405
 10
416.5534138388941
 20
269.5721753194375
 10
405.91099887792984
 20
270.20050848457873
 10
395.28662974489845
 20
270.733301709873
 10
384.6894943167953
 20
271.17447058222365
 10
374.1317235459678
 20
271.5226248259795
 10
363.6185700381153
 20
271.77067461029236
 10
353.14758907755817
 20
271.91430657311514
 10
342.7171724571547
 20
271.95667211646673
 10
332.33256964281145
 20
271.9043739010351
 10
322.0031887977901
 20
271.7619894044343
 10
311.74144780203545
 20
271.53076339026217
 10
301.5614065362381
 20
271.20629061968924
 10
291.46937915371376
 20
270.7785091149059
 10
281.45964006256486
 20
270.2399680219293
 10
271.52459110945284
 20
269.5959202961274
 10
261.6704258769514
 20
268.8607013292124
 10
251.91769699175248
 20
268.0440668603437
 10
242.28880060857153
 20
267.1421122340553
 10
232.79718889902648
 20
266.1425719282069
 10
223.4427487315055
 20
265.0346984547184
 10
214.21717901744975
 20
263.8191979010549
 10
205.1196782468233
 20
262.5120776013406
 10
196.171006055177
 20
261.135018388793
 10
187.40615049479769
 20
259.696849380855
 10
178.85296582848758
 20
258.18729737849804
 10
170.51589183684612
 20
256.58937439842634
 10
162.3800588753291
 20
254.90059841270983
 10
154.436629912163
 20
253.14388637766345
 10
146.705193743767
 20
251.35289594236696
 10
139.2232517529999
 20
249.542547798327
 10
132.012009526241
 20
247.70087407556719
 10
125.06271614574473
 20
245.81237995885118
 10
118.354582064868
 20
243.87882015411552
 10
111.87531864665812
 20
241.91590756248453
 10
105.62361382657338
 20
239.93922217144797
 10
99.60394626042068
 20
237.95786111210685
 10
93.82023763245468
 20
235.97414825055313
 10
88.2723681356851
 20
233.9842009340807
 10
82.95243186728476
 20
231.97970811476173
 10
77.84604555947686
 20
229.95474527726734
 10
72.93854339086243
 20
227.91028027120396
 10
68.22112625011346
 20
225.85361350448383
 10
63.693076067753
 20
223.79238463558292
 10
59.35667496891642
 20
221.72845366583212
 10
55.21053596475332
 20
219.65808457736836
 10
51.24844649478081
 20
217.57853342027397
 10
47.465297357277734
 20
215.49428692033638
 10
43.861484122199386
 20
213.41228690032864
 10
40.437894896307114
 20
211.33456368129092
 10
37.190888707000965
 20
209.25838642255763
 10
34.11581386535278
 20
207.18371895645953
 10
31.213643108029714
 20
205.11335932584535
 10
28.489784614751045
 20
203.04978568303522
 10
25.948595043007117
 20
200.99200932339664
 10
23.591778954404447
 20
198.93988969579038
 10
21.41875420808026
 20
196.89416908538357
 10
19.422394154822996
 20
194.8513949444282
 10
17.590067293932407
 20
192.81143538728136
 10
15.91618159955891
 20
190.78992245613614
 10
14.414411477015108
 20
188.8150379212416
 10
13.106814342048438
 20
186.89889379653061
 10
12.001116303528761
 20
185.02337954029656
 10
11.085827880548266
 20
183.16299556163915
 10
10.345435038364485
 20
181.31664974302254
 10
9.773251843263552
 20
179.5071285184747
 10
9.37004278724254
 20
177.73643346998784
 10
9.136860890958076
 20
175.94765667612205
 10
9.082897096172246
 20
174.3109252851324
 10
9.203049631864019
 20
172.6781881560206
 10
9.510478879862603
 20
171.10824962216108
 10
10.025848001640384
 20
169.58057300045218
 10
10.767648353359675
 20
168.06923911027678
 10
11.735524398609073
 20
166.56696493178475
 10
12.914499040777343
 20
165.08656850574886
 10
14.300145523179253
 20
163.64336679081634
 10
15.906865573271546
 20
162.24233641511586
 10
17.750306719166986
 20
160.88051038743575
 10
19.83032655067285
 20
159.55607405758963
 10
22.140069098852052
 20
158.272133762585
 10
24.680854254384826
 20
157.03165056079962
 10
27.460944932579935
 20
155.83170001585165
 10
30.482352209344697
 20
154.6652574259964
 10
33.740408883034945
 20
153.52747890139767
 10
37.23027059176627
 20
152.41769297865102
 10
40.95109888310236
 20
151.33712851854395
 10
44.903661094176016
 20
150.2862321092409
 10
49.09070175816413
 20
149.26487949059185
 10
53.51791695424163
 20
148.27148072724873
 10
58.189738893758374
 20
147.30236337654202
 10
63.108063414459934
 20
146.35598342957755
 10
68.27758689743598
 20
145.43494430976244
 10
73.71112034298733
 20
144.54203145905035
 10
79.4231883924868
 20
143.67470933599157
 10
85.4240469975739
 20
142.82820375445732
 10
91.72189561131353
 20
142.001290593513
 10
98.33043529653156
 20
141.19598590977594
 10
105.26633681797324
 20
140.4122981319106
 10
112.54251848313277
 20
139.64709075284458
 10
120.16637531310937
 20
138.89921758268102
 10
128.14396031421467
 20
138.17195707536618
 10
136.47950862148383
 20
137.46868961967127
 10
145.17043566647135
 20
136.79055546209605
 10
154.20478453103223
 20
136.13964777202654
 10
163.56569382005236
 20
135.52068930514776
 10
173.23517160297692
 20
134.9365462835163
 10
183.18969412091784
 20
134.38644644403507
 10
193.40141264816376
 20
133.87128808832603
 10
203.84766727248004
 20
133.39315148389375
 10
208.78319824552665
 20
133.18830455187722
 10
208.7417294111688
 20
132.18916475396253
 10
214.47138670579028
 20
131.95135418339635
 10
225.33008762937985
 20
131.54300672198227
 10
236.36735818613695
 20
131.17128871016143
 10
247.57765850027138
 20
130.83506700828661
 10
258.94719106012496
 20
130.52664643748608
 10
270.44403390985957
 20
130.24127055586388
 10
282.0420937368961
 20
129.98537217050475
 10
293.74301416058876
 20
129.76640948837849
 10
305.56403827963106
 20
129.58150868278142
 10
317.5126424531873
 20
129.41758964922778
 10
329.5739206339751
 20
129.2594645729577
 10
341.71918411320354
 20
129.0984494249889
 10
353.9215261162581
 20
128.9387481101463
 10
366.1646747016751
 20
128.79520559196766
 10
378.46165999039033
 20
128.67800576409476
 10
390.8332585917605
 20
128.5788702753532
 10
403.2779862465517
 20
128.4796628244889
 10
415.7699890909451
 20
128.37309086946124
 10
428.2908523014
 20
128.2685274475694
 10
440.83625870583495
 20
128.1746395575541
 10
453.4029066985366
 20
128.08740786231982
 10
465.9759609461736
 20
128.0013122649305
 10
478.5419969754321
 20
127.92319458287676
 10
491.1068999098044
 20
127.86280283564672
 10
503.6829087479541
 20
127.8139727916506
 10
516.2631873641556
 20
127.75710776681225
 10
518.8155339771524
 20
127.74202150642517
 10
518.8155339955331
 20
258.61899196100194
  0
LWPOLYLINE
  5
8D
330
17
100
AcDbEntity
  8
NumLabel
 62
1
100
AcDbPolyline
 90
6
 70
0
 10
294.9366990291263
 20
159.11844660194174
 10
299.9366990291263
 20
159.11844660194174
 10
299.9366990291263
 20
154.11844660194174
 10
294.9366990291263
 20
154.11844660194174
 10
294.9366990291263
 20
149.11844660194174
 10
299.9366990291263
 20
149.11844660194174
  0
LWPOLYLINE
  5
8E
330
17
100
AcDbEntity
  8
NumLabel
 62
1
100
AcDbPolyline
 90
6
 70
0
 10
302.4366990291263
 20
159.11844660194174
 10
307.4366990291263
 20
159.11844660194174
 10
307.4366990291263
 20
154.11844660194174
 10
302.4366990291263
 20
154.11844660194174
 10
302.4366990291263
 20
149.11844660194174
 10
307.4366990291263
 20
149.11844660194174
  0
LWPOLYLINE
  5
8F
330
17
100
AcDbEntity
  8
Layer
100
AcDbPolyline
 90
5
 70
1
 10
291.48969198040527
 20
266.77381517194596
 10
287.49547063242244
 20
266.55888303540536
 10
287.28053849588184
 20
270.5531043833882
 10
291.2747598438647
 20
270.7680365199288
 10
291.48969198040527
 20
266.77381517194596
  0
LWPOLYLINE
  5
90
330
17
100
AcDbEntity
  8
Layer
100
AcDbPolyline
 90
5
 70
1
 10
117.53246512222745
 20
239.4501902612917
 10
113.70430415773652
 20
238.29036974502725
 10
112.54448364147208
 20
242.11853070951815
 10
116.37264460596302
 20
243.27835122578261
 10
117.53246512222745
 20
239.4501902612917
  0
LWPOLYLINE
  5
91
330
17
100
AcDbEntity
  8
Layer
100
AcDbPolyline
 90
5
 70
1
 10
29.62835351425497
 20
197.5665314832073
 10
28.12048010585355
 20
196.25263735344043
 10
24.835744781436343
 20
200.022320874444
 10
26.343618189837766
 20
201.33621500421089
 10
29.62835351425497
 20
197.5665314832073
  0
LWPOLYLINE
  5
92
330
17
100
AcDbEntity
  8
Layer
100
AcDbPolyline
 90
5
 70
1
 10
19.830757952611307
 20
165.56226652565178
 10
21.441246589231554
 20
164.37638021098368
 10
18.476530802561328
 20
160.35015861943307
 10
16.86604216594108
 20
161.53604493410117
 10
19.830757952611307
 20
165.56226652565178
  0
LWPOLYLINE
  5
93
330
17
100
AcDbEntity
  8
Layer
100
AcDbPolyline
 90
5
 70
1
 10
156.27507177879534
 20
140.01149631277443
 10
160.26635689403446
 20
139.74759646648667
 10
160.0024570477467
 20
135.75631135124755
 10
156.01117193250758
 20
136.0202111975353
 10
156.27507177879534
 20
140.01149631277443
  0
LWPOLYLINE
  5
94
330
17
100
AcDbEntity
  8
Layer
100
AcDbPolyline
 90
300
 70
1
 10
453.5219947828238
 20
200.0
 10
453.5094492433069
 20
201.26816751315138
 10
453.47181816451337
 20
202.53577503922935
 10
453.40911816326815
 20
203.80226283843498
 10
453.3213769261268
 20
205.0670716654092
 10
453.20863319714954
 20
206.3296430161799
 10
453.0709367607933
 20
207.58941937478133
 10
452.908348419928
 20
208.84584445943776
 10
452.720939968988
 20
210.0983634682016
 10
452.50879416226934
 20
211.3464233239384
 10
452.2720046773882
 20
212.5894729185502
 10
452.01067607391525
 20
213.82696335632932
 10
451.724923747205
 20
215.05834819633515
 10
451.41487387744075
 20
216.28308369368733
 10
451.08066337391665
 20
217.50062903966784
 10
450.72243981458274
 20
218.7104466005273
 10
450.3403613808783
 20
219.9120021548885
 10
449.9345967878838
 20
221.10476512964385
 10
449.5053252098207
 20
222.28820883424135
 10
449.0527362009334
 20
223.46181069325633
 10
448.57702961178734
 20
224.62505247714608
 10
448.07841550102063
 20
225.77742053108548
 10
447.55711404258795
 20
226.91840600178233
 10
447.0133554285382
 20
228.04750506217286
 10
446.4473797673678
 20
229.16421913389743
 10
445.859436977996
 20
230.26805510745876
 10
445.24978667940724
 20
231.35852555996513
 10
444.61869807601096
 20
232.43514897036277
 10
443.96644983876865
 20
233.4974499320618
 10
443.29332998214034
 20
234.54495936286258
 10
442.59963573690555
 20
235.57721471208896
 10
441.88567341891473
 20
236.593760164838
 10
441.15175829382866
 20
237.5941468432546
 10
440.39821443790595
 20
238.57793300474367
 10
439.62537459490034
 20
239.544684237031
 10
438.83358002913013
 20
240.49397364998754
 10
438.0231803747856
 20
241.42538206413212
 10
437.19453348154053
 20
242.3384981957293
 10
436.34800525653554
 20
243.23291883840062
 10
435.48396950280403
 20
244.10824904116922
 10
434.60280775421126
 20
244.96410228285913
 10
433.70490910697976
 20
245.80010064277212
 10
432.7906700478752
 20
246.61587496756667
 10
431.8604942791292
 20
247.41106503426602
 10
430.91479254017577
 20
248.18531970932216
 10
429.9539824262802
 20
248.9382971036668
 10
428.97848820414094
 20
249.66966472367974
 10
427.98874062454513
 20
250.37909961800887
 10
426.9851767321614
 20
251.06628852017616
 10
425.9682396725532
 20
251.73092798690772
 10
424.938378496498
 20
252.37272453212526
 10
423.8960479616995
 20
252.9913947565418
 10
422.84170833197896
 20
253.5866654728025
 10
421.7758251740361
 20
254.15827382611664
 10
420.6988691518675
 20
254.70596741032682
 10
419.6113158189351
 20
255.22950437936439
 10
418.51364540817485
 20
255.72865355404207
 10
417.4063426199394
 20
256.2031945241359
 10
416.2898964079682
 20
256.6529177457124
 10
415.16479976347927
 20
257.0776246336571
 10
414.03154949747795
 20
257.47712764936426
 10
412.8906460213795
 20
257.8512503835487
 10
411.7425931260412
 20
258.19982763414293
 10
410.5878977593026
 20
258.52270547924593
 10
409.42706980213165
 20
258.8197413450907
 10
408.26062184347563
 20
259.09080406900074
 10
407.08906895391624
 20
259.335773957308
 10
405.9129284582289
 20
259.55454283820586
 10
404.7327197069468
 20
259.74701410951525
 10
403.54896384703034
 20
259.91310278134097
 10
402.3621835917431
 20
260.0527355136011
 10
401.1729029898366
 20
260.16585064841195
 10
399.98164719414507
 20
260.25239823731425
 10
398.78894222969257
 20
260.3123400633292
 10
397.5953147614155
 20
260.3456496578339
 10
396.40129186160186
 20
260.35231231224907
 10
395.207400777151
 20
260.33232508453403
 10
394.0141686967565
 20
260.285696800486
 10
392.82212251811416
 20
260.21244804984246
 10
391.631788615259
 20
260.11261117718976
 10
390.44369260613325
 20
259.98623026768024
 10
389.2583591204883
 20
259.8333611275658
 10
388.0763115682229
 20
259.6540712595554
 10
386.8980719082601
 20
259.44843983300734
 10
385.72416041806497
 20
259.21655764897093
 10
384.55509546390465
 20
258.95852710009086
 10
383.3913932719523
 20
258.6744621253937
 10
382.23356770033644
 20
258.36448815997545
 10
381.08213001223527
 20
258.02874207961315
 10
379.9375886501176
 20
257.66737214032435
 10
378.8004490112288
 20
257.2805379129011
 10
377.67121322442165
 20
256.86841021244845
 10
376.55037992843023
 20
256.43117102295713
 10
375.43844405168534
 20
255.96901341694434
 10
374.3358965937679
 20
255.48214147019866
 10
373.24322440859737
 20
254.97077017166578
 10
372.1609099894507
 20
254.43512532851545
 10
371.089431255907
 20
253.87544346643136
 10
370.02926134281165
 20
253.29197172516814
 10
368.9808683913533
 20
252.6849677494213
 10
367.9447153423457
 20
252.05469957505872
 10
366.92125973180663
 20
251.40144551076338
 10
365.91095348892213
 20
250.72549401514027
 10
364.9142427364877
 20
250.02714356934098
 10
363.9315675939132
 20
249.30670254526305
 10
362.9633619828781
 20
248.56448906938147
 10
362.0100534357241
 20
247.800830882273
 10
361.0720629066689
 20
247.01606519389526
 10
360.1498045859247
 20
246.21053853468413
 10
359.2436857168032
 20
245.38460660253583
 10
358.35410641588885
 20
244.5386341057407
 10
357.4814594963581
 20
243.6729946019382
 10
356.6261302945247
 20
242.78807033316446
 10
355.78849649968566
 20
241.8842520570649
 10
354.96892798734444
 20
240.9619388743468
 10
354.16778665588424
 20
240.02153805254744
 10
353.385426266764
 20
239.06346484619633
 10
352.6221922883073
 20
238.0881423134506
 10
351.878421743153
 20
237.09600112928416
 10
351.1544430594359
 20
236.08747939531412
 10
350.4505759257619
 20
235.06302244634713
 10
349.7671311500425
 20
234.02308265373216
 10
349.10441052225093
 20
232.96811922560622
 10
348.46270668116017
 20
231.89859800412066
 10
347.84230298512165
 20
230.81499125973866
 10
347.24347338694247
 20
229.7177774826938
 10
346.6664823129155
 20
228.60744117170216
 10
346.11158454605595
 20
227.48447262002142
 10
345.5790251135968
 20
226.34936769895114
 10
345.0690391787912
 20
225.20262763887
 10
344.58185193707124
 20
224.04475880790648
 10
344.117678516608
 20
222.87627248834096
 10
343.676723883317
 20
221.69768465083797
 10
343.2591827503508
 20
220.5095157266079
 10
342.8652394921196
 20
219.3122903775994
 10
342.49506806287616
 20
218.1065372648233
 10
342.14883191990293
 20
216.8927888149109
 10
341.82668395133373
 20
215.67158098500923
 10
341.52876640864264
 20
214.4434530261176
 10
341.25521084382973
 20
213.20894724496944
 10
341.00613805133156
 20
211.96860876456495
 10
340.7816580146816
 20
210.7229852834601
 10
340.5818698579447
 20
209.47262683391844
 10
340.4068618019466
 20
208.21808553903224
 10
340.2567111253181
 20
206.95991536892058
 10
340.1314841303711
 20
205.6986718961116
 10
340.03123611382136
 20
204.43491205021746
 10
339.9560113423708
 20
203.16919387200983
 10
339.90584303316086
 20
201.90207626700476
 10
339.88075333910456
 20
200.6341187586658
 10
339.88075333910456
 20
199.3658812413342
 10
339.90584303316086
 20
198.09792373299524
 10
339.9560113423708
 20
196.83080612799017
 10
340.03123611382136
 20
195.56508794978254
 10
340.1314841303711
 20
194.30132810388838
 10
340.2567111253181
 20
193.04008463107942
 10
340.4068618019466
 20
191.78191446096776
 10
340.5818698579447
 20
190.52737316608156
 10
340.7816580146816
 20
189.2770147165399
 10
341.00613805133156
 20
188.03139123543505
 10
341.25521084382973
 20
186.79105275503056
 10
341.52876640864264
 20
185.5565469738824
 10
341.82668395133373
 20
184.3284190149908
 10
342.14883191990293
 20
183.10721118508914
 10
342.49506806287616
 20
181.8934627351767
 10
342.8652394921196
 20
180.68770962240063
 10
343.2591827503508
 20
179.49048427339213
 10
343.676723883317
 20
178.30231534916206
 10
344.117678516608
 20
177.12372751165904
 10
344.58185193707124
 20
175.95524119209352
 10
345.0690391787912
 20
174.79737236113
 10
345.5790251135968
 20
173.65063230104886
 10
346.11158454605595
 20
172.5155273799786
 10
346.6664823129155
 20
171.39255882829787
 10
347.24347338694247
 20
170.2822225173062
 10
347.84230298512165
 20
169.1850087402613
 10
348.46270668116017
 20
168.10140199587934
 10
349.10441052225093
 20
167.0318807743938
 10
349.7671311500425
 20
165.97691734626784
 10
350.4505759257618
 20
164.9369775536529
 10
351.15444305943583
 20
163.91252060468588
 10
351.87842174315296
 20
162.90399887071584
 10
352.62219228830725
 20
161.9118576865494
 10
353.385426266764
 20
160.93653515380367
 10
354.16778665588424
 20
159.97846194745256
 10
354.9689279873444
 20
159.0380611256532
 10
355.78849649968566
 20
158.1157479429351
 10
356.6261302945247
 20
157.21192966683554
 10
357.4814594963581
 20
156.32700539806183
 10
358.35410641588885
 20
155.4613658942593
 10
359.24368571680327
 20
154.61539339746417
 10
360.1498045859247
 20
153.7894614653159
 10
361.0720629066689
 20
152.98393480610477
 10
362.0100534357241
 20
152.19916911772702
 10
362.96336198287804
 20
151.43551093061853
 10
363.9315675939132
 20
150.69329745473698
 10
364.9142427364877
 20
149.97285643065902
 10
365.9109534889221
 20
149.27450598485976
 10
366.92125973180663
 20
148.59855448923662
 10
367.9447153423458
 20
147.94530042494128
 10
368.9808683913533
 20
147.31503225057867
 10
370.02926134281165
 20
146.70802827483186
 10
371.089431255907
 20
146.12455653356864
 10
372.1609099894507
 20
145.56487467148455
 10
373.24322440859737
 20
145.02922982833422
 10
374.3358965937679
 20
144.51785852980134
 10
375.43844405168534
 20
144.03098658305566
 10
376.55037992843023
 20
143.5688289770429
 10
377.6712132244216
 20
143.13158978755155
 10
378.8004490112288
 20
142.71946208709892
 10
379.9375886501176
 20
142.33262785967568
 10
381.08213001223527
 20
141.97125792038682
 10
382.23356770033644
 20
141.63551184002455
 10
383.3913932719523
 20
141.3255378746063
 10
384.55509546390465
 20
141.04147289990914
 10
385.72416041806497
 20
140.7834423510291
 10
386.8980719082601
 20
140.5515601669927
 10
388.0763115682229
 20
140.34592874044463
 10
389.2583591204883
 20
140.16663887243416
 10
390.4436926061332
 20
140.01376973231976
 10
391.631788615259
 20
139.88738882281027
 10
392.82212251811416
 20
139.78755195015754
 10
394.0141686967565
 20
139.714303199514
 10
395.207400777151
 20
139.66767491546597
 10
396.40129186160186
 20
139.64768768775096
 10
397.5953147614155
 20
139.65435034216608
 10
398.78894222969257
 20
139.68765993667077
 10
399.98164719414507
 20
139.74760176268575
 10
401.1729029898366
 20
139.83414935158808
 10
402.3621835917431
 20
139.94726448639892
 10
403.54896384703034
 20
140.08689721865906
 10
404.7327197069468
 20
140.25298589048475
 10
405.9129284582289
 20
140.4454571617941
 10
407.08906895391624
 20
140.664226042692
 10
408.26062184347563
 20
140.90919593099926
 10
409.42706980213165
 20
141.18025865490932
 10
410.58789775930256
 20
141.4772945207541
 10
411.7425931260412
 20
141.8001723658571
 10
412.8906460213795
 20
142.1487496164513
 10
414.03154949747795
 20
142.52287235063574
 10
415.1647997634792
 20
142.92237536634292
 10
416.2898964079682
 20
143.3470822542876
 10
417.4063426199394
 20
143.79680547586412
 10
418.51364540817485
 20
144.27134644595793
 10
419.6113158189351
 20
144.77049562063561
 10
420.69886915186754
 20
145.2940325896732
 10
421.7758251740361
 20
145.84172617388336
 10
422.84170833197896
 20
146.4133345271975
 10
423.8960479616995
 20
147.0086052434582
 10
424.938378496498
 20
147.6272754678747
 10
425.9682396725531
 20
148.26907201309228
 10
426.9851767321614
 20
148.9337114798238
 10
427.98874062454513
 20
149.62090038199113
 10
428.97848820414094
 20
150.33033527632026
 10
429.9539824262802
 20
151.0617028963332
 10
430.91479254017577
 20
151.81468029067784
 10
431.8604942791292
 20
152.58893496573398
 10
432.7906700478752
 20
153.38412503243333
 10
433.70490910697976
 20
154.19989935722788
 10
434.6028077542113
 20
155.03589771714087
 10
435.48396950280403
 20
155.89175095883078
 10
436.34800525653554
 20
156.7670811615994
 10
437.19453348154053
 20
157.6615018042707
 10
438.0231803747856
 20
158.57461793586788
 10
438.83358002913013
 20
159.50602635001246
 10
439.62537459490034
 20
160.45531576296898
 10
440.39821443790595
 20
161.4220669952563
 10
441.15175829382866
 20
162.40585315674537
 10
441.88567341891473
 20
163.406239835162
 10
442.59963573690555
 20
164.422785287911
 10
443.29332998214034
 20
165.45504063713742
 10
443.96644983876865
 20
166.50255006793816
 10
444.61869807601096
 20
167.56485102963723
 10
445.24978667940724
 20
168.64147444003487
 10
445.859436977996
 20
169.73194489254124
 10
446.4473797673678
 20
170.83578086610257
 10
447.0133554285382
 20
171.95249493782714
 10
447.55711404258795
 20
173.08159399821767
 10
448.07841550102063
 20
174.22257946891455
 10
448.57702961178734
 20
175.3749475228539
 10
449.05273620093334
 20
176.53818930674365
 10
449.5053252098206
 20
177.71179116575863
 10
449.9345967878838
 20
178.89523487035612
 10
450.3403613808783
 20
180.0879978451115
 10
450.7224398145827
 20
181.2895533994727
 10
451.08066337391665
 20
182.49937096033213
 10
451.41487387744075
 20
183.71691630631267
 10
451.724923747205
 20
184.94165180366483
 10
452.01067607391525
 20
186.17303664367068
 10
452.2720046773882
 20
187.4105270814498
 10
452.50879416226934
 20
188.65357667606162
 10
452.720939968988
 20
189.9016365317984
 10
452.908348419928
 20
191.15415554056224
 10
453.0709367607933
 20
192.41058062521867
 10
453.20863319714954
 20
193.67035698382008
 10
453.3213769261268
 20
194.93292833459077
 10
453.40911816326815
 20
196.197737161565
 10
453.47181816451337
 20
197.46422496077062
 10
453.5094492433069
 20
198.7318324868486
 10
453.5219947828238
 20
199.99999999999997
  0
LWPOLYLINE
  5
95
330
17
100
AcDbEntity
  8
Layer
100
AcDbPolyline
 90
5
 70
1
 10
175.68254526965802
 20
205.00000000000003
 10
180.68254526965802
 20
200.00000000000003
 10
175.68254526965802
 20
195.00000000000003
 10
170.68254526965802
 20
200.00000000000003
 10
175.68254526965802
 20
205.00000000000003
  0
LWPOLYLINE
  5
96
330
17
100
AcDbEntity
  8
Layer
100
AcDbPolyline
 90
5
 70
1
 10
392.24242327153564
 20
205.0
 10
397.24242327153564
 20
200.0
 10
392.24242327153564
 20
195.0
 10
387.24242327153564
 20
200.0
 10
392.24242327153564
 20
205.0
  0
LWPOLYLINE
  5
97
330
17
100
AcDbEntity
  8
Layer
100
AcDbPolyline
 90
5
 70
1
 10
216.089811008083
 20
168.25506542020565
 10
220.75638548920875
 20
162.942525292159
 10
215.4438453611621
 20
158.27595081103323
 10
210.77727088003633
 20
163.5884909390799
 10
216.089811008083
 20
168.25506542020565
  0
LWPOLYLINE
  5
98
330
17
100
AcDbEntity
  8
Layer
100
AcDbPolyline
 90
5
 70
1
 10
466.15720129997004
 20
152.0677632526126
 10
470.8237757810958
 20
146.75522312456593
 10
465.51123565304914
 20
142.08864864344017
 10
460.8446611719234
 20
147.40118877148683
 10
466.15720129997004
 20
152.0677632526126
  0
LWPOLYLINE
  5
99
330
17
100
AcDbEntity
  8
Layer
100
AcDbPolyline
 90
5
 70
1
 10
241.69980582524283
 20
180.6542616707046
 10
246.69980582524283
 20
185.6542616707046
 10
251.69980582524283
 20
180.6542616707046
 10
246.69980582524283
 20
175.6542616707046
 10
241.69980582524283
 20
180.6542616707046
  0
LWPOLYLINE
  5
9A
330
17
100
AcDbEntity
  8
Layer
100
AcDbPolyline
 90
5
 70
1
 10
241.69980582524283
 20
217.76243245843543
 10
246.69980582524283
 20
222.76243245843543
 10
251.69980582524283
 20
217.76243245843543
 10
246.69980582524283
 20
212.76243245843543
 10
241.69980582524283
 20
217.76243245843543
  0
LINE
  5
9B
330
17
100
AcDbEntity
  8
Layer
 62
7
100
AcDbLine
 10
24.809293268406293
 20
200.00000000000006
 30
0.0
 11
518.8155339805826
 21
199.99999999999997
 31
0.0
  0
LINE
  5
9C
330
17
100
AcDbEntity
  8
Layer
 62
7
100
AcDbLine
 10
169.68254526965802
 20
200.00000000000003
 30
0.0
 11
181.68254526965802
 21
200.00000000000003
 31
0.0
  0
LINE
  5
9D
330
17
100
AcDbEntity
  8
Layer
 62
7
100
AcDbLine
 10
386.24242327153564
 20
200.0
 30
0.0
 11
398.24242327153564
 21
200.0
 31
0.0
  0
LINE
  5
9E
330
17
100
AcDbEntity
  8
Layer
 62
7
100
AcDbLine
 10
9.226491455150835
 20
176.63522752019244
 30
0.0
 11
518.8155339805826
 21
143.64863217473285
 31
0.0
  0
LINE
  5
9F
330
17
100
AcDbEntity
  8
Layer
 62
7
100
AcDbLine
 10
209.7793594191191
 20
163.65308750377196
 30
0.0
 11
221.754296950126
 21
162.8779287274669
 31
0.0
  0
LINE
  5
A0
330
17
100
AcDbEntity
  8
Layer
 62
7
100
AcDbLine
 10
459.84674971100617
 20
147.4657853361789
 30
0.0
 11
471.821687242013
 21
146.69062655987383
 31
0.0
  0
LINE
  5
A1
330
17
100
AcDbEntity
  8
Layer
100
AcDbLine
 10
396.69980582524283
 20
260.35314516129034
 30
0.0
 11
396.69980582524283
 21
261.35314516129034
 31
0.0
  0
LINE
  5
A2
330
17
100
AcDbEntity
  8
Layer
100
AcDbLine
 10
396.69980582524283
 20
139.64685483870966
 30
0.0
 11
396.69980582524283
 21
138.64685483870966
 31
0.0
  0
LINE
  5
A3
330
17
100
AcDbEntity
  8
Layer
100
AcDbLine
 10
453.5219947828238
 20
200.0
 30
0.0
 11
454.5219947828238
 21
200.0
 31
0.0
  0
LINE
  5
A4
330
17
100
AcDbEntity
  8
Layer
100
AcDbLine
 10
339.87761686766186
 20
200.0
 30
0.0
 11
338.87761686766186
 21
200.0
 31
0.0
  0
LINE
  5
A5
330
17
100
AcDbEntity
  8
Layer
 62
7
100
AcDbLine
 10
246.69980582524283
 20
130.86139575168534
 30
0.0
 11
246.69980582524283
 21
267.55529837745473
 31
0.0
  0
LINE
  5
A6
330
17
100
AcDbEntity
  8
Layer
 62
7
100
AcDbLine
 10
246.69980582524283
 20
174.6542616707046
 30
0.0
 11
246.69980582524283
 21
186.6542616707046
 31
0.0
  0
LINE
  5
A7
330
17
100
AcDbEntity
  8
Layer
 62
7
100
AcDbLine
 10
246.69980582524283
 20
211.76243245843543
 30
0.0
 11
246.69980582524283
 21
223.76243245843543
 31
0.0
  0
ENDSEC
  0
SECTION
  2
OBJECTS
  0
DICTIONARY
  5
A
330
0
100
AcDbDictionary
280
0
281
1
  3
ACAD_COLOR
350
B
  3
ACAD_GROUP
350
C
  3
ACAD_LAYOUT
350
D
  3
ACAD_MATERIAL
350
E
  3
ACAD_MLEADERSTYLE
350
F
  3
ACAD_MLINESTYLE
350
10
  3
ACAD_PLOTSETTINGS
350
11
  3
ACAD_PLOTSTYLENAME
350
12
  3
ACAD_SCALELIST
350
14
  3
ACAD_TABLESTYLE
350
15
  3
ACAD_VISUALSTYLE
350
16
  3
EZDXF_META
350
2D
  0
DICTIONARY
  5
B
330
A
100
AcDbDictionary
280
0
281
1
  0
DICTIONARY
  5
C
330
A
100
AcDbDictionary
280
0
281
1
  0
DICTIONARY
  5
D
330
A
100
AcDbDictionary
280
0
281
1
  3
Model
350
1A
  3
Layout1
350
1E
  0
DICTIONARY
  5
E
330
A
100
AcDbDictionary
280
0
281
1
  3
ByBlock
350
1F
  3
ByLayer
350
20
  3
Global
350
21
  0
DICTIONARY
  5
F
330
A
100
AcDbDictionary
280
0
281
1
  3
Standard
350
2C
  0
DICTIONARY
  5
10
330
A
100
AcDbDictionary
280
0
281
1
  3
Standard
350
22
  0
DICTIONARY
  5
11
330
A
100
AcDbDictionary
280
0
281
1
  0
ACDBDICTIONARYWDFLT
  5
12
330
A
100
AcDbDictionary
280
0
281
1
  3
Normal
350
13
100
AcDbDictionaryWithDefault
340
13
  0
ACDBPLACEHOLDER
  5
13
330
12
  0
DICTIONARY
  5
14
330
A
100
AcDbDictionary
280
0
281
1
  0
DICTIONARY
  5
15
330
A
100
AcDbDictionary
280
0
281
1
  0
DICTIONARY
  5
16
330
A
100
AcDbDictionary
280
0
281
1
  3
2dWireframe
350
5A
  3
Basic
350
5B
  3
Brighten
350
5C
  3
ColorChange
350
5D
  3
Conceptual
350
5E
  3
Dim
350
5F
  3
EdgeColorOff
350
60
  3
Facepattern
350
61
  3
Flat
350
62
  3
FlatWithEdges
350
63
  3
Gouraud
350
64
  3
GouraudWithEdges
350
65
  3
Hidden
350
66
  3
JitterOff
350
67
  3
Linepattern
350
68
  3
Modeling
350
69
  3
OverhangOff
350
6A
  3
Realistic
350
6B
  3
Shaded
350
6C
  3
Shaded with edges
350
6D
  3
Shades of Gray
350
6E
  3
Sketchy
350
6F
  3
Thicken
350
70
  3
Wireframe
350
71
  3
X-Ray
350
72
  0
LAYOUT
  5
1A
330
D
100
AcDbPlotSettings
  1

  2
Adobe PDF
  4
A3
  6

 40
7.5
 41
20.0
 42
7.5
 43
20.0
 44
420.0
 45
297.0
 46
0.0
 47
0.0
 48
0.0
 49
0.0
140
0.0
141
0.0
142
1.0
143
1.0
 70
1024
 72
1
 73
0
 74
5
  7

 75
16
 76
0
 77
2
 78
300
147
1.0
148
0.0
149
0.0
100
AcDbLayout
  1
Model
 70
1
 71
0
 10
0.0
 20
0.0
 11
420.0
 21
297.0
 12
0.0
 22
0.0
 32
0.0
 14
1e+20
 24
1e+20
 34
1e+20
 15
-1e+20
 25
-1e+20
 35
-1e+20
146
0.0
 13
0.0
 23
0.0
 33
0.0
 16
1.0
 26
0.0
 36
0.0
 17
0.0
 27
1.0
 37
0.0
 76
1
330
17
  0
LAYOUT
  5
1E
330
D
100
AcDbPlotSettings
  1

  2
Adobe PDF
  4
A3
  6

 40
7.5
 41
20.0
 42
7.5
 43
20.0
 44
420.0
 45
297.0
 46
0.0
 47
0.0
 48
0.0
 49
0.0
140
0.0
141
0.0
142
1.0
143
1.0
 70
0
 72
1
 73
0
 74
5
  7

 75
16
 76
0
 77
2
 78
300
147
1.0
148
0.0
149
0.0
100
AcDbLayout
  1
Layout1
 70
1
 71
1
 10
0.0
 20
0.0
 11
420.0
 21
297.0
 12
0.0
 22
0.0
 32
0.0
 14
1e+20
 24
1e+20
 34
1e+20
 15
-1e+20
 25
-1e+20
 35
-1e+20
146
0.0
 13
0.0
 23
0.0
 33
0.0
 16
1.0
 26
0.0
 36
0.0
 17
0.0
 27
1.0
 37
0.0
 76
1
330
1B
  0
MATERIAL
  5
1F
102
{ACAD_REACTORS
330
E
102
}
330
E
100
AcDbMaterial
  1
ByBlock
  2

 70
0
 40
1.0
 71
1
 41
1.0
 91
-1023410177
 42
1.0
 72
1
  3

 73
1
 74
1
 75
1
 44
0.5
 73
0
 45
1.0
 46
1.0
 77
1
  4

 78
1
 79
1
170
1
 48
1.0
171
1
  6

172
1
173
1
174
1
140
1.0
141
1.0
175
1
  7

176
1
177
1
178
1
143
1.0
179
1
  8

270
1
271
1
272
1
145
1.0
146
1.0
273
1
  9

274
1
275
1
276
1
 42
1.0
 72
1
  3

 73
1
 74
1
 75
1
 94
63
  0
MATERIAL
  5
20
102
{ACAD_REACTORS
330
E
102
}
330
E
100
AcDbMaterial
  1
ByLayer
  2

 70
0
 40
1.0
 71
1
 41
1.0
 91
-1023410177
 42
1.0
 72
1
  3

 73
1
 74
1
 75
1
 44
0.5
 73
0
 45
1.0
 46
1.0
 77
1
  4

 78
1
 79
1
170
1
 48
1.0
171
1
  6

172
1
173
1
174
1
140
1.0
141
1.0
175
1
  7

176
1
177
1
178
1
143
1.0
179
1
  8

270
1
271
1
272
1
145
1.0
146
1.0
273
1
  9

274
1
275
1
276
1
 42
1.0
 72
1
  3

 73
1
 74
1
 75
1
 94
63
  0
MATERIAL
  5
21
102
{ACAD_REACTORS
330
E
102
}
330
E
100
AcDbMaterial
  1
Global
  2

 70
0
 40
1.0
 71
1
 41
1.0
 91
-1023410177
 42
1.0
 72
1
  3

 73
1
 74
1
 75
1
 44
0.5
 73
0
 45
1.0
 46
1.0
 77
1
  4

 78
1
 79
1
170
1
 48
1.0
171
1
  6

172
1
173
1
174
1
140
1.0
141
1.0
175
1
  7

176
1
177
1
178
1
143
1.0
179
1
  8

270
1
271
1
272
1
145
1.0
146
1.0
273
1
  9

274
1
275
1
276
1
 42
1.0
 72
1
  3

 73
1
 74
1
 75
1
 94
63
  0
MLINESTYLE
  5
22
102
{ACAD_REACTORS
330
10
102
}
330
10
100
AcDbMlineStyle
  2
Standard
 70
0
  3

 62
256
 51
90.0
 52
90.0
 71
2
 49
0.5
 62
256
  6
BYLAYER
 49
-0.5
 62
256
  6
BYLAYER
  0
MLEADERSTYLE
  5
2C
102
{ACAD_REACTORS
330
F
102
}
330
F
100
AcDbMLeaderStyle
179
2
170
2
171
1
172
0
 90
2
 40
0.0
 41
0.0
173
1
 91
-1056964608
 92
-2
290
1
 42
2.0
291
1
 43
8.0
  3
Standard
 44
4.0
300

342
29
174
1
175
1
176
0
178
1
 93
-1056964608
 45
4.0
292
0
297
0
 46
4.0
 94
-1056964608
 47
1.0
 49
1.0
140
1.0
294
1
141
0.0
177
0
142
1.0
295
0
296
0
143
3.75
271
0
272
9
273
9
  0
DICTIONARY
  5
2D
330
A
100
AcDbDictionary
281
1
  3
CREATED_BY_EZDXF
350
2E
  3
WRITTEN_BY_EZDXF
350
AA
  0
DICTIONARYVAR
  5
2E
330
2D
100
DictionaryVariables
280
0
  1
1.3.0 @ 2026-01-06T17:07:09.710369+00:00
  0
VISUALSTYLE
  5
5A
102
{ACAD_REACTORS
330
16
102
}
330
16
100
AcDbVisualStyle
  2
2dWireframe
 70
4
 90
0
 40
0.6
 62
7
290
0
291
0
  0
VISUALSTYLE
  5
5B
102
{ACAD_REACTORS
330
16
102
}
330
16
100
AcDbVisualStyle
  2
Basic
 70
7
 90
1
 40
0.6
 62
7
290
0
291
1
  0
VISUALSTYLE
  5
5C
102
{ACAD_REACTORS
330
16
102
}
330
16
100
AcDbVisualStyle
  2
Brighten
 70
12
 90
2
 40
0.6
 62
7
290
0
291
1
  0
VISUALSTYLE
  5
5D
102
{ACAD_REACTORS
330
16
102
}
330
16
100
AcDbVisualStyle
  2
ColorChange
 70
16
 90
2
 40
0.6
 62
8
290
0
291
1
  0
VISUALSTYLE
  5
5E
102
{ACAD_REACTORS
330
16
102
}
330
16
100
AcDbVisualStyle
  2
Conceptual
 70
9
 90
3
 40
0.6
 62
7
290
0
291
0
  0
VISUALSTYLE
  5
5F
102
{ACAD_REACTORS
330
16
102
}
330
16
100
AcDbVisualStyle
  2
Dim
 70
11
 90
2
 40
0.6
 62
7
290
0
291
1
  0
VISUALSTYLE
  5
60
102
{ACAD_REACTORS
330
16
102
}
330
16
100
AcDbVisualStyle
  2
EdgeColorOff
 70
22
 90
2
 40
0.6
 62
7
290
0
291
1
  0
VISUALSTYLE
  5
61
102
{ACAD_REACTORS
330
16
102
}
330
16
100
AcDbVisualStyle
  2
Facepattern
 70
15
 90
2
 40
0.6
 62
7
290
0
291
1
  0
VISUALSTYLE
  5
62
102
{ACAD_REACTORS
330
16
102
}
330
16
100
AcDbVisualStyle
  2
Flat
 70
0
 90
2
 40
0.6
 62
7
290
0
291
1
  0
VISUALSTYLE
  5
63
102
{ACAD_REACTORS
330
16
102
}
330
16
100
AcDbVisualStyle
  2
FlatWithEdges
 70
1
 90
2
 40
0.6
 62
7
290
0
291
1
  0
VISUALSTYLE
  5
64
102
{ACAD_REACTORS
330
16
102
}
330
16
100
AcDbVisualStyle
  2
Gouraud
 70
2
 90
2
 40
0.6
 62
7
290
0
291
1
  0
VISUALSTYLE
  5
65
102
{ACAD_REACTORS
330
16
102
}
330
16
100
AcDbVisualStyle
  2
GouraudWithEdges
 70
3
 90
2
 40
0.6
 62
7
290
0
291
1
  0
VISUALSTYLE
  5
66
102
{ACAD_REACTORS
330
16
102
}
330
16
100
AcDbVisualStyle
  2
Hidden
 70
6
 90
1
 40
0.6
 62
7
290
0
291
0
  0
VISUALSTYLE
  5
67
102
{ACAD_REACTORS
330
16
102
}
330
16
100
AcDbVisualStyle
  2
JitterOff
 70
20
 90
2
 40
0.6
 62
7
290
0
291
1
  0
VISUALSTYLE
  5
68
102
{ACAD_REACTORS
330
16
102
}
330
16
100
AcDbVisualStyle
  2
Linepattern
 70
14
 90
2
 40
0.6
 62
7
290
0
291
1
  0
VISUALSTYLE
  5
69
102
{ACAD_REACTORS
330
16
102
}
330
16
100
AcDbVisualStyle
  2
Modeling
 70
10
 90
2
 40
0.6
 62
7
290
0
291
0
  0
VISUALSTYLE
  5
6A
102
{ACAD_REACTORS
330
16
102
}
330
16
100
AcDbVisualStyle
  2
OverhangOff
 70
21
 90
2
 40
0.6
 62
7
290
0
291
1
  0
VISUALSTYLE
  5
6B
102
{ACAD_REACTORS
330
16
102
}
330
16
100
AcDbVisualStyle
  2
Realistic
 70
8
 90
2
 40
0.6
 62
7
290
0
291
0
  0
VISUALSTYLE
  5
6C
102
{ACAD_REACTORS
330
16
102
}
330
16
100
AcDbVisualStyle
  2
Shaded
 70
27
 90
2
 40
0.6
 62
7
290
0
291
0
  0
VISUALSTYLE
  5
6D
102
{ACAD_REACTORS
330
16
102
}
330
16
100
AcDbVisualStyle
  2
Shaded with edges
 70
26
 90
2
 40
0.6
 62
7
290
0
291
0
  0
VISUALSTYLE
  5
6E
102
{ACAD_REACTORS
330
16
102
}
330
16
100
AcDbVisualStyle
  2
Shades of Gray
 70
23
 90
2
 40
0.6
 62
7
290
0
291
0
  0
VISUALSTYLE
  5
6F
102
{ACAD_REACTORS
330
16
102
}
330
16
100
AcDbVisualStyle
  2
Sketchy
 70
24
 90
1
 40
0.6
 62
7
290
0
291
0
  0
VISUALSTYLE
  5
70
102
{ACAD_REACTORS
330
16
102
}
330
16
100
AcDbVisualStyle
  2
Thicken
 70
13
 90
2
 40
0.6
 62
7
290
0
291
1
  0
VISUALSTYLE
  5
71
102
{ACAD_REACTORS
330
16
102
}
330
16
100
AcDbVisualStyle
  2
Wireframe
 70
5
 90
0
 40
0.6
 62
7
290
0
291
0
  0
VISUALSTYLE
  5
72
102
{ACAD_REACTORS
330
16
102
}
330
16
100
AcDbVisualStyle
  2
X-Ray
 70
25
 90
2
 40
0.5
 62
7
290
0
291
0
  0
DICTIONARYVAR
  5
AA
330
2D
100
DictionaryVariables
280
0
  1
1.3.0 @ 2026-01-06T17:07:09.735147+00:00
  0
ENDSEC
  0
EOF
