<?xml version="1.0" encoding="utf-8" standalone="no"?>
<!DOCTYPE svg PUBLIC "-//W3C//DTD SVG 1.1//EN"
  "http://www.w3.org/Graphics/SVG/1.1/DTD/svg11.dtd">
<svg xmlns:xlink="http://www.w3.org/1999/xlink" width="1152pt" height="320.922342pt" viewBox="0 0 1152 320.922342" xmlns="http://www.w3.org/2000/svg" version="1.1">
 <metadata>
  <rdf:RDF xmlns:dc="http://purl.org/dc/elements/1.1/" xmlns:cc="http://creativecommons.org/ns#" xmlns:rdf="http://www.w3.org/1999/02/22-rdf-syntax-ns#">
   <cc:Work>
    <dc:type rdf:resource="http://purl.org/dc/dcmitype/StillImage"/>
    <dc:date>2026-01-07T02:07:18.642040</dc:date>
    <dc:format>image/svg+xml</dc:format>
    <dc:creator>
     <cc:Agent>
      <dc:title>Matplotlib v3.10.1, https://matplotlib.org/</dc:title>
     </cc:Agent>
    </dc:creator>
   </cc:Work>
  </rdf:RDF>
 </metadata>
 <defs>
  <style type="text/css">*{stroke-linejoin: round; stroke-linecap: butt}</style>
 </defs>
 <g id="figure_1">
  <g id="patch_1">
   <path d="M 0 320.922342 
L 1152 320.922342 
L 1152 0 
L 0 0 
z
" style="fill: #ffffff"/>
  </g>
  <g id="axes_1">
   <g id="patch_2">
    <path d="M 0 320.922342 
L 1152 320.922342 
L 1152 0 
L 0 0 
z
" style="fill: #212830"/>
   </g>
   <g id="patch_3">
    <path d="M 1099.636364 40.949884 
L 1080.382038 38.277339 
L 1059.435459 35.546754 
L 1038.4514 32.984751 
L 1017.434048 30.586631 
L 996.392991 28.353034 
L 975.330646 26.286815 
L 954.244245 24.387572 
L 933.139414 22.651083 
L 912.030997 21.077471 
L 890.928339 19.671303 
L 869.831409 18.435306 
L 848.744072 17.366791 
L 827.680134 16.466203 
L 806.650244 15.737762 
L 785.654059 15.1863 
L 764.692928 14.810222 
L 743.779718 14.609027 
L 722.925599 14.587379 
L 702.13231 14.750477 
L 681.400395 15.098149 
L 660.743012 15.629448 
L 640.173875 16.348746 
L 619.695096 17.262363 
L 599.30996 18.3703 
L 579.0331 19.671412 
L 558.880789 21.170646 
L 538.856288 22.874689 
L 518.966397 24.782217 
L 499.231384 26.892336 
L 479.666852 29.211524 
L 460.278514 31.744346 
L 441.081021 34.487469 
L 422.09885 37.441369 
L 403.347586 40.610936 
L 384.840674 43.992661 
L 366.616805 47.57263 
L 348.72219 51.348687 
L 331.184597 55.323202 
L 314.035149 59.481862 
L 297.330017 63.804238 
L 281.119041 68.283254 
L 265.436747 72.905172 
L 250.331102 77.63648 
L 235.860895 82.447415 
L 222.06545 87.319708 
L 208.970717 92.221208 
L 196.607179 97.110975 
L 184.995153 101.962477 
L 174.130705 106.75693 
L 163.998708 111.467046 
L 154.582457 116.068226 
L 145.8558 120.551852 
L 137.779316 124.917816 
L 130.307514 129.161781 
L 123.398815 133.276436 
L 117.015247 137.262764 
L 111.117289 141.12978 
L 105.665363 144.886633 
L 100.621629 148.539192 
L 95.955394 152.089375 
L 91.641534 155.543876 
L 87.656562 158.91511 
L 83.971387 162.220178 
L 80.554155 165.465117 
L 74.406755 171.75529 
L 69.080787 177.701438 
L 66.729151 180.542297 
L 64.591744 183.315261 
L 62.666092 186.043869 
L 60.939295 188.751369 
L 59.394096 191.444208 
L 58.012079 194.118825 
L 56.781194 196.757815 
L 55.696433 199.34751 
L 54.759852 201.876076 
L 53.976659 204.342281 
L 53.350767 206.754163 
L 52.882246 209.120364 
L 52.566812 211.447994 
L 52.387565 213.959408 
L 52.363636 216.028863 
L 52.476478 218.330172 
L 52.748724 220.61898 
L 53.199973 222.885254 
L 53.85562 225.132643 
L 54.738381 227.368832 
L 55.857917 229.595007 
L 57.208135 231.803798 
L 58.773562 233.981066 
L 60.543454 236.113435 
L 62.516698 238.190608 
L 64.703348 240.208499 
L 67.113734 242.167404 
L 69.754493 244.071982 
L 72.62279 245.927937 
L 75.716008 247.741459 
L 79.031398 249.515463 
L 82.578739 251.251125 
L 86.372574 252.948869 
L 90.436914 254.610849 
L 94.795447 256.243593 
L 99.471733 257.857038 
L 104.491514 259.462115 
L 115.678564 262.681025 
L 121.926811 264.302461 
L 128.680865 265.935258 
L 135.999142 267.58439 
L 143.945676 269.254656 
L 152.58836 270.947936 
L 162.003758 272.661128 
L 172.274374 274.389021 
L 183.479412 276.129288 
L 195.685068 277.877951 
L 208.941503 279.621794 
L 223.281903 281.341858 
L 238.713027 283.023648 
L 255.198679 284.655019 
L 272.670675 286.214775 
L 291.050747 287.685064 
L 310.241108 289.060755 
L 330.127883 290.334471 
L 350.618788 291.497492 
L 371.635129 292.554137 
L 393.096822 293.509323 
L 437.210776 295.124276 
L 462.173977 295.916467 
L 462.088989 298.703448 
L 505.277318 299.96053 
L 551.231665 300.951705 
L 668.488106 302.882497 
L 715.570134 303.421185 
L 905.93239 305.083636 
L 1000.801276 305.744001 
L 1099.636364 306.334962 
L 1099.636364 40.949884 
L 1099.636364 40.949884 
" clip-path="url(#pb1eee7c83f)" style="fill: none; stroke: #ff0000; stroke-width: 0.72; stroke-linejoin: miter"/>
   </g>
   <g id="patch_4">
    <path d="M 639.258523 236.545277 
L 639.258523 250.486658 
L 653.199903 250.486658 
L 653.199903 236.545277 
L 653.199903 264.428038 
" clip-path="url(#pb1eee7c83f)" style="fill: none; stroke: #ff0000; stroke-width: 0.72; stroke-linejoin: miter"/>
   </g>
   <g id="patch_5">
    <path d="M 674.111974 250.486658 
L 668.535421 250.486658 
" clip-path="url(#pb1eee7c83f)" style="fill: none; stroke: #ff0000; stroke-width: 0.72; stroke-linejoin: miter"/>
   </g>
   <g id="patch_6">
    <path d="M 665.747145 250.486658 
L 660.170593 250.486658 
L 660.170593 236.545277 
L 665.747145 236.545277 
" clip-path="url(#pb1eee7c83f)" style="fill: none; stroke: #ff0000; stroke-width: 0.72; stroke-linejoin: miter"/>
   </g>
   <g id="patch_7">
    <path d="M 668.535421 236.545277 
L 674.111974 236.545277 
L 674.111974 264.428038 
L 668.535421 264.428038 
" clip-path="url(#pb1eee7c83f)" style="fill: none; stroke: #ff0000; stroke-width: 0.72; stroke-linejoin: miter"/>
   </g>
   <g id="patch_8">
    <path d="M 665.747145 264.428038 
L 660.170593 264.428038 
" clip-path="url(#pb1eee7c83f)" style="fill: none; stroke: #ff0000; stroke-width: 0.72; stroke-linejoin: miter"/>
   </g>
   <g id="patch_9">
    <path d="M 633.569728 27.807642 
L 622.427711 28.304827 
L 621.930527 17.16281 
L 633.072544 16.665625 
L 633.569728 27.807642 
" clip-path="url(#pb1eee7c83f)" style="fill: none; stroke: #ff0000; stroke-width: 0.72; stroke-linejoin: miter"/>
   </g>
   <g id="patch_10">
    <path d="M 276.963897 81.135563 
L 266.265861 84.288936 
L 263.112488 73.590901 
L 273.810523 70.437527 
L 276.963897 81.135563 
" clip-path="url(#pb1eee7c83f)" style="fill: none; stroke: #ff0000; stroke-width: 0.72; stroke-linejoin: miter"/>
   </g>
   <g id="patch_11">
    <path d="M 97.481502 168.830152 
L 93.331269 172.554868 
L 84.019481 162.179286 
L 88.169714 158.454571 
L 97.481502 168.830152 
" clip-path="url(#pb1eee7c83f)" style="fill: none; stroke: #ff0000; stroke-width: 0.72; stroke-linejoin: miter"/>
   </g>
   <g id="patch_12">
    <path d="M 75.338493 230.910089 
L 79.866679 234.16485 
L 71.729777 245.485314 
L 67.201591 242.230553 
L 75.338493 230.910089 
" clip-path="url(#pb1eee7c83f)" style="fill: none; stroke: #ff0000; stroke-width: 0.72; stroke-linejoin: miter"/>
   </g>
   <g id="patch_13">
    <path d="M 352.661094 280.432977 
L 363.80013 280.992981 
L 363.240126 292.132017 
L 352.10109 291.572014 
L 352.661094 280.432977 
" clip-path="url(#pb1eee7c83f)" style="fill: none; stroke: #ff0000; stroke-width: 0.72; stroke-linejoin: miter"/>
   </g>
   <g id="patch_14">
    <path d="M 954.42101 159.796711 
L 954.327496 155.071536 
L 954.047118 150.354706 
L 953.580371 145.654552 
L 952.92808 140.979374 
L 952.091397 136.337429 
L 951.071799 131.736915 
L 949.871087 127.185958 
L 948.491382 122.692594 
L 946.935121 118.26476 
L 945.205051 113.910275 
L 943.304228 109.636829 
L 941.23601 105.451971 
L 939.004049 101.36309 
L 936.612287 97.377409 
L 934.064948 93.501965 
L 931.366531 89.743605 
L 928.521801 86.108964 
L 925.535783 82.604464 
L 922.413749 79.236291 
L 919.161215 76.010396 
L 915.783924 72.932475 
L 912.28784 70.007965 
L 908.679139 67.242029 
L 904.964193 64.639554 
L 901.149564 62.205135 
L 897.241988 59.943072 
L 893.248367 57.85736 
L 889.175753 55.951682 
L 885.031339 54.229404 
L 880.822446 52.693567 
L 876.556505 51.346885 
L 872.241051 50.191735 
L 867.883706 49.230157 
L 863.492164 48.46385 
L 859.074183 47.894168 
L 854.637564 47.522115 
L 850.190143 47.34835 
L 845.739774 47.373179 
L 841.294317 47.596559 
L 836.861624 48.018094 
L 832.449523 48.63704 
L 828.065806 49.452305 
L 823.718214 50.462449 
L 819.414427 51.665686 
L 815.162046 53.059893 
L 810.968579 54.642608 
L 806.841434 56.411034 
L 802.7879 58.362048 
L 798.815134 60.492206 
L 794.930154 62.797745 
L 791.139821 65.274592 
L 787.450828 67.918375 
L 783.869691 70.724423 
L 780.402735 73.687781 
L 777.056082 76.803215 
L 773.835643 80.065224 
L 770.747106 83.468046 
L 767.795925 87.005671 
L 764.987312 90.671852 
L 762.326228 94.460114 
L 759.817372 98.363766 
L 757.465175 102.375914 
L 755.273792 106.489473 
L 753.247092 110.697178 
L 751.388654 114.991597 
L 749.701762 119.365145 
L 748.189394 123.8101 
L 746.854221 128.31861 
L 745.698602 132.882714 
L 744.724576 137.49435 
L 743.933865 142.145374 
L 743.327865 146.827572 
L 742.907646 151.532675 
L 742.67395 156.252373 
L 742.62719 160.97833 
L 742.767449 165.702201 
L 743.094479 170.415642 
L 743.607702 175.110329 
L 744.306212 179.777971 
L 745.188775 184.410323 
L 746.253832 188.999206 
L 747.499503 193.536515 
L 748.923588 198.014236 
L 750.523572 202.424462 
L 752.296628 206.759403 
L 754.239626 211.011403 
L 756.349133 215.172953 
L 758.621425 219.236704 
L 761.052488 223.195479 
L 763.638029 227.042285 
L 766.373482 230.77033 
L 769.254015 234.373028 
L 772.274541 237.844018 
L 775.429725 241.177169 
L 778.713996 244.366595 
L 782.121553 247.406662 
L 785.646378 250.292002 
L 789.282245 253.017519 
L 793.022734 255.5784 
L 796.861238 257.970121 
L 800.790979 260.188459 
L 804.805015 262.229496 
L 808.896258 264.089627 
L 813.057483 265.765567 
L 817.281339 267.254356 
L 821.560368 268.553366 
L 825.887013 269.6603 
L 830.253631 270.573206 
L 834.652512 271.29047 
L 839.075885 271.810826 
L 843.515941 272.133355 
L 847.964835 272.257486 
L 852.414713 272.183002 
L 856.857714 271.910033 
L 861.285992 271.439061 
L 865.691726 270.770919 
L 870.067135 269.906786 
L 874.404492 268.848188 
L 878.696137 267.596996 
L 882.93449 266.155418 
L 887.112066 264.526001 
L 891.221487 262.711622 
L 895.255496 260.715487 
L 899.206967 258.541119 
L 903.068922 256.192359 
L 906.834541 253.673356 
L 910.497173 250.988558 
L 914.05035 248.142707 
L 917.487796 245.140828 
L 920.803441 241.988224 
L 923.991429 238.690462 
L 927.046129 235.253367 
L 929.962147 231.683008 
L 932.734333 227.985691 
L 935.35779 224.167946 
L 937.827886 220.236516 
L 940.140258 216.198343 
L 942.290822 212.06056 
L 944.275781 207.830474 
L 946.091628 203.515556 
L 947.735156 199.123427 
L 949.203464 194.661843 
L 950.493957 190.138683 
L 951.604357 185.561938 
L 952.532703 180.939688 
L 953.277354 176.280098 
L 953.836996 171.591396 
L 954.210641 166.881865 
L 954.397629 162.15982 
L 954.42101 159.796711 
L 954.42101 159.796711 
" clip-path="url(#pb1eee7c83f)" style="fill: none; stroke: #ff0000; stroke-width: 0.72; stroke-linejoin: miter"/>
   </g>
   <g id="patch_15">
    <path d="M 399.397171 145.85533 
L 413.338552 159.796711 
L 399.397171 173.738091 
L 385.455791 159.796711 
L 399.397171 145.85533 
" clip-path="url(#pb1eee7c83f)" style="fill: none; stroke: #ff0000; stroke-width: 0.72; stroke-linejoin: miter"/>
   </g>
   <g id="patch_16">
    <path d="M 841.29688 145.85533 
L 855.238261 159.796711 
L 841.29688 173.738091 
L 827.3555 159.796711 
L 841.29688 145.85533 
" clip-path="url(#pb1eee7c83f)" style="fill: none; stroke: #ff0000; stroke-width: 0.72; stroke-linejoin: miter"/>
   </g>
   <g id="patch_17">
    <path d="M 480.651338 225.509697 
L 493.669159 240.317145 
L 478.861711 253.334966 
L 465.84389 238.527519 
L 480.651338 225.509697 
" clip-path="url(#pb1eee7c83f)" style="fill: none; stroke: #ff0000; stroke-width: 0.72; stroke-linejoin: miter"/>
   </g>
   <g id="patch_18">
    <path d="M 992.074759 258.402704 
L 1005.09258 273.210151 
L 990.285132 286.227973 
L 977.267311 271.420525 
L 992.074759 258.402704 
" clip-path="url(#pb1eee7c83f)" style="fill: none; stroke: #ff0000; stroke-width: 0.72; stroke-linejoin: miter"/>
   </g>
   <g id="patch_19">
    <path d="M 416.338384 198.897857 
L 430.279765 184.956477 
L 444.221145 198.897857 
L 430.279765 212.839238 
L 416.338384 198.897857 
" clip-path="url(#pb1eee7c83f)" style="fill: none; stroke: #ff0000; stroke-width: 0.72; stroke-linejoin: miter"/>
   </g>
   <g id="patch_20">
    <path d="M 416.338384 132.156736 
L 430.279765 118.215356 
L 444.221145 132.156736 
L 430.279765 146.098117 
L 416.338384 132.156736 
" clip-path="url(#pb1eee7c83f)" style="fill: none; stroke: #ff0000; stroke-width: 0.72; stroke-linejoin: miter"/>
   </g>
   <g id="line2d_1">
    <path d="M 86.673571 159.796711 
L 1099.636364 159.796711 
" clip-path="url(#pb1eee7c83f)" style="fill: none; stroke: #ffffff; stroke-width: 0.72; stroke-linecap: square"/>
   </g>
   <g id="line2d_2">
    <path d="M 382.667515 159.796711 
L 416.126828 159.796711 
" clip-path="url(#pb1eee7c83f)" style="fill: none; stroke: #ffffff; stroke-width: 0.72; stroke-linecap: square"/>
   </g>
   <g id="line2d_3">
    <path d="M 824.567224 159.796711 
L 858.026537 159.796711 
" clip-path="url(#pb1eee7c83f)" style="fill: none; stroke: #ffffff; stroke-width: 0.72; stroke-linecap: square"/>
   </g>
   <g id="line2d_4">
    <path d="M 52.531363 211.94467 
L 1099.636364 279.290884 
" clip-path="url(#pb1eee7c83f)" style="fill: none; stroke: #ffffff; stroke-width: 0.72; stroke-linecap: square"/>
   </g>
   <g id="line2d_5">
    <path d="M 463.061363 238.348556 
L 496.451686 240.496108 
" clip-path="url(#pb1eee7c83f)" style="fill: none; stroke: #ffffff; stroke-width: 0.72; stroke-linecap: square"/>
   </g>
   <g id="line2d_6">
    <path d="M 974.484784 271.241562 
L 1007.875107 273.389114 
" clip-path="url(#pb1eee7c83f)" style="fill: none; stroke: #ffffff; stroke-width: 0.72; stroke-linecap: square"/>
   </g>
   <g id="line2d_7">
    <path d="M 848.521178 47.334383 
L 848.521178 44.546107 
" clip-path="url(#pb1eee7c83f)" style="fill: none; stroke: #ff0000; stroke-width: 0.72; stroke-linecap: square"/>
   </g>
   <g id="line2d_8">
    <path d="M 848.521178 272.259038 
L 848.521178 275.047314 
" clip-path="url(#pb1eee7c83f)" style="fill: none; stroke: #ff0000; stroke-width: 0.72; stroke-linecap: square"/>
   </g>
   <g id="line2d_9">
    <path d="M 954.42101 159.796711 
L 957.209286 159.796711 
" clip-path="url(#pb1eee7c83f)" style="fill: none; stroke: #ff0000; stroke-width: 0.72; stroke-linecap: square"/>
   </g>
   <g id="line2d_10">
    <path d="M 742.621345 159.796711 
L 739.833069 159.796711 
" clip-path="url(#pb1eee7c83f)" style="fill: none; stroke: #ff0000; stroke-width: 0.72; stroke-linecap: square"/>
   </g>
   <g id="line2d_11">
    <path d="M 430.279765 294.886294 
L 430.279765 36.1683 
" clip-path="url(#pb1eee7c83f)" style="fill: none; stroke: #ffffff; stroke-width: 0.72; stroke-linecap: square"/>
   </g>
   <g id="line2d_12">
    <path d="M 430.279765 215.627514 
L 430.279765 182.168201 
" clip-path="url(#pb1eee7c83f)" style="fill: none; stroke: #ffffff; stroke-width: 0.72; stroke-linecap: square"/>
   </g>
   <g id="line2d_13">
    <path d="M 430.279765 148.886393 
L 430.279765 115.42708 
" clip-path="url(#pb1eee7c83f)" style="fill: none; stroke: #ffffff; stroke-width: 0.72; stroke-linecap: square"/>
   </g>
  </g>
 </g>
 <defs>
  <clipPath id="pb1eee7c83f">
   <rect x="0" y="0" width="1152" height="320.922342"/>
  </clipPath>
 </defs>
</svg>
