<?xml version="1.0" encoding="utf-8" standalone="no"?>
<!DOCTYPE svg PUBLIC "-//W3C//DTD SVG 1.1//EN"
  "http://www.w3.org/Graphics/SVG/1.1/DTD/svg11.dtd">
<svg xmlns:xlink="http://www.w3.org/1999/xlink" width="803.193831pt" height="345.6pt" viewBox="0 0 803.193831 345.6" xmlns="http://www.w3.org/2000/svg" version="1.1">
 <metadata>
  <rdf:RDF xmlns:dc="http://purl.org/dc/elements/1.1/" xmlns:cc="http://creativecommons.org/ns#" xmlns:rdf="http://www.w3.org/1999/02/22-rdf-syntax-ns#">
   <cc:Work>
    <dc:type rdf:resource="http://purl.org/dc/dcmitype/StillImage"/>
    <dc:date>2026-01-07T02:07:15.322013</dc:date>
    <dc:format>image/svg+xml</dc:format>
    <dc:creator>
     <cc:Agent>
      <dc:title>Matplotlib v3.10.1, https://matplotlib.org/</dc:title>
     </cc:Agent>
    </dc:creator>
   </cc:Work>
  </rdf:RDF>
 </metadata>
 <defs>
  <style type="text/css">*{stroke-linejoin: round; stroke-linecap: butt}</style>
 </defs>
 <g id="figure_1">
  <g id="patch_1">
   <path d="M 0 345.6 
L 803.193831 345.6 
L 803.193831 0 
L 0 0 
z
" style="fill: #ffffff"/>
  </g>
  <g id="axes_1">
   <g id="patch_2">
    <path d="M 0 345.6 
L 803.193831 345.6 
L 803.193831 0 
L 0 0 
z
" style="fill: #212830"/>
   </g>
   <g id="patch_3">
    <path d="M 36.508812 329.890909 
L 766.68502 194.007635 
L 766.68502 194.007635 
L 765.066332 193.461869 
L 735.427183 183.611187 
L 705.942251 173.973064 
L 676.589655 164.552596 
L 647.358206 155.353311 
L 618.236011 146.383187 
L 589.19973 137.646869 
L 560.226233 129.142461 
L 531.303555 120.869002 
L 502.422777 112.830005 
L 473.567024 105.027445 
L 444.718644 97.459436 
L 415.870986 90.122466 
L 387.022325 83.018832 
L 358.163382 76.151864 
L 329.28174 69.519208 
L 300.374398 63.117549 
L 271.445276 56.948667 
L 242.490355 51.015719 
L 213.502739 45.317904 
L 184.479543 39.852428 
L 155.427464 34.61923 
L 126.348262 29.62218 
L 97.236362 24.862005 
L 68.091338 20.335516 
L 38.920313 16.043811 
L 36.508811 15.709091 
L 36.508812 329.890909 
" clip-path="url(#p04fa756d9f)" style="fill: none; stroke: #ff0000; stroke-width: 0.72; stroke-linejoin: miter"/>
   </g>
   <g id="patch_4">
    <path d="M 635.704218 293.622523 
L 653.001607 293.622523 
L 653.001607 310.919913 
L 635.704218 310.919913 
L 653.001607 310.919913 
L 653.001607 328.217302 
L 635.704218 328.217302 
" clip-path="url(#p04fa756d9f)" style="fill: none; stroke: #ff0000; stroke-width: 0.72; stroke-linejoin: miter"/>
   </g>
   <g id="patch_5">
    <path d="M 668.569258 293.622523 
L 661.650302 293.622523 
L 661.650302 328.217302 
L 668.569258 328.217302 
" clip-path="url(#p04fa756d9f)" style="fill: none; stroke: #ff0000; stroke-width: 0.72; stroke-linejoin: miter"/>
   </g>
   <g id="patch_6">
    <path d="M 672.028736 328.217302 
L 678.947692 328.217302 
L 678.947692 293.622523 
L 672.028736 293.622523 
" clip-path="url(#p04fa756d9f)" style="fill: none; stroke: #ff0000; stroke-width: 0.72; stroke-linejoin: miter"/>
   </g>
   <g id="patch_7">
    <path d="M 661.650302 310.919913 
L 668.569258 310.919913 
" clip-path="url(#p04fa756d9f)" style="fill: none; stroke: #ff0000; stroke-width: 0.72; stroke-linejoin: miter"/>
   </g>
   <g id="patch_8">
    <path d="M 672.028736 310.919913 
L 678.947692 310.919913 
" clip-path="url(#p04fa756d9f)" style="fill: none; stroke: #ff0000; stroke-width: 0.72; stroke-linejoin: miter"/>
   </g>
   <g id="patch_9">
    <path d="M 483.051621 121.927022 
L 469.693422 118.315052 
L 473.305392 104.956853 
L 486.663591 108.568823 
L 483.051621 121.927022 
" clip-path="url(#p04fa756d9f)" style="fill: none; stroke: #ff0000; stroke-width: 0.72; stroke-linejoin: miter"/>
   </g>
   <g id="patch_10">
    <path d="M 295.814932 164.911076 
L 313.112321 182.208466 
L 295.814932 199.505855 
L 278.517542 182.208466 
L 295.814932 164.911076 
" clip-path="url(#p04fa756d9f)" style="fill: none; stroke: #ff0000; stroke-width: 0.72; stroke-linejoin: miter"/>
   </g>
   <g id="patch_11">
    <path d="M 706.633579 190.908643 
L 723.930968 173.611254 
L 741.228357 190.908643 
L 723.930968 208.206033 
L 706.633579 190.908643 
" clip-path="url(#p04fa756d9f)" style="fill: none; stroke: #ff0000; stroke-width: 0.72; stroke-linejoin: miter"/>
   </g>
   <g id="line2d_1">
    <path d="M 36.50881 182.208466 
L 731.135981 182.208466 
" clip-path="url(#p04fa756d9f)" style="fill: none; stroke: #ffffff; stroke-width: 0.72; stroke-linecap: square"/>
   </g>
   <g id="line2d_2">
    <path d="M 275.058065 182.208466 
L 316.571799 182.208466 
" clip-path="url(#p04fa756d9f)" style="fill: none; stroke: #ffffff; stroke-width: 0.72; stroke-linecap: square"/>
   </g>
   <g id="line2d_3">
    <path d="M 723.930968 201.964017 
L 723.930968 179.85327 
" clip-path="url(#p04fa756d9f)" style="fill: none; stroke: #ffffff; stroke-width: 0.72; stroke-linecap: square"/>
   </g>
   <g id="line2d_4">
    <path d="M 723.930968 211.66551 
L 723.930968 170.151776 
" clip-path="url(#p04fa756d9f)" style="fill: none; stroke: #ffffff; stroke-width: 0.72; stroke-linecap: square"/>
   </g>
  </g>
 </g>
 <defs>
  <clipPath id="p04fa756d9f">
   <rect x="0" y="0" width="803.193831" height="345.6"/>
  </clipPath>
 </defs>
</svg>
