<?xml version="1.0" encoding="utf-8" standalone="no"?>
<!DOCTYPE svg PUBLIC "-//W3C//DTD SVG 1.1//EN"
  "http://www.w3.org/Graphics/SVG/1.1/DTD/svg11.dtd">
<svg xmlns:xlink="http://www.w3.org/1999/xlink" width="1152pt" height="321.070725pt" viewBox="0 0 1152 321.070725" xmlns="http://www.w3.org/2000/svg" version="1.1">
 <metadata>
  <rdf:RDF xmlns:dc="http://purl.org/dc/elements/1.1/" xmlns:cc="http://creativecommons.org/ns#" xmlns:rdf="http://www.w3.org/1999/02/22-rdf-syntax-ns#">
   <cc:Work>
    <dc:type rdf:resource="http://purl.org/dc/dcmitype/StillImage"/>
    <dc:date>2026-01-07T02:07:17.132822</dc:date>
    <dc:format>image/svg+xml</dc:format>
    <dc:creator>
     <cc:Agent>
      <dc:title>Matplotlib v3.10.1, https://matplotlib.org/</dc:title>
     </cc:Agent>
    </dc:creator>
   </cc:Work>
  </rdf:RDF>
 </metadata>
 <defs>
  <style type="text/css">*{stroke-linejoin: round; stroke-linecap: butt}</style>
 </defs>
 <g id="figure_1">
  <g id="patch_1">
   <path d="M 0 321.070725 
L 1152 321.070725 
L 1152 0 
L 0 0 
z
" style="fill: #ffffff"/>
  </g>
  <g id="axes_1">
   <g id="patch_2">
    <path d="M 0 321.070725 
L 1152 321.070725 
L 1152 0 
L 0 0 
z
" style="fill: #212830"/>
   </g>
   <g id="patch_3">
    <path d="M 1099.636363 265.867375 
L 1099.636364 40.948833 
L 1080.415153 38.280891 
L 1059.471243 35.550662 
L 1038.489917 32.989 
L 1017.47531 30.5912 
L 996.436975 28.357899 
L 975.377357 26.291954 
L 954.293738 24.392969 
L 933.191703 22.656716 
L 912.086039 21.083316 
L 890.986099 19.677338 
L 869.891914 18.441508 
L 848.807318 17.373139 
L 827.746068 16.472673 
L 806.718801 15.744331 
L 785.725241 15.192946 
L 764.766728 14.816922 
L 743.856065 14.61576 
L 723.004415 14.594124 
L 702.213571 14.757211 
L 681.484084 15.104852 
L 660.829047 15.6361 
L 640.262152 16.35533 
L 619.785577 17.26886 
L 599.40261 18.376689 
L 579.12781 19.677681 
L 558.977431 21.176783 
L 538.954818 22.880679 
L 519.066747 24.788046 
L 499.333398 26.898002 
L 479.770399 29.217024 
L 460.383535 31.74967 
L 441.187385 34.492618 
L 422.20638 37.446356 
L 403.456191 40.615762 
L 384.950319 43.997317 
L 366.727273 47.577148 
L 348.833219 51.353111 
L 331.296093 55.327547 
L 314.146986 59.486151 
L 297.441877 63.808552 
L 281.230693 68.28766 
L 265.54812 72.909694 
L 250.441981 77.641192 
L 235.970936 82.452447 
L 222.174508 87.325128 
L 209.078711 92.227067 
L 196.71384 97.117406 
L 185.100209 101.969627 
L 174.234086 106.764866 
L 164.100334 111.475845 
L 154.682064 116.078063 
L 145.953113 120.562924 
L 137.874239 124.930235 
L 130.400039 129.175618 
L 123.488782 133.291855 
L 117.102395 137.28001 
L 111.201409 141.149082 
L 105.74636 144.908164 
L 100.699444 148.563105 
L 96.029808 152.115966 
L 91.712196 155.573578 
L 87.723186 158.948353 
L 84.034114 162.257041 
L 80.613411 165.505384 
L 74.460531 171.80132 
L 69.128314 177.75469 
L 66.772265 180.601106 
L 64.629676 183.381142 
L 62.698589 186.117902 
L 60.966752 188.833786 
L 59.417187 191.534693 
L 58.031468 194.216899 
L 56.79723 196.863523 
L 55.709228 199.461512 
L 54.76938 201.99969 
L 53.983023 204.47704 
L 53.354369 206.901258 
L 52.88375 209.280414 
L 52.567016 211.620992 
L 52.387701 214.133431 
L 52.363636 216.228841 
L 52.477858 218.545428 
L 52.75295 220.851318 
L 53.208925 223.136199 
L 53.871218 225.40247 
L 54.762033 227.656288 
L 55.890295 229.897929 
L 57.249456 232.120033 
L 58.824065 234.309057 
L 60.603554 236.452127 
L 62.586849 238.539119 
L 64.783617 240.565703 
L 67.203657 242.531947 
L 69.853134 244.442445 
L 72.729175 246.303141 
L 75.829329 248.120524 
L 79.151234 249.897841 
L 82.704762 251.636379 
L 86.504486 253.336625 
L 90.574147 255.000672 
L 94.937258 256.635047 
L 99.617376 258.249752 
L 104.640333 259.855798 
L 115.832701 263.076166 
L 122.083242 264.698165 
L 128.839247 266.331406 
L 136.159128 267.980875 
L 144.106973 269.651395 
L 152.75078 271.344874 
L 162.167104 273.058214 
L 172.438311 274.786188 
L 183.643565 276.526474 
L 195.849167 278.275113 
L 209.105307 280.018903 
L 223.445049 281.738875 
L 238.875087 283.420535 
L 255.359356 285.051759 
L 272.829674 286.611356 
L 291.207662 288.08147 
L 310.395619 289.456982 
L 330.279767 290.730524 
L 350.767736 291.893374 
L 371.780871 292.949854 
L 393.239223 293.904888 
L 437.345321 295.519552 
L 462.30349 296.311583 
L 462.182873 300.266935 
L 505.371519 301.524007 
L 551.325167 302.515156 
L 668.562713 304.445627 
L 715.639426 304.984251 
L 881.08384 306.476602 
L 1099.636363 265.867375 
L 1099.636363 265.867375 
" clip-path="url(#p82f4650a84)" style="fill: none; stroke: #ff0000; stroke-width: 0.72; stroke-linejoin: miter"/>
   </g>
   <g id="patch_4">
    <path d="M 639.356995 238.22439 
L 639.356995 251.415027 
L 652.547633 251.415027 
L 652.547633 238.22439 
L 652.547633 264.605664 
" clip-path="url(#p82f4650a84)" style="fill: none; stroke: #ff0000; stroke-width: 0.72; stroke-linejoin: miter"/>
   </g>
   <g id="patch_5">
    <path d="M 659.142951 238.22439 
L 659.142951 251.415027 
L 672.333588 251.415027 
L 672.333588 238.22439 
L 672.333588 264.605664 
" clip-path="url(#p82f4650a84)" style="fill: none; stroke: #ff0000; stroke-width: 0.72; stroke-linejoin: miter"/>
   </g>
   <g id="patch_6">
    <path d="M 633.333944 27.227495 
L 622.791924 27.697906 
L 622.321513 17.155887 
L 632.863532 16.685475 
L 633.333944 27.227495 
" clip-path="url(#p82f4650a84)" style="fill: none; stroke: #ff0000; stroke-width: 0.72; stroke-linejoin: miter"/>
   </g>
   <g id="patch_7">
    <path d="M 276.620403 80.647986 
L 266.498456 83.63155 
L 263.514892 73.509604 
L 273.636838 70.526039 
L 276.620403 80.647986 
" clip-path="url(#p82f4650a84)" style="fill: none; stroke: #ff0000; stroke-width: 0.72; stroke-linejoin: miter"/>
   </g>
   <g id="patch_8">
    <path d="M 96.935275 168.404659 
L 93.008533 171.928798 
L 84.198184 162.111942 
L 88.124927 158.587802 
L 96.935275 168.404659 
" clip-path="url(#p82f4650a84)" style="fill: none; stroke: #ff0000; stroke-width: 0.72; stroke-linejoin: miter"/>
   </g>
   <g id="patch_9">
    <path d="M 75.111662 231.971513 
L 79.396005 235.051005 
L 71.697275 245.761862 
L 67.412932 242.68237 
L 75.111662 231.971513 
" clip-path="url(#p82f4650a84)" style="fill: none; stroke: #ff0000; stroke-width: 0.72; stroke-linejoin: miter"/>
   </g>
   <g id="patch_10">
    <path d="M 353.078296 281.443698 
L 363.617495 281.973546 
L 363.087647 292.512745 
L 352.548448 291.982898 
L 353.078296 281.443698 
" clip-path="url(#p82f4650a84)" style="fill: none; stroke: #ff0000; stroke-width: 0.72; stroke-linejoin: miter"/>
   </g>
   <g id="patch_11">
    <path d="M 957.2811 159.996717 
L 957.185107 155.147743 
L 956.897299 150.307332 
L 956.418183 145.484034 
L 955.748607 140.686366 
L 954.889751 135.922802 
L 953.843133 131.201755 
L 952.610603 126.531563 
L 951.194335 121.920473 
L 949.596832 117.376629 
L 947.820915 112.908056 
L 945.86972 108.522647 
L 943.746694 104.228145 
L 941.455585 100.032135 
L 939.000441 95.942029 
L 936.385596 91.965049 
L 933.61567 88.108219 
L 930.695554 84.378352 
L 927.630405 80.782033 
L 924.425637 77.325614 
L 921.08691 74.015201 
L 917.620119 70.856638 
L 914.031389 67.855505 
L 910.327056 65.017103 
L 906.513663 62.346443 
L 902.597945 59.848242 
L 898.586817 57.526913 
L 894.487363 55.386555 
L 890.306824 53.430948 
L 886.052582 51.663546 
L 881.732151 50.087471 
L 877.353162 48.705505 
L 872.923347 47.52009 
L 868.450531 46.533319 
L 863.942612 45.746935 
L 859.407553 45.162327 
L 854.853362 44.780527 
L 850.288083 44.602209 
L 845.719778 44.627688 
L 841.156516 44.85692 
L 836.606355 45.2895 
L 832.077332 45.924663 
L 827.577445 46.761288 
L 823.114641 47.797897 
L 818.696802 49.032659 
L 814.331731 50.463395 
L 810.027137 52.087576 
L 805.790621 53.902335 
L 801.629667 55.904466 
L 797.551622 58.090434 
L 793.563688 60.456377 
L 789.67291 62.998119 
L 785.886158 65.711168 
L 782.21012 68.590735 
L 778.651288 71.631733 
L 775.215948 74.828792 
L 771.910167 78.176265 
L 768.739783 81.668241 
L 765.710394 85.298552 
L 762.827352 89.060787 
L 760.095749 92.948301 
L 757.520407 96.954229 
L 755.105876 101.071496 
L 752.85642 105.29283 
L 750.776012 109.610776 
L 748.868326 114.017709 
L 747.13673 118.505845 
L 745.584284 123.067257 
L 744.213729 127.69389 
L 743.027485 132.377574 
L 742.027648 137.110035 
L 741.215983 141.882916 
L 740.593923 146.687787 
L 740.162568 151.516164 
L 739.922679 156.359518 
L 739.874681 161.209295 
L 740.018656 166.056931 
L 740.354352 170.893865 
L 740.881176 175.711552 
L 741.598196 180.501486 
L 742.504147 185.255207 
L 743.597429 189.964319 
L 744.876111 194.620505 
L 746.337935 199.215542 
L 747.980318 203.741316 
L 749.800361 208.189832 
L 751.794849 212.553235 
L 753.960259 216.823818 
L 756.292767 220.994039 
L 758.788254 225.056534 
L 761.442313 229.004126 
L 764.250256 232.829846 
L 767.207124 236.526935 
L 770.307694 240.088865 
L 773.546492 243.509344 
L 776.917797 246.782333 
L 780.415656 249.90205 
L 784.033889 252.862986 
L 787.766108 255.659912 
L 791.605721 258.287887 
L 795.545947 260.742272 
L 799.579827 263.01873 
L 803.700236 265.113242 
L 807.899899 267.022109 
L 812.171397 268.741958 
L 816.507187 270.269754 
L 820.899611 271.602797 
L 825.340913 272.738734 
L 829.823248 273.675558 
L 834.3387 274.411614 
L 838.879295 274.945603 
L 843.437013 275.276582 
L 848.003805 275.403966 
L 852.571605 275.32753 
L 857.132347 275.047409 
L 861.677976 274.564098 
L 866.200463 273.878451 
L 870.691822 272.991677 
L 875.144121 271.905345 
L 879.549495 270.621371 
L 883.900166 269.142024 
L 888.188449 267.469916 
L 892.406771 265.608 
L 896.547682 263.559566 
L 900.603868 261.328229 
L 904.568166 258.917932 
L 908.433575 256.332931 
L 912.193268 253.577792 
L 915.840605 250.657379 
L 919.369145 247.576851 
L 922.772655 244.341649 
L 926.045126 240.957486 
L 929.180776 237.430338 
L 932.17407 233.766436 
L 935.019719 229.972249 
L 937.712699 226.05448 
L 940.248253 222.020046 
L 942.621904 217.876073 
L 944.829459 213.62988 
L 946.867019 209.288966 
L 948.730987 204.860997 
L 950.418069 200.353794 
L 951.925287 195.775316 
L 953.249979 191.13365 
L 954.389805 186.436993 
L 955.342752 181.693641 
L 956.107137 176.911969 
L 956.68161 172.100424 
L 957.065156 167.267502 
L 957.257099 162.42174 
L 957.2811 159.996717 
L 957.2811 159.996717 
" clip-path="url(#p82f4650a84)" style="fill: none; stroke: #ff0000; stroke-width: 0.72; stroke-linejoin: miter"/>
   </g>
   <g id="patch_12">
    <path d="M 398.839341 146.80608 
L 412.029978 159.996717 
L 398.839341 173.187354 
L 385.648704 159.996717 
L 398.839341 146.80608 
" clip-path="url(#p82f4650a84)" style="fill: none; stroke: #ff0000; stroke-width: 0.72; stroke-linejoin: miter"/>
   </g>
   <g id="patch_13">
    <path d="M 841.545165 146.80608 
L 854.735802 159.996717 
L 841.545165 173.187354 
L 828.354528 159.996717 
L 841.545165 146.80608 
" clip-path="url(#p82f4650a84)" style="fill: none; stroke: #ff0000; stroke-width: 0.72; stroke-linejoin: miter"/>
   </g>
   <g id="patch_14">
    <path d="M 262.193691 212.38599 
L 274.510502 226.396057 
L 260.500436 238.712868 
L 248.183624 224.702802 
L 262.193691 212.38599 
" clip-path="url(#p82f4650a84)" style="fill: none; stroke: #ff0000; stroke-width: 0.72; stroke-linejoin: miter"/>
   </g>
   <g id="patch_15">
    <path d="M 501.822601 227.798102 
L 514.139413 241.808169 
L 500.129346 254.124981 
L 487.812535 240.114914 
L 501.822601 227.798102 
" clip-path="url(#p82f4650a84)" style="fill: none; stroke: #ff0000; stroke-width: 0.72; stroke-linejoin: miter"/>
   </g>
   <g id="patch_16">
    <path d="M 439.665139 198.75348 
L 452.855776 185.562843 
L 466.046413 198.75348 
L 452.855776 211.944117 
L 439.665139 198.75348 
" clip-path="url(#p82f4650a84)" style="fill: none; stroke: #ff0000; stroke-width: 0.72; stroke-linejoin: miter"/>
   </g>
   <g id="patch_17">
    <path d="M 439.665139 130.085632 
L 452.855776 116.894995 
L 466.046413 130.085632 
L 452.855776 143.276269 
L 439.665139 130.085632 
" clip-path="url(#p82f4650a84)" style="fill: none; stroke: #ff0000; stroke-width: 0.72; stroke-linejoin: miter"/>
   </g>
   <g id="line2d_1">
    <path d="M 86.554297 159.996717 
L 1099.636364 159.996717 
" clip-path="url(#p82f4650a84)" style="fill: none; stroke: #ffffff; stroke-width: 0.72; stroke-linecap: square"/>
   </g>
   <g id="line2d_2">
    <path d="M 383.010577 159.996717 
L 414.668106 159.996717 
" clip-path="url(#p82f4650a84)" style="fill: none; stroke: #ffffff; stroke-width: 0.72; stroke-linecap: square"/>
   </g>
   <g id="line2d_3">
    <path d="M 825.716401 159.996717 
L 857.37393 159.996717 
" clip-path="url(#p82f4650a84)" style="fill: none; stroke: #ffffff; stroke-width: 0.72; stroke-linecap: square"/>
   </g>
   <g id="line2d_4">
    <path d="M 52.531464 212.119124 
L 1045.272047 275.968804 
" clip-path="url(#p82f4650a84)" style="fill: none; stroke: #ffffff; stroke-width: 0.72; stroke-linecap: square"/>
   </g>
   <g id="line2d_5">
    <path d="M 245.550936 224.533476 
L 277.14319 226.565382 
" clip-path="url(#p82f4650a84)" style="fill: none; stroke: #ffffff; stroke-width: 0.72; stroke-linecap: square"/>
   </g>
   <g id="line2d_6">
    <path d="M 485.179847 239.945589 
L 516.772101 241.977494 
" clip-path="url(#p82f4650a84)" style="fill: none; stroke: #ffffff; stroke-width: 0.72; stroke-linecap: square"/>
   </g>
   <g id="line2d_7">
    <path d="M 848.57489 44.587876 
L 848.57489 41.949748 
" clip-path="url(#p82f4650a84)" style="fill: none; stroke: #ff0000; stroke-width: 0.72; stroke-linecap: square"/>
   </g>
   <g id="line2d_8">
    <path d="M 848.57489 275.405558 
L 848.57489 278.043686 
" clip-path="url(#p82f4650a84)" style="fill: none; stroke: #ff0000; stroke-width: 0.72; stroke-linecap: square"/>
   </g>
   <g id="line2d_9">
    <path d="M 957.2811 159.996717 
L 959.919227 159.996717 
" clip-path="url(#p82f4650a84)" style="fill: none; stroke: #ff0000; stroke-width: 0.72; stroke-linecap: square"/>
   </g>
   <g id="line2d_10">
    <path d="M 739.86868 159.996717 
L 737.230553 159.996717 
" clip-path="url(#p82f4650a84)" style="fill: none; stroke: #ff0000; stroke-width: 0.72; stroke-linecap: square"/>
   </g>
   <g id="line2d_11">
    <path d="M 452.855776 296.013796 
L 452.855776 32.825315 
" clip-path="url(#p82f4650a84)" style="fill: none; stroke: #ffffff; stroke-width: 0.72; stroke-linecap: square"/>
   </g>
   <g id="line2d_12">
    <path d="M 452.855776 214.582244 
L 452.855776 182.924715 
" clip-path="url(#p82f4650a84)" style="fill: none; stroke: #ffffff; stroke-width: 0.72; stroke-linecap: square"/>
   </g>
   <g id="line2d_13">
    <path d="M 452.855776 145.914397 
L 452.855776 114.256868 
" clip-path="url(#p82f4650a84)" style="fill: none; stroke: #ffffff; stroke-width: 0.72; stroke-linecap: square"/>
   </g>
  </g>
 </g>
 <defs>
  <clipPath id="p82f4650a84">
   <rect x="0" y="0" width="1152" height="321.070725"/>
  </clipPath>
 </defs>
</svg>
