  0
SECTION
  2
HEADER
  9
$ACADVER
  1
AC1021
  9
$ACADMAINTVER
 70
25
  9
$DWGCODEPAGE
  3
ANSI_1252
  9
$LASTSAVEDBY
  1
ezdxf
  9
$INSBASE
 10
0.0
 20
0.0
 30
0.0
  9
$EXTMIN
 10
1e+20
 20
1e+20
 30
1e+20
  9
$EXTMAX
 10
-1e+20
 20
-1e+20
 30
-1e+20
  9
$LIMMIN
 10
0.0
 20
0.0
  9
$LIMMAX
 10
420.0
 20
297.0
  9
$ORTHOMODE
 70
0
  9
$REGENMODE
 70
1
  9
$FILLMODE
 70
1
  9
$QTEXTMODE
 70
0
  9
$MIRRTEXT
 70
1
  9
$LTSCALE
 40
1.0
  9
$ATTMODE
 70
1
  9
$TEXTSIZE
 40
2.5
  9
$TRACEWID
 40
1.0
  9
$TEXTSTYLE
  7
OpenSans
  9
$CLAYER
  8
0
  9
$CELTYPE
  6
ByLayer
  9
$CECOLOR
 62
256
  9
$CELTSCALE
 40
1.0
  9
$DISPSILH
 70
0
  9
$DIMSCALE
 40
1.0
  9
$DIMASZ
 40
0.175
  9
$DIMEXO
 40
0.125
  9
$DIMDLI
 40
3.75
  9
$DIMRND
 40
0.0
  9
$DIMDLE
 40
0.0
  9
$DIMEXE
 40
0.375
  9
$DIMTP
 40
0.0
  9
$DIMTM
 40
0.0
  9
$DIMTXT
 40
0.25
  9
$DIMCEN
 40
2.5
  9
$DIMTSZ
 40
0.0
  9
$DIMTOL
 70
0
  9
$DIMLIM
 70
0
  9
$DIMTIH
 70
0
  9
$DIMTOH
 70
0
  9
$DIMSE1
 70
0
  9
$DIMSE2
 70
0
  9
$DIMTAD
 70
1
  9
$DIMZIN
 70
12
  9
$DIMBLK
  1
ARCHTICK
  9
$DIMASO
 70
1
  9
$DIMSHO
 70
1
  9
$DIMPOST
  1

  9
$DIMAPOST
  1

  9
$DIMALT
 70
0
  9
$DIMALTD
 70
3
  9
$DIMALTF
 40
0.03937007874
  9
$DIMLFAC
 40
100.0
  9
$DIMTOFL
 70
1
  9
$DIMTVP
 40
0.0
  9
$DIMTIX
 70
0
  9
$DIMSOXD
 70
0
  9
$DIMSAH
 70
0
  9
$DIMBLK1
  1

  9
$DIMBLK2
  1

  9
$DIMSTYLE
  2
EZDXF
  9
$DIMCLRD
 70
0
  9
$DIMCLRE
 70
0
  9
$DIMCLRT
 70
0
  9
$DIMTFAC
 40
0.5
  9
$DIMGAP
 40
0.1
  9
$DIMJUST
 70
0
  9
$DIMSD1
 70
0
  9
$DIMSD2
 70
0
  9
$DIMTOLJ
 70
0
  9
$DIMTZIN
 70
8
  9
$DIMALTZ
 70
0
  9
$DIMALTTZ
 70
0
  9
$DIMUPT
 70
1
  9
$DIMDEC
 70
2
  9
$DIMTDEC
 70
2
  9
$DIMALTU
 70
2
  9
$DIMALTTD
 70
3
  9
$DIMTXSTY
  7
OpenSansCondensed-Light
  9
$DIMAUNIT
 70
0
  9
$DIMADEC
 70
2
  9
$DIMALTRND
 40
0.0
  9
$DIMAZIN
 70
3
  9
$DIMDSEP
 70
46
  9
$DIMATFIT
 70
3
  9
$DIMFRAC
 70
0
  9
$DIMLDRBLK
  1

  9
$DIMLUNIT
 70
2
  9
$DIMLWD
 70
-2
  9
$DIMLWE
 70
-2
  9
$DIMTMOVE
 70
2
  9
$DIMFXL
 40
1.0
  9
$DIMFXLON
 70
0
  9
$DIMJOGANG
 40
0.785398163397
  9
$DIMTFILL
 70
0
  9
$DIMTFILLCLR
 70
0
  9
$DIMARCSYM
 70
0
  9
$DIMLTYPE
  6

  9
$DIMLTEX1
  6

  9
$DIMLTEX2
  6

  9
$LUNITS
 70
2
  9
$LUPREC
 70
4
  9
$SKETCHINC
 40
1.0
  9
$FILLETRAD
 40
10.0
  9
$AUNITS
 70
0
  9
$AUPREC
 70
2
  9
$MENU
  1
.
  9
$ELEVATION
 40
0.0
  9
$PELEVATION
 40
0.0
  9
$THICKNESS
 40
0.0
  9
$LIMCHECK
 70
0
  9
$CHAMFERA
 40
0.0
  9
$CHAMFERB
 40
0.0
  9
$CHAMFERC
 40
0.0
  9
$CHAMFERD
 40
0.0
  9
$SKPOLY
 70
0
  9
$TDCREATE
 40
2461048.088425926
  9
$TDUCREATE
 40
2458532.153996898
  9
$TDUPDATE
 40
2461048.088425926
  9
$TDUUPDATE
 40
2458532.1544311
  9
$TDINDWG
 40
0.0
  9
$TDUSRTIMER
 40
0.0
  9
$USRTIMER
 70
1
  9
$ANGBASE
 50
0.0
  9
$ANGDIR
 70
0
  9
$PDMODE
 70
0
  9
$PDSIZE
 40
0.0
  9
$PLINEWID
 40
0.0
  9
$SPLFRAME
 70
0
  9
$SPLINETYPE
 70
6
  9
$SPLINESEGS
 70
8
  9
$HANDSEED
  5
AB
  9
$SURFTAB1
 70
6
  9
$SURFTAB2
 70
6
  9
$SURFTYPE
 70
6
  9
$SURFU
 70
6
  9
$SURFV
 70
6
  9
$UCSBASE
  2

  9
$UCSNAME
  2

  9
$UCSORG
 10
0.0
 20
0.0
 30
0.0
  9
$UCSXDIR
 10
1.0
 20
0.0
 30
0.0
  9
$UCSYDIR
 10
0.0
 20
1.0
 30
0.0
  9
$UCSORTHOREF
  2

  9
$UCSORTHOVIEW
 70
0
  9
$UCSORGTOP
 10
0.0
 20
0.0
 30
0.0
  9
$UCSORGBOTTOM
 10
0.0
 20
0.0
 30
0.0
  9
$UCSORGLEFT
 10
0.0
 20
0.0
 30
0.0
  9
$UCSORGRIGHT
 10
0.0
 20
0.0
 30
0.0
  9
$UCSORGFRONT
 10
0.0
 20
0.0
 30
0.0
  9
$UCSORGBACK
 10
0.0
 20
0.0
 30
0.0
  9
$PUCSBASE
  2

  9
$PUCSNAME
  2

  9
$PUCSORG
 10
0.0
 20
0.0
 30
0.0
  9
$PUCSXDIR
 10
1.0
 20
0.0
 30
0.0
  9
$PUCSYDIR
 10
0.0
 20
1.0
 30
0.0
  9
$PUCSORTHOREF
  2

  9
$PUCSORTHOVIEW
 70
0
  9
$PUCSORGTOP
 10
0.0
 20
0.0
 30
0.0
  9
$PUCSORGBOTTOM
 10
0.0
 20
0.0
 30
0.0
  9
$PUCSORGLEFT
 10
0.0
 20
0.0
 30
0.0
  9
$PUCSORGRIGHT
 10
0.0
 20
0.0
 30
0.0
  9
$PUCSORGFRONT
 10
0.0
 20
0.0
 30
0.0
  9
$PUCSORGBACK
 10
0.0
 20
0.0
 30
0.0
  9
$USERI1
 70
0
  9
$USERI2
 70
0
  9
$USERI3
 70
0
  9
$USERI4
 70
0
  9
$USERI5
 70
0
  9
$USERR1
 40
0.0
  9
$USERR2
 40
0.0
  9
$USERR3
 40
0.0
  9
$USERR4
 40
0.0
  9
$USERR5
 40
0.0
  9
$WORLDVIEW
 70
1
  9
$SHADEDGE
 70
3
  9
$SHADEDIF
 70
70
  9
$TILEMODE
 70
1
  9
$MAXACTVP
 70
64
  9
$PINSBASE
 10
0.0
 20
0.0
 30
0.0
  9
$PLIMCHECK
 70
0
  9
$PEXTMIN
 10
1e+20
 20
1e+20
 30
1e+20
  9
$PEXTMAX
 10
-1e+20
 20
-1e+20
 30
-1e+20
  9
$PLIMMIN
 10
0.0
 20
0.0
  9
$PLIMMAX
 10
420.0
 20
297.0
  9
$UNITMODE
 70
0
  9
$VISRETAIN
 70
1
  9
$PLINEGEN
 70
0
  9
$PSLTSCALE
 70
1
  9
$TREEDEPTH
 70
3020
  9
$CMLSTYLE
  2
Standard
  9
$CMLJUST
 70
0
  9
$CMLSCALE
 40
20.0
  9
$PROXYGRAPHICS
 70
1
  9
$MEASUREMENT
 70
1
  9
$CELWEIGHT
370
-1
  9
$ENDCAPS
280
0
  9
$JOINSTYLE
280
0
  9
$LWDISPLAY
290
0
  9
$INSUNITS
 70
6
  9
$HYPERLINKBASE
  1

  9
$STYLESHEET
  1

  9
$XEDIT
290
1
  9
$CEPSNTYPE
380
0
  9
$PSTYLEMODE
290
1
  9
$FINGERPRINTGUID
  2
{5C0FCCD4-E6D0-4114-AED7-A48F9DCC7B44}
  9
$VERSIONGUID
  2
{8D09D1CA-DFBE-486C-9B67-F11126E2E7AF}
  9
$EXTNAMES
290
1
  9
$PSVPSCALE
 40
0.0
  9
$OLESTARTUP
290
0
  9
$SORTENTS
280
127
  9
$INDEXCTL
280
0
  9
$HIDETEXT
280
1
  9
$XCLIPFRAME
290
1
  9
$HALOGAP
280
0
  9
$OBSCOLOR
 70
257
  9
$OBSLTYPE
280
0
  9
$INTERSECTIONDISPLAY
280
0
  9
$INTERSECTIONCOLOR
 70
257
  9
$DIMASSOC
280
2
  9
$PROJECTNAME
  1

  9
$CAMERADISPLAY
290
0
  9
$LENSLENGTH
 40
50.0
  9
$CAMERAHEIGHT
 40
0.0
  9
$STEPSPERSEC
 40
24.0
  9
$STEPSIZE
 40
100.0
  9
$3DDWFPREC
 40
2.0
  9
$PSOLWIDTH
 40
0.005
  9
$PSOLHEIGHT
 40
0.08
  9
$LOFTANG1
 40
1.570796326795
  9
$LOFTANG2
 40
1.570796326795
  9
$LOFTMAG1
 40
0.0
  9
$LOFTMAG2
 40
0.0
  9
$LOFTPARAM
 70
7
  9
$LOFTNORMALS
280
1
  9
$LATITUDE
 40
37.795
  9
$LONGITUDE
 40
-122.394
  9
$NORTHDIRECTION
 40
0.0
  9
$TIMEZONE
 70
-8000
  9
$LIGHTGLYPHDISPLAY
280
1
  9
$TILEMODELIGHTSYNCH
280
1
  9
$CMATERIAL
347
20
  9
$SOLIDHIST
280
0
  9
$SHOWHIST
280
1
  9
$DWFFRAME
280
2
  9
$DGNFRAME
280
2
  9
$REALWORLDSCALE
290
1
  9
$INTERFERECOLOR
 62
256
  9
$CSHADOW
280
0
  9
$SHADOWPLANELOCATION
 40
0.0
  0
ENDSEC
  0
SECTION
  2
CLASSES
  0
CLASS
  1
ACDBDICTIONARYWDFLT
  2
AcDbDictionaryWithDefault
  3
ObjectDBX Classes
 90
0
 91
0
280
0
281
0
  0
CLASS
  1
SUN
  2
AcDbSun
  3
SCENEOE
 90
1153
 91
0
280
0
281
0
  0
CLASS
  1
VISUALSTYLE
  2
AcDbVisualStyle
  3
ObjectDBX Classes
 90
4095
 91
0
280
0
281
0
  0
CLASS
  1
MATERIAL
  2
AcDbMaterial
  3
ObjectDBX Classes
 90
1153
 91
0
280
0
281
0
  0
CLASS
  1
SCALE
  2
AcDbScale
  3
ObjectDBX Classes
 90
1153
 91
0
280
0
281
0
  0
CLASS
  1
TABLESTYLE
  2
AcDbTableStyle
  3
ObjectDBX Classes
 90
4095
 91
0
280
0
281
0
  0
CLASS
  1
MLEADERSTYLE
  2
AcDbMLeaderStyle
  3
ACDB_MLEADERSTYLE_CLASS
 90
4095
 91
0
280
0
281
0
  0
CLASS
  1
DICTIONARYVAR
  2
AcDbDictionaryVar
  3
ObjectDBX Classes
 90
0
 91
0
280
0
281
0
  0
CLASS
  1
CELLSTYLEMAP
  2
AcDbCellStyleMap
  3
ObjectDBX Classes
 90
1152
 91
0
280
0
281
0
  0
CLASS
  1
MENTALRAYRENDERSETTINGS
  2
AcDbMentalRayRenderSettings
  3
SCENEOE
 90
1024
 91
0
280
0
281
0
  0
CLASS
  1
ACDBDETAILVIEWSTYLE
  2
AcDbDetailViewStyle
  3
ObjectDBX Classes
 90
1025
 91
0
280
0
281
0
  0
CLASS
  1
ACDBSECTIONVIEWSTYLE
  2
AcDbSectionViewStyle
  3
ObjectDBX Classes
 90
1025
 91
0
280
0
281
0
  0
CLASS
  1
RASTERVARIABLES
  2
AcDbRasterVariables
  3
ISM
 90
0
 91
0
280
0
281
0
  0
CLASS
  1
ACDBPLACEHOLDER
  2
AcDbPlaceHolder
  3
ObjectDBX Classes
 90
0
 91
0
280
0
281
0
  0
CLASS
  1
LAYOUT
  2
AcDbLayout
  3
ObjectDBX Classes
 90
0
 91
0
280
0
281
0
  0
ENDSEC
  0
SECTION
  2
TABLES
  0
TABLE
  2
VPORT
  5
8
330
0
100
AcDbSymbolTable
 70
1
  0
VPORT
  5
23
330
8
100
AcDbSymbolTableRecord
100
AcDbViewportTableRecord
  2
*Active
 70
0
 10
0.0
 20
0.0
 11
1.0
 21
1.0
 12
0.0
 22
0.0
 13
0.0
 23
0.0
 14
0.5
 24
0.5
 15
0.5
 25
0.5
 16
0.0
 26
0.0
 36
1.0
 17
0.0
 27
0.0
 37
0.0
 40
1000.0
 41
1.34
 42
50.0
 43
0.0
 44
0.0
 50
0.0
 51
0.0
 71
0
 72
1000
 73
1
 74
3
 75
0
 76
0
 77
0
 78
0
281
0
 65
0
146
0.0
  0
ENDTAB
  0
TABLE
  2
LTYPE
  5
2
330
0
100
AcDbSymbolTable
 70
21
  0
LTYPE
  5
24
330
2
100
AcDbSymbolTableRecord
100
AcDbLinetypeTableRecord
  2
ByBlock
 70
0
  3

 72
65
 73
0
 40
0.0
  0
LTYPE
  5
25
330
2
100
AcDbSymbolTableRecord
100
AcDbLinetypeTableRecord
  2
ByLayer
 70
0
  3

 72
65
 73
0
 40
0.0
  0
LTYPE
  5
26
330
2
100
AcDbSymbolTableRecord
100
AcDbLinetypeTableRecord
  2
Continuous
 70
0
  3

 72
65
 73
0
 40
0.0
  0
LTYPE
  5
2F
330
2
100
AcDbSymbolTableRecord
100
AcDbLinetypeTableRecord
  2
CENTER
 70
0
  3
Center ____ _ ____ _ ____ _ ____ _ ____ _ ____
 72
65
 73
4
 40
5.08
 49
3.175
 74
0
 49
-0.635
 74
0
 49
0.635
 74
0
 49
-0.635
 74
0
  0
LTYPE
  5
30
330
2
100
AcDbSymbolTableRecord
100
AcDbLinetypeTableRecord
  2
CENTERX2
 70
0
  3
Center (2x) ________  __  ________  __  ________
 72
65
 73
4
 40
8.89
 49
6.35
 74
0
 49
-0.635
 74
0
 49
1.27
 74
0
 49
-0.635
 74
0
  0
LTYPE
  5
31
330
2
100
AcDbSymbolTableRecord
100
AcDbLinetypeTableRecord
  2
CENTER2
 70
0
  3
Center (.5x) ____ _ ____ _ ____ _ ____ _ ____
 72
65
 73
4
 40
2.54
 49
1.587
 74
0
 49
-0.318
 74
0
 49
0.318
 74
0
 49
-0.318
 74
0
  0
LTYPE
  5
32
330
2
100
AcDbSymbolTableRecord
100
AcDbLinetypeTableRecord
  2
DASHED
 70
0
  3
Dashed __ __ __ __ __ __ __ __ __ __ __ __ __ _
 72
65
 73
2
 40
1.524
 49
1.27
 74
0
 49
-0.254
 74
0
  0
LTYPE
  5
33
330
2
100
AcDbSymbolTableRecord
100
AcDbLinetypeTableRecord
  2
DASHEDX2
 70
0
  3
Dashed (2x) ____  ____  ____  ____  ____  ____
 72
65
 73
2
 40
3.048
 49
2.54
 74
0
 49
-0.508
 74
0
  0
LTYPE
  5
34
330
2
100
AcDbSymbolTableRecord
100
AcDbLinetypeTableRecord
  2
DASHED2
 70
0
  3
Dashed (.5x) _ _ _ _ _ _ _ _ _ _ _ _ _ _
 72
65
 73
2
 40
0.762
 49
0.635
 74
0
 49
-0.127
 74
0
  0
LTYPE
  5
35
330
2
100
AcDbSymbolTableRecord
100
AcDbLinetypeTableRecord
  2
PHANTOM
 70
0
  3
Phantom ______  __  __  ______  __  __  ______
 72
65
 73
6
 40
6.35
 49
3.175
 74
0
 49
-0.635
 74
0
 49
0.635
 74
0
 49
-0.635
 74
0
 49
0.635
 74
0
 49
-0.635
 74
0
  0
LTYPE
  5
36
330
2
100
AcDbSymbolTableRecord
100
AcDbLinetypeTableRecord
  2
PHANTOMX2
 70
0
  3
Phantom (2x)____________    ____    ____    ____________
 72
65
 73
6
 40
10.795
 49
6.35
 74
0
 49
-0.635
 74
0
 49
1.27
 74
0
 49
-0.635
 74
0
 49
1.27
 74
0
 49
-0.635
 74
0
  0
LTYPE
  5
37
330
2
100
AcDbSymbolTableRecord
100
AcDbLinetypeTableRecord
  2
PHANTOM2
 70
0
  3
Phantom (.5x) ___ _ _ ___ _ _ ___ _ _ ___ _ _ ___
 72
65
 73
6
 40
3.175
 49
1.587
 74
0
 49
-0.318
 74
0
 49
0.318
 74
0
 49
-0.318
 74
0
 49
0.318
 74
0
 49
-0.318
 74
0
  0
LTYPE
  5
38
330
2
100
AcDbSymbolTableRecord
100
AcDbLinetypeTableRecord
  2
DASHDOT
 70
0
  3
Dash dot __ . __ . __ . __ . __ . __ . __ . __
 72
65
 73
4
 40
3.556
 49
2.54
 74
0
 49
-0.508
 74
0
 49
0.0
 74
0
 49
-0.508
 74
0
  0
LTYPE
  5
39
330
2
100
AcDbSymbolTableRecord
100
AcDbLinetypeTableRecord
  2
DASHDOTX2
 70
0
  3
Dash dot (2x) ____  .  ____  .  ____  .  ____
 72
65
 73
4
 40
6.096
 49
5.08
 74
0
 49
-0.508
 74
0
 49
0.0
 74
0
 49
-0.508
 74
0
  0
LTYPE
  5
3A
330
2
100
AcDbSymbolTableRecord
100
AcDbLinetypeTableRecord
  2
DASHDOT2
 70
0
  3
Dash dot (.5x) _ . _ . _ . _ . _ . _ . _ . _
 72
65
 73
4
 40
1.778
 49
1.27
 74
0
 49
-0.254
 74
0
 49
0.0
 74
0
 49
-0.254
 74
0
  0
LTYPE
  5
3B
330
2
100
AcDbSymbolTableRecord
100
AcDbLinetypeTableRecord
  2
DOT
 70
0
  3
Dot .  .  .  .  .  .  .  .  .  .  .  .  .  .  .  .
 72
65
 73
2
 40
0.508
 49
0.0
 74
0
 49
-0.508
 74
0
  0
LTYPE
  5
3C
330
2
100
AcDbSymbolTableRecord
100
AcDbLinetypeTableRecord
  2
DOTX2
 70
0
  3
Dot (2x) .    .    .    .    .    .    .    . 
 72
65
 73
2
 40
1.016
 49
0.0
 74
0
 49
-1.016
 74
0
  0
LTYPE
  5
3D
330
2
100
AcDbSymbolTableRecord
100
AcDbLinetypeTableRecord
  2
DOT2
 70
0
  3
Dot (.5) . . . . . . . . . . . . . . . . . . . 
 72
65
 73
2
 40
0.254
 49
0.0
 74
0
 49
-0.254
 74
0
  0
LTYPE
  5
3E
330
2
100
AcDbSymbolTableRecord
100
AcDbLinetypeTableRecord
  2
DIVIDE
 70
0
  3
Divide __ . . __ . . __ . . __ . . __ . . __
 72
65
 73
6
 40
4.064
 49
2.54
 74
0
 49
-0.508
 74
0
 49
0.0
 74
0
 49
-0.508
 74
0
 49
0.0
 74
0
 49
-0.508
 74
0
  0
LTYPE
  5
3F
330
2
100
AcDbSymbolTableRecord
100
AcDbLinetypeTableRecord
  2
DIVIDEX2
 70
0
  3
Divide (2x) ____  . .  ____  . .  ____  . .  ____
 72
65
 73
6
 40
6.604
 49
5.08
 74
0
 49
-0.508
 74
0
 49
0.0
 74
0
 49
-0.508
 74
0
 49
0.0
 74
0
 49
-0.508
 74
0
  0
LTYPE
  5
40
330
2
100
AcDbSymbolTableRecord
100
AcDbLinetypeTableRecord
  2
DIVIDE2
 70
0
  3
Divide(.5x) _ . _ . _ . _ . _ . _ . _ . _
 72
65
 73
6
 40
2.032
 49
1.27
 74
0
 49
-0.254
 74
0
 49
0.0
 74
0
 49
-0.254
 74
0
 49
0.0
 74
0
 49
-0.254
 74
0
  0
ENDTAB
  0
TABLE
  2
LAYER
  5
1
330
0
100
AcDbSymbolTable
 70
4
  0
LAYER
  5
27
330
1
100
AcDbSymbolTableRecord
100
AcDbLayerTableRecord
  2
0
 70
0
 62
7
  6
Continuous
370
-3
390
13
347
21
  0
LAYER
  5
28
330
1
100
AcDbSymbolTableRecord
100
AcDbLayerTableRecord
  2
Defpoints
 70
0
 62
7
  6
Continuous
290
0
370
-3
390
13
347
21
  0
LAYER
  5
8A
330
1
100
AcDbSymbolTableRecord
100
AcDbLayerTableRecord
  2
Layer
 70
0
 62
1
  6
Continuous
370
50
390
13
347
21
  0
LAYER
  5
8B
330
1
100
AcDbSymbolTableRecord
100
AcDbLayerTableRecord
  2
NumLabel
 70
0
 62
1
  6
Continuous
370
15
390
13
347
21
  0
ENDTAB
  0
TABLE
  2
STYLE
  5
5
330
0
100
AcDbSymbolTable
 70
26
  0
STYLE
  5
29
330
5
100
AcDbSymbolTableRecord
100
AcDbTextStyleTableRecord
  2
Standard
 70
0
 40
0.0
 41
1.0
 50
0.0
 71
0
 42
2.5
  3
txt
  4

  0
STYLE
  5
41
330
5
100
AcDbSymbolTableRecord
100
AcDbTextStyleTableRecord
  2
OpenSans-Light
 70
0
 40
0.0
 41
1.0
 50
0.0
 71
0
 42
2.5
  3
OpenSans-Light.ttf
  4

  0
STYLE
  5
42
330
5
100
AcDbSymbolTableRecord
100
AcDbTextStyleTableRecord
  2
OpenSans-Light-Italic
 70
0
 40
0.0
 41
1.0
 50
0.0
 71
0
 42
2.5
  3
OpenSans-LightItalic.ttf
  4

  0
STYLE
  5
43
330
5
100
AcDbSymbolTableRecord
100
AcDbTextStyleTableRecord
  2
OpenSans
 70
0
 40
0.0
 41
1.0
 50
0.0
 71
0
 42
2.5
  3
OpenSans-Regular.ttf
  4

  0
STYLE
  5
44
330
5
100
AcDbSymbolTableRecord
100
AcDbTextStyleTableRecord
  2
OpenSans-Italic
 70
0
 40
0.0
 41
1.0
 50
0.0
 71
0
 42
2.5
  3
OpenSans-Italic.ttf
  4

  0
STYLE
  5
45
330
5
100
AcDbSymbolTableRecord
100
AcDbTextStyleTableRecord
  2
OpenSans-SemiBold
 70
0
 40
0.0
 41
1.0
 50
0.0
 71
0
 42
2.5
  3
OpenSans-SemiBold.ttf
  4

  0
STYLE
  5
46
330
5
100
AcDbSymbolTableRecord
100
AcDbTextStyleTableRecord
  2
OpenSans-SemiBoldItalic
 70
0
 40
0.0
 41
1.0
 50
0.0
 71
0
 42
2.5
  3
OpenSans-SemiBoldItalic.ttf
  4

  0
STYLE
  5
47
330
5
100
AcDbSymbolTableRecord
100
AcDbTextStyleTableRecord
  2
OpenSans-Bold
 70
0
 40
0.0
 41
1.0
 50
0.0
 71
0
 42
2.5
  3
OpenSans-Bold.ttf
  4

  0
STYLE
  5
48
330
5
100
AcDbSymbolTableRecord
100
AcDbTextStyleTableRecord
  2
OpenSans-BoldItalic
 70
0
 40
0.0
 41
1.0
 50
0.0
 71
0
 42
2.5
  3
OpenSans-BoldItalic.ttf
  4

  0
STYLE
  5
49
330
5
100
AcDbSymbolTableRecord
100
AcDbTextStyleTableRecord
  2
OpenSans-ExtraBold
 70
0
 40
0.0
 41
1.0
 50
0.0
 71
0
 42
2.5
  3
OpenSans-ExtraBold.ttf
  4

  0
STYLE
  5
4A
330
5
100
AcDbSymbolTableRecord
100
AcDbTextStyleTableRecord
  2
OpenSans-ExtraBoldItalic
 70
0
 40
0.0
 41
1.0
 50
0.0
 71
0
 42
2.5
  3
OpenSans-ExtraBoldItalic.ttf
  4

  0
STYLE
  5
4B
330
5
100
AcDbSymbolTableRecord
100
AcDbTextStyleTableRecord
  2
OpenSansCondensed-Bold
 70
0
 40
0.0
 41
1.0
 50
0.0
 71
0
 42
2.5
  3
OpenSansCondensed-Bold.ttf
  4

  0
STYLE
  5
4C
330
5
100
AcDbSymbolTableRecord
100
AcDbTextStyleTableRecord
  2
OpenSansCondensed-Light
 70
0
 40
0.0
 41
1.0
 50
0.0
 71
0
 42
2.5
  3
OpenSansCondensed-Light.ttf
  4

  0
STYLE
  5
4D
330
5
100
AcDbSymbolTableRecord
100
AcDbTextStyleTableRecord
  2
OpenSansCondensed-Italic
 70
0
 40
0.0
 41
1.0
 50
0.0
 71
0
 42
2.5
  3
OpenSansCondensed-LightItalic.ttf
  4

  0
STYLE
  5
4E
330
5
100
AcDbSymbolTableRecord
100
AcDbTextStyleTableRecord
  2
LiberationSans
 70
0
 40
0.0
 41
1.0
 50
0.0
 71
0
 42
2.5
  3
LiberationSans-Regular.ttf
  4

  0
STYLE
  5
4F
330
5
100
AcDbSymbolTableRecord
100
AcDbTextStyleTableRecord
  2
LiberationSans-Bold
 70
0
 40
0.0
 41
1.0
 50
0.0
 71
0
 42
2.5
  3
LiberationSans-Bold.ttf
  4

  0
STYLE
  5
50
330
5
100
AcDbSymbolTableRecord
100
AcDbTextStyleTableRecord
  2
LiberationSans-BoldItalic
 70
0
 40
0.0
 41
1.0
 50
0.0
 71
0
 42
2.5
  3
LiberationSans-BoldItalic.ttf
  4

  0
STYLE
  5
51
330
5
100
AcDbSymbolTableRecord
100
AcDbTextStyleTableRecord
  2
LiberationSans-Italic
 70
0
 40
0.0
 41
1.0
 50
0.0
 71
0
 42
2.5
  3
LiberationSans-Italic.ttf
  4

  0
STYLE
  5
52
330
5
100
AcDbSymbolTableRecord
100
AcDbTextStyleTableRecord
  2
LiberationSerif
 70
0
 40
0.0
 41
1.0
 50
0.0
 71
0
 42
2.5
  3
LiberationSerif-Regular.ttf
  4

  0
STYLE
  5
53
330
5
100
AcDbSymbolTableRecord
100
AcDbTextStyleTableRecord
  2
LiberationSerif-Bold
 70
0
 40
0.0
 41
1.0
 50
0.0
 71
0
 42
2.5
  3
LiberationSerif-Bold.ttf
  4

  0
STYLE
  5
54
330
5
100
AcDbSymbolTableRecord
100
AcDbTextStyleTableRecord
  2
LiberationSerif-BoldItalic
 70
0
 40
0.0
 41
1.0
 50
0.0
 71
0
 42
2.5
  3
LiberationSerif-BoldItalic.ttf
  4

  0
STYLE
  5
55
330
5
100
AcDbSymbolTableRecord
100
AcDbTextStyleTableRecord
  2
LiberationSerif-Italic
 70
0
 40
0.0
 41
1.0
 50
0.0
 71
0
 42
2.5
  3
LiberationSerif-Italic.ttf
  4

  0
STYLE
  5
56
330
5
100
AcDbSymbolTableRecord
100
AcDbTextStyleTableRecord
  2
LiberationMono
 70
0
 40
0.0
 41
1.0
 50
0.0
 71
0
 42
2.5
  3
LiberationMono-Regular.ttf
  4

  0
STYLE
  5
57
330
5
100
AcDbSymbolTableRecord
100
AcDbTextStyleTableRecord
  2
LiberationMono-Bold
 70
0
 40
0.0
 41
1.0
 50
0.0
 71
0
 42
2.5
  3
LiberationMono-Bold.ttf
  4

  0
STYLE
  5
58
330
5
100
AcDbSymbolTableRecord
100
AcDbTextStyleTableRecord
  2
LiberationMono-BoldItalic
 70
0
 40
0.0
 41
1.0
 50
0.0
 71
0
 42
2.5
  3
LiberationMono-BoldItalic.ttf
  4

  0
STYLE
  5
59
330
5
100
AcDbSymbolTableRecord
100
AcDbTextStyleTableRecord
  2
LiberationMono-Italic
 70
0
 40
0.0
 41
1.0
 50
0.0
 71
0
 42
2.5
  3
LiberationMono-Italic.ttf
  4

  0
ENDTAB
  0
TABLE
  2
VIEW
  5
7
330
0
100
AcDbSymbolTable
 70
0
  0
ENDTAB
  0
TABLE
  2
UCS
  5
6
330
0
100
AcDbSymbolTable
 70
0
  0
ENDTAB
  0
TABLE
  2
APPID
  5
3
330
0
100
AcDbSymbolTable
 70
3
  0
APPID
  5
2A
330
3
100
AcDbSymbolTableRecord
100
AcDbRegAppTableRecord
  2
ACAD
 70
0
  0
APPID
  5
A8
330
3
100
AcDbSymbolTableRecord
100
AcDbRegAppTableRecord
  2
HATCHBACKGROUNDCOLOR
 70
0
  0
APPID
  5
A9
330
3
100
AcDbSymbolTableRecord
100
AcDbRegAppTableRecord
  2
EZDXF
 70
0
  0
ENDTAB
  0
TABLE
  2
DIMSTYLE
  5
4
330
0
100
AcDbSymbolTable
 70
12
100
AcDbDimStyleTable
  0
DIMSTYLE
105
2B
330
4
100
AcDbSymbolTableRecord
100
AcDbDimStyleTableRecord
  2
Standard
 70
0
 40
1.0
 41
2.5
 42
0.625
 43
3.75
 44
1.25
 45
0.0
 46
0.0
 47
0.0
 48
0.0
 49
2.5
140
2.5
141
2.5
142
0.0
143
0.03937007874
144
1.0
145
0.0
146
1.0
147
0.625
148
0.0
 69
0
 70
0
 71
0
 72
0
 73
0
 74
0
 75
0
 76
0
 77
1
 78
8
 79
3
170
0
171
3
172
1
173
0
174
0
175
0
176
0
177
0
178
0
179
2
271
2
272
2
273
2
274
3
275
0
276
0
277
2
278
44
279
0
280
0
281
0
282
0
283
0
284
8
285
0
286
0
288
0
289
3
290
0
371
-2
372
-2
  0
DIMSTYLE
105
73
330
4
100
AcDbSymbolTableRecord
100
AcDbDimStyleTableRecord
  2
EZDXF
 70
0
 40
1.0
 41
0.175
 42
0.125
 43
3.75
 44
0.375
 45
0.0
 46
0.0
 47
0.0
 48
0.0
 49
2.5
140
0.25
141
2.5
142
0.0
143
0.03937007874
144
100.0
145
0.0
146
0.5
147
0.1
148
0.0
 69
0
 70
0
 71
0
 72
0
 73
0
 74
0
 75
0
 76
0
 77
1
 78
12
 79
3
170
0
171
3
172
1
173
0
174
0
175
0
176
0
177
0
178
0
179
2
271
2
272
2
273
2
274
3
275
0
276
0
277
2
278
46
279
2
280
0
281
0
282
0
283
0
284
8
285
0
286
0
288
1
289
3
290
0
340
4C
342
74
371
-2
372
-2
  0
DIMSTYLE
105
7C
330
4
100
AcDbSymbolTableRecord
100
AcDbDimStyleTableRecord
  2
EZ_M_100_H25_CM
 70
0
 40
1.0
 41
0.25
 42
0.125
 43
3.75
 44
0.375
 45
0.0
 46
0.0
 47
0.0
 48
0.0
 49
2.5
140
0.25
141
2.5
142
0.125
143
0.03937007874
144
100.0
145
0.0
146
0.5
147
0.1
148
0.0
 69
0
 70
0
 71
0
 72
0
 73
0
 74
0
 75
0
 76
0
 77
1
 78
12
 79
3
170
0
171
3
172
1
173
0
174
0
175
0
176
0
177
0
178
0
179
2
271
2
272
2
273
2
274
3
275
0
276
0
277
2
278
46
279
2
280
0
281
0
282
0
283
0
284
8
285
0
286
0
288
1
289
3
290
0
340
4C
371
-2
372
-2
  0
DIMSTYLE
105
7D
330
4
100
AcDbSymbolTableRecord
100
AcDbDimStyleTableRecord
  2
EZ_M_50_H25_CM
 70
0
 40
1.0
 41
0.125
 42
0.0625
 43
3.75
 44
0.1875
 45
0.0
 46
0.0
 47
0.0
 48
0.0
 49
2.5
140
0.125
141
2.5
142
0.0625
143
0.03937007874
144
100.0
145
0.0
146
0.5
147
0.05
148
0.0
 69
0
 70
0
 71
0
 72
0
 73
0
 74
0
 75
0
 76
0
 77
1
 78
12
 79
3
170
0
171
3
172
1
173
0
174
0
175
0
176
0
177
0
178
0
179
2
271
2
272
2
273
2
274
3
275
0
276
0
277
2
278
46
279
2
280
0
281
0
282
0
283
0
284
8
285
0
286
0
288
1
289
3
290
0
340
4C
371
-2
372
-2
  0
DIMSTYLE
105
7E
330
4
100
AcDbSymbolTableRecord
100
AcDbDimStyleTableRecord
  2
EZ_M_25_H25_CM
 70
0
 40
1.0
 41
0.0625
 42
0.03125
 43
3.75
 44
0.09375
 45
0.0
 46
0.0
 47
0.0
 48
0.0
 49
2.5
140
0.0625
141
2.5
142
0.03125
143
0.03937007874
144
100.0
145
0.0
146
0.5
147
0.025
148
0.0
 69
0
 70
0
 71
0
 72
0
 73
0
 74
0
 75
0
 76
0
 77
1
 78
12
 79
3
170
0
171
3
172
1
173
0
174
0
175
0
176
0
177
0
178
0
179
2
271
2
272
2
273
2
274
3
275
0
276
0
277
2
278
46
279
2
280
0
281
0
282
0
283
0
284
8
285
0
286
0
288
1
289
3
290
0
340
4C
371
-2
372
-2
  0
DIMSTYLE
105
7F
330
4
100
AcDbSymbolTableRecord
100
AcDbDimStyleTableRecord
  2
EZ_M_20_H25_CM
 70
0
 40
1.0
 41
0.05
 42
0.025
 43
3.75
 44
0.07500000000000001
 45
0.0
 46
0.0
 47
0.0
 48
0.0
 49
2.5
140
0.05
141
2.5
142
0.025
143
0.03937007874
144
100.0
145
0.0
146
0.5
147
0.020000000000000004
148
0.0
 69
0
 70
0
 71
0
 72
0
 73
0
 74
0
 75
0
 76
0
 77
1
 78
12
 79
3
170
0
171
3
172
1
173
0
174
0
175
0
176
0
177
0
178
0
179
2
271
2
272
2
273
2
274
3
275
0
276
0
277
2
278
46
279
2
280
0
281
0
282
0
283
0
284
8
285
0
286
0
288
1
289
3
290
0
340
4C
371
-2
372
-2
  0
DIMSTYLE
105
80
330
4
100
AcDbSymbolTableRecord
100
AcDbDimStyleTableRecord
  2
EZ_M_10_H25_CM
 70
0
 40
1.0
 41
0.025
 42
0.0125
 43
3.75
 44
0.037500000000000006
 45
0.0
 46
0.0
 47
0.0
 48
0.0
 49
2.5
140
0.025
141
2.5
142
0.0125
143
0.03937007874
144
100.0
145
0.0
146
0.5
147
0.010000000000000002
148
0.0
 69
0
 70
0
 71
0
 72
0
 73
0
 74
0
 75
0
 76
0
 77
1
 78
12
 79
3
170
0
171
3
172
1
173
0
174
0
175
0
176
0
177
0
178
0
179
2
271
2
272
2
273
2
274
3
275
0
276
0
277
2
278
46
279
2
280
0
281
0
282
0
283
0
284
8
285
0
286
0
288
1
289
3
290
0
340
4C
371
-2
372
-2
  0
DIMSTYLE
105
81
330
4
100
AcDbSymbolTableRecord
100
AcDbDimStyleTableRecord
  2
EZ_M_5_H25_CM
 70
0
 40
1.0
 41
0.0125
 42
0.00625
 43
3.75
 44
0.018750000000000003
 45
0.0
 46
0.0
 47
0.0
 48
0.0
 49
2.5
140
0.0125
141
2.5
142
0.00625
143
0.03937007874
144
100.0
145
0.0
146
0.5
147
0.005000000000000001
148
0.0
 69
0
 70
0
 71
0
 72
0
 73
0
 74
0
 75
0
 76
0
 77
1
 78
12
 79
3
170
0
171
3
172
1
173
0
174
0
175
0
176
0
177
0
178
0
179
2
271
2
272
2
273
2
274
3
275
0
276
0
277
2
278
46
279
2
280
0
281
0
282
0
283
0
284
8
285
0
286
0
288
1
289
3
290
0
340
4C
371
-2
372
-2
  0
DIMSTYLE
105
82
330
4
100
AcDbSymbolTableRecord
100
AcDbDimStyleTableRecord
  2
EZ_M_1_H25_CM
 70
0
 40
1.0
 41
0.0025
 42
0.00125
 43
3.75
 44
0.00375
 45
0.0
 46
0.0
 47
0.0
 48
0.0
 49
2.5
140
0.0025
141
2.5
142
0.00125
143
0.03937007874
144
100.0
145
0.0
146
0.5
147
0.001
148
0.0
 69
0
 70
0
 71
0
 72
0
 73
0
 74
0
 75
0
 76
0
 77
1
 78
12
 79
3
170
0
171
3
172
1
173
0
174
0
175
0
176
0
177
0
178
0
179
2
271
2
272
2
273
2
274
3
275
0
276
0
277
2
278
46
279
2
280
0
281
0
282
0
283
0
284
8
285
0
286
0
288
1
289
3
290
0
340
4C
371
-2
372
-2
  0
DIMSTYLE
105
83
330
4
100
AcDbSymbolTableRecord
100
AcDbDimStyleTableRecord
  2
EZ_RADIUS
 70
0
 40
1.0
 41
0.25
 42
0.125
 43
3.75
 44
0.375
 45
0.0
 46
0.0
 47
0.0
 48
0.0
 49
2.5
140
0.25
141
0.0
142
0.0
143
0.03937007874
144
100.0
145
0.0
146
0.5
147
0.1
148
0.0
 69
0
 70
0
 71
0
 72
0
 73
0
 74
0
 75
0
 76
0
 77
1
 78
12
 79
3
170
0
171
3
172
0
173
0
174
0
175
0
176
0
177
0
178
0
179
2
271
2
272
2
273
2
274
3
275
0
276
0
277
2
278
46
279
1
280
0
281
0
282
0
283
0
284
8
285
0
286
0
288
1
289
3
290
0
340
4C
342
84
371
-2
372
-2
  0
DIMSTYLE
105
88
330
4
100
AcDbSymbolTableRecord
100
AcDbDimStyleTableRecord
  2
EZ_RADIUS_INSIDE
 70
0
 40
1.0
 41
0.25
 42
0.125
 43
3.75
 44
0.375
 45
0.0
 46
0.0
 47
0.0
 48
0.0
 49
2.5
140
0.25
141
0.0
142
0.0
143
0.03937007874
144
100.0
145
0.0
146
0.5
147
0.1
148
0.0
 69
0
 70
0
 71
0
 72
0
 73
0
 74
0
 75
0
 76
0
 77
0
 78
12
 79
3
170
0
171
3
172
0
173
0
174
1
175
0
176
0
177
0
178
0
179
2
271
2
272
2
273
2
274
3
275
0
276
0
277
2
278
46
279
0
280
0
281
0
282
0
283
0
284
8
285
0
286
0
288
1
289
0
290
0
340
4C
342
84
371
-2
372
-2
  0
DIMSTYLE
105
89
330
4
100
AcDbSymbolTableRecord
100
AcDbDimStyleTableRecord
  2
EZ_CURVED
 70
0
 40
1.0
 41
0.25
 42
0.125
 43
3.75
 44
0.375
 45
0.0
 46
0.0
 47
0.0
 48
0.0
 49
2.5
140
0.25
141
2.5
142
0.0
143
0.03937007874
144
100.0
145
0.0
146
0.5
147
0.1
148
0.0
 69
0
 70
0
 71
0
 72
0
 73
0
 74
0
 75
0
 76
0
 77
1
 78
12
 79
2
 90
2
170
0
171
3
172
1
173
0
174
0
175
0
176
0
177
0
178
0
179
2
271
2
272
2
273
2
274
3
275
0
276
0
277
2
278
46
279
2
280
0
281
0
282
0
283
0
284
8
285
0
286
0
288
1
289
3
290
0
340
4C
371
-2
372
-2
  0
ENDTAB
  0
TABLE
  2
BLOCK_RECORD
  5
9
330
0
100
AcDbSymbolTable
 70
5
  0
BLOCK_RECORD
  5
17
330
9
100
AcDbSymbolTableRecord
100
AcDbBlockTableRecord
  2
*Model_Space
340
1A
 70
0
280
1
281
0
  0
BLOCK_RECORD
  5
1B
330
9
100
AcDbSymbolTableRecord
100
AcDbBlockTableRecord
  2
*Paper_Space
340
1E
 70
0
280
1
281
0
  0
BLOCK_RECORD
  5
74
330
9
100
AcDbSymbolTableRecord
100
AcDbBlockTableRecord
  2
_ARCHTICK
340
0
 70
0
280
1
281
0
  0
BLOCK_RECORD
  5
78
330
9
100
AcDbSymbolTableRecord
100
AcDbBlockTableRecord
  2
_CLOSEDFILLED
340
0
 70
0
280
1
281
0
  0
BLOCK_RECORD
  5
84
330
9
100
AcDbSymbolTableRecord
100
AcDbBlockTableRecord
  2
_CLOSEDBLANK
340
0
 70
0
280
1
281
0
  0
ENDTAB
  0
ENDSEC
  0
SECTION
  2
BLOCKS
  0
BLOCK
  5
18
330
17
100
AcDbEntity
  8
0
100
AcDbBlockBegin
  2
*Model_Space
 70
0
 10
0.0
 20
0.0
 30
0.0
  3
*Model_Space
  1

  0
ENDBLK
  5
19
330
17
100
AcDbEntity
  8
0
100
AcDbBlockEnd
  0
BLOCK
  5
1C
330
1B
100
AcDbEntity
  8
0
100
AcDbBlockBegin
  2
*Paper_Space
 70
0
 10
0.0
 20
0.0
 30
0.0
  3
*Paper_Space
  1

  0
ENDBLK
  5
1D
330
1B
100
AcDbEntity
  8
0
100
AcDbBlockEnd
  0
BLOCK
  5
75
330
74
100
AcDbEntity
  8
0
100
AcDbBlockBegin
  2
_ARCHTICK
 70
0
 10
0.0
 20
0.0
 30
0.0
  3
_ARCHTICK
  1

  0
LWPOLYLINE
  5
77
330
74
100
AcDbEntity
  8
0
  6
BYBLOCK
 62
0
100
AcDbPolyline
 90
2
 70
0
 43
0.15
 10
-0.5
 20
-0.5
 10
0.5
 20
0.5
  0
ENDBLK
  5
76
330
74
100
AcDbEntity
  8
0
100
AcDbBlockEnd
  0
BLOCK
  5
79
330
78
100
AcDbEntity
  8
0
100
AcDbBlockBegin
  2
_CLOSEDFILLED
 70
0
 10
0.0
 20
0.0
 30
0.0
  3
_CLOSEDFILLED
  1

  0
SOLID
  5
7B
330
78
100
AcDbEntity
  8
0
  6
BYBLOCK
 62
0
100
AcDbTrace
 10
-1.0
 20
0.16439898372402537
 30
0.0
 11
0.0
 21
0.0
 31
0.0
 12
-1.0
 22
-0.16439898372402537
 32
0.0
 13
-1.0
 23
-0.16439898372402537
 33
0.0
  0
ENDBLK
  5
7A
330
78
100
AcDbEntity
  8
0
100
AcDbBlockEnd
  0
BLOCK
  5
85
330
84
100
AcDbEntity
  8
0
100
AcDbBlockBegin
  2
_CLOSEDBLANK
 70
0
 10
0.0
 20
0.0
 30
0.0
  3
_CLOSEDBLANK
  1

  0
LWPOLYLINE
  5
87
330
84
100
AcDbEntity
  8
0
  6
BYBLOCK
 62
0
100
AcDbPolyline
 90
3
 70
1
 10
-1.0
 20
0.16439898372402537
 10
0.0
 20
0.0
 10
-1.0
 20
-0.16439898372402537
  0
ENDBLK
  5
86
330
84
100
AcDbEntity
  8
0
100
AcDbBlockEnd
  0
ENDSEC
  0
SECTION
  2
ENTITIES
  0
LWPOLYLINE
  5
8C
330
17
100
AcDbEntity
  8
Layer
100
AcDbPolyline
 90
162
 70
1
 10
334.81578947337687
 20
236.69106466436637
 10
328.8124469305996
 20
237.52434916687176
 10
322.31145260585106
 20
238.3718219216676
 10
315.79877359906277
 20
239.16697962649732
 10
309.27575480225715
 20
239.91127487662408
 10
302.7454019923289
 20
240.60450597038428
 10
296.20843957135025
 20
241.24578929486967
 10
289.66396498867994
 20
241.8352533728231
 10
283.1137600663639
 20
242.37420512269276
 10
276.5624812419141
 20
242.86260286017875
 10
270.0130193848684
 20
243.29903018442198
 10
263.46531156226547
 20
243.68264449109375
 10
256.9205840245334
 20
244.0142780761965
 10
250.38316214699742
 20
244.2937919992734
 10
243.85636324978466
 20
244.51987687522058
 10
237.34001873781568
 20
244.6910346464308
 10
230.83455666881196
 20
244.80776068671497
 10
224.34402400937682
 20
244.87021006935785
 10
217.87189621570926
 20
244.8769364495299
 10
211.41866046363867
 20
244.82632683136353
 10
204.98448190090133
 20
244.71843441484833
 10
198.57350013038774
 20
244.55355536267322
 10
192.1899904908915
 20
244.33033479445538
 10
185.83454778101506
 20
244.0468097526454
 10
179.5081883353608
 20
243.70298051329328
 10
173.2155204878557
 20
243.29920708703372
 10
166.9616074194185
 20
242.83395801372146
 10
160.74738624665815
 20
242.3051524146864
 10
154.5749887456185
 20
241.71320434187265
 10
148.45078194076237
 20
241.05840174335054
 10
142.37958348793362
 20
240.3387335980396
 10
136.36310254404765
 20
239.55277720658904
 10
130.40594642407467
 20
238.70157716765678
 10
124.51575409683738
 20
237.7849956406078
 10
118.69728004563359
 20
236.80150420115453
 10
112.95464768474196
 20
235.75218439443051
 10
107.30002435371304
 20
234.6413878894696
 10
101.74778347419058
 20
233.46979706530942
 10
96.3063940098279
 20
232.23664764387905
 10
90.98553857432799
 20
230.94638971757604
 10
85.80281495546103
 20
229.6054119618743
 10
80.77360900639914
 20
228.21589662904609
 10
75.90848948171009
 20
226.782068726761
 10
71.22246469461555
 20
225.31437004313986
 10
66.73389197288859
 20
223.82208292675026
 10
62.45479230026487
 20
222.31082252860557
 10
58.39315822518756
 20
220.7905460215603
 10
54.55861710041626
 20
219.27402874481174
 10
50.95747369975007
 20
217.76951492221627
 10
47.58832492921482
 20
216.28276078283537
 10
44.44649051882109
 20
214.82224140373222
 10
41.526948798045936
 20
213.39567501845852
 10
38.821600075388034
 20
212.00575736308028
 10
36.318048596323166
 20
210.6524454732241
 10
34.0021074194359
 20
209.33704632918568
 10
31.861009681787152
 20
208.0619126886686
 10
29.883065166399632
 20
206.8268103717272
 10
28.055967614339096
 20
205.6289327486731
 10
26.367336507608087
 20
204.46538653733688
 10
24.805396958827288
 20
203.33433579194437
 10
23.360772730193247
 20
202.2353108035413
 10
22.025786172533117
 20
201.16636132592095
 10
20.793093273401865
 20
200.1236325301478
 10
19.653284477378776
 20
199.10150111720276
 10
18.596220800097825
 20
198.09783112461002
 10
17.612042082968344
 20
197.1129917956318
 10
16.693939518738006
 20
196.15150901936622
 10
15.838636210465495
 20
195.2171189374784
 10
15.047194076827964
 20
194.3132303151905
 10
14.321574373227662
 20
193.43685936869852
 10
13.663110415503525
 20
192.58291333189356
 10
13.070568453600316
 20
191.7437006336882
 10
12.539365868845863
 20
190.91124403627552
 10
12.063898224730082
 20
190.0830530363176
 10
11.63846026572574
 20
189.26008324296862
 10
11.25959541451607
 20
188.448208344713
 10
10.92596658192275
 20
187.6522197883408
 10
10.638331368503202
 20
186.87638068301885
 10
10.398193352246494
 20
186.12126761165038
 10
10.206495447175627
 20
185.3840777736579
 10
10.063023955024676
 20
184.66161568833215
 10
9.966330035523185
 20
183.9511140712216
 10
9.910780013960135
 20
183.17287975516982
 10
9.903478760243587
 20
182.55416685414448
 10
9.937247095154675
 20
181.8539259587654
 10
10.019152329863687
 20
181.1591838738251
 10
10.154902494164503
 20
180.47280574118008
 10
10.352341932489622
 20
179.79253233412948
 10
10.618976471556635
 20
179.1146078695669
 10
10.958464813206547
 20
178.43784621331665
 10
11.369327452531735
 20
177.76454213729644
 10
11.84674317444231
 20
177.09961837004175
 10
12.387220360726559
 20
176.44767731542768
 10
12.990377680872768
 20
175.812067135971
 10
13.659683703615656
 20
175.1938371583528
 10
14.3988202562538
 20
174.59269090484733
 10
15.210269337295557
 20
174.007122623367
 10
16.093187980843425
 20
173.4355810303595
 10
17.04661322354559
 20
172.87641395240038
 10
18.069344434250382
 20
172.32901375709156
 10
19.164333180505537
 20
171.7931159717708
 10
20.33606195347835
 20
171.26864586194307
 10
21.592225825932616
 20
170.75487999591127
 10
22.940329607552854
 20
170.24979391252938
 10
24.38768485669121
 20
169.75036100227896
 10
25.942198140303617
 20
169.25326248689638
 10
27.61197856101927
 20
168.75563669874782
 10
29.408157703523074
 20
168.25591981683053
 10
31.34459026834159
 20
167.7533814081976
 10
33.4382561817325
 20
167.24721089209947
 10
35.7072814088782
 20
166.73587726226882
 10
38.17148402127563
 20
166.21791175198922
 10
40.851834744855466
 20
165.69275724976563
 10
43.77209323663325
 20
165.16137912340506
 10
46.95798093224903
 20
164.62538012790353
 10
50.434105719342426
 20
164.08548496550654
 10
54.22091282638678
 20
163.54294849527466
 10
58.33393481744372
 20
163.00187978885975
 10
62.78357923170873
 20
162.46815392817024
 10
67.57200286556412
 20
161.94626867253305
 10
72.68785495706547
 20
161.44000985581448
 10
78.10998297858723
 20
160.95595810045566
 10
83.81420241316943
 20
160.49964998984532
 10
89.77009749320442
 20
160.07268654618747
 10
95.94225402717692
 20
159.6773644608106
 10
102.30211634814376
 20
159.31638760903647
 10
108.82523526219842
 20
158.98841953911267
 10
115.4866455308156
 20
158.69193992096314
 10
122.27239007699222
 20
158.42782292408504
 10
129.1798898146235
 20
158.19064668158492
 10
136.1888132056699
 20
157.96730516294718
 10
136.9291495653896
 20
157.94472884631347
 10
136.89866905886802
 20
156.9451934848969
 10
143.2226687227947
 20
156.75234344710412
 10
150.30552275910756
 20
156.55495950286675
 10
157.41246484354312
 20
156.38700659579115
 10
164.57107535675578
 20
156.24726947556235
 10
171.79583149329153
 20
156.12389018482827
 10
179.07292094043402
 20
156.0041980730134
 10
186.37511826642125
 20
155.88177635789998
 10
193.68006382978808
 20
155.75946914645004
 10
200.97167563148122
 20
155.64788204675312
 10
208.26519521237475
 20
155.55570550153593
 10
215.5875143550565
 20
155.48065528301134
 10
222.94909544774941
 20
155.41274299602023
 10
230.3366301211079
 20
155.34439872538366
 10
237.73899542428148
 20
155.27561512555198
 10
245.1471108946403
 20
155.20815789261698
 10
252.55277092198094
 20
155.14111849903156
 10
259.9450923613467
 20
155.07472161699513
 10
267.3187297823232
 20
155.01432493321153
 10
274.68303742906454
 20
154.96456825121513
 10
282.0481726404036
 20
154.92137563579575
 10
289.4095715133412
 20
154.8740140411595
 10
296.7715347903655
 20
154.81793300192598
 10
304.13404971291334
 20
154.75956520516218
 10
311.49532115144035
 20
154.708760906744
 10
318.86426624238874
 20
154.66601688366364
 10
326.23701070710933
 20
154.6247321862802
 10
333.5996215810343
 20
154.58218299289445
 10
334.8157894618705
 20
154.57611057880726
 10
334.81578947337687
 20
236.69106466436637
  0
LWPOLYLINE
  5
8D
330
17
100
AcDbEntity
  8
NumLabel
 62
1
100
AcDbPolyline
 90
6
 70
0
 10
196.8968421052629
 20
177.51842105263162
 10
191.8968421052629
 20
177.51842105263162
 10
191.8968421052629
 20
172.51842105263162
 10
196.8968421052629
 20
172.51842105263162
 10
196.8968421052629
 20
167.51842105263162
 10
191.8968421052629
 20
167.51842105263162
  0
LWPOLYLINE
  5
8E
330
17
100
AcDbEntity
  8
NumLabel
 62
1
100
AcDbPolyline
 90
6
 70
0
 10
204.3968421052629
 20
177.51842105263162
 10
199.3968421052629
 20
177.51842105263162
 10
199.3968421052629
 20
172.51842105263162
 10
204.3968421052629
 20
172.51842105263162
 10
204.3968421052629
 20
167.51842105263162
 10
199.3968421052629
 20
167.51842105263162
  0
LWPOLYLINE
  5
8F
330
17
100
AcDbEntity
  8
Layer
100
AcDbPolyline
 90
5
 70
1
 10
190.43233425177115
 20
240.2479233804242
 10
186.43631065308037
 20
240.06961073727632
 10
186.2579980099325
 20
244.0656343359671
 10
190.25402160862328
 20
244.24394697911498
 10
190.43233425177115
 20
240.2479233804242
  0
LWPOLYLINE
  5
90
330
17
100
AcDbEntity
  8
Layer
100
AcDbPolyline
 90
5
 70
1
 10
79.8935607515414
 20
223.78634158605342
 10
76.05676858829767
 20
222.65540131527365
 10
74.9258283175179
 20
226.49219347851738
 10
78.76262048076163
 20
227.62313374929715
 10
79.8935607515414
 20
223.78634158605342
  0
LWPOLYLINE
  5
91
330
17
100
AcDbEntity
  8
Layer
100
AcDbPolyline
 90
5
 70
1
 10
24.39205070713935
 20
196.63523304094346
 10
22.903592462131616
 20
195.29938422731655
 10
19.563970428064277
 20
199.02052983983592
 10
21.05242867307201
 20
200.35637865346283
 10
24.39205070713935
 20
196.63523304094346
  0
LWPOLYLINE
  5
92
330
17
100
AcDbEntity
  8
Layer
100
AcDbPolyline
 90
5
 70
1
 10
17.23520674488856
 20
178.7115593260978
 10
18.85921580863091
 20
177.54425706837588
 10
15.940960164326095
 20
173.48423440902002
 10
14.316951100583749
 20
174.65153666674195
 10
17.23520674488856
 20
178.7115593260978
  0
LWPOLYLINE
  5
93
330
17
100
AcDbEntity
  8
Layer
100
AcDbPolyline
 90
5
 70
1
 10
102.6946367524034
 20
163.30170580339208
 10
106.68959136728162
 20
163.1008635143614
 10
106.48874907825095
 20
159.10590889948318
 10
102.49379446337272
 20
159.30675118851386
 10
102.6946367524034
 20
163.30170580339208
  0
LWPOLYLINE
  5
94
330
17
100
AcDbEntity
  8
Layer
100
AcDbPolyline
 90
300
 70
1
 10
290.9698865784495
 20
200.0
 10
290.9623555956092
 20
200.76147021644482
 10
290.9397659725584
 20
201.52260418907832
 10
290.90212768423874
 20
202.283065822565
 10
290.84945735065867
 20
203.04251931845533
 10
290.7817782295548
 20
203.80062932346505
 10
290.69912020612185
 20
204.55706107755762
 10
290.601519779816
 20
205.31148056176482
 10
290.4890200482379
 20
206.06355464568026
 10
290.36167068810204
 20
206.8129512345602
 10
290.2195279333008
 20
207.55933941596734
 10
290.0626545500734
 20
208.3023896058925
 10
289.8911198092894
 20
209.04177369428947
 10
289.7049994558617
 20
209.7771651899594
 10
289.5043756752987
 20
210.50823936471986
 10
289.28933705741423
 20
211.23467339679587
 10
289.05997855720824
 20
211.95614651336882
 10
288.81640145293784
 20
212.67234013222074
 10
288.55871330139524
 20
213.3829380024112
 10
288.2870278904139
 20
214.08762634392488
 10
288.0014651886231
 20
214.78609398622794
 10
287.7021512924731
 20
215.47803250567222
 10
287.38921837055426
 20
216.1631363616864
 10
287.0628046052356
 20
216.8411030316941
 10
286.7230541316469
 20
217.51163314469943
 10
286.370116974033
 20
218.17443061348067
 10
286.004148979507
 20
218.82920276533406
 10
285.625311749233
 20
219.47566047131
 10
285.2337725670671
 20
220.113518273884
 10
284.8297043256898
 20
220.74249451300693
 10
284.4132854502617
 20
221.36231145047796
 10
283.98469981963535
 20
221.97269539258608
 10
283.5441366851601
 20
222.57337681096544
 10
283.09179058711385
 20
223.16409046161158
 10
282.62786126879934
 20
223.74457550200566
 10
282.1525535883434
 20
224.3145756062951
 10
281.6660774282373
 20
224.87383907848005
 10
281.16864760265855
 20
225.4221189635551
 10
280.6604837626148
 20
225.9591731565577
 10
280.14181029895235
 20
226.48476450947493
 10
279.61285624327166
 20
226.9986609359613
 10
279.073855166793
 20
227.5006355138217
 10
278.52504507721824
 20
227.99046658521368
 10
277.96666831363325
 20
228.46793785452542
 10
277.3989714394979
 20
228.93283848388575
 10
276.8222051337706
 20
229.38496318626426
 10
276.2366240802152
 20
229.8241123161202
 10
275.6424868549402
 20
230.25009195756036
 10
275.04005581221867
 20
230.6627140099669
 10
274.4295969686399
 20
231.0617962710573
 10
273.8113798856441
 20
231.44716251733962
 10
273.1856775504917
 20
231.81864258192806
 10
272.55276625571946
 20
232.17607242968364
 10
271.9129254771382
 20
232.51929422964773
 10
271.26643775042334
 20
232.84815642473546
 10
270.6135885463557
 20
233.1625137986594
 10
269.95466614476527
 20
233.4622275400527
 10
269.2899615072352
 20
233.7471653037645
 10
268.6197681486213
 20
234.01720126929962
 10
267.9443820074439
 20
234.2722161963775
 10
267.2641013152101
 20
234.51209747758534
 10
266.5792264647229
 20
234.7367391881023
 10
265.89005987743633
 20
234.94604213247288
 10
265.1969058699144
 20
235.139913888409
 10
264.5000705194538
 20
235.31826884760096
 10
263.79986152892855
 20
235.48102825351967
 10
263.09658809091724
 20
235.62812023619335
 10
262.39056075117213
 20
235.75947984394324
 10
261.6820912714909
 20
235.87504907206448
 10
260.97149249205154
 20
235.97477688843935
 10
260.259078193271
 20
236.0586192560716
 10
259.54516295724824
 20
236.12653915253193
 10
258.830062028854
 20
236.17850658630607
 10
258.1140911765273
 20
236.21449861003828
 10
257.39756655284117
 20
236.234499330664
 10
256.68080455489843
 20
236.23849991642808
 10
255.96412168461967
 20
236.2264986007845
 10
255.247834408985
 20
236.19850068317635
 10
254.532259020291
 20
236.15451852669594
 10
253.81771149648506
 20
236.09457155262533
 10
253.10450736163833
 20
236.01868623186078
 10
252.3929615466193
 20
235.92689607322362
 10
251.683388250029
 20
235.81924160866393
 10
250.9761007994599
 20
235.69577037536268
 10
250.27141151313927
 20
235.55653689474062
 10
249.5696315620181
 20
235.40160264838318
 10
248.87107083236685
 20
235.23103605089204
 10
248.17603778893854
 20
235.04491241967494
 10
247.4848393387591
 20
234.84331394168788
 10
246.79778069560612
 20
234.6263296371435
 10
246.11516524523492
 20
234.3940553202023
 10
245.43729441141198
 20
234.1465935566639
 10
244.7644675228147
 20
233.88405361867672
 10
244.09698168085617
 20
233.60655143648657
 10
243.43513162849376
 20
233.3142095472451
 10
242.77920962007875
 20
233.00715704090084
 10
242.12950529230508
 20
232.68552950319673
 10
241.48630553631398
 20
232.3494689557992
 10
240.84989437101086
 20
231.9991237935855
 10
240.22055281765063
 20
231.6346487191167
 10
239.59855877574657
 20
231.25620467432523
 10
238.98418690035777
 20
230.86395876944763
 10
238.37770848080908
 20
230.45808420923336
 10
237.7793913208975
 20
230.03876021646238
 10
237.18949962063755
 20
229.6061719528054
 10
236.60829385959795
 20
229.16051043706182
 10
236.03603068188116
 20
228.7019724608111
 10
235.4729627827966
 20
228.2307605015152
 10
234.91933879727748
 20
227.74708263311018
 10
234.37540319009062
 20
227.25115243412662
 10
233.84139614788785
 20
226.74318889337943
 10
233.31755347314598
 20
226.22341631326842
 10
232.80410648004343
 20
225.69206421073275
 10
232.3012818923183
 20
225.14936721590274
 10
231.80930174315336
 20
224.5955649684938
 10
231.3283832771327
 20
224.03090201198816
 10
230.85873885431252
 20
223.45562768565154
 10
230.40057585644888
 20
222.86999601443182
 10
229.95409659542386
 20
222.27426559678878
 10
229.5194982239102
 20
221.66869949050437
 10
229.09697264831433
 20
221.05356509652373
 10
228.68670644403585
 20
220.42913404087852
 10
228.28888077308108
 20
219.79568205474447
 10
227.9036713040671
 20
219.15348885268622
 10
227.5312481346513
 20
218.50283800914335
 10
227.1717757164212
 20
217.8440168332118
 10
226.82541278227708
 20
217.17731624177628
 10
226.49231227634016
 20
216.50303063104957
 10
226.17262128641673
 20
215.82145774657545
 10
225.86648097904822
 20
215.13289855175267
 10
225.57402653717622
 20
214.43765709493795
 10
225.2953871004493
 20
213.7360403751867
 10
225.0306857081987
 20
213.0283582066911
 10
224.78003924510756
 20
212.31492308197468
 10
224.54355838959805
 20
211.5960500339045
 10
224.3213475649587
 20
210.87205649658148
 10
224.11350489323425
 20
210.14326216517043
 10
223.92012215189746
 20
209.40998885473175
 10
223.741284733323
 20
208.6725603581168
 10
223.5770716070804
 20
207.93130230299025
 10
223.42755528506345
 20
207.18654200804198
 10
223.29280178947087
 20
206.43860833845238
 10
223.17287062365287
 20
205.68783156067474
 10
223.06781474583605
 20
204.93454319659887
 10
222.97768054573865
 20
204.17907587716047
 10
222.902507824086
 20
203.4217631954605
 10
222.84232977503584
 20
202.66293955945997
 10
222.79717297152052
 20
201.90294004431482
 10
222.76705735351322
 20
201.142100244416
 10
222.75199621922314
 20
200.38075612520075
 10
222.75199621922314
 20
199.61924387479928
 10
222.76705735351322
 20
198.857899755584
 10
222.79717297152052
 20
198.09705995568518
 10
222.84232977503584
 20
197.33706044054003
 10
222.902507824086
 20
196.5782368045395
 10
222.97768054573865
 20
195.82092412283953
 10
223.06781474583605
 20
195.06545680340113
 10
223.17287062365287
 20
194.3121684393253
 10
223.29280178947087
 20
193.56139166154762
 10
223.42755528506345
 20
192.81345799195802
 10
223.5770716070804
 20
192.06869769700975
 10
223.741284733323
 20
191.3274396418832
 10
223.92012215189746
 20
190.59001114526828
 10
224.11350489323422
 20
189.85673783482957
 10
224.3213475649587
 20
189.12794350341855
 10
224.54355838959805
 20
188.40394996609552
 10
224.78003924510756
 20
187.68507691802532
 10
225.0306857081987
 20
186.9716417933089
 10
225.2953871004493
 20
186.2639596248133
 10
225.57402653717622
 20
185.56234290506205
 10
225.86648097904822
 20
184.86710144824733
 10
226.17262128641673
 20
184.17854225342455
 10
226.49231227634016
 20
183.49696936895043
 10
226.82541278227708
 20
182.82268375822372
 10
227.1717757164212
 20
182.15598316678822
 10
227.53124813465132
 20
181.49716199085665
 10
227.9036713040671
 20
180.84651114731378
 10
228.28888077308108
 20
180.20431794525555
 10
228.68670644403585
 20
179.57086595912148
 10
229.09697264831433
 20
178.94643490347627
 10
229.5194982239102
 20
178.33130050949563
 10
229.95409659542386
 20
177.72573440321122
 10
230.40057585644888
 20
177.13000398556818
 10
230.85873885431252
 20
176.54437231434846
 10
231.3283832771327
 20
175.96909798801184
 10
231.80930174315336
 20
175.4044350315062
 10
232.3012818923183
 20
174.85063278409726
 10
232.80410648004343
 20
174.30793578926728
 10
233.31755347314595
 20
173.7765836867316
 10
233.84139614788782
 20
173.25681110662057
 10
234.37540319009065
 20
172.74884756587338
 10
234.91933879727745
 20
172.25291736688982
 10
235.47296278279657
 20
171.7692394984848
 10
236.03603068188116
 20
171.2980275391889
 10
236.60829385959795
 20
170.83948956293818
 10
237.18949962063755
 20
170.3938280471946
 10
237.77939132089747
 20
169.96123978353765
 10
238.37770848080905
 20
169.54191579076664
 10
238.98418690035777
 20
169.13604123055237
 10
239.5985587757466
 20
168.74379532567477
 10
240.22055281765063
 20
168.3653512808833
 10
240.84989437101086
 20
168.00087620641446
 10
241.48630553631398
 20
167.6505310442008
 10
242.12950529230508
 20
167.31447049680327
 10
242.77920962007875
 20
166.99284295909916
 10
243.43513162849376
 20
166.6857904527549
 10
244.09698168085617
 20
166.39344856351343
 10
244.7644675228147
 20
166.11594638132328
 10
245.43729441141198
 20
165.8534064433361
 10
246.11516524523492
 20
165.6059446797977
 10
246.79778069560612
 20
165.3736703628565
 10
247.4848393387591
 20
165.15668605831212
 10
248.17603778893854
 20
164.95508758032506
 10
248.87107083236685
 20
164.76896394910796
 10
249.5696315620181
 20
164.59839735161682
 10
250.27141151313927
 20
164.44346310525938
 10
250.9761007994599
 20
164.30422962463732
 10
251.683388250029
 20
164.18075839133607
 10
252.3929615466193
 20
164.07310392677638
 10
253.10450736163833
 20
163.98131376813922
 10
253.81771149648503
 20
163.90542844737467
 10
254.53225902029098
 20
163.84548147330406
 10
255.247834408985
 20
163.80149931682365
 10
255.96412168461967
 20
163.7735013992155
 10
256.68080455489843
 20
163.76150008357192
 10
257.39756655284117
 20
163.765500669336
 10
258.1140911765273
 20
163.78550138996172
 10
258.830062028854
 20
163.82149341369393
 10
259.54516295724824
 20
163.87346084746807
 10
260.259078193271
 20
163.9413807439284
 10
260.9714924920516
 20
164.02522311156065
 10
261.6820912714909
 20
164.12495092793552
 10
262.39056075117213
 20
164.24052015605676
 10
263.09658809091724
 20
164.37187976380665
 10
263.79986152892855
 20
164.5189717464803
 10
264.5000705194538
 20
164.68173115239904
 10
265.19690586991436
 20
164.860086111591
 10
265.8900598774363
 20
165.05395786752712
 10
266.5792264647229
 20
165.2632608118977
 10
267.2641013152101
 20
165.48790252241466
 10
267.9443820074439
 20
165.7277838036225
 10
268.6197681486213
 20
165.98279873070038
 10
269.2899615072352
 20
166.2528346962355
 10
269.95466614476527
 20
166.5377724599473
 10
270.6135885463557
 20
166.8374862013406
 10
271.26643775042334
 20
167.15184357526454
 10
271.9129254771382
 20
167.48070577035227
 10
272.55276625571946
 20
167.82392757031636
 10
273.1856775504917
 20
168.18135741807197
 10
273.8113798856441
 20
168.55283748266038
 10
274.4295969686399
 20
168.9382037289427
 10
275.0400558122186
 20
169.33728599003308
 10
275.6424868549402
 20
169.74990804243964
 10
276.23662408021517
 20
170.1758876838798
 10
276.8222051337706
 20
170.61503681373574
 10
277.3989714394979
 20
171.06716151611423
 10
277.96666831363325
 20
171.53206214547458
 10
278.52504507721824
 20
172.00953341478632
 10
279.073855166793
 20
172.4993644861783
 10
279.61285624327166
 20
173.0013390640387
 10
280.14181029895235
 20
173.51523549052507
 10
280.6604837626148
 20
174.0408268434423
 10
281.16864760265855
 20
174.5778810364449
 10
281.6660774282373
 20
175.12616092151995
 10
282.1525535883434
 20
175.6854243937049
 10
282.6278612687993
 20
176.25542449799434
 10
283.0917905871138
 20
176.8359095383884
 10
283.5441366851601
 20
177.42662318903453
 10
283.98469981963535
 20
178.02730460741392
 10
284.4132854502617
 20
178.63768854952204
 10
284.8297043256898
 20
179.25750548699307
 10
285.2337725670671
 20
179.886481726116
 10
285.625311749233
 20
180.52433952869
 10
286.004148979507
 20
181.17079723466594
 10
286.370116974033
 20
181.82556938651933
 10
286.7230541316469
 20
182.48836685530057
 10
287.0628046052356
 20
183.1588969683059
 10
287.38921837055426
 20
183.83686363831362
 10
287.7021512924731
 20
184.52196749432778
 10
288.0014651886231
 20
185.21390601377203
 10
288.2870278904139
 20
185.91237365607512
 10
288.55871330139524
 20
186.6170619975888
 10
288.81640145293784
 20
187.32765986777926
 10
289.05997855720824
 20
188.04385348663118
 10
289.28933705741423
 20
188.76532660320413
 10
289.5043756752987
 20
189.49176063528014
 10
289.7049994558617
 20
190.2228348100406
 10
289.8911198092894
 20
190.95822630571053
 10
290.0626545500734
 20
191.6976103941075
 10
290.2195279333008
 20
192.44066058403266
 10
290.36167068810204
 20
193.1870487654398
 10
290.4890200482379
 20
193.93644535431974
 10
290.601519779816
 20
194.68851943823518
 10
290.69912020612185
 20
195.4429389224424
 10
290.7817782295548
 20
196.19937067653493
 10
290.84945735065867
 20
196.95748068154467
 10
290.90212768423874
 20
197.716934177435
 10
290.9397659725584
 20
198.47739581092168
 10
290.9623555956092
 20
199.23852978355518
 10
290.9698865784495
 20
200.0
  0
LWPOLYLINE
  5
95
330
17
100
AcDbEntity
  8
Layer
100
AcDbPolyline
 90
5
 70
1
 10
118.0706674230899
 20
205.00000000000003
 10
123.0706674230899
 20
200.00000000000003
 10
118.0706674230899
 20
195.00000000000003
 10
113.0706674230899
 20
200.00000000000003
 10
118.0706674230899
 20
205.00000000000003
  0
LWPOLYLINE
  5
96
330
17
100
AcDbEntity
  8
Layer
100
AcDbPolyline
 90
5
 70
1
 10
254.44382805259917
 20
205.0
 10
259.4438280525992
 20
200.0
 10
254.44382805259917
 20
195.0
 10
249.44382805259917
 20
200.0
 10
254.44382805259917
 20
205.0
  0
LWPOLYLINE
  5
97
330
17
100
AcDbEntity
  8
Layer
100
AcDbPolyline
 90
5
 70
1
 10
143.33806836919305
 20
180.22994666012002
 10
148.00683895637158
 20
174.91933641229568
 10
142.69622870854724
 20
170.25056582511715
 10
138.0274581213687
 20
175.5611760729415
 10
143.33806836919305
 20
180.22994666012002
  0
LWPOLYLINE
  5
98
330
17
100
AcDbEntity
  8
Layer
100
AcDbPolyline
 90
5
 70
1
 10
301.5569765139741
 20
170.05384736193474
 10
306.22574710115265
 20
164.7432371141104
 10
300.9151368533283
 20
160.07446652693187
 10
296.2463662661498
 20
165.38507677475621
 10
301.5569765139741
 20
170.05384736193474
  0
LWPOLYLINE
  5
99
330
17
100
AcDbEntity
  8
Layer
100
AcDbPolyline
 90
5
 70
1
 10
101.85999999999962
 20
187.44868578596814
 10
106.85999999999962
 20
192.44868578596814
 10
111.85999999999962
 20
187.44868578596814
 10
106.85999999999962
 20
182.44868578596814
 10
101.85999999999962
 20
187.44868578596814
  0
LWPOLYLINE
  5
9A
330
17
100
AcDbEntity
  8
Layer
100
AcDbPolyline
 90
5
 70
1
 10
101.85999999999962
 20
206.18707882098366
 10
106.85999999999962
 20
211.18707882098366
 10
111.85999999999962
 20
206.18707882098366
 10
106.85999999999962
 20
201.18707882098366
 10
101.85999999999962
 20
206.18707882098366
  0
LINE
  5
9B
330
17
100
AcDbEntity
  8
Layer
 62
7
100
AcDbLine
 10
20.65522700341708
 20
200.00000000000003
 30
0.0
 11
334.8157894736837
 21
200.0
 31
0.0
  0
LINE
  5
9C
330
17
100
AcDbEntity
  8
Layer
 62
7
100
AcDbLine
 10
112.0706674230899
 20
200.00000000000003
 30
0.0
 11
124.0706674230899
 21
200.00000000000003
 31
0.0
  0
LINE
  5
9D
330
17
100
AcDbEntity
  8
Layer
 62
7
100
AcDbLine
 10
248.44382805259917
 20
200.0
 30
0.0
 11
260.4438280525992
 21
200.0
 31
0.0
  0
LINE
  5
9E
330
17
100
AcDbEntity
  8
Layer
 62
7
100
AcDbLine
 10
9.95542448029343
 20
183.7983314605866
 30
0.0
 11
334.8157894736837
 21
162.9044233241936
 31
0.0
  0
LINE
  5
9F
330
17
100
AcDbEntity
  8
Layer
 62
7
100
AcDbLine
 10
137.02952003786845
 20
175.62536003900607
 30
0.0
 11
149.00477703987184
 21
174.8551524462311
 31
0.0
  0
LINE
  5
A0
330
17
100
AcDbEntity
  8
Layer
 62
7
100
AcDbLine
 10
295.2484281826495
 20
165.44926074082076
 30
0.0
 11
307.2236851846529
 21
164.6790531480458
 31
0.0
  0
LINE
  5
A1
330
17
100
AcDbEntity
  8
Layer
100
AcDbLine
 10
256.8599999999996
 20
236.23899999999998
 30
0.0
 11
256.8599999999996
 21
237.23899999999998
 31
0.0
  0
LINE
  5
A2
330
17
100
AcDbEntity
  8
Layer
100
AcDbLine
 10
256.8599999999996
 20
163.76100000000002
 30
0.0
 11
256.8599999999996
 21
162.76100000000002
 31
0.0
  0
LINE
  5
A3
330
17
100
AcDbEntity
  8
Layer
100
AcDbLine
 10
290.9698865784495
 20
200.0
 30
0.0
 11
291.9698865784495
 21
200.0
 31
0.0
  0
LINE
  5
A4
330
17
100
AcDbEntity
  8
Layer
100
AcDbLine
 10
222.75011342154974
 20
200.0
 30
0.0
 11
221.75011342154974
 21
200.0
 31
0.0
  0
LINE
  5
A5
330
17
100
AcDbEntity
  8
Layer
 62
7
100
AcDbLine
 10
106.85999999999962
 20
159.08722724511674
 30
0.0
 11
106.85999999999962
 21
234.54853736183506
 31
0.0
  0
LINE
  5
A6
330
17
100
AcDbEntity
  8
Layer
 62
7
100
AcDbLine
 10
106.85999999999962
 20
181.44868578596814
 30
0.0
 11
106.85999999999962
 21
193.44868578596814
 31
0.0
  0
LINE
  5
A7
330
17
100
AcDbEntity
  8
Layer
 62
7
100
AcDbLine
 10
106.85999999999962
 20
200.18707882098366
 30
0.0
 11
106.85999999999962
 21
212.18707882098366
 31
0.0
  0
ENDSEC
  0
SECTION
  2
OBJECTS
  0
DICTIONARY
  5
A
330
0
100
AcDbDictionary
280
0
281
1
  3
ACAD_COLOR
350
B
  3
ACAD_GROUP
350
C
  3
ACAD_LAYOUT
350
D
  3
ACAD_MATERIAL
350
E
  3
ACAD_MLEADERSTYLE
350
F
  3
ACAD_MLINESTYLE
350
10
  3
ACAD_PLOTSETTINGS
350
11
  3
ACAD_PLOTSTYLENAME
350
12
  3
ACAD_SCALELIST
350
14
  3
ACAD_TABLESTYLE
350
15
  3
ACAD_VISUALSTYLE
350
16
  3
EZDXF_META
350
2D
  0
DICTIONARY
  5
B
330
A
100
AcDbDictionary
280
0
281
1
  0
DICTIONARY
  5
C
330
A
100
AcDbDictionary
280
0
281
1
  0
DICTIONARY
  5
D
330
A
100
AcDbDictionary
280
0
281
1
  3
Model
350
1A
  3
Layout1
350
1E
  0
DICTIONARY
  5
E
330
A
100
AcDbDictionary
280
0
281
1
  3
ByBlock
350
1F
  3
ByLayer
350
20
  3
Global
350
21
  0
DICTIONARY
  5
F
330
A
100
AcDbDictionary
280
0
281
1
  3
Standard
350
2C
  0
DICTIONARY
  5
10
330
A
100
AcDbDictionary
280
0
281
1
  3
Standard
350
22
  0
DICTIONARY
  5
11
330
A
100
AcDbDictionary
280
0
281
1
  0
ACDBDICTIONARYWDFLT
  5
12
330
A
100
AcDbDictionary
280
0
281
1
  3
Normal
350
13
100
AcDbDictionaryWithDefault
340
13
  0
ACDBPLACEHOLDER
  5
13
330
12
  0
DICTIONARY
  5
14
330
A
100
AcDbDictionary
280
0
281
1
  0
DICTIONARY
  5
15
330
A
100
AcDbDictionary
280
0
281
1
  0
DICTIONARY
  5
16
330
A
100
AcDbDictionary
280
0
281
1
  3
2dWireframe
350
5A
  3
Basic
350
5B
  3
Brighten
350
5C
  3
ColorChange
350
5D
  3
Conceptual
350
5E
  3
Dim
350
5F
  3
EdgeColorOff
350
60
  3
Facepattern
350
61
  3
Flat
350
62
  3
FlatWithEdges
350
63
  3
Gouraud
350
64
  3
GouraudWithEdges
350
65
  3
Hidden
350
66
  3
JitterOff
350
67
  3
Linepattern
350
68
  3
Modeling
350
69
  3
OverhangOff
350
6A
  3
Realistic
350
6B
  3
Shaded
350
6C
  3
Shaded with edges
350
6D
  3
Shades of Gray
350
6E
  3
Sketchy
350
6F
  3
Thicken
350
70
  3
Wireframe
350
71
  3
X-Ray
350
72
  0
LAYOUT
  5
1A
330
D
100
AcDbPlotSettings
  1

  2
Adobe PDF
  4
A3
  6

 40
7.5
 41
20.0
 42
7.5
 43
20.0
 44
420.0
 45
297.0
 46
0.0
 47
0.0
 48
0.0
 49
0.0
140
0.0
141
0.0
142
1.0
143
1.0
 70
1024
 72
1
 73
0
 74
5
  7

 75
16
 76
0
 77
2
 78
300
147
1.0
148
0.0
149
0.0
100
AcDbLayout
  1
Model
 70
1
 71
0
 10
0.0
 20
0.0
 11
420.0
 21
297.0
 12
0.0
 22
0.0
 32
0.0
 14
1e+20
 24
1e+20
 34
1e+20
 15
-1e+20
 25
-1e+20
 35
-1e+20
146
0.0
 13
0.0
 23
0.0
 33
0.0
 16
1.0
 26
0.0
 36
0.0
 17
0.0
 27
1.0
 37
0.0
 76
1
330
17
  0
LAYOUT
  5
1E
330
D
100
AcDbPlotSettings
  1

  2
Adobe PDF
  4
A3
  6

 40
7.5
 41
20.0
 42
7.5
 43
20.0
 44
420.0
 45
297.0
 46
0.0
 47
0.0
 48
0.0
 49
0.0
140
0.0
141
0.0
142
1.0
143
1.0
 70
0
 72
1
 73
0
 74
5
  7

 75
16
 76
0
 77
2
 78
300
147
1.0
148
0.0
149
0.0
100
AcDbLayout
  1
Layout1
 70
1
 71
1
 10
0.0
 20
0.0
 11
420.0
 21
297.0
 12
0.0
 22
0.0
 32
0.0
 14
1e+20
 24
1e+20
 34
1e+20
 15
-1e+20
 25
-1e+20
 35
-1e+20
146
0.0
 13
0.0
 23
0.0
 33
0.0
 16
1.0
 26
0.0
 36
0.0
 17
0.0
 27
1.0
 37
0.0
 76
1
330
1B
  0
MATERIAL
  5
1F
102
{ACAD_REACTORS
330
E
102
}
330
E
100
AcDbMaterial
  1
ByBlock
  2

 70
0
 40
1.0
 71
1
 41
1.0
 91
-1023410177
 42
1.0
 72
1
  3

 73
1
 74
1
 75
1
 44
0.5
 73
0
 45
1.0
 46
1.0
 77
1
  4

 78
1
 79
1
170
1
 48
1.0
171
1
  6

172
1
173
1
174
1
140
1.0
141
1.0
175
1
  7

176
1
177
1
178
1
143
1.0
179
1
  8

270
1
271
1
272
1
145
1.0
146
1.0
273
1
  9

274
1
275
1
276
1
 42
1.0
 72
1
  3

 73
1
 74
1
 75
1
 94
63
  0
MATERIAL
  5
20
102
{ACAD_REACTORS
330
E
102
}
330
E
100
AcDbMaterial
  1
ByLayer
  2

 70
0
 40
1.0
 71
1
 41
1.0
 91
-1023410177
 42
1.0
 72
1
  3

 73
1
 74
1
 75
1
 44
0.5
 73
0
 45
1.0
 46
1.0
 77
1
  4

 78
1
 79
1
170
1
 48
1.0
171
1
  6

172
1
173
1
174
1
140
1.0
141
1.0
175
1
  7

176
1
177
1
178
1
143
1.0
179
1
  8

270
1
271
1
272
1
145
1.0
146
1.0
273
1
  9

274
1
275
1
276
1
 42
1.0
 72
1
  3

 73
1
 74
1
 75
1
 94
63
  0
MATERIAL
  5
21
102
{ACAD_REACTORS
330
E
102
}
330
E
100
AcDbMaterial
  1
Global
  2

 70
0
 40
1.0
 71
1
 41
1.0
 91
-1023410177
 42
1.0
 72
1
  3

 73
1
 74
1
 75
1
 44
0.5
 73
0
 45
1.0
 46
1.0
 77
1
  4

 78
1
 79
1
170
1
 48
1.0
171
1
  6

172
1
173
1
174
1
140
1.0
141
1.0
175
1
  7

176
1
177
1
178
1
143
1.0
179
1
  8

270
1
271
1
272
1
145
1.0
146
1.0
273
1
  9

274
1
275
1
276
1
 42
1.0
 72
1
  3

 73
1
 74
1
 75
1
 94
63
  0
MLINESTYLE
  5
22
102
{ACAD_REACTORS
330
10
102
}
330
10
100
AcDbMlineStyle
  2
Standard
 70
0
  3

 62
256
 51
90.0
 52
90.0
 71
2
 49
0.5
 62
256
  6
BYLAYER
 49
-0.5
 62
256
  6
BYLAYER
  0
MLEADERSTYLE
  5
2C
102
{ACAD_REACTORS
330
F
102
}
330
F
100
AcDbMLeaderStyle
179
2
170
2
171
1
172
0
 90
2
 40
0.0
 41
0.0
173
1
 91
-1056964608
 92
-2
290
1
 42
2.0
291
1
 43
8.0
  3
Standard
 44
4.0
300

342
29
174
1
175
1
176
0
178
1
 93
-1056964608
 45
4.0
292
0
297
0
 46
4.0
 94
-1056964608
 47
1.0
 49
1.0
140
1.0
294
1
141
0.0
177
0
142
1.0
295
0
296
0
143
3.75
271
0
272
9
273
9
  0
DICTIONARY
  5
2D
330
A
100
AcDbDictionary
281
1
  3
CREATED_BY_EZDXF
350
2E
  3
WRITTEN_BY_EZDXF
350
AA
  0
DICTIONARYVAR
  5
2E
330
2D
100
DictionaryVariables
280
0
  1
1.3.0 @ 2026-01-06T17:07:20.480810+00:00
  0
VISUALSTYLE
  5
5A
102
{ACAD_REACTORS
330
16
102
}
330
16
100
AcDbVisualStyle
  2
2dWireframe
 70
4
 90
0
 40
0.6
 62
7
290
0
291
0
  0
VISUALSTYLE
  5
5B
102
{ACAD_REACTORS
330
16
102
}
330
16
100
AcDbVisualStyle
  2
Basic
 70
7
 90
1
 40
0.6
 62
7
290
0
291
1
  0
VISUALSTYLE
  5
5C
102
{ACAD_REACTORS
330
16
102
}
330
16
100
AcDbVisualStyle
  2
Brighten
 70
12
 90
2
 40
0.6
 62
7
290
0
291
1
  0
VISUALSTYLE
  5
5D
102
{ACAD_REACTORS
330
16
102
}
330
16
100
AcDbVisualStyle
  2
ColorChange
 70
16
 90
2
 40
0.6
 62
8
290
0
291
1
  0
VISUALSTYLE
  5
5E
102
{ACAD_REACTORS
330
16
102
}
330
16
100
AcDbVisualStyle
  2
Conceptual
 70
9
 90
3
 40
0.6
 62
7
290
0
291
0
  0
VISUALSTYLE
  5
5F
102
{ACAD_REACTORS
330
16
102
}
330
16
100
AcDbVisualStyle
  2
Dim
 70
11
 90
2
 40
0.6
 62
7
290
0
291
1
  0
VISUALSTYLE
  5
60
102
{ACAD_REACTORS
330
16
102
}
330
16
100
AcDbVisualStyle
  2
EdgeColorOff
 70
22
 90
2
 40
0.6
 62
7
290
0
291
1
  0
VISUALSTYLE
  5
61
102
{ACAD_REACTORS
330
16
102
}
330
16
100
AcDbVisualStyle
  2
Facepattern
 70
15
 90
2
 40
0.6
 62
7
290
0
291
1
  0
VISUALSTYLE
  5
62
102
{ACAD_REACTORS
330
16
102
}
330
16
100
AcDbVisualStyle
  2
Flat
 70
0
 90
2
 40
0.6
 62
7
290
0
291
1
  0
VISUALSTYLE
  5
63
102
{ACAD_REACTORS
330
16
102
}
330
16
100
AcDbVisualStyle
  2
FlatWithEdges
 70
1
 90
2
 40
0.6
 62
7
290
0
291
1
  0
VISUALSTYLE
  5
64
102
{ACAD_REACTORS
330
16
102
}
330
16
100
AcDbVisualStyle
  2
Gouraud
 70
2
 90
2
 40
0.6
 62
7
290
0
291
1
  0
VISUALSTYLE
  5
65
102
{ACAD_REACTORS
330
16
102
}
330
16
100
AcDbVisualStyle
  2
GouraudWithEdges
 70
3
 90
2
 40
0.6
 62
7
290
0
291
1
  0
VISUALSTYLE
  5
66
102
{ACAD_REACTORS
330
16
102
}
330
16
100
AcDbVisualStyle
  2
Hidden
 70
6
 90
1
 40
0.6
 62
7
290
0
291
0
  0
VISUALSTYLE
  5
67
102
{ACAD_REACTORS
330
16
102
}
330
16
100
AcDbVisualStyle
  2
JitterOff
 70
20
 90
2
 40
0.6
 62
7
290
0
291
1
  0
VISUALSTYLE
  5
68
102
{ACAD_REACTORS
330
16
102
}
330
16
100
AcDbVisualStyle
  2
Linepattern
 70
14
 90
2
 40
0.6
 62
7
290
0
291
1
  0
VISUALSTYLE
  5
69
102
{ACAD_REACTORS
330
16
102
}
330
16
100
AcDbVisualStyle
  2
Modeling
 70
10
 90
2
 40
0.6
 62
7
290
0
291
0
  0
VISUALSTYLE
  5
6A
102
{ACAD_REACTORS
330
16
102
}
330
16
100
AcDbVisualStyle
  2
OverhangOff
 70
21
 90
2
 40
0.6
 62
7
290
0
291
1
  0
VISUALSTYLE
  5
6B
102
{ACAD_REACTORS
330
16
102
}
330
16
100
AcDbVisualStyle
  2
Realistic
 70
8
 90
2
 40
0.6
 62
7
290
0
291
0
  0
VISUALSTYLE
  5
6C
102
{ACAD_REACTORS
330
16
102
}
330
16
100
AcDbVisualStyle
  2
Shaded
 70
27
 90
2
 40
0.6
 62
7
290
0
291
0
  0
VISUALSTYLE
  5
6D
102
{ACAD_REACTORS
330
16
102
}
330
16
100
AcDbVisualStyle
  2
Shaded with edges
 70
26
 90
2
 40
0.6
 62
7
290
0
291
0
  0
VISUALSTYLE
  5
6E
102
{ACAD_REACTORS
330
16
102
}
330
16
100
AcDbVisualStyle
  2
Shades of Gray
 70
23
 90
2
 40
0.6
 62
7
290
0
291
0
  0
VISUALSTYLE
  5
6F
102
{ACAD_REACTORS
330
16
102
}
330
16
100
AcDbVisualStyle
  2
Sketchy
 70
24
 90
1
 40
0.6
 62
7
290
0
291
0
  0
VISUALSTYLE
  5
70
102
{ACAD_REACTORS
330
16
102
}
330
16
100
AcDbVisualStyle
  2
Thicken
 70
13
 90
2
 40
0.6
 62
7
290
0
291
1
  0
VISUALSTYLE
  5
71
102
{ACAD_REACTORS
330
16
102
}
330
16
100
AcDbVisualStyle
  2
Wireframe
 70
5
 90
0
 40
0.6
 62
7
290
0
291
0
  0
VISUALSTYLE
  5
72
102
{ACAD_REACTORS
330
16
102
}
330
16
100
AcDbVisualStyle
  2
X-Ray
 70
25
 90
2
 40
0.5
 62
7
290
0
291
0
  0
DICTIONARYVAR
  5
AA
330
2D
100
DictionaryVariables
280
0
  1
1.3.0 @ 2026-01-06T17:07:20.500945+00:00
  0
ENDSEC
  0
EOF
