  0
SECTION
  2
HEADER
  9
$ACADVER
  1
AC1021
  9
$ACADMAINTVER
 70
25
  9
$DWGCODEPAGE
  3
ANSI_1252
  9
$LASTSAVEDBY
  1
ezdxf
  9
$INSBASE
 10
0.0
 20
0.0
 30
0.0
  9
$EXTMIN
 10
1e+20
 20
1e+20
 30
1e+20
  9
$EXTMAX
 10
-1e+20
 20
-1e+20
 30
-1e+20
  9
$LIMMIN
 10
0.0
 20
0.0
  9
$LIMMAX
 10
420.0
 20
297.0
  9
$ORTHOMODE
 70
0
  9
$REGENMODE
 70
1
  9
$FILLMODE
 70
1
  9
$QTEXTMODE
 70
0
  9
$MIRRTEXT
 70
1
  9
$LTSCALE
 40
1.0
  9
$ATTMODE
 70
1
  9
$TEXTSIZE
 40
2.5
  9
$TRACEWID
 40
1.0
  9
$TEXTSTYLE
  7
OpenSans
  9
$CLAYER
  8
0
  9
$CELTYPE
  6
ByLayer
  9
$CECOLOR
 62
256
  9
$CELTSCALE
 40
1.0
  9
$DISPSILH
 70
0
  9
$DIMSCALE
 40
1.0
  9
$DIMASZ
 40
0.175
  9
$DIMEXO
 40
0.125
  9
$DIMDLI
 40
3.75
  9
$DIMRND
 40
0.0
  9
$DIMDLE
 40
0.0
  9
$DIMEXE
 40
0.375
  9
$DIMTP
 40
0.0
  9
$DIMTM
 40
0.0
  9
$DIMTXT
 40
0.25
  9
$DIMCEN
 40
2.5
  9
$DIMTSZ
 40
0.0
  9
$DIMTOL
 70
0
  9
$DIMLIM
 70
0
  9
$DIMTIH
 70
0
  9
$DIMTOH
 70
0
  9
$DIMSE1
 70
0
  9
$DIMSE2
 70
0
  9
$DIMTAD
 70
1
  9
$DIMZIN
 70
12
  9
$DIMBLK
  1
ARCHTICK
  9
$DIMASO
 70
1
  9
$DIMSHO
 70
1
  9
$DIMPOST
  1

  9
$DIMAPOST
  1

  9
$DIMALT
 70
0
  9
$DIMALTD
 70
3
  9
$DIMALTF
 40
0.03937007874
  9
$DIMLFAC
 40
100.0
  9
$DIMTOFL
 70
1
  9
$DIMTVP
 40
0.0
  9
$DIMTIX
 70
0
  9
$DIMSOXD
 70
0
  9
$DIMSAH
 70
0
  9
$DIMBLK1
  1

  9
$DIMBLK2
  1

  9
$DIMSTYLE
  2
EZDXF
  9
$DIMCLRD
 70
0
  9
$DIMCLRE
 70
0
  9
$DIMCLRT
 70
0
  9
$DIMTFAC
 40
0.5
  9
$DIMGAP
 40
0.1
  9
$DIMJUST
 70
0
  9
$DIMSD1
 70
0
  9
$DIMSD2
 70
0
  9
$DIMTOLJ
 70
0
  9
$DIMTZIN
 70
8
  9
$DIMALTZ
 70
0
  9
$DIMALTTZ
 70
0
  9
$DIMUPT
 70
1
  9
$DIMDEC
 70
2
  9
$DIMTDEC
 70
2
  9
$DIMALTU
 70
2
  9
$DIMALTTD
 70
3
  9
$DIMTXSTY
  7
OpenSansCondensed-Light
  9
$DIMAUNIT
 70
0
  9
$DIMADEC
 70
2
  9
$DIMALTRND
 40
0.0
  9
$DIMAZIN
 70
3
  9
$DIMDSEP
 70
46
  9
$DIMATFIT
 70
3
  9
$DIMFRAC
 70
0
  9
$DIMLDRBLK
  1

  9
$DIMLUNIT
 70
2
  9
$DIMLWD
 70
-2
  9
$DIMLWE
 70
-2
  9
$DIMTMOVE
 70
2
  9
$DIMFXL
 40
1.0
  9
$DIMFXLON
 70
0
  9
$DIMJOGANG
 40
0.785398163397
  9
$DIMTFILL
 70
0
  9
$DIMTFILLCLR
 70
0
  9
$DIMARCSYM
 70
0
  9
$DIMLTYPE
  6

  9
$DIMLTEX1
  6

  9
$DIMLTEX2
  6

  9
$LUNITS
 70
2
  9
$LUPREC
 70
4
  9
$SKETCHINC
 40
1.0
  9
$FILLETRAD
 40
10.0
  9
$AUNITS
 70
0
  9
$AUPREC
 70
2
  9
$MENU
  1
.
  9
$ELEVATION
 40
0.0
  9
$PELEVATION
 40
0.0
  9
$THICKNESS
 40
0.0
  9
$LIMCHECK
 70
0
  9
$CHAMFERA
 40
0.0
  9
$CHAMFERB
 40
0.0
  9
$CHAMFERC
 40
0.0
  9
$CHAMFERD
 40
0.0
  9
$SKPOLY
 70
0
  9
$TDCREATE
 40
2461048.0883101854
  9
$TDUCREATE
 40
2458532.153996898
  9
$TDUPDATE
 40
2461048.0883217594
  9
$TDUUPDATE
 40
2458532.1544311
  9
$TDINDWG
 40
0.0
  9
$TDUSRTIMER
 40
0.0
  9
$USRTIMER
 70
1
  9
$ANGBASE
 50
0.0
  9
$ANGDIR
 70
0
  9
$PDMODE
 70
0
  9
$PDSIZE
 40
0.0
  9
$PLINEWID
 40
0.0
  9
$SPLFRAME
 70
0
  9
$SPLINETYPE
 70
6
  9
$SPLINESEGS
 70
8
  9
$HANDSEED
  5
BE
  9
$SURFTAB1
 70
6
  9
$SURFTAB2
 70
6
  9
$SURFTYPE
 70
6
  9
$SURFU
 70
6
  9
$SURFV
 70
6
  9
$UCSBASE
  2

  9
$UCSNAME
  2

  9
$UCSORG
 10
0.0
 20
0.0
 30
0.0
  9
$UCSXDIR
 10
1.0
 20
0.0
 30
0.0
  9
$UCSYDIR
 10
0.0
 20
1.0
 30
0.0
  9
$UCSORTHOREF
  2

  9
$UCSORTHOVIEW
 70
0
  9
$UCSORGTOP
 10
0.0
 20
0.0
 30
0.0
  9
$UCSORGBOTTOM
 10
0.0
 20
0.0
 30
0.0
  9
$UCSORGLEFT
 10
0.0
 20
0.0
 30
0.0
  9
$UCSORGRIGHT
 10
0.0
 20
0.0
 30
0.0
  9
$UCSORGFRONT
 10
0.0
 20
0.0
 30
0.0
  9
$UCSORGBACK
 10
0.0
 20
0.0
 30
0.0
  9
$PUCSBASE
  2

  9
$PUCSNAME
  2

  9
$PUCSORG
 10
0.0
 20
0.0
 30
0.0
  9
$PUCSXDIR
 10
1.0
 20
0.0
 30
0.0
  9
$PUCSYDIR
 10
0.0
 20
1.0
 30
0.0
  9
$PUCSORTHOREF
  2

  9
$PUCSORTHOVIEW
 70
0
  9
$PUCSORGTOP
 10
0.0
 20
0.0
 30
0.0
  9
$PUCSORGBOTTOM
 10
0.0
 20
0.0
 30
0.0
  9
$PUCSORGLEFT
 10
0.0
 20
0.0
 30
0.0
  9
$PUCSORGRIGHT
 10
0.0
 20
0.0
 30
0.0
  9
$PUCSORGFRONT
 10
0.0
 20
0.0
 30
0.0
  9
$PUCSORGBACK
 10
0.0
 20
0.0
 30
0.0
  9
$USERI1
 70
0
  9
$USERI2
 70
0
  9
$USERI3
 70
0
  9
$USERI4
 70
0
  9
$USERI5
 70
0
  9
$USERR1
 40
0.0
  9
$USERR2
 40
0.0
  9
$USERR3
 40
0.0
  9
$USERR4
 40
0.0
  9
$USERR5
 40
0.0
  9
$WORLDVIEW
 70
1
  9
$SHADEDGE
 70
3
  9
$SHADEDIF
 70
70
  9
$TILEMODE
 70
1
  9
$MAXACTVP
 70
64
  9
$PINSBASE
 10
0.0
 20
0.0
 30
0.0
  9
$PLIMCHECK
 70
0
  9
$PEXTMIN
 10
1e+20
 20
1e+20
 30
1e+20
  9
$PEXTMAX
 10
-1e+20
 20
-1e+20
 30
-1e+20
  9
$PLIMMIN
 10
0.0
 20
0.0
  9
$PLIMMAX
 10
420.0
 20
297.0
  9
$UNITMODE
 70
0
  9
$VISRETAIN
 70
1
  9
$PLINEGEN
 70
0
  9
$PSLTSCALE
 70
1
  9
$TREEDEPTH
 70
3020
  9
$CMLSTYLE
  2
Standard
  9
$CMLJUST
 70
0
  9
$CMLSCALE
 40
20.0
  9
$PROXYGRAPHICS
 70
1
  9
$MEASUREMENT
 70
1
  9
$CELWEIGHT
370
-1
  9
$ENDCAPS
280
0
  9
$JOINSTYLE
280
0
  9
$LWDISPLAY
290
0
  9
$INSUNITS
 70
6
  9
$HYPERLINKBASE
  1

  9
$STYLESHEET
  1

  9
$XEDIT
290
1
  9
$CEPSNTYPE
380
0
  9
$PSTYLEMODE
290
1
  9
$FINGERPRINTGUID
  2
{C4229115-D9A7-44A5-80AC-E34321A7505A}
  9
$VERSIONGUID
  2
{079C1E50-76CA-484C-8E13-852DB3AEBFD6}
  9
$EXTNAMES
290
1
  9
$PSVPSCALE
 40
0.0
  9
$OLESTARTUP
290
0
  9
$SORTENTS
280
127
  9
$INDEXCTL
280
0
  9
$HIDETEXT
280
1
  9
$XCLIPFRAME
290
1
  9
$HALOGAP
280
0
  9
$OBSCOLOR
 70
257
  9
$OBSLTYPE
280
0
  9
$INTERSECTIONDISPLAY
280
0
  9
$INTERSECTIONCOLOR
 70
257
  9
$DIMASSOC
280
2
  9
$PROJECTNAME
  1

  9
$CAMERADISPLAY
290
0
  9
$LENSLENGTH
 40
50.0
  9
$CAMERAHEIGHT
 40
0.0
  9
$STEPSPERSEC
 40
24.0
  9
$STEPSIZE
 40
100.0
  9
$3DDWFPREC
 40
2.0
  9
$PSOLWIDTH
 40
0.005
  9
$PSOLHEIGHT
 40
0.08
  9
$LOFTANG1
 40
1.570796326795
  9
$LOFTANG2
 40
1.570796326795
  9
$LOFTMAG1
 40
0.0
  9
$LOFTMAG2
 40
0.0
  9
$LOFTPARAM
 70
7
  9
$LOFTNORMALS
280
1
  9
$LATITUDE
 40
37.795
  9
$LONGITUDE
 40
-122.394
  9
$NORTHDIRECTION
 40
0.0
  9
$TIMEZONE
 70
-8000
  9
$LIGHTGLYPHDISPLAY
280
1
  9
$TILEMODELIGHTSYNCH
280
1
  9
$CMATERIAL
347
20
  9
$SOLIDHIST
280
0
  9
$SHOWHIST
280
1
  9
$DWFFRAME
280
2
  9
$DGNFRAME
280
2
  9
$REALWORLDSCALE
290
1
  9
$INTERFERECOLOR
 62
256
  9
$CSHADOW
280
0
  9
$SHADOWPLANELOCATION
 40
0.0
  0
ENDSEC
  0
SECTION
  2
CLASSES
  0
CLASS
  1
ACDBDICTIONARYWDFLT
  2
AcDbDictionaryWithDefault
  3
ObjectDBX Classes
 90
0
 91
0
280
0
281
0
  0
CLASS
  1
SUN
  2
AcDbSun
  3
SCENEOE
 90
1153
 91
0
280
0
281
0
  0
CLASS
  1
VISUALSTYLE
  2
AcDbVisualStyle
  3
ObjectDBX Classes
 90
4095
 91
0
280
0
281
0
  0
CLASS
  1
MATERIAL
  2
AcDbMaterial
  3
ObjectDBX Classes
 90
1153
 91
0
280
0
281
0
  0
CLASS
  1
SCALE
  2
AcDbScale
  3
ObjectDBX Classes
 90
1153
 91
0
280
0
281
0
  0
CLASS
  1
TABLESTYLE
  2
AcDbTableStyle
  3
ObjectDBX Classes
 90
4095
 91
0
280
0
281
0
  0
CLASS
  1
MLEADERSTYLE
  2
AcDbMLeaderStyle
  3
ACDB_MLEADERSTYLE_CLASS
 90
4095
 91
0
280
0
281
0
  0
CLASS
  1
DICTIONARYVAR
  2
AcDbDictionaryVar
  3
ObjectDBX Classes
 90
0
 91
0
280
0
281
0
  0
CLASS
  1
CELLSTYLEMAP
  2
AcDbCellStyleMap
  3
ObjectDBX Classes
 90
1152
 91
0
280
0
281
0
  0
CLASS
  1
MENTALRAYRENDERSETTINGS
  2
AcDbMentalRayRenderSettings
  3
SCENEOE
 90
1024
 91
0
280
0
281
0
  0
CLASS
  1
ACDBDETAILVIEWSTYLE
  2
AcDbDetailViewStyle
  3
ObjectDBX Classes
 90
1025
 91
0
280
0
281
0
  0
CLASS
  1
ACDBSECTIONVIEWSTYLE
  2
AcDbSectionViewStyle
  3
ObjectDBX Classes
 90
1025
 91
0
280
0
281
0
  0
CLASS
  1
RASTERVARIABLES
  2
AcDbRasterVariables
  3
ISM
 90
0
 91
0
280
0
281
0
  0
CLASS
  1
ACDBPLACEHOLDER
  2
AcDbPlaceHolder
  3
ObjectDBX Classes
 90
0
 91
0
280
0
281
0
  0
CLASS
  1
LAYOUT
  2
AcDbLayout
  3
ObjectDBX Classes
 90
0
 91
0
280
0
281
0
  0
ENDSEC
  0
SECTION
  2
TABLES
  0
TABLE
  2
VPORT
  5
8
330
0
100
AcDbSymbolTable
 70
1
  0
VPORT
  5
23
330
8
100
AcDbSymbolTableRecord
100
AcDbViewportTableRecord
  2
*Active
 70
0
 10
0.0
 20
0.0
 11
1.0
 21
1.0
 12
0.0
 22
0.0
 13
0.0
 23
0.0
 14
0.5
 24
0.5
 15
0.5
 25
0.5
 16
0.0
 26
0.0
 36
1.0
 17
0.0
 27
0.0
 37
0.0
 40
1000.0
 41
1.34
 42
50.0
 43
0.0
 44
0.0
 50
0.0
 51
0.0
 71
0
 72
1000
 73
1
 74
3
 75
0
 76
0
 77
0
 78
0
281
0
 65
0
146
0.0
  0
ENDTAB
  0
TABLE
  2
LTYPE
  5
2
330
0
100
AcDbSymbolTable
 70
21
  0
LTYPE
  5
24
330
2
100
AcDbSymbolTableRecord
100
AcDbLinetypeTableRecord
  2
ByBlock
 70
0
  3

 72
65
 73
0
 40
0.0
  0
LTYPE
  5
25
330
2
100
AcDbSymbolTableRecord
100
AcDbLinetypeTableRecord
  2
ByLayer
 70
0
  3

 72
65
 73
0
 40
0.0
  0
LTYPE
  5
26
330
2
100
AcDbSymbolTableRecord
100
AcDbLinetypeTableRecord
  2
Continuous
 70
0
  3

 72
65
 73
0
 40
0.0
  0
LTYPE
  5
2F
330
2
100
AcDbSymbolTableRecord
100
AcDbLinetypeTableRecord
  2
CENTER
 70
0
  3
Center ____ _ ____ _ ____ _ ____ _ ____ _ ____
 72
65
 73
4
 40
5.08
 49
3.175
 74
0
 49
-0.635
 74
0
 49
0.635
 74
0
 49
-0.635
 74
0
  0
LTYPE
  5
30
330
2
100
AcDbSymbolTableRecord
100
AcDbLinetypeTableRecord
  2
CENTERX2
 70
0
  3
Center (2x) ________  __  ________  __  ________
 72
65
 73
4
 40
8.89
 49
6.35
 74
0
 49
-0.635
 74
0
 49
1.27
 74
0
 49
-0.635
 74
0
  0
LTYPE
  5
31
330
2
100
AcDbSymbolTableRecord
100
AcDbLinetypeTableRecord
  2
CENTER2
 70
0
  3
Center (.5x) ____ _ ____ _ ____ _ ____ _ ____
 72
65
 73
4
 40
2.54
 49
1.587
 74
0
 49
-0.318
 74
0
 49
0.318
 74
0
 49
-0.318
 74
0
  0
LTYPE
  5
32
330
2
100
AcDbSymbolTableRecord
100
AcDbLinetypeTableRecord
  2
DASHED
 70
0
  3
Dashed __ __ __ __ __ __ __ __ __ __ __ __ __ _
 72
65
 73
2
 40
1.524
 49
1.27
 74
0
 49
-0.254
 74
0
  0
LTYPE
  5
33
330
2
100
AcDbSymbolTableRecord
100
AcDbLinetypeTableRecord
  2
DASHEDX2
 70
0
  3
Dashed (2x) ____  ____  ____  ____  ____  ____
 72
65
 73
2
 40
3.048
 49
2.54
 74
0
 49
-0.508
 74
0
  0
LTYPE
  5
34
330
2
100
AcDbSymbolTableRecord
100
AcDbLinetypeTableRecord
  2
DASHED2
 70
0
  3
Dashed (.5x) _ _ _ _ _ _ _ _ _ _ _ _ _ _
 72
65
 73
2
 40
0.762
 49
0.635
 74
0
 49
-0.127
 74
0
  0
LTYPE
  5
35
330
2
100
AcDbSymbolTableRecord
100
AcDbLinetypeTableRecord
  2
PHANTOM
 70
0
  3
Phantom ______  __  __  ______  __  __  ______
 72
65
 73
6
 40
6.35
 49
3.175
 74
0
 49
-0.635
 74
0
 49
0.635
 74
0
 49
-0.635
 74
0
 49
0.635
 74
0
 49
-0.635
 74
0
  0
LTYPE
  5
36
330
2
100
AcDbSymbolTableRecord
100
AcDbLinetypeTableRecord
  2
PHANTOMX2
 70
0
  3
Phantom (2x)____________    ____    ____    ____________
 72
65
 73
6
 40
10.795
 49
6.35
 74
0
 49
-0.635
 74
0
 49
1.27
 74
0
 49
-0.635
 74
0
 49
1.27
 74
0
 49
-0.635
 74
0
  0
LTYPE
  5
37
330
2
100
AcDbSymbolTableRecord
100
AcDbLinetypeTableRecord
  2
PHANTOM2
 70
0
  3
Phantom (.5x) ___ _ _ ___ _ _ ___ _ _ ___ _ _ ___
 72
65
 73
6
 40
3.175
 49
1.587
 74
0
 49
-0.318
 74
0
 49
0.318
 74
0
 49
-0.318
 74
0
 49
0.318
 74
0
 49
-0.318
 74
0
  0
LTYPE
  5
38
330
2
100
AcDbSymbolTableRecord
100
AcDbLinetypeTableRecord
  2
DASHDOT
 70
0
  3
Dash dot __ . __ . __ . __ . __ . __ . __ . __
 72
65
 73
4
 40
3.556
 49
2.54
 74
0
 49
-0.508
 74
0
 49
0.0
 74
0
 49
-0.508
 74
0
  0
LTYPE
  5
39
330
2
100
AcDbSymbolTableRecord
100
AcDbLinetypeTableRecord
  2
DASHDOTX2
 70
0
  3
Dash dot (2x) ____  .  ____  .  ____  .  ____
 72
65
 73
4
 40
6.096
 49
5.08
 74
0
 49
-0.508
 74
0
 49
0.0
 74
0
 49
-0.508
 74
0
  0
LTYPE
  5
3A
330
2
100
AcDbSymbolTableRecord
100
AcDbLinetypeTableRecord
  2
DASHDOT2
 70
0
  3
Dash dot (.5x) _ . _ . _ . _ . _ . _ . _ . _
 72
65
 73
4
 40
1.778
 49
1.27
 74
0
 49
-0.254
 74
0
 49
0.0
 74
0
 49
-0.254
 74
0
  0
LTYPE
  5
3B
330
2
100
AcDbSymbolTableRecord
100
AcDbLinetypeTableRecord
  2
DOT
 70
0
  3
Dot .  .  .  .  .  .  .  .  .  .  .  .  .  .  .  .
 72
65
 73
2
 40
0.508
 49
0.0
 74
0
 49
-0.508
 74
0
  0
LTYPE
  5
3C
330
2
100
AcDbSymbolTableRecord
100
AcDbLinetypeTableRecord
  2
DOTX2
 70
0
  3
Dot (2x) .    .    .    .    .    .    .    . 
 72
65
 73
2
 40
1.016
 49
0.0
 74
0
 49
-1.016
 74
0
  0
LTYPE
  5
3D
330
2
100
AcDbSymbolTableRecord
100
AcDbLinetypeTableRecord
  2
DOT2
 70
0
  3
Dot (.5) . . . . . . . . . . . . . . . . . . . 
 72
65
 73
2
 40
0.254
 49
0.0
 74
0
 49
-0.254
 74
0
  0
LTYPE
  5
3E
330
2
100
AcDbSymbolTableRecord
100
AcDbLinetypeTableRecord
  2
DIVIDE
 70
0
  3
Divide __ . . __ . . __ . . __ . . __ . . __
 72
65
 73
6
 40
4.064
 49
2.54
 74
0
 49
-0.508
 74
0
 49
0.0
 74
0
 49
-0.508
 74
0
 49
0.0
 74
0
 49
-0.508
 74
0
  0
LTYPE
  5
3F
330
2
100
AcDbSymbolTableRecord
100
AcDbLinetypeTableRecord
  2
DIVIDEX2
 70
0
  3
Divide (2x) ____  . .  ____  . .  ____  . .  ____
 72
65
 73
6
 40
6.604
 49
5.08
 74
0
 49
-0.508
 74
0
 49
0.0
 74
0
 49
-0.508
 74
0
 49
0.0
 74
0
 49
-0.508
 74
0
  0
LTYPE
  5
40
330
2
100
AcDbSymbolTableRecord
100
AcDbLinetypeTableRecord
  2
DIVIDE2
 70
0
  3
Divide(.5x) _ . _ . _ . _ . _ . _ . _ . _
 72
65
 73
6
 40
2.032
 49
1.27
 74
0
 49
-0.254
 74
0
 49
0.0
 74
0
 49
-0.254
 74
0
 49
0.0
 74
0
 49
-0.254
 74
0
  0
ENDTAB
  0
TABLE
  2
LAYER
  5
1
330
0
100
AcDbSymbolTable
 70
5
  0
LAYER
  5
27
330
1
100
AcDbSymbolTableRecord
100
AcDbLayerTableRecord
  2
0
 70
0
 62
7
  6
Continuous
370
-3
390
13
347
21
  0
LAYER
  5
28
330
1
100
AcDbSymbolTableRecord
100
AcDbLayerTableRecord
  2
Defpoints
 70
0
 62
7
  6
Continuous
290
0
370
-3
390
13
347
21
  0
LAYER
  5
8A
330
1
100
AcDbSymbolTableRecord
100
AcDbLayerTableRecord
  2
Layer
 70
0
 62
1
  6
Continuous
370
50
390
13
347
21
  0
LAYER
  5
8B
330
1
100
AcDbSymbolTableRecord
100
AcDbLayerTableRecord
  2
NumLabel
 70
0
 62
1
  6
Continuous
370
15
390
13
347
21
  0
LAYER
  5
BC
330
1
100
AcDbSymbolTableRecord
100
AcDbLayerTableRecord
  2
SplitMark
 70
0
 62
3
  6
Continuous
370
-3
390
13
347
21
  0
ENDTAB
  0
TABLE
  2
STYLE
  5
5
330
0
100
AcDbSymbolTable
 70
26
  0
STYLE
  5
29
330
5
100
AcDbSymbolTableRecord
100
AcDbTextStyleTableRecord
  2
Standard
 70
0
 40
0.0
 41
1.0
 50
0.0
 71
0
 42
2.5
  3
txt
  4

  0
STYLE
  5
41
330
5
100
AcDbSymbolTableRecord
100
AcDbTextStyleTableRecord
  2
OpenSans-Light
 70
0
 40
0.0
 41
1.0
 50
0.0
 71
0
 42
2.5
  3
OpenSans-Light.ttf
  4

  0
STYLE
  5
42
330
5
100
AcDbSymbolTableRecord
100
AcDbTextStyleTableRecord
  2
OpenSans-Light-Italic
 70
0
 40
0.0
 41
1.0
 50
0.0
 71
0
 42
2.5
  3
OpenSans-LightItalic.ttf
  4

  0
STYLE
  5
43
330
5
100
AcDbSymbolTableRecord
100
AcDbTextStyleTableRecord
  2
OpenSans
 70
0
 40
0.0
 41
1.0
 50
0.0
 71
0
 42
2.5
  3
OpenSans-Regular.ttf
  4

  0
STYLE
  5
44
330
5
100
AcDbSymbolTableRecord
100
AcDbTextStyleTableRecord
  2
OpenSans-Italic
 70
0
 40
0.0
 41
1.0
 50
0.0
 71
0
 42
2.5
  3
OpenSans-Italic.ttf
  4

  0
STYLE
  5
45
330
5
100
AcDbSymbolTableRecord
100
AcDbTextStyleTableRecord
  2
OpenSans-SemiBold
 70
0
 40
0.0
 41
1.0
 50
0.0
 71
0
 42
2.5
  3
OpenSans-SemiBold.ttf
  4

  0
STYLE
  5
46
330
5
100
AcDbSymbolTableRecord
100
AcDbTextStyleTableRecord
  2
OpenSans-SemiBoldItalic
 70
0
 40
0.0
 41
1.0
 50
0.0
 71
0
 42
2.5
  3
OpenSans-SemiBoldItalic.ttf
  4

  0
STYLE
  5
47
330
5
100
AcDbSymbolTableRecord
100
AcDbTextStyleTableRecord
  2
OpenSans-Bold
 70
0
 40
0.0
 41
1.0
 50
0.0
 71
0
 42
2.5
  3
OpenSans-Bold.ttf
  4

  0
STYLE
  5
48
330
5
100
AcDbSymbolTableRecord
100
AcDbTextStyleTableRecord
  2
OpenSans-BoldItalic
 70
0
 40
0.0
 41
1.0
 50
0.0
 71
0
 42
2.5
  3
OpenSans-BoldItalic.ttf
  4

  0
STYLE
  5
49
330
5
100
AcDbSymbolTableRecord
100
AcDbTextStyleTableRecord
  2
OpenSans-ExtraBold
 70
0
 40
0.0
 41
1.0
 50
0.0
 71
0
 42
2.5
  3
OpenSans-ExtraBold.ttf
  4

  0
STYLE
  5
4A
330
5
100
AcDbSymbolTableRecord
100
AcDbTextStyleTableRecord
  2
OpenSans-ExtraBoldItalic
 70
0
 40
0.0
 41
1.0
 50
0.0
 71
0
 42
2.5
  3
OpenSans-ExtraBoldItalic.ttf
  4

  0
STYLE
  5
4B
330
5
100
AcDbSymbolTableRecord
100
AcDbTextStyleTableRecord
  2
OpenSansCondensed-Bold
 70
0
 40
0.0
 41
1.0
 50
0.0
 71
0
 42
2.5
  3
OpenSansCondensed-Bold.ttf
  4

  0
STYLE
  5
4C
330
5
100
AcDbSymbolTableRecord
100
AcDbTextStyleTableRecord
  2
OpenSansCondensed-Light
 70
0
 40
0.0
 41
1.0
 50
0.0
 71
0
 42
2.5
  3
OpenSansCondensed-Light.ttf
  4

  0
STYLE
  5
4D
330
5
100
AcDbSymbolTableRecord
100
AcDbTextStyleTableRecord
  2
OpenSansCondensed-Italic
 70
0
 40
0.0
 41
1.0
 50
0.0
 71
0
 42
2.5
  3
OpenSansCondensed-LightItalic.ttf
  4

  0
STYLE
  5
4E
330
5
100
AcDbSymbolTableRecord
100
AcDbTextStyleTableRecord
  2
LiberationSans
 70
0
 40
0.0
 41
1.0
 50
0.0
 71
0
 42
2.5
  3
LiberationSans-Regular.ttf
  4

  0
STYLE
  5
4F
330
5
100
AcDbSymbolTableRecord
100
AcDbTextStyleTableRecord
  2
LiberationSans-Bold
 70
0
 40
0.0
 41
1.0
 50
0.0
 71
0
 42
2.5
  3
LiberationSans-Bold.ttf
  4

  0
STYLE
  5
50
330
5
100
AcDbSymbolTableRecord
100
AcDbTextStyleTableRecord
  2
LiberationSans-BoldItalic
 70
0
 40
0.0
 41
1.0
 50
0.0
 71
0
 42
2.5
  3
LiberationSans-BoldItalic.ttf
  4

  0
STYLE
  5
51
330
5
100
AcDbSymbolTableRecord
100
AcDbTextStyleTableRecord
  2
LiberationSans-Italic
 70
0
 40
0.0
 41
1.0
 50
0.0
 71
0
 42
2.5
  3
LiberationSans-Italic.ttf
  4

  0
STYLE
  5
52
330
5
100
AcDbSymbolTableRecord
100
AcDbTextStyleTableRecord
  2
LiberationSerif
 70
0
 40
0.0
 41
1.0
 50
0.0
 71
0
 42
2.5
  3
LiberationSerif-Regular.ttf
  4

  0
STYLE
  5
53
330
5
100
AcDbSymbolTableRecord
100
AcDbTextStyleTableRecord
  2
LiberationSerif-Bold
 70
0
 40
0.0
 41
1.0
 50
0.0
 71
0
 42
2.5
  3
LiberationSerif-Bold.ttf
  4

  0
STYLE
  5
54
330
5
100
AcDbSymbolTableRecord
100
AcDbTextStyleTableRecord
  2
LiberationSerif-BoldItalic
 70
0
 40
0.0
 41
1.0
 50
0.0
 71
0
 42
2.5
  3
LiberationSerif-BoldItalic.ttf
  4

  0
STYLE
  5
55
330
5
100
AcDbSymbolTableRecord
100
AcDbTextStyleTableRecord
  2
LiberationSerif-Italic
 70
0
 40
0.0
 41
1.0
 50
0.0
 71
0
 42
2.5
  3
LiberationSerif-Italic.ttf
  4

  0
STYLE
  5
56
330
5
100
AcDbSymbolTableRecord
100
AcDbTextStyleTableRecord
  2
LiberationMono
 70
0
 40
0.0
 41
1.0
 50
0.0
 71
0
 42
2.5
  3
LiberationMono-Regular.ttf
  4

  0
STYLE
  5
57
330
5
100
AcDbSymbolTableRecord
100
AcDbTextStyleTableRecord
  2
LiberationMono-Bold
 70
0
 40
0.0
 41
1.0
 50
0.0
 71
0
 42
2.5
  3
LiberationMono-Bold.ttf
  4

  0
STYLE
  5
58
330
5
100
AcDbSymbolTableRecord
100
AcDbTextStyleTableRecord
  2
LiberationMono-BoldItalic
 70
0
 40
0.0
 41
1.0
 50
0.0
 71
0
 42
2.5
  3
LiberationMono-BoldItalic.ttf
  4

  0
STYLE
  5
59
330
5
100
AcDbSymbolTableRecord
100
AcDbTextStyleTableRecord
  2
LiberationMono-Italic
 70
0
 40
0.0
 41
1.0
 50
0.0
 71
0
 42
2.5
  3
LiberationMono-Italic.ttf
  4

  0
ENDTAB
  0
TABLE
  2
VIEW
  5
7
330
0
100
AcDbSymbolTable
 70
0
  0
ENDTAB
  0
TABLE
  2
UCS
  5
6
330
0
100
AcDbSymbolTable
 70
0
  0
ENDTAB
  0
TABLE
  2
APPID
  5
3
330
0
100
AcDbSymbolTable
 70
3
  0
APPID
  5
2A
330
3
100
AcDbSymbolTableRecord
100
AcDbRegAppTableRecord
  2
ACAD
 70
0
  0
APPID
  5
B9
330
3
100
AcDbSymbolTableRecord
100
AcDbRegAppTableRecord
  2
HATCHBACKGROUNDCOLOR
 70
0
  0
APPID
  5
BA
330
3
100
AcDbSymbolTableRecord
100
AcDbRegAppTableRecord
  2
EZDXF
 70
0
  0
ENDTAB
  0
TABLE
  2
DIMSTYLE
  5
4
330
0
100
AcDbSymbolTable
 70
12
100
AcDbDimStyleTable
  0
DIMSTYLE
105
2B
330
4
100
AcDbSymbolTableRecord
100
AcDbDimStyleTableRecord
  2
Standard
 70
0
 40
1.0
 41
2.5
 42
0.625
 43
3.75
 44
1.25
 45
0.0
 46
0.0
 47
0.0
 48
0.0
 49
2.5
140
2.5
141
2.5
142
0.0
143
0.03937007874
144
1.0
145
0.0
146
1.0
147
0.625
148
0.0
 69
0
 70
0
 71
0
 72
0
 73
0
 74
0
 75
0
 76
0
 77
1
 78
8
 79
3
170
0
171
3
172
1
173
0
174
0
175
0
176
0
177
0
178
0
179
2
271
2
272
2
273
2
274
3
275
0
276
0
277
2
278
44
279
0
280
0
281
0
282
0
283
0
284
8
285
0
286
0
288
0
289
3
290
0
371
-2
372
-2
  0
DIMSTYLE
105
73
330
4
100
AcDbSymbolTableRecord
100
AcDbDimStyleTableRecord
  2
EZDXF
 70
0
 40
1.0
 41
0.175
 42
0.125
 43
3.75
 44
0.375
 45
0.0
 46
0.0
 47
0.0
 48
0.0
 49
2.5
140
0.25
141
2.5
142
0.0
143
0.03937007874
144
100.0
145
0.0
146
0.5
147
0.1
148
0.0
 69
0
 70
0
 71
0
 72
0
 73
0
 74
0
 75
0
 76
0
 77
1
 78
12
 79
3
170
0
171
3
172
1
173
0
174
0
175
0
176
0
177
0
178
0
179
2
271
2
272
2
273
2
274
3
275
0
276
0
277
2
278
46
279
2
280
0
281
0
282
0
283
0
284
8
285
0
286
0
288
1
289
3
290
0
340
4C
342
74
371
-2
372
-2
  0
DIMSTYLE
105
7C
330
4
100
AcDbSymbolTableRecord
100
AcDbDimStyleTableRecord
  2
EZ_M_100_H25_CM
 70
0
 40
1.0
 41
0.25
 42
0.125
 43
3.75
 44
0.375
 45
0.0
 46
0.0
 47
0.0
 48
0.0
 49
2.5
140
0.25
141
2.5
142
0.125
143
0.03937007874
144
100.0
145
0.0
146
0.5
147
0.1
148
0.0
 69
0
 70
0
 71
0
 72
0
 73
0
 74
0
 75
0
 76
0
 77
1
 78
12
 79
3
170
0
171
3
172
1
173
0
174
0
175
0
176
0
177
0
178
0
179
2
271
2
272
2
273
2
274
3
275
0
276
0
277
2
278
46
279
2
280
0
281
0
282
0
283
0
284
8
285
0
286
0
288
1
289
3
290
0
340
4C
371
-2
372
-2
  0
DIMSTYLE
105
7D
330
4
100
AcDbSymbolTableRecord
100
AcDbDimStyleTableRecord
  2
EZ_M_50_H25_CM
 70
0
 40
1.0
 41
0.125
 42
0.0625
 43
3.75
 44
0.1875
 45
0.0
 46
0.0
 47
0.0
 48
0.0
 49
2.5
140
0.125
141
2.5
142
0.0625
143
0.03937007874
144
100.0
145
0.0
146
0.5
147
0.05
148
0.0
 69
0
 70
0
 71
0
 72
0
 73
0
 74
0
 75
0
 76
0
 77
1
 78
12
 79
3
170
0
171
3
172
1
173
0
174
0
175
0
176
0
177
0
178
0
179
2
271
2
272
2
273
2
274
3
275
0
276
0
277
2
278
46
279
2
280
0
281
0
282
0
283
0
284
8
285
0
286
0
288
1
289
3
290
0
340
4C
371
-2
372
-2
  0
DIMSTYLE
105
7E
330
4
100
AcDbSymbolTableRecord
100
AcDbDimStyleTableRecord
  2
EZ_M_25_H25_CM
 70
0
 40
1.0
 41
0.0625
 42
0.03125
 43
3.75
 44
0.09375
 45
0.0
 46
0.0
 47
0.0
 48
0.0
 49
2.5
140
0.0625
141
2.5
142
0.03125
143
0.03937007874
144
100.0
145
0.0
146
0.5
147
0.025
148
0.0
 69
0
 70
0
 71
0
 72
0
 73
0
 74
0
 75
0
 76
0
 77
1
 78
12
 79
3
170
0
171
3
172
1
173
0
174
0
175
0
176
0
177
0
178
0
179
2
271
2
272
2
273
2
274
3
275
0
276
0
277
2
278
46
279
2
280
0
281
0
282
0
283
0
284
8
285
0
286
0
288
1
289
3
290
0
340
4C
371
-2
372
-2
  0
DIMSTYLE
105
7F
330
4
100
AcDbSymbolTableRecord
100
AcDbDimStyleTableRecord
  2
EZ_M_20_H25_CM
 70
0
 40
1.0
 41
0.05
 42
0.025
 43
3.75
 44
0.07500000000000001
 45
0.0
 46
0.0
 47
0.0
 48
0.0
 49
2.5
140
0.05
141
2.5
142
0.025
143
0.03937007874
144
100.0
145
0.0
146
0.5
147
0.020000000000000004
148
0.0
 69
0
 70
0
 71
0
 72
0
 73
0
 74
0
 75
0
 76
0
 77
1
 78
12
 79
3
170
0
171
3
172
1
173
0
174
0
175
0
176
0
177
0
178
0
179
2
271
2
272
2
273
2
274
3
275
0
276
0
277
2
278
46
279
2
280
0
281
0
282
0
283
0
284
8
285
0
286
0
288
1
289
3
290
0
340
4C
371
-2
372
-2
  0
DIMSTYLE
105
80
330
4
100
AcDbSymbolTableRecord
100
AcDbDimStyleTableRecord
  2
EZ_M_10_H25_CM
 70
0
 40
1.0
 41
0.025
 42
0.0125
 43
3.75
 44
0.037500000000000006
 45
0.0
 46
0.0
 47
0.0
 48
0.0
 49
2.5
140
0.025
141
2.5
142
0.0125
143
0.03937007874
144
100.0
145
0.0
146
0.5
147
0.010000000000000002
148
0.0
 69
0
 70
0
 71
0
 72
0
 73
0
 74
0
 75
0
 76
0
 77
1
 78
12
 79
3
170
0
171
3
172
1
173
0
174
0
175
0
176
0
177
0
178
0
179
2
271
2
272
2
273
2
274
3
275
0
276
0
277
2
278
46
279
2
280
0
281
0
282
0
283
0
284
8
285
0
286
0
288
1
289
3
290
0
340
4C
371
-2
372
-2
  0
DIMSTYLE
105
81
330
4
100
AcDbSymbolTableRecord
100
AcDbDimStyleTableRecord
  2
EZ_M_5_H25_CM
 70
0
 40
1.0
 41
0.0125
 42
0.00625
 43
3.75
 44
0.018750000000000003
 45
0.0
 46
0.0
 47
0.0
 48
0.0
 49
2.5
140
0.0125
141
2.5
142
0.00625
143
0.03937007874
144
100.0
145
0.0
146
0.5
147
0.005000000000000001
148
0.0
 69
0
 70
0
 71
0
 72
0
 73
0
 74
0
 75
0
 76
0
 77
1
 78
12
 79
3
170
0
171
3
172
1
173
0
174
0
175
0
176
0
177
0
178
0
179
2
271
2
272
2
273
2
274
3
275
0
276
0
277
2
278
46
279
2
280
0
281
0
282
0
283
0
284
8
285
0
286
0
288
1
289
3
290
0
340
4C
371
-2
372
-2
  0
DIMSTYLE
105
82
330
4
100
AcDbSymbolTableRecord
100
AcDbDimStyleTableRecord
  2
EZ_M_1_H25_CM
 70
0
 40
1.0
 41
0.0025
 42
0.00125
 43
3.75
 44
0.00375
 45
0.0
 46
0.0
 47
0.0
 48
0.0
 49
2.5
140
0.0025
141
2.5
142
0.00125
143
0.03937007874
144
100.0
145
0.0
146
0.5
147
0.001
148
0.0
 69
0
 70
0
 71
0
 72
0
 73
0
 74
0
 75
0
 76
0
 77
1
 78
12
 79
3
170
0
171
3
172
1
173
0
174
0
175
0
176
0
177
0
178
0
179
2
271
2
272
2
273
2
274
3
275
0
276
0
277
2
278
46
279
2
280
0
281
0
282
0
283
0
284
8
285
0
286
0
288
1
289
3
290
0
340
4C
371
-2
372
-2
  0
DIMSTYLE
105
83
330
4
100
AcDbSymbolTableRecord
100
AcDbDimStyleTableRecord
  2
EZ_RADIUS
 70
0
 40
1.0
 41
0.25
 42
0.125
 43
3.75
 44
0.375
 45
0.0
 46
0.0
 47
0.0
 48
0.0
 49
2.5
140
0.25
141
0.0
142
0.0
143
0.03937007874
144
100.0
145
0.0
146
0.5
147
0.1
148
0.0
 69
0
 70
0
 71
0
 72
0
 73
0
 74
0
 75
0
 76
0
 77
1
 78
12
 79
3
170
0
171
3
172
0
173
0
174
0
175
0
176
0
177
0
178
0
179
2
271
2
272
2
273
2
274
3
275
0
276
0
277
2
278
46
279
1
280
0
281
0
282
0
283
0
284
8
285
0
286
0
288
1
289
3
290
0
340
4C
342
84
371
-2
372
-2
  0
DIMSTYLE
105
88
330
4
100
AcDbSymbolTableRecord
100
AcDbDimStyleTableRecord
  2
EZ_RADIUS_INSIDE
 70
0
 40
1.0
 41
0.25
 42
0.125
 43
3.75
 44
0.375
 45
0.0
 46
0.0
 47
0.0
 48
0.0
 49
2.5
140
0.25
141
0.0
142
0.0
143
0.03937007874
144
100.0
145
0.0
146
0.5
147
0.1
148
0.0
 69
0
 70
0
 71
0
 72
0
 73
0
 74
0
 75
0
 76
0
 77
0
 78
12
 79
3
170
0
171
3
172
0
173
0
174
1
175
0
176
0
177
0
178
0
179
2
271
2
272
2
273
2
274
3
275
0
276
0
277
2
278
46
279
0
280
0
281
0
282
0
283
0
284
8
285
0
286
0
288
1
289
0
290
0
340
4C
342
84
371
-2
372
-2
  0
DIMSTYLE
105
89
330
4
100
AcDbSymbolTableRecord
100
AcDbDimStyleTableRecord
  2
EZ_CURVED
 70
0
 40
1.0
 41
0.25
 42
0.125
 43
3.75
 44
0.375
 45
0.0
 46
0.0
 47
0.0
 48
0.0
 49
2.5
140
0.25
141
2.5
142
0.0
143
0.03937007874
144
100.0
145
0.0
146
0.5
147
0.1
148
0.0
 69
0
 70
0
 71
0
 72
0
 73
0
 74
0
 75
0
 76
0
 77
1
 78
12
 79
2
 90
2
170
0
171
3
172
1
173
0
174
0
175
0
176
0
177
0
178
0
179
2
271
2
272
2
273
2
274
3
275
0
276
0
277
2
278
46
279
2
280
0
281
0
282
0
283
0
284
8
285
0
286
0
288
1
289
3
290
0
340
4C
371
-2
372
-2
  0
ENDTAB
  0
TABLE
  2
BLOCK_RECORD
  5
9
330
0
100
AcDbSymbolTable
 70
5
  0
BLOCK_RECORD
  5
17
330
9
100
AcDbSymbolTableRecord
100
AcDbBlockTableRecord
  2
*Model_Space
340
1A
 70
0
280
1
281
0
  0
BLOCK_RECORD
  5
1B
330
9
100
AcDbSymbolTableRecord
100
AcDbBlockTableRecord
  2
*Paper_Space
340
1E
 70
0
280
1
281
0
  0
BLOCK_RECORD
  5
74
330
9
100
AcDbSymbolTableRecord
100
AcDbBlockTableRecord
  2
_ARCHTICK
340
0
 70
0
280
1
281
0
  0
BLOCK_RECORD
  5
78
330
9
100
AcDbSymbolTableRecord
100
AcDbBlockTableRecord
  2
_CLOSEDFILLED
340
0
 70
0
280
1
281
0
  0
BLOCK_RECORD
  5
84
330
9
100
AcDbSymbolTableRecord
100
AcDbBlockTableRecord
  2
_CLOSEDBLANK
340
0
 70
0
280
1
281
0
  0
ENDTAB
  0
ENDSEC
  0
SECTION
  2
BLOCKS
  0
BLOCK
  5
18
330
17
100
AcDbEntity
  8
0
100
AcDbBlockBegin
  2
*Model_Space
 70
0
 10
0.0
 20
0.0
 30
0.0
  3
*Model_Space
  1

  0
ENDBLK
  5
19
330
17
100
AcDbEntity
  8
0
100
AcDbBlockEnd
  0
BLOCK
  5
1C
330
1B
100
AcDbEntity
  8
0
100
AcDbBlockBegin
  2
*Paper_Space
 70
0
 10
0.0
 20
0.0
 30
0.0
  3
*Paper_Space
  1

  0
ENDBLK
  5
1D
330
1B
100
AcDbEntity
  8
0
100
AcDbBlockEnd
  0
BLOCK
  5
75
330
74
100
AcDbEntity
  8
0
100
AcDbBlockBegin
  2
_ARCHTICK
 70
0
 10
0.0
 20
0.0
 30
0.0
  3
_ARCHTICK
  1

  0
LWPOLYLINE
  5
77
330
74
100
AcDbEntity
  8
0
  6
BYBLOCK
 62
0
100
AcDbPolyline
 90
2
 70
0
 43
0.15
 10
-0.5
 20
-0.5
 10
0.5
 20
0.5
  0
ENDBLK
  5
76
330
74
100
AcDbEntity
  8
0
100
AcDbBlockEnd
  0
BLOCK
  5
79
330
78
100
AcDbEntity
  8
0
100
AcDbBlockBegin
  2
_CLOSEDFILLED
 70
0
 10
0.0
 20
0.0
 30
0.0
  3
_CLOSEDFILLED
  1

  0
SOLID
  5
7B
330
78
100
AcDbEntity
  8
0
  6
BYBLOCK
 62
0
100
AcDbTrace
 10
-1.0
 20
0.16439898372402537
 30
0.0
 11
0.0
 21
0.0
 31
0.0
 12
-1.0
 22
-0.16439898372402537
 32
0.0
 13
-1.0
 23
-0.16439898372402537
 33
0.0
  0
ENDBLK
  5
7A
330
78
100
AcDbEntity
  8
0
100
AcDbBlockEnd
  0
BLOCK
  5
85
330
84
100
AcDbEntity
  8
0
100
AcDbBlockBegin
  2
_CLOSEDBLANK
 70
0
 10
0.0
 20
0.0
 30
0.0
  3
_CLOSEDBLANK
  1

  0
LWPOLYLINE
  5
87
330
84
100
AcDbEntity
  8
0
  6
BYBLOCK
 62
0
100
AcDbPolyline
 90
3
 70
1
 10
-1.0
 20
0.16439898372402537
 10
0.0
 20
0.0
 10
-1.0
 20
-0.16439898372402537
  0
ENDBLK
  5
86
330
84
100
AcDbEntity
  8
0
100
AcDbBlockEnd
  0
ENDSEC
  0
SECTION
  2
ENTITIES
  0
LWPOLYLINE
  5
8C
330
17
100
AcDbEntity
  8
Layer
100
AcDbPolyline
 90
261
 70
1
 10
976.1281297327502
 20
114.70273450360855
 10
973.7265179459899
 20
115.56969571449252
 10
969.7197613481204
 20
117.01093643305964
 10
965.2092411942177
 20
118.61979326657712
 10
960.1967398991943
 20
120.37704998504803
 10
954.665064102727
 20
122.27875245557802
 10
948.6466821801936
 20
124.34508498763199
 10
942.2028598256934
 20
126.56784532987785
 10
935.3982165243735
 20
128.93230635363156
 10
928.2857615844122
 20
131.42108656037874
 10
920.9145450115809
 20
134.0155681334951
 10
913.3169787221441
 20
136.70166551780514
 10
905.5195019635553
 20
139.46534461291142
 10
897.5445427099644
 20
142.29864552836708
 10
889.4079672563598
 20
145.1938393769708
 10
881.1305595278072
 20
148.1410208085456
 10
872.7338406262613
 20
151.13159654516517
 10
864.2378747267888
 20
154.15495214936075
 10
855.6561017543386
 20
157.20260639745135
 10
846.9995666860874
 20
160.26940837377694
 10
838.2787399130311
 20
163.34917396967555
 10
829.4978535257077
 20
166.43675083715019
 10
820.6604143782604
 20
169.52886037067944
 10
811.7718505448881
 20
172.6217319365967
 10
802.8363538335268
 20
175.71075279658209
 10
793.8558984060876
 20
178.79230544379206
 10
784.8334795716125
 20
181.86303193405405
 10
775.772620337649
 20
184.9186144158312
 10
766.6740314160802
 20
187.95512757215033
 10
757.5362977562527
 20
190.97005327079336
 10
748.3594083877072
 20
193.9612629755077
 10
739.1437883243225
 20
196.9265032609907
 10
738.3671364532051
 20
197.17294219274513
 10
738.0646880097145
 20
196.21977644691174
 10
729.5904060671834
 20
198.90876035723798
 10
720.2984987917665
 20
201.81308020496328
 10
710.9634616794585
 20
204.68459987048752
 10
701.5851921983184
 20
207.52362113945776
 10
692.1662580029248
 20
210.33013514767296
 10
682.7095102134253
 20
213.10100178906555
 10
673.2155933753968
 20
215.83231974628185
 10
663.6850762737943
 20
218.5221657950314
 10
654.1213934950993
 20
221.1692232330645
 10
644.5286441140909
 20
223.76919795623402
 10
634.9075461172354
 20
226.31574332708476
 10
625.2570859354245
 20
228.80506954783596
 10
615.578168795158
 20
231.235917133926
 10
605.8739871252029
 20
233.60506354354544
 10
596.1441017359296
 20
235.90692671747598
 10
586.3861468312023
 20
238.13918913681005
 10
576.6006869125197
 20
240.30272546784448
 10
566.7917820773008
 20
242.3966343646166
 10
556.961403672043
 20
244.41681710572618
 10
547.1082764466614
 20
246.36055708188854
 10
537.2335370552014
 20
248.2289045595078
 10
527.3417310139529
 20
250.02033390412555
 10
517.4339440121751
 20
251.72798648332497
 10
507.5047748607259
 20
253.34586441770313
 10
497.54787804880226
 20
254.875460443958
 10
487.5630973175581
 20
256.32337764705824
 10
477.556552765122
 20
257.6940083678092
 10
467.536249438884
 20
258.9870924594179
 10
457.50957288621055
 20
260.19922150820764
 10
447.48064437924864
 20
261.3261292210709
 10
437.44908761096684
 20
262.36412465697504
 10
427.41324521110823
 20
263.31308039600316
 10
417.37552354145066
 20
264.17550661344274
 10
407.34220428613634
 20
264.9537342334779
 10
397.3187685870681
 20
265.6466438756394
 10
387.3086835587078
 20
266.2521425972493
 10
377.31570679699803
 20
266.76816788942824
 10
367.34244665990207
 20
267.1931596622549
 10
357.38937268550995
 20
267.526801246406
 10
347.457918838478
 20
267.7714642534535
 10
337.55578615991726
 20
267.9295891208517
 10
327.69251446539386
 20
267.9995832844447
 10
317.8715547980055
 20
267.9761963076553
 10
308.09204042229237
 20
267.85691593100114
 10
298.35563987400536
 20
267.64375127064733
 10
288.66838433545297
 20
267.33961887670824
 10
279.0364091531761
 20
266.94596855308436
 10
269.4681454036023
 20
266.46377424739705
 10
259.97537683526133
 20
265.89064941657773
 10
250.56459537006032
 20
265.219586131082
 10
241.2335001772894
 20
264.4454146519371
 10
231.98028172111952
 20
263.571734728256
 10
222.8130331720313
 20
262.60675485467374
 10
213.74666530823652
 20
261.5552998757797
 10
204.79662644007962
 20
260.41579823624085
 10
195.9775459116681
 20
259.1836255495842
 10
187.29769052830895
 20
257.8528876776243
 10
178.75738806561426
 20
256.4235431523919
 10
170.36182921033847
 20
254.90743094049137
 10
162.13326662200296
 20
253.32081833254279
 10
154.10125135912074
 20
251.6702370090918
 10
146.28825855036533
 20
249.9523326635891
 10
138.7052601515209
 20
248.16319985444923
 10
131.3541033097373
 20
246.30658936333222
 10
124.23706946687994
 20
244.39913932636676
 10
117.37054022787612
 20
242.46639170022908
 10
110.7818083425696
 20
240.52453787482915
 10
104.48675507190035
 20
238.57145756965667
 10
98.47952358331537
 20
236.6015335076204
 10
92.74517158966302
 20
234.6206035366002
 10
87.27344061625797
 20
232.6421182766821
 10
82.05897136424863
 20
230.6767366568506
 10
77.09753007292818
 20
228.73000710541461
 10
72.38330260553738
 20
226.80425488057892
 10
67.90848558829549
 20
224.8984572335741
 10
63.66133633234705
 20
223.00740672683264
 10
59.626202343643456
 20
221.12590257513787
 10
55.787443226874416
 20
219.25285923379846
 10
52.133248507291626
 20
217.39155356554687
 10
48.65763243676929
 20
215.54600234164954
 10
45.35726776494221
 20
213.7159216384598
 10
42.22703002355104
 20
211.8968125368488
 10
39.25841131031831
 20
210.08449379490878
 10
36.44309987303575
 20
208.2811266836593
 10
33.77600834864745
 20
206.49175664229642
 10
31.253018105586648
 20
204.71959223813985
 10
28.869149550287034
 20
202.9639953782844
 10
26.62123713954486
 20
201.22507158209183
 10
24.511017940393288
 20
199.50216137637673
 10
22.542866257305207
 20
197.79377577867376
 10
20.71951852291545
 20
196.0960023770396
 10
19.040256834752824
 20
194.40621032926035
 10
17.501614939123385
 20
192.72460284457605
 10
16.09555057679114
 20
191.04943150396977
 10
14.812125331776144
 20
189.38241814322691
 10
13.647551059700845
 20
187.73514443532
 10
12.610553694559087
 20
186.127110381384
 10
11.714444301980336
 20
184.56574529595397
 10
10.963630609948837
 20
183.03771287706297
 10
10.351378054634097
 20
181.52576032753646
 10
9.868189888080622
 20
180.02941803154425
 10
9.517456875953656
 20
178.6279220537284
 10
9.275110825146214
 20
177.1902208252794
 10
9.157803529710122
 20
175.57145451253658
 10
9.179637178114831
 20
174.29665452000933
 10
9.333700096756445
 20
172.93358735825473
 10
9.63357774802381
 20
171.60985918030195
 10
10.095460549665859
 20
170.31264288276543
 10
10.731767504342315
 20
169.0269497228857
 10
11.540990379777725
 20
167.75005813811848
 10
12.511393085467205
 20
166.49216819985094
 10
13.638460161233695
 20
165.26436749548031
 10
14.930888066875696
 20
164.07064158867752
 10
16.399999285256285
 20
162.90980984647388
 10
18.0472078381232
 20
161.7814504881071
 10
19.868904051087043
 20
160.68725784363738
 10
21.86535103334586
 20
159.6277449159811
 10
24.041476213532803
 20
158.59960742786174
 10
26.398544330982475
 20
157.59791075400545
 10
28.93547138347816
 20
156.61980551390678
 10
31.651867797710906
 20
155.66497544726028
 10
34.551117712835435
 20
154.7339818684624
 10
37.637628137064894
 20
153.82598871469287
 10
40.917243497517006
 20
152.93904624146347
 10
44.398155032544025
 20
152.0701034475993
 10
48.08813996623155
 20
151.2151414235342
 10
51.99489834957092
 20
150.37229822658992
 10
56.12924590949302
 20
149.54264396436798
 10
60.50855360288989
 20
148.72730368945278
 10
65.15196633430958
 20
147.92386982524263
 10
70.07705522498514
 20
147.1287044737503
 10
75.30096689204618
 20
146.34074052963967
 10
80.84562187590802
 20
145.56169706900877
 10
86.73561498671427
 20
144.79254740436204
 10
92.99278720045999
 20
144.0319081349918
 10
99.63353859930385
 20
143.27982237886724
 10
106.67056556624198
 20
142.54058324234234
 10
114.11228906340847
 20
141.8196145167284
 10
121.95838772133703
 20
141.12022195550128
 10
130.195454073198
 20
140.4458101137532
 10
138.8013122713509
 20
139.80297377878819
 10
147.75120171363534
 20
139.19663370022766
 10
157.01372864931895
 20
138.62727038463836
 10
166.55206535769813
 20
138.09674371613315
 10
176.3362005056717
 20
137.60785214822258
 10
186.3405182455457
 20
137.15900091227195
 10
196.5380112964936
 20
136.7485139824601
 10
199.61440260521965
 20
136.63871385205903
 10
199.5787341060777
 20
135.63935017542826
 10
206.88011024694057
 20
135.37875116803934
 10
217.42812041820164
 20
135.044784121588
 10
228.1271278653378
 20
134.73506133350153
 10
238.93167619674588
 20
134.4433490725288
 10
249.80582214713047
 20
134.17930019340096
 10
260.7536333715268
 20
133.95392989903817
 10
271.801156551688
 20
133.76486139946198
 10
282.96121445133866
 20
133.5975538152241
 10
294.21714067144
 20
133.4357703198217
 10
305.53644364917403
 20
133.27071380709776
 10
316.89050607055964
 20
133.1064874616816
 10
328.2604489524272
 20
132.95791597522435
 10
339.6626471780706
 20
132.83600135038088
 10
351.1248331469067
 20
132.73461036765457
 10
362.65231175369763
 20
132.63737636309367
 10
374.2223804276898
 20
132.53562871691426
 10
385.81787228222043
 20
132.43478531207506
 10
397.43093576783014
 20
132.3408992998371
 10
409.054856158906
 20
132.2511118798106
 10
420.6747054605037
 20
132.1623613721971
 10
432.2795609477409
 20
132.08175558177652
 10
443.87822951197325
 20
132.01766171316962
 10
455.4836903775117
 20
131.96411736359005
 10
467.0893776572121
 20
131.90347496646024
 10
478.6905336495502
 20
131.82761351880777
 10
490.27954254159215
 20
131.74580717366786
 10
501.8532074423738
 20
131.6711133539182
 10
513.4195532174352
 20
131.60256486570967
 10
524.9695872070133
 20
131.5309605829349
 10
536.4830752096915
 20
131.45603308721235
 10
547.9507364936348
 20
131.3903082574936
 10
559.3816609893468
 20
131.34064496221544
 10
570.7832000254507
 20
131.2972293046119
 10
582.1427753439596
 20
131.24142521621937
 10
593.4677573725012
 20
131.16565882870196
 10
604.762520968119
 20
131.07573794251073
 10
616.0151332806222
 20
130.9787517476956
 10
627.1995264517229
 20
130.8672902435044
 10
638.2987437008535
 20
130.7276939193568
 10
649.3257307910949
 20
130.55564326875134
 10
660.2795797208576
 20
130.36786524952862
 10
671.1403560974509
 20
130.187939850468
 10
681.9328632548953
 20
130.02502816447583
 10
692.6642378551733
 20
129.86307125027537
 10
703.3180421840119
 20
129.6792955706888
 10
713.9090418645906
 20
129.4663500483825
 10
724.4439759696324
 20
129.23714705652787
 10
734.8917273418726
 20
129.0037030401948
 10
745.2191656249126
 20
128.75798816858514
 10
755.4242066027034
 20
128.48081347052
 10
765.5443730136824
 20
128.16528637813113
 10
775.6026971116254
 20
127.8269515832552
 10
785.5781843007094
 20
127.48457336055037
 10
795.4302612998329
 20
127.13830216005705
 10
805.1305267833471
 20
126.76896185307378
 10
814.7054771261843
 20
126.36139358974579
 10
824.1940363012229
 20
125.91982555487198
 10
833.5993431564859
 20
125.46354338733074
 10
842.8771116361706
 20
125.00748676600183
 10
851.981241360435
 20
124.54411537978801
 10
860.9063369422901
 20
124.04948105253705
 10
869.6948995122302
 20
123.50658287766963
 10
878.3886367699292
 20
122.92535256239618
 10
886.9751659639091
 20
122.3335803913903
 10
895.39060440245
 20
121.74395896897231
 10
903.5911195332566
 20
121.14289651886922
 10
911.5774550789014
 20
120.51918230945248
 10
919.3480051186941
 20
119.87838873977324
 10
926.8748178740433
 20
119.22789992950287
 10
934.1161904936602
 20
118.57061262373297
 10
941.0280223028836
 20
117.90406240489958
 10
947.5813206131912
 20
117.22112918299746
 10
953.7569390326202
 20
116.53118585636588
 10
959.5104042768319
 20
115.86273911935105
 10
964.7816766659871
 20
115.23784067838682
 10
969.529536155197
 20
114.65599770188065
 10
973.7505924517098
 20
114.11749688505816
 10
976.282235879826
 20
113.78708808972537
  0
LWPOLYLINE
  5
8D
330
17
100
AcDbEntity
  8
Layer
100
AcDbPolyline
 90
5
 70
0
 10
643.5976790375946
 20
219.8778662710812
 10
639.7308336076962
 20
220.90134388259696
 10
640.754311219212
 20
224.76818931249534
 10
644.6211566491104
 20
223.74471170097956
 10
643.5976790375946
 20
219.8778662710812
  0
LWPOLYLINE
  5
8E
330
17
100
AcDbEntity
  8
Layer
100
AcDbPolyline
 90
5
 70
0
 10
278.5145200274562
 20
262.9145861336459
 10
274.51959128251707
 20
262.713229924753
 10
274.3182350736242
 20
266.7081586696921
 10
278.3131638185633
 20
266.909514878585
 10
278.5145200274562
 20
262.9145861336459
  0
LWPOLYLINE
  5
8F
330
17
100
AcDbEntity
  8
Layer
100
AcDbPolyline
 90
5
 70
0
 10
112.71634035645575
 20
236.93666724443145
 10
108.89602283260494
 20
235.75126688296766
 10
107.71062247114112
 20
239.57158440681846
 10
111.53093999499193
 20
240.75698476828225
 10
112.71634035645575
 20
236.93666724443145
  0
LWPOLYLINE
  5
90
330
17
100
AcDbEntity
  8
Layer
100
AcDbPolyline
 90
5
 70
0
 10
28.766919903286762
 20
196.5216514381691
 10
27.21801798175285
 20
195.25638354658702
 10
24.05484825279767
 20
199.1286383504218
 10
25.60375017433158
 20
200.39390624200388
 10
28.766919903286762
 20
196.5216514381691
  0
LWPOLYLINE
  5
91
330
17
100
AcDbEntity
  8
Layer
100
AcDbPolyline
 90
5
 70
0
 10
19.28428996551104
 20
166.99476871408288
 10
20.935781287744394
 20
165.86668342803935
 10
18.11556807263555
 20
161.737955122456
 10
16.464076750402196
 20
162.86604040849952
 10
19.28428996551104
 20
166.99476871408288
  0
LWPOLYLINE
  5
92
330
17
100
AcDbEntity
  8
Layer
100
AcDbPolyline
 90
5
 70
0
 10
149.42458045914051
 20
143.10132569133123
 10
153.4170454714712
 20
142.85592168705352
 10
153.1716414671935
 20
138.86345667472284
 10
149.1791764548628
 20
139.10886067900054
 10
149.42458045914051
 20
143.10132569133123
  0
LINE
  5
93
330
17
100
AcDbEntity
  8
Layer
100
AcDbLine
 10
957.383956923143
 20
121.34404019406165
 30
0.0
 11
957.0624863315386
 21
120.39712063109262
 31
0.0
  0
LINE
  5
94
330
17
100
AcDbEntity
  8
Layer
100
AcDbLine
 10
956.4317369284139
 20
117.22589477691943
 30
0.0
 11
956.366063933551
 21
116.22805357825817
 31
0.0
  0
LINE
  5
95
330
17
100
AcDbEntity
  8
Layer
100
AcDbLine
 10
938.4760288346181
 20
127.86283556379732
 30
0.0
 11
938.152323650135
 21
126.9166775677212
 31
0.0
  0
LINE
  5
96
330
17
100
AcDbEntity
  8
Layer
100
AcDbLine
 10
936.5553352424535
 20
119.33997680672583
 30
0.0
 11
936.4696094938638
 21
118.34365803443016
 31
0.0
  0
LINE
  5
97
330
17
100
AcDbEntity
  8
Layer
100
AcDbLine
 10
863.0645756194401
 20
154.57162712086975
 30
0.0
 11
862.7341006363845
 21
153.62781236914444
 31
0.0
  0
LINE
  5
98
330
17
100
AcDbEntity
  8
Layer
100
AcDbLine
 10
856.7667298110082
 20
125.28017517390026
 30
0.0
 11
856.6886581328868
 21
124.28322742548247
 31
0.0
  0
LWPOLYLINE
  5
99
330
17
100
AcDbEntity
  8
Layer
100
AcDbPolyline
 90
300
 70
1
 10
432.5882415239456
 20
200.0
 10
432.5763689240334
 20
201.20066467499066
 10
432.54075636690254
 20
202.40079917026094
 10
432.48141957805575
 20
203.5998735402029
 10
432.3983847589486
 20
204.79735830733006
 10
432.29168857541976
 20
205.99272469607988
 10
432.16137814150017
 20
207.18544486630597
 10
432.007510998609
 20
208.37499214635764
 10
431.8301550901451
 20
209.56084126564312
 10
431.62938873148494
 20
210.74246858657438
 10
431.4053005754006
 20
211.91935233579062
 10
431.1579895729135
 20
213.09097283455884
 10
430.88756492960016
 20
214.25681272824926
 10
430.59414605737044
 20
215.41635721478454
 10
430.2778625217382
 20
216.56909427196194
 10
429.93885398460895
 20
217.7145148835479
 10
429.57727014260934
 20
218.85211326404522
 10
429.1932706609849
 20
219.98138708203376
 10
428.7870251030967
 20
221.10183768198593
 10
428.35871285554686
 20
222.21297030445868
 10
427.90852304896634
 20
223.3142943045656
 10
427.4366544745005
 20
224.40532336863183
 10
426.94331549602805
 20
225.48557572893637
 10
426.4287239581539
 20
226.55457437644722
 10
425.8931070900148
 20
227.61184727145525
 10
425.33670140494144
 20
228.6569275520134
 10
424.75975259602103
 20
229.68935374009
 10
424.1625154276057
 20
230.70866994534447
 10
423.5452536228161
 20
231.71442606643535
 10
422.9082397470887
 20
232.70617798977287
 10
422.2517550878183
 20
233.68348778562657
 10
421.5760895301496
 20
234.64592390150304
 10
420.8815414289721
 20
235.59306135270714
 10
420.168417477175
 20
236.5244819100035
 10
419.4370325702202
 20
237.43977428429451
 10
418.68770966709315
 20
238.33853430823424
 10
417.9207796476937
 20
239.22036511469724
 10
417.1365811667283
 20
240.08487731202396
 10
416.33546050417027
 20
240.93168915596502
 10
415.5177714123515
 20
241.7604267182489
 10
414.6838749597563
 20
242.570724051698
 10
413.83413937158275
 20
243.36222335182066
 10
412.9689398671457
 20
244.13457511480755
 10
412.0886584941899
 20
244.88743829186276
 10
411.1936839601887
 20
245.62048043980124
 10
410.2844114607018
 20
246.33337786784645
 10
409.3612425048679
 20
247.02581578056305
 10
408.4245847381096
 20
247.6974884168617
 10
407.47485176212876
 20
248.34809918501455
 10
406.5124629522714
 20
248.97736079362187
 10
405.5378432723437
 20
249.58499537847166
 10
404.55142308695963
 20
250.17073462523695
 10
403.55363797150414
 20
250.73431988795556
 10
402.54492851979546
 20
251.27550230324104
 10
401.52574014953115
 20
251.79404290017374
 10
400.4965229056042
 20
252.2897127058235
 10
399.45773126137584
 20
252.76229284635787
 10
398.409823917993
 20
253.21157464369048
 10
397.3532636018387
 20
253.63735970762738
 10
396.2885168602052
 20
254.03946002347072
 10
395.21605385527977
 20
254.41769803504056
 10
394.1363481565343
 20
254.77190672307887
 10
393.0498765316104
 20
255.10192967900036
 10
391.9571187357922
 20
255.40762117395826
 10
390.85855730015993
 20
255.68884622319393
 10
389.75467731851785
 20
255.94548064564245
 10
388.6459662331904
 20
256.1774111187674
 10
387.5329136197812
 20
256.384535228601
 10
386.4160109709908
 20
256.5667615149671
 10
385.2957514795867
 20
256.7240095118675
 10
384.1726298206238
 20
256.8562097830135
 10
383.04714193300947
 20
256.96330395248697
 10
381.91978480051114
 20
257.0452447305175
 10
380.7910562323021
 20
257.1019959343642
 10
379.66145464314303
 20
257.13353250429304
 10
378.5314788332962
 20
257.13984051464263
 10
377.40162776826907
 20
257.1209171799731
 10
376.27240035848536
 20
257.0767708562963
 10
375.1442952389802
 20
257.0074210373861
 10
374.01781054921685
 20
256.9128983461702
 10
372.8934437131225
 20
256.79324452120807
 10
371.77169121943984
 20
256.6485123982605
 10
370.6530484024913
 20
256.4787658869585
 10
369.53800922345386
 20
256.28407994258305
 10
368.42706605223935
 20
256.0645405329665
 10
367.32070945007786
 20
255.82024460053174
 10
366.21942795289965
 20
255.55130001948547
 10
365.12370785561154
 20
255.2578255481835
 10
364.0340329973628
 20
254.93995077669072
 10
362.95088454789504
 20
254.59781606955772
 10
361.87474079507183
 20
254.23157250383963
 10
360.8060769336797
 20
253.84138180238494
 10
359.74536485559577
 20
253.4274162624231
 10
358.6930729414134
 20
252.9898586794829
 10
357.6496658536186
 20
252.52890226667523
 10
356.6156043314084
 20
252.0447505693756
 10
355.59134498724086
 20
251.53761737534404
 10
354.5773401052083
 20
251.00772662032267
 10
353.57403744132125
 20
250.45531228915186
 10
352.581880025792
 20
249.8806183124492
 10
351.60130596740476
 20
249.2838984588965
 10
350.63274826005954
 20
248.66541622318266
 10
349.6766345915739
 20
248.0254447096521
 10
348.733387154828
 20
247.36426651170922
 10
347.80342246133654
 20
246.68217358703325
 10
346.88715115732856
 20
245.9794671286581
 10
345.98497784241783
 20
245.25645743197373
 10
345.09730089094296
 20
244.51346375770868
 10
344.22451227605666
 20
243.7508141909534
 10
343.3669973966411
 20
242.9688454962871
 10
342.52513490712727
 20
242.16790296907197
 10
341.6992965502909
 20
241.34834028298064
 10
340.8898469931022
 20
240.51051933382365
 10
340.09714366569864
 20
239.65481007974648
 10
339.32153660355414
 20
238.78159037786656
 10
338.563368292913
 20
237.89124581742215
 10
337.82297351955805
 20
236.98416954950682
 10
337.1006792209781
 20
236.06076211346533
 10
336.3968043420021
 20
235.1214312600264
 10
335.7116596939616
 20
234.16659177125172
 10
335.0455478174457
 20
233.19666527737962
 10
334.3987628487072
 20
232.21208007064533
 10
333.77159038978044
 20
231.2132709161589
 10
333.16430738236784
 20
230.20067885992535
 10
332.5771819855496
 20
229.17475103409103
 10
332.0104734573729
 20
228.13594045950288
 10
331.46443204037007
 20
227.08470584566683
 10
330.9392988510593
 20
226.02151138819494
 10
330.4353057734738
 20
224.94682656382943
 10
329.9526753567687
 20
223.8611259231352
 10
329.49162071694946
 20
222.7648888809514
 10
329.05234544276567
 20
221.65859950469556
 10
328.63504350581246
 20
220.54274630061292
 10
328.23989917487756
 20
219.41782199806585
 10
327.8670869345738
 20
218.2843233319584
 10
327.5167714082914
 20
217.1427508233923
 10
327.1891072855049
 20
215.9936085586507
 10
326.88423925346694
 20
214.83740396660806
 10
326.60230193331796
 20
213.67464759466375
 10
326.3434198206417
 20
212.50585288329867
 10
326.10770723049137
 20
211.33153593935447
 10
325.8952682469111
 20
210.1522153081352
 10
325.7061966769757
 20
208.96841174443236
 10
325.54057600936784
 20
207.7806479825743
 10
325.39847937751193
 20
206.5894485056013
 10
325.27996952728046
 20
205.39533931366876
 10
325.185098789287
 20
204.19884769178032
 10
325.11390905577883
 20
203.00050197695361
 10
325.06643176213817
 20
201.80083132492143
 10
325.0426878730013
 20
200.60036547647164
 10
325.0426878730013
 20
199.3996345235284
 10
325.06643176213817
 20
198.1991686750786
 10
325.11390905577883
 20
196.9994980230464
 10
325.185098789287
 20
195.80115230821966
 10
325.27996952728046
 20
194.60466068633121
 10
325.39847937751193
 20
193.41055149439873
 10
325.54057600936784
 20
192.21935201742573
 10
325.7061966769757
 20
191.03158825556764
 10
325.8952682469111
 20
189.84778469186483
 10
326.10770723049137
 20
188.66846406064553
 10
326.3434198206417
 20
187.49414711670133
 10
326.60230193331796
 20
186.32535240533625
 10
326.88423925346694
 20
185.16259603339194
 10
327.1891072855049
 20
184.0063914413493
 10
327.5167714082914
 20
182.85724917660772
 10
327.8670869345738
 20
181.7156766680416
 10
328.23989917487756
 20
180.58217800193415
 10
328.63504350581246
 20
179.45725369938708
 10
329.05234544276567
 20
178.3414004953044
 10
329.49162071694946
 20
177.23511111904858
 10
329.9526753567687
 20
176.13887407686482
 10
330.4353057734738
 20
175.05317343617057
 10
330.9392988510593
 20
173.9784886118051
 10
331.46443204037007
 20
172.9152941543332
 10
332.0104734573729
 20
171.86405954049712
 10
332.57718198554966
 20
170.82524896590894
 10
333.16430738236784
 20
169.79932114007465
 10
333.77159038978044
 20
168.78672908384112
 10
334.3987628487072
 20
167.7879199293547
 10
335.0455478174457
 20
166.80333472262038
 10
335.7116596939616
 20
165.8334082287483
 10
336.3968043420021
 20
164.87856873997362
 10
337.1006792209781
 20
163.93923788653467
 10
337.82297351955805
 20
163.01583045049318
 10
338.563368292913
 20
162.10875418257785
 10
339.32153660355414
 20
161.21840962213344
 10
340.09714366569864
 20
160.34518992025352
 10
340.8898469931022
 20
159.48948066617635
 10
341.6992965502909
 20
158.65165971701936
 10
342.52513490712727
 20
157.83209703092803
 10
343.3669973966412
 20
157.0311545037129
 10
344.2245122760566
 20
156.2491858090466
 10
345.09730089094296
 20
155.48653624229132
 10
345.98497784241783
 20
154.74354256802627
 10
346.88715115732856
 20
154.02053287134194
 10
347.80342246133654
 20
153.31782641296678
 10
348.733387154828
 20
152.6357334882908
 10
349.6766345915739
 20
151.9745552903479
 10
350.63274826005954
 20
151.3345837768173
 10
351.6013059674048
 20
150.7161015411035
 10
352.581880025792
 20
150.1193816875508
 10
353.5740374413213
 20
149.5446877108481
 10
354.57734010520835
 20
148.99227337967733
 10
355.59134498724086
 20
148.46238262465596
 10
356.61560433140835
 20
147.95524943062443
 10
357.6496658536186
 20
147.47109773332477
 10
358.6930729414134
 20
147.0101413205171
 10
359.74536485559577
 20
146.57258373757693
 10
360.8060769336797
 20
146.15861819761506
 10
361.87474079507183
 20
145.76842749616037
 10
362.95088454789504
 20
145.4021839304423
 10
364.0340329973627
 20
145.06004922330928
 10
365.12370785561154
 20
144.7421744518165
 10
366.21942795289965
 20
144.44869998051453
 10
367.32070945007786
 20
144.17975539946826
 10
368.42706605223935
 20
143.93545946703352
 10
369.5380092234539
 20
143.71592005741695
 10
370.6530484024913
 20
143.52123411304146
 10
371.77169121943984
 20
143.3514876017395
 10
372.8934437131225
 20
143.20675547879193
 10
374.0178105492168
 20
143.08710165382982
 10
375.14429523898013
 20
142.9925789626139
 10
376.27240035848536
 20
142.92322914370368
 10
377.40162776826907
 20
142.87908282002692
 10
378.5314788332962
 20
142.86015948535737
 10
379.66145464314303
 20
142.86646749570696
 10
380.7910562323021
 20
142.89800406563583
 10
381.91978480051114
 20
142.95475526948252
 10
383.04714193300947
 20
143.03669604751303
 10
384.1726298206238
 20
143.1437902169865
 10
385.2957514795867
 20
143.2759904881325
 10
386.41601097099084
 20
143.43323848503292
 10
387.53291361978125
 20
143.615464771399
 10
388.6459662331904
 20
143.8225888812326
 10
389.75467731851785
 20
144.05451935435752
 10
390.85855730015993
 20
144.31115377680607
 10
391.95711873579216
 20
144.59237882604174
 10
393.0498765316104
 20
144.8980703209996
 10
394.13634815653427
 20
145.22809327692113
 10
395.21605385527977
 20
145.5823019649594
 10
396.2885168602052
 20
145.96053997652928
 10
397.3532636018387
 20
146.36264029237262
 10
398.409823917993
 20
146.78842535630952
 10
399.45773126137584
 20
147.23770715364213
 10
400.4965229056042
 20
147.7102872941765
 10
401.5257401495312
 20
148.20595709982626
 10
402.54492851979546
 20
148.72449769675896
 10
403.55363797150414
 20
149.26568011204444
 10
404.55142308695963
 20
149.82926537476305
 10
405.53784327234365
 20
150.4150046215283
 10
406.5124629522714
 20
151.02263920637813
 10
407.4748517621287
 20
151.65190081498542
 10
408.4245847381096
 20
152.3025115831383
 10
409.3612425048679
 20
152.97418421943695
 10
410.2844114607018
 20
153.66662213215355
 10
411.1936839601887
 20
154.37951956019873
 10
412.0886584941899
 20
155.11256170813724
 10
412.9689398671457
 20
155.86542488519245
 10
413.83413937158275
 20
156.63777664817934
 10
414.6838749597563
 20
157.429275948302
 10
415.5177714123515
 20
158.2395732817511
 10
416.33546050417027
 20
159.06831084403498
 10
417.1365811667283
 20
159.91512268797607
 10
417.9207796476937
 20
160.77963488530276
 10
418.68770966709315
 20
161.66146569176573
 10
419.43703257022014
 20
162.56022571570549
 10
420.168417477175
 20
163.47551808999648
 10
420.8815414289721
 20
164.40693864729283
 10
421.5760895301496
 20
165.35407609849696
 10
422.2517550878183
 20
166.3165122143734
 10
422.9082397470887
 20
167.29382201022713
 10
423.5452536228161
 20
168.28557393356465
 10
424.1625154276057
 20
169.29133005465553
 10
424.75975259602103
 20
170.31064625991
 10
425.33670140494144
 20
171.3430724479866
 10
425.8931070900148
 20
172.38815272854478
 10
426.4287239581539
 20
173.44542562355278
 10
426.94331549602805
 20
174.51442427106366
 10
427.4366544745005
 20
175.59467663136817
 10
427.90852304896634
 20
176.68570569543436
 10
428.35871285554686
 20
177.78702969554132
 10
428.7870251030967
 20
178.89816231801407
 10
429.19327066098487
 20
180.0186129179662
 10
429.57727014260934
 20
181.14788673595478
 10
429.93885398460895
 20
182.2854851164521
 10
430.2778625217382
 20
183.43090572803806
 10
430.59414605737044
 20
184.58364278521543
 10
430.88756492960016
 20
185.74318727175074
 10
431.1579895729135
 20
186.90902716544116
 10
431.4053005754006
 20
188.08064766420938
 10
431.62938873148494
 20
189.25753141342562
 10
431.8301550901451
 20
190.43915873435688
 10
432.007510998609
 20
191.6250078536424
 10
432.16137814150017
 20
192.81455513369406
 10
432.29168857541976
 20
194.0072753039201
 10
432.3983847589486
 20
195.2026416926699
 10
432.48141957805575
 20
196.4001264597971
 10
432.54075636690254
 20
197.59920082973903
 10
432.5763689240334
 20
198.7993353250093
 10
432.5882415239456
 20
200.0
  0
LINE
  5
9A
330
17
100
AcDbEntity
  8
Layer
 62
7
100
AcDbLine
 10
25.120770333851965
 20
200.00000000000006
 30
0.0
 11
726.099159197888
 21
199.99999999999997
 31
0.0
  0
LINE
  5
9B
330
17
100
AcDbEntity
  8
Layer
 62
7
100
AcDbLine
 10
163.2164481066592
 20
200.00000000000003
 30
0.0
 11
175.2164481066592
 21
200.00000000000003
 31
0.0
  0
LWPOLYLINE
  5
9C
330
17
100
AcDbEntity
  8
Layer
100
AcDbPolyline
 90
5
 70
0
 10
169.2164481066592
 20
205.00000000000003
 10
174.2164481066592
 20
200.00000000000003
 10
169.2164481066592
 20
195.00000000000003
 10
164.2164481066592
 20
200.00000000000003
 10
169.2164481066592
 20
205.00000000000003
  0
LINE
  5
9D
330
17
100
AcDbEntity
  8
Layer
 62
7
100
AcDbLine
 10
369.60996476587
 20
200.0
 30
0.0
 11
381.60996476587
 21
200.0
 31
0.0
  0
LWPOLYLINE
  5
9E
330
17
100
AcDbEntity
  8
Layer
100
AcDbPolyline
 90
5
 70
0
 10
375.60996476587
 20
205.0
 10
380.60996476587
 20
200.0
 10
375.60996476587
 20
195.0
 10
370.60996476587
 20
200.0
 10
375.60996476587
 20
205.0
  0
LINE
  5
9F
330
17
100
AcDbEntity
  8
Layer
 62
7
100
AcDbLine
 10
576.0034814250808
 20
199.99999999999997
 30
0.0
 11
588.0034814250808
 21
199.99999999999997
 31
0.0
  0
LWPOLYLINE
  5
A0
330
17
100
AcDbEntity
  8
Layer
100
AcDbPolyline
 90
5
 70
0
 10
582.0034814250808
 20
204.99999999999997
 10
587.0034814250808
 20
199.99999999999997
 10
582.0034814250808
 20
194.99999999999997
 10
577.0034814250808
 20
199.99999999999997
 10
582.0034814250808
 20
204.99999999999997
  0
LINE
  5
A1
330
17
100
AcDbEntity
  8
Layer
 62
7
100
AcDbLine
 10
9.302642774468097
 20
177.35355221537293
 30
0.0
 11
975.3709851034938
 21
114.97605720639115
 31
0.0
  0
LINE
  5
A2
330
17
100
AcDbEntity
  8
Layer
 62
7
100
AcDbLine
 10
200.4206751332369
 20
165.01336510102766
 30
0.0
 11
212.39573860201597
 21
164.2401543155928
 31
0.0
  0
LWPOLYLINE
  5
A3
330
17
100
AcDbEntity
  8
Layer
100
AcDbPolyline
 90
5
 70
0
 10
206.7303780282243
 20
169.61636948696818
 10
211.39781664628438
 20
164.30458854771237
 10
206.08603570702857
 20
159.63714992965228
 10
201.41859708896848
 20
164.9489308689081
 10
206.7303780282243
 20
169.61636948696818
  0
LINE
  5
A4
330
17
100
AcDbEntity
  8
Layer
 62
7
100
AcDbLine
 10
438.6945143593657
 20
149.62840260317085
 30
0.0
 11
450.6695778281447
 21
148.85519181773594
 31
0.0
  0
LWPOLYLINE
  5
A5
330
17
100
AcDbEntity
  8
Layer
100
AcDbPolyline
 90
5
 70
0
 10
445.0042172543531
 20
154.23140698911135
 10
449.67165587241317
 20
148.91962604985554
 10
444.35987493315736
 20
144.25218743179545
 10
439.69243631509727
 20
149.56396837105126
 10
445.0042172543531
 20
154.23140698911135
  0
LINE
  5
A6
330
17
100
AcDbEntity
  8
Layer
100
AcDbLine
 10
378.8139805825243
 20
257.14062903225806
 30
0.0
 11
378.8139805825243
 21
258.14062903225806
 31
0.0
  0
LINE
  5
A7
330
17
100
AcDbEntity
  8
Layer
100
AcDbLine
 10
378.8139805825243
 20
142.85937096774194
 30
0.0
 11
378.8139805825243
 21
141.85937096774194
 31
0.0
  0
LINE
  5
A8
330
17
100
AcDbEntity
  8
Layer
100
AcDbLine
 10
432.5882415239456
 20
200.0
 30
0.0
 11
433.5882415239456
 21
200.0
 31
0.0
  0
LINE
  5
A9
330
17
100
AcDbEntity
  8
Layer
100
AcDbLine
 10
325.03971964110303
 20
200.0
 30
0.0
 11
324.03971964110303
 21
200.0
 31
0.0
  0
LINE
  5
AA
330
17
100
AcDbEntity
  8
Layer
 62
7
100
AcDbLine
 10
228.81398058252432
 20
134.7165169804254
 30
0.0
 11
228.81398058252432
 21
263.23843768104666
 31
0.0
  0
LINE
  5
AB
330
17
100
AcDbEntity
  8
Layer
 62
7
100
AcDbLine
 10
228.81398058252432
 20
175.64918922564286
 30
0.0
 11
228.81398058252432
 21
187.64918922564286
 31
0.0
  0
LWPOLYLINE
  5
AC
330
17
100
AcDbEntity
  8
Layer
100
AcDbPolyline
 90
5
 70
0
 10
223.81398058252432
 20
181.64918922564286
 10
228.81398058252432
 20
186.64918922564286
 10
233.81398058252432
 20
181.64918922564286
 10
228.81398058252432
 20
176.64918922564286
 10
223.81398058252432
 20
181.64918922564286
  0
LINE
  5
AD
330
17
100
AcDbEntity
  8
Layer
 62
7
100
AcDbLine
 10
228.81398058252432
 20
210.30576543582924
 30
0.0
 11
228.81398058252432
 21
222.30576543582924
 31
0.0
  0
LWPOLYLINE
  5
AE
330
17
100
AcDbEntity
  8
Layer
100
AcDbPolyline
 90
5
 70
0
 10
223.81398058252432
 20
216.30576543582924
 10
228.81398058252432
 20
221.30576543582924
 10
233.81398058252432
 20
216.30576543582924
 10
228.81398058252432
 20
211.30576543582924
 10
223.81398058252432
 20
216.30576543582924
  0
LINE
  5
AF
330
17
100
AcDbEntity
  8
Layer
 62
7
100
AcDbLine
 10
678.8139805825243
 20
130.07210734887252
 30
0.0
 11
678.8139805825243
 21
214.22171205178125
 31
0.0
  0
LINE
  5
B0
330
17
100
AcDbEntity
  8
Layer
 62
7
100
AcDbLine
 10
678.8139805825243
 20
155.47446899489057
 30
0.0
 11
678.8139805825243
 21
167.47446899489057
 31
0.0
  0
LWPOLYLINE
  5
B1
330
17
100
AcDbEntity
  8
Layer
100
AcDbPolyline
 90
5
 70
0
 10
673.8139805825243
 20
161.47446899489057
 10
678.8139805825243
 20
166.47446899489057
 10
683.8139805825243
 20
161.47446899489057
 10
678.8139805825243
 20
156.47446899489057
 10
673.8139805825243
 20
161.47446899489057
  0
LINE
  5
B2
330
17
100
AcDbEntity
  8
Layer
 62
7
100
AcDbLine
 10
678.8139805825243
 20
176.8193504057632
 30
0.0
 11
678.8139805825243
 21
188.8193504057632
 31
0.0
  0
LWPOLYLINE
  5
B3
330
17
100
AcDbEntity
  8
Layer
100
AcDbPolyline
 90
5
 70
0
 10
673.8139805825243
 20
182.8193504057632
 10
678.8139805825243
 20
187.8193504057632
 10
683.8139805825243
 20
182.8193504057632
 10
678.8139805825243
 20
177.8193504057632
 10
673.8139805825243
 20
182.8193504057632
  0
LWPOLYLINE
  5
B4
330
17
100
AcDbEntity
  8
NumLabel
 62
1
100
AcDbPolyline
 90
6
 70
0
 10
281.7576699029127
 20
161.47184466019417
 10
286.7576699029127
 20
161.47184466019417
 10
286.7576699029127
 20
156.47184466019417
 10
281.7576699029127
 20
156.47184466019417
 10
281.7576699029127
 20
151.47184466019417
 10
286.7576699029127
 20
151.47184466019417
  0
LWPOLYLINE
  5
B5
330
17
100
AcDbEntity
  8
NumLabel
 62
1
100
AcDbPolyline
 90
2
 70
0
 10
294.2576699029127
 20
161.47184466019417
 10
292.2576699029127
 20
161.47184466019417
  0
LWPOLYLINE
  5
B6
330
17
100
AcDbEntity
  8
NumLabel
 62
1
100
AcDbPolyline
 90
4
 70
0
 10
291.2576699029127
 20
161.47184466019417
 10
289.2576699029127
 20
161.47184466019417
 10
289.2576699029127
 20
151.47184466019417
 10
291.2576699029127
 20
151.47184466019417
  0
LWPOLYLINE
  5
B7
330
17
100
AcDbEntity
  8
NumLabel
 62
1
100
AcDbPolyline
 90
4
 70
0
 10
292.2576699029127
 20
151.47184466019417
 10
294.2576699029127
 20
151.47184466019417
 10
294.2576699029127
 20
156.47184466019417
 10
292.2576699029127
 20
156.47184466019417
  0
LWPOLYLINE
  5
B8
330
17
100
AcDbEntity
  8
NumLabel
 62
1
100
AcDbPolyline
 90
2
 70
0
 10
291.2576699029127
 20
156.47184466019417
 10
289.2576699029127
 20
156.47184466019417
  0
ENDSEC
  0
SECTION
  2
OBJECTS
  0
DICTIONARY
  5
A
330
0
100
AcDbDictionary
280
0
281
1
  3
ACAD_COLOR
350
B
  3
ACAD_GROUP
350
C
  3
ACAD_LAYOUT
350
D
  3
ACAD_MATERIAL
350
E
  3
ACAD_MLEADERSTYLE
350
F
  3
ACAD_MLINESTYLE
350
10
  3
ACAD_PLOTSETTINGS
350
11
  3
ACAD_PLOTSTYLENAME
350
12
  3
ACAD_SCALELIST
350
14
  3
ACAD_TABLESTYLE
350
15
  3
ACAD_VISUALSTYLE
350
16
  3
EZDXF_META
350
2D
  0
DICTIONARY
  5
B
330
A
100
AcDbDictionary
280
0
281
1
  0
DICTIONARY
  5
C
330
A
100
AcDbDictionary
280
0
281
1
  0
DICTIONARY
  5
D
330
A
100
AcDbDictionary
280
0
281
1
  3
Model
350
1A
  3
Layout1
350
1E
  0
DICTIONARY
  5
E
330
A
100
AcDbDictionary
280
0
281
1
  3
ByBlock
350
1F
  3
ByLayer
350
20
  3
Global
350
21
  0
DICTIONARY
  5
F
330
A
100
AcDbDictionary
280
0
281
1
  3
Standard
350
2C
  0
DICTIONARY
  5
10
330
A
100
AcDbDictionary
280
0
281
1
  3
Standard
350
22
  0
DICTIONARY
  5
11
330
A
100
AcDbDictionary
280
0
281
1
  0
ACDBDICTIONARYWDFLT
  5
12
330
A
100
AcDbDictionary
280
0
281
1
  3
Normal
350
13
100
AcDbDictionaryWithDefault
340
13
  0
ACDBPLACEHOLDER
  5
13
330
12
  0
DICTIONARY
  5
14
330
A
100
AcDbDictionary
280
0
281
1
  0
DICTIONARY
  5
15
330
A
100
AcDbDictionary
280
0
281
1
  0
DICTIONARY
  5
16
330
A
100
AcDbDictionary
280
0
281
1
  3
2dWireframe
350
5A
  3
Basic
350
5B
  3
Brighten
350
5C
  3
ColorChange
350
5D
  3
Conceptual
350
5E
  3
Dim
350
5F
  3
EdgeColorOff
350
60
  3
Facepattern
350
61
  3
Flat
350
62
  3
FlatWithEdges
350
63
  3
Gouraud
350
64
  3
GouraudWithEdges
350
65
  3
Hidden
350
66
  3
JitterOff
350
67
  3
Linepattern
350
68
  3
Modeling
350
69
  3
OverhangOff
350
6A
  3
Realistic
350
6B
  3
Shaded
350
6C
  3
Shaded with edges
350
6D
  3
Shades of Gray
350
6E
  3
Sketchy
350
6F
  3
Thicken
350
70
  3
Wireframe
350
71
  3
X-Ray
350
72
  0
LAYOUT
  5
1A
330
D
100
AcDbPlotSettings
  1

  2
Adobe PDF
  4
A3
  6

 40
7.5
 41
20.0
 42
7.5
 43
20.0
 44
420.0
 45
297.0
 46
0.0
 47
0.0
 48
0.0
 49
0.0
140
0.0
141
0.0
142
1.0
143
1.0
 70
1024
 72
1
 73
0
 74
5
  7

 75
16
 76
0
 77
2
 78
300
147
1.0
148
0.0
149
0.0
100
AcDbLayout
  1
Model
 70
1
 71
0
 10
0.0
 20
0.0
 11
420.0
 21
297.0
 12
0.0
 22
0.0
 32
0.0
 14
1e+20
 24
1e+20
 34
1e+20
 15
-1e+20
 25
-1e+20
 35
-1e+20
146
0.0
 13
0.0
 23
0.0
 33
0.0
 16
1.0
 26
0.0
 36
0.0
 17
0.0
 27
1.0
 37
0.0
 76
1
330
17
  0
LAYOUT
  5
1E
330
D
100
AcDbPlotSettings
  1

  2
Adobe PDF
  4
A3
  6

 40
7.5
 41
20.0
 42
7.5
 43
20.0
 44
420.0
 45
297.0
 46
0.0
 47
0.0
 48
0.0
 49
0.0
140
0.0
141
0.0
142
1.0
143
1.0
 70
0
 72
1
 73
0
 74
5
  7

 75
16
 76
0
 77
2
 78
300
147
1.0
148
0.0
149
0.0
100
AcDbLayout
  1
Layout1
 70
1
 71
1
 10
0.0
 20
0.0
 11
420.0
 21
297.0
 12
0.0
 22
0.0
 32
0.0
 14
1e+20
 24
1e+20
 34
1e+20
 15
-1e+20
 25
-1e+20
 35
-1e+20
146
0.0
 13
0.0
 23
0.0
 33
0.0
 16
1.0
 26
0.0
 36
0.0
 17
0.0
 27
1.0
 37
0.0
 76
1
330
1B
  0
MATERIAL
  5
1F
102
{ACAD_REACTORS
330
E
102
}
330
E
100
AcDbMaterial
  1
ByBlock
  2

 70
0
 40
1.0
 71
1
 41
1.0
 91
-1023410177
 42
1.0
 72
1
  3

 73
1
 74
1
 75
1
 44
0.5
 73
0
 45
1.0
 46
1.0
 77
1
  4

 78
1
 79
1
170
1
 48
1.0
171
1
  6

172
1
173
1
174
1
140
1.0
141
1.0
175
1
  7

176
1
177
1
178
1
143
1.0
179
1
  8

270
1
271
1
272
1
145
1.0
146
1.0
273
1
  9

274
1
275
1
276
1
 42
1.0
 72
1
  3

 73
1
 74
1
 75
1
 94
63
  0
MATERIAL
  5
20
102
{ACAD_REACTORS
330
E
102
}
330
E
100
AcDbMaterial
  1
ByLayer
  2

 70
0
 40
1.0
 71
1
 41
1.0
 91
-1023410177
 42
1.0
 72
1
  3

 73
1
 74
1
 75
1
 44
0.5
 73
0
 45
1.0
 46
1.0
 77
1
  4

 78
1
 79
1
170
1
 48
1.0
171
1
  6

172
1
173
1
174
1
140
1.0
141
1.0
175
1
  7

176
1
177
1
178
1
143
1.0
179
1
  8

270
1
271
1
272
1
145
1.0
146
1.0
273
1
  9

274
1
275
1
276
1
 42
1.0
 72
1
  3

 73
1
 74
1
 75
1
 94
63
  0
MATERIAL
  5
21
102
{ACAD_REACTORS
330
E
102
}
330
E
100
AcDbMaterial
  1
Global
  2

 70
0
 40
1.0
 71
1
 41
1.0
 91
-1023410177
 42
1.0
 72
1
  3

 73
1
 74
1
 75
1
 44
0.5
 73
0
 45
1.0
 46
1.0
 77
1
  4

 78
1
 79
1
170
1
 48
1.0
171
1
  6

172
1
173
1
174
1
140
1.0
141
1.0
175
1
  7

176
1
177
1
178
1
143
1.0
179
1
  8

270
1
271
1
272
1
145
1.0
146
1.0
273
1
  9

274
1
275
1
276
1
 42
1.0
 72
1
  3

 73
1
 74
1
 75
1
 94
63
  0
MLINESTYLE
  5
22
102
{ACAD_REACTORS
330
10
102
}
330
10
100
AcDbMlineStyle
  2
Standard
 70
0
  3

 62
256
 51
90.0
 52
90.0
 71
2
 49
0.5
 62
256
  6
BYLAYER
 49
-0.5
 62
256
  6
BYLAYER
  0
MLEADERSTYLE
  5
2C
102
{ACAD_REACTORS
330
F
102
}
330
F
100
AcDbMLeaderStyle
179
2
170
2
171
1
172
0
 90
2
 40
0.0
 41
0.0
173
1
 91
-1056964608
 92
-2
290
1
 42
2.0
291
1
 43
8.0
  3
Standard
 44
4.0
300

342
29
174
1
175
1
176
0
178
1
 93
-1056964608
 45
4.0
292
0
297
0
 46
4.0
 94
-1056964608
 47
1.0
 49
1.0
140
1.0
294
1
141
0.0
177
0
142
1.0
295
0
296
0
143
3.75
271
0
272
9
273
9
  0
DICTIONARY
  5
2D
330
A
100
AcDbDictionary
281
1
  3
CREATED_BY_EZDXF
350
2E
  3
WRITTEN_BY_EZDXF
350
BB
  0
DICTIONARYVAR
  5
2E
330
2D
100
DictionaryVariables
280
0
  1
1.3.0 @ 2026-01-06T17:07:10.893154+00:00
  0
VISUALSTYLE
  5
5A
102
{ACAD_REACTORS
330
16
102
}
330
16
100
AcDbVisualStyle
  2
2dWireframe
 70
4
 90
0
 40
0.6
 62
7
290
0
291
0
  0
VISUALSTYLE
  5
5B
102
{ACAD_REACTORS
330
16
102
}
330
16
100
AcDbVisualStyle
  2
Basic
 70
7
 90
1
 40
0.6
 62
7
290
0
291
1
  0
VISUALSTYLE
  5
5C
102
{ACAD_REACTORS
330
16
102
}
330
16
100
AcDbVisualStyle
  2
Brighten
 70
12
 90
2
 40
0.6
 62
7
290
0
291
1
  0
VISUALSTYLE
  5
5D
102
{ACAD_REACTORS
330
16
102
}
330
16
100
AcDbVisualStyle
  2
ColorChange
 70
16
 90
2
 40
0.6
 62
8
290
0
291
1
  0
VISUALSTYLE
  5
5E
102
{ACAD_REACTORS
330
16
102
}
330
16
100
AcDbVisualStyle
  2
Conceptual
 70
9
 90
3
 40
0.6
 62
7
290
0
291
0
  0
VISUALSTYLE
  5
5F
102
{ACAD_REACTORS
330
16
102
}
330
16
100
AcDbVisualStyle
  2
Dim
 70
11
 90
2
 40
0.6
 62
7
290
0
291
1
  0
VISUALSTYLE
  5
60
102
{ACAD_REACTORS
330
16
102
}
330
16
100
AcDbVisualStyle
  2
EdgeColorOff
 70
22
 90
2
 40
0.6
 62
7
290
0
291
1
  0
VISUALSTYLE
  5
61
102
{ACAD_REACTORS
330
16
102
}
330
16
100
AcDbVisualStyle
  2
Facepattern
 70
15
 90
2
 40
0.6
 62
7
290
0
291
1
  0
VISUALSTYLE
  5
62
102
{ACAD_REACTORS
330
16
102
}
330
16
100
AcDbVisualStyle
  2
Flat
 70
0
 90
2
 40
0.6
 62
7
290
0
291
1
  0
VISUALSTYLE
  5
63
102
{ACAD_REACTORS
330
16
102
}
330
16
100
AcDbVisualStyle
  2
FlatWithEdges
 70
1
 90
2
 40
0.6
 62
7
290
0
291
1
  0
VISUALSTYLE
  5
64
102
{ACAD_REACTORS
330
16
102
}
330
16
100
AcDbVisualStyle
  2
Gouraud
 70
2
 90
2
 40
0.6
 62
7
290
0
291
1
  0
VISUALSTYLE
  5
65
102
{ACAD_REACTORS
330
16
102
}
330
16
100
AcDbVisualStyle
  2
GouraudWithEdges
 70
3
 90
2
 40
0.6
 62
7
290
0
291
1
  0
VISUALSTYLE
  5
66
102
{ACAD_REACTORS
330
16
102
}
330
16
100
AcDbVisualStyle
  2
Hidden
 70
6
 90
1
 40
0.6
 62
7
290
0
291
0
  0
VISUALSTYLE
  5
67
102
{ACAD_REACTORS
330
16
102
}
330
16
100
AcDbVisualStyle
  2
JitterOff
 70
20
 90
2
 40
0.6
 62
7
290
0
291
1
  0
VISUALSTYLE
  5
68
102
{ACAD_REACTORS
330
16
102
}
330
16
100
AcDbVisualStyle
  2
Linepattern
 70
14
 90
2
 40
0.6
 62
7
290
0
291
1
  0
VISUALSTYLE
  5
69
102
{ACAD_REACTORS
330
16
102
}
330
16
100
AcDbVisualStyle
  2
Modeling
 70
10
 90
2
 40
0.6
 62
7
290
0
291
0
  0
VISUALSTYLE
  5
6A
102
{ACAD_REACTORS
330
16
102
}
330
16
100
AcDbVisualStyle
  2
OverhangOff
 70
21
 90
2
 40
0.6
 62
7
290
0
291
1
  0
VISUALSTYLE
  5
6B
102
{ACAD_REACTORS
330
16
102
}
330
16
100
AcDbVisualStyle
  2
Realistic
 70
8
 90
2
 40
0.6
 62
7
290
0
291
0
  0
VISUALSTYLE
  5
6C
102
{ACAD_REACTORS
330
16
102
}
330
16
100
AcDbVisualStyle
  2
Shaded
 70
27
 90
2
 40
0.6
 62
7
290
0
291
0
  0
VISUALSTYLE
  5
6D
102
{ACAD_REACTORS
330
16
102
}
330
16
100
AcDbVisualStyle
  2
Shaded with edges
 70
26
 90
2
 40
0.6
 62
7
290
0
291
0
  0
VISUALSTYLE
  5
6E
102
{ACAD_REACTORS
330
16
102
}
330
16
100
AcDbVisualStyle
  2
Shades of Gray
 70
23
 90
2
 40
0.6
 62
7
290
0
291
0
  0
VISUALSTYLE
  5
6F
102
{ACAD_REACTORS
330
16
102
}
330
16
100
AcDbVisualStyle
  2
Sketchy
 70
24
 90
1
 40
0.6
 62
7
290
0
291
0
  0
VISUALSTYLE
  5
70
102
{ACAD_REACTORS
330
16
102
}
330
16
100
AcDbVisualStyle
  2
Thicken
 70
13
 90
2
 40
0.6
 62
7
290
0
291
1
  0
VISUALSTYLE
  5
71
102
{ACAD_REACTORS
330
16
102
}
330
16
100
AcDbVisualStyle
  2
Wireframe
 70
5
 90
0
 40
0.6
 62
7
290
0
291
0
  0
VISUALSTYLE
  5
72
102
{ACAD_REACTORS
330
16
102
}
330
16
100
AcDbVisualStyle
  2
X-Ray
 70
25
 90
2
 40
0.5
 62
7
290
0
291
0
  0
DICTIONARYVAR
  5
BB
330
2D
100
DictionaryVariables
280
0
  1
1.3.0 @ 2026-01-06T17:07:11.096665+00:00
  0
ENDSEC
  0
EOF
