<?xml version="1.0" encoding="utf-8" standalone="no"?>
<!DOCTYPE svg PUBLIC "-//W3C//DTD SVG 1.1//EN"
  "http://www.w3.org/Graphics/SVG/1.1/DTD/svg11.dtd">
<svg xmlns:xlink="http://www.w3.org/1999/xlink" width="1152pt" height="341.126501pt" viewBox="0 0 1152 341.126501" xmlns="http://www.w3.org/2000/svg" version="1.1">
 <metadata>
  <rdf:RDF xmlns:dc="http://purl.org/dc/elements/1.1/" xmlns:cc="http://creativecommons.org/ns#" xmlns:rdf="http://www.w3.org/1999/02/22-rdf-syntax-ns#">
   <cc:Work>
    <dc:type rdf:resource="http://purl.org/dc/dcmitype/StillImage"/>
    <dc:date>2026-01-07T02:07:09.234814</dc:date>
    <dc:format>image/svg+xml</dc:format>
    <dc:creator>
     <cc:Agent>
      <dc:title>Matplotlib v3.10.1, https://matplotlib.org/</dc:title>
     </cc:Agent>
    </dc:creator>
   </cc:Work>
  </rdf:RDF>
 </metadata>
 <defs>
  <style type="text/css">*{stroke-linejoin: round; stroke-linecap: butt}</style>
 </defs>
 <g id="figure_1">
  <g id="patch_1">
   <path d="M 0 341.126501 
L 1152 341.126501 
L 1152 0 
L 0 0 
z
" style="fill: #ffffff"/>
  </g>
  <g id="axes_1">
   <g id="patch_2">
    <path d="M 0 341.126501 
L 1152 341.126501 
L 1152 0 
L 0 0 
z
" style="fill: #212830"/>
   </g>
   <g id="patch_3">
    <path d="M 1099.244598 323.602854 
L 1096.618078 322.652153 
L 1091.933683 320.960302 
L 1086.321973 318.946681 
L 1079.801581 316.638465 
L 1072.366004 314.045484 
L 1064.057357 311.15309 
L 1054.943946 307.972846 
L 1045.098322 304.521727 
L 1034.583495 300.821336 
L 1023.455218 296.898555 
L 1011.747065 292.774962 
L 999.48286 288.467035 
L 986.685589 283.979793 
L 973.376699 279.317479 
L 959.584858 274.488151 
L 945.340318 269.500928 
L 930.671072 264.367779 
L 915.597746 259.098944 
L 900.138887 253.700817 
L 884.31345 248.180335 
L 868.135071 242.545418 
L 851.615112 236.802687 
L 834.766445 230.957511 
L 817.6031 225.016505 
L 800.13713 218.987043 
L 782.379538 212.876984 
L 764.34134 206.693044 
L 746.033697 200.441545 
L 727.465569 194.129587 
L 708.645149 187.763926 
L 689.582648 181.348606 
L 670.290939 174.891144 
L 650.778621 168.403725 
L 631.046223 161.894713 
L 611.099817 155.360382 
L 590.960693 148.798919 
L 581.579227 145.762016 
L 580.954146 147.692988 
L 570.032486 144.157493 
L 549.569345 137.592213 
L 528.9499 131.040655 
L 508.195075 124.506129 
L 487.33102 118.008808 
L 466.3632 111.578311 
L 445.284682 105.22961 
L 424.101911 98.96589 
L 402.833232 92.801635 
L 381.479103 86.762804 
L 360.024955 80.85931 
L 338.471713 75.084649 
L 316.840411 69.442268 
L 295.140085 63.952042 
L 273.36057 58.624769 
L 251.506046 53.452821 
L 229.604841 48.441322 
L 207.671169 43.624149 
L 185.67861 39.031561 
L 163.590886 34.656351 
L 141.404496 30.467343 
L 119.147887 26.446174 
L 96.850044 22.598173 
L 74.528367 18.937855 
L 52.363636 15.50575 
L 52.363636 289.619382 
L 75.083946 289.714549 
L 101.613516 289.863526 
L 128.088511 290.030782 
L 154.501461 290.191412 
L 180.859108 290.351143 
L 207.134912 290.528597 
L 233.285402 290.716298 
L 259.295089 290.883048 
L 285.184597 291.015612 
L 310.967608 291.136935 
L 336.621239 291.282012 
L 362.137167 291.464611 
L 387.510347 291.681714 
L 412.720319 291.935676 
L 437.72367 292.245295 
L 462.481174 292.62703 
L 486.987683 293.082368 
L 511.228552 293.592703 
L 535.167531 294.134211 
L 558.812037 294.692467 
L 582.157632 295.274072 
L 605.182165 295.895962 
L 627.893349 296.563918 
L 650.288535 297.263522 
L 672.329361 297.979735 
L 693.977032 298.719993 
L 715.221008 299.504696 
L 736.087619 300.340196 
L 756.590689 301.208222 
L 776.702665 302.089189 
L 796.374039 302.983384 
L 815.566321 303.907832 
L 834.297497 304.873761 
L 852.599393 305.875056 
L 870.466623 306.89116 
L 887.847162 307.902945 
L 904.69168 308.913468 
L 920.992952 309.947225 
L 936.784376 311.025333 
L 952.093023 312.137393 
L 966.895048 313.248564 
L 981.12138 314.337123 
L 994.726276 315.409421 
L 1007.709002 316.471137 
L 1020.06894 317.513591 
L 1031.778828 318.530195 
L 1042.793467 319.520595 
L 1053.062133 320.487339 
L 1062.549546 321.434721 
L 1071.231993 322.350601 
L 1079.06062 323.205755 
L 1085.970201 323.977778 
L 1091.910978 324.666141 
L 1096.863983 325.269383 
L 1099.636364 325.62075 
L 1099.244598 323.602854 
" clip-path="url(#p2e01834c72)" style="fill: none; stroke: #ff0000; stroke-width: 0.72; stroke-linejoin: miter"/>
   </g>
   <g id="patch_4">
    <path d="M 491.891721 223.894529 
L 502.039846 223.894529 
L 502.039846 234.042654 
L 491.891721 234.042654 
L 491.891721 244.190778 
L 502.039846 244.190778 
" clip-path="url(#p2e01834c72)" style="fill: none; stroke: #ff0000; stroke-width: 0.72; stroke-linejoin: miter"/>
   </g>
   <g id="patch_5">
    <path d="M 511.173158 223.894529 
L 507.113908 223.894529 
L 507.113908 244.190778 
L 511.173158 244.190778 
" clip-path="url(#p2e01834c72)" style="fill: none; stroke: #ff0000; stroke-width: 0.72; stroke-linejoin: miter"/>
   </g>
   <g id="patch_6">
    <path d="M 513.202783 244.190778 
L 517.262032 244.190778 
L 517.262032 223.894529 
L 513.202783 223.894529 
" clip-path="url(#p2e01834c72)" style="fill: none; stroke: #ff0000; stroke-width: 0.72; stroke-linejoin: miter"/>
   </g>
   <g id="patch_7">
    <path d="M 375.178513 93.449345 
L 367.350941 91.295474 
L 369.504811 83.467903 
L 377.332383 85.621773 
L 375.178513 93.449345 
" clip-path="url(#p2e01834c72)" style="fill: none; stroke: #ff0000; stroke-width: 0.72; stroke-linejoin: miter"/>
   </g>
   <g id="patch_8">
    <path d="M 239.172123 128.383927 
L 249.320248 138.532052 
L 239.172123 148.680176 
L 229.023999 138.532052 
L 239.172123 128.383927 
" clip-path="url(#p2e01834c72)" style="fill: none; stroke: #ff0000; stroke-width: 0.72; stroke-linejoin: miter"/>
   </g>
   <g id="patch_9">
    <path d="M 397.522044 218.738582 
L 407.670169 208.590458 
L 417.818293 218.738582 
L 407.670169 228.886707 
L 397.522044 218.738582 
" clip-path="url(#p2e01834c72)" style="fill: none; stroke: #ff0000; stroke-width: 0.72; stroke-linejoin: miter"/>
   </g>
   <g id="patch_10">
    <path d="M 397.522044 167.349733 
L 407.670169 157.201609 
L 417.818293 167.349733 
L 407.670169 177.497858 
L 397.522044 167.349733 
" clip-path="url(#p2e01834c72)" style="fill: none; stroke: #ff0000; stroke-width: 0.72; stroke-linejoin: miter"/>
   </g>
   <g id="line2d_1">
    <path d="M 1061.33403 310.20275 
L 1060.673566 312.121907 
" clip-path="url(#p2e01834c72)" style="fill: none; stroke: #ff0000; stroke-width: 0.72; stroke-linecap: square"/>
   </g>
   <g id="line2d_2">
    <path d="M 1059.306684 319.073024 
L 1059.191049 321.099352 
" clip-path="url(#p2e01834c72)" style="fill: none; stroke: #ff0000; stroke-width: 0.72; stroke-linecap: square"/>
   </g>
   <g id="line2d_3">
    <path d="M 1023.034918 296.750526 
L 1022.368381 298.667582 
" clip-path="url(#p2e01834c72)" style="fill: none; stroke: #ff0000; stroke-width: 0.72; stroke-linecap: square"/>
   </g>
   <g id="line2d_4">
    <path d="M 1018.905124 315.378705 
L 1018.754893 317.402762 
" clip-path="url(#p2e01834c72)" style="fill: none; stroke: #ff0000; stroke-width: 0.72; stroke-linecap: square"/>
   </g>
   <g id="line2d_5">
    <path d="M 869.778342 243.117768 
L 869.109223 245.033925 
" clip-path="url(#p2e01834c72)" style="fill: none; stroke: #ff0000; stroke-width: 0.72; stroke-linecap: square"/>
   </g>
   <g id="line2d_6">
    <path d="M 856.921523 304.088157 
L 856.777362 306.112656 
" clip-path="url(#p2e01834c72)" style="fill: none; stroke: #ff0000; stroke-width: 0.72; stroke-linecap: square"/>
   </g>
   <g id="line2d_7">
    <path d="M 52.363636 138.532052 
L 552.498702 138.532052 
" clip-path="url(#p2e01834c72)" style="fill: none; stroke: #ffffff; stroke-width: 0.72; stroke-linecap: square"/>
   </g>
   <g id="line2d_8">
    <path d="M 226.994374 138.532052 
L 251.349873 138.532052 
" clip-path="url(#p2e01834c72)" style="fill: none; stroke: #ffffff; stroke-width: 0.72; stroke-linecap: square"/>
   </g>
   <g id="line2d_9">
    <path d="M 52.363636 255.529433 
L 1098.499287 323.333079 
" clip-path="url(#p2e01834c72)" style="fill: none; stroke: #ffffff; stroke-width: 0.72; stroke-linecap: square"/>
   </g>
   <g id="line2d_10">
    <path d="M 407.670169 291.884801 
L 407.670169 94.203514 
" clip-path="url(#p2e01834c72)" style="fill: none; stroke: #ffffff; stroke-width: 0.72; stroke-linecap: square"/>
   </g>
   <g id="line2d_11">
    <path d="M 407.670169 230.916332 
L 407.670169 206.560833 
" clip-path="url(#p2e01834c72)" style="fill: none; stroke: #ffffff; stroke-width: 0.72; stroke-linecap: square"/>
   </g>
   <g id="line2d_12">
    <path d="M 407.670169 179.527483 
L 407.670169 155.171984 
" clip-path="url(#p2e01834c72)" style="fill: none; stroke: #ffffff; stroke-width: 0.72; stroke-linecap: square"/>
   </g>
  </g>
 </g>
 <defs>
  <clipPath id="p2e01834c72">
   <rect x="0" y="0" width="1152" height="341.126501"/>
  </clipPath>
 </defs>
</svg>
