<?xml version="1.0" encoding="utf-8" standalone="no"?>
<!DOCTYPE svg PUBLIC "-//W3C//DTD SVG 1.1//EN"
  "http://www.w3.org/Graphics/SVG/1.1/DTD/svg11.dtd">
<svg xmlns:xlink="http://www.w3.org/1999/xlink" width="1152pt" height="320.741282pt" viewBox="0 0 1152 320.741282" xmlns="http://www.w3.org/2000/svg" version="1.1">
 <metadata>
  <rdf:RDF xmlns:dc="http://purl.org/dc/elements/1.1/" xmlns:cc="http://creativecommons.org/ns#" xmlns:rdf="http://www.w3.org/1999/02/22-rdf-syntax-ns#">
   <cc:Work>
    <dc:type rdf:resource="http://purl.org/dc/dcmitype/StillImage"/>
    <dc:date>2026-01-07T02:07:19.315369</dc:date>
    <dc:format>image/svg+xml</dc:format>
    <dc:creator>
     <cc:Agent>
      <dc:title>Matplotlib v3.10.1, https://matplotlib.org/</dc:title>
     </cc:Agent>
    </dc:creator>
   </cc:Work>
  </rdf:RDF>
 </metadata>
 <defs>
  <style type="text/css">*{stroke-linejoin: round; stroke-linecap: butt}</style>
 </defs>
 <g id="figure_1">
  <g id="patch_1">
   <path d="M 0 320.741282 
L 1152 320.741282 
L 1152 0 
L 0 0 
z
" style="fill: #ffffff"/>
  </g>
  <g id="axes_1">
   <g id="patch_2">
    <path d="M 0 320.741282 
L 1152 320.741282 
L 1152 0 
L 0 0 
z
" style="fill: #212830"/>
   </g>
   <g id="patch_3">
    <path d="M 1099.636364 40.947076 
L 1080.359009 38.271329 
L 1059.410574 35.540497 
L 1038.424615 32.978257 
L 1017.405355 30.579914 
L 996.362405 28.346111 
L 975.298163 26.279701 
L 954.209827 24.380279 
L 933.103052 22.643625 
L 911.992721 21.069866 
L 890.888172 19.663567 
L 869.789333 18.427453 
L 848.700091 17.358837 
L 827.634282 16.458164 
L 806.602569 15.729654 
L 785.604559 15.178139 
L 764.641608 14.802022 
L 743.726625 14.600805 
L 722.87079 14.579149 
L 702.0758 14.742254 
L 681.342197 15.089948 
L 660.683182 15.621282 
L 640.112487 16.340628 
L 619.632175 17.254306 
L 599.24553 18.362317 
L 578.967239 19.663513 
L 558.813584 21.162838 
L 538.78777 22.866984 
L 518.896613 24.774624 
L 499.160443 26.884856 
L 479.594844 29.204159 
L 460.205482 31.737104 
L 441.007054 34.480348 
L 422.024073 37.43436 
L 403.272061 40.60404 
L 384.764426 43.985884 
L 366.539986 47.565949 
L 348.644979 51.342071 
L 331.107061 55.316642 
L 313.957378 59.47534 
L 297.252229 63.797698 
L 281.041397 68.276651 
L 265.359298 72.898488 
L 250.253995 77.629663 
L 235.784371 82.440377 
L 221.98961 87.312399 
L 208.895617 92.213593 
L 196.533007 97.102962 
L 184.922097 101.953965 
L 174.058812 106.747872 
L 163.928037 111.457387 
L 154.513189 116.057846 
L 145.788129 120.540614 
L 137.713305 124.90564 
L 130.243172 129.148618 
L 123.336252 133.262173 
L 116.954643 137.247232 
L 111.058791 141.112817 
L 105.609038 144.86812 
L 100.567516 148.519022 
L 95.903646 152.067344 
L 91.592395 155.519682 
L 87.610231 158.888453 
L 83.927766 162.191004 
L 80.512947 165.433575 
L 74.369359 171.71974 
L 69.047736 177.660866 
L 66.699169 180.497861 
L 64.565366 183.265907 
L 62.643493 185.988846 
L 60.920201 188.690516 
L 59.378038 191.377744 
L 57.998596 194.047084 
L 56.770041 196.680765 
L 55.687536 199.264692 
L 54.753225 201.786574 
L 53.972234 204.245028 
L 53.348263 206.648332 
L 52.8812 209.005525 
L 52.566671 211.324151 
L 52.38747 213.834851 
L 52.363636 215.886257 
L 52.475518 218.176941 
L 52.745785 220.453872 
L 53.193747 222.707205 
L 53.844773 224.941463 
L 54.721933 227.165392 
L 55.8354 229.380812 
L 57.1794 231.580345 
L 58.738442 233.749439 
L 60.501661 235.874366 
L 62.467914 237.944711 
L 64.647529 239.956557 
L 67.051201 241.910358 
L 69.685897 243.81082 
L 72.548809 245.663478 
L 75.637204 247.474314 
L 78.948063 249.246014 
L 82.491102 250.979676 
L 86.280841 252.675681 
L 90.341481 254.336224 
L 94.696831 255.967833 
L 99.370452 257.580402 
L 104.388024 259.184806 
L 115.571376 262.402701 
L 121.818028 264.023745 
L 128.570726 265.656234 
L 135.887887 267.305131 
L 143.833508 268.975221 
L 152.475412 270.668362 
L 161.890166 272.381452 
L 172.160371 274.109288 
L 183.365258 275.849543 
L 195.570953 277.598222 
L 208.827592 279.342102 
L 223.168449 281.06223 
L 238.60033 282.74411 
L 255.086942 284.375583 
L 272.560107 285.93545 
L 290.941628 287.40586 
L 310.13366 288.781676 
L 330.022262 290.055513 
L 350.515209 291.218653 
L 371.533778 292.275413 
L 392.997794 293.230705 
L 437.117212 294.845859 
L 462.083913 295.638161 
L 461.995742 298.529508 
L 505.190138 299.786767 
L 551.150981 300.778083 
L 668.424632 302.709159 
L 715.513485 303.247925 
L 905.903883 304.910622 
L 1000.786934 305.571086 
L 1099.636364 306.162133 
L 1099.636364 40.947076 
L 1099.636364 40.947076 
" clip-path="url(#p3d7148abf3)" style="fill: none; stroke: #ff0000; stroke-width: 0.72; stroke-linejoin: miter"/>
   </g>
   <g id="patch_4">
    <path d="M 653.653497 235.374069 
L 639.190044 235.374069 
L 639.190044 249.837522 
L 653.653497 249.837522 
L 653.653497 264.300976 
L 639.190044 264.300976 
" clip-path="url(#p3d7148abf3)" style="fill: none; stroke: #ff0000; stroke-width: 0.72; stroke-linejoin: miter"/>
   </g>
   <g id="patch_5">
    <path d="M 668.11695 235.374069 
L 668.11695 264.300976 
" clip-path="url(#p3d7148abf3)" style="fill: none; stroke: #ff0000; stroke-width: 0.72; stroke-linejoin: miter"/>
   </g>
   <g id="patch_6">
    <path d="M 633.733695 28.207542 
L 622.174435 28.723345 
L 621.658632 17.164085 
L 633.217892 16.648282 
L 633.733695 28.207542 
" clip-path="url(#p3d7148abf3)" style="fill: none; stroke: #ff0000; stroke-width: 0.72; stroke-linejoin: miter"/>
   </g>
   <g id="patch_7">
    <path d="M 277.202766 81.471088 
L 266.104113 84.742549 
L 262.832653 73.643896 
L 273.931306 70.372435 
L 277.202766 81.471088 
" clip-path="url(#p3d7148abf3)" style="fill: none; stroke: #ff0000; stroke-width: 0.72; stroke-linejoin: miter"/>
   </g>
   <g id="patch_8">
    <path d="M 97.861352 169.122504 
L 93.555703 172.986702 
L 83.89521 162.222578 
L 88.200859 158.358381 
L 97.861352 169.122504 
" clip-path="url(#p3d7148abf3)" style="fill: none; stroke: #ff0000; stroke-width: 0.72; stroke-linejoin: miter"/>
   </g>
   <g id="patch_9">
    <path d="M 75.496233 230.168428 
L 80.193989 233.545072 
L 71.752378 245.289462 
L 67.054623 241.912817 
L 75.496233 230.168428 
" clip-path="url(#p3d7148abf3)" style="fill: none; stroke: #ff0000; stroke-width: 0.72; stroke-linejoin: miter"/>
   </g>
   <g id="patch_10">
    <path d="M 352.370968 279.726574 
L 363.927136 280.307549 
L 363.346161 291.863716 
L 351.789993 291.282742 
L 352.370968 279.726574 
" clip-path="url(#p3d7148abf3)" style="fill: none; stroke: #ff0000; stroke-width: 0.72; stroke-linejoin: miter"/>
   </g>
   <g id="patch_11">
    <path d="M 954.617302 159.654085 
L 954.523581 154.917863 
L 954.242585 150.190005 
L 953.774808 145.478862 
L 953.121078 140.792753 
L 952.282549 136.139956 
L 951.260701 131.528686 
L 950.057341 126.967089 
L 948.674592 122.46322 
L 947.114897 118.025033 
L 945.38101 113.660367 
L 943.475994 109.376931 
L 941.403213 105.182288 
L 939.166327 101.083848 
L 936.769288 97.088848 
L 934.216329 93.204344 
L 931.511958 89.437196 
L 928.660952 85.794058 
L 925.668346 82.281364 
L 922.539425 78.905317 
L 919.279714 75.671879 
L 915.894972 72.586763 
L 912.391175 69.655415 
L 908.774512 66.883013 
L 905.05137 64.274453 
L 901.228325 61.834342 
L 897.312127 59.566991 
L 893.309695 57.476402 
L 889.228096 55.566268 
L 885.074539 53.839964 
L 880.856359 52.300536 
L 876.581006 50.950705 
L 872.256031 49.792854 
L 867.889073 48.829029 
L 863.487842 48.06093 
L 859.060114 47.489916 
L 854.613706 47.116994 
L 850.156473 46.942822 
L 845.696285 46.967709 
L 841.241021 47.191611 
L 836.798548 47.614132 
L 832.376712 48.234525 
L 827.983323 49.051696 
L 823.62614 50.064201 
L 819.312858 51.270252 
L 815.051094 52.667719 
L 810.848376 54.254133 
L 806.712125 56.026694 
L 802.649647 57.98227 
L 798.668117 60.117408 
L 794.774565 62.428337 
L 790.97587 64.910976 
L 787.278738 67.560939 
L 783.6897 70.373548 
L 780.215095 73.343834 
L 776.861059 76.466552 
L 773.633515 79.736187 
L 770.538163 83.146965 
L 767.580471 86.692861 
L 764.765662 90.367613 
L 762.098706 94.164732 
L 759.584315 98.077511 
L 757.226929 102.09904 
L 755.03071 106.222216 
L 752.999539 110.439758 
L 751.137001 114.744217 
L 749.446387 119.127991 
L 747.930683 123.583338 
L 746.592564 128.102389 
L 745.434395 132.677164 
L 744.45822 137.299582 
L 743.665765 141.96148 
L 743.058428 146.654625 
L 742.637282 151.370728 
L 742.40307 156.101461 
L 742.356207 160.838467 
L 742.496775 165.573382 
L 742.824527 170.297843 
L 743.338882 175.003506 
L 744.038933 179.682061 
L 744.923443 184.325244 
L 745.99085 188.924856 
L 747.23927 193.472772 
L 748.666497 197.960962 
L 750.27001 202.381499 
L 752.046978 206.726575 
L 753.994263 210.988516 
L 756.108424 215.159796 
L 758.38573 219.233048 
L 760.822156 223.201078 
L 763.413402 227.056878 
L 766.154889 230.793639 
L 769.041778 234.40476 
L 772.068968 237.883865 
L 775.231114 241.224809 
L 778.52263 244.421692 
L 781.937705 247.468867 
L 785.470307 250.360953 
L 789.114196 253.092842 
L 792.862937 255.65971 
L 796.70991 258.057023 
L 800.648321 260.280547 
L 804.671213 262.326356 
L 808.771483 264.190836 
L 812.941888 265.870694 
L 817.175064 267.362965 
L 821.463533 268.665011 
L 825.799723 269.774534 
L 830.175976 270.689574 
L 834.584561 271.408515 
L 839.017694 271.930087 
L 843.467546 272.25337 
L 847.926256 272.377792 
L 852.385951 272.303133 
L 856.838754 272.029526 
L 861.276802 271.557453 
L 865.692257 270.887749 
L 870.077319 270.021595 
L 874.424246 268.960523 
L 878.725359 267.706405 
L 882.973064 266.261457 
L 887.159856 264.62823 
L 891.278344 262.80961 
L 895.321252 260.808807 
L 899.281441 258.629355 
L 903.151917 256.275105 
L 906.925844 253.750212 
L 910.596557 251.059137 
L 914.157573 248.206632 
L 917.602603 245.197735 
L 920.925564 242.037761 
L 924.120585 238.732289 
L 927.182025 235.287157 
L 930.104476 231.708451 
L 932.882778 228.00249 
L 935.512023 224.175819 
L 937.987569 220.235197 
L 940.305043 216.187583 
L 942.460352 212.040126 
L 944.44969 207.800151 
L 946.269543 203.475144 
L 947.916697 199.072746 
L 949.388244 194.600731 
L 950.681585 190.066997 
L 951.794435 185.47955 
L 952.724828 180.846494 
L 953.471123 176.17601 
L 954.032 171.476346 
L 954.406469 166.755804 
L 954.593869 162.022719 
L 954.617302 159.654085 
L 954.617302 159.654085 
" clip-path="url(#p3d7148abf3)" style="fill: none; stroke: #ff0000; stroke-width: 0.72; stroke-linejoin: miter"/>
   </g>
   <g id="patch_12">
    <path d="M 399.785098 145.190631 
L 414.248551 159.654085 
L 399.785098 174.117538 
L 385.321645 159.654085 
L 399.785098 145.190631 
" clip-path="url(#p3d7148abf3)" style="fill: none; stroke: #ff0000; stroke-width: 0.72; stroke-linejoin: miter"/>
   </g>
   <g id="patch_13">
    <path d="M 841.124225 145.190631 
L 855.587679 159.654085 
L 841.124225 174.117538 
L 826.660772 159.654085 
L 841.124225 145.190631 
" clip-path="url(#p3d7148abf3)" style="fill: none; stroke: #ff0000; stroke-width: 0.72; stroke-linejoin: miter"/>
   </g>
   <g id="patch_14">
    <path d="M 481.084622 224.889562 
L 494.589931 240.251514 
L 479.227978 253.756823 
L 465.722669 238.394871 
L 481.084622 224.889562 
" clip-path="url(#p3d7148abf3)" style="fill: none; stroke: #ff0000; stroke-width: 0.72; stroke-linejoin: miter"/>
   </g>
   <g id="patch_15">
    <path d="M 992.161231 257.760262 
L 1005.66654 273.122215 
L 990.304587 286.627524 
L 976.799278 271.265571 
L 992.161231 257.760262 
" clip-path="url(#p3d7148abf3)" style="fill: none; stroke: #ff0000; stroke-width: 0.72; stroke-linejoin: miter"/>
   </g>
   <g id="patch_16">
    <path d="M 400.116773 199.047645 
L 414.580226 184.584191 
L 429.043679 199.047645 
L 414.580226 213.511098 
L 400.116773 199.047645 
" clip-path="url(#p3d7148abf3)" style="fill: none; stroke: #ff0000; stroke-width: 0.72; stroke-linejoin: miter"/>
   </g>
   <g id="patch_17">
    <path d="M 400.116773 133.715698 
L 414.580226 119.252245 
L 429.043679 133.715698 
L 414.580226 148.179151 
L 400.116773 133.715698 
" clip-path="url(#p3d7148abf3)" style="fill: none; stroke: #ff0000; stroke-width: 0.72; stroke-linejoin: miter"/>
   </g>
   <g id="line2d_1">
    <path d="M 86.756523 159.654085 
L 1099.636364 159.654085 
" clip-path="url(#p3d7148abf3)" style="fill: none; stroke: #ffffff; stroke-width: 0.72; stroke-linecap: square"/>
   </g>
   <g id="line2d_2">
    <path d="M 382.428954 159.654085 
L 417.141242 159.654085 
" clip-path="url(#p3d7148abf3)" style="fill: none; stroke: #ffffff; stroke-width: 0.72; stroke-linecap: square"/>
   </g>
   <g id="line2d_3">
    <path d="M 823.768081 159.654085 
L 858.480369 159.654085 
" clip-path="url(#p3d7148abf3)" style="fill: none; stroke: #ffffff; stroke-width: 0.72; stroke-linecap: square"/>
   </g>
   <g id="line2d_4">
    <path d="M 52.531293 211.819814 
L 1099.636364 279.166032 
" clip-path="url(#p3d7148abf3)" style="fill: none; stroke: #ffffff; stroke-width: 0.72; stroke-linecap: square"/>
   </g>
   <g id="line2d_5">
    <path d="M 462.835943 238.209206 
L 497.476657 240.437179 
" clip-path="url(#p3d7148abf3)" style="fill: none; stroke: #ffffff; stroke-width: 0.72; stroke-linecap: square"/>
   </g>
   <g id="line2d_6">
    <path d="M 973.912552 271.079907 
L 1008.553266 273.307879 
" clip-path="url(#p3d7148abf3)" style="fill: none; stroke: #ffffff; stroke-width: 0.72; stroke-linecap: square"/>
   </g>
   <g id="line2d_7">
    <path d="M 848.483825 46.928822 
L 848.483825 44.036132 
" clip-path="url(#p3d7148abf3)" style="fill: none; stroke: #ff0000; stroke-width: 0.72; stroke-linecap: square"/>
   </g>
   <g id="line2d_8">
    <path d="M 848.483825 272.379347 
L 848.483825 275.272038 
" clip-path="url(#p3d7148abf3)" style="fill: none; stroke: #ff0000; stroke-width: 0.72; stroke-linecap: square"/>
   </g>
   <g id="line2d_9">
    <path d="M 954.617302 159.654085 
L 957.509993 159.654085 
" clip-path="url(#p3d7148abf3)" style="fill: none; stroke: #ff0000; stroke-width: 0.72; stroke-linecap: square"/>
   </g>
   <g id="line2d_10">
    <path d="M 742.350349 159.654085 
L 739.457658 159.654085 
" clip-path="url(#p3d7148abf3)" style="fill: none; stroke: #ff0000; stroke-width: 0.72; stroke-linecap: square"/>
   </g>
   <g id="line2d_11">
    <path d="M 414.580226 294.070738 
L 414.580226 38.692605 
" clip-path="url(#p3d7148abf3)" style="fill: none; stroke: #ffffff; stroke-width: 0.72; stroke-linecap: square"/>
   </g>
   <g id="line2d_12">
    <path d="M 414.580226 216.403789 
L 414.580226 181.691501 
" clip-path="url(#p3d7148abf3)" style="fill: none; stroke: #ffffff; stroke-width: 0.72; stroke-linecap: square"/>
   </g>
   <g id="line2d_13">
    <path d="M 414.580226 151.071842 
L 414.580226 116.359554 
" clip-path="url(#p3d7148abf3)" style="fill: none; stroke: #ffffff; stroke-width: 0.72; stroke-linecap: square"/>
   </g>
  </g>
 </g>
 <defs>
  <clipPath id="p3d7148abf3">
   <rect x="0" y="0" width="1152" height="320.741282"/>
  </clipPath>
 </defs>
</svg>
