  0
SECTION
  2
HEADER
  9
$ACADVER
  1
AC1021
  9
$ACADMAINTVER
 70
25
  9
$DWGCODEPAGE
  3
ANSI_1252
  9
$LASTSAVEDBY
  1
ezdxf
  9
$INSBASE
 10
0.0
 20
0.0
 30
0.0
  9
$EXTMIN
 10
1e+20
 20
1e+20
 30
1e+20
  9
$EXTMAX
 10
-1e+20
 20
-1e+20
 30
-1e+20
  9
$LIMMIN
 10
0.0
 20
0.0
  9
$LIMMAX
 10
420.0
 20
297.0
  9
$ORTHOMODE
 70
0
  9
$REGENMODE
 70
1
  9
$FILLMODE
 70
1
  9
$QTEXTMODE
 70
0
  9
$MIRRTEXT
 70
1
  9
$LTSCALE
 40
1.0
  9
$ATTMODE
 70
1
  9
$TEXTSIZE
 40
2.5
  9
$TRACEWID
 40
1.0
  9
$TEXTSTYLE
  7
OpenSans
  9
$CLAYER
  8
0
  9
$CELTYPE
  6
ByLayer
  9
$CECOLOR
 62
256
  9
$CELTSCALE
 40
1.0
  9
$DISPSILH
 70
0
  9
$DIMSCALE
 40
1.0
  9
$DIMASZ
 40
0.175
  9
$DIMEXO
 40
0.125
  9
$DIMDLI
 40
3.75
  9
$DIMRND
 40
0.0
  9
$DIMDLE
 40
0.0
  9
$DIMEXE
 40
0.375
  9
$DIMTP
 40
0.0
  9
$DIMTM
 40
0.0
  9
$DIMTXT
 40
0.25
  9
$DIMCEN
 40
2.5
  9
$DIMTSZ
 40
0.0
  9
$DIMTOL
 70
0
  9
$DIMLIM
 70
0
  9
$DIMTIH
 70
0
  9
$DIMTOH
 70
0
  9
$DIMSE1
 70
0
  9
$DIMSE2
 70
0
  9
$DIMTAD
 70
1
  9
$DIMZIN
 70
12
  9
$DIMBLK
  1
ARCHTICK
  9
$DIMASO
 70
1
  9
$DIMSHO
 70
1
  9
$DIMPOST
  1

  9
$DIMAPOST
  1

  9
$DIMALT
 70
0
  9
$DIMALTD
 70
3
  9
$DIMALTF
 40
0.03937007874
  9
$DIMLFAC
 40
100.0
  9
$DIMTOFL
 70
1
  9
$DIMTVP
 40
0.0
  9
$DIMTIX
 70
0
  9
$DIMSOXD
 70
0
  9
$DIMSAH
 70
0
  9
$DIMBLK1
  1

  9
$DIMBLK2
  1

  9
$DIMSTYLE
  2
EZDXF
  9
$DIMCLRD
 70
0
  9
$DIMCLRE
 70
0
  9
$DIMCLRT
 70
0
  9
$DIMTFAC
 40
0.5
  9
$DIMGAP
 40
0.1
  9
$DIMJUST
 70
0
  9
$DIMSD1
 70
0
  9
$DIMSD2
 70
0
  9
$DIMTOLJ
 70
0
  9
$DIMTZIN
 70
8
  9
$DIMALTZ
 70
0
  9
$DIMALTTZ
 70
0
  9
$DIMUPT
 70
1
  9
$DIMDEC
 70
2
  9
$DIMTDEC
 70
2
  9
$DIMALTU
 70
2
  9
$DIMALTTD
 70
3
  9
$DIMTXSTY
  7
OpenSansCondensed-Light
  9
$DIMAUNIT
 70
0
  9
$DIMADEC
 70
2
  9
$DIMALTRND
 40
0.0
  9
$DIMAZIN
 70
3
  9
$DIMDSEP
 70
46
  9
$DIMATFIT
 70
3
  9
$DIMFRAC
 70
0
  9
$DIMLDRBLK
  1

  9
$DIMLUNIT
 70
2
  9
$DIMLWD
 70
-2
  9
$DIMLWE
 70
-2
  9
$DIMTMOVE
 70
2
  9
$DIMFXL
 40
1.0
  9
$DIMFXLON
 70
0
  9
$DIMJOGANG
 40
0.785398163397
  9
$DIMTFILL
 70
0
  9
$DIMTFILLCLR
 70
0
  9
$DIMARCSYM
 70
0
  9
$DIMLTYPE
  6

  9
$DIMLTEX1
  6

  9
$DIMLTEX2
  6

  9
$LUNITS
 70
2
  9
$LUPREC
 70
4
  9
$SKETCHINC
 40
1.0
  9
$FILLETRAD
 40
10.0
  9
$AUNITS
 70
0
  9
$AUPREC
 70
2
  9
$MENU
  1
.
  9
$ELEVATION
 40
0.0
  9
$PELEVATION
 40
0.0
  9
$THICKNESS
 40
0.0
  9
$LIMCHECK
 70
0
  9
$CHAMFERA
 40
0.0
  9
$CHAMFERB
 40
0.0
  9
$CHAMFERC
 40
0.0
  9
$CHAMFERD
 40
0.0
  9
$SKPOLY
 70
0
  9
$TDCREATE
 40
2461048.088425926
  9
$TDUCREATE
 40
2458532.153996898
  9
$TDUPDATE
 40
2461048.088425926
  9
$TDUUPDATE
 40
2458532.1544311
  9
$TDINDWG
 40
0.0
  9
$TDUSRTIMER
 40
0.0
  9
$USRTIMER
 70
1
  9
$ANGBASE
 50
0.0
  9
$ANGDIR
 70
0
  9
$PDMODE
 70
0
  9
$PDSIZE
 40
0.0
  9
$PLINEWID
 40
0.0
  9
$SPLFRAME
 70
0
  9
$SPLINETYPE
 70
6
  9
$SPLINESEGS
 70
8
  9
$HANDSEED
  5
B0
  9
$SURFTAB1
 70
6
  9
$SURFTAB2
 70
6
  9
$SURFTYPE
 70
6
  9
$SURFU
 70
6
  9
$SURFV
 70
6
  9
$UCSBASE
  2

  9
$UCSNAME
  2

  9
$UCSORG
 10
0.0
 20
0.0
 30
0.0
  9
$UCSXDIR
 10
1.0
 20
0.0
 30
0.0
  9
$UCSYDIR
 10
0.0
 20
1.0
 30
0.0
  9
$UCSORTHOREF
  2

  9
$UCSORTHOVIEW
 70
0
  9
$UCSORGTOP
 10
0.0
 20
0.0
 30
0.0
  9
$UCSORGBOTTOM
 10
0.0
 20
0.0
 30
0.0
  9
$UCSORGLEFT
 10
0.0
 20
0.0
 30
0.0
  9
$UCSORGRIGHT
 10
0.0
 20
0.0
 30
0.0
  9
$UCSORGFRONT
 10
0.0
 20
0.0
 30
0.0
  9
$UCSORGBACK
 10
0.0
 20
0.0
 30
0.0
  9
$PUCSBASE
  2

  9
$PUCSNAME
  2

  9
$PUCSORG
 10
0.0
 20
0.0
 30
0.0
  9
$PUCSXDIR
 10
1.0
 20
0.0
 30
0.0
  9
$PUCSYDIR
 10
0.0
 20
1.0
 30
0.0
  9
$PUCSORTHOREF
  2

  9
$PUCSORTHOVIEW
 70
0
  9
$PUCSORGTOP
 10
0.0
 20
0.0
 30
0.0
  9
$PUCSORGBOTTOM
 10
0.0
 20
0.0
 30
0.0
  9
$PUCSORGLEFT
 10
0.0
 20
0.0
 30
0.0
  9
$PUCSORGRIGHT
 10
0.0
 20
0.0
 30
0.0
  9
$PUCSORGFRONT
 10
0.0
 20
0.0
 30
0.0
  9
$PUCSORGBACK
 10
0.0
 20
0.0
 30
0.0
  9
$USERI1
 70
0
  9
$USERI2
 70
0
  9
$USERI3
 70
0
  9
$USERI4
 70
0
  9
$USERI5
 70
0
  9
$USERR1
 40
0.0
  9
$USERR2
 40
0.0
  9
$USERR3
 40
0.0
  9
$USERR4
 40
0.0
  9
$USERR5
 40
0.0
  9
$WORLDVIEW
 70
1
  9
$SHADEDGE
 70
3
  9
$SHADEDIF
 70
70
  9
$TILEMODE
 70
1
  9
$MAXACTVP
 70
64
  9
$PINSBASE
 10
0.0
 20
0.0
 30
0.0
  9
$PLIMCHECK
 70
0
  9
$PEXTMIN
 10
1e+20
 20
1e+20
 30
1e+20
  9
$PEXTMAX
 10
-1e+20
 20
-1e+20
 30
-1e+20
  9
$PLIMMIN
 10
0.0
 20
0.0
  9
$PLIMMAX
 10
420.0
 20
297.0
  9
$UNITMODE
 70
0
  9
$VISRETAIN
 70
1
  9
$PLINEGEN
 70
0
  9
$PSLTSCALE
 70
1
  9
$TREEDEPTH
 70
3020
  9
$CMLSTYLE
  2
Standard
  9
$CMLJUST
 70
0
  9
$CMLSCALE
 40
20.0
  9
$PROXYGRAPHICS
 70
1
  9
$MEASUREMENT
 70
1
  9
$CELWEIGHT
370
-1
  9
$ENDCAPS
280
0
  9
$JOINSTYLE
280
0
  9
$LWDISPLAY
290
0
  9
$INSUNITS
 70
6
  9
$HYPERLINKBASE
  1

  9
$STYLESHEET
  1

  9
$XEDIT
290
1
  9
$CEPSNTYPE
380
0
  9
$PSTYLEMODE
290
1
  9
$FINGERPRINTGUID
  2
{4AE8DCF2-0AE2-447B-BCA4-2B3701E1F629}
  9
$VERSIONGUID
  2
{65F7F00D-047D-4A96-A7FC-FF4C78C4ADA6}
  9
$EXTNAMES
290
1
  9
$PSVPSCALE
 40
0.0
  9
$OLESTARTUP
290
0
  9
$SORTENTS
280
127
  9
$INDEXCTL
280
0
  9
$HIDETEXT
280
1
  9
$XCLIPFRAME
290
1
  9
$HALOGAP
280
0
  9
$OBSCOLOR
 70
257
  9
$OBSLTYPE
280
0
  9
$INTERSECTIONDISPLAY
280
0
  9
$INTERSECTIONCOLOR
 70
257
  9
$DIMASSOC
280
2
  9
$PROJECTNAME
  1

  9
$CAMERADISPLAY
290
0
  9
$LENSLENGTH
 40
50.0
  9
$CAMERAHEIGHT
 40
0.0
  9
$STEPSPERSEC
 40
24.0
  9
$STEPSIZE
 40
100.0
  9
$3DDWFPREC
 40
2.0
  9
$PSOLWIDTH
 40
0.005
  9
$PSOLHEIGHT
 40
0.08
  9
$LOFTANG1
 40
1.570796326795
  9
$LOFTANG2
 40
1.570796326795
  9
$LOFTMAG1
 40
0.0
  9
$LOFTMAG2
 40
0.0
  9
$LOFTPARAM
 70
7
  9
$LOFTNORMALS
280
1
  9
$LATITUDE
 40
37.795
  9
$LONGITUDE
 40
-122.394
  9
$NORTHDIRECTION
 40
0.0
  9
$TIMEZONE
 70
-8000
  9
$LIGHTGLYPHDISPLAY
280
1
  9
$TILEMODELIGHTSYNCH
280
1
  9
$CMATERIAL
347
20
  9
$SOLIDHIST
280
0
  9
$SHOWHIST
280
1
  9
$DWFFRAME
280
2
  9
$DGNFRAME
280
2
  9
$REALWORLDSCALE
290
1
  9
$INTERFERECOLOR
 62
256
  9
$CSHADOW
280
0
  9
$SHADOWPLANELOCATION
 40
0.0
  0
ENDSEC
  0
SECTION
  2
CLASSES
  0
CLASS
  1
ACDBDICTIONARYWDFLT
  2
AcDbDictionaryWithDefault
  3
ObjectDBX Classes
 90
0
 91
0
280
0
281
0
  0
CLASS
  1
SUN
  2
AcDbSun
  3
SCENEOE
 90
1153
 91
0
280
0
281
0
  0
CLASS
  1
VISUALSTYLE
  2
AcDbVisualStyle
  3
ObjectDBX Classes
 90
4095
 91
0
280
0
281
0
  0
CLASS
  1
MATERIAL
  2
AcDbMaterial
  3
ObjectDBX Classes
 90
1153
 91
0
280
0
281
0
  0
CLASS
  1
SCALE
  2
AcDbScale
  3
ObjectDBX Classes
 90
1153
 91
0
280
0
281
0
  0
CLASS
  1
TABLESTYLE
  2
AcDbTableStyle
  3
ObjectDBX Classes
 90
4095
 91
0
280
0
281
0
  0
CLASS
  1
MLEADERSTYLE
  2
AcDbMLeaderStyle
  3
ACDB_MLEADERSTYLE_CLASS
 90
4095
 91
0
280
0
281
0
  0
CLASS
  1
DICTIONARYVAR
  2
AcDbDictionaryVar
  3
ObjectDBX Classes
 90
0
 91
0
280
0
281
0
  0
CLASS
  1
CELLSTYLEMAP
  2
AcDbCellStyleMap
  3
ObjectDBX Classes
 90
1152
 91
0
280
0
281
0
  0
CLASS
  1
MENTALRAYRENDERSETTINGS
  2
AcDbMentalRayRenderSettings
  3
SCENEOE
 90
1024
 91
0
280
0
281
0
  0
CLASS
  1
ACDBDETAILVIEWSTYLE
  2
AcDbDetailViewStyle
  3
ObjectDBX Classes
 90
1025
 91
0
280
0
281
0
  0
CLASS
  1
ACDBSECTIONVIEWSTYLE
  2
AcDbSectionViewStyle
  3
ObjectDBX Classes
 90
1025
 91
0
280
0
281
0
  0
CLASS
  1
RASTERVARIABLES
  2
AcDbRasterVariables
  3
ISM
 90
0
 91
0
280
0
281
0
  0
CLASS
  1
ACDBPLACEHOLDER
  2
AcDbPlaceHolder
  3
ObjectDBX Classes
 90
0
 91
0
280
0
281
0
  0
CLASS
  1
LAYOUT
  2
AcDbLayout
  3
ObjectDBX Classes
 90
0
 91
0
280
0
281
0
  0
ENDSEC
  0
SECTION
  2
TABLES
  0
TABLE
  2
VPORT
  5
8
330
0
100
AcDbSymbolTable
 70
1
  0
VPORT
  5
23
330
8
100
AcDbSymbolTableRecord
100
AcDbViewportTableRecord
  2
*Active
 70
0
 10
0.0
 20
0.0
 11
1.0
 21
1.0
 12
0.0
 22
0.0
 13
0.0
 23
0.0
 14
0.5
 24
0.5
 15
0.5
 25
0.5
 16
0.0
 26
0.0
 36
1.0
 17
0.0
 27
0.0
 37
0.0
 40
1000.0
 41
1.34
 42
50.0
 43
0.0
 44
0.0
 50
0.0
 51
0.0
 71
0
 72
1000
 73
1
 74
3
 75
0
 76
0
 77
0
 78
0
281
0
 65
0
146
0.0
  0
ENDTAB
  0
TABLE
  2
LTYPE
  5
2
330
0
100
AcDbSymbolTable
 70
21
  0
LTYPE
  5
24
330
2
100
AcDbSymbolTableRecord
100
AcDbLinetypeTableRecord
  2
ByBlock
 70
0
  3

 72
65
 73
0
 40
0.0
  0
LTYPE
  5
25
330
2
100
AcDbSymbolTableRecord
100
AcDbLinetypeTableRecord
  2
ByLayer
 70
0
  3

 72
65
 73
0
 40
0.0
  0
LTYPE
  5
26
330
2
100
AcDbSymbolTableRecord
100
AcDbLinetypeTableRecord
  2
Continuous
 70
0
  3

 72
65
 73
0
 40
0.0
  0
LTYPE
  5
2F
330
2
100
AcDbSymbolTableRecord
100
AcDbLinetypeTableRecord
  2
CENTER
 70
0
  3
Center ____ _ ____ _ ____ _ ____ _ ____ _ ____
 72
65
 73
4
 40
5.08
 49
3.175
 74
0
 49
-0.635
 74
0
 49
0.635
 74
0
 49
-0.635
 74
0
  0
LTYPE
  5
30
330
2
100
AcDbSymbolTableRecord
100
AcDbLinetypeTableRecord
  2
CENTERX2
 70
0
  3
Center (2x) ________  __  ________  __  ________
 72
65
 73
4
 40
8.89
 49
6.35
 74
0
 49
-0.635
 74
0
 49
1.27
 74
0
 49
-0.635
 74
0
  0
LTYPE
  5
31
330
2
100
AcDbSymbolTableRecord
100
AcDbLinetypeTableRecord
  2
CENTER2
 70
0
  3
Center (.5x) ____ _ ____ _ ____ _ ____ _ ____
 72
65
 73
4
 40
2.54
 49
1.587
 74
0
 49
-0.318
 74
0
 49
0.318
 74
0
 49
-0.318
 74
0
  0
LTYPE
  5
32
330
2
100
AcDbSymbolTableRecord
100
AcDbLinetypeTableRecord
  2
DASHED
 70
0
  3
Dashed __ __ __ __ __ __ __ __ __ __ __ __ __ _
 72
65
 73
2
 40
1.524
 49
1.27
 74
0
 49
-0.254
 74
0
  0
LTYPE
  5
33
330
2
100
AcDbSymbolTableRecord
100
AcDbLinetypeTableRecord
  2
DASHEDX2
 70
0
  3
Dashed (2x) ____  ____  ____  ____  ____  ____
 72
65
 73
2
 40
3.048
 49
2.54
 74
0
 49
-0.508
 74
0
  0
LTYPE
  5
34
330
2
100
AcDbSymbolTableRecord
100
AcDbLinetypeTableRecord
  2
DASHED2
 70
0
  3
Dashed (.5x) _ _ _ _ _ _ _ _ _ _ _ _ _ _
 72
65
 73
2
 40
0.762
 49
0.635
 74
0
 49
-0.127
 74
0
  0
LTYPE
  5
35
330
2
100
AcDbSymbolTableRecord
100
AcDbLinetypeTableRecord
  2
PHANTOM
 70
0
  3
Phantom ______  __  __  ______  __  __  ______
 72
65
 73
6
 40
6.35
 49
3.175
 74
0
 49
-0.635
 74
0
 49
0.635
 74
0
 49
-0.635
 74
0
 49
0.635
 74
0
 49
-0.635
 74
0
  0
LTYPE
  5
36
330
2
100
AcDbSymbolTableRecord
100
AcDbLinetypeTableRecord
  2
PHANTOMX2
 70
0
  3
Phantom (2x)____________    ____    ____    ____________
 72
65
 73
6
 40
10.795
 49
6.35
 74
0
 49
-0.635
 74
0
 49
1.27
 74
0
 49
-0.635
 74
0
 49
1.27
 74
0
 49
-0.635
 74
0
  0
LTYPE
  5
37
330
2
100
AcDbSymbolTableRecord
100
AcDbLinetypeTableRecord
  2
PHANTOM2
 70
0
  3
Phantom (.5x) ___ _ _ ___ _ _ ___ _ _ ___ _ _ ___
 72
65
 73
6
 40
3.175
 49
1.587
 74
0
 49
-0.318
 74
0
 49
0.318
 74
0
 49
-0.318
 74
0
 49
0.318
 74
0
 49
-0.318
 74
0
  0
LTYPE
  5
38
330
2
100
AcDbSymbolTableRecord
100
AcDbLinetypeTableRecord
  2
DASHDOT
 70
0
  3
Dash dot __ . __ . __ . __ . __ . __ . __ . __
 72
65
 73
4
 40
3.556
 49
2.54
 74
0
 49
-0.508
 74
0
 49
0.0
 74
0
 49
-0.508
 74
0
  0
LTYPE
  5
39
330
2
100
AcDbSymbolTableRecord
100
AcDbLinetypeTableRecord
  2
DASHDOTX2
 70
0
  3
Dash dot (2x) ____  .  ____  .  ____  .  ____
 72
65
 73
4
 40
6.096
 49
5.08
 74
0
 49
-0.508
 74
0
 49
0.0
 74
0
 49
-0.508
 74
0
  0
LTYPE
  5
3A
330
2
100
AcDbSymbolTableRecord
100
AcDbLinetypeTableRecord
  2
DASHDOT2
 70
0
  3
Dash dot (.5x) _ . _ . _ . _ . _ . _ . _ . _
 72
65
 73
4
 40
1.778
 49
1.27
 74
0
 49
-0.254
 74
0
 49
0.0
 74
0
 49
-0.254
 74
0
  0
LTYPE
  5
3B
330
2
100
AcDbSymbolTableRecord
100
AcDbLinetypeTableRecord
  2
DOT
 70
0
  3
Dot .  .  .  .  .  .  .  .  .  .  .  .  .  .  .  .
 72
65
 73
2
 40
0.508
 49
0.0
 74
0
 49
-0.508
 74
0
  0
LTYPE
  5
3C
330
2
100
AcDbSymbolTableRecord
100
AcDbLinetypeTableRecord
  2
DOTX2
 70
0
  3
Dot (2x) .    .    .    .    .    .    .    . 
 72
65
 73
2
 40
1.016
 49
0.0
 74
0
 49
-1.016
 74
0
  0
LTYPE
  5
3D
330
2
100
AcDbSymbolTableRecord
100
AcDbLinetypeTableRecord
  2
DOT2
 70
0
  3
Dot (.5) . . . . . . . . . . . . . . . . . . . 
 72
65
 73
2
 40
0.254
 49
0.0
 74
0
 49
-0.254
 74
0
  0
LTYPE
  5
3E
330
2
100
AcDbSymbolTableRecord
100
AcDbLinetypeTableRecord
  2
DIVIDE
 70
0
  3
Divide __ . . __ . . __ . . __ . . __ . . __
 72
65
 73
6
 40
4.064
 49
2.54
 74
0
 49
-0.508
 74
0
 49
0.0
 74
0
 49
-0.508
 74
0
 49
0.0
 74
0
 49
-0.508
 74
0
  0
LTYPE
  5
3F
330
2
100
AcDbSymbolTableRecord
100
AcDbLinetypeTableRecord
  2
DIVIDEX2
 70
0
  3
Divide (2x) ____  . .  ____  . .  ____  . .  ____
 72
65
 73
6
 40
6.604
 49
5.08
 74
0
 49
-0.508
 74
0
 49
0.0
 74
0
 49
-0.508
 74
0
 49
0.0
 74
0
 49
-0.508
 74
0
  0
LTYPE
  5
40
330
2
100
AcDbSymbolTableRecord
100
AcDbLinetypeTableRecord
  2
DIVIDE2
 70
0
  3
Divide(.5x) _ . _ . _ . _ . _ . _ . _ . _
 72
65
 73
6
 40
2.032
 49
1.27
 74
0
 49
-0.254
 74
0
 49
0.0
 74
0
 49
-0.254
 74
0
 49
0.0
 74
0
 49
-0.254
 74
0
  0
ENDTAB
  0
TABLE
  2
LAYER
  5
1
330
0
100
AcDbSymbolTable
 70
5
  0
LAYER
  5
27
330
1
100
AcDbSymbolTableRecord
100
AcDbLayerTableRecord
  2
0
 70
0
 62
7
  6
Continuous
370
-3
390
13
347
21
  0
LAYER
  5
28
330
1
100
AcDbSymbolTableRecord
100
AcDbLayerTableRecord
  2
Defpoints
 70
0
 62
7
  6
Continuous
290
0
370
-3
390
13
347
21
  0
LAYER
  5
8A
330
1
100
AcDbSymbolTableRecord
100
AcDbLayerTableRecord
  2
Layer
 70
0
 62
1
  6
Continuous
370
50
390
13
347
21
  0
LAYER
  5
8B
330
1
100
AcDbSymbolTableRecord
100
AcDbLayerTableRecord
  2
NumLabel
 70
0
 62
1
  6
Continuous
370
15
390
13
347
21
  0
LAYER
  5
AE
330
1
100
AcDbSymbolTableRecord
100
AcDbLayerTableRecord
  2
SplitMark
 70
0
 62
3
  6
Continuous
370
-3
390
13
347
21
  0
ENDTAB
  0
TABLE
  2
STYLE
  5
5
330
0
100
AcDbSymbolTable
 70
26
  0
STYLE
  5
29
330
5
100
AcDbSymbolTableRecord
100
AcDbTextStyleTableRecord
  2
Standard
 70
0
 40
0.0
 41
1.0
 50
0.0
 71
0
 42
2.5
  3
txt
  4

  0
STYLE
  5
41
330
5
100
AcDbSymbolTableRecord
100
AcDbTextStyleTableRecord
  2
OpenSans-Light
 70
0
 40
0.0
 41
1.0
 50
0.0
 71
0
 42
2.5
  3
OpenSans-Light.ttf
  4

  0
STYLE
  5
42
330
5
100
AcDbSymbolTableRecord
100
AcDbTextStyleTableRecord
  2
OpenSans-Light-Italic
 70
0
 40
0.0
 41
1.0
 50
0.0
 71
0
 42
2.5
  3
OpenSans-LightItalic.ttf
  4

  0
STYLE
  5
43
330
5
100
AcDbSymbolTableRecord
100
AcDbTextStyleTableRecord
  2
OpenSans
 70
0
 40
0.0
 41
1.0
 50
0.0
 71
0
 42
2.5
  3
OpenSans-Regular.ttf
  4

  0
STYLE
  5
44
330
5
100
AcDbSymbolTableRecord
100
AcDbTextStyleTableRecord
  2
OpenSans-Italic
 70
0
 40
0.0
 41
1.0
 50
0.0
 71
0
 42
2.5
  3
OpenSans-Italic.ttf
  4

  0
STYLE
  5
45
330
5
100
AcDbSymbolTableRecord
100
AcDbTextStyleTableRecord
  2
OpenSans-SemiBold
 70
0
 40
0.0
 41
1.0
 50
0.0
 71
0
 42
2.5
  3
OpenSans-SemiBold.ttf
  4

  0
STYLE
  5
46
330
5
100
AcDbSymbolTableRecord
100
AcDbTextStyleTableRecord
  2
OpenSans-SemiBoldItalic
 70
0
 40
0.0
 41
1.0
 50
0.0
 71
0
 42
2.5
  3
OpenSans-SemiBoldItalic.ttf
  4

  0
STYLE
  5
47
330
5
100
AcDbSymbolTableRecord
100
AcDbTextStyleTableRecord
  2
OpenSans-Bold
 70
0
 40
0.0
 41
1.0
 50
0.0
 71
0
 42
2.5
  3
OpenSans-Bold.ttf
  4

  0
STYLE
  5
48
330
5
100
AcDbSymbolTableRecord
100
AcDbTextStyleTableRecord
  2
OpenSans-BoldItalic
 70
0
 40
0.0
 41
1.0
 50
0.0
 71
0
 42
2.5
  3
OpenSans-BoldItalic.ttf
  4

  0
STYLE
  5
49
330
5
100
AcDbSymbolTableRecord
100
AcDbTextStyleTableRecord
  2
OpenSans-ExtraBold
 70
0
 40
0.0
 41
1.0
 50
0.0
 71
0
 42
2.5
  3
OpenSans-ExtraBold.ttf
  4

  0
STYLE
  5
4A
330
5
100
AcDbSymbolTableRecord
100
AcDbTextStyleTableRecord
  2
OpenSans-ExtraBoldItalic
 70
0
 40
0.0
 41
1.0
 50
0.0
 71
0
 42
2.5
  3
OpenSans-ExtraBoldItalic.ttf
  4

  0
STYLE
  5
4B
330
5
100
AcDbSymbolTableRecord
100
AcDbTextStyleTableRecord
  2
OpenSansCondensed-Bold
 70
0
 40
0.0
 41
1.0
 50
0.0
 71
0
 42
2.5
  3
OpenSansCondensed-Bold.ttf
  4

  0
STYLE
  5
4C
330
5
100
AcDbSymbolTableRecord
100
AcDbTextStyleTableRecord
  2
OpenSansCondensed-Light
 70
0
 40
0.0
 41
1.0
 50
0.0
 71
0
 42
2.5
  3
OpenSansCondensed-Light.ttf
  4

  0
STYLE
  5
4D
330
5
100
AcDbSymbolTableRecord
100
AcDbTextStyleTableRecord
  2
OpenSansCondensed-Italic
 70
0
 40
0.0
 41
1.0
 50
0.0
 71
0
 42
2.5
  3
OpenSansCondensed-LightItalic.ttf
  4

  0
STYLE
  5
4E
330
5
100
AcDbSymbolTableRecord
100
AcDbTextStyleTableRecord
  2
LiberationSans
 70
0
 40
0.0
 41
1.0
 50
0.0
 71
0
 42
2.5
  3
LiberationSans-Regular.ttf
  4

  0
STYLE
  5
4F
330
5
100
AcDbSymbolTableRecord
100
AcDbTextStyleTableRecord
  2
LiberationSans-Bold
 70
0
 40
0.0
 41
1.0
 50
0.0
 71
0
 42
2.5
  3
LiberationSans-Bold.ttf
  4

  0
STYLE
  5
50
330
5
100
AcDbSymbolTableRecord
100
AcDbTextStyleTableRecord
  2
LiberationSans-BoldItalic
 70
0
 40
0.0
 41
1.0
 50
0.0
 71
0
 42
2.5
  3
LiberationSans-BoldItalic.ttf
  4

  0
STYLE
  5
51
330
5
100
AcDbSymbolTableRecord
100
AcDbTextStyleTableRecord
  2
LiberationSans-Italic
 70
0
 40
0.0
 41
1.0
 50
0.0
 71
0
 42
2.5
  3
LiberationSans-Italic.ttf
  4

  0
STYLE
  5
52
330
5
100
AcDbSymbolTableRecord
100
AcDbTextStyleTableRecord
  2
LiberationSerif
 70
0
 40
0.0
 41
1.0
 50
0.0
 71
0
 42
2.5
  3
LiberationSerif-Regular.ttf
  4

  0
STYLE
  5
53
330
5
100
AcDbSymbolTableRecord
100
AcDbTextStyleTableRecord
  2
LiberationSerif-Bold
 70
0
 40
0.0
 41
1.0
 50
0.0
 71
0
 42
2.5
  3
LiberationSerif-Bold.ttf
  4

  0
STYLE
  5
54
330
5
100
AcDbSymbolTableRecord
100
AcDbTextStyleTableRecord
  2
LiberationSerif-BoldItalic
 70
0
 40
0.0
 41
1.0
 50
0.0
 71
0
 42
2.5
  3
LiberationSerif-BoldItalic.ttf
  4

  0
STYLE
  5
55
330
5
100
AcDbSymbolTableRecord
100
AcDbTextStyleTableRecord
  2
LiberationSerif-Italic
 70
0
 40
0.0
 41
1.0
 50
0.0
 71
0
 42
2.5
  3
LiberationSerif-Italic.ttf
  4

  0
STYLE
  5
56
330
5
100
AcDbSymbolTableRecord
100
AcDbTextStyleTableRecord
  2
LiberationMono
 70
0
 40
0.0
 41
1.0
 50
0.0
 71
0
 42
2.5
  3
LiberationMono-Regular.ttf
  4

  0
STYLE
  5
57
330
5
100
AcDbSymbolTableRecord
100
AcDbTextStyleTableRecord
  2
LiberationMono-Bold
 70
0
 40
0.0
 41
1.0
 50
0.0
 71
0
 42
2.5
  3
LiberationMono-Bold.ttf
  4

  0
STYLE
  5
58
330
5
100
AcDbSymbolTableRecord
100
AcDbTextStyleTableRecord
  2
LiberationMono-BoldItalic
 70
0
 40
0.0
 41
1.0
 50
0.0
 71
0
 42
2.5
  3
LiberationMono-BoldItalic.ttf
  4

  0
STYLE
  5
59
330
5
100
AcDbSymbolTableRecord
100
AcDbTextStyleTableRecord
  2
LiberationMono-Italic
 70
0
 40
0.0
 41
1.0
 50
0.0
 71
0
 42
2.5
  3
LiberationMono-Italic.ttf
  4

  0
ENDTAB
  0
TABLE
  2
VIEW
  5
7
330
0
100
AcDbSymbolTable
 70
0
  0
ENDTAB
  0
TABLE
  2
UCS
  5
6
330
0
100
AcDbSymbolTable
 70
0
  0
ENDTAB
  0
TABLE
  2
APPID
  5
3
330
0
100
AcDbSymbolTable
 70
3
  0
APPID
  5
2A
330
3
100
AcDbSymbolTableRecord
100
AcDbRegAppTableRecord
  2
ACAD
 70
0
  0
APPID
  5
AB
330
3
100
AcDbSymbolTableRecord
100
AcDbRegAppTableRecord
  2
HATCHBACKGROUNDCOLOR
 70
0
  0
APPID
  5
AC
330
3
100
AcDbSymbolTableRecord
100
AcDbRegAppTableRecord
  2
EZDXF
 70
0
  0
ENDTAB
  0
TABLE
  2
DIMSTYLE
  5
4
330
0
100
AcDbSymbolTable
 70
12
100
AcDbDimStyleTable
  0
DIMSTYLE
105
2B
330
4
100
AcDbSymbolTableRecord
100
AcDbDimStyleTableRecord
  2
Standard
 70
0
 40
1.0
 41
2.5
 42
0.625
 43
3.75
 44
1.25
 45
0.0
 46
0.0
 47
0.0
 48
0.0
 49
2.5
140
2.5
141
2.5
142
0.0
143
0.03937007874
144
1.0
145
0.0
146
1.0
147
0.625
148
0.0
 69
0
 70
0
 71
0
 72
0
 73
0
 74
0
 75
0
 76
0
 77
1
 78
8
 79
3
170
0
171
3
172
1
173
0
174
0
175
0
176
0
177
0
178
0
179
2
271
2
272
2
273
2
274
3
275
0
276
0
277
2
278
44
279
0
280
0
281
0
282
0
283
0
284
8
285
0
286
0
288
0
289
3
290
0
371
-2
372
-2
  0
DIMSTYLE
105
73
330
4
100
AcDbSymbolTableRecord
100
AcDbDimStyleTableRecord
  2
EZDXF
 70
0
 40
1.0
 41
0.175
 42
0.125
 43
3.75
 44
0.375
 45
0.0
 46
0.0
 47
0.0
 48
0.0
 49
2.5
140
0.25
141
2.5
142
0.0
143
0.03937007874
144
100.0
145
0.0
146
0.5
147
0.1
148
0.0
 69
0
 70
0
 71
0
 72
0
 73
0
 74
0
 75
0
 76
0
 77
1
 78
12
 79
3
170
0
171
3
172
1
173
0
174
0
175
0
176
0
177
0
178
0
179
2
271
2
272
2
273
2
274
3
275
0
276
0
277
2
278
46
279
2
280
0
281
0
282
0
283
0
284
8
285
0
286
0
288
1
289
3
290
0
340
4C
342
74
371
-2
372
-2
  0
DIMSTYLE
105
7C
330
4
100
AcDbSymbolTableRecord
100
AcDbDimStyleTableRecord
  2
EZ_M_100_H25_CM
 70
0
 40
1.0
 41
0.25
 42
0.125
 43
3.75
 44
0.375
 45
0.0
 46
0.0
 47
0.0
 48
0.0
 49
2.5
140
0.25
141
2.5
142
0.125
143
0.03937007874
144
100.0
145
0.0
146
0.5
147
0.1
148
0.0
 69
0
 70
0
 71
0
 72
0
 73
0
 74
0
 75
0
 76
0
 77
1
 78
12
 79
3
170
0
171
3
172
1
173
0
174
0
175
0
176
0
177
0
178
0
179
2
271
2
272
2
273
2
274
3
275
0
276
0
277
2
278
46
279
2
280
0
281
0
282
0
283
0
284
8
285
0
286
0
288
1
289
3
290
0
340
4C
371
-2
372
-2
  0
DIMSTYLE
105
7D
330
4
100
AcDbSymbolTableRecord
100
AcDbDimStyleTableRecord
  2
EZ_M_50_H25_CM
 70
0
 40
1.0
 41
0.125
 42
0.0625
 43
3.75
 44
0.1875
 45
0.0
 46
0.0
 47
0.0
 48
0.0
 49
2.5
140
0.125
141
2.5
142
0.0625
143
0.03937007874
144
100.0
145
0.0
146
0.5
147
0.05
148
0.0
 69
0
 70
0
 71
0
 72
0
 73
0
 74
0
 75
0
 76
0
 77
1
 78
12
 79
3
170
0
171
3
172
1
173
0
174
0
175
0
176
0
177
0
178
0
179
2
271
2
272
2
273
2
274
3
275
0
276
0
277
2
278
46
279
2
280
0
281
0
282
0
283
0
284
8
285
0
286
0
288
1
289
3
290
0
340
4C
371
-2
372
-2
  0
DIMSTYLE
105
7E
330
4
100
AcDbSymbolTableRecord
100
AcDbDimStyleTableRecord
  2
EZ_M_25_H25_CM
 70
0
 40
1.0
 41
0.0625
 42
0.03125
 43
3.75
 44
0.09375
 45
0.0
 46
0.0
 47
0.0
 48
0.0
 49
2.5
140
0.0625
141
2.5
142
0.03125
143
0.03937007874
144
100.0
145
0.0
146
0.5
147
0.025
148
0.0
 69
0
 70
0
 71
0
 72
0
 73
0
 74
0
 75
0
 76
0
 77
1
 78
12
 79
3
170
0
171
3
172
1
173
0
174
0
175
0
176
0
177
0
178
0
179
2
271
2
272
2
273
2
274
3
275
0
276
0
277
2
278
46
279
2
280
0
281
0
282
0
283
0
284
8
285
0
286
0
288
1
289
3
290
0
340
4C
371
-2
372
-2
  0
DIMSTYLE
105
7F
330
4
100
AcDbSymbolTableRecord
100
AcDbDimStyleTableRecord
  2
EZ_M_20_H25_CM
 70
0
 40
1.0
 41
0.05
 42
0.025
 43
3.75
 44
0.07500000000000001
 45
0.0
 46
0.0
 47
0.0
 48
0.0
 49
2.5
140
0.05
141
2.5
142
0.025
143
0.03937007874
144
100.0
145
0.0
146
0.5
147
0.020000000000000004
148
0.0
 69
0
 70
0
 71
0
 72
0
 73
0
 74
0
 75
0
 76
0
 77
1
 78
12
 79
3
170
0
171
3
172
1
173
0
174
0
175
0
176
0
177
0
178
0
179
2
271
2
272
2
273
2
274
3
275
0
276
0
277
2
278
46
279
2
280
0
281
0
282
0
283
0
284
8
285
0
286
0
288
1
289
3
290
0
340
4C
371
-2
372
-2
  0
DIMSTYLE
105
80
330
4
100
AcDbSymbolTableRecord
100
AcDbDimStyleTableRecord
  2
EZ_M_10_H25_CM
 70
0
 40
1.0
 41
0.025
 42
0.0125
 43
3.75
 44
0.037500000000000006
 45
0.0
 46
0.0
 47
0.0
 48
0.0
 49
2.5
140
0.025
141
2.5
142
0.0125
143
0.03937007874
144
100.0
145
0.0
146
0.5
147
0.010000000000000002
148
0.0
 69
0
 70
0
 71
0
 72
0
 73
0
 74
0
 75
0
 76
0
 77
1
 78
12
 79
3
170
0
171
3
172
1
173
0
174
0
175
0
176
0
177
0
178
0
179
2
271
2
272
2
273
2
274
3
275
0
276
0
277
2
278
46
279
2
280
0
281
0
282
0
283
0
284
8
285
0
286
0
288
1
289
3
290
0
340
4C
371
-2
372
-2
  0
DIMSTYLE
105
81
330
4
100
AcDbSymbolTableRecord
100
AcDbDimStyleTableRecord
  2
EZ_M_5_H25_CM
 70
0
 40
1.0
 41
0.0125
 42
0.00625
 43
3.75
 44
0.018750000000000003
 45
0.0
 46
0.0
 47
0.0
 48
0.0
 49
2.5
140
0.0125
141
2.5
142
0.00625
143
0.03937007874
144
100.0
145
0.0
146
0.5
147
0.005000000000000001
148
0.0
 69
0
 70
0
 71
0
 72
0
 73
0
 74
0
 75
0
 76
0
 77
1
 78
12
 79
3
170
0
171
3
172
1
173
0
174
0
175
0
176
0
177
0
178
0
179
2
271
2
272
2
273
2
274
3
275
0
276
0
277
2
278
46
279
2
280
0
281
0
282
0
283
0
284
8
285
0
286
0
288
1
289
3
290
0
340
4C
371
-2
372
-2
  0
DIMSTYLE
105
82
330
4
100
AcDbSymbolTableRecord
100
AcDbDimStyleTableRecord
  2
EZ_M_1_H25_CM
 70
0
 40
1.0
 41
0.0025
 42
0.00125
 43
3.75
 44
0.00375
 45
0.0
 46
0.0
 47
0.0
 48
0.0
 49
2.5
140
0.0025
141
2.5
142
0.00125
143
0.03937007874
144
100.0
145
0.0
146
0.5
147
0.001
148
0.0
 69
0
 70
0
 71
0
 72
0
 73
0
 74
0
 75
0
 76
0
 77
1
 78
12
 79
3
170
0
171
3
172
1
173
0
174
0
175
0
176
0
177
0
178
0
179
2
271
2
272
2
273
2
274
3
275
0
276
0
277
2
278
46
279
2
280
0
281
0
282
0
283
0
284
8
285
0
286
0
288
1
289
3
290
0
340
4C
371
-2
372
-2
  0
DIMSTYLE
105
83
330
4
100
AcDbSymbolTableRecord
100
AcDbDimStyleTableRecord
  2
EZ_RADIUS
 70
0
 40
1.0
 41
0.25
 42
0.125
 43
3.75
 44
0.375
 45
0.0
 46
0.0
 47
0.0
 48
0.0
 49
2.5
140
0.25
141
0.0
142
0.0
143
0.03937007874
144
100.0
145
0.0
146
0.5
147
0.1
148
0.0
 69
0
 70
0
 71
0
 72
0
 73
0
 74
0
 75
0
 76
0
 77
1
 78
12
 79
3
170
0
171
3
172
0
173
0
174
0
175
0
176
0
177
0
178
0
179
2
271
2
272
2
273
2
274
3
275
0
276
0
277
2
278
46
279
1
280
0
281
0
282
0
283
0
284
8
285
0
286
0
288
1
289
3
290
0
340
4C
342
84
371
-2
372
-2
  0
DIMSTYLE
105
88
330
4
100
AcDbSymbolTableRecord
100
AcDbDimStyleTableRecord
  2
EZ_RADIUS_INSIDE
 70
0
 40
1.0
 41
0.25
 42
0.125
 43
3.75
 44
0.375
 45
0.0
 46
0.0
 47
0.0
 48
0.0
 49
2.5
140
0.25
141
0.0
142
0.0
143
0.03937007874
144
100.0
145
0.0
146
0.5
147
0.1
148
0.0
 69
0
 70
0
 71
0
 72
0
 73
0
 74
0
 75
0
 76
0
 77
0
 78
12
 79
3
170
0
171
3
172
0
173
0
174
1
175
0
176
0
177
0
178
0
179
2
271
2
272
2
273
2
274
3
275
0
276
0
277
2
278
46
279
0
280
0
281
0
282
0
283
0
284
8
285
0
286
0
288
1
289
0
290
0
340
4C
342
84
371
-2
372
-2
  0
DIMSTYLE
105
89
330
4
100
AcDbSymbolTableRecord
100
AcDbDimStyleTableRecord
  2
EZ_CURVED
 70
0
 40
1.0
 41
0.25
 42
0.125
 43
3.75
 44
0.375
 45
0.0
 46
0.0
 47
0.0
 48
0.0
 49
2.5
140
0.25
141
2.5
142
0.0
143
0.03937007874
144
100.0
145
0.0
146
0.5
147
0.1
148
0.0
 69
0
 70
0
 71
0
 72
0
 73
0
 74
0
 75
0
 76
0
 77
1
 78
12
 79
2
 90
2
170
0
171
3
172
1
173
0
174
0
175
0
176
0
177
0
178
0
179
2
271
2
272
2
273
2
274
3
275
0
276
0
277
2
278
46
279
2
280
0
281
0
282
0
283
0
284
8
285
0
286
0
288
1
289
3
290
0
340
4C
371
-2
372
-2
  0
ENDTAB
  0
TABLE
  2
BLOCK_RECORD
  5
9
330
0
100
AcDbSymbolTable
 70
5
  0
BLOCK_RECORD
  5
17
330
9
100
AcDbSymbolTableRecord
100
AcDbBlockTableRecord
  2
*Model_Space
340
1A
 70
0
280
1
281
0
  0
BLOCK_RECORD
  5
1B
330
9
100
AcDbSymbolTableRecord
100
AcDbBlockTableRecord
  2
*Paper_Space
340
1E
 70
0
280
1
281
0
  0
BLOCK_RECORD
  5
74
330
9
100
AcDbSymbolTableRecord
100
AcDbBlockTableRecord
  2
_ARCHTICK
340
0
 70
0
280
1
281
0
  0
BLOCK_RECORD
  5
78
330
9
100
AcDbSymbolTableRecord
100
AcDbBlockTableRecord
  2
_CLOSEDFILLED
340
0
 70
0
280
1
281
0
  0
BLOCK_RECORD
  5
84
330
9
100
AcDbSymbolTableRecord
100
AcDbBlockTableRecord
  2
_CLOSEDBLANK
340
0
 70
0
280
1
281
0
  0
ENDTAB
  0
ENDSEC
  0
SECTION
  2
BLOCKS
  0
BLOCK
  5
18
330
17
100
AcDbEntity
  8
0
100
AcDbBlockBegin
  2
*Model_Space
 70
0
 10
0.0
 20
0.0
 30
0.0
  3
*Model_Space
  1

  0
ENDBLK
  5
19
330
17
100
AcDbEntity
  8
0
100
AcDbBlockEnd
  0
BLOCK
  5
1C
330
1B
100
AcDbEntity
  8
0
100
AcDbBlockBegin
  2
*Paper_Space
 70
0
 10
0.0
 20
0.0
 30
0.0
  3
*Paper_Space
  1

  0
ENDBLK
  5
1D
330
1B
100
AcDbEntity
  8
0
100
AcDbBlockEnd
  0
BLOCK
  5
75
330
74
100
AcDbEntity
  8
0
100
AcDbBlockBegin
  2
_ARCHTICK
 70
0
 10
0.0
 20
0.0
 30
0.0
  3
_ARCHTICK
  1

  0
LWPOLYLINE
  5
77
330
74
100
AcDbEntity
  8
0
  6
BYBLOCK
 62
0
100
AcDbPolyline
 90
2
 70
0
 43
0.15
 10
-0.5
 20
-0.5
 10
0.5
 20
0.5
  0
ENDBLK
  5
76
330
74
100
AcDbEntity
  8
0
100
AcDbBlockEnd
  0
BLOCK
  5
79
330
78
100
AcDbEntity
  8
0
100
AcDbBlockBegin
  2
_CLOSEDFILLED
 70
0
 10
0.0
 20
0.0
 30
0.0
  3
_CLOSEDFILLED
  1

  0
SOLID
  5
7B
330
78
100
AcDbEntity
  8
0
  6
BYBLOCK
 62
0
100
AcDbTrace
 10
-1.0
 20
0.16439898372402537
 30
0.0
 11
0.0
 21
0.0
 31
0.0
 12
-1.0
 22
-0.16439898372402537
 32
0.0
 13
-1.0
 23
-0.16439898372402537
 33
0.0
  0
ENDBLK
  5
7A
330
78
100
AcDbEntity
  8
0
100
AcDbBlockEnd
  0
BLOCK
  5
85
330
84
100
AcDbEntity
  8
0
100
AcDbBlockBegin
  2
_CLOSEDBLANK
 70
0
 10
0.0
 20
0.0
 30
0.0
  3
_CLOSEDBLANK
  1

  0
LWPOLYLINE
  5
87
330
84
100
AcDbEntity
  8
0
  6
BYBLOCK
 62
0
100
AcDbPolyline
 90
3
 70
1
 10
-1.0
 20
0.16439898372402537
 10
0.0
 20
0.0
 10
-1.0
 20
-0.16439898372402537
  0
ENDBLK
  5
86
330
84
100
AcDbEntity
  8
0
100
AcDbBlockEnd
  0
ENDSEC
  0
SECTION
  2
ENTITIES
  0
LWPOLYLINE
  5
8C
330
17
100
AcDbEntity
  8
Layer
100
AcDbPolyline
 90
178
 70
1
 10
511.0092362050476
 20
197.00410305952025
 10
511.0092362050476
 20
197.00410305952025
 10
510.64017314949683
 20
197.12854153497818
 10
503.86051828337565
 20
199.38178925319116
 10
497.1162805302798
 20
201.58637050545056
 10
490.40240844910363
 20
203.74113640611853
 10
483.71638587802175
 20
205.8452677786918
 10
477.0554939000249
 20
207.89694107532767
 10
470.41432818802934
 20
209.89511532798892
 10
463.78757137751035
 20
211.84023330811218
 10
457.1725192050112
 20
213.7325063433069
 10
450.56713623231695
 20
215.57113108776576
 10
443.96752288517234
 20
217.3556675733919
 10
437.36959317236506
 20
219.0865603113888
 10
430.7718690544789
 20
220.76460201923652
 10
424.173983343356
 20
222.38926165232357
 10
417.5737619594072
 20
223.95979018911567
 10
410.96832972305333
 20
225.47673435714913
 10
404.35703555593483
 20
226.94084482072728
 10
397.7408071888442
 20
228.3517078119203
 10
391.11868924825006
 20
229.70860929503766
 10
384.4890745303039
 20
231.01173863842916
 10
377.8513112044325
 20
232.26173287879584
 10
371.2069821328985
 20
233.45859684337677
 10
364.55647019035916
 20
234.60144959172854
 10
357.89844932676107
 20
235.6901329170266
 10
351.23285424434243
 20
236.7253710051638
 10
344.561359893911
 20
237.70690621443327
 10
337.8840846080752
 20
238.63373340600617
 10
331.19787606076625
 20
239.50534934960285
 10
324.4996610427138
 20
240.32315851354008
 10
317.79081310162815
 20
241.0886560787171
 10
311.0744172878502
 20
241.8016352448732
 10
304.351224115544
 20
242.46118665412905
 10
297.6203145605234
 20
243.0674417399443
 10
290.88351361192645
 20
243.6217453706899
 10
284.14559985707524
 20
244.1240554105865
 10
277.4095485603599
 20
244.57291485808784
 10
270.67530630879355
 20
244.96745643104242
 10
263.9441286663407
 20
245.30853645683158
 10
257.22045554671865
 20
245.5960123306699
 10
250.50769627632474
 20
245.8285372796155
 10
243.80569059433404
 20
246.00457013255303
 10
237.11487672488678
 20
246.12462041898135
 10
230.43940558585558
 20
246.188847633563
 10
223.7828499332709
 20
246.19576400077727
 10
217.14572175076148
 20
246.14371050053165
 10
210.5281918353411
 20
246.03274182066824
 10
203.93450582188203
 20
245.86316211381865
 10
197.3690568654073
 20
245.63357745175358
 10
190.83246951016397
 20
245.3419692791402
 10
184.3257897064227
 20
244.98833781844456
 10
177.8537430000755
 20
244.57305220238052
 10
171.42153411751704
 20
244.0945366943829
 10
165.0301427074087
 20
243.55065214442553
 10
158.68175680142588
 20
242.9418237958399
 10
152.382908568778
 20
242.26834563590273
 10
146.1385582243493
 20
241.5281493435621
 10
139.9504771970848
 20
240.7197730416445
 10
133.8233912096761
 20
239.84428888813406
 10
127.76514798841362
 20
238.9015530116624
 10
121.78065492059912
 20
237.8899956969614
 10
115.87416335185443
 20
236.81073097816378
 10
110.0581535948206
 20
235.66822738567262
 10
104.34740185266668
 20
234.4631839704721
 10
98.75065005575888
 20
233.19482074940015
 10
93.27785173457582
 20
231.86771293240264
 10
87.94707111909426
 20
230.48842097520418
 10
82.77414994037832
 20
229.05919222049732
 10
77.76998918182062
 20
227.58438025489738
 10
72.94999893257071
 20
226.07471572876435
 10
68.333036070449
 20
224.5397357964879
 10
63.93150286152974
 20
222.98522731293937
 10
59.753632528290524
 20
221.42143556756758
 10
55.809291479696554
 20
219.8614852096412
 10
52.10496421865264
 20
218.3138532611509
 10
48.63924624769112
 20
216.78447560730882
 10
45.40732094570737
 20
215.28206749414906
 10
42.403988967539334
 20
213.8145492556994
 10
39.62091647371403
 20
212.38468907262148
 10
37.045388426733666
 20
210.9924589682558
 10
34.66282834285255
 20
209.63921133396184
 10
32.460076380270294
 20
208.327348270067
 10
30.425089198262327
 20
207.05661387966592
 10
28.545218605534387
 20
205.8241235604787
 10
26.807751846421922
 20
204.62691284101442
 10
25.20058505206319
 20
203.46309658300333
 10
23.71404322707292
 20
202.33216506039074
 10
22.34020461505989
 20
201.23208561177353
 10
21.07152749026784
 20
200.15889394561248
 10
19.89841486895577
 20
199.10687329954126
 10
18.810492329263468
 20
198.07388249047767
 10
17.79764951515355
 20
197.06034387742156
 10
16.85282343265777
 20
196.07086078731575
 10
15.972564600826189
 20
195.10919156900684
 10
15.157844496310702
 20
194.1786915664095
 10
14.410655447259074
 20
193.27622690165367
 10
13.732394196484648
 20
192.3965396752882
 10
13.121890355918879
 20
191.53180095498334
 10
12.574553351159494
 20
190.67396737160948
 10
12.084671635162266
 20
189.82058122753747
 10
11.64637527053722
 20
188.97265685475728
 10
11.256049121670685
 20
188.1361355267156
 10
10.912272243808673
 20
187.3158288930638
 10
10.615798313227458
 20
186.51599661297573
 10
10.368197815659073
 20
185.73719060293598
 10
10.170497876418295
 20
184.9765933902113
 10
10.022528503607418
 20
184.23102704618952
 10
9.922824911283357
 20
183.49776418707842
 10
9.865675046281012
 20
182.69710187719832
 10
9.858139279786315
 20
182.05577505562658
 10
9.893134913812162
 20
181.3326225895441
 10
9.977921560706363
 20
180.6147829456316
 10
10.118449144230226
 20
179.90525565472055
 10
10.322793487816739
 20
179.20195542402814
 10
10.598577714507542
 20
178.50130959940006
 10
10.949425054829078
 20
177.80227131645964
 10
11.373726824101084
 20
177.10719919136596
 10
11.866528412451999
 20
176.42104304409753
 10
12.424272005359256
 20
175.7484410063592
 10
13.046572929485905
 20
175.0928043962855
 10
13.736925012845546
 20
174.45525866614304
 10
14.499014179173656
 20
173.83554224743594
 10
15.335303819137465
 20
173.23211911456002
 10
16.244919228278974
 20
172.64334746554528
 10
17.226901864624182
 20
172.06747117569813
 10
18.28009036264075
 20
171.50380233701395
 10
19.407538106849188
 20
170.952047713975
 10
20.613861813202703
 20
170.4121183856228
 10
21.906924437772375
 20
169.88328197377447
 10
23.29441218279399
 20
169.3634560708686
 10
24.78384500625492
 20
168.84951550887993
 10
26.383372309687815
 20
168.33803148032695
 10
28.101385338097856
 20
167.82603901618808
 10
29.949360130267507
 20
167.31191882033184
 10
31.941549723558353
 20
166.79491668988658
 10
34.09539920889239
 20
166.27420138373088
 10
36.429551766689286
 20
165.7481956712336
 10
38.964401912532594
 20
165.21538445479186
 10
41.7215391535272
 20
164.67518933696743
 10
44.725400554935135
 20
164.12860246238202
 10
48.00241599917567
 20
163.57727543208463
 10
51.577888862104146
 20
163.02195300870966
 10
55.47286803769964
 20
162.46392157101326
 10
59.70333595151783
 20
161.9074056502779
 10
64.27997390525866
 20
161.35844969160487
 10
69.20498767242535
 20
160.82167973910148
 10
74.46672775658112
 20
160.30098599517004
 10
80.0434372075454
 20
159.8031360522175
 10
85.91021974952915
 20
159.33382519440204
 10
92.03580717483646
 20
158.894698162792
 10
98.3837916085202
 20
158.4881155590373
 10
104.92478563210264
 20
158.1168588194058
 10
111.63364890844696
 20
157.77955264035484
 10
118.48472838721844
 20
157.47463207216876
 10
125.46363547780845
 20
157.20299718662994
 10
132.56767016423476
 20
156.9590728407053
 10
139.7759658791291
 20
156.72937830111525
 10
140.53735531040851
 20
156.70615997790793
 10
140.49163455062615
 20
155.20685693578304
 10
146.99682023391466
 20
155.0084834129663
 10
154.2832664469824
 20
154.8054304012283
 10
161.5944226912482
 20
154.63265580278255
 10
168.95785926330745
 20
154.48892198162883
 10
176.38839058066836
 20
154.36202870930202
 10
183.87225679196678
 20
154.23893560049248
 10
191.3821192869676
 20
154.1130323682258
 10
198.895536897302
 20
153.98723522761114
 10
206.395871652905
 20
153.8724557648085
 10
213.89802624912193
 20
153.77764392710435
 10
221.42909804477463
 20
153.70045436488118
 10
229.00000827590387
 20
153.63061096838243
 10
236.597602550247
 20
153.5603233746089
 10
244.21056594352768
 20
153.48958288287224
 10
251.82937471641227
 20
153.42020710779087
 10
259.4456670641667
 20
153.35126097618507
 10
274.2612345748388
 20
153.22389513675108
 10
511.0092362050476
 20
197.00410305952025
  0
LWPOLYLINE
  5
8D
330
17
100
AcDbEntity
  8
Layer
100
AcDbPolyline
 90
5
 70
0
 10
446.3200833630535
 20
212.57586052124725
 10
442.4587496507862
 20
213.61994000218158
 10
443.50282913172055
 20
217.4812737144489
 10
447.36416284398786
 20
216.43719423351456
 10
446.3200833630535
 20
212.57586052124725
  0
LWPOLYLINE
  5
8E
330
17
100
AcDbEntity
  8
Layer
100
AcDbPolyline
 90
5
 70
0
 10
195.49952934546008
 20
241.54617405910645
 10
191.5035057467693
 20
241.36786141595857
 10
191.32519310362142
 20
245.36388501464936
 10
195.3212167023122
 20
245.54219765779723
 10
195.49952934546008
 20
241.54617405910645
  0
LWPOLYLINE
  5
8F
330
17
100
AcDbEntity
  8
Layer
100
AcDbPolyline
 90
5
 70
0
 10
81.78236113355892
 20
224.59670032911492
 10
77.94556897740163
 20
223.46576003429385
 10
76.81462868258059
 20
227.30255219045114
 10
80.65142083873788
 20
228.4334924852722
 10
81.78236113355892
 20
224.59670032911492
  0
LWPOLYLINE
  5
90
330
17
100
AcDbEntity
  8
Layer
100
AcDbPolyline
 90
5
 70
0
 10
24.65669591835719
 20
196.65811921720308
 10
23.168237673349456
 20
195.32227040357617
 10
19.828615639282116
 20
199.04341601609553
 10
21.31707388428985
 20
200.37926482972244
 10
24.65669591835719
 20
196.65811921720308
  0
LWPOLYLINE
  5
91
330
17
100
AcDbEntity
  8
Layer
100
AcDbPolyline
 90
5
 70
0
 10
17.356163652256758
 20
177.93948668879457
 10
18.980172715999107
 20
176.77218443107265
 10
16.061917071694293
 20
172.71216177171678
 10
14.437908007951945
 20
173.8794640294387
 10
17.356163652256758
 20
177.93948668879457
  0
LWPOLYLINE
  5
92
330
17
100
AcDbEntity
  8
Layer
100
AcDbPolyline
 90
5
 70
0
 10
105.3795594231691
 20
162.0990472879793
 10
109.37451403804732
 20
161.89820499894861
 10
109.17367174901665
 20
157.9032503840704
 10
105.17871713413842
 20
158.10409267310106
 10
105.3795594231691
 20
162.0990472879793
  0
LWPOLYLINE
  5
93
330
17
100
AcDbEntity
  8
Layer
100
AcDbPolyline
 90
300
 70
1
 10
298.6349716446121
 20
200.0
 10
298.6272982360692
 20
200.77581121434
 10
298.60428139880156
 20
201.55127985228773
 10
298.5659312963966
 20
202.326063488723
 10
298.51226486318006
 20
203.09982000100302
 10
298.44330579673795
 20
203.87220772003408
 10
298.35908454745277
 20
204.64288558114305
 10
298.2596383050573
 20
205.411513274682
 10
298.1450109822126
 20
206.17775139629913
 10
298.0152531951176
 20
206.94126159681045
 10
297.8704222411583
 20
207.70170673160513
 10
297.71058207360664
 20
208.458751009519
 10
297.53580327338113
 20
209.21206014111067
 10
297.3461630178796
 20
209.96130148627407
 10
297.14174504690027
 20
210.7061442011232
 10
296.9226396256646
 20
211.44625938408342
 10
296.6889435049585
 20
212.18132022112496
 10
296.44075987841006
 20
212.911002130075
 10
296.1781983369221
 20
213.63498290394395
 10
295.90137482028
 20
214.35294285320296
 10
295.6104115659557
 20
215.06456494694982
 10
295.3054370551315
 20
215.76953495290093
 10
294.98658595596584
 20
216.46754157614737
 10
294.6539990641282
 20
217.15827659661397
 10
294.3078232406273
 20
217.84143500516075
 10
293.94821134696144
 20
218.51671513826614
 10
293.5753221776195
 20
219.18381881123324
 10
293.1893203899614
 20
219.84245144985988
 10
292.7903764315101
 20
220.49232222051404
 10
292.37866646468694
 20
221.13314415855805
 10
291.95437228902324
 20
221.76463429506396
 10
291.5176812608825
 20
222.3865137817646
 10
291.06878621072946
 20
222.9985080141853
 10
290.60788535798133
 20
223.60034675290134
 10
290.1351822234798
 20
224.19176424286823
 10
289.6508855396219
 20
224.77249933077138
 10
289.1552091581898
 20
225.34229558034443
 10
288.6483719559196
 20
225.9009013856039
 10
288.13059773785176
 20
226.44807008195164
 10
287.6021151385051
 20
226.98356005509473
 10
287.063157520918
 20
227.50713484773573
 10
286.5139628736023
 20
228.0185632639854
 10
285.95477370545365
 20
228.5176194714525
 10
285.3858369386669
 20
229.0040831009647
 10
284.80740379970206
 20
229.4777393438778
 10
284.2197297083497
 20
229.9383790469289
 10
283.6230741649449
 20
230.3857988045926
 10
283.01770063577914
 20
230.81980104889936
 10
282.4038764367608
 20
231.24019413667577
 10
281.78187261537647
 20
231.64679243416876
 10
281.15196383100346
 20
232.03941639901637
 10
280.5144282336283
 20
232.41789265952858
 10
279.8695473410234
 20
232.78205409124328
 10
279.2176059144369
 20
233.13173989072376
 10
278.5588918328497
 20
233.46679564656506
 10
277.8936959658569
 20
233.78707340757757
 10
277.22231204522717
 20
234.09243174811823
 10
276.5450365351997
 20
234.38273583054004
 10
275.8621685015736
 20
234.65785746473261
 10
275.17400947964904
 20
234.91767516472729
 10
274.48086334107757
 20
235.16207420234187
 10
273.7830361596812
 20
235.3909466578415
 10
273.0808360762985
 20
235.60419146759284
 10
272.3745731627187
 20
235.801714468691
 10
271.6645592847622
 20
235.98342844053917
 10
270.9511079645698
 20
236.14925314336287
 10
270.2345342421601
 20
236.29911535364144
 10
269.5151545363165
 20
236.43294889644167
 10
268.79328650486576
 20
236.5506946746386
 10
268.0692489044091
 20
236.65230069501126
 10
267.3433614495685
 20
236.7377220912014
 10
266.61594467180925
 20
236.80692114352513
 10
265.887319777903
 20
236.85986729562902
 10
265.15780850809114
 20
236.89653716798279
 10
264.4277329940139
 20
236.91691456820305
 10
263.69741561646583
 20
236.9209904982036
 10
262.96717886304157
 20
236.9087631581684
 10
262.2373451857344
 20
236.88023794734667
 10
261.5082368585506
 20
236.83542746166847
 10
260.7801758352022
 20
236.7743514881828
 10
260.05348360694137
 20
236.6970369963202
 10
259.3284810605989
 20
236.60351812598378
 10
258.60548833688955
 20
236.493836172474
 10
257.8848246890471
 20
236.3680395682539
 10
257.16680834185087
 20
236.22618386156256
 10
256.45175635110684
 20
236.06833169188664
 10
255.73998446364453
 20
235.89455276230058
 10
255.0318069778923
 20
235.70492380868757
 10
254.32753660509184
 20
235.4995285658553
 10
253.62748433121374
 20
235.27845773056083
 10
252.9319592796349
 20
235.0418089214617
 10
252.2412685746382
 20
234.78968663601
 10
251.55571720579533
 20
234.5222022043095
 10
250.87560789329166
 20
234.23947373995526
 10
250.2012409542537
 20
233.94162608787798
 10
249.53291417013756
 20
233.62879076921604
 10
248.87092265523697
 20
233.30110592323956
 10
248.215558726369
 20
232.95871624635174
 10
247.5671117737955
 20
232.60177292819526
 10
246.9258681334361
 20
232.23043358489105
 10
246.2921109604307
 20
231.8448621894395
 10
245.6661201041059
 20
231.44522899931457
 10
245.04817198440148
 20
231.03171048128286
 10
244.43853946981113
 20
230.60448923348093
 10
243.83749175689147
 20
230.163753904785
 10
243.24529425139235
 20
229.70969911150908
 10
242.6622084510611
 20
229.2425253514677
 10
242.08849183017267
 20
228.76243891544175
 10
241.52439772583605
 20
228.26965179608646
 10
240.9701752261278
 20
227.7643815943212
 10
240.4260690601018
 20
227.24685142324316
 10
239.89231948972377
 20
226.71728980960677
 10
239.36916220377827
 20
226.17593059291286
 10
238.85682821379538
 20
225.62301282215162
 10
238.35554375204222
 20
225.0587806502454
 10
237.86553017162538
 20
224.4834832262375
 10
237.38700384874755
 20
223.89737458527506
 10
236.92017608716182
 20
223.30071353643436
 10
236.465253024866
 20
222.69376354843777
 10
236.02243554307773
 20
222.07679263331374
 10
235.59191917753122
 20
221.45007322804992
 10
235.17389403213392
 20
220.8138820742928
 10
234.76854469502217
 20
220.16850009614635
 10
234.3760501570522
 20
219.5142122761239
 10
233.99658373276276
 20
218.8513075293078
 10
233.63031298384442
 20
218.18007857577277
 10
233.277399645149
 20
217.50082181132876
 10
232.93799955327188
 20
216.8138371766411
 10
232.61226257773922
 20
216.11942802478507
 10
232.30033255482945
 20
215.4179009872937
 10
232.00234722405955
 20
214.70956583875798
 10
231.71843816736296
 20
213.99473536003907
 10
231.44873075098675
 20
213.27372520015302
 10
231.1933440701334
 20
212.5468537368892
 10
230.95239089637178
 20
211.81444193622355
 10
230.72597762784028
 20
211.07681321058894
 10
230.5142042422645
 20
210.33429327606558
 10
230.31716425280982
 20
209.5872100085537
 10
230.13494466678873
 20
208.83589329899306
 10
229.96762594724072
 20
208.08067490769213
 10
229.8152819774021
 20
207.32188831783225
 10
229.67798002808132
 20
206.55986858821075
 10
229.55578072795396
 20
205.79495220528855
 10
229.44873803679093
 20
205.02747693460708
 10
229.35689922163127
 20
204.25778167164052
 10
229.28030483591039
 20
203.4862062921492
 10
229.21898870155277
 20
202.71309150209999
 10
229.17297789403727
 20
201.93877868722012
 10
229.1422927304412
 20
201.1636097622508
 10
229.12694676046902
 20
200.3879270199674
 10
229.12694676046902
 20
199.6120729800326
 10
229.1422927304412
 20
198.8363902377492
 10
229.17297789403727
 20
198.0612213127799
 10
229.21898870155277
 20
197.28690849790001
 10
229.28030483591039
 20
196.5137937078508
 10
229.35689922163127
 20
195.7422183283595
 10
229.44873803679093
 20
194.97252306539295
 10
229.55578072795396
 20
194.20504779471145
 10
229.67798002808132
 20
193.44013141178925
 10
229.8152819774021
 20
192.67811168216778
 10
229.96762594724072
 20
191.91932509230787
 10
230.13494466678873
 20
191.16410670100694
 10
230.31716425280982
 20
190.4127899914463
 10
230.5142042422645
 20
189.66570672393445
 10
230.72597762784028
 20
188.92318678941106
 10
230.95239089637178
 20
188.18555806377648
 10
231.1933440701334
 20
187.4531462631108
 10
231.44873075098675
 20
186.72627479984698
 10
231.71843816736296
 20
186.00526463996093
 10
232.00234722405955
 20
185.290434161242
 10
232.30033255482945
 20
184.5820990127063
 10
232.6122625777392
 20
183.88057197521493
 10
232.93799955327188
 20
183.18616282335893
 10
233.277399645149
 20
182.49917818867127
 10
233.63031298384442
 20
181.81992142422723
 10
233.99658373276276
 20
181.14869247069217
 10
234.3760501570522
 20
180.4857877238761
 10
234.76854469502217
 20
179.83149990385365
 10
235.17389403213392
 20
179.1861179257072
 10
235.59191917753122
 20
178.54992677195008
 10
236.02243554307773
 20
177.92320736668626
 10
236.46525302486597
 20
177.30623645156223
 10
236.92017608716182
 20
176.69928646356567
 10
237.38700384874755
 20
176.1026254147249
 10
237.86553017162538
 20
175.5165167737625
 10
238.35554375204222
 20
174.9412193497546
 10
238.85682821379538
 20
174.37698717784838
 10
239.36916220377827
 20
173.82406940708717
 10
239.89231948972377
 20
173.28271019039323
 10
240.4260690601018
 20
172.75314857675684
 10
240.9701752261278
 20
172.2356184056788
 10
241.52439772583602
 20
171.73034820391354
 10
242.08849183017267
 20
171.23756108455825
 10
242.6622084510611
 20
170.75747464853234
 10
243.24529425139232
 20
170.29030088849092
 10
243.83749175689147
 20
169.836246095215
 10
244.43853946981113
 20
169.39551076651907
 10
245.04817198440148
 20
168.96828951871714
 10
245.66612010410591
 20
168.55477100068543
 10
246.2921109604307
 20
168.1551378105605
 10
246.92586813343613
 20
167.76956641510893
 10
247.5671117737955
 20
167.39822707180474
 10
248.215558726369
 20
167.04128375364826
 10
248.87092265523697
 20
166.69889407676044
 10
249.53291417013756
 20
166.37120923078396
 10
250.20124095425368
 20
166.05837391212202
 10
250.87560789329163
 20
165.76052626004474
 10
251.55571720579533
 20
165.4777977956905
 10
252.2412685746382
 20
165.21031336399
 10
252.93195927963487
 20
164.95819107853833
 10
253.62748433121374
 20
164.72154226943917
 10
254.32753660509184
 20
164.5004714341447
 10
255.0318069778923
 20
164.29507619131243
 10
255.73998446364453
 20
164.10544723769942
 10
256.45175635110684
 20
163.93166830811336
 10
257.16680834185087
 20
163.77381613843744
 10
257.8848246890471
 20
163.6319604317461
 10
258.60548833688955
 20
163.506163827526
 10
259.3284810605989
 20
163.39648187401622
 10
260.05348360694137
 20
163.3029630036798
 10
260.7801758352022
 20
163.2256485118172
 10
261.50823685855056
 20
163.16457253833153
 10
262.2373451857344
 20
163.11976205265333
 10
262.9671788630415
 20
163.0912368418316
 10
263.69741561646583
 20
163.0790095017964
 10
264.4277329940139
 20
163.08308543179695
 10
265.15780850809114
 20
163.10346283201721
 10
265.887319777903
 20
163.14013270437098
 10
266.61594467180925
 20
163.19307885647487
 10
267.3433614495685
 20
163.2622779087986
 10
268.0692489044091
 20
163.34769930498874
 10
268.79328650486576
 20
163.4493053253614
 10
269.5151545363166
 20
163.56705110355833
 10
270.2345342421601
 20
163.70088464635856
 10
270.9511079645698
 20
163.85074685663713
 10
271.66455928476216
 20
164.01657155946083
 10
272.37457316271866
 20
164.198285531309
 10
273.0808360762985
 20
164.39580853240716
 10
273.78303615968116
 20
164.6090533421585
 10
274.48086334107757
 20
164.83792579765813
 10
275.17400947964904
 20
165.08232483527271
 10
275.8621685015736
 20
165.34214253526739
 10
276.5450365351997
 20
165.61726416945996
 10
277.22231204522717
 20
165.90756825188177
 10
277.8936959658569
 20
166.21292659242243
 10
278.5588918328497
 20
166.53320435343497
 10
279.2176059144369
 20
166.86826010927624
 10
279.8695473410234
 20
167.21794590875675
 10
280.5144282336283
 20
167.58210734047142
 10
281.15196383100346
 20
167.96058360098363
 10
281.78187261537647
 20
168.35320756583124
 10
282.4038764367608
 20
168.75980586332423
 10
283.01770063577914
 20
169.1801989511006
 10
283.6230741649449
 20
169.6142011954074
 10
284.2197297083497
 20
170.0616209530711
 10
284.807403799702
 20
170.52226065612217
 10
285.3858369386669
 20
170.99591689903528
 10
285.95477370545365
 20
171.4823805285475
 10
286.5139628736023
 20
171.9814367360146
 10
287.063157520918
 20
172.49286515226427
 10
287.6021151385051
 20
173.01643994490527
 10
288.13059773785176
 20
173.55192991804836
 10
288.6483719559196
 20
174.0990986143961
 10
289.1552091581898
 20
174.6577044196556
 10
289.65088553962187
 20
175.2275006692286
 10
290.1351822234798
 20
175.80823575713177
 10
290.60788535798133
 20
176.39965324709863
 10
291.06878621072946
 20
177.0014919858147
 10
291.5176812608825
 20
177.6134862182354
 10
291.95437228902324
 20
178.23536570493604
 10
292.37866646468694
 20
178.86685584144195
 10
292.7903764315101
 20
179.50767777948596
 10
293.1893203899614
 20
180.15754855014012
 10
293.5753221776195
 20
180.81618118876676
 10
293.94821134696144
 20
181.48328486173386
 10
294.3078232406273
 20
182.15856499483925
 10
294.6539990641282
 20
182.84172340338603
 10
294.98658595596584
 20
183.53245842385263
 10
295.3054370551315
 20
184.23046504709907
 10
295.6104115659557
 20
184.93543505305016
 10
295.90137482028
 20
185.647057146797
 10
296.1781983369221
 20
186.36501709605602
 10
296.44075987841006
 20
187.08899786992498
 10
296.6889435049585
 20
187.81867977887504
 10
296.9226396256646
 20
188.55374061591658
 10
297.14174504690027
 20
189.2938557988768
 10
297.3461630178796
 20
190.03869851372593
 10
297.53580327338113
 20
190.78793985888933
 10
297.71058207360664
 20
191.541248990481
 10
297.8704222411583
 20
192.29829326839487
 10
298.0152531951176
 20
193.05873840318955
 10
298.1450109822126
 20
193.82224860370087
 10
298.2596383050573
 20
194.58848672531803
 10
298.35908454745277
 20
195.35711441885695
 10
298.44330579673795
 20
196.12779227996592
 10
298.51226486318006
 20
196.90017999899698
 10
298.5659312963966
 20
197.673936511277
 10
298.60428139880156
 20
198.44872014771227
 10
298.6272982360692
 20
199.22418878565998
 10
298.6349716446121
 20
200.0
  0
LINE
  5
94
330
17
100
AcDbEntity
  8
Layer
 62
7
100
AcDbLine
 10
20.8943441871225
 20
200.00000000000003
 30
0.0
 11
501.9692927938527
 21
199.99999999999997
 31
0.0
  0
LINE
  5
95
330
17
100
AcDbEntity
  8
Layer
 62
7
100
AcDbLine
 10
115.00933390846853
 20
200.00000000000003
 30
0.0
 11
127.00933390846853
 21
200.00000000000003
 31
0.0
  0
LWPOLYLINE
  5
96
330
17
100
AcDbEntity
  8
Layer
100
AcDbPolyline
 90
5
 70
0
 10
121.00933390846853
 20
205.00000000000003
 10
126.00933390846853
 20
200.00000000000003
 10
121.00933390846853
 20
195.00000000000003
 10
116.00933390846853
 20
200.00000000000003
 10
121.00933390846853
 20
205.00000000000003
  0
LINE
  5
97
330
17
100
AcDbEntity
  8
Layer
 62
7
100
AcDbLine
 10
255.43181849048756
 20
200.0
 30
0.0
 11
267.43181849048756
 21
200.0
 31
0.0
  0
LWPOLYLINE
  5
98
330
17
100
AcDbEntity
  8
Layer
100
AcDbPolyline
 90
5
 70
0
 10
261.43181849048756
 20
205.0
 10
266.43181849048756
 20
200.0
 10
261.43181849048756
 20
195.0
 10
256.43181849048756
 20
200.0
 10
261.43181849048756
 20
205.0
  0
LINE
  5
99
330
17
100
AcDbEntity
  8
Layer
 62
7
100
AcDbLine
 10
395.85430307250664
 20
199.99999999999997
 30
0.0
 11
407.85430307250664
 21
199.99999999999997
 31
0.0
  0
LWPOLYLINE
  5
9A
330
17
100
AcDbEntity
  8
Layer
100
AcDbPolyline
 90
5
 70
0
 10
401.85430307250664
 20
204.99999999999997
 10
406.85430307250664
 20
199.99999999999997
 10
401.85430307250664
 20
194.99999999999997
 10
396.85430307250664
 20
199.99999999999997
 10
401.85430307250664
 20
204.99999999999997
  0
LINE
  5
9B
330
17
100
AcDbEntity
  8
Layer
 62
7
100
AcDbLine
 10
9.911588229758365
 20
183.34033971398915
 30
0.0
 11
326.87874505515003
 21
162.9540957439125
 31
0.0
  0
LINE
  5
9C
330
17
100
AcDbEntity
  8
Layer
 62
7
100
AcDbLine
 10
71.20934961948612
 20
179.39787724870945
 30
0.0
 11
83.18460662148951
 21
178.62766965593448
 31
0.0
  0
LWPOLYLINE
  5
9D
330
17
100
AcDbEntity
  8
Layer
100
AcDbPolyline
 90
5
 70
0
 10
77.51789795081072
 20
184.0024638698234
 10
82.18666853798923
 20
178.69185362199906
 10
76.8760582901649
 20
174.02308303482053
 10
72.20728770298639
 20
179.33369328264487
 10
77.51789795081072
 20
184.0024638698234
  0
LINE
  5
9E
330
17
100
AcDbEntity
  8
Layer
 62
7
100
AcDbLine
 10
147.20784005445807
 20
174.50991414590015
 30
0.0
 11
159.18309705646152
 21
173.7397065531252
 31
0.0
  0
LWPOLYLINE
  5
9F
330
17
100
AcDbEntity
  8
Layer
100
AcDbPolyline
 90
5
 70
0
 10
153.5163883857827
 20
179.1145007670141
 10
158.18515897296123
 20
173.80389051918976
 10
152.8745487251369
 20
169.13511993201124
 10
148.20577813795836
 20
174.44573017983558
 10
153.5163883857827
 20
179.1145007670141
  0
LINE
  5
A0
330
17
100
AcDbEntity
  8
Layer
100
AcDbLine
 10
263.87999999999965
 20
236.92149999999998
 30
0.0
 11
263.87999999999965
 21
237.92149999999998
 31
0.0
  0
LINE
  5
A1
330
17
100
AcDbEntity
  8
Layer
100
AcDbLine
 10
263.87999999999965
 20
163.07850000000002
 30
0.0
 11
263.87999999999965
 21
162.07850000000002
 31
0.0
  0
LINE
  5
A2
330
17
100
AcDbEntity
  8
Layer
100
AcDbLine
 10
298.6349716446121
 20
200.0
 30
0.0
 11
299.6349716446121
 21
200.0
 31
0.0
  0
LINE
  5
A3
330
17
100
AcDbEntity
  8
Layer
100
AcDbLine
 10
229.1250283553872
 20
200.0
 30
0.0
 11
228.1250283553872
 21
200.0
 31
0.0
  0
LINE
  5
A4
330
17
100
AcDbEntity
  8
Layer
 62
7
100
AcDbLine
 10
113.87999999999965
 20
157.67957443205876
 30
0.0
 11
113.87999999999965
 21
236.41899525406998
 31
0.0
  0
LINE
  5
A5
330
17
100
AcDbEntity
  8
Layer
 62
7
100
AcDbLine
 10
113.87999999999965
 20
181.18837171976267
 30
0.0
 11
113.87999999999965
 21
193.18837171976267
 31
0.0
  0
LWPOLYLINE
  5
A6
330
17
100
AcDbEntity
  8
Layer
100
AcDbPolyline
 90
5
 70
0
 10
108.87999999999965
 20
187.18837171976267
 10
113.87999999999965
 20
192.18837171976267
 10
118.87999999999965
 20
187.18837171976267
 10
113.87999999999965
 20
182.18837171976267
 10
108.87999999999965
 20
187.18837171976267
  0
LINE
  5
A7
330
17
100
AcDbEntity
  8
Layer
 62
7
100
AcDbLine
 10
113.87999999999965
 20
200.91019796636604
 30
0.0
 11
113.87999999999965
 21
212.91019796636604
 31
0.0
  0
LWPOLYLINE
  5
A8
330
17
100
AcDbEntity
  8
Layer
100
AcDbPolyline
 90
5
 70
0
 10
108.87999999999965
 20
206.91019796636604
 10
113.87999999999965
 20
211.91019796636604
 10
118.87999999999965
 20
206.91019796636604
 10
113.87999999999965
 20
201.91019796636604
 10
108.87999999999965
 20
206.91019796636604
  0
LWPOLYLINE
  5
A9
330
17
100
AcDbEntity
  8
NumLabel
 62
1
100
AcDbPolyline
 90
6
 70
0
 10
202.06947368421027
 20
176.5947368421053
 10
197.06947368421027
 20
176.5947368421053
 10
197.06947368421027
 20
171.5947368421053
 10
202.06947368421027
 20
171.5947368421053
 10
202.06947368421027
 20
166.5947368421053
 10
197.06947368421027
 20
166.5947368421053
  0
LWPOLYLINE
  5
AA
330
17
100
AcDbEntity
  8
NumLabel
 62
1
100
AcDbPolyline
 90
5
 70
0
 10
204.56947368421027
 20
176.5947368421053
 10
204.56947368421027
 20
171.5947368421053
 10
209.56947368421027
 20
171.5947368421053
 10
209.56947368421027
 20
176.5947368421053
 10
209.56947368421027
 20
166.5947368421053
  0
ENDSEC
  0
SECTION
  2
OBJECTS
  0
DICTIONARY
  5
A
330
0
100
AcDbDictionary
280
0
281
1
  3
ACAD_COLOR
350
B
  3
ACAD_GROUP
350
C
  3
ACAD_LAYOUT
350
D
  3
ACAD_MATERIAL
350
E
  3
ACAD_MLEADERSTYLE
350
F
  3
ACAD_MLINESTYLE
350
10
  3
ACAD_PLOTSETTINGS
350
11
  3
ACAD_PLOTSTYLENAME
350
12
  3
ACAD_SCALELIST
350
14
  3
ACAD_TABLESTYLE
350
15
  3
ACAD_VISUALSTYLE
350
16
  3
EZDXF_META
350
2D
  0
DICTIONARY
  5
B
330
A
100
AcDbDictionary
280
0
281
1
  0
DICTIONARY
  5
C
330
A
100
AcDbDictionary
280
0
281
1
  0
DICTIONARY
  5
D
330
A
100
AcDbDictionary
280
0
281
1
  3
Model
350
1A
  3
Layout1
350
1E
  0
DICTIONARY
  5
E
330
A
100
AcDbDictionary
280
0
281
1
  3
ByBlock
350
1F
  3
ByLayer
350
20
  3
Global
350
21
  0
DICTIONARY
  5
F
330
A
100
AcDbDictionary
280
0
281
1
  3
Standard
350
2C
  0
DICTIONARY
  5
10
330
A
100
AcDbDictionary
280
0
281
1
  3
Standard
350
22
  0
DICTIONARY
  5
11
330
A
100
AcDbDictionary
280
0
281
1
  0
ACDBDICTIONARYWDFLT
  5
12
330
A
100
AcDbDictionary
280
0
281
1
  3
Normal
350
13
100
AcDbDictionaryWithDefault
340
13
  0
ACDBPLACEHOLDER
  5
13
330
12
  0
DICTIONARY
  5
14
330
A
100
AcDbDictionary
280
0
281
1
  0
DICTIONARY
  5
15
330
A
100
AcDbDictionary
280
0
281
1
  0
DICTIONARY
  5
16
330
A
100
AcDbDictionary
280
0
281
1
  3
2dWireframe
350
5A
  3
Basic
350
5B
  3
Brighten
350
5C
  3
ColorChange
350
5D
  3
Conceptual
350
5E
  3
Dim
350
5F
  3
EdgeColorOff
350
60
  3
Facepattern
350
61
  3
Flat
350
62
  3
FlatWithEdges
350
63
  3
Gouraud
350
64
  3
GouraudWithEdges
350
65
  3
Hidden
350
66
  3
JitterOff
350
67
  3
Linepattern
350
68
  3
Modeling
350
69
  3
OverhangOff
350
6A
  3
Realistic
350
6B
  3
Shaded
350
6C
  3
Shaded with edges
350
6D
  3
Shades of Gray
350
6E
  3
Sketchy
350
6F
  3
Thicken
350
70
  3
Wireframe
350
71
  3
X-Ray
350
72
  0
LAYOUT
  5
1A
330
D
100
AcDbPlotSettings
  1

  2
Adobe PDF
  4
A3
  6

 40
7.5
 41
20.0
 42
7.5
 43
20.0
 44
420.0
 45
297.0
 46
0.0
 47
0.0
 48
0.0
 49
0.0
140
0.0
141
0.0
142
1.0
143
1.0
 70
1024
 72
1
 73
0
 74
5
  7

 75
16
 76
0
 77
2
 78
300
147
1.0
148
0.0
149
0.0
100
AcDbLayout
  1
Model
 70
1
 71
0
 10
0.0
 20
0.0
 11
420.0
 21
297.0
 12
0.0
 22
0.0
 32
0.0
 14
1e+20
 24
1e+20
 34
1e+20
 15
-1e+20
 25
-1e+20
 35
-1e+20
146
0.0
 13
0.0
 23
0.0
 33
0.0
 16
1.0
 26
0.0
 36
0.0
 17
0.0
 27
1.0
 37
0.0
 76
1
330
17
  0
LAYOUT
  5
1E
330
D
100
AcDbPlotSettings
  1

  2
Adobe PDF
  4
A3
  6

 40
7.5
 41
20.0
 42
7.5
 43
20.0
 44
420.0
 45
297.0
 46
0.0
 47
0.0
 48
0.0
 49
0.0
140
0.0
141
0.0
142
1.0
143
1.0
 70
0
 72
1
 73
0
 74
5
  7

 75
16
 76
0
 77
2
 78
300
147
1.0
148
0.0
149
0.0
100
AcDbLayout
  1
Layout1
 70
1
 71
1
 10
0.0
 20
0.0
 11
420.0
 21
297.0
 12
0.0
 22
0.0
 32
0.0
 14
1e+20
 24
1e+20
 34
1e+20
 15
-1e+20
 25
-1e+20
 35
-1e+20
146
0.0
 13
0.0
 23
0.0
 33
0.0
 16
1.0
 26
0.0
 36
0.0
 17
0.0
 27
1.0
 37
0.0
 76
1
330
1B
  0
MATERIAL
  5
1F
102
{ACAD_REACTORS
330
E
102
}
330
E
100
AcDbMaterial
  1
ByBlock
  2

 70
0
 40
1.0
 71
1
 41
1.0
 91
-1023410177
 42
1.0
 72
1
  3

 73
1
 74
1
 75
1
 44
0.5
 73
0
 45
1.0
 46
1.0
 77
1
  4

 78
1
 79
1
170
1
 48
1.0
171
1
  6

172
1
173
1
174
1
140
1.0
141
1.0
175
1
  7

176
1
177
1
178
1
143
1.0
179
1
  8

270
1
271
1
272
1
145
1.0
146
1.0
273
1
  9

274
1
275
1
276
1
 42
1.0
 72
1
  3

 73
1
 74
1
 75
1
 94
63
  0
MATERIAL
  5
20
102
{ACAD_REACTORS
330
E
102
}
330
E
100
AcDbMaterial
  1
ByLayer
  2

 70
0
 40
1.0
 71
1
 41
1.0
 91
-1023410177
 42
1.0
 72
1
  3

 73
1
 74
1
 75
1
 44
0.5
 73
0
 45
1.0
 46
1.0
 77
1
  4

 78
1
 79
1
170
1
 48
1.0
171
1
  6

172
1
173
1
174
1
140
1.0
141
1.0
175
1
  7

176
1
177
1
178
1
143
1.0
179
1
  8

270
1
271
1
272
1
145
1.0
146
1.0
273
1
  9

274
1
275
1
276
1
 42
1.0
 72
1
  3

 73
1
 74
1
 75
1
 94
63
  0
MATERIAL
  5
21
102
{ACAD_REACTORS
330
E
102
}
330
E
100
AcDbMaterial
  1
Global
  2

 70
0
 40
1.0
 71
1
 41
1.0
 91
-1023410177
 42
1.0
 72
1
  3

 73
1
 74
1
 75
1
 44
0.5
 73
0
 45
1.0
 46
1.0
 77
1
  4

 78
1
 79
1
170
1
 48
1.0
171
1
  6

172
1
173
1
174
1
140
1.0
141
1.0
175
1
  7

176
1
177
1
178
1
143
1.0
179
1
  8

270
1
271
1
272
1
145
1.0
146
1.0
273
1
  9

274
1
275
1
276
1
 42
1.0
 72
1
  3

 73
1
 74
1
 75
1
 94
63
  0
MLINESTYLE
  5
22
102
{ACAD_REACTORS
330
10
102
}
330
10
100
AcDbMlineStyle
  2
Standard
 70
0
  3

 62
256
 51
90.0
 52
90.0
 71
2
 49
0.5
 62
256
  6
BYLAYER
 49
-0.5
 62
256
  6
BYLAYER
  0
MLEADERSTYLE
  5
2C
102
{ACAD_REACTORS
330
F
102
}
330
F
100
AcDbMLeaderStyle
179
2
170
2
171
1
172
0
 90
2
 40
0.0
 41
0.0
173
1
 91
-1056964608
 92
-2
290
1
 42
2.0
291
1
 43
8.0
  3
Standard
 44
4.0
300

342
29
174
1
175
1
176
0
178
1
 93
-1056964608
 45
4.0
292
0
297
0
 46
4.0
 94
-1056964608
 47
1.0
 49
1.0
140
1.0
294
1
141
0.0
177
0
142
1.0
295
0
296
0
143
3.75
271
0
272
9
273
9
  0
DICTIONARY
  5
2D
330
A
100
AcDbDictionary
281
1
  3
CREATED_BY_EZDXF
350
2E
  3
WRITTEN_BY_EZDXF
350
AD
  0
DICTIONARYVAR
  5
2E
330
2D
100
DictionaryVariables
280
0
  1
1.3.0 @ 2026-01-06T17:07:20.031829+00:00
  0
VISUALSTYLE
  5
5A
102
{ACAD_REACTORS
330
16
102
}
330
16
100
AcDbVisualStyle
  2
2dWireframe
 70
4
 90
0
 40
0.6
 62
7
290
0
291
0
  0
VISUALSTYLE
  5
5B
102
{ACAD_REACTORS
330
16
102
}
330
16
100
AcDbVisualStyle
  2
Basic
 70
7
 90
1
 40
0.6
 62
7
290
0
291
1
  0
VISUALSTYLE
  5
5C
102
{ACAD_REACTORS
330
16
102
}
330
16
100
AcDbVisualStyle
  2
Brighten
 70
12
 90
2
 40
0.6
 62
7
290
0
291
1
  0
VISUALSTYLE
  5
5D
102
{ACAD_REACTORS
330
16
102
}
330
16
100
AcDbVisualStyle
  2
ColorChange
 70
16
 90
2
 40
0.6
 62
8
290
0
291
1
  0
VISUALSTYLE
  5
5E
102
{ACAD_REACTORS
330
16
102
}
330
16
100
AcDbVisualStyle
  2
Conceptual
 70
9
 90
3
 40
0.6
 62
7
290
0
291
0
  0
VISUALSTYLE
  5
5F
102
{ACAD_REACTORS
330
16
102
}
330
16
100
AcDbVisualStyle
  2
Dim
 70
11
 90
2
 40
0.6
 62
7
290
0
291
1
  0
VISUALSTYLE
  5
60
102
{ACAD_REACTORS
330
16
102
}
330
16
100
AcDbVisualStyle
  2
EdgeColorOff
 70
22
 90
2
 40
0.6
 62
7
290
0
291
1
  0
VISUALSTYLE
  5
61
102
{ACAD_REACTORS
330
16
102
}
330
16
100
AcDbVisualStyle
  2
Facepattern
 70
15
 90
2
 40
0.6
 62
7
290
0
291
1
  0
VISUALSTYLE
  5
62
102
{ACAD_REACTORS
330
16
102
}
330
16
100
AcDbVisualStyle
  2
Flat
 70
0
 90
2
 40
0.6
 62
7
290
0
291
1
  0
VISUALSTYLE
  5
63
102
{ACAD_REACTORS
330
16
102
}
330
16
100
AcDbVisualStyle
  2
FlatWithEdges
 70
1
 90
2
 40
0.6
 62
7
290
0
291
1
  0
VISUALSTYLE
  5
64
102
{ACAD_REACTORS
330
16
102
}
330
16
100
AcDbVisualStyle
  2
Gouraud
 70
2
 90
2
 40
0.6
 62
7
290
0
291
1
  0
VISUALSTYLE
  5
65
102
{ACAD_REACTORS
330
16
102
}
330
16
100
AcDbVisualStyle
  2
GouraudWithEdges
 70
3
 90
2
 40
0.6
 62
7
290
0
291
1
  0
VISUALSTYLE
  5
66
102
{ACAD_REACTORS
330
16
102
}
330
16
100
AcDbVisualStyle
  2
Hidden
 70
6
 90
1
 40
0.6
 62
7
290
0
291
0
  0
VISUALSTYLE
  5
67
102
{ACAD_REACTORS
330
16
102
}
330
16
100
AcDbVisualStyle
  2
JitterOff
 70
20
 90
2
 40
0.6
 62
7
290
0
291
1
  0
VISUALSTYLE
  5
68
102
{ACAD_REACTORS
330
16
102
}
330
16
100
AcDbVisualStyle
  2
Linepattern
 70
14
 90
2
 40
0.6
 62
7
290
0
291
1
  0
VISUALSTYLE
  5
69
102
{ACAD_REACTORS
330
16
102
}
330
16
100
AcDbVisualStyle
  2
Modeling
 70
10
 90
2
 40
0.6
 62
7
290
0
291
0
  0
VISUALSTYLE
  5
6A
102
{ACAD_REACTORS
330
16
102
}
330
16
100
AcDbVisualStyle
  2
OverhangOff
 70
21
 90
2
 40
0.6
 62
7
290
0
291
1
  0
VISUALSTYLE
  5
6B
102
{ACAD_REACTORS
330
16
102
}
330
16
100
AcDbVisualStyle
  2
Realistic
 70
8
 90
2
 40
0.6
 62
7
290
0
291
0
  0
VISUALSTYLE
  5
6C
102
{ACAD_REACTORS
330
16
102
}
330
16
100
AcDbVisualStyle
  2
Shaded
 70
27
 90
2
 40
0.6
 62
7
290
0
291
0
  0
VISUALSTYLE
  5
6D
102
{ACAD_REACTORS
330
16
102
}
330
16
100
AcDbVisualStyle
  2
Shaded with edges
 70
26
 90
2
 40
0.6
 62
7
290
0
291
0
  0
VISUALSTYLE
  5
6E
102
{ACAD_REACTORS
330
16
102
}
330
16
100
AcDbVisualStyle
  2
Shades of Gray
 70
23
 90
2
 40
0.6
 62
7
290
0
291
0
  0
VISUALSTYLE
  5
6F
102
{ACAD_REACTORS
330
16
102
}
330
16
100
AcDbVisualStyle
  2
Sketchy
 70
24
 90
1
 40
0.6
 62
7
290
0
291
0
  0
VISUALSTYLE
  5
70
102
{ACAD_REACTORS
330
16
102
}
330
16
100
AcDbVisualStyle
  2
Thicken
 70
13
 90
2
 40
0.6
 62
7
290
0
291
1
  0
VISUALSTYLE
  5
71
102
{ACAD_REACTORS
330
16
102
}
330
16
100
AcDbVisualStyle
  2
Wireframe
 70
5
 90
0
 40
0.6
 62
7
290
0
291
0
  0
VISUALSTYLE
  5
72
102
{ACAD_REACTORS
330
16
102
}
330
16
100
AcDbVisualStyle
  2
X-Ray
 70
25
 90
2
 40
0.5
 62
7
290
0
291
0
  0
DICTIONARYVAR
  5
AD
330
2D
100
DictionaryVariables
280
0
  1
1.3.0 @ 2026-01-06T17:07:20.164728+00:00
  0
ENDSEC
  0
EOF
