<?xml version="1.0" encoding="utf-8" standalone="no"?>
<!DOCTYPE svg PUBLIC "-//W3C//DTD SVG 1.1//EN"
  "http://www.w3.org/Graphics/SVG/1.1/DTD/svg11.dtd">
<svg xmlns:xlink="http://www.w3.org/1999/xlink" width="1152pt" height="318.009948pt" viewBox="0 0 1152 318.009948" xmlns="http://www.w3.org/2000/svg" version="1.1">
 <metadata>
  <rdf:RDF xmlns:dc="http://purl.org/dc/elements/1.1/" xmlns:cc="http://creativecommons.org/ns#" xmlns:rdf="http://www.w3.org/1999/02/22-rdf-syntax-ns#">
   <cc:Work>
    <dc:type rdf:resource="http://purl.org/dc/dcmitype/StillImage"/>
    <dc:date>2026-01-07T02:07:21.263542</dc:date>
    <dc:format>image/svg+xml</dc:format>
    <dc:creator>
     <cc:Agent>
      <dc:title>Matplotlib v3.10.1, https://matplotlib.org/</dc:title>
     </cc:Agent>
    </dc:creator>
   </cc:Work>
  </rdf:RDF>
 </metadata>
 <defs>
  <style type="text/css">*{stroke-linejoin: round; stroke-linecap: butt}</style>
 </defs>
 <g id="figure_1">
  <g id="patch_1">
   <path d="M 0 318.009948 
L 1152 318.009948 
L 1152 0 
L 0 0 
z
" style="fill: #ffffff"/>
  </g>
  <g id="axes_1">
   <g id="patch_2">
    <path d="M 0 318.009948 
L 1152 318.009948 
L 1152 0 
L 0 0 
z
" style="fill: #212830"/>
   </g>
   <g id="patch_3">
    <path d="M 1099.636364 40.605673 
L 1086.953518 38.8344 
L 1066.122098 36.096327 
L 1045.255481 33.52301 
L 1024.354771 31.109857 
L 1003.431358 28.855554 
L 982.488801 26.764238 
L 961.523441 24.835928 
L 940.540896 23.06695 
L 919.553813 21.458022 
L 898.569109 20.01167 
L 877.591982 18.729392 
L 856.624079 17.612594 
L 835.676159 16.65904 
L 814.762246 15.873018 
L 793.879815 15.260764 
L 773.028947 14.819969 
L 752.223439 14.549599 
L 731.473128 14.454998 
L 710.778904 14.540249 
L 690.143269 14.804677 
L 669.579941 15.248742 
L 649.099947 15.878279 
L 628.701907 16.69757 
L 608.395006 17.704851 
L 588.189626 18.903977 
L 568.099331 20.295056 
L 548.132038 21.885785 
L 528.291541 23.675902 
L 508.599526 25.66431 
L 489.067836 27.859042 
L 469.7016 30.262997 
L 450.514654 32.873292 
L 431.531774 35.689184 
L 412.76795 38.717423 
L 394.23361 41.954833 
L 375.966179 45.387836 
L 358.009347 49.013758 
L 340.392578 52.834518 
L 323.14497 56.84026 
L 306.315716 61.012934 
L 289.953875 65.342988 
L 274.091408 69.820667 
L 258.772636 74.414784 
L 244.051429 79.097757 
L 229.967169 83.849249 
L 216.548807 88.641368 
L 203.824481 93.438482 
L 191.814185 98.216686 
L 180.512929 102.959742 
L 169.90959 107.642533 
L 159.98628 112.244415 
L 150.727825 116.750798 
L 142.097793 121.170278 
L 134.057515 125.493923 
L 126.576792 129.716059 
L 119.62505 133.836719 
L 113.177914 137.859144 
L 107.210972 141.787321 
L 101.693767 145.62717 
L 96.613585 149.360142 
L 91.954028 152.988527 
L 87.691072 156.518669 
L 83.789073 159.963282 
L 80.216874 163.315284 
L 73.884551 169.781461 
L 68.518203 175.825537 
L 66.180764 178.698392 
L 64.07438 181.482743 
L 62.18924 184.210784 
L 60.505171 186.909313 
L 59.004638 189.576895 
L 57.668957 192.217531 
L 55.447966 197.354891 
L 54.558197 199.826861 
L 53.817923 202.225608 
L 53.235328 204.526666 
L 52.810338 206.82387 
L 52.525639 209.089937 
L 52.376837 211.3081 
L 52.363636 213.532318 
L 52.496326 215.762782 
L 52.789629 217.984157 
L 53.26162 220.187882 
L 53.938101 222.381341 
L 54.845485 224.577123 
L 55.998291 226.778619 
L 57.394533 228.976875 
L 59.023595 231.155504 
L 60.881216 233.300254 
L 62.977084 235.403671 
L 65.333957 237.467069 
L 67.965317 239.490874 
L 70.878699 241.473172 
L 74.093905 243.416489 
L 77.630724 245.329694 
L 81.485001 247.217076 
L 85.644986 249.070775 
L 90.126598 250.880269 
L 94.944159 252.6483 
L 100.084159 254.376307 
L 105.559142 256.066272 
L 111.394883 257.728675 
L 124.23798 261.035457 
L 131.269819 262.686429 
L 138.782245 264.326363 
L 155.51344 267.629482 
L 164.827188 269.306623 
L 174.861749 270.993479 
L 185.697501 272.682612 
L 197.415021 274.372749 
L 210.076611 276.063797 
L 223.726944 277.745331 
L 238.394733 279.401512 
L 254.079352 281.018302 
L 270.749274 282.580987 
L 288.3398 284.07452 
L 306.784869 285.475773 
L 325.99566 286.784964 
L 345.862936 287.998531 
L 366.299524 289.106107 
L 387.230214 290.112266 
L 408.577977 291.021508 
L 452.389477 292.555547 
L 461.796925 292.84102 
L 461.69474 296.208387 
L 497.254928 297.25594 
L 542.577349 298.362652 
L 588.483946 299.160418 
L 704.787123 300.86309 
L 822.334332 301.874031 
L 916.45704 302.566426 
L 1010.327876 303.118416 
L 1099.636364 303.55495 
L 1099.636364 40.605673 
L 1099.636364 40.605673 
" clip-path="url(#pfb829aec56)" style="fill: none; stroke: #ff0000; stroke-width: 0.72; stroke-linejoin: miter"/>
   </g>
   <g id="patch_4">
    <path d="M 655.634852 229.194544 
L 638.790272 229.194544 
L 638.790272 246.039124 
L 655.634852 246.039124 
L 655.634852 262.883705 
L 638.790272 262.883705 
" clip-path="url(#pfb829aec56)" style="fill: none; stroke: #ff0000; stroke-width: 0.72; stroke-linejoin: miter"/>
   </g>
   <g id="patch_5">
    <path d="M 664.057143 246.039124 
L 664.057143 229.194544 
L 680.901723 229.194544 
L 680.901723 262.883705 
" clip-path="url(#pfb829aec56)" style="fill: none; stroke: #ff0000; stroke-width: 0.72; stroke-linejoin: miter"/>
   </g>
   <g id="patch_6">
    <path d="M 634.268994 29.913601 
L 620.809885 30.58137 
L 620.142116 17.122261 
L 633.601225 16.454492 
L 634.268994 29.913601 
" clip-path="url(#pfb829aec56)" style="fill: none; stroke: #ff0000; stroke-width: 0.72; stroke-linejoin: miter"/>
   </g>
   <g id="patch_7">
    <path d="M 278.103795 82.685965 
L 265.196267 86.557562 
L 261.32467 73.650034 
L 274.232198 69.778438 
L 278.103795 82.685965 
" clip-path="url(#pfb829aec56)" style="fill: none; stroke: #ff0000; stroke-width: 0.72; stroke-linejoin: miter"/>
   </g>
   <g id="patch_8">
    <path d="M 99.416905 168.635935 
L 94.3677 173.097315 
L 83.214251 160.474301 
L 88.263456 156.012922 
L 99.416905 168.635935 
" clip-path="url(#pfb829aec56)" style="fill: none; stroke: #ff0000; stroke-width: 0.72; stroke-linejoin: miter"/>
   </g>
   <g id="patch_9">
    <path d="M 75.715324 224.39515 
L 81.293649 228.174127 
L 71.846207 242.119941 
L 66.267881 238.340964 
L 75.715324 224.39515 
" clip-path="url(#pfb829aec56)" style="fill: none; stroke: #ff0000; stroke-width: 0.72; stroke-linejoin: miter"/>
   </g>
   <g id="patch_10">
    <path d="M 351.239281 274.794444 
L 364.695202 275.523636 
L 363.966011 288.979557 
L 350.51009 288.250365 
L 351.239281 274.794444 
" clip-path="url(#pfb829aec56)" style="fill: none; stroke: #ff0000; stroke-width: 0.72; stroke-linejoin: miter"/>
   </g>
   <g id="patch_11">
    <path d="M 975.867678 158.145957 
L 975.754999 152.743068 
L 975.417163 147.349722 
L 974.854766 141.975442 
L 974.068801 136.629721 
L 973.060656 131.322 
L 971.832112 126.061652 
L 970.385338 120.857968 
L 968.72289 115.720139 
L 966.847703 110.657237 
L 964.76309 105.678204 
L 962.472731 100.791835 
L 959.980673 96.006758 
L 957.291316 91.331425 
L 954.409409 86.774092 
L 951.340043 82.342809 
L 948.088639 78.045401 
L 944.660938 73.889458 
L 941.062994 69.88232 
L 937.301162 66.031063 
L 933.382085 62.34249 
L 929.312684 58.823115 
L 925.100148 55.479153 
L 920.751915 52.31651 
L 916.275664 49.340772 
L 911.679302 46.557194 
L 906.970945 43.970691 
L 902.15891 41.585833 
L 897.251695 39.406831 
L 892.257966 37.437533 
L 887.186542 35.681417 
L 882.046381 34.141585 
L 876.84656 32.820757 
L 871.596263 31.721264 
L 866.304762 30.845048 
L 860.981403 30.193658 
L 855.635587 29.768244 
L 850.276754 29.569556 
L 844.914371 29.597946 
L 839.557906 29.853364 
L 834.21682 30.335359 
L 828.900545 31.043078 
L 823.618472 31.975274 
L 818.379928 33.130298 
L 813.194165 34.506111 
L 808.070342 36.100284 
L 803.017507 37.910001 
L 798.044585 39.932066 
L 793.160359 42.162907 
L 788.373454 44.598585 
L 783.692324 47.234798 
L 779.125236 50.066891 
L 774.680258 53.089861 
L 770.365238 56.29837 
L 766.187797 59.686751 
L 762.155314 63.249021 
L 758.27491 66.978887 
L 754.553438 70.869762 
L 750.997471 74.914776 
L 747.613289 79.106783 
L 744.406868 83.438381 
L 741.383871 87.901919 
L 738.549638 92.489515 
L 735.909174 97.193066 
L 733.467141 102.004265 
L 731.227854 106.914616 
L 729.195267 111.915446 
L 727.372969 116.997924 
L 725.764179 122.153073 
L 724.371738 127.371788 
L 723.198105 132.644854 
L 722.245354 137.962957 
L 721.515166 143.316705 
L 721.008831 148.696642 
L 720.727244 154.093268 
L 720.670902 159.497052 
L 720.839904 164.898449 
L 721.233951 170.287921 
L 721.852349 175.655949 
L 722.694005 180.993053 
L 723.757432 186.289807 
L 725.040752 191.536856 
L 726.541699 196.724933 
L 728.257622 201.844877 
L 730.18549 206.887644 
L 732.321899 211.844329 
L 734.663076 216.706178 
L 737.204885 221.464603 
L 739.942838 226.111203 
L 742.8721 230.637769 
L 745.987496 235.036308 
L 749.283526 239.299052 
L 752.754367 243.418472 
L 756.39389 247.387293 
L 760.195668 251.198505 
L 764.152985 254.845378 
L 768.258853 258.32147 
L 772.506021 261.620644 
L 776.886987 264.737071 
L 781.394016 267.665249 
L 786.019145 270.400006 
L 790.754208 272.936512 
L 795.590842 275.270287 
L 800.520505 277.397209 
L 805.53449 279.313523 
L 810.623942 281.015844 
L 815.779874 282.501165 
L 820.993178 283.766863 
L 826.254649 284.810703 
L 831.554993 285.630842 
L 836.88485 286.22583 
L 842.234807 286.594618 
L 847.595415 286.736553 
L 852.957206 286.651386 
L 858.310713 286.339266 
L 863.646479 285.800745 
L 868.955081 285.036773 
L 874.227144 284.048701 
L 879.453357 282.838273 
L 884.624489 281.407627 
L 889.731409 279.759289 
L 894.765097 277.896171 
L 899.716662 275.821563 
L 904.577361 273.539129 
L 909.338608 271.0529 
L 913.991994 268.367266 
L 918.529302 265.486972 
L 922.942519 262.417104 
L 927.223849 259.163083 
L 931.365732 255.730656 
L 935.360853 252.125886 
L 939.202155 248.355139 
L 942.882856 244.425074 
L 946.396454 240.342632 
L 949.736744 236.115023 
L 952.897828 231.749714 
L 955.874121 227.254413 
L 958.660368 222.637061 
L 961.251648 217.905811 
L 963.643384 213.06902 
L 965.831353 208.13523 
L 967.81169 203.113154 
L 969.580898 198.011662 
L 971.135853 192.839763 
L 972.473807 187.606592 
L 973.592399 182.321391 
L 974.489652 176.993493 
L 975.163982 171.63231 
L 975.614198 166.247308 
L 975.839505 160.847998 
L 975.867678 158.145957 
L 975.867678 158.145957 
" clip-path="url(#pfb829aec56)" style="fill: none; stroke: #ff0000; stroke-width: 0.72; stroke-linejoin: miter"/>
   </g>
   <g id="patch_12">
    <path d="M 401.145547 141.301376 
L 417.990128 158.145957 
L 401.145547 174.990538 
L 384.300967 158.145957 
L 401.145547 141.301376 
" clip-path="url(#pfb829aec56)" style="fill: none; stroke: #ff0000; stroke-width: 0.72; stroke-linejoin: miter"/>
   </g>
   <g id="patch_13">
    <path d="M 841.245374 141.301376 
L 858.089955 158.145957 
L 841.245374 174.990538 
L 824.400794 158.145957 
L 841.245374 141.301376 
" clip-path="url(#pfb829aec56)" style="fill: none; stroke: #ff0000; stroke-width: 0.72; stroke-linejoin: miter"/>
   </g>
   <g id="patch_14">
    <path d="M 483.098768 219.430097 
L 498.849311 237.301868 
L 480.97754 253.05241 
L 465.226997 235.180639 
L 483.098768 219.430097 
" clip-path="url(#pfb829aec56)" style="fill: none; stroke: #ff0000; stroke-width: 0.72; stroke-linejoin: miter"/>
   </g>
   <g id="patch_15">
    <path d="M 992.675742 251.579253 
L 1008.426285 269.451024 
L 990.554514 285.201567 
L 974.803971 267.329796 
L 992.675742 251.579253 
" clip-path="url(#pfb829aec56)" style="fill: none; stroke: #ff0000; stroke-width: 0.72; stroke-linejoin: miter"/>
   </g>
   <g id="patch_16">
    <path d="M 561.907897 194.627346 
L 578.752477 177.782765 
L 595.597058 194.627346 
L 578.752477 211.471926 
L 561.907897 194.627346 
" clip-path="url(#pfb829aec56)" style="fill: none; stroke: #ff0000; stroke-width: 0.72; stroke-linejoin: miter"/>
   </g>
   <g id="patch_17">
    <path d="M 561.907897 123.932589 
L 578.752477 107.088008 
L 595.597058 123.932589 
L 578.752477 140.77717 
L 561.907897 123.932589 
" clip-path="url(#pfb829aec56)" style="fill: none; stroke: #ff0000; stroke-width: 0.72; stroke-linejoin: miter"/>
   </g>
   <g id="line2d_1">
    <path d="M 85.847708 158.145957 
L 1099.636364 158.145957 
" clip-path="url(#pfb829aec56)" style="fill: none; stroke: #ffffff; stroke-width: 0.72; stroke-linecap: square"/>
   </g>
   <g id="line2d_2">
    <path d="M 380.93205 158.145957 
L 421.359044 158.145957 
" clip-path="url(#pfb829aec56)" style="fill: none; stroke: #ffffff; stroke-width: 0.72; stroke-linecap: square"/>
   </g>
   <g id="line2d_3">
    <path d="M 821.031878 158.145957 
L 861.458871 158.145957 
" clip-path="url(#pfb829aec56)" style="fill: none; stroke: #ffffff; stroke-width: 0.72; stroke-linecap: square"/>
   </g>
   <g id="line2d_4">
    <path d="M 52.522071 209.14313 
L 1099.636364 275.205458 
" clip-path="url(#pfb829aec56)" style="fill: none; stroke: #ffffff; stroke-width: 0.72; stroke-linecap: square"/>
   </g>
   <g id="line2d_5">
    <path d="M 461.864766 234.968517 
L 502.211542 237.51399 
" clip-path="url(#pfb829aec56)" style="fill: none; stroke: #ffffff; stroke-width: 0.72; stroke-linecap: square"/>
   </g>
   <g id="line2d_6">
    <path d="M 971.44174 267.117673 
L 1011.788517 269.663147 
" clip-path="url(#pfb829aec56)" style="fill: none; stroke: #ffffff; stroke-width: 0.72; stroke-linecap: square"/>
   </g>
   <g id="line2d_7">
    <path d="M 848.265768 29.553586 
L 848.265768 26.18467 
" clip-path="url(#pfb829aec56)" style="fill: none; stroke: #ff0000; stroke-width: 0.72; stroke-linecap: square"/>
   </g>
   <g id="line2d_8">
    <path d="M 848.265768 286.738328 
L 848.265768 290.107244 
" clip-path="url(#pfb829aec56)" style="fill: none; stroke: #ff0000; stroke-width: 0.72; stroke-linecap: square"/>
   </g>
   <g id="line2d_9">
    <path d="M 975.867678 158.145957 
L 979.236594 158.145957 
" clip-path="url(#pfb829aec56)" style="fill: none; stroke: #ff0000; stroke-width: 0.72; stroke-linecap: square"/>
   </g>
   <g id="line2d_10">
    <path d="M 720.663858 158.145957 
L 717.294942 158.145957 
" clip-path="url(#pfb829aec56)" style="fill: none; stroke: #ff0000; stroke-width: 0.72; stroke-linecap: square"/>
   </g>
   <g id="line2d_11">
    <path d="M 578.752477 299.002517 
L 578.752477 19.557418 
" clip-path="url(#pfb829aec56)" style="fill: none; stroke: #ffffff; stroke-width: 0.72; stroke-linecap: square"/>
   </g>
   <g id="line2d_12">
    <path d="M 578.752477 214.840842 
L 578.752477 174.413849 
" clip-path="url(#pfb829aec56)" style="fill: none; stroke: #ffffff; stroke-width: 0.72; stroke-linecap: square"/>
   </g>
   <g id="line2d_13">
    <path d="M 578.752477 144.146086 
L 578.752477 103.719092 
" clip-path="url(#pfb829aec56)" style="fill: none; stroke: #ffffff; stroke-width: 0.72; stroke-linecap: square"/>
   </g>
  </g>
 </g>
 <defs>
  <clipPath id="pfb829aec56">
   <rect x="0" y="0" width="1152" height="318.009948"/>
  </clipPath>
 </defs>
</svg>
