  0
SECTION
  2
HEADER
  9
$ACADVER
  1
AC1021
  9
$ACADMAINTVER
 70
25
  9
$DWGCODEPAGE
  3
ANSI_1252
  9
$LASTSAVEDBY
  1
ezdxf
  9
$INSBASE
 10
0.0
 20
0.0
 30
0.0
  9
$EXTMIN
 10
1e+20
 20
1e+20
 30
1e+20
  9
$EXTMAX
 10
-1e+20
 20
-1e+20
 30
-1e+20
  9
$LIMMIN
 10
0.0
 20
0.0
  9
$LIMMAX
 10
420.0
 20
297.0
  9
$ORTHOMODE
 70
0
  9
$REGENMODE
 70
1
  9
$FILLMODE
 70
1
  9
$QTEXTMODE
 70
0
  9
$MIRRTEXT
 70
1
  9
$LTSCALE
 40
1.0
  9
$ATTMODE
 70
1
  9
$TEXTSIZE
 40
2.5
  9
$TRACEWID
 40
1.0
  9
$TEXTSTYLE
  7
OpenSans
  9
$CLAYER
  8
0
  9
$CELTYPE
  6
ByLayer
  9
$CECOLOR
 62
256
  9
$CELTSCALE
 40
1.0
  9
$DISPSILH
 70
0
  9
$DIMSCALE
 40
1.0
  9
$DIMASZ
 40
0.175
  9
$DIMEXO
 40
0.125
  9
$DIMDLI
 40
3.75
  9
$DIMRND
 40
0.0
  9
$DIMDLE
 40
0.0
  9
$DIMEXE
 40
0.375
  9
$DIMTP
 40
0.0
  9
$DIMTM
 40
0.0
  9
$DIMTXT
 40
0.25
  9
$DIMCEN
 40
2.5
  9
$DIMTSZ
 40
0.0
  9
$DIMTOL
 70
0
  9
$DIMLIM
 70
0
  9
$DIMTIH
 70
0
  9
$DIMTOH
 70
0
  9
$DIMSE1
 70
0
  9
$DIMSE2
 70
0
  9
$DIMTAD
 70
1
  9
$DIMZIN
 70
12
  9
$DIMBLK
  1
ARCHTICK
  9
$DIMASO
 70
1
  9
$DIMSHO
 70
1
  9
$DIMPOST
  1

  9
$DIMAPOST
  1

  9
$DIMALT
 70
0
  9
$DIMALTD
 70
3
  9
$DIMALTF
 40
0.03937007874
  9
$DIMLFAC
 40
100.0
  9
$DIMTOFL
 70
1
  9
$DIMTVP
 40
0.0
  9
$DIMTIX
 70
0
  9
$DIMSOXD
 70
0
  9
$DIMSAH
 70
0
  9
$DIMBLK1
  1

  9
$DIMBLK2
  1

  9
$DIMSTYLE
  2
EZDXF
  9
$DIMCLRD
 70
0
  9
$DIMCLRE
 70
0
  9
$DIMCLRT
 70
0
  9
$DIMTFAC
 40
0.5
  9
$DIMGAP
 40
0.1
  9
$DIMJUST
 70
0
  9
$DIMSD1
 70
0
  9
$DIMSD2
 70
0
  9
$DIMTOLJ
 70
0
  9
$DIMTZIN
 70
8
  9
$DIMALTZ
 70
0
  9
$DIMALTTZ
 70
0
  9
$DIMUPT
 70
1
  9
$DIMDEC
 70
2
  9
$DIMTDEC
 70
2
  9
$DIMALTU
 70
2
  9
$DIMALTTD
 70
3
  9
$DIMTXSTY
  7
OpenSansCondensed-Light
  9
$DIMAUNIT
 70
0
  9
$DIMADEC
 70
2
  9
$DIMALTRND
 40
0.0
  9
$DIMAZIN
 70
3
  9
$DIMDSEP
 70
46
  9
$DIMATFIT
 70
3
  9
$DIMFRAC
 70
0
  9
$DIMLDRBLK
  1

  9
$DIMLUNIT
 70
2
  9
$DIMLWD
 70
-2
  9
$DIMLWE
 70
-2
  9
$DIMTMOVE
 70
2
  9
$DIMFXL
 40
1.0
  9
$DIMFXLON
 70
0
  9
$DIMJOGANG
 40
0.785398163397
  9
$DIMTFILL
 70
0
  9
$DIMTFILLCLR
 70
0
  9
$DIMARCSYM
 70
0
  9
$DIMLTYPE
  6

  9
$DIMLTEX1
  6

  9
$DIMLTEX2
  6

  9
$LUNITS
 70
2
  9
$LUPREC
 70
4
  9
$SKETCHINC
 40
1.0
  9
$FILLETRAD
 40
10.0
  9
$AUNITS
 70
0
  9
$AUPREC
 70
2
  9
$MENU
  1
.
  9
$ELEVATION
 40
0.0
  9
$PELEVATION
 40
0.0
  9
$THICKNESS
 40
0.0
  9
$LIMCHECK
 70
0
  9
$CHAMFERA
 40
0.0
  9
$CHAMFERB
 40
0.0
  9
$CHAMFERC
 40
0.0
  9
$CHAMFERD
 40
0.0
  9
$SKPOLY
 70
0
  9
$TDCREATE
 40
2461048.088391204
  9
$TDUCREATE
 40
2458532.153996898
  9
$TDUPDATE
 40
2461048.088391204
  9
$TDUUPDATE
 40
2458532.1544311
  9
$TDINDWG
 40
0.0
  9
$TDUSRTIMER
 40
0.0
  9
$USRTIMER
 70
1
  9
$ANGBASE
 50
0.0
  9
$ANGDIR
 70
0
  9
$PDMODE
 70
0
  9
$PDSIZE
 40
0.0
  9
$PLINEWID
 40
0.0
  9
$SPLFRAME
 70
0
  9
$SPLINETYPE
 70
6
  9
$SPLINESEGS
 70
8
  9
$HANDSEED
  5
AE
  9
$SURFTAB1
 70
6
  9
$SURFTAB2
 70
6
  9
$SURFTYPE
 70
6
  9
$SURFU
 70
6
  9
$SURFV
 70
6
  9
$UCSBASE
  2

  9
$UCSNAME
  2

  9
$UCSORG
 10
0.0
 20
0.0
 30
0.0
  9
$UCSXDIR
 10
1.0
 20
0.0
 30
0.0
  9
$UCSYDIR
 10
0.0
 20
1.0
 30
0.0
  9
$UCSORTHOREF
  2

  9
$UCSORTHOVIEW
 70
0
  9
$UCSORGTOP
 10
0.0
 20
0.0
 30
0.0
  9
$UCSORGBOTTOM
 10
0.0
 20
0.0
 30
0.0
  9
$UCSORGLEFT
 10
0.0
 20
0.0
 30
0.0
  9
$UCSORGRIGHT
 10
0.0
 20
0.0
 30
0.0
  9
$UCSORGFRONT
 10
0.0
 20
0.0
 30
0.0
  9
$UCSORGBACK
 10
0.0
 20
0.0
 30
0.0
  9
$PUCSBASE
  2

  9
$PUCSNAME
  2

  9
$PUCSORG
 10
0.0
 20
0.0
 30
0.0
  9
$PUCSXDIR
 10
1.0
 20
0.0
 30
0.0
  9
$PUCSYDIR
 10
0.0
 20
1.0
 30
0.0
  9
$PUCSORTHOREF
  2

  9
$PUCSORTHOVIEW
 70
0
  9
$PUCSORGTOP
 10
0.0
 20
0.0
 30
0.0
  9
$PUCSORGBOTTOM
 10
0.0
 20
0.0
 30
0.0
  9
$PUCSORGLEFT
 10
0.0
 20
0.0
 30
0.0
  9
$PUCSORGRIGHT
 10
0.0
 20
0.0
 30
0.0
  9
$PUCSORGFRONT
 10
0.0
 20
0.0
 30
0.0
  9
$PUCSORGBACK
 10
0.0
 20
0.0
 30
0.0
  9
$USERI1
 70
0
  9
$USERI2
 70
0
  9
$USERI3
 70
0
  9
$USERI4
 70
0
  9
$USERI5
 70
0
  9
$USERR1
 40
0.0
  9
$USERR2
 40
0.0
  9
$USERR3
 40
0.0
  9
$USERR4
 40
0.0
  9
$USERR5
 40
0.0
  9
$WORLDVIEW
 70
1
  9
$SHADEDGE
 70
3
  9
$SHADEDIF
 70
70
  9
$TILEMODE
 70
1
  9
$MAXACTVP
 70
64
  9
$PINSBASE
 10
0.0
 20
0.0
 30
0.0
  9
$PLIMCHECK
 70
0
  9
$PEXTMIN
 10
1e+20
 20
1e+20
 30
1e+20
  9
$PEXTMAX
 10
-1e+20
 20
-1e+20
 30
-1e+20
  9
$PLIMMIN
 10
0.0
 20
0.0
  9
$PLIMMAX
 10
420.0
 20
297.0
  9
$UNITMODE
 70
0
  9
$VISRETAIN
 70
1
  9
$PLINEGEN
 70
0
  9
$PSLTSCALE
 70
1
  9
$TREEDEPTH
 70
3020
  9
$CMLSTYLE
  2
Standard
  9
$CMLJUST
 70
0
  9
$CMLSCALE
 40
20.0
  9
$PROXYGRAPHICS
 70
1
  9
$MEASUREMENT
 70
1
  9
$CELWEIGHT
370
-1
  9
$ENDCAPS
280
0
  9
$JOINSTYLE
280
0
  9
$LWDISPLAY
290
0
  9
$INSUNITS
 70
6
  9
$HYPERLINKBASE
  1

  9
$STYLESHEET
  1

  9
$XEDIT
290
1
  9
$CEPSNTYPE
380
0
  9
$PSTYLEMODE
290
1
  9
$FINGERPRINTGUID
  2
{DA3E1BFC-C07D-4C7F-9CB4-65C3D3837195}
  9
$VERSIONGUID
  2
{B8E5356C-F2DB-4D52-8A81-0609C93BC63D}
  9
$EXTNAMES
290
1
  9
$PSVPSCALE
 40
0.0
  9
$OLESTARTUP
290
0
  9
$SORTENTS
280
127
  9
$INDEXCTL
280
0
  9
$HIDETEXT
280
1
  9
$XCLIPFRAME
290
1
  9
$HALOGAP
280
0
  9
$OBSCOLOR
 70
257
  9
$OBSLTYPE
280
0
  9
$INTERSECTIONDISPLAY
280
0
  9
$INTERSECTIONCOLOR
 70
257
  9
$DIMASSOC
280
2
  9
$PROJECTNAME
  1

  9
$CAMERADISPLAY
290
0
  9
$LENSLENGTH
 40
50.0
  9
$CAMERAHEIGHT
 40
0.0
  9
$STEPSPERSEC
 40
24.0
  9
$STEPSIZE
 40
100.0
  9
$3DDWFPREC
 40
2.0
  9
$PSOLWIDTH
 40
0.005
  9
$PSOLHEIGHT
 40
0.08
  9
$LOFTANG1
 40
1.570796326795
  9
$LOFTANG2
 40
1.570796326795
  9
$LOFTMAG1
 40
0.0
  9
$LOFTMAG2
 40
0.0
  9
$LOFTPARAM
 70
7
  9
$LOFTNORMALS
280
1
  9
$LATITUDE
 40
37.795
  9
$LONGITUDE
 40
-122.394
  9
$NORTHDIRECTION
 40
0.0
  9
$TIMEZONE
 70
-8000
  9
$LIGHTGLYPHDISPLAY
280
1
  9
$TILEMODELIGHTSYNCH
280
1
  9
$CMATERIAL
347
20
  9
$SOLIDHIST
280
0
  9
$SHOWHIST
280
1
  9
$DWFFRAME
280
2
  9
$DGNFRAME
280
2
  9
$REALWORLDSCALE
290
1
  9
$INTERFERECOLOR
 62
256
  9
$CSHADOW
280
0
  9
$SHADOWPLANELOCATION
 40
0.0
  0
ENDSEC
  0
SECTION
  2
CLASSES
  0
CLASS
  1
ACDBDICTIONARYWDFLT
  2
AcDbDictionaryWithDefault
  3
ObjectDBX Classes
 90
0
 91
0
280
0
281
0
  0
CLASS
  1
SUN
  2
AcDbSun
  3
SCENEOE
 90
1153
 91
0
280
0
281
0
  0
CLASS
  1
VISUALSTYLE
  2
AcDbVisualStyle
  3
ObjectDBX Classes
 90
4095
 91
0
280
0
281
0
  0
CLASS
  1
MATERIAL
  2
AcDbMaterial
  3
ObjectDBX Classes
 90
1153
 91
0
280
0
281
0
  0
CLASS
  1
SCALE
  2
AcDbScale
  3
ObjectDBX Classes
 90
1153
 91
0
280
0
281
0
  0
CLASS
  1
TABLESTYLE
  2
AcDbTableStyle
  3
ObjectDBX Classes
 90
4095
 91
0
280
0
281
0
  0
CLASS
  1
MLEADERSTYLE
  2
AcDbMLeaderStyle
  3
ACDB_MLEADERSTYLE_CLASS
 90
4095
 91
0
280
0
281
0
  0
CLASS
  1
DICTIONARYVAR
  2
AcDbDictionaryVar
  3
ObjectDBX Classes
 90
0
 91
0
280
0
281
0
  0
CLASS
  1
CELLSTYLEMAP
  2
AcDbCellStyleMap
  3
ObjectDBX Classes
 90
1152
 91
0
280
0
281
0
  0
CLASS
  1
MENTALRAYRENDERSETTINGS
  2
AcDbMentalRayRenderSettings
  3
SCENEOE
 90
1024
 91
0
280
0
281
0
  0
CLASS
  1
ACDBDETAILVIEWSTYLE
  2
AcDbDetailViewStyle
  3
ObjectDBX Classes
 90
1025
 91
0
280
0
281
0
  0
CLASS
  1
ACDBSECTIONVIEWSTYLE
  2
AcDbSectionViewStyle
  3
ObjectDBX Classes
 90
1025
 91
0
280
0
281
0
  0
CLASS
  1
RASTERVARIABLES
  2
AcDbRasterVariables
  3
ISM
 90
0
 91
0
280
0
281
0
  0
CLASS
  1
ACDBPLACEHOLDER
  2
AcDbPlaceHolder
  3
ObjectDBX Classes
 90
0
 91
0
280
0
281
0
  0
CLASS
  1
LAYOUT
  2
AcDbLayout
  3
ObjectDBX Classes
 90
0
 91
0
280
0
281
0
  0
ENDSEC
  0
SECTION
  2
TABLES
  0
TABLE
  2
VPORT
  5
8
330
0
100
AcDbSymbolTable
 70
1
  0
VPORT
  5
23
330
8
100
AcDbSymbolTableRecord
100
AcDbViewportTableRecord
  2
*Active
 70
0
 10
0.0
 20
0.0
 11
1.0
 21
1.0
 12
0.0
 22
0.0
 13
0.0
 23
0.0
 14
0.5
 24
0.5
 15
0.5
 25
0.5
 16
0.0
 26
0.0
 36
1.0
 17
0.0
 27
0.0
 37
0.0
 40
1000.0
 41
1.34
 42
50.0
 43
0.0
 44
0.0
 50
0.0
 51
0.0
 71
0
 72
1000
 73
1
 74
3
 75
0
 76
0
 77
0
 78
0
281
0
 65
0
146
0.0
  0
ENDTAB
  0
TABLE
  2
LTYPE
  5
2
330
0
100
AcDbSymbolTable
 70
21
  0
LTYPE
  5
24
330
2
100
AcDbSymbolTableRecord
100
AcDbLinetypeTableRecord
  2
ByBlock
 70
0
  3

 72
65
 73
0
 40
0.0
  0
LTYPE
  5
25
330
2
100
AcDbSymbolTableRecord
100
AcDbLinetypeTableRecord
  2
ByLayer
 70
0
  3

 72
65
 73
0
 40
0.0
  0
LTYPE
  5
26
330
2
100
AcDbSymbolTableRecord
100
AcDbLinetypeTableRecord
  2
Continuous
 70
0
  3

 72
65
 73
0
 40
0.0
  0
LTYPE
  5
2F
330
2
100
AcDbSymbolTableRecord
100
AcDbLinetypeTableRecord
  2
CENTER
 70
0
  3
Center ____ _ ____ _ ____ _ ____ _ ____ _ ____
 72
65
 73
4
 40
5.08
 49
3.175
 74
0
 49
-0.635
 74
0
 49
0.635
 74
0
 49
-0.635
 74
0
  0
LTYPE
  5
30
330
2
100
AcDbSymbolTableRecord
100
AcDbLinetypeTableRecord
  2
CENTERX2
 70
0
  3
Center (2x) ________  __  ________  __  ________
 72
65
 73
4
 40
8.89
 49
6.35
 74
0
 49
-0.635
 74
0
 49
1.27
 74
0
 49
-0.635
 74
0
  0
LTYPE
  5
31
330
2
100
AcDbSymbolTableRecord
100
AcDbLinetypeTableRecord
  2
CENTER2
 70
0
  3
Center (.5x) ____ _ ____ _ ____ _ ____ _ ____
 72
65
 73
4
 40
2.54
 49
1.587
 74
0
 49
-0.318
 74
0
 49
0.318
 74
0
 49
-0.318
 74
0
  0
LTYPE
  5
32
330
2
100
AcDbSymbolTableRecord
100
AcDbLinetypeTableRecord
  2
DASHED
 70
0
  3
Dashed __ __ __ __ __ __ __ __ __ __ __ __ __ _
 72
65
 73
2
 40
1.524
 49
1.27
 74
0
 49
-0.254
 74
0
  0
LTYPE
  5
33
330
2
100
AcDbSymbolTableRecord
100
AcDbLinetypeTableRecord
  2
DASHEDX2
 70
0
  3
Dashed (2x) ____  ____  ____  ____  ____  ____
 72
65
 73
2
 40
3.048
 49
2.54
 74
0
 49
-0.508
 74
0
  0
LTYPE
  5
34
330
2
100
AcDbSymbolTableRecord
100
AcDbLinetypeTableRecord
  2
DASHED2
 70
0
  3
Dashed (.5x) _ _ _ _ _ _ _ _ _ _ _ _ _ _
 72
65
 73
2
 40
0.762
 49
0.635
 74
0
 49
-0.127
 74
0
  0
LTYPE
  5
35
330
2
100
AcDbSymbolTableRecord
100
AcDbLinetypeTableRecord
  2
PHANTOM
 70
0
  3
Phantom ______  __  __  ______  __  __  ______
 72
65
 73
6
 40
6.35
 49
3.175
 74
0
 49
-0.635
 74
0
 49
0.635
 74
0
 49
-0.635
 74
0
 49
0.635
 74
0
 49
-0.635
 74
0
  0
LTYPE
  5
36
330
2
100
AcDbSymbolTableRecord
100
AcDbLinetypeTableRecord
  2
PHANTOMX2
 70
0
  3
Phantom (2x)____________    ____    ____    ____________
 72
65
 73
6
 40
10.795
 49
6.35
 74
0
 49
-0.635
 74
0
 49
1.27
 74
0
 49
-0.635
 74
0
 49
1.27
 74
0
 49
-0.635
 74
0
  0
LTYPE
  5
37
330
2
100
AcDbSymbolTableRecord
100
AcDbLinetypeTableRecord
  2
PHANTOM2
 70
0
  3
Phantom (.5x) ___ _ _ ___ _ _ ___ _ _ ___ _ _ ___
 72
65
 73
6
 40
3.175
 49
1.587
 74
0
 49
-0.318
 74
0
 49
0.318
 74
0
 49
-0.318
 74
0
 49
0.318
 74
0
 49
-0.318
 74
0
  0
LTYPE
  5
38
330
2
100
AcDbSymbolTableRecord
100
AcDbLinetypeTableRecord
  2
DASHDOT
 70
0
  3
Dash dot __ . __ . __ . __ . __ . __ . __ . __
 72
65
 73
4
 40
3.556
 49
2.54
 74
0
 49
-0.508
 74
0
 49
0.0
 74
0
 49
-0.508
 74
0
  0
LTYPE
  5
39
330
2
100
AcDbSymbolTableRecord
100
AcDbLinetypeTableRecord
  2
DASHDOTX2
 70
0
  3
Dash dot (2x) ____  .  ____  .  ____  .  ____
 72
65
 73
4
 40
6.096
 49
5.08
 74
0
 49
-0.508
 74
0
 49
0.0
 74
0
 49
-0.508
 74
0
  0
LTYPE
  5
3A
330
2
100
AcDbSymbolTableRecord
100
AcDbLinetypeTableRecord
  2
DASHDOT2
 70
0
  3
Dash dot (.5x) _ . _ . _ . _ . _ . _ . _ . _
 72
65
 73
4
 40
1.778
 49
1.27
 74
0
 49
-0.254
 74
0
 49
0.0
 74
0
 49
-0.254
 74
0
  0
LTYPE
  5
3B
330
2
100
AcDbSymbolTableRecord
100
AcDbLinetypeTableRecord
  2
DOT
 70
0
  3
Dot .  .  .  .  .  .  .  .  .  .  .  .  .  .  .  .
 72
65
 73
2
 40
0.508
 49
0.0
 74
0
 49
-0.508
 74
0
  0
LTYPE
  5
3C
330
2
100
AcDbSymbolTableRecord
100
AcDbLinetypeTableRecord
  2
DOTX2
 70
0
  3
Dot (2x) .    .    .    .    .    .    .    . 
 72
65
 73
2
 40
1.016
 49
0.0
 74
0
 49
-1.016
 74
0
  0
LTYPE
  5
3D
330
2
100
AcDbSymbolTableRecord
100
AcDbLinetypeTableRecord
  2
DOT2
 70
0
  3
Dot (.5) . . . . . . . . . . . . . . . . . . . 
 72
65
 73
2
 40
0.254
 49
0.0
 74
0
 49
-0.254
 74
0
  0
LTYPE
  5
3E
330
2
100
AcDbSymbolTableRecord
100
AcDbLinetypeTableRecord
  2
DIVIDE
 70
0
  3
Divide __ . . __ . . __ . . __ . . __ . . __
 72
65
 73
6
 40
4.064
 49
2.54
 74
0
 49
-0.508
 74
0
 49
0.0
 74
0
 49
-0.508
 74
0
 49
0.0
 74
0
 49
-0.508
 74
0
  0
LTYPE
  5
3F
330
2
100
AcDbSymbolTableRecord
100
AcDbLinetypeTableRecord
  2
DIVIDEX2
 70
0
  3
Divide (2x) ____  . .  ____  . .  ____  . .  ____
 72
65
 73
6
 40
6.604
 49
5.08
 74
0
 49
-0.508
 74
0
 49
0.0
 74
0
 49
-0.508
 74
0
 49
0.0
 74
0
 49
-0.508
 74
0
  0
LTYPE
  5
40
330
2
100
AcDbSymbolTableRecord
100
AcDbLinetypeTableRecord
  2
DIVIDE2
 70
0
  3
Divide(.5x) _ . _ . _ . _ . _ . _ . _ . _
 72
65
 73
6
 40
2.032
 49
1.27
 74
0
 49
-0.254
 74
0
 49
0.0
 74
0
 49
-0.254
 74
0
 49
0.0
 74
0
 49
-0.254
 74
0
  0
ENDTAB
  0
TABLE
  2
LAYER
  5
1
330
0
100
AcDbSymbolTable
 70
4
  0
LAYER
  5
27
330
1
100
AcDbSymbolTableRecord
100
AcDbLayerTableRecord
  2
0
 70
0
 62
7
  6
Continuous
370
-3
390
13
347
21
  0
LAYER
  5
28
330
1
100
AcDbSymbolTableRecord
100
AcDbLayerTableRecord
  2
Defpoints
 70
0
 62
7
  6
Continuous
290
0
370
-3
390
13
347
21
  0
LAYER
  5
8A
330
1
100
AcDbSymbolTableRecord
100
AcDbLayerTableRecord
  2
Layer
 70
0
 62
1
  6
Continuous
370
50
390
13
347
21
  0
LAYER
  5
8B
330
1
100
AcDbSymbolTableRecord
100
AcDbLayerTableRecord
  2
NumLabel
 70
0
 62
1
  6
Continuous
370
15
390
13
347
21
  0
ENDTAB
  0
TABLE
  2
STYLE
  5
5
330
0
100
AcDbSymbolTable
 70
26
  0
STYLE
  5
29
330
5
100
AcDbSymbolTableRecord
100
AcDbTextStyleTableRecord
  2
Standard
 70
0
 40
0.0
 41
1.0
 50
0.0
 71
0
 42
2.5
  3
txt
  4

  0
STYLE
  5
41
330
5
100
AcDbSymbolTableRecord
100
AcDbTextStyleTableRecord
  2
OpenSans-Light
 70
0
 40
0.0
 41
1.0
 50
0.0
 71
0
 42
2.5
  3
OpenSans-Light.ttf
  4

  0
STYLE
  5
42
330
5
100
AcDbSymbolTableRecord
100
AcDbTextStyleTableRecord
  2
OpenSans-Light-Italic
 70
0
 40
0.0
 41
1.0
 50
0.0
 71
0
 42
2.5
  3
OpenSans-LightItalic.ttf
  4

  0
STYLE
  5
43
330
5
100
AcDbSymbolTableRecord
100
AcDbTextStyleTableRecord
  2
OpenSans
 70
0
 40
0.0
 41
1.0
 50
0.0
 71
0
 42
2.5
  3
OpenSans-Regular.ttf
  4

  0
STYLE
  5
44
330
5
100
AcDbSymbolTableRecord
100
AcDbTextStyleTableRecord
  2
OpenSans-Italic
 70
0
 40
0.0
 41
1.0
 50
0.0
 71
0
 42
2.5
  3
OpenSans-Italic.ttf
  4

  0
STYLE
  5
45
330
5
100
AcDbSymbolTableRecord
100
AcDbTextStyleTableRecord
  2
OpenSans-SemiBold
 70
0
 40
0.0
 41
1.0
 50
0.0
 71
0
 42
2.5
  3
OpenSans-SemiBold.ttf
  4

  0
STYLE
  5
46
330
5
100
AcDbSymbolTableRecord
100
AcDbTextStyleTableRecord
  2
OpenSans-SemiBoldItalic
 70
0
 40
0.0
 41
1.0
 50
0.0
 71
0
 42
2.5
  3
OpenSans-SemiBoldItalic.ttf
  4

  0
STYLE
  5
47
330
5
100
AcDbSymbolTableRecord
100
AcDbTextStyleTableRecord
  2
OpenSans-Bold
 70
0
 40
0.0
 41
1.0
 50
0.0
 71
0
 42
2.5
  3
OpenSans-Bold.ttf
  4

  0
STYLE
  5
48
330
5
100
AcDbSymbolTableRecord
100
AcDbTextStyleTableRecord
  2
OpenSans-BoldItalic
 70
0
 40
0.0
 41
1.0
 50
0.0
 71
0
 42
2.5
  3
OpenSans-BoldItalic.ttf
  4

  0
STYLE
  5
49
330
5
100
AcDbSymbolTableRecord
100
AcDbTextStyleTableRecord
  2
OpenSans-ExtraBold
 70
0
 40
0.0
 41
1.0
 50
0.0
 71
0
 42
2.5
  3
OpenSans-ExtraBold.ttf
  4

  0
STYLE
  5
4A
330
5
100
AcDbSymbolTableRecord
100
AcDbTextStyleTableRecord
  2
OpenSans-ExtraBoldItalic
 70
0
 40
0.0
 41
1.0
 50
0.0
 71
0
 42
2.5
  3
OpenSans-ExtraBoldItalic.ttf
  4

  0
STYLE
  5
4B
330
5
100
AcDbSymbolTableRecord
100
AcDbTextStyleTableRecord
  2
OpenSansCondensed-Bold
 70
0
 40
0.0
 41
1.0
 50
0.0
 71
0
 42
2.5
  3
OpenSansCondensed-Bold.ttf
  4

  0
STYLE
  5
4C
330
5
100
AcDbSymbolTableRecord
100
AcDbTextStyleTableRecord
  2
OpenSansCondensed-Light
 70
0
 40
0.0
 41
1.0
 50
0.0
 71
0
 42
2.5
  3
OpenSansCondensed-Light.ttf
  4

  0
STYLE
  5
4D
330
5
100
AcDbSymbolTableRecord
100
AcDbTextStyleTableRecord
  2
OpenSansCondensed-Italic
 70
0
 40
0.0
 41
1.0
 50
0.0
 71
0
 42
2.5
  3
OpenSansCondensed-LightItalic.ttf
  4

  0
STYLE
  5
4E
330
5
100
AcDbSymbolTableRecord
100
AcDbTextStyleTableRecord
  2
LiberationSans
 70
0
 40
0.0
 41
1.0
 50
0.0
 71
0
 42
2.5
  3
LiberationSans-Regular.ttf
  4

  0
STYLE
  5
4F
330
5
100
AcDbSymbolTableRecord
100
AcDbTextStyleTableRecord
  2
LiberationSans-Bold
 70
0
 40
0.0
 41
1.0
 50
0.0
 71
0
 42
2.5
  3
LiberationSans-Bold.ttf
  4

  0
STYLE
  5
50
330
5
100
AcDbSymbolTableRecord
100
AcDbTextStyleTableRecord
  2
LiberationSans-BoldItalic
 70
0
 40
0.0
 41
1.0
 50
0.0
 71
0
 42
2.5
  3
LiberationSans-BoldItalic.ttf
  4

  0
STYLE
  5
51
330
5
100
AcDbSymbolTableRecord
100
AcDbTextStyleTableRecord
  2
LiberationSans-Italic
 70
0
 40
0.0
 41
1.0
 50
0.0
 71
0
 42
2.5
  3
LiberationSans-Italic.ttf
  4

  0
STYLE
  5
52
330
5
100
AcDbSymbolTableRecord
100
AcDbTextStyleTableRecord
  2
LiberationSerif
 70
0
 40
0.0
 41
1.0
 50
0.0
 71
0
 42
2.5
  3
LiberationSerif-Regular.ttf
  4

  0
STYLE
  5
53
330
5
100
AcDbSymbolTableRecord
100
AcDbTextStyleTableRecord
  2
LiberationSerif-Bold
 70
0
 40
0.0
 41
1.0
 50
0.0
 71
0
 42
2.5
  3
LiberationSerif-Bold.ttf
  4

  0
STYLE
  5
54
330
5
100
AcDbSymbolTableRecord
100
AcDbTextStyleTableRecord
  2
LiberationSerif-BoldItalic
 70
0
 40
0.0
 41
1.0
 50
0.0
 71
0
 42
2.5
  3
LiberationSerif-BoldItalic.ttf
  4

  0
STYLE
  5
55
330
5
100
AcDbSymbolTableRecord
100
AcDbTextStyleTableRecord
  2
LiberationSerif-Italic
 70
0
 40
0.0
 41
1.0
 50
0.0
 71
0
 42
2.5
  3
LiberationSerif-Italic.ttf
  4

  0
STYLE
  5
56
330
5
100
AcDbSymbolTableRecord
100
AcDbTextStyleTableRecord
  2
LiberationMono
 70
0
 40
0.0
 41
1.0
 50
0.0
 71
0
 42
2.5
  3
LiberationMono-Regular.ttf
  4

  0
STYLE
  5
57
330
5
100
AcDbSymbolTableRecord
100
AcDbTextStyleTableRecord
  2
LiberationMono-Bold
 70
0
 40
0.0
 41
1.0
 50
0.0
 71
0
 42
2.5
  3
LiberationMono-Bold.ttf
  4

  0
STYLE
  5
58
330
5
100
AcDbSymbolTableRecord
100
AcDbTextStyleTableRecord
  2
LiberationMono-BoldItalic
 70
0
 40
0.0
 41
1.0
 50
0.0
 71
0
 42
2.5
  3
LiberationMono-BoldItalic.ttf
  4

  0
STYLE
  5
59
330
5
100
AcDbSymbolTableRecord
100
AcDbTextStyleTableRecord
  2
LiberationMono-Italic
 70
0
 40
0.0
 41
1.0
 50
0.0
 71
0
 42
2.5
  3
LiberationMono-Italic.ttf
  4

  0
ENDTAB
  0
TABLE
  2
VIEW
  5
7
330
0
100
AcDbSymbolTable
 70
0
  0
ENDTAB
  0
TABLE
  2
UCS
  5
6
330
0
100
AcDbSymbolTable
 70
0
  0
ENDTAB
  0
TABLE
  2
APPID
  5
3
330
0
100
AcDbSymbolTable
 70
3
  0
APPID
  5
2A
330
3
100
AcDbSymbolTableRecord
100
AcDbRegAppTableRecord
  2
ACAD
 70
0
  0
APPID
  5
AB
330
3
100
AcDbSymbolTableRecord
100
AcDbRegAppTableRecord
  2
HATCHBACKGROUNDCOLOR
 70
0
  0
APPID
  5
AC
330
3
100
AcDbSymbolTableRecord
100
AcDbRegAppTableRecord
  2
EZDXF
 70
0
  0
ENDTAB
  0
TABLE
  2
DIMSTYLE
  5
4
330
0
100
AcDbSymbolTable
 70
12
100
AcDbDimStyleTable
  0
DIMSTYLE
105
2B
330
4
100
AcDbSymbolTableRecord
100
AcDbDimStyleTableRecord
  2
Standard
 70
0
 40
1.0
 41
2.5
 42
0.625
 43
3.75
 44
1.25
 45
0.0
 46
0.0
 47
0.0
 48
0.0
 49
2.5
140
2.5
141
2.5
142
0.0
143
0.03937007874
144
1.0
145
0.0
146
1.0
147
0.625
148
0.0
 69
0
 70
0
 71
0
 72
0
 73
0
 74
0
 75
0
 76
0
 77
1
 78
8
 79
3
170
0
171
3
172
1
173
0
174
0
175
0
176
0
177
0
178
0
179
2
271
2
272
2
273
2
274
3
275
0
276
0
277
2
278
44
279
0
280
0
281
0
282
0
283
0
284
8
285
0
286
0
288
0
289
3
290
0
371
-2
372
-2
  0
DIMSTYLE
105
73
330
4
100
AcDbSymbolTableRecord
100
AcDbDimStyleTableRecord
  2
EZDXF
 70
0
 40
1.0
 41
0.175
 42
0.125
 43
3.75
 44
0.375
 45
0.0
 46
0.0
 47
0.0
 48
0.0
 49
2.5
140
0.25
141
2.5
142
0.0
143
0.03937007874
144
100.0
145
0.0
146
0.5
147
0.1
148
0.0
 69
0
 70
0
 71
0
 72
0
 73
0
 74
0
 75
0
 76
0
 77
1
 78
12
 79
3
170
0
171
3
172
1
173
0
174
0
175
0
176
0
177
0
178
0
179
2
271
2
272
2
273
2
274
3
275
0
276
0
277
2
278
46
279
2
280
0
281
0
282
0
283
0
284
8
285
0
286
0
288
1
289
3
290
0
340
4C
342
74
371
-2
372
-2
  0
DIMSTYLE
105
7C
330
4
100
AcDbSymbolTableRecord
100
AcDbDimStyleTableRecord
  2
EZ_M_100_H25_CM
 70
0
 40
1.0
 41
0.25
 42
0.125
 43
3.75
 44
0.375
 45
0.0
 46
0.0
 47
0.0
 48
0.0
 49
2.5
140
0.25
141
2.5
142
0.125
143
0.03937007874
144
100.0
145
0.0
146
0.5
147
0.1
148
0.0
 69
0
 70
0
 71
0
 72
0
 73
0
 74
0
 75
0
 76
0
 77
1
 78
12
 79
3
170
0
171
3
172
1
173
0
174
0
175
0
176
0
177
0
178
0
179
2
271
2
272
2
273
2
274
3
275
0
276
0
277
2
278
46
279
2
280
0
281
0
282
0
283
0
284
8
285
0
286
0
288
1
289
3
290
0
340
4C
371
-2
372
-2
  0
DIMSTYLE
105
7D
330
4
100
AcDbSymbolTableRecord
100
AcDbDimStyleTableRecord
  2
EZ_M_50_H25_CM
 70
0
 40
1.0
 41
0.125
 42
0.0625
 43
3.75
 44
0.1875
 45
0.0
 46
0.0
 47
0.0
 48
0.0
 49
2.5
140
0.125
141
2.5
142
0.0625
143
0.03937007874
144
100.0
145
0.0
146
0.5
147
0.05
148
0.0
 69
0
 70
0
 71
0
 72
0
 73
0
 74
0
 75
0
 76
0
 77
1
 78
12
 79
3
170
0
171
3
172
1
173
0
174
0
175
0
176
0
177
0
178
0
179
2
271
2
272
2
273
2
274
3
275
0
276
0
277
2
278
46
279
2
280
0
281
0
282
0
283
0
284
8
285
0
286
0
288
1
289
3
290
0
340
4C
371
-2
372
-2
  0
DIMSTYLE
105
7E
330
4
100
AcDbSymbolTableRecord
100
AcDbDimStyleTableRecord
  2
EZ_M_25_H25_CM
 70
0
 40
1.0
 41
0.0625
 42
0.03125
 43
3.75
 44
0.09375
 45
0.0
 46
0.0
 47
0.0
 48
0.0
 49
2.5
140
0.0625
141
2.5
142
0.03125
143
0.03937007874
144
100.0
145
0.0
146
0.5
147
0.025
148
0.0
 69
0
 70
0
 71
0
 72
0
 73
0
 74
0
 75
0
 76
0
 77
1
 78
12
 79
3
170
0
171
3
172
1
173
0
174
0
175
0
176
0
177
0
178
0
179
2
271
2
272
2
273
2
274
3
275
0
276
0
277
2
278
46
279
2
280
0
281
0
282
0
283
0
284
8
285
0
286
0
288
1
289
3
290
0
340
4C
371
-2
372
-2
  0
DIMSTYLE
105
7F
330
4
100
AcDbSymbolTableRecord
100
AcDbDimStyleTableRecord
  2
EZ_M_20_H25_CM
 70
0
 40
1.0
 41
0.05
 42
0.025
 43
3.75
 44
0.07500000000000001
 45
0.0
 46
0.0
 47
0.0
 48
0.0
 49
2.5
140
0.05
141
2.5
142
0.025
143
0.03937007874
144
100.0
145
0.0
146
0.5
147
0.020000000000000004
148
0.0
 69
0
 70
0
 71
0
 72
0
 73
0
 74
0
 75
0
 76
0
 77
1
 78
12
 79
3
170
0
171
3
172
1
173
0
174
0
175
0
176
0
177
0
178
0
179
2
271
2
272
2
273
2
274
3
275
0
276
0
277
2
278
46
279
2
280
0
281
0
282
0
283
0
284
8
285
0
286
0
288
1
289
3
290
0
340
4C
371
-2
372
-2
  0
DIMSTYLE
105
80
330
4
100
AcDbSymbolTableRecord
100
AcDbDimStyleTableRecord
  2
EZ_M_10_H25_CM
 70
0
 40
1.0
 41
0.025
 42
0.0125
 43
3.75
 44
0.037500000000000006
 45
0.0
 46
0.0
 47
0.0
 48
0.0
 49
2.5
140
0.025
141
2.5
142
0.0125
143
0.03937007874
144
100.0
145
0.0
146
0.5
147
0.010000000000000002
148
0.0
 69
0
 70
0
 71
0
 72
0
 73
0
 74
0
 75
0
 76
0
 77
1
 78
12
 79
3
170
0
171
3
172
1
173
0
174
0
175
0
176
0
177
0
178
0
179
2
271
2
272
2
273
2
274
3
275
0
276
0
277
2
278
46
279
2
280
0
281
0
282
0
283
0
284
8
285
0
286
0
288
1
289
3
290
0
340
4C
371
-2
372
-2
  0
DIMSTYLE
105
81
330
4
100
AcDbSymbolTableRecord
100
AcDbDimStyleTableRecord
  2
EZ_M_5_H25_CM
 70
0
 40
1.0
 41
0.0125
 42
0.00625
 43
3.75
 44
0.018750000000000003
 45
0.0
 46
0.0
 47
0.0
 48
0.0
 49
2.5
140
0.0125
141
2.5
142
0.00625
143
0.03937007874
144
100.0
145
0.0
146
0.5
147
0.005000000000000001
148
0.0
 69
0
 70
0
 71
0
 72
0
 73
0
 74
0
 75
0
 76
0
 77
1
 78
12
 79
3
170
0
171
3
172
1
173
0
174
0
175
0
176
0
177
0
178
0
179
2
271
2
272
2
273
2
274
3
275
0
276
0
277
2
278
46
279
2
280
0
281
0
282
0
283
0
284
8
285
0
286
0
288
1
289
3
290
0
340
4C
371
-2
372
-2
  0
DIMSTYLE
105
82
330
4
100
AcDbSymbolTableRecord
100
AcDbDimStyleTableRecord
  2
EZ_M_1_H25_CM
 70
0
 40
1.0
 41
0.0025
 42
0.00125
 43
3.75
 44
0.00375
 45
0.0
 46
0.0
 47
0.0
 48
0.0
 49
2.5
140
0.0025
141
2.5
142
0.00125
143
0.03937007874
144
100.0
145
0.0
146
0.5
147
0.001
148
0.0
 69
0
 70
0
 71
0
 72
0
 73
0
 74
0
 75
0
 76
0
 77
1
 78
12
 79
3
170
0
171
3
172
1
173
0
174
0
175
0
176
0
177
0
178
0
179
2
271
2
272
2
273
2
274
3
275
0
276
0
277
2
278
46
279
2
280
0
281
0
282
0
283
0
284
8
285
0
286
0
288
1
289
3
290
0
340
4C
371
-2
372
-2
  0
DIMSTYLE
105
83
330
4
100
AcDbSymbolTableRecord
100
AcDbDimStyleTableRecord
  2
EZ_RADIUS
 70
0
 40
1.0
 41
0.25
 42
0.125
 43
3.75
 44
0.375
 45
0.0
 46
0.0
 47
0.0
 48
0.0
 49
2.5
140
0.25
141
0.0
142
0.0
143
0.03937007874
144
100.0
145
0.0
146
0.5
147
0.1
148
0.0
 69
0
 70
0
 71
0
 72
0
 73
0
 74
0
 75
0
 76
0
 77
1
 78
12
 79
3
170
0
171
3
172
0
173
0
174
0
175
0
176
0
177
0
178
0
179
2
271
2
272
2
273
2
274
3
275
0
276
0
277
2
278
46
279
1
280
0
281
0
282
0
283
0
284
8
285
0
286
0
288
1
289
3
290
0
340
4C
342
84
371
-2
372
-2
  0
DIMSTYLE
105
88
330
4
100
AcDbSymbolTableRecord
100
AcDbDimStyleTableRecord
  2
EZ_RADIUS_INSIDE
 70
0
 40
1.0
 41
0.25
 42
0.125
 43
3.75
 44
0.375
 45
0.0
 46
0.0
 47
0.0
 48
0.0
 49
2.5
140
0.25
141
0.0
142
0.0
143
0.03937007874
144
100.0
145
0.0
146
0.5
147
0.1
148
0.0
 69
0
 70
0
 71
0
 72
0
 73
0
 74
0
 75
0
 76
0
 77
0
 78
12
 79
3
170
0
171
3
172
0
173
0
174
1
175
0
176
0
177
0
178
0
179
2
271
2
272
2
273
2
274
3
275
0
276
0
277
2
278
46
279
0
280
0
281
0
282
0
283
0
284
8
285
0
286
0
288
1
289
0
290
0
340
4C
342
84
371
-2
372
-2
  0
DIMSTYLE
105
89
330
4
100
AcDbSymbolTableRecord
100
AcDbDimStyleTableRecord
  2
EZ_CURVED
 70
0
 40
1.0
 41
0.25
 42
0.125
 43
3.75
 44
0.375
 45
0.0
 46
0.0
 47
0.0
 48
0.0
 49
2.5
140
0.25
141
2.5
142
0.0
143
0.03937007874
144
100.0
145
0.0
146
0.5
147
0.1
148
0.0
 69
0
 70
0
 71
0
 72
0
 73
0
 74
0
 75
0
 76
0
 77
1
 78
12
 79
2
 90
2
170
0
171
3
172
1
173
0
174
0
175
0
176
0
177
0
178
0
179
2
271
2
272
2
273
2
274
3
275
0
276
0
277
2
278
46
279
2
280
0
281
0
282
0
283
0
284
8
285
0
286
0
288
1
289
3
290
0
340
4C
371
-2
372
-2
  0
ENDTAB
  0
TABLE
  2
BLOCK_RECORD
  5
9
330
0
100
AcDbSymbolTable
 70
5
  0
BLOCK_RECORD
  5
17
330
9
100
AcDbSymbolTableRecord
100
AcDbBlockTableRecord
  2
*Model_Space
340
1A
 70
0
280
1
281
0
  0
BLOCK_RECORD
  5
1B
330
9
100
AcDbSymbolTableRecord
100
AcDbBlockTableRecord
  2
*Paper_Space
340
1E
 70
0
280
1
281
0
  0
BLOCK_RECORD
  5
74
330
9
100
AcDbSymbolTableRecord
100
AcDbBlockTableRecord
  2
_ARCHTICK
340
0
 70
0
280
1
281
0
  0
BLOCK_RECORD
  5
78
330
9
100
AcDbSymbolTableRecord
100
AcDbBlockTableRecord
  2
_CLOSEDFILLED
340
0
 70
0
280
1
281
0
  0
BLOCK_RECORD
  5
84
330
9
100
AcDbSymbolTableRecord
100
AcDbBlockTableRecord
  2
_CLOSEDBLANK
340
0
 70
0
280
1
281
0
  0
ENDTAB
  0
ENDSEC
  0
SECTION
  2
BLOCKS
  0
BLOCK
  5
18
330
17
100
AcDbEntity
  8
0
100
AcDbBlockBegin
  2
*Model_Space
 70
0
 10
0.0
 20
0.0
 30
0.0
  3
*Model_Space
  1

  0
ENDBLK
  5
19
330
17
100
AcDbEntity
  8
0
100
AcDbBlockEnd
  0
BLOCK
  5
1C
330
1B
100
AcDbEntity
  8
0
100
AcDbBlockBegin
  2
*Paper_Space
 70
0
 10
0.0
 20
0.0
 30
0.0
  3
*Paper_Space
  1

  0
ENDBLK
  5
1D
330
1B
100
AcDbEntity
  8
0
100
AcDbBlockEnd
  0
BLOCK
  5
75
330
74
100
AcDbEntity
  8
0
100
AcDbBlockBegin
  2
_ARCHTICK
 70
0
 10
0.0
 20
0.0
 30
0.0
  3
_ARCHTICK
  1

  0
LWPOLYLINE
  5
77
330
74
100
AcDbEntity
  8
0
  6
BYBLOCK
 62
0
100
AcDbPolyline
 90
2
 70
0
 43
0.15
 10
-0.5
 20
-0.5
 10
0.5
 20
0.5
  0
ENDBLK
  5
76
330
74
100
AcDbEntity
  8
0
100
AcDbBlockEnd
  0
BLOCK
  5
79
330
78
100
AcDbEntity
  8
0
100
AcDbBlockBegin
  2
_CLOSEDFILLED
 70
0
 10
0.0
 20
0.0
 30
0.0
  3
_CLOSEDFILLED
  1

  0
SOLID
  5
7B
330
78
100
AcDbEntity
  8
0
  6
BYBLOCK
 62
0
100
AcDbTrace
 10
-1.0
 20
0.16439898372402537
 30
0.0
 11
0.0
 21
0.0
 31
0.0
 12
-1.0
 22
-0.16439898372402537
 32
0.0
 13
-1.0
 23
-0.16439898372402537
 33
0.0
  0
ENDBLK
  5
7A
330
78
100
AcDbEntity
  8
0
100
AcDbBlockEnd
  0
BLOCK
  5
85
330
84
100
AcDbEntity
  8
0
100
AcDbBlockBegin
  2
_CLOSEDBLANK
 70
0
 10
0.0
 20
0.0
 30
0.0
  3
_CLOSEDBLANK
  1

  0
LWPOLYLINE
  5
87
330
84
100
AcDbEntity
  8
0
  6
BYBLOCK
 62
0
100
AcDbPolyline
 90
3
 70
1
 10
-1.0
 20
0.16439898372402537
 10
0.0
 20
0.0
 10
-1.0
 20
-0.16439898372402537
  0
ENDBLK
  5
86
330
84
100
AcDbEntity
  8
0
100
AcDbBlockEnd
  0
ENDSEC
  0
SECTION
  2
ENTITIES
  0
LWPOLYLINE
  5
8C
330
17
100
AcDbEntity
  8
Layer
100
AcDbPolyline
 90
152
 70
1
 10
398.0181813916414
 20
160.72175865215013
 10
398.0181818055676
 20
244.12504838999973
 10
390.884440493448
 20
245.11522677888834
 10
383.1161318822101
 20
246.12789747402462
 10
375.33393677410504
 20
247.07804607177772
 10
367.5393961355289
 20
247.96741655639977
 10
359.7360581659269
 20
248.795772339463
 10
351.9248259373795
 20
249.5620536500446
 10
344.10468418026386
 20
250.26640892724623
 10
336.2777100841827
 20
250.91040475898836
 10
328.4493958874715
 20
251.4939963717564
 10
320.62320992504925
 20
252.01548955756593
 10
312.7991544036607
 20
252.47387285595465
 10
304.9786561493844
 20
252.87014299581455
 10
297.16682425781744
 20
253.20413596379856
 10
289.36760559501977
 20
253.47428655135306
 10
281.5808885924171
 20
253.67880169995783
 10
273.80717087068155
 20
253.81827364264663
 10
266.0512106751011
 20
253.89288770564647
 10
258.31714922860095
 20
253.90091405776178
 10
250.60564345249728
 20
253.84042478585323
 10
242.91689714928015
 20
253.711483270428
 10
235.2557754376429
 20
253.5144403447529
 10
227.62735980500292
 20
253.24767394651394
 10
220.0324485822826
 20
252.90884069454
 10
212.47226074705128
 20
252.49794049823743
 10
204.95220664722638
 20
252.01539578537617
 10
197.47831797792335
 20
251.4593721377626
 10
190.05182287809657
 20
250.82738995938638
 10
182.6752380486884
 20
250.11993987841205
 10
175.3560605045785
 20
249.33735116572265
 10
168.10008335104456
 20
248.47722072952376
 10
160.9094418366477
 20
247.53785779918059
 10
153.7895534135856
 20
246.5204955368274
 10
146.7494856919046
 20
245.42495487420126
 10
139.79503903857957
 20
244.24942479973598
 10
132.93121246153004
 20
242.9952092007024
 10
126.17231473680692
 20
241.66745935136788
 10
119.53547528812732
 20
240.2669717073013
 10
113.03103083319817
 20
238.79287452953525
 10
106.67051771323614
 20
237.2504740178139
 10
100.47472531147275
 20
235.64733424096164
 10
94.4621587910203
 20
233.9860828275213
 10
88.64566015701197
 20
232.2718245768577
 10
83.04298684401778
 20
230.51697779507958
 10
77.67591431316569
 20
228.7325683202882
 10
72.55907244370763
 20
226.92538617413805
 10
67.70210057793454
 20
225.1073599454524
 10
63.11626179258303
 20
223.2936551011294
 10
58.80909064424097
 20
221.49410876862345
 10
54.77917443563797
 20
219.71570646059598
 10
51.020899924606795
 20
217.96856659209948
 10
47.52802971536755
 20
216.26179025388248
 10
44.29086199632354
 20
214.59856888929977
 10
41.29481628440476
 20
212.97896205438013
 10
38.52304028641146
 20
211.40458748493214
 10
35.9600781793348
 20
209.8781355437677
 10
33.59182354199345
 20
208.39922346544125
 10
31.403630457124052
 20
206.96451109127025
 10
29.38084508367524
 20
205.57061802256527
 10
27.509441548302448
 20
204.21537175015985
 10
25.7779993421762
 20
202.89802871858976
 10
24.17717054594351
 20
201.61607477275453
 10
22.698258308806032
 20
200.3649060941453
 10
21.330570611260384
 20
199.13825986787054
 10
20.06235750572239
 20
197.93396440984964
 10
18.882046875767173
 20
196.75275240296088
 10
17.781090663779537
 20
195.5996796020464
 10
16.755031075418742
 20
194.47863409502747
 10
15.804311189531404
 20
193.39265911898593
 10
14.93110487372121
 20
192.33774388207027
 10
14.13717943809587
 20
191.30766570578768
 10
13.421734682192266
 20
190.293793135156
 10
12.78013355085892
 20
189.28769643380298
 10
12.206038711869269
 20
188.28710956896757
 10
11.69261808652692
 20
187.29338995635896
 10
11.235330174380294
 20
186.312873729446
 10
10.832264110827111
 20
185.35049057156672
 10
10.484150644817191
 20
184.4104799855361
 10
10.192951165536272
 20
183.49324977626506
 10
9.960184796357453
 20
182.5958967499534
 10
9.785936896539681
 20
181.71534552482373
 10
9.668649518755046
 20
180.84910183365992
 10
9.602152689659022
 20
179.91740566892835
 10
9.593246800024303
 20
179.14395872974023
 10
9.635412836150579
 20
178.28694714754792
 10
9.737033915447853
 20
177.43416176515547
 10
9.905473208880096
 20
176.58938727072206
 10
10.15015893833396
 20
175.7515545674361
 10
10.47939952180883
 20
174.91816091794044
 10
10.896610951339142
 20
174.08897313118595
 10
11.399429818891747
 20
173.2667228289137
 10
11.982122167047805
 20
172.45651810900455
 10
12.640743432183058
 20
171.66320584307422
 10
13.374889412292703
 20
170.89056632927435
 10
14.188201510406941
 20
170.14016977832355
 10
15.084389583384223
 20
169.41195857625664
 10
16.065808306989766
 20
168.7042198267421
 10
17.131397546630126
 20
168.01478288081248
 10
18.28022459189566
 20
167.3412842863587
 10
19.51135748366096
 20
166.6825671312272
 10
20.828444464396625
 20
166.03817013509513
 10
22.236886448198618
 20
165.40792149366658
 10
23.745527236642374
 20
164.79103655959344
 10
25.36311280186044
 20
164.18509437857938
 10
27.098380670336894
 20
163.58639395880337
 10
28.960898974455688
 20
162.99086365940462
 10
30.960707356908415
 20
162.3949349798997
 10
33.11129432287157
 20
161.79666450974517
 10
35.4292401164613
 20
161.19515918411784
 10
37.9347075615114
 20
160.58946704392906
 10
40.64936161474952
 20
159.97774079997328
 10
43.596964622664416
 20
159.3581946699538
 10
46.80272127449416
 20
158.73012589492217
 10
50.29502634186258
 20
158.09468306101104
 10
54.10444875382609
 20
157.45380314863377
 10
58.260355223451626
 20
156.8083481217267
 10
62.78732151470342
 20
156.15978851047998
 10
67.70395833483605
 20
155.51302341032073
 10
73.02254642224105
 20
154.87508675797443
 10
78.74557769554201
 20
154.25135409165887
 10
84.85965732466062
 20
153.64632537904131
 10
91.33949706642838
 20
153.06786057038977
 10
98.15604224801848
 20
152.52258214708488
 10
105.27304434509895
 20
152.0123902743481
 10
112.64828996255014
 20
151.54001894504069
 10
120.24753223656575
 20
151.1087027393816
 10
128.0415928780448
 20
150.71683936518787
 10
136.0008003482632
 20
150.36260318587904
 10
144.10824497106208
 20
150.0470456053771
 10
152.36052020681223
 20
149.76369597641457
 10
160.73363361982405
 20
149.49688439320022
 10
161.61802402676147
 20
149.46991519522328
 10
161.57230326697913
 20
147.9706121530984
 10
169.1283889930176
 20
147.7401917750867
 10
177.5919463616484
 20
147.5043359458574
 10
186.0842056187596
 20
147.30364994845507
 10
194.63719098851772
 20
147.1366962092008
 10
203.26811012864744
 20
146.98930357654743
 10
211.96098031066924
 20
146.84632501640596
 10
220.6840464252558
 20
146.70008236285088
 10
229.41124197711503
 20
146.55396293984705
 10
238.12324116461133
 20
146.4206410789887
 10
246.8373541844187
 20
146.3105125740674
 10
255.58505592075647
 20
146.22085318881545
 10
264.37903191401904
 20
146.13972672801387
 10
273.2040027055637
 20
146.0580843107353
 10
282.04682546719494
 20
145.9759158307121
 10
290.8964379180894
 20
145.8953325346546
 10
299.7431274202883
 20
145.81524829013716
 10
316.9521209280581
 20
145.66730674808332
 10
398.0181813916414
 20
160.72175865215013
  0
LWPOLYLINE
  5
8D
330
17
100
AcDbEntity
  8
NumLabel
 62
1
100
AcDbPolyline
 90
5
 70
0
 10
227.29018181818176
 20
171.19818181818184
 10
227.29018181818176
 20
166.19818181818184
 10
232.29018181818176
 20
166.19818181818184
 10
232.29018181818176
 20
171.19818181818184
 10
232.29018181818176
 20
161.19818181818184
  0
LWPOLYLINE
  5
8E
330
17
100
AcDbEntity
  8
NumLabel
 62
1
100
AcDbPolyline
 90
2
 70
0
 10
239.79018181818176
 20
171.19818181818184
 10
237.79018181818176
 20
171.19818181818184
  0
LWPOLYLINE
  5
8F
330
17
100
AcDbEntity
  8
NumLabel
 62
1
100
AcDbPolyline
 90
4
 70
0
 10
236.79018181818176
 20
171.19818181818184
 10
234.79018181818176
 20
171.19818181818184
 10
234.79018181818176
 20
161.19818181818184
 10
236.79018181818176
 20
161.19818181818184
  0
LWPOLYLINE
  5
90
330
17
100
AcDbEntity
  8
NumLabel
 62
1
100
AcDbPolyline
 90
4
 70
0
 10
237.79018181818176
 20
161.19818181818184
 10
239.79018181818176
 20
161.19818181818184
 10
239.79018181818176
 20
166.19818181818184
 10
237.79018181818176
 20
166.19818181818184
  0
LWPOLYLINE
  5
91
330
17
100
AcDbEntity
  8
NumLabel
 62
1
100
AcDbPolyline
 90
2
 70
0
 10
236.79018181818176
 20
166.19818181818184
 10
234.79018181818176
 20
166.19818181818184
  0
LWPOLYLINE
  5
92
330
17
100
AcDbEntity
  8
Layer
100
AcDbPolyline
 90
5
 70
1
 10
225.10423280192157
 20
249.1311052969832
 10
221.10820920323079
 20
248.95279265383533
 10
220.9298965600829
 20
252.94881625252611
 10
224.9259201587737
 20
253.127128895674
 10
225.10423280192157
 20
249.1311052969832
  0
LWPOLYLINE
  5
93
330
17
100
AcDbEntity
  8
Layer
100
AcDbPolyline
 90
5
 70
1
 10
92.8175340726142
 20
229.3311597457157
 10
88.98074190937047
 20
228.20021947493592
 10
87.84980163859069
 20
232.03701163817965
 10
91.68659380183442
 20
233.16795190895942
 10
92.8175340726142
 20
229.3311597457157
  0
LWPOLYLINE
  5
94
330
17
100
AcDbEntity
  8
Layer
100
AcDbPolyline
 90
5
 70
1
 10
26.202865516017955
 20
196.79182996819853
 10
24.71440727101022
 20
195.45598115457162
 10
21.37478523694288
 20
199.17712676709098
 10
22.863243481950615
 20
200.5129755807179
 10
26.202865516017955
 20
196.79182996819853
  0
LWPOLYLINE
  5
95
330
17
100
AcDbEntity
  8
Layer
100
AcDbPolyline
 90
5
 70
1
 10
18.062845220153694
 20
173.42871079570165
 10
19.686854283896043
 20
172.26140853797972
 10
16.76859863959123
 20
168.20138587862385
 10
15.144589575848881
 20
169.36868813634578
 10
18.062845220153694
 20
173.42871079570165
  0
LWPOLYLINE
  5
96
330
17
100
AcDbEntity
  8
Layer
100
AcDbPolyline
 90
5
 70
1
 10
121.06601670401719
 20
155.07260601605952
 10
125.06097131960883
 20
154.871763741219
 10
124.86012904476829
 20
150.8768091256274
 10
120.86517442917665
 20
151.07765140046791
 10
121.06601670401719
 20
155.07260601605952
  0
LWPOLYLINE
  5
97
330
17
100
AcDbEntity
  8
Layer
100
AcDbPolyline
 90
300
 70
1
 10
344.8094703557311
 20
200.0
 10
344.8006575415668
 20
200.89053919750148
 10
344.7742229905647
 20
201.78068515796303
 10
344.7301783754782
 20
202.6700448179872
 10
344.6685431451695
 20
203.55822546138452
 10
344.58934451602124
 20
204.44483489258627
 10
344.49261745991845
 20
205.32948160982664
 10
344.37840468880614
 20
206.21177497801915
 10
344.24675663582883
 20
207.09132540124997
 10
344.09773143306063
 20
207.96774449481256
 10
343.9313948858359
 20
208.8406452567074
 10
343.74782044369135
 20
209.70964223853122
 10
343.54708916793277
 20
210.57435171568005
 10
343.32928969584066
 20
211.43439185679142
 10
343.09451820153066
 20
212.2893828923501
 10
342.8428783534856
 20
213.13894728238375
 10
342.5744812687783
 20
213.98270988317395
 10
342.28944546400584
 20
214.82029811290911
 10
341.9878968029554
 20
215.65134211620602
 10
341.6699684410268
 20
216.47547492742768
 10
341.3358007664346
 20
217.29233263272494
 10
340.98554133821676
 20
218.10155453073062
 10
340.61934482107654
 20
218.9027832918351
 10
340.237372917087
 20
219.69566511597296
 10
339.839794294288
 20
220.47984988885122
 10
339.42678451220723
 20
221.25499133654986
 10
338.9985259443376
 20
222.02074717842672
 10
338.5552076976067
 20
222.7767792782589
 10
338.09702552887245
 20
223.52275379355433
 10
337.6241817584822
 20
224.25834132296708
 10
337.1368851809338
 20
224.98321705175175
 10
336.635350972678
 20
225.69706089519266
 10
336.11980059710237
 20
226.39955763994405
 10
335.59046170673946
 20
227.0903970832195
 10
335.04756804274166
 20
227.76927416976883
 10
334.49135933166804
 20
228.43588912658174
 10
333.9220811796274
 20
229.08994759525933
 10
333.33998496382594
 20
229.7311607619943
 10
332.7453277215658
 20
230.3592454851031
 10
332.1383720367449
 20
230.9739244200533
 10
331.5193859239072
 20
231.5749261419312
 10
330.88864270989484
 20
232.16198526529524
 10
330.2464209131551
 20
232.734842561363
 10
329.5930041207541
 20
233.29324507247907
 10
328.92868086315286
 20
233.83694622381427
 10
328.25374448680066
 20
234.3657059322459
 10
327.56849302460085
 20
234.87929071237198
 10
326.8732290643087
 20
235.3774737796116
 10
326.16825961491645
 20
235.86003515034665
 10
325.4538959710873
 20
236.32676173906054
 10
324.7304535756963
 20
236.77744745243052
 10
323.9982518805394
 20
237.2118932803329
 10
323.2576142052729
 20
237.62990738372025
 10
322.5088675946444
 20
238.0313051793321
 10
321.7523426740791
 20
238.41590942120166
 10
320.98837350368484
 20
238.7835502789228
 10
320.21729743074064
 20
239.13406541264231
 10
319.4394549407337
 20
239.4673000447445
 10
318.6551895070104
 20
239.78310702819675
 10
317.8648474391083
 20
240.08134691152554
 10
317.0687777298356
 20
240.36188800039415
 10
316.2673319011655
 20
240.62460641575532
 10
315.4608638490145
 20
240.86938614855265
 10
314.64972968697134
 20
241.09611911094694
 10
313.83428758904756
 20
241.30470518404485
 10
313.0148976315181
 20
241.49505226210835
 10
312.19192163392137
 20
241.66707629322633
 10
311.36572299929014
 20
241.82070131642928
 10
310.5366665536831
 20
241.9558594952317
 10
309.7051183850877
 20
242.07249114758665
 10
308.8714456817662
 20
242.17054477223982
 10
308.03601657011546
 20
242.24997707147085
 10
307.19919995211296
 20
242.31075297021252
 10
306.36136534241984
 20
242.35284563153886
 10
305.52288270521376
 20
242.37623646851557
 10
304.684122290823
 20
242.38091515240754
 10
303.84545447223456
 20
242.36687961723968
 10
303.0072495815476
 20
242.33413606070917
 10
302.1698777464455
 20
242.2826989414488
 10
301.33370872675755
 20
242.2125909726425
 10
300.49911175118376
 20
242.12384311199557
 10
299.66645535425374
 20
242.016494548065
 10
298.83610721359213
 20
241.89059268295458
 10
298.0084339875625
 20
241.7461931113837
 10
297.1838011533616
 20
241.5833595961381
 10
296.3625728456347
 20
241.40216403991425
 10
295.54511169568383
 20
241.20268645356884
 10
294.7317786713404
 20
240.9850149207885
 10
293.92293291757176
 20
240.74924555919438
 10
293.11893159789275
 20
240.49548247789943
 10
292.32012973665263
 20
240.2238377315366
 10
291.5268800622661
 20
239.93443127077876
 10
290.7395328514585
 20
239.6273908893719
 10
289.9584357745934
 20
239.30285216770486
 10
289.18393374215117
 20
238.960958412941
 10
288.41636875242614
 20
238.60186059573772
 10
287.65607974051005
 20
238.22571728358213
 10
286.9034024286275
 20
237.83269457077193
 10
286.15866917789066
 20
237.42296600507314
 10
285.42220884153795
 20
236.99671251108597
 10
284.6943466197218
 20
236.55412231035388
 10
283.9754039159091
 20
236.0953908382501
 10
283.2656981949589
 20
235.62072065767887
 10
282.5655428429384
 20
235.13032136962943
 10
281.8752470287409
 20
234.62440952062204
 10
281.19511556756544
 20
234.10320850708726
 10
280.5254487863187
 20
233.56694847672028
 10
279.8665423909994
 20
233.01586622685414
 10
279.2186873361228
 20
232.45020509989678
 10
278.58216969624317
 20
231.87021487587788
 10
277.95727053963174
 20
231.27615166215296
 10
277.3442658041642
 20
230.66827778031362
 10
276.7434261754752
 20
230.04686165035378
 10
276.15501696743024
 20
229.41217767214278
 10
275.5792980049713
 20
228.76450610425837
 10
275.01652350938497
 20
228.10413294023226
 10
274.46694198604587
 20
227.43134978226334
 10
273.93079611468335
 20
226.7464537124546
 10
273.4083226422209
 20
226.04974716162985
 10
272.89975227823595
 20
225.34153777578882
 10
272.4053095930843
 20
224.6221382802594
 10
271.9252129187366
 20
223.89186634160694
 10
271.4596742523689
 20
223.15104442736148
 10
271.00889916275094
 20
222.3999996636254
 10
270.57308669947236
 20
221.6390636906236
 10
270.1524293050484
 20
220.86857251626054
 10
269.74711272994233
 20
220.0888663677486
 10
269.3573159505437
 20
219.3002895413733
 10
268.98321109013705
 20
218.50319025046187
 10
268.6249633428972
 20
217.6979204716219
 10
268.28273090094433
 20
216.88483578931846
 10
267.9566648844905
 20
216.064295238858
 10
267.64690927510946
 20
215.23666114784842
 10
267.35360085215837
 20
214.4022989762055
 10
267.0768691323797
 20
213.56157715477588
 10
266.81683631271085
 20
212.71486692264872
 10
266.57361721632446
 20
211.86254216322666
 10
266.3473192419268
 20
211.00497923912948
 10
266.1380423163328
 20
210.14255682600313
 10
265.9458788503414
 20
209.27565574530703
 10
265.7709136979295
 20
208.4046587961542
 10
265.6132241187829
 20
207.52995058627775
 10
265.4728797441807
 20
206.65191736219919
 10
265.3499425462479
 20
205.7709468386726
 10
265.2444668105902
 20
204.8874280274808
 10
265.1564991123233
 20
204.0017510656588
 10
265.08607829550624
 20
203.1143070432201
 10
265.03323545598937
 20
202.22548783046244
 10
264.997993927683
 20
201.33568590492888
 10
264.980369272254
 20
200.4452941781008
 10
264.980369272254
 20
199.5547058218992
 10
264.997993927683
 20
198.66431409507112
 10
265.03323545598937
 20
197.77451216953756
 10
265.08607829550624
 20
196.8856929567799
 10
265.1564991123233
 20
195.9982489343412
 10
265.2444668105902
 20
195.11257197251922
 10
265.3499425462479
 20
194.22905316132744
 10
265.4728797441807
 20
193.34808263780084
 10
265.6132241187829
 20
192.47004941372225
 10
265.7709136979295
 20
191.59534120384583
 10
265.9458788503414
 20
190.72434425469297
 10
266.1380423163328
 20
189.85744317399687
 10
266.3473192419268
 20
188.99502076087052
 10
266.57361721632446
 20
188.13745783677336
 10
266.8168363127108
 20
187.28513307735128
 10
267.0768691323797
 20
186.43842284522412
 10
267.35360085215837
 20
185.59770102379454
 10
267.64690927510946
 20
184.76333885215158
 10
267.9566648844905
 20
183.935704761142
 10
268.28273090094433
 20
183.1151642106815
 10
268.6249633428972
 20
182.3020795283781
 10
268.98321109013705
 20
181.49680974953813
 10
269.3573159505437
 20
180.6997104586267
 10
269.74711272994233
 20
179.91113363225142
 10
270.1524293050484
 20
179.13142748373946
 10
270.57308669947236
 20
178.36093630937637
 10
271.00889916275094
 20
177.6000003363746
 10
271.4596742523689
 20
176.84895557263854
 10
271.9252129187366
 20
176.1081336583931
 10
272.4053095930843
 20
175.3778617197406
 10
272.89975227823595
 20
174.65846222421118
 10
273.4083226422209
 20
173.95025283837018
 10
273.9307961146833
 20
173.25354628754542
 10
274.46694198604587
 20
172.56865021773666
 10
275.016523509385
 20
171.89586705976774
 10
275.57929800497124
 20
171.23549389574163
 10
276.1550169674302
 20
170.58782232785722
 10
276.7434261754752
 20
169.95313834964625
 10
277.3442658041642
 20
169.33172221968638
 10
277.9572705396317
 20
168.72384833784707
 10
278.5821696962432
 20
168.12978512412212
 10
279.2186873361228
 20
167.54979490010322
 10
279.8665423909994
 20
166.98413377314589
 10
280.5254487863187
 20
166.43305152327974
 10
281.19511556756544
 20
165.89679149291274
 10
281.8752470287409
 20
165.37559047937796
 10
282.5655428429383
 20
164.8696786303706
 10
283.2656981949589
 20
164.37927934232113
 10
283.9754039159091
 20
163.9046091617499
 10
284.6943466197218
 20
163.4458776896461
 10
285.422208841538
 20
163.00328748891403
 10
286.15866917789066
 20
162.57703399492686
 10
286.9034024286275
 20
162.16730542922807
 10
287.65607974051005
 20
161.77428271641787
 10
288.41636875242614
 20
161.39813940426228
 10
289.1839337421511
 20
161.03904158705902
 10
289.9584357745934
 20
160.69714783229517
 10
290.7395328514585
 20
160.3726091106281
 10
291.52688006226606
 20
160.06556872922124
 10
292.32012973665263
 20
159.7761622684634
 10
293.11893159789275
 20
159.50451752210057
 10
293.92293291757176
 20
159.25075444080562
 10
294.7317786713404
 20
159.0149850792115
 10
295.54511169568383
 20
158.79731354643116
 10
296.3625728456347
 20
158.59783596008575
 10
297.1838011533616
 20
158.4166404038619
 10
298.0084339875625
 20
158.2538068886163
 10
298.83610721359213
 20
158.10940731704542
 10
299.6664553542538
 20
157.983505451935
 10
300.49911175118376
 20
157.87615688800443
 10
301.3337087267575
 20
157.7874090273575
 10
302.1698777464454
 20
157.7173010585512
 10
303.00724958154757
 20
157.66586393929083
 10
303.84545447223456
 20
157.63312038276032
 10
304.684122290823
 20
157.61908484759246
 10
305.52288270521376
 20
157.62376353148443
 10
306.36136534241984
 20
157.64715436846114
 10
307.19919995211296
 20
157.68924702978748
 10
308.03601657011546
 20
157.75002292852915
 10
308.8714456817662
 20
157.82945522776018
 10
309.7051183850877
 20
157.92750885241335
 10
310.5366665536831
 20
158.0441405047683
 10
311.36572299929014
 20
158.17929868357072
 10
312.19192163392137
 20
158.33292370677367
 10
313.01489763151807
 20
158.50494773789165
 10
313.83428758904756
 20
158.69529481595515
 10
314.6497296869713
 20
158.90388088905306
 10
315.46086384901446
 20
159.13061385144735
 10
316.2673319011655
 20
159.37539358424468
 10
317.0687777298356
 20
159.63811199960585
 10
317.8648474391083
 20
159.91865308847446
 10
318.6551895070104
 20
160.21689297180325
 10
319.4394549407337
 20
160.5326999552555
 10
320.21729743074064
 20
160.86593458735769
 10
320.98837350368484
 20
161.2164497210772
 10
321.7523426740791
 20
161.58409057879834
 10
322.5088675946444
 20
161.9686948206679
 10
323.2576142052729
 20
162.37009261627975
 10
323.9982518805394
 20
162.7881067196671
 10
324.7304535756963
 20
163.22255254756948
 10
325.4538959710873
 20
163.67323826093946
 10
326.16825961491645
 20
164.13996484965332
 10
326.87322906430865
 20
164.6225262203884
 10
327.56849302460085
 20
165.12070928762802
 10
328.25374448680066
 20
165.6342940677541
 10
328.92868086315286
 20
166.16305377618573
 10
329.5930041207541
 20
166.70675492752093
 10
330.2464209131551
 20
167.265157438637
 10
330.88864270989484
 20
167.83801473470476
 10
331.5193859239072
 20
168.4250738580688
 10
332.1383720367449
 20
169.0260755799467
 10
332.7453277215658
 20
169.6407545148969
 10
333.33998496382594
 20
170.26883923800574
 10
333.92208117962747
 20
170.91005240474067
 10
334.49135933166804
 20
171.56411087341823
 10
335.04756804274166
 20
172.23072583023117
 10
335.59046170673946
 20
172.90960291678047
 10
336.11980059710237
 20
173.60044236005592
 10
336.635350972678
 20
174.3029391048073
 10
337.1368851809338
 20
175.01678294824822
 10
337.62418175848217
 20
175.74165867703292
 10
338.09702552887245
 20
176.47724620644567
 10
338.5552076976067
 20
177.2232207217411
 10
338.9985259443376
 20
177.97925282157328
 10
339.42678451220723
 20
178.74500866345014
 10
339.839794294288
 20
179.52015011114878
 10
340.237372917087
 20
180.30433488402704
 10
340.61934482107654
 20
181.09721670816492
 10
340.98554133821676
 20
181.89844546926938
 10
341.3358007664346
 20
182.70766736727504
 10
341.6699684410268
 20
183.5245250725723
 10
341.9878968029554
 20
184.34865788379395
 10
342.28944546400584
 20
185.17970188709089
 10
342.5744812687783
 20
186.01729011682602
 10
342.84287835348556
 20
186.86105271761625
 10
343.09451820153066
 20
187.7106171076499
 10
343.32928969584066
 20
188.56560814320858
 10
343.54708916793277
 20
189.42564828431995
 10
343.74782044369135
 20
190.29035776146878
 10
343.9313948858359
 20
191.1593547432926
 10
344.09773143306063
 20
192.03225550518744
 10
344.24675663582883
 20
192.90867459875003
 10
344.37840468880614
 20
193.78822502198085
 10
344.49261745991845
 20
194.67051839017336
 10
344.58934451602124
 20
195.5551651074137
 10
344.6685431451695
 20
196.44177453861545
 10
344.7301783754782
 20
197.32995518201278
 10
344.7742229905647
 20
198.21931484203694
 10
344.8006575415668
 20
199.10946080249852
 10
344.8094703557311
 20
200.0
  0
LWPOLYLINE
  5
98
330
17
100
AcDbEntity
  8
Layer
100
AcDbPolyline
 90
5
 70
1
 10
138.178291741162
 20
205.00000000000003
 10
143.178291741162
 20
200.00000000000003
 10
138.178291741162
 20
195.00000000000003
 10
133.178291741162
 20
200.00000000000003
 10
138.178291741162
 20
205.00000000000003
  0
LWPOLYLINE
  5
99
330
17
100
AcDbEntity
  8
Layer
100
AcDbPolyline
 90
5
 70
1
 10
302.2586371382749
 20
205.0
 10
307.2586371382749
 20
200.0
 10
302.2586371382749
 20
195.0
 10
297.2586371382749
 20
200.0
 10
302.2586371382749
 20
205.0
  0
LWPOLYLINE
  5
9A
330
17
100
AcDbEntity
  8
Layer
100
AcDbPolyline
 90
5
 70
1
 10
87.51297072219748
 20
180.66736075638516
 10
92.181741309376
 20
175.35675050856082
 10
86.87113106155167
 20
170.6879799213823
 10
82.20236047437315
 20
175.99859016920664
 10
87.51297072219748
 20
180.66736075638516
  0
LWPOLYLINE
  5
9B
330
17
100
AcDbEntity
  8
Layer
100
AcDbPolyline
 90
5
 70
1
 10
176.32543957433526
 20
174.95524636655927
 10
180.9942101615138
 20
169.64463611873492
 10
175.68359991368945
 20
164.9758655315564
 10
171.01482932651092
 20
170.28647577938074
 10
176.32543957433526
 20
174.95524636655927
  0
LWPOLYLINE
  5
9C
330
17
100
AcDbEntity
  8
Layer
100
AcDbPolyline
 90
5
 70
1
 10
149.89381818181806
 20
185.58133107823764
 10
154.89381818181806
 20
190.58133107823764
 10
159.89381818181806
 20
185.58133107823764
 10
154.89381818181806
 20
180.58133107823764
 10
149.89381818181806
 20
185.58133107823764
  0
LWPOLYLINE
  5
9D
330
17
100
AcDbEntity
  8
Layer
100
AcDbPolyline
 90
5
 70
1
 10
149.89381818181806
 20
210.77992480254025
 10
154.89381818181806
 20
215.77992480254025
 10
159.89381818181806
 20
210.77992480254025
 10
154.89381818181806
 20
205.77992480254025
 10
149.89381818181806
 20
210.77992480254025
  0
LINE
  5
9E
330
17
100
AcDbEntity
  8
Layer
 62
7
100
AcDbLine
 10
22.2913948097534
 20
200.00000000000003
 30
0.0
 11
398.0181818181817
 21
200.0
 31
0.0
  0
LINE
  5
9F
330
17
100
AcDbEntity
  8
Layer
 62
7
100
AcDbLine
 10
132.178291741162
 20
200.00000000000003
 30
0.0
 11
144.178291741162
 21
200.00000000000003
 31
0.0
  0
LINE
  5
A0
330
17
100
AcDbEntity
  8
Layer
 62
7
100
AcDbLine
 10
296.2586371382749
 20
200.0
 30
0.0
 11
308.2586371382749
 21
200.0
 31
0.0
  0
LINE
  5
A1
330
17
100
AcDbEntity
  8
Layer
 62
7
100
AcDbLine
 10
9.65547826741249
 20
180.66455763016418
 30
0.0
 11
377.87854876146736
 21
156.98170851202113
 31
0.0
  0
LINE
  5
A2
330
17
100
AcDbEntity
  8
Layer
 62
7
100
AcDbLine
 10
81.20442239087288
 20
176.0627741352712
 30
0.0
 11
93.17967939287627
 21
175.29256654249625
 31
0.0
  0
LINE
  5
A3
330
17
100
AcDbEntity
  8
Layer
 62
7
100
AcDbLine
 10
170.01689124301066
 20
170.3506597454453
 30
0.0
 11
181.99214824501405
 21
169.58045215267035
 31
0.0
  0
LINE
  5
A4
330
17
100
AcDbEntity
  8
Layer
100
AcDbLine
 10
304.89381818181806
 20
242.3815
 30
0.0
 11
304.89381818181806
 21
243.3815
 31
0.0
  0
LINE
  5
A5
330
17
100
AcDbEntity
  8
Layer
100
AcDbLine
 10
304.89381818181806
 20
157.6185
 30
0.0
 11
304.89381818181806
 21
156.6185
 31
0.0
  0
LINE
  5
A6
330
17
100
AcDbEntity
  8
Layer
100
AcDbLine
 10
344.8094703557311
 20
200.0
 30
0.0
 11
345.8094703557311
 21
200.0
 31
0.0
  0
LINE
  5
A7
330
17
100
AcDbEntity
  8
Layer
100
AcDbLine
 10
264.97816600790503
 20
200.0
 30
0.0
 11
263.97816600790503
 21
200.0
 31
0.0
  0
LINE
  5
A8
330
17
100
AcDbEntity
  8
Layer
 62
7
100
AcDbLine
 10
154.89381818181806
 20
149.68297173321793
 30
0.0
 11
154.89381818181806
 21
246.67828414755996
 31
0.0
  0
LINE
  5
A9
330
17
100
AcDbEntity
  8
Layer
 62
7
100
AcDbLine
 10
154.89381818181806
 20
179.58133107823764
 30
0.0
 11
154.89381818181806
 21
191.58133107823764
 31
0.0
  0
LINE
  5
AA
330
17
100
AcDbEntity
  8
Layer
 62
7
100
AcDbLine
 10
154.89381818181806
 20
204.77992480254025
 30
0.0
 11
154.89381818181806
 21
216.77992480254025
 31
0.0
  0
ENDSEC
  0
SECTION
  2
OBJECTS
  0
DICTIONARY
  5
A
330
0
100
AcDbDictionary
280
0
281
1
  3
ACAD_COLOR
350
B
  3
ACAD_GROUP
350
C
  3
ACAD_LAYOUT
350
D
  3
ACAD_MATERIAL
350
E
  3
ACAD_MLEADERSTYLE
350
F
  3
ACAD_MLINESTYLE
350
10
  3
ACAD_PLOTSETTINGS
350
11
  3
ACAD_PLOTSTYLENAME
350
12
  3
ACAD_SCALELIST
350
14
  3
ACAD_TABLESTYLE
350
15
  3
ACAD_VISUALSTYLE
350
16
  3
EZDXF_META
350
2D
  0
DICTIONARY
  5
B
330
A
100
AcDbDictionary
280
0
281
1
  0
DICTIONARY
  5
C
330
A
100
AcDbDictionary
280
0
281
1
  0
DICTIONARY
  5
D
330
A
100
AcDbDictionary
280
0
281
1
  3
Model
350
1A
  3
Layout1
350
1E
  0
DICTIONARY
  5
E
330
A
100
AcDbDictionary
280
0
281
1
  3
ByBlock
350
1F
  3
ByLayer
350
20
  3
Global
350
21
  0
DICTIONARY
  5
F
330
A
100
AcDbDictionary
280
0
281
1
  3
Standard
350
2C
  0
DICTIONARY
  5
10
330
A
100
AcDbDictionary
280
0
281
1
  3
Standard
350
22
  0
DICTIONARY
  5
11
330
A
100
AcDbDictionary
280
0
281
1
  0
ACDBDICTIONARYWDFLT
  5
12
330
A
100
AcDbDictionary
280
0
281
1
  3
Normal
350
13
100
AcDbDictionaryWithDefault
340
13
  0
ACDBPLACEHOLDER
  5
13
330
12
  0
DICTIONARY
  5
14
330
A
100
AcDbDictionary
280
0
281
1
  0
DICTIONARY
  5
15
330
A
100
AcDbDictionary
280
0
281
1
  0
DICTIONARY
  5
16
330
A
100
AcDbDictionary
280
0
281
1
  3
2dWireframe
350
5A
  3
Basic
350
5B
  3
Brighten
350
5C
  3
ColorChange
350
5D
  3
Conceptual
350
5E
  3
Dim
350
5F
  3
EdgeColorOff
350
60
  3
Facepattern
350
61
  3
Flat
350
62
  3
FlatWithEdges
350
63
  3
Gouraud
350
64
  3
GouraudWithEdges
350
65
  3
Hidden
350
66
  3
JitterOff
350
67
  3
Linepattern
350
68
  3
Modeling
350
69
  3
OverhangOff
350
6A
  3
Realistic
350
6B
  3
Shaded
350
6C
  3
Shaded with edges
350
6D
  3
Shades of Gray
350
6E
  3
Sketchy
350
6F
  3
Thicken
350
70
  3
Wireframe
350
71
  3
X-Ray
350
72
  0
LAYOUT
  5
1A
330
D
100
AcDbPlotSettings
  1

  2
Adobe PDF
  4
A3
  6

 40
7.5
 41
20.0
 42
7.5
 43
20.0
 44
420.0
 45
297.0
 46
0.0
 47
0.0
 48
0.0
 49
0.0
140
0.0
141
0.0
142
1.0
143
1.0
 70
1024
 72
1
 73
0
 74
5
  7

 75
16
 76
0
 77
2
 78
300
147
1.0
148
0.0
149
0.0
100
AcDbLayout
  1
Model
 70
1
 71
0
 10
0.0
 20
0.0
 11
420.0
 21
297.0
 12
0.0
 22
0.0
 32
0.0
 14
1e+20
 24
1e+20
 34
1e+20
 15
-1e+20
 25
-1e+20
 35
-1e+20
146
0.0
 13
0.0
 23
0.0
 33
0.0
 16
1.0
 26
0.0
 36
0.0
 17
0.0
 27
1.0
 37
0.0
 76
1
330
17
  0
LAYOUT
  5
1E
330
D
100
AcDbPlotSettings
  1

  2
Adobe PDF
  4
A3
  6

 40
7.5
 41
20.0
 42
7.5
 43
20.0
 44
420.0
 45
297.0
 46
0.0
 47
0.0
 48
0.0
 49
0.0
140
0.0
141
0.0
142
1.0
143
1.0
 70
0
 72
1
 73
0
 74
5
  7

 75
16
 76
0
 77
2
 78
300
147
1.0
148
0.0
149
0.0
100
AcDbLayout
  1
Layout1
 70
1
 71
1
 10
0.0
 20
0.0
 11
420.0
 21
297.0
 12
0.0
 22
0.0
 32
0.0
 14
1e+20
 24
1e+20
 34
1e+20
 15
-1e+20
 25
-1e+20
 35
-1e+20
146
0.0
 13
0.0
 23
0.0
 33
0.0
 16
1.0
 26
0.0
 36
0.0
 17
0.0
 27
1.0
 37
0.0
 76
1
330
1B
  0
MATERIAL
  5
1F
102
{ACAD_REACTORS
330
E
102
}
330
E
100
AcDbMaterial
  1
ByBlock
  2

 70
0
 40
1.0
 71
1
 41
1.0
 91
-1023410177
 42
1.0
 72
1
  3

 73
1
 74
1
 75
1
 44
0.5
 73
0
 45
1.0
 46
1.0
 77
1
  4

 78
1
 79
1
170
1
 48
1.0
171
1
  6

172
1
173
1
174
1
140
1.0
141
1.0
175
1
  7

176
1
177
1
178
1
143
1.0
179
1
  8

270
1
271
1
272
1
145
1.0
146
1.0
273
1
  9

274
1
275
1
276
1
 42
1.0
 72
1
  3

 73
1
 74
1
 75
1
 94
63
  0
MATERIAL
  5
20
102
{ACAD_REACTORS
330
E
102
}
330
E
100
AcDbMaterial
  1
ByLayer
  2

 70
0
 40
1.0
 71
1
 41
1.0
 91
-1023410177
 42
1.0
 72
1
  3

 73
1
 74
1
 75
1
 44
0.5
 73
0
 45
1.0
 46
1.0
 77
1
  4

 78
1
 79
1
170
1
 48
1.0
171
1
  6

172
1
173
1
174
1
140
1.0
141
1.0
175
1
  7

176
1
177
1
178
1
143
1.0
179
1
  8

270
1
271
1
272
1
145
1.0
146
1.0
273
1
  9

274
1
275
1
276
1
 42
1.0
 72
1
  3

 73
1
 74
1
 75
1
 94
63
  0
MATERIAL
  5
21
102
{ACAD_REACTORS
330
E
102
}
330
E
100
AcDbMaterial
  1
Global
  2

 70
0
 40
1.0
 71
1
 41
1.0
 91
-1023410177
 42
1.0
 72
1
  3

 73
1
 74
1
 75
1
 44
0.5
 73
0
 45
1.0
 46
1.0
 77
1
  4

 78
1
 79
1
170
1
 48
1.0
171
1
  6

172
1
173
1
174
1
140
1.0
141
1.0
175
1
  7

176
1
177
1
178
1
143
1.0
179
1
  8

270
1
271
1
272
1
145
1.0
146
1.0
273
1
  9

274
1
275
1
276
1
 42
1.0
 72
1
  3

 73
1
 74
1
 75
1
 94
63
  0
MLINESTYLE
  5
22
102
{ACAD_REACTORS
330
10
102
}
330
10
100
AcDbMlineStyle
  2
Standard
 70
0
  3

 62
256
 51
90.0
 52
90.0
 71
2
 49
0.5
 62
256
  6
BYLAYER
 49
-0.5
 62
256
  6
BYLAYER
  0
MLEADERSTYLE
  5
2C
102
{ACAD_REACTORS
330
F
102
}
330
F
100
AcDbMLeaderStyle
179
2
170
2
171
1
172
0
 90
2
 40
0.0
 41
0.0
173
1
 91
-1056964608
 92
-2
290
1
 42
2.0
291
1
 43
8.0
  3
Standard
 44
4.0
300

342
29
174
1
175
1
176
0
178
1
 93
-1056964608
 45
4.0
292
0
297
0
 46
4.0
 94
-1056964608
 47
1.0
 49
1.0
140
1.0
294
1
141
0.0
177
0
142
1.0
295
0
296
0
143
3.75
271
0
272
9
273
9
  0
DICTIONARY
  5
2D
330
A
100
AcDbDictionary
281
1
  3
CREATED_BY_EZDXF
350
2E
  3
WRITTEN_BY_EZDXF
350
AD
  0
DICTIONARYVAR
  5
2E
330
2D
100
DictionaryVariables
280
0
  1
1.3.0 @ 2026-01-06T17:07:17.638279+00:00
  0
VISUALSTYLE
  5
5A
102
{ACAD_REACTORS
330
16
102
}
330
16
100
AcDbVisualStyle
  2
2dWireframe
 70
4
 90
0
 40
0.6
 62
7
290
0
291
0
  0
VISUALSTYLE
  5
5B
102
{ACAD_REACTORS
330
16
102
}
330
16
100
AcDbVisualStyle
  2
Basic
 70
7
 90
1
 40
0.6
 62
7
290
0
291
1
  0
VISUALSTYLE
  5
5C
102
{ACAD_REACTORS
330
16
102
}
330
16
100
AcDbVisualStyle
  2
Brighten
 70
12
 90
2
 40
0.6
 62
7
290
0
291
1
  0
VISUALSTYLE
  5
5D
102
{ACAD_REACTORS
330
16
102
}
330
16
100
AcDbVisualStyle
  2
ColorChange
 70
16
 90
2
 40
0.6
 62
8
290
0
291
1
  0
VISUALSTYLE
  5
5E
102
{ACAD_REACTORS
330
16
102
}
330
16
100
AcDbVisualStyle
  2
Conceptual
 70
9
 90
3
 40
0.6
 62
7
290
0
291
0
  0
VISUALSTYLE
  5
5F
102
{ACAD_REACTORS
330
16
102
}
330
16
100
AcDbVisualStyle
  2
Dim
 70
11
 90
2
 40
0.6
 62
7
290
0
291
1
  0
VISUALSTYLE
  5
60
102
{ACAD_REACTORS
330
16
102
}
330
16
100
AcDbVisualStyle
  2
EdgeColorOff
 70
22
 90
2
 40
0.6
 62
7
290
0
291
1
  0
VISUALSTYLE
  5
61
102
{ACAD_REACTORS
330
16
102
}
330
16
100
AcDbVisualStyle
  2
Facepattern
 70
15
 90
2
 40
0.6
 62
7
290
0
291
1
  0
VISUALSTYLE
  5
62
102
{ACAD_REACTORS
330
16
102
}
330
16
100
AcDbVisualStyle
  2
Flat
 70
0
 90
2
 40
0.6
 62
7
290
0
291
1
  0
VISUALSTYLE
  5
63
102
{ACAD_REACTORS
330
16
102
}
330
16
100
AcDbVisualStyle
  2
FlatWithEdges
 70
1
 90
2
 40
0.6
 62
7
290
0
291
1
  0
VISUALSTYLE
  5
64
102
{ACAD_REACTORS
330
16
102
}
330
16
100
AcDbVisualStyle
  2
Gouraud
 70
2
 90
2
 40
0.6
 62
7
290
0
291
1
  0
VISUALSTYLE
  5
65
102
{ACAD_REACTORS
330
16
102
}
330
16
100
AcDbVisualStyle
  2
GouraudWithEdges
 70
3
 90
2
 40
0.6
 62
7
290
0
291
1
  0
VISUALSTYLE
  5
66
102
{ACAD_REACTORS
330
16
102
}
330
16
100
AcDbVisualStyle
  2
Hidden
 70
6
 90
1
 40
0.6
 62
7
290
0
291
0
  0
VISUALSTYLE
  5
67
102
{ACAD_REACTORS
330
16
102
}
330
16
100
AcDbVisualStyle
  2
JitterOff
 70
20
 90
2
 40
0.6
 62
7
290
0
291
1
  0
VISUALSTYLE
  5
68
102
{ACAD_REACTORS
330
16
102
}
330
16
100
AcDbVisualStyle
  2
Linepattern
 70
14
 90
2
 40
0.6
 62
7
290
0
291
1
  0
VISUALSTYLE
  5
69
102
{ACAD_REACTORS
330
16
102
}
330
16
100
AcDbVisualStyle
  2
Modeling
 70
10
 90
2
 40
0.6
 62
7
290
0
291
0
  0
VISUALSTYLE
  5
6A
102
{ACAD_REACTORS
330
16
102
}
330
16
100
AcDbVisualStyle
  2
OverhangOff
 70
21
 90
2
 40
0.6
 62
7
290
0
291
1
  0
VISUALSTYLE
  5
6B
102
{ACAD_REACTORS
330
16
102
}
330
16
100
AcDbVisualStyle
  2
Realistic
 70
8
 90
2
 40
0.6
 62
7
290
0
291
0
  0
VISUALSTYLE
  5
6C
102
{ACAD_REACTORS
330
16
102
}
330
16
100
AcDbVisualStyle
  2
Shaded
 70
27
 90
2
 40
0.6
 62
7
290
0
291
0
  0
VISUALSTYLE
  5
6D
102
{ACAD_REACTORS
330
16
102
}
330
16
100
AcDbVisualStyle
  2
Shaded with edges
 70
26
 90
2
 40
0.6
 62
7
290
0
291
0
  0
VISUALSTYLE
  5
6E
102
{ACAD_REACTORS
330
16
102
}
330
16
100
AcDbVisualStyle
  2
Shades of Gray
 70
23
 90
2
 40
0.6
 62
7
290
0
291
0
  0
VISUALSTYLE
  5
6F
102
{ACAD_REACTORS
330
16
102
}
330
16
100
AcDbVisualStyle
  2
Sketchy
 70
24
 90
1
 40
0.6
 62
7
290
0
291
0
  0
VISUALSTYLE
  5
70
102
{ACAD_REACTORS
330
16
102
}
330
16
100
AcDbVisualStyle
  2
Thicken
 70
13
 90
2
 40
0.6
 62
7
290
0
291
1
  0
VISUALSTYLE
  5
71
102
{ACAD_REACTORS
330
16
102
}
330
16
100
AcDbVisualStyle
  2
Wireframe
 70
5
 90
0
 40
0.6
 62
7
290
0
291
0
  0
VISUALSTYLE
  5
72
102
{ACAD_REACTORS
330
16
102
}
330
16
100
AcDbVisualStyle
  2
X-Ray
 70
25
 90
2
 40
0.5
 62
7
290
0
291
0
  0
DICTIONARYVAR
  5
AD
330
2D
100
DictionaryVariables
280
0
  1
1.3.0 @ 2026-01-06T17:07:17.656138+00:00
  0
ENDSEC
  0
EOF
