<?xml version="1.0" encoding="utf-8" standalone="no"?>
<!DOCTYPE svg PUBLIC "-//W3C//DTD SVG 1.1//EN"
  "http://www.w3.org/Graphics/SVG/1.1/DTD/svg11.dtd">
<svg xmlns:xlink="http://www.w3.org/1999/xlink" width="1152pt" height="341.092951pt" viewBox="0 0 1152 341.092951" xmlns="http://www.w3.org/2000/svg" version="1.1">
 <metadata>
  <rdf:RDF xmlns:dc="http://purl.org/dc/elements/1.1/" xmlns:cc="http://creativecommons.org/ns#" xmlns:rdf="http://www.w3.org/1999/02/22-rdf-syntax-ns#">
   <cc:Work>
    <dc:type rdf:resource="http://purl.org/dc/dcmitype/StillImage"/>
    <dc:date>2026-01-07T02:07:18.713447</dc:date>
    <dc:format>image/svg+xml</dc:format>
    <dc:creator>
     <cc:Agent>
      <dc:title>Matplotlib v3.10.1, https://matplotlib.org/</dc:title>
     </cc:Agent>
    </dc:creator>
   </cc:Work>
  </rdf:RDF>
 </metadata>
 <defs>
  <style type="text/css">*{stroke-linejoin: round; stroke-linecap: butt}</style>
 </defs>
 <g id="figure_1">
  <g id="patch_1">
   <path d="M 0 341.092951 
L 1152 341.092951 
L 1152 0 
L 0 0 
z
" style="fill: #ffffff"/>
  </g>
  <g id="axes_1">
   <g id="patch_2">
    <path d="M 0 341.092951 
L 1152 341.092951 
L 1152 0 
L 0 0 
z
" style="fill: #212830"/>
   </g>
   <g id="patch_3">
    <path d="M 1099.246448 324.091113 
L 1091.342879 321.242108 
L 1078.468019 316.620359 
L 1064.322645 311.58957 
L 1048.895158 306.206537 
L 1032.115507 300.478342 
L 1014.084188 294.331079 
L 995.001571 287.789072 
L 975.078538 280.899912 
L 954.484507 273.718155 
L 933.378718 266.298335 
L 911.869685 258.680411 
L 890.04947 250.909328 
L 867.993509 243.01507 
L 845.749866 235.027413 
L 823.380859 226.981802 
L 800.950482 218.90682 
L 778.518574 210.837026 
L 756.123235 202.799318 
L 733.794203 194.809879 
L 711.558275 186.888893 
L 689.420093 179.050956 
L 667.383466 171.303743 
L 645.45918 163.658396 
L 623.651323 156.128482 
L 601.956204 148.722387 
L 581.556834 141.845059 
L 580.657232 144.513438 
L 579.487665 144.119096 
L 558.039411 136.990683 
L 536.702968 130.016155 
L 515.462432 123.199177 
L 494.309771 116.542318 
L 473.23638 110.05135 
L 452.225272 103.729602 
L 431.259669 97.575689 
L 410.330961 91.588928 
L 389.432701 85.77186 
L 368.552618 80.125898 
L 347.677866 74.649656 
L 326.803698 69.34061 
L 305.928905 64.200429 
L 285.046696 59.231506 
L 264.148033 54.432123 
L 243.230797 49.799893 
L 222.297872 45.336115 
L 201.346295 41.04306 
L 180.371031 36.920141 
L 159.370005 32.965337 
L 138.348139 29.178619 
L 117.306677 25.56278 
L 96.24151 22.118336 
L 75.152376 18.842985 
L 54.044499 15.737533 
L 52.363636 15.504225 
L 52.363636 283.522595 
L 72.300621 283.622141 
L 96.156679 283.705656 
L 119.993006 283.773122 
L 143.777275 283.870849 
L 167.550025 284.018107 
L 191.335574 284.192352 
L 215.102896 284.35987 
L 238.781975 284.534063 
L 262.337949 284.758317 
L 285.832296 285.050152 
L 309.275737 285.354846 
L 332.618283 285.5928 
L 355.963006 285.738347 
L 379.346133 285.855575 
L 402.717134 286.027643 
L 426.132423 286.281065 
L 449.624539 286.57364 
L 473.096288 286.867781 
L 496.441699 287.191309 
L 519.661945 287.607984 
L 542.894793 288.141677 
L 566.227624 288.742517 
L 589.596738 289.347803 
L 612.874565 289.956594 
L 635.975123 290.636069 
L 658.996215 291.441592 
L 682.076538 292.360741 
L 705.235708 293.329492 
L 728.332327 294.301585 
L 751.213974 295.30721 
L 773.864002 296.426927 
L 796.434992 297.71403 
L 819.082895 299.135297 
L 841.777982 300.603864 
L 864.309756 302.086087 
L 886.531582 303.635467 
L 908.447137 305.295641 
L 930.050042 307.050935 
L 951.245109 308.875549 
L 971.894799 310.757095 
L 991.856578 312.703863 
L 1011.038363 314.742853 
L 1029.379718 316.845131 
L 1046.734695 318.914927 
L 1062.905831 320.878015 
L 1077.762496 322.737158 
L 1091.308857 324.492556 
L 1099.636364 325.588726 
L 1099.246448 324.091113 
" clip-path="url(#p6b7103290b)" style="fill: none; stroke: #ff0000; stroke-width: 0.72; stroke-linejoin: miter"/>
   </g>
   <g id="patch_4">
    <path d="M 482.110305 213.040419 
L 482.110305 227.120133 
L 496.190019 227.120133 
L 496.190019 213.040419 
L 496.190019 241.199848 
" clip-path="url(#p6b7103290b)" style="fill: none; stroke: #ff0000; stroke-width: 0.72; stroke-linejoin: miter"/>
   </g>
   <g id="patch_5">
    <path d="M 517.309591 227.120133 
L 511.677705 227.120133 
" clip-path="url(#p6b7103290b)" style="fill: none; stroke: #ff0000; stroke-width: 0.72; stroke-linejoin: miter"/>
   </g>
   <g id="patch_6">
    <path d="M 508.861762 227.120133 
L 503.229876 227.120133 
L 503.229876 213.040419 
L 508.861762 213.040419 
" clip-path="url(#p6b7103290b)" style="fill: none; stroke: #ff0000; stroke-width: 0.72; stroke-linejoin: miter"/>
   </g>
   <g id="patch_7">
    <path d="M 511.677705 213.040419 
L 517.309591 213.040419 
L 517.309591 241.199848 
L 511.677705 241.199848 
" clip-path="url(#p6b7103290b)" style="fill: none; stroke: #ff0000; stroke-width: 0.72; stroke-linejoin: miter"/>
   </g>
   <g id="patch_8">
    <path d="M 508.861762 241.199848 
L 503.229876 241.199848 
" clip-path="url(#p6b7103290b)" style="fill: none; stroke: #ff0000; stroke-width: 0.72; stroke-linejoin: miter"/>
   </g>
   <g id="patch_9">
    <path d="M 375.690241 93.724259 
L 364.816946 90.784191 
L 367.757014 79.910896 
L 378.630309 82.850964 
L 375.690241 93.724259 
" clip-path="url(#p6b7103290b)" style="fill: none; stroke: #ff0000; stroke-width: 0.72; stroke-linejoin: miter"/>
   </g>
   <g id="patch_10">
    <path d="M 237.745244 121.450598 
L 251.824958 135.530313 
L 237.745244 149.610027 
L 223.66553 135.530313 
L 237.745244 121.450598 
" clip-path="url(#p6b7103290b)" style="fill: none; stroke: #ff0000; stroke-width: 0.72; stroke-linejoin: miter"/>
   </g>
   <g id="patch_11">
    <path d="M 629.45989 240.642861 
L 643.539604 226.563147 
L 657.619318 240.642861 
L 643.539604 254.722575 
L 629.45989 240.642861 
" clip-path="url(#p6b7103290b)" style="fill: none; stroke: #ff0000; stroke-width: 0.72; stroke-linejoin: miter"/>
   </g>
   <g id="patch_12">
    <path d="M 629.45989 213.253491 
L 643.539604 199.173776 
L 657.619318 213.253491 
L 643.539604 227.333205 
L 629.45989 213.253491 
" clip-path="url(#p6b7103290b)" style="fill: none; stroke: #ff0000; stroke-width: 0.72; stroke-linejoin: miter"/>
   </g>
   <g id="line2d_1">
    <path d="M 1046.38233 305.348715 
L 1045.471292 308.013211 
" clip-path="url(#p6b7103290b)" style="fill: none; stroke: #ff0000; stroke-width: 0.72; stroke-linecap: square"/>
   </g>
   <g id="line2d_2">
    <path d="M 1043.830405 315.733869 
L 1043.578857 318.538554 
" clip-path="url(#p6b7103290b)" style="fill: none; stroke: #ff0000; stroke-width: 0.72; stroke-linecap: square"/>
   </g>
   <g id="line2d_3">
    <path d="M 993.092105 287.1288 
L 992.181088 289.793304 
" clip-path="url(#p6b7103290b)" style="fill: none; stroke: #ff0000; stroke-width: 0.72; stroke-linecap: square"/>
   </g>
   <g id="line2d_4">
    <path d="M 987.882874 309.487039 
L 987.600857 312.288825 
" clip-path="url(#p6b7103290b)" style="fill: none; stroke: #ff0000; stroke-width: 0.72; stroke-linecap: square"/>
   </g>
   <g id="line2d_5">
    <path d="M 780.825713 211.667011 
L 779.893193 214.324065 
" clip-path="url(#p6b7103290b)" style="fill: none; stroke: #ff0000; stroke-width: 0.72; stroke-linecap: square"/>
   </g>
   <g id="line2d_6">
    <path d="M 763.126035 293.078208 
L 762.895328 295.884684 
" clip-path="url(#p6b7103290b)" style="fill: none; stroke: #ff0000; stroke-width: 0.72; stroke-linecap: square"/>
   </g>
   <g id="line2d_7">
    <path d="M 52.363636 135.530313 
L 553.571854 135.530313 
" clip-path="url(#p6b7103290b)" style="fill: none; stroke: #ffffff; stroke-width: 0.72; stroke-linecap: square"/>
   </g>
   <g id="line2d_8">
    <path d="M 220.849587 135.530313 
L 254.640901 135.530313 
" clip-path="url(#p6b7103290b)" style="fill: none; stroke: #ffffff; stroke-width: 0.72; stroke-linecap: square"/>
   </g>
   <g id="line2d_9">
    <path d="M 52.363636 256.210171 
L 1097.392622 323.422863 
" clip-path="url(#p6b7103290b)" style="fill: none; stroke: #ffffff; stroke-width: 0.72; stroke-linecap: square"/>
   </g>
   <g id="line2d_10">
    <path d="M 643.539604 290.900755 
L 643.539604 162.995597 
" clip-path="url(#p6b7103290b)" style="fill: none; stroke: #ffffff; stroke-width: 0.72; stroke-linecap: square"/>
   </g>
   <g id="line2d_11">
    <path d="M 643.539604 257.538518 
L 643.539604 223.747204 
" clip-path="url(#p6b7103290b)" style="fill: none; stroke: #ffffff; stroke-width: 0.72; stroke-linecap: square"/>
   </g>
   <g id="line2d_12">
    <path d="M 643.539604 230.149148 
L 643.539604 196.357834 
" clip-path="url(#p6b7103290b)" style="fill: none; stroke: #ffffff; stroke-width: 0.72; stroke-linecap: square"/>
   </g>
  </g>
 </g>
 <defs>
  <clipPath id="p6b7103290b">
   <rect x="0" y="0" width="1152" height="341.092951"/>
  </clipPath>
 </defs>
</svg>
