<?xml version="1.0" encoding="utf-8" standalone="no"?>
<!DOCTYPE svg PUBLIC "-//W3C//DTD SVG 1.1//EN"
  "http://www.w3.org/Graphics/SVG/1.1/DTD/svg11.dtd">
<svg xmlns:xlink="http://www.w3.org/1999/xlink" width="803.715535pt" height="345.6pt" viewBox="0 0 803.715535 345.6" xmlns="http://www.w3.org/2000/svg" version="1.1">
 <metadata>
  <rdf:RDF xmlns:dc="http://purl.org/dc/elements/1.1/" xmlns:cc="http://creativecommons.org/ns#" xmlns:rdf="http://www.w3.org/1999/02/22-rdf-syntax-ns#">
   <cc:Work>
    <dc:type rdf:resource="http://purl.org/dc/dcmitype/StillImage"/>
    <dc:date>2026-01-07T02:07:17.185219</dc:date>
    <dc:format>image/svg+xml</dc:format>
    <dc:creator>
     <cc:Agent>
      <dc:title>Matplotlib v3.10.1, https://matplotlib.org/</dc:title>
     </cc:Agent>
    </dc:creator>
   </cc:Work>
  </rdf:RDF>
 </metadata>
 <defs>
  <style type="text/css">*{stroke-linejoin: round; stroke-linecap: butt}</style>
 </defs>
 <g id="figure_1">
  <g id="patch_1">
   <path d="M 0 345.6 
L 803.715535 345.6 
L 803.715535 0 
L 0 0 
z
" style="fill: #ffffff"/>
  </g>
  <g id="axes_1">
   <g id="patch_2">
    <path d="M 0 345.6 
L 803.715535 345.6 
L 803.715535 0 
L 0 0 
z
" style="fill: #212830"/>
   </g>
   <g id="patch_3">
    <path d="M 36.532524 329.890909 
L 767.18301 194.128803 
L 767.18301 194.128803 
L 765.564397 193.583059 
L 735.903228 183.725054 
L 706.396542 174.079816 
L 677.022392 164.652424 
L 647.769627 155.446424 
L 618.626346 146.469798 
L 589.569123 137.727171 
L 560.574781 129.216636 
L 531.631382 120.937241 
L 502.730005 112.8925 
L 473.85372 105.084379 
L 444.98481 97.510975 
L 416.116666 90.168785 
L 387.247591 83.060113 
L 358.368244 76.188279 
L 329.46616 69.550919 
L 300.538376 63.144721 
L 271.588847 56.971477 
L 242.613511 51.034335 
L 213.605438 45.332488 
L 184.561746 39.863142 
L 155.489194 34.626245 
L 126.389522 29.625666 
L 97.257096 24.862124 
L 68.091524 20.332433 
L 38.899984 16.037699 
L 36.532525 15.709091 
L 36.532524 329.890909 
" clip-path="url(#pcfacc3c64d)" style="fill: none; stroke: #ff0000; stroke-width: 0.72; stroke-linejoin: miter"/>
   </g>
   <g id="patch_4">
    <path d="M 633.418676 291.27727 
L 633.418676 309.702867 
L 651.844272 309.702867 
L 651.844272 291.27727 
L 651.844272 328.128464 
" clip-path="url(#pcfacc3c64d)" style="fill: none; stroke: #ff0000; stroke-width: 0.72; stroke-linejoin: miter"/>
   </g>
   <g id="patch_5">
    <path d="M 661.057071 291.27727 
L 661.057071 309.702867 
L 679.482667 309.702867 
L 679.482667 291.27727 
L 679.482667 328.128464 
" clip-path="url(#pcfacc3c64d)" style="fill: none; stroke: #ff0000; stroke-width: 0.72; stroke-linejoin: miter"/>
   </g>
   <g id="patch_6">
    <path d="M 483.541042 122.97376 
L 469.311567 119.126202 
L 473.159124 104.896727 
L 487.3886 108.744284 
L 483.541042 122.97376 
" clip-path="url(#pcfacc3c64d)" style="fill: none; stroke: #ff0000; stroke-width: 0.72; stroke-linejoin: miter"/>
   </g>
   <g id="patch_7">
    <path d="M 294.415037 163.577835 
L 312.840634 182.003431 
L 294.415037 200.429028 
L 275.98944 182.003431 
L 294.415037 163.577835 
" clip-path="url(#pcfacc3c64d)" style="fill: none; stroke: #ff0000; stroke-width: 0.72; stroke-linejoin: miter"/>
   </g>
   <g id="line2d_1">
    <path d="M 36.532525 182.003431 
L 730.636444 182.003431 
" clip-path="url(#pcfacc3c64d)" style="fill: none; stroke: #ffffff; stroke-width: 0.72; stroke-linecap: square"/>
   </g>
   <g id="line2d_2">
    <path d="M 272.304321 182.003431 
L 316.525753 182.003431 
" clip-path="url(#pcfacc3c64d)" style="fill: none; stroke: #ffffff; stroke-width: 0.72; stroke-linecap: square"/>
   </g>
  </g>
 </g>
 <defs>
  <clipPath id="pcfacc3c64d">
   <rect x="0" y="0" width="803.715535" height="345.6"/>
  </clipPath>
 </defs>
</svg>
