<?xml version="1.0" encoding="utf-8" standalone="no"?>
<!DOCTYPE svg PUBLIC "-//W3C//DTD SVG 1.1//EN"
  "http://www.w3.org/Graphics/SVG/1.1/DTD/svg11.dtd">
<svg xmlns:xlink="http://www.w3.org/1999/xlink" width="1152pt" height="321.029965pt" viewBox="0 0 1152 321.029965" xmlns="http://www.w3.org/2000/svg" version="1.1">
 <metadata>
  <rdf:RDF xmlns:dc="http://purl.org/dc/elements/1.1/" xmlns:cc="http://creativecommons.org/ns#" xmlns:rdf="http://www.w3.org/1999/02/22-rdf-syntax-ns#">
   <cc:Work>
    <dc:type rdf:resource="http://purl.org/dc/dcmitype/StillImage"/>
    <dc:date>2026-01-07T02:07:18.025117</dc:date>
    <dc:format>image/svg+xml</dc:format>
    <dc:creator>
     <cc:Agent>
      <dc:title>Matplotlib v3.10.1, https://matplotlib.org/</dc:title>
     </cc:Agent>
    </dc:creator>
   </cc:Work>
  </rdf:RDF>
 </metadata>
 <defs>
  <style type="text/css">*{stroke-linejoin: round; stroke-linecap: butt}</style>
 </defs>
 <g id="figure_1">
  <g id="patch_1">
   <path d="M 0 321.029965 
L 1152 321.029965 
L 1152 0 
L 0 0 
z
" style="fill: #ffffff"/>
  </g>
  <g id="axes_1">
   <g id="patch_2">
    <path d="M 0 321.029965 
L 1152 321.029965 
L 1152 0 
L 0 0 
z
" style="fill: #212830"/>
   </g>
   <g id="patch_3">
    <path d="M 1099.636364 40.951554 
L 1080.395726 38.280911 
L 1059.450251 35.550474 
L 1038.467322 32.988612 
L 1017.451104 30.590624 
L 996.411172 28.357149 
L 975.349954 26.291043 
L 954.264703 24.391906 
L 933.161028 22.655515 
L 912.053749 21.081991 
L 890.952214 19.675902 
L 869.856419 18.439973 
L 848.770215 17.371519 
L 827.707388 16.470982 
L 806.678582 15.742581 
L 785.683483 15.191151 
L 764.723434 14.815095 
L 743.811276 14.613914 
L 722.958178 14.592271 
L 702.165899 14.755365 
L 681.434988 15.103023 
L 660.778575 15.634301 
L 640.210365 16.353572 
L 619.732497 17.267153 
L 599.348258 18.375045 
L 579.072249 19.676107 
L 558.920737 21.175287 
L 538.897016 22.879269 
L 519.007878 24.786731 
L 499.273552 26.896782 
L 479.709653 29.215902 
L 460.321925 31.748651 
L 441.124987 34.491701 
L 422.143298 37.445534 
L 403.392479 40.615035 
L 384.885996 43.99669 
L 366.662468 47.576602 
L 348.768084 51.35262 
L 331.230684 55.327102 
L 314.081378 59.485739 
L 297.376255 63.808125 
L 281.165193 68.287179 
L 265.482784 72.909145 
L 250.376934 77.640532 
L 235.906381 82.451599 
L 222.11053 87.324053 
L 209.015357 92.225734 
L 196.651268 97.115737 
L 185.038579 101.967537 
L 174.173438 106.762314 
L 164.040716 111.472787 
L 154.62363 116.074396 
L 145.896025 120.558533 
L 137.818553 124.925053 
L 130.34576 129.169604 
L 123.436003 133.284913 
L 117.05127 137.271997 
L 111.152061 141.139862 
L 105.698844 144.897637 
L 100.653794 148.55118 
L 95.986153 152.10247 
L 91.670743 155.558258 
L 87.684101 158.930955 
L 83.997316 162.23752 
L 80.578648 165.483865 
L 74.428984 171.776421 
L 69.100432 177.725554 
L 66.746972 180.56871 
L 64.607423 183.344597 
L 62.679525 186.076575 
L 60.950645 188.787541 
L 59.403641 191.483714 
L 58.020094 194.161468 
L 56.787823 196.803614 
L 55.701722 199.396737 
L 54.76379 201.929276 
L 53.97929 204.400088 
L 53.352256 206.817069 
L 52.882868 209.188626 
L 52.566897 211.521608 
L 52.387621 214.033445 
L 52.363636 216.113629 
L 52.477049 218.421253 
L 52.750471 220.717122 
L 53.203673 222.991088 
L 53.862068 225.246281 
L 54.748158 227.489757 
L 55.871301 229.722325 
L 57.225215 231.936619 
L 58.794438 234.118747 
L 60.568297 236.255539 
L 62.545695 238.336771 
L 64.736528 240.358255 
L 67.150904 242.320194 
L 69.795267 244.227219 
L 72.666765 246.085134 
L 75.76285 247.900251 
L 79.080933 249.675625 
L 82.630831 251.412476 
L 86.427101 253.111254 
L 90.49364 254.774089 
L 94.854065 256.407506 
L 99.531935 258.021473 
L 104.553029 259.62695 
L 115.742277 262.846463 
L 121.991473 264.468131 
L 128.746333 266.101112 
L 136.065273 267.750383 
L 144.012349 269.420755 
L 152.655497 271.114116 
L 162.071278 272.82737 
L 172.342138 274.555296 
L 183.547265 276.295571 
L 195.752899 278.044224 
L 209.009212 279.788045 
L 223.34934 281.508071 
L 238.780015 283.189807 
L 255.265095 284.821117 
L 272.736398 286.380808 
L 291.115609 287.851025 
L 310.304976 289.226642 
L 330.190665 290.500286 
L 350.680357 291.663236 
L 371.695372 292.719813 
L 393.155684 293.674936 
L 437.266391 295.28977 
L 462.227512 296.081894 
L 462.144416 298.806839 
L 505.329138 300.063815 
L 551.279625 301.054908 
L 668.525835 302.985531 
L 715.603806 303.524172 
L 905.949335 305.186477 
L 1000.809801 305.846783 
L 1099.636364 306.437694 
L 1099.636364 40.951554 
L 1099.636364 40.951554 
" clip-path="url(#p7d8ce3019c)" style="fill: none; stroke: #ff0000; stroke-width: 0.72; stroke-linejoin: miter"/>
   </g>
   <g id="patch_4">
    <path d="M 639.299227 237.241452 
L 639.299227 250.872508 
L 652.930283 250.872508 
L 652.930283 237.241452 
L 652.930283 264.503565 
" clip-path="url(#p7d8ce3019c)" style="fill: none; stroke: #ff0000; stroke-width: 0.72; stroke-linejoin: miter"/>
   </g>
   <g id="patch_5">
    <path d="M 659.745812 250.872508 
L 659.745812 237.241452 
L 673.376868 237.241452 
L 673.376868 264.503565 
" clip-path="url(#p7d8ce3019c)" style="fill: none; stroke: #ff0000; stroke-width: 0.72; stroke-linejoin: miter"/>
   </g>
   <g id="patch_6">
    <path d="M 633.472266 27.569939 
L 622.578261 28.056057 
L 622.092143 17.162052 
L 632.986148 16.675934 
L 633.472266 27.569939 
" clip-path="url(#p7d8ce3019c)" style="fill: none; stroke: #ff0000; stroke-width: 0.72; stroke-linejoin: miter"/>
   </g>
   <g id="patch_7">
    <path d="M 276.821912 80.936124 
L 266.362006 84.019306 
L 263.278823 73.5594 
L 273.73873 70.476218 
L 276.821912 80.936124 
" clip-path="url(#p7d8ce3019c)" style="fill: none; stroke: #ff0000; stroke-width: 0.72; stroke-linejoin: miter"/>
   </g>
   <g id="patch_8">
    <path d="M 97.255716 168.656376 
L 93.197864 172.298182 
L 84.093349 162.153553 
L 88.151201 158.511747 
L 97.255716 168.656376 
" clip-path="url(#p7d8ce3019c)" style="fill: none; stroke: #ff0000; stroke-width: 0.72; stroke-linejoin: miter"/>
   </g>
   <g id="patch_9">
    <path d="M 75.244731 231.350939 
L 79.672123 234.533251 
L 71.716342 245.601731 
L 67.28895 242.419418 
L 75.244731 231.350939 
" clip-path="url(#p7d8ce3019c)" style="fill: none; stroke: #ff0000; stroke-width: 0.72; stroke-linejoin: miter"/>
   </g>
   <g id="patch_10">
    <path d="M 352.833546 280.852868 
L 363.724637 281.400407 
L 363.177098 292.291497 
L 352.286008 291.743959 
L 352.833546 280.852868 
" clip-path="url(#p7d8ce3019c)" style="fill: none; stroke: #ff0000; stroke-width: 0.72; stroke-linejoin: miter"/>
   </g>
   <g id="patch_11">
    <path d="M 955.603244 159.881488 
L 955.508705 155.10514 
L 955.225256 150.337228 
L 954.753396 145.586171 
L 954.09396 140.860361 
L 953.248112 136.168145 
L 952.217345 131.517808 
L 951.003481 126.917564 
L 949.608663 122.375538 
L 948.035354 117.89975 
L 946.286333 113.498106 
L 944.364689 109.17838 
L 942.273815 104.9482 
L 940.017405 100.815037 
L 937.599444 96.786191 
L 935.024201 92.868777 
L 932.296225 89.069713 
L 929.420334 85.39571 
L 926.401607 81.853256 
L 923.245374 78.448606 
L 919.957212 75.187775 
L 916.542925 72.076521 
L 913.008546 69.120338 
L 909.360315 66.324448 
L 905.604675 63.693788 
L 901.74826 61.233004 
L 897.79788 58.946443 
L 893.760513 56.838143 
L 889.643287 54.911827 
L 885.453476 53.170896 
L 881.198477 51.618427 
L 876.885807 50.25716 
L 872.523082 49.0895 
L 868.118006 48.117508 
L 863.67836 47.342902 
L 859.211983 46.76705 
L 854.726765 46.390968 
L 850.230627 46.215321 
L 845.731509 46.240419 
L 841.237356 46.466218 
L 836.756107 46.892318 
L 832.295676 47.517968 
L 827.863939 48.342062 
L 823.468724 49.363145 
L 819.117793 50.579414 
L 814.818831 51.98872 
L 810.579429 53.588575 
L 806.407075 55.376153 
L 802.309138 57.348297 
L 798.292854 59.501524 
L 794.365318 61.832032 
L 790.533465 64.335703 
L 786.804063 67.008118 
L 783.183698 69.844555 
L 779.678765 72.840006 
L 776.295453 75.98918 
L 773.039737 79.286516 
L 769.917368 82.72619 
L 766.933859 86.302128 
L 764.094481 90.008013 
L 761.404247 93.837301 
L 758.867909 97.78323 
L 756.489946 101.83883 
L 754.274558 105.996938 
L 752.225657 110.250212 
L 750.346863 114.591139 
L 748.641492 119.012053 
L 747.112558 123.505146 
L 745.762759 128.062483 
L 744.594481 132.676015 
L 743.609786 137.337595 
L 742.810413 142.03899 
L 742.197775 146.771895 
L 741.772953 151.527954 
L 741.536697 156.298766 
L 741.489425 161.075905 
L 741.63122 165.850935 
L 741.961832 170.615422 
L 742.480677 175.360952 
L 743.186838 180.079144 
L 744.079069 184.761665 
L 745.155793 189.400245 
L 746.41511 193.986692 
L 747.854794 198.512907 
L 749.472304 202.970894 
L 751.264782 207.352782 
L 753.229064 211.650832 
L 755.361679 215.857451 
L 757.658861 219.965212 
L 760.116555 223.96686 
L 762.730418 227.855327 
L 765.495835 231.623746 
L 768.407921 235.265461 
L 771.461534 238.774042 
L 774.651281 242.143291 
L 777.971528 245.367257 
L 781.416411 248.440249 
L 784.979847 251.356837 
L 788.655542 254.111871 
L 792.437004 256.700486 
L 796.317555 259.118109 
L 800.290342 261.360471 
L 804.348349 263.423612 
L 808.484407 265.303888 
L 812.691214 266.997979 
L 816.961339 268.502892 
L 821.287241 269.815969 
L 825.661279 270.934892 
L 830.07573 271.857684 
L 834.522796 272.582716 
L 838.994624 273.108707 
L 843.483315 273.434729 
L 847.980944 273.560205 
L 852.479565 273.484914 
L 856.971235 273.208989 
L 861.448021 272.732916 
L 865.902015 272.057538 
L 870.325353 271.184047 
L 874.710222 270.113985 
L 879.048878 268.849242 
L 883.333658 267.392052 
L 887.556995 265.744988 
L 891.711431 263.91096 
L 895.789628 261.893206 
L 899.784384 259.69529 
L 903.688643 257.321094 
L 907.495511 254.77481 
L 911.198263 252.060936 
L 914.790362 249.184264 
L 918.265462 246.149876 
L 921.617427 242.963129 
L 924.840336 239.629653 
L 927.928497 236.155334 
L 930.876457 232.546308 
L 933.67901 228.80895 
L 936.331205 224.949859 
L 938.828358 220.975852 
L 941.16606 216.893946 
L 943.340182 212.711351 
L 945.346884 208.435454 
L 947.182621 204.073806 
L 948.844153 199.63411 
L 950.328545 195.124207 
L 951.633174 190.552062 
L 952.755737 185.925751 
L 953.694252 181.253442 
L 954.44706 176.543389 
L 955.012833 171.80391 
L 955.390571 167.043374 
L 955.579607 162.27019 
L 955.603244 159.881488 
L 955.603244 159.881488 
" clip-path="url(#p7d8ce3019c)" style="fill: none; stroke: #ff0000; stroke-width: 0.72; stroke-linejoin: miter"/>
   </g>
   <g id="patch_12">
    <path d="M 399.166588 146.250432 
L 412.797644 159.881488 
L 399.166588 173.512545 
L 385.535531 159.881488 
L 399.166588 146.250432 
" clip-path="url(#p7d8ce3019c)" style="fill: none; stroke: #ff0000; stroke-width: 0.72; stroke-linejoin: miter"/>
   </g>
   <g id="patch_13">
    <path d="M 841.399509 146.250432 
L 855.030566 159.881488 
L 841.399509 173.512545 
L 827.768453 159.881488 
L 841.399509 146.250432 
" clip-path="url(#p7d8ce3019c)" style="fill: none; stroke: #ff0000; stroke-width: 0.72; stroke-linejoin: miter"/>
   </g>
   <g id="patch_14">
    <path d="M 480.39379 225.878311 
L 493.121846 240.356156 
L 478.644 253.084212 
L 465.915945 238.606366 
L 480.39379 225.878311 
" clip-path="url(#p7d8ce3019c)" style="fill: none; stroke: #ff0000; stroke-width: 0.72; stroke-linejoin: miter"/>
   </g>
   <g id="patch_15">
    <path d="M 992.023359 258.784576 
L 1004.751414 273.262421 
L 990.273568 285.990476 
L 977.545513 271.512631 
L 992.023359 258.784576 
" clip-path="url(#p7d8ce3019c)" style="fill: none; stroke: #ff0000; stroke-width: 0.72; stroke-linejoin: miter"/>
   </g>
   <g id="patch_16">
    <path d="M 425.980627 198.825333 
L 439.611684 185.194276 
L 453.24274 198.825333 
L 439.611684 212.456389 
L 425.980627 198.825333 
" clip-path="url(#p7d8ce3019c)" style="fill: none; stroke: #ff0000; stroke-width: 0.72; stroke-linejoin: miter"/>
   </g>
   <g id="patch_17">
    <path d="M 425.980627 131.266364 
L 439.611684 117.635308 
L 453.24274 131.266364 
L 439.611684 144.897421 
L 425.980627 131.266364 
" clip-path="url(#p7d8ce3019c)" style="fill: none; stroke: #ff0000; stroke-width: 0.72; stroke-linejoin: miter"/>
   </g>
   <g id="line2d_1">
    <path d="M 86.624267 159.881488 
L 1099.636364 159.881488 
" clip-path="url(#p7d8ce3019c)" style="fill: none; stroke: #ffffff; stroke-width: 0.72; stroke-linecap: square"/>
   </g>
   <g id="line2d_2">
    <path d="M 382.80932 159.881488 
L 415.523856 159.881488 
" clip-path="url(#p7d8ce3019c)" style="fill: none; stroke: #ffffff; stroke-width: 0.72; stroke-linecap: square"/>
   </g>
   <g id="line2d_3">
    <path d="M 825.042241 159.881488 
L 857.756777 159.881488 
" clip-path="url(#p7d8ce3019c)" style="fill: none; stroke: #ffffff; stroke-width: 0.72; stroke-linecap: square"/>
   </g>
   <g id="line2d_4">
    <path d="M 52.531405 212.018885 
L 1099.636364 279.365097 
" clip-path="url(#p7d8ce3019c)" style="fill: none; stroke: #ffffff; stroke-width: 0.72; stroke-linecap: square"/>
   </g>
   <g id="line2d_5">
    <path d="M 463.195355 238.431387 
L 495.842436 240.531135 
" clip-path="url(#p7d8ce3019c)" style="fill: none; stroke: #ffffff; stroke-width: 0.72; stroke-linecap: square"/>
   </g>
   <g id="line2d_6">
    <path d="M 974.824923 271.337652 
L 1007.472004 273.4374 
" clip-path="url(#p7d8ce3019c)" style="fill: none; stroke: #ffffff; stroke-width: 0.72; stroke-linecap: square"/>
   </g>
   <g id="line2d_7">
    <path d="M 848.54338 46.201203 
L 848.54338 43.474992 
" clip-path="url(#p7d8ce3019c)" style="fill: none; stroke: #ff0000; stroke-width: 0.72; stroke-linecap: square"/>
   </g>
   <g id="line2d_8">
    <path d="M 848.54338 273.561774 
L 848.54338 276.287985 
" clip-path="url(#p7d8ce3019c)" style="fill: none; stroke: #ff0000; stroke-width: 0.72; stroke-linecap: square"/>
   </g>
   <g id="line2d_9">
    <path d="M 955.603244 159.881488 
L 958.329455 159.881488 
" clip-path="url(#p7d8ce3019c)" style="fill: none; stroke: #ff0000; stroke-width: 0.72; stroke-linecap: square"/>
   </g>
   <g id="line2d_10">
    <path d="M 741.483516 159.881488 
L 738.757304 159.881488 
" clip-path="url(#p7d8ce3019c)" style="fill: none; stroke: #ff0000; stroke-width: 0.72; stroke-linecap: square"/>
   </g>
   <g id="line2d_11">
    <path d="M 439.611684 295.364503 
L 439.611684 34.727194 
" clip-path="url(#p7d8ce3019c)" style="fill: none; stroke: #ffffff; stroke-width: 0.72; stroke-linecap: square"/>
   </g>
   <g id="line2d_12">
    <path d="M 439.611684 215.182601 
L 439.611684 182.468065 
" clip-path="url(#p7d8ce3019c)" style="fill: none; stroke: #ffffff; stroke-width: 0.72; stroke-linecap: square"/>
   </g>
   <g id="line2d_13">
    <path d="M 439.611684 147.623632 
L 439.611684 114.909096 
" clip-path="url(#p7d8ce3019c)" style="fill: none; stroke: #ffffff; stroke-width: 0.72; stroke-linecap: square"/>
   </g>
  </g>
 </g>
 <defs>
  <clipPath id="p7d8ce3019c">
   <rect x="0" y="0" width="1152" height="321.029965"/>
  </clipPath>
 </defs>
</svg>
