<?xml version="1.0" encoding="utf-8" standalone="no"?>
<!DOCTYPE svg PUBLIC "-//W3C//DTD SVG 1.1//EN"
  "http://www.w3.org/Graphics/SVG/1.1/DTD/svg11.dtd">
<svg xmlns:xlink="http://www.w3.org/1999/xlink" width="1152pt" height="321.199977pt" viewBox="0 0 1152 321.199977" xmlns="http://www.w3.org/2000/svg" version="1.1">
 <metadata>
  <rdf:RDF xmlns:dc="http://purl.org/dc/elements/1.1/" xmlns:cc="http://creativecommons.org/ns#" xmlns:rdf="http://www.w3.org/1999/02/22-rdf-syntax-ns#">
   <cc:Work>
    <dc:type rdf:resource="http://purl.org/dc/dcmitype/StillImage"/>
    <dc:date>2026-01-07T02:07:15.925820</dc:date>
    <dc:format>image/svg+xml</dc:format>
    <dc:creator>
     <cc:Agent>
      <dc:title>Matplotlib v3.10.1, https://matplotlib.org/</dc:title>
     </cc:Agent>
    </dc:creator>
   </cc:Work>
  </rdf:RDF>
 </metadata>
 <defs>
  <style type="text/css">*{stroke-linejoin: round; stroke-linecap: butt}</style>
 </defs>
 <g id="figure_1">
  <g id="patch_1">
   <path d="M 0 321.199977 
L 1152 321.199977 
L 1152 0 
L 0 0 
z
" style="fill: #ffffff"/>
  </g>
  <g id="axes_1">
   <g id="patch_2">
    <path d="M 0 321.199977 
L 1152 321.199977 
L 1152 0 
L 0 0 
z
" style="fill: #212830"/>
   </g>
   <g id="patch_3">
    <path d="M 1099.636363 265.954439 
L 1099.636364 40.949051 
L 1080.439183 38.28445 
L 1059.497211 35.554479 
L 1038.517868 32.993064 
L 1017.505252 30.595496 
L 996.468891 28.36241 
L 975.411253 26.296665 
L 954.329653 24.397866 
L 933.229647 22.661785 
L 912.12598 21.088539 
L 891.028014 19.682697 
L 869.93582 18.446989 
L 848.853213 17.378726 
L 827.793914 16.478349 
L 806.76855 15.750078 
L 785.776895 15.198749 
L 764.820281 14.822765 
L 743.911467 14.621627 
L 723.061608 14.599999 
L 702.272539 14.763079 
L 681.544814 15.110696 
L 660.89148 15.641908 
L 640.326211 16.361089 
L 619.851236 17.274554 
L 599.469843 18.382306 
L 579.196536 19.683211 
L 559.04756 21.182218 
L 539.026317 22.886006 
L 519.139567 24.793257 
L 499.407425 26.903094 
L 479.845538 29.221996 
L 460.459744 31.754514 
L 441.26457 34.497336 
L 422.28441 37.450957 
L 403.535002 40.620245 
L 385.029885 44.001677 
L 366.807434 47.581406 
L 348.913789 51.357302 
L 331.377001 55.33168 
L 314.228141 59.490244 
L 297.523049 63.812664 
L 281.311714 68.291837 
L 265.628938 72.913956 
L 250.522441 77.645592 
L 236.050788 82.457079 
L 222.253647 87.330042 
L 209.157078 92.2323 
L 196.791239 97.123054 
L 185.176443 101.975797 
L 174.309106 106.771606 
L 164.174079 111.483211 
L 154.754345 116.086181 
L 146.023728 120.571939 
L 137.943122 124.940228 
L 130.46718 129.18664 
L 123.554066 133.304025 
L 117.165634 137.293504 
L 111.262452 141.16407 
L 105.805136 144.924768 
L 100.755911 148.581439 
L 96.083807 152.136242 
L 91.763473 155.596112 
L 87.771532 158.973457 
L 84.079632 162.284772 
L 80.65641 165.535585 
L 74.499554 171.835704 
L 69.162803 177.794314 
L 66.803551 180.644762 
L 64.657201 183.429929 
L 62.722171 186.172606 
L 60.986677 188.894574 
L 59.433943 191.601336 
L 58.045538 194.289047 
L 56.808868 196.941212 
L 55.718513 199.545219 
L 54.776295 202.090372 
L 53.987641 204.57581 
L 53.356982 207.00898 
L 52.884841 209.397537 
L 52.567164 211.747509 
L 52.3878 214.260693 
L 52.363636 216.374937 
L 52.47886 218.702611 
L 52.756017 221.020896 
L 53.215422 223.319281 
L 53.882537 225.599254 
L 54.779196 227.865864 
L 55.913791 230.118729 
L 57.279442 232.350492 
L 58.860713 234.548047 
L 60.647166 236.698883 
L 62.637754 238.792999 
L 64.841865 240.825892 
L 67.26891 242.797462 
L 69.924714 244.712255 
L 72.806374 246.576391 
L 75.911561 248.396577 
L 79.238194 250.176298 
L 82.796211 251.916923 
L 86.60021 253.618985 
L 90.673731 255.284531 
L 95.040164 256.920089 
L 99.723063 258.535709 
L 104.748324 260.142457 
L 115.944551 263.363885 
L 122.196757 264.986292 
L 128.954178 266.619854 
L 136.275223 268.269568 
L 144.224019 269.940273 
L 152.868641 271.633896 
L 162.285637 273.347344 
L 172.557273 275.075377 
L 183.762684 276.815675 
L 195.968246 278.564298 
L 209.224173 280.308049 
L 223.563438 282.027954 
L 238.992686 283.70952 
L 255.475952 285.340637 
L 272.945053 286.900119 
L 291.321528 288.370106 
L 310.507742 289.745488 
L 330.389983 291.018904 
L 350.875822 292.18163 
L 371.886631 293.23799 
L 393.342558 294.192913 
L 437.442955 295.807367 
L 462.397472 296.599282 
L 462.281837 300.391275 
L 505.463778 301.648152 
L 551.410292 302.639148 
L 668.629636 304.569319 
L 715.699041 305.107859 
L 881.11777 306.599978 
L 1099.636363 265.954439 
L 1099.636363 265.954439 
" clip-path="url(#p7ebf0d3daf)" style="fill: none; stroke: #ff0000; stroke-width: 0.72; stroke-linejoin: miter"/>
   </g>
   <g id="patch_4">
    <path d="M 639.428453 239.443834 
L 639.428453 252.089687 
L 652.074307 252.089687 
L 652.074307 239.443834 
L 652.074307 264.735541 
" clip-path="url(#p7ebf0d3daf)" style="fill: none; stroke: #ff0000; stroke-width: 0.72; stroke-linejoin: miter"/>
   </g>
   <g id="patch_5">
    <path d="M 663.455575 239.443834 
L 658.397234 239.443834 
L 658.397234 264.735541 
L 663.455575 264.735541 
" clip-path="url(#p7ebf0d3daf)" style="fill: none; stroke: #ff0000; stroke-width: 0.72; stroke-linejoin: miter"/>
   </g>
   <g id="patch_6">
    <path d="M 665.984746 264.735541 
L 671.043088 264.735541 
L 671.043088 239.443834 
L 665.984746 239.443834 
" clip-path="url(#p7ebf0d3daf)" style="fill: none; stroke: #ff0000; stroke-width: 0.72; stroke-linejoin: miter"/>
   </g>
   <g id="patch_7">
    <path d="M 633.162845 26.807486 
L 623.056219 27.258469 
L 622.605235 17.151843 
L 632.711861 16.70086 
L 633.162845 26.807486 
" clip-path="url(#p7ebf0d3daf)" style="fill: none; stroke: #ff0000; stroke-width: 0.72; stroke-linejoin: miter"/>
   </g>
   <g id="patch_8">
    <path d="M 276.371143 80.295152 
L 266.66724 83.155493 
L 263.806899 73.45159 
L 273.510802 70.591249 
L 276.371143 80.295152 
" clip-path="url(#p7ebf0d3daf)" style="fill: none; stroke: #ff0000; stroke-width: 0.72; stroke-linejoin: miter"/>
   </g>
   <g id="patch_9">
    <path d="M 96.538901 168.096876 
L 92.774336 171.475466 
L 84.327861 162.064053 
L 88.092426 158.685464 
L 96.538901 168.096876 
" clip-path="url(#p7ebf0d3daf)" style="fill: none; stroke: #ff0000; stroke-width: 0.72; stroke-linejoin: miter"/>
   </g>
   <g id="patch_10">
    <path d="M 74.94706 232.742724 
L 79.054456 235.695031 
L 71.67369 245.963522 
L 67.566293 243.011215 
L 74.94706 232.742724 
" clip-path="url(#p7ebf0d3daf)" style="fill: none; stroke: #ff0000; stroke-width: 0.72; stroke-linejoin: miter"/>
   </g>
   <g id="patch_11">
    <path d="M 353.381042 282.178117 
L 363.484964 282.686082 
L 362.977 292.790004 
L 352.873077 292.28204 
L 353.381042 282.178117 
" clip-path="url(#p7ebf0d3daf)" style="fill: none; stroke: #ff0000; stroke-width: 0.72; stroke-linejoin: miter"/>
   </g>
   <g id="patch_12">
    <path d="M 959.356549 160.142834 
L 959.258758 155.204024 
L 958.965558 150.273935 
L 958.477467 145.361276 
L 957.795346 140.474723 
L 956.920401 135.622905 
L 955.854176 130.814392 
L 954.598556 126.057676 
L 953.155756 121.361157 
L 951.528326 116.73313 
L 949.719139 112.181769 
L 947.731391 107.715111 
L 945.568593 103.341046 
L 943.234563 99.067297 
L 940.733425 94.901414 
L 938.069595 90.850753 
L 935.247777 86.922469 
L 932.272957 83.123498 
L 929.150386 79.460551 
L 925.885581 75.940096 
L 922.484307 72.56835 
L 918.95257 69.35127 
L 915.296609 66.294536 
L 911.52288 63.403546 
L 907.638048 60.683407 
L 903.648974 58.138923 
L 899.562703 55.774586 
L 895.386451 53.594574 
L 891.127595 51.602736 
L 886.793656 49.80259 
L 882.392287 48.197315 
L 877.931263 46.789746 
L 873.418461 45.582369 
L 868.861853 44.577316 
L 864.269484 43.776363 
L 859.649466 43.180924 
L 855.009958 42.79205 
L 850.359155 42.610428 
L 845.705268 42.63638 
L 841.056519 42.869859 
L 836.421117 43.310453 
L 831.807248 43.957383 
L 827.223061 44.809508 
L 822.676653 45.865322 
L 818.176052 47.122961 
L 813.729206 48.580203 
L 809.343971 50.234476 
L 805.02809 52.082856 
L 800.789185 54.122081 
L 796.634743 56.348548 
L 792.572101 58.758325 
L 788.608434 61.347157 
L 784.750742 64.110471 
L 781.005838 67.043386 
L 777.380336 70.140725 
L 773.880639 73.397015 
L 770.512928 76.806506 
L 767.283151 80.363177 
L 764.197011 84.060747 
L 761.259959 87.892684 
L 758.477182 91.852222 
L 755.853595 95.932367 
L 753.393831 100.125914 
L 751.102234 104.425456 
L 748.982852 108.8234 
L 747.039428 113.31198 
L 745.275393 117.883266 
L 743.693864 122.529187 
L 742.297633 127.241538 
L 741.089166 132.011995 
L 740.070598 136.832133 
L 739.243728 141.693441 
L 738.610015 146.587332 
L 738.170579 151.505163 
L 737.926196 156.438249 
L 737.877298 161.377878 
L 738.023971 166.315325 
L 738.365956 171.241872 
L 738.902648 176.148816 
L 739.633101 181.027492 
L 740.556025 185.869284 
L 741.669788 190.665641 
L 742.972424 195.408092 
L 744.461633 200.088261 
L 746.134784 204.697883 
L 747.988923 209.228816 
L 750.020775 213.673059 
L 752.226752 218.022763 
L 754.602956 222.270245 
L 757.145193 226.408005 
L 759.848972 230.428734 
L 762.709518 234.325332 
L 765.721779 238.090916 
L 768.880435 241.718838 
L 772.179908 245.202688 
L 775.61437 248.536315 
L 779.177756 251.713831 
L 782.863773 254.729623 
L 786.66591 257.578367 
L 790.577453 260.255031 
L 794.591494 262.754887 
L 798.700944 265.073521 
L 802.898544 267.206838 
L 807.176881 269.15107 
L 811.528401 270.902783 
L 815.945416 272.458884 
L 820.420127 273.816624 
L 824.944631 274.973606 
L 829.510937 275.927786 
L 834.11098 276.67748 
L 838.736637 277.221362 
L 843.379738 277.558473 
L 848.032083 277.688217 
L 852.685455 277.610365 
L 857.331637 277.325054 
L 861.962422 276.832789 
L 866.569633 276.134438 
L 871.145132 275.231236 
L 875.680838 274.124777 
L 880.168742 272.817015 
L 884.600917 271.31026 
L 888.969535 269.607174 
L 893.266882 267.710763 
L 897.485367 265.624377 
L 901.617541 263.351701 
L 905.656106 260.896749 
L 909.593928 258.263856 
L 913.424054 255.457672 
L 917.139719 252.483153 
L 920.734362 249.345553 
L 924.201633 246.050413 
L 927.535408 242.603552 
L 930.729802 239.011057 
L 933.77917 235.279274 
L 936.678129 231.414793 
L 939.421559 227.42444 
L 942.004613 223.31526 
L 944.422731 219.094513 
L 946.671642 214.769651 
L 948.747373 210.348313 
L 950.64626 205.838308 
L 952.364948 201.2476 
L 953.900402 196.584298 
L 955.24991 191.856637 
L 956.411089 187.072966 
L 957.381888 182.241733 
L 958.160593 177.371473 
L 958.745828 172.470785 
L 959.13656 167.548324 
L 959.332098 162.612785 
L 959.356549 160.142834 
L 959.356549 160.142834 
" clip-path="url(#p7ebf0d3daf)" style="fill: none; stroke: #ff0000; stroke-width: 0.72; stroke-linejoin: miter"/>
   </g>
   <g id="patch_13">
    <path d="M 398.434554 147.49698 
L 411.080407 160.142834 
L 398.434554 172.788688 
L 385.7887 160.142834 
L 398.434554 147.49698 
" clip-path="url(#p7ebf0d3daf)" style="fill: none; stroke: #ff0000; stroke-width: 0.72; stroke-linejoin: miter"/>
   </g>
   <g id="patch_14">
    <path d="M 841.72534 147.49698 
L 854.371193 160.142834 
L 841.72534 172.788688 
L 829.079486 160.142834 
L 841.72534 147.49698 
" clip-path="url(#p7ebf0d3daf)" style="fill: none; stroke: #ff0000; stroke-width: 0.72; stroke-linejoin: miter"/>
   </g>
   <g id="patch_15">
    <path d="M 261.710836 213.028413 
L 273.518954 226.459853 
L 260.087514 238.267972 
L 248.279396 224.836531 
L 261.710836 213.028413 
" clip-path="url(#p7ebf0d3daf)" style="fill: none; stroke: #ff0000; stroke-width: 0.72; stroke-linejoin: miter"/>
   </g>
   <g id="patch_16">
    <path d="M 501.663242 228.461332 
L 513.47136 241.892772 
L 500.03992 253.70089 
L 488.231802 240.26945 
L 501.663242 228.461332 
" clip-path="url(#p7ebf0d3daf)" style="fill: none; stroke: #ff0000; stroke-width: 0.72; stroke-linejoin: miter"/>
   </g>
   <g id="patch_17">
    <path d="M 456.5924 201.173031 
L 469.238254 188.527177 
L 481.884108 201.173031 
L 469.238254 213.818885 
L 456.5924 201.173031 
" clip-path="url(#p7ebf0d3daf)" style="fill: none; stroke: #ff0000; stroke-width: 0.72; stroke-linejoin: miter"/>
   </g>
   <g id="patch_18">
    <path d="M 456.5924 130.038087 
L 469.238254 117.392233 
L 481.884108 130.038087 
L 469.238254 142.683941 
L 456.5924 130.038087 
" clip-path="url(#p7ebf0d3daf)" style="fill: none; stroke: #ff0000; stroke-width: 0.72; stroke-linejoin: miter"/>
   </g>
   <g id="line2d_1">
    <path d="M 86.467753 160.142834 
L 1099.636364 160.142834 
" clip-path="url(#p7ebf0d3daf)" style="fill: none; stroke: #ffffff; stroke-width: 0.72; stroke-linecap: square"/>
   </g>
   <g id="line2d_2">
    <path d="M 383.259529 160.142834 
L 413.609578 160.142834 
" clip-path="url(#p7ebf0d3daf)" style="fill: none; stroke: #ffffff; stroke-width: 0.72; stroke-linecap: square"/>
   </g>
   <g id="line2d_3">
    <path d="M 826.550315 160.142834 
L 856.900364 160.142834 
" clip-path="url(#p7ebf0d3daf)" style="fill: none; stroke: #ffffff; stroke-width: 0.72; stroke-linecap: square"/>
   </g>
   <g id="line2d_4">
    <path d="M 52.531538 212.246698 
L 1045.152587 276.088691 
" clip-path="url(#p7ebf0d3daf)" style="fill: none; stroke: #ffffff; stroke-width: 0.72; stroke-linecap: square"/>
   </g>
   <g id="line2d_5">
    <path d="M 245.75544 224.674199 
L 276.04291 226.622186 
" clip-path="url(#p7ebf0d3daf)" style="fill: none; stroke: #ffffff; stroke-width: 0.72; stroke-linecap: square"/>
   </g>
   <g id="line2d_6">
    <path d="M 485.707846 240.107118 
L 515.995316 242.055104 
" clip-path="url(#p7ebf0d3daf)" style="fill: none; stroke: #ffffff; stroke-width: 0.72; stroke-linecap: square"/>
   </g>
   <g id="line2d_7">
    <path d="M 848.613867 42.59583 
L 848.613867 40.066659 
" clip-path="url(#p7ebf0d3daf)" style="fill: none; stroke: #ff0000; stroke-width: 0.72; stroke-linecap: square"/>
   </g>
   <g id="line2d_8">
    <path d="M 848.613867 277.689839 
L 848.613867 280.21901 
" clip-path="url(#p7ebf0d3daf)" style="fill: none; stroke: #ff0000; stroke-width: 0.72; stroke-linecap: square"/>
   </g>
   <g id="line2d_9">
    <path d="M 959.356549 160.142834 
L 961.88572 160.142834 
" clip-path="url(#p7ebf0d3daf)" style="fill: none; stroke: #ff0000; stroke-width: 0.72; stroke-linecap: square"/>
   </g>
   <g id="line2d_10">
    <path d="M 737.871185 160.142834 
L 735.342014 160.142834 
" clip-path="url(#p7ebf0d3daf)" style="fill: none; stroke: #ff0000; stroke-width: 0.72; stroke-linecap: square"/>
   </g>
   <g id="line2d_11">
    <path d="M 469.238254 300.603409 
L 469.238254 30.607709 
" clip-path="url(#p7ebf0d3daf)" style="fill: none; stroke: #ffffff; stroke-width: 0.72; stroke-linecap: square"/>
   </g>
   <g id="line2d_12">
    <path d="M 469.238254 216.348056 
L 469.238254 185.998006 
" clip-path="url(#p7ebf0d3daf)" style="fill: none; stroke: #ffffff; stroke-width: 0.72; stroke-linecap: square"/>
   </g>
   <g id="line2d_13">
    <path d="M 469.238254 145.213111 
L 469.238254 114.863062 
" clip-path="url(#p7ebf0d3daf)" style="fill: none; stroke: #ffffff; stroke-width: 0.72; stroke-linecap: square"/>
   </g>
  </g>
 </g>
 <defs>
  <clipPath id="p7ebf0d3daf">
   <rect x="0" y="0" width="1152" height="321.199977"/>
  </clipPath>
 </defs>
</svg>
