<?xml version="1.0" encoding="utf-8" standalone="no"?>
<!DOCTYPE svg PUBLIC "-//W3C//DTD SVG 1.1//EN"
  "http://www.w3.org/Graphics/SVG/1.1/DTD/svg11.dtd">
<svg xmlns:xlink="http://www.w3.org/1999/xlink" width="1152pt" height="321.136714pt" viewBox="0 0 1152 321.136714" xmlns="http://www.w3.org/2000/svg" version="1.1">
 <metadata>
  <rdf:RDF xmlns:dc="http://purl.org/dc/elements/1.1/" xmlns:cc="http://creativecommons.org/ns#" xmlns:rdf="http://www.w3.org/1999/02/22-rdf-syntax-ns#">
   <cc:Work>
    <dc:type rdf:resource="http://purl.org/dc/dcmitype/StillImage"/>
    <dc:date>2026-01-07T02:07:16.523167</dc:date>
    <dc:format>image/svg+xml</dc:format>
    <dc:creator>
     <cc:Agent>
      <dc:title>Matplotlib v3.10.1, https://matplotlib.org/</dc:title>
     </cc:Agent>
    </dc:creator>
   </cc:Work>
  </rdf:RDF>
 </metadata>
 <defs>
  <style type="text/css">*{stroke-linejoin: round; stroke-linecap: butt}</style>
 </defs>
 <g id="figure_1">
  <g id="patch_1">
   <path d="M 0 321.136714 
L 1152 321.136714 
L 1152 0 
L 0 0 
z
" style="fill: #ffffff"/>
  </g>
  <g id="axes_1">
   <g id="patch_2">
    <path d="M 0 321.136714 
L 1152 321.136714 
L 1152 0 
L 0 0 
z
" style="fill: #212830"/>
   </g>
   <g id="patch_3">
    <path d="M 1099.636363 265.911824 
L 1099.636364 40.948945 
L 1080.427421 38.282708 
L 1059.484501 35.552611 
L 1038.504187 32.991075 
L 1017.490597 30.593393 
L 996.45327 28.360202 
L 975.394662 26.294359 
L 954.312074 24.395469 
L 933.211075 22.659304 
L 912.10643 21.085983 
L 891.007498 19.680074 
L 869.91433 18.444306 
L 848.830749 17.375992 
L 827.770496 16.475571 
L 806.7442 15.747265 
L 785.751613 15.195909 
L 764.794069 14.819905 
L 743.88435 14.618755 
L 723.033614 14.597123 
L 702.243677 14.760207 
L 681.515089 15.107836 
L 660.860922 15.639065 
L 640.294857 16.35827 
L 619.819099 17.271767 
L 599.436936 18.379557 
L 579.162897 19.680504 
L 559.013235 21.179558 
L 538.991322 22.883399 
L 519.103925 24.790706 
L 499.371192 26.900601 
L 479.808761 29.219563 
L 460.422443 31.752143 
L 441.226791 34.495027 
L 422.246217 37.448705 
L 403.496428 40.618051 
L 384.990941 43.999543 
L 366.768198 47.579322 
L 348.874354 51.355251 
L 331.3374 55.329657 
L 314.188419 59.488241 
L 297.483318 63.810651 
L 281.272057 68.289793 
L 265.589381 72.91187 
L 250.483059 77.643438 
L 236.011704 82.454812 
L 222.214912 87.327637 
L 209.118721 92.229739 
L 196.753356 97.120289 
L 185.13913 101.972777 
L 174.272387 106.768307 
L 164.137984 111.479606 
L 154.718966 116.082208 
L 145.989165 120.567526 
L 137.909407 124.935337 
L 130.434317 129.181245 
L 123.522112 133.298069 
L 117.134681 137.286899 
L 111.232574 141.156734 
L 105.776367 144.916641 
L 100.728273 148.572465 
L 96.057376 152.126317 
L 91.738375 155.585082 
L 87.747869 158.96117 
L 84.057353 162.271199 
L 80.635364 165.520803 
L 74.480454 171.818874 
L 69.145922 177.77492 
L 66.788238 180.623395 
L 64.643729 183.40605 
L 62.710629 186.145831 
L 60.976925 188.864821 
L 59.425742 191.568717 
L 58.038652 194.253734 
L 56.803172 196.903186 
L 55.713969 199.504248 
L 54.77291 202.045987 
L 53.985381 204.527467 
L 53.355703 206.956255 
L 52.884307 209.34021 
L 52.567092 211.685584 
L 52.387752 214.198404 
L 52.363636 216.303429 
L 52.47837 218.625677 
L 52.754516 220.937895 
L 53.212242 223.22967 
L 53.876997 225.502937 
L 54.770796 227.763286 
L 55.902291 230.010657 
L 57.264765 232.237692 
L 58.842775 234.431071 
L 60.62582 236.578107 
L 62.612838 238.668736 
L 64.813356 240.69854 
L 67.236971 242.667504 
L 69.889679 244.580194 
L 72.768588 246.442647 
L 75.871312 248.261461 
L 79.195631 250.040005 
L 82.75145 251.779609 
L 86.553357 253.480782 
L 90.624989 255.145594 
L 94.989796 256.780573 
L 99.671333 258.395745 
L 104.695467 260.00215 
L 115.889805 263.223059 
L 122.141196 264.845266 
L 128.897924 266.478671 
L 136.218399 268.128265 
L 144.16673 269.79888 
L 152.810953 271.492432 
L 162.22762 273.205827 
L 172.499046 274.933832 
L 183.70438 276.674123 
L 195.909962 278.422755 
L 209.165993 280.166525 
L 223.505492 281.886462 
L 238.935126 283.568074 
L 255.418883 285.199243 
L 272.88858 286.758782 
L 291.265795 288.228831 
L 310.452862 289.604277 
L 330.336037 290.877754 
L 350.822919 292.040541 
L 371.834866 293.09696 
L 393.29198 294.051937 
L 437.395167 295.666494 
L 462.351472 296.458465 
L 462.233398 300.330416 
L 505.418621 301.587388 
L 551.368627 302.578459 
L 668.59688 304.508777 
L 715.669862 305.047358 
L 881.101163 306.539591 
L 1099.636363 265.911824 
L 1099.636363 265.911824 
" clip-path="url(#pae0c15fe82)" style="fill: none; stroke: #ff0000; stroke-width: 0.72; stroke-linejoin: miter"/>
   </g>
   <g id="patch_4">
    <path d="M 639.393478 238.846968 
L 639.393478 251.75947 
L 652.30598 251.75947 
L 652.30598 238.846968 
L 652.30598 264.671972 
" clip-path="url(#pae0c15fe82)" style="fill: none; stroke: #ff0000; stroke-width: 0.72; stroke-linejoin: miter"/>
   </g>
   <g id="patch_5">
    <path d="M 658.76223 238.846968 
L 671.674732 238.846968 
L 671.674732 251.75947 
L 658.76223 251.75947 
L 658.76223 264.671972 
L 671.674732 264.671972 
" clip-path="url(#pae0c15fe82)" style="fill: none; stroke: #ff0000; stroke-width: 0.72; stroke-linejoin: miter"/>
   </g>
   <g id="patch_6">
    <path d="M 633.24659 27.013062 
L 622.926858 27.473555 
L 622.466365 17.153822 
L 632.786098 16.69333 
L 633.24659 27.013062 
" clip-path="url(#pae0c15fe82)" style="fill: none; stroke: #ff0000; stroke-width: 0.72; stroke-linejoin: miter"/>
   </g>
   <g id="patch_7">
    <path d="M 276.493145 80.467849 
L 266.584628 83.388502 
L 263.663974 73.479985 
L 273.572491 70.559332 
L 276.493145 80.467849 
" clip-path="url(#pae0c15fe82)" style="fill: none; stroke: #ff0000; stroke-width: 0.72; stroke-linejoin: miter"/>
   </g>
   <g id="patch_8">
    <path d="M 96.732909 168.247523 
L 92.888965 171.697353 
L 84.26439 162.087493 
L 88.108334 158.637663 
L 96.732909 168.247523 
" clip-path="url(#pae0c15fe82)" style="fill: none; stroke: #ff0000; stroke-width: 0.72; stroke-linejoin: miter"/>
   </g>
   <g id="patch_9">
    <path d="M 75.027626 232.365249 
L 79.22163 235.379808 
L 71.685234 245.864818 
L 67.49123 242.850259 
L 75.027626 232.365249 
" clip-path="url(#pae0c15fe82)" style="fill: none; stroke: #ff0000; stroke-width: 0.72; stroke-linejoin: miter"/>
   </g>
   <g id="patch_10">
    <path d="M 353.232861 281.818651 
L 363.549832 282.337326 
L 363.031157 292.654298 
L 352.714185 292.135622 
L 353.232861 281.818651 
" clip-path="url(#pae0c15fe82)" style="fill: none; stroke: #ff0000; stroke-width: 0.72; stroke-linejoin: miter"/>
   </g>
   <g id="patch_11">
    <path d="M 958.340706 160.071316 
L 958.243795 155.176476 
L 957.953234 150.290281 
L 957.469536 145.421361 
L 956.793555 140.578313 
L 955.926485 135.769692 
L 954.869857 131.00399 
L 953.625538 126.289623 
L 952.195725 121.634918 
L 950.582943 117.048095 
L 948.79004 112.537255 
L 946.820183 108.110365 
L 944.676851 103.775243 
L 942.36383 99.539544 
L 939.885203 95.41075 
L 937.24535 91.396153 
L 934.448931 87.502843 
L 931.500886 83.737695 
L 928.406421 80.107359 
L 925.171001 76.618248 
L 921.800341 73.276521 
L 918.300393 70.088083 
L 914.677338 67.058563 
L 910.937576 64.193313 
L 907.08771 61.497392 
L 903.13454 58.975561 
L 899.085049 56.632275 
L 894.946386 54.471672 
L 890.725863 52.497567 
L 886.430932 50.713448 
L 882.069179 49.122465 
L 877.648307 47.727428 
L 873.176124 46.5308 
L 868.660528 45.534696 
L 864.109494 44.740873 
L 859.53106 44.150735 
L 854.933311 43.765324 
L 850.324368 43.585319 
L 845.71237 43.61104 
L 841.105463 43.84244 
L 836.511783 44.279111 
L 831.939442 44.920282 
L 827.396517 45.76482 
L 822.891029 46.811235 
L 818.430937 48.057676 
L 814.024116 49.501945 
L 809.678351 51.141489 
L 805.401316 52.973413 
L 801.200565 54.994482 
L 797.083516 57.201126 
L 793.05744 59.589449 
L 789.129449 62.155232 
L 785.306479 64.893943 
L 781.595282 67.800747 
L 778.002413 70.870509 
L 774.534216 74.097808 
L 771.196817 77.476944 
L 767.99611 81.00195 
L 764.937747 84.666599 
L 762.027131 88.46442 
L 759.269401 92.388705 
L 756.669428 96.432524 
L 754.231804 100.588736 
L 751.960833 104.849998 
L 749.860527 109.208787 
L 747.934595 113.657404 
L 746.186438 118.187992 
L 744.619143 122.792549 
L 743.23548 127.462945 
L 742.03789 132.19093 
L 741.02849 136.968154 
L 740.209062 141.786181 
L 739.581053 146.636501 
L 739.145572 151.510547 
L 738.903389 156.399713 
L 738.854931 161.295364 
L 739.000284 166.188853 
L 739.33919 171.071537 
L 739.871053 175.934794 
L 740.594931 180.770035 
L 741.509547 185.56872 
L 742.613286 190.322374 
L 743.904197 195.022602 
L 745.380002 199.661103 
L 747.038094 204.229684 
L 748.875544 208.720278 
L 750.889108 213.124953 
L 753.075229 217.435931 
L 755.430046 221.645597 
L 757.949401 225.746518 
L 760.628844 229.73145 
L 763.463643 233.593355 
L 766.448792 237.325414 
L 769.579018 240.921036 
L 772.848793 244.373869 
L 776.252342 247.677816 
L 779.783655 250.827042 
L 783.436495 253.815985 
L 787.20441 256.639366 
L 791.080746 259.292199 
L 795.058658 261.769798 
L 799.131119 264.067789 
L 803.290938 266.182113 
L 807.530767 268.109035 
L 811.84312 269.845152 
L 816.220379 271.387399 
L 820.654814 272.733051 
L 825.138594 273.879732 
L 829.6638 274.825417 
L 834.222439 275.568436 
L 838.806462 276.107476 
L 843.407772 276.441585 
L 848.018242 276.570174 
L 852.629731 276.493015 
L 857.234093 276.210245 
L 861.823198 275.722362 
L 866.38894 275.030229 
L 870.923256 274.135068 
L 875.418138 273.03846 
L 879.865647 271.742341 
L 884.257929 270.249001 
L 888.587227 268.561078 
L 892.845895 266.681551 
L 897.02641 264.61374 
L 901.121392 262.361299 
L 905.123606 259.928203 
L 909.025985 257.318751 
L 912.821637 254.537551 
L 916.503859 251.589515 
L 920.066147 248.479849 
L 923.50221 245.214046 
L 926.805979 241.797873 
L 929.97162 238.237363 
L 932.993542 234.538805 
L 935.866409 230.70873 
L 938.585145 226.753903 
L 941.14495 222.681308 
L 943.541303 218.498139 
L 945.769972 214.211782 
L 947.827021 209.829808 
L 949.708816 205.359956 
L 951.412034 200.81012 
L 952.933668 196.188336 
L 954.271029 191.502766 
L 955.421757 186.761684 
L 956.383818 181.973466 
L 957.155514 177.146565 
L 957.735482 172.289509 
L 958.122697 167.410874 
L 958.316475 162.519277 
L 958.340706 160.071316 
L 958.340706 160.071316 
" clip-path="url(#pae0c15fe82)" style="fill: none; stroke: #ff0000; stroke-width: 0.72; stroke-linejoin: miter"/>
   </g>
   <g id="patch_12">
    <path d="M 398.632679 147.158814 
L 411.545181 160.071316 
L 398.632679 172.983818 
L 385.720177 160.071316 
L 398.632679 147.158814 
" clip-path="url(#pae0c15fe82)" style="fill: none; stroke: #ff0000; stroke-width: 0.72; stroke-linejoin: miter"/>
   </g>
   <g id="patch_13">
    <path d="M 841.637151 147.158814 
L 854.549653 160.071316 
L 841.637151 172.983818 
L 828.72465 160.071316 
L 841.637151 147.158814 
" clip-path="url(#pae0c15fe82)" style="fill: none; stroke: #ff0000; stroke-width: 0.72; stroke-linejoin: miter"/>
   </g>
   <g id="patch_14">
    <path d="M 261.947167 212.713974 
L 274.004269 226.428627 
L 260.289616 238.485729 
L 248.232514 224.771076 
L 261.947167 212.713974 
" clip-path="url(#pae0c15fe82)" style="fill: none; stroke: #ff0000; stroke-width: 0.72; stroke-linejoin: miter"/>
   </g>
   <g id="patch_15">
    <path d="M 501.741229 228.136709 
L 513.798331 241.851362 
L 500.083678 253.908463 
L 488.026576 240.193811 
L 501.741229 228.136709 
" clip-path="url(#pae0c15fe82)" style="fill: none; stroke: #ff0000; stroke-width: 0.72; stroke-linejoin: miter"/>
   </g>
   <g id="patch_16">
    <path d="M 448.307232 198.716489 
L 461.219734 185.803988 
L 474.132236 198.716489 
L 461.219734 211.628991 
L 448.307232 198.716489 
" clip-path="url(#pae0c15fe82)" style="fill: none; stroke: #ff0000; stroke-width: 0.72; stroke-linejoin: miter"/>
   </g>
   <g id="patch_17">
    <path d="M 448.307232 129.355451 
L 461.219734 116.442949 
L 474.132236 129.355451 
L 461.219734 142.267953 
L 448.307232 129.355451 
" clip-path="url(#pae0c15fe82)" style="fill: none; stroke: #ff0000; stroke-width: 0.72; stroke-linejoin: miter"/>
   </g>
   <g id="line2d_1">
    <path d="M 86.510112 160.071316 
L 1099.636364 160.071316 
" clip-path="url(#pae0c15fe82)" style="fill: none; stroke: #ffffff; stroke-width: 0.72; stroke-linecap: square"/>
   </g>
   <g id="line2d_2">
    <path d="M 383.137677 160.071316 
L 414.127681 160.071316 
" clip-path="url(#pae0c15fe82)" style="fill: none; stroke: #ffffff; stroke-width: 0.72; stroke-linecap: square"/>
   </g>
   <g id="line2d_3">
    <path d="M 826.142149 160.071316 
L 857.132154 160.071316 
" clip-path="url(#pae0c15fe82)" style="fill: none; stroke: #ffffff; stroke-width: 0.72; stroke-linecap: square"/>
   </g>
   <g id="line2d_4">
    <path d="M 52.531502 212.184256 
L 1045.211031 276.03001 
" clip-path="url(#pae0c15fe82)" style="fill: none; stroke: #ffffff; stroke-width: 0.72; stroke-linecap: square"/>
   </g>
   <g id="line2d_5">
    <path d="M 245.655339 224.605321 
L 276.581445 226.594382 
" clip-path="url(#pae0c15fe82)" style="fill: none; stroke: #ffffff; stroke-width: 0.72; stroke-linecap: square"/>
   </g>
   <g id="line2d_6">
    <path d="M 485.449401 240.028055 
L 516.375507 242.017117 
" clip-path="url(#pae0c15fe82)" style="fill: none; stroke: #ffffff; stroke-width: 0.72; stroke-linecap: square"/>
   </g>
   <g id="line2d_7">
    <path d="M 848.594789 43.570851 
L 848.594789 40.98835 
" clip-path="url(#pae0c15fe82)" style="fill: none; stroke: #ff0000; stroke-width: 0.72; stroke-linecap: square"/>
   </g>
   <g id="line2d_8">
    <path d="M 848.594789 276.571782 
L 848.594789 279.154282 
" clip-path="url(#pae0c15fe82)" style="fill: none; stroke: #ff0000; stroke-width: 0.72; stroke-linecap: square"/>
   </g>
   <g id="line2d_9">
    <path d="M 958.340706 160.071316 
L 960.923206 160.071316 
" clip-path="url(#pae0c15fe82)" style="fill: none; stroke: #ff0000; stroke-width: 0.72; stroke-linecap: square"/>
   </g>
   <g id="line2d_10">
    <path d="M 738.848873 160.071316 
L 736.266373 160.071316 
" clip-path="url(#pae0c15fe82)" style="fill: none; stroke: #ff0000; stroke-width: 0.72; stroke-linecap: square"/>
   </g>
   <g id="line2d_11">
    <path d="M 461.219734 296.423953 
L 461.219734 31.647987 
" clip-path="url(#pae0c15fe82)" style="fill: none; stroke: #ffffff; stroke-width: 0.72; stroke-linecap: square"/>
   </g>
   <g id="line2d_12">
    <path d="M 461.219734 214.211492 
L 461.219734 183.221487 
" clip-path="url(#pae0c15fe82)" style="fill: none; stroke: #ffffff; stroke-width: 0.72; stroke-linecap: square"/>
   </g>
   <g id="line2d_13">
    <path d="M 461.219734 144.850453 
L 461.219734 113.860449 
" clip-path="url(#pae0c15fe82)" style="fill: none; stroke: #ffffff; stroke-width: 0.72; stroke-linecap: square"/>
   </g>
  </g>
 </g>
 <defs>
  <clipPath id="pae0c15fe82">
   <rect x="0" y="0" width="1152" height="321.136714"/>
  </clipPath>
 </defs>
</svg>
