<?xml version="1.0" encoding="utf-8" standalone="no"?>
<!DOCTYPE svg PUBLIC "-//W3C//DTD SVG 1.1//EN"
  "http://www.w3.org/Graphics/SVG/1.1/DTD/svg11.dtd">
<svg xmlns:xlink="http://www.w3.org/1999/xlink" width="1152pt" height="214.077255pt" viewBox="0 0 1152 214.077255" xmlns="http://www.w3.org/2000/svg" version="1.1">
 <metadata>
  <rdf:RDF xmlns:dc="http://purl.org/dc/elements/1.1/" xmlns:cc="http://creativecommons.org/ns#" xmlns:rdf="http://www.w3.org/1999/02/22-rdf-syntax-ns#">
   <cc:Work>
    <dc:type rdf:resource="http://purl.org/dc/dcmitype/StillImage"/>
    <dc:date>2026-01-07T02:07:17.591857</dc:date>
    <dc:format>image/svg+xml</dc:format>
    <dc:creator>
     <cc:Agent>
      <dc:title>Matplotlib v3.10.1, https://matplotlib.org/</dc:title>
     </cc:Agent>
    </dc:creator>
   </cc:Work>
  </rdf:RDF>
 </metadata>
 <defs>
  <style type="text/css">*{stroke-linejoin: round; stroke-linecap: butt}</style>
 </defs>
 <g id="figure_1">
  <g id="patch_1">
   <path d="M 0 214.077255 
L 1152 214.077255 
L 1152 0 
L 0 0 
z
" style="fill: #ffffff"/>
  </g>
  <g id="axes_1">
   <g id="patch_2">
    <path d="M 0 214.077255 
L 1152 214.077255 
L 1152 0 
L 0 0 
z
" style="fill: #212830"/>
   </g>
   <g id="patch_3">
    <path d="M 1099.636364 112.494743 
L 1084.701814 107.527466 
L 1056.588779 98.421114 
L 1028.707305 89.739729 
L 1000.990369 81.50214 
L 973.37222 73.708133 
L 945.801649 66.364186 
L 918.234913 59.464593 
L 904.446428 56.183625 
L 876.835471 49.955955 
L 863.013485 47.00853 
L 849.179179 44.173834 
L 835.32924 41.451478 
L 821.462292 38.840129 
L 807.581572 36.339766 
L 793.687908 33.952233 
L 779.778599 31.677873 
L 765.853466 29.515165 
L 751.915942 27.464639 
L 737.966281 25.528397 
L 723.998025 23.707506 
L 710.0048 21.999036 
L 681.958133 18.910379 
L 667.912696 17.532523 
L 639.777496 15.108042 
L 611.629018 13.120981 
L 597.560524 12.296758 
L 569.45191 10.983666 
L 555.428075 10.497907 
L 541.426719 10.130166 
L 527.448737 9.879381 
L 513.502685 9.745217 
L 499.596009 9.730784 
L 485.729891 9.839551 
L 471.904697 10.071401 
L 458.129174 10.425706 
L 444.412461 10.90538 
L 430.755993 11.514639 
L 417.16196 12.253482 
L 403.640093 13.121149 
L 390.201236 14.12094 
L 376.847598 15.257312 
L 363.583703 16.529383 
L 350.423034 17.936562 
L 337.376005 19.483169 
L 324.446457 21.172245 
L 311.64413 23.001572 
L 298.98533 24.971472 
L 286.480486 27.085202 
L 274.138586 29.340417 
L 261.98536 31.727854 
L 250.051608 34.246081 
L 238.355916 36.896667 
L 226.919028 39.670069 
L 215.778326 42.552687 
L 204.967083 45.539796 
L 194.508392 48.622217 
L 184.434182 51.777621 
L 174.783607 54.986181 
L 165.582974 58.23569 
L 156.849616 61.504697 
L 148.603784 64.765933 
L 140.859026 68.001712 
L 133.612802 71.19947 
L 126.85502 74.341016 
L 120.574463 77.409984 
L 114.753687 80.400635 
L 109.366474 83.312863 
L 99.77404 88.888483 
L 91.581056 94.127493 
L 84.578885 99.070742 
L 78.587102 103.744558 
L 73.468609 108.199936 
L 69.0659 112.489336 
L 65.241296 116.578445 
L 61.96168 120.427997 
L 59.24767 124.10324 
L 57.061718 127.711474 
L 55.316279 131.261362 
L 53.965577 134.682071 
L 53.02343 137.944887 
L 52.499219 141.085813 
L 52.363636 144.151844 
L 52.622181 147.226243 
L 52.925053 148.745239 
L 53.365024 150.251752 
L 53.957034 151.750284 
L 54.707226 153.241253 
L 55.611348 154.719747 
L 56.659092 156.176583 
L 57.843364 157.603043 
L 59.163437 158.992333 
L 60.62586 160.341626 
L 62.237303 161.651029 
L 64.001999 162.923619 
L 67.983758 165.374324 
L 72.565732 167.717464 
L 77.810961 169.959944 
L 83.839753 172.126021 
L 90.784632 174.268393 
L 98.819536 176.425719 
L 108.205877 178.614769 
L 119.27028 180.858115 
L 132.399573 183.15308 
L 148.012313 185.479858 
L 166.416351 187.78989 
L 187.700751 189.999336 
L 199.352201 191.039478 
L 224.40622 192.937327 
L 251.331963 194.562254 
L 279.658036 195.903822 
L 309.074575 196.980722 
L 325.720564 197.508971 
L 325.638353 200.204879 
L 354.443397 201.043294 
L 385.092583 201.70435 
L 463.285187 202.991894 
L 510.495927 203.497009 
L 605.028005 204.346471 
L 1099.636364 112.494743 
L 1099.636364 112.494743 
" clip-path="url(#p86aa9f00e8)" style="fill: none; stroke: #ff0000; stroke-width: 0.72; stroke-linejoin: miter"/>
   </g>
   <g id="patch_4">
    <path d="M 964.244338 78.690735 
L 957.301244 76.813367 
L 959.178611 69.870273 
L 966.121705 71.747641 
L 964.244338 78.690735 
" clip-path="url(#p86aa9f00e8)" style="fill: none; stroke: #ff0000; stroke-width: 0.72; stroke-linejoin: miter"/>
   </g>
   <g id="patch_5">
    <path d="M 439.875607 18.307414 
L 432.690326 18.62804 
L 432.369701 11.442759 
L 439.554982 11.122133 
L 439.875607 18.307414 
" clip-path="url(#p86aa9f00e8)" style="fill: none; stroke: #ff0000; stroke-width: 0.72; stroke-linejoin: miter"/>
   </g>
   <g id="patch_6">
    <path d="M 202.009871 53.90985 
L 195.110905 55.943402 
L 193.077353 49.044436 
L 199.976318 47.010884 
L 202.009871 53.90985 
" clip-path="url(#p86aa9f00e8)" style="fill: none; stroke: #ff0000; stroke-width: 0.72; stroke-linejoin: miter"/>
   </g>
   <g id="patch_7">
    <path d="M 82.22952 112.41907 
L 79.553112 114.82107 
L 73.548112 108.130049 
L 76.22452 105.728049 
L 82.22952 112.41907 
" clip-path="url(#p86aa9f00e8)" style="fill: none; stroke: #ff0000; stroke-width: 0.72; stroke-linejoin: miter"/>
   </g>
   <g id="patch_8">
    <path d="M 67.592887 154.428475 
L 70.51303 156.527411 
L 65.265692 163.827769 
L 62.345549 161.728833 
L 67.592887 154.428475 
" clip-path="url(#p86aa9f00e8)" style="fill: none; stroke: #ff0000; stroke-width: 0.72; stroke-linejoin: miter"/>
   </g>
   <g id="patch_9">
    <path d="M 252.803686 187.434729 
L 259.987045 187.795865 
L 259.625909 194.979224 
L 252.44255 194.618088 
L 252.803686 187.434729 
" clip-path="url(#p86aa9f00e8)" style="fill: none; stroke: #ff0000; stroke-width: 0.72; stroke-linejoin: miter"/>
   </g>
   <g id="patch_10">
    <path d="M 655.11852 106.650435 
L 654.975945 101.849407 
L 654.548785 97.067453 
L 653.838737 92.323572 
L 652.848623 87.636611 
L 651.582376 83.025192 
L 650.045027 78.507635 
L 648.242684 74.10189 
L 646.182507 69.825458 
L 643.872682 65.695332 
L 641.322386 61.727919 
L 638.54175 57.938982 
L 635.541822 54.343575 
L 632.334521 50.955982 
L 628.932589 47.789661 
L 625.349542 44.857193 
L 621.599615 42.170228 
L 617.697708 39.739442 
L 613.659321 37.574491 
L 609.500499 35.683977 
L 605.237766 34.075412 
L 600.888057 32.755185 
L 596.468654 31.728543 
L 591.997114 30.999563 
L 587.491202 30.571143 
L 582.968822 30.444983 
L 578.447939 30.621587 
L 573.946516 31.100251 
L 569.482436 31.879074 
L 565.073436 32.954962 
L 560.737031 34.323641 
L 556.490451 35.979672 
L 552.350567 37.916477 
L 548.333826 40.12636 
L 544.456188 42.600541 
L 540.733057 45.329192 
L 537.179226 48.30147 
L 533.808814 51.505567 
L 530.635212 54.928754 
L 527.671028 58.557429 
L 524.928039 62.377177 
L 522.417143 66.372822 
L 520.148315 70.528489 
L 518.130569 74.827667 
L 516.371923 79.253276 
L 514.879362 83.787734 
L 513.658817 88.413025 
L 512.715138 93.110772 
L 512.052072 97.862313 
L 511.672255 102.648768 
L 511.577196 107.451122 
L 511.767273 112.250294 
L 512.241729 117.027219 
L 512.99868 121.762917 
L 514.03512 126.438573 
L 515.346929 131.035612 
L 516.928897 135.535768 
L 518.774737 139.921164 
L 520.877118 144.174376 
L 523.227685 148.278507 
L 525.8171 152.21725 
L 528.635076 155.974957 
L 531.670417 159.536699 
L 534.911063 162.888325 
L 538.344139 166.016519 
L 541.956007 168.908853 
L 545.732315 171.553836 
L 549.658061 173.940959 
L 553.717648 176.060739 
L 557.894948 177.904753 
L 562.173363 179.465675 
L 566.535896 180.737304 
L 570.965215 181.714587 
L 575.443722 182.393643 
L 579.953624 182.771772 
L 584.477003 182.847473 
L 588.995889 182.620445 
L 593.492327 182.09159 
L 597.948453 181.263009 
L 602.346564 180.137994 
L 606.669186 178.721015 
L 610.899144 177.0177 
L 615.019634 175.034819 
L 619.014285 172.780247 
L 622.867226 170.262944 
L 626.56315 167.492909 
L 630.087373 164.481149 
L 633.425892 161.239629 
L 636.565445 157.781227 
L 639.493558 154.119684 
L 642.198597 150.269546 
L 644.669816 146.246111 
L 646.897397 142.065363 
L 648.872488 137.743912 
L 650.587244 133.298927 
L 652.034852 128.748069 
L 653.209559 124.109418 
L 654.106701 119.401402 
L 654.72271 114.642727 
L 655.055142 109.852298 
L 655.11852 106.650435 
L 655.11852 106.650435 
" clip-path="url(#p86aa9f00e8)" style="fill: none; stroke: #ff0000; stroke-width: 0.72; stroke-linejoin: miter"/>
   </g>
   <g id="line2d_1">
    <path d="M 75.196275 106.650435 
L 1082.018802 106.650435 
" clip-path="url(#p86aa9f00e8)" style="fill: none; stroke: #ffffff; stroke-width: 0.72; stroke-linecap: square"/>
   </g>
   <g id="line2d_2">
    <path d="M 272.784754 106.650435 
L 294.362047 106.650435 
" clip-path="url(#p86aa9f00e8)" style="fill: none; stroke: #ffffff; stroke-width: 0.72; stroke-linecap: square"/>
   </g>
   <g id="patch_11">
    <path d="M 283.5734 97.659896 
L 292.563939 106.650435 
L 283.5734 115.640973 
L 274.582861 106.650435 
L 283.5734 97.659896 
" clip-path="url(#p86aa9f00e8)" style="fill: none; stroke: #ff0000; stroke-width: 0.72; stroke-linejoin: miter"/>
   </g>
   <g id="line2d_3">
    <path d="M 567.818892 106.650435 
L 589.396185 106.650435 
" clip-path="url(#p86aa9f00e8)" style="fill: none; stroke: #ffffff; stroke-width: 0.72; stroke-linecap: square"/>
   </g>
   <g id="patch_12">
    <path d="M 578.607538 97.659896 
L 587.598077 106.650435 
L 578.607538 115.640973 
L 569.616999 106.650435 
L 578.607538 97.659896 
" clip-path="url(#p86aa9f00e8)" style="fill: none; stroke: #ff0000; stroke-width: 0.72; stroke-linejoin: miter"/>
   </g>
   <g id="line2d_4">
    <path d="M 862.85303 106.650435 
L 884.430323 106.650435 
" clip-path="url(#p86aa9f00e8)" style="fill: none; stroke: #ffffff; stroke-width: 0.72; stroke-linecap: square"/>
   </g>
   <g id="patch_13">
    <path d="M 873.641676 97.659896 
L 882.632215 106.650435 
L 873.641676 115.640973 
L 864.651137 106.650435 
L 873.641676 97.659896 
" clip-path="url(#p86aa9f00e8)" style="fill: none; stroke: #ff0000; stroke-width: 0.72; stroke-linejoin: miter"/>
   </g>
   <g id="line2d_5">
    <path d="M 52.475535 141.417643 
L 714.580286 184.001957 
" clip-path="url(#p86aa9f00e8)" style="fill: none; stroke: #ffffff; stroke-width: 0.72; stroke-linecap: square"/>
   </g>
   <g id="line2d_6">
    <path d="M 181.128245 149.692146 
L 202.661047 151.077062 
" clip-path="url(#p86aa9f00e8)" style="fill: none; stroke: #ffffff; stroke-width: 0.72; stroke-linecap: square"/>
   </g>
   <g id="patch_14">
    <path d="M 192.471695 141.412603 
L 200.866647 150.961652 
L 191.317598 159.356605 
L 182.922645 149.807555 
L 192.471695 141.412603 
" clip-path="url(#p86aa9f00e8)" style="fill: none; stroke: #ff0000; stroke-width: 0.72; stroke-linejoin: miter"/>
   </g>
   <g id="line2d_7">
    <path d="M 340.822632 159.963143 
L 362.355434 161.348059 
" clip-path="url(#p86aa9f00e8)" style="fill: none; stroke: #ffffff; stroke-width: 0.72; stroke-linecap: square"/>
   </g>
   <g id="patch_15">
    <path d="M 352.166082 151.6836 
L 360.561034 161.232649 
L 351.011985 169.627602 
L 342.617032 160.078552 
L 352.166082 151.6836 
" clip-path="url(#p86aa9f00e8)" style="fill: none; stroke: #ff0000; stroke-width: 0.72; stroke-linejoin: miter"/>
   </g>
   <g id="line2d_8">
    <path d="M 583.345878 30.443932 
L 583.345878 28.645824 
" clip-path="url(#p86aa9f00e8)" style="fill: none; stroke: #ff0000; stroke-width: 0.72; stroke-linecap: square"/>
   </g>
   <g id="line2d_9">
    <path d="M 583.345878 182.856938 
L 583.345878 184.655045 
" clip-path="url(#p86aa9f00e8)" style="fill: none; stroke: #ff0000; stroke-width: 0.72; stroke-linecap: square"/>
   </g>
   <g id="line2d_10">
    <path d="M 655.11852 106.650435 
L 656.916628 106.650435 
" clip-path="url(#p86aa9f00e8)" style="fill: none; stroke: #ff0000; stroke-width: 0.72; stroke-linecap: square"/>
   </g>
   <g id="line2d_11">
    <path d="M 511.573235 106.650435 
L 509.775127 106.650435 
" clip-path="url(#p86aa9f00e8)" style="fill: none; stroke: #ff0000; stroke-width: 0.72; stroke-linecap: square"/>
   </g>
   <g id="line2d_12">
    <path d="M 313.629717 197.125872 
L 313.629717 22.717851 
" clip-path="url(#p86aa9f00e8)" style="fill: none; stroke: #ffffff; stroke-width: 0.72; stroke-linecap: square"/>
   </g>
   <g id="line2d_13">
    <path d="M 313.629717 143.365401 
L 313.629717 121.788108 
" clip-path="url(#p86aa9f00e8)" style="fill: none; stroke: #ffffff; stroke-width: 0.72; stroke-linecap: square"/>
   </g>
   <g id="patch_16">
    <path d="M 304.639179 132.576755 
L 313.629717 123.586216 
L 322.620256 132.576755 
L 313.629717 141.567294 
L 304.639179 132.576755 
" clip-path="url(#p86aa9f00e8)" style="fill: none; stroke: #ff0000; stroke-width: 0.72; stroke-linejoin: miter"/>
   </g>
   <g id="line2d_14">
    <path d="M 313.629717 98.055615 
L 313.629717 76.478322 
" clip-path="url(#p86aa9f00e8)" style="fill: none; stroke: #ffffff; stroke-width: 0.72; stroke-linecap: square"/>
   </g>
   <g id="patch_17">
    <path d="M 304.639179 87.266969 
L 313.629717 78.27643 
L 322.620256 87.266969 
L 313.629717 96.257507 
L 304.639179 87.266969 
" clip-path="url(#p86aa9f00e8)" style="fill: none; stroke: #ff0000; stroke-width: 0.72; stroke-linejoin: miter"/>
   </g>
   <g id="patch_18">
    <path d="M 443.806179 158.439207 
L 443.806179 167.429745 
L 452.796718 167.429745 
L 452.796718 158.439207 
L 452.796718 176.420284 
" clip-path="url(#p86aa9f00e8)" style="fill: none; stroke: #ff0000; stroke-width: 0.72; stroke-linejoin: miter"/>
   </g>
   <g id="patch_19">
    <path d="M 466.282526 158.439207 
L 462.68631 158.439207 
" clip-path="url(#p86aa9f00e8)" style="fill: none; stroke: #ff0000; stroke-width: 0.72; stroke-linejoin: miter"/>
   </g>
   <g id="patch_20">
    <path d="M 460.888202 158.439207 
L 457.291987 158.439207 
L 457.291987 176.420284 
L 460.888202 176.420284 
" clip-path="url(#p86aa9f00e8)" style="fill: none; stroke: #ff0000; stroke-width: 0.72; stroke-linejoin: miter"/>
   </g>
   <g id="patch_21">
    <path d="M 462.68631 176.420284 
L 466.282526 176.420284 
L 466.282526 167.429745 
L 462.68631 167.429745 
" clip-path="url(#p86aa9f00e8)" style="fill: none; stroke: #ff0000; stroke-width: 0.72; stroke-linejoin: miter"/>
   </g>
   <g id="patch_22">
    <path d="M 460.888202 167.429745 
L 457.291987 167.429745 
" clip-path="url(#p86aa9f00e8)" style="fill: none; stroke: #ff0000; stroke-width: 0.72; stroke-linejoin: miter"/>
   </g>
  </g>
 </g>
 <defs>
  <clipPath id="p86aa9f00e8">
   <rect x="0" y="0" width="1152" height="214.077255"/>
  </clipPath>
 </defs>
</svg>
