  0
SECTION
  2
HEADER
  9
$ACADVER
  1
AC1021
  9
$ACADMAINTVER
 70
25
  9
$DWGCODEPAGE
  3
ANSI_1252
  9
$LASTSAVEDBY
  1
ezdxf
  9
$INSBASE
 10
0.0
 20
0.0
 30
0.0
  9
$EXTMIN
 10
1e+20
 20
1e+20
 30
1e+20
  9
$EXTMAX
 10
-1e+20
 20
-1e+20
 30
-1e+20
  9
$LIMMIN
 10
0.0
 20
0.0
  9
$LIMMAX
 10
420.0
 20
297.0
  9
$ORTHOMODE
 70
0
  9
$REGENMODE
 70
1
  9
$FILLMODE
 70
1
  9
$QTEXTMODE
 70
0
  9
$MIRRTEXT
 70
1
  9
$LTSCALE
 40
1.0
  9
$ATTMODE
 70
1
  9
$TEXTSIZE
 40
2.5
  9
$TRACEWID
 40
1.0
  9
$TEXTSTYLE
  7
OpenSans
  9
$CLAYER
  8
0
  9
$CELTYPE
  6
ByLayer
  9
$CECOLOR
 62
256
  9
$CELTSCALE
 40
1.0
  9
$DISPSILH
 70
0
  9
$DIMSCALE
 40
1.0
  9
$DIMASZ
 40
0.175
  9
$DIMEXO
 40
0.125
  9
$DIMDLI
 40
3.75
  9
$DIMRND
 40
0.0
  9
$DIMDLE
 40
0.0
  9
$DIMEXE
 40
0.375
  9
$DIMTP
 40
0.0
  9
$DIMTM
 40
0.0
  9
$DIMTXT
 40
0.25
  9
$DIMCEN
 40
2.5
  9
$DIMTSZ
 40
0.0
  9
$DIMTOL
 70
0
  9
$DIMLIM
 70
0
  9
$DIMTIH
 70
0
  9
$DIMTOH
 70
0
  9
$DIMSE1
 70
0
  9
$DIMSE2
 70
0
  9
$DIMTAD
 70
1
  9
$DIMZIN
 70
12
  9
$DIMBLK
  1
ARCHTICK
  9
$DIMASO
 70
1
  9
$DIMSHO
 70
1
  9
$DIMPOST
  1

  9
$DIMAPOST
  1

  9
$DIMALT
 70
0
  9
$DIMALTD
 70
3
  9
$DIMALTF
 40
0.03937007874
  9
$DIMLFAC
 40
100.0
  9
$DIMTOFL
 70
1
  9
$DIMTVP
 40
0.0
  9
$DIMTIX
 70
0
  9
$DIMSOXD
 70
0
  9
$DIMSAH
 70
0
  9
$DIMBLK1
  1

  9
$DIMBLK2
  1

  9
$DIMSTYLE
  2
EZDXF
  9
$DIMCLRD
 70
0
  9
$DIMCLRE
 70
0
  9
$DIMCLRT
 70
0
  9
$DIMTFAC
 40
0.5
  9
$DIMGAP
 40
0.1
  9
$DIMJUST
 70
0
  9
$DIMSD1
 70
0
  9
$DIMSD2
 70
0
  9
$DIMTOLJ
 70
0
  9
$DIMTZIN
 70
8
  9
$DIMALTZ
 70
0
  9
$DIMALTTZ
 70
0
  9
$DIMUPT
 70
1
  9
$DIMDEC
 70
2
  9
$DIMTDEC
 70
2
  9
$DIMALTU
 70
2
  9
$DIMALTTD
 70
3
  9
$DIMTXSTY
  7
OpenSansCondensed-Light
  9
$DIMAUNIT
 70
0
  9
$DIMADEC
 70
2
  9
$DIMALTRND
 40
0.0
  9
$DIMAZIN
 70
3
  9
$DIMDSEP
 70
46
  9
$DIMATFIT
 70
3
  9
$DIMFRAC
 70
0
  9
$DIMLDRBLK
  1

  9
$DIMLUNIT
 70
2
  9
$DIMLWD
 70
-2
  9
$DIMLWE
 70
-2
  9
$DIMTMOVE
 70
2
  9
$DIMFXL
 40
1.0
  9
$DIMFXLON
 70
0
  9
$DIMJOGANG
 40
0.785398163397
  9
$DIMTFILL
 70
0
  9
$DIMTFILLCLR
 70
0
  9
$DIMARCSYM
 70
0
  9
$DIMLTYPE
  6

  9
$DIMLTEX1
  6

  9
$DIMLTEX2
  6

  9
$LUNITS
 70
2
  9
$LUPREC
 70
4
  9
$SKETCHINC
 40
1.0
  9
$FILLETRAD
 40
10.0
  9
$AUNITS
 70
0
  9
$AUPREC
 70
2
  9
$MENU
  1
.
  9
$ELEVATION
 40
0.0
  9
$PELEVATION
 40
0.0
  9
$THICKNESS
 40
0.0
  9
$LIMCHECK
 70
0
  9
$CHAMFERA
 40
0.0
  9
$CHAMFERB
 40
0.0
  9
$CHAMFERC
 40
0.0
  9
$CHAMFERD
 40
0.0
  9
$SKPOLY
 70
0
  9
$TDCREATE
 40
2461048.0884722224
  9
$TDUCREATE
 40
2458532.153996898
  9
$TDUPDATE
 40
2461048.0884722224
  9
$TDUUPDATE
 40
2458532.1544311
  9
$TDINDWG
 40
0.0
  9
$TDUSRTIMER
 40
0.0
  9
$USRTIMER
 70
1
  9
$ANGBASE
 50
0.0
  9
$ANGDIR
 70
0
  9
$PDMODE
 70
0
  9
$PDSIZE
 40
0.0
  9
$PLINEWID
 40
0.0
  9
$SPLFRAME
 70
0
  9
$SPLINETYPE
 70
6
  9
$SPLINESEGS
 70
8
  9
$HANDSEED
  5
B4
  9
$SURFTAB1
 70
6
  9
$SURFTAB2
 70
6
  9
$SURFTYPE
 70
6
  9
$SURFU
 70
6
  9
$SURFV
 70
6
  9
$UCSBASE
  2

  9
$UCSNAME
  2

  9
$UCSORG
 10
0.0
 20
0.0
 30
0.0
  9
$UCSXDIR
 10
1.0
 20
0.0
 30
0.0
  9
$UCSYDIR
 10
0.0
 20
1.0
 30
0.0
  9
$UCSORTHOREF
  2

  9
$UCSORTHOVIEW
 70
0
  9
$UCSORGTOP
 10
0.0
 20
0.0
 30
0.0
  9
$UCSORGBOTTOM
 10
0.0
 20
0.0
 30
0.0
  9
$UCSORGLEFT
 10
0.0
 20
0.0
 30
0.0
  9
$UCSORGRIGHT
 10
0.0
 20
0.0
 30
0.0
  9
$UCSORGFRONT
 10
0.0
 20
0.0
 30
0.0
  9
$UCSORGBACK
 10
0.0
 20
0.0
 30
0.0
  9
$PUCSBASE
  2

  9
$PUCSNAME
  2

  9
$PUCSORG
 10
0.0
 20
0.0
 30
0.0
  9
$PUCSXDIR
 10
1.0
 20
0.0
 30
0.0
  9
$PUCSYDIR
 10
0.0
 20
1.0
 30
0.0
  9
$PUCSORTHOREF
  2

  9
$PUCSORTHOVIEW
 70
0
  9
$PUCSORGTOP
 10
0.0
 20
0.0
 30
0.0
  9
$PUCSORGBOTTOM
 10
0.0
 20
0.0
 30
0.0
  9
$PUCSORGLEFT
 10
0.0
 20
0.0
 30
0.0
  9
$PUCSORGRIGHT
 10
0.0
 20
0.0
 30
0.0
  9
$PUCSORGFRONT
 10
0.0
 20
0.0
 30
0.0
  9
$PUCSORGBACK
 10
0.0
 20
0.0
 30
0.0
  9
$USERI1
 70
0
  9
$USERI2
 70
0
  9
$USERI3
 70
0
  9
$USERI4
 70
0
  9
$USERI5
 70
0
  9
$USERR1
 40
0.0
  9
$USERR2
 40
0.0
  9
$USERR3
 40
0.0
  9
$USERR4
 40
0.0
  9
$USERR5
 40
0.0
  9
$WORLDVIEW
 70
1
  9
$SHADEDGE
 70
3
  9
$SHADEDIF
 70
70
  9
$TILEMODE
 70
1
  9
$MAXACTVP
 70
64
  9
$PINSBASE
 10
0.0
 20
0.0
 30
0.0
  9
$PLIMCHECK
 70
0
  9
$PEXTMIN
 10
1e+20
 20
1e+20
 30
1e+20
  9
$PEXTMAX
 10
-1e+20
 20
-1e+20
 30
-1e+20
  9
$PLIMMIN
 10
0.0
 20
0.0
  9
$PLIMMAX
 10
420.0
 20
297.0
  9
$UNITMODE
 70
0
  9
$VISRETAIN
 70
1
  9
$PLINEGEN
 70
0
  9
$PSLTSCALE
 70
1
  9
$TREEDEPTH
 70
3020
  9
$CMLSTYLE
  2
Standard
  9
$CMLJUST
 70
0
  9
$CMLSCALE
 40
20.0
  9
$PROXYGRAPHICS
 70
1
  9
$MEASUREMENT
 70
1
  9
$CELWEIGHT
370
-1
  9
$ENDCAPS
280
0
  9
$JOINSTYLE
280
0
  9
$LWDISPLAY
290
0
  9
$INSUNITS
 70
6
  9
$HYPERLINKBASE
  1

  9
$STYLESHEET
  1

  9
$XEDIT
290
1
  9
$CEPSNTYPE
380
0
  9
$PSTYLEMODE
290
1
  9
$FINGERPRINTGUID
  2
{65A79774-14DD-47F5-9EB9-212A356789DE}
  9
$VERSIONGUID
  2
{9C683CA9-390B-4453-86C1-881CAA836D9E}
  9
$EXTNAMES
290
1
  9
$PSVPSCALE
 40
0.0
  9
$OLESTARTUP
290
0
  9
$SORTENTS
280
127
  9
$INDEXCTL
280
0
  9
$HIDETEXT
280
1
  9
$XCLIPFRAME
290
1
  9
$HALOGAP
280
0
  9
$OBSCOLOR
 70
257
  9
$OBSLTYPE
280
0
  9
$INTERSECTIONDISPLAY
280
0
  9
$INTERSECTIONCOLOR
 70
257
  9
$DIMASSOC
280
2
  9
$PROJECTNAME
  1

  9
$CAMERADISPLAY
290
0
  9
$LENSLENGTH
 40
50.0
  9
$CAMERAHEIGHT
 40
0.0
  9
$STEPSPERSEC
 40
24.0
  9
$STEPSIZE
 40
100.0
  9
$3DDWFPREC
 40
2.0
  9
$PSOLWIDTH
 40
0.005
  9
$PSOLHEIGHT
 40
0.08
  9
$LOFTANG1
 40
1.570796326795
  9
$LOFTANG2
 40
1.570796326795
  9
$LOFTMAG1
 40
0.0
  9
$LOFTMAG2
 40
0.0
  9
$LOFTPARAM
 70
7
  9
$LOFTNORMALS
280
1
  9
$LATITUDE
 40
37.795
  9
$LONGITUDE
 40
-122.394
  9
$NORTHDIRECTION
 40
0.0
  9
$TIMEZONE
 70
-8000
  9
$LIGHTGLYPHDISPLAY
280
1
  9
$TILEMODELIGHTSYNCH
280
1
  9
$CMATERIAL
347
20
  9
$SOLIDHIST
280
0
  9
$SHOWHIST
280
1
  9
$DWFFRAME
280
2
  9
$DGNFRAME
280
2
  9
$REALWORLDSCALE
290
1
  9
$INTERFERECOLOR
 62
256
  9
$CSHADOW
280
0
  9
$SHADOWPLANELOCATION
 40
0.0
  0
ENDSEC
  0
SECTION
  2
CLASSES
  0
CLASS
  1
ACDBDICTIONARYWDFLT
  2
AcDbDictionaryWithDefault
  3
ObjectDBX Classes
 90
0
 91
0
280
0
281
0
  0
CLASS
  1
SUN
  2
AcDbSun
  3
SCENEOE
 90
1153
 91
0
280
0
281
0
  0
CLASS
  1
VISUALSTYLE
  2
AcDbVisualStyle
  3
ObjectDBX Classes
 90
4095
 91
0
280
0
281
0
  0
CLASS
  1
MATERIAL
  2
AcDbMaterial
  3
ObjectDBX Classes
 90
1153
 91
0
280
0
281
0
  0
CLASS
  1
SCALE
  2
AcDbScale
  3
ObjectDBX Classes
 90
1153
 91
0
280
0
281
0
  0
CLASS
  1
TABLESTYLE
  2
AcDbTableStyle
  3
ObjectDBX Classes
 90
4095
 91
0
280
0
281
0
  0
CLASS
  1
MLEADERSTYLE
  2
AcDbMLeaderStyle
  3
ACDB_MLEADERSTYLE_CLASS
 90
4095
 91
0
280
0
281
0
  0
CLASS
  1
DICTIONARYVAR
  2
AcDbDictionaryVar
  3
ObjectDBX Classes
 90
0
 91
0
280
0
281
0
  0
CLASS
  1
CELLSTYLEMAP
  2
AcDbCellStyleMap
  3
ObjectDBX Classes
 90
1152
 91
0
280
0
281
0
  0
CLASS
  1
MENTALRAYRENDERSETTINGS
  2
AcDbMentalRayRenderSettings
  3
SCENEOE
 90
1024
 91
0
280
0
281
0
  0
CLASS
  1
ACDBDETAILVIEWSTYLE
  2
AcDbDetailViewStyle
  3
ObjectDBX Classes
 90
1025
 91
0
280
0
281
0
  0
CLASS
  1
ACDBSECTIONVIEWSTYLE
  2
AcDbSectionViewStyle
  3
ObjectDBX Classes
 90
1025
 91
0
280
0
281
0
  0
CLASS
  1
RASTERVARIABLES
  2
AcDbRasterVariables
  3
ISM
 90
0
 91
0
280
0
281
0
  0
CLASS
  1
ACDBPLACEHOLDER
  2
AcDbPlaceHolder
  3
ObjectDBX Classes
 90
0
 91
0
280
0
281
0
  0
CLASS
  1
LAYOUT
  2
AcDbLayout
  3
ObjectDBX Classes
 90
0
 91
0
280
0
281
0
  0
ENDSEC
  0
SECTION
  2
TABLES
  0
TABLE
  2
VPORT
  5
8
330
0
100
AcDbSymbolTable
 70
1
  0
VPORT
  5
23
330
8
100
AcDbSymbolTableRecord
100
AcDbViewportTableRecord
  2
*Active
 70
0
 10
0.0
 20
0.0
 11
1.0
 21
1.0
 12
0.0
 22
0.0
 13
0.0
 23
0.0
 14
0.5
 24
0.5
 15
0.5
 25
0.5
 16
0.0
 26
0.0
 36
1.0
 17
0.0
 27
0.0
 37
0.0
 40
1000.0
 41
1.34
 42
50.0
 43
0.0
 44
0.0
 50
0.0
 51
0.0
 71
0
 72
1000
 73
1
 74
3
 75
0
 76
0
 77
0
 78
0
281
0
 65
0
146
0.0
  0
ENDTAB
  0
TABLE
  2
LTYPE
  5
2
330
0
100
AcDbSymbolTable
 70
21
  0
LTYPE
  5
24
330
2
100
AcDbSymbolTableRecord
100
AcDbLinetypeTableRecord
  2
ByBlock
 70
0
  3

 72
65
 73
0
 40
0.0
  0
LTYPE
  5
25
330
2
100
AcDbSymbolTableRecord
100
AcDbLinetypeTableRecord
  2
ByLayer
 70
0
  3

 72
65
 73
0
 40
0.0
  0
LTYPE
  5
26
330
2
100
AcDbSymbolTableRecord
100
AcDbLinetypeTableRecord
  2
Continuous
 70
0
  3

 72
65
 73
0
 40
0.0
  0
LTYPE
  5
2F
330
2
100
AcDbSymbolTableRecord
100
AcDbLinetypeTableRecord
  2
CENTER
 70
0
  3
Center ____ _ ____ _ ____ _ ____ _ ____ _ ____
 72
65
 73
4
 40
5.08
 49
3.175
 74
0
 49
-0.635
 74
0
 49
0.635
 74
0
 49
-0.635
 74
0
  0
LTYPE
  5
30
330
2
100
AcDbSymbolTableRecord
100
AcDbLinetypeTableRecord
  2
CENTERX2
 70
0
  3
Center (2x) ________  __  ________  __  ________
 72
65
 73
4
 40
8.89
 49
6.35
 74
0
 49
-0.635
 74
0
 49
1.27
 74
0
 49
-0.635
 74
0
  0
LTYPE
  5
31
330
2
100
AcDbSymbolTableRecord
100
AcDbLinetypeTableRecord
  2
CENTER2
 70
0
  3
Center (.5x) ____ _ ____ _ ____ _ ____ _ ____
 72
65
 73
4
 40
2.54
 49
1.587
 74
0
 49
-0.318
 74
0
 49
0.318
 74
0
 49
-0.318
 74
0
  0
LTYPE
  5
32
330
2
100
AcDbSymbolTableRecord
100
AcDbLinetypeTableRecord
  2
DASHED
 70
0
  3
Dashed __ __ __ __ __ __ __ __ __ __ __ __ __ _
 72
65
 73
2
 40
1.524
 49
1.27
 74
0
 49
-0.254
 74
0
  0
LTYPE
  5
33
330
2
100
AcDbSymbolTableRecord
100
AcDbLinetypeTableRecord
  2
DASHEDX2
 70
0
  3
Dashed (2x) ____  ____  ____  ____  ____  ____
 72
65
 73
2
 40
3.048
 49
2.54
 74
0
 49
-0.508
 74
0
  0
LTYPE
  5
34
330
2
100
AcDbSymbolTableRecord
100
AcDbLinetypeTableRecord
  2
DASHED2
 70
0
  3
Dashed (.5x) _ _ _ _ _ _ _ _ _ _ _ _ _ _
 72
65
 73
2
 40
0.762
 49
0.635
 74
0
 49
-0.127
 74
0
  0
LTYPE
  5
35
330
2
100
AcDbSymbolTableRecord
100
AcDbLinetypeTableRecord
  2
PHANTOM
 70
0
  3
Phantom ______  __  __  ______  __  __  ______
 72
65
 73
6
 40
6.35
 49
3.175
 74
0
 49
-0.635
 74
0
 49
0.635
 74
0
 49
-0.635
 74
0
 49
0.635
 74
0
 49
-0.635
 74
0
  0
LTYPE
  5
36
330
2
100
AcDbSymbolTableRecord
100
AcDbLinetypeTableRecord
  2
PHANTOMX2
 70
0
  3
Phantom (2x)____________    ____    ____    ____________
 72
65
 73
6
 40
10.795
 49
6.35
 74
0
 49
-0.635
 74
0
 49
1.27
 74
0
 49
-0.635
 74
0
 49
1.27
 74
0
 49
-0.635
 74
0
  0
LTYPE
  5
37
330
2
100
AcDbSymbolTableRecord
100
AcDbLinetypeTableRecord
  2
PHANTOM2
 70
0
  3
Phantom (.5x) ___ _ _ ___ _ _ ___ _ _ ___ _ _ ___
 72
65
 73
6
 40
3.175
 49
1.587
 74
0
 49
-0.318
 74
0
 49
0.318
 74
0
 49
-0.318
 74
0
 49
0.318
 74
0
 49
-0.318
 74
0
  0
LTYPE
  5
38
330
2
100
AcDbSymbolTableRecord
100
AcDbLinetypeTableRecord
  2
DASHDOT
 70
0
  3
Dash dot __ . __ . __ . __ . __ . __ . __ . __
 72
65
 73
4
 40
3.556
 49
2.54
 74
0
 49
-0.508
 74
0
 49
0.0
 74
0
 49
-0.508
 74
0
  0
LTYPE
  5
39
330
2
100
AcDbSymbolTableRecord
100
AcDbLinetypeTableRecord
  2
DASHDOTX2
 70
0
  3
Dash dot (2x) ____  .  ____  .  ____  .  ____
 72
65
 73
4
 40
6.096
 49
5.08
 74
0
 49
-0.508
 74
0
 49
0.0
 74
0
 49
-0.508
 74
0
  0
LTYPE
  5
3A
330
2
100
AcDbSymbolTableRecord
100
AcDbLinetypeTableRecord
  2
DASHDOT2
 70
0
  3
Dash dot (.5x) _ . _ . _ . _ . _ . _ . _ . _
 72
65
 73
4
 40
1.778
 49
1.27
 74
0
 49
-0.254
 74
0
 49
0.0
 74
0
 49
-0.254
 74
0
  0
LTYPE
  5
3B
330
2
100
AcDbSymbolTableRecord
100
AcDbLinetypeTableRecord
  2
DOT
 70
0
  3
Dot .  .  .  .  .  .  .  .  .  .  .  .  .  .  .  .
 72
65
 73
2
 40
0.508
 49
0.0
 74
0
 49
-0.508
 74
0
  0
LTYPE
  5
3C
330
2
100
AcDbSymbolTableRecord
100
AcDbLinetypeTableRecord
  2
DOTX2
 70
0
  3
Dot (2x) .    .    .    .    .    .    .    . 
 72
65
 73
2
 40
1.016
 49
0.0
 74
0
 49
-1.016
 74
0
  0
LTYPE
  5
3D
330
2
100
AcDbSymbolTableRecord
100
AcDbLinetypeTableRecord
  2
DOT2
 70
0
  3
Dot (.5) . . . . . . . . . . . . . . . . . . . 
 72
65
 73
2
 40
0.254
 49
0.0
 74
0
 49
-0.254
 74
0
  0
LTYPE
  5
3E
330
2
100
AcDbSymbolTableRecord
100
AcDbLinetypeTableRecord
  2
DIVIDE
 70
0
  3
Divide __ . . __ . . __ . . __ . . __ . . __
 72
65
 73
6
 40
4.064
 49
2.54
 74
0
 49
-0.508
 74
0
 49
0.0
 74
0
 49
-0.508
 74
0
 49
0.0
 74
0
 49
-0.508
 74
0
  0
LTYPE
  5
3F
330
2
100
AcDbSymbolTableRecord
100
AcDbLinetypeTableRecord
  2
DIVIDEX2
 70
0
  3
Divide (2x) ____  . .  ____  . .  ____  . .  ____
 72
65
 73
6
 40
6.604
 49
5.08
 74
0
 49
-0.508
 74
0
 49
0.0
 74
0
 49
-0.508
 74
0
 49
0.0
 74
0
 49
-0.508
 74
0
  0
LTYPE
  5
40
330
2
100
AcDbSymbolTableRecord
100
AcDbLinetypeTableRecord
  2
DIVIDE2
 70
0
  3
Divide(.5x) _ . _ . _ . _ . _ . _ . _ . _
 72
65
 73
6
 40
2.032
 49
1.27
 74
0
 49
-0.254
 74
0
 49
0.0
 74
0
 49
-0.254
 74
0
 49
0.0
 74
0
 49
-0.254
 74
0
  0
ENDTAB
  0
TABLE
  2
LAYER
  5
1
330
0
100
AcDbSymbolTable
 70
4
  0
LAYER
  5
27
330
1
100
AcDbSymbolTableRecord
100
AcDbLayerTableRecord
  2
0
 70
0
 62
7
  6
Continuous
370
-3
390
13
347
21
  0
LAYER
  5
28
330
1
100
AcDbSymbolTableRecord
100
AcDbLayerTableRecord
  2
Defpoints
 70
0
 62
7
  6
Continuous
290
0
370
-3
390
13
347
21
  0
LAYER
  5
8A
330
1
100
AcDbSymbolTableRecord
100
AcDbLayerTableRecord
  2
Layer
 70
0
 62
1
  6
Continuous
370
50
390
13
347
21
  0
LAYER
  5
8B
330
1
100
AcDbSymbolTableRecord
100
AcDbLayerTableRecord
  2
NumLabel
 70
0
 62
1
  6
Continuous
370
15
390
13
347
21
  0
ENDTAB
  0
TABLE
  2
STYLE
  5
5
330
0
100
AcDbSymbolTable
 70
26
  0
STYLE
  5
29
330
5
100
AcDbSymbolTableRecord
100
AcDbTextStyleTableRecord
  2
Standard
 70
0
 40
0.0
 41
1.0
 50
0.0
 71
0
 42
2.5
  3
txt
  4

  0
STYLE
  5
41
330
5
100
AcDbSymbolTableRecord
100
AcDbTextStyleTableRecord
  2
OpenSans-Light
 70
0
 40
0.0
 41
1.0
 50
0.0
 71
0
 42
2.5
  3
OpenSans-Light.ttf
  4

  0
STYLE
  5
42
330
5
100
AcDbSymbolTableRecord
100
AcDbTextStyleTableRecord
  2
OpenSans-Light-Italic
 70
0
 40
0.0
 41
1.0
 50
0.0
 71
0
 42
2.5
  3
OpenSans-LightItalic.ttf
  4

  0
STYLE
  5
43
330
5
100
AcDbSymbolTableRecord
100
AcDbTextStyleTableRecord
  2
OpenSans
 70
0
 40
0.0
 41
1.0
 50
0.0
 71
0
 42
2.5
  3
OpenSans-Regular.ttf
  4

  0
STYLE
  5
44
330
5
100
AcDbSymbolTableRecord
100
AcDbTextStyleTableRecord
  2
OpenSans-Italic
 70
0
 40
0.0
 41
1.0
 50
0.0
 71
0
 42
2.5
  3
OpenSans-Italic.ttf
  4

  0
STYLE
  5
45
330
5
100
AcDbSymbolTableRecord
100
AcDbTextStyleTableRecord
  2
OpenSans-SemiBold
 70
0
 40
0.0
 41
1.0
 50
0.0
 71
0
 42
2.5
  3
OpenSans-SemiBold.ttf
  4

  0
STYLE
  5
46
330
5
100
AcDbSymbolTableRecord
100
AcDbTextStyleTableRecord
  2
OpenSans-SemiBoldItalic
 70
0
 40
0.0
 41
1.0
 50
0.0
 71
0
 42
2.5
  3
OpenSans-SemiBoldItalic.ttf
  4

  0
STYLE
  5
47
330
5
100
AcDbSymbolTableRecord
100
AcDbTextStyleTableRecord
  2
OpenSans-Bold
 70
0
 40
0.0
 41
1.0
 50
0.0
 71
0
 42
2.5
  3
OpenSans-Bold.ttf
  4

  0
STYLE
  5
48
330
5
100
AcDbSymbolTableRecord
100
AcDbTextStyleTableRecord
  2
OpenSans-BoldItalic
 70
0
 40
0.0
 41
1.0
 50
0.0
 71
0
 42
2.5
  3
OpenSans-BoldItalic.ttf
  4

  0
STYLE
  5
49
330
5
100
AcDbSymbolTableRecord
100
AcDbTextStyleTableRecord
  2
OpenSans-ExtraBold
 70
0
 40
0.0
 41
1.0
 50
0.0
 71
0
 42
2.5
  3
OpenSans-ExtraBold.ttf
  4

  0
STYLE
  5
4A
330
5
100
AcDbSymbolTableRecord
100
AcDbTextStyleTableRecord
  2
OpenSans-ExtraBoldItalic
 70
0
 40
0.0
 41
1.0
 50
0.0
 71
0
 42
2.5
  3
OpenSans-ExtraBoldItalic.ttf
  4

  0
STYLE
  5
4B
330
5
100
AcDbSymbolTableRecord
100
AcDbTextStyleTableRecord
  2
OpenSansCondensed-Bold
 70
0
 40
0.0
 41
1.0
 50
0.0
 71
0
 42
2.5
  3
OpenSansCondensed-Bold.ttf
  4

  0
STYLE
  5
4C
330
5
100
AcDbSymbolTableRecord
100
AcDbTextStyleTableRecord
  2
OpenSansCondensed-Light
 70
0
 40
0.0
 41
1.0
 50
0.0
 71
0
 42
2.5
  3
OpenSansCondensed-Light.ttf
  4

  0
STYLE
  5
4D
330
5
100
AcDbSymbolTableRecord
100
AcDbTextStyleTableRecord
  2
OpenSansCondensed-Italic
 70
0
 40
0.0
 41
1.0
 50
0.0
 71
0
 42
2.5
  3
OpenSansCondensed-LightItalic.ttf
  4

  0
STYLE
  5
4E
330
5
100
AcDbSymbolTableRecord
100
AcDbTextStyleTableRecord
  2
LiberationSans
 70
0
 40
0.0
 41
1.0
 50
0.0
 71
0
 42
2.5
  3
LiberationSans-Regular.ttf
  4

  0
STYLE
  5
4F
330
5
100
AcDbSymbolTableRecord
100
AcDbTextStyleTableRecord
  2
LiberationSans-Bold
 70
0
 40
0.0
 41
1.0
 50
0.0
 71
0
 42
2.5
  3
LiberationSans-Bold.ttf
  4

  0
STYLE
  5
50
330
5
100
AcDbSymbolTableRecord
100
AcDbTextStyleTableRecord
  2
LiberationSans-BoldItalic
 70
0
 40
0.0
 41
1.0
 50
0.0
 71
0
 42
2.5
  3
LiberationSans-BoldItalic.ttf
  4

  0
STYLE
  5
51
330
5
100
AcDbSymbolTableRecord
100
AcDbTextStyleTableRecord
  2
LiberationSans-Italic
 70
0
 40
0.0
 41
1.0
 50
0.0
 71
0
 42
2.5
  3
LiberationSans-Italic.ttf
  4

  0
STYLE
  5
52
330
5
100
AcDbSymbolTableRecord
100
AcDbTextStyleTableRecord
  2
LiberationSerif
 70
0
 40
0.0
 41
1.0
 50
0.0
 71
0
 42
2.5
  3
LiberationSerif-Regular.ttf
  4

  0
STYLE
  5
53
330
5
100
AcDbSymbolTableRecord
100
AcDbTextStyleTableRecord
  2
LiberationSerif-Bold
 70
0
 40
0.0
 41
1.0
 50
0.0
 71
0
 42
2.5
  3
LiberationSerif-Bold.ttf
  4

  0
STYLE
  5
54
330
5
100
AcDbSymbolTableRecord
100
AcDbTextStyleTableRecord
  2
LiberationSerif-BoldItalic
 70
0
 40
0.0
 41
1.0
 50
0.0
 71
0
 42
2.5
  3
LiberationSerif-BoldItalic.ttf
  4

  0
STYLE
  5
55
330
5
100
AcDbSymbolTableRecord
100
AcDbTextStyleTableRecord
  2
LiberationSerif-Italic
 70
0
 40
0.0
 41
1.0
 50
0.0
 71
0
 42
2.5
  3
LiberationSerif-Italic.ttf
  4

  0
STYLE
  5
56
330
5
100
AcDbSymbolTableRecord
100
AcDbTextStyleTableRecord
  2
LiberationMono
 70
0
 40
0.0
 41
1.0
 50
0.0
 71
0
 42
2.5
  3
LiberationMono-Regular.ttf
  4

  0
STYLE
  5
57
330
5
100
AcDbSymbolTableRecord
100
AcDbTextStyleTableRecord
  2
LiberationMono-Bold
 70
0
 40
0.0
 41
1.0
 50
0.0
 71
0
 42
2.5
  3
LiberationMono-Bold.ttf
  4

  0
STYLE
  5
58
330
5
100
AcDbSymbolTableRecord
100
AcDbTextStyleTableRecord
  2
LiberationMono-BoldItalic
 70
0
 40
0.0
 41
1.0
 50
0.0
 71
0
 42
2.5
  3
LiberationMono-BoldItalic.ttf
  4

  0
STYLE
  5
59
330
5
100
AcDbSymbolTableRecord
100
AcDbTextStyleTableRecord
  2
LiberationMono-Italic
 70
0
 40
0.0
 41
1.0
 50
0.0
 71
0
 42
2.5
  3
LiberationMono-Italic.ttf
  4

  0
ENDTAB
  0
TABLE
  2
VIEW
  5
7
330
0
100
AcDbSymbolTable
 70
0
  0
ENDTAB
  0
TABLE
  2
UCS
  5
6
330
0
100
AcDbSymbolTable
 70
0
  0
ENDTAB
  0
TABLE
  2
APPID
  5
3
330
0
100
AcDbSymbolTable
 70
3
  0
APPID
  5
2A
330
3
100
AcDbSymbolTableRecord
100
AcDbRegAppTableRecord
  2
ACAD
 70
0
  0
APPID
  5
B1
330
3
100
AcDbSymbolTableRecord
100
AcDbRegAppTableRecord
  2
HATCHBACKGROUNDCOLOR
 70
0
  0
APPID
  5
B2
330
3
100
AcDbSymbolTableRecord
100
AcDbRegAppTableRecord
  2
EZDXF
 70
0
  0
ENDTAB
  0
TABLE
  2
DIMSTYLE
  5
4
330
0
100
AcDbSymbolTable
 70
12
100
AcDbDimStyleTable
  0
DIMSTYLE
105
2B
330
4
100
AcDbSymbolTableRecord
100
AcDbDimStyleTableRecord
  2
Standard
 70
0
 40
1.0
 41
2.5
 42
0.625
 43
3.75
 44
1.25
 45
0.0
 46
0.0
 47
0.0
 48
0.0
 49
2.5
140
2.5
141
2.5
142
0.0
143
0.03937007874
144
1.0
145
0.0
146
1.0
147
0.625
148
0.0
 69
0
 70
0
 71
0
 72
0
 73
0
 74
0
 75
0
 76
0
 77
1
 78
8
 79
3
170
0
171
3
172
1
173
0
174
0
175
0
176
0
177
0
178
0
179
2
271
2
272
2
273
2
274
3
275
0
276
0
277
2
278
44
279
0
280
0
281
0
282
0
283
0
284
8
285
0
286
0
288
0
289
3
290
0
371
-2
372
-2
  0
DIMSTYLE
105
73
330
4
100
AcDbSymbolTableRecord
100
AcDbDimStyleTableRecord
  2
EZDXF
 70
0
 40
1.0
 41
0.175
 42
0.125
 43
3.75
 44
0.375
 45
0.0
 46
0.0
 47
0.0
 48
0.0
 49
2.5
140
0.25
141
2.5
142
0.0
143
0.03937007874
144
100.0
145
0.0
146
0.5
147
0.1
148
0.0
 69
0
 70
0
 71
0
 72
0
 73
0
 74
0
 75
0
 76
0
 77
1
 78
12
 79
3
170
0
171
3
172
1
173
0
174
0
175
0
176
0
177
0
178
0
179
2
271
2
272
2
273
2
274
3
275
0
276
0
277
2
278
46
279
2
280
0
281
0
282
0
283
0
284
8
285
0
286
0
288
1
289
3
290
0
340
4C
342
74
371
-2
372
-2
  0
DIMSTYLE
105
7C
330
4
100
AcDbSymbolTableRecord
100
AcDbDimStyleTableRecord
  2
EZ_M_100_H25_CM
 70
0
 40
1.0
 41
0.25
 42
0.125
 43
3.75
 44
0.375
 45
0.0
 46
0.0
 47
0.0
 48
0.0
 49
2.5
140
0.25
141
2.5
142
0.125
143
0.03937007874
144
100.0
145
0.0
146
0.5
147
0.1
148
0.0
 69
0
 70
0
 71
0
 72
0
 73
0
 74
0
 75
0
 76
0
 77
1
 78
12
 79
3
170
0
171
3
172
1
173
0
174
0
175
0
176
0
177
0
178
0
179
2
271
2
272
2
273
2
274
3
275
0
276
0
277
2
278
46
279
2
280
0
281
0
282
0
283
0
284
8
285
0
286
0
288
1
289
3
290
0
340
4C
371
-2
372
-2
  0
DIMSTYLE
105
7D
330
4
100
AcDbSymbolTableRecord
100
AcDbDimStyleTableRecord
  2
EZ_M_50_H25_CM
 70
0
 40
1.0
 41
0.125
 42
0.0625
 43
3.75
 44
0.1875
 45
0.0
 46
0.0
 47
0.0
 48
0.0
 49
2.5
140
0.125
141
2.5
142
0.0625
143
0.03937007874
144
100.0
145
0.0
146
0.5
147
0.05
148
0.0
 69
0
 70
0
 71
0
 72
0
 73
0
 74
0
 75
0
 76
0
 77
1
 78
12
 79
3
170
0
171
3
172
1
173
0
174
0
175
0
176
0
177
0
178
0
179
2
271
2
272
2
273
2
274
3
275
0
276
0
277
2
278
46
279
2
280
0
281
0
282
0
283
0
284
8
285
0
286
0
288
1
289
3
290
0
340
4C
371
-2
372
-2
  0
DIMSTYLE
105
7E
330
4
100
AcDbSymbolTableRecord
100
AcDbDimStyleTableRecord
  2
EZ_M_25_H25_CM
 70
0
 40
1.0
 41
0.0625
 42
0.03125
 43
3.75
 44
0.09375
 45
0.0
 46
0.0
 47
0.0
 48
0.0
 49
2.5
140
0.0625
141
2.5
142
0.03125
143
0.03937007874
144
100.0
145
0.0
146
0.5
147
0.025
148
0.0
 69
0
 70
0
 71
0
 72
0
 73
0
 74
0
 75
0
 76
0
 77
1
 78
12
 79
3
170
0
171
3
172
1
173
0
174
0
175
0
176
0
177
0
178
0
179
2
271
2
272
2
273
2
274
3
275
0
276
0
277
2
278
46
279
2
280
0
281
0
282
0
283
0
284
8
285
0
286
0
288
1
289
3
290
0
340
4C
371
-2
372
-2
  0
DIMSTYLE
105
7F
330
4
100
AcDbSymbolTableRecord
100
AcDbDimStyleTableRecord
  2
EZ_M_20_H25_CM
 70
0
 40
1.0
 41
0.05
 42
0.025
 43
3.75
 44
0.07500000000000001
 45
0.0
 46
0.0
 47
0.0
 48
0.0
 49
2.5
140
0.05
141
2.5
142
0.025
143
0.03937007874
144
100.0
145
0.0
146
0.5
147
0.020000000000000004
148
0.0
 69
0
 70
0
 71
0
 72
0
 73
0
 74
0
 75
0
 76
0
 77
1
 78
12
 79
3
170
0
171
3
172
1
173
0
174
0
175
0
176
0
177
0
178
0
179
2
271
2
272
2
273
2
274
3
275
0
276
0
277
2
278
46
279
2
280
0
281
0
282
0
283
0
284
8
285
0
286
0
288
1
289
3
290
0
340
4C
371
-2
372
-2
  0
DIMSTYLE
105
80
330
4
100
AcDbSymbolTableRecord
100
AcDbDimStyleTableRecord
  2
EZ_M_10_H25_CM
 70
0
 40
1.0
 41
0.025
 42
0.0125
 43
3.75
 44
0.037500000000000006
 45
0.0
 46
0.0
 47
0.0
 48
0.0
 49
2.5
140
0.025
141
2.5
142
0.0125
143
0.03937007874
144
100.0
145
0.0
146
0.5
147
0.010000000000000002
148
0.0
 69
0
 70
0
 71
0
 72
0
 73
0
 74
0
 75
0
 76
0
 77
1
 78
12
 79
3
170
0
171
3
172
1
173
0
174
0
175
0
176
0
177
0
178
0
179
2
271
2
272
2
273
2
274
3
275
0
276
0
277
2
278
46
279
2
280
0
281
0
282
0
283
0
284
8
285
0
286
0
288
1
289
3
290
0
340
4C
371
-2
372
-2
  0
DIMSTYLE
105
81
330
4
100
AcDbSymbolTableRecord
100
AcDbDimStyleTableRecord
  2
EZ_M_5_H25_CM
 70
0
 40
1.0
 41
0.0125
 42
0.00625
 43
3.75
 44
0.018750000000000003
 45
0.0
 46
0.0
 47
0.0
 48
0.0
 49
2.5
140
0.0125
141
2.5
142
0.00625
143
0.03937007874
144
100.0
145
0.0
146
0.5
147
0.005000000000000001
148
0.0
 69
0
 70
0
 71
0
 72
0
 73
0
 74
0
 75
0
 76
0
 77
1
 78
12
 79
3
170
0
171
3
172
1
173
0
174
0
175
0
176
0
177
0
178
0
179
2
271
2
272
2
273
2
274
3
275
0
276
0
277
2
278
46
279
2
280
0
281
0
282
0
283
0
284
8
285
0
286
0
288
1
289
3
290
0
340
4C
371
-2
372
-2
  0
DIMSTYLE
105
82
330
4
100
AcDbSymbolTableRecord
100
AcDbDimStyleTableRecord
  2
EZ_M_1_H25_CM
 70
0
 40
1.0
 41
0.0025
 42
0.00125
 43
3.75
 44
0.00375
 45
0.0
 46
0.0
 47
0.0
 48
0.0
 49
2.5
140
0.0025
141
2.5
142
0.00125
143
0.03937007874
144
100.0
145
0.0
146
0.5
147
0.001
148
0.0
 69
0
 70
0
 71
0
 72
0
 73
0
 74
0
 75
0
 76
0
 77
1
 78
12
 79
3
170
0
171
3
172
1
173
0
174
0
175
0
176
0
177
0
178
0
179
2
271
2
272
2
273
2
274
3
275
0
276
0
277
2
278
46
279
2
280
0
281
0
282
0
283
0
284
8
285
0
286
0
288
1
289
3
290
0
340
4C
371
-2
372
-2
  0
DIMSTYLE
105
83
330
4
100
AcDbSymbolTableRecord
100
AcDbDimStyleTableRecord
  2
EZ_RADIUS
 70
0
 40
1.0
 41
0.25
 42
0.125
 43
3.75
 44
0.375
 45
0.0
 46
0.0
 47
0.0
 48
0.0
 49
2.5
140
0.25
141
0.0
142
0.0
143
0.03937007874
144
100.0
145
0.0
146
0.5
147
0.1
148
0.0
 69
0
 70
0
 71
0
 72
0
 73
0
 74
0
 75
0
 76
0
 77
1
 78
12
 79
3
170
0
171
3
172
0
173
0
174
0
175
0
176
0
177
0
178
0
179
2
271
2
272
2
273
2
274
3
275
0
276
0
277
2
278
46
279
1
280
0
281
0
282
0
283
0
284
8
285
0
286
0
288
1
289
3
290
0
340
4C
342
84
371
-2
372
-2
  0
DIMSTYLE
105
88
330
4
100
AcDbSymbolTableRecord
100
AcDbDimStyleTableRecord
  2
EZ_RADIUS_INSIDE
 70
0
 40
1.0
 41
0.25
 42
0.125
 43
3.75
 44
0.375
 45
0.0
 46
0.0
 47
0.0
 48
0.0
 49
2.5
140
0.25
141
0.0
142
0.0
143
0.03937007874
144
100.0
145
0.0
146
0.5
147
0.1
148
0.0
 69
0
 70
0
 71
0
 72
0
 73
0
 74
0
 75
0
 76
0
 77
0
 78
12
 79
3
170
0
171
3
172
0
173
0
174
1
175
0
176
0
177
0
178
0
179
2
271
2
272
2
273
2
274
3
275
0
276
0
277
2
278
46
279
0
280
0
281
0
282
0
283
0
284
8
285
0
286
0
288
1
289
0
290
0
340
4C
342
84
371
-2
372
-2
  0
DIMSTYLE
105
89
330
4
100
AcDbSymbolTableRecord
100
AcDbDimStyleTableRecord
  2
EZ_CURVED
 70
0
 40
1.0
 41
0.25
 42
0.125
 43
3.75
 44
0.375
 45
0.0
 46
0.0
 47
0.0
 48
0.0
 49
2.5
140
0.25
141
2.5
142
0.0
143
0.03937007874
144
100.0
145
0.0
146
0.5
147
0.1
148
0.0
 69
0
 70
0
 71
0
 72
0
 73
0
 74
0
 75
0
 76
0
 77
1
 78
12
 79
2
 90
2
170
0
171
3
172
1
173
0
174
0
175
0
176
0
177
0
178
0
179
2
271
2
272
2
273
2
274
3
275
0
276
0
277
2
278
46
279
2
280
0
281
0
282
0
283
0
284
8
285
0
286
0
288
1
289
3
290
0
340
4C
371
-2
372
-2
  0
ENDTAB
  0
TABLE
  2
BLOCK_RECORD
  5
9
330
0
100
AcDbSymbolTable
 70
5
  0
BLOCK_RECORD
  5
17
330
9
100
AcDbSymbolTableRecord
100
AcDbBlockTableRecord
  2
*Model_Space
340
1A
 70
0
280
1
281
0
  0
BLOCK_RECORD
  5
1B
330
9
100
AcDbSymbolTableRecord
100
AcDbBlockTableRecord
  2
*Paper_Space
340
1E
 70
0
280
1
281
0
  0
BLOCK_RECORD
  5
74
330
9
100
AcDbSymbolTableRecord
100
AcDbBlockTableRecord
  2
_ARCHTICK
340
0
 70
0
280
1
281
0
  0
BLOCK_RECORD
  5
78
330
9
100
AcDbSymbolTableRecord
100
AcDbBlockTableRecord
  2
_CLOSEDFILLED
340
0
 70
0
280
1
281
0
  0
BLOCK_RECORD
  5
84
330
9
100
AcDbSymbolTableRecord
100
AcDbBlockTableRecord
  2
_CLOSEDBLANK
340
0
 70
0
280
1
281
0
  0
ENDTAB
  0
ENDSEC
  0
SECTION
  2
BLOCKS
  0
BLOCK
  5
18
330
17
100
AcDbEntity
  8
0
100
AcDbBlockBegin
  2
*Model_Space
 70
0
 10
0.0
 20
0.0
 30
0.0
  3
*Model_Space
  1

  0
ENDBLK
  5
19
330
17
100
AcDbEntity
  8
0
100
AcDbBlockEnd
  0
BLOCK
  5
1C
330
1B
100
AcDbEntity
  8
0
100
AcDbBlockBegin
  2
*Paper_Space
 70
0
 10
0.0
 20
0.0
 30
0.0
  3
*Paper_Space
  1

  0
ENDBLK
  5
1D
330
1B
100
AcDbEntity
  8
0
100
AcDbBlockEnd
  0
BLOCK
  5
75
330
74
100
AcDbEntity
  8
0
100
AcDbBlockBegin
  2
_ARCHTICK
 70
0
 10
0.0
 20
0.0
 30
0.0
  3
_ARCHTICK
  1

  0
LWPOLYLINE
  5
77
330
74
100
AcDbEntity
  8
0
  6
BYBLOCK
 62
0
100
AcDbPolyline
 90
2
 70
0
 43
0.15
 10
-0.5
 20
-0.5
 10
0.5
 20
0.5
  0
ENDBLK
  5
76
330
74
100
AcDbEntity
  8
0
100
AcDbBlockEnd
  0
BLOCK
  5
79
330
78
100
AcDbEntity
  8
0
100
AcDbBlockBegin
  2
_CLOSEDFILLED
 70
0
 10
0.0
 20
0.0
 30
0.0
  3
_CLOSEDFILLED
  1

  0
SOLID
  5
7B
330
78
100
AcDbEntity
  8
0
  6
BYBLOCK
 62
0
100
AcDbTrace
 10
-1.0
 20
0.16439898372402537
 30
0.0
 11
0.0
 21
0.0
 31
0.0
 12
-1.0
 22
-0.16439898372402537
 32
0.0
 13
-1.0
 23
-0.16439898372402537
 33
0.0
  0
ENDBLK
  5
7A
330
78
100
AcDbEntity
  8
0
100
AcDbBlockEnd
  0
BLOCK
  5
85
330
84
100
AcDbEntity
  8
0
100
AcDbBlockBegin
  2
_CLOSEDBLANK
 70
0
 10
0.0
 20
0.0
 30
0.0
  3
_CLOSEDBLANK
  1

  0
LWPOLYLINE
  5
87
330
84
100
AcDbEntity
  8
0
  6
BYBLOCK
 62
0
100
AcDbPolyline
 90
3
 70
1
 10
-1.0
 20
0.16439898372402537
 10
0.0
 20
0.0
 10
-1.0
 20
-0.16439898372402537
  0
ENDBLK
  5
86
330
84
100
AcDbEntity
  8
0
100
AcDbBlockEnd
  0
ENDSEC
  0
SECTION
  2
ENTITIES
  0
LWPOLYLINE
  5
8C
330
17
100
AcDbEntity
  8
Layer
100
AcDbPolyline
 90
170
 70
1
 10
449.429579881605
 20
200.07156589768908
 10
449.429579881605
 20
200.07156589768908
 10
449.2592018775281
 20
200.1208649365054
 10
443.9088467889295
 20
201.6450953889525
 10
438.5578613596472
 20
203.14159674769172
 10
433.2136775594166
 20
204.61333856019658
 10
427.8705453766795
 20
206.05521065586277
 10
422.52633469984386
 20
207.47183262964472
 10
417.1883966734768
 20
208.86076156983052
 10
411.85450473592243
 20
210.2161952960788
 10
406.51549445277203
 20
211.5377693658556
 10
401.1688148109666
 20
212.82888417710058
 10
395.81340204188746
 20
214.09182397195264
 10
390.4560943192424
 20
215.32884512883203
 10
385.1002785808355
 20
216.53433698420972
 10
379.7413418010298
 20
217.7071535996241
 10
374.379122808142
 20
218.84547652573903
 10
369.0022131350915
 20
219.95289127583933
 10
363.6293505853248
 20
221.03549878723598
 10
358.25883915867587
 20
222.0772702325269
 10
352.8709635982592
 20
223.08408975547417
 10
347.4737828178222
 20
224.06433878458967
 10
342.0779348771984
 20
225.0155329559709
 10
336.6809880270089
 20
225.9316249725316
 10
331.27738071616034
 20
226.81253652682722
 10
325.86409134603025
 20
227.6609707105411
 10
320.44320825680467
 20
228.47984602607045
 10
315.0197762823747
 20
229.26919547626218
 10
309.5943089254346
 20
230.0247566495405
 10
304.1565382955714
 20
230.74751699642667
 10
298.7150996224781
 20
231.44391673374278
 10
293.27493484500064
 20
232.1088532737668
 10
287.8328149900543
 20
232.74092733670244
 10
282.3899219543635
 20
233.339470256622
 10
276.94204421590774
 20
233.90247214174252
 10
271.48333728844426
 20
234.43549182389864
 10
266.0329988541383
 20
234.9418655021938
 10
260.5838149995533
 20
235.4086528921023
 10
255.12858970109068
 20
235.8446047265332
 10
249.68195417707233
 20
236.24838077550083
 10
244.23704060094457
 20
236.61386491839068
 10
238.7896842674903
 20
236.9438692046598
 10
233.34609723510954
 20
237.24030536546815
 10
227.90458365654487
 20
237.49958680438823
 10
222.4633068628807
 20
237.72400018904742
 10
217.02935009799342
 20
237.91529413529975
 10
211.60773906631346
 20
238.06892630367415
 10
206.19270577588966
 20
238.1787580718869
 10
200.77325814114846
 20
238.24981060914104
 10
195.3713493725994
 20
238.28797107741116
 10
189.97513668765112
 20
238.27688857966456
 10
184.5795479130718
 20
238.23106836687094
 10
179.20282361447673
 20
238.14555594845564
 10
173.83604948559093
 20
238.01699006689282
 10
168.48907977090957
 20
237.8461420416411
 10
163.1534402592402
 20
237.62597391726513
 10
157.82967943796206
 20
237.3608175075471
 10
152.51819115531848
 20
237.0500018185105
 10
147.2263677831534
 20
236.697189373974
 10
141.9577976915234
 20
236.29501944705132
 10
136.7065560675161
 20
235.8433131954177
 10
131.47710426272133
 20
235.34441115115737
 10
126.27295448161834
 20
234.8002809486906
 10
121.11001762214228
 20
234.21192226889846
 10
115.99044576155667
 20
233.56843638909533
 10
110.9035060349344
 20
232.86683617975285
 10
105.86160075450054
 20
232.1170402822085
 10
100.8680779094831
 20
231.31013183827582
 10
95.92269363380811
 20
230.44708536434615
 10
91.02360614633926
 20
229.52848554268286
 10
86.18350233686479
 20
228.5659857136116
 10
81.4217462221309
 20
227.554810993478
 10
76.73681141789933
 20
226.48773218850573
 10
72.13362601734136
 20
225.36329358925016
 10
67.60885549603796
 20
224.17829664768865
 10
63.17253788508566
 20
222.9333632155029
 10
58.81386500846136
 20
221.6218219376756
 10
54.558465806224774
 20
220.2625884556656
 10
50.41166910621223
 20
218.83082738504422
 10
46.37897231342572
 20
217.33939995874198
 10
42.48786021649289
 20
215.78588178806643
 10
38.74950151905762
 20
214.17133619180441
 10
35.20294382199759
 20
212.51165279420877
 10
31.88887569381683
 20
210.8215116068468
 10
28.82935123388134
 20
209.10602165193617
 10
26.06845047007579
 20
207.42701679097797
 10
23.634239891962807
 20
205.80254322167073
 10
21.52170505519814
 20
204.2525429631236
 10
19.706208606903374
 20
202.79229779766686
 10
18.17569132362587
 20
201.4586280437535
 10
16.872739646663092
 20
200.1800131913773
 10
15.76651766301211
 20
199.0171914705536
 10
14.844417438587925
 20
197.9507593803519
 10
14.070365875718807
 20
196.93739292478344
 10
13.415359177361154
 20
195.97553313386902
 10
12.867226146538542
 20
195.08666071535677
 10
12.407888273475322
 20
194.23791685759844
 10
12.016027747775922
 20
193.41862679658362
 10
11.686920043625378
 20
192.6649012525034
 10
11.41565789764988
 20
191.95261439300072
 10
11.19200231829089
 20
191.26544641342971
 10
11.012442352388774
 20
190.63117239867117
 10
10.871079764037802
 20
190.00691897270758
 10
10.759933487036221
 20
189.41673006097588
 10
10.683166399260472
 20
188.93950190151602
 10
10.68046275354925
 20
188.40200716586756
 10
10.683173598595602
 20
187.80391546985726
 10
10.701235908599102
 20
187.23470564639712
 10
10.755296349750182
 20
186.66895519600777
 10
10.865260535555706
 20
186.08221569053762
 10
11.045469700829358
 20
185.46322743929795
 10
11.301700547350094
 20
184.8156790302535
 10
11.64164506886388
 20
184.14212042433076
 10
12.07695322820797
 20
183.44191710442203
 10
12.61764657439491
 20
182.71659569527978
 10
13.271701000131486
 20
181.97089537334392
 10
14.053756719538967
 20
181.2088395415751
 10
14.986397010328687
 20
180.43319274658177
 10
16.10408457650385
 20
179.64208280533083
 10
17.441361566329533
 20
178.8277136380294
 10
19.00889448149192
 20
177.98365625748622
 10
20.821946786819467
 20
177.11805789753188
 10
22.945691483461957
 20
176.25004404392487
 10
25.435156923878623
 20
175.38013378766152
 10
28.288314872723333
 20
174.495476095197
 10
31.458078279368806
 20
173.61027864354753
 10
34.92875550352332
 20
172.77347858567188
 10
38.66900360144743
 20
171.98035877562347
 10
42.58415308817558
 20
171.23256104266432
 10
46.638414835874556
 20
170.55599169387602
 10
50.82868431026438
 20
169.9529033543866
 10
55.15895348813362
 20
169.3939411855895
 10
59.56659876252772
 20
168.84688191854212
 10
63.98253377444513
 20
168.33086121235348
 10
68.44685708660654
 20
167.88813686269796
 10
73.021335101797
 20
167.4911013959567
 10
77.66380857296994
 20
167.09539568655669
 10
82.34696501070826
 20
166.7118486932567
 10
87.07100320187084
 20
166.3540684344748
 10
91.8483955035716
 20
166.03173311849224
 10
96.70395657764152
 20
165.7424662916069
 10
101.64483340954152
 20
165.4736602686452
 10
106.6671206355646
 20
165.21917275042233
 10
111.76378814605835
 20
164.97343418609668
 10
116.91099312861195
 20
164.73851269155787
 10
122.11506340215136
 20
164.52705414525997
 10
125.2972872010305
 20
164.4039905180201
 10
125.23932221081407
 20
162.90511091648128
 10
127.32062925074045
 20
162.82462217341316
 10
132.64691674166838
 20
162.6534114816714
 10
138.04184769443404
 20
162.49797620837305
 10
143.49553563330636
 20
162.34732023311875
 10
148.99573922935724
 20
162.20985794154814
 10
154.53325463470713
 20
162.08363267995753
 10
160.0980927628288
 20
161.96879264423458
 10
165.68484909595105
 20
161.86714779181733
 10
171.29319998344394
 20
161.78042702340093
 10
176.92376246945395
 20
161.70716308786984
 10
182.57232593684557
 20
161.6436107818634
 10
188.2321940131351
 20
161.58680128847723
 10
193.900334614198
 20
161.53628158586457
 10
199.57827401816309
 20
161.49088991638016
 10
205.26638582128393
 20
161.4491236920149
 10
210.96082242560186
 20
161.41228364421252
 10
216.65920408073805
 20
161.38175513072275
 10
222.36145273023922
 20
161.35636203511172
 10
228.06355518881372
 20
161.33371777778302
 10
233.76547860027475
 20
161.31646816047305
 10
242.5050490897788
 20
161.30255449594964
 10
449.429579881605
 20
200.07156589768908
  0
LWPOLYLINE
  5
8D
330
17
100
AcDbEntity
  8
Layer
100
AcDbPolyline
 90
5
 70
0
 10
392.62768541698733
 20
210.72215885015157
 10
388.7302315680537
 20
211.62207745504435
 10
389.6301501729464
 20
215.519531303978
 10
393.52760402188005
 20
214.61961269908522
 10
392.62768541698733
 20
210.72215885015157
  0
LWPOLYLINE
  5
8E
330
17
100
AcDbEntity
  8
Layer
100
AcDbPolyline
 90
5
 70
0
 10
172.2660248150398
 20
233.9647621936318
 10
168.26806670187122
 20
233.83696968465964
 10
168.14027419289906
 20
237.83492779782821
 10
172.13823230606764
 20
237.96272030680038
 10
172.2660248150398
 20
233.9647621936318
  0
LWPOLYLINE
  5
8F
330
17
100
AcDbEntity
  8
Layer
100
AcDbPolyline
 90
5
 70
0
 10
73.02787285102767
 20
221.46258348276334
 10
69.1584204781604
 20
220.44900648316641
 10
68.14484347856347
 20
224.3184588560337
 10
72.01429585143075
 20
225.3320358556306
 10
73.02787285102767
 20
221.46258348276334
  0
LWPOLYLINE
  5
90
330
17
100
AcDbEntity
  8
Layer
100
AcDbPolyline
 90
5
 70
0
 10
23.57835701564955
 20
199.4891848251676
 10
22.020561637148973
 20
198.23488280463098
 10
18.884806585807432
 20
202.12937125088243
 10
20.44260196430801
 20
203.38367327141904
 10
23.57835701564955
 20
199.4891848251676
  0
LWPOLYLINE
  5
91
330
17
100
AcDbEntity
  8
Layer
100
AcDbPolyline
 90
5
 70
0
 10
17.47673939483551
 20
184.7947769229138
 10
19.112091988114802
 20
183.64342037707115
 10
16.23370062350821
 20
179.5550388938729
 10
14.598348030228916
 20
180.70639543971555
 10
17.47673939483551
 20
184.7947769229138
  0
LWPOLYLINE
  5
92
330
17
100
AcDbEntity
  8
Layer
100
AcDbPolyline
 90
5
 70
0
 10
94.3018181316693
 20
169.89267310616256
 10
98.2947397403804
 20
169.6548138480119
 10
98.05688048222974
 20
165.66189223930084
 10
94.06395887351864
 20
165.8997514974515
 10
94.3018181316693
 20
169.89267310616256
  0
LWPOLYLINE
  5
93
330
17
100
AcDbEntity
  8
Layer
100
AcDbPolyline
 90
300
 70
1
 10
262.27223623853206
 20
200.0
 10
262.2657034590107
 20
200.62790982395944
 10
262.24610800513824
 20
201.25554238061702
 10
262.21345852971535
 20
201.88262052510427
 10
262.1677694498313
 20
202.50886735736557
 10
262.10906094049767
 20
203.13400634442934
 10
262.03735892573934
 20
203.7577614425173
 10
261.9526950671476
 20
204.37985721893756
 10
261.85510674989905
 20
205.00001897370794
 10
261.74463706624726
 20
205.6179728608558
 10
261.62133479649475
 20
206.2334460093407
 10
261.4852543874527
 20
206.84616664354655
 10
261.336455928399
 20
207.45586420329008
 10
261.17500512454427
 20
208.06226946329255
 10
261.00097326801847
 20
208.6651146520622
 10
260.8144372063902
 20
209.26413357013442
 10
260.61547930873314
 20
209.85906170761808
 10
260.404187429254
 20
210.44963636099558
 10
260.1806548684986
 20
211.03559674912532
 10
259.94498033215314
 20
211.61668412839538
 10
259.6972678874583
 20
212.19264190697734
 10
259.43762691725624
 20
212.7632157581301
 10
259.1661720716903
 20
213.3281537325032
 10
258.88302321757845
 20
213.8872063693909
 10
258.58830538548375
 20
214.4401268068867
 10
258.28214871450416
 20
214.9866708908907
 10
257.96468839480696
 20
215.52659728292133
 10
257.63606460793244
 20
216.05966756668334
 10
257.29642246489374
 20
216.58564635334602
 10
256.9459119420999
 20
217.10430138548406
 10
256.58468781513056
 20
217.615403639636
 10
256.21290959039123
 20
218.11872742743455
 10
255.83074143468005
 20
218.61405049526414
 10
255.4383521026961
 20
219.1011541224019
 10
255.03591486252213
 20
219.5798232175987
 10
254.62360741911436
 20
220.04984641405707
 10
254.20161183583286
 20
220.51101616276523
 10
253.77011445404756
 20
220.96312882414458
 10
253.3293058108551
 20
221.40598475797134
 10
252.87938055494303
 20
221.83938841153207
 10
252.42053736063846
 20
222.26314840597414
 10
251.95297884017907
 20
222.67707762081335
 10
251.4769114542451
 20
223.08099327656097
 10
250.99254542079245
 20
223.47471701543415
 10
250.50009462222593
 20
223.8580749801136
 10
249.99977651095517
 20
224.23089789051403
 10
249.49181201337356
 20
224.5930211185336
 10
248.9764254323035
 20
224.94428476074907
 10
248.4538443479504
 20
225.28453370902446
 10
247.92429951740988
 20
225.61361771900263
 10
247.38802477277184
 20
225.93139147644882
 10
246.84525691786672
 20
226.23771466141753
 10
246.29623562369972
 20
226.53245201021355
 10
245.74120332261876
 20
226.81547337512086
 10
245.1804051012632
 20
227.0866537818721
 10
244.61408859234052
 20
227.3458734848337
 10
244.04250386527855
 20
227.59301801988215
 10
243.465903315802
 20
227.8279782549482
 10
242.88454155448153
 20
228.05065043820642
 10
242.298675294305
 20
228.26093624388915
 10
241.70856323732005
 20
228.45874281570443
 10
241.11446596039872
 20
228.64398280783857
 10
240.516645800174
 20
228.81657442352582
 10
239.91536673719926
 20
228.97644145116732
 10
239.3108942793821
 20
229.12351329798412
 10
238.70349534474323
 20
229.2577250211889
 10
238.09343814355321
 20
229.37901735666287
 10
237.48099205989834
 20
229.48733674512525
 10
236.866427532728
 20
229.58263535578337
 10
236.2500159364368
 20
229.66487110745356
 10
235.6320294610329
 20
229.73400768714293
 10
235.0127409919468
 20
229.79001456608412
 10
234.3924239895328
 20
229.83286701321606
 10
233.77135236831654
 20
229.86254610610447
 10
233.14980037604204
 20
229.87903873929739
 10
232.52804247257168
 20
229.88233763011232
 10
231.90635320869245
 20
229.8724413218519
 10
231.28500710488203
 20
229.84935418444735
 10
230.6642785300882
 20
229.81308641252852
 10
230.04444158057544
 20
229.7636540209226
 10
229.42576995889146
 20
229.70107883758206
 10
228.80853685300815
 20
229.62538849394636
 10
228.19301481568917
 20
229.53661641274044
 10
227.5794756441386
 20
229.43480179321637
 10
226.96819025998278
 20
229.3199895938439
 10
226.3594285896389
 20
229.19223051245817
 10
225.7534594451233
 20
229.051580963873
 10
225.15055040535145
 20
228.8981030549695
 10
224.55096769798274
 20
228.7318645572718
 10
223.9549760818618
 20
228.55293887702058
 10
223.36283873010842
 20
228.36140502275933
 10
222.77481711390786
 20
228.15734757044612
 10
222.1911708870523
 20
227.94085662610752
 10
221.61215777128524
 20
227.71202778605007
 10
221.03803344249866
 20
227.4709620946477
 10
220.46905141783395
 20
227.21776599972347
 10
219.9054629437357
 20
226.95255130554517
 10
219.3475168850084
 20
226.6754351234556
 10
218.7954596149247
 20
226.3865398201597
 10
218.24953490643412
 20
226.0859929636906
 10
217.7099838245195
 20
225.77392726707942
 10
217.17704461974958
 20
225.45048052975275
 10
216.65095262307437
 20
225.11579557668443
 10
216.1319401419095
 20
224.77002019532796
 10
215.62023635755588
 20
224.41330707035775
 10
215.11606722399958
 20
224.0458137162479
 10
214.61965536813707
 20
223.66770240771825
 10
214.13121999146935
 20
223.2791401080784
 10
213.6509767733087
 20
222.8802983955013
 10
213.1791377755409
 20
222.47135338725948
 10
212.71591134898455
 20
222.05248566195627
 10
212.26150204138924
 20
221.62388017978753
 10
211.81611050711305
 20
221.1857262008685
 10
211.37993341851924
 20
220.73821720166166
 10
210.9531633791313
 20
220.28155078954322
 10
210.53598883858447
 20
219.8159286155451
 10
210.12859400941198
 20
219.34155628531147
 10
209.73115878570175
 20
218.85864326830932
 10
209.34385866366028
 20
218.36740280533235
 10
208.96686466411856
 20
217.86805181434005
 10
208.60034325701395
 20
217.3608107946727
 10
208.2444562878818
 20
216.8459037296852
 10
207.89936090638912
 20
216.32355798784224
 10
207.5652094969415
 20
215.79400422231873
 10
207.2421496113946
 20
215.25747626915003
 10
206.9303239038994
 20
214.71421104397638
 10
206.62987006791005
 20
214.1644484374276
 10
206.34092077538241
 20
213.6084312091944
 10
206.06360361818983
 20
213.04640488083217
 10
205.79804105178212
 20
212.47861762734587
 10
205.54435034111268
 20
211.90532016760275
 10
205.3026435088577
 20
211.32676565362206
 10
205.07302728594996
 20
210.7432095587902
 10
204.85560306444953
 20
210.15490956505087
 10
204.6504668527719
 20
209.56212544911997
 10
204.4577092332933
 20
208.9651189677756
 10
204.27741532235214
 20
208.36415374227343
 10
204.10966473266407
 20
207.7594951419392
 10
203.95453153816706
 20
207.151410166989
 10
203.81208424131265
 20
206.5401673306295
 10
203.68238574281708
 20
205.92603654048997
 10
203.56549331388612
 20
205.30928897943895
 10
203.4614585709257
 20
204.69019698583716
 10
203.37032745274968
 20
204.06903393328085
 10
203.29214020029434
 20
203.4460741098876
 10
203.22693133884934
 20
202.82159259717838
 10
203.17472966281215
 20
202.1958651486093
 10
203.1355582229734
 20
201.56916806780674
 10
203.1094343163382
 20
200.9417780865593
 10
203.0963694784883
 20
200.313972242621
 10
203.0963694784883
 20
199.686027757379
 10
203.1094343163382
 20
199.0582219134407
 10
203.1355582229734
 20
198.43083193219326
 10
203.17472966281215
 20
197.8041348513907
 10
203.22693133884934
 20
197.17840740282162
 10
203.29214020029434
 20
196.5539258901124
 10
203.37032745274968
 20
195.93096606671915
 10
203.4614585709257
 20
195.30980301416287
 10
203.56549331388612
 20
194.69071102056108
 10
203.68238574281708
 20
194.07396345951003
 10
203.81208424131268
 20
193.4598326693705
 10
203.95453153816706
 20
192.848589833011
 10
204.10966473266407
 20
192.2405048580608
 10
204.27741532235214
 20
191.6358462577266
 10
204.4577092332933
 20
191.03488103222443
 10
204.65046685277187
 20
190.43787455088003
 10
204.85560306444953
 20
189.84509043494913
 10
205.07302728594996
 20
189.2567904412098
 10
205.3026435088577
 20
188.67323434637794
 10
205.5443503411127
 20
188.09467983239725
 10
205.79804105178212
 20
187.52138237265413
 10
206.06360361818983
 20
186.95359511916783
 10
206.34092077538241
 20
186.3915687908056
 10
206.62987006791005
 20
185.8355515625724
 10
206.9303239038994
 20
185.28578895602365
 10
207.2421496113946
 20
184.74252373084997
 10
207.5652094969415
 20
184.20599577768127
 10
207.89936090638912
 20
183.6764420121578
 10
208.2444562878818
 20
183.1540962703148
 10
208.60034325701395
 20
182.6391892053273
 10
208.96686466411856
 20
182.13194818565998
 10
209.34385866366028
 20
181.63259719466765
 10
209.73115878570175
 20
181.14135673169068
 10
210.12859400941198
 20
180.6584437146885
 10
210.5359888385845
 20
180.1840713844549
 10
210.9531633791313
 20
179.71844921045678
 10
211.37993341851924
 20
179.26178279833834
 10
211.81611050711305
 20
178.8142737991315
 10
212.26150204138924
 20
178.37611982021247
 10
212.71591134898455
 20
177.94751433804373
 10
213.1791377755409
 20
177.52864661274052
 10
213.6509767733087
 20
177.1197016044987
 10
214.13121999146935
 20
176.72085989192163
 10
214.61965536813707
 20
176.33229759228175
 10
215.11606722399958
 20
175.9541862837521
 10
215.62023635755585
 20
175.58669292964225
 10
216.1319401419095
 20
175.22997980467204
 10
216.65095262307437
 20
174.88420442331557
 10
217.17704461974958
 20
174.54951947024722
 10
217.7099838245195
 20
174.22607273292058
 10
218.24953490643415
 20
173.91400703630939
 10
218.79545961492474
 20
173.6134601798403
 10
219.3475168850084
 20
173.3245648765444
 10
219.9054629437357
 20
173.04744869445483
 10
220.46905141783395
 20
172.78223400027653
 10
221.03803344249866
 20
172.5290379053523
 10
221.6121577712852
 20
172.28797221394996
 10
222.1911708870523
 20
172.05914337389248
 10
222.77481711390786
 20
171.84265242955388
 10
223.36283873010842
 20
171.6385949772407
 10
223.9549760818618
 20
171.44706112297942
 10
224.55096769798274
 20
171.2681354427282
 10
225.15055040535145
 20
171.1018969450305
 10
225.7534594451233
 20
170.948419036127
 10
226.3594285896389
 20
170.80776948754183
 10
226.96819025998278
 20
170.6800104061561
 10
227.57947564413863
 20
170.56519820678363
 10
228.1930148156892
 20
170.46338358725956
 10
228.80853685300815
 20
170.37461150605364
 10
229.42576995889146
 20
170.29892116241794
 10
230.0444415805754
 20
170.2363459790774
 10
230.66427853008818
 20
170.18691358747148
 10
231.285007104882
 20
170.15064581555265
 10
231.90635320869245
 20
170.1275586781481
 10
232.52804247257168
 20
170.11766236988768
 10
233.14980037604204
 20
170.12096126070261
 10
233.77135236831654
 20
170.13745389389553
 10
234.3924239895328
 20
170.16713298678394
 10
235.0127409919468
 20
170.20998543391588
 10
235.6320294610329
 20
170.26599231285707
 10
236.2500159364368
 20
170.33512889254644
 10
236.866427532728
 20
170.41736464421663
 10
237.48099205989834
 20
170.51266325487475
 10
238.09343814355324
 20
170.62098264333713
 10
238.7034953447432
 20
170.7422749788111
 10
239.31089427938207
 20
170.87648670201588
 10
239.91536673719926
 20
171.02355854883265
 10
240.516645800174
 20
171.18342557647418
 10
241.11446596039872
 20
171.3560171921614
 10
241.70856323732005
 20
171.54125718429557
 10
242.29867529430499
 20
171.73906375611085
 10
242.88454155448153
 20
171.94934956179358
 10
243.465903315802
 20
172.1720217450518
 10
244.04250386527855
 20
172.40698198011785
 10
244.61408859234052
 20
172.6541265151663
 10
245.18040510126323
 20
172.9133462181279
 10
245.74120332261876
 20
173.18452662487914
 10
246.29623562369972
 20
173.46754798978648
 10
246.84525691786672
 20
173.7622853385825
 10
247.38802477277181
 20
174.06860852355115
 10
247.92429951740988
 20
174.38638228099737
 10
248.4538443479504
 20
174.71546629097554
 10
248.97642543230347
 20
175.05571523925093
 10
249.49181201337356
 20
175.4069788814664
 10
249.99977651095514
 20
175.76910210948597
 10
250.5000946222259
 20
176.1419250198864
 10
250.99254542079245
 20
176.52528298456585
 10
251.4769114542451
 20
176.91900672343903
 10
251.95297884017907
 20
177.32292237918665
 10
252.4205373606385
 20
177.73685159402586
 10
252.87938055494303
 20
178.16061158846793
 10
253.3293058108551
 20
178.59401524202866
 10
253.77011445404756
 20
179.03687117585542
 10
254.20161183583286
 20
179.48898383723477
 10
254.62360741911434
 20
179.95015358594293
 10
255.0359148625221
 20
180.4201767824013
 10
255.4383521026961
 20
180.89884587759806
 10
255.83074143468005
 20
181.38594950473586
 10
256.21290959039123
 20
181.88127257256542
 10
256.58468781513056
 20
182.38459636036396
 10
256.9459119420999
 20
182.89569861451594
 10
257.29642246489374
 20
183.41435364665398
 10
257.63606460793244
 20
183.94033243331666
 10
257.96468839480696
 20
184.47340271707867
 10
258.28214871450416
 20
185.0133291091093
 10
258.58830538548375
 20
185.5598731931133
 10
258.8830232175785
 20
186.1127936306091
 10
259.1661720716903
 20
186.6718462674968
 10
259.43762691725624
 20
187.2367842418699
 10
259.6972678874583
 20
187.80735809302263
 10
259.94498033215314
 20
188.3833158716046
 10
260.1806548684986
 20
188.96440325087465
 10
260.404187429254
 20
189.55036363900442
 10
260.61547930873314
 20
190.14093829238192
 10
260.8144372063902
 20
190.73586642986555
 10
261.00097326801847
 20
191.33488534793779
 10
261.17500512454427
 20
191.93773053670745
 10
261.336455928399
 20
192.54413579670992
 10
261.4852543874527
 20
193.15383335645345
 10
261.62133479649475
 20
193.7665539906593
 10
261.74463706624726
 20
194.3820271391442
 10
261.85510674989905
 20
194.99998102629206
 10
261.9526950671476
 20
195.62014278106244
 10
262.03735892573934
 20
196.2422385574827
 10
262.10906094049767
 20
196.86599365557063
 10
262.1677694498313
 20
197.49113264263443
 10
262.21345852971535
 20
198.11737947489573
 10
262.24610800513824
 20
198.74445761938298
 10
262.2657034590107
 20
199.37209017604053
 10
262.27223623853206
 20
200.0
  0
LINE
  5
94
330
17
100
AcDbEntity
  8
Layer
 62
7
100
AcDbLine
 10
16.701488502930033
 20
200.00000000000003
 30
0.0
 11
449.0476062571924
 21
199.99999999999997
 31
0.0
  0
LINE
  5
95
330
17
100
AcDbEntity
  8
Layer
 62
7
100
AcDbLine
 10
101.07071205378253
 20
200.00000000000003
 30
0.0
 11
113.07071205378251
 21
200.00000000000003
 31
0.0
  0
LWPOLYLINE
  5
96
330
17
100
AcDbEntity
  8
Layer
100
AcDbPolyline
 90
5
 70
0
 10
107.07071205378251
 20
205.00000000000003
 10
112.07071205378251
 20
200.00000000000003
 10
107.07071205378251
 20
195.00000000000003
 10
102.07071205378251
 20
200.00000000000003
 10
107.07071205378251
 20
205.00000000000003
  0
LINE
  5
97
330
17
100
AcDbEntity
  8
Layer
 62
7
100
AcDbLine
 10
226.87454738006122
 20
200.0
 30
0.0
 11
238.87454738006122
 21
200.0
 31
0.0
  0
LWPOLYLINE
  5
98
330
17
100
AcDbEntity
  8
Layer
100
AcDbPolyline
 90
5
 70
0
 10
232.87454738006122
 20
205.0
 10
237.87454738006122
 20
200.0
 10
232.87454738006122
 20
195.0
 10
227.87454738006122
 20
200.0
 10
232.87454738006122
 20
205.0
  0
LINE
  5
99
330
17
100
AcDbEntity
  8
Layer
 62
7
100
AcDbLine
 10
352.67838270633996
 20
199.99999999999997
 30
0.0
 11
364.67838270633996
 21
199.99999999999997
 31
0.0
  0
LWPOLYLINE
  5
9A
330
17
100
AcDbEntity
  8
Layer
100
AcDbPolyline
 90
5
 70
0
 10
358.67838270633996
 20
204.99999999999997
 10
363.67838270633996
 20
199.99999999999997
 10
358.67838270633996
 20
194.99999999999997
 10
353.67838270633996
 20
199.99999999999997
 10
358.67838270633996
 20
204.99999999999997
  0
LINE
  5
9B
330
17
100
AcDbEntity
  8
Layer
 62
7
100
AcDbLine
 10
10.696212968525145
 20
189.020606843985
 30
0.0
 11
311.1690773394342
 21
174.16732448679406
 31
0.0
  0
LINE
  5
9C
330
17
100
AcDbEntity
  8
Layer
 62
7
100
AcDbLine
 10
68.69334695493455
 20
186.15363311971356
 30
0.0
 11
80.67871202791974
 21
185.56116027876075
 31
0.0
  0
LWPOLYLINE
  5
9D
330
17
100
AcDbEntity
  8
Layer
100
AcDbPolyline
 90
5
 70
0
 10
74.93289317515749
 20
190.85129881298099
 10
79.67993160517098
 20
185.6105330155068
 10
74.43916580769681
 20
180.8634945854933
 10
69.69212737768332
 20
186.10426038296748
 10
74.93289317515749
 20
190.85129881298099
  0
LINE
  5
9E
330
17
100
AcDbEntity
  8
Layer
 62
7
100
AcDbLine
 10
140.5655266737283
 20
182.60077392484055
 30
0.0
 11
152.5508917467135
 21
182.00830108388772
 31
0.0
  0
LWPOLYLINE
  5
9F
330
17
100
AcDbEntity
  8
Layer
100
AcDbPolyline
 90
5
 70
0
 10
146.80507289395123
 20
187.29843961810798
 10
151.55211132396474
 20
182.0576738206338
 10
146.31134552649056
 20
177.3106353906203
 10
141.56430709647705
 20
182.55140118809447
 10
146.80507289395123
 20
187.29843961810798
  0
LINE
  5
A0
330
17
100
AcDbEntity
  8
Layer
100
AcDbLine
 10
232.6834862385321
 20
229.88274999999996
 30
0.0
 11
232.6834862385321
 21
230.88274999999996
 31
0.0
  0
LINE
  5
A1
330
17
100
AcDbEntity
  8
Layer
100
AcDbLine
 10
232.6834862385321
 20
170.11725000000004
 30
0.0
 11
232.6834862385321
 21
169.11725000000004
 31
0.0
  0
LINE
  5
A2
330
17
100
AcDbEntity
  8
Layer
100
AcDbLine
 10
262.27223623853206
 20
200.0
 30
0.0
 11
263.27223623853206
 21
200.0
 31
0.0
  0
LINE
  5
A3
330
17
100
AcDbEntity
  8
Layer
100
AcDbLine
 10
203.09473623853216
 20
200.0
 30
0.0
 11
202.09473623853216
 21
200.0
 31
0.0
  0
LINE
  5
A4
330
17
100
AcDbEntity
  8
Layer
 62
7
100
AcDbLine
 10
152.6834862385321
 20
162.12579734815216
 30
0.0
 11
152.6834862385321
 21
237.05967449450065
 31
0.0
  0
LINE
  5
A5
330
17
100
AcDbEntity
  8
Layer
 62
7
100
AcDbLine
 10
152.6834862385321
 20
184.30265434937414
 30
0.0
 11
152.6834862385321
 21
196.30265434937414
 31
0.0
  0
LWPOLYLINE
  5
A6
330
17
100
AcDbEntity
  8
Layer
100
AcDbPolyline
 90
5
 70
0
 10
147.6834862385321
 20
190.30265434937414
 10
152.6834862385321
 20
195.30265434937414
 10
157.6834862385321
 20
190.30265434937414
 10
152.6834862385321
 20
185.30265434937414
 10
147.6834862385321
 20
190.30265434937414
  0
LINE
  5
A7
330
17
100
AcDbEntity
  8
Layer
 62
7
100
AcDbLine
 10
152.6834862385321
 20
202.88281749327868
 30
0.0
 11
152.6834862385321
 21
214.88281749327868
 31
0.0
  0
LWPOLYLINE
  5
A8
330
17
100
AcDbEntity
  8
Layer
100
AcDbPolyline
 90
5
 70
0
 10
147.6834862385321
 20
208.88281749327868
 10
152.6834862385321
 20
213.88281749327868
 10
157.6834862385321
 20
208.88281749327868
 10
152.6834862385321
 20
203.88281749327868
 10
147.6834862385321
 20
208.88281749327868
  0
LINE
  5
A9
330
17
100
AcDbEntity
  8
Layer
 62
7
100
AcDbLine
 10
362.6834862385321
 20
183.818972352422
 30
0.0
 11
362.6834862385321
 21
221.21897748960274
 31
0.0
  0
LINE
  5
AA
330
17
100
AcDbEntity
  8
Layer
 62
7
100
AcDbLine
 10
362.6834862385321
 20
192.85897415043527
 30
0.0
 11
362.6834862385321
 21
204.85897415043527
 31
0.0
  0
LWPOLYLINE
  5
AB
330
17
100
AcDbEntity
  8
Layer
100
AcDbPolyline
 90
5
 70
0
 10
357.6834862385321
 20
198.85897415043527
 10
362.6834862385321
 20
203.85897415043527
 10
367.6834862385321
 20
198.85897415043527
 10
362.6834862385321
 20
193.85897415043527
 10
357.6834862385321
 20
198.85897415043527
  0
LINE
  5
AC
330
17
100
AcDbEntity
  8
Layer
 62
7
100
AcDbLine
 10
362.6834862385321
 20
200.17897569158947
 30
0.0
 11
362.6834862385321
 21
212.17897569158947
 31
0.0
  0
LWPOLYLINE
  5
AD
330
17
100
AcDbEntity
  8
Layer
100
AcDbPolyline
 90
5
 70
0
 10
357.6834862385321
 20
206.17897569158947
 10
362.6834862385321
 20
211.17897569158947
 10
367.6834862385321
 20
206.17897569158947
 10
362.6834862385321
 20
201.17897569158947
 10
357.6834862385321
 20
206.17897569158947
  0
LWPOLYLINE
  5
AE
330
17
100
AcDbEntity
  8
NumLabel
 62
1
100
AcDbPolyline
 90
4
 70
0
 10
174.08256880733947
 20
175.69954128440367
 10
174.08256880733947
 20
180.69954128440367
 10
179.08256880733947
 20
180.69954128440367
 10
179.08256880733947
 20
170.69954128440367
  0
LWPOLYLINE
  5
AF
330
17
100
AcDbEntity
  8
NumLabel
 62
1
100
AcDbPolyline
 90
4
 70
0
 10
183.58256880733947
 20
180.69954128440367
 10
181.58256880733947
 20
180.69954128440367
 10
181.58256880733947
 20
170.69954128440367
 10
183.58256880733947
 20
170.69954128440367
  0
LWPOLYLINE
  5
B0
330
17
100
AcDbEntity
  8
NumLabel
 62
1
100
AcDbPolyline
 90
4
 70
0
 10
184.58256880733947
 20
170.69954128440367
 10
186.58256880733947
 20
170.69954128440367
 10
186.58256880733947
 20
180.69954128440367
 10
184.58256880733947
 20
180.69954128440367
  0
ENDSEC
  0
SECTION
  2
OBJECTS
  0
DICTIONARY
  5
A
330
0
100
AcDbDictionary
280
0
281
1
  3
ACAD_COLOR
350
B
  3
ACAD_GROUP
350
C
  3
ACAD_LAYOUT
350
D
  3
ACAD_MATERIAL
350
E
  3
ACAD_MLEADERSTYLE
350
F
  3
ACAD_MLINESTYLE
350
10
  3
ACAD_PLOTSETTINGS
350
11
  3
ACAD_PLOTSTYLENAME
350
12
  3
ACAD_SCALELIST
350
14
  3
ACAD_TABLESTYLE
350
15
  3
ACAD_VISUALSTYLE
350
16
  3
EZDXF_META
350
2D
  0
DICTIONARY
  5
B
330
A
100
AcDbDictionary
280
0
281
1
  0
DICTIONARY
  5
C
330
A
100
AcDbDictionary
280
0
281
1
  0
DICTIONARY
  5
D
330
A
100
AcDbDictionary
280
0
281
1
  3
Model
350
1A
  3
Layout1
350
1E
  0
DICTIONARY
  5
E
330
A
100
AcDbDictionary
280
0
281
1
  3
ByBlock
350
1F
  3
ByLayer
350
20
  3
Global
350
21
  0
DICTIONARY
  5
F
330
A
100
AcDbDictionary
280
0
281
1
  3
Standard
350
2C
  0
DICTIONARY
  5
10
330
A
100
AcDbDictionary
280
0
281
1
  3
Standard
350
22
  0
DICTIONARY
  5
11
330
A
100
AcDbDictionary
280
0
281
1
  0
ACDBDICTIONARYWDFLT
  5
12
330
A
100
AcDbDictionary
280
0
281
1
  3
Normal
350
13
100
AcDbDictionaryWithDefault
340
13
  0
ACDBPLACEHOLDER
  5
13
330
12
  0
DICTIONARY
  5
14
330
A
100
AcDbDictionary
280
0
281
1
  0
DICTIONARY
  5
15
330
A
100
AcDbDictionary
280
0
281
1
  0
DICTIONARY
  5
16
330
A
100
AcDbDictionary
280
0
281
1
  3
2dWireframe
350
5A
  3
Basic
350
5B
  3
Brighten
350
5C
  3
ColorChange
350
5D
  3
Conceptual
350
5E
  3
Dim
350
5F
  3
EdgeColorOff
350
60
  3
Facepattern
350
61
  3
Flat
350
62
  3
FlatWithEdges
350
63
  3
Gouraud
350
64
  3
GouraudWithEdges
350
65
  3
Hidden
350
66
  3
JitterOff
350
67
  3
Linepattern
350
68
  3
Modeling
350
69
  3
OverhangOff
350
6A
  3
Realistic
350
6B
  3
Shaded
350
6C
  3
Shaded with edges
350
6D
  3
Shades of Gray
350
6E
  3
Sketchy
350
6F
  3
Thicken
350
70
  3
Wireframe
350
71
  3
X-Ray
350
72
  0
LAYOUT
  5
1A
330
D
100
AcDbPlotSettings
  1

  2
Adobe PDF
  4
A3
  6

 40
7.5
 41
20.0
 42
7.5
 43
20.0
 44
420.0
 45
297.0
 46
0.0
 47
0.0
 48
0.0
 49
0.0
140
0.0
141
0.0
142
1.0
143
1.0
 70
1024
 72
1
 73
0
 74
5
  7

 75
16
 76
0
 77
2
 78
300
147
1.0
148
0.0
149
0.0
100
AcDbLayout
  1
Model
 70
1
 71
0
 10
0.0
 20
0.0
 11
420.0
 21
297.0
 12
0.0
 22
0.0
 32
0.0
 14
1e+20
 24
1e+20
 34
1e+20
 15
-1e+20
 25
-1e+20
 35
-1e+20
146
0.0
 13
0.0
 23
0.0
 33
0.0
 16
1.0
 26
0.0
 36
0.0
 17
0.0
 27
1.0
 37
0.0
 76
1
330
17
  0
LAYOUT
  5
1E
330
D
100
AcDbPlotSettings
  1

  2
Adobe PDF
  4
A3
  6

 40
7.5
 41
20.0
 42
7.5
 43
20.0
 44
420.0
 45
297.0
 46
0.0
 47
0.0
 48
0.0
 49
0.0
140
0.0
141
0.0
142
1.0
143
1.0
 70
0
 72
1
 73
0
 74
5
  7

 75
16
 76
0
 77
2
 78
300
147
1.0
148
0.0
149
0.0
100
AcDbLayout
  1
Layout1
 70
1
 71
1
 10
0.0
 20
0.0
 11
420.0
 21
297.0
 12
0.0
 22
0.0
 32
0.0
 14
1e+20
 24
1e+20
 34
1e+20
 15
-1e+20
 25
-1e+20
 35
-1e+20
146
0.0
 13
0.0
 23
0.0
 33
0.0
 16
1.0
 26
0.0
 36
0.0
 17
0.0
 27
1.0
 37
0.0
 76
1
330
1B
  0
MATERIAL
  5
1F
102
{ACAD_REACTORS
330
E
102
}
330
E
100
AcDbMaterial
  1
ByBlock
  2

 70
0
 40
1.0
 71
1
 41
1.0
 91
-1023410177
 42
1.0
 72
1
  3

 73
1
 74
1
 75
1
 44
0.5
 73
0
 45
1.0
 46
1.0
 77
1
  4

 78
1
 79
1
170
1
 48
1.0
171
1
  6

172
1
173
1
174
1
140
1.0
141
1.0
175
1
  7

176
1
177
1
178
1
143
1.0
179
1
  8

270
1
271
1
272
1
145
1.0
146
1.0
273
1
  9

274
1
275
1
276
1
 42
1.0
 72
1
  3

 73
1
 74
1
 75
1
 94
63
  0
MATERIAL
  5
20
102
{ACAD_REACTORS
330
E
102
}
330
E
100
AcDbMaterial
  1
ByLayer
  2

 70
0
 40
1.0
 71
1
 41
1.0
 91
-1023410177
 42
1.0
 72
1
  3

 73
1
 74
1
 75
1
 44
0.5
 73
0
 45
1.0
 46
1.0
 77
1
  4

 78
1
 79
1
170
1
 48
1.0
171
1
  6

172
1
173
1
174
1
140
1.0
141
1.0
175
1
  7

176
1
177
1
178
1
143
1.0
179
1
  8

270
1
271
1
272
1
145
1.0
146
1.0
273
1
  9

274
1
275
1
276
1
 42
1.0
 72
1
  3

 73
1
 74
1
 75
1
 94
63
  0
MATERIAL
  5
21
102
{ACAD_REACTORS
330
E
102
}
330
E
100
AcDbMaterial
  1
Global
  2

 70
0
 40
1.0
 71
1
 41
1.0
 91
-1023410177
 42
1.0
 72
1
  3

 73
1
 74
1
 75
1
 44
0.5
 73
0
 45
1.0
 46
1.0
 77
1
  4

 78
1
 79
1
170
1
 48
1.0
171
1
  6

172
1
173
1
174
1
140
1.0
141
1.0
175
1
  7

176
1
177
1
178
1
143
1.0
179
1
  8

270
1
271
1
272
1
145
1.0
146
1.0
273
1
  9

274
1
275
1
276
1
 42
1.0
 72
1
  3

 73
1
 74
1
 75
1
 94
63
  0
MLINESTYLE
  5
22
102
{ACAD_REACTORS
330
10
102
}
330
10
100
AcDbMlineStyle
  2
Standard
 70
0
  3

 62
256
 51
90.0
 52
90.0
 71
2
 49
0.5
 62
256
  6
BYLAYER
 49
-0.5
 62
256
  6
BYLAYER
  0
MLEADERSTYLE
  5
2C
102
{ACAD_REACTORS
330
F
102
}
330
F
100
AcDbMLeaderStyle
179
2
170
2
171
1
172
0
 90
2
 40
0.0
 41
0.0
173
1
 91
-1056964608
 92
-2
290
1
 42
2.0
291
1
 43
8.0
  3
Standard
 44
4.0
300

342
29
174
1
175
1
176
0
178
1
 93
-1056964608
 45
4.0
292
0
297
0
 46
4.0
 94
-1056964608
 47
1.0
 49
1.0
140
1.0
294
1
141
0.0
177
0
142
1.0
295
0
296
0
143
3.75
271
0
272
9
273
9
  0
DICTIONARY
  5
2D
330
A
100
AcDbDictionary
281
1
  3
CREATED_BY_EZDXF
350
2E
  3
WRITTEN_BY_EZDXF
350
B3
  0
DICTIONARYVAR
  5
2E
330
2D
100
DictionaryVariables
280
0
  1
1.3.0 @ 2026-01-06T17:07:24.097580+00:00
  0
VISUALSTYLE
  5
5A
102
{ACAD_REACTORS
330
16
102
}
330
16
100
AcDbVisualStyle
  2
2dWireframe
 70
4
 90
0
 40
0.6
 62
7
290
0
291
0
  0
VISUALSTYLE
  5
5B
102
{ACAD_REACTORS
330
16
102
}
330
16
100
AcDbVisualStyle
  2
Basic
 70
7
 90
1
 40
0.6
 62
7
290
0
291
1
  0
VISUALSTYLE
  5
5C
102
{ACAD_REACTORS
330
16
102
}
330
16
100
AcDbVisualStyle
  2
Brighten
 70
12
 90
2
 40
0.6
 62
7
290
0
291
1
  0
VISUALSTYLE
  5
5D
102
{ACAD_REACTORS
330
16
102
}
330
16
100
AcDbVisualStyle
  2
ColorChange
 70
16
 90
2
 40
0.6
 62
8
290
0
291
1
  0
VISUALSTYLE
  5
5E
102
{ACAD_REACTORS
330
16
102
}
330
16
100
AcDbVisualStyle
  2
Conceptual
 70
9
 90
3
 40
0.6
 62
7
290
0
291
0
  0
VISUALSTYLE
  5
5F
102
{ACAD_REACTORS
330
16
102
}
330
16
100
AcDbVisualStyle
  2
Dim
 70
11
 90
2
 40
0.6
 62
7
290
0
291
1
  0
VISUALSTYLE
  5
60
102
{ACAD_REACTORS
330
16
102
}
330
16
100
AcDbVisualStyle
  2
EdgeColorOff
 70
22
 90
2
 40
0.6
 62
7
290
0
291
1
  0
VISUALSTYLE
  5
61
102
{ACAD_REACTORS
330
16
102
}
330
16
100
AcDbVisualStyle
  2
Facepattern
 70
15
 90
2
 40
0.6
 62
7
290
0
291
1
  0
VISUALSTYLE
  5
62
102
{ACAD_REACTORS
330
16
102
}
330
16
100
AcDbVisualStyle
  2
Flat
 70
0
 90
2
 40
0.6
 62
7
290
0
291
1
  0
VISUALSTYLE
  5
63
102
{ACAD_REACTORS
330
16
102
}
330
16
100
AcDbVisualStyle
  2
FlatWithEdges
 70
1
 90
2
 40
0.6
 62
7
290
0
291
1
  0
VISUALSTYLE
  5
64
102
{ACAD_REACTORS
330
16
102
}
330
16
100
AcDbVisualStyle
  2
Gouraud
 70
2
 90
2
 40
0.6
 62
7
290
0
291
1
  0
VISUALSTYLE
  5
65
102
{ACAD_REACTORS
330
16
102
}
330
16
100
AcDbVisualStyle
  2
GouraudWithEdges
 70
3
 90
2
 40
0.6
 62
7
290
0
291
1
  0
VISUALSTYLE
  5
66
102
{ACAD_REACTORS
330
16
102
}
330
16
100
AcDbVisualStyle
  2
Hidden
 70
6
 90
1
 40
0.6
 62
7
290
0
291
0
  0
VISUALSTYLE
  5
67
102
{ACAD_REACTORS
330
16
102
}
330
16
100
AcDbVisualStyle
  2
JitterOff
 70
20
 90
2
 40
0.6
 62
7
290
0
291
1
  0
VISUALSTYLE
  5
68
102
{ACAD_REACTORS
330
16
102
}
330
16
100
AcDbVisualStyle
  2
Linepattern
 70
14
 90
2
 40
0.6
 62
7
290
0
291
1
  0
VISUALSTYLE
  5
69
102
{ACAD_REACTORS
330
16
102
}
330
16
100
AcDbVisualStyle
  2
Modeling
 70
10
 90
2
 40
0.6
 62
7
290
0
291
0
  0
VISUALSTYLE
  5
6A
102
{ACAD_REACTORS
330
16
102
}
330
16
100
AcDbVisualStyle
  2
OverhangOff
 70
21
 90
2
 40
0.6
 62
7
290
0
291
1
  0
VISUALSTYLE
  5
6B
102
{ACAD_REACTORS
330
16
102
}
330
16
100
AcDbVisualStyle
  2
Realistic
 70
8
 90
2
 40
0.6
 62
7
290
0
291
0
  0
VISUALSTYLE
  5
6C
102
{ACAD_REACTORS
330
16
102
}
330
16
100
AcDbVisualStyle
  2
Shaded
 70
27
 90
2
 40
0.6
 62
7
290
0
291
0
  0
VISUALSTYLE
  5
6D
102
{ACAD_REACTORS
330
16
102
}
330
16
100
AcDbVisualStyle
  2
Shaded with edges
 70
26
 90
2
 40
0.6
 62
7
290
0
291
0
  0
VISUALSTYLE
  5
6E
102
{ACAD_REACTORS
330
16
102
}
330
16
100
AcDbVisualStyle
  2
Shades of Gray
 70
23
 90
2
 40
0.6
 62
7
290
0
291
0
  0
VISUALSTYLE
  5
6F
102
{ACAD_REACTORS
330
16
102
}
330
16
100
AcDbVisualStyle
  2
Sketchy
 70
24
 90
1
 40
0.6
 62
7
290
0
291
0
  0
VISUALSTYLE
  5
70
102
{ACAD_REACTORS
330
16
102
}
330
16
100
AcDbVisualStyle
  2
Thicken
 70
13
 90
2
 40
0.6
 62
7
290
0
291
1
  0
VISUALSTYLE
  5
71
102
{ACAD_REACTORS
330
16
102
}
330
16
100
AcDbVisualStyle
  2
Wireframe
 70
5
 90
0
 40
0.6
 62
7
290
0
291
0
  0
VISUALSTYLE
  5
72
102
{ACAD_REACTORS
330
16
102
}
330
16
100
AcDbVisualStyle
  2
X-Ray
 70
25
 90
2
 40
0.5
 62
7
290
0
291
0
  0
DICTIONARYVAR
  5
B3
330
2D
100
DictionaryVariables
280
0
  1
1.3.0 @ 2026-01-06T17:07:24.164286+00:00
  0
ENDSEC
  0
EOF
