<?xml version="1.0" encoding="utf-8" standalone="no"?>
<!DOCTYPE svg PUBLIC "-//W3C//DTD SVG 1.1//EN"
  "http://www.w3.org/Graphics/SVG/1.1/DTD/svg11.dtd">
<svg xmlns:xlink="http://www.w3.org/1999/xlink" width="1152pt" height="185.355104pt" viewBox="0 0 1152 185.355104" xmlns="http://www.w3.org/2000/svg" version="1.1">
 <metadata>
  <rdf:RDF xmlns:dc="http://purl.org/dc/elements/1.1/" xmlns:cc="http://creativecommons.org/ns#" xmlns:rdf="http://www.w3.org/1999/02/22-rdf-syntax-ns#">
   <cc:Work>
    <dc:type rdf:resource="http://purl.org/dc/dcmitype/StillImage"/>
    <dc:date>2026-01-07T02:07:08.237894</dc:date>
    <dc:format>image/svg+xml</dc:format>
    <dc:creator>
     <cc:Agent>
      <dc:title>Matplotlib v3.10.1, https://matplotlib.org/</dc:title>
     </cc:Agent>
    </dc:creator>
   </cc:Work>
  </rdf:RDF>
 </metadata>
 <defs>
  <style type="text/css">*{stroke-linejoin: round; stroke-linecap: butt}</style>
 </defs>
 <g id="figure_1">
  <g id="patch_1">
   <path d="M 0 185.355104 
L 1152 185.355104 
L 1152 0 
L 0 0 
z
" style="fill: #ffffff"/>
  </g>
  <g id="axes_1">
   <g id="patch_2">
    <path d="M 0 185.355104 
L 1152 185.355104 
L 1152 0 
L 0 0 
z
" style="fill: #212830"/>
   </g>
   <g id="patch_3">
    <path d="M 1099.432743 175.924508 
L 1086.018675 171.150678 
L 1028.037818 150.890334 
L 931.807749 117.606087 
L 884.579575 101.527643 
L 842.024799 87.30955 
L 841.71576 88.246951 
L 813.369943 78.973069 
L 792.446131 72.317115 
L 771.293895 65.808895 
L 749.942822 59.526738 
L 728.380683 53.493 
L 706.654875 47.750862 
L 684.776042 42.319352 
L 673.808389 39.741542 
L 662.809427 37.280252 
L 640.650083 32.676175 
L 618.335559 28.419693 
L 595.962208 24.54338 
L 584.760467 22.76693 
L 562.303945 19.5443 
L 539.808012 16.718641 
L 517.346604 14.30471 
L 494.928993 12.324815 
L 472.574346 10.749149 
L 450.368895 9.568038 
L 428.331463 8.823697 
L 406.468305 8.469929 
L 384.887641 8.474679 
L 374.233781 8.631462 
L 363.663667 8.905344 
L 342.737636 9.762695 
L 322.215716 10.939426 
L 312.161372 11.669487 
L 302.23972 12.516525 
L 282.734868 14.536639 
L 263.758046 16.844936 
L 254.552906 18.10222 
L 245.545266 19.464861 
L 228.004317 22.50386 
L 211.155167 25.744781 
L 203.078732 27.432933 
L 195.231713 29.199524 
L 180.131874 32.957841 
L 165.808705 36.894106 
L 152.356852 40.950134 
L 145.968856 43.041398 
L 139.792388 45.185177 
L 128.028615 49.609229 
L 117.058948 54.14611 
L 106.917747 58.781584 
L 97.597235 63.493604 
L 93.257338 65.865254 
L 89.131462 68.251639 
L 85.213888 70.652405 
L 81.504725 73.060913 
L 78.010204 75.470473 
L 74.736028 77.879205 
L 71.686056 80.285181 
L 68.86269 82.687524 
L 66.260249 85.091373 
L 63.863888 87.498176 
L 61.665949 89.888081 
L 59.684517 92.224734 
L 57.950585 94.491902 
L 56.476111 96.712165 
L 55.245271 98.918624 
L 54.236169 101.113343 
L 53.440468 103.267738 
L 52.86163 105.366544 
L 52.503474 107.40972 
L 52.363636 109.559925 
L 52.445945 111.292346 
L 52.756937 113.106324 
L 53.322796 114.861231 
L 54.167755 116.593815 
L 55.292493 118.31629 
L 56.678961 120.013731 
L 58.322898 121.666536 
L 60.244037 123.268261 
L 62.461939 124.823704 
L 64.975045 126.336709 
L 67.773646 127.803168 
L 70.860141 129.217488 
L 74.245903 130.581975 
L 77.933536 131.905749 
L 81.91479 133.195852 
L 86.180266 134.453401 
L 95.545359 136.863505 
L 106.015388 139.12311 
L 117.595552 141.240838 
L 130.274993 143.206173 
L 144.104287 145.01502 
L 159.098953 146.689548 
L 175.297553 148.232295 
L 192.708581 149.664349 
L 211.31989 150.979647 
L 231.07486 152.176222 
L 258.616392 153.552129 
L 258.57154 154.538139 
L 273.591523 155.180058 
L 296.162397 156.006943 
L 319.454034 156.706539 
L 355.578242 157.524533 
L 392.938318 158.067557 
L 457.425883 158.770994 
L 577.238263 159.569757 
L 630.838864 159.817611 
L 761.534575 160.671001 
L 799.141606 161.172299 
L 835.484512 161.976924 
L 870.295617 162.9615 
L 903.423437 164.099264 
L 934.63663 165.361646 
L 963.82452 166.743352 
L 990.724668 168.220616 
L 1022.824501 170.245091 
L 1043.8524 171.814243 
L 1072.474354 174.194235 
L 1088.931768 175.753045 
L 1099.636364 176.929872 
L 1099.432743 175.924508 
L 1099.432743 175.924508 
" clip-path="url(#p8da8fc9e0c)" style="fill: none; stroke: #ff0000; stroke-width: 0.72; stroke-linejoin: miter"/>
   </g>
   <g id="patch_4">
    <path d="M 739.400295 60.634639 
L 735.594833 59.582928 
L 736.646543 55.777466 
L 740.452006 56.829177 
L 739.400295 60.634639 
" clip-path="url(#p8da8fc9e0c)" style="fill: none; stroke: #ff0000; stroke-width: 0.72; stroke-linejoin: miter"/>
   </g>
   <g id="patch_5">
    <path d="M 344.045222 13.64698 
L 340.102651 13.856197 
L 339.893434 9.913625 
L 343.836006 9.704409 
L 344.045222 13.64698 
" clip-path="url(#p8da8fc9e0c)" style="fill: none; stroke: #ff0000; stroke-width: 0.72; stroke-linejoin: miter"/>
   </g>
   <g id="patch_6">
    <path d="M 164.337496 41.441859 
L 160.549689 42.555483 
L 159.436065 38.767677 
L 163.223872 37.654053 
L 164.337496 41.441859 
" clip-path="url(#p8da8fc9e0c)" style="fill: none; stroke: #ff0000; stroke-width: 0.72; stroke-linejoin: miter"/>
   </g>
   <g id="patch_7">
    <path d="M 73.4387 85.27462 
L 71.935664 86.554383 
L 68.736258 82.796792 
L 70.239294 81.51703 
L 73.4387 85.27462 
" clip-path="url(#p8da8fc9e0c)" style="fill: none; stroke: #ff0000; stroke-width: 0.72; stroke-linejoin: miter"/>
   </g>
   <g id="patch_8">
    <path d="M 63.265229 119.358856 
L 64.882927 120.49021 
L 62.054542 124.534456 
L 60.436844 123.403102 
L 63.265229 119.358856 
" clip-path="url(#p8da8fc9e0c)" style="fill: none; stroke: #ff0000; stroke-width: 0.72; stroke-linejoin: miter"/>
   </g>
   <g id="patch_9">
    <path d="M 204.48294 146.557104 
L 208.421948 146.825165 
L 208.153887 150.764173 
L 204.214879 150.496112 
L 204.48294 146.557104 
" clip-path="url(#p8da8fc9e0c)" style="fill: none; stroke: #ff0000; stroke-width: 0.72; stroke-linejoin: miter"/>
   </g>
   <g id="line2d_1">
    <path d="M 1081.028954 169.396173 
L 1080.705073 170.328551 
" clip-path="url(#p8da8fc9e0c)" style="fill: none; stroke: #ff0000; stroke-width: 0.72; stroke-linecap: square"/>
   </g>
   <g id="line2d_2">
    <path d="M 1080.011531 173.887162 
L 1079.961487 174.872922 
" clip-path="url(#p8da8fc9e0c)" style="fill: none; stroke: #ff0000; stroke-width: 0.72; stroke-linecap: square"/>
   </g>
   <g id="line2d_3">
    <path d="M 1062.408709 162.840188 
L 1062.082868 163.771883 
" clip-path="url(#p8da8fc9e0c)" style="fill: none; stroke: #ff0000; stroke-width: 0.72; stroke-linecap: square"/>
   </g>
   <g id="line2d_4">
    <path d="M 1060.357552 172.164857 
L 1060.289445 173.149535 
" clip-path="url(#p8da8fc9e0c)" style="fill: none; stroke: #ff0000; stroke-width: 0.72; stroke-linecap: square"/>
   </g>
   <g id="line2d_5">
    <path d="M 987.815172 136.939027 
L 987.490716 137.871205 
" clip-path="url(#p8da8fc9e0c)" style="fill: none; stroke: #ff0000; stroke-width: 0.72; stroke-linecap: square"/>
   </g>
   <g id="line2d_6">
    <path d="M 981.584319 166.704129 
L 981.516111 167.688799 
" clip-path="url(#p8da8fc9e0c)" style="fill: none; stroke: #ff0000; stroke-width: 0.72; stroke-linecap: square"/>
   </g>
   <g id="patch_10">
    <path d="M 511.82255 83.810652 
L 511.705161 79.857942 
L 511.353461 75.920936 
L 510.768848 72.015275 
L 509.953643 68.156478 
L 508.911086 64.359874 
L 507.645319 60.640547 
L 506.161371 57.013275 
L 504.465137 53.492468 
L 502.563356 50.092114 
L 500.463584 46.825724 
L 498.174164 43.706273 
L 495.704191 40.746157 
L 493.063479 37.957135 
L 490.262519 35.350287 
L 487.312438 32.935972 
L 484.224959 30.723781 
L 481.012346 28.722502 
L 477.687365 26.940087 
L 474.263224 25.383618 
L 470.753528 24.059278 
L 467.172221 22.972329 
L 463.533531 22.127089 
L 459.851915 21.526917 
L 456.142 21.174196 
L 452.418525 21.070329 
L 448.696283 21.215727 
L 444.990063 21.609814 
L 441.31459 22.251023 
L 437.684466 23.136807 
L 434.114113 24.263647 
L 430.617716 25.627065 
L 427.209167 27.221646 
L 423.902008 29.041054 
L 420.709377 31.07806 
L 417.64396 33.324571 
L 414.717935 35.771662 
L 411.942926 38.409611 
L 409.32996 41.227938 
L 406.889416 44.215444 
L 404.630993 47.360261 
L 402.563661 50.649895 
L 400.695635 54.071276 
L 399.034336 57.610811 
L 397.586365 61.254437 
L 396.357474 64.987678 
L 395.352546 68.795703 
L 394.575573 72.663382 
L 394.029642 76.575348 
L 393.716922 80.51606 
L 393.638656 84.469862 
L 393.795154 88.421044 
L 394.185795 92.35391 
L 394.809026 96.252833 
L 395.662372 100.102324 
L 396.742443 103.887088 
L 398.044946 107.59209 
L 399.564708 111.202608 
L 401.295691 114.704298 
L 403.231016 118.083249 
L 405.362996 121.326036 
L 407.68316 124.419774 
L 410.182289 127.352174 
L 412.850456 130.111584 
L 415.677059 132.687042 
L 418.650868 135.068315 
L 421.760069 137.245942 
L 424.992309 139.211273 
L 428.334746 140.956498 
L 431.7741 142.474683 
L 435.296708 143.759798 
L 438.888574 144.806737 
L 442.535427 145.611339 
L 446.222779 146.170409 
L 449.93598 146.481724 
L 453.660277 146.54405 
L 457.380875 146.357136 
L 461.08299 145.921727 
L 464.751916 145.239552 
L 468.373074 144.313322 
L 471.932078 143.146716 
L 475.41479 141.744369 
L 478.80737 140.111853 
L 482.096343 138.255653 
L 485.268639 136.183145 
L 488.311655 133.902562 
L 491.213303 131.422964 
L 493.962053 128.754205 
L 496.546986 125.906885 
L 498.95783 122.892319 
L 501.185008 119.722481 
L 503.219671 116.409967 
L 505.053736 112.967937 
L 506.679916 109.410065 
L 508.09175 105.750488 
L 509.283629 102.003744 
L 510.250818 98.184719 
L 510.989474 94.308586 
L 511.496662 90.390746 
L 511.770367 86.446762 
L 511.82255 83.810652 
L 511.82255 83.810652 
" clip-path="url(#p8da8fc9e0c)" style="fill: none; stroke: #ff0000; stroke-width: 0.72; stroke-linejoin: miter"/>
   </g>
   <g id="line2d_7">
    <path d="M 67.646776 83.810652 
L 828.22241 83.810652 
" clip-path="url(#p8da8fc9e0c)" style="fill: none; stroke: #ffffff; stroke-width: 0.72; stroke-linecap: square"/>
   </g>
   <g id="line2d_8">
    <path d="M 217.68914 83.810652 
L 229.533495 83.810652 
" clip-path="url(#p8da8fc9e0c)" style="fill: none; stroke: #ffffff; stroke-width: 0.72; stroke-linecap: square"/>
   </g>
   <g id="patch_11">
    <path d="M 223.611318 78.875504 
L 228.546466 83.810652 
L 223.611318 88.7458 
L 218.67617 83.810652 
L 223.611318 78.875504 
" clip-path="url(#p8da8fc9e0c)" style="fill: none; stroke: #ff0000; stroke-width: 0.72; stroke-linejoin: miter"/>
   </g>
   <g id="line2d_9">
    <path d="M 442.012415 83.810652 
L 453.85677 83.810652 
" clip-path="url(#p8da8fc9e0c)" style="fill: none; stroke: #ffffff; stroke-width: 0.72; stroke-linecap: square"/>
   </g>
   <g id="patch_12">
    <path d="M 447.934593 78.875504 
L 452.869741 83.810652 
L 447.934593 88.7458 
L 442.999445 83.810652 
L 447.934593 78.875504 
" clip-path="url(#p8da8fc9e0c)" style="fill: none; stroke: #ff0000; stroke-width: 0.72; stroke-linejoin: miter"/>
   </g>
   <g id="line2d_10">
    <path d="M 666.33569 83.810652 
L 678.180045 83.810652 
" clip-path="url(#p8da8fc9e0c)" style="fill: none; stroke: #ffffff; stroke-width: 0.72; stroke-linecap: square"/>
   </g>
   <g id="patch_13">
    <path d="M 672.257868 78.875504 
L 677.193016 83.810652 
L 672.257868 88.7458 
L 667.32272 83.810652 
L 672.257868 78.875504 
" clip-path="url(#p8da8fc9e0c)" style="fill: none; stroke: #ff0000; stroke-width: 0.72; stroke-linejoin: miter"/>
   </g>
   <g id="line2d_11">
    <path d="M 52.470597 107.915243 
L 1099.209351 175.843474 
" clip-path="url(#p8da8fc9e0c)" style="fill: none; stroke: #ffffff; stroke-width: 0.72; stroke-linecap: square"/>
   </g>
   <g id="line2d_12">
    <path d="M 259.749937 121.366659 
L 271.56943 122.133687 
" clip-path="url(#p8da8fc9e0c)" style="fill: none; stroke: #ffffff; stroke-width: 0.72; stroke-linecap: square"/>
   </g>
   <g id="patch_14">
    <path d="M 265.979278 116.825384 
L 270.584472 122.069768 
L 265.340089 126.674962 
L 260.734895 121.430578 
L 265.979278 116.825384 
" clip-path="url(#p8da8fc9e0c)" style="fill: none; stroke: #ff0000; stroke-width: 0.72; stroke-linejoin: miter"/>
   </g>
   <g id="line2d_13">
    <path d="M 518.233513 138.14098 
L 530.053006 138.908008 
" clip-path="url(#p8da8fc9e0c)" style="fill: none; stroke: #ffffff; stroke-width: 0.72; stroke-linecap: square"/>
   </g>
   <g id="patch_15">
    <path d="M 524.462854 133.599705 
L 529.068048 138.844089 
L 523.823664 143.449283 
L 519.21847 138.204899 
L 524.462854 133.599705 
" clip-path="url(#p8da8fc9e0c)" style="fill: none; stroke: #ff0000; stroke-width: 0.72; stroke-linejoin: miter"/>
   </g>
   <g id="line2d_14">
    <path d="M 452.728972 21.069463 
L 452.728972 20.082433 
" clip-path="url(#p8da8fc9e0c)" style="fill: none; stroke: #ff0000; stroke-width: 0.72; stroke-linecap: square"/>
   </g>
   <g id="line2d_15">
    <path d="M 452.728972 146.551842 
L 452.728972 147.538871 
" clip-path="url(#p8da8fc9e0c)" style="fill: none; stroke: #ff0000; stroke-width: 0.72; stroke-linecap: square"/>
   </g>
   <g id="line2d_16">
    <path d="M 511.82255 83.810652 
L 512.809579 83.810652 
" clip-path="url(#p8da8fc9e0c)" style="fill: none; stroke: #ff0000; stroke-width: 0.72; stroke-linecap: square"/>
   </g>
   <g id="line2d_17">
    <path d="M 393.635394 83.810652 
L 392.648364 83.810652 
" clip-path="url(#p8da8fc9e0c)" style="fill: none; stroke: #ff0000; stroke-width: 0.72; stroke-linecap: square"/>
   </g>
   <g id="line2d_18">
    <path d="M 304.674531 156.276999 
L 304.674531 12.308659 
" clip-path="url(#p8da8fc9e0c)" style="fill: none; stroke: #ffffff; stroke-width: 0.72; stroke-linecap: square"/>
   </g>
   <g id="line2d_19">
    <path d="M 304.674531 109.88555 
L 304.674531 98.041195 
" clip-path="url(#p8da8fc9e0c)" style="fill: none; stroke: #ffffff; stroke-width: 0.72; stroke-linecap: square"/>
   </g>
   <g id="patch_16">
    <path d="M 299.739383 103.963373 
L 304.674531 99.028224 
L 309.60968 103.963373 
L 304.674531 108.898521 
L 299.739383 103.963373 
" clip-path="url(#p8da8fc9e0c)" style="fill: none; stroke: #ff0000; stroke-width: 0.72; stroke-linejoin: miter"/>
   </g>
   <g id="line2d_20">
    <path d="M 304.674531 70.544463 
L 304.674531 58.700108 
" clip-path="url(#p8da8fc9e0c)" style="fill: none; stroke: #ffffff; stroke-width: 0.72; stroke-linecap: square"/>
   </g>
   <g id="patch_17">
    <path d="M 299.739383 64.622286 
L 304.674531 59.687138 
L 309.60968 64.622286 
L 304.674531 69.557434 
L 299.739383 64.622286 
" clip-path="url(#p8da8fc9e0c)" style="fill: none; stroke: #ff0000; stroke-width: 0.72; stroke-linejoin: miter"/>
   </g>
   <g id="line2d_21">
    <path d="M 748.837852 160.559905 
L 748.837852 59.213698 
" clip-path="url(#p8da8fc9e0c)" style="fill: none; stroke: #ffffff; stroke-width: 0.72; stroke-linecap: square"/>
   </g>
   <g id="line2d_22">
    <path d="M 748.837852 129.086202 
L 748.837852 117.241847 
" clip-path="url(#p8da8fc9e0c)" style="fill: none; stroke: #ffffff; stroke-width: 0.72; stroke-linecap: square"/>
   </g>
   <g id="patch_18">
    <path d="M 743.902704 123.164025 
L 748.837852 118.228877 
L 753.773 123.164025 
L 748.837852 128.099173 
L 743.902704 123.164025 
" clip-path="url(#p8da8fc9e0c)" style="fill: none; stroke: #ff0000; stroke-width: 0.72; stroke-linejoin: miter"/>
   </g>
   <g id="line2d_23">
    <path d="M 748.837852 102.531756 
L 748.837852 90.6874 
" clip-path="url(#p8da8fc9e0c)" style="fill: none; stroke: #ffffff; stroke-width: 0.72; stroke-linecap: square"/>
   </g>
   <g id="patch_19">
    <path d="M 743.902704 96.609578 
L 748.837852 91.67443 
L 753.773 96.609578 
L 748.837852 101.544726 
L 743.902704 96.609578 
" clip-path="url(#p8da8fc9e0c)" style="fill: none; stroke: #ff0000; stroke-width: 0.72; stroke-linejoin: miter"/>
   </g>
   <g id="patch_20">
    <path d="M 350.1076 126.484829 
L 350.1076 136.355125 
" clip-path="url(#p8da8fc9e0c)" style="fill: none; stroke: #ff0000; stroke-width: 0.72; stroke-linejoin: miter"/>
   </g>
   <g id="patch_21">
    <path d="M 357.016807 126.484829 
L 355.042748 126.484829 
L 355.042748 136.355125 
L 357.016807 136.355125 
" clip-path="url(#p8da8fc9e0c)" style="fill: none; stroke: #ff0000; stroke-width: 0.72; stroke-linejoin: miter"/>
   </g>
   <g id="patch_22">
    <path d="M 358.003837 136.355125 
L 359.977896 136.355125 
L 359.977896 126.484829 
L 358.003837 126.484829 
" clip-path="url(#p8da8fc9e0c)" style="fill: none; stroke: #ff0000; stroke-width: 0.72; stroke-linejoin: miter"/>
   </g>
   <g id="patch_23">
    <path d="M 355.042748 131.419977 
L 357.016807 131.419977 
" clip-path="url(#p8da8fc9e0c)" style="fill: none; stroke: #ff0000; stroke-width: 0.72; stroke-linejoin: miter"/>
   </g>
   <g id="patch_24">
    <path d="M 358.003837 131.419977 
L 359.977896 131.419977 
" clip-path="url(#p8da8fc9e0c)" style="fill: none; stroke: #ff0000; stroke-width: 0.72; stroke-linejoin: miter"/>
   </g>
  </g>
 </g>
 <defs>
  <clipPath id="p8da8fc9e0c">
   <rect x="0" y="0" width="1152" height="185.355104"/>
  </clipPath>
 </defs>
</svg>
