<?xml version="1.0" encoding="utf-8" standalone="no"?>
<!DOCTYPE svg PUBLIC "-//W3C//DTD SVG 1.1//EN"
  "http://www.w3.org/Graphics/SVG/1.1/DTD/svg11.dtd">
<svg xmlns:xlink="http://www.w3.org/1999/xlink" width="1152pt" height="320.929836pt" viewBox="0 0 1152 320.929836" xmlns="http://www.w3.org/2000/svg" version="1.1">
 <metadata>
  <rdf:RDF xmlns:dc="http://purl.org/dc/elements/1.1/" xmlns:cc="http://creativecommons.org/ns#" xmlns:rdf="http://www.w3.org/1999/02/22-rdf-syntax-ns#">
   <cc:Work>
    <dc:type rdf:resource="http://purl.org/dc/dcmitype/StillImage"/>
    <dc:date>2026-01-07T02:07:18.355746</dc:date>
    <dc:format>image/svg+xml</dc:format>
    <dc:creator>
     <cc:Agent>
      <dc:title>Matplotlib v3.10.1, https://matplotlib.org/</dc:title>
     </cc:Agent>
    </dc:creator>
   </cc:Work>
  </rdf:RDF>
 </metadata>
 <defs>
  <style type="text/css">*{stroke-linejoin: round; stroke-linecap: butt}</style>
 </defs>
 <g id="figure_1">
  <g id="patch_1">
   <path d="M 0 320.929836 
L 1152 320.929836 
L 1152 0 
L 0 0 
z
" style="fill: #ffffff"/>
  </g>
  <g id="axes_1">
   <g id="patch_2">
    <path d="M 0 320.929836 
L 1152 320.929836 
L 1152 0 
L 0 0 
z
" style="fill: #212830"/>
   </g>
   <g id="patch_3">
    <path d="M 1099.636364 265.772479 
L 1099.636362 40.948596 
L 1080.388958 38.277012 
L 1059.442937 35.546502 
L 1038.459449 32.98457 
L 1017.442671 30.586517 
L 996.402183 28.352981 
L 975.340408 26.28682 
L 954.254588 24.387631 
L 933.150342 22.651191 
L 912.0425 21.077623 
L 890.94041 19.671495 
L 869.844054 18.435533 
L 848.75729 17.367049 
L 827.693913 16.466486 
L 806.664572 15.738065 
L 785.668936 15.18662 
L 764.708352 14.810553 
L 743.795674 14.609365 
L 722.942071 14.58772 
L 702.149293 14.750815 
L 681.417886 15.098481 
L 660.760993 15.629769 
L 640.192325 16.349053 
L 619.714007 17.262652 
L 599.329324 18.370566 
L 579.052894 19.671653 
L 558.900987 21.170859 
L 538.876881 22.874872 
L 518.98737 24.782366 
L 499.252705 26.892451 
L 479.688493 29.211605 
L 460.300463 31.74439 
L 441.103251 34.487476 
L 422.121324 37.441342 
L 403.370284 40.610876 
L 384.86359 43.992565 
L 366.639893 47.572505 
L 348.745395 51.348543 
L 331.2079 55.323041 
L 314.058523 59.48169 
L 297.353396 63.804071 
L 281.142376 68.283106 
L 265.460024 72.905048 
L 250.354275 77.636396 
L 235.883894 82.447398 
L 222.088243 87.319772 
L 208.993288 92.221363 
L 196.629472 97.11125 
L 185.01711 101.962902 
L 174.152312 106.75752 
L 164.019948 111.467816 
L 154.603275 116.069213 
L 145.876139 120.553097 
L 137.799155 124.919342 
L 130.326852 129.163604 
L 123.417618 133.278589 
L 117.033461 137.2653 
L 111.13487 141.132745 
L 105.682292 144.890064 
L 100.637893 148.54312 
L 95.970947 152.093864 
L 91.656303 155.549015 
L 87.670487 158.920989 
L 83.984497 162.226814 
L 80.566539 165.472464 
L 74.417994 171.763841 
L 69.09072 177.711499 
L 66.738162 180.553519 
L 64.599672 183.327961 
L 62.672884 186.058273 
L 60.945034 188.767526 
L 59.398922 191.46205 
L 58.016132 194.138254 
L 56.784545 196.778839 
L 55.699108 199.370268 
L 54.761843 201.900843 
L 53.977989 204.369377 
L 53.35152 206.783837 
L 52.88256 209.152746 
L 52.566855 211.483082 
L 52.387593 213.99471 
L 52.363636 216.06959 
L 52.476767 218.374092 
L 52.749607 220.666471 
L 53.201844 222.936633 
L 53.85888 225.187969 
L 54.743324 227.427842 
L 55.864684 229.657249 
L 57.216771 231.868823 
L 58.784117 234.048548 
L 60.556015 236.183154 
L 62.53136 238.262379 
L 64.720125 240.282087 
L 67.132528 242.242526 
L 69.775109 244.148341 
L 72.645025 246.005287 
L 75.739693 247.819615 
L 79.056444 249.594312 
L 82.605078 251.330575 
L 86.400144 253.028842 
L 90.465596 254.691255 
L 94.825086 256.324339 
L 99.502173 257.938048 
L 104.522618 259.543327 
L 115.710779 262.762542 
L 121.959506 264.384095 
L 128.713968 266.016985 
L 136.032579 267.666187 
L 143.979387 269.336507 
L 152.622306 271.029828 
L 162.037898 272.743051 
L 172.308637 274.470961 
L 183.51372 276.211232 
L 195.719365 277.95989 
L 208.975738 279.703722 
L 223.316001 281.423767 
L 238.746898 283.105529 
L 255.23226 284.73687 
L 272.703906 286.296593 
L 291.083543 287.766845 
L 310.273401 289.142499 
L 330.159627 290.416178 
L 350.649919 291.579164 
L 371.665589 292.635774 
L 393.126584 293.590928 
L 437.238896 295.205821 
L 462.201045 295.997979 
L 462.074998 300.131399 
L 505.270953 301.388683 
L 551.232378 302.38 
L 668.489763 304.310798 
L 715.574443 304.849513 
L 881.046854 306.342116 
L 1099.636364 265.772479 
L 1099.636364 265.772479 
" clip-path="url(#pd194461db4)" style="fill: none; stroke: #ff0000; stroke-width: 0.72; stroke-linejoin: miter"/>
   </g>
   <g id="patch_4">
    <path d="M 639.279103 236.895149 
L 639.279103 250.679621 
L 653.063575 250.679621 
L 653.063575 236.895149 
L 653.063575 264.464093 
" clip-path="url(#pd194461db4)" style="fill: none; stroke: #ff0000; stroke-width: 0.72; stroke-linejoin: miter"/>
   </g>
   <g id="patch_5">
    <path d="M 665.4696 236.895149 
L 659.955811 236.895149 
L 659.955811 264.464093 
L 665.4696 264.464093 
" clip-path="url(#pd194461db4)" style="fill: none; stroke: #ff0000; stroke-width: 0.72; stroke-linejoin: miter"/>
   </g>
   <g id="patch_6">
    <path d="M 668.226495 264.464093 
L 673.740284 264.464093 
L 673.740284 236.895149 
L 668.226495 236.895149 
" clip-path="url(#pd194461db4)" style="fill: none; stroke: #ff0000; stroke-width: 0.72; stroke-linejoin: miter"/>
   </g>
   <g id="patch_7">
    <path d="M 659.955811 250.679621 
L 665.4696 250.679621 
" clip-path="url(#pd194461db4)" style="fill: none; stroke: #ff0000; stroke-width: 0.72; stroke-linejoin: miter"/>
   </g>
   <g id="patch_8">
    <path d="M 668.226495 250.679621 
L 673.740284 250.679621 
" clip-path="url(#pd194461db4)" style="fill: none; stroke: #ff0000; stroke-width: 0.72; stroke-linejoin: miter"/>
   </g>
   <g id="patch_9">
    <path d="M 633.520448 27.68532 
L 622.503833 28.176909 
L 622.012244 17.160294 
L 633.028859 16.668705 
L 633.520448 27.68532 
" clip-path="url(#pd194461db4)" style="fill: none; stroke: #ff0000; stroke-width: 0.72; stroke-linejoin: miter"/>
   </g>
   <g id="patch_10">
    <path d="M 276.892105 81.032588 
L 266.314474 84.150471 
L 263.196591 73.57284 
L 273.774222 70.454957 
L 276.892105 81.032588 
" clip-path="url(#pd194461db4)" style="fill: none; stroke: #ff0000; stroke-width: 0.72; stroke-linejoin: miter"/>
   </g>
   <g id="patch_11">
    <path d="M 97.367338 168.740153 
L 93.263816 172.422947 
L 84.056831 162.164142 
L 88.160353 158.481348 
L 97.367338 168.740153 
" clip-path="url(#pd194461db4)" style="fill: none; stroke: #ff0000; stroke-width: 0.72; stroke-linejoin: miter"/>
   </g>
   <g id="patch_12">
    <path d="M 75.291085 231.130862 
L 79.768306 234.348991 
L 71.722984 245.542045 
L 67.245762 242.323916 
L 75.291085 231.130862 
" clip-path="url(#pd194461db4)" style="fill: none; stroke: #ff0000; stroke-width: 0.72; stroke-linejoin: miter"/>
   </g>
   <g id="patch_13">
    <path d="M 352.74829 280.643152 
L 363.761958 281.196853 
L 363.208257 292.210522 
L 352.194589 291.656821 
L 352.74829 280.643152 
" clip-path="url(#pd194461db4)" style="fill: none; stroke: #ff0000; stroke-width: 0.72; stroke-linejoin: miter"/>
   </g>
   <g id="patch_14">
    <path d="M 955.018779 159.837444 
L 954.924747 155.086394 
L 954.642816 150.343735 
L 954.173484 145.617844 
L 953.51758 140.917065 
L 952.676263 136.249701 
L 951.651018 131.623996 
L 950.443656 127.048118 
L 949.056309 122.530149 
L 947.491428 118.078068 
L 945.751776 113.699738 
L 943.840425 109.402892 
L 941.760752 105.195117 
L 939.516429 101.083846 
L 937.11142 97.07634 
L 934.549972 93.179675 
L 931.836609 89.400734 
L 928.976123 85.746191 
L 925.973566 82.222499 
L 922.834241 78.835883 
L 919.563692 75.592323 
L 916.167695 72.497548 
L 912.652248 69.557023 
L 909.023559 66.775942 
L 905.288038 64.159216 
L 901.45228 61.711466 
L 897.523062 59.437016 
L 893.507321 57.339883 
L 889.41215 55.42377 
L 885.244782 53.69206 
L 881.012577 52.147814 
L 876.723008 50.793757 
L 872.383653 49.632281 
L 868.002173 48.665438 
L 863.586309 47.894935 
L 859.143858 47.322133 
L 854.682666 46.948043 
L 850.210612 46.773327 
L 845.735594 46.798292 
L 841.265516 47.022894 
L 836.808271 47.446738 
L 832.371733 48.069074 
L 827.963735 48.888803 
L 823.592064 49.904478 
L 819.26444 51.114304 
L 814.988506 52.516146 
L 810.771813 54.107527 
L 806.62181 55.885637 
L 802.545824 57.847335 
L 798.551054 59.989157 
L 794.644557 62.307321 
L 790.83323 64.797731 
L 787.123805 67.455991 
L 783.522834 70.277405 
L 780.036675 73.25699 
L 776.671486 76.389484 
L 773.433211 79.669355 
L 770.327567 83.09081 
L 767.36004 86.647807 
L 764.535872 90.334064 
L 761.860049 94.14307 
L 759.337297 98.068098 
L 756.972072 102.102217 
L 754.768551 106.238301 
L 752.730626 110.469047 
L 750.861895 114.786981 
L 749.16566 119.184479 
L 747.644915 123.653774 
L 746.302347 128.186972 
L 745.140327 132.776068 
L 744.160907 137.412957 
L 743.365816 142.08945 
L 742.75646 146.797288 
L 742.333913 151.528155 
L 742.098923 156.273697 
L 742.051904 161.025534 
L 742.19294 165.775272 
L 742.521781 170.514523 
L 743.037846 175.234918 
L 743.740225 179.928119 
L 744.627676 184.585838 
L 745.698633 189.199849 
L 746.951204 193.762004 
L 748.383176 198.264245 
L 749.992021 202.69862 
L 751.774898 207.057299 
L 753.728657 211.332583 
L 755.849848 215.516921 
L 758.134726 219.602925 
L 760.579254 223.583377 
L 763.179115 227.451248 
L 765.929718 231.199707 
L 768.826206 234.822134 
L 771.863461 238.31213 
L 775.036122 241.663534 
L 778.338583 244.870424 
L 781.765013 247.927139 
L 785.309361 250.828279 
L 788.965366 253.56872 
L 792.726572 256.143624 
L 796.586336 258.548442 
L 800.537842 260.778928 
L 804.574111 262.831141 
L 808.688014 264.701458 
L 812.872286 266.386575 
L 817.119538 267.883517 
L 821.422267 269.189639 
L 825.772875 270.302636 
L 830.163679 271.22054 
L 834.586923 271.941732 
L 839.034796 272.464937 
L 843.499444 272.789232 
L 847.972979 272.914043 
L 852.447503 272.839151 
L 856.915112 272.564687 
L 861.367917 272.091137 
L 865.798053 271.419336 
L 870.197696 270.550471 
L 874.559077 269.486077 
L 878.874492 268.228033 
L 883.13632 266.778561 
L 887.337034 265.140221 
L 891.469215 263.315907 
L 895.525567 261.308841 
L 899.498924 259.122566 
L 903.382269 256.760945 
L 907.168744 254.228148 
L 910.851663 251.528649 
L 914.424519 248.667214 
L 917.881005 245.648897 
L 921.215014 242.47903 
L 924.420659 239.16321 
L 927.492278 235.707293 
L 930.424447 232.117383 
L 933.211986 228.39982 
L 935.849974 224.56117 
L 938.333751 220.608211 
L 940.658931 216.547926 
L 942.821406 212.387485 
L 944.817359 208.134235 
L 946.643263 203.795689 
L 948.295895 199.379509 
L 949.772335 194.893494 
L 951.069975 190.345566 
L 952.186525 185.743758 
L 953.120013 181.096198 
L 953.868789 176.411092 
L 954.431531 171.696716 
L 954.807245 166.961395 
L 954.995268 162.213493 
L 955.018779 159.837444 
L 955.018779 159.837444 
" clip-path="url(#pd194461db4)" style="fill: none; stroke: #ff0000; stroke-width: 0.72; stroke-linejoin: miter"/>
   </g>
   <g id="patch_15">
    <path d="M 399.280581 146.052971 
L 413.065054 159.837444 
L 399.280581 173.621916 
L 385.496109 159.837444 
L 399.280581 146.052971 
" clip-path="url(#pd194461db4)" style="fill: none; stroke: #ff0000; stroke-width: 0.72; stroke-linejoin: miter"/>
   </g>
   <g id="patch_16">
    <path d="M 841.348771 146.052971 
L 855.133244 159.837444 
L 841.348771 173.621916 
L 827.564299 159.837444 
L 841.348771 146.052971 
" clip-path="url(#pd194461db4)" style="fill: none; stroke: #ff0000; stroke-width: 0.72; stroke-linejoin: miter"/>
   </g>
   <g id="patch_17">
    <path d="M 262.72007 211.685727 
L 275.591378 226.326519 
L 260.950586 239.197826 
L 248.079279 224.557034 
L 262.72007 211.685727 
" clip-path="url(#pd194461db4)" style="fill: none; stroke: #ff0000; stroke-width: 0.72; stroke-linejoin: miter"/>
   </g>
   <g id="patch_18">
    <path d="M 501.99642 227.075164 
L 514.867728 241.715955 
L 500.226936 254.587263 
L 487.355628 239.946471 
L 501.99642 227.075164 
" clip-path="url(#pd194461db4)" style="fill: none; stroke: #ff0000; stroke-width: 0.72; stroke-linejoin: miter"/>
   </g>
   <g id="patch_19">
    <path d="M 421.213766 198.860959 
L 434.998239 185.076487 
L 448.782711 198.860959 
L 434.998239 212.645431 
L 421.213766 198.860959 
" clip-path="url(#pd194461db4)" style="fill: none; stroke: #ff0000; stroke-width: 0.72; stroke-linejoin: miter"/>
   </g>
   <g id="patch_20">
    <path d="M 421.213766 131.705433 
L 434.998239 117.920961 
L 448.782711 131.705433 
L 434.998239 145.489905 
L 421.213766 131.705433 
" clip-path="url(#pd194461db4)" style="fill: none; stroke: #ff0000; stroke-width: 0.72; stroke-linejoin: miter"/>
   </g>
   <g id="line2d_1">
    <path d="M 86.648641 159.837444 
L 1099.636363 159.837444 
" clip-path="url(#pd194461db4)" style="fill: none; stroke: #ffffff; stroke-width: 0.72; stroke-linecap: square"/>
   </g>
   <g id="line2d_2">
    <path d="M 382.739215 159.837444 
L 415.821948 159.837444 
" clip-path="url(#pd194461db4)" style="fill: none; stroke: #ffffff; stroke-width: 0.72; stroke-linecap: square"/>
   </g>
   <g id="line2d_3">
    <path d="M 824.807405 159.837444 
L 857.890138 159.837444 
" clip-path="url(#pd194461db4)" style="fill: none; stroke: #ffffff; stroke-width: 0.72; stroke-linecap: square"/>
   </g>
   <g id="line2d_4">
    <path d="M 52.531384 211.980062 
L 1045.402511 275.838139 
" clip-path="url(#pd194461db4)" style="fill: none; stroke: #ffffff; stroke-width: 0.72; stroke-linecap: square"/>
   </g>
   <g id="line2d_5">
    <path d="M 245.328069 224.380086 
L 278.342588 226.503467 
" clip-path="url(#pd194461db4)" style="fill: none; stroke: #ffffff; stroke-width: 0.72; stroke-linecap: square"/>
   </g>
   <g id="line2d_6">
    <path d="M 484.604418 239.769523 
L 517.618937 241.892904 
" clip-path="url(#pd194461db4)" style="fill: none; stroke: #ffffff; stroke-width: 0.72; stroke-linecap: square"/>
   </g>
   <g id="line2d_7">
    <path d="M 848.532403 46.759283 
L 848.532403 44.002389 
" clip-path="url(#pd194461db4)" style="fill: none; stroke: #ff0000; stroke-width: 0.72; stroke-linecap: square"/>
   </g>
   <g id="line2d_8">
    <path d="M 848.532403 272.915604 
L 848.532403 275.672498 
" clip-path="url(#pd194461db4)" style="fill: none; stroke: #ff0000; stroke-width: 0.72; stroke-linecap: square"/>
   </g>
   <g id="line2d_9">
    <path d="M 955.018779 159.837444 
L 957.775674 159.837444 
" clip-path="url(#pd194461db4)" style="fill: none; stroke: #ff0000; stroke-width: 0.72; stroke-linecap: square"/>
   </g>
   <g id="line2d_10">
    <path d="M 742.046027 159.837444 
L 739.289132 159.837444 
" clip-path="url(#pd194461db4)" style="fill: none; stroke: #ff0000; stroke-width: 0.72; stroke-linecap: square"/>
   </g>
   <g id="line2d_11">
    <path d="M 434.998239 295.128886 
L 434.998239 35.437505 
" clip-path="url(#pd194461db4)" style="fill: none; stroke: #ffffff; stroke-width: 0.72; stroke-linecap: square"/>
   </g>
   <g id="line2d_12">
    <path d="M 434.998239 215.402325 
L 434.998239 182.319592 
" clip-path="url(#pd194461db4)" style="fill: none; stroke: #ffffff; stroke-width: 0.72; stroke-linecap: square"/>
   </g>
   <g id="line2d_13">
    <path d="M 434.998239 148.246799 
L 434.998239 115.164066 
" clip-path="url(#pd194461db4)" style="fill: none; stroke: #ffffff; stroke-width: 0.72; stroke-linecap: square"/>
   </g>
  </g>
 </g>
 <defs>
  <clipPath id="pd194461db4">
   <rect x="0" y="0" width="1152" height="320.929836"/>
  </clipPath>
 </defs>
</svg>
