<?xml version="1.0" encoding="utf-8" standalone="no"?>
<!DOCTYPE svg PUBLIC "-//W3C//DTD SVG 1.1//EN"
  "http://www.w3.org/Graphics/SVG/1.1/DTD/svg11.dtd">
<svg xmlns:xlink="http://www.w3.org/1999/xlink" width="1152pt" height="335.570033pt" viewBox="0 0 1152 335.570033" xmlns="http://www.w3.org/2000/svg" version="1.1">
 <metadata>
  <rdf:RDF xmlns:dc="http://purl.org/dc/elements/1.1/" xmlns:cc="http://creativecommons.org/ns#" xmlns:rdf="http://www.w3.org/1999/02/22-rdf-syntax-ns#">
   <cc:Work>
    <dc:type rdf:resource="http://purl.org/dc/dcmitype/StillImage"/>
    <dc:date>2026-01-07T02:07:06.896855</dc:date>
    <dc:format>image/svg+xml</dc:format>
    <dc:creator>
     <cc:Agent>
      <dc:title>Matplotlib v3.10.1, https://matplotlib.org/</dc:title>
     </cc:Agent>
    </dc:creator>
   </cc:Work>
  </rdf:RDF>
 </metadata>
 <defs>
  <style type="text/css">*{stroke-linejoin: round; stroke-linecap: butt}</style>
 </defs>
 <g id="figure_1">
  <g id="patch_1">
   <path d="M 0 335.570033 
L 1152 335.570033 
L 1152 0 
L 0 0 
z
" style="fill: #ffffff"/>
  </g>
  <g id="axes_1">
   <g id="patch_2">
    <path d="M 0 335.570033 
L 1152 335.570033 
L 1152 0 
L 0 0 
z
" style="fill: #212830"/>
   </g>
   <g id="patch_3">
    <path d="M 1099.636364 41.627339 
L 1094.684749 40.891419 
L 1072.020931 37.719374 
L 1049.374424 34.758838 
L 1026.745658 32.022919 
L 1004.130536 29.51256 
L 981.528396 27.220384 
L 958.946817 25.132477 
L 936.408577 23.235929 
L 913.946074 21.532643 
L 891.576011 20.042905 
L 869.288138 18.781545 
L 847.067273 17.738238 
L 824.92019 16.886671 
L 802.87663 16.206539 
L 780.974839 15.694552 
L 759.249817 15.366627 
L 737.712887 15.253183 
L 716.34077 15.376695 
L 695.097688 15.720851 
L 673.987806 16.23562 
L 653.070314 16.884381 
L 632.413361 17.683507 
L 612.038405 18.684673 
L 591.914147 19.926081 
L 571.992669 21.403422 
L 552.249981 23.070762 
L 532.719021 24.867027 
L 513.485086 26.767519 
L 494.620739 28.817988 
L 476.11107 31.099041 
L 457.866343 33.63793 
L 439.827582 36.36797 
L 422.042206 39.196061 
L 404.618244 42.099467 
L 387.615829 45.137771 
L 371.008376 48.376988 
L 354.735493 51.828739 
L 338.766558 55.454716 
L 323.113699 59.207324 
L 307.817074 63.056679 
L 292.920034 66.998819 
L 278.451562 71.051654 
L 264.412038 75.242092 
L 250.779854 79.583722 
L 237.531295 84.066941 
L 224.660817 88.663011 
L 212.186701 93.343841 
L 200.134371 98.09771 
L 188.515531 102.928669 
L 177.326627 107.837129 
L 166.569166 112.806749 
L 156.263331 117.818376 
L 146.430403 122.872114 
L 137.070397 127.979512 
L 128.170969 133.138912 
L 119.731018 138.331389 
L 111.76375 143.537487 
L 104.282037 148.749332 
L 97.296284 153.960419 
L 90.815561 159.169146 
L 84.831297 164.388076 
L 79.311752 169.621554 
L 74.238804 174.824363 
L 69.653698 179.913813 
L 65.629978 184.852735 
L 62.197912 189.691804 
L 59.32077 194.506331 
L 56.946173 199.301912 
L 55.055062 204.014775 
L 53.658647 208.595165 
L 52.765078 213.038657 
L 52.363636 217.603689 
L 52.464394 221.439634 
L 53.073656 225.339587 
L 54.250666 229.098664 
L 56.050707 232.804141 
L 58.476387 236.487411 
L 61.488081 240.116772 
L 65.077728 243.647619 
L 69.291237 247.064811 
L 74.172197 250.38056 
L 79.715734 253.605961 
L 85.899128 256.731872 
L 92.72864 259.743342 
L 100.230854 262.643786 
L 108.411614 265.454103 
L 117.249591 268.191421 
L 126.719666 270.858631 
L 136.805339 273.451251 
L 147.495003 275.96373 
L 158.782149 278.389303 
L 170.667603 280.725233 
L 183.146617 282.976905 
L 196.201094 285.146006 
L 209.816912 287.221849 
L 224.000661 289.192888 
L 238.76194 291.064305 
L 254.092661 292.849362 
L 269.974595 294.55092 
L 286.40237 296.164027 
L 303.377563 297.692317 
L 338.923065 300.538618 
L 376.493564 303.116438 
L 415.995832 305.446601 
L 457.321817 307.534975 
L 462.54652 307.770657 
L 462.460884 309.669071 
L 500.298745 311.306223 
L 544.955838 312.973143 
L 591.07456 314.436219 
L 638.541997 315.652073 
L 687.29171 316.615523 
L 737.260073 317.335566 
L 866.781162 318.738094 
L 1055.051149 320.07639 
L 1099.636364 320.31685 
L 1099.636364 41.627339 
L 1099.636364 41.627339 
" clip-path="url(#pae08f9a8bc)" style="fill: none; stroke: #ff0000; stroke-width: 0.72; stroke-linejoin: miter"/>
   </g>
   <g id="patch_4">
    <path d="M 644.503821 252.940242 
L 644.503821 271.943689 
" clip-path="url(#pae08f9a8bc)" style="fill: none; stroke: #ff0000; stroke-width: 0.72; stroke-linejoin: miter"/>
   </g>
   <g id="patch_5">
    <path d="M 654.005545 252.940242 
L 654.005545 262.441965 
L 663.507268 262.441965 
L 663.507268 252.940242 
L 663.507268 271.943689 
" clip-path="url(#pae08f9a8bc)" style="fill: none; stroke: #ff0000; stroke-width: 0.72; stroke-linejoin: miter"/>
   </g>
   <g id="patch_6">
    <path d="M 632.580987 25.285822 
L 624.988773 25.658965 
L 624.61563 18.06675 
L 632.207845 17.693608 
L 632.580987 25.285822 
" clip-path="url(#pae08f9a8bc)" style="fill: none; stroke: #ff0000; stroke-width: 0.72; stroke-linejoin: miter"/>
   </g>
   <g id="patch_7">
    <path d="M 275.146939 79.970941 
L 267.863158 82.14522 
L 265.688879 74.861439 
L 272.97266 72.68716 
L 275.146939 79.970941 
" clip-path="url(#pae08f9a8bc)" style="fill: none; stroke: #ff0000; stroke-width: 0.72; stroke-linejoin: miter"/>
   </g>
   <g id="patch_8">
    <path d="M 94.176348 168.847267 
L 91.312713 171.346234 
L 85.065296 164.187147 
L 87.92893 161.68818 
L 94.176348 168.847267 
" clip-path="url(#pae08f9a8bc)" style="fill: none; stroke: #ff0000; stroke-width: 0.72; stroke-linejoin: miter"/>
   </g>
   <g id="patch_9">
    <path d="M 73.712832 238.583259 
L 76.85919 240.715315 
L 71.529049 248.581213 
L 68.38269 246.449156 
L 73.712832 238.583259 
" clip-path="url(#pae08f9a8bc)" style="fill: none; stroke: #ff0000; stroke-width: 0.72; stroke-linejoin: miter"/>
   </g>
   <g id="patch_10">
    <path d="M 354.955005 294.077751 
L 362.5399 294.578076 
L 362.039575 302.162971 
L 354.45468 301.662645 
L 354.955005 294.077751 
" clip-path="url(#pae08f9a8bc)" style="fill: none; stroke: #ff0000; stroke-width: 0.72; stroke-linejoin: miter"/>
   </g>
   <g id="patch_11">
    <path d="M 968.35684 167.424733 
L 968.251258 162.092885 
L 967.934698 156.770454 
L 967.407718 151.466839 
L 966.671251 146.191407 
L 965.726595 140.953476 
L 964.575421 135.762295 
L 963.21976 130.627032 
L 961.662007 125.556758 
L 959.904913 120.560427 
L 957.951582 115.646862 
L 955.805463 110.824742 
L 953.470346 106.102583 
L 950.950355 101.488724 
L 948.249942 96.991314 
L 945.373874 92.618296 
L 942.327232 88.377393 
L 939.115396 84.276096 
L 935.744039 80.321646 
L 932.219114 76.521029 
L 928.546847 72.880955 
L 924.733724 69.407855 
L 920.786479 66.107862 
L 916.712083 62.986804 
L 912.517732 60.050192 
L 908.210833 57.303214 
L 903.798993 54.750721 
L 899.290004 52.397221 
L 894.691828 50.24687 
L 890.012587 48.303465 
L 885.260545 46.57044 
L 880.444094 45.050855 
L 875.571741 43.747393 
L 870.65209 42.662357 
L 865.69383 41.797663 
L 860.705718 41.154838 
L 855.696563 40.735017 
L 850.675212 40.538942 
L 845.650533 40.566959 
L 840.6314 40.819018 
L 835.626678 41.294675 
L 830.645205 41.993089 
L 825.695779 42.913027 
L 820.78714 44.052865 
L 815.927959 45.410588 
L 811.126817 46.9838 
L 806.392193 48.769721 
L 801.73245 50.765198 
L 797.155815 52.966707 
L 792.670373 55.370359 
L 788.284045 57.97191 
L 784.004578 60.766764 
L 779.839529 63.749986 
L 775.796254 66.916307 
L 771.881895 70.260136 
L 768.103364 73.775566 
L 764.467335 77.456389 
L 760.980229 81.296105 
L 757.648204 85.287932 
L 754.477146 89.42482 
L 751.472655 93.699463 
L 748.640037 98.104311 
L 745.984294 102.631586 
L 743.510117 107.273292 
L 741.221876 112.02123 
L 739.123612 116.867017 
L 737.21903 121.802093 
L 735.511494 126.817742 
L 734.00402 131.905108 
L 732.699271 137.055204 
L 731.599549 142.258936 
L 730.706799 147.507113 
L 730.022596 152.790466 
L 729.548148 158.099665 
L 729.284295 163.425332 
L 729.231501 168.758063 
L 729.389859 174.088439 
L 729.759092 179.407047 
L 730.338545 184.704492 
L 731.127196 189.97142 
L 732.123651 195.198529 
L 733.326152 200.376586 
L 734.732575 205.496447 
L 736.340435 210.54907 
L 738.146892 215.525532 
L 740.148757 220.417043 
L 742.342495 225.214965 
L 744.724229 229.910824 
L 747.289756 234.496326 
L 750.034542 238.963374 
L 752.953741 243.304078 
L 756.042198 247.510773 
L 759.294457 251.576028 
L 762.704775 255.492664 
L 766.267129 259.253763 
L 769.975228 262.852685 
L 773.822523 266.283071 
L 777.802218 269.538865 
L 781.907286 272.614316 
L 786.130477 275.503992 
L 790.464331 278.20279 
L 794.901196 280.705944 
L 799.433235 283.009033 
L 804.052444 285.10799 
L 808.750665 286.999106 
L 813.519601 288.679044 
L 818.350829 290.144835 
L 823.235817 291.393891 
L 828.165938 292.424006 
L 833.132484 293.233361 
L 838.126685 293.820526 
L 843.139719 294.184465 
L 848.162734 294.324534 
L 853.186858 294.240486 
L 858.203218 293.93247 
L 863.202956 293.40103 
L 868.17724 292.647104 
L 873.117286 291.672023 
L 878.01437 290.477511 
L 882.859842 289.065676 
L 887.645145 287.439011 
L 892.361828 285.600391 
L 897.00156 283.553061 
L 901.556148 281.300638 
L 906.017548 278.847099 
L 910.37788 276.196779 
L 914.629444 273.354356 
L 918.76473 270.324853 
L 922.776437 267.113618 
L 926.657478 263.726323 
L 930.400999 260.168951 
L 934.00039 256.447784 
L 937.449292 252.569394 
L 940.741616 248.540631 
L 943.871546 244.36861 
L 946.833554 240.060698 
L 949.622411 235.624505 
L 952.233189 231.067865 
L 954.661279 226.398825 
L 956.902392 221.625631 
L 958.95257 216.756714 
L 960.808192 211.800672 
L 962.465981 206.766257 
L 963.92301 201.662362 
L 965.176704 196.498 
L 966.224851 191.282292 
L 967.065598 186.02445 
L 967.697461 180.733758 
L 968.119324 175.419562 
L 968.330442 170.091246 
L 968.35684 167.424733 
L 968.35684 167.424733 
" clip-path="url(#pae08f9a8bc)" style="fill: none; stroke: #ff0000; stroke-width: 0.72; stroke-linejoin: miter"/>
   </g>
   <g id="patch_12">
    <path d="M 392.877172 157.92301 
L 402.378895 167.424733 
L 392.877172 176.926456 
L 383.375449 167.424733 
L 392.877172 157.92301 
" clip-path="url(#pae08f9a8bc)" style="fill: none; stroke: #ff0000; stroke-width: 0.72; stroke-linejoin: miter"/>
   </g>
   <g id="patch_13">
    <path d="M 841.22159 157.92301 
L 850.723313 167.424733 
L 841.22159 176.926456 
L 831.719867 167.424733 
L 841.22159 157.92301 
" clip-path="url(#pae08f9a8bc)" style="fill: none; stroke: #ff0000; stroke-width: 0.72; stroke-linejoin: miter"/>
   </g>
   <g id="patch_14">
    <path d="M 460.723256 232.91689 
L 469.588482 243.015071 
L 459.4903 251.880296 
L 450.625075 241.782115 
L 460.723256 232.91689 
" clip-path="url(#pae08f9a8bc)" style="fill: none; stroke: #ff0000; stroke-width: 0.72; stroke-linejoin: miter"/>
   </g>
   <g id="patch_15">
    <path d="M 954.806905 265.041039 
L 963.672131 275.13922 
L 953.573949 284.004445 
L 944.708724 273.906264 
L 954.806905 265.041039 
" clip-path="url(#pae08f9a8bc)" style="fill: none; stroke: #ff0000; stroke-width: 0.72; stroke-linejoin: miter"/>
   </g>
   <g id="patch_16">
    <path d="M 554.237451 207.867005 
L 563.739174 198.365282 
L 573.240897 207.867005 
L 563.739174 217.368728 
L 554.237451 207.867005 
" clip-path="url(#pae08f9a8bc)" style="fill: none; stroke: #ff0000; stroke-width: 0.72; stroke-linejoin: miter"/>
   </g>
   <g id="patch_17">
    <path d="M 554.237451 127.829633 
L 563.739174 118.32791 
L 573.240897 127.829633 
L 563.739174 137.331356 
L 554.237451 127.829633 
" clip-path="url(#pae08f9a8bc)" style="fill: none; stroke: #ff0000; stroke-width: 0.72; stroke-linejoin: miter"/>
   </g>
   <g id="line2d_1">
    <path d="M 81.628653 167.424733 
L 1099.636364 167.424733 
" clip-path="url(#pae08f9a8bc)" style="fill: none; stroke: #ffffff; stroke-width: 0.72; stroke-linecap: square"/>
   </g>
   <g id="line2d_2">
    <path d="M 381.475104 167.424733 
L 404.27924 167.424733 
" clip-path="url(#pae08f9a8bc)" style="fill: none; stroke: #ffffff; stroke-width: 0.72; stroke-linecap: square"/>
   </g>
   <g id="line2d_3">
    <path d="M 829.819522 167.424733 
L 852.623658 167.424733 
" clip-path="url(#pae08f9a8bc)" style="fill: none; stroke: #ffffff; stroke-width: 0.72; stroke-linecap: square"/>
   </g>
   <g id="line2d_4">
    <path d="M 52.513645 215.897852 
L 1099.636364 283.979293 
" clip-path="url(#pae08f9a8bc)" style="fill: none; stroke: #ffffff; stroke-width: 0.72; stroke-linecap: square"/>
   </g>
   <g id="line2d_5">
    <path d="M 448.728734 241.658819 
L 471.484822 243.138366 
" clip-path="url(#pae08f9a8bc)" style="fill: none; stroke: #ffffff; stroke-width: 0.72; stroke-linecap: square"/>
   </g>
   <g id="line2d_6">
    <path d="M 942.812383 273.782969 
L 965.568471 275.262516 
" clip-path="url(#pae08f9a8bc)" style="fill: none; stroke: #ffffff; stroke-width: 0.72; stroke-linecap: square"/>
   </g>
   <g id="line2d_7">
    <path d="M 848.790871 40.523181 
L 848.790871 38.622837 
" clip-path="url(#pae08f9a8bc)" style="fill: none; stroke: #ff0000; stroke-width: 0.72; stroke-linecap: square"/>
   </g>
   <g id="line2d_8">
    <path d="M 848.790871 294.326285 
L 848.790871 296.22663 
" clip-path="url(#pae08f9a8bc)" style="fill: none; stroke: #ff0000; stroke-width: 0.72; stroke-linecap: square"/>
   </g>
   <g id="line2d_9">
    <path d="M 968.35684 167.424733 
L 970.257185 167.424733 
" clip-path="url(#pae08f9a8bc)" style="fill: none; stroke: #ff0000; stroke-width: 0.72; stroke-linecap: square"/>
   </g>
   <g id="line2d_10">
    <path d="M 729.224901 167.424733 
L 727.324556 167.424733 
" clip-path="url(#pae08f9a8bc)" style="fill: none; stroke: #ff0000; stroke-width: 0.72; stroke-linecap: square"/>
   </g>
   <g id="line2d_11">
    <path d="M 563.739174 313.596179 
L 563.739174 22.100459 
" clip-path="url(#pae08f9a8bc)" style="fill: none; stroke: #ffffff; stroke-width: 0.72; stroke-linecap: square"/>
   </g>
   <g id="line2d_12">
    <path d="M 563.739174 219.269073 
L 563.739174 196.464937 
" clip-path="url(#pae08f9a8bc)" style="fill: none; stroke: #ffffff; stroke-width: 0.72; stroke-linecap: square"/>
   </g>
   <g id="line2d_13">
    <path d="M 563.739174 139.231701 
L 563.739174 116.427565 
" clip-path="url(#pae08f9a8bc)" style="fill: none; stroke: #ffffff; stroke-width: 0.72; stroke-linecap: square"/>
   </g>
  </g>
 </g>
 <defs>
  <clipPath id="pae08f9a8bc">
   <rect x="0" y="0" width="1152" height="335.570033"/>
  </clipPath>
 </defs>
</svg>
