  0
SECTION
  2
HEADER
  9
$ACADVER
  1
AC1021
  9
$ACADMAINTVER
 70
25
  9
$DWGCODEPAGE
  3
ANSI_1252
  9
$LASTSAVEDBY
  1
ezdxf
  9
$INSBASE
 10
0.0
 20
0.0
 30
0.0
  9
$EXTMIN
 10
1e+20
 20
1e+20
 30
1e+20
  9
$EXTMAX
 10
-1e+20
 20
-1e+20
 30
-1e+20
  9
$LIMMIN
 10
0.0
 20
0.0
  9
$LIMMAX
 10
420.0
 20
297.0
  9
$ORTHOMODE
 70
0
  9
$REGENMODE
 70
1
  9
$FILLMODE
 70
1
  9
$QTEXTMODE
 70
0
  9
$MIRRTEXT
 70
1
  9
$LTSCALE
 40
1.0
  9
$ATTMODE
 70
1
  9
$TEXTSIZE
 40
2.5
  9
$TRACEWID
 40
1.0
  9
$TEXTSTYLE
  7
OpenSans
  9
$CLAYER
  8
0
  9
$CELTYPE
  6
ByLayer
  9
$CECOLOR
 62
256
  9
$CELTSCALE
 40
1.0
  9
$DISPSILH
 70
0
  9
$DIMSCALE
 40
1.0
  9
$DIMASZ
 40
0.175
  9
$DIMEXO
 40
0.125
  9
$DIMDLI
 40
3.75
  9
$DIMRND
 40
0.0
  9
$DIMDLE
 40
0.0
  9
$DIMEXE
 40
0.375
  9
$DIMTP
 40
0.0
  9
$DIMTM
 40
0.0
  9
$DIMTXT
 40
0.25
  9
$DIMCEN
 40
2.5
  9
$DIMTSZ
 40
0.0
  9
$DIMTOL
 70
0
  9
$DIMLIM
 70
0
  9
$DIMTIH
 70
0
  9
$DIMTOH
 70
0
  9
$DIMSE1
 70
0
  9
$DIMSE2
 70
0
  9
$DIMTAD
 70
1
  9
$DIMZIN
 70
12
  9
$DIMBLK
  1
ARCHTICK
  9
$DIMASO
 70
1
  9
$DIMSHO
 70
1
  9
$DIMPOST
  1

  9
$DIMAPOST
  1

  9
$DIMALT
 70
0
  9
$DIMALTD
 70
3
  9
$DIMALTF
 40
0.03937007874
  9
$DIMLFAC
 40
100.0
  9
$DIMTOFL
 70
1
  9
$DIMTVP
 40
0.0
  9
$DIMTIX
 70
0
  9
$DIMSOXD
 70
0
  9
$DIMSAH
 70
0
  9
$DIMBLK1
  1

  9
$DIMBLK2
  1

  9
$DIMSTYLE
  2
EZDXF
  9
$DIMCLRD
 70
0
  9
$DIMCLRE
 70
0
  9
$DIMCLRT
 70
0
  9
$DIMTFAC
 40
0.5
  9
$DIMGAP
 40
0.1
  9
$DIMJUST
 70
0
  9
$DIMSD1
 70
0
  9
$DIMSD2
 70
0
  9
$DIMTOLJ
 70
0
  9
$DIMTZIN
 70
8
  9
$DIMALTZ
 70
0
  9
$DIMALTTZ
 70
0
  9
$DIMUPT
 70
1
  9
$DIMDEC
 70
2
  9
$DIMTDEC
 70
2
  9
$DIMALTU
 70
2
  9
$DIMALTTD
 70
3
  9
$DIMTXSTY
  7
OpenSansCondensed-Light
  9
$DIMAUNIT
 70
0
  9
$DIMADEC
 70
2
  9
$DIMALTRND
 40
0.0
  9
$DIMAZIN
 70
3
  9
$DIMDSEP
 70
46
  9
$DIMATFIT
 70
3
  9
$DIMFRAC
 70
0
  9
$DIMLDRBLK
  1

  9
$DIMLUNIT
 70
2
  9
$DIMLWD
 70
-2
  9
$DIMLWE
 70
-2
  9
$DIMTMOVE
 70
2
  9
$DIMFXL
 40
1.0
  9
$DIMFXLON
 70
0
  9
$DIMJOGANG
 40
0.785398163397
  9
$DIMTFILL
 70
0
  9
$DIMTFILLCLR
 70
0
  9
$DIMARCSYM
 70
0
  9
$DIMLTYPE
  6

  9
$DIMLTEX1
  6

  9
$DIMLTEX2
  6

  9
$LUNITS
 70
2
  9
$LUPREC
 70
4
  9
$SKETCHINC
 40
1.0
  9
$FILLETRAD
 40
10.0
  9
$AUNITS
 70
0
  9
$AUPREC
 70
2
  9
$MENU
  1
.
  9
$ELEVATION
 40
0.0
  9
$PELEVATION
 40
0.0
  9
$THICKNESS
 40
0.0
  9
$LIMCHECK
 70
0
  9
$CHAMFERA
 40
0.0
  9
$CHAMFERB
 40
0.0
  9
$CHAMFERC
 40
0.0
  9
$CHAMFERD
 40
0.0
  9
$SKPOLY
 70
0
  9
$TDCREATE
 40
2461048.088460648
  9
$TDUCREATE
 40
2458532.153996898
  9
$TDUPDATE
 40
2461048.088460648
  9
$TDUUPDATE
 40
2458532.1544311
  9
$TDINDWG
 40
0.0
  9
$TDUSRTIMER
 40
0.0
  9
$USRTIMER
 70
1
  9
$ANGBASE
 50
0.0
  9
$ANGDIR
 70
0
  9
$PDMODE
 70
0
  9
$PDSIZE
 40
0.0
  9
$PLINEWID
 40
0.0
  9
$SPLFRAME
 70
0
  9
$SPLINETYPE
 70
6
  9
$SPLINESEGS
 70
8
  9
$HANDSEED
  5
BC
  9
$SURFTAB1
 70
6
  9
$SURFTAB2
 70
6
  9
$SURFTYPE
 70
6
  9
$SURFU
 70
6
  9
$SURFV
 70
6
  9
$UCSBASE
  2

  9
$UCSNAME
  2

  9
$UCSORG
 10
0.0
 20
0.0
 30
0.0
  9
$UCSXDIR
 10
1.0
 20
0.0
 30
0.0
  9
$UCSYDIR
 10
0.0
 20
1.0
 30
0.0
  9
$UCSORTHOREF
  2

  9
$UCSORTHOVIEW
 70
0
  9
$UCSORGTOP
 10
0.0
 20
0.0
 30
0.0
  9
$UCSORGBOTTOM
 10
0.0
 20
0.0
 30
0.0
  9
$UCSORGLEFT
 10
0.0
 20
0.0
 30
0.0
  9
$UCSORGRIGHT
 10
0.0
 20
0.0
 30
0.0
  9
$UCSORGFRONT
 10
0.0
 20
0.0
 30
0.0
  9
$UCSORGBACK
 10
0.0
 20
0.0
 30
0.0
  9
$PUCSBASE
  2

  9
$PUCSNAME
  2

  9
$PUCSORG
 10
0.0
 20
0.0
 30
0.0
  9
$PUCSXDIR
 10
1.0
 20
0.0
 30
0.0
  9
$PUCSYDIR
 10
0.0
 20
1.0
 30
0.0
  9
$PUCSORTHOREF
  2

  9
$PUCSORTHOVIEW
 70
0
  9
$PUCSORGTOP
 10
0.0
 20
0.0
 30
0.0
  9
$PUCSORGBOTTOM
 10
0.0
 20
0.0
 30
0.0
  9
$PUCSORGLEFT
 10
0.0
 20
0.0
 30
0.0
  9
$PUCSORGRIGHT
 10
0.0
 20
0.0
 30
0.0
  9
$PUCSORGFRONT
 10
0.0
 20
0.0
 30
0.0
  9
$PUCSORGBACK
 10
0.0
 20
0.0
 30
0.0
  9
$USERI1
 70
0
  9
$USERI2
 70
0
  9
$USERI3
 70
0
  9
$USERI4
 70
0
  9
$USERI5
 70
0
  9
$USERR1
 40
0.0
  9
$USERR2
 40
0.0
  9
$USERR3
 40
0.0
  9
$USERR4
 40
0.0
  9
$USERR5
 40
0.0
  9
$WORLDVIEW
 70
1
  9
$SHADEDGE
 70
3
  9
$SHADEDIF
 70
70
  9
$TILEMODE
 70
1
  9
$MAXACTVP
 70
64
  9
$PINSBASE
 10
0.0
 20
0.0
 30
0.0
  9
$PLIMCHECK
 70
0
  9
$PEXTMIN
 10
1e+20
 20
1e+20
 30
1e+20
  9
$PEXTMAX
 10
-1e+20
 20
-1e+20
 30
-1e+20
  9
$PLIMMIN
 10
0.0
 20
0.0
  9
$PLIMMAX
 10
420.0
 20
297.0
  9
$UNITMODE
 70
0
  9
$VISRETAIN
 70
1
  9
$PLINEGEN
 70
0
  9
$PSLTSCALE
 70
1
  9
$TREEDEPTH
 70
3020
  9
$CMLSTYLE
  2
Standard
  9
$CMLJUST
 70
0
  9
$CMLSCALE
 40
20.0
  9
$PROXYGRAPHICS
 70
1
  9
$MEASUREMENT
 70
1
  9
$CELWEIGHT
370
-1
  9
$ENDCAPS
280
0
  9
$JOINSTYLE
280
0
  9
$LWDISPLAY
290
0
  9
$INSUNITS
 70
6
  9
$HYPERLINKBASE
  1

  9
$STYLESHEET
  1

  9
$XEDIT
290
1
  9
$CEPSNTYPE
380
0
  9
$PSTYLEMODE
290
1
  9
$FINGERPRINTGUID
  2
{CC3C4956-B63B-48CE-A6AE-D9DA331FE41B}
  9
$VERSIONGUID
  2
{28724189-D435-4703-8D27-7B26025DAD39}
  9
$EXTNAMES
290
1
  9
$PSVPSCALE
 40
0.0
  9
$OLESTARTUP
290
0
  9
$SORTENTS
280
127
  9
$INDEXCTL
280
0
  9
$HIDETEXT
280
1
  9
$XCLIPFRAME
290
1
  9
$HALOGAP
280
0
  9
$OBSCOLOR
 70
257
  9
$OBSLTYPE
280
0
  9
$INTERSECTIONDISPLAY
280
0
  9
$INTERSECTIONCOLOR
 70
257
  9
$DIMASSOC
280
2
  9
$PROJECTNAME
  1

  9
$CAMERADISPLAY
290
0
  9
$LENSLENGTH
 40
50.0
  9
$CAMERAHEIGHT
 40
0.0
  9
$STEPSPERSEC
 40
24.0
  9
$STEPSIZE
 40
100.0
  9
$3DDWFPREC
 40
2.0
  9
$PSOLWIDTH
 40
0.005
  9
$PSOLHEIGHT
 40
0.08
  9
$LOFTANG1
 40
1.570796326795
  9
$LOFTANG2
 40
1.570796326795
  9
$LOFTMAG1
 40
0.0
  9
$LOFTMAG2
 40
0.0
  9
$LOFTPARAM
 70
7
  9
$LOFTNORMALS
280
1
  9
$LATITUDE
 40
37.795
  9
$LONGITUDE
 40
-122.394
  9
$NORTHDIRECTION
 40
0.0
  9
$TIMEZONE
 70
-8000
  9
$LIGHTGLYPHDISPLAY
280
1
  9
$TILEMODELIGHTSYNCH
280
1
  9
$CMATERIAL
347
20
  9
$SOLIDHIST
280
0
  9
$SHOWHIST
280
1
  9
$DWFFRAME
280
2
  9
$DGNFRAME
280
2
  9
$REALWORLDSCALE
290
1
  9
$INTERFERECOLOR
 62
256
  9
$CSHADOW
280
0
  9
$SHADOWPLANELOCATION
 40
0.0
  0
ENDSEC
  0
SECTION
  2
CLASSES
  0
CLASS
  1
ACDBDICTIONARYWDFLT
  2
AcDbDictionaryWithDefault
  3
ObjectDBX Classes
 90
0
 91
0
280
0
281
0
  0
CLASS
  1
SUN
  2
AcDbSun
  3
SCENEOE
 90
1153
 91
0
280
0
281
0
  0
CLASS
  1
VISUALSTYLE
  2
AcDbVisualStyle
  3
ObjectDBX Classes
 90
4095
 91
0
280
0
281
0
  0
CLASS
  1
MATERIAL
  2
AcDbMaterial
  3
ObjectDBX Classes
 90
1153
 91
0
280
0
281
0
  0
CLASS
  1
SCALE
  2
AcDbScale
  3
ObjectDBX Classes
 90
1153
 91
0
280
0
281
0
  0
CLASS
  1
TABLESTYLE
  2
AcDbTableStyle
  3
ObjectDBX Classes
 90
4095
 91
0
280
0
281
0
  0
CLASS
  1
MLEADERSTYLE
  2
AcDbMLeaderStyle
  3
ACDB_MLEADERSTYLE_CLASS
 90
4095
 91
0
280
0
281
0
  0
CLASS
  1
DICTIONARYVAR
  2
AcDbDictionaryVar
  3
ObjectDBX Classes
 90
0
 91
0
280
0
281
0
  0
CLASS
  1
CELLSTYLEMAP
  2
AcDbCellStyleMap
  3
ObjectDBX Classes
 90
1152
 91
0
280
0
281
0
  0
CLASS
  1
MENTALRAYRENDERSETTINGS
  2
AcDbMentalRayRenderSettings
  3
SCENEOE
 90
1024
 91
0
280
0
281
0
  0
CLASS
  1
ACDBDETAILVIEWSTYLE
  2
AcDbDetailViewStyle
  3
ObjectDBX Classes
 90
1025
 91
0
280
0
281
0
  0
CLASS
  1
ACDBSECTIONVIEWSTYLE
  2
AcDbSectionViewStyle
  3
ObjectDBX Classes
 90
1025
 91
0
280
0
281
0
  0
CLASS
  1
RASTERVARIABLES
  2
AcDbRasterVariables
  3
ISM
 90
0
 91
0
280
0
281
0
  0
CLASS
  1
ACDBPLACEHOLDER
  2
AcDbPlaceHolder
  3
ObjectDBX Classes
 90
0
 91
0
280
0
281
0
  0
CLASS
  1
LAYOUT
  2
AcDbLayout
  3
ObjectDBX Classes
 90
0
 91
0
280
0
281
0
  0
ENDSEC
  0
SECTION
  2
TABLES
  0
TABLE
  2
VPORT
  5
8
330
0
100
AcDbSymbolTable
 70
1
  0
VPORT
  5
23
330
8
100
AcDbSymbolTableRecord
100
AcDbViewportTableRecord
  2
*Active
 70
0
 10
0.0
 20
0.0
 11
1.0
 21
1.0
 12
0.0
 22
0.0
 13
0.0
 23
0.0
 14
0.5
 24
0.5
 15
0.5
 25
0.5
 16
0.0
 26
0.0
 36
1.0
 17
0.0
 27
0.0
 37
0.0
 40
1000.0
 41
1.34
 42
50.0
 43
0.0
 44
0.0
 50
0.0
 51
0.0
 71
0
 72
1000
 73
1
 74
3
 75
0
 76
0
 77
0
 78
0
281
0
 65
0
146
0.0
  0
ENDTAB
  0
TABLE
  2
LTYPE
  5
2
330
0
100
AcDbSymbolTable
 70
21
  0
LTYPE
  5
24
330
2
100
AcDbSymbolTableRecord
100
AcDbLinetypeTableRecord
  2
ByBlock
 70
0
  3

 72
65
 73
0
 40
0.0
  0
LTYPE
  5
25
330
2
100
AcDbSymbolTableRecord
100
AcDbLinetypeTableRecord
  2
ByLayer
 70
0
  3

 72
65
 73
0
 40
0.0
  0
LTYPE
  5
26
330
2
100
AcDbSymbolTableRecord
100
AcDbLinetypeTableRecord
  2
Continuous
 70
0
  3

 72
65
 73
0
 40
0.0
  0
LTYPE
  5
2F
330
2
100
AcDbSymbolTableRecord
100
AcDbLinetypeTableRecord
  2
CENTER
 70
0
  3
Center ____ _ ____ _ ____ _ ____ _ ____ _ ____
 72
65
 73
4
 40
5.08
 49
3.175
 74
0
 49
-0.635
 74
0
 49
0.635
 74
0
 49
-0.635
 74
0
  0
LTYPE
  5
30
330
2
100
AcDbSymbolTableRecord
100
AcDbLinetypeTableRecord
  2
CENTERX2
 70
0
  3
Center (2x) ________  __  ________  __  ________
 72
65
 73
4
 40
8.89
 49
6.35
 74
0
 49
-0.635
 74
0
 49
1.27
 74
0
 49
-0.635
 74
0
  0
LTYPE
  5
31
330
2
100
AcDbSymbolTableRecord
100
AcDbLinetypeTableRecord
  2
CENTER2
 70
0
  3
Center (.5x) ____ _ ____ _ ____ _ ____ _ ____
 72
65
 73
4
 40
2.54
 49
1.587
 74
0
 49
-0.318
 74
0
 49
0.318
 74
0
 49
-0.318
 74
0
  0
LTYPE
  5
32
330
2
100
AcDbSymbolTableRecord
100
AcDbLinetypeTableRecord
  2
DASHED
 70
0
  3
Dashed __ __ __ __ __ __ __ __ __ __ __ __ __ _
 72
65
 73
2
 40
1.524
 49
1.27
 74
0
 49
-0.254
 74
0
  0
LTYPE
  5
33
330
2
100
AcDbSymbolTableRecord
100
AcDbLinetypeTableRecord
  2
DASHEDX2
 70
0
  3
Dashed (2x) ____  ____  ____  ____  ____  ____
 72
65
 73
2
 40
3.048
 49
2.54
 74
0
 49
-0.508
 74
0
  0
LTYPE
  5
34
330
2
100
AcDbSymbolTableRecord
100
AcDbLinetypeTableRecord
  2
DASHED2
 70
0
  3
Dashed (.5x) _ _ _ _ _ _ _ _ _ _ _ _ _ _
 72
65
 73
2
 40
0.762
 49
0.635
 74
0
 49
-0.127
 74
0
  0
LTYPE
  5
35
330
2
100
AcDbSymbolTableRecord
100
AcDbLinetypeTableRecord
  2
PHANTOM
 70
0
  3
Phantom ______  __  __  ______  __  __  ______
 72
65
 73
6
 40
6.35
 49
3.175
 74
0
 49
-0.635
 74
0
 49
0.635
 74
0
 49
-0.635
 74
0
 49
0.635
 74
0
 49
-0.635
 74
0
  0
LTYPE
  5
36
330
2
100
AcDbSymbolTableRecord
100
AcDbLinetypeTableRecord
  2
PHANTOMX2
 70
0
  3
Phantom (2x)____________    ____    ____    ____________
 72
65
 73
6
 40
10.795
 49
6.35
 74
0
 49
-0.635
 74
0
 49
1.27
 74
0
 49
-0.635
 74
0
 49
1.27
 74
0
 49
-0.635
 74
0
  0
LTYPE
  5
37
330
2
100
AcDbSymbolTableRecord
100
AcDbLinetypeTableRecord
  2
PHANTOM2
 70
0
  3
Phantom (.5x) ___ _ _ ___ _ _ ___ _ _ ___ _ _ ___
 72
65
 73
6
 40
3.175
 49
1.587
 74
0
 49
-0.318
 74
0
 49
0.318
 74
0
 49
-0.318
 74
0
 49
0.318
 74
0
 49
-0.318
 74
0
  0
LTYPE
  5
38
330
2
100
AcDbSymbolTableRecord
100
AcDbLinetypeTableRecord
  2
DASHDOT
 70
0
  3
Dash dot __ . __ . __ . __ . __ . __ . __ . __
 72
65
 73
4
 40
3.556
 49
2.54
 74
0
 49
-0.508
 74
0
 49
0.0
 74
0
 49
-0.508
 74
0
  0
LTYPE
  5
39
330
2
100
AcDbSymbolTableRecord
100
AcDbLinetypeTableRecord
  2
DASHDOTX2
 70
0
  3
Dash dot (2x) ____  .  ____  .  ____  .  ____
 72
65
 73
4
 40
6.096
 49
5.08
 74
0
 49
-0.508
 74
0
 49
0.0
 74
0
 49
-0.508
 74
0
  0
LTYPE
  5
3A
330
2
100
AcDbSymbolTableRecord
100
AcDbLinetypeTableRecord
  2
DASHDOT2
 70
0
  3
Dash dot (.5x) _ . _ . _ . _ . _ . _ . _ . _
 72
65
 73
4
 40
1.778
 49
1.27
 74
0
 49
-0.254
 74
0
 49
0.0
 74
0
 49
-0.254
 74
0
  0
LTYPE
  5
3B
330
2
100
AcDbSymbolTableRecord
100
AcDbLinetypeTableRecord
  2
DOT
 70
0
  3
Dot .  .  .  .  .  .  .  .  .  .  .  .  .  .  .  .
 72
65
 73
2
 40
0.508
 49
0.0
 74
0
 49
-0.508
 74
0
  0
LTYPE
  5
3C
330
2
100
AcDbSymbolTableRecord
100
AcDbLinetypeTableRecord
  2
DOTX2
 70
0
  3
Dot (2x) .    .    .    .    .    .    .    . 
 72
65
 73
2
 40
1.016
 49
0.0
 74
0
 49
-1.016
 74
0
  0
LTYPE
  5
3D
330
2
100
AcDbSymbolTableRecord
100
AcDbLinetypeTableRecord
  2
DOT2
 70
0
  3
Dot (.5) . . . . . . . . . . . . . . . . . . . 
 72
65
 73
2
 40
0.254
 49
0.0
 74
0
 49
-0.254
 74
0
  0
LTYPE
  5
3E
330
2
100
AcDbSymbolTableRecord
100
AcDbLinetypeTableRecord
  2
DIVIDE
 70
0
  3
Divide __ . . __ . . __ . . __ . . __ . . __
 72
65
 73
6
 40
4.064
 49
2.54
 74
0
 49
-0.508
 74
0
 49
0.0
 74
0
 49
-0.508
 74
0
 49
0.0
 74
0
 49
-0.508
 74
0
  0
LTYPE
  5
3F
330
2
100
AcDbSymbolTableRecord
100
AcDbLinetypeTableRecord
  2
DIVIDEX2
 70
0
  3
Divide (2x) ____  . .  ____  . .  ____  . .  ____
 72
65
 73
6
 40
6.604
 49
5.08
 74
0
 49
-0.508
 74
0
 49
0.0
 74
0
 49
-0.508
 74
0
 49
0.0
 74
0
 49
-0.508
 74
0
  0
LTYPE
  5
40
330
2
100
AcDbSymbolTableRecord
100
AcDbLinetypeTableRecord
  2
DIVIDE2
 70
0
  3
Divide(.5x) _ . _ . _ . _ . _ . _ . _ . _
 72
65
 73
6
 40
2.032
 49
1.27
 74
0
 49
-0.254
 74
0
 49
0.0
 74
0
 49
-0.254
 74
0
 49
0.0
 74
0
 49
-0.254
 74
0
  0
ENDTAB
  0
TABLE
  2
LAYER
  5
1
330
0
100
AcDbSymbolTable
 70
4
  0
LAYER
  5
27
330
1
100
AcDbSymbolTableRecord
100
AcDbLayerTableRecord
  2
0
 70
0
 62
7
  6
Continuous
370
-3
390
13
347
21
  0
LAYER
  5
28
330
1
100
AcDbSymbolTableRecord
100
AcDbLayerTableRecord
  2
Defpoints
 70
0
 62
7
  6
Continuous
290
0
370
-3
390
13
347
21
  0
LAYER
  5
8A
330
1
100
AcDbSymbolTableRecord
100
AcDbLayerTableRecord
  2
Layer
 70
0
 62
1
  6
Continuous
370
50
390
13
347
21
  0
LAYER
  5
8B
330
1
100
AcDbSymbolTableRecord
100
AcDbLayerTableRecord
  2
NumLabel
 70
0
 62
1
  6
Continuous
370
15
390
13
347
21
  0
ENDTAB
  0
TABLE
  2
STYLE
  5
5
330
0
100
AcDbSymbolTable
 70
26
  0
STYLE
  5
29
330
5
100
AcDbSymbolTableRecord
100
AcDbTextStyleTableRecord
  2
Standard
 70
0
 40
0.0
 41
1.0
 50
0.0
 71
0
 42
2.5
  3
txt
  4

  0
STYLE
  5
41
330
5
100
AcDbSymbolTableRecord
100
AcDbTextStyleTableRecord
  2
OpenSans-Light
 70
0
 40
0.0
 41
1.0
 50
0.0
 71
0
 42
2.5
  3
OpenSans-Light.ttf
  4

  0
STYLE
  5
42
330
5
100
AcDbSymbolTableRecord
100
AcDbTextStyleTableRecord
  2
OpenSans-Light-Italic
 70
0
 40
0.0
 41
1.0
 50
0.0
 71
0
 42
2.5
  3
OpenSans-LightItalic.ttf
  4

  0
STYLE
  5
43
330
5
100
AcDbSymbolTableRecord
100
AcDbTextStyleTableRecord
  2
OpenSans
 70
0
 40
0.0
 41
1.0
 50
0.0
 71
0
 42
2.5
  3
OpenSans-Regular.ttf
  4

  0
STYLE
  5
44
330
5
100
AcDbSymbolTableRecord
100
AcDbTextStyleTableRecord
  2
OpenSans-Italic
 70
0
 40
0.0
 41
1.0
 50
0.0
 71
0
 42
2.5
  3
OpenSans-Italic.ttf
  4

  0
STYLE
  5
45
330
5
100
AcDbSymbolTableRecord
100
AcDbTextStyleTableRecord
  2
OpenSans-SemiBold
 70
0
 40
0.0
 41
1.0
 50
0.0
 71
0
 42
2.5
  3
OpenSans-SemiBold.ttf
  4

  0
STYLE
  5
46
330
5
100
AcDbSymbolTableRecord
100
AcDbTextStyleTableRecord
  2
OpenSans-SemiBoldItalic
 70
0
 40
0.0
 41
1.0
 50
0.0
 71
0
 42
2.5
  3
OpenSans-SemiBoldItalic.ttf
  4

  0
STYLE
  5
47
330
5
100
AcDbSymbolTableRecord
100
AcDbTextStyleTableRecord
  2
OpenSans-Bold
 70
0
 40
0.0
 41
1.0
 50
0.0
 71
0
 42
2.5
  3
OpenSans-Bold.ttf
  4

  0
STYLE
  5
48
330
5
100
AcDbSymbolTableRecord
100
AcDbTextStyleTableRecord
  2
OpenSans-BoldItalic
 70
0
 40
0.0
 41
1.0
 50
0.0
 71
0
 42
2.5
  3
OpenSans-BoldItalic.ttf
  4

  0
STYLE
  5
49
330
5
100
AcDbSymbolTableRecord
100
AcDbTextStyleTableRecord
  2
OpenSans-ExtraBold
 70
0
 40
0.0
 41
1.0
 50
0.0
 71
0
 42
2.5
  3
OpenSans-ExtraBold.ttf
  4

  0
STYLE
  5
4A
330
5
100
AcDbSymbolTableRecord
100
AcDbTextStyleTableRecord
  2
OpenSans-ExtraBoldItalic
 70
0
 40
0.0
 41
1.0
 50
0.0
 71
0
 42
2.5
  3
OpenSans-ExtraBoldItalic.ttf
  4

  0
STYLE
  5
4B
330
5
100
AcDbSymbolTableRecord
100
AcDbTextStyleTableRecord
  2
OpenSansCondensed-Bold
 70
0
 40
0.0
 41
1.0
 50
0.0
 71
0
 42
2.5
  3
OpenSansCondensed-Bold.ttf
  4

  0
STYLE
  5
4C
330
5
100
AcDbSymbolTableRecord
100
AcDbTextStyleTableRecord
  2
OpenSansCondensed-Light
 70
0
 40
0.0
 41
1.0
 50
0.0
 71
0
 42
2.5
  3
OpenSansCondensed-Light.ttf
  4

  0
STYLE
  5
4D
330
5
100
AcDbSymbolTableRecord
100
AcDbTextStyleTableRecord
  2
OpenSansCondensed-Italic
 70
0
 40
0.0
 41
1.0
 50
0.0
 71
0
 42
2.5
  3
OpenSansCondensed-LightItalic.ttf
  4

  0
STYLE
  5
4E
330
5
100
AcDbSymbolTableRecord
100
AcDbTextStyleTableRecord
  2
LiberationSans
 70
0
 40
0.0
 41
1.0
 50
0.0
 71
0
 42
2.5
  3
LiberationSans-Regular.ttf
  4

  0
STYLE
  5
4F
330
5
100
AcDbSymbolTableRecord
100
AcDbTextStyleTableRecord
  2
LiberationSans-Bold
 70
0
 40
0.0
 41
1.0
 50
0.0
 71
0
 42
2.5
  3
LiberationSans-Bold.ttf
  4

  0
STYLE
  5
50
330
5
100
AcDbSymbolTableRecord
100
AcDbTextStyleTableRecord
  2
LiberationSans-BoldItalic
 70
0
 40
0.0
 41
1.0
 50
0.0
 71
0
 42
2.5
  3
LiberationSans-BoldItalic.ttf
  4

  0
STYLE
  5
51
330
5
100
AcDbSymbolTableRecord
100
AcDbTextStyleTableRecord
  2
LiberationSans-Italic
 70
0
 40
0.0
 41
1.0
 50
0.0
 71
0
 42
2.5
  3
LiberationSans-Italic.ttf
  4

  0
STYLE
  5
52
330
5
100
AcDbSymbolTableRecord
100
AcDbTextStyleTableRecord
  2
LiberationSerif
 70
0
 40
0.0
 41
1.0
 50
0.0
 71
0
 42
2.5
  3
LiberationSerif-Regular.ttf
  4

  0
STYLE
  5
53
330
5
100
AcDbSymbolTableRecord
100
AcDbTextStyleTableRecord
  2
LiberationSerif-Bold
 70
0
 40
0.0
 41
1.0
 50
0.0
 71
0
 42
2.5
  3
LiberationSerif-Bold.ttf
  4

  0
STYLE
  5
54
330
5
100
AcDbSymbolTableRecord
100
AcDbTextStyleTableRecord
  2
LiberationSerif-BoldItalic
 70
0
 40
0.0
 41
1.0
 50
0.0
 71
0
 42
2.5
  3
LiberationSerif-BoldItalic.ttf
  4

  0
STYLE
  5
55
330
5
100
AcDbSymbolTableRecord
100
AcDbTextStyleTableRecord
  2
LiberationSerif-Italic
 70
0
 40
0.0
 41
1.0
 50
0.0
 71
0
 42
2.5
  3
LiberationSerif-Italic.ttf
  4

  0
STYLE
  5
56
330
5
100
AcDbSymbolTableRecord
100
AcDbTextStyleTableRecord
  2
LiberationMono
 70
0
 40
0.0
 41
1.0
 50
0.0
 71
0
 42
2.5
  3
LiberationMono-Regular.ttf
  4

  0
STYLE
  5
57
330
5
100
AcDbSymbolTableRecord
100
AcDbTextStyleTableRecord
  2
LiberationMono-Bold
 70
0
 40
0.0
 41
1.0
 50
0.0
 71
0
 42
2.5
  3
LiberationMono-Bold.ttf
  4

  0
STYLE
  5
58
330
5
100
AcDbSymbolTableRecord
100
AcDbTextStyleTableRecord
  2
LiberationMono-BoldItalic
 70
0
 40
0.0
 41
1.0
 50
0.0
 71
0
 42
2.5
  3
LiberationMono-BoldItalic.ttf
  4

  0
STYLE
  5
59
330
5
100
AcDbSymbolTableRecord
100
AcDbTextStyleTableRecord
  2
LiberationMono-Italic
 70
0
 40
0.0
 41
1.0
 50
0.0
 71
0
 42
2.5
  3
LiberationMono-Italic.ttf
  4

  0
ENDTAB
  0
TABLE
  2
VIEW
  5
7
330
0
100
AcDbSymbolTable
 70
0
  0
ENDTAB
  0
TABLE
  2
UCS
  5
6
330
0
100
AcDbSymbolTable
 70
0
  0
ENDTAB
  0
TABLE
  2
APPID
  5
3
330
0
100
AcDbSymbolTable
 70
3
  0
APPID
  5
2A
330
3
100
AcDbSymbolTableRecord
100
AcDbRegAppTableRecord
  2
ACAD
 70
0
  0
APPID
  5
B9
330
3
100
AcDbSymbolTableRecord
100
AcDbRegAppTableRecord
  2
HATCHBACKGROUNDCOLOR
 70
0
  0
APPID
  5
BA
330
3
100
AcDbSymbolTableRecord
100
AcDbRegAppTableRecord
  2
EZDXF
 70
0
  0
ENDTAB
  0
TABLE
  2
DIMSTYLE
  5
4
330
0
100
AcDbSymbolTable
 70
12
100
AcDbDimStyleTable
  0
DIMSTYLE
105
2B
330
4
100
AcDbSymbolTableRecord
100
AcDbDimStyleTableRecord
  2
Standard
 70
0
 40
1.0
 41
2.5
 42
0.625
 43
3.75
 44
1.25
 45
0.0
 46
0.0
 47
0.0
 48
0.0
 49
2.5
140
2.5
141
2.5
142
0.0
143
0.03937007874
144
1.0
145
0.0
146
1.0
147
0.625
148
0.0
 69
0
 70
0
 71
0
 72
0
 73
0
 74
0
 75
0
 76
0
 77
1
 78
8
 79
3
170
0
171
3
172
1
173
0
174
0
175
0
176
0
177
0
178
0
179
2
271
2
272
2
273
2
274
3
275
0
276
0
277
2
278
44
279
0
280
0
281
0
282
0
283
0
284
8
285
0
286
0
288
0
289
3
290
0
371
-2
372
-2
  0
DIMSTYLE
105
73
330
4
100
AcDbSymbolTableRecord
100
AcDbDimStyleTableRecord
  2
EZDXF
 70
0
 40
1.0
 41
0.175
 42
0.125
 43
3.75
 44
0.375
 45
0.0
 46
0.0
 47
0.0
 48
0.0
 49
2.5
140
0.25
141
2.5
142
0.0
143
0.03937007874
144
100.0
145
0.0
146
0.5
147
0.1
148
0.0
 69
0
 70
0
 71
0
 72
0
 73
0
 74
0
 75
0
 76
0
 77
1
 78
12
 79
3
170
0
171
3
172
1
173
0
174
0
175
0
176
0
177
0
178
0
179
2
271
2
272
2
273
2
274
3
275
0
276
0
277
2
278
46
279
2
280
0
281
0
282
0
283
0
284
8
285
0
286
0
288
1
289
3
290
0
340
4C
342
74
371
-2
372
-2
  0
DIMSTYLE
105
7C
330
4
100
AcDbSymbolTableRecord
100
AcDbDimStyleTableRecord
  2
EZ_M_100_H25_CM
 70
0
 40
1.0
 41
0.25
 42
0.125
 43
3.75
 44
0.375
 45
0.0
 46
0.0
 47
0.0
 48
0.0
 49
2.5
140
0.25
141
2.5
142
0.125
143
0.03937007874
144
100.0
145
0.0
146
0.5
147
0.1
148
0.0
 69
0
 70
0
 71
0
 72
0
 73
0
 74
0
 75
0
 76
0
 77
1
 78
12
 79
3
170
0
171
3
172
1
173
0
174
0
175
0
176
0
177
0
178
0
179
2
271
2
272
2
273
2
274
3
275
0
276
0
277
2
278
46
279
2
280
0
281
0
282
0
283
0
284
8
285
0
286
0
288
1
289
3
290
0
340
4C
371
-2
372
-2
  0
DIMSTYLE
105
7D
330
4
100
AcDbSymbolTableRecord
100
AcDbDimStyleTableRecord
  2
EZ_M_50_H25_CM
 70
0
 40
1.0
 41
0.125
 42
0.0625
 43
3.75
 44
0.1875
 45
0.0
 46
0.0
 47
0.0
 48
0.0
 49
2.5
140
0.125
141
2.5
142
0.0625
143
0.03937007874
144
100.0
145
0.0
146
0.5
147
0.05
148
0.0
 69
0
 70
0
 71
0
 72
0
 73
0
 74
0
 75
0
 76
0
 77
1
 78
12
 79
3
170
0
171
3
172
1
173
0
174
0
175
0
176
0
177
0
178
0
179
2
271
2
272
2
273
2
274
3
275
0
276
0
277
2
278
46
279
2
280
0
281
0
282
0
283
0
284
8
285
0
286
0
288
1
289
3
290
0
340
4C
371
-2
372
-2
  0
DIMSTYLE
105
7E
330
4
100
AcDbSymbolTableRecord
100
AcDbDimStyleTableRecord
  2
EZ_M_25_H25_CM
 70
0
 40
1.0
 41
0.0625
 42
0.03125
 43
3.75
 44
0.09375
 45
0.0
 46
0.0
 47
0.0
 48
0.0
 49
2.5
140
0.0625
141
2.5
142
0.03125
143
0.03937007874
144
100.0
145
0.0
146
0.5
147
0.025
148
0.0
 69
0
 70
0
 71
0
 72
0
 73
0
 74
0
 75
0
 76
0
 77
1
 78
12
 79
3
170
0
171
3
172
1
173
0
174
0
175
0
176
0
177
0
178
0
179
2
271
2
272
2
273
2
274
3
275
0
276
0
277
2
278
46
279
2
280
0
281
0
282
0
283
0
284
8
285
0
286
0
288
1
289
3
290
0
340
4C
371
-2
372
-2
  0
DIMSTYLE
105
7F
330
4
100
AcDbSymbolTableRecord
100
AcDbDimStyleTableRecord
  2
EZ_M_20_H25_CM
 70
0
 40
1.0
 41
0.05
 42
0.025
 43
3.75
 44
0.07500000000000001
 45
0.0
 46
0.0
 47
0.0
 48
0.0
 49
2.5
140
0.05
141
2.5
142
0.025
143
0.03937007874
144
100.0
145
0.0
146
0.5
147
0.020000000000000004
148
0.0
 69
0
 70
0
 71
0
 72
0
 73
0
 74
0
 75
0
 76
0
 77
1
 78
12
 79
3
170
0
171
3
172
1
173
0
174
0
175
0
176
0
177
0
178
0
179
2
271
2
272
2
273
2
274
3
275
0
276
0
277
2
278
46
279
2
280
0
281
0
282
0
283
0
284
8
285
0
286
0
288
1
289
3
290
0
340
4C
371
-2
372
-2
  0
DIMSTYLE
105
80
330
4
100
AcDbSymbolTableRecord
100
AcDbDimStyleTableRecord
  2
EZ_M_10_H25_CM
 70
0
 40
1.0
 41
0.025
 42
0.0125
 43
3.75
 44
0.037500000000000006
 45
0.0
 46
0.0
 47
0.0
 48
0.0
 49
2.5
140
0.025
141
2.5
142
0.0125
143
0.03937007874
144
100.0
145
0.0
146
0.5
147
0.010000000000000002
148
0.0
 69
0
 70
0
 71
0
 72
0
 73
0
 74
0
 75
0
 76
0
 77
1
 78
12
 79
3
170
0
171
3
172
1
173
0
174
0
175
0
176
0
177
0
178
0
179
2
271
2
272
2
273
2
274
3
275
0
276
0
277
2
278
46
279
2
280
0
281
0
282
0
283
0
284
8
285
0
286
0
288
1
289
3
290
0
340
4C
371
-2
372
-2
  0
DIMSTYLE
105
81
330
4
100
AcDbSymbolTableRecord
100
AcDbDimStyleTableRecord
  2
EZ_M_5_H25_CM
 70
0
 40
1.0
 41
0.0125
 42
0.00625
 43
3.75
 44
0.018750000000000003
 45
0.0
 46
0.0
 47
0.0
 48
0.0
 49
2.5
140
0.0125
141
2.5
142
0.00625
143
0.03937007874
144
100.0
145
0.0
146
0.5
147
0.005000000000000001
148
0.0
 69
0
 70
0
 71
0
 72
0
 73
0
 74
0
 75
0
 76
0
 77
1
 78
12
 79
3
170
0
171
3
172
1
173
0
174
0
175
0
176
0
177
0
178
0
179
2
271
2
272
2
273
2
274
3
275
0
276
0
277
2
278
46
279
2
280
0
281
0
282
0
283
0
284
8
285
0
286
0
288
1
289
3
290
0
340
4C
371
-2
372
-2
  0
DIMSTYLE
105
82
330
4
100
AcDbSymbolTableRecord
100
AcDbDimStyleTableRecord
  2
EZ_M_1_H25_CM
 70
0
 40
1.0
 41
0.0025
 42
0.00125
 43
3.75
 44
0.00375
 45
0.0
 46
0.0
 47
0.0
 48
0.0
 49
2.5
140
0.0025
141
2.5
142
0.00125
143
0.03937007874
144
100.0
145
0.0
146
0.5
147
0.001
148
0.0
 69
0
 70
0
 71
0
 72
0
 73
0
 74
0
 75
0
 76
0
 77
1
 78
12
 79
3
170
0
171
3
172
1
173
0
174
0
175
0
176
0
177
0
178
0
179
2
271
2
272
2
273
2
274
3
275
0
276
0
277
2
278
46
279
2
280
0
281
0
282
0
283
0
284
8
285
0
286
0
288
1
289
3
290
0
340
4C
371
-2
372
-2
  0
DIMSTYLE
105
83
330
4
100
AcDbSymbolTableRecord
100
AcDbDimStyleTableRecord
  2
EZ_RADIUS
 70
0
 40
1.0
 41
0.25
 42
0.125
 43
3.75
 44
0.375
 45
0.0
 46
0.0
 47
0.0
 48
0.0
 49
2.5
140
0.25
141
0.0
142
0.0
143
0.03937007874
144
100.0
145
0.0
146
0.5
147
0.1
148
0.0
 69
0
 70
0
 71
0
 72
0
 73
0
 74
0
 75
0
 76
0
 77
1
 78
12
 79
3
170
0
171
3
172
0
173
0
174
0
175
0
176
0
177
0
178
0
179
2
271
2
272
2
273
2
274
3
275
0
276
0
277
2
278
46
279
1
280
0
281
0
282
0
283
0
284
8
285
0
286
0
288
1
289
3
290
0
340
4C
342
84
371
-2
372
-2
  0
DIMSTYLE
105
88
330
4
100
AcDbSymbolTableRecord
100
AcDbDimStyleTableRecord
  2
EZ_RADIUS_INSIDE
 70
0
 40
1.0
 41
0.25
 42
0.125
 43
3.75
 44
0.375
 45
0.0
 46
0.0
 47
0.0
 48
0.0
 49
2.5
140
0.25
141
0.0
142
0.0
143
0.03937007874
144
100.0
145
0.0
146
0.5
147
0.1
148
0.0
 69
0
 70
0
 71
0
 72
0
 73
0
 74
0
 75
0
 76
0
 77
0
 78
12
 79
3
170
0
171
3
172
0
173
0
174
1
175
0
176
0
177
0
178
0
179
2
271
2
272
2
273
2
274
3
275
0
276
0
277
2
278
46
279
0
280
0
281
0
282
0
283
0
284
8
285
0
286
0
288
1
289
0
290
0
340
4C
342
84
371
-2
372
-2
  0
DIMSTYLE
105
89
330
4
100
AcDbSymbolTableRecord
100
AcDbDimStyleTableRecord
  2
EZ_CURVED
 70
0
 40
1.0
 41
0.25
 42
0.125
 43
3.75
 44
0.375
 45
0.0
 46
0.0
 47
0.0
 48
0.0
 49
2.5
140
0.25
141
2.5
142
0.0
143
0.03937007874
144
100.0
145
0.0
146
0.5
147
0.1
148
0.0
 69
0
 70
0
 71
0
 72
0
 73
0
 74
0
 75
0
 76
0
 77
1
 78
12
 79
2
 90
2
170
0
171
3
172
1
173
0
174
0
175
0
176
0
177
0
178
0
179
2
271
2
272
2
273
2
274
3
275
0
276
0
277
2
278
46
279
2
280
0
281
0
282
0
283
0
284
8
285
0
286
0
288
1
289
3
290
0
340
4C
371
-2
372
-2
  0
ENDTAB
  0
TABLE
  2
BLOCK_RECORD
  5
9
330
0
100
AcDbSymbolTable
 70
5
  0
BLOCK_RECORD
  5
17
330
9
100
AcDbSymbolTableRecord
100
AcDbBlockTableRecord
  2
*Model_Space
340
1A
 70
0
280
1
281
0
  0
BLOCK_RECORD
  5
1B
330
9
100
AcDbSymbolTableRecord
100
AcDbBlockTableRecord
  2
*Paper_Space
340
1E
 70
0
280
1
281
0
  0
BLOCK_RECORD
  5
74
330
9
100
AcDbSymbolTableRecord
100
AcDbBlockTableRecord
  2
_ARCHTICK
340
0
 70
0
280
1
281
0
  0
BLOCK_RECORD
  5
78
330
9
100
AcDbSymbolTableRecord
100
AcDbBlockTableRecord
  2
_CLOSEDFILLED
340
0
 70
0
280
1
281
0
  0
BLOCK_RECORD
  5
84
330
9
100
AcDbSymbolTableRecord
100
AcDbBlockTableRecord
  2
_CLOSEDBLANK
340
0
 70
0
280
1
281
0
  0
ENDTAB
  0
ENDSEC
  0
SECTION
  2
BLOCKS
  0
BLOCK
  5
18
330
17
100
AcDbEntity
  8
0
100
AcDbBlockBegin
  2
*Model_Space
 70
0
 10
0.0
 20
0.0
 30
0.0
  3
*Model_Space
  1

  0
ENDBLK
  5
19
330
17
100
AcDbEntity
  8
0
100
AcDbBlockEnd
  0
BLOCK
  5
1C
330
1B
100
AcDbEntity
  8
0
100
AcDbBlockBegin
  2
*Paper_Space
 70
0
 10
0.0
 20
0.0
 30
0.0
  3
*Paper_Space
  1

  0
ENDBLK
  5
1D
330
1B
100
AcDbEntity
  8
0
100
AcDbBlockEnd
  0
BLOCK
  5
75
330
74
100
AcDbEntity
  8
0
100
AcDbBlockBegin
  2
_ARCHTICK
 70
0
 10
0.0
 20
0.0
 30
0.0
  3
_ARCHTICK
  1

  0
LWPOLYLINE
  5
77
330
74
100
AcDbEntity
  8
0
  6
BYBLOCK
 62
0
100
AcDbPolyline
 90
2
 70
0
 43
0.15
 10
-0.5
 20
-0.5
 10
0.5
 20
0.5
  0
ENDBLK
  5
76
330
74
100
AcDbEntity
  8
0
100
AcDbBlockEnd
  0
BLOCK
  5
79
330
78
100
AcDbEntity
  8
0
100
AcDbBlockBegin
  2
_CLOSEDFILLED
 70
0
 10
0.0
 20
0.0
 30
0.0
  3
_CLOSEDFILLED
  1

  0
SOLID
  5
7B
330
78
100
AcDbEntity
  8
0
  6
BYBLOCK
 62
0
100
AcDbTrace
 10
-1.0
 20
0.16439898372402537
 30
0.0
 11
0.0
 21
0.0
 31
0.0
 12
-1.0
 22
-0.16439898372402537
 32
0.0
 13
-1.0
 23
-0.16439898372402537
 33
0.0
  0
ENDBLK
  5
7A
330
78
100
AcDbEntity
  8
0
100
AcDbBlockEnd
  0
BLOCK
  5
85
330
84
100
AcDbEntity
  8
0
100
AcDbBlockBegin
  2
_CLOSEDBLANK
 70
0
 10
0.0
 20
0.0
 30
0.0
  3
_CLOSEDBLANK
  1

  0
LWPOLYLINE
  5
87
330
84
100
AcDbEntity
  8
0
  6
BYBLOCK
 62
0
100
AcDbPolyline
 90
3
 70
1
 10
-1.0
 20
0.16439898372402537
 10
0.0
 20
0.0
 10
-1.0
 20
-0.16439898372402537
  0
ENDBLK
  5
86
330
84
100
AcDbEntity
  8
0
100
AcDbBlockEnd
  0
ENDSEC
  0
SECTION
  2
ENTITIES
  0
LWPOLYLINE
  5
8C
330
17
100
AcDbEntity
  8
Layer
100
AcDbPolyline
 90
261
 70
1
 10
602.4015977506722
 20
156.8050330175497
 10
599.8647464807812
 20
157.4745013138877
 10
595.7298442198794
 20
158.57495959992087
 10
591.2533144084443
 20
159.78891468285624
 10
586.4996011020833
 20
161.08790974998197
 10
581.5141988260714
 20
162.4585619726476
 10
576.3478889067394
 20
163.89789322917642
 10
571.0417149458757
 20
165.40199995447225
 10
565.6287318596565
 20
166.95540257477523
 10
560.1413464488537
 20
168.5538170174795
 10
554.594371947147
 20
170.19321947494052
 10
549.000670099628
 20
171.86114343270958
 10
543.3812046404819
 20
173.55369996306317
 10
537.743360238663
 20
175.27426901843435
 10
532.0874312568872
 20
177.02076244368493
 10
526.4154819696
 20
178.78013345705918
 10
520.7314622931536
 20
180.542005873676
 10
515.0479691144865
 20
182.3157372515968
 10
509.36059788964104
 20
184.09708069933242
 10
503.67739810351105
 20
185.87665132208946
 10
498.00689426676666
 20
187.65232347874453
 10
492.3525062399847
 20
189.42481645593708
 10
486.71293926808755
 20
191.19122242759525
 10
481.0882620698187
 20
192.93834502911
 10
475.47411770305405
 20
194.67275471466348
 10
469.8715900572447
 20
196.39723706602544
 10
464.2822085026727
 20
198.09858009255888
 10
458.702243208901
 20
199.7769992993855
 10
455.9177457057531
 20
200.6055784508546
 10
455.63253648949285
 20
199.64711316564066
 10
452.85659679047296
 20
200.47316073487403
 10
447.3142476840369
 20
202.09607165474594
 10
441.7767382780959
 20
203.68733256995483
 10
436.2494255293892
 20
205.24896338745867
 10
430.72675034936435
 20
206.77667430956888
 10
425.205977049152
 20
208.27424307354278
 10
419.6924366926977
 20
209.7397378373622
 10
414.1839825900379
 20
211.16836469495797
 10
408.6725825022374
 20
212.5597584608828
 10
403.15542063698956
 20
213.91672131977265
 10
397.63139114820876
 20
215.24122309421628
 10
392.1058479254668
 20
216.53496082975903
 10
386.58108479349767
 20
217.793293812025
 10
381.052865609785
 20
219.0154152548651
 10
375.5209549294393
 20
220.20000612631085
 10
369.9764852805118
 20
221.34986666935197
 10
364.4340999621053
 20
222.46973888873092
 10
358.8921973796166
 20
223.54681716167357
 10
353.33497051954066
 20
224.58595552342163
 10
347.7691283475696
 20
225.59385386374075
 10
342.2031969685209
 20
226.5683488781649
 10
336.63498826889594
 20
227.50457236170092
 10
331.0600677801186
 20
228.40260360858275
 10
325.47636216996375
 20
229.26456065244162
 10
319.88556348567147
 20
230.09258622160542
 10
314.29106533104914
 20
230.88660840405737
 10
308.6926837236839
 20
231.6434720901956
 10
303.0825474226329
 20
232.36425147673208
 10
297.46809528397483
 20
233.0540679803292
 10
291.85340500933273
 20
233.7086580487274
 10
286.2357177240855
 20
234.32693368345477
 10
280.6163038140699
 20
234.90861851452672
 10
274.9927445107247
 20
235.45209528465614
 10
269.3609912062359
 20
235.96154919397912
 10
263.73622608671866
 20
236.43949743368154
 10
258.11299928650186
 20
236.87571466670013
 10
252.48643143611946
 20
237.27721394337573
 10
246.8687868575417
 20
237.64266291972137
 10
241.25457288049037
 20
237.9668755306333
 10
235.64056546425232
 20
238.25220587464753
 10
230.03248153902902
 20
238.50022125980146
 10
224.42967018998408
 20
238.7077668439928
 10
218.8307776899848
 20
238.87636711102277
 10
213.2414528667166
 20
239.00743565188932
 10
207.66647918170193
 20
239.0973988824456
 10
202.10211076089894
 20
239.14107046245758
 10
196.53977605737745
 20
239.14211167847444
 10
190.99703351158115
 20
239.1052589499351
 10
185.46542081409132
 20
239.01743063782934
 10
179.94191862590125
 20
238.89002313341027
 10
174.4411733125296
 20
238.71862709533255
 10
168.95653536330607
 20
238.50064798572913
 10
163.4970411751077
 20
238.23676814215082
 10
158.05691478257154
 20
237.92096088212827
 10
152.63690291126431
 20
237.55644169533153
 10
147.23823552461909
 20
237.14286190149528
 10
141.86828492346223
 20
236.683167119747
 10
136.53079108083324
 20
236.17114581131418
 10
131.22182577846152
 20
235.606885272255
 10
125.94730087236022
 20
234.99309340476617
 10
120.7128781456371
 20
234.33151336728636
 10
115.53282223498661
 20
233.62284655679304
 10
110.41060260114486
 20
232.85918418877606
 10
105.341140872719
 20
232.03936783707192
 10
100.33731905206648
 20
231.1718669303423
 10
95.40375810837085
 20
230.25032915612152
 10
90.54311910150457
 20
229.2775560372671
 10
85.7574940439047
 20
228.25577673427054
 10
81.05950740811983
 20
227.19557527195465
 10
76.46602303906019
 20
226.0950054172858
 10
71.97767763970802
 20
224.95072525470377
 10
67.59960084418034
 20
223.76315670080527
 10
63.32900184523237
 20
222.53094615061332
 10
59.17291929142647
 20
221.2561842971881
 10
55.12167632843395
 20
219.934894224955
 10
51.194814956785706
 20
218.58309462139212
 10
47.39357480088435
 20
217.18048542502567
 10
43.72029912327213
 20
215.7380050364524
 10
40.19419036197053
 20
214.25389934334703
 10
36.82204064346297
 20
212.72897636978965
 10
33.63288819525201
 20
211.17544840469645
 10
30.657006799641493
 20
209.60453998111757
 10
27.908871047904142
 20
208.01925105698655
 10
25.422862425704466
 20
206.46950344431738
 10
23.219260370207422
 20
204.96873917757537
 10
21.292385993710695
 20
203.53189075452678
 10
19.620624131410068
 20
202.16995905282292
 10
18.193586293727037
 20
200.91320886539992
 10
16.961252375372993
 20
199.7022659865343
 10
15.899383906770879
 20
198.58827287979187
 10
14.996954517300622
 20
197.5558674880157
 10
14.22474548012363
 20
196.57073592744007
 10
13.560097695493766
 20
195.63162351172306
 10
12.99411846445608
 20
194.75492110273674
 10
12.51180405821566
 20
193.91317449803145
 10
12.095257220594306
 20
193.0966695759287
 10
11.7400959631006
 20
192.33291164021185
 10
11.441056828840743
 20
191.60302214243976
 10
11.189091953304768
 20
190.89569815371374
 10
10.981476042760903
 20
190.2332144348635
 10
10.81305850675085
 20
189.58405302585004
 10
10.678071193089437
 20
188.96671850055372
 10
10.584734358872765
 20
188.48746244547766
 10
10.552345119062835
 20
187.87402298756075
 10
10.535393152211697
 20
187.26156625748848
 10
10.540126863336667
 20
186.672828957154
 10
10.582289134891255
 20
186.08643524323426
 10
10.677408287394002
 20
185.48388663705146
 10
10.837035974114798
 20
184.857077612278
 10
11.066898133148555
 20
184.20896739782808
 10
11.374974551412492
 20
183.54085381029395
 10
11.772322503414358
 20
182.85142037798013
 10
12.267800036933068
 20
182.1418301357553
 10
12.867360830638972
 20
181.4166477619417
 10
13.581538111330246
 20
180.68003533892485
 10
14.427663253584939
 20
179.93474401090333
 10
15.433779817466785
 20
179.17907085397363
 10
16.6291167491444
 20
178.4064400245723
 10
18.022255198490427
 20
177.61274581232212
 10
19.624110115015952
 20
176.80537620690137
 10
21.488065525921115
 20
175.99799564840487
 10
23.65991581889486
 20
175.18969239791707
 10
26.13721160024673
 20
174.37062186645593
 10
28.88065711468647
 20
173.55317268708677
 10
31.881026450043038
 20
172.77559144002782
 10
35.11464631290434
 20
172.03428121412838
 10
38.50518902293692
 20
171.33107696980304
 10
42.02611850361404
 20
170.6859738720776
 10
45.67763475131642
 20
170.09984208313733
 10
49.465024713756236
 20
169.5485421504724
 10
53.338472875791325
 20
169.0066258867499
 10
57.24415861564336
 20
168.4897111810914
 10
61.21964750880849
 20
168.0308527966612
 10
65.3186326781744
 20
167.60740737783004
 10
69.50945638321167
 20
167.18414496729577
 10
73.77427988164399
 20
166.76972782510032
 10
78.1180164085529
 20
166.3752413329628
 10
82.555812454001
 20
166.00871353966429
 10
87.11242851724123
 20
165.6683294354821
 10
91.7973946922084
 20
165.3442970109807
 10
96.61050573099953
 20
165.03255110290942
 10
101.5480617323534
 20
164.72984572860258
 10
106.59136184299717
 20
164.43879152883648
 10
111.74338767667611
 20
164.1701158829951
 10
116.99427154411713
 20
163.9129688376541
 10
122.35367388074191
 20
163.68735647553353
 10
126.76518048173713
 20
163.520271422152
 10
126.72733279166738
 20
162.52098790264597
 10
127.78372536832826
 20
162.48097570542623
 10
133.33977386655604
 20
162.28420708934897
 10
138.96933017109757
 20
162.10495799481686
 10
144.66016794283345
 20
161.94137405701034
 10
150.39944117107603
 20
161.79324487097344
 10
156.17998777996092
 20
161.66217012676302
 10
162.00109355372726
 20
161.5484729512522
 10
167.85967629772745
 20
161.448385600497
 10
173.74330825391644
 20
161.35767617956748
 10
179.63954280390686
 20
161.27586490596997
 10
185.5470849308153
 20
161.20481592937776
 10
191.47255078494055
 20
161.1434229564598
 10
197.4188866324435
 20
161.08822083887486
 10
203.38035143994188
 20
161.03777347935872
 10
209.3499290072084
 20
160.991888830042
 10
215.323273723679
 20
160.95012719260714
 10
221.29369725015445
 20
160.9126112402156
 10
227.26424916567922
 20
160.8831725070527
 10
233.24419011248378
 20
160.8622669018429
 10
239.23575980391144
 20
160.84674360642748
 10
245.23542559092044
 20
160.83595174184387
 10
251.2422818340714
 20
160.82929394411136
 10
257.252418261662
 20
160.82395270511657
 10
263.26008860500804
 20
160.81647742666308
 10
269.260253370826
 20
160.81018020411895
 10
275.25011341068824
 20
160.81097203247785
 10
281.235417924479
 20
160.82205074890052
 10
287.22307691164815
 20
160.84223024184033
 10
293.2140396081349
 20
160.86476452799633
 10
299.20679222752153
 20
160.88382504874977
 10
305.19925679850735
 20
160.8994584569549
 10
311.1884211796003
 20
160.9178434418991
 10
317.17457847931223
 20
160.94373984859521
 10
323.1596723090134
 20
160.9778371198861
 10
329.1420472858049
 20
161.01736665905946
 10
335.11717852800234
 20
161.05659517661763
 10
341.08842689520225
 20
161.09109529897847
 10
347.0610242441277
 20
161.12274613815327
 10
353.02655115433714
 20
161.1530109061108
 10
358.9885084203777
 20
161.18478105818744
 10
364.9537749597805
 20
161.221173879835
 10
370.91983336393804
 20
161.26046505669308
 10
376.87417615563487
 20
161.29465562947016
 10
382.8132985748754
 20
161.31820793430182
 10
388.7430460868353
 20
161.33805619539334
 10
394.6662737792203
 20
161.36552988423568
 10
400.58337703725323
 20
161.40712837652913
 10
406.5022883651316
 20
161.45777765234217
 10
412.42539260988787
 20
161.50537302156607
 10
418.35005644729426
 20
161.54052343253863
 10
424.2831719953855
 20
161.56342067749034
 10
430.2254499135988
 20
161.5803648576013
 10
436.1630779959857
 20
161.59623389498816
 10
442.0814719788283
 20
161.61331683517767
 10
447.9853448202404
 20
161.62282157895802
 10
453.8872517045436
 20
161.61113377620617
 10
459.8039919289601
 20
161.5821748682789
 10
465.73160608983767
 20
161.5490692139422
 10
471.6534337661156
 20
161.51607080761173
 10
477.55665042241617
 20
161.4755820471304
 10
483.4477510311978
 20
161.420296012665
 10
489.33946708044743
 20
161.34788834113334
 10
495.2366114413521
 20
161.26186826597197
 10
501.1277273513218
 20
161.16936855973034
 10
506.99284103463344
 20
161.06871240205177
 10
512.8286593341772
 20
160.94553555447655
 10
518.6578553679743
 20
160.7955870168017
 10
524.4943367970166
 20
160.63267916212007
 10
530.3316485222973
 20
160.4630119067987
 10
536.147481202071
 20
160.27828817330345
 10
541.9310063518292
 20
160.07636394495432
 10
547.6827185667626
 20
159.85282711505084
 10
553.3982801844563
 20
159.61450882906104
 10
559.063751342115
 20
159.35658514270543
 10
564.667593109265
 20
159.08093152397225
 10
570.1888776271253
 20
158.78910679076841
 10
575.6079339955627
 20
158.4768440488532
 10
580.9078732683477
 20
158.1437425822989
 10
586.0522802227138
 20
157.80473127443796
 10
590.9785837702012
 20
157.46886734731973
 10
595.6150714846847
 20
157.13687035292958
 10
599.8902438175382
 20
156.8108439071288
 10
602.5069476230658
 20
156.59985460321664
  0
LWPOLYLINE
  5
8D
330
17
100
AcDbEntity
  8
Layer
100
AcDbPolyline
 90
5
 70
0
 10
398.07364599723377
 20
211.02950343613833
 10
394.1789710634485
 20
211.9413735804818
 10
395.0908412077919
 20
215.83604851426702
 10
398.9855161415772
 20
214.92417836992354
 10
398.07364599723377
 20
211.02950343613833
  0
LWPOLYLINE
  5
8E
330
17
100
AcDbEntity
  8
Layer
100
AcDbPolyline
 90
5
 70
0
 10
174.6891741913349
 20
234.72532657413754
 10
170.69233115355624
 20
234.56643752051744
 10
170.53344209993614
 20
238.5632805582961
 10
174.5302851377148
 20
238.7221696119162
 10
174.6891741913349
 20
234.72532657413754
  0
LWPOLYLINE
  5
8F
330
17
100
AcDbEntity
  8
Layer
100
AcDbPolyline
 90
5
 70
0
 10
73.94066984663763
 20
221.33869024238402
 10
70.08021840045421
 20
220.2913533187246
 10
69.03288147679476
 20
224.15180476490798
 10
72.89333292297817
 20
225.1991416885674
 10
73.94066984663763
 20
221.33869024238402
  0
LWPOLYLINE
  5
90
330
17
100
AcDbEntity
  8
Layer
100
AcDbPolyline
 90
5
 70
0
 10
23.677770723171143
 20
199.02531118662085
 10
22.127859044425442
 20
197.76128041639106
 10
18.967782118850998
 20
201.63605961325533
 10
20.5176937975967
 20
202.90009038348512
 10
23.677770723171143
 20
199.02531118662085
  0
LWPOLYLINE
  5
91
330
17
100
AcDbEntity
  8
Layer
100
AcDbPolyline
 90
5
 70
0
 10
17.570665750693134
 20
183.8279882239371
 10
19.17325237486988
 20
182.63144482229643
 10
16.181893870768253
 20
178.62497826185455
 10
14.579307246591506
 20
179.82152166349522
 10
17.570665750693134
 20
183.8279882239371
  0
LWPOLYLINE
  5
92
330
17
100
AcDbEntity
  8
Layer
100
AcDbPolyline
 90
5
 70
0
 10
95.37230530471741
 20
169.11596819294317
 10
99.36480987649533
 20
168.8712086286103
 10
99.12005031216246
 20
164.87870405683236
 10
95.12754574038455
 20
165.12346362116523
 10
95.37230530471741
 20
169.11596819294317
  0
LINE
  5
93
330
17
100
AcDbEntity
  8
Layer
100
AcDbLine
 10
583.1300854248257
 20
162.01430122185224
 30
0.0
 11
582.8849708395298
 21
161.04480710630781
 31
0.0
  0
LINE
  5
94
330
17
100
AcDbEntity
  8
Layer
100
AcDbLine
 10
582.5875249753465
 20
159.03503202224272
 30
0.0
 11
582.5413211652865
 21
158.03609998855077
 31
0.0
  0
LINE
  5
95
330
17
100
AcDbEntity
  8
Layer
100
AcDbLine
 10
563.8826975533065
 20
167.46400298167077
 30
0.0
 11
563.6238978881768
 21
166.49807196274202
 31
0.0
  0
LINE
  5
96
330
17
100
AcDbEntity
  8
Layer
100
AcDbLine
 10
562.6253944452102
 20
160.182593043155
 30
0.0
 11
562.5735967244575
 21
159.18393544611547
 31
0.0
  0
LINE
  5
97
330
17
100
AcDbEntity
  8
Layer
100
AcDbLine
 10
487.39746610375477
 20
190.97681726203766
 30
0.0
 11
487.1152595037748
 21
190.01746360726392
 31
0.0
  0
LINE
  5
98
330
17
100
AcDbEntity
  8
Layer
100
AcDbLine
 10
482.63353103233374
 20
162.4276276688873
 30
0.0
 11
482.59756229447345
 21
161.42827475329804
 31
0.0
  0
LWPOLYLINE
  5
99
330
17
100
AcDbEntity
  8
Layer
100
AcDbPolyline
 90
300
 70
1
 10
267.32235091743115
 20
200.0
 10
267.31539588482934
 20
200.66809613674266
 10
267.2945338581705
 20
201.335897261039
 10
267.25977404953835
 20
202.00310849071192
 10
267.21113180788586
 20
202.66943520406514
 10
267.14862861225754
 20
203.3345831699799
 10
267.0722920623051
 20
203.99825867783917
 10
266.9821558661
 20
204.66016866722185
 10
266.8782598252491
 20
205.32002085731023
 10
266.7606498173192
 20
205.9775238759527
 10
266.629377775579
 20
206.6323873883257
 10
266.4845016660666
 20
207.28432222513737
 10
266.32608546199356
 20
207.93304051031643
 10
266.154199115496
 20
208.57825578813038
 10
265.96891852674577
 20
209.219683149676
 10
265.77032551043493
 20
209.85703935868742
 10
265.55850775964893
 20
210.49004297660503
 10
265.3335588071436
 20
211.11841448685092
 10
265.09557798404376
 20
211.74187641825557
 10
264.8446703759814
 20
212.36015346758126
 10
264.5809467766931
 20
212.97297262108816
 10
264.304523639096
 20
213.58006327508966
 10
264.0155230238661
 20
214.18115735544328
 10
263.7140725455393
 20
214.7759894359246
 10
263.4003053161608
 20
215.36429685543212
 10
263.0743598865061
 20
215.94581983397086
 10
262.73638018490124
 20
216.5203015873641
 10
262.3865154536678
 20
217.0874884406418
 10
262.0249201832222
 20
217.64712994005657
 10
261.65175404385644
 20
218.19897896367678
 10
261.2671818152326
 20
218.74279183050882
 10
260.8713733136207
 20
219.2783284080996
 10
260.4645033169126
 20
219.8053522185725
 10
260.04675148744496
 20
220.32363054304906
 10
259.61830229266553
 20
220.8329345244114
 10
259.1793449236774
 20
221.33303926835876
 10
258.7300732116974
 20
221.82372394271482
 10
258.27068554246625
 20
222.30477187494066
 10
257.80138476864624
 20
222.77597064781148
 10
257.3223781202478
 20
223.237112193214
 10
256.83387711312224
 20
223.68799288402337
 10
256.3360974555624
 20
224.1284136240194
 10
255.82925895305215
 20
224.5581799358016
 10
255.31358541120596
 20
224.97710204666515
 10
254.78930453694315
 20
225.384994972399
 10
254.2566478379387
 20
225.78167859896985
 10
253.71585052039597
 20
226.16697776205524
 10
253.16715138518634
 20
226.5407223243914
 10
252.6107927224014
 20
226.90274725090094
 10
252.04702020436451
 20
227.25289268156774
 10
251.47608277714878
 20
227.59100400202658
 10
250.89823255064954
 20
227.9169319118366
 10
250.31372468725962
 20
228.23053249040808
 10
249.72281728919697
 20
228.53166726055372
 10
249.1257712845338
 20
228.82020324963628
 10
248.52285031197835
 20
229.09601304828567
 10
247.91432060445905
 20
229.35897486665914
 10
247.300450871564
 20
229.60897258822035
 10
246.6815121808861
 20
229.84589582101322
 10
246.05777783832733
 20
230.06963994640776
 10
245.42952326741448
 20
230.2801061652969
 10
244.79702588768004
 20
230.47720154172322
 10
244.1605649921613
 20
230.66083904391698
 10
243.5204216240727
 20
230.83093758272676
 10
242.87687845270474
 20
230.98742204742635
 10
242.23021964860544
 20
231.13022333888134
 10
241.58073075809855
 20
231.25927840006142
 10
240.92869857719418
 20
231.37453024388464
 10
240.27441102494802
 20
231.4759279783812
 10
239.61815701632418
 20
231.5634268291661
 10
238.96022633461854
 20
231.63698815920995
 10
238.30090950349867
 20
231.69657948590026
 10
237.64049765871667
 20
231.74217449538475
 10
236.9792824195518
 20
231.77375305419073
 10
236.31755576003974
 20
231.79130121811565
 10
235.65560988004498
 20
231.7948112383843
 10
234.99373707623354
 20
231.78428156507056
 10
234.33222961300314
 20
231.75971684778173
 10
233.67137959342733
 20
231.72112793360543
 10
233.0114788302711
 20
231.66853186231987
 10
232.35281871713445
 20
231.60195185886946
 10
231.69569009978133
 20
231.52141732310943
 10
231.04038314771023
 20
231.42696381682362
 10
230.3871872260235
 20
231.31863304802144
 10
229.73639076765204
 20
231.19647285252077
 10
229.08828114599112
 20
231.06053717282498
 10
228.44314454800465
 20
230.91088603430347
 10
227.80126584785296
 20
230.7475855186862
 10
227.16292848110044
 20
230.5707077348837
 10
226.5284143195583
 20
230.38033078714605
 10
225.898003546818
 20
230.17653874057402
 10
225.27197453452993
 20
229.9594215839984
 10
224.65060371948252
 20
229.72907519024338
 10
224.0341654815354
 20
229.485601273792
 10
223.422932022461
 20
229.22910734587168
 10
222.81717324574794
 20
228.95970666698037
 10
222.21715663741918
 20
228.67751819687396
 10
221.6231471479178
 20
228.38266654203687
 10
221.03540707511232
 20
228.0752819006595
 10
220.45419594847334
 20
227.75550000514625
 10
219.8797704144726
 20
227.4234620621799
 10
219.31238412325524
 20
227.0793146903689
 10
218.75228761663482
 20
226.72320985550448
 10
218.19972821746134
 20
226.3553048034569
 10
217.65494992041025
 20
225.9757619907402
 10
217.11819328424144
 20
225.58474901277597
 10
216.5896953255751
 20
225.18243852988778
 10
216.06968941423196
 20
224.76900819105936
 10
215.5584051701837
 20
224.34464055548983
 10
215.05606836215927
 20
223.90952301198058
 10
214.56290080795173
 20
223.4638476961898
 10
214.07912027646975
 20
223.00781140579062
 10
213.6049403915771
 20
222.541615513571
 10
213.14057053776222
 20
222.06546587851295
 10
212.68621576768
 20
221.5795727548912
 10
212.24207671160633
 20
221.0841506994306
 10
211.8083494888453
 20
220.57941847656423
 10
211.38522562112863
 20
220.0655989618329
 10
210.9728919480448
 20
219.54291904346968
 10
210.57153054453624
 20
219.0116095222125
 10
210.18131864049994
 20
218.47190500938893
 10
209.80242854252776
 20
217.92404382331858
 10
209.43502755782086
 20
217.3682678840783
 10
209.07927792031126
 20
216.80482260667708
 10
208.73533671902416
 20
216.23395679268782
 10
208.40335582871168
 20
215.65592252038348
 10
208.08348184278935
 20
215.07097503342632
 10
207.77585600860453
 20
214.47937262815967
 10
207.4806141650656
 20
213.88137653955138
 10
207.19788668265923
 20
213.27725082583996
 10
206.92779840588258
 20
212.6672622519337
 10
206.67046859811535
 20
212.05168017161495
 10
206.42601088895654
 20
211.4307764086011
 10
206.19453322404877
 20
210.80482513651467
 10
205.97613781741245
 20
210.1741027578162
 10
205.77092110631108
 20
209.53888778175258
 10
205.57897370866723
 20
208.89946070137518
 10
205.40038038304814
 20
208.25610386968208
 10
205.2352199912388
 20
207.60910137493894
 10
205.08356546341878
 20
206.9587389152336
 10
204.9454837659583
 20
206.30530367231978
 10
204.8210358718478
 20
205.64908418480582
 10
204.710276733774
 20
204.99037022074404
 10
204.61325525985427
 20
204.32945264967742
 10
204.5300142920402
 20
203.6666233141998
 10
204.46059058719985
 20
203.00217490108628
 10
204.40501480088693
 20
202.3364008120511
 10
204.36331147380417
 20
201.6695950341897
 10
204.33549902096678
 20
201.00205201016223
 10
204.321589723571
 20
200.33406650817597
 10
204.321589723571
 20
199.66593349182403
 10
204.33549902096678
 20
198.9979479898378
 10
204.36331147380417
 20
198.33040496581032
 10
204.40501480088693
 20
197.6635991879489
 10
204.46059058719985
 20
196.99782509891372
 10
204.5300142920402
 20
196.3333766858002
 10
204.61325525985427
 20
195.67054735032258
 10
204.710276733774
 20
195.009629779256
 10
204.8210358718478
 20
194.35091581519418
 10
204.9454837659583
 20
193.69469632768022
 10
205.08356546341878
 20
193.0412610847664
 10
205.2352199912388
 20
192.39089862506103
 10
205.40038038304814
 20
191.74389613031792
 10
205.57897370866723
 20
191.10053929862482
 10
205.77092110631108
 20
190.46111221824742
 10
205.97613781741245
 20
189.8258972421838
 10
206.19453322404877
 20
189.19517486348533
 10
206.42601088895654
 20
188.56922359139892
 10
206.67046859811535
 20
187.94831982838505
 10
206.92779840588258
 20
187.3327377480663
 10
207.19788668265923
 20
186.72274917416004
 10
207.4806141650656
 20
186.11862346044862
 10
207.77585600860453
 20
185.52062737184033
 10
208.08348184278935
 20
184.92902496657368
 10
208.40335582871168
 20
184.34407747961652
 10
208.73533671902416
 20
183.76604320731215
 10
209.07927792031126
 20
183.19517739332292
 10
209.43502755782086
 20
182.63173211592172
 10
209.80242854252776
 20
182.07595617668142
 10
210.1813186404999
 20
181.52809499061107
 10
210.57153054453624
 20
180.9883904777875
 10
210.9728919480448
 20
180.45708095653032
 10
211.38522562112863
 20
179.9344010381671
 10
211.8083494888453
 20
179.42058152343577
 10
212.24207671160633
 20
178.9158493005694
 10
212.68621576767998
 20
178.42042724510884
 10
213.14057053776222
 20
177.93453412148705
 10
213.6049403915771
 20
177.458384486429
 10
214.07912027646975
 20
176.99218859420938
 10
214.5629008079517
 20
176.5361523038102
 10
215.05606836215927
 20
176.09047698801942
 10
215.5584051701837
 20
175.6553594445102
 10
216.06968941423196
 20
175.23099180894064
 10
216.5896953255751
 20
174.81756147011222
 10
217.11819328424144
 20
174.41525098722403
 10
217.65494992041025
 20
174.0242380092598
 10
218.1997282174613
 20
173.64469519654313
 10
218.75228761663482
 20
173.27679014449552
 10
219.31238412325524
 20
172.9206853096311
 10
219.87977041447263
 20
172.5765379378201
 10
220.45419594847334
 20
172.24449999485375
 10
221.03540707511232
 20
171.9247180993405
 10
221.6231471479178
 20
171.61733345796313
 10
222.21715663741918
 20
171.32248180312604
 10
222.8171732457479
 20
171.04029333301963
 10
223.422932022461
 20
170.77089265412832
 10
224.0341654815354
 20
170.514398726208
 10
224.65060371948252
 20
170.27092480975662
 10
225.2719745345299
 20
170.0405784160016
 10
225.89800354681796
 20
169.82346125942598
 10
226.5284143195583
 20
169.61966921285395
 10
227.16292848110044
 20
169.4292922651163
 10
227.80126584785296
 20
169.2524144813138
 10
228.44314454800465
 20
169.08911396569653
 10
229.08828114599112
 20
168.93946282717502
 10
229.73639076765204
 20
168.80352714747923
 10
230.38718722602354
 20
168.68136695197856
 10
231.04038314771023
 20
168.57303618317638
 10
231.69569009978133
 20
168.47858267689057
 10
232.35281871713443
 20
168.39804814113054
 10
233.01147883027107
 20
168.33146813768013
 10
233.67137959342733
 20
168.27887206639457
 10
234.33222961300314
 20
168.24028315221827
 10
234.99373707623354
 20
168.21571843492944
 10
235.65560988004498
 20
168.2051887616157
 10
236.31755576003974
 20
168.20869878188435
 10
236.9792824195518
 20
168.22624694580927
 10
237.64049765871667
 20
168.25782550461525
 10
238.30090950349867
 20
168.30342051409974
 10
238.96022633461854
 20
168.36301184079005
 10
239.61815701632418
 20
168.4365731708339
 10
240.27441102494802
 20
168.5240720216188
 10
240.92869857719418
 20
168.62546975611536
 10
241.58073075809855
 20
168.74072159993858
 10
242.23021964860544
 20
168.86977666111866
 10
242.87687845270472
 20
169.01257795257365
 10
243.52042162407267
 20
169.16906241727324
 10
244.1605649921613
 20
169.33916095608302
 10
244.79702588768004
 20
169.52279845827678
 10
245.42952326741448
 20
169.7198938347031
 10
246.05777783832733
 20
169.93036005359224
 10
246.6815121808861
 20
170.15410417898678
 10
247.300450871564
 20
170.39102741177965
 10
247.91432060445905
 20
170.64102513334086
 10
248.52285031197835
 20
170.90398695171433
 10
249.12577128453384
 20
171.17979675036372
 10
249.72281728919697
 20
171.46833273944628
 10
250.31372468725962
 20
171.76946750959192
 10
250.89823255064954
 20
172.0830680881634
 10
251.47608277714878
 20
172.4089959979734
 10
252.04702020436451
 20
172.74710731843226
 10
252.6107927224014
 20
173.09725274909906
 10
253.16715138518634
 20
173.4592776756086
 10
253.71585052039597
 20
173.83302223794476
 10
254.2566478379387
 20
174.21832140103015
 10
254.78930453694315
 20
174.61500502760097
 10
255.31358541120596
 20
175.02289795333485
 10
255.82925895305215
 20
175.4418200641984
 10
256.3360974555624
 20
175.8715863759806
 10
256.83387711312224
 20
176.31200711597663
 10
257.3223781202478
 20
176.762887806786
 10
257.80138476864624
 20
177.22402935218852
 10
258.27068554246625
 20
177.69522812505934
 10
258.7300732116974
 20
178.17627605728518
 10
259.1793449236773
 20
178.6669607316412
 10
259.61830229266553
 20
179.1670654755886
 10
260.04675148744496
 20
179.6763694569509
 10
260.4645033169126
 20
180.1946477814275
 10
260.87137331362067
 20
180.7216715919004
 10
261.26718181523256
 20
181.25720816949118
 10
261.65175404385644
 20
181.80102103632322
 10
262.0249201832222
 20
182.35287005994343
 10
262.3865154536678
 20
182.9125115593582
 10
262.73638018490124
 20
183.4796984126359
 10
263.0743598865061
 20
184.05418016602914
 10
263.4003053161608
 20
184.63570314456788
 10
263.7140725455393
 20
185.2240105640754
 10
264.0155230238661
 20
185.81884264455672
 10
264.304523639096
 20
186.41993672491034
 10
264.58094677669305
 20
187.02702737891184
 10
264.8446703759814
 20
187.63984653241874
 10
265.09557798404376
 20
188.2581235817444
 10
265.3335588071436
 20
188.88158551314905
 10
265.55850775964893
 20
189.50995702339495
 10
265.77032551043493
 20
190.14296064131256
 10
265.96891852674577
 20
190.780316850324
 10
266.154199115496
 20
191.42174421186962
 10
266.32608546199356
 20
192.06695948968357
 10
266.4845016660666
 20
192.71567777486263
 10
266.629377775579
 20
193.3676126116743
 10
266.7606498173192
 20
194.0224761240473
 10
266.8782598252491
 20
194.67997914268977
 10
266.9821558661
 20
195.33983133277815
 10
267.0722920623051
 20
196.00174132216085
 10
267.14862861225754
 20
196.66541683002006
 10
267.2111318078858
 20
197.33056479593486
 10
267.25977404953835
 20
197.99689150928808
 10
267.2945338581705
 20
198.664102738961
 10
267.31539588482934
 20
199.33190386325734
 10
267.32235091743115
 20
200.0
  0
LINE
  5
9A
330
17
100
AcDbEntity
  8
Layer
 62
7
100
AcDbLine
 10
17.264245794670614
 20
200.00000000000003
 30
0.0
 11
457.9528339424956
 21
199.99999999999997
 31
0.0
  0
LINE
  5
9B
330
17
100
AcDbEntity
  8
Layer
 62
7
100
AcDbLine
 10
103.30196342423562
 20
200.00000000000003
 30
0.0
 11
115.30196342423562
 21
200.00000000000003
 31
0.0
  0
LWPOLYLINE
  5
9C
330
17
100
AcDbEntity
  8
Layer
100
AcDbPolyline
 90
5
 70
0
 10
109.30196342423562
 20
205.00000000000003
 10
114.30196342423562
 20
200.00000000000003
 10
109.30196342423562
 20
195.00000000000003
 10
104.30196342423562
 20
200.00000000000003
 10
109.30196342423562
 20
205.00000000000003
  0
LINE
  5
9D
330
17
100
AcDbEntity
  8
Layer
 62
7
100
AcDbLine
 10
231.6085398685831
 20
200.0
 30
0.0
 11
243.6085398685831
 21
200.0
 31
0.0
  0
LWPOLYLINE
  5
9E
330
17
100
AcDbEntity
  8
Layer
100
AcDbPolyline
 90
5
 70
0
 10
237.6085398685831
 20
205.0
 10
242.6085398685831
 20
200.0
 10
237.6085398685831
 20
195.0
 10
232.6085398685831
 20
200.0
 10
237.6085398685831
 20
205.0
  0
LINE
  5
9F
330
17
100
AcDbEntity
  8
Layer
 62
7
100
AcDbLine
 10
359.91511631293065
 20
199.99999999999997
 30
0.0
 11
371.91511631293065
 21
199.99999999999997
 31
0.0
  0
LWPOLYLINE
  5
A0
330
17
100
AcDbEntity
  8
Layer
100
AcDbPolyline
 90
5
 70
0
 10
365.91511631293065
 20
204.99999999999997
 10
370.91511631293065
 20
199.99999999999997
 10
365.91511631293065
 20
194.99999999999997
 10
360.91511631293065
 20
199.99999999999997
 10
365.91511631293065
 20
204.99999999999997
  0
LINE
  5
A1
330
17
100
AcDbEntity
  8
Layer
 62
7
100
AcDbLine
 10
10.571579929771758
 20
188.2383227341345
 30
0.0
 11
600.9193794147634
 21
157.19618649032878
 31
0.0
  0
LINE
  5
A2
330
17
100
AcDbEntity
  8
Layer
 62
7
100
AcDbLine
 10
126.54403701785624
 20
182.1401670086489
 30
0.0
 11
138.52748164022125
 21
181.51004401850295
 31
0.0
  0
LWPOLYLINE
  5
A3
330
17
100
AcDbEntity
  8
Layer
100
AcDbPolyline
 90
5
 70
0
 10
132.79831057493288
 20
186.81820743956135
 10
137.52886125502417
 20
181.56255426768178
 10
132.2732080831446
 20
176.8320035875905
 10
127.54265740305331
 20
182.08765675947006
 10
132.79831057493288
 20
186.81820743956135
  0
LINE
  5
A4
330
17
100
AcDbEntity
  8
Layer
 62
7
100
AcDbLine
 10
270.8854706372136
 20
174.55029125752864
 30
0.0
 11
282.8689152595786
 21
173.9201682673827
 31
0.0
  0
LWPOLYLINE
  5
A5
330
17
100
AcDbEntity
  8
Layer
100
AcDbPolyline
 90
5
 70
0
 10
277.13974419429024
 20
179.2283316884411
 10
281.87029487438156
 20
173.97267851656153
 10
276.61464170250196
 20
169.24212783647025
 10
271.88409102241064
 20
174.49778100834982
 10
277.13974419429024
 20
179.2283316884411
  0
LINE
  5
A6
330
17
100
AcDbEntity
  8
Layer
100
AcDbLine
 10
235.82110091743118
 20
231.79524999999995
 30
0.0
 11
235.82110091743118
 21
232.79524999999995
 31
0.0
  0
LINE
  5
A7
330
17
100
AcDbEntity
  8
Layer
100
AcDbLine
 10
235.82110091743118
 20
168.20475000000005
 30
0.0
 11
235.82110091743118
 21
167.20475000000005
 31
0.0
  0
LINE
  5
A8
330
17
100
AcDbEntity
  8
Layer
100
AcDbLine
 10
267.32235091743115
 20
200.0
 30
0.0
 11
268.32235091743115
 21
200.0
 31
0.0
  0
LINE
  5
A9
330
17
100
AcDbEntity
  8
Layer
100
AcDbLine
 10
204.31985091743124
 20
200.0
 30
0.0
 11
203.31985091743124
 21
200.0
 31
0.0
  0
LINE
  5
AA
330
17
100
AcDbEntity
  8
Layer
 62
7
100
AcDbLine
 10
155.82110091743118
 20
161.67030793913432
 30
0.0
 11
155.82110091743118
 21
237.77059275170694
 31
0.0
  0
LINE
  5
AB
330
17
100
AcDbEntity
  8
Layer
 62
7
100
AcDbLine
 10
155.82110091743118
 20
184.25540762353472
 30
0.0
 11
155.82110091743118
 21
196.25540762353472
 31
0.0
  0
LWPOLYLINE
  5
AC
330
17
100
AcDbEntity
  8
Layer
100
AcDbPolyline
 90
5
 70
0
 10
150.82110091743118
 20
190.25540762353472
 10
155.82110091743118
 20
195.25540762353472
 10
160.82110091743118
 20
190.25540762353472
 10
155.82110091743118
 20
185.25540762353472
 10
150.82110091743118
 20
190.25540762353472
  0
LINE
  5
AD
330
17
100
AcDbEntity
  8
Layer
 62
7
100
AcDbLine
 10
155.82110091743118
 20
203.18549306730654
 30
0.0
 11
155.82110091743118
 21
215.18549306730654
 31
0.0
  0
LWPOLYLINE
  5
AE
330
17
100
AcDbEntity
  8
Layer
100
AcDbPolyline
 90
5
 70
0
 10
150.82110091743118
 20
209.18549306730654
 10
155.82110091743118
 20
214.18549306730654
 10
160.82110091743118
 20
209.18549306730654
 10
155.82110091743118
 20
204.18549306730654
 10
150.82110091743118
 20
209.18549306730654
  0
LINE
  5
AF
330
17
100
AcDbEntity
  8
Layer
 62
7
100
AcDbLine
 10
365.8211009174312
 20
161.22688590195867
 30
0.0
 11
365.8211009174312
 21
222.18948702082793
 31
0.0
  0
LINE
  5
B0
330
17
100
AcDbEntity
  8
Layer
 62
7
100
AcDbLine
 10
365.8211009174312
 20
178.5137962935629
 30
0.0
 11
365.8211009174312
 21
190.5137962935629
 31
0.0
  0
LWPOLYLINE
  5
B1
330
17
100
AcDbEntity
  8
Layer
100
AcDbPolyline
 90
5
 70
0
 10
360.8211009174312
 20
184.5137962935629
 10
365.8211009174312
 20
189.5137962935629
 10
370.8211009174312
 20
184.5137962935629
 10
365.8211009174312
 20
179.5137962935629
 10
360.8211009174312
 20
184.5137962935629
  0
LINE
  5
B2
330
17
100
AcDbEntity
  8
Layer
 62
7
100
AcDbLine
 10
365.8211009174312
 20
192.9025766292237
 30
0.0
 11
365.8211009174312
 21
204.9025766292237
 31
0.0
  0
LWPOLYLINE
  5
B3
330
17
100
AcDbEntity
  8
Layer
100
AcDbPolyline
 90
5
 70
0
 10
360.8211009174312
 20
198.9025766292237
 10
365.8211009174312
 20
203.9025766292237
 10
370.8211009174312
 20
198.9025766292237
 10
365.8211009174312
 20
193.9025766292237
 10
360.8211009174312
 20
198.9025766292237
  0
LWPOLYLINE
  5
B4
330
17
100
AcDbEntity
  8
NumLabel
 62
1
100
AcDbPolyline
 90
2
 70
0
 10
181.39449541284404
 20
180.28669724770643
 10
179.39449541284404
 20
180.28669724770643
  0
LWPOLYLINE
  5
B5
330
17
100
AcDbEntity
  8
NumLabel
 62
1
100
AcDbPolyline
 90
4
 70
0
 10
178.39449541284404
 20
180.28669724770643
 10
176.39449541284404
 20
180.28669724770643
 10
176.39449541284404
 20
170.28669724770643
 10
178.39449541284404
 20
170.28669724770643
  0
LWPOLYLINE
  5
B6
330
17
100
AcDbEntity
  8
NumLabel
 62
1
100
AcDbPolyline
 90
4
 70
0
 10
179.39449541284404
 20
170.28669724770643
 10
181.39449541284404
 20
170.28669724770643
 10
181.39449541284404
 20
175.28669724770643
 10
179.39449541284404
 20
175.28669724770643
  0
LWPOLYLINE
  5
B7
330
17
100
AcDbEntity
  8
NumLabel
 62
1
100
AcDbPolyline
 90
2
 70
0
 10
178.39449541284404
 20
175.28669724770643
 10
176.39449541284404
 20
175.28669724770643
  0
LWPOLYLINE
  5
B8
330
17
100
AcDbEntity
  8
NumLabel
 62
1
100
AcDbPolyline
 90
4
 70
0
 10
183.89449541284404
 20
175.28669724770643
 10
183.89449541284404
 20
180.28669724770643
 10
188.89449541284404
 20
180.28669724770643
 10
188.89449541284404
 20
170.28669724770643
  0
ENDSEC
  0
SECTION
  2
OBJECTS
  0
DICTIONARY
  5
A
330
0
100
AcDbDictionary
280
0
281
1
  3
ACAD_COLOR
350
B
  3
ACAD_GROUP
350
C
  3
ACAD_LAYOUT
350
D
  3
ACAD_MATERIAL
350
E
  3
ACAD_MLEADERSTYLE
350
F
  3
ACAD_MLINESTYLE
350
10
  3
ACAD_PLOTSETTINGS
350
11
  3
ACAD_PLOTSTYLENAME
350
12
  3
ACAD_SCALELIST
350
14
  3
ACAD_TABLESTYLE
350
15
  3
ACAD_VISUALSTYLE
350
16
  3
EZDXF_META
350
2D
  0
DICTIONARY
  5
B
330
A
100
AcDbDictionary
280
0
281
1
  0
DICTIONARY
  5
C
330
A
100
AcDbDictionary
280
0
281
1
  0
DICTIONARY
  5
D
330
A
100
AcDbDictionary
280
0
281
1
  3
Model
350
1A
  3
Layout1
350
1E
  0
DICTIONARY
  5
E
330
A
100
AcDbDictionary
280
0
281
1
  3
ByBlock
350
1F
  3
ByLayer
350
20
  3
Global
350
21
  0
DICTIONARY
  5
F
330
A
100
AcDbDictionary
280
0
281
1
  3
Standard
350
2C
  0
DICTIONARY
  5
10
330
A
100
AcDbDictionary
280
0
281
1
  3
Standard
350
22
  0
DICTIONARY
  5
11
330
A
100
AcDbDictionary
280
0
281
1
  0
ACDBDICTIONARYWDFLT
  5
12
330
A
100
AcDbDictionary
280
0
281
1
  3
Normal
350
13
100
AcDbDictionaryWithDefault
340
13
  0
ACDBPLACEHOLDER
  5
13
330
12
  0
DICTIONARY
  5
14
330
A
100
AcDbDictionary
280
0
281
1
  0
DICTIONARY
  5
15
330
A
100
AcDbDictionary
280
0
281
1
  0
DICTIONARY
  5
16
330
A
100
AcDbDictionary
280
0
281
1
  3
2dWireframe
350
5A
  3
Basic
350
5B
  3
Brighten
350
5C
  3
ColorChange
350
5D
  3
Conceptual
350
5E
  3
Dim
350
5F
  3
EdgeColorOff
350
60
  3
Facepattern
350
61
  3
Flat
350
62
  3
FlatWithEdges
350
63
  3
Gouraud
350
64
  3
GouraudWithEdges
350
65
  3
Hidden
350
66
  3
JitterOff
350
67
  3
Linepattern
350
68
  3
Modeling
350
69
  3
OverhangOff
350
6A
  3
Realistic
350
6B
  3
Shaded
350
6C
  3
Shaded with edges
350
6D
  3
Shades of Gray
350
6E
  3
Sketchy
350
6F
  3
Thicken
350
70
  3
Wireframe
350
71
  3
X-Ray
350
72
  0
LAYOUT
  5
1A
330
D
100
AcDbPlotSettings
  1

  2
Adobe PDF
  4
A3
  6

 40
7.5
 41
20.0
 42
7.5
 43
20.0
 44
420.0
 45
297.0
 46
0.0
 47
0.0
 48
0.0
 49
0.0
140
0.0
141
0.0
142
1.0
143
1.0
 70
1024
 72
1
 73
0
 74
5
  7

 75
16
 76
0
 77
2
 78
300
147
1.0
148
0.0
149
0.0
100
AcDbLayout
  1
Model
 70
1
 71
0
 10
0.0
 20
0.0
 11
420.0
 21
297.0
 12
0.0
 22
0.0
 32
0.0
 14
1e+20
 24
1e+20
 34
1e+20
 15
-1e+20
 25
-1e+20
 35
-1e+20
146
0.0
 13
0.0
 23
0.0
 33
0.0
 16
1.0
 26
0.0
 36
0.0
 17
0.0
 27
1.0
 37
0.0
 76
1
330
17
  0
LAYOUT
  5
1E
330
D
100
AcDbPlotSettings
  1

  2
Adobe PDF
  4
A3
  6

 40
7.5
 41
20.0
 42
7.5
 43
20.0
 44
420.0
 45
297.0
 46
0.0
 47
0.0
 48
0.0
 49
0.0
140
0.0
141
0.0
142
1.0
143
1.0
 70
0
 72
1
 73
0
 74
5
  7

 75
16
 76
0
 77
2
 78
300
147
1.0
148
0.0
149
0.0
100
AcDbLayout
  1
Layout1
 70
1
 71
1
 10
0.0
 20
0.0
 11
420.0
 21
297.0
 12
0.0
 22
0.0
 32
0.0
 14
1e+20
 24
1e+20
 34
1e+20
 15
-1e+20
 25
-1e+20
 35
-1e+20
146
0.0
 13
0.0
 23
0.0
 33
0.0
 16
1.0
 26
0.0
 36
0.0
 17
0.0
 27
1.0
 37
0.0
 76
1
330
1B
  0
MATERIAL
  5
1F
102
{ACAD_REACTORS
330
E
102
}
330
E
100
AcDbMaterial
  1
ByBlock
  2

 70
0
 40
1.0
 71
1
 41
1.0
 91
-1023410177
 42
1.0
 72
1
  3

 73
1
 74
1
 75
1
 44
0.5
 73
0
 45
1.0
 46
1.0
 77
1
  4

 78
1
 79
1
170
1
 48
1.0
171
1
  6

172
1
173
1
174
1
140
1.0
141
1.0
175
1
  7

176
1
177
1
178
1
143
1.0
179
1
  8

270
1
271
1
272
1
145
1.0
146
1.0
273
1
  9

274
1
275
1
276
1
 42
1.0
 72
1
  3

 73
1
 74
1
 75
1
 94
63
  0
MATERIAL
  5
20
102
{ACAD_REACTORS
330
E
102
}
330
E
100
AcDbMaterial
  1
ByLayer
  2

 70
0
 40
1.0
 71
1
 41
1.0
 91
-1023410177
 42
1.0
 72
1
  3

 73
1
 74
1
 75
1
 44
0.5
 73
0
 45
1.0
 46
1.0
 77
1
  4

 78
1
 79
1
170
1
 48
1.0
171
1
  6

172
1
173
1
174
1
140
1.0
141
1.0
175
1
  7

176
1
177
1
178
1
143
1.0
179
1
  8

270
1
271
1
272
1
145
1.0
146
1.0
273
1
  9

274
1
275
1
276
1
 42
1.0
 72
1
  3

 73
1
 74
1
 75
1
 94
63
  0
MATERIAL
  5
21
102
{ACAD_REACTORS
330
E
102
}
330
E
100
AcDbMaterial
  1
Global
  2

 70
0
 40
1.0
 71
1
 41
1.0
 91
-1023410177
 42
1.0
 72
1
  3

 73
1
 74
1
 75
1
 44
0.5
 73
0
 45
1.0
 46
1.0
 77
1
  4

 78
1
 79
1
170
1
 48
1.0
171
1
  6

172
1
173
1
174
1
140
1.0
141
1.0
175
1
  7

176
1
177
1
178
1
143
1.0
179
1
  8

270
1
271
1
272
1
145
1.0
146
1.0
273
1
  9

274
1
275
1
276
1
 42
1.0
 72
1
  3

 73
1
 74
1
 75
1
 94
63
  0
MLINESTYLE
  5
22
102
{ACAD_REACTORS
330
10
102
}
330
10
100
AcDbMlineStyle
  2
Standard
 70
0
  3

 62
256
 51
90.0
 52
90.0
 71
2
 49
0.5
 62
256
  6
BYLAYER
 49
-0.5
 62
256
  6
BYLAYER
  0
MLEADERSTYLE
  5
2C
102
{ACAD_REACTORS
330
F
102
}
330
F
100
AcDbMLeaderStyle
179
2
170
2
171
1
172
0
 90
2
 40
0.0
 41
0.0
173
1
 91
-1056964608
 92
-2
290
1
 42
2.0
291
1
 43
8.0
  3
Standard
 44
4.0
300

342
29
174
1
175
1
176
0
178
1
 93
-1056964608
 45
4.0
292
0
297
0
 46
4.0
 94
-1056964608
 47
1.0
 49
1.0
140
1.0
294
1
141
0.0
177
0
142
1.0
295
0
296
0
143
3.75
271
0
272
9
273
9
  0
DICTIONARY
  5
2D
330
A
100
AcDbDictionary
281
1
  3
CREATED_BY_EZDXF
350
2E
  3
WRITTEN_BY_EZDXF
350
BB
  0
DICTIONARYVAR
  5
2E
330
2D
100
DictionaryVariables
280
0
  1
1.3.0 @ 2026-01-06T17:07:23.860312+00:00
  0
VISUALSTYLE
  5
5A
102
{ACAD_REACTORS
330
16
102
}
330
16
100
AcDbVisualStyle
  2
2dWireframe
 70
4
 90
0
 40
0.6
 62
7
290
0
291
0
  0
VISUALSTYLE
  5
5B
102
{ACAD_REACTORS
330
16
102
}
330
16
100
AcDbVisualStyle
  2
Basic
 70
7
 90
1
 40
0.6
 62
7
290
0
291
1
  0
VISUALSTYLE
  5
5C
102
{ACAD_REACTORS
330
16
102
}
330
16
100
AcDbVisualStyle
  2
Brighten
 70
12
 90
2
 40
0.6
 62
7
290
0
291
1
  0
VISUALSTYLE
  5
5D
102
{ACAD_REACTORS
330
16
102
}
330
16
100
AcDbVisualStyle
  2
ColorChange
 70
16
 90
2
 40
0.6
 62
8
290
0
291
1
  0
VISUALSTYLE
  5
5E
102
{ACAD_REACTORS
330
16
102
}
330
16
100
AcDbVisualStyle
  2
Conceptual
 70
9
 90
3
 40
0.6
 62
7
290
0
291
0
  0
VISUALSTYLE
  5
5F
102
{ACAD_REACTORS
330
16
102
}
330
16
100
AcDbVisualStyle
  2
Dim
 70
11
 90
2
 40
0.6
 62
7
290
0
291
1
  0
VISUALSTYLE
  5
60
102
{ACAD_REACTORS
330
16
102
}
330
16
100
AcDbVisualStyle
  2
EdgeColorOff
 70
22
 90
2
 40
0.6
 62
7
290
0
291
1
  0
VISUALSTYLE
  5
61
102
{ACAD_REACTORS
330
16
102
}
330
16
100
AcDbVisualStyle
  2
Facepattern
 70
15
 90
2
 40
0.6
 62
7
290
0
291
1
  0
VISUALSTYLE
  5
62
102
{ACAD_REACTORS
330
16
102
}
330
16
100
AcDbVisualStyle
  2
Flat
 70
0
 90
2
 40
0.6
 62
7
290
0
291
1
  0
VISUALSTYLE
  5
63
102
{ACAD_REACTORS
330
16
102
}
330
16
100
AcDbVisualStyle
  2
FlatWithEdges
 70
1
 90
2
 40
0.6
 62
7
290
0
291
1
  0
VISUALSTYLE
  5
64
102
{ACAD_REACTORS
330
16
102
}
330
16
100
AcDbVisualStyle
  2
Gouraud
 70
2
 90
2
 40
0.6
 62
7
290
0
291
1
  0
VISUALSTYLE
  5
65
102
{ACAD_REACTORS
330
16
102
}
330
16
100
AcDbVisualStyle
  2
GouraudWithEdges
 70
3
 90
2
 40
0.6
 62
7
290
0
291
1
  0
VISUALSTYLE
  5
66
102
{ACAD_REACTORS
330
16
102
}
330
16
100
AcDbVisualStyle
  2
Hidden
 70
6
 90
1
 40
0.6
 62
7
290
0
291
0
  0
VISUALSTYLE
  5
67
102
{ACAD_REACTORS
330
16
102
}
330
16
100
AcDbVisualStyle
  2
JitterOff
 70
20
 90
2
 40
0.6
 62
7
290
0
291
1
  0
VISUALSTYLE
  5
68
102
{ACAD_REACTORS
330
16
102
}
330
16
100
AcDbVisualStyle
  2
Linepattern
 70
14
 90
2
 40
0.6
 62
7
290
0
291
1
  0
VISUALSTYLE
  5
69
102
{ACAD_REACTORS
330
16
102
}
330
16
100
AcDbVisualStyle
  2
Modeling
 70
10
 90
2
 40
0.6
 62
7
290
0
291
0
  0
VISUALSTYLE
  5
6A
102
{ACAD_REACTORS
330
16
102
}
330
16
100
AcDbVisualStyle
  2
OverhangOff
 70
21
 90
2
 40
0.6
 62
7
290
0
291
1
  0
VISUALSTYLE
  5
6B
102
{ACAD_REACTORS
330
16
102
}
330
16
100
AcDbVisualStyle
  2
Realistic
 70
8
 90
2
 40
0.6
 62
7
290
0
291
0
  0
VISUALSTYLE
  5
6C
102
{ACAD_REACTORS
330
16
102
}
330
16
100
AcDbVisualStyle
  2
Shaded
 70
27
 90
2
 40
0.6
 62
7
290
0
291
0
  0
VISUALSTYLE
  5
6D
102
{ACAD_REACTORS
330
16
102
}
330
16
100
AcDbVisualStyle
  2
Shaded with edges
 70
26
 90
2
 40
0.6
 62
7
290
0
291
0
  0
VISUALSTYLE
  5
6E
102
{ACAD_REACTORS
330
16
102
}
330
16
100
AcDbVisualStyle
  2
Shades of Gray
 70
23
 90
2
 40
0.6
 62
7
290
0
291
0
  0
VISUALSTYLE
  5
6F
102
{ACAD_REACTORS
330
16
102
}
330
16
100
AcDbVisualStyle
  2
Sketchy
 70
24
 90
1
 40
0.6
 62
7
290
0
291
0
  0
VISUALSTYLE
  5
70
102
{ACAD_REACTORS
330
16
102
}
330
16
100
AcDbVisualStyle
  2
Thicken
 70
13
 90
2
 40
0.6
 62
7
290
0
291
1
  0
VISUALSTYLE
  5
71
102
{ACAD_REACTORS
330
16
102
}
330
16
100
AcDbVisualStyle
  2
Wireframe
 70
5
 90
0
 40
0.6
 62
7
290
0
291
0
  0
VISUALSTYLE
  5
72
102
{ACAD_REACTORS
330
16
102
}
330
16
100
AcDbVisualStyle
  2
X-Ray
 70
25
 90
2
 40
0.5
 62
7
290
0
291
0
  0
DICTIONARYVAR
  5
BB
330
2D
100
DictionaryVariables
280
0
  1
1.3.0 @ 2026-01-06T17:07:23.924654+00:00
  0
ENDSEC
  0
EOF
