<?xml version="1.0" encoding="utf-8" standalone="no"?>
<!DOCTYPE svg PUBLIC "-//W3C//DTD SVG 1.1//EN"
  "http://www.w3.org/Graphics/SVG/1.1/DTD/svg11.dtd">
<svg xmlns:xlink="http://www.w3.org/1999/xlink" width="1152pt" height="320.470172pt" viewBox="0 0 1152 320.470172" xmlns="http://www.w3.org/2000/svg" version="1.1">
 <metadata>
  <rdf:RDF xmlns:dc="http://purl.org/dc/elements/1.1/" xmlns:cc="http://creativecommons.org/ns#" xmlns:rdf="http://www.w3.org/1999/02/22-rdf-syntax-ns#">
   <cc:Work>
    <dc:type rdf:resource="http://purl.org/dc/dcmitype/StillImage"/>
    <dc:date>2026-01-07T02:07:19.963720</dc:date>
    <dc:format>image/svg+xml</dc:format>
    <dc:creator>
     <cc:Agent>
      <dc:title>Matplotlib v3.10.1, https://matplotlib.org/</dc:title>
     </cc:Agent>
    </dc:creator>
   </cc:Work>
  </rdf:RDF>
 </metadata>
 <defs>
  <style type="text/css">*{stroke-linejoin: round; stroke-linecap: butt}</style>
 </defs>
 <g id="figure_1">
  <g id="patch_1">
   <path d="M 0 320.470172 
L 1152 320.470172 
L 1152 0 
L 0 0 
z
" style="fill: #ffffff"/>
  </g>
  <g id="axes_1">
   <g id="patch_2">
    <path d="M 0 320.470172 
L 1152 320.470172 
L 1152 0 
L 0 0 
z
" style="fill: #212830"/>
   </g>
   <g id="patch_3">
    <path d="M 1099.636364 40.94287 
L 1080.324528 38.262329 
L 1059.373313 35.531128 
L 1038.384508 32.968533 
L 1017.36239 30.569857 
L 996.316606 28.335745 
L 975.249524 26.269049 
L 954.158292 24.369359 
L 933.048606 22.632459 
L 911.935408 21.058478 
L 890.828027 19.651984 
L 869.72633 18.415695 
L 848.634235 17.346927 
L 827.565627 16.446126 
L 806.531183 15.717513 
L 785.530439 15.165919 
L 764.564762 14.789745 
L 743.647127 14.588494 
L 722.788722 14.566826 
L 701.991185 14.729941 
L 681.255054 15.077669 
L 660.593596 15.609056 
L 640.020567 16.328472 
L 619.53796 17.242241 
L 599.149056 18.350364 
L 578.868621 19.651686 
L 558.712954 21.151147 
L 538.685174 22.855446 
L 518.792122 24.763254 
L 499.054219 26.873656 
L 479.487024 29.193132 
L 460.096128 31.72626 
L 440.8963 34.469685 
L 421.912105 37.423867 
L 403.158973 40.593715 
L 384.650255 43.975735 
L 366.424959 47.555946 
L 348.529367 51.332165 
L 330.990964 55.306818 
L 313.840926 59.465574 
L 297.135753 63.787906 
L 280.925137 68.266764 
L 265.243329 72.88848 
L 250.13854 77.619457 
L 235.669789 82.429838 
L 221.876051 87.301455 
L 208.783166 92.202192 
L 196.421944 97.090966 
L 184.812706 101.94122 
L 173.951164 106.734308 
L 163.822218 111.442924 
L 154.409471 116.042304 
L 145.6868 120.523785 
L 137.614463 124.887408 
L 130.146829 129.12891 
L 123.242573 133.240817 
L 116.863899 137.223975 
L 110.971199 141.087418 
L 105.524698 144.840401 
L 100.48649 148.488822 
L 95.826162 152.034357 
L 91.518817 155.483455 
L 87.540858 158.848537 
L 83.862451 162.147319 
L 80.451246 165.386346 
L 74.313364 171.66651 
L 68.998247 177.600116 
L 66.654275 180.431324 
L 64.525869 183.192008 
L 62.609655 185.906457 
L 60.89161 188.599398 
L 59.353994 191.278224 
L 57.978407 193.939663 
L 55.674213 199.140686 
L 54.743304 201.652559 
L 53.965607 204.099407 
L 53.344513 206.489865 
L 52.879635 208.83357 
L 52.566458 211.138714 
L 52.387328 213.648346 
L 52.363636 215.672725 
L 52.474081 217.947501 
L 52.741384 220.206646 
L 53.184425 222.440602 
L 53.828531 224.6552 
L 54.697305 226.860772 
L 55.801685 229.060087 
L 57.136373 231.245759 
L 58.685855 233.402612 
L 60.439081 235.516396 
L 62.394868 237.576517 
L 64.563947 239.579311 
L 66.957567 241.52547 
L 69.583184 243.419769 
L 72.438034 245.26749 
L 75.519207 247.074304 
L 78.823282 248.842554 
L 82.359879 250.573222 
L 86.143485 252.266622 
L 90.198585 253.925014 
L 94.549168 255.554924 
L 99.218798 257.166181 
L 104.233064 258.769576 
L 115.410878 261.985952 
L 121.655141 263.60641 
L 128.405808 265.238437 
L 135.721298 266.886983 
L 143.665554 268.556809 
L 152.30629 270.249743 
L 161.72008 271.962678 
L 171.989669 273.690429 
L 183.19433 275.430666 
L 195.400082 277.179368 
L 208.657028 278.923305 
L 222.99857 280.643528 
L 238.431582 282.325543 
L 254.919634 283.95717 
L 272.394546 285.517203 
L 290.778238 286.987795 
L 309.972772 288.363796 
L 329.864111 289.637815 
L 350.360114 290.801134 
L 371.38202 291.858064 
L 392.849516 292.813515 
L 436.977113 294.428971 
L 461.949055 295.22144 
L 461.856119 298.269059 
L 505.0596 299.526584 
L 551.030168 300.51811 
L 668.329589 302.449611 
L 715.428663 302.988493 
L 905.861197 304.651559 
L 1000.765458 305.31217 
L 1099.636364 305.903346 
L 1099.636364 40.94287 
L 1099.636364 40.94287 
" clip-path="url(#p3b073294d6)" style="fill: none; stroke: #ff0000; stroke-width: 0.72; stroke-linejoin: miter"/>
   </g>
   <g id="patch_4">
    <path d="M 654.332687 233.620359 
L 639.087507 233.620359 
L 639.087507 248.865539 
L 654.332687 248.865539 
L 654.332687 264.110719 
L 639.087507 264.110719 
" clip-path="url(#p3b073294d6)" style="fill: none; stroke: #ff0000; stroke-width: 0.72; stroke-linejoin: miter"/>
   </g>
   <g id="patch_5">
    <path d="M 661.955277 233.620359 
L 677.200456 233.620359 
L 677.200456 248.865539 
L 661.955277 248.865539 
L 677.200456 248.865539 
L 677.200456 264.110719 
L 661.955277 264.110719 
" clip-path="url(#p3b073294d6)" style="fill: none; stroke: #ff0000; stroke-width: 0.72; stroke-linejoin: miter"/>
   </g>
   <g id="patch_6">
    <path d="M 633.979211 28.806333 
L 621.795191 29.350014 
L 621.251509 17.165995 
L 633.435529 16.622313 
L 633.979211 28.806333 
" clip-path="url(#p3b073294d6)" style="fill: none; stroke: #ff0000; stroke-width: 0.72; stroke-linejoin: miter"/>
   </g>
   <g id="patch_7">
    <path d="M 277.560436 81.973487 
L 265.861919 85.421765 
L 262.413642 73.723248 
L 274.112159 70.27497 
L 277.560436 81.973487 
" clip-path="url(#p3b073294d6)" style="fill: none; stroke: #ff0000; stroke-width: 0.72; stroke-linejoin: miter"/>
   </g>
   <g id="patch_8">
    <path d="M 98.430122 169.560258 
L 93.891759 173.633309 
L 83.709132 162.287402 
L 88.247494 158.214351 
L 98.430122 169.560258 
" clip-path="url(#p3b073294d6)" style="fill: none; stroke: #ff0000; stroke-width: 0.72; stroke-linejoin: miter"/>
   </g>
   <g id="patch_9">
    <path d="M 75.732426 229.057899 
L 80.684088 232.617046 
L 71.786222 244.996201 
L 66.83456 241.437054 
L 75.732426 229.057899 
" clip-path="url(#p3b073294d6)" style="fill: none; stroke: #ff0000; stroke-width: 0.72; stroke-linejoin: miter"/>
   </g>
   <g id="patch_10">
    <path d="M 351.936548 278.66884 
L 364.117308 279.281216 
L 363.504933 291.461976 
L 351.324173 290.849601 
L 351.936548 278.66884 
" clip-path="url(#p3b073294d6)" style="fill: none; stroke: #ff0000; stroke-width: 0.72; stroke-linejoin: miter"/>
   </g>
   <g id="patch_11">
    <path d="M 956.363942 159.440524 
L 956.268629 154.623183 
L 955.98286 149.814349 
L 955.507139 145.022517 
L 954.842306 140.256148 
L 953.989535 135.52366 
L 952.950333 130.833412 
L 951.726534 126.193686 
L 950.320301 121.612678 
L 948.734116 117.098477 
L 946.970781 112.659056 
L 945.03341 108.302255 
L 942.925425 104.035769 
L 940.650548 99.867134 
L 938.212798 95.80371 
L 935.616479 91.852675 
L 932.866177 88.021006 
L 929.96675 84.31547 
L 926.923317 80.742613 
L 923.741254 77.308743 
L 920.426181 74.019926 
L 916.983952 70.881969 
L 913.420647 67.900415 
L 909.742559 65.080529 
L 905.956183 62.427291 
L 902.068207 59.945388 
L 898.085497 57.639203 
L 894.015088 55.512808 
L 889.864167 53.569959 
L 885.640066 51.814087 
L 881.350244 50.248293 
L 877.002279 48.875343 
L 872.603849 47.697661 
L 868.162722 46.717328 
L 863.686741 45.936074 
L 859.183812 45.355279 
L 854.661887 44.97597 
L 850.128952 44.798816 
L 845.593013 44.824129 
L 841.06208 45.051865 
L 836.544156 45.481623 
L 832.04722 46.112642 
L 827.579214 46.943809 
L 823.148029 47.973656 
L 818.76149 49.200363 
L 814.427344 50.621765 
L 810.153247 52.23535 
L 805.946746 54.03827 
L 801.815271 56.02734 
L 797.766119 58.199047 
L 793.806439 60.549556 
L 789.943226 63.074716 
L 786.183303 65.770066 
L 782.533309 68.630848 
L 778.999691 71.652007 
L 775.58869 74.828209 
L 772.306329 78.153844 
L 769.158406 81.62304 
L 766.150481 85.229667 
L 763.287865 88.967359 
L 760.575614 92.829512 
L 758.018518 96.809306 
L 755.621094 100.899713 
L 753.387575 105.093509 
L 751.321906 109.383286 
L 749.427735 113.761469 
L 747.708408 118.220326 
L 746.166961 122.751981 
L 744.806116 127.348431 
L 743.628276 132.00156 
L 742.635522 136.703147 
L 741.829608 141.444892 
L 741.211956 146.218418 
L 740.783657 151.015295 
L 740.545467 155.827053 
L 740.497809 160.645192 
L 740.640764 165.461203 
L 740.974082 170.266582 
L 741.497173 175.05284 
L 742.209113 179.811526 
L 743.108646 184.534235 
L 744.194182 189.212626 
L 745.463805 193.838436 
L 746.915272 198.403497 
L 748.546019 202.899745 
L 750.353167 207.319241 
L 752.333524 211.654178 
L 754.483593 215.896901 
L 756.799576 220.039917 
L 759.277383 224.075909 
L 761.912638 227.997749 
L 764.700687 231.79851 
L 767.636606 235.471481 
L 770.71521 239.010174 
L 773.931062 242.408339 
L 777.278482 245.659976 
L 780.751558 248.759341 
L 784.344157 251.700961 
L 788.049934 254.47964 
L 791.862344 257.090471 
L 795.774654 259.528844 
L 799.779954 261.790452 
L 803.871171 263.8713 
L 808.04108 265.767713 
L 812.282315 267.476343 
L 816.587387 268.994172 
L 820.948692 270.318519 
L 825.358528 271.447045 
L 829.809106 272.377757 
L 834.292567 273.109012 
L 838.800993 273.639517 
L 843.32642 273.968337 
L 847.860857 274.09489 
L 852.396295 274.018952 
L 856.924725 273.740659 
L 861.438149 273.260501 
L 865.928595 272.579326 
L 870.388134 271.698338 
L 874.808889 270.619092 
L 879.183052 269.343495 
L 883.502899 267.873798 
L 887.7608 266.212599 
L 891.949236 264.36283 
L 896.060809 262.327759 
L 900.088258 260.110979 
L 904.02447 257.716406 
L 907.862493 255.148269 
L 911.595549 252.411103 
L 915.217046 249.509742 
L 918.720586 246.449311 
L 922.099984 243.235214 
L 925.349269 239.873128 
L 928.462704 236.368991 
L 931.43479 232.728991 
L 934.260279 228.959556 
L 936.93418 225.067345 
L 939.45177 221.059231 
L 941.808604 216.942292 
L 944.000518 212.7238 
L 946.023643 208.411204 
L 947.874405 204.012122 
L 949.549534 199.534323 
L 951.046074 194.985714 
L 952.361381 190.374328 
L 953.493131 185.708311 
L 954.439326 180.995903 
L 955.198296 176.245426 
L 955.768699 171.46527 
L 956.149528 166.663877 
L 956.340111 161.849726 
L 956.363942 159.440524 
L 956.363942 159.440524 
" clip-path="url(#p3b073294d6)" style="fill: none; stroke: #ff0000; stroke-width: 0.72; stroke-linejoin: miter"/>
   </g>
   <g id="patch_12">
    <path d="M 400.36597 144.195344 
L 415.61115 159.440524 
L 400.36597 174.685704 
L 385.12079 159.440524 
L 400.36597 144.195344 
" clip-path="url(#p3b073294d6)" style="fill: none; stroke: #ff0000; stroke-width: 0.72; stroke-linejoin: miter"/>
   </g>
   <g id="patch_13">
    <path d="M 840.865707 144.195344 
L 856.110887 159.440524 
L 840.865707 174.685704 
L 825.620527 159.440524 
L 840.865707 144.195344 
" clip-path="url(#p3b073294d6)" style="fill: none; stroke: #ff0000; stroke-width: 0.72; stroke-linejoin: miter"/>
   </g>
   <g id="patch_14">
    <path d="M 481.7334 223.961 
L 495.96865 240.153242 
L 479.776408 254.388491 
L 465.541159 238.19625 
L 481.7334 223.961 
" clip-path="url(#p3b073294d6)" style="fill: none; stroke: #ff0000; stroke-width: 0.72; stroke-linejoin: miter"/>
   </g>
   <g id="patch_15">
    <path d="M 992.29071 256.798301 
L 1006.525959 272.990543 
L 990.333717 287.225792 
L 976.098468 271.033551 
L 992.29071 256.798301 
" clip-path="url(#p3b073294d6)" style="fill: none; stroke: #ff0000; stroke-width: 0.72; stroke-linejoin: miter"/>
   </g>
   <g id="patch_16">
    <path d="M 375.827324 199.312535 
L 391.072504 184.067356 
L 406.317683 199.312535 
L 391.072504 214.557715 
L 375.827324 199.312535 
" clip-path="url(#p3b073294d6)" style="fill: none; stroke: #ff0000; stroke-width: 0.72; stroke-linejoin: miter"/>
   </g>
   <g id="patch_17">
    <path d="M 375.827324 136.224115 
L 391.072504 120.978935 
L 406.317683 136.224115 
L 391.072504 151.469295 
L 375.827324 136.224115 
" clip-path="url(#p3b073294d6)" style="fill: none; stroke: #ff0000; stroke-width: 0.72; stroke-linejoin: miter"/>
   </g>
   <g id="line2d_1">
    <path d="M 86.880745 159.440524 
L 1099.636364 159.440524 
" clip-path="url(#p3b073294d6)" style="fill: none; stroke: #ffffff; stroke-width: 0.72; stroke-linecap: square"/>
   </g>
   <g id="line2d_2">
    <path d="M 382.071754 159.440524 
L 418.660186 159.440524 
" clip-path="url(#p3b073294d6)" style="fill: none; stroke: #ffffff; stroke-width: 0.72; stroke-linecap: square"/>
   </g>
   <g id="line2d_3">
    <path d="M 822.571491 159.440524 
L 859.159923 159.440524 
" clip-path="url(#p3b073294d6)" style="fill: none; stroke: #ffffff; stroke-width: 0.72; stroke-linecap: square"/>
   </g>
   <g id="line2d_4">
    <path d="M 52.531188 211.63286 
L 1099.636364 278.979086 
" clip-path="url(#p3b073294d6)" style="fill: none; stroke: #ffffff; stroke-width: 0.72; stroke-linecap: square"/>
   </g>
   <g id="line2d_5">
    <path d="M 462.49841 238.000551 
L 499.011399 240.348941 
" clip-path="url(#p3b073294d6)" style="fill: none; stroke: #ffffff; stroke-width: 0.72; stroke-linecap: square"/>
   </g>
   <g id="line2d_6">
    <path d="M 973.055719 270.837851 
L 1009.568708 273.186242 
" clip-path="url(#p3b073294d6)" style="fill: none; stroke: #ffffff; stroke-width: 0.72; stroke-linecap: square"/>
   </g>
   <g id="line2d_7">
    <path d="M 848.427896 44.784576 
L 848.427896 41.73554 
" clip-path="url(#p3b073294d6)" style="fill: none; stroke: #ff0000; stroke-width: 0.72; stroke-linecap: square"/>
   </g>
   <g id="line2d_8">
    <path d="M 848.427896 274.096472 
L 848.427896 277.145508 
" clip-path="url(#p3b073294d6)" style="fill: none; stroke: #ff0000; stroke-width: 0.72; stroke-linecap: square"/>
   </g>
   <g id="line2d_9">
    <path d="M 956.363942 159.440524 
L 959.412978 159.440524 
" clip-path="url(#p3b073294d6)" style="fill: none; stroke: #ff0000; stroke-width: 0.72; stroke-linecap: square"/>
   </g>
   <g id="line2d_10">
    <path d="M 740.491851 159.440524 
L 737.442815 159.440524 
" clip-path="url(#p3b073294d6)" style="fill: none; stroke: #ff0000; stroke-width: 0.72; stroke-linecap: square"/>
   </g>
   <g id="line2d_11">
    <path d="M 391.072504 292.734426 
L 391.072504 42.802225 
" clip-path="url(#p3b073294d6)" style="fill: none; stroke: #ffffff; stroke-width: 0.72; stroke-linecap: square"/>
   </g>
   <g id="line2d_12">
    <path d="M 391.072504 217.606751 
L 391.072504 181.01832 
" clip-path="url(#p3b073294d6)" style="fill: none; stroke: #ffffff; stroke-width: 0.72; stroke-linecap: square"/>
   </g>
   <g id="line2d_13">
    <path d="M 391.072504 154.518331 
L 391.072504 117.929899 
" clip-path="url(#p3b073294d6)" style="fill: none; stroke: #ffffff; stroke-width: 0.72; stroke-linecap: square"/>
   </g>
  </g>
 </g>
 <defs>
  <clipPath id="p3b073294d6">
   <rect x="0" y="0" width="1152" height="320.470172"/>
  </clipPath>
 </defs>
</svg>
