<?xml version="1.0" encoding="utf-8" standalone="no"?>
<!DOCTYPE svg PUBLIC "-//W3C//DTD SVG 1.1//EN"
  "http://www.w3.org/Graphics/SVG/1.1/DTD/svg11.dtd">
<svg xmlns:xlink="http://www.w3.org/1999/xlink" width="1152pt" height="154.279472pt" viewBox="0 0 1152 154.279472" xmlns="http://www.w3.org/2000/svg" version="1.1">
 <metadata>
  <rdf:RDF xmlns:dc="http://purl.org/dc/elements/1.1/" xmlns:cc="http://creativecommons.org/ns#" xmlns:rdf="http://www.w3.org/1999/02/22-rdf-syntax-ns#">
   <cc:Work>
    <dc:type rdf:resource="http://purl.org/dc/dcmitype/StillImage"/>
    <dc:date>2026-01-07T02:07:25.143639</dc:date>
    <dc:format>image/svg+xml</dc:format>
    <dc:creator>
     <cc:Agent>
      <dc:title>Matplotlib v3.10.1, https://matplotlib.org/</dc:title>
     </cc:Agent>
    </dc:creator>
   </cc:Work>
  </rdf:RDF>
 </metadata>
 <defs>
  <style type="text/css">*{stroke-linejoin: round; stroke-linecap: butt}</style>
 </defs>
 <g id="figure_1">
  <g id="patch_1">
   <path d="M 0 154.279472 
L 1152 154.279472 
L 1152 0 
L 0 0 
z
" style="fill: #ffffff"/>
  </g>
  <g id="axes_1">
   <g id="patch_2">
    <path d="M 0 154.279472 
L 1152 154.279472 
L 1152 0 
L 0 0 
z
" style="fill: #212830"/>
   </g>
   <g id="patch_3">
    <path d="M 1099.339342 141.218677 
L 1086.590349 138.524239 
L 1069.213602 134.630522 
L 1050.818855 130.329977 
L 1022.7169 123.461615 
L 994.532734 116.270715 
L 966.455158 108.767081 
L 938.301583 101.080472 
L 891.368347 87.971401 
L 844.494885 74.992854 
L 838.638556 73.416072 
L 837.850197 76.344122 
L 825.014769 72.933543 
L 806.31274 68.100825 
L 787.596978 63.423219 
L 768.889881 58.94725 
L 750.106909 54.658635 
L 731.302823 50.532621 
L 712.491132 46.614202 
L 693.621035 42.879564 
L 674.745849 39.375146 
L 655.801906 36.045612 
L 636.856894 32.929937 
L 617.841358 30.016552 
L 598.811769 27.288071 
L 579.726312 24.754737 
L 560.650825 22.408325 
L 541.566105 20.280715 
L 522.436275 18.339673 
L 503.309909 16.617611 
L 484.200347 15.10555 
L 465.069611 13.822778 
L 445.924105 12.766946 
L 426.810818 11.92651 
L 407.693696 11.356958 
L 388.611705 11.032007 
L 369.519297 10.959806 
L 350.48824 11.159467 
L 331.487158 11.669479 
L 312.506736 12.471115 
L 293.591956 13.590406 
L 274.713285 15.032491 
L 255.9934 16.799417 
L 237.377734 18.978633 
L 228.12712 20.224284 
L 218.90699 21.584147 
L 200.539646 24.631928 
L 191.46489 26.309781 
L 182.466472 28.117992 
L 173.552928 30.063532 
L 164.716737 32.156607 
L 155.98418 34.399062 
L 147.326374 36.811282 
L 138.81994 39.346781 
L 130.46981 42.065774 
L 122.302918 44.93669 
L 114.386009 47.965751 
L 106.749288 51.150034 
L 99.490515 54.449381 
L 92.710731 57.826101 
L 86.451993 61.273787 
L 80.83462 64.640143 
L 75.920522 67.884343 
L 71.697457 70.960814 
L 68.107398 73.836776 
L 65.158051 76.398029 
L 60.611898 81.044504 
L 58.964265 82.986807 
L 57.614821 84.822805 
L 55.593585 88.123993 
L 54.225822 91.062218 
L 53.324706 93.502537 
L 52.767842 95.631195 
L 52.363636 98.375822 
L 52.821126 102.576832 
L 53.606743 104.578051 
L 54.230249 105.692336 
L 55.037516 106.87992 
L 56.050627 108.135903 
L 57.285429 109.446195 
L 58.77811 110.803423 
L 60.586378 112.205154 
L 62.802418 113.661819 
L 65.513998 115.192374 
L 68.727334 116.801266 
L 72.459206 118.462444 
L 76.88188 120.138146 
L 82.136934 121.827141 
L 88.206171 123.552892 
L 94.959623 125.278938 
L 102.380721 126.897484 
L 110.392746 128.418867 
L 118.760248 129.838145 
L 127.403243 131.095905 
L 136.321063 132.186128 
L 154.838797 134.134455 
L 164.09438 135.022378 
L 173.396747 135.741625 
L 201.991655 137.538271 
L 221.047116 138.490541 
L 240.265493 139.162406 
L 256.773616 139.633394 
L 256.689895 142.664561 
L 278.875442 143.202027 
L 298.150088 143.543199 
L 356.612731 144.162004 
L 385.899055 144.257279 
L 464.248441 144.181801 
L 513.192845 143.904451 
L 571.854753 143.343275 
L 669.548498 141.829975 
L 708.591507 141.137706 
L 776.892206 139.760832 
L 845.283287 138.534554 
L 903.9638 137.793418 
L 942.978386 137.559269 
L 991.641398 137.651927 
L 1020.79504 137.983267 
L 1049.790958 138.563816 
L 1077.884656 139.41196 
L 1099.636364 140.323655 
L 1099.339342 141.218677 
L 1099.339342 141.218677 
" clip-path="url(#pa44d7fbda1)" style="fill: none; stroke: #ff0000; stroke-width: 0.72; stroke-linejoin: miter"/>
   </g>
   <g id="patch_4">
    <path d="M 737.105382 64.202509 
L 725.251689 61.631562 
L 727.822637 49.77787 
L 739.676329 52.348817 
L 737.105382 64.202509 
" clip-path="url(#pa44d7fbda1)" style="fill: none; stroke: #ff0000; stroke-width: 0.72; stroke-linejoin: miter"/>
   </g>
   <g id="patch_5">
    <path d="M 342.564993 23.464216 
L 330.441421 23.836779 
L 330.068858 11.713208 
L 342.19243 11.340645 
L 342.564993 23.464216 
" clip-path="url(#pa44d7fbda1)" style="fill: none; stroke: #ff0000; stroke-width: 0.72; stroke-linejoin: miter"/>
   </g>
   <g id="patch_6">
    <path d="M 165.988405 44.353074 
L 154.240592 47.371132 
L 151.222534 35.623319 
L 162.970347 32.605261 
L 165.988405 44.353074 
" clip-path="url(#pa44d7fbda1)" style="fill: none; stroke: #ff0000; stroke-width: 0.72; stroke-linejoin: miter"/>
   </g>
   <g id="patch_7">
    <path d="M 79.984757 83.595082 
L 75.41503 87.582254 
L 65.4471 76.157936 
L 70.016827 72.170764 
L 79.984757 83.595082 
" clip-path="url(#pa44d7fbda1)" style="fill: none; stroke: #ff0000; stroke-width: 0.72; stroke-linejoin: miter"/>
   </g>
   <g id="patch_8">
    <path d="M 67.220597 98.171762 
L 72.034953 101.859841 
L 62.814757 113.895731 
L 58.000401 110.207653 
L 67.220597 98.171762 
" clip-path="url(#pa44d7fbda1)" style="fill: none; stroke: #ff0000; stroke-width: 0.72; stroke-linejoin: miter"/>
   </g>
   <g id="patch_9">
    <path d="M 198.899996 125.22343 
L 211.011483 125.880441 
L 210.354472 137.991928 
L 198.242985 137.334917 
L 198.899996 125.22343 
" clip-path="url(#pa44d7fbda1)" style="fill: none; stroke: #ff0000; stroke-width: 0.72; stroke-linejoin: miter"/>
   </g>
   <g id="line2d_1">
    <path d="M 1040.262383 127.780604 
L 1039.643404 130.74908 
" clip-path="url(#pa44d7fbda1)" style="fill: none; stroke: #ff0000; stroke-width: 0.72; stroke-linecap: square"/>
   </g>
   <g id="line2d_2">
    <path d="M 1039.105227 135.289865 
L 1039.013258 138.320793 
" clip-path="url(#pa44d7fbda1)" style="fill: none; stroke: #ff0000; stroke-width: 0.72; stroke-linecap: square"/>
   </g>
   <g id="line2d_3">
    <path d="M 981.462425 112.811578 
L 980.778709 115.765816 
" clip-path="url(#pa44d7fbda1)" style="fill: none; stroke: #ff0000; stroke-width: 0.72; stroke-linecap: square"/>
   </g>
   <g id="line2d_4">
    <path d="M 978.431159 134.54179 
L 978.366491 137.573424 
" clip-path="url(#pa44d7fbda1)" style="fill: none; stroke: #ff0000; stroke-width: 0.72; stroke-linecap: square"/>
   </g>
   <g id="line2d_5">
    <path d="M 746.154108 53.781336 
L 745.434284 56.726984 
" clip-path="url(#pa44d7fbda1)" style="fill: none; stroke: #ff0000; stroke-width: 0.72; stroke-linecap: square"/>
   </g>
   <g id="line2d_6">
    <path d="M 735.749236 137.618374 
L 735.753323 140.650695 
" clip-path="url(#pa44d7fbda1)" style="fill: none; stroke: #ff0000; stroke-width: 0.72; stroke-linecap: square"/>
   </g>
   <g id="patch_10">
    <path d="M 515.220177 77.139736 
L 515.088665 72.912753 
L 514.694652 68.702564 
L 514.039703 64.525895 
L 513.12642 60.399341 
L 511.958432 56.339296 
L 510.540379 52.361891 
L 508.877894 48.482927 
L 506.977584 44.717817 
L 504.846998 41.081518 
L 502.4946 37.588477 
L 499.929736 34.252573 
L 497.162598 31.087058 
L 494.204178 28.10451 
L 491.06623 25.316777 
L 487.761222 22.734936 
L 484.302283 20.369244 
L 480.703157 18.229099 
L 476.978142 16.323005 
L 473.142039 14.658535 
L 469.210086 13.242301 
L 465.197908 12.07993 
L 461.121442 11.17604 
L 456.996886 10.534223 
L 452.840626 10.157027 
L 448.669175 10.045953 
L 444.499105 10.20144 
L 440.346985 10.622872 
L 436.22931 11.308573 
L 432.162441 12.255821 
L 428.162534 13.46085 
L 424.245481 14.918875 
L 420.426845 16.624101 
L 416.721797 18.569755 
L 413.145057 20.748105 
L 409.710835 23.150499 
L 406.432775 25.76739 
L 403.323902 28.588383 
L 400.396566 31.602269 
L 397.662397 34.797074 
L 395.13226 38.160106 
L 392.816204 41.678002 
L 390.723434 45.336788 
L 388.862262 49.121926 
L 387.240083 53.018378 
L 385.863343 57.010663 
L 384.737511 61.082921 
L 383.867059 65.218972 
L 383.255446 69.402384 
L 382.905103 73.616537 
L 382.81742 77.844687 
L 382.992747 82.070036 
L 383.430386 86.275798 
L 384.128599 90.445262 
L 385.084613 94.561863 
L 386.294628 98.609247 
L 387.753837 102.571333 
L 389.456444 106.432379 
L 391.395683 110.177047 
L 393.56385 113.790458 
L 395.952331 117.258257 
L 398.551637 120.566666 
L 401.35144 123.70254 
L 404.340617 126.653422 
L 407.507293 129.407587 
L 410.838885 131.954093 
L 414.322159 134.282823 
L 417.943273 136.384525 
L 421.687843 138.250848 
L 425.540991 139.874379 
L 429.487409 141.248666 
L 433.511417 142.36825 
L 437.597028 143.228682 
L 441.72801 143.826545 
L 445.887951 144.159462 
L 450.060324 144.226112 
L 454.228551 144.026229 
L 458.376073 143.560608 
L 462.486412 142.831098 
L 466.543237 141.840598 
L 470.53043 140.593042 
L 474.432151 139.093389 
L 478.232898 137.347594 
L 481.91757 135.362596 
L 485.47153 133.146279 
L 488.880656 130.70745 
L 492.131405 128.055797 
L 495.210861 125.201856 
L 498.10679 122.156965 
L 500.807686 118.933222 
L 503.302819 115.543434 
L 505.582275 112.00107 
L 507.636999 108.320202 
L 509.458827 104.515455 
L 511.040521 100.601944 
L 512.375796 96.595219 
L 513.459349 92.511198 
L 514.286873 88.366106 
L 514.855082 84.176412 
L 515.161717 79.958762 
L 515.220177 77.139736 
L 515.220177 77.139736 
" clip-path="url(#pa44d7fbda1)" style="fill: none; stroke: #ff0000; stroke-width: 0.72; stroke-linejoin: miter"/>
   </g>
   <g id="line2d_7">
    <path d="M 64.40812 77.139736 
L 852.355335 77.139736 
" clip-path="url(#pa44d7fbda1)" style="fill: none; stroke: #ffffff; stroke-width: 0.72; stroke-linecap: square"/>
   </g>
   <g id="line2d_8">
    <path d="M 215.629683 77.139736 
L 252.017567 77.139736 
" clip-path="url(#pa44d7fbda1)" style="fill: none; stroke: #ffffff; stroke-width: 0.72; stroke-linecap: square"/>
   </g>
   <g id="patch_11">
    <path d="M 233.823625 61.978118 
L 248.985243 77.139736 
L 233.823625 92.301354 
L 218.662007 77.139736 
L 233.823625 61.978118 
" clip-path="url(#pa44d7fbda1)" style="fill: none; stroke: #ff0000; stroke-width: 0.72; stroke-linejoin: miter"/>
   </g>
   <g id="line2d_9">
    <path d="M 440.187785 77.139736 
L 476.575669 77.139736 
" clip-path="url(#pa44d7fbda1)" style="fill: none; stroke: #ffffff; stroke-width: 0.72; stroke-linecap: square"/>
   </g>
   <g id="patch_12">
    <path d="M 458.381727 61.978118 
L 473.543345 77.139736 
L 458.381727 92.301354 
L 443.220109 77.139736 
L 458.381727 61.978118 
" clip-path="url(#pa44d7fbda1)" style="fill: none; stroke: #ff0000; stroke-width: 0.72; stroke-linejoin: miter"/>
   </g>
   <g id="line2d_10">
    <path d="M 664.745888 77.139736 
L 701.133772 77.139736 
" clip-path="url(#pa44d7fbda1)" style="fill: none; stroke: #ffffff; stroke-width: 0.72; stroke-linecap: square"/>
   </g>
   <g id="patch_13">
    <path d="M 682.93983 61.978118 
L 698.101448 77.139736 
L 682.93983 92.301354 
L 667.778212 77.139736 
L 682.93983 61.978118 
" clip-path="url(#pa44d7fbda1)" style="fill: none; stroke: #ff0000; stroke-width: 0.72; stroke-linejoin: miter"/>
   </g>
   <g id="line2d_11">
    <path d="M 52.474713 97.448195 
L 1093.003747 139.889816 
" clip-path="url(#pa44d7fbda1)" style="fill: none; stroke: #ffffff; stroke-width: 0.72; stroke-linecap: square"/>
   </g>
   <g id="line2d_12">
    <path d="M 254.217931 105.676999 
L 290.575583 107.159973 
" clip-path="url(#pa44d7fbda1)" style="fill: none; stroke: #ffffff; stroke-width: 0.72; stroke-linecap: square"/>
   </g>
   <g id="patch_14">
    <path d="M 273.014663 91.269465 
L 287.545779 107.036392 
L 271.778851 121.567508 
L 257.247735 105.80058 
L 273.014663 91.269465 
" clip-path="url(#pa44d7fbda1)" style="fill: none; stroke: #ff0000; stroke-width: 0.72; stroke-linejoin: miter"/>
   </g>
   <g id="line2d_13">
    <path d="M 504.503325 115.885765 
L 540.860977 117.36874 
" clip-path="url(#pa44d7fbda1)" style="fill: none; stroke: #ffffff; stroke-width: 0.72; stroke-linecap: square"/>
   </g>
   <g id="patch_15">
    <path d="M 523.300057 101.478231 
L 537.831173 117.245158 
L 522.064245 131.776274 
L 507.53313 116.009347 
L 523.300057 101.478231 
" clip-path="url(#pa44d7fbda1)" style="fill: none; stroke: #ff0000; stroke-width: 0.72; stroke-linejoin: miter"/>
   </g>
   <g id="line2d_14">
    <path d="M 449.016972 10.045027 
L 449.016972 7.012703 
" clip-path="url(#pa44d7fbda1)" style="fill: none; stroke: #ff0000; stroke-width: 0.72; stroke-linecap: square"/>
   </g>
   <g id="line2d_15">
    <path d="M 449.016972 144.234445 
L 449.016972 147.266768 
" clip-path="url(#pa44d7fbda1)" style="fill: none; stroke: #ff0000; stroke-width: 0.72; stroke-linecap: square"/>
   </g>
   <g id="line2d_16">
    <path d="M 515.220177 77.139736 
L 518.252501 77.139736 
" clip-path="url(#pa44d7fbda1)" style="fill: none; stroke: #ff0000; stroke-width: 0.72; stroke-linecap: square"/>
   </g>
   <g id="line2d_17">
    <path d="M 382.813766 77.139736 
L 379.781442 77.139736 
" clip-path="url(#pa44d7fbda1)" style="fill: none; stroke: #ff0000; stroke-width: 0.72; stroke-linecap: square"/>
   </g>
   <g id="patch_16">
    <path d="M 349.81667 99.448974 
L 343.752022 99.448974 
L 343.752022 129.77221 
L 349.81667 129.77221 
" clip-path="url(#pa44d7fbda1)" style="fill: none; stroke: #ff0000; stroke-width: 0.72; stroke-linejoin: miter"/>
   </g>
   <g id="patch_17">
    <path d="M 352.848993 129.77221 
L 358.913641 129.77221 
L 358.913641 99.448974 
L 352.848993 99.448974 
" clip-path="url(#pa44d7fbda1)" style="fill: none; stroke: #ff0000; stroke-width: 0.72; stroke-linejoin: miter"/>
   </g>
   <g id="patch_18">
    <path d="M 343.752022 114.610592 
L 349.81667 114.610592 
" clip-path="url(#pa44d7fbda1)" style="fill: none; stroke: #ff0000; stroke-width: 0.72; stroke-linejoin: miter"/>
   </g>
   <g id="patch_19">
    <path d="M 352.848993 114.610592 
L 358.913641 114.610592 
" clip-path="url(#pa44d7fbda1)" style="fill: none; stroke: #ff0000; stroke-width: 0.72; stroke-linejoin: miter"/>
   </g>
   <g id="patch_20">
    <path d="M 366.49445 99.448974 
L 381.656068 99.448974 
L 381.656068 114.610592 
L 366.49445 114.610592 
L 366.49445 129.77221 
L 381.656068 129.77221 
" clip-path="url(#pa44d7fbda1)" style="fill: none; stroke: #ff0000; stroke-width: 0.72; stroke-linejoin: miter"/>
   </g>
  </g>
 </g>
 <defs>
  <clipPath id="pa44d7fbda1">
   <rect x="0" y="0" width="1152" height="154.279472"/>
  </clipPath>
 </defs>
</svg>
