<?xml version="1.0" encoding="utf-8" standalone="no"?>
<!DOCTYPE svg PUBLIC "-//W3C//DTD SVG 1.1//EN"
  "http://www.w3.org/Graphics/SVG/1.1/DTD/svg11.dtd">
<svg xmlns:xlink="http://www.w3.org/1999/xlink" width="1152pt" height="202.136475pt" viewBox="0 0 1152 202.136475" xmlns="http://www.w3.org/2000/svg" version="1.1">
 <metadata>
  <rdf:RDF xmlns:dc="http://purl.org/dc/elements/1.1/" xmlns:cc="http://creativecommons.org/ns#" xmlns:rdf="http://www.w3.org/1999/02/22-rdf-syntax-ns#">
   <cc:Work>
    <dc:type rdf:resource="http://purl.org/dc/dcmitype/StillImage"/>
    <dc:date>2026-01-07T02:07:24.160691</dc:date>
    <dc:format>image/svg+xml</dc:format>
    <dc:creator>
     <cc:Agent>
      <dc:title>Matplotlib v3.10.1, https://matplotlib.org/</dc:title>
     </cc:Agent>
    </dc:creator>
   </cc:Work>
  </rdf:RDF>
 </metadata>
 <defs>
  <style type="text/css">*{stroke-linejoin: round; stroke-linecap: butt}</style>
 </defs>
 <g id="figure_1">
  <g id="patch_1">
   <path d="M 0 202.136475 
L 1152 202.136475 
L 1152 0 
L 0 0 
z
" style="fill: #ffffff"/>
  </g>
  <g id="axes_1">
   <g id="patch_2">
    <path d="M 0 202.136475 
L 1152 202.136475 
L 1152 0 
L 0 0 
z
" style="fill: #212830"/>
   </g>
   <g id="patch_3">
    <path d="M 1099.636364 100.408715 
L 1086.458643 96.652777 
L 1060.929796 89.567726 
L 1035.419631 82.74464 
L 1009.946493 76.19398 
L 984.440273 69.957619 
L 958.869532 63.990335 
L 933.293941 58.313428 
L 907.660165 52.952962 
L 882.016256 47.882173 
L 856.272853 43.139138 
L 830.510978 38.682017 
L 804.691574 34.554153 
L 778.806723 30.715399 
L 752.876704 27.186717 
L 726.902848 23.937274 
L 700.920853 20.999852 
L 674.887368 18.383702 
L 648.87074 16.060814 
L 622.848531 14.056424 
L 596.849214 12.396327 
L 570.86701 11.069856 
L 544.908359 10.077583 
L 519.041818 9.448708 
L 493.211768 9.188022 
L 467.452265 9.323846 
L 441.808058 9.83484 
L 429.045103 10.242646 
L 403.601634 11.401092 
L 378.292047 12.98514 
L 365.716227 13.9451 
L 353.18177 15.023301 
L 340.699324 16.214155 
L 328.277272 17.512968 
L 315.953594 18.917351 
L 303.733426 20.453321 
L 291.591149 22.128006 
L 279.556367 23.917732 
L 267.637072 25.843783 
L 255.832681 27.903833 
L 244.138798 30.096486 
L 232.585707 32.393926 
L 221.219627 34.807551 
L 210.036916 37.354616 
L 199.049338 40.038596 
L 188.248931 42.867126 
L 177.659658 45.838721 
L 167.255718 48.969306 
L 157.098288 52.21373 
L 147.200087 55.631274 
L 137.574236 59.191238 
L 128.286342 62.89941 
L 119.363062 66.753252 
L 110.897602 70.714835 
L 102.987083 74.74912 
L 95.684147 78.84391 
L 89.094012 82.851613 
L 83.28367 86.729152 
L 78.241153 90.428927 
L 73.907651 93.914461 
L 70.254381 97.097866 
L 67.144299 100.149857 
L 64.503801 102.925456 
L 62.302793 105.470977 
L 60.45517 107.889833 
L 58.891701 110.185746 
L 57.583334 112.307441 
L 55.551565 116.288956 
L 54.118511 119.788256 
L 53.156055 122.942474 
L 52.553329 125.841288 
L 52.37009 126.980409 
L 52.413221 131.049674 
L 52.542261 132.400093 
L 52.80474 133.800612 
L 53.23489 135.278106 
L 53.846501 136.823773 
L 54.657932 138.431524 
L 55.696991 140.102875 
L 56.9876 141.834182 
L 58.548796 143.614132 
L 60.415524 145.433123 
L 62.641691 147.284554 
L 65.309557 149.172894 
L 68.501572 151.116754 
L 72.243196 153.131478 
L 76.570864 155.197619 
L 81.640139 157.269525 
L 87.582371 159.345959 
L 94.39272 161.457593 
L 101.95879 163.570517 
L 110.243128 165.567917 
L 119.170917 167.461056 
L 128.516188 169.246012 
L 138.193513 170.86095 
L 148.195482 172.300493 
L 169.052457 174.940512 
L 179.593078 176.172228 
L 190.2492 177.22899 
L 223.428079 180.036732 
L 246.10753 181.660135 
L 269.491149 182.992227 
L 305.930727 184.746989 
L 325.948402 185.545477 
L 325.810042 189.123229 
L 343.491609 189.724024 
L 382.51545 190.782764 
L 422.351541 191.600797 
L 462.661124 192.134369 
L 516.830737 192.5986 
L 571.246468 192.874068 
L 605.717609 192.948453 
L 1099.636364 100.408715 
L 1099.636364 100.408715 
" clip-path="url(#p799e06a0a8)" style="fill: none; stroke: #ff0000; stroke-width: 0.72; stroke-linejoin: miter"/>
   </g>
   <g id="patch_4">
    <path d="M 964.053014 74.98627 
L 954.749982 72.838208 
L 956.898044 63.535176 
L 966.201076 65.683238 
L 964.053014 74.98627 
" clip-path="url(#p799e06a0a8)" style="fill: none; stroke: #ff0000; stroke-width: 0.72; stroke-linejoin: miter"/>
   </g>
   <g id="patch_5">
    <path d="M 438.060486 19.50731 
L 428.517555 19.812345 
L 428.212521 10.269414 
L 437.755452 9.964379 
L 438.060486 19.50731 
" clip-path="url(#p799e06a0a8)" style="fill: none; stroke: #ff0000; stroke-width: 0.72; stroke-linejoin: miter"/>
   </g>
   <g id="patch_6">
    <path d="M 201.183861 49.349401 
L 191.947667 51.768759 
L 189.528308 42.532565 
L 198.764502 40.113207 
L 201.183861 49.349401 
" clip-path="url(#p799e06a0a8)" style="fill: none; stroke: #ff0000; stroke-width: 0.72; stroke-linejoin: miter"/>
   </g>
   <g id="patch_7">
    <path d="M 83.15028 101.798831 
L 79.431899 104.792788 
L 71.947005 95.496834 
L 75.665386 92.502877 
L 83.15028 101.798831 
" clip-path="url(#p799e06a0a8)" style="fill: none; stroke: #ff0000; stroke-width: 0.72; stroke-linejoin: miter"/>
   </g>
   <g id="patch_8">
    <path d="M 68.586017 136.873665 
L 72.489524 139.621897 
L 65.618944 149.380664 
L 61.715437 146.632432 
L 68.586017 136.873665 
" clip-path="url(#p799e06a0a8)" style="fill: none; stroke: #ff0000; stroke-width: 0.72; stroke-linejoin: miter"/>
   </g>
   <g id="patch_9">
    <path d="M 251.96373 172.444259 
L 261.494639 173.012018 
L 260.926881 182.542927 
L 251.395972 181.975168 
L 251.96373 172.444259 
" clip-path="url(#p799e06a0a8)" style="fill: none; stroke: #ff0000; stroke-width: 0.72; stroke-linejoin: miter"/>
   </g>
   <g id="patch_10">
    <path d="M 652.900919 100.57954 
L 652.76062 96.085816 
L 652.340279 91.609947 
L 651.641566 87.169713 
L 650.667258 82.782756 
L 649.421224 78.466505 
L 647.908417 74.238109 
L 646.134845 70.114367 
L 644.107556 66.111662 
L 641.834604 62.245897 
L 639.325019 58.532431 
L 636.588772 54.986017 
L 633.636733 51.620745 
L 630.480631 48.449986 
L 627.133006 45.486335 
L 623.607157 42.741569 
L 619.917093 40.226592 
L 616.077473 37.951395 
L 612.103553 35.925019 
L 608.011121 34.155514 
L 603.816436 32.64991 
L 599.536163 31.414188 
L 595.187309 30.453259 
L 590.78715 29.77094 
L 586.353168 29.369942 
L 581.902981 29.251858 
L 577.454267 29.417158 
L 573.024702 29.865183 
L 568.631885 30.594156 
L 564.293267 31.601178 
L 560.026087 32.88225 
L 555.847297 34.432282 
L 551.7735 36.245115 
L 547.82088 38.313548 
L 544.005142 40.629362 
L 540.341446 43.183356 
L 536.844346 45.965384 
L 533.527738 48.964393 
L 530.404797 52.168468 
L 527.487932 55.564879 
L 524.788731 59.140132 
L 522.317917 62.880023 
L 520.085307 66.769693 
L 518.099772 70.793689 
L 516.3692 74.936023 
L 514.900465 79.180238 
L 513.699405 83.509473 
L 512.77079 87.906526 
L 512.118309 92.353929 
L 511.744556 96.834012 
L 511.651014 101.328976 
L 511.838056 105.820963 
L 512.304938 110.292125 
L 513.049806 114.7247 
L 514.0697 119.101076 
L 515.360568 123.403866 
L 516.917282 127.615976 
L 518.733657 131.720671 
L 520.802476 135.701643 
L 523.11552 139.543076 
L 525.663599 143.229707 
L 528.436591 146.746891 
L 531.423477 150.080652 
L 534.612391 153.217747 
L 537.990663 156.145711 
L 541.544873 158.852912 
L 545.260898 161.328595 
L 549.123976 163.562922 
L 553.118758 165.547019 
L 557.229373 167.273001 
L 561.43949 168.734011 
L 565.732382 169.924245 
L 570.090993 170.838975 
L 574.498008 171.474565 
L 578.935916 171.828491 
L 583.387087 171.899347 
L 587.833835 171.68685 
L 592.258494 171.191846 
L 596.643485 170.416301 
L 600.971387 169.363296 
L 605.225004 168.037015 
L 609.387438 166.442727 
L 613.442151 164.586766 
L 617.373033 162.476505 
L 621.164468 160.12033 
L 624.801392 157.5276 
L 628.269356 154.708617 
L 631.554581 151.674581 
L 634.644016 148.437544 
L 637.525386 145.01037 
L 640.187243 141.406672 
L 642.619013 137.64077 
L 644.811033 133.727623 
L 646.754596 129.682781 
L 648.441978 125.522312 
L 649.866477 121.262745 
L 651.022432 116.921005 
L 651.905252 112.514341 
L 652.511428 108.06026 
L 652.838553 103.576458 
L 652.900919 100.57954 
L 652.900919 100.57954 
" clip-path="url(#p799e06a0a8)" style="fill: none; stroke: #ff0000; stroke-width: 0.72; stroke-linejoin: miter"/>
   </g>
   <g id="line2d_1">
    <path d="M 66.735531 100.57954 
L 1098.724611 100.57954 
" clip-path="url(#p799e06a0a8)" style="fill: none; stroke: #ffffff; stroke-width: 0.72; stroke-linecap: square"/>
   </g>
   <g id="line2d_2">
    <path d="M 268.12075 100.57954 
L 296.764164 100.57954 
" clip-path="url(#p799e06a0a8)" style="fill: none; stroke: #ffffff; stroke-width: 0.72; stroke-linecap: square"/>
   </g>
   <g id="patch_11">
    <path d="M 282.442457 88.644784 
L 294.377213 100.57954 
L 282.442457 112.514296 
L 270.507701 100.57954 
L 282.442457 88.644784 
" clip-path="url(#p799e06a0a8)" style="fill: none; stroke: #ff0000; stroke-width: 0.72; stroke-linejoin: miter"/>
   </g>
   <g id="line2d_3">
    <path d="M 568.408364 100.57954 
L 597.051778 100.57954 
" clip-path="url(#p799e06a0a8)" style="fill: none; stroke: #ffffff; stroke-width: 0.72; stroke-linecap: square"/>
   </g>
   <g id="patch_12">
    <path d="M 582.730071 88.644784 
L 594.664827 100.57954 
L 582.730071 112.514296 
L 570.795315 100.57954 
L 582.730071 88.644784 
" clip-path="url(#p799e06a0a8)" style="fill: none; stroke: #ff0000; stroke-width: 0.72; stroke-linejoin: miter"/>
   </g>
   <g id="line2d_4">
    <path d="M 868.695978 100.57954 
L 897.339393 100.57954 
" clip-path="url(#p799e06a0a8)" style="fill: none; stroke: #ffffff; stroke-width: 0.72; stroke-linecap: square"/>
   </g>
   <g id="patch_13">
    <path d="M 883.017686 88.644784 
L 894.952441 100.57954 
L 883.017686 112.514296 
L 871.08293 100.57954 
L 883.017686 88.644784 
" clip-path="url(#p799e06a0a8)" style="fill: none; stroke: #ff0000; stroke-width: 0.72; stroke-linejoin: miter"/>
   </g>
   <g id="line2d_5">
    <path d="M 52.401231 126.786815 
L 769.615293 162.240875 
" clip-path="url(#p799e06a0a8)" style="fill: none; stroke: #ffffff; stroke-width: 0.72; stroke-linecap: square"/>
   </g>
   <g id="line2d_6">
    <path d="M 190.837559 133.630142 
L 219.446041 135.044345 
" clip-path="url(#p799e06a0a8)" style="fill: none; stroke: #ffffff; stroke-width: 0.72; stroke-linecap: square"/>
   </g>
   <g id="patch_14">
    <path d="M 205.731052 122.417043 
L 217.062001 134.926495 
L 204.552548 146.257444 
L 193.221599 133.747992 
L 205.731052 122.417043 
" clip-path="url(#p799e06a0a8)" style="fill: none; stroke: #ff0000; stroke-width: 0.72; stroke-linejoin: miter"/>
   </g>
   <g id="line2d_7">
    <path d="M 362.392944 142.110643 
L 391.001426 143.524847 
" clip-path="url(#p799e06a0a8)" style="fill: none; stroke: #ffffff; stroke-width: 0.72; stroke-linecap: square"/>
   </g>
   <g id="patch_15">
    <path d="M 377.286437 130.897544 
L 388.617386 143.406997 
L 376.107933 154.737946 
L 364.776984 142.228493 
L 377.286437 130.897544 
" clip-path="url(#p799e06a0a8)" style="fill: none; stroke: #ff0000; stroke-width: 0.72; stroke-linejoin: miter"/>
   </g>
   <g id="line2d_8">
    <path d="M 582.274017 29.250874 
L 582.274017 26.863923 
" clip-path="url(#p799e06a0a8)" style="fill: none; stroke: #ff0000; stroke-width: 0.72; stroke-linecap: square"/>
   </g>
   <g id="line2d_9">
    <path d="M 582.274017 171.908205 
L 582.274017 174.295157 
" clip-path="url(#p799e06a0a8)" style="fill: none; stroke: #ff0000; stroke-width: 0.72; stroke-linecap: square"/>
   </g>
   <g id="line2d_10">
    <path d="M 652.900919 100.57954 
L 655.287871 100.57954 
" clip-path="url(#p799e06a0a8)" style="fill: none; stroke: #ff0000; stroke-width: 0.72; stroke-linecap: square"/>
   </g>
   <g id="line2d_11">
    <path d="M 511.647115 100.57954 
L 509.260164 100.57954 
" clip-path="url(#p799e06a0a8)" style="fill: none; stroke: #ff0000; stroke-width: 0.72; stroke-linecap: square"/>
   </g>
   <g id="line2d_12">
    <path d="M 391.317922 190.983413 
L 391.317922 12.119906 
" clip-path="url(#p799e06a0a8)" style="fill: none; stroke: #ffffff; stroke-width: 0.72; stroke-linecap: square"/>
   </g>
   <g id="line2d_13">
    <path d="M 391.317922 138.048338 
L 391.317922 109.404923 
" clip-path="url(#p799e06a0a8)" style="fill: none; stroke: #ffffff; stroke-width: 0.72; stroke-linecap: square"/>
   </g>
   <g id="patch_16">
    <path d="M 379.383166 123.72663 
L 391.317922 111.791875 
L 403.252678 123.72663 
L 391.317922 135.661386 
L 379.383166 123.72663 
" clip-path="url(#p799e06a0a8)" style="fill: none; stroke: #ff0000; stroke-width: 0.72; stroke-linejoin: miter"/>
   </g>
   <g id="line2d_14">
    <path d="M 391.317922 93.698395 
L 391.317922 65.054981 
" clip-path="url(#p799e06a0a8)" style="fill: none; stroke: #ffffff; stroke-width: 0.72; stroke-linecap: square"/>
   </g>
   <g id="patch_17">
    <path d="M 379.383166 79.376688 
L 391.317922 67.441932 
L 403.252678 79.376688 
L 391.317922 91.311444 
L 379.383166 79.376688 
" clip-path="url(#p799e06a0a8)" style="fill: none; stroke: #ff0000; stroke-width: 0.72; stroke-linejoin: miter"/>
   </g>
   <g id="line2d_15">
    <path d="M 892.577672 139.202863 
L 892.577672 49.930876 
" clip-path="url(#p799e06a0a8)" style="fill: none; stroke: #ffffff; stroke-width: 0.72; stroke-linecap: square"/>
   </g>
   <g id="line2d_16">
    <path d="M 892.577672 117.62482 
L 892.577672 88.981406 
" clip-path="url(#p799e06a0a8)" style="fill: none; stroke: #ffffff; stroke-width: 0.72; stroke-linecap: square"/>
   </g>
   <g id="patch_18">
    <path d="M 880.642916 103.303113 
L 892.577672 91.368357 
L 904.512428 103.303113 
L 892.577672 115.237869 
L 880.642916 103.303113 
" clip-path="url(#p799e06a0a8)" style="fill: none; stroke: #ff0000; stroke-width: 0.72; stroke-linejoin: miter"/>
   </g>
   <g id="line2d_17">
    <path d="M 892.577672 100.152333 
L 892.577672 71.508919 
" clip-path="url(#p799e06a0a8)" style="fill: none; stroke: #ffffff; stroke-width: 0.72; stroke-linecap: square"/>
   </g>
   <g id="patch_19">
    <path d="M 880.642916 85.830626 
L 892.577672 73.89587 
L 904.512428 85.830626 
L 892.577672 97.765382 
L 880.642916 85.830626 
" clip-path="url(#p799e06a0a8)" style="fill: none; stroke: #ff0000; stroke-width: 0.72; stroke-linejoin: miter"/>
   </g>
   <g id="patch_20">
    <path d="M 442.396488 158.583549 
L 442.396488 146.648793 
L 454.331244 146.648793 
L 454.331244 170.518305 
" clip-path="url(#p799e06a0a8)" style="fill: none; stroke: #ff0000; stroke-width: 0.72; stroke-linejoin: miter"/>
   </g>
   <g id="patch_21">
    <path d="M 465.072524 146.648793 
L 460.298622 146.648793 
L 460.298622 170.518305 
L 465.072524 170.518305 
" clip-path="url(#p799e06a0a8)" style="fill: none; stroke: #ff0000; stroke-width: 0.72; stroke-linejoin: miter"/>
   </g>
   <g id="patch_22">
    <path d="M 467.459475 170.518305 
L 472.233378 170.518305 
L 472.233378 146.648793 
L 467.459475 146.648793 
" clip-path="url(#p799e06a0a8)" style="fill: none; stroke: #ff0000; stroke-width: 0.72; stroke-linejoin: miter"/>
   </g>
  </g>
 </g>
 <defs>
  <clipPath id="p799e06a0a8">
   <rect x="0" y="0" width="1152" height="202.136475"/>
  </clipPath>
 </defs>
</svg>
