<?xml version="1.0" encoding="utf-8" standalone="no"?>
<!DOCTYPE svg PUBLIC "-//W3C//DTD SVG 1.1//EN"
  "http://www.w3.org/Graphics/SVG/1.1/DTD/svg11.dtd">
<svg xmlns:xlink="http://www.w3.org/1999/xlink" width="1152pt" height="317.088064pt" viewBox="0 0 1152 317.088064" xmlns="http://www.w3.org/2000/svg" version="1.1">
 <metadata>
  <rdf:RDF xmlns:dc="http://purl.org/dc/elements/1.1/" xmlns:cc="http://creativecommons.org/ns#" xmlns:rdf="http://www.w3.org/1999/02/22-rdf-syntax-ns#">
   <cc:Work>
    <dc:type rdf:resource="http://purl.org/dc/dcmitype/StillImage"/>
    <dc:date>2026-01-07T02:07:21.595080</dc:date>
    <dc:format>image/svg+xml</dc:format>
    <dc:creator>
     <cc:Agent>
      <dc:title>Matplotlib v3.10.1, https://matplotlib.org/</dc:title>
     </cc:Agent>
    </dc:creator>
   </cc:Work>
  </rdf:RDF>
 </metadata>
 <defs>
  <style type="text/css">*{stroke-linejoin: round; stroke-linecap: butt}</style>
 </defs>
 <g id="figure_1">
  <g id="patch_1">
   <path d="M 0 317.088064 
L 1152 317.088064 
L 1152 0 
L 0 0 
z
" style="fill: #ffffff"/>
  </g>
  <g id="axes_1">
   <g id="patch_2">
    <path d="M 0 317.088064 
L 1152 317.088064 
L 1152 0 
L 0 0 
z
" style="fill: #212830"/>
   </g>
   <g id="patch_3">
    <path d="M 1099.636363 262.200975 
L 1099.636364 40.35107 
L 1092.705421 39.377878 
L 1071.981269 36.634264 
L 1051.224077 34.052077 
L 1030.432126 31.626795 
L 1009.618251 29.355423 
L 988.787084 27.2432 
L 967.934355 25.290521 
L 947.065554 23.494172 
L 926.191249 21.85537 
L 905.316293 20.374896 
L 884.45059 19.053207 
L 863.59377 17.895206 
L 842.753824 16.896367 
L 821.947636 16.061029 
L 801.171026 15.396638 
L 780.422948 14.900275 
L 759.717808 14.570452 
L 739.064258 14.413094 
L 718.462641 14.431333 
L 697.917161 14.624058 
L 677.44182 14.992946 
L 657.045257 15.545089 
L 636.723295 16.283023 
L 616.490228 17.203472 
L 596.352519 18.314583 
L 576.321355 19.612346 
L 556.40893 21.105292 
L 536.616368 22.794085 
L 516.966309 24.677493 
L 497.467435 26.764875 
L 478.124609 29.057684 
L 458.950738 31.553461 
L 439.970705 34.250459 
L 421.199281 37.156974 
L 402.644479 40.270097 
L 384.342055 43.576661 
L 366.333395 47.073604 
L 348.64996 50.762364 
L 331.319047 54.636923 
L 314.383231 58.681449 
L 297.891187 62.884246 
L 281.873218 67.238826 
L 266.370084 71.716144 
L 251.431016 76.290641 
L 237.096058 80.940075 
L 223.397012 85.640107 
L 210.359411 90.359899 
L 198.002996 95.077816 
L 186.32248 99.779592 
L 175.310193 104.441957 
L 164.946628 109.047909 
L 155.225761 113.578062 
L 146.114526 118.047947 
L 137.579967 122.444925 
L 129.601286 126.764889 
L 122.153697 131.007453 
L 115.225816 135.171027 
L 108.806527 139.25508 
L 102.872279 143.265013 
L 97.424915 147.165575 
L 92.455662 150.955157 
L 87.940449 154.634662 
L 83.839442 158.211835 
L 80.122472 161.667997 
L 76.723628 165.049604 
L 70.776157 171.435245 
L 68.192651 174.456072 
L 65.853428 177.374017 
L 63.757164 180.190591 
L 61.889484 182.944108 
L 60.226018 185.661755 
L 58.74982 188.333377 
L 57.441998 190.968991 
L 55.280944 196.078753 
L 54.420775 198.533044 
L 53.707062 200.909806 
L 53.152281 203.15444 
L 52.75786 205.434895 
L 52.493545 207.720877 
L 52.363636 209.892265 
L 52.367601 212.100724 
L 52.521481 214.319781 
L 52.841887 216.538656 
L 53.346987 218.749068 
L 54.063033 220.957506 
L 55.01793 223.175829 
L 56.22798 225.406463 
L 57.693307 227.639292 
L 59.407694 229.858019 
L 61.373179 232.049222 
L 63.60886 234.208032 
L 66.146806 236.339058 
L 69.0016 238.442622 
L 72.181179 240.512196 
L 75.724118 242.547411 
L 79.668051 244.558765 
L 84.008163 246.552786 
L 88.716196 248.515755 
L 93.807316 250.426596 
L 99.286155 252.288534 
L 105.109484 254.100314 
L 111.280179 255.857055 
L 117.823445 257.568583 
L 132.096082 260.948457 
L 139.805234 262.624186 
L 147.972275 264.269378 
L 165.965319 267.555775 
L 186.423615 270.881056 
L 197.744852 272.535847 
L 209.90164 274.181841 
L 222.953287 275.822361 
L 236.93986 277.449407 
L 251.885836 279.049804 
L 267.784029 280.609919 
L 284.607287 282.112858 
L 302.293885 283.54887 
L 320.787852 284.89025 
L 340.008337 286.141822 
L 359.850369 287.303315 
L 380.230885 288.362931 
L 422.317075 290.195081 
L 461.889573 291.534891 
L 461.729727 296.609194 
L 487.929729 297.379777 
L 532.773462 298.56361 
L 577.960241 299.446345 
L 692.988743 301.139954 
L 739.161916 301.599974 
L 881.190682 302.67497 
L 1099.636363 262.200975 
L 1099.636363 262.200975 
" clip-path="url(#pa42bd73c60)" style="fill: none; stroke: #ff0000; stroke-width: 0.72; stroke-linejoin: miter"/>
   </g>
   <g id="patch_4">
    <path d="M 655.624268 228.348616 
L 638.701537 228.348616 
L 638.701537 245.271347 
L 655.624268 245.271347 
L 655.624268 262.194078 
L 638.701537 262.194078 
" clip-path="url(#pa42bd73c60)" style="fill: none; stroke: #ff0000; stroke-width: 0.72; stroke-linejoin: miter"/>
   </g>
   <g id="patch_5">
    <path d="M 670.854726 228.348616 
L 664.085634 228.348616 
L 664.085634 262.194078 
L 670.854726 262.194078 
" clip-path="url(#pa42bd73c60)" style="fill: none; stroke: #ff0000; stroke-width: 0.72; stroke-linejoin: miter"/>
   </g>
   <g id="patch_6">
    <path d="M 674.239272 262.194078 
L 681.008365 262.194078 
L 681.008365 228.348616 
L 674.239272 228.348616 
" clip-path="url(#pa42bd73c60)" style="fill: none; stroke: #ff0000; stroke-width: 0.72; stroke-linejoin: miter"/>
   </g>
   <g id="patch_7">
    <path d="M 664.085634 245.271347 
L 670.854726 245.271347 
" clip-path="url(#pa42bd73c60)" style="fill: none; stroke: #ff0000; stroke-width: 0.72; stroke-linejoin: miter"/>
   </g>
   <g id="patch_8">
    <path d="M 674.239272 245.271347 
L 681.008365 245.271347 
" clip-path="url(#pa42bd73c60)" style="fill: none; stroke: #ff0000; stroke-width: 0.72; stroke-linejoin: miter"/>
   </g>
   <g id="patch_9">
    <path d="M 633.95809 29.961045 
L 620.433899 30.57645 
L 619.818494 17.052259 
L 633.342685 16.436854 
L 633.95809 29.961045 
" clip-path="url(#pa42bd73c60)" style="fill: none; stroke: #ff0000; stroke-width: 0.72; stroke-linejoin: miter"/>
   </g>
   <g id="patch_10">
    <path d="M 277.754749 82.520048 
L 264.748269 86.276898 
L 260.991419 73.270417 
L 273.997899 69.513568 
L 277.754749 82.520048 
" clip-path="url(#pa42bd73c60)" style="fill: none; stroke: #ff0000; stroke-width: 0.72; stroke-linejoin: miter"/>
   </g>
   <g id="patch_11">
    <path d="M 99.319294 167.165019 
L 94.220237 171.617012 
L 83.090256 158.869371 
L 88.189313 154.417379 
L 99.319294 167.165019 
" clip-path="url(#pa42bd73c60)" style="fill: none; stroke: #ff0000; stroke-width: 0.72; stroke-linejoin: miter"/>
   </g>
   <g id="patch_12">
    <path d="M 76.507644 222.951553 
L 81.966656 226.954027 
L 71.960471 240.601558 
L 66.501458 236.599084 
L 76.507644 222.951553 
" clip-path="url(#pa42bd73c60)" style="fill: none; stroke: #ff0000; stroke-width: 0.72; stroke-linejoin: miter"/>
   </g>
   <g id="patch_13">
    <path d="M 351.372615 273.245636 
L 364.887668 274.036692 
L 364.096612 287.551746 
L 350.581558 286.760689 
L 351.372615 273.245636 
" clip-path="url(#pa42bd73c60)" style="fill: none; stroke: #ff0000; stroke-width: 0.72; stroke-linejoin: miter"/>
   </g>
   <g id="patch_14">
    <path d="M 974.253637 157.436163 
L 974.142341 152.098862 
L 973.80865 146.770988 
L 973.253154 141.46195 
L 972.476832 136.181123 
L 971.481057 130.937835 
L 970.267586 125.741345 
L 968.838564 120.600831 
L 967.196514 115.525372 
L 965.344335 110.523931 
L 963.285299 105.605342 
L 961.023043 100.77829 
L 958.561562 96.051302 
L 955.905202 91.432725 
L 953.058656 86.930716 
L 950.02695 82.553226 
L 946.815439 78.307986 
L 943.429795 74.202494 
L 939.875997 70.244001 
L 936.160322 66.439496 
L 932.289331 62.795701 
L 928.269861 59.319049 
L 924.109011 56.015681 
L 919.814129 52.891431 
L 915.392801 49.951816 
L 910.852835 47.202029 
L 906.202249 44.646926 
L 901.449256 42.291019 
L 896.60225 40.138468 
L 891.669793 38.193077 
L 886.660595 36.458279 
L 881.583502 34.93714 
L 876.447481 33.632345 
L 871.261604 32.5462 
L 866.035028 31.680621 
L 860.776985 31.037139 
L 855.49676 30.616889 
L 850.203679 30.420613 
L 844.907091 30.448659 
L 839.616348 30.700976 
L 834.340796 31.177119 
L 829.089751 31.876247 
L 823.872487 32.797126 
L 818.698218 33.938129 
L 813.576083 35.297241 
L 808.515128 36.872062 
L 803.52429 38.659809 
L 798.612385 40.657327 
L 793.788086 42.861087 
L 789.059915 45.267197 
L 784.436221 47.871408 
L 779.925171 50.669121 
L 775.534731 53.655394 
L 771.272655 56.824953 
L 767.14647 60.172201 
L 763.163465 63.691226 
L 759.330672 67.375814 
L 755.654862 71.219456 
L 752.142525 75.215365 
L 748.799866 79.356483 
L 745.632787 83.635498 
L 742.646882 88.044851 
L 739.847424 92.576756 
L 737.239357 97.223208 
L 734.827288 101.976002 
L 732.615476 106.826744 
L 730.607828 111.766867 
L 728.807889 116.787646 
L 727.218838 121.880214 
L 725.843482 127.035577 
L 724.68425 132.24463 
L 723.743188 137.498174 
L 723.02196 142.78693 
L 722.521837 148.101558 
L 722.243705 153.432672 
L 722.188054 158.770856 
L 722.354983 164.106684 
L 722.744196 169.43073 
L 723.355006 174.733593 
L 724.186335 180.005907 
L 725.236714 185.238361 
L 726.504288 190.421713 
L 727.986819 195.546811 
L 729.681688 200.604601 
L 731.585902 205.586151 
L 733.696097 210.482665 
L 736.008548 215.285493 
L 738.519171 219.986154 
L 741.22353 224.576346 
L 744.11685 229.047962 
L 747.194022 233.393105 
L 750.44961 237.604102 
L 753.877865 241.673514 
L 757.472732 245.594155 
L 761.227862 249.359101 
L 765.136625 252.961703 
L 769.192115 256.395598 
L 773.387171 259.654721 
L 777.714385 262.733317 
L 782.166113 265.625948 
L 786.734493 268.327506 
L 791.411459 270.83322 
L 796.188748 273.138664 
L 801.057925 275.239767 
L 806.01039 277.132818 
L 811.037396 278.814473 
L 816.130066 280.281763 
L 821.279405 281.532097 
L 826.476319 282.563265 
L 831.711629 283.373448 
L 836.97609 283.961213 
L 842.260404 284.325524 
L 847.555239 284.465736 
L 852.851243 284.381603 
L 858.139063 284.073272 
L 863.409361 283.541288 
L 868.652828 282.786591 
L 873.860204 281.810513 
L 879.022293 280.614779 
L 884.129977 279.2015 
L 889.174236 277.573172 
L 894.146162 275.732671 
L 899.036973 273.683248 
L 903.838032 271.428521 
L 908.54086 268.972474 
L 913.137151 266.319443 
L 917.618788 263.474114 
L 921.977855 260.441512 
L 926.206655 257.226993 
L 930.297718 253.836235 
L 934.243819 250.275225 
L 938.037991 246.550253 
L 941.67353 242.667896 
L 945.144017 238.635013 
L 948.443323 234.458725 
L 951.565621 230.146409 
L 954.505396 225.705679 
L 957.257456 221.144379 
L 959.816942 216.470564 
L 962.179332 211.692489 
L 964.340456 206.818592 
L 966.296495 201.857482 
L 968.043995 196.817919 
L 969.57987 191.708805 
L 970.901408 186.539161 
L 972.006275 181.31812 
L 972.892519 176.0549 
L 973.558576 170.758798 
L 974.003268 165.439167 
L 974.22581 160.105402 
L 974.253637 157.436163 
L 974.253637 157.436163 
" clip-path="url(#pa42bd73c60)" style="fill: none; stroke: #ff0000; stroke-width: 0.72; stroke-linejoin: miter"/>
   </g>
   <g id="patch_15">
    <path d="M 400.832624 140.513432 
L 417.755355 157.436163 
L 400.832624 174.358894 
L 383.909893 157.436163 
L 400.832624 140.513432 
" clip-path="url(#pa42bd73c60)" style="fill: none; stroke: #ff0000; stroke-width: 0.72; stroke-linejoin: miter"/>
   </g>
   <g id="patch_16">
    <path d="M 841.989181 140.513432 
L 858.911912 157.436163 
L 841.989181 174.358894 
L 825.06645 157.436163 
L 841.989181 140.513432 
" clip-path="url(#pa42bd73c60)" style="fill: none; stroke: #ff0000; stroke-width: 0.72; stroke-linejoin: miter"/>
   </g>
   <g id="patch_17">
    <path d="M 267.971999 203.794844 
L 283.81441 221.732951 
L 265.876303 237.575362 
L 250.033892 219.637255 
L 267.971999 203.794844 
" clip-path="url(#pa42bd73c60)" style="fill: none; stroke: #ff0000; stroke-width: 0.72; stroke-linejoin: miter"/>
   </g>
   <g id="patch_18">
    <path d="M 508.514975 218.717793 
L 524.357386 236.6559 
L 506.419279 252.498311 
L 490.576869 234.560204 
L 508.514975 218.717793 
" clip-path="url(#pa42bd73c60)" style="fill: none; stroke: #ff0000; stroke-width: 0.72; stroke-linejoin: miter"/>
   </g>
   <g id="patch_19">
    <path d="M 560.53094 194.873075 
L 577.453671 177.950344 
L 594.376402 194.873075 
L 577.453671 211.795806 
L 560.53094 194.873075 
" clip-path="url(#pa42bd73c60)" style="fill: none; stroke: #ff0000; stroke-width: 0.72; stroke-linejoin: miter"/>
   </g>
   <g id="patch_20">
    <path d="M 560.53094 124.103288 
L 577.453671 107.180557 
L 594.376402 124.103288 
L 577.453671 141.026019 
L 560.53094 124.103288 
" clip-path="url(#pa42bd73c60)" style="fill: none; stroke: #ff0000; stroke-width: 0.72; stroke-linejoin: miter"/>
   </g>
   <g id="line2d_1">
    <path d="M 84.728702 157.436163 
L 1099.636364 157.436163 
" clip-path="url(#pa42bd73c60)" style="fill: none; stroke: #ffffff; stroke-width: 0.72; stroke-linecap: square"/>
   </g>
   <g id="line2d_2">
    <path d="M 380.525346 157.436163 
L 421.139901 157.436163 
" clip-path="url(#pa42bd73c60)" style="fill: none; stroke: #ffffff; stroke-width: 0.72; stroke-linecap: square"/>
   </g>
   <g id="line2d_3">
    <path d="M 821.681904 157.436163 
L 862.296458 157.436163 
" clip-path="url(#pa42bd73c60)" style="fill: none; stroke: #ffffff; stroke-width: 0.72; stroke-linecap: square"/>
   </g>
   <g id="line2d_4">
    <path d="M 52.532433 207.384542 
L 1058.619012 269.800741 
" clip-path="url(#pa42bd73c60)" style="fill: none; stroke: #ffffff; stroke-width: 0.72; stroke-linecap: square"/>
   </g>
   <g id="line2d_5">
    <path d="M 246.65584 219.427686 
L 287.192461 221.942521 
" clip-path="url(#pa42bd73c60)" style="fill: none; stroke: #ffffff; stroke-width: 0.72; stroke-linecap: square"/>
   </g>
   <g id="line2d_6">
    <path d="M 487.198817 234.350634 
L 527.735438 236.865469 
" clip-path="url(#pa42bd73c60)" style="fill: none; stroke: #ffffff; stroke-width: 0.72; stroke-linecap: square"/>
   </g>
   <g id="line2d_7">
    <path d="M 848.217367 30.404836 
L 848.217367 27.02029 
" clip-path="url(#pa42bd73c60)" style="fill: none; stroke: #ff0000; stroke-width: 0.72; stroke-linecap: square"/>
   </g>
   <g id="line2d_8">
    <path d="M 848.217367 284.467489 
L 848.217367 287.852036 
" clip-path="url(#pa42bd73c60)" style="fill: none; stroke: #ff0000; stroke-width: 0.72; stroke-linecap: square"/>
   </g>
   <g id="line2d_9">
    <path d="M 974.253637 157.436163 
L 977.638183 157.436163 
" clip-path="url(#pa42bd73c60)" style="fill: none; stroke: #ff0000; stroke-width: 0.72; stroke-linecap: square"/>
   </g>
   <g id="line2d_10">
    <path d="M 722.181097 157.436163 
L 718.796551 157.436163 
" clip-path="url(#pa42bd73c60)" style="fill: none; stroke: #ff0000; stroke-width: 0.72; stroke-linecap: square"/>
   </g>
   <g id="line2d_11">
    <path d="M 577.453671 299.437376 
L 577.453671 19.538986 
" clip-path="url(#pa42bd73c60)" style="fill: none; stroke: #ffffff; stroke-width: 0.72; stroke-linecap: square"/>
   </g>
   <g id="line2d_12">
    <path d="M 577.453671 215.180352 
L 577.453671 174.565798 
" clip-path="url(#pa42bd73c60)" style="fill: none; stroke: #ffffff; stroke-width: 0.72; stroke-linecap: square"/>
   </g>
   <g id="line2d_13">
    <path d="M 577.453671 144.410565 
L 577.453671 103.796011 
" clip-path="url(#pa42bd73c60)" style="fill: none; stroke: #ffffff; stroke-width: 0.72; stroke-linecap: square"/>
   </g>
  </g>
 </g>
 <defs>
  <clipPath id="pa42bd73c60">
   <rect x="0" y="0" width="1152" height="317.088064"/>
  </clipPath>
 </defs>
</svg>
