<?xml version="1.0" encoding="utf-8" standalone="no"?>
<!DOCTYPE svg PUBLIC "-//W3C//DTD SVG 1.1//EN"
  "http://www.w3.org/Graphics/SVG/1.1/DTD/svg11.dtd">
<svg xmlns:xlink="http://www.w3.org/1999/xlink" width="1152pt" height="318.107578pt" viewBox="0 0 1152 318.107578" xmlns="http://www.w3.org/2000/svg" version="1.1">
 <metadata>
  <rdf:RDF xmlns:dc="http://purl.org/dc/elements/1.1/" xmlns:cc="http://creativecommons.org/ns#" xmlns:rdf="http://www.w3.org/1999/02/22-rdf-syntax-ns#">
   <cc:Work>
    <dc:type rdf:resource="http://purl.org/dc/dcmitype/StillImage"/>
    <dc:date>2026-01-07T02:07:22.718272</dc:date>
    <dc:format>image/svg+xml</dc:format>
    <dc:creator>
     <cc:Agent>
      <dc:title>Matplotlib v3.10.1, https://matplotlib.org/</dc:title>
     </cc:Agent>
    </dc:creator>
   </cc:Work>
  </rdf:RDF>
 </metadata>
 <defs>
  <style type="text/css">*{stroke-linejoin: round; stroke-linecap: butt}</style>
 </defs>
 <g id="figure_1">
  <g id="patch_1">
   <path d="M 0 318.107578 
L 1152 318.107578 
L 1152 0 
L 0 0 
z
" style="fill: #ffffff"/>
  </g>
  <g id="axes_1">
   <g id="patch_2">
    <path d="M 0 318.107578 
L 1152 318.107578 
L 1152 0 
L 0 0 
z
" style="fill: #212830"/>
   </g>
   <g id="patch_3">
    <path d="M 1099.184858 302.801046 
L 1090.775454 300.169327 
L 1077.072506 295.876173 
L 1062.12685 291.177358 
L 1046.037855 286.150747 
L 1028.841652 280.822589 
L 1010.67605 275.158498 
L 991.716064 269.177819 
L 972.129324 262.931255 
L 952.06009 256.454977 
L 931.618114 249.784527 
L 910.882904 242.961658 
L 889.938367 236.016815 
L 868.837216 228.960405 
L 847.605653 221.811679 
L 826.280433 214.610909 
L 804.902685 207.390383 
L 783.525191 200.153202 
L 762.161078 192.920585 
L 740.839609 185.716654 
L 719.589238 178.555752 
L 698.418017 171.444526 
L 677.325751 164.391828 
L 656.318494 157.425335 
L 635.391331 150.541462 
L 614.543915 143.740113 
L 593.779874 137.046668 
L 580.718902 132.892176 
L 579.671647 136.184555 
L 572.061622 133.76388 
L 551.478237 127.308827 
L 530.976241 120.990338 
L 510.529819 114.809618 
L 490.142945 108.766475 
L 469.797453 102.869746 
L 449.479724 97.112464 
L 429.193827 91.49751 
L 408.932828 86.034136 
L 388.676986 80.723656 
L 368.414702 75.560706 
L 348.141738 70.540725 
L 327.866148 65.661853 
L 307.587974 60.933026 
L 287.295343 56.35462 
L 266.986824 51.927552 
L 246.649673 47.647883 
L 226.30584 43.509041 
L 205.950124 39.53183 
L 185.555684 35.70709 
L 165.136157 32.023815 
L 144.706038 28.487094 
L 124.259479 25.105203 
L 103.789167 21.876765 
L 83.294639 18.798718 
L 62.778874 15.869252 
L 52.363636 14.459435 
L 52.363636 274.033812 
L 63.74123 274.03792 
L 86.421282 274.039468 
L 109.058157 274.031346 
L 131.668067 274.01186 
L 154.269981 273.988518 
L 176.832633 273.983767 
L 199.383226 274.003113 
L 221.945915 274.02934 
L 244.500171 274.047259 
L 266.988145 274.077275 
L 289.385341 274.151826 
L 311.733849 274.268801 
L 334.043779 274.380229 
L 356.289166 274.432876 
L 378.538976 274.421088 
L 400.816834 274.399054 
L 423.091023 274.426941 
L 445.402646 274.518565 
L 467.770307 274.640847 
L 490.11969 274.765745 
L 512.370281 274.904587 
L 534.530115 275.106076 
L 556.693164 275.405109 
L 578.933811 275.768398 
L 601.211818 276.140889 
L 623.431906 276.515296 
L 645.526863 276.940263 
L 667.559334 277.457278 
L 689.624182 278.063216 
L 711.739927 278.71795 
L 733.812452 279.385244 
L 755.727543 280.084306 
L 777.470749 280.881965 
L 799.160674 281.81356 
L 820.90336 282.838265 
L 842.672455 283.899331 
L 864.319055 284.992722 
L 885.746674 286.150986 
L 906.957745 287.404753 
L 927.941578 288.734379 
L 948.624273 290.134069 
L 968.91327 291.594381 
L 988.697882 293.117414 
L 1007.895939 294.724712 
L 1026.44669 296.401367 
L 1044.212115 298.071542 
L 1060.984073 299.680503 
L 1076.57473 301.228211 
L 1090.868485 302.710549 
L 1099.636364 303.648142 
L 1099.184858 302.801046 
" clip-path="url(#p1812dd47b4)" style="fill: none; stroke: #ff0000; stroke-width: 0.72; stroke-linejoin: miter"/>
   </g>
   <g id="patch_4">
    <path d="M 499.332527 201.81526 
L 492.422679 201.81526 
" clip-path="url(#p1812dd47b4)" style="fill: none; stroke: #ff0000; stroke-width: 0.72; stroke-linejoin: miter"/>
   </g>
   <g id="patch_5">
    <path d="M 488.967755 201.81526 
L 482.057908 201.81526 
L 482.057908 236.364499 
L 488.967755 236.364499 
" clip-path="url(#p1812dd47b4)" style="fill: none; stroke: #ff0000; stroke-width: 0.72; stroke-linejoin: miter"/>
   </g>
   <g id="patch_6">
    <path d="M 492.422679 236.364499 
L 499.332527 236.364499 
L 499.332527 219.08988 
L 492.422679 219.08988 
" clip-path="url(#p1812dd47b4)" style="fill: none; stroke: #ff0000; stroke-width: 0.72; stroke-linejoin: miter"/>
   </g>
   <g id="patch_7">
    <path d="M 488.967755 219.08988 
L 482.057908 219.08988 
" clip-path="url(#p1812dd47b4)" style="fill: none; stroke: #ff0000; stroke-width: 0.72; stroke-linejoin: miter"/>
   </g>
   <g id="patch_8">
    <path d="M 516.607146 201.81526 
L 516.607146 236.364499 
" clip-path="url(#p1812dd47b4)" style="fill: none; stroke: #ff0000; stroke-width: 0.72; stroke-linejoin: miter"/>
   </g>
   <g id="patch_9">
    <path d="M 375.380816 91.597043 
L 361.989003 88.18481 
L 365.401235 74.792997 
L 378.793048 78.20523 
L 375.380816 91.597043 
" clip-path="url(#p1812dd47b4)" style="fill: none; stroke: #ff0000; stroke-width: 0.72; stroke-linejoin: miter"/>
   </g>
   <g id="patch_10">
    <path d="M 242.26047 113.579991 
L 259.535089 130.85461 
L 242.26047 148.12923 
L 224.985851 130.85461 
L 242.26047 113.579991 
" clip-path="url(#p1812dd47b4)" style="fill: none; stroke: #ff0000; stroke-width: 0.72; stroke-linejoin: miter"/>
   </g>
   <g id="patch_11">
    <path d="M 231.005388 188.193734 
L 248.280008 170.919114 
L 265.554627 188.193734 
L 248.280008 205.468353 
L 231.005388 188.193734 
" clip-path="url(#p1812dd47b4)" style="fill: none; stroke: #ff0000; stroke-width: 0.72; stroke-linejoin: miter"/>
   </g>
   <g id="patch_12">
    <path d="M 231.005388 133.849535 
L 248.280008 116.574915 
L 265.554627 133.849535 
L 248.280008 151.124154 
L 231.005388 133.849535 
" clip-path="url(#p1812dd47b4)" style="fill: none; stroke: #ff0000; stroke-width: 0.72; stroke-linejoin: miter"/>
   </g>
   <g id="line2d_1">
    <path d="M 1033.399926 282.234947 
L 1032.420004 285.54799 
" clip-path="url(#p1812dd47b4)" style="fill: none; stroke: #ff0000; stroke-width: 0.72; stroke-linecap: square"/>
   </g>
   <g id="line2d_2">
    <path d="M 1030.996992 293.359753 
L 1030.745598 296.805519 
" clip-path="url(#p1812dd47b4)" style="fill: none; stroke: #ff0000; stroke-width: 0.72; stroke-linecap: square"/>
   </g>
   <g id="line2d_3">
    <path d="M 967.499668 261.43728 
L 966.489765 264.741307 
" clip-path="url(#p1812dd47b4)" style="fill: none; stroke: #ff0000; stroke-width: 0.72; stroke-linecap: square"/>
   </g>
   <g id="line2d_4">
    <path d="M 962.150734 287.643844 
L 961.882108 291.088309 
" clip-path="url(#p1812dd47b4)" style="fill: none; stroke: #ff0000; stroke-width: 0.72; stroke-linecap: square"/>
   </g>
   <g id="line2d_5">
    <path d="M 705.344087 173.770932 
L 704.2769 177.056903 
" clip-path="url(#p1812dd47b4)" style="fill: none; stroke: #ff0000; stroke-width: 0.72; stroke-linecap: square"/>
   </g>
   <g id="line2d_6">
    <path d="M 685.956964 274.507854 
L 685.757995 277.957044 
" clip-path="url(#p1812dd47b4)" style="fill: none; stroke: #ff0000; stroke-width: 0.72; stroke-linecap: square"/>
   </g>
   <g id="line2d_7">
    <path d="M 52.363636 130.85461 
L 562.784763 130.85461 
" clip-path="url(#p1812dd47b4)" style="fill: none; stroke: #ffffff; stroke-width: 0.72; stroke-linecap: square"/>
   </g>
   <g id="line2d_8">
    <path d="M 221.530927 130.85461 
L 262.990013 130.85461 
" clip-path="url(#p1812dd47b4)" style="fill: none; stroke: #ffffff; stroke-width: 0.72; stroke-linecap: square"/>
   </g>
   <g id="line2d_9">
    <path d="M 52.363636 240.162738 
L 1095.265767 301.574569 
" clip-path="url(#p1812dd47b4)" style="fill: none; stroke: #ffffff; stroke-width: 0.72; stroke-linecap: square"/>
   </g>
   <g id="line2d_10">
    <path d="M 248.280008 274.052304 
L 248.280008 47.990964 
" clip-path="url(#p1812dd47b4)" style="fill: none; stroke: #ffffff; stroke-width: 0.72; stroke-linecap: square"/>
   </g>
   <g id="line2d_11">
    <path d="M 248.280008 208.923277 
L 248.280008 167.46419 
" clip-path="url(#p1812dd47b4)" style="fill: none; stroke: #ffffff; stroke-width: 0.72; stroke-linecap: square"/>
   </g>
   <g id="line2d_12">
    <path d="M 248.280008 154.579078 
L 248.280008 113.119991 
" clip-path="url(#p1812dd47b4)" style="fill: none; stroke: #ffffff; stroke-width: 0.72; stroke-linecap: square"/>
   </g>
  </g>
 </g>
 <defs>
  <clipPath id="p1812dd47b4">
   <rect x="0" y="0" width="1152" height="318.107578"/>
  </clipPath>
 </defs>
</svg>
