<?xml version="1.0" encoding="utf-8" standalone="no"?>
<!DOCTYPE svg PUBLIC "-//W3C//DTD SVG 1.1//EN"
  "http://www.w3.org/Graphics/SVG/1.1/DTD/svg11.dtd">
<svg xmlns:xlink="http://www.w3.org/1999/xlink" width="1152pt" height="201.090666pt" viewBox="0 0 1152 201.090666" xmlns="http://www.w3.org/2000/svg" version="1.1">
 <metadata>
  <rdf:RDF xmlns:dc="http://purl.org/dc/elements/1.1/" xmlns:cc="http://creativecommons.org/ns#" xmlns:rdf="http://www.w3.org/1999/02/22-rdf-syntax-ns#">
   <cc:Work>
    <dc:type rdf:resource="http://purl.org/dc/dcmitype/StillImage"/>
    <dc:date>2026-01-07T02:07:24.303421</dc:date>
    <dc:format>image/svg+xml</dc:format>
    <dc:creator>
     <cc:Agent>
      <dc:title>Matplotlib v3.10.1, https://matplotlib.org/</dc:title>
     </cc:Agent>
    </dc:creator>
   </cc:Work>
  </rdf:RDF>
 </metadata>
 <defs>
  <style type="text/css">*{stroke-linejoin: round; stroke-linecap: butt}</style>
 </defs>
 <g id="figure_1">
  <g id="patch_1">
   <path d="M 0 201.090666 
L 1152 201.090666 
L 1152 0 
L 0 0 
z
" style="fill: #ffffff"/>
  </g>
  <g id="axes_1">
   <g id="patch_2">
    <path d="M 0 201.090666 
L 1152 201.090666 
L 1152 0 
L 0 0 
z
" style="fill: #212830"/>
   </g>
   <g id="patch_3">
    <path d="M 1099.636364 99.496043 
L 1078.120487 93.546068 
L 1052.939709 86.799773 
L 1027.75477 80.285357 
L 1002.583853 74.057956 
L 977.330111 68.102379 
L 952.046679 62.387565 
L 926.746636 56.96734 
L 901.374517 51.81406 
L 875.987332 46.982568 
L 850.513388 42.407183 
L 825.02727 38.134213 
L 799.456464 34.15086 
L 773.855818 30.43621 
L 748.184181 27.001707 
L 722.51246 23.83705 
L 696.82356 20.979581 
L 671.083041 18.391968 
L 645.350349 16.113182 
L 619.640618 14.133199 
L 593.917868 12.476222 
L 568.195441 11.140583 
L 542.522557 10.113766 
L 516.874477 9.463028 
L 504.079098 9.25284 
L 478.488364 9.140485 
L 452.980304 9.38041 
L 440.272777 9.645748 
L 414.902736 10.508616 
L 389.612164 11.77838 
L 377.025068 12.575002 
L 364.46216 13.48682 
L 339.439413 15.635774 
L 327.025583 16.865005 
L 314.693647 18.227381 
L 302.408818 19.73296 
L 290.200212 21.355649 
L 278.073954 23.120943 
L 266.024923 25.029368 
L 254.042507 27.082085 
L 242.157254 29.249432 
L 230.419818 31.547332 
L 218.823141 33.999284 
L 207.378788 36.611746 
L 196.077807 39.395347 
L 184.949116 42.350877 
L 173.964993 45.498573 
L 163.196457 48.788403 
L 152.663065 52.287173 
L 142.382776 55.960951 
L 132.434938 59.816516 
L 122.85335 63.850852 
L 113.747722 68.019859 
L 105.232359 72.282708 
L 97.372601 76.623537 
L 90.289443 80.874798 
L 84.062883 84.985616 
L 78.681923 88.900018 
L 74.082464 92.574447 
L 70.232259 95.91045 
L 66.982417 99.098471 
L 64.24751 101.977844 
L 61.994852 104.601362 
L 60.127118 107.087284 
L 58.564443 109.44009 
L 57.272016 111.600155 
L 55.296673 115.6331 
L 53.934558 119.119818 
L 53.050977 122.22538 
L 52.522293 125.069411 
L 52.363636 126.221555 
L 52.503725 130.154855 
L 52.652075 131.486192 
L 52.940019 132.876104 
L 53.406859 134.356278 
L 54.066429 135.91633 
L 54.93654 137.548082 
L 56.04602 139.252061 
L 57.4208 141.024166 
L 59.083363 142.85284 
L 61.075495 144.72853 
L 63.45978 146.644363 
L 66.329011 148.604833 
L 69.774469 150.630598 
L 73.82557 152.741178 
L 78.526498 154.915952 
L 84.052223 157.099874 
L 90.549402 159.289279 
L 98.014171 161.519979 
L 106.321376 163.755051 
L 115.422372 165.859724 
L 125.229713 167.847228 
L 135.4869 169.71411 
L 146.092949 171.388714 
L 157.034888 172.863437 
L 179.778478 175.538411 
L 191.219469 176.775602 
L 202.743111 177.812426 
L 238.344653 180.50065 
L 262.366578 182.005309 
L 286.839849 183.177282 
L 326.039956 184.731121 
L 325.920106 188.344128 
L 349.552121 189.112223 
L 388.182332 190.022809 
L 427.46049 190.760088 
L 466.999468 191.263046 
L 533.375048 191.731187 
L 586.610016 191.92098 
L 605.865421 191.950181 
L 1099.636364 99.496043 
L 1099.636364 99.496043 
" clip-path="url(#pd2b2b16efa)" style="fill: none; stroke: #ff0000; stroke-width: 0.72; stroke-linejoin: miter"/>
   </g>
   <g id="patch_4">
    <path d="M 964.026402 74.940134 
L 954.618133 72.839241 
L 956.719026 63.430972 
L 966.127295 65.531864 
L 964.026402 74.940134 
" clip-path="url(#pd2b2b16efa)" style="fill: none; stroke: #ff0000; stroke-width: 0.72; stroke-linejoin: miter"/>
   </g>
   <g id="patch_5">
    <path d="M 437.794181 19.364308 
L 428.15852 19.652966 
L 427.869862 10.017305 
L 437.505523 9.728647 
L 437.794181 19.364308 
" clip-path="url(#pd2b2b16efa)" style="fill: none; stroke: #ff0000; stroke-width: 0.72; stroke-linejoin: miter"/>
   </g>
   <g id="patch_6">
    <path d="M 201.112875 48.032136 
L 191.796012 50.507079 
L 189.321069 41.190216 
L 198.637932 38.715272 
L 201.112875 48.032136 
" clip-path="url(#pd2b2b16efa)" style="fill: none; stroke: #ff0000; stroke-width: 0.72; stroke-linejoin: miter"/>
   </g>
   <g id="patch_7">
    <path d="M 83.557907 100.304771 
L 79.91927 103.465885 
L 72.016485 94.369293 
L 75.655122 91.208179 
L 83.557907 100.304771 
" clip-path="url(#pd2b2b16efa)" style="fill: none; stroke: #ff0000; stroke-width: 0.72; stroke-linejoin: miter"/>
   </g>
   <g id="patch_8">
    <path d="M 68.450017 135.465929 
L 72.436017 138.175933 
L 65.661006 148.140934 
L 61.675006 145.430929 
L 68.450017 135.465929 
" clip-path="url(#pd2b2b16efa)" style="fill: none; stroke: #ff0000; stroke-width: 0.72; stroke-linejoin: miter"/>
   </g>
   <g id="patch_9">
    <path d="M 251.998771 171.742871 
L 261.622335 172.30527 
L 261.059937 181.928834 
L 251.436372 181.366436 
L 251.998771 171.742871 
" clip-path="url(#pd2b2b16efa)" style="fill: none; stroke: #ff0000; stroke-width: 0.72; stroke-linejoin: miter"/>
   </g>
   <g id="patch_10">
    <path d="M 650.433908 100.174891 
L 650.298358 95.831367 
L 649.892246 91.5051 
L 649.217187 87.213277 
L 648.275861 82.972951 
L 647.072009 78.800968 
L 645.610413 74.713902 
L 643.896881 70.727993 
L 641.93822 66.859075 
L 639.742213 63.122521 
L 637.317583 59.533175 
L 634.673963 56.105297 
L 631.821858 52.852507 
L 628.772598 49.787727 
L 625.538297 46.923135 
L 622.131806 44.27011 
L 618.566659 41.839194 
L 614.857019 39.640044 
L 611.017625 37.681398 
L 607.063731 35.971037 
L 603.011046 34.515757 
L 598.87567 33.321338 
L 594.674034 32.392528 
L 590.422831 31.733015 
L 586.13895 31.34542 
L 581.839411 31.231283 
L 577.541297 31.391057 
L 573.261683 31.824108 
L 569.017572 32.528715 
L 564.825826 33.502078 
L 560.7031 34.740332 
L 556.665771 36.238555 
L 552.729881 37.990795 
L 548.911067 39.990092 
L 545.224501 42.228502 
L 541.684828 44.697131 
L 538.306114 47.386172 
L 535.10178 50.284941 
L 532.084558 53.381922 
L 529.266436 56.664811 
L 526.658608 60.120563 
L 524.271437 63.735451 
L 522.114406 67.495112 
L 520.196086 71.384609 
L 518.524097 75.388489 
L 517.105083 79.490845 
L 515.944681 83.675378 
L 515.047502 87.925463 
L 514.417109 92.224215 
L 514.056008 96.554555 
L 513.965633 100.899278 
L 514.146343 105.241123 
L 514.59742 109.562841 
L 515.317073 113.84726 
L 516.302441 118.077359 
L 517.549611 122.236332 
L 519.053626 126.307655 
L 520.808512 130.275154 
L 522.807297 134.123065 
L 525.042039 137.836101 
L 527.503861 141.399509 
L 530.18298 144.799133 
L 533.068753 148.021466 
L 536.149715 151.053706 
L 539.413626 153.883805 
L 542.847517 156.50052 
L 546.437746 158.893455 
L 550.17005 161.053102 
L 554.029599 162.970882 
L 558.001061 164.639174 
L 562.068656 166.051351 
L 566.216224 167.201803 
L 570.427286 168.085958 
L 574.685113 168.700304 
L 578.972788 169.042401 
L 583.273276 169.110888 
L 587.569492 168.905494 
L 591.844367 168.427035 
L 596.080916 167.677412 
L 600.262308 166.659603 
L 604.371931 165.377652 
L 608.393457 163.836651 
L 612.310908 162.042724 
L 616.108722 160.002998 
L 619.771808 157.725576 
L 623.285614 155.219506 
L 626.636179 152.494745 
L 629.810192 149.562119 
L 632.795042 146.433278 
L 635.578871 143.120654 
L 638.150619 139.637408 
L 640.500068 135.997377 
L 642.617883 132.215025 
L 644.495651 128.305378 
L 646.125912 124.28397 
L 647.502188 120.166776 
L 648.619012 115.970155 
L 649.471946 111.710781 
L 650.057602 107.405574 
L 650.373652 103.07164 
L 650.433908 100.174891 
L 650.433908 100.174891 
" clip-path="url(#pd2b2b16efa)" style="fill: none; stroke: #ff0000; stroke-width: 0.72; stroke-linejoin: miter"/>
   </g>
   <g id="line2d_1">
    <path d="M 65.960004 100.174891 
L 1096.010831 100.174891 
" clip-path="url(#pd2b2b16efa)" style="fill: none; stroke: #ffffff; stroke-width: 0.72; stroke-linecap: square"/>
   </g>
   <g id="line2d_2">
    <path d="M 266.909178 100.174891 
L 295.829129 100.174891 
" clip-path="url(#pd2b2b16efa)" style="fill: none; stroke: #ffffff; stroke-width: 0.72; stroke-linecap: square"/>
   </g>
   <g id="patch_11">
    <path d="M 281.369154 88.124911 
L 293.419133 100.174891 
L 281.369154 112.22487 
L 269.319174 100.174891 
L 281.369154 88.124911 
" clip-path="url(#pd2b2b16efa)" style="fill: none; stroke: #ff0000; stroke-width: 0.72; stroke-linejoin: miter"/>
   </g>
   <g id="line2d_3">
    <path d="M 566.525442 100.174891 
L 595.445393 100.174891 
" clip-path="url(#pd2b2b16efa)" style="fill: none; stroke: #ffffff; stroke-width: 0.72; stroke-linecap: square"/>
   </g>
   <g id="patch_12">
    <path d="M 580.985418 88.124911 
L 593.035397 100.174891 
L 580.985418 112.22487 
L 568.935438 100.174891 
L 580.985418 88.124911 
" clip-path="url(#pd2b2b16efa)" style="fill: none; stroke: #ff0000; stroke-width: 0.72; stroke-linejoin: miter"/>
   </g>
   <g id="line2d_4">
    <path d="M 866.141706 100.174891 
L 895.061657 100.174891 
" clip-path="url(#pd2b2b16efa)" style="fill: none; stroke: #ffffff; stroke-width: 0.72; stroke-linecap: square"/>
   </g>
   <g id="patch_13">
    <path d="M 880.601682 88.124911 
L 892.651661 100.174891 
L 880.601682 112.22487 
L 868.551702 100.174891 
L 880.601682 88.124911 
" clip-path="url(#pd2b2b16efa)" style="fill: none; stroke: #ff0000; stroke-width: 0.72; stroke-linejoin: miter"/>
   </g>
   <g id="line2d_5">
    <path d="M 52.46176 125.508995 
L 777.437777 159.824811 
" clip-path="url(#pd2b2b16efa)" style="fill: none; stroke: #ffffff; stroke-width: 0.72; stroke-linecap: square"/>
   </g>
   <g id="line2d_6">
    <path d="M 192.401632 132.132871 
L 221.28924 133.500229 
" clip-path="url(#pd2b2b16efa)" style="fill: none; stroke: #ffffff; stroke-width: 0.72; stroke-linecap: square"/>
   </g>
   <g id="patch_14">
    <path d="M 207.415168 120.780047 
L 218.881939 133.386282 
L 206.275703 144.853053 
L 194.808933 132.246817 
L 207.415168 120.780047 
" clip-path="url(#pd2b2b16efa)" style="fill: none; stroke: #ff0000; stroke-width: 0.72; stroke-linejoin: miter"/>
   </g>
   <g id="line2d_7">
    <path d="M 365.821909 140.341499 
L 394.709517 141.708857 
" clip-path="url(#pd2b2b16efa)" style="fill: none; stroke: #ffffff; stroke-width: 0.72; stroke-linecap: square"/>
   </g>
   <g id="patch_15">
    <path d="M 380.835446 128.988675 
L 392.302216 141.59491 
L 379.69598 153.061681 
L 368.22921 140.455445 
L 380.835446 128.988675 
" clip-path="url(#pd2b2b16efa)" style="fill: none; stroke: #ff0000; stroke-width: 0.72; stroke-linejoin: miter"/>
   </g>
   <g id="line2d_8">
    <path d="M 582.197887 31.230331 
L 582.197887 28.820335 
" clip-path="url(#pd2b2b16efa)" style="fill: none; stroke: #ff0000; stroke-width: 0.72; stroke-linecap: square"/>
   </g>
   <g id="line2d_9">
    <path d="M 582.197887 169.11945 
L 582.197887 171.529446 
" clip-path="url(#pd2b2b16efa)" style="fill: none; stroke: #ff0000; stroke-width: 0.72; stroke-linecap: square"/>
   </g>
   <g id="line2d_10">
    <path d="M 650.433908 100.174891 
L 652.843904 100.174891 
" clip-path="url(#pd2b2b16efa)" style="fill: none; stroke: #ff0000; stroke-width: 0.72; stroke-linecap: square"/>
   </g>
   <g id="line2d_11">
    <path d="M 513.961867 100.174891 
L 511.551871 100.174891 
" clip-path="url(#pd2b2b16efa)" style="fill: none; stroke: #ff0000; stroke-width: 0.72; stroke-linecap: square"/>
   </g>
   <g id="line2d_12">
    <path d="M 389.398217 190.047598 
L 389.398217 11.79192 
" clip-path="url(#pd2b2b16efa)" style="fill: none; stroke: #ffffff; stroke-width: 0.72; stroke-linecap: square"/>
   </g>
   <g id="line2d_13">
    <path d="M 389.398217 137.418594 
L 389.398217 108.498644 
" clip-path="url(#pd2b2b16efa)" style="fill: none; stroke: #ffffff; stroke-width: 0.72; stroke-linecap: square"/>
   </g>
   <g id="patch_16">
    <path d="M 377.348238 122.958619 
L 389.398217 110.90864 
L 401.448196 122.958619 
L 389.398217 135.008598 
L 377.348238 122.958619 
" clip-path="url(#pd2b2b16efa)" style="fill: none; stroke: #ff0000; stroke-width: 0.72; stroke-linejoin: miter"/>
   </g>
   <g id="line2d_14">
    <path d="M 389.398217 93.340875 
L 389.398217 64.420924 
" clip-path="url(#pd2b2b16efa)" style="fill: none; stroke: #ffffff; stroke-width: 0.72; stroke-linecap: square"/>
   </g>
   <g id="patch_17">
    <path d="M 377.348238 78.8809 
L 389.398217 66.83092 
L 401.448196 78.8809 
L 389.398217 90.930879 
L 377.348238 78.8809 
" clip-path="url(#pd2b2b16efa)" style="fill: none; stroke: #ff0000; stroke-width: 0.72; stroke-linejoin: miter"/>
   </g>
   <g id="line2d_15">
    <path d="M 895.497351 137.719225 
L 895.497351 50.675128 
" clip-path="url(#pd2b2b16efa)" style="fill: none; stroke: #ffffff; stroke-width: 0.72; stroke-linecap: square"/>
   </g>
   <g id="line2d_16">
    <path d="M 895.497351 117.014274 
L 895.497351 88.094324 
" clip-path="url(#pd2b2b16efa)" style="fill: none; stroke: #ffffff; stroke-width: 0.72; stroke-linecap: square"/>
   </g>
   <g id="patch_18">
    <path d="M 883.447372 102.554299 
L 895.497351 90.504319 
L 907.547331 102.554299 
L 895.497351 114.604278 
L 883.447372 102.554299 
" clip-path="url(#pd2b2b16efa)" style="fill: none; stroke: #ff0000; stroke-width: 0.72; stroke-linejoin: miter"/>
   </g>
   <g id="line2d_17">
    <path d="M 895.497351 100.300029 
L 895.497351 71.380078 
" clip-path="url(#pd2b2b16efa)" style="fill: none; stroke: #ffffff; stroke-width: 0.72; stroke-linecap: square"/>
   </g>
   <g id="patch_19">
    <path d="M 883.447372 85.840054 
L 895.497351 73.790074 
L 907.547331 85.840054 
L 895.497351 97.890033 
L 883.447372 85.840054 
" clip-path="url(#pd2b2b16efa)" style="fill: none; stroke: #ff0000; stroke-width: 0.72; stroke-linejoin: miter"/>
   </g>
   <g id="patch_20">
    <path d="M 442.296521 158.075595 
L 442.296521 146.025615 
L 454.3465 146.025615 
L 454.3465 170.125574 
" clip-path="url(#pd2b2b16efa)" style="fill: none; stroke: #ff0000; stroke-width: 0.72; stroke-linejoin: miter"/>
   </g>
   <g id="patch_21">
    <path d="M 460.37149 146.025615 
L 472.42147 146.025615 
L 472.42147 158.075595 
L 460.37149 158.075595 
L 460.37149 170.125574 
L 472.42147 170.125574 
" clip-path="url(#pd2b2b16efa)" style="fill: none; stroke: #ff0000; stroke-width: 0.72; stroke-linejoin: miter"/>
   </g>
  </g>
 </g>
 <defs>
  <clipPath id="pd2b2b16efa">
   <rect x="0" y="0" width="1152" height="201.090666"/>
  </clipPath>
 </defs>
</svg>
