<?xml version="1.0" encoding="utf-8" standalone="no"?>
<!DOCTYPE svg PUBLIC "-//W3C//DTD SVG 1.1//EN"
  "http://www.w3.org/Graphics/SVG/1.1/DTD/svg11.dtd">
<svg xmlns:xlink="http://www.w3.org/1999/xlink" width="1152pt" height="184.021944pt" viewBox="0 0 1152 184.021944" xmlns="http://www.w3.org/2000/svg" version="1.1">
 <metadata>
  <rdf:RDF xmlns:dc="http://purl.org/dc/elements/1.1/" xmlns:cc="http://creativecommons.org/ns#" xmlns:rdf="http://www.w3.org/1999/02/22-rdf-syntax-ns#">
   <cc:Work>
    <dc:type rdf:resource="http://purl.org/dc/dcmitype/StillImage"/>
    <dc:date>2026-01-07T02:07:19.789560</dc:date>
    <dc:format>image/svg+xml</dc:format>
    <dc:creator>
     <cc:Agent>
      <dc:title>Matplotlib v3.10.1, https://matplotlib.org/</dc:title>
     </cc:Agent>
    </dc:creator>
   </cc:Work>
  </rdf:RDF>
 </metadata>
 <defs>
  <style type="text/css">*{stroke-linejoin: round; stroke-linecap: butt}</style>
 </defs>
 <g id="figure_1">
  <g id="patch_1">
   <path d="M 0 184.021944 
L 1152 184.021944 
L 1152 0 
L 0 0 
z
" style="fill: #ffffff"/>
  </g>
  <g id="axes_1">
   <g id="patch_2">
    <path d="M 0 184.021944 
L 1152 184.021944 
L 1152 0 
L 0 0 
z
" style="fill: #212830"/>
   </g>
   <g id="patch_3">
    <path d="M 1099.411696 175.038121 
L 1082.03353 168.817322 
L 1066.007041 163.2883 
L 1037.623851 153.545525 
L 1006.169429 142.488505 
L 962.135373 126.714555 
L 906.490497 106.763621 
L 873.598718 95.203819 
L 851.9512 87.77151 
L 841.800057 84.349211 
L 841.310713 85.800692 
L 830.057339 82.057784 
L 808.872223 75.19551 
L 787.862041 68.65361 
L 766.976135 62.446218 
L 746.164922 56.573154 
L 725.389709 51.039265 
L 704.617509 45.840239 
L 683.829483 40.980017 
L 663.007019 36.454304 
L 642.146434 32.266946 
L 621.238058 28.41516 
L 600.28805 24.902328 
L 579.293084 21.72757 
L 558.256552 18.8965 
L 537.151464 16.4041 
L 515.995162 14.243497 
L 494.794625 12.416578 
L 473.584212 10.919272 
L 452.387255 9.761277 
L 431.235884 8.942706 
L 410.153152 8.476622 
L 389.166062 8.364634 
L 368.300732 8.621267 
L 347.585703 9.249634 
L 327.053023 10.265375 
L 306.73908 11.672408 
L 286.683993 13.487028 
L 276.768234 14.547234 
L 266.938234 15.712472 
L 257.196801 16.985043 
L 247.551356 18.363262 
L 238.014238 19.847359 
L 228.5932 21.4398 
L 219.294948 23.13883 
L 210.13908 24.937426 
L 201.148845 26.83449 
L 192.338052 28.831243 
L 183.722363 30.920483 
L 175.330161 33.091899 
L 167.18641 35.34195 
L 159.308317 37.663768 
L 151.720103 40.040476 
L 144.451415 42.457074 
L 137.521835 44.904435 
L 130.944343 47.366425 
L 124.734418 49.822406 
L 118.902268 52.259035 
L 108.357246 57.03242 
L 99.24653 61.594386 
L 91.439692 65.917355 
L 84.766727 69.984084 
L 79.070236 73.810359 
L 74.197968 77.424397 
L 70.035668 80.847647 
L 66.47405 84.132055 
L 63.390553 87.287031 
L 60.72039 90.267905 
L 58.473595 93.077112 
L 56.647847 95.79363 
L 55.184337 98.476427 
L 54.026775 101.089272 
L 53.168421 103.580392 
L 52.622859 105.9587 
L 52.375538 108.377507 
L 52.419121 110.53728 
L 52.775977 112.794485 
L 53.536005 115.015052 
L 54.761323 117.217944 
L 56.420509 119.363391 
L 58.492724 121.404483 
L 61.014246 123.333819 
L 63.996334 125.169754 
L 67.432892 126.92751 
L 71.370834 128.611355 
L 75.902332 130.239625 
L 81.1268 131.851375 
L 87.17371 133.475012 
L 94.240146 135.123078 
L 102.571973 136.812433 
L 112.46034 138.540935 
L 124.221064 140.293679 
L 138.085756 142.033974 
L 154.121988 143.698653 
L 172.136326 145.221152 
L 191.771953 146.552446 
L 212.629366 147.667837 
L 234.399831 148.57542 
L 258.127659 149.3575 
L 258.08097 150.888537 
L 291.290531 151.792179 
L 338.177301 152.610081 
L 373.614682 153.13795 
L 469.214582 154.014374 
L 600.276056 154.814882 
L 647.639293 155.057072 
L 694.663179 155.483935 
L 729.561131 155.82639 
L 764.479351 156.096462 
L 811.022237 156.756776 
L 857.407159 157.925504 
L 880.358912 158.664492 
L 926.248976 160.588131 
L 948.752743 161.785862 
L 982.529063 163.961517 
L 1004.493471 165.558713 
L 1025.791251 167.340203 
L 1046.001323 169.245346 
L 1064.674434 171.306219 
L 1088.75135 174.238294 
L 1099.636364 175.65731 
L 1099.411696 175.038121 
L 1099.411696 175.038121 
" clip-path="url(#p838462c450)" style="fill: none; stroke: #ff0000; stroke-width: 0.72; stroke-linejoin: miter"/>
   </g>
   <g id="patch_4">
    <path d="M 739.442073 61.102364 
L 733.527481 59.503097 
L 735.126748 53.588504 
L 741.04134 55.187771 
L 739.442073 61.102364 
" clip-path="url(#p838462c450)" style="fill: none; stroke: #ff0000; stroke-width: 0.72; stroke-linejoin: miter"/>
   </g>
   <g id="patch_5">
    <path d="M 344.550698 15.518155 
L 338.429795 15.791286 
L 338.156665 9.670382 
L 344.277568 9.397252 
L 344.550698 15.518155 
" clip-path="url(#p838462c450)" style="fill: none; stroke: #ff0000; stroke-width: 0.72; stroke-linejoin: miter"/>
   </g>
   <g id="patch_6">
    <path d="M 165.49608 42.227816 
L 159.619079 43.960133 
L 157.886763 38.083131 
L 163.763764 36.350815 
L 165.49608 42.227816 
" clip-path="url(#p838462c450)" style="fill: none; stroke: #ff0000; stroke-width: 0.72; stroke-linejoin: miter"/>
   </g>
   <g id="patch_7">
    <path d="M 75.506124 86.22891 
L 73.22618 88.275094 
L 68.110718 82.575234 
L 70.390662 80.52905 
L 75.506124 86.22891 
" clip-path="url(#p838462c450)" style="fill: none; stroke: #ff0000; stroke-width: 0.72; stroke-linejoin: miter"/>
   </g>
   <g id="patch_8">
    <path d="M 64.103449 116.118826 
L 66.591023 117.90684 
L 62.120989 124.125774 
L 59.633415 122.33776 
L 64.103449 116.118826 
" clip-path="url(#p838462c450)" style="fill: none; stroke: #ff0000; stroke-width: 0.72; stroke-linejoin: miter"/>
   </g>
   <g id="patch_9">
    <path d="M 202.860516 141.041947 
L 208.979782 141.349587 
L 208.672142 147.468853 
L 202.552876 147.161213 
L 202.860516 141.041947 
" clip-path="url(#p838462c450)" style="fill: none; stroke: #ff0000; stroke-width: 0.72; stroke-linejoin: miter"/>
   </g>
   <g id="line2d_1">
    <path d="M 1070.636896 164.868829 
L 1070.144479 166.31927 
" clip-path="url(#p838462c450)" style="fill: none; stroke: #ff0000; stroke-width: 0.72; stroke-linecap: square"/>
   </g>
   <g id="line2d_2">
    <path d="M 1069.290265 170.314579 
L 1069.146383 171.839555 
" clip-path="url(#p838462c450)" style="fill: none; stroke: #ff0000; stroke-width: 0.72; stroke-linecap: square"/>
   </g>
   <g id="line2d_3">
    <path d="M 1041.655584 154.939653 
L 1041.161146 156.389407 
" clip-path="url(#p838462c450)" style="fill: none; stroke: #ff0000; stroke-width: 0.72; stroke-linecap: square"/>
   </g>
   <g id="line2d_4">
    <path d="M 1038.843373 167.008263 
L 1038.688749 168.532187 
" clip-path="url(#p838462c450)" style="fill: none; stroke: #ff0000; stroke-width: 0.72; stroke-linecap: square"/>
   </g>
   <g id="line2d_5">
    <path d="M 926.221696 113.806057 
L 925.714103 115.251257 
" clip-path="url(#p838462c450)" style="fill: none; stroke: #ff0000; stroke-width: 0.72; stroke-linecap: square"/>
   </g>
   <g id="line2d_6">
    <path d="M 916.534955 158.628941 
L 916.413611 160.155876 
" clip-path="url(#p838462c450)" style="fill: none; stroke: #ff0000; stroke-width: 0.72; stroke-linecap: square"/>
   </g>
   <g id="patch_10">
    <path d="M 506.507585 81.145044 
L 506.399869 77.516238 
L 506.077151 73.901849 
L 505.540713 70.316237 
L 504.792685 66.773648 
L 503.83604 63.288155 
L 502.674578 59.873608 
L 501.312914 56.543572 
L 499.756457 53.311277 
L 498.011392 50.189565 
L 496.084652 47.190838 
L 493.983891 44.32701 
L 491.717455 41.60946 
L 489.29435 39.048984 
L 486.724202 36.655754 
L 484.017222 34.439279 
L 481.184166 32.408365 
L 478.236288 30.571081 
L 475.1853 28.934726 
L 472.043325 27.505801 
L 468.822844 26.289984 
L 465.536654 25.292105 
L 462.197809 24.516128 
L 458.819576 23.965137 
L 455.415375 23.64132 
L 451.998732 23.545964 
L 448.583221 23.679447 
L 445.182411 24.041241 
L 441.809814 24.629906 
L 438.478829 25.443105 
L 435.20269 26.477606 
L 431.994413 27.729299 
L 428.866744 29.193213 
L 425.83211 30.863529 
L 422.902568 32.733613 
L 420.089755 34.796034 
L 417.404848 37.042599 
L 414.858513 39.464382 
L 412.460868 42.051761 
L 410.221437 44.794457 
L 408.149118 47.681573 
L 406.252144 50.701639 
L 404.538052 53.842655 
L 403.013652 57.092143 
L 401.685001 60.437193 
L 400.557376 63.864515 
L 399.635259 67.360492 
L 398.922312 70.911234 
L 398.421368 74.502635 
L 398.134418 78.120427 
L 398.062601 81.750235 
L 398.206203 85.377638 
L 398.564653 88.988226 
L 399.136528 92.567653 
L 399.919554 96.101698 
L 400.910622 99.576321 
L 402.105793 102.977716 
L 403.500319 106.292371 
L 405.08866 109.507117 
L 406.864506 112.60918 
L 408.8208 115.586237 
L 410.949772 118.42646 
L 413.242961 121.118565 
L 415.691258 123.651856 
L 418.284936 126.016268 
L 421.01369 128.202408 
L 423.866678 130.20159 
L 426.832566 132.005872 
L 429.89957 133.608085 
L 433.055505 135.001863 
L 436.287834 136.18167 
L 439.583713 137.142817 
L 442.930048 137.881486 
L 446.313545 138.394743 
L 449.72076 138.680548 
L 453.138158 138.737766 
L 456.552161 138.566169 
L 459.949205 138.16644 
L 463.315793 137.540166 
L 466.638551 136.689835 
L 469.904277 135.618826 
L 473.099996 134.331394 
L 476.213012 132.832654 
L 479.230957 131.12856 
L 482.141841 129.225883 
L 484.934099 127.132182 
L 487.596637 124.855775 
L 490.118878 122.405706 
L 492.490799 119.79171 
L 494.702979 117.024171 
L 496.746627 114.114086 
L 498.613624 111.073015 
L 500.296554 107.913041 
L 501.788729 104.646718 
L 503.084221 101.287024 
L 504.177883 97.847306 
L 505.065371 94.341231 
L 505.743158 90.782727 
L 506.208552 87.185933 
L 506.459702 83.565139 
L 506.507585 81.145044 
L 506.507585 81.145044 
" clip-path="url(#p838462c450)" style="fill: none; stroke: #ff0000; stroke-width: 0.72; stroke-linejoin: miter"/>
   </g>
   <g id="line2d_7">
    <path d="M 69.704046 81.145044 
L 827.26509 81.145044 
" clip-path="url(#p838462c450)" style="fill: none; stroke: #ffffff; stroke-width: 0.72; stroke-linecap: square"/>
   </g>
   <g id="line2d_8">
    <path d="M 217.999583 81.145044 
L 236.380567 81.145044 
" clip-path="url(#p838462c450)" style="fill: none; stroke: #ffffff; stroke-width: 0.72; stroke-linecap: square"/>
   </g>
   <g id="patch_11">
    <path d="M 227.190075 73.486301 
L 234.848818 81.145044 
L 227.190075 88.803787 
L 219.531332 81.145044 
L 227.190075 73.486301 
" clip-path="url(#p838462c450)" style="fill: none; stroke: #ff0000; stroke-width: 0.72; stroke-linejoin: miter"/>
   </g>
   <g id="line2d_9">
    <path d="M 439.294077 81.145044 
L 457.67506 81.145044 
" clip-path="url(#p838462c450)" style="fill: none; stroke: #ffffff; stroke-width: 0.72; stroke-linecap: square"/>
   </g>
   <g id="patch_12">
    <path d="M 448.484568 73.486301 
L 456.143312 81.145044 
L 448.484568 88.803787 
L 440.825825 81.145044 
L 448.484568 73.486301 
" clip-path="url(#p838462c450)" style="fill: none; stroke: #ff0000; stroke-width: 0.72; stroke-linejoin: miter"/>
   </g>
   <g id="line2d_10">
    <path d="M 660.58857 81.145044 
L 678.969554 81.145044 
" clip-path="url(#p838462c450)" style="fill: none; stroke: #ffffff; stroke-width: 0.72; stroke-linecap: square"/>
   </g>
   <g id="patch_13">
    <path d="M 669.779062 73.486301 
L 677.437805 81.145044 
L 669.779062 88.803787 
L 662.120319 81.145044 
L 669.779062 73.486301 
" clip-path="url(#p838462c450)" style="fill: none; stroke: #ff0000; stroke-width: 0.72; stroke-linejoin: miter"/>
   </g>
   <g id="line2d_11">
    <path d="M 52.447809 107.364984 
L 1098.277155 174.629152 
" clip-path="url(#p838462c450)" style="fill: none; stroke: #ffffff; stroke-width: 0.72; stroke-linecap: square"/>
   </g>
   <g id="line2d_12">
    <path d="M 258.403639 120.611359 
L 276.746722 121.791123 
" clip-path="url(#p838462c450)" style="fill: none; stroke: #ffffff; stroke-width: 0.72; stroke-linecap: square"/>
   </g>
   <g id="patch_14">
    <path d="M 268.066749 113.55829 
L 275.218132 121.69281 
L 267.083612 128.844193 
L 259.932229 120.709673 
L 268.066749 113.55829 
" clip-path="url(#p838462c450)" style="fill: none; stroke: #ff0000; stroke-width: 0.72; stroke-linejoin: miter"/>
   </g>
   <g id="line2d_13">
    <path d="M 514.893057 137.107882 
L 533.23614 138.287646 
" clip-path="url(#p838462c450)" style="fill: none; stroke: #ffffff; stroke-width: 0.72; stroke-linecap: square"/>
   </g>
   <g id="patch_15">
    <path d="M 524.556167 130.054812 
L 531.70755 138.189332 
L 523.57303 145.340715 
L 516.421647 137.206195 
L 524.556167 130.054812 
" clip-path="url(#p838462c450)" style="fill: none; stroke: #ff0000; stroke-width: 0.72; stroke-linejoin: miter"/>
   </g>
   <g id="line2d_14">
    <path d="M 452.283597 23.545169 
L 452.283597 22.01342 
" clip-path="url(#p838462c450)" style="fill: none; stroke: #ff0000; stroke-width: 0.72; stroke-linecap: square"/>
   </g>
   <g id="line2d_15">
    <path d="M 452.283597 138.744919 
L 452.283597 140.276668 
" clip-path="url(#p838462c450)" style="fill: none; stroke: #ff0000; stroke-width: 0.72; stroke-linecap: square"/>
   </g>
   <g id="line2d_16">
    <path d="M 506.507585 81.145044 
L 508.039333 81.145044 
" clip-path="url(#p838462c450)" style="fill: none; stroke: #ff0000; stroke-width: 0.72; stroke-linecap: square"/>
   </g>
   <g id="line2d_17">
    <path d="M 398.059608 81.145044 
L 396.52786 81.145044 
" clip-path="url(#p838462c450)" style="fill: none; stroke: #ff0000; stroke-width: 0.72; stroke-linecap: square"/>
   </g>
   <g id="line2d_18">
    <path d="M 222.521303 148.108095 
L 222.521303 22.549292 
" clip-path="url(#p838462c450)" style="fill: none; stroke: #ffffff; stroke-width: 0.72; stroke-linecap: square"/>
   </g>
   <g id="line2d_19">
    <path d="M 222.521303 110.366096 
L 222.521303 91.985113 
" clip-path="url(#p838462c450)" style="fill: none; stroke: #ffffff; stroke-width: 0.72; stroke-linecap: square"/>
   </g>
   <g id="patch_16">
    <path d="M 214.862559 101.175604 
L 222.521303 93.516861 
L 230.180046 101.175604 
L 222.521303 108.834348 
L 214.862559 101.175604 
" clip-path="url(#p838462c450)" style="fill: none; stroke: #ff0000; stroke-width: 0.72; stroke-linejoin: miter"/>
   </g>
   <g id="line2d_20">
    <path d="M 222.521303 78.672275 
L 222.521303 60.291291 
" clip-path="url(#p838462c450)" style="fill: none; stroke: #ffffff; stroke-width: 0.72; stroke-linecap: square"/>
   </g>
   <g id="patch_17">
    <path d="M 214.862559 69.481783 
L 222.521303 61.82304 
L 230.180046 69.481783 
L 222.521303 77.140526 
L 214.862559 69.481783 
" clip-path="url(#p838462c450)" style="fill: none; stroke: #ff0000; stroke-width: 0.72; stroke-linejoin: miter"/>
   </g>
   <g id="line2d_21">
    <path d="M 911.808184 159.959155 
L 911.808184 108.657912 
" clip-path="url(#p838462c450)" style="fill: none; stroke: #ffffff; stroke-width: 0.72; stroke-linecap: square"/>
   </g>
   <g id="line2d_22">
    <path d="M 911.808184 148.207302 
L 911.808184 129.826318 
" clip-path="url(#p838462c450)" style="fill: none; stroke: #ffffff; stroke-width: 0.72; stroke-linecap: square"/>
   </g>
   <g id="patch_18">
    <path d="M 904.149441 139.01681 
L 911.808184 131.358067 
L 919.466927 139.01681 
L 911.808184 146.675553 
L 904.149441 139.01681 
" clip-path="url(#p838462c450)" style="fill: none; stroke: #ff0000; stroke-width: 0.72; stroke-linejoin: miter"/>
   </g>
   <g id="line2d_23">
    <path d="M 911.808184 138.790749 
L 911.808184 120.409765 
" clip-path="url(#p838462c450)" style="fill: none; stroke: #ffffff; stroke-width: 0.72; stroke-linecap: square"/>
   </g>
   <g id="patch_19">
    <path d="M 904.149441 129.600257 
L 911.808184 121.941514 
L 919.466927 129.600257 
L 911.808184 137.259 
L 904.149441 129.600257 
" clip-path="url(#p838462c450)" style="fill: none; stroke: #ff0000; stroke-width: 0.72; stroke-linejoin: miter"/>
   </g>
   <g id="patch_20">
    <path d="M 354.775704 118.410876 
L 347.116961 118.410876 
L 347.116961 126.069619 
L 354.775704 126.069619 
L 354.775704 133.728362 
L 347.116961 133.728362 
" clip-path="url(#p838462c450)" style="fill: none; stroke: #ff0000; stroke-width: 0.72; stroke-linejoin: miter"/>
   </g>
   <g id="patch_21">
    <path d="M 358.605075 118.410876 
L 366.263818 118.410876 
L 366.263818 126.069619 
L 358.605075 126.069619 
L 366.263818 126.069619 
L 366.263818 133.728362 
L 358.605075 133.728362 
" clip-path="url(#p838462c450)" style="fill: none; stroke: #ff0000; stroke-width: 0.72; stroke-linejoin: miter"/>
   </g>
  </g>
 </g>
 <defs>
  <clipPath id="p838462c450">
   <rect x="0" y="0" width="1152" height="184.021944"/>
  </clipPath>
 </defs>
</svg>
