<?xml version="1.0" encoding="utf-8" standalone="no"?>
<!DOCTYPE svg PUBLIC "-//W3C//DTD SVG 1.1//EN"
  "http://www.w3.org/Graphics/SVG/1.1/DTD/svg11.dtd">
<svg xmlns:xlink="http://www.w3.org/1999/xlink" width="803.904885pt" height="345.6pt" viewBox="0 0 803.904885 345.6" xmlns="http://www.w3.org/2000/svg" version="1.1">
 <metadata>
  <rdf:RDF xmlns:dc="http://purl.org/dc/elements/1.1/" xmlns:cc="http://creativecommons.org/ns#" xmlns:rdf="http://www.w3.org/1999/02/22-rdf-syntax-ns#">
   <cc:Work>
    <dc:type rdf:resource="http://purl.org/dc/dcmitype/StillImage"/>
    <dc:date>2026-01-07T02:07:17.799913</dc:date>
    <dc:format>image/svg+xml</dc:format>
    <dc:creator>
     <cc:Agent>
      <dc:title>Matplotlib v3.10.1, https://matplotlib.org/</dc:title>
     </cc:Agent>
    </dc:creator>
   </cc:Work>
  </rdf:RDF>
 </metadata>
 <defs>
  <style type="text/css">*{stroke-linejoin: round; stroke-linecap: butt}</style>
 </defs>
 <g id="figure_1">
  <g id="patch_1">
   <path d="M 0 345.6 
L 803.904885 345.6 
L 803.904885 0 
L 0 0 
z
" style="fill: #ffffff"/>
  </g>
  <g id="axes_1">
   <g id="patch_2">
    <path d="M 0 345.6 
L 803.904885 345.6 
L 803.904885 0 
L 0 0 
z
" style="fill: #212830"/>
   </g>
   <g id="patch_3">
    <path d="M 36.541131 329.890909 
L 767.363754 194.17278 
L 767.363754 194.17278 
L 765.745168 193.627044 
L 736.076007 183.766382 
L 706.561425 174.11856 
L 677.179452 164.688656 
L 647.91895 155.480219 
L 618.768016 146.501233 
L 589.703192 137.756316 
L 560.701285 129.243558 
L 531.750365 120.962008 
L 502.841512 112.915183 
L 473.957775 105.105042 
L 445.081414 97.52968 
L 416.205835 90.185596 
L 387.32935 83.075095 
L 358.442597 76.201496 
L 329.533095 69.562428 
L 300.597891 63.154584 
L 271.640955 56.979756 
L 242.65821 51.041092 
L 213.642712 45.337781 
L 184.591581 39.86703 
L 155.511599 34.628791 
L 126.404497 29.626931 
L 97.264621 24.862167 
L 68.091592 20.331314 
L 38.892605 16.03548 
L 36.541133 15.709091 
L 36.541131 329.890909 
" clip-path="url(#p9c0ce59b3c)" style="fill: none; stroke: #ff0000; stroke-width: 0.72; stroke-linejoin: miter"/>
   </g>
   <g id="patch_4">
    <path d="M 632.589093 290.426019 
L 632.589093 309.261116 
L 651.42419 309.261116 
L 651.42419 290.426019 
L 651.42419 328.096214 
" clip-path="url(#p9c0ce59b3c)" style="fill: none; stroke: #ff0000; stroke-width: 0.72; stroke-linejoin: miter"/>
   </g>
   <g id="patch_5">
    <path d="M 679.676837 290.426019 
L 672.142798 290.426019 
" clip-path="url(#p9c0ce59b3c)" style="fill: none; stroke: #ff0000; stroke-width: 0.72; stroke-linejoin: miter"/>
   </g>
   <g id="patch_6">
    <path d="M 668.375778 290.426019 
L 660.841739 290.426019 
L 660.841739 328.096214 
L 668.375778 328.096214 
" clip-path="url(#p9c0ce59b3c)" style="fill: none; stroke: #ff0000; stroke-width: 0.72; stroke-linejoin: miter"/>
   </g>
   <g id="patch_7">
    <path d="M 672.142798 328.096214 
L 679.676837 328.096214 
L 679.676837 309.261116 
L 672.142798 309.261116 
" clip-path="url(#p9c0ce59b3c)" style="fill: none; stroke: #ff0000; stroke-width: 0.72; stroke-linejoin: miter"/>
   </g>
   <g id="patch_8">
    <path d="M 668.375778 309.261116 
L 660.841739 309.261116 
" clip-path="url(#p9c0ce59b3c)" style="fill: none; stroke: #ff0000; stroke-width: 0.72; stroke-linejoin: miter"/>
   </g>
   <g id="patch_9">
    <path d="M 483.71868 123.353689 
L 469.172961 119.420621 
L 473.106028 104.874902 
L 487.651748 108.807969 
L 483.71868 123.353689 
" clip-path="url(#p9c0ce59b3c)" style="fill: none; stroke: #ff0000; stroke-width: 0.72; stroke-linejoin: miter"/>
   </g>
   <g id="patch_10">
    <path d="M 293.906921 163.093911 
L 312.742018 181.929008 
L 293.906921 200.764106 
L 275.071823 181.929008 
L 293.906921 163.093911 
" clip-path="url(#p9c0ce59b3c)" style="fill: none; stroke: #ff0000; stroke-width: 0.72; stroke-linejoin: miter"/>
   </g>
   <g id="line2d_1">
    <path d="M 36.541133 181.929008 
L 730.45512 181.929008 
" clip-path="url(#p9c0ce59b3c)" style="fill: none; stroke: #ffffff; stroke-width: 0.72; stroke-linecap: square"/>
   </g>
   <g id="line2d_2">
    <path d="M 271.304804 181.929008 
L 316.509038 181.929008 
" clip-path="url(#p9c0ce59b3c)" style="fill: none; stroke: #ffffff; stroke-width: 0.72; stroke-linecap: square"/>
   </g>
  </g>
 </g>
 <defs>
  <clipPath id="p9c0ce59b3c">
   <rect x="0" y="0" width="803.904885" height="345.6"/>
  </clipPath>
 </defs>
</svg>
