<?xml version="1.0" encoding="utf-8" standalone="no"?>
<!DOCTYPE svg PUBLIC "-//W3C//DTD SVG 1.1//EN"
  "http://www.w3.org/Graphics/SVG/1.1/DTD/svg11.dtd">
<svg xmlns:xlink="http://www.w3.org/1999/xlink" width="1152pt" height="184.952092pt" viewBox="0 0 1152 184.952092" xmlns="http://www.w3.org/2000/svg" version="1.1">
 <metadata>
  <rdf:RDF xmlns:dc="http://purl.org/dc/elements/1.1/" xmlns:cc="http://creativecommons.org/ns#" xmlns:rdf="http://www.w3.org/1999/02/22-rdf-syntax-ns#">
   <cc:Work>
    <dc:type rdf:resource="http://purl.org/dc/dcmitype/StillImage"/>
    <dc:date>2026-01-07T02:07:08.601469</dc:date>
    <dc:format>image/svg+xml</dc:format>
    <dc:creator>
     <cc:Agent>
      <dc:title>Matplotlib v3.10.1, https://matplotlib.org/</dc:title>
     </cc:Agent>
    </dc:creator>
   </cc:Work>
  </rdf:RDF>
 </metadata>
 <defs>
  <style type="text/css">*{stroke-linejoin: round; stroke-linecap: butt}</style>
 </defs>
 <g id="figure_1">
  <g id="patch_1">
   <path d="M 0 184.952092 
L 1152 184.952092 
L 1152 0 
L 0 0 
z
" style="fill: #ffffff"/>
  </g>
  <g id="axes_1">
   <g id="patch_2">
    <path d="M 0 184.952092 
L 1152 184.952092 
L 1152 0 
L 0 0 
z
" style="fill: #212830"/>
   </g>
   <g id="patch_3">
    <path d="M 1099.437012 175.540595 
L 1083.980439 170.057871 
L 975.646673 132.242358 
L 923.178491 114.186361 
L 885.352056 101.389665 
L 845.649927 88.238862 
L 842.008274 87.050134 
L 841.69856 87.998939 
L 814.621802 79.242064 
L 793.818672 72.670158 
L 772.787241 66.240388 
L 751.564907 60.003146 
L 730.139183 54.020796 
L 708.542603 48.30413 
L 686.786557 42.900443 
L 664.926848 37.829326 
L 653.958709 35.456689 
L 631.86985 31.025077 
L 609.633695 26.940093 
L 587.342197 23.231704 
L 576.182763 21.536804 
L 553.816038 18.471816 
L 531.4171 15.800241 
L 509.055652 13.536252 
L 486.742891 11.701172 
L 464.497761 10.267971 
L 442.403413 9.228217 
L 420.478838 8.621953 
L 398.733341 8.406913 
L 377.270005 8.55397 
L 366.673965 8.782014 
L 356.161974 9.126479 
L 335.358061 10.125636 
L 314.962481 11.451936 
L 304.971088 12.257564 
L 295.114618 13.178897 
L 275.755083 15.345345 
L 256.948921 17.803499 
L 247.83669 19.136236 
L 238.928368 20.570808 
L 221.620966 23.739745 
L 205.055963 27.10038 
L 197.136689 28.842045 
L 189.457112 30.654628 
L 174.727188 34.479521 
L 160.816264 38.4538 
L 147.80156 42.521917 
L 135.686161 46.738707 
L 124.378177 51.115784 
L 113.862122 55.583714 
L 104.162671 60.13201 
L 95.265054 64.74188 
L 87.193556 69.383013 
L 79.930258 74.060396 
L 76.606068 76.400536 
L 73.494305 78.738584 
L 70.598335 81.073092 
L 67.919823 83.403183 
L 65.452648 85.733607 
L 63.182378 88.065525 
L 61.101835 90.380026 
L 59.228165 92.64253 
L 57.590332 94.837677 
L 56.199253 96.987087 
L 55.040041 99.122224 
L 54.092274 101.244908 
L 53.348001 103.327758 
L 52.809986 105.358792 
L 52.481241 107.350927 
L 52.363636 109.261372 
L 52.455444 111.108248 
L 52.768025 112.873718 
L 53.325373 114.584004 
L 54.150481 116.273413 
L 55.243789 117.952977 
L 56.587881 119.608153 
L 58.178423 121.220283 
L 60.033979 122.783281 
L 62.173293 124.301509 
L 64.595135 125.778275 
L 67.290412 127.209667 
L 70.261267 128.590727 
L 73.518387 129.92395 
L 77.064256 131.217991 
L 80.891464 132.479375 
L 89.360856 134.905491 
L 98.899903 137.192419 
L 109.519495 139.338982 
L 121.219406 141.355549 
L 134.033666 143.222113 
L 148.01705 144.960763 
L 163.207573 146.575215 
L 179.659715 148.081295 
L 197.38204 149.48083 
L 216.353817 150.767129 
L 236.488612 151.927026 
L 258.609992 152.999404 
L 258.56739 153.996569 
L 279.705482 154.858812 
L 302.563739 155.634345 
L 338.119251 156.555576 
L 374.895998 157.197068 
L 451.528754 158.075974 
L 570.471566 158.885413 
L 636.889208 159.21871 
L 766.104739 160.106006 
L 790.954423 160.461849 
L 827.200029 161.238932 
L 862.015379 162.169297 
L 905.972254 163.641467 
L 936.817409 164.917025 
L 965.706228 166.292274 
L 992.4217 167.787445 
L 1016.809059 169.305166 
L 1038.736958 170.910685 
L 1063.746163 172.941754 
L 1083.298026 174.736774 
L 1098.48468 176.401005 
L 1099.636364 176.545179 
L 1099.437012 175.540595 
L 1099.437012 175.540595 
" clip-path="url(#p9ff0fd76df)" style="fill: none; stroke: #ff0000; stroke-width: 0.72; stroke-linejoin: miter"/>
   </g>
   <g id="patch_4">
    <path d="M 739.372897 60.707041 
L 735.524115 59.646221 
L 736.584935 55.797439 
L 740.433717 56.858259 
L 739.372897 60.707041 
" clip-path="url(#p9ff0fd76df)" style="fill: none; stroke: #ff0000; stroke-width: 0.72; stroke-linejoin: miter"/>
   </g>
   <g id="patch_5">
    <path d="M 344.027618 13.667661 
L 340.040824 13.877284 
L 339.831202 9.89049 
L 343.817996 9.680868 
L 344.027618 13.667661 
" clip-path="url(#p9ff0fd76df)" style="fill: none; stroke: #ff0000; stroke-width: 0.72; stroke-linejoin: miter"/>
   </g>
   <g id="patch_6">
    <path d="M 164.316899 41.591003 
L 160.484524 42.709646 
L 159.36588 38.877271 
L 163.198256 37.758628 
L 164.316899 41.591003 
" clip-path="url(#p9ff0fd76df)" style="fill: none; stroke: #ff0000; stroke-width: 0.72; stroke-linejoin: miter"/>
   </g>
   <g id="patch_7">
    <path d="M 73.504166 85.159869 
L 71.998588 86.470537 
L 68.721916 82.706594 
L 70.227493 81.395925 
L 73.504166 85.159869 
" clip-path="url(#p9ff0fd76df)" style="fill: none; stroke: #ff0000; stroke-width: 0.72; stroke-linejoin: miter"/>
   </g>
   <g id="patch_8">
    <path d="M 63.309264 118.987526 
L 64.938712 120.140571 
L 62.0561 124.214193 
L 60.426651 123.061148 
L 63.309264 118.987526 
" clip-path="url(#p9ff0fd76df)" style="fill: none; stroke: #ff0000; stroke-width: 0.72; stroke-linejoin: miter"/>
   </g>
   <g id="patch_9">
    <path d="M 204.47312 145.978193 
L 208.45555 146.258751 
L 208.174992 150.241181 
L 204.192562 149.960623 
L 204.47312 145.978193 
" clip-path="url(#p9ff0fd76df)" style="fill: none; stroke: #ff0000; stroke-width: 0.72; stroke-linejoin: miter"/>
   </g>
   <g id="line2d_1">
    <path d="M 1080.809633 168.947885 
L 1080.483643 169.891222 
" clip-path="url(#p9ff0fd76df)" style="fill: none; stroke: #ff0000; stroke-width: 0.72; stroke-linecap: square"/>
   </g>
   <g id="line2d_2">
    <path d="M 1079.798413 173.389635 
L 1079.744341 174.386244 
" clip-path="url(#p9ff0fd76df)" style="fill: none; stroke: #ff0000; stroke-width: 0.72; stroke-linecap: square"/>
   </g>
   <g id="line2d_3">
    <path d="M 1061.980355 162.320185 
L 1061.651667 163.262585 
" clip-path="url(#p9ff0fd76df)" style="fill: none; stroke: #ff0000; stroke-width: 0.72; stroke-linecap: square"/>
   </g>
   <g id="line2d_4">
    <path d="M 1059.927045 171.616403 
L 1059.855651 172.611921 
" clip-path="url(#p9ff0fd76df)" style="fill: none; stroke: #ff0000; stroke-width: 0.72; stroke-linecap: square"/>
   </g>
   <g id="line2d_5">
    <path d="M 986.584588 136.035897 
L 986.25599 136.978329 
" clip-path="url(#p9ff0fd76df)" style="fill: none; stroke: #ff0000; stroke-width: 0.72; stroke-linecap: square"/>
   </g>
   <g id="line2d_6">
    <path d="M 980.271295 166.084846 
L 980.201402 167.080471 
" clip-path="url(#p9ff0fd76df)" style="fill: none; stroke: #ff0000; stroke-width: 0.72; stroke-linecap: square"/>
   </g>
   <g id="patch_10">
    <path d="M 511.706622 83.477088 
L 511.58943 79.530644 
L 511.238321 75.599879 
L 510.654689 71.700411 
L 509.840853 67.84773 
L 508.800047 64.057145 
L 507.536405 60.343715 
L 506.054948 56.722193 
L 504.361562 53.206968 
L 502.462974 49.812005 
L 500.366728 46.550793 
L 498.081152 43.436289 
L 495.615327 40.480865 
L 492.979048 37.696264 
L 490.18279 35.09355 
L 487.237663 32.683062 
L 484.155368 30.474378 
L 480.948149 28.476272 
L 477.62875 26.696683 
L 474.210359 25.142681 
L 470.706556 23.820441 
L 467.131262 22.735215 
L 463.498681 21.891315 
L 459.823247 21.292094 
L 456.119561 20.939933 
L 452.402337 20.83623 
L 448.686345 20.981398 
L 444.986348 21.37486 
L 441.317046 22.015052 
L 437.693017 22.899432 
L 434.128658 24.024485 
L 430.638132 25.385742 
L 427.235306 26.977795 
L 423.9337 28.794318 
L 420.74643 30.828095 
L 417.686159 33.071045 
L 414.765046 35.514256 
L 411.994697 38.148023 
L 409.386118 40.961882 
L 406.949672 43.944652 
L 404.695041 47.084484 
L 402.63118 50.368902 
L 400.76629 53.784859 
L 399.107781 57.318782 
L 397.662241 60.956632 
L 396.435413 64.683955 
L 395.432173 68.485942 
L 394.656504 72.347489 
L 394.11149 76.253254 
L 393.799295 80.187719 
L 393.72116 84.135252 
L 393.877395 88.08017 
L 394.26738 92.006801 
L 394.889565 95.899543 
L 395.741479 99.742931 
L 396.819736 103.521695 
L 398.120052 107.220823 
L 399.637262 110.825617 
L 401.365338 114.321756 
L 403.297415 117.69535 
L 405.425815 120.932996 
L 407.742083 124.02183 
L 410.237016 126.949581 
L 412.900703 129.704616 
L 415.72256 132.275991 
L 418.691377 134.653489 
L 421.795357 136.827664 
L 425.02217 138.789878 
L 428.358995 140.532336 
L 431.792575 142.048115 
L 435.309268 143.331193 
L 438.895103 144.376471 
L 442.535833 145.179798 
L 446.216994 145.737981 
L 449.92396 146.048804 
L 453.642005 146.11103 
L 457.356355 145.924413 
L 461.052255 145.489694 
L 464.71502 144.808601 
L 468.330098 143.883839 
L 471.883127 142.719082 
L 475.359991 141.318958 
L 478.746876 139.68903 
L 482.030325 137.835773 
L 485.197295 135.766551 
L 488.235203 133.489583 
L 491.131979 131.013917 
L 493.876114 128.349388 
L 496.456706 125.506583 
L 498.863502 122.496796 
L 501.086941 119.331984 
L 503.118188 116.024721 
L 504.949173 112.588147 
L 506.572623 109.035916 
L 507.982087 105.38214 
L 509.171964 101.641336 
L 510.137529 97.828366 
L 510.874945 93.958379 
L 511.381281 90.046749 
L 511.654527 86.109019 
L 511.706622 83.477088 
L 511.706622 83.477088 
" clip-path="url(#p9ff0fd76df)" style="fill: none; stroke: #ff0000; stroke-width: 0.72; stroke-linejoin: miter"/>
   </g>
   <g id="line2d_7">
    <path d="M 67.841582 83.477088 
L 827.78419 83.477088 
" clip-path="url(#p9ff0fd76df)" style="fill: none; stroke: #ffffff; stroke-width: 0.72; stroke-linecap: square"/>
   </g>
   <g id="line2d_8">
    <path d="M 217.734146 83.477088 
L 229.711047 83.477088 
" clip-path="url(#p9ff0fd76df)" style="fill: none; stroke: #ffffff; stroke-width: 0.72; stroke-linecap: square"/>
   </g>
   <g id="patch_11">
    <path d="M 223.722596 78.486712 
L 228.712972 83.477088 
L 223.722596 88.467463 
L 218.732221 83.477088 
L 223.722596 78.486712 
" clip-path="url(#p9ff0fd76df)" style="fill: none; stroke: #ff0000; stroke-width: 0.72; stroke-linejoin: miter"/>
   </g>
   <g id="line2d_9">
    <path d="M 441.824435 83.477088 
L 453.801336 83.477088 
" clip-path="url(#p9ff0fd76df)" style="fill: none; stroke: #ffffff; stroke-width: 0.72; stroke-linecap: square"/>
   </g>
   <g id="patch_12">
    <path d="M 447.812886 78.486712 
L 452.803261 83.477088 
L 447.812886 88.467463 
L 442.82251 83.477088 
L 447.812886 78.486712 
" clip-path="url(#p9ff0fd76df)" style="fill: none; stroke: #ff0000; stroke-width: 0.72; stroke-linejoin: miter"/>
   </g>
   <g id="line2d_10">
    <path d="M 665.914724 83.477088 
L 677.891626 83.477088 
" clip-path="url(#p9ff0fd76df)" style="fill: none; stroke: #ffffff; stroke-width: 0.72; stroke-linecap: square"/>
   </g>
   <g id="patch_13">
    <path d="M 671.903175 78.486712 
L 676.893551 83.477088 
L 671.903175 88.467463 
L 666.912799 83.477088 
L 671.903175 78.486712 
" clip-path="url(#p9ff0fd76df)" style="fill: none; stroke: #ff0000; stroke-width: 0.72; stroke-linejoin: miter"/>
   </g>
   <g id="line2d_11">
    <path d="M 52.468876 107.5518 
L 1099.139679 175.432876 
" clip-path="url(#p9ff0fd76df)" style="fill: none; stroke: #ffffff; stroke-width: 0.72; stroke-linecap: square"/>
   </g>
   <g id="line2d_12">
    <path d="M 259.711473 120.992368 
L 271.663266 121.767493 
" clip-path="url(#p9ff0fd76df)" style="fill: none; stroke: #ffffff; stroke-width: 0.72; stroke-linecap: square"/>
   </g>
   <g id="patch_14">
    <path d="M 266.010338 116.400017 
L 270.667283 121.702899 
L 265.3644 126.359844 
L 260.707456 121.056962 
L 266.010338 116.400017 
" clip-path="url(#p9ff0fd76df)" style="fill: none; stroke: #ff0000; stroke-width: 0.72; stroke-linejoin: miter"/>
   </g>
   <g id="line2d_13">
    <path d="M 518.14223 137.752708 
L 530.094023 138.527832 
" clip-path="url(#p9ff0fd76df)" style="fill: none; stroke: #ffffff; stroke-width: 0.72; stroke-linecap: square"/>
   </g>
   <g id="patch_15">
    <path d="M 524.441095 133.160356 
L 529.09804 138.463239 
L 523.795157 143.120184 
L 519.138213 137.817301 
L 524.441095 133.160356 
" clip-path="url(#p9ff0fd76df)" style="fill: none; stroke: #ff0000; stroke-width: 0.72; stroke-linejoin: miter"/>
   </g>
   <g id="line2d_14">
    <path d="M 452.712263 20.835366 
L 452.712263 19.83729 
" clip-path="url(#p9ff0fd76df)" style="fill: none; stroke: #ff0000; stroke-width: 0.72; stroke-linecap: square"/>
   </g>
   <g id="line2d_15">
    <path d="M 452.712263 146.11881 
L 452.712263 147.116885 
" clip-path="url(#p9ff0fd76df)" style="fill: none; stroke: #ff0000; stroke-width: 0.72; stroke-linecap: square"/>
   </g>
   <g id="line2d_16">
    <path d="M 511.706622 83.477088 
L 512.704697 83.477088 
" clip-path="url(#p9ff0fd76df)" style="fill: none; stroke: #ff0000; stroke-width: 0.72; stroke-linecap: square"/>
   </g>
   <g id="line2d_17">
    <path d="M 393.717904 83.477088 
L 392.719829 83.477088 
" clip-path="url(#p9ff0fd76df)" style="fill: none; stroke: #ff0000; stroke-width: 0.72; stroke-linecap: square"/>
   </g>
   <g id="line2d_18">
    <path d="M 303.000994 155.646926 
L 303.000994 12.441718 
" clip-path="url(#p9ff0fd76df)" style="fill: none; stroke: #ffffff; stroke-width: 0.72; stroke-linecap: square"/>
   </g>
   <g id="line2d_19">
    <path d="M 303.000994 109.567308 
L 303.000994 97.590406 
" clip-path="url(#p9ff0fd76df)" style="fill: none; stroke: #ffffff; stroke-width: 0.72; stroke-linecap: square"/>
   </g>
   <g id="patch_16">
    <path d="M 298.010619 103.578857 
L 303.000994 98.588481 
L 307.99137 103.578857 
L 303.000994 108.569233 
L 298.010619 103.578857 
" clip-path="url(#p9ff0fd76df)" style="fill: none; stroke: #ff0000; stroke-width: 0.72; stroke-linejoin: miter"/>
   </g>
   <g id="line2d_20">
    <path d="M 303.000994 70.498238 
L 303.000994 58.521337 
" clip-path="url(#p9ff0fd76df)" style="fill: none; stroke: #ffffff; stroke-width: 0.72; stroke-linecap: square"/>
   </g>
   <g id="patch_17">
    <path d="M 298.010619 64.509788 
L 303.000994 59.519412 
L 307.99137 64.509788 
L 303.000994 69.500163 
L 298.010619 64.509788 
" clip-path="url(#p9ff0fd76df)" style="fill: none; stroke: #ff0000; stroke-width: 0.72; stroke-linejoin: miter"/>
   </g>
   <g id="line2d_21">
    <path d="M 752.1348 159.964255 
L 752.1348 60.168659 
" clip-path="url(#p9ff0fd76df)" style="fill: none; stroke: #ffffff; stroke-width: 0.72; stroke-linecap: square"/>
   </g>
   <g id="line2d_22">
    <path d="M 752.1348 129.078001 
L 752.1348 117.101099 
" clip-path="url(#p9ff0fd76df)" style="fill: none; stroke: #ffffff; stroke-width: 0.72; stroke-linecap: square"/>
   </g>
   <g id="patch_18">
    <path d="M 747.144424 123.08955 
L 752.1348 118.099174 
L 757.125175 123.08955 
L 752.1348 128.079926 
L 747.144424 123.08955 
" clip-path="url(#p9ff0fd76df)" style="fill: none; stroke: #ff0000; stroke-width: 0.72; stroke-linejoin: miter"/>
   </g>
   <g id="line2d_23">
    <path d="M 752.1348 103.031815 
L 752.1348 91.054913 
" clip-path="url(#p9ff0fd76df)" style="fill: none; stroke: #ffffff; stroke-width: 0.72; stroke-linecap: square"/>
   </g>
   <g id="patch_19">
    <path d="M 747.144424 97.043364 
L 752.1348 92.052988 
L 757.125175 97.043364 
L 752.1348 102.03374 
L 747.144424 97.043364 
" clip-path="url(#p9ff0fd76df)" style="fill: none; stroke: #ff0000; stroke-width: 0.72; stroke-linejoin: miter"/>
   </g>
   <g id="patch_20">
    <path d="M 350.116923 126.0416 
L 350.116923 136.022351 
" clip-path="url(#p9ff0fd76df)" style="fill: none; stroke: #ff0000; stroke-width: 0.72; stroke-linejoin: miter"/>
   </g>
   <g id="patch_21">
    <path d="M 360.097674 131.031976 
L 358.101524 131.031976 
" clip-path="url(#p9ff0fd76df)" style="fill: none; stroke: #ff0000; stroke-width: 0.72; stroke-linejoin: miter"/>
   </g>
   <g id="patch_22">
    <path d="M 357.103449 131.031976 
L 355.107299 131.031976 
L 355.107299 126.0416 
L 357.103449 126.0416 
" clip-path="url(#p9ff0fd76df)" style="fill: none; stroke: #ff0000; stroke-width: 0.72; stroke-linejoin: miter"/>
   </g>
   <g id="patch_23">
    <path d="M 358.101524 126.0416 
L 360.097674 126.0416 
L 360.097674 136.022351 
L 358.101524 136.022351 
" clip-path="url(#p9ff0fd76df)" style="fill: none; stroke: #ff0000; stroke-width: 0.72; stroke-linejoin: miter"/>
   </g>
   <g id="patch_24">
    <path d="M 357.103449 136.022351 
L 355.107299 136.022351 
" clip-path="url(#p9ff0fd76df)" style="fill: none; stroke: #ff0000; stroke-width: 0.72; stroke-linejoin: miter"/>
   </g>
  </g>
 </g>
 <defs>
  <clipPath id="p9ff0fd76df">
   <rect x="0" y="0" width="1152" height="184.952092"/>
  </clipPath>
 </defs>
</svg>
