  0
SECTION
  2
HEADER
  9
$ACADVER
  1
AC1021
  9
$ACADMAINTVER
 70
25
  9
$DWGCODEPAGE
  3
ANSI_1252
  9
$LASTSAVEDBY
  1
ezdxf
  9
$INSBASE
 10
0.0
 20
0.0
 30
0.0
  9
$EXTMIN
 10
1e+20
 20
1e+20
 30
1e+20
  9
$EXTMAX
 10
-1e+20
 20
-1e+20
 30
-1e+20
  9
$LIMMIN
 10
0.0
 20
0.0
  9
$LIMMAX
 10
420.0
 20
297.0
  9
$ORTHOMODE
 70
0
  9
$REGENMODE
 70
1
  9
$FILLMODE
 70
1
  9
$QTEXTMODE
 70
0
  9
$MIRRTEXT
 70
1
  9
$LTSCALE
 40
1.0
  9
$ATTMODE
 70
1
  9
$TEXTSIZE
 40
2.5
  9
$TRACEWID
 40
1.0
  9
$TEXTSTYLE
  7
OpenSans
  9
$CLAYER
  8
0
  9
$CELTYPE
  6
ByLayer
  9
$CECOLOR
 62
256
  9
$CELTSCALE
 40
1.0
  9
$DISPSILH
 70
0
  9
$DIMSCALE
 40
1.0
  9
$DIMASZ
 40
0.175
  9
$DIMEXO
 40
0.125
  9
$DIMDLI
 40
3.75
  9
$DIMRND
 40
0.0
  9
$DIMDLE
 40
0.0
  9
$DIMEXE
 40
0.375
  9
$DIMTP
 40
0.0
  9
$DIMTM
 40
0.0
  9
$DIMTXT
 40
0.25
  9
$DIMCEN
 40
2.5
  9
$DIMTSZ
 40
0.0
  9
$DIMTOL
 70
0
  9
$DIMLIM
 70
0
  9
$DIMTIH
 70
0
  9
$DIMTOH
 70
0
  9
$DIMSE1
 70
0
  9
$DIMSE2
 70
0
  9
$DIMTAD
 70
1
  9
$DIMZIN
 70
12
  9
$DIMBLK
  1
ARCHTICK
  9
$DIMASO
 70
1
  9
$DIMSHO
 70
1
  9
$DIMPOST
  1

  9
$DIMAPOST
  1

  9
$DIMALT
 70
0
  9
$DIMALTD
 70
3
  9
$DIMALTF
 40
0.03937007874
  9
$DIMLFAC
 40
100.0
  9
$DIMTOFL
 70
1
  9
$DIMTVP
 40
0.0
  9
$DIMTIX
 70
0
  9
$DIMSOXD
 70
0
  9
$DIMSAH
 70
0
  9
$DIMBLK1
  1

  9
$DIMBLK2
  1

  9
$DIMSTYLE
  2
EZDXF
  9
$DIMCLRD
 70
0
  9
$DIMCLRE
 70
0
  9
$DIMCLRT
 70
0
  9
$DIMTFAC
 40
0.5
  9
$DIMGAP
 40
0.1
  9
$DIMJUST
 70
0
  9
$DIMSD1
 70
0
  9
$DIMSD2
 70
0
  9
$DIMTOLJ
 70
0
  9
$DIMTZIN
 70
8
  9
$DIMALTZ
 70
0
  9
$DIMALTTZ
 70
0
  9
$DIMUPT
 70
1
  9
$DIMDEC
 70
2
  9
$DIMTDEC
 70
2
  9
$DIMALTU
 70
2
  9
$DIMALTTD
 70
3
  9
$DIMTXSTY
  7
OpenSansCondensed-Light
  9
$DIMAUNIT
 70
0
  9
$DIMADEC
 70
2
  9
$DIMALTRND
 40
0.0
  9
$DIMAZIN
 70
3
  9
$DIMDSEP
 70
46
  9
$DIMATFIT
 70
3
  9
$DIMFRAC
 70
0
  9
$DIMLDRBLK
  1

  9
$DIMLUNIT
 70
2
  9
$DIMLWD
 70
-2
  9
$DIMLWE
 70
-2
  9
$DIMTMOVE
 70
2
  9
$DIMFXL
 40
1.0
  9
$DIMFXLON
 70
0
  9
$DIMJOGANG
 40
0.785398163397
  9
$DIMTFILL
 70
0
  9
$DIMTFILLCLR
 70
0
  9
$DIMARCSYM
 70
0
  9
$DIMLTYPE
  6

  9
$DIMLTEX1
  6

  9
$DIMLTEX2
  6

  9
$LUNITS
 70
2
  9
$LUPREC
 70
4
  9
$SKETCHINC
 40
1.0
  9
$FILLETRAD
 40
10.0
  9
$AUNITS
 70
0
  9
$AUPREC
 70
2
  9
$MENU
  1
.
  9
$ELEVATION
 40
0.0
  9
$PELEVATION
 40
0.0
  9
$THICKNESS
 40
0.0
  9
$LIMCHECK
 70
0
  9
$CHAMFERA
 40
0.0
  9
$CHAMFERB
 40
0.0
  9
$CHAMFERC
 40
0.0
  9
$CHAMFERD
 40
0.0
  9
$SKPOLY
 70
0
  9
$TDCREATE
 40
2461048.088229167
  9
$TDUCREATE
 40
2458532.153996898
  9
$TDUPDATE
 40
2461048.088229167
  9
$TDUUPDATE
 40
2458532.1544311
  9
$TDINDWG
 40
0.0
  9
$TDUSRTIMER
 40
0.0
  9
$USRTIMER
 70
1
  9
$ANGBASE
 50
0.0
  9
$ANGDIR
 70
0
  9
$PDMODE
 70
0
  9
$PDSIZE
 40
0.0
  9
$PLINEWID
 40
0.0
  9
$SPLFRAME
 70
0
  9
$SPLINETYPE
 70
6
  9
$SPLINESEGS
 70
8
  9
$HANDSEED
  5
BA
  9
$SURFTAB1
 70
6
  9
$SURFTAB2
 70
6
  9
$SURFTYPE
 70
6
  9
$SURFU
 70
6
  9
$SURFV
 70
6
  9
$UCSBASE
  2

  9
$UCSNAME
  2

  9
$UCSORG
 10
0.0
 20
0.0
 30
0.0
  9
$UCSXDIR
 10
1.0
 20
0.0
 30
0.0
  9
$UCSYDIR
 10
0.0
 20
1.0
 30
0.0
  9
$UCSORTHOREF
  2

  9
$UCSORTHOVIEW
 70
0
  9
$UCSORGTOP
 10
0.0
 20
0.0
 30
0.0
  9
$UCSORGBOTTOM
 10
0.0
 20
0.0
 30
0.0
  9
$UCSORGLEFT
 10
0.0
 20
0.0
 30
0.0
  9
$UCSORGRIGHT
 10
0.0
 20
0.0
 30
0.0
  9
$UCSORGFRONT
 10
0.0
 20
0.0
 30
0.0
  9
$UCSORGBACK
 10
0.0
 20
0.0
 30
0.0
  9
$PUCSBASE
  2

  9
$PUCSNAME
  2

  9
$PUCSORG
 10
0.0
 20
0.0
 30
0.0
  9
$PUCSXDIR
 10
1.0
 20
0.0
 30
0.0
  9
$PUCSYDIR
 10
0.0
 20
1.0
 30
0.0
  9
$PUCSORTHOREF
  2

  9
$PUCSORTHOVIEW
 70
0
  9
$PUCSORGTOP
 10
0.0
 20
0.0
 30
0.0
  9
$PUCSORGBOTTOM
 10
0.0
 20
0.0
 30
0.0
  9
$PUCSORGLEFT
 10
0.0
 20
0.0
 30
0.0
  9
$PUCSORGRIGHT
 10
0.0
 20
0.0
 30
0.0
  9
$PUCSORGFRONT
 10
0.0
 20
0.0
 30
0.0
  9
$PUCSORGBACK
 10
0.0
 20
0.0
 30
0.0
  9
$USERI1
 70
0
  9
$USERI2
 70
0
  9
$USERI3
 70
0
  9
$USERI4
 70
0
  9
$USERI5
 70
0
  9
$USERR1
 40
0.0
  9
$USERR2
 40
0.0
  9
$USERR3
 40
0.0
  9
$USERR4
 40
0.0
  9
$USERR5
 40
0.0
  9
$WORLDVIEW
 70
1
  9
$SHADEDGE
 70
3
  9
$SHADEDIF
 70
70
  9
$TILEMODE
 70
1
  9
$MAXACTVP
 70
64
  9
$PINSBASE
 10
0.0
 20
0.0
 30
0.0
  9
$PLIMCHECK
 70
0
  9
$PEXTMIN
 10
1e+20
 20
1e+20
 30
1e+20
  9
$PEXTMAX
 10
-1e+20
 20
-1e+20
 30
-1e+20
  9
$PLIMMIN
 10
0.0
 20
0.0
  9
$PLIMMAX
 10
420.0
 20
297.0
  9
$UNITMODE
 70
0
  9
$VISRETAIN
 70
1
  9
$PLINEGEN
 70
0
  9
$PSLTSCALE
 70
1
  9
$TREEDEPTH
 70
3020
  9
$CMLSTYLE
  2
Standard
  9
$CMLJUST
 70
0
  9
$CMLSCALE
 40
20.0
  9
$PROXYGRAPHICS
 70
1
  9
$MEASUREMENT
 70
1
  9
$CELWEIGHT
370
-1
  9
$ENDCAPS
280
0
  9
$JOINSTYLE
280
0
  9
$LWDISPLAY
290
0
  9
$INSUNITS
 70
6
  9
$HYPERLINKBASE
  1

  9
$STYLESHEET
  1

  9
$XEDIT
290
1
  9
$CEPSNTYPE
380
0
  9
$PSTYLEMODE
290
1
  9
$FINGERPRINTGUID
  2
{1CC00376-9E21-421C-BBAC-4268AD98BA98}
  9
$VERSIONGUID
  2
{0EB5D4C1-30A8-4DA4-9002-89C21DE59573}
  9
$EXTNAMES
290
1
  9
$PSVPSCALE
 40
0.0
  9
$OLESTARTUP
290
0
  9
$SORTENTS
280
127
  9
$INDEXCTL
280
0
  9
$HIDETEXT
280
1
  9
$XCLIPFRAME
290
1
  9
$HALOGAP
280
0
  9
$OBSCOLOR
 70
257
  9
$OBSLTYPE
280
0
  9
$INTERSECTIONDISPLAY
280
0
  9
$INTERSECTIONCOLOR
 70
257
  9
$DIMASSOC
280
2
  9
$PROJECTNAME
  1

  9
$CAMERADISPLAY
290
0
  9
$LENSLENGTH
 40
50.0
  9
$CAMERAHEIGHT
 40
0.0
  9
$STEPSPERSEC
 40
24.0
  9
$STEPSIZE
 40
100.0
  9
$3DDWFPREC
 40
2.0
  9
$PSOLWIDTH
 40
0.005
  9
$PSOLHEIGHT
 40
0.08
  9
$LOFTANG1
 40
1.570796326795
  9
$LOFTANG2
 40
1.570796326795
  9
$LOFTMAG1
 40
0.0
  9
$LOFTMAG2
 40
0.0
  9
$LOFTPARAM
 70
7
  9
$LOFTNORMALS
280
1
  9
$LATITUDE
 40
37.795
  9
$LONGITUDE
 40
-122.394
  9
$NORTHDIRECTION
 40
0.0
  9
$TIMEZONE
 70
-8000
  9
$LIGHTGLYPHDISPLAY
280
1
  9
$TILEMODELIGHTSYNCH
280
1
  9
$CMATERIAL
347
20
  9
$SOLIDHIST
280
0
  9
$SHOWHIST
280
1
  9
$DWFFRAME
280
2
  9
$DGNFRAME
280
2
  9
$REALWORLDSCALE
290
1
  9
$INTERFERECOLOR
 62
256
  9
$CSHADOW
280
0
  9
$SHADOWPLANELOCATION
 40
0.0
  0
ENDSEC
  0
SECTION
  2
CLASSES
  0
CLASS
  1
ACDBDICTIONARYWDFLT
  2
AcDbDictionaryWithDefault
  3
ObjectDBX Classes
 90
0
 91
0
280
0
281
0
  0
CLASS
  1
SUN
  2
AcDbSun
  3
SCENEOE
 90
1153
 91
0
280
0
281
0
  0
CLASS
  1
VISUALSTYLE
  2
AcDbVisualStyle
  3
ObjectDBX Classes
 90
4095
 91
0
280
0
281
0
  0
CLASS
  1
MATERIAL
  2
AcDbMaterial
  3
ObjectDBX Classes
 90
1153
 91
0
280
0
281
0
  0
CLASS
  1
SCALE
  2
AcDbScale
  3
ObjectDBX Classes
 90
1153
 91
0
280
0
281
0
  0
CLASS
  1
TABLESTYLE
  2
AcDbTableStyle
  3
ObjectDBX Classes
 90
4095
 91
0
280
0
281
0
  0
CLASS
  1
MLEADERSTYLE
  2
AcDbMLeaderStyle
  3
ACDB_MLEADERSTYLE_CLASS
 90
4095
 91
0
280
0
281
0
  0
CLASS
  1
DICTIONARYVAR
  2
AcDbDictionaryVar
  3
ObjectDBX Classes
 90
0
 91
0
280
0
281
0
  0
CLASS
  1
CELLSTYLEMAP
  2
AcDbCellStyleMap
  3
ObjectDBX Classes
 90
1152
 91
0
280
0
281
0
  0
CLASS
  1
MENTALRAYRENDERSETTINGS
  2
AcDbMentalRayRenderSettings
  3
SCENEOE
 90
1024
 91
0
280
0
281
0
  0
CLASS
  1
ACDBDETAILVIEWSTYLE
  2
AcDbDetailViewStyle
  3
ObjectDBX Classes
 90
1025
 91
0
280
0
281
0
  0
CLASS
  1
ACDBSECTIONVIEWSTYLE
  2
AcDbSectionViewStyle
  3
ObjectDBX Classes
 90
1025
 91
0
280
0
281
0
  0
CLASS
  1
RASTERVARIABLES
  2
AcDbRasterVariables
  3
ISM
 90
0
 91
0
280
0
281
0
  0
CLASS
  1
ACDBPLACEHOLDER
  2
AcDbPlaceHolder
  3
ObjectDBX Classes
 90
0
 91
0
280
0
281
0
  0
CLASS
  1
LAYOUT
  2
AcDbLayout
  3
ObjectDBX Classes
 90
0
 91
0
280
0
281
0
  0
ENDSEC
  0
SECTION
  2
TABLES
  0
TABLE
  2
VPORT
  5
8
330
0
100
AcDbSymbolTable
 70
1
  0
VPORT
  5
23
330
8
100
AcDbSymbolTableRecord
100
AcDbViewportTableRecord
  2
*Active
 70
0
 10
0.0
 20
0.0
 11
1.0
 21
1.0
 12
0.0
 22
0.0
 13
0.0
 23
0.0
 14
0.5
 24
0.5
 15
0.5
 25
0.5
 16
0.0
 26
0.0
 36
1.0
 17
0.0
 27
0.0
 37
0.0
 40
1000.0
 41
1.34
 42
50.0
 43
0.0
 44
0.0
 50
0.0
 51
0.0
 71
0
 72
1000
 73
1
 74
3
 75
0
 76
0
 77
0
 78
0
281
0
 65
0
146
0.0
  0
ENDTAB
  0
TABLE
  2
LTYPE
  5
2
330
0
100
AcDbSymbolTable
 70
21
  0
LTYPE
  5
24
330
2
100
AcDbSymbolTableRecord
100
AcDbLinetypeTableRecord
  2
ByBlock
 70
0
  3

 72
65
 73
0
 40
0.0
  0
LTYPE
  5
25
330
2
100
AcDbSymbolTableRecord
100
AcDbLinetypeTableRecord
  2
ByLayer
 70
0
  3

 72
65
 73
0
 40
0.0
  0
LTYPE
  5
26
330
2
100
AcDbSymbolTableRecord
100
AcDbLinetypeTableRecord
  2
Continuous
 70
0
  3

 72
65
 73
0
 40
0.0
  0
LTYPE
  5
2F
330
2
100
AcDbSymbolTableRecord
100
AcDbLinetypeTableRecord
  2
CENTER
 70
0
  3
Center ____ _ ____ _ ____ _ ____ _ ____ _ ____
 72
65
 73
4
 40
5.08
 49
3.175
 74
0
 49
-0.635
 74
0
 49
0.635
 74
0
 49
-0.635
 74
0
  0
LTYPE
  5
30
330
2
100
AcDbSymbolTableRecord
100
AcDbLinetypeTableRecord
  2
CENTERX2
 70
0
  3
Center (2x) ________  __  ________  __  ________
 72
65
 73
4
 40
8.89
 49
6.35
 74
0
 49
-0.635
 74
0
 49
1.27
 74
0
 49
-0.635
 74
0
  0
LTYPE
  5
31
330
2
100
AcDbSymbolTableRecord
100
AcDbLinetypeTableRecord
  2
CENTER2
 70
0
  3
Center (.5x) ____ _ ____ _ ____ _ ____ _ ____
 72
65
 73
4
 40
2.54
 49
1.587
 74
0
 49
-0.318
 74
0
 49
0.318
 74
0
 49
-0.318
 74
0
  0
LTYPE
  5
32
330
2
100
AcDbSymbolTableRecord
100
AcDbLinetypeTableRecord
  2
DASHED
 70
0
  3
Dashed __ __ __ __ __ __ __ __ __ __ __ __ __ _
 72
65
 73
2
 40
1.524
 49
1.27
 74
0
 49
-0.254
 74
0
  0
LTYPE
  5
33
330
2
100
AcDbSymbolTableRecord
100
AcDbLinetypeTableRecord
  2
DASHEDX2
 70
0
  3
Dashed (2x) ____  ____  ____  ____  ____  ____
 72
65
 73
2
 40
3.048
 49
2.54
 74
0
 49
-0.508
 74
0
  0
LTYPE
  5
34
330
2
100
AcDbSymbolTableRecord
100
AcDbLinetypeTableRecord
  2
DASHED2
 70
0
  3
Dashed (.5x) _ _ _ _ _ _ _ _ _ _ _ _ _ _
 72
65
 73
2
 40
0.762
 49
0.635
 74
0
 49
-0.127
 74
0
  0
LTYPE
  5
35
330
2
100
AcDbSymbolTableRecord
100
AcDbLinetypeTableRecord
  2
PHANTOM
 70
0
  3
Phantom ______  __  __  ______  __  __  ______
 72
65
 73
6
 40
6.35
 49
3.175
 74
0
 49
-0.635
 74
0
 49
0.635
 74
0
 49
-0.635
 74
0
 49
0.635
 74
0
 49
-0.635
 74
0
  0
LTYPE
  5
36
330
2
100
AcDbSymbolTableRecord
100
AcDbLinetypeTableRecord
  2
PHANTOMX2
 70
0
  3
Phantom (2x)____________    ____    ____    ____________
 72
65
 73
6
 40
10.795
 49
6.35
 74
0
 49
-0.635
 74
0
 49
1.27
 74
0
 49
-0.635
 74
0
 49
1.27
 74
0
 49
-0.635
 74
0
  0
LTYPE
  5
37
330
2
100
AcDbSymbolTableRecord
100
AcDbLinetypeTableRecord
  2
PHANTOM2
 70
0
  3
Phantom (.5x) ___ _ _ ___ _ _ ___ _ _ ___ _ _ ___
 72
65
 73
6
 40
3.175
 49
1.587
 74
0
 49
-0.318
 74
0
 49
0.318
 74
0
 49
-0.318
 74
0
 49
0.318
 74
0
 49
-0.318
 74
0
  0
LTYPE
  5
38
330
2
100
AcDbSymbolTableRecord
100
AcDbLinetypeTableRecord
  2
DASHDOT
 70
0
  3
Dash dot __ . __ . __ . __ . __ . __ . __ . __
 72
65
 73
4
 40
3.556
 49
2.54
 74
0
 49
-0.508
 74
0
 49
0.0
 74
0
 49
-0.508
 74
0
  0
LTYPE
  5
39
330
2
100
AcDbSymbolTableRecord
100
AcDbLinetypeTableRecord
  2
DASHDOTX2
 70
0
  3
Dash dot (2x) ____  .  ____  .  ____  .  ____
 72
65
 73
4
 40
6.096
 49
5.08
 74
0
 49
-0.508
 74
0
 49
0.0
 74
0
 49
-0.508
 74
0
  0
LTYPE
  5
3A
330
2
100
AcDbSymbolTableRecord
100
AcDbLinetypeTableRecord
  2
DASHDOT2
 70
0
  3
Dash dot (.5x) _ . _ . _ . _ . _ . _ . _ . _
 72
65
 73
4
 40
1.778
 49
1.27
 74
0
 49
-0.254
 74
0
 49
0.0
 74
0
 49
-0.254
 74
0
  0
LTYPE
  5
3B
330
2
100
AcDbSymbolTableRecord
100
AcDbLinetypeTableRecord
  2
DOT
 70
0
  3
Dot .  .  .  .  .  .  .  .  .  .  .  .  .  .  .  .
 72
65
 73
2
 40
0.508
 49
0.0
 74
0
 49
-0.508
 74
0
  0
LTYPE
  5
3C
330
2
100
AcDbSymbolTableRecord
100
AcDbLinetypeTableRecord
  2
DOTX2
 70
0
  3
Dot (2x) .    .    .    .    .    .    .    . 
 72
65
 73
2
 40
1.016
 49
0.0
 74
0
 49
-1.016
 74
0
  0
LTYPE
  5
3D
330
2
100
AcDbSymbolTableRecord
100
AcDbLinetypeTableRecord
  2
DOT2
 70
0
  3
Dot (.5) . . . . . . . . . . . . . . . . . . . 
 72
65
 73
2
 40
0.254
 49
0.0
 74
0
 49
-0.254
 74
0
  0
LTYPE
  5
3E
330
2
100
AcDbSymbolTableRecord
100
AcDbLinetypeTableRecord
  2
DIVIDE
 70
0
  3
Divide __ . . __ . . __ . . __ . . __ . . __
 72
65
 73
6
 40
4.064
 49
2.54
 74
0
 49
-0.508
 74
0
 49
0.0
 74
0
 49
-0.508
 74
0
 49
0.0
 74
0
 49
-0.508
 74
0
  0
LTYPE
  5
3F
330
2
100
AcDbSymbolTableRecord
100
AcDbLinetypeTableRecord
  2
DIVIDEX2
 70
0
  3
Divide (2x) ____  . .  ____  . .  ____  . .  ____
 72
65
 73
6
 40
6.604
 49
5.08
 74
0
 49
-0.508
 74
0
 49
0.0
 74
0
 49
-0.508
 74
0
 49
0.0
 74
0
 49
-0.508
 74
0
  0
LTYPE
  5
40
330
2
100
AcDbSymbolTableRecord
100
AcDbLinetypeTableRecord
  2
DIVIDE2
 70
0
  3
Divide(.5x) _ . _ . _ . _ . _ . _ . _ . _
 72
65
 73
6
 40
2.032
 49
1.27
 74
0
 49
-0.254
 74
0
 49
0.0
 74
0
 49
-0.254
 74
0
 49
0.0
 74
0
 49
-0.254
 74
0
  0
ENDTAB
  0
TABLE
  2
LAYER
  5
1
330
0
100
AcDbSymbolTable
 70
5
  0
LAYER
  5
27
330
1
100
AcDbSymbolTableRecord
100
AcDbLayerTableRecord
  2
0
 70
0
 62
7
  6
Continuous
370
-3
390
13
347
21
  0
LAYER
  5
28
330
1
100
AcDbSymbolTableRecord
100
AcDbLayerTableRecord
  2
Defpoints
 70
0
 62
7
  6
Continuous
290
0
370
-3
390
13
347
21
  0
LAYER
  5
8A
330
1
100
AcDbSymbolTableRecord
100
AcDbLayerTableRecord
  2
Layer
 70
0
 62
1
  6
Continuous
370
50
390
13
347
21
  0
LAYER
  5
8B
330
1
100
AcDbSymbolTableRecord
100
AcDbLayerTableRecord
  2
NumLabel
 70
0
 62
1
  6
Continuous
370
15
390
13
347
21
  0
LAYER
  5
B8
330
1
100
AcDbSymbolTableRecord
100
AcDbLayerTableRecord
  2
SplitMark
 70
0
 62
3
  6
Continuous
370
-3
390
13
347
21
  0
ENDTAB
  0
TABLE
  2
STYLE
  5
5
330
0
100
AcDbSymbolTable
 70
26
  0
STYLE
  5
29
330
5
100
AcDbSymbolTableRecord
100
AcDbTextStyleTableRecord
  2
Standard
 70
0
 40
0.0
 41
1.0
 50
0.0
 71
0
 42
2.5
  3
txt
  4

  0
STYLE
  5
41
330
5
100
AcDbSymbolTableRecord
100
AcDbTextStyleTableRecord
  2
OpenSans-Light
 70
0
 40
0.0
 41
1.0
 50
0.0
 71
0
 42
2.5
  3
OpenSans-Light.ttf
  4

  0
STYLE
  5
42
330
5
100
AcDbSymbolTableRecord
100
AcDbTextStyleTableRecord
  2
OpenSans-Light-Italic
 70
0
 40
0.0
 41
1.0
 50
0.0
 71
0
 42
2.5
  3
OpenSans-LightItalic.ttf
  4

  0
STYLE
  5
43
330
5
100
AcDbSymbolTableRecord
100
AcDbTextStyleTableRecord
  2
OpenSans
 70
0
 40
0.0
 41
1.0
 50
0.0
 71
0
 42
2.5
  3
OpenSans-Regular.ttf
  4

  0
STYLE
  5
44
330
5
100
AcDbSymbolTableRecord
100
AcDbTextStyleTableRecord
  2
OpenSans-Italic
 70
0
 40
0.0
 41
1.0
 50
0.0
 71
0
 42
2.5
  3
OpenSans-Italic.ttf
  4

  0
STYLE
  5
45
330
5
100
AcDbSymbolTableRecord
100
AcDbTextStyleTableRecord
  2
OpenSans-SemiBold
 70
0
 40
0.0
 41
1.0
 50
0.0
 71
0
 42
2.5
  3
OpenSans-SemiBold.ttf
  4

  0
STYLE
  5
46
330
5
100
AcDbSymbolTableRecord
100
AcDbTextStyleTableRecord
  2
OpenSans-SemiBoldItalic
 70
0
 40
0.0
 41
1.0
 50
0.0
 71
0
 42
2.5
  3
OpenSans-SemiBoldItalic.ttf
  4

  0
STYLE
  5
47
330
5
100
AcDbSymbolTableRecord
100
AcDbTextStyleTableRecord
  2
OpenSans-Bold
 70
0
 40
0.0
 41
1.0
 50
0.0
 71
0
 42
2.5
  3
OpenSans-Bold.ttf
  4

  0
STYLE
  5
48
330
5
100
AcDbSymbolTableRecord
100
AcDbTextStyleTableRecord
  2
OpenSans-BoldItalic
 70
0
 40
0.0
 41
1.0
 50
0.0
 71
0
 42
2.5
  3
OpenSans-BoldItalic.ttf
  4

  0
STYLE
  5
49
330
5
100
AcDbSymbolTableRecord
100
AcDbTextStyleTableRecord
  2
OpenSans-ExtraBold
 70
0
 40
0.0
 41
1.0
 50
0.0
 71
0
 42
2.5
  3
OpenSans-ExtraBold.ttf
  4

  0
STYLE
  5
4A
330
5
100
AcDbSymbolTableRecord
100
AcDbTextStyleTableRecord
  2
OpenSans-ExtraBoldItalic
 70
0
 40
0.0
 41
1.0
 50
0.0
 71
0
 42
2.5
  3
OpenSans-ExtraBoldItalic.ttf
  4

  0
STYLE
  5
4B
330
5
100
AcDbSymbolTableRecord
100
AcDbTextStyleTableRecord
  2
OpenSansCondensed-Bold
 70
0
 40
0.0
 41
1.0
 50
0.0
 71
0
 42
2.5
  3
OpenSansCondensed-Bold.ttf
  4

  0
STYLE
  5
4C
330
5
100
AcDbSymbolTableRecord
100
AcDbTextStyleTableRecord
  2
OpenSansCondensed-Light
 70
0
 40
0.0
 41
1.0
 50
0.0
 71
0
 42
2.5
  3
OpenSansCondensed-Light.ttf
  4

  0
STYLE
  5
4D
330
5
100
AcDbSymbolTableRecord
100
AcDbTextStyleTableRecord
  2
OpenSansCondensed-Italic
 70
0
 40
0.0
 41
1.0
 50
0.0
 71
0
 42
2.5
  3
OpenSansCondensed-LightItalic.ttf
  4

  0
STYLE
  5
4E
330
5
100
AcDbSymbolTableRecord
100
AcDbTextStyleTableRecord
  2
LiberationSans
 70
0
 40
0.0
 41
1.0
 50
0.0
 71
0
 42
2.5
  3
LiberationSans-Regular.ttf
  4

  0
STYLE
  5
4F
330
5
100
AcDbSymbolTableRecord
100
AcDbTextStyleTableRecord
  2
LiberationSans-Bold
 70
0
 40
0.0
 41
1.0
 50
0.0
 71
0
 42
2.5
  3
LiberationSans-Bold.ttf
  4

  0
STYLE
  5
50
330
5
100
AcDbSymbolTableRecord
100
AcDbTextStyleTableRecord
  2
LiberationSans-BoldItalic
 70
0
 40
0.0
 41
1.0
 50
0.0
 71
0
 42
2.5
  3
LiberationSans-BoldItalic.ttf
  4

  0
STYLE
  5
51
330
5
100
AcDbSymbolTableRecord
100
AcDbTextStyleTableRecord
  2
LiberationSans-Italic
 70
0
 40
0.0
 41
1.0
 50
0.0
 71
0
 42
2.5
  3
LiberationSans-Italic.ttf
  4

  0
STYLE
  5
52
330
5
100
AcDbSymbolTableRecord
100
AcDbTextStyleTableRecord
  2
LiberationSerif
 70
0
 40
0.0
 41
1.0
 50
0.0
 71
0
 42
2.5
  3
LiberationSerif-Regular.ttf
  4

  0
STYLE
  5
53
330
5
100
AcDbSymbolTableRecord
100
AcDbTextStyleTableRecord
  2
LiberationSerif-Bold
 70
0
 40
0.0
 41
1.0
 50
0.0
 71
0
 42
2.5
  3
LiberationSerif-Bold.ttf
  4

  0
STYLE
  5
54
330
5
100
AcDbSymbolTableRecord
100
AcDbTextStyleTableRecord
  2
LiberationSerif-BoldItalic
 70
0
 40
0.0
 41
1.0
 50
0.0
 71
0
 42
2.5
  3
LiberationSerif-BoldItalic.ttf
  4

  0
STYLE
  5
55
330
5
100
AcDbSymbolTableRecord
100
AcDbTextStyleTableRecord
  2
LiberationSerif-Italic
 70
0
 40
0.0
 41
1.0
 50
0.0
 71
0
 42
2.5
  3
LiberationSerif-Italic.ttf
  4

  0
STYLE
  5
56
330
5
100
AcDbSymbolTableRecord
100
AcDbTextStyleTableRecord
  2
LiberationMono
 70
0
 40
0.0
 41
1.0
 50
0.0
 71
0
 42
2.5
  3
LiberationMono-Regular.ttf
  4

  0
STYLE
  5
57
330
5
100
AcDbSymbolTableRecord
100
AcDbTextStyleTableRecord
  2
LiberationMono-Bold
 70
0
 40
0.0
 41
1.0
 50
0.0
 71
0
 42
2.5
  3
LiberationMono-Bold.ttf
  4

  0
STYLE
  5
58
330
5
100
AcDbSymbolTableRecord
100
AcDbTextStyleTableRecord
  2
LiberationMono-BoldItalic
 70
0
 40
0.0
 41
1.0
 50
0.0
 71
0
 42
2.5
  3
LiberationMono-BoldItalic.ttf
  4

  0
STYLE
  5
59
330
5
100
AcDbSymbolTableRecord
100
AcDbTextStyleTableRecord
  2
LiberationMono-Italic
 70
0
 40
0.0
 41
1.0
 50
0.0
 71
0
 42
2.5
  3
LiberationMono-Italic.ttf
  4

  0
ENDTAB
  0
TABLE
  2
VIEW
  5
7
330
0
100
AcDbSymbolTable
 70
0
  0
ENDTAB
  0
TABLE
  2
UCS
  5
6
330
0
100
AcDbSymbolTable
 70
0
  0
ENDTAB
  0
TABLE
  2
APPID
  5
3
330
0
100
AcDbSymbolTable
 70
3
  0
APPID
  5
2A
330
3
100
AcDbSymbolTableRecord
100
AcDbRegAppTableRecord
  2
ACAD
 70
0
  0
APPID
  5
B5
330
3
100
AcDbSymbolTableRecord
100
AcDbRegAppTableRecord
  2
HATCHBACKGROUNDCOLOR
 70
0
  0
APPID
  5
B6
330
3
100
AcDbSymbolTableRecord
100
AcDbRegAppTableRecord
  2
EZDXF
 70
0
  0
ENDTAB
  0
TABLE
  2
DIMSTYLE
  5
4
330
0
100
AcDbSymbolTable
 70
12
100
AcDbDimStyleTable
  0
DIMSTYLE
105
2B
330
4
100
AcDbSymbolTableRecord
100
AcDbDimStyleTableRecord
  2
Standard
 70
0
 40
1.0
 41
2.5
 42
0.625
 43
3.75
 44
1.25
 45
0.0
 46
0.0
 47
0.0
 48
0.0
 49
2.5
140
2.5
141
2.5
142
0.0
143
0.03937007874
144
1.0
145
0.0
146
1.0
147
0.625
148
0.0
 69
0
 70
0
 71
0
 72
0
 73
0
 74
0
 75
0
 76
0
 77
1
 78
8
 79
3
170
0
171
3
172
1
173
0
174
0
175
0
176
0
177
0
178
0
179
2
271
2
272
2
273
2
274
3
275
0
276
0
277
2
278
44
279
0
280
0
281
0
282
0
283
0
284
8
285
0
286
0
288
0
289
3
290
0
371
-2
372
-2
  0
DIMSTYLE
105
73
330
4
100
AcDbSymbolTableRecord
100
AcDbDimStyleTableRecord
  2
EZDXF
 70
0
 40
1.0
 41
0.175
 42
0.125
 43
3.75
 44
0.375
 45
0.0
 46
0.0
 47
0.0
 48
0.0
 49
2.5
140
0.25
141
2.5
142
0.0
143
0.03937007874
144
100.0
145
0.0
146
0.5
147
0.1
148
0.0
 69
0
 70
0
 71
0
 72
0
 73
0
 74
0
 75
0
 76
0
 77
1
 78
12
 79
3
170
0
171
3
172
1
173
0
174
0
175
0
176
0
177
0
178
0
179
2
271
2
272
2
273
2
274
3
275
0
276
0
277
2
278
46
279
2
280
0
281
0
282
0
283
0
284
8
285
0
286
0
288
1
289
3
290
0
340
4C
342
74
371
-2
372
-2
  0
DIMSTYLE
105
7C
330
4
100
AcDbSymbolTableRecord
100
AcDbDimStyleTableRecord
  2
EZ_M_100_H25_CM
 70
0
 40
1.0
 41
0.25
 42
0.125
 43
3.75
 44
0.375
 45
0.0
 46
0.0
 47
0.0
 48
0.0
 49
2.5
140
0.25
141
2.5
142
0.125
143
0.03937007874
144
100.0
145
0.0
146
0.5
147
0.1
148
0.0
 69
0
 70
0
 71
0
 72
0
 73
0
 74
0
 75
0
 76
0
 77
1
 78
12
 79
3
170
0
171
3
172
1
173
0
174
0
175
0
176
0
177
0
178
0
179
2
271
2
272
2
273
2
274
3
275
0
276
0
277
2
278
46
279
2
280
0
281
0
282
0
283
0
284
8
285
0
286
0
288
1
289
3
290
0
340
4C
371
-2
372
-2
  0
DIMSTYLE
105
7D
330
4
100
AcDbSymbolTableRecord
100
AcDbDimStyleTableRecord
  2
EZ_M_50_H25_CM
 70
0
 40
1.0
 41
0.125
 42
0.0625
 43
3.75
 44
0.1875
 45
0.0
 46
0.0
 47
0.0
 48
0.0
 49
2.5
140
0.125
141
2.5
142
0.0625
143
0.03937007874
144
100.0
145
0.0
146
0.5
147
0.05
148
0.0
 69
0
 70
0
 71
0
 72
0
 73
0
 74
0
 75
0
 76
0
 77
1
 78
12
 79
3
170
0
171
3
172
1
173
0
174
0
175
0
176
0
177
0
178
0
179
2
271
2
272
2
273
2
274
3
275
0
276
0
277
2
278
46
279
2
280
0
281
0
282
0
283
0
284
8
285
0
286
0
288
1
289
3
290
0
340
4C
371
-2
372
-2
  0
DIMSTYLE
105
7E
330
4
100
AcDbSymbolTableRecord
100
AcDbDimStyleTableRecord
  2
EZ_M_25_H25_CM
 70
0
 40
1.0
 41
0.0625
 42
0.03125
 43
3.75
 44
0.09375
 45
0.0
 46
0.0
 47
0.0
 48
0.0
 49
2.5
140
0.0625
141
2.5
142
0.03125
143
0.03937007874
144
100.0
145
0.0
146
0.5
147
0.025
148
0.0
 69
0
 70
0
 71
0
 72
0
 73
0
 74
0
 75
0
 76
0
 77
1
 78
12
 79
3
170
0
171
3
172
1
173
0
174
0
175
0
176
0
177
0
178
0
179
2
271
2
272
2
273
2
274
3
275
0
276
0
277
2
278
46
279
2
280
0
281
0
282
0
283
0
284
8
285
0
286
0
288
1
289
3
290
0
340
4C
371
-2
372
-2
  0
DIMSTYLE
105
7F
330
4
100
AcDbSymbolTableRecord
100
AcDbDimStyleTableRecord
  2
EZ_M_20_H25_CM
 70
0
 40
1.0
 41
0.05
 42
0.025
 43
3.75
 44
0.07500000000000001
 45
0.0
 46
0.0
 47
0.0
 48
0.0
 49
2.5
140
0.05
141
2.5
142
0.025
143
0.03937007874
144
100.0
145
0.0
146
0.5
147
0.020000000000000004
148
0.0
 69
0
 70
0
 71
0
 72
0
 73
0
 74
0
 75
0
 76
0
 77
1
 78
12
 79
3
170
0
171
3
172
1
173
0
174
0
175
0
176
0
177
0
178
0
179
2
271
2
272
2
273
2
274
3
275
0
276
0
277
2
278
46
279
2
280
0
281
0
282
0
283
0
284
8
285
0
286
0
288
1
289
3
290
0
340
4C
371
-2
372
-2
  0
DIMSTYLE
105
80
330
4
100
AcDbSymbolTableRecord
100
AcDbDimStyleTableRecord
  2
EZ_M_10_H25_CM
 70
0
 40
1.0
 41
0.025
 42
0.0125
 43
3.75
 44
0.037500000000000006
 45
0.0
 46
0.0
 47
0.0
 48
0.0
 49
2.5
140
0.025
141
2.5
142
0.0125
143
0.03937007874
144
100.0
145
0.0
146
0.5
147
0.010000000000000002
148
0.0
 69
0
 70
0
 71
0
 72
0
 73
0
 74
0
 75
0
 76
0
 77
1
 78
12
 79
3
170
0
171
3
172
1
173
0
174
0
175
0
176
0
177
0
178
0
179
2
271
2
272
2
273
2
274
3
275
0
276
0
277
2
278
46
279
2
280
0
281
0
282
0
283
0
284
8
285
0
286
0
288
1
289
3
290
0
340
4C
371
-2
372
-2
  0
DIMSTYLE
105
81
330
4
100
AcDbSymbolTableRecord
100
AcDbDimStyleTableRecord
  2
EZ_M_5_H25_CM
 70
0
 40
1.0
 41
0.0125
 42
0.00625
 43
3.75
 44
0.018750000000000003
 45
0.0
 46
0.0
 47
0.0
 48
0.0
 49
2.5
140
0.0125
141
2.5
142
0.00625
143
0.03937007874
144
100.0
145
0.0
146
0.5
147
0.005000000000000001
148
0.0
 69
0
 70
0
 71
0
 72
0
 73
0
 74
0
 75
0
 76
0
 77
1
 78
12
 79
3
170
0
171
3
172
1
173
0
174
0
175
0
176
0
177
0
178
0
179
2
271
2
272
2
273
2
274
3
275
0
276
0
277
2
278
46
279
2
280
0
281
0
282
0
283
0
284
8
285
0
286
0
288
1
289
3
290
0
340
4C
371
-2
372
-2
  0
DIMSTYLE
105
82
330
4
100
AcDbSymbolTableRecord
100
AcDbDimStyleTableRecord
  2
EZ_M_1_H25_CM
 70
0
 40
1.0
 41
0.0025
 42
0.00125
 43
3.75
 44
0.00375
 45
0.0
 46
0.0
 47
0.0
 48
0.0
 49
2.5
140
0.0025
141
2.5
142
0.00125
143
0.03937007874
144
100.0
145
0.0
146
0.5
147
0.001
148
0.0
 69
0
 70
0
 71
0
 72
0
 73
0
 74
0
 75
0
 76
0
 77
1
 78
12
 79
3
170
0
171
3
172
1
173
0
174
0
175
0
176
0
177
0
178
0
179
2
271
2
272
2
273
2
274
3
275
0
276
0
277
2
278
46
279
2
280
0
281
0
282
0
283
0
284
8
285
0
286
0
288
1
289
3
290
0
340
4C
371
-2
372
-2
  0
DIMSTYLE
105
83
330
4
100
AcDbSymbolTableRecord
100
AcDbDimStyleTableRecord
  2
EZ_RADIUS
 70
0
 40
1.0
 41
0.25
 42
0.125
 43
3.75
 44
0.375
 45
0.0
 46
0.0
 47
0.0
 48
0.0
 49
2.5
140
0.25
141
0.0
142
0.0
143
0.03937007874
144
100.0
145
0.0
146
0.5
147
0.1
148
0.0
 69
0
 70
0
 71
0
 72
0
 73
0
 74
0
 75
0
 76
0
 77
1
 78
12
 79
3
170
0
171
3
172
0
173
0
174
0
175
0
176
0
177
0
178
0
179
2
271
2
272
2
273
2
274
3
275
0
276
0
277
2
278
46
279
1
280
0
281
0
282
0
283
0
284
8
285
0
286
0
288
1
289
3
290
0
340
4C
342
84
371
-2
372
-2
  0
DIMSTYLE
105
88
330
4
100
AcDbSymbolTableRecord
100
AcDbDimStyleTableRecord
  2
EZ_RADIUS_INSIDE
 70
0
 40
1.0
 41
0.25
 42
0.125
 43
3.75
 44
0.375
 45
0.0
 46
0.0
 47
0.0
 48
0.0
 49
2.5
140
0.25
141
0.0
142
0.0
143
0.03937007874
144
100.0
145
0.0
146
0.5
147
0.1
148
0.0
 69
0
 70
0
 71
0
 72
0
 73
0
 74
0
 75
0
 76
0
 77
0
 78
12
 79
3
170
0
171
3
172
0
173
0
174
1
175
0
176
0
177
0
178
0
179
2
271
2
272
2
273
2
274
3
275
0
276
0
277
2
278
46
279
0
280
0
281
0
282
0
283
0
284
8
285
0
286
0
288
1
289
0
290
0
340
4C
342
84
371
-2
372
-2
  0
DIMSTYLE
105
89
330
4
100
AcDbSymbolTableRecord
100
AcDbDimStyleTableRecord
  2
EZ_CURVED
 70
0
 40
1.0
 41
0.25
 42
0.125
 43
3.75
 44
0.375
 45
0.0
 46
0.0
 47
0.0
 48
0.0
 49
2.5
140
0.25
141
2.5
142
0.0
143
0.03937007874
144
100.0
145
0.0
146
0.5
147
0.1
148
0.0
 69
0
 70
0
 71
0
 72
0
 73
0
 74
0
 75
0
 76
0
 77
1
 78
12
 79
2
 90
2
170
0
171
3
172
1
173
0
174
0
175
0
176
0
177
0
178
0
179
2
271
2
272
2
273
2
274
3
275
0
276
0
277
2
278
46
279
2
280
0
281
0
282
0
283
0
284
8
285
0
286
0
288
1
289
3
290
0
340
4C
371
-2
372
-2
  0
ENDTAB
  0
TABLE
  2
BLOCK_RECORD
  5
9
330
0
100
AcDbSymbolTable
 70
5
  0
BLOCK_RECORD
  5
17
330
9
100
AcDbSymbolTableRecord
100
AcDbBlockTableRecord
  2
*Model_Space
340
1A
 70
0
280
1
281
0
  0
BLOCK_RECORD
  5
1B
330
9
100
AcDbSymbolTableRecord
100
AcDbBlockTableRecord
  2
*Paper_Space
340
1E
 70
0
280
1
281
0
  0
BLOCK_RECORD
  5
74
330
9
100
AcDbSymbolTableRecord
100
AcDbBlockTableRecord
  2
_ARCHTICK
340
0
 70
0
280
1
281
0
  0
BLOCK_RECORD
  5
78
330
9
100
AcDbSymbolTableRecord
100
AcDbBlockTableRecord
  2
_CLOSEDFILLED
340
0
 70
0
280
1
281
0
  0
BLOCK_RECORD
  5
84
330
9
100
AcDbSymbolTableRecord
100
AcDbBlockTableRecord
  2
_CLOSEDBLANK
340
0
 70
0
280
1
281
0
  0
ENDTAB
  0
ENDSEC
  0
SECTION
  2
BLOCKS
  0
BLOCK
  5
18
330
17
100
AcDbEntity
  8
0
100
AcDbBlockBegin
  2
*Model_Space
 70
0
 10
0.0
 20
0.0
 30
0.0
  3
*Model_Space
  1

  0
ENDBLK
  5
19
330
17
100
AcDbEntity
  8
0
100
AcDbBlockEnd
  0
BLOCK
  5
1C
330
1B
100
AcDbEntity
  8
0
100
AcDbBlockBegin
  2
*Paper_Space
 70
0
 10
0.0
 20
0.0
 30
0.0
  3
*Paper_Space
  1

  0
ENDBLK
  5
1D
330
1B
100
AcDbEntity
  8
0
100
AcDbBlockEnd
  0
BLOCK
  5
75
330
74
100
AcDbEntity
  8
0
100
AcDbBlockBegin
  2
_ARCHTICK
 70
0
 10
0.0
 20
0.0
 30
0.0
  3
_ARCHTICK
  1

  0
LWPOLYLINE
  5
77
330
74
100
AcDbEntity
  8
0
  6
BYBLOCK
 62
0
100
AcDbPolyline
 90
2
 70
0
 43
0.15
 10
-0.5
 20
-0.5
 10
0.5
 20
0.5
  0
ENDBLK
  5
76
330
74
100
AcDbEntity
  8
0
100
AcDbBlockEnd
  0
BLOCK
  5
79
330
78
100
AcDbEntity
  8
0
100
AcDbBlockBegin
  2
_CLOSEDFILLED
 70
0
 10
0.0
 20
0.0
 30
0.0
  3
_CLOSEDFILLED
  1

  0
SOLID
  5
7B
330
78
100
AcDbEntity
  8
0
  6
BYBLOCK
 62
0
100
AcDbTrace
 10
-1.0
 20
0.16439898372402537
 30
0.0
 11
0.0
 21
0.0
 31
0.0
 12
-1.0
 22
-0.16439898372402537
 32
0.0
 13
-1.0
 23
-0.16439898372402537
 33
0.0
  0
ENDBLK
  5
7A
330
78
100
AcDbEntity
  8
0
100
AcDbBlockEnd
  0
BLOCK
  5
85
330
84
100
AcDbEntity
  8
0
100
AcDbBlockBegin
  2
_CLOSEDBLANK
 70
0
 10
0.0
 20
0.0
 30
0.0
  3
_CLOSEDBLANK
  1

  0
LWPOLYLINE
  5
87
330
84
100
AcDbEntity
  8
0
  6
BYBLOCK
 62
0
100
AcDbPolyline
 90
3
 70
1
 10
-1.0
 20
0.16439898372402537
 10
0.0
 20
0.0
 10
-1.0
 20
-0.16439898372402537
  0
ENDBLK
  5
86
330
84
100
AcDbEntity
  8
0
100
AcDbBlockEnd
  0
ENDSEC
  0
SECTION
  2
ENTITIES
  0
LWPOLYLINE
  5
8C
330
17
100
AcDbEntity
  8
Layer
100
AcDbPolyline
 90
261
 70
1
 10
1104.8800771692115
 20
103.29295451751995
 10
1104.6416647421001
 20
103.38087991643934
 10
1103.9549849342027
 20
103.63354080081729
 10
1102.858503740697
 20
104.03515575921661
 10
1101.3689446369622
 20
104.5777117911906
 10
1099.497597503619
 20
105.25510527219669
 10
1097.2529357198869
 20
106.06263934481377
 10
1094.6420141796937
 20
106.99713397863495
 10
1091.6729901104518
 20
108.0563312471959
 10
1088.3561049913633
 20
109.23597940013559
 10
1084.6982057471355
 20
110.5280357260962
 10
1080.7005508067855
 20
111.92527973752955
 10
1076.3608462855973
 20
113.42526616641095
 10
1071.6798489519688
 20
115.0307196919382
 10
1066.663128273266
 20
116.74486511988013
 10
1061.318509623302
 20
118.56933736245063
 10
1055.654551817197
 20
120.50355041941954
 10
1049.6790456456188
 20
122.54610087515313
 10
1043.3990036832988
 20
124.69522021539085
 10
1036.8216903518655
 20
126.94967573819336
 10
1029.9553223689973
 20
129.30868272357898
 10
1022.8089324355437
 20
131.76954334212678
 10
1015.3900440822209
 20
134.32903822358634
 10
1007.7058118618367
 20
136.98560520225996
 10
999.7656753669626
 20
139.73728378936232
 10
991.5792764549791
 20
142.58045231094962
 10
983.1542798614859
 20
145.51078209260416
 10
974.4978716755378
 20
148.52594531030886
 10
965.6200331731185
 20
151.62361128515533
 10
956.5306497849365
 20
154.79938096709623
 10
947.2375479039177
 20
158.04881964995337
 10
937.7500666112453
 20
161.37019495888768
 10
928.081143801124
 20
164.75874045924292
 10
918.240625450612
 20
168.20522540032192
 10
908.2308297667637
 20
171.70334649439155
 10
898.0576022465863
 20
175.25638894455903
 10
887.7390833792431
 20
178.86600866349085
 10
877.2952843362038
 20
182.5212219839004
 10
866.7336783000179
 20
186.20709752156046
 10
856.0578562403825
 20
189.91896379773306
 10
845.2835112595824
 20
193.65522881433074
 10
835.5332262682109
 20
197.0204688124832
 10
835.2069693592377
 20
196.07518767475364
 10
834.1073862357289
 20
196.45470858834392
 10
823.1852359817549
 20
200.18616238296997
 10
812.1851987759605
 20
203.89361867285692
 10
801.1124949925864
 20
207.5752317496215
 10
789.9815436119326
 20
211.22020147301086
 10
778.7932881387691
 20
214.8090173423081
 10
767.5361574913375
 20
218.33443073884777
 10
756.2104305498763
 20
221.8018353639365
 10
744.8322415208643
 20
225.2087696919492
 10
733.4084227229928
 20
228.5401259070833
 10
721.9305819972946
 20
231.78819157168297
 10
710.4015452363813
 20
234.95926811287006
 10
698.8438611011795
 20
238.0498681164271
 10
687.2701148962908
 20
241.03409939441732
 10
675.6604354429162
 20
243.8887786669106
 10
663.9863098169191
 20
246.61942277575343
 10
652.2444402561413
 20
249.24955747918708
 10
640.456053408544
 20
251.79252712100896
 10
628.6412428337882
 20
254.24347564469224
 10
616.8096683788131
 20
256.59177276188666
 10
604.9654886606027
 20
258.82823450686556
 10
593.1074968558828
 20
260.9437778192213
 10
581.2273118259362
 20
262.9355714906679
 10
569.3197643938466
 20
264.81202389881213
 10
557.394359907251
 20
266.5844032059284
 10
545.4681978257199
 20
268.25359771516344
 10
533.5511452562649
 20
269.8114922948374
 10
521.6434284103191
 20
271.2511885772608
 10
509.7428910481769
 20
272.572190624646
 10
497.8491852373603
 20
273.7783800986832
 10
485.96629945196213
 20
274.87707930537147
 10
474.1062191931572
 20
275.87508105892505
 10
462.28599327608345
 20
276.7713851413235
 10
450.5144111261094
 20
277.55531524452704
 10
438.7860789143336
 20
278.2190685704834
 10
427.0930076622634
 20
278.7680781378383
 10
415.43876250788503
 20
279.2161901377343
 10
403.83899282977376
 20
279.5740891128608
 10
392.3138247830363
 20
279.84350727589083
 10
380.8816767808837
 20
280.01606786350544
 10
369.5485057118794
 20
280.0757643809511
 10
358.30206322136183
 20
280.0107702641867
 10
347.1235216404427
 20
279.8296680792292
 10
336.0150724754473
 20
279.5587862979097
 10
325.0078624266205
 20
279.21739505172496
 10
314.1377536779016
 20
278.79687849160763
 10
303.4160376680886
 20
278.2700448981623
 10
292.82624367837036
 20
277.6167907797304
 10
282.34315690050204
 20
276.8393835487332
 10
271.9541528899991
 20
275.96199538433984
 10
261.67656438972756
 20
275.0167641058733
 10
251.5552769640998
 20
274.01668655104663
 10
241.62847367412422
 20
272.93768826124096
 10
231.88830964756065
 20
271.73735190043055
 10
222.2875631192214
 20
270.4013366086539
 10
212.79520022759658
 20
268.96473402148183
 10
203.43617357703116
 20
267.4765350861178
 10
194.2673306403838
 20
265.94870385403186
 10
185.32031414058667
 20
264.34988656850146
 10
176.58113448817727
 20
262.6453448442918
 10
168.0180122242926
 20
260.82896335986726
 10
159.61483397319688
 20
258.92090009811284
 10
151.3779812532788
 20
256.9462015725946
 10
143.32858629200416
 20
254.92059298888995
 10
135.48946095210823
 20
252.8461585233222
 10
127.87585670969196
 20
250.71347416388707
 10
120.48797360528948
 20
248.50838063844927
 10
113.31444074219189
 20
246.2237265031405
 10
106.34277964384484
 20
243.8645653377751
 10
99.57007249071637
 20
241.4460203118325
 10
93.00593913359972
 20
238.98287229961247
 10
86.66375805012058
 20
236.4812897315201
 10
80.54968800408528
 20
233.93914049728923
 10
74.6618592865081
 20
231.35620915345623
 10
69.00106412279672
 20
228.7410942548397
 10
63.577924114659936
 20
226.10387401639878
 10
58.40363786581105
 20
223.44449424118585
 10
53.47821216818414
 20
220.75687789676803
 10
48.79515209617375
 20
218.04189619752825
 10
44.35387826133086
 20
215.30950958387592
 10
40.161340003190276
 20
212.56995481608172
 10
36.22431052632612
 20
209.8273759379725
 10
32.54826495661939
 20
207.08519604409693
 10
29.137976698838656
 20
204.34425792596966
 10
25.98893511568366
 20
201.59795067366088
 10
23.08443837919407
 20
198.8439884691883
 10
20.414950119682373
 20
196.1061641324815
 10
18.00217424904349
 20
193.4279921900146
 10
15.884810736922475
 20
190.82903107361543
 10
14.07878808482451
 20
188.28261472053663
 10
12.564777179754174
 20
185.74911256694404
 10
11.315215974616194
 20
183.22558019463736
 10
10.320075080873039
 20
180.7455760730257
 10
9.585253034406094
 20
178.33528178313733
 10
9.115038709094335
 20
175.99702563180526
 10
8.903791979847085
 20
173.59481313988053
 10
8.956812848720745
 20
171.57626092518205
 10
9.27741864734827
 20
169.52402597508484
 10
9.896785521119796
 20
167.54592344961992
 10
10.844003744113877
 20
165.59602577720025
 10
12.12044583831829
 20
163.65781438646877
 10
13.70526032771221
 20
161.74797106712592
 10
15.594205498059637
 20
159.88996723658502
 10
17.811439525639344
 20
158.09177126526242
 10
20.379899913645147
 20
156.34695681708604
 10
23.29702203986011
 20
154.64968532265837
 10
26.550849460689506
 20
153.00476735691285
 10
30.144677755341093
 20
151.4200703167174
 10
34.092495232833244
 20
149.89379776730092
 10
38.39737795146357
 20
148.41495186356528
 10
43.04810091952248
 20
146.9745194997692
 10
48.031446896509465
 20
145.570979515904
 10
53.33873313513817
 20
144.2066900700783
 10
58.96385195621991
 20
142.88457240237196
 10
64.90337760894334
 20
141.60818675132776
 10
71.15774505833178
 20
140.37897292237457
 10
77.72445637103573
 20
139.19409698139222
 10
84.59398747536369
 20
138.0526723706467
 10
91.75890805279022
 20
136.9603211908178
 10
99.22268512978707
 20
135.92312071113767
 10
106.9903702917922
 20
134.9383427617349
 10
115.05770759027217
 20
133.99900937185396
 10
123.41510399022275
 20
133.10361488938253
 10
132.0597335129554
 20
132.2547655694013
 10
140.99242519787776
 20
131.45054829589756
 10
150.20840681301866
 20
130.68437464602033
 10
159.69719108986686
 20
129.9527665752234
 10
169.4515780518542
 20
129.256970233581
 10
179.4675519558781
 20
128.59626551695374
 10
189.73818094482004
 20
127.9674751449099
 10
200.25444866079988
 20
127.37008606019981
 10
211.01017915154907
 20
126.8050580147973
 10
222.00102241594658
 20
126.27114124991257
 10
224.75036748728365
 20
126.14712090408436
 10
224.70530425938466
 20
125.14813676732777
 10
233.1774021295896
 20
124.76596591398591
 10
244.61635595627578
 20
124.28663404822338
 10
256.26487551510104
 20
123.83479051362012
 10
268.1158267914127
 20
123.40946657100324
 10
280.15897080400936
 20
123.01000022454636
 10
292.3844359550435
 20
122.6395661520997
 10
304.78666151521617
 20
122.3023875835143
 10
317.3627668548387
 20
121.99975939373873
 10
330.1079333980752
 20
121.72989813313404
 10
343.015856962202
 20
121.49277219293404
 10
356.08340514788057
 20
121.28870363530942
 10
369.3102258005807
 20
121.1138707754751
 10
382.6931170568669
 20
120.95823759490861
 10
396.22080566809956
 20
120.80885981910102
 10
409.8724357331302
 20
120.65736797353412
 10
423.6247658049382
 20
120.50811828747547
 10
437.46685704547775
 20
120.3758322435544
 10
451.4049708617158
 20
120.26896377655352
 10
465.445888491962
 20
120.17507660276023
 10
479.5747128796655
 20
120.07272736000635
 10
493.75963659972126
 20
119.9574371295508
 10
507.97995340240584
 20
119.84632123930585
 10
522.2383646581724
 20
119.7531333822676
 10
536.5383531255181
 20
119.67159359330454
 10
550.8654394486657
 20
119.59136559837944
 10
565.2014038393035
 20
119.51869093309446
 10
579.5462760616241
 20
119.46595292092606
 10
593.9106897294018
 20
119.4266549996416
 10
608.2873378648493
 20
119.37754776871036
 10
622.6475806690435
 20
119.30677897144004
 10
636.9671954789798
 20
119.22418796346977
 10
651.2420818512308
 20
119.14120766032704
 10
665.4711175909878
 20
119.05329081027855
 10
679.6374826506784
 20
118.9513561997257
 10
693.7187852377924
 20
118.84279025118713
 10
707.7089940037622
 20
118.74553446059156
 10
721.6192168215912
 20
118.6657407978894
 10
735.4555931931604
 20
118.59078249515018
 10
749.2081515610853
 20
118.50486248167485
 10
762.8619433754004
 20
118.40200066427191
 10
776.4080007989814
 20
118.27959593108683
 10
789.8381172862826
 20
118.12870444484999
 10
803.1355313015802
 20
117.93838344313103
 10
816.2788059549728
 20
117.70582765680676
 10
829.2507265675722
 20
117.43370119029267
 10
842.0381492598304
 20
117.12396360891334
 10
854.6253821933948
 20
116.77707741961542
 10
866.9961722583992
 20
116.39817392590717
 10
879.1395398104069
 20
115.996129972764
 10
891.0498194951382
 20
115.57627976578962
 10
902.7203787768563
 20
115.14004662219641
 10
914.1423254772183
 20
114.6889992725016
 10
925.3084688695506
 20
114.22614331473905
 10
936.2130937281245
 20
113.75196219602383
 10
946.8481069958561
 20
113.26510616337603
 10
957.2031760825765
 20
112.76602452698476
 10
967.2697468884745
 20
112.25747940752467
 10
977.0413549391455
 20
111.74044281820187
 10
986.5090503772833
 20
111.21450293230734
 10
995.6629340026585
 20
110.68151534312533
 10
1004.4951742017192
 20
110.14507644716704
 10
1012.9994253142371
 20
109.60703170064924
 10
1021.1675666827995
 20
109.0687911170529
 10
1028.9916755558802
 20
108.53450841794108
 10
1036.468154036315
 20
108.00838438824333
 10
1043.5952743827743
 20
107.48964504574664
 10
1050.3649199123952
 20
106.97418745800884
 10
1056.763623097052
 20
106.46256322422475
 10
1062.7801375087192
 20
105.96179419063198
 10
1068.4085809277076
 20
105.48064253525891
 10
1073.6466843056876
 20
105.02587032270522
 10
1078.493237725751
 20
104.60262499767711
 10
1082.9492509027523
 20
104.21391912873318
 10
1087.0150922432063
 20
103.85906051737095
 10
1090.6867985292547
 20
103.53566459249973
 10
1093.9572484900914
 20
103.24365242049468
 10
1096.8204042514842
 20
102.98562526974376
 10
1099.2723741232207
 20
102.76425557297185
 10
1101.3084435562075
 20
102.58050941174842
 10
1102.9219450352298
 20
102.43504313068283
 10
1104.1039844955737
 20
102.32887389610978
 10
1104.8410237530227
 20
102.26298788705495
 10
1105.0959382185667
 20
102.24024110983541
  0
LWPOLYLINE
  5
8D
330
17
100
AcDbEntity
  8
Layer
100
AcDbPolyline
 90
5
 70
0
 10
728.1161212492243
 20
225.88067878074725
 10
724.267259971153
 20
226.96983756722585
 10
725.3564187576317
 20
230.81869884529715
 10
729.205280035703
 20
229.72954005881854
 10
728.1161212492243
 20
225.88067878074725
  0
LWPOLYLINE
  5
8E
330
17
100
AcDbEntity
  8
Layer
100
AcDbPolyline
 90
5
 70
0
 10
314.2259621409382
 20
274.79638563128384
 10
310.230784463543
 20
274.6000305293816
 10
310.0344293616408
 20
278.5952082067768
 10
314.02960703903597
 20
278.79156330867903
 10
314.2259621409382
 20
274.79638563128384
  0
LWPOLYLINE
  5
8F
330
17
100
AcDbEntity
  8
Layer
100
AcDbPolyline
 90
5
 70
0
 10
126.13689674539725
 20
246.01996416791516
 10
122.30402304263268
 20
244.87581418707535
 10
121.15987306179287
 20
248.70868788983992
 10
124.99274676455744
 20
249.85283787067974
 10
126.13689674539725
 20
246.01996416791516
  0
LWPOLYLINE
  5
90
330
17
100
AcDbEntity
  8
Layer
100
AcDbPolyline
 90
5
 70
0
 10
30.906490948919952
 20
199.25143380460685
 10
29.39958811853556
 20
197.9364266336076
 10
26.11207019103739
 20
201.70368370956857
 10
27.61897302142178
 20
203.01869088056782
 10
30.906490948919952
 20
199.25143380460685
  0
LWPOLYLINE
  5
91
330
17
100
AcDbEntity
  8
Layer
100
AcDbPolyline
 90
5
 70
0
 10
20.138172675222307
 20
162.55493662575734
 10
21.79385069058904
 20
161.4330051174061
 10
18.98902191971095
 20
157.2938100789893
 10
17.33334390434422
 20
158.41574158734053
 10
20.138172675222307
 20
162.55493662575734
  0
LWPOLYLINE
  5
92
330
17
100
AcDbEntity
  8
Layer
100
AcDbPolyline
 90
5
 70
0
 10
168.13352435854281
 20
133.3526064847148
 10
172.12485030627667
 20
133.08932492640454
 10
171.8615687479664
 20
129.0979989786707
 10
167.87024280023255
 20
129.36128053698096
 10
168.13352435854281
 20
133.3526064847148
  0
LINE
  5
93
330
17
100
AcDbEntity
  8
Layer
100
AcDbLine
 10
1086.3156142444273
 20
109.95672887999149
 30
0.0
 11
1085.9788980354358
 21
109.0151227019094
 31
0.0
  0
LINE
  5
94
330
17
100
AcDbEntity
  8
Layer
100
AcDbLine
 10
1085.203811125566
 20
105.01983218255039
 30
0.0
 11
1085.163899482479
 21
104.02062896961215
 31
0.0
  0
LINE
  5
95
330
17
100
AcDbEntity
  8
Layer
100
AcDbLine
 10
1067.4118612822997
 20
116.48903320369774
 30
0.0
 11
1067.080195550084
 21
115.54563623419138
 31
0.0
  0
LINE
  5
96
330
17
100
AcDbEntity
  8
Layer
100
AcDbLine
 10
1065.291139046958
 20
106.750544131078
 30
0.0
 11
1065.2278854337985
 21
105.75254664589968
 31
0.0
  0
LINE
  5
97
330
17
100
AcDbEntity
  8
Layer
100
AcDbLine
 10
991.7635340997144
 20
142.51645890664508
 30
0.0
 11
991.4360836520407
 21
141.57159055374174
 31
0.0
  0
LINE
  5
98
330
17
100
AcDbEntity
  8
Layer
100
AcDbLine
 10
985.4853431395538
 20
112.27284454551689
 30
0.0
 11
985.4182373577125
 21
111.27509867905415
 31
0.0
  0
LWPOLYLINE
  5
99
330
17
100
AcDbEntity
  8
Layer
100
AcDbPolyline
 90
300
 70
1
 10
489.554
 20
200.0
 10
489.54040974320793
 20
201.29340041676218
 10
489.49964497390647
 20
202.58622970431102
 10
489.43172369267023
 20
203.87791698562776
 10
489.3366758916249
 20
205.1678918879715
 10
489.21454354120374
 20
206.4555847947396
 10
489.0653805716145
 20
207.74042709699444
 10
488.88925284902547
 20
209.02185144454518
 10
488.6862381464808
 20
210.2992919964735
 10
488.4564261095579
 20
211.57218467099307
 10
488.19991821678286
 20
212.83996739453224
 10
487.91682773482023
 20
214.10208034992982
 10
487.6072796684574
 20
215.35796622363463
 10
487.2714107054064
 20
216.60707045179947
 10
486.90936915594625
 20
217.84884146516092
 10
486.5213148874332
 20
219.08273093259675
 10
486.1074192537082
 20
220.30819400325353
 10
485.6678650194313
 20
221.52468954713748
 10
485.20284627937855
 20
222.73168039406218
 10
484.7125683727346
 20
223.92863357084775
 10
484.19724779242125
 20
225.11502053666698
 10
483.65711208949983
 20
226.2903174164339
 10
483.0923997726914
 20
227.45400523213237
 10
482.5033602030577
 20
228.60557013198212
 10
481.8902534838905
 20
229.74450361734125
 10
481.25335034585737
 20
230.87030276724494
 10
480.59293202745454
 20
231.98247046048107
 10
479.90929015081986
 20
233.08051559510517
 10
479.20272659296074
 20
234.16395330529699
 10
478.47355335245373
 20
235.23230517546372
 10
477.7220924116748
 20
236.28509945149483
 10
476.9486755946209
 20
237.32187124907543
 10
476.1536444203859
 20
238.34216275896597
 10
475.3373499523553
 20
239.34552344915812
 10
474.5001526431865
 20
240.3315102638168
 10
473.64242217564316
 20
241.2996878189213
 10
472.7645372993537
 20
242.2496285945187
 10
471.86688566356605
 20
243.1809131235043
 10
470.9498636459726
 20
244.09313017684687
 10
470.013876177681
 20
244.98587694517565
 10
469.05933656440834
 20
245.85875921664956
 10
468.0866663039763
 20
246.71139155103015
 10
467.0962949001901
 20
247.54339744988118
 10
466.08865967318167
 20
248.35440952281957
 10
465.06420556630104
 20
249.1440696497449
 10
464.0233849496424
 20
249.9120291389749
 10
462.96665742028955
 20
250.65794888121815
 10
461.8944895993716
 20
251.38149949931488
 10
460.8073549260153
 20
252.08236149368093
 10
459.7057334482884
 20
252.76022538338975
 10
458.5901116112236
 20
253.4147918428302
 10
457.46098204201814
 20
254.04577183388062
 10
456.3188433325033
 20
254.65288673353982
 10
455.16419981898093
 20
255.235868456959
 10
453.99756135952185
 20
255.79445957582078
 10
452.81944310882767
 20
256.328413432012
 10
451.6303652907524
 20
256.8374942465412
 10
450.43085296858675
 20
257.32147722365187
 10
449.22143581320444
 20
257.78014865008606
 10
448.0026478691748
 20
258.21330598945394
 10
446.77502731894367
 20
258.62075797166835
 10
445.5391162451871
 20
259.00232467740415
 10
444.2954603914429
 20
259.35783761754567
 10
443.04460892112576
 20
259.68713980758656
 10
441.78711417503206
 20
259.99008583695
 10
440.5235314274418
 20
260.2665419331977
 10
439.254418640925
 20
260.5163860211001
 10
437.9803362199612
 20
260.73950777654136
 10
436.70184676348055
 20
260.9358086752355
 10
435.41951481643616
 20
261.1052020362316
 10
434.1339066205167
 20
261.2476130601902
 10
432.84558986411014
 20
261.3629788624121
 10
431.55513343162846
 20
261.4512485006067
 10
430.26310715230454
 20
261.5123829973867
 10
428.97008154857116
 20
261.5463553574793
 10
427.6766275841349
 20
261.5531505796467
 10
426.38331641185414
 20
261.53276566331
 10
425.09071912153445
 20
261.48520960987446
 10
423.79940648775107
 20
261.41050341875444
 10
422.50994871781114
 20
261.30868007810096
 10
421.22291519996617
 20
261.1797845502348
 10
419.9388742519862
 20
261.0238737517925
 10
418.6583928702066
 20
260.84101652859357
 10
417.3820364791585
 20
260.6312936252401
 10
416.11036868189336
 20
260.3947976494623
 10
414.8439510111116
 20
260.1316330312255
 10
413.5833426812053
 20
259.84191597661663
 10
412.32910034132556
 20
259.5257744165312
 10
411.08177782958126
 20
259.18334795018234
 10
409.84192592848007
 20
258.814787783458
 10
408.61009212171814
 20
258.42025666215227
 10
407.3868203524271
 20
257.9999288001019
 10
406.17265078298374
 20
257.553989802258
 10
404.9681195564897
 20
257.08263658272847
 10
403.77375856002556
 20
256.5860772778257
 10
402.5900951897848
 20
256.06453115416025
 10
401.4176521181902
 20
255.51822851181802
 10
400.25694706309656
 20
254.9474105826669
 10
399.10849255918106
 20
254.35232942383522
 10
397.9727957316223
 20
253.73324780641053
 10
396.85035807216815
 20
253.09043909940715
 10
395.7416752176911
 20
252.42418714905438
 10
394.64723673132903
 20
251.73478615345766
 10
393.5675258863078
 20
251.02254053268925
 10
392.5030194525415
 20
250.28776479436476
 10
391.4541874861041
 20
249.53078339476542
 10
390.42149312166623
 20
248.75193059556744
 10
389.4053923679877
 20
247.95155031624128
 10
388.40633390655694
 20
247.12999598218673
 10
387.4247588934658
 20
246.28763036867
 10
386.46110076460775
 20
245.42482544063245
 10
385.5157850442842
 20
244.54196218844132
 10
384.5892291573057
 20
243.6394304596552
 10
383.6818422446682
 20
242.71762878687818
 10
382.7940249828884
 20
241.77696421177922
 10
381.92616940707603
 20
240.8178521053539
 10
381.07865873782225
 20
239.84071598450828
 10
380.25186721198014
 20
238.84598732504588
 10
379.44615991741244
 20
237.83410537113986
 10
378.6618926317788
 20
236.80551694137552
 10
377.89941166543457
 20
235.7606762314474
 10
377.15905370850976
 20
234.70004461359966
 10
376.4411456822362
 20
233.62409043289665
 10
375.7460045945884
 20
232.53328880041525
 10
375.0739374003016
 20
231.42812138344905
 10
374.4252408653294
 20
230.30907619281768
 10
373.8002014358
 20
229.17664736737487
 10
373.1990951115299
 20
228.03133495581073
 10
372.6221873241502
 20
226.87364469584443
 10
372.06973281989906
 20
225.70408779090442
 10
371.54197554713335
 20
224.52318068439556
 10
371.0391485486078
 20
223.33144483165216
 10
370.56147385856974
 20
222.12940646967812
 10
370.1091624047152
 20
220.91759638477524
 10
369.6824139150492
 20
219.69654967816325
 10
369.28141682969124
 20
218.46680552969386
 10
368.9063482176657
 20
217.22890695976437
 10
368.55737369871304
 20
215.98340058953497
 10
368.2346473701568
 20
214.73083639955632
 10
367.93831173885854
 20
213.47176748691362
 10
367.6684976582909
 20
212.20674982099442
 10
367.4253242707562
 20
210.9363419979883
 10
367.2088989547768
 20
209.66110499422646
 10
367.0193172776797
 20
208.38160191847038
 10
366.85666295339644
 20
207.09839776325882
 10
366.7210078054978
 20
205.81205915542304
 10
366.6124117354782
 20
204.5231541058804
 10
366.530922696305
 20
203.2322517588166
 10
366.47657667124406
 20
201.93992214036768
 10
366.44939765797
 20
200.6467359069126
 10
366.44939765797
 20
199.3532640930874
 10
366.47657667124406
 20
198.06007785963234
 10
366.530922696305
 20
196.76774824118343
 10
366.6124117354782
 20
195.4768458941196
 10
366.7210078054978
 20
194.18794084457696
 10
366.85666295339644
 20
192.9016022367412
 10
367.0193172776797
 20
191.61839808152965
 10
367.2088989547768
 20
190.33889500577357
 10
367.4253242707562
 20
189.06365800201172
 10
367.6684976582909
 20
187.79325017900558
 10
367.93831173885854
 20
186.52823251308638
 10
368.2346473701568
 20
185.26916360044368
 10
368.55737369871304
 20
184.01659941046503
 10
368.9063482176657
 20
182.77109304023566
 10
369.28141682969124
 20
181.53319447030614
 10
369.6824139150492
 20
180.30345032183678
 10
370.1091624047152
 20
179.08240361522476
 10
370.56147385856974
 20
177.8705935303219
 10
371.0391485486078
 20
176.66855516834784
 10
371.54197554713335
 20
175.47681931560444
 10
372.06973281989906
 20
174.2959122090956
 10
372.62218732415016
 20
173.12635530415557
 10
373.1990951115299
 20
171.96866504418927
 10
373.8002014358
 20
170.82335263262516
 10
374.4252408653294
 20
169.69092380718234
 10
375.07393740030165
 20
168.57187861655092
 10
375.7460045945884
 20
167.46671119958472
 10
376.4411456822362
 20
166.37590956710338
 10
377.15905370850976
 20
165.29995538640037
 10
377.89941166543457
 20
164.2393237685526
 10
378.6618926317788
 20
163.1944830586245
 10
379.44615991741244
 20
162.16589462886014
 10
380.25186721198014
 20
161.15401267495415
 10
381.07865873782225
 20
160.1592840154917
 10
381.92616940707603
 20
159.18214789464608
 10
382.7940249828884
 20
158.22303578822078
 10
383.6818422446682
 20
157.28237121312182
 10
384.5892291573057
 20
156.3605695403448
 10
385.5157850442842
 20
155.4580378115587
 10
386.46110076460775
 20
154.57517455936758
 10
387.4247588934658
 20
153.71236963133
 10
388.40633390655694
 20
152.87000401781327
 10
389.4053923679877
 20
152.04844968375872
 10
390.42149312166623
 20
151.24806940443258
 10
391.4541874861041
 20
150.46921660523458
 10
392.5030194525415
 20
149.71223520563524
 10
393.5675258863078
 20
148.97745946731075
 10
394.64723673132903
 20
148.26521384654234
 10
395.7416752176911
 20
147.57581285094562
 10
396.85035807216815
 20
146.90956090059285
 10
397.97279573162234
 20
146.26675219358947
 10
399.10849255918106
 20
145.64767057616476
 10
400.2569470630966
 20
145.05258941733308
 10
401.41765211819023
 20
144.48177148818198
 10
402.59009518978473
 20
143.9354688458398
 10
403.77375856002556
 20
143.41392272217428
 10
404.9681195564897
 20
142.91736341727156
 10
406.17265078298374
 20
142.44601019774197
 10
407.3868203524271
 20
142.00007119989812
 10
408.61009212171814
 20
141.57974333784776
 10
409.84192592848
 20
141.18521221654206
 10
411.08177782958126
 20
140.81665204981766
 10
412.32910034132556
 20
140.4742255834688
 10
413.5833426812053
 20
140.15808402338337
 10
414.8439510111116
 20
139.86836696877452
 10
416.1103686818934
 20
139.6052023505377
 10
417.38203647915856
 20
139.3687063747599
 10
418.6583928702066
 20
139.15898347140646
 10
419.93887425198625
 20
138.9761262482075
 10
421.22291519996617
 20
138.8202154497652
 10
422.5099487178111
 20
138.69131992189904
 10
423.799406487751
 20
138.58949658124556
 10
425.0907191215344
 20
138.51479039012557
 10
426.38331641185414
 20
138.46723433669
 10
427.6766275841349
 20
138.44684942035332
 10
428.97008154857116
 20
138.4536446425207
 10
430.26310715230454
 20
138.4876170026133
 10
431.55513343162846
 20
138.5487514993933
 10
432.84558986411014
 20
138.6370211375879
 10
434.1339066205167
 20
138.7523869398098
 10
435.41951481643616
 20
138.89479796376838
 10
436.70184676348055
 20
139.06419132476452
 10
437.9803362199612
 20
139.2604922234586
 10
439.25441864092505
 20
139.4836139788999
 10
440.5235314274418
 20
139.73345806680229
 10
441.78711417503206
 20
140.00991416304998
 10
443.0446089211257
 20
140.31286019241344
 10
444.2954603914428
 20
140.64216238245433
 10
445.539116245187
 20
140.99767532259582
 10
446.7750273189436
 20
141.37924202833165
 10
448.0026478691748
 20
141.78669401054603
 10
449.22143581320444
 20
142.2198513499139
 10
450.43085296858675
 20
142.6785227763481
 10
451.6303652907524
 20
143.16250575345882
 10
452.81944310882767
 20
143.67158656798802
 10
453.99756135952185
 20
144.20554042417925
 10
455.16419981898093
 20
144.764131543041
 10
456.3188433325034
 20
145.3471132664602
 10
457.46098204201814
 20
145.95422816611938
 10
458.5901116112236
 20
146.58520815716977
 10
459.7057334482884
 20
147.23977461661025
 10
460.80735492601525
 20
147.91763850631904
 10
461.8944895993715
 20
148.61850050068512
 10
462.96665742028955
 20
149.34205111878185
 10
464.0233849496424
 20
150.0879708610251
 10
465.06420556630104
 20
150.8559303502551
 10
466.08865967318167
 20
151.6455904771804
 10
467.0962949001901
 20
152.45660255011882
 10
468.0866663039763
 20
153.28860844896985
 10
469.05933656440834
 20
154.14124078335044
 10
470.013876177681
 20
155.01412305482435
 10
470.9498636459726
 20
155.90686982315313
 10
471.86688566356605
 20
156.81908687649573
 10
472.7645372993537
 20
157.75037140548133
 10
473.6424221756431
 20
158.70031218107866
 10
474.5001526431864
 20
159.66848973618318
 10
475.3373499523552
 20
160.65447655084188
 10
476.1536444203859
 20
161.657837241034
 10
476.9486755946209
 20
162.67812875092454
 10
477.7220924116748
 20
163.71490054850514
 10
478.47355335245373
 20
164.76769482453628
 10
479.20272659296074
 20
165.83604669470301
 10
479.90929015081986
 20
166.91948440489483
 10
480.59293202745454
 20
168.01752953951893
 10
481.25335034585737
 20
169.12969723275506
 10
481.8902534838905
 20
170.25549638265875
 10
482.5033602030577
 20
171.39442986801788
 10
483.0923997726914
 20
172.54599476786763
 10
483.6571120894999
 20
173.70968258356612
 10
484.19724779242125
 20
174.88497946333297
 10
484.7125683727346
 20
176.07136642915222
 10
485.2028462793785
 20
177.2683196059378
 10
485.6678650194313
 20
178.4753104528625
 10
486.1074192537082
 20
179.69180599674644
 10
486.5213148874332
 20
180.91726906740325
 10
486.90936915594625
 20
182.15115853483906
 10
487.2714107054064
 20
183.39292954820053
 10
487.6072796684574
 20
184.64203377636537
 10
487.91682773482023
 20
185.89791965007018
 10
488.19991821678286
 20
187.16003260546776
 10
488.4564261095579
 20
188.42781532900693
 10
488.6862381464808
 20
189.7007080035265
 10
488.88925284902547
 20
190.97814855545482
 10
489.0653805716145
 20
192.25957290300556
 10
489.21454354120374
 20
193.54441520526038
 10
489.3366758916249
 20
194.83210811202846
 10
489.43172369267023
 20
196.1220830143722
 10
489.49964497390647
 20
197.41377029568895
 10
489.54040974320793
 20
198.70659958323782
 10
489.554
 20
199.99999999999997
  0
LINE
  5
9A
330
17
100
AcDbEntity
  8
Layer
 62
7
100
AcDbLine
 10
24.30363874190573
 20
200.00000000000006
 30
0.0
 11
823.7301425062212
 21
199.99999999999994
 31
0.0
  0
LINE
  5
9B
330
17
100
AcDbEntity
  8
Layer
 62
7
100
AcDbLine
 10
182.08893949476885
 20
200.00000000000003
 30
0.0
 11
194.08893949476885
 21
200.00000000000003
 31
0.0
  0
LWPOLYLINE
  5
9C
330
17
100
AcDbEntity
  8
Layer
100
AcDbPolyline
 90
5
 70
0
 10
188.08893949476885
 20
205.00000000000003
 10
193.08893949476885
 20
200.00000000000003
 10
188.08893949476885
 20
195.00000000000003
 10
183.08893949476885
 20
200.00000000000003
 10
188.08893949476885
 20
205.00000000000003
  0
LINE
  5
9D
330
17
100
AcDbEntity
  8
Layer
 62
7
100
AcDbLine
 10
418.01689062406354
 20
200.0
 30
0.0
 11
430.01689062406354
 21
200.0
 31
0.0
  0
LWPOLYLINE
  5
9E
330
17
100
AcDbEntity
  8
Layer
100
AcDbPolyline
 90
5
 70
0
 10
424.01689062406354
 20
205.0
 10
429.01689062406354
 20
200.0
 10
424.01689062406354
 20
195.0
 10
419.01689062406354
 20
200.0
 10
424.01689062406354
 20
205.0
  0
LINE
  5
9F
330
17
100
AcDbEntity
  8
Layer
 62
7
100
AcDbLine
 10
653.9448417533583
 20
199.99999999999997
 30
0.0
 11
665.9448417533583
 21
199.99999999999997
 31
0.0
  0
LWPOLYLINE
  5
A0
330
17
100
AcDbEntity
  8
Layer
100
AcDbPolyline
 90
5
 70
0
 10
659.9448417533583
 20
204.99999999999997
 10
664.9448417533583
 20
199.99999999999997
 10
659.9448417533583
 20
194.99999999999997
 10
654.9448417533583
 20
199.99999999999997
 10
659.9448417533583
 20
204.99999999999997
  0
LINE
  5
A1
330
17
100
AcDbEntity
  8
Layer
 62
7
100
AcDbLine
 10
8.982729520228531
 20
174.49245896976612
 30
0.0
 11
1061.9427967105748
 21
106.03148808872388
 31
0.0
  0
LINE
  5
A2
330
17
100
AcDbEntity
  8
Layer
 62
7
100
AcDbLine
 10
217.47916759225052
 20
160.93651414297204
 30
0.0
 11
229.45388396966348
 21
160.15794643203282
 31
0.0
  0
LWPOLYLINE
  5
A3
330
17
100
AcDbEntity
  8
Layer
100
AcDbPolyline
 90
5
 70
0
 10
223.79092899384835
 20
165.53669544475784
 10
228.4559909382124
 20
160.22282707461108
 10
223.14212256806564
 20
155.55776513024702
 10
218.4770606237016
 20
160.87163350039378
 10
223.79092899384835
 20
165.53669544475784
  0
LINE
  5
A4
330
17
100
AcDbEntity
  8
Layer
 62
7
100
AcDbLine
 10
477.4760320376211
 20
144.03213351109085
 30
0.0
 11
489.45074841503407
 21
143.25356580015162
 31
0.0
  0
LWPOLYLINE
  5
A5
330
17
100
AcDbEntity
  8
Layer
100
AcDbPolyline
 90
5
 70
0
 10
483.78779343921894
 20
148.63231481287664
 10
488.452855383583
 20
143.31844644272988
 10
483.13898701343624
 20
138.65338449836582
 10
478.47392506907215
 20
143.9672528685126
 10
483.78779343921894
 20
148.63231481287664
  0
LINE
  5
A6
330
17
100
AcDbEntity
  8
Layer
100
AcDbLine
 10
428.0
 20
261.554
 30
0.0
 11
428.0
 21
262.554
 31
0.0
  0
LINE
  5
A7
330
17
100
AcDbEntity
  8
Layer
100
AcDbLine
 10
428.0
 20
138.446
 30
0.0
 11
428.0
 21
137.446
 31
0.0
  0
LINE
  5
A8
330
17
100
AcDbEntity
  8
Layer
100
AcDbLine
 10
489.554
 20
200.0
 30
0.0
 11
490.554
 21
200.0
 31
0.0
  0
LINE
  5
A9
330
17
100
AcDbEntity
  8
Layer
100
AcDbLine
 10
366.446
 20
200.0
 30
0.0
 11
365.446
 21
200.0
 31
0.0
  0
LINE
  5
AA
330
17
100
AcDbEntity
  8
Layer
 62
7
100
AcDbLine
 10
278.0
 20
123.08161243629793
 30
0.0
 11
278.0
 21
276.4725885742822
 31
0.0
  0
LINE
  5
AB
330
17
100
AcDbEntity
  8
Layer
 62
7
100
AcDbLine
 10
278.0
 20
172.71845408459242
 30
0.0
 11
278.0
 21
184.71845408459242
 31
0.0
  0
LWPOLYLINE
  5
AC
330
17
100
AcDbEntity
  8
Layer
100
AcDbPolyline
 90
5
 70
0
 10
273.0
 20
178.71845408459242
 10
278.0
 20
183.71845408459242
 10
283.0
 20
178.71845408459242
 10
278.0
 20
173.71845408459242
 10
273.0
 20
178.71845408459242
  0
LINE
  5
AD
330
17
100
AcDbEntity
  8
Layer
 62
7
100
AcDbLine
 10
278.0
 20
214.83574692598773
 30
0.0
 11
278.0
 21
226.83574692598773
 31
0.0
  0
LWPOLYLINE
  5
AE
330
17
100
AcDbEntity
  8
Layer
100
AcDbPolyline
 90
5
 70
0
 10
273.0
 20
220.83574692598773
 10
278.0
 20
225.83574692598773
 10
283.0
 20
220.83574692598773
 10
278.0
 20
215.83574692598773
 10
273.0
 20
220.83574692598773
  0
LINE
  5
AF
330
17
100
AcDbEntity
  8
Layer
 62
7
100
AcDbLine
 10
728.0
 20
118.63117302780594
 30
0.0
 11
728.0
 21
230.07063260830128
 31
0.0
  0
LINE
  5
B0
330
17
100
AcDbEntity
  8
Layer
 62
7
100
AcDbLine
 10
728.0
 20
153.5849838809793
 30
0.0
 11
728.0
 21
165.5849838809793
 31
0.0
  0
LWPOLYLINE
  5
B1
330
17
100
AcDbEntity
  8
Layer
100
AcDbPolyline
 90
5
 70
0
 10
723.0
 20
159.5849838809793
 10
728.0
 20
164.5849838809793
 10
733.0
 20
159.5849838809793
 10
728.0
 20
154.5849838809793
 10
723.0
 20
159.5849838809793
  0
LINE
  5
B2
330
17
100
AcDbEntity
  8
Layer
 62
7
100
AcDbLine
 10
728.0
 20
183.1168217551279
 30
0.0
 11
728.0
 21
195.1168217551279
 31
0.0
  0
LWPOLYLINE
  5
B3
330
17
100
AcDbEntity
  8
Layer
100
AcDbPolyline
 90
5
 70
0
 10
723.0
 20
189.1168217551279
 10
728.0
 20
194.1168217551279
 10
733.0
 20
189.1168217551279
 10
728.0
 20
184.1168217551279
 10
723.0
 20
189.1168217551279
  0
LWPOLYLINE
  5
B4
330
17
100
AcDbEntity
  8
NumLabel
 62
1
100
AcDbPolyline
 90
4
 70
0
 10
318.00000000000006
 20
150.0
 10
318.00000000000006
 20
155.0
 10
323.00000000000006
 20
155.0
 10
323.00000000000006
 20
145.0
  0
ENDSEC
  0
SECTION
  2
OBJECTS
  0
DICTIONARY
  5
A
330
0
100
AcDbDictionary
280
0
281
1
  3
ACAD_COLOR
350
B
  3
ACAD_GROUP
350
C
  3
ACAD_LAYOUT
350
D
  3
ACAD_MATERIAL
350
E
  3
ACAD_MLEADERSTYLE
350
F
  3
ACAD_MLINESTYLE
350
10
  3
ACAD_PLOTSETTINGS
350
11
  3
ACAD_PLOTSTYLENAME
350
12
  3
ACAD_SCALELIST
350
14
  3
ACAD_TABLESTYLE
350
15
  3
ACAD_VISUALSTYLE
350
16
  3
EZDXF_META
350
2D
  0
DICTIONARY
  5
B
330
A
100
AcDbDictionary
280
0
281
1
  0
DICTIONARY
  5
C
330
A
100
AcDbDictionary
280
0
281
1
  0
DICTIONARY
  5
D
330
A
100
AcDbDictionary
280
0
281
1
  3
Model
350
1A
  3
Layout1
350
1E
  0
DICTIONARY
  5
E
330
A
100
AcDbDictionary
280
0
281
1
  3
ByBlock
350
1F
  3
ByLayer
350
20
  3
Global
350
21
  0
DICTIONARY
  5
F
330
A
100
AcDbDictionary
280
0
281
1
  3
Standard
350
2C
  0
DICTIONARY
  5
10
330
A
100
AcDbDictionary
280
0
281
1
  3
Standard
350
22
  0
DICTIONARY
  5
11
330
A
100
AcDbDictionary
280
0
281
1
  0
ACDBDICTIONARYWDFLT
  5
12
330
A
100
AcDbDictionary
280
0
281
1
  3
Normal
350
13
100
AcDbDictionaryWithDefault
340
13
  0
ACDBPLACEHOLDER
  5
13
330
12
  0
DICTIONARY
  5
14
330
A
100
AcDbDictionary
280
0
281
1
  0
DICTIONARY
  5
15
330
A
100
AcDbDictionary
280
0
281
1
  0
DICTIONARY
  5
16
330
A
100
AcDbDictionary
280
0
281
1
  3
2dWireframe
350
5A
  3
Basic
350
5B
  3
Brighten
350
5C
  3
ColorChange
350
5D
  3
Conceptual
350
5E
  3
Dim
350
5F
  3
EdgeColorOff
350
60
  3
Facepattern
350
61
  3
Flat
350
62
  3
FlatWithEdges
350
63
  3
Gouraud
350
64
  3
GouraudWithEdges
350
65
  3
Hidden
350
66
  3
JitterOff
350
67
  3
Linepattern
350
68
  3
Modeling
350
69
  3
OverhangOff
350
6A
  3
Realistic
350
6B
  3
Shaded
350
6C
  3
Shaded with edges
350
6D
  3
Shades of Gray
350
6E
  3
Sketchy
350
6F
  3
Thicken
350
70
  3
Wireframe
350
71
  3
X-Ray
350
72
  0
LAYOUT
  5
1A
330
D
100
AcDbPlotSettings
  1

  2
Adobe PDF
  4
A3
  6

 40
7.5
 41
20.0
 42
7.5
 43
20.0
 44
420.0
 45
297.0
 46
0.0
 47
0.0
 48
0.0
 49
0.0
140
0.0
141
0.0
142
1.0
143
1.0
 70
1024
 72
1
 73
0
 74
5
  7

 75
16
 76
0
 77
2
 78
300
147
1.0
148
0.0
149
0.0
100
AcDbLayout
  1
Model
 70
1
 71
0
 10
0.0
 20
0.0
 11
420.0
 21
297.0
 12
0.0
 22
0.0
 32
0.0
 14
1e+20
 24
1e+20
 34
1e+20
 15
-1e+20
 25
-1e+20
 35
-1e+20
146
0.0
 13
0.0
 23
0.0
 33
0.0
 16
1.0
 26
0.0
 36
0.0
 17
0.0
 27
1.0
 37
0.0
 76
1
330
17
  0
LAYOUT
  5
1E
330
D
100
AcDbPlotSettings
  1

  2
Adobe PDF
  4
A3
  6

 40
7.5
 41
20.0
 42
7.5
 43
20.0
 44
420.0
 45
297.0
 46
0.0
 47
0.0
 48
0.0
 49
0.0
140
0.0
141
0.0
142
1.0
143
1.0
 70
0
 72
1
 73
0
 74
5
  7

 75
16
 76
0
 77
2
 78
300
147
1.0
148
0.0
149
0.0
100
AcDbLayout
  1
Layout1
 70
1
 71
1
 10
0.0
 20
0.0
 11
420.0
 21
297.0
 12
0.0
 22
0.0
 32
0.0
 14
1e+20
 24
1e+20
 34
1e+20
 15
-1e+20
 25
-1e+20
 35
-1e+20
146
0.0
 13
0.0
 23
0.0
 33
0.0
 16
1.0
 26
0.0
 36
0.0
 17
0.0
 27
1.0
 37
0.0
 76
1
330
1B
  0
MATERIAL
  5
1F
102
{ACAD_REACTORS
330
E
102
}
330
E
100
AcDbMaterial
  1
ByBlock
  2

 70
0
 40
1.0
 71
1
 41
1.0
 91
-1023410177
 42
1.0
 72
1
  3

 73
1
 74
1
 75
1
 44
0.5
 73
0
 45
1.0
 46
1.0
 77
1
  4

 78
1
 79
1
170
1
 48
1.0
171
1
  6

172
1
173
1
174
1
140
1.0
141
1.0
175
1
  7

176
1
177
1
178
1
143
1.0
179
1
  8

270
1
271
1
272
1
145
1.0
146
1.0
273
1
  9

274
1
275
1
276
1
 42
1.0
 72
1
  3

 73
1
 74
1
 75
1
 94
63
  0
MATERIAL
  5
20
102
{ACAD_REACTORS
330
E
102
}
330
E
100
AcDbMaterial
  1
ByLayer
  2

 70
0
 40
1.0
 71
1
 41
1.0
 91
-1023410177
 42
1.0
 72
1
  3

 73
1
 74
1
 75
1
 44
0.5
 73
0
 45
1.0
 46
1.0
 77
1
  4

 78
1
 79
1
170
1
 48
1.0
171
1
  6

172
1
173
1
174
1
140
1.0
141
1.0
175
1
  7

176
1
177
1
178
1
143
1.0
179
1
  8

270
1
271
1
272
1
145
1.0
146
1.0
273
1
  9

274
1
275
1
276
1
 42
1.0
 72
1
  3

 73
1
 74
1
 75
1
 94
63
  0
MATERIAL
  5
21
102
{ACAD_REACTORS
330
E
102
}
330
E
100
AcDbMaterial
  1
Global
  2

 70
0
 40
1.0
 71
1
 41
1.0
 91
-1023410177
 42
1.0
 72
1
  3

 73
1
 74
1
 75
1
 44
0.5
 73
0
 45
1.0
 46
1.0
 77
1
  4

 78
1
 79
1
170
1
 48
1.0
171
1
  6

172
1
173
1
174
1
140
1.0
141
1.0
175
1
  7

176
1
177
1
178
1
143
1.0
179
1
  8

270
1
271
1
272
1
145
1.0
146
1.0
273
1
  9

274
1
275
1
276
1
 42
1.0
 72
1
  3

 73
1
 74
1
 75
1
 94
63
  0
MLINESTYLE
  5
22
102
{ACAD_REACTORS
330
10
102
}
330
10
100
AcDbMlineStyle
  2
Standard
 70
0
  3

 62
256
 51
90.0
 52
90.0
 71
2
 49
0.5
 62
256
  6
BYLAYER
 49
-0.5
 62
256
  6
BYLAYER
  0
MLEADERSTYLE
  5
2C
102
{ACAD_REACTORS
330
F
102
}
330
F
100
AcDbMLeaderStyle
179
2
170
2
171
1
172
0
 90
2
 40
0.0
 41
0.0
173
1
 91
-1056964608
 92
-2
290
1
 42
2.0
291
1
 43
8.0
  3
Standard
 44
4.0
300

342
29
174
1
175
1
176
0
178
1
 93
-1056964608
 45
4.0
292
0
297
0
 46
4.0
 94
-1056964608
 47
1.0
 49
1.0
140
1.0
294
1
141
0.0
177
0
142
1.0
295
0
296
0
143
3.75
271
0
272
9
273
9
  0
DICTIONARY
  5
2D
330
A
100
AcDbDictionary
281
1
  3
CREATED_BY_EZDXF
350
2E
  3
WRITTEN_BY_EZDXF
350
B7
  0
DICTIONARYVAR
  5
2E
330
2D
100
DictionaryVariables
280
0
  1
1.3.0 @ 2026-01-06T17:07:03.783110+00:00
  0
VISUALSTYLE
  5
5A
102
{ACAD_REACTORS
330
16
102
}
330
16
100
AcDbVisualStyle
  2
2dWireframe
 70
4
 90
0
 40
0.6
 62
7
290
0
291
0
  0
VISUALSTYLE
  5
5B
102
{ACAD_REACTORS
330
16
102
}
330
16
100
AcDbVisualStyle
  2
Basic
 70
7
 90
1
 40
0.6
 62
7
290
0
291
1
  0
VISUALSTYLE
  5
5C
102
{ACAD_REACTORS
330
16
102
}
330
16
100
AcDbVisualStyle
  2
Brighten
 70
12
 90
2
 40
0.6
 62
7
290
0
291
1
  0
VISUALSTYLE
  5
5D
102
{ACAD_REACTORS
330
16
102
}
330
16
100
AcDbVisualStyle
  2
ColorChange
 70
16
 90
2
 40
0.6
 62
8
290
0
291
1
  0
VISUALSTYLE
  5
5E
102
{ACAD_REACTORS
330
16
102
}
330
16
100
AcDbVisualStyle
  2
Conceptual
 70
9
 90
3
 40
0.6
 62
7
290
0
291
0
  0
VISUALSTYLE
  5
5F
102
{ACAD_REACTORS
330
16
102
}
330
16
100
AcDbVisualStyle
  2
Dim
 70
11
 90
2
 40
0.6
 62
7
290
0
291
1
  0
VISUALSTYLE
  5
60
102
{ACAD_REACTORS
330
16
102
}
330
16
100
AcDbVisualStyle
  2
EdgeColorOff
 70
22
 90
2
 40
0.6
 62
7
290
0
291
1
  0
VISUALSTYLE
  5
61
102
{ACAD_REACTORS
330
16
102
}
330
16
100
AcDbVisualStyle
  2
Facepattern
 70
15
 90
2
 40
0.6
 62
7
290
0
291
1
  0
VISUALSTYLE
  5
62
102
{ACAD_REACTORS
330
16
102
}
330
16
100
AcDbVisualStyle
  2
Flat
 70
0
 90
2
 40
0.6
 62
7
290
0
291
1
  0
VISUALSTYLE
  5
63
102
{ACAD_REACTORS
330
16
102
}
330
16
100
AcDbVisualStyle
  2
FlatWithEdges
 70
1
 90
2
 40
0.6
 62
7
290
0
291
1
  0
VISUALSTYLE
  5
64
102
{ACAD_REACTORS
330
16
102
}
330
16
100
AcDbVisualStyle
  2
Gouraud
 70
2
 90
2
 40
0.6
 62
7
290
0
291
1
  0
VISUALSTYLE
  5
65
102
{ACAD_REACTORS
330
16
102
}
330
16
100
AcDbVisualStyle
  2
GouraudWithEdges
 70
3
 90
2
 40
0.6
 62
7
290
0
291
1
  0
VISUALSTYLE
  5
66
102
{ACAD_REACTORS
330
16
102
}
330
16
100
AcDbVisualStyle
  2
Hidden
 70
6
 90
1
 40
0.6
 62
7
290
0
291
0
  0
VISUALSTYLE
  5
67
102
{ACAD_REACTORS
330
16
102
}
330
16
100
AcDbVisualStyle
  2
JitterOff
 70
20
 90
2
 40
0.6
 62
7
290
0
291
1
  0
VISUALSTYLE
  5
68
102
{ACAD_REACTORS
330
16
102
}
330
16
100
AcDbVisualStyle
  2
Linepattern
 70
14
 90
2
 40
0.6
 62
7
290
0
291
1
  0
VISUALSTYLE
  5
69
102
{ACAD_REACTORS
330
16
102
}
330
16
100
AcDbVisualStyle
  2
Modeling
 70
10
 90
2
 40
0.6
 62
7
290
0
291
0
  0
VISUALSTYLE
  5
6A
102
{ACAD_REACTORS
330
16
102
}
330
16
100
AcDbVisualStyle
  2
OverhangOff
 70
21
 90
2
 40
0.6
 62
7
290
0
291
1
  0
VISUALSTYLE
  5
6B
102
{ACAD_REACTORS
330
16
102
}
330
16
100
AcDbVisualStyle
  2
Realistic
 70
8
 90
2
 40
0.6
 62
7
290
0
291
0
  0
VISUALSTYLE
  5
6C
102
{ACAD_REACTORS
330
16
102
}
330
16
100
AcDbVisualStyle
  2
Shaded
 70
27
 90
2
 40
0.6
 62
7
290
0
291
0
  0
VISUALSTYLE
  5
6D
102
{ACAD_REACTORS
330
16
102
}
330
16
100
AcDbVisualStyle
  2
Shaded with edges
 70
26
 90
2
 40
0.6
 62
7
290
0
291
0
  0
VISUALSTYLE
  5
6E
102
{ACAD_REACTORS
330
16
102
}
330
16
100
AcDbVisualStyle
  2
Shades of Gray
 70
23
 90
2
 40
0.6
 62
7
290
0
291
0
  0
VISUALSTYLE
  5
6F
102
{ACAD_REACTORS
330
16
102
}
330
16
100
AcDbVisualStyle
  2
Sketchy
 70
24
 90
1
 40
0.6
 62
7
290
0
291
0
  0
VISUALSTYLE
  5
70
102
{ACAD_REACTORS
330
16
102
}
330
16
100
AcDbVisualStyle
  2
Thicken
 70
13
 90
2
 40
0.6
 62
7
290
0
291
1
  0
VISUALSTYLE
  5
71
102
{ACAD_REACTORS
330
16
102
}
330
16
100
AcDbVisualStyle
  2
Wireframe
 70
5
 90
0
 40
0.6
 62
7
290
0
291
0
  0
VISUALSTYLE
  5
72
102
{ACAD_REACTORS
330
16
102
}
330
16
100
AcDbVisualStyle
  2
X-Ray
 70
25
 90
2
 40
0.5
 62
7
290
0
291
0
  0
DICTIONARYVAR
  5
B7
330
2D
100
DictionaryVariables
280
0
  1
1.3.0 @ 2026-01-06T17:07:03.990119+00:00
  0
ENDSEC
  0
EOF
