<?xml version="1.0" encoding="utf-8" standalone="no"?>
<!DOCTYPE svg PUBLIC "-//W3C//DTD SVG 1.1//EN"
  "http://www.w3.org/Graphics/SVG/1.1/DTD/svg11.dtd">
<svg xmlns:xlink="http://www.w3.org/1999/xlink" width="1152pt" height="168.509747pt" viewBox="0 0 1152 168.509747" xmlns="http://www.w3.org/2000/svg" version="1.1">
 <metadata>
  <rdf:RDF xmlns:dc="http://purl.org/dc/elements/1.1/" xmlns:cc="http://creativecommons.org/ns#" xmlns:rdf="http://www.w3.org/1999/02/22-rdf-syntax-ns#">
   <cc:Work>
    <dc:type rdf:resource="http://purl.org/dc/dcmitype/StillImage"/>
    <dc:date>2026-01-07T02:07:23.138022</dc:date>
    <dc:format>image/svg+xml</dc:format>
    <dc:creator>
     <cc:Agent>
      <dc:title>Matplotlib v3.10.1, https://matplotlib.org/</dc:title>
     </cc:Agent>
    </dc:creator>
   </cc:Work>
  </rdf:RDF>
 </metadata>
 <defs>
  <style type="text/css">*{stroke-linejoin: round; stroke-linecap: butt}</style>
 </defs>
 <g id="figure_1">
  <g id="patch_1">
   <path d="M 0 168.509747 
L 1152 168.509747 
L 1152 0 
L 0 0 
z
" style="fill: #ffffff"/>
  </g>
  <g id="axes_1">
   <g id="patch_2">
    <path d="M 0 168.509747 
L 1152 168.509747 
L 1152 0 
L 0 0 
z
" style="fill: #212830"/>
   </g>
   <g id="patch_3">
    <path d="M 1099.424482 160.447799 
L 1063.735582 149.80929 
L 1035.525102 141.213732 
L 1005.370071 131.687957 
L 974.372084 121.621051 
L 870.47845 87.541847 
L 840.787703 78.144967 
L 840.269666 79.80315 
L 829.26092 76.405088 
L 809.12232 70.358282 
L 789.073195 64.570835 
L 769.076158 59.046382 
L 749.116529 53.805051 
L 729.138298 48.84171 
L 709.148604 44.145764 
L 689.13742 39.735614 
L 669.084043 35.601238 
L 649.000483 31.762241 
L 628.864709 28.19549 
L 608.699941 24.918654 
L 588.485728 21.927164 
L 568.23071 19.217079 
L 547.916979 16.785274 
L 527.578291 14.62981 
L 507.216061 12.760029 
L 486.841294 11.166813 
L 466.483044 9.864665 
L 446.167945 8.854546 
L 425.891508 8.148226 
L 405.679476 7.749568 
L 385.556597 7.659534 
L 365.538267 7.905169 
L 345.649014 8.482493 
L 325.904548 9.400055 
L 306.350644 10.671616 
L 287.013418 12.318199 
L 267.919694 14.335326 
L 249.130623 16.736027 
L 230.703111 19.506813 
L 221.667772 21.025729 
L 212.767724 22.640019 
L 204.00756 24.347301 
L 195.410785 26.136514 
L 186.988595 28.012504 
L 178.75263 29.966045 
L 162.900004 34.066676 
L 155.32834 36.194741 
L 148.007242 38.369945 
L 140.946114 40.587062 
L 134.141224 42.844126 
L 127.597684 45.133944 
L 115.271493 49.792155 
L 109.500581 52.163948 
L 103.98465 54.558093 
L 98.737572 56.975727 
L 93.760663 59.415961 
L 89.080173 61.86635 
L 84.723552 64.315658 
L 80.698708 66.76302 
L 77.040977 69.150764 
L 73.767488 71.466061 
L 70.866973 73.69476 
L 66.078652 77.830139 
L 62.3716 81.592165 
L 59.516122 84.946801 
L 57.315608 88.012913 
L 55.642939 90.865327 
L 54.378593 93.520158 
L 53.445129 96.009259 
L 52.796219 98.331962 
L 52.584096 99.30822 
L 52.384107 101.619924 
L 52.407022 103.65606 
L 52.76407 105.851195 
L 53.101665 106.97955 
L 53.562523 108.127503 
L 54.164022 109.299034 
L 54.918625 110.493308 
L 55.832036 111.703192 
L 56.912928 112.920982 
L 58.178715 114.141426 
L 59.66189 115.366197 
L 61.399524 116.603499 
L 63.402567 117.856086 
L 65.681332 119.113772 
L 68.298685 120.364688 
L 71.310531 121.613265 
L 74.712611 122.869893 
L 78.457182 124.118037 
L 82.541547 125.316443 
L 91.575109 127.572549 
L 101.462626 129.572855 
L 112.182817 131.418467 
L 123.473945 133.133342 
L 142.044138 135.498057 
L 155.56325 136.997593 
L 170.275109 138.393062 
L 186.31734 139.723819 
L 203.640617 140.961271 
L 222.142603 142.056865 
L 241.687558 142.991718 
L 257.973904 143.630594 
L 257.910425 145.366654 
L 272.333365 145.852901 
L 304.170625 146.65777 
L 336.580689 147.262741 
L 391.424001 147.899633 
L 424.477614 148.150977 
L 502.175219 148.454312 
L 590.744848 148.462222 
L 700.88816 148.289695 
L 744.477143 148.293322 
L 777.176672 148.260804 
L 820.764836 148.417485 
L 864.258048 148.945208 
L 885.873866 149.313056 
L 929.051066 150.389944 
L 950.360095 151.124086 
L 982.321913 152.48318 
L 1003.290541 153.534219 
L 1023.845273 154.732703 
L 1043.719886 156.058056 
L 1062.582638 157.529821 
L 1087.910131 159.728596 
L 1099.636364 160.850213 
L 1099.424482 160.447799 
L 1099.424482 160.447799 
" clip-path="url(#pf55e36c1cc)" style="fill: none; stroke: #ff0000; stroke-width: 0.72; stroke-linejoin: miter"/>
   </g>
   <g id="patch_4">
    <path d="M 738.483178 58.285698 
L 731.733916 56.6321 
L 733.387514 49.882837 
L 740.136776 51.536435 
L 738.483178 58.285698 
" clip-path="url(#pf55e36c1cc)" style="fill: none; stroke: #ff0000; stroke-width: 0.72; stroke-linejoin: miter"/>
   </g>
   <g id="patch_5">
    <path d="M 343.4299 15.530667 
L 336.487137 15.822168 
L 336.195636 8.879405 
L 343.138399 8.587905 
L 343.4299 15.530667 
" clip-path="url(#pf55e36c1cc)" style="fill: none; stroke: #ff0000; stroke-width: 0.72; stroke-linejoin: miter"/>
   </g>
   <g id="patch_6">
    <path d="M 164.951213 40.708283 
L 158.261598 42.588705 
L 156.381176 35.899091 
L 163.07079 34.018669 
L 164.951213 40.708283 
" clip-path="url(#pf55e36c1cc)" style="fill: none; stroke: #ff0000; stroke-width: 0.72; stroke-linejoin: miter"/>
   </g>
   <g id="patch_7">
    <path d="M 75.7458 80.936904 
L 73.078701 83.163631 
L 67.511882 76.495884 
L 70.178981 74.269156 
L 75.7458 80.936904 
" clip-path="url(#pf55e36c1cc)" style="fill: none; stroke: #ff0000; stroke-width: 0.72; stroke-linejoin: miter"/>
   </g>
   <g id="patch_8">
    <path d="M 64.468951 108.126684 
L 67.303531 110.135885 
L 62.280528 117.222335 
L 59.445948 115.213134 
L 64.468951 108.126684 
" clip-path="url(#pf55e36c1cc)" style="fill: none; stroke: #ff0000; stroke-width: 0.72; stroke-linejoin: miter"/>
   </g>
   <g id="patch_9">
    <path d="M 202.497642 133.926566 
L 209.432761 134.363661 
L 208.995666 141.29878 
L 202.060547 140.861685 
L 202.497642 133.926566 
" clip-path="url(#pf55e36c1cc)" style="fill: none; stroke: #ff0000; stroke-width: 0.72; stroke-linejoin: miter"/>
   </g>
   <g id="line2d_1">
    <path d="M 1066.201474 150.544156 
L 1065.731964 152.216727 
" clip-path="url(#pf55e36c1cc)" style="fill: none; stroke: #ff0000; stroke-width: 0.72; stroke-linecap: square"/>
   </g>
   <g id="line2d_2">
    <path d="M 1065.088496 155.998542 
L 1064.978392 157.73227 
" clip-path="url(#pf55e36c1cc)" style="fill: none; stroke: #ff0000; stroke-width: 0.72; stroke-linecap: square"/>
   </g>
   <g id="line2d_3">
    <path d="M 1032.962404 140.41321 
L 1032.474375 142.080472 
" clip-path="url(#pf55e36c1cc)" style="fill: none; stroke: #ff0000; stroke-width: 0.72; stroke-linecap: square"/>
   </g>
   <g id="line2d_4">
    <path d="M 1030.448482 153.417467 
L 1030.328888 155.150566 
" clip-path="url(#pf55e36c1cc)" style="fill: none; stroke: #ff0000; stroke-width: 0.72; stroke-linecap: square"/>
   </g>
   <g id="line2d_5">
    <path d="M 900.790464 97.388375 
L 900.269247 99.045562 
" clip-path="url(#pf55e36c1cc)" style="fill: none; stroke: #ff0000; stroke-width: 0.72; stroke-linecap: square"/>
   </g>
   <g id="line2d_6">
    <path d="M 891.538334 147.703568 
L 891.45087 149.438585 
" clip-path="url(#pf55e36c1cc)" style="fill: none; stroke: #ff0000; stroke-width: 0.72; stroke-linecap: square"/>
   </g>
   <g id="patch_10">
    <path d="M 510.487951 77.896176 
L 510.370442 74.13725 
L 510.018379 70.393259 
L 509.433163 66.679076 
L 508.617118 63.009459 
L 507.573486 59.398986 
L 506.306414 55.862003 
L 504.820935 52.41256 
L 503.122952 49.064364 
L 501.21921 45.830715 
L 499.117274 42.724462 
L 496.825493 39.757945 
L 494.352973 36.942951 
L 491.709538 34.290663 
L 488.905689 31.811618 
L 485.952567 29.515666 
L 482.861904 27.411929 
L 479.645979 25.508765 
L 476.317569 23.813735 
L 472.889897 22.333573 
L 469.376583 21.07416 
L 465.791583 20.040499 
L 462.149141 19.236698 
L 458.463729 18.665949 
L 454.749989 18.330521 
L 451.022674 18.231746 
L 447.296594 18.370016 
L 443.586553 18.744782 
L 439.907289 19.354555 
L 436.273422 20.196913 
L 432.699388 21.268509 
L 429.199386 22.565085 
L 425.787322 24.08149 
L 422.476753 25.811699 
L 419.28083 27.74884 
L 416.212252 29.885214 
L 413.28321 32.212335 
L 410.50534 34.720956 
L 407.889679 37.401112 
L 405.446619 40.242153 
L 403.185867 43.232794 
L 401.116403 46.361151 
L 399.246451 49.614796 
L 397.58344 52.980802 
L 396.133975 56.445796 
L 394.903817 59.996013 
L 393.897853 63.617346 
L 393.120079 67.295408 
L 392.573585 71.015588 
L 392.260543 74.763103 
L 392.182195 78.523067 
L 392.338855 82.280539 
L 392.729899 86.020593 
L 393.353773 89.728369 
L 394.207999 93.389135 
L 395.289183 96.988349 
L 396.593029 100.511709 
L 398.114358 103.945219 
L 399.847125 107.275236 
L 401.784447 110.488531 
L 403.918625 113.572338 
L 406.241181 116.514404 
L 408.742887 119.30304 
L 411.413805 121.927168 
L 414.243323 124.376362 
L 417.220199 126.640891 
L 420.332606 128.711759 
L 423.568178 130.580737 
L 426.914061 132.240401 
L 430.356962 133.684156 
L 433.883202 134.906268 
L 437.478772 135.901879 
L 441.129385 136.667035 
L 444.820539 137.198696 
L 448.537569 137.494749 
L 452.265707 137.554019 
L 455.990141 137.376269 
L 459.696073 136.962206 
L 463.368782 136.313476 
L 466.993674 135.432654 
L 470.556348 134.323242 
L 474.042651 132.989646 
L 477.43873 131.437165 
L 480.731093 129.671967 
L 483.90666 127.701065 
L 486.952815 125.53229 
L 489.857454 123.174257 
L 492.609039 120.636335 
L 495.196637 117.928608 
L 497.609967 115.061833 
L 499.839441 112.047399 
L 501.876203 108.897283 
L 503.712159 105.624001 
L 505.340015 102.240557 
L 506.753305 98.760393 
L 507.946413 95.197336 
L 508.914599 91.565542 
L 509.654017 87.87944 
L 510.161728 84.153675 
L 510.435715 80.403048 
L 510.487951 77.896176 
L 510.487951 77.896176 
" clip-path="url(#pf55e36c1cc)" style="fill: none; stroke: #ff0000; stroke-width: 0.72; stroke-linejoin: miter"/>
   </g>
   <g id="line2d_7">
    <path d="M 66.011695 77.896176 
L 834.096809 77.896176 
" clip-path="url(#pf55e36c1cc)" style="fill: none; stroke: #ffffff; stroke-width: 0.72; stroke-linecap: square"/>
   </g>
   <g id="line2d_8">
    <path d="M 215.980556 77.896176 
L 236.827195 77.896176 
" clip-path="url(#pf55e36c1cc)" style="fill: none; stroke: #ffffff; stroke-width: 0.72; stroke-linecap: square"/>
   </g>
   <g id="patch_11">
    <path d="M 226.403876 69.210076 
L 235.089975 77.896176 
L 226.403876 86.582275 
L 217.717776 77.896176 
L 226.403876 69.210076 
" clip-path="url(#pf55e36c1cc)" style="fill: none; stroke: #ff0000; stroke-width: 0.72; stroke-linejoin: miter"/>
   </g>
   <g id="line2d_9">
    <path d="M 439.630932 77.896176 
L 460.477572 77.896176 
" clip-path="url(#pf55e36c1cc)" style="fill: none; stroke: #ffffff; stroke-width: 0.72; stroke-linecap: square"/>
   </g>
   <g id="patch_12">
    <path d="M 450.054252 69.210076 
L 458.740352 77.896176 
L 450.054252 86.582275 
L 441.368152 77.896176 
L 450.054252 69.210076 
" clip-path="url(#pf55e36c1cc)" style="fill: none; stroke: #ff0000; stroke-width: 0.72; stroke-linejoin: miter"/>
   </g>
   <g id="line2d_10">
    <path d="M 663.281308 77.896176 
L 684.127948 77.896176 
" clip-path="url(#pf55e36c1cc)" style="fill: none; stroke: #ffffff; stroke-width: 0.72; stroke-linecap: square"/>
   </g>
   <g id="patch_13">
    <path d="M 673.704628 69.210076 
L 682.390728 77.896176 
L 673.704628 86.582275 
L 665.018528 77.896176 
L 673.704628 69.210076 
" clip-path="url(#pf55e36c1cc)" style="fill: none; stroke: #ff0000; stroke-width: 0.72; stroke-linejoin: miter"/>
   </g>
   <g id="line2d_11">
    <path d="M 52.459818 100.470417 
L 1097.22322 159.796382 
" clip-path="url(#pf55e36c1cc)" style="fill: none; stroke: #ffffff; stroke-width: 0.72; stroke-linecap: square"/>
   </g>
   <g id="line2d_12">
    <path d="M 257.770204 112.128785 
L 278.583315 113.310639 
" clip-path="url(#pf55e36c1cc)" style="fill: none; stroke: #ffffff; stroke-width: 0.72; stroke-linecap: square"/>
   </g>
   <g id="patch_14">
    <path d="M 268.669199 104.047583 
L 276.848889 113.212151 
L 267.684321 121.391842 
L 259.50463 112.227273 
L 268.669199 104.047583 
" clip-path="url(#pf55e36c1cc)" style="fill: none; stroke: #ff0000; stroke-width: 0.72; stroke-linejoin: miter"/>
   </g>
   <g id="line2d_13">
    <path d="M 513.32417 126.640191 
L 534.137281 127.822045 
" clip-path="url(#pf55e36c1cc)" style="fill: none; stroke: #ffffff; stroke-width: 0.72; stroke-linecap: square"/>
   </g>
   <g id="patch_15">
    <path d="M 524.223165 118.558988 
L 532.402856 127.723557 
L 523.238287 135.903248 
L 515.058596 126.738679 
L 524.223165 118.558988 
" clip-path="url(#pf55e36c1cc)" style="fill: none; stroke: #ff0000; stroke-width: 0.72; stroke-linejoin: miter"/>
   </g>
   <g id="line2d_14">
    <path d="M 451.333441 18.230922 
L 451.333441 16.493702 
" clip-path="url(#pf55e36c1cc)" style="fill: none; stroke: #ff0000; stroke-width: 0.72; stroke-linecap: square"/>
   </g>
   <g id="line2d_15">
    <path d="M 451.333441 137.561429 
L 451.333441 139.298649 
" clip-path="url(#pf55e36c1cc)" style="fill: none; stroke: #ff0000; stroke-width: 0.72; stroke-linecap: square"/>
   </g>
   <g id="line2d_16">
    <path d="M 510.487951 77.896176 
L 512.225171 77.896176 
" clip-path="url(#pf55e36c1cc)" style="fill: none; stroke: #ff0000; stroke-width: 0.72; stroke-linecap: square"/>
   </g>
   <g id="line2d_17">
    <path d="M 392.17893 77.896176 
L 390.44171 77.896176 
" clip-path="url(#pf55e36c1cc)" style="fill: none; stroke: #ff0000; stroke-width: 0.72; stroke-linecap: square"/>
   </g>
   <g id="line2d_18">
    <path d="M 312.355845 146.828769 
L 312.355845 10.252731 
" clip-path="url(#pf55e36c1cc)" style="fill: none; stroke: #ffffff; stroke-width: 0.72; stroke-linecap: square"/>
   </g>
   <g id="line2d_19">
    <path d="M 312.355845 106.062897 
L 312.355845 85.216257 
" clip-path="url(#pf55e36c1cc)" style="fill: none; stroke: #ffffff; stroke-width: 0.72; stroke-linecap: square"/>
   </g>
   <g id="patch_16">
    <path d="M 303.669746 95.639577 
L 312.355845 86.953477 
L 321.041945 95.639577 
L 312.355845 104.325677 
L 303.669746 95.639577 
" clip-path="url(#pf55e36c1cc)" style="fill: none; stroke: #ff0000; stroke-width: 0.72; stroke-linejoin: miter"/>
   </g>
   <g id="line2d_20">
    <path d="M 312.355845 71.865243 
L 312.355845 51.018604 
" clip-path="url(#pf55e36c1cc)" style="fill: none; stroke: #ffffff; stroke-width: 0.72; stroke-linecap: square"/>
   </g>
   <g id="patch_17">
    <path d="M 303.669746 61.441923 
L 312.355845 52.755824 
L 321.041945 61.441923 
L 312.355845 70.128023 
L 303.669746 61.441923 
" clip-path="url(#pf55e36c1cc)" style="fill: none; stroke: #ff0000; stroke-width: 0.72; stroke-linejoin: miter"/>
   </g>
   <g id="line2d_21">
    <path d="M 677.172033 148.293816 
L 677.172033 37.242644 
" clip-path="url(#pf55e36c1cc)" style="fill: none; stroke: #ffffff; stroke-width: 0.72; stroke-linecap: square"/>
   </g>
   <g id="line2d_22">
    <path d="M 677.172033 116.461646 
L 677.172033 95.615007 
" clip-path="url(#pf55e36c1cc)" style="fill: none; stroke: #ffffff; stroke-width: 0.72; stroke-linecap: square"/>
   </g>
   <g id="patch_18">
    <path d="M 668.485934 106.038327 
L 677.172033 97.352227 
L 685.858133 106.038327 
L 677.172033 114.724426 
L 668.485934 106.038327 
" clip-path="url(#pf55e36c1cc)" style="fill: none; stroke: #ff0000; stroke-width: 0.72; stroke-linejoin: miter"/>
   </g>
   <g id="line2d_23">
    <path d="M 677.172033 89.921453 
L 677.172033 69.074813 
" clip-path="url(#pf55e36c1cc)" style="fill: none; stroke: #ffffff; stroke-width: 0.72; stroke-linecap: square"/>
   </g>
   <g id="patch_19">
    <path d="M 668.485934 79.498133 
L 677.172033 70.812033 
L 685.858133 79.498133 
L 677.172033 88.184233 
L 668.485934 79.498133 
" clip-path="url(#pf55e36c1cc)" style="fill: none; stroke: #ff0000; stroke-width: 0.72; stroke-linejoin: miter"/>
   </g>
   <g id="patch_20">
    <path d="M 354.869921 113.098786 
L 351.395481 113.098786 
" clip-path="url(#pf55e36c1cc)" style="fill: none; stroke: #ff0000; stroke-width: 0.72; stroke-linejoin: miter"/>
   </g>
   <g id="patch_21">
    <path d="M 349.658261 113.098786 
L 346.183821 113.098786 
L 346.183821 130.470985 
L 349.658261 130.470985 
" clip-path="url(#pf55e36c1cc)" style="fill: none; stroke: #ff0000; stroke-width: 0.72; stroke-linejoin: miter"/>
   </g>
   <g id="patch_22">
    <path d="M 351.395481 130.470985 
L 354.869921 130.470985 
L 354.869921 121.784886 
L 351.395481 121.784886 
" clip-path="url(#pf55e36c1cc)" style="fill: none; stroke: #ff0000; stroke-width: 0.72; stroke-linejoin: miter"/>
   </g>
   <g id="patch_23">
    <path d="M 349.658261 121.784886 
L 346.183821 121.784886 
" clip-path="url(#pf55e36c1cc)" style="fill: none; stroke: #ff0000; stroke-width: 0.72; stroke-linejoin: miter"/>
   </g>
   <g id="patch_24">
    <path d="M 359.21297 113.098786 
L 367.89907 113.098786 
L 367.89907 121.784886 
L 359.21297 121.784886 
L 367.89907 121.784886 
L 367.89907 130.470985 
L 359.21297 130.470985 
" clip-path="url(#pf55e36c1cc)" style="fill: none; stroke: #ff0000; stroke-width: 0.72; stroke-linejoin: miter"/>
   </g>
  </g>
 </g>
 <defs>
  <clipPath id="pf55e36c1cc">
   <rect x="0" y="0" width="1152" height="168.509747"/>
  </clipPath>
 </defs>
</svg>
