  0
SECTION
  2
HEADER
  9
$ACADVER
  1
AC1021
  9
$ACADMAINTVER
 70
25
  9
$DWGCODEPAGE
  3
ANSI_1252
  9
$LASTSAVEDBY
  1
ezdxf
  9
$INSBASE
 10
0.0
 20
0.0
 30
0.0
  9
$EXTMIN
 10
1e+20
 20
1e+20
 30
1e+20
  9
$EXTMAX
 10
-1e+20
 20
-1e+20
 30
-1e+20
  9
$LIMMIN
 10
0.0
 20
0.0
  9
$LIMMAX
 10
420.0
 20
297.0
  9
$ORTHOMODE
 70
0
  9
$REGENMODE
 70
1
  9
$FILLMODE
 70
1
  9
$QTEXTMODE
 70
0
  9
$MIRRTEXT
 70
1
  9
$LTSCALE
 40
1.0
  9
$ATTMODE
 70
1
  9
$TEXTSIZE
 40
2.5
  9
$TRACEWID
 40
1.0
  9
$TEXTSTYLE
  7
OpenSans
  9
$CLAYER
  8
0
  9
$CELTYPE
  6
ByLayer
  9
$CECOLOR
 62
256
  9
$CELTSCALE
 40
1.0
  9
$DISPSILH
 70
0
  9
$DIMSCALE
 40
1.0
  9
$DIMASZ
 40
0.175
  9
$DIMEXO
 40
0.125
  9
$DIMDLI
 40
3.75
  9
$DIMRND
 40
0.0
  9
$DIMDLE
 40
0.0
  9
$DIMEXE
 40
0.375
  9
$DIMTP
 40
0.0
  9
$DIMTM
 40
0.0
  9
$DIMTXT
 40
0.25
  9
$DIMCEN
 40
2.5
  9
$DIMTSZ
 40
0.0
  9
$DIMTOL
 70
0
  9
$DIMLIM
 70
0
  9
$DIMTIH
 70
0
  9
$DIMTOH
 70
0
  9
$DIMSE1
 70
0
  9
$DIMSE2
 70
0
  9
$DIMTAD
 70
1
  9
$DIMZIN
 70
12
  9
$DIMBLK
  1
ARCHTICK
  9
$DIMASO
 70
1
  9
$DIMSHO
 70
1
  9
$DIMPOST
  1

  9
$DIMAPOST
  1

  9
$DIMALT
 70
0
  9
$DIMALTD
 70
3
  9
$DIMALTF
 40
0.03937007874
  9
$DIMLFAC
 40
100.0
  9
$DIMTOFL
 70
1
  9
$DIMTVP
 40
0.0
  9
$DIMTIX
 70
0
  9
$DIMSOXD
 70
0
  9
$DIMSAH
 70
0
  9
$DIMBLK1
  1

  9
$DIMBLK2
  1

  9
$DIMSTYLE
  2
EZDXF
  9
$DIMCLRD
 70
0
  9
$DIMCLRE
 70
0
  9
$DIMCLRT
 70
0
  9
$DIMTFAC
 40
0.5
  9
$DIMGAP
 40
0.1
  9
$DIMJUST
 70
0
  9
$DIMSD1
 70
0
  9
$DIMSD2
 70
0
  9
$DIMTOLJ
 70
0
  9
$DIMTZIN
 70
8
  9
$DIMALTZ
 70
0
  9
$DIMALTTZ
 70
0
  9
$DIMUPT
 70
1
  9
$DIMDEC
 70
2
  9
$DIMTDEC
 70
2
  9
$DIMALTU
 70
2
  9
$DIMALTTD
 70
3
  9
$DIMTXSTY
  7
OpenSansCondensed-Light
  9
$DIMAUNIT
 70
0
  9
$DIMADEC
 70
2
  9
$DIMALTRND
 40
0.0
  9
$DIMAZIN
 70
3
  9
$DIMDSEP
 70
46
  9
$DIMATFIT
 70
3
  9
$DIMFRAC
 70
0
  9
$DIMLDRBLK
  1

  9
$DIMLUNIT
 70
2
  9
$DIMLWD
 70
-2
  9
$DIMLWE
 70
-2
  9
$DIMTMOVE
 70
2
  9
$DIMFXL
 40
1.0
  9
$DIMFXLON
 70
0
  9
$DIMJOGANG
 40
0.785398163397
  9
$DIMTFILL
 70
0
  9
$DIMTFILLCLR
 70
0
  9
$DIMARCSYM
 70
0
  9
$DIMLTYPE
  6

  9
$DIMLTEX1
  6

  9
$DIMLTEX2
  6

  9
$LUNITS
 70
2
  9
$LUPREC
 70
4
  9
$SKETCHINC
 40
1.0
  9
$FILLETRAD
 40
10.0
  9
$AUNITS
 70
0
  9
$AUPREC
 70
2
  9
$MENU
  1
.
  9
$ELEVATION
 40
0.0
  9
$PELEVATION
 40
0.0
  9
$THICKNESS
 40
0.0
  9
$LIMCHECK
 70
0
  9
$CHAMFERA
 40
0.0
  9
$CHAMFERB
 40
0.0
  9
$CHAMFERC
 40
0.0
  9
$CHAMFERD
 40
0.0
  9
$SKPOLY
 70
0
  9
$TDCREATE
 40
2461048.0883449074
  9
$TDUCREATE
 40
2458532.153996898
  9
$TDUPDATE
 40
2461048.0883449074
  9
$TDUUPDATE
 40
2458532.1544311
  9
$TDINDWG
 40
0.0
  9
$TDUSRTIMER
 40
0.0
  9
$USRTIMER
 70
1
  9
$ANGBASE
 50
0.0
  9
$ANGDIR
 70
0
  9
$PDMODE
 70
0
  9
$PDSIZE
 40
0.0
  9
$PLINEWID
 40
0.0
  9
$SPLFRAME
 70
0
  9
$SPLINETYPE
 70
6
  9
$SPLINESEGS
 70
8
  9
$HANDSEED
  5
B1
  9
$SURFTAB1
 70
6
  9
$SURFTAB2
 70
6
  9
$SURFTYPE
 70
6
  9
$SURFU
 70
6
  9
$SURFV
 70
6
  9
$UCSBASE
  2

  9
$UCSNAME
  2

  9
$UCSORG
 10
0.0
 20
0.0
 30
0.0
  9
$UCSXDIR
 10
1.0
 20
0.0
 30
0.0
  9
$UCSYDIR
 10
0.0
 20
1.0
 30
0.0
  9
$UCSORTHOREF
  2

  9
$UCSORTHOVIEW
 70
0
  9
$UCSORGTOP
 10
0.0
 20
0.0
 30
0.0
  9
$UCSORGBOTTOM
 10
0.0
 20
0.0
 30
0.0
  9
$UCSORGLEFT
 10
0.0
 20
0.0
 30
0.0
  9
$UCSORGRIGHT
 10
0.0
 20
0.0
 30
0.0
  9
$UCSORGFRONT
 10
0.0
 20
0.0
 30
0.0
  9
$UCSORGBACK
 10
0.0
 20
0.0
 30
0.0
  9
$PUCSBASE
  2

  9
$PUCSNAME
  2

  9
$PUCSORG
 10
0.0
 20
0.0
 30
0.0
  9
$PUCSXDIR
 10
1.0
 20
0.0
 30
0.0
  9
$PUCSYDIR
 10
0.0
 20
1.0
 30
0.0
  9
$PUCSORTHOREF
  2

  9
$PUCSORTHOVIEW
 70
0
  9
$PUCSORGTOP
 10
0.0
 20
0.0
 30
0.0
  9
$PUCSORGBOTTOM
 10
0.0
 20
0.0
 30
0.0
  9
$PUCSORGLEFT
 10
0.0
 20
0.0
 30
0.0
  9
$PUCSORGRIGHT
 10
0.0
 20
0.0
 30
0.0
  9
$PUCSORGFRONT
 10
0.0
 20
0.0
 30
0.0
  9
$PUCSORGBACK
 10
0.0
 20
0.0
 30
0.0
  9
$USERI1
 70
0
  9
$USERI2
 70
0
  9
$USERI3
 70
0
  9
$USERI4
 70
0
  9
$USERI5
 70
0
  9
$USERR1
 40
0.0
  9
$USERR2
 40
0.0
  9
$USERR3
 40
0.0
  9
$USERR4
 40
0.0
  9
$USERR5
 40
0.0
  9
$WORLDVIEW
 70
1
  9
$SHADEDGE
 70
3
  9
$SHADEDIF
 70
70
  9
$TILEMODE
 70
1
  9
$MAXACTVP
 70
64
  9
$PINSBASE
 10
0.0
 20
0.0
 30
0.0
  9
$PLIMCHECK
 70
0
  9
$PEXTMIN
 10
1e+20
 20
1e+20
 30
1e+20
  9
$PEXTMAX
 10
-1e+20
 20
-1e+20
 30
-1e+20
  9
$PLIMMIN
 10
0.0
 20
0.0
  9
$PLIMMAX
 10
420.0
 20
297.0
  9
$UNITMODE
 70
0
  9
$VISRETAIN
 70
1
  9
$PLINEGEN
 70
0
  9
$PSLTSCALE
 70
1
  9
$TREEDEPTH
 70
3020
  9
$CMLSTYLE
  2
Standard
  9
$CMLJUST
 70
0
  9
$CMLSCALE
 40
20.0
  9
$PROXYGRAPHICS
 70
1
  9
$MEASUREMENT
 70
1
  9
$CELWEIGHT
370
-1
  9
$ENDCAPS
280
0
  9
$JOINSTYLE
280
0
  9
$LWDISPLAY
290
0
  9
$INSUNITS
 70
6
  9
$HYPERLINKBASE
  1

  9
$STYLESHEET
  1

  9
$XEDIT
290
1
  9
$CEPSNTYPE
380
0
  9
$PSTYLEMODE
290
1
  9
$FINGERPRINTGUID
  2
{377377A6-6237-47D2-A176-D87A444BF943}
  9
$VERSIONGUID
  2
{094150C8-9C74-4338-9BC3-4ED880623B6D}
  9
$EXTNAMES
290
1
  9
$PSVPSCALE
 40
0.0
  9
$OLESTARTUP
290
0
  9
$SORTENTS
280
127
  9
$INDEXCTL
280
0
  9
$HIDETEXT
280
1
  9
$XCLIPFRAME
290
1
  9
$HALOGAP
280
0
  9
$OBSCOLOR
 70
257
  9
$OBSLTYPE
280
0
  9
$INTERSECTIONDISPLAY
280
0
  9
$INTERSECTIONCOLOR
 70
257
  9
$DIMASSOC
280
2
  9
$PROJECTNAME
  1

  9
$CAMERADISPLAY
290
0
  9
$LENSLENGTH
 40
50.0
  9
$CAMERAHEIGHT
 40
0.0
  9
$STEPSPERSEC
 40
24.0
  9
$STEPSIZE
 40
100.0
  9
$3DDWFPREC
 40
2.0
  9
$PSOLWIDTH
 40
0.005
  9
$PSOLHEIGHT
 40
0.08
  9
$LOFTANG1
 40
1.570796326795
  9
$LOFTANG2
 40
1.570796326795
  9
$LOFTMAG1
 40
0.0
  9
$LOFTMAG2
 40
0.0
  9
$LOFTPARAM
 70
7
  9
$LOFTNORMALS
280
1
  9
$LATITUDE
 40
37.795
  9
$LONGITUDE
 40
-122.394
  9
$NORTHDIRECTION
 40
0.0
  9
$TIMEZONE
 70
-8000
  9
$LIGHTGLYPHDISPLAY
280
1
  9
$TILEMODELIGHTSYNCH
280
1
  9
$CMATERIAL
347
20
  9
$SOLIDHIST
280
0
  9
$SHOWHIST
280
1
  9
$DWFFRAME
280
2
  9
$DGNFRAME
280
2
  9
$REALWORLDSCALE
290
1
  9
$INTERFERECOLOR
 62
256
  9
$CSHADOW
280
0
  9
$SHADOWPLANELOCATION
 40
0.0
  0
ENDSEC
  0
SECTION
  2
CLASSES
  0
CLASS
  1
ACDBDICTIONARYWDFLT
  2
AcDbDictionaryWithDefault
  3
ObjectDBX Classes
 90
0
 91
0
280
0
281
0
  0
CLASS
  1
SUN
  2
AcDbSun
  3
SCENEOE
 90
1153
 91
0
280
0
281
0
  0
CLASS
  1
VISUALSTYLE
  2
AcDbVisualStyle
  3
ObjectDBX Classes
 90
4095
 91
0
280
0
281
0
  0
CLASS
  1
MATERIAL
  2
AcDbMaterial
  3
ObjectDBX Classes
 90
1153
 91
0
280
0
281
0
  0
CLASS
  1
SCALE
  2
AcDbScale
  3
ObjectDBX Classes
 90
1153
 91
0
280
0
281
0
  0
CLASS
  1
TABLESTYLE
  2
AcDbTableStyle
  3
ObjectDBX Classes
 90
4095
 91
0
280
0
281
0
  0
CLASS
  1
MLEADERSTYLE
  2
AcDbMLeaderStyle
  3
ACDB_MLEADERSTYLE_CLASS
 90
4095
 91
0
280
0
281
0
  0
CLASS
  1
DICTIONARYVAR
  2
AcDbDictionaryVar
  3
ObjectDBX Classes
 90
0
 91
0
280
0
281
0
  0
CLASS
  1
CELLSTYLEMAP
  2
AcDbCellStyleMap
  3
ObjectDBX Classes
 90
1152
 91
0
280
0
281
0
  0
CLASS
  1
MENTALRAYRENDERSETTINGS
  2
AcDbMentalRayRenderSettings
  3
SCENEOE
 90
1024
 91
0
280
0
281
0
  0
CLASS
  1
ACDBDETAILVIEWSTYLE
  2
AcDbDetailViewStyle
  3
ObjectDBX Classes
 90
1025
 91
0
280
0
281
0
  0
CLASS
  1
ACDBSECTIONVIEWSTYLE
  2
AcDbSectionViewStyle
  3
ObjectDBX Classes
 90
1025
 91
0
280
0
281
0
  0
CLASS
  1
RASTERVARIABLES
  2
AcDbRasterVariables
  3
ISM
 90
0
 91
0
280
0
281
0
  0
CLASS
  1
ACDBPLACEHOLDER
  2
AcDbPlaceHolder
  3
ObjectDBX Classes
 90
0
 91
0
280
0
281
0
  0
CLASS
  1
LAYOUT
  2
AcDbLayout
  3
ObjectDBX Classes
 90
0
 91
0
280
0
281
0
  0
ENDSEC
  0
SECTION
  2
TABLES
  0
TABLE
  2
VPORT
  5
8
330
0
100
AcDbSymbolTable
 70
1
  0
VPORT
  5
23
330
8
100
AcDbSymbolTableRecord
100
AcDbViewportTableRecord
  2
*Active
 70
0
 10
0.0
 20
0.0
 11
1.0
 21
1.0
 12
0.0
 22
0.0
 13
0.0
 23
0.0
 14
0.5
 24
0.5
 15
0.5
 25
0.5
 16
0.0
 26
0.0
 36
1.0
 17
0.0
 27
0.0
 37
0.0
 40
1000.0
 41
1.34
 42
50.0
 43
0.0
 44
0.0
 50
0.0
 51
0.0
 71
0
 72
1000
 73
1
 74
3
 75
0
 76
0
 77
0
 78
0
281
0
 65
0
146
0.0
  0
ENDTAB
  0
TABLE
  2
LTYPE
  5
2
330
0
100
AcDbSymbolTable
 70
21
  0
LTYPE
  5
24
330
2
100
AcDbSymbolTableRecord
100
AcDbLinetypeTableRecord
  2
ByBlock
 70
0
  3

 72
65
 73
0
 40
0.0
  0
LTYPE
  5
25
330
2
100
AcDbSymbolTableRecord
100
AcDbLinetypeTableRecord
  2
ByLayer
 70
0
  3

 72
65
 73
0
 40
0.0
  0
LTYPE
  5
26
330
2
100
AcDbSymbolTableRecord
100
AcDbLinetypeTableRecord
  2
Continuous
 70
0
  3

 72
65
 73
0
 40
0.0
  0
LTYPE
  5
2F
330
2
100
AcDbSymbolTableRecord
100
AcDbLinetypeTableRecord
  2
CENTER
 70
0
  3
Center ____ _ ____ _ ____ _ ____ _ ____ _ ____
 72
65
 73
4
 40
5.08
 49
3.175
 74
0
 49
-0.635
 74
0
 49
0.635
 74
0
 49
-0.635
 74
0
  0
LTYPE
  5
30
330
2
100
AcDbSymbolTableRecord
100
AcDbLinetypeTableRecord
  2
CENTERX2
 70
0
  3
Center (2x) ________  __  ________  __  ________
 72
65
 73
4
 40
8.89
 49
6.35
 74
0
 49
-0.635
 74
0
 49
1.27
 74
0
 49
-0.635
 74
0
  0
LTYPE
  5
31
330
2
100
AcDbSymbolTableRecord
100
AcDbLinetypeTableRecord
  2
CENTER2
 70
0
  3
Center (.5x) ____ _ ____ _ ____ _ ____ _ ____
 72
65
 73
4
 40
2.54
 49
1.587
 74
0
 49
-0.318
 74
0
 49
0.318
 74
0
 49
-0.318
 74
0
  0
LTYPE
  5
32
330
2
100
AcDbSymbolTableRecord
100
AcDbLinetypeTableRecord
  2
DASHED
 70
0
  3
Dashed __ __ __ __ __ __ __ __ __ __ __ __ __ _
 72
65
 73
2
 40
1.524
 49
1.27
 74
0
 49
-0.254
 74
0
  0
LTYPE
  5
33
330
2
100
AcDbSymbolTableRecord
100
AcDbLinetypeTableRecord
  2
DASHEDX2
 70
0
  3
Dashed (2x) ____  ____  ____  ____  ____  ____
 72
65
 73
2
 40
3.048
 49
2.54
 74
0
 49
-0.508
 74
0
  0
LTYPE
  5
34
330
2
100
AcDbSymbolTableRecord
100
AcDbLinetypeTableRecord
  2
DASHED2
 70
0
  3
Dashed (.5x) _ _ _ _ _ _ _ _ _ _ _ _ _ _
 72
65
 73
2
 40
0.762
 49
0.635
 74
0
 49
-0.127
 74
0
  0
LTYPE
  5
35
330
2
100
AcDbSymbolTableRecord
100
AcDbLinetypeTableRecord
  2
PHANTOM
 70
0
  3
Phantom ______  __  __  ______  __  __  ______
 72
65
 73
6
 40
6.35
 49
3.175
 74
0
 49
-0.635
 74
0
 49
0.635
 74
0
 49
-0.635
 74
0
 49
0.635
 74
0
 49
-0.635
 74
0
  0
LTYPE
  5
36
330
2
100
AcDbSymbolTableRecord
100
AcDbLinetypeTableRecord
  2
PHANTOMX2
 70
0
  3
Phantom (2x)____________    ____    ____    ____________
 72
65
 73
6
 40
10.795
 49
6.35
 74
0
 49
-0.635
 74
0
 49
1.27
 74
0
 49
-0.635
 74
0
 49
1.27
 74
0
 49
-0.635
 74
0
  0
LTYPE
  5
37
330
2
100
AcDbSymbolTableRecord
100
AcDbLinetypeTableRecord
  2
PHANTOM2
 70
0
  3
Phantom (.5x) ___ _ _ ___ _ _ ___ _ _ ___ _ _ ___
 72
65
 73
6
 40
3.175
 49
1.587
 74
0
 49
-0.318
 74
0
 49
0.318
 74
0
 49
-0.318
 74
0
 49
0.318
 74
0
 49
-0.318
 74
0
  0
LTYPE
  5
38
330
2
100
AcDbSymbolTableRecord
100
AcDbLinetypeTableRecord
  2
DASHDOT
 70
0
  3
Dash dot __ . __ . __ . __ . __ . __ . __ . __
 72
65
 73
4
 40
3.556
 49
2.54
 74
0
 49
-0.508
 74
0
 49
0.0
 74
0
 49
-0.508
 74
0
  0
LTYPE
  5
39
330
2
100
AcDbSymbolTableRecord
100
AcDbLinetypeTableRecord
  2
DASHDOTX2
 70
0
  3
Dash dot (2x) ____  .  ____  .  ____  .  ____
 72
65
 73
4
 40
6.096
 49
5.08
 74
0
 49
-0.508
 74
0
 49
0.0
 74
0
 49
-0.508
 74
0
  0
LTYPE
  5
3A
330
2
100
AcDbSymbolTableRecord
100
AcDbLinetypeTableRecord
  2
DASHDOT2
 70
0
  3
Dash dot (.5x) _ . _ . _ . _ . _ . _ . _ . _
 72
65
 73
4
 40
1.778
 49
1.27
 74
0
 49
-0.254
 74
0
 49
0.0
 74
0
 49
-0.254
 74
0
  0
LTYPE
  5
3B
330
2
100
AcDbSymbolTableRecord
100
AcDbLinetypeTableRecord
  2
DOT
 70
0
  3
Dot .  .  .  .  .  .  .  .  .  .  .  .  .  .  .  .
 72
65
 73
2
 40
0.508
 49
0.0
 74
0
 49
-0.508
 74
0
  0
LTYPE
  5
3C
330
2
100
AcDbSymbolTableRecord
100
AcDbLinetypeTableRecord
  2
DOTX2
 70
0
  3
Dot (2x) .    .    .    .    .    .    .    . 
 72
65
 73
2
 40
1.016
 49
0.0
 74
0
 49
-1.016
 74
0
  0
LTYPE
  5
3D
330
2
100
AcDbSymbolTableRecord
100
AcDbLinetypeTableRecord
  2
DOT2
 70
0
  3
Dot (.5) . . . . . . . . . . . . . . . . . . . 
 72
65
 73
2
 40
0.254
 49
0.0
 74
0
 49
-0.254
 74
0
  0
LTYPE
  5
3E
330
2
100
AcDbSymbolTableRecord
100
AcDbLinetypeTableRecord
  2
DIVIDE
 70
0
  3
Divide __ . . __ . . __ . . __ . . __ . . __
 72
65
 73
6
 40
4.064
 49
2.54
 74
0
 49
-0.508
 74
0
 49
0.0
 74
0
 49
-0.508
 74
0
 49
0.0
 74
0
 49
-0.508
 74
0
  0
LTYPE
  5
3F
330
2
100
AcDbSymbolTableRecord
100
AcDbLinetypeTableRecord
  2
DIVIDEX2
 70
0
  3
Divide (2x) ____  . .  ____  . .  ____  . .  ____
 72
65
 73
6
 40
6.604
 49
5.08
 74
0
 49
-0.508
 74
0
 49
0.0
 74
0
 49
-0.508
 74
0
 49
0.0
 74
0
 49
-0.508
 74
0
  0
LTYPE
  5
40
330
2
100
AcDbSymbolTableRecord
100
AcDbLinetypeTableRecord
  2
DIVIDE2
 70
0
  3
Divide(.5x) _ . _ . _ . _ . _ . _ . _ . _
 72
65
 73
6
 40
2.032
 49
1.27
 74
0
 49
-0.254
 74
0
 49
0.0
 74
0
 49
-0.254
 74
0
 49
0.0
 74
0
 49
-0.254
 74
0
  0
ENDTAB
  0
TABLE
  2
LAYER
  5
1
330
0
100
AcDbSymbolTable
 70
5
  0
LAYER
  5
27
330
1
100
AcDbSymbolTableRecord
100
AcDbLayerTableRecord
  2
0
 70
0
 62
7
  6
Continuous
370
-3
390
13
347
21
  0
LAYER
  5
28
330
1
100
AcDbSymbolTableRecord
100
AcDbLayerTableRecord
  2
Defpoints
 70
0
 62
7
  6
Continuous
290
0
370
-3
390
13
347
21
  0
LAYER
  5
8A
330
1
100
AcDbSymbolTableRecord
100
AcDbLayerTableRecord
  2
Layer
 70
0
 62
1
  6
Continuous
370
50
390
13
347
21
  0
LAYER
  5
8B
330
1
100
AcDbSymbolTableRecord
100
AcDbLayerTableRecord
  2
NumLabel
 70
0
 62
1
  6
Continuous
370
15
390
13
347
21
  0
LAYER
  5
AF
330
1
100
AcDbSymbolTableRecord
100
AcDbLayerTableRecord
  2
SplitMark
 70
0
 62
3
  6
Continuous
370
-3
390
13
347
21
  0
ENDTAB
  0
TABLE
  2
STYLE
  5
5
330
0
100
AcDbSymbolTable
 70
26
  0
STYLE
  5
29
330
5
100
AcDbSymbolTableRecord
100
AcDbTextStyleTableRecord
  2
Standard
 70
0
 40
0.0
 41
1.0
 50
0.0
 71
0
 42
2.5
  3
txt
  4

  0
STYLE
  5
41
330
5
100
AcDbSymbolTableRecord
100
AcDbTextStyleTableRecord
  2
OpenSans-Light
 70
0
 40
0.0
 41
1.0
 50
0.0
 71
0
 42
2.5
  3
OpenSans-Light.ttf
  4

  0
STYLE
  5
42
330
5
100
AcDbSymbolTableRecord
100
AcDbTextStyleTableRecord
  2
OpenSans-Light-Italic
 70
0
 40
0.0
 41
1.0
 50
0.0
 71
0
 42
2.5
  3
OpenSans-LightItalic.ttf
  4

  0
STYLE
  5
43
330
5
100
AcDbSymbolTableRecord
100
AcDbTextStyleTableRecord
  2
OpenSans
 70
0
 40
0.0
 41
1.0
 50
0.0
 71
0
 42
2.5
  3
OpenSans-Regular.ttf
  4

  0
STYLE
  5
44
330
5
100
AcDbSymbolTableRecord
100
AcDbTextStyleTableRecord
  2
OpenSans-Italic
 70
0
 40
0.0
 41
1.0
 50
0.0
 71
0
 42
2.5
  3
OpenSans-Italic.ttf
  4

  0
STYLE
  5
45
330
5
100
AcDbSymbolTableRecord
100
AcDbTextStyleTableRecord
  2
OpenSans-SemiBold
 70
0
 40
0.0
 41
1.0
 50
0.0
 71
0
 42
2.5
  3
OpenSans-SemiBold.ttf
  4

  0
STYLE
  5
46
330
5
100
AcDbSymbolTableRecord
100
AcDbTextStyleTableRecord
  2
OpenSans-SemiBoldItalic
 70
0
 40
0.0
 41
1.0
 50
0.0
 71
0
 42
2.5
  3
OpenSans-SemiBoldItalic.ttf
  4

  0
STYLE
  5
47
330
5
100
AcDbSymbolTableRecord
100
AcDbTextStyleTableRecord
  2
OpenSans-Bold
 70
0
 40
0.0
 41
1.0
 50
0.0
 71
0
 42
2.5
  3
OpenSans-Bold.ttf
  4

  0
STYLE
  5
48
330
5
100
AcDbSymbolTableRecord
100
AcDbTextStyleTableRecord
  2
OpenSans-BoldItalic
 70
0
 40
0.0
 41
1.0
 50
0.0
 71
0
 42
2.5
  3
OpenSans-BoldItalic.ttf
  4

  0
STYLE
  5
49
330
5
100
AcDbSymbolTableRecord
100
AcDbTextStyleTableRecord
  2
OpenSans-ExtraBold
 70
0
 40
0.0
 41
1.0
 50
0.0
 71
0
 42
2.5
  3
OpenSans-ExtraBold.ttf
  4

  0
STYLE
  5
4A
330
5
100
AcDbSymbolTableRecord
100
AcDbTextStyleTableRecord
  2
OpenSans-ExtraBoldItalic
 70
0
 40
0.0
 41
1.0
 50
0.0
 71
0
 42
2.5
  3
OpenSans-ExtraBoldItalic.ttf
  4

  0
STYLE
  5
4B
330
5
100
AcDbSymbolTableRecord
100
AcDbTextStyleTableRecord
  2
OpenSansCondensed-Bold
 70
0
 40
0.0
 41
1.0
 50
0.0
 71
0
 42
2.5
  3
OpenSansCondensed-Bold.ttf
  4

  0
STYLE
  5
4C
330
5
100
AcDbSymbolTableRecord
100
AcDbTextStyleTableRecord
  2
OpenSansCondensed-Light
 70
0
 40
0.0
 41
1.0
 50
0.0
 71
0
 42
2.5
  3
OpenSansCondensed-Light.ttf
  4

  0
STYLE
  5
4D
330
5
100
AcDbSymbolTableRecord
100
AcDbTextStyleTableRecord
  2
OpenSansCondensed-Italic
 70
0
 40
0.0
 41
1.0
 50
0.0
 71
0
 42
2.5
  3
OpenSansCondensed-LightItalic.ttf
  4

  0
STYLE
  5
4E
330
5
100
AcDbSymbolTableRecord
100
AcDbTextStyleTableRecord
  2
LiberationSans
 70
0
 40
0.0
 41
1.0
 50
0.0
 71
0
 42
2.5
  3
LiberationSans-Regular.ttf
  4

  0
STYLE
  5
4F
330
5
100
AcDbSymbolTableRecord
100
AcDbTextStyleTableRecord
  2
LiberationSans-Bold
 70
0
 40
0.0
 41
1.0
 50
0.0
 71
0
 42
2.5
  3
LiberationSans-Bold.ttf
  4

  0
STYLE
  5
50
330
5
100
AcDbSymbolTableRecord
100
AcDbTextStyleTableRecord
  2
LiberationSans-BoldItalic
 70
0
 40
0.0
 41
1.0
 50
0.0
 71
0
 42
2.5
  3
LiberationSans-BoldItalic.ttf
  4

  0
STYLE
  5
51
330
5
100
AcDbSymbolTableRecord
100
AcDbTextStyleTableRecord
  2
LiberationSans-Italic
 70
0
 40
0.0
 41
1.0
 50
0.0
 71
0
 42
2.5
  3
LiberationSans-Italic.ttf
  4

  0
STYLE
  5
52
330
5
100
AcDbSymbolTableRecord
100
AcDbTextStyleTableRecord
  2
LiberationSerif
 70
0
 40
0.0
 41
1.0
 50
0.0
 71
0
 42
2.5
  3
LiberationSerif-Regular.ttf
  4

  0
STYLE
  5
53
330
5
100
AcDbSymbolTableRecord
100
AcDbTextStyleTableRecord
  2
LiberationSerif-Bold
 70
0
 40
0.0
 41
1.0
 50
0.0
 71
0
 42
2.5
  3
LiberationSerif-Bold.ttf
  4

  0
STYLE
  5
54
330
5
100
AcDbSymbolTableRecord
100
AcDbTextStyleTableRecord
  2
LiberationSerif-BoldItalic
 70
0
 40
0.0
 41
1.0
 50
0.0
 71
0
 42
2.5
  3
LiberationSerif-BoldItalic.ttf
  4

  0
STYLE
  5
55
330
5
100
AcDbSymbolTableRecord
100
AcDbTextStyleTableRecord
  2
LiberationSerif-Italic
 70
0
 40
0.0
 41
1.0
 50
0.0
 71
0
 42
2.5
  3
LiberationSerif-Italic.ttf
  4

  0
STYLE
  5
56
330
5
100
AcDbSymbolTableRecord
100
AcDbTextStyleTableRecord
  2
LiberationMono
 70
0
 40
0.0
 41
1.0
 50
0.0
 71
0
 42
2.5
  3
LiberationMono-Regular.ttf
  4

  0
STYLE
  5
57
330
5
100
AcDbSymbolTableRecord
100
AcDbTextStyleTableRecord
  2
LiberationMono-Bold
 70
0
 40
0.0
 41
1.0
 50
0.0
 71
0
 42
2.5
  3
LiberationMono-Bold.ttf
  4

  0
STYLE
  5
58
330
5
100
AcDbSymbolTableRecord
100
AcDbTextStyleTableRecord
  2
LiberationMono-BoldItalic
 70
0
 40
0.0
 41
1.0
 50
0.0
 71
0
 42
2.5
  3
LiberationMono-BoldItalic.ttf
  4

  0
STYLE
  5
59
330
5
100
AcDbSymbolTableRecord
100
AcDbTextStyleTableRecord
  2
LiberationMono-Italic
 70
0
 40
0.0
 41
1.0
 50
0.0
 71
0
 42
2.5
  3
LiberationMono-Italic.ttf
  4

  0
ENDTAB
  0
TABLE
  2
VIEW
  5
7
330
0
100
AcDbSymbolTable
 70
0
  0
ENDTAB
  0
TABLE
  2
UCS
  5
6
330
0
100
AcDbSymbolTable
 70
0
  0
ENDTAB
  0
TABLE
  2
APPID
  5
3
330
0
100
AcDbSymbolTable
 70
3
  0
APPID
  5
2A
330
3
100
AcDbSymbolTableRecord
100
AcDbRegAppTableRecord
  2
ACAD
 70
0
  0
APPID
  5
AC
330
3
100
AcDbSymbolTableRecord
100
AcDbRegAppTableRecord
  2
HATCHBACKGROUNDCOLOR
 70
0
  0
APPID
  5
AD
330
3
100
AcDbSymbolTableRecord
100
AcDbRegAppTableRecord
  2
EZDXF
 70
0
  0
ENDTAB
  0
TABLE
  2
DIMSTYLE
  5
4
330
0
100
AcDbSymbolTable
 70
12
100
AcDbDimStyleTable
  0
DIMSTYLE
105
2B
330
4
100
AcDbSymbolTableRecord
100
AcDbDimStyleTableRecord
  2
Standard
 70
0
 40
1.0
 41
2.5
 42
0.625
 43
3.75
 44
1.25
 45
0.0
 46
0.0
 47
0.0
 48
0.0
 49
2.5
140
2.5
141
2.5
142
0.0
143
0.03937007874
144
1.0
145
0.0
146
1.0
147
0.625
148
0.0
 69
0
 70
0
 71
0
 72
0
 73
0
 74
0
 75
0
 76
0
 77
1
 78
8
 79
3
170
0
171
3
172
1
173
0
174
0
175
0
176
0
177
0
178
0
179
2
271
2
272
2
273
2
274
3
275
0
276
0
277
2
278
44
279
0
280
0
281
0
282
0
283
0
284
8
285
0
286
0
288
0
289
3
290
0
371
-2
372
-2
  0
DIMSTYLE
105
73
330
4
100
AcDbSymbolTableRecord
100
AcDbDimStyleTableRecord
  2
EZDXF
 70
0
 40
1.0
 41
0.175
 42
0.125
 43
3.75
 44
0.375
 45
0.0
 46
0.0
 47
0.0
 48
0.0
 49
2.5
140
0.25
141
2.5
142
0.0
143
0.03937007874
144
100.0
145
0.0
146
0.5
147
0.1
148
0.0
 69
0
 70
0
 71
0
 72
0
 73
0
 74
0
 75
0
 76
0
 77
1
 78
12
 79
3
170
0
171
3
172
1
173
0
174
0
175
0
176
0
177
0
178
0
179
2
271
2
272
2
273
2
274
3
275
0
276
0
277
2
278
46
279
2
280
0
281
0
282
0
283
0
284
8
285
0
286
0
288
1
289
3
290
0
340
4C
342
74
371
-2
372
-2
  0
DIMSTYLE
105
7C
330
4
100
AcDbSymbolTableRecord
100
AcDbDimStyleTableRecord
  2
EZ_M_100_H25_CM
 70
0
 40
1.0
 41
0.25
 42
0.125
 43
3.75
 44
0.375
 45
0.0
 46
0.0
 47
0.0
 48
0.0
 49
2.5
140
0.25
141
2.5
142
0.125
143
0.03937007874
144
100.0
145
0.0
146
0.5
147
0.1
148
0.0
 69
0
 70
0
 71
0
 72
0
 73
0
 74
0
 75
0
 76
0
 77
1
 78
12
 79
3
170
0
171
3
172
1
173
0
174
0
175
0
176
0
177
0
178
0
179
2
271
2
272
2
273
2
274
3
275
0
276
0
277
2
278
46
279
2
280
0
281
0
282
0
283
0
284
8
285
0
286
0
288
1
289
3
290
0
340
4C
371
-2
372
-2
  0
DIMSTYLE
105
7D
330
4
100
AcDbSymbolTableRecord
100
AcDbDimStyleTableRecord
  2
EZ_M_50_H25_CM
 70
0
 40
1.0
 41
0.125
 42
0.0625
 43
3.75
 44
0.1875
 45
0.0
 46
0.0
 47
0.0
 48
0.0
 49
2.5
140
0.125
141
2.5
142
0.0625
143
0.03937007874
144
100.0
145
0.0
146
0.5
147
0.05
148
0.0
 69
0
 70
0
 71
0
 72
0
 73
0
 74
0
 75
0
 76
0
 77
1
 78
12
 79
3
170
0
171
3
172
1
173
0
174
0
175
0
176
0
177
0
178
0
179
2
271
2
272
2
273
2
274
3
275
0
276
0
277
2
278
46
279
2
280
0
281
0
282
0
283
0
284
8
285
0
286
0
288
1
289
3
290
0
340
4C
371
-2
372
-2
  0
DIMSTYLE
105
7E
330
4
100
AcDbSymbolTableRecord
100
AcDbDimStyleTableRecord
  2
EZ_M_25_H25_CM
 70
0
 40
1.0
 41
0.0625
 42
0.03125
 43
3.75
 44
0.09375
 45
0.0
 46
0.0
 47
0.0
 48
0.0
 49
2.5
140
0.0625
141
2.5
142
0.03125
143
0.03937007874
144
100.0
145
0.0
146
0.5
147
0.025
148
0.0
 69
0
 70
0
 71
0
 72
0
 73
0
 74
0
 75
0
 76
0
 77
1
 78
12
 79
3
170
0
171
3
172
1
173
0
174
0
175
0
176
0
177
0
178
0
179
2
271
2
272
2
273
2
274
3
275
0
276
0
277
2
278
46
279
2
280
0
281
0
282
0
283
0
284
8
285
0
286
0
288
1
289
3
290
0
340
4C
371
-2
372
-2
  0
DIMSTYLE
105
7F
330
4
100
AcDbSymbolTableRecord
100
AcDbDimStyleTableRecord
  2
EZ_M_20_H25_CM
 70
0
 40
1.0
 41
0.05
 42
0.025
 43
3.75
 44
0.07500000000000001
 45
0.0
 46
0.0
 47
0.0
 48
0.0
 49
2.5
140
0.05
141
2.5
142
0.025
143
0.03937007874
144
100.0
145
0.0
146
0.5
147
0.020000000000000004
148
0.0
 69
0
 70
0
 71
0
 72
0
 73
0
 74
0
 75
0
 76
0
 77
1
 78
12
 79
3
170
0
171
3
172
1
173
0
174
0
175
0
176
0
177
0
178
0
179
2
271
2
272
2
273
2
274
3
275
0
276
0
277
2
278
46
279
2
280
0
281
0
282
0
283
0
284
8
285
0
286
0
288
1
289
3
290
0
340
4C
371
-2
372
-2
  0
DIMSTYLE
105
80
330
4
100
AcDbSymbolTableRecord
100
AcDbDimStyleTableRecord
  2
EZ_M_10_H25_CM
 70
0
 40
1.0
 41
0.025
 42
0.0125
 43
3.75
 44
0.037500000000000006
 45
0.0
 46
0.0
 47
0.0
 48
0.0
 49
2.5
140
0.025
141
2.5
142
0.0125
143
0.03937007874
144
100.0
145
0.0
146
0.5
147
0.010000000000000002
148
0.0
 69
0
 70
0
 71
0
 72
0
 73
0
 74
0
 75
0
 76
0
 77
1
 78
12
 79
3
170
0
171
3
172
1
173
0
174
0
175
0
176
0
177
0
178
0
179
2
271
2
272
2
273
2
274
3
275
0
276
0
277
2
278
46
279
2
280
0
281
0
282
0
283
0
284
8
285
0
286
0
288
1
289
3
290
0
340
4C
371
-2
372
-2
  0
DIMSTYLE
105
81
330
4
100
AcDbSymbolTableRecord
100
AcDbDimStyleTableRecord
  2
EZ_M_5_H25_CM
 70
0
 40
1.0
 41
0.0125
 42
0.00625
 43
3.75
 44
0.018750000000000003
 45
0.0
 46
0.0
 47
0.0
 48
0.0
 49
2.5
140
0.0125
141
2.5
142
0.00625
143
0.03937007874
144
100.0
145
0.0
146
0.5
147
0.005000000000000001
148
0.0
 69
0
 70
0
 71
0
 72
0
 73
0
 74
0
 75
0
 76
0
 77
1
 78
12
 79
3
170
0
171
3
172
1
173
0
174
0
175
0
176
0
177
0
178
0
179
2
271
2
272
2
273
2
274
3
275
0
276
0
277
2
278
46
279
2
280
0
281
0
282
0
283
0
284
8
285
0
286
0
288
1
289
3
290
0
340
4C
371
-2
372
-2
  0
DIMSTYLE
105
82
330
4
100
AcDbSymbolTableRecord
100
AcDbDimStyleTableRecord
  2
EZ_M_1_H25_CM
 70
0
 40
1.0
 41
0.0025
 42
0.00125
 43
3.75
 44
0.00375
 45
0.0
 46
0.0
 47
0.0
 48
0.0
 49
2.5
140
0.0025
141
2.5
142
0.00125
143
0.03937007874
144
100.0
145
0.0
146
0.5
147
0.001
148
0.0
 69
0
 70
0
 71
0
 72
0
 73
0
 74
0
 75
0
 76
0
 77
1
 78
12
 79
3
170
0
171
3
172
1
173
0
174
0
175
0
176
0
177
0
178
0
179
2
271
2
272
2
273
2
274
3
275
0
276
0
277
2
278
46
279
2
280
0
281
0
282
0
283
0
284
8
285
0
286
0
288
1
289
3
290
0
340
4C
371
-2
372
-2
  0
DIMSTYLE
105
83
330
4
100
AcDbSymbolTableRecord
100
AcDbDimStyleTableRecord
  2
EZ_RADIUS
 70
0
 40
1.0
 41
0.25
 42
0.125
 43
3.75
 44
0.375
 45
0.0
 46
0.0
 47
0.0
 48
0.0
 49
2.5
140
0.25
141
0.0
142
0.0
143
0.03937007874
144
100.0
145
0.0
146
0.5
147
0.1
148
0.0
 69
0
 70
0
 71
0
 72
0
 73
0
 74
0
 75
0
 76
0
 77
1
 78
12
 79
3
170
0
171
3
172
0
173
0
174
0
175
0
176
0
177
0
178
0
179
2
271
2
272
2
273
2
274
3
275
0
276
0
277
2
278
46
279
1
280
0
281
0
282
0
283
0
284
8
285
0
286
0
288
1
289
3
290
0
340
4C
342
84
371
-2
372
-2
  0
DIMSTYLE
105
88
330
4
100
AcDbSymbolTableRecord
100
AcDbDimStyleTableRecord
  2
EZ_RADIUS_INSIDE
 70
0
 40
1.0
 41
0.25
 42
0.125
 43
3.75
 44
0.375
 45
0.0
 46
0.0
 47
0.0
 48
0.0
 49
2.5
140
0.25
141
0.0
142
0.0
143
0.03937007874
144
100.0
145
0.0
146
0.5
147
0.1
148
0.0
 69
0
 70
0
 71
0
 72
0
 73
0
 74
0
 75
0
 76
0
 77
0
 78
12
 79
3
170
0
171
3
172
0
173
0
174
1
175
0
176
0
177
0
178
0
179
2
271
2
272
2
273
2
274
3
275
0
276
0
277
2
278
46
279
0
280
0
281
0
282
0
283
0
284
8
285
0
286
0
288
1
289
0
290
0
340
4C
342
84
371
-2
372
-2
  0
DIMSTYLE
105
89
330
4
100
AcDbSymbolTableRecord
100
AcDbDimStyleTableRecord
  2
EZ_CURVED
 70
0
 40
1.0
 41
0.25
 42
0.125
 43
3.75
 44
0.375
 45
0.0
 46
0.0
 47
0.0
 48
0.0
 49
2.5
140
0.25
141
2.5
142
0.0
143
0.03937007874
144
100.0
145
0.0
146
0.5
147
0.1
148
0.0
 69
0
 70
0
 71
0
 72
0
 73
0
 74
0
 75
0
 76
0
 77
1
 78
12
 79
2
 90
2
170
0
171
3
172
1
173
0
174
0
175
0
176
0
177
0
178
0
179
2
271
2
272
2
273
2
274
3
275
0
276
0
277
2
278
46
279
2
280
0
281
0
282
0
283
0
284
8
285
0
286
0
288
1
289
3
290
0
340
4C
371
-2
372
-2
  0
ENDTAB
  0
TABLE
  2
BLOCK_RECORD
  5
9
330
0
100
AcDbSymbolTable
 70
5
  0
BLOCK_RECORD
  5
17
330
9
100
AcDbSymbolTableRecord
100
AcDbBlockTableRecord
  2
*Model_Space
340
1A
 70
0
280
1
281
0
  0
BLOCK_RECORD
  5
1B
330
9
100
AcDbSymbolTableRecord
100
AcDbBlockTableRecord
  2
*Paper_Space
340
1E
 70
0
280
1
281
0
  0
BLOCK_RECORD
  5
74
330
9
100
AcDbSymbolTableRecord
100
AcDbBlockTableRecord
  2
_ARCHTICK
340
0
 70
0
280
1
281
0
  0
BLOCK_RECORD
  5
78
330
9
100
AcDbSymbolTableRecord
100
AcDbBlockTableRecord
  2
_CLOSEDFILLED
340
0
 70
0
280
1
281
0
  0
BLOCK_RECORD
  5
84
330
9
100
AcDbSymbolTableRecord
100
AcDbBlockTableRecord
  2
_CLOSEDBLANK
340
0
 70
0
280
1
281
0
  0
ENDTAB
  0
ENDSEC
  0
SECTION
  2
BLOCKS
  0
BLOCK
  5
18
330
17
100
AcDbEntity
  8
0
100
AcDbBlockBegin
  2
*Model_Space
 70
0
 10
0.0
 20
0.0
 30
0.0
  3
*Model_Space
  1

  0
ENDBLK
  5
19
330
17
100
AcDbEntity
  8
0
100
AcDbBlockEnd
  0
BLOCK
  5
1C
330
1B
100
AcDbEntity
  8
0
100
AcDbBlockBegin
  2
*Paper_Space
 70
0
 10
0.0
 20
0.0
 30
0.0
  3
*Paper_Space
  1

  0
ENDBLK
  5
1D
330
1B
100
AcDbEntity
  8
0
100
AcDbBlockEnd
  0
BLOCK
  5
75
330
74
100
AcDbEntity
  8
0
100
AcDbBlockBegin
  2
_ARCHTICK
 70
0
 10
0.0
 20
0.0
 30
0.0
  3
_ARCHTICK
  1

  0
LWPOLYLINE
  5
77
330
74
100
AcDbEntity
  8
0
  6
BYBLOCK
 62
0
100
AcDbPolyline
 90
2
 70
0
 43
0.15
 10
-0.5
 20
-0.5
 10
0.5
 20
0.5
  0
ENDBLK
  5
76
330
74
100
AcDbEntity
  8
0
100
AcDbBlockEnd
  0
BLOCK
  5
79
330
78
100
AcDbEntity
  8
0
100
AcDbBlockBegin
  2
_CLOSEDFILLED
 70
0
 10
0.0
 20
0.0
 30
0.0
  3
_CLOSEDFILLED
  1

  0
SOLID
  5
7B
330
78
100
AcDbEntity
  8
0
  6
BYBLOCK
 62
0
100
AcDbTrace
 10
-1.0
 20
0.16439898372402537
 30
0.0
 11
0.0
 21
0.0
 31
0.0
 12
-1.0
 22
-0.16439898372402537
 32
0.0
 13
-1.0
 23
-0.16439898372402537
 33
0.0
  0
ENDBLK
  5
7A
330
78
100
AcDbEntity
  8
0
100
AcDbBlockEnd
  0
BLOCK
  5
85
330
84
100
AcDbEntity
  8
0
100
AcDbBlockBegin
  2
_CLOSEDBLANK
 70
0
 10
0.0
 20
0.0
 30
0.0
  3
_CLOSEDBLANK
  1

  0
LWPOLYLINE
  5
87
330
84
100
AcDbEntity
  8
0
  6
BYBLOCK
 62
0
100
AcDbPolyline
 90
3
 70
1
 10
-1.0
 20
0.16439898372402537
 10
0.0
 20
0.0
 10
-1.0
 20
-0.16439898372402537
  0
ENDBLK
  5
86
330
84
100
AcDbEntity
  8
0
100
AcDbBlockEnd
  0
ENDSEC
  0
SECTION
  2
ENTITIES
  0
LWPOLYLINE
  5
8C
330
17
100
AcDbEntity
  8
Layer
100
AcDbPolyline
 90
261
 70
1
 10
903.8638793109002
 20
119.9711439521784
 10
900.5054545582618
 20
121.18175737002959
 10
895.034529983805
 20
123.14568051749922
 10
889.0234702039753
 20
125.2835062283712
 10
882.4675567434414
 20
127.57102472019167
 10
875.3376837414102
 20
130.00500274522398
 10
867.6761615537357
 20
132.61697966717168
 10
859.5680204763948
 20
135.39665679181246
 10
851.1027763980965
 20
138.32384229176193
 10
842.35240813976
 20
141.37535800529758
 10
833.3845715708626
 20
144.528034605466
 10
824.2453386713444
 20
147.76490600777944
 10
814.9738656516042
 20
151.06686170172978
 10
805.6021728026756
 20
154.4211733089606
 10
796.1506828482804
 20
157.81518826241268
 10
786.6459036874026
 20
161.23383622399191
 10
777.1150002162929
 20
164.66498116926624
 10
767.5833975694059
 20
168.09393899723193
 10
758.0673132288705
 20
171.50927020991332
 10
748.5793636820306
 20
174.90410600553463
 10
739.1309252705038
 20
178.26987280073237
 10
729.723994416835
 20
181.60035948606674
 10
720.3601848622818
 20
184.89230713997227
 10
711.0440607737903
 20
188.14098694102384
 10
701.7773677128414
 20
191.34063172706323
 10
692.5585496303454
 20
194.48767233931224
 10
683.8906618117373
 20
197.4099151000144
 10
683.5711942388568
 20
196.46231789134512
 10
683.0730316371225
 20
196.63028025891379
 10
673.9580812364966
 20
199.65966695294875
 10
664.8905136121666
 20
202.62369896184552
 10
655.8636144898708
 20
205.52080449465916
 10
646.8739293528258
 20
208.34990220976908
 10
637.9178003104698
 20
211.10853782889046
 10
628.9880698514214
 20
213.79527634076217
 10
620.0776326251154
 20
216.41069854400814
 10
611.1827993493243
 20
218.9551021521501
 10
602.300825623138
 20
221.42740690673358
 10
593.426533870243
 20
223.82700161815814
 10
584.554510344316
 20
226.15446228048583
 10
575.6826967799783
 20
228.41087232939105
 10
566.8105535793334
 20
230.59552751432065
 10
557.9352436237019
 20
232.70739893889942
 10
549.0529584816928
 20
234.7472085396758
 10
540.1627650577207
 20
236.71597852731804
 10
531.2658590109959
 20
238.61316271621047
 10
522.3610148971848
 20
240.43778799562313
 10
513.4461222599094
 20
242.19009913847728
 10
504.5202901846173
 20
243.87095589234085
 10
495.58556332841727
 20
245.48037945756548
 10
486.6424889211362
 20
247.01717884078568
 10
477.6893679354922
 20
248.4811276754404
 10
468.7260595361724
 20
249.87320841372065
 10
459.7547404509509
 20
251.19308506716203
 10
450.77557570554956
 20
252.43940393745646
 10
441.78447905526605
 20
253.61146845279714
 10
432.7773714525927
 20
254.71116244118315
 10
423.75598304935556
 20
255.74051103809654
 10
414.72438540989447
 20
256.69924399406864
 10
405.6836539988449
 20
257.5861315693572
 10
396.63266478790945
 20
258.4013414196745
 10
387.57377995670436
 20
259.14669067909875
 10
378.51329817908083
 20
259.82213159343803
 10
369.4552449664753
 20
260.42570190815184
 10
360.39968537669847
 20
260.95622723929256
 10
351.34823976438656
 20
261.41486297140113
 10
342.30677340991645
 20
261.8014208991597
 10
333.27984060660157
 20
262.1140889787522
 10
324.2673848087847
 20
262.3507895154069
 10
315.2699707560401
 20
262.51220819829604
 10
306.2930429820354
 20
262.59855954367157
 10
297.34138508514945
 20
262.6078401940776
 10
288.4158177682898
 20
262.53781838351256
 10
279.5165821305915
 20
262.3885673153156
 10
270.6492433160337
 20
262.1604905725168
 10
261.81966063715987
 20
261.8517082981311
 10
253.02882880623946
 20
261.45951005329744
 10
244.27816232408225
 20
260.98389539366036
 10
235.57384537436633
 20
260.4253469711403
 10
226.92284413829935
 20
259.7817380537256
 10
218.32666755230392
 20
259.0502043367349
 10
209.78820371813993
 20
258.2313103340987
 10
201.31603993963927
 20
257.325425187663
 10
192.91691049974435
 20
256.32976751006413
 10
184.59336176821444
 20
255.24238787789005
 10
176.35159286115683
 20
254.0647013901918
 10
168.20204987413427
 20
252.79648920572862
 10
160.15154225350346
 20
251.43566764478004
 10
152.20591387592123
 20
249.9837551312889
 10
144.38153970638197
 20
248.4466744495325
 10
136.6982083403697
 20
246.8253321236076
 10
129.1680586273446
 20
245.11875272921765
 10
121.80441550654925
 20
243.3330684946894
 10
114.63114781291566
 20
241.47697758299728
 10
107.66977045211905
 20
239.5535373585567
 10
100.93531877434054
 20
237.5687014911535
 10
94.44820278267929
 20
235.53679537209138
 10
88.23349595120084
 20
233.47052706433368
 10
82.30834540171497
 20
231.37782018464884
 10
76.6839794113497
 20
229.27250547343567
 10
71.37323931074093
 20
227.17205454974055
 10
66.38484623166232
 20
225.0878414790039
 10
61.717378210952745
 20
223.0280378674226
 10
57.36432181362585
 20
221.00434773044736
 10
53.31826663234625
 20
219.0272064302526
 10
49.567965028096694
 20
217.1002837028906
 10
46.0967285385089
 20
215.22373801753866
 10
42.885133170705956
 20
213.39948695080767
 10
39.91512862507841
 20
211.6305466144949
 10
37.17027714748474
 20
209.91639086548076
 10
34.63367538485386
 20
208.2531647740596
 10
32.28847603088957
 20
206.6370179303482
 10
30.118481323444144
 20
205.06545309395915
 10
28.1102982993537
 20
203.5374624789613
 10
26.252967455392877
 20
202.0499878357165
 10
24.53648663348889
 20
200.59770267139476
 10
22.948926408581087
 20
199.17372712419836
 10
21.476982469991924
 20
197.77585504349685
 10
20.107430892699256
 20
196.40516978334244
 10
18.83004547184362
 20
195.06723834324995
 10
17.639229014854436
 20
193.76609542877043
 10
16.534827494902345
 20
192.5044315822853
 10
15.519219924094159
 20
191.27724508953963
 10
14.594592359805858
 20
190.0772230597546
 10
13.760562918105677
 20
188.89482717554478
 10
13.012442019952175
 20
187.7211911002098
 10
12.343185187207666
 20
186.55426538494046
 10
11.744873108117815
 20
185.39579513463522
 10
11.21191747737305
 20
184.2525626805259
 10
10.741853813907312
 20
183.12963108507105
 10
10.335386958673553
 20
182.0312170746252
 10
9.99492002701578
 20
180.957565605601
 10
9.722528106994105
 20
179.905676618431
 10
9.518585108193406
 20
178.8725906106378
 10
9.381427809632498
 20
177.85607673996302
 10
9.304368781830249
 20
176.77631050688612
 10
9.293914634096723
 20
175.85356600740394
 10
9.34418332377237
 20
174.8452917725675
 10
9.464827544526372
 20
173.84001583922327
 10
9.664807456182928
 20
172.84241013425793
 10
9.955079509572386
 20
171.85255387633143
 10
10.344726515674779
 20
170.86915334843496
 10
10.8369302841445
 20
169.89289482185922
 10
11.428474558869027
 20
168.92693142022523
 10
12.112744708089508
 20
167.9765500985284
 10
12.885359138566287
 20
167.0468336046181
 10
13.745891578894543
 20
166.1419791913102
 10
14.69815019437334
 20
165.26405965197708
 10
15.745871886620819
 20
164.41324784409417
 10
16.89128848205928
 20
163.58763100496176
 10
18.133130307477757
 20
162.78444088119056
 10
19.470493842491578
 20
162.00062773229197
 10
20.902706360387867
 20
161.23450466493708
 10
22.434088299211396
 20
160.48542050680425
 10
24.0709267364349
 20
159.75310979050894
 10
25.82317382955631
 20
159.03672880940547
 10
27.700773116786024
 20
158.33347404211995
 10
29.71383798099174
 20
157.63899381248405
 10
31.87353975333957
 20
156.94849006451796
 10
34.1917807861866
 20
156.25771229988914
 10
36.68432369404371
 20
155.56435085587339
 10
39.370378499589435
 20
154.86735575090484
 10
42.273179102437666
 20
154.16563861292207
 10
45.41780510833911
 20
153.4570469827953
 10
48.83182455928636
 20
152.73948920078
 10
52.54452735033101
 20
152.01212197770093
 10
56.58878051602545
 20
151.27627068076202
 10
60.999830165374306
 20
150.53419477300534
 10
65.81163463869478
 20
149.78688865745966
 10
71.05275511181549
 20
149.03603095798252
 10
76.74477228666308
 20
148.28728303681456
 10
82.90177428721285
 20
147.5487969699024
 10
89.52657638003205
 20
146.82679523417534
 10
96.60381148388734
 20
146.12646684048372
 10
104.10420094569162
 20
145.45690611858723
 10
111.99399104644971
 20
144.82578329555224
 10
120.23130543514651
 20
144.2352871694261
 10
128.76737039857005
 20
143.68857367030319
 10
137.5624478324804
 20
143.18938943733497
 10
146.58279650620707
 20
142.73587567803523
 10
155.7942039335654
 20
142.32591217606068
 10
165.1769115768548
 20
141.96072134274425
 10
174.726714514953
 20
141.6328205986476
 10
184.41608803773235
 20
141.3240662427624
 10
185.43947124842165
 20
141.29285850441644
 10
185.40899074190008
 20
140.29332314299987
 10
194.1512960021272
 20
140.02672766214954
 10
203.9428895751871
 20
139.75385867282068
 10
213.76775716117382
 20
139.52167673391384
 10
223.66372841044665
 20
139.32850650339483
 10
233.650787783679
 20
139.15795458369348
 10
243.710007737448
 20
138.99250255534542
 10
253.80399969979175
 20
138.82327625908607
 10
263.90206151518066
 20
138.6542039061078
 10
273.981926011981
 20
138.49994749138287
 10
284.0643748136329
 20
138.37252460442858
 10
294.18637316026343
 20
138.2687791326941
 10
304.36244341166906
 20
138.17490253279314
 10
314.57438704836653
 20
138.0804288187174
 10
324.80687479061777
 20
137.98534741044054
 10
335.0472857233402
 20
137.89209970306015
 10
345.2843057309118
 20
137.79942955517757
 10
355.5030252180812
 20
137.70764638857273
 10
365.6960403546586
 20
137.62415667694506
 10
375.87605506545896
 20
137.5553758466287
 10
386.05693441706404
 20
137.49567041478895
 10
396.23253145797963
 20
137.43020303223716
 10
406.40907574025067
 20
137.3526814405
 10
416.58663796830047
 20
137.27199689874314
 10
426.7624956082366
 20
137.20176766461404
 10
436.94878866499687
 20
137.14268144376226
 10
447.1402609737845
 20
137.0856128949353
 10
457.3179099559442
 20
137.02679540106965
 10
467.4710720316716
 20
136.9761001421902
 10
477.607806068625
 20
136.94061359838986
 10
487.73596489906765
 20
136.9119470068035
 10
497.8419239991737
 20
136.8704232573703
 10
507.9430825822194
 20
136.80785243703195
 10
518.0498179662006
 20
136.73381418379526
 10
528.1487512447231
 20
136.6626340873782
 10
538.2100064154216
 20
136.58861979171627
 10
548.2188809207034
 20
136.49333522098652
 10
558.2017981139693
 20
136.3693323134468
 10
568.1634164529644
 20
136.23986160493033
 10
578.0822776970417
 20
136.13874973548212
 10
588.0017943222172
 20
136.07690480356626
 10
597.9372786949667
 20
136.02709497329084
 10
607.8675014296437
 20
135.9539845175751
 10
617.8167222710881
 20
135.84630476335747
 10
627.7987402541389
 20
135.72198691192284
 10
637.7719817637959
 20
135.59700561292823
 10
647.6912697168664
 20
135.4595418995906
 10
657.557281517823
 20
135.2825027309112
 10
667.428868825913
 20
135.0557379383173
 10
677.3431980035114
 20
134.8004355494986
 10
687.2729340961849
 20
134.54324430771777
 10
697.1635862213993
 20
134.2845721065924
 10
706.9786878478393
 20
133.9958744268224
 10
716.760097106584
 20
133.65361788291233
 10
726.5669514304428
 20
133.2630706572511
 10
736.4074797912801
 20
132.85143994386428
 10
746.2212726098296
 20
132.43839613767503
 10
755.9433667027297
 20
132.01112165271337
 10
765.5668383544978
 20
131.53538247014484
 10
775.1569089872912
 20
130.9885136474813
 10
784.78002940497
 20
130.38461566773873
 10
794.4232846929729
 20
129.76061454538905
 10
803.9968674028373
 20
129.13082989746056
 10
813.4385469641913
 20
128.47252610043847
 10
822.7501414522852
 20
127.76714409745115
 10
831.9289528357118
 20
127.02134223175337
 10
840.934451916486
 20
126.24608946190939
 10
849.7080821546061
 20
125.44666131694295
 10
858.189184824837
 20
124.61954723690792
 10
866.3389063950482
 20
123.7532496888415
 10
874.1318775158167
 20
122.86002371585678
 10
881.5059688684321
 20
121.98057200353959
 10
888.376879968689
 20
121.14648164165258
 10
894.6891933012981
 20
120.35656814781231
 10
900.4449756731882
 20
119.61070818217523
 10
903.9834132743005
 20
119.14493504944738
  0
LWPOLYLINE
  5
8D
330
17
100
AcDbEntity
  8
Layer
100
AcDbPolyline
 90
5
 70
0
 10
596.2872892996761
 20
218.90978194681477
 10
592.425955594535
 20
219.9538614541042
 10
593.4700351018246
 20
223.81519515924523
 10
597.3313688069657
 20
222.7711156519558
 10
596.2872892996761
 20
218.90978194681477
  0
LWPOLYLINE
  5
8E
330
17
100
AcDbEntity
  8
Layer
100
AcDbPolyline
 90
5
 70
0
 10
258.5579571780335
 20
257.7021825049297
 10
254.56193357934276
 20
257.52386986178175
 10
254.38362093619483
 20
261.5198934604725
 10
258.3796445348856
 20
261.6982061036204
 10
258.5579571780335
 20
257.7021825049297
  0
LWPOLYLINE
  5
8F
330
17
100
AcDbEntity
  8
Layer
100
AcDbPolyline
 90
5
 70
0
 10
105.28743215742847
 20
234.68116439460152
 10
101.45063999418474
 20
233.55022412382175
 10
100.31969972340497
 20
237.38701628706548
 10
104.1564918866487
 20
238.51795655784525
 10
105.28743215742847
 20
234.68116439460152
  0
LWPOLYLINE
  5
90
330
17
100
AcDbEntity
  8
Layer
100
AcDbPolyline
 90
5
 70
0
 10
27.950058546846225
 20
196.9429249662114
 10
26.46160030183849
 20
195.60707615258448
 10
23.12197826777115
 20
199.32822176510385
 10
24.610436512778886
 20
200.66407057873076
 10
27.950058546846225
 20
196.9429249662114
  0
LWPOLYLINE
  5
91
330
17
100
AcDbEntity
  8
Layer
100
AcDbPolyline
 90
5
 70
0
 10
18.861405158688957
 20
168.33147165060552
 10
20.485414223921662
 20
167.16416939495707
 10
17.567158584800506
 20
163.1041467318753
 10
15.943149519567799
 20
164.27144898752374
 10
18.861405158688957
 20
168.33147165060552
  0
LWPOLYLINE
  5
92
330
17
100
AcDbEntity
  8
Layer
100
AcDbPolyline
 90
5
 70
0
 10
138.79193041727456
 20
147.13263020117273
 10
142.78688503286617
 20
146.93178792633222
 10
142.58604275802566
 20
142.9368333107406
 10
138.59108814243405
 20
143.13767558558112
 10
138.79193041727456
 20
147.13263020117273
  0
LINE
  5
93
330
17
100
AcDbEntity
  8
Layer
100
AcDbLine
 10
885.1135738968262
 20
126.64776464293786
 30
0.0
 11
884.7862032238058
 21
125.70286864736683
 31
0.0
  0
LINE
  5
94
330
17
100
AcDbEntity
  8
Layer
100
AcDbLine
 10
884.152089579855
 20
122.66578818394464
 30
0.0
 11
884.0736615226834
 21
121.66886840791034
 31
0.0
  0
LINE
  5
95
330
17
100
AcDbEntity
  8
Layer
100
AcDbLine
 10
866.1917163591544
 20
133.12588526104344
 30
0.0
 11
865.8660780178755
 21
132.1803908556189
 31
0.0
  0
LINE
  5
96
330
17
100
AcDbEntity
  8
Layer
100
AcDbLine
 10
864.297158312128
 20
124.97587835973479
 30
0.0
 11
864.2001522123996
 21
123.98059457275968
 31
0.0
  0
LINE
  5
97
330
17
100
AcDbEntity
  8
Layer
100
AcDbLine
 10
790.7534182422398
 20
159.75645878866453
 30
0.0
 11
790.4229506621932
 21
158.8126414448219
 31
0.0
  0
LINE
  5
98
330
17
100
AcDbEntity
  8
Layer
100
AcDbLine
 10
784.5406328692711
 20
131.40133403332464
 30
0.0
 11
784.4547605630919
 21
130.40502788206817
 31
0.0
  0
LWPOLYLINE
  5
99
330
17
100
AcDbEntity
  8
Layer
100
AcDbPolyline
 90
300
 70
1
 10
400.40187145557655
 20
200.0
 10
400.39101720634073
 20
201.09659779949288
 10
400.3584592515642
 20
202.19271137226798
 10
400.3042119679233
 20
203.28785670542845
 10
400.22829930949126
 20
204.38155021362473
 10
400.1307547971611
 20
205.47330895259233
 10
400.01162150384334
 20
206.56265083240643
 10
399.87095203544675
 20
207.6490948303591
 10
399.7088085076485
 20
208.73216120336548
 10
399.52526251846587
 20
209.81137169980485
 10
399.3203951166407
 20
210.88624977070293
 10
399.09429676585046
 20
211.95632078016274
 10
398.84706730476177
 20
213.0211122149502
 10
398.578815902945
 20
214.08015389314278
 10
398.2896610126675
 20
215.13297817174868
 10
397.97973031658887
 20
216.17912015320465
 10
397.64916067137955
 20
217.2181178906618
 10
397.29809804728893
 20
218.24951259196823
 10
396.92669746368904
 20
219.27284882225877
 10
396.53512292062214
 20
220.28767470506227
 10
396.1235473263833
 20
221.29354212183736
 10
395.69215242116854
 20
222.29000690984913
 10
395.2411286968238
 20
223.2766290582988
 10
394.7706753127288
 20
224.2529729026202
 10
394.2810000078543
 20
225.21860731685683
 10
393.7723190090299
 20
226.17310590403514
 10
393.2448569354647
 20
227.1160471844492
 10
392.6988466995619
 20
228.04701478177452
 10
392.1345294040707
 20
228.96559760692787
 10
391.55215423562265
 20
229.87139003959288
 10
390.9519783546976
 20
230.76399210733035
 10
390.33426678206894
 20
231.64300966219497
 10
389.69929228177784
 20
232.50805455477982
 10
389.04733524068837
 20
233.35874480561236
 10
388.37868354467656
 20
234.19470477382575
 10
387.69363245150805
 20
235.01556532303124
 10
386.99248446046056
 20
235.8209639843185
 10
386.27554917874886
 20
236.61054511631156
 10
385.5431431848108
 20
237.38396006221018
 10
384.7955898885152
 20
238.14086730374675
 10
384.03321938835325
 20
238.88093261199123
 10
383.25636832567625
 20
239.60382919493716
 10
382.46537973604416
 20
240.3092378418039
 10
381.66060289775095
 20
240.99684706399108
 10
380.842393177593
 20
241.66635323262318
 10
380.01111187394923
 20
242.31746071262342
 10
379.1671260572417
 20
242.94988199325815
 10
378.31080840784807
 20
243.56333781509315
 10
377.4425370515359
 20
244.15755729330704
 10
376.56269539249325
 20
244.73227803730617
 10
375.6716719440283
 20
245.28724626658905
 10
374.7698601570125
 20
245.82221692280865
 10
373.8576582461439
 20
246.33695377798315
 10
372.9354690141069
 20
246.8312295388078
 10
372.0036996737056
 20
247.30482594702107
 10
371.0627616680505
 20
247.7575338757813
 10
370.11307048887625
 20
248.18915342201143
 10
369.15504549307275
 20
248.59949399467047
 10
368.1891097175086
 20
248.98837439891304
 10
367.2156896922301
 20
249.35562291610006
 10
366.2352152521176
 20
249.70107737962485
 10
365.24811934708225
 20
250.02458524652124
 10
364.2548378508879
 20
250.3260036648223
 10
363.25580936868124
 20
250.60519953663982
 10
362.2514750433162
 20
250.86204957693647
 10
361.2422783605577
 20
251.09644036796507
 10
360.2286649532508
 20
251.3082684093507
 10
359.2110824045418
 20
251.49744016379344
 10
358.1899800502381
 20
251.663872098372
 10
357.1658087803941
 20
251.80749072142925
 10
356.13902084021106
 20
251.9282326150243
 10
355.11006963033805
 20
252.026044462936
 10
354.0794095066631
 20
252.1008830742058
 10
353.04749557968273
 20
252.1527154022097
 10
352.01478351353745
 20
252.1815185592509
 10
350.9817293248036
 20
252.18727982666604
 10
349.9487891811293
 20
252.1699966604416
 10
348.91641919980356
 20
252.12967669233726
 10
347.88507524634775
 20
252.06633772651585
 10
346.85521273321814
 20
251.98000773168167
 10
345.8272864187087
 20
251.87072482873015
 10
344.8017502061427
 20
251.73853727391472
 10
343.7790569434415
 20
251.5835034375384
 10
342.75965822316
 20
251.405691778179
 10
341.7440041830758
 20
251.20518081245962
 10
340.7325433074211
 20
250.98205908037812
 10
339.7257222288449
 20
250.73642510621028
 10
338.7239855311923
 20
250.4683873550042
 10
337.7277755531889
 20
250.17806418468524
 10
336.7375321931166
 20
249.8655837937925
 10
335.7536927145667
 20
249.5310841648699
 10
334.77669155335667
 20
249.17471300353702
 10
333.80696012569564
 20
248.7966276732664
 10
332.844926637683
 20
248.39699512589647
 10
331.8910158962247
 20
247.97599182790995
 10
330.9456491214505
 20
247.53380368251152
 10
330.009243760715
 20
247.07062594753808
 10
329.08221330426454
 20
246.5866631492384
 10
328.16496710265176
 20
246.08212899196013
 10
327.2579101859778
 20
245.55724626378387
 10
326.3614430850423
 20
245.01224673814636
 10
325.4759616544805
 20
244.44737107149575
 10
324.6018568979648
 20
243.86286869702454
 10
323.7395147955486
 20
243.25899771452686
 10
322.8893161332284
 20
242.63602477642894
 10
322.0516363347995
 20
241.99422497004286
 10
321.22684529607915
 20
241.33388169609566
 10
320.4153072215713
 20
240.65528654358775
 10
319.6173804636438
 20
239.95873916103523
 10
318.83341736429054
 20
239.24454712415357
 10
318.0637640995467
 20
238.51302580004102
 10
317.30876052662734
 20
237.7644982079211
 10
316.568740033856
 20
236.99929487650655
 10
315.8440293934499
 20
236.21775369804723
 10
315.1349486172264
 20
235.4202197791262
 10
314.4418108152949
 20
234.60704528827063
 10
313.764922057796
 20
233.7785893004438
 10
313.10458123974996
 20
232.93521763848804
 10
312.46107994907254
 20
232.07730271158732
 10
311.83470233781844
 20
231.2052233508221
 10
311.2257249967076
 20
230.31936464188806
 10
310.6344168329903
 20
229.4201177550531
 10
310.0610389517058
 20
228.50787977242763
 10
309.50584454038517
 20
227.58305351262422
 10
308.96907875725105
 20
226.6460473528843
 10
308.45097862296274
 20
225.69727504875019
 10
307.9517729159544
 20
224.73715555136238
 10
307.47168207141306
 20
223.76611282246242
 10
307.0109180839405
 20
222.78457564718343
 10
306.56968441394264
 20
221.79297744471066
 10
306.14817589778687
 20
220.79175607689564
 10
305.74657866176796
 20
219.7813536549089
 10
305.36507003991994
 20
218.762216344016
 10
305.0038184957103
 20
217.73479416656352
 10
304.6629835476513
 20
216.6995408032619
 10
304.3427156988612
 20
215.65691339285283
 10
304.04315637060597
 20
214.60737233024958
 10
303.7644378398521
 20
213.5513810632396
 10
303.50668318085656
 20
212.48940588783907
 10
303.2700062108206
 20
211.42191574238956
 10
303.05451143963154
 20
210.3493820004883
 10
302.8602940237139
 20
209.2722782628426
 10
302.687439724011
 20
208.1910801481413
 10
302.53602486811565
 20
207.1062650830349
 10
302.4061163165657
 20
206.0183120913174
 10
302.2977714333204
 20
204.92770158240273
 10
302.21103806043016
 20
203.83491513918975
 10
302.14595449691086
 20
202.7404353054086
 10
302.1025494818319
 20
201.64474537254293
 10
302.08084218162605
 20
200.54832916642226
 10
302.08084218162605
 20
199.45167083357777
 10
302.1025494818319
 20
198.35525462745707
 10
302.14595449691086
 20
197.25956469459143
 10
302.21103806043016
 20
196.16508486081025
 10
302.2977714333204
 20
195.07229841759727
 10
302.4061163165657
 20
193.98168790868263
 10
302.53602486811565
 20
192.8937349169651
 10
302.687439724011
 20
191.8089198518587
 10
302.8602940237139
 20
190.72772173715742
 10
303.05451143963154
 20
189.65061799951172
 10
303.2700062108206
 20
188.5780842576104
 10
303.50668318085656
 20
187.51059411216093
 10
303.7644378398521
 20
186.4486189367604
 10
304.04315637060597
 20
185.39262766975042
 10
304.3427156988612
 20
184.34308660714717
 10
304.6629835476513
 20
183.3004591967381
 10
305.0038184957103
 20
182.26520583343648
 10
305.36507003991994
 20
181.237783655984
 10
305.74657866176796
 20
180.2186463450911
 10
306.14817589778687
 20
179.20824392310433
 10
306.56968441394264
 20
178.20702255528934
 10
307.0109180839405
 20
177.21542435281657
 10
307.47168207141306
 20
176.2338871775376
 10
307.9517729159544
 20
175.26284444863765
 10
308.45097862296274
 20
174.30272495124981
 10
308.96907875725105
 20
173.3539526471157
 10
309.50584454038517
 20
172.41694648737578
 10
310.0610389517058
 20
171.4921202275724
 10
310.6344168329903
 20
170.5798822449469
 10
311.2257249967075
 20
169.68063535811194
 10
311.83470233781844
 20
168.7947766491779
 10
312.46107994907254
 20
167.92269728841268
 10
313.10458123974996
 20
167.06478236151196
 10
313.764922057796
 20
166.22141069955617
 10
314.4418108152949
 20
165.39295471172937
 10
315.1349486172264
 20
164.5797802208738
 10
315.8440293934499
 20
163.7822463019528
 10
316.568740033856
 20
163.00070512349345
 10
317.30876052662734
 20
162.2355017920789
 10
318.0637640995467
 20
161.48697419995898
 10
318.8334173642906
 20
160.7554528758464
 10
319.6173804636438
 20
160.0412608389648
 10
320.41530722157125
 20
159.34471345641225
 10
321.22684529607915
 20
158.66611830390434
 10
322.0516363347995
 20
158.00577502995716
 10
322.8893161332284
 20
157.36397522357106
 10
323.7395147955486
 20
156.74100228547314
 10
324.60185689796475
 20
156.13713130297546
 10
325.4759616544805
 20
155.55262892850425
 10
326.3614430850423
 20
154.98775326185364
 10
327.2579101859778
 20
154.44275373621613
 10
328.16496710265176
 20
153.91787100803987
 10
329.08221330426454
 20
153.4133368507616
 10
330.009243760715
 20
152.92937405246192
 10
330.94564912145046
 20
152.4661963174885
 10
331.8910158962247
 20
152.02400817209008
 10
332.844926637683
 20
151.60300487410353
 10
333.80696012569564
 20
151.2033723267336
 10
334.77669155335667
 20
150.825286996463
 10
335.7536927145667
 20
150.4689158351301
 10
336.7375321931166
 20
150.1344162062075
 10
337.7277755531889
 20
149.82193581531476
 10
338.7239855311923
 20
149.5316126449958
 10
339.7257222288449
 20
149.26357489378972
 10
340.7325433074211
 20
149.01794091962188
 10
341.7440041830758
 20
148.79481918754038
 10
342.75965822316
 20
148.594308221821
 10
343.77905694344156
 20
148.4164965624616
 10
344.80175020614274
 20
148.26146272608528
 10
345.8272864187087
 20
148.12927517126985
 10
346.8552127332181
 20
148.01999226831833
 10
347.8850752463477
 20
147.93366227348415
 10
348.91641919980356
 20
147.87032330766274
 10
349.9487891811293
 20
147.8300033395584
 10
350.9817293248036
 20
147.81272017333396
 10
352.01478351353745
 20
147.81848144074908
 10
353.04749557968273
 20
147.8472845977903
 10
354.0794095066631
 20
147.8991169257942
 10
355.11006963033805
 20
147.973955537064
 10
356.13902084021106
 20
148.0717673849757
 10
357.1658087803941
 20
148.19250927857075
 10
358.1899800502381
 20
148.336127901628
 10
359.21108240454186
 20
148.50255983620656
 10
360.2286649532508
 20
148.6917315906493
 10
361.2422783605577
 20
148.90355963203493
 10
362.2514750433162
 20
149.13795042306353
 10
363.2558093686812
 20
149.39480046336018
 10
364.2548378508879
 20
149.6739963351777
 10
365.24811934708225
 20
149.97541475347876
 10
366.2352152521176
 20
150.29892262037515
 10
367.2156896922301
 20
150.6443770838999
 10
368.1891097175086
 20
151.01162560108696
 10
369.15504549307275
 20
151.40050600532953
 10
370.11307048887625
 20
151.81084657798857
 10
371.0627616680505
 20
152.2424661242187
 10
372.0036996737057
 20
152.69517405297896
 10
372.9354690141069
 20
153.1687704611922
 10
373.8576582461439
 20
153.66304622201685
 10
374.7698601570125
 20
154.17778307719138
 10
375.6716719440283
 20
154.71275373341092
 10
376.56269539249325
 20
155.26772196269383
 10
377.44253705153585
 20
155.84244270669294
 10
378.31080840784807
 20
156.43666218490682
 10
379.1671260572417
 20
157.05011800674185
 10
380.0111118739492
 20
157.68253928737656
 10
380.84239317759295
 20
158.33364676737682
 10
381.66060289775095
 20
159.0031529360089
 10
382.46537973604416
 20
159.6907621581961
 10
383.25636832567625
 20
160.39617080506284
 10
384.0332193883533
 20
161.11906738800877
 10
384.7955898885152
 20
161.85913269625325
 10
385.5431431848108
 20
162.61603993778982
 10
386.27554917874886
 20
163.38945488368844
 10
386.99248446046056
 20
164.1790360156815
 10
387.69363245150805
 20
164.98443467696873
 10
388.37868354467656
 20
165.80529522617422
 10
389.04733524068837
 20
166.6412551943876
 10
389.69929228177784
 20
167.49194544522015
 10
390.33426678206894
 20
168.35699033780503
 10
390.9519783546976
 20
169.23600789266962
 10
391.55215423562265
 20
170.1286099604071
 10
392.1345294040707
 20
171.03440239307213
 10
392.6988466995619
 20
171.95298521822548
 10
393.2448569354647
 20
172.8839528155508
 10
393.7723190090299
 20
173.82689409596486
 10
394.2810000078543
 20
174.78139268314317
 10
394.7706753127288
 20
175.74702709737983
 10
395.2411286968238
 20
176.7233709417012
 10
395.69215242116854
 20
177.70999309015087
 10
396.1235473263833
 20
178.7064578781626
 10
396.53512292062214
 20
179.7123252949377
 10
396.926697463689
 20
180.7271511777412
 10
397.29809804728893
 20
181.75048740803177
 10
397.64916067137955
 20
182.7818821093382
 10
397.97973031658887
 20
183.82087984679532
 10
398.2896610126675
 20
184.86702182825132
 10
398.578815902945
 20
185.91984610685722
 10
398.84706730476177
 20
186.9788877850498
 10
399.09429676585046
 20
188.04367921983726
 10
399.3203951166407
 20
189.11375022929707
 10
399.52526251846587
 20
190.18862830019518
 10
399.7088085076485
 20
191.26783879663452
 10
399.87095203544675
 20
192.3509051696409
 10
400.01162150384334
 20
193.43734916759357
 10
400.13075479716105
 20
194.52669104740764
 10
400.22829930949126
 20
195.61844978637524
 10
400.3042119679233
 20
196.71214329457155
 10
400.3584592515642
 20
197.807288627732
 10
400.39101720634073
 20
198.90340220050712
 10
400.40187145557655
 20
200.0
  0
LINE
  5
9A
330
17
100
AcDbEntity
  8
Layer
 62
7
100
AcDbLine
 10
23.870120564706554
 20
200.00000000000003
 30
0.0
 11
672.9169342753072
 21
199.99999999999997
 31
0.0
  0
LINE
  5
9B
330
17
100
AcDbEntity
  8
Layer
 62
7
100
AcDbLine
 10
151.57948330682672
 20
200.00000000000003
 30
0.0
 11
163.57948330682672
 21
200.00000000000003
 31
0.0
  0
LWPOLYLINE
  5
9C
330
17
100
AcDbEntity
  8
Layer
100
AcDbPolyline
 90
5
 70
0
 10
157.57948330682672
 20
205.00000000000003
 10
162.57948330682672
 20
200.00000000000003
 10
157.57948330682672
 20
195.00000000000003
 10
152.57948330682672
 20
200.00000000000003
 10
157.57948330682672
 20
205.00000000000003
  0
LINE
  5
9D
330
17
100
AcDbEntity
  8
Layer
 62
7
100
AcDbLine
 10
342.3935274200069
 20
200.0
 30
0.0
 11
354.3935274200069
 21
200.0
 31
0.0
  0
LWPOLYLINE
  5
9E
330
17
100
AcDbEntity
  8
Layer
100
AcDbPolyline
 90
5
 70
0
 10
348.3935274200069
 20
205.0
 10
353.3935274200069
 20
200.0
 10
348.3935274200069
 20
195.0
 10
343.3935274200069
 20
200.0
 10
348.3935274200069
 20
205.0
  0
LINE
  5
9F
330
17
100
AcDbEntity
  8
Layer
 62
7
100
AcDbLine
 10
533.2075715331872
 20
199.99999999999997
 30
0.0
 11
545.2075715331872
 21
199.99999999999997
 31
0.0
  0
LWPOLYLINE
  5
A0
330
17
100
AcDbEntity
  8
Layer
100
AcDbPolyline
 90
5
 70
0
 10
539.2075715331872
 20
204.99999999999997
 10
544.2075715331872
 20
199.99999999999997
 10
539.2075715331872
 20
194.99999999999997
 10
534.2075715331872
 20
199.99999999999997
 10
539.2075715331872
 20
204.99999999999997
  0
LINE
  5
A1
330
17
100
AcDbEntity
  8
Layer
 62
7
100
AcDbLine
 10
9.366070483159262
 20
177.64088686500966
 30
0.0
 11
903.3955361856673
 21
120.13996788402909
 31
0.0
  0
LINE
  5
A2
330
17
100
AcDbEntity
  8
Layer
 62
7
100
AcDbLine
 10
186.07629364831033
 20
166.27548939754917
 30
0.0
 11
198.05155065031371
 21
165.5052818047742
 31
0.0
  0
LWPOLYLINE
  5
A3
330
17
100
AcDbEntity
  8
Layer
100
AcDbPolyline
 90
5
 70
0
 10
192.38484197963493
 20
170.88007601866312
 10
197.05361256681346
 20
165.56946577083878
 10
191.7430023189891
 20
160.90069518366025
 10
187.07423173181058
 20
166.2113054314846
 10
192.38484197963493
 20
170.88007601866312
  0
LINE
  5
A4
330
17
100
AcDbEntity
  8
Layer
 62
7
100
AcDbLine
 10
406.34036130256135
 20
152.1088575420139
 30
0.0
 11
418.3156183045648
 21
151.33864994923894
 31
0.0
  0
LWPOLYLINE
  5
A5
330
17
100
AcDbEntity
  8
Layer
100
AcDbPolyline
 90
5
 70
0
 10
412.648909633886
 20
156.71344416312786
 10
417.3176802210645
 20
151.40283391530352
 10
412.00706997324016
 20
146.734063328125
 10
407.33829938606164
 20
152.04467357594933
 10
412.648909633886
 20
156.71344416312786
  0
LINE
  5
A6
330
17
100
AcDbEntity
  8
Layer
100
AcDbLine
 10
351.24
 20
252.188
 30
0.0
 11
351.24
 21
253.188
 31
0.0
  0
LINE
  5
A7
330
17
100
AcDbEntity
  8
Layer
100
AcDbLine
 10
351.24
 20
147.812
 30
0.0
 11
351.24
 21
146.812
 31
0.0
  0
LINE
  5
A8
330
17
100
AcDbEntity
  8
Layer
100
AcDbLine
 10
400.40187145557655
 20
200.0
 30
0.0
 11
401.40187145557655
 21
200.0
 31
0.0
  0
LINE
  5
A9
330
17
100
AcDbEntity
  8
Layer
100
AcDbLine
 10
302.07812854442346
 20
200.0
 30
0.0
 11
301.07812854442346
 21
200.0
 31
0.0
  0
LWPOLYLINE
  5
AA
330
17
100
AcDbEntity
  8
NumLabel
 62
1
100
AcDbPolyline
 90
7
 70
0
 10
261.44000000000005
 20
165.1
 10
266.44000000000005
 20
165.1
 10
266.44000000000005
 20
160.1
 10
261.44000000000005
 20
160.1
 10
266.44000000000005
 20
160.1
 10
266.44000000000005
 20
155.1
 10
261.44000000000005
 20
155.1
  0
LWPOLYLINE
  5
AB
330
17
100
AcDbEntity
  8
NumLabel
 62
1
100
AcDbPolyline
 90
6
 70
0
 10
268.94000000000005
 20
165.1
 10
273.94000000000005
 20
165.1
 10
273.94000000000005
 20
160.1
 10
268.94000000000005
 20
160.1
 10
268.94000000000005
 20
155.1
 10
273.94000000000005
 20
155.1
  0
ENDSEC
  0
SECTION
  2
OBJECTS
  0
DICTIONARY
  5
A
330
0
100
AcDbDictionary
280
0
281
1
  3
ACAD_COLOR
350
B
  3
ACAD_GROUP
350
C
  3
ACAD_LAYOUT
350
D
  3
ACAD_MATERIAL
350
E
  3
ACAD_MLEADERSTYLE
350
F
  3
ACAD_MLINESTYLE
350
10
  3
ACAD_PLOTSETTINGS
350
11
  3
ACAD_PLOTSTYLENAME
350
12
  3
ACAD_SCALELIST
350
14
  3
ACAD_TABLESTYLE
350
15
  3
ACAD_VISUALSTYLE
350
16
  3
EZDXF_META
350
2D
  0
DICTIONARY
  5
B
330
A
100
AcDbDictionary
280
0
281
1
  0
DICTIONARY
  5
C
330
A
100
AcDbDictionary
280
0
281
1
  0
DICTIONARY
  5
D
330
A
100
AcDbDictionary
280
0
281
1
  3
Model
350
1A
  3
Layout1
350
1E
  0
DICTIONARY
  5
E
330
A
100
AcDbDictionary
280
0
281
1
  3
ByBlock
350
1F
  3
ByLayer
350
20
  3
Global
350
21
  0
DICTIONARY
  5
F
330
A
100
AcDbDictionary
280
0
281
1
  3
Standard
350
2C
  0
DICTIONARY
  5
10
330
A
100
AcDbDictionary
280
0
281
1
  3
Standard
350
22
  0
DICTIONARY
  5
11
330
A
100
AcDbDictionary
280
0
281
1
  0
ACDBDICTIONARYWDFLT
  5
12
330
A
100
AcDbDictionary
280
0
281
1
  3
Normal
350
13
100
AcDbDictionaryWithDefault
340
13
  0
ACDBPLACEHOLDER
  5
13
330
12
  0
DICTIONARY
  5
14
330
A
100
AcDbDictionary
280
0
281
1
  0
DICTIONARY
  5
15
330
A
100
AcDbDictionary
280
0
281
1
  0
DICTIONARY
  5
16
330
A
100
AcDbDictionary
280
0
281
1
  3
2dWireframe
350
5A
  3
Basic
350
5B
  3
Brighten
350
5C
  3
ColorChange
350
5D
  3
Conceptual
350
5E
  3
Dim
350
5F
  3
EdgeColorOff
350
60
  3
Facepattern
350
61
  3
Flat
350
62
  3
FlatWithEdges
350
63
  3
Gouraud
350
64
  3
GouraudWithEdges
350
65
  3
Hidden
350
66
  3
JitterOff
350
67
  3
Linepattern
350
68
  3
Modeling
350
69
  3
OverhangOff
350
6A
  3
Realistic
350
6B
  3
Shaded
350
6C
  3
Shaded with edges
350
6D
  3
Shades of Gray
350
6E
  3
Sketchy
350
6F
  3
Thicken
350
70
  3
Wireframe
350
71
  3
X-Ray
350
72
  0
LAYOUT
  5
1A
330
D
100
AcDbPlotSettings
  1

  2
Adobe PDF
  4
A3
  6

 40
7.5
 41
20.0
 42
7.5
 43
20.0
 44
420.0
 45
297.0
 46
0.0
 47
0.0
 48
0.0
 49
0.0
140
0.0
141
0.0
142
1.0
143
1.0
 70
1024
 72
1
 73
0
 74
5
  7

 75
16
 76
0
 77
2
 78
300
147
1.0
148
0.0
149
0.0
100
AcDbLayout
  1
Model
 70
1
 71
0
 10
0.0
 20
0.0
 11
420.0
 21
297.0
 12
0.0
 22
0.0
 32
0.0
 14
1e+20
 24
1e+20
 34
1e+20
 15
-1e+20
 25
-1e+20
 35
-1e+20
146
0.0
 13
0.0
 23
0.0
 33
0.0
 16
1.0
 26
0.0
 36
0.0
 17
0.0
 27
1.0
 37
0.0
 76
1
330
17
  0
LAYOUT
  5
1E
330
D
100
AcDbPlotSettings
  1

  2
Adobe PDF
  4
A3
  6

 40
7.5
 41
20.0
 42
7.5
 43
20.0
 44
420.0
 45
297.0
 46
0.0
 47
0.0
 48
0.0
 49
0.0
140
0.0
141
0.0
142
1.0
143
1.0
 70
0
 72
1
 73
0
 74
5
  7

 75
16
 76
0
 77
2
 78
300
147
1.0
148
0.0
149
0.0
100
AcDbLayout
  1
Layout1
 70
1
 71
1
 10
0.0
 20
0.0
 11
420.0
 21
297.0
 12
0.0
 22
0.0
 32
0.0
 14
1e+20
 24
1e+20
 34
1e+20
 15
-1e+20
 25
-1e+20
 35
-1e+20
146
0.0
 13
0.0
 23
0.0
 33
0.0
 16
1.0
 26
0.0
 36
0.0
 17
0.0
 27
1.0
 37
0.0
 76
1
330
1B
  0
MATERIAL
  5
1F
102
{ACAD_REACTORS
330
E
102
}
330
E
100
AcDbMaterial
  1
ByBlock
  2

 70
0
 40
1.0
 71
1
 41
1.0
 91
-1023410177
 42
1.0
 72
1
  3

 73
1
 74
1
 75
1
 44
0.5
 73
0
 45
1.0
 46
1.0
 77
1
  4

 78
1
 79
1
170
1
 48
1.0
171
1
  6

172
1
173
1
174
1
140
1.0
141
1.0
175
1
  7

176
1
177
1
178
1
143
1.0
179
1
  8

270
1
271
1
272
1
145
1.0
146
1.0
273
1
  9

274
1
275
1
276
1
 42
1.0
 72
1
  3

 73
1
 74
1
 75
1
 94
63
  0
MATERIAL
  5
20
102
{ACAD_REACTORS
330
E
102
}
330
E
100
AcDbMaterial
  1
ByLayer
  2

 70
0
 40
1.0
 71
1
 41
1.0
 91
-1023410177
 42
1.0
 72
1
  3

 73
1
 74
1
 75
1
 44
0.5
 73
0
 45
1.0
 46
1.0
 77
1
  4

 78
1
 79
1
170
1
 48
1.0
171
1
  6

172
1
173
1
174
1
140
1.0
141
1.0
175
1
  7

176
1
177
1
178
1
143
1.0
179
1
  8

270
1
271
1
272
1
145
1.0
146
1.0
273
1
  9

274
1
275
1
276
1
 42
1.0
 72
1
  3

 73
1
 74
1
 75
1
 94
63
  0
MATERIAL
  5
21
102
{ACAD_REACTORS
330
E
102
}
330
E
100
AcDbMaterial
  1
Global
  2

 70
0
 40
1.0
 71
1
 41
1.0
 91
-1023410177
 42
1.0
 72
1
  3

 73
1
 74
1
 75
1
 44
0.5
 73
0
 45
1.0
 46
1.0
 77
1
  4

 78
1
 79
1
170
1
 48
1.0
171
1
  6

172
1
173
1
174
1
140
1.0
141
1.0
175
1
  7

176
1
177
1
178
1
143
1.0
179
1
  8

270
1
271
1
272
1
145
1.0
146
1.0
273
1
  9

274
1
275
1
276
1
 42
1.0
 72
1
  3

 73
1
 74
1
 75
1
 94
63
  0
MLINESTYLE
  5
22
102
{ACAD_REACTORS
330
10
102
}
330
10
100
AcDbMlineStyle
  2
Standard
 70
0
  3

 62
256
 51
90.0
 52
90.0
 71
2
 49
0.5
 62
256
  6
BYLAYER
 49
-0.5
 62
256
  6
BYLAYER
  0
MLEADERSTYLE
  5
2C
102
{ACAD_REACTORS
330
F
102
}
330
F
100
AcDbMLeaderStyle
179
2
170
2
171
1
172
0
 90
2
 40
0.0
 41
0.0
173
1
 91
-1056964608
 92
-2
290
1
 42
2.0
291
1
 43
8.0
  3
Standard
 44
4.0
300

342
29
174
1
175
1
176
0
178
1
 93
-1056964608
 45
4.0
292
0
297
0
 46
4.0
 94
-1056964608
 47
1.0
 49
1.0
140
1.0
294
1
141
0.0
177
0
142
1.0
295
0
296
0
143
3.75
271
0
272
9
273
9
  0
DICTIONARY
  5
2D
330
A
100
AcDbDictionary
281
1
  3
CREATED_BY_EZDXF
350
2E
  3
WRITTEN_BY_EZDXF
350
AE
  0
DICTIONARYVAR
  5
2E
330
2D
100
DictionaryVariables
280
0
  1
1.3.0 @ 2026-01-06T17:07:13.118813+00:00
  0
VISUALSTYLE
  5
5A
102
{ACAD_REACTORS
330
16
102
}
330
16
100
AcDbVisualStyle
  2
2dWireframe
 70
4
 90
0
 40
0.6
 62
7
290
0
291
0
  0
VISUALSTYLE
  5
5B
102
{ACAD_REACTORS
330
16
102
}
330
16
100
AcDbVisualStyle
  2
Basic
 70
7
 90
1
 40
0.6
 62
7
290
0
291
1
  0
VISUALSTYLE
  5
5C
102
{ACAD_REACTORS
330
16
102
}
330
16
100
AcDbVisualStyle
  2
Brighten
 70
12
 90
2
 40
0.6
 62
7
290
0
291
1
  0
VISUALSTYLE
  5
5D
102
{ACAD_REACTORS
330
16
102
}
330
16
100
AcDbVisualStyle
  2
ColorChange
 70
16
 90
2
 40
0.6
 62
8
290
0
291
1
  0
VISUALSTYLE
  5
5E
102
{ACAD_REACTORS
330
16
102
}
330
16
100
AcDbVisualStyle
  2
Conceptual
 70
9
 90
3
 40
0.6
 62
7
290
0
291
0
  0
VISUALSTYLE
  5
5F
102
{ACAD_REACTORS
330
16
102
}
330
16
100
AcDbVisualStyle
  2
Dim
 70
11
 90
2
 40
0.6
 62
7
290
0
291
1
  0
VISUALSTYLE
  5
60
102
{ACAD_REACTORS
330
16
102
}
330
16
100
AcDbVisualStyle
  2
EdgeColorOff
 70
22
 90
2
 40
0.6
 62
7
290
0
291
1
  0
VISUALSTYLE
  5
61
102
{ACAD_REACTORS
330
16
102
}
330
16
100
AcDbVisualStyle
  2
Facepattern
 70
15
 90
2
 40
0.6
 62
7
290
0
291
1
  0
VISUALSTYLE
  5
62
102
{ACAD_REACTORS
330
16
102
}
330
16
100
AcDbVisualStyle
  2
Flat
 70
0
 90
2
 40
0.6
 62
7
290
0
291
1
  0
VISUALSTYLE
  5
63
102
{ACAD_REACTORS
330
16
102
}
330
16
100
AcDbVisualStyle
  2
FlatWithEdges
 70
1
 90
2
 40
0.6
 62
7
290
0
291
1
  0
VISUALSTYLE
  5
64
102
{ACAD_REACTORS
330
16
102
}
330
16
100
AcDbVisualStyle
  2
Gouraud
 70
2
 90
2
 40
0.6
 62
7
290
0
291
1
  0
VISUALSTYLE
  5
65
102
{ACAD_REACTORS
330
16
102
}
330
16
100
AcDbVisualStyle
  2
GouraudWithEdges
 70
3
 90
2
 40
0.6
 62
7
290
0
291
1
  0
VISUALSTYLE
  5
66
102
{ACAD_REACTORS
330
16
102
}
330
16
100
AcDbVisualStyle
  2
Hidden
 70
6
 90
1
 40
0.6
 62
7
290
0
291
0
  0
VISUALSTYLE
  5
67
102
{ACAD_REACTORS
330
16
102
}
330
16
100
AcDbVisualStyle
  2
JitterOff
 70
20
 90
2
 40
0.6
 62
7
290
0
291
1
  0
VISUALSTYLE
  5
68
102
{ACAD_REACTORS
330
16
102
}
330
16
100
AcDbVisualStyle
  2
Linepattern
 70
14
 90
2
 40
0.6
 62
7
290
0
291
1
  0
VISUALSTYLE
  5
69
102
{ACAD_REACTORS
330
16
102
}
330
16
100
AcDbVisualStyle
  2
Modeling
 70
10
 90
2
 40
0.6
 62
7
290
0
291
0
  0
VISUALSTYLE
  5
6A
102
{ACAD_REACTORS
330
16
102
}
330
16
100
AcDbVisualStyle
  2
OverhangOff
 70
21
 90
2
 40
0.6
 62
7
290
0
291
1
  0
VISUALSTYLE
  5
6B
102
{ACAD_REACTORS
330
16
102
}
330
16
100
AcDbVisualStyle
  2
Realistic
 70
8
 90
2
 40
0.6
 62
7
290
0
291
0
  0
VISUALSTYLE
  5
6C
102
{ACAD_REACTORS
330
16
102
}
330
16
100
AcDbVisualStyle
  2
Shaded
 70
27
 90
2
 40
0.6
 62
7
290
0
291
0
  0
VISUALSTYLE
  5
6D
102
{ACAD_REACTORS
330
16
102
}
330
16
100
AcDbVisualStyle
  2
Shaded with edges
 70
26
 90
2
 40
0.6
 62
7
290
0
291
0
  0
VISUALSTYLE
  5
6E
102
{ACAD_REACTORS
330
16
102
}
330
16
100
AcDbVisualStyle
  2
Shades of Gray
 70
23
 90
2
 40
0.6
 62
7
290
0
291
0
  0
VISUALSTYLE
  5
6F
102
{ACAD_REACTORS
330
16
102
}
330
16
100
AcDbVisualStyle
  2
Sketchy
 70
24
 90
1
 40
0.6
 62
7
290
0
291
0
  0
VISUALSTYLE
  5
70
102
{ACAD_REACTORS
330
16
102
}
330
16
100
AcDbVisualStyle
  2
Thicken
 70
13
 90
2
 40
0.6
 62
7
290
0
291
1
  0
VISUALSTYLE
  5
71
102
{ACAD_REACTORS
330
16
102
}
330
16
100
AcDbVisualStyle
  2
Wireframe
 70
5
 90
0
 40
0.6
 62
7
290
0
291
0
  0
VISUALSTYLE
  5
72
102
{ACAD_REACTORS
330
16
102
}
330
16
100
AcDbVisualStyle
  2
X-Ray
 70
25
 90
2
 40
0.5
 62
7
290
0
291
0
  0
DICTIONARYVAR
  5
AE
330
2D
100
DictionaryVariables
280
0
  1
1.3.0 @ 2026-01-06T17:07:13.260633+00:00
  0
ENDSEC
  0
EOF
