<?xml version="1.0" encoding="utf-8" standalone="no"?>
<!DOCTYPE svg PUBLIC "-//W3C//DTD SVG 1.1//EN"
  "http://www.w3.org/Graphics/SVG/1.1/DTD/svg11.dtd">
<svg xmlns:xlink="http://www.w3.org/1999/xlink" width="805.333667pt" height="345.6pt" viewBox="0 0 805.333667 345.6" xmlns="http://www.w3.org/2000/svg" version="1.1">
 <metadata>
  <rdf:RDF xmlns:dc="http://purl.org/dc/elements/1.1/" xmlns:cc="http://creativecommons.org/ns#" xmlns:rdf="http://www.w3.org/1999/02/22-rdf-syntax-ns#">
   <cc:Work>
    <dc:type rdf:resource="http://purl.org/dc/dcmitype/StillImage"/>
    <dc:date>2026-01-07T02:07:20.304650</dc:date>
    <dc:format>image/svg+xml</dc:format>
    <dc:creator>
     <cc:Agent>
      <dc:title>Matplotlib v3.10.1, https://matplotlib.org/</dc:title>
     </cc:Agent>
    </dc:creator>
   </cc:Work>
  </rdf:RDF>
 </metadata>
 <defs>
  <style type="text/css">*{stroke-linejoin: round; stroke-linecap: butt}</style>
 </defs>
 <g id="figure_1">
  <g id="patch_1">
   <path d="M 0 345.6 
L 805.333667 345.6 
L 805.333667 0 
L 0 0 
z
" style="fill: #ffffff"/>
  </g>
  <g id="axes_1">
   <g id="patch_2">
    <path d="M 0 345.6 
L 805.333667 345.6 
L 805.333667 0 
L 0 0 
z
" style="fill: #212830"/>
   </g>
   <g id="patch_3">
    <path d="M 36.606076 329.890909 
L 768.727592 194.504625 
L 768.727592 194.504625 
L 767.109213 193.95895 
L 737.379744 184.078232 
L 707.805583 174.410921 
L 678.364578 164.962056 
L 649.045696 155.735228 
L 619.837014 146.738434 
L 590.714834 137.976239 
L 561.655838 129.446701 
L 532.648169 121.148893 
L 503.6829 113.086338 
L 474.742931 105.260966 
L 445.810345 97.670827 
L 416.878661 90.312446 
L 387.946268 83.18815 
L 359.003633 76.301224 
L 330.038147 69.649271 
L 301.046957 63.228999 
L 272.03413 57.042223 
L 242.995476 51.092074 
L 213.923948 45.37772 
L 184.816688 39.89637 
L 155.680636 34.648001 
L 126.517472 29.636476 
L 97.32138 24.86249 
L 68.092075 20.322867 
L 38.836901 16.018737 
L 36.606076 15.709091 
L 36.606076 329.890909 
" clip-path="url(#pf7071ab267)" style="fill: none; stroke: #ff0000; stroke-width: 0.72; stroke-linejoin: miter"/>
   </g>
   <g id="patch_4">
    <path d="M 648.253762 284.00175 
L 626.328259 284.00175 
L 626.328259 305.927254 
L 648.253762 305.927254 
L 648.253762 327.852757 
L 626.328259 327.852757 
" clip-path="url(#pf7071ab267)" style="fill: none; stroke: #ff0000; stroke-width: 0.72; stroke-linejoin: miter"/>
   </g>
   <g id="patch_5">
    <path d="M 659.216514 284.00175 
L 659.216514 305.927254 
L 681.142017 305.927254 
L 681.142017 284.00175 
L 681.142017 327.852757 
" clip-path="url(#pf7071ab267)" style="fill: none; stroke: #ff0000; stroke-width: 0.72; stroke-linejoin: miter"/>
   </g>
   <g id="patch_6">
    <path d="M 485.059145 126.220901 
L 468.126808 121.642508 
L 472.705202 104.710171 
L 489.637539 109.288564 
L 485.059145 126.220901 
" clip-path="url(#pf7071ab267)" style="fill: none; stroke: #ff0000; stroke-width: 0.72; stroke-linejoin: miter"/>
   </g>
   <g id="patch_7">
    <path d="M 290.072223 159.441812 
L 311.997726 181.367316 
L 290.072223 203.292819 
L 268.14672 181.367316 
L 290.072223 159.441812 
" clip-path="url(#pf7071ab267)" style="fill: none; stroke: #ff0000; stroke-width: 0.72; stroke-linejoin: miter"/>
   </g>
   <g id="line2d_1">
    <path d="M 36.606076 181.367316 
L 729.08653 181.367316 
" clip-path="url(#pf7071ab267)" style="fill: none; stroke: #ffffff; stroke-width: 0.72; stroke-linecap: square"/>
   </g>
   <g id="line2d_2">
    <path d="M 263.761619 181.367316 
L 316.382827 181.367316 
" clip-path="url(#pf7071ab267)" style="fill: none; stroke: #ffffff; stroke-width: 0.72; stroke-linecap: square"/>
   </g>
  </g>
 </g>
 <defs>
  <clipPath id="pf7071ab267">
   <rect x="0" y="0" width="805.333667" height="345.6"/>
  </clipPath>
 </defs>
</svg>
