<?xml version="1.0" encoding="utf-8" standalone="no"?>
<!DOCTYPE svg PUBLIC "-//W3C//DTD SVG 1.1//EN"
  "http://www.w3.org/Graphics/SVG/1.1/DTD/svg11.dtd">
<svg xmlns:xlink="http://www.w3.org/1999/xlink" width="1152pt" height="324.229066pt" viewBox="0 0 1152 324.229066" xmlns="http://www.w3.org/2000/svg" version="1.1">
 <metadata>
  <rdf:RDF xmlns:dc="http://purl.org/dc/elements/1.1/" xmlns:cc="http://creativecommons.org/ns#" xmlns:rdf="http://www.w3.org/1999/02/22-rdf-syntax-ns#">
   <cc:Work>
    <dc:type rdf:resource="http://purl.org/dc/dcmitype/StillImage"/>
    <dc:date>2026-01-07T02:07:10.511687</dc:date>
    <dc:format>image/svg+xml</dc:format>
    <dc:creator>
     <cc:Agent>
      <dc:title>Matplotlib v3.10.1, https://matplotlib.org/</dc:title>
     </cc:Agent>
    </dc:creator>
   </cc:Work>
  </rdf:RDF>
 </metadata>
 <defs>
  <style type="text/css">*{stroke-linejoin: round; stroke-linecap: butt}</style>
 </defs>
 <g id="figure_1">
  <g id="patch_1">
   <path d="M 0 324.229066 
L 1152 324.229066 
L 1152 0 
L 0 0 
z
" style="fill: #ffffff"/>
  </g>
  <g id="axes_1">
   <g id="patch_2">
    <path d="M 0 324.229066 
L 1152 324.229066 
L 1152 0 
L 0 0 
z
" style="fill: #212830"/>
   </g>
   <g id="patch_3">
    <path d="M 1099.636364 42.302131 
L 1096.217383 41.783315 
L 1074.47175 38.657047 
L 1052.709115 35.708948 
L 1030.938186 32.94971 
L 1009.157864 30.388976 
L 987.362268 28.027962 
L 965.553839 25.859352 
L 943.746993 23.875137 
L 921.957354 22.076964 
L 900.194421 20.471324 
L 878.464849 19.064248 
L 856.772478 17.858665 
L 835.118022 16.853791 
L 813.505386 16.042917 
L 791.952313 15.419389 
L 770.481548 14.986348 
L 749.102204 14.756733 
L 727.810818 14.737685 
L 706.607525 14.923808 
L 685.504223 15.305177 
L 664.517203 15.875523 
L 643.66831 16.632513 
L 622.984681 17.583242 
L 602.479789 18.745597 
L 582.145249 20.13281 
L 561.971291 21.735617 
L 541.973014 23.53045 
L 522.187634 25.502069 
L 502.654805 27.656165 
L 483.404068 30.010333 
L 464.444185 32.58198 
L 445.76697 35.370436 
L 427.377184 38.346514 
L 409.320152 41.470409 
L 391.663704 44.725981 
L 374.460662 48.127377 
L 357.727322 51.696299 
L 341.450327 55.431317 
L 325.623087 59.290963 
L 310.283458 63.213094 
L 295.499416 67.164904 
L 281.309835 71.160977 
L 267.699366 75.223308 
L 254.630514 79.343841 
L 242.079599 83.491963 
L 230.039549 87.640166 
L 218.510479 91.77308 
L 207.490204 95.88578 
L 196.97018 99.983369 
L 186.929586 104.080029 
L 177.336743 108.187472 
L 168.159727 112.305878 
L 159.376809 116.4242 
L 150.980822 120.530267 
L 142.970528 124.622485 
L 135.338964 128.709549 
L 128.070621 132.798725 
L 121.151371 136.883 
L 114.576228 140.949712 
L 108.341609 144.99337 
L 102.438278 149.017597 
L 96.857907 153.022503 
L 91.60338 157.005972 
L 86.685032 160.967042 
L 82.110391 164.910829 
L 77.880564 168.840088 
L 73.991251 172.753691 
L 70.426352 176.657117 
L 67.162052 180.54888 
L 64.18861 184.400452 
L 61.52968 188.16161 
L 59.22226 191.811697 
L 57.27878 195.38387 
L 55.680019 198.923209 
L 54.399862 202.4312 
L 53.425745 205.866764 
L 52.756937 209.23887 
L 52.394423 212.737983 
L 52.363636 215.797982 
L 52.653057 218.942185 
L 53.291635 221.97948 
L 54.318134 224.94496 
L 55.765062 227.881532 
L 57.630478 230.799571 
L 59.886296 233.674778 
L 62.523098 236.479464 
L 65.565216 239.20438 
L 69.04108 241.853882 
L 72.952004 244.430127 
L 77.286896 246.927945 
L 82.047406 249.343749 
L 87.247448 251.684158 
L 92.890513 253.961721 
L 98.970575 256.184441 
L 105.482177 258.353321 
L 112.428028 260.466461 
L 119.81361 262.52429 
L 127.648034 264.529045 
L 135.946011 266.485664 
L 144.720506 268.402264 
L 153.981743 270.282437 
L 163.746187 272.122357 
L 174.045731 273.917955 
L 184.915939 275.674432 
L 196.386258 277.400613 
L 208.483573 279.098904 
L 221.245579 280.765386 
L 234.715885 282.399001 
L 248.931269 284.004458 
L 263.916986 285.58289 
L 279.692932 287.126308 
L 296.272519 288.625394 
L 313.652733 290.075415 
L 331.80686 291.470557 
L 350.693695 292.798864 
L 370.268084 294.052091 
L 411.237321 296.331208 
L 454.237343 298.287095 
L 462.653354 298.61463 
L 462.571558 300.716357 
L 498.817884 302.031512 
L 544.901438 303.387108 
L 591.97914 304.541792 
L 639.83664 305.403075 
L 762.90969 307.079964 
L 838.083181 307.749318 
L 964.99462 308.752256 
L 1041.22727 309.158156 
L 1099.636364 309.491381 
L 1099.636364 42.302131 
L 1099.636364 42.302131 
" clip-path="url(#p0aea3ebd13)" style="fill: none; stroke: #ff0000; stroke-width: 0.72; stroke-linejoin: miter"/>
   </g>
   <g id="patch_4">
    <path d="M 639.637769 245.307442 
L 650.154361 245.307442 
L 650.154361 255.824034 
L 639.637769 255.824034 
L 639.637769 266.340626 
L 650.154361 266.340626 
" clip-path="url(#p0aea3ebd13)" style="fill: none; stroke: #ff0000; stroke-width: 0.72; stroke-linejoin: miter"/>
   </g>
   <g id="patch_5">
    <path d="M 655.412657 245.307442 
L 655.412657 255.824034 
L 665.929249 255.824034 
L 665.929249 245.307442 
L 665.929249 266.340626 
" clip-path="url(#p0aea3ebd13)" style="fill: none; stroke: #ff0000; stroke-width: 0.72; stroke-linejoin: miter"/>
   </g>
   <g id="patch_6">
    <path d="M 632.523854 25.567029 
L 624.119458 25.953413 
L 623.733074 17.549016 
L 632.13747 17.162632 
L 632.523854 25.567029 
" clip-path="url(#p0aea3ebd13)" style="fill: none; stroke: #ff0000; stroke-width: 0.72; stroke-linejoin: miter"/>
   </g>
   <g id="patch_7">
    <path d="M 275.205762 81.763137 
L 267.143986 84.169575 
L 264.737549 76.107799 
L 272.799325 73.701361 
L 275.205762 81.763137 
" clip-path="url(#p0aea3ebd13)" style="fill: none; stroke: #ff0000; stroke-width: 0.72; stroke-linejoin: miter"/>
   </g>
   <g id="patch_8">
    <path d="M 94.659261 167.976919 
L 91.474149 170.724801 
L 84.604444 162.762021 
L 87.789556 160.014139 
L 94.659261 167.976919 
" clip-path="url(#p0aea3ebd13)" style="fill: none; stroke: #ff0000; stroke-width: 0.72; stroke-linejoin: miter"/>
   </g>
   <g id="patch_9">
    <path d="M 73.848489 232.429061 
L 77.364187 234.738966 
L 71.589424 243.52821 
L 68.073726 241.218305 
L 73.848489 232.429061 
" clip-path="url(#p0aea3ebd13)" style="fill: none; stroke: #ff0000; stroke-width: 0.72; stroke-linejoin: miter"/>
   </g>
   <g id="patch_10">
    <path d="M 354.653045 284.621848 
L 363.04913 285.159376 
L 362.511602 293.555461 
L 354.115518 293.017933 
L 354.653045 284.621848 
" clip-path="url(#p0aea3ebd13)" style="fill: none; stroke: #ff0000; stroke-width: 0.72; stroke-linejoin: miter"/>
   </g>
   <g id="patch_11">
    <path d="M 965.037814 161.795491 
L 964.935107 156.603897 
L 964.627168 151.421472 
L 964.11454 146.257369 
L 963.398129 141.120707 
L 962.479199 136.020559 
L 961.359375 130.965932 
L 960.040634 125.965753 
L 958.525304 121.028852 
L 956.816062 116.163949 
L 954.915927 111.379636 
L 952.828254 106.684361 
L 950.55673 102.086418 
L 948.105368 97.593927 
L 945.478496 93.214821 
L 942.680753 88.956836 
L 939.717082 84.82749 
L 936.592715 80.834076 
L 933.313172 76.983649 
L 929.884243 73.283006 
L 926.311985 69.738685 
L 922.602706 66.356945 
L 918.762958 63.143758 
L 914.799522 60.104799 
L 910.719397 57.245435 
L 906.52979 54.570716 
L 902.2381 52.085366 
L 897.851906 49.793775 
L 893.378955 47.699989 
L 888.827146 45.807705 
L 884.204519 44.120268 
L 879.519236 42.640655 
L 874.779574 41.371481 
L 869.993902 40.314987 
L 865.170673 39.473038 
L 860.318404 38.847123 
L 855.445666 38.438345 
L 850.561064 38.247428 
L 845.673224 38.274708 
L 840.79078 38.520137 
L 835.922353 38.983281 
L 831.076543 39.663324 
L 826.261907 40.559063 
L 821.486948 41.668917 
L 816.760099 42.990925 
L 812.089709 44.522754 
L 807.484025 46.261696 
L 802.951182 48.204683 
L 798.499185 50.348281 
L 794.135897 52.688705 
L 789.869024 55.221822 
L 785.706102 57.943157 
L 781.654481 60.847906 
L 777.721319 63.930937 
L 773.913562 67.186806 
L 770.237933 70.609763 
L 766.700926 74.193762 
L 763.308786 77.932474 
L 760.067504 81.819296 
L 756.982805 85.847363 
L 754.060136 90.009562 
L 751.30466 94.298541 
L 748.721242 98.706726 
L 746.314446 103.226332 
L 744.088521 107.849376 
L 742.0474 112.567694 
L 740.194686 117.372953 
L 738.533653 122.256666 
L 737.067233 127.210208 
L 735.798016 132.224831 
L 734.728244 137.291679 
L 733.859806 142.401803 
L 733.194236 147.546178 
L 732.73271 152.715718 
L 732.476042 157.901294 
L 732.424685 163.093747 
L 732.578731 168.283908 
L 732.937908 173.46261 
L 733.501581 178.620706 
L 734.268754 183.749088 
L 735.238073 188.838697 
L 736.407826 193.880546 
L 737.775946 198.865729 
L 739.340018 203.785443 
L 741.09728 208.630999 
L 743.044627 213.393839 
L 745.178621 218.065551 
L 747.495493 222.637886 
L 749.991151 227.102767 
L 752.661188 231.452309 
L 755.500887 235.678831 
L 758.505234 239.774868 
L 761.668923 243.733187 
L 764.986367 247.546796 
L 768.451706 251.20896 
L 772.05882 254.713212 
L 775.801339 258.053362 
L 779.672654 261.223512 
L 783.665927 264.218063 
L 787.774105 267.031727 
L 791.989934 269.659533 
L 796.305967 272.096842 
L 800.714583 274.339348 
L 805.207995 276.383091 
L 809.778267 278.224462 
L 814.417329 279.860209 
L 819.116986 281.287443 
L 823.868939 282.503642 
L 828.664795 283.50666 
L 833.496085 284.294725 
L 838.354276 284.866445 
L 843.230788 285.22081 
L 848.117009 285.357195 
L 853.004309 285.275358 
L 857.884056 284.975444 
L 862.747634 284.457983 
L 867.586451 283.723889 
L 872.391962 282.774458 
L 877.155681 281.611367 
L 881.869194 280.23667 
L 886.524177 278.652795 
L 891.112408 276.86254 
L 895.625785 274.869065 
L 900.056336 272.675892 
L 904.396236 270.286893 
L 908.637821 267.706289 
L 912.7736 264.938637 
L 916.796269 261.988824 
L 920.698722 258.862061 
L 924.474069 255.563869 
L 928.115642 252.100074 
L 931.617008 248.476792 
L 934.971985 244.700423 
L 938.174647 240.777637 
L 941.219338 236.71536 
L 944.100681 232.520768 
L 946.813588 228.201269 
L 949.353265 223.764491 
L 951.71523 219.21827 
L 953.89531 214.570635 
L 955.889654 209.829795 
L 957.694741 205.004121 
L 959.307383 200.102137 
L 960.724732 195.132499 
L 961.944284 190.103986 
L 962.963886 185.025477 
L 963.781736 179.905942 
L 964.396392 174.754422 
L 964.806766 169.580016 
L 965.012134 164.391861 
L 965.037814 161.795491 
L 965.037814 161.795491 
" clip-path="url(#p0aea3ebd13)" style="fill: none; stroke: #ff0000; stroke-width: 0.72; stroke-linejoin: miter"/>
   </g>
   <g id="patch_12">
    <path d="M 395.875808 151.278899 
L 406.3924 161.795491 
L 395.875808 172.312083 
L 385.359216 161.795491 
L 395.875808 151.278899 
" clip-path="url(#p0aea3ebd13)" style="fill: none; stroke: #ff0000; stroke-width: 0.72; stroke-linejoin: miter"/>
   </g>
   <g id="patch_13">
    <path d="M 840.59607 151.278899 
L 851.112662 161.795491 
L 840.59607 172.312083 
L 830.079478 161.795491 
L 840.59607 151.278899 
" clip-path="url(#p0aea3ebd13)" style="fill: none; stroke: #ff0000; stroke-width: 0.72; stroke-linejoin: miter"/>
   </g>
   <g id="patch_14">
    <path d="M 477.837191 227.062362 
L 487.653392 238.235527 
L 476.480227 248.051728 
L 466.664026 236.878563 
L 477.837191 227.062362 
" clip-path="url(#p0aea3ebd13)" style="fill: none; stroke: #ff0000; stroke-width: 0.72; stroke-linejoin: miter"/>
   </g>
   <g id="patch_15">
    <path d="M 991.398822 260.264164 
L 1001.215022 271.437329 
L 990.041857 281.25353 
L 980.225657 270.080365 
L 991.398822 260.264164 
" clip-path="url(#p0aea3ebd13)" style="fill: none; stroke: #ff0000; stroke-width: 0.72; stroke-linejoin: miter"/>
   </g>
   <g id="patch_16">
    <path d="M 522.713687 201.428081 
L 533.230279 190.911489 
L 543.746871 201.428081 
L 533.230279 211.944673 
L 522.713687 201.428081 
" clip-path="url(#p0aea3ebd13)" style="fill: none; stroke: #ff0000; stroke-width: 0.72; stroke-linejoin: miter"/>
   </g>
   <g id="patch_17">
    <path d="M 522.713687 126.033537 
L 533.230279 115.516945 
L 543.746871 126.033537 
L 533.230279 136.550129 
L 522.713687 126.033537 
" clip-path="url(#p0aea3ebd13)" style="fill: none; stroke: #ff0000; stroke-width: 0.72; stroke-linejoin: miter"/>
   </g>
   <g id="line2d_1">
    <path d="M 85.724064 161.795491 
L 1099.636364 161.795491 
" clip-path="url(#p0aea3ebd13)" style="fill: none; stroke: #ffffff; stroke-width: 0.72; stroke-linecap: square"/>
   </g>
   <g id="line2d_2">
    <path d="M 383.255897 161.795491 
L 408.495718 161.795491 
" clip-path="url(#p0aea3ebd13)" style="fill: none; stroke: #ffffff; stroke-width: 0.72; stroke-linecap: square"/>
   </g>
   <g id="line2d_3">
    <path d="M 827.97616 161.795491 
L 853.21598 161.795491 
" clip-path="url(#p0aea3ebd13)" style="fill: none; stroke: #ffffff; stroke-width: 0.72; stroke-linecap: square"/>
   </g>
   <g id="line2d_4">
    <path d="M 52.666316 210.113576 
L 1099.636364 277.800277 
" clip-path="url(#p0aea3ebd13)" style="fill: none; stroke: #ffffff; stroke-width: 0.72; stroke-linecap: square"/>
   </g>
   <g id="line2d_5">
    <path d="M 464.565089 236.742866 
L 489.752328 238.371223 
" clip-path="url(#p0aea3ebd13)" style="fill: none; stroke: #ffffff; stroke-width: 0.72; stroke-linecap: square"/>
   </g>
   <g id="line2d_6">
    <path d="M 978.12672 269.944668 
L 1003.313959 271.573025 
" clip-path="url(#p0aea3ebd13)" style="fill: none; stroke: #ffffff; stroke-width: 0.72; stroke-linecap: square"/>
   </g>
   <g id="line2d_7">
    <path d="M 848.728039 38.232082 
L 848.728039 36.128763 
" clip-path="url(#p0aea3ebd13)" style="fill: none; stroke: #ff0000; stroke-width: 0.72; stroke-linecap: square"/>
   </g>
   <g id="line2d_8">
    <path d="M 848.728039 285.3589 
L 848.728039 287.462218 
" clip-path="url(#p0aea3ebd13)" style="fill: none; stroke: #ff0000; stroke-width: 0.72; stroke-linecap: square"/>
   </g>
   <g id="line2d_9">
    <path d="M 965.037814 161.795491 
L 967.141132 161.795491 
" clip-path="url(#p0aea3ebd13)" style="fill: none; stroke: #ff0000; stroke-width: 0.72; stroke-linecap: square"/>
   </g>
   <g id="line2d_10">
    <path d="M 732.418265 161.795491 
L 730.314947 161.795491 
" clip-path="url(#p0aea3ebd13)" style="fill: none; stroke: #ff0000; stroke-width: 0.72; stroke-linecap: square"/>
   </g>
   <g id="line2d_11">
    <path d="M 533.230279 303.059952 
L 533.230279 24.401667 
" clip-path="url(#p0aea3ebd13)" style="fill: none; stroke: #ffffff; stroke-width: 0.72; stroke-linecap: square"/>
   </g>
   <g id="line2d_12">
    <path d="M 533.230279 214.047992 
L 533.230279 188.808171 
" clip-path="url(#p0aea3ebd13)" style="fill: none; stroke: #ffffff; stroke-width: 0.72; stroke-linecap: square"/>
   </g>
   <g id="line2d_13">
    <path d="M 533.230279 138.653448 
L 533.230279 113.413627 
" clip-path="url(#p0aea3ebd13)" style="fill: none; stroke: #ffffff; stroke-width: 0.72; stroke-linecap: square"/>
   </g>
  </g>
 </g>
 <defs>
  <clipPath id="p0aea3ebd13">
   <rect x="0" y="0" width="1152" height="324.229066"/>
  </clipPath>
 </defs>
</svg>
