<?xml version="1.0" encoding="utf-8" standalone="no"?>
<!DOCTYPE svg PUBLIC "-//W3C//DTD SVG 1.1//EN"
  "http://www.w3.org/Graphics/SVG/1.1/DTD/svg11.dtd">
<svg xmlns:xlink="http://www.w3.org/1999/xlink" width="1152pt" height="321.318975pt" viewBox="0 0 1152 321.318975" xmlns="http://www.w3.org/2000/svg" version="1.1">
 <metadata>
  <rdf:RDF xmlns:dc="http://purl.org/dc/elements/1.1/" xmlns:cc="http://creativecommons.org/ns#" xmlns:rdf="http://www.w3.org/1999/02/22-rdf-syntax-ns#">
   <cc:Work>
    <dc:type rdf:resource="http://purl.org/dc/dcmitype/StillImage"/>
    <dc:date>2026-01-07T02:07:14.667283</dc:date>
    <dc:format>image/svg+xml</dc:format>
    <dc:creator>
     <cc:Agent>
      <dc:title>Matplotlib v3.10.1, https://matplotlib.org/</dc:title>
     </cc:Agent>
    </dc:creator>
   </cc:Work>
  </rdf:RDF>
 </metadata>
 <defs>
  <style type="text/css">*{stroke-linejoin: round; stroke-linecap: butt}</style>
 </defs>
 <g id="figure_1">
  <g id="patch_1">
   <path d="M 0 321.318975 
L 1152 321.318975 
L 1152 0 
L 0 0 
z
" style="fill: #ffffff"/>
  </g>
  <g id="axes_1">
   <g id="patch_2">
    <path d="M 0 321.318975 
L 1152 321.318975 
L 1152 0 
L 0 0 
z
" style="fill: #212830"/>
   </g>
   <g id="patch_3">
    <path d="M 1099.636364 266.034601 
L 1099.636362 40.949252 
L 1080.461306 38.287726 
L 1059.521117 35.557993 
L 1038.5436 32.996805 
L 1017.532818 30.599451 
L 996.498275 28.366563 
L 975.442459 26.301001 
L 954.362718 24.402374 
L 933.26458 22.666452 
L 912.162752 21.093348 
L 891.066602 19.687631 
L 869.976242 18.452036 
L 848.895466 17.38387 
L 827.837964 16.483575 
L 806.814351 15.75537 
L 785.824451 15.204092 
L 764.869585 14.828145 
L 743.962473 14.627028 
L 723.114264 14.605408 
L 702.326828 14.768481 
L 681.600726 15.116077 
L 660.948959 15.647255 
L 640.385188 16.36639 
L 619.911685 17.279798 
L 599.531742 18.387477 
L 579.25981 19.688302 
L 559.112125 21.187221 
L 539.092144 22.890911 
L 519.20661 24.798054 
L 499.475579 26.907782 
L 479.914717 29.226574 
L 460.529907 31.758974 
L 441.335631 34.501679 
L 422.356249 37.455192 
L 403.607561 40.624372 
L 385.103138 44.00569 
L 366.881236 47.585327 
L 348.987967 51.361161 
L 331.451491 55.335485 
L 314.302858 59.494013 
L 297.597781 63.816449 
L 281.386308 68.295683 
L 265.703345 72.91788 
L 250.596518 77.649643 
L 236.124306 82.461343 
L 222.326508 87.334566 
L 209.229228 92.237117 
L 196.862499 97.128253 
L 185.24663 101.981477 
L 174.378175 106.777811 
L 164.241975 111.489992 
L 154.820892 116.093656 
L 146.088742 120.580238 
L 138.00654 124.949428 
L 130.528995 129.196787 
L 123.614172 133.31523 
L 117.223858 137.305929 
L 111.318653 141.177868 
L 105.859249 144.940056 
L 100.807899 148.598318 
L 96.133522 152.154909 
L 91.810682 155.616858 
L 87.816043 158.99657 
L 84.12154 162.310303 
L 80.695999 165.56339 
L 74.535481 171.867359 
L 69.194555 177.830795 
L 66.832356 180.684955 
L 64.682543 183.474847 
L 62.743882 186.22297 
L 61.005021 188.950539 
L 59.44937 191.662691 
L 58.058492 194.355473 
L 56.819582 197.012737 
L 55.727061 199.622286 
L 54.782661 202.17386 
L 53.991892 204.666745 
L 53.359389 207.108157 
L 52.885845 209.505368 
L 52.567301 211.863991 
L 52.387891 214.37786 
L 52.363636 216.509444 
L 52.479782 218.847325 
L 52.758841 221.177022 
L 53.221403 223.487839 
L 53.892958 225.780427 
L 54.794998 228.058815 
L 55.935423 230.322013 
L 57.307048 232.56267 
L 58.894454 234.768078 
L 60.687318 236.926065 
L 62.684622 239.02674 
L 64.895493 241.065441 
L 67.328987 243.041915 
L 69.990616 244.960662 
L 72.877449 246.827966 
L 75.98727 248.650731 
L 79.318256 250.432666 
L 82.880406 252.175212 
L 86.68834 253.878946 
L 90.765416 255.545872 
L 95.134907 257.18252 
L 99.820366 258.798982 
L 104.847749 260.406377 
L 116.047529 263.628779 
L 122.301268 265.251562 
L 129.059992 266.885421 
L 136.382108 268.53536 
L 144.331781 270.206235 
L 152.977152 271.899991 
L 162.394767 273.613538 
L 172.666798 275.341625 
L 183.872354 277.081935 
L 196.077879 278.830543 
L 209.333609 280.574258 
L 223.672435 282.294102 
L 239.100957 283.975581 
L 255.5833 285.6066 
L 273.051278 287.165975 
L 291.426361 288.635846 
L 310.610969 290.011109 
L 330.491455 291.284408 
L 350.975333 292.447019 
L 371.984001 293.503269 
L 393.437696 294.458091 
L 437.532844 296.072351 
L 462.483999 296.864159 
L 462.372949 300.505752 
L 505.548718 301.762449 
L 551.488663 302.753303 
L 668.69125 304.683198 
L 715.753926 305.221662 
L 881.149007 306.713567 
L 1099.636364 266.034601 
L 1099.636364 266.034601 
" clip-path="url(#pd97b634240)" style="fill: none; stroke: #ff0000; stroke-width: 0.72; stroke-linejoin: miter"/>
   </g>
   <g id="patch_4">
    <path d="M 639.494242 240.566544 
L 651.638527 240.566544 
L 651.638527 252.71083 
L 639.494242 252.71083 
L 651.638527 252.71083 
L 651.638527 264.855115 
L 639.494242 264.855115 
" clip-path="url(#pd97b634240)" style="fill: none; stroke: #ff0000; stroke-width: 0.72; stroke-linejoin: miter"/>
   </g>
   <g id="patch_5">
    <path d="M 669.854956 240.566544 
L 664.997241 240.566544 
" clip-path="url(#pd97b634240)" style="fill: none; stroke: #ff0000; stroke-width: 0.72; stroke-linejoin: miter"/>
   </g>
   <g id="patch_6">
    <path d="M 662.568384 240.566544 
L 657.71067 240.566544 
L 657.71067 264.855115 
L 662.568384 264.855115 
" clip-path="url(#pd97b634240)" style="fill: none; stroke: #ff0000; stroke-width: 0.72; stroke-linejoin: miter"/>
   </g>
   <g id="patch_7">
    <path d="M 664.997241 264.855115 
L 669.854956 264.855115 
L 669.854956 252.71083 
L 664.997241 252.71083 
" clip-path="url(#pd97b634240)" style="fill: none; stroke: #ff0000; stroke-width: 0.72; stroke-linejoin: miter"/>
   </g>
   <g id="patch_8">
    <path d="M 662.568384 252.71083 
L 657.71067 252.71083 
" clip-path="url(#pd97b634240)" style="fill: none; stroke: #ff0000; stroke-width: 0.72; stroke-linejoin: miter"/>
   </g>
   <g id="patch_9">
    <path d="M 633.005317 26.420795 
L 623.299547 26.853891 
L 622.866451 17.14812 
L 632.572221 16.715025 
L 633.005317 26.420795 
" clip-path="url(#pd97b634240)" style="fill: none; stroke: #ff0000; stroke-width: 0.72; stroke-linejoin: miter"/>
   </g>
   <g id="patch_10">
    <path d="M 276.141656 79.970306 
L 266.822636 82.717199 
L 264.075743 73.398179 
L 273.394763 70.651287 
L 276.141656 79.970306 
" clip-path="url(#pd97b634240)" style="fill: none; stroke: #ff0000; stroke-width: 0.72; stroke-linejoin: miter"/>
   </g>
   <g id="patch_11">
    <path d="M 96.173969 167.813509 
L 92.558717 171.058095 
L 84.447252 162.019964 
L 88.062504 158.775378 
L 96.173969 167.813509 
" clip-path="url(#pd97b634240)" style="fill: none; stroke: #ff0000; stroke-width: 0.72; stroke-linejoin: miter"/>
   </g>
   <g id="patch_12">
    <path d="M 74.795515 233.452759 
L 78.740001 236.287969 
L 71.651975 246.149184 
L 67.707489 243.313974 
L 74.795515 233.452759 
" clip-path="url(#pd97b634240)" style="fill: none; stroke: #ff0000; stroke-width: 0.72; stroke-linejoin: miter"/>
   </g>
   <g id="patch_13">
    <path d="M 353.659772 282.854278 
L 363.362946 283.342095 
L 362.875129 293.045269 
L 353.171955 292.557452 
L 353.659772 282.854278 
" clip-path="url(#pd97b634240)" style="fill: none; stroke: #ff0000; stroke-width: 0.72; stroke-linejoin: miter"/>
   </g>
   <g id="patch_14">
    <path d="M 961.267361 160.27736 
L 961.167914 155.25584 
L 960.86975 150.243188 
L 960.373395 145.248257 
L 959.679726 140.279868 
L 958.789968 135.346798 
L 957.705692 130.457757 
L 956.428813 125.62138 
L 954.961586 120.846209 
L 953.306602 116.140676 
L 951.466785 111.513094 
L 949.445384 106.971633 
L 947.245968 102.524316 
L 944.872422 98.178995 
L 942.328938 93.943346 
L 939.620008 89.824849 
L 936.750416 85.830778 
L 933.72523 81.968186 
L 930.549793 78.243896 
L 927.229713 74.664484 
L 923.770854 71.236272 
L 920.179323 67.965315 
L 916.461465 64.85739 
L 912.623845 61.917985 
L 908.673241 59.152292 
L 904.61663 56.565195 
L 900.461176 54.161264 
L 896.214218 51.944743 
L 891.883258 49.919548 
L 887.475942 48.089255 
L 883.000056 46.457096 
L 878.463505 45.025955 
L 873.874299 43.798358 
L 869.240545 42.776474 
L 864.570425 41.962107 
L 859.872188 41.356696 
L 855.154131 40.96131 
L 850.424587 40.776646 
L 845.691908 40.803033 
L 840.964454 41.040422 
L 836.250572 41.488394 
L 831.558588 42.146159 
L 826.896788 43.012554 
L 822.273407 44.08605 
L 817.696608 45.36475 
L 813.174476 46.846397 
L 808.714996 48.528373 
L 804.326045 50.407709 
L 800.015373 52.481084 
L 795.790595 54.744837 
L 791.65917 57.194971 
L 787.628396 59.827158 
L 783.705392 62.636749 
L 779.897085 65.618782 
L 776.210201 68.767991 
L 772.651253 72.078814 
L 769.226525 75.545404 
L 765.942066 79.161638 
L 762.803676 82.921131 
L 759.816898 86.817241 
L 756.987008 90.843089 
L 754.319002 94.991564 
L 751.817593 99.25534 
L 749.487198 103.626887 
L 747.331934 108.098483 
L 745.355607 112.662232 
L 743.561706 117.310074 
L 741.953401 122.0338 
L 740.533531 126.825068 
L 739.304604 131.675415 
L 738.268791 136.576277 
L 737.427922 141.518996 
L 736.78348 146.494845 
L 736.336604 151.495035 
L 736.088084 156.510735 
L 736.038358 161.533087 
L 736.187514 166.553222 
L 736.535288 171.562273 
L 737.081068 176.551393 
L 737.823888 181.511773 
L 738.762436 186.43465 
L 739.895056 191.311331 
L 741.219747 196.133203 
L 742.734169 200.891751 
L 744.435647 205.57857 
L 746.321178 210.185382 
L 748.38743 214.704053 
L 750.630754 219.126601 
L 753.04719 223.445215 
L 755.632468 227.65227 
L 758.382023 231.740334 
L 761.291 235.702188 
L 764.35426 239.530834 
L 767.566393 243.219512 
L 770.921728 246.761706 
L 774.414337 250.151161 
L 778.038053 253.381891 
L 781.786476 256.448189 
L 785.652985 259.34464 
L 789.630753 262.06613 
L 793.712753 264.607851 
L 797.891777 266.965315 
L 802.160445 269.134359 
L 806.511217 271.11115 
L 810.93641 272.892199 
L 815.428207 274.47436 
L 819.978677 275.854839 
L 824.579783 277.031196 
L 829.223399 278.001356 
L 833.901323 278.763604 
L 838.605295 279.316595 
L 843.327006 279.659351 
L 848.058117 279.791268 
L 852.790273 279.712112 
L 857.515117 279.422024 
L 862.224304 278.921515 
L 866.909517 278.211469 
L 871.562481 277.293141 
L 876.174979 276.168152 
L 880.738865 274.838489 
L 885.246079 273.306501 
L 889.688661 271.574892 
L 894.058764 269.646722 
L 898.34867 267.525396 
L 902.550803 265.21466 
L 906.657743 262.718595 
L 910.662234 260.041609 
L 914.557206 257.18843 
L 918.33578 254.164097 
L 921.991281 250.973952 
L 925.517255 247.623628 
L 928.907473 244.119042 
L 932.155949 240.466385 
L 935.256945 236.672106 
L 938.204985 232.742907 
L 940.994862 228.685727 
L 943.621649 224.507731 
L 946.080706 220.216299 
L 948.367692 215.819009 
L 950.478567 211.323628 
L 952.409602 206.738094 
L 954.157389 202.070506 
L 955.718838 197.329107 
L 957.091194 192.522272 
L 958.272033 187.658489 
L 959.259268 182.746349 
L 960.051157 177.794526 
L 960.6463 172.811766 
L 961.043647 167.80687 
L 961.242496 162.788675 
L 961.267361 160.27736 
L 961.267361 160.27736 
" clip-path="url(#pd97b634240)" style="fill: none; stroke: #ff0000; stroke-width: 0.72; stroke-linejoin: miter"/>
   </g>
   <g id="patch_15">
    <path d="M 398.061881 148.133075 
L 410.206166 160.27736 
L 398.061881 172.421646 
L 385.917595 160.27736 
L 398.061881 148.133075 
" clip-path="url(#pd97b634240)" style="fill: none; stroke: #ff0000; stroke-width: 0.72; stroke-linejoin: miter"/>
   </g>
   <g id="patch_16">
    <path d="M 841.891224 148.133075 
L 854.03551 160.27736 
L 841.891224 172.421646 
L 829.746939 160.27736 
L 841.891224 148.133075 
" clip-path="url(#pd97b634240)" style="fill: none; stroke: #ff0000; stroke-width: 0.72; stroke-linejoin: miter"/>
   </g>
   <g id="patch_17">
    <path d="M 261.266322 213.619878 
L 272.606099 226.518592 
L 259.707385 237.858368 
L 248.367609 224.959655 
L 261.266322 213.619878 
" clip-path="url(#pd97b634240)" style="fill: none; stroke: #ff0000; stroke-width: 0.72; stroke-linejoin: miter"/>
   </g>
   <g id="patch_18">
    <path d="M 501.51661 229.071956 
L 512.856387 241.970669 
L 499.957673 253.310446 
L 488.617896 240.411732 
L 501.51661 229.071956 
" clip-path="url(#pd97b634240)" style="fill: none; stroke: #ff0000; stroke-width: 0.72; stroke-linejoin: miter"/>
   </g>
   <g id="patch_19">
    <path d="M 472.1769 201.071289 
L 484.321186 188.927003 
L 496.465471 201.071289 
L 484.321186 213.215574 
L 472.1769 201.071289 
" clip-path="url(#pd97b634240)" style="fill: none; stroke: #ff0000; stroke-width: 0.72; stroke-linejoin: miter"/>
   </g>
   <g id="patch_20">
    <path d="M 472.1769 128.803828 
L 484.321186 116.659543 
L 496.465471 128.803828 
L 484.321186 140.948114 
L 472.1769 128.803828 
" clip-path="url(#pd97b634240)" style="fill: none; stroke: #ff0000; stroke-width: 0.72; stroke-linejoin: miter"/>
   </g>
   <g id="line2d_1">
    <path d="M 86.388081 160.27736 
L 1099.636362 160.27736 
" clip-path="url(#pd97b634240)" style="fill: none; stroke: #ffffff; stroke-width: 0.72; stroke-linecap: square"/>
   </g>
   <g id="line2d_2">
    <path d="M 383.488738 160.27736 
L 412.635024 160.27736 
" clip-path="url(#pd97b634240)" style="fill: none; stroke: #ffffff; stroke-width: 0.72; stroke-linecap: square"/>
   </g>
   <g id="line2d_3">
    <path d="M 827.318082 160.27736 
L 856.464367 160.27736 
" clip-path="url(#pd97b634240)" style="fill: none; stroke: #ffffff; stroke-width: 0.72; stroke-linecap: square"/>
   </g>
   <g id="line2d_4">
    <path d="M 52.531605 212.364153 
L 1045.042793 276.199079 
" clip-path="url(#pd97b634240)" style="fill: none; stroke: #ffffff; stroke-width: 0.72; stroke-linecap: square"/>
   </g>
   <g id="line2d_5">
    <path d="M 245.94376 224.803761 
L 275.029948 226.674485 
" clip-path="url(#pd97b634240)" style="fill: none; stroke: #ffffff; stroke-width: 0.72; stroke-linecap: square"/>
   </g>
   <g id="line2d_6">
    <path d="M 486.194047 240.255839 
L 515.280236 242.126563 
" clip-path="url(#pd97b634240)" style="fill: none; stroke: #ffffff; stroke-width: 0.72; stroke-linecap: square"/>
   </g>
   <g id="line2d_7">
    <path d="M 848.649751 40.761803 
L 848.649751 38.332946 
" clip-path="url(#pd97b634240)" style="fill: none; stroke: #ff0000; stroke-width: 0.72; stroke-linecap: square"/>
   </g>
   <g id="line2d_8">
    <path d="M 848.649751 279.792917 
L 848.649751 282.221775 
" clip-path="url(#pd97b634240)" style="fill: none; stroke: #ff0000; stroke-width: 0.72; stroke-linecap: square"/>
   </g>
   <g id="line2d_9">
    <path d="M 961.267361 160.27736 
L 963.696218 160.27736 
" clip-path="url(#pd97b634240)" style="fill: none; stroke: #ff0000; stroke-width: 0.72; stroke-linecap: square"/>
   </g>
   <g id="line2d_10">
    <path d="M 736.032141 160.27736 
L 733.603284 160.27736 
" clip-path="url(#pd97b634240)" style="fill: none; stroke: #ff0000; stroke-width: 0.72; stroke-linecap: square"/>
   </g>
   <g id="line2d_11">
    <path d="M 484.321186 301.170897 
L 484.321186 28.70422 
" clip-path="url(#pd97b634240)" style="fill: none; stroke: #ffffff; stroke-width: 0.72; stroke-linecap: square"/>
   </g>
   <g id="line2d_12">
    <path d="M 484.321186 215.644431 
L 484.321186 186.498146 
" clip-path="url(#pd97b634240)" style="fill: none; stroke: #ffffff; stroke-width: 0.72; stroke-linecap: square"/>
   </g>
   <g id="line2d_13">
    <path d="M 484.321186 143.376971 
L 484.321186 114.230686 
" clip-path="url(#pd97b634240)" style="fill: none; stroke: #ffffff; stroke-width: 0.72; stroke-linecap: square"/>
   </g>
  </g>
 </g>
 <defs>
  <clipPath id="pd97b634240">
   <rect x="0" y="0" width="1152" height="321.318975"/>
  </clipPath>
 </defs>
</svg>
