<?xml version="1.0" encoding="utf-8" standalone="no"?>
<!DOCTYPE svg PUBLIC "-//W3C//DTD SVG 1.1//EN"
  "http://www.w3.org/Graphics/SVG/1.1/DTD/svg11.dtd">
<svg xmlns:xlink="http://www.w3.org/1999/xlink" width="803.36049pt" height="345.6pt" viewBox="0 0 803.36049 345.6" xmlns="http://www.w3.org/2000/svg" version="1.1">
 <metadata>
  <rdf:RDF xmlns:dc="http://purl.org/dc/elements/1.1/" xmlns:cc="http://creativecommons.org/ns#" xmlns:rdf="http://www.w3.org/1999/02/22-rdf-syntax-ns#">
   <cc:Work>
    <dc:type rdf:resource="http://purl.org/dc/dcmitype/StillImage"/>
    <dc:date>2026-01-07T02:07:15.982074</dc:date>
    <dc:format>image/svg+xml</dc:format>
    <dc:creator>
     <cc:Agent>
      <dc:title>Matplotlib v3.10.1, https://matplotlib.org/</dc:title>
     </cc:Agent>
    </dc:creator>
   </cc:Work>
  </rdf:RDF>
 </metadata>
 <defs>
  <style type="text/css">*{stroke-linejoin: round; stroke-linecap: butt}</style>
 </defs>
 <g id="figure_1">
  <g id="patch_1">
   <path d="M 0 345.6 
L 803.36049 345.6 
L 803.36049 0 
L 0 0 
z
" style="fill: #ffffff"/>
  </g>
  <g id="axes_1">
   <g id="patch_2">
    <path d="M 0 345.6 
L 803.36049 345.6 
L 803.36049 0 
L 0 0 
z
" style="fill: #212830"/>
   </g>
   <g id="patch_3">
    <path d="M 36.516386 329.890909 
L 766.844105 194.046342 
L 766.844105 194.046342 
L 765.22544 193.500583 
L 735.579257 183.647562 
L 706.087375 174.007166 
L 676.727894 164.584486 
L 647.489636 155.383056 
L 618.360705 146.410855 
L 589.317734 137.672522 
L 560.337578 129.166156 
L 531.40828 120.890801 
L 502.520922 112.849969 
L 473.65861 105.045632 
L 444.803672 97.4759 
L 415.94947 90.137263 
L 387.094287 83.032019 
L 358.228826 76.163497 
L 329.340654 69.529338 
L 300.426782 63.126229 
L 271.491141 56.955954 
L 242.529698 51.021666 
L 213.535547 45.322563 
L 184.505803 39.85585 
L 155.447184 34.621471 
L 126.361443 29.623293 
L 97.242986 24.862043 
L 68.091398 20.334531 
L 38.91382 16.041859 
L 36.516386 15.709091 
L 36.516386 329.890909 
" clip-path="url(#pf4159425a4)" style="fill: none; stroke: #ff0000; stroke-width: 0.72; stroke-linejoin: miter"/>
   </g>
   <g id="patch_4">
    <path d="M 634.974121 292.87335 
L 634.974121 310.531138 
L 652.631909 310.531138 
L 652.631909 292.87335 
L 652.631909 328.188925 
" clip-path="url(#pf4159425a4)" style="fill: none; stroke: #ff0000; stroke-width: 0.72; stroke-linejoin: miter"/>
   </g>
   <g id="patch_5">
    <path d="M 668.523918 292.87335 
L 661.460803 292.87335 
L 661.460803 328.188925 
L 668.523918 328.188925 
" clip-path="url(#pf4159425a4)" style="fill: none; stroke: #ff0000; stroke-width: 0.72; stroke-linejoin: miter"/>
   </g>
   <g id="patch_6">
    <path d="M 672.055475 328.188925 
L 679.11859 328.188925 
L 679.11859 292.87335 
L 672.055475 292.87335 
" clip-path="url(#pf4159425a4)" style="fill: none; stroke: #ff0000; stroke-width: 0.72; stroke-linejoin: miter"/>
   </g>
   <g id="patch_7">
    <path d="M 483.207966 122.261396 
L 469.571444 118.574169 
L 473.258671 104.937647 
L 486.895193 108.624874 
L 483.207966 122.261396 
" clip-path="url(#pf4159425a4)" style="fill: none; stroke: #ff0000; stroke-width: 0.72; stroke-linejoin: miter"/>
   </g>
   <g id="patch_8">
    <path d="M 295.367747 164.485182 
L 313.025534 182.14297 
L 295.367747 199.800757 
L 277.709959 182.14297 
L 295.367747 164.485182 
" clip-path="url(#pf4159425a4)" style="fill: none; stroke: #ff0000; stroke-width: 0.72; stroke-linejoin: miter"/>
   </g>
   <g id="patch_9">
    <path d="M 727.815558 192.478654 
L 745.473345 174.820867 
L 763.131133 192.478654 
L 745.473345 210.136442 
L 727.815558 192.478654 
" clip-path="url(#pf4159425a4)" style="fill: none; stroke: #ff0000; stroke-width: 0.72; stroke-linejoin: miter"/>
   </g>
   <g id="line2d_1">
    <path d="M 36.516386 182.14297 
L 730.976412 182.14297 
" clip-path="url(#pf4159425a4)" style="fill: none; stroke: #ffffff; stroke-width: 0.72; stroke-linecap: square"/>
   </g>
   <g id="line2d_2">
    <path d="M 274.178402 182.14297 
L 316.557092 182.14297 
" clip-path="url(#pf4159425a4)" style="fill: none; stroke: #ffffff; stroke-width: 0.72; stroke-linecap: square"/>
   </g>
   <g id="line2d_3">
    <path d="M 745.473345 198.021409 
L 745.473345 186.935899 
" clip-path="url(#pf4159425a4)" style="fill: none; stroke: #ffffff; stroke-width: 0.72; stroke-linecap: square"/>
   </g>
   <g id="line2d_4">
    <path d="M 745.473345 213.667999 
L 745.473345 171.289309 
" clip-path="url(#pf4159425a4)" style="fill: none; stroke: #ffffff; stroke-width: 0.72; stroke-linecap: square"/>
   </g>
  </g>
 </g>
 <defs>
  <clipPath id="pf4159425a4">
   <rect x="0" y="0" width="803.36049" height="345.6"/>
  </clipPath>
 </defs>
</svg>
