<?xml version="1.0" encoding="utf-8" standalone="no"?>
<!DOCTYPE svg PUBLIC "-//W3C//DTD SVG 1.1//EN"
  "http://www.w3.org/Graphics/SVG/1.1/DTD/svg11.dtd">
<svg xmlns:xlink="http://www.w3.org/1999/xlink" width="1152pt" height="147.429878pt" viewBox="0 0 1152 147.429878" xmlns="http://www.w3.org/2000/svg" version="1.1">
 <metadata>
  <rdf:RDF xmlns:dc="http://purl.org/dc/elements/1.1/" xmlns:cc="http://creativecommons.org/ns#" xmlns:rdf="http://www.w3.org/1999/02/22-rdf-syntax-ns#">
   <cc:Work>
    <dc:type rdf:resource="http://purl.org/dc/dcmitype/StillImage"/>
    <dc:date>2026-01-07T02:07:25.075038</dc:date>
    <dc:format>image/svg+xml</dc:format>
    <dc:creator>
     <cc:Agent>
      <dc:title>Matplotlib v3.10.1, https://matplotlib.org/</dc:title>
     </cc:Agent>
    </dc:creator>
   </cc:Work>
  </rdf:RDF>
 </metadata>
 <defs>
  <style type="text/css">*{stroke-linejoin: round; stroke-linecap: butt}</style>
 </defs>
 <g id="figure_1">
  <g id="patch_1">
   <path d="M 0 147.429878 
L 1152 147.429878 
L 1152 0 
L 0 0 
z
" style="fill: #ffffff"/>
  </g>
  <g id="axes_1">
   <g id="patch_2">
    <path d="M 0 147.429878 
L 1152 147.429878 
L 1152 0 
L 0 0 
z
" style="fill: #212830"/>
   </g>
   <g id="patch_3">
    <path d="M 1099.377171 138.846604 
L 1086.640389 136.125214 
L 1069.27976 132.194633 
L 1050.902284 127.855097 
L 1022.826916 120.927179 
L 994.669934 113.676632 
L 966.619606 106.113548 
L 938.493842 98.367426 
L 891.606247 85.158869 
L 844.776428 72.080456 
L 838.925624 70.491229 
L 838.212086 73.11815 
L 825.385176 69.679345 
L 806.696569 64.805837 
L 787.993582 60.087315 
L 769.297955 55.570219 
L 750.527195 51.240553 
L 731.734174 47.073248 
L 712.932553 43.113389 
L 694.072671 39.33728 
L 675.206904 35.791295 
L 656.2723 32.420084 
L 637.335429 29.262589 
L 618.328707 26.307383 
L 599.306595 23.536896 
L 580.229296 20.961563 
L 561.160575 18.57303 
L 542.082028 16.403248 
L 522.958227 14.419952 
L 503.83764 12.65564 
L 484.732239 11.101257 
L 465.605537 9.776131 
L 446.463965 8.677918 
L 427.352669 7.7951 
L 408.238079 7.18318 
L 389.156697 6.815901 
L 370.064606 6.701358 
L 351.03223 6.858828 
L 332.029323 7.326722 
L 313.046277 8.086306 
L 294.127461 9.163747 
L 275.24454 10.564049 
L 256.516581 12.28988 
L 237.89227 14.42829 
L 228.636314 15.653791 
L 219.410538 16.993613 
L 201.031947 20.001444 
L 191.949555 21.659931 
L 182.942703 23.449118 
L 174.019919 25.376016 
L 165.17368 27.450835 
L 156.430053 29.675563 
L 147.76185 32.070042 
L 139.24162 34.589235 
L 130.878107 37.292206 
L 122.695726 40.14837 
L 114.762053 43.163901 
L 107.107443 46.335978 
L 99.828933 49.625157 
L 93.027017 52.994536 
L 86.748059 56.435584 
L 81.107968 59.799099 
L 76.170762 63.043459 
L 71.925464 66.122353 
L 68.315597 69.001579 
L 65.340034 71.575358 
L 60.756553 76.241028 
L 59.085356 78.20419 
L 57.716273 80.059904 
L 55.66303 83.400243 
L 54.273261 86.370373 
L 53.351845 88.853127 
L 52.780402 91.024053 
L 52.363636 93.827403 
L 52.837727 98.202443 
L 53.172154 99.201845 
L 53.653561 100.280842 
L 54.295231 101.429181 
L 55.121834 102.647732 
L 56.155177 103.93202 
L 57.412072 105.269334 
L 58.928814 106.652389 
L 60.762026 108.078033 
L 63.000087 109.554961 
L 65.727479 111.101738 
L 68.955339 112.726295 
L 72.706281 114.405095 
L 77.145777 116.097784 
L 82.41023 117.802413 
L 88.485599 119.544309 
L 95.248807 121.288541 
L 102.675997 122.925514 
L 110.690851 124.465776 
L 119.063069 125.904843 
L 127.71075 127.182764 
L 136.62978 128.293179 
L 155.142068 130.282458 
L 164.400991 131.191361 
L 173.70442 131.931424 
L 202.290178 133.791172 
L 221.344678 134.785755 
L 240.558761 135.500157 
L 257.060845 136.007623 
L 256.97965 138.728517 
L 279.157375 139.315038 
L 298.425911 139.698874 
L 356.867991 140.447163 
L 386.144756 140.607376 
L 464.467846 140.705726 
L 513.396602 140.537043 
L 572.040404 140.106182 
L 669.703775 138.810118 
L 708.735368 138.20469 
L 777.01553 136.979803 
L 845.384857 135.905673 
L 904.045928 135.29497 
L 943.046216 135.147451 
L 991.690694 135.348016 
L 1020.832282 135.743894 
L 1049.815374 136.388527 
L 1077.89584 137.298642 
L 1099.636364 138.258199 
L 1099.377171 138.846604 
L 1099.377171 138.846604 
" clip-path="url(#p9c7097d3f1)" style="fill: none; stroke: #ff0000; stroke-width: 0.72; stroke-linejoin: miter"/>
   </g>
   <g id="patch_4">
    <path d="M 737.167621 59.411367 
L 726.531759 57.079831 
L 728.863295 46.443969 
L 739.499157 48.775505 
L 737.167621 59.411367 
" clip-path="url(#p9c7097d3f1)" style="fill: none; stroke: #ff0000; stroke-width: 0.72; stroke-linejoin: miter"/>
   </g>
   <g id="patch_5">
    <path d="M 342.427493 17.923245 
L 331.543499 18.233542 
L 331.233202 7.349548 
L 342.117197 7.039251 
L 342.427493 17.923245 
" clip-path="url(#p9c7097d3f1)" style="fill: none; stroke: #ff0000; stroke-width: 0.72; stroke-linejoin: miter"/>
   </g>
   <g id="patch_6">
    <path d="M 165.513542 38.59994 
L 154.961593 41.28583 
L 152.275704 30.733881 
L 162.827653 28.047992 
L 165.513542 38.59994 
" clip-path="url(#p9c7097d3f1)" style="fill: none; stroke: #ff0000; stroke-width: 0.72; stroke-linejoin: miter"/>
   </g>
   <g id="patch_7">
    <path d="M 78.920033 77.818523 
L 74.809876 81.388678 
L 65.884487 71.113285 
L 69.994644 67.543129 
L 78.920033 77.818523 
" clip-path="url(#p9c7097d3f1)" style="fill: none; stroke: #ff0000; stroke-width: 0.72; stroke-linejoin: miter"/>
   </g>
   <g id="patch_8">
    <path d="M 66.698602 95.457488 
L 71.013072 98.777842 
L 62.712185 109.564017 
L 58.397715 106.243663 
L 66.698602 95.457488 
" clip-path="url(#p9c7097d3f1)" style="fill: none; stroke: #ff0000; stroke-width: 0.72; stroke-linejoin: miter"/>
   </g>
   <g id="patch_9">
    <path d="M 199.774549 122.743342 
L 210.645644 123.357263 
L 210.031723 134.228359 
L 199.160627 133.614438 
L 199.774549 122.743342 
" clip-path="url(#p9c7097d3f1)" style="fill: none; stroke: #ff0000; stroke-width: 0.72; stroke-linejoin: miter"/>
   </g>
   <g id="line2d_1">
    <path d="M 1046.360778 126.749085 
L 1045.801212 129.413055 
" clip-path="url(#p9c7097d3f1)" style="fill: none; stroke: #ff0000; stroke-width: 0.72; stroke-linecap: square"/>
   </g>
   <g id="line2d_2">
    <path d="M 1045.306774 133.552488 
L 1045.223422 136.273316 
" clip-path="url(#p9c7097d3f1)" style="fill: none; stroke: #ff0000; stroke-width: 0.72; stroke-linecap: square"/>
   </g>
   <g id="line2d_3">
    <path d="M 993.561454 113.382248 
L 992.947501 116.034212 
" clip-path="url(#p9c7097d3f1)" style="fill: none; stroke: #ff0000; stroke-width: 0.72; stroke-linecap: square"/>
   </g>
   <g id="line2d_4">
    <path d="M 990.851875 132.618656 
L 990.786865 135.339984 
" clip-path="url(#p9c7097d3f1)" style="fill: none; stroke: #ff0000; stroke-width: 0.72; stroke-linecap: square"/>
   </g>
   <g id="line2d_5">
    <path d="M 782.720137 58.796958 
L 782.060608 61.437956 
" clip-path="url(#p9c7097d3f1)" style="fill: none; stroke: #ff0000; stroke-width: 0.72; stroke-linecap: square"/>
   </g>
   <g id="line2d_6">
    <path d="M 772.996061 134.332608 
L 772.98868 137.054702 
" clip-path="url(#p9c7097d3f1)" style="fill: none; stroke: #ff0000; stroke-width: 0.72; stroke-linecap: square"/>
   </g>
   <g id="patch_10">
    <path d="M 510.555802 73.498491 
L 510.434297 69.594619 
L 510.070265 65.706257 
L 509.465152 61.848853 
L 508.621363 58.037734 
L 507.542249 54.288039 
L 506.232098 50.614667 
L 504.696115 47.032212 
L 502.940403 43.554907 
L 500.971937 40.196567 
L 498.798537 36.970535 
L 496.428839 33.889628 
L 493.872257 30.966085 
L 491.138949 28.211523 
L 488.239773 25.636885 
L 485.186249 23.2524 
L 481.990507 21.067542 
L 478.665245 19.090991 
L 475.223674 17.330599 
L 471.679466 15.793361 
L 468.046704 14.485384 
L 464.339819 13.411865 
L 460.573539 12.577069 
L 456.762828 11.984312 
L 452.922826 11.635949 
L 449.068788 11.533365 
L 445.216026 11.676967 
L 441.379849 12.066184 
L 437.575495 12.699471 
L 433.818081 13.57431 
L 430.122535 14.687227 
L 426.503538 16.0338 
L 422.975469 17.608679 
L 419.552345 19.405606 
L 416.247765 21.417444 
L 413.07486 23.636198 
L 410.046234 26.053054 
L 407.17392 28.658409 
L 404.46933 31.441913 
L 401.94321 34.392507 
L 399.605595 37.498468 
L 397.465773 40.747457 
L 395.532245 44.126564 
L 393.812693 47.622365 
L 392.313949 51.220972 
L 391.041967 54.908087 
L 390.001802 58.669061 
L 389.197584 62.488952 
L 388.63251 66.352583 
L 388.308825 70.244605 
L 388.227814 74.149555 
L 388.3898 78.051918 
L 388.794139 81.93619 
L 389.439224 85.78694 
L 390.322492 89.588868 
L 391.440435 93.326869 
L 392.78861 96.986093 
L 394.361662 100.552 
L 396.153341 104.010425 
L 398.156529 107.347627 
L 400.363266 110.550347 
L 402.764786 113.60586 
L 405.351547 116.502028 
L 408.113272 119.227344 
L 411.038989 121.77098 
L 414.117075 124.122831 
L 417.335299 126.273553 
L 420.680877 128.2146 
L 424.140516 129.938261 
L 427.70047 131.437689 
L 431.346598 132.706925 
L 435.064411 133.740928 
L 438.839141 134.535589 
L 442.655789 135.087751 
L 446.499193 135.39522 
L 450.354082 135.456775 
L 454.205141 135.272172 
L 458.037071 134.842142 
L 461.834646 134.168396 
L 465.582779 133.25361 
L 469.26658 132.101418 
L 472.871411 130.716398 
L 476.382953 129.104052 
L 479.787252 127.270787 
L 483.070784 125.223886 
L 486.220503 122.971481 
L 489.223897 120.522521 
L 492.069031 117.886736 
L 494.744604 115.074597 
L 497.239984 112.097277 
L 499.545257 108.966605 
L 501.651266 105.69502 
L 503.549642 102.295518 
L 505.232843 98.781606 
L 506.694183 95.167245 
L 507.927855 91.466794 
L 508.928958 87.694956 
L 509.693515 83.866716 
L 510.218487 79.997283 
L 510.50179 76.10203 
L 510.555802 73.498491 
L 510.555802 73.498491 
" clip-path="url(#p9c7097d3f1)" style="fill: none; stroke: #ff0000; stroke-width: 0.72; stroke-linejoin: miter"/>
   </g>
   <g id="line2d_7">
    <path d="M 63.387295 73.498491 
L 849.923363 73.498491 
" clip-path="url(#p9c7097d3f1)" style="fill: none; stroke: #ffffff; stroke-width: 0.72; stroke-linecap: square"/>
   </g>
   <g id="line2d_8">
    <path d="M 214.978089 73.498491 
L 247.64334 73.498491 
" clip-path="url(#p9c7097d3f1)" style="fill: none; stroke: #ffffff; stroke-width: 0.72; stroke-linecap: square"/>
   </g>
   <g id="patch_11">
    <path d="M 231.310715 59.887969 
L 244.921236 73.498491 
L 231.310715 87.109012 
L 217.700194 73.498491 
L 231.310715 59.887969 
" clip-path="url(#p9c7097d3f1)" style="fill: none; stroke: #ff0000; stroke-width: 0.72; stroke-linejoin: miter"/>
   </g>
   <g id="line2d_9">
    <path d="M 440.322703 73.498491 
L 472.987954 73.498491 
" clip-path="url(#p9c7097d3f1)" style="fill: none; stroke: #ffffff; stroke-width: 0.72; stroke-linecap: square"/>
   </g>
   <g id="patch_12">
    <path d="M 456.655329 59.887969 
L 470.26585 73.498491 
L 456.655329 87.109012 
L 443.044808 73.498491 
L 456.655329 59.887969 
" clip-path="url(#p9c7097d3f1)" style="fill: none; stroke: #ff0000; stroke-width: 0.72; stroke-linejoin: miter"/>
   </g>
   <g id="line2d_10">
    <path d="M 665.667317 73.498491 
L 698.332568 73.498491 
" clip-path="url(#p9c7097d3f1)" style="fill: none; stroke: #ffffff; stroke-width: 0.72; stroke-linecap: square"/>
   </g>
   <g id="patch_13">
    <path d="M 681.999943 59.887969 
L 695.610464 73.498491 
L 681.999943 87.109012 
L 668.389422 73.498491 
L 681.999943 59.887969 
" clip-path="url(#p9c7097d3f1)" style="fill: none; stroke: #ff0000; stroke-width: 0.72; stroke-linejoin: miter"/>
   </g>
   <g id="line2d_11">
    <path d="M 52.474692 92.900255 
L 1093.932888 137.694893 
" clip-path="url(#p9c7097d3f1)" style="fill: none; stroke: #ffffff; stroke-width: 0.72; stroke-linecap: square"/>
   </g>
   <g id="line2d_12">
    <path d="M 255.055193 101.613539 
L 287.69027 103.017221 
" clip-path="url(#p9c7097d3f1)" style="fill: none; stroke: #ffffff; stroke-width: 0.72; stroke-linecap: square"/>
   </g>
   <g id="patch_14">
    <path d="M 271.957599 88.717431 
L 284.97068 102.900247 
L 270.787864 115.913329 
L 257.774782 101.730512 
L 271.957599 88.717431 
" clip-path="url(#p9c7097d3f1)" style="fill: none; stroke: #ff0000; stroke-width: 0.72; stroke-linejoin: miter"/>
   </g>
   <g id="line2d_13">
    <path d="M 506.581075 112.432034 
L 539.216152 113.835716 
" clip-path="url(#p9c7097d3f1)" style="fill: none; stroke: #ffffff; stroke-width: 0.72; stroke-linecap: square"/>
   </g>
   <g id="patch_15">
    <path d="M 523.483481 99.535926 
L 536.496563 113.718743 
L 522.313746 126.731824 
L 509.300665 112.549008 
L 523.483481 99.535926 
" clip-path="url(#p9c7097d3f1)" style="fill: none; stroke: #ff0000; stroke-width: 0.72; stroke-linejoin: miter"/>
   </g>
   <g id="line2d_14">
    <path d="M 449.39012 11.53251 
L 449.39012 8.810406 
" clip-path="url(#p9c7097d3f1)" style="fill: none; stroke: #ff0000; stroke-width: 0.72; stroke-linecap: square"/>
   </g>
   <g id="line2d_15">
    <path d="M 449.39012 135.464471 
L 449.39012 138.186575 
" clip-path="url(#p9c7097d3f1)" style="fill: none; stroke: #ff0000; stroke-width: 0.72; stroke-linecap: square"/>
   </g>
   <g id="line2d_16">
    <path d="M 510.555802 73.498491 
L 513.277906 73.498491 
" clip-path="url(#p9c7097d3f1)" style="fill: none; stroke: #ff0000; stroke-width: 0.72; stroke-linecap: square"/>
   </g>
   <g id="line2d_17">
    <path d="M 388.224438 73.498491 
L 385.502334 73.498491 
" clip-path="url(#p9c7097d3f1)" style="fill: none; stroke: #ff0000; stroke-width: 0.72; stroke-linecap: square"/>
   </g>
   <g id="patch_16">
    <path d="M 349.605557 98.891834 
L 344.161348 98.891834 
L 344.161348 126.112877 
L 349.605557 126.112877 
" clip-path="url(#p9c7097d3f1)" style="fill: none; stroke: #ff0000; stroke-width: 0.72; stroke-linejoin: miter"/>
   </g>
   <g id="patch_17">
    <path d="M 352.327661 126.112877 
L 357.771869 126.112877 
L 357.771869 98.891834 
L 352.327661 98.891834 
" clip-path="url(#p9c7097d3f1)" style="fill: none; stroke: #ff0000; stroke-width: 0.72; stroke-linejoin: miter"/>
   </g>
   <g id="patch_18">
    <path d="M 344.161348 112.502355 
L 349.605557 112.502355 
" clip-path="url(#p9c7097d3f1)" style="fill: none; stroke: #ff0000; stroke-width: 0.72; stroke-linejoin: miter"/>
   </g>
   <g id="patch_19">
    <path d="M 352.327661 112.502355 
L 357.771869 112.502355 
" clip-path="url(#p9c7097d3f1)" style="fill: none; stroke: #ff0000; stroke-width: 0.72; stroke-linejoin: miter"/>
   </g>
   <g id="patch_20">
    <path d="M 371.38239 98.891834 
L 371.38239 126.112877 
" clip-path="url(#p9c7097d3f1)" style="fill: none; stroke: #ff0000; stroke-width: 0.72; stroke-linejoin: miter"/>
   </g>
  </g>
 </g>
 <defs>
  <clipPath id="p9c7097d3f1">
   <rect x="0" y="0" width="1152" height="147.429878"/>
  </clipPath>
 </defs>
</svg>
