  0
SECTION
  2
HEADER
  9
$ACADVER
  1
AC1021
  9
$ACADMAINTVER
 70
25
  9
$DWGCODEPAGE
  3
ANSI_1252
  9
$LASTSAVEDBY
  1
ezdxf
  9
$INSBASE
 10
0.0
 20
0.0
 30
0.0
  9
$EXTMIN
 10
1e+20
 20
1e+20
 30
1e+20
  9
$EXTMAX
 10
-1e+20
 20
-1e+20
 30
-1e+20
  9
$LIMMIN
 10
0.0
 20
0.0
  9
$LIMMAX
 10
420.0
 20
297.0
  9
$ORTHOMODE
 70
0
  9
$REGENMODE
 70
1
  9
$FILLMODE
 70
1
  9
$QTEXTMODE
 70
0
  9
$MIRRTEXT
 70
1
  9
$LTSCALE
 40
1.0
  9
$ATTMODE
 70
1
  9
$TEXTSIZE
 40
2.5
  9
$TRACEWID
 40
1.0
  9
$TEXTSTYLE
  7
OpenSans
  9
$CLAYER
  8
0
  9
$CELTYPE
  6
ByLayer
  9
$CECOLOR
 62
256
  9
$CELTSCALE
 40
1.0
  9
$DISPSILH
 70
0
  9
$DIMSCALE
 40
1.0
  9
$DIMASZ
 40
0.175
  9
$DIMEXO
 40
0.125
  9
$DIMDLI
 40
3.75
  9
$DIMRND
 40
0.0
  9
$DIMDLE
 40
0.0
  9
$DIMEXE
 40
0.375
  9
$DIMTP
 40
0.0
  9
$DIMTM
 40
0.0
  9
$DIMTXT
 40
0.25
  9
$DIMCEN
 40
2.5
  9
$DIMTSZ
 40
0.0
  9
$DIMTOL
 70
0
  9
$DIMLIM
 70
0
  9
$DIMTIH
 70
0
  9
$DIMTOH
 70
0
  9
$DIMSE1
 70
0
  9
$DIMSE2
 70
0
  9
$DIMTAD
 70
1
  9
$DIMZIN
 70
12
  9
$DIMBLK
  1
ARCHTICK
  9
$DIMASO
 70
1
  9
$DIMSHO
 70
1
  9
$DIMPOST
  1

  9
$DIMAPOST
  1

  9
$DIMALT
 70
0
  9
$DIMALTD
 70
3
  9
$DIMALTF
 40
0.03937007874
  9
$DIMLFAC
 40
100.0
  9
$DIMTOFL
 70
1
  9
$DIMTVP
 40
0.0
  9
$DIMTIX
 70
0
  9
$DIMSOXD
 70
0
  9
$DIMSAH
 70
0
  9
$DIMBLK1
  1

  9
$DIMBLK2
  1

  9
$DIMSTYLE
  2
EZDXF
  9
$DIMCLRD
 70
0
  9
$DIMCLRE
 70
0
  9
$DIMCLRT
 70
0
  9
$DIMTFAC
 40
0.5
  9
$DIMGAP
 40
0.1
  9
$DIMJUST
 70
0
  9
$DIMSD1
 70
0
  9
$DIMSD2
 70
0
  9
$DIMTOLJ
 70
0
  9
$DIMTZIN
 70
8
  9
$DIMALTZ
 70
0
  9
$DIMALTTZ
 70
0
  9
$DIMUPT
 70
1
  9
$DIMDEC
 70
2
  9
$DIMTDEC
 70
2
  9
$DIMALTU
 70
2
  9
$DIMALTTD
 70
3
  9
$DIMTXSTY
  7
OpenSansCondensed-Light
  9
$DIMAUNIT
 70
0
  9
$DIMADEC
 70
2
  9
$DIMALTRND
 40
0.0
  9
$DIMAZIN
 70
3
  9
$DIMDSEP
 70
46
  9
$DIMATFIT
 70
3
  9
$DIMFRAC
 70
0
  9
$DIMLDRBLK
  1

  9
$DIMLUNIT
 70
2
  9
$DIMLWD
 70
-2
  9
$DIMLWE
 70
-2
  9
$DIMTMOVE
 70
2
  9
$DIMFXL
 40
1.0
  9
$DIMFXLON
 70
0
  9
$DIMJOGANG
 40
0.785398163397
  9
$DIMTFILL
 70
0
  9
$DIMTFILLCLR
 70
0
  9
$DIMARCSYM
 70
0
  9
$DIMLTYPE
  6

  9
$DIMLTEX1
  6

  9
$DIMLTEX2
  6

  9
$LUNITS
 70
2
  9
$LUPREC
 70
4
  9
$SKETCHINC
 40
1.0
  9
$FILLETRAD
 40
10.0
  9
$AUNITS
 70
0
  9
$AUPREC
 70
2
  9
$MENU
  1
.
  9
$ELEVATION
 40
0.0
  9
$PELEVATION
 40
0.0
  9
$THICKNESS
 40
0.0
  9
$LIMCHECK
 70
0
  9
$CHAMFERA
 40
0.0
  9
$CHAMFERB
 40
0.0
  9
$CHAMFERC
 40
0.0
  9
$CHAMFERD
 40
0.0
  9
$SKPOLY
 70
0
  9
$TDCREATE
 40
2461048.0884722224
  9
$TDUCREATE
 40
2458532.153996898
  9
$TDUPDATE
 40
2461048.0884722224
  9
$TDUUPDATE
 40
2458532.1544311
  9
$TDINDWG
 40
0.0
  9
$TDUSRTIMER
 40
0.0
  9
$USRTIMER
 70
1
  9
$ANGBASE
 50
0.0
  9
$ANGDIR
 70
0
  9
$PDMODE
 70
0
  9
$PDSIZE
 40
0.0
  9
$PLINEWID
 40
0.0
  9
$SPLFRAME
 70
0
  9
$SPLINETYPE
 70
6
  9
$SPLINESEGS
 70
8
  9
$HANDSEED
  5
B3
  9
$SURFTAB1
 70
6
  9
$SURFTAB2
 70
6
  9
$SURFTYPE
 70
6
  9
$SURFU
 70
6
  9
$SURFV
 70
6
  9
$UCSBASE
  2

  9
$UCSNAME
  2

  9
$UCSORG
 10
0.0
 20
0.0
 30
0.0
  9
$UCSXDIR
 10
1.0
 20
0.0
 30
0.0
  9
$UCSYDIR
 10
0.0
 20
1.0
 30
0.0
  9
$UCSORTHOREF
  2

  9
$UCSORTHOVIEW
 70
0
  9
$UCSORGTOP
 10
0.0
 20
0.0
 30
0.0
  9
$UCSORGBOTTOM
 10
0.0
 20
0.0
 30
0.0
  9
$UCSORGLEFT
 10
0.0
 20
0.0
 30
0.0
  9
$UCSORGRIGHT
 10
0.0
 20
0.0
 30
0.0
  9
$UCSORGFRONT
 10
0.0
 20
0.0
 30
0.0
  9
$UCSORGBACK
 10
0.0
 20
0.0
 30
0.0
  9
$PUCSBASE
  2

  9
$PUCSNAME
  2

  9
$PUCSORG
 10
0.0
 20
0.0
 30
0.0
  9
$PUCSXDIR
 10
1.0
 20
0.0
 30
0.0
  9
$PUCSYDIR
 10
0.0
 20
1.0
 30
0.0
  9
$PUCSORTHOREF
  2

  9
$PUCSORTHOVIEW
 70
0
  9
$PUCSORGTOP
 10
0.0
 20
0.0
 30
0.0
  9
$PUCSORGBOTTOM
 10
0.0
 20
0.0
 30
0.0
  9
$PUCSORGLEFT
 10
0.0
 20
0.0
 30
0.0
  9
$PUCSORGRIGHT
 10
0.0
 20
0.0
 30
0.0
  9
$PUCSORGFRONT
 10
0.0
 20
0.0
 30
0.0
  9
$PUCSORGBACK
 10
0.0
 20
0.0
 30
0.0
  9
$USERI1
 70
0
  9
$USERI2
 70
0
  9
$USERI3
 70
0
  9
$USERI4
 70
0
  9
$USERI5
 70
0
  9
$USERR1
 40
0.0
  9
$USERR2
 40
0.0
  9
$USERR3
 40
0.0
  9
$USERR4
 40
0.0
  9
$USERR5
 40
0.0
  9
$WORLDVIEW
 70
1
  9
$SHADEDGE
 70
3
  9
$SHADEDIF
 70
70
  9
$TILEMODE
 70
1
  9
$MAXACTVP
 70
64
  9
$PINSBASE
 10
0.0
 20
0.0
 30
0.0
  9
$PLIMCHECK
 70
0
  9
$PEXTMIN
 10
1e+20
 20
1e+20
 30
1e+20
  9
$PEXTMAX
 10
-1e+20
 20
-1e+20
 30
-1e+20
  9
$PLIMMIN
 10
0.0
 20
0.0
  9
$PLIMMAX
 10
420.0
 20
297.0
  9
$UNITMODE
 70
0
  9
$VISRETAIN
 70
1
  9
$PLINEGEN
 70
0
  9
$PSLTSCALE
 70
1
  9
$TREEDEPTH
 70
3020
  9
$CMLSTYLE
  2
Standard
  9
$CMLJUST
 70
0
  9
$CMLSCALE
 40
20.0
  9
$PROXYGRAPHICS
 70
1
  9
$MEASUREMENT
 70
1
  9
$CELWEIGHT
370
-1
  9
$ENDCAPS
280
0
  9
$JOINSTYLE
280
0
  9
$LWDISPLAY
290
0
  9
$INSUNITS
 70
6
  9
$HYPERLINKBASE
  1

  9
$STYLESHEET
  1

  9
$XEDIT
290
1
  9
$CEPSNTYPE
380
0
  9
$PSTYLEMODE
290
1
  9
$FINGERPRINTGUID
  2
{FDBB3269-0552-4618-B666-B8424B01D2F3}
  9
$VERSIONGUID
  2
{55DC740A-1370-49FB-8982-D3A85989FFAC}
  9
$EXTNAMES
290
1
  9
$PSVPSCALE
 40
0.0
  9
$OLESTARTUP
290
0
  9
$SORTENTS
280
127
  9
$INDEXCTL
280
0
  9
$HIDETEXT
280
1
  9
$XCLIPFRAME
290
1
  9
$HALOGAP
280
0
  9
$OBSCOLOR
 70
257
  9
$OBSLTYPE
280
0
  9
$INTERSECTIONDISPLAY
280
0
  9
$INTERSECTIONCOLOR
 70
257
  9
$DIMASSOC
280
2
  9
$PROJECTNAME
  1

  9
$CAMERADISPLAY
290
0
  9
$LENSLENGTH
 40
50.0
  9
$CAMERAHEIGHT
 40
0.0
  9
$STEPSPERSEC
 40
24.0
  9
$STEPSIZE
 40
100.0
  9
$3DDWFPREC
 40
2.0
  9
$PSOLWIDTH
 40
0.005
  9
$PSOLHEIGHT
 40
0.08
  9
$LOFTANG1
 40
1.570796326795
  9
$LOFTANG2
 40
1.570796326795
  9
$LOFTMAG1
 40
0.0
  9
$LOFTMAG2
 40
0.0
  9
$LOFTPARAM
 70
7
  9
$LOFTNORMALS
280
1
  9
$LATITUDE
 40
37.795
  9
$LONGITUDE
 40
-122.394
  9
$NORTHDIRECTION
 40
0.0
  9
$TIMEZONE
 70
-8000
  9
$LIGHTGLYPHDISPLAY
280
1
  9
$TILEMODELIGHTSYNCH
280
1
  9
$CMATERIAL
347
20
  9
$SOLIDHIST
280
0
  9
$SHOWHIST
280
1
  9
$DWFFRAME
280
2
  9
$DGNFRAME
280
2
  9
$REALWORLDSCALE
290
1
  9
$INTERFERECOLOR
 62
256
  9
$CSHADOW
280
0
  9
$SHADOWPLANELOCATION
 40
0.0
  0
ENDSEC
  0
SECTION
  2
CLASSES
  0
CLASS
  1
ACDBDICTIONARYWDFLT
  2
AcDbDictionaryWithDefault
  3
ObjectDBX Classes
 90
0
 91
0
280
0
281
0
  0
CLASS
  1
SUN
  2
AcDbSun
  3
SCENEOE
 90
1153
 91
0
280
0
281
0
  0
CLASS
  1
VISUALSTYLE
  2
AcDbVisualStyle
  3
ObjectDBX Classes
 90
4095
 91
0
280
0
281
0
  0
CLASS
  1
MATERIAL
  2
AcDbMaterial
  3
ObjectDBX Classes
 90
1153
 91
0
280
0
281
0
  0
CLASS
  1
SCALE
  2
AcDbScale
  3
ObjectDBX Classes
 90
1153
 91
0
280
0
281
0
  0
CLASS
  1
TABLESTYLE
  2
AcDbTableStyle
  3
ObjectDBX Classes
 90
4095
 91
0
280
0
281
0
  0
CLASS
  1
MLEADERSTYLE
  2
AcDbMLeaderStyle
  3
ACDB_MLEADERSTYLE_CLASS
 90
4095
 91
0
280
0
281
0
  0
CLASS
  1
DICTIONARYVAR
  2
AcDbDictionaryVar
  3
ObjectDBX Classes
 90
0
 91
0
280
0
281
0
  0
CLASS
  1
CELLSTYLEMAP
  2
AcDbCellStyleMap
  3
ObjectDBX Classes
 90
1152
 91
0
280
0
281
0
  0
CLASS
  1
MENTALRAYRENDERSETTINGS
  2
AcDbMentalRayRenderSettings
  3
SCENEOE
 90
1024
 91
0
280
0
281
0
  0
CLASS
  1
ACDBDETAILVIEWSTYLE
  2
AcDbDetailViewStyle
  3
ObjectDBX Classes
 90
1025
 91
0
280
0
281
0
  0
CLASS
  1
ACDBSECTIONVIEWSTYLE
  2
AcDbSectionViewStyle
  3
ObjectDBX Classes
 90
1025
 91
0
280
0
281
0
  0
CLASS
  1
RASTERVARIABLES
  2
AcDbRasterVariables
  3
ISM
 90
0
 91
0
280
0
281
0
  0
CLASS
  1
ACDBPLACEHOLDER
  2
AcDbPlaceHolder
  3
ObjectDBX Classes
 90
0
 91
0
280
0
281
0
  0
CLASS
  1
LAYOUT
  2
AcDbLayout
  3
ObjectDBX Classes
 90
0
 91
0
280
0
281
0
  0
ENDSEC
  0
SECTION
  2
TABLES
  0
TABLE
  2
VPORT
  5
8
330
0
100
AcDbSymbolTable
 70
1
  0
VPORT
  5
23
330
8
100
AcDbSymbolTableRecord
100
AcDbViewportTableRecord
  2
*Active
 70
0
 10
0.0
 20
0.0
 11
1.0
 21
1.0
 12
0.0
 22
0.0
 13
0.0
 23
0.0
 14
0.5
 24
0.5
 15
0.5
 25
0.5
 16
0.0
 26
0.0
 36
1.0
 17
0.0
 27
0.0
 37
0.0
 40
1000.0
 41
1.34
 42
50.0
 43
0.0
 44
0.0
 50
0.0
 51
0.0
 71
0
 72
1000
 73
1
 74
3
 75
0
 76
0
 77
0
 78
0
281
0
 65
0
146
0.0
  0
ENDTAB
  0
TABLE
  2
LTYPE
  5
2
330
0
100
AcDbSymbolTable
 70
21
  0
LTYPE
  5
24
330
2
100
AcDbSymbolTableRecord
100
AcDbLinetypeTableRecord
  2
ByBlock
 70
0
  3

 72
65
 73
0
 40
0.0
  0
LTYPE
  5
25
330
2
100
AcDbSymbolTableRecord
100
AcDbLinetypeTableRecord
  2
ByLayer
 70
0
  3

 72
65
 73
0
 40
0.0
  0
LTYPE
  5
26
330
2
100
AcDbSymbolTableRecord
100
AcDbLinetypeTableRecord
  2
Continuous
 70
0
  3

 72
65
 73
0
 40
0.0
  0
LTYPE
  5
2F
330
2
100
AcDbSymbolTableRecord
100
AcDbLinetypeTableRecord
  2
CENTER
 70
0
  3
Center ____ _ ____ _ ____ _ ____ _ ____ _ ____
 72
65
 73
4
 40
5.08
 49
3.175
 74
0
 49
-0.635
 74
0
 49
0.635
 74
0
 49
-0.635
 74
0
  0
LTYPE
  5
30
330
2
100
AcDbSymbolTableRecord
100
AcDbLinetypeTableRecord
  2
CENTERX2
 70
0
  3
Center (2x) ________  __  ________  __  ________
 72
65
 73
4
 40
8.89
 49
6.35
 74
0
 49
-0.635
 74
0
 49
1.27
 74
0
 49
-0.635
 74
0
  0
LTYPE
  5
31
330
2
100
AcDbSymbolTableRecord
100
AcDbLinetypeTableRecord
  2
CENTER2
 70
0
  3
Center (.5x) ____ _ ____ _ ____ _ ____ _ ____
 72
65
 73
4
 40
2.54
 49
1.587
 74
0
 49
-0.318
 74
0
 49
0.318
 74
0
 49
-0.318
 74
0
  0
LTYPE
  5
32
330
2
100
AcDbSymbolTableRecord
100
AcDbLinetypeTableRecord
  2
DASHED
 70
0
  3
Dashed __ __ __ __ __ __ __ __ __ __ __ __ __ _
 72
65
 73
2
 40
1.524
 49
1.27
 74
0
 49
-0.254
 74
0
  0
LTYPE
  5
33
330
2
100
AcDbSymbolTableRecord
100
AcDbLinetypeTableRecord
  2
DASHEDX2
 70
0
  3
Dashed (2x) ____  ____  ____  ____  ____  ____
 72
65
 73
2
 40
3.048
 49
2.54
 74
0
 49
-0.508
 74
0
  0
LTYPE
  5
34
330
2
100
AcDbSymbolTableRecord
100
AcDbLinetypeTableRecord
  2
DASHED2
 70
0
  3
Dashed (.5x) _ _ _ _ _ _ _ _ _ _ _ _ _ _
 72
65
 73
2
 40
0.762
 49
0.635
 74
0
 49
-0.127
 74
0
  0
LTYPE
  5
35
330
2
100
AcDbSymbolTableRecord
100
AcDbLinetypeTableRecord
  2
PHANTOM
 70
0
  3
Phantom ______  __  __  ______  __  __  ______
 72
65
 73
6
 40
6.35
 49
3.175
 74
0
 49
-0.635
 74
0
 49
0.635
 74
0
 49
-0.635
 74
0
 49
0.635
 74
0
 49
-0.635
 74
0
  0
LTYPE
  5
36
330
2
100
AcDbSymbolTableRecord
100
AcDbLinetypeTableRecord
  2
PHANTOMX2
 70
0
  3
Phantom (2x)____________    ____    ____    ____________
 72
65
 73
6
 40
10.795
 49
6.35
 74
0
 49
-0.635
 74
0
 49
1.27
 74
0
 49
-0.635
 74
0
 49
1.27
 74
0
 49
-0.635
 74
0
  0
LTYPE
  5
37
330
2
100
AcDbSymbolTableRecord
100
AcDbLinetypeTableRecord
  2
PHANTOM2
 70
0
  3
Phantom (.5x) ___ _ _ ___ _ _ ___ _ _ ___ _ _ ___
 72
65
 73
6
 40
3.175
 49
1.587
 74
0
 49
-0.318
 74
0
 49
0.318
 74
0
 49
-0.318
 74
0
 49
0.318
 74
0
 49
-0.318
 74
0
  0
LTYPE
  5
38
330
2
100
AcDbSymbolTableRecord
100
AcDbLinetypeTableRecord
  2
DASHDOT
 70
0
  3
Dash dot __ . __ . __ . __ . __ . __ . __ . __
 72
65
 73
4
 40
3.556
 49
2.54
 74
0
 49
-0.508
 74
0
 49
0.0
 74
0
 49
-0.508
 74
0
  0
LTYPE
  5
39
330
2
100
AcDbSymbolTableRecord
100
AcDbLinetypeTableRecord
  2
DASHDOTX2
 70
0
  3
Dash dot (2x) ____  .  ____  .  ____  .  ____
 72
65
 73
4
 40
6.096
 49
5.08
 74
0
 49
-0.508
 74
0
 49
0.0
 74
0
 49
-0.508
 74
0
  0
LTYPE
  5
3A
330
2
100
AcDbSymbolTableRecord
100
AcDbLinetypeTableRecord
  2
DASHDOT2
 70
0
  3
Dash dot (.5x) _ . _ . _ . _ . _ . _ . _ . _
 72
65
 73
4
 40
1.778
 49
1.27
 74
0
 49
-0.254
 74
0
 49
0.0
 74
0
 49
-0.254
 74
0
  0
LTYPE
  5
3B
330
2
100
AcDbSymbolTableRecord
100
AcDbLinetypeTableRecord
  2
DOT
 70
0
  3
Dot .  .  .  .  .  .  .  .  .  .  .  .  .  .  .  .
 72
65
 73
2
 40
0.508
 49
0.0
 74
0
 49
-0.508
 74
0
  0
LTYPE
  5
3C
330
2
100
AcDbSymbolTableRecord
100
AcDbLinetypeTableRecord
  2
DOTX2
 70
0
  3
Dot (2x) .    .    .    .    .    .    .    . 
 72
65
 73
2
 40
1.016
 49
0.0
 74
0
 49
-1.016
 74
0
  0
LTYPE
  5
3D
330
2
100
AcDbSymbolTableRecord
100
AcDbLinetypeTableRecord
  2
DOT2
 70
0
  3
Dot (.5) . . . . . . . . . . . . . . . . . . . 
 72
65
 73
2
 40
0.254
 49
0.0
 74
0
 49
-0.254
 74
0
  0
LTYPE
  5
3E
330
2
100
AcDbSymbolTableRecord
100
AcDbLinetypeTableRecord
  2
DIVIDE
 70
0
  3
Divide __ . . __ . . __ . . __ . . __ . . __
 72
65
 73
6
 40
4.064
 49
2.54
 74
0
 49
-0.508
 74
0
 49
0.0
 74
0
 49
-0.508
 74
0
 49
0.0
 74
0
 49
-0.508
 74
0
  0
LTYPE
  5
3F
330
2
100
AcDbSymbolTableRecord
100
AcDbLinetypeTableRecord
  2
DIVIDEX2
 70
0
  3
Divide (2x) ____  . .  ____  . .  ____  . .  ____
 72
65
 73
6
 40
6.604
 49
5.08
 74
0
 49
-0.508
 74
0
 49
0.0
 74
0
 49
-0.508
 74
0
 49
0.0
 74
0
 49
-0.508
 74
0
  0
LTYPE
  5
40
330
2
100
AcDbSymbolTableRecord
100
AcDbLinetypeTableRecord
  2
DIVIDE2
 70
0
  3
Divide(.5x) _ . _ . _ . _ . _ . _ . _ . _
 72
65
 73
6
 40
2.032
 49
1.27
 74
0
 49
-0.254
 74
0
 49
0.0
 74
0
 49
-0.254
 74
0
 49
0.0
 74
0
 49
-0.254
 74
0
  0
ENDTAB
  0
TABLE
  2
LAYER
  5
1
330
0
100
AcDbSymbolTable
 70
4
  0
LAYER
  5
27
330
1
100
AcDbSymbolTableRecord
100
AcDbLayerTableRecord
  2
0
 70
0
 62
7
  6
Continuous
370
-3
390
13
347
21
  0
LAYER
  5
28
330
1
100
AcDbSymbolTableRecord
100
AcDbLayerTableRecord
  2
Defpoints
 70
0
 62
7
  6
Continuous
290
0
370
-3
390
13
347
21
  0
LAYER
  5
8A
330
1
100
AcDbSymbolTableRecord
100
AcDbLayerTableRecord
  2
Layer
 70
0
 62
1
  6
Continuous
370
50
390
13
347
21
  0
LAYER
  5
8B
330
1
100
AcDbSymbolTableRecord
100
AcDbLayerTableRecord
  2
NumLabel
 70
0
 62
1
  6
Continuous
370
15
390
13
347
21
  0
ENDTAB
  0
TABLE
  2
STYLE
  5
5
330
0
100
AcDbSymbolTable
 70
26
  0
STYLE
  5
29
330
5
100
AcDbSymbolTableRecord
100
AcDbTextStyleTableRecord
  2
Standard
 70
0
 40
0.0
 41
1.0
 50
0.0
 71
0
 42
2.5
  3
txt
  4

  0
STYLE
  5
41
330
5
100
AcDbSymbolTableRecord
100
AcDbTextStyleTableRecord
  2
OpenSans-Light
 70
0
 40
0.0
 41
1.0
 50
0.0
 71
0
 42
2.5
  3
OpenSans-Light.ttf
  4

  0
STYLE
  5
42
330
5
100
AcDbSymbolTableRecord
100
AcDbTextStyleTableRecord
  2
OpenSans-Light-Italic
 70
0
 40
0.0
 41
1.0
 50
0.0
 71
0
 42
2.5
  3
OpenSans-LightItalic.ttf
  4

  0
STYLE
  5
43
330
5
100
AcDbSymbolTableRecord
100
AcDbTextStyleTableRecord
  2
OpenSans
 70
0
 40
0.0
 41
1.0
 50
0.0
 71
0
 42
2.5
  3
OpenSans-Regular.ttf
  4

  0
STYLE
  5
44
330
5
100
AcDbSymbolTableRecord
100
AcDbTextStyleTableRecord
  2
OpenSans-Italic
 70
0
 40
0.0
 41
1.0
 50
0.0
 71
0
 42
2.5
  3
OpenSans-Italic.ttf
  4

  0
STYLE
  5
45
330
5
100
AcDbSymbolTableRecord
100
AcDbTextStyleTableRecord
  2
OpenSans-SemiBold
 70
0
 40
0.0
 41
1.0
 50
0.0
 71
0
 42
2.5
  3
OpenSans-SemiBold.ttf
  4

  0
STYLE
  5
46
330
5
100
AcDbSymbolTableRecord
100
AcDbTextStyleTableRecord
  2
OpenSans-SemiBoldItalic
 70
0
 40
0.0
 41
1.0
 50
0.0
 71
0
 42
2.5
  3
OpenSans-SemiBoldItalic.ttf
  4

  0
STYLE
  5
47
330
5
100
AcDbSymbolTableRecord
100
AcDbTextStyleTableRecord
  2
OpenSans-Bold
 70
0
 40
0.0
 41
1.0
 50
0.0
 71
0
 42
2.5
  3
OpenSans-Bold.ttf
  4

  0
STYLE
  5
48
330
5
100
AcDbSymbolTableRecord
100
AcDbTextStyleTableRecord
  2
OpenSans-BoldItalic
 70
0
 40
0.0
 41
1.0
 50
0.0
 71
0
 42
2.5
  3
OpenSans-BoldItalic.ttf
  4

  0
STYLE
  5
49
330
5
100
AcDbSymbolTableRecord
100
AcDbTextStyleTableRecord
  2
OpenSans-ExtraBold
 70
0
 40
0.0
 41
1.0
 50
0.0
 71
0
 42
2.5
  3
OpenSans-ExtraBold.ttf
  4

  0
STYLE
  5
4A
330
5
100
AcDbSymbolTableRecord
100
AcDbTextStyleTableRecord
  2
OpenSans-ExtraBoldItalic
 70
0
 40
0.0
 41
1.0
 50
0.0
 71
0
 42
2.5
  3
OpenSans-ExtraBoldItalic.ttf
  4

  0
STYLE
  5
4B
330
5
100
AcDbSymbolTableRecord
100
AcDbTextStyleTableRecord
  2
OpenSansCondensed-Bold
 70
0
 40
0.0
 41
1.0
 50
0.0
 71
0
 42
2.5
  3
OpenSansCondensed-Bold.ttf
  4

  0
STYLE
  5
4C
330
5
100
AcDbSymbolTableRecord
100
AcDbTextStyleTableRecord
  2
OpenSansCondensed-Light
 70
0
 40
0.0
 41
1.0
 50
0.0
 71
0
 42
2.5
  3
OpenSansCondensed-Light.ttf
  4

  0
STYLE
  5
4D
330
5
100
AcDbSymbolTableRecord
100
AcDbTextStyleTableRecord
  2
OpenSansCondensed-Italic
 70
0
 40
0.0
 41
1.0
 50
0.0
 71
0
 42
2.5
  3
OpenSansCondensed-LightItalic.ttf
  4

  0
STYLE
  5
4E
330
5
100
AcDbSymbolTableRecord
100
AcDbTextStyleTableRecord
  2
LiberationSans
 70
0
 40
0.0
 41
1.0
 50
0.0
 71
0
 42
2.5
  3
LiberationSans-Regular.ttf
  4

  0
STYLE
  5
4F
330
5
100
AcDbSymbolTableRecord
100
AcDbTextStyleTableRecord
  2
LiberationSans-Bold
 70
0
 40
0.0
 41
1.0
 50
0.0
 71
0
 42
2.5
  3
LiberationSans-Bold.ttf
  4

  0
STYLE
  5
50
330
5
100
AcDbSymbolTableRecord
100
AcDbTextStyleTableRecord
  2
LiberationSans-BoldItalic
 70
0
 40
0.0
 41
1.0
 50
0.0
 71
0
 42
2.5
  3
LiberationSans-BoldItalic.ttf
  4

  0
STYLE
  5
51
330
5
100
AcDbSymbolTableRecord
100
AcDbTextStyleTableRecord
  2
LiberationSans-Italic
 70
0
 40
0.0
 41
1.0
 50
0.0
 71
0
 42
2.5
  3
LiberationSans-Italic.ttf
  4

  0
STYLE
  5
52
330
5
100
AcDbSymbolTableRecord
100
AcDbTextStyleTableRecord
  2
LiberationSerif
 70
0
 40
0.0
 41
1.0
 50
0.0
 71
0
 42
2.5
  3
LiberationSerif-Regular.ttf
  4

  0
STYLE
  5
53
330
5
100
AcDbSymbolTableRecord
100
AcDbTextStyleTableRecord
  2
LiberationSerif-Bold
 70
0
 40
0.0
 41
1.0
 50
0.0
 71
0
 42
2.5
  3
LiberationSerif-Bold.ttf
  4

  0
STYLE
  5
54
330
5
100
AcDbSymbolTableRecord
100
AcDbTextStyleTableRecord
  2
LiberationSerif-BoldItalic
 70
0
 40
0.0
 41
1.0
 50
0.0
 71
0
 42
2.5
  3
LiberationSerif-BoldItalic.ttf
  4

  0
STYLE
  5
55
330
5
100
AcDbSymbolTableRecord
100
AcDbTextStyleTableRecord
  2
LiberationSerif-Italic
 70
0
 40
0.0
 41
1.0
 50
0.0
 71
0
 42
2.5
  3
LiberationSerif-Italic.ttf
  4

  0
STYLE
  5
56
330
5
100
AcDbSymbolTableRecord
100
AcDbTextStyleTableRecord
  2
LiberationMono
 70
0
 40
0.0
 41
1.0
 50
0.0
 71
0
 42
2.5
  3
LiberationMono-Regular.ttf
  4

  0
STYLE
  5
57
330
5
100
AcDbSymbolTableRecord
100
AcDbTextStyleTableRecord
  2
LiberationMono-Bold
 70
0
 40
0.0
 41
1.0
 50
0.0
 71
0
 42
2.5
  3
LiberationMono-Bold.ttf
  4

  0
STYLE
  5
58
330
5
100
AcDbSymbolTableRecord
100
AcDbTextStyleTableRecord
  2
LiberationMono-BoldItalic
 70
0
 40
0.0
 41
1.0
 50
0.0
 71
0
 42
2.5
  3
LiberationMono-BoldItalic.ttf
  4

  0
STYLE
  5
59
330
5
100
AcDbSymbolTableRecord
100
AcDbTextStyleTableRecord
  2
LiberationMono-Italic
 70
0
 40
0.0
 41
1.0
 50
0.0
 71
0
 42
2.5
  3
LiberationMono-Italic.ttf
  4

  0
ENDTAB
  0
TABLE
  2
VIEW
  5
7
330
0
100
AcDbSymbolTable
 70
0
  0
ENDTAB
  0
TABLE
  2
UCS
  5
6
330
0
100
AcDbSymbolTable
 70
0
  0
ENDTAB
  0
TABLE
  2
APPID
  5
3
330
0
100
AcDbSymbolTable
 70
3
  0
APPID
  5
2A
330
3
100
AcDbSymbolTableRecord
100
AcDbRegAppTableRecord
  2
ACAD
 70
0
  0
APPID
  5
B0
330
3
100
AcDbSymbolTableRecord
100
AcDbRegAppTableRecord
  2
HATCHBACKGROUNDCOLOR
 70
0
  0
APPID
  5
B1
330
3
100
AcDbSymbolTableRecord
100
AcDbRegAppTableRecord
  2
EZDXF
 70
0
  0
ENDTAB
  0
TABLE
  2
DIMSTYLE
  5
4
330
0
100
AcDbSymbolTable
 70
12
100
AcDbDimStyleTable
  0
DIMSTYLE
105
2B
330
4
100
AcDbSymbolTableRecord
100
AcDbDimStyleTableRecord
  2
Standard
 70
0
 40
1.0
 41
2.5
 42
0.625
 43
3.75
 44
1.25
 45
0.0
 46
0.0
 47
0.0
 48
0.0
 49
2.5
140
2.5
141
2.5
142
0.0
143
0.03937007874
144
1.0
145
0.0
146
1.0
147
0.625
148
0.0
 69
0
 70
0
 71
0
 72
0
 73
0
 74
0
 75
0
 76
0
 77
1
 78
8
 79
3
170
0
171
3
172
1
173
0
174
0
175
0
176
0
177
0
178
0
179
2
271
2
272
2
273
2
274
3
275
0
276
0
277
2
278
44
279
0
280
0
281
0
282
0
283
0
284
8
285
0
286
0
288
0
289
3
290
0
371
-2
372
-2
  0
DIMSTYLE
105
73
330
4
100
AcDbSymbolTableRecord
100
AcDbDimStyleTableRecord
  2
EZDXF
 70
0
 40
1.0
 41
0.175
 42
0.125
 43
3.75
 44
0.375
 45
0.0
 46
0.0
 47
0.0
 48
0.0
 49
2.5
140
0.25
141
2.5
142
0.0
143
0.03937007874
144
100.0
145
0.0
146
0.5
147
0.1
148
0.0
 69
0
 70
0
 71
0
 72
0
 73
0
 74
0
 75
0
 76
0
 77
1
 78
12
 79
3
170
0
171
3
172
1
173
0
174
0
175
0
176
0
177
0
178
0
179
2
271
2
272
2
273
2
274
3
275
0
276
0
277
2
278
46
279
2
280
0
281
0
282
0
283
0
284
8
285
0
286
0
288
1
289
3
290
0
340
4C
342
74
371
-2
372
-2
  0
DIMSTYLE
105
7C
330
4
100
AcDbSymbolTableRecord
100
AcDbDimStyleTableRecord
  2
EZ_M_100_H25_CM
 70
0
 40
1.0
 41
0.25
 42
0.125
 43
3.75
 44
0.375
 45
0.0
 46
0.0
 47
0.0
 48
0.0
 49
2.5
140
0.25
141
2.5
142
0.125
143
0.03937007874
144
100.0
145
0.0
146
0.5
147
0.1
148
0.0
 69
0
 70
0
 71
0
 72
0
 73
0
 74
0
 75
0
 76
0
 77
1
 78
12
 79
3
170
0
171
3
172
1
173
0
174
0
175
0
176
0
177
0
178
0
179
2
271
2
272
2
273
2
274
3
275
0
276
0
277
2
278
46
279
2
280
0
281
0
282
0
283
0
284
8
285
0
286
0
288
1
289
3
290
0
340
4C
371
-2
372
-2
  0
DIMSTYLE
105
7D
330
4
100
AcDbSymbolTableRecord
100
AcDbDimStyleTableRecord
  2
EZ_M_50_H25_CM
 70
0
 40
1.0
 41
0.125
 42
0.0625
 43
3.75
 44
0.1875
 45
0.0
 46
0.0
 47
0.0
 48
0.0
 49
2.5
140
0.125
141
2.5
142
0.0625
143
0.03937007874
144
100.0
145
0.0
146
0.5
147
0.05
148
0.0
 69
0
 70
0
 71
0
 72
0
 73
0
 74
0
 75
0
 76
0
 77
1
 78
12
 79
3
170
0
171
3
172
1
173
0
174
0
175
0
176
0
177
0
178
0
179
2
271
2
272
2
273
2
274
3
275
0
276
0
277
2
278
46
279
2
280
0
281
0
282
0
283
0
284
8
285
0
286
0
288
1
289
3
290
0
340
4C
371
-2
372
-2
  0
DIMSTYLE
105
7E
330
4
100
AcDbSymbolTableRecord
100
AcDbDimStyleTableRecord
  2
EZ_M_25_H25_CM
 70
0
 40
1.0
 41
0.0625
 42
0.03125
 43
3.75
 44
0.09375
 45
0.0
 46
0.0
 47
0.0
 48
0.0
 49
2.5
140
0.0625
141
2.5
142
0.03125
143
0.03937007874
144
100.0
145
0.0
146
0.5
147
0.025
148
0.0
 69
0
 70
0
 71
0
 72
0
 73
0
 74
0
 75
0
 76
0
 77
1
 78
12
 79
3
170
0
171
3
172
1
173
0
174
0
175
0
176
0
177
0
178
0
179
2
271
2
272
2
273
2
274
3
275
0
276
0
277
2
278
46
279
2
280
0
281
0
282
0
283
0
284
8
285
0
286
0
288
1
289
3
290
0
340
4C
371
-2
372
-2
  0
DIMSTYLE
105
7F
330
4
100
AcDbSymbolTableRecord
100
AcDbDimStyleTableRecord
  2
EZ_M_20_H25_CM
 70
0
 40
1.0
 41
0.05
 42
0.025
 43
3.75
 44
0.07500000000000001
 45
0.0
 46
0.0
 47
0.0
 48
0.0
 49
2.5
140
0.05
141
2.5
142
0.025
143
0.03937007874
144
100.0
145
0.0
146
0.5
147
0.020000000000000004
148
0.0
 69
0
 70
0
 71
0
 72
0
 73
0
 74
0
 75
0
 76
0
 77
1
 78
12
 79
3
170
0
171
3
172
1
173
0
174
0
175
0
176
0
177
0
178
0
179
2
271
2
272
2
273
2
274
3
275
0
276
0
277
2
278
46
279
2
280
0
281
0
282
0
283
0
284
8
285
0
286
0
288
1
289
3
290
0
340
4C
371
-2
372
-2
  0
DIMSTYLE
105
80
330
4
100
AcDbSymbolTableRecord
100
AcDbDimStyleTableRecord
  2
EZ_M_10_H25_CM
 70
0
 40
1.0
 41
0.025
 42
0.0125
 43
3.75
 44
0.037500000000000006
 45
0.0
 46
0.0
 47
0.0
 48
0.0
 49
2.5
140
0.025
141
2.5
142
0.0125
143
0.03937007874
144
100.0
145
0.0
146
0.5
147
0.010000000000000002
148
0.0
 69
0
 70
0
 71
0
 72
0
 73
0
 74
0
 75
0
 76
0
 77
1
 78
12
 79
3
170
0
171
3
172
1
173
0
174
0
175
0
176
0
177
0
178
0
179
2
271
2
272
2
273
2
274
3
275
0
276
0
277
2
278
46
279
2
280
0
281
0
282
0
283
0
284
8
285
0
286
0
288
1
289
3
290
0
340
4C
371
-2
372
-2
  0
DIMSTYLE
105
81
330
4
100
AcDbSymbolTableRecord
100
AcDbDimStyleTableRecord
  2
EZ_M_5_H25_CM
 70
0
 40
1.0
 41
0.0125
 42
0.00625
 43
3.75
 44
0.018750000000000003
 45
0.0
 46
0.0
 47
0.0
 48
0.0
 49
2.5
140
0.0125
141
2.5
142
0.00625
143
0.03937007874
144
100.0
145
0.0
146
0.5
147
0.005000000000000001
148
0.0
 69
0
 70
0
 71
0
 72
0
 73
0
 74
0
 75
0
 76
0
 77
1
 78
12
 79
3
170
0
171
3
172
1
173
0
174
0
175
0
176
0
177
0
178
0
179
2
271
2
272
2
273
2
274
3
275
0
276
0
277
2
278
46
279
2
280
0
281
0
282
0
283
0
284
8
285
0
286
0
288
1
289
3
290
0
340
4C
371
-2
372
-2
  0
DIMSTYLE
105
82
330
4
100
AcDbSymbolTableRecord
100
AcDbDimStyleTableRecord
  2
EZ_M_1_H25_CM
 70
0
 40
1.0
 41
0.0025
 42
0.00125
 43
3.75
 44
0.00375
 45
0.0
 46
0.0
 47
0.0
 48
0.0
 49
2.5
140
0.0025
141
2.5
142
0.00125
143
0.03937007874
144
100.0
145
0.0
146
0.5
147
0.001
148
0.0
 69
0
 70
0
 71
0
 72
0
 73
0
 74
0
 75
0
 76
0
 77
1
 78
12
 79
3
170
0
171
3
172
1
173
0
174
0
175
0
176
0
177
0
178
0
179
2
271
2
272
2
273
2
274
3
275
0
276
0
277
2
278
46
279
2
280
0
281
0
282
0
283
0
284
8
285
0
286
0
288
1
289
3
290
0
340
4C
371
-2
372
-2
  0
DIMSTYLE
105
83
330
4
100
AcDbSymbolTableRecord
100
AcDbDimStyleTableRecord
  2
EZ_RADIUS
 70
0
 40
1.0
 41
0.25
 42
0.125
 43
3.75
 44
0.375
 45
0.0
 46
0.0
 47
0.0
 48
0.0
 49
2.5
140
0.25
141
0.0
142
0.0
143
0.03937007874
144
100.0
145
0.0
146
0.5
147
0.1
148
0.0
 69
0
 70
0
 71
0
 72
0
 73
0
 74
0
 75
0
 76
0
 77
1
 78
12
 79
3
170
0
171
3
172
0
173
0
174
0
175
0
176
0
177
0
178
0
179
2
271
2
272
2
273
2
274
3
275
0
276
0
277
2
278
46
279
1
280
0
281
0
282
0
283
0
284
8
285
0
286
0
288
1
289
3
290
0
340
4C
342
84
371
-2
372
-2
  0
DIMSTYLE
105
88
330
4
100
AcDbSymbolTableRecord
100
AcDbDimStyleTableRecord
  2
EZ_RADIUS_INSIDE
 70
0
 40
1.0
 41
0.25
 42
0.125
 43
3.75
 44
0.375
 45
0.0
 46
0.0
 47
0.0
 48
0.0
 49
2.5
140
0.25
141
0.0
142
0.0
143
0.03937007874
144
100.0
145
0.0
146
0.5
147
0.1
148
0.0
 69
0
 70
0
 71
0
 72
0
 73
0
 74
0
 75
0
 76
0
 77
0
 78
12
 79
3
170
0
171
3
172
0
173
0
174
1
175
0
176
0
177
0
178
0
179
2
271
2
272
2
273
2
274
3
275
0
276
0
277
2
278
46
279
0
280
0
281
0
282
0
283
0
284
8
285
0
286
0
288
1
289
0
290
0
340
4C
342
84
371
-2
372
-2
  0
DIMSTYLE
105
89
330
4
100
AcDbSymbolTableRecord
100
AcDbDimStyleTableRecord
  2
EZ_CURVED
 70
0
 40
1.0
 41
0.25
 42
0.125
 43
3.75
 44
0.375
 45
0.0
 46
0.0
 47
0.0
 48
0.0
 49
2.5
140
0.25
141
2.5
142
0.0
143
0.03937007874
144
100.0
145
0.0
146
0.5
147
0.1
148
0.0
 69
0
 70
0
 71
0
 72
0
 73
0
 74
0
 75
0
 76
0
 77
1
 78
12
 79
2
 90
2
170
0
171
3
172
1
173
0
174
0
175
0
176
0
177
0
178
0
179
2
271
2
272
2
273
2
274
3
275
0
276
0
277
2
278
46
279
2
280
0
281
0
282
0
283
0
284
8
285
0
286
0
288
1
289
3
290
0
340
4C
371
-2
372
-2
  0
ENDTAB
  0
TABLE
  2
BLOCK_RECORD
  5
9
330
0
100
AcDbSymbolTable
 70
5
  0
BLOCK_RECORD
  5
17
330
9
100
AcDbSymbolTableRecord
100
AcDbBlockTableRecord
  2
*Model_Space
340
1A
 70
0
280
1
281
0
  0
BLOCK_RECORD
  5
1B
330
9
100
AcDbSymbolTableRecord
100
AcDbBlockTableRecord
  2
*Paper_Space
340
1E
 70
0
280
1
281
0
  0
BLOCK_RECORD
  5
74
330
9
100
AcDbSymbolTableRecord
100
AcDbBlockTableRecord
  2
_ARCHTICK
340
0
 70
0
280
1
281
0
  0
BLOCK_RECORD
  5
78
330
9
100
AcDbSymbolTableRecord
100
AcDbBlockTableRecord
  2
_CLOSEDFILLED
340
0
 70
0
280
1
281
0
  0
BLOCK_RECORD
  5
84
330
9
100
AcDbSymbolTableRecord
100
AcDbBlockTableRecord
  2
_CLOSEDBLANK
340
0
 70
0
280
1
281
0
  0
ENDTAB
  0
ENDSEC
  0
SECTION
  2
BLOCKS
  0
BLOCK
  5
18
330
17
100
AcDbEntity
  8
0
100
AcDbBlockBegin
  2
*Model_Space
 70
0
 10
0.0
 20
0.0
 30
0.0
  3
*Model_Space
  1

  0
ENDBLK
  5
19
330
17
100
AcDbEntity
  8
0
100
AcDbBlockEnd
  0
BLOCK
  5
1C
330
1B
100
AcDbEntity
  8
0
100
AcDbBlockBegin
  2
*Paper_Space
 70
0
 10
0.0
 20
0.0
 30
0.0
  3
*Paper_Space
  1

  0
ENDBLK
  5
1D
330
1B
100
AcDbEntity
  8
0
100
AcDbBlockEnd
  0
BLOCK
  5
75
330
74
100
AcDbEntity
  8
0
100
AcDbBlockBegin
  2
_ARCHTICK
 70
0
 10
0.0
 20
0.0
 30
0.0
  3
_ARCHTICK
  1

  0
LWPOLYLINE
  5
77
330
74
100
AcDbEntity
  8
0
  6
BYBLOCK
 62
0
100
AcDbPolyline
 90
2
 70
0
 43
0.15
 10
-0.5
 20
-0.5
 10
0.5
 20
0.5
  0
ENDBLK
  5
76
330
74
100
AcDbEntity
  8
0
100
AcDbBlockEnd
  0
BLOCK
  5
79
330
78
100
AcDbEntity
  8
0
100
AcDbBlockBegin
  2
_CLOSEDFILLED
 70
0
 10
0.0
 20
0.0
 30
0.0
  3
_CLOSEDFILLED
  1

  0
SOLID
  5
7B
330
78
100
AcDbEntity
  8
0
  6
BYBLOCK
 62
0
100
AcDbTrace
 10
-1.0
 20
0.16439898372402537
 30
0.0
 11
0.0
 21
0.0
 31
0.0
 12
-1.0
 22
-0.16439898372402537
 32
0.0
 13
-1.0
 23
-0.16439898372402537
 33
0.0
  0
ENDBLK
  5
7A
330
78
100
AcDbEntity
  8
0
100
AcDbBlockEnd
  0
BLOCK
  5
85
330
84
100
AcDbEntity
  8
0
100
AcDbBlockBegin
  2
_CLOSEDBLANK
 70
0
 10
0.0
 20
0.0
 30
0.0
  3
_CLOSEDBLANK
  1

  0
LWPOLYLINE
  5
87
330
84
100
AcDbEntity
  8
0
  6
BYBLOCK
 62
0
100
AcDbPolyline
 90
3
 70
1
 10
-1.0
 20
0.16439898372402537
 10
0.0
 20
0.0
 10
-1.0
 20
-0.16439898372402537
  0
ENDBLK
  5
86
330
84
100
AcDbEntity
  8
0
100
AcDbBlockEnd
  0
ENDSEC
  0
SECTION
  2
ENTITIES
  0
LWPOLYLINE
  5
8C
330
17
100
AcDbEntity
  8
Layer
100
AcDbPolyline
 90
168
 70
1
 10
445.2968723896081
 20
200.28168022404668
 10
445.2968723896081
 20
200.28168022404668
 10
441.5972770339263
 20
201.31569058215027
 10
436.36910751784376
 20
202.7505534342969
 10
431.1455243525949
 20
204.16382032880423
 10
425.92063389068625
 20
205.54985085874935
 10
420.69271146744825
 20
206.91381153368317
 10
415.47043413358733
 20
208.25293256786657
 10
410.2515176610523
 20
209.56075781403885
 10
405.0260523101007
 20
210.83692098536866
 10
399.7916617030297
 20
212.0852114411733
 10
394.5473031208294
 20
213.30811917013574
 10
389.30079491729896
 20
214.50826592403698
 10
384.05623477774975
 20
215.67941518074397
 10
378.8087667398222
 20
216.82019868379797
 10
373.5582733235983
 20
217.92847512457578
 10
368.29166923082676
 20
219.0083375728396
 10
363.0304053470612
 20
220.06676933654057
 10
357.77270425024506
 20
221.08565536555773
 10
352.4962855033969
 20
222.07154108509476
 10
347.2100971394155
 20
223.0339006959581
 10
341.9261660959412
 20
223.9700441151089
 10
336.64189935807985
 20
224.87315922851255
 10
331.3509955431754
 20
225.74306375226755
 10
326.0498085817494
 20
226.5828396344998
 10
320.74068424811463
 20
227.3959101207661
 10
315.42975443791084
 20
228.182377060374
 10
310.11799145735006
 20
228.93726156717187
 10
304.79354455328206
 20
229.66149468621956
 10
299.4658418481028
 20
230.36236909458486
 10
294.14039090875457
 20
231.03424091798348
 10
288.8136572646232
 20
231.6755069345714
 10
283.4867722225074
 20
232.28524129480462
 10
278.1543442523864
 20
232.8611807176861
 10
272.8093385387239
 20
233.40977363434982
 10
267.4736126362418
 20
233.9348810268636
 10
262.138781228176
 20
234.42181298177456
 10
256.79612880942767
 20
234.880436672353
 10
251.46185004775543
 20
235.30940735989338
 10
246.12817239050767
 20
235.70200794770417
 10
240.79031207578745
 20
236.06134541269032
 10
235.4548141090969
 20
236.3895516099744
 10
230.1192928509226
 20
236.68276292676276
 10
224.78158950344448
 20
236.94375943784416
 10
219.44973428793355
 20
237.17450448118933
 10
214.12892248728963
 20
237.36982524470776
 10
208.81206052336384
 20
237.52297108137515
 10
203.4865470941701
 20
237.63984134708784
 10
198.17725235656377
 20
237.72705644842935
 10
192.87010392611384
 20
237.766169341643
 10
187.5586722416525
 20
237.77367708555923
 10
182.26357249551114
 20
237.74428211558734
 10
176.9743968817927
 20
237.67412309087194
 10
171.70155511978285
 20
237.56402408342814
 10
166.4347976786063
 20
237.4062958769075
 10
161.17454894558864
 20
237.2059866457356
 10
155.92065318070829
 20
236.9622208171436
 10
150.6805180966161
 20
236.67911301243066
 10
145.45764760586584
 20
236.34856396789985
 10
140.2448136654967
 20
235.97021559785566
 10
135.04553873417092
 20
235.54617005932244
 10
129.8619132974386
 20
235.07853155788405
 10
124.7109379020902
 20
234.56847640676466
 10
119.59394333713792
 20
234.00317420083775
 10
114.49649514655012
 20
233.37845177831997
 10
109.430674745464
 20
232.70513538267812
 10
104.39902390093249
 20
231.97264728636142
 10
99.3994174977793
 20
231.1807681871702
 10
94.42745205668163
 20
230.32901704527902
 10
89.49580349642437
 20
229.42970126949902
 10
84.62548942592252
 20
228.47621428310245
 10
79.8135820758643
 20
227.4588048275806
 10
75.06487971013053
 20
226.37479420975146
 10
70.37566799411348
 20
225.21977073055004
 10
65.7579459801884
 20
223.9934080037338
 10
61.20021109961263
 20
222.68730757891694
 10
56.73193109900535
 20
221.32223065055274
 10
52.361221315627716
 20
219.8704563994408
 10
48.09553414560014
 20
218.34606435935393
 10
43.967793551458726
 20
216.7462421685936
 10
39.99202394371429
 20
215.07224093023527
 10
36.21374870079751
 20
213.34235981039672
 10
32.68039706570613
 20
211.57353977475034
 10
29.419081076197187
 20
209.77236254954417
 10
26.48000620579441
 20
208.00835094334536
 10
23.896367080951137
 20
206.30261444593592
 10
21.663599679672274
 20
204.67837861625256
 10
19.755107059980475
 20
203.15371667092825
 10
18.15750902362433
 20
201.76948076350337
 10
16.80902467436499
 20
200.44664790171234
 10
15.674206664849663
 20
199.25188544502322
 10
14.739492066614616
 20
198.1632868007923
 10
13.964497178509077
 20
197.13178232691308
 10
13.316083147347712
 20
196.15551255872433
 10
12.779805731559719
 20
195.25921819442874
 10
12.335677529574127
 20
194.40645291416
 10
11.960160065719464
 20
193.58579435382882
 10
11.648124552977578
 20
192.839181266478
 10
11.394966056052027
 20
192.13902083540734
 10
11.18976077664749
 20
191.46555235017973
 10
11.028334370156756
 20
190.85040365220692
 10
10.904593701071434
 20
190.24269100618278
 10
10.808962929173731
 20
189.67030574552373
 10
10.743130135503748
 20
189.1922371491813
 10
10.758822184116553
 20
188.70630209871533
 10
10.77461753222289
 20
188.11679315073755
 10
10.801258485674936
 20
187.56015956124935
 10
10.8628143619311
 20
187.0077365566264
 10
10.98229361754997
 20
186.43100874045479
 10
11.17600337001258
 20
185.81682757754174
 10
11.449684481630811
 20
185.16950213132614
 10
11.810726989978718
 20
184.4924254089015
 10
12.27109275115913
 20
183.7853787857105
 10
12.841542001379281
 20
183.0500645031986
 10
13.531403351325565
 20
182.29127731329856
 10
14.358015238132651
 20
181.51298101460029
 10
15.347347059957627
 20
180.71802850093195
 10
16.537901332841386
 20
179.9045538213832
 10
17.967554233246005
 20
179.0639862487873
 10
19.648512208545043
 20
178.18822536971587
 10
21.599107759300495
 20
177.28582779462602
 10
23.891943765713876
 20
176.37963484241772
 10
26.58787310279274
 20
175.47116628219192
 10
29.68529318806293
 20
174.54556296012584
 10
33.13227216229748
 20
173.61814563899762
 10
36.90862543484039
 20
172.74483592480556
 10
40.97806861981121
 20
171.92014385025868
 10
45.23417006832054
 20
171.1455027744865
 10
49.635027752897
 20
170.4506452923266
 10
54.17525903472628
 20
169.8387257619166
 10
58.85798235584994
 20
169.27699851537258
 10
63.612449500186216
 20
168.7287762952568
 10
68.35975682858515
 20
168.2154183779674
 10
73.1413592658258
 20
167.78520018042047
 10
78.0241921248016
 20
167.4073233495674
 10
82.95950098534527
 20
167.03143953021598
 10
87.9138083384457
 20
166.66975264001817
 10
92.88421923164466
 20
166.33749490246979
 10
97.88142940949692
 20
166.04541137309565
 10
102.93025872709039
 20
165.79076707959197
 10
108.03633082367315
 20
165.5591149916229
 10
113.19335472029998
 20
165.34294894899105
 10
118.39216551730838
 20
165.13516994321333
 10
123.60560120716596
 20
164.9374669232548
 10
124.30196339500348
 20
164.91436720876595
 10
124.25223277420258
 20
163.41519181363878
 10
128.79428460690912
 20
163.26452294855466
 10
134.0580649960189
 20
163.09647974275288
 10
139.35736575258846
 20
162.96101708805227
 10
144.7026651212783
 20
162.83929215306742
 10
150.0872257249896
 20
162.71864241522815
 10
155.5008849975481
 20
162.60826912887507
 10
160.9363061235071
 20
162.5061629001022
 10
166.3852444426555
 20
162.41271717849526
 10
171.84350229302927
 20
162.32988269723583
 10
177.31123461654815
 20
162.26030204618866
 10
182.79148749458793
 20
162.20402032324884
 10
188.2851867876094
 20
162.15764104380548
 10
193.78925038703574
 20
162.11659568374478
 10
199.2996827104179
 20
162.078915040556
 10
204.81482775638221
 20
162.04338399488034
 10
210.33326906750727
 20
162.0097704767723
 10
215.85231473197337
 20
161.9811637408548
 10
221.37261072410004
 20
161.95999172158986
 10
226.89683007587865
 20
161.9446136522192
 10
232.42250516513462
 20
161.93101842495744
 10
240.4123134211695
 20
161.91890142831744
 10
445.2968723896081
 20
200.28168022404668
  0
LWPOLYLINE
  5
8D
330
17
100
AcDbEntity
  8
Layer
100
AcDbPolyline
 90
5
 70
0
 10
389.02708266851903
 20
210.47087152838216
 10
385.1232297860216
 20
211.34261270087362
 10
385.99497095851314
 20
215.24646558337102
 10
389.89882384101054
 20
214.37472441087957
 10
389.02708266851903
 20
210.47087152838216
  0
LWPOLYLINE
  5
8E
330
17
100
AcDbEntity
  8
Layer
100
AcDbPolyline
 90
5
 70
0
 10
170.67309037154692
 20
233.53141960419634
 10
166.67488404126667
 20
233.41164422898618
 10
166.5551086660565
 20
237.40985055926643
 10
170.55331499633675
 20
237.5296259344766
 10
170.67309037154692
 20
233.53141960419634
  0
LWPOLYLINE
  5
8F
330
17
100
AcDbEntity
  8
Layer
100
AcDbPolyline
 90
5
 70
0
 10
72.46491165539632
 20
221.63603507581732
 10
68.59898675401911
 20
220.6090858770194
 10
67.57203755522121
 20
224.47501077839658
 10
71.43796245659843
 20
225.5019599771945
 10
72.46491165539632
 20
221.63603507581732
  0
LWPOLYLINE
  5
90
330
17
100
AcDbEntity
  8
Layer
100
AcDbPolyline
 90
5
 70
0
 10
23.68683305303357
 20
199.94610765802142
 10
22.17702262446765
 20
198.6344398381091
 10
18.897853074686804
 20
202.4089659095239
 10
20.407663503252724
 20
203.72063372943623
 10
23.68683305303357
 20
199.94610765802142
  0
LWPOLYLINE
  5
91
330
17
100
AcDbEntity
  8
Layer
100
AcDbPolyline
 90
5
 70
0
 10
17.417988299016717
 20
185.3563906603351
 10
19.0719330585661
 20
184.23190556378685
 10
16.260720317195474
 20
180.0970436649134
 10
14.60677555764609
 20
181.22152876146166
 10
17.417988299016717
 20
185.3563906603351
  0
LWPOLYLINE
  5
92
330
17
100
AcDbEntity
  8
Layer
100
AcDbPolyline
 90
5
 70
0
 10
93.57942731238855
 20
170.30369171052763
 10
97.5726143524263
 20
170.0703309098895
 10
97.33925355178813
 20
166.07714386985174
 10
93.34606651175038
 20
166.31050467048988
 10
93.57942731238855
 20
170.30369171052763
  0
LWPOLYLINE
  5
93
330
17
100
AcDbEntity
  8
Layer
100
AcDbPolyline
 90
300
 70
1
 10
258.905493119266
 20
200.0
 10
258.8992418417983
 20
200.60111894877065
 10
258.88049076978336
 20
201.2019724603357
 10
258.8492481831667
 20
201.80229521469917
 10
258.80552787779504
 20
202.4018221262325
 10
258.7493491593245
 20
203.00028846072897
 10
258.68073683469555
 20
203.59742995230272
 10
258.59972120117936
 20
204.19298292008133
 10
258.506338032999
 20
204.78668438463973
 10
258.40062856553266
 20
205.37827218412454
 10
258.28263947710525
 20
205.96748509001736
 10
258.15242286837685
 20
206.554062922486
 10
258.010036239336
 20
207.1377466652725
 10
257.8555424639098
 20
207.71827858006733
 10
257.68900976220027
 20
208.29540232031965
 10
257.5105116703604
 20
208.86886304443243
 10
257.32012700812265
 20
209.43840752829345
 10
257.1179398439943
 20
210.003784277092
 10
256.90403945813523
 20
210.56474363637182
 10
256.67852030293426
 20
211.1210379022715
 10
256.44148196130175
 20
211.67242143090348
 10
256.19302910269647
 20
212.2186507468237
 10
255.9332714369065
 20
212.75948465054316
 10
255.66232366560462
 20
213.2946843250351
 10
255.3803054316991
 20
213.82401344118972
 10
255.08734126650293
 20
214.3472382621706
 10
254.78356053474417
 20
214.86412774662614
 10
254.4690973774422
 20
215.37445365071105
 10
254.14409065267478
 20
215.87799062887234
 10
253.80868387426224
 20
216.3745163333556
 10
253.46302514839587
 20
216.86381151238749
 10
253.1072671082383
 20
217.3456601069912
 10
252.74156684652505
 20
217.8198493463919
 10
252.36608584619685
 20
218.2861698419705
 10
251.98098990909318
 20
218.74441567972355
 10
251.58644908273902
 20
219.19438451118927
 10
251.1826375852565
 20
219.63587764279885
 10
250.7697337284351
 20
220.06870012361387
 10
250.34791983899433
 20
220.49266083141126
 10
249.9173821780732
 20
220.90757255707746
 10
249.47831085898267
 20
221.31325208727463
 10
249.03089976325683
 20
221.70952028534262
 10
248.57534645504046
 20
222.09620217040055
 10
248.1118520938501
 20
222.4731269946135
 10
247.64062134574777
 20
222.84012831858996
 10
247.16186229296616
 20
223.1970440848768
 10
246.6757863420253
 20
223.54371668951921
 10
246.1826081303816
 20
223.8799930516542
 10
245.68254543164974
 20
224.2057246811068
 10
245.17581905944016
 20
224.5207677439592
 10
244.66265276985388
 20
224.82498312606367
 10
244.14327316267818
 20
225.11823649447146
 10
243.61790958132647
 20
225.4003983567505
 10
243.08679401156664
 20
225.6713441181656
 10
242.55016097908282
 20
225.93095413669596
 10
242.00824744591532
 20
226.1791137758657
 10
241.4612927058249
 20
226.41571345536417
 10
240.9095382786273
 20
226.64064869943343
 10
240.35322780354517
 20
226.85382018300186
 10
239.79260693162348
 20
227.0551337755434
 10
239.2279232172571
 20
227.24450058264276
 10
238.65942600887786
 20
227.4218369852488
 10
238.0873663388491
 20
227.5870646765984
 10
237.511996812617
 20
227.74011069679437
 10
236.933571497167
 20
227.88090746502263
 10
236.35234580883508
 20
228.00939280939392
 10
235.76857640052305
 20
228.12550999439716
 10
235.1825210483678
 20
228.2292077459523
 10
234.5944385379147
 20
228.32044027405146
 10
234.00458854984524
 20
228.39916729297855
 10
233.41323154530915
 20
228.46535403909823
 10
232.82062865091225
 20
228.5189712862067
 10
232.22704154341025
 20
228.55999535843694
 10
231.6327323341597
 20
228.58840814071363
 10
231.0379634533769
 20
228.60419708675187
 10
230.44299753425616
 20
228.60735522459765
 10
229.84809729699842
 20
228.59788115970616
 10
229.25352543280127
 20
228.57577907555776
 10
228.65954448786215
 20
228.54105873181058
 10
228.066416747445
 20
228.49373545999106
 10
227.47440412006281
 20
228.4338301567238
 10
226.88376802182603
 20
228.3613692745043
 10
226.2947692610085
 20
228.27638481001833
 10
225.70766792288202
 20
228.17891429001298
 10
225.12272325486992
 20
228.06900075472598
 10
224.54019355207078
 20
227.9466927388803
 10
223.96033604320243
 20
227.81204425025263
 10
223.38340677701711
 20
227.66511474582506
 10
222.80966050923763
 20
227.5059691055305
 10
222.23935059006413
 20
227.3346776036036
 10
221.6727288523021
 20
227.1513158775495
 10
221.11004550015986
 20
226.95596489474462
 10
220.5515489987655
 20
226.74871091668362
 10
219.99748596445178
 20
226.52964546088876
 10
219.44810105585714
 20
226.29886526049836
 10
218.90363686589134
 20
226.05647222155218
 10
218.36433381461342
 20
225.80257337799264
 10
217.8304300430688
 20
225.53728084440144
 10
217.302161308133
 20
225.26071176649316
 10
216.779760878408
 20
224.97298826938683
 10
216.26345943121743
 20
224.6742374036791
 10
215.75348495074581
 20
224.36459108934199
 10
215.2500626273674
 20
224.04418605747108
 10
214.75341475820832
 20
223.71316378990866
 10
214.2637606489863
 20
223.37167045676944
 10
213.7813165171717
 20
223.01985685189587
 10
213.30629539651176
 20
222.6578783262719
 10
212.83890704296095
 20
222.2858947194244
 10
212.37935784205874
 20
221.90407028884232
 10
211.92785071779537
 20
221.51257363744543
 10
211.48458504300646
 20
221.11157763913394
 10
211.04975655133558
 20
220.70125936245213
 10
210.62355725080369
 20
220.28179999240012
 10
210.20617533902396
 20
219.85338475042747
 10
209.79779512009884
 20
219.4162028126446
 10
209.3985969232366
 20
218.97044722628806
 10
209.00875702312314
 20
218.5163148244763
 10
208.62844756208386
 20
218.05400613929362
 10
208.25783647407064
 20
217.5837253132408
 10
207.8970874105068
 20
217.10568000909174
 10
207.54635966802329
 20
216.62008131819522
 10
207.20580811811786
 20
216.12714366726294
 10
206.87558313876798
 20
215.62708472368485
 10
206.55583054802833
 20
215.12012529941316
 10
206.24669153964157
 20
214.60648925345814
 10
205.94830262069124
 20
214.08640339303827
 10
205.66079555132387
 20
213.56009737342848
 10
205.38429728656772
 20
213.02780359655088
 10
205.1189299202727
 20
212.4897571083527
 10
204.8648106311974
 20
211.94619549501647
 10
204.62205163126612
 20
211.39735877804878
 10
204.3907601160193
 20
210.84348930829347
 10
204.17103821727892
 20
210.2848316589163
 10
203.96298295805008
 20
209.72163251740835
 10
203.7666862096782
 20
209.15414057665583
 10
203.58223465128145
 20
208.58260642512425
 10
203.40970973147546
 20
208.00728243620557
 10
203.24918763240802
 20
207.42842265677726
 10
203.10073923611927
 20
206.84628269502235
 10
202.96443009324193
 20
206.26111960756006
 10
202.8403203940563
 20
205.67319178593678
 10
202.72846494191168
 20
205.08275884252768
 10
202.62891312902687
 20
204.49008149589923
 10
202.54170891468
 20
203.89542145568313
 10
202.46689080579714
 20
203.2990413070128
 10
202.404491839949
 20
202.7012043945731
 10
202.3545395707623
 20
202.10217470631477
 10
202.31705605575291
 20
201.50221675688476
 10
202.29205784658583
 20
200.90159547082405
 10
202.27955598176652
 20
200.30057606558435
 10
202.27955598176652
 20
199.69942393441565
 10
202.29205784658583
 20
199.09840452917595
 10
202.31705605575291
 20
198.49778324311524
 10
202.3545395707623
 20
197.89782529368523
 10
202.404491839949
 20
197.29879560542687
 10
202.46689080579714
 20
196.7009586929872
 10
202.54170891468
 20
196.10457854431687
 10
202.62891312902687
 20
195.50991850410077
 10
202.72846494191168
 20
194.91724115747232
 10
202.8403203940563
 20
194.32680821406322
 10
202.96443009324193
 20
193.73888039243994
 10
203.10073923611927
 20
193.15371730497762
 10
203.24918763240802
 20
192.57157734322274
 10
203.40970973147546
 20
191.99271756379443
 10
203.58223465128145
 20
191.41739357487575
 10
203.7666862096782
 20
190.84585942334417
 10
203.96298295805005
 20
190.27836748259168
 10
204.17103821727892
 20
189.71516834108374
 10
204.3907601160193
 20
189.15651069170653
 10
204.62205163126612
 20
188.60264122195122
 10
204.8648106311974
 20
188.05380450498353
 10
205.11892992027268
 20
187.5102428916473
 10
205.3842972865677
 20
186.97219640344912
 10
205.66079555132387
 20
186.43990262657152
 10
205.9483026206912
 20
185.91359660696173
 10
206.24669153964157
 20
185.39351074654184
 10
206.55583054802833
 20
184.87987470058684
 10
206.87558313876795
 20
184.37291527631515
 10
207.20580811811783
 20
183.87285633273706
 10
207.54635966802329
 20
183.3799186818048
 10
207.8970874105068
 20
182.89431999090826
 10
208.25783647407064
 20
182.4162746867592
 10
208.62844756208386
 20
181.9459938607064
 10
209.00875702312314
 20
181.48368517552368
 10
209.39859692323662
 20
181.02955277371194
 10
209.79779512009884
 20
180.5837971873554
 10
210.20617533902396
 20
180.14661524957253
 10
210.62355725080369
 20
179.71820000759988
 10
211.04975655133555
 20
179.29874063754787
 10
211.48458504300646
 20
178.8884223608661
 10
211.92785071779537
 20
178.48742636255457
 10
212.37935784205874
 20
178.09592971115768
 10
212.83890704296095
 20
177.7141052805756
 10
213.30629539651176
 20
177.3421216737281
 10
213.7813165171717
 20
176.98014314810416
 10
214.2637606489863
 20
176.62832954323056
 10
214.7534147582083
 20
176.28683621009134
 10
215.2500626273674
 20
175.95581394252892
 10
215.75348495074581
 20
175.63540891065801
 10
216.26345943121743
 20
175.3257625963209
 10
216.779760878408
 20
175.02701173061317
 10
217.302161308133
 20
174.73928823350684
 10
217.83043004306882
 20
174.46271915559856
 10
218.36433381461342
 20
174.19742662200736
 10
218.90363686589131
 20
173.94352777844782
 10
219.4481010558571
 20
173.70113473950164
 10
219.99748596445178
 20
173.47035453911124
 10
220.5515489987655
 20
173.25128908331638
 10
221.11004550015983
 20
173.04403510525538
 10
221.6727288523021
 20
172.8486841224505
 10
222.23935059006413
 20
172.6653223963964
 10
222.80966050923763
 20
172.4940308944695
 10
223.38340677701711
 20
172.33488525417494
 10
223.96033604320243
 20
172.18795574974737
 10
224.54019355207078
 20
172.0533072611197
 10
225.12272325486995
 20
171.93099924527402
 10
225.70766792288202
 20
171.82108570998702
 10
226.2947692610085
 20
171.72361518998167
 10
226.88376802182603
 20
171.6386307254957
 10
227.47440412006281
 20
171.5661698432762
 10
228.066416747445
 20
171.50626454000894
 10
228.65954448786212
 20
171.45894126818942
 10
229.25352543280127
 20
171.42422092444224
 10
229.8480972969984
 20
171.40211884029384
 10
230.44299753425616
 20
171.39264477540235
 10
231.0379634533769
 20
171.39580291324813
 10
231.6327323341597
 20
171.41159185928637
 10
232.22704154341025
 20
171.44000464156306
 10
232.82062865091225
 20
171.4810287137933
 10
233.41323154530915
 20
171.53464596090177
 10
234.00458854984524
 20
171.60083270702145
 10
234.5944385379147
 20
171.67955972594854
 10
235.1825210483678
 20
171.7707922540477
 10
235.76857640052305
 20
171.87449000560284
 10
236.35234580883508
 20
171.99060719060608
 10
236.933571497167
 20
172.11909253497737
 10
237.51199681261699
 20
172.25988930320563
 10
238.0873663388491
 20
172.4129353234016
 10
238.65942600887786
 20
172.57816301475117
 10
239.2279232172571
 20
172.75549941735724
 10
239.79260693162345
 20
172.9448662244566
 10
240.35322780354517
 20
173.14617981699814
 10
240.9095382786273
 20
173.35935130056657
 10
241.4612927058249
 20
173.58428654463583
 10
242.00824744591532
 20
173.8208862241343
 10
242.55016097908285
 20
174.06904586330404
 10
243.08679401156667
 20
174.3286558818344
 10
243.61790958132647
 20
174.5996016432495
 10
244.1432731626782
 20
174.88176350552857
 10
244.66265276985388
 20
175.17501687393633
 10
245.17581905944013
 20
175.47923225604077
 10
245.68254543164974
 20
175.7942753188932
 10
246.1826081303816
 20
176.1200069483458
 10
246.6757863420253
 20
176.45628331048079
 10
247.16186229296613
 20
176.8029559151232
 10
247.64062134574777
 20
177.15987168141004
 10
248.1118520938501
 20
177.5268730053865
 10
248.57534645504046
 20
177.90379782959945
 10
249.03089976325683
 20
178.29047971465738
 10
249.47831085898267
 20
178.68674791272537
 10
249.9173821780732
 20
179.09242744292254
 10
250.34791983899436
 20
179.50733916858874
 10
250.7697337284351
 20
179.93129987638616
 10
251.1826375852565
 20
180.36412235720118
 10
251.58644908273902
 20
180.80561548881073
 10
251.98098990909318
 20
181.25558432027645
 10
252.36608584619682
 20
181.7138301580295
 10
252.74156684652505
 20
182.18015065360808
 10
253.1072671082383
 20
182.6543398930088
 10
253.46302514839587
 20
183.13618848761251
 10
253.80868387426224
 20
183.6254836666444
 10
254.14409065267478
 20
184.12200937112766
 10
254.4690973774422
 20
184.62554634928895
 10
254.78356053474417
 20
185.13587225337386
 10
255.08734126650293
 20
185.6527617378294
 10
255.3803054316991
 20
186.17598655881028
 10
255.66232366560462
 20
186.7053156749649
 10
255.9332714369065
 20
187.24051534945684
 10
256.19302910269647
 20
187.7813492531763
 10
256.44148196130175
 20
188.3275785690965
 10
256.67852030293426
 20
188.8789620977285
 10
256.90403945813523
 20
189.43525636362818
 10
257.1179398439943
 20
189.99621572290798
 10
257.32012700812265
 20
190.56159247170655
 10
257.5105116703604
 20
191.13113695556757
 10
257.68900976220027
 20
191.70459767968035
 10
257.8555424639098
 20
192.28172141993264
 10
258.010036239336
 20
192.8622533347275
 10
258.15242286837685
 20
193.445937077514
 10
258.28263947710525
 20
194.03251490998264
 10
258.40062856553266
 20
194.62172781587546
 10
258.506338032999
 20
195.21331561536027
 10
258.59972120117936
 20
195.80701707991867
 10
258.68073683469555
 20
196.40257004769728
 10
258.7493491593245
 20
196.999711539271
 10
258.80552787779504
 20
197.59817787376747
 10
258.8492481831667
 20
198.19770478530083
 10
258.88049076978336
 20
198.7980275396643
 10
258.8992418417983
 20
199.39888105122935
 10
258.905493119266
 20
200.0
  0
LINE
  5
94
330
17
100
AcDbEntity
  8
Layer
 62
7
100
AcDbLine
 10
16.384786299667553
 20
200.00000000000003
 30
0.0
 11
443.7924993935528
 21
199.99999999999997
 31
0.0
  0
LINE
  5
95
330
17
100
AcDbEntity
  8
Layer
 62
7
100
AcDbLine
 10
99.76632891844463
 20
200.00000000000003
 30
0.0
 11
111.76632891844461
 21
200.00000000000003
 31
0.0
  0
LWPOLYLINE
  5
96
330
17
100
AcDbEntity
  8
Layer
100
AcDbPolyline
 90
5
 70
0
 10
105.76632891844461
 20
205.00000000000003
 10
110.76632891844461
 20
200.00000000000003
 10
105.76632891844461
 20
195.00000000000003
 10
100.76632891844461
 20
200.00000000000003
 10
105.76632891844461
 20
205.00000000000003
  0
LINE
  5
97
330
17
100
AcDbEntity
  8
Layer
 62
7
100
AcDbLine
 10
224.08864284661018
 20
200.0
 30
0.0
 11
236.08864284661018
 21
200.0
 31
0.0
  0
LWPOLYLINE
  5
98
330
17
100
AcDbEntity
  8
Layer
100
AcDbPolyline
 90
5
 70
0
 10
230.08864284661018
 20
205.0
 10
235.08864284661018
 20
200.0
 10
230.08864284661018
 20
195.0
 10
225.08864284661018
 20
200.0
 10
230.08864284661018
 20
205.0
  0
LINE
  5
99
330
17
100
AcDbEntity
  8
Layer
 62
7
100
AcDbLine
 10
348.4109567747758
 20
199.99999999999997
 30
0.0
 11
360.4109567747758
 21
199.99999999999997
 31
0.0
  0
LWPOLYLINE
  5
9A
330
17
100
AcDbEntity
  8
Layer
100
AcDbPolyline
 90
5
 70
0
 10
354.4109567747758
 20
204.99999999999997
 10
359.4109567747758
 20
199.99999999999997
 10
354.4109567747758
 20
194.99999999999997
 10
349.4109567747758
 20
199.99999999999997
 10
354.4109567747758
 20
204.99999999999997
  0
LINE
  5
9B
330
17
100
AcDbEntity
  8
Layer
 62
7
100
AcDbLine
 10
10.783845361080125
 20
189.4879054575735
 30
0.0
 11
311.604284088155
 21
175.2489534170099
 31
0.0
  0
LINE
  5
9C
330
17
100
AcDbEntity
  8
Layer
 62
7
100
AcDbLine
 10
68.85028166644011
 20
186.7394047067033
 30
0.0
 11
80.83686132389707
 21
186.17203523674593
 31
0.0
  0
LWPOLYLINE
  5
9D
330
17
100
AcDbEntity
  8
Layer
100
AcDbPolyline
 90
5
 70
0
 10
75.07997544098416
 20
191.45012816233168
 10
79.83797968577565
 20
186.21931602590905
 10
74.60716754935302
 20
181.46131178111756
 10
69.84916330456153
 20
186.6921239175402
 10
75.07997544098416
 20
191.45012816233168
  0
LINE
  5
9E
330
17
100
AcDbEntity
  8
Layer
 62
7
100
AcDbLine
 10
140.80902602431428
 20
183.33332926134253
 30
0.0
 11
152.79560568177124
 21
182.76595979138517
 31
0.0
  0
LWPOLYLINE
  5
9F
330
17
100
AcDbEntity
  8
Layer
100
AcDbPolyline
 90
5
 70
0
 10
147.03871979885832
 20
188.0440527169709
 10
151.79672404364982
 20
182.81324058054827
 10
146.5659119072272
 20
178.05523633575677
 10
141.8079076624357
 20
183.2860484721794
 10
147.03871979885832
 20
188.0440527169709
  0
LINE
  5
A0
330
17
100
AcDbEntity
  8
Layer
100
AcDbLine
 10
230.59174311926608
 20
228.60774999999995
 30
0.0
 11
230.59174311926608
 21
229.60774999999995
 31
0.0
  0
LINE
  5
A1
330
17
100
AcDbEntity
  8
Layer
100
AcDbLine
 10
230.59174311926608
 20
171.39225000000005
 30
0.0
 11
230.59174311926608
 21
170.39225000000005
 31
0.0
  0
LINE
  5
A2
330
17
100
AcDbEntity
  8
Layer
100
AcDbLine
 10
258.905493119266
 20
200.0
 30
0.0
 11
259.905493119266
 21
200.0
 31
0.0
  0
LINE
  5
A3
330
17
100
AcDbEntity
  8
Layer
100
AcDbLine
 10
202.27799311926614
 20
200.0
 30
0.0
 11
201.27799311926614
 21
200.0
 31
0.0
  0
LINE
  5
A4
330
17
100
AcDbEntity
  8
Layer
 62
7
100
AcDbLine
 10
150.59174311926608
 20
162.70835635176812
 30
0.0
 11
150.59174311926608
 21
236.67349455338726
 31
0.0
  0
LINE
  5
A5
330
17
100
AcDbEntity
  8
Layer
 62
7
100
AcDbLine
 10
150.59174311926608
 20
184.54615472233482
 30
0.0
 11
150.59174311926608
 21
196.54615472233482
 31
0.0
  0
LWPOLYLINE
  5
A6
330
17
100
AcDbEntity
  8
Layer
100
AcDbPolyline
 90
5
 70
0
 10
145.59174311926608
 20
190.54615472233482
 10
150.59174311926608
 20
195.54615472233482
 10
155.59174311926608
 20
190.54615472233482
 10
150.59174311926608
 20
185.54615472233482
 10
145.59174311926608
 20
190.54615472233482
  0
LINE
  5
A7
330
17
100
AcDbEntity
  8
Layer
 62
7
100
AcDbLine
 10
150.59174311926608
 20
202.83569618282056
 30
0.0
 11
150.59174311926608
 21
214.83569618282056
 31
0.0
  0
LWPOLYLINE
  5
A8
330
17
100
AcDbEntity
  8
Layer
100
AcDbPolyline
 90
5
 70
0
 10
145.59174311926608
 20
208.83569618282056
 10
150.59174311926608
 20
213.83569618282056
 10
155.59174311926608
 20
208.83569618282056
 10
150.59174311926608
 20
203.83569618282056
 10
145.59174311926608
 20
208.83569618282056
  0
LINE
  5
A9
330
17
100
AcDbEntity
  8
Layer
 62
7
100
AcDbLine
 10
360.5917431192661
 20
184.42141162487735
 30
0.0
 11
360.5917431192661
 21
220.53935589626283
 31
0.0
  0
LINE
  5
AA
330
17
100
AcDbEntity
  8
Layer
 62
7
100
AcDbLine
 10
360.5917431192661
 20
193.01269211986227
 30
0.0
 11
360.5917431192661
 21
205.01269211986227
 31
0.0
  0
LWPOLYLINE
  5
AB
330
17
100
AcDbEntity
  8
Layer
100
AcDbPolyline
 90
5
 70
0
 10
355.5917431192661
 20
199.01269211986227
 10
360.5917431192661
 20
204.01269211986227
 10
365.5917431192661
 20
199.01269211986227
 10
360.5917431192661
 20
194.01269211986227
 10
355.5917431192661
 20
199.01269211986227
  0
LINE
  5
AC
330
17
100
AcDbEntity
  8
Layer
 62
7
100
AcDbLine
 10
360.5917431192661
 20
199.94807540127792
 30
0.0
 11
360.5917431192661
 21
211.94807540127792
 31
0.0
  0
LWPOLYLINE
  5
AD
330
17
100
AcDbEntity
  8
Layer
100
AcDbPolyline
 90
5
 70
0
 10
355.5917431192661
 20
205.94807540127792
 10
360.5917431192661
 20
210.94807540127792
 10
365.5917431192661
 20
205.94807540127792
 10
360.5917431192661
 20
200.94807540127792
 10
355.5917431192661
 20
205.94807540127792
  0
LWPOLYLINE
  5
AE
330
17
100
AcDbEntity
  8
NumLabel
 62
1
100
AcDbPolyline
 90
4
 70
0
 10
172.54128440366975
 20
175.97477064220183
 10
172.54128440366975
 20
180.97477064220183
 10
177.54128440366975
 20
180.97477064220183
 10
177.54128440366975
 20
170.97477064220183
  0
LWPOLYLINE
  5
AF
330
17
100
AcDbEntity
  8
NumLabel
 62
1
100
AcDbPolyline
 90
6
 70
0
 10
180.04128440366975
 20
180.97477064220183
 10
185.04128440366975
 20
180.97477064220183
 10
185.04128440366975
 20
175.97477064220183
 10
180.04128440366975
 20
175.97477064220183
 10
180.04128440366975
 20
170.97477064220183
 10
185.04128440366975
 20
170.97477064220183
  0
ENDSEC
  0
SECTION
  2
OBJECTS
  0
DICTIONARY
  5
A
330
0
100
AcDbDictionary
280
0
281
1
  3
ACAD_COLOR
350
B
  3
ACAD_GROUP
350
C
  3
ACAD_LAYOUT
350
D
  3
ACAD_MATERIAL
350
E
  3
ACAD_MLEADERSTYLE
350
F
  3
ACAD_MLINESTYLE
350
10
  3
ACAD_PLOTSETTINGS
350
11
  3
ACAD_PLOTSTYLENAME
350
12
  3
ACAD_SCALELIST
350
14
  3
ACAD_TABLESTYLE
350
15
  3
ACAD_VISUALSTYLE
350
16
  3
EZDXF_META
350
2D
  0
DICTIONARY
  5
B
330
A
100
AcDbDictionary
280
0
281
1
  0
DICTIONARY
  5
C
330
A
100
AcDbDictionary
280
0
281
1
  0
DICTIONARY
  5
D
330
A
100
AcDbDictionary
280
0
281
1
  3
Model
350
1A
  3
Layout1
350
1E
  0
DICTIONARY
  5
E
330
A
100
AcDbDictionary
280
0
281
1
  3
ByBlock
350
1F
  3
ByLayer
350
20
  3
Global
350
21
  0
DICTIONARY
  5
F
330
A
100
AcDbDictionary
280
0
281
1
  3
Standard
350
2C
  0
DICTIONARY
  5
10
330
A
100
AcDbDictionary
280
0
281
1
  3
Standard
350
22
  0
DICTIONARY
  5
11
330
A
100
AcDbDictionary
280
0
281
1
  0
ACDBDICTIONARYWDFLT
  5
12
330
A
100
AcDbDictionary
280
0
281
1
  3
Normal
350
13
100
AcDbDictionaryWithDefault
340
13
  0
ACDBPLACEHOLDER
  5
13
330
12
  0
DICTIONARY
  5
14
330
A
100
AcDbDictionary
280
0
281
1
  0
DICTIONARY
  5
15
330
A
100
AcDbDictionary
280
0
281
1
  0
DICTIONARY
  5
16
330
A
100
AcDbDictionary
280
0
281
1
  3
2dWireframe
350
5A
  3
Basic
350
5B
  3
Brighten
350
5C
  3
ColorChange
350
5D
  3
Conceptual
350
5E
  3
Dim
350
5F
  3
EdgeColorOff
350
60
  3
Facepattern
350
61
  3
Flat
350
62
  3
FlatWithEdges
350
63
  3
Gouraud
350
64
  3
GouraudWithEdges
350
65
  3
Hidden
350
66
  3
JitterOff
350
67
  3
Linepattern
350
68
  3
Modeling
350
69
  3
OverhangOff
350
6A
  3
Realistic
350
6B
  3
Shaded
350
6C
  3
Shaded with edges
350
6D
  3
Shades of Gray
350
6E
  3
Sketchy
350
6F
  3
Thicken
350
70
  3
Wireframe
350
71
  3
X-Ray
350
72
  0
LAYOUT
  5
1A
330
D
100
AcDbPlotSettings
  1

  2
Adobe PDF
  4
A3
  6

 40
7.5
 41
20.0
 42
7.5
 43
20.0
 44
420.0
 45
297.0
 46
0.0
 47
0.0
 48
0.0
 49
0.0
140
0.0
141
0.0
142
1.0
143
1.0
 70
1024
 72
1
 73
0
 74
5
  7

 75
16
 76
0
 77
2
 78
300
147
1.0
148
0.0
149
0.0
100
AcDbLayout
  1
Model
 70
1
 71
0
 10
0.0
 20
0.0
 11
420.0
 21
297.0
 12
0.0
 22
0.0
 32
0.0
 14
1e+20
 24
1e+20
 34
1e+20
 15
-1e+20
 25
-1e+20
 35
-1e+20
146
0.0
 13
0.0
 23
0.0
 33
0.0
 16
1.0
 26
0.0
 36
0.0
 17
0.0
 27
1.0
 37
0.0
 76
1
330
17
  0
LAYOUT
  5
1E
330
D
100
AcDbPlotSettings
  1

  2
Adobe PDF
  4
A3
  6

 40
7.5
 41
20.0
 42
7.5
 43
20.0
 44
420.0
 45
297.0
 46
0.0
 47
0.0
 48
0.0
 49
0.0
140
0.0
141
0.0
142
1.0
143
1.0
 70
0
 72
1
 73
0
 74
5
  7

 75
16
 76
0
 77
2
 78
300
147
1.0
148
0.0
149
0.0
100
AcDbLayout
  1
Layout1
 70
1
 71
1
 10
0.0
 20
0.0
 11
420.0
 21
297.0
 12
0.0
 22
0.0
 32
0.0
 14
1e+20
 24
1e+20
 34
1e+20
 15
-1e+20
 25
-1e+20
 35
-1e+20
146
0.0
 13
0.0
 23
0.0
 33
0.0
 16
1.0
 26
0.0
 36
0.0
 17
0.0
 27
1.0
 37
0.0
 76
1
330
1B
  0
MATERIAL
  5
1F
102
{ACAD_REACTORS
330
E
102
}
330
E
100
AcDbMaterial
  1
ByBlock
  2

 70
0
 40
1.0
 71
1
 41
1.0
 91
-1023410177
 42
1.0
 72
1
  3

 73
1
 74
1
 75
1
 44
0.5
 73
0
 45
1.0
 46
1.0
 77
1
  4

 78
1
 79
1
170
1
 48
1.0
171
1
  6

172
1
173
1
174
1
140
1.0
141
1.0
175
1
  7

176
1
177
1
178
1
143
1.0
179
1
  8

270
1
271
1
272
1
145
1.0
146
1.0
273
1
  9

274
1
275
1
276
1
 42
1.0
 72
1
  3

 73
1
 74
1
 75
1
 94
63
  0
MATERIAL
  5
20
102
{ACAD_REACTORS
330
E
102
}
330
E
100
AcDbMaterial
  1
ByLayer
  2

 70
0
 40
1.0
 71
1
 41
1.0
 91
-1023410177
 42
1.0
 72
1
  3

 73
1
 74
1
 75
1
 44
0.5
 73
0
 45
1.0
 46
1.0
 77
1
  4

 78
1
 79
1
170
1
 48
1.0
171
1
  6

172
1
173
1
174
1
140
1.0
141
1.0
175
1
  7

176
1
177
1
178
1
143
1.0
179
1
  8

270
1
271
1
272
1
145
1.0
146
1.0
273
1
  9

274
1
275
1
276
1
 42
1.0
 72
1
  3

 73
1
 74
1
 75
1
 94
63
  0
MATERIAL
  5
21
102
{ACAD_REACTORS
330
E
102
}
330
E
100
AcDbMaterial
  1
Global
  2

 70
0
 40
1.0
 71
1
 41
1.0
 91
-1023410177
 42
1.0
 72
1
  3

 73
1
 74
1
 75
1
 44
0.5
 73
0
 45
1.0
 46
1.0
 77
1
  4

 78
1
 79
1
170
1
 48
1.0
171
1
  6

172
1
173
1
174
1
140
1.0
141
1.0
175
1
  7

176
1
177
1
178
1
143
1.0
179
1
  8

270
1
271
1
272
1
145
1.0
146
1.0
273
1
  9

274
1
275
1
276
1
 42
1.0
 72
1
  3

 73
1
 74
1
 75
1
 94
63
  0
MLINESTYLE
  5
22
102
{ACAD_REACTORS
330
10
102
}
330
10
100
AcDbMlineStyle
  2
Standard
 70
0
  3

 62
256
 51
90.0
 52
90.0
 71
2
 49
0.5
 62
256
  6
BYLAYER
 49
-0.5
 62
256
  6
BYLAYER
  0
MLEADERSTYLE
  5
2C
102
{ACAD_REACTORS
330
F
102
}
330
F
100
AcDbMLeaderStyle
179
2
170
2
171
1
172
0
 90
2
 40
0.0
 41
0.0
173
1
 91
-1056964608
 92
-2
290
1
 42
2.0
291
1
 43
8.0
  3
Standard
 44
4.0
300

342
29
174
1
175
1
176
0
178
1
 93
-1056964608
 45
4.0
292
0
297
0
 46
4.0
 94
-1056964608
 47
1.0
 49
1.0
140
1.0
294
1
141
0.0
177
0
142
1.0
295
0
296
0
143
3.75
271
0
272
9
273
9
  0
DICTIONARY
  5
2D
330
A
100
AcDbDictionary
281
1
  3
CREATED_BY_EZDXF
350
2E
  3
WRITTEN_BY_EZDXF
350
B2
  0
DICTIONARYVAR
  5
2E
330
2D
100
DictionaryVariables
280
0
  1
1.3.0 @ 2026-01-06T17:07:24.244340+00:00
  0
VISUALSTYLE
  5
5A
102
{ACAD_REACTORS
330
16
102
}
330
16
100
AcDbVisualStyle
  2
2dWireframe
 70
4
 90
0
 40
0.6
 62
7
290
0
291
0
  0
VISUALSTYLE
  5
5B
102
{ACAD_REACTORS
330
16
102
}
330
16
100
AcDbVisualStyle
  2
Basic
 70
7
 90
1
 40
0.6
 62
7
290
0
291
1
  0
VISUALSTYLE
  5
5C
102
{ACAD_REACTORS
330
16
102
}
330
16
100
AcDbVisualStyle
  2
Brighten
 70
12
 90
2
 40
0.6
 62
7
290
0
291
1
  0
VISUALSTYLE
  5
5D
102
{ACAD_REACTORS
330
16
102
}
330
16
100
AcDbVisualStyle
  2
ColorChange
 70
16
 90
2
 40
0.6
 62
8
290
0
291
1
  0
VISUALSTYLE
  5
5E
102
{ACAD_REACTORS
330
16
102
}
330
16
100
AcDbVisualStyle
  2
Conceptual
 70
9
 90
3
 40
0.6
 62
7
290
0
291
0
  0
VISUALSTYLE
  5
5F
102
{ACAD_REACTORS
330
16
102
}
330
16
100
AcDbVisualStyle
  2
Dim
 70
11
 90
2
 40
0.6
 62
7
290
0
291
1
  0
VISUALSTYLE
  5
60
102
{ACAD_REACTORS
330
16
102
}
330
16
100
AcDbVisualStyle
  2
EdgeColorOff
 70
22
 90
2
 40
0.6
 62
7
290
0
291
1
  0
VISUALSTYLE
  5
61
102
{ACAD_REACTORS
330
16
102
}
330
16
100
AcDbVisualStyle
  2
Facepattern
 70
15
 90
2
 40
0.6
 62
7
290
0
291
1
  0
VISUALSTYLE
  5
62
102
{ACAD_REACTORS
330
16
102
}
330
16
100
AcDbVisualStyle
  2
Flat
 70
0
 90
2
 40
0.6
 62
7
290
0
291
1
  0
VISUALSTYLE
  5
63
102
{ACAD_REACTORS
330
16
102
}
330
16
100
AcDbVisualStyle
  2
FlatWithEdges
 70
1
 90
2
 40
0.6
 62
7
290
0
291
1
  0
VISUALSTYLE
  5
64
102
{ACAD_REACTORS
330
16
102
}
330
16
100
AcDbVisualStyle
  2
Gouraud
 70
2
 90
2
 40
0.6
 62
7
290
0
291
1
  0
VISUALSTYLE
  5
65
102
{ACAD_REACTORS
330
16
102
}
330
16
100
AcDbVisualStyle
  2
GouraudWithEdges
 70
3
 90
2
 40
0.6
 62
7
290
0
291
1
  0
VISUALSTYLE
  5
66
102
{ACAD_REACTORS
330
16
102
}
330
16
100
AcDbVisualStyle
  2
Hidden
 70
6
 90
1
 40
0.6
 62
7
290
0
291
0
  0
VISUALSTYLE
  5
67
102
{ACAD_REACTORS
330
16
102
}
330
16
100
AcDbVisualStyle
  2
JitterOff
 70
20
 90
2
 40
0.6
 62
7
290
0
291
1
  0
VISUALSTYLE
  5
68
102
{ACAD_REACTORS
330
16
102
}
330
16
100
AcDbVisualStyle
  2
Linepattern
 70
14
 90
2
 40
0.6
 62
7
290
0
291
1
  0
VISUALSTYLE
  5
69
102
{ACAD_REACTORS
330
16
102
}
330
16
100
AcDbVisualStyle
  2
Modeling
 70
10
 90
2
 40
0.6
 62
7
290
0
291
0
  0
VISUALSTYLE
  5
6A
102
{ACAD_REACTORS
330
16
102
}
330
16
100
AcDbVisualStyle
  2
OverhangOff
 70
21
 90
2
 40
0.6
 62
7
290
0
291
1
  0
VISUALSTYLE
  5
6B
102
{ACAD_REACTORS
330
16
102
}
330
16
100
AcDbVisualStyle
  2
Realistic
 70
8
 90
2
 40
0.6
 62
7
290
0
291
0
  0
VISUALSTYLE
  5
6C
102
{ACAD_REACTORS
330
16
102
}
330
16
100
AcDbVisualStyle
  2
Shaded
 70
27
 90
2
 40
0.6
 62
7
290
0
291
0
  0
VISUALSTYLE
  5
6D
102
{ACAD_REACTORS
330
16
102
}
330
16
100
AcDbVisualStyle
  2
Shaded with edges
 70
26
 90
2
 40
0.6
 62
7
290
0
291
0
  0
VISUALSTYLE
  5
6E
102
{ACAD_REACTORS
330
16
102
}
330
16
100
AcDbVisualStyle
  2
Shades of Gray
 70
23
 90
2
 40
0.6
 62
7
290
0
291
0
  0
VISUALSTYLE
  5
6F
102
{ACAD_REACTORS
330
16
102
}
330
16
100
AcDbVisualStyle
  2
Sketchy
 70
24
 90
1
 40
0.6
 62
7
290
0
291
0
  0
VISUALSTYLE
  5
70
102
{ACAD_REACTORS
330
16
102
}
330
16
100
AcDbVisualStyle
  2
Thicken
 70
13
 90
2
 40
0.6
 62
7
290
0
291
1
  0
VISUALSTYLE
  5
71
102
{ACAD_REACTORS
330
16
102
}
330
16
100
AcDbVisualStyle
  2
Wireframe
 70
5
 90
0
 40
0.6
 62
7
290
0
291
0
  0
VISUALSTYLE
  5
72
102
{ACAD_REACTORS
330
16
102
}
330
16
100
AcDbVisualStyle
  2
X-Ray
 70
25
 90
2
 40
0.5
 62
7
290
0
291
0
  0
DICTIONARYVAR
  5
B2
330
2D
100
DictionaryVariables
280
0
  1
1.3.0 @ 2026-01-06T17:07:24.308535+00:00
  0
ENDSEC
  0
EOF
