<?xml version="1.0" encoding="utf-8" standalone="no"?>
<!DOCTYPE svg PUBLIC "-//W3C//DTD SVG 1.1//EN"
  "http://www.w3.org/Graphics/SVG/1.1/DTD/svg11.dtd">
<svg xmlns:xlink="http://www.w3.org/1999/xlink" width="1152pt" height="321.132901pt" viewBox="0 0 1152 321.132901" xmlns="http://www.w3.org/2000/svg" version="1.1">
 <metadata>
  <rdf:RDF xmlns:dc="http://purl.org/dc/elements/1.1/" xmlns:cc="http://creativecommons.org/ns#" xmlns:rdf="http://www.w3.org/1999/02/22-rdf-syntax-ns#">
   <cc:Work>
    <dc:type rdf:resource="http://purl.org/dc/dcmitype/StillImage"/>
    <dc:date>2026-01-07T02:07:17.473817</dc:date>
    <dc:format>image/svg+xml</dc:format>
    <dc:creator>
     <cc:Agent>
      <dc:title>Matplotlib v3.10.1, https://matplotlib.org/</dc:title>
     </cc:Agent>
    </dc:creator>
   </cc:Work>
  </rdf:RDF>
 </metadata>
 <defs>
  <style type="text/css">*{stroke-linejoin: round; stroke-linecap: butt}</style>
 </defs>
 <g id="figure_1">
  <g id="patch_1">
   <path d="M 0 321.132901 
L 1152 321.132901 
L 1152 0 
L 0 0 
z
" style="fill: #ffffff"/>
  </g>
  <g id="axes_1">
   <g id="patch_2">
    <path d="M 0 321.132901 
L 1152 321.132901 
L 1152 0 
L 0 0 
z
" style="fill: #212830"/>
   </g>
   <g id="patch_3">
    <path d="M 1099.636364 40.953151 
L 1080.408818 38.284328 
L 1059.464398 35.554031 
L 1038.482549 32.992304 
L 1017.467417 30.594442 
L 996.428561 28.361084 
L 975.368421 26.295088 
L 954.28427 24.396053 
L 933.181701 22.659755 
L 912.07551 21.086315 
L 890.97505 19.6803 
L 869.88034 18.444438 
L 848.79522 17.376041 
L 827.733456 16.475552 
L 806.705686 15.74719 
L 785.711625 15.195791 
L 764.75261 14.819757 
L 743.84146 14.618588 
L 722.989338 14.59695 
L 702.198026 14.760039 
L 681.468075 15.107686 
L 660.81259 15.638944 
L 640.245266 16.358187 
L 619.768269 17.271733 
L 599.384887 18.379583 
L 579.109693 19.680598 
L 558.958944 21.179726 
L 538.93597 22.883649 
L 519.047551 24.791047 
L 499.313883 26.901034 
L 479.750591 29.220088 
L 460.363445 31.752768 
L 441.167039 34.49575 
L 422.18581 37.449519 
L 403.435416 40.618956 
L 384.929345 44.000543 
L 366.706141 47.5804 
L 348.81198 51.356381 
L 331.274765 55.330832 
L 314.125593 59.489447 
L 297.420479 63.811843 
L 281.209335 68.290933 
L 265.526815 72.912945 
L 250.42077 77.644407 
L 235.949886 82.455601 
L 222.153646 87.328208 
L 209.058053 92.230063 
L 196.693437 97.120292 
L 185.080113 101.972376 
L 174.214311 106.767464 
L 164.080894 111.478278 
L 154.66301 116.080297 
L 145.934498 120.564922 
L 137.856081 124.931976 
L 130.38234 129.177087 
L 123.471572 133.293022 
L 117.085724 137.280827 
L 111.185318 141.149506 
L 105.730866 144.908161 
L 100.684559 148.562647 
L 96.015573 152.114995 
L 91.698679 155.572013 
L 87.710441 158.946111 
L 84.022115 162.254106 
L 80.602075 165.501798 
L 74.450244 171.796632 
L 69.119222 177.74862 
L 66.764018 180.593973 
L 64.62242 183.372656 
L 62.692373 186.107857 
L 60.9615 188.822137 
L 59.41277 191.521501 
L 58.027759 194.202255 
L 56.794163 196.847418 
L 55.706781 199.443821 
L 54.767557 201.98016 
L 53.981806 204.455378 
L 53.35368 206.877237 
L 52.883462 209.253915 
L 52.566977 211.592015 
L 52.387675 214.104258 
L 52.363636 216.194703 
L 52.477594 218.508368 
L 52.752142 220.81099 
L 53.207213 223.092312 
L 53.868234 225.354971 
L 54.757509 227.605417 
L 55.884102 229.8441 
L 57.241552 232.063656 
L 58.814404 234.250432 
L 60.592057 236.391455 
L 62.57343 238.476568 
L 64.768263 240.50149 
L 67.186456 242.46633 
L 69.834265 244.375695 
L 72.708824 246.235485 
L 75.807652 248.052129 
L 79.128311 249.828812 
L 82.680655 251.5668 
L 86.479253 253.266568 
L 90.547896 254.930219 
L 94.910131 256.564282 
L 99.589516 258.178746 
L 104.611865 259.784606 
L 115.803216 263.004696 
L 122.053318 264.626587 
L 128.80895 266.259743 
L 136.128524 267.909147 
L 144.076118 269.579619 
L 152.71971 271.27306 
L 162.135857 272.986372 
L 172.406951 274.714331 
L 183.612164 276.454612 
L 195.817776 278.203257 
L 209.073973 279.947057 
L 223.413841 281.667046 
L 238.844086 283.348731 
L 255.32862 284.979982 
L 272.799259 286.53961 
L 291.177646 288.009758 
L 310.366063 289.385304 
L 330.250713 290.658879 
L 350.739244 291.821762 
L 371.752992 292.878273 
L 393.211983 293.833336 
L 437.319584 295.448056 
L 462.278715 296.240117 
L 462.197429 298.905727 
L 505.378701 300.162603 
L 551.325495 301.153615 
L 668.561922 303.084077 
L 715.636011 303.622674 
L 905.965542 305.284839 
L 1000.817955 305.94509 
L 1099.636364 306.535951 
L 1099.636364 40.953151 
L 1099.636364 40.953151 
" clip-path="url(#p11e02c3b23)" style="fill: none; stroke: #ff0000; stroke-width: 0.72; stroke-linejoin: miter"/>
   </g>
   <g id="patch_4">
    <path d="M 639.338159 237.907309 
L 639.338159 251.241556 
L 652.672406 251.241556 
L 652.672406 237.907309 
L 652.672406 264.575803 
" clip-path="url(#p11e02c3b23)" style="fill: none; stroke: #ff0000; stroke-width: 0.72; stroke-linejoin: miter"/>
   </g>
   <g id="patch_5">
    <path d="M 672.673776 237.907309 
L 659.339529 237.907309 
L 659.339529 251.241556 
L 672.673776 251.241556 
L 672.673776 264.575803 
L 659.339529 264.575803 
" clip-path="url(#p11e02c3b23)" style="fill: none; stroke: #ff0000; stroke-width: 0.72; stroke-linejoin: miter"/>
   </g>
   <g id="patch_6">
    <path d="M 633.379047 27.342588 
L 622.722254 27.818121 
L 622.246721 17.161327 
L 632.903514 16.685794 
L 633.379047 27.342588 
" clip-path="url(#p11e02c3b23)" style="fill: none; stroke: #ff0000; stroke-width: 0.72; stroke-linejoin: miter"/>
   </g>
   <g id="patch_7">
    <path d="M 276.68611 80.745371 
L 266.453963 83.761418 
L 263.437916 73.529271 
L 273.670062 70.513224 
L 276.68611 80.745371 
" clip-path="url(#p11e02c3b23)" style="fill: none; stroke: #ff0000; stroke-width: 0.72; stroke-linejoin: miter"/>
   </g>
   <g id="patch_8">
    <path d="M 97.039763 168.490168 
L 93.070269 172.052675 
L 84.164 162.128941 
L 88.133494 158.566433 
L 97.039763 168.490168 
" clip-path="url(#p11e02c3b23)" style="fill: none; stroke: #ff0000; stroke-width: 0.72; stroke-linejoin: miter"/>
   </g>
   <g id="patch_9">
    <path d="M 75.155053 231.772589 
L 79.48604 234.885608 
L 71.703492 245.713077 
L 67.372504 242.600058 
L 75.155053 231.772589 
" clip-path="url(#p11e02c3b23)" style="fill: none; stroke: #ff0000; stroke-width: 0.72; stroke-linejoin: miter"/>
   </g>
   <g id="patch_10">
    <path d="M 352.998489 281.254473 
L 363.652431 281.79009 
L 363.116815 292.444032 
L 352.462873 291.908416 
L 352.998489 281.254473 
" clip-path="url(#p11e02c3b23)" style="fill: none; stroke: #ff0000; stroke-width: 0.72; stroke-linejoin: miter"/>
   </g>
   <g id="patch_11">
    <path d="M 956.733993 159.962574 
L 956.638474 155.137281 
L 956.352087 150.32051 
L 955.875338 145.520768 
L 955.209067 140.746532 
L 954.354453 136.006233 
L 953.313004 131.308242 
L 952.08656 126.660858 
L 950.677287 122.072288 
L 949.087673 117.550636 
L 947.320526 113.103887 
L 945.378967 108.739895 
L 943.266425 104.466367 
L 940.98663 100.29085 
L 938.54361 96.220719 
L 935.941679 92.263163 
L 933.185432 88.425169 
L 930.279736 84.713517 
L 927.229725 81.134762 
L 924.040783 77.695224 
L 920.718543 74.400978 
L 917.268873 71.257842 
L 913.697865 68.271366 
L 910.011825 65.446826 
L 906.217264 62.789209 
L 902.320884 60.303209 
L 898.329564 57.993217 
L 894.250355 55.863312 
L 890.090461 53.917256 
L 885.857228 52.158486 
L 881.558134 50.590108 
L 877.200769 49.214891 
L 872.792831 48.035266 
L 868.342103 47.053314 
L 863.856446 46.270771 
L 859.343783 45.689017 
L 854.812082 45.309082 
L 850.269348 45.131635 
L 845.723603 45.15699 
L 841.182876 45.385103 
L 836.655186 45.815569 
L 832.148528 46.44763 
L 827.670863 47.280169 
L 823.230099 48.311716 
L 818.834077 49.540448 
L 814.490562 50.964196 
L 810.207226 52.580445 
L 805.991631 54.38634 
L 801.851225 56.378694 
L 797.793319 58.553986 
L 793.82508 60.908374 
L 789.953516 63.437702 
L 786.185464 66.137502 
L 782.52758 69.003005 
L 778.986323 72.029151 
L 775.567948 75.210596 
L 772.278492 78.541721 
L 769.123764 82.016642 
L 766.109336 85.629223 
L 763.240532 89.373084 
L 760.522418 93.241612 
L 757.959794 97.227976 
L 755.557187 101.325135 
L 753.31884 105.525852 
L 751.248705 109.822711 
L 749.35044 114.20812 
L 747.627396 118.674337 
L 746.082616 123.213472 
L 744.718829 127.81751 
L 743.538443 132.478318 
L 742.543544 137.187667 
L 741.735887 141.937238 
L 741.1169 146.718643 
L 740.687675 151.523439 
L 740.448971 156.343138 
L 740.401209 161.16923 
L 740.544473 165.993191 
L 740.878512 170.806502 
L 741.402733 175.600661 
L 742.116213 180.367201 
L 743.01769 185.097705 
L 744.105573 189.783818 
L 745.377941 194.417265 
L 746.832545 198.989861 
L 748.466818 203.493531 
L 750.277872 207.920321 
L 752.262511 212.262414 
L 754.417227 216.51214 
L 756.738217 220.661995 
L 759.22138 224.704648 
L 761.862332 228.632962 
L 764.656408 232.439997 
L 767.598674 236.11903 
L 770.683933 239.663564 
L 773.906736 243.067338 
L 777.261393 246.324342 
L 780.741977 249.428823 
L 784.342342 252.375299 
L 788.05613 255.158564 
L 791.876782 257.773705 
L 795.797549 260.216103 
L 799.811508 262.481443 
L 803.91157 264.565726 
L 808.090492 266.46527 
L 812.340896 268.17672 
L 816.655275 269.697054 
L 821.026008 271.023587 
L 825.445377 272.153976 
L 829.905576 273.086225 
L 834.398729 273.818686 
L 838.916901 274.350067 
L 843.452111 274.67943 
L 847.99635 274.806192 
L 852.541593 274.730129 
L 857.079812 274.451376 
L 861.602993 273.970426 
L 866.103147 273.288127 
L 870.572326 272.405684 
L 875.002637 271.324657 
L 879.386256 270.046954 
L 883.715442 268.574832 
L 887.982548 266.91089 
L 892.180038 265.058068 
L 896.300499 263.019638 
L 900.336654 260.799199 
L 904.281375 258.400673 
L 908.127696 255.828297 
L 911.868822 253.086613 
L 915.498147 250.180463 
L 919.009261 247.11498 
L 922.395964 243.895578 
L 925.652274 240.527943 
L 928.772439 237.018021 
L 931.750951 233.372013 
L 934.582547 229.596357 
L 937.262228 225.697721 
L 939.785261 221.68299 
L 942.147189 217.559256 
L 944.343842 213.333801 
L 946.371341 209.014087 
L 948.226103 204.607744 
L 949.904854 200.122553 
L 951.404629 195.566436 
L 952.722779 190.947439 
L 953.856976 186.27372 
L 954.805217 181.553533 
L 955.565827 176.795215 
L 956.137463 172.007168 
L 956.519116 167.19785 
L 956.710111 162.375753 
L 956.733993 159.962574 
L 956.733993 159.962574 
" clip-path="url(#p11e02c3b23)" style="fill: none; stroke: #ff0000; stroke-width: 0.72; stroke-linejoin: miter"/>
   </g>
   <g id="patch_12">
    <path d="M 398.946048 146.628327 
L 412.280295 159.962574 
L 398.946048 173.296821 
L 385.611801 159.962574 
L 398.946048 146.628327 
" clip-path="url(#p11e02c3b23)" style="fill: none; stroke: #ff0000; stroke-width: 0.72; stroke-linejoin: miter"/>
   </g>
   <g id="patch_13">
    <path d="M 841.49767 146.628327 
L 854.831917 159.962574 
L 841.49767 173.296821 
L 828.163423 159.962574 
L 841.49767 146.628327 
" clip-path="url(#p11e02c3b23)" style="fill: none; stroke: #ff0000; stroke-width: 0.72; stroke-linejoin: miter"/>
   </g>
   <g id="patch_14">
    <path d="M 480.147459 226.230871 
L 492.598367 240.393469 
L 478.43577 252.844377 
L 465.984862 238.681779 
L 480.147459 226.230871 
" clip-path="url(#p11e02c3b23)" style="fill: none; stroke: #ff0000; stroke-width: 0.72; stroke-linejoin: miter"/>
   </g>
   <g id="patch_15">
    <path d="M 991.974198 259.149817 
L 1004.425106 273.312415 
L 990.262508 285.763323 
L 977.8116 271.600725 
L 991.974198 259.149817 
" clip-path="url(#p11e02c3b23)" style="fill: none; stroke: #ff0000; stroke-width: 0.72; stroke-linejoin: miter"/>
   </g>
   <g id="patch_16">
    <path d="M 435.20296 198.778142 
L 448.537207 185.443895 
L 461.871454 198.778142 
L 448.537207 212.112389 
L 435.20296 198.778142 
" clip-path="url(#p11e02c3b23)" style="fill: none; stroke: #ff0000; stroke-width: 0.72; stroke-linejoin: miter"/>
   </g>
   <g id="patch_17">
    <path d="M 435.20296 130.469989 
L 448.537207 117.135743 
L 461.871454 130.469989 
L 448.537207 143.804236 
L 435.20296 130.469989 
" clip-path="url(#p11e02c3b23)" style="fill: none; stroke: #ff0000; stroke-width: 0.72; stroke-linejoin: miter"/>
   </g>
   <g id="line2d_1">
    <path d="M 86.577112 159.962574 
L 1099.636364 159.962574 
" clip-path="url(#p11e02c3b23)" style="fill: none; stroke: #ffffff; stroke-width: 0.72; stroke-linecap: square"/>
   </g>
   <g id="line2d_2">
    <path d="M 382.944951 159.962574 
L 414.947144 159.962574 
" clip-path="url(#p11e02c3b23)" style="fill: none; stroke: #ffffff; stroke-width: 0.72; stroke-linecap: square"/>
   </g>
   <g id="line2d_3">
    <path d="M 825.496574 159.962574 
L 857.498766 159.962574 
" clip-path="url(#p11e02c3b23)" style="fill: none; stroke: #ffffff; stroke-width: 0.72; stroke-linecap: square"/>
   </g>
   <g id="line2d_4">
    <path d="M 52.531445 212.089869 
L 1099.636364 279.436078 
" clip-path="url(#p11e02c3b23)" style="fill: none; stroke: #ffffff; stroke-width: 0.72; stroke-linecap: square"/>
   </g>
   <g id="line2d_5">
    <path d="M 463.323511 238.51061 
L 495.259718 240.564638 
" clip-path="url(#p11e02c3b23)" style="fill: none; stroke: #ffffff; stroke-width: 0.72; stroke-linecap: square"/>
   </g>
   <g id="line2d_6">
    <path d="M 975.150249 271.429556 
L 1007.086456 273.483584 
" clip-path="url(#p11e02c3b23)" style="fill: none; stroke: #ffffff; stroke-width: 0.72; stroke-linecap: square"/>
   </g>
   <g id="line2d_7">
    <path d="M 848.564615 45.117372 
L 848.564615 42.450523 
" clip-path="url(#p11e02c3b23)" style="fill: none; stroke: #ff0000; stroke-width: 0.72; stroke-linecap: square"/>
   </g>
   <g id="line2d_8">
    <path d="M 848.564615 274.807776 
L 848.564615 277.474626 
" clip-path="url(#p11e02c3b23)" style="fill: none; stroke: #ff0000; stroke-width: 0.72; stroke-linecap: square"/>
   </g>
   <g id="line2d_9">
    <path d="M 956.733993 159.962574 
L 959.400842 159.962574 
" clip-path="url(#p11e02c3b23)" style="fill: none; stroke: #ff0000; stroke-width: 0.72; stroke-linecap: square"/>
   </g>
   <g id="line2d_10">
    <path d="M 740.395238 159.962574 
L 737.728389 159.962574 
" clip-path="url(#p11e02c3b23)" style="fill: none; stroke: #ff0000; stroke-width: 0.72; stroke-linecap: square"/>
   </g>
   <g id="line2d_11">
    <path d="M 448.537207 295.805508 
L 448.537207 33.442624 
" clip-path="url(#p11e02c3b23)" style="fill: none; stroke: #ffffff; stroke-width: 0.72; stroke-linecap: square"/>
   </g>
   <g id="line2d_12">
    <path d="M 448.537207 214.779239 
L 448.537207 182.777046 
" clip-path="url(#p11e02c3b23)" style="fill: none; stroke: #ffffff; stroke-width: 0.72; stroke-linecap: square"/>
   </g>
   <g id="line2d_13">
    <path d="M 448.537207 146.471086 
L 448.537207 114.468893 
" clip-path="url(#p11e02c3b23)" style="fill: none; stroke: #ffffff; stroke-width: 0.72; stroke-linecap: square"/>
   </g>
  </g>
 </g>
 <defs>
  <clipPath id="p11e02c3b23">
   <rect x="0" y="0" width="1152" height="321.132901"/>
  </clipPath>
 </defs>
</svg>
