<?xml version="1.0" encoding="utf-8" standalone="no"?>
<!DOCTYPE svg PUBLIC "-//W3C//DTD SVG 1.1//EN"
  "http://www.w3.org/Graphics/SVG/1.1/DTD/svg11.dtd">
<svg xmlns:xlink="http://www.w3.org/1999/xlink" width="1152pt" height="345.230039pt" viewBox="0 0 1152 345.230039" xmlns="http://www.w3.org/2000/svg" version="1.1">
 <metadata>
  <rdf:RDF xmlns:dc="http://purl.org/dc/elements/1.1/" xmlns:cc="http://creativecommons.org/ns#" xmlns:rdf="http://www.w3.org/1999/02/22-rdf-syntax-ns#">
   <cc:Work>
    <dc:type rdf:resource="http://purl.org/dc/dcmitype/StillImage"/>
    <dc:date>2026-01-07T02:07:07.862623</dc:date>
    <dc:format>image/svg+xml</dc:format>
    <dc:creator>
     <cc:Agent>
      <dc:title>Matplotlib v3.10.1, https://matplotlib.org/</dc:title>
     </cc:Agent>
    </dc:creator>
   </cc:Work>
  </rdf:RDF>
 </metadata>
 <defs>
  <style type="text/css">*{stroke-linejoin: round; stroke-linecap: butt}</style>
 </defs>
 <g id="figure_1">
  <g id="patch_1">
   <path d="M 0 345.230039 
L 1152 345.230039 
L 1152 0 
L 0 0 
z
" style="fill: #ffffff"/>
  </g>
  <g id="axes_1">
   <g id="patch_2">
    <path d="M 0 345.230039 
L 1152 345.230039 
L 1152 0 
L 0 0 
z
" style="fill: #212830"/>
   </g>
   <g id="patch_3">
    <path d="M 1099.214839 327.514692 
L 1098.322489 327.189107 
L 1096.329973 326.462196 
L 1093.522533 325.442131 
L 1089.929211 324.146521 
L 1085.565595 322.58654 
L 1080.453561 320.766639 
L 1074.617699 318.694051 
L 1068.085063 316.375645 
L 1060.883934 313.822256 
L 1053.035996 311.051628 
L 1044.549942 308.079191 
L 1035.427019 304.912 
L 1025.672978 301.546869 
L 1015.300643 297.979679 
L 1004.327749 294.209523 
L 992.773499 290.239124 
L 980.655459 286.073032 
L 967.988527 281.716012 
L 954.787581 277.171237 
L 941.069037 272.441302 
L 926.849503 267.531935 
L 912.142817 262.449409 
L 896.96255 257.197199 
L 881.326016 251.779642 
L 865.250446 246.203778 
L 848.74982 240.477833 
L 831.837388 234.606728 
L 814.530723 228.595309 
L 796.846811 222.451756 
L 778.79932 216.184239 
L 760.404647 209.796227 
L 741.685254 203.29655 
L 722.657993 196.701833 
L 703.326533 190.023436 
L 683.701072 183.255565 
L 663.813754 176.395311 
L 643.700072 169.462472 
L 623.373238 162.483908 
L 602.839659 155.46817 
L 582.127383 148.418282 
L 581.677318 148.265984 
L 581.054849 150.105483 
L 560.655881 143.202655 
L 539.675003 136.181348 
L 518.552271 129.213287 
L 497.297008 122.301946 
L 475.935053 115.46682 
L 454.467937 108.743086 
L 432.87495 102.14387 
L 411.156713 95.659583 
L 389.342244 89.294695 
L 367.443844 83.076401 
L 345.446567 77.018717 
L 323.355603 71.110432 
L 301.211298 65.35793 
L 279.035835 59.807777 
L 256.79336 54.501656 
L 234.432775 49.429655 
L 211.948325 44.54938 
L 189.378343 39.836647 
L 166.759509 35.299983 
L 144.110147 30.958629 
L 121.43834 26.829469 
L 98.741898 22.929098 
L 76.00582 19.26249 
L 53.221547 15.81447 
L 52.363636 15.692274 
L 52.363636 295.744505 
L 76.33064 295.836264 
L 103.716226 295.915412 
L 131.123227 296.013097 
L 158.500681 296.151629 
L 185.804778 296.311988 
L 213.027721 296.471621 
L 240.169129 296.638662 
L 267.197842 296.830795 
L 294.070752 297.035171 
L 320.775492 297.217973 
L 347.333258 297.367101 
L 373.75622 297.50655 
L 400.024477 297.667598 
L 426.113394 297.862192 
L 452.008182 298.093727 
L 477.692128 298.376418 
L 503.130784 298.730846 
L 528.283356 299.164613 
L 553.122367 299.673922 
L 577.624688 300.252041 
L 601.758943 300.893494 
L 625.501622 301.587512 
L 648.834962 302.321771 
L 671.745833 303.091459 
L 694.225587 303.895545 
L 716.260029 304.728735 
L 737.830431 305.583401 
L 758.920246 306.460287 
L 779.514928 307.365547 
L 799.603865 308.299761 
L 819.176671 309.255031 
L 838.217903 310.225945 
L 856.703905 311.213196 
L 874.611766 312.217334 
L 891.933037 313.235078 
L 908.664322 314.262367 
L 924.792067 315.292924 
L 940.293709 316.316542 
L 955.153863 317.327374 
L 969.368416 318.331509 
L 982.93154 319.339472 
L 995.82793 320.348335 
L 1008.035568 321.340344 
L 1019.531672 322.297692 
L 1030.303613 323.211254 
L 1040.349347 324.07425 
L 1049.670286 324.880312 
L 1058.26155 325.629186 
L 1066.108079 326.324471 
L 1073.188919 326.966808 
L 1079.487708 327.553054 
L 1084.993541 328.07666 
L 1089.689471 328.530305 
L 1093.552876 328.908554 
L 1096.561139 329.209845 
L 1098.690104 329.432456 
L 1099.636364 329.537764 
L 1099.214839 327.514692 
" clip-path="url(#p0c7b93ede5)" style="fill: none; stroke: #ff0000; stroke-width: 0.72; stroke-linejoin: miter"/>
   </g>
   <g id="patch_4">
    <path d="M 493.017046 228.186998 
L 493.017046 247.606634 
" clip-path="url(#p0c7b93ede5)" style="fill: none; stroke: #ff0000; stroke-width: 0.72; stroke-linejoin: miter"/>
   </g>
   <g id="patch_5">
    <path d="M 512.436682 228.186998 
L 508.552755 228.186998 
" clip-path="url(#p0c7b93ede5)" style="fill: none; stroke: #ff0000; stroke-width: 0.72; stroke-linejoin: miter"/>
   </g>
   <g id="patch_6">
    <path d="M 506.610791 228.186998 
L 502.726864 228.186998 
L 502.726864 247.606634 
L 506.610791 247.606634 
" clip-path="url(#p0c7b93ede5)" style="fill: none; stroke: #ff0000; stroke-width: 0.72; stroke-linejoin: miter"/>
   </g>
   <g id="patch_7">
    <path d="M 508.552755 247.606634 
L 512.436682 247.606634 
L 512.436682 237.896816 
L 508.552755 237.896816 
" clip-path="url(#p0c7b93ede5)" style="fill: none; stroke: #ff0000; stroke-width: 0.72; stroke-linejoin: miter"/>
   </g>
   <g id="patch_8">
    <path d="M 506.610791 237.896816 
L 502.726864 237.896816 
" clip-path="url(#p0c7b93ede5)" style="fill: none; stroke: #ff0000; stroke-width: 0.72; stroke-linejoin: miter"/>
   </g>
   <g id="patch_9">
    <path d="M 375.274122 93.374908 
L 367.801685 91.253059 
L 369.923534 83.780622 
L 377.395971 85.902471 
L 375.274122 93.374908 
" clip-path="url(#p0c7b93ede5)" style="fill: none; stroke: #ff0000; stroke-width: 0.72; stroke-linejoin: miter"/>
   </g>
   <g id="patch_10">
    <path d="M 242.645197 132.231372 
L 252.355015 141.94119 
L 242.645197 151.651008 
L 232.935379 141.94119 
L 242.645197 132.231372 
" clip-path="url(#p0c7b93ede5)" style="fill: none; stroke: #ff0000; stroke-width: 0.72; stroke-linejoin: miter"/>
   </g>
   <g id="patch_11">
    <path d="M 371.64583 220.082097 
L 381.355648 210.372279 
L 391.065466 220.082097 
L 381.355648 229.791915 
L 371.64583 220.082097 
" clip-path="url(#p0c7b93ede5)" style="fill: none; stroke: #ff0000; stroke-width: 0.72; stroke-linejoin: miter"/>
   </g>
   <g id="patch_12">
    <path d="M 371.64583 164.497857 
L 381.355648 154.788039 
L 391.065466 164.497857 
L 381.355648 174.207675 
L 371.64583 164.497857 
" clip-path="url(#p0c7b93ede5)" style="fill: none; stroke: #ff0000; stroke-width: 0.72; stroke-linejoin: miter"/>
   </g>
   <g id="line2d_1">
    <path d="M 1063.106415 314.610307 
L 1062.458395 316.440961 
" clip-path="url(#p0c7b93ede5)" style="fill: none; stroke: #ff0000; stroke-width: 0.72; stroke-linecap: square"/>
   </g>
   <g id="line2d_2">
    <path d="M 1061.003393 323.924494 
L 1060.918085 325.864583 
" clip-path="url(#p0c7b93ede5)" style="fill: none; stroke: #ff0000; stroke-width: 0.72; stroke-linecap: square"/>
   </g>
   <g id="line2d_3">
    <path d="M 1026.436743 301.810367 
L 1025.792734 303.642435 
" clip-path="url(#p0c7b93ede5)" style="fill: none; stroke: #ff0000; stroke-width: 0.72; stroke-linecap: square"/>
   </g>
   <g id="line2d_4">
    <path d="M 1022.331242 320.586561 
L 1022.205085 322.524422 
" clip-path="url(#p0c7b93ede5)" style="fill: none; stroke: #ff0000; stroke-width: 0.72; stroke-linecap: square"/>
   </g>
   <g id="line2d_5">
    <path d="M 879.564271 251.168575 
L 878.927586 253.003202 
" clip-path="url(#p0c7b93ede5)" style="fill: none; stroke: #ff0000; stroke-width: 0.72; stroke-linecap: square"/>
   </g>
   <g id="line2d_6">
    <path d="M 867.349344 309.865231 
L 867.217944 311.802744 
" clip-path="url(#p0c7b93ede5)" style="fill: none; stroke: #ff0000; stroke-width: 0.72; stroke-linecap: square"/>
   </g>
   <g id="line2d_7">
    <path d="M 52.363636 141.94119 
L 556.886405 141.94119 
" clip-path="url(#p0c7b93ede5)" style="fill: none; stroke: #ffffff; stroke-width: 0.72; stroke-linecap: square"/>
   </g>
   <g id="line2d_8">
    <path d="M 230.993415 141.94119 
L 254.296978 141.94119 
" clip-path="url(#p0c7b93ede5)" style="fill: none; stroke: #ffffff; stroke-width: 0.72; stroke-linecap: square"/>
   </g>
   <g id="line2d_9">
    <path d="M 52.363636 259.516895 
L 1022.692161 322.565731 
" clip-path="url(#p0c7b93ede5)" style="fill: none; stroke: #ffffff; stroke-width: 0.72; stroke-linecap: square"/>
   </g>
   <g id="line2d_10">
    <path d="M 381.355648 297.553141 
L 381.355648 87.026813 
" clip-path="url(#p0c7b93ede5)" style="fill: none; stroke: #ffffff; stroke-width: 0.72; stroke-linecap: square"/>
   </g>
   <g id="line2d_11">
    <path d="M 381.355648 231.733879 
L 381.355648 208.430316 
" clip-path="url(#p0c7b93ede5)" style="fill: none; stroke: #ffffff; stroke-width: 0.72; stroke-linecap: square"/>
   </g>
   <g id="line2d_12">
    <path d="M 381.355648 176.149638 
L 381.355648 152.846075 
" clip-path="url(#p0c7b93ede5)" style="fill: none; stroke: #ffffff; stroke-width: 0.72; stroke-linecap: square"/>
   </g>
  </g>
 </g>
 <defs>
  <clipPath id="p0c7b93ede5">
   <rect x="0" y="0" width="1152" height="345.230039"/>
  </clipPath>
 </defs>
</svg>
