  0
SECTION
  2
HEADER
  9
$ACADVER
  1
AC1021
  9
$ACADMAINTVER
 70
25
  9
$DWGCODEPAGE
  3
ANSI_1252
  9
$LASTSAVEDBY
  1
ezdxf
  9
$INSBASE
 10
0.0
 20
0.0
 30
0.0
  9
$EXTMIN
 10
1e+20
 20
1e+20
 30
1e+20
  9
$EXTMAX
 10
-1e+20
 20
-1e+20
 30
-1e+20
  9
$LIMMIN
 10
0.0
 20
0.0
  9
$LIMMAX
 10
420.0
 20
297.0
  9
$ORTHOMODE
 70
0
  9
$REGENMODE
 70
1
  9
$FILLMODE
 70
1
  9
$QTEXTMODE
 70
0
  9
$MIRRTEXT
 70
1
  9
$LTSCALE
 40
1.0
  9
$ATTMODE
 70
1
  9
$TEXTSIZE
 40
2.5
  9
$TRACEWID
 40
1.0
  9
$TEXTSTYLE
  7
OpenSans
  9
$CLAYER
  8
0
  9
$CELTYPE
  6
ByLayer
  9
$CECOLOR
 62
256
  9
$CELTSCALE
 40
1.0
  9
$DISPSILH
 70
0
  9
$DIMSCALE
 40
1.0
  9
$DIMASZ
 40
0.175
  9
$DIMEXO
 40
0.125
  9
$DIMDLI
 40
3.75
  9
$DIMRND
 40
0.0
  9
$DIMDLE
 40
0.0
  9
$DIMEXE
 40
0.375
  9
$DIMTP
 40
0.0
  9
$DIMTM
 40
0.0
  9
$DIMTXT
 40
0.25
  9
$DIMCEN
 40
2.5
  9
$DIMTSZ
 40
0.0
  9
$DIMTOL
 70
0
  9
$DIMLIM
 70
0
  9
$DIMTIH
 70
0
  9
$DIMTOH
 70
0
  9
$DIMSE1
 70
0
  9
$DIMSE2
 70
0
  9
$DIMTAD
 70
1
  9
$DIMZIN
 70
12
  9
$DIMBLK
  1
ARCHTICK
  9
$DIMASO
 70
1
  9
$DIMSHO
 70
1
  9
$DIMPOST
  1

  9
$DIMAPOST
  1

  9
$DIMALT
 70
0
  9
$DIMALTD
 70
3
  9
$DIMALTF
 40
0.03937007874
  9
$DIMLFAC
 40
100.0
  9
$DIMTOFL
 70
1
  9
$DIMTVP
 40
0.0
  9
$DIMTIX
 70
0
  9
$DIMSOXD
 70
0
  9
$DIMSAH
 70
0
  9
$DIMBLK1
  1

  9
$DIMBLK2
  1

  9
$DIMSTYLE
  2
EZDXF
  9
$DIMCLRD
 70
0
  9
$DIMCLRE
 70
0
  9
$DIMCLRT
 70
0
  9
$DIMTFAC
 40
0.5
  9
$DIMGAP
 40
0.1
  9
$DIMJUST
 70
0
  9
$DIMSD1
 70
0
  9
$DIMSD2
 70
0
  9
$DIMTOLJ
 70
0
  9
$DIMTZIN
 70
8
  9
$DIMALTZ
 70
0
  9
$DIMALTTZ
 70
0
  9
$DIMUPT
 70
1
  9
$DIMDEC
 70
2
  9
$DIMTDEC
 70
2
  9
$DIMALTU
 70
2
  9
$DIMALTTD
 70
3
  9
$DIMTXSTY
  7
OpenSansCondensed-Light
  9
$DIMAUNIT
 70
0
  9
$DIMADEC
 70
2
  9
$DIMALTRND
 40
0.0
  9
$DIMAZIN
 70
3
  9
$DIMDSEP
 70
46
  9
$DIMATFIT
 70
3
  9
$DIMFRAC
 70
0
  9
$DIMLDRBLK
  1

  9
$DIMLUNIT
 70
2
  9
$DIMLWD
 70
-2
  9
$DIMLWE
 70
-2
  9
$DIMTMOVE
 70
2
  9
$DIMFXL
 40
1.0
  9
$DIMFXLON
 70
0
  9
$DIMJOGANG
 40
0.785398163397
  9
$DIMTFILL
 70
0
  9
$DIMTFILLCLR
 70
0
  9
$DIMARCSYM
 70
0
  9
$DIMLTYPE
  6

  9
$DIMLTEX1
  6

  9
$DIMLTEX2
  6

  9
$LUNITS
 70
2
  9
$LUPREC
 70
4
  9
$SKETCHINC
 40
1.0
  9
$FILLETRAD
 40
10.0
  9
$AUNITS
 70
0
  9
$AUPREC
 70
2
  9
$MENU
  1
.
  9
$ELEVATION
 40
0.0
  9
$PELEVATION
 40
0.0
  9
$THICKNESS
 40
0.0
  9
$LIMCHECK
 70
0
  9
$CHAMFERA
 40
0.0
  9
$CHAMFERB
 40
0.0
  9
$CHAMFERC
 40
0.0
  9
$CHAMFERD
 40
0.0
  9
$SKPOLY
 70
0
  9
$TDCREATE
 40
2461048.088402778
  9
$TDUCREATE
 40
2458532.153996898
  9
$TDUPDATE
 40
2461048.088402778
  9
$TDUUPDATE
 40
2458532.1544311
  9
$TDINDWG
 40
0.0
  9
$TDUSRTIMER
 40
0.0
  9
$USRTIMER
 70
1
  9
$ANGBASE
 50
0.0
  9
$ANGDIR
 70
0
  9
$PDMODE
 70
0
  9
$PDSIZE
 40
0.0
  9
$PLINEWID
 40
0.0
  9
$SPLFRAME
 70
0
  9
$SPLINETYPE
 70
6
  9
$SPLINESEGS
 70
8
  9
$HANDSEED
  5
B3
  9
$SURFTAB1
 70
6
  9
$SURFTAB2
 70
6
  9
$SURFTYPE
 70
6
  9
$SURFU
 70
6
  9
$SURFV
 70
6
  9
$UCSBASE
  2

  9
$UCSNAME
  2

  9
$UCSORG
 10
0.0
 20
0.0
 30
0.0
  9
$UCSXDIR
 10
1.0
 20
0.0
 30
0.0
  9
$UCSYDIR
 10
0.0
 20
1.0
 30
0.0
  9
$UCSORTHOREF
  2

  9
$UCSORTHOVIEW
 70
0
  9
$UCSORGTOP
 10
0.0
 20
0.0
 30
0.0
  9
$UCSORGBOTTOM
 10
0.0
 20
0.0
 30
0.0
  9
$UCSORGLEFT
 10
0.0
 20
0.0
 30
0.0
  9
$UCSORGRIGHT
 10
0.0
 20
0.0
 30
0.0
  9
$UCSORGFRONT
 10
0.0
 20
0.0
 30
0.0
  9
$UCSORGBACK
 10
0.0
 20
0.0
 30
0.0
  9
$PUCSBASE
  2

  9
$PUCSNAME
  2

  9
$PUCSORG
 10
0.0
 20
0.0
 30
0.0
  9
$PUCSXDIR
 10
1.0
 20
0.0
 30
0.0
  9
$PUCSYDIR
 10
0.0
 20
1.0
 30
0.0
  9
$PUCSORTHOREF
  2

  9
$PUCSORTHOVIEW
 70
0
  9
$PUCSORGTOP
 10
0.0
 20
0.0
 30
0.0
  9
$PUCSORGBOTTOM
 10
0.0
 20
0.0
 30
0.0
  9
$PUCSORGLEFT
 10
0.0
 20
0.0
 30
0.0
  9
$PUCSORGRIGHT
 10
0.0
 20
0.0
 30
0.0
  9
$PUCSORGFRONT
 10
0.0
 20
0.0
 30
0.0
  9
$PUCSORGBACK
 10
0.0
 20
0.0
 30
0.0
  9
$USERI1
 70
0
  9
$USERI2
 70
0
  9
$USERI3
 70
0
  9
$USERI4
 70
0
  9
$USERI5
 70
0
  9
$USERR1
 40
0.0
  9
$USERR2
 40
0.0
  9
$USERR3
 40
0.0
  9
$USERR4
 40
0.0
  9
$USERR5
 40
0.0
  9
$WORLDVIEW
 70
1
  9
$SHADEDGE
 70
3
  9
$SHADEDIF
 70
70
  9
$TILEMODE
 70
1
  9
$MAXACTVP
 70
64
  9
$PINSBASE
 10
0.0
 20
0.0
 30
0.0
  9
$PLIMCHECK
 70
0
  9
$PEXTMIN
 10
1e+20
 20
1e+20
 30
1e+20
  9
$PEXTMAX
 10
-1e+20
 20
-1e+20
 30
-1e+20
  9
$PLIMMIN
 10
0.0
 20
0.0
  9
$PLIMMAX
 10
420.0
 20
297.0
  9
$UNITMODE
 70
0
  9
$VISRETAIN
 70
1
  9
$PLINEGEN
 70
0
  9
$PSLTSCALE
 70
1
  9
$TREEDEPTH
 70
3020
  9
$CMLSTYLE
  2
Standard
  9
$CMLJUST
 70
0
  9
$CMLSCALE
 40
20.0
  9
$PROXYGRAPHICS
 70
1
  9
$MEASUREMENT
 70
1
  9
$CELWEIGHT
370
-1
  9
$ENDCAPS
280
0
  9
$JOINSTYLE
280
0
  9
$LWDISPLAY
290
0
  9
$INSUNITS
 70
6
  9
$HYPERLINKBASE
  1

  9
$STYLESHEET
  1

  9
$XEDIT
290
1
  9
$CEPSNTYPE
380
0
  9
$PSTYLEMODE
290
1
  9
$FINGERPRINTGUID
  2
{29A6423A-47D6-42B8-BEE4-F346517000D6}
  9
$VERSIONGUID
  2
{F7186946-36CD-4524-9D2D-E58AD51A580D}
  9
$EXTNAMES
290
1
  9
$PSVPSCALE
 40
0.0
  9
$OLESTARTUP
290
0
  9
$SORTENTS
280
127
  9
$INDEXCTL
280
0
  9
$HIDETEXT
280
1
  9
$XCLIPFRAME
290
1
  9
$HALOGAP
280
0
  9
$OBSCOLOR
 70
257
  9
$OBSLTYPE
280
0
  9
$INTERSECTIONDISPLAY
280
0
  9
$INTERSECTIONCOLOR
 70
257
  9
$DIMASSOC
280
2
  9
$PROJECTNAME
  1

  9
$CAMERADISPLAY
290
0
  9
$LENSLENGTH
 40
50.0
  9
$CAMERAHEIGHT
 40
0.0
  9
$STEPSPERSEC
 40
24.0
  9
$STEPSIZE
 40
100.0
  9
$3DDWFPREC
 40
2.0
  9
$PSOLWIDTH
 40
0.005
  9
$PSOLHEIGHT
 40
0.08
  9
$LOFTANG1
 40
1.570796326795
  9
$LOFTANG2
 40
1.570796326795
  9
$LOFTMAG1
 40
0.0
  9
$LOFTMAG2
 40
0.0
  9
$LOFTPARAM
 70
7
  9
$LOFTNORMALS
280
1
  9
$LATITUDE
 40
37.795
  9
$LONGITUDE
 40
-122.394
  9
$NORTHDIRECTION
 40
0.0
  9
$TIMEZONE
 70
-8000
  9
$LIGHTGLYPHDISPLAY
280
1
  9
$TILEMODELIGHTSYNCH
280
1
  9
$CMATERIAL
347
20
  9
$SOLIDHIST
280
0
  9
$SHOWHIST
280
1
  9
$DWFFRAME
280
2
  9
$DGNFRAME
280
2
  9
$REALWORLDSCALE
290
1
  9
$INTERFERECOLOR
 62
256
  9
$CSHADOW
280
0
  9
$SHADOWPLANELOCATION
 40
0.0
  0
ENDSEC
  0
SECTION
  2
CLASSES
  0
CLASS
  1
ACDBDICTIONARYWDFLT
  2
AcDbDictionaryWithDefault
  3
ObjectDBX Classes
 90
0
 91
0
280
0
281
0
  0
CLASS
  1
SUN
  2
AcDbSun
  3
SCENEOE
 90
1153
 91
0
280
0
281
0
  0
CLASS
  1
VISUALSTYLE
  2
AcDbVisualStyle
  3
ObjectDBX Classes
 90
4095
 91
0
280
0
281
0
  0
CLASS
  1
MATERIAL
  2
AcDbMaterial
  3
ObjectDBX Classes
 90
1153
 91
0
280
0
281
0
  0
CLASS
  1
SCALE
  2
AcDbScale
  3
ObjectDBX Classes
 90
1153
 91
0
280
0
281
0
  0
CLASS
  1
TABLESTYLE
  2
AcDbTableStyle
  3
ObjectDBX Classes
 90
4095
 91
0
280
0
281
0
  0
CLASS
  1
MLEADERSTYLE
  2
AcDbMLeaderStyle
  3
ACDB_MLEADERSTYLE_CLASS
 90
4095
 91
0
280
0
281
0
  0
CLASS
  1
DICTIONARYVAR
  2
AcDbDictionaryVar
  3
ObjectDBX Classes
 90
0
 91
0
280
0
281
0
  0
CLASS
  1
CELLSTYLEMAP
  2
AcDbCellStyleMap
  3
ObjectDBX Classes
 90
1152
 91
0
280
0
281
0
  0
CLASS
  1
MENTALRAYRENDERSETTINGS
  2
AcDbMentalRayRenderSettings
  3
SCENEOE
 90
1024
 91
0
280
0
281
0
  0
CLASS
  1
ACDBDETAILVIEWSTYLE
  2
AcDbDetailViewStyle
  3
ObjectDBX Classes
 90
1025
 91
0
280
0
281
0
  0
CLASS
  1
ACDBSECTIONVIEWSTYLE
  2
AcDbSectionViewStyle
  3
ObjectDBX Classes
 90
1025
 91
0
280
0
281
0
  0
CLASS
  1
RASTERVARIABLES
  2
AcDbRasterVariables
  3
ISM
 90
0
 91
0
280
0
281
0
  0
CLASS
  1
ACDBPLACEHOLDER
  2
AcDbPlaceHolder
  3
ObjectDBX Classes
 90
0
 91
0
280
0
281
0
  0
CLASS
  1
LAYOUT
  2
AcDbLayout
  3
ObjectDBX Classes
 90
0
 91
0
280
0
281
0
  0
ENDSEC
  0
SECTION
  2
TABLES
  0
TABLE
  2
VPORT
  5
8
330
0
100
AcDbSymbolTable
 70
1
  0
VPORT
  5
23
330
8
100
AcDbSymbolTableRecord
100
AcDbViewportTableRecord
  2
*Active
 70
0
 10
0.0
 20
0.0
 11
1.0
 21
1.0
 12
0.0
 22
0.0
 13
0.0
 23
0.0
 14
0.5
 24
0.5
 15
0.5
 25
0.5
 16
0.0
 26
0.0
 36
1.0
 17
0.0
 27
0.0
 37
0.0
 40
1000.0
 41
1.34
 42
50.0
 43
0.0
 44
0.0
 50
0.0
 51
0.0
 71
0
 72
1000
 73
1
 74
3
 75
0
 76
0
 77
0
 78
0
281
0
 65
0
146
0.0
  0
ENDTAB
  0
TABLE
  2
LTYPE
  5
2
330
0
100
AcDbSymbolTable
 70
21
  0
LTYPE
  5
24
330
2
100
AcDbSymbolTableRecord
100
AcDbLinetypeTableRecord
  2
ByBlock
 70
0
  3

 72
65
 73
0
 40
0.0
  0
LTYPE
  5
25
330
2
100
AcDbSymbolTableRecord
100
AcDbLinetypeTableRecord
  2
ByLayer
 70
0
  3

 72
65
 73
0
 40
0.0
  0
LTYPE
  5
26
330
2
100
AcDbSymbolTableRecord
100
AcDbLinetypeTableRecord
  2
Continuous
 70
0
  3

 72
65
 73
0
 40
0.0
  0
LTYPE
  5
2F
330
2
100
AcDbSymbolTableRecord
100
AcDbLinetypeTableRecord
  2
CENTER
 70
0
  3
Center ____ _ ____ _ ____ _ ____ _ ____ _ ____
 72
65
 73
4
 40
5.08
 49
3.175
 74
0
 49
-0.635
 74
0
 49
0.635
 74
0
 49
-0.635
 74
0
  0
LTYPE
  5
30
330
2
100
AcDbSymbolTableRecord
100
AcDbLinetypeTableRecord
  2
CENTERX2
 70
0
  3
Center (2x) ________  __  ________  __  ________
 72
65
 73
4
 40
8.89
 49
6.35
 74
0
 49
-0.635
 74
0
 49
1.27
 74
0
 49
-0.635
 74
0
  0
LTYPE
  5
31
330
2
100
AcDbSymbolTableRecord
100
AcDbLinetypeTableRecord
  2
CENTER2
 70
0
  3
Center (.5x) ____ _ ____ _ ____ _ ____ _ ____
 72
65
 73
4
 40
2.54
 49
1.587
 74
0
 49
-0.318
 74
0
 49
0.318
 74
0
 49
-0.318
 74
0
  0
LTYPE
  5
32
330
2
100
AcDbSymbolTableRecord
100
AcDbLinetypeTableRecord
  2
DASHED
 70
0
  3
Dashed __ __ __ __ __ __ __ __ __ __ __ __ __ _
 72
65
 73
2
 40
1.524
 49
1.27
 74
0
 49
-0.254
 74
0
  0
LTYPE
  5
33
330
2
100
AcDbSymbolTableRecord
100
AcDbLinetypeTableRecord
  2
DASHEDX2
 70
0
  3
Dashed (2x) ____  ____  ____  ____  ____  ____
 72
65
 73
2
 40
3.048
 49
2.54
 74
0
 49
-0.508
 74
0
  0
LTYPE
  5
34
330
2
100
AcDbSymbolTableRecord
100
AcDbLinetypeTableRecord
  2
DASHED2
 70
0
  3
Dashed (.5x) _ _ _ _ _ _ _ _ _ _ _ _ _ _
 72
65
 73
2
 40
0.762
 49
0.635
 74
0
 49
-0.127
 74
0
  0
LTYPE
  5
35
330
2
100
AcDbSymbolTableRecord
100
AcDbLinetypeTableRecord
  2
PHANTOM
 70
0
  3
Phantom ______  __  __  ______  __  __  ______
 72
65
 73
6
 40
6.35
 49
3.175
 74
0
 49
-0.635
 74
0
 49
0.635
 74
0
 49
-0.635
 74
0
 49
0.635
 74
0
 49
-0.635
 74
0
  0
LTYPE
  5
36
330
2
100
AcDbSymbolTableRecord
100
AcDbLinetypeTableRecord
  2
PHANTOMX2
 70
0
  3
Phantom (2x)____________    ____    ____    ____________
 72
65
 73
6
 40
10.795
 49
6.35
 74
0
 49
-0.635
 74
0
 49
1.27
 74
0
 49
-0.635
 74
0
 49
1.27
 74
0
 49
-0.635
 74
0
  0
LTYPE
  5
37
330
2
100
AcDbSymbolTableRecord
100
AcDbLinetypeTableRecord
  2
PHANTOM2
 70
0
  3
Phantom (.5x) ___ _ _ ___ _ _ ___ _ _ ___ _ _ ___
 72
65
 73
6
 40
3.175
 49
1.587
 74
0
 49
-0.318
 74
0
 49
0.318
 74
0
 49
-0.318
 74
0
 49
0.318
 74
0
 49
-0.318
 74
0
  0
LTYPE
  5
38
330
2
100
AcDbSymbolTableRecord
100
AcDbLinetypeTableRecord
  2
DASHDOT
 70
0
  3
Dash dot __ . __ . __ . __ . __ . __ . __ . __
 72
65
 73
4
 40
3.556
 49
2.54
 74
0
 49
-0.508
 74
0
 49
0.0
 74
0
 49
-0.508
 74
0
  0
LTYPE
  5
39
330
2
100
AcDbSymbolTableRecord
100
AcDbLinetypeTableRecord
  2
DASHDOTX2
 70
0
  3
Dash dot (2x) ____  .  ____  .  ____  .  ____
 72
65
 73
4
 40
6.096
 49
5.08
 74
0
 49
-0.508
 74
0
 49
0.0
 74
0
 49
-0.508
 74
0
  0
LTYPE
  5
3A
330
2
100
AcDbSymbolTableRecord
100
AcDbLinetypeTableRecord
  2
DASHDOT2
 70
0
  3
Dash dot (.5x) _ . _ . _ . _ . _ . _ . _ . _
 72
65
 73
4
 40
1.778
 49
1.27
 74
0
 49
-0.254
 74
0
 49
0.0
 74
0
 49
-0.254
 74
0
  0
LTYPE
  5
3B
330
2
100
AcDbSymbolTableRecord
100
AcDbLinetypeTableRecord
  2
DOT
 70
0
  3
Dot .  .  .  .  .  .  .  .  .  .  .  .  .  .  .  .
 72
65
 73
2
 40
0.508
 49
0.0
 74
0
 49
-0.508
 74
0
  0
LTYPE
  5
3C
330
2
100
AcDbSymbolTableRecord
100
AcDbLinetypeTableRecord
  2
DOTX2
 70
0
  3
Dot (2x) .    .    .    .    .    .    .    . 
 72
65
 73
2
 40
1.016
 49
0.0
 74
0
 49
-1.016
 74
0
  0
LTYPE
  5
3D
330
2
100
AcDbSymbolTableRecord
100
AcDbLinetypeTableRecord
  2
DOT2
 70
0
  3
Dot (.5) . . . . . . . . . . . . . . . . . . . 
 72
65
 73
2
 40
0.254
 49
0.0
 74
0
 49
-0.254
 74
0
  0
LTYPE
  5
3E
330
2
100
AcDbSymbolTableRecord
100
AcDbLinetypeTableRecord
  2
DIVIDE
 70
0
  3
Divide __ . . __ . . __ . . __ . . __ . . __
 72
65
 73
6
 40
4.064
 49
2.54
 74
0
 49
-0.508
 74
0
 49
0.0
 74
0
 49
-0.508
 74
0
 49
0.0
 74
0
 49
-0.508
 74
0
  0
LTYPE
  5
3F
330
2
100
AcDbSymbolTableRecord
100
AcDbLinetypeTableRecord
  2
DIVIDEX2
 70
0
  3
Divide (2x) ____  . .  ____  . .  ____  . .  ____
 72
65
 73
6
 40
6.604
 49
5.08
 74
0
 49
-0.508
 74
0
 49
0.0
 74
0
 49
-0.508
 74
0
 49
0.0
 74
0
 49
-0.508
 74
0
  0
LTYPE
  5
40
330
2
100
AcDbSymbolTableRecord
100
AcDbLinetypeTableRecord
  2
DIVIDE2
 70
0
  3
Divide(.5x) _ . _ . _ . _ . _ . _ . _ . _
 72
65
 73
6
 40
2.032
 49
1.27
 74
0
 49
-0.254
 74
0
 49
0.0
 74
0
 49
-0.254
 74
0
 49
0.0
 74
0
 49
-0.254
 74
0
  0
ENDTAB
  0
TABLE
  2
LAYER
  5
1
330
0
100
AcDbSymbolTable
 70
5
  0
LAYER
  5
27
330
1
100
AcDbSymbolTableRecord
100
AcDbLayerTableRecord
  2
0
 70
0
 62
7
  6
Continuous
370
-3
390
13
347
21
  0
LAYER
  5
28
330
1
100
AcDbSymbolTableRecord
100
AcDbLayerTableRecord
  2
Defpoints
 70
0
 62
7
  6
Continuous
290
0
370
-3
390
13
347
21
  0
LAYER
  5
8A
330
1
100
AcDbSymbolTableRecord
100
AcDbLayerTableRecord
  2
Layer
 70
0
 62
1
  6
Continuous
370
50
390
13
347
21
  0
LAYER
  5
8B
330
1
100
AcDbSymbolTableRecord
100
AcDbLayerTableRecord
  2
NumLabel
 70
0
 62
1
  6
Continuous
370
15
390
13
347
21
  0
LAYER
  5
B1
330
1
100
AcDbSymbolTableRecord
100
AcDbLayerTableRecord
  2
SplitMark
 70
0
 62
3
  6
Continuous
370
-3
390
13
347
21
  0
ENDTAB
  0
TABLE
  2
STYLE
  5
5
330
0
100
AcDbSymbolTable
 70
26
  0
STYLE
  5
29
330
5
100
AcDbSymbolTableRecord
100
AcDbTextStyleTableRecord
  2
Standard
 70
0
 40
0.0
 41
1.0
 50
0.0
 71
0
 42
2.5
  3
txt
  4

  0
STYLE
  5
41
330
5
100
AcDbSymbolTableRecord
100
AcDbTextStyleTableRecord
  2
OpenSans-Light
 70
0
 40
0.0
 41
1.0
 50
0.0
 71
0
 42
2.5
  3
OpenSans-Light.ttf
  4

  0
STYLE
  5
42
330
5
100
AcDbSymbolTableRecord
100
AcDbTextStyleTableRecord
  2
OpenSans-Light-Italic
 70
0
 40
0.0
 41
1.0
 50
0.0
 71
0
 42
2.5
  3
OpenSans-LightItalic.ttf
  4

  0
STYLE
  5
43
330
5
100
AcDbSymbolTableRecord
100
AcDbTextStyleTableRecord
  2
OpenSans
 70
0
 40
0.0
 41
1.0
 50
0.0
 71
0
 42
2.5
  3
OpenSans-Regular.ttf
  4

  0
STYLE
  5
44
330
5
100
AcDbSymbolTableRecord
100
AcDbTextStyleTableRecord
  2
OpenSans-Italic
 70
0
 40
0.0
 41
1.0
 50
0.0
 71
0
 42
2.5
  3
OpenSans-Italic.ttf
  4

  0
STYLE
  5
45
330
5
100
AcDbSymbolTableRecord
100
AcDbTextStyleTableRecord
  2
OpenSans-SemiBold
 70
0
 40
0.0
 41
1.0
 50
0.0
 71
0
 42
2.5
  3
OpenSans-SemiBold.ttf
  4

  0
STYLE
  5
46
330
5
100
AcDbSymbolTableRecord
100
AcDbTextStyleTableRecord
  2
OpenSans-SemiBoldItalic
 70
0
 40
0.0
 41
1.0
 50
0.0
 71
0
 42
2.5
  3
OpenSans-SemiBoldItalic.ttf
  4

  0
STYLE
  5
47
330
5
100
AcDbSymbolTableRecord
100
AcDbTextStyleTableRecord
  2
OpenSans-Bold
 70
0
 40
0.0
 41
1.0
 50
0.0
 71
0
 42
2.5
  3
OpenSans-Bold.ttf
  4

  0
STYLE
  5
48
330
5
100
AcDbSymbolTableRecord
100
AcDbTextStyleTableRecord
  2
OpenSans-BoldItalic
 70
0
 40
0.0
 41
1.0
 50
0.0
 71
0
 42
2.5
  3
OpenSans-BoldItalic.ttf
  4

  0
STYLE
  5
49
330
5
100
AcDbSymbolTableRecord
100
AcDbTextStyleTableRecord
  2
OpenSans-ExtraBold
 70
0
 40
0.0
 41
1.0
 50
0.0
 71
0
 42
2.5
  3
OpenSans-ExtraBold.ttf
  4

  0
STYLE
  5
4A
330
5
100
AcDbSymbolTableRecord
100
AcDbTextStyleTableRecord
  2
OpenSans-ExtraBoldItalic
 70
0
 40
0.0
 41
1.0
 50
0.0
 71
0
 42
2.5
  3
OpenSans-ExtraBoldItalic.ttf
  4

  0
STYLE
  5
4B
330
5
100
AcDbSymbolTableRecord
100
AcDbTextStyleTableRecord
  2
OpenSansCondensed-Bold
 70
0
 40
0.0
 41
1.0
 50
0.0
 71
0
 42
2.5
  3
OpenSansCondensed-Bold.ttf
  4

  0
STYLE
  5
4C
330
5
100
AcDbSymbolTableRecord
100
AcDbTextStyleTableRecord
  2
OpenSansCondensed-Light
 70
0
 40
0.0
 41
1.0
 50
0.0
 71
0
 42
2.5
  3
OpenSansCondensed-Light.ttf
  4

  0
STYLE
  5
4D
330
5
100
AcDbSymbolTableRecord
100
AcDbTextStyleTableRecord
  2
OpenSansCondensed-Italic
 70
0
 40
0.0
 41
1.0
 50
0.0
 71
0
 42
2.5
  3
OpenSansCondensed-LightItalic.ttf
  4

  0
STYLE
  5
4E
330
5
100
AcDbSymbolTableRecord
100
AcDbTextStyleTableRecord
  2
LiberationSans
 70
0
 40
0.0
 41
1.0
 50
0.0
 71
0
 42
2.5
  3
LiberationSans-Regular.ttf
  4

  0
STYLE
  5
4F
330
5
100
AcDbSymbolTableRecord
100
AcDbTextStyleTableRecord
  2
LiberationSans-Bold
 70
0
 40
0.0
 41
1.0
 50
0.0
 71
0
 42
2.5
  3
LiberationSans-Bold.ttf
  4

  0
STYLE
  5
50
330
5
100
AcDbSymbolTableRecord
100
AcDbTextStyleTableRecord
  2
LiberationSans-BoldItalic
 70
0
 40
0.0
 41
1.0
 50
0.0
 71
0
 42
2.5
  3
LiberationSans-BoldItalic.ttf
  4

  0
STYLE
  5
51
330
5
100
AcDbSymbolTableRecord
100
AcDbTextStyleTableRecord
  2
LiberationSans-Italic
 70
0
 40
0.0
 41
1.0
 50
0.0
 71
0
 42
2.5
  3
LiberationSans-Italic.ttf
  4

  0
STYLE
  5
52
330
5
100
AcDbSymbolTableRecord
100
AcDbTextStyleTableRecord
  2
LiberationSerif
 70
0
 40
0.0
 41
1.0
 50
0.0
 71
0
 42
2.5
  3
LiberationSerif-Regular.ttf
  4

  0
STYLE
  5
53
330
5
100
AcDbSymbolTableRecord
100
AcDbTextStyleTableRecord
  2
LiberationSerif-Bold
 70
0
 40
0.0
 41
1.0
 50
0.0
 71
0
 42
2.5
  3
LiberationSerif-Bold.ttf
  4

  0
STYLE
  5
54
330
5
100
AcDbSymbolTableRecord
100
AcDbTextStyleTableRecord
  2
LiberationSerif-BoldItalic
 70
0
 40
0.0
 41
1.0
 50
0.0
 71
0
 42
2.5
  3
LiberationSerif-BoldItalic.ttf
  4

  0
STYLE
  5
55
330
5
100
AcDbSymbolTableRecord
100
AcDbTextStyleTableRecord
  2
LiberationSerif-Italic
 70
0
 40
0.0
 41
1.0
 50
0.0
 71
0
 42
2.5
  3
LiberationSerif-Italic.ttf
  4

  0
STYLE
  5
56
330
5
100
AcDbSymbolTableRecord
100
AcDbTextStyleTableRecord
  2
LiberationMono
 70
0
 40
0.0
 41
1.0
 50
0.0
 71
0
 42
2.5
  3
LiberationMono-Regular.ttf
  4

  0
STYLE
  5
57
330
5
100
AcDbSymbolTableRecord
100
AcDbTextStyleTableRecord
  2
LiberationMono-Bold
 70
0
 40
0.0
 41
1.0
 50
0.0
 71
0
 42
2.5
  3
LiberationMono-Bold.ttf
  4

  0
STYLE
  5
58
330
5
100
AcDbSymbolTableRecord
100
AcDbTextStyleTableRecord
  2
LiberationMono-BoldItalic
 70
0
 40
0.0
 41
1.0
 50
0.0
 71
0
 42
2.5
  3
LiberationMono-BoldItalic.ttf
  4

  0
STYLE
  5
59
330
5
100
AcDbSymbolTableRecord
100
AcDbTextStyleTableRecord
  2
LiberationMono-Italic
 70
0
 40
0.0
 41
1.0
 50
0.0
 71
0
 42
2.5
  3
LiberationMono-Italic.ttf
  4

  0
ENDTAB
  0
TABLE
  2
VIEW
  5
7
330
0
100
AcDbSymbolTable
 70
0
  0
ENDTAB
  0
TABLE
  2
UCS
  5
6
330
0
100
AcDbSymbolTable
 70
0
  0
ENDTAB
  0
TABLE
  2
APPID
  5
3
330
0
100
AcDbSymbolTable
 70
3
  0
APPID
  5
2A
330
3
100
AcDbSymbolTableRecord
100
AcDbRegAppTableRecord
  2
ACAD
 70
0
  0
APPID
  5
AE
330
3
100
AcDbSymbolTableRecord
100
AcDbRegAppTableRecord
  2
HATCHBACKGROUNDCOLOR
 70
0
  0
APPID
  5
AF
330
3
100
AcDbSymbolTableRecord
100
AcDbRegAppTableRecord
  2
EZDXF
 70
0
  0
ENDTAB
  0
TABLE
  2
DIMSTYLE
  5
4
330
0
100
AcDbSymbolTable
 70
12
100
AcDbDimStyleTable
  0
DIMSTYLE
105
2B
330
4
100
AcDbSymbolTableRecord
100
AcDbDimStyleTableRecord
  2
Standard
 70
0
 40
1.0
 41
2.5
 42
0.625
 43
3.75
 44
1.25
 45
0.0
 46
0.0
 47
0.0
 48
0.0
 49
2.5
140
2.5
141
2.5
142
0.0
143
0.03937007874
144
1.0
145
0.0
146
1.0
147
0.625
148
0.0
 69
0
 70
0
 71
0
 72
0
 73
0
 74
0
 75
0
 76
0
 77
1
 78
8
 79
3
170
0
171
3
172
1
173
0
174
0
175
0
176
0
177
0
178
0
179
2
271
2
272
2
273
2
274
3
275
0
276
0
277
2
278
44
279
0
280
0
281
0
282
0
283
0
284
8
285
0
286
0
288
0
289
3
290
0
371
-2
372
-2
  0
DIMSTYLE
105
73
330
4
100
AcDbSymbolTableRecord
100
AcDbDimStyleTableRecord
  2
EZDXF
 70
0
 40
1.0
 41
0.175
 42
0.125
 43
3.75
 44
0.375
 45
0.0
 46
0.0
 47
0.0
 48
0.0
 49
2.5
140
0.25
141
2.5
142
0.0
143
0.03937007874
144
100.0
145
0.0
146
0.5
147
0.1
148
0.0
 69
0
 70
0
 71
0
 72
0
 73
0
 74
0
 75
0
 76
0
 77
1
 78
12
 79
3
170
0
171
3
172
1
173
0
174
0
175
0
176
0
177
0
178
0
179
2
271
2
272
2
273
2
274
3
275
0
276
0
277
2
278
46
279
2
280
0
281
0
282
0
283
0
284
8
285
0
286
0
288
1
289
3
290
0
340
4C
342
74
371
-2
372
-2
  0
DIMSTYLE
105
7C
330
4
100
AcDbSymbolTableRecord
100
AcDbDimStyleTableRecord
  2
EZ_M_100_H25_CM
 70
0
 40
1.0
 41
0.25
 42
0.125
 43
3.75
 44
0.375
 45
0.0
 46
0.0
 47
0.0
 48
0.0
 49
2.5
140
0.25
141
2.5
142
0.125
143
0.03937007874
144
100.0
145
0.0
146
0.5
147
0.1
148
0.0
 69
0
 70
0
 71
0
 72
0
 73
0
 74
0
 75
0
 76
0
 77
1
 78
12
 79
3
170
0
171
3
172
1
173
0
174
0
175
0
176
0
177
0
178
0
179
2
271
2
272
2
273
2
274
3
275
0
276
0
277
2
278
46
279
2
280
0
281
0
282
0
283
0
284
8
285
0
286
0
288
1
289
3
290
0
340
4C
371
-2
372
-2
  0
DIMSTYLE
105
7D
330
4
100
AcDbSymbolTableRecord
100
AcDbDimStyleTableRecord
  2
EZ_M_50_H25_CM
 70
0
 40
1.0
 41
0.125
 42
0.0625
 43
3.75
 44
0.1875
 45
0.0
 46
0.0
 47
0.0
 48
0.0
 49
2.5
140
0.125
141
2.5
142
0.0625
143
0.03937007874
144
100.0
145
0.0
146
0.5
147
0.05
148
0.0
 69
0
 70
0
 71
0
 72
0
 73
0
 74
0
 75
0
 76
0
 77
1
 78
12
 79
3
170
0
171
3
172
1
173
0
174
0
175
0
176
0
177
0
178
0
179
2
271
2
272
2
273
2
274
3
275
0
276
0
277
2
278
46
279
2
280
0
281
0
282
0
283
0
284
8
285
0
286
0
288
1
289
3
290
0
340
4C
371
-2
372
-2
  0
DIMSTYLE
105
7E
330
4
100
AcDbSymbolTableRecord
100
AcDbDimStyleTableRecord
  2
EZ_M_25_H25_CM
 70
0
 40
1.0
 41
0.0625
 42
0.03125
 43
3.75
 44
0.09375
 45
0.0
 46
0.0
 47
0.0
 48
0.0
 49
2.5
140
0.0625
141
2.5
142
0.03125
143
0.03937007874
144
100.0
145
0.0
146
0.5
147
0.025
148
0.0
 69
0
 70
0
 71
0
 72
0
 73
0
 74
0
 75
0
 76
0
 77
1
 78
12
 79
3
170
0
171
3
172
1
173
0
174
0
175
0
176
0
177
0
178
0
179
2
271
2
272
2
273
2
274
3
275
0
276
0
277
2
278
46
279
2
280
0
281
0
282
0
283
0
284
8
285
0
286
0
288
1
289
3
290
0
340
4C
371
-2
372
-2
  0
DIMSTYLE
105
7F
330
4
100
AcDbSymbolTableRecord
100
AcDbDimStyleTableRecord
  2
EZ_M_20_H25_CM
 70
0
 40
1.0
 41
0.05
 42
0.025
 43
3.75
 44
0.07500000000000001
 45
0.0
 46
0.0
 47
0.0
 48
0.0
 49
2.5
140
0.05
141
2.5
142
0.025
143
0.03937007874
144
100.0
145
0.0
146
0.5
147
0.020000000000000004
148
0.0
 69
0
 70
0
 71
0
 72
0
 73
0
 74
0
 75
0
 76
0
 77
1
 78
12
 79
3
170
0
171
3
172
1
173
0
174
0
175
0
176
0
177
0
178
0
179
2
271
2
272
2
273
2
274
3
275
0
276
0
277
2
278
46
279
2
280
0
281
0
282
0
283
0
284
8
285
0
286
0
288
1
289
3
290
0
340
4C
371
-2
372
-2
  0
DIMSTYLE
105
80
330
4
100
AcDbSymbolTableRecord
100
AcDbDimStyleTableRecord
  2
EZ_M_10_H25_CM
 70
0
 40
1.0
 41
0.025
 42
0.0125
 43
3.75
 44
0.037500000000000006
 45
0.0
 46
0.0
 47
0.0
 48
0.0
 49
2.5
140
0.025
141
2.5
142
0.0125
143
0.03937007874
144
100.0
145
0.0
146
0.5
147
0.010000000000000002
148
0.0
 69
0
 70
0
 71
0
 72
0
 73
0
 74
0
 75
0
 76
0
 77
1
 78
12
 79
3
170
0
171
3
172
1
173
0
174
0
175
0
176
0
177
0
178
0
179
2
271
2
272
2
273
2
274
3
275
0
276
0
277
2
278
46
279
2
280
0
281
0
282
0
283
0
284
8
285
0
286
0
288
1
289
3
290
0
340
4C
371
-2
372
-2
  0
DIMSTYLE
105
81
330
4
100
AcDbSymbolTableRecord
100
AcDbDimStyleTableRecord
  2
EZ_M_5_H25_CM
 70
0
 40
1.0
 41
0.0125
 42
0.00625
 43
3.75
 44
0.018750000000000003
 45
0.0
 46
0.0
 47
0.0
 48
0.0
 49
2.5
140
0.0125
141
2.5
142
0.00625
143
0.03937007874
144
100.0
145
0.0
146
0.5
147
0.005000000000000001
148
0.0
 69
0
 70
0
 71
0
 72
0
 73
0
 74
0
 75
0
 76
0
 77
1
 78
12
 79
3
170
0
171
3
172
1
173
0
174
0
175
0
176
0
177
0
178
0
179
2
271
2
272
2
273
2
274
3
275
0
276
0
277
2
278
46
279
2
280
0
281
0
282
0
283
0
284
8
285
0
286
0
288
1
289
3
290
0
340
4C
371
-2
372
-2
  0
DIMSTYLE
105
82
330
4
100
AcDbSymbolTableRecord
100
AcDbDimStyleTableRecord
  2
EZ_M_1_H25_CM
 70
0
 40
1.0
 41
0.0025
 42
0.00125
 43
3.75
 44
0.00375
 45
0.0
 46
0.0
 47
0.0
 48
0.0
 49
2.5
140
0.0025
141
2.5
142
0.00125
143
0.03937007874
144
100.0
145
0.0
146
0.5
147
0.001
148
0.0
 69
0
 70
0
 71
0
 72
0
 73
0
 74
0
 75
0
 76
0
 77
1
 78
12
 79
3
170
0
171
3
172
1
173
0
174
0
175
0
176
0
177
0
178
0
179
2
271
2
272
2
273
2
274
3
275
0
276
0
277
2
278
46
279
2
280
0
281
0
282
0
283
0
284
8
285
0
286
0
288
1
289
3
290
0
340
4C
371
-2
372
-2
  0
DIMSTYLE
105
83
330
4
100
AcDbSymbolTableRecord
100
AcDbDimStyleTableRecord
  2
EZ_RADIUS
 70
0
 40
1.0
 41
0.25
 42
0.125
 43
3.75
 44
0.375
 45
0.0
 46
0.0
 47
0.0
 48
0.0
 49
2.5
140
0.25
141
0.0
142
0.0
143
0.03937007874
144
100.0
145
0.0
146
0.5
147
0.1
148
0.0
 69
0
 70
0
 71
0
 72
0
 73
0
 74
0
 75
0
 76
0
 77
1
 78
12
 79
3
170
0
171
3
172
0
173
0
174
0
175
0
176
0
177
0
178
0
179
2
271
2
272
2
273
2
274
3
275
0
276
0
277
2
278
46
279
1
280
0
281
0
282
0
283
0
284
8
285
0
286
0
288
1
289
3
290
0
340
4C
342
84
371
-2
372
-2
  0
DIMSTYLE
105
88
330
4
100
AcDbSymbolTableRecord
100
AcDbDimStyleTableRecord
  2
EZ_RADIUS_INSIDE
 70
0
 40
1.0
 41
0.25
 42
0.125
 43
3.75
 44
0.375
 45
0.0
 46
0.0
 47
0.0
 48
0.0
 49
2.5
140
0.25
141
0.0
142
0.0
143
0.03937007874
144
100.0
145
0.0
146
0.5
147
0.1
148
0.0
 69
0
 70
0
 71
0
 72
0
 73
0
 74
0
 75
0
 76
0
 77
0
 78
12
 79
3
170
0
171
3
172
0
173
0
174
1
175
0
176
0
177
0
178
0
179
2
271
2
272
2
273
2
274
3
275
0
276
0
277
2
278
46
279
0
280
0
281
0
282
0
283
0
284
8
285
0
286
0
288
1
289
0
290
0
340
4C
342
84
371
-2
372
-2
  0
DIMSTYLE
105
89
330
4
100
AcDbSymbolTableRecord
100
AcDbDimStyleTableRecord
  2
EZ_CURVED
 70
0
 40
1.0
 41
0.25
 42
0.125
 43
3.75
 44
0.375
 45
0.0
 46
0.0
 47
0.0
 48
0.0
 49
2.5
140
0.25
141
2.5
142
0.0
143
0.03937007874
144
100.0
145
0.0
146
0.5
147
0.1
148
0.0
 69
0
 70
0
 71
0
 72
0
 73
0
 74
0
 75
0
 76
0
 77
1
 78
12
 79
2
 90
2
170
0
171
3
172
1
173
0
174
0
175
0
176
0
177
0
178
0
179
2
271
2
272
2
273
2
274
3
275
0
276
0
277
2
278
46
279
2
280
0
281
0
282
0
283
0
284
8
285
0
286
0
288
1
289
3
290
0
340
4C
371
-2
372
-2
  0
ENDTAB
  0
TABLE
  2
BLOCK_RECORD
  5
9
330
0
100
AcDbSymbolTable
 70
5
  0
BLOCK_RECORD
  5
17
330
9
100
AcDbSymbolTableRecord
100
AcDbBlockTableRecord
  2
*Model_Space
340
1A
 70
0
280
1
281
0
  0
BLOCK_RECORD
  5
1B
330
9
100
AcDbSymbolTableRecord
100
AcDbBlockTableRecord
  2
*Paper_Space
340
1E
 70
0
280
1
281
0
  0
BLOCK_RECORD
  5
74
330
9
100
AcDbSymbolTableRecord
100
AcDbBlockTableRecord
  2
_ARCHTICK
340
0
 70
0
280
1
281
0
  0
BLOCK_RECORD
  5
78
330
9
100
AcDbSymbolTableRecord
100
AcDbBlockTableRecord
  2
_CLOSEDFILLED
340
0
 70
0
280
1
281
0
  0
BLOCK_RECORD
  5
84
330
9
100
AcDbSymbolTableRecord
100
AcDbBlockTableRecord
  2
_CLOSEDBLANK
340
0
 70
0
280
1
281
0
  0
ENDTAB
  0
ENDSEC
  0
SECTION
  2
BLOCKS
  0
BLOCK
  5
18
330
17
100
AcDbEntity
  8
0
100
AcDbBlockBegin
  2
*Model_Space
 70
0
 10
0.0
 20
0.0
 30
0.0
  3
*Model_Space
  1

  0
ENDBLK
  5
19
330
17
100
AcDbEntity
  8
0
100
AcDbBlockEnd
  0
BLOCK
  5
1C
330
1B
100
AcDbEntity
  8
0
100
AcDbBlockBegin
  2
*Paper_Space
 70
0
 10
0.0
 20
0.0
 30
0.0
  3
*Paper_Space
  1

  0
ENDBLK
  5
1D
330
1B
100
AcDbEntity
  8
0
100
AcDbBlockEnd
  0
BLOCK
  5
75
330
74
100
AcDbEntity
  8
0
100
AcDbBlockBegin
  2
_ARCHTICK
 70
0
 10
0.0
 20
0.0
 30
0.0
  3
_ARCHTICK
  1

  0
LWPOLYLINE
  5
77
330
74
100
AcDbEntity
  8
0
  6
BYBLOCK
 62
0
100
AcDbPolyline
 90
2
 70
0
 43
0.15
 10
-0.5
 20
-0.5
 10
0.5
 20
0.5
  0
ENDBLK
  5
76
330
74
100
AcDbEntity
  8
0
100
AcDbBlockEnd
  0
BLOCK
  5
79
330
78
100
AcDbEntity
  8
0
100
AcDbBlockBegin
  2
_CLOSEDFILLED
 70
0
 10
0.0
 20
0.0
 30
0.0
  3
_CLOSEDFILLED
  1

  0
SOLID
  5
7B
330
78
100
AcDbEntity
  8
0
  6
BYBLOCK
 62
0
100
AcDbTrace
 10
-1.0
 20
0.16439898372402537
 30
0.0
 11
0.0
 21
0.0
 31
0.0
 12
-1.0
 22
-0.16439898372402537
 32
0.0
 13
-1.0
 23
-0.16439898372402537
 33
0.0
  0
ENDBLK
  5
7A
330
78
100
AcDbEntity
  8
0
100
AcDbBlockEnd
  0
BLOCK
  5
85
330
84
100
AcDbEntity
  8
0
100
AcDbBlockBegin
  2
_CLOSEDBLANK
 70
0
 10
0.0
 20
0.0
 30
0.0
  3
_CLOSEDBLANK
  1

  0
LWPOLYLINE
  5
87
330
84
100
AcDbEntity
  8
0
  6
BYBLOCK
 62
0
100
AcDbPolyline
 90
3
 70
1
 10
-1.0
 20
0.16439898372402537
 10
0.0
 20
0.0
 10
-1.0
 20
-0.16439898372402537
  0
ENDBLK
  5
86
330
84
100
AcDbEntity
  8
0
100
AcDbBlockEnd
  0
ENDSEC
  0
SECTION
  2
ENTITIES
  0
LWPOLYLINE
  5
8C
330
17
100
AcDbEntity
  8
Layer
100
AcDbPolyline
 90
178
 70
1
 10
579.2496468914816
 20
196.7898516489272
 10
579.2496468914816
 20
196.7898516489272
 10
578.8295308241488
 20
196.93150184853454
 10
571.1263727239282
 20
199.49167725264076
 10
563.4633636126625
 20
201.9965867586613
 10
555.8347944743163
 20
204.44491424113232
 10
548.2377780741413
 20
206.8357368479896
 10
540.6692241585075
 20
209.16698161084344
 10
533.1230351185527
 20
211.4374517284947
 10
525.5931865013307
 20
213.64764456218106
 10
518.076584534808
 20
215.79780559498582
 10
510.57091339453063
 20
217.88702198142767
 10
503.0717681443642
 20
219.9147860349742
 10
495.57453769036397
 20
221.88159427189535
 10
488.07751456410836
 20
223.78835436916128
 10
480.5802633912199
 20
225.63446678865878
 10
473.08034789028744
 20
227.4190718310756
 10
465.5745238230609
 20
229.14278551114833
 10
458.06202858618667
 20
230.80646587742453
 10
450.5438958639679
 20
232.40964679679868
 10
443.0190634821471
 20
233.95151178117828
 10
435.4857252233753
 20
235.43227210890274
 10
427.9431347102329
 20
236.85265288869772
 10
420.39305742385375
 20
238.21266542262413
 10
412.8359412338938
 20
239.51130615840114
 10
405.27031259475933
 20
240.7483899351266
 10
397.69607633702077
 20
241.92474307127492
 10
390.1151058414678
 20
243.04007694255785
 10
382.5275379057129
 20
244.09324857071607
 10
374.92985088131854
 20
245.08367826768426
 10
367.3185737957114
 20
246.0129600667444
 10
359.6952212173204
 20
246.88279872174445
 10
352.0632683179315
 20
247.69296234114597
 10
344.4235941148495
 20
248.44241487060563
 10
336.7751985140807
 20
249.13130206783762
 10
329.1201189391796
 20
249.7611555608334
 10
321.46373510259576
 20
250.33193099198687
 10
313.80943759368745
 20
250.8419715551586
 10
306.1572198492833
 20
251.29028852339587
 10
298.50848169147713
 20
251.67785648759317
 10
290.86822670171057
 20
252.00451481002722
 10
283.2403169887525
 20
252.26873272427412
 10
275.6246333064123
 20
252.4687568884998
 10
268.02166390993386
 20
252.6051664953467
 10
260.4360712834358
 20
252.67814279801505
 10
252.8719070160593
 20
252.68599413176423
 10
245.32980517587504
 20
252.62683498152867
 10
237.80996436119017
 20
252.50072735718788
 10
230.31715201275114
 20
252.30801473157652
 10
222.8563410842368
 20
252.04711101373016
 10
215.42830250452118
 20
251.71572403982967
 10
208.03422796886088
 20
251.31385376864353
 10
200.6794198480906
 20
250.8419142245719
 10
193.36977944391737
 20
250.2981117773957
 10
186.10649571425367
 20
249.68002051138427
 10
178.89203353667193
 20
248.98812074506043
 10
171.73373779270955
 20
248.22273618591703
 10
164.6372702605283
 20
247.3815165275879
 10
157.60470882294067
 20
246.46280709052343
 10
150.6413618627617
 20
245.46781565031145
 10
143.75610464322136
 20
244.39636868840677
 10
136.9545967295204
 20
243.2466932399624
 10
130.24171924091726
 20
242.02006325689962
 10
123.631492648029
 20
240.72152236092631
 10
117.14067532734927
 20
239.35185164921205
 10
110.77935253634055
 20
237.9101938505098
 10
104.55881104440172
 20
236.4017399047615
 10
98.49941054255004
 20
234.83389563474262
 10
92.61923623365763
 20
233.20922870691172
 10
86.9308240696374
 20
231.53272547215028
 10
81.45156136420454
 20
229.81653813317095
 10
76.20276338692818
 20
228.07145779786327
 10
71.1987087751485
 20
226.3041163122063
 10
66.44881515931849
 20
224.5261768485245
 10
61.96412539470052
 20
222.7524830850441
 10
57.75200846925193
 20
220.9926576927564
 10
53.81105297861731
 20
219.25352068289925
 10
50.1357712889297
 20
217.54496922395793
 10
46.72008968044028
 20
215.8759182292727
 10
43.55452203840176
 20
214.24949240368247
 10
40.62478201639027
 20
212.66573750138127
 10
37.91437616302153
 20
211.12622941992626
 10
35.40821067826039
 20
209.63361307064577
 10
33.092504433853264
 20
208.18752568843104
 10
30.95292651371983
 20
206.7846989494857
 10
28.975129137552358
 20
205.42181803543278
 10
27.14538948665472
 20
204.0967557486995
 10
25.452562278383994
 20
202.8088054031891
 10
23.88752446555526
 20
201.55552876396914
 10
22.441761333268857
 20
200.3324228508082
 10
21.10475352326216
 20
199.13331094838293
 10
19.8649679758243
 20
197.9560261818989
 10
18.711063059451078
 20
196.80125230337276
 10
17.634724876410985
 20
195.67397373096563
 10
16.631654618843925
 20
194.578058095074
 10
15.702378681886614
 20
193.5165978451357
 10
14.849042308552953
 20
192.4857204577722
 10
14.073354379252578
 20
191.47935537732718
 10
13.374456323692698
 20
190.4889976876599
 10
12.747718415636655
 20
189.50627857337415
 10
12.186901994380207
 20
188.52890178069228
 10
11.6853266881551
 20
187.55817062913545
 10
11.238597062334804
 20
186.60035899208606
 10
10.844879501089736
 20
185.66037794176128
 10
10.50490836846518
 20
184.7424701591516
 10
10.220583417422858
 20
183.84706617217168
 10
9.993346194873311
 20
182.9712763031891
 10
9.823241797239234
 20
182.1120090012218
 10
9.708726966539643
 20
181.26673324208275
 10
9.643703932611857
 20
180.3556980171203
 10
9.635014078990935
 20
179.60308329564762
 10
9.676049512296458
 20
178.76717813010333
 10
9.775016199762433
 20
177.93567049900645
 10
9.939054476698288
 20
177.11222128976357
 10
10.17737932372961
 20
176.29560117552944
 10
10.498191104060083
 20
175.48313871833656
 10
10.904938486329229
 20
174.67447243010878
 10
11.39537706447635
 20
173.87227511849812
 10
11.963895765972154
 20
173.08162992441981
 10
12.606611008036566
 20
172.30735080657976
 10
13.323121668115732
 20
171.55315988340888
 10
14.117045880086152
 20
170.82055723781377
 10
14.992089727118696
 20
170.1094530970235
 10
15.950625026747446
 20
169.41816245303707
 10
16.991620882325776
 20
168.7445980435504
 10
18.1141405104172
 20
168.08649217762385
 10
19.3172157799317
 20
167.44276189396535
 10
20.60440113831038
 20
166.81297240894344
 10
21.98097385014944
 20
166.19696498700407
 10
23.45562306088698
 20
165.59396322241037
 10
25.036927641638272
 20
165.00159954180629
 10
26.733433138617613
 20
164.41626374666188
 10
28.554483982053284
 20
163.83398555636558
 10
30.50985990166032
 20
163.2512916329244
 10
32.61273208503354
 20
162.66628967075053
 10
34.87931383044338
 20
162.07810850038013
 10
37.329339439521675
 20
161.48581519709285
 10
39.9839974063417
 20
160.88760505353298
 10
42.866519050112515
 20
160.28173496797808
 10
46.001539031354156
 20
159.66752179034842
 10
49.41682808500266
 20
159.04608943965047
 10
53.142302510354284
 20
158.41932989872146
 10
57.20668832830137
 20
157.78808665162444
 10
61.63400519882731
 20
157.15380119222382
 10
66.44244941132527
 20
156.52126625313554
 10
71.64404951084964
 20
155.89735975165888
 10
77.24125229770615
 20
155.28733904851703
 10
83.22093813965225
 20
154.6956079658168
 10
89.55837559490325
 20
154.12985421482733
 10
96.22516567149319
 20
153.59655407985687
 10
103.18584512323181
 20
153.0975674517791
 10
110.39911594822178
 20
152.63556944849245
 10
117.83149750225206
 20
152.2137232001323
 10
125.45444818574305
 20
151.83046220525569
 10
133.2389300805466
 20
151.4840019314351
 10
141.1684310260677
 20
151.1753699210933
 10
149.2396558847461
 20
150.89823672680063
 10
157.42910509639498
 20
150.6372776234939
 10
158.2941011533023
 20
150.6108998499167
 10
158.24838039884048
 20
149.11159680762958
 10
165.6387640434495
 20
148.88622946072746
 10
173.91671882323635
 20
148.65554585998228
 10
182.2227460700234
 20
148.45926083005028
 10
190.588167728941
 20
148.29596832269567
 10
199.0298141003354
 20
148.15180795432616
 10
207.53205295087383
 20
148.01196485953994
 10
216.06382554867923
 20
147.86892925166518
 10
224.59963702677106
 20
147.72601417194264
 10
233.12058539098126
 20
147.59561600870302
 10
241.64360123196528
 20
147.48790257994045
 10
250.19946920172197
 20
147.4002093908507
 10
258.8005966515776
 20
147.32086200242884
 10
267.43203919559676
 20
147.24100997225895
 10
276.0809422227993
 20
147.1606434157
 10
284.73648604396607
 20
147.08182728062633
 10
293.38917101558866
 20
147.00349925308248
 10
310.2207778516169
 20
146.85880201268654
 10
579.2496468914816
 20
196.7898516489272
  0
LWPOLYLINE
  5
8D
330
17
100
AcDbEntity
  8
Layer
100
AcDbPolyline
 90
5
 70
0
 10
505.6252965957472
 20
215.08063853749715
 10
501.76396289060614
 20
216.1247180447866
 10
502.8080423978956
 20
219.9860517499276
 10
506.66937610303665
 20
218.94197224263817
 10
505.6252965957472
 20
215.08063853749715
  0
LWPOLYLINE
  5
8E
330
17
100
AcDbEntity
  8
Layer
100
AcDbPolyline
 90
5
 70
0
 10
220.43627126106873
 20
247.9351410354093
 10
216.44024766237794
 20
247.7568283922614
 10
216.26193501923007
 20
251.7528519909522
 10
220.25795861792085
 20
251.93116463410007
 10
220.43627126106873
 20
247.9351410354093
  0
LWPOLYLINE
  5
8F
330
17
100
AcDbEntity
  8
Layer
100
AcDbPolyline
 90
5
 70
0
 10
91.07754832285131
 20
228.5846474908915
 10
87.24075616669403
 20
227.45370719607044
 10
86.10981587187298
 20
231.29049935222773
 10
89.94660802803027
 20
232.4214396470488
 10
91.07754832285131
 20
228.5846474908915
  0
LWPOLYLINE
  5
90
330
17
100
AcDbEntity
  8
Layer
100
AcDbPolyline
 90
5
 70
0
 10
25.95907113962331
 20
196.77074694522
 10
24.470612894615574
 20
195.4348981315931
 10
21.130990860548234
 20
199.15604374411245
 10
22.61944910555597
 20
200.49189255773936
 10
25.95907113962331
 20
196.77074694522
  0
LWPOLYLINE
  5
91
330
17
100
AcDbEntity
  8
Layer
100
AcDbPolyline
 90
5
 70
0
 10
17.951418250941746
 20
174.1399534676416
 10
19.575427314684095
 20
172.97265120991966
 10
16.65717167037928
 20
168.9126285505638
 10
15.033162606636933
 20
170.07993080828572
 10
17.951418250941746
 20
174.1399534676416
  0
LWPOLYLINE
  5
92
330
17
100
AcDbEntity
  8
Layer
100
AcDbPolyline
 90
5
 70
0
 10
118.59263341505871
 20
156.18050962425093
 10
122.58758802993694
 20
155.97966733522026
 10
122.38674574090626
 20
151.98471272034203
 10
118.39179112602804
 20
152.1855550093727
 10
118.59263341505871
 20
156.18050962425093
  0
LWPOLYLINE
  5
93
330
17
100
AcDbEntity
  8
Layer
100
AcDbPolyline
 90
300
 70
1
 10
337.05239113249684
 20
200.0
 10
337.0438631697379
 20
200.8618572017111
 10
337.0182830471694
 20
201.7233338315442
 10
336.9756620602533
 20
202.58404948567113
 10
336.91601902921764
 20
203.44362409628914
 10
336.8393802907459
 20
204.30167809944822
 10
336.74577968634753
 20
205.15783260265576
 10
336.6352585474144
 20
206.01170955218487
 10
336.50786567697025
 20
206.86293190001226
 10
336.3636573281204
 20
207.71112377031204
 10
336.202697179212
 20
208.55591062543184
 10
336.0250563057157
 20
209.39691943127815
 10
335.8308131488404
 20
210.23377882203772
 10
335.6200534808959
 20
211.06611926416207
 10
335.3928703674186
 20
211.89357321954336
 10
335.14936412607585
 20
212.71577530780866
 10
334.88964228236887
 20
213.5323624676617
 10
334.6138195221524
 20
214.34297411720058
 10
334.3220176409926
 20
215.1472523131405
 10
334.0143654903856
 20
215.9448419088715
 10
333.6909989208604
 20
216.73539071128118
 10
333.35206072199094
 20
217.5185496362732
 10
332.99770055934437
 20
218.29397286291317
 10
332.6280749083928
 20
219.06131798613322
 10
332.2433469854184
 20
219.8202461679286
 10
331.8436866754413
 20
220.57042228697892
 10
331.4292704572036
 20
221.31151508662836
 10
331.0002813252409
 20
222.04319732115914
 10
330.5569087090774
 20
222.76514590029427
 10
330.0993483895789
 20
223.4770420318648
 10
329.6278024125017
 20
224.17857136257982
 10
329.14247899927466
 20
224.86942411683566
 10
328.64359245505466
 20
225.54929523350435
 10
328.1313630740954
 20
226.21788450063997
 10
327.6060170424717
 20
226.8748966880437
 10
327.06778633820204
 20
227.52004167762917
 10
326.51690862881355
 20
228.1530345915306
 10
325.9536271663949
 20
228.7735959178967
 10
325.3781906801828
 20
229.38145163431523
 10
324.79085326673044
 20
229.97633332881367
 10
324.1918742777054
 20
230.5579783183823
 10
323.5815182053672
 20
231.1261297649678
 10
322.96005456577524
 20
231.68053678888538
 10
322.3277577797778
 20
232.2209545796005
 10
321.6849070518357
 20
232.74714450383016
 10
321.0317862467334
 20
233.25887421091664
 10
320.3686837642324
 20
233.75591773542715
 10
319.6958924117218
 20
234.23805559693355
 10
319.01370927492303
 20
234.70507489692892
 10
318.3224355867051
 20
235.15676941283758
 10
317.6223765940686
 20
235.59293968907699
 10
316.9138414233571
 20
236.0133931251318
 10
316.19714294375603
 20
236.417944060601
 10
315.472597629138
 20
236.80641385718
 10
314.74052541831725
 20
237.1786309775425
 10
314.00124957377335
 20
237.53443106108648
 10
313.25509653890776
 20
237.87365699651127
 10
312.5023957938957
 20
238.19615899119339
 10
311.7434797101967
 20
238.5017946373307
 10
310.978683403789
 20
238.79042897482597
 10
310.20834458719156
 20
239.0619345508811
 10
309.43280342033995
 20
239.31619147627686
 10
308.652402360381
 20
239.5530874783127
 10
307.86748601045366
 20
239.77251795038296
 10
307.07840096752176
 20
239.97438599816843
 10
306.28549566932656
 20
240.15860248242197
 10
305.4891202405266
 20
240.3250860583301
 10
304.68962633809224
 20
240.47376321143236
 10
303.8873669960243
 20
240.60456829008342
 10
303.08269646946354
 20
240.7174435344428
 10
302.2759700782623
 20
240.81233910198023
 10
301.4675440500844
 20
240.88921308948443
 10
300.657775363106
 20
240.94803155156666
 10
299.84702158838314
 20
240.98876851564984
 10
299.0356407319593
 20
241.01140599343745
 10
298.2239910767792
 20
241.01593398885655
 10
297.4124310244818
 20
241.00235050247187
 10
296.6013189371398
 20
240.97066153236855
 10
295.79101297901724
 20
240.92088107150374
 10
294.9818709584142
 20
240.85303110152756
 10
294.17425016966865
 20
240.76714158307672
 10
293.36850723538555
 20
240.6632504425447
 10
292.564997948962
 20
240.54140355533445
 10
291.7640771174792
 20
240.40165472560125
 10
290.96609840502947
 20
240.24406566249422
 10
290.17141417654824
 20
240.06870595290735
 10
289.3803753422195
 20
239.87565303075178
 10
288.59333120252387
 20
239.66499214276325
 10
287.8106292939973
 20
239.43681631085963
 10
287.0326152357685
 20
239.1912262910648
 10
286.25963257694366
 20
238.92833052901787
 10
285.49202264490464
 20
238.64824511208658
 10
284.7301243945882
 20
238.3510937181063
 10
283.97427425881347
 20
238.03700756076745
 10
283.22480599972226
 20
237.70612533167525
 10
282.4820505613995
 20
237.3585931391073
 10
281.74633592373726
 20
236.99456444349647
 10
281.01798695760834
 20
236.61419998966687
 10
280.2973252814124
 20
236.21766773585367
 10
279.584669119058
 20
235.80514277953725
 10
278.88033315944455
 20
235.3768072801253
 10
278.1846284175038
 20
234.9328503785162
 10
277.497862096865
 20
234.47346811357986
 10
276.82033745420205
 20
233.9988633355923
 10
276.15235366532403
 20
233.50924561666278
 10
275.49420569306767
 20
233.00483115819273
 10
274.8461841570498
 20
232.48584269540714
 10
274.2085752053382
 20
231.95250939900103
 10
273.5816603880966
 20
231.4050667739442
 10
272.96571653325987
 20
230.8437565554887
 10
272.36101562429474
 20
230.2688266024255
 10
271.7678246800996
 20
229.6805307876369
 10
271.1864056370964
 20
229.07912888599353
 10
270.61701523356703
 20
228.464886459645
 10
270.0599048962845
 20
227.83807474075513
 10
269.5153206294906
 20
227.19897051173356
 10
268.9835029062668
 20
226.54785598301626
 10
268.46468656234845
 20
225.88501866844953
 10
267.9591006924277
 20
225.2107512583318
 10
267.46696854899193
 20
224.52535149017007
 10
266.9885074437415
 20
223.82912201720703
 10
266.5239286516314
 20
223.1223702747784
 10
266.0734373175777
 20
222.40540834455769
 10
265.63723236587174
 20
221.67855281675003
 10
265.21550641234046
 20
220.94212465029466
 10
264.8084456792929
 20
220.1964490311386
 10
264.4162299132895
 20
219.44185522864365
 10
264.0390323057713
 20
218.67867645019027
 10
263.6770194165831
 20
217.90724969404266
 10
263.3303511004258
 20
217.12791560053986
 10
262.99918043626866
 20
216.34101830167836
 10
262.6836536597541
 20
215.54690526915326
 10
262.3839100986243
 20
214.74592716092457
 10
262.1000821111976
 20
213.93843766637642
 10
261.83229502792324
 20
213.1247933501378
 10
261.58066709603867
 20
212.30535349463378
 10
261.345309427355
 20
211.48047994143639
 10
261.1263259491931
 20
210.65053693148553
 10
260.9238133584923
 20
209.8158909442506
 10
260.73786107911167
 20
208.9769105359033
 10
260.5685512223431
 20
208.1339661765737
 10
260.415958550653
 20
207.287430086761
 10
260.2801504446695
 20
206.43767607297153
 10
260.1611868734292
 20
205.5850793626562
 10
260.059120367896
 20
204.73001643852072
 10
259.97399599776554
 20
203.8728648722814
 10
259.9058513515634
 20
203.01400315794007
 10
259.85471652004685
 20
202.15381054465186
 10
259.82061408291804
 20
201.29266686925936
 10
259.80355909885327
 20
200.43095238856745
 10
259.80355909885327
 20
199.56904761143255
 10
259.82061408291804
 20
198.70733313074064
 10
259.85471652004685
 20
197.84618945534814
 10
259.9058513515634
 20
196.98599684205993
 10
259.97399599776554
 20
196.1271351277186
 10
260.059120367896
 20
195.26998356147928
 10
260.1611868734292
 20
194.4149206373438
 10
260.2801504446695
 20
193.56232392702847
 10
260.415958550653
 20
192.712569913239
 10
260.5685512223431
 20
191.8660338234263
 10
260.7378610791117
 20
191.0230894640967
 10
260.9238133584923
 20
190.1841090557494
 10
261.1263259491931
 20
189.34946306851447
 10
261.345309427355
 20
188.51952005856361
 10
261.58066709603867
 20
187.69464650536622
 10
261.83229502792324
 20
186.8752066498622
 10
262.1000821111976
 20
186.0615623336236
 10
262.38391009862426
 20
185.25407283907543
 10
262.6836536597541
 20
184.45309473084671
 10
262.99918043626866
 20
183.65898169832164
 10
263.3303511004258
 20
182.87208439946014
 10
263.6770194165831
 20
182.09275030595734
 10
264.03903230577123
 20
181.32132354980976
 10
264.4162299132895
 20
180.55814477135638
 10
264.8084456792929
 20
179.8035509688614
 10
265.21550641234046
 20
179.05787534970534
 10
265.63723236587174
 20
178.32144718324997
 10
266.0734373175777
 20
177.59459165544231
 10
266.5239286516314
 20
176.87762972522162
 10
266.9885074437415
 20
176.17087798279297
 10
267.46696854899193
 20
175.47464850982996
 10
267.9591006924277
 20
174.7892487416682
 10
268.46468656234845
 20
174.11498133155047
 10
268.98350290626684
 20
173.4521440169837
 10
269.5153206294906
 20
172.80102948826644
 10
270.0599048962845
 20
172.16192525924487
 10
270.617015233567
 20
171.535113540355
 10
271.1864056370964
 20
170.92087111400647
 10
271.7678246800996
 20
170.31946921236312
 10
272.36101562429474
 20
169.7311733975745
 10
272.96571653325987
 20
169.1562434445113
 10
273.5816603880966
 20
168.59493322605582
 10
274.2085752053382
 20
168.04749060099897
 10
274.8461841570498
 20
167.51415730459289
 10
275.49420569306767
 20
166.9951688418073
 10
276.15235366532403
 20
166.49075438333722
 10
276.82033745420205
 20
166.0011366644077
 10
277.497862096865
 20
165.52653188642014
 10
278.1846284175038
 20
165.0671496214838
 10
278.88033315944455
 20
164.6231927198747
 10
279.584669119058
 20
164.19485722046275
 10
280.2973252814124
 20
163.78233226414633
 10
281.0179869576084
 20
163.3858000103331
 10
281.74633592373726
 20
163.00543555650353
 10
282.4820505613995
 20
162.6414068608927
 10
283.22480599972226
 20
162.29387466832478
 10
283.97427425881347
 20
161.96299243923255
 10
284.7301243945882
 20
161.64890628189372
 10
285.49202264490464
 20
161.35175488791342
 10
286.25963257694366
 20
161.07166947098213
 10
287.0326152357685
 20
160.8087737089352
 10
287.8106292939973
 20
160.56318368914037
 10
288.59333120252387
 20
160.33500785723675
 10
289.3803753422195
 20
160.12434696924822
 10
290.17141417654824
 20
159.93129404709265
 10
290.96609840502947
 20
159.75593433750578
 10
291.7640771174792
 20
159.59834527439875
 10
292.564997948962
 20
159.45859644466555
 10
293.36850723538555
 20
159.3367495574553
 10
294.17425016966865
 20
159.23285841692328
 10
294.98187095841416
 20
159.14696889847244
 10
295.79101297901724
 20
159.07911892849626
 10
296.6013189371398
 20
159.02933846763145
 10
297.4124310244818
 20
158.99764949752813
 10
298.2239910767792
 20
158.98406601114345
 10
299.0356407319593
 20
158.98859400656255
 10
299.84702158838314
 20
159.01123148435016
 10
300.65777536310594
 20
159.05196844843334
 10
301.4675440500844
 20
159.11078691051557
 10
302.2759700782623
 20
159.18766089801977
 10
303.0826964694636
 20
159.2825564655572
 10
303.8873669960243
 20
159.39543170991658
 10
304.68962633809224
 20
159.52623678856764
 10
305.4891202405266
 20
159.6749139416699
 10
306.2854956693265
 20
159.841397517578
 10
307.0784009675217
 20
160.02561400183157
 10
307.86748601045366
 20
160.22748204961704
 10
308.652402360381
 20
160.4469125216873
 10
309.43280342033995
 20
160.68380852372314
 10
310.20834458719156
 20
160.9380654491189
 10
310.978683403789
 20
161.20957102517403
 10
311.7434797101967
 20
161.4982053626693
 10
312.5023957938957
 20
161.80384100880661
 10
313.25509653890776
 20
162.12634300348873
 10
314.00124957377335
 20
162.46556893891352
 10
314.74052541831725
 20
162.8213690224575
 10
315.472597629138
 20
163.19358614282
 10
316.19714294375603
 20
163.582055939399
 10
316.91384142335716
 20
163.9866068748682
 10
317.62237659406856
 20
164.40706031092301
 10
318.3224355867051
 20
164.8432305871624
 10
319.01370927492303
 20
165.29492510307105
 10
319.6958924117218
 20
165.76194440306645
 10
320.3686837642324
 20
166.24408226457285
 10
321.0317862467334
 20
166.74112578908336
 10
321.6849070518357
 20
167.25285549616984
 10
322.32775777977776
 20
167.7790454203995
 10
322.96005456577524
 20
168.31946321111462
 10
323.5815182053672
 20
168.8738702350322
 10
324.1918742777054
 20
169.4420216816177
 10
324.79085326673044
 20
170.02366667118633
 10
325.3781906801828
 20
170.61854836568477
 10
325.9536271663949
 20
171.22640408210333
 10
326.51690862881355
 20
171.8469654084694
 10
327.06778633820204
 20
172.47995832237083
 10
327.6060170424717
 20
173.1251033119563
 10
328.1313630740954
 20
173.78211549936
 10
328.64359245505466
 20
174.45070476649562
 10
329.14247899927466
 20
175.13057588316434
 10
329.6278024125017
 20
175.82142863742018
 10
330.0993483895789
 20
176.5229579681352
 10
330.5569087090774
 20
177.23485409970573
 10
331.0002813252409
 20
177.95680267884086
 10
331.4292704572036
 20
178.68848491337164
 10
331.8436866754413
 20
179.42957771302108
 10
332.2433469854184
 20
180.1797538320714
 10
332.6280749083928
 20
180.93868201386678
 10
332.99770055934437
 20
181.70602713708683
 10
333.35206072199094
 20
182.4814503637268
 10
333.6909989208604
 20
183.26460928871882
 10
334.0143654903856
 20
184.05515809112848
 10
334.32201764099256
 20
184.8527476868595
 10
334.61381952215237
 20
185.65702588279942
 10
334.88964228236887
 20
186.46763753233827
 10
335.14936412607585
 20
187.28422469219134
 10
335.3928703674186
 20
188.10642678045662
 10
335.6200534808959
 20
188.9338807358379
 10
335.8308131488403
 20
189.76622117796228
 10
336.0250563057157
 20
190.60308056872185
 10
336.202697179212
 20
191.44408937456816
 10
336.3636573281204
 20
192.28887622968796
 10
336.50786567697025
 20
193.13706809998774
 10
336.6352585474144
 20
193.98829044781513
 10
336.74577968634753
 20
194.84216739734427
 10
336.8393802907459
 20
195.69832190055175
 10
336.91601902921764
 20
196.55637590371083
 10
336.9756620602533
 20
197.41595051432884
 10
337.0182830471694
 20
198.27666616845576
 10
337.0438631697379
 20
199.13814279828887
 10
337.05239113249684
 20
200.0
  0
LINE
  5
94
330
17
100
AcDbEntity
  8
Layer
 62
7
100
AcDbLine
 10
22.0711103983092
 20
200.00000000000003
 30
0.0
 11
569.5713138145684
 21
199.99999999999997
 31
0.0
  0
LINE
  5
95
330
17
100
AcDbEntity
  8
Layer
 62
7
100
AcDbLine
 10
129.47115108156106
 20
200.00000000000003
 30
0.0
 11
141.47115108156106
 21
200.00000000000003
 31
0.0
  0
LWPOLYLINE
  5
96
330
17
100
AcDbEntity
  8
Layer
100
AcDbPolyline
 90
5
 70
0
 10
135.47115108156106
 20
205.00000000000003
 10
140.47115108156106
 20
200.00000000000003
 10
135.47115108156106
 20
195.00000000000003
 10
130.47115108156106
 20
200.00000000000003
 10
135.47115108156106
 20
205.00000000000003
  0
LINE
  5
97
330
17
100
AcDbEntity
  8
Layer
 62
7
100
AcDbLine
 10
289.8212121064388
 20
200.0
 30
0.0
 11
301.8212121064388
 21
200.0
 31
0.0
  0
LWPOLYLINE
  5
98
330
17
100
AcDbEntity
  8
Layer
100
AcDbPolyline
 90
5
 70
0
 10
295.8212121064388
 20
205.0
 10
300.8212121064388
 20
200.0
 10
295.8212121064388
 20
195.0
 10
290.8212121064388
 20
200.0
 10
295.8212121064388
 20
205.0
  0
LINE
  5
99
330
17
100
AcDbEntity
  8
Layer
 62
7
100
AcDbLine
 10
450.1712731313166
 20
199.99999999999997
 30
0.0
 11
462.1712731313166
 21
199.99999999999997
 31
0.0
  0
LWPOLYLINE
  5
9A
330
17
100
AcDbEntity
  8
Layer
100
AcDbPolyline
 90
5
 70
0
 10
456.1712731313166
 20
204.99999999999997
 10
461.1712731313166
 20
199.99999999999997
 10
456.1712731313166
 20
194.99999999999997
 10
451.1712731313166
 20
199.99999999999997
 10
456.1712731313166
 20
204.99999999999997
  0
LINE
  5
9B
330
17
100
AcDbEntity
  8
Layer
 62
7
100
AcDbLine
 10
9.695860750087263
 20
181.08646517871637
 30
0.0
 11
369.8370096002974
 21
157.92341763253626
 31
0.0
  0
LINE
  5
9C
330
17
100
AcDbEntity
  8
Layer
 62
7
100
AcDbLine
 10
79.62842054477872
 20
176.58864199821596
 30
0.0
 11
91.60367754678211
 21
175.818434405441
 31
0.0
  0
LWPOLYLINE
  5
9D
330
17
100
AcDbEntity
  8
Layer
100
AcDbPolyline
 90
5
 70
0
 10
85.93696887610332
 20
181.19322861932991
 10
90.60573946328184
 20
175.88261837150557
 10
85.29512921545751
 20
171.21384778432704
 10
80.626358628279
 20
176.5244580321514
 10
85.93696887610332
 20
181.19322861932991
  0
LINE
  5
9E
330
17
100
AcDbEntity
  8
Layer
 62
7
100
AcDbLine
 10
166.42040898595533
 20
171.00647800138083
 30
0.0
 11
178.39566598795875
 21
170.23627040860586
 31
0.0
  0
LWPOLYLINE
  5
9F
330
17
100
AcDbEntity
  8
Layer
100
AcDbPolyline
 90
5
 70
0
 10
172.72895731727994
 20
175.61106462249478
 10
177.39772790445846
 20
170.30045437467044
 10
172.08711765663412
 20
165.6316837874919
 10
167.4183470694556
 20
170.94229403531625
 10
172.72895731727994
 20
175.61106462249478
  0
LINE
  5
A0
330
17
100
AcDbEntity
  8
Layer
100
AcDbLine
 10
298.42690909090896
 20
241.01649999999998
 30
0.0
 11
298.42690909090896
 21
242.01649999999998
 31
0.0
  0
LINE
  5
A1
330
17
100
AcDbEntity
  8
Layer
100
AcDbLine
 10
298.42690909090896
 20
158.98350000000002
 30
0.0
 11
298.42690909090896
 21
157.98350000000002
 31
0.0
  0
LINE
  5
A2
330
17
100
AcDbEntity
  8
Layer
100
AcDbLine
 10
337.05239113249684
 20
200.0
 30
0.0
 11
338.05239113249684
 21
200.0
 31
0.0
  0
LINE
  5
A3
330
17
100
AcDbEntity
  8
Layer
100
AcDbLine
 10
259.8014270493211
 20
200.0
 30
0.0
 11
258.8014270493211
 21
200.0
 31
0.0
  0
LINE
  5
A4
330
17
100
AcDbEntity
  8
Layer
 62
7
100
AcDbLine
 10
148.42690909090896
 20
150.92614316220184
 30
0.0
 11
148.42690909090896
 21
245.12321433491695
 31
0.0
  0
LINE
  5
A5
330
17
100
AcDbEntity
  8
Layer
 62
7
100
AcDbLine
 10
148.42690909090896
 20
179.84511807265213
 30
0.0
 11
148.42690909090896
 21
191.84511807265213
 31
0.0
  0
LWPOLYLINE
  5
A6
330
17
100
AcDbEntity
  8
Layer
100
AcDbPolyline
 90
5
 70
0
 10
143.42690909090896
 20
185.84511807265213
 10
148.42690909090896
 20
190.84511807265213
 10
153.42690909090896
 20
185.84511807265213
 10
148.42690909090896
 20
180.84511807265213
 10
143.42690909090896
 20
185.84511807265213
  0
LINE
  5
A7
330
17
100
AcDbEntity
  8
Layer
 62
7
100
AcDbLine
 10
148.42690909090896
 20
204.20423942446666
 30
0.0
 11
148.42690909090896
 21
216.20423942446666
 31
0.0
  0
LWPOLYLINE
  5
A8
330
17
100
AcDbEntity
  8
Layer
100
AcDbPolyline
 90
5
 70
0
 10
143.42690909090896
 20
210.20423942446666
 10
148.42690909090896
 20
215.20423942446666
 10
153.42690909090896
 20
210.20423942446666
 10
148.42690909090896
 20
205.20423942446666
 10
143.42690909090896
 20
210.20423942446666
  0
LWPOLYLINE
  5
A9
330
17
100
AcDbEntity
  8
NumLabel
 62
1
100
AcDbPolyline
 90
5
 70
0
 10
222.52509090909084
 20
172.04909090909092
 10
222.52509090909084
 20
167.04909090909092
 10
227.52509090909084
 20
167.04909090909092
 10
227.52509090909084
 20
172.04909090909092
 10
227.52509090909084
 20
162.04909090909092
  0
LWPOLYLINE
  5
AA
330
17
100
AcDbEntity
  8
NumLabel
 62
1
100
AcDbPolyline
 90
4
 70
0
 10
232.02509090909084
 20
172.04909090909092
 10
230.02509090909084
 20
172.04909090909092
 10
230.02509090909084
 20
162.04909090909092
 10
232.02509090909084
 20
162.04909090909092
  0
LWPOLYLINE
  5
AB
330
17
100
AcDbEntity
  8
NumLabel
 62
1
100
AcDbPolyline
 90
4
 70
0
 10
233.02509090909084
 20
162.04909090909092
 10
235.02509090909084
 20
162.04909090909092
 10
235.02509090909084
 20
172.04909090909092
 10
233.02509090909084
 20
172.04909090909092
  0
LWPOLYLINE
  5
AC
330
17
100
AcDbEntity
  8
NumLabel
 62
1
100
AcDbPolyline
 90
2
 70
0
 10
230.02509090909084
 20
167.04909090909092
 10
232.02509090909084
 20
167.04909090909092
  0
LWPOLYLINE
  5
AD
330
17
100
AcDbEntity
  8
NumLabel
 62
1
100
AcDbPolyline
 90
2
 70
0
 10
233.02509090909084
 20
167.04909090909092
 10
235.02509090909084
 20
167.04909090909092
  0
ENDSEC
  0
SECTION
  2
OBJECTS
  0
DICTIONARY
  5
A
330
0
100
AcDbDictionary
280
0
281
1
  3
ACAD_COLOR
350
B
  3
ACAD_GROUP
350
C
  3
ACAD_LAYOUT
350
D
  3
ACAD_MATERIAL
350
E
  3
ACAD_MLEADERSTYLE
350
F
  3
ACAD_MLINESTYLE
350
10
  3
ACAD_PLOTSETTINGS
350
11
  3
ACAD_PLOTSTYLENAME
350
12
  3
ACAD_SCALELIST
350
14
  3
ACAD_TABLESTYLE
350
15
  3
ACAD_VISUALSTYLE
350
16
  3
EZDXF_META
350
2D
  0
DICTIONARY
  5
B
330
A
100
AcDbDictionary
280
0
281
1
  0
DICTIONARY
  5
C
330
A
100
AcDbDictionary
280
0
281
1
  0
DICTIONARY
  5
D
330
A
100
AcDbDictionary
280
0
281
1
  3
Model
350
1A
  3
Layout1
350
1E
  0
DICTIONARY
  5
E
330
A
100
AcDbDictionary
280
0
281
1
  3
ByBlock
350
1F
  3
ByLayer
350
20
  3
Global
350
21
  0
DICTIONARY
  5
F
330
A
100
AcDbDictionary
280
0
281
1
  3
Standard
350
2C
  0
DICTIONARY
  5
10
330
A
100
AcDbDictionary
280
0
281
1
  3
Standard
350
22
  0
DICTIONARY
  5
11
330
A
100
AcDbDictionary
280
0
281
1
  0
ACDBDICTIONARYWDFLT
  5
12
330
A
100
AcDbDictionary
280
0
281
1
  3
Normal
350
13
100
AcDbDictionaryWithDefault
340
13
  0
ACDBPLACEHOLDER
  5
13
330
12
  0
DICTIONARY
  5
14
330
A
100
AcDbDictionary
280
0
281
1
  0
DICTIONARY
  5
15
330
A
100
AcDbDictionary
280
0
281
1
  0
DICTIONARY
  5
16
330
A
100
AcDbDictionary
280
0
281
1
  3
2dWireframe
350
5A
  3
Basic
350
5B
  3
Brighten
350
5C
  3
ColorChange
350
5D
  3
Conceptual
350
5E
  3
Dim
350
5F
  3
EdgeColorOff
350
60
  3
Facepattern
350
61
  3
Flat
350
62
  3
FlatWithEdges
350
63
  3
Gouraud
350
64
  3
GouraudWithEdges
350
65
  3
Hidden
350
66
  3
JitterOff
350
67
  3
Linepattern
350
68
  3
Modeling
350
69
  3
OverhangOff
350
6A
  3
Realistic
350
6B
  3
Shaded
350
6C
  3
Shaded with edges
350
6D
  3
Shades of Gray
350
6E
  3
Sketchy
350
6F
  3
Thicken
350
70
  3
Wireframe
350
71
  3
X-Ray
350
72
  0
LAYOUT
  5
1A
330
D
100
AcDbPlotSettings
  1

  2
Adobe PDF
  4
A3
  6

 40
7.5
 41
20.0
 42
7.5
 43
20.0
 44
420.0
 45
297.0
 46
0.0
 47
0.0
 48
0.0
 49
0.0
140
0.0
141
0.0
142
1.0
143
1.0
 70
1024
 72
1
 73
0
 74
5
  7

 75
16
 76
0
 77
2
 78
300
147
1.0
148
0.0
149
0.0
100
AcDbLayout
  1
Model
 70
1
 71
0
 10
0.0
 20
0.0
 11
420.0
 21
297.0
 12
0.0
 22
0.0
 32
0.0
 14
1e+20
 24
1e+20
 34
1e+20
 15
-1e+20
 25
-1e+20
 35
-1e+20
146
0.0
 13
0.0
 23
0.0
 33
0.0
 16
1.0
 26
0.0
 36
0.0
 17
0.0
 27
1.0
 37
0.0
 76
1
330
17
  0
LAYOUT
  5
1E
330
D
100
AcDbPlotSettings
  1

  2
Adobe PDF
  4
A3
  6

 40
7.5
 41
20.0
 42
7.5
 43
20.0
 44
420.0
 45
297.0
 46
0.0
 47
0.0
 48
0.0
 49
0.0
140
0.0
141
0.0
142
1.0
143
1.0
 70
0
 72
1
 73
0
 74
5
  7

 75
16
 76
0
 77
2
 78
300
147
1.0
148
0.0
149
0.0
100
AcDbLayout
  1
Layout1
 70
1
 71
1
 10
0.0
 20
0.0
 11
420.0
 21
297.0
 12
0.0
 22
0.0
 32
0.0
 14
1e+20
 24
1e+20
 34
1e+20
 15
-1e+20
 25
-1e+20
 35
-1e+20
146
0.0
 13
0.0
 23
0.0
 33
0.0
 16
1.0
 26
0.0
 36
0.0
 17
0.0
 27
1.0
 37
0.0
 76
1
330
1B
  0
MATERIAL
  5
1F
102
{ACAD_REACTORS
330
E
102
}
330
E
100
AcDbMaterial
  1
ByBlock
  2

 70
0
 40
1.0
 71
1
 41
1.0
 91
-1023410177
 42
1.0
 72
1
  3

 73
1
 74
1
 75
1
 44
0.5
 73
0
 45
1.0
 46
1.0
 77
1
  4

 78
1
 79
1
170
1
 48
1.0
171
1
  6

172
1
173
1
174
1
140
1.0
141
1.0
175
1
  7

176
1
177
1
178
1
143
1.0
179
1
  8

270
1
271
1
272
1
145
1.0
146
1.0
273
1
  9

274
1
275
1
276
1
 42
1.0
 72
1
  3

 73
1
 74
1
 75
1
 94
63
  0
MATERIAL
  5
20
102
{ACAD_REACTORS
330
E
102
}
330
E
100
AcDbMaterial
  1
ByLayer
  2

 70
0
 40
1.0
 71
1
 41
1.0
 91
-1023410177
 42
1.0
 72
1
  3

 73
1
 74
1
 75
1
 44
0.5
 73
0
 45
1.0
 46
1.0
 77
1
  4

 78
1
 79
1
170
1
 48
1.0
171
1
  6

172
1
173
1
174
1
140
1.0
141
1.0
175
1
  7

176
1
177
1
178
1
143
1.0
179
1
  8

270
1
271
1
272
1
145
1.0
146
1.0
273
1
  9

274
1
275
1
276
1
 42
1.0
 72
1
  3

 73
1
 74
1
 75
1
 94
63
  0
MATERIAL
  5
21
102
{ACAD_REACTORS
330
E
102
}
330
E
100
AcDbMaterial
  1
Global
  2

 70
0
 40
1.0
 71
1
 41
1.0
 91
-1023410177
 42
1.0
 72
1
  3

 73
1
 74
1
 75
1
 44
0.5
 73
0
 45
1.0
 46
1.0
 77
1
  4

 78
1
 79
1
170
1
 48
1.0
171
1
  6

172
1
173
1
174
1
140
1.0
141
1.0
175
1
  7

176
1
177
1
178
1
143
1.0
179
1
  8

270
1
271
1
272
1
145
1.0
146
1.0
273
1
  9

274
1
275
1
276
1
 42
1.0
 72
1
  3

 73
1
 74
1
 75
1
 94
63
  0
MLINESTYLE
  5
22
102
{ACAD_REACTORS
330
10
102
}
330
10
100
AcDbMlineStyle
  2
Standard
 70
0
  3

 62
256
 51
90.0
 52
90.0
 71
2
 49
0.5
 62
256
  6
BYLAYER
 49
-0.5
 62
256
  6
BYLAYER
  0
MLEADERSTYLE
  5
2C
102
{ACAD_REACTORS
330
F
102
}
330
F
100
AcDbMLeaderStyle
179
2
170
2
171
1
172
0
 90
2
 40
0.0
 41
0.0
173
1
 91
-1056964608
 92
-2
290
1
 42
2.0
291
1
 43
8.0
  3
Standard
 44
4.0
300

342
29
174
1
175
1
176
0
178
1
 93
-1056964608
 45
4.0
292
0
297
0
 46
4.0
 94
-1056964608
 47
1.0
 49
1.0
140
1.0
294
1
141
0.0
177
0
142
1.0
295
0
296
0
143
3.75
271
0
272
9
273
9
  0
DICTIONARY
  5
2D
330
A
100
AcDbDictionary
281
1
  3
CREATED_BY_EZDXF
350
2E
  3
WRITTEN_BY_EZDXF
350
B0
  0
DICTIONARYVAR
  5
2E
330
2D
100
DictionaryVariables
280
0
  1
1.3.0 @ 2026-01-06T17:07:18.142483+00:00
  0
VISUALSTYLE
  5
5A
102
{ACAD_REACTORS
330
16
102
}
330
16
100
AcDbVisualStyle
  2
2dWireframe
 70
4
 90
0
 40
0.6
 62
7
290
0
291
0
  0
VISUALSTYLE
  5
5B
102
{ACAD_REACTORS
330
16
102
}
330
16
100
AcDbVisualStyle
  2
Basic
 70
7
 90
1
 40
0.6
 62
7
290
0
291
1
  0
VISUALSTYLE
  5
5C
102
{ACAD_REACTORS
330
16
102
}
330
16
100
AcDbVisualStyle
  2
Brighten
 70
12
 90
2
 40
0.6
 62
7
290
0
291
1
  0
VISUALSTYLE
  5
5D
102
{ACAD_REACTORS
330
16
102
}
330
16
100
AcDbVisualStyle
  2
ColorChange
 70
16
 90
2
 40
0.6
 62
8
290
0
291
1
  0
VISUALSTYLE
  5
5E
102
{ACAD_REACTORS
330
16
102
}
330
16
100
AcDbVisualStyle
  2
Conceptual
 70
9
 90
3
 40
0.6
 62
7
290
0
291
0
  0
VISUALSTYLE
  5
5F
102
{ACAD_REACTORS
330
16
102
}
330
16
100
AcDbVisualStyle
  2
Dim
 70
11
 90
2
 40
0.6
 62
7
290
0
291
1
  0
VISUALSTYLE
  5
60
102
{ACAD_REACTORS
330
16
102
}
330
16
100
AcDbVisualStyle
  2
EdgeColorOff
 70
22
 90
2
 40
0.6
 62
7
290
0
291
1
  0
VISUALSTYLE
  5
61
102
{ACAD_REACTORS
330
16
102
}
330
16
100
AcDbVisualStyle
  2
Facepattern
 70
15
 90
2
 40
0.6
 62
7
290
0
291
1
  0
VISUALSTYLE
  5
62
102
{ACAD_REACTORS
330
16
102
}
330
16
100
AcDbVisualStyle
  2
Flat
 70
0
 90
2
 40
0.6
 62
7
290
0
291
1
  0
VISUALSTYLE
  5
63
102
{ACAD_REACTORS
330
16
102
}
330
16
100
AcDbVisualStyle
  2
FlatWithEdges
 70
1
 90
2
 40
0.6
 62
7
290
0
291
1
  0
VISUALSTYLE
  5
64
102
{ACAD_REACTORS
330
16
102
}
330
16
100
AcDbVisualStyle
  2
Gouraud
 70
2
 90
2
 40
0.6
 62
7
290
0
291
1
  0
VISUALSTYLE
  5
65
102
{ACAD_REACTORS
330
16
102
}
330
16
100
AcDbVisualStyle
  2
GouraudWithEdges
 70
3
 90
2
 40
0.6
 62
7
290
0
291
1
  0
VISUALSTYLE
  5
66
102
{ACAD_REACTORS
330
16
102
}
330
16
100
AcDbVisualStyle
  2
Hidden
 70
6
 90
1
 40
0.6
 62
7
290
0
291
0
  0
VISUALSTYLE
  5
67
102
{ACAD_REACTORS
330
16
102
}
330
16
100
AcDbVisualStyle
  2
JitterOff
 70
20
 90
2
 40
0.6
 62
7
290
0
291
1
  0
VISUALSTYLE
  5
68
102
{ACAD_REACTORS
330
16
102
}
330
16
100
AcDbVisualStyle
  2
Linepattern
 70
14
 90
2
 40
0.6
 62
7
290
0
291
1
  0
VISUALSTYLE
  5
69
102
{ACAD_REACTORS
330
16
102
}
330
16
100
AcDbVisualStyle
  2
Modeling
 70
10
 90
2
 40
0.6
 62
7
290
0
291
0
  0
VISUALSTYLE
  5
6A
102
{ACAD_REACTORS
330
16
102
}
330
16
100
AcDbVisualStyle
  2
OverhangOff
 70
21
 90
2
 40
0.6
 62
7
290
0
291
1
  0
VISUALSTYLE
  5
6B
102
{ACAD_REACTORS
330
16
102
}
330
16
100
AcDbVisualStyle
  2
Realistic
 70
8
 90
2
 40
0.6
 62
7
290
0
291
0
  0
VISUALSTYLE
  5
6C
102
{ACAD_REACTORS
330
16
102
}
330
16
100
AcDbVisualStyle
  2
Shaded
 70
27
 90
2
 40
0.6
 62
7
290
0
291
0
  0
VISUALSTYLE
  5
6D
102
{ACAD_REACTORS
330
16
102
}
330
16
100
AcDbVisualStyle
  2
Shaded with edges
 70
26
 90
2
 40
0.6
 62
7
290
0
291
0
  0
VISUALSTYLE
  5
6E
102
{ACAD_REACTORS
330
16
102
}
330
16
100
AcDbVisualStyle
  2
Shades of Gray
 70
23
 90
2
 40
0.6
 62
7
290
0
291
0
  0
VISUALSTYLE
  5
6F
102
{ACAD_REACTORS
330
16
102
}
330
16
100
AcDbVisualStyle
  2
Sketchy
 70
24
 90
1
 40
0.6
 62
7
290
0
291
0
  0
VISUALSTYLE
  5
70
102
{ACAD_REACTORS
330
16
102
}
330
16
100
AcDbVisualStyle
  2
Thicken
 70
13
 90
2
 40
0.6
 62
7
290
0
291
1
  0
VISUALSTYLE
  5
71
102
{ACAD_REACTORS
330
16
102
}
330
16
100
AcDbVisualStyle
  2
Wireframe
 70
5
 90
0
 40
0.6
 62
7
290
0
291
0
  0
VISUALSTYLE
  5
72
102
{ACAD_REACTORS
330
16
102
}
330
16
100
AcDbVisualStyle
  2
X-Ray
 70
25
 90
2
 40
0.5
 62
7
290
0
291
0
  0
DICTIONARYVAR
  5
B0
330
2D
100
DictionaryVariables
280
0
  1
1.3.0 @ 2026-01-06T17:07:18.269563+00:00
  0
ENDSEC
  0
EOF
