  0
SECTION
  2
HEADER
  9
$ACADVER
  1
AC1021
  9
$ACADMAINTVER
 70
25
  9
$DWGCODEPAGE
  3
ANSI_1252
  9
$LASTSAVEDBY
  1
ezdxf
  9
$INSBASE
 10
0.0
 20
0.0
 30
0.0
  9
$EXTMIN
 10
1e+20
 20
1e+20
 30
1e+20
  9
$EXTMAX
 10
-1e+20
 20
-1e+20
 30
-1e+20
  9
$LIMMIN
 10
0.0
 20
0.0
  9
$LIMMAX
 10
420.0
 20
297.0
  9
$ORTHOMODE
 70
0
  9
$REGENMODE
 70
1
  9
$FILLMODE
 70
1
  9
$QTEXTMODE
 70
0
  9
$MIRRTEXT
 70
1
  9
$LTSCALE
 40
1.0
  9
$ATTMODE
 70
1
  9
$TEXTSIZE
 40
2.5
  9
$TRACEWID
 40
1.0
  9
$TEXTSTYLE
  7
OpenSans
  9
$CLAYER
  8
0
  9
$CELTYPE
  6
ByLayer
  9
$CECOLOR
 62
256
  9
$CELTSCALE
 40
1.0
  9
$DISPSILH
 70
0
  9
$DIMSCALE
 40
1.0
  9
$DIMASZ
 40
0.175
  9
$DIMEXO
 40
0.125
  9
$DIMDLI
 40
3.75
  9
$DIMRND
 40
0.0
  9
$DIMDLE
 40
0.0
  9
$DIMEXE
 40
0.375
  9
$DIMTP
 40
0.0
  9
$DIMTM
 40
0.0
  9
$DIMTXT
 40
0.25
  9
$DIMCEN
 40
2.5
  9
$DIMTSZ
 40
0.0
  9
$DIMTOL
 70
0
  9
$DIMLIM
 70
0
  9
$DIMTIH
 70
0
  9
$DIMTOH
 70
0
  9
$DIMSE1
 70
0
  9
$DIMSE2
 70
0
  9
$DIMTAD
 70
1
  9
$DIMZIN
 70
12
  9
$DIMBLK
  1
ARCHTICK
  9
$DIMASO
 70
1
  9
$DIMSHO
 70
1
  9
$DIMPOST
  1

  9
$DIMAPOST
  1

  9
$DIMALT
 70
0
  9
$DIMALTD
 70
3
  9
$DIMALTF
 40
0.03937007874
  9
$DIMLFAC
 40
100.0
  9
$DIMTOFL
 70
1
  9
$DIMTVP
 40
0.0
  9
$DIMTIX
 70
0
  9
$DIMSOXD
 70
0
  9
$DIMSAH
 70
0
  9
$DIMBLK1
  1

  9
$DIMBLK2
  1

  9
$DIMSTYLE
  2
EZDXF
  9
$DIMCLRD
 70
0
  9
$DIMCLRE
 70
0
  9
$DIMCLRT
 70
0
  9
$DIMTFAC
 40
0.5
  9
$DIMGAP
 40
0.1
  9
$DIMJUST
 70
0
  9
$DIMSD1
 70
0
  9
$DIMSD2
 70
0
  9
$DIMTOLJ
 70
0
  9
$DIMTZIN
 70
8
  9
$DIMALTZ
 70
0
  9
$DIMALTTZ
 70
0
  9
$DIMUPT
 70
1
  9
$DIMDEC
 70
2
  9
$DIMTDEC
 70
2
  9
$DIMALTU
 70
2
  9
$DIMALTTD
 70
3
  9
$DIMTXSTY
  7
OpenSansCondensed-Light
  9
$DIMAUNIT
 70
0
  9
$DIMADEC
 70
2
  9
$DIMALTRND
 40
0.0
  9
$DIMAZIN
 70
3
  9
$DIMDSEP
 70
46
  9
$DIMATFIT
 70
3
  9
$DIMFRAC
 70
0
  9
$DIMLDRBLK
  1

  9
$DIMLUNIT
 70
2
  9
$DIMLWD
 70
-2
  9
$DIMLWE
 70
-2
  9
$DIMTMOVE
 70
2
  9
$DIMFXL
 40
1.0
  9
$DIMFXLON
 70
0
  9
$DIMJOGANG
 40
0.785398163397
  9
$DIMTFILL
 70
0
  9
$DIMTFILLCLR
 70
0
  9
$DIMARCSYM
 70
0
  9
$DIMLTYPE
  6

  9
$DIMLTEX1
  6

  9
$DIMLTEX2
  6

  9
$LUNITS
 70
2
  9
$LUPREC
 70
4
  9
$SKETCHINC
 40
1.0
  9
$FILLETRAD
 40
10.0
  9
$AUNITS
 70
0
  9
$AUPREC
 70
2
  9
$MENU
  1
.
  9
$ELEVATION
 40
0.0
  9
$PELEVATION
 40
0.0
  9
$THICKNESS
 40
0.0
  9
$LIMCHECK
 70
0
  9
$CHAMFERA
 40
0.0
  9
$CHAMFERB
 40
0.0
  9
$CHAMFERC
 40
0.0
  9
$CHAMFERD
 40
0.0
  9
$SKPOLY
 70
0
  9
$TDCREATE
 40
2461048.0884722224
  9
$TDUCREATE
 40
2458532.153996898
  9
$TDUPDATE
 40
2461048.0884722224
  9
$TDUUPDATE
 40
2458532.1544311
  9
$TDINDWG
 40
0.0
  9
$TDUSRTIMER
 40
0.0
  9
$USRTIMER
 70
1
  9
$ANGBASE
 50
0.0
  9
$ANGDIR
 70
0
  9
$PDMODE
 70
0
  9
$PDSIZE
 40
0.0
  9
$PLINEWID
 40
0.0
  9
$SPLFRAME
 70
0
  9
$SPLINETYPE
 70
6
  9
$SPLINESEGS
 70
8
  9
$HANDSEED
  5
B9
  9
$SURFTAB1
 70
6
  9
$SURFTAB2
 70
6
  9
$SURFTYPE
 70
6
  9
$SURFU
 70
6
  9
$SURFV
 70
6
  9
$UCSBASE
  2

  9
$UCSNAME
  2

  9
$UCSORG
 10
0.0
 20
0.0
 30
0.0
  9
$UCSXDIR
 10
1.0
 20
0.0
 30
0.0
  9
$UCSYDIR
 10
0.0
 20
1.0
 30
0.0
  9
$UCSORTHOREF
  2

  9
$UCSORTHOVIEW
 70
0
  9
$UCSORGTOP
 10
0.0
 20
0.0
 30
0.0
  9
$UCSORGBOTTOM
 10
0.0
 20
0.0
 30
0.0
  9
$UCSORGLEFT
 10
0.0
 20
0.0
 30
0.0
  9
$UCSORGRIGHT
 10
0.0
 20
0.0
 30
0.0
  9
$UCSORGFRONT
 10
0.0
 20
0.0
 30
0.0
  9
$UCSORGBACK
 10
0.0
 20
0.0
 30
0.0
  9
$PUCSBASE
  2

  9
$PUCSNAME
  2

  9
$PUCSORG
 10
0.0
 20
0.0
 30
0.0
  9
$PUCSXDIR
 10
1.0
 20
0.0
 30
0.0
  9
$PUCSYDIR
 10
0.0
 20
1.0
 30
0.0
  9
$PUCSORTHOREF
  2

  9
$PUCSORTHOVIEW
 70
0
  9
$PUCSORGTOP
 10
0.0
 20
0.0
 30
0.0
  9
$PUCSORGBOTTOM
 10
0.0
 20
0.0
 30
0.0
  9
$PUCSORGLEFT
 10
0.0
 20
0.0
 30
0.0
  9
$PUCSORGRIGHT
 10
0.0
 20
0.0
 30
0.0
  9
$PUCSORGFRONT
 10
0.0
 20
0.0
 30
0.0
  9
$PUCSORGBACK
 10
0.0
 20
0.0
 30
0.0
  9
$USERI1
 70
0
  9
$USERI2
 70
0
  9
$USERI3
 70
0
  9
$USERI4
 70
0
  9
$USERI5
 70
0
  9
$USERR1
 40
0.0
  9
$USERR2
 40
0.0
  9
$USERR3
 40
0.0
  9
$USERR4
 40
0.0
  9
$USERR5
 40
0.0
  9
$WORLDVIEW
 70
1
  9
$SHADEDGE
 70
3
  9
$SHADEDIF
 70
70
  9
$TILEMODE
 70
1
  9
$MAXACTVP
 70
64
  9
$PINSBASE
 10
0.0
 20
0.0
 30
0.0
  9
$PLIMCHECK
 70
0
  9
$PEXTMIN
 10
1e+20
 20
1e+20
 30
1e+20
  9
$PEXTMAX
 10
-1e+20
 20
-1e+20
 30
-1e+20
  9
$PLIMMIN
 10
0.0
 20
0.0
  9
$PLIMMAX
 10
420.0
 20
297.0
  9
$UNITMODE
 70
0
  9
$VISRETAIN
 70
1
  9
$PLINEGEN
 70
0
  9
$PSLTSCALE
 70
1
  9
$TREEDEPTH
 70
3020
  9
$CMLSTYLE
  2
Standard
  9
$CMLJUST
 70
0
  9
$CMLSCALE
 40
20.0
  9
$PROXYGRAPHICS
 70
1
  9
$MEASUREMENT
 70
1
  9
$CELWEIGHT
370
-1
  9
$ENDCAPS
280
0
  9
$JOINSTYLE
280
0
  9
$LWDISPLAY
290
0
  9
$INSUNITS
 70
6
  9
$HYPERLINKBASE
  1

  9
$STYLESHEET
  1

  9
$XEDIT
290
1
  9
$CEPSNTYPE
380
0
  9
$PSTYLEMODE
290
1
  9
$FINGERPRINTGUID
  2
{30CB7D51-5FA1-4A9E-A624-330299E68145}
  9
$VERSIONGUID
  2
{3AD40959-70FF-46A5-A567-58AAB0DE6C7E}
  9
$EXTNAMES
290
1
  9
$PSVPSCALE
 40
0.0
  9
$OLESTARTUP
290
0
  9
$SORTENTS
280
127
  9
$INDEXCTL
280
0
  9
$HIDETEXT
280
1
  9
$XCLIPFRAME
290
1
  9
$HALOGAP
280
0
  9
$OBSCOLOR
 70
257
  9
$OBSLTYPE
280
0
  9
$INTERSECTIONDISPLAY
280
0
  9
$INTERSECTIONCOLOR
 70
257
  9
$DIMASSOC
280
2
  9
$PROJECTNAME
  1

  9
$CAMERADISPLAY
290
0
  9
$LENSLENGTH
 40
50.0
  9
$CAMERAHEIGHT
 40
0.0
  9
$STEPSPERSEC
 40
24.0
  9
$STEPSIZE
 40
100.0
  9
$3DDWFPREC
 40
2.0
  9
$PSOLWIDTH
 40
0.005
  9
$PSOLHEIGHT
 40
0.08
  9
$LOFTANG1
 40
1.570796326795
  9
$LOFTANG2
 40
1.570796326795
  9
$LOFTMAG1
 40
0.0
  9
$LOFTMAG2
 40
0.0
  9
$LOFTPARAM
 70
7
  9
$LOFTNORMALS
280
1
  9
$LATITUDE
 40
37.795
  9
$LONGITUDE
 40
-122.394
  9
$NORTHDIRECTION
 40
0.0
  9
$TIMEZONE
 70
-8000
  9
$LIGHTGLYPHDISPLAY
280
1
  9
$TILEMODELIGHTSYNCH
280
1
  9
$CMATERIAL
347
20
  9
$SOLIDHIST
280
0
  9
$SHOWHIST
280
1
  9
$DWFFRAME
280
2
  9
$DGNFRAME
280
2
  9
$REALWORLDSCALE
290
1
  9
$INTERFERECOLOR
 62
256
  9
$CSHADOW
280
0
  9
$SHADOWPLANELOCATION
 40
0.0
  0
ENDSEC
  0
SECTION
  2
CLASSES
  0
CLASS
  1
ACDBDICTIONARYWDFLT
  2
AcDbDictionaryWithDefault
  3
ObjectDBX Classes
 90
0
 91
0
280
0
281
0
  0
CLASS
  1
SUN
  2
AcDbSun
  3
SCENEOE
 90
1153
 91
0
280
0
281
0
  0
CLASS
  1
VISUALSTYLE
  2
AcDbVisualStyle
  3
ObjectDBX Classes
 90
4095
 91
0
280
0
281
0
  0
CLASS
  1
MATERIAL
  2
AcDbMaterial
  3
ObjectDBX Classes
 90
1153
 91
0
280
0
281
0
  0
CLASS
  1
SCALE
  2
AcDbScale
  3
ObjectDBX Classes
 90
1153
 91
0
280
0
281
0
  0
CLASS
  1
TABLESTYLE
  2
AcDbTableStyle
  3
ObjectDBX Classes
 90
4095
 91
0
280
0
281
0
  0
CLASS
  1
MLEADERSTYLE
  2
AcDbMLeaderStyle
  3
ACDB_MLEADERSTYLE_CLASS
 90
4095
 91
0
280
0
281
0
  0
CLASS
  1
DICTIONARYVAR
  2
AcDbDictionaryVar
  3
ObjectDBX Classes
 90
0
 91
0
280
0
281
0
  0
CLASS
  1
CELLSTYLEMAP
  2
AcDbCellStyleMap
  3
ObjectDBX Classes
 90
1152
 91
0
280
0
281
0
  0
CLASS
  1
MENTALRAYRENDERSETTINGS
  2
AcDbMentalRayRenderSettings
  3
SCENEOE
 90
1024
 91
0
280
0
281
0
  0
CLASS
  1
ACDBDETAILVIEWSTYLE
  2
AcDbDetailViewStyle
  3
ObjectDBX Classes
 90
1025
 91
0
280
0
281
0
  0
CLASS
  1
ACDBSECTIONVIEWSTYLE
  2
AcDbSectionViewStyle
  3
ObjectDBX Classes
 90
1025
 91
0
280
0
281
0
  0
CLASS
  1
RASTERVARIABLES
  2
AcDbRasterVariables
  3
ISM
 90
0
 91
0
280
0
281
0
  0
CLASS
  1
ACDBPLACEHOLDER
  2
AcDbPlaceHolder
  3
ObjectDBX Classes
 90
0
 91
0
280
0
281
0
  0
CLASS
  1
LAYOUT
  2
AcDbLayout
  3
ObjectDBX Classes
 90
0
 91
0
280
0
281
0
  0
ENDSEC
  0
SECTION
  2
TABLES
  0
TABLE
  2
VPORT
  5
8
330
0
100
AcDbSymbolTable
 70
1
  0
VPORT
  5
23
330
8
100
AcDbSymbolTableRecord
100
AcDbViewportTableRecord
  2
*Active
 70
0
 10
0.0
 20
0.0
 11
1.0
 21
1.0
 12
0.0
 22
0.0
 13
0.0
 23
0.0
 14
0.5
 24
0.5
 15
0.5
 25
0.5
 16
0.0
 26
0.0
 36
1.0
 17
0.0
 27
0.0
 37
0.0
 40
1000.0
 41
1.34
 42
50.0
 43
0.0
 44
0.0
 50
0.0
 51
0.0
 71
0
 72
1000
 73
1
 74
3
 75
0
 76
0
 77
0
 78
0
281
0
 65
0
146
0.0
  0
ENDTAB
  0
TABLE
  2
LTYPE
  5
2
330
0
100
AcDbSymbolTable
 70
21
  0
LTYPE
  5
24
330
2
100
AcDbSymbolTableRecord
100
AcDbLinetypeTableRecord
  2
ByBlock
 70
0
  3

 72
65
 73
0
 40
0.0
  0
LTYPE
  5
25
330
2
100
AcDbSymbolTableRecord
100
AcDbLinetypeTableRecord
  2
ByLayer
 70
0
  3

 72
65
 73
0
 40
0.0
  0
LTYPE
  5
26
330
2
100
AcDbSymbolTableRecord
100
AcDbLinetypeTableRecord
  2
Continuous
 70
0
  3

 72
65
 73
0
 40
0.0
  0
LTYPE
  5
2F
330
2
100
AcDbSymbolTableRecord
100
AcDbLinetypeTableRecord
  2
CENTER
 70
0
  3
Center ____ _ ____ _ ____ _ ____ _ ____ _ ____
 72
65
 73
4
 40
5.08
 49
3.175
 74
0
 49
-0.635
 74
0
 49
0.635
 74
0
 49
-0.635
 74
0
  0
LTYPE
  5
30
330
2
100
AcDbSymbolTableRecord
100
AcDbLinetypeTableRecord
  2
CENTERX2
 70
0
  3
Center (2x) ________  __  ________  __  ________
 72
65
 73
4
 40
8.89
 49
6.35
 74
0
 49
-0.635
 74
0
 49
1.27
 74
0
 49
-0.635
 74
0
  0
LTYPE
  5
31
330
2
100
AcDbSymbolTableRecord
100
AcDbLinetypeTableRecord
  2
CENTER2
 70
0
  3
Center (.5x) ____ _ ____ _ ____ _ ____ _ ____
 72
65
 73
4
 40
2.54
 49
1.587
 74
0
 49
-0.318
 74
0
 49
0.318
 74
0
 49
-0.318
 74
0
  0
LTYPE
  5
32
330
2
100
AcDbSymbolTableRecord
100
AcDbLinetypeTableRecord
  2
DASHED
 70
0
  3
Dashed __ __ __ __ __ __ __ __ __ __ __ __ __ _
 72
65
 73
2
 40
1.524
 49
1.27
 74
0
 49
-0.254
 74
0
  0
LTYPE
  5
33
330
2
100
AcDbSymbolTableRecord
100
AcDbLinetypeTableRecord
  2
DASHEDX2
 70
0
  3
Dashed (2x) ____  ____  ____  ____  ____  ____
 72
65
 73
2
 40
3.048
 49
2.54
 74
0
 49
-0.508
 74
0
  0
LTYPE
  5
34
330
2
100
AcDbSymbolTableRecord
100
AcDbLinetypeTableRecord
  2
DASHED2
 70
0
  3
Dashed (.5x) _ _ _ _ _ _ _ _ _ _ _ _ _ _
 72
65
 73
2
 40
0.762
 49
0.635
 74
0
 49
-0.127
 74
0
  0
LTYPE
  5
35
330
2
100
AcDbSymbolTableRecord
100
AcDbLinetypeTableRecord
  2
PHANTOM
 70
0
  3
Phantom ______  __  __  ______  __  __  ______
 72
65
 73
6
 40
6.35
 49
3.175
 74
0
 49
-0.635
 74
0
 49
0.635
 74
0
 49
-0.635
 74
0
 49
0.635
 74
0
 49
-0.635
 74
0
  0
LTYPE
  5
36
330
2
100
AcDbSymbolTableRecord
100
AcDbLinetypeTableRecord
  2
PHANTOMX2
 70
0
  3
Phantom (2x)____________    ____    ____    ____________
 72
65
 73
6
 40
10.795
 49
6.35
 74
0
 49
-0.635
 74
0
 49
1.27
 74
0
 49
-0.635
 74
0
 49
1.27
 74
0
 49
-0.635
 74
0
  0
LTYPE
  5
37
330
2
100
AcDbSymbolTableRecord
100
AcDbLinetypeTableRecord
  2
PHANTOM2
 70
0
  3
Phantom (.5x) ___ _ _ ___ _ _ ___ _ _ ___ _ _ ___
 72
65
 73
6
 40
3.175
 49
1.587
 74
0
 49
-0.318
 74
0
 49
0.318
 74
0
 49
-0.318
 74
0
 49
0.318
 74
0
 49
-0.318
 74
0
  0
LTYPE
  5
38
330
2
100
AcDbSymbolTableRecord
100
AcDbLinetypeTableRecord
  2
DASHDOT
 70
0
  3
Dash dot __ . __ . __ . __ . __ . __ . __ . __
 72
65
 73
4
 40
3.556
 49
2.54
 74
0
 49
-0.508
 74
0
 49
0.0
 74
0
 49
-0.508
 74
0
  0
LTYPE
  5
39
330
2
100
AcDbSymbolTableRecord
100
AcDbLinetypeTableRecord
  2
DASHDOTX2
 70
0
  3
Dash dot (2x) ____  .  ____  .  ____  .  ____
 72
65
 73
4
 40
6.096
 49
5.08
 74
0
 49
-0.508
 74
0
 49
0.0
 74
0
 49
-0.508
 74
0
  0
LTYPE
  5
3A
330
2
100
AcDbSymbolTableRecord
100
AcDbLinetypeTableRecord
  2
DASHDOT2
 70
0
  3
Dash dot (.5x) _ . _ . _ . _ . _ . _ . _ . _
 72
65
 73
4
 40
1.778
 49
1.27
 74
0
 49
-0.254
 74
0
 49
0.0
 74
0
 49
-0.254
 74
0
  0
LTYPE
  5
3B
330
2
100
AcDbSymbolTableRecord
100
AcDbLinetypeTableRecord
  2
DOT
 70
0
  3
Dot .  .  .  .  .  .  .  .  .  .  .  .  .  .  .  .
 72
65
 73
2
 40
0.508
 49
0.0
 74
0
 49
-0.508
 74
0
  0
LTYPE
  5
3C
330
2
100
AcDbSymbolTableRecord
100
AcDbLinetypeTableRecord
  2
DOTX2
 70
0
  3
Dot (2x) .    .    .    .    .    .    .    . 
 72
65
 73
2
 40
1.016
 49
0.0
 74
0
 49
-1.016
 74
0
  0
LTYPE
  5
3D
330
2
100
AcDbSymbolTableRecord
100
AcDbLinetypeTableRecord
  2
DOT2
 70
0
  3
Dot (.5) . . . . . . . . . . . . . . . . . . . 
 72
65
 73
2
 40
0.254
 49
0.0
 74
0
 49
-0.254
 74
0
  0
LTYPE
  5
3E
330
2
100
AcDbSymbolTableRecord
100
AcDbLinetypeTableRecord
  2
DIVIDE
 70
0
  3
Divide __ . . __ . . __ . . __ . . __ . . __
 72
65
 73
6
 40
4.064
 49
2.54
 74
0
 49
-0.508
 74
0
 49
0.0
 74
0
 49
-0.508
 74
0
 49
0.0
 74
0
 49
-0.508
 74
0
  0
LTYPE
  5
3F
330
2
100
AcDbSymbolTableRecord
100
AcDbLinetypeTableRecord
  2
DIVIDEX2
 70
0
  3
Divide (2x) ____  . .  ____  . .  ____  . .  ____
 72
65
 73
6
 40
6.604
 49
5.08
 74
0
 49
-0.508
 74
0
 49
0.0
 74
0
 49
-0.508
 74
0
 49
0.0
 74
0
 49
-0.508
 74
0
  0
LTYPE
  5
40
330
2
100
AcDbSymbolTableRecord
100
AcDbLinetypeTableRecord
  2
DIVIDE2
 70
0
  3
Divide(.5x) _ . _ . _ . _ . _ . _ . _ . _
 72
65
 73
6
 40
2.032
 49
1.27
 74
0
 49
-0.254
 74
0
 49
0.0
 74
0
 49
-0.254
 74
0
 49
0.0
 74
0
 49
-0.254
 74
0
  0
ENDTAB
  0
TABLE
  2
LAYER
  5
1
330
0
100
AcDbSymbolTable
 70
4
  0
LAYER
  5
27
330
1
100
AcDbSymbolTableRecord
100
AcDbLayerTableRecord
  2
0
 70
0
 62
7
  6
Continuous
370
-3
390
13
347
21
  0
LAYER
  5
28
330
1
100
AcDbSymbolTableRecord
100
AcDbLayerTableRecord
  2
Defpoints
 70
0
 62
7
  6
Continuous
290
0
370
-3
390
13
347
21
  0
LAYER
  5
8A
330
1
100
AcDbSymbolTableRecord
100
AcDbLayerTableRecord
  2
Layer
 70
0
 62
1
  6
Continuous
370
50
390
13
347
21
  0
LAYER
  5
8B
330
1
100
AcDbSymbolTableRecord
100
AcDbLayerTableRecord
  2
NumLabel
 70
0
 62
1
  6
Continuous
370
15
390
13
347
21
  0
ENDTAB
  0
TABLE
  2
STYLE
  5
5
330
0
100
AcDbSymbolTable
 70
26
  0
STYLE
  5
29
330
5
100
AcDbSymbolTableRecord
100
AcDbTextStyleTableRecord
  2
Standard
 70
0
 40
0.0
 41
1.0
 50
0.0
 71
0
 42
2.5
  3
txt
  4

  0
STYLE
  5
41
330
5
100
AcDbSymbolTableRecord
100
AcDbTextStyleTableRecord
  2
OpenSans-Light
 70
0
 40
0.0
 41
1.0
 50
0.0
 71
0
 42
2.5
  3
OpenSans-Light.ttf
  4

  0
STYLE
  5
42
330
5
100
AcDbSymbolTableRecord
100
AcDbTextStyleTableRecord
  2
OpenSans-Light-Italic
 70
0
 40
0.0
 41
1.0
 50
0.0
 71
0
 42
2.5
  3
OpenSans-LightItalic.ttf
  4

  0
STYLE
  5
43
330
5
100
AcDbSymbolTableRecord
100
AcDbTextStyleTableRecord
  2
OpenSans
 70
0
 40
0.0
 41
1.0
 50
0.0
 71
0
 42
2.5
  3
OpenSans-Regular.ttf
  4

  0
STYLE
  5
44
330
5
100
AcDbSymbolTableRecord
100
AcDbTextStyleTableRecord
  2
OpenSans-Italic
 70
0
 40
0.0
 41
1.0
 50
0.0
 71
0
 42
2.5
  3
OpenSans-Italic.ttf
  4

  0
STYLE
  5
45
330
5
100
AcDbSymbolTableRecord
100
AcDbTextStyleTableRecord
  2
OpenSans-SemiBold
 70
0
 40
0.0
 41
1.0
 50
0.0
 71
0
 42
2.5
  3
OpenSans-SemiBold.ttf
  4

  0
STYLE
  5
46
330
5
100
AcDbSymbolTableRecord
100
AcDbTextStyleTableRecord
  2
OpenSans-SemiBoldItalic
 70
0
 40
0.0
 41
1.0
 50
0.0
 71
0
 42
2.5
  3
OpenSans-SemiBoldItalic.ttf
  4

  0
STYLE
  5
47
330
5
100
AcDbSymbolTableRecord
100
AcDbTextStyleTableRecord
  2
OpenSans-Bold
 70
0
 40
0.0
 41
1.0
 50
0.0
 71
0
 42
2.5
  3
OpenSans-Bold.ttf
  4

  0
STYLE
  5
48
330
5
100
AcDbSymbolTableRecord
100
AcDbTextStyleTableRecord
  2
OpenSans-BoldItalic
 70
0
 40
0.0
 41
1.0
 50
0.0
 71
0
 42
2.5
  3
OpenSans-BoldItalic.ttf
  4

  0
STYLE
  5
49
330
5
100
AcDbSymbolTableRecord
100
AcDbTextStyleTableRecord
  2
OpenSans-ExtraBold
 70
0
 40
0.0
 41
1.0
 50
0.0
 71
0
 42
2.5
  3
OpenSans-ExtraBold.ttf
  4

  0
STYLE
  5
4A
330
5
100
AcDbSymbolTableRecord
100
AcDbTextStyleTableRecord
  2
OpenSans-ExtraBoldItalic
 70
0
 40
0.0
 41
1.0
 50
0.0
 71
0
 42
2.5
  3
OpenSans-ExtraBoldItalic.ttf
  4

  0
STYLE
  5
4B
330
5
100
AcDbSymbolTableRecord
100
AcDbTextStyleTableRecord
  2
OpenSansCondensed-Bold
 70
0
 40
0.0
 41
1.0
 50
0.0
 71
0
 42
2.5
  3
OpenSansCondensed-Bold.ttf
  4

  0
STYLE
  5
4C
330
5
100
AcDbSymbolTableRecord
100
AcDbTextStyleTableRecord
  2
OpenSansCondensed-Light
 70
0
 40
0.0
 41
1.0
 50
0.0
 71
0
 42
2.5
  3
OpenSansCondensed-Light.ttf
  4

  0
STYLE
  5
4D
330
5
100
AcDbSymbolTableRecord
100
AcDbTextStyleTableRecord
  2
OpenSansCondensed-Italic
 70
0
 40
0.0
 41
1.0
 50
0.0
 71
0
 42
2.5
  3
OpenSansCondensed-LightItalic.ttf
  4

  0
STYLE
  5
4E
330
5
100
AcDbSymbolTableRecord
100
AcDbTextStyleTableRecord
  2
LiberationSans
 70
0
 40
0.0
 41
1.0
 50
0.0
 71
0
 42
2.5
  3
LiberationSans-Regular.ttf
  4

  0
STYLE
  5
4F
330
5
100
AcDbSymbolTableRecord
100
AcDbTextStyleTableRecord
  2
LiberationSans-Bold
 70
0
 40
0.0
 41
1.0
 50
0.0
 71
0
 42
2.5
  3
LiberationSans-Bold.ttf
  4

  0
STYLE
  5
50
330
5
100
AcDbSymbolTableRecord
100
AcDbTextStyleTableRecord
  2
LiberationSans-BoldItalic
 70
0
 40
0.0
 41
1.0
 50
0.0
 71
0
 42
2.5
  3
LiberationSans-BoldItalic.ttf
  4

  0
STYLE
  5
51
330
5
100
AcDbSymbolTableRecord
100
AcDbTextStyleTableRecord
  2
LiberationSans-Italic
 70
0
 40
0.0
 41
1.0
 50
0.0
 71
0
 42
2.5
  3
LiberationSans-Italic.ttf
  4

  0
STYLE
  5
52
330
5
100
AcDbSymbolTableRecord
100
AcDbTextStyleTableRecord
  2
LiberationSerif
 70
0
 40
0.0
 41
1.0
 50
0.0
 71
0
 42
2.5
  3
LiberationSerif-Regular.ttf
  4

  0
STYLE
  5
53
330
5
100
AcDbSymbolTableRecord
100
AcDbTextStyleTableRecord
  2
LiberationSerif-Bold
 70
0
 40
0.0
 41
1.0
 50
0.0
 71
0
 42
2.5
  3
LiberationSerif-Bold.ttf
  4

  0
STYLE
  5
54
330
5
100
AcDbSymbolTableRecord
100
AcDbTextStyleTableRecord
  2
LiberationSerif-BoldItalic
 70
0
 40
0.0
 41
1.0
 50
0.0
 71
0
 42
2.5
  3
LiberationSerif-BoldItalic.ttf
  4

  0
STYLE
  5
55
330
5
100
AcDbSymbolTableRecord
100
AcDbTextStyleTableRecord
  2
LiberationSerif-Italic
 70
0
 40
0.0
 41
1.0
 50
0.0
 71
0
 42
2.5
  3
LiberationSerif-Italic.ttf
  4

  0
STYLE
  5
56
330
5
100
AcDbSymbolTableRecord
100
AcDbTextStyleTableRecord
  2
LiberationMono
 70
0
 40
0.0
 41
1.0
 50
0.0
 71
0
 42
2.5
  3
LiberationMono-Regular.ttf
  4

  0
STYLE
  5
57
330
5
100
AcDbSymbolTableRecord
100
AcDbTextStyleTableRecord
  2
LiberationMono-Bold
 70
0
 40
0.0
 41
1.0
 50
0.0
 71
0
 42
2.5
  3
LiberationMono-Bold.ttf
  4

  0
STYLE
  5
58
330
5
100
AcDbSymbolTableRecord
100
AcDbTextStyleTableRecord
  2
LiberationMono-BoldItalic
 70
0
 40
0.0
 41
1.0
 50
0.0
 71
0
 42
2.5
  3
LiberationMono-BoldItalic.ttf
  4

  0
STYLE
  5
59
330
5
100
AcDbSymbolTableRecord
100
AcDbTextStyleTableRecord
  2
LiberationMono-Italic
 70
0
 40
0.0
 41
1.0
 50
0.0
 71
0
 42
2.5
  3
LiberationMono-Italic.ttf
  4

  0
ENDTAB
  0
TABLE
  2
VIEW
  5
7
330
0
100
AcDbSymbolTable
 70
0
  0
ENDTAB
  0
TABLE
  2
UCS
  5
6
330
0
100
AcDbSymbolTable
 70
0
  0
ENDTAB
  0
TABLE
  2
APPID
  5
3
330
0
100
AcDbSymbolTable
 70
3
  0
APPID
  5
2A
330
3
100
AcDbSymbolTableRecord
100
AcDbRegAppTableRecord
  2
ACAD
 70
0
  0
APPID
  5
B6
330
3
100
AcDbSymbolTableRecord
100
AcDbRegAppTableRecord
  2
HATCHBACKGROUNDCOLOR
 70
0
  0
APPID
  5
B7
330
3
100
AcDbSymbolTableRecord
100
AcDbRegAppTableRecord
  2
EZDXF
 70
0
  0
ENDTAB
  0
TABLE
  2
DIMSTYLE
  5
4
330
0
100
AcDbSymbolTable
 70
12
100
AcDbDimStyleTable
  0
DIMSTYLE
105
2B
330
4
100
AcDbSymbolTableRecord
100
AcDbDimStyleTableRecord
  2
Standard
 70
0
 40
1.0
 41
2.5
 42
0.625
 43
3.75
 44
1.25
 45
0.0
 46
0.0
 47
0.0
 48
0.0
 49
2.5
140
2.5
141
2.5
142
0.0
143
0.03937007874
144
1.0
145
0.0
146
1.0
147
0.625
148
0.0
 69
0
 70
0
 71
0
 72
0
 73
0
 74
0
 75
0
 76
0
 77
1
 78
8
 79
3
170
0
171
3
172
1
173
0
174
0
175
0
176
0
177
0
178
0
179
2
271
2
272
2
273
2
274
3
275
0
276
0
277
2
278
44
279
0
280
0
281
0
282
0
283
0
284
8
285
0
286
0
288
0
289
3
290
0
371
-2
372
-2
  0
DIMSTYLE
105
73
330
4
100
AcDbSymbolTableRecord
100
AcDbDimStyleTableRecord
  2
EZDXF
 70
0
 40
1.0
 41
0.175
 42
0.125
 43
3.75
 44
0.375
 45
0.0
 46
0.0
 47
0.0
 48
0.0
 49
2.5
140
0.25
141
2.5
142
0.0
143
0.03937007874
144
100.0
145
0.0
146
0.5
147
0.1
148
0.0
 69
0
 70
0
 71
0
 72
0
 73
0
 74
0
 75
0
 76
0
 77
1
 78
12
 79
3
170
0
171
3
172
1
173
0
174
0
175
0
176
0
177
0
178
0
179
2
271
2
272
2
273
2
274
3
275
0
276
0
277
2
278
46
279
2
280
0
281
0
282
0
283
0
284
8
285
0
286
0
288
1
289
3
290
0
340
4C
342
74
371
-2
372
-2
  0
DIMSTYLE
105
7C
330
4
100
AcDbSymbolTableRecord
100
AcDbDimStyleTableRecord
  2
EZ_M_100_H25_CM
 70
0
 40
1.0
 41
0.25
 42
0.125
 43
3.75
 44
0.375
 45
0.0
 46
0.0
 47
0.0
 48
0.0
 49
2.5
140
0.25
141
2.5
142
0.125
143
0.03937007874
144
100.0
145
0.0
146
0.5
147
0.1
148
0.0
 69
0
 70
0
 71
0
 72
0
 73
0
 74
0
 75
0
 76
0
 77
1
 78
12
 79
3
170
0
171
3
172
1
173
0
174
0
175
0
176
0
177
0
178
0
179
2
271
2
272
2
273
2
274
3
275
0
276
0
277
2
278
46
279
2
280
0
281
0
282
0
283
0
284
8
285
0
286
0
288
1
289
3
290
0
340
4C
371
-2
372
-2
  0
DIMSTYLE
105
7D
330
4
100
AcDbSymbolTableRecord
100
AcDbDimStyleTableRecord
  2
EZ_M_50_H25_CM
 70
0
 40
1.0
 41
0.125
 42
0.0625
 43
3.75
 44
0.1875
 45
0.0
 46
0.0
 47
0.0
 48
0.0
 49
2.5
140
0.125
141
2.5
142
0.0625
143
0.03937007874
144
100.0
145
0.0
146
0.5
147
0.05
148
0.0
 69
0
 70
0
 71
0
 72
0
 73
0
 74
0
 75
0
 76
0
 77
1
 78
12
 79
3
170
0
171
3
172
1
173
0
174
0
175
0
176
0
177
0
178
0
179
2
271
2
272
2
273
2
274
3
275
0
276
0
277
2
278
46
279
2
280
0
281
0
282
0
283
0
284
8
285
0
286
0
288
1
289
3
290
0
340
4C
371
-2
372
-2
  0
DIMSTYLE
105
7E
330
4
100
AcDbSymbolTableRecord
100
AcDbDimStyleTableRecord
  2
EZ_M_25_H25_CM
 70
0
 40
1.0
 41
0.0625
 42
0.03125
 43
3.75
 44
0.09375
 45
0.0
 46
0.0
 47
0.0
 48
0.0
 49
2.5
140
0.0625
141
2.5
142
0.03125
143
0.03937007874
144
100.0
145
0.0
146
0.5
147
0.025
148
0.0
 69
0
 70
0
 71
0
 72
0
 73
0
 74
0
 75
0
 76
0
 77
1
 78
12
 79
3
170
0
171
3
172
1
173
0
174
0
175
0
176
0
177
0
178
0
179
2
271
2
272
2
273
2
274
3
275
0
276
0
277
2
278
46
279
2
280
0
281
0
282
0
283
0
284
8
285
0
286
0
288
1
289
3
290
0
340
4C
371
-2
372
-2
  0
DIMSTYLE
105
7F
330
4
100
AcDbSymbolTableRecord
100
AcDbDimStyleTableRecord
  2
EZ_M_20_H25_CM
 70
0
 40
1.0
 41
0.05
 42
0.025
 43
3.75
 44
0.07500000000000001
 45
0.0
 46
0.0
 47
0.0
 48
0.0
 49
2.5
140
0.05
141
2.5
142
0.025
143
0.03937007874
144
100.0
145
0.0
146
0.5
147
0.020000000000000004
148
0.0
 69
0
 70
0
 71
0
 72
0
 73
0
 74
0
 75
0
 76
0
 77
1
 78
12
 79
3
170
0
171
3
172
1
173
0
174
0
175
0
176
0
177
0
178
0
179
2
271
2
272
2
273
2
274
3
275
0
276
0
277
2
278
46
279
2
280
0
281
0
282
0
283
0
284
8
285
0
286
0
288
1
289
3
290
0
340
4C
371
-2
372
-2
  0
DIMSTYLE
105
80
330
4
100
AcDbSymbolTableRecord
100
AcDbDimStyleTableRecord
  2
EZ_M_10_H25_CM
 70
0
 40
1.0
 41
0.025
 42
0.0125
 43
3.75
 44
0.037500000000000006
 45
0.0
 46
0.0
 47
0.0
 48
0.0
 49
2.5
140
0.025
141
2.5
142
0.0125
143
0.03937007874
144
100.0
145
0.0
146
0.5
147
0.010000000000000002
148
0.0
 69
0
 70
0
 71
0
 72
0
 73
0
 74
0
 75
0
 76
0
 77
1
 78
12
 79
3
170
0
171
3
172
1
173
0
174
0
175
0
176
0
177
0
178
0
179
2
271
2
272
2
273
2
274
3
275
0
276
0
277
2
278
46
279
2
280
0
281
0
282
0
283
0
284
8
285
0
286
0
288
1
289
3
290
0
340
4C
371
-2
372
-2
  0
DIMSTYLE
105
81
330
4
100
AcDbSymbolTableRecord
100
AcDbDimStyleTableRecord
  2
EZ_M_5_H25_CM
 70
0
 40
1.0
 41
0.0125
 42
0.00625
 43
3.75
 44
0.018750000000000003
 45
0.0
 46
0.0
 47
0.0
 48
0.0
 49
2.5
140
0.0125
141
2.5
142
0.00625
143
0.03937007874
144
100.0
145
0.0
146
0.5
147
0.005000000000000001
148
0.0
 69
0
 70
0
 71
0
 72
0
 73
0
 74
0
 75
0
 76
0
 77
1
 78
12
 79
3
170
0
171
3
172
1
173
0
174
0
175
0
176
0
177
0
178
0
179
2
271
2
272
2
273
2
274
3
275
0
276
0
277
2
278
46
279
2
280
0
281
0
282
0
283
0
284
8
285
0
286
0
288
1
289
3
290
0
340
4C
371
-2
372
-2
  0
DIMSTYLE
105
82
330
4
100
AcDbSymbolTableRecord
100
AcDbDimStyleTableRecord
  2
EZ_M_1_H25_CM
 70
0
 40
1.0
 41
0.0025
 42
0.00125
 43
3.75
 44
0.00375
 45
0.0
 46
0.0
 47
0.0
 48
0.0
 49
2.5
140
0.0025
141
2.5
142
0.00125
143
0.03937007874
144
100.0
145
0.0
146
0.5
147
0.001
148
0.0
 69
0
 70
0
 71
0
 72
0
 73
0
 74
0
 75
0
 76
0
 77
1
 78
12
 79
3
170
0
171
3
172
1
173
0
174
0
175
0
176
0
177
0
178
0
179
2
271
2
272
2
273
2
274
3
275
0
276
0
277
2
278
46
279
2
280
0
281
0
282
0
283
0
284
8
285
0
286
0
288
1
289
3
290
0
340
4C
371
-2
372
-2
  0
DIMSTYLE
105
83
330
4
100
AcDbSymbolTableRecord
100
AcDbDimStyleTableRecord
  2
EZ_RADIUS
 70
0
 40
1.0
 41
0.25
 42
0.125
 43
3.75
 44
0.375
 45
0.0
 46
0.0
 47
0.0
 48
0.0
 49
2.5
140
0.25
141
0.0
142
0.0
143
0.03937007874
144
100.0
145
0.0
146
0.5
147
0.1
148
0.0
 69
0
 70
0
 71
0
 72
0
 73
0
 74
0
 75
0
 76
0
 77
1
 78
12
 79
3
170
0
171
3
172
0
173
0
174
0
175
0
176
0
177
0
178
0
179
2
271
2
272
2
273
2
274
3
275
0
276
0
277
2
278
46
279
1
280
0
281
0
282
0
283
0
284
8
285
0
286
0
288
1
289
3
290
0
340
4C
342
84
371
-2
372
-2
  0
DIMSTYLE
105
88
330
4
100
AcDbSymbolTableRecord
100
AcDbDimStyleTableRecord
  2
EZ_RADIUS_INSIDE
 70
0
 40
1.0
 41
0.25
 42
0.125
 43
3.75
 44
0.375
 45
0.0
 46
0.0
 47
0.0
 48
0.0
 49
2.5
140
0.25
141
0.0
142
0.0
143
0.03937007874
144
100.0
145
0.0
146
0.5
147
0.1
148
0.0
 69
0
 70
0
 71
0
 72
0
 73
0
 74
0
 75
0
 76
0
 77
0
 78
12
 79
3
170
0
171
3
172
0
173
0
174
1
175
0
176
0
177
0
178
0
179
2
271
2
272
2
273
2
274
3
275
0
276
0
277
2
278
46
279
0
280
0
281
0
282
0
283
0
284
8
285
0
286
0
288
1
289
0
290
0
340
4C
342
84
371
-2
372
-2
  0
DIMSTYLE
105
89
330
4
100
AcDbSymbolTableRecord
100
AcDbDimStyleTableRecord
  2
EZ_CURVED
 70
0
 40
1.0
 41
0.25
 42
0.125
 43
3.75
 44
0.375
 45
0.0
 46
0.0
 47
0.0
 48
0.0
 49
2.5
140
0.25
141
2.5
142
0.0
143
0.03937007874
144
100.0
145
0.0
146
0.5
147
0.1
148
0.0
 69
0
 70
0
 71
0
 72
0
 73
0
 74
0
 75
0
 76
0
 77
1
 78
12
 79
2
 90
2
170
0
171
3
172
1
173
0
174
0
175
0
176
0
177
0
178
0
179
2
271
2
272
2
273
2
274
3
275
0
276
0
277
2
278
46
279
2
280
0
281
0
282
0
283
0
284
8
285
0
286
0
288
1
289
3
290
0
340
4C
371
-2
372
-2
  0
ENDTAB
  0
TABLE
  2
BLOCK_RECORD
  5
9
330
0
100
AcDbSymbolTable
 70
5
  0
BLOCK_RECORD
  5
17
330
9
100
AcDbSymbolTableRecord
100
AcDbBlockTableRecord
  2
*Model_Space
340
1A
 70
0
280
1
281
0
  0
BLOCK_RECORD
  5
1B
330
9
100
AcDbSymbolTableRecord
100
AcDbBlockTableRecord
  2
*Paper_Space
340
1E
 70
0
280
1
281
0
  0
BLOCK_RECORD
  5
74
330
9
100
AcDbSymbolTableRecord
100
AcDbBlockTableRecord
  2
_ARCHTICK
340
0
 70
0
280
1
281
0
  0
BLOCK_RECORD
  5
78
330
9
100
AcDbSymbolTableRecord
100
AcDbBlockTableRecord
  2
_CLOSEDFILLED
340
0
 70
0
280
1
281
0
  0
BLOCK_RECORD
  5
84
330
9
100
AcDbSymbolTableRecord
100
AcDbBlockTableRecord
  2
_CLOSEDBLANK
340
0
 70
0
280
1
281
0
  0
ENDTAB
  0
ENDSEC
  0
SECTION
  2
BLOCKS
  0
BLOCK
  5
18
330
17
100
AcDbEntity
  8
0
100
AcDbBlockBegin
  2
*Model_Space
 70
0
 10
0.0
 20
0.0
 30
0.0
  3
*Model_Space
  1

  0
ENDBLK
  5
19
330
17
100
AcDbEntity
  8
0
100
AcDbBlockEnd
  0
BLOCK
  5
1C
330
1B
100
AcDbEntity
  8
0
100
AcDbBlockBegin
  2
*Paper_Space
 70
0
 10
0.0
 20
0.0
 30
0.0
  3
*Paper_Space
  1

  0
ENDBLK
  5
1D
330
1B
100
AcDbEntity
  8
0
100
AcDbBlockEnd
  0
BLOCK
  5
75
330
74
100
AcDbEntity
  8
0
100
AcDbBlockBegin
  2
_ARCHTICK
 70
0
 10
0.0
 20
0.0
 30
0.0
  3
_ARCHTICK
  1

  0
LWPOLYLINE
  5
77
330
74
100
AcDbEntity
  8
0
  6
BYBLOCK
 62
0
100
AcDbPolyline
 90
2
 70
0
 43
0.15
 10
-0.5
 20
-0.5
 10
0.5
 20
0.5
  0
ENDBLK
  5
76
330
74
100
AcDbEntity
  8
0
100
AcDbBlockEnd
  0
BLOCK
  5
79
330
78
100
AcDbEntity
  8
0
100
AcDbBlockBegin
  2
_CLOSEDFILLED
 70
0
 10
0.0
 20
0.0
 30
0.0
  3
_CLOSEDFILLED
  1

  0
SOLID
  5
7B
330
78
100
AcDbEntity
  8
0
  6
BYBLOCK
 62
0
100
AcDbTrace
 10
-1.0
 20
0.16439898372402537
 30
0.0
 11
0.0
 21
0.0
 31
0.0
 12
-1.0
 22
-0.16439898372402537
 32
0.0
 13
-1.0
 23
-0.16439898372402537
 33
0.0
  0
ENDBLK
  5
7A
330
78
100
AcDbEntity
  8
0
100
AcDbBlockEnd
  0
BLOCK
  5
85
330
84
100
AcDbEntity
  8
0
100
AcDbBlockBegin
  2
_CLOSEDBLANK
 70
0
 10
0.0
 20
0.0
 30
0.0
  3
_CLOSEDBLANK
  1

  0
LWPOLYLINE
  5
87
330
84
100
AcDbEntity
  8
0
  6
BYBLOCK
 62
0
100
AcDbPolyline
 90
3
 70
1
 10
-1.0
 20
0.16439898372402537
 10
0.0
 20
0.0
 10
-1.0
 20
-0.16439898372402537
  0
ENDBLK
  5
86
330
84
100
AcDbEntity
  8
0
100
AcDbBlockEnd
  0
ENDSEC
  0
SECTION
  2
ENTITIES
  0
LWPOLYLINE
  5
8C
330
17
100
AcDbEntity
  8
Layer
100
AcDbPolyline
 90
261
 70
1
 10
591.6960709902437
 20
160.86785213053662
 10
589.0965279901897
 20
161.476801337948
 10
584.8588107403965
 20
162.48379156110397
 10
580.2913434621148
 20
163.60172737777768
 10
575.4812291546283
 20
164.79866832384
 10
570.4962333764989
 20
166.05784246390454
 10
565.3940707790908
 20
167.36810575633552
 10
560.2096535530416
 20
168.72658153744032
 10
554.9661430493558
 20
170.11718159624144
 10
549.6899191546023
 20
171.539514273566
 10
544.3850095620893
 20
172.99343143225767
 10
539.0577631731138
 20
174.46616491011284
 10
533.7269557796616
 20
175.95695002941898
 10
528.3949380279802
 20
177.4731822668881
 10
523.0573987345026
 20
179.0149401789389
 10
517.7109529537333
 20
180.56824408662376
 10
512.3543687108333
 20
182.12202733997904
 10
506.9985477884728
 20
183.69214711094273
 10
501.6338891729321
 20
185.27550326196308
 10
496.26813988491347
 20
186.86119294902633
 10
490.9099790125963
 20
188.44838666610528
 10
485.56352883048385
 20
190.03949107139687
 10
480.2267570057371
 20
191.63136509643797
 10
474.89859981836076
 20
193.20752588541043
 10
469.57281905180446
 20
194.7780359817079
 10
464.2513076288234
 20
196.34743103216633
 10
458.9358775426701
 20
197.89879005296854
 10
453.6210993233624
 20
199.43357767027936
 10
448.31574453585597
 20
200.9533883872226
 10
447.6379771452255
 20
201.144650894728
 10
447.3663889371303
 20
200.18223734264984
 10
442.75716358851224
 20
201.4829549089357
 10
437.4677400303071
 20
202.94848427245776
 10
432.18400560292105
 20
204.3908442005119
 10
426.90014014698215
 20
205.8046577503729
 10
421.61421607697537
 20
207.19481940196172
 10
416.3342495695433
 20
208.55872143089573
 10
411.05798567986244
 20
209.89023285888203
 10
405.7758864067695
 20
211.18898854491252
 10
400.48548822276314
 20
212.45858435486832
 10
395.18573857677484
 20
213.70140779398412
 10
389.8839666499217
 20
214.91989868432483
 10
384.58391657927547
 20
216.10813136123033
 10
379.28085304286435
 20
217.26484834633519
 10
373.9746372627964
 20
218.38806876195852
 10
368.6530207265444
 20
219.4816334599749
 10
363.33609932731633
 20
220.5520869679088
 10
358.0221382515073
 20
221.58235108329612
 10
352.6901356614543
 20
222.57864309839147
 10
347.3485960647843
 20
223.54989367056254
 10
342.0088538744124
 20
224.49351476253779
 10
336.66839659814383
 20
225.4030745416126
 10
331.32129160744717
 20
226.2784425934624
 10
325.96420432155634
 20
227.1225125424843
 10
320.59935245972974
 20
227.93845651119028
 10
315.2323257653511
 20
228.72634205418345
 10
309.86386772285925
 20
229.48154636176508
 10
304.4829175864709
 20
230.20502849505533
 10
299.0985074610308
 20
230.90365760432226
 10
293.71586316140565
 20
231.57205865801993
 10
288.33160215626384
 20
232.2087300461791
 10
282.9468802314487
 20
232.81287407972818
 10
277.556894305616
 20
233.38235331060346
 10
272.1552041247461
 20
233.92317394464996
 10
266.76233892326445
 20
234.43893679603303
 10
261.3704986433553
 20
234.91582067275777
 10
255.97172508098734
 20
235.36313870338694
 10
250.58143256415863
 20
235.77954838432478
 10
245.19229970987726
 20
236.15863116989797
 10
239.79985151379543
 20
236.50334759408082
 10
234.41046617823514
 20
236.81572042532596
 10
229.0221022873836
 20
237.09202345178122
 10
223.6327621459325
 20
237.33479150356715
 10
218.25000342161152
 20
237.54588145523917
 10
212.8789357719344
 20
237.72043421362918
 10
207.51312612890064
 20
237.85200282652082
 10
202.1407774271416
 20
237.9460503258892
 10
196.7853026240773
 20
238.0088340267793
 10
191.43374165092519
 20
238.02294653565104
 10
186.08034262933057
 20
238.003897040989
 10
180.74453553694255
 20
237.9465575740499
 10
175.41665768400742
 20
237.84731567003945
 10
170.10684005757054
 20
237.70696973602156
 10
164.8057183892074
 20
237.51815383896792
 10
159.51377834286814
 20
237.28556077115883
 10
154.2311381655153
 20
237.00841621278443
 10
148.96519776226762
 20
236.69061131714807
 10
143.7195015906098
 20
236.3244133701487
 10
138.48747045445742
 20
235.90955407000197
 10
133.27309345022286
 20
235.4482541343221
 10
128.07917078246112
 20
234.9425507277483
 10
122.92215909302647
 20
234.39353407500047
 10
117.80379422031201
 20
233.7893335734383
 10
112.71148558188226
 20
233.12636575102056
 10
107.65747530696706
 20
232.41500878862772
 10
102.64470417455155
 20
231.6455106061222
 10
97.6719822782832
 20
230.81824643923804
 10
92.7361808866215
 20
229.93326515636286
 10
87.84998647671682
 20
229.00255262034798
 10
83.03359148854724
 20
228.02041277654726
 10
78.28476465192921
 20
226.97834852052569
 10
73.60836871866871
 20
225.874289783339
 10
69.00088050823493
 20
224.70442952040784
 10
64.4733224902347
 20
223.46891238923362
 10
60.01453331233199
 20
222.16019693867153
 10
55.65208182085874
 20
220.79812916620642
 10
51.392685356511436
 20
219.35641809228298
 10
47.24283203755431
 20
217.8485395709842
 10
43.23273522276844
 20
216.27186980475472
 10
39.37499751542282
 20
214.62756426956656
 10
35.711923794792284
 20
212.93272129516825
 10
32.287592990449554
 20
211.20315533210237
 10
29.12658971468261
 20
209.44470644659316
 10
26.276088752215998
 20
207.72307673560348
 10
23.766728499961317
 20
206.05784565794622
 10
21.593719611054013
 20
204.47060313555292
 10
19.731439710148777
 20
202.9780332576235
 10
18.16718734955421
 20
201.61900354677508
 10
16.84131371877183
 20
200.31818785352792
 10
15.720695000157718
 20
199.13933236085387
 10
14.792236474652128
 20
198.06176413673916
 10
14.017684935744683
 20
197.03926073724676
 10
13.365959124866492
 20
196.07012143484278
 10
12.823759188233566
 20
195.17746988951285
 10
12.372038162497233
 20
194.32665132575053
 10
11.988361373395094
 20
193.50662761890885
 10
11.667820304502271
 20
192.75641528488222
 10
11.405652566681766
 20
192.05015144335516
 10
11.191265226382626
 20
191.3698052076843
 10
11.020831007976312
 20
190.74505967785197
 10
10.888320678322714
 20
190.129080612894
 10
10.784969151790364
 20
189.54782105246028
 10
10.713675267577202
 20
189.0704023455954
 10
10.720314065254911
 20
188.5585936849602
 10
10.729565559253246
 20
187.9648944756461
 10
10.751946698940714
 20
187.40201783020592
 10
10.809796922922914
 20
186.8429753083439
 10
10.924554401579883
 20
186.2612937015004
 10
11.11153437115911
 20
185.64474671443227
 10
11.376503682640589
 20
184.99732078355595
 10
11.727014204714834
 20
184.3219877717869
 10
12.17487957717401
 20
183.6183255450548
 10
12.730493939699187
 20
182.88795499958658
 10
13.402509243497207
 20
182.1356484622494
 10
14.206919292636144
 20
181.36539629451525
 10
15.168011944725151
 20
180.58000021490471
 10
16.322292131251004
 20
179.77758131675245
 10
17.705987213369724
 20
178.94995325395445
 10
19.330520203818907
 20
178.08986069936282
 10
21.212676125307638
 20
177.2056628053375
 10
23.421382578572008
 20
176.31833801643842
 10
26.014609595291404
 20
175.42890226482584
 10
28.99052941018917
 20
174.52349944258546
 10
32.29960227665626
 20
173.6169022821264
 10
35.9239035936113
 20
172.76155588807796
 10
39.82960316856207
 20
171.95235881759294
 10
43.916107388505
 20
171.1908558252827
 10
48.14456368692004
 20
170.50487817495087
 10
52.510733625238174
 20
169.8971318082383
 10
57.01817238926847
 20
169.3365580232646
 10
61.60015616025504
 20
168.78869562130595
 10
66.18265635007239
 20
168.27380374077205
 10
70.80647844632924
 20
167.83716165102072
 10
75.53599294438257
 20
167.44955492982498
 10
80.32570603967315
 20
167.06361940595366
 10
85.14520783100386
 20
166.69087839473008
 10
89.9931450894423
 20
166.34575778450392
 10
94.88110096750395
 20
166.03847260777496
 10
99.83389556793529
 20
165.7664656859676
 10
104.85790801318328
 20
165.51620580806417
 10
109.94803227472701
 20
165.28086658550558
 10
115.09616248610207
 20
165.0541116635843
 10
120.27678545206653
 20
164.83782123147074
 10
124.8019853826065
 20
164.6709252352116
 10
124.7651289759752
 20
163.6716046633778
 10
125.46204949135213
 20
163.6459005805483
 10
130.7226236543955
 20
163.4602596387258
 10
136.0339609035733
 20
163.30703373427713
 10
141.40370622472057
 20
163.16853957608623
 10
146.82163895656674
 20
163.03299181116546
 10
152.27754883274883
 20
162.90917433929488
 10
157.76295901108563
 20
162.79510826589996
 10
163.2685996655436
 20
162.6910667834042
 10
168.7896371592967
 20
162.59892947047445
 10
174.32624898316882
 20
162.52087958353752
 10
179.8805338074109
 20
162.45620633826493
 10
185.4508786346149
 20
162.40133858076874
 10
191.03216836052792
 20
162.3525049415279
 10
196.62088007161017
 20
162.30849155508295
 10
202.2169123230148
 20
162.268111905135
 10
207.81946823384368
 20
162.23050436531196
 10
213.42530620588482
 20
162.19786699082033
 10
219.0338620253839
 20
162.17210575364
 10
224.64660038165567
 20
162.15180951275738
 10
230.25979641303542
 20
162.13377647461687
 10
235.87259055452895
 20
162.12025915928814
 10
241.48863686427697
 20
162.11251480597346
 10
247.10751480280567
 20
162.10951478868753
 10
252.72881112352667
 20
162.11287281993862
 10
258.35492938792305
 20
162.12184637852172
 10
263.983589273791
 20
162.13213681270767
 10
269.6097409430709
 20
162.1394475885292
 10
275.230166072516
 20
162.14814864129926
 10
280.8428637555503
 20
162.16440743037003
 10
286.45246825978734
 20
162.19097882204628
 10
292.06490445010843
 20
162.22757887947637
 10
297.6829244669522
 20
162.2686957109525
 10
303.30316700781066
 20
162.30799335846478
 10
308.9228767669308
 20
162.34345383157935
 10
314.5385797394089
 20
162.38013781107782
 10
320.1477547540162
 20
162.42418590658914
 10
325.75425333971435
 20
162.47867033383852
 10
331.36044109185394
 20
162.54084003731847
 10
336.96280038329024
 20
162.6007692400452
 10
342.56379607326204
 20
162.6508954273859
 10
348.1684320106948
 20
162.6956758548803
 10
353.7686728290457
 20
162.74164151451254
 10
359.36525281180684
 20
162.79450747163864
 10
364.9650231543886
 20
162.85620252793856
 10
370.56766154331865
 20
162.92112981417785
 10
376.16333489929696
 20
162.97998997934508
 10
381.7507703689912
 20
163.02972452988075
 10
387.33179782668515
 20
163.08124603086588
 10
392.90929420336965
 20
163.1442504466421
 10
398.48873395055375
 20
163.21961330020707
 10
404.0703601367225
 20
163.29791060337436
 10
409.6536636377243
 20
163.3692980166635
 10
415.24015097931294
 20
163.42954449472938
 10
420.8335460713133
 20
163.48147849922333
 10
426.4316054685793
 20
163.5292790097519
 10
432.0253854027074
 20
163.575804786548
 10
437.6058403684024
 20
163.6269418925858
 10
443.1792295619506
 20
163.67730406109467
 10
448.7488085084783
 20
163.71095746437476
 10
454.3283611561644
 20
163.7281519697998
 10
459.91880965268865
 20
163.74026029729092
 10
465.510419929819
 20
163.75296638860178
 10
471.09456556767987
 20
163.7628475163258
 10
476.67034744273855
 20
163.76552460038837
 10
482.2411737555417
 20
163.75652770276963
 10
487.81152880735704
 20
163.73419558647717
 10
493.37998337856766
 20
163.70361835139218
 10
498.93488330618106
 20
163.66567657626632
 10
504.4734578421103
 20
163.60919166884094
 10
510.0109081731981
 20
163.53364802373076
 10
515.5505289315248
 20
163.45401912623396
 10
521.0867060769508
 20
163.36999753321183
 10
526.610323554581
 20
163.26738505578794
 10
532.1214114437371
 20
163.14878755357063
 10
537.620317766356
 20
163.01263151968638
 10
543.101967275467
 20
162.8664720657979
 10
548.5571923407682
 20
162.70138917749105
 10
553.9841640897473
 20
162.51880520919144
 10
559.3690348223745
 20
162.3217265024068
 10
564.6947768979647
 20
162.10717735726067
 10
569.9449892806324
 20
161.87176041501135
 10
575.0855595051195
 20
161.62594189443445
 10
580.0524994847517
 20
161.37441253997463
 10
584.7630650681278
 20
161.11822061373846
 10
589.1215845583025
 20
160.85979157577842
 10
591.7858241503689
 20
160.68844338114846
  0
LWPOLYLINE
  5
8D
330
17
100
AcDbEntity
  8
Layer
100
AcDbPolyline
 90
5
 70
0
 10
390.8435402385153
 20
210.60548580332593
 10
386.94042352771555
 20
211.4805171981201
 10
387.81545492250973
 20
215.3836339089199
 10
391.71857163330947
 20
214.50860251412573
 10
390.8435402385153
 20
210.60548580332593
  0
LWPOLYLINE
  5
8E
330
17
100
AcDbEntity
  8
Layer
100
AcDbPolyline
 90
5
 70
0
 10
171.49448581342637
 20
233.7538707623759
 10
167.49702209477266
 20
233.61144949273054
 10
167.3546008251273
 20
237.60891321138425
 10
171.352064543781
 20
237.7513344810296
 10
171.49448581342637
 20
233.7538707623759
  0
LWPOLYLINE
  5
8F
330
17
100
AcDbEntity
  8
Layer
100
AcDbPolyline
 90
5
 70
0
 10
72.7020786818875
 20
221.51715784288638
 10
68.82514528481936
 20
220.53258309473483
 10
67.84057053666781
 20
224.409516491803
 10
71.71750393373596
 20
225.39409123995455
 10
72.7020786818875
 20
221.51715784288638
  0
LWPOLYLINE
  5
90
330
17
100
AcDbEntity
  8
Layer
100
AcDbPolyline
 90
5
 70
0
 10
23.71995258589251
 20
199.82139277054432
 10
22.211869601477797
 20
198.5077391966829
 10
18.927735666824308
 20
202.27794665771967
 10
20.43581865123902
 20
203.59160023158108
 10
23.71995258589251
 20
199.82139277054432
  0
LWPOLYLINE
  5
91
330
17
100
AcDbEntity
  8
Layer
100
AcDbPolyline
 90
5
 70
0
 10
17.447035511789238
 20
185.0831143073314
 10
19.09196855162942
 20
183.94548726192414
 10
16.247900938111172
 20
179.8331546623237
 10
14.602967898270991
 20
180.97078170773096
 10
17.447035511789238
 20
185.0831143073314
  0
LWPOLYLINE
  5
92
330
17
100
AcDbEntity
  8
Layer
100
AcDbPolyline
 90
5
 70
0
 10
93.91839570925646
 20
170.0973674750087
 10
97.91237779239307
 20
169.8780341223611
 10
97.69304443974545
 20
165.88405203922446
 10
93.69906235660883
 20
166.10338539187205
 10
93.91839570925646
 20
170.0973674750087
  0
LINE
  5
93
330
17
100
AcDbEntity
  8
Layer
100
AcDbLine
 10
572.3027625258068
 20
165.60152617211125
 30
0.0
 11
572.0799707067791
 21
164.62666012727516
 31
0.0
  0
LINE
  5
94
330
17
100
AcDbEntity
  8
Layer
100
AcDbLine
 10
571.8420270770159
 20
162.7820609704524
 30
0.0
 11
571.8101840567707
 21
161.7825680880057
 31
0.0
  0
LINE
  5
95
330
17
100
AcDbEntity
  8
Layer
100
AcDbLine
 10
552.9483195510926
 20
170.66113430861722
 30
0.0
 11
552.7104336465113
 21
169.68984120331814
 31
0.0
  0
LINE
  5
96
330
17
100
AcDbEntity
  8
Layer
100
AcDbLine
 10
551.8622764341512
 20
163.59075619694855
 30
0.0
 11
551.8261339208049
 21
162.5914095510198
 31
0.0
  0
LINE
  5
97
330
17
100
AcDbEntity
  8
Layer
100
AcDbLine
 10
476.0671823521466
 20
192.86183901776414
 30
0.0
 11
475.8028812487743
 21
191.89739880356927
 31
0.0
  0
LINE
  5
98
330
17
100
AcDbEntity
  8
Layer
100
AcDbLine
 10
471.85036956646013
 20
164.762962006327
 30
0.0
 11
471.8285571410029
 21
163.76319992558194
 31
0.0
  0
LWPOLYLINE
  5
99
330
17
100
AcDbEntity
  8
Layer
100
AcDbPolyline
 90
300
 70
1
 10
260.588864678899
 20
200.0
 10
260.58247265040444
 20
200.61451438636504
 10
260.56329938746075
 20
201.22875742047637
 10
260.53135335644095
 20
201.84245786990172
 10
260.4866486638131
 20
202.45534474179905
 10
260.429205049911
 20
203.06714740257917
 10
260.3590478802174
 20
203.67759569741003
 10
260.2762081341634
 20
204.28642006950946
 10
260.18072239144897
 20
204.89335167917383
 10
260.0726328158899
 20
205.49812252249018
 10
259.95198713679997
 20
206.10046554967903
 10
259.8188386279147
 20
206.7001147830163
 10
259.6732460838674
 20
207.29680543428128
 10
259.51527379422697
 20
207.89027402167994
 10
259.3449915151093
 20
208.48025848619093
 10
259.1624744383752
 20
209.06649830728344
 10
258.96780315842784
 20
209.64873461795577
 10
258.7610636366241
 20
210.2267103190438
 10
258.54234716331683
 20
210.80017019274857
 10
258.31175031754367
 20
211.36886101533344
 10
258.06937492438
 20
211.9325316689404
 10
257.8153280099763
 20
212.49093325247688
 10
257.54972175429833
 20
213.04381919152317
 10
257.2726734415915
 20
213.590945347213
 10
256.98430540859135
 20
214.1320701240382
 10
256.68474499050353
 20
214.66695457653066
 10
256.3741244647755
 20
215.19536251477373
 10
256.05258099268724
 20
215.7170606086972
 10
255.7202565587842
 20
216.23181849110918
 10
255.37729790818102
 20
216.73940885941983
 10
255.02385648176315
 20
217.23960757601176
 10
254.66008834931472
 20
217.7321937672129
 10
254.2861541406025
 20
218.21694992082803
 10
253.9022189744464
 20
218.6936619821862
 10
253.5084523858076
 20
219.16211944866112
 10
253.10502825092664
 20
219.62211546262316
 10
252.69212471054462
 20
220.07344690278202
 10
252.26992409124128
 20
220.5159144738792
 10
251.83861282492467
 20
220.9493227946913
 10
251.39838136650806
 20
221.37348048430476
 10
250.9494241098105
 20
221.7882002466244
 10
250.49193930171788
 20
222.193298953078
 10
250.02612895464273
 20
222.58859772348075
 10
249.5521987573212
 20
222.97392200502384
 10
249.0703579839868
 20
223.34910164935178
 10
248.5808194019606
 20
223.7139709876954
 10
248.08379917769938
 20
224.0683689040264
 10
247.57951678134248
 20
224.41213890620162
 10
247.0681948898
 20
224.74512919506563
 10
246.55005928842496
 20
225.06719273148093
 10
246.0253387713128
 20
225.37818730125625
 10
245.4942650402724
 20
225.6779755779445
 10
244.95707260251302
 20
225.96642518348202
 10
244.41399866709264
 20
226.24340874664324
 10
243.86528304017295
 20
226.50880395928402
 10
243.31116801912788
 20
226.7624936303497
 10
242.75189828555165
 20
227.00436573762315
 10
242.1877207972146
 20
227.2343134771908
 10
241.6188846790133
 20
227.45223531060412
 10
241.04564111296418
 20
227.6580350097163
 10
240.46824322728853
 20
227.8516216991736
 10
239.88694598463823
 20
228.03290989654369
 10
239.3020060695115
 20
228.2018195500621
 10
238.71368177490808
 20
228.35827607398085
 10
238.12223288827448
 20
228.50221038150337
 10
237.52792057678909
 20
228.6335589152914
 10
236.93100727203807
 20
228.75226367553
 10
236.331756554133
 20
228.85827224553879
 10
235.7304330353213
 20
228.95153781491743
 10
235.12730224314095
 20
229.03201920021607
 10
234.52263050317094
 20
229.09968086312057
 10
233.91668482142947
 20
229.1544929261454
 10
233.30973276647148
 20
229.1964311858265
 10
232.70204235123805
 20
229.22547712340904
 10
232.0938819147094
 20
229.24161791302464
 10
231.48552000341385
 20
229.244846427355
 10
230.87722525284536
 20
229.23516124077904
 10
230.2692662688416
 20
229.21256663000256
 10
229.66191150897512
 20
229.17707257216955
 10
229.05542916401015
 20
229.12869474045684
 10
228.4500870394771
 20
229.06745449715294
 10
227.84615243741703
 20
228.99337888422534
 10
227.24389203834878
 20
228.90650061137939
 10
226.64357178351025
 20
228.80685804161467
 10
226.0454567574263
 20
228.69449517428492
 10
225.4498110708548
 20
228.56946162566922
 10
224.8568977441628
 20
228.4318126070628
 10
224.26697859118423
 20
228.2816089003973
 10
223.68031410361013
 20
228.11891683140115
 10
223.0971633359629
 20
227.94380824031208
 10
222.5177837912052
 20
227.7563604501544
 10
221.9424313070338
 20
227.55665623259537
 10
221.37135994290884
 20
227.34478377139558
 10
220.80482186786844
 20
227.12083662346942
 10
220.24306724917784
 20
226.88491367757302
 10
219.68634414186258
 20
226.63711911063783
 10
219.1348983791745
 20
226.3775623417689
 10
218.58897346403853
 20
226.10635798392852
 10
218.0488104615288
 20
225.8236257933264
 10
217.514647892421
 20
225.5294906165387
 10
216.9867216278684
 20
225.22408233537925
 10
216.46526478524763
 20
224.90753580954737
 10
215.95050762522084
 20
224.57999081707777
 10
215.44267745005885
 20
224.2415919926183
 10
214.94199850327104
 20
223.8924887635636
 10
214.44869187058558
 20
223.5328352840719
 10
213.96297538232437
 20
223.1627903669951
 10
213.4850635172151
 20
222.78251741375138
 10
213.01516730768367
 20
222.39218434217182
 10
212.55349424666807
 20
221.99196351235247
 10
212.10024819599545
 20
221.5820316505451
 10
211.65562929636235
 20
221.16256977111985
 10
211.2198338789583
 20
220.7337630966343
 10
210.79305437877156
 20
220.29580097604457
 10
210.375479249615
 20
219.8488768010939
 10
209.9672928809105
 20
219.39318792091657
 10
209.56867551626752
 20
218.92893555489388
 10
209.17980317389276
 20
218.45632470380147
 10
208.8008475688654
 20
217.97556405928657
 10
208.4319760373126
 20
217.48686591171588
 10
208.07335146251856
 20
216.99044605643394
 10
207.72513220299976
 20
216.4865236984741
 10
207.3874720225785
 20
215.97532135576353
 10
207.06052002248484
 20
215.45706476086593
 10
206.74442057551803
 20
214.93198276130408
 10
206.43931326229526
 20
214.40030721850732
 10
206.1453328096169
 20
213.86227290542806
 10
205.86260903097502
 20
213.31811740287264
 10
205.5912667692312
 20
212.76808099459245
 10
205.3314258414897
 20
212.21240656118118
 10
205.08320098618935
 20
211.65133947282578
 10
204.84670181243843
 20
211.08512748095777
 10
204.62203275161437
 20
210.51402060885323
 10
204.40929301124973
 20
209.9382710412296
 10
204.208576531225
 20
209.35813301288792
 10
204.0199719422873
 20
208.77386269644992
 10
203.84356252691376
 20
208.1857180892395
 10
203.679426182536
 20
207.59395889935823
 10
203.5276353871431
 20
206.9988464310057
 10
203.38825716727723
 20
206.40064346909477
 10
203.26135306843665
 20
205.7996141632134
 10
203.14697912789885
 20
205.1960239109833
 10
203.04518584997624
 20
204.59013924086818
 10
202.95601818371478
 20
203.982227694482
 10
202.8795155030457
 20
203.37255770845022
 10
202.81571158939911
 20
202.76139849587574
 10
202.76463461678716
 20
202.14901992746204
 10
202.7263071393631
 20
201.53569241234575
 10
202.70074608146194
 20
200.92168677869168
 10
202.68796273012734
 20
200.30727415410269
 10
202.68796273012734
 20
199.69272584589734
 10
202.70074608146194
 20
199.07831322130832
 10
202.7263071393631
 20
198.46430758765425
 10
202.76463461678716
 20
197.85098007253796
 10
202.81571158939911
 20
197.23860150412426
 10
202.8795155030457
 20
196.62744229154978
 10
202.95601818371478
 20
196.017772305518
 10
203.04518584997624
 20
195.40986075913182
 10
203.14697912789885
 20
194.8039760890167
 10
203.26135306843665
 20
194.20038583678664
 10
203.38825716727723
 20
193.59935653090523
 10
203.5276353871431
 20
193.0011535689943
 10
203.679426182536
 20
192.40604110064177
 10
203.84356252691373
 20
191.8142819107605
 10
204.0199719422873
 20
191.22613730355008
 10
204.208576531225
 20
190.6418669871121
 10
204.40929301124973
 20
190.0617289587704
 10
204.62203275161437
 20
189.48597939114677
 10
204.84670181243843
 20
188.91487251904223
 10
205.08320098618935
 20
188.34866052717422
 10
205.3314258414897
 20
187.78759343881882
 10
205.5912667692312
 20
187.23191900540758
 10
205.862609030975
 20
186.68188259712736
 10
206.1453328096169
 20
186.13772709457197
 10
206.43931326229526
 20
185.59969278149268
 10
206.74442057551803
 20
185.06801723869592
 10
207.06052002248484
 20
184.54293523913404
 10
207.3874720225785
 20
184.02467864423647
 10
207.72513220299976
 20
183.51347630152594
 10
208.07335146251856
 20
183.00955394356606
 10
208.4319760373126
 20
182.51313408828412
 10
208.8008475688654
 20
182.02443594071343
 10
209.17980317389276
 20
181.54367529619853
 10
209.56867551626752
 20
181.0710644451061
 10
209.9672928809105
 20
180.60681207908343
 10
210.375479249615
 20
180.1511231989061
 10
210.79305437877156
 20
179.70419902395545
 10
211.2198338789583
 20
179.2662369033657
 10
211.65562929636235
 20
178.83743022888015
 10
212.10024819599545
 20
178.4179683494549
 10
212.55349424666807
 20
178.00803648764753
 10
213.01516730768367
 20
177.60781565782818
 10
213.4850635172151
 20
177.21748258624862
 10
213.96297538232434
 20
176.83720963300493
 10
214.44869187058558
 20
176.4671647159281
 10
214.941998503271
 20
176.1075112364364
 10
215.44267745005885
 20
175.7584080073817
 10
215.95050762522084
 20
175.42000918292223
 10
216.46526478524765
 20
175.09246419045263
 10
216.9867216278684
 20
174.77591766462075
 10
217.51464789242104
 20
174.4705093834613
 10
218.0488104615288
 20
174.1763742066736
 10
218.58897346403853
 20
173.89364201607148
 10
219.1348983791745
 20
173.6224376582311
 10
219.68634414186258
 20
173.36288088936217
 10
220.24306724917784
 20
173.11508632242698
 10
220.80482186786844
 20
172.87916337653058
 10
221.37135994290884
 20
172.65521622860442
 10
221.9424313070338
 20
172.44334376740463
 10
222.5177837912052
 20
172.2436395498456
 10
223.0971633359629
 20
172.05619175968792
 10
223.68031410361013
 20
171.88108316859885
 10
224.26697859118423
 20
171.7183910996027
 10
224.8568977441628
 20
171.5681873929372
 10
225.4498110708548
 20
171.43053837433078
 10
226.0454567574263
 20
171.30550482571508
 10
226.64357178351025
 20
171.19314195838533
 10
227.24389203834878
 20
171.09349938862061
 10
227.84615243741703
 20
171.00662111577466
 10
228.45008703947707
 20
170.93254550284706
 10
229.05542916401015
 20
170.8713052595432
 10
229.6619115089751
 20
170.82292742783045
 10
230.2692662688416
 20
170.78743336999744
 10
230.87722525284536
 20
170.76483875922096
 10
231.48552000341385
 20
170.755153572645
 10
232.0938819147094
 20
170.75838208697536
 10
232.70204235123805
 20
170.77452287659096
 10
233.30973276647148
 20
170.8035688141735
 10
233.91668482142947
 20
170.8455070738546
 10
234.52263050317094
 20
170.90031913687943
 10
235.12730224314095
 20
170.96798079978393
 10
235.7304330353213
 20
171.04846218508257
 10
236.331756554133
 20
171.14172775446121
 10
236.93100727203807
 20
171.24773632447
 10
237.52792057678909
 20
171.36644108470858
 10
238.12223288827448
 20
171.49778961849663
 10
238.71368177490808
 20
171.64172392601915
 10
239.3020060695115
 20
171.7981804499379
 10
239.88694598463823
 20
171.96709010345631
 10
240.46824322728853
 20
172.1483783008264
 10
241.04564111296418
 20
172.3419649902837
 10
241.6188846790133
 20
172.54776468939588
 10
242.18772079721458
 20
172.7656865228092
 10
242.75189828555165
 20
172.99563426237685
 10
243.31116801912788
 20
173.2375063696503
 10
243.86528304017298
 20
173.49119604071598
 10
244.41399866709264
 20
173.75659125335676
 10
244.95707260251305
 20
174.03357481651798
 10
245.4942650402724
 20
174.3220244220555
 10
246.0253387713128
 20
174.62181269874372
 10
246.55005928842496
 20
174.93280726851907
 10
247.0681948898
 20
175.25487080493437
 10
247.57951678134248
 20
175.58786109379835
 10
248.08379917769938
 20
175.9316310959736
 10
248.58081940196058
 20
176.2860290123046
 10
249.07035798398678
 20
176.65089835064822
 10
249.5521987573212
 20
177.02607799497616
 10
250.02612895464273
 20
177.41140227651925
 10
250.49193930171788
 20
177.806701046922
 10
250.9494241098105
 20
178.2117997533756
 10
251.39838136650806
 20
178.62651951569524
 10
251.83861282492467
 20
179.0506772053087
 10
252.26992409124128
 20
179.4840855261208
 10
252.69212471054462
 20
179.92655309721798
 10
253.10502825092664
 20
180.37788453737681
 10
253.5084523858076
 20
180.83788055133888
 10
253.9022189744464
 20
181.3063380178138
 10
254.2861541406025
 20
181.78305007917197
 10
254.66008834931472
 20
182.2678062327871
 10
255.02385648176315
 20
182.76039242398824
 10
255.37729790818102
 20
183.26059114058017
 10
255.7202565587842
 20
183.76818150889082
 10
256.05258099268724
 20
184.2829393913028
 10
256.3741244647755
 20
184.80463748522627
 10
256.68474499050353
 20
185.33304542346934
 10
256.98430540859135
 20
185.8679298759618
 10
257.2726734415915
 20
186.409054652787
 10
257.54972175429833
 20
186.95618080847683
 10
257.8153280099763
 20
187.50906674752312
 10
258.06937492438
 20
188.06746833105956
 10
258.3117503175436
 20
188.63113898466656
 10
258.54234716331683
 20
189.1998298072514
 10
258.7610636366241
 20
189.7732896809562
 10
258.96780315842784
 20
190.35126538204423
 10
259.1624744383752
 20
190.93350169271656
 10
259.3449915151093
 20
191.51974151380907
 10
259.51527379422697
 20
192.10972597832006
 10
259.6732460838674
 20
192.70319456571872
 10
259.8188386279147
 20
193.2998852169837
 10
259.95198713679997
 20
193.89953445032097
 10
260.0726328158899
 20
194.50187747750982
 10
260.18072239144897
 20
195.10664832082617
 10
260.2762081341634
 20
195.71357993049057
 10
260.3590478802174
 20
196.32240430259
 10
260.429205049911
 20
196.93285259742083
 10
260.4866486638131
 20
197.54465525820095
 10
260.53135335644095
 20
198.15754213009828
 10
260.56329938746075
 20
198.77124257952363
 10
260.58247265040444
 20
199.38548561363496
 10
260.588864678899
 20
200.0
  0
LINE
  5
9A
330
17
100
AcDbEntity
  8
Layer
 62
7
100
AcDbLine
 10
16.538844699528255
 20
200.00000000000003
 30
0.0
 11
451.6438324274046
 21
199.99999999999997
 31
0.0
  0
LINE
  5
9B
330
17
100
AcDbEntity
  8
Layer
 62
7
100
AcDbLine
 10
101.45984224510354
 20
200.00000000000003
 30
0.0
 11
113.45984224510353
 21
200.00000000000003
 31
0.0
  0
LWPOLYLINE
  5
9C
330
17
100
AcDbEntity
  8
Layer
100
AcDbPolyline
 90
5
 70
0
 10
107.45984224510353
 20
205.00000000000003
 10
112.45984224510353
 20
200.00000000000003
 10
107.45984224510353
 20
195.00000000000003
 10
102.45984224510353
 20
200.00000000000003
 10
107.45984224510353
 20
205.00000000000003
  0
LINE
  5
9D
330
17
100
AcDbEntity
  8
Layer
 62
7
100
AcDbLine
 10
228.09133856346642
 20
200.0
 30
0.0
 11
240.09133856346642
 21
200.0
 31
0.0
  0
LWPOLYLINE
  5
9E
330
17
100
AcDbEntity
  8
Layer
100
AcDbPolyline
 90
5
 70
0
 10
234.09133856346642
 20
205.0
 10
239.09133856346642
 20
200.0
 10
234.09133856346642
 20
195.0
 10
229.09133856346642
 20
200.0
 10
234.09133856346642
 20
205.0
  0
LINE
  5
9F
330
17
100
AcDbEntity
  8
Layer
 62
7
100
AcDbLine
 10
354.7228348818294
 20
199.99999999999997
 30
0.0
 11
366.7228348818294
 21
199.99999999999997
 31
0.0
  0
LWPOLYLINE
  5
A0
330
17
100
AcDbEntity
  8
Layer
100
AcDbPolyline
 90
5
 70
0
 10
360.7228348818294
 20
204.99999999999997
 10
365.7228348818294
 20
199.99999999999997
 10
360.7228348818294
 20
194.99999999999997
 10
355.7228348818294
 20
199.99999999999997
 10
360.7228348818294
 20
204.99999999999997
  0
LINE
  5
A1
330
17
100
AcDbEntity
  8
Layer
 62
7
100
AcDbLine
 10
10.741873454890424
 20
189.2592311949645
 30
0.0
 11
590.1741110752271
 21
161.224374905479
 31
0.0
  0
LINE
  5
A2
330
17
100
AcDbEntity
  8
Layer
 62
7
100
AcDbLine
 10
124.53077466493573
 20
183.7537461949181
 30
0.0
 11
136.51675360220455
 21
183.17382472148552
 31
0.0
  0
LWPOLYLINE
  5
A3
330
17
100
AcDbEntity
  8
Layer
100
AcDbPolyline
 90
5
 70
0
 10
130.7653980808337
 20
188.45794334873048
 10
135.5179220240988
 20
183.22215151093823
 10
130.28213018630655
 20
178.46962756767314
 10
125.52960624304146
 20
183.7054194054654
 10
130.7653980808337
 20
188.45794334873048
  0
LINE
  5
A4
330
17
100
AcDbEntity
  8
Layer
 62
7
100
AcDbLine
 10
266.14263144117626
 20
176.90209418826808
 30
0.0
 11
278.12861037844505
 21
176.32217271483546
 31
0.0
  0
LWPOLYLINE
  5
A5
330
17
100
AcDbEntity
  8
Layer
100
AcDbPolyline
 90
5
 70
0
 10
272.37725485707426
 20
181.60629134208043
 10
277.12977880033935
 20
176.37049950428818
 10
271.89398696254705
 20
171.6179755610231
 10
267.14146301928196
 20
176.85376739881534
 10
272.37725485707426
 20
181.60629134208043
  0
LINE
  5
A6
330
17
100
AcDbEntity
  8
Layer
100
AcDbLine
 10
231.63761467889904
 20
229.24524999999994
 30
0.0
 11
231.63761467889904
 21
230.24524999999994
 31
0.0
  0
LINE
  5
A7
330
17
100
AcDbEntity
  8
Layer
100
AcDbLine
 10
231.63761467889904
 20
170.75475000000006
 30
0.0
 11
231.63761467889904
 21
169.75475000000006
 31
0.0
  0
LINE
  5
A8
330
17
100
AcDbEntity
  8
Layer
100
AcDbLine
 10
260.588864678899
 20
200.0
 30
0.0
 11
261.588864678899
 21
200.0
 31
0.0
  0
LINE
  5
A9
330
17
100
AcDbEntity
  8
Layer
100
AcDbLine
 10
202.6863646788991
 20
200.0
 30
0.0
 11
201.6863646788991
 21
200.0
 31
0.0
  0
LINE
  5
AA
330
17
100
AcDbEntity
  8
Layer
 62
7
100
AcDbLine
 10
151.63761467889904
 20
162.92369712850723
 30
0.0
 11
151.63761467889904
 21
236.85189441461023
 31
0.0
  0
LINE
  5
AB
330
17
100
AcDbEntity
  8
Layer
 62
7
100
AcDbLine
 10
151.63761467889904
 20
184.74856617864327
 30
0.0
 11
151.63761467889904
 21
196.74856617864327
 31
0.0
  0
LWPOLYLINE
  5
AC
330
17
100
AcDbEntity
  8
Layer
100
AcDbPolyline
 90
5
 70
0
 10
146.63761467889904
 20
190.74856617864327
 10
151.63761467889904
 20
195.74856617864327
 10
156.63761467889904
 20
190.74856617864327
 10
151.63761467889904
 20
185.74856617864327
 10
146.63761467889904
 20
190.74856617864327
  0
LINE
  5
AD
330
17
100
AcDbEntity
  8
Layer
 62
7
100
AcDbLine
 10
151.63761467889904
 20
203.02702536447416
 30
0.0
 11
151.63761467889904
 21
215.02702536447416
 31
0.0
  0
LWPOLYLINE
  5
AE
330
17
100
AcDbEntity
  8
Layer
100
AcDbPolyline
 90
5
 70
0
 10
146.63761467889904
 20
209.02702536447416
 10
151.63761467889904
 20
214.02702536447416
 10
156.63761467889904
 20
209.02702536447416
 10
151.63761467889904
 20
204.02702536447416
 10
146.63761467889904
 20
209.02702536447416
  0
LINE
  5
AF
330
17
100
AcDbEntity
  8
Layer
 62
7
100
AcDbLine
 10
361.637614678899
 20
162.8195430507334
 30
0.0
 11
361.637614678899
 21
220.88138704347136
 31
0.0
  0
LINE
  5
B0
330
17
100
AcDbEntity
  8
Layer
 62
7
100
AcDbLine
 10
361.637614678899
 20
179.09118844819167
 30
0.0
 11
361.637614678899
 21
191.09118844819167
 31
0.0
  0
LWPOLYLINE
  5
B1
330
17
100
AcDbEntity
  8
Layer
100
AcDbPolyline
 90
5
 70
0
 10
356.637614678899
 20
185.09118844819167
 10
361.637614678899
 20
190.09118844819167
 10
366.637614678899
 20
185.09118844819167
 10
361.637614678899
 20
180.09118844819167
 10
356.637614678899
 20
185.09118844819167
  0
LINE
  5
B2
330
17
100
AcDbEntity
  8
Layer
 62
7
100
AcDbLine
 10
361.637614678899
 20
192.60974164601308
 30
0.0
 11
361.637614678899
 21
204.60974164601308
 31
0.0
  0
LWPOLYLINE
  5
B3
330
17
100
AcDbEntity
  8
Layer
100
AcDbPolyline
 90
5
 70
0
 10
356.637614678899
 20
198.60974164601308
 10
361.637614678899
 20
203.60974164601308
 10
366.637614678899
 20
198.60974164601308
 10
361.637614678899
 20
193.60974164601308
 10
356.637614678899
 20
198.60974164601308
  0
LWPOLYLINE
  5
B4
330
17
100
AcDbEntity
  8
NumLabel
 62
1
100
AcDbPolyline
 90
4
 70
0
 10
173.31192660550457
 20
175.83715596330276
 10
173.31192660550457
 20
180.83715596330276
 10
178.31192660550457
 20
180.83715596330276
 10
178.31192660550457
 20
170.83715596330276
  0
LWPOLYLINE
  5
B5
330
17
100
AcDbEntity
  8
NumLabel
 62
1
100
AcDbPolyline
 90
2
 70
0
 10
183.31192660550457
 20
180.83715596330276
 10
183.31192660550457
 20
170.83715596330276
  0
ENDSEC
  0
SECTION
  2
OBJECTS
  0
DICTIONARY
  5
A
330
0
100
AcDbDictionary
280
0
281
1
  3
ACAD_COLOR
350
B
  3
ACAD_GROUP
350
C
  3
ACAD_LAYOUT
350
D
  3
ACAD_MATERIAL
350
E
  3
ACAD_MLEADERSTYLE
350
F
  3
ACAD_MLINESTYLE
350
10
  3
ACAD_PLOTSETTINGS
350
11
  3
ACAD_PLOTSTYLENAME
350
12
  3
ACAD_SCALELIST
350
14
  3
ACAD_TABLESTYLE
350
15
  3
ACAD_VISUALSTYLE
350
16
  3
EZDXF_META
350
2D
  0
DICTIONARY
  5
B
330
A
100
AcDbDictionary
280
0
281
1
  0
DICTIONARY
  5
C
330
A
100
AcDbDictionary
280
0
281
1
  0
DICTIONARY
  5
D
330
A
100
AcDbDictionary
280
0
281
1
  3
Model
350
1A
  3
Layout1
350
1E
  0
DICTIONARY
  5
E
330
A
100
AcDbDictionary
280
0
281
1
  3
ByBlock
350
1F
  3
ByLayer
350
20
  3
Global
350
21
  0
DICTIONARY
  5
F
330
A
100
AcDbDictionary
280
0
281
1
  3
Standard
350
2C
  0
DICTIONARY
  5
10
330
A
100
AcDbDictionary
280
0
281
1
  3
Standard
350
22
  0
DICTIONARY
  5
11
330
A
100
AcDbDictionary
280
0
281
1
  0
ACDBDICTIONARYWDFLT
  5
12
330
A
100
AcDbDictionary
280
0
281
1
  3
Normal
350
13
100
AcDbDictionaryWithDefault
340
13
  0
ACDBPLACEHOLDER
  5
13
330
12
  0
DICTIONARY
  5
14
330
A
100
AcDbDictionary
280
0
281
1
  0
DICTIONARY
  5
15
330
A
100
AcDbDictionary
280
0
281
1
  0
DICTIONARY
  5
16
330
A
100
AcDbDictionary
280
0
281
1
  3
2dWireframe
350
5A
  3
Basic
350
5B
  3
Brighten
350
5C
  3
ColorChange
350
5D
  3
Conceptual
350
5E
  3
Dim
350
5F
  3
EdgeColorOff
350
60
  3
Facepattern
350
61
  3
Flat
350
62
  3
FlatWithEdges
350
63
  3
Gouraud
350
64
  3
GouraudWithEdges
350
65
  3
Hidden
350
66
  3
JitterOff
350
67
  3
Linepattern
350
68
  3
Modeling
350
69
  3
OverhangOff
350
6A
  3
Realistic
350
6B
  3
Shaded
350
6C
  3
Shaded with edges
350
6D
  3
Shades of Gray
350
6E
  3
Sketchy
350
6F
  3
Thicken
350
70
  3
Wireframe
350
71
  3
X-Ray
350
72
  0
LAYOUT
  5
1A
330
D
100
AcDbPlotSettings
  1

  2
Adobe PDF
  4
A3
  6

 40
7.5
 41
20.0
 42
7.5
 43
20.0
 44
420.0
 45
297.0
 46
0.0
 47
0.0
 48
0.0
 49
0.0
140
0.0
141
0.0
142
1.0
143
1.0
 70
1024
 72
1
 73
0
 74
5
  7

 75
16
 76
0
 77
2
 78
300
147
1.0
148
0.0
149
0.0
100
AcDbLayout
  1
Model
 70
1
 71
0
 10
0.0
 20
0.0
 11
420.0
 21
297.0
 12
0.0
 22
0.0
 32
0.0
 14
1e+20
 24
1e+20
 34
1e+20
 15
-1e+20
 25
-1e+20
 35
-1e+20
146
0.0
 13
0.0
 23
0.0
 33
0.0
 16
1.0
 26
0.0
 36
0.0
 17
0.0
 27
1.0
 37
0.0
 76
1
330
17
  0
LAYOUT
  5
1E
330
D
100
AcDbPlotSettings
  1

  2
Adobe PDF
  4
A3
  6

 40
7.5
 41
20.0
 42
7.5
 43
20.0
 44
420.0
 45
297.0
 46
0.0
 47
0.0
 48
0.0
 49
0.0
140
0.0
141
0.0
142
1.0
143
1.0
 70
0
 72
1
 73
0
 74
5
  7

 75
16
 76
0
 77
2
 78
300
147
1.0
148
0.0
149
0.0
100
AcDbLayout
  1
Layout1
 70
1
 71
1
 10
0.0
 20
0.0
 11
420.0
 21
297.0
 12
0.0
 22
0.0
 32
0.0
 14
1e+20
 24
1e+20
 34
1e+20
 15
-1e+20
 25
-1e+20
 35
-1e+20
146
0.0
 13
0.0
 23
0.0
 33
0.0
 16
1.0
 26
0.0
 36
0.0
 17
0.0
 27
1.0
 37
0.0
 76
1
330
1B
  0
MATERIAL
  5
1F
102
{ACAD_REACTORS
330
E
102
}
330
E
100
AcDbMaterial
  1
ByBlock
  2

 70
0
 40
1.0
 71
1
 41
1.0
 91
-1023410177
 42
1.0
 72
1
  3

 73
1
 74
1
 75
1
 44
0.5
 73
0
 45
1.0
 46
1.0
 77
1
  4

 78
1
 79
1
170
1
 48
1.0
171
1
  6

172
1
173
1
174
1
140
1.0
141
1.0
175
1
  7

176
1
177
1
178
1
143
1.0
179
1
  8

270
1
271
1
272
1
145
1.0
146
1.0
273
1
  9

274
1
275
1
276
1
 42
1.0
 72
1
  3

 73
1
 74
1
 75
1
 94
63
  0
MATERIAL
  5
20
102
{ACAD_REACTORS
330
E
102
}
330
E
100
AcDbMaterial
  1
ByLayer
  2

 70
0
 40
1.0
 71
1
 41
1.0
 91
-1023410177
 42
1.0
 72
1
  3

 73
1
 74
1
 75
1
 44
0.5
 73
0
 45
1.0
 46
1.0
 77
1
  4

 78
1
 79
1
170
1
 48
1.0
171
1
  6

172
1
173
1
174
1
140
1.0
141
1.0
175
1
  7

176
1
177
1
178
1
143
1.0
179
1
  8

270
1
271
1
272
1
145
1.0
146
1.0
273
1
  9

274
1
275
1
276
1
 42
1.0
 72
1
  3

 73
1
 74
1
 75
1
 94
63
  0
MATERIAL
  5
21
102
{ACAD_REACTORS
330
E
102
}
330
E
100
AcDbMaterial
  1
Global
  2

 70
0
 40
1.0
 71
1
 41
1.0
 91
-1023410177
 42
1.0
 72
1
  3

 73
1
 74
1
 75
1
 44
0.5
 73
0
 45
1.0
 46
1.0
 77
1
  4

 78
1
 79
1
170
1
 48
1.0
171
1
  6

172
1
173
1
174
1
140
1.0
141
1.0
175
1
  7

176
1
177
1
178
1
143
1.0
179
1
  8

270
1
271
1
272
1
145
1.0
146
1.0
273
1
  9

274
1
275
1
276
1
 42
1.0
 72
1
  3

 73
1
 74
1
 75
1
 94
63
  0
MLINESTYLE
  5
22
102
{ACAD_REACTORS
330
10
102
}
330
10
100
AcDbMlineStyle
  2
Standard
 70
0
  3

 62
256
 51
90.0
 52
90.0
 71
2
 49
0.5
 62
256
  6
BYLAYER
 49
-0.5
 62
256
  6
BYLAYER
  0
MLEADERSTYLE
  5
2C
102
{ACAD_REACTORS
330
F
102
}
330
F
100
AcDbMLeaderStyle
179
2
170
2
171
1
172
0
 90
2
 40
0.0
 41
0.0
173
1
 91
-1056964608
 92
-2
290
1
 42
2.0
291
1
 43
8.0
  3
Standard
 44
4.0
300

342
29
174
1
175
1
176
0
178
1
 93
-1056964608
 45
4.0
292
0
297
0
 46
4.0
 94
-1056964608
 47
1.0
 49
1.0
140
1.0
294
1
141
0.0
177
0
142
1.0
295
0
296
0
143
3.75
271
0
272
9
273
9
  0
DICTIONARY
  5
2D
330
A
100
AcDbDictionary
281
1
  3
CREATED_BY_EZDXF
350
2E
  3
WRITTEN_BY_EZDXF
350
B8
  0
DICTIONARYVAR
  5
2E
330
2D
100
DictionaryVariables
280
0
  1
1.3.0 @ 2026-01-06T17:07:24.173957+00:00
  0
VISUALSTYLE
  5
5A
102
{ACAD_REACTORS
330
16
102
}
330
16
100
AcDbVisualStyle
  2
2dWireframe
 70
4
 90
0
 40
0.6
 62
7
290
0
291
0
  0
VISUALSTYLE
  5
5B
102
{ACAD_REACTORS
330
16
102
}
330
16
100
AcDbVisualStyle
  2
Basic
 70
7
 90
1
 40
0.6
 62
7
290
0
291
1
  0
VISUALSTYLE
  5
5C
102
{ACAD_REACTORS
330
16
102
}
330
16
100
AcDbVisualStyle
  2
Brighten
 70
12
 90
2
 40
0.6
 62
7
290
0
291
1
  0
VISUALSTYLE
  5
5D
102
{ACAD_REACTORS
330
16
102
}
330
16
100
AcDbVisualStyle
  2
ColorChange
 70
16
 90
2
 40
0.6
 62
8
290
0
291
1
  0
VISUALSTYLE
  5
5E
102
{ACAD_REACTORS
330
16
102
}
330
16
100
AcDbVisualStyle
  2
Conceptual
 70
9
 90
3
 40
0.6
 62
7
290
0
291
0
  0
VISUALSTYLE
  5
5F
102
{ACAD_REACTORS
330
16
102
}
330
16
100
AcDbVisualStyle
  2
Dim
 70
11
 90
2
 40
0.6
 62
7
290
0
291
1
  0
VISUALSTYLE
  5
60
102
{ACAD_REACTORS
330
16
102
}
330
16
100
AcDbVisualStyle
  2
EdgeColorOff
 70
22
 90
2
 40
0.6
 62
7
290
0
291
1
  0
VISUALSTYLE
  5
61
102
{ACAD_REACTORS
330
16
102
}
330
16
100
AcDbVisualStyle
  2
Facepattern
 70
15
 90
2
 40
0.6
 62
7
290
0
291
1
  0
VISUALSTYLE
  5
62
102
{ACAD_REACTORS
330
16
102
}
330
16
100
AcDbVisualStyle
  2
Flat
 70
0
 90
2
 40
0.6
 62
7
290
0
291
1
  0
VISUALSTYLE
  5
63
102
{ACAD_REACTORS
330
16
102
}
330
16
100
AcDbVisualStyle
  2
FlatWithEdges
 70
1
 90
2
 40
0.6
 62
7
290
0
291
1
  0
VISUALSTYLE
  5
64
102
{ACAD_REACTORS
330
16
102
}
330
16
100
AcDbVisualStyle
  2
Gouraud
 70
2
 90
2
 40
0.6
 62
7
290
0
291
1
  0
VISUALSTYLE
  5
65
102
{ACAD_REACTORS
330
16
102
}
330
16
100
AcDbVisualStyle
  2
GouraudWithEdges
 70
3
 90
2
 40
0.6
 62
7
290
0
291
1
  0
VISUALSTYLE
  5
66
102
{ACAD_REACTORS
330
16
102
}
330
16
100
AcDbVisualStyle
  2
Hidden
 70
6
 90
1
 40
0.6
 62
7
290
0
291
0
  0
VISUALSTYLE
  5
67
102
{ACAD_REACTORS
330
16
102
}
330
16
100
AcDbVisualStyle
  2
JitterOff
 70
20
 90
2
 40
0.6
 62
7
290
0
291
1
  0
VISUALSTYLE
  5
68
102
{ACAD_REACTORS
330
16
102
}
330
16
100
AcDbVisualStyle
  2
Linepattern
 70
14
 90
2
 40
0.6
 62
7
290
0
291
1
  0
VISUALSTYLE
  5
69
102
{ACAD_REACTORS
330
16
102
}
330
16
100
AcDbVisualStyle
  2
Modeling
 70
10
 90
2
 40
0.6
 62
7
290
0
291
0
  0
VISUALSTYLE
  5
6A
102
{ACAD_REACTORS
330
16
102
}
330
16
100
AcDbVisualStyle
  2
OverhangOff
 70
21
 90
2
 40
0.6
 62
7
290
0
291
1
  0
VISUALSTYLE
  5
6B
102
{ACAD_REACTORS
330
16
102
}
330
16
100
AcDbVisualStyle
  2
Realistic
 70
8
 90
2
 40
0.6
 62
7
290
0
291
0
  0
VISUALSTYLE
  5
6C
102
{ACAD_REACTORS
330
16
102
}
330
16
100
AcDbVisualStyle
  2
Shaded
 70
27
 90
2
 40
0.6
 62
7
290
0
291
0
  0
VISUALSTYLE
  5
6D
102
{ACAD_REACTORS
330
16
102
}
330
16
100
AcDbVisualStyle
  2
Shaded with edges
 70
26
 90
2
 40
0.6
 62
7
290
0
291
0
  0
VISUALSTYLE
  5
6E
102
{ACAD_REACTORS
330
16
102
}
330
16
100
AcDbVisualStyle
  2
Shades of Gray
 70
23
 90
2
 40
0.6
 62
7
290
0
291
0
  0
VISUALSTYLE
  5
6F
102
{ACAD_REACTORS
330
16
102
}
330
16
100
AcDbVisualStyle
  2
Sketchy
 70
24
 90
1
 40
0.6
 62
7
290
0
291
0
  0
VISUALSTYLE
  5
70
102
{ACAD_REACTORS
330
16
102
}
330
16
100
AcDbVisualStyle
  2
Thicken
 70
13
 90
2
 40
0.6
 62
7
290
0
291
1
  0
VISUALSTYLE
  5
71
102
{ACAD_REACTORS
330
16
102
}
330
16
100
AcDbVisualStyle
  2
Wireframe
 70
5
 90
0
 40
0.6
 62
7
290
0
291
0
  0
VISUALSTYLE
  5
72
102
{ACAD_REACTORS
330
16
102
}
330
16
100
AcDbVisualStyle
  2
X-Ray
 70
25
 90
2
 40
0.5
 62
7
290
0
291
0
  0
DICTIONARYVAR
  5
B8
330
2D
100
DictionaryVariables
280
0
  1
1.3.0 @ 2026-01-06T17:07:24.235224+00:00
  0
ENDSEC
  0
EOF
