<?xml version="1.0" encoding="utf-8" standalone="no"?>
<!DOCTYPE svg PUBLIC "-//W3C//DTD SVG 1.1//EN"
  "http://www.w3.org/Graphics/SVG/1.1/DTD/svg11.dtd">
<svg xmlns:xlink="http://www.w3.org/1999/xlink" width="1152pt" height="335.570033pt" viewBox="0 0 1152 335.570033" xmlns="http://www.w3.org/2000/svg" version="1.1">
 <metadata>
  <rdf:RDF xmlns:dc="http://purl.org/dc/elements/1.1/" xmlns:cc="http://creativecommons.org/ns#" xmlns:rdf="http://www.w3.org/1999/02/22-rdf-syntax-ns#">
   <cc:Work>
    <dc:type rdf:resource="http://purl.org/dc/dcmitype/StillImage"/>
    <dc:date>2026-01-07T02:07:05.325071</dc:date>
    <dc:format>image/svg+xml</dc:format>
    <dc:creator>
     <cc:Agent>
      <dc:title>Matplotlib v3.10.1, https://matplotlib.org/</dc:title>
     </cc:Agent>
    </dc:creator>
   </cc:Work>
  </rdf:RDF>
 </metadata>
 <defs>
  <style type="text/css">*{stroke-linejoin: round; stroke-linecap: butt}</style>
 </defs>
 <g id="figure_1">
  <g id="patch_1">
   <path d="M 0 335.570033 
L 1152 335.570033 
L 1152 0 
L 0 0 
z
" style="fill: #ffffff"/>
  </g>
  <g id="axes_1">
   <g id="patch_2">
    <path d="M 0 335.570033 
L 1152 335.570033 
L 1152 0 
L 0 0 
z
" style="fill: #212830"/>
   </g>
   <g id="patch_3">
    <path d="M 1099.636364 41.627339 
L 1094.684749 40.891419 
L 1072.020931 37.719374 
L 1049.374424 34.758838 
L 1026.745658 32.022919 
L 1004.130536 29.51256 
L 981.528396 27.220384 
L 958.946817 25.132477 
L 936.408577 23.235929 
L 913.946074 21.532643 
L 891.576011 20.042905 
L 869.288138 18.781545 
L 847.067273 17.738238 
L 824.92019 16.886671 
L 802.87663 16.206539 
L 780.974839 15.694552 
L 759.249817 15.366627 
L 737.712887 15.253183 
L 716.34077 15.376695 
L 695.097688 15.720851 
L 673.987806 16.23562 
L 653.070314 16.884381 
L 632.413361 17.683507 
L 612.038405 18.684673 
L 591.914147 19.926081 
L 571.992669 21.403422 
L 552.249981 23.070762 
L 532.719021 24.867027 
L 513.485086 26.767519 
L 494.620739 28.817988 
L 476.11107 31.099041 
L 457.866343 33.63793 
L 439.827582 36.36797 
L 422.042206 39.196061 
L 404.618244 42.099467 
L 387.615829 45.137771 
L 371.008376 48.376988 
L 354.735493 51.828739 
L 338.766558 55.454716 
L 323.113699 59.207324 
L 307.817074 63.056679 
L 292.920034 66.998819 
L 278.451562 71.051654 
L 264.412038 75.242092 
L 250.779854 79.583722 
L 237.531295 84.066941 
L 224.660817 88.663011 
L 212.186701 93.343841 
L 200.134371 98.09771 
L 188.515531 102.928669 
L 177.326627 107.837129 
L 166.569166 112.806749 
L 156.263331 117.818376 
L 146.430403 122.872114 
L 137.070397 127.979512 
L 128.170969 133.138912 
L 119.731018 138.331389 
L 111.76375 143.537487 
L 104.282037 148.749332 
L 97.296284 153.960419 
L 90.815561 159.169146 
L 84.831297 164.388076 
L 79.311752 169.621554 
L 74.238804 174.824363 
L 69.653698 179.913813 
L 65.629978 184.852735 
L 62.197912 189.691804 
L 59.32077 194.506331 
L 56.946173 199.301912 
L 55.055062 204.014775 
L 53.658647 208.595165 
L 52.765078 213.038657 
L 52.363636 217.603689 
L 52.464394 221.439634 
L 53.073656 225.339587 
L 54.250666 229.098664 
L 56.050707 232.804141 
L 58.476387 236.487411 
L 61.488081 240.116772 
L 65.077728 243.647619 
L 69.291237 247.064811 
L 74.172197 250.38056 
L 79.715734 253.605961 
L 85.899128 256.731872 
L 92.72864 259.743342 
L 100.230854 262.643786 
L 108.411614 265.454103 
L 117.249591 268.191421 
L 126.719666 270.858631 
L 136.805339 273.451251 
L 147.495003 275.96373 
L 158.782149 278.389303 
L 170.667603 280.725233 
L 183.146617 282.976905 
L 196.201094 285.146006 
L 209.816912 287.221849 
L 224.000661 289.192888 
L 238.76194 291.064305 
L 254.092661 292.849362 
L 269.974595 294.55092 
L 286.40237 296.164027 
L 303.377563 297.692317 
L 338.923065 300.538618 
L 376.493564 303.116438 
L 415.995832 305.446601 
L 457.321817 307.534975 
L 462.54652 307.770657 
L 462.460884 309.669071 
L 500.298745 311.306223 
L 544.955838 312.973143 
L 591.07456 314.436219 
L 638.541997 315.652073 
L 687.29171 316.615523 
L 737.260073 317.335566 
L 866.781162 318.738094 
L 1055.051149 320.07639 
L 1099.636364 320.31685 
L 1099.636364 41.627339 
L 1099.636364 41.627339 
" clip-path="url(#p0aa5758d59)" style="fill: none; stroke: #ff0000; stroke-width: 0.72; stroke-linejoin: miter"/>
   </g>
   <g id="patch_4">
    <path d="M 644.503821 252.940242 
L 644.503821 271.943689 
" clip-path="url(#p0aa5758d59)" style="fill: none; stroke: #ff0000; stroke-width: 0.72; stroke-linejoin: miter"/>
   </g>
   <g id="patch_5">
    <path d="M 657.806234 252.940242 
L 654.005545 252.940242 
L 654.005545 271.943689 
L 657.806234 271.943689 
" clip-path="url(#p0aa5758d59)" style="fill: none; stroke: #ff0000; stroke-width: 0.72; stroke-linejoin: miter"/>
   </g>
   <g id="patch_6">
    <path d="M 659.706579 271.943689 
L 663.507268 271.943689 
L 663.507268 252.940242 
L 659.706579 252.940242 
" clip-path="url(#p0aa5758d59)" style="fill: none; stroke: #ff0000; stroke-width: 0.72; stroke-linejoin: miter"/>
   </g>
   <g id="patch_7">
    <path d="M 632.580987 25.285822 
L 624.988773 25.658965 
L 624.61563 18.06675 
L 632.207845 17.693608 
L 632.580987 25.285822 
" clip-path="url(#p0aa5758d59)" style="fill: none; stroke: #ff0000; stroke-width: 0.72; stroke-linejoin: miter"/>
   </g>
   <g id="patch_8">
    <path d="M 275.146939 79.970941 
L 267.863158 82.14522 
L 265.688879 74.861439 
L 272.97266 72.68716 
L 275.146939 79.970941 
" clip-path="url(#p0aa5758d59)" style="fill: none; stroke: #ff0000; stroke-width: 0.72; stroke-linejoin: miter"/>
   </g>
   <g id="patch_9">
    <path d="M 94.176348 168.847267 
L 91.312713 171.346234 
L 85.065296 164.187147 
L 87.92893 161.68818 
L 94.176348 168.847267 
" clip-path="url(#p0aa5758d59)" style="fill: none; stroke: #ff0000; stroke-width: 0.72; stroke-linejoin: miter"/>
   </g>
   <g id="patch_10">
    <path d="M 73.712832 238.583259 
L 76.85919 240.715315 
L 71.529049 248.581213 
L 68.38269 246.449156 
L 73.712832 238.583259 
" clip-path="url(#p0aa5758d59)" style="fill: none; stroke: #ff0000; stroke-width: 0.72; stroke-linejoin: miter"/>
   </g>
   <g id="patch_11">
    <path d="M 354.955005 294.077751 
L 362.5399 294.578076 
L 362.039575 302.162971 
L 354.45468 301.662645 
L 354.955005 294.077751 
" clip-path="url(#p0aa5758d59)" style="fill: none; stroke: #ff0000; stroke-width: 0.72; stroke-linejoin: miter"/>
   </g>
   <g id="patch_12">
    <path d="M 974.125489 167.424733 
L 974.014812 161.837424 
L 973.682979 156.259982 
L 973.130575 150.702259 
L 972.358575 145.174068 
L 971.368343 139.685175 
L 970.161628 134.245272 
L 968.740562 128.863967 
L 967.107653 123.550764 
L 965.265785 118.315046 
L 963.218212 113.166061 
L 960.96855 108.112902 
L 958.520772 103.164492 
L 955.8792 98.329573 
L 953.048501 93.616681 
L 950.033673 89.034142 
L 946.840041 84.590047 
L 943.473245 80.292247 
L 939.939231 76.14833 
L 936.244241 72.165616 
L 932.3948 68.351138 
L 928.397707 64.711633 
L 924.26002 61.25353 
L 919.989049 57.982934 
L 915.592334 54.905623 
L 911.077642 52.02703 
L 906.452946 49.352241 
L 901.726414 46.885979 
L 896.906392 44.632599 
L 892.001394 42.596082 
L 887.020082 40.780024 
L 881.971254 39.187631 
L 876.863826 37.821718 
L 871.706819 36.684695 
L 866.50934 35.778571 
L 861.280568 35.104947 
L 856.029739 34.665011 
L 850.766125 34.459542 
L 845.499022 34.488901 
L 840.237734 34.753037 
L 834.991551 35.251484 
L 829.769739 35.983361 
L 824.581519 36.947375 
L 819.436056 38.141825 
L 814.342436 39.5646 
L 809.309656 41.213188 
L 804.346603 43.084677 
L 799.462042 45.175762 
L 794.664601 47.482751 
L 789.962751 50.001567 
L 785.364798 52.727764 
L 780.878861 55.656527 
L 776.512863 58.782682 
L 772.274514 62.10071 
L 768.171301 65.604749 
L 764.210469 69.288612 
L 760.399013 73.145792 
L 756.743666 77.169477 
L 753.250883 81.352562 
L 749.926833 85.687658 
L 746.777385 90.16711 
L 743.808102 94.783005 
L 741.024229 99.527192 
L 738.430682 104.391293 
L 736.032041 109.366717 
L 733.832542 114.444676 
L 731.836071 119.616203 
L 730.046153 124.872165 
L 728.465948 130.203278 
L 727.098249 135.600128 
L 725.94547 141.053183 
L 725.009647 146.552812 
L 724.292434 152.089303 
L 723.795096 157.652878 
L 723.518512 163.233711 
L 723.463171 168.821946 
L 723.62917 174.407713 
L 724.016216 179.981148 
L 724.623626 185.532407 
L 725.450327 191.051686 
L 726.494858 196.529237 
L 727.755376 201.955388 
L 729.229653 207.320554 
L 730.915086 212.61526 
L 732.8087 217.830156 
L 734.907148 222.956031 
L 737.206725 227.983832 
L 739.703371 232.904681 
L 742.392675 237.709886 
L 745.269888 242.390961 
L 748.329928 246.939638 
L 751.567392 251.347885 
L 754.976562 255.607916 
L 758.551416 259.712208 
L 762.285642 263.653511 
L 766.172644 267.424865 
L 770.205557 271.01961 
L 774.377259 274.431396 
L 778.680382 277.654199 
L 783.107327 280.682327 
L 787.650276 283.510431 
L 792.301204 286.133517 
L 797.051898 288.546952 
L 801.893968 290.746474 
L 806.818862 292.728199 
L 811.817883 294.488626 
L 816.882201 296.024647 
L 822.002873 297.333548 
L 827.170856 298.413019 
L 832.377021 299.261152 
L 837.612174 299.876449 
L 842.86707 300.257825 
L 848.132428 300.404605 
L 853.398949 300.316531 
L 858.657332 299.993757 
L 863.898289 299.436854 
L 869.112566 298.646805 
L 874.290952 297.625007 
L 879.424303 296.373262 
L 884.503553 294.893782 
L 889.51973 293.189181 
L 894.463977 291.262467 
L 899.327561 289.117045 
L 904.101892 286.756703 
L 908.778539 284.18561 
L 913.349242 281.408306 
L 917.805929 278.429697 
L 922.140729 275.255042 
L 926.345987 271.88995 
L 930.414275 268.340362 
L 934.338408 264.612547 
L 938.111457 260.71309 
L 941.726757 256.648878 
L 945.177924 252.427087 
L 948.458862 248.055174 
L 951.563778 243.54086 
L 954.487187 238.892119 
L 957.223927 234.117159 
L 959.769163 229.224414 
L 962.118402 224.222525 
L 964.267494 219.120326 
L 966.212644 213.926828 
L 967.950416 208.651203 
L 969.477741 203.302768 
L 970.791922 197.89097 
L 971.890638 192.425365 
L 972.771948 186.915606 
L 973.434296 181.371425 
L 973.876513 175.802613 
L 974.097817 170.219005 
L 974.125489 167.424733 
L 974.125489 167.424733 
" clip-path="url(#p0aa5758d59)" style="fill: none; stroke: #ff0000; stroke-width: 0.72; stroke-linejoin: miter"/>
   </g>
   <g id="patch_13">
    <path d="M 392.877172 157.92301 
L 402.378895 167.424733 
L 392.877172 176.926456 
L 383.375449 167.424733 
L 392.877172 157.92301 
" clip-path="url(#p0aa5758d59)" style="fill: none; stroke: #ff0000; stroke-width: 0.72; stroke-linejoin: miter"/>
   </g>
   <g id="patch_14">
    <path d="M 841.22159 157.92301 
L 850.723313 167.424733 
L 841.22159 176.926456 
L 831.719867 167.424733 
L 841.22159 157.92301 
" clip-path="url(#p0aa5758d59)" style="fill: none; stroke: #ff0000; stroke-width: 0.72; stroke-linejoin: miter"/>
   </g>
   <g id="patch_15">
    <path d="M 460.723256 232.91689 
L 469.588482 243.015071 
L 459.4903 251.880296 
L 450.625075 241.782115 
L 460.723256 232.91689 
" clip-path="url(#p0aa5758d59)" style="fill: none; stroke: #ff0000; stroke-width: 0.72; stroke-linejoin: miter"/>
   </g>
   <g id="patch_16">
    <path d="M 954.806905 265.041039 
L 963.672131 275.13922 
L 953.573949 284.004445 
L 944.708724 273.906264 
L 954.806905 265.041039 
" clip-path="url(#p0aa5758d59)" style="fill: none; stroke: #ff0000; stroke-width: 0.72; stroke-linejoin: miter"/>
   </g>
   <g id="patch_17">
    <path d="M 554.237451 207.867005 
L 563.739174 198.365282 
L 573.240897 207.867005 
L 563.739174 217.368728 
L 554.237451 207.867005 
" clip-path="url(#p0aa5758d59)" style="fill: none; stroke: #ff0000; stroke-width: 0.72; stroke-linejoin: miter"/>
   </g>
   <g id="patch_18">
    <path d="M 554.237451 127.829633 
L 563.739174 118.32791 
L 573.240897 127.829633 
L 563.739174 137.331356 
L 554.237451 127.829633 
" clip-path="url(#p0aa5758d59)" style="fill: none; stroke: #ff0000; stroke-width: 0.72; stroke-linejoin: miter"/>
   </g>
   <g id="line2d_1">
    <path d="M 81.628653 167.424733 
L 1099.636364 167.424733 
" clip-path="url(#p0aa5758d59)" style="fill: none; stroke: #ffffff; stroke-width: 0.72; stroke-linecap: square"/>
   </g>
   <g id="line2d_2">
    <path d="M 381.475104 167.424733 
L 404.27924 167.424733 
" clip-path="url(#p0aa5758d59)" style="fill: none; stroke: #ffffff; stroke-width: 0.72; stroke-linecap: square"/>
   </g>
   <g id="line2d_3">
    <path d="M 829.819522 167.424733 
L 852.623658 167.424733 
" clip-path="url(#p0aa5758d59)" style="fill: none; stroke: #ffffff; stroke-width: 0.72; stroke-linecap: square"/>
   </g>
   <g id="line2d_4">
    <path d="M 52.513645 215.897852 
L 1099.636364 283.979293 
" clip-path="url(#p0aa5758d59)" style="fill: none; stroke: #ffffff; stroke-width: 0.72; stroke-linecap: square"/>
   </g>
   <g id="line2d_5">
    <path d="M 448.728734 241.658819 
L 471.484822 243.138366 
" clip-path="url(#p0aa5758d59)" style="fill: none; stroke: #ffffff; stroke-width: 0.72; stroke-linecap: square"/>
   </g>
   <g id="line2d_6">
    <path d="M 942.812383 273.782969 
L 965.568471 275.262516 
" clip-path="url(#p0aa5758d59)" style="fill: none; stroke: #ffffff; stroke-width: 0.72; stroke-linecap: square"/>
   </g>
   <g id="line2d_7">
    <path d="M 848.790871 34.443026 
L 848.790871 32.542682 
" clip-path="url(#p0aa5758d59)" style="fill: none; stroke: #ff0000; stroke-width: 0.72; stroke-linecap: square"/>
   </g>
   <g id="line2d_8">
    <path d="M 848.790871 300.40644 
L 848.790871 302.306785 
" clip-path="url(#p0aa5758d59)" style="fill: none; stroke: #ff0000; stroke-width: 0.72; stroke-linecap: square"/>
   </g>
   <g id="line2d_9">
    <path d="M 974.125489 167.424733 
L 976.025833 167.424733 
" clip-path="url(#p0aa5758d59)" style="fill: none; stroke: #ff0000; stroke-width: 0.72; stroke-linecap: square"/>
   </g>
   <g id="line2d_10">
    <path d="M 723.456253 167.424733 
L 721.555908 167.424733 
" clip-path="url(#p0aa5758d59)" style="fill: none; stroke: #ff0000; stroke-width: 0.72; stroke-linecap: square"/>
   </g>
   <g id="line2d_11">
    <path d="M 563.739174 313.596179 
L 563.739174 22.100459 
" clip-path="url(#p0aa5758d59)" style="fill: none; stroke: #ffffff; stroke-width: 0.72; stroke-linecap: square"/>
   </g>
   <g id="line2d_12">
    <path d="M 563.739174 219.269073 
L 563.739174 196.464937 
" clip-path="url(#p0aa5758d59)" style="fill: none; stroke: #ffffff; stroke-width: 0.72; stroke-linecap: square"/>
   </g>
   <g id="line2d_13">
    <path d="M 563.739174 139.231701 
L 563.739174 116.427565 
" clip-path="url(#p0aa5758d59)" style="fill: none; stroke: #ffffff; stroke-width: 0.72; stroke-linecap: square"/>
   </g>
  </g>
 </g>
 <defs>
  <clipPath id="p0aa5758d59">
   <rect x="0" y="0" width="1152" height="335.570033"/>
  </clipPath>
 </defs>
</svg>
