  0
SECTION
  2
HEADER
  9
$ACADVER
  1
AC1021
  9
$ACADMAINTVER
 70
25
  9
$DWGCODEPAGE
  3
ANSI_1252
  9
$LASTSAVEDBY
  1
ezdxf
  9
$INSBASE
 10
0.0
 20
0.0
 30
0.0
  9
$EXTMIN
 10
1e+20
 20
1e+20
 30
1e+20
  9
$EXTMAX
 10
-1e+20
 20
-1e+20
 30
-1e+20
  9
$LIMMIN
 10
0.0
 20
0.0
  9
$LIMMAX
 10
420.0
 20
297.0
  9
$ORTHOMODE
 70
0
  9
$REGENMODE
 70
1
  9
$FILLMODE
 70
1
  9
$QTEXTMODE
 70
0
  9
$MIRRTEXT
 70
1
  9
$LTSCALE
 40
1.0
  9
$ATTMODE
 70
1
  9
$TEXTSIZE
 40
2.5
  9
$TRACEWID
 40
1.0
  9
$TEXTSTYLE
  7
OpenSans
  9
$CLAYER
  8
0
  9
$CELTYPE
  6
ByLayer
  9
$CECOLOR
 62
256
  9
$CELTSCALE
 40
1.0
  9
$DISPSILH
 70
0
  9
$DIMSCALE
 40
1.0
  9
$DIMASZ
 40
0.175
  9
$DIMEXO
 40
0.125
  9
$DIMDLI
 40
3.75
  9
$DIMRND
 40
0.0
  9
$DIMDLE
 40
0.0
  9
$DIMEXE
 40
0.375
  9
$DIMTP
 40
0.0
  9
$DIMTM
 40
0.0
  9
$DIMTXT
 40
0.25
  9
$DIMCEN
 40
2.5
  9
$DIMTSZ
 40
0.0
  9
$DIMTOL
 70
0
  9
$DIMLIM
 70
0
  9
$DIMTIH
 70
0
  9
$DIMTOH
 70
0
  9
$DIMSE1
 70
0
  9
$DIMSE2
 70
0
  9
$DIMTAD
 70
1
  9
$DIMZIN
 70
12
  9
$DIMBLK
  1
ARCHTICK
  9
$DIMASO
 70
1
  9
$DIMSHO
 70
1
  9
$DIMPOST
  1

  9
$DIMAPOST
  1

  9
$DIMALT
 70
0
  9
$DIMALTD
 70
3
  9
$DIMALTF
 40
0.03937007874
  9
$DIMLFAC
 40
100.0
  9
$DIMTOFL
 70
1
  9
$DIMTVP
 40
0.0
  9
$DIMTIX
 70
0
  9
$DIMSOXD
 70
0
  9
$DIMSAH
 70
0
  9
$DIMBLK1
  1

  9
$DIMBLK2
  1

  9
$DIMSTYLE
  2
EZDXF
  9
$DIMCLRD
 70
0
  9
$DIMCLRE
 70
0
  9
$DIMCLRT
 70
0
  9
$DIMTFAC
 40
0.5
  9
$DIMGAP
 40
0.1
  9
$DIMJUST
 70
0
  9
$DIMSD1
 70
0
  9
$DIMSD2
 70
0
  9
$DIMTOLJ
 70
0
  9
$DIMTZIN
 70
8
  9
$DIMALTZ
 70
0
  9
$DIMALTTZ
 70
0
  9
$DIMUPT
 70
1
  9
$DIMDEC
 70
2
  9
$DIMTDEC
 70
2
  9
$DIMALTU
 70
2
  9
$DIMALTTD
 70
3
  9
$DIMTXSTY
  7
OpenSansCondensed-Light
  9
$DIMAUNIT
 70
0
  9
$DIMADEC
 70
2
  9
$DIMALTRND
 40
0.0
  9
$DIMAZIN
 70
3
  9
$DIMDSEP
 70
46
  9
$DIMATFIT
 70
3
  9
$DIMFRAC
 70
0
  9
$DIMLDRBLK
  1

  9
$DIMLUNIT
 70
2
  9
$DIMLWD
 70
-2
  9
$DIMLWE
 70
-2
  9
$DIMTMOVE
 70
2
  9
$DIMFXL
 40
1.0
  9
$DIMFXLON
 70
0
  9
$DIMJOGANG
 40
0.785398163397
  9
$DIMTFILL
 70
0
  9
$DIMTFILLCLR
 70
0
  9
$DIMARCSYM
 70
0
  9
$DIMLTYPE
  6

  9
$DIMLTEX1
  6

  9
$DIMLTEX2
  6

  9
$LUNITS
 70
2
  9
$LUPREC
 70
4
  9
$SKETCHINC
 40
1.0
  9
$FILLETRAD
 40
10.0
  9
$AUNITS
 70
0
  9
$AUPREC
 70
2
  9
$MENU
  1
.
  9
$ELEVATION
 40
0.0
  9
$PELEVATION
 40
0.0
  9
$THICKNESS
 40
0.0
  9
$LIMCHECK
 70
0
  9
$CHAMFERA
 40
0.0
  9
$CHAMFERB
 40
0.0
  9
$CHAMFERC
 40
0.0
  9
$CHAMFERD
 40
0.0
  9
$SKPOLY
 70
0
  9
$TDCREATE
 40
2461048.088460648
  9
$TDUCREATE
 40
2458532.153996898
  9
$TDUPDATE
 40
2461048.088460648
  9
$TDUUPDATE
 40
2458532.1544311
  9
$TDINDWG
 40
0.0
  9
$TDUSRTIMER
 40
0.0
  9
$USRTIMER
 70
1
  9
$ANGBASE
 50
0.0
  9
$ANGDIR
 70
0
  9
$PDMODE
 70
0
  9
$PDSIZE
 40
0.0
  9
$PLINEWID
 40
0.0
  9
$SPLFRAME
 70
0
  9
$SPLINETYPE
 70
6
  9
$SPLINESEGS
 70
8
  9
$HANDSEED
  5
B8
  9
$SURFTAB1
 70
6
  9
$SURFTAB2
 70
6
  9
$SURFTYPE
 70
6
  9
$SURFU
 70
6
  9
$SURFV
 70
6
  9
$UCSBASE
  2

  9
$UCSNAME
  2

  9
$UCSORG
 10
0.0
 20
0.0
 30
0.0
  9
$UCSXDIR
 10
1.0
 20
0.0
 30
0.0
  9
$UCSYDIR
 10
0.0
 20
1.0
 30
0.0
  9
$UCSORTHOREF
  2

  9
$UCSORTHOVIEW
 70
0
  9
$UCSORGTOP
 10
0.0
 20
0.0
 30
0.0
  9
$UCSORGBOTTOM
 10
0.0
 20
0.0
 30
0.0
  9
$UCSORGLEFT
 10
0.0
 20
0.0
 30
0.0
  9
$UCSORGRIGHT
 10
0.0
 20
0.0
 30
0.0
  9
$UCSORGFRONT
 10
0.0
 20
0.0
 30
0.0
  9
$UCSORGBACK
 10
0.0
 20
0.0
 30
0.0
  9
$PUCSBASE
  2

  9
$PUCSNAME
  2

  9
$PUCSORG
 10
0.0
 20
0.0
 30
0.0
  9
$PUCSXDIR
 10
1.0
 20
0.0
 30
0.0
  9
$PUCSYDIR
 10
0.0
 20
1.0
 30
0.0
  9
$PUCSORTHOREF
  2

  9
$PUCSORTHOVIEW
 70
0
  9
$PUCSORGTOP
 10
0.0
 20
0.0
 30
0.0
  9
$PUCSORGBOTTOM
 10
0.0
 20
0.0
 30
0.0
  9
$PUCSORGLEFT
 10
0.0
 20
0.0
 30
0.0
  9
$PUCSORGRIGHT
 10
0.0
 20
0.0
 30
0.0
  9
$PUCSORGFRONT
 10
0.0
 20
0.0
 30
0.0
  9
$PUCSORGBACK
 10
0.0
 20
0.0
 30
0.0
  9
$USERI1
 70
0
  9
$USERI2
 70
0
  9
$USERI3
 70
0
  9
$USERI4
 70
0
  9
$USERI5
 70
0
  9
$USERR1
 40
0.0
  9
$USERR2
 40
0.0
  9
$USERR3
 40
0.0
  9
$USERR4
 40
0.0
  9
$USERR5
 40
0.0
  9
$WORLDVIEW
 70
1
  9
$SHADEDGE
 70
3
  9
$SHADEDIF
 70
70
  9
$TILEMODE
 70
1
  9
$MAXACTVP
 70
64
  9
$PINSBASE
 10
0.0
 20
0.0
 30
0.0
  9
$PLIMCHECK
 70
0
  9
$PEXTMIN
 10
1e+20
 20
1e+20
 30
1e+20
  9
$PEXTMAX
 10
-1e+20
 20
-1e+20
 30
-1e+20
  9
$PLIMMIN
 10
0.0
 20
0.0
  9
$PLIMMAX
 10
420.0
 20
297.0
  9
$UNITMODE
 70
0
  9
$VISRETAIN
 70
1
  9
$PLINEGEN
 70
0
  9
$PSLTSCALE
 70
1
  9
$TREEDEPTH
 70
3020
  9
$CMLSTYLE
  2
Standard
  9
$CMLJUST
 70
0
  9
$CMLSCALE
 40
20.0
  9
$PROXYGRAPHICS
 70
1
  9
$MEASUREMENT
 70
1
  9
$CELWEIGHT
370
-1
  9
$ENDCAPS
280
0
  9
$JOINSTYLE
280
0
  9
$LWDISPLAY
290
0
  9
$INSUNITS
 70
6
  9
$HYPERLINKBASE
  1

  9
$STYLESHEET
  1

  9
$XEDIT
290
1
  9
$CEPSNTYPE
380
0
  9
$PSTYLEMODE
290
1
  9
$FINGERPRINTGUID
  2
{62B996B0-1B1C-40F8-B1B1-4786D3074FCB}
  9
$VERSIONGUID
  2
{A47B7965-ABFE-4DC4-8892-82090C5F055D}
  9
$EXTNAMES
290
1
  9
$PSVPSCALE
 40
0.0
  9
$OLESTARTUP
290
0
  9
$SORTENTS
280
127
  9
$INDEXCTL
280
0
  9
$HIDETEXT
280
1
  9
$XCLIPFRAME
290
1
  9
$HALOGAP
280
0
  9
$OBSCOLOR
 70
257
  9
$OBSLTYPE
280
0
  9
$INTERSECTIONDISPLAY
280
0
  9
$INTERSECTIONCOLOR
 70
257
  9
$DIMASSOC
280
2
  9
$PROJECTNAME
  1

  9
$CAMERADISPLAY
290
0
  9
$LENSLENGTH
 40
50.0
  9
$CAMERAHEIGHT
 40
0.0
  9
$STEPSPERSEC
 40
24.0
  9
$STEPSIZE
 40
100.0
  9
$3DDWFPREC
 40
2.0
  9
$PSOLWIDTH
 40
0.005
  9
$PSOLHEIGHT
 40
0.08
  9
$LOFTANG1
 40
1.570796326795
  9
$LOFTANG2
 40
1.570796326795
  9
$LOFTMAG1
 40
0.0
  9
$LOFTMAG2
 40
0.0
  9
$LOFTPARAM
 70
7
  9
$LOFTNORMALS
280
1
  9
$LATITUDE
 40
37.795
  9
$LONGITUDE
 40
-122.394
  9
$NORTHDIRECTION
 40
0.0
  9
$TIMEZONE
 70
-8000
  9
$LIGHTGLYPHDISPLAY
280
1
  9
$TILEMODELIGHTSYNCH
280
1
  9
$CMATERIAL
347
20
  9
$SOLIDHIST
280
0
  9
$SHOWHIST
280
1
  9
$DWFFRAME
280
2
  9
$DGNFRAME
280
2
  9
$REALWORLDSCALE
290
1
  9
$INTERFERECOLOR
 62
256
  9
$CSHADOW
280
0
  9
$SHADOWPLANELOCATION
 40
0.0
  0
ENDSEC
  0
SECTION
  2
CLASSES
  0
CLASS
  1
ACDBDICTIONARYWDFLT
  2
AcDbDictionaryWithDefault
  3
ObjectDBX Classes
 90
0
 91
0
280
0
281
0
  0
CLASS
  1
SUN
  2
AcDbSun
  3
SCENEOE
 90
1153
 91
0
280
0
281
0
  0
CLASS
  1
VISUALSTYLE
  2
AcDbVisualStyle
  3
ObjectDBX Classes
 90
4095
 91
0
280
0
281
0
  0
CLASS
  1
MATERIAL
  2
AcDbMaterial
  3
ObjectDBX Classes
 90
1153
 91
0
280
0
281
0
  0
CLASS
  1
SCALE
  2
AcDbScale
  3
ObjectDBX Classes
 90
1153
 91
0
280
0
281
0
  0
CLASS
  1
TABLESTYLE
  2
AcDbTableStyle
  3
ObjectDBX Classes
 90
4095
 91
0
280
0
281
0
  0
CLASS
  1
MLEADERSTYLE
  2
AcDbMLeaderStyle
  3
ACDB_MLEADERSTYLE_CLASS
 90
4095
 91
0
280
0
281
0
  0
CLASS
  1
DICTIONARYVAR
  2
AcDbDictionaryVar
  3
ObjectDBX Classes
 90
0
 91
0
280
0
281
0
  0
CLASS
  1
CELLSTYLEMAP
  2
AcDbCellStyleMap
  3
ObjectDBX Classes
 90
1152
 91
0
280
0
281
0
  0
CLASS
  1
MENTALRAYRENDERSETTINGS
  2
AcDbMentalRayRenderSettings
  3
SCENEOE
 90
1024
 91
0
280
0
281
0
  0
CLASS
  1
ACDBDETAILVIEWSTYLE
  2
AcDbDetailViewStyle
  3
ObjectDBX Classes
 90
1025
 91
0
280
0
281
0
  0
CLASS
  1
ACDBSECTIONVIEWSTYLE
  2
AcDbSectionViewStyle
  3
ObjectDBX Classes
 90
1025
 91
0
280
0
281
0
  0
CLASS
  1
RASTERVARIABLES
  2
AcDbRasterVariables
  3
ISM
 90
0
 91
0
280
0
281
0
  0
CLASS
  1
ACDBPLACEHOLDER
  2
AcDbPlaceHolder
  3
ObjectDBX Classes
 90
0
 91
0
280
0
281
0
  0
CLASS
  1
LAYOUT
  2
AcDbLayout
  3
ObjectDBX Classes
 90
0
 91
0
280
0
281
0
  0
ENDSEC
  0
SECTION
  2
TABLES
  0
TABLE
  2
VPORT
  5
8
330
0
100
AcDbSymbolTable
 70
1
  0
VPORT
  5
23
330
8
100
AcDbSymbolTableRecord
100
AcDbViewportTableRecord
  2
*Active
 70
0
 10
0.0
 20
0.0
 11
1.0
 21
1.0
 12
0.0
 22
0.0
 13
0.0
 23
0.0
 14
0.5
 24
0.5
 15
0.5
 25
0.5
 16
0.0
 26
0.0
 36
1.0
 17
0.0
 27
0.0
 37
0.0
 40
1000.0
 41
1.34
 42
50.0
 43
0.0
 44
0.0
 50
0.0
 51
0.0
 71
0
 72
1000
 73
1
 74
3
 75
0
 76
0
 77
0
 78
0
281
0
 65
0
146
0.0
  0
ENDTAB
  0
TABLE
  2
LTYPE
  5
2
330
0
100
AcDbSymbolTable
 70
21
  0
LTYPE
  5
24
330
2
100
AcDbSymbolTableRecord
100
AcDbLinetypeTableRecord
  2
ByBlock
 70
0
  3

 72
65
 73
0
 40
0.0
  0
LTYPE
  5
25
330
2
100
AcDbSymbolTableRecord
100
AcDbLinetypeTableRecord
  2
ByLayer
 70
0
  3

 72
65
 73
0
 40
0.0
  0
LTYPE
  5
26
330
2
100
AcDbSymbolTableRecord
100
AcDbLinetypeTableRecord
  2
Continuous
 70
0
  3

 72
65
 73
0
 40
0.0
  0
LTYPE
  5
2F
330
2
100
AcDbSymbolTableRecord
100
AcDbLinetypeTableRecord
  2
CENTER
 70
0
  3
Center ____ _ ____ _ ____ _ ____ _ ____ _ ____
 72
65
 73
4
 40
5.08
 49
3.175
 74
0
 49
-0.635
 74
0
 49
0.635
 74
0
 49
-0.635
 74
0
  0
LTYPE
  5
30
330
2
100
AcDbSymbolTableRecord
100
AcDbLinetypeTableRecord
  2
CENTERX2
 70
0
  3
Center (2x) ________  __  ________  __  ________
 72
65
 73
4
 40
8.89
 49
6.35
 74
0
 49
-0.635
 74
0
 49
1.27
 74
0
 49
-0.635
 74
0
  0
LTYPE
  5
31
330
2
100
AcDbSymbolTableRecord
100
AcDbLinetypeTableRecord
  2
CENTER2
 70
0
  3
Center (.5x) ____ _ ____ _ ____ _ ____ _ ____
 72
65
 73
4
 40
2.54
 49
1.587
 74
0
 49
-0.318
 74
0
 49
0.318
 74
0
 49
-0.318
 74
0
  0
LTYPE
  5
32
330
2
100
AcDbSymbolTableRecord
100
AcDbLinetypeTableRecord
  2
DASHED
 70
0
  3
Dashed __ __ __ __ __ __ __ __ __ __ __ __ __ _
 72
65
 73
2
 40
1.524
 49
1.27
 74
0
 49
-0.254
 74
0
  0
LTYPE
  5
33
330
2
100
AcDbSymbolTableRecord
100
AcDbLinetypeTableRecord
  2
DASHEDX2
 70
0
  3
Dashed (2x) ____  ____  ____  ____  ____  ____
 72
65
 73
2
 40
3.048
 49
2.54
 74
0
 49
-0.508
 74
0
  0
LTYPE
  5
34
330
2
100
AcDbSymbolTableRecord
100
AcDbLinetypeTableRecord
  2
DASHED2
 70
0
  3
Dashed (.5x) _ _ _ _ _ _ _ _ _ _ _ _ _ _
 72
65
 73
2
 40
0.762
 49
0.635
 74
0
 49
-0.127
 74
0
  0
LTYPE
  5
35
330
2
100
AcDbSymbolTableRecord
100
AcDbLinetypeTableRecord
  2
PHANTOM
 70
0
  3
Phantom ______  __  __  ______  __  __  ______
 72
65
 73
6
 40
6.35
 49
3.175
 74
0
 49
-0.635
 74
0
 49
0.635
 74
0
 49
-0.635
 74
0
 49
0.635
 74
0
 49
-0.635
 74
0
  0
LTYPE
  5
36
330
2
100
AcDbSymbolTableRecord
100
AcDbLinetypeTableRecord
  2
PHANTOMX2
 70
0
  3
Phantom (2x)____________    ____    ____    ____________
 72
65
 73
6
 40
10.795
 49
6.35
 74
0
 49
-0.635
 74
0
 49
1.27
 74
0
 49
-0.635
 74
0
 49
1.27
 74
0
 49
-0.635
 74
0
  0
LTYPE
  5
37
330
2
100
AcDbSymbolTableRecord
100
AcDbLinetypeTableRecord
  2
PHANTOM2
 70
0
  3
Phantom (.5x) ___ _ _ ___ _ _ ___ _ _ ___ _ _ ___
 72
65
 73
6
 40
3.175
 49
1.587
 74
0
 49
-0.318
 74
0
 49
0.318
 74
0
 49
-0.318
 74
0
 49
0.318
 74
0
 49
-0.318
 74
0
  0
LTYPE
  5
38
330
2
100
AcDbSymbolTableRecord
100
AcDbLinetypeTableRecord
  2
DASHDOT
 70
0
  3
Dash dot __ . __ . __ . __ . __ . __ . __ . __
 72
65
 73
4
 40
3.556
 49
2.54
 74
0
 49
-0.508
 74
0
 49
0.0
 74
0
 49
-0.508
 74
0
  0
LTYPE
  5
39
330
2
100
AcDbSymbolTableRecord
100
AcDbLinetypeTableRecord
  2
DASHDOTX2
 70
0
  3
Dash dot (2x) ____  .  ____  .  ____  .  ____
 72
65
 73
4
 40
6.096
 49
5.08
 74
0
 49
-0.508
 74
0
 49
0.0
 74
0
 49
-0.508
 74
0
  0
LTYPE
  5
3A
330
2
100
AcDbSymbolTableRecord
100
AcDbLinetypeTableRecord
  2
DASHDOT2
 70
0
  3
Dash dot (.5x) _ . _ . _ . _ . _ . _ . _ . _
 72
65
 73
4
 40
1.778
 49
1.27
 74
0
 49
-0.254
 74
0
 49
0.0
 74
0
 49
-0.254
 74
0
  0
LTYPE
  5
3B
330
2
100
AcDbSymbolTableRecord
100
AcDbLinetypeTableRecord
  2
DOT
 70
0
  3
Dot .  .  .  .  .  .  .  .  .  .  .  .  .  .  .  .
 72
65
 73
2
 40
0.508
 49
0.0
 74
0
 49
-0.508
 74
0
  0
LTYPE
  5
3C
330
2
100
AcDbSymbolTableRecord
100
AcDbLinetypeTableRecord
  2
DOTX2
 70
0
  3
Dot (2x) .    .    .    .    .    .    .    . 
 72
65
 73
2
 40
1.016
 49
0.0
 74
0
 49
-1.016
 74
0
  0
LTYPE
  5
3D
330
2
100
AcDbSymbolTableRecord
100
AcDbLinetypeTableRecord
  2
DOT2
 70
0
  3
Dot (.5) . . . . . . . . . . . . . . . . . . . 
 72
65
 73
2
 40
0.254
 49
0.0
 74
0
 49
-0.254
 74
0
  0
LTYPE
  5
3E
330
2
100
AcDbSymbolTableRecord
100
AcDbLinetypeTableRecord
  2
DIVIDE
 70
0
  3
Divide __ . . __ . . __ . . __ . . __ . . __
 72
65
 73
6
 40
4.064
 49
2.54
 74
0
 49
-0.508
 74
0
 49
0.0
 74
0
 49
-0.508
 74
0
 49
0.0
 74
0
 49
-0.508
 74
0
  0
LTYPE
  5
3F
330
2
100
AcDbSymbolTableRecord
100
AcDbLinetypeTableRecord
  2
DIVIDEX2
 70
0
  3
Divide (2x) ____  . .  ____  . .  ____  . .  ____
 72
65
 73
6
 40
6.604
 49
5.08
 74
0
 49
-0.508
 74
0
 49
0.0
 74
0
 49
-0.508
 74
0
 49
0.0
 74
0
 49
-0.508
 74
0
  0
LTYPE
  5
40
330
2
100
AcDbSymbolTableRecord
100
AcDbLinetypeTableRecord
  2
DIVIDE2
 70
0
  3
Divide(.5x) _ . _ . _ . _ . _ . _ . _ . _
 72
65
 73
6
 40
2.032
 49
1.27
 74
0
 49
-0.254
 74
0
 49
0.0
 74
0
 49
-0.254
 74
0
 49
0.0
 74
0
 49
-0.254
 74
0
  0
ENDTAB
  0
TABLE
  2
LAYER
  5
1
330
0
100
AcDbSymbolTable
 70
5
  0
LAYER
  5
27
330
1
100
AcDbSymbolTableRecord
100
AcDbLayerTableRecord
  2
0
 70
0
 62
7
  6
Continuous
370
-3
390
13
347
21
  0
LAYER
  5
28
330
1
100
AcDbSymbolTableRecord
100
AcDbLayerTableRecord
  2
Defpoints
 70
0
 62
7
  6
Continuous
290
0
370
-3
390
13
347
21
  0
LAYER
  5
8A
330
1
100
AcDbSymbolTableRecord
100
AcDbLayerTableRecord
  2
Layer
 70
0
 62
1
  6
Continuous
370
50
390
13
347
21
  0
LAYER
  5
8B
330
1
100
AcDbSymbolTableRecord
100
AcDbLayerTableRecord
  2
NumLabel
 70
0
 62
1
  6
Continuous
370
15
390
13
347
21
  0
LAYER
  5
B6
330
1
100
AcDbSymbolTableRecord
100
AcDbLayerTableRecord
  2
SplitMark
 70
0
 62
3
  6
Continuous
370
-3
390
13
347
21
  0
ENDTAB
  0
TABLE
  2
STYLE
  5
5
330
0
100
AcDbSymbolTable
 70
26
  0
STYLE
  5
29
330
5
100
AcDbSymbolTableRecord
100
AcDbTextStyleTableRecord
  2
Standard
 70
0
 40
0.0
 41
1.0
 50
0.0
 71
0
 42
2.5
  3
txt
  4

  0
STYLE
  5
41
330
5
100
AcDbSymbolTableRecord
100
AcDbTextStyleTableRecord
  2
OpenSans-Light
 70
0
 40
0.0
 41
1.0
 50
0.0
 71
0
 42
2.5
  3
OpenSans-Light.ttf
  4

  0
STYLE
  5
42
330
5
100
AcDbSymbolTableRecord
100
AcDbTextStyleTableRecord
  2
OpenSans-Light-Italic
 70
0
 40
0.0
 41
1.0
 50
0.0
 71
0
 42
2.5
  3
OpenSans-LightItalic.ttf
  4

  0
STYLE
  5
43
330
5
100
AcDbSymbolTableRecord
100
AcDbTextStyleTableRecord
  2
OpenSans
 70
0
 40
0.0
 41
1.0
 50
0.0
 71
0
 42
2.5
  3
OpenSans-Regular.ttf
  4

  0
STYLE
  5
44
330
5
100
AcDbSymbolTableRecord
100
AcDbTextStyleTableRecord
  2
OpenSans-Italic
 70
0
 40
0.0
 41
1.0
 50
0.0
 71
0
 42
2.5
  3
OpenSans-Italic.ttf
  4

  0
STYLE
  5
45
330
5
100
AcDbSymbolTableRecord
100
AcDbTextStyleTableRecord
  2
OpenSans-SemiBold
 70
0
 40
0.0
 41
1.0
 50
0.0
 71
0
 42
2.5
  3
OpenSans-SemiBold.ttf
  4

  0
STYLE
  5
46
330
5
100
AcDbSymbolTableRecord
100
AcDbTextStyleTableRecord
  2
OpenSans-SemiBoldItalic
 70
0
 40
0.0
 41
1.0
 50
0.0
 71
0
 42
2.5
  3
OpenSans-SemiBoldItalic.ttf
  4

  0
STYLE
  5
47
330
5
100
AcDbSymbolTableRecord
100
AcDbTextStyleTableRecord
  2
OpenSans-Bold
 70
0
 40
0.0
 41
1.0
 50
0.0
 71
0
 42
2.5
  3
OpenSans-Bold.ttf
  4

  0
STYLE
  5
48
330
5
100
AcDbSymbolTableRecord
100
AcDbTextStyleTableRecord
  2
OpenSans-BoldItalic
 70
0
 40
0.0
 41
1.0
 50
0.0
 71
0
 42
2.5
  3
OpenSans-BoldItalic.ttf
  4

  0
STYLE
  5
49
330
5
100
AcDbSymbolTableRecord
100
AcDbTextStyleTableRecord
  2
OpenSans-ExtraBold
 70
0
 40
0.0
 41
1.0
 50
0.0
 71
0
 42
2.5
  3
OpenSans-ExtraBold.ttf
  4

  0
STYLE
  5
4A
330
5
100
AcDbSymbolTableRecord
100
AcDbTextStyleTableRecord
  2
OpenSans-ExtraBoldItalic
 70
0
 40
0.0
 41
1.0
 50
0.0
 71
0
 42
2.5
  3
OpenSans-ExtraBoldItalic.ttf
  4

  0
STYLE
  5
4B
330
5
100
AcDbSymbolTableRecord
100
AcDbTextStyleTableRecord
  2
OpenSansCondensed-Bold
 70
0
 40
0.0
 41
1.0
 50
0.0
 71
0
 42
2.5
  3
OpenSansCondensed-Bold.ttf
  4

  0
STYLE
  5
4C
330
5
100
AcDbSymbolTableRecord
100
AcDbTextStyleTableRecord
  2
OpenSansCondensed-Light
 70
0
 40
0.0
 41
1.0
 50
0.0
 71
0
 42
2.5
  3
OpenSansCondensed-Light.ttf
  4

  0
STYLE
  5
4D
330
5
100
AcDbSymbolTableRecord
100
AcDbTextStyleTableRecord
  2
OpenSansCondensed-Italic
 70
0
 40
0.0
 41
1.0
 50
0.0
 71
0
 42
2.5
  3
OpenSansCondensed-LightItalic.ttf
  4

  0
STYLE
  5
4E
330
5
100
AcDbSymbolTableRecord
100
AcDbTextStyleTableRecord
  2
LiberationSans
 70
0
 40
0.0
 41
1.0
 50
0.0
 71
0
 42
2.5
  3
LiberationSans-Regular.ttf
  4

  0
STYLE
  5
4F
330
5
100
AcDbSymbolTableRecord
100
AcDbTextStyleTableRecord
  2
LiberationSans-Bold
 70
0
 40
0.0
 41
1.0
 50
0.0
 71
0
 42
2.5
  3
LiberationSans-Bold.ttf
  4

  0
STYLE
  5
50
330
5
100
AcDbSymbolTableRecord
100
AcDbTextStyleTableRecord
  2
LiberationSans-BoldItalic
 70
0
 40
0.0
 41
1.0
 50
0.0
 71
0
 42
2.5
  3
LiberationSans-BoldItalic.ttf
  4

  0
STYLE
  5
51
330
5
100
AcDbSymbolTableRecord
100
AcDbTextStyleTableRecord
  2
LiberationSans-Italic
 70
0
 40
0.0
 41
1.0
 50
0.0
 71
0
 42
2.5
  3
LiberationSans-Italic.ttf
  4

  0
STYLE
  5
52
330
5
100
AcDbSymbolTableRecord
100
AcDbTextStyleTableRecord
  2
LiberationSerif
 70
0
 40
0.0
 41
1.0
 50
0.0
 71
0
 42
2.5
  3
LiberationSerif-Regular.ttf
  4

  0
STYLE
  5
53
330
5
100
AcDbSymbolTableRecord
100
AcDbTextStyleTableRecord
  2
LiberationSerif-Bold
 70
0
 40
0.0
 41
1.0
 50
0.0
 71
0
 42
2.5
  3
LiberationSerif-Bold.ttf
  4

  0
STYLE
  5
54
330
5
100
AcDbSymbolTableRecord
100
AcDbTextStyleTableRecord
  2
LiberationSerif-BoldItalic
 70
0
 40
0.0
 41
1.0
 50
0.0
 71
0
 42
2.5
  3
LiberationSerif-BoldItalic.ttf
  4

  0
STYLE
  5
55
330
5
100
AcDbSymbolTableRecord
100
AcDbTextStyleTableRecord
  2
LiberationSerif-Italic
 70
0
 40
0.0
 41
1.0
 50
0.0
 71
0
 42
2.5
  3
LiberationSerif-Italic.ttf
  4

  0
STYLE
  5
56
330
5
100
AcDbSymbolTableRecord
100
AcDbTextStyleTableRecord
  2
LiberationMono
 70
0
 40
0.0
 41
1.0
 50
0.0
 71
0
 42
2.5
  3
LiberationMono-Regular.ttf
  4

  0
STYLE
  5
57
330
5
100
AcDbSymbolTableRecord
100
AcDbTextStyleTableRecord
  2
LiberationMono-Bold
 70
0
 40
0.0
 41
1.0
 50
0.0
 71
0
 42
2.5
  3
LiberationMono-Bold.ttf
  4

  0
STYLE
  5
58
330
5
100
AcDbSymbolTableRecord
100
AcDbTextStyleTableRecord
  2
LiberationMono-BoldItalic
 70
0
 40
0.0
 41
1.0
 50
0.0
 71
0
 42
2.5
  3
LiberationMono-BoldItalic.ttf
  4

  0
STYLE
  5
59
330
5
100
AcDbSymbolTableRecord
100
AcDbTextStyleTableRecord
  2
LiberationMono-Italic
 70
0
 40
0.0
 41
1.0
 50
0.0
 71
0
 42
2.5
  3
LiberationMono-Italic.ttf
  4

  0
ENDTAB
  0
TABLE
  2
VIEW
  5
7
330
0
100
AcDbSymbolTable
 70
0
  0
ENDTAB
  0
TABLE
  2
UCS
  5
6
330
0
100
AcDbSymbolTable
 70
0
  0
ENDTAB
  0
TABLE
  2
APPID
  5
3
330
0
100
AcDbSymbolTable
 70
3
  0
APPID
  5
2A
330
3
100
AcDbSymbolTableRecord
100
AcDbRegAppTableRecord
  2
ACAD
 70
0
  0
APPID
  5
B3
330
3
100
AcDbSymbolTableRecord
100
AcDbRegAppTableRecord
  2
HATCHBACKGROUNDCOLOR
 70
0
  0
APPID
  5
B4
330
3
100
AcDbSymbolTableRecord
100
AcDbRegAppTableRecord
  2
EZDXF
 70
0
  0
ENDTAB
  0
TABLE
  2
DIMSTYLE
  5
4
330
0
100
AcDbSymbolTable
 70
12
100
AcDbDimStyleTable
  0
DIMSTYLE
105
2B
330
4
100
AcDbSymbolTableRecord
100
AcDbDimStyleTableRecord
  2
Standard
 70
0
 40
1.0
 41
2.5
 42
0.625
 43
3.75
 44
1.25
 45
0.0
 46
0.0
 47
0.0
 48
0.0
 49
2.5
140
2.5
141
2.5
142
0.0
143
0.03937007874
144
1.0
145
0.0
146
1.0
147
0.625
148
0.0
 69
0
 70
0
 71
0
 72
0
 73
0
 74
0
 75
0
 76
0
 77
1
 78
8
 79
3
170
0
171
3
172
1
173
0
174
0
175
0
176
0
177
0
178
0
179
2
271
2
272
2
273
2
274
3
275
0
276
0
277
2
278
44
279
0
280
0
281
0
282
0
283
0
284
8
285
0
286
0
288
0
289
3
290
0
371
-2
372
-2
  0
DIMSTYLE
105
73
330
4
100
AcDbSymbolTableRecord
100
AcDbDimStyleTableRecord
  2
EZDXF
 70
0
 40
1.0
 41
0.175
 42
0.125
 43
3.75
 44
0.375
 45
0.0
 46
0.0
 47
0.0
 48
0.0
 49
2.5
140
0.25
141
2.5
142
0.0
143
0.03937007874
144
100.0
145
0.0
146
0.5
147
0.1
148
0.0
 69
0
 70
0
 71
0
 72
0
 73
0
 74
0
 75
0
 76
0
 77
1
 78
12
 79
3
170
0
171
3
172
1
173
0
174
0
175
0
176
0
177
0
178
0
179
2
271
2
272
2
273
2
274
3
275
0
276
0
277
2
278
46
279
2
280
0
281
0
282
0
283
0
284
8
285
0
286
0
288
1
289
3
290
0
340
4C
342
74
371
-2
372
-2
  0
DIMSTYLE
105
7C
330
4
100
AcDbSymbolTableRecord
100
AcDbDimStyleTableRecord
  2
EZ_M_100_H25_CM
 70
0
 40
1.0
 41
0.25
 42
0.125
 43
3.75
 44
0.375
 45
0.0
 46
0.0
 47
0.0
 48
0.0
 49
2.5
140
0.25
141
2.5
142
0.125
143
0.03937007874
144
100.0
145
0.0
146
0.5
147
0.1
148
0.0
 69
0
 70
0
 71
0
 72
0
 73
0
 74
0
 75
0
 76
0
 77
1
 78
12
 79
3
170
0
171
3
172
1
173
0
174
0
175
0
176
0
177
0
178
0
179
2
271
2
272
2
273
2
274
3
275
0
276
0
277
2
278
46
279
2
280
0
281
0
282
0
283
0
284
8
285
0
286
0
288
1
289
3
290
0
340
4C
371
-2
372
-2
  0
DIMSTYLE
105
7D
330
4
100
AcDbSymbolTableRecord
100
AcDbDimStyleTableRecord
  2
EZ_M_50_H25_CM
 70
0
 40
1.0
 41
0.125
 42
0.0625
 43
3.75
 44
0.1875
 45
0.0
 46
0.0
 47
0.0
 48
0.0
 49
2.5
140
0.125
141
2.5
142
0.0625
143
0.03937007874
144
100.0
145
0.0
146
0.5
147
0.05
148
0.0
 69
0
 70
0
 71
0
 72
0
 73
0
 74
0
 75
0
 76
0
 77
1
 78
12
 79
3
170
0
171
3
172
1
173
0
174
0
175
0
176
0
177
0
178
0
179
2
271
2
272
2
273
2
274
3
275
0
276
0
277
2
278
46
279
2
280
0
281
0
282
0
283
0
284
8
285
0
286
0
288
1
289
3
290
0
340
4C
371
-2
372
-2
  0
DIMSTYLE
105
7E
330
4
100
AcDbSymbolTableRecord
100
AcDbDimStyleTableRecord
  2
EZ_M_25_H25_CM
 70
0
 40
1.0
 41
0.0625
 42
0.03125
 43
3.75
 44
0.09375
 45
0.0
 46
0.0
 47
0.0
 48
0.0
 49
2.5
140
0.0625
141
2.5
142
0.03125
143
0.03937007874
144
100.0
145
0.0
146
0.5
147
0.025
148
0.0
 69
0
 70
0
 71
0
 72
0
 73
0
 74
0
 75
0
 76
0
 77
1
 78
12
 79
3
170
0
171
3
172
1
173
0
174
0
175
0
176
0
177
0
178
0
179
2
271
2
272
2
273
2
274
3
275
0
276
0
277
2
278
46
279
2
280
0
281
0
282
0
283
0
284
8
285
0
286
0
288
1
289
3
290
0
340
4C
371
-2
372
-2
  0
DIMSTYLE
105
7F
330
4
100
AcDbSymbolTableRecord
100
AcDbDimStyleTableRecord
  2
EZ_M_20_H25_CM
 70
0
 40
1.0
 41
0.05
 42
0.025
 43
3.75
 44
0.07500000000000001
 45
0.0
 46
0.0
 47
0.0
 48
0.0
 49
2.5
140
0.05
141
2.5
142
0.025
143
0.03937007874
144
100.0
145
0.0
146
0.5
147
0.020000000000000004
148
0.0
 69
0
 70
0
 71
0
 72
0
 73
0
 74
0
 75
0
 76
0
 77
1
 78
12
 79
3
170
0
171
3
172
1
173
0
174
0
175
0
176
0
177
0
178
0
179
2
271
2
272
2
273
2
274
3
275
0
276
0
277
2
278
46
279
2
280
0
281
0
282
0
283
0
284
8
285
0
286
0
288
1
289
3
290
0
340
4C
371
-2
372
-2
  0
DIMSTYLE
105
80
330
4
100
AcDbSymbolTableRecord
100
AcDbDimStyleTableRecord
  2
EZ_M_10_H25_CM
 70
0
 40
1.0
 41
0.025
 42
0.0125
 43
3.75
 44
0.037500000000000006
 45
0.0
 46
0.0
 47
0.0
 48
0.0
 49
2.5
140
0.025
141
2.5
142
0.0125
143
0.03937007874
144
100.0
145
0.0
146
0.5
147
0.010000000000000002
148
0.0
 69
0
 70
0
 71
0
 72
0
 73
0
 74
0
 75
0
 76
0
 77
1
 78
12
 79
3
170
0
171
3
172
1
173
0
174
0
175
0
176
0
177
0
178
0
179
2
271
2
272
2
273
2
274
3
275
0
276
0
277
2
278
46
279
2
280
0
281
0
282
0
283
0
284
8
285
0
286
0
288
1
289
3
290
0
340
4C
371
-2
372
-2
  0
DIMSTYLE
105
81
330
4
100
AcDbSymbolTableRecord
100
AcDbDimStyleTableRecord
  2
EZ_M_5_H25_CM
 70
0
 40
1.0
 41
0.0125
 42
0.00625
 43
3.75
 44
0.018750000000000003
 45
0.0
 46
0.0
 47
0.0
 48
0.0
 49
2.5
140
0.0125
141
2.5
142
0.00625
143
0.03937007874
144
100.0
145
0.0
146
0.5
147
0.005000000000000001
148
0.0
 69
0
 70
0
 71
0
 72
0
 73
0
 74
0
 75
0
 76
0
 77
1
 78
12
 79
3
170
0
171
3
172
1
173
0
174
0
175
0
176
0
177
0
178
0
179
2
271
2
272
2
273
2
274
3
275
0
276
0
277
2
278
46
279
2
280
0
281
0
282
0
283
0
284
8
285
0
286
0
288
1
289
3
290
0
340
4C
371
-2
372
-2
  0
DIMSTYLE
105
82
330
4
100
AcDbSymbolTableRecord
100
AcDbDimStyleTableRecord
  2
EZ_M_1_H25_CM
 70
0
 40
1.0
 41
0.0025
 42
0.00125
 43
3.75
 44
0.00375
 45
0.0
 46
0.0
 47
0.0
 48
0.0
 49
2.5
140
0.0025
141
2.5
142
0.00125
143
0.03937007874
144
100.0
145
0.0
146
0.5
147
0.001
148
0.0
 69
0
 70
0
 71
0
 72
0
 73
0
 74
0
 75
0
 76
0
 77
1
 78
12
 79
3
170
0
171
3
172
1
173
0
174
0
175
0
176
0
177
0
178
0
179
2
271
2
272
2
273
2
274
3
275
0
276
0
277
2
278
46
279
2
280
0
281
0
282
0
283
0
284
8
285
0
286
0
288
1
289
3
290
0
340
4C
371
-2
372
-2
  0
DIMSTYLE
105
83
330
4
100
AcDbSymbolTableRecord
100
AcDbDimStyleTableRecord
  2
EZ_RADIUS
 70
0
 40
1.0
 41
0.25
 42
0.125
 43
3.75
 44
0.375
 45
0.0
 46
0.0
 47
0.0
 48
0.0
 49
2.5
140
0.25
141
0.0
142
0.0
143
0.03937007874
144
100.0
145
0.0
146
0.5
147
0.1
148
0.0
 69
0
 70
0
 71
0
 72
0
 73
0
 74
0
 75
0
 76
0
 77
1
 78
12
 79
3
170
0
171
3
172
0
173
0
174
0
175
0
176
0
177
0
178
0
179
2
271
2
272
2
273
2
274
3
275
0
276
0
277
2
278
46
279
1
280
0
281
0
282
0
283
0
284
8
285
0
286
0
288
1
289
3
290
0
340
4C
342
84
371
-2
372
-2
  0
DIMSTYLE
105
88
330
4
100
AcDbSymbolTableRecord
100
AcDbDimStyleTableRecord
  2
EZ_RADIUS_INSIDE
 70
0
 40
1.0
 41
0.25
 42
0.125
 43
3.75
 44
0.375
 45
0.0
 46
0.0
 47
0.0
 48
0.0
 49
2.5
140
0.25
141
0.0
142
0.0
143
0.03937007874
144
100.0
145
0.0
146
0.5
147
0.1
148
0.0
 69
0
 70
0
 71
0
 72
0
 73
0
 74
0
 75
0
 76
0
 77
0
 78
12
 79
3
170
0
171
3
172
0
173
0
174
1
175
0
176
0
177
0
178
0
179
2
271
2
272
2
273
2
274
3
275
0
276
0
277
2
278
46
279
0
280
0
281
0
282
0
283
0
284
8
285
0
286
0
288
1
289
0
290
0
340
4C
342
84
371
-2
372
-2
  0
DIMSTYLE
105
89
330
4
100
AcDbSymbolTableRecord
100
AcDbDimStyleTableRecord
  2
EZ_CURVED
 70
0
 40
1.0
 41
0.25
 42
0.125
 43
3.75
 44
0.375
 45
0.0
 46
0.0
 47
0.0
 48
0.0
 49
2.5
140
0.25
141
2.5
142
0.0
143
0.03937007874
144
100.0
145
0.0
146
0.5
147
0.1
148
0.0
 69
0
 70
0
 71
0
 72
0
 73
0
 74
0
 75
0
 76
0
 77
1
 78
12
 79
2
 90
2
170
0
171
3
172
1
173
0
174
0
175
0
176
0
177
0
178
0
179
2
271
2
272
2
273
2
274
3
275
0
276
0
277
2
278
46
279
2
280
0
281
0
282
0
283
0
284
8
285
0
286
0
288
1
289
3
290
0
340
4C
371
-2
372
-2
  0
ENDTAB
  0
TABLE
  2
BLOCK_RECORD
  5
9
330
0
100
AcDbSymbolTable
 70
5
  0
BLOCK_RECORD
  5
17
330
9
100
AcDbSymbolTableRecord
100
AcDbBlockTableRecord
  2
*Model_Space
340
1A
 70
0
280
1
281
0
  0
BLOCK_RECORD
  5
1B
330
9
100
AcDbSymbolTableRecord
100
AcDbBlockTableRecord
  2
*Paper_Space
340
1E
 70
0
280
1
281
0
  0
BLOCK_RECORD
  5
74
330
9
100
AcDbSymbolTableRecord
100
AcDbBlockTableRecord
  2
_ARCHTICK
340
0
 70
0
280
1
281
0
  0
BLOCK_RECORD
  5
78
330
9
100
AcDbSymbolTableRecord
100
AcDbBlockTableRecord
  2
_CLOSEDFILLED
340
0
 70
0
280
1
281
0
  0
BLOCK_RECORD
  5
84
330
9
100
AcDbSymbolTableRecord
100
AcDbBlockTableRecord
  2
_CLOSEDBLANK
340
0
 70
0
280
1
281
0
  0
ENDTAB
  0
ENDSEC
  0
SECTION
  2
BLOCKS
  0
BLOCK
  5
18
330
17
100
AcDbEntity
  8
0
100
AcDbBlockBegin
  2
*Model_Space
 70
0
 10
0.0
 20
0.0
 30
0.0
  3
*Model_Space
  1

  0
ENDBLK
  5
19
330
17
100
AcDbEntity
  8
0
100
AcDbBlockEnd
  0
BLOCK
  5
1C
330
1B
100
AcDbEntity
  8
0
100
AcDbBlockBegin
  2
*Paper_Space
 70
0
 10
0.0
 20
0.0
 30
0.0
  3
*Paper_Space
  1

  0
ENDBLK
  5
1D
330
1B
100
AcDbEntity
  8
0
100
AcDbBlockEnd
  0
BLOCK
  5
75
330
74
100
AcDbEntity
  8
0
100
AcDbBlockBegin
  2
_ARCHTICK
 70
0
 10
0.0
 20
0.0
 30
0.0
  3
_ARCHTICK
  1

  0
LWPOLYLINE
  5
77
330
74
100
AcDbEntity
  8
0
  6
BYBLOCK
 62
0
100
AcDbPolyline
 90
2
 70
0
 43
0.15
 10
-0.5
 20
-0.5
 10
0.5
 20
0.5
  0
ENDBLK
  5
76
330
74
100
AcDbEntity
  8
0
100
AcDbBlockEnd
  0
BLOCK
  5
79
330
78
100
AcDbEntity
  8
0
100
AcDbBlockBegin
  2
_CLOSEDFILLED
 70
0
 10
0.0
 20
0.0
 30
0.0
  3
_CLOSEDFILLED
  1

  0
SOLID
  5
7B
330
78
100
AcDbEntity
  8
0
  6
BYBLOCK
 62
0
100
AcDbTrace
 10
-1.0
 20
0.16439898372402537
 30
0.0
 11
0.0
 21
0.0
 31
0.0
 12
-1.0
 22
-0.16439898372402537
 32
0.0
 13
-1.0
 23
-0.16439898372402537
 33
0.0
  0
ENDBLK
  5
7A
330
78
100
AcDbEntity
  8
0
100
AcDbBlockEnd
  0
BLOCK
  5
85
330
84
100
AcDbEntity
  8
0
100
AcDbBlockBegin
  2
_CLOSEDBLANK
 70
0
 10
0.0
 20
0.0
 30
0.0
  3
_CLOSEDBLANK
  1

  0
LWPOLYLINE
  5
87
330
84
100
AcDbEntity
  8
0
  6
BYBLOCK
 62
0
100
AcDbPolyline
 90
3
 70
1
 10
-1.0
 20
0.16439898372402537
 10
0.0
 20
0.0
 10
-1.0
 20
-0.16439898372402537
  0
ENDBLK
  5
86
330
84
100
AcDbEntity
  8
0
100
AcDbBlockEnd
  0
ENDSEC
  0
SECTION
  2
ENTITIES
  0
LWPOLYLINE
  5
8C
330
17
100
AcDbEntity
  8
Layer
100
AcDbPolyline
 90
173
 70
1
 10
461.82989608784874
 20
199.10743215563645
 10
461.82989608784874
 20
199.10743215563645
 10
456.388802025492
 20
200.77064466741803
 10
450.65186685587753
 20
202.49507788619934
 10
444.92534367950884
 20
204.18381237829664
 10
439.21249598592266
 20
205.8378966312819
 10
433.5079281658175
 20
207.4538917085684
 10
427.80830098367215
 20
209.03470753102337
 10
422.1168876576632
 20
210.5789486158975
 10
416.4316144658483
 20
212.08286235338778
 10
410.74559912956454
 20
213.54607846238457
 10
405.0557573878691
 20
214.97078311176037
 10
399.36092905964955
 20
216.35862465572504
 10
393.66496575550127
 20
217.71072753259304
 10
387.9690363427251
 20
219.023458799654
 10
382.2692967196384
 20
220.2963575806079
 10
376.5654270356263
 20
221.52862247308684
 10
370.8511328016443
 20
222.72223885960014
 10
365.13693006164937
 20
223.88054854945742
 10
359.42127999189876
 20
224.99408203022827
 10
353.69235767781106
 20
226.0666160188242
 10
347.95550163167434
 20
227.10311821697047
 10
342.2170907163046
 20
228.10176222685644
 10
336.47518290305743
 20
229.05889722339484
 10
330.72649208579514
 20
229.9747616322068
 10
324.96990729146273
 20
230.8508678617874
 10
319.20671205072307
 20
231.68856050340935
 10
313.43862348094535
 20
232.48766149783435
 10
307.6647485729105
 20
233.24616251421523
 10
301.87964094263566
 20
233.96522564351974
 10
296.08953388459986
 20
234.6486061004605
 10
290.2976214968493
 20
235.29291234324455
 10
284.5016294567909
 20
235.89737398785718
 10
278.7029312884327
 20
236.4621150264135
 10
272.9009282000837
 20
236.98592493363262
 10
267.0933820733023
 20
237.4715667953525
 10
261.29142607143945
 20
237.92070389906218
 10
255.49138249409046
 20
238.32593280283768
 10
249.69073583086507
 20
238.6924521302767
 10
243.899355365135
 20
239.01894068916403
 10
238.1131455086313
 20
239.30117590742233
 10
232.32983811276267
 20
239.54103465042147
 10
226.554659396711
 20
239.73972350244003
 10
220.78801554751263
 20
239.89453811115692
 10
215.02903629602827
 20
240.00621383904684
 10
209.28191893334278
 20
240.07581490862725
 10
203.55121844585642
 20
240.10076488260438
 10
197.83525050447122
 20
240.076869719717
 10
192.1278750270515
 20
240.0063772111014
 10
186.44223118659949
 20
239.8928167101542
 10
180.7732774570492
 20
239.7265230835321
 10
175.1200721434676
 20
239.51563680428126
 10
169.49362557028667
 20
239.25633373832252
 10
163.88958357343438
 20
238.9468040025012
 10
158.31618267342668
 20
238.5876310070759
 10
152.7703867602011
 20
238.17383883368552
 10
147.25315620489798
 20
237.7074769176434
 10
141.76657019430354
 20
237.18853714536232
 10
136.31798616578658
 20
236.61920161524284
 10
130.91132459071207
 20
235.99445925170278
 10
125.54470464102019
 20
235.3146595532375
 10
120.22553890248267
 20
234.5828904238712
 10
114.96165854238198
 20
233.80064464938977
 10
109.76567250640542
 20
232.96828587551903
 10
104.6424730293852
 20
232.08101102466145
 10
99.59275493060281
 20
231.1395493296573
 10
94.62988397916058
 20
230.15081165348172
 10
89.75983510778909
 20
229.11110223308057
 10
84.98827972183196
 20
228.02509559988488
 10
80.32135231362051
 20
226.89672493941103
 10
75.7715145193678
 20
225.73538339849557
 10
71.35311926455412
 20
224.54205501504723
 10
67.0690361781518
 20
223.3174131491039
 10
62.92460615616784
 20
222.0638098250734
 10
58.91753135378454
 20
220.78175529607145
 10
55.05178731698081
 20
219.47486665082366
 10
51.31893042850089
 20
218.14200064976586
 10
47.73196256676758
 20
216.79607667217252
 10
44.28819491367514
 20
215.4216230636623
 10
40.98647736857632
 20
214.0274941983878
 10
37.83761319165558
 20
212.61273470913434
 10
34.84389292435171
 20
211.17792685253542
 10
32.023974445171575
 20
209.7315151089022
 10
29.397341504072102
 20
208.2811756496961
 10
26.970990884277626
 20
206.82798595528746
 10
24.768905690810442
 20
205.40942782471302
 10
22.80354001040169
 20
204.03438095723763
 10
21.06859570904541
 20
202.71269375735184
 10
19.545593339896442
 20
201.45098964381953
 10
18.225339463609487
 20
200.2722574551421
 10
17.066409767759495
 20
199.13056212997523
 10
16.050631887220874
 20
198.06645767262327
 10
15.16876630307135
 20
197.06901794190705
 10
14.398957202591163
 20
196.11342393294544
 10
13.725039891311752
 20
195.19849670954008
 10
13.141209100244396
 20
194.33528450888988
 10
12.635791637902798
 20
193.50174231222067
 10
12.194398404347425
 20
192.68891681338297
 10
11.812695670373017
 20
191.9159035222787
 10
11.48518627105446
 20
191.1691120244467
 10
11.204189043344854
 20
190.4420765267204
 10
10.96756100639962
 20
189.75191058172996
 10
10.771340556557675
 20
189.07767975221586
 10
10.611807390552684
 20
188.43265057609148
 10
10.499703317104633
 20
187.91954832314863
 10
10.438681895116673
 20
187.29492922854206
 10
10.398093101506106
 20
186.56267114299635
 10
10.391158152926039
 20
186.02257114002063
 10
10.420577895373611
 20
185.41481405675435
 10
10.500069728805386
 20
184.79552064596376
 10
10.638644917154778
 20
184.16008653772855
 10
10.841899902286173
 20
183.5110131420082
 10
11.117905822031418
 20
182.84840564023432
 10
11.47695921942514
 20
182.17022004834465
 10
11.926671632959085
 20
181.4771291529521
 10
12.470989592947802
 20
180.7733832762914
 10
13.116292813831905
 20
180.06334012646076
 10
13.8744617534077
 20
179.3499188781756
 10
14.766626297314758
 20
178.63189940109413
 10
15.816204701501135
 20
177.90405677906162
 10
17.030011431543244
 20
177.1642589613877
 10
18.415106957085897
 20
176.41883129237561
 10
20.012161440860666
 20
175.67624045389002
 10
21.856939151338224
 20
174.93429996554016
 10
23.946918063944082
 20
174.18609253544864
 10
26.251462467844732
 20
173.44192140550817
 10
28.76724822345895
 20
172.72916728381432
 10
31.478607643824972
 20
172.0452811192324
 10
34.32858668369809
 20
171.39209783611741
 10
37.29993502156634
 20
170.7835164302909
 10
40.39590337401626
 20
170.21901677083076
 10
43.62299863085795
 20
169.6798413399667
 10
46.94513850361358
 20
169.14737392351952
 10
50.32454267967313
 20
168.6334679143362
 10
53.79542764604636
 20
168.16181295558798
 10
57.402942471833256
 20
167.71496315025388
 10
61.12683760466075
 20
167.2669518089177
 10
64.9590300998668
 20
166.8241462117753
 10
68.90922577255719
 20
166.39500666283288
 10
72.99524288406221
 20
165.98585501544815
 10
77.2417199745251
 20
165.59547141820937
 10
81.66070142727796
 20
165.21694421116555
 10
86.25583663441341
 20
164.84832019656517
 10
91.02691481342293
 20
164.48870783737715
 10
95.96057418819024
 20
164.14122577635254
 10
101.05630477270202
 20
163.81467876686835
 10
106.30150543383277
 20
163.5026864482941
 10
111.69738273567155
 20
163.22133499216676
 10
117.2344946734242
 20
162.9613835404906
 10
122.88996680439543
 20
162.71726914386053
 10
128.2212490391497
 20
162.5113719908873
 10
128.1633613410059
 20
161.01248940228885
 10
128.59511837978891
 20
160.99581469981635
 10
134.4439246454023
 20
160.79331936237475
 10
140.36308127296127
 20
160.61032793552158
 10
146.3434274743617
 20
160.44824020255373
 10
152.38312539985816
 20
160.30595045080682
 10
158.47518854474197
 20
160.1773472371082
 10
164.59940820457672
 20
160.05773651909766
 10
170.7378832868054
 20
159.94922668309445
 10
176.89062490941913
 20
159.8560605582563
 10
183.06906867561185
 20
159.77716117060282
 10
189.27912905201217
 20
159.707024690783
 10
195.51331695374222
 20
159.64141035293156
 10
201.75980586880502
 20
159.57853387525887
 10
208.0099636154498
 20
159.51873904625066
 10
214.25501160679534
 20
159.46473983816412
 10
220.50060346991947
 20
159.42157197461262
 10
226.7599509500997
 20
159.38904117593387
 10
233.03752938820958
 20
159.36233730442711
 10
239.32755082188896
 20
159.33907099050867
 10
248.76003839388355
 20
159.30933838183276
 10
461.82989608784874
 20
199.10743215563645
  0
LWPOLYLINE
  5
8D
330
17
100
AcDbEntity
  8
Layer
100
AcDbPolyline
 90
5
 70
0
 10
403.4837623699094
 20
211.23681025762824
 10
399.5974975092662
 20
212.1838822891704
 10
400.5445695408083
 20
216.0701471498137
 10
404.43083440145153
 20
215.12307511827152
 10
403.4837623699094
 20
211.23681025762824
  0
LWPOLYLINE
  5
8E
330
17
100
AcDbEntity
  8
Layer
100
AcDbPolyline
 90
5
 70
0
 10
177.1148612110521
 20
235.60334403553924
 10
173.11910442349588
 20
235.41914931602054
 10
172.93490970397718
 20
239.41490610357675
 10
176.9306664915334
 20
239.59910082309545
 10
177.1148612110521
 20
235.60334403553924
  0
LWPOLYLINE
  5
8F
330
17
100
AcDbEntity
  8
Layer
100
AcDbPolyline
 90
5
 70
0
 10
74.81133696670199
 20
221.3326604599847
 10
70.94973686735645
 20
220.28956666135753
 10
69.90664306872927
 20
224.15116676070306
 10
73.7682431680748
 20
225.19426055933025
 10
74.81133696670199
 20
221.3326604599847
  0
LWPOLYLINE
  5
90
330
17
100
AcDbEntity
  8
Layer
100
AcDbPolyline
 90
5
 70
0
 10
23.773080046676952
 20
198.45985875890852
 10
22.23361042194233
 20
197.18313119418713
 10
19.04179151013882
 20
201.0318052560237
 10
20.581261134873444
 20
202.30853282074509
 10
23.773080046676952
 20
198.45985875890852
  0
LWPOLYLINE
  5
91
330
17
100
AcDbEntity
  8
Layer
100
AcDbPolyline
 90
5
 70
0
 10
17.271230922267325
 20
182.97863068167933
 10
18.917011389651496
 20
181.84222993670565
 10
16.07600952721729
 20
177.7277787682452
 10
14.43022905983312
 20
178.8641795132189
 10
17.271230922267325
 20
182.97863068167933
  0
LWPOLYLINE
  5
92
330
17
100
AcDbEntity
  8
Layer
100
AcDbPolyline
 90
5
 70
0
 10
96.4293278806097
 20
168.11939225444263
 10
100.4211407546941
 20
167.86359941190352
 10
100.16534791215499
 20
163.87178653781916
 10
96.1735350380706
 20
164.12757938035827
 10
96.4293278806097
 20
168.11939225444263
  0
LWPOLYLINE
  5
93
330
17
100
AcDbEntity
  8
Layer
100
AcDbPolyline
 90
300
 70
1
 10
272.37246559633024
 20
200.0
 10
272.36508831064793
 20
200.70828244952585
 10
272.3429597112028
 20
201.41625214146097
 10
272.3060895693614
 20
202.12359645631958
 10
272.25449416594034
 20
202.8300030507647
 10
272.1881962840174
 20
203.53515999553048
 10
272.1072251988708
 20
204.23875591316104
 10
272.01161666505243
 20
204.94048011550618
 10
271.9014129005992
 20
205.6400227409125
 10
271.7766625683912
 20
206.33707489104958
 10
271.63742075466325
 20
207.03132876731073
 10
271.4837489446805
 20
207.72247780672816
 10
271.3157149955881
 20
208.4102168173428
 10
271.1333931064478
 20
209.09424211296817
 10
270.93686378547307
 20
209.77425164728982
 10
270.7262138144797
 20
210.44994514724044
 10
270.5015362105648
 20
211.12102424559197
 10
270.2629301850332
 20
211.7871926127063
 10
270.0105010995889
 20
212.44815608738585
 10
269.7443604198098
 20
213.1036228067671
 10
269.46462566592794
 20
213.75330333519895
 10
269.1714203609357
 20
214.39691079204925
 10
268.86487397604185
 20
215.03416097838337
 10
268.5451218735002
 20
215.66477250245833
 10
268.21230524683784
 20
216.28846690397754
 10
267.86657105850804
 20
216.90496877705104
 10
267.50807197499546
 20
217.51400589180687
 10
267.1369662994033
 20
218.11530931460027
 10
266.75341790155073
 20
218.70861352676712
 10
266.357596145613
 20
219.29365654186952
 10
265.9496758153347
 20
219.8701800213816
 10
265.5298370368502
 20
220.43792938876467
 10
265.09826519914515
 20
220.99665394188085
 10
264.6551508721939
 20
221.54610696369622
 10
264.200689722809
 20
222.0860458312241
 10
263.7350824282404
 20
222.61623212266048
 10
263.258534587562
 20
223.1364317226644
 10
262.7712566308849
 20
223.64641492573676
 10
262.2734637264374
 20
224.14595653765164
 10
261.76537568555256
 20
224.6348359748959
 10
261.247216865606
 20
225.1128373620726
 10
260.71921607094583
 20
225.57974962722545
 10
260.1816064518592
 20
226.03536659504223
 10
259.6346254016195
 20
226.47948707789615
 10
259.0785144516604
 20
226.91191496468446
 10
258.5135191649223
 20
227.33245930742567
 10
257.9398890274184
 20
227.74093440557687
 10
257.3578773380692
 20
228.13715988803375
 10
256.76774109685243
 20
228.52096079277743
 10
256.1697408913192
 20
228.89216764413285
 10
255.56414078152577
 20
229.25061652760434
 10
254.95120818343236
 20
229.5961491622557
 10
254.33121375081956
 20
229.92861297060261
 10
253.70443125577518
 20
230.24786114598658
 10
253.07113746780445
 20
230.5537527174005
 10
252.4316120316162
 20
230.84615261173766
 10
251.7861373436396
 20
231.12493171343613
 10
251.13499842732605
 20
231.38996692149252
 10
250.4784828072907
 20
231.64114120382
 10
249.81688038234967
 20
231.87834364892637
 10
249.15048329750897
 20
232.1014695148894
 10
248.47958581496135
 20
232.3104202756079
 10
247.80448418414866
 20
232.50510366430814
 10
247.12547651094613
 20
232.6854337142862
 10
246.44286262602742
 20
232.85133079686858
 10
245.7569439524677
 20
233.00272165657378
 10
245.0680233726439
 20
233.13953944345997
 10
244.37640509449008
 20
233.26172374264402
 10
243.68239451716804
 20
233.36922060097908
 10
242.98629809621158
 20
233.46198255087864
 10
242.28842320820422
 20
233.539968631277
 10
241.58907801505057
 20
233.60314440571642
 10
240.88857132790054
 20
233.65148197755343
 10
240.1872124707871
 20
233.68496000227702
 10
239.4853111440375
 20
233.7035636969339
 10
238.7831772875183
 20
233.7072848466563
 10
238.08112094377466
 20
233.6961218082892
 10
237.3794521211243
 20
233.67007951111614
 10
236.6784806567665
 20
233.62916945468237
 10
235.9785160799668
 20
233.57340970371718
 10
235.27986747537747
 20
233.50282488015685
 10
234.58284334655454
 20
233.4174461522725
 10
233.8877514797313
 20
233.3173112209068
 10
233.19489880790846
 20
233.20246430282654
 10
232.50459127532133
 20
233.07295611119767
 10
231.81713370234337
 20
232.92884383319182
 10
231.13282965088604
 20
232.770191104734
 10
230.45198129035452
 20
232.59706798240288
 10
229.7748892642182
 20
232.40955091249563
 10
229.10185255725486
 20
232.20772269727155
 10
228.43316836352756
 20
231.99167245838873
 10
227.769131955152
 20
231.76149559755063
 10
227.11003655191277
 20
231.51729375437927
 10
226.45617319178564
 20
231.25917476153398
 10
225.8078306024234
 20
230.98725259709568
 10
225.16529507366192
 20
230.7016473342373
 10
224.52885033110266
 20
230.40248508820275
 10
223.89877741082722
 20
230.08989796061812
 10
223.27535453529993
 20
229.7640239811593
 10
222.65885699051256
 20
229.42500704660188
 10
222.04955700442576
 20
229.07299685728043
 10
221.44772362676093
 20
228.70814885098508
 10
220.85362261019532
 20
228.3306241343245
 10
220.2675162930132
 20
227.94058941158585
 10
219.68966348326467
 20
227.5382169111227
 10
219.12031934448333
 20
227.12368430930405
 10
218.55973528301314
 20
226.69717465205733
 10
218.0081588369946
 20
226.25887627404035
 10
217.46583356705872
 20
225.80898271547832
 10
216.93299894877765
 20
225.34769263670165
 10
216.40989026691892
 20
224.8752097304233
 10
215.8967385115503
 20
224.39174263179373
 10
215.39377027604118
 20
223.89750482627352
 10
214.9012076570052
 20
223.39271455536425
 10
214.41926815622872
 20
222.87759472023913
 10
213.9481645846282
 20
222.35237278331613
 10
213.48810496827863
 20
221.817280667817
 10
213.0392924565555
 20
221.2725546553565
 10
212.60192523242935
 20
220.71843528160701
 10
212.17619642495396
 20
220.15516723008494
 10
211.76229402398596
 20
219.58299922410518
 10
211.36040079717378
 20
219.002183916952
 10
210.97069420925263
 20
218.41297778031438
 10
210.59334634368108
 20
217.81564099103545
 10
210.22852382665374
 20
217.21043731622564
 10
209.876387753524
 20
216.5976339967906
 10
209.5370936176687
 20
215.97750162942503
 10
209.21079124182668
 20
215.35031404712495
 10
208.89762471194138
 20
214.71634819827062
 10
208.59773231353637
 20
214.07588402433404
 10
208.3112464706525
 20
213.42920433626463
 10
208.03829368737303
 20
212.77659468960786
 10
207.77899449196318
 20
212.11834325841198
 10
207.533463383648
 20
211.4547407079785
 10
207.30180878205303
 20
210.78608006651243
 10
207.0841329793289
 20
210.11265659572956
 10
206.88053209498236
 20
209.43476766047692
 10
206.69109603343225
 20
208.75271259742496
 10
206.51590844431058
 20
208.06679258288892
 10
206.35504668552494
 20
207.37731049983773
 10
206.20858178909955
 20
206.6845708041496
 10
206.07657842980956
 20
205.98887939017268
 10
205.95909489662233
 20
205.29054345565092
 10
205.85618306695886
 20
204.589871366074
 10
205.76788838378604
 20
203.887172518512
 10
205.69424983555038
 20
203.18275720499418
 10
205.63529993896174
 20
202.4769364754929
 10
205.59106472463495
 20
201.77002200057265
 10
205.56156372559536
 20
201.06232593376512
 10
205.54680996865372
 20
200.35416077373094
 10
205.54680996865372
 20
199.6458392262691
 10
205.56156372559536
 20
198.93767406623488
 10
205.59106472463495
 20
198.22997799942735
 10
205.63529993896174
 20
197.5230635245071
 10
205.69424983555038
 20
196.81724279500582
 10
205.76788838378604
 20
196.112827481488
 10
205.85618306695886
 20
195.410128633926
 10
205.95909489662233
 20
194.70945654434908
 10
206.07657842980956
 20
194.01112060982732
 10
206.20858178909955
 20
193.3154291958504
 10
206.35504668552494
 20
192.62268950016227
 10
206.51590844431058
 20
191.93320741711108
 10
206.69109603343225
 20
191.24728740257504
 10
206.88053209498236
 20
190.56523233952308
 10
207.0841329793289
 20
189.88734340427044
 10
207.30180878205303
 20
189.21391993348757
 10
207.533463383648
 20
188.54525929202154
 10
207.77899449196318
 20
187.88165674158802
 10
208.03829368737303
 20
187.22340531039214
 10
208.3112464706525
 20
186.57079566373537
 10
208.59773231353637
 20
185.92411597566596
 10
208.89762471194138
 20
185.2836518017294
 10
209.21079124182668
 20
184.64968595287507
 10
209.5370936176687
 20
184.02249837057497
 10
209.876387753524
 20
183.4023660032094
 10
210.22852382665374
 20
182.78956268377434
 10
210.59334634368108
 20
182.18435900896455
 10
210.97069420925263
 20
181.58702221968565
 10
211.36040079717378
 20
180.99781608304804
 10
211.76229402398593
 20
180.41700077589482
 10
212.17619642495396
 20
179.84483276991506
 10
212.60192523242935
 20
179.28156471839299
 10
213.0392924565555
 20
178.7274453446435
 10
213.48810496827866
 20
178.18271933218298
 10
213.9481645846282
 20
177.64762721668387
 10
214.41926815622872
 20
177.12240527976087
 10
214.9012076570052
 20
176.60728544463575
 10
215.39377027604118
 20
176.10249517372648
 10
215.8967385115503
 20
175.6082573682063
 10
216.40989026691892
 20
175.1247902695767
 10
216.93299894877765
 20
174.65230736329835
 10
217.46583356705872
 20
174.19101728452168
 10
218.0081588369946
 20
173.74112372595965
 10
218.55973528301314
 20
173.3028253479427
 10
219.1203193444833
 20
172.87631569069595
 10
219.68966348326467
 20
172.4617830888773
 10
220.26751629301316
 20
172.05941058841418
 10
220.8536226101953
 20
171.6693758656755
 10
221.44772362676093
 20
171.29185114901492
 10
222.04955700442576
 20
170.92700314271957
 10
222.65885699051256
 20
170.57499295339812
 10
223.27535453529993
 20
170.2359760188407
 10
223.89877741082722
 20
169.91010203938188
 10
224.52885033110266
 20
169.59751491179725
 10
225.16529507366192
 20
169.2983526657627
 10
225.80783060242337
 20
169.01274740290432
 10
226.4561731917856
 20
168.74082523846602
 10
227.11003655191277
 20
168.48270624562076
 10
227.769131955152
 20
168.23850440244937
 10
228.43316836352756
 20
168.00832754161127
 10
229.10185255725486
 20
167.79227730272845
 10
229.7748892642182
 20
167.59044908750437
 10
230.45198129035452
 20
167.40293201759712
 10
231.13282965088604
 20
167.229808895266
 10
231.81713370234337
 20
167.07115616680818
 10
232.50459127532136
 20
166.92704388880233
 10
233.1948988079085
 20
166.79753569717346
 10
233.8877514797313
 20
166.6826887790932
 10
234.58284334655454
 20
166.5825538477275
 10
235.27986747537744
 20
166.49717511984315
 10
235.97851607996677
 20
166.42659029628285
 10
236.67848065676648
 20
166.37083054531763
 10
237.3794521211243
 20
166.32992048888386
 10
238.08112094377466
 20
166.3038781917108
 10
238.7831772875183
 20
166.2927151533437
 10
239.4853111440375
 20
166.29643630306606
 10
240.1872124707871
 20
166.31503999772298
 10
240.88857132790054
 20
166.34851802244657
 10
241.58907801505057
 20
166.39685559428358
 10
242.28842320820422
 20
166.460031368723
 10
242.98629809621158
 20
166.53801744912136
 10
243.68239451716806
 20
166.63077939902092
 10
244.37640509449008
 20
166.73827625735598
 10
245.0680233726439
 20
166.86046055654003
 10
245.7569439524677
 20
166.99727834342622
 10
246.4428626260274
 20
167.14866920313142
 10
247.12547651094613
 20
167.3145662857138
 10
247.80448418414866
 20
167.49489633569186
 10
248.47958581496135
 20
167.6895797243921
 10
249.15048329750894
 20
167.8985304851106
 10
249.81688038234967
 20
168.12165635107363
 10
250.4784828072907
 20
168.35885879618
 10
251.13499842732605
 20
168.61003307850748
 10
251.7861373436396
 20
168.87506828656387
 10
252.4316120316162
 20
169.15384738826234
 10
253.07113746780448
 20
169.4462472825995
 10
253.7044312557752
 20
169.75213885401342
 10
254.33121375081956
 20
170.07138702939739
 10
254.95120818343239
 20
170.4038508377443
 10
255.56414078152574
 20
170.74938347239564
 10
256.1697408913192
 20
171.10783235586715
 10
256.76774109685243
 20
171.47903920722257
 10
257.3578773380692
 20
171.86284011196625
 10
257.9398890274184
 20
172.25906559442313
 10
258.51351916492223
 20
172.66754069257433
 10
259.0785144516604
 20
173.08808503531554
 10
259.6346254016195
 20
173.52051292210385
 10
260.1816064518592
 20
173.96463340495777
 10
260.71921607094583
 20
174.42025037277455
 10
261.247216865606
 20
174.8871626379274
 10
261.76537568555256
 20
175.3651640251041
 10
262.2734637264374
 20
175.8540434623484
 10
262.7712566308849
 20
176.35358507426326
 10
263.258534587562
 20
176.8635682773356
 10
263.7350824282404
 20
177.3837678773395
 10
264.200689722809
 20
177.9139541687759
 10
264.6551508721939
 20
178.45389303630375
 10
265.09826519914515
 20
179.00334605811912
 10
265.52983703685015
 20
179.56207061123533
 10
265.9496758153347
 20
180.12981997861837
 10
266.357596145613
 20
180.70634345813048
 10
266.75341790155073
 20
181.29138647323288
 10
267.1369662994033
 20
181.88469068539973
 10
267.50807197499546
 20
182.48599410819313
 10
267.86657105850804
 20
183.09503122294896
 10
268.2123052468379
 20
183.71153309602246
 10
268.5451218735002
 20
184.3352274975417
 10
268.86487397604185
 20
184.96583902161666
 10
269.1714203609357
 20
185.60308920795077
 10
269.46462566592794
 20
186.24669666480105
 10
269.7443604198098
 20
186.89637719323287
 10
270.0105010995889
 20
187.55184391261415
 10
270.2629301850332
 20
188.2128073872937
 10
270.5015362105648
 20
188.878975754408
 10
270.7262138144797
 20
189.55005485275956
 10
270.93686378547307
 20
190.22574835271018
 10
271.1333931064478
 20
190.90575788703183
 10
271.3157149955881
 20
191.5897831826572
 10
271.4837489446805
 20
192.27752219327184
 10
271.63742075466325
 20
192.96867123268927
 10
271.7766625683912
 20
193.66292510895042
 10
271.9014129005992
 20
194.3599772590875
 10
272.01161666505243
 20
195.05951988449382
 10
272.1072251988708
 20
195.76124408683899
 10
272.1881962840174
 20
196.4648400044695
 10
272.25449416594034
 20
197.16999694923527
 10
272.3060895693614
 20
197.87640354368042
 10
272.3429597112028
 20
198.583747858539
 10
272.36508831064793
 20
199.29171755047412
 10
272.37246559633024
 20
200.0
  0
LINE
  5
94
330
17
100
AcDbEntity
  8
Layer
 62
7
100
AcDbLine
 10
17.948972167777242
 20
200.00000000000003
 30
0.0
 11
458.9099170930931
 21
199.99999999999997
 31
0.0
  0
LINE
  5
95
330
17
100
AcDbEntity
  8
Layer
 62
7
100
AcDbLine
 10
104.04116115284043
 20
200.00000000000003
 30
0.0
 11
116.04116115284043
 21
200.00000000000003
 31
0.0
  0
LWPOLYLINE
  5
96
330
17
100
AcDbEntity
  8
Layer
100
AcDbPolyline
 90
5
 70
0
 10
110.04116115284043
 20
205.00000000000003
 10
115.04116115284043
 20
200.00000000000003
 10
110.04116115284043
 20
195.00000000000003
 10
105.04116115284043
 20
200.00000000000003
 10
110.04116115284043
 20
205.00000000000003
  0
LINE
  5
97
330
17
100
AcDbEntity
  8
Layer
 62
7
100
AcDbLine
 10
232.42944463043517
 20
200.0
 30
0.0
 11
244.42944463043517
 21
200.0
 31
0.0
  0
LWPOLYLINE
  5
98
330
17
100
AcDbEntity
  8
Layer
100
AcDbPolyline
 90
5
 70
0
 10
238.42944463043517
 20
205.0
 10
243.42944463043517
 20
200.0
 10
238.42944463043517
 20
195.0
 10
233.42944463043517
 20
200.0
 10
238.42944463043517
 20
205.0
  0
LINE
  5
99
330
17
100
AcDbEntity
  8
Layer
 62
7
100
AcDbLine
 10
360.81772810802994
 20
199.99999999999997
 30
0.0
 11
372.81772810802994
 21
199.99999999999997
 31
0.0
  0
LWPOLYLINE
  5
9A
330
17
100
AcDbEntity
  8
Layer
100
AcDbPolyline
 90
5
 70
0
 10
366.81772810802994
 20
204.99999999999997
 10
371.81772810802994
 20
199.99999999999997
 10
366.81772810802994
 20
194.99999999999997
 10
361.81772810802994
 20
199.99999999999997
 10
366.81772810802994
 20
204.99999999999997
  0
LINE
  5
9B
330
17
100
AcDbEntity
  8
Layer
 62
7
100
AcDbLine
 10
10.442504569630671
 20
187.33405836411882
 30
0.0
 11
309.54906860806545
 21
170.66377185762477
 31
0.0
  0
LINE
  5
9C
330
17
100
AcDbEntity
  8
Layer
 62
7
100
AcDbLine
 10
68.16707134482036
 20
184.11686027386892
 30
0.0
 11
80.14847724480475
 21
183.44909335358938
 31
0.0
  0
LWPOLYLINE
  5
9D
330
17
100
AcDbEntity
  8
Layer
100
AcDbPolyline
 90
5
 70
0
 10
74.4360105115957
 20
188.77522927205598
 10
79.15002675313937
 20
183.50474059694602
 10
73.87953807802941
 20
178.79072435540235
 10
69.16552183648574
 20
184.0612130305123
 10
74.4360105115957
 20
188.77522927205598
  0
LINE
  5
9E
330
17
100
AcDbEntity
  8
Layer
 62
7
100
AcDbLine
 10
139.69874825651664
 20
180.13014218815445
 30
0.0
 11
151.68015415650098
 21
179.4623752678749
 31
0.0
  0
LWPOLYLINE
  5
9F
330
17
100
AcDbEntity
  8
Layer
100
AcDbPolyline
 90
5
 70
0
 10
145.96768742329195
 20
184.7885111863415
 10
150.68170366483562
 20
179.51802251123155
 10
145.41121498972566
 20
174.80400626968787
 10
140.697198748182
 20
180.07449494479783
 10
145.96768742329195
 20
184.7885111863415
  0
LINE
  5
A0
330
17
100
AcDbEntity
  8
Layer
100
AcDbLine
 10
238.95871559633028
 20
233.70774999999998
 30
0.0
 11
238.95871559633028
 21
234.70774999999998
 31
0.0
  0
LINE
  5
A1
330
17
100
AcDbEntity
  8
Layer
100
AcDbLine
 10
238.95871559633028
 20
166.29225000000002
 30
0.0
 11
238.95871559633028
 21
165.29225000000002
 31
0.0
  0
LINE
  5
A2
330
17
100
AcDbEntity
  8
Layer
100
AcDbLine
 10
272.37246559633024
 20
200.0
 30
0.0
 11
273.37246559633024
 21
200.0
 31
0.0
  0
LINE
  5
A3
330
17
100
AcDbEntity
  8
Layer
100
AcDbLine
 10
205.54496559633031
 20
200.0
 30
0.0
 11
204.54496559633031
 21
200.0
 31
0.0
  0
LINE
  5
A4
330
17
100
AcDbEntity
  8
Layer
 62
7
100
AcDbLine
 10
158.95871559633028
 20
160.1679035820745
 30
0.0
 11
158.95871559633028
 21
238.629038484973
 31
0.0
  0
LINE
  5
A5
330
17
100
AcDbEntity
  8
Layer
 62
7
100
AcDbLine
 10
158.95871559633028
 20
183.57930079808898
 30
0.0
 11
158.95871559633028
 21
195.57930079808898
 31
0.0
  0
LWPOLYLINE
  5
A6
330
17
100
AcDbEntity
  8
Layer
100
AcDbPolyline
 90
5
 70
0
 10
153.95871559633028
 20
189.57930079808898
 10
158.95871559633028
 20
194.57930079808898
 10
163.95871559633028
 20
189.57930079808898
 10
158.95871559633028
 20
184.57930079808898
 10
153.95871559633028
 20
189.57930079808898
  0
LINE
  5
A7
330
17
100
AcDbEntity
  8
Layer
 62
7
100
AcDbLine
 10
158.95871559633028
 20
203.21764126895852
 30
0.0
 11
158.95871559633028
 21
215.21764126895852
 31
0.0
  0
LWPOLYLINE
  5
A8
330
17
100
AcDbEntity
  8
Layer
100
AcDbPolyline
 90
5
 70
0
 10
153.95871559633028
 20
209.21764126895852
 10
158.95871559633028
 20
214.21764126895852
 10
163.95871559633028
 20
209.21764126895852
 10
158.95871559633028
 20
204.21764126895852
 10
153.95871559633028
 20
209.21764126895852
  0
LINE
  5
A9
330
17
100
AcDbEntity
  8
Layer
 62
7
100
AcDbLine
 10
368.9587155963303
 20
181.7605582707623
 30
0.0
 11
368.9587155963303
 21
223.1058453373377
 31
0.0
  0
LINE
  5
AA
330
17
100
AcDbEntity
  8
Layer
 62
7
100
AcDbLine
 10
368.9587155963303
 20
192.18140874406367
 30
0.0
 11
368.9587155963303
 21
204.18140874406367
 31
0.0
  0
LWPOLYLINE
  5
AB
330
17
100
AcDbEntity
  8
Layer
100
AcDbPolyline
 90
5
 70
0
 10
363.9587155963303
 20
198.18140874406367
 10
368.9587155963303
 20
203.18140874406367
 10
373.9587155963303
 20
198.18140874406367
 10
368.9587155963303
 20
193.18140874406367
 10
363.9587155963303
 20
198.18140874406367
  0
LINE
  5
AC
330
17
100
AcDbEntity
  8
Layer
 62
7
100
AcDbLine
 10
368.9587155963303
 20
200.6849948640363
 30
0.0
 11
368.9587155963303
 21
212.6849948640363
 31
0.0
  0
LWPOLYLINE
  5
AD
330
17
100
AcDbEntity
  8
Layer
100
AcDbPolyline
 90
5
 70
0
 10
363.9587155963303
 20
206.6849948640363
 10
368.9587155963303
 20
211.6849948640363
 10
373.9587155963303
 20
206.6849948640363
 10
368.9587155963303
 20
201.6849948640363
 10
363.9587155963303
 20
206.6849948640363
  0
LWPOLYLINE
  5
AE
330
17
100
AcDbEntity
  8
NumLabel
 62
1
100
AcDbPolyline
 90
2
 70
0
 10
183.70642201834863
 20
179.87385321100916
 10
181.70642201834863
 20
179.87385321100916
  0
LWPOLYLINE
  5
AF
330
17
100
AcDbEntity
  8
NumLabel
 62
1
100
AcDbPolyline
 90
4
 70
0
 10
180.70642201834863
 20
179.87385321100916
 10
178.70642201834863
 20
179.87385321100916
 10
178.70642201834863
 20
169.87385321100916
 10
180.70642201834863
 20
169.87385321100916
  0
LWPOLYLINE
  5
B0
330
17
100
AcDbEntity
  8
NumLabel
 62
1
100
AcDbPolyline
 90
4
 70
0
 10
181.70642201834863
 20
169.87385321100916
 10
183.70642201834863
 20
169.87385321100916
 10
183.70642201834863
 20
174.87385321100916
 10
181.70642201834863
 20
174.87385321100916
  0
LWPOLYLINE
  5
B1
330
17
100
AcDbEntity
  8
NumLabel
 62
1
100
AcDbPolyline
 90
2
 70
0
 10
180.70642201834863
 20
174.87385321100916
 10
178.70642201834863
 20
174.87385321100916
  0
LWPOLYLINE
  5
B2
330
17
100
AcDbEntity
  8
NumLabel
 62
1
100
AcDbPolyline
 90
5
 70
0
 10
186.20642201834863
 20
179.87385321100916
 10
186.20642201834863
 20
174.87385321100916
 10
191.20642201834863
 20
174.87385321100916
 10
191.20642201834863
 20
179.87385321100916
 10
191.20642201834863
 20
169.87385321100916
  0
ENDSEC
  0
SECTION
  2
OBJECTS
  0
DICTIONARY
  5
A
330
0
100
AcDbDictionary
280
0
281
1
  3
ACAD_COLOR
350
B
  3
ACAD_GROUP
350
C
  3
ACAD_LAYOUT
350
D
  3
ACAD_MATERIAL
350
E
  3
ACAD_MLEADERSTYLE
350
F
  3
ACAD_MLINESTYLE
350
10
  3
ACAD_PLOTSETTINGS
350
11
  3
ACAD_PLOTSTYLENAME
350
12
  3
ACAD_SCALELIST
350
14
  3
ACAD_TABLESTYLE
350
15
  3
ACAD_VISUALSTYLE
350
16
  3
EZDXF_META
350
2D
  0
DICTIONARY
  5
B
330
A
100
AcDbDictionary
280
0
281
1
  0
DICTIONARY
  5
C
330
A
100
AcDbDictionary
280
0
281
1
  0
DICTIONARY
  5
D
330
A
100
AcDbDictionary
280
0
281
1
  3
Model
350
1A
  3
Layout1
350
1E
  0
DICTIONARY
  5
E
330
A
100
AcDbDictionary
280
0
281
1
  3
ByBlock
350
1F
  3
ByLayer
350
20
  3
Global
350
21
  0
DICTIONARY
  5
F
330
A
100
AcDbDictionary
280
0
281
1
  3
Standard
350
2C
  0
DICTIONARY
  5
10
330
A
100
AcDbDictionary
280
0
281
1
  3
Standard
350
22
  0
DICTIONARY
  5
11
330
A
100
AcDbDictionary
280
0
281
1
  0
ACDBDICTIONARYWDFLT
  5
12
330
A
100
AcDbDictionary
280
0
281
1
  3
Normal
350
13
100
AcDbDictionaryWithDefault
340
13
  0
ACDBPLACEHOLDER
  5
13
330
12
  0
DICTIONARY
  5
14
330
A
100
AcDbDictionary
280
0
281
1
  0
DICTIONARY
  5
15
330
A
100
AcDbDictionary
280
0
281
1
  0
DICTIONARY
  5
16
330
A
100
AcDbDictionary
280
0
281
1
  3
2dWireframe
350
5A
  3
Basic
350
5B
  3
Brighten
350
5C
  3
ColorChange
350
5D
  3
Conceptual
350
5E
  3
Dim
350
5F
  3
EdgeColorOff
350
60
  3
Facepattern
350
61
  3
Flat
350
62
  3
FlatWithEdges
350
63
  3
Gouraud
350
64
  3
GouraudWithEdges
350
65
  3
Hidden
350
66
  3
JitterOff
350
67
  3
Linepattern
350
68
  3
Modeling
350
69
  3
OverhangOff
350
6A
  3
Realistic
350
6B
  3
Shaded
350
6C
  3
Shaded with edges
350
6D
  3
Shades of Gray
350
6E
  3
Sketchy
350
6F
  3
Thicken
350
70
  3
Wireframe
350
71
  3
X-Ray
350
72
  0
LAYOUT
  5
1A
330
D
100
AcDbPlotSettings
  1

  2
Adobe PDF
  4
A3
  6

 40
7.5
 41
20.0
 42
7.5
 43
20.0
 44
420.0
 45
297.0
 46
0.0
 47
0.0
 48
0.0
 49
0.0
140
0.0
141
0.0
142
1.0
143
1.0
 70
1024
 72
1
 73
0
 74
5
  7

 75
16
 76
0
 77
2
 78
300
147
1.0
148
0.0
149
0.0
100
AcDbLayout
  1
Model
 70
1
 71
0
 10
0.0
 20
0.0
 11
420.0
 21
297.0
 12
0.0
 22
0.0
 32
0.0
 14
1e+20
 24
1e+20
 34
1e+20
 15
-1e+20
 25
-1e+20
 35
-1e+20
146
0.0
 13
0.0
 23
0.0
 33
0.0
 16
1.0
 26
0.0
 36
0.0
 17
0.0
 27
1.0
 37
0.0
 76
1
330
17
  0
LAYOUT
  5
1E
330
D
100
AcDbPlotSettings
  1

  2
Adobe PDF
  4
A3
  6

 40
7.5
 41
20.0
 42
7.5
 43
20.0
 44
420.0
 45
297.0
 46
0.0
 47
0.0
 48
0.0
 49
0.0
140
0.0
141
0.0
142
1.0
143
1.0
 70
0
 72
1
 73
0
 74
5
  7

 75
16
 76
0
 77
2
 78
300
147
1.0
148
0.0
149
0.0
100
AcDbLayout
  1
Layout1
 70
1
 71
1
 10
0.0
 20
0.0
 11
420.0
 21
297.0
 12
0.0
 22
0.0
 32
0.0
 14
1e+20
 24
1e+20
 34
1e+20
 15
-1e+20
 25
-1e+20
 35
-1e+20
146
0.0
 13
0.0
 23
0.0
 33
0.0
 16
1.0
 26
0.0
 36
0.0
 17
0.0
 27
1.0
 37
0.0
 76
1
330
1B
  0
MATERIAL
  5
1F
102
{ACAD_REACTORS
330
E
102
}
330
E
100
AcDbMaterial
  1
ByBlock
  2

 70
0
 40
1.0
 71
1
 41
1.0
 91
-1023410177
 42
1.0
 72
1
  3

 73
1
 74
1
 75
1
 44
0.5
 73
0
 45
1.0
 46
1.0
 77
1
  4

 78
1
 79
1
170
1
 48
1.0
171
1
  6

172
1
173
1
174
1
140
1.0
141
1.0
175
1
  7

176
1
177
1
178
1
143
1.0
179
1
  8

270
1
271
1
272
1
145
1.0
146
1.0
273
1
  9

274
1
275
1
276
1
 42
1.0
 72
1
  3

 73
1
 74
1
 75
1
 94
63
  0
MATERIAL
  5
20
102
{ACAD_REACTORS
330
E
102
}
330
E
100
AcDbMaterial
  1
ByLayer
  2

 70
0
 40
1.0
 71
1
 41
1.0
 91
-1023410177
 42
1.0
 72
1
  3

 73
1
 74
1
 75
1
 44
0.5
 73
0
 45
1.0
 46
1.0
 77
1
  4

 78
1
 79
1
170
1
 48
1.0
171
1
  6

172
1
173
1
174
1
140
1.0
141
1.0
175
1
  7

176
1
177
1
178
1
143
1.0
179
1
  8

270
1
271
1
272
1
145
1.0
146
1.0
273
1
  9

274
1
275
1
276
1
 42
1.0
 72
1
  3

 73
1
 74
1
 75
1
 94
63
  0
MATERIAL
  5
21
102
{ACAD_REACTORS
330
E
102
}
330
E
100
AcDbMaterial
  1
Global
  2

 70
0
 40
1.0
 71
1
 41
1.0
 91
-1023410177
 42
1.0
 72
1
  3

 73
1
 74
1
 75
1
 44
0.5
 73
0
 45
1.0
 46
1.0
 77
1
  4

 78
1
 79
1
170
1
 48
1.0
171
1
  6

172
1
173
1
174
1
140
1.0
141
1.0
175
1
  7

176
1
177
1
178
1
143
1.0
179
1
  8

270
1
271
1
272
1
145
1.0
146
1.0
273
1
  9

274
1
275
1
276
1
 42
1.0
 72
1
  3

 73
1
 74
1
 75
1
 94
63
  0
MLINESTYLE
  5
22
102
{ACAD_REACTORS
330
10
102
}
330
10
100
AcDbMlineStyle
  2
Standard
 70
0
  3

 62
256
 51
90.0
 52
90.0
 71
2
 49
0.5
 62
256
  6
BYLAYER
 49
-0.5
 62
256
  6
BYLAYER
  0
MLEADERSTYLE
  5
2C
102
{ACAD_REACTORS
330
F
102
}
330
F
100
AcDbMLeaderStyle
179
2
170
2
171
1
172
0
 90
2
 40
0.0
 41
0.0
173
1
 91
-1056964608
 92
-2
290
1
 42
2.0
291
1
 43
8.0
  3
Standard
 44
4.0
300

342
29
174
1
175
1
176
0
178
1
 93
-1056964608
 45
4.0
292
0
297
0
 46
4.0
 94
-1056964608
 47
1.0
 49
1.0
140
1.0
294
1
141
0.0
177
0
142
1.0
295
0
296
0
143
3.75
271
0
272
9
273
9
  0
DICTIONARY
  5
2D
330
A
100
AcDbDictionary
281
1
  3
CREATED_BY_EZDXF
350
2E
  3
WRITTEN_BY_EZDXF
350
B5
  0
DICTIONARYVAR
  5
2E
330
2D
100
DictionaryVariables
280
0
  1
1.3.0 @ 2026-01-06T17:07:23.380366+00:00
  0
VISUALSTYLE
  5
5A
102
{ACAD_REACTORS
330
16
102
}
330
16
100
AcDbVisualStyle
  2
2dWireframe
 70
4
 90
0
 40
0.6
 62
7
290
0
291
0
  0
VISUALSTYLE
  5
5B
102
{ACAD_REACTORS
330
16
102
}
330
16
100
AcDbVisualStyle
  2
Basic
 70
7
 90
1
 40
0.6
 62
7
290
0
291
1
  0
VISUALSTYLE
  5
5C
102
{ACAD_REACTORS
330
16
102
}
330
16
100
AcDbVisualStyle
  2
Brighten
 70
12
 90
2
 40
0.6
 62
7
290
0
291
1
  0
VISUALSTYLE
  5
5D
102
{ACAD_REACTORS
330
16
102
}
330
16
100
AcDbVisualStyle
  2
ColorChange
 70
16
 90
2
 40
0.6
 62
8
290
0
291
1
  0
VISUALSTYLE
  5
5E
102
{ACAD_REACTORS
330
16
102
}
330
16
100
AcDbVisualStyle
  2
Conceptual
 70
9
 90
3
 40
0.6
 62
7
290
0
291
0
  0
VISUALSTYLE
  5
5F
102
{ACAD_REACTORS
330
16
102
}
330
16
100
AcDbVisualStyle
  2
Dim
 70
11
 90
2
 40
0.6
 62
7
290
0
291
1
  0
VISUALSTYLE
  5
60
102
{ACAD_REACTORS
330
16
102
}
330
16
100
AcDbVisualStyle
  2
EdgeColorOff
 70
22
 90
2
 40
0.6
 62
7
290
0
291
1
  0
VISUALSTYLE
  5
61
102
{ACAD_REACTORS
330
16
102
}
330
16
100
AcDbVisualStyle
  2
Facepattern
 70
15
 90
2
 40
0.6
 62
7
290
0
291
1
  0
VISUALSTYLE
  5
62
102
{ACAD_REACTORS
330
16
102
}
330
16
100
AcDbVisualStyle
  2
Flat
 70
0
 90
2
 40
0.6
 62
7
290
0
291
1
  0
VISUALSTYLE
  5
63
102
{ACAD_REACTORS
330
16
102
}
330
16
100
AcDbVisualStyle
  2
FlatWithEdges
 70
1
 90
2
 40
0.6
 62
7
290
0
291
1
  0
VISUALSTYLE
  5
64
102
{ACAD_REACTORS
330
16
102
}
330
16
100
AcDbVisualStyle
  2
Gouraud
 70
2
 90
2
 40
0.6
 62
7
290
0
291
1
  0
VISUALSTYLE
  5
65
102
{ACAD_REACTORS
330
16
102
}
330
16
100
AcDbVisualStyle
  2
GouraudWithEdges
 70
3
 90
2
 40
0.6
 62
7
290
0
291
1
  0
VISUALSTYLE
  5
66
102
{ACAD_REACTORS
330
16
102
}
330
16
100
AcDbVisualStyle
  2
Hidden
 70
6
 90
1
 40
0.6
 62
7
290
0
291
0
  0
VISUALSTYLE
  5
67
102
{ACAD_REACTORS
330
16
102
}
330
16
100
AcDbVisualStyle
  2
JitterOff
 70
20
 90
2
 40
0.6
 62
7
290
0
291
1
  0
VISUALSTYLE
  5
68
102
{ACAD_REACTORS
330
16
102
}
330
16
100
AcDbVisualStyle
  2
Linepattern
 70
14
 90
2
 40
0.6
 62
7
290
0
291
1
  0
VISUALSTYLE
  5
69
102
{ACAD_REACTORS
330
16
102
}
330
16
100
AcDbVisualStyle
  2
Modeling
 70
10
 90
2
 40
0.6
 62
7
290
0
291
0
  0
VISUALSTYLE
  5
6A
102
{ACAD_REACTORS
330
16
102
}
330
16
100
AcDbVisualStyle
  2
OverhangOff
 70
21
 90
2
 40
0.6
 62
7
290
0
291
1
  0
VISUALSTYLE
  5
6B
102
{ACAD_REACTORS
330
16
102
}
330
16
100
AcDbVisualStyle
  2
Realistic
 70
8
 90
2
 40
0.6
 62
7
290
0
291
0
  0
VISUALSTYLE
  5
6C
102
{ACAD_REACTORS
330
16
102
}
330
16
100
AcDbVisualStyle
  2
Shaded
 70
27
 90
2
 40
0.6
 62
7
290
0
291
0
  0
VISUALSTYLE
  5
6D
102
{ACAD_REACTORS
330
16
102
}
330
16
100
AcDbVisualStyle
  2
Shaded with edges
 70
26
 90
2
 40
0.6
 62
7
290
0
291
0
  0
VISUALSTYLE
  5
6E
102
{ACAD_REACTORS
330
16
102
}
330
16
100
AcDbVisualStyle
  2
Shades of Gray
 70
23
 90
2
 40
0.6
 62
7
290
0
291
0
  0
VISUALSTYLE
  5
6F
102
{ACAD_REACTORS
330
16
102
}
330
16
100
AcDbVisualStyle
  2
Sketchy
 70
24
 90
1
 40
0.6
 62
7
290
0
291
0
  0
VISUALSTYLE
  5
70
102
{ACAD_REACTORS
330
16
102
}
330
16
100
AcDbVisualStyle
  2
Thicken
 70
13
 90
2
 40
0.6
 62
7
290
0
291
1
  0
VISUALSTYLE
  5
71
102
{ACAD_REACTORS
330
16
102
}
330
16
100
AcDbVisualStyle
  2
Wireframe
 70
5
 90
0
 40
0.6
 62
7
290
0
291
0
  0
VISUALSTYLE
  5
72
102
{ACAD_REACTORS
330
16
102
}
330
16
100
AcDbVisualStyle
  2
X-Ray
 70
25
 90
2
 40
0.5
 62
7
290
0
291
0
  0
DICTIONARYVAR
  5
B5
330
2D
100
DictionaryVariables
280
0
  1
1.3.0 @ 2026-01-06T17:07:23.516160+00:00
  0
ENDSEC
  0
EOF
