<?xml version="1.0" encoding="utf-8" standalone="no"?>
<!DOCTYPE svg PUBLIC "-//W3C//DTD SVG 1.1//EN"
  "http://www.w3.org/Graphics/SVG/1.1/DTD/svg11.dtd">
<svg xmlns:xlink="http://www.w3.org/1999/xlink" width="1152pt" height="183.85261pt" viewBox="0 0 1152 183.85261" xmlns="http://www.w3.org/2000/svg" version="1.1">
 <metadata>
  <rdf:RDF xmlns:dc="http://purl.org/dc/elements/1.1/" xmlns:cc="http://creativecommons.org/ns#" xmlns:rdf="http://www.w3.org/1999/02/22-rdf-syntax-ns#">
   <cc:Work>
    <dc:type rdf:resource="http://purl.org/dc/dcmitype/StillImage"/>
    <dc:date>2026-01-07T02:07:20.366119</dc:date>
    <dc:format>image/svg+xml</dc:format>
    <dc:creator>
     <cc:Agent>
      <dc:title>Matplotlib v3.10.1, https://matplotlib.org/</dc:title>
     </cc:Agent>
    </dc:creator>
   </cc:Work>
  </rdf:RDF>
 </metadata>
 <defs>
  <style type="text/css">*{stroke-linejoin: round; stroke-linecap: butt}</style>
 </defs>
 <g id="figure_1">
  <g id="patch_1">
   <path d="M 0 183.85261 
L 1152 183.85261 
L 1152 0 
L 0 0 
z
" style="fill: #ffffff"/>
  </g>
  <g id="axes_1">
   <g id="patch_2">
    <path d="M 0 183.85261 
L 1152 183.85261 
L 1152 0 
L 0 0 
z
" style="fill: #212830"/>
   </g>
   <g id="patch_3">
    <path d="M 1099.391211 174.960584 
L 1082.011394 168.739193 
L 1065.98329 163.209614 
L 1037.59643 153.465579 
L 1006.137988 142.407145 
L 962.098543 126.631265 
L 906.447252 106.67803 
L 873.551874 95.116963 
L 851.902077 87.683871 
L 841.749724 84.261164 
L 841.232488 85.795379 
L 829.978918 82.052406 
L 808.792651 75.189754 
L 787.781543 68.647561 
L 766.894859 62.439932 
L 746.082995 56.566677 
L 725.307206 51.032626 
L 704.534491 45.833463 
L 683.745983 40.97312 
L 662.923061 36.447298 
L 642.062038 32.259844 
L 621.153222 28.407969 
L 600.202793 24.895058 
L 579.207415 21.720229 
L 558.170505 18.8891 
L 537.064944 16.396635 
L 515.908193 14.235977 
L 494.707137 12.409006 
L 473.496268 10.91166 
L 452.298846 9.753631 
L 431.147105 8.935037 
L 410.064034 8.468936 
L 389.076725 8.356937 
L 368.211244 8.613561 
L 347.496211 9.241917 
L 326.963628 10.25764 
L 306.649976 11.664639 
L 286.595313 13.479205 
L 276.679862 14.539369 
L 266.850235 15.704554 
L 257.109199 16.977064 
L 247.464213 18.355206 
L 237.927645 19.839206 
L 228.507194 21.431536 
L 219.209535 23.130447 
L 210.054367 24.928891 
L 201.064963 26.825766 
L 192.255034 28.822307 
L 183.640256 30.911311 
L 175.249122 33.082432 
L 167.106542 35.332139 
L 159.229627 37.653591 
L 151.642678 40.029881 
L 144.375415 42.445982 
L 137.447301 44.892801 
L 130.871277 47.354218 
L 124.662929 49.809549 
L 118.832467 52.245445 
L 108.290802 57.017254 
L 99.183774 61.577307 
L 91.380732 65.898107 
L 84.711761 69.962327 
L 79.01959 73.785611 
L 74.151786 77.396235 
L 69.994562 80.815166 
L 66.437697 84.095057 
L 63.357791 87.246267 
L 60.691614 90.222548 
L 58.450701 93.024033 
L 56.631292 95.730564 
L 55.172673 98.40389 
L 54.019104 101.007116 
L 53.164608 103.485817 
L 52.621949 105.84908 
L 52.375458 108.259431 
L 52.418309 110.394894 
L 52.770706 112.631009 
L 53.522069 114.830011 
L 54.736932 117.015847 
L 56.38496 119.147929 
L 58.445153 121.177969 
L 60.955642 123.09933 
L 63.928791 124.930014 
L 67.357504 126.683937 
L 71.288405 128.364902 
L 75.814417 129.991277 
L 81.034738 131.601794 
L 87.078056 133.224505 
L 94.141509 134.871904 
L 102.470843 136.560776 
L 112.357053 138.288922 
L 124.116166 140.041443 
L 137.979627 141.781598 
L 154.015231 143.446224 
L 172.029441 144.968722 
L 191.66547 146.300051 
L 212.523773 147.415493 
L 234.295507 148.323132 
L 258.025662 149.105289 
L 257.976312 150.723596 
L 291.189353 151.627333 
L 338.081591 152.445331 
L 373.522912 152.973259 
L 469.134055 153.849786 
L 600.210978 154.650388 
L 647.580043 154.892609 
L 694.609793 155.319525 
L 717.893495 155.589583 
L 764.434262 155.932125 
L 810.983153 156.592526 
L 857.373884 157.7614 
L 880.328825 158.500492 
L 926.224776 160.424378 
L 948.731803 161.622285 
L 982.51245 163.798219 
L 1004.479974 165.395643 
L 1025.780718 167.177382 
L 1045.99385 169.082817 
L 1064.669741 171.143998 
L 1088.749966 174.076477 
L 1099.636364 175.495673 
L 1099.391211 174.960584 
L 1099.391211 174.960584 
" clip-path="url(#pbf0697dcac)" style="fill: none; stroke: #ff0000; stroke-width: 0.72; stroke-linejoin: miter"/>
   </g>
   <g id="patch_4">
    <path d="M 739.436591 61.478339 
L 733.184865 59.787913 
L 734.875291 53.536186 
L 741.127017 55.226612 
L 739.436591 61.478339 
" clip-path="url(#pbf0697dcac)" style="fill: none; stroke: #ff0000; stroke-width: 0.72; stroke-linejoin: miter"/>
   </g>
   <g id="patch_5">
    <path d="M 344.650462 15.851581 
L 338.180665 16.14028 
L 337.891966 9.670483 
L 344.361763 9.381784 
L 344.650462 15.851581 
" clip-path="url(#pbf0697dcac)" style="fill: none; stroke: #ff0000; stroke-width: 0.72; stroke-linejoin: miter"/>
   </g>
   <g id="patch_6">
    <path d="M 165.681692 42.503849 
L 159.4697 44.334908 
L 157.638641 38.122916 
L 163.850633 36.291857 
L 165.681692 42.503849 
" clip-path="url(#pbf0697dcac)" style="fill: none; stroke: #ff0000; stroke-width: 0.72; stroke-linejoin: miter"/>
   </g>
   <g id="patch_7">
    <path d="M 75.821486 86.46309 
L 73.411584 88.625907 
L 68.00454 82.601154 
L 70.414441 80.438336 
L 75.821486 86.46309 
" clip-path="url(#pbf0697dcac)" style="fill: none; stroke: #ff0000; stroke-width: 0.72; stroke-linejoin: miter"/>
   </g>
   <g id="patch_8">
    <path d="M 64.234135 115.482571 
L 66.863501 117.372502 
L 62.138674 123.945917 
L 59.509307 122.055986 
L 64.234135 115.482571 
" clip-path="url(#pbf0697dcac)" style="fill: none; stroke: #ff0000; stroke-width: 0.72; stroke-linejoin: miter"/>
   </g>
   <g id="patch_9">
    <path d="M 202.597974 140.432029 
L 209.06604 140.757204 
L 208.740865 147.225271 
L 202.272799 146.900095 
L 202.597974 140.432029 
" clip-path="url(#pbf0697dcac)" style="fill: none; stroke: #ff0000; stroke-width: 0.72; stroke-linejoin: miter"/>
   </g>
   <g id="line2d_1">
    <path d="M 1068.964667 164.227389 
L 1068.446105 165.761157 
" clip-path="url(#pbf0697dcac)" style="fill: none; stroke: #ff0000; stroke-width: 0.72; stroke-linecap: square"/>
   </g>
   <g id="line2d_2">
    <path d="M 1067.566795 169.859368 
L 1067.410406 171.470856 
" clip-path="url(#pbf0697dcac)" style="fill: none; stroke: #ff0000; stroke-width: 0.72; stroke-linecap: square"/>
   </g>
   <g id="line2d_3">
    <path d="M 1038.335155 153.721021 
L 1037.813215 155.253643 
" clip-path="url(#pbf0697dcac)" style="fill: none; stroke: #ff0000; stroke-width: 0.72; stroke-linecap: square"/>
   </g>
   <g id="line2d_4">
    <path d="M 1035.375036 166.425919 
L 1035.210987 168.036645 
" clip-path="url(#pbf0697dcac)" style="fill: none; stroke: #ff0000; stroke-width: 0.72; stroke-linecap: square"/>
   </g>
   <g id="line2d_5">
    <path d="M 916.33602 110.200653 
L 915.79937 111.728187 
" clip-path="url(#pbf0697dcac)" style="fill: none; stroke: #ff0000; stroke-width: 0.72; stroke-linecap: square"/>
   </g>
   <g id="line2d_6">
    <path d="M 906.062199 157.935107 
L 905.936788 159.549301 
" clip-path="url(#pbf0697dcac)" style="fill: none; stroke: #ff0000; stroke-width: 0.72; stroke-linecap: square"/>
   </g>
   <g id="patch_10">
    <path d="M 507.426667 81.015334 
L 507.316962 77.318916 
L 506.988281 73.637184 
L 506.44193 69.984766 
L 505.680081 66.376171 
L 504.705759 62.825738 
L 503.522836 59.347571 
L 502.136012 55.95549 
L 500.550796 52.662971 
L 498.773487 49.483095 
L 496.811145 46.428497 
L 494.671567 43.51131 
L 492.363254 40.743127 
L 489.895376 38.134944 
L 487.277738 35.697124 
L 484.52074 33.439352 
L 481.635335 31.370598 
L 478.632988 29.499082 
L 475.525626 27.832239 
L 472.325595 26.37669 
L 469.045608 25.13822 
L 465.698697 24.121749 
L 462.298159 23.331314 
L 458.857505 22.770056 
L 455.390403 22.440206 
L 451.910629 22.343073 
L 448.432007 22.479044 
L 444.968359 22.847578 
L 441.533445 23.447211 
L 438.140911 24.275561 
L 434.804238 25.329337 
L 431.53668 26.604352 
L 428.35122 28.095541 
L 425.260514 29.796979 
L 422.276841 31.701906 
L 419.412054 33.802754 
L 416.677537 36.091177 
L 414.084152 38.558082 
L 411.642204 41.193669 
L 409.361394 43.987467 
L 407.250784 46.928375 
L 405.318759 50.00471 
L 403.572995 53.20425 
L 402.020428 56.514282 
L 400.667226 59.921657 
L 399.518766 63.412836 
L 398.57961 66.973949 
L 397.85349 70.590849 
L 397.34329 74.249165 
L 397.051038 77.934362 
L 396.977894 81.631801 
L 397.124149 85.32679 
L 397.489223 89.00465 
L 398.071664 92.650768 
L 398.869159 96.250659 
L 399.878539 99.790021 
L 401.095793 103.254791 
L 402.516087 106.631204 
L 404.133777 109.905846 
L 405.942436 113.065707 
L 407.934878 116.098232 
L 410.103187 118.991374 
L 412.438749 121.733638 
L 414.932284 124.314128 
L 417.573887 126.722594 
L 420.353061 128.949466 
L 423.258765 130.985897 
L 426.279455 132.823796 
L 429.40313 134.455861 
L 432.617379 135.875608 
L 435.909432 137.077397 
L 439.266211 138.056452 
L 442.674378 138.808884 
L 446.120393 139.331704 
L 449.590566 139.622834 
L 453.071108 139.681118 
L 456.548193 139.506324 
L 460.008006 139.099147 
L 463.4368 138.461204 
L 466.820954 137.59503 
L 470.147022 136.504066 
L 473.401791 135.192647 
L 476.572328 133.665982 
L 479.646037 131.930138 
L 482.610707 129.992011 
L 485.454558 127.8593 
L 488.166293 125.540479 
L 490.735138 123.044761 
L 493.150887 120.382061 
L 495.403942 117.562958 
L 497.485352 114.598652 
L 499.386846 111.50092 
L 501.100872 108.28207 
L 502.620619 104.954889 
L 503.940048 101.532597 
L 505.053919 98.028791 
L 505.957805 94.457391 
L 506.648116 90.832585 
L 507.122109 87.168776 
L 507.3779 83.48052 
L 507.426667 81.015334 
L 507.426667 81.015334 
" clip-path="url(#pbf0697dcac)" style="fill: none; stroke: #ff0000; stroke-width: 0.72; stroke-linejoin: miter"/>
   </g>
   <g id="line2d_7">
    <path d="M 69.771349 81.015334 
L 826.806316 81.015334 
" clip-path="url(#pbf0697dcac)" style="fill: none; stroke: #ffffff; stroke-width: 0.72; stroke-linecap: square"/>
   </g>
   <g id="line2d_8">
    <path d="M 217.778319 81.015334 
L 237.207024 81.015334 
" clip-path="url(#pbf0697dcac)" style="fill: none; stroke: #ffffff; stroke-width: 0.72; stroke-linecap: square"/>
   </g>
   <g id="patch_11">
    <path d="M 227.492671 72.92004 
L 235.587965 81.015334 
L 227.492671 89.110628 
L 219.397377 81.015334 
L 227.492671 72.92004 
" clip-path="url(#pbf0697dcac)" style="fill: none; stroke: #ff0000; stroke-width: 0.72; stroke-linejoin: miter"/>
   </g>
   <g id="line2d_9">
    <path d="M 438.57448 81.015334 
L 458.003185 81.015334 
" clip-path="url(#pbf0697dcac)" style="fill: none; stroke: #ffffff; stroke-width: 0.72; stroke-linecap: square"/>
   </g>
   <g id="patch_12">
    <path d="M 448.288832 72.92004 
L 456.384126 81.015334 
L 448.288832 89.110628 
L 440.193538 81.015334 
L 448.288832 72.92004 
" clip-path="url(#pbf0697dcac)" style="fill: none; stroke: #ff0000; stroke-width: 0.72; stroke-linejoin: miter"/>
   </g>
   <g id="line2d_10">
    <path d="M 659.370641 81.015334 
L 678.799346 81.015334 
" clip-path="url(#pbf0697dcac)" style="fill: none; stroke: #ffffff; stroke-width: 0.72; stroke-linecap: square"/>
   </g>
   <g id="patch_13">
    <path d="M 669.084993 72.92004 
L 677.180287 81.015334 
L 669.084993 89.110628 
L 660.989699 81.015334 
L 669.084993 72.92004 
" clip-path="url(#pbf0697dcac)" style="fill: none; stroke: #ff0000; stroke-width: 0.72; stroke-linejoin: miter"/>
   </g>
   <g id="line2d_11">
    <path d="M 52.44774 107.246788 
L 1098.114945 174.500528 
" clip-path="url(#pbf0697dcac)" style="fill: none; stroke: #ffffff; stroke-width: 0.72; stroke-linecap: square"/>
   </g>
   <g id="line2d_12">
    <path d="M 258.188168 120.479309 
L 277.576813 121.72632 
" clip-path="url(#pbf0697dcac)" style="fill: none; stroke: #ffffff; stroke-width: 0.72; stroke-linecap: square"/>
   </g>
   <g id="patch_14">
    <path d="M 268.402078 113.024212 
L 275.961092 121.622402 
L 267.362902 129.181416 
L 259.803888 120.583226 
L 268.402078 113.024212 
" clip-path="url(#pbf0697dcac)" style="fill: none; stroke: #ff0000; stroke-width: 0.72; stroke-linejoin: miter"/>
   </g>
   <g id="line2d_13">
    <path d="M 514.353878 136.955011 
L 533.742523 138.202023 
" clip-path="url(#pbf0697dcac)" style="fill: none; stroke: #ffffff; stroke-width: 0.72; stroke-linecap: square"/>
   </g>
   <g id="patch_15">
    <path d="M 524.567788 129.499915 
L 532.126802 138.098105 
L 523.528612 145.657119 
L 515.969598 137.058929 
L 524.567788 129.499915 
" clip-path="url(#pbf0697dcac)" style="fill: none; stroke: #ff0000; stroke-width: 0.72; stroke-linejoin: miter"/>
   </g>
   <g id="line2d_14">
    <path d="M 452.200757 22.342264 
L 452.200757 20.723205 
" clip-path="url(#pbf0697dcac)" style="fill: none; stroke: #ff0000; stroke-width: 0.72; stroke-linecap: square"/>
   </g>
   <g id="line2d_15">
    <path d="M 452.200757 139.688405 
L 452.200757 141.307463 
" clip-path="url(#pbf0697dcac)" style="fill: none; stroke: #ff0000; stroke-width: 0.72; stroke-linecap: square"/>
   </g>
   <g id="line2d_16">
    <path d="M 507.426667 81.015334 
L 509.045726 81.015334 
" clip-path="url(#pbf0697dcac)" style="fill: none; stroke: #ff0000; stroke-width: 0.72; stroke-linecap: square"/>
   </g>
   <g id="line2d_17">
    <path d="M 396.974846 81.015334 
L 395.355787 81.015334 
" clip-path="url(#pbf0697dcac)" style="fill: none; stroke: #ff0000; stroke-width: 0.72; stroke-linecap: square"/>
   </g>
   <g id="line2d_18">
    <path d="M 209.341942 147.255517 
L 209.341942 25.079222 
" clip-path="url(#pbf0697dcac)" style="fill: none; stroke: #ffffff; stroke-width: 0.72; stroke-linecap: square"/>
   </g>
   <g id="line2d_19">
    <path d="M 209.341942 111.051002 
L 209.341942 91.622297 
" clip-path="url(#pbf0697dcac)" style="fill: none; stroke: #ffffff; stroke-width: 0.72; stroke-linecap: square"/>
   </g>
   <g id="patch_16">
    <path d="M 201.246648 101.336649 
L 209.341942 93.241356 
L 217.437236 101.336649 
L 209.341942 109.431943 
L 201.246648 101.336649 
" clip-path="url(#pbf0697dcac)" style="fill: none; stroke: #ff0000; stroke-width: 0.72; stroke-linejoin: miter"/>
   </g>
   <g id="line2d_20">
    <path d="M 209.341942 80.712443 
L 209.341942 61.283737 
" clip-path="url(#pbf0697dcac)" style="fill: none; stroke: #ffffff; stroke-width: 0.72; stroke-linecap: square"/>
   </g>
   <g id="patch_17">
    <path d="M 201.246648 70.99809 
L 209.341942 62.902796 
L 217.437236 70.99809 
L 209.341942 79.093384 
L 201.246648 70.99809 
" clip-path="url(#pbf0697dcac)" style="fill: none; stroke: #ff0000; stroke-width: 0.72; stroke-linejoin: miter"/>
   </g>
   <g id="line2d_21">
    <path d="M 937.918386 161.005652 
L 937.918386 117.931255 
" clip-path="url(#pbf0697dcac)" style="fill: none; stroke: #ffffff; stroke-width: 0.72; stroke-linecap: square"/>
   </g>
   <g id="line2d_22">
    <path d="M 937.918386 152.486801 
L 937.918386 133.058096 
" clip-path="url(#pbf0697dcac)" style="fill: none; stroke: #ffffff; stroke-width: 0.72; stroke-linecap: square"/>
   </g>
   <g id="patch_18">
    <path d="M 929.823092 142.772448 
L 937.918386 134.677155 
L 946.01368 142.772448 
L 937.918386 150.867742 
L 929.823092 142.772448 
" clip-path="url(#pbf0697dcac)" style="fill: none; stroke: #ff0000; stroke-width: 0.72; stroke-linejoin: miter"/>
   </g>
   <g id="line2d_23">
    <path d="M 937.918386 145.878811 
L 937.918386 126.450106 
" clip-path="url(#pbf0697dcac)" style="fill: none; stroke: #ffffff; stroke-width: 0.72; stroke-linecap: square"/>
   </g>
   <g id="patch_19">
    <path d="M 929.823092 136.164458 
L 937.918386 128.069165 
L 946.01368 136.164458 
L 937.918386 144.259752 
L 929.823092 136.164458 
" clip-path="url(#pbf0697dcac)" style="fill: none; stroke: #ff0000; stroke-width: 0.72; stroke-linejoin: miter"/>
   </g>
   <g id="patch_20">
    <path d="M 355.11688 117.414332 
L 347.021586 117.414332 
L 347.021586 125.509625 
L 355.11688 125.509625 
L 355.11688 133.604919 
L 347.021586 133.604919 
" clip-path="url(#pbf0697dcac)" style="fill: none; stroke: #ff0000; stroke-width: 0.72; stroke-linejoin: miter"/>
   </g>
   <g id="patch_21">
    <path d="M 367.259821 117.414332 
L 359.164527 117.414332 
L 359.164527 125.509625 
L 367.259821 125.509625 
L 367.259821 133.604919 
L 359.164527 133.604919 
" clip-path="url(#pbf0697dcac)" style="fill: none; stroke: #ff0000; stroke-width: 0.72; stroke-linejoin: miter"/>
   </g>
  </g>
 </g>
 <defs>
  <clipPath id="pbf0697dcac">
   <rect x="0" y="0" width="1152" height="183.85261"/>
  </clipPath>
 </defs>
</svg>
