<?xml version="1.0" encoding="utf-8" standalone="no"?>
<!DOCTYPE svg PUBLIC "-//W3C//DTD SVG 1.1//EN"
  "http://www.w3.org/Graphics/SVG/1.1/DTD/svg11.dtd">
<svg xmlns:xlink="http://www.w3.org/1999/xlink" width="1152pt" height="308.931838pt" viewBox="0 0 1152 308.931838" xmlns="http://www.w3.org/2000/svg" version="1.1">
 <metadata>
  <rdf:RDF xmlns:dc="http://purl.org/dc/elements/1.1/" xmlns:cc="http://creativecommons.org/ns#" xmlns:rdf="http://www.w3.org/1999/02/22-rdf-syntax-ns#">
   <cc:Work>
    <dc:type rdf:resource="http://purl.org/dc/dcmitype/StillImage"/>
    <dc:date>2026-01-07T02:07:23.310006</dc:date>
    <dc:format>image/svg+xml</dc:format>
    <dc:creator>
     <cc:Agent>
      <dc:title>Matplotlib v3.10.1, https://matplotlib.org/</dc:title>
     </cc:Agent>
    </dc:creator>
   </cc:Work>
  </rdf:RDF>
 </metadata>
 <defs>
  <style type="text/css">*{stroke-linejoin: round; stroke-linecap: butt}</style>
 </defs>
 <g id="figure_1">
  <g id="patch_1">
   <path d="M 0 308.931838 
L 1152 308.931838 
L 1152 0 
L 0 0 
z
" style="fill: #ffffff"/>
  </g>
  <g id="axes_1">
   <g id="patch_2">
    <path d="M 0 308.931838 
L 1152 308.931838 
L 1152 0 
L 0 0 
z
" style="fill: #212830"/>
   </g>
   <g id="patch_3">
    <path d="M 1099.636364 39.499964 
L 1081.1253 37.09085 
L 1060.879162 34.601471 
L 1040.614887 32.241252 
L 1020.342504 30.020911 
L 1000.054705 27.942745 
L 979.756379 26.005856 
L 959.447575 24.213958 
L 939.12264 22.559158 
L 918.815443 21.036705 
L 898.515295 19.668908 
L 878.216248 18.439912 
L 857.949706 17.354276 
L 837.703109 16.425494 
L 817.469716 15.647627 
L 797.267069 15.016925 
L 777.097806 14.542223 
L 756.95947 14.221906 
L 736.864913 14.052699 
L 716.829662 14.042356 
L 696.850292 14.204231 
L 676.908349 14.53221 
L 657.04423 15.015501 
L 637.244449 15.683533 
L 617.508163 16.511975 
L 597.869286 17.513369 
L 578.315406 18.693066 
L 558.874149 20.049165 
L 539.538192 21.597662 
L 520.31112 23.332843 
L 501.201128 25.254327 
L 482.233693 27.355473 
L 463.422627 29.652215 
L 444.763817 32.143042 
L 426.284716 34.816807 
L 408.014974 37.66865 
L 389.996359 40.69773 
L 372.247545 43.917008 
L 354.777695 47.321733 
L 337.63368 50.88985 
L 320.83783 54.63102 
L 304.413355 58.526847 
L 288.386259 62.561687 
L 272.799448 66.704479 
L 257.69975 70.948348 
L 243.099738 75.286221 
L 229.01817 79.707681 
L 215.447601 84.208802 
L 202.398224 88.775245 
L 189.842281 93.407579 
L 177.816867 98.064826 
L 166.308296 102.794744 
L 155.308217 107.569239 
L 144.844297 112.390576 
L 134.919155 117.256984 
L 125.585144 122.143643 
L 116.897006 127.028145 
L 108.87051 131.908767 
L 101.576125 136.670498 
L 95.048007 141.287751 
L 89.263691 145.732306 
L 84.162877 149.986331 
L 79.71464 153.979235 
L 75.786475 157.853453 
L 72.321896 161.481611 
L 69.291133 164.896097 
L 66.627394 168.171552 
L 64.282272 171.31219 
L 62.239046 174.286109 
L 60.46132 177.163448 
L 58.903347 179.974502 
L 57.549959 182.662656 
L 56.381939 185.268865 
L 54.52039 190.232725 
L 53.22631 194.864747 
L 52.803285 196.811639 
L 52.404461 201.421727 
L 52.363636 203.351536 
L 52.450158 205.482266 
L 52.70684 207.647825 
L 53.162196 209.859888 
L 53.835442 212.110096 
L 54.754502 214.399387 
L 55.954034 216.735698 
L 57.458892 219.117365 
L 59.280451 221.53016 
L 61.436006 223.958724 
L 63.960286 226.392581 
L 66.918091 228.835065 
L 70.383346 231.30254 
L 74.37789 233.800496 
L 78.922291 236.30862 
L 84.141915 238.803245 
L 90.148251 241.293204 
L 96.932809 243.799219 
L 104.400375 246.288316 
L 112.545569 248.678222 
L 121.323634 250.976642 
L 130.560641 253.177434 
L 140.207509 255.239601 
L 150.278702 257.166521 
L 171.657313 260.847109 
L 182.744855 262.620893 
L 194.174508 264.266979 
L 218.442332 267.417973 
L 244.42825 270.507826 
L 258.168215 271.973213 
L 287.507163 274.75611 
L 319.499187 277.409957 
L 336.460434 278.679131 
L 372.208804 281.022617 
L 410.20848 283.025341 
L 450.017051 284.748236 
L 462.399421 285.200997 
L 462.27283 288.663113 
L 491.035604 289.632805 
L 533.152287 290.758209 
L 597.563468 292.094899 
L 640.856907 292.739053 
L 728.530661 293.714475 
L 772.437978 294.088409 
L 860.821424 294.505973 
L 971.465231 294.845951 
L 1099.636364 294.876295 
L 1099.636364 39.499964 
L 1099.636364 39.499964 
" clip-path="url(#p83855f0a17)" style="fill: none; stroke: #ff0000; stroke-width: 0.72; stroke-linejoin: miter"/>
   </g>
   <g id="patch_4">
    <path d="M 655.63313 224.313308 
L 648.70427 224.313308 
" clip-path="url(#p83855f0a17)" style="fill: none; stroke: #ff0000; stroke-width: 0.72; stroke-linejoin: miter"/>
   </g>
   <g id="patch_5">
    <path d="M 645.23984 224.313308 
L 638.31098 224.313308 
L 638.31098 258.957606 
L 645.23984 258.957606 
" clip-path="url(#p83855f0a17)" style="fill: none; stroke: #ff0000; stroke-width: 0.72; stroke-linejoin: miter"/>
   </g>
   <g id="patch_6">
    <path d="M 648.70427 258.957606 
L 655.63313 258.957606 
L 655.63313 241.635457 
L 648.70427 241.635457 
" clip-path="url(#p83855f0a17)" style="fill: none; stroke: #ff0000; stroke-width: 0.72; stroke-linejoin: miter"/>
   </g>
   <g id="patch_7">
    <path d="M 645.23984 241.635457 
L 638.31098 241.635457 
" clip-path="url(#p83855f0a17)" style="fill: none; stroke: #ff0000; stroke-width: 0.72; stroke-linejoin: miter"/>
   </g>
   <g id="patch_8">
    <path d="M 664.294204 224.313308 
L 681.616353 224.313308 
L 681.616353 241.635457 
L 664.294204 241.635457 
L 681.616353 241.635457 
L 681.616353 258.957606 
L 664.294204 258.957606 
" clip-path="url(#p83855f0a17)" style="fill: none; stroke: #ff0000; stroke-width: 0.72; stroke-linejoin: miter"/>
   </g>
   <g id="patch_9">
    <path d="M 632.819006 29.739269 
L 618.973485 30.320591 
L 618.392163 16.47507 
L 632.237684 15.893748 
L 632.819006 29.739269 
" clip-path="url(#p83855f0a17)" style="fill: none; stroke: #ff0000; stroke-width: 0.72; stroke-linejoin: miter"/>
   </g>
   <g id="patch_10">
    <path d="M 276.890047 79.949424 
L 263.549364 83.699433 
L 259.799355 70.358751 
L 273.140037 66.608741 
L 276.890047 79.949424 
" clip-path="url(#p83855f0a17)" style="fill: none; stroke: #ff0000; stroke-width: 0.72; stroke-linejoin: miter"/>
   </g>
   <g id="patch_11">
    <path d="M 98.993232 160.174863 
L 93.674402 164.615488 
L 82.572841 151.318414 
L 87.891671 146.877789 
L 98.993232 160.174863 
" clip-path="url(#p83855f0a17)" style="fill: none; stroke: #ff0000; stroke-width: 0.72; stroke-linejoin: miter"/>
   </g>
   <g id="patch_12">
    <path d="M 76.504513 214.397752 
L 82.15734 218.404577 
L 72.140278 232.536644 
L 66.487451 228.529819 
L 76.504513 214.397752 
" clip-path="url(#p83855f0a17)" style="fill: none; stroke: #ff0000; stroke-width: 0.72; stroke-linejoin: miter"/>
   </g>
   <g id="patch_13">
    <path d="M 351.766559 265.848855 
L 365.596836 266.720526 
L 364.725165 280.550804 
L 350.894887 279.679132 
L 351.766559 265.848855 
" clip-path="url(#p83855f0a17)" style="fill: none; stroke: #ff0000; stroke-width: 0.72; stroke-linejoin: miter"/>
   </g>
   <g id="patch_14">
    <path d="M 965.972503 154.110928 
L 965.868331 149.111627 
L 965.556001 144.121156 
L 965.036064 139.148327 
L 964.309438 134.201924 
L 963.377407 129.290681 
L 962.241616 124.423274 
L 960.904071 119.608298 
L 959.367135 114.854256 
L 957.633522 110.169546 
L 955.706294 105.56244 
L 953.588854 101.041075 
L 951.284942 96.613437 
L 948.798627 92.287344 
L 946.1343 88.070437 
L 943.296666 83.970164 
L 940.290737 79.993767 
L 937.121822 76.148267 
L 933.795518 72.440456 
L 930.317698 68.876883 
L 926.694505 65.46384 
L 922.932338 62.207357 
L 919.037841 59.113185 
L 915.017893 56.186786 
L 910.879592 53.433332 
L 906.630248 50.857682 
L 902.277365 48.464388 
L 897.828631 46.257675 
L 893.291903 44.241442 
L 888.675192 42.419247 
L 883.986653 40.794311 
L 879.234566 39.369502 
L 874.427324 38.147337 
L 869.573416 37.129975 
L 864.681415 36.319212 
L 859.759961 35.716479 
L 854.817745 35.322843 
L 849.863497 35.138997 
L 844.905964 35.165266 
L 839.953904 35.401605 
L 835.016062 35.847595 
L 830.101158 36.502449 
L 825.217872 37.365011 
L 820.37483 38.433756 
L 815.580584 39.706799 
L 810.843602 41.181889 
L 806.172248 42.856423 
L 801.574774 44.727442 
L 797.059299 46.791643 
L 792.633798 49.045379 
L 788.306086 51.484671 
L 784.083806 54.105211 
L 779.974416 56.902369 
L 775.985174 59.871207 
L 772.123123 63.006481 
L 768.395086 66.302654 
L 764.807647 69.753905 
L 761.36714 73.354138 
L 758.079643 77.096994 
L 754.950961 80.975865 
L 751.98662 84.983899 
L 749.191855 89.114017 
L 746.571602 93.358926 
L 744.130488 97.711129 
L 741.872826 102.162939 
L 739.802601 106.706494 
L 737.923471 111.333769 
L 736.238754 116.036593 
L 734.751425 120.80666 
L 733.464111 125.635545 
L 732.379085 130.51472 
L 731.498265 135.435568 
L 730.823205 140.389399 
L 730.355098 145.367463 
L 730.09477 150.360969 
L 730.042682 155.361098 
L 730.198924 160.359019 
L 730.563222 165.345905 
L 731.134932 170.312949 
L 731.913044 175.251379 
L 732.896184 180.152473 
L 734.082615 185.007575 
L 735.470243 189.808111 
L 737.056616 194.545602 
L 738.838934 199.211682 
L 740.814047 203.79811 
L 742.978469 208.296786 
L 745.328376 212.699764 
L 747.859618 216.999269 
L 750.567725 221.187708 
L 753.447914 225.257682 
L 756.495098 229.202005 
L 759.703896 233.01371 
L 763.068641 236.686066 
L 766.58339 240.212586 
L 770.241936 243.587043 
L 774.037818 246.803477 
L 777.964331 249.856207 
L 782.014542 252.739842 
L 786.181296 255.449289 
L 790.457236 257.979763 
L 794.834809 260.326796 
L 799.306285 262.486241 
L 803.863766 264.454286 
L 808.499203 266.227454 
L 813.20441 267.802614 
L 817.971076 269.176983 
L 822.790785 270.348136 
L 827.655022 271.314003 
L 832.555199 272.072878 
L 837.48266 272.623422 
L 842.428703 272.964662 
L 847.384594 273.095995 
L 852.341579 273.017189 
L 857.290904 272.728384 
L 862.223828 272.230089 
L 867.131639 271.523186 
L 872.005669 270.608921 
L 876.837311 269.48891 
L 881.618031 268.165131 
L 886.339387 266.639922 
L 890.993039 264.915976 
L 895.570769 262.996338 
L 900.064492 260.884398 
L 904.466273 258.583887 
L 908.768336 256.098866 
L 912.963085 253.433726 
L 917.04311 250.593172 
L 921.001206 247.582222 
L 924.830384 244.406193 
L 928.523879 241.070694 
L 932.07517 237.581616 
L 935.477983 233.945121 
L 938.72631 230.167632 
L 941.814414 226.255819 
L 944.73684 222.216592 
L 947.488428 218.057084 
L 950.064318 213.784641 
L 952.45996 209.406809 
L 954.671124 204.931319 
L 956.693905 200.366075 
L 958.52473 195.719141 
L 960.160365 190.998723 
L 961.597923 186.213158 
L 962.834864 181.370897 
L 963.869004 176.480492 
L 964.698516 171.550581 
L 965.321935 166.58987 
L 965.73816 161.60712 
L 965.946457 156.61113 
L 965.972503 154.110928 
L 965.972503 154.110928 
" clip-path="url(#p83855f0a17)" style="fill: none; stroke: #ff0000; stroke-width: 0.72; stroke-linejoin: miter"/>
   </g>
   <g id="patch_15">
    <path d="M 399.441276 136.788779 
L 416.763425 154.110928 
L 399.441276 171.433077 
L 382.119127 154.110928 
L 399.441276 136.788779 
" clip-path="url(#p83855f0a17)" style="fill: none; stroke: #ff0000; stroke-width: 0.72; stroke-linejoin: miter"/>
   </g>
   <g id="patch_16">
    <path d="M 845.453329 136.788779 
L 862.775479 154.110928 
L 845.453329 171.433077 
L 828.13118 154.110928 
L 845.453329 136.788779 
" clip-path="url(#p83855f0a17)" style="fill: none; stroke: #ff0000; stroke-width: 0.72; stroke-linejoin: miter"/>
   </g>
   <g id="patch_17">
    <path d="M 483.728385 206.263055 
L 500.040633 224.539385 
L 481.764303 240.851634 
L 465.452054 222.575303 
L 483.728385 206.263055 
" clip-path="url(#p83855f0a17)" style="fill: none; stroke: #ff0000; stroke-width: 0.72; stroke-linejoin: miter"/>
   </g>
   <g id="patch_18">
    <path d="M 993.363786 235.20225 
L 1009.676035 253.47858 
L 991.399704 269.790829 
L 975.087456 251.514499 
L 993.363786 235.20225 
" clip-path="url(#p83855f0a17)" style="fill: none; stroke: #ff0000; stroke-width: 0.72; stroke-linejoin: miter"/>
   </g>
   <g id="patch_19">
    <path d="M 553.527801 189.495492 
L 570.84995 172.173342 
L 588.172099 189.495492 
L 570.84995 206.817641 
L 553.527801 189.495492 
" clip-path="url(#p83855f0a17)" style="fill: none; stroke: #ff0000; stroke-width: 0.72; stroke-linejoin: miter"/>
   </g>
   <g id="patch_20">
    <path d="M 553.527801 121.297235 
L 570.84995 103.975086 
L 588.172099 121.297235 
L 570.84995 138.619384 
L 553.527801 121.297235 
" clip-path="url(#p83855f0a17)" style="fill: none; stroke: #ff0000; stroke-width: 0.72; stroke-linejoin: miter"/>
   </g>
   <g id="line2d_1">
    <path d="M 79.581113 154.110928 
L 1099.636364 154.110928 
" clip-path="url(#p83855f0a17)" style="fill: none; stroke: #ffffff; stroke-width: 0.72; stroke-linecap: square"/>
   </g>
   <g id="line2d_2">
    <path d="M 378.654697 154.110928 
L 420.227855 154.110928 
" clip-path="url(#p83855f0a17)" style="fill: none; stroke: #ffffff; stroke-width: 0.72; stroke-linecap: square"/>
   </g>
   <g id="line2d_3">
    <path d="M 824.66675 154.110928 
L 866.239908 154.110928 
" clip-path="url(#p83855f0a17)" style="fill: none; stroke: #ffffff; stroke-width: 0.72; stroke-linecap: square"/>
   </g>
   <g id="line2d_4">
    <path d="M 52.555446 199.129335 
L 1099.636364 258.586898 
" clip-path="url(#p83855f0a17)" style="fill: none; stroke: #ffffff; stroke-width: 0.72; stroke-linecap: square"/>
   </g>
   <g id="line2d_5">
    <path d="M 461.993196 222.378895 
L 503.499491 224.735793 
" clip-path="url(#p83855f0a17)" style="fill: none; stroke: #ffffff; stroke-width: 0.72; stroke-linecap: square"/>
   </g>
   <g id="line2d_6">
    <path d="M 971.628598 251.31809 
L 1013.134893 253.674989 
" clip-path="url(#p83855f0a17)" style="fill: none; stroke: #ffffff; stroke-width: 0.72; stroke-linecap: square"/>
   </g>
   <g id="line2d_7">
    <path d="M 848.004336 35.124219 
L 848.004336 31.659789 
" clip-path="url(#p83855f0a17)" style="fill: none; stroke: #ff0000; stroke-width: 0.72; stroke-linecap: square"/>
   </g>
   <g id="line2d_8">
    <path d="M 848.004336 273.097637 
L 848.004336 276.562066 
" clip-path="url(#p83855f0a17)" style="fill: none; stroke: #ff0000; stroke-width: 0.72; stroke-linecap: square"/>
   </g>
   <g id="line2d_9">
    <path d="M 965.972503 154.110928 
L 969.436933 154.110928 
" clip-path="url(#p83855f0a17)" style="fill: none; stroke: #ff0000; stroke-width: 0.72; stroke-linecap: square"/>
   </g>
   <g id="line2d_10">
    <path d="M 730.03617 154.110928 
L 726.57174 154.110928 
" clip-path="url(#p83855f0a17)" style="fill: none; stroke: #ff0000; stroke-width: 0.72; stroke-linecap: square"/>
   </g>
   <g id="line2d_11">
    <path d="M 570.84995 291.578918 
L 570.84995 19.213809 
" clip-path="url(#p83855f0a17)" style="fill: none; stroke: #ffffff; stroke-width: 0.72; stroke-linecap: square"/>
   </g>
   <g id="line2d_12">
    <path d="M 570.84995 210.282071 
L 570.84995 168.708913 
" clip-path="url(#p83855f0a17)" style="fill: none; stroke: #ffffff; stroke-width: 0.72; stroke-linecap: square"/>
   </g>
   <g id="line2d_13">
    <path d="M 570.84995 142.083814 
L 570.84995 100.510656 
" clip-path="url(#p83855f0a17)" style="fill: none; stroke: #ffffff; stroke-width: 0.72; stroke-linecap: square"/>
   </g>
  </g>
 </g>
 <defs>
  <clipPath id="p83855f0a17">
   <rect x="0" y="0" width="1152" height="308.931838"/>
  </clipPath>
 </defs>
</svg>
