<?xml version="1.0" encoding="utf-8" standalone="no"?>
<!DOCTYPE svg PUBLIC "-//W3C//DTD SVG 1.1//EN"
  "http://www.w3.org/Graphics/SVG/1.1/DTD/svg11.dtd">
<svg xmlns:xlink="http://www.w3.org/1999/xlink" width="1152pt" height="314.790021pt" viewBox="0 0 1152 314.790021" xmlns="http://www.w3.org/2000/svg" version="1.1">
 <metadata>
  <rdf:RDF xmlns:dc="http://purl.org/dc/elements/1.1/" xmlns:cc="http://creativecommons.org/ns#" xmlns:rdf="http://www.w3.org/1999/02/22-rdf-syntax-ns#">
   <cc:Work>
    <dc:type rdf:resource="http://purl.org/dc/dcmitype/StillImage"/>
    <dc:date>2026-01-07T02:07:21.900216</dc:date>
    <dc:format>image/svg+xml</dc:format>
    <dc:creator>
     <cc:Agent>
      <dc:title>Matplotlib v3.10.1, https://matplotlib.org/</dc:title>
     </cc:Agent>
    </dc:creator>
   </cc:Work>
  </rdf:RDF>
 </metadata>
 <defs>
  <style type="text/css">*{stroke-linejoin: round; stroke-linecap: butt}</style>
 </defs>
 <g id="figure_1">
  <g id="patch_1">
   <path d="M 0 314.790021 
L 1152 314.790021 
L 1152 0 
L 0 0 
z
" style="fill: #ffffff"/>
  </g>
  <g id="axes_1">
   <g id="patch_2">
    <path d="M 0 314.790021 
L 1152 314.790021 
L 1152 0 
L 0 0 
z
" style="fill: #212830"/>
   </g>
   <g id="patch_3">
    <path d="M 1099.636364 40.077677 
L 1098.460807 39.911705 
L 1077.844261 37.162355 
L 1057.196828 34.571092 
L 1036.513955 32.133473 
L 1015.80993 29.844818 
L 995.090458 27.711466 
L 974.350665 25.734192 
L 953.595908 23.910242 
L 932.834673 22.241331 
L 912.069737 20.7265 
L 891.315735 19.365163 
L 870.570266 18.165716 
L 849.838547 17.121351 
L 829.140336 16.236455 
L 808.46979 15.519685 
L 787.824735 14.967514 
L 767.220189 14.577997 
L 746.663614 14.357646 
L 726.154802 14.308637 
L 705.699668 14.429429 
L 685.312505 14.722912 
L 664.999554 15.197435 
L 644.753824 15.853792 
L 624.594755 16.687198 
L 604.524865 17.710083 
L 584.552955 18.914334 
L 564.695519 20.309306 
L 544.950999 21.896593 
L 525.343001 23.674826 
L 505.877035 25.654696 
L 486.557701 27.836209 
L 467.396972 30.21733 
L 448.419839 32.795315 
L 429.640867 35.580001 
L 411.06565 38.568749 
L 392.728274 41.7488 
L 374.66781 45.116715 
L 356.917736 48.673458 
L 339.503574 52.416835 
L 322.461257 56.333231 
L 305.839089 60.408831 
L 289.665731 64.640398 
L 273.978404 69.001025 
L 258.821696 73.46716 
L 244.236287 78.014706 
L 230.256888 82.622851 
L 216.906429 87.265535 
L 204.204427 91.923381 
L 192.14525 96.584127 
L 180.724735 101.226325 
L 169.921731 105.836565 
L 159.739182 110.390861 
L 150.147566 114.911481 
L 141.119331 119.382348 
L 132.643183 123.800806 
L 124.699976 128.166132 
L 117.29121 132.471999 
L 110.419016 136.713427 
L 104.06712 140.894916 
L 98.251625 144.964825 
L 92.971792 148.917247 
L 88.203662 152.747478 
L 83.903247 156.458239 
L 80.04094 160.019717 
L 76.536286 163.498923 
L 73.355647 166.827782 
L 70.479606 170.014703 
L 67.879894 173.086567 
L 65.539118 176.049389 
L 63.453164 178.897909 
L 61.603143 181.676645 
L 59.960461 184.41325 
L 58.50869 187.088654 
L 57.228776 189.718949 
L 55.127672 194.800568 
L 53.609894 199.591874 
L 53.0825 201.779053 
L 52.718675 204.043494 
L 52.474999 206.350378 
L 52.363636 208.474457 
L 52.384544 210.667197 
L 52.559388 212.875054 
L 52.906834 215.091795 
L 53.445192 217.309331 
L 54.201136 219.53318 
L 55.204024 221.774454 
L 56.471916 224.034663 
L 58.007099 226.302664 
L 59.80788 228.562307 
L 61.882712 230.800935 
L 64.260055 233.015911 
L 66.980961 235.214724 
L 70.06121 237.398023 
L 73.510006 239.555497 
L 77.384192 241.683144 
L 81.737886 243.792119 
L 86.565389 245.891367 
L 91.823247 247.962283 
L 97.524418 249.97241 
L 103.663672 251.925625 
L 110.169757 253.818869 
L 117.035623 255.640227 
L 124.285239 257.398551 
L 139.983061 260.846439 
L 148.368503 262.545026 
L 157.189024 264.193608 
L 176.440644 267.459451 
L 198.006821 270.743027 
L 209.81274 272.362234 
L 222.408042 273.962965 
L 235.849061 275.551966 
L 250.171265 277.123679 
L 265.394893 278.667598 
L 281.506196 280.170515 
L 298.482347 281.613316 
L 316.264594 282.991558 
L 334.807035 284.272917 
L 354.036798 285.466808 
L 373.853165 286.576246 
L 394.177184 287.587992 
L 436.070248 289.337249 
L 461.97794 290.209291 
L 461.875342 293.608003 
L 501.277109 294.743191 
L 545.751729 295.859964 
L 590.552539 296.693262 
L 704.496323 298.280102 
L 750.224019 298.705002 
L 911.781694 299.789429 
L 1099.636364 300.481383 
L 1099.636364 40.077677 
L 1099.636364 40.077677 
" clip-path="url(#p5230fb9e46)" style="fill: none; stroke: #ff0000; stroke-width: 0.72; stroke-linejoin: miter"/>
   </g>
   <g id="patch_4">
    <path d="M 655.62165 227.4741 
L 638.620348 227.4741 
L 638.620348 244.475402 
L 655.62165 244.475402 
L 655.62165 261.476703 
L 638.620348 261.476703 
" clip-path="url(#p5230fb9e46)" style="fill: none; stroke: #ff0000; stroke-width: 0.72; stroke-linejoin: miter"/>
   </g>
   <g id="patch_5">
    <path d="M 681.123601 244.475402 
L 674.323081 244.475402 
" clip-path="url(#p5230fb9e46)" style="fill: none; stroke: #ff0000; stroke-width: 0.72; stroke-linejoin: miter"/>
   </g>
   <g id="patch_6">
    <path d="M 670.922821 244.475402 
L 664.1223 244.475402 
L 664.1223 227.4741 
L 670.922821 227.4741 
" clip-path="url(#p5230fb9e46)" style="fill: none; stroke: #ff0000; stroke-width: 0.72; stroke-linejoin: miter"/>
   </g>
   <g id="patch_7">
    <path d="M 674.323081 227.4741 
L 681.123601 227.4741 
L 681.123601 261.476703 
L 674.323081 261.476703 
" clip-path="url(#p5230fb9e46)" style="fill: none; stroke: #ff0000; stroke-width: 0.72; stroke-linejoin: miter"/>
   </g>
   <g id="patch_8">
    <path d="M 670.922821 261.476703 
L 664.1223 261.476703 
" clip-path="url(#p5230fb9e46)" style="fill: none; stroke: #ff0000; stroke-width: 0.72; stroke-linejoin: miter"/>
   </g>
   <g id="patch_9">
    <path d="M 633.658333 29.925291 
L 620.068906 30.487257 
L 619.50694 16.897831 
L 633.096367 16.335865 
L 633.658333 29.925291 
" clip-path="url(#p5230fb9e46)" style="fill: none; stroke: #ff0000; stroke-width: 0.72; stroke-linejoin: miter"/>
   </g>
   <g id="patch_10">
    <path d="M 277.672001 82.091881 
L 264.625715 85.936714 
L 260.780882 72.890429 
L 273.827168 69.045595 
L 277.672001 82.091881 
" clip-path="url(#p5230fb9e46)" style="fill: none; stroke: #ff0000; stroke-width: 0.72; stroke-linejoin: miter"/>
   </g>
   <g id="patch_11">
    <path d="M 99.241844 165.678548 
L 94.095329 170.123821 
L 82.982146 157.257532 
L 88.128662 152.812259 
L 99.241844 165.678548 
" clip-path="url(#p5230fb9e46)" style="fill: none; stroke: #ff0000; stroke-width: 0.72; stroke-linejoin: miter"/>
   </g>
   <g id="patch_12">
    <path d="M 76.212059 220.920783 
L 81.768938 224.841009 
L 71.968371 238.733206 
L 66.411493 234.81298 
L 76.212059 220.920783 
" clip-path="url(#p5230fb9e46)" style="fill: none; stroke: #ff0000; stroke-width: 0.72; stroke-linejoin: miter"/>
   </g>
   <g id="patch_13">
    <path d="M 351.386439 271.696102 
L 364.966218 272.456312 
L 364.206008 286.036091 
L 350.626229 285.275881 
L 351.386439 271.696102 
" clip-path="url(#p5230fb9e46)" style="fill: none; stroke: #ff0000; stroke-width: 0.72; stroke-linejoin: miter"/>
   </g>
   <g id="patch_14">
    <path d="M 972.626857 156.700336 
L 972.516959 151.429331 
L 972.187457 146.167635 
L 971.638935 140.92454 
L 970.872361 135.709308 
L 969.889089 130.531147 
L 968.690855 125.399204 
L 967.279775 120.322541 
L 965.658342 115.310125 
L 963.829419 110.370808 
L 961.796236 105.513313 
L 959.562385 100.746219 
L 957.131809 96.077945 
L 954.508802 91.516736 
L 951.697997 87.070647 
L 948.704357 82.747531 
L 945.53317 78.555022 
L 942.190035 74.500525 
L 938.680858 70.5912 
L 935.011836 66.833953 
L 931.189449 63.235417 
L 927.220447 59.801949 
L 923.11184 56.539613 
L 918.870884 53.45417 
L 914.50507 50.551069 
L 910.022107 47.835437 
L 905.429913 45.312071 
L 900.736598 42.985427 
L 895.950451 40.859614 
L 891.079925 38.938386 
L 886.133622 37.225137 
L 881.120276 35.722892 
L 876.048743 34.434304 
L 870.927979 33.36165 
L 865.767027 32.506823 
L 860.575003 31.871333 
L 855.361076 31.456303 
L 850.134455 31.262465 
L 844.904369 31.290162 
L 839.680057 31.539346 
L 834.470743 32.009575 
L 829.28563 32.700019 
L 824.133873 33.60946 
L 819.024572 34.73629 
L 813.96675 36.07852 
L 808.969339 37.633779 
L 804.041166 39.399321 
L 799.190934 41.372028 
L 794.427209 43.548414 
L 789.758404 45.924638 
L 785.192764 48.496502 
L 780.738354 51.259463 
L 776.40304 54.208643 
L 772.194478 57.338833 
L 768.120102 60.644504 
L 764.187106 64.119819 
L 760.402438 67.75864 
L 756.77278 71.55454 
L 753.304544 75.500815 
L 750.003855 79.590496 
L 746.876541 83.81636 
L 743.928127 88.170944 
L 741.163818 92.646557 
L 738.588498 97.235295 
L 736.206715 101.929054 
L 734.022674 106.719544 
L 732.040234 111.598305 
L 730.262895 116.55672 
L 728.693796 121.586032 
L 727.335709 126.67736 
L 726.191031 131.82171 
L 725.261786 137.009999 
L 724.549613 142.233063 
L 724.05577 147.481677 
L 723.78113 152.746573 
L 723.726178 158.018451 
L 723.89101 163.288001 
L 724.275336 168.545916 
L 724.878477 173.782912 
L 725.699368 178.989737 
L 726.736559 184.157198 
L 727.988217 189.276168 
L 729.452134 194.337605 
L 731.125722 199.332571 
L 733.006027 204.252246 
L 735.089727 209.087939 
L 737.373144 213.83111 
L 739.852243 218.473384 
L 742.522646 223.00656 
L 745.379639 227.422634 
L 748.418173 231.713805 
L 751.632885 235.872496 
L 755.018095 239.891361 
L 758.567825 243.763304 
L 762.275807 247.481485 
L 766.135491 251.039338 
L 770.140061 254.43058 
L 774.282445 257.649221 
L 778.555326 260.689577 
L 782.951159 263.546279 
L 787.46218 266.21428 
L 792.080422 268.68887 
L 796.797728 270.965678 
L 801.605769 273.040683 
L 806.496051 274.91022 
L 811.459939 276.570987 
L 816.488666 278.020052 
L 821.57335 279.254855 
L 826.705012 280.273215 
L 831.874588 281.073334 
L 837.072949 281.653799 
L 842.290914 282.013584 
L 847.519268 282.152055 
L 852.748776 282.068967 
L 857.970203 281.764465 
L 863.174327 281.23909 
L 868.351958 280.493767 
L 873.493951 279.529813 
L 878.591225 278.348931 
L 883.634778 276.953207 
L 888.615703 275.345105 
L 893.525201 273.527465 
L 898.354604 271.503498 
L 903.095382 269.276778 
L 907.739161 266.851237 
L 912.277742 264.23116 
L 916.703108 261.421173 
L 921.007443 258.42624 
L 925.183146 255.251649 
L 929.222843 251.903007 
L 933.119397 248.386229 
L 936.865929 244.707525 
L 940.455822 240.873393 
L 943.882734 236.890603 
L 947.140614 232.766189 
L 950.223708 228.507436 
L 953.126572 224.121865 
L 955.844078 219.617222 
L 958.371427 215.001461 
L 960.704156 210.282735 
L 962.838144 205.469378 
L 964.769623 200.56989 
L 966.495182 195.592925 
L 968.011773 190.547272 
L 969.316718 185.441841 
L 970.407713 180.285651 
L 971.282829 175.087807 
L 971.940522 169.857488 
L 972.379631 164.603934 
L 972.599379 159.33642 
L 972.626857 156.700336 
L 972.626857 156.700336 
" clip-path="url(#p5230fb9e46)" style="fill: none; stroke: #ff0000; stroke-width: 0.72; stroke-linejoin: miter"/>
   </g>
   <g id="patch_15">
    <path d="M 400.529337 139.699034 
L 417.530638 156.700336 
L 400.529337 173.701637 
L 383.528036 156.700336 
L 400.529337 139.699034 
" clip-path="url(#p5230fb9e46)" style="fill: none; stroke: #ff0000; stroke-width: 0.72; stroke-linejoin: miter"/>
   </g>
   <g id="patch_16">
    <path d="M 842.709754 139.699034 
L 859.711055 156.700336 
L 842.709754 173.701637 
L 825.708453 156.700336 
L 842.709754 139.699034 
" clip-path="url(#p5230fb9e46)" style="fill: none; stroke: #ff0000; stroke-width: 0.72; stroke-linejoin: miter"/>
   </g>
   <g id="patch_17">
    <path d="M 483.340282 214.863847 
L 499.27511 232.868561 
L 481.270396 248.80339 
L 465.335568 230.798676 
L 483.340282 214.863847 
" clip-path="url(#p5230fb9e46)" style="fill: none; stroke: #ff0000; stroke-width: 0.72; stroke-linejoin: miter"/>
   </g>
   <g id="patch_18">
    <path d="M 992.956427 245.944029 
L 1008.891255 263.948743 
L 990.886541 279.883572 
L 974.951713 261.878858 
L 992.956427 245.944029 
" clip-path="url(#p5230fb9e46)" style="fill: none; stroke: #ff0000; stroke-width: 0.72; stroke-linejoin: miter"/>
   </g>
   <g id="patch_19">
    <path d="M 559.150964 192.888756 
L 576.152265 175.887455 
L 593.153566 192.888756 
L 576.152265 209.890057 
L 559.150964 192.888756 
" clip-path="url(#p5230fb9e46)" style="fill: none; stroke: #ff0000; stroke-width: 0.72; stroke-linejoin: miter"/>
   </g>
   <g id="patch_20">
    <path d="M 559.150964 123.066023 
L 576.152265 106.064722 
L 593.153566 123.066023 
L 576.152265 140.067324 
L 559.150964 123.066023 
" clip-path="url(#p5230fb9e46)" style="fill: none; stroke: #ff0000; stroke-width: 0.72; stroke-linejoin: miter"/>
   </g>
   <g id="line2d_1">
    <path d="M 83.6407 156.700336 
L 1099.636364 156.700336 
" clip-path="url(#p5230fb9e46)" style="fill: none; stroke: #ffffff; stroke-width: 0.72; stroke-linecap: square"/>
   </g>
   <g id="line2d_2">
    <path d="M 380.127775 156.700336 
L 420.930898 156.700336 
" clip-path="url(#p5230fb9e46)" style="fill: none; stroke: #ffffff; stroke-width: 0.72; stroke-linecap: square"/>
   </g>
   <g id="line2d_3">
    <path d="M 822.308193 156.700336 
L 863.111316 156.700336 
" clip-path="url(#p5230fb9e46)" style="fill: none; stroke: #ffffff; stroke-width: 0.72; stroke-linecap: square"/>
   </g>
   <g id="line2d_4">
    <path d="M 52.551721 205.624047 
L 1099.636364 269.483055 
" clip-path="url(#p5230fb9e46)" style="fill: none; stroke: #ffffff; stroke-width: 0.72; stroke-linecap: square"/>
   </g>
   <g id="line2d_5">
    <path d="M 461.941614 230.591687 
L 502.669065 233.07555 
" clip-path="url(#p5230fb9e46)" style="fill: none; stroke: #ffffff; stroke-width: 0.72; stroke-linecap: square"/>
   </g>
   <g id="line2d_6">
    <path d="M 971.557758 261.671869 
L 1012.285209 264.155732 
" clip-path="url(#p5230fb9e46)" style="fill: none; stroke: #ffffff; stroke-width: 0.72; stroke-linecap: square"/>
   </g>
   <g id="line2d_7">
    <path d="M 848.173083 31.246885 
L 848.173083 27.846624 
" clip-path="url(#p5230fb9e46)" style="fill: none; stroke: #ff0000; stroke-width: 0.72; stroke-linecap: square"/>
   </g>
   <g id="line2d_8">
    <path d="M 848.173083 282.153786 
L 848.173083 285.554047 
" clip-path="url(#p5230fb9e46)" style="fill: none; stroke: #ff0000; stroke-width: 0.72; stroke-linecap: square"/>
   </g>
   <g id="line2d_9">
    <path d="M 972.626857 156.700336 
L 976.027117 156.700336 
" clip-path="url(#p5230fb9e46)" style="fill: none; stroke: #ff0000; stroke-width: 0.72; stroke-linecap: square"/>
   </g>
   <g id="line2d_10">
    <path d="M 723.719308 156.700336 
L 720.319048 156.700336 
" clip-path="url(#p5230fb9e46)" style="fill: none; stroke: #ff0000; stroke-width: 0.72; stroke-linecap: square"/>
   </g>
   <g id="line2d_11">
    <path d="M 576.152265 296.450302 
L 576.152265 19.504477 
" clip-path="url(#p5230fb9e46)" style="fill: none; stroke: #ffffff; stroke-width: 0.72; stroke-linecap: square"/>
   </g>
   <g id="line2d_12">
    <path d="M 576.152265 213.290317 
L 576.152265 172.487195 
" clip-path="url(#p5230fb9e46)" style="fill: none; stroke: #ffffff; stroke-width: 0.72; stroke-linecap: square"/>
   </g>
   <g id="line2d_13">
    <path d="M 576.152265 143.467585 
L 576.152265 102.664462 
" clip-path="url(#p5230fb9e46)" style="fill: none; stroke: #ffffff; stroke-width: 0.72; stroke-linecap: square"/>
   </g>
  </g>
 </g>
 <defs>
  <clipPath id="p5230fb9e46">
   <rect x="0" y="0" width="1152" height="314.790021"/>
  </clipPath>
 </defs>
</svg>
