<?xml version="1.0" encoding="utf-8" standalone="no"?>
<!DOCTYPE svg PUBLIC "-//W3C//DTD SVG 1.1//EN"
  "http://www.w3.org/Graphics/SVG/1.1/DTD/svg11.dtd">
<svg xmlns:xlink="http://www.w3.org/1999/xlink" width="823.192305pt" height="345.6pt" viewBox="0 0 823.192305 345.6" xmlns="http://www.w3.org/2000/svg" version="1.1">
 <metadata>
  <rdf:RDF xmlns:dc="http://purl.org/dc/elements/1.1/" xmlns:cc="http://creativecommons.org/ns#" xmlns:rdf="http://www.w3.org/1999/02/22-rdf-syntax-ns#">
   <cc:Work>
    <dc:type rdf:resource="http://purl.org/dc/dcmitype/StillImage"/>
    <dc:date>2026-01-07T02:07:23.060738</dc:date>
    <dc:format>image/svg+xml</dc:format>
    <dc:creator>
     <cc:Agent>
      <dc:title>Matplotlib v3.10.1, https://matplotlib.org/</dc:title>
     </cc:Agent>
    </dc:creator>
   </cc:Work>
  </rdf:RDF>
 </metadata>
 <defs>
  <style type="text/css">*{stroke-linejoin: round; stroke-linecap: butt}</style>
 </defs>
 <g id="figure_1">
  <g id="patch_1">
   <path d="M 0 345.6 
L 823.192305 345.6 
L 823.192305 0 
L 0 0 
z
" style="fill: #ffffff"/>
  </g>
  <g id="axes_1">
   <g id="patch_2">
    <path d="M 0 345.6 
L 823.192305 345.6 
L 823.192305 0 
L 0 0 
z
" style="fill: #212830"/>
   </g>
   <g id="patch_3">
    <path d="M 37.417832 326.107599 
L 785.774473 186.626463 
L 785.774473 186.626463 
L 779.103732 184.523392 
L 750.089599 175.500557 
L 721.186934 166.665845 
L 692.354126 158.020609 
L 663.600322 149.562934 
L 634.899411 141.30688 
L 606.232967 133.241035 
L 577.610252 125.370441 
L 549.021275 117.710072 
L 520.435963 110.261782 
L 491.838233 103.016872 
L 463.222159 95.9683 
L 434.601727 89.112442 
L 405.978916 82.463779 
L 377.33612 76.023428 
L 348.67146 69.793585 
L 319.962471 63.767232 
L 291.247301 57.932613 
L 262.518494 52.325109 
L 233.731088 46.929788 
L 204.906818 41.728006 
L 176.069954 36.727608 
L 147.211747 31.942473 
L 118.319841 27.370901 
L 89.391963 23.00749 
L 60.43306 18.848299 
L 37.417833 15.709091 
L 37.417832 326.107599 
" clip-path="url(#pec508a1ca6)" style="fill: none; stroke: #ff0000; stroke-width: 0.72; stroke-linejoin: miter"/>
   </g>
   <g id="patch_4">
    <path d="M 659.327531 280.636999 
L 649.476748 280.636999 
" clip-path="url(#pec508a1ca6)" style="fill: none; stroke: #ff0000; stroke-width: 0.72; stroke-linejoin: miter"/>
   </g>
   <g id="patch_5">
    <path d="M 644.551357 280.636999 
L 634.700575 280.636999 
L 634.700575 329.890909 
L 644.551357 329.890909 
" clip-path="url(#pec508a1ca6)" style="fill: none; stroke: #ff0000; stroke-width: 0.72; stroke-linejoin: miter"/>
   </g>
   <g id="patch_6">
    <path d="M 649.476748 329.890909 
L 659.327531 329.890909 
L 659.327531 305.263954 
L 649.476748 305.263954 
" clip-path="url(#pec508a1ca6)" style="fill: none; stroke: #ff0000; stroke-width: 0.72; stroke-linejoin: miter"/>
   </g>
   <g id="patch_7">
    <path d="M 644.551357 305.263954 
L 634.700575 305.263954 
" clip-path="url(#pec508a1ca6)" style="fill: none; stroke: #ff0000; stroke-width: 0.72; stroke-linejoin: miter"/>
   </g>
   <g id="patch_8">
    <path d="M 671.641008 280.636999 
L 696.267963 280.636999 
L 696.267963 305.263954 
L 671.641008 305.263954 
L 671.641008 329.890909 
L 696.267963 329.890909 
" clip-path="url(#pec508a1ca6)" style="fill: none; stroke: #ff0000; stroke-width: 0.72; stroke-linejoin: miter"/>
   </g>
   <g id="patch_9">
    <path d="M 495.957557 124.321898 
L 476.827737 119.610038 
L 481.539597 100.480218 
L 500.669417 105.192078 
L 495.957557 124.321898 
" clip-path="url(#pec508a1ca6)" style="fill: none; stroke: #ff0000; stroke-width: 0.72; stroke-linejoin: miter"/>
   </g>
   <g id="patch_10">
    <path d="M 309.185549 155.525288 
L 333.812505 180.152243 
L 309.185549 204.779198 
L 284.558594 180.152243 
L 309.185549 155.525288 
" clip-path="url(#pec508a1ca6)" style="fill: none; stroke: #ff0000; stroke-width: 0.72; stroke-linejoin: miter"/>
   </g>
   <g id="patch_11">
    <path d="M 293.718916 190.53481 
L 318.345871 165.907855 
L 342.972826 190.53481 
L 318.345871 215.161766 
L 293.718916 190.53481 
" clip-path="url(#pec508a1ca6)" style="fill: none; stroke: #ff0000; stroke-width: 0.72; stroke-linejoin: miter"/>
   </g>
   <g id="patch_12">
    <path d="M 293.718916 146.651266 
L 318.345871 122.024311 
L 342.972826 146.651266 
L 318.345871 171.278221 
L 293.718916 146.651266 
" clip-path="url(#pec508a1ca6)" style="fill: none; stroke: #ff0000; stroke-width: 0.72; stroke-linejoin: miter"/>
   </g>
   <g id="line2d_1">
    <path d="M 37.417833 180.152243 
L 765.047719 180.152243 
" clip-path="url(#pec508a1ca6)" style="fill: none; stroke: #ffffff; stroke-width: 0.72; stroke-linecap: square"/>
   </g>
   <g id="line2d_2">
    <path d="M 279.633203 180.152243 
L 338.737896 180.152243 
" clip-path="url(#pec508a1ca6)" style="fill: none; stroke: #ffffff; stroke-width: 0.72; stroke-linecap: square"/>
   </g>
   <g id="line2d_3">
    <path d="M 318.345871 273.747321 
L 318.345871 63.438756 
" clip-path="url(#pec508a1ca6)" style="fill: none; stroke: #ffffff; stroke-width: 0.72; stroke-linecap: square"/>
   </g>
   <g id="line2d_4">
    <path d="M 318.345871 220.087157 
L 318.345871 160.982464 
" clip-path="url(#pec508a1ca6)" style="fill: none; stroke: #ffffff; stroke-width: 0.72; stroke-linecap: square"/>
   </g>
   <g id="line2d_5">
    <path d="M 318.345871 176.203612 
L 318.345871 117.09892 
" clip-path="url(#pec508a1ca6)" style="fill: none; stroke: #ffffff; stroke-width: 0.72; stroke-linecap: square"/>
   </g>
  </g>
 </g>
 <defs>
  <clipPath id="pec508a1ca6">
   <rect x="0" y="0" width="823.192305" height="345.6"/>
  </clipPath>
 </defs>
</svg>
