<?xml version="1.0" encoding="utf-8" standalone="no"?>
<!DOCTYPE svg PUBLIC "-//W3C//DTD SVG 1.1//EN"
  "http://www.w3.org/Graphics/SVG/1.1/DTD/svg11.dtd">
<svg xmlns:xlink="http://www.w3.org/1999/xlink" width="1152pt" height="339.100719pt" viewBox="0 0 1152 339.100719" xmlns="http://www.w3.org/2000/svg" version="1.1">
 <metadata>
  <rdf:RDF xmlns:dc="http://purl.org/dc/elements/1.1/" xmlns:cc="http://creativecommons.org/ns#" xmlns:rdf="http://www.w3.org/1999/02/22-rdf-syntax-ns#">
   <cc:Work>
    <dc:type rdf:resource="http://purl.org/dc/dcmitype/StillImage"/>
    <dc:date>2026-01-07T02:07:12.071567</dc:date>
    <dc:format>image/svg+xml</dc:format>
    <dc:creator>
     <cc:Agent>
      <dc:title>Matplotlib v3.10.1, https://matplotlib.org/</dc:title>
     </cc:Agent>
    </dc:creator>
   </cc:Work>
  </rdf:RDF>
 </metadata>
 <defs>
  <style type="text/css">*{stroke-linejoin: round; stroke-linecap: butt}</style>
 </defs>
 <g id="figure_1">
  <g id="patch_1">
   <path d="M 0 339.100719 
L 1152 339.100719 
L 1152 0 
L 0 0 
z
" style="fill: #ffffff"/>
  </g>
  <g id="axes_1">
   <g id="patch_2">
    <path d="M 0 339.100719 
L 1152 339.100719 
L 1152 0 
L 0 0 
z
" style="fill: #212830"/>
   </g>
   <g id="patch_3">
    <path d="M 1099.319015 321.706401 
L 1093.222386 319.506739 
L 1083.15186 315.887127 
L 1071.927939 311.888177 
L 1059.549634 307.556636 
L 1045.969397 302.900773 
L 1031.267312 297.866829 
L 1015.598426 292.474739 
L 999.126135 286.761587 
L 981.983357 280.770634 
L 964.293895 274.546961 
L 946.140612 268.124246 
L 927.592297 261.537726 
L 908.706392 254.808831 
L 889.521823 247.958588 
L 870.089393 241.013073 
L 850.461499 233.994192 
L 830.687063 226.928769 
L 810.798234 219.838013 
L 790.820892 212.734745 
L 770.779121 205.634608 
L 750.68067 198.549921 
L 730.531928 191.487995 
L 710.344365 184.457987 
L 690.125477 177.471083 
L 669.876981 170.535331 
L 649.603902 163.657857 
L 629.3128 156.848958 
L 609.002017 150.117923 
L 588.664458 143.469697 
L 581.648525 141.209439 
L 580.964273 143.333384 
L 567.622768 139.035239 
L 547.234285 132.568924 
L 526.808313 126.199554 
L 506.336765 119.930386 
L 485.813637 113.763691 
L 465.236685 107.699854 
L 444.605762 101.739353 
L 423.920946 95.886366 
L 403.181593 90.145805 
L 382.388125 84.521042 
L 361.543469 79.014797 
L 340.650771 73.632827 
L 319.710344 68.383687 
L 298.72159 63.273377 
L 277.684938 58.304491 
L 256.603496 53.481572 
L 235.475901 48.812175 
L 214.300198 44.299707 
L 193.077669 39.943789 
L 171.813025 35.745909 
L 150.509027 31.711346 
L 129.165425 27.844365 
L 107.784059 24.144456 
L 86.368565 20.614371 
L 64.917397 17.262752 
L 52.363636 15.413669 
L 52.363636 283.676825 
L 62.197973 283.734693 
L 86.969196 283.883532 
L 111.6761 284.038597 
L 136.296899 284.173926 
L 160.851112 284.274019 
L 185.355538 284.359718 
L 209.781278 284.473458 
L 234.152475 284.632635 
L 258.483496 284.821393 
L 282.746552 285.018367 
L 306.88047 285.238804 
L 330.849088 285.51687 
L 354.691653 285.864608 
L 378.410394 286.239661 
L 401.959575 286.581519 
L 425.408787 286.868383 
L 448.780223 287.144668 
L 472.033514 287.470848 
L 495.208923 287.866337 
L 518.326895 288.298453 
L 541.309905 288.737324 
L 564.07472 289.203786 
L 586.618797 289.746746 
L 609.042272 290.384094 
L 631.407399 291.076791 
L 653.662421 291.77689 
L 675.706053 292.483857 
L 697.468675 293.247692 
L 719.021221 294.108658 
L 740.466091 295.056517 
L 761.814186 296.042129 
L 782.954251 297.028501 
L 803.768883 298.036507 
L 824.24485 299.127509 
L 844.494451 300.343819 
L 864.629761 301.660068 
L 884.622723 303.007187 
L 904.310826 304.355569 
L 923.582079 305.742563 
L 942.438946 307.198826 
L 960.876997 308.711077 
L 978.824174 310.260078 
L 996.174438 311.83754 
L 1012.816619 313.449765 
L 1028.678387 315.116003 
L 1043.712184 316.813104 
L 1057.805168 318.468061 
L 1070.804681 320.024318 
L 1082.607759 321.4835 
L 1093.210988 322.845279 
L 1099.636364 323.68705 
L 1099.319015 321.706401 
" clip-path="url(#p9a391c4858)" style="fill: none; stroke: #ff0000; stroke-width: 0.72; stroke-linejoin: miter"/>
   </g>
   <g id="patch_4">
    <path d="M 489.383941 218.723468 
L 500.541161 218.723468 
L 500.541161 229.880688 
L 489.383941 229.880688 
L 489.383941 241.037908 
L 500.541161 241.037908 
" clip-path="url(#p9a391c4858)" style="fill: none; stroke: #ff0000; stroke-width: 0.72; stroke-linejoin: miter"/>
   </g>
   <g id="patch_5">
    <path d="M 510.58266 218.723468 
L 506.119771 218.723468 
L 506.119771 241.037908 
L 510.58266 241.037908 
" clip-path="url(#p9a391c4858)" style="fill: none; stroke: #ff0000; stroke-width: 0.72; stroke-linejoin: miter"/>
   </g>
   <g id="patch_6">
    <path d="M 512.814104 241.037908 
L 517.276992 241.037908 
L 517.276992 218.723468 
L 512.814104 218.723468 
" clip-path="url(#p9a391c4858)" style="fill: none; stroke: #ff0000; stroke-width: 0.72; stroke-linejoin: miter"/>
   </g>
   <g id="patch_7">
    <path d="M 506.119771 229.880688 
L 510.58266 229.880688 
" clip-path="url(#p9a391c4858)" style="fill: none; stroke: #ff0000; stroke-width: 0.72; stroke-linejoin: miter"/>
   </g>
   <g id="patch_8">
    <path d="M 512.814104 229.880688 
L 517.276992 229.880688 
" clip-path="url(#p9a391c4858)" style="fill: none; stroke: #ff0000; stroke-width: 0.72; stroke-linejoin: miter"/>
   </g>
   <g id="patch_9">
    <path d="M 375.358194 91.895996 
L 366.72842 89.616415 
L 369.008001 80.986641 
L 377.637775 83.266222 
L 375.358194 91.895996 
" clip-path="url(#p9a391c4858)" style="fill: none; stroke: #ff0000; stroke-width: 0.72; stroke-linejoin: miter"/>
   </g>
   <g id="patch_10">
    <path d="M 242.063445 124.218562 
L 253.220665 135.375782 
L 242.063445 146.533002 
L 230.906225 135.375782 
L 242.063445 124.218562 
" clip-path="url(#p9a391c4858)" style="fill: none; stroke: #ff0000; stroke-width: 0.72; stroke-linejoin: miter"/>
   </g>
   <g id="patch_11">
    <path d="M 457.050533 220.471243 
L 468.207753 209.314023 
L 479.364974 220.471243 
L 468.207753 231.628463 
L 457.050533 220.471243 
" clip-path="url(#p9a391c4858)" style="fill: none; stroke: #ff0000; stroke-width: 0.72; stroke-linejoin: miter"/>
   </g>
   <g id="patch_12">
    <path d="M 457.050533 175.52134 
L 468.207753 164.36412 
L 479.364974 175.52134 
L 468.207753 186.67856 
L 457.050533 175.52134 
" clip-path="url(#p9a391c4858)" style="fill: none; stroke: #ff0000; stroke-width: 0.72; stroke-linejoin: miter"/>
   </g>
   <g id="line2d_1">
    <path d="M 1057.474722 306.84527 
L 1056.755378 308.957589 
" clip-path="url(#p9a391c4858)" style="fill: none; stroke: #ff0000; stroke-width: 0.72; stroke-linecap: square"/>
   </g>
   <g id="line2d_2">
    <path d="M 1055.352105 315.93581 
L 1055.198594 318.161968 
" clip-path="url(#p9a391c4858)" style="fill: none; stroke: #ff0000; stroke-width: 0.72; stroke-linecap: square"/>
   </g>
   <g id="line2d_3">
    <path d="M 1015.262535 292.358241 
L 1014.540688 294.469705 
" clip-path="url(#p9a391c4858)" style="fill: none; stroke: #ff0000; stroke-width: 0.72; stroke-linecap: square"/>
   </g>
   <g id="line2d_4">
    <path d="M 1011.019779 311.033861 
L 1010.820385 313.256378 
" clip-path="url(#p9a391c4858)" style="fill: none; stroke: #ff0000; stroke-width: 0.72; stroke-linecap: square"/>
   </g>
   <g id="line2d_5">
    <path d="M 846.988033 232.753119 
L 846.250707 234.859228 
" clip-path="url(#p9a391c4858)" style="fill: none; stroke: #ff0000; stroke-width: 0.72; stroke-linecap: square"/>
   </g>
   <g id="line2d_6">
    <path d="M 832.999553 297.418382 
L 832.81964 299.642561 
" clip-path="url(#p9a391c4858)" style="fill: none; stroke: #ff0000; stroke-width: 0.72; stroke-linecap: square"/>
   </g>
   <g id="line2d_7">
    <path d="M 52.363636 135.375782 
L 556.084392 135.375782 
" clip-path="url(#p9a391c4858)" style="fill: none; stroke: #ffffff; stroke-width: 0.72; stroke-linecap: square"/>
   </g>
   <g id="line2d_8">
    <path d="M 228.674781 135.375782 
L 255.452109 135.375782 
" clip-path="url(#p9a391c4858)" style="fill: none; stroke: #ffffff; stroke-width: 0.72; stroke-linecap: square"/>
   </g>
   <g id="line2d_9">
    <path d="M 52.363636 253.691474 
L 1097.630956 321.097349 
" clip-path="url(#p9a391c4858)" style="fill: none; stroke: #ffffff; stroke-width: 0.72; stroke-linecap: square"/>
   </g>
   <g id="line2d_10">
    <path d="M 468.207753 287.417183 
L 468.207753 108.5754 
" clip-path="url(#p9a391c4858)" style="fill: none; stroke: #ffffff; stroke-width: 0.72; stroke-linecap: square"/>
   </g>
   <g id="line2d_11">
    <path d="M 468.207753 233.859908 
L 468.207753 207.082579 
" clip-path="url(#p9a391c4858)" style="fill: none; stroke: #ffffff; stroke-width: 0.72; stroke-linecap: square"/>
   </g>
   <g id="line2d_12">
    <path d="M 468.207753 188.910005 
L 468.207753 162.132676 
" clip-path="url(#p9a391c4858)" style="fill: none; stroke: #ffffff; stroke-width: 0.72; stroke-linecap: square"/>
   </g>
  </g>
 </g>
 <defs>
  <clipPath id="p9a391c4858">
   <rect x="0" y="0" width="1152" height="339.100719"/>
  </clipPath>
 </defs>
</svg>
