<?xml version="1.0" encoding="utf-8" standalone="no"?>
<!DOCTYPE svg PUBLIC "-//W3C//DTD SVG 1.1//EN"
  "http://www.w3.org/Graphics/SVG/1.1/DTD/svg11.dtd">
<svg xmlns:xlink="http://www.w3.org/1999/xlink" width="1152pt" height="335.570033pt" viewBox="0 0 1152 335.570033" xmlns="http://www.w3.org/2000/svg" version="1.1">
 <metadata>
  <rdf:RDF xmlns:dc="http://purl.org/dc/elements/1.1/" xmlns:cc="http://creativecommons.org/ns#" xmlns:rdf="http://www.w3.org/1999/02/22-rdf-syntax-ns#">
   <cc:Work>
    <dc:type rdf:resource="http://purl.org/dc/dcmitype/StillImage"/>
    <dc:date>2026-01-07T02:07:05.759217</dc:date>
    <dc:format>image/svg+xml</dc:format>
    <dc:creator>
     <cc:Agent>
      <dc:title>Matplotlib v3.10.1, https://matplotlib.org/</dc:title>
     </cc:Agent>
    </dc:creator>
   </cc:Work>
  </rdf:RDF>
 </metadata>
 <defs>
  <style type="text/css">*{stroke-linejoin: round; stroke-linecap: butt}</style>
 </defs>
 <g id="figure_1">
  <g id="patch_1">
   <path d="M 0 335.570033 
L 1152 335.570033 
L 1152 0 
L 0 0 
z
" style="fill: #ffffff"/>
  </g>
  <g id="axes_1">
   <g id="patch_2">
    <path d="M 0 335.570033 
L 1152 335.570033 
L 1152 0 
L 0 0 
z
" style="fill: #212830"/>
   </g>
   <g id="patch_3">
    <path d="M 1099.636364 41.627339 
L 1094.684749 40.891419 
L 1072.020931 37.719374 
L 1049.374424 34.758838 
L 1026.745658 32.022919 
L 1004.130536 29.51256 
L 981.528396 27.220384 
L 958.946817 25.132477 
L 936.408577 23.235929 
L 913.946074 21.532643 
L 891.576011 20.042905 
L 869.288138 18.781545 
L 847.067273 17.738238 
L 824.92019 16.886671 
L 802.87663 16.206539 
L 780.974839 15.694552 
L 759.249817 15.366627 
L 737.712887 15.253183 
L 716.34077 15.376695 
L 695.097688 15.720851 
L 673.987806 16.23562 
L 653.070314 16.884381 
L 632.413361 17.683507 
L 612.038405 18.684673 
L 591.914147 19.926081 
L 571.992669 21.403422 
L 552.249981 23.070762 
L 532.719021 24.867027 
L 513.485086 26.767519 
L 494.620739 28.817988 
L 476.11107 31.099041 
L 457.866343 33.63793 
L 439.827582 36.36797 
L 422.042206 39.196061 
L 404.618244 42.099467 
L 387.615829 45.137771 
L 371.008376 48.376988 
L 354.735493 51.828739 
L 338.766558 55.454716 
L 323.113699 59.207324 
L 307.817074 63.056679 
L 292.920034 66.998819 
L 278.451562 71.051654 
L 264.412038 75.242092 
L 250.779854 79.583722 
L 237.531295 84.066941 
L 224.660817 88.663011 
L 212.186701 93.343841 
L 200.134371 98.09771 
L 188.515531 102.928669 
L 177.326627 107.837129 
L 166.569166 112.806749 
L 156.263331 117.818376 
L 146.430403 122.872114 
L 137.070397 127.979512 
L 128.170969 133.138912 
L 119.731018 138.331389 
L 111.76375 143.537487 
L 104.282037 148.749332 
L 97.296284 153.960419 
L 90.815561 159.169146 
L 84.831297 164.388076 
L 79.311752 169.621554 
L 74.238804 174.824363 
L 69.653698 179.913813 
L 65.629978 184.852735 
L 62.197912 189.691804 
L 59.32077 194.506331 
L 56.946173 199.301912 
L 55.055062 204.014775 
L 53.658647 208.595165 
L 52.765078 213.038657 
L 52.363636 217.603689 
L 52.464394 221.439634 
L 53.073656 225.339587 
L 54.250666 229.098664 
L 56.050707 232.804141 
L 58.476387 236.487411 
L 61.488081 240.116772 
L 65.077728 243.647619 
L 69.291237 247.064811 
L 74.172197 250.38056 
L 79.715734 253.605961 
L 85.899128 256.731872 
L 92.72864 259.743342 
L 100.230854 262.643786 
L 108.411614 265.454103 
L 117.249591 268.191421 
L 126.719666 270.858631 
L 136.805339 273.451251 
L 147.495003 275.96373 
L 158.782149 278.389303 
L 170.667603 280.725233 
L 183.146617 282.976905 
L 196.201094 285.146006 
L 209.816912 287.221849 
L 224.000661 289.192888 
L 238.76194 291.064305 
L 254.092661 292.849362 
L 269.974595 294.55092 
L 286.40237 296.164027 
L 303.377563 297.692317 
L 338.923065 300.538618 
L 376.493564 303.116438 
L 415.995832 305.446601 
L 457.321817 307.534975 
L 462.54652 307.770657 
L 462.460884 309.669071 
L 500.298745 311.306223 
L 544.955838 312.973143 
L 591.07456 314.436219 
L 638.541997 315.652073 
L 687.29171 316.615523 
L 737.260073 317.335566 
L 866.781162 318.738094 
L 1055.051149 320.07639 
L 1099.636364 320.31685 
L 1099.636364 41.627339 
L 1099.636364 41.627339 
" clip-path="url(#pb98e07ec66)" style="fill: none; stroke: #ff0000; stroke-width: 0.72; stroke-linejoin: miter"/>
   </g>
   <g id="patch_4">
    <path d="M 644.503821 252.940242 
L 644.503821 271.943689 
" clip-path="url(#pb98e07ec66)" style="fill: none; stroke: #ff0000; stroke-width: 0.72; stroke-linejoin: miter"/>
   </g>
   <g id="patch_5">
    <path d="M 658.756406 252.940242 
L 658.756406 271.943689 
" clip-path="url(#pb98e07ec66)" style="fill: none; stroke: #ff0000; stroke-width: 0.72; stroke-linejoin: miter"/>
   </g>
   <g id="patch_6">
    <path d="M 632.580987 25.285822 
L 624.988773 25.658965 
L 624.61563 18.06675 
L 632.207845 17.693608 
L 632.580987 25.285822 
" clip-path="url(#pb98e07ec66)" style="fill: none; stroke: #ff0000; stroke-width: 0.72; stroke-linejoin: miter"/>
   </g>
   <g id="patch_7">
    <path d="M 275.146939 79.970941 
L 267.863158 82.14522 
L 265.688879 74.861439 
L 272.97266 72.68716 
L 275.146939 79.970941 
" clip-path="url(#pb98e07ec66)" style="fill: none; stroke: #ff0000; stroke-width: 0.72; stroke-linejoin: miter"/>
   </g>
   <g id="patch_8">
    <path d="M 94.176348 168.847267 
L 91.312713 171.346234 
L 85.065296 164.187147 
L 87.92893 161.68818 
L 94.176348 168.847267 
" clip-path="url(#pb98e07ec66)" style="fill: none; stroke: #ff0000; stroke-width: 0.72; stroke-linejoin: miter"/>
   </g>
   <g id="patch_9">
    <path d="M 73.712832 238.583259 
L 76.85919 240.715315 
L 71.529049 248.581213 
L 68.38269 246.449156 
L 73.712832 238.583259 
" clip-path="url(#pb98e07ec66)" style="fill: none; stroke: #ff0000; stroke-width: 0.72; stroke-linejoin: miter"/>
   </g>
   <g id="patch_10">
    <path d="M 354.955005 294.077751 
L 362.5399 294.578076 
L 362.039575 302.162971 
L 354.45468 301.662645 
L 354.955005 294.077751 
" clip-path="url(#pb98e07ec66)" style="fill: none; stroke: #ff0000; stroke-width: 0.72; stroke-linejoin: miter"/>
   </g>
   <g id="patch_11">
    <path d="M 972.693104 167.424733 
L 972.583692 161.900856 
L 972.255652 156.386735 
L 971.70956 150.892108 
L 970.946383 145.426679 
L 969.967469 140.0001 
L 968.774545 134.621956 
L 967.369718 129.301745 
L 965.755471 124.048863 
L 963.934653 118.872586 
L 961.910481 113.782057 
L 959.686529 108.786265 
L 957.266725 103.894035 
L 954.655343 99.114006 
L 951.856994 94.45462 
L 948.876621 89.924106 
L 945.719487 85.530465 
L 942.391169 81.281457 
L 938.897543 77.184586 
L 935.244781 73.247087 
L 931.439334 69.475915 
L 927.487921 65.877729 
L 923.397522 62.458885 
L 919.175361 59.22542 
L 914.828895 56.183046 
L 910.365799 53.337134 
L 905.793956 50.692711 
L 901.121441 48.254449 
L 896.356505 46.026651 
L 891.507563 44.013254 
L 886.58318 42.217814 
L 881.592052 40.6435 
L 876.542995 39.293093 
L 871.444924 38.168979 
L 866.306844 37.273142 
L 861.13783 36.607166 
L 855.947009 36.172225 
L 850.743551 35.969088 
L 845.536643 35.998114 
L 840.335483 36.259251 
L 835.149256 36.752039 
L 829.987121 37.475607 
L 824.858196 38.428677 
L 819.771537 39.609566 
L 814.73613 41.016189 
L 809.760866 42.64606 
L 804.854533 44.496303 
L 800.025796 46.563648 
L 795.283182 48.844445 
L 790.635068 51.334666 
L 786.089662 54.029912 
L 781.654992 56.925425 
L 777.338891 60.016089 
L 773.14898 63.296447 
L 769.09266 66.760705 
L 765.177094 70.402745 
L 761.409198 74.216135 
L 757.795626 78.19414 
L 754.342761 82.329735 
L 751.056699 86.615614 
L 747.943244 91.044211 
L 745.007896 95.607702 
L 742.255839 100.298029 
L 739.691932 105.106908 
L 737.320704 110.025846 
L 735.146342 115.046156 
L 733.172687 120.158971 
L 731.403225 125.355262 
L 729.84108 130.625851 
L 728.489011 135.961431 
L 727.349407 141.352577 
L 726.424279 146.78977 
L 725.715262 152.263406 
L 725.223608 157.763818 
L 724.950185 163.281292 
L 724.895477 168.806084 
L 725.059579 174.328436 
L 725.442201 179.838596 
L 726.042669 185.326831 
L 726.859922 190.78345 
L 727.892516 196.198816 
L 729.138628 201.563363 
L 730.596056 206.867619 
L 732.262228 212.102214 
L 734.1342 217.257906 
L 736.208666 222.325587 
L 738.481963 227.296308 
L 740.950075 232.161291 
L 743.608645 236.911943 
L 746.452976 241.539874 
L 749.478045 246.03691 
L 752.678509 250.395111 
L 756.048717 254.606778 
L 759.582716 258.664473 
L 763.274266 262.561031 
L 767.116845 266.289569 
L 771.103668 269.843503 
L 775.227694 273.216556 
L 779.481639 276.40277 
L 783.857991 279.39652 
L 788.34902 282.192517 
L 792.946795 284.785823 
L 797.643196 287.171859 
L 802.429929 289.34641 
L 807.298539 291.305636 
L 812.240428 293.046077 
L 817.246869 294.56466 
L 822.30902 295.858701 
L 827.41794 296.925916 
L 832.564606 297.764421 
L 837.73993 298.372733 
L 842.93477 298.749779 
L 848.139953 298.894892 
L 853.346286 298.807818 
L 858.544573 298.488708 
L 863.725634 297.938128 
L 868.88032 297.157049 
L 873.999525 296.14685 
L 879.07421 294.909317 
L 884.095411 293.446634 
L 889.054261 291.761384 
L 893.942003 289.856545 
L 898.750003 287.73548 
L 903.469771 285.401934 
L 908.092971 282.86003 
L 912.611438 280.114257 
L 917.017192 277.169464 
L 921.302451 274.030851 
L 925.459649 270.703962 
L 929.481443 267.194672 
L 933.360729 263.50918 
L 937.090658 259.653993 
L 940.664641 255.635921 
L 944.076366 251.46206 
L 947.319808 247.139781 
L 950.389239 242.676718 
L 953.279238 238.080753 
L 955.984701 233.360004 
L 958.50085 228.522806 
L 960.82324 223.577703 
L 962.947771 218.533429 
L 964.870691 213.398893 
L 966.588603 208.183162 
L 968.098473 202.895447 
L 969.397635 197.545088 
L 970.483794 192.141534 
L 971.355032 186.694328 
L 972.009811 181.213089 
L 972.446974 175.7075 
L 972.665748 170.187282 
L 972.693104 167.424733 
L 972.693104 167.424733 
" clip-path="url(#pb98e07ec66)" style="fill: none; stroke: #ff0000; stroke-width: 0.72; stroke-linejoin: miter"/>
   </g>
   <g id="patch_12">
    <path d="M 392.877172 157.92301 
L 402.378895 167.424733 
L 392.877172 176.926456 
L 383.375449 167.424733 
L 392.877172 157.92301 
" clip-path="url(#pb98e07ec66)" style="fill: none; stroke: #ff0000; stroke-width: 0.72; stroke-linejoin: miter"/>
   </g>
   <g id="patch_13">
    <path d="M 841.22159 157.92301 
L 850.723313 167.424733 
L 841.22159 176.926456 
L 831.719867 167.424733 
L 841.22159 157.92301 
" clip-path="url(#pb98e07ec66)" style="fill: none; stroke: #ff0000; stroke-width: 0.72; stroke-linejoin: miter"/>
   </g>
   <g id="patch_14">
    <path d="M 460.723256 232.91689 
L 469.588482 243.015071 
L 459.4903 251.880296 
L 450.625075 241.782115 
L 460.723256 232.91689 
" clip-path="url(#pb98e07ec66)" style="fill: none; stroke: #ff0000; stroke-width: 0.72; stroke-linejoin: miter"/>
   </g>
   <g id="patch_15">
    <path d="M 954.806905 265.041039 
L 963.672131 275.13922 
L 953.573949 284.004445 
L 944.708724 273.906264 
L 954.806905 265.041039 
" clip-path="url(#pb98e07ec66)" style="fill: none; stroke: #ff0000; stroke-width: 0.72; stroke-linejoin: miter"/>
   </g>
   <g id="patch_16">
    <path d="M 554.237451 207.867005 
L 563.739174 198.365282 
L 573.240897 207.867005 
L 563.739174 217.368728 
L 554.237451 207.867005 
" clip-path="url(#pb98e07ec66)" style="fill: none; stroke: #ff0000; stroke-width: 0.72; stroke-linejoin: miter"/>
   </g>
   <g id="patch_17">
    <path d="M 554.237451 127.829633 
L 563.739174 118.32791 
L 573.240897 127.829633 
L 563.739174 137.331356 
L 554.237451 127.829633 
" clip-path="url(#pb98e07ec66)" style="fill: none; stroke: #ff0000; stroke-width: 0.72; stroke-linejoin: miter"/>
   </g>
   <g id="line2d_1">
    <path d="M 81.628653 167.424733 
L 1099.636364 167.424733 
" clip-path="url(#pb98e07ec66)" style="fill: none; stroke: #ffffff; stroke-width: 0.72; stroke-linecap: square"/>
   </g>
   <g id="line2d_2">
    <path d="M 381.475104 167.424733 
L 404.27924 167.424733 
" clip-path="url(#pb98e07ec66)" style="fill: none; stroke: #ffffff; stroke-width: 0.72; stroke-linecap: square"/>
   </g>
   <g id="line2d_3">
    <path d="M 829.819522 167.424733 
L 852.623658 167.424733 
" clip-path="url(#pb98e07ec66)" style="fill: none; stroke: #ffffff; stroke-width: 0.72; stroke-linecap: square"/>
   </g>
   <g id="line2d_4">
    <path d="M 52.513645 215.897852 
L 1099.636364 283.979293 
" clip-path="url(#pb98e07ec66)" style="fill: none; stroke: #ffffff; stroke-width: 0.72; stroke-linecap: square"/>
   </g>
   <g id="line2d_5">
    <path d="M 448.728734 241.658819 
L 471.484822 243.138366 
" clip-path="url(#pb98e07ec66)" style="fill: none; stroke: #ffffff; stroke-width: 0.72; stroke-linecap: square"/>
   </g>
   <g id="line2d_6">
    <path d="M 942.812383 273.782969 
L 965.568471 275.262516 
" clip-path="url(#pb98e07ec66)" style="fill: none; stroke: #ffffff; stroke-width: 0.72; stroke-linecap: square"/>
   </g>
   <g id="line2d_7">
    <path d="M 848.790871 35.95276 
L 848.790871 34.052415 
" clip-path="url(#pb98e07ec66)" style="fill: none; stroke: #ff0000; stroke-width: 0.72; stroke-linecap: square"/>
   </g>
   <g id="line2d_8">
    <path d="M 848.790871 298.896707 
L 848.790871 300.797051 
" clip-path="url(#pb98e07ec66)" style="fill: none; stroke: #ff0000; stroke-width: 0.72; stroke-linecap: square"/>
   </g>
   <g id="line2d_9">
    <path d="M 972.693104 167.424733 
L 974.593449 167.424733 
" clip-path="url(#pb98e07ec66)" style="fill: none; stroke: #ff0000; stroke-width: 0.72; stroke-linecap: square"/>
   </g>
   <g id="line2d_10">
    <path d="M 724.888637 167.424733 
L 722.988293 167.424733 
" clip-path="url(#pb98e07ec66)" style="fill: none; stroke: #ff0000; stroke-width: 0.72; stroke-linecap: square"/>
   </g>
   <g id="line2d_11">
    <path d="M 563.739174 313.596179 
L 563.739174 22.100459 
" clip-path="url(#pb98e07ec66)" style="fill: none; stroke: #ffffff; stroke-width: 0.72; stroke-linecap: square"/>
   </g>
   <g id="line2d_12">
    <path d="M 563.739174 219.269073 
L 563.739174 196.464937 
" clip-path="url(#pb98e07ec66)" style="fill: none; stroke: #ffffff; stroke-width: 0.72; stroke-linecap: square"/>
   </g>
   <g id="line2d_13">
    <path d="M 563.739174 139.231701 
L 563.739174 116.427565 
" clip-path="url(#pb98e07ec66)" style="fill: none; stroke: #ffffff; stroke-width: 0.72; stroke-linecap: square"/>
   </g>
  </g>
 </g>
 <defs>
  <clipPath id="pb98e07ec66">
   <rect x="0" y="0" width="1152" height="335.570033"/>
  </clipPath>
 </defs>
</svg>
