<?xml version="1.0" encoding="utf-8" standalone="no"?>
<!DOCTYPE svg PUBLIC "-//W3C//DTD SVG 1.1//EN"
  "http://www.w3.org/Graphics/SVG/1.1/DTD/svg11.dtd">
<svg xmlns:xlink="http://www.w3.org/1999/xlink" width="1152pt" height="183.928592pt" viewBox="0 0 1152 183.928592" xmlns="http://www.w3.org/2000/svg" version="1.1">
 <metadata>
  <rdf:RDF xmlns:dc="http://purl.org/dc/elements/1.1/" xmlns:cc="http://creativecommons.org/ns#" xmlns:rdf="http://www.w3.org/1999/02/22-rdf-syntax-ns#">
   <cc:Work>
    <dc:type rdf:resource="http://purl.org/dc/dcmitype/StillImage"/>
    <dc:date>2026-01-07T02:07:12.158782</dc:date>
    <dc:format>image/svg+xml</dc:format>
    <dc:creator>
     <cc:Agent>
      <dc:title>Matplotlib v3.10.1, https://matplotlib.org/</dc:title>
     </cc:Agent>
    </dc:creator>
   </cc:Work>
  </rdf:RDF>
 </metadata>
 <defs>
  <style type="text/css">*{stroke-linejoin: round; stroke-linecap: butt}</style>
 </defs>
 <g id="figure_1">
  <g id="patch_1">
   <path d="M 0 183.928592 
L 1152 183.928592 
L 1152 0 
L 0 0 
z
" style="fill: #ffffff"/>
  </g>
  <g id="axes_1">
   <g id="patch_2">
    <path d="M 0 183.928592 
L 1152 183.928592 
L 1152 0 
L 0 0 
z
" style="fill: #212830"/>
   </g>
   <g id="patch_3">
    <path d="M 1099.482951 174.586835 
L 1078.439374 167.103048 
L 1037.849953 153.099662 
L 999.827184 139.620969 
L 918.777406 110.719436 
L 888.036643 100.015261 
L 857.321594 89.615984 
L 842.013245 84.584688 
L 841.665487 85.653341 
L 826.306976 80.707491 
L 805.854453 74.325832 
L 785.356424 68.175531 
L 764.79155 62.261682 
L 744.148406 56.591596 
L 723.423366 51.177084 
L 702.61761 46.032429 
L 681.730954 41.176964 
L 660.763963 36.624426 
L 639.715036 32.388348 
L 618.590865 28.474179 
L 597.398035 24.893014 
L 576.138288 21.653556 
L 554.79921 18.771161 
L 533.379493 16.234567 
L 511.913139 14.032402 
L 490.442584 12.182731 
L 468.976491 10.694183 
L 447.550223 9.563318 
L 426.190879 8.798612 
L 404.929468 8.411408 
L 383.782621 8.402388 
L 362.802098 8.77574 
L 342.009328 9.549633 
L 321.444219 10.720903 
L 301.157453 12.29009 
L 291.141132 13.230314 
L 281.212134 14.280119 
L 271.372962 15.436717 
L 261.634099 16.695662 
L 252.007767 18.055425 
L 242.505887 19.515998 
L 233.145863 21.076604 
L 223.943525 22.740033 
L 214.905955 24.506881 
L 206.043622 26.367087 
L 197.382536 28.306638 
L 188.951452 30.320101 
L 180.771404 32.405928 
L 172.859987 34.558222 
L 165.232413 36.76777 
L 157.899763 39.020804 
L 144.188655 43.571794 
L 137.846478 45.845461 
L 126.178029 50.369689 
L 115.792839 54.788732 
L 106.603746 59.052636 
L 98.496478 63.150615 
L 91.335003 67.109791 
L 84.988205 70.940586 
L 79.374987 74.64883 
L 74.415183 78.27097 
L 70.022281 81.795984 
L 66.140653 85.200698 
L 62.769372 88.495517 
L 59.923872 91.725311 
L 57.568837 94.916884 
L 55.640905 98.049763 
L 54.146249 101.044122 
L 53.121426 103.91616 
L 52.53547 106.703078 
L 52.363636 109.434487 
L 52.442782 110.781914 
L 52.64184 112.104852 
L 52.97301 113.401774 
L 53.450659 114.680652 
L 54.083642 115.949506 
L 54.869283 117.207969 
L 55.797139 118.447083 
L 56.862132 119.657742 
L 58.069098 120.835718 
L 59.426851 121.980746 
L 60.938312 123.092703 
L 64.4187 125.2179 
L 68.515748 127.230116 
L 73.24223 129.150246 
L 78.639497 130.982742 
L 84.776634 132.748791 
L 91.742352 134.481891 
L 99.661048 136.19375 
L 108.718728 137.895331 
L 119.12605 139.600335 
L 131.13455 141.299425 
L 144.96778 142.982837 
L 160.748727 144.604435 
L 178.416823 146.117058 
L 197.728677 147.466517 
L 218.343384 148.628992 
L 239.959894 149.59856 
L 258.585118 150.25995 
L 258.548112 151.383154 
L 285.377798 152.187948 
L 308.683695 152.747678 
L 356.386241 153.525221 
L 392.595747 154.023553 
L 490.585535 154.868855 
L 709.091344 156.265208 
L 825.194925 157.949285 
L 847.737443 158.508902 
L 892.273169 159.889153 
L 914.029033 160.778799 
L 956.65348 162.803108 
L 977.31646 164.083769 
L 1007.651372 166.164239 
L 1026.943305 167.69411 
L 1045.280375 169.318385 
L 1062.238921 171.033473 
L 1084.353711 173.621279 
L 1099.636364 175.568202 
L 1099.482951 174.586835 
L 1099.482951 174.586835 
" clip-path="url(#pc70448fedd)" style="fill: none; stroke: #ff0000; stroke-width: 0.72; stroke-linejoin: miter"/>
   </g>
   <g id="patch_4">
    <path d="M 739.427141 59.992095 
L 735.081506 58.841989 
L 736.231613 54.496354 
L 740.577247 55.646461 
L 739.427141 59.992095 
" clip-path="url(#pc70448fedd)" style="fill: none; stroke: #ff0000; stroke-width: 0.72; stroke-linejoin: miter"/>
   </g>
   <g id="patch_5">
    <path d="M 344.105675 13.94204 
L 339.616478 14.175256 
L 339.383262 9.686058 
L 343.872459 9.452842 
L 344.105675 13.94204 
" clip-path="url(#pc70448fedd)" style="fill: none; stroke: #ff0000; stroke-width: 0.72; stroke-linejoin: miter"/>
   </g>
   <g id="patch_6">
    <path d="M 164.615252 41.660115 
L 160.318297 42.980518 
L 158.997894 38.683563 
L 163.294849 37.36316 
L 164.615252 41.660115 
" clip-path="url(#pc70448fedd)" style="fill: none; stroke: #ff0000; stroke-width: 0.72; stroke-linejoin: miter"/>
   </g>
   <g id="patch_7">
    <path d="M 73.855135 85.911297 
L 72.149232 87.374757 
L 68.490581 83.109999 
L 70.196484 81.646539 
L 73.855135 85.911297 
" clip-path="url(#pc70448fedd)" style="fill: none; stroke: #ff0000; stroke-width: 0.72; stroke-linejoin: miter"/>
   </g>
   <g id="patch_8">
    <path d="M 63.198081 117.862543 
L 65.085581 119.082857 
L 62.034796 123.801606 
L 60.147296 122.581292 
L 63.198081 117.862543 
" clip-path="url(#pc70448fedd)" style="fill: none; stroke: #ff0000; stroke-width: 0.72; stroke-linejoin: miter"/>
   </g>
   <g id="patch_9">
    <path d="M 204.139903 143.345677 
L 208.62718 143.613324 
L 208.359534 148.1006 
L 203.872257 147.832954 
L 204.139903 143.345677 
" clip-path="url(#pc70448fedd)" style="fill: none; stroke: #ff0000; stroke-width: 0.72; stroke-linejoin: miter"/>
   </g>
   <g id="line2d_1">
    <path d="M 1078.406943 167.091942 
L 1078.043792 168.155463 
" clip-path="url(#pc70448fedd)" style="fill: none; stroke: #ff0000; stroke-width: 0.72; stroke-linecap: square"/>
   </g>
   <g id="line2d_2">
    <path d="M 1077.336512 171.647856 
L 1077.257207 172.768867 
" clip-path="url(#pc70448fedd)" style="fill: none; stroke: #ff0000; stroke-width: 0.72; stroke-linecap: square"/>
   </g>
   <g id="line2d_3">
    <path d="M 1057.144465 159.805692 
L 1056.780734 160.869015 
" clip-path="url(#pc70448fedd)" style="fill: none; stroke: #ff0000; stroke-width: 0.72; stroke-linecap: square"/>
   </g>
   <g id="line2d_4">
    <path d="M 1055.014007 169.142043 
L 1054.911663 170.261186 
" clip-path="url(#pc70448fedd)" style="fill: none; stroke: #ff0000; stroke-width: 0.72; stroke-linecap: square"/>
   </g>
   <g id="line2d_5">
    <path d="M 972.392258 129.800976 
L 972.020975 130.861685 
" clip-path="url(#pc70448fedd)" style="fill: none; stroke: #ff0000; stroke-width: 0.72; stroke-linecap: square"/>
   </g>
   <g id="line2d_6">
    <path d="M 965.364584 162.193986 
L 965.272576 163.314026 
" clip-path="url(#pc70448fedd)" style="fill: none; stroke: #ff0000; stroke-width: 0.72; stroke-linecap: square"/>
   </g>
   <g id="patch_10">
    <path d="M 510.501844 81.718317 
L 510.386899 77.843319 
L 510.042522 73.983716 
L 509.47008 70.154842 
L 508.671848 66.37191 
L 507.650998 62.649949 
L 506.411585 59.003746 
L 504.958532 55.447787 
L 503.297614 51.996201 
L 501.435429 48.662699 
L 499.379376 45.460527 
L 497.137622 42.402407 
L 494.719075 39.500487 
L 492.133343 36.766299 
L 489.3907 34.210703 
L 486.502041 31.843854 
L 483.478844 29.675155 
L 480.333119 27.713222 
L 477.077365 25.965851 
L 473.724516 24.439982 
L 470.287893 23.14168 
L 466.78115 22.0761 
L 463.218219 21.247478 
L 459.613256 20.659105 
L 455.980582 20.313319 
L 452.334631 20.211494 
L 448.689888 20.354034 
L 445.060833 20.740373 
L 441.461884 21.368975 
L 437.90734 22.237344 
L 434.411323 23.34203 
L 430.987723 24.678643 
L 427.650141 26.241874 
L 424.411838 28.025511 
L 421.285679 30.022469 
L 418.284085 32.224813 
L 415.41898 34.623793 
L 412.701748 37.209879 
L 410.143185 39.972796 
L 407.753454 42.901567 
L 405.542052 45.984556 
L 403.517763 49.209514 
L 401.68863 52.563629 
L 400.06192 56.033575 
L 398.644096 59.605566 
L 397.440791 63.265411 
L 396.456786 66.998568 
L 395.695989 70.790206 
L 395.161425 74.625262 
L 394.855216 78.488498 
L 394.778579 82.364567 
L 394.931819 86.238067 
L 395.314327 90.093611 
L 395.924582 93.91588 
L 396.760161 97.689688 
L 397.817744 101.400043 
L 399.093129 105.032202 
L 400.581249 108.571736 
L 402.276192 112.004582 
L 404.171223 115.317101 
L 406.258814 118.496133 
L 408.530671 121.529048 
L 410.977768 124.403795 
L 413.590383 127.108954 
L 416.358135 129.633778 
L 419.270029 131.968234 
L 422.314495 134.103048 
L 425.479438 136.029739 
L 428.752285 137.740652 
L 432.120031 139.22899 
L 435.569296 140.488839 
L 439.086378 141.515194 
L 442.657303 142.303978 
L 446.267883 142.852056 
L 449.903774 143.157251 
L 453.55053 143.218351 
L 457.193663 143.035112 
L 460.818699 142.608263 
L 464.411236 141.9395 
L 467.957001 141.03148 
L 471.441906 139.88781 
L 474.852106 138.513034 
L 478.174052 136.912613 
L 481.394546 135.092907 
L 484.500794 133.061145 
L 487.480454 130.825399 
L 490.321689 128.394552 
L 493.013209 125.778261 
L 495.544322 122.986922 
L 497.904972 120.031622 
L 500.085779 116.924105 
L 502.07808 113.676717 
L 503.873959 110.302358 
L 505.466282 106.814435 
L 506.848721 103.226807 
L 508.015784 99.553725 
L 508.962836 95.809784 
L 509.686113 92.009858 
L 510.182741 88.169043 
L 510.450748 84.302601 
L 510.501844 81.718317 
L 510.501844 81.718317 
" clip-path="url(#pc70448fedd)" style="fill: none; stroke: #ff0000; stroke-width: 0.72; stroke-linejoin: miter"/>
   </g>
   <g id="line2d_7">
    <path d="M 70.116913 81.718317 
L 829.462649 81.718317 
" clip-path="url(#pc70448fedd)" style="fill: none; stroke: #ffffff; stroke-width: 0.72; stroke-linecap: square"/>
   </g>
   <g id="line2d_8">
    <path d="M 219.626053 81.718317 
L 233.111807 81.718317 
" clip-path="url(#pc70448fedd)" style="fill: none; stroke: #ffffff; stroke-width: 0.72; stroke-linecap: square"/>
   </g>
   <g id="patch_11">
    <path d="M 226.36893 76.099253 
L 231.987994 81.718317 
L 226.36893 87.337382 
L 220.749866 81.718317 
L 226.36893 76.099253 
" clip-path="url(#pc70448fedd)" style="fill: none; stroke: #ff0000; stroke-width: 0.72; stroke-linejoin: miter"/>
   </g>
   <g id="line2d_9">
    <path d="M 443.046904 81.718317 
L 456.532658 81.718317 
" clip-path="url(#pc70448fedd)" style="fill: none; stroke: #ffffff; stroke-width: 0.72; stroke-linecap: square"/>
   </g>
   <g id="patch_12">
    <path d="M 449.789781 76.099253 
L 455.408845 81.718317 
L 449.789781 87.337382 
L 444.170717 81.718317 
L 449.789781 76.099253 
" clip-path="url(#pc70448fedd)" style="fill: none; stroke: #ff0000; stroke-width: 0.72; stroke-linejoin: miter"/>
   </g>
   <g id="line2d_10">
    <path d="M 666.467755 81.718317 
L 679.953509 81.718317 
" clip-path="url(#pc70448fedd)" style="fill: none; stroke: #ffffff; stroke-width: 0.72; stroke-linecap: square"/>
   </g>
   <g id="patch_13">
    <path d="M 673.210632 76.099253 
L 678.829696 81.718317 
L 673.210632 87.337382 
L 667.591567 81.718317 
L 673.210632 76.099253 
" clip-path="url(#pc70448fedd)" style="fill: none; stroke: #ff0000; stroke-width: 0.72; stroke-linejoin: miter"/>
   </g>
   <g id="line2d_11">
    <path d="M 52.519058 106.869898 
L 1098.657989 174.28926 
" clip-path="url(#pc70448fedd)" style="fill: none; stroke: #ffffff; stroke-width: 0.72; stroke-linecap: square"/>
   </g>
   <g id="line2d_12">
    <path d="M 259.391723 120.201993 
L 272.849559 121.069295 
" clip-path="url(#pc70448fedd)" style="fill: none; stroke: #ffffff; stroke-width: 0.72; stroke-linecap: square"/>
   </g>
   <g id="patch_14">
    <path d="M 266.482017 115.028212 
L 271.728072 120.99702 
L 265.759265 126.243075 
L 260.513209 120.274268 
L 266.482017 115.028212 
" clip-path="url(#pc70448fedd)" style="fill: none; stroke: #ff0000; stroke-width: 0.72; stroke-linejoin: miter"/>
   </g>
   <g id="line2d_13">
    <path d="M 517.281625 136.821939 
L 530.739461 137.689241 
" clip-path="url(#pc70448fedd)" style="fill: none; stroke: #ffffff; stroke-width: 0.72; stroke-linecap: square"/>
   </g>
   <g id="patch_15">
    <path d="M 524.371919 131.648158 
L 529.617975 137.616966 
L 523.649167 142.863021 
L 518.403112 136.894214 
L 524.371919 131.648158 
" clip-path="url(#pc70448fedd)" style="fill: none; stroke: #ff0000; stroke-width: 0.72; stroke-linejoin: miter"/>
   </g>
   <g id="line2d_14">
    <path d="M 452.638614 20.210645 
L 452.638614 19.086832 
" clip-path="url(#pc70448fedd)" style="fill: none; stroke: #ff0000; stroke-width: 0.72; stroke-linecap: square"/>
   </g>
   <g id="line2d_15">
    <path d="M 452.638614 143.22599 
L 452.638614 144.349802 
" clip-path="url(#pc70448fedd)" style="fill: none; stroke: #ff0000; stroke-width: 0.72; stroke-linecap: square"/>
   </g>
   <g id="line2d_16">
    <path d="M 510.501844 81.718317 
L 511.625656 81.718317 
" clip-path="url(#pc70448fedd)" style="fill: none; stroke: #ff0000; stroke-width: 0.72; stroke-linecap: square"/>
   </g>
   <g id="line2d_17">
    <path d="M 394.775385 81.718317 
L 393.651572 81.718317 
" clip-path="url(#pc70448fedd)" style="fill: none; stroke: #ff0000; stroke-width: 0.72; stroke-linecap: square"/>
   </g>
   <g id="line2d_18">
    <path d="M 284.066689 152.150348 
L 284.066689 13.978303 
" clip-path="url(#pc70448fedd)" style="fill: none; stroke: #ffffff; stroke-width: 0.72; stroke-linecap: square"/>
   </g>
   <g id="line2d_19">
    <path d="M 284.066689 108.341574 
L 284.066689 94.85582 
" clip-path="url(#pc70448fedd)" style="fill: none; stroke: #ffffff; stroke-width: 0.72; stroke-linecap: square"/>
   </g>
   <g id="patch_16">
    <path d="M 278.447625 101.598697 
L 284.066689 95.979633 
L 289.685753 101.598697 
L 284.066689 107.217761 
L 278.447625 101.598697 
" clip-path="url(#pc70448fedd)" style="fill: none; stroke: #ff0000; stroke-width: 0.72; stroke-linejoin: miter"/>
   </g>
   <g id="line2d_20">
    <path d="M 284.066689 71.272831 
L 284.066689 57.787077 
" clip-path="url(#pc70448fedd)" style="fill: none; stroke: #ffffff; stroke-width: 0.72; stroke-linecap: square"/>
   </g>
   <g id="patch_17">
    <path d="M 278.447625 64.529954 
L 284.066689 58.91089 
L 289.685753 64.529954 
L 284.066689 70.149018 
L 278.447625 64.529954 
" clip-path="url(#pc70448fedd)" style="fill: none; stroke: #ff0000; stroke-width: 0.72; stroke-linejoin: miter"/>
   </g>
   <g id="line2d_21">
    <path d="M 789.782465 157.319679 
L 789.782465 69.489894 
" clip-path="url(#pc70448fedd)" style="fill: none; stroke: #ffffff; stroke-width: 0.72; stroke-linecap: square"/>
   </g>
   <g id="line2d_22">
    <path d="M 789.782465 131.130696 
L 789.782465 117.644942 
" clip-path="url(#pc70448fedd)" style="fill: none; stroke: #ffffff; stroke-width: 0.72; stroke-linecap: square"/>
   </g>
   <g id="patch_18">
    <path d="M 784.163401 124.387819 
L 789.782465 118.768755 
L 795.401529 124.387819 
L 789.782465 130.006883 
L 784.163401 124.387819 
" clip-path="url(#pc70448fedd)" style="fill: none; stroke: #ff0000; stroke-width: 0.72; stroke-linejoin: miter"/>
   </g>
   <g id="line2d_23">
    <path d="M 789.782465 109.164631 
L 789.782465 95.678877 
" clip-path="url(#pc70448fedd)" style="fill: none; stroke: #ffffff; stroke-width: 0.72; stroke-linecap: square"/>
   </g>
   <g id="patch_19">
    <path d="M 784.163401 102.421754 
L 789.782465 96.80269 
L 795.401529 102.421754 
L 789.782465 108.040818 
L 784.163401 102.421754 
" clip-path="url(#pc70448fedd)" style="fill: none; stroke: #ff0000; stroke-width: 0.72; stroke-linejoin: miter"/>
   </g>
   <g id="patch_20">
    <path d="M 347.532655 123.033169 
L 353.151719 123.033169 
L 353.151719 128.652233 
L 347.532655 128.652233 
L 347.532655 134.271297 
L 353.151719 134.271297 
" clip-path="url(#pc70448fedd)" style="fill: none; stroke: #ff0000; stroke-width: 0.72; stroke-linejoin: miter"/>
   </g>
   <g id="patch_21">
    <path d="M 361.580316 128.652233 
L 359.33269 128.652233 
" clip-path="url(#pc70448fedd)" style="fill: none; stroke: #ff0000; stroke-width: 0.72; stroke-linejoin: miter"/>
   </g>
   <g id="patch_22">
    <path d="M 358.208877 128.652233 
L 355.961251 128.652233 
L 355.961251 123.033169 
L 358.208877 123.033169 
" clip-path="url(#pc70448fedd)" style="fill: none; stroke: #ff0000; stroke-width: 0.72; stroke-linejoin: miter"/>
   </g>
   <g id="patch_23">
    <path d="M 359.33269 123.033169 
L 361.580316 123.033169 
L 361.580316 134.271297 
L 359.33269 134.271297 
" clip-path="url(#pc70448fedd)" style="fill: none; stroke: #ff0000; stroke-width: 0.72; stroke-linejoin: miter"/>
   </g>
   <g id="patch_24">
    <path d="M 358.208877 134.271297 
L 355.961251 134.271297 
" clip-path="url(#pc70448fedd)" style="fill: none; stroke: #ff0000; stroke-width: 0.72; stroke-linejoin: miter"/>
   </g>
  </g>
 </g>
 <defs>
  <clipPath id="pc70448fedd">
   <rect x="0" y="0" width="1152" height="183.928592"/>
  </clipPath>
 </defs>
</svg>
