  0
SECTION
  2
HEADER
  9
$ACADVER
  1
AC1021
  9
$ACADMAINTVER
 70
25
  9
$DWGCODEPAGE
  3
ANSI_1252
  9
$LASTSAVEDBY
  1
ezdxf
  9
$INSBASE
 10
0.0
 20
0.0
 30
0.0
  9
$EXTMIN
 10
1e+20
 20
1e+20
 30
1e+20
  9
$EXTMAX
 10
-1e+20
 20
-1e+20
 30
-1e+20
  9
$LIMMIN
 10
0.0
 20
0.0
  9
$LIMMAX
 10
420.0
 20
297.0
  9
$ORTHOMODE
 70
0
  9
$REGENMODE
 70
1
  9
$FILLMODE
 70
1
  9
$QTEXTMODE
 70
0
  9
$MIRRTEXT
 70
1
  9
$LTSCALE
 40
1.0
  9
$ATTMODE
 70
1
  9
$TEXTSIZE
 40
2.5
  9
$TRACEWID
 40
1.0
  9
$TEXTSTYLE
  7
OpenSans
  9
$CLAYER
  8
0
  9
$CELTYPE
  6
ByLayer
  9
$CECOLOR
 62
256
  9
$CELTSCALE
 40
1.0
  9
$DISPSILH
 70
0
  9
$DIMSCALE
 40
1.0
  9
$DIMASZ
 40
0.175
  9
$DIMEXO
 40
0.125
  9
$DIMDLI
 40
3.75
  9
$DIMRND
 40
0.0
  9
$DIMDLE
 40
0.0
  9
$DIMEXE
 40
0.375
  9
$DIMTP
 40
0.0
  9
$DIMTM
 40
0.0
  9
$DIMTXT
 40
0.25
  9
$DIMCEN
 40
2.5
  9
$DIMTSZ
 40
0.0
  9
$DIMTOL
 70
0
  9
$DIMLIM
 70
0
  9
$DIMTIH
 70
0
  9
$DIMTOH
 70
0
  9
$DIMSE1
 70
0
  9
$DIMSE2
 70
0
  9
$DIMTAD
 70
1
  9
$DIMZIN
 70
12
  9
$DIMBLK
  1
ARCHTICK
  9
$DIMASO
 70
1
  9
$DIMSHO
 70
1
  9
$DIMPOST
  1

  9
$DIMAPOST
  1

  9
$DIMALT
 70
0
  9
$DIMALTD
 70
3
  9
$DIMALTF
 40
0.03937007874
  9
$DIMLFAC
 40
100.0
  9
$DIMTOFL
 70
1
  9
$DIMTVP
 40
0.0
  9
$DIMTIX
 70
0
  9
$DIMSOXD
 70
0
  9
$DIMSAH
 70
0
  9
$DIMBLK1
  1

  9
$DIMBLK2
  1

  9
$DIMSTYLE
  2
EZDXF
  9
$DIMCLRD
 70
0
  9
$DIMCLRE
 70
0
  9
$DIMCLRT
 70
0
  9
$DIMTFAC
 40
0.5
  9
$DIMGAP
 40
0.1
  9
$DIMJUST
 70
0
  9
$DIMSD1
 70
0
  9
$DIMSD2
 70
0
  9
$DIMTOLJ
 70
0
  9
$DIMTZIN
 70
8
  9
$DIMALTZ
 70
0
  9
$DIMALTTZ
 70
0
  9
$DIMUPT
 70
1
  9
$DIMDEC
 70
2
  9
$DIMTDEC
 70
2
  9
$DIMALTU
 70
2
  9
$DIMALTTD
 70
3
  9
$DIMTXSTY
  7
OpenSansCondensed-Light
  9
$DIMAUNIT
 70
0
  9
$DIMADEC
 70
2
  9
$DIMALTRND
 40
0.0
  9
$DIMAZIN
 70
3
  9
$DIMDSEP
 70
46
  9
$DIMATFIT
 70
3
  9
$DIMFRAC
 70
0
  9
$DIMLDRBLK
  1

  9
$DIMLUNIT
 70
2
  9
$DIMLWD
 70
-2
  9
$DIMLWE
 70
-2
  9
$DIMTMOVE
 70
2
  9
$DIMFXL
 40
1.0
  9
$DIMFXLON
 70
0
  9
$DIMJOGANG
 40
0.785398163397
  9
$DIMTFILL
 70
0
  9
$DIMTFILLCLR
 70
0
  9
$DIMARCSYM
 70
0
  9
$DIMLTYPE
  6

  9
$DIMLTEX1
  6

  9
$DIMLTEX2
  6

  9
$LUNITS
 70
2
  9
$LUPREC
 70
4
  9
$SKETCHINC
 40
1.0
  9
$FILLETRAD
 40
10.0
  9
$AUNITS
 70
0
  9
$AUPREC
 70
2
  9
$MENU
  1
.
  9
$ELEVATION
 40
0.0
  9
$PELEVATION
 40
0.0
  9
$THICKNESS
 40
0.0
  9
$LIMCHECK
 70
0
  9
$CHAMFERA
 40
0.0
  9
$CHAMFERB
 40
0.0
  9
$CHAMFERC
 40
0.0
  9
$CHAMFERD
 40
0.0
  9
$SKPOLY
 70
0
  9
$TDCREATE
 40
2461048.0883564814
  9
$TDUCREATE
 40
2458532.153996898
  9
$TDUPDATE
 40
2461048.0883564814
  9
$TDUUPDATE
 40
2458532.1544311
  9
$TDINDWG
 40
0.0
  9
$TDUSRTIMER
 40
0.0
  9
$USRTIMER
 70
1
  9
$ANGBASE
 50
0.0
  9
$ANGDIR
 70
0
  9
$PDMODE
 70
0
  9
$PDSIZE
 40
0.0
  9
$PLINEWID
 40
0.0
  9
$SPLFRAME
 70
0
  9
$SPLINETYPE
 70
6
  9
$SPLINESEGS
 70
8
  9
$HANDSEED
  5
BB
  9
$SURFTAB1
 70
6
  9
$SURFTAB2
 70
6
  9
$SURFTYPE
 70
6
  9
$SURFU
 70
6
  9
$SURFV
 70
6
  9
$UCSBASE
  2

  9
$UCSNAME
  2

  9
$UCSORG
 10
0.0
 20
0.0
 30
0.0
  9
$UCSXDIR
 10
1.0
 20
0.0
 30
0.0
  9
$UCSYDIR
 10
0.0
 20
1.0
 30
0.0
  9
$UCSORTHOREF
  2

  9
$UCSORTHOVIEW
 70
0
  9
$UCSORGTOP
 10
0.0
 20
0.0
 30
0.0
  9
$UCSORGBOTTOM
 10
0.0
 20
0.0
 30
0.0
  9
$UCSORGLEFT
 10
0.0
 20
0.0
 30
0.0
  9
$UCSORGRIGHT
 10
0.0
 20
0.0
 30
0.0
  9
$UCSORGFRONT
 10
0.0
 20
0.0
 30
0.0
  9
$UCSORGBACK
 10
0.0
 20
0.0
 30
0.0
  9
$PUCSBASE
  2

  9
$PUCSNAME
  2

  9
$PUCSORG
 10
0.0
 20
0.0
 30
0.0
  9
$PUCSXDIR
 10
1.0
 20
0.0
 30
0.0
  9
$PUCSYDIR
 10
0.0
 20
1.0
 30
0.0
  9
$PUCSORTHOREF
  2

  9
$PUCSORTHOVIEW
 70
0
  9
$PUCSORGTOP
 10
0.0
 20
0.0
 30
0.0
  9
$PUCSORGBOTTOM
 10
0.0
 20
0.0
 30
0.0
  9
$PUCSORGLEFT
 10
0.0
 20
0.0
 30
0.0
  9
$PUCSORGRIGHT
 10
0.0
 20
0.0
 30
0.0
  9
$PUCSORGFRONT
 10
0.0
 20
0.0
 30
0.0
  9
$PUCSORGBACK
 10
0.0
 20
0.0
 30
0.0
  9
$USERI1
 70
0
  9
$USERI2
 70
0
  9
$USERI3
 70
0
  9
$USERI4
 70
0
  9
$USERI5
 70
0
  9
$USERR1
 40
0.0
  9
$USERR2
 40
0.0
  9
$USERR3
 40
0.0
  9
$USERR4
 40
0.0
  9
$USERR5
 40
0.0
  9
$WORLDVIEW
 70
1
  9
$SHADEDGE
 70
3
  9
$SHADEDIF
 70
70
  9
$TILEMODE
 70
1
  9
$MAXACTVP
 70
64
  9
$PINSBASE
 10
0.0
 20
0.0
 30
0.0
  9
$PLIMCHECK
 70
0
  9
$PEXTMIN
 10
1e+20
 20
1e+20
 30
1e+20
  9
$PEXTMAX
 10
-1e+20
 20
-1e+20
 30
-1e+20
  9
$PLIMMIN
 10
0.0
 20
0.0
  9
$PLIMMAX
 10
420.0
 20
297.0
  9
$UNITMODE
 70
0
  9
$VISRETAIN
 70
1
  9
$PLINEGEN
 70
0
  9
$PSLTSCALE
 70
1
  9
$TREEDEPTH
 70
3020
  9
$CMLSTYLE
  2
Standard
  9
$CMLJUST
 70
0
  9
$CMLSCALE
 40
20.0
  9
$PROXYGRAPHICS
 70
1
  9
$MEASUREMENT
 70
1
  9
$CELWEIGHT
370
-1
  9
$ENDCAPS
280
0
  9
$JOINSTYLE
280
0
  9
$LWDISPLAY
290
0
  9
$INSUNITS
 70
6
  9
$HYPERLINKBASE
  1

  9
$STYLESHEET
  1

  9
$XEDIT
290
1
  9
$CEPSNTYPE
380
0
  9
$PSTYLEMODE
290
1
  9
$FINGERPRINTGUID
  2
{8492504D-A0F7-4974-A8FB-AF164F2E0347}
  9
$VERSIONGUID
  2
{4E0C146E-6C63-434D-87E6-D656035678B7}
  9
$EXTNAMES
290
1
  9
$PSVPSCALE
 40
0.0
  9
$OLESTARTUP
290
0
  9
$SORTENTS
280
127
  9
$INDEXCTL
280
0
  9
$HIDETEXT
280
1
  9
$XCLIPFRAME
290
1
  9
$HALOGAP
280
0
  9
$OBSCOLOR
 70
257
  9
$OBSLTYPE
280
0
  9
$INTERSECTIONDISPLAY
280
0
  9
$INTERSECTIONCOLOR
 70
257
  9
$DIMASSOC
280
2
  9
$PROJECTNAME
  1

  9
$CAMERADISPLAY
290
0
  9
$LENSLENGTH
 40
50.0
  9
$CAMERAHEIGHT
 40
0.0
  9
$STEPSPERSEC
 40
24.0
  9
$STEPSIZE
 40
100.0
  9
$3DDWFPREC
 40
2.0
  9
$PSOLWIDTH
 40
0.005
  9
$PSOLHEIGHT
 40
0.08
  9
$LOFTANG1
 40
1.570796326795
  9
$LOFTANG2
 40
1.570796326795
  9
$LOFTMAG1
 40
0.0
  9
$LOFTMAG2
 40
0.0
  9
$LOFTPARAM
 70
7
  9
$LOFTNORMALS
280
1
  9
$LATITUDE
 40
37.795
  9
$LONGITUDE
 40
-122.394
  9
$NORTHDIRECTION
 40
0.0
  9
$TIMEZONE
 70
-8000
  9
$LIGHTGLYPHDISPLAY
280
1
  9
$TILEMODELIGHTSYNCH
280
1
  9
$CMATERIAL
347
20
  9
$SOLIDHIST
280
0
  9
$SHOWHIST
280
1
  9
$DWFFRAME
280
2
  9
$DGNFRAME
280
2
  9
$REALWORLDSCALE
290
1
  9
$INTERFERECOLOR
 62
256
  9
$CSHADOW
280
0
  9
$SHADOWPLANELOCATION
 40
0.0
  0
ENDSEC
  0
SECTION
  2
CLASSES
  0
CLASS
  1
ACDBDICTIONARYWDFLT
  2
AcDbDictionaryWithDefault
  3
ObjectDBX Classes
 90
0
 91
0
280
0
281
0
  0
CLASS
  1
SUN
  2
AcDbSun
  3
SCENEOE
 90
1153
 91
0
280
0
281
0
  0
CLASS
  1
VISUALSTYLE
  2
AcDbVisualStyle
  3
ObjectDBX Classes
 90
4095
 91
0
280
0
281
0
  0
CLASS
  1
MATERIAL
  2
AcDbMaterial
  3
ObjectDBX Classes
 90
1153
 91
0
280
0
281
0
  0
CLASS
  1
SCALE
  2
AcDbScale
  3
ObjectDBX Classes
 90
1153
 91
0
280
0
281
0
  0
CLASS
  1
TABLESTYLE
  2
AcDbTableStyle
  3
ObjectDBX Classes
 90
4095
 91
0
280
0
281
0
  0
CLASS
  1
MLEADERSTYLE
  2
AcDbMLeaderStyle
  3
ACDB_MLEADERSTYLE_CLASS
 90
4095
 91
0
280
0
281
0
  0
CLASS
  1
DICTIONARYVAR
  2
AcDbDictionaryVar
  3
ObjectDBX Classes
 90
0
 91
0
280
0
281
0
  0
CLASS
  1
CELLSTYLEMAP
  2
AcDbCellStyleMap
  3
ObjectDBX Classes
 90
1152
 91
0
280
0
281
0
  0
CLASS
  1
MENTALRAYRENDERSETTINGS
  2
AcDbMentalRayRenderSettings
  3
SCENEOE
 90
1024
 91
0
280
0
281
0
  0
CLASS
  1
ACDBDETAILVIEWSTYLE
  2
AcDbDetailViewStyle
  3
ObjectDBX Classes
 90
1025
 91
0
280
0
281
0
  0
CLASS
  1
ACDBSECTIONVIEWSTYLE
  2
AcDbSectionViewStyle
  3
ObjectDBX Classes
 90
1025
 91
0
280
0
281
0
  0
CLASS
  1
RASTERVARIABLES
  2
AcDbRasterVariables
  3
ISM
 90
0
 91
0
280
0
281
0
  0
CLASS
  1
ACDBPLACEHOLDER
  2
AcDbPlaceHolder
  3
ObjectDBX Classes
 90
0
 91
0
280
0
281
0
  0
CLASS
  1
LAYOUT
  2
AcDbLayout
  3
ObjectDBX Classes
 90
0
 91
0
280
0
281
0
  0
ENDSEC
  0
SECTION
  2
TABLES
  0
TABLE
  2
VPORT
  5
8
330
0
100
AcDbSymbolTable
 70
1
  0
VPORT
  5
23
330
8
100
AcDbSymbolTableRecord
100
AcDbViewportTableRecord
  2
*Active
 70
0
 10
0.0
 20
0.0
 11
1.0
 21
1.0
 12
0.0
 22
0.0
 13
0.0
 23
0.0
 14
0.5
 24
0.5
 15
0.5
 25
0.5
 16
0.0
 26
0.0
 36
1.0
 17
0.0
 27
0.0
 37
0.0
 40
1000.0
 41
1.34
 42
50.0
 43
0.0
 44
0.0
 50
0.0
 51
0.0
 71
0
 72
1000
 73
1
 74
3
 75
0
 76
0
 77
0
 78
0
281
0
 65
0
146
0.0
  0
ENDTAB
  0
TABLE
  2
LTYPE
  5
2
330
0
100
AcDbSymbolTable
 70
21
  0
LTYPE
  5
24
330
2
100
AcDbSymbolTableRecord
100
AcDbLinetypeTableRecord
  2
ByBlock
 70
0
  3

 72
65
 73
0
 40
0.0
  0
LTYPE
  5
25
330
2
100
AcDbSymbolTableRecord
100
AcDbLinetypeTableRecord
  2
ByLayer
 70
0
  3

 72
65
 73
0
 40
0.0
  0
LTYPE
  5
26
330
2
100
AcDbSymbolTableRecord
100
AcDbLinetypeTableRecord
  2
Continuous
 70
0
  3

 72
65
 73
0
 40
0.0
  0
LTYPE
  5
2F
330
2
100
AcDbSymbolTableRecord
100
AcDbLinetypeTableRecord
  2
CENTER
 70
0
  3
Center ____ _ ____ _ ____ _ ____ _ ____ _ ____
 72
65
 73
4
 40
5.08
 49
3.175
 74
0
 49
-0.635
 74
0
 49
0.635
 74
0
 49
-0.635
 74
0
  0
LTYPE
  5
30
330
2
100
AcDbSymbolTableRecord
100
AcDbLinetypeTableRecord
  2
CENTERX2
 70
0
  3
Center (2x) ________  __  ________  __  ________
 72
65
 73
4
 40
8.89
 49
6.35
 74
0
 49
-0.635
 74
0
 49
1.27
 74
0
 49
-0.635
 74
0
  0
LTYPE
  5
31
330
2
100
AcDbSymbolTableRecord
100
AcDbLinetypeTableRecord
  2
CENTER2
 70
0
  3
Center (.5x) ____ _ ____ _ ____ _ ____ _ ____
 72
65
 73
4
 40
2.54
 49
1.587
 74
0
 49
-0.318
 74
0
 49
0.318
 74
0
 49
-0.318
 74
0
  0
LTYPE
  5
32
330
2
100
AcDbSymbolTableRecord
100
AcDbLinetypeTableRecord
  2
DASHED
 70
0
  3
Dashed __ __ __ __ __ __ __ __ __ __ __ __ __ _
 72
65
 73
2
 40
1.524
 49
1.27
 74
0
 49
-0.254
 74
0
  0
LTYPE
  5
33
330
2
100
AcDbSymbolTableRecord
100
AcDbLinetypeTableRecord
  2
DASHEDX2
 70
0
  3
Dashed (2x) ____  ____  ____  ____  ____  ____
 72
65
 73
2
 40
3.048
 49
2.54
 74
0
 49
-0.508
 74
0
  0
LTYPE
  5
34
330
2
100
AcDbSymbolTableRecord
100
AcDbLinetypeTableRecord
  2
DASHED2
 70
0
  3
Dashed (.5x) _ _ _ _ _ _ _ _ _ _ _ _ _ _
 72
65
 73
2
 40
0.762
 49
0.635
 74
0
 49
-0.127
 74
0
  0
LTYPE
  5
35
330
2
100
AcDbSymbolTableRecord
100
AcDbLinetypeTableRecord
  2
PHANTOM
 70
0
  3
Phantom ______  __  __  ______  __  __  ______
 72
65
 73
6
 40
6.35
 49
3.175
 74
0
 49
-0.635
 74
0
 49
0.635
 74
0
 49
-0.635
 74
0
 49
0.635
 74
0
 49
-0.635
 74
0
  0
LTYPE
  5
36
330
2
100
AcDbSymbolTableRecord
100
AcDbLinetypeTableRecord
  2
PHANTOMX2
 70
0
  3
Phantom (2x)____________    ____    ____    ____________
 72
65
 73
6
 40
10.795
 49
6.35
 74
0
 49
-0.635
 74
0
 49
1.27
 74
0
 49
-0.635
 74
0
 49
1.27
 74
0
 49
-0.635
 74
0
  0
LTYPE
  5
37
330
2
100
AcDbSymbolTableRecord
100
AcDbLinetypeTableRecord
  2
PHANTOM2
 70
0
  3
Phantom (.5x) ___ _ _ ___ _ _ ___ _ _ ___ _ _ ___
 72
65
 73
6
 40
3.175
 49
1.587
 74
0
 49
-0.318
 74
0
 49
0.318
 74
0
 49
-0.318
 74
0
 49
0.318
 74
0
 49
-0.318
 74
0
  0
LTYPE
  5
38
330
2
100
AcDbSymbolTableRecord
100
AcDbLinetypeTableRecord
  2
DASHDOT
 70
0
  3
Dash dot __ . __ . __ . __ . __ . __ . __ . __
 72
65
 73
4
 40
3.556
 49
2.54
 74
0
 49
-0.508
 74
0
 49
0.0
 74
0
 49
-0.508
 74
0
  0
LTYPE
  5
39
330
2
100
AcDbSymbolTableRecord
100
AcDbLinetypeTableRecord
  2
DASHDOTX2
 70
0
  3
Dash dot (2x) ____  .  ____  .  ____  .  ____
 72
65
 73
4
 40
6.096
 49
5.08
 74
0
 49
-0.508
 74
0
 49
0.0
 74
0
 49
-0.508
 74
0
  0
LTYPE
  5
3A
330
2
100
AcDbSymbolTableRecord
100
AcDbLinetypeTableRecord
  2
DASHDOT2
 70
0
  3
Dash dot (.5x) _ . _ . _ . _ . _ . _ . _ . _
 72
65
 73
4
 40
1.778
 49
1.27
 74
0
 49
-0.254
 74
0
 49
0.0
 74
0
 49
-0.254
 74
0
  0
LTYPE
  5
3B
330
2
100
AcDbSymbolTableRecord
100
AcDbLinetypeTableRecord
  2
DOT
 70
0
  3
Dot .  .  .  .  .  .  .  .  .  .  .  .  .  .  .  .
 72
65
 73
2
 40
0.508
 49
0.0
 74
0
 49
-0.508
 74
0
  0
LTYPE
  5
3C
330
2
100
AcDbSymbolTableRecord
100
AcDbLinetypeTableRecord
  2
DOTX2
 70
0
  3
Dot (2x) .    .    .    .    .    .    .    . 
 72
65
 73
2
 40
1.016
 49
0.0
 74
0
 49
-1.016
 74
0
  0
LTYPE
  5
3D
330
2
100
AcDbSymbolTableRecord
100
AcDbLinetypeTableRecord
  2
DOT2
 70
0
  3
Dot (.5) . . . . . . . . . . . . . . . . . . . 
 72
65
 73
2
 40
0.254
 49
0.0
 74
0
 49
-0.254
 74
0
  0
LTYPE
  5
3E
330
2
100
AcDbSymbolTableRecord
100
AcDbLinetypeTableRecord
  2
DIVIDE
 70
0
  3
Divide __ . . __ . . __ . . __ . . __ . . __
 72
65
 73
6
 40
4.064
 49
2.54
 74
0
 49
-0.508
 74
0
 49
0.0
 74
0
 49
-0.508
 74
0
 49
0.0
 74
0
 49
-0.508
 74
0
  0
LTYPE
  5
3F
330
2
100
AcDbSymbolTableRecord
100
AcDbLinetypeTableRecord
  2
DIVIDEX2
 70
0
  3
Divide (2x) ____  . .  ____  . .  ____  . .  ____
 72
65
 73
6
 40
6.604
 49
5.08
 74
0
 49
-0.508
 74
0
 49
0.0
 74
0
 49
-0.508
 74
0
 49
0.0
 74
0
 49
-0.508
 74
0
  0
LTYPE
  5
40
330
2
100
AcDbSymbolTableRecord
100
AcDbLinetypeTableRecord
  2
DIVIDE2
 70
0
  3
Divide(.5x) _ . _ . _ . _ . _ . _ . _ . _
 72
65
 73
6
 40
2.032
 49
1.27
 74
0
 49
-0.254
 74
0
 49
0.0
 74
0
 49
-0.254
 74
0
 49
0.0
 74
0
 49
-0.254
 74
0
  0
ENDTAB
  0
TABLE
  2
LAYER
  5
1
330
0
100
AcDbSymbolTable
 70
5
  0
LAYER
  5
27
330
1
100
AcDbSymbolTableRecord
100
AcDbLayerTableRecord
  2
0
 70
0
 62
7
  6
Continuous
370
-3
390
13
347
21
  0
LAYER
  5
28
330
1
100
AcDbSymbolTableRecord
100
AcDbLayerTableRecord
  2
Defpoints
 70
0
 62
7
  6
Continuous
290
0
370
-3
390
13
347
21
  0
LAYER
  5
8A
330
1
100
AcDbSymbolTableRecord
100
AcDbLayerTableRecord
  2
Layer
 70
0
 62
1
  6
Continuous
370
50
390
13
347
21
  0
LAYER
  5
8B
330
1
100
AcDbSymbolTableRecord
100
AcDbLayerTableRecord
  2
NumLabel
 70
0
 62
1
  6
Continuous
370
15
390
13
347
21
  0
LAYER
  5
B9
330
1
100
AcDbSymbolTableRecord
100
AcDbLayerTableRecord
  2
SplitMark
 70
0
 62
3
  6
Continuous
370
-3
390
13
347
21
  0
ENDTAB
  0
TABLE
  2
STYLE
  5
5
330
0
100
AcDbSymbolTable
 70
26
  0
STYLE
  5
29
330
5
100
AcDbSymbolTableRecord
100
AcDbTextStyleTableRecord
  2
Standard
 70
0
 40
0.0
 41
1.0
 50
0.0
 71
0
 42
2.5
  3
txt
  4

  0
STYLE
  5
41
330
5
100
AcDbSymbolTableRecord
100
AcDbTextStyleTableRecord
  2
OpenSans-Light
 70
0
 40
0.0
 41
1.0
 50
0.0
 71
0
 42
2.5
  3
OpenSans-Light.ttf
  4

  0
STYLE
  5
42
330
5
100
AcDbSymbolTableRecord
100
AcDbTextStyleTableRecord
  2
OpenSans-Light-Italic
 70
0
 40
0.0
 41
1.0
 50
0.0
 71
0
 42
2.5
  3
OpenSans-LightItalic.ttf
  4

  0
STYLE
  5
43
330
5
100
AcDbSymbolTableRecord
100
AcDbTextStyleTableRecord
  2
OpenSans
 70
0
 40
0.0
 41
1.0
 50
0.0
 71
0
 42
2.5
  3
OpenSans-Regular.ttf
  4

  0
STYLE
  5
44
330
5
100
AcDbSymbolTableRecord
100
AcDbTextStyleTableRecord
  2
OpenSans-Italic
 70
0
 40
0.0
 41
1.0
 50
0.0
 71
0
 42
2.5
  3
OpenSans-Italic.ttf
  4

  0
STYLE
  5
45
330
5
100
AcDbSymbolTableRecord
100
AcDbTextStyleTableRecord
  2
OpenSans-SemiBold
 70
0
 40
0.0
 41
1.0
 50
0.0
 71
0
 42
2.5
  3
OpenSans-SemiBold.ttf
  4

  0
STYLE
  5
46
330
5
100
AcDbSymbolTableRecord
100
AcDbTextStyleTableRecord
  2
OpenSans-SemiBoldItalic
 70
0
 40
0.0
 41
1.0
 50
0.0
 71
0
 42
2.5
  3
OpenSans-SemiBoldItalic.ttf
  4

  0
STYLE
  5
47
330
5
100
AcDbSymbolTableRecord
100
AcDbTextStyleTableRecord
  2
OpenSans-Bold
 70
0
 40
0.0
 41
1.0
 50
0.0
 71
0
 42
2.5
  3
OpenSans-Bold.ttf
  4

  0
STYLE
  5
48
330
5
100
AcDbSymbolTableRecord
100
AcDbTextStyleTableRecord
  2
OpenSans-BoldItalic
 70
0
 40
0.0
 41
1.0
 50
0.0
 71
0
 42
2.5
  3
OpenSans-BoldItalic.ttf
  4

  0
STYLE
  5
49
330
5
100
AcDbSymbolTableRecord
100
AcDbTextStyleTableRecord
  2
OpenSans-ExtraBold
 70
0
 40
0.0
 41
1.0
 50
0.0
 71
0
 42
2.5
  3
OpenSans-ExtraBold.ttf
  4

  0
STYLE
  5
4A
330
5
100
AcDbSymbolTableRecord
100
AcDbTextStyleTableRecord
  2
OpenSans-ExtraBoldItalic
 70
0
 40
0.0
 41
1.0
 50
0.0
 71
0
 42
2.5
  3
OpenSans-ExtraBoldItalic.ttf
  4

  0
STYLE
  5
4B
330
5
100
AcDbSymbolTableRecord
100
AcDbTextStyleTableRecord
  2
OpenSansCondensed-Bold
 70
0
 40
0.0
 41
1.0
 50
0.0
 71
0
 42
2.5
  3
OpenSansCondensed-Bold.ttf
  4

  0
STYLE
  5
4C
330
5
100
AcDbSymbolTableRecord
100
AcDbTextStyleTableRecord
  2
OpenSansCondensed-Light
 70
0
 40
0.0
 41
1.0
 50
0.0
 71
0
 42
2.5
  3
OpenSansCondensed-Light.ttf
  4

  0
STYLE
  5
4D
330
5
100
AcDbSymbolTableRecord
100
AcDbTextStyleTableRecord
  2
OpenSansCondensed-Italic
 70
0
 40
0.0
 41
1.0
 50
0.0
 71
0
 42
2.5
  3
OpenSansCondensed-LightItalic.ttf
  4

  0
STYLE
  5
4E
330
5
100
AcDbSymbolTableRecord
100
AcDbTextStyleTableRecord
  2
LiberationSans
 70
0
 40
0.0
 41
1.0
 50
0.0
 71
0
 42
2.5
  3
LiberationSans-Regular.ttf
  4

  0
STYLE
  5
4F
330
5
100
AcDbSymbolTableRecord
100
AcDbTextStyleTableRecord
  2
LiberationSans-Bold
 70
0
 40
0.0
 41
1.0
 50
0.0
 71
0
 42
2.5
  3
LiberationSans-Bold.ttf
  4

  0
STYLE
  5
50
330
5
100
AcDbSymbolTableRecord
100
AcDbTextStyleTableRecord
  2
LiberationSans-BoldItalic
 70
0
 40
0.0
 41
1.0
 50
0.0
 71
0
 42
2.5
  3
LiberationSans-BoldItalic.ttf
  4

  0
STYLE
  5
51
330
5
100
AcDbSymbolTableRecord
100
AcDbTextStyleTableRecord
  2
LiberationSans-Italic
 70
0
 40
0.0
 41
1.0
 50
0.0
 71
0
 42
2.5
  3
LiberationSans-Italic.ttf
  4

  0
STYLE
  5
52
330
5
100
AcDbSymbolTableRecord
100
AcDbTextStyleTableRecord
  2
LiberationSerif
 70
0
 40
0.0
 41
1.0
 50
0.0
 71
0
 42
2.5
  3
LiberationSerif-Regular.ttf
  4

  0
STYLE
  5
53
330
5
100
AcDbSymbolTableRecord
100
AcDbTextStyleTableRecord
  2
LiberationSerif-Bold
 70
0
 40
0.0
 41
1.0
 50
0.0
 71
0
 42
2.5
  3
LiberationSerif-Bold.ttf
  4

  0
STYLE
  5
54
330
5
100
AcDbSymbolTableRecord
100
AcDbTextStyleTableRecord
  2
LiberationSerif-BoldItalic
 70
0
 40
0.0
 41
1.0
 50
0.0
 71
0
 42
2.5
  3
LiberationSerif-BoldItalic.ttf
  4

  0
STYLE
  5
55
330
5
100
AcDbSymbolTableRecord
100
AcDbTextStyleTableRecord
  2
LiberationSerif-Italic
 70
0
 40
0.0
 41
1.0
 50
0.0
 71
0
 42
2.5
  3
LiberationSerif-Italic.ttf
  4

  0
STYLE
  5
56
330
5
100
AcDbSymbolTableRecord
100
AcDbTextStyleTableRecord
  2
LiberationMono
 70
0
 40
0.0
 41
1.0
 50
0.0
 71
0
 42
2.5
  3
LiberationMono-Regular.ttf
  4

  0
STYLE
  5
57
330
5
100
AcDbSymbolTableRecord
100
AcDbTextStyleTableRecord
  2
LiberationMono-Bold
 70
0
 40
0.0
 41
1.0
 50
0.0
 71
0
 42
2.5
  3
LiberationMono-Bold.ttf
  4

  0
STYLE
  5
58
330
5
100
AcDbSymbolTableRecord
100
AcDbTextStyleTableRecord
  2
LiberationMono-BoldItalic
 70
0
 40
0.0
 41
1.0
 50
0.0
 71
0
 42
2.5
  3
LiberationMono-BoldItalic.ttf
  4

  0
STYLE
  5
59
330
5
100
AcDbSymbolTableRecord
100
AcDbTextStyleTableRecord
  2
LiberationMono-Italic
 70
0
 40
0.0
 41
1.0
 50
0.0
 71
0
 42
2.5
  3
LiberationMono-Italic.ttf
  4

  0
ENDTAB
  0
TABLE
  2
VIEW
  5
7
330
0
100
AcDbSymbolTable
 70
0
  0
ENDTAB
  0
TABLE
  2
UCS
  5
6
330
0
100
AcDbSymbolTable
 70
0
  0
ENDTAB
  0
TABLE
  2
APPID
  5
3
330
0
100
AcDbSymbolTable
 70
3
  0
APPID
  5
2A
330
3
100
AcDbSymbolTableRecord
100
AcDbRegAppTableRecord
  2
ACAD
 70
0
  0
APPID
  5
B6
330
3
100
AcDbSymbolTableRecord
100
AcDbRegAppTableRecord
  2
HATCHBACKGROUNDCOLOR
 70
0
  0
APPID
  5
B7
330
3
100
AcDbSymbolTableRecord
100
AcDbRegAppTableRecord
  2
EZDXF
 70
0
  0
ENDTAB
  0
TABLE
  2
DIMSTYLE
  5
4
330
0
100
AcDbSymbolTable
 70
12
100
AcDbDimStyleTable
  0
DIMSTYLE
105
2B
330
4
100
AcDbSymbolTableRecord
100
AcDbDimStyleTableRecord
  2
Standard
 70
0
 40
1.0
 41
2.5
 42
0.625
 43
3.75
 44
1.25
 45
0.0
 46
0.0
 47
0.0
 48
0.0
 49
2.5
140
2.5
141
2.5
142
0.0
143
0.03937007874
144
1.0
145
0.0
146
1.0
147
0.625
148
0.0
 69
0
 70
0
 71
0
 72
0
 73
0
 74
0
 75
0
 76
0
 77
1
 78
8
 79
3
170
0
171
3
172
1
173
0
174
0
175
0
176
0
177
0
178
0
179
2
271
2
272
2
273
2
274
3
275
0
276
0
277
2
278
44
279
0
280
0
281
0
282
0
283
0
284
8
285
0
286
0
288
0
289
3
290
0
371
-2
372
-2
  0
DIMSTYLE
105
73
330
4
100
AcDbSymbolTableRecord
100
AcDbDimStyleTableRecord
  2
EZDXF
 70
0
 40
1.0
 41
0.175
 42
0.125
 43
3.75
 44
0.375
 45
0.0
 46
0.0
 47
0.0
 48
0.0
 49
2.5
140
0.25
141
2.5
142
0.0
143
0.03937007874
144
100.0
145
0.0
146
0.5
147
0.1
148
0.0
 69
0
 70
0
 71
0
 72
0
 73
0
 74
0
 75
0
 76
0
 77
1
 78
12
 79
3
170
0
171
3
172
1
173
0
174
0
175
0
176
0
177
0
178
0
179
2
271
2
272
2
273
2
274
3
275
0
276
0
277
2
278
46
279
2
280
0
281
0
282
0
283
0
284
8
285
0
286
0
288
1
289
3
290
0
340
4C
342
74
371
-2
372
-2
  0
DIMSTYLE
105
7C
330
4
100
AcDbSymbolTableRecord
100
AcDbDimStyleTableRecord
  2
EZ_M_100_H25_CM
 70
0
 40
1.0
 41
0.25
 42
0.125
 43
3.75
 44
0.375
 45
0.0
 46
0.0
 47
0.0
 48
0.0
 49
2.5
140
0.25
141
2.5
142
0.125
143
0.03937007874
144
100.0
145
0.0
146
0.5
147
0.1
148
0.0
 69
0
 70
0
 71
0
 72
0
 73
0
 74
0
 75
0
 76
0
 77
1
 78
12
 79
3
170
0
171
3
172
1
173
0
174
0
175
0
176
0
177
0
178
0
179
2
271
2
272
2
273
2
274
3
275
0
276
0
277
2
278
46
279
2
280
0
281
0
282
0
283
0
284
8
285
0
286
0
288
1
289
3
290
0
340
4C
371
-2
372
-2
  0
DIMSTYLE
105
7D
330
4
100
AcDbSymbolTableRecord
100
AcDbDimStyleTableRecord
  2
EZ_M_50_H25_CM
 70
0
 40
1.0
 41
0.125
 42
0.0625
 43
3.75
 44
0.1875
 45
0.0
 46
0.0
 47
0.0
 48
0.0
 49
2.5
140
0.125
141
2.5
142
0.0625
143
0.03937007874
144
100.0
145
0.0
146
0.5
147
0.05
148
0.0
 69
0
 70
0
 71
0
 72
0
 73
0
 74
0
 75
0
 76
0
 77
1
 78
12
 79
3
170
0
171
3
172
1
173
0
174
0
175
0
176
0
177
0
178
0
179
2
271
2
272
2
273
2
274
3
275
0
276
0
277
2
278
46
279
2
280
0
281
0
282
0
283
0
284
8
285
0
286
0
288
1
289
3
290
0
340
4C
371
-2
372
-2
  0
DIMSTYLE
105
7E
330
4
100
AcDbSymbolTableRecord
100
AcDbDimStyleTableRecord
  2
EZ_M_25_H25_CM
 70
0
 40
1.0
 41
0.0625
 42
0.03125
 43
3.75
 44
0.09375
 45
0.0
 46
0.0
 47
0.0
 48
0.0
 49
2.5
140
0.0625
141
2.5
142
0.03125
143
0.03937007874
144
100.0
145
0.0
146
0.5
147
0.025
148
0.0
 69
0
 70
0
 71
0
 72
0
 73
0
 74
0
 75
0
 76
0
 77
1
 78
12
 79
3
170
0
171
3
172
1
173
0
174
0
175
0
176
0
177
0
178
0
179
2
271
2
272
2
273
2
274
3
275
0
276
0
277
2
278
46
279
2
280
0
281
0
282
0
283
0
284
8
285
0
286
0
288
1
289
3
290
0
340
4C
371
-2
372
-2
  0
DIMSTYLE
105
7F
330
4
100
AcDbSymbolTableRecord
100
AcDbDimStyleTableRecord
  2
EZ_M_20_H25_CM
 70
0
 40
1.0
 41
0.05
 42
0.025
 43
3.75
 44
0.07500000000000001
 45
0.0
 46
0.0
 47
0.0
 48
0.0
 49
2.5
140
0.05
141
2.5
142
0.025
143
0.03937007874
144
100.0
145
0.0
146
0.5
147
0.020000000000000004
148
0.0
 69
0
 70
0
 71
0
 72
0
 73
0
 74
0
 75
0
 76
0
 77
1
 78
12
 79
3
170
0
171
3
172
1
173
0
174
0
175
0
176
0
177
0
178
0
179
2
271
2
272
2
273
2
274
3
275
0
276
0
277
2
278
46
279
2
280
0
281
0
282
0
283
0
284
8
285
0
286
0
288
1
289
3
290
0
340
4C
371
-2
372
-2
  0
DIMSTYLE
105
80
330
4
100
AcDbSymbolTableRecord
100
AcDbDimStyleTableRecord
  2
EZ_M_10_H25_CM
 70
0
 40
1.0
 41
0.025
 42
0.0125
 43
3.75
 44
0.037500000000000006
 45
0.0
 46
0.0
 47
0.0
 48
0.0
 49
2.5
140
0.025
141
2.5
142
0.0125
143
0.03937007874
144
100.0
145
0.0
146
0.5
147
0.010000000000000002
148
0.0
 69
0
 70
0
 71
0
 72
0
 73
0
 74
0
 75
0
 76
0
 77
1
 78
12
 79
3
170
0
171
3
172
1
173
0
174
0
175
0
176
0
177
0
178
0
179
2
271
2
272
2
273
2
274
3
275
0
276
0
277
2
278
46
279
2
280
0
281
0
282
0
283
0
284
8
285
0
286
0
288
1
289
3
290
0
340
4C
371
-2
372
-2
  0
DIMSTYLE
105
81
330
4
100
AcDbSymbolTableRecord
100
AcDbDimStyleTableRecord
  2
EZ_M_5_H25_CM
 70
0
 40
1.0
 41
0.0125
 42
0.00625
 43
3.75
 44
0.018750000000000003
 45
0.0
 46
0.0
 47
0.0
 48
0.0
 49
2.5
140
0.0125
141
2.5
142
0.00625
143
0.03937007874
144
100.0
145
0.0
146
0.5
147
0.005000000000000001
148
0.0
 69
0
 70
0
 71
0
 72
0
 73
0
 74
0
 75
0
 76
0
 77
1
 78
12
 79
3
170
0
171
3
172
1
173
0
174
0
175
0
176
0
177
0
178
0
179
2
271
2
272
2
273
2
274
3
275
0
276
0
277
2
278
46
279
2
280
0
281
0
282
0
283
0
284
8
285
0
286
0
288
1
289
3
290
0
340
4C
371
-2
372
-2
  0
DIMSTYLE
105
82
330
4
100
AcDbSymbolTableRecord
100
AcDbDimStyleTableRecord
  2
EZ_M_1_H25_CM
 70
0
 40
1.0
 41
0.0025
 42
0.00125
 43
3.75
 44
0.00375
 45
0.0
 46
0.0
 47
0.0
 48
0.0
 49
2.5
140
0.0025
141
2.5
142
0.00125
143
0.03937007874
144
100.0
145
0.0
146
0.5
147
0.001
148
0.0
 69
0
 70
0
 71
0
 72
0
 73
0
 74
0
 75
0
 76
0
 77
1
 78
12
 79
3
170
0
171
3
172
1
173
0
174
0
175
0
176
0
177
0
178
0
179
2
271
2
272
2
273
2
274
3
275
0
276
0
277
2
278
46
279
2
280
0
281
0
282
0
283
0
284
8
285
0
286
0
288
1
289
3
290
0
340
4C
371
-2
372
-2
  0
DIMSTYLE
105
83
330
4
100
AcDbSymbolTableRecord
100
AcDbDimStyleTableRecord
  2
EZ_RADIUS
 70
0
 40
1.0
 41
0.25
 42
0.125
 43
3.75
 44
0.375
 45
0.0
 46
0.0
 47
0.0
 48
0.0
 49
2.5
140
0.25
141
0.0
142
0.0
143
0.03937007874
144
100.0
145
0.0
146
0.5
147
0.1
148
0.0
 69
0
 70
0
 71
0
 72
0
 73
0
 74
0
 75
0
 76
0
 77
1
 78
12
 79
3
170
0
171
3
172
0
173
0
174
0
175
0
176
0
177
0
178
0
179
2
271
2
272
2
273
2
274
3
275
0
276
0
277
2
278
46
279
1
280
0
281
0
282
0
283
0
284
8
285
0
286
0
288
1
289
3
290
0
340
4C
342
84
371
-2
372
-2
  0
DIMSTYLE
105
88
330
4
100
AcDbSymbolTableRecord
100
AcDbDimStyleTableRecord
  2
EZ_RADIUS_INSIDE
 70
0
 40
1.0
 41
0.25
 42
0.125
 43
3.75
 44
0.375
 45
0.0
 46
0.0
 47
0.0
 48
0.0
 49
2.5
140
0.25
141
0.0
142
0.0
143
0.03937007874
144
100.0
145
0.0
146
0.5
147
0.1
148
0.0
 69
0
 70
0
 71
0
 72
0
 73
0
 74
0
 75
0
 76
0
 77
0
 78
12
 79
3
170
0
171
3
172
0
173
0
174
1
175
0
176
0
177
0
178
0
179
2
271
2
272
2
273
2
274
3
275
0
276
0
277
2
278
46
279
0
280
0
281
0
282
0
283
0
284
8
285
0
286
0
288
1
289
0
290
0
340
4C
342
84
371
-2
372
-2
  0
DIMSTYLE
105
89
330
4
100
AcDbSymbolTableRecord
100
AcDbDimStyleTableRecord
  2
EZ_CURVED
 70
0
 40
1.0
 41
0.25
 42
0.125
 43
3.75
 44
0.375
 45
0.0
 46
0.0
 47
0.0
 48
0.0
 49
2.5
140
0.25
141
2.5
142
0.0
143
0.03937007874
144
100.0
145
0.0
146
0.5
147
0.1
148
0.0
 69
0
 70
0
 71
0
 72
0
 73
0
 74
0
 75
0
 76
0
 77
1
 78
12
 79
2
 90
2
170
0
171
3
172
1
173
0
174
0
175
0
176
0
177
0
178
0
179
2
271
2
272
2
273
2
274
3
275
0
276
0
277
2
278
46
279
2
280
0
281
0
282
0
283
0
284
8
285
0
286
0
288
1
289
3
290
0
340
4C
371
-2
372
-2
  0
ENDTAB
  0
TABLE
  2
BLOCK_RECORD
  5
9
330
0
100
AcDbSymbolTable
 70
5
  0
BLOCK_RECORD
  5
17
330
9
100
AcDbSymbolTableRecord
100
AcDbBlockTableRecord
  2
*Model_Space
340
1A
 70
0
280
1
281
0
  0
BLOCK_RECORD
  5
1B
330
9
100
AcDbSymbolTableRecord
100
AcDbBlockTableRecord
  2
*Paper_Space
340
1E
 70
0
280
1
281
0
  0
BLOCK_RECORD
  5
74
330
9
100
AcDbSymbolTableRecord
100
AcDbBlockTableRecord
  2
_ARCHTICK
340
0
 70
0
280
1
281
0
  0
BLOCK_RECORD
  5
78
330
9
100
AcDbSymbolTableRecord
100
AcDbBlockTableRecord
  2
_CLOSEDFILLED
340
0
 70
0
280
1
281
0
  0
BLOCK_RECORD
  5
84
330
9
100
AcDbSymbolTableRecord
100
AcDbBlockTableRecord
  2
_CLOSEDBLANK
340
0
 70
0
280
1
281
0
  0
ENDTAB
  0
ENDSEC
  0
SECTION
  2
BLOCKS
  0
BLOCK
  5
18
330
17
100
AcDbEntity
  8
0
100
AcDbBlockBegin
  2
*Model_Space
 70
0
 10
0.0
 20
0.0
 30
0.0
  3
*Model_Space
  1

  0
ENDBLK
  5
19
330
17
100
AcDbEntity
  8
0
100
AcDbBlockEnd
  0
BLOCK
  5
1C
330
1B
100
AcDbEntity
  8
0
100
AcDbBlockBegin
  2
*Paper_Space
 70
0
 10
0.0
 20
0.0
 30
0.0
  3
*Paper_Space
  1

  0
ENDBLK
  5
1D
330
1B
100
AcDbEntity
  8
0
100
AcDbBlockEnd
  0
BLOCK
  5
75
330
74
100
AcDbEntity
  8
0
100
AcDbBlockBegin
  2
_ARCHTICK
 70
0
 10
0.0
 20
0.0
 30
0.0
  3
_ARCHTICK
  1

  0
LWPOLYLINE
  5
77
330
74
100
AcDbEntity
  8
0
  6
BYBLOCK
 62
0
100
AcDbPolyline
 90
2
 70
0
 43
0.15
 10
-0.5
 20
-0.5
 10
0.5
 20
0.5
  0
ENDBLK
  5
76
330
74
100
AcDbEntity
  8
0
100
AcDbBlockEnd
  0
BLOCK
  5
79
330
78
100
AcDbEntity
  8
0
100
AcDbBlockBegin
  2
_CLOSEDFILLED
 70
0
 10
0.0
 20
0.0
 30
0.0
  3
_CLOSEDFILLED
  1

  0
SOLID
  5
7B
330
78
100
AcDbEntity
  8
0
  6
BYBLOCK
 62
0
100
AcDbTrace
 10
-1.0
 20
0.16439898372402537
 30
0.0
 11
0.0
 21
0.0
 31
0.0
 12
-1.0
 22
-0.16439898372402537
 32
0.0
 13
-1.0
 23
-0.16439898372402537
 33
0.0
  0
ENDBLK
  5
7A
330
78
100
AcDbEntity
  8
0
100
AcDbBlockEnd
  0
BLOCK
  5
85
330
84
100
AcDbEntity
  8
0
100
AcDbBlockBegin
  2
_CLOSEDBLANK
 70
0
 10
0.0
 20
0.0
 30
0.0
  3
_CLOSEDBLANK
  1

  0
LWPOLYLINE
  5
87
330
84
100
AcDbEntity
  8
0
  6
BYBLOCK
 62
0
100
AcDbPolyline
 90
3
 70
1
 10
-1.0
 20
0.16439898372402537
 10
0.0
 20
0.0
 10
-1.0
 20
-0.16439898372402537
  0
ENDBLK
  5
86
330
84
100
AcDbEntity
  8
0
100
AcDbBlockEnd
  0
ENDSEC
  0
SECTION
  2
ENTITIES
  0
LWPOLYLINE
  5
8C
330
17
100
AcDbEntity
  8
Layer
100
AcDbPolyline
 90
261
 70
1
 10
875.625528258013
 20
122.4840257772095
 10
872.3732001843607
 20
123.65639447524586
 10
867.0751205068705
 20
125.5582707621149
 10
861.25401120677
 20
127.62854112824063
 10
854.9052691567958
 20
129.84377283011162
 10
848.000601733336
 20
132.2008707453203
 10
840.5810458638891
 20
134.7303561939159
 10
832.7289636301775
 20
137.422249888486
 10
824.5310580152943
 20
140.2569928340054
 10
816.0570356304279
 20
143.21213851059875
 10
807.372416546888
 20
146.2652489863493
 10
798.5218234259912
 20
149.39989193892148
 10
789.5431695886032
 20
152.59756261029418
 10
780.4674693254665
 20
155.84593270872725
 10
771.3145002936515
 20
159.13274927766622
 10
762.1099285450493
 20
162.44341961724714
 10
752.8800652780601
 20
165.76618946736724
 10
743.6495326792582
 20
169.08683849443554
 10
734.4340315479751
 20
172.3942901313877
 10
725.2457829726641
 20
175.68189143711734
 10
716.0958055034032
 20
178.9413391149198
 10
706.986028687312
 20
182.16661962875676
 10
697.9180160268085
 20
185.35457676659286
 10
688.8961905912267
 20
188.50063005159456
 10
679.9222414784897
 20
191.59919501415806
 10
670.994659730969
 20
194.6468159985127
 10
662.6005501062673
 20
197.47675872465936
 10
662.2810825333868
 20
196.5291615159901
 10
661.7988477977401
 20
196.69175405271395
 10
652.9720182747478
 20
199.625383340641
 10
644.1910952449208
 20
202.49571687956302
 10
635.4495695887372
 20
205.3012350551639
 10
626.744102559291
 20
208.04088887123612
 10
618.0711521181681
 20
210.71230186542908
 10
609.4237770487952
 20
213.31408764438106
 10
600.7950925998532
 20
215.8468099762883
 10
592.1815310198313
 20
218.3107559159941
 10
583.5804353724018
 20
220.70487937095686
 10
574.9867857629208
 20
223.0285902746512
 10
566.3953322516727
 20
225.28244840118165
 10
557.8040881644946
 20
227.46750131709928
 10
549.2125351735958
 20
229.5830661417366
 10
540.6179179638215
 20
231.6281485087313
 10
532.0165432452372
 20
233.6034487379355
 10
523.4075127165913
 20
235.50995553754387
 10
514.7919889809901
 20
237.34713905918767
 10
506.168779914524
 20
239.1140581559405
 10
497.5358371504127
 20
240.81095076509473
 10
488.8922992714776
 20
242.43864915690347
 10
480.24015396013897
 20
243.99717251165907
 10
471.5799281686377
 20
245.4853680892786
 10
462.909968886363
 20
246.90301793251922
 10
454.23014459756996
 20
248.25107262954805
 10
445.54257012248496
 20
249.52920585805913
 10
436.847404725991
 20
250.73610692383596
 10
428.14067738711344
 20
251.87110310889656
 10
419.41843315526995
 20
252.93601909946096
 10
410.68235818567496
 20
253.93281464700428
 10
401.93640232990197
 20
254.86122733020687
 10
393.18160096129475
 20
255.72006693695886
 10
384.41685534427097
 20
256.50949665399355
 10
375.6444613816993
 20
257.2312753488405
 10
366.87053020428795
 20
257.8853559604888
 10
358.098957747539
 20
258.46983857080625
 10
349.32979445273617
 20
258.98358668502794
 10
340.5646156678744
 20
259.42771879103213
 10
331.80911081640505
 20
259.80205230954084
 10
323.06769292948945
 20
260.1048326002873
 10
314.34029266544337
 20
260.3340481629769
 10
305.62745915479394
 20
260.4903629527962
 10
296.93447732925995
 20
260.5739846976192
 10
288.26598139758005
 20
260.58297365074833
 10
279.6227539739195
 20
260.5151687096383
 10
271.0050274837749
 20
260.3706407932487
 10
262.4182042745474
 20
260.1497812172228
 10
253.86796276921638
 20
259.85077007682474
 10
245.3552520099704
 20
259.47098229544685
 10
236.88144102709828
 20
259.0104175110039
 10
228.4525340424733
 20
258.4695443697998
 10
220.0752799149561
 20
257.84630411978065
 10
211.75112227923245
 20
257.13792192339804
 10
203.4828628647791
 20
256.34494511184596
 10
195.27883541985767
 20
255.46773355465362
 10
187.14555534888393
 20
254.50359384017102
 10
179.08547341203612
 20
253.45063669679485
 10
171.104606943117
 20
252.3102349126652
 10
163.21308145966228
 20
251.08217889607107
 10
155.41747173840488
 20
249.76444837849073
 10
147.7234251749
 20
248.35851189161758
 10
140.14683622508545
 20
246.87011279879653
 10
132.70687507240635
 20
245.3001320267922
 10
125.41526146591517
 20
243.64761826417524
 10
118.28490439182525
 20
241.91851163960206
 10
111.33895653137776
 20
240.12124657263223
 10
104.5982328565147
 20
238.25878049087407
 10
98.07725862871624
 20
236.33686964997446
 10
91.79582698299052
 20
234.369395935577
 10
85.77824440747176
 20
232.36867619362545
 10
80.04107262078304
 20
230.34237041476263
 10
74.59517038032288
 20
228.30386697855585
 10
69.45301198093682
 20
226.27010118959842
 10
64.6230426066806
 20
224.25208968589217
 10
60.1038424492516
 20
222.25772823792803
 10
55.889107420830726
 20
220.29835211687808
 10
51.97169990746744
 20
218.3840863892363
 10
48.34073176489369
 20
216.51848956019506
 10
44.980004758484654
 20
214.7016970958739
 10
41.87069296505604
 20
212.9355568424645
 10
38.995349451649645
 20
211.22300915618627
 10
36.3380786339178
 20
209.56356123713041
 10
33.8825021458469
 20
207.9534778710853
 10
31.61228278735132
 20
206.38901795179405
 10
29.511727887364657
 20
204.86775975819188
 10
27.567903193033374
 20
203.3887569532935
 10
25.770223988079067
 20
201.94907782107418
 10
24.108991674260324
 20
200.54356393249955
 10
22.572564595250753
 20
199.16547892505235
 10
21.147999920161794
 20
197.8126246635789
 10
19.822457865505783
 20
196.48600295069556
 10
18.586102492895975
 20
195.19106189144867
 10
17.433601587229816
 20
193.93180209551466
 10
16.364939981577493
 20
192.71099612516218
 10
15.382448982146968
 20
191.52387271570956
 10
14.488217261733723
 20
190.36337251232044
 10
13.681765653939749
 20
189.22016809638458
 10
12.958416794581694
 20
188.0854946661617
 10
12.311290658059136
 20
186.95725240448166
 10
11.732720777498116
 20
185.8370962559294
 10
11.217362290630547
 20
184.73170478492594
 10
10.762879464345076
 20
183.6461100353953
 10
10.369983164753478
 20
182.58453403065099
 10
10.04097378016013
 20
181.54725959877868
 10
9.77779710452046
 20
180.53130920715714
 10
9.58075994269251
 20
179.53369640463453
 10
9.448223555940103
 20
178.55212908733438
 10
9.373620853418345
 20
177.5067977538727
 10
9.363526765707832
 20
176.6187736172496
 10
9.411911117348666
 20
175.64567674349317
 10
9.528131351717377
 20
174.67586372897495
 10
9.720776235879953
 20
173.71380016599377
 10
10.000446818565024
 20
172.75929822315368
 10
10.376045819426906
 20
171.8107830157618
 10
10.850809509127998
 20
170.8687269867306
 10
11.421719968176603
 20
169.9361852361993
 10
12.082367372963517
 20
169.01840312422053
 10
12.828471764988763
 20
168.12040854379393
 10
13.65961200526624
 20
167.24630178153444
 10
14.579557477171818
 20
166.39803875112742
 10
15.592038792844846
 20
165.57573871203894
 10
16.699316348322157
 20
164.77753538212
 10
17.900169200303935
 20
164.0007994857538
 10
19.193687040027385
 20
163.24264088440052
 10
20.579136854172305
 20
162.50149593616737
 10
22.06068275573415
 20
161.77675762988468
 10
23.644405739686306
 20
161.06818227940477
 10
25.34000020329728
 20
160.37493991410034
 10
27.157131183082356
 20
159.69431598083145
 10
29.105592094792883
 20
159.02211012558158
 10
31.19618143266888
 20
158.35369322611953
 10
33.44036836077311
 20
157.6849733882637
 10
35.85338663098048
 20
157.01372612421568
 10
38.45383468955964
 20
156.3389379446753
 10
41.264232232454845
 20
155.65955220152833
 10
44.30886476099266
 20
154.97348740539485
 10
47.61441527169984
 20
154.27872303082043
 10
51.20922361176429
 20
153.57444847007795
 10
55.12511675459223
 20
152.86194797849436
 10
59.396253092921256
 20
152.1434060231515
 10
64.05552314677777
 20
151.41978620728923
 10
69.13056125202195
 20
150.6927187608889
 10
74.64225741414515
 20
149.96768777483925
 10
80.60427943489384
 20
149.25258529270988
 10
87.01936738363904
 20
148.55343682893897
 10
93.8726128422067
 20
147.8752711517762
 10
101.13566515981645
 20
147.22689552598317
 10
108.77586341890753
 20
146.6157365168389
 10
116.75264006536801
 20
146.0439157984777
 10
125.01874704135611
 20
145.51449117605608
 10
133.5357232752909
 20
145.03109020525278
 10
142.27088868570422
 20
144.59191374481492
 10
151.19108682070438
 20
144.19491008532077
 10
160.2772216685309
 20
143.84126186893795
 10
169.52527397817605
 20
143.5237218492911
 10
178.9085404986839
 20
143.22472162658516
 10
179.89959980152392
 20
143.19449959530175
 10
179.86911929500232
 20
142.19496423388517
 10
188.33525441951375
 20
141.9367904715508
 10
197.81751034450033
 20
141.67254186302878
 10
207.33199124661346
 20
141.44769486990586
 10
216.91535631115215
 20
141.26062669255296
 10
226.5869610698256
 20
141.09546187999138
 10
236.32846213778902
 20
140.9352356272354
 10
246.10363157216415
 20
140.77135440710992
 10
255.882719931274
 20
140.6076226262671
 10
265.6441663892642
 20
140.45823904090673
 10
275.4081198928772
 20
140.33484128088364
 10
285.210395295206
 20
140.2343728027529
 10
295.06505130760013
 20
140.14346132348473
 10
304.95444786508835
 20
140.05197158792345
 10
314.86373604995833
 20
139.95989338542037
 10
324.78069926646793
 20
139.86959094634628
 10
334.69437838974574
 20
139.77984782675307
 10
344.59032364466
 20
139.69096377003044
 10
354.46136626976374
 20
139.6101112787125
 10
364.31982765704623
 20
139.54350300327508
 10
374.17914945161795
 20
139.48568333258484
 10
384.03336548383606
 20
139.4222836282974
 10
393.8884850382352
 20
139.34721054443443
 10
403.7445692869941
 20
139.2690745716024
 10
413.5990016056573
 20
139.20106366221268
 10
423.4635539480649
 20
139.14384371789075
 10
433.33312796061045
 20
139.08857768252693
 10
443.1893000138057
 20
139.03161802613155
 10
453.02174743598795
 20
138.98252409437907
 10
462.8382986823797
 20
138.94815843868744
 10
472.6465763495804
 20
138.92039722113066
 10
482.43336822051646
 20
138.88018484381402
 10
492.2154961277086
 20
138.81959022342124
 10
502.00300244668676
 20
138.74789052514996
 10
511.78296233561565
 20
138.6789586413348
 10
521.5264634937419
 20
138.60728182417154
 10
531.2192501004578
 20
138.5150063464709
 10
540.8868625310084
 20
138.39491999763865
 10
550.5337954943376
 20
138.26953917884273
 10
560.1393036074037
 20
138.17162147578443
 10
569.7454896268375
 20
138.1117300456217
 10
579.3671954297614
 20
138.06349324630617
 10
588.9838233391702
 20
137.99269151239514
 10
598.618820403595
 20
137.888412560171
 10
608.2855541658367
 20
137.7680213152118
 10
617.9438083784464
 20
137.64698731690711
 10
627.5498567402087
 20
137.513864416214
 10
637.1043265410001
 20
137.34241546681608
 10
646.6641602541291
 20
137.12281204913512
 10
656.2653443329605
 20
136.87557341214105
 10
665.8814502963293
 20
136.62650554007482
 10
675.4597542227395
 20
136.3760021599989
 10
684.9649304557063
 20
136.09642026317218
 10
694.4374667457167
 20
135.76497115933785
 10
703.9345998364251
 20
135.38675821064692
 10
713.464315813359
 20
134.9881288233547
 10
722.9681659312346
 20
134.58812988654742
 10
732.3832707174538
 20
134.17434698013625
 10
741.702901089071
 20
133.71362782892356
 10
750.9901560945227
 20
133.1840266530903
 10
760.3093576382148
 20
132.59920104257924
 10
769.6480442820213
 20
131.9949081082594
 10
778.91930389753
 20
131.385011237435
 10
788.0628592684689
 20
130.74749331830108
 10
797.0804299249203
 20
130.06438429092094
 10
805.9694009658804
 20
129.3421325107302
 10
814.6905367978479
 20
128.59135940791515
 10
823.1871487659348
 20
127.81717205746375
 10
831.4005093414371
 20
127.01616875500945
 10
839.2929482480346
 20
126.1772192537918
 10
846.8398475709946
 20
125.3121977253351
 10
853.9810586795925
 20
124.46051983092823
 10
860.6350075109981
 20
123.65276737265128
 10
866.7480128213674
 20
122.88779483571558
 10
872.3220283786659
 20
122.16548899278557
 10
875.7487032210754
 20
121.71442746334466
  0
LWPOLYLINE
  5
8D
330
17
100
AcDbEntity
  8
Layer
100
AcDbPolyline
 90
5
 70
0
 10
577.7848418886813
 20
218.12832411493642
 10
573.9235081692877
 20
219.17240356951564
 10
574.9675876238668
 20
223.03373728890918
 10
578.8289213432604
 20
221.98965783432996
 10
577.7848418886813
 20
218.12832411493642
  0
LWPOLYLINE
  5
8E
330
17
100
AcDbEntity
  8
Layer
100
AcDbPolyline
 90
5
 70
0
 10
250.7780212766121
 20
255.7089087356398
 10
246.7819976779213
 20
255.53059609249192
 10
246.60368503477343
 20
259.52661969118265
 10
250.59970863346422
 20
259.7049323343306
 10
250.7780212766121
 20
255.7089087356398
  0
LWPOLYLINE
  5
8F
330
17
100
AcDbEntity
  8
Layer
100
AcDbPolyline
 90
5
 70
0
 10
102.38745585863444
 20
233.43697726695368
 10
98.55066369539071
 20
232.3060369961739
 10
97.41972342461094
 20
236.14282915941763
 10
101.25651558785466
 20
237.2737694301974
 10
102.38745585863444
 20
233.43697726695368
  0
LWPOLYLINE
  5
90
330
17
100
AcDbEntity
  8
Layer
100
AcDbPolyline
 90
5
 70
0
 10
27.54373458618848
 20
196.9077865945805
 10
26.055276341180747
 20
195.5719377809536
 10
22.715654307113407
 20
199.29308339347295
 10
24.204112552121142
 20
200.62893220709987
 10
27.54373458618848
 20
196.9077865945805
  0
LWPOLYLINE
  5
91
330
17
100
AcDbEntity
  8
Layer
100
AcDbPolyline
 90
5
 70
0
 10
18.675693543335672
 20
169.5168761038388
 10
20.299702608568378
 20
168.34957384819035
 10
17.38144696944722
 20
164.28955118510856
 10
15.757437904214514
 20
165.45685344075702
 10
18.675693543335672
 20
169.5168761038388
  0
LWPOLYLINE
  5
92
330
17
100
AcDbEntity
  8
Layer
100
AcDbPolyline
 90
5
 70
0
 10
134.66962492243167
 20
148.97913621074895
 10
138.6645795373099
 20
148.77829392171827
 10
138.46373724827922
 20
144.78333930684005
 10
134.468782633401
 20
144.98418159587072
 10
134.66962492243167
 20
148.97913621074895
  0
LINE
  5
93
330
17
100
AcDbEntity
  8
Layer
100
AcDbLine
 10
856.8712059401996
 20
129.15780930344914
 30
0.0
 11
856.5445159024221
 21
128.2126777680442
 31
0.0
  0
LINE
  5
94
330
17
100
AcDbEntity
  8
Layer
100
AcDbLine
 10
855.919807142408
 20
125.23169536062083
 30
0.0
 11
855.8392586059931
 21
124.23494467299558
 31
0.0
  0
LINE
  5
95
330
17
100
AcDbEntity
  8
Layer
100
AcDbLine
 10
837.9483359580513
 20
135.63291617536012
 30
0.0
 11
837.6231132857605
 21
134.68727871130318
 31
0.0
  0
LINE
  5
96
330
17
100
AcDbEntity
  8
Layer
100
AcDbLine
 10
836.0627812117266
 20
127.52618015340258
 30
0.0
 11
835.9651073734785
 21
126.53096167421225
 31
0.0
  0
LINE
  5
97
330
17
100
AcDbEntity
  8
Layer
100
AcDbLine
 10
762.5211461152603
 20
162.29551422305877
 30
0.0
 11
762.1905502377177
 21
161.35174181100606
 31
0.0
  0
LINE
  5
98
330
17
100
AcDbEntity
  8
Layer
100
AcDbLine
 10
756.296203453679
 20
133.85275514682206
 30
0.0
 11
756.2109335218337
 21
132.85639725995458
 31
0.0
  0
LWPOLYLINE
  5
99
330
17
100
AcDbEntity
  8
Layer
100
AcDbPolyline
 90
300
 70
1
 10
387.4734060835195
 20
200.0
 10
387.4630265866259
 20
201.04829017434852
 10
387.4318926792388
 20
202.0961174532666
 10
387.38001810921514
 20
203.14301914572545
 10
387.30742578290483
 20
204.18853296940912
 10
387.2141477550355
 20
205.23219725484554
 10
387.1002252145585
 20
206.27355114926658
 10
386.96570846646057
 20
207.3121348201078
 10
386.81065690955086
 20
208.3474896580574
 10
386.6351390102321
 20
209.3791584795655
 10
386.43923227226753
 20
210.40668572872306
 10
386.2230232025576
 20
211.429617678423
 10
385.98660727294106
 20
212.447502630713
 10
385.730088878037
 20
213.45989111625278
 10
385.45358128914734
 20
214.46633609278703
 10
385.15720660423926
 20
215.4663931425467
 10
384.8410956940304
 20
216.45962066849134
 10
384.50538814419986
 20
217.44558008930602
 10
384.150232193751
 20
218.42383603306638
 10
383.77578466955345
 20
219.3939565294867
 10
383.3822109170929
 20
220.35551320066574
 10
382.96968472745885
 20
221.30808145024648
 10
382.5383882606035
 20
222.25124065090574
 10
382.08851196490514
 20
223.18457433009158
 10
381.62025449307146
 20
224.10767035392564
 10
381.13382261441996
 20
225.02012110919003
 10
380.6294311235747
 20
225.92152368331776
 10
380.1073027456188
 20
226.8114800423076
 10
379.56766803774553
 20
227.68959720648473
 10
379.01076528745045
 20
228.55548742402948
 10
378.4368404073107
 20
229.40876834219753
 10
377.84614682639665
 20
230.24906317615628
 10
377.238945378365
 20
231.07600087536235
 10
376.61550418628167
 20
231.88921628740698
 10
375.9760985442266
 20
232.68835031925715
 10
375.3210107957313
 20
233.473050095821
 10
374.65053020910403
 20
234.24296911576732
 10
373.96495284969706
 20
234.9977674045311
 10
373.26458144917245
 20
235.73711166443633
 10
372.54972527182446
 20
236.46067542187131
 10
371.820699978017
 20
237.16813917144995
 10
371.07782748479684
 20
237.85919051709627
 10
370.32143582374437
 20
238.53352430998996
 10
369.55185899612377
 20
239.19084278331133
 10
368.76943682539763
 20
239.83085568372687
 10
367.97451480717046
 20
240.4532803995568
 10
367.1674439566276
 20
241.05784208556864
 10
366.3485806535366
 20
241.6442737843409
 10
365.5182864848802
 20
242.21231654414416
 10
364.67692808518956
 20
242.76171953328674
 10
363.82487697464876
 20
243.29224015087493
 10
362.962509395042
 20
243.80364413393883
 10
362.0902061436158
 20
244.2957056608761
 10
361.20835240492954
 20
244.76820745116854
 10
360.3173375807692
 20
245.220940861327
 10
359.41755511819804
 20
245.65370597702255
 10
358.50940233582145
 20
246.06631170136293
 10
357.59328024834275
 20
246.4585758392756
 10
356.6695933894858
 20
246.83032517795993
 10
355.7387496333646
 20
247.18139556337312
 10
354.80116001437756
 20
247.51163197271603
 10
353.85723854570625
 20
247.82088858288682
 10
352.90740203649875
 20
248.1090288348724
 10
351.95206990781844
 20
248.3759254940489
 10
350.9916640074398
 20
248.62146070636513
 10
350.02660842357176
 20
248.8455260503834
 10
349.0573292975928
 20
249.04802258515554
 10
348.08425463587866
 20
249.2288608939122
 10
347.1078141208067
 20
249.38796112354717
 10
346.1284389210205
 20
249.52525301987782
 10
345.14656150103787
 20
249.64067595866766
 10
344.1626154302863
 20
249.73417897239622
 10
343.17703519165144
 20
249.80572077276486
 10
342.1902559896216
 20
249.8552697689285
 10
341.2027135581133
 20
249.88280408144533
 10
340.2148439680639
 20
249.88831155193802
 10
339.2270834348747
 20
249.87178974846267
 10
338.23986812579057
 20
249.8332459665826
 10
337.2536339673007
 20
249.77269722614682
 10
336.26881645264586
 20
249.69017026377458
 10
335.2858504495169
 20
249.58570152104923
 10
334.305170008029
 20
249.45933712842668
 10
333.32720816905794
 20
249.31113288486537
 10
332.35239677302104
 20
249.14115423318717
 10
331.3811662691888
 20
248.94947623117955
 10
330.4139455256103
 20
248.7361835184522
 10
329.4511616397377
 20
248.5013702790627
 10
328.4932397498314
 20
248.24514019992728
 10
327.5406028472314
 20
247.96760642503568
 10
326.59367158957616
 20
247.66889150549005
 10
325.6528641150518
 20
247.34912734538963
 10
324.7185958577542
 20
247.00845514358585
 10
323.79127936424516
 20
246.64702533133266
 10
322.8713241113831
 20
246.26499750586055
 10
321.9591363255099
 20
245.86254035990265
 10
321.05511880307273
 20
245.43983160720504
 10
320.15967073276033
 20
244.99705790405318
 10
319.27318751923264
 20
244.53441476684975
 10
318.3960606085213
 20
244.05210648578023
 10
317.52867731517784
 20
243.550346034604
 10
316.6714206512468
 20
243.02935497661116
 10
315.8246691571383
 20
242.48936336678645
 10
314.98879673447505
 20
241.93060965022337
 10
314.1641724809881
 20
241.3533405568336
 10
313.35116052753364
 20
240.75781099239794
 10
312.5501198773032
 20
240.1442839260073
 10
311.76140424729766
 20
239.5130302739426
 10
310.98536191213594
 20
238.86432878004615
 10
310.22233555026685
 20
238.19846589263597
 10
309.47266209265166
 20
237.51573563801827
 10
308.73667257398506
 20
236.81643949065392
 10
308.0146919865196
 20
236.10088624003555
 10
307.3070391365581
 20
235.36939185433502
 10
306.6140265036779
 20
234.62227934088062
 10
305.9359601027485
 20
233.85987860352623
 10
305.2731393488042
 20
233.08252629697503
 10
304.6258569248309
 20
232.2905656781222
 10
303.99439865252515
 20
231.48434645448245
 10
303.3790433660838
 20
230.66422462976894
 10
302.78006278907833
 20
229.83056234669203
 10
302.1977214144696
 20
228.98372772704747
 10
301.632276387815
 20
228.12409470916387
 10
301.0839773937205
 20
227.2520428827823
 10
300.5530665455865
 20
226.36795732143997
 10
300.03977827869784
 20
225.47222841243283
 10
299.5443392467036
 20
224.56525168443125
 10
299.066968221533
 20
223.6474276328259
 10
298.60787599679225
 20
222.7191615428801
 10
298.1672652946839
 20
221.7808633107675
 10
297.7453306764902
 20
220.8329472625732
 10
297.34225845666066
 20
219.87583197133915
 10
296.95822662054064
 20
218.90994007223404
 10
296.59340474577795
 20
217.93569807592962
 10
296.2479539274424
 20
216.95353618026533
 10
295.9220267068905
 20
215.9638880802854
 10
295.6157670044076
 20
214.96719077673094
 10
295.3293100556568
 20
213.96388438307315
 10
295.0627823519625
 20
212.95441193117117
 10
294.8163015844557
 20
211.93921917564197
 10
294.5899765921045
 20
210.91875439702753
 10
294.38390731365433
 20
209.89346820384688
 10
294.19818474349734
 20
208.86381333361987
 10
294.03289089149234
 20
207.8302444529513
 10
293.8880987467511
 20
206.79321795676265
 10
293.7638722454086
 20
205.7531917667612
 10
293.66026624239083
 20
204.7106251292345
 10
293.57732648719207
 20
203.66597841226024
 10
293.5150896036733
 20
202.61971290242064
 10
293.47358307389027
 20
201.57229060111126
 10
293.4528252259582
 20
200.52417402053422
 10
293.4528252259582
 20
199.4758259794658
 10
293.47358307389027
 20
198.42770939888874
 10
293.5150896036733
 20
197.38028709757936
 10
293.57732648719207
 20
196.33402158773976
 10
293.66026624239083
 20
195.2893748707655
 10
293.7638722454086
 20
194.24680823323882
 10
293.8880987467511
 20
193.20678204323735
 10
294.03289089149234
 20
192.16975554704874
 10
294.19818474349734
 20
191.13618666638013
 10
294.38390731365433
 20
190.10653179615312
 10
294.5899765921045
 20
189.08124560297244
 10
294.8163015844557
 20
188.06078082435803
 10
295.0627823519625
 20
187.04558806882883
 10
295.3293100556568
 20
186.03611561692685
 10
295.6157670044076
 20
185.03280922326906
 10
295.9220267068905
 20
184.03611191971464
 10
296.2479539274424
 20
183.04646381973467
 10
296.59340474577795
 20
182.0643019240704
 10
296.95822662054064
 20
181.09005992776594
 10
297.3422584566607
 20
180.12416802866085
 10
297.7453306764902
 20
179.16705273742681
 10
298.1672652946839
 20
178.2191366892325
 10
298.60787599679225
 20
177.2808384571199
 10
299.066968221533
 20
176.35257236717413
 10
299.54433924670354
 20
175.43474831556875
 10
300.03977827869784
 20
174.52777158756717
 10
300.5530665455865
 20
173.63204267856
 10
301.0839773937205
 20
172.74795711721774
 10
301.632276387815
 20
171.87590529083613
 10
302.1977214144696
 20
171.01627227295253
 10
302.78006278907833
 20
170.16943765330797
 10
303.3790433660838
 20
169.3357753702311
 10
303.99439865252515
 20
168.51565354551755
 10
304.6258569248309
 20
167.70943432187778
 10
305.27313934880425
 20
166.91747370302497
 10
305.9359601027485
 20
166.14012139647377
 10
306.61402650367785
 20
165.3777206591194
 10
307.3070391365581
 20
164.63060814566498
 10
308.0146919865196
 20
163.89911375996445
 10
308.73667257398506
 20
163.18356050934608
 10
309.47266209265166
 20
162.48426436198173
 10
310.22233555026685
 20
161.80153410736403
 10
310.98536191213594
 20
161.13567121995385
 10
311.76140424729766
 20
160.4869697260574
 10
312.5501198773032
 20
159.8557160739927
 10
313.35116052753364
 20
159.24218900760206
 10
314.16417248098804
 20
158.6466594431664
 10
314.98879673447505
 20
158.06939034977663
 10
315.8246691571383
 20
157.51063663321355
 10
316.6714206512468
 20
156.97064502338884
 10
317.52867731517784
 20
156.449653965396
 10
318.3960606085213
 20
155.94789351421977
 10
319.2731875192327
 20
155.46558523315025
 10
320.15967073276033
 20
155.00294209594682
 10
321.05511880307273
 20
154.56016839279496
 10
321.9591363255099
 20
154.13745964009735
 10
322.87132411138305
 20
153.73500249413948
 10
323.7912793642451
 20
153.35297466866734
 10
324.71859585775417
 20
152.99154485641418
 10
325.6528641150518
 20
152.65087265461037
 10
326.59367158957616
 20
152.33110849450998
 10
327.5406028472314
 20
152.03239357496432
 10
328.4932397498314
 20
151.75485980007272
 10
329.4511616397377
 20
151.4986297209373
 10
330.4139455256103
 20
151.2638164815478
 10
331.3811662691888
 20
151.05052376882045
 10
332.35239677302104
 20
150.85884576681283
 10
333.32720816905794
 20
150.68886711513463
 10
334.305170008029
 20
150.54066287157332
 10
335.28585044951683
 20
150.41429847895077
 10
336.26881645264586
 20
150.30982973622542
 10
337.2536339673007
 20
150.22730277385318
 10
338.23986812579057
 20
150.1667540334174
 10
339.2270834348747
 20
150.12821025153733
 10
340.2148439680639
 20
150.11168844806198
 10
341.2027135581133
 20
150.11719591855467
 10
342.1902559896216
 20
150.1447302310715
 10
343.17703519165144
 20
150.19427922723514
 10
344.1626154302863
 20
150.26582102760378
 10
345.14656150103787
 20
150.35932404133234
 10
346.1284389210206
 20
150.47474698012218
 10
347.1078141208067
 20
150.61203887645283
 10
348.08425463587866
 20
150.7711391060878
 10
349.0573292975928
 20
150.9519774148445
 10
350.0266084235717
 20
151.15447394961657
 10
350.99166400743974
 20
151.37853929363487
 10
351.95206990781844
 20
151.6240745059511
 10
352.9074020364987
 20
151.8909711651276
 10
353.85723854570625
 20
152.17911141711318
 10
354.80116001437756
 20
152.48836802728397
 10
355.7387496333646
 20
152.81860443662686
 10
356.6695933894858
 20
153.16967482204007
 10
357.59328024834275
 20
153.5414241607244
 10
358.50940233582145
 20
153.93368829863707
 10
359.41755511819804
 20
154.34629402297745
 10
360.3173375807692
 20
154.779059138673
 10
361.2083524049296
 20
155.23179254883146
 10
362.0902061436158
 20
155.70429433912392
 10
362.962509395042
 20
156.19635586606117
 10
363.8248769746487
 20
156.70775984912504
 10
364.67692808518956
 20
157.23828046671326
 10
365.5182864848802
 20
157.78768345585584
 10
366.3485806535366
 20
158.3557262156591
 10
367.16744395662755
 20
158.94215791443136
 10
367.97451480717046
 20
159.5467196004432
 10
368.76943682539763
 20
160.16914431627313
 10
369.55185899612377
 20
160.80915721668867
 10
370.32143582374437
 20
161.46647569001004
 10
371.07782748479684
 20
162.14080948290373
 10
371.820699978017
 20
162.83186082855005
 10
372.54972527182446
 20
163.53932457812869
 10
373.26458144917245
 20
164.26288833556367
 10
373.96495284969706
 20
165.00223259546894
 10
374.65053020910403
 20
165.75703088423268
 10
375.3210107957313
 20
166.526949904179
 10
375.9760985442266
 20
167.31164968074282
 10
376.61550418628167
 20
168.110783712593
 10
377.2389453783649
 20
168.92399912463765
 10
377.84614682639665
 20
169.7509368238437
 10
378.4368404073107
 20
170.59123165780247
 10
379.01076528745045
 20
171.44451257597052
 10
379.56766803774553
 20
172.31040279351527
 10
380.1073027456188
 20
173.1885199576924
 10
380.6294311235747
 20
174.07847631668224
 10
381.13382261441996
 20
174.97987889080997
 10
381.62025449307146
 20
175.89232964607436
 10
382.08851196490514
 20
176.81542566990845
 10
382.5383882606035
 20
177.74875934909426
 10
382.96968472745885
 20
178.69191854975355
 10
383.3822109170929
 20
179.64448679933423
 10
383.77578466955345
 20
180.60604347051327
 10
384.150232193751
 20
181.5761639669336
 10
384.50538814419986
 20
182.55441991069398
 10
384.8410956940304
 20
183.54037933150863
 10
385.15720660423926
 20
184.5336068574533
 10
385.45358128914734
 20
185.53366390721297
 10
385.730088878037
 20
186.54010888374722
 10
385.98660727294106
 20
187.552497369287
 10
386.2230232025576
 20
188.570382321577
 10
386.43923227226753
 20
189.59331427127694
 10
386.6351390102321
 20
190.6208415204345
 10
386.81065690955086
 20
191.6525103419426
 10
386.96570846646057
 20
192.6878651798922
 10
387.1002252145585
 20
193.72644885073342
 10
387.2141477550355
 20
194.76780274515443
 10
387.30742578290483
 20
195.81146703059085
 10
387.38001810921514
 20
196.85698085427452
 10
387.4318926792388
 20
197.90388254673337
 10
387.4630265866259
 20
198.95170982565148
 10
387.4734060835195
 20
200.0
  0
LINE
  5
9A
330
17
100
AcDbEntity
  8
Layer
 62
7
100
AcDbLine
 10
23.502972204813886
 20
200.00000000000003
 30
0.0
 11
651.8259911643386
 21
199.99999999999997
 31
0.0
  0
LINE
  5
9B
330
17
100
AcDbEntity
  8
Layer
 62
7
100
AcDbLine
 10
147.06757599671883
 20
200.00000000000003
 30
0.0
 11
159.06757599671883
 21
200.00000000000003
 31
0.0
  0
LWPOLYLINE
  5
9C
330
17
100
AcDbEntity
  8
Layer
100
AcDbPolyline
 90
5
 70
0
 10
153.06757599671883
 20
205.00000000000003
 10
158.06757599671883
 20
200.00000000000003
 10
153.06757599671883
 20
195.00000000000003
 10
148.06757599671883
 20
200.00000000000003
 10
153.06757599671883
 20
205.00000000000003
  0
LINE
  5
9D
330
17
100
AcDbEntity
  8
Layer
 62
7
100
AcDbLine
 10
331.66448168457623
 20
200.0
 30
0.0
 11
343.66448168457623
 21
200.0
 31
0.0
  0
LWPOLYLINE
  5
9E
330
17
100
AcDbEntity
  8
Layer
100
AcDbPolyline
 90
5
 70
0
 10
337.66448168457623
 20
205.0
 10
342.66448168457623
 20
200.0
 10
337.66448168457623
 20
195.0
 10
332.66448168457623
 20
200.0
 10
337.66448168457623
 20
205.0
  0
LINE
  5
9F
330
17
100
AcDbEntity
  8
Layer
 62
7
100
AcDbLine
 10
516.2613873724337
 20
199.99999999999997
 30
0.0
 11
528.2613873724337
 21
199.99999999999997
 31
0.0
  0
LWPOLYLINE
  5
A0
330
17
100
AcDbEntity
  8
Layer
100
AcDbPolyline
 90
5
 70
0
 10
522.2613873724337
 20
204.99999999999997
 10
527.2613873724337
 20
199.99999999999997
 10
522.2613873724337
 20
194.99999999999997
 10
517.2613873724337
 20
199.99999999999997
 10
522.2613873724337
 20
204.99999999999997
  0
LINE
  5
A1
330
17
100
AcDbEntity
  8
Layer
 62
7
100
AcDbLine
 10
9.43337461790611
 20
178.34406611279246
 30
0.0
 11
875.1206487435952
 21
122.66602000583008
 31
0.0
  0
LINE
  5
A2
330
17
100
AcDbEntity
  8
Layer
 62
7
100
AcDbLine
 10
180.47515946769335
 20
167.3432432201356
 30
0.0
 11
192.45041646969673
 21
166.57303562736064
 31
0.0
  0
LWPOLYLINE
  5
A3
330
17
100
AcDbEntity
  8
Layer
100
AcDbPolyline
 90
5
 70
0
 10
186.78370779901795
 20
171.94782984124956
 10
191.45247838619647
 20
166.63721959342521
 10
186.14186813837213
 20
161.9684490062467
 10
181.4730975511936
 20
167.27905925407103
 10
186.78370779901795
 20
171.94782984124956
  0
LINE
  5
A4
330
17
100
AcDbEntity
  8
Layer
 62
7
100
AcDbLine
 10
393.6536792277397
 20
153.63232958310488
 30
0.0
 11
405.62893622974315
 21
152.8621219903299
 31
0.0
  0
LWPOLYLINE
  5
A5
330
17
100
AcDbEntity
  8
Layer
100
AcDbPolyline
 90
5
 70
0
 10
399.96222755906433
 20
158.23691620421886
 10
404.63099814624286
 20
152.92630595639451
 10
399.3203878984185
 20
148.257535369216
 10
394.65161731124
 20
153.56814561704033
 10
399.96222755906433
 20
158.23691620421886
  0
LINE
  5
A6
330
17
100
AcDbEntity
  8
Layer
100
AcDbLine
 10
340.46181818181816
 20
249.889
 30
0.0
 11
340.46181818181816
 21
250.889
 31
0.0
  0
LINE
  5
A7
330
17
100
AcDbEntity
  8
Layer
100
AcDbLine
 10
340.46181818181816
 20
150.111
 30
0.0
 11
340.46181818181816
 21
149.111
 31
0.0
  0
LINE
  5
A8
330
17
100
AcDbEntity
  8
Layer
100
AcDbLine
 10
387.4734060835195
 20
200.0
 30
0.0
 11
388.4734060835195
 21
200.0
 31
0.0
  0
LINE
  5
A9
330
17
100
AcDbEntity
  8
Layer
100
AcDbLine
 10
293.45023028011684
 20
200.0
 30
0.0
 11
292.45023028011684
 21
200.0
 31
0.0
  0
LINE
  5
AA
330
17
100
AcDbEntity
  8
Layer
 62
7
100
AcDbLine
 10
190.46181818181816
 20
141.87752804290855
 30
0.0
 11
190.46181818181816
 21
254.89671207451107
 31
0.0
  0
LINE
  5
AB
330
17
100
AcDbEntity
  8
Layer
 62
7
100
AcDbLine
 10
190.46181818181816
 20
177.38424245396942
 30
0.0
 11
190.46181818181816
 21
189.38424245396942
 31
0.0
  0
LWPOLYLINE
  5
AC
330
17
100
AcDbEntity
  8
Layer
100
AcDbPolyline
 90
5
 70
0
 10
185.46181818181816
 20
183.38424245396942
 10
190.46181818181816
 20
188.38424245396942
 10
195.46181818181816
 20
183.38424245396942
 10
190.46181818181816
 20
178.38424245396942
 10
185.46181818181816
 20
183.38424245396942
  0
LINE
  5
AD
330
17
100
AcDbEntity
  8
Layer
 62
7
100
AcDbLine
 10
190.46181818181816
 20
207.3899976634502
 30
0.0
 11
190.46181818181816
 21
219.3899976634502
 31
0.0
  0
LWPOLYLINE
  5
AE
330
17
100
AcDbEntity
  8
Layer
100
AcDbPolyline
 90
5
 70
0
 10
185.46181818181816
 20
213.3899976634502
 10
190.46181818181816
 20
218.3899976634502
 10
195.46181818181816
 20
213.3899976634502
 10
190.46181818181816
 20
208.3899976634502
 10
185.46181818181816
 20
213.3899976634502
  0
LINE
  5
AF
330
17
100
AcDbEntity
  8
Layer
 62
7
100
AcDbLine
 10
640.4618181818182
 20
137.2652889538155
 30
0.0
 11
640.4618181818182
 21
203.69259657698575
 31
0.0
  0
LINE
  5
B0
330
17
100
AcDbEntity
  8
Layer
 62
7
100
AcDbLine
 10
640.4618181818182
 20
156.4648466219251
 30
0.0
 11
640.4618181818182
 21
168.4648466219251
 31
0.0
  0
LWPOLYLINE
  5
B1
330
17
100
AcDbEntity
  8
Layer
100
AcDbPolyline
 90
5
 70
0
 10
635.4618181818182
 20
162.4648466219251
 10
640.4618181818182
 20
167.4648466219251
 10
645.4618181818182
 20
162.4648466219251
 10
640.4618181818182
 20
157.4648466219251
 10
635.4618181818182
 20
162.4648466219251
  0
LINE
  5
B2
330
17
100
AcDbEntity
  8
Layer
 62
7
100
AcDbLine
 10
640.4618181818182
 20
172.49303890887614
 30
0.0
 11
640.4618181818182
 21
184.49303890887614
 31
0.0
  0
LWPOLYLINE
  5
B3
330
17
100
AcDbEntity
  8
Layer
100
AcDbPolyline
 90
5
 70
0
 10
635.4618181818182
 20
178.49303890887614
 10
640.4618181818182
 20
183.49303890887614
 10
645.4618181818182
 20
178.49303890887614
 10
640.4618181818182
 20
173.49303890887614
 10
635.4618181818182
 20
178.49303890887614
  0
LWPOLYLINE
  5
B4
330
17
100
AcDbEntity
  8
NumLabel
 62
1
100
AcDbPolyline
 90
7
 70
0
 10
253.49818181818182
 20
166.51818181818183
 10
258.4981818181818
 20
166.51818181818183
 10
258.4981818181818
 20
161.51818181818183
 10
253.49818181818182
 20
161.51818181818183
 10
258.4981818181818
 20
161.51818181818183
 10
258.4981818181818
 20
156.51818181818183
 10
253.49818181818182
 20
156.51818181818183
  0
LWPOLYLINE
  5
B5
330
17
100
AcDbEntity
  8
NumLabel
 62
1
100
AcDbPolyline
 90
6
 70
0
 10
265.9981818181818
 20
166.51818181818183
 10
260.9981818181818
 20
166.51818181818183
 10
260.9981818181818
 20
161.51818181818183
 10
265.9981818181818
 20
161.51818181818183
 10
265.9981818181818
 20
156.51818181818183
 10
260.9981818181818
 20
156.51818181818183
  0
ENDSEC
  0
SECTION
  2
OBJECTS
  0
DICTIONARY
  5
A
330
0
100
AcDbDictionary
280
0
281
1
  3
ACAD_COLOR
350
B
  3
ACAD_GROUP
350
C
  3
ACAD_LAYOUT
350
D
  3
ACAD_MATERIAL
350
E
  3
ACAD_MLEADERSTYLE
350
F
  3
ACAD_MLINESTYLE
350
10
  3
ACAD_PLOTSETTINGS
350
11
  3
ACAD_PLOTSTYLENAME
350
12
  3
ACAD_SCALELIST
350
14
  3
ACAD_TABLESTYLE
350
15
  3
ACAD_VISUALSTYLE
350
16
  3
EZDXF_META
350
2D
  0
DICTIONARY
  5
B
330
A
100
AcDbDictionary
280
0
281
1
  0
DICTIONARY
  5
C
330
A
100
AcDbDictionary
280
0
281
1
  0
DICTIONARY
  5
D
330
A
100
AcDbDictionary
280
0
281
1
  3
Model
350
1A
  3
Layout1
350
1E
  0
DICTIONARY
  5
E
330
A
100
AcDbDictionary
280
0
281
1
  3
ByBlock
350
1F
  3
ByLayer
350
20
  3
Global
350
21
  0
DICTIONARY
  5
F
330
A
100
AcDbDictionary
280
0
281
1
  3
Standard
350
2C
  0
DICTIONARY
  5
10
330
A
100
AcDbDictionary
280
0
281
1
  3
Standard
350
22
  0
DICTIONARY
  5
11
330
A
100
AcDbDictionary
280
0
281
1
  0
ACDBDICTIONARYWDFLT
  5
12
330
A
100
AcDbDictionary
280
0
281
1
  3
Normal
350
13
100
AcDbDictionaryWithDefault
340
13
  0
ACDBPLACEHOLDER
  5
13
330
12
  0
DICTIONARY
  5
14
330
A
100
AcDbDictionary
280
0
281
1
  0
DICTIONARY
  5
15
330
A
100
AcDbDictionary
280
0
281
1
  0
DICTIONARY
  5
16
330
A
100
AcDbDictionary
280
0
281
1
  3
2dWireframe
350
5A
  3
Basic
350
5B
  3
Brighten
350
5C
  3
ColorChange
350
5D
  3
Conceptual
350
5E
  3
Dim
350
5F
  3
EdgeColorOff
350
60
  3
Facepattern
350
61
  3
Flat
350
62
  3
FlatWithEdges
350
63
  3
Gouraud
350
64
  3
GouraudWithEdges
350
65
  3
Hidden
350
66
  3
JitterOff
350
67
  3
Linepattern
350
68
  3
Modeling
350
69
  3
OverhangOff
350
6A
  3
Realistic
350
6B
  3
Shaded
350
6C
  3
Shaded with edges
350
6D
  3
Shades of Gray
350
6E
  3
Sketchy
350
6F
  3
Thicken
350
70
  3
Wireframe
350
71
  3
X-Ray
350
72
  0
LAYOUT
  5
1A
330
D
100
AcDbPlotSettings
  1

  2
Adobe PDF
  4
A3
  6

 40
7.5
 41
20.0
 42
7.5
 43
20.0
 44
420.0
 45
297.0
 46
0.0
 47
0.0
 48
0.0
 49
0.0
140
0.0
141
0.0
142
1.0
143
1.0
 70
1024
 72
1
 73
0
 74
5
  7

 75
16
 76
0
 77
2
 78
300
147
1.0
148
0.0
149
0.0
100
AcDbLayout
  1
Model
 70
1
 71
0
 10
0.0
 20
0.0
 11
420.0
 21
297.0
 12
0.0
 22
0.0
 32
0.0
 14
1e+20
 24
1e+20
 34
1e+20
 15
-1e+20
 25
-1e+20
 35
-1e+20
146
0.0
 13
0.0
 23
0.0
 33
0.0
 16
1.0
 26
0.0
 36
0.0
 17
0.0
 27
1.0
 37
0.0
 76
1
330
17
  0
LAYOUT
  5
1E
330
D
100
AcDbPlotSettings
  1

  2
Adobe PDF
  4
A3
  6

 40
7.5
 41
20.0
 42
7.5
 43
20.0
 44
420.0
 45
297.0
 46
0.0
 47
0.0
 48
0.0
 49
0.0
140
0.0
141
0.0
142
1.0
143
1.0
 70
0
 72
1
 73
0
 74
5
  7

 75
16
 76
0
 77
2
 78
300
147
1.0
148
0.0
149
0.0
100
AcDbLayout
  1
Layout1
 70
1
 71
1
 10
0.0
 20
0.0
 11
420.0
 21
297.0
 12
0.0
 22
0.0
 32
0.0
 14
1e+20
 24
1e+20
 34
1e+20
 15
-1e+20
 25
-1e+20
 35
-1e+20
146
0.0
 13
0.0
 23
0.0
 33
0.0
 16
1.0
 26
0.0
 36
0.0
 17
0.0
 27
1.0
 37
0.0
 76
1
330
1B
  0
MATERIAL
  5
1F
102
{ACAD_REACTORS
330
E
102
}
330
E
100
AcDbMaterial
  1
ByBlock
  2

 70
0
 40
1.0
 71
1
 41
1.0
 91
-1023410177
 42
1.0
 72
1
  3

 73
1
 74
1
 75
1
 44
0.5
 73
0
 45
1.0
 46
1.0
 77
1
  4

 78
1
 79
1
170
1
 48
1.0
171
1
  6

172
1
173
1
174
1
140
1.0
141
1.0
175
1
  7

176
1
177
1
178
1
143
1.0
179
1
  8

270
1
271
1
272
1
145
1.0
146
1.0
273
1
  9

274
1
275
1
276
1
 42
1.0
 72
1
  3

 73
1
 74
1
 75
1
 94
63
  0
MATERIAL
  5
20
102
{ACAD_REACTORS
330
E
102
}
330
E
100
AcDbMaterial
  1
ByLayer
  2

 70
0
 40
1.0
 71
1
 41
1.0
 91
-1023410177
 42
1.0
 72
1
  3

 73
1
 74
1
 75
1
 44
0.5
 73
0
 45
1.0
 46
1.0
 77
1
  4

 78
1
 79
1
170
1
 48
1.0
171
1
  6

172
1
173
1
174
1
140
1.0
141
1.0
175
1
  7

176
1
177
1
178
1
143
1.0
179
1
  8

270
1
271
1
272
1
145
1.0
146
1.0
273
1
  9

274
1
275
1
276
1
 42
1.0
 72
1
  3

 73
1
 74
1
 75
1
 94
63
  0
MATERIAL
  5
21
102
{ACAD_REACTORS
330
E
102
}
330
E
100
AcDbMaterial
  1
Global
  2

 70
0
 40
1.0
 71
1
 41
1.0
 91
-1023410177
 42
1.0
 72
1
  3

 73
1
 74
1
 75
1
 44
0.5
 73
0
 45
1.0
 46
1.0
 77
1
  4

 78
1
 79
1
170
1
 48
1.0
171
1
  6

172
1
173
1
174
1
140
1.0
141
1.0
175
1
  7

176
1
177
1
178
1
143
1.0
179
1
  8

270
1
271
1
272
1
145
1.0
146
1.0
273
1
  9

274
1
275
1
276
1
 42
1.0
 72
1
  3

 73
1
 74
1
 75
1
 94
63
  0
MLINESTYLE
  5
22
102
{ACAD_REACTORS
330
10
102
}
330
10
100
AcDbMlineStyle
  2
Standard
 70
0
  3

 62
256
 51
90.0
 52
90.0
 71
2
 49
0.5
 62
256
  6
BYLAYER
 49
-0.5
 62
256
  6
BYLAYER
  0
MLEADERSTYLE
  5
2C
102
{ACAD_REACTORS
330
F
102
}
330
F
100
AcDbMLeaderStyle
179
2
170
2
171
1
172
0
 90
2
 40
0.0
 41
0.0
173
1
 91
-1056964608
 92
-2
290
1
 42
2.0
291
1
 43
8.0
  3
Standard
 44
4.0
300

342
29
174
1
175
1
176
0
178
1
 93
-1056964608
 45
4.0
292
0
297
0
 46
4.0
 94
-1056964608
 47
1.0
 49
1.0
140
1.0
294
1
141
0.0
177
0
142
1.0
295
0
296
0
143
3.75
271
0
272
9
273
9
  0
DICTIONARY
  5
2D
330
A
100
AcDbDictionary
281
1
  3
CREATED_BY_EZDXF
350
2E
  3
WRITTEN_BY_EZDXF
350
B8
  0
DICTIONARYVAR
  5
2E
330
2D
100
DictionaryVariables
280
0
  1
1.3.0 @ 2026-01-06T17:07:14.074418+00:00
  0
VISUALSTYLE
  5
5A
102
{ACAD_REACTORS
330
16
102
}
330
16
100
AcDbVisualStyle
  2
2dWireframe
 70
4
 90
0
 40
0.6
 62
7
290
0
291
0
  0
VISUALSTYLE
  5
5B
102
{ACAD_REACTORS
330
16
102
}
330
16
100
AcDbVisualStyle
  2
Basic
 70
7
 90
1
 40
0.6
 62
7
290
0
291
1
  0
VISUALSTYLE
  5
5C
102
{ACAD_REACTORS
330
16
102
}
330
16
100
AcDbVisualStyle
  2
Brighten
 70
12
 90
2
 40
0.6
 62
7
290
0
291
1
  0
VISUALSTYLE
  5
5D
102
{ACAD_REACTORS
330
16
102
}
330
16
100
AcDbVisualStyle
  2
ColorChange
 70
16
 90
2
 40
0.6
 62
8
290
0
291
1
  0
VISUALSTYLE
  5
5E
102
{ACAD_REACTORS
330
16
102
}
330
16
100
AcDbVisualStyle
  2
Conceptual
 70
9
 90
3
 40
0.6
 62
7
290
0
291
0
  0
VISUALSTYLE
  5
5F
102
{ACAD_REACTORS
330
16
102
}
330
16
100
AcDbVisualStyle
  2
Dim
 70
11
 90
2
 40
0.6
 62
7
290
0
291
1
  0
VISUALSTYLE
  5
60
102
{ACAD_REACTORS
330
16
102
}
330
16
100
AcDbVisualStyle
  2
EdgeColorOff
 70
22
 90
2
 40
0.6
 62
7
290
0
291
1
  0
VISUALSTYLE
  5
61
102
{ACAD_REACTORS
330
16
102
}
330
16
100
AcDbVisualStyle
  2
Facepattern
 70
15
 90
2
 40
0.6
 62
7
290
0
291
1
  0
VISUALSTYLE
  5
62
102
{ACAD_REACTORS
330
16
102
}
330
16
100
AcDbVisualStyle
  2
Flat
 70
0
 90
2
 40
0.6
 62
7
290
0
291
1
  0
VISUALSTYLE
  5
63
102
{ACAD_REACTORS
330
16
102
}
330
16
100
AcDbVisualStyle
  2
FlatWithEdges
 70
1
 90
2
 40
0.6
 62
7
290
0
291
1
  0
VISUALSTYLE
  5
64
102
{ACAD_REACTORS
330
16
102
}
330
16
100
AcDbVisualStyle
  2
Gouraud
 70
2
 90
2
 40
0.6
 62
7
290
0
291
1
  0
VISUALSTYLE
  5
65
102
{ACAD_REACTORS
330
16
102
}
330
16
100
AcDbVisualStyle
  2
GouraudWithEdges
 70
3
 90
2
 40
0.6
 62
7
290
0
291
1
  0
VISUALSTYLE
  5
66
102
{ACAD_REACTORS
330
16
102
}
330
16
100
AcDbVisualStyle
  2
Hidden
 70
6
 90
1
 40
0.6
 62
7
290
0
291
0
  0
VISUALSTYLE
  5
67
102
{ACAD_REACTORS
330
16
102
}
330
16
100
AcDbVisualStyle
  2
JitterOff
 70
20
 90
2
 40
0.6
 62
7
290
0
291
1
  0
VISUALSTYLE
  5
68
102
{ACAD_REACTORS
330
16
102
}
330
16
100
AcDbVisualStyle
  2
Linepattern
 70
14
 90
2
 40
0.6
 62
7
290
0
291
1
  0
VISUALSTYLE
  5
69
102
{ACAD_REACTORS
330
16
102
}
330
16
100
AcDbVisualStyle
  2
Modeling
 70
10
 90
2
 40
0.6
 62
7
290
0
291
0
  0
VISUALSTYLE
  5
6A
102
{ACAD_REACTORS
330
16
102
}
330
16
100
AcDbVisualStyle
  2
OverhangOff
 70
21
 90
2
 40
0.6
 62
7
290
0
291
1
  0
VISUALSTYLE
  5
6B
102
{ACAD_REACTORS
330
16
102
}
330
16
100
AcDbVisualStyle
  2
Realistic
 70
8
 90
2
 40
0.6
 62
7
290
0
291
0
  0
VISUALSTYLE
  5
6C
102
{ACAD_REACTORS
330
16
102
}
330
16
100
AcDbVisualStyle
  2
Shaded
 70
27
 90
2
 40
0.6
 62
7
290
0
291
0
  0
VISUALSTYLE
  5
6D
102
{ACAD_REACTORS
330
16
102
}
330
16
100
AcDbVisualStyle
  2
Shaded with edges
 70
26
 90
2
 40
0.6
 62
7
290
0
291
0
  0
VISUALSTYLE
  5
6E
102
{ACAD_REACTORS
330
16
102
}
330
16
100
AcDbVisualStyle
  2
Shades of Gray
 70
23
 90
2
 40
0.6
 62
7
290
0
291
0
  0
VISUALSTYLE
  5
6F
102
{ACAD_REACTORS
330
16
102
}
330
16
100
AcDbVisualStyle
  2
Sketchy
 70
24
 90
1
 40
0.6
 62
7
290
0
291
0
  0
VISUALSTYLE
  5
70
102
{ACAD_REACTORS
330
16
102
}
330
16
100
AcDbVisualStyle
  2
Thicken
 70
13
 90
2
 40
0.6
 62
7
290
0
291
1
  0
VISUALSTYLE
  5
71
102
{ACAD_REACTORS
330
16
102
}
330
16
100
AcDbVisualStyle
  2
Wireframe
 70
5
 90
0
 40
0.6
 62
7
290
0
291
0
  0
VISUALSTYLE
  5
72
102
{ACAD_REACTORS
330
16
102
}
330
16
100
AcDbVisualStyle
  2
X-Ray
 70
25
 90
2
 40
0.5
 62
7
290
0
291
0
  0
DICTIONARYVAR
  5
B8
330
2D
100
DictionaryVariables
280
0
  1
1.3.0 @ 2026-01-06T17:07:14.218645+00:00
  0
ENDSEC
  0
EOF
