<?xml version="1.0" encoding="utf-8" standalone="no"?>
<!DOCTYPE svg PUBLIC "-//W3C//DTD SVG 1.1//EN"
  "http://www.w3.org/Graphics/SVG/1.1/DTD/svg11.dtd">
<svg xmlns:xlink="http://www.w3.org/1999/xlink" width="1152pt" height="322.467058pt" viewBox="0 0 1152 322.467058" xmlns="http://www.w3.org/2000/svg" version="1.1">
 <metadata>
  <rdf:RDF xmlns:dc="http://purl.org/dc/elements/1.1/" xmlns:cc="http://creativecommons.org/ns#" xmlns:rdf="http://www.w3.org/1999/02/22-rdf-syntax-ns#">
   <cc:Work>
    <dc:type rdf:resource="http://purl.org/dc/dcmitype/StillImage"/>
    <dc:date>2026-01-07T02:07:11.620713</dc:date>
    <dc:format>image/svg+xml</dc:format>
    <dc:creator>
     <cc:Agent>
      <dc:title>Matplotlib v3.10.1, https://matplotlib.org/</dc:title>
     </cc:Agent>
    </dc:creator>
   </cc:Work>
  </rdf:RDF>
 </metadata>
 <defs>
  <style type="text/css">*{stroke-linejoin: round; stroke-linecap: butt}</style>
 </defs>
 <g id="figure_1">
  <g id="patch_1">
   <path d="M 0 322.467058 
L 1152 322.467058 
L 1152 0 
L 0 0 
z
" style="fill: #ffffff"/>
  </g>
  <g id="axes_1">
   <g id="patch_2">
    <path d="M 0 322.467058 
L 1152 322.467058 
L 1152 0 
L 0 0 
z
" style="fill: #212830"/>
   </g>
   <g id="patch_3">
    <path d="M 1099.636364 42.138718 
L 1086.991404 40.291935 
L 1065.554609 37.343542 
L 1044.074673 34.56172 
L 1022.566937 31.946249 
L 1001.047103 29.503301 
L 979.524132 27.241315 
L 957.997363 25.167399 
L 936.464392 23.281352 
L 914.931776 21.578719 
L 893.412595 20.055974 
L 871.91674 18.715913 
L 850.450671 17.562055 
L 829.02321 16.598048 
L 807.640869 15.827466 
L 786.304808 15.251725 
L 765.017707 14.866516 
L 743.795576 14.667279 
L 722.657862 14.657594 
L 701.611165 14.847959 
L 680.654427 15.242918 
L 659.792982 15.838671 
L 639.040362 16.630757 
L 618.408236 17.617629 
L 597.912921 18.797311 
L 577.578928 20.173968 
L 557.420505 21.761302 
L 537.434428 23.569396 
L 517.619748 25.591238 
L 497.995052 27.81209 
L 478.589883 30.223995 
L 459.434334 32.829198 
L 440.560938 35.633834 
L 421.992051 38.648229 
L 403.732832 41.872846 
L 385.797678 45.284013 
L 368.235815 48.84907 
L 351.108779 52.555011 
L 334.462795 56.405616 
L 318.325238 60.402615 
L 302.708809 64.534551 
L 287.624155 68.768396 
L 273.105212 73.052727 
L 259.206153 77.351655 
L 245.958879 81.664735 
L 233.352182 85.999095 
L 221.356559 90.339865 
L 209.9507 94.658872 
L 199.120781 98.935443 
L 188.852997 103.15938 
L 179.12961 107.325666 
L 169.929686 111.435042 
L 161.225734 115.497209 
L 152.983049 119.523094 
L 145.167052 123.516112 
L 137.750412 127.471215 
L 130.717347 131.381509 
L 124.057724 135.248696 
L 117.758482 139.082953 
L 111.799844 142.894221 
L 106.161947 146.679106 
L 100.830765 150.427738 
L 95.794838 154.132436 
L 91.042815 157.793313 
L 86.568746 161.409775 
L 82.376783 164.98497 
L 78.475829 168.524217 
L 74.870865 172.037726 
L 71.558915 175.532855 
L 68.530917 179.009655 
L 65.769049 182.47097 
L 63.253204 185.911747 
L 60.975916 189.30885 
L 58.953387 192.624657 
L 57.210184 195.845649 
L 55.754578 198.998095 
L 54.574524 202.114922 
L 53.652341 205.197079 
L 52.976882 208.213825 
L 52.54319 211.217677 
L 52.363636 214.14176 
L 52.443458 217.044736 
L 52.79664 219.878669 
L 53.446688 222.638906 
L 54.426451 225.349226 
L 55.759704 228.036523 
L 57.442517 230.704435 
L 59.451062 233.332278 
L 61.775469 235.898075 
L 64.431535 238.393425 
L 67.441487 240.819909 
L 70.809277 243.177951 
L 74.528927 245.464808 
L 78.600451 247.680611 
L 83.032706 249.83267 
L 87.827963 251.930635 
L 92.985787 253.979757 
L 98.507706 255.980589 
L 104.403376 257.932302 
L 110.684349 259.837398 
L 117.36496 261.701052 
L 124.464294 263.530637 
L 132.000966 265.335064 
L 139.994765 267.118556 
L 148.472422 268.879568 
L 157.474106 270.616494 
L 167.043883 272.334509 
L 177.223828 274.040959 
L 188.055919 275.738088 
L 199.592139 277.422298 
L 211.89017 279.090974 
L 225.00222 280.746235 
L 238.968666 282.387373 
L 253.820585 284.004507 
L 269.578493 285.584771 
L 286.242864 287.119848 
L 303.78372 288.601642 
L 322.149995 290.014817 
L 341.284253 291.347596 
L 361.114028 292.598287 
L 381.554439 293.762343 
L 402.536309 294.833296 
L 445.885847 296.710465 
L 462.67542 297.31832 
L 462.596518 299.497694 
L 490.73042 300.423025 
L 536.891962 301.73766 
L 583.688685 302.811747 
L 631.282115 303.592312 
L 728.278113 304.995227 
L 801.828526 305.696439 
L 950.668071 306.907076 
L 1099.636364 307.809465 
L 1099.636364 42.138718 
L 1099.636364 42.138718 
" clip-path="url(#p95a5bab38a)" style="fill: none; stroke: #ff0000; stroke-width: 0.72; stroke-linejoin: miter"/>
   </g>
   <g id="patch_4">
    <path d="M 639.628499 243.648431 
L 650.532511 243.648431 
L 650.532511 254.552443 
L 639.628499 254.552443 
L 639.628499 265.456455 
L 650.532511 265.456455 
" clip-path="url(#p95a5bab38a)" style="fill: none; stroke: #ff0000; stroke-width: 0.72; stroke-linejoin: miter"/>
   </g>
   <g id="patch_5">
    <path d="M 655.984517 254.552443 
L 655.984517 243.648431 
L 666.888528 243.648431 
L 666.888528 265.456455 
" clip-path="url(#p95a5bab38a)" style="fill: none; stroke: #ff0000; stroke-width: 0.72; stroke-linejoin: miter"/>
   </g>
   <g id="patch_6">
    <path d="M 632.656812 25.669327 
L 623.943567 26.086162 
L 623.526732 17.372918 
L 632.239976 16.956082 
L 632.656812 25.669327 
" clip-path="url(#p95a5bab38a)" style="fill: none; stroke: #ff0000; stroke-width: 0.72; stroke-linejoin: miter"/>
   </g>
   <g id="patch_7">
    <path d="M 275.536819 81.431574 
L 267.203188 84.009361 
L 264.625402 75.67573 
L 272.959033 73.097944 
L 275.536819 81.431574 
" clip-path="url(#p95a5bab38a)" style="fill: none; stroke: #ff0000; stroke-width: 0.72; stroke-linejoin: miter"/>
   </g>
   <g id="patch_8">
    <path d="M 94.907644 168.628321 
L 91.589865 171.459564 
L 84.511756 163.165117 
L 87.829535 160.333874 
L 94.907644 168.628321 
" clip-path="url(#p95a5bab38a)" style="fill: none; stroke: #ff0000; stroke-width: 0.72; stroke-linejoin: miter"/>
   </g>
   <g id="patch_9">
    <path d="M 74.35019 232.3447 
L 77.926551 234.841344 
L 71.68494 243.782248 
L 68.108579 241.285604 
L 74.35019 232.3447 
" clip-path="url(#p95a5bab38a)" style="fill: none; stroke: #ff0000; stroke-width: 0.72; stroke-linejoin: miter"/>
   </g>
   <g id="patch_10">
    <path d="M 354.510654 283.441222 
L 363.216566 283.990289 
L 362.667499 292.696201 
L 353.961587 292.147134 
L 354.510654 283.441222 
" clip-path="url(#p95a5bab38a)" style="fill: none; stroke: #ff0000; stroke-width: 0.72; stroke-linejoin: miter"/>
   </g>
   <g id="patch_11">
    <path d="M 964.332286 160.909213 
L 964.230198 155.747133 
L 963.924113 150.59417 
L 963.414572 145.459425 
L 962.702476 140.351965 
L 961.789081 135.280811 
L 960.676001 130.254919 
L 959.365201 125.283166 
L 957.858998 120.374331 
L 956.16005 115.537085 
L 954.271358 110.779971 
L 952.196258 106.111389 
L 949.938414 101.539585 
L 947.501815 97.072633 
L 944.890763 92.718423 
L 942.10987 88.484644 
L 939.164047 84.378773 
L 936.058497 80.408062 
L 932.798704 76.579524 
L 929.390426 72.89992 
L 925.839682 69.375748 
L 922.152742 66.013233 
L 918.336119 62.818313 
L 914.396552 59.79663 
L 910.341 56.953522 
L 906.176625 54.294009 
L 901.910781 51.822788 
L 897.551003 49.544224 
L 893.10499 47.462341 
L 888.580594 45.580816 
L 883.985806 43.902971 
L 879.328741 42.43177 
L 874.617623 41.169811 
L 869.860772 40.119323 
L 865.066591 39.282161 
L 860.243545 38.659803 
L 855.400152 38.25335 
L 850.544968 38.063518 
L 845.686565 38.090643 
L 840.833525 38.334676 
L 835.994418 38.795188 
L 831.177792 39.471365 
L 826.392151 40.362011 
L 821.645949 41.465556 
L 816.947568 42.780049 
L 812.305305 44.303169 
L 807.727359 46.032226 
L 803.221815 47.964166 
L 798.79663 50.095578 
L 794.45962 52.422697 
L 790.218444 54.941413 
L 786.080592 57.647278 
L 782.053372 60.535513 
L 778.143898 63.601017 
L 774.359072 66.838377 
L 770.70558 70.241874 
L 767.189874 73.805498 
L 763.818163 77.522956 
L 760.596402 81.387681 
L 757.53028 85.392849 
L 754.625213 89.531385 
L 751.886332 93.795982 
L 749.318472 98.179106 
L 746.926171 102.673018 
L 744.713652 107.26978 
L 742.684823 111.961275 
L 740.843268 116.739216 
L 739.192237 121.595165 
L 737.734649 126.520547 
L 736.473076 131.506662 
L 735.409746 136.544705 
L 734.546539 141.625777 
L 733.884977 146.740906 
L 733.42623 151.881058 
L 733.171108 157.037154 
L 733.120061 162.200089 
L 733.273179 167.360743 
L 733.630193 172.510004 
L 734.190471 177.638777 
L 734.953024 182.738004 
L 735.916505 187.798679 
L 737.079213 192.811864 
L 738.439094 197.768707 
L 739.993747 202.660453 
L 741.740425 207.478462 
L 743.676045 212.214225 
L 745.797187 216.859379 
L 748.100106 221.40572 
L 750.580734 225.845218 
L 753.23469 230.170033 
L 756.057287 234.372528 
L 759.043541 238.445279 
L 762.188177 242.381095 
L 765.485641 246.173023 
L 768.93011 249.814368 
L 772.515501 253.298698 
L 776.235481 256.61986 
L 780.08348 259.771988 
L 784.052704 262.749515 
L 788.136141 265.547183 
L 792.32658 268.16005 
L 796.616621 270.583503 
L 800.998686 272.81326 
L 805.465036 274.845385 
L 810.007784 276.676288 
L 814.618907 278.302735 
L 819.29026 279.721855 
L 824.013595 280.931141 
L 828.780569 281.928456 
L 833.582762 282.712041 
L 838.411695 283.280511 
L 843.258839 283.632861 
L 848.115632 283.76847 
L 852.973498 283.687099 
L 857.823858 283.38889 
L 862.658144 282.874371 
L 867.46782 282.14445 
L 872.244391 281.200417 
L 876.97942 280.043938 
L 881.664546 278.677056 
L 886.291495 277.102186 
L 890.852094 275.322108 
L 895.338288 273.339966 
L 899.742156 271.159261 
L 904.05592 268.783844 
L 908.27196 266.21791 
L 912.382832 263.465992 
L 916.381274 260.532949 
L 920.260225 257.423961 
L 924.012835 254.14452 
L 927.632476 250.700416 
L 931.112756 247.097732 
L 934.447528 243.342832 
L 937.630902 239.442346 
L 940.657257 235.403164 
L 943.521247 231.232418 
L 946.217815 226.937475 
L 948.742197 222.52592 
L 951.089937 218.005545 
L 953.256887 213.384331 
L 955.239221 208.670442 
L 957.033437 203.872202 
L 958.636367 198.998086 
L 960.04518 194.056701 
L 961.257387 189.056775 
L 962.270848 184.007137 
L 963.083773 178.916706 
L 963.694727 173.794473 
L 964.10263 168.649483 
L 964.306761 163.490822 
L 964.332286 160.909213 
L 964.332286 160.909213 
" clip-path="url(#p95a5bab38a)" style="fill: none; stroke: #ff0000; stroke-width: 0.72; stroke-linejoin: miter"/>
   </g>
   <g id="patch_12">
    <path d="M 397.763563 150.005201 
L 408.667574 160.909213 
L 397.763563 171.813224 
L 386.859551 160.909213 
L 397.763563 150.005201 
" clip-path="url(#p95a5bab38a)" style="fill: none; stroke: #ff0000; stroke-width: 0.72; stroke-linejoin: miter"/>
   </g>
   <g id="patch_13">
    <path d="M 842.364067 150.005201 
L 853.268078 160.909213 
L 842.364067 171.813224 
L 831.460055 160.909213 
L 842.364067 150.005201 
" clip-path="url(#p95a5bab38a)" style="fill: none; stroke: #ff0000; stroke-width: 0.72; stroke-linejoin: miter"/>
   </g>
   <g id="patch_14">
    <path d="M 478.130482 226.563803 
L 488.309714 238.147334 
L 476.726184 248.326566 
L 466.546952 236.743035 
L 478.130482 226.563803 
" clip-path="url(#p95a5bab38a)" style="fill: none; stroke: #ff0000; stroke-width: 0.72; stroke-linejoin: miter"/>
   </g>
   <g id="patch_15">
    <path d="M 991.342011 259.680096 
L 1001.521243 271.263627 
L 989.937713 281.442859 
L 979.75848 269.859329 
L 991.342011 259.680096 
" clip-path="url(#p95a5bab38a)" style="fill: none; stroke: #ff0000; stroke-width: 0.72; stroke-linejoin: miter"/>
   </g>
   <g id="patch_16">
    <path d="M 510.698616 200.417771 
L 521.602628 189.513759 
L 532.50664 200.417771 
L 521.602628 211.321783 
L 510.698616 200.417771 
" clip-path="url(#p95a5bab38a)" style="fill: none; stroke: #ff0000; stroke-width: 0.72; stroke-linejoin: miter"/>
   </g>
   <g id="patch_17">
    <path d="M 510.698616 126.083438 
L 521.602628 115.179426 
L 532.50664 126.083438 
L 521.602628 136.98745 
L 510.698616 126.083438 
" clip-path="url(#p95a5bab38a)" style="fill: none; stroke: #ff0000; stroke-width: 0.72; stroke-linejoin: miter"/>
   </g>
   <g id="line2d_1">
    <path d="M 87.188011 160.909213 
L 1099.636364 160.909213 
" clip-path="url(#p95a5bab38a)" style="fill: none; stroke: #ffffff; stroke-width: 0.72; stroke-linecap: square"/>
   </g>
   <g id="line2d_2">
    <path d="M 384.678748 160.909213 
L 410.848377 160.909213 
" clip-path="url(#p95a5bab38a)" style="fill: none; stroke: #ffffff; stroke-width: 0.72; stroke-linecap: square"/>
   </g>
   <g id="line2d_3">
    <path d="M 829.279252 160.909213 
L 855.448881 160.909213 
" clip-path="url(#p95a5bab38a)" style="fill: none; stroke: #ffffff; stroke-width: 0.72; stroke-linecap: square"/>
   </g>
   <g id="line2d_4">
    <path d="M 52.713314 210.039356 
L 1099.636364 277.594757 
" clip-path="url(#p95a5bab38a)" style="fill: none; stroke: #ffffff; stroke-width: 0.72; stroke-linecap: square"/>
   </g>
   <g id="line2d_5">
    <path d="M 464.370675 236.602606 
L 490.485991 238.287763 
" clip-path="url(#p95a5bab38a)" style="fill: none; stroke: #ffffff; stroke-width: 0.72; stroke-linecap: square"/>
   </g>
   <g id="line2d_6">
    <path d="M 977.582204 269.718899 
L 1003.697519 271.404057 
" clip-path="url(#p95a5bab38a)" style="fill: none; stroke: #ffffff; stroke-width: 0.72; stroke-linecap: square"/>
   </g>
   <g id="line2d_7">
    <path d="M 848.722983 38.048259 
L 848.722983 35.867457 
" clip-path="url(#p95a5bab38a)" style="fill: none; stroke: #ff0000; stroke-width: 0.72; stroke-linecap: square"/>
   </g>
   <g id="line2d_8">
    <path d="M 848.722983 283.770166 
L 848.722983 285.950968 
" clip-path="url(#p95a5bab38a)" style="fill: none; stroke: #ff0000; stroke-width: 0.72; stroke-linecap: square"/>
   </g>
   <g id="line2d_9">
    <path d="M 964.332286 160.909213 
L 966.513089 160.909213 
" clip-path="url(#p95a5bab38a)" style="fill: none; stroke: #ff0000; stroke-width: 0.72; stroke-linecap: square"/>
   </g>
   <g id="line2d_10">
    <path d="M 733.113679 160.909213 
L 730.932877 160.909213 
" clip-path="url(#p95a5bab38a)" style="fill: none; stroke: #ff0000; stroke-width: 0.72; stroke-linecap: square"/>
   </g>
   <g id="line2d_11">
    <path d="M 521.602628 301.316375 
L 521.602628 25.184835 
" clip-path="url(#p95a5bab38a)" style="fill: none; stroke: #ffffff; stroke-width: 0.72; stroke-linecap: square"/>
   </g>
   <g id="line2d_12">
    <path d="M 521.602628 213.502585 
L 521.602628 187.332957 
" clip-path="url(#p95a5bab38a)" style="fill: none; stroke: #ffffff; stroke-width: 0.72; stroke-linecap: square"/>
   </g>
   <g id="line2d_13">
    <path d="M 521.602628 139.168252 
L 521.602628 112.998624 
" clip-path="url(#p95a5bab38a)" style="fill: none; stroke: #ffffff; stroke-width: 0.72; stroke-linecap: square"/>
   </g>
  </g>
 </g>
 <defs>
  <clipPath id="p95a5bab38a">
   <rect x="0" y="0" width="1152" height="322.467058"/>
  </clipPath>
 </defs>
</svg>
