<?xml version="1.0" encoding="utf-8" standalone="no"?>
<!DOCTYPE svg PUBLIC "-//W3C//DTD SVG 1.1//EN"
  "http://www.w3.org/Graphics/SVG/1.1/DTD/svg11.dtd">
<svg xmlns:xlink="http://www.w3.org/1999/xlink" width="1152pt" height="199.631639pt" viewBox="0 0 1152 199.631639" xmlns="http://www.w3.org/2000/svg" version="1.1">
 <metadata>
  <rdf:RDF xmlns:dc="http://purl.org/dc/elements/1.1/" xmlns:cc="http://creativecommons.org/ns#" xmlns:rdf="http://www.w3.org/1999/02/22-rdf-syntax-ns#">
   <cc:Work>
    <dc:type rdf:resource="http://purl.org/dc/dcmitype/StillImage"/>
    <dc:date>2026-01-07T02:07:24.812631</dc:date>
    <dc:format>image/svg+xml</dc:format>
    <dc:creator>
     <cc:Agent>
      <dc:title>Matplotlib v3.10.1, https://matplotlib.org/</dc:title>
     </cc:Agent>
    </dc:creator>
   </cc:Work>
  </rdf:RDF>
 </metadata>
 <defs>
  <style type="text/css">*{stroke-linejoin: round; stroke-linecap: butt}</style>
 </defs>
 <g id="figure_1">
  <g id="patch_1">
   <path d="M 0 199.631639 
L 1152 199.631639 
L 1152 0 
L 0 0 
z
" style="fill: #ffffff"/>
  </g>
  <g id="axes_1">
   <g id="patch_2">
    <path d="M 0 199.631639 
L 1152 199.631639 
L 1152 0 
L 0 0 
z
" style="fill: #212830"/>
   </g>
   <g id="patch_3">
    <path d="M 1099.636364 98.888692 
L 1082.567199 94.271949 
L 1057.700241 87.728335 
L 1032.812999 81.390856 
L 1007.933034 75.321112 
L 982.955065 69.501301 
L 957.945202 63.8972 
L 932.922075 58.569028 
L 907.822062 53.485606 
L 882.712888 48.708432 
L 857.512223 44.163893 
L 832.306283 39.903631 
L 807.009247 35.912902 
L 781.689085 32.167768 
L 756.297359 28.682655 
L 730.914308 25.446 
L 705.517287 22.500553 
L 680.060055 19.803354 
L 654.606985 17.397778 
L 629.170932 15.271555 
L 603.706693 13.450608 
L 578.222885 11.931807 
L 552.775471 10.699761 
L 527.325433 9.828516 
L 514.623542 9.498628 
L 489.186584 9.137014 
L 463.801587 9.105111 
L 451.144105 9.22771 
L 425.835196 9.794744 
L 400.551532 10.750323 
L 387.947811 11.383775 
L 362.767002 12.982966 
L 337.69059 14.99328 
L 325.243933 16.182621 
L 312.812192 17.519938 
L 300.427254 18.97639 
L 288.091782 20.581862 
L 275.796043 22.339757 
L 263.521594 24.25405 
L 251.302503 26.292734 
L 239.193879 28.476198 
L 227.184319 30.834323 
L 215.285183 33.376517 
L 203.486457 36.116402 
L 191.822384 39.056889 
L 180.260613 42.22326 
L 168.888497 45.558597 
L 157.726377 49.139004 
L 146.801037 52.925875 
L 136.204348 56.927207 
L 125.977063 61.139409 
L 116.246699 65.511349 
L 107.145763 69.995456 
L 98.745688 74.57554 
L 91.190581 79.059586 
L 84.570361 83.390263 
L 78.87316 87.504279 
L 74.027198 91.353019 
L 70.010827 94.814458 
L 66.637625 98.122843 
L 63.832401 101.079816 
L 61.557686 103.7442 
L 59.693916 106.262354 
L 58.150197 108.642361 
L 56.894073 110.802527 
L 55.865096 112.853918 
L 54.293426 116.597429 
L 53.283508 119.812171 
L 52.686513 122.637415 
L 52.363636 125.088443 
L 52.747046 129.995264 
L 53.039448 131.305019 
L 53.51799 132.72618 
L 54.197261 134.244923 
L 55.094589 135.849581 
L 56.241003 137.540435 
L 57.664903 139.312438 
L 59.390815 141.151738 
L 61.467288 143.048755 
L 63.967298 144.997554 
L 67.000015 147.005591 
L 70.670601 149.096511 
L 75.004933 151.288724 
L 80.046158 153.556555 
L 85.999312 155.840033 
L 93.03442 158.13462 
L 101.142153 160.478307 
L 110.174005 162.828324 
L 120.081634 165.034664 
L 130.764318 167.112003 
L 141.926929 169.055915 
L 153.455976 170.785508 
L 165.338228 172.291514 
L 189.98244 174.995002 
L 202.3217 176.233759 
L 214.714763 177.247189 
L 252.765011 179.807452 
L 278.139335 181.188305 
L 303.718115 182.196183 
L 325.681038 182.920366 
L 325.540304 187.309772 
L 355.06745 188.156231 
L 380.726464 188.724315 
L 445.532836 189.73545 
L 484.483074 190.119817 
L 575.677889 190.527489 
L 605.780787 190.557473 
L 1099.636364 98.888692 
L 1099.636364 98.888692 
" clip-path="url(#p55e41a1bcb)" style="fill: none; stroke: #ff0000; stroke-width: 0.72; stroke-linejoin: miter"/>
   </g>
   <g id="patch_4">
    <path d="M 964.389715 77.320039 
L 952.955847 74.786964 
L 955.488923 63.353096 
L 966.922791 65.886171 
L 964.389715 77.320039 
" clip-path="url(#p55e41a1bcb)" style="fill: none; stroke: #ff0000; stroke-width: 0.72; stroke-linejoin: miter"/>
   </g>
   <g id="patch_5">
    <path d="M 438.188402 21.185276 
L 426.481349 21.493039 
L 426.173585 9.785987 
L 437.880638 9.478223 
L 438.188402 21.185276 
" clip-path="url(#p55e41a1bcb)" style="fill: none; stroke: #ff0000; stroke-width: 0.72; stroke-linejoin: miter"/>
   </g>
   <g id="patch_6">
    <path d="M 201.877948 48.599768 
L 190.522358 51.4634 
L 187.658726 40.10781 
L 199.014316 37.244178 
L 201.877948 48.599768 
" clip-path="url(#p55e41a1bcb)" style="fill: none; stroke: #ff0000; stroke-width: 0.72; stroke-linejoin: miter"/>
   </g>
   <g id="patch_7">
    <path d="M 85.315579 100.944613 
L 80.886366 104.774694 
L 71.311162 93.701662 
L 75.740375 89.871581 
L 85.315579 100.944613 
" clip-path="url(#p55e41a1bcb)" style="fill: none; stroke: #ff0000; stroke-width: 0.72; stroke-linejoin: miter"/>
   </g>
   <g id="patch_8">
    <path d="M 70.265364 131.347081 
L 74.89788 134.928596 
L 65.944093 146.509886 
L 61.311577 142.928371 
L 70.265364 131.347081 
" clip-path="url(#p55e41a1bcb)" style="fill: none; stroke: #ff0000; stroke-width: 0.72; stroke-linejoin: miter"/>
   </g>
   <g id="patch_9">
    <path d="M 250.674468 167.953482 
L 262.365442 168.639733 
L 261.679191 180.330707 
L 249.988217 179.644456 
L 250.674468 167.953482 
" clip-path="url(#p55e41a1bcb)" style="fill: none; stroke: #ff0000; stroke-width: 0.72; stroke-linejoin: miter"/>
   </g>
   <g id="patch_10">
    <path d="M 653.569765 99.252155 
L 653.427339 94.680964 
L 653.000626 90.127935 
L 652.291321 85.611155 
L 651.302243 81.148572 
L 650.037322 76.757913 
L 648.501581 72.456624 
L 646.701124 68.261792 
L 644.643104 64.190085 
L 642.335696 60.257678 
L 639.788068 56.480195 
L 637.010342 52.872645 
L 634.013553 49.449359 
L 630.809608 46.223939 
L 627.411236 43.209198 
L 623.831939 40.417115 
L 620.085936 37.858782 
L 616.188112 35.544363 
L 612.153951 33.483054 
L 607.999482 31.683044 
L 603.74121 30.151485 
L 599.396053 28.894461 
L 594.981274 27.916967 
L 590.514413 27.222885 
L 586.013217 26.814974 
L 581.495569 26.694855 
L 576.979417 26.863004 
L 572.482704 27.318753 
L 568.023296 28.060292 
L 563.618909 29.084675 
L 559.287043 30.387831 
L 555.044906 31.964584 
L 550.909355 33.808668 
L 546.896817 35.912759 
L 543.023237 38.268495 
L 539.304002 40.866518 
L 535.75389 43.696505 
L 532.387005 46.747214 
L 529.216724 50.006524 
L 526.255642 53.461485 
L 523.515523 57.098372 
L 521.007255 60.902735 
L 518.740801 64.859459 
L 516.725167 68.952825 
L 514.968361 73.166569 
L 513.477362 77.48395 
L 512.258094 81.887817 
L 511.315402 86.360671 
L 510.653031 90.884743 
L 510.273612 95.442058 
L 510.178652 100.014511 
L 510.368529 104.583934 
L 510.842489 109.132175 
L 511.598648 113.641163 
L 512.634003 118.092984 
L 513.94444 122.46995 
L 515.524752 126.754673 
L 517.368661 130.930129 
L 519.468841 134.979728 
L 521.816949 138.887384 
L 524.403654 142.637569 
L 527.218681 146.215385 
L 530.250846 149.606617 
L 533.4881 152.797792 
L 536.917584 155.776232 
L 540.525672 158.530102 
L 544.298029 161.048463 
L 548.219667 163.321308 
L 552.275005 165.339609 
L 556.447933 167.095345 
L 560.721872 168.581542 
L 565.079839 169.792294 
L 569.504523 170.722793 
L 573.978344 171.36934 
L 578.483526 171.729367 
L 583.002172 171.801444 
L 587.516329 171.585285 
L 592.008061 171.081747 
L 596.459525 170.292833 
L 600.853033 169.221675 
L 605.171131 167.87253 
L 609.396663 166.250758 
L 613.512841 164.362802 
L 617.503312 162.216163 
L 621.352221 159.819369 
L 625.044277 157.181943 
L 628.564812 154.314364 
L 631.899838 151.228023 
L 635.036105 147.935184 
L 637.961154 144.448928 
L 640.663363 140.783106 
L 643.131995 136.952283 
L 645.357245 132.971679 
L 647.330269 128.857107 
L 649.043231 124.624915 
L 650.489324 120.291918 
L 651.662802 115.875331 
L 652.559004 111.3927 
L 653.17437 106.861835 
L 653.506453 102.300737 
L 653.569765 99.252155 
L 653.569765 99.252155 
" clip-path="url(#p55e41a1bcb)" style="fill: none; stroke: #ff0000; stroke-width: 0.72; stroke-linejoin: miter"/>
   </g>
   <g id="line2d_1">
    <path d="M 65.566268 99.252155 
L 1097.678247 99.252155 
" clip-path="url(#p55e41a1bcb)" style="fill: none; stroke: #ffffff; stroke-width: 0.72; stroke-linecap: square"/>
   </g>
   <g id="line2d_2">
    <path d="M 265.840338 99.252155 
L 300.973631 99.252155 
" clip-path="url(#p55e41a1bcb)" style="fill: none; stroke: #ffffff; stroke-width: 0.72; stroke-linecap: square"/>
   </g>
   <g id="patch_11">
    <path d="M 283.406984 84.613283 
L 298.045856 99.252155 
L 283.406984 113.891027 
L 268.768112 99.252155 
L 283.406984 84.613283 
" clip-path="url(#p55e41a1bcb)" style="fill: none; stroke: #ff0000; stroke-width: 0.72; stroke-linejoin: miter"/>
   </g>
   <g id="line2d_3">
    <path d="M 564.055611 99.252155 
L 599.188904 99.252155 
" clip-path="url(#p55e41a1bcb)" style="fill: none; stroke: #ffffff; stroke-width: 0.72; stroke-linecap: square"/>
   </g>
   <g id="patch_12">
    <path d="M 581.622258 84.613283 
L 596.26113 99.252155 
L 581.622258 113.891027 
L 566.983386 99.252155 
L 581.622258 84.613283 
" clip-path="url(#p55e41a1bcb)" style="fill: none; stroke: #ff0000; stroke-width: 0.72; stroke-linejoin: miter"/>
   </g>
   <g id="line2d_4">
    <path d="M 862.270885 99.252155 
L 897.404178 99.252155 
" clip-path="url(#p55e41a1bcb)" style="fill: none; stroke: #ffffff; stroke-width: 0.72; stroke-linecap: square"/>
   </g>
   <g id="patch_13">
    <path d="M 879.837531 84.613283 
L 894.476403 99.252155 
L 879.837531 113.891027 
L 865.198659 99.252155 
L 879.837531 84.613283 
" clip-path="url(#p55e41a1bcb)" style="fill: none; stroke: #ff0000; stroke-width: 0.72; stroke-linejoin: miter"/>
   </g>
   <g id="line2d_5">
    <path d="M 52.509653 123.854616 
L 786.309714 157.047946 
" clip-path="url(#p55e41a1bcb)" style="fill: none; stroke: #ffffff; stroke-width: 0.72; stroke-linecap: square"/>
   </g>
   <g id="line2d_6">
    <path d="M 193.12762 130.215447 
L 228.225023 131.803073 
" clip-path="url(#p55e41a1bcb)" style="fill: none; stroke: #ffffff; stroke-width: 0.72; stroke-linecap: square"/>
   </g>
   <g id="patch_14">
    <path d="M 211.337832 116.385342 
L 225.300239 131.670771 
L 210.014811 145.633178 
L 196.052403 130.347749 
L 211.337832 116.385342 
" clip-path="url(#p55e41a1bcb)" style="fill: none; stroke: #ff0000; stroke-width: 0.72; stroke-linejoin: miter"/>
   </g>
   <g id="line2d_7">
    <path d="M 367.072088 138.083798 
L 402.169492 139.671424 
" clip-path="url(#p55e41a1bcb)" style="fill: none; stroke: #ffffff; stroke-width: 0.72; stroke-linecap: square"/>
   </g>
   <g id="patch_15">
    <path d="M 385.282301 124.253693 
L 399.244708 139.539121 
L 383.959279 153.501529 
L 369.996872 138.2161 
L 385.282301 124.253693 
" clip-path="url(#p55e41a1bcb)" style="fill: none; stroke: #ff0000; stroke-width: 0.72; stroke-linejoin: miter"/>
   </g>
   <g id="line2d_8">
    <path d="M 581.87223 26.693853 
L 581.87223 23.766079 
" clip-path="url(#p55e41a1bcb)" style="fill: none; stroke: #ff0000; stroke-width: 0.72; stroke-linecap: square"/>
   </g>
   <g id="line2d_9">
    <path d="M 581.87223 171.810456 
L 581.87223 174.73823 
" clip-path="url(#p55e41a1bcb)" style="fill: none; stroke: #ff0000; stroke-width: 0.72; stroke-linecap: square"/>
   </g>
   <g id="line2d_10">
    <path d="M 653.569765 99.252155 
L 656.49754 99.252155 
" clip-path="url(#p55e41a1bcb)" style="fill: none; stroke: #ff0000; stroke-width: 0.72; stroke-linecap: square"/>
   </g>
   <g id="line2d_11">
    <path d="M 510.174694 99.252155 
L 507.24692 99.252155 
" clip-path="url(#p55e41a1bcb)" style="fill: none; stroke: #ff0000; stroke-width: 0.72; stroke-linecap: square"/>
   </g>
   <g id="line2d_12">
    <path d="M 347.650277 187.964316 
L 347.650277 14.153535 
" clip-path="url(#p55e41a1bcb)" style="fill: none; stroke: #ffffff; stroke-width: 0.72; stroke-linecap: square"/>
   </g>
   <g id="line2d_13">
    <path d="M 347.650277 138.988029 
L 347.650277 103.854736 
" clip-path="url(#p55e41a1bcb)" style="fill: none; stroke: #ffffff; stroke-width: 0.72; stroke-linecap: square"/>
   </g>
   <g id="patch_16">
    <path d="M 333.011405 121.421383 
L 347.650277 106.782511 
L 362.289149 121.421383 
L 347.650277 136.060255 
L 333.011405 121.421383 
" clip-path="url(#p55e41a1bcb)" style="fill: none; stroke: #ff0000; stroke-width: 0.72; stroke-linejoin: miter"/>
   </g>
   <g id="line2d_14">
    <path d="M 347.650277 98.263115 
L 347.650277 63.129822 
" clip-path="url(#p55e41a1bcb)" style="fill: none; stroke: #ffffff; stroke-width: 0.72; stroke-linecap: square"/>
   </g>
   <g id="patch_17">
    <path d="M 333.011405 80.696468 
L 347.650277 66.057596 
L 362.289149 80.696468 
L 347.650277 95.33534 
L 333.011405 80.696468 
" clip-path="url(#p55e41a1bcb)" style="fill: none; stroke: #ff0000; stroke-width: 0.72; stroke-linejoin: miter"/>
   </g>
   <g id="line2d_15">
    <path d="M 962.482903 124.346925 
L 962.482903 64.902511 
" clip-path="url(#p55e41a1bcb)" style="fill: none; stroke: #ffffff; stroke-width: 0.72; stroke-linecap: square"/>
   </g>
   <g id="line2d_16">
    <path d="M 962.482903 115.398867 
L 962.482903 80.265574 
" clip-path="url(#p55e41a1bcb)" style="fill: none; stroke: #ffffff; stroke-width: 0.72; stroke-linecap: square"/>
   </g>
   <g id="patch_18">
    <path d="M 947.844031 97.83222 
L 962.482903 83.193348 
L 977.121775 97.83222 
L 962.482903 112.471092 
L 947.844031 97.83222 
" clip-path="url(#p55e41a1bcb)" style="fill: none; stroke: #ff0000; stroke-width: 0.72; stroke-linejoin: miter"/>
   </g>
   <g id="line2d_17">
    <path d="M 962.482903 108.983863 
L 962.482903 73.85057 
" clip-path="url(#p55e41a1bcb)" style="fill: none; stroke: #ffffff; stroke-width: 0.72; stroke-linecap: square"/>
   </g>
   <g id="patch_19">
    <path d="M 947.844031 91.417216 
L 962.482903 76.778344 
L 977.121775 91.417216 
L 962.482903 106.056088 
L 947.844031 91.417216 
" clip-path="url(#p55e41a1bcb)" style="fill: none; stroke: #ff0000; stroke-width: 0.72; stroke-linejoin: miter"/>
   </g>
   <g id="patch_20">
    <path d="M 441.821746 154.638525 
L 441.821746 139.999653 
L 456.460618 139.999653 
L 456.460618 169.277397 
" clip-path="url(#p55e41a1bcb)" style="fill: none; stroke: #ff0000; stroke-width: 0.72; stroke-linejoin: miter"/>
   </g>
   <g id="patch_21">
    <path d="M 469.635602 139.999653 
L 463.780054 139.999653 
L 463.780054 169.277397 
L 469.635602 169.277397 
" clip-path="url(#p55e41a1bcb)" style="fill: none; stroke: #ff0000; stroke-width: 0.72; stroke-linejoin: miter"/>
   </g>
   <g id="patch_22">
    <path d="M 472.563377 169.277397 
L 478.418926 169.277397 
L 478.418926 139.999653 
L 472.563377 139.999653 
" clip-path="url(#p55e41a1bcb)" style="fill: none; stroke: #ff0000; stroke-width: 0.72; stroke-linejoin: miter"/>
   </g>
   <g id="patch_23">
    <path d="M 463.780054 154.638525 
L 469.635602 154.638525 
" clip-path="url(#p55e41a1bcb)" style="fill: none; stroke: #ff0000; stroke-width: 0.72; stroke-linejoin: miter"/>
   </g>
   <g id="patch_24">
    <path d="M 472.563377 154.638525 
L 478.418926 154.638525 
" clip-path="url(#p55e41a1bcb)" style="fill: none; stroke: #ff0000; stroke-width: 0.72; stroke-linejoin: miter"/>
   </g>
  </g>
 </g>
 <defs>
  <clipPath id="p55e41a1bcb">
   <rect x="0" y="0" width="1152" height="199.631639"/>
  </clipPath>
 </defs>
</svg>
