  0
SECTION
  2
HEADER
  9
$ACADVER
  1
AC1021
  9
$ACADMAINTVER
 70
25
  9
$DWGCODEPAGE
  3
ANSI_1252
  9
$LASTSAVEDBY
  1
ezdxf
  9
$INSBASE
 10
0.0
 20
0.0
 30
0.0
  9
$EXTMIN
 10
1e+20
 20
1e+20
 30
1e+20
  9
$EXTMAX
 10
-1e+20
 20
-1e+20
 30
-1e+20
  9
$LIMMIN
 10
0.0
 20
0.0
  9
$LIMMAX
 10
420.0
 20
297.0
  9
$ORTHOMODE
 70
0
  9
$REGENMODE
 70
1
  9
$FILLMODE
 70
1
  9
$QTEXTMODE
 70
0
  9
$MIRRTEXT
 70
1
  9
$LTSCALE
 40
1.0
  9
$ATTMODE
 70
1
  9
$TEXTSIZE
 40
2.5
  9
$TRACEWID
 40
1.0
  9
$TEXTSTYLE
  7
OpenSans
  9
$CLAYER
  8
0
  9
$CELTYPE
  6
ByLayer
  9
$CECOLOR
 62
256
  9
$CELTSCALE
 40
1.0
  9
$DISPSILH
 70
0
  9
$DIMSCALE
 40
1.0
  9
$DIMASZ
 40
0.175
  9
$DIMEXO
 40
0.125
  9
$DIMDLI
 40
3.75
  9
$DIMRND
 40
0.0
  9
$DIMDLE
 40
0.0
  9
$DIMEXE
 40
0.375
  9
$DIMTP
 40
0.0
  9
$DIMTM
 40
0.0
  9
$DIMTXT
 40
0.25
  9
$DIMCEN
 40
2.5
  9
$DIMTSZ
 40
0.0
  9
$DIMTOL
 70
0
  9
$DIMLIM
 70
0
  9
$DIMTIH
 70
0
  9
$DIMTOH
 70
0
  9
$DIMSE1
 70
0
  9
$DIMSE2
 70
0
  9
$DIMTAD
 70
1
  9
$DIMZIN
 70
12
  9
$DIMBLK
  1
ARCHTICK
  9
$DIMASO
 70
1
  9
$DIMSHO
 70
1
  9
$DIMPOST
  1

  9
$DIMAPOST
  1

  9
$DIMALT
 70
0
  9
$DIMALTD
 70
3
  9
$DIMALTF
 40
0.03937007874
  9
$DIMLFAC
 40
100.0
  9
$DIMTOFL
 70
1
  9
$DIMTVP
 40
0.0
  9
$DIMTIX
 70
0
  9
$DIMSOXD
 70
0
  9
$DIMSAH
 70
0
  9
$DIMBLK1
  1

  9
$DIMBLK2
  1

  9
$DIMSTYLE
  2
EZDXF
  9
$DIMCLRD
 70
0
  9
$DIMCLRE
 70
0
  9
$DIMCLRT
 70
0
  9
$DIMTFAC
 40
0.5
  9
$DIMGAP
 40
0.1
  9
$DIMJUST
 70
0
  9
$DIMSD1
 70
0
  9
$DIMSD2
 70
0
  9
$DIMTOLJ
 70
0
  9
$DIMTZIN
 70
8
  9
$DIMALTZ
 70
0
  9
$DIMALTTZ
 70
0
  9
$DIMUPT
 70
1
  9
$DIMDEC
 70
2
  9
$DIMTDEC
 70
2
  9
$DIMALTU
 70
2
  9
$DIMALTTD
 70
3
  9
$DIMTXSTY
  7
OpenSansCondensed-Light
  9
$DIMAUNIT
 70
0
  9
$DIMADEC
 70
2
  9
$DIMALTRND
 40
0.0
  9
$DIMAZIN
 70
3
  9
$DIMDSEP
 70
46
  9
$DIMATFIT
 70
3
  9
$DIMFRAC
 70
0
  9
$DIMLDRBLK
  1

  9
$DIMLUNIT
 70
2
  9
$DIMLWD
 70
-2
  9
$DIMLWE
 70
-2
  9
$DIMTMOVE
 70
2
  9
$DIMFXL
 40
1.0
  9
$DIMFXLON
 70
0
  9
$DIMJOGANG
 40
0.785398163397
  9
$DIMTFILL
 70
0
  9
$DIMTFILLCLR
 70
0
  9
$DIMARCSYM
 70
0
  9
$DIMLTYPE
  6

  9
$DIMLTEX1
  6

  9
$DIMLTEX2
  6

  9
$LUNITS
 70
2
  9
$LUPREC
 70
4
  9
$SKETCHINC
 40
1.0
  9
$FILLETRAD
 40
10.0
  9
$AUNITS
 70
0
  9
$AUPREC
 70
2
  9
$MENU
  1
.
  9
$ELEVATION
 40
0.0
  9
$PELEVATION
 40
0.0
  9
$THICKNESS
 40
0.0
  9
$LIMCHECK
 70
0
  9
$CHAMFERA
 40
0.0
  9
$CHAMFERB
 40
0.0
  9
$CHAMFERC
 40
0.0
  9
$CHAMFERD
 40
0.0
  9
$SKPOLY
 70
0
  9
$TDCREATE
 40
2461048.0883796294
  9
$TDUCREATE
 40
2458532.153996898
  9
$TDUPDATE
 40
2461048.0883796294
  9
$TDUUPDATE
 40
2458532.1544311
  9
$TDINDWG
 40
0.0
  9
$TDUSRTIMER
 40
0.0
  9
$USRTIMER
 70
1
  9
$ANGBASE
 50
0.0
  9
$ANGDIR
 70
0
  9
$PDMODE
 70
0
  9
$PDSIZE
 40
0.0
  9
$PLINEWID
 40
0.0
  9
$SPLFRAME
 70
0
  9
$SPLINETYPE
 70
6
  9
$SPLINESEGS
 70
8
  9
$HANDSEED
  5
BB
  9
$SURFTAB1
 70
6
  9
$SURFTAB2
 70
6
  9
$SURFTYPE
 70
6
  9
$SURFU
 70
6
  9
$SURFV
 70
6
  9
$UCSBASE
  2

  9
$UCSNAME
  2

  9
$UCSORG
 10
0.0
 20
0.0
 30
0.0
  9
$UCSXDIR
 10
1.0
 20
0.0
 30
0.0
  9
$UCSYDIR
 10
0.0
 20
1.0
 30
0.0
  9
$UCSORTHOREF
  2

  9
$UCSORTHOVIEW
 70
0
  9
$UCSORGTOP
 10
0.0
 20
0.0
 30
0.0
  9
$UCSORGBOTTOM
 10
0.0
 20
0.0
 30
0.0
  9
$UCSORGLEFT
 10
0.0
 20
0.0
 30
0.0
  9
$UCSORGRIGHT
 10
0.0
 20
0.0
 30
0.0
  9
$UCSORGFRONT
 10
0.0
 20
0.0
 30
0.0
  9
$UCSORGBACK
 10
0.0
 20
0.0
 30
0.0
  9
$PUCSBASE
  2

  9
$PUCSNAME
  2

  9
$PUCSORG
 10
0.0
 20
0.0
 30
0.0
  9
$PUCSXDIR
 10
1.0
 20
0.0
 30
0.0
  9
$PUCSYDIR
 10
0.0
 20
1.0
 30
0.0
  9
$PUCSORTHOREF
  2

  9
$PUCSORTHOVIEW
 70
0
  9
$PUCSORGTOP
 10
0.0
 20
0.0
 30
0.0
  9
$PUCSORGBOTTOM
 10
0.0
 20
0.0
 30
0.0
  9
$PUCSORGLEFT
 10
0.0
 20
0.0
 30
0.0
  9
$PUCSORGRIGHT
 10
0.0
 20
0.0
 30
0.0
  9
$PUCSORGFRONT
 10
0.0
 20
0.0
 30
0.0
  9
$PUCSORGBACK
 10
0.0
 20
0.0
 30
0.0
  9
$USERI1
 70
0
  9
$USERI2
 70
0
  9
$USERI3
 70
0
  9
$USERI4
 70
0
  9
$USERI5
 70
0
  9
$USERR1
 40
0.0
  9
$USERR2
 40
0.0
  9
$USERR3
 40
0.0
  9
$USERR4
 40
0.0
  9
$USERR5
 40
0.0
  9
$WORLDVIEW
 70
1
  9
$SHADEDGE
 70
3
  9
$SHADEDIF
 70
70
  9
$TILEMODE
 70
1
  9
$MAXACTVP
 70
64
  9
$PINSBASE
 10
0.0
 20
0.0
 30
0.0
  9
$PLIMCHECK
 70
0
  9
$PEXTMIN
 10
1e+20
 20
1e+20
 30
1e+20
  9
$PEXTMAX
 10
-1e+20
 20
-1e+20
 30
-1e+20
  9
$PLIMMIN
 10
0.0
 20
0.0
  9
$PLIMMAX
 10
420.0
 20
297.0
  9
$UNITMODE
 70
0
  9
$VISRETAIN
 70
1
  9
$PLINEGEN
 70
0
  9
$PSLTSCALE
 70
1
  9
$TREEDEPTH
 70
3020
  9
$CMLSTYLE
  2
Standard
  9
$CMLJUST
 70
0
  9
$CMLSCALE
 40
20.0
  9
$PROXYGRAPHICS
 70
1
  9
$MEASUREMENT
 70
1
  9
$CELWEIGHT
370
-1
  9
$ENDCAPS
280
0
  9
$JOINSTYLE
280
0
  9
$LWDISPLAY
290
0
  9
$INSUNITS
 70
6
  9
$HYPERLINKBASE
  1

  9
$STYLESHEET
  1

  9
$XEDIT
290
1
  9
$CEPSNTYPE
380
0
  9
$PSTYLEMODE
290
1
  9
$FINGERPRINTGUID
  2
{FBDAF8C6-8863-4BC5-AE56-46A13B4FDCD2}
  9
$VERSIONGUID
  2
{B8EC8E85-80C0-4C23-9E4F-63397F33A569}
  9
$EXTNAMES
290
1
  9
$PSVPSCALE
 40
0.0
  9
$OLESTARTUP
290
0
  9
$SORTENTS
280
127
  9
$INDEXCTL
280
0
  9
$HIDETEXT
280
1
  9
$XCLIPFRAME
290
1
  9
$HALOGAP
280
0
  9
$OBSCOLOR
 70
257
  9
$OBSLTYPE
280
0
  9
$INTERSECTIONDISPLAY
280
0
  9
$INTERSECTIONCOLOR
 70
257
  9
$DIMASSOC
280
2
  9
$PROJECTNAME
  1

  9
$CAMERADISPLAY
290
0
  9
$LENSLENGTH
 40
50.0
  9
$CAMERAHEIGHT
 40
0.0
  9
$STEPSPERSEC
 40
24.0
  9
$STEPSIZE
 40
100.0
  9
$3DDWFPREC
 40
2.0
  9
$PSOLWIDTH
 40
0.005
  9
$PSOLHEIGHT
 40
0.08
  9
$LOFTANG1
 40
1.570796326795
  9
$LOFTANG2
 40
1.570796326795
  9
$LOFTMAG1
 40
0.0
  9
$LOFTMAG2
 40
0.0
  9
$LOFTPARAM
 70
7
  9
$LOFTNORMALS
280
1
  9
$LATITUDE
 40
37.795
  9
$LONGITUDE
 40
-122.394
  9
$NORTHDIRECTION
 40
0.0
  9
$TIMEZONE
 70
-8000
  9
$LIGHTGLYPHDISPLAY
280
1
  9
$TILEMODELIGHTSYNCH
280
1
  9
$CMATERIAL
347
20
  9
$SOLIDHIST
280
0
  9
$SHOWHIST
280
1
  9
$DWFFRAME
280
2
  9
$DGNFRAME
280
2
  9
$REALWORLDSCALE
290
1
  9
$INTERFERECOLOR
 62
256
  9
$CSHADOW
280
0
  9
$SHADOWPLANELOCATION
 40
0.0
  0
ENDSEC
  0
SECTION
  2
CLASSES
  0
CLASS
  1
ACDBDICTIONARYWDFLT
  2
AcDbDictionaryWithDefault
  3
ObjectDBX Classes
 90
0
 91
0
280
0
281
0
  0
CLASS
  1
SUN
  2
AcDbSun
  3
SCENEOE
 90
1153
 91
0
280
0
281
0
  0
CLASS
  1
VISUALSTYLE
  2
AcDbVisualStyle
  3
ObjectDBX Classes
 90
4095
 91
0
280
0
281
0
  0
CLASS
  1
MATERIAL
  2
AcDbMaterial
  3
ObjectDBX Classes
 90
1153
 91
0
280
0
281
0
  0
CLASS
  1
SCALE
  2
AcDbScale
  3
ObjectDBX Classes
 90
1153
 91
0
280
0
281
0
  0
CLASS
  1
TABLESTYLE
  2
AcDbTableStyle
  3
ObjectDBX Classes
 90
4095
 91
0
280
0
281
0
  0
CLASS
  1
MLEADERSTYLE
  2
AcDbMLeaderStyle
  3
ACDB_MLEADERSTYLE_CLASS
 90
4095
 91
0
280
0
281
0
  0
CLASS
  1
DICTIONARYVAR
  2
AcDbDictionaryVar
  3
ObjectDBX Classes
 90
0
 91
0
280
0
281
0
  0
CLASS
  1
CELLSTYLEMAP
  2
AcDbCellStyleMap
  3
ObjectDBX Classes
 90
1152
 91
0
280
0
281
0
  0
CLASS
  1
MENTALRAYRENDERSETTINGS
  2
AcDbMentalRayRenderSettings
  3
SCENEOE
 90
1024
 91
0
280
0
281
0
  0
CLASS
  1
ACDBDETAILVIEWSTYLE
  2
AcDbDetailViewStyle
  3
ObjectDBX Classes
 90
1025
 91
0
280
0
281
0
  0
CLASS
  1
ACDBSECTIONVIEWSTYLE
  2
AcDbSectionViewStyle
  3
ObjectDBX Classes
 90
1025
 91
0
280
0
281
0
  0
CLASS
  1
RASTERVARIABLES
  2
AcDbRasterVariables
  3
ISM
 90
0
 91
0
280
0
281
0
  0
CLASS
  1
ACDBPLACEHOLDER
  2
AcDbPlaceHolder
  3
ObjectDBX Classes
 90
0
 91
0
280
0
281
0
  0
CLASS
  1
LAYOUT
  2
AcDbLayout
  3
ObjectDBX Classes
 90
0
 91
0
280
0
281
0
  0
ENDSEC
  0
SECTION
  2
TABLES
  0
TABLE
  2
VPORT
  5
8
330
0
100
AcDbSymbolTable
 70
1
  0
VPORT
  5
23
330
8
100
AcDbSymbolTableRecord
100
AcDbViewportTableRecord
  2
*Active
 70
0
 10
0.0
 20
0.0
 11
1.0
 21
1.0
 12
0.0
 22
0.0
 13
0.0
 23
0.0
 14
0.5
 24
0.5
 15
0.5
 25
0.5
 16
0.0
 26
0.0
 36
1.0
 17
0.0
 27
0.0
 37
0.0
 40
1000.0
 41
1.34
 42
50.0
 43
0.0
 44
0.0
 50
0.0
 51
0.0
 71
0
 72
1000
 73
1
 74
3
 75
0
 76
0
 77
0
 78
0
281
0
 65
0
146
0.0
  0
ENDTAB
  0
TABLE
  2
LTYPE
  5
2
330
0
100
AcDbSymbolTable
 70
21
  0
LTYPE
  5
24
330
2
100
AcDbSymbolTableRecord
100
AcDbLinetypeTableRecord
  2
ByBlock
 70
0
  3

 72
65
 73
0
 40
0.0
  0
LTYPE
  5
25
330
2
100
AcDbSymbolTableRecord
100
AcDbLinetypeTableRecord
  2
ByLayer
 70
0
  3

 72
65
 73
0
 40
0.0
  0
LTYPE
  5
26
330
2
100
AcDbSymbolTableRecord
100
AcDbLinetypeTableRecord
  2
Continuous
 70
0
  3

 72
65
 73
0
 40
0.0
  0
LTYPE
  5
2F
330
2
100
AcDbSymbolTableRecord
100
AcDbLinetypeTableRecord
  2
CENTER
 70
0
  3
Center ____ _ ____ _ ____ _ ____ _ ____ _ ____
 72
65
 73
4
 40
5.08
 49
3.175
 74
0
 49
-0.635
 74
0
 49
0.635
 74
0
 49
-0.635
 74
0
  0
LTYPE
  5
30
330
2
100
AcDbSymbolTableRecord
100
AcDbLinetypeTableRecord
  2
CENTERX2
 70
0
  3
Center (2x) ________  __  ________  __  ________
 72
65
 73
4
 40
8.89
 49
6.35
 74
0
 49
-0.635
 74
0
 49
1.27
 74
0
 49
-0.635
 74
0
  0
LTYPE
  5
31
330
2
100
AcDbSymbolTableRecord
100
AcDbLinetypeTableRecord
  2
CENTER2
 70
0
  3
Center (.5x) ____ _ ____ _ ____ _ ____ _ ____
 72
65
 73
4
 40
2.54
 49
1.587
 74
0
 49
-0.318
 74
0
 49
0.318
 74
0
 49
-0.318
 74
0
  0
LTYPE
  5
32
330
2
100
AcDbSymbolTableRecord
100
AcDbLinetypeTableRecord
  2
DASHED
 70
0
  3
Dashed __ __ __ __ __ __ __ __ __ __ __ __ __ _
 72
65
 73
2
 40
1.524
 49
1.27
 74
0
 49
-0.254
 74
0
  0
LTYPE
  5
33
330
2
100
AcDbSymbolTableRecord
100
AcDbLinetypeTableRecord
  2
DASHEDX2
 70
0
  3
Dashed (2x) ____  ____  ____  ____  ____  ____
 72
65
 73
2
 40
3.048
 49
2.54
 74
0
 49
-0.508
 74
0
  0
LTYPE
  5
34
330
2
100
AcDbSymbolTableRecord
100
AcDbLinetypeTableRecord
  2
DASHED2
 70
0
  3
Dashed (.5x) _ _ _ _ _ _ _ _ _ _ _ _ _ _
 72
65
 73
2
 40
0.762
 49
0.635
 74
0
 49
-0.127
 74
0
  0
LTYPE
  5
35
330
2
100
AcDbSymbolTableRecord
100
AcDbLinetypeTableRecord
  2
PHANTOM
 70
0
  3
Phantom ______  __  __  ______  __  __  ______
 72
65
 73
6
 40
6.35
 49
3.175
 74
0
 49
-0.635
 74
0
 49
0.635
 74
0
 49
-0.635
 74
0
 49
0.635
 74
0
 49
-0.635
 74
0
  0
LTYPE
  5
36
330
2
100
AcDbSymbolTableRecord
100
AcDbLinetypeTableRecord
  2
PHANTOMX2
 70
0
  3
Phantom (2x)____________    ____    ____    ____________
 72
65
 73
6
 40
10.795
 49
6.35
 74
0
 49
-0.635
 74
0
 49
1.27
 74
0
 49
-0.635
 74
0
 49
1.27
 74
0
 49
-0.635
 74
0
  0
LTYPE
  5
37
330
2
100
AcDbSymbolTableRecord
100
AcDbLinetypeTableRecord
  2
PHANTOM2
 70
0
  3
Phantom (.5x) ___ _ _ ___ _ _ ___ _ _ ___ _ _ ___
 72
65
 73
6
 40
3.175
 49
1.587
 74
0
 49
-0.318
 74
0
 49
0.318
 74
0
 49
-0.318
 74
0
 49
0.318
 74
0
 49
-0.318
 74
0
  0
LTYPE
  5
38
330
2
100
AcDbSymbolTableRecord
100
AcDbLinetypeTableRecord
  2
DASHDOT
 70
0
  3
Dash dot __ . __ . __ . __ . __ . __ . __ . __
 72
65
 73
4
 40
3.556
 49
2.54
 74
0
 49
-0.508
 74
0
 49
0.0
 74
0
 49
-0.508
 74
0
  0
LTYPE
  5
39
330
2
100
AcDbSymbolTableRecord
100
AcDbLinetypeTableRecord
  2
DASHDOTX2
 70
0
  3
Dash dot (2x) ____  .  ____  .  ____  .  ____
 72
65
 73
4
 40
6.096
 49
5.08
 74
0
 49
-0.508
 74
0
 49
0.0
 74
0
 49
-0.508
 74
0
  0
LTYPE
  5
3A
330
2
100
AcDbSymbolTableRecord
100
AcDbLinetypeTableRecord
  2
DASHDOT2
 70
0
  3
Dash dot (.5x) _ . _ . _ . _ . _ . _ . _ . _
 72
65
 73
4
 40
1.778
 49
1.27
 74
0
 49
-0.254
 74
0
 49
0.0
 74
0
 49
-0.254
 74
0
  0
LTYPE
  5
3B
330
2
100
AcDbSymbolTableRecord
100
AcDbLinetypeTableRecord
  2
DOT
 70
0
  3
Dot .  .  .  .  .  .  .  .  .  .  .  .  .  .  .  .
 72
65
 73
2
 40
0.508
 49
0.0
 74
0
 49
-0.508
 74
0
  0
LTYPE
  5
3C
330
2
100
AcDbSymbolTableRecord
100
AcDbLinetypeTableRecord
  2
DOTX2
 70
0
  3
Dot (2x) .    .    .    .    .    .    .    . 
 72
65
 73
2
 40
1.016
 49
0.0
 74
0
 49
-1.016
 74
0
  0
LTYPE
  5
3D
330
2
100
AcDbSymbolTableRecord
100
AcDbLinetypeTableRecord
  2
DOT2
 70
0
  3
Dot (.5) . . . . . . . . . . . . . . . . . . . 
 72
65
 73
2
 40
0.254
 49
0.0
 74
0
 49
-0.254
 74
0
  0
LTYPE
  5
3E
330
2
100
AcDbSymbolTableRecord
100
AcDbLinetypeTableRecord
  2
DIVIDE
 70
0
  3
Divide __ . . __ . . __ . . __ . . __ . . __
 72
65
 73
6
 40
4.064
 49
2.54
 74
0
 49
-0.508
 74
0
 49
0.0
 74
0
 49
-0.508
 74
0
 49
0.0
 74
0
 49
-0.508
 74
0
  0
LTYPE
  5
3F
330
2
100
AcDbSymbolTableRecord
100
AcDbLinetypeTableRecord
  2
DIVIDEX2
 70
0
  3
Divide (2x) ____  . .  ____  . .  ____  . .  ____
 72
65
 73
6
 40
6.604
 49
5.08
 74
0
 49
-0.508
 74
0
 49
0.0
 74
0
 49
-0.508
 74
0
 49
0.0
 74
0
 49
-0.508
 74
0
  0
LTYPE
  5
40
330
2
100
AcDbSymbolTableRecord
100
AcDbLinetypeTableRecord
  2
DIVIDE2
 70
0
  3
Divide(.5x) _ . _ . _ . _ . _ . _ . _ . _
 72
65
 73
6
 40
2.032
 49
1.27
 74
0
 49
-0.254
 74
0
 49
0.0
 74
0
 49
-0.254
 74
0
 49
0.0
 74
0
 49
-0.254
 74
0
  0
ENDTAB
  0
TABLE
  2
LAYER
  5
1
330
0
100
AcDbSymbolTable
 70
5
  0
LAYER
  5
27
330
1
100
AcDbSymbolTableRecord
100
AcDbLayerTableRecord
  2
0
 70
0
 62
7
  6
Continuous
370
-3
390
13
347
21
  0
LAYER
  5
28
330
1
100
AcDbSymbolTableRecord
100
AcDbLayerTableRecord
  2
Defpoints
 70
0
 62
7
  6
Continuous
290
0
370
-3
390
13
347
21
  0
LAYER
  5
8A
330
1
100
AcDbSymbolTableRecord
100
AcDbLayerTableRecord
  2
Layer
 70
0
 62
1
  6
Continuous
370
50
390
13
347
21
  0
LAYER
  5
8B
330
1
100
AcDbSymbolTableRecord
100
AcDbLayerTableRecord
  2
NumLabel
 70
0
 62
1
  6
Continuous
370
15
390
13
347
21
  0
LAYER
  5
B9
330
1
100
AcDbSymbolTableRecord
100
AcDbLayerTableRecord
  2
SplitMark
 70
0
 62
3
  6
Continuous
370
-3
390
13
347
21
  0
ENDTAB
  0
TABLE
  2
STYLE
  5
5
330
0
100
AcDbSymbolTable
 70
26
  0
STYLE
  5
29
330
5
100
AcDbSymbolTableRecord
100
AcDbTextStyleTableRecord
  2
Standard
 70
0
 40
0.0
 41
1.0
 50
0.0
 71
0
 42
2.5
  3
txt
  4

  0
STYLE
  5
41
330
5
100
AcDbSymbolTableRecord
100
AcDbTextStyleTableRecord
  2
OpenSans-Light
 70
0
 40
0.0
 41
1.0
 50
0.0
 71
0
 42
2.5
  3
OpenSans-Light.ttf
  4

  0
STYLE
  5
42
330
5
100
AcDbSymbolTableRecord
100
AcDbTextStyleTableRecord
  2
OpenSans-Light-Italic
 70
0
 40
0.0
 41
1.0
 50
0.0
 71
0
 42
2.5
  3
OpenSans-LightItalic.ttf
  4

  0
STYLE
  5
43
330
5
100
AcDbSymbolTableRecord
100
AcDbTextStyleTableRecord
  2
OpenSans
 70
0
 40
0.0
 41
1.0
 50
0.0
 71
0
 42
2.5
  3
OpenSans-Regular.ttf
  4

  0
STYLE
  5
44
330
5
100
AcDbSymbolTableRecord
100
AcDbTextStyleTableRecord
  2
OpenSans-Italic
 70
0
 40
0.0
 41
1.0
 50
0.0
 71
0
 42
2.5
  3
OpenSans-Italic.ttf
  4

  0
STYLE
  5
45
330
5
100
AcDbSymbolTableRecord
100
AcDbTextStyleTableRecord
  2
OpenSans-SemiBold
 70
0
 40
0.0
 41
1.0
 50
0.0
 71
0
 42
2.5
  3
OpenSans-SemiBold.ttf
  4

  0
STYLE
  5
46
330
5
100
AcDbSymbolTableRecord
100
AcDbTextStyleTableRecord
  2
OpenSans-SemiBoldItalic
 70
0
 40
0.0
 41
1.0
 50
0.0
 71
0
 42
2.5
  3
OpenSans-SemiBoldItalic.ttf
  4

  0
STYLE
  5
47
330
5
100
AcDbSymbolTableRecord
100
AcDbTextStyleTableRecord
  2
OpenSans-Bold
 70
0
 40
0.0
 41
1.0
 50
0.0
 71
0
 42
2.5
  3
OpenSans-Bold.ttf
  4

  0
STYLE
  5
48
330
5
100
AcDbSymbolTableRecord
100
AcDbTextStyleTableRecord
  2
OpenSans-BoldItalic
 70
0
 40
0.0
 41
1.0
 50
0.0
 71
0
 42
2.5
  3
OpenSans-BoldItalic.ttf
  4

  0
STYLE
  5
49
330
5
100
AcDbSymbolTableRecord
100
AcDbTextStyleTableRecord
  2
OpenSans-ExtraBold
 70
0
 40
0.0
 41
1.0
 50
0.0
 71
0
 42
2.5
  3
OpenSans-ExtraBold.ttf
  4

  0
STYLE
  5
4A
330
5
100
AcDbSymbolTableRecord
100
AcDbTextStyleTableRecord
  2
OpenSans-ExtraBoldItalic
 70
0
 40
0.0
 41
1.0
 50
0.0
 71
0
 42
2.5
  3
OpenSans-ExtraBoldItalic.ttf
  4

  0
STYLE
  5
4B
330
5
100
AcDbSymbolTableRecord
100
AcDbTextStyleTableRecord
  2
OpenSansCondensed-Bold
 70
0
 40
0.0
 41
1.0
 50
0.0
 71
0
 42
2.5
  3
OpenSansCondensed-Bold.ttf
  4

  0
STYLE
  5
4C
330
5
100
AcDbSymbolTableRecord
100
AcDbTextStyleTableRecord
  2
OpenSansCondensed-Light
 70
0
 40
0.0
 41
1.0
 50
0.0
 71
0
 42
2.5
  3
OpenSansCondensed-Light.ttf
  4

  0
STYLE
  5
4D
330
5
100
AcDbSymbolTableRecord
100
AcDbTextStyleTableRecord
  2
OpenSansCondensed-Italic
 70
0
 40
0.0
 41
1.0
 50
0.0
 71
0
 42
2.5
  3
OpenSansCondensed-LightItalic.ttf
  4

  0
STYLE
  5
4E
330
5
100
AcDbSymbolTableRecord
100
AcDbTextStyleTableRecord
  2
LiberationSans
 70
0
 40
0.0
 41
1.0
 50
0.0
 71
0
 42
2.5
  3
LiberationSans-Regular.ttf
  4

  0
STYLE
  5
4F
330
5
100
AcDbSymbolTableRecord
100
AcDbTextStyleTableRecord
  2
LiberationSans-Bold
 70
0
 40
0.0
 41
1.0
 50
0.0
 71
0
 42
2.5
  3
LiberationSans-Bold.ttf
  4

  0
STYLE
  5
50
330
5
100
AcDbSymbolTableRecord
100
AcDbTextStyleTableRecord
  2
LiberationSans-BoldItalic
 70
0
 40
0.0
 41
1.0
 50
0.0
 71
0
 42
2.5
  3
LiberationSans-BoldItalic.ttf
  4

  0
STYLE
  5
51
330
5
100
AcDbSymbolTableRecord
100
AcDbTextStyleTableRecord
  2
LiberationSans-Italic
 70
0
 40
0.0
 41
1.0
 50
0.0
 71
0
 42
2.5
  3
LiberationSans-Italic.ttf
  4

  0
STYLE
  5
52
330
5
100
AcDbSymbolTableRecord
100
AcDbTextStyleTableRecord
  2
LiberationSerif
 70
0
 40
0.0
 41
1.0
 50
0.0
 71
0
 42
2.5
  3
LiberationSerif-Regular.ttf
  4

  0
STYLE
  5
53
330
5
100
AcDbSymbolTableRecord
100
AcDbTextStyleTableRecord
  2
LiberationSerif-Bold
 70
0
 40
0.0
 41
1.0
 50
0.0
 71
0
 42
2.5
  3
LiberationSerif-Bold.ttf
  4

  0
STYLE
  5
54
330
5
100
AcDbSymbolTableRecord
100
AcDbTextStyleTableRecord
  2
LiberationSerif-BoldItalic
 70
0
 40
0.0
 41
1.0
 50
0.0
 71
0
 42
2.5
  3
LiberationSerif-BoldItalic.ttf
  4

  0
STYLE
  5
55
330
5
100
AcDbSymbolTableRecord
100
AcDbTextStyleTableRecord
  2
LiberationSerif-Italic
 70
0
 40
0.0
 41
1.0
 50
0.0
 71
0
 42
2.5
  3
LiberationSerif-Italic.ttf
  4

  0
STYLE
  5
56
330
5
100
AcDbSymbolTableRecord
100
AcDbTextStyleTableRecord
  2
LiberationMono
 70
0
 40
0.0
 41
1.0
 50
0.0
 71
0
 42
2.5
  3
LiberationMono-Regular.ttf
  4

  0
STYLE
  5
57
330
5
100
AcDbSymbolTableRecord
100
AcDbTextStyleTableRecord
  2
LiberationMono-Bold
 70
0
 40
0.0
 41
1.0
 50
0.0
 71
0
 42
2.5
  3
LiberationMono-Bold.ttf
  4

  0
STYLE
  5
58
330
5
100
AcDbSymbolTableRecord
100
AcDbTextStyleTableRecord
  2
LiberationMono-BoldItalic
 70
0
 40
0.0
 41
1.0
 50
0.0
 71
0
 42
2.5
  3
LiberationMono-BoldItalic.ttf
  4

  0
STYLE
  5
59
330
5
100
AcDbSymbolTableRecord
100
AcDbTextStyleTableRecord
  2
LiberationMono-Italic
 70
0
 40
0.0
 41
1.0
 50
0.0
 71
0
 42
2.5
  3
LiberationMono-Italic.ttf
  4

  0
ENDTAB
  0
TABLE
  2
VIEW
  5
7
330
0
100
AcDbSymbolTable
 70
0
  0
ENDTAB
  0
TABLE
  2
UCS
  5
6
330
0
100
AcDbSymbolTable
 70
0
  0
ENDTAB
  0
TABLE
  2
APPID
  5
3
330
0
100
AcDbSymbolTable
 70
3
  0
APPID
  5
2A
330
3
100
AcDbSymbolTableRecord
100
AcDbRegAppTableRecord
  2
ACAD
 70
0
  0
APPID
  5
B6
330
3
100
AcDbSymbolTableRecord
100
AcDbRegAppTableRecord
  2
HATCHBACKGROUNDCOLOR
 70
0
  0
APPID
  5
B7
330
3
100
AcDbSymbolTableRecord
100
AcDbRegAppTableRecord
  2
EZDXF
 70
0
  0
ENDTAB
  0
TABLE
  2
DIMSTYLE
  5
4
330
0
100
AcDbSymbolTable
 70
12
100
AcDbDimStyleTable
  0
DIMSTYLE
105
2B
330
4
100
AcDbSymbolTableRecord
100
AcDbDimStyleTableRecord
  2
Standard
 70
0
 40
1.0
 41
2.5
 42
0.625
 43
3.75
 44
1.25
 45
0.0
 46
0.0
 47
0.0
 48
0.0
 49
2.5
140
2.5
141
2.5
142
0.0
143
0.03937007874
144
1.0
145
0.0
146
1.0
147
0.625
148
0.0
 69
0
 70
0
 71
0
 72
0
 73
0
 74
0
 75
0
 76
0
 77
1
 78
8
 79
3
170
0
171
3
172
1
173
0
174
0
175
0
176
0
177
0
178
0
179
2
271
2
272
2
273
2
274
3
275
0
276
0
277
2
278
44
279
0
280
0
281
0
282
0
283
0
284
8
285
0
286
0
288
0
289
3
290
0
371
-2
372
-2
  0
DIMSTYLE
105
73
330
4
100
AcDbSymbolTableRecord
100
AcDbDimStyleTableRecord
  2
EZDXF
 70
0
 40
1.0
 41
0.175
 42
0.125
 43
3.75
 44
0.375
 45
0.0
 46
0.0
 47
0.0
 48
0.0
 49
2.5
140
0.25
141
2.5
142
0.0
143
0.03937007874
144
100.0
145
0.0
146
0.5
147
0.1
148
0.0
 69
0
 70
0
 71
0
 72
0
 73
0
 74
0
 75
0
 76
0
 77
1
 78
12
 79
3
170
0
171
3
172
1
173
0
174
0
175
0
176
0
177
0
178
0
179
2
271
2
272
2
273
2
274
3
275
0
276
0
277
2
278
46
279
2
280
0
281
0
282
0
283
0
284
8
285
0
286
0
288
1
289
3
290
0
340
4C
342
74
371
-2
372
-2
  0
DIMSTYLE
105
7C
330
4
100
AcDbSymbolTableRecord
100
AcDbDimStyleTableRecord
  2
EZ_M_100_H25_CM
 70
0
 40
1.0
 41
0.25
 42
0.125
 43
3.75
 44
0.375
 45
0.0
 46
0.0
 47
0.0
 48
0.0
 49
2.5
140
0.25
141
2.5
142
0.125
143
0.03937007874
144
100.0
145
0.0
146
0.5
147
0.1
148
0.0
 69
0
 70
0
 71
0
 72
0
 73
0
 74
0
 75
0
 76
0
 77
1
 78
12
 79
3
170
0
171
3
172
1
173
0
174
0
175
0
176
0
177
0
178
0
179
2
271
2
272
2
273
2
274
3
275
0
276
0
277
2
278
46
279
2
280
0
281
0
282
0
283
0
284
8
285
0
286
0
288
1
289
3
290
0
340
4C
371
-2
372
-2
  0
DIMSTYLE
105
7D
330
4
100
AcDbSymbolTableRecord
100
AcDbDimStyleTableRecord
  2
EZ_M_50_H25_CM
 70
0
 40
1.0
 41
0.125
 42
0.0625
 43
3.75
 44
0.1875
 45
0.0
 46
0.0
 47
0.0
 48
0.0
 49
2.5
140
0.125
141
2.5
142
0.0625
143
0.03937007874
144
100.0
145
0.0
146
0.5
147
0.05
148
0.0
 69
0
 70
0
 71
0
 72
0
 73
0
 74
0
 75
0
 76
0
 77
1
 78
12
 79
3
170
0
171
3
172
1
173
0
174
0
175
0
176
0
177
0
178
0
179
2
271
2
272
2
273
2
274
3
275
0
276
0
277
2
278
46
279
2
280
0
281
0
282
0
283
0
284
8
285
0
286
0
288
1
289
3
290
0
340
4C
371
-2
372
-2
  0
DIMSTYLE
105
7E
330
4
100
AcDbSymbolTableRecord
100
AcDbDimStyleTableRecord
  2
EZ_M_25_H25_CM
 70
0
 40
1.0
 41
0.0625
 42
0.03125
 43
3.75
 44
0.09375
 45
0.0
 46
0.0
 47
0.0
 48
0.0
 49
2.5
140
0.0625
141
2.5
142
0.03125
143
0.03937007874
144
100.0
145
0.0
146
0.5
147
0.025
148
0.0
 69
0
 70
0
 71
0
 72
0
 73
0
 74
0
 75
0
 76
0
 77
1
 78
12
 79
3
170
0
171
3
172
1
173
0
174
0
175
0
176
0
177
0
178
0
179
2
271
2
272
2
273
2
274
3
275
0
276
0
277
2
278
46
279
2
280
0
281
0
282
0
283
0
284
8
285
0
286
0
288
1
289
3
290
0
340
4C
371
-2
372
-2
  0
DIMSTYLE
105
7F
330
4
100
AcDbSymbolTableRecord
100
AcDbDimStyleTableRecord
  2
EZ_M_20_H25_CM
 70
0
 40
1.0
 41
0.05
 42
0.025
 43
3.75
 44
0.07500000000000001
 45
0.0
 46
0.0
 47
0.0
 48
0.0
 49
2.5
140
0.05
141
2.5
142
0.025
143
0.03937007874
144
100.0
145
0.0
146
0.5
147
0.020000000000000004
148
0.0
 69
0
 70
0
 71
0
 72
0
 73
0
 74
0
 75
0
 76
0
 77
1
 78
12
 79
3
170
0
171
3
172
1
173
0
174
0
175
0
176
0
177
0
178
0
179
2
271
2
272
2
273
2
274
3
275
0
276
0
277
2
278
46
279
2
280
0
281
0
282
0
283
0
284
8
285
0
286
0
288
1
289
3
290
0
340
4C
371
-2
372
-2
  0
DIMSTYLE
105
80
330
4
100
AcDbSymbolTableRecord
100
AcDbDimStyleTableRecord
  2
EZ_M_10_H25_CM
 70
0
 40
1.0
 41
0.025
 42
0.0125
 43
3.75
 44
0.037500000000000006
 45
0.0
 46
0.0
 47
0.0
 48
0.0
 49
2.5
140
0.025
141
2.5
142
0.0125
143
0.03937007874
144
100.0
145
0.0
146
0.5
147
0.010000000000000002
148
0.0
 69
0
 70
0
 71
0
 72
0
 73
0
 74
0
 75
0
 76
0
 77
1
 78
12
 79
3
170
0
171
3
172
1
173
0
174
0
175
0
176
0
177
0
178
0
179
2
271
2
272
2
273
2
274
3
275
0
276
0
277
2
278
46
279
2
280
0
281
0
282
0
283
0
284
8
285
0
286
0
288
1
289
3
290
0
340
4C
371
-2
372
-2
  0
DIMSTYLE
105
81
330
4
100
AcDbSymbolTableRecord
100
AcDbDimStyleTableRecord
  2
EZ_M_5_H25_CM
 70
0
 40
1.0
 41
0.0125
 42
0.00625
 43
3.75
 44
0.018750000000000003
 45
0.0
 46
0.0
 47
0.0
 48
0.0
 49
2.5
140
0.0125
141
2.5
142
0.00625
143
0.03937007874
144
100.0
145
0.0
146
0.5
147
0.005000000000000001
148
0.0
 69
0
 70
0
 71
0
 72
0
 73
0
 74
0
 75
0
 76
0
 77
1
 78
12
 79
3
170
0
171
3
172
1
173
0
174
0
175
0
176
0
177
0
178
0
179
2
271
2
272
2
273
2
274
3
275
0
276
0
277
2
278
46
279
2
280
0
281
0
282
0
283
0
284
8
285
0
286
0
288
1
289
3
290
0
340
4C
371
-2
372
-2
  0
DIMSTYLE
105
82
330
4
100
AcDbSymbolTableRecord
100
AcDbDimStyleTableRecord
  2
EZ_M_1_H25_CM
 70
0
 40
1.0
 41
0.0025
 42
0.00125
 43
3.75
 44
0.00375
 45
0.0
 46
0.0
 47
0.0
 48
0.0
 49
2.5
140
0.0025
141
2.5
142
0.00125
143
0.03937007874
144
100.0
145
0.0
146
0.5
147
0.001
148
0.0
 69
0
 70
0
 71
0
 72
0
 73
0
 74
0
 75
0
 76
0
 77
1
 78
12
 79
3
170
0
171
3
172
1
173
0
174
0
175
0
176
0
177
0
178
0
179
2
271
2
272
2
273
2
274
3
275
0
276
0
277
2
278
46
279
2
280
0
281
0
282
0
283
0
284
8
285
0
286
0
288
1
289
3
290
0
340
4C
371
-2
372
-2
  0
DIMSTYLE
105
83
330
4
100
AcDbSymbolTableRecord
100
AcDbDimStyleTableRecord
  2
EZ_RADIUS
 70
0
 40
1.0
 41
0.25
 42
0.125
 43
3.75
 44
0.375
 45
0.0
 46
0.0
 47
0.0
 48
0.0
 49
2.5
140
0.25
141
0.0
142
0.0
143
0.03937007874
144
100.0
145
0.0
146
0.5
147
0.1
148
0.0
 69
0
 70
0
 71
0
 72
0
 73
0
 74
0
 75
0
 76
0
 77
1
 78
12
 79
3
170
0
171
3
172
0
173
0
174
0
175
0
176
0
177
0
178
0
179
2
271
2
272
2
273
2
274
3
275
0
276
0
277
2
278
46
279
1
280
0
281
0
282
0
283
0
284
8
285
0
286
0
288
1
289
3
290
0
340
4C
342
84
371
-2
372
-2
  0
DIMSTYLE
105
88
330
4
100
AcDbSymbolTableRecord
100
AcDbDimStyleTableRecord
  2
EZ_RADIUS_INSIDE
 70
0
 40
1.0
 41
0.25
 42
0.125
 43
3.75
 44
0.375
 45
0.0
 46
0.0
 47
0.0
 48
0.0
 49
2.5
140
0.25
141
0.0
142
0.0
143
0.03937007874
144
100.0
145
0.0
146
0.5
147
0.1
148
0.0
 69
0
 70
0
 71
0
 72
0
 73
0
 74
0
 75
0
 76
0
 77
0
 78
12
 79
3
170
0
171
3
172
0
173
0
174
1
175
0
176
0
177
0
178
0
179
2
271
2
272
2
273
2
274
3
275
0
276
0
277
2
278
46
279
0
280
0
281
0
282
0
283
0
284
8
285
0
286
0
288
1
289
0
290
0
340
4C
342
84
371
-2
372
-2
  0
DIMSTYLE
105
89
330
4
100
AcDbSymbolTableRecord
100
AcDbDimStyleTableRecord
  2
EZ_CURVED
 70
0
 40
1.0
 41
0.25
 42
0.125
 43
3.75
 44
0.375
 45
0.0
 46
0.0
 47
0.0
 48
0.0
 49
2.5
140
0.25
141
2.5
142
0.0
143
0.03937007874
144
100.0
145
0.0
146
0.5
147
0.1
148
0.0
 69
0
 70
0
 71
0
 72
0
 73
0
 74
0
 75
0
 76
0
 77
1
 78
12
 79
2
 90
2
170
0
171
3
172
1
173
0
174
0
175
0
176
0
177
0
178
0
179
2
271
2
272
2
273
2
274
3
275
0
276
0
277
2
278
46
279
2
280
0
281
0
282
0
283
0
284
8
285
0
286
0
288
1
289
3
290
0
340
4C
371
-2
372
-2
  0
ENDTAB
  0
TABLE
  2
BLOCK_RECORD
  5
9
330
0
100
AcDbSymbolTable
 70
5
  0
BLOCK_RECORD
  5
17
330
9
100
AcDbSymbolTableRecord
100
AcDbBlockTableRecord
  2
*Model_Space
340
1A
 70
0
280
1
281
0
  0
BLOCK_RECORD
  5
1B
330
9
100
AcDbSymbolTableRecord
100
AcDbBlockTableRecord
  2
*Paper_Space
340
1E
 70
0
280
1
281
0
  0
BLOCK_RECORD
  5
74
330
9
100
AcDbSymbolTableRecord
100
AcDbBlockTableRecord
  2
_ARCHTICK
340
0
 70
0
280
1
281
0
  0
BLOCK_RECORD
  5
78
330
9
100
AcDbSymbolTableRecord
100
AcDbBlockTableRecord
  2
_CLOSEDFILLED
340
0
 70
0
280
1
281
0
  0
BLOCK_RECORD
  5
84
330
9
100
AcDbSymbolTableRecord
100
AcDbBlockTableRecord
  2
_CLOSEDBLANK
340
0
 70
0
280
1
281
0
  0
ENDTAB
  0
ENDSEC
  0
SECTION
  2
BLOCKS
  0
BLOCK
  5
18
330
17
100
AcDbEntity
  8
0
100
AcDbBlockBegin
  2
*Model_Space
 70
0
 10
0.0
 20
0.0
 30
0.0
  3
*Model_Space
  1

  0
ENDBLK
  5
19
330
17
100
AcDbEntity
  8
0
100
AcDbBlockEnd
  0
BLOCK
  5
1C
330
1B
100
AcDbEntity
  8
0
100
AcDbBlockBegin
  2
*Paper_Space
 70
0
 10
0.0
 20
0.0
 30
0.0
  3
*Paper_Space
  1

  0
ENDBLK
  5
1D
330
1B
100
AcDbEntity
  8
0
100
AcDbBlockEnd
  0
BLOCK
  5
75
330
74
100
AcDbEntity
  8
0
100
AcDbBlockBegin
  2
_ARCHTICK
 70
0
 10
0.0
 20
0.0
 30
0.0
  3
_ARCHTICK
  1

  0
LWPOLYLINE
  5
77
330
74
100
AcDbEntity
  8
0
  6
BYBLOCK
 62
0
100
AcDbPolyline
 90
2
 70
0
 43
0.15
 10
-0.5
 20
-0.5
 10
0.5
 20
0.5
  0
ENDBLK
  5
76
330
74
100
AcDbEntity
  8
0
100
AcDbBlockEnd
  0
BLOCK
  5
79
330
78
100
AcDbEntity
  8
0
100
AcDbBlockBegin
  2
_CLOSEDFILLED
 70
0
 10
0.0
 20
0.0
 30
0.0
  3
_CLOSEDFILLED
  1

  0
SOLID
  5
7B
330
78
100
AcDbEntity
  8
0
  6
BYBLOCK
 62
0
100
AcDbTrace
 10
-1.0
 20
0.16439898372402537
 30
0.0
 11
0.0
 21
0.0
 31
0.0
 12
-1.0
 22
-0.16439898372402537
 32
0.0
 13
-1.0
 23
-0.16439898372402537
 33
0.0
  0
ENDBLK
  5
7A
330
78
100
AcDbEntity
  8
0
100
AcDbBlockEnd
  0
BLOCK
  5
85
330
84
100
AcDbEntity
  8
0
100
AcDbBlockBegin
  2
_CLOSEDBLANK
 70
0
 10
0.0
 20
0.0
 30
0.0
  3
_CLOSEDBLANK
  1

  0
LWPOLYLINE
  5
87
330
84
100
AcDbEntity
  8
0
  6
BYBLOCK
 62
0
100
AcDbPolyline
 90
3
 70
1
 10
-1.0
 20
0.16439898372402537
 10
0.0
 20
0.0
 10
-1.0
 20
-0.16439898372402537
  0
ENDBLK
  5
86
330
84
100
AcDbEntity
  8
0
100
AcDbBlockEnd
  0
ENDSEC
  0
SECTION
  2
ENTITIES
  0
LWPOLYLINE
  5
8C
330
17
100
AcDbEntity
  8
Layer
100
AcDbPolyline
 90
261
 70
1
 10
807.8534857310838
 20
128.51494215728417
 10
804.8557896872295
 20
129.5955235276818
 10
799.9725377620337
 20
131.34848734926135
 10
794.6073096134775
 20
133.25662488792722
 10
788.7557789488467
 20
135.29836829391945
 10
782.3916049135665
 20
137.47095394568495
 10
775.552768208258
 20
139.80245985810197
 10
768.3152271992565
 20
142.28367332050246
 10
760.7589338965693
 20
144.89655413538964
 10
752.9481416080312
 20
147.62041172332152
 10
744.9432444893489
 20
150.4345635004692
 10
736.7853868371436
 20
153.32385817366236
 10
728.5094990374006
 20
156.2712447908487
 10
720.1441809801645
 20
159.26535526816724
 10
711.707662162542
 20
162.29489571427462
 10
703.2235882049443
 20
165.3464197605044
 10
694.7162214263018
 20
168.40908938280964
 10
686.208256942904
 20
171.4697972877242
 10
677.7141555138271
 20
174.51833794292608
 10
669.2451892701844
 20
177.54857647291587
 10
660.8115180623622
 20
180.5528582689696
 10
652.4149109364574
 20
183.52564397121273
 10
644.0568108216726
 20
186.46402387048224
 10
635.7413021530742
 20
189.36377351696424
 10
627.469938516046
 20
192.21974690318564
 10
619.2413239724665
 20
195.0287607805938
 10
611.5042820162821
 20
197.63718342274788
 10
611.1848144496864
 20
196.68958621195978
 10
610.7408065832226
 20
196.8392911578343
 10
602.6054671665512
 20
199.5431026711024
 10
594.5124911635312
 20
202.18855988208503
 10
586.4558618260166
 20
204.77426840037523
 10
578.4325182548077
 20
207.29925685875696
 10
570.4391964566445
 20
209.7613355531217
 10
562.4694743224921
 20
212.15923477306637
 10
554.516996539224
 20
214.49347741376076
 10
546.5784870290477
 20
216.76432494921977
 10
538.651498770635
 20
218.97081328509273
 10
530.7313903053475
 20
221.1124030502346
 10
522.8133048293289
 20
223.18961509085162
 10
514.8954274873338
 20
225.20341088759895
 10
506.9772909998261
 20
227.15315884753485
 10
499.05633638010823
 20
229.0379474763278
 10
491.12914667774413
 20
230.85842521375878
 10
483.1949070978808
 20
232.6155003620858
 10
475.25470090897653
 20
234.3086822823329
 10
467.30741595613824
 20
235.93710654070222
 10
459.3511528876205
 20
237.5009946689766
 10
451.38512107994245
 20
239.00111299185377
 10
443.4111714762712
 20
240.43747584148372
 10
435.4297823626415
 20
241.8090222856617
 10
427.4394111684531
 20
243.11555454950837
 10
419.4399487449244
 20
244.35794674753382
 10
411.43336133416676
 20
245.5358957562122
 10
403.4197943750506
 20
246.6481940911468
 10
395.39555338354734
 20
247.69422628353513
 10
387.3569812416955
 20
248.67567507932768
 10
379.30565851284143
 20
249.59434330838283
 10
371.2452429379202
 20
250.44998733693862
 10
363.1766736711746
 20
251.24151181920303
 10
355.09891267953856
 20
251.96906921635912
 10
347.01409680168723
 20
252.63427855622075
 10
338.92788706478507
 20
253.2370944414107
 10
330.8438684220919
 20
253.77576656117694
 10
322.7620562352268
 20
254.24924935479282
 10
314.68391783624537
 20
254.65857275814662
 10
306.61472059197774
 20
255.00356769445554
 10
298.5585385044206
 20
255.28261729197146
 10
290.5152715214243
 20
255.49386891714482
 10
282.48543131180315
 20
255.63793436359651
 10
274.473919762599
 20
255.71500506709359
 10
266.4850125474135
 20
255.7232939467581
 10
258.5194008674306
 20
255.66080949234006
 10
250.5772963314151
 20
255.52761714028819
 10
242.66371057498048
 20
255.32407876451742
 10
234.78388788615206
 20
255.04851834568962
 10
226.93866769892475
 20
254.6985156766055
 10
219.12930991433683
 20
254.27407059262828
 10
211.3613868459301
 20
253.77561812658263
 10
203.6411257789323
 20
253.201262678313
 10
195.96981362386094
 20
252.54844413138954
 10
188.35004481671317
 20
251.8176685784395
 10
180.78954457238194
 20
251.0092736354311
 10
173.29430298681896
 20
250.12077703242755
 10
165.86654135720818
 20
249.15043386216627
 10
158.51184073982145
 20
248.09951536660134
 10
151.2395572649294
 20
246.96783415289303
 10
144.05570250216832
 20
245.75352213939635
 10
136.9654522924491
 20
244.45792811640652
 10
129.98354786997382
 20
243.08636483703026
 10
123.12767522929431
 20
241.63965179443517
 10
116.40854827848463
 20
240.11689554807342
 10
109.8380777164877
 20
238.5235751873925
 10
103.43769745568676
 20
236.86749214775614
 10
97.22654262706419
 20
235.15136400843568
 10
91.21791428807381
 20
233.38047323391885
 10
85.43012506373765
 20
231.56763728794252
 10
79.88564070252187
 20
229.72423410392565
 10
74.59961794654637
 20
227.85729096703565
 10
69.58202870585862
 20
225.97913459084424
 10
64.84446638940679
 20
224.10541312525731
 10
60.39471390672449
 20
222.24628538242402
 10
56.23135662116897
 20
220.40898512714108
 10
52.34859287812242
 20
218.60396264431182
 10
48.739939767758415
 20
216.84059829079717
 10
45.39537193320638
 20
215.12218361772577
 10
42.29986768642658
 20
213.44879888387845
 10
39.43603647149638
 20
211.82212458244095
 10
36.78787943542068
 20
210.24491925624548
 10
34.340802204203726
 20
208.7167701309566
 10
32.0796863722303
 20
207.23422930394707
 10
29.98941900285962
 20
205.79381800326402
 10
28.055519640773923
 20
204.3932957523504
 10
26.266154937864542
 20
203.03186369169077
 10
24.611639666525946
 20
201.7068937859326
 10
23.083003772111738
 20
200.41363095915102
 10
21.669296243257804
 20
199.14568324710194
 10
20.358441800569437
 20
197.9008717517758
 10
19.138522600241345
 20
196.68000255234307
 10
18.000639344832393
 20
195.48823840866757
 10
16.94009576028077
 20
194.32949809495764
 10
15.95720995099856
 20
193.20675102976128
 10
15.05419872147371
 20
192.11577901851734
 10
14.232917026360724
 20
191.05013119847843
 10
13.492652219941533
 20
190.00098630640016
 10
12.828756253692404
 20
188.95982322444627
 10
12.23474378810289
 20
187.9244212513805
 10
11.703555184084678
 20
186.8962189471942
 10
11.230429842448586
 20
185.88164583548598
 10
10.813341025433033
 20
184.8856595162749
 10
10.453014059345321
 20
183.9124947251129
 10
10.15150278770642
 20
182.96252518240513
 10
9.910442698583779
 20
182.03282742009986
 10
9.729979545490437
 20
181.12035031022668
 10
9.608533347078264
 20
180.2226547210257
 10
9.539825825229741
 20
179.25996714664043
 10
9.530595881574357
 20
178.45527188087914
 10
9.574457821931901
 20
177.5666006737148
 10
9.680060488975926
 20
176.68189866437893
 10
9.855101307152779
 20
175.8051362421598
 10
10.109328360240568
 20
174.93548465529608
 10
10.451212148431921
 20
174.07069421734627
 10
10.884119648853982
 20
173.2107241828017
 10
11.4055089505149
 20
172.35839439453702
 10
12.00946176866114
 20
171.51885038588162
 10
12.691942068402852
 20
170.69698839781597
 10
13.452541028558244
 20
169.89667599807254
 10
14.294934955888323
 20
169.11958858908824
 10
15.22283936778257
 20
168.36571679510635
 10
16.238583227353104
 20
167.6333058872997
 10
17.34106254308665
 20
166.92006013670556
 10
18.529350714113434
 20
166.223472449461
 10
19.802570039254988
 20
165.54227498711998
 10
21.164509453526136
 20
164.87596672432275
 10
22.620755347489762
 20
164.2243562527547
 10
24.180383500275525
 20
163.58664656536803
 10
25.852390542193632
 20
162.96033663373902
 10
27.645801967915872
 20
162.3415892770156
 10
29.570521463059265
 20
161.72618081396325
 10
31.636978539780614
 20
161.11040000036257
 10
33.85913767962853
 20
160.49222676823712
 10
36.25412954548807
 20
159.87073520972442
 10
38.84275974449599
 20
159.2449448141834
 10
41.647407927361314
 20
158.6129444196337
 10
44.69263298149224
 20
157.97288422291743
 10
48.00449463920421
 20
157.32403205178284
 10
51.6123237271525
 20
156.66757349305195
 10
55.54766811903386
 20
156.0055130235022
 10
59.84085556617694
 20
155.3387403268801
 10
64.51729598851756
 20
154.66876948786424
 10
69.59622172010216
 20
154.0006591460985
 10
75.09029178932823
 20
153.34167726744772
 10
81.00206579229575
 20
152.6973766563716
 10
87.3177361021732
 20
152.0724014988781
 10
94.01117927371604
 20
151.47487010373342
 10
101.05235711280639
 20
150.91162424792688
 10
108.4038431778996
 20
150.38462450820163
 10
116.02205098404269
 20
149.89669318986307
 10
123.87158433803623
 20
149.45117204825556
 10
131.92230991649737
 20
149.04640510508614
 10
140.14360574983806
 20
148.68050506754497
 10
148.51796588855356
 20
148.35455913180277
 10
157.04181668991149
 20
148.06188485083544
 10
165.69042640496764
 20
147.78629454775975
 10
166.60390832896942
 20
147.75843821342647
 10
166.57342782244783
 20
146.7589028520099
 10
174.37675462124145
 20
146.52094121411386
 10
183.11660019085213
 20
146.27738151952826
 10
191.88615305166854
 20
146.0701383962866
 10
200.71926327284532
 20
145.89771514653245
 10
209.63377695657744
 20
145.74547939110627
 10
218.6127526986075
 20
145.59779499977125
 10
227.622748065858
 20
145.44674196236707
 10
236.63630012989827
 20
145.2958275546494
 10
245.63354329474413
 20
145.15813875976403
 10
254.63310808306358
 20
145.04440130437578
 10
263.6680484190682
 20
144.9517976108939
 10
272.7513102578347
 20
144.86800242114455
 10
281.86659382522066
 20
144.783674234018
 10
291.00020307237577
 20
144.69880372537196
 10
300.1408917699746
 20
144.615569930233
 10
309.27855277094716
 20
144.5328516785343
 10
318.39983986844913
 20
144.4509254855289
 10
327.49814846601635
 20
144.37640232295445
 10
336.58488187597044
 20
144.3150081792316
 10
345.672465532423
 20
144.2617143353086
 10
354.7553671458917
 20
144.203277058842
 10
363.8390673533983
 20
144.1340803938771
 10
372.9236044518588
 20
144.06206098646464
 10
382.0066159994671
 20
143.9993740564493
 10
391.0989906274283
 20
143.9466331757991
 10
400.1960087289929
 20
143.89569317274672
 10
409.2806361526735
 20
143.84319232628005
 10
418.3433684063474
 20
143.79794157963238
 10
427.391480955391
 20
143.76626605540164
 10
436.4320438308112
 20
143.7406777355158
 10
445.45283435173934
 20
143.70361265127892
 10
454.46928863688277
 20
143.64776091075544
 10
463.4906452002963
 20
143.58167374439802
 10
472.5050689537579
 20
143.51813757083062
 10
481.48596048171055
 20
143.4520707020642
 10
490.4201361318684
 20
143.36701704763342
 10
499.33101713190257
 20
143.25633043969904
 10
508.22270519363366
 20
143.14076535623244
 10
517.0761657922725
 20
143.05051365250998
 10
525.9303583579265
 20
142.99531062655478
 10
534.7989955932691
 20
142.95084910154293
 10
543.6629959220343
 20
142.88558829996322
 10
552.543855921612
 20
142.78947127252349
 10
561.4539075539117
 20
142.67850388310524
 10
570.356192253497
 20
142.5669434064579
 10
579.2104655962303
 20
142.4442384561101
 10
588.017234596625
 20
142.28620603298776
 10
596.8288596816595
 20
142.0837899151027
 10
605.6784955235721
 20
141.8559042824847
 10
614.5418891765864
 20
141.62633249773398
 10
623.3705574258901
 20
141.39543428817643
 10
632.1319127145871
 20
141.13773027041162
 10
640.8631538796358
 20
140.83221902275903
 10
649.6169560107828
 20
140.48360833879678
 10
658.4007222663485
 20
140.1161821341317
 10
667.1607099026069
 20
139.74749088384118
 10
675.8390403527922
 20
139.36608776595108
 10
684.4294516520467
 20
138.9414166899925
 10
692.9899491518785
 20
138.45325786655184
 10
701.5797453978914
 20
137.91420594220358
 10
710.1874672956269
 20
137.35721265915555
 10
718.7331514847922
 20
136.79504645337366
 10
727.1612087987348
 20
136.20741464117134
 10
735.473122259245
 20
135.57776075524848
 10
743.666476478285
 20
134.9120291802746
 10
751.7051405131172
 20
134.22000727832892
 10
759.5369086331239
 20
133.50639783471362
 10
767.1076881812779
 20
132.76806039845303
 10
774.3826486952021
 20
131.99474620967248
 10
781.3389757034219
 20
131.19741534808304
 10
787.9212742263912
 20
130.4123946166593
 10
794.054513612381
 20
129.66785312706804
 10
799.6891796695338
 20
128.96273888668344
 10
804.8269548718125
 20
128.29696293825032
 10
807.985399092963
 20
127.88120925674718
  0
LWPOLYLINE
  5
8D
330
17
100
AcDbEntity
  8
Layer
100
AcDbPolyline
 90
5
 70
0
 10
533.3789679112467
 20
216.25282530220943
 10
529.5176341918532
 20
217.29690475678865
 10
530.5617136464323
 20
221.1582384761822
 10
534.4230473658258
 20
220.11415902160297
 10
533.3789679112467
 20
216.25282530220943
  0
LWPOLYLINE
  5
8E
330
17
100
AcDbEntity
  8
Layer
100
AcDbPolyline
 90
5
 70
0
 10
232.10617511320083
 20
250.92505168934406
 10
228.11015151451005
 20
250.74673904619618
 10
227.93183887136217
 20
254.74276264488697
 10
231.92786247005296
 20
254.92107528803484
 10
232.10617511320083
 20
250.92505168934406
  0
LWPOLYLINE
  5
8F
330
17
100
AcDbEntity
  8
Layer
100
AcDbPolyline
 90
5
 70
0
 10
95.42751277104237
 20
230.4509281823633
 10
91.59072061488509
 20
229.31998788754223
 10
90.45978032006404
 20
233.1567800436995
 10
94.29657247622133
 20
234.2877203385206
 10
95.42751277104237
 20
230.4509281823633
  0
LWPOLYLINE
  5
90
330
17
100
AcDbEntity
  8
Layer
100
AcDbPolyline
 90
5
 70
0
 10
26.568557080609953
 20
196.82345450266632
 10
25.080098835602218
 20
195.4876056890394
 10
21.74047680153488
 20
199.20875130155878
 10
23.228935046542613
 20
200.5446001151857
 10
26.568557080609953
 20
196.82345450266632
  0
LWPOLYLINE
  5
91
330
17
100
AcDbEntity
  8
Layer
100
AcDbPolyline
 90
5
 70
0
 10
18.22998567397173
 20
172.36184678779168
 10
19.85399473771408
 20
171.19454453006975
 10
16.935739093409264
 20
167.13452187071388
 10
15.311730029666917
 20
168.3018241284358
 10
18.22998567397173
 20
172.36184678779168
  0
LWPOLYLINE
  5
92
330
17
100
AcDbEntity
  8
Layer
100
AcDbPolyline
 90
5
 70
0
 10
124.77609168712524
 20
153.41075061905786
 10
128.77104630200347
 20
153.2099083300272
 10
128.5702040129728
 20
149.21495371514897
 10
124.57524939809457
 20
149.41579600417964
 10
124.77609168712524
 20
153.41075061905786
  0
LINE
  5
93
330
17
100
AcDbEntity
  8
Layer
100
AcDbLine
 10
789.0895600968495
 20
135.1819038170094
 30
0.0
 11
788.7645042659292
 21
134.2362089894965
 31
0.0
  0
LINE
  5
94
330
17
100
AcDbEntity
  8
Layer
100
AcDbLine
 10
788.1626010899774
 20
131.3898210764592
 30
0.0
 11
788.0769655715236
 21
130.39349454465392
 31
0.0
  0
LINE
  5
95
330
17
100
AcDbEntity
  8
Layer
100
AcDbLine
 10
770.1642528519028
 20
141.64978021565318
 30
0.0
 11
769.8400280390451
 21
140.70380015733934
 31
0.0
  0
LINE
  5
96
330
17
100
AcDbEntity
  8
Layer
100
AcDbLine
 10
768.3003390264887
 20
133.6468967109647
 30
0.0
 11
768.2010627888596
 21
132.65183679887792
 31
0.0
  0
LINE
  5
97
330
17
100
AcDbEntity
  8
Layer
100
AcDbLine
 10
694.7645716483632
 20
168.39168320294314
 30
0.0
 11
694.4336475187931
 21
167.44802583902964
 31
0.0
  0
LINE
  5
98
330
17
100
AcDbEntity
  8
Layer
100
AcDbLine
 10
688.5072625382331
 20
139.71014766794627
 30
0.0
 11
688.4236553235341
 21
138.71364888036533
 31
0.0
  0
LWPOLYLINE
  5
99
330
17
100
AcDbEntity
  8
Layer
100
AcDbPolyline
 90
300
 70
1
 10
356.4450891905825
 20
200.0
 10
356.43584909931025
 20
200.93356219118704
 10
356.4081329056577
 20
201.8667121475913
 10
356.3619528483156
 20
202.79903781646127
 10
356.2973293190974
 20
203.7301275090276
 10
356.21429085393424
 20
204.65957008229336
 10
356.11287412027485
 20
205.586955120583
 10
355.99312390089375
 20
206.5118731167706
 10
355.8550930741167
 20
207.43391565310657
 10
355.6988425904711
 20
208.35267558156337
 10
355.52444144577186
 20
209.2677472036208
 10
355.3319666506549
 20
210.1787264494108
 10
355.12150319657144
 20
211.08521105614358
 10
354.8931440182579
 20
211.98680074573542
 10
354.6469899526989
 20
212.88309740156018
 10
354.38314969460026
 20
213.77370524424637
 10
354.10173974839256
 20
214.65823100644235
 10
353.8028843767861
 20
215.5362841064719
 10
353.4867155458997
 20
216.4074768208043
 10
353.15337286698866
 20
217.27142445526198
 10
352.803003534796
 20
218.12774551489062
 10
352.43576226255556
 20
218.97606187241678
 10
352.05181121367485
 20
219.815998935218
 10
351.65131993012835
 20
220.6471858107326
 10
351.23446525759266
 20
221.46925547023517
 10
350.8014312673562
 20
222.28184491090627
 10
350.35240917503864
 20
223.08459531612428
 10
349.8875972561555
 20
223.87715221390857
 10
349.4072007585652
 20
224.65916563344445
 10
348.91143181183725
 20
225.43029025962045
 10
348.4005093335821
 20
226.1901855855097
 10
347.8746589327831
 20
226.9385160627282
 10
347.334112810174
 20
227.6749512496036
 10
346.77910965570555
 20
228.39916595708883
 10
346.20989454314673
 20
229.11084039235658
 10
345.62671882186714
 20
229.80966030001065
 10
345.02984000584837
 20
230.49531710085242
 10
344.41952165997265
 20
231.16750802814067
 10
343.7960332836404
 20
231.82593626128488
 10
343.1596501917666
 20
232.47031105691278
 10
342.51065339320985
 20
233.10034787725448
 10
341.84932946668636
 20
233.71576851578644
 10
341.17597043422495
 20
234.31630122007945
 10
340.4908736322186
 20
234.90168081179695
 10
339.7943415801288
 20
235.47164880379043
 10
339.08668184690157
 20
236.0259535142398
 10
338.3682069151537
 20
236.56435017778927
 10
337.63923404318905
 20
237.08660105362867
 10
336.90008512490664
 20
237.59247553047325
 10
336.1510865476607
 20
238.08175022839495
 10
335.39256904813794
 20
238.5542090974608
 10
334.6248675663129
 20
239.00964351313453
 10
333.84832109754825
 20
239.44785236839914
 10
333.06327254290403
 20
239.8686421625602
 10
332.2700685577219
 20
240.2718270866904
 10
331.4690593985521
 20
240.6572291056773
 10
330.66059876849
 20
241.02467803683885
 10
329.84504366099077
 20
241.37401162507115
 10
329.022754202231
 20
241.7050756144958
 10
328.19409349208735
 20
242.0177238165749
 10
327.3594274438016
 20
242.31181817466376
 10
326.519124622404
 20
242.587228824973
 10
325.67355608196476
 20
242.84383415391258
 10
324.82309520174783
 20
243.08152085179296
 10
323.9681175213364
 20
243.30018396285948
 10
323.1090005748055
 20
243.49972693163792
 10
322.2461237240136
 20
243.68006164557065
 10
321.37986799108705
 20
243.84110847392463
 10
320.5106158901714
 20
243.9827963029541
 10
319.638751258524
 20
244.10506256730244
 10
318.76465908702215
 20
244.20785327762923
 10
317.8887253501621
 20
244.2911230444505
 10
317.0113368356235
 20
244.35483509818135
 10
316.1328809734749
 20
244.3989613053724
 10
315.2537456650955
 20
244.42348218113278
 10
314.3743191118888
 20
244.42838689773404
 10
313.49498964386373
 20
244.4136732893914
 10
312.61614554815935
 20
244.3793478532201
 10
311.73817489758784
 20
244.32542574636645
 10
310.8614653792726
 20
244.25193077931488
 10
309.98640412345645
 20
244.15889540537387
 10
309.1133775325561
 20
244.04636070634547
 10
308.2427711105374
 20
243.9143763743848
 10
307.37496929268764
 20
243.76300069005737
 10
306.51035527586
 20
243.59230049660397
 10
305.64931084926445
 20
243.4023511704246
 10
304.7922162258804
 20
243.19323658779444
 10
303.93944987456524
 20
242.96504908782634
 10
303.0913883529335
 20
242.71788943169656
 10
302.24840614107916
 20
242.45186675815143
 10
301.41087547621606
 20
242.16709853531472
 10
300.57916618830836
 20
241.86371050881706
 10
299.753645536764
 20
241.5418366462703
 10
298.9346780482633
 20
241.20161907811095
 10
298.12262535579447
 20
240.84320803483962
 10
297.3178460389662
 20
240.46676178068338
 10
296.52069546566923
 20
240.0724465437106
 10
295.73152563515623
 20
239.66043644242953
 10
294.9506850226081
 20
239.23091340890235
 10
294.17851842525795
 20
238.7840671084091
 10
293.41536681013775
 20
238.3200948556968
 10
292.6615671635171
 20
237.83920152785092
 10
291.9174523420997
 20
237.3415994738274
 10
291.18335092604286
 20
236.8275084206851
 10
290.45958707386626
 20
236.29715537656094
 10
289.7464803793121
 20
235.7507745304291
 10
289.04434573022206
 20
235.18860714869
 10
288.35349316949123
 20
234.61090146863378
 10
287.67422775816215
 20
234.01791258882565
 10
287.00684944071827
 20
233.40990235646163
 10
286.3516529126372
 20
232.78713925174412
 10
285.7089274902612
 20
232.1498982693287
 10
285.07895698304327
 20
231.4984607968941
 10
284.46201956822506
 20
230.83311449088947
 10
283.85838766800146
 20
230.15415314951326
 10
283.2683278292266
 20
229.4618765829803
 10
282.69210060571453
 20
228.75659048113394
 10
282.12996044318567
 20
228.0386062784622
 10
281.58215556691084
 20
227.30824101657686
 10
281.0489278721021
 20
226.56581720421698
 10
280.5305128170985
 20
225.81166267483798
 10
280.0271393193944
 20
225.04611044184975
 10
279.53902965455575
 20
224.26949855156715
 10
279.06639935806976
 20
223.48216993393848
 10
278.60945713017026
 20
222.68447225111703
 10
278.16840474368166
 20
221.87675774394347
 10
277.74343695492166
 20
221.05938307640605
 10
277.33474141770245
 20
220.2327091781479
 10
276.94249860046807
 20
219.3971010850907
 10
276.5668817066044
 20
218.552927778245
 10
276.2080565979579
 20
217.70056202077865
 10
275.8661817215951
 20
216.84038019341511
 10
275.5414080398373
 20
215.9727621282342
 10
275.23387896359947
 20
215.09809094094908
 10
274.94373028906455
 20
214.21675286173303
 10
274.67109013771903
 20
213.32913706467116
 10
274.41607889977877
 20
212.43563549591207
 10
274.17880918102753
 20
211.5366427005954
 10
273.9593857530936
 20
210.6325556486319
 10
273.7579055071859
 20
209.72377355941262
 10
273.57445741130897
 20
208.81069772552493
 10
273.40912247097776
 20
207.89373133555287
 10
273.26197369344754
 20
206.97327929604066
 10
273.13307605547607
 20
206.04974805269714
 10
273.02248647463165
 20
205.1235454109209
 10
272.9302537841599
 20
204.1950803557249
 10
272.8564187114206
 20
203.26476287114014
 10
272.8010138599032
 20
202.33300375917833
 10
272.7640636948305
 20
201.40021445843317
 10
272.74558453235517
 20
200.46680686240083
 10
272.74558453235517
 20
199.5331931375992
 10
272.7640636948305
 20
198.59978554156683
 10
272.8010138599032
 20
197.6669962408217
 10
272.8564187114206
 20
196.73523712885986
 10
272.9302537841599
 20
195.8049196442751
 10
273.02248647463165
 20
194.87645458907912
 10
273.13307605547607
 20
193.95025194730286
 10
273.26197369344754
 20
193.02672070395934
 10
273.40912247097776
 20
192.10626866444713
 10
273.57445741130897
 20
191.1893022744751
 10
273.7579055071859
 20
190.27622644058738
 10
273.9593857530936
 20
189.36744435136808
 10
274.17880918102753
 20
188.4633572994046
 10
274.41607889977877
 20
187.56436450408796
 10
274.67109013771903
 20
186.67086293532884
 10
274.94373028906455
 20
185.78324713826697
 10
275.23387896359947
 20
184.90190905905092
 10
275.5414080398373
 20
184.0272378717658
 10
275.8661817215951
 20
183.15961980658489
 10
276.2080565979579
 20
182.29943797922132
 10
276.5668817066044
 20
181.447072221755
 10
276.94249860046807
 20
180.6028989149093
 10
277.33474141770245
 20
179.7672908218521
 10
277.74343695492166
 20
178.94061692359398
 10
278.16840474368166
 20
178.12324225605653
 10
278.60945713017026
 20
177.31552774888297
 10
279.06639935806976
 20
176.51783006606152
 10
279.53902965455575
 20
175.73050144843285
 10
280.0271393193944
 20
174.95388955815028
 10
280.5305128170985
 20
174.18833732516202
 10
281.0489278721021
 20
173.43418279578304
 10
281.58215556691084
 20
172.69175898342314
 10
282.12996044318567
 20
171.9613937215378
 10
282.6921006057146
 20
171.24340951886606
 10
283.2683278292266
 20
170.5381234170197
 10
283.85838766800146
 20
169.84584685048674
 10
284.46201956822506
 20
169.16688550911053
 10
285.07895698304327
 20
168.5015392031059
 10
285.7089274902612
 20
167.8501017306713
 10
286.3516529126372
 20
167.21286074825588
 10
287.00684944071827
 20
166.59009764353837
 10
287.6742277581621
 20
165.98208741117435
 10
288.35349316949123
 20
165.38909853136622
 10
289.04434573022206
 20
164.81139285131
 10
289.7464803793121
 20
164.24922546957092
 10
290.45958707386626
 20
163.7028446234391
 10
291.18335092604286
 20
163.1724915793149
 10
291.91745234209964
 20
162.65840052617264
 10
292.66156716351713
 20
162.16079847214905
 10
293.41536681013775
 20
161.6799051443032
 10
294.178518425258
 20
161.2159328915909
 10
294.9506850226081
 20
160.76908659109765
 10
295.73152563515623
 20
160.33956355757047
 10
296.5206954656693
 20
159.9275534562894
 10
297.31784603896614
 20
159.53323821931664
 10
298.12262535579447
 20
159.15679196516038
 10
298.9346780482633
 20
158.79838092188905
 10
299.75364553676394
 20
158.45816335372973
 10
300.5791661883083
 20
158.13628949118294
 10
301.41087547621606
 20
157.83290146468528
 10
302.24840614107916
 20
157.54813324184857
 10
303.0913883529335
 20
157.28211056830344
 10
303.93944987456524
 20
157.03495091217366
 10
304.7922162258804
 20
156.80676341220556
 10
305.64931084926445
 20
156.5976488295754
 10
306.51035527586
 20
156.40769950339603
 10
307.37496929268764
 20
156.23699930994263
 10
308.2427711105374
 20
156.0856236256152
 10
309.11337753255617
 20
155.95363929365453
 10
309.98640412345645
 20
155.84110459462613
 10
310.86146537927254
 20
155.74806922068512
 10
311.73817489758784
 20
155.67457425363355
 10
312.61614554815935
 20
155.6206521467799
 10
313.49498964386373
 20
155.5863267106086
 10
314.3743191118887
 20
155.57161310226596
 10
315.2537456650955
 20
155.57651781886722
 10
316.1328809734749
 20
155.6010386946276
 10
317.0113368356235
 20
155.64516490181865
 10
317.8887253501621
 20
155.7088769555495
 10
318.76465908702215
 20
155.79214672237077
 10
319.638751258524
 20
155.89493743269756
 10
320.51061589017144
 20
156.0172036970459
 10
321.37986799108705
 20
156.15889152607537
 10
322.2461237240136
 20
156.31993835442935
 10
323.10900057480546
 20
156.50027306836208
 10
323.9681175213364
 20
156.69981603714052
 10
324.82309520174783
 20
156.91847914820704
 10
325.67355608196476
 20
157.15616584608742
 10
326.5191246224039
 20
157.412771175027
 10
327.3594274438016
 20
157.68818182533624
 10
328.19409349208735
 20
157.9822761834251
 10
329.022754202231
 20
158.2949243855042
 10
329.84504366099077
 20
158.62598837492885
 10
330.66059876849
 20
158.97532196316115
 10
331.4690593985521
 20
159.3427708943227
 10
332.2700685577219
 20
159.7281729133096
 10
333.06327254290403
 20
160.1313578374398
 10
333.84832109754825
 20
160.5521476316009
 10
334.6248675663129
 20
160.9903564868655
 10
335.3925690481379
 20
161.44579090253916
 10
336.1510865476607
 20
161.91824977160502
 10
336.9000851249066
 20
162.40752446952672
 10
337.63923404318905
 20
162.91339894637133
 10
338.3682069151537
 20
163.43564982221073
 10
339.08668184690157
 20
163.9740464857602
 10
339.7943415801288
 20
164.52835119620957
 10
340.49087363221855
 20
165.09831918820302
 10
341.17597043422495
 20
165.68369877992055
 10
341.84932946668636
 20
166.28423148421356
 10
342.5106533932099
 20
166.89965212274552
 10
343.1596501917666
 20
167.52968894308722
 10
343.7960332836404
 20
168.17406373871512
 10
344.41952165997265
 20
168.83249197185933
 10
345.02984000584837
 20
169.50468289914758
 10
345.62671882186714
 20
170.19033969998935
 10
346.2098945431467
 20
170.88915960764342
 10
346.77910965570555
 20
171.60083404291115
 10
347.334112810174
 20
172.3250487503964
 10
347.8746589327831
 20
173.0614839372718
 10
348.4005093335821
 20
173.8098144144903
 10
348.91143181183725
 20
174.56970974037955
 10
349.4072007585652
 20
175.34083436655555
 10
349.8875972561555
 20
176.12284778609143
 10
350.35240917503864
 20
176.91540468387572
 10
350.8014312673562
 20
177.71815508909373
 10
351.23446525759266
 20
178.53074452976486
 10
351.65131993012835
 20
179.3528141892674
 10
352.05181121367485
 20
180.184001064782
 10
352.43576226255556
 20
181.02393812758325
 10
352.803003534796
 20
181.87225448510935
 10
353.15337286698866
 20
182.72857554473802
 10
353.4867155458997
 20
183.59252317919567
 10
353.8028843767861
 20
184.46371589352808
 10
354.10173974839256
 20
185.34176899355765
 10
354.38314969460026
 20
186.22629475575363
 10
354.6469899526989
 20
187.11690259843982
 10
354.8931440182579
 20
188.01319925426458
 10
355.12150319657144
 20
188.9147889438564
 10
355.3319666506549
 20
189.8212735505892
 10
355.52444144577186
 20
190.73225279637924
 10
355.6988425904711
 20
191.64732441843663
 10
355.8550930741167
 20
192.56608434689343
 10
355.99312390089375
 20
193.4881268832294
 10
356.11287412027485
 20
194.41304487941701
 10
356.21429085393424
 20
195.34042991770662
 10
356.29732931909734
 20
196.26987249097238
 10
356.3619528483156
 20
197.20096218353873
 10
356.4081329056577
 20
198.1332878524087
 10
356.43584909931025
 20
199.06643780881296
 10
356.4450891905825
 20
200.0
  0
LINE
  5
9A
330
17
100
AcDbEntity
  8
Layer
 62
7
100
AcDbLine
 10
22.621822924067317
 20
200.00000000000003
 30
0.0
 11
601.2077280145961
 21
199.99999999999997
 31
0.0
  0
LINE
  5
9B
330
17
100
AcDbEntity
  8
Layer
 62
7
100
AcDbLine
 10
136.2390039421731
 20
200.00000000000003
 30
0.0
 11
148.2390039421731
 21
200.00000000000003
 31
0.0
  0
LWPOLYLINE
  5
9C
330
17
100
AcDbEntity
  8
Layer
100
AcDbPolyline
 90
5
 70
0
 10
142.2390039421731
 20
205.00000000000003
 10
147.2390039421731
 20
200.00000000000003
 10
142.2390039421731
 20
195.00000000000003
 10
137.2390039421731
 20
200.00000000000003
 10
142.2390039421731
 20
205.00000000000003
  0
LINE
  5
9D
330
17
100
AcDbEntity
  8
Layer
 62
7
100
AcDbLine
 10
305.91477546933174
 20
200.0
 30
0.0
 11
317.91477546933174
 21
200.0
 31
0.0
  0
LWPOLYLINE
  5
9E
330
17
100
AcDbEntity
  8
Layer
100
AcDbPolyline
 90
5
 70
0
 10
311.91477546933174
 20
205.0
 10
316.91477546933174
 20
200.0
 10
311.91477546933174
 20
195.0
 10
306.91477546933174
 20
200.0
 10
311.91477546933174
 20
205.0
  0
LINE
  5
9F
330
17
100
AcDbEntity
  8
Layer
 62
7
100
AcDbLine
 10
475.5905469964904
 20
199.99999999999997
 30
0.0
 11
487.5905469964904
 21
199.99999999999997
 31
0.0
  0
LWPOLYLINE
  5
A0
330
17
100
AcDbEntity
  8
Layer
100
AcDbPolyline
 90
5
 70
0
 10
481.5905469964904
 20
204.99999999999997
 10
486.5905469964904
 20
199.99999999999997
 10
481.5905469964904
 20
194.99999999999997
 10
476.5905469964904
 20
199.99999999999997
 10
481.5905469964904
 20
204.99999999999997
  0
LINE
  5
A1
330
17
100
AcDbEntity
  8
Layer
 62
7
100
AcDbLine
 10
9.594904543993664
 20
180.03169630729775
 30
0.0
 11
807.2609188897933
 21
128.7285450976912
 31
0.0
  0
LINE
  5
A2
330
17
100
AcDbEntity
  8
Layer
 62
7
100
AcDbLine
 10
167.03243743780303
 20
169.90585239411206
 30
0.0
 11
179.00769443980641
 21
169.1356448013371
 31
0.0
  0
LWPOLYLINE
  5
A3
330
17
100
AcDbEntity
  8
Layer
100
AcDbPolyline
 90
5
 70
0
 10
173.34098576912763
 20
174.510439015226
 10
178.00975635630616
 20
169.19982876740167
 10
172.6991461084818
 20
164.53105818022314
 10
168.03037552130328
 20
169.84166842804748
 10
173.34098576912763
 20
174.510439015226
  0
LINE
  5
A4
330
17
100
AcDbEntity
  8
Layer
 62
7
100
AcDbLine
 10
363.20564225287694
 20
157.28866248142032
 30
0.0
 11
375.1808992548804
 21
156.51845488864535
 31
0.0
  0
LWPOLYLINE
  5
A5
330
17
100
AcDbEntity
  8
Layer
100
AcDbPolyline
 90
5
 70
0
 10
369.5141905842016
 20
161.89324910253427
 10
374.1829611713801
 20
156.58263885470993
 10
368.87235092355576
 20
151.9138682675314
 10
364.20358033637723
 20
157.22447851535574
 10
369.5141905842016
 20
161.89324910253427
  0
LINE
  5
A6
330
17
100
AcDbEntity
  8
Layer
100
AcDbLine
 10
314.59418181818177
 20
244.429
 30
0.0
 11
314.59418181818177
 21
245.429
 31
0.0
  0
LINE
  5
A7
330
17
100
AcDbEntity
  8
Layer
100
AcDbLine
 10
314.59418181818177
 20
155.571
 30
0.0
 11
314.59418181818177
 21
154.571
 31
0.0
  0
LINE
  5
A8
330
17
100
AcDbEntity
  8
Layer
100
AcDbLine
 10
356.4450891905825
 20
200.0
 30
0.0
 11
357.4450891905825
 21
200.0
 31
0.0
  0
LINE
  5
A9
330
17
100
AcDbEntity
  8
Layer
100
AcDbLine
 10
272.743274445781
 20
200.0
 30
0.0
 11
271.743274445781
 21
200.0
 31
0.0
  0
LINE
  5
AA
330
17
100
AcDbEntity
  8
Layer
 62
7
100
AcDbLine
 10
164.59418181818177
 20
147.82122667996032
 30
0.0
 11
164.59418181818177
 21
248.9686254865255
 31
0.0
  0
LINE
  5
AB
330
17
100
AcDbEntity
  8
Layer
 62
7
100
AcDbLine
 10
164.59418181818177
 20
179.17281626225812
 30
0.0
 11
164.59418181818177
 21
191.17281626225812
 31
0.0
  0
LWPOLYLINE
  5
AC
330
17
100
AcDbEntity
  8
Layer
100
AcDbPolyline
 90
5
 70
0
 10
159.59418181818177
 20
185.17281626225812
 10
164.59418181818177
 20
190.17281626225812
 10
169.59418181818177
 20
185.17281626225812
 10
164.59418181818177
 20
180.17281626225812
 10
159.59418181818177
 20
185.17281626225812
  0
LINE
  5
AD
330
17
100
AcDbEntity
  8
Layer
 62
7
100
AcDbLine
 10
164.59418181818177
 20
205.6170359042277
 30
0.0
 11
164.59418181818177
 21
217.6170359042277
 31
0.0
  0
LWPOLYLINE
  5
AE
330
17
100
AcDbEntity
  8
Layer
100
AcDbPolyline
 90
5
 70
0
 10
159.59418181818177
 20
211.6170359042277
 10
164.59418181818177
 20
216.6170359042277
 10
169.59418181818177
 20
211.6170359042277
 10
164.59418181818177
 20
206.6170359042277
 10
159.59418181818177
 20
211.6170359042277
  0
LINE
  5
AF
330
17
100
AcDbEntity
  8
Layer
 62
7
100
AcDbLine
 10
614.5941818181818
 20
141.624964876143
 30
0.0
 11
614.5941818181818
 21
196.59547204895597
 31
0.0
  0
LINE
  5
B0
330
17
100
AcDbEntity
  8
Layer
 62
7
100
AcDbLine
 10
614.5941818181818
 20
156.81464238662755
 30
0.0
 11
614.5941818181818
 21
168.81464238662755
 31
0.0
  0
LWPOLYLINE
  5
B1
330
17
100
AcDbEntity
  8
Layer
100
AcDbPolyline
 90
5
 70
0
 10
609.5941818181818
 20
162.81464238662755
 10
614.5941818181818
 20
167.81464238662755
 10
619.5941818181818
 20
162.81464238662755
 10
614.5941818181818
 20
157.81464238662755
 10
609.5941818181818
 20
162.81464238662755
  0
LINE
  5
B2
330
17
100
AcDbEntity
  8
Layer
 62
7
100
AcDbLine
 10
614.5941818181818
 20
169.40579453847144
 30
0.0
 11
614.5941818181818
 21
181.40579453847144
 31
0.0
  0
LWPOLYLINE
  5
B3
330
17
100
AcDbEntity
  8
Layer
100
AcDbPolyline
 90
5
 70
0
 10
609.5941818181818
 20
175.40579453847144
 10
614.5941818181818
 20
180.40579453847144
 10
619.5941818181818
 20
175.40579453847144
 10
614.5941818181818
 20
170.40579453847144
 10
609.5941818181818
 20
175.40579453847144
  0
LWPOLYLINE
  5
B4
330
17
100
AcDbEntity
  8
NumLabel
 62
1
100
AcDbPolyline
 90
5
 70
0
 10
234.43781818181816
 20
169.9218181818182
 10
234.43781818181816
 20
164.9218181818182
 10
239.43781818181816
 20
164.9218181818182
 10
239.43781818181816
 20
169.9218181818182
 10
239.43781818181816
 20
159.9218181818182
  0
LWPOLYLINE
  5
B5
330
17
100
AcDbEntity
  8
NumLabel
 62
1
100
AcDbPolyline
 90
7
 70
0
 10
241.93781818181816
 20
169.9218181818182
 10
246.93781818181816
 20
169.9218181818182
 10
246.93781818181816
 20
164.9218181818182
 10
241.93781818181816
 20
164.9218181818182
 10
246.93781818181816
 20
164.9218181818182
 10
246.93781818181816
 20
159.9218181818182
 10
241.93781818181816
 20
159.9218181818182
  0
ENDSEC
  0
SECTION
  2
OBJECTS
  0
DICTIONARY
  5
A
330
0
100
AcDbDictionary
280
0
281
1
  3
ACAD_COLOR
350
B
  3
ACAD_GROUP
350
C
  3
ACAD_LAYOUT
350
D
  3
ACAD_MATERIAL
350
E
  3
ACAD_MLEADERSTYLE
350
F
  3
ACAD_MLINESTYLE
350
10
  3
ACAD_PLOTSETTINGS
350
11
  3
ACAD_PLOTSTYLENAME
350
12
  3
ACAD_SCALELIST
350
14
  3
ACAD_TABLESTYLE
350
15
  3
ACAD_VISUALSTYLE
350
16
  3
EZDXF_META
350
2D
  0
DICTIONARY
  5
B
330
A
100
AcDbDictionary
280
0
281
1
  0
DICTIONARY
  5
C
330
A
100
AcDbDictionary
280
0
281
1
  0
DICTIONARY
  5
D
330
A
100
AcDbDictionary
280
0
281
1
  3
Model
350
1A
  3
Layout1
350
1E
  0
DICTIONARY
  5
E
330
A
100
AcDbDictionary
280
0
281
1
  3
ByBlock
350
1F
  3
ByLayer
350
20
  3
Global
350
21
  0
DICTIONARY
  5
F
330
A
100
AcDbDictionary
280
0
281
1
  3
Standard
350
2C
  0
DICTIONARY
  5
10
330
A
100
AcDbDictionary
280
0
281
1
  3
Standard
350
22
  0
DICTIONARY
  5
11
330
A
100
AcDbDictionary
280
0
281
1
  0
ACDBDICTIONARYWDFLT
  5
12
330
A
100
AcDbDictionary
280
0
281
1
  3
Normal
350
13
100
AcDbDictionaryWithDefault
340
13
  0
ACDBPLACEHOLDER
  5
13
330
12
  0
DICTIONARY
  5
14
330
A
100
AcDbDictionary
280
0
281
1
  0
DICTIONARY
  5
15
330
A
100
AcDbDictionary
280
0
281
1
  0
DICTIONARY
  5
16
330
A
100
AcDbDictionary
280
0
281
1
  3
2dWireframe
350
5A
  3
Basic
350
5B
  3
Brighten
350
5C
  3
ColorChange
350
5D
  3
Conceptual
350
5E
  3
Dim
350
5F
  3
EdgeColorOff
350
60
  3
Facepattern
350
61
  3
Flat
350
62
  3
FlatWithEdges
350
63
  3
Gouraud
350
64
  3
GouraudWithEdges
350
65
  3
Hidden
350
66
  3
JitterOff
350
67
  3
Linepattern
350
68
  3
Modeling
350
69
  3
OverhangOff
350
6A
  3
Realistic
350
6B
  3
Shaded
350
6C
  3
Shaded with edges
350
6D
  3
Shades of Gray
350
6E
  3
Sketchy
350
6F
  3
Thicken
350
70
  3
Wireframe
350
71
  3
X-Ray
350
72
  0
LAYOUT
  5
1A
330
D
100
AcDbPlotSettings
  1

  2
Adobe PDF
  4
A3
  6

 40
7.5
 41
20.0
 42
7.5
 43
20.0
 44
420.0
 45
297.0
 46
0.0
 47
0.0
 48
0.0
 49
0.0
140
0.0
141
0.0
142
1.0
143
1.0
 70
1024
 72
1
 73
0
 74
5
  7

 75
16
 76
0
 77
2
 78
300
147
1.0
148
0.0
149
0.0
100
AcDbLayout
  1
Model
 70
1
 71
0
 10
0.0
 20
0.0
 11
420.0
 21
297.0
 12
0.0
 22
0.0
 32
0.0
 14
1e+20
 24
1e+20
 34
1e+20
 15
-1e+20
 25
-1e+20
 35
-1e+20
146
0.0
 13
0.0
 23
0.0
 33
0.0
 16
1.0
 26
0.0
 36
0.0
 17
0.0
 27
1.0
 37
0.0
 76
1
330
17
  0
LAYOUT
  5
1E
330
D
100
AcDbPlotSettings
  1

  2
Adobe PDF
  4
A3
  6

 40
7.5
 41
20.0
 42
7.5
 43
20.0
 44
420.0
 45
297.0
 46
0.0
 47
0.0
 48
0.0
 49
0.0
140
0.0
141
0.0
142
1.0
143
1.0
 70
0
 72
1
 73
0
 74
5
  7

 75
16
 76
0
 77
2
 78
300
147
1.0
148
0.0
149
0.0
100
AcDbLayout
  1
Layout1
 70
1
 71
1
 10
0.0
 20
0.0
 11
420.0
 21
297.0
 12
0.0
 22
0.0
 32
0.0
 14
1e+20
 24
1e+20
 34
1e+20
 15
-1e+20
 25
-1e+20
 35
-1e+20
146
0.0
 13
0.0
 23
0.0
 33
0.0
 16
1.0
 26
0.0
 36
0.0
 17
0.0
 27
1.0
 37
0.0
 76
1
330
1B
  0
MATERIAL
  5
1F
102
{ACAD_REACTORS
330
E
102
}
330
E
100
AcDbMaterial
  1
ByBlock
  2

 70
0
 40
1.0
 71
1
 41
1.0
 91
-1023410177
 42
1.0
 72
1
  3

 73
1
 74
1
 75
1
 44
0.5
 73
0
 45
1.0
 46
1.0
 77
1
  4

 78
1
 79
1
170
1
 48
1.0
171
1
  6

172
1
173
1
174
1
140
1.0
141
1.0
175
1
  7

176
1
177
1
178
1
143
1.0
179
1
  8

270
1
271
1
272
1
145
1.0
146
1.0
273
1
  9

274
1
275
1
276
1
 42
1.0
 72
1
  3

 73
1
 74
1
 75
1
 94
63
  0
MATERIAL
  5
20
102
{ACAD_REACTORS
330
E
102
}
330
E
100
AcDbMaterial
  1
ByLayer
  2

 70
0
 40
1.0
 71
1
 41
1.0
 91
-1023410177
 42
1.0
 72
1
  3

 73
1
 74
1
 75
1
 44
0.5
 73
0
 45
1.0
 46
1.0
 77
1
  4

 78
1
 79
1
170
1
 48
1.0
171
1
  6

172
1
173
1
174
1
140
1.0
141
1.0
175
1
  7

176
1
177
1
178
1
143
1.0
179
1
  8

270
1
271
1
272
1
145
1.0
146
1.0
273
1
  9

274
1
275
1
276
1
 42
1.0
 72
1
  3

 73
1
 74
1
 75
1
 94
63
  0
MATERIAL
  5
21
102
{ACAD_REACTORS
330
E
102
}
330
E
100
AcDbMaterial
  1
Global
  2

 70
0
 40
1.0
 71
1
 41
1.0
 91
-1023410177
 42
1.0
 72
1
  3

 73
1
 74
1
 75
1
 44
0.5
 73
0
 45
1.0
 46
1.0
 77
1
  4

 78
1
 79
1
170
1
 48
1.0
171
1
  6

172
1
173
1
174
1
140
1.0
141
1.0
175
1
  7

176
1
177
1
178
1
143
1.0
179
1
  8

270
1
271
1
272
1
145
1.0
146
1.0
273
1
  9

274
1
275
1
276
1
 42
1.0
 72
1
  3

 73
1
 74
1
 75
1
 94
63
  0
MLINESTYLE
  5
22
102
{ACAD_REACTORS
330
10
102
}
330
10
100
AcDbMlineStyle
  2
Standard
 70
0
  3

 62
256
 51
90.0
 52
90.0
 71
2
 49
0.5
 62
256
  6
BYLAYER
 49
-0.5
 62
256
  6
BYLAYER
  0
MLEADERSTYLE
  5
2C
102
{ACAD_REACTORS
330
F
102
}
330
F
100
AcDbMLeaderStyle
179
2
170
2
171
1
172
0
 90
2
 40
0.0
 41
0.0
173
1
 91
-1056964608
 92
-2
290
1
 42
2.0
291
1
 43
8.0
  3
Standard
 44
4.0
300

342
29
174
1
175
1
176
0
178
1
 93
-1056964608
 45
4.0
292
0
297
0
 46
4.0
 94
-1056964608
 47
1.0
 49
1.0
140
1.0
294
1
141
0.0
177
0
142
1.0
295
0
296
0
143
3.75
271
0
272
9
273
9
  0
DICTIONARY
  5
2D
330
A
100
AcDbDictionary
281
1
  3
CREATED_BY_EZDXF
350
2E
  3
WRITTEN_BY_EZDXF
350
B8
  0
DICTIONARYVAR
  5
2E
330
2D
100
DictionaryVariables
280
0
  1
1.3.0 @ 2026-01-06T17:07:16.579244+00:00
  0
VISUALSTYLE
  5
5A
102
{ACAD_REACTORS
330
16
102
}
330
16
100
AcDbVisualStyle
  2
2dWireframe
 70
4
 90
0
 40
0.6
 62
7
290
0
291
0
  0
VISUALSTYLE
  5
5B
102
{ACAD_REACTORS
330
16
102
}
330
16
100
AcDbVisualStyle
  2
Basic
 70
7
 90
1
 40
0.6
 62
7
290
0
291
1
  0
VISUALSTYLE
  5
5C
102
{ACAD_REACTORS
330
16
102
}
330
16
100
AcDbVisualStyle
  2
Brighten
 70
12
 90
2
 40
0.6
 62
7
290
0
291
1
  0
VISUALSTYLE
  5
5D
102
{ACAD_REACTORS
330
16
102
}
330
16
100
AcDbVisualStyle
  2
ColorChange
 70
16
 90
2
 40
0.6
 62
8
290
0
291
1
  0
VISUALSTYLE
  5
5E
102
{ACAD_REACTORS
330
16
102
}
330
16
100
AcDbVisualStyle
  2
Conceptual
 70
9
 90
3
 40
0.6
 62
7
290
0
291
0
  0
VISUALSTYLE
  5
5F
102
{ACAD_REACTORS
330
16
102
}
330
16
100
AcDbVisualStyle
  2
Dim
 70
11
 90
2
 40
0.6
 62
7
290
0
291
1
  0
VISUALSTYLE
  5
60
102
{ACAD_REACTORS
330
16
102
}
330
16
100
AcDbVisualStyle
  2
EdgeColorOff
 70
22
 90
2
 40
0.6
 62
7
290
0
291
1
  0
VISUALSTYLE
  5
61
102
{ACAD_REACTORS
330
16
102
}
330
16
100
AcDbVisualStyle
  2
Facepattern
 70
15
 90
2
 40
0.6
 62
7
290
0
291
1
  0
VISUALSTYLE
  5
62
102
{ACAD_REACTORS
330
16
102
}
330
16
100
AcDbVisualStyle
  2
Flat
 70
0
 90
2
 40
0.6
 62
7
290
0
291
1
  0
VISUALSTYLE
  5
63
102
{ACAD_REACTORS
330
16
102
}
330
16
100
AcDbVisualStyle
  2
FlatWithEdges
 70
1
 90
2
 40
0.6
 62
7
290
0
291
1
  0
VISUALSTYLE
  5
64
102
{ACAD_REACTORS
330
16
102
}
330
16
100
AcDbVisualStyle
  2
Gouraud
 70
2
 90
2
 40
0.6
 62
7
290
0
291
1
  0
VISUALSTYLE
  5
65
102
{ACAD_REACTORS
330
16
102
}
330
16
100
AcDbVisualStyle
  2
GouraudWithEdges
 70
3
 90
2
 40
0.6
 62
7
290
0
291
1
  0
VISUALSTYLE
  5
66
102
{ACAD_REACTORS
330
16
102
}
330
16
100
AcDbVisualStyle
  2
Hidden
 70
6
 90
1
 40
0.6
 62
7
290
0
291
0
  0
VISUALSTYLE
  5
67
102
{ACAD_REACTORS
330
16
102
}
330
16
100
AcDbVisualStyle
  2
JitterOff
 70
20
 90
2
 40
0.6
 62
7
290
0
291
1
  0
VISUALSTYLE
  5
68
102
{ACAD_REACTORS
330
16
102
}
330
16
100
AcDbVisualStyle
  2
Linepattern
 70
14
 90
2
 40
0.6
 62
7
290
0
291
1
  0
VISUALSTYLE
  5
69
102
{ACAD_REACTORS
330
16
102
}
330
16
100
AcDbVisualStyle
  2
Modeling
 70
10
 90
2
 40
0.6
 62
7
290
0
291
0
  0
VISUALSTYLE
  5
6A
102
{ACAD_REACTORS
330
16
102
}
330
16
100
AcDbVisualStyle
  2
OverhangOff
 70
21
 90
2
 40
0.6
 62
7
290
0
291
1
  0
VISUALSTYLE
  5
6B
102
{ACAD_REACTORS
330
16
102
}
330
16
100
AcDbVisualStyle
  2
Realistic
 70
8
 90
2
 40
0.6
 62
7
290
0
291
0
  0
VISUALSTYLE
  5
6C
102
{ACAD_REACTORS
330
16
102
}
330
16
100
AcDbVisualStyle
  2
Shaded
 70
27
 90
2
 40
0.6
 62
7
290
0
291
0
  0
VISUALSTYLE
  5
6D
102
{ACAD_REACTORS
330
16
102
}
330
16
100
AcDbVisualStyle
  2
Shaded with edges
 70
26
 90
2
 40
0.6
 62
7
290
0
291
0
  0
VISUALSTYLE
  5
6E
102
{ACAD_REACTORS
330
16
102
}
330
16
100
AcDbVisualStyle
  2
Shades of Gray
 70
23
 90
2
 40
0.6
 62
7
290
0
291
0
  0
VISUALSTYLE
  5
6F
102
{ACAD_REACTORS
330
16
102
}
330
16
100
AcDbVisualStyle
  2
Sketchy
 70
24
 90
1
 40
0.6
 62
7
290
0
291
0
  0
VISUALSTYLE
  5
70
102
{ACAD_REACTORS
330
16
102
}
330
16
100
AcDbVisualStyle
  2
Thicken
 70
13
 90
2
 40
0.6
 62
7
290
0
291
1
  0
VISUALSTYLE
  5
71
102
{ACAD_REACTORS
330
16
102
}
330
16
100
AcDbVisualStyle
  2
Wireframe
 70
5
 90
0
 40
0.6
 62
7
290
0
291
0
  0
VISUALSTYLE
  5
72
102
{ACAD_REACTORS
330
16
102
}
330
16
100
AcDbVisualStyle
  2
X-Ray
 70
25
 90
2
 40
0.5
 62
7
290
0
291
0
  0
DICTIONARYVAR
  5
B8
330
2D
100
DictionaryVariables
280
0
  1
1.3.0 @ 2026-01-06T17:07:16.778689+00:00
  0
ENDSEC
  0
EOF
