  0
SECTION
  2
HEADER
  9
$ACADVER
  1
AC1021
  9
$ACADMAINTVER
 70
25
  9
$DWGCODEPAGE
  3
ANSI_1252
  9
$LASTSAVEDBY
  1
ezdxf
  9
$INSBASE
 10
0.0
 20
0.0
 30
0.0
  9
$EXTMIN
 10
1e+20
 20
1e+20
 30
1e+20
  9
$EXTMAX
 10
-1e+20
 20
-1e+20
 30
-1e+20
  9
$LIMMIN
 10
0.0
 20
0.0
  9
$LIMMAX
 10
420.0
 20
297.0
  9
$ORTHOMODE
 70
0
  9
$REGENMODE
 70
1
  9
$FILLMODE
 70
1
  9
$QTEXTMODE
 70
0
  9
$MIRRTEXT
 70
1
  9
$LTSCALE
 40
1.0
  9
$ATTMODE
 70
1
  9
$TEXTSIZE
 40
2.5
  9
$TRACEWID
 40
1.0
  9
$TEXTSTYLE
  7
OpenSans
  9
$CLAYER
  8
0
  9
$CELTYPE
  6
ByLayer
  9
$CECOLOR
 62
256
  9
$CELTSCALE
 40
1.0
  9
$DISPSILH
 70
0
  9
$DIMSCALE
 40
1.0
  9
$DIMASZ
 40
0.175
  9
$DIMEXO
 40
0.125
  9
$DIMDLI
 40
3.75
  9
$DIMRND
 40
0.0
  9
$DIMDLE
 40
0.0
  9
$DIMEXE
 40
0.375
  9
$DIMTP
 40
0.0
  9
$DIMTM
 40
0.0
  9
$DIMTXT
 40
0.25
  9
$DIMCEN
 40
2.5
  9
$DIMTSZ
 40
0.0
  9
$DIMTOL
 70
0
  9
$DIMLIM
 70
0
  9
$DIMTIH
 70
0
  9
$DIMTOH
 70
0
  9
$DIMSE1
 70
0
  9
$DIMSE2
 70
0
  9
$DIMTAD
 70
1
  9
$DIMZIN
 70
12
  9
$DIMBLK
  1
ARCHTICK
  9
$DIMASO
 70
1
  9
$DIMSHO
 70
1
  9
$DIMPOST
  1

  9
$DIMAPOST
  1

  9
$DIMALT
 70
0
  9
$DIMALTD
 70
3
  9
$DIMALTF
 40
0.03937007874
  9
$DIMLFAC
 40
100.0
  9
$DIMTOFL
 70
1
  9
$DIMTVP
 40
0.0
  9
$DIMTIX
 70
0
  9
$DIMSOXD
 70
0
  9
$DIMSAH
 70
0
  9
$DIMBLK1
  1

  9
$DIMBLK2
  1

  9
$DIMSTYLE
  2
EZDXF
  9
$DIMCLRD
 70
0
  9
$DIMCLRE
 70
0
  9
$DIMCLRT
 70
0
  9
$DIMTFAC
 40
0.5
  9
$DIMGAP
 40
0.1
  9
$DIMJUST
 70
0
  9
$DIMSD1
 70
0
  9
$DIMSD2
 70
0
  9
$DIMTOLJ
 70
0
  9
$DIMTZIN
 70
8
  9
$DIMALTZ
 70
0
  9
$DIMALTTZ
 70
0
  9
$DIMUPT
 70
1
  9
$DIMDEC
 70
2
  9
$DIMTDEC
 70
2
  9
$DIMALTU
 70
2
  9
$DIMALTTD
 70
3
  9
$DIMTXSTY
  7
OpenSansCondensed-Light
  9
$DIMAUNIT
 70
0
  9
$DIMADEC
 70
2
  9
$DIMALTRND
 40
0.0
  9
$DIMAZIN
 70
3
  9
$DIMDSEP
 70
46
  9
$DIMATFIT
 70
3
  9
$DIMFRAC
 70
0
  9
$DIMLDRBLK
  1

  9
$DIMLUNIT
 70
2
  9
$DIMLWD
 70
-2
  9
$DIMLWE
 70
-2
  9
$DIMTMOVE
 70
2
  9
$DIMFXL
 40
1.0
  9
$DIMFXLON
 70
0
  9
$DIMJOGANG
 40
0.785398163397
  9
$DIMTFILL
 70
0
  9
$DIMTFILLCLR
 70
0
  9
$DIMARCSYM
 70
0
  9
$DIMLTYPE
  6

  9
$DIMLTEX1
  6

  9
$DIMLTEX2
  6

  9
$LUNITS
 70
2
  9
$LUPREC
 70
4
  9
$SKETCHINC
 40
1.0
  9
$FILLETRAD
 40
10.0
  9
$AUNITS
 70
0
  9
$AUPREC
 70
2
  9
$MENU
  1
.
  9
$ELEVATION
 40
0.0
  9
$PELEVATION
 40
0.0
  9
$THICKNESS
 40
0.0
  9
$LIMCHECK
 70
0
  9
$CHAMFERA
 40
0.0
  9
$CHAMFERB
 40
0.0
  9
$CHAMFERC
 40
0.0
  9
$CHAMFERD
 40
0.0
  9
$SKPOLY
 70
0
  9
$TDCREATE
 40
2461048.0884837965
  9
$TDUCREATE
 40
2458532.153996898
  9
$TDUPDATE
 40
2461048.0884837965
  9
$TDUUPDATE
 40
2458532.1544311
  9
$TDINDWG
 40
0.0
  9
$TDUSRTIMER
 40
0.0
  9
$USRTIMER
 70
1
  9
$ANGBASE
 50
0.0
  9
$ANGDIR
 70
0
  9
$PDMODE
 70
0
  9
$PDSIZE
 40
0.0
  9
$PLINEWID
 40
0.0
  9
$SPLFRAME
 70
0
  9
$SPLINETYPE
 70
6
  9
$SPLINESEGS
 70
8
  9
$HANDSEED
  5
B2
  9
$SURFTAB1
 70
6
  9
$SURFTAB2
 70
6
  9
$SURFTYPE
 70
6
  9
$SURFU
 70
6
  9
$SURFV
 70
6
  9
$UCSBASE
  2

  9
$UCSNAME
  2

  9
$UCSORG
 10
0.0
 20
0.0
 30
0.0
  9
$UCSXDIR
 10
1.0
 20
0.0
 30
0.0
  9
$UCSYDIR
 10
0.0
 20
1.0
 30
0.0
  9
$UCSORTHOREF
  2

  9
$UCSORTHOVIEW
 70
0
  9
$UCSORGTOP
 10
0.0
 20
0.0
 30
0.0
  9
$UCSORGBOTTOM
 10
0.0
 20
0.0
 30
0.0
  9
$UCSORGLEFT
 10
0.0
 20
0.0
 30
0.0
  9
$UCSORGRIGHT
 10
0.0
 20
0.0
 30
0.0
  9
$UCSORGFRONT
 10
0.0
 20
0.0
 30
0.0
  9
$UCSORGBACK
 10
0.0
 20
0.0
 30
0.0
  9
$PUCSBASE
  2

  9
$PUCSNAME
  2

  9
$PUCSORG
 10
0.0
 20
0.0
 30
0.0
  9
$PUCSXDIR
 10
1.0
 20
0.0
 30
0.0
  9
$PUCSYDIR
 10
0.0
 20
1.0
 30
0.0
  9
$PUCSORTHOREF
  2

  9
$PUCSORTHOVIEW
 70
0
  9
$PUCSORGTOP
 10
0.0
 20
0.0
 30
0.0
  9
$PUCSORGBOTTOM
 10
0.0
 20
0.0
 30
0.0
  9
$PUCSORGLEFT
 10
0.0
 20
0.0
 30
0.0
  9
$PUCSORGRIGHT
 10
0.0
 20
0.0
 30
0.0
  9
$PUCSORGFRONT
 10
0.0
 20
0.0
 30
0.0
  9
$PUCSORGBACK
 10
0.0
 20
0.0
 30
0.0
  9
$USERI1
 70
0
  9
$USERI2
 70
0
  9
$USERI3
 70
0
  9
$USERI4
 70
0
  9
$USERI5
 70
0
  9
$USERR1
 40
0.0
  9
$USERR2
 40
0.0
  9
$USERR3
 40
0.0
  9
$USERR4
 40
0.0
  9
$USERR5
 40
0.0
  9
$WORLDVIEW
 70
1
  9
$SHADEDGE
 70
3
  9
$SHADEDIF
 70
70
  9
$TILEMODE
 70
1
  9
$MAXACTVP
 70
64
  9
$PINSBASE
 10
0.0
 20
0.0
 30
0.0
  9
$PLIMCHECK
 70
0
  9
$PEXTMIN
 10
1e+20
 20
1e+20
 30
1e+20
  9
$PEXTMAX
 10
-1e+20
 20
-1e+20
 30
-1e+20
  9
$PLIMMIN
 10
0.0
 20
0.0
  9
$PLIMMAX
 10
420.0
 20
297.0
  9
$UNITMODE
 70
0
  9
$VISRETAIN
 70
1
  9
$PLINEGEN
 70
0
  9
$PSLTSCALE
 70
1
  9
$TREEDEPTH
 70
3020
  9
$CMLSTYLE
  2
Standard
  9
$CMLJUST
 70
0
  9
$CMLSCALE
 40
20.0
  9
$PROXYGRAPHICS
 70
1
  9
$MEASUREMENT
 70
1
  9
$CELWEIGHT
370
-1
  9
$ENDCAPS
280
0
  9
$JOINSTYLE
280
0
  9
$LWDISPLAY
290
0
  9
$INSUNITS
 70
6
  9
$HYPERLINKBASE
  1

  9
$STYLESHEET
  1

  9
$XEDIT
290
1
  9
$CEPSNTYPE
380
0
  9
$PSTYLEMODE
290
1
  9
$FINGERPRINTGUID
  2
{150F8457-BEA9-46A3-904C-C20B25DF02C9}
  9
$VERSIONGUID
  2
{EEF00D23-D059-4941-9D65-02436744884C}
  9
$EXTNAMES
290
1
  9
$PSVPSCALE
 40
0.0
  9
$OLESTARTUP
290
0
  9
$SORTENTS
280
127
  9
$INDEXCTL
280
0
  9
$HIDETEXT
280
1
  9
$XCLIPFRAME
290
1
  9
$HALOGAP
280
0
  9
$OBSCOLOR
 70
257
  9
$OBSLTYPE
280
0
  9
$INTERSECTIONDISPLAY
280
0
  9
$INTERSECTIONCOLOR
 70
257
  9
$DIMASSOC
280
2
  9
$PROJECTNAME
  1

  9
$CAMERADISPLAY
290
0
  9
$LENSLENGTH
 40
50.0
  9
$CAMERAHEIGHT
 40
0.0
  9
$STEPSPERSEC
 40
24.0
  9
$STEPSIZE
 40
100.0
  9
$3DDWFPREC
 40
2.0
  9
$PSOLWIDTH
 40
0.005
  9
$PSOLHEIGHT
 40
0.08
  9
$LOFTANG1
 40
1.570796326795
  9
$LOFTANG2
 40
1.570796326795
  9
$LOFTMAG1
 40
0.0
  9
$LOFTMAG2
 40
0.0
  9
$LOFTPARAM
 70
7
  9
$LOFTNORMALS
280
1
  9
$LATITUDE
 40
37.795
  9
$LONGITUDE
 40
-122.394
  9
$NORTHDIRECTION
 40
0.0
  9
$TIMEZONE
 70
-8000
  9
$LIGHTGLYPHDISPLAY
280
1
  9
$TILEMODELIGHTSYNCH
280
1
  9
$CMATERIAL
347
20
  9
$SOLIDHIST
280
0
  9
$SHOWHIST
280
1
  9
$DWFFRAME
280
2
  9
$DGNFRAME
280
2
  9
$REALWORLDSCALE
290
1
  9
$INTERFERECOLOR
 62
256
  9
$CSHADOW
280
0
  9
$SHADOWPLANELOCATION
 40
0.0
  0
ENDSEC
  0
SECTION
  2
CLASSES
  0
CLASS
  1
ACDBDICTIONARYWDFLT
  2
AcDbDictionaryWithDefault
  3
ObjectDBX Classes
 90
0
 91
0
280
0
281
0
  0
CLASS
  1
SUN
  2
AcDbSun
  3
SCENEOE
 90
1153
 91
0
280
0
281
0
  0
CLASS
  1
VISUALSTYLE
  2
AcDbVisualStyle
  3
ObjectDBX Classes
 90
4095
 91
0
280
0
281
0
  0
CLASS
  1
MATERIAL
  2
AcDbMaterial
  3
ObjectDBX Classes
 90
1153
 91
0
280
0
281
0
  0
CLASS
  1
SCALE
  2
AcDbScale
  3
ObjectDBX Classes
 90
1153
 91
0
280
0
281
0
  0
CLASS
  1
TABLESTYLE
  2
AcDbTableStyle
  3
ObjectDBX Classes
 90
4095
 91
0
280
0
281
0
  0
CLASS
  1
MLEADERSTYLE
  2
AcDbMLeaderStyle
  3
ACDB_MLEADERSTYLE_CLASS
 90
4095
 91
0
280
0
281
0
  0
CLASS
  1
DICTIONARYVAR
  2
AcDbDictionaryVar
  3
ObjectDBX Classes
 90
0
 91
0
280
0
281
0
  0
CLASS
  1
CELLSTYLEMAP
  2
AcDbCellStyleMap
  3
ObjectDBX Classes
 90
1152
 91
0
280
0
281
0
  0
CLASS
  1
MENTALRAYRENDERSETTINGS
  2
AcDbMentalRayRenderSettings
  3
SCENEOE
 90
1024
 91
0
280
0
281
0
  0
CLASS
  1
ACDBDETAILVIEWSTYLE
  2
AcDbDetailViewStyle
  3
ObjectDBX Classes
 90
1025
 91
0
280
0
281
0
  0
CLASS
  1
ACDBSECTIONVIEWSTYLE
  2
AcDbSectionViewStyle
  3
ObjectDBX Classes
 90
1025
 91
0
280
0
281
0
  0
CLASS
  1
RASTERVARIABLES
  2
AcDbRasterVariables
  3
ISM
 90
0
 91
0
280
0
281
0
  0
CLASS
  1
ACDBPLACEHOLDER
  2
AcDbPlaceHolder
  3
ObjectDBX Classes
 90
0
 91
0
280
0
281
0
  0
CLASS
  1
LAYOUT
  2
AcDbLayout
  3
ObjectDBX Classes
 90
0
 91
0
280
0
281
0
  0
ENDSEC
  0
SECTION
  2
TABLES
  0
TABLE
  2
VPORT
  5
8
330
0
100
AcDbSymbolTable
 70
1
  0
VPORT
  5
23
330
8
100
AcDbSymbolTableRecord
100
AcDbViewportTableRecord
  2
*Active
 70
0
 10
0.0
 20
0.0
 11
1.0
 21
1.0
 12
0.0
 22
0.0
 13
0.0
 23
0.0
 14
0.5
 24
0.5
 15
0.5
 25
0.5
 16
0.0
 26
0.0
 36
1.0
 17
0.0
 27
0.0
 37
0.0
 40
1000.0
 41
1.34
 42
50.0
 43
0.0
 44
0.0
 50
0.0
 51
0.0
 71
0
 72
1000
 73
1
 74
3
 75
0
 76
0
 77
0
 78
0
281
0
 65
0
146
0.0
  0
ENDTAB
  0
TABLE
  2
LTYPE
  5
2
330
0
100
AcDbSymbolTable
 70
21
  0
LTYPE
  5
24
330
2
100
AcDbSymbolTableRecord
100
AcDbLinetypeTableRecord
  2
ByBlock
 70
0
  3

 72
65
 73
0
 40
0.0
  0
LTYPE
  5
25
330
2
100
AcDbSymbolTableRecord
100
AcDbLinetypeTableRecord
  2
ByLayer
 70
0
  3

 72
65
 73
0
 40
0.0
  0
LTYPE
  5
26
330
2
100
AcDbSymbolTableRecord
100
AcDbLinetypeTableRecord
  2
Continuous
 70
0
  3

 72
65
 73
0
 40
0.0
  0
LTYPE
  5
2F
330
2
100
AcDbSymbolTableRecord
100
AcDbLinetypeTableRecord
  2
CENTER
 70
0
  3
Center ____ _ ____ _ ____ _ ____ _ ____ _ ____
 72
65
 73
4
 40
5.08
 49
3.175
 74
0
 49
-0.635
 74
0
 49
0.635
 74
0
 49
-0.635
 74
0
  0
LTYPE
  5
30
330
2
100
AcDbSymbolTableRecord
100
AcDbLinetypeTableRecord
  2
CENTERX2
 70
0
  3
Center (2x) ________  __  ________  __  ________
 72
65
 73
4
 40
8.89
 49
6.35
 74
0
 49
-0.635
 74
0
 49
1.27
 74
0
 49
-0.635
 74
0
  0
LTYPE
  5
31
330
2
100
AcDbSymbolTableRecord
100
AcDbLinetypeTableRecord
  2
CENTER2
 70
0
  3
Center (.5x) ____ _ ____ _ ____ _ ____ _ ____
 72
65
 73
4
 40
2.54
 49
1.587
 74
0
 49
-0.318
 74
0
 49
0.318
 74
0
 49
-0.318
 74
0
  0
LTYPE
  5
32
330
2
100
AcDbSymbolTableRecord
100
AcDbLinetypeTableRecord
  2
DASHED
 70
0
  3
Dashed __ __ __ __ __ __ __ __ __ __ __ __ __ _
 72
65
 73
2
 40
1.524
 49
1.27
 74
0
 49
-0.254
 74
0
  0
LTYPE
  5
33
330
2
100
AcDbSymbolTableRecord
100
AcDbLinetypeTableRecord
  2
DASHEDX2
 70
0
  3
Dashed (2x) ____  ____  ____  ____  ____  ____
 72
65
 73
2
 40
3.048
 49
2.54
 74
0
 49
-0.508
 74
0
  0
LTYPE
  5
34
330
2
100
AcDbSymbolTableRecord
100
AcDbLinetypeTableRecord
  2
DASHED2
 70
0
  3
Dashed (.5x) _ _ _ _ _ _ _ _ _ _ _ _ _ _
 72
65
 73
2
 40
0.762
 49
0.635
 74
0
 49
-0.127
 74
0
  0
LTYPE
  5
35
330
2
100
AcDbSymbolTableRecord
100
AcDbLinetypeTableRecord
  2
PHANTOM
 70
0
  3
Phantom ______  __  __  ______  __  __  ______
 72
65
 73
6
 40
6.35
 49
3.175
 74
0
 49
-0.635
 74
0
 49
0.635
 74
0
 49
-0.635
 74
0
 49
0.635
 74
0
 49
-0.635
 74
0
  0
LTYPE
  5
36
330
2
100
AcDbSymbolTableRecord
100
AcDbLinetypeTableRecord
  2
PHANTOMX2
 70
0
  3
Phantom (2x)____________    ____    ____    ____________
 72
65
 73
6
 40
10.795
 49
6.35
 74
0
 49
-0.635
 74
0
 49
1.27
 74
0
 49
-0.635
 74
0
 49
1.27
 74
0
 49
-0.635
 74
0
  0
LTYPE
  5
37
330
2
100
AcDbSymbolTableRecord
100
AcDbLinetypeTableRecord
  2
PHANTOM2
 70
0
  3
Phantom (.5x) ___ _ _ ___ _ _ ___ _ _ ___ _ _ ___
 72
65
 73
6
 40
3.175
 49
1.587
 74
0
 49
-0.318
 74
0
 49
0.318
 74
0
 49
-0.318
 74
0
 49
0.318
 74
0
 49
-0.318
 74
0
  0
LTYPE
  5
38
330
2
100
AcDbSymbolTableRecord
100
AcDbLinetypeTableRecord
  2
DASHDOT
 70
0
  3
Dash dot __ . __ . __ . __ . __ . __ . __ . __
 72
65
 73
4
 40
3.556
 49
2.54
 74
0
 49
-0.508
 74
0
 49
0.0
 74
0
 49
-0.508
 74
0
  0
LTYPE
  5
39
330
2
100
AcDbSymbolTableRecord
100
AcDbLinetypeTableRecord
  2
DASHDOTX2
 70
0
  3
Dash dot (2x) ____  .  ____  .  ____  .  ____
 72
65
 73
4
 40
6.096
 49
5.08
 74
0
 49
-0.508
 74
0
 49
0.0
 74
0
 49
-0.508
 74
0
  0
LTYPE
  5
3A
330
2
100
AcDbSymbolTableRecord
100
AcDbLinetypeTableRecord
  2
DASHDOT2
 70
0
  3
Dash dot (.5x) _ . _ . _ . _ . _ . _ . _ . _
 72
65
 73
4
 40
1.778
 49
1.27
 74
0
 49
-0.254
 74
0
 49
0.0
 74
0
 49
-0.254
 74
0
  0
LTYPE
  5
3B
330
2
100
AcDbSymbolTableRecord
100
AcDbLinetypeTableRecord
  2
DOT
 70
0
  3
Dot .  .  .  .  .  .  .  .  .  .  .  .  .  .  .  .
 72
65
 73
2
 40
0.508
 49
0.0
 74
0
 49
-0.508
 74
0
  0
LTYPE
  5
3C
330
2
100
AcDbSymbolTableRecord
100
AcDbLinetypeTableRecord
  2
DOTX2
 70
0
  3
Dot (2x) .    .    .    .    .    .    .    . 
 72
65
 73
2
 40
1.016
 49
0.0
 74
0
 49
-1.016
 74
0
  0
LTYPE
  5
3D
330
2
100
AcDbSymbolTableRecord
100
AcDbLinetypeTableRecord
  2
DOT2
 70
0
  3
Dot (.5) . . . . . . . . . . . . . . . . . . . 
 72
65
 73
2
 40
0.254
 49
0.0
 74
0
 49
-0.254
 74
0
  0
LTYPE
  5
3E
330
2
100
AcDbSymbolTableRecord
100
AcDbLinetypeTableRecord
  2
DIVIDE
 70
0
  3
Divide __ . . __ . . __ . . __ . . __ . . __
 72
65
 73
6
 40
4.064
 49
2.54
 74
0
 49
-0.508
 74
0
 49
0.0
 74
0
 49
-0.508
 74
0
 49
0.0
 74
0
 49
-0.508
 74
0
  0
LTYPE
  5
3F
330
2
100
AcDbSymbolTableRecord
100
AcDbLinetypeTableRecord
  2
DIVIDEX2
 70
0
  3
Divide (2x) ____  . .  ____  . .  ____  . .  ____
 72
65
 73
6
 40
6.604
 49
5.08
 74
0
 49
-0.508
 74
0
 49
0.0
 74
0
 49
-0.508
 74
0
 49
0.0
 74
0
 49
-0.508
 74
0
  0
LTYPE
  5
40
330
2
100
AcDbSymbolTableRecord
100
AcDbLinetypeTableRecord
  2
DIVIDE2
 70
0
  3
Divide(.5x) _ . _ . _ . _ . _ . _ . _ . _
 72
65
 73
6
 40
2.032
 49
1.27
 74
0
 49
-0.254
 74
0
 49
0.0
 74
0
 49
-0.254
 74
0
 49
0.0
 74
0
 49
-0.254
 74
0
  0
ENDTAB
  0
TABLE
  2
LAYER
  5
1
330
0
100
AcDbSymbolTable
 70
4
  0
LAYER
  5
27
330
1
100
AcDbSymbolTableRecord
100
AcDbLayerTableRecord
  2
0
 70
0
 62
7
  6
Continuous
370
-3
390
13
347
21
  0
LAYER
  5
28
330
1
100
AcDbSymbolTableRecord
100
AcDbLayerTableRecord
  2
Defpoints
 70
0
 62
7
  6
Continuous
290
0
370
-3
390
13
347
21
  0
LAYER
  5
8A
330
1
100
AcDbSymbolTableRecord
100
AcDbLayerTableRecord
  2
Layer
 70
0
 62
1
  6
Continuous
370
50
390
13
347
21
  0
LAYER
  5
8B
330
1
100
AcDbSymbolTableRecord
100
AcDbLayerTableRecord
  2
NumLabel
 70
0
 62
1
  6
Continuous
370
15
390
13
347
21
  0
ENDTAB
  0
TABLE
  2
STYLE
  5
5
330
0
100
AcDbSymbolTable
 70
26
  0
STYLE
  5
29
330
5
100
AcDbSymbolTableRecord
100
AcDbTextStyleTableRecord
  2
Standard
 70
0
 40
0.0
 41
1.0
 50
0.0
 71
0
 42
2.5
  3
txt
  4

  0
STYLE
  5
41
330
5
100
AcDbSymbolTableRecord
100
AcDbTextStyleTableRecord
  2
OpenSans-Light
 70
0
 40
0.0
 41
1.0
 50
0.0
 71
0
 42
2.5
  3
OpenSans-Light.ttf
  4

  0
STYLE
  5
42
330
5
100
AcDbSymbolTableRecord
100
AcDbTextStyleTableRecord
  2
OpenSans-Light-Italic
 70
0
 40
0.0
 41
1.0
 50
0.0
 71
0
 42
2.5
  3
OpenSans-LightItalic.ttf
  4

  0
STYLE
  5
43
330
5
100
AcDbSymbolTableRecord
100
AcDbTextStyleTableRecord
  2
OpenSans
 70
0
 40
0.0
 41
1.0
 50
0.0
 71
0
 42
2.5
  3
OpenSans-Regular.ttf
  4

  0
STYLE
  5
44
330
5
100
AcDbSymbolTableRecord
100
AcDbTextStyleTableRecord
  2
OpenSans-Italic
 70
0
 40
0.0
 41
1.0
 50
0.0
 71
0
 42
2.5
  3
OpenSans-Italic.ttf
  4

  0
STYLE
  5
45
330
5
100
AcDbSymbolTableRecord
100
AcDbTextStyleTableRecord
  2
OpenSans-SemiBold
 70
0
 40
0.0
 41
1.0
 50
0.0
 71
0
 42
2.5
  3
OpenSans-SemiBold.ttf
  4

  0
STYLE
  5
46
330
5
100
AcDbSymbolTableRecord
100
AcDbTextStyleTableRecord
  2
OpenSans-SemiBoldItalic
 70
0
 40
0.0
 41
1.0
 50
0.0
 71
0
 42
2.5
  3
OpenSans-SemiBoldItalic.ttf
  4

  0
STYLE
  5
47
330
5
100
AcDbSymbolTableRecord
100
AcDbTextStyleTableRecord
  2
OpenSans-Bold
 70
0
 40
0.0
 41
1.0
 50
0.0
 71
0
 42
2.5
  3
OpenSans-Bold.ttf
  4

  0
STYLE
  5
48
330
5
100
AcDbSymbolTableRecord
100
AcDbTextStyleTableRecord
  2
OpenSans-BoldItalic
 70
0
 40
0.0
 41
1.0
 50
0.0
 71
0
 42
2.5
  3
OpenSans-BoldItalic.ttf
  4

  0
STYLE
  5
49
330
5
100
AcDbSymbolTableRecord
100
AcDbTextStyleTableRecord
  2
OpenSans-ExtraBold
 70
0
 40
0.0
 41
1.0
 50
0.0
 71
0
 42
2.5
  3
OpenSans-ExtraBold.ttf
  4

  0
STYLE
  5
4A
330
5
100
AcDbSymbolTableRecord
100
AcDbTextStyleTableRecord
  2
OpenSans-ExtraBoldItalic
 70
0
 40
0.0
 41
1.0
 50
0.0
 71
0
 42
2.5
  3
OpenSans-ExtraBoldItalic.ttf
  4

  0
STYLE
  5
4B
330
5
100
AcDbSymbolTableRecord
100
AcDbTextStyleTableRecord
  2
OpenSansCondensed-Bold
 70
0
 40
0.0
 41
1.0
 50
0.0
 71
0
 42
2.5
  3
OpenSansCondensed-Bold.ttf
  4

  0
STYLE
  5
4C
330
5
100
AcDbSymbolTableRecord
100
AcDbTextStyleTableRecord
  2
OpenSansCondensed-Light
 70
0
 40
0.0
 41
1.0
 50
0.0
 71
0
 42
2.5
  3
OpenSansCondensed-Light.ttf
  4

  0
STYLE
  5
4D
330
5
100
AcDbSymbolTableRecord
100
AcDbTextStyleTableRecord
  2
OpenSansCondensed-Italic
 70
0
 40
0.0
 41
1.0
 50
0.0
 71
0
 42
2.5
  3
OpenSansCondensed-LightItalic.ttf
  4

  0
STYLE
  5
4E
330
5
100
AcDbSymbolTableRecord
100
AcDbTextStyleTableRecord
  2
LiberationSans
 70
0
 40
0.0
 41
1.0
 50
0.0
 71
0
 42
2.5
  3
LiberationSans-Regular.ttf
  4

  0
STYLE
  5
4F
330
5
100
AcDbSymbolTableRecord
100
AcDbTextStyleTableRecord
  2
LiberationSans-Bold
 70
0
 40
0.0
 41
1.0
 50
0.0
 71
0
 42
2.5
  3
LiberationSans-Bold.ttf
  4

  0
STYLE
  5
50
330
5
100
AcDbSymbolTableRecord
100
AcDbTextStyleTableRecord
  2
LiberationSans-BoldItalic
 70
0
 40
0.0
 41
1.0
 50
0.0
 71
0
 42
2.5
  3
LiberationSans-BoldItalic.ttf
  4

  0
STYLE
  5
51
330
5
100
AcDbSymbolTableRecord
100
AcDbTextStyleTableRecord
  2
LiberationSans-Italic
 70
0
 40
0.0
 41
1.0
 50
0.0
 71
0
 42
2.5
  3
LiberationSans-Italic.ttf
  4

  0
STYLE
  5
52
330
5
100
AcDbSymbolTableRecord
100
AcDbTextStyleTableRecord
  2
LiberationSerif
 70
0
 40
0.0
 41
1.0
 50
0.0
 71
0
 42
2.5
  3
LiberationSerif-Regular.ttf
  4

  0
STYLE
  5
53
330
5
100
AcDbSymbolTableRecord
100
AcDbTextStyleTableRecord
  2
LiberationSerif-Bold
 70
0
 40
0.0
 41
1.0
 50
0.0
 71
0
 42
2.5
  3
LiberationSerif-Bold.ttf
  4

  0
STYLE
  5
54
330
5
100
AcDbSymbolTableRecord
100
AcDbTextStyleTableRecord
  2
LiberationSerif-BoldItalic
 70
0
 40
0.0
 41
1.0
 50
0.0
 71
0
 42
2.5
  3
LiberationSerif-BoldItalic.ttf
  4

  0
STYLE
  5
55
330
5
100
AcDbSymbolTableRecord
100
AcDbTextStyleTableRecord
  2
LiberationSerif-Italic
 70
0
 40
0.0
 41
1.0
 50
0.0
 71
0
 42
2.5
  3
LiberationSerif-Italic.ttf
  4

  0
STYLE
  5
56
330
5
100
AcDbSymbolTableRecord
100
AcDbTextStyleTableRecord
  2
LiberationMono
 70
0
 40
0.0
 41
1.0
 50
0.0
 71
0
 42
2.5
  3
LiberationMono-Regular.ttf
  4

  0
STYLE
  5
57
330
5
100
AcDbSymbolTableRecord
100
AcDbTextStyleTableRecord
  2
LiberationMono-Bold
 70
0
 40
0.0
 41
1.0
 50
0.0
 71
0
 42
2.5
  3
LiberationMono-Bold.ttf
  4

  0
STYLE
  5
58
330
5
100
AcDbSymbolTableRecord
100
AcDbTextStyleTableRecord
  2
LiberationMono-BoldItalic
 70
0
 40
0.0
 41
1.0
 50
0.0
 71
0
 42
2.5
  3
LiberationMono-BoldItalic.ttf
  4

  0
STYLE
  5
59
330
5
100
AcDbSymbolTableRecord
100
AcDbTextStyleTableRecord
  2
LiberationMono-Italic
 70
0
 40
0.0
 41
1.0
 50
0.0
 71
0
 42
2.5
  3
LiberationMono-Italic.ttf
  4

  0
ENDTAB
  0
TABLE
  2
VIEW
  5
7
330
0
100
AcDbSymbolTable
 70
0
  0
ENDTAB
  0
TABLE
  2
UCS
  5
6
330
0
100
AcDbSymbolTable
 70
0
  0
ENDTAB
  0
TABLE
  2
APPID
  5
3
330
0
100
AcDbSymbolTable
 70
3
  0
APPID
  5
2A
330
3
100
AcDbSymbolTableRecord
100
AcDbRegAppTableRecord
  2
ACAD
 70
0
  0
APPID
  5
AF
330
3
100
AcDbSymbolTableRecord
100
AcDbRegAppTableRecord
  2
HATCHBACKGROUNDCOLOR
 70
0
  0
APPID
  5
B0
330
3
100
AcDbSymbolTableRecord
100
AcDbRegAppTableRecord
  2
EZDXF
 70
0
  0
ENDTAB
  0
TABLE
  2
DIMSTYLE
  5
4
330
0
100
AcDbSymbolTable
 70
12
100
AcDbDimStyleTable
  0
DIMSTYLE
105
2B
330
4
100
AcDbSymbolTableRecord
100
AcDbDimStyleTableRecord
  2
Standard
 70
0
 40
1.0
 41
2.5
 42
0.625
 43
3.75
 44
1.25
 45
0.0
 46
0.0
 47
0.0
 48
0.0
 49
2.5
140
2.5
141
2.5
142
0.0
143
0.03937007874
144
1.0
145
0.0
146
1.0
147
0.625
148
0.0
 69
0
 70
0
 71
0
 72
0
 73
0
 74
0
 75
0
 76
0
 77
1
 78
8
 79
3
170
0
171
3
172
1
173
0
174
0
175
0
176
0
177
0
178
0
179
2
271
2
272
2
273
2
274
3
275
0
276
0
277
2
278
44
279
0
280
0
281
0
282
0
283
0
284
8
285
0
286
0
288
0
289
3
290
0
371
-2
372
-2
  0
DIMSTYLE
105
73
330
4
100
AcDbSymbolTableRecord
100
AcDbDimStyleTableRecord
  2
EZDXF
 70
0
 40
1.0
 41
0.175
 42
0.125
 43
3.75
 44
0.375
 45
0.0
 46
0.0
 47
0.0
 48
0.0
 49
2.5
140
0.25
141
2.5
142
0.0
143
0.03937007874
144
100.0
145
0.0
146
0.5
147
0.1
148
0.0
 69
0
 70
0
 71
0
 72
0
 73
0
 74
0
 75
0
 76
0
 77
1
 78
12
 79
3
170
0
171
3
172
1
173
0
174
0
175
0
176
0
177
0
178
0
179
2
271
2
272
2
273
2
274
3
275
0
276
0
277
2
278
46
279
2
280
0
281
0
282
0
283
0
284
8
285
0
286
0
288
1
289
3
290
0
340
4C
342
74
371
-2
372
-2
  0
DIMSTYLE
105
7C
330
4
100
AcDbSymbolTableRecord
100
AcDbDimStyleTableRecord
  2
EZ_M_100_H25_CM
 70
0
 40
1.0
 41
0.25
 42
0.125
 43
3.75
 44
0.375
 45
0.0
 46
0.0
 47
0.0
 48
0.0
 49
2.5
140
0.25
141
2.5
142
0.125
143
0.03937007874
144
100.0
145
0.0
146
0.5
147
0.1
148
0.0
 69
0
 70
0
 71
0
 72
0
 73
0
 74
0
 75
0
 76
0
 77
1
 78
12
 79
3
170
0
171
3
172
1
173
0
174
0
175
0
176
0
177
0
178
0
179
2
271
2
272
2
273
2
274
3
275
0
276
0
277
2
278
46
279
2
280
0
281
0
282
0
283
0
284
8
285
0
286
0
288
1
289
3
290
0
340
4C
371
-2
372
-2
  0
DIMSTYLE
105
7D
330
4
100
AcDbSymbolTableRecord
100
AcDbDimStyleTableRecord
  2
EZ_M_50_H25_CM
 70
0
 40
1.0
 41
0.125
 42
0.0625
 43
3.75
 44
0.1875
 45
0.0
 46
0.0
 47
0.0
 48
0.0
 49
2.5
140
0.125
141
2.5
142
0.0625
143
0.03937007874
144
100.0
145
0.0
146
0.5
147
0.05
148
0.0
 69
0
 70
0
 71
0
 72
0
 73
0
 74
0
 75
0
 76
0
 77
1
 78
12
 79
3
170
0
171
3
172
1
173
0
174
0
175
0
176
0
177
0
178
0
179
2
271
2
272
2
273
2
274
3
275
0
276
0
277
2
278
46
279
2
280
0
281
0
282
0
283
0
284
8
285
0
286
0
288
1
289
3
290
0
340
4C
371
-2
372
-2
  0
DIMSTYLE
105
7E
330
4
100
AcDbSymbolTableRecord
100
AcDbDimStyleTableRecord
  2
EZ_M_25_H25_CM
 70
0
 40
1.0
 41
0.0625
 42
0.03125
 43
3.75
 44
0.09375
 45
0.0
 46
0.0
 47
0.0
 48
0.0
 49
2.5
140
0.0625
141
2.5
142
0.03125
143
0.03937007874
144
100.0
145
0.0
146
0.5
147
0.025
148
0.0
 69
0
 70
0
 71
0
 72
0
 73
0
 74
0
 75
0
 76
0
 77
1
 78
12
 79
3
170
0
171
3
172
1
173
0
174
0
175
0
176
0
177
0
178
0
179
2
271
2
272
2
273
2
274
3
275
0
276
0
277
2
278
46
279
2
280
0
281
0
282
0
283
0
284
8
285
0
286
0
288
1
289
3
290
0
340
4C
371
-2
372
-2
  0
DIMSTYLE
105
7F
330
4
100
AcDbSymbolTableRecord
100
AcDbDimStyleTableRecord
  2
EZ_M_20_H25_CM
 70
0
 40
1.0
 41
0.05
 42
0.025
 43
3.75
 44
0.07500000000000001
 45
0.0
 46
0.0
 47
0.0
 48
0.0
 49
2.5
140
0.05
141
2.5
142
0.025
143
0.03937007874
144
100.0
145
0.0
146
0.5
147
0.020000000000000004
148
0.0
 69
0
 70
0
 71
0
 72
0
 73
0
 74
0
 75
0
 76
0
 77
1
 78
12
 79
3
170
0
171
3
172
1
173
0
174
0
175
0
176
0
177
0
178
0
179
2
271
2
272
2
273
2
274
3
275
0
276
0
277
2
278
46
279
2
280
0
281
0
282
0
283
0
284
8
285
0
286
0
288
1
289
3
290
0
340
4C
371
-2
372
-2
  0
DIMSTYLE
105
80
330
4
100
AcDbSymbolTableRecord
100
AcDbDimStyleTableRecord
  2
EZ_M_10_H25_CM
 70
0
 40
1.0
 41
0.025
 42
0.0125
 43
3.75
 44
0.037500000000000006
 45
0.0
 46
0.0
 47
0.0
 48
0.0
 49
2.5
140
0.025
141
2.5
142
0.0125
143
0.03937007874
144
100.0
145
0.0
146
0.5
147
0.010000000000000002
148
0.0
 69
0
 70
0
 71
0
 72
0
 73
0
 74
0
 75
0
 76
0
 77
1
 78
12
 79
3
170
0
171
3
172
1
173
0
174
0
175
0
176
0
177
0
178
0
179
2
271
2
272
2
273
2
274
3
275
0
276
0
277
2
278
46
279
2
280
0
281
0
282
0
283
0
284
8
285
0
286
0
288
1
289
3
290
0
340
4C
371
-2
372
-2
  0
DIMSTYLE
105
81
330
4
100
AcDbSymbolTableRecord
100
AcDbDimStyleTableRecord
  2
EZ_M_5_H25_CM
 70
0
 40
1.0
 41
0.0125
 42
0.00625
 43
3.75
 44
0.018750000000000003
 45
0.0
 46
0.0
 47
0.0
 48
0.0
 49
2.5
140
0.0125
141
2.5
142
0.00625
143
0.03937007874
144
100.0
145
0.0
146
0.5
147
0.005000000000000001
148
0.0
 69
0
 70
0
 71
0
 72
0
 73
0
 74
0
 75
0
 76
0
 77
1
 78
12
 79
3
170
0
171
3
172
1
173
0
174
0
175
0
176
0
177
0
178
0
179
2
271
2
272
2
273
2
274
3
275
0
276
0
277
2
278
46
279
2
280
0
281
0
282
0
283
0
284
8
285
0
286
0
288
1
289
3
290
0
340
4C
371
-2
372
-2
  0
DIMSTYLE
105
82
330
4
100
AcDbSymbolTableRecord
100
AcDbDimStyleTableRecord
  2
EZ_M_1_H25_CM
 70
0
 40
1.0
 41
0.0025
 42
0.00125
 43
3.75
 44
0.00375
 45
0.0
 46
0.0
 47
0.0
 48
0.0
 49
2.5
140
0.0025
141
2.5
142
0.00125
143
0.03937007874
144
100.0
145
0.0
146
0.5
147
0.001
148
0.0
 69
0
 70
0
 71
0
 72
0
 73
0
 74
0
 75
0
 76
0
 77
1
 78
12
 79
3
170
0
171
3
172
1
173
0
174
0
175
0
176
0
177
0
178
0
179
2
271
2
272
2
273
2
274
3
275
0
276
0
277
2
278
46
279
2
280
0
281
0
282
0
283
0
284
8
285
0
286
0
288
1
289
3
290
0
340
4C
371
-2
372
-2
  0
DIMSTYLE
105
83
330
4
100
AcDbSymbolTableRecord
100
AcDbDimStyleTableRecord
  2
EZ_RADIUS
 70
0
 40
1.0
 41
0.25
 42
0.125
 43
3.75
 44
0.375
 45
0.0
 46
0.0
 47
0.0
 48
0.0
 49
2.5
140
0.25
141
0.0
142
0.0
143
0.03937007874
144
100.0
145
0.0
146
0.5
147
0.1
148
0.0
 69
0
 70
0
 71
0
 72
0
 73
0
 74
0
 75
0
 76
0
 77
1
 78
12
 79
3
170
0
171
3
172
0
173
0
174
0
175
0
176
0
177
0
178
0
179
2
271
2
272
2
273
2
274
3
275
0
276
0
277
2
278
46
279
1
280
0
281
0
282
0
283
0
284
8
285
0
286
0
288
1
289
3
290
0
340
4C
342
84
371
-2
372
-2
  0
DIMSTYLE
105
88
330
4
100
AcDbSymbolTableRecord
100
AcDbDimStyleTableRecord
  2
EZ_RADIUS_INSIDE
 70
0
 40
1.0
 41
0.25
 42
0.125
 43
3.75
 44
0.375
 45
0.0
 46
0.0
 47
0.0
 48
0.0
 49
2.5
140
0.25
141
0.0
142
0.0
143
0.03937007874
144
100.0
145
0.0
146
0.5
147
0.1
148
0.0
 69
0
 70
0
 71
0
 72
0
 73
0
 74
0
 75
0
 76
0
 77
0
 78
12
 79
3
170
0
171
3
172
0
173
0
174
1
175
0
176
0
177
0
178
0
179
2
271
2
272
2
273
2
274
3
275
0
276
0
277
2
278
46
279
0
280
0
281
0
282
0
283
0
284
8
285
0
286
0
288
1
289
0
290
0
340
4C
342
84
371
-2
372
-2
  0
DIMSTYLE
105
89
330
4
100
AcDbSymbolTableRecord
100
AcDbDimStyleTableRecord
  2
EZ_CURVED
 70
0
 40
1.0
 41
0.25
 42
0.125
 43
3.75
 44
0.375
 45
0.0
 46
0.0
 47
0.0
 48
0.0
 49
2.5
140
0.25
141
2.5
142
0.0
143
0.03937007874
144
100.0
145
0.0
146
0.5
147
0.1
148
0.0
 69
0
 70
0
 71
0
 72
0
 73
0
 74
0
 75
0
 76
0
 77
1
 78
12
 79
2
 90
2
170
0
171
3
172
1
173
0
174
0
175
0
176
0
177
0
178
0
179
2
271
2
272
2
273
2
274
3
275
0
276
0
277
2
278
46
279
2
280
0
281
0
282
0
283
0
284
8
285
0
286
0
288
1
289
3
290
0
340
4C
371
-2
372
-2
  0
ENDTAB
  0
TABLE
  2
BLOCK_RECORD
  5
9
330
0
100
AcDbSymbolTable
 70
5
  0
BLOCK_RECORD
  5
17
330
9
100
AcDbSymbolTableRecord
100
AcDbBlockTableRecord
  2
*Model_Space
340
1A
 70
0
280
1
281
0
  0
BLOCK_RECORD
  5
1B
330
9
100
AcDbSymbolTableRecord
100
AcDbBlockTableRecord
  2
*Paper_Space
340
1E
 70
0
280
1
281
0
  0
BLOCK_RECORD
  5
74
330
9
100
AcDbSymbolTableRecord
100
AcDbBlockTableRecord
  2
_ARCHTICK
340
0
 70
0
280
1
281
0
  0
BLOCK_RECORD
  5
78
330
9
100
AcDbSymbolTableRecord
100
AcDbBlockTableRecord
  2
_CLOSEDFILLED
340
0
 70
0
280
1
281
0
  0
BLOCK_RECORD
  5
84
330
9
100
AcDbSymbolTableRecord
100
AcDbBlockTableRecord
  2
_CLOSEDBLANK
340
0
 70
0
280
1
281
0
  0
ENDTAB
  0
ENDSEC
  0
SECTION
  2
BLOCKS
  0
BLOCK
  5
18
330
17
100
AcDbEntity
  8
0
100
AcDbBlockBegin
  2
*Model_Space
 70
0
 10
0.0
 20
0.0
 30
0.0
  3
*Model_Space
  1

  0
ENDBLK
  5
19
330
17
100
AcDbEntity
  8
0
100
AcDbBlockEnd
  0
BLOCK
  5
1C
330
1B
100
AcDbEntity
  8
0
100
AcDbBlockBegin
  2
*Paper_Space
 70
0
 10
0.0
 20
0.0
 30
0.0
  3
*Paper_Space
  1

  0
ENDBLK
  5
1D
330
1B
100
AcDbEntity
  8
0
100
AcDbBlockEnd
  0
BLOCK
  5
75
330
74
100
AcDbEntity
  8
0
100
AcDbBlockBegin
  2
_ARCHTICK
 70
0
 10
0.0
 20
0.0
 30
0.0
  3
_ARCHTICK
  1

  0
LWPOLYLINE
  5
77
330
74
100
AcDbEntity
  8
0
  6
BYBLOCK
 62
0
100
AcDbPolyline
 90
2
 70
0
 43
0.15
 10
-0.5
 20
-0.5
 10
0.5
 20
0.5
  0
ENDBLK
  5
76
330
74
100
AcDbEntity
  8
0
100
AcDbBlockEnd
  0
BLOCK
  5
79
330
78
100
AcDbEntity
  8
0
100
AcDbBlockBegin
  2
_CLOSEDFILLED
 70
0
 10
0.0
 20
0.0
 30
0.0
  3
_CLOSEDFILLED
  1

  0
SOLID
  5
7B
330
78
100
AcDbEntity
  8
0
  6
BYBLOCK
 62
0
100
AcDbTrace
 10
-1.0
 20
0.16439898372402537
 30
0.0
 11
0.0
 21
0.0
 31
0.0
 12
-1.0
 22
-0.16439898372402537
 32
0.0
 13
-1.0
 23
-0.16439898372402537
 33
0.0
  0
ENDBLK
  5
7A
330
78
100
AcDbEntity
  8
0
100
AcDbBlockEnd
  0
BLOCK
  5
85
330
84
100
AcDbEntity
  8
0
100
AcDbBlockBegin
  2
_CLOSEDBLANK
 70
0
 10
0.0
 20
0.0
 30
0.0
  3
_CLOSEDBLANK
  1

  0
LWPOLYLINE
  5
87
330
84
100
AcDbEntity
  8
0
  6
BYBLOCK
 62
0
100
AcDbPolyline
 90
3
 70
1
 10
-1.0
 20
0.16439898372402537
 10
0.0
 20
0.0
 10
-1.0
 20
-0.16439898372402537
  0
ENDBLK
  5
86
330
84
100
AcDbEntity
  8
0
100
AcDbBlockEnd
  0
ENDSEC
  0
SECTION
  2
ENTITIES
  0
LWPOLYLINE
  5
8C
330
17
100
AcDbEntity
  8
Layer
100
AcDbPolyline
 90
261
 70
1
 10
238.40858673836803
 20
186.8430977481187
 10
237.35280196258347
 20
187.05618846609917
 10
235.63097144716198
 20
187.4108506006927
 10
233.78182977246453
 20
187.80732392673895
 10
231.84591116059826
 20
188.23257267714354
 10
229.85678300840928
 20
188.67935144279113
 10
227.83905726651753
 20
189.14125800455108
 10
225.80582221441833
 20
189.61734414118325
 10
223.762379617478
 20
190.1013443044018
 10
221.7177958636367
 20
190.59423685645243
 10
219.67131502397524
 20
191.09685365642196
 10
217.6226342189383
 20
191.6042641477336
 10
215.57835679960255
 20
192.117197320647
 10
213.53847148770188
 20
192.63960165650627
 10
211.50080083991094
 20
193.17186068553787
 10
209.46229198590444
 20
193.70814654810985
 10
207.41906521620257
 20
194.24432974645572
 10
205.3764340225613
 20
194.78822804907574
 10
203.32929658176965
 20
195.33881032694188
 10
201.28003502820934
 20
195.89151078328678
 10
199.2320167334222
 20
196.44644798553531
 10
197.18754303496115
 20
197.0049602534457
 10
195.14642662698748
 20
197.5654944029306
 10
193.10641906045453
 20
198.12096438558044
 10
191.0646417610603
 20
198.6762867581941
 10
189.02341228736077
 20
199.23341674595787
 10
186.98258840215314
 20
199.78484386693552
 10
184.9392385878863
 20
200.3315486758845
 10
182.89858902609433
 20
200.87432929548308
 10
181.62310733028292
 20
201.20865460743457
 10
181.36955590675336
 20
200.2413326984373
 10
180.61355324552272
 20
200.4395096614604
 10
178.57797996190286
 20
200.96324036574765
 10
176.54469855546347
 20
201.47931716333883
 10
174.5092234079828
 20
201.9857940681331
 10
172.47195388244222
 20
202.48469540577366
 10
170.43804362957945
 20
202.97456324867886
 10
168.40582891521257
 20
203.4527583114208
 10
166.36998452730495
 20
203.9193384206862
 10
164.32980219753225
 20
204.37590305677077
 10
162.2844496243543
 20
204.8236017015503
 10
160.23917942360146
 20
205.26327720582302
 10
158.19543730150556
 20
205.6923409651686
 10
156.1511616910825
 20
206.11015457630012
 10
154.1056637524237
 20
206.51587613395444
 10
152.0512002398716
 20
206.91161109341792
 10
150.00286960068132
 20
207.29954489828614
 10
147.95620497241418
 20
207.67238304195146
 10
145.8996200251564
 20
208.03315379666446
 10
143.8391305674355
 20
208.38570896470338
 10
141.78136029963412
 20
208.72875246271138
 10
139.72414854589516
 20
209.05945651359414
 10
137.66397625546298
 20
209.37778838072583
 10
135.59886175843147
 20
209.68513384023674
 10
133.53034027510415
 20
209.982980561893
 10
131.4624206780735
 20
210.27127151353542
 10
129.39494608767117
 20
210.54786436858055
 10
127.32078140692559
 20
210.81327168195077
 10
125.24647907727302
 20
211.07044868201513
 10
123.1739706161939
 20
211.3170375459602
 10
121.1015248313949
 20
211.5523327669406
 10
119.02995355161849
 20
211.77583471865708
 10
116.9550009294366
 20
211.98668457291032
 10
114.87327388622376
 20
212.18775008527794
 10
112.79865915622638
 20
212.38049815087268
 10
110.72276316829321
 20
212.55879029599956
 10
108.64312577944763
 20
212.72678676281717
 10
106.56824634857004
 20
212.88392821485428
 10
104.49281271360982
 20
213.02741510054244
 10
102.4146816329864
 20
213.15856398700964
 10
100.33781495000086
 20
213.2782659763892
 10
98.25972698698591
 20
213.38493484766022
 10
96.17949595332308
 20
213.47984542537642
 10
94.10210477225897
 20
213.56384440882277
 10
92.0300937158356
 20
213.6346588164256
 10
89.95772391829439
 20
213.68940494459207
 10
87.87899330528106
 20
213.73069216708117
 10
85.8099383682619
 20
213.7614939291746
 10
83.73739170727077
 20
213.77366399688202
 10
81.66227365150704
 20
213.7744646931275
 10
79.59359878827672
 20
213.76177469336278
 10
77.5257499276256
 20
213.73380759249216
 10
75.46464926182422
 20
213.6910005864398
 10
73.4031275503144
 20
213.62993289970515
 10
71.34245336257676
 20
213.5529204863656
 10
69.28144110007364
 20
213.45948964066372
 10
67.22532940492275
 20
213.3516052750275
 10
65.17398236841053
 20
213.22570607588827
 10
63.123689076211136
 20
213.08151518456754
 10
61.075401887118964
 20
212.9197735391846
 10
59.02979850288747
 20
212.74140280522892
 10
56.99664495761606
 20
212.5472867196184
 10
54.97425396066751
 20
212.3314239073382
 10
52.95302140847848
 20
212.0913192955702
 10
50.94154349691997
 20
211.83217567033333
 10
48.93857135913959
 20
211.54891631875427
 10
46.94243743678939
 20
211.24096031101837
 10
44.94844586945288
 20
210.90732483904588
 10
42.96561309885172
 20
210.55391393329595
 10
41.00289977144296
 20
210.17755644074415
 10
39.057501338303844
 20
209.7732136821589
 10
37.13126900712425
 20
209.3394080211281
 10
35.22256721048575
 20
208.87393659071006
 10
33.337330047535055
 20
208.37653114609188
 10
31.467404257105528
 20
207.84218373224948
 10
29.633942317777226
 20
207.28254026986906
 10
27.8337647392283
 20
206.6832256950994
 10
26.075514602488212
 20
206.0521707287648
 10
24.37275696826717
 20
205.38790159752594
 10
22.731884787436442
 20
204.6911315339002
 10
21.174944759614093
 20
203.9712722618231
 10
19.724503697782353
 20
203.23727946918387
 10
18.38496745344014
 20
202.48811845216272
 10
17.187434794039305
 20
201.76017772950354
 10
16.143066584440888
 20
201.0613567192424
 10
15.247867048214204
 20
200.40073463623335
 10
14.487579192760634
 20
199.78390196046888
 10
13.873640100159761
 20
199.24500425261994
 10
13.348475580816753
 20
198.7191552379001
 10
12.923215000405463
 20
198.26257390026143
 10
12.589424536195835
 20
197.86587139881098
 10
12.3161453506156
 20
197.49064652270525
 10
12.088251157740316
 20
197.13257830572027
 10
11.90903124217408
 20
196.81961810950153
 10
11.761141754546088
 20
196.51899756536136
 10
11.633162858480787
 20
196.21863332955905
 10
11.534223642136624
 20
195.96621343487297
 10
11.457092889171932
 20
195.73683823063485
 10
11.3945633810727
 20
195.509982079872
 10
11.349751510142212
 20
195.32210129230998
 10
11.314583396773756
 20
195.1170255601386
 10
11.28858905632923
 20
194.926961311232
 10
11.27254063425525
 20
194.79163342741697
 10
11.286377611199768
 20
194.70531866207267
 10
11.299132425450495
 20
194.49238156252852
 10
11.308246591751583
 20
194.33765188155638
 10
11.320707608956354
 20
194.2088692165742
 10
11.34763579068715
 20
194.07099100117682
 10
11.40034537149549
 20
193.90690847323089
 10
11.482092090466196
 20
193.72060715062278
 10
11.595956509442118
 20
193.51548393138228
 10
11.748369104470001
 20
193.29085324446373
 10
11.944431245260972
 20
193.0482286915263
 10
12.186515954464113
 20
192.79216329907376
 10
12.482369934689288
 20
192.5243155166891
 10
12.84572080301885
 20
192.2443751310524
 10
13.300779878274085
 20
191.94810955478854
 10
13.870202375862704
 20
191.63091887606726
 10
14.549873312635313
 20
191.29562048363167
 10
15.337010967975743
 20
190.95056757412112
 10
16.276554115813113
 20
190.60099260108922
 10
17.404940550155317
 20
190.24628180288545
 10
18.71360056766251
 20
189.8833745737148
 10
20.166755432706196
 20
189.5219304513419
 10
21.768960439515936
 20
189.18345290619553
 10
23.503113864416648
 20
188.86600321808746
 10
25.312436074266657
 20
188.57134284294804
 10
27.18174366833236
 20
188.31187469948887
 10
29.114697687036056
 20
188.08856151985637
 10
31.114208142671473
 20
187.88720644810076
 10
33.137550923802245
 20
187.69233857863213
 10
35.141662170197606
 20
187.51344474364748
 10
37.15860960678128
 20
187.37095620125493
 10
39.222605841354635
 20
187.2516047043062
 10
41.2995554630855
 20
187.13354536995112
 10
43.37268957575759
 20
187.02201621534815
 10
45.44027379235654
 20
186.92360113347934
 10
47.508293277231225
 20
186.84290165053284
 10
49.5891024738742
 20
186.7787489574307
 10
51.68320865404797
 20
186.72476286790825
 10
53.787163349752305
 20
186.67739914030105
 10
55.27205883131373
 20
186.6462773159604
 10
55.25110449961631
 20
185.64649688207345
 10
55.87559107879373
 20
185.63340765517128
 10
57.977026140653244
 20
185.5927604896951
 10
60.073991308492346
 20
185.56177898496782
 10
62.166055478859924
 20
185.53213522547918
 10
64.26345202999809
 20
185.51551724109174
 10
66.37161964959179
 20
185.50362973998082
 10
68.48689038414182
 20
185.4907864143359
 10
70.60711411229947
 20
185.48091647045933
 10
72.72985619610253
 20
185.47317969732188
 10
74.85237152144433
 20
185.46780230008395
 10
76.97331062006819
 20
185.46560307888203
 10
79.093089228638
 20
185.4679924066445
 10
81.2142904189165
 20
185.47560819795473
 10
83.33959392977825
 20
185.48727337078267
 10
85.46896554012885
 20
185.50055308451098
 10
87.60025228400727
 20
185.51404715450545
 10
89.73134401949623
 20
185.52722355476484
 10
91.86061145562013
 20
185.54046661625023
 10
93.98753721970124
 20
185.55569878707482
 10
96.11406277906146
 20
185.5743180913906
 10
98.24266581619676
 20
185.59552261876843
 10
100.3723704406264
 20
185.61707433190603
 10
102.5016572395768
 20
185.63938827218325
 10
104.63042103078095
 20
185.66318319168423
 10
106.75756159142999
 20
185.68864455996953
 10
108.88403539269414
 20
185.71708551313006
 10
111.0120175940283
 20
185.74820111608085
 10
113.14107022180302
 20
185.77985203116776
 10
115.26883648075656
 20
185.81005789833225
 10
117.39447011025338
 20
185.84085656346147
 10
119.51760209599628
 20
185.87477330694887
 10
121.63985886735745
 20
185.91279240249185
 10
123.76359028789176
 20
185.9550884286386
 10
125.89054827886686
 20
185.99985024808683
 10
128.01871729055978
 20
186.04438244813963
 10
130.1463843048893
 20
186.0872611868
 10
132.2718463866879
 20
186.13015531645837
 10
134.39338576943325
 20
186.17588160721047
 10
136.5134937272664
 20
186.22638697954375
 10
138.6348707888148
 20
186.28063011245197
 10
140.75629894649944
 20
186.3334359559256
 10
142.87761963719257
 20
186.38087468029497
 10
145.00049061216998
 20
186.42548181940086
 10
147.12191933584262
 20
186.47128723618897
 10
149.24175376234638
 20
186.52137579467674
 10
151.36324877378308
 20
186.57621667863668
 10
153.4870436142252
 20
186.63247862620824
 10
155.60953646251306
 20
186.68604319143506
 10
157.73000946808696
 20
186.73639513694144
 10
159.84827704604464
 20
186.78901744163235
 10
161.96613631884503
 20
186.8473262124595
 10
164.08777202623287
 20
186.91011388225078
 10
166.21086231868702
 20
186.97232711721793
 10
168.33396184677326
 20
187.03067141258893
 10
170.45856609403359
 20
187.0849752877479
 10
172.5853418575476
 20
187.13712907731235
 10
174.7126045290275
 20
187.1881589397448
 10
176.83778391924702
 20
187.23859461216279
 10
178.95949144429045
 20
187.29182100840742
 10
181.08151014188218
 20
187.34673709039325
 10
183.2016859596479
 20
187.3962761434483
 10
185.32392812572863
 20
187.43950775933394
 10
187.45015159620675
 20
187.48048542095927
 10
189.57884707202854
 20
187.52188412659285
 10
191.70789741457284
 20
187.56353380878733
 10
193.83504056423806
 20
187.60449971279263
 10
195.9589489118083
 20
187.64234893630152
 10
198.0808270054306
 20
187.67493575220817
 10
200.20302437501158
 20
187.70374256011917
 10
202.32394861219535
 20
187.7298582217839
 10
204.4420529647854
 20
187.7497374186214
 10
206.56044226753494
 20
187.76427783733354
 10
208.67848942093866
 20
187.77974250091293
 10
210.79500570924822
 20
187.79411273168733
 10
212.90884534906792
 20
187.800051386903
 10
215.02344218925086
 20
187.80002791141797
 10
217.13846269478879
 20
187.7942393483673
 10
219.25278437515288
 20
187.78587191396042
 10
221.36344609153377
 20
187.7701785128259
 10
223.47236495128172
 20
187.74763920645495
 10
225.5764175358708
 20
187.7198399859909
 10
227.66982016110995
 20
187.68590489277904
 10
229.74552608627985
 20
187.64355995249633
 10
231.79102158235722
 20
187.5955327542797
 10
233.7805723386777
 20
187.54212826204903
 10
235.67815554864362
 20
187.48342595174174
 10
237.4385029588444
 20
187.41993479826985
 10
238.5126388924236
 20
187.3753372280833
  0
LWPOLYLINE
  5
8D
330
17
100
AcDbEntity
  8
Layer
100
AcDbPolyline
 90
5
 70
0
 10
159.86098482408025
 20
201.25548084753999
 10
155.94631542043643
 20
202.07728584884816
 10
156.7681204217446
 20
205.99195525249198
 10
160.68278982538843
 20
205.1701502511838
 10
159.86098482408025
 20
201.25548084753999
  0
LWPOLYLINE
  5
8E
330
17
100
AcDbEntity
  8
Layer
100
AcDbPolyline
 90
5
 70
0
 10
74.49579206750614
 20
209.6679976790602
 10
70.49858597065626
 20
209.51852052593603
 10
70.3491088175321
 20
213.5157266227859
 10
74.34631491438198
 20
213.66520377591007
 10
74.49579206750614
 20
209.6679976790602
  0
LWPOLYLINE
  5
8F
330
17
100
AcDbEntity
  8
Layer
100
AcDbPolyline
 90
5
 70
0
 10
36.52351037651148
 20
205.08034476965773
 10
32.65602705036659
 20
204.05928026533329
 10
31.634962546042164
 20
207.9267635914782
 10
35.50244587218705
 20
208.94782809580263
 10
36.52351037651148
 20
205.08034476965773
  0
LWPOLYLINE
  5
90
330
17
100
AcDbEntity
  8
Layer
100
AcDbPolyline
 90
5
 70
0
 10
18.467773703561836
 20
196.6290430077521
 10
16.969555433289205
 20
195.30414979899098
 10
13.657322411386454
 20
199.04969547467255
 10
15.155540681659089
 20
200.37458868343367
 10
18.467773703561836
 20
196.6290430077521
  0
LWPOLYLINE
  5
91
330
17
100
AcDbEntity
  8
Layer
100
AcDbPolyline
 90
5
 70
0
 10
15.054708635526229
 20
196.84747344412625
 10
16.650449092775062
 20
195.64181495471092
 10
13.636302869236712
 20
191.65246381158886
 10
12.040562411987878
 20
192.8581223010042
 10
15.054708635526229
 20
196.84747344412625
  0
LWPOLYLINE
  5
92
330
17
100
AcDbEntity
  8
Layer
100
AcDbPolyline
 90
5
 70
0
 10
42.06677600241328
 20
191.08866547416045
 10
46.062257390536885
 20
190.8985905490445
 10
45.872182465420934
 20
186.9031091609209
 10
41.87670107729733
 20
187.09318408603684
 10
42.06677600241328
 20
191.08866547416045
  0
LINE
  5
93
330
17
100
AcDbEntity
  8
Layer
100
AcDbLine
 10
218.91728717651588
 20
191.2836087817696
 30
0.0
 11
218.71513887299812
 21
190.30425385969852
 31
0.0
  0
LINE
  5
94
330
17
100
AcDbEntity
  8
Layer
100
AcDbLine
 10
218.53928205124404
 20
188.7884284061909
 30
0.0
 11
218.51187435779502
 21
187.7888040675817
 31
0.0
  0
LINE
  5
95
330
17
100
AcDbEntity
  8
Layer
100
AcDbLine
 10
199.5573596711958
 20
196.35829208374528
 30
0.0
 11
199.3294185800121
 21
195.3846171590656
 31
0.0
  0
LINE
  5
96
330
17
100
AcDbEntity
  8
Layer
100
AcDbLine
 10
198.5177756623862
 20
188.6806570564769
 30
0.0
 11
198.50677398569812
 21
187.6807175767532
 31
0.0
  0
LINE
  5
97
330
17
100
AcDbEntity
  8
Layer
100
AcDbLine
 10
120.99527280392462
 20
211.5637963046645
 30
0.0
 11
120.79257990918379
 21
210.58455394936036
 31
0.0
  0
LINE
  5
98
330
17
100
AcDbEntity
  8
Layer
100
AcDbLine
 10
118.50078904465857
 20
186.85864751315628
 30
0.0
 11
118.51230518421036
 21
185.85871382609008
 31
0.0
  0
LWPOLYLINE
  5
99
330
17
100
AcDbEntity
  8
Layer
100
AcDbPolyline
 90
300
 70
1
 10
116.88571428571245
 20
200.0
 10
116.8813162300979
 20
200.424745687111
 10
116.86812400531177
 20
200.84930381848366
 10
116.84614343666918
 20
201.27348692119895
 10
116.81538423017045
 20
201.69710768793993
 10
116.77585996821526
 20
202.11997905970148
 10
116.72758810360504
 20
202.54191430839012
 10
116.67058995183629
 20
202.96272711927796
 10
116.60489068168829
 20
203.3822316732741
 10
116.53051930410919
 20
203.80024272897705
 10
116.44750865940571
 20
204.21657570447206
 10
116.35589540274171
 20
204.63104675883744
 10
116.2557199879523
 20
205.0434728733234
 10
116.14702664968061
 20
205.45367193216808
 10
116.02986338384497
 20
205.8614628030146
 10
115.90428192644531
 20
206.26666541689426
 10
115.77033773071793
 20
206.66910084773963
 10
115.62808994264898
 20
207.0685913913935
 10
115.47760137485727
 20
207.4649606440779
 10
115.31893847885787
 20
207.8580335802891
 10
115.15217131571913
 20
208.2476366300839
 10
114.97737352512561
 20
208.63359775572332
 10
114.79462229286085
 20
209.0157465276395
 10
114.6039983167244
 20
209.3939141996927
 10
114.4055857708978
 20
209.76793378368478
 10
114.19947226877576
 20
210.1376401230966
 10
113.98574882427852
 20
210.50286996601622
 10
113.76450981166255
 20
210.86346203722672
 10
113.53585292384771
 20
211.2192571094205
 10
113.29987912927874
 20
211.57009807350977
 10
113.05669262734034
 20
211.91583000800134
 10
112.8064008023458
 20
212.25630024740565
 10
112.54911417611905
 20
212.59135844964968
 10
112.28494635919131
 20
212.9208566624635
 10
112.0140140006339
 20
213.2446493887122
 10
111.73643673654932
 20
213.5625936506429
 10
111.45233713724325
 20
213.87454905302008
 10
111.16184065310102
 20
214.18037784511992
 10
110.86507555919223
 20
214.4799449815573
 10
110.56217289862806
 20
214.77311818191794
 10
110.25326642469635
 20
215.05976798916967
 10
109.93849254179993
 20
215.33976782682717
 10
109.61799024522425
 20
215.61299405484442
 10
109.29190105976093
 20
215.8793260242108
 10
108.96036897721453
 20
216.13864613022614
 10
108.62354039281966
 20
216.3908398644318
 10
108.2815640405971
 20
216.63579586517432
 10
107.93459092767695
 20
216.87340596677953
 10
107.5827742676182
 20
217.10356524731557
 10
107.22626941275387
 20
217.32617207492342
 10
106.86523378559185
 20
217.54112815269463
 10
106.49982680930155
 20
217.74833856207653
 10
106.13020983731704
 20
217.94771180478554
 10
105.75654608208802
 20
218.13915984321028
 10
105.37900054300974
 20
218.3225981392864
 10
104.99773993356392
 20
218.49794569182646
 10
104.61293260770275
 20
218.66512507228742
 10
104.22474848550857
 20
218.82406245896115
 10
103.83335897816193
 20
218.974687669572
 10
103.43893691225118
 20
219.11693419226725
 10
103.04165645345721
 20
219.25073921498682
 10
102.6416930296467
 20
219.37604365319953
 10
102.23922325340821
 20
219.49279217599283
 10
101.83442484406493
 20
219.60093323050575
 10
101.42747654919886
 20
219.70041906469282
 10
101.01855806572097
 20
219.7912057484104
 10
100.60784996052205
 20
219.87325319281464
 10
100.19553359073943
 20
219.94652516806386
 10
99.78179102367483
 20
220.01098931931645
 10
99.36680495639855
 20
220.066617181018
 10
98.95075863507556
 20
220.1133841894707
 10
98.53383577404915
 20
220.15126969368023
 10
98.11622047471793
 20
220.18025696447444
 10
97.69809714424171
 20
220.20033320189054
 10
97.2796504141126
 20
220.21148954082727
 10
96.86106505862682
 20
220.21372105495942
 10
96.44252591329375
 20
220.2070267589132
 10
96.02421779321757
 20
220.19140960870126
 10
95.60632541148829
 20
220.1668765004175
 10
95.18903329761748
 20
220.13343826719188
 10
94.77252571605543
 20
220.09110967440688
 10
94.35698658482494
 20
220.03990941317753
 10
93.94259939430849
 20
219.97986009209777
 10
93.52954712622392
 20
219.91098822725735
 10
93.11801217282493
 20
219.83332423053298
 10
92.70817625636175
 20
219.74690239615927
 10
92.30022034883775
 20
219.65176088558542
 10
91.89432459209726
 20
219.54794171062412
 10
91.49066821828004
 20
219.43549071490042
 10
91.08942947067733
 20
219.31445755360846
 10
90.69078552502478
 20
219.18489567158497
 10
90.29491241126651
 20
219.04686227970976
 10
89.90198493582524
 20
218.9004183296429
 10
89.51217660441279
 20
218.74562848691016
 10
89.12565954541475
 20
218.5825611023486
 10
88.74260443388347
 20
218.41128818192465
 10
88.36318041617278
 20
218.23188535493853
 10
87.98755503524767
 20
218.04443184062814
 10
87.61589415670204
 20
217.84901041318844
 10
87.24836189551722
 20
217.64570736522043
 10
86.88512054359327
 20
217.43461246962687
 10
86.52633049808556
 20
217.2158189399711
 10
86.1721501905778
 20
216.98942338931653
 10
85.82273601712322
 20
216.755525787565
 10
85.47824226918442
 20
216.514229417313
 10
85.13882106550257
 20
216.26564082824487
 10
84.80462228492613
 20
216.00986979008343
 10
84.47579350022853
 20
215.74702924411895
 10
84.15247991294417
 20
215.47723525333723
 10
83.83482428925157
 20
215.20060695116956
 10
83.52296689693176
 20
214.91726648888684
 10
83.21704544343005
 20
214.6273389816608
 10
82.91719501504826
 20
214.33095245331685
 10
82.62354801729445
 20
214.02823777980234
 10
82.3362341164163
 20
213.71932863139523
 10
82.05538018214425
 20
213.4043614136794
 10
81.78111023166929
 20
213.08347520731144
 10
81.51354537488054
 20
212.75681170660678
 10
81.25280376088651
 20
212.4245151569714
 10
80.99900052584375
 20
212.08673229120708
 10
80.75224774211603
 20
211.7436122647184
 10
80.51265436878623
 20
211.39530658964975
 10
80.2803262035432
 20
211.0419690679821
 10
80.05536583596441
 20
210.68375572361813
 10
79.8378726022153
 20
210.32082473348663
 10
79.6279425411852
 20
209.95333635769592
 10
79.42566835207928
 20
209.58145286876749
 10
79.23113935348522
 20
209.2053384799811
 10
79.04444144393256
 20
208.8251592728628
 10
78.8656570639624
 20
208.441083123848
 10
78.69486515972397
 20
208.0532796301519
 10
78.53214114811418
 20
207.66192003488018
 10
78.37755688347568
 20
207.26717715141294
 10
78.23118062586802
 20
206.869225287095
 10
78.0930770109259
 20
206.46824016626687
 10
77.9633070213179
 20
206.06439885266968
 10
77.84192795981826
 20
205.657879671259
 10
77.72899342400359
 20
205.24886212946126
 10
77.62455328258564
 20
204.83752683790868
 10
77.52865365339076
 20
204.4240554306864
 10
77.44133688299554
 20
204.00863048512818
 10
77.3626415280277
 20
203.59143544119527
 10
77.29260233814063
 20
203.1726545204746
 10
77.23125024066888
 20
202.75247264483153
 10
77.1786123269716
 20
202.33107535475375
 10
77.13471184046966
 20
201.9086487274218
 10
77.09956816638201
 20
201.48537929454244
 10
77.07319682316583
 20
201.06145395998178
 10
77.05560945566388
 20
200.63705991723353
 10
77.04681382996256
 20
200.21238456675977
 10
77.04681382996256
 20
199.78761543324023
 10
77.05560945566388
 20
199.3629400827665
 10
77.07319682316583
 20
198.93854604001822
 10
77.09956816638201
 20
198.51462070545756
 10
77.13471184046966
 20
198.0913512725782
 10
77.1786123269716
 20
197.66892464524625
 10
77.23125024066888
 20
197.24752735516847
 10
77.29260233814063
 20
196.8273454795254
 10
77.3626415280277
 20
196.40856455880473
 10
77.44133688299554
 20
195.99136951487182
 10
77.52865365339076
 20
195.5759445693136
 10
77.62455328258564
 20
195.16247316209132
 10
77.72899342400359
 20
194.75113787053874
 10
77.84192795981826
 20
194.34212032874103
 10
77.9633070213179
 20
193.93560114733032
 10
78.0930770109259
 20
193.53175983373313
 10
78.23118062586802
 20
193.130774712905
 10
78.37755688347568
 20
192.73282284858706
 10
78.53214114811418
 20
192.33807996511982
 10
78.69486515972397
 20
191.9467203698481
 10
78.8656570639624
 20
191.558916876152
 10
79.04444144393256
 20
191.1748407271372
 10
79.23113935348522
 20
190.7946615200189
 10
79.42566835207928
 20
190.41854713123251
 10
79.6279425411852
 20
190.04666364230408
 10
79.8378726022153
 20
189.67917526651334
 10
80.05536583596442
 20
189.31624427638184
 10
80.2803262035432
 20
188.9580309320179
 10
80.51265436878622
 20
188.60469341035025
 10
80.75224774211601
 20
188.25638773528163
 10
80.99900052584375
 20
187.91326770879292
 10
81.25280376088651
 20
187.5754848430286
 10
81.51354537488054
 20
187.24318829339322
 10
81.78111023166929
 20
186.91652479268856
 10
82.05538018214425
 20
186.5956385863206
 10
82.3362341164163
 20
186.28067136860477
 10
82.62354801729444
 20
185.9717622201977
 10
82.91719501504826
 20
185.66904754668315
 10
83.21704544343005
 20
185.3726610183392
 10
83.52296689693176
 20
185.08273351111316
 10
83.83482428925157
 20
184.79939304883044
 10
84.15247991294417
 20
184.5227647466628
 10
84.47579350022853
 20
184.25297075588105
 10
84.80462228492613
 20
183.99013020991657
 10
85.13882106550257
 20
183.73435917175513
 10
85.4782422691844
 20
183.485770582687
 10
85.82273601712322
 20
183.244474212435
 10
86.1721501905778
 20
183.01057661068347
 10
86.52633049808556
 20
182.7841810600289
 10
86.88512054359327
 20
182.56538753037313
 10
87.24836189551723
 20
182.35429263477957
 10
87.61589415670205
 20
182.15098958681156
 10
87.98755503524767
 20
181.95556815937186
 10
88.36318041617278
 20
181.76811464506147
 10
88.74260443388347
 20
181.58871181807535
 10
89.12565954541475
 20
181.4174388976514
 10
89.51217660441279
 20
181.25437151308984
 10
89.90198493582524
 20
181.0995816703571
 10
90.2949124112665
 20
180.95313772029024
 10
90.69078552502478
 20
180.81510432841503
 10
91.08942947067733
 20
180.68554244639154
 10
91.49066821828004
 20
180.56450928509958
 10
91.89432459209726
 20
180.45205828937588
 10
92.30022034883775
 20
180.34823911441458
 10
92.70817625636175
 20
180.25309760384073
 10
93.11801217282493
 20
180.16667576946702
 10
93.52954712622393
 20
180.08901177274265
 10
93.94259939430849
 20
180.02013990790223
 10
94.35698658482495
 20
179.96009058682247
 10
94.77252571605541
 20
179.90889032559312
 10
95.18903329761747
 20
179.86656173280812
 10
95.60632541148827
 20
179.8331234995825
 10
96.02421779321757
 20
179.80859039129874
 10
96.44252591329375
 20
179.7929732410868
 10
96.86106505862682
 20
179.78627894504058
 10
97.27965041411258
 20
179.78851045917273
 10
97.69809714424171
 20
179.79966679810946
 10
98.11622047471793
 20
179.81974303552556
 10
98.53383577404915
 20
179.84873030631977
 10
98.95075863507556
 20
179.8866158105293
 10
99.36680495639855
 20
179.933382818982
 10
99.78179102367484
 20
179.98901068068355
 10
100.19553359073943
 20
180.05347483193614
 10
100.60784996052205
 20
180.12674680718536
 10
101.01855806572097
 20
180.2087942515896
 10
101.42747654919884
 20
180.29958093530718
 10
101.83442484406491
 20
180.39906676949425
 10
102.2392232534082
 20
180.50720782400717
 10
102.6416930296467
 20
180.62395634680047
 10
103.0416564534572
 20
180.74926078501315
 10
103.43893691225117
 20
180.88306580773275
 10
103.83335897816193
 20
181.025312330428
 10
104.22474848550857
 20
181.17593754103885
 10
104.61293260770275
 20
181.33487492771258
 10
104.99773993356392
 20
181.50205430817354
 10
105.37900054300974
 20
181.6774018607136
 10
105.75654608208802
 20
181.86084015678972
 10
106.13020983731704
 20
182.05228819521446
 10
106.49982680930155
 20
182.25166143792347
 10
106.86523378559184
 20
182.45887184730535
 10
107.22626941275387
 20
182.67382792507658
 10
107.58277426761819
 20
182.89643475268443
 10
107.93459092767695
 20
183.12659403322047
 10
108.2815640405971
 20
183.36420413482568
 10
108.62354039281966
 20
183.6091601355682
 10
108.96036897721453
 20
183.86135386977386
 10
109.29190105976093
 20
184.1206739757892
 10
109.61799024522425
 20
184.38700594515558
 10
109.93849254179993
 20
184.66023217317283
 10
110.25326642469636
 20
184.94023201083033
 10
110.56217289862806
 20
185.22688181808206
 10
110.86507555919223
 20
185.5200550184427
 10
111.16184065310102
 20
185.81962215488008
 10
111.45233713724326
 20
186.12545094697992
 10
111.73643673654931
 20
186.4374063493571
 10
112.01401400063389
 20
186.7553506112878
 10
112.28494635919131
 20
187.0791433375365
 10
112.54911417611905
 20
187.40864155035032
 10
112.80640080234579
 20
187.74369975259435
 10
113.05669262734033
 20
188.08416999199866
 10
113.29987912927872
 20
188.42990192649023
 10
113.53585292384771
 20
188.7807428905795
 10
113.76450981166255
 20
189.13653796277328
 10
113.98574882427852
 20
189.49713003398378
 10
114.19947226877576
 20
189.8623598769034
 10
114.4055857708978
 20
190.23206621631522
 10
114.6039983167244
 20
190.6060858003073
 10
114.79462229286085
 20
190.9842534723605
 10
114.97737352512561
 20
191.36640224427668
 10
115.15217131571913
 20
191.75236336991608
 10
115.31893847885787
 20
192.1419664197109
 10
115.47760137485727
 20
192.5350393559221
 10
115.62808994264898
 20
192.9314086086065
 10
115.77033773071793
 20
193.33089915226037
 10
115.9042819264453
 20
193.73333458310574
 10
116.02986338384497
 20
194.1385371969854
 10
116.14702664968061
 20
194.54632806783192
 10
116.2557199879523
 20
194.95652712667658
 10
116.35589540274171
 20
195.36895324116256
 10
116.44750865940571
 20
195.78342429552794
 10
116.53051930410919
 20
196.19975727102295
 10
116.60489068168829
 20
196.6177683267259
 10
116.67058995183629
 20
197.03727288072204
 10
116.72758810360504
 20
197.45808569160988
 10
116.77585996821526
 20
197.8800209402985
 10
116.81538423017045
 20
198.30289231206004
 10
116.84614343666918
 20
198.72651307880105
 10
116.86812400531177
 20
199.15069618151634
 10
116.8813162300979
 20
199.575254312889
 10
116.88571428571245
 20
200.0
  0
LINE
  5
9A
330
17
100
AcDbEntity
  8
Layer
 62
7
100
AcDbLine
 10
14.753934594311346
 20
200.0
 30
0.0
 11
186.17842638027366
 21
200.0
 31
0.0
  0
LINE
  5
9B
330
17
100
AcDbEntity
  8
Layer
 62
7
100
AcDbLine
 10
46.938832951503805
 20
200.0
 30
0.0
 11
58.938832951503805
 21
200.0
 31
0.0
  0
LWPOLYLINE
  5
9C
330
17
100
AcDbEntity
  8
Layer
100
AcDbPolyline
 90
5
 70
0
 10
52.938832951503805
 20
205.0
 10
57.938832951503805
 20
200.0
 10
52.938832951503805
 20
195.0
 10
47.938832951503805
 20
200.0
 10
52.938832951503805
 20
205.0
  0
LINE
  5
9D
330
17
100
AcDbEntity
  8
Layer
 62
7
100
AcDbLine
 10
94.4661804872925
 20
200.0
 30
0.0
 11
106.4661804872925
 21
200.0
 31
0.0
  0
LWPOLYLINE
  5
9E
330
17
100
AcDbEntity
  8
Layer
100
AcDbPolyline
 90
5
 70
0
 10
100.4661804872925
 20
205.0
 10
105.4661804872925
 20
200.0
 10
100.4661804872925
 20
195.0
 10
95.4661804872925
 20
200.0
 10
100.4661804872925
 20
205.0
  0
LINE
  5
9F
330
17
100
AcDbEntity
  8
Layer
 62
7
100
AcDbLine
 10
141.9935280230812
 20
200.0
 30
0.0
 11
153.9935280230812
 21
200.0
 31
0.0
  0
LWPOLYLINE
  5
A0
330
17
100
AcDbEntity
  8
Layer
100
AcDbPolyline
 90
5
 70
0
 10
147.9935280230812
 20
205.0
 10
152.9935280230812
 20
200.0
 10
147.9935280230812
 20
195.0
 10
142.9935280230812
 20
200.0
 10
147.9935280230812
 20
205.0
  0
LINE
  5
A1
330
17
100
AcDbEntity
  8
Layer
 62
7
100
AcDbLine
 10
11.297673727504645
 20
194.993386201189
 30
0.0
 11
236.05082347230965
 21
187.32436960612407
 31
0.0
  0
LINE
  5
A2
330
17
100
AcDbEntity
  8
Layer
 62
7
100
AcDbLine
 10
54.14952513307422
 20
193.5311973066987
 30
0.0
 11
66.14254538102529
 21
193.12197202371192
 31
0.0
  0
LWPOLYLINE
  5
A3
330
17
100
AcDbEntity
  8
Layer
100
AcDbPolyline
 90
5
 70
0
 10
60.316545791627576
 20
198.32367643518492
 10
65.14312702702937
 20
193.15607413062747
 10
59.97552472247193
 20
188.32949289522568
 10
55.14894348707014
 20
193.49709519978313
 10
60.316545791627576
 20
198.32367643518492
  0
LINE
  5
A4
330
17
100
AcDbEntity
  8
Layer
 62
7
100
AcDbLine
 10
107.0897029187887
 20
191.72477500540805
 30
0.0
 11
119.08272316673978
 21
191.31554972242128
 31
0.0
  0
LWPOLYLINE
  5
A5
330
17
100
AcDbEntity
  8
Layer
100
AcDbPolyline
 90
5
 70
0
 10
113.25672357734206
 20
196.51725413389428
 10
118.08330481274386
 20
191.34965182933684
 10
112.91570250818643
 20
186.52307059393505
 10
108.08912127278462
 20
191.6906728984925
 10
113.25672357734206
 20
196.51725413389428
  0
LINE
  5
A6
330
17
100
AcDbEntity
  8
Layer
100
AcDbLine
 10
96.96571428571252
 20
220.2139999999999
 30
0.0
 11
96.96571428571252
 21
221.2139999999999
 31
0.0
  0
LINE
  5
A7
330
17
100
AcDbEntity
  8
Layer
100
AcDbLine
 10
96.96571428571252
 20
179.7860000000001
 30
0.0
 11
96.96571428571252
 21
178.7860000000001
 31
0.0
  0
LINE
  5
A8
330
17
100
AcDbEntity
  8
Layer
100
AcDbLine
 10
116.88571428571245
 20
200.0
 30
0.0
 11
117.88571428571245
 21
200.0
 31
0.0
  0
LINE
  5
A9
330
17
100
AcDbEntity
  8
Layer
100
AcDbLine
 10
77.04571428571259
 20
200.0
 30
0.0
 11
76.04571428571259
 21
200.0
 31
0.0
  0
LWPOLYLINE
  5
AA
330
17
100
AcDbEntity
  8
NumLabel
 62
1
100
AcDbPolyline
 90
4
 70
0
 10
76.0799999999987
 20
198.55714285714308
 10
74.0799999999987
 20
198.55714285714308
 10
74.0799999999987
 20
188.55714285714308
 10
76.0799999999987
 20
188.55714285714308
  0
LWPOLYLINE
  5
AB
330
17
100
AcDbEntity
  8
NumLabel
 62
1
100
AcDbPolyline
 90
4
 70
0
 10
77.0799999999987
 20
188.55714285714308
 10
79.0799999999987
 20
188.55714285714308
 10
79.0799999999987
 20
198.55714285714308
 10
77.0799999999987
 20
198.55714285714308
  0
LWPOLYLINE
  5
AC
330
17
100
AcDbEntity
  8
NumLabel
 62
1
100
AcDbPolyline
 90
2
 70
0
 10
74.0799999999987
 20
193.55714285714308
 10
76.0799999999987
 20
193.55714285714308
  0
LWPOLYLINE
  5
AD
330
17
100
AcDbEntity
  8
NumLabel
 62
1
100
AcDbPolyline
 90
2
 70
0
 10
77.0799999999987
 20
193.55714285714308
 10
79.0799999999987
 20
193.55714285714308
  0
LWPOLYLINE
  5
AE
330
17
100
AcDbEntity
  8
NumLabel
 62
1
100
AcDbPolyline
 90
6
 70
0
 10
86.5799999999987
 20
198.55714285714308
 10
81.5799999999987
 20
198.55714285714308
 10
81.5799999999987
 20
193.55714285714308
 10
86.5799999999987
 20
193.55714285714308
 10
86.5799999999987
 20
188.55714285714308
 10
81.5799999999987
 20
188.55714285714308
  0
ENDSEC
  0
SECTION
  2
OBJECTS
  0
DICTIONARY
  5
A
330
0
100
AcDbDictionary
280
0
281
1
  3
ACAD_COLOR
350
B
  3
ACAD_GROUP
350
C
  3
ACAD_LAYOUT
350
D
  3
ACAD_MATERIAL
350
E
  3
ACAD_MLEADERSTYLE
350
F
  3
ACAD_MLINESTYLE
350
10
  3
ACAD_PLOTSETTINGS
350
11
  3
ACAD_PLOTSTYLENAME
350
12
  3
ACAD_SCALELIST
350
14
  3
ACAD_TABLESTYLE
350
15
  3
ACAD_VISUALSTYLE
350
16
  3
EZDXF_META
350
2D
  0
DICTIONARY
  5
B
330
A
100
AcDbDictionary
280
0
281
1
  0
DICTIONARY
  5
C
330
A
100
AcDbDictionary
280
0
281
1
  0
DICTIONARY
  5
D
330
A
100
AcDbDictionary
280
0
281
1
  3
Model
350
1A
  3
Layout1
350
1E
  0
DICTIONARY
  5
E
330
A
100
AcDbDictionary
280
0
281
1
  3
ByBlock
350
1F
  3
ByLayer
350
20
  3
Global
350
21
  0
DICTIONARY
  5
F
330
A
100
AcDbDictionary
280
0
281
1
  3
Standard
350
2C
  0
DICTIONARY
  5
10
330
A
100
AcDbDictionary
280
0
281
1
  3
Standard
350
22
  0
DICTIONARY
  5
11
330
A
100
AcDbDictionary
280
0
281
1
  0
ACDBDICTIONARYWDFLT
  5
12
330
A
100
AcDbDictionary
280
0
281
1
  3
Normal
350
13
100
AcDbDictionaryWithDefault
340
13
  0
ACDBPLACEHOLDER
  5
13
330
12
  0
DICTIONARY
  5
14
330
A
100
AcDbDictionary
280
0
281
1
  0
DICTIONARY
  5
15
330
A
100
AcDbDictionary
280
0
281
1
  0
DICTIONARY
  5
16
330
A
100
AcDbDictionary
280
0
281
1
  3
2dWireframe
350
5A
  3
Basic
350
5B
  3
Brighten
350
5C
  3
ColorChange
350
5D
  3
Conceptual
350
5E
  3
Dim
350
5F
  3
EdgeColorOff
350
60
  3
Facepattern
350
61
  3
Flat
350
62
  3
FlatWithEdges
350
63
  3
Gouraud
350
64
  3
GouraudWithEdges
350
65
  3
Hidden
350
66
  3
JitterOff
350
67
  3
Linepattern
350
68
  3
Modeling
350
69
  3
OverhangOff
350
6A
  3
Realistic
350
6B
  3
Shaded
350
6C
  3
Shaded with edges
350
6D
  3
Shades of Gray
350
6E
  3
Sketchy
350
6F
  3
Thicken
350
70
  3
Wireframe
350
71
  3
X-Ray
350
72
  0
LAYOUT
  5
1A
330
D
100
AcDbPlotSettings
  1

  2
Adobe PDF
  4
A3
  6

 40
7.5
 41
20.0
 42
7.5
 43
20.0
 44
420.0
 45
297.0
 46
0.0
 47
0.0
 48
0.0
 49
0.0
140
0.0
141
0.0
142
1.0
143
1.0
 70
1024
 72
1
 73
0
 74
5
  7

 75
16
 76
0
 77
2
 78
300
147
1.0
148
0.0
149
0.0
100
AcDbLayout
  1
Model
 70
1
 71
0
 10
0.0
 20
0.0
 11
420.0
 21
297.0
 12
0.0
 22
0.0
 32
0.0
 14
1e+20
 24
1e+20
 34
1e+20
 15
-1e+20
 25
-1e+20
 35
-1e+20
146
0.0
 13
0.0
 23
0.0
 33
0.0
 16
1.0
 26
0.0
 36
0.0
 17
0.0
 27
1.0
 37
0.0
 76
1
330
17
  0
LAYOUT
  5
1E
330
D
100
AcDbPlotSettings
  1

  2
Adobe PDF
  4
A3
  6

 40
7.5
 41
20.0
 42
7.5
 43
20.0
 44
420.0
 45
297.0
 46
0.0
 47
0.0
 48
0.0
 49
0.0
140
0.0
141
0.0
142
1.0
143
1.0
 70
0
 72
1
 73
0
 74
5
  7

 75
16
 76
0
 77
2
 78
300
147
1.0
148
0.0
149
0.0
100
AcDbLayout
  1
Layout1
 70
1
 71
1
 10
0.0
 20
0.0
 11
420.0
 21
297.0
 12
0.0
 22
0.0
 32
0.0
 14
1e+20
 24
1e+20
 34
1e+20
 15
-1e+20
 25
-1e+20
 35
-1e+20
146
0.0
 13
0.0
 23
0.0
 33
0.0
 16
1.0
 26
0.0
 36
0.0
 17
0.0
 27
1.0
 37
0.0
 76
1
330
1B
  0
MATERIAL
  5
1F
102
{ACAD_REACTORS
330
E
102
}
330
E
100
AcDbMaterial
  1
ByBlock
  2

 70
0
 40
1.0
 71
1
 41
1.0
 91
-1023410177
 42
1.0
 72
1
  3

 73
1
 74
1
 75
1
 44
0.5
 73
0
 45
1.0
 46
1.0
 77
1
  4

 78
1
 79
1
170
1
 48
1.0
171
1
  6

172
1
173
1
174
1
140
1.0
141
1.0
175
1
  7

176
1
177
1
178
1
143
1.0
179
1
  8

270
1
271
1
272
1
145
1.0
146
1.0
273
1
  9

274
1
275
1
276
1
 42
1.0
 72
1
  3

 73
1
 74
1
 75
1
 94
63
  0
MATERIAL
  5
20
102
{ACAD_REACTORS
330
E
102
}
330
E
100
AcDbMaterial
  1
ByLayer
  2

 70
0
 40
1.0
 71
1
 41
1.0
 91
-1023410177
 42
1.0
 72
1
  3

 73
1
 74
1
 75
1
 44
0.5
 73
0
 45
1.0
 46
1.0
 77
1
  4

 78
1
 79
1
170
1
 48
1.0
171
1
  6

172
1
173
1
174
1
140
1.0
141
1.0
175
1
  7

176
1
177
1
178
1
143
1.0
179
1
  8

270
1
271
1
272
1
145
1.0
146
1.0
273
1
  9

274
1
275
1
276
1
 42
1.0
 72
1
  3

 73
1
 74
1
 75
1
 94
63
  0
MATERIAL
  5
21
102
{ACAD_REACTORS
330
E
102
}
330
E
100
AcDbMaterial
  1
Global
  2

 70
0
 40
1.0
 71
1
 41
1.0
 91
-1023410177
 42
1.0
 72
1
  3

 73
1
 74
1
 75
1
 44
0.5
 73
0
 45
1.0
 46
1.0
 77
1
  4

 78
1
 79
1
170
1
 48
1.0
171
1
  6

172
1
173
1
174
1
140
1.0
141
1.0
175
1
  7

176
1
177
1
178
1
143
1.0
179
1
  8

270
1
271
1
272
1
145
1.0
146
1.0
273
1
  9

274
1
275
1
276
1
 42
1.0
 72
1
  3

 73
1
 74
1
 75
1
 94
63
  0
MLINESTYLE
  5
22
102
{ACAD_REACTORS
330
10
102
}
330
10
100
AcDbMlineStyle
  2
Standard
 70
0
  3

 62
256
 51
90.0
 52
90.0
 71
2
 49
0.5
 62
256
  6
BYLAYER
 49
-0.5
 62
256
  6
BYLAYER
  0
MLEADERSTYLE
  5
2C
102
{ACAD_REACTORS
330
F
102
}
330
F
100
AcDbMLeaderStyle
179
2
170
2
171
1
172
0
 90
2
 40
0.0
 41
0.0
173
1
 91
-1056964608
 92
-2
290
1
 42
2.0
291
1
 43
8.0
  3
Standard
 44
4.0
300

342
29
174
1
175
1
176
0
178
1
 93
-1056964608
 45
4.0
292
0
297
0
 46
4.0
 94
-1056964608
 47
1.0
 49
1.0
140
1.0
294
1
141
0.0
177
0
142
1.0
295
0
296
0
143
3.75
271
0
272
9
273
9
  0
DICTIONARY
  5
2D
330
A
100
AcDbDictionary
281
1
  3
CREATED_BY_EZDXF
350
2E
  3
WRITTEN_BY_EZDXF
350
B1
  0
DICTIONARYVAR
  5
2E
330
2D
100
DictionaryVariables
280
0
  1
1.3.0 @ 2026-01-06T17:07:25.288502+00:00
  0
VISUALSTYLE
  5
5A
102
{ACAD_REACTORS
330
16
102
}
330
16
100
AcDbVisualStyle
  2
2dWireframe
 70
4
 90
0
 40
0.6
 62
7
290
0
291
0
  0
VISUALSTYLE
  5
5B
102
{ACAD_REACTORS
330
16
102
}
330
16
100
AcDbVisualStyle
  2
Basic
 70
7
 90
1
 40
0.6
 62
7
290
0
291
1
  0
VISUALSTYLE
  5
5C
102
{ACAD_REACTORS
330
16
102
}
330
16
100
AcDbVisualStyle
  2
Brighten
 70
12
 90
2
 40
0.6
 62
7
290
0
291
1
  0
VISUALSTYLE
  5
5D
102
{ACAD_REACTORS
330
16
102
}
330
16
100
AcDbVisualStyle
  2
ColorChange
 70
16
 90
2
 40
0.6
 62
8
290
0
291
1
  0
VISUALSTYLE
  5
5E
102
{ACAD_REACTORS
330
16
102
}
330
16
100
AcDbVisualStyle
  2
Conceptual
 70
9
 90
3
 40
0.6
 62
7
290
0
291
0
  0
VISUALSTYLE
  5
5F
102
{ACAD_REACTORS
330
16
102
}
330
16
100
AcDbVisualStyle
  2
Dim
 70
11
 90
2
 40
0.6
 62
7
290
0
291
1
  0
VISUALSTYLE
  5
60
102
{ACAD_REACTORS
330
16
102
}
330
16
100
AcDbVisualStyle
  2
EdgeColorOff
 70
22
 90
2
 40
0.6
 62
7
290
0
291
1
  0
VISUALSTYLE
  5
61
102
{ACAD_REACTORS
330
16
102
}
330
16
100
AcDbVisualStyle
  2
Facepattern
 70
15
 90
2
 40
0.6
 62
7
290
0
291
1
  0
VISUALSTYLE
  5
62
102
{ACAD_REACTORS
330
16
102
}
330
16
100
AcDbVisualStyle
  2
Flat
 70
0
 90
2
 40
0.6
 62
7
290
0
291
1
  0
VISUALSTYLE
  5
63
102
{ACAD_REACTORS
330
16
102
}
330
16
100
AcDbVisualStyle
  2
FlatWithEdges
 70
1
 90
2
 40
0.6
 62
7
290
0
291
1
  0
VISUALSTYLE
  5
64
102
{ACAD_REACTORS
330
16
102
}
330
16
100
AcDbVisualStyle
  2
Gouraud
 70
2
 90
2
 40
0.6
 62
7
290
0
291
1
  0
VISUALSTYLE
  5
65
102
{ACAD_REACTORS
330
16
102
}
330
16
100
AcDbVisualStyle
  2
GouraudWithEdges
 70
3
 90
2
 40
0.6
 62
7
290
0
291
1
  0
VISUALSTYLE
  5
66
102
{ACAD_REACTORS
330
16
102
}
330
16
100
AcDbVisualStyle
  2
Hidden
 70
6
 90
1
 40
0.6
 62
7
290
0
291
0
  0
VISUALSTYLE
  5
67
102
{ACAD_REACTORS
330
16
102
}
330
16
100
AcDbVisualStyle
  2
JitterOff
 70
20
 90
2
 40
0.6
 62
7
290
0
291
1
  0
VISUALSTYLE
  5
68
102
{ACAD_REACTORS
330
16
102
}
330
16
100
AcDbVisualStyle
  2
Linepattern
 70
14
 90
2
 40
0.6
 62
7
290
0
291
1
  0
VISUALSTYLE
  5
69
102
{ACAD_REACTORS
330
16
102
}
330
16
100
AcDbVisualStyle
  2
Modeling
 70
10
 90
2
 40
0.6
 62
7
290
0
291
0
  0
VISUALSTYLE
  5
6A
102
{ACAD_REACTORS
330
16
102
}
330
16
100
AcDbVisualStyle
  2
OverhangOff
 70
21
 90
2
 40
0.6
 62
7
290
0
291
1
  0
VISUALSTYLE
  5
6B
102
{ACAD_REACTORS
330
16
102
}
330
16
100
AcDbVisualStyle
  2
Realistic
 70
8
 90
2
 40
0.6
 62
7
290
0
291
0
  0
VISUALSTYLE
  5
6C
102
{ACAD_REACTORS
330
16
102
}
330
16
100
AcDbVisualStyle
  2
Shaded
 70
27
 90
2
 40
0.6
 62
7
290
0
291
0
  0
VISUALSTYLE
  5
6D
102
{ACAD_REACTORS
330
16
102
}
330
16
100
AcDbVisualStyle
  2
Shaded with edges
 70
26
 90
2
 40
0.6
 62
7
290
0
291
0
  0
VISUALSTYLE
  5
6E
102
{ACAD_REACTORS
330
16
102
}
330
16
100
AcDbVisualStyle
  2
Shades of Gray
 70
23
 90
2
 40
0.6
 62
7
290
0
291
0
  0
VISUALSTYLE
  5
6F
102
{ACAD_REACTORS
330
16
102
}
330
16
100
AcDbVisualStyle
  2
Sketchy
 70
24
 90
1
 40
0.6
 62
7
290
0
291
0
  0
VISUALSTYLE
  5
70
102
{ACAD_REACTORS
330
16
102
}
330
16
100
AcDbVisualStyle
  2
Thicken
 70
13
 90
2
 40
0.6
 62
7
290
0
291
1
  0
VISUALSTYLE
  5
71
102
{ACAD_REACTORS
330
16
102
}
330
16
100
AcDbVisualStyle
  2
Wireframe
 70
5
 90
0
 40
0.6
 62
7
290
0
291
0
  0
VISUALSTYLE
  5
72
102
{ACAD_REACTORS
330
16
102
}
330
16
100
AcDbVisualStyle
  2
X-Ray
 70
25
 90
2
 40
0.5
 62
7
290
0
291
0
  0
DICTIONARYVAR
  5
B1
330
2D
100
DictionaryVariables
280
0
  1
1.3.0 @ 2026-01-06T17:07:25.355036+00:00
  0
ENDSEC
  0
EOF
