  0
SECTION
  2
HEADER
  9
$ACADVER
  1
AC1021
  9
$ACADMAINTVER
 70
25
  9
$DWGCODEPAGE
  3
ANSI_1252
  9
$LASTSAVEDBY
  1
ezdxf
  9
$INSBASE
 10
0.0
 20
0.0
 30
0.0
  9
$EXTMIN
 10
1e+20
 20
1e+20
 30
1e+20
  9
$EXTMAX
 10
-1e+20
 20
-1e+20
 30
-1e+20
  9
$LIMMIN
 10
0.0
 20
0.0
  9
$LIMMAX
 10
420.0
 20
297.0
  9
$ORTHOMODE
 70
0
  9
$REGENMODE
 70
1
  9
$FILLMODE
 70
1
  9
$QTEXTMODE
 70
0
  9
$MIRRTEXT
 70
1
  9
$LTSCALE
 40
1.0
  9
$ATTMODE
 70
1
  9
$TEXTSIZE
 40
2.5
  9
$TRACEWID
 40
1.0
  9
$TEXTSTYLE
  7
OpenSans
  9
$CLAYER
  8
0
  9
$CELTYPE
  6
ByLayer
  9
$CECOLOR
 62
256
  9
$CELTSCALE
 40
1.0
  9
$DISPSILH
 70
0
  9
$DIMSCALE
 40
1.0
  9
$DIMASZ
 40
0.175
  9
$DIMEXO
 40
0.125
  9
$DIMDLI
 40
3.75
  9
$DIMRND
 40
0.0
  9
$DIMDLE
 40
0.0
  9
$DIMEXE
 40
0.375
  9
$DIMTP
 40
0.0
  9
$DIMTM
 40
0.0
  9
$DIMTXT
 40
0.25
  9
$DIMCEN
 40
2.5
  9
$DIMTSZ
 40
0.0
  9
$DIMTOL
 70
0
  9
$DIMLIM
 70
0
  9
$DIMTIH
 70
0
  9
$DIMTOH
 70
0
  9
$DIMSE1
 70
0
  9
$DIMSE2
 70
0
  9
$DIMTAD
 70
1
  9
$DIMZIN
 70
12
  9
$DIMBLK
  1
ARCHTICK
  9
$DIMASO
 70
1
  9
$DIMSHO
 70
1
  9
$DIMPOST
  1

  9
$DIMAPOST
  1

  9
$DIMALT
 70
0
  9
$DIMALTD
 70
3
  9
$DIMALTF
 40
0.03937007874
  9
$DIMLFAC
 40
100.0
  9
$DIMTOFL
 70
1
  9
$DIMTVP
 40
0.0
  9
$DIMTIX
 70
0
  9
$DIMSOXD
 70
0
  9
$DIMSAH
 70
0
  9
$DIMBLK1
  1

  9
$DIMBLK2
  1

  9
$DIMSTYLE
  2
EZDXF
  9
$DIMCLRD
 70
0
  9
$DIMCLRE
 70
0
  9
$DIMCLRT
 70
0
  9
$DIMTFAC
 40
0.5
  9
$DIMGAP
 40
0.1
  9
$DIMJUST
 70
0
  9
$DIMSD1
 70
0
  9
$DIMSD2
 70
0
  9
$DIMTOLJ
 70
0
  9
$DIMTZIN
 70
8
  9
$DIMALTZ
 70
0
  9
$DIMALTTZ
 70
0
  9
$DIMUPT
 70
1
  9
$DIMDEC
 70
2
  9
$DIMTDEC
 70
2
  9
$DIMALTU
 70
2
  9
$DIMALTTD
 70
3
  9
$DIMTXSTY
  7
OpenSansCondensed-Light
  9
$DIMAUNIT
 70
0
  9
$DIMADEC
 70
2
  9
$DIMALTRND
 40
0.0
  9
$DIMAZIN
 70
3
  9
$DIMDSEP
 70
46
  9
$DIMATFIT
 70
3
  9
$DIMFRAC
 70
0
  9
$DIMLDRBLK
  1

  9
$DIMLUNIT
 70
2
  9
$DIMLWD
 70
-2
  9
$DIMLWE
 70
-2
  9
$DIMTMOVE
 70
2
  9
$DIMFXL
 40
1.0
  9
$DIMFXLON
 70
0
  9
$DIMJOGANG
 40
0.785398163397
  9
$DIMTFILL
 70
0
  9
$DIMTFILLCLR
 70
0
  9
$DIMARCSYM
 70
0
  9
$DIMLTYPE
  6

  9
$DIMLTEX1
  6

  9
$DIMLTEX2
  6

  9
$LUNITS
 70
2
  9
$LUPREC
 70
4
  9
$SKETCHINC
 40
1.0
  9
$FILLETRAD
 40
10.0
  9
$AUNITS
 70
0
  9
$AUPREC
 70
2
  9
$MENU
  1
.
  9
$ELEVATION
 40
0.0
  9
$PELEVATION
 40
0.0
  9
$THICKNESS
 40
0.0
  9
$LIMCHECK
 70
0
  9
$CHAMFERA
 40
0.0
  9
$CHAMFERB
 40
0.0
  9
$CHAMFERC
 40
0.0
  9
$CHAMFERD
 40
0.0
  9
$SKPOLY
 70
0
  9
$TDCREATE
 40
2461048.088287037
  9
$TDUCREATE
 40
2458532.153996898
  9
$TDUPDATE
 40
2461048.088287037
  9
$TDUUPDATE
 40
2458532.1544311
  9
$TDINDWG
 40
0.0
  9
$TDUSRTIMER
 40
0.0
  9
$USRTIMER
 70
1
  9
$ANGBASE
 50
0.0
  9
$ANGDIR
 70
0
  9
$PDMODE
 70
0
  9
$PDSIZE
 40
0.0
  9
$PLINEWID
 40
0.0
  9
$SPLFRAME
 70
0
  9
$SPLINETYPE
 70
6
  9
$SPLINESEGS
 70
8
  9
$HANDSEED
  5
AC
  9
$SURFTAB1
 70
6
  9
$SURFTAB2
 70
6
  9
$SURFTYPE
 70
6
  9
$SURFU
 70
6
  9
$SURFV
 70
6
  9
$UCSBASE
  2

  9
$UCSNAME
  2

  9
$UCSORG
 10
0.0
 20
0.0
 30
0.0
  9
$UCSXDIR
 10
1.0
 20
0.0
 30
0.0
  9
$UCSYDIR
 10
0.0
 20
1.0
 30
0.0
  9
$UCSORTHOREF
  2

  9
$UCSORTHOVIEW
 70
0
  9
$UCSORGTOP
 10
0.0
 20
0.0
 30
0.0
  9
$UCSORGBOTTOM
 10
0.0
 20
0.0
 30
0.0
  9
$UCSORGLEFT
 10
0.0
 20
0.0
 30
0.0
  9
$UCSORGRIGHT
 10
0.0
 20
0.0
 30
0.0
  9
$UCSORGFRONT
 10
0.0
 20
0.0
 30
0.0
  9
$UCSORGBACK
 10
0.0
 20
0.0
 30
0.0
  9
$PUCSBASE
  2

  9
$PUCSNAME
  2

  9
$PUCSORG
 10
0.0
 20
0.0
 30
0.0
  9
$PUCSXDIR
 10
1.0
 20
0.0
 30
0.0
  9
$PUCSYDIR
 10
0.0
 20
1.0
 30
0.0
  9
$PUCSORTHOREF
  2

  9
$PUCSORTHOVIEW
 70
0
  9
$PUCSORGTOP
 10
0.0
 20
0.0
 30
0.0
  9
$PUCSORGBOTTOM
 10
0.0
 20
0.0
 30
0.0
  9
$PUCSORGLEFT
 10
0.0
 20
0.0
 30
0.0
  9
$PUCSORGRIGHT
 10
0.0
 20
0.0
 30
0.0
  9
$PUCSORGFRONT
 10
0.0
 20
0.0
 30
0.0
  9
$PUCSORGBACK
 10
0.0
 20
0.0
 30
0.0
  9
$USERI1
 70
0
  9
$USERI2
 70
0
  9
$USERI3
 70
0
  9
$USERI4
 70
0
  9
$USERI5
 70
0
  9
$USERR1
 40
0.0
  9
$USERR2
 40
0.0
  9
$USERR3
 40
0.0
  9
$USERR4
 40
0.0
  9
$USERR5
 40
0.0
  9
$WORLDVIEW
 70
1
  9
$SHADEDGE
 70
3
  9
$SHADEDIF
 70
70
  9
$TILEMODE
 70
1
  9
$MAXACTVP
 70
64
  9
$PINSBASE
 10
0.0
 20
0.0
 30
0.0
  9
$PLIMCHECK
 70
0
  9
$PEXTMIN
 10
1e+20
 20
1e+20
 30
1e+20
  9
$PEXTMAX
 10
-1e+20
 20
-1e+20
 30
-1e+20
  9
$PLIMMIN
 10
0.0
 20
0.0
  9
$PLIMMAX
 10
420.0
 20
297.0
  9
$UNITMODE
 70
0
  9
$VISRETAIN
 70
1
  9
$PLINEGEN
 70
0
  9
$PSLTSCALE
 70
1
  9
$TREEDEPTH
 70
3020
  9
$CMLSTYLE
  2
Standard
  9
$CMLJUST
 70
0
  9
$CMLSCALE
 40
20.0
  9
$PROXYGRAPHICS
 70
1
  9
$MEASUREMENT
 70
1
  9
$CELWEIGHT
370
-1
  9
$ENDCAPS
280
0
  9
$JOINSTYLE
280
0
  9
$LWDISPLAY
290
0
  9
$INSUNITS
 70
6
  9
$HYPERLINKBASE
  1

  9
$STYLESHEET
  1

  9
$XEDIT
290
1
  9
$CEPSNTYPE
380
0
  9
$PSTYLEMODE
290
1
  9
$FINGERPRINTGUID
  2
{91EB7181-D9FD-4063-B822-1AC62301E62B}
  9
$VERSIONGUID
  2
{E12D6EF4-E935-4E9C-A495-B72D86D1D5E1}
  9
$EXTNAMES
290
1
  9
$PSVPSCALE
 40
0.0
  9
$OLESTARTUP
290
0
  9
$SORTENTS
280
127
  9
$INDEXCTL
280
0
  9
$HIDETEXT
280
1
  9
$XCLIPFRAME
290
1
  9
$HALOGAP
280
0
  9
$OBSCOLOR
 70
257
  9
$OBSLTYPE
280
0
  9
$INTERSECTIONDISPLAY
280
0
  9
$INTERSECTIONCOLOR
 70
257
  9
$DIMASSOC
280
2
  9
$PROJECTNAME
  1

  9
$CAMERADISPLAY
290
0
  9
$LENSLENGTH
 40
50.0
  9
$CAMERAHEIGHT
 40
0.0
  9
$STEPSPERSEC
 40
24.0
  9
$STEPSIZE
 40
100.0
  9
$3DDWFPREC
 40
2.0
  9
$PSOLWIDTH
 40
0.005
  9
$PSOLHEIGHT
 40
0.08
  9
$LOFTANG1
 40
1.570796326795
  9
$LOFTANG2
 40
1.570796326795
  9
$LOFTMAG1
 40
0.0
  9
$LOFTMAG2
 40
0.0
  9
$LOFTPARAM
 70
7
  9
$LOFTNORMALS
280
1
  9
$LATITUDE
 40
37.795
  9
$LONGITUDE
 40
-122.394
  9
$NORTHDIRECTION
 40
0.0
  9
$TIMEZONE
 70
-8000
  9
$LIGHTGLYPHDISPLAY
280
1
  9
$TILEMODELIGHTSYNCH
280
1
  9
$CMATERIAL
347
20
  9
$SOLIDHIST
280
0
  9
$SHOWHIST
280
1
  9
$DWFFRAME
280
2
  9
$DGNFRAME
280
2
  9
$REALWORLDSCALE
290
1
  9
$INTERFERECOLOR
 62
256
  9
$CSHADOW
280
0
  9
$SHADOWPLANELOCATION
 40
0.0
  0
ENDSEC
  0
SECTION
  2
CLASSES
  0
CLASS
  1
ACDBDICTIONARYWDFLT
  2
AcDbDictionaryWithDefault
  3
ObjectDBX Classes
 90
0
 91
0
280
0
281
0
  0
CLASS
  1
SUN
  2
AcDbSun
  3
SCENEOE
 90
1153
 91
0
280
0
281
0
  0
CLASS
  1
VISUALSTYLE
  2
AcDbVisualStyle
  3
ObjectDBX Classes
 90
4095
 91
0
280
0
281
0
  0
CLASS
  1
MATERIAL
  2
AcDbMaterial
  3
ObjectDBX Classes
 90
1153
 91
0
280
0
281
0
  0
CLASS
  1
SCALE
  2
AcDbScale
  3
ObjectDBX Classes
 90
1153
 91
0
280
0
281
0
  0
CLASS
  1
TABLESTYLE
  2
AcDbTableStyle
  3
ObjectDBX Classes
 90
4095
 91
0
280
0
281
0
  0
CLASS
  1
MLEADERSTYLE
  2
AcDbMLeaderStyle
  3
ACDB_MLEADERSTYLE_CLASS
 90
4095
 91
0
280
0
281
0
  0
CLASS
  1
DICTIONARYVAR
  2
AcDbDictionaryVar
  3
ObjectDBX Classes
 90
0
 91
0
280
0
281
0
  0
CLASS
  1
CELLSTYLEMAP
  2
AcDbCellStyleMap
  3
ObjectDBX Classes
 90
1152
 91
0
280
0
281
0
  0
CLASS
  1
MENTALRAYRENDERSETTINGS
  2
AcDbMentalRayRenderSettings
  3
SCENEOE
 90
1024
 91
0
280
0
281
0
  0
CLASS
  1
ACDBDETAILVIEWSTYLE
  2
AcDbDetailViewStyle
  3
ObjectDBX Classes
 90
1025
 91
0
280
0
281
0
  0
CLASS
  1
ACDBSECTIONVIEWSTYLE
  2
AcDbSectionViewStyle
  3
ObjectDBX Classes
 90
1025
 91
0
280
0
281
0
  0
CLASS
  1
RASTERVARIABLES
  2
AcDbRasterVariables
  3
ISM
 90
0
 91
0
280
0
281
0
  0
CLASS
  1
ACDBPLACEHOLDER
  2
AcDbPlaceHolder
  3
ObjectDBX Classes
 90
0
 91
0
280
0
281
0
  0
CLASS
  1
LAYOUT
  2
AcDbLayout
  3
ObjectDBX Classes
 90
0
 91
0
280
0
281
0
  0
ENDSEC
  0
SECTION
  2
TABLES
  0
TABLE
  2
VPORT
  5
8
330
0
100
AcDbSymbolTable
 70
1
  0
VPORT
  5
23
330
8
100
AcDbSymbolTableRecord
100
AcDbViewportTableRecord
  2
*Active
 70
0
 10
0.0
 20
0.0
 11
1.0
 21
1.0
 12
0.0
 22
0.0
 13
0.0
 23
0.0
 14
0.5
 24
0.5
 15
0.5
 25
0.5
 16
0.0
 26
0.0
 36
1.0
 17
0.0
 27
0.0
 37
0.0
 40
1000.0
 41
1.34
 42
50.0
 43
0.0
 44
0.0
 50
0.0
 51
0.0
 71
0
 72
1000
 73
1
 74
3
 75
0
 76
0
 77
0
 78
0
281
0
 65
0
146
0.0
  0
ENDTAB
  0
TABLE
  2
LTYPE
  5
2
330
0
100
AcDbSymbolTable
 70
21
  0
LTYPE
  5
24
330
2
100
AcDbSymbolTableRecord
100
AcDbLinetypeTableRecord
  2
ByBlock
 70
0
  3

 72
65
 73
0
 40
0.0
  0
LTYPE
  5
25
330
2
100
AcDbSymbolTableRecord
100
AcDbLinetypeTableRecord
  2
ByLayer
 70
0
  3

 72
65
 73
0
 40
0.0
  0
LTYPE
  5
26
330
2
100
AcDbSymbolTableRecord
100
AcDbLinetypeTableRecord
  2
Continuous
 70
0
  3

 72
65
 73
0
 40
0.0
  0
LTYPE
  5
2F
330
2
100
AcDbSymbolTableRecord
100
AcDbLinetypeTableRecord
  2
CENTER
 70
0
  3
Center ____ _ ____ _ ____ _ ____ _ ____ _ ____
 72
65
 73
4
 40
5.08
 49
3.175
 74
0
 49
-0.635
 74
0
 49
0.635
 74
0
 49
-0.635
 74
0
  0
LTYPE
  5
30
330
2
100
AcDbSymbolTableRecord
100
AcDbLinetypeTableRecord
  2
CENTERX2
 70
0
  3
Center (2x) ________  __  ________  __  ________
 72
65
 73
4
 40
8.89
 49
6.35
 74
0
 49
-0.635
 74
0
 49
1.27
 74
0
 49
-0.635
 74
0
  0
LTYPE
  5
31
330
2
100
AcDbSymbolTableRecord
100
AcDbLinetypeTableRecord
  2
CENTER2
 70
0
  3
Center (.5x) ____ _ ____ _ ____ _ ____ _ ____
 72
65
 73
4
 40
2.54
 49
1.587
 74
0
 49
-0.318
 74
0
 49
0.318
 74
0
 49
-0.318
 74
0
  0
LTYPE
  5
32
330
2
100
AcDbSymbolTableRecord
100
AcDbLinetypeTableRecord
  2
DASHED
 70
0
  3
Dashed __ __ __ __ __ __ __ __ __ __ __ __ __ _
 72
65
 73
2
 40
1.524
 49
1.27
 74
0
 49
-0.254
 74
0
  0
LTYPE
  5
33
330
2
100
AcDbSymbolTableRecord
100
AcDbLinetypeTableRecord
  2
DASHEDX2
 70
0
  3
Dashed (2x) ____  ____  ____  ____  ____  ____
 72
65
 73
2
 40
3.048
 49
2.54
 74
0
 49
-0.508
 74
0
  0
LTYPE
  5
34
330
2
100
AcDbSymbolTableRecord
100
AcDbLinetypeTableRecord
  2
DASHED2
 70
0
  3
Dashed (.5x) _ _ _ _ _ _ _ _ _ _ _ _ _ _
 72
65
 73
2
 40
0.762
 49
0.635
 74
0
 49
-0.127
 74
0
  0
LTYPE
  5
35
330
2
100
AcDbSymbolTableRecord
100
AcDbLinetypeTableRecord
  2
PHANTOM
 70
0
  3
Phantom ______  __  __  ______  __  __  ______
 72
65
 73
6
 40
6.35
 49
3.175
 74
0
 49
-0.635
 74
0
 49
0.635
 74
0
 49
-0.635
 74
0
 49
0.635
 74
0
 49
-0.635
 74
0
  0
LTYPE
  5
36
330
2
100
AcDbSymbolTableRecord
100
AcDbLinetypeTableRecord
  2
PHANTOMX2
 70
0
  3
Phantom (2x)____________    ____    ____    ____________
 72
65
 73
6
 40
10.795
 49
6.35
 74
0
 49
-0.635
 74
0
 49
1.27
 74
0
 49
-0.635
 74
0
 49
1.27
 74
0
 49
-0.635
 74
0
  0
LTYPE
  5
37
330
2
100
AcDbSymbolTableRecord
100
AcDbLinetypeTableRecord
  2
PHANTOM2
 70
0
  3
Phantom (.5x) ___ _ _ ___ _ _ ___ _ _ ___ _ _ ___
 72
65
 73
6
 40
3.175
 49
1.587
 74
0
 49
-0.318
 74
0
 49
0.318
 74
0
 49
-0.318
 74
0
 49
0.318
 74
0
 49
-0.318
 74
0
  0
LTYPE
  5
38
330
2
100
AcDbSymbolTableRecord
100
AcDbLinetypeTableRecord
  2
DASHDOT
 70
0
  3
Dash dot __ . __ . __ . __ . __ . __ . __ . __
 72
65
 73
4
 40
3.556
 49
2.54
 74
0
 49
-0.508
 74
0
 49
0.0
 74
0
 49
-0.508
 74
0
  0
LTYPE
  5
39
330
2
100
AcDbSymbolTableRecord
100
AcDbLinetypeTableRecord
  2
DASHDOTX2
 70
0
  3
Dash dot (2x) ____  .  ____  .  ____  .  ____
 72
65
 73
4
 40
6.096
 49
5.08
 74
0
 49
-0.508
 74
0
 49
0.0
 74
0
 49
-0.508
 74
0
  0
LTYPE
  5
3A
330
2
100
AcDbSymbolTableRecord
100
AcDbLinetypeTableRecord
  2
DASHDOT2
 70
0
  3
Dash dot (.5x) _ . _ . _ . _ . _ . _ . _ . _
 72
65
 73
4
 40
1.778
 49
1.27
 74
0
 49
-0.254
 74
0
 49
0.0
 74
0
 49
-0.254
 74
0
  0
LTYPE
  5
3B
330
2
100
AcDbSymbolTableRecord
100
AcDbLinetypeTableRecord
  2
DOT
 70
0
  3
Dot .  .  .  .  .  .  .  .  .  .  .  .  .  .  .  .
 72
65
 73
2
 40
0.508
 49
0.0
 74
0
 49
-0.508
 74
0
  0
LTYPE
  5
3C
330
2
100
AcDbSymbolTableRecord
100
AcDbLinetypeTableRecord
  2
DOTX2
 70
0
  3
Dot (2x) .    .    .    .    .    .    .    . 
 72
65
 73
2
 40
1.016
 49
0.0
 74
0
 49
-1.016
 74
0
  0
LTYPE
  5
3D
330
2
100
AcDbSymbolTableRecord
100
AcDbLinetypeTableRecord
  2
DOT2
 70
0
  3
Dot (.5) . . . . . . . . . . . . . . . . . . . 
 72
65
 73
2
 40
0.254
 49
0.0
 74
0
 49
-0.254
 74
0
  0
LTYPE
  5
3E
330
2
100
AcDbSymbolTableRecord
100
AcDbLinetypeTableRecord
  2
DIVIDE
 70
0
  3
Divide __ . . __ . . __ . . __ . . __ . . __
 72
65
 73
6
 40
4.064
 49
2.54
 74
0
 49
-0.508
 74
0
 49
0.0
 74
0
 49
-0.508
 74
0
 49
0.0
 74
0
 49
-0.508
 74
0
  0
LTYPE
  5
3F
330
2
100
AcDbSymbolTableRecord
100
AcDbLinetypeTableRecord
  2
DIVIDEX2
 70
0
  3
Divide (2x) ____  . .  ____  . .  ____  . .  ____
 72
65
 73
6
 40
6.604
 49
5.08
 74
0
 49
-0.508
 74
0
 49
0.0
 74
0
 49
-0.508
 74
0
 49
0.0
 74
0
 49
-0.508
 74
0
  0
LTYPE
  5
40
330
2
100
AcDbSymbolTableRecord
100
AcDbLinetypeTableRecord
  2
DIVIDE2
 70
0
  3
Divide(.5x) _ . _ . _ . _ . _ . _ . _ . _
 72
65
 73
6
 40
2.032
 49
1.27
 74
0
 49
-0.254
 74
0
 49
0.0
 74
0
 49
-0.254
 74
0
 49
0.0
 74
0
 49
-0.254
 74
0
  0
ENDTAB
  0
TABLE
  2
LAYER
  5
1
330
0
100
AcDbSymbolTable
 70
4
  0
LAYER
  5
27
330
1
100
AcDbSymbolTableRecord
100
AcDbLayerTableRecord
  2
0
 70
0
 62
7
  6
Continuous
370
-3
390
13
347
21
  0
LAYER
  5
28
330
1
100
AcDbSymbolTableRecord
100
AcDbLayerTableRecord
  2
Defpoints
 70
0
 62
7
  6
Continuous
290
0
370
-3
390
13
347
21
  0
LAYER
  5
8A
330
1
100
AcDbSymbolTableRecord
100
AcDbLayerTableRecord
  2
Layer
 70
0
 62
1
  6
Continuous
370
50
390
13
347
21
  0
LAYER
  5
8B
330
1
100
AcDbSymbolTableRecord
100
AcDbLayerTableRecord
  2
NumLabel
 70
0
 62
1
  6
Continuous
370
15
390
13
347
21
  0
ENDTAB
  0
TABLE
  2
STYLE
  5
5
330
0
100
AcDbSymbolTable
 70
26
  0
STYLE
  5
29
330
5
100
AcDbSymbolTableRecord
100
AcDbTextStyleTableRecord
  2
Standard
 70
0
 40
0.0
 41
1.0
 50
0.0
 71
0
 42
2.5
  3
txt
  4

  0
STYLE
  5
41
330
5
100
AcDbSymbolTableRecord
100
AcDbTextStyleTableRecord
  2
OpenSans-Light
 70
0
 40
0.0
 41
1.0
 50
0.0
 71
0
 42
2.5
  3
OpenSans-Light.ttf
  4

  0
STYLE
  5
42
330
5
100
AcDbSymbolTableRecord
100
AcDbTextStyleTableRecord
  2
OpenSans-Light-Italic
 70
0
 40
0.0
 41
1.0
 50
0.0
 71
0
 42
2.5
  3
OpenSans-LightItalic.ttf
  4

  0
STYLE
  5
43
330
5
100
AcDbSymbolTableRecord
100
AcDbTextStyleTableRecord
  2
OpenSans
 70
0
 40
0.0
 41
1.0
 50
0.0
 71
0
 42
2.5
  3
OpenSans-Regular.ttf
  4

  0
STYLE
  5
44
330
5
100
AcDbSymbolTableRecord
100
AcDbTextStyleTableRecord
  2
OpenSans-Italic
 70
0
 40
0.0
 41
1.0
 50
0.0
 71
0
 42
2.5
  3
OpenSans-Italic.ttf
  4

  0
STYLE
  5
45
330
5
100
AcDbSymbolTableRecord
100
AcDbTextStyleTableRecord
  2
OpenSans-SemiBold
 70
0
 40
0.0
 41
1.0
 50
0.0
 71
0
 42
2.5
  3
OpenSans-SemiBold.ttf
  4

  0
STYLE
  5
46
330
5
100
AcDbSymbolTableRecord
100
AcDbTextStyleTableRecord
  2
OpenSans-SemiBoldItalic
 70
0
 40
0.0
 41
1.0
 50
0.0
 71
0
 42
2.5
  3
OpenSans-SemiBoldItalic.ttf
  4

  0
STYLE
  5
47
330
5
100
AcDbSymbolTableRecord
100
AcDbTextStyleTableRecord
  2
OpenSans-Bold
 70
0
 40
0.0
 41
1.0
 50
0.0
 71
0
 42
2.5
  3
OpenSans-Bold.ttf
  4

  0
STYLE
  5
48
330
5
100
AcDbSymbolTableRecord
100
AcDbTextStyleTableRecord
  2
OpenSans-BoldItalic
 70
0
 40
0.0
 41
1.0
 50
0.0
 71
0
 42
2.5
  3
OpenSans-BoldItalic.ttf
  4

  0
STYLE
  5
49
330
5
100
AcDbSymbolTableRecord
100
AcDbTextStyleTableRecord
  2
OpenSans-ExtraBold
 70
0
 40
0.0
 41
1.0
 50
0.0
 71
0
 42
2.5
  3
OpenSans-ExtraBold.ttf
  4

  0
STYLE
  5
4A
330
5
100
AcDbSymbolTableRecord
100
AcDbTextStyleTableRecord
  2
OpenSans-ExtraBoldItalic
 70
0
 40
0.0
 41
1.0
 50
0.0
 71
0
 42
2.5
  3
OpenSans-ExtraBoldItalic.ttf
  4

  0
STYLE
  5
4B
330
5
100
AcDbSymbolTableRecord
100
AcDbTextStyleTableRecord
  2
OpenSansCondensed-Bold
 70
0
 40
0.0
 41
1.0
 50
0.0
 71
0
 42
2.5
  3
OpenSansCondensed-Bold.ttf
  4

  0
STYLE
  5
4C
330
5
100
AcDbSymbolTableRecord
100
AcDbTextStyleTableRecord
  2
OpenSansCondensed-Light
 70
0
 40
0.0
 41
1.0
 50
0.0
 71
0
 42
2.5
  3
OpenSansCondensed-Light.ttf
  4

  0
STYLE
  5
4D
330
5
100
AcDbSymbolTableRecord
100
AcDbTextStyleTableRecord
  2
OpenSansCondensed-Italic
 70
0
 40
0.0
 41
1.0
 50
0.0
 71
0
 42
2.5
  3
OpenSansCondensed-LightItalic.ttf
  4

  0
STYLE
  5
4E
330
5
100
AcDbSymbolTableRecord
100
AcDbTextStyleTableRecord
  2
LiberationSans
 70
0
 40
0.0
 41
1.0
 50
0.0
 71
0
 42
2.5
  3
LiberationSans-Regular.ttf
  4

  0
STYLE
  5
4F
330
5
100
AcDbSymbolTableRecord
100
AcDbTextStyleTableRecord
  2
LiberationSans-Bold
 70
0
 40
0.0
 41
1.0
 50
0.0
 71
0
 42
2.5
  3
LiberationSans-Bold.ttf
  4

  0
STYLE
  5
50
330
5
100
AcDbSymbolTableRecord
100
AcDbTextStyleTableRecord
  2
LiberationSans-BoldItalic
 70
0
 40
0.0
 41
1.0
 50
0.0
 71
0
 42
2.5
  3
LiberationSans-BoldItalic.ttf
  4

  0
STYLE
  5
51
330
5
100
AcDbSymbolTableRecord
100
AcDbTextStyleTableRecord
  2
LiberationSans-Italic
 70
0
 40
0.0
 41
1.0
 50
0.0
 71
0
 42
2.5
  3
LiberationSans-Italic.ttf
  4

  0
STYLE
  5
52
330
5
100
AcDbSymbolTableRecord
100
AcDbTextStyleTableRecord
  2
LiberationSerif
 70
0
 40
0.0
 41
1.0
 50
0.0
 71
0
 42
2.5
  3
LiberationSerif-Regular.ttf
  4

  0
STYLE
  5
53
330
5
100
AcDbSymbolTableRecord
100
AcDbTextStyleTableRecord
  2
LiberationSerif-Bold
 70
0
 40
0.0
 41
1.0
 50
0.0
 71
0
 42
2.5
  3
LiberationSerif-Bold.ttf
  4

  0
STYLE
  5
54
330
5
100
AcDbSymbolTableRecord
100
AcDbTextStyleTableRecord
  2
LiberationSerif-BoldItalic
 70
0
 40
0.0
 41
1.0
 50
0.0
 71
0
 42
2.5
  3
LiberationSerif-BoldItalic.ttf
  4

  0
STYLE
  5
55
330
5
100
AcDbSymbolTableRecord
100
AcDbTextStyleTableRecord
  2
LiberationSerif-Italic
 70
0
 40
0.0
 41
1.0
 50
0.0
 71
0
 42
2.5
  3
LiberationSerif-Italic.ttf
  4

  0
STYLE
  5
56
330
5
100
AcDbSymbolTableRecord
100
AcDbTextStyleTableRecord
  2
LiberationMono
 70
0
 40
0.0
 41
1.0
 50
0.0
 71
0
 42
2.5
  3
LiberationMono-Regular.ttf
  4

  0
STYLE
  5
57
330
5
100
AcDbSymbolTableRecord
100
AcDbTextStyleTableRecord
  2
LiberationMono-Bold
 70
0
 40
0.0
 41
1.0
 50
0.0
 71
0
 42
2.5
  3
LiberationMono-Bold.ttf
  4

  0
STYLE
  5
58
330
5
100
AcDbSymbolTableRecord
100
AcDbTextStyleTableRecord
  2
LiberationMono-BoldItalic
 70
0
 40
0.0
 41
1.0
 50
0.0
 71
0
 42
2.5
  3
LiberationMono-BoldItalic.ttf
  4

  0
STYLE
  5
59
330
5
100
AcDbSymbolTableRecord
100
AcDbTextStyleTableRecord
  2
LiberationMono-Italic
 70
0
 40
0.0
 41
1.0
 50
0.0
 71
0
 42
2.5
  3
LiberationMono-Italic.ttf
  4

  0
ENDTAB
  0
TABLE
  2
VIEW
  5
7
330
0
100
AcDbSymbolTable
 70
0
  0
ENDTAB
  0
TABLE
  2
UCS
  5
6
330
0
100
AcDbSymbolTable
 70
0
  0
ENDTAB
  0
TABLE
  2
APPID
  5
3
330
0
100
AcDbSymbolTable
 70
3
  0
APPID
  5
2A
330
3
100
AcDbSymbolTableRecord
100
AcDbRegAppTableRecord
  2
ACAD
 70
0
  0
APPID
  5
A9
330
3
100
AcDbSymbolTableRecord
100
AcDbRegAppTableRecord
  2
HATCHBACKGROUNDCOLOR
 70
0
  0
APPID
  5
AA
330
3
100
AcDbSymbolTableRecord
100
AcDbRegAppTableRecord
  2
EZDXF
 70
0
  0
ENDTAB
  0
TABLE
  2
DIMSTYLE
  5
4
330
0
100
AcDbSymbolTable
 70
12
100
AcDbDimStyleTable
  0
DIMSTYLE
105
2B
330
4
100
AcDbSymbolTableRecord
100
AcDbDimStyleTableRecord
  2
Standard
 70
0
 40
1.0
 41
2.5
 42
0.625
 43
3.75
 44
1.25
 45
0.0
 46
0.0
 47
0.0
 48
0.0
 49
2.5
140
2.5
141
2.5
142
0.0
143
0.03937007874
144
1.0
145
0.0
146
1.0
147
0.625
148
0.0
 69
0
 70
0
 71
0
 72
0
 73
0
 74
0
 75
0
 76
0
 77
1
 78
8
 79
3
170
0
171
3
172
1
173
0
174
0
175
0
176
0
177
0
178
0
179
2
271
2
272
2
273
2
274
3
275
0
276
0
277
2
278
44
279
0
280
0
281
0
282
0
283
0
284
8
285
0
286
0
288
0
289
3
290
0
371
-2
372
-2
  0
DIMSTYLE
105
73
330
4
100
AcDbSymbolTableRecord
100
AcDbDimStyleTableRecord
  2
EZDXF
 70
0
 40
1.0
 41
0.175
 42
0.125
 43
3.75
 44
0.375
 45
0.0
 46
0.0
 47
0.0
 48
0.0
 49
2.5
140
0.25
141
2.5
142
0.0
143
0.03937007874
144
100.0
145
0.0
146
0.5
147
0.1
148
0.0
 69
0
 70
0
 71
0
 72
0
 73
0
 74
0
 75
0
 76
0
 77
1
 78
12
 79
3
170
0
171
3
172
1
173
0
174
0
175
0
176
0
177
0
178
0
179
2
271
2
272
2
273
2
274
3
275
0
276
0
277
2
278
46
279
2
280
0
281
0
282
0
283
0
284
8
285
0
286
0
288
1
289
3
290
0
340
4C
342
74
371
-2
372
-2
  0
DIMSTYLE
105
7C
330
4
100
AcDbSymbolTableRecord
100
AcDbDimStyleTableRecord
  2
EZ_M_100_H25_CM
 70
0
 40
1.0
 41
0.25
 42
0.125
 43
3.75
 44
0.375
 45
0.0
 46
0.0
 47
0.0
 48
0.0
 49
2.5
140
0.25
141
2.5
142
0.125
143
0.03937007874
144
100.0
145
0.0
146
0.5
147
0.1
148
0.0
 69
0
 70
0
 71
0
 72
0
 73
0
 74
0
 75
0
 76
0
 77
1
 78
12
 79
3
170
0
171
3
172
1
173
0
174
0
175
0
176
0
177
0
178
0
179
2
271
2
272
2
273
2
274
3
275
0
276
0
277
2
278
46
279
2
280
0
281
0
282
0
283
0
284
8
285
0
286
0
288
1
289
3
290
0
340
4C
371
-2
372
-2
  0
DIMSTYLE
105
7D
330
4
100
AcDbSymbolTableRecord
100
AcDbDimStyleTableRecord
  2
EZ_M_50_H25_CM
 70
0
 40
1.0
 41
0.125
 42
0.0625
 43
3.75
 44
0.1875
 45
0.0
 46
0.0
 47
0.0
 48
0.0
 49
2.5
140
0.125
141
2.5
142
0.0625
143
0.03937007874
144
100.0
145
0.0
146
0.5
147
0.05
148
0.0
 69
0
 70
0
 71
0
 72
0
 73
0
 74
0
 75
0
 76
0
 77
1
 78
12
 79
3
170
0
171
3
172
1
173
0
174
0
175
0
176
0
177
0
178
0
179
2
271
2
272
2
273
2
274
3
275
0
276
0
277
2
278
46
279
2
280
0
281
0
282
0
283
0
284
8
285
0
286
0
288
1
289
3
290
0
340
4C
371
-2
372
-2
  0
DIMSTYLE
105
7E
330
4
100
AcDbSymbolTableRecord
100
AcDbDimStyleTableRecord
  2
EZ_M_25_H25_CM
 70
0
 40
1.0
 41
0.0625
 42
0.03125
 43
3.75
 44
0.09375
 45
0.0
 46
0.0
 47
0.0
 48
0.0
 49
2.5
140
0.0625
141
2.5
142
0.03125
143
0.03937007874
144
100.0
145
0.0
146
0.5
147
0.025
148
0.0
 69
0
 70
0
 71
0
 72
0
 73
0
 74
0
 75
0
 76
0
 77
1
 78
12
 79
3
170
0
171
3
172
1
173
0
174
0
175
0
176
0
177
0
178
0
179
2
271
2
272
2
273
2
274
3
275
0
276
0
277
2
278
46
279
2
280
0
281
0
282
0
283
0
284
8
285
0
286
0
288
1
289
3
290
0
340
4C
371
-2
372
-2
  0
DIMSTYLE
105
7F
330
4
100
AcDbSymbolTableRecord
100
AcDbDimStyleTableRecord
  2
EZ_M_20_H25_CM
 70
0
 40
1.0
 41
0.05
 42
0.025
 43
3.75
 44
0.07500000000000001
 45
0.0
 46
0.0
 47
0.0
 48
0.0
 49
2.5
140
0.05
141
2.5
142
0.025
143
0.03937007874
144
100.0
145
0.0
146
0.5
147
0.020000000000000004
148
0.0
 69
0
 70
0
 71
0
 72
0
 73
0
 74
0
 75
0
 76
0
 77
1
 78
12
 79
3
170
0
171
3
172
1
173
0
174
0
175
0
176
0
177
0
178
0
179
2
271
2
272
2
273
2
274
3
275
0
276
0
277
2
278
46
279
2
280
0
281
0
282
0
283
0
284
8
285
0
286
0
288
1
289
3
290
0
340
4C
371
-2
372
-2
  0
DIMSTYLE
105
80
330
4
100
AcDbSymbolTableRecord
100
AcDbDimStyleTableRecord
  2
EZ_M_10_H25_CM
 70
0
 40
1.0
 41
0.025
 42
0.0125
 43
3.75
 44
0.037500000000000006
 45
0.0
 46
0.0
 47
0.0
 48
0.0
 49
2.5
140
0.025
141
2.5
142
0.0125
143
0.03937007874
144
100.0
145
0.0
146
0.5
147
0.010000000000000002
148
0.0
 69
0
 70
0
 71
0
 72
0
 73
0
 74
0
 75
0
 76
0
 77
1
 78
12
 79
3
170
0
171
3
172
1
173
0
174
0
175
0
176
0
177
0
178
0
179
2
271
2
272
2
273
2
274
3
275
0
276
0
277
2
278
46
279
2
280
0
281
0
282
0
283
0
284
8
285
0
286
0
288
1
289
3
290
0
340
4C
371
-2
372
-2
  0
DIMSTYLE
105
81
330
4
100
AcDbSymbolTableRecord
100
AcDbDimStyleTableRecord
  2
EZ_M_5_H25_CM
 70
0
 40
1.0
 41
0.0125
 42
0.00625
 43
3.75
 44
0.018750000000000003
 45
0.0
 46
0.0
 47
0.0
 48
0.0
 49
2.5
140
0.0125
141
2.5
142
0.00625
143
0.03937007874
144
100.0
145
0.0
146
0.5
147
0.005000000000000001
148
0.0
 69
0
 70
0
 71
0
 72
0
 73
0
 74
0
 75
0
 76
0
 77
1
 78
12
 79
3
170
0
171
3
172
1
173
0
174
0
175
0
176
0
177
0
178
0
179
2
271
2
272
2
273
2
274
3
275
0
276
0
277
2
278
46
279
2
280
0
281
0
282
0
283
0
284
8
285
0
286
0
288
1
289
3
290
0
340
4C
371
-2
372
-2
  0
DIMSTYLE
105
82
330
4
100
AcDbSymbolTableRecord
100
AcDbDimStyleTableRecord
  2
EZ_M_1_H25_CM
 70
0
 40
1.0
 41
0.0025
 42
0.00125
 43
3.75
 44
0.00375
 45
0.0
 46
0.0
 47
0.0
 48
0.0
 49
2.5
140
0.0025
141
2.5
142
0.00125
143
0.03937007874
144
100.0
145
0.0
146
0.5
147
0.001
148
0.0
 69
0
 70
0
 71
0
 72
0
 73
0
 74
0
 75
0
 76
0
 77
1
 78
12
 79
3
170
0
171
3
172
1
173
0
174
0
175
0
176
0
177
0
178
0
179
2
271
2
272
2
273
2
274
3
275
0
276
0
277
2
278
46
279
2
280
0
281
0
282
0
283
0
284
8
285
0
286
0
288
1
289
3
290
0
340
4C
371
-2
372
-2
  0
DIMSTYLE
105
83
330
4
100
AcDbSymbolTableRecord
100
AcDbDimStyleTableRecord
  2
EZ_RADIUS
 70
0
 40
1.0
 41
0.25
 42
0.125
 43
3.75
 44
0.375
 45
0.0
 46
0.0
 47
0.0
 48
0.0
 49
2.5
140
0.25
141
0.0
142
0.0
143
0.03937007874
144
100.0
145
0.0
146
0.5
147
0.1
148
0.0
 69
0
 70
0
 71
0
 72
0
 73
0
 74
0
 75
0
 76
0
 77
1
 78
12
 79
3
170
0
171
3
172
0
173
0
174
0
175
0
176
0
177
0
178
0
179
2
271
2
272
2
273
2
274
3
275
0
276
0
277
2
278
46
279
1
280
0
281
0
282
0
283
0
284
8
285
0
286
0
288
1
289
3
290
0
340
4C
342
84
371
-2
372
-2
  0
DIMSTYLE
105
88
330
4
100
AcDbSymbolTableRecord
100
AcDbDimStyleTableRecord
  2
EZ_RADIUS_INSIDE
 70
0
 40
1.0
 41
0.25
 42
0.125
 43
3.75
 44
0.375
 45
0.0
 46
0.0
 47
0.0
 48
0.0
 49
2.5
140
0.25
141
0.0
142
0.0
143
0.03937007874
144
100.0
145
0.0
146
0.5
147
0.1
148
0.0
 69
0
 70
0
 71
0
 72
0
 73
0
 74
0
 75
0
 76
0
 77
0
 78
12
 79
3
170
0
171
3
172
0
173
0
174
1
175
0
176
0
177
0
178
0
179
2
271
2
272
2
273
2
274
3
275
0
276
0
277
2
278
46
279
0
280
0
281
0
282
0
283
0
284
8
285
0
286
0
288
1
289
0
290
0
340
4C
342
84
371
-2
372
-2
  0
DIMSTYLE
105
89
330
4
100
AcDbSymbolTableRecord
100
AcDbDimStyleTableRecord
  2
EZ_CURVED
 70
0
 40
1.0
 41
0.25
 42
0.125
 43
3.75
 44
0.375
 45
0.0
 46
0.0
 47
0.0
 48
0.0
 49
2.5
140
0.25
141
2.5
142
0.0
143
0.03937007874
144
100.0
145
0.0
146
0.5
147
0.1
148
0.0
 69
0
 70
0
 71
0
 72
0
 73
0
 74
0
 75
0
 76
0
 77
1
 78
12
 79
2
 90
2
170
0
171
3
172
1
173
0
174
0
175
0
176
0
177
0
178
0
179
2
271
2
272
2
273
2
274
3
275
0
276
0
277
2
278
46
279
2
280
0
281
0
282
0
283
0
284
8
285
0
286
0
288
1
289
3
290
0
340
4C
371
-2
372
-2
  0
ENDTAB
  0
TABLE
  2
BLOCK_RECORD
  5
9
330
0
100
AcDbSymbolTable
 70
5
  0
BLOCK_RECORD
  5
17
330
9
100
AcDbSymbolTableRecord
100
AcDbBlockTableRecord
  2
*Model_Space
340
1A
 70
0
280
1
281
0
  0
BLOCK_RECORD
  5
1B
330
9
100
AcDbSymbolTableRecord
100
AcDbBlockTableRecord
  2
*Paper_Space
340
1E
 70
0
280
1
281
0
  0
BLOCK_RECORD
  5
74
330
9
100
AcDbSymbolTableRecord
100
AcDbBlockTableRecord
  2
_ARCHTICK
340
0
 70
0
280
1
281
0
  0
BLOCK_RECORD
  5
78
330
9
100
AcDbSymbolTableRecord
100
AcDbBlockTableRecord
  2
_CLOSEDFILLED
340
0
 70
0
280
1
281
0
  0
BLOCK_RECORD
  5
84
330
9
100
AcDbSymbolTableRecord
100
AcDbBlockTableRecord
  2
_CLOSEDBLANK
340
0
 70
0
280
1
281
0
  0
ENDTAB
  0
ENDSEC
  0
SECTION
  2
BLOCKS
  0
BLOCK
  5
18
330
17
100
AcDbEntity
  8
0
100
AcDbBlockBegin
  2
*Model_Space
 70
0
 10
0.0
 20
0.0
 30
0.0
  3
*Model_Space
  1

  0
ENDBLK
  5
19
330
17
100
AcDbEntity
  8
0
100
AcDbBlockEnd
  0
BLOCK
  5
1C
330
1B
100
AcDbEntity
  8
0
100
AcDbBlockBegin
  2
*Paper_Space
 70
0
 10
0.0
 20
0.0
 30
0.0
  3
*Paper_Space
  1

  0
ENDBLK
  5
1D
330
1B
100
AcDbEntity
  8
0
100
AcDbBlockEnd
  0
BLOCK
  5
75
330
74
100
AcDbEntity
  8
0
100
AcDbBlockBegin
  2
_ARCHTICK
 70
0
 10
0.0
 20
0.0
 30
0.0
  3
_ARCHTICK
  1

  0
LWPOLYLINE
  5
77
330
74
100
AcDbEntity
  8
0
  6
BYBLOCK
 62
0
100
AcDbPolyline
 90
2
 70
0
 43
0.15
 10
-0.5
 20
-0.5
 10
0.5
 20
0.5
  0
ENDBLK
  5
76
330
74
100
AcDbEntity
  8
0
100
AcDbBlockEnd
  0
BLOCK
  5
79
330
78
100
AcDbEntity
  8
0
100
AcDbBlockBegin
  2
_CLOSEDFILLED
 70
0
 10
0.0
 20
0.0
 30
0.0
  3
_CLOSEDFILLED
  1

  0
SOLID
  5
7B
330
78
100
AcDbEntity
  8
0
  6
BYBLOCK
 62
0
100
AcDbTrace
 10
-1.0
 20
0.16439898372402537
 30
0.0
 11
0.0
 21
0.0
 31
0.0
 12
-1.0
 22
-0.16439898372402537
 32
0.0
 13
-1.0
 23
-0.16439898372402537
 33
0.0
  0
ENDBLK
  5
7A
330
78
100
AcDbEntity
  8
0
100
AcDbBlockEnd
  0
BLOCK
  5
85
330
84
100
AcDbEntity
  8
0
100
AcDbBlockBegin
  2
_CLOSEDBLANK
 70
0
 10
0.0
 20
0.0
 30
0.0
  3
_CLOSEDBLANK
  1

  0
LWPOLYLINE
  5
87
330
84
100
AcDbEntity
  8
0
  6
BYBLOCK
 62
0
100
AcDbPolyline
 90
3
 70
1
 10
-1.0
 20
0.16439898372402537
 10
0.0
 20
0.0
 10
-1.0
 20
-0.16439898372402537
  0
ENDBLK
  5
86
330
84
100
AcDbEntity
  8
0
100
AcDbBlockEnd
  0
ENDSEC
  0
SECTION
  2
ENTITIES
  0
LWPOLYLINE
  5
8C
330
17
100
AcDbEntity
  8
Layer
100
AcDbPolyline
 90
146
 70
1
 10
530.5825242880719
 20
260.61528933859086
 10
530.497615899192
 20
260.62843700730156
 10
519.4837018649142
 20
262.22680912097746
 10
508.4562002522157
 20
263.7178673957475
 10
497.41360510302604
 20
265.1071668894408
 10
486.3639317268945
 20
266.401665059181
 10
475.3187243971829
 20
267.6012884212087
 10
464.28474982252146
 20
268.7008299342247
 10
453.26392188581497
 20
269.69571406599397
 10
442.2563887891717
 20
270.5849180794191
 10
431.2622035352417
 20
271.37029091816316
 10
420.28412557383507
 20
272.0567695086223
 10
409.33211672199485
 20
272.6490529677054
 10
398.4196634111894
 20
273.14585750152776
 10
387.5529793857135
 20
273.5391163626065
 10
376.728801881254
 20
273.8235635015702
 10
365.94378302849873
 20
274.0029658080594
 10
355.2027316745948
 20
274.0858923413512
 10
344.5167724334262
 20
274.07858276966687
 10
333.90043118565194
 20
273.9824192053325
 10
323.36896485388655
 20
273.7919186372946
 10
312.9285919666383
 20
273.4953987594852
 10
302.57179205458795
 20
273.084209103764
 10
292.28790030217436
 20
272.56449785003184
 10
282.08205371660375
 20
271.9538613111507
 10
271.97773866097293
 20
271.26465725908815
 10
262.0010314184567
 20
270.49171656401927
 10
252.16478099483226
 20
269.61871242621964
 10
242.4644198133584
 20
268.63233727957885
 10
232.88704909655243
 20
267.5337111035788
 10
223.42866232190954
 20
266.341061800199
 10
214.10914488117285
 20
265.07892933445464
 10
204.9662646236463
 20
263.75731168097155
 10
196.0307135063801
 20
262.3622124499139
 10
187.30353601609914
 20
260.86971283273795
 10
178.76102073504643
 20
259.27407173642274
 10
170.38834209456436
 20
257.6015301503521
 10
162.20665227157468
 20
255.8899739601614
 10
154.2587898354453
 20
254.15356969854736
 10
146.56880169298023
 20
252.37509141339973
 10
139.12646640847106
 20
250.53380509006485
 10
131.90795324785228
 20
248.6293161005876
 10
124.89991309992013
 20
246.6785462738509
 10
118.1031460826378
 20
244.69966533882757
 10
111.5266979977053
 20
242.70360095236254
 10
105.17964117283447
 20
240.6926324706908
 10
99.06599850131653
 20
238.66136583967437
 10
93.18000409248276
 20
236.59988025527915
 10
87.50803668799176
 20
234.50190092438447
 10
82.03599182767499
 20
232.36949973846427
 10
76.75666507994629
 20
230.21210671143632
 10
71.67214236802823
 20
228.03929730660565
 10
66.78771037304381
 20
225.85409267812545
 10
62.10401100070152
 20
223.65318319520048
 10
57.61602441771521
 20
221.43453430073288
 10
53.320276830154
 20
219.20378467528792
 10
49.219990803328244
 20
216.96877543331394
 10
45.31881049246908
 20
214.73095591377015
 10
41.61398776683865
 20
212.48662665812122
 10
38.100263067070955
 20
210.23589872863374
 10
34.77818785600641
 20
207.98347895137962
 10
31.653633542302146
 20
205.73395033962794
 10
28.731685662819643
 20
203.48776350641774
 10
26.015172107927185
 20
201.2458530008828
 10
23.50500384549332
 20
199.00907167326366
 10
21.19469336714144
 20
196.77310338143272
 10
19.07037369811229
 20
194.53710377949974
 10
17.125403632114796
 20
192.31888515499128
 10
15.375809772136563
 20
190.15093056266767
 10
13.84825979261177
 20
188.04755341055412
 10
12.552562968922416
 20
185.98829005701174
 10
11.474933793245441
 20
183.9436217877109
 10
10.59659760048828
 20
181.91198377353135
 10
9.910042345834597
 20
179.9192780449999
 10
9.417329584429638
 20
177.97410555790088
 10
9.120708923137101
 20
176.0496431198421
 10
9.024788302568766
 20
174.2286608058889
 10
9.126436008969677
 20
172.45221653234674
 10
9.437709041769267
 20
170.7509784591669
 10
9.981515806902053
 20
169.10057870646358
 10
10.779379349434407
 20
167.4694831187173
 10
11.83148382226932
 20
165.84792789007435
 10
13.12120996510862
 20
164.2499169661701
 10
14.644186521291715
 20
162.69299858402462
 10
16.417619927981377
 20
161.18286765643455
 10
18.45925118535331
 20
159.71563186642138
 10
20.768201262145283
 20
158.28851638732863
 10
23.33609870320015
 20
156.90518767207894
 10
26.164810784643123
 20
155.56992778277507
 10
29.26423226021228
 20
154.2800852176075
 10
32.636695852471405
 20
153.027545203805
 10
36.275705996794045
 20
151.80635131254286
 10
40.17411079956378
 20
150.6156118455998
 10
44.32890250397804
 20
149.45687598801493
 10
48.73895901029215
 20
148.33126415747495
 10
53.40536022958116
 20
147.23964223626524
 10
58.33241014805435
 20
146.18122774854763
 10
63.52269545447291
 20
145.15256064846795
 10
68.97501645453747
 20
144.15227106505438
 10
74.69079119676906
 20
143.18378096046428
 10
80.680335446941
 20
142.25076708448398
 10
86.95564505048168
 20
141.35063567857458
 10
93.52305497300557
 20
140.47801012316665
 10
100.385960832585
 20
139.6315864624026
 10
107.55362055414616
 20
138.8135404340308
 10
115.03843727750234
 20
138.0233611867455
 10
122.8485473848877
 20
137.25697511912654
 10
130.9865139139485
 20
136.5126022114179
 10
139.45481456343856
 20
135.79297376398736
 10
148.2554471893946
 20
135.10036661488772
 10
157.38463467814964
 20
134.43475603245966
 10
166.83120617140253
 20
133.7975314980802
 10
176.5811717179556
 20
133.19240425855958
 10
186.62020252513787
 20
132.6211324110369
 10
196.92902702802365
 20
132.08227363380996
 10
207.48464902493384
 20
131.5762091157418
 10
213.3567688725863
 20
131.31942372146193
 10
213.31308103221946
 20
130.3203784909523
 10
218.22855605089322
 20
130.10542306194273
 10
229.2277839936825
 20
129.6669170123355
 10
240.42040811832828
 20
129.26047721747165
 10
251.79283491506777
 20
128.88865779823422
 10
263.3395077360625
 20
128.55177299950398
 10
275.0495685225591
 20
128.24454981595636
 10
286.89839516776976
 20
127.96303099023073
 10
298.86521693841615
 20
127.71191014304924
 10
310.9503822161425
 20
127.49672491223511
 10
323.16639121595074
 20
127.31434067927843
 10
335.517841040977
 20
127.15248362117154
 10
347.9907917715748
 20
126.9965539002713
 10
360.5586395081956
 20
126.83794218387544
 10
373.19543726056503
 20
126.68089906518667
 10
385.88633660323774
 20
126.54025501300532
 10
398.6425526395134
 20
126.42573841567955
 10
411.4811001189349
 20
126.32793523765139
 10
424.396861459617
 20
126.22779137937204
 10
437.36233855520544
 20
126.11876594035301
 10
450.3584756268153
 20
126.01233758602851
 10
463.3828524940106
 20
125.91856024526335
 10
476.43400055441475
 20
125.83279849531972
 10
489.49716095388374
 20
125.74822285379155
 10
502.55759321994304
 20
125.67152116753694
 10
515.6196058907509
 20
125.61316605003445
 10
528.6950195929588
 20
125.56689554816619
 10
530.5825242917296
 20
125.5589894913279
 10
530.5825242880719
 20
260.61528933859086
  0
LWPOLYLINE
  5
8D
330
17
100
AcDbEntity
  8
NumLabel
 62
1
100
AcDbPolyline
 90
6
 70
0
 10
301.52621359223303
 20
157.94174757281553
 10
306.52621359223303
 20
157.94174757281553
 10
306.52621359223303
 20
152.94174757281553
 10
301.52621359223303
 20
152.94174757281553
 10
301.52621359223303
 20
147.94174757281553
 10
306.52621359223303
 20
147.94174757281553
  0
LWPOLYLINE
  5
8E
330
17
100
AcDbEntity
  8
NumLabel
 62
1
100
AcDbPolyline
 90
4
 70
0
 10
311.02621359223303
 20
157.94174757281553
 10
309.02621359223303
 20
157.94174757281553
 10
309.02621359223303
 20
147.94174757281553
 10
311.02621359223303
 20
147.94174757281553
  0
LWPOLYLINE
  5
8F
330
17
100
AcDbEntity
  8
NumLabel
 62
1
100
AcDbPolyline
 90
4
 70
0
 10
312.02621359223303
 20
147.94174757281553
 10
314.02621359223303
 20
147.94174757281553
 10
314.02621359223303
 20
157.94174757281553
 10
312.02621359223303
 20
157.94174757281553
  0
LWPOLYLINE
  5
90
330
17
100
AcDbEntity
  8
Layer
100
AcDbPolyline
 90
5
 70
1
 10
297.9609679815187
 20
268.846059701409
 10
293.9660673442884
 20
268.64414660461614
 10
293.7641542474955
 20
272.63904724184647
 10
297.75905488472586
 20
272.8409603386393
 10
297.9609679815187
 20
268.846059701409
  0
LWPOLYLINE
  5
91
330
17
100
AcDbEntity
  8
Layer
100
AcDbPolyline
 90
5
 70
1
 10
119.9827188705811
 20
241.0899736009208
 10
116.15515748577201
 20
239.92817592252828
 10
114.99335980737948
 20
243.75573730733737
 10
118.82092119218856
 20
244.9175349857299
 10
119.9827188705811
 20
241.0899736009208
  0
LWPOLYLINE
  5
92
330
17
100
AcDbEntity
  8
Layer
100
AcDbPolyline
 90
5
 70
1
 10
30.04325827138328
 20
198.13862401352236
 10
28.550575503509464
 20
196.80749736496762
 10
25.222758882122633
 20
200.53920428465216
 10
26.71544164999645
 20
201.8703309332069
 10
30.04325827138328
 20
198.13862401352236
  0
LWPOLYLINE
  5
93
330
17
100
AcDbEntity
  8
Layer
100
AcDbPolyline
 90
5
 70
1
 10
19.91639296102636
 20
164.82695480028067
 10
21.54215318805533
 20
163.66209271221587
 10
18.629997967893303
 20
159.59769214464345
 10
17.004237740864333
 20
160.76255423270825
 10
19.91639296102636
 20
164.82695480028067
  0
LWPOLYLINE
  5
94
330
17
100
AcDbEntity
  8
Layer
100
AcDbPolyline
 90
5
 70
1
 10
159.68289165559034
 20
138.28882049706115
 10
163.67382268175336
 20
138.01961881725728
 10
163.4046210019495
 20
134.02868779109426
 10
159.41368997578647
 20
134.29788947089813
 10
159.68289165559034
 20
138.28882049706115
  0
LWPOLYLINE
  5
95
330
17
100
AcDbEntity
  8
Layer
100
AcDbPolyline
 90
300
 70
1
 10
463.98887141226277
 20
200.0
 10
463.9759894029436
 20
201.30191893223176
 10
463.93734906331866
 20
202.60326297371356
 10
463.87296745587423
 20
203.903457487551
 10
463.78287300971573
 20
205.2019283444488
 10
463.6671055080143
 20
206.4981021762299
 10
463.5257160704397
 20
207.79140662901904
 10
463.35876713058735
 20
209.08127061597784
 10
463.16633240840923
 20
210.36712456948084
 10
462.9484968776614
 20
211.6484006926204
 10
462.70535672838196
 20
212.92453320993
 10
462.43701932441604
 20
214.19495861721452
 10
462.1436031560074
 20
215.4591159303781
 10
461.8252377874758
 20
216.71644693313868
 10
461.4820638000058
 20
217.9663964235208
 10
461.1142327295695
 20
219.20841245901698
 10
460.72190700001266
 20
220.44194660031016
 10
460.30525985133306
 20
221.6664541534489
 10
459.8644752631825
 20
222.88139441036907
 10
459.3997478736265
 20
224.08623088765518
 10
458.9112828931977
 20
225.28043156343634
 10
458.39929601428054
 20
226.4634691123123
 10
457.8640133158678
 20
227.63482113820533
 10
457.3056711637302
 20
228.79397040503568
 10
456.72451610604423
 20
229.94040506511854
 10
456.12080476452314
 20
231.07361888518142
 10
455.4948037211002
 20
232.1931114699027
 10
454.8467894002135
 20
233.29838848287196
 10
454.17704794674484
 20
234.38896186487506
 10
453.48587509966603
 20
235.46435004940741
 10
452.7735760614491
 20
236.52407817532017
 10
452.0404653632972
 20
237.56767829650548
 10
451.2868667262568
 20
238.59468958852835
 10
450.5131129182713
 20
239.60465855211376
 10
449.7195456072403
 20
240.59713921339923
 10
448.9065152101485
 20
241.57169332086417
 10
448.0743807383315
 20
242.52789053884956
 10
447.2235096389465
 20
243.46530863758196
 10
446.35427763271804
 20
244.38353367961838
 10
445.4670685480301
 20
245.28216020262937
 10
444.56227415143866
 20
246.16079139843973
 10
443.6402939746781
 20
247.01903928824782
 10
442.7015351382398
 20
247.85652489394624
 10
441.74641217159876
 20
248.6728784054676
 10
440.7753468301692
 20
249.46773934408262
 10
439.78876790906935
 20
250.24075672157696
 10
438.7871110537773
 20
250.99158919523808
 10
437.7708185677628
 20
251.71990521858243
 10
436.7403392171776
 20
252.42538318775698
 10
435.69612803269393
 20
253.1077115835506
 10
434.638646108575
 20
253.76658910895205
 10
433.5683603990693
 20
254.40172482219424
 10
432.4857435122163
 20
255.012838265226
 10
431.39127350115626
 20
255.59965958755444
 10
430.28543365303557
 20
256.16192966540336
 10
429.16871227560046
 20
256.69940021613485
 10
428.0416024815742
 20
257.21183390788417
 10
426.9046019709125
 20
257.6990044643586
 10
425.7582128110328
 20
258.16069676475485
 10
424.6029412151161
 20
258.59670693875023
 10
423.4392973185769
 20
259.0068424565261
 10
422.26779495380197
 20
259.3909222137836
 10
421.0889514232565
 20
259.74877661171416
 10
419.9032872710577
 20
260.08024763188973
 10
418.71132605311743
 20
260.38518890603905
 10
417.51359410595444
 20
260.66346578067987
 10
416.31062031427905
 20
260.9149553765783
 10
415.10293587745264
 20
261.1395466430083
 10
413.8910740749247
 20
261.33714040678933
 10
412.675570030752
 20
261.5076494160777
 10
411.4569604773026
 20
261.6509983788949
 10
410.23578351825006
 20
261.7671239963744
 10
409.0125783909619
 20
261.85597499071264
 10
407.7878852283877
 20
261.91751212781173
 10
406.56224482055165
 20
261.9517082346043
 10
405.3361983757546
 20
261.9585482110523
 10
404.11028728159187
 20
261.93802903681456
 10
402.88505286589196
 20
261.89015977258083
 10
401.66103615768105
 20
261.81496155607067
 10
400.43877764827994
 20
261.7124675926995
 10
399.2188170526385
 20
261.5827231409163
 10
398.0016930710124
 20
261.4257854922185
 10
396.78794315108854
 20
261.2417239458538
 10
395.5781032506631
 20
261.03061977821943
 10
394.37270760097766
 20
260.7925662069731
 10
393.17228847081793
 20
260.5276683498704
 10
391.97737593147855
 20
260.23604317834776
 10
390.78849762269874
 20
259.91781946587145
 10
389.6061785196714
 20
259.5731377310744
 10
388.4309407012288
 20
259.20215017570763
 10
387.2633031193072
 20
258.8050206174318
 10
386.10378136979244
 20
258.3819244174802
 10
384.9528874648473
 20
257.9330484032241
 10
383.8111296068212
 20
257.458590785675
 10
382.67901196384247
 20
256.9587610719604
 10
381.55703444719177
 20
256.4337799728109
 10
380.44569249055553
 20
255.88387930510117
 10
379.34547683125624
 20
255.3093018894857
 10
378.25687329355674
 20
254.71030144317626
 10
377.18036257413377
 20
254.08714246790737
 10
376.1164200298161
 20
253.44010013313982
 10
375.06551546768003
 20
252.76946015455374
 10
374.0281129375961
 20
252.07551866788432
 10
373.00467052731744
 20
251.35858209815686
 10
371.9956401602014
 20
250.61896702437795
 10
371.00146739565275
 20
249.85700003974316
 10
370.0225912323771
 20
249.07301760742263
 10
369.0594439145318
 20
248.26736591198852
 10
368.11245074085866
 20
247.44040070654947
 10
367.18202987688414
 20
246.5924871556602
 10
366.2685921702695
 20
245.72399967407506
 10
365.3725409693916
 20
244.83532176141696
 10
364.4942719452359
 20
243.92684583283483
 10
363.63417291667906
 20
242.99897304572414
 10
362.79262367923945
 20
242.05211312258692
 10
361.9699958373697
 20
241.0866841701101
 10
361.16665264036686
 20
240.10311249454108
 10
360.38294882197175
 20
239.10183241344322
 10
359.6192304437283
 20
238.08328606391305
 10
358.87583474217286
 20
237.04792320734535
 10
358.1530899799198
 20
235.99620103083086
 10
357.45131530071
 20
234.9285839452756
 10
356.7708205884861
 20
233.84554338032987
 10
356.1119063305562
 20
232.7475575762183
 10
355.47486348490753
 20
231.63511137256248
 10
354.85997335172715
 20
230.50869599428927
 10
354.2675074491881
 20
229.3688088347198
 10
353.6977273935542
 20
228.21595323593465
 10
353.15088478365817
 20
227.050638266512
 10
352.6272210898023
 20
225.87337849673742
 10
352.126967547132
 20
224.68469377138402
 10
351.650345053529
 20
223.48510898016366
 10
351.1975640720691
 20
222.2751538259505
 10
350.7688245380873
 20
221.05536259087893
 10
350.36431577089235
 20
219.82627390041986
 10
349.98421639016846
 20
218.5884304855388
 10
349.62869423710185
 20
217.34237894304098
 10
349.2979063002671
 20
216.0886694942098
 10
348.99199864630486
 20
214.82785574184453
 10
348.7111063554236
 20
213.56049442580482
 10
348.45535346175154
 20
212.2871451771702
 10
348.2248528985668
 20
211.00837027112257
 10
348.01970644842913
 20
209.72473437866148
 10
347.8400046982359
 20
208.43680431726125
 10
347.6858269992211
 20
207.14514880058022
 10
347.55724143191634
 20
205.85033818733302
 10
347.4543047760884
 20
204.55294422943604
 10
347.37706248566667
 20
203.25353981953796
 10
347.32554866867207
 20
201.95269873804642
 10
347.2997860721561
 20
200.6509953997629
 10
347.2997860721561
 20
199.34900460023712
 10
347.32554866867207
 20
198.04730126195358
 10
347.37706248566667
 20
196.74646018046207
 10
347.4543047760884
 20
195.44705577056396
 10
347.55724143191634
 20
194.14966181266698
 10
347.6858269992211
 20
192.85485119941978
 10
347.8400046982359
 20
191.56319568273878
 10
348.01970644842913
 20
190.27526562133852
 10
348.2248528985668
 20
188.99162972887746
 10
348.45535346175154
 20
187.71285482282983
 10
348.7111063554236
 20
186.43950557419518
 10
348.99199864630486
 20
185.17214425815547
 10
349.2979063002671
 20
183.9113305057902
 10
349.62869423710185
 20
182.65762105695904
 10
349.98421639016846
 20
181.41156951446123
 10
350.36431577089235
 20
180.17372609958014
 10
350.7688245380873
 20
178.9446374091211
 10
351.1975640720691
 20
177.72484617404953
 10
351.650345053529
 20
176.51489101983634
 10
352.12696754713204
 20
175.31530622861598
 10
352.6272210898023
 20
174.12662150326258
 10
353.15088478365817
 20
172.949361733488
 10
353.6977273935542
 20
171.78404676406535
 10
354.2675074491881
 20
170.6311911652802
 10
354.85997335172715
 20
169.49130400571073
 10
355.47486348490753
 20
168.36488862743752
 10
356.1119063305562
 20
167.25244242378167
 10
356.7708205884861
 20
166.15445661967016
 10
357.45131530071
 20
165.0714160547244
 10
358.1530899799198
 20
164.00379896916914
 10
358.87583474217286
 20
162.95207679265468
 10
359.6192304437283
 20
161.91671393608695
 10
360.38294882197175
 20
160.89816758655678
 10
361.1666526403669
 20
159.8968875054589
 10
361.9699958373697
 20
158.9133158298899
 10
362.79262367923945
 20
157.94788687741308
 10
363.63417291667906
 20
157.0010269542759
 10
364.4942719452359
 20
156.07315416716517
 10
365.3725409693916
 20
155.16467823858304
 10
366.2685921702695
 20
154.27600032592494
 10
367.1820298768842
 20
153.4075128443398
 10
368.1124507408586
 20
152.55959929345053
 10
369.0594439145318
 20
151.73263408801148
 10
370.0225912323771
 20
150.92698239257737
 10
371.0014673956527
 20
150.14299996025687
 10
371.9956401602014
 20
149.38103297562208
 10
373.00467052731744
 20
148.64141790184314
 10
374.0281129375961
 20
147.92448133211568
 10
375.0655154676801
 20
147.23053984544626
 10
376.11642002981614
 20
146.55989986686015
 10
377.18036257413377
 20
145.91285753209263
 10
378.25687329355674
 20
145.28969855682374
 10
379.34547683125624
 20
144.6906981105143
 10
380.44569249055553
 20
144.11612069489883
 10
381.5570344471917
 20
143.56622002718913
 10
382.6790119638424
 20
143.04123892803963
 10
383.8111296068212
 20
142.54140921432497
 10
384.9528874648473
 20
142.06695159677588
 10
386.10378136979244
 20
141.6180755825198
 10
387.2633031193072
 20
141.1949793825682
 10
388.4309407012288
 20
140.79784982429237
 10
389.6061785196714
 20
140.4268622689256
 10
390.78849762269874
 20
140.08218053412858
 10
391.97737593147855
 20
139.76395682165222
 10
393.17228847081793
 20
139.4723316501296
 10
394.37270760097766
 20
139.20743379302687
 10
395.5781032506631
 20
138.96938022178057
 10
396.78794315108854
 20
138.75827605414622
 10
398.0016930710124
 20
138.5742145077815
 10
399.2188170526385
 20
138.41727685908367
 10
400.43877764827994
 20
138.2875324073005
 10
401.661036157681
 20
138.18503844392933
 10
402.88505286589196
 20
138.10984022741917
 10
404.11028728159187
 20
138.06197096318547
 10
405.3361983757546
 20
138.04145178894774
 10
406.56224482055165
 20
138.04829176539567
 10
407.7878852283877
 20
138.08248787218827
 10
409.0125783909619
 20
138.14402500928736
 10
410.23578351825006
 20
138.23287600362562
 10
411.4569604773026
 20
138.34900162110512
 10
412.675570030752
 20
138.49235058392233
 10
413.8910740749247
 20
138.66285959321067
 10
415.10293587745264
 20
138.86045335699168
 10
416.31062031427905
 20
139.08504462342174
 10
417.5135941059544
 20
139.3365342193201
 10
418.7113260531174
 20
139.61481109396095
 10
419.90328727105765
 20
139.91975236811027
 10
421.08895142325645
 20
140.25122338828584
 10
422.26779495380197
 20
140.6090777862164
 10
423.4392973185769
 20
140.99315754347387
 10
424.6029412151161
 20
141.40329306124974
 10
425.7582128110328
 20
141.83930323524513
 10
426.9046019709125
 20
142.3009955356414
 10
428.0416024815742
 20
142.78816609211586
 10
429.16871227560046
 20
143.30059978386518
 10
430.28543365303557
 20
143.83807033459667
 10
431.39127350115626
 20
144.40034041244556
 10
432.4857435122163
 20
144.98716173477402
 10
433.5683603990693
 20
145.59827517780576
 10
434.638646108575
 20
146.23341089104792
 10
435.69612803269393
 20
146.89228841644936
 10
436.7403392171776
 20
147.574616812243
 10
437.7708185677627
 20
148.28009478141757
 10
438.7871110537773
 20
149.0084108047619
 10
439.7887679090693
 20
149.75924327842304
 10
440.7753468301692
 20
150.53226065591738
 10
441.74641217159876
 20
151.32712159453237
 10
442.7015351382398
 20
152.14347510605376
 10
443.6402939746781
 20
152.98096071175218
 10
444.56227415143866
 20
153.83920860156027
 10
445.4670685480301
 20
154.71783979737063
 10
446.35427763271804
 20
155.61646632038162
 10
447.2235096389465
 20
156.53469136241804
 10
448.0743807383315
 20
157.47210946115047
 10
448.9065152101485
 20
158.4283066791358
 10
449.7195456072403
 20
159.40286078660074
 10
450.5131129182713
 20
160.3953414478862
 10
451.2868667262568
 20
161.40531041147165
 10
452.0404653632972
 20
162.43232170349452
 10
452.7735760614491
 20
163.4759218246798
 10
453.48587509966603
 20
164.53564995059256
 10
454.17704794674484
 20
165.61103813512494
 10
454.8467894002135
 20
166.70161151712804
 10
455.4948037211002
 20
167.8068885300973
 10
456.12080476452314
 20
168.92638111481858
 10
456.72451610604423
 20
170.0595949348815
 10
457.3056711637302
 20
171.20602959496432
 10
457.8640133158678
 20
172.36517886179467
 10
458.39929601428054
 20
173.53653088768772
 10
458.91128289319767
 20
174.71956843656363
 10
459.3997478736265
 20
175.91376911234482
 10
459.8644752631825
 20
177.1186055896309
 10
460.30525985133306
 20
178.3335458465511
 10
460.7219070000126
 20
179.55805339968984
 10
461.1142327295695
 20
180.791587540983
 10
461.4820638000058
 20
182.03360357647918
 10
461.8252377874758
 20
183.2835530668613
 10
462.1436031560074
 20
184.54088406962188
 10
462.43701932441604
 20
185.80504138278548
 10
462.70535672838196
 20
187.07546679007
 10
462.9484968776614
 20
188.3515993073796
 10
463.16633240840923
 20
189.6328754305192
 10
463.35876713058735
 20
190.91872938402219
 10
463.5257160704397
 20
192.208593370981
 10
463.6671055080143
 20
193.50189782377007
 10
463.78287300971573
 20
194.79807165555118
 10
463.87296745587423
 20
196.09654251244896
 10
463.93734906331866
 20
197.39673702628642
 10
463.9759894029436
 20
198.69808106776821
 10
463.98887141226277
 20
199.99999999999997
  0
LWPOLYLINE
  5
96
330
17
100
AcDbEntity
  8
Layer
100
AcDbPolyline
 90
5
 70
1
 10
178.9936389902946
 20
205.00000000000003
 10
183.9936389902946
 20
200.00000000000003
 10
178.9936389902946
 20
195.00000000000003
 10
173.9936389902946
 20
200.00000000000003
 10
178.9936389902946
 20
205.00000000000003
  0
LWPOLYLINE
  5
97
330
17
100
AcDbEntity
  8
Layer
100
AcDbPolyline
 90
5
 70
1
 10
400.8085273294056
 20
205.0
 10
405.8085273294056
 20
200.0
 10
400.8085273294056
 20
195.0
 10
395.8085273294056
 20
200.0
 10
400.8085273294056
 20
205.0
  0
LWPOLYLINE
  5
98
330
17
100
AcDbEntity
  8
Layer
100
AcDbPolyline
 90
5
 70
1
 10
220.7275004177247
 20
167.44843108991134
 10
225.3936427840743
 20
162.1355114201857
 10
220.08072311434867
 20
157.46936905383612
 10
215.41458074799908
 20
162.78228872356175
 10
220.7275004177247
 20
167.44843108991134
  0
LWPOLYLINE
  5
99
330
17
100
AcDbEntity
  8
Layer
100
AcDbPolyline
 90
5
 70
1
 10
476.70406822631725
 20
150.85771007262673
 10
481.3702105926668
 20
145.5447904029011
 10
476.05729092294115
 20
140.8786480365515
 10
471.3911485565916
 20
146.19156770627714
 10
476.70406822631725
 20
150.85771007262673
  0
LWPOLYLINE
  5
9A
330
17
100
AcDbEntity
  8
Layer
100
AcDbPolyline
 90
5
 70
1
 10
250.64271844660198
 20
180.12920438799344
 10
255.64271844660198
 20
185.12920438799344
 10
260.642718446602
 20
180.12920438799344
 10
255.64271844660198
 20
175.12920438799344
 10
250.64271844660198
 20
180.12920438799344
  0
LWPOLYLINE
  5
9B
330
17
100
AcDbEntity
  8
Layer
100
AcDbPolyline
 90
5
 70
1
 10
250.64271844660198
 20
218.57452194436246
 10
255.64271844660198
 20
223.57452194436246
 10
260.642718446602
 20
218.57452194436246
 10
255.64271844660198
 20
213.57452194436246
 10
250.64271844660198
 20
218.57452194436246
  0
LINE
  5
9C
330
17
100
AcDbEntity
  8
Layer
 62
7
100
AcDbLine
 10
24.617046764220618
 20
200.00000000000006
 30
0.0
 11
530.5825242718447
 21
199.99999999999997
 31
0.0
  0
LINE
  5
9D
330
17
100
AcDbEntity
  8
Layer
 62
7
100
AcDbLine
 10
172.9936389902946
 20
200.00000000000003
 30
0.0
 11
184.9936389902946
 21
200.00000000000003
 31
0.0
  0
LINE
  5
9E
330
17
100
AcDbEntity
  8
Layer
 62
7
100
AcDbLine
 10
394.8085273294056
 20
200.0
 30
0.0
 11
406.8085273294056
 21
200.0
 31
0.0
  0
LINE
  5
9F
330
17
100
AcDbEntity
  8
Layer
 62
7
100
AcDbLine
 10
9.136467195713806
 20
176.15188213289588
 30
0.0
 11
530.5825242718447
 21
142.35517123636524
 31
0.0
  0
LINE
  5
A0
330
17
100
AcDbEntity
  8
Layer
 62
7
100
AcDbLine
 10
214.41667454439155
 20
162.84696645389937
 30
0.0
 11
226.39154898768183
 21
162.0708336898481
 31
0.0
  0
LINE
  5
A1
330
17
100
AcDbEntity
  8
Layer
 62
7
100
AcDbLine
 10
470.3932423529841
 20
146.25624543661473
 30
0.0
 11
482.3681167962743
 21
145.48011267256348
 31
0.0
  0
LINE
  5
A2
330
17
100
AcDbEntity
  8
Layer
100
AcDbLine
 10
405.642718446602
 20
261.95940322580645
 30
0.0
 11
405.642718446602
 21
262.95940322580645
 31
0.0
  0
LINE
  5
A3
330
17
100
AcDbEntity
  8
Layer
100
AcDbLine
 10
405.642718446602
 20
138.04059677419355
 30
0.0
 11
405.642718446602
 21
137.04059677419355
 31
0.0
  0
LINE
  5
A4
330
17
100
AcDbEntity
  8
Layer
100
AcDbLine
 10
463.98887141226277
 20
200.0
 30
0.0
 11
464.98887141226277
 21
200.0
 31
0.0
  0
LINE
  5
A5
330
17
100
AcDbEntity
  8
Layer
100
AcDbLine
 10
347.2965654809412
 20
200.0
 30
0.0
 11
346.2965654809412
 21
200.0
 31
0.0
  0
LINE
  5
A6
330
17
100
AcDbEntity
  8
Layer
 62
7
100
AcDbLine
 10
255.64271844660198
 20
128.77633390556295
 30
0.0
 11
255.64271844660198
 21
269.92739242679295
 31
0.0
  0
LINE
  5
A7
330
17
100
AcDbEntity
  8
Layer
 62
7
100
AcDbLine
 10
255.64271844660198
 20
174.12920438799344
 30
0.0
 11
255.64271844660198
 21
186.12920438799344
 31
0.0
  0
LINE
  5
A8
330
17
100
AcDbEntity
  8
Layer
 62
7
100
AcDbLine
 10
255.64271844660198
 20
212.57452194436246
 30
0.0
 11
255.64271844660198
 21
224.57452194436246
 31
0.0
  0
ENDSEC
  0
SECTION
  2
OBJECTS
  0
DICTIONARY
  5
A
330
0
100
AcDbDictionary
280
0
281
1
  3
ACAD_COLOR
350
B
  3
ACAD_GROUP
350
C
  3
ACAD_LAYOUT
350
D
  3
ACAD_MATERIAL
350
E
  3
ACAD_MLEADERSTYLE
350
F
  3
ACAD_MLINESTYLE
350
10
  3
ACAD_PLOTSETTINGS
350
11
  3
ACAD_PLOTSTYLENAME
350
12
  3
ACAD_SCALELIST
350
14
  3
ACAD_TABLESTYLE
350
15
  3
ACAD_VISUALSTYLE
350
16
  3
EZDXF_META
350
2D
  0
DICTIONARY
  5
B
330
A
100
AcDbDictionary
280
0
281
1
  0
DICTIONARY
  5
C
330
A
100
AcDbDictionary
280
0
281
1
  0
DICTIONARY
  5
D
330
A
100
AcDbDictionary
280
0
281
1
  3
Model
350
1A
  3
Layout1
350
1E
  0
DICTIONARY
  5
E
330
A
100
AcDbDictionary
280
0
281
1
  3
ByBlock
350
1F
  3
ByLayer
350
20
  3
Global
350
21
  0
DICTIONARY
  5
F
330
A
100
AcDbDictionary
280
0
281
1
  3
Standard
350
2C
  0
DICTIONARY
  5
10
330
A
100
AcDbDictionary
280
0
281
1
  3
Standard
350
22
  0
DICTIONARY
  5
11
330
A
100
AcDbDictionary
280
0
281
1
  0
ACDBDICTIONARYWDFLT
  5
12
330
A
100
AcDbDictionary
280
0
281
1
  3
Normal
350
13
100
AcDbDictionaryWithDefault
340
13
  0
ACDBPLACEHOLDER
  5
13
330
12
  0
DICTIONARY
  5
14
330
A
100
AcDbDictionary
280
0
281
1
  0
DICTIONARY
  5
15
330
A
100
AcDbDictionary
280
0
281
1
  0
DICTIONARY
  5
16
330
A
100
AcDbDictionary
280
0
281
1
  3
2dWireframe
350
5A
  3
Basic
350
5B
  3
Brighten
350
5C
  3
ColorChange
350
5D
  3
Conceptual
350
5E
  3
Dim
350
5F
  3
EdgeColorOff
350
60
  3
Facepattern
350
61
  3
Flat
350
62
  3
FlatWithEdges
350
63
  3
Gouraud
350
64
  3
GouraudWithEdges
350
65
  3
Hidden
350
66
  3
JitterOff
350
67
  3
Linepattern
350
68
  3
Modeling
350
69
  3
OverhangOff
350
6A
  3
Realistic
350
6B
  3
Shaded
350
6C
  3
Shaded with edges
350
6D
  3
Shades of Gray
350
6E
  3
Sketchy
350
6F
  3
Thicken
350
70
  3
Wireframe
350
71
  3
X-Ray
350
72
  0
LAYOUT
  5
1A
330
D
100
AcDbPlotSettings
  1

  2
Adobe PDF
  4
A3
  6

 40
7.5
 41
20.0
 42
7.5
 43
20.0
 44
420.0
 45
297.0
 46
0.0
 47
0.0
 48
0.0
 49
0.0
140
0.0
141
0.0
142
1.0
143
1.0
 70
1024
 72
1
 73
0
 74
5
  7

 75
16
 76
0
 77
2
 78
300
147
1.0
148
0.0
149
0.0
100
AcDbLayout
  1
Model
 70
1
 71
0
 10
0.0
 20
0.0
 11
420.0
 21
297.0
 12
0.0
 22
0.0
 32
0.0
 14
1e+20
 24
1e+20
 34
1e+20
 15
-1e+20
 25
-1e+20
 35
-1e+20
146
0.0
 13
0.0
 23
0.0
 33
0.0
 16
1.0
 26
0.0
 36
0.0
 17
0.0
 27
1.0
 37
0.0
 76
1
330
17
  0
LAYOUT
  5
1E
330
D
100
AcDbPlotSettings
  1

  2
Adobe PDF
  4
A3
  6

 40
7.5
 41
20.0
 42
7.5
 43
20.0
 44
420.0
 45
297.0
 46
0.0
 47
0.0
 48
0.0
 49
0.0
140
0.0
141
0.0
142
1.0
143
1.0
 70
0
 72
1
 73
0
 74
5
  7

 75
16
 76
0
 77
2
 78
300
147
1.0
148
0.0
149
0.0
100
AcDbLayout
  1
Layout1
 70
1
 71
1
 10
0.0
 20
0.0
 11
420.0
 21
297.0
 12
0.0
 22
0.0
 32
0.0
 14
1e+20
 24
1e+20
 34
1e+20
 15
-1e+20
 25
-1e+20
 35
-1e+20
146
0.0
 13
0.0
 23
0.0
 33
0.0
 16
1.0
 26
0.0
 36
0.0
 17
0.0
 27
1.0
 37
0.0
 76
1
330
1B
  0
MATERIAL
  5
1F
102
{ACAD_REACTORS
330
E
102
}
330
E
100
AcDbMaterial
  1
ByBlock
  2

 70
0
 40
1.0
 71
1
 41
1.0
 91
-1023410177
 42
1.0
 72
1
  3

 73
1
 74
1
 75
1
 44
0.5
 73
0
 45
1.0
 46
1.0
 77
1
  4

 78
1
 79
1
170
1
 48
1.0
171
1
  6

172
1
173
1
174
1
140
1.0
141
1.0
175
1
  7

176
1
177
1
178
1
143
1.0
179
1
  8

270
1
271
1
272
1
145
1.0
146
1.0
273
1
  9

274
1
275
1
276
1
 42
1.0
 72
1
  3

 73
1
 74
1
 75
1
 94
63
  0
MATERIAL
  5
20
102
{ACAD_REACTORS
330
E
102
}
330
E
100
AcDbMaterial
  1
ByLayer
  2

 70
0
 40
1.0
 71
1
 41
1.0
 91
-1023410177
 42
1.0
 72
1
  3

 73
1
 74
1
 75
1
 44
0.5
 73
0
 45
1.0
 46
1.0
 77
1
  4

 78
1
 79
1
170
1
 48
1.0
171
1
  6

172
1
173
1
174
1
140
1.0
141
1.0
175
1
  7

176
1
177
1
178
1
143
1.0
179
1
  8

270
1
271
1
272
1
145
1.0
146
1.0
273
1
  9

274
1
275
1
276
1
 42
1.0
 72
1
  3

 73
1
 74
1
 75
1
 94
63
  0
MATERIAL
  5
21
102
{ACAD_REACTORS
330
E
102
}
330
E
100
AcDbMaterial
  1
Global
  2

 70
0
 40
1.0
 71
1
 41
1.0
 91
-1023410177
 42
1.0
 72
1
  3

 73
1
 74
1
 75
1
 44
0.5
 73
0
 45
1.0
 46
1.0
 77
1
  4

 78
1
 79
1
170
1
 48
1.0
171
1
  6

172
1
173
1
174
1
140
1.0
141
1.0
175
1
  7

176
1
177
1
178
1
143
1.0
179
1
  8

270
1
271
1
272
1
145
1.0
146
1.0
273
1
  9

274
1
275
1
276
1
 42
1.0
 72
1
  3

 73
1
 74
1
 75
1
 94
63
  0
MLINESTYLE
  5
22
102
{ACAD_REACTORS
330
10
102
}
330
10
100
AcDbMlineStyle
  2
Standard
 70
0
  3

 62
256
 51
90.0
 52
90.0
 71
2
 49
0.5
 62
256
  6
BYLAYER
 49
-0.5
 62
256
  6
BYLAYER
  0
MLEADERSTYLE
  5
2C
102
{ACAD_REACTORS
330
F
102
}
330
F
100
AcDbMLeaderStyle
179
2
170
2
171
1
172
0
 90
2
 40
0.0
 41
0.0
173
1
 91
-1056964608
 92
-2
290
1
 42
2.0
291
1
 43
8.0
  3
Standard
 44
4.0
300

342
29
174
1
175
1
176
0
178
1
 93
-1056964608
 45
4.0
292
0
297
0
 46
4.0
 94
-1056964608
 47
1.0
 49
1.0
140
1.0
294
1
141
0.0
177
0
142
1.0
295
0
296
0
143
3.75
271
0
272
9
273
9
  0
DICTIONARY
  5
2D
330
A
100
AcDbDictionary
281
1
  3
CREATED_BY_EZDXF
350
2E
  3
WRITTEN_BY_EZDXF
350
AB
  0
DICTIONARYVAR
  5
2E
330
2D
100
DictionaryVariables
280
0
  1
1.3.0 @ 2026-01-06T17:07:08.974702+00:00
  0
VISUALSTYLE
  5
5A
102
{ACAD_REACTORS
330
16
102
}
330
16
100
AcDbVisualStyle
  2
2dWireframe
 70
4
 90
0
 40
0.6
 62
7
290
0
291
0
  0
VISUALSTYLE
  5
5B
102
{ACAD_REACTORS
330
16
102
}
330
16
100
AcDbVisualStyle
  2
Basic
 70
7
 90
1
 40
0.6
 62
7
290
0
291
1
  0
VISUALSTYLE
  5
5C
102
{ACAD_REACTORS
330
16
102
}
330
16
100
AcDbVisualStyle
  2
Brighten
 70
12
 90
2
 40
0.6
 62
7
290
0
291
1
  0
VISUALSTYLE
  5
5D
102
{ACAD_REACTORS
330
16
102
}
330
16
100
AcDbVisualStyle
  2
ColorChange
 70
16
 90
2
 40
0.6
 62
8
290
0
291
1
  0
VISUALSTYLE
  5
5E
102
{ACAD_REACTORS
330
16
102
}
330
16
100
AcDbVisualStyle
  2
Conceptual
 70
9
 90
3
 40
0.6
 62
7
290
0
291
0
  0
VISUALSTYLE
  5
5F
102
{ACAD_REACTORS
330
16
102
}
330
16
100
AcDbVisualStyle
  2
Dim
 70
11
 90
2
 40
0.6
 62
7
290
0
291
1
  0
VISUALSTYLE
  5
60
102
{ACAD_REACTORS
330
16
102
}
330
16
100
AcDbVisualStyle
  2
EdgeColorOff
 70
22
 90
2
 40
0.6
 62
7
290
0
291
1
  0
VISUALSTYLE
  5
61
102
{ACAD_REACTORS
330
16
102
}
330
16
100
AcDbVisualStyle
  2
Facepattern
 70
15
 90
2
 40
0.6
 62
7
290
0
291
1
  0
VISUALSTYLE
  5
62
102
{ACAD_REACTORS
330
16
102
}
330
16
100
AcDbVisualStyle
  2
Flat
 70
0
 90
2
 40
0.6
 62
7
290
0
291
1
  0
VISUALSTYLE
  5
63
102
{ACAD_REACTORS
330
16
102
}
330
16
100
AcDbVisualStyle
  2
FlatWithEdges
 70
1
 90
2
 40
0.6
 62
7
290
0
291
1
  0
VISUALSTYLE
  5
64
102
{ACAD_REACTORS
330
16
102
}
330
16
100
AcDbVisualStyle
  2
Gouraud
 70
2
 90
2
 40
0.6
 62
7
290
0
291
1
  0
VISUALSTYLE
  5
65
102
{ACAD_REACTORS
330
16
102
}
330
16
100
AcDbVisualStyle
  2
GouraudWithEdges
 70
3
 90
2
 40
0.6
 62
7
290
0
291
1
  0
VISUALSTYLE
  5
66
102
{ACAD_REACTORS
330
16
102
}
330
16
100
AcDbVisualStyle
  2
Hidden
 70
6
 90
1
 40
0.6
 62
7
290
0
291
0
  0
VISUALSTYLE
  5
67
102
{ACAD_REACTORS
330
16
102
}
330
16
100
AcDbVisualStyle
  2
JitterOff
 70
20
 90
2
 40
0.6
 62
7
290
0
291
1
  0
VISUALSTYLE
  5
68
102
{ACAD_REACTORS
330
16
102
}
330
16
100
AcDbVisualStyle
  2
Linepattern
 70
14
 90
2
 40
0.6
 62
7
290
0
291
1
  0
VISUALSTYLE
  5
69
102
{ACAD_REACTORS
330
16
102
}
330
16
100
AcDbVisualStyle
  2
Modeling
 70
10
 90
2
 40
0.6
 62
7
290
0
291
0
  0
VISUALSTYLE
  5
6A
102
{ACAD_REACTORS
330
16
102
}
330
16
100
AcDbVisualStyle
  2
OverhangOff
 70
21
 90
2
 40
0.6
 62
7
290
0
291
1
  0
VISUALSTYLE
  5
6B
102
{ACAD_REACTORS
330
16
102
}
330
16
100
AcDbVisualStyle
  2
Realistic
 70
8
 90
2
 40
0.6
 62
7
290
0
291
0
  0
VISUALSTYLE
  5
6C
102
{ACAD_REACTORS
330
16
102
}
330
16
100
AcDbVisualStyle
  2
Shaded
 70
27
 90
2
 40
0.6
 62
7
290
0
291
0
  0
VISUALSTYLE
  5
6D
102
{ACAD_REACTORS
330
16
102
}
330
16
100
AcDbVisualStyle
  2
Shaded with edges
 70
26
 90
2
 40
0.6
 62
7
290
0
291
0
  0
VISUALSTYLE
  5
6E
102
{ACAD_REACTORS
330
16
102
}
330
16
100
AcDbVisualStyle
  2
Shades of Gray
 70
23
 90
2
 40
0.6
 62
7
290
0
291
0
  0
VISUALSTYLE
  5
6F
102
{ACAD_REACTORS
330
16
102
}
330
16
100
AcDbVisualStyle
  2
Sketchy
 70
24
 90
1
 40
0.6
 62
7
290
0
291
0
  0
VISUALSTYLE
  5
70
102
{ACAD_REACTORS
330
16
102
}
330
16
100
AcDbVisualStyle
  2
Thicken
 70
13
 90
2
 40
0.6
 62
7
290
0
291
1
  0
VISUALSTYLE
  5
71
102
{ACAD_REACTORS
330
16
102
}
330
16
100
AcDbVisualStyle
  2
Wireframe
 70
5
 90
0
 40
0.6
 62
7
290
0
291
0
  0
VISUALSTYLE
  5
72
102
{ACAD_REACTORS
330
16
102
}
330
16
100
AcDbVisualStyle
  2
X-Ray
 70
25
 90
2
 40
0.5
 62
7
290
0
291
0
  0
DICTIONARYVAR
  5
AB
330
2D
100
DictionaryVariables
280
0
  1
1.3.0 @ 2026-01-06T17:07:08.995714+00:00
  0
ENDSEC
  0
EOF
