<?xml version="1.0" encoding="utf-8" standalone="no"?>
<!DOCTYPE svg PUBLIC "-//W3C//DTD SVG 1.1//EN"
  "http://www.w3.org/Graphics/SVG/1.1/DTD/svg11.dtd">
<svg xmlns:xlink="http://www.w3.org/1999/xlink" width="1152pt" height="338.818769pt" viewBox="0 0 1152 338.818769" xmlns="http://www.w3.org/2000/svg" version="1.1">
 <metadata>
  <rdf:RDF xmlns:dc="http://purl.org/dc/elements/1.1/" xmlns:cc="http://creativecommons.org/ns#" xmlns:rdf="http://www.w3.org/1999/02/22-rdf-syntax-ns#">
   <cc:Work>
    <dc:type rdf:resource="http://purl.org/dc/dcmitype/StillImage"/>
    <dc:date>2026-01-07T02:07:11.697092</dc:date>
    <dc:format>image/svg+xml</dc:format>
    <dc:creator>
     <cc:Agent>
      <dc:title>Matplotlib v3.10.1, https://matplotlib.org/</dc:title>
     </cc:Agent>
    </dc:creator>
   </cc:Work>
  </rdf:RDF>
 </metadata>
 <defs>
  <style type="text/css">*{stroke-linejoin: round; stroke-linecap: butt}</style>
 </defs>
 <g id="figure_1">
  <g id="patch_1">
   <path d="M 0 338.818769 
L 1152 338.818769 
L 1152 0 
L 0 0 
z
" style="fill: #ffffff"/>
  </g>
  <g id="axes_1">
   <g id="patch_2">
    <path d="M 0 338.818769 
L 1152 338.818769 
L 1152 0 
L 0 0 
z
" style="fill: #212830"/>
   </g>
   <g id="patch_3">
    <path d="M 1099.309986 321.430435 
L 1093.647162 319.386768 
L 1084.249951 316.007928 
L 1073.727621 312.256942 
L 1062.081619 308.178103 
L 1049.269444 303.779849 
L 1035.366491 299.013329 
L 1020.516981 293.897439 
L 1004.87296 288.466754 
L 988.558594 282.761829 
L 971.689185 276.825471 
L 954.34145 270.689855 
L 936.578568 264.38788 
L 918.453676 257.938924 
L 900.00351 251.361917 
L 881.276097 244.680678 
L 862.321063 237.915517 
L 843.184713 231.0914 
L 823.897753 224.228166 
L 804.485145 217.337832 
L 784.970332 210.434953 
L 765.361793 203.531296 
L 745.666541 196.634086 
L 725.896221 189.752007 
L 706.059144 182.895674 
L 686.158317 176.073047 
L 666.199513 169.291347 
L 646.189848 162.560422 
L 626.129266 155.889191 
L 606.012679 149.282865 
L 585.838695 142.745727 
L 581.639787 141.404433 
L 580.969122 143.503941 
L 564.945364 138.385295 
L 544.661315 132.00495 
L 524.30987 125.708567 
L 503.885677 119.499129 
L 483.387503 113.376501 
L 462.818072 107.340932 
L 442.180529 101.397928 
L 421.475252 95.554193 
L 400.703071 89.813507 
L 379.869192 84.178663 
L 358.979654 78.657214 
L 338.03539 73.260346 
L 317.034998 67.995186 
L 295.979679 62.864401 
L 274.874467 57.87377 
L 253.718197 53.033148 
L 232.507312 48.346762 
L 211.243072 43.813472 
L 189.932257 39.435 
L 168.578388 35.218448 
L 147.17995 31.168907 
L 125.739104 27.28498 
L 104.262624 23.569701 
L 82.750915 20.034855 
L 61.19473 16.690625 
L 52.363636 15.400853 
L 52.363636 283.900683 
L 77.021172 284.046293 
L 101.980743 284.198657 
L 126.868368 284.357752 
L 151.663052 284.496961 
L 176.384449 284.601067 
L 201.048961 284.691174 
L 225.628445 284.808789 
L 250.143 284.970855 
L 274.604571 285.163121 
L 298.986273 285.367188 
L 323.229136 285.598744 
L 347.296622 285.889745 
L 371.222449 286.250914 
L 395.006747 286.642862 
L 418.604941 287.009664 
L 442.078826 287.330449 
L 465.447267 287.644907 
L 488.672187 288.008066 
L 511.789795 288.437636 
L 534.81765 288.903219 
L 557.683112 289.376799 
L 580.308497 289.877533 
L 602.690263 290.450767 
L 624.919329 291.112948 
L 647.051898 291.827634 
L 669.039234 292.550424 
L 690.786524 293.280889 
L 712.228039 294.064902 
L 733.428091 294.939099 
L 754.480255 295.893758 
L 775.393398 296.883314 
L 796.063682 297.873005 
L 816.382219 298.881478 
L 836.336519 299.965485 
L 856.028997 301.164689 
L 875.561095 302.455595 
L 894.905308 303.773414 
L 913.910837 305.089525 
L 932.473967 306.437399 
L 950.596737 307.844568 
L 968.275184 309.298325 
L 985.442848 310.781013 
L 1002.001311 312.285333 
L 1017.84698 313.81712 
L 1032.912124 315.393748 
L 1047.152117 316.99344 
L 1060.462121 318.548655 
L 1072.70045 320.007111 
L 1083.770744 321.370156 
L 1093.667601 322.637312 
L 1099.636364 323.417916 
L 1099.309986 321.430435 
" clip-path="url(#p762b5961a0)" style="fill: none; stroke: #ff0000; stroke-width: 0.72; stroke-linejoin: miter"/>
   </g>
   <g id="patch_4">
    <path d="M 489.719732 219.05641 
L 500.739858 219.05641 
L 500.739858 230.076536 
L 489.719732 230.076536 
L 489.719732 241.096663 
L 500.739858 241.096663 
" clip-path="url(#p762b5961a0)" style="fill: none; stroke: #ff0000; stroke-width: 0.72; stroke-linejoin: miter"/>
   </g>
   <g id="patch_5">
    <path d="M 506.249922 230.076536 
L 506.249922 219.05641 
L 517.270049 219.05641 
L 517.270049 241.096663 
" clip-path="url(#p762b5961a0)" style="fill: none; stroke: #ff0000; stroke-width: 0.72; stroke-linejoin: miter"/>
   </g>
   <g id="patch_6">
    <path d="M 375.321537 92.095514 
L 366.798139 89.842666 
L 369.050987 81.319267 
L 377.574385 83.572115 
L 375.321537 92.095514 
" clip-path="url(#p762b5961a0)" style="fill: none; stroke: #ff0000; stroke-width: 0.72; stroke-linejoin: miter"/>
   </g>
   <g id="patch_7">
    <path d="M 241.68667 124.415988 
L 252.706797 135.436115 
L 241.68667 146.456242 
L 230.666543 135.436115 
L 241.68667 124.415988 
" clip-path="url(#p762b5961a0)" style="fill: none; stroke: #ff0000; stroke-width: 0.72; stroke-linejoin: miter"/>
   </g>
   <g id="patch_8">
    <path d="M 448.965805 219.907447 
L 459.985931 208.88732 
L 471.006058 219.907447 
L 459.985931 230.927574 
L 448.965805 219.907447 
" clip-path="url(#p762b5961a0)" style="fill: none; stroke: #ff0000; stroke-width: 0.72; stroke-linejoin: miter"/>
   </g>
   <g id="patch_9">
    <path d="M 448.965805 174.189329 
L 459.985931 163.169202 
L 471.006058 174.189329 
L 459.985931 185.209455 
L 448.965805 174.189329 
" clip-path="url(#p762b5961a0)" style="fill: none; stroke: #ff0000; stroke-width: 0.72; stroke-linejoin: miter"/>
   </g>
   <g id="line2d_1">
    <path d="M 1057.984562 306.771637 
L 1057.275754 308.858577 
" clip-path="url(#p762b5961a0)" style="fill: none; stroke: #ff0000; stroke-width: 0.72; stroke-linecap: square"/>
   </g>
   <g id="line2d_2">
    <path d="M 1055.890309 315.798138 
L 1055.742776 317.99722 
" clip-path="url(#p762b5961a0)" style="fill: none; stroke: #ff0000; stroke-width: 0.72; stroke-linecap: square"/>
   </g>
   <g id="line2d_3">
    <path d="M 1016.300835 292.433841 
L 1015.587986 294.519404 
" clip-path="url(#p762b5961a0)" style="fill: none; stroke: #ff0000; stroke-width: 0.72; stroke-linecap: square"/>
   </g>
   <g id="line2d_4">
    <path d="M 1012.092403 311.046617 
L 1011.899763 313.242208 
" clip-path="url(#p762b5961a0)" style="fill: none; stroke: #ff0000; stroke-width: 0.72; stroke-linecap: square"/>
   </g>
   <g id="line2d_5">
    <path d="M 850.095764 233.555915 
L 849.367499 235.636145 
" clip-path="url(#p762b5961a0)" style="fill: none; stroke: #ff0000; stroke-width: 0.72; stroke-linecap: square"/>
   </g>
   <g id="line2d_6">
    <path d="M 836.250033 297.754212 
L 836.075062 299.951281 
" clip-path="url(#p762b5961a0)" style="fill: none; stroke: #ff0000; stroke-width: 0.72; stroke-linecap: square"/>
   </g>
   <g id="line2d_7">
    <path d="M 52.363636 135.436115 
L 555.569489 135.436115 
" clip-path="url(#p762b5961a0)" style="fill: none; stroke: #ffffff; stroke-width: 0.72; stroke-linecap: square"/>
   </g>
   <g id="line2d_8">
    <path d="M 228.462518 135.436115 
L 254.910822 135.436115 
" clip-path="url(#p762b5961a0)" style="fill: none; stroke: #ffffff; stroke-width: 0.72; stroke-linecap: square"/>
   </g>
   <g id="line2d_9">
    <path d="M 52.363636 253.364225 
L 1097.591474 320.810238 
" clip-path="url(#p762b5961a0)" style="fill: none; stroke: #ffffff; stroke-width: 0.72; stroke-linecap: square"/>
   </g>
   <g id="line2d_10">
    <path d="M 459.985931 287.571416 
L 459.985931 106.525359 
" clip-path="url(#p762b5961a0)" style="fill: none; stroke: #ffffff; stroke-width: 0.72; stroke-linecap: square"/>
   </g>
   <g id="line2d_11">
    <path d="M 459.985931 233.131599 
L 459.985931 206.683295 
" clip-path="url(#p762b5961a0)" style="fill: none; stroke: #ffffff; stroke-width: 0.72; stroke-linecap: square"/>
   </g>
   <g id="line2d_12">
    <path d="M 459.985931 187.413481 
L 459.985931 160.965176 
" clip-path="url(#p762b5961a0)" style="fill: none; stroke: #ffffff; stroke-width: 0.72; stroke-linecap: square"/>
   </g>
  </g>
 </g>
 <defs>
  <clipPath id="p762b5961a0">
   <rect x="0" y="0" width="1152" height="338.818769"/>
  </clipPath>
 </defs>
</svg>
