<?xml version="1.0" encoding="utf-8" standalone="no"?>
<!DOCTYPE svg PUBLIC "-//W3C//DTD SVG 1.1//EN"
  "http://www.w3.org/Graphics/SVG/1.1/DTD/svg11.dtd">
<svg xmlns:xlink="http://www.w3.org/1999/xlink" width="1152pt" height="184.501843pt" viewBox="0 0 1152 184.501843" xmlns="http://www.w3.org/2000/svg" version="1.1">
 <metadata>
  <rdf:RDF xmlns:dc="http://purl.org/dc/elements/1.1/" xmlns:cc="http://creativecommons.org/ns#" xmlns:rdf="http://www.w3.org/1999/02/22-rdf-syntax-ns#">
   <cc:Work>
    <dc:type rdf:resource="http://purl.org/dc/dcmitype/StillImage"/>
    <dc:date>2026-01-07T02:07:16.037429</dc:date>
    <dc:format>image/svg+xml</dc:format>
    <dc:creator>
     <cc:Agent>
      <dc:title>Matplotlib v3.10.1, https://matplotlib.org/</dc:title>
     </cc:Agent>
    </dc:creator>
   </cc:Work>
  </rdf:RDF>
 </metadata>
 <defs>
  <style type="text/css">*{stroke-linejoin: round; stroke-linecap: butt}</style>
 </defs>
 <g id="figure_1">
  <g id="patch_1">
   <path d="M 0 184.501843 
L 1152 184.501843 
L 1152 0 
L 0 0 
z
" style="fill: #ffffff"/>
  </g>
  <g id="axes_1">
   <g id="patch_2">
    <path d="M 0 184.501843 
L 1152 184.501843 
L 1152 0 
L 0 0 
z
" style="fill: #212830"/>
   </g>
   <g id="patch_3">
    <path d="M 1099.469752 175.257864 
L 1082.096262 169.038743 
L 1066.074352 163.511301 
L 1037.701563 153.772098 
L 1006.258534 142.719083 
L 962.239749 126.950603 
L 906.613054 107.006188 
L 873.731475 95.449974 
L 852.090416 88.019884 
L 841.942702 84.598741 
L 841.532407 85.815747 
L 830.279588 82.073026 
L 809.097733 75.21182 
L 788.090176 68.670754 
L 767.206474 62.464036 
L 746.397106 56.591513 
L 725.623526 51.05808 
L 704.852786 45.859443 
L 684.066126 40.999563 
L 663.24496 36.474156 
L 642.385617 32.287072 
L 621.478488 28.43554 
L 600.52967 24.922931 
L 579.535875 21.748375 
L 558.500415 18.917475 
L 537.396666 16.425255 
L 516.241638 14.264806 
L 495.042571 12.438036 
L 473.833449 10.940845 
L 452.637811 9.782946 
L 431.487487 8.964441 
L 410.405715 8.498404 
L 389.419245 8.386447 
L 368.554345 8.643105 
L 347.839328 9.271506 
L 327.306373 10.287296 
L 306.991603 11.694428 
L 286.935317 13.5092 
L 277.018685 14.569524 
L 267.187627 15.734914 
L 257.44507 17.007659 
L 247.798322 18.386093 
L 238.259647 19.870464 
L 228.836944 21.46322 
L 219.537015 23.16259 
L 210.37916 24.961613 
L 201.386571 26.859216 
L 192.57333 28.856566 
L 183.955056 30.946478 
L 175.559828 33.118729 
L 167.41276 35.369752 
L 159.531328 37.69261 
L 151.939527 40.0705 
L 144.666801 42.488508 
L 137.733066 44.937406 
L 131.151415 47.401021 
L 124.93702 49.858843 
L 119.100088 52.297549 
L 108.54555 57.075401 
L 99.424383 61.642786 
L 91.606786 65.971902 
L 84.922503 70.045746 
L 79.213772 73.880496 
L 74.328851 77.504211 
L 70.152165 80.9397 
L 66.577076 84.236909 
L 63.483401 87.402556 
L 60.801943 90.396447 
L 58.538478 93.227538 
L 56.694763 95.972361 
L 55.217392 98.681998 
L 54.048516 101.322106 
L 53.179226 103.848421 
L 52.625437 106.26937 
L 52.375768 108.712139 
L 52.421421 110.940805 
L 52.790915 113.257784 
L 53.12559 114.401927 
L 53.575499 115.539467 
L 54.830449 117.790697 
L 56.521257 119.974019 
L 58.627543 122.046433 
L 61.180331 123.998372 
L 64.187754 125.849187 
L 67.646547 127.617808 
L 71.604443 129.309812 
L 76.151487 130.943452 
L 81.387708 132.558696 
L 87.4448 134.18496 
L 94.519688 135.834918 
L 102.858577 137.525638 
L 112.753062 139.255151 
L 124.518348 141.008526 
L 138.386531 142.749216 
L 154.424541 144.414045 
L 172.439244 145.93655 
L 192.073732 147.267747 
L 212.92862 148.382989 
L 234.695488 149.290414 
L 258.416722 150.072276 
L 258.377576 151.355988 
L 291.577273 152.259358 
L 338.448549 153.07699 
L 373.87476 153.604691 
L 469.442801 154.480823 
L 600.460491 155.281063 
L 647.807208 155.523169 
L 694.814477 155.949881 
L 729.701627 156.292229 
L 764.607133 156.562202 
L 811.133 157.222269 
L 857.501461 158.390581 
L 880.444178 159.129276 
L 926.317559 161.052212 
L 948.812088 162.249447 
L 982.576144 164.42431 
L 1004.531722 166.02086 
L 1025.821104 167.801644 
L 1046.022503 169.705962 
L 1064.687735 171.765962 
L 1088.755274 174.696891 
L 1099.636364 176.115396 
L 1099.469752 175.257864 
L 1099.469752 175.257864 
" clip-path="url(#p1fa98804c7)" style="fill: none; stroke: #ff0000; stroke-width: 0.72; stroke-linejoin: miter"/>
   </g>
   <g id="patch_4">
    <path d="M 739.457609 60.036836 
L 734.498467 58.695916 
L 735.839387 53.736775 
L 740.798528 55.077694 
L 739.457609 60.036836 
" clip-path="url(#p1fa98804c7)" style="fill: none; stroke: #ff0000; stroke-width: 0.72; stroke-linejoin: miter"/>
   </g>
   <g id="patch_5">
    <path d="M 344.267963 14.573213 
L 339.135838 14.802221 
L 338.90683 9.670096 
L 344.038955 9.441088 
L 344.267963 14.573213 
" clip-path="url(#p1fa98804c7)" style="fill: none; stroke: #ff0000; stroke-width: 0.72; stroke-linejoin: miter"/>
   </g>
   <g id="patch_6">
    <path d="M 164.970049 41.445527 
L 160.042426 42.898003 
L 158.589951 37.97038 
L 163.517573 36.517905 
L 164.970049 41.445527 
" clip-path="url(#p1fa98804c7)" style="fill: none; stroke: #ff0000; stroke-width: 0.72; stroke-linejoin: miter"/>
   </g>
   <g id="patch_7">
    <path d="M 74.612374 85.565233 
L 72.700736 87.280875 
L 68.411633 82.501778 
L 70.323271 80.786137 
L 74.612374 85.565233 
" clip-path="url(#p1fa98804c7)" style="fill: none; stroke: #ff0000; stroke-width: 0.72; stroke-linejoin: miter"/>
   </g>
   <g id="patch_8">
    <path d="M 63.73308 117.922002 
L 65.818808 119.421178 
L 62.070869 124.635497 
L 59.985141 123.136322 
L 63.73308 117.922002 
" clip-path="url(#p1fa98804c7)" style="fill: none; stroke: #ff0000; stroke-width: 0.72; stroke-linejoin: miter"/>
   </g>
   <g id="patch_9">
    <path d="M 203.60457 142.77048 
L 208.735322 143.028424 
L 208.477379 148.159176 
L 203.346627 147.901232 
L 203.60457 142.77048 
" clip-path="url(#p1fa98804c7)" style="fill: none; stroke: #ff0000; stroke-width: 0.72; stroke-linejoin: miter"/>
   </g>
   <g id="line2d_1">
    <path d="M 1075.374171 166.69324 
L 1074.956174 167.907623 
" clip-path="url(#p1fa98804c7)" style="fill: none; stroke: #ff0000; stroke-width: 0.72; stroke-linecap: square"/>
   </g>
   <g id="line2d_2">
    <path d="M 1074.175779 171.606469 
L 1074.06743 172.886198 
" clip-path="url(#p1fa98804c7)" style="fill: none; stroke: #ff0000; stroke-width: 0.72; stroke-linecap: square"/>
   </g>
   <g id="line2d_3">
    <path d="M 1051.069032 158.384174 
L 1050.652307 159.598993 
" clip-path="url(#p1fa98804c7)" style="fill: none; stroke: #ff0000; stroke-width: 0.72; stroke-linecap: square"/>
   </g>
   <g id="line2d_4">
    <path d="M 1048.668238 168.695685 
L 1048.541251 169.9737 
" clip-path="url(#p1fa98804c7)" style="fill: none; stroke: #ff0000; stroke-width: 0.72; stroke-linecap: square"/>
   </g>
   <g id="line2d_5">
    <path d="M 954.223785 124.064839 
L 953.798883 125.276823 
" clip-path="url(#p1fa98804c7)" style="fill: none; stroke: #ff0000; stroke-width: 0.72; stroke-linecap: square"/>
   </g>
   <g id="line2d_6">
    <path d="M 946.198707 160.814502 
L 946.090716 162.094262 
" clip-path="url(#p1fa98804c7)" style="fill: none; stroke: #ff0000; stroke-width: 0.72; stroke-linecap: square"/>
   </g>
   <g id="patch_10">
    <path d="M 507.924797 81.512648 
L 507.814733 77.807377 
L 507.484977 74.116827 
L 506.936841 70.45566 
L 506.172501 66.838423 
L 505.194995 63.279486 
L 504.008205 59.792988 
L 502.616848 56.392783 
L 501.02645 53.092378 
L 499.243331 49.904886 
L 497.274575 46.842972 
L 495.128004 43.918799 
L 492.812145 41.143985 
L 490.3362 38.529555 
L 487.710006 36.085896 
L 484.943996 33.822717 
L 482.04916 31.749008 
L 479.036999 29.873009 
L 475.91948 28.202174 
L 472.708989 26.743139 
L 469.418281 25.501703 
L 466.06043 24.482797 
L 462.648777 23.690469 
L 459.196875 23.127867 
L 455.718441 22.797227 
L 452.227292 22.699861 
L 448.7373 22.836158 
L 445.26233 23.205575 
L 441.816188 23.806644 
L 438.412566 24.636978 
L 435.064985 25.693278 
L 431.786747 26.971347 
L 428.590874 28.466107 
L 425.490066 30.17162 
L 422.49664 32.081109 
L 419.622489 34.186989 
L 416.879033 36.480893 
L 414.277172 38.953707 
L 411.827241 41.595606 
L 409.538976 44.396095 
L 407.421467 47.344047 
L 405.483127 50.427751 
L 403.731656 53.634953 
L 402.174015 56.952914 
L 400.81639 60.368449 
L 399.664176 63.86799 
L 398.72195 67.437633 
L 397.993456 71.063195 
L 397.481589 74.730273 
L 397.188381 78.424297 
L 397.114998 82.130591 
L 397.261732 85.83443 
L 397.627998 89.521098 
L 398.212343 93.17595 
L 399.012445 96.784463 
L 400.025124 100.332301 
L 401.246358 103.80537 
L 402.671294 107.18987 
L 404.294271 110.472355 
L 406.108842 113.639784 
L 408.107797 116.679573 
L 410.283194 119.579644 
L 412.62639 122.328475 
L 415.128076 124.915147 
L 417.778313 127.329381 
L 420.566571 129.561587 
L 423.481773 131.602895 
L 426.512337 133.445196 
L 429.646222 135.08117 
L 432.870978 136.504317 
L 436.173792 137.708984 
L 439.541543 138.690384 
L 442.960851 139.444619 
L 446.41813 139.968691 
L 449.899646 140.260518 
L 453.391565 140.318942 
L 456.880016 140.143729 
L 460.351137 139.735577 
L 463.791139 139.096106 
L 467.186355 138.227857 
L 470.523295 137.134281 
L 473.788703 135.81972 
L 476.969603 134.289399 
L 480.053359 132.549398 
L 483.02772 130.606628 
L 485.880867 128.468809 
L 488.601466 126.144435 
L 491.178708 123.642739 
L 493.602353 120.973662 
L 495.862773 118.147806 
L 497.950986 115.176401 
L 499.858696 112.071249 
L 501.578324 108.84469 
L 503.103039 105.50954 
L 504.426781 102.079052 
L 505.544293 98.566854 
L 506.451134 94.9869 
L 507.143701 91.353412 
L 507.619243 87.680828 
L 507.875871 83.983738 
L 507.924797 81.512648 
L 507.924797 81.512648 
" clip-path="url(#p1fa98804c7)" style="fill: none; stroke: #ff0000; stroke-width: 0.72; stroke-linejoin: miter"/>
   </g>
   <g id="line2d_7">
    <path d="M 69.513361 81.512648 
L 828.56528 81.512648 
" clip-path="url(#p1fa98804c7)" style="fill: none; stroke: #ffffff; stroke-width: 0.72; stroke-linecap: square"/>
   </g>
   <g id="line2d_8">
    <path d="M 218.626698 81.512648 
L 234.038393 81.512648 
" clip-path="url(#p1fa98804c7)" style="fill: none; stroke: #ffffff; stroke-width: 0.72; stroke-linecap: square"/>
   </g>
   <g id="patch_11">
    <path d="M 226.332546 75.091108 
L 232.754085 81.512648 
L 226.332546 87.934188 
L 219.911006 81.512648 
L 226.332546 75.091108 
" clip-path="url(#p1fa98804c7)" style="fill: none; stroke: #ff0000; stroke-width: 0.72; stroke-linejoin: miter"/>
   </g>
   <g id="line2d_9">
    <path d="M 441.333473 81.512648 
L 456.745168 81.512648 
" clip-path="url(#p1fa98804c7)" style="fill: none; stroke: #ffffff; stroke-width: 0.72; stroke-linecap: square"/>
   </g>
   <g id="patch_12">
    <path d="M 449.03932 75.091108 
L 455.46086 81.512648 
L 449.03932 87.934188 
L 442.61778 81.512648 
L 449.03932 75.091108 
" clip-path="url(#p1fa98804c7)" style="fill: none; stroke: #ff0000; stroke-width: 0.72; stroke-linejoin: miter"/>
   </g>
   <g id="line2d_10">
    <path d="M 664.040247 81.512648 
L 679.451943 81.512648 
" clip-path="url(#p1fa98804c7)" style="fill: none; stroke: #ffffff; stroke-width: 0.72; stroke-linecap: square"/>
   </g>
   <g id="patch_13">
    <path d="M 671.746095 75.091108 
L 678.167635 81.512648 
L 671.746095 87.934188 
L 665.324555 81.512648 
L 671.746095 75.091108 
" clip-path="url(#p1fa98804c7)" style="fill: none; stroke: #ff0000; stroke-width: 0.72; stroke-linejoin: miter"/>
   </g>
   <g id="line2d_11">
    <path d="M 52.448007 107.699958 
L 1098.736868 174.993681 
" clip-path="url(#p1fa98804c7)" style="fill: none; stroke: #ffffff; stroke-width: 0.72; stroke-linecap: square"/>
   </g>
   <g id="line2d_12">
    <path d="M 259.014294 120.985596 
L 274.394211 121.974779 
" clip-path="url(#p1fa98804c7)" style="fill: none; stroke: #ffffff; stroke-width: 0.72; stroke-linecap: square"/>
   </g>
   <g id="patch_14">
    <path d="M 267.116412 115.071888 
L 273.112552 121.892347 
L 266.292093 127.888486 
L 260.295953 121.068028 
L 267.116412 115.071888 
" clip-path="url(#p1fa98804c7)" style="fill: none; stroke: #ff0000; stroke-width: 0.72; stroke-linejoin: miter"/>
   </g>
   <g id="line2d_13">
    <path d="M 516.421114 137.541122 
L 531.801032 138.530306 
" clip-path="url(#p1fa98804c7)" style="fill: none; stroke: #ffffff; stroke-width: 0.72; stroke-linecap: square"/>
   </g>
   <g id="patch_15">
    <path d="M 524.523233 131.627415 
L 530.519372 138.447874 
L 523.698913 144.444013 
L 517.702774 137.623554 
L 524.523233 131.627415 
" clip-path="url(#p1fa98804c7)" style="fill: none; stroke: #ff0000; stroke-width: 0.72; stroke-linejoin: miter"/>
   </g>
   <g id="line2d_14">
    <path d="M 452.518368 22.69905 
L 452.518368 21.414742 
" clip-path="url(#p1fa98804c7)" style="fill: none; stroke: #ff0000; stroke-width: 0.72; stroke-linecap: square"/>
   </g>
   <g id="line2d_15">
    <path d="M 452.518368 140.326246 
L 452.518368 141.610554 
" clip-path="url(#p1fa98804c7)" style="fill: none; stroke: #ff0000; stroke-width: 0.72; stroke-linecap: square"/>
   </g>
   <g id="line2d_16">
    <path d="M 507.924797 81.512648 
L 509.209105 81.512648 
" clip-path="url(#p1fa98804c7)" style="fill: none; stroke: #ff0000; stroke-width: 0.72; stroke-linecap: square"/>
   </g>
   <g id="line2d_17">
    <path d="M 397.11194 81.512648 
L 395.827632 81.512648 
" clip-path="url(#p1fa98804c7)" style="fill: none; stroke: #ff0000; stroke-width: 0.72; stroke-linecap: square"/>
   </g>
   <g id="line2d_18">
    <path d="M 259.872177 151.401565 
L 259.872177 16.690587 
" clip-path="url(#p1fa98804c7)" style="fill: none; stroke: #ffffff; stroke-width: 0.72; stroke-linecap: square"/>
   </g>
   <g id="line2d_19">
    <path d="M 259.872177 109.45417 
L 259.872177 94.042475 
" clip-path="url(#p1fa98804c7)" style="fill: none; stroke: #ffffff; stroke-width: 0.72; stroke-linecap: square"/>
   </g>
   <g id="patch_16">
    <path d="M 253.450637 101.748323 
L 259.872177 95.326783 
L 266.293716 101.748323 
L 259.872177 108.169862 
L 253.450637 101.748323 
" clip-path="url(#p1fa98804c7)" style="fill: none; stroke: #ff0000; stroke-width: 0.72; stroke-linejoin: miter"/>
   </g>
   <g id="line2d_20">
    <path d="M 259.872177 74.049678 
L 259.872177 58.637983 
" clip-path="url(#p1fa98804c7)" style="fill: none; stroke: #ffffff; stroke-width: 0.72; stroke-linecap: square"/>
   </g>
   <g id="patch_17">
    <path d="M 253.450637 66.34383 
L 259.872177 59.92229 
L 266.293716 66.34383 
L 259.872177 72.76537 
L 253.450637 66.34383 
" clip-path="url(#p1fa98804c7)" style="fill: none; stroke: #ff0000; stroke-width: 0.72; stroke-linejoin: miter"/>
   </g>
   <g id="line2d_21">
    <path d="M 837.810752 157.877651 
L 837.810752 84.576037 
" clip-path="url(#p1fa98804c7)" style="fill: none; stroke: #ffffff; stroke-width: 0.72; stroke-linecap: square"/>
   </g>
   <g id="line2d_22">
    <path d="M 837.810752 137.423533 
L 837.810752 122.011838 
" clip-path="url(#p1fa98804c7)" style="fill: none; stroke: #ffffff; stroke-width: 0.72; stroke-linecap: square"/>
   </g>
   <g id="patch_18">
    <path d="M 831.389212 129.717686 
L 837.810752 123.296146 
L 844.232292 129.717686 
L 837.810752 136.139225 
L 831.389212 129.717686 
" clip-path="url(#p1fa98804c7)" style="fill: none; stroke: #ff0000; stroke-width: 0.72; stroke-linejoin: miter"/>
   </g>
   <g id="line2d_23">
    <path d="M 837.810752 120.44185 
L 837.810752 105.030155 
" clip-path="url(#p1fa98804c7)" style="fill: none; stroke: #ffffff; stroke-width: 0.72; stroke-linecap: square"/>
   </g>
   <g id="patch_19">
    <path d="M 831.389212 112.736003 
L 837.810752 106.314463 
L 844.232292 112.736003 
L 837.810752 119.157542 
L 831.389212 112.736003 
" clip-path="url(#p1fa98804c7)" style="fill: none; stroke: #ff0000; stroke-width: 0.72; stroke-linejoin: miter"/>
   </g>
   <g id="patch_20">
    <path d="M 347.387255 121.235125 
L 347.387255 127.656665 
L 353.808795 127.656665 
L 353.808795 121.235125 
L 353.808795 134.078205 
" clip-path="url(#p1fa98804c7)" style="fill: none; stroke: #ff0000; stroke-width: 0.72; stroke-linejoin: miter"/>
   </g>
   <g id="patch_21">
    <path d="M 360.230335 121.235125 
L 360.230335 134.078205 
" clip-path="url(#p1fa98804c7)" style="fill: none; stroke: #ff0000; stroke-width: 0.72; stroke-linejoin: miter"/>
   </g>
  </g>
 </g>
 <defs>
  <clipPath id="p1fa98804c7">
   <rect x="0" y="0" width="1152" height="184.501843"/>
  </clipPath>
 </defs>
</svg>
