  0
SECTION
  2
HEADER
  9
$ACADVER
  1
AC1021
  9
$ACADMAINTVER
 70
25
  9
$DWGCODEPAGE
  3
ANSI_1252
  9
$LASTSAVEDBY
  1
ezdxf
  9
$INSBASE
 10
0.0
 20
0.0
 30
0.0
  9
$EXTMIN
 10
1e+20
 20
1e+20
 30
1e+20
  9
$EXTMAX
 10
-1e+20
 20
-1e+20
 30
-1e+20
  9
$LIMMIN
 10
0.0
 20
0.0
  9
$LIMMAX
 10
420.0
 20
297.0
  9
$ORTHOMODE
 70
0
  9
$REGENMODE
 70
1
  9
$FILLMODE
 70
1
  9
$QTEXTMODE
 70
0
  9
$MIRRTEXT
 70
1
  9
$LTSCALE
 40
1.0
  9
$ATTMODE
 70
1
  9
$TEXTSIZE
 40
2.5
  9
$TRACEWID
 40
1.0
  9
$TEXTSTYLE
  7
OpenSans
  9
$CLAYER
  8
0
  9
$CELTYPE
  6
ByLayer
  9
$CECOLOR
 62
256
  9
$CELTSCALE
 40
1.0
  9
$DISPSILH
 70
0
  9
$DIMSCALE
 40
1.0
  9
$DIMASZ
 40
0.175
  9
$DIMEXO
 40
0.125
  9
$DIMDLI
 40
3.75
  9
$DIMRND
 40
0.0
  9
$DIMDLE
 40
0.0
  9
$DIMEXE
 40
0.375
  9
$DIMTP
 40
0.0
  9
$DIMTM
 40
0.0
  9
$DIMTXT
 40
0.25
  9
$DIMCEN
 40
2.5
  9
$DIMTSZ
 40
0.0
  9
$DIMTOL
 70
0
  9
$DIMLIM
 70
0
  9
$DIMTIH
 70
0
  9
$DIMTOH
 70
0
  9
$DIMSE1
 70
0
  9
$DIMSE2
 70
0
  9
$DIMTAD
 70
1
  9
$DIMZIN
 70
12
  9
$DIMBLK
  1
ARCHTICK
  9
$DIMASO
 70
1
  9
$DIMSHO
 70
1
  9
$DIMPOST
  1

  9
$DIMAPOST
  1

  9
$DIMALT
 70
0
  9
$DIMALTD
 70
3
  9
$DIMALTF
 40
0.03937007874
  9
$DIMLFAC
 40
100.0
  9
$DIMTOFL
 70
1
  9
$DIMTVP
 40
0.0
  9
$DIMTIX
 70
0
  9
$DIMSOXD
 70
0
  9
$DIMSAH
 70
0
  9
$DIMBLK1
  1

  9
$DIMBLK2
  1

  9
$DIMSTYLE
  2
EZDXF
  9
$DIMCLRD
 70
0
  9
$DIMCLRE
 70
0
  9
$DIMCLRT
 70
0
  9
$DIMTFAC
 40
0.5
  9
$DIMGAP
 40
0.1
  9
$DIMJUST
 70
0
  9
$DIMSD1
 70
0
  9
$DIMSD2
 70
0
  9
$DIMTOLJ
 70
0
  9
$DIMTZIN
 70
8
  9
$DIMALTZ
 70
0
  9
$DIMALTTZ
 70
0
  9
$DIMUPT
 70
1
  9
$DIMDEC
 70
2
  9
$DIMTDEC
 70
2
  9
$DIMALTU
 70
2
  9
$DIMALTTD
 70
3
  9
$DIMTXSTY
  7
OpenSansCondensed-Light
  9
$DIMAUNIT
 70
0
  9
$DIMADEC
 70
2
  9
$DIMALTRND
 40
0.0
  9
$DIMAZIN
 70
3
  9
$DIMDSEP
 70
46
  9
$DIMATFIT
 70
3
  9
$DIMFRAC
 70
0
  9
$DIMLDRBLK
  1

  9
$DIMLUNIT
 70
2
  9
$DIMLWD
 70
-2
  9
$DIMLWE
 70
-2
  9
$DIMTMOVE
 70
2
  9
$DIMFXL
 40
1.0
  9
$DIMFXLON
 70
0
  9
$DIMJOGANG
 40
0.785398163397
  9
$DIMTFILL
 70
0
  9
$DIMTFILLCLR
 70
0
  9
$DIMARCSYM
 70
0
  9
$DIMLTYPE
  6

  9
$DIMLTEX1
  6

  9
$DIMLTEX2
  6

  9
$LUNITS
 70
2
  9
$LUPREC
 70
4
  9
$SKETCHINC
 40
1.0
  9
$FILLETRAD
 40
10.0
  9
$AUNITS
 70
0
  9
$AUPREC
 70
2
  9
$MENU
  1
.
  9
$ELEVATION
 40
0.0
  9
$PELEVATION
 40
0.0
  9
$THICKNESS
 40
0.0
  9
$LIMCHECK
 70
0
  9
$CHAMFERA
 40
0.0
  9
$CHAMFERB
 40
0.0
  9
$CHAMFERC
 40
0.0
  9
$CHAMFERD
 40
0.0
  9
$SKPOLY
 70
0
  9
$TDCREATE
 40
2461048.0883449074
  9
$TDUCREATE
 40
2458532.153996898
  9
$TDUPDATE
 40
2461048.0883449074
  9
$TDUUPDATE
 40
2458532.1544311
  9
$TDINDWG
 40
0.0
  9
$TDUSRTIMER
 40
0.0
  9
$USRTIMER
 70
1
  9
$ANGBASE
 50
0.0
  9
$ANGDIR
 70
0
  9
$PDMODE
 70
0
  9
$PDSIZE
 40
0.0
  9
$PLINEWID
 40
0.0
  9
$SPLFRAME
 70
0
  9
$SPLINETYPE
 70
6
  9
$SPLINESEGS
 70
8
  9
$HANDSEED
  5
BB
  9
$SURFTAB1
 70
6
  9
$SURFTAB2
 70
6
  9
$SURFTYPE
 70
6
  9
$SURFU
 70
6
  9
$SURFV
 70
6
  9
$UCSBASE
  2

  9
$UCSNAME
  2

  9
$UCSORG
 10
0.0
 20
0.0
 30
0.0
  9
$UCSXDIR
 10
1.0
 20
0.0
 30
0.0
  9
$UCSYDIR
 10
0.0
 20
1.0
 30
0.0
  9
$UCSORTHOREF
  2

  9
$UCSORTHOVIEW
 70
0
  9
$UCSORGTOP
 10
0.0
 20
0.0
 30
0.0
  9
$UCSORGBOTTOM
 10
0.0
 20
0.0
 30
0.0
  9
$UCSORGLEFT
 10
0.0
 20
0.0
 30
0.0
  9
$UCSORGRIGHT
 10
0.0
 20
0.0
 30
0.0
  9
$UCSORGFRONT
 10
0.0
 20
0.0
 30
0.0
  9
$UCSORGBACK
 10
0.0
 20
0.0
 30
0.0
  9
$PUCSBASE
  2

  9
$PUCSNAME
  2

  9
$PUCSORG
 10
0.0
 20
0.0
 30
0.0
  9
$PUCSXDIR
 10
1.0
 20
0.0
 30
0.0
  9
$PUCSYDIR
 10
0.0
 20
1.0
 30
0.0
  9
$PUCSORTHOREF
  2

  9
$PUCSORTHOVIEW
 70
0
  9
$PUCSORGTOP
 10
0.0
 20
0.0
 30
0.0
  9
$PUCSORGBOTTOM
 10
0.0
 20
0.0
 30
0.0
  9
$PUCSORGLEFT
 10
0.0
 20
0.0
 30
0.0
  9
$PUCSORGRIGHT
 10
0.0
 20
0.0
 30
0.0
  9
$PUCSORGFRONT
 10
0.0
 20
0.0
 30
0.0
  9
$PUCSORGBACK
 10
0.0
 20
0.0
 30
0.0
  9
$USERI1
 70
0
  9
$USERI2
 70
0
  9
$USERI3
 70
0
  9
$USERI4
 70
0
  9
$USERI5
 70
0
  9
$USERR1
 40
0.0
  9
$USERR2
 40
0.0
  9
$USERR3
 40
0.0
  9
$USERR4
 40
0.0
  9
$USERR5
 40
0.0
  9
$WORLDVIEW
 70
1
  9
$SHADEDGE
 70
3
  9
$SHADEDIF
 70
70
  9
$TILEMODE
 70
1
  9
$MAXACTVP
 70
64
  9
$PINSBASE
 10
0.0
 20
0.0
 30
0.0
  9
$PLIMCHECK
 70
0
  9
$PEXTMIN
 10
1e+20
 20
1e+20
 30
1e+20
  9
$PEXTMAX
 10
-1e+20
 20
-1e+20
 30
-1e+20
  9
$PLIMMIN
 10
0.0
 20
0.0
  9
$PLIMMAX
 10
420.0
 20
297.0
  9
$UNITMODE
 70
0
  9
$VISRETAIN
 70
1
  9
$PLINEGEN
 70
0
  9
$PSLTSCALE
 70
1
  9
$TREEDEPTH
 70
3020
  9
$CMLSTYLE
  2
Standard
  9
$CMLJUST
 70
0
  9
$CMLSCALE
 40
20.0
  9
$PROXYGRAPHICS
 70
1
  9
$MEASUREMENT
 70
1
  9
$CELWEIGHT
370
-1
  9
$ENDCAPS
280
0
  9
$JOINSTYLE
280
0
  9
$LWDISPLAY
290
0
  9
$INSUNITS
 70
6
  9
$HYPERLINKBASE
  1

  9
$STYLESHEET
  1

  9
$XEDIT
290
1
  9
$CEPSNTYPE
380
0
  9
$PSTYLEMODE
290
1
  9
$FINGERPRINTGUID
  2
{B5896811-A3DF-4662-9D3B-229FB55B604F}
  9
$VERSIONGUID
  2
{0A92A30D-0958-46A3-866A-25839DA89B54}
  9
$EXTNAMES
290
1
  9
$PSVPSCALE
 40
0.0
  9
$OLESTARTUP
290
0
  9
$SORTENTS
280
127
  9
$INDEXCTL
280
0
  9
$HIDETEXT
280
1
  9
$XCLIPFRAME
290
1
  9
$HALOGAP
280
0
  9
$OBSCOLOR
 70
257
  9
$OBSLTYPE
280
0
  9
$INTERSECTIONDISPLAY
280
0
  9
$INTERSECTIONCOLOR
 70
257
  9
$DIMASSOC
280
2
  9
$PROJECTNAME
  1

  9
$CAMERADISPLAY
290
0
  9
$LENSLENGTH
 40
50.0
  9
$CAMERAHEIGHT
 40
0.0
  9
$STEPSPERSEC
 40
24.0
  9
$STEPSIZE
 40
100.0
  9
$3DDWFPREC
 40
2.0
  9
$PSOLWIDTH
 40
0.005
  9
$PSOLHEIGHT
 40
0.08
  9
$LOFTANG1
 40
1.570796326795
  9
$LOFTANG2
 40
1.570796326795
  9
$LOFTMAG1
 40
0.0
  9
$LOFTMAG2
 40
0.0
  9
$LOFTPARAM
 70
7
  9
$LOFTNORMALS
280
1
  9
$LATITUDE
 40
37.795
  9
$LONGITUDE
 40
-122.394
  9
$NORTHDIRECTION
 40
0.0
  9
$TIMEZONE
 70
-8000
  9
$LIGHTGLYPHDISPLAY
280
1
  9
$TILEMODELIGHTSYNCH
280
1
  9
$CMATERIAL
347
20
  9
$SOLIDHIST
280
0
  9
$SHOWHIST
280
1
  9
$DWFFRAME
280
2
  9
$DGNFRAME
280
2
  9
$REALWORLDSCALE
290
1
  9
$INTERFERECOLOR
 62
256
  9
$CSHADOW
280
0
  9
$SHADOWPLANELOCATION
 40
0.0
  0
ENDSEC
  0
SECTION
  2
CLASSES
  0
CLASS
  1
ACDBDICTIONARYWDFLT
  2
AcDbDictionaryWithDefault
  3
ObjectDBX Classes
 90
0
 91
0
280
0
281
0
  0
CLASS
  1
SUN
  2
AcDbSun
  3
SCENEOE
 90
1153
 91
0
280
0
281
0
  0
CLASS
  1
VISUALSTYLE
  2
AcDbVisualStyle
  3
ObjectDBX Classes
 90
4095
 91
0
280
0
281
0
  0
CLASS
  1
MATERIAL
  2
AcDbMaterial
  3
ObjectDBX Classes
 90
1153
 91
0
280
0
281
0
  0
CLASS
  1
SCALE
  2
AcDbScale
  3
ObjectDBX Classes
 90
1153
 91
0
280
0
281
0
  0
CLASS
  1
TABLESTYLE
  2
AcDbTableStyle
  3
ObjectDBX Classes
 90
4095
 91
0
280
0
281
0
  0
CLASS
  1
MLEADERSTYLE
  2
AcDbMLeaderStyle
  3
ACDB_MLEADERSTYLE_CLASS
 90
4095
 91
0
280
0
281
0
  0
CLASS
  1
DICTIONARYVAR
  2
AcDbDictionaryVar
  3
ObjectDBX Classes
 90
0
 91
0
280
0
281
0
  0
CLASS
  1
CELLSTYLEMAP
  2
AcDbCellStyleMap
  3
ObjectDBX Classes
 90
1152
 91
0
280
0
281
0
  0
CLASS
  1
MENTALRAYRENDERSETTINGS
  2
AcDbMentalRayRenderSettings
  3
SCENEOE
 90
1024
 91
0
280
0
281
0
  0
CLASS
  1
ACDBDETAILVIEWSTYLE
  2
AcDbDetailViewStyle
  3
ObjectDBX Classes
 90
1025
 91
0
280
0
281
0
  0
CLASS
  1
ACDBSECTIONVIEWSTYLE
  2
AcDbSectionViewStyle
  3
ObjectDBX Classes
 90
1025
 91
0
280
0
281
0
  0
CLASS
  1
RASTERVARIABLES
  2
AcDbRasterVariables
  3
ISM
 90
0
 91
0
280
0
281
0
  0
CLASS
  1
ACDBPLACEHOLDER
  2
AcDbPlaceHolder
  3
ObjectDBX Classes
 90
0
 91
0
280
0
281
0
  0
CLASS
  1
LAYOUT
  2
AcDbLayout
  3
ObjectDBX Classes
 90
0
 91
0
280
0
281
0
  0
ENDSEC
  0
SECTION
  2
TABLES
  0
TABLE
  2
VPORT
  5
8
330
0
100
AcDbSymbolTable
 70
1
  0
VPORT
  5
23
330
8
100
AcDbSymbolTableRecord
100
AcDbViewportTableRecord
  2
*Active
 70
0
 10
0.0
 20
0.0
 11
1.0
 21
1.0
 12
0.0
 22
0.0
 13
0.0
 23
0.0
 14
0.5
 24
0.5
 15
0.5
 25
0.5
 16
0.0
 26
0.0
 36
1.0
 17
0.0
 27
0.0
 37
0.0
 40
1000.0
 41
1.34
 42
50.0
 43
0.0
 44
0.0
 50
0.0
 51
0.0
 71
0
 72
1000
 73
1
 74
3
 75
0
 76
0
 77
0
 78
0
281
0
 65
0
146
0.0
  0
ENDTAB
  0
TABLE
  2
LTYPE
  5
2
330
0
100
AcDbSymbolTable
 70
21
  0
LTYPE
  5
24
330
2
100
AcDbSymbolTableRecord
100
AcDbLinetypeTableRecord
  2
ByBlock
 70
0
  3

 72
65
 73
0
 40
0.0
  0
LTYPE
  5
25
330
2
100
AcDbSymbolTableRecord
100
AcDbLinetypeTableRecord
  2
ByLayer
 70
0
  3

 72
65
 73
0
 40
0.0
  0
LTYPE
  5
26
330
2
100
AcDbSymbolTableRecord
100
AcDbLinetypeTableRecord
  2
Continuous
 70
0
  3

 72
65
 73
0
 40
0.0
  0
LTYPE
  5
2F
330
2
100
AcDbSymbolTableRecord
100
AcDbLinetypeTableRecord
  2
CENTER
 70
0
  3
Center ____ _ ____ _ ____ _ ____ _ ____ _ ____
 72
65
 73
4
 40
5.08
 49
3.175
 74
0
 49
-0.635
 74
0
 49
0.635
 74
0
 49
-0.635
 74
0
  0
LTYPE
  5
30
330
2
100
AcDbSymbolTableRecord
100
AcDbLinetypeTableRecord
  2
CENTERX2
 70
0
  3
Center (2x) ________  __  ________  __  ________
 72
65
 73
4
 40
8.89
 49
6.35
 74
0
 49
-0.635
 74
0
 49
1.27
 74
0
 49
-0.635
 74
0
  0
LTYPE
  5
31
330
2
100
AcDbSymbolTableRecord
100
AcDbLinetypeTableRecord
  2
CENTER2
 70
0
  3
Center (.5x) ____ _ ____ _ ____ _ ____ _ ____
 72
65
 73
4
 40
2.54
 49
1.587
 74
0
 49
-0.318
 74
0
 49
0.318
 74
0
 49
-0.318
 74
0
  0
LTYPE
  5
32
330
2
100
AcDbSymbolTableRecord
100
AcDbLinetypeTableRecord
  2
DASHED
 70
0
  3
Dashed __ __ __ __ __ __ __ __ __ __ __ __ __ _
 72
65
 73
2
 40
1.524
 49
1.27
 74
0
 49
-0.254
 74
0
  0
LTYPE
  5
33
330
2
100
AcDbSymbolTableRecord
100
AcDbLinetypeTableRecord
  2
DASHEDX2
 70
0
  3
Dashed (2x) ____  ____  ____  ____  ____  ____
 72
65
 73
2
 40
3.048
 49
2.54
 74
0
 49
-0.508
 74
0
  0
LTYPE
  5
34
330
2
100
AcDbSymbolTableRecord
100
AcDbLinetypeTableRecord
  2
DASHED2
 70
0
  3
Dashed (.5x) _ _ _ _ _ _ _ _ _ _ _ _ _ _
 72
65
 73
2
 40
0.762
 49
0.635
 74
0
 49
-0.127
 74
0
  0
LTYPE
  5
35
330
2
100
AcDbSymbolTableRecord
100
AcDbLinetypeTableRecord
  2
PHANTOM
 70
0
  3
Phantom ______  __  __  ______  __  __  ______
 72
65
 73
6
 40
6.35
 49
3.175
 74
0
 49
-0.635
 74
0
 49
0.635
 74
0
 49
-0.635
 74
0
 49
0.635
 74
0
 49
-0.635
 74
0
  0
LTYPE
  5
36
330
2
100
AcDbSymbolTableRecord
100
AcDbLinetypeTableRecord
  2
PHANTOMX2
 70
0
  3
Phantom (2x)____________    ____    ____    ____________
 72
65
 73
6
 40
10.795
 49
6.35
 74
0
 49
-0.635
 74
0
 49
1.27
 74
0
 49
-0.635
 74
0
 49
1.27
 74
0
 49
-0.635
 74
0
  0
LTYPE
  5
37
330
2
100
AcDbSymbolTableRecord
100
AcDbLinetypeTableRecord
  2
PHANTOM2
 70
0
  3
Phantom (.5x) ___ _ _ ___ _ _ ___ _ _ ___ _ _ ___
 72
65
 73
6
 40
3.175
 49
1.587
 74
0
 49
-0.318
 74
0
 49
0.318
 74
0
 49
-0.318
 74
0
 49
0.318
 74
0
 49
-0.318
 74
0
  0
LTYPE
  5
38
330
2
100
AcDbSymbolTableRecord
100
AcDbLinetypeTableRecord
  2
DASHDOT
 70
0
  3
Dash dot __ . __ . __ . __ . __ . __ . __ . __
 72
65
 73
4
 40
3.556
 49
2.54
 74
0
 49
-0.508
 74
0
 49
0.0
 74
0
 49
-0.508
 74
0
  0
LTYPE
  5
39
330
2
100
AcDbSymbolTableRecord
100
AcDbLinetypeTableRecord
  2
DASHDOTX2
 70
0
  3
Dash dot (2x) ____  .  ____  .  ____  .  ____
 72
65
 73
4
 40
6.096
 49
5.08
 74
0
 49
-0.508
 74
0
 49
0.0
 74
0
 49
-0.508
 74
0
  0
LTYPE
  5
3A
330
2
100
AcDbSymbolTableRecord
100
AcDbLinetypeTableRecord
  2
DASHDOT2
 70
0
  3
Dash dot (.5x) _ . _ . _ . _ . _ . _ . _ . _
 72
65
 73
4
 40
1.778
 49
1.27
 74
0
 49
-0.254
 74
0
 49
0.0
 74
0
 49
-0.254
 74
0
  0
LTYPE
  5
3B
330
2
100
AcDbSymbolTableRecord
100
AcDbLinetypeTableRecord
  2
DOT
 70
0
  3
Dot .  .  .  .  .  .  .  .  .  .  .  .  .  .  .  .
 72
65
 73
2
 40
0.508
 49
0.0
 74
0
 49
-0.508
 74
0
  0
LTYPE
  5
3C
330
2
100
AcDbSymbolTableRecord
100
AcDbLinetypeTableRecord
  2
DOTX2
 70
0
  3
Dot (2x) .    .    .    .    .    .    .    . 
 72
65
 73
2
 40
1.016
 49
0.0
 74
0
 49
-1.016
 74
0
  0
LTYPE
  5
3D
330
2
100
AcDbSymbolTableRecord
100
AcDbLinetypeTableRecord
  2
DOT2
 70
0
  3
Dot (.5) . . . . . . . . . . . . . . . . . . . 
 72
65
 73
2
 40
0.254
 49
0.0
 74
0
 49
-0.254
 74
0
  0
LTYPE
  5
3E
330
2
100
AcDbSymbolTableRecord
100
AcDbLinetypeTableRecord
  2
DIVIDE
 70
0
  3
Divide __ . . __ . . __ . . __ . . __ . . __
 72
65
 73
6
 40
4.064
 49
2.54
 74
0
 49
-0.508
 74
0
 49
0.0
 74
0
 49
-0.508
 74
0
 49
0.0
 74
0
 49
-0.508
 74
0
  0
LTYPE
  5
3F
330
2
100
AcDbSymbolTableRecord
100
AcDbLinetypeTableRecord
  2
DIVIDEX2
 70
0
  3
Divide (2x) ____  . .  ____  . .  ____  . .  ____
 72
65
 73
6
 40
6.604
 49
5.08
 74
0
 49
-0.508
 74
0
 49
0.0
 74
0
 49
-0.508
 74
0
 49
0.0
 74
0
 49
-0.508
 74
0
  0
LTYPE
  5
40
330
2
100
AcDbSymbolTableRecord
100
AcDbLinetypeTableRecord
  2
DIVIDE2
 70
0
  3
Divide(.5x) _ . _ . _ . _ . _ . _ . _ . _
 72
65
 73
6
 40
2.032
 49
1.27
 74
0
 49
-0.254
 74
0
 49
0.0
 74
0
 49
-0.254
 74
0
 49
0.0
 74
0
 49
-0.254
 74
0
  0
ENDTAB
  0
TABLE
  2
LAYER
  5
1
330
0
100
AcDbSymbolTable
 70
5
  0
LAYER
  5
27
330
1
100
AcDbSymbolTableRecord
100
AcDbLayerTableRecord
  2
0
 70
0
 62
7
  6
Continuous
370
-3
390
13
347
21
  0
LAYER
  5
28
330
1
100
AcDbSymbolTableRecord
100
AcDbLayerTableRecord
  2
Defpoints
 70
0
 62
7
  6
Continuous
290
0
370
-3
390
13
347
21
  0
LAYER
  5
8A
330
1
100
AcDbSymbolTableRecord
100
AcDbLayerTableRecord
  2
Layer
 70
0
 62
1
  6
Continuous
370
50
390
13
347
21
  0
LAYER
  5
8B
330
1
100
AcDbSymbolTableRecord
100
AcDbLayerTableRecord
  2
NumLabel
 70
0
 62
1
  6
Continuous
370
15
390
13
347
21
  0
LAYER
  5
B9
330
1
100
AcDbSymbolTableRecord
100
AcDbLayerTableRecord
  2
SplitMark
 70
0
 62
3
  6
Continuous
370
-3
390
13
347
21
  0
ENDTAB
  0
TABLE
  2
STYLE
  5
5
330
0
100
AcDbSymbolTable
 70
26
  0
STYLE
  5
29
330
5
100
AcDbSymbolTableRecord
100
AcDbTextStyleTableRecord
  2
Standard
 70
0
 40
0.0
 41
1.0
 50
0.0
 71
0
 42
2.5
  3
txt
  4

  0
STYLE
  5
41
330
5
100
AcDbSymbolTableRecord
100
AcDbTextStyleTableRecord
  2
OpenSans-Light
 70
0
 40
0.0
 41
1.0
 50
0.0
 71
0
 42
2.5
  3
OpenSans-Light.ttf
  4

  0
STYLE
  5
42
330
5
100
AcDbSymbolTableRecord
100
AcDbTextStyleTableRecord
  2
OpenSans-Light-Italic
 70
0
 40
0.0
 41
1.0
 50
0.0
 71
0
 42
2.5
  3
OpenSans-LightItalic.ttf
  4

  0
STYLE
  5
43
330
5
100
AcDbSymbolTableRecord
100
AcDbTextStyleTableRecord
  2
OpenSans
 70
0
 40
0.0
 41
1.0
 50
0.0
 71
0
 42
2.5
  3
OpenSans-Regular.ttf
  4

  0
STYLE
  5
44
330
5
100
AcDbSymbolTableRecord
100
AcDbTextStyleTableRecord
  2
OpenSans-Italic
 70
0
 40
0.0
 41
1.0
 50
0.0
 71
0
 42
2.5
  3
OpenSans-Italic.ttf
  4

  0
STYLE
  5
45
330
5
100
AcDbSymbolTableRecord
100
AcDbTextStyleTableRecord
  2
OpenSans-SemiBold
 70
0
 40
0.0
 41
1.0
 50
0.0
 71
0
 42
2.5
  3
OpenSans-SemiBold.ttf
  4

  0
STYLE
  5
46
330
5
100
AcDbSymbolTableRecord
100
AcDbTextStyleTableRecord
  2
OpenSans-SemiBoldItalic
 70
0
 40
0.0
 41
1.0
 50
0.0
 71
0
 42
2.5
  3
OpenSans-SemiBoldItalic.ttf
  4

  0
STYLE
  5
47
330
5
100
AcDbSymbolTableRecord
100
AcDbTextStyleTableRecord
  2
OpenSans-Bold
 70
0
 40
0.0
 41
1.0
 50
0.0
 71
0
 42
2.5
  3
OpenSans-Bold.ttf
  4

  0
STYLE
  5
48
330
5
100
AcDbSymbolTableRecord
100
AcDbTextStyleTableRecord
  2
OpenSans-BoldItalic
 70
0
 40
0.0
 41
1.0
 50
0.0
 71
0
 42
2.5
  3
OpenSans-BoldItalic.ttf
  4

  0
STYLE
  5
49
330
5
100
AcDbSymbolTableRecord
100
AcDbTextStyleTableRecord
  2
OpenSans-ExtraBold
 70
0
 40
0.0
 41
1.0
 50
0.0
 71
0
 42
2.5
  3
OpenSans-ExtraBold.ttf
  4

  0
STYLE
  5
4A
330
5
100
AcDbSymbolTableRecord
100
AcDbTextStyleTableRecord
  2
OpenSans-ExtraBoldItalic
 70
0
 40
0.0
 41
1.0
 50
0.0
 71
0
 42
2.5
  3
OpenSans-ExtraBoldItalic.ttf
  4

  0
STYLE
  5
4B
330
5
100
AcDbSymbolTableRecord
100
AcDbTextStyleTableRecord
  2
OpenSansCondensed-Bold
 70
0
 40
0.0
 41
1.0
 50
0.0
 71
0
 42
2.5
  3
OpenSansCondensed-Bold.ttf
  4

  0
STYLE
  5
4C
330
5
100
AcDbSymbolTableRecord
100
AcDbTextStyleTableRecord
  2
OpenSansCondensed-Light
 70
0
 40
0.0
 41
1.0
 50
0.0
 71
0
 42
2.5
  3
OpenSansCondensed-Light.ttf
  4

  0
STYLE
  5
4D
330
5
100
AcDbSymbolTableRecord
100
AcDbTextStyleTableRecord
  2
OpenSansCondensed-Italic
 70
0
 40
0.0
 41
1.0
 50
0.0
 71
0
 42
2.5
  3
OpenSansCondensed-LightItalic.ttf
  4

  0
STYLE
  5
4E
330
5
100
AcDbSymbolTableRecord
100
AcDbTextStyleTableRecord
  2
LiberationSans
 70
0
 40
0.0
 41
1.0
 50
0.0
 71
0
 42
2.5
  3
LiberationSans-Regular.ttf
  4

  0
STYLE
  5
4F
330
5
100
AcDbSymbolTableRecord
100
AcDbTextStyleTableRecord
  2
LiberationSans-Bold
 70
0
 40
0.0
 41
1.0
 50
0.0
 71
0
 42
2.5
  3
LiberationSans-Bold.ttf
  4

  0
STYLE
  5
50
330
5
100
AcDbSymbolTableRecord
100
AcDbTextStyleTableRecord
  2
LiberationSans-BoldItalic
 70
0
 40
0.0
 41
1.0
 50
0.0
 71
0
 42
2.5
  3
LiberationSans-BoldItalic.ttf
  4

  0
STYLE
  5
51
330
5
100
AcDbSymbolTableRecord
100
AcDbTextStyleTableRecord
  2
LiberationSans-Italic
 70
0
 40
0.0
 41
1.0
 50
0.0
 71
0
 42
2.5
  3
LiberationSans-Italic.ttf
  4

  0
STYLE
  5
52
330
5
100
AcDbSymbolTableRecord
100
AcDbTextStyleTableRecord
  2
LiberationSerif
 70
0
 40
0.0
 41
1.0
 50
0.0
 71
0
 42
2.5
  3
LiberationSerif-Regular.ttf
  4

  0
STYLE
  5
53
330
5
100
AcDbSymbolTableRecord
100
AcDbTextStyleTableRecord
  2
LiberationSerif-Bold
 70
0
 40
0.0
 41
1.0
 50
0.0
 71
0
 42
2.5
  3
LiberationSerif-Bold.ttf
  4

  0
STYLE
  5
54
330
5
100
AcDbSymbolTableRecord
100
AcDbTextStyleTableRecord
  2
LiberationSerif-BoldItalic
 70
0
 40
0.0
 41
1.0
 50
0.0
 71
0
 42
2.5
  3
LiberationSerif-BoldItalic.ttf
  4

  0
STYLE
  5
55
330
5
100
AcDbSymbolTableRecord
100
AcDbTextStyleTableRecord
  2
LiberationSerif-Italic
 70
0
 40
0.0
 41
1.0
 50
0.0
 71
0
 42
2.5
  3
LiberationSerif-Italic.ttf
  4

  0
STYLE
  5
56
330
5
100
AcDbSymbolTableRecord
100
AcDbTextStyleTableRecord
  2
LiberationMono
 70
0
 40
0.0
 41
1.0
 50
0.0
 71
0
 42
2.5
  3
LiberationMono-Regular.ttf
  4

  0
STYLE
  5
57
330
5
100
AcDbSymbolTableRecord
100
AcDbTextStyleTableRecord
  2
LiberationMono-Bold
 70
0
 40
0.0
 41
1.0
 50
0.0
 71
0
 42
2.5
  3
LiberationMono-Bold.ttf
  4

  0
STYLE
  5
58
330
5
100
AcDbSymbolTableRecord
100
AcDbTextStyleTableRecord
  2
LiberationMono-BoldItalic
 70
0
 40
0.0
 41
1.0
 50
0.0
 71
0
 42
2.5
  3
LiberationMono-BoldItalic.ttf
  4

  0
STYLE
  5
59
330
5
100
AcDbSymbolTableRecord
100
AcDbTextStyleTableRecord
  2
LiberationMono-Italic
 70
0
 40
0.0
 41
1.0
 50
0.0
 71
0
 42
2.5
  3
LiberationMono-Italic.ttf
  4

  0
ENDTAB
  0
TABLE
  2
VIEW
  5
7
330
0
100
AcDbSymbolTable
 70
0
  0
ENDTAB
  0
TABLE
  2
UCS
  5
6
330
0
100
AcDbSymbolTable
 70
0
  0
ENDTAB
  0
TABLE
  2
APPID
  5
3
330
0
100
AcDbSymbolTable
 70
3
  0
APPID
  5
2A
330
3
100
AcDbSymbolTableRecord
100
AcDbRegAppTableRecord
  2
ACAD
 70
0
  0
APPID
  5
B6
330
3
100
AcDbSymbolTableRecord
100
AcDbRegAppTableRecord
  2
HATCHBACKGROUNDCOLOR
 70
0
  0
APPID
  5
B7
330
3
100
AcDbSymbolTableRecord
100
AcDbRegAppTableRecord
  2
EZDXF
 70
0
  0
ENDTAB
  0
TABLE
  2
DIMSTYLE
  5
4
330
0
100
AcDbSymbolTable
 70
12
100
AcDbDimStyleTable
  0
DIMSTYLE
105
2B
330
4
100
AcDbSymbolTableRecord
100
AcDbDimStyleTableRecord
  2
Standard
 70
0
 40
1.0
 41
2.5
 42
0.625
 43
3.75
 44
1.25
 45
0.0
 46
0.0
 47
0.0
 48
0.0
 49
2.5
140
2.5
141
2.5
142
0.0
143
0.03937007874
144
1.0
145
0.0
146
1.0
147
0.625
148
0.0
 69
0
 70
0
 71
0
 72
0
 73
0
 74
0
 75
0
 76
0
 77
1
 78
8
 79
3
170
0
171
3
172
1
173
0
174
0
175
0
176
0
177
0
178
0
179
2
271
2
272
2
273
2
274
3
275
0
276
0
277
2
278
44
279
0
280
0
281
0
282
0
283
0
284
8
285
0
286
0
288
0
289
3
290
0
371
-2
372
-2
  0
DIMSTYLE
105
73
330
4
100
AcDbSymbolTableRecord
100
AcDbDimStyleTableRecord
  2
EZDXF
 70
0
 40
1.0
 41
0.175
 42
0.125
 43
3.75
 44
0.375
 45
0.0
 46
0.0
 47
0.0
 48
0.0
 49
2.5
140
0.25
141
2.5
142
0.0
143
0.03937007874
144
100.0
145
0.0
146
0.5
147
0.1
148
0.0
 69
0
 70
0
 71
0
 72
0
 73
0
 74
0
 75
0
 76
0
 77
1
 78
12
 79
3
170
0
171
3
172
1
173
0
174
0
175
0
176
0
177
0
178
0
179
2
271
2
272
2
273
2
274
3
275
0
276
0
277
2
278
46
279
2
280
0
281
0
282
0
283
0
284
8
285
0
286
0
288
1
289
3
290
0
340
4C
342
74
371
-2
372
-2
  0
DIMSTYLE
105
7C
330
4
100
AcDbSymbolTableRecord
100
AcDbDimStyleTableRecord
  2
EZ_M_100_H25_CM
 70
0
 40
1.0
 41
0.25
 42
0.125
 43
3.75
 44
0.375
 45
0.0
 46
0.0
 47
0.0
 48
0.0
 49
2.5
140
0.25
141
2.5
142
0.125
143
0.03937007874
144
100.0
145
0.0
146
0.5
147
0.1
148
0.0
 69
0
 70
0
 71
0
 72
0
 73
0
 74
0
 75
0
 76
0
 77
1
 78
12
 79
3
170
0
171
3
172
1
173
0
174
0
175
0
176
0
177
0
178
0
179
2
271
2
272
2
273
2
274
3
275
0
276
0
277
2
278
46
279
2
280
0
281
0
282
0
283
0
284
8
285
0
286
0
288
1
289
3
290
0
340
4C
371
-2
372
-2
  0
DIMSTYLE
105
7D
330
4
100
AcDbSymbolTableRecord
100
AcDbDimStyleTableRecord
  2
EZ_M_50_H25_CM
 70
0
 40
1.0
 41
0.125
 42
0.0625
 43
3.75
 44
0.1875
 45
0.0
 46
0.0
 47
0.0
 48
0.0
 49
2.5
140
0.125
141
2.5
142
0.0625
143
0.03937007874
144
100.0
145
0.0
146
0.5
147
0.05
148
0.0
 69
0
 70
0
 71
0
 72
0
 73
0
 74
0
 75
0
 76
0
 77
1
 78
12
 79
3
170
0
171
3
172
1
173
0
174
0
175
0
176
0
177
0
178
0
179
2
271
2
272
2
273
2
274
3
275
0
276
0
277
2
278
46
279
2
280
0
281
0
282
0
283
0
284
8
285
0
286
0
288
1
289
3
290
0
340
4C
371
-2
372
-2
  0
DIMSTYLE
105
7E
330
4
100
AcDbSymbolTableRecord
100
AcDbDimStyleTableRecord
  2
EZ_M_25_H25_CM
 70
0
 40
1.0
 41
0.0625
 42
0.03125
 43
3.75
 44
0.09375
 45
0.0
 46
0.0
 47
0.0
 48
0.0
 49
2.5
140
0.0625
141
2.5
142
0.03125
143
0.03937007874
144
100.0
145
0.0
146
0.5
147
0.025
148
0.0
 69
0
 70
0
 71
0
 72
0
 73
0
 74
0
 75
0
 76
0
 77
1
 78
12
 79
3
170
0
171
3
172
1
173
0
174
0
175
0
176
0
177
0
178
0
179
2
271
2
272
2
273
2
274
3
275
0
276
0
277
2
278
46
279
2
280
0
281
0
282
0
283
0
284
8
285
0
286
0
288
1
289
3
290
0
340
4C
371
-2
372
-2
  0
DIMSTYLE
105
7F
330
4
100
AcDbSymbolTableRecord
100
AcDbDimStyleTableRecord
  2
EZ_M_20_H25_CM
 70
0
 40
1.0
 41
0.05
 42
0.025
 43
3.75
 44
0.07500000000000001
 45
0.0
 46
0.0
 47
0.0
 48
0.0
 49
2.5
140
0.05
141
2.5
142
0.025
143
0.03937007874
144
100.0
145
0.0
146
0.5
147
0.020000000000000004
148
0.0
 69
0
 70
0
 71
0
 72
0
 73
0
 74
0
 75
0
 76
0
 77
1
 78
12
 79
3
170
0
171
3
172
1
173
0
174
0
175
0
176
0
177
0
178
0
179
2
271
2
272
2
273
2
274
3
275
0
276
0
277
2
278
46
279
2
280
0
281
0
282
0
283
0
284
8
285
0
286
0
288
1
289
3
290
0
340
4C
371
-2
372
-2
  0
DIMSTYLE
105
80
330
4
100
AcDbSymbolTableRecord
100
AcDbDimStyleTableRecord
  2
EZ_M_10_H25_CM
 70
0
 40
1.0
 41
0.025
 42
0.0125
 43
3.75
 44
0.037500000000000006
 45
0.0
 46
0.0
 47
0.0
 48
0.0
 49
2.5
140
0.025
141
2.5
142
0.0125
143
0.03937007874
144
100.0
145
0.0
146
0.5
147
0.010000000000000002
148
0.0
 69
0
 70
0
 71
0
 72
0
 73
0
 74
0
 75
0
 76
0
 77
1
 78
12
 79
3
170
0
171
3
172
1
173
0
174
0
175
0
176
0
177
0
178
0
179
2
271
2
272
2
273
2
274
3
275
0
276
0
277
2
278
46
279
2
280
0
281
0
282
0
283
0
284
8
285
0
286
0
288
1
289
3
290
0
340
4C
371
-2
372
-2
  0
DIMSTYLE
105
81
330
4
100
AcDbSymbolTableRecord
100
AcDbDimStyleTableRecord
  2
EZ_M_5_H25_CM
 70
0
 40
1.0
 41
0.0125
 42
0.00625
 43
3.75
 44
0.018750000000000003
 45
0.0
 46
0.0
 47
0.0
 48
0.0
 49
2.5
140
0.0125
141
2.5
142
0.00625
143
0.03937007874
144
100.0
145
0.0
146
0.5
147
0.005000000000000001
148
0.0
 69
0
 70
0
 71
0
 72
0
 73
0
 74
0
 75
0
 76
0
 77
1
 78
12
 79
3
170
0
171
3
172
1
173
0
174
0
175
0
176
0
177
0
178
0
179
2
271
2
272
2
273
2
274
3
275
0
276
0
277
2
278
46
279
2
280
0
281
0
282
0
283
0
284
8
285
0
286
0
288
1
289
3
290
0
340
4C
371
-2
372
-2
  0
DIMSTYLE
105
82
330
4
100
AcDbSymbolTableRecord
100
AcDbDimStyleTableRecord
  2
EZ_M_1_H25_CM
 70
0
 40
1.0
 41
0.0025
 42
0.00125
 43
3.75
 44
0.00375
 45
0.0
 46
0.0
 47
0.0
 48
0.0
 49
2.5
140
0.0025
141
2.5
142
0.00125
143
0.03937007874
144
100.0
145
0.0
146
0.5
147
0.001
148
0.0
 69
0
 70
0
 71
0
 72
0
 73
0
 74
0
 75
0
 76
0
 77
1
 78
12
 79
3
170
0
171
3
172
1
173
0
174
0
175
0
176
0
177
0
178
0
179
2
271
2
272
2
273
2
274
3
275
0
276
0
277
2
278
46
279
2
280
0
281
0
282
0
283
0
284
8
285
0
286
0
288
1
289
3
290
0
340
4C
371
-2
372
-2
  0
DIMSTYLE
105
83
330
4
100
AcDbSymbolTableRecord
100
AcDbDimStyleTableRecord
  2
EZ_RADIUS
 70
0
 40
1.0
 41
0.25
 42
0.125
 43
3.75
 44
0.375
 45
0.0
 46
0.0
 47
0.0
 48
0.0
 49
2.5
140
0.25
141
0.0
142
0.0
143
0.03937007874
144
100.0
145
0.0
146
0.5
147
0.1
148
0.0
 69
0
 70
0
 71
0
 72
0
 73
0
 74
0
 75
0
 76
0
 77
1
 78
12
 79
3
170
0
171
3
172
0
173
0
174
0
175
0
176
0
177
0
178
0
179
2
271
2
272
2
273
2
274
3
275
0
276
0
277
2
278
46
279
1
280
0
281
0
282
0
283
0
284
8
285
0
286
0
288
1
289
3
290
0
340
4C
342
84
371
-2
372
-2
  0
DIMSTYLE
105
88
330
4
100
AcDbSymbolTableRecord
100
AcDbDimStyleTableRecord
  2
EZ_RADIUS_INSIDE
 70
0
 40
1.0
 41
0.25
 42
0.125
 43
3.75
 44
0.375
 45
0.0
 46
0.0
 47
0.0
 48
0.0
 49
2.5
140
0.25
141
0.0
142
0.0
143
0.03937007874
144
100.0
145
0.0
146
0.5
147
0.1
148
0.0
 69
0
 70
0
 71
0
 72
0
 73
0
 74
0
 75
0
 76
0
 77
0
 78
12
 79
3
170
0
171
3
172
0
173
0
174
1
175
0
176
0
177
0
178
0
179
2
271
2
272
2
273
2
274
3
275
0
276
0
277
2
278
46
279
0
280
0
281
0
282
0
283
0
284
8
285
0
286
0
288
1
289
0
290
0
340
4C
342
84
371
-2
372
-2
  0
DIMSTYLE
105
89
330
4
100
AcDbSymbolTableRecord
100
AcDbDimStyleTableRecord
  2
EZ_CURVED
 70
0
 40
1.0
 41
0.25
 42
0.125
 43
3.75
 44
0.375
 45
0.0
 46
0.0
 47
0.0
 48
0.0
 49
2.5
140
0.25
141
2.5
142
0.0
143
0.03937007874
144
100.0
145
0.0
146
0.5
147
0.1
148
0.0
 69
0
 70
0
 71
0
 72
0
 73
0
 74
0
 75
0
 76
0
 77
1
 78
12
 79
2
 90
2
170
0
171
3
172
1
173
0
174
0
175
0
176
0
177
0
178
0
179
2
271
2
272
2
273
2
274
3
275
0
276
0
277
2
278
46
279
2
280
0
281
0
282
0
283
0
284
8
285
0
286
0
288
1
289
3
290
0
340
4C
371
-2
372
-2
  0
ENDTAB
  0
TABLE
  2
BLOCK_RECORD
  5
9
330
0
100
AcDbSymbolTable
 70
5
  0
BLOCK_RECORD
  5
17
330
9
100
AcDbSymbolTableRecord
100
AcDbBlockTableRecord
  2
*Model_Space
340
1A
 70
0
280
1
281
0
  0
BLOCK_RECORD
  5
1B
330
9
100
AcDbSymbolTableRecord
100
AcDbBlockTableRecord
  2
*Paper_Space
340
1E
 70
0
280
1
281
0
  0
BLOCK_RECORD
  5
74
330
9
100
AcDbSymbolTableRecord
100
AcDbBlockTableRecord
  2
_ARCHTICK
340
0
 70
0
280
1
281
0
  0
BLOCK_RECORD
  5
78
330
9
100
AcDbSymbolTableRecord
100
AcDbBlockTableRecord
  2
_CLOSEDFILLED
340
0
 70
0
280
1
281
0
  0
BLOCK_RECORD
  5
84
330
9
100
AcDbSymbolTableRecord
100
AcDbBlockTableRecord
  2
_CLOSEDBLANK
340
0
 70
0
280
1
281
0
  0
ENDTAB
  0
ENDSEC
  0
SECTION
  2
BLOCKS
  0
BLOCK
  5
18
330
17
100
AcDbEntity
  8
0
100
AcDbBlockBegin
  2
*Model_Space
 70
0
 10
0.0
 20
0.0
 30
0.0
  3
*Model_Space
  1

  0
ENDBLK
  5
19
330
17
100
AcDbEntity
  8
0
100
AcDbBlockEnd
  0
BLOCK
  5
1C
330
1B
100
AcDbEntity
  8
0
100
AcDbBlockBegin
  2
*Paper_Space
 70
0
 10
0.0
 20
0.0
 30
0.0
  3
*Paper_Space
  1

  0
ENDBLK
  5
1D
330
1B
100
AcDbEntity
  8
0
100
AcDbBlockEnd
  0
BLOCK
  5
75
330
74
100
AcDbEntity
  8
0
100
AcDbBlockBegin
  2
_ARCHTICK
 70
0
 10
0.0
 20
0.0
 30
0.0
  3
_ARCHTICK
  1

  0
LWPOLYLINE
  5
77
330
74
100
AcDbEntity
  8
0
  6
BYBLOCK
 62
0
100
AcDbPolyline
 90
2
 70
0
 43
0.15
 10
-0.5
 20
-0.5
 10
0.5
 20
0.5
  0
ENDBLK
  5
76
330
74
100
AcDbEntity
  8
0
100
AcDbBlockEnd
  0
BLOCK
  5
79
330
78
100
AcDbEntity
  8
0
100
AcDbBlockBegin
  2
_CLOSEDFILLED
 70
0
 10
0.0
 20
0.0
 30
0.0
  3
_CLOSEDFILLED
  1

  0
SOLID
  5
7B
330
78
100
AcDbEntity
  8
0
  6
BYBLOCK
 62
0
100
AcDbTrace
 10
-1.0
 20
0.16439898372402537
 30
0.0
 11
0.0
 21
0.0
 31
0.0
 12
-1.0
 22
-0.16439898372402537
 32
0.0
 13
-1.0
 23
-0.16439898372402537
 33
0.0
  0
ENDBLK
  5
7A
330
78
100
AcDbEntity
  8
0
100
AcDbBlockEnd
  0
BLOCK
  5
85
330
84
100
AcDbEntity
  8
0
100
AcDbBlockBegin
  2
_CLOSEDBLANK
 70
0
 10
0.0
 20
0.0
 30
0.0
  3
_CLOSEDBLANK
  1

  0
LWPOLYLINE
  5
87
330
84
100
AcDbEntity
  8
0
  6
BYBLOCK
 62
0
100
AcDbPolyline
 90
3
 70
1
 10
-1.0
 20
0.16439898372402537
 10
0.0
 20
0.0
 10
-1.0
 20
-0.16439898372402537
  0
ENDBLK
  5
86
330
84
100
AcDbEntity
  8
0
100
AcDbBlockEnd
  0
ENDSEC
  0
SECTION
  2
ENTITIES
  0
LWPOLYLINE
  5
8C
330
17
100
AcDbEntity
  8
Layer
100
AcDbPolyline
 90
261
 70
1
 10
892.5685388897452
 20
120.97629668219082
 10
889.2525528086435
 20
122.17161221213688
 10
883.8507661930312
 20
124.11071661534548
 10
877.9156866050932
 20
126.22152018831896
 10
871.4426417087832
 20
128.48012396415965
 10
864.4028509381806
 20
130.8833499452625
 10
856.8381152777971
 20
133.46233027786934
 10
848.8323977379079
 20
136.20689403048186
 10
840.4740890449755
 20
139.09710250865933
 10
831.8342591360272
 20
142.11007020741803
 10
822.9797095612728
 20
145.2229203578193
 10
813.9559325732031
 20
148.41890038023627
 10
804.8015872264039
 20
151.67914206515553
 10
795.548291411792
 20
154.99107706886724
 10
786.2162098264289
 20
158.3422126685141
 10
776.8315136304614
 20
161.71766958129402
 10
767.4210262409997
 20
165.10546448850664
 10
758.0098516133469
 20
168.49109879611336
 10
748.6140005565123
 20
171.86327817850307
 10
739.245931398284
 20
175.2152201781677
 10
729.9168773636636
 20
178.53845932640735
 10
720.6288081250259
 20
181.82686354314274
 10
711.3833173280925
 20
185.0772149906205
 10
702.1849127007649
 20
188.28484418525213
 10
693.0353172191008
 20
191.44405704190115
 10
683.9329936705949
 20
194.55132980299243
 10
675.3746171326919
 20
197.4366525488129
 10
675.0551495660962
 20
196.48905533802477
 10
674.5633581013694
 20
196.65486977643386
 10
665.5636560517971
 20
199.64595350802566
 10
656.6107462652683
 20
202.5725061289325
 10
647.6979965294174
 20
205.43297671886106
 10
638.8219986354118
 20
208.2262968743559
 10
629.9791410335492
 20
210.9500434435059
 10
621.1623527303709
 20
213.6028008622097
 10
612.3646166150106
 20
216.1851431169202
 10
603.5822920175272
 20
218.6973636576877
 10
594.8126695228436
 20
221.1383958924229
 10
586.0506346273141
 20
223.50763708075536
 10
577.2908391072588
 20
225.80565672876418
 10
568.5312533337848
 20
228.03352392447434
 10
559.7713462170383
 20
230.19054296528702
 10
551.0083133597498
 20
232.27569876683216
 10
542.2383923871107
 20
234.28970461897967
 10
533.460664121269
 20
236.23356933140838
 10
524.6763109989937
 20
238.10675325340137
 10
515.8841209041206
 20
239.90829605975009
 10
507.0820082161108
 20
241.63843978912425
 10
498.26909381936144
 20
243.29803319816588
 10
489.44739958110597
 20
244.8870966792029
 10
480.6174646201368
 20
246.40445454018285
 10
471.7776083158405
 20
247.84988377827193
 10
462.9276935607314
 20
249.2243541000516
 10
454.0698723195645
 20
250.52753338352088
 10
445.20430731372613
 20
251.75808513200826
 10
436.326958388005
 20
252.9153223152369
 10
427.4337961336636
 20
254.0011051044943
 10
418.5265331038833
 20
255.01743248165963
 10
409.60919217789746
 20
255.96403732852394
 10
400.68283278382484
 20
256.8397057163978
 10
391.7463410104541
 20
257.6446035134021
 10
382.8020525267023
 20
258.38052454699545
 10
373.85619098916374
 20
259.0474213402583
 10
364.9127300789008
 20
259.6433565732136
 10
355.97172900711354
 20
260.16717101758667
 10
347.0347901257818
 20
260.62000529925353
 10
338.1077083725119
 20
261.00167346331216
 10
329.19498153575677
 20
261.3103864273662
 10
320.2965479514482
 20
261.54409297443493
 10
311.4129661155417
 20
261.7034701000961
 10
302.5496167209252
 20
261.78872960525064
 10
293.7112236101217
 20
261.7978935767459
 10
284.8985922505417
 20
261.7287585139629
 10
276.1119602718648
 20
261.5813967064888
 10
267.3568276994391
 20
261.3562068303992
 10
258.6389814899825
 20
261.0513330096086
 10
249.95939808773187
 20
260.6640989501572
 10
241.31947380528868
 20
260.1945042405978
 10
232.72532084160912
 20
259.6430259306041
 10
224.18381844896209
 20
259.0075644801476
 10
215.69644944307535
 20
258.28529137140015
 10
207.26606737679558
 20
257.4767642451976
 10
198.90115813172665
 20
256.58234853445924
 10
190.6083684394002
 20
255.5992980421069
 10
182.39020642574312
 20
254.52568740545198
 10
174.2527984939409
 20
253.36291479918117
 10
166.20646250834548
 20
252.1107650818656
 10
158.25791404746403
 20
250.7671799382643
 10
150.41291839551272
 20
249.33365783542035
 10
142.68765831386338
 20
247.8160497892381
 10
135.1016750331844
 20
246.21525208488143
 10
127.66693976277284
 20
244.53029894320068
 10
120.39661106065964
 20
242.76724575265447
 10
113.3142713003005
 20
240.93468517885125
 10
106.44115541387728
 20
239.03563461148366
 10
99.79209471609082
 20
237.07596875468187
 10
93.38725246280376
 20
235.06983559748562
 10
87.25139533370918
 20
233.02978671605038
 10
81.4014362893422
 20
230.96364027669435
 10
75.84845579893903
 20
228.88505007548372
 10
70.60514837881931
 20
226.8112732056837
 10
65.68012478166958
 20
224.7535407617592
 10
61.07196390627223
 20
222.71991401562477
 10
56.77423605650779
 20
220.72194948501965
 10
52.77963994239474
 20
218.76995841384607
 10
49.077071722815504
 20
216.8675660458124
 10
45.650039026499144
 20
215.01492164887276
 10
42.479357088445965
 20
213.2139149074704
 10
39.547216955706915
 20
211.46753163117145
 10
36.83739774205793
 20
209.77525901414063
 10
34.33320608925112
 20
208.13329001286988
 10
32.01799873347426
 20
206.53781793892654
 10
29.875779949012326
 20
204.98637575965225
 10
27.89334025682558
 20
203.47798026869418
 10
26.059870068467433
 20
202.00962382985958
 10
24.3654886497975
 20
200.57604717583666
 10
22.79838168324892
 20
199.17042784453997
 10
21.345389450059827
 20
197.79056289152967
 10
19.99344168182182
 20
196.4375030502837
 10
18.732468280264584
 20
195.11676776252943
 10
17.556978043804577
 20
193.8323780954681
 10
16.466872489222226
 20
192.58705739901242
 10
15.464511547315226
 20
191.3758961400076
 10
14.552042320577016
 20
190.1916828407809
 10
13.72904401243926
 20
189.0249635438807
 10
12.990831929804017
 20
187.86691252659057
 10
12.330427375548254
 20
186.71546019275692
 10
11.740012175869936
 20
185.57231558315289
 10
11.21409540267598
 20
184.44421952228592
 10
10.750264074082452
 20
183.33622266520075
 10
10.349225441105489
 20
182.2525438570355
 10
10.013341528273543
 20
181.19344320287206
 10
9.744635706004601
 20
180.15592965392145
 10
9.543455041993013
 20
179.13703292823647
 10
9.408146108155563
 20
178.13449767891154
 10
9.332069610465453
 20
177.06850540568075
 10
9.321759486741144
 20
176.1596490513422
 10
9.3712744412029
 20
175.16544576093776
 10
9.490149067402797
 20
174.17435499512393
 10
9.687194968061704
 20
173.19096614695226
 10
9.97322643316943
 20
172.2152516150603
 10
10.357254237175653
 20
171.2458052153657
 10
10.842481974137854
 20
170.28322768780777
 10
11.425772722592058
 20
169.33063294661486
 10
12.100593774039112
 20
168.39329130880526
 10
12.862604189135311
 20
167.47626358028842
 10
13.71137974944321
 20
166.58370822739988
 10
14.650713107492777
 20
165.7176512916372
 10
15.68433864911043
 20
164.87824419127207
 10
16.81449962856442
 20
164.06359275582506
 10
18.039945864608228
 20
163.27098432301585
 10
19.3597711215059
 20
162.49743299313536
 10
20.77327855790162
 20
161.74130117342918
 10
22.284726081820565
 20
161.00195535603643
 10
23.900318337735428
 20
160.27913878606725
 10
25.629904379052675
 20
159.5720132512834
 10
27.48331634330458
 20
158.87781081760454
 10
29.47053962651222
 20
158.19224033772304
 10
31.602596425071283
 20
157.51057132915858
 10
33.89121581602126
 20
156.82861673523897
 10
36.3519488688184
 20
156.1441009632103
 10
39.00376097557751
 20
155.455988628413
 10
41.86960035444457
 20
154.76320404836457
 10
44.97422896940054
 20
154.06362315183515
 10
48.34486084425174
 20
153.35518273279615
 10
52.01040585490432
 20
152.63705257465173
 10
56.003315011452116
 20
151.91054159985498
 10
60.35839933639306
 20
151.1778792730638
 10
65.109190041928
 20
150.44004767739148
 10
70.28387756789806
 20
149.69870607914507
 10
75.90376633765584
 20
148.95944493202444
 10
81.98277634628528
 20
148.2303122990254
 10
88.52369278147484
 20
147.51745187208078
 10
95.5113320272151
 20
146.8259885650007
 10
102.91678663134158
 20
146.1649018815456
 10
110.70673999543283
 20
145.5417645840669
 10
118.83983928723507
 20
144.95873862104673
 10
127.26792105568447
 20
144.41894067260435
 10
135.95175800960462
 20
143.9260697445021
 10
144.85803337800596
 20
143.4782909047471
 10
153.952957088421
 20
143.0735113397647
 10
163.2170356135252
 20
142.7129375532217
 10
172.6461383002422
 20
142.389181098905
 10
182.21306902211296
 20
142.0843283962915
 10
183.22352266966257
 20
142.05351494077058
 10
183.19304216314097
 20
141.05397957935398
 10
191.82487936908183
 20
140.79075278591006
 10
201.4927378829124
 20
140.52133194890393
 10
211.19345079534966
 20
140.29208398831065
 10
220.96437957072885
 20
140.10135457905807
 10
230.82525709813763
 20
139.93295750221262
 10
240.75738949758443
 20
139.7695957841014
 10
250.72385244874067
 20
139.6025075182956
 10
260.69432488161794
 20
139.43557139417152
 10
270.6468221628943
 20
139.2832641111924
 10
280.6018728453306
 20
139.1574512750106
 10
290.5959820142405
 20
139.0550166007176
 10
300.6434865700415
 20
138.96232604906976
 10
310.72641137505525
 20
138.8690459263998
 10
320.82961929435396
 20
138.77516580043246
 10
330.9406511405913
 20
138.68309620037462
 10
341.0483347944454
 20
138.59159686380775
 10
351.13794458871274
 20
138.5009733411558
 10
361.2021707207006
 20
138.41853851765202
 10
371.2535641020939
 20
138.35062670928724
 10
381.3058204305315
 20
138.29167558190957
 10
391.3528650683223
 20
138.22703527066125
 10
401.4008394594445
 20
138.15049308207375
 10
411.44981049577797
 20
138.07082796788683
 10
421.4970980072049
 20
138.0014860636535
 10
431.5546947782241
 20
137.94314635341365
 10
441.6174077685149
 20
137.88679880997194
 10
451.6664659790888
 20
137.82872445109442
 10
461.69134219339816
 20
137.77866972306575
 10
471.70000311412684
 20
137.7436315345089
 10
481.70020947927276
 20
137.71532709253435
 10
491.6785016877109
 20
137.67432789194777
 10
501.6520480004151
 20
137.61254755158768
 10
511.6310917583951
 20
137.53944472033714
 10
521.6024356810801
 20
137.4691639089608
 10
531.5365892467497
 20
137.3960846046984
 10
541.4190285926053
 20
137.30200367118027
 10
551.2758238807849
 20
137.17956738712354
 10
561.1115680695136
 20
137.0517326344953
 10
570.9050880611866
 20
136.95189843160304
 10
580.6992724440653
 20
136.89083490038843
 10
590.5092453888847
 20
136.84165428249696
 10
600.3140301934542
 20
136.7694673155031
 10
610.1375615240909
 20
136.66314788208285
 10
619.9934658188181
 20
136.54040067323842
 10
629.840712409656
 20
136.4169982945198
 10
639.6347045262034
 20
136.28127090623997
 10
649.3760995270939
 20
136.10646782527314
 10
659.1229853971772
 20
135.88256758264498
 10
668.9120565353076
 20
135.63049069455514
 10
678.7163405762649
 20
135.37654880066
 10
688.4820534219521
 20
135.1211441279545
 10
698.1731848909861
 20
134.83609276136232
 10
707.831044962237
 20
134.49815919348254
 10
717.5140107928357
 20
134.11254567860942
 10
727.2302142001117
 20
133.70611549566044
 10
736.9200299383916
 20
133.298289637224
 10
746.5193283086194
 20
132.8764117836825
 10
756.0212634483273
 20
132.4066806136563
 10
765.4902078301839
 20
131.86671884972492
 10
774.991760698268
 20
131.27044981767494
 10
784.5131885285922
 20
130.65433197053719
 10
793.9658420007144
 20
130.03250243345036
 10
803.2882718859024
 20
129.3825129875835
 10
812.4822568413392
 20
128.6860401748391
 10
821.5451320877792
 20
127.9496583433441
 10
830.4368858690309
 20
127.18419744031168
 10
839.0997087991377
 20
126.39486561315127
 10
847.4737146314769
 20
125.57819584414852
 10
855.5205231362429
 20
124.7228375148216
 10
863.215065537888
 20
123.8408933196481
 10
870.4960047929237
 20
122.97255113449172
 10
877.2801309856181
 20
122.14899593405137
 10
883.5127211093259
 20
121.36905882297361
 10
889.1957967553794
 20
120.63262050641936
 10
892.6895292529666
 20
120.17273201501206
  0
LWPOLYLINE
  5
8D
330
17
100
AcDbEntity
  8
Layer
100
AcDbPolyline
 90
5
 70
0
 10
588.88631038304
 20
218.59719881811816
 10
585.0249766636465
 20
219.64127827269738
 10
586.0690561182256
 20
223.50261199209092
 10
589.9303898376191
 20
222.4585325375117
 10
588.88631038304
 20
218.59719881811816
  0
LWPOLYLINE
  5
8E
330
17
100
AcDbEntity
  8
Layer
100
AcDbPolyline
 90
5
 70
0
 10
255.44598281746494
 20
256.9048729972138
 10
251.44995921877415
 20
256.72656035406584
 10
251.27164657562628
 20
260.72258395275657
 10
255.26767017431706
 20
260.9008965959045
 10
255.44598281746494
 20
256.9048729972138
  0
LWPOLYLINE
  5
8F
330
17
100
AcDbEntity
  8
Layer
100
AcDbPolyline
 90
5
 70
0
 10
104.12744163791083
 20
234.18348954354238
 10
100.2906494746671
 20
233.0525492727626
 10
99.15970920388733
 20
236.88934143600633
 10
102.99650136713106
 20
238.0202817067861
 10
104.12744163791083
 20
234.18348954354238
  0
LWPOLYLINE
  5
90
330
17
100
AcDbEntity
  8
Layer
100
AcDbPolyline
 90
5
 70
0
 10
27.787528962583128
 20
196.92886961755903
 10
26.299070717575393
 20
195.59302080393212
 10
22.959448683508054
 20
199.31416641645149
 10
24.44790692851579
 20
200.6500152300784
 10
27.787528962583128
 20
196.92886961755903
  0
LWPOLYLINE
  5
91
330
17
100
AcDbEntity
  8
Layer
100
AcDbPolyline
 90
5
 70
0
 10
18.78712051254762
 20
168.80563343189883
 10
20.411129577780326
 20
167.63833117625038
 10
17.49287393865917
 20
163.5783085131686
 10
15.868864873426462
 20
164.74561076881704
 10
18.78712051254762
 20
168.80563343189883
  0
LWPOLYLINE
  5
92
330
17
100
AcDbEntity
  8
Layer
100
AcDbPolyline
 90
5
 70
0
 10
137.1430082312583
 20
147.8712326086717
 10
141.13796284613653
 20
147.67039031964103
 10
140.93712055710586
 20
143.6754357047628
 10
136.94216594222763
 20
143.87627799379348
 10
137.1430082312583
 20
147.8712326086717
  0
LINE
  5
93
330
17
100
AcDbEntity
  8
Layer
100
AcDbLine
 10
873.8166255479159
 20
127.65178290539355
 30
0.0
 11
873.4895271088667
 21
126.70679263498249
 31
0.0
  0
LINE
  5
94
330
17
100
AcDbEntity
  8
Layer
100
AcDbLine
 10
872.8591691933477
 20
123.69215249915148
 30
0.0
 11
872.7798928827765
 21
122.69529981867045
 31
0.0
  0
LINE
  5
95
330
17
100
AcDbEntity
  8
Layer
100
AcDbLine
 10
854.8943633343565
 20
134.12869792092647
 30
0.0
 11
854.5688912532007
 21
133.18314627009605
 31
0.0
  0
LINE
  5
96
330
17
100
AcDbEntity
  8
Layer
100
AcDbLine
 10
853.0034057244209
 20
125.99599929651251
 30
0.0
 11
852.9061325241763
 21
125.00074157887641
 31
0.0
  0
LINE
  5
97
330
17
100
AcDbEntity
  8
Layer
100
AcDbLine
 10
779.4605101680803
 20
160.77208068302008
 30
0.0
 11
779.1299912683558
 21
159.82828130978183
 31
0.0
  0
LINE
  5
98
330
17
100
AcDbEntity
  8
Layer
100
AcDbLine
 10
773.2428635677481
 20
132.38190236502177
 30
0.0
 11
773.1572322070515
 21
131.38557547586078
 31
0.0
  0
LWPOLYLINE
  5
99
330
17
100
AcDbEntity
  8
Layer
100
AcDbPolyline
 90
300
 70
1
 10
395.23048530675374
 20
200.0
 10
395.2198209584548
 20
201.07697217013887
 10
395.18783262263406
 20
202.15346877968543
 10
395.13453442444
 20
203.22901447804148
 10
395.05994989885664
 20
204.3031343345045
 10
394.96411198031086
 20
205.3753540479836
 10
394.84706298812944
 20
206.4452001564375
 10
394.7088546078523
 20
207.5122002459421
 10
394.54954786840943
 20
208.57588315929513
 10
394.36921311517233
 20
209.635779204066
 10
394.16792997889144
 20
210.69142035999863
 10
393.9457873405333
 20
211.74234048567604
 10
393.7028832920335
 20
212.78807552435535
 10
393.4393250929818
 20
213.82816370888213
 10
393.15522912325946
 20
214.86214576559377
 10
392.850720831649
 20
215.88956511712178
 10
392.5259346804399
 20
216.9099680840036
 10
392.18101408605327
 20
217.92290408501455
 10
391.81611135571376
 20
218.9279258361319
 10
391.43138762019464
 20
219.9245895480429
 10
391.02701276266714
 20
220.91245512210952
 10
390.6031653436846
 20
221.8910863447039
 10
390.16003252233565
 20
222.86005107982768
 10
389.6978099735993
 20
223.81892145993132
 10
389.2167018019411
 20
224.76727407484825
 10
388.7169204511859
 20
225.70469015876097
 10
388.1986866107087
 20
226.6307557751161
 10
387.6622291179847
 20
227.54506199940735
 10
387.1077848575406
 20
228.4472050997448
 10
386.5355986563537
 20
229.33678671513172
 10
385.9459231757428
 20
230.21341403136947
 10
385.3390187998
 20
231.07669995451332
 10
384.7151535204127
 20
231.92626328180205
 10
384.0746028189257
 20
232.7617288699865
 10
383.41764954449656
 20
233.58272780098233
 10
382.74458378919735
 20
234.38889754477358
 10
382.05570275991795
 20
235.17988211949606
 10
381.3513106471281
 20
235.95533224862868
 10
380.63171849055544
 20
236.7149055152242
 10
379.8972440418389
 20
237.45826651311097
 10
379.14821162421873
 20
238.1850869949988
 10
378.38495198932446
 20
238.89504601742374
 10
377.6078021711242
 20
239.58783008246758
 10
376.81710533710003
 20
240.26313327618993
 10
376.0132106367148
 20
240.92065740371098
 10
375.1964730472377
 20
241.56011212088606
 10
374.36725321699606
 20
242.18121506251347
 10
373.52591730612346
 20
242.78369196701894
 10
372.6728368248736
 20
243.36727679756189
 10
371.80838846957175
 20
243.93171185950968
 10
370.93295395627644
 20
244.47674791422847
 10
370.0469198522243
 20
245.00214428913992
 10
369.1506774051326
 20
245.50766898399536
 10
368.24462237043593
 20
245.9930987733206
 10
367.3291548365311
 20
246.45821930498616
 10
366.40467904810953
 20
246.90282519485885
 10
365.4716032276543
 20
247.32672011749395
 10
364.5303393951807
 20
247.7297168928267
 10
363.58130318629946
 20
248.11163756882596
 10
362.6249136686839
 20
248.4723135000727
 10
361.66159315702157
 20
248.81158542222911
 10
360.69176702653186
 20
249.1293035223653
 10
359.7158635251322
 20
249.42532750511234
 10
358.7343135843361
 20
249.6995266546129
 10
357.7475506289656
 20
249.95177989224155
 10
356.7560103857633
 20
250.18197583006977
 10
355.7601306909876
 20
250.39001282005174
 10
354.7603512970765
 20
250.57579899890914
 10
353.75711367846554
 20
250.73925232869544
 10
352.7508608366447
 20
250.88030063302165
 10
351.7420371045418
 20
250.99888162892728
 10
350.7310879503173
 20
251.09494295438265
 10
349.71845978065846
 20
251.16844219141075
 10
348.70459974365826
 20
251.21934688481753
 10
347.6899555313678
 20
251.24763455652345
 10
346.67497518210774
 20
251.253292715489
 10
345.6601068826275
 20
251.2363188632305
 10
344.6457987701984
 20
251.19672049492323
 10
343.6324987347289
 20
251.1345150960919
 10
342.6206542209892
 20
251.0497301348895
 10
341.61071203103194
 20
250.94240304996808
 10
340.6031181268972
 20
250.812581233947
 10
339.59831743368807
 20
250.66032201248552
 10
338.5967536431044
 20
250.4856926189696
 10
337.59886901752094
 20
250.28877016482343
 10
336.60510419469676
 20
250.06964160545914
 10
335.615897993202
 20
249.82840370187978
 10
334.6316872186479
 20
249.56516297795253
 10
333.6529064708059
 20
249.28003567337046
 10
332.6799879517004
 20
248.9731476923247
 10
331.7133612747607
 20
248.64463454790837
 10
330.75345327511565
 20
248.29464130227802
 10
329.8006878211154
 20
247.92332250259824
 10
328.85548562716303
 20
247.53084211279793
 10
327.91826406793876
 20
247.1173734411684
 10
326.9894369940994
 20
246.68309906383547
 10
326.0694145495331
 20
246.2282107441388
 10
325.1586029902518
 20
245.7529093479548
 10
324.25740450499956
 20
245.2574047549997
 10
323.3662170376578
 20
244.74191576615272
 10
322.4854341115241
 20
244.20667000683977
 10
321.61544465554357
 20
243.65190382652034
 10
320.75663283256887
 20
243.07786219432236
 10
319.9093778697244
 20
242.4847985908707
 10
319.0740538909505
 20
241.87297489635722
 10
318.25102975180096
 20
241.24266127490182
 10
317.4406688765666
 20
240.59413605525577
 10
316.64332909779716
 20
239.92768560789926
 10
315.859362498293
 20
239.24360421858853
 10
315.08911525563497
 20
238.54219395840744
 10
314.33292748932206
 20
237.82376455038138
 10
313.5911331105842
 20
237.08863323271228
 10
312.8640596749368
 20
236.33712461869524
 10
312.15202823754106
 20
235.5695705533784
 10
311.45535321143524
 20
234.7863099670295
 10
310.77434222869863
 20
233.98768872547373
 10
310.10929600461
 20
233.17405947736927
 10
309.46050820486005
 20
232.34578149848753
 10
308.82826531587705
 20
231.50322053306695
 10
308.2128465183224
 20
230.64674863231082
 10
307.6145235638124
 20
229.77674399009985
 10
307.03356065492017
 20
228.8935907759924
 10
306.47021432851164
 20
227.99767896558606
 10
305.9247333424657
 20
227.08940416831535
 10
305.39735856582973
 20
226.16916745276177
 10
304.88832287245907
 20
225.2373751695532
 10
304.3978510381858
 20
224.29443877193086
 10
303.9261596415647
 20
223.34077463406317
 10
303.4734569682378
 20
222.3768038671867
 10
303.03994291896163
 20
221.40295213365525
 10
302.6258089213364
 20
220.41964945897925
 10
302.231237845277
 20
219.42733004193877
 10
301.85640392226315
 20
218.42643206285345
 10
301.50147266840315
 20
217.4173974900944
 10
301.16660081134694
 20
216.40067188492347
 10
300.8519362210797
 20
215.37670420474592
 10
300.5576178446263
 20
214.34594660486343
 10
300.2837756446962
 20
213.30885423881512
 10
300.0305305422962
 20
212.26588505739448
 10
299.79799436333417
 20
211.21749960643126
 10
299.58626978924065
 20
210.16416082342738
 10
299.39545031162726
 20
209.10633383313663
 10
299.22562019100354
 20
208.04448574217895
 10
299.0768544195698
 20
206.97908543277902
 10
298.94921868810286
 20
205.91060335572126
 10
298.84276935694857
 20
204.83951132261188
 10
298.7575534311349
 20
203.76628229754027
 10
298.6936085396158
 20
202.69139018823122
 10
298.65096291865524
 20
201.61530963678078
 10
298.6296353993589
 20
200.53851581006757
 10
298.6296353993589
 20
199.46148418993246
 10
298.65096291865524
 20
198.38469036321922
 10
298.6936085396158
 20
197.30860981176878
 10
298.7575534311349
 20
196.23371770245973
 10
298.84276935694857
 20
195.1604886773881
 10
298.94921868810286
 20
194.08939664427874
 10
299.0768544195698
 20
193.02091456722098
 10
299.22562019100354
 20
191.95551425782108
 10
299.39545031162726
 20
190.89366616686337
 10
299.58626978924065
 20
189.83583917657265
 10
299.79799436333417
 20
188.78250039356874
 10
300.0305305422962
 20
187.73411494260552
 10
300.2837756446962
 20
186.69114576118488
 10
300.5576178446263
 20
185.6540533951366
 10
300.8519362210797
 20
184.6232957952541
 10
301.16660081134694
 20
183.59932811507656
 10
301.5014726684031
 20
182.5826025099056
 10
301.85640392226315
 20
181.57356793714655
 10
302.231237845277
 20
180.57266995806123
 10
302.6258089213364
 20
179.58035054102072
 10
303.03994291896163
 20
178.59704786634475
 10
303.4734569682378
 20
177.6231961328133
 10
303.9261596415647
 20
176.65922536593683
 10
304.3978510381858
 20
175.70556122806917
 10
304.88832287245907
 20
174.7626248304468
 10
305.3973585658298
 20
173.83083254723823
 10
305.9247333424657
 20
172.91059583168465
 10
306.47021432851164
 20
172.00232103441394
 10
307.03356065492017
 20
171.10640922400762
 10
307.6145235638123
 20
170.22325600990015
 10
308.21284651832235
 20
169.3532513676892
 10
308.828265315877
 20
168.49677946693308
 10
309.46050820486
 20
167.6542185015125
 10
310.10929600461
 20
166.82594052263073
 10
310.77434222869863
 20
166.01231127452627
 10
311.45535321143524
 20
165.21369003297053
 10
312.15202823754106
 20
164.4304294466216
 10
312.8640596749368
 20
163.66287538130476
 10
313.5911331105842
 20
162.91136676728775
 10
314.33292748932206
 20
162.17623544961864
 10
315.089115255635
 20
161.45780604159256
 10
315.859362498293
 20
160.75639578141147
 10
316.64332909779716
 20
160.07231439210074
 10
317.4406688765665
 20
159.40586394474425
 10
318.25102975180096
 20
158.75733872509818
 10
319.0740538909505
 20
158.1270251036428
 10
319.9093778697244
 20
157.5152014091293
 10
320.75663283256887
 20
156.92213780567764
 10
321.6154446555436
 20
156.34809617347966
 10
322.4854341115241
 20
155.79332999316023
 10
323.3662170376578
 20
155.25808423384728
 10
324.25740450499956
 20
154.7425952450003
 10
325.1586029902518
 20
154.2470906520452
 10
326.0694145495331
 20
153.7717892558612
 10
326.9894369940994
 20
153.31690093616456
 10
327.91826406793876
 20
152.8826265588316
 10
328.855485627163
 20
152.46915788720207
 10
329.8006878211154
 20
152.07667749740176
 10
330.75345327511565
 20
151.70535869772198
 10
331.7133612747607
 20
151.35536545209163
 10
332.6799879517004
 20
151.0268523076753
 10
333.6529064708059
 20
150.71996432662954
 10
334.6316872186479
 20
150.43483702204747
 10
335.615897993202
 20
150.17159629812022
 10
336.60510419469676
 20
149.93035839454086
 10
337.59886901752094
 20
149.71122983517657
 10
338.5967536431044
 20
149.5143073810304
 10
339.59831743368807
 20
149.33967798751448
 10
340.60311812689724
 20
149.187418766053
 10
341.61071203103194
 20
149.05759695003192
 10
342.6206542209892
 20
148.9502698651105
 10
343.63249873472887
 20
148.8654849039081
 10
344.6457987701983
 20
148.80327950507677
 10
345.6601068826275
 20
148.7636811367695
 10
346.6749751821077
 20
148.746707284511
 10
347.6899555313678
 20
148.75236544347655
 10
348.70459974365826
 20
148.78065311518247
 10
349.71845978065846
 20
148.83155780858925
 10
350.7310879503173
 20
148.90505704561735
 10
351.7420371045418
 20
149.00111837107272
 10
352.7508608366447
 20
149.11969936697835
 10
353.75711367846554
 20
149.26074767130456
 10
354.76035129707657
 20
149.42420100109086
 10
355.76013069098764
 20
149.60998717994826
 10
356.75601038576326
 20
149.8180241699302
 10
357.7475506289656
 20
150.04822010775845
 10
358.73431358433606
 20
150.3004733453871
 10
359.7158635251322
 20
150.57467249488766
 10
360.6917670265318
 20
150.8706964776347
 10
361.66159315702157
 20
151.18841457777089
 10
362.6249136686839
 20
151.5276864999273
 10
363.58130318629946
 20
151.88836243117404
 10
364.5303393951807
 20
152.2702831071733
 10
365.4716032276543
 20
152.67327988250605
 10
366.40467904810953
 20
153.09717480514115
 10
367.3291548365311
 20
153.54178069501384
 10
368.244622370436
 20
154.0069012266794
 10
369.1506774051326
 20
154.49233101600467
 10
370.0469198522243
 20
154.99785571086008
 10
370.93295395627644
 20
155.5232520857715
 10
371.80838846957175
 20
156.06828814049032
 10
372.67283682487357
 20
156.63272320243811
 10
373.52591730612346
 20
157.21630803298103
 10
374.36725321699606
 20
157.81878493748653
 10
375.1964730472377
 20
158.43988787911394
 10
376.0132106367148
 20
159.07934259628902
 10
376.81710533710003
 20
159.73686672381007
 10
377.6078021711242
 20
160.41216991753242
 10
378.38495198932446
 20
161.10495398257626
 10
379.14821162421873
 20
161.8149130050012
 10
379.8972440418389
 20
162.54173348688903
 10
380.63171849055544
 20
163.2850944847758
 10
381.3513106471281
 20
164.04466775137135
 10
382.05570275991795
 20
164.82011788050394
 10
382.74458378919735
 20
165.6111024552264
 10
383.41764954449656
 20
166.41727219901765
 10
384.07460281892565
 20
167.23827113001346
 10
384.7151535204127
 20
168.07373671819795
 10
385.3390187998
 20
168.92330004548668
 10
385.9459231757428
 20
169.7865859686305
 10
386.5355986563537
 20
170.66321328486828
 10
387.1077848575406
 20
171.5527949002552
 10
387.6622291179847
 20
172.45493800059265
 10
388.1986866107087
 20
173.3692442248839
 10
388.7169204511859
 20
174.29530984123903
 10
389.21670180194116
 20
175.23272592515175
 10
389.6978099735993
 20
176.18107854006868
 10
390.16003252233565
 20
177.13994892017234
 10
390.6031653436847
 20
178.1089136552961
 10
391.02701276266714
 20
179.08754487789045
 10
391.43138762019464
 20
180.0754104519571
 10
391.81611135571376
 20
181.07207416386808
 10
392.18101408605327
 20
182.07709591498545
 10
392.5259346804399
 20
183.0900319159964
 10
392.850720831649
 20
184.11043488287822
 10
393.15522912325946
 20
185.13785423440623
 10
393.4393250929818
 20
186.17183629111787
 10
393.7028832920335
 20
187.21192447564465
 10
393.9457873405333
 20
188.25765951432396
 10
394.16792997889144
 20
189.30857964000137
 10
394.36921311517233
 20
190.364220795934
 10
394.54954786840943
 20
191.42411684070487
 10
394.7088546078523
 20
192.48779975405793
 10
394.84706298812944
 20
193.55479984356253
 10
394.96411198031086
 20
194.62464595201638
 10
395.05994989885664
 20
195.69686566549547
 10
395.13453442444
 20
196.7709855219585
 10
395.18783262263406
 20
197.84653122031455
 10
395.2198209584548
 20
198.9230278298611
 10
395.23048530675374
 20
200.0
  0
LINE
  5
9A
330
17
100
AcDbEntity
  8
Layer
 62
7
100
AcDbLine
 10
23.723261040789453
 20
200.00000000000003
 30
0.0
 11
664.4805570225028
 21
199.99999999999997
 31
0.0
  0
LINE
  5
9B
330
17
100
AcDbEntity
  8
Layer
 62
7
100
AcDbLine
 10
149.77472023713213
 20
200.00000000000003
 30
0.0
 11
161.77472023713213
 21
200.00000000000003
 31
0.0
  0
LWPOLYLINE
  5
9C
330
17
100
AcDbEntity
  8
Layer
100
AcDbPolyline
 90
5
 70
0
 10
155.77472023713213
 20
205.00000000000003
 10
160.77472023713213
 20
200.00000000000003
 10
155.77472023713213
 20
195.00000000000003
 10
150.77472023713213
 20
200.00000000000003
 10
155.77472023713213
 20
205.00000000000003
  0
LINE
  5
9D
330
17
100
AcDbEntity
  8
Layer
 62
7
100
AcDbLine
 10
338.10190903164613
 20
200.0
 30
0.0
 11
350.10190903164613
 21
200.0
 31
0.0
  0
LWPOLYLINE
  5
9E
330
17
100
AcDbEntity
  8
Layer
100
AcDbPolyline
 90
5
 70
0
 10
344.10190903164613
 20
205.0
 10
349.10190903164613
 20
200.0
 10
344.10190903164613
 20
195.0
 10
339.10190903164613
 20
200.0
 10
344.10190903164613
 20
205.0
  0
LINE
  5
9F
330
17
100
AcDbEntity
  8
Layer
 62
7
100
AcDbLine
 10
526.4290978261602
 20
199.99999999999997
 30
0.0
 11
538.4290978261602
 21
199.99999999999997
 31
0.0
  0
LWPOLYLINE
  5
A0
330
17
100
AcDbEntity
  8
Layer
100
AcDbPolyline
 90
5
 70
0
 10
532.4290978261602
 20
204.99999999999997
 10
537.4290978261602
 20
199.99999999999997
 10
532.4290978261602
 20
194.99999999999997
 10
527.4290978261602
 20
199.99999999999997
 10
532.4290978261602
 20
204.99999999999997
  0
LINE
  5
A1
330
17
100
AcDbEntity
  8
Layer
 62
7
100
AcDbLine
 10
9.392992136986095
 20
177.92215856412741
 30
0.0
 11
892.0855812086493
 21
121.15038873276166
 31
0.0
  0
LINE
  5
A2
330
17
100
AcDbEntity
  8
Layer
 62
7
100
AcDbLine
 10
183.83583997596816
 20
166.70259092658986
 30
0.0
 11
195.81109697797154
 21
165.9323833338149
 31
0.0
  0
LWPOLYLINE
  5
A3
330
17
100
AcDbEntity
  8
Layer
100
AcDbPolyline
 90
5
 70
0
 10
190.14438830729276
 20
171.30717754770382
 10
194.8131588944713
 20
165.99656729987947
 10
189.50254864664694
 20
161.32779671270094
 10
184.83377805946841
 20
166.6384069605253
 10
190.14438830729276
 20
171.30717754770382
  0
LINE
  5
A4
330
17
100
AcDbEntity
  8
Layer
 62
7
100
AcDbLine
 10
401.265688472508
 20
152.71824635845832
 30
0.0
 11
413.2409454745114
 21
151.94803876568335
 31
0.0
  0
LWPOLYLINE
  5
A5
330
17
100
AcDbEntity
  8
Layer
100
AcDbPolyline
 90
5
 70
0
 10
407.5742368038326
 20
157.32283297957227
 10
412.24300739101113
 20
152.01222273174793
 10
406.9323971431868
 20
147.3434521445694
 10
402.26362655600826
 20
152.65406239239374
 10
407.5742368038326
 20
157.32283297957227
  0
LINE
  5
A6
330
17
100
AcDbEntity
  8
Layer
100
AcDbLine
 10
346.92872727272726
 20
251.25400000000002
 30
0.0
 11
346.92872727272726
 21
252.25400000000002
 31
0.0
  0
LINE
  5
A7
330
17
100
AcDbEntity
  8
Layer
100
AcDbLine
 10
346.92872727272726
 20
148.74599999999998
 30
0.0
 11
346.92872727272726
 21
147.74599999999998
 31
0.0
  0
LINE
  5
A8
330
17
100
AcDbEntity
  8
Layer
100
AcDbLine
 10
395.23048530675374
 20
200.0
 30
0.0
 11
396.23048530675374
 21
200.0
 31
0.0
  0
LINE
  5
A9
330
17
100
AcDbEntity
  8
Layer
100
AcDbLine
 10
298.6269692387008
 20
200.0
 30
0.0
 11
297.6269692387008
 21
200.0
 31
0.0
  0
LINE
  5
AA
330
17
100
AcDbEntity
  8
Layer
 62
7
100
AcDbLine
 10
196.92872727272726
 20
140.6485203595475
 30
0.0
 11
196.92872727272726
 21
256.34853106181015
 31
0.0
  0
LINE
  5
AB
330
17
100
AcDbEntity
  8
Layer
 62
7
100
AcDbLine
 10
196.92872727272726
 20
177.0935241053394
 30
0.0
 11
196.92872727272726
 21
189.0935241053394
 31
0.0
  0
LWPOLYLINE
  5
AC
330
17
100
AcDbEntity
  8
Layer
100
AcDbPolyline
 90
5
 70
0
 10
191.92872727272726
 20
183.0935241053394
 10
196.92872727272726
 20
188.0935241053394
 10
201.92872727272726
 20
183.0935241053394
 10
196.92872727272726
 20
178.0935241053394
 10
191.92872727272726
 20
183.0935241053394
  0
LINE
  5
AD
330
17
100
AcDbEntity
  8
Layer
 62
7
100
AcDbLine
 10
196.92872727272726
 20
207.9035273160182
 30
0.0
 11
196.92872727272726
 21
219.9035273160182
 31
0.0
  0
LWPOLYLINE
  5
AE
330
17
100
AcDbEntity
  8
Layer
100
AcDbPolyline
 90
5
 70
0
 10
191.92872727272726
 20
213.9035273160182
 10
196.92872727272726
 20
218.9035273160182
 10
201.92872727272726
 20
213.9035273160182
 10
196.92872727272726
 20
208.9035273160182
 10
191.92872727272726
 20
213.9035273160182
  0
LINE
  5
AF
330
17
100
AcDbEntity
  8
Layer
 62
7
100
AcDbLine
 10
646.9287272727272
 20
136.15038434957967
 30
0.0
 11
646.9287272727272
 21
205.67506953426906
 31
0.0
  0
LINE
  5
B0
330
17
100
AcDbEntity
  8
Layer
 62
7
100
AcDbLine
 10
646.9287272727272
 20
156.43402416422094
 30
0.0
 11
646.9287272727272
 21
168.43402416422094
 31
0.0
  0
LWPOLYLINE
  5
B1
330
17
100
AcDbEntity
  8
Layer
100
AcDbPolyline
 90
5
 70
0
 10
641.9287272727272
 20
162.43402416422094
 10
646.9287272727272
 20
167.43402416422094
 10
651.9287272727272
 20
162.43402416422094
 10
646.9287272727272
 20
157.43402416422094
 10
641.9287272727272
 20
162.43402416422094
  0
LINE
  5
B2
330
17
100
AcDbEntity
  8
Layer
 62
7
100
AcDbLine
 10
646.9287272727272
 20
173.39142971962775
 30
0.0
 11
646.9287272727272
 21
185.39142971962775
 31
0.0
  0
LWPOLYLINE
  5
B3
330
17
100
AcDbEntity
  8
Layer
100
AcDbPolyline
 90
5
 70
0
 10
641.9287272727272
 20
179.39142971962775
 10
646.9287272727272
 20
184.39142971962775
 10
651.9287272727272
 20
179.39142971962775
 10
646.9287272727272
 20
174.39142971962775
 10
641.9287272727272
 20
179.39142971962775
  0
LWPOLYLINE
  5
B4
330
17
100
AcDbEntity
  8
NumLabel
 62
1
100
AcDbPolyline
 90
7
 70
0
 10
258.26327272727275
 20
165.66727272727272
 10
263.26327272727275
 20
165.66727272727272
 10
263.26327272727275
 20
160.66727272727272
 10
258.26327272727275
 20
160.66727272727272
 10
263.26327272727275
 20
160.66727272727272
 10
263.26327272727275
 20
155.66727272727272
 10
258.26327272727275
 20
155.66727272727272
  0
LWPOLYLINE
  5
B5
330
17
100
AcDbEntity
  8
NumLabel
 62
1
100
AcDbPolyline
 90
7
 70
0
 10
265.76327272727275
 20
165.66727272727272
 10
270.76327272727275
 20
165.66727272727272
 10
270.76327272727275
 20
160.66727272727272
 10
265.76327272727275
 20
160.66727272727272
 10
270.76327272727275
 20
160.66727272727272
 10
270.76327272727275
 20
155.66727272727272
 10
265.76327272727275
 20
155.66727272727272
  0
ENDSEC
  0
SECTION
  2
OBJECTS
  0
DICTIONARY
  5
A
330
0
100
AcDbDictionary
280
0
281
1
  3
ACAD_COLOR
350
B
  3
ACAD_GROUP
350
C
  3
ACAD_LAYOUT
350
D
  3
ACAD_MATERIAL
350
E
  3
ACAD_MLEADERSTYLE
350
F
  3
ACAD_MLINESTYLE
350
10
  3
ACAD_PLOTSETTINGS
350
11
  3
ACAD_PLOTSTYLENAME
350
12
  3
ACAD_SCALELIST
350
14
  3
ACAD_TABLESTYLE
350
15
  3
ACAD_VISUALSTYLE
350
16
  3
EZDXF_META
350
2D
  0
DICTIONARY
  5
B
330
A
100
AcDbDictionary
280
0
281
1
  0
DICTIONARY
  5
C
330
A
100
AcDbDictionary
280
0
281
1
  0
DICTIONARY
  5
D
330
A
100
AcDbDictionary
280
0
281
1
  3
Model
350
1A
  3
Layout1
350
1E
  0
DICTIONARY
  5
E
330
A
100
AcDbDictionary
280
0
281
1
  3
ByBlock
350
1F
  3
ByLayer
350
20
  3
Global
350
21
  0
DICTIONARY
  5
F
330
A
100
AcDbDictionary
280
0
281
1
  3
Standard
350
2C
  0
DICTIONARY
  5
10
330
A
100
AcDbDictionary
280
0
281
1
  3
Standard
350
22
  0
DICTIONARY
  5
11
330
A
100
AcDbDictionary
280
0
281
1
  0
ACDBDICTIONARYWDFLT
  5
12
330
A
100
AcDbDictionary
280
0
281
1
  3
Normal
350
13
100
AcDbDictionaryWithDefault
340
13
  0
ACDBPLACEHOLDER
  5
13
330
12
  0
DICTIONARY
  5
14
330
A
100
AcDbDictionary
280
0
281
1
  0
DICTIONARY
  5
15
330
A
100
AcDbDictionary
280
0
281
1
  0
DICTIONARY
  5
16
330
A
100
AcDbDictionary
280
0
281
1
  3
2dWireframe
350
5A
  3
Basic
350
5B
  3
Brighten
350
5C
  3
ColorChange
350
5D
  3
Conceptual
350
5E
  3
Dim
350
5F
  3
EdgeColorOff
350
60
  3
Facepattern
350
61
  3
Flat
350
62
  3
FlatWithEdges
350
63
  3
Gouraud
350
64
  3
GouraudWithEdges
350
65
  3
Hidden
350
66
  3
JitterOff
350
67
  3
Linepattern
350
68
  3
Modeling
350
69
  3
OverhangOff
350
6A
  3
Realistic
350
6B
  3
Shaded
350
6C
  3
Shaded with edges
350
6D
  3
Shades of Gray
350
6E
  3
Sketchy
350
6F
  3
Thicken
350
70
  3
Wireframe
350
71
  3
X-Ray
350
72
  0
LAYOUT
  5
1A
330
D
100
AcDbPlotSettings
  1

  2
Adobe PDF
  4
A3
  6

 40
7.5
 41
20.0
 42
7.5
 43
20.0
 44
420.0
 45
297.0
 46
0.0
 47
0.0
 48
0.0
 49
0.0
140
0.0
141
0.0
142
1.0
143
1.0
 70
1024
 72
1
 73
0
 74
5
  7

 75
16
 76
0
 77
2
 78
300
147
1.0
148
0.0
149
0.0
100
AcDbLayout
  1
Model
 70
1
 71
0
 10
0.0
 20
0.0
 11
420.0
 21
297.0
 12
0.0
 22
0.0
 32
0.0
 14
1e+20
 24
1e+20
 34
1e+20
 15
-1e+20
 25
-1e+20
 35
-1e+20
146
0.0
 13
0.0
 23
0.0
 33
0.0
 16
1.0
 26
0.0
 36
0.0
 17
0.0
 27
1.0
 37
0.0
 76
1
330
17
  0
LAYOUT
  5
1E
330
D
100
AcDbPlotSettings
  1

  2
Adobe PDF
  4
A3
  6

 40
7.5
 41
20.0
 42
7.5
 43
20.0
 44
420.0
 45
297.0
 46
0.0
 47
0.0
 48
0.0
 49
0.0
140
0.0
141
0.0
142
1.0
143
1.0
 70
0
 72
1
 73
0
 74
5
  7

 75
16
 76
0
 77
2
 78
300
147
1.0
148
0.0
149
0.0
100
AcDbLayout
  1
Layout1
 70
1
 71
1
 10
0.0
 20
0.0
 11
420.0
 21
297.0
 12
0.0
 22
0.0
 32
0.0
 14
1e+20
 24
1e+20
 34
1e+20
 15
-1e+20
 25
-1e+20
 35
-1e+20
146
0.0
 13
0.0
 23
0.0
 33
0.0
 16
1.0
 26
0.0
 36
0.0
 17
0.0
 27
1.0
 37
0.0
 76
1
330
1B
  0
MATERIAL
  5
1F
102
{ACAD_REACTORS
330
E
102
}
330
E
100
AcDbMaterial
  1
ByBlock
  2

 70
0
 40
1.0
 71
1
 41
1.0
 91
-1023410177
 42
1.0
 72
1
  3

 73
1
 74
1
 75
1
 44
0.5
 73
0
 45
1.0
 46
1.0
 77
1
  4

 78
1
 79
1
170
1
 48
1.0
171
1
  6

172
1
173
1
174
1
140
1.0
141
1.0
175
1
  7

176
1
177
1
178
1
143
1.0
179
1
  8

270
1
271
1
272
1
145
1.0
146
1.0
273
1
  9

274
1
275
1
276
1
 42
1.0
 72
1
  3

 73
1
 74
1
 75
1
 94
63
  0
MATERIAL
  5
20
102
{ACAD_REACTORS
330
E
102
}
330
E
100
AcDbMaterial
  1
ByLayer
  2

 70
0
 40
1.0
 71
1
 41
1.0
 91
-1023410177
 42
1.0
 72
1
  3

 73
1
 74
1
 75
1
 44
0.5
 73
0
 45
1.0
 46
1.0
 77
1
  4

 78
1
 79
1
170
1
 48
1.0
171
1
  6

172
1
173
1
174
1
140
1.0
141
1.0
175
1
  7

176
1
177
1
178
1
143
1.0
179
1
  8

270
1
271
1
272
1
145
1.0
146
1.0
273
1
  9

274
1
275
1
276
1
 42
1.0
 72
1
  3

 73
1
 74
1
 75
1
 94
63
  0
MATERIAL
  5
21
102
{ACAD_REACTORS
330
E
102
}
330
E
100
AcDbMaterial
  1
Global
  2

 70
0
 40
1.0
 71
1
 41
1.0
 91
-1023410177
 42
1.0
 72
1
  3

 73
1
 74
1
 75
1
 44
0.5
 73
0
 45
1.0
 46
1.0
 77
1
  4

 78
1
 79
1
170
1
 48
1.0
171
1
  6

172
1
173
1
174
1
140
1.0
141
1.0
175
1
  7

176
1
177
1
178
1
143
1.0
179
1
  8

270
1
271
1
272
1
145
1.0
146
1.0
273
1
  9

274
1
275
1
276
1
 42
1.0
 72
1
  3

 73
1
 74
1
 75
1
 94
63
  0
MLINESTYLE
  5
22
102
{ACAD_REACTORS
330
10
102
}
330
10
100
AcDbMlineStyle
  2
Standard
 70
0
  3

 62
256
 51
90.0
 52
90.0
 71
2
 49
0.5
 62
256
  6
BYLAYER
 49
-0.5
 62
256
  6
BYLAYER
  0
MLEADERSTYLE
  5
2C
102
{ACAD_REACTORS
330
F
102
}
330
F
100
AcDbMLeaderStyle
179
2
170
2
171
1
172
0
 90
2
 40
0.0
 41
0.0
173
1
 91
-1056964608
 92
-2
290
1
 42
2.0
291
1
 43
8.0
  3
Standard
 44
4.0
300

342
29
174
1
175
1
176
0
178
1
 93
-1056964608
 45
4.0
292
0
297
0
 46
4.0
 94
-1056964608
 47
1.0
 49
1.0
140
1.0
294
1
141
0.0
177
0
142
1.0
295
0
296
0
143
3.75
271
0
272
9
273
9
  0
DICTIONARY
  5
2D
330
A
100
AcDbDictionary
281
1
  3
CREATED_BY_EZDXF
350
2E
  3
WRITTEN_BY_EZDXF
350
B8
  0
DICTIONARYVAR
  5
2E
330
2D
100
DictionaryVariables
280
0
  1
1.3.0 @ 2026-01-06T17:07:13.411189+00:00
  0
VISUALSTYLE
  5
5A
102
{ACAD_REACTORS
330
16
102
}
330
16
100
AcDbVisualStyle
  2
2dWireframe
 70
4
 90
0
 40
0.6
 62
7
290
0
291
0
  0
VISUALSTYLE
  5
5B
102
{ACAD_REACTORS
330
16
102
}
330
16
100
AcDbVisualStyle
  2
Basic
 70
7
 90
1
 40
0.6
 62
7
290
0
291
1
  0
VISUALSTYLE
  5
5C
102
{ACAD_REACTORS
330
16
102
}
330
16
100
AcDbVisualStyle
  2
Brighten
 70
12
 90
2
 40
0.6
 62
7
290
0
291
1
  0
VISUALSTYLE
  5
5D
102
{ACAD_REACTORS
330
16
102
}
330
16
100
AcDbVisualStyle
  2
ColorChange
 70
16
 90
2
 40
0.6
 62
8
290
0
291
1
  0
VISUALSTYLE
  5
5E
102
{ACAD_REACTORS
330
16
102
}
330
16
100
AcDbVisualStyle
  2
Conceptual
 70
9
 90
3
 40
0.6
 62
7
290
0
291
0
  0
VISUALSTYLE
  5
5F
102
{ACAD_REACTORS
330
16
102
}
330
16
100
AcDbVisualStyle
  2
Dim
 70
11
 90
2
 40
0.6
 62
7
290
0
291
1
  0
VISUALSTYLE
  5
60
102
{ACAD_REACTORS
330
16
102
}
330
16
100
AcDbVisualStyle
  2
EdgeColorOff
 70
22
 90
2
 40
0.6
 62
7
290
0
291
1
  0
VISUALSTYLE
  5
61
102
{ACAD_REACTORS
330
16
102
}
330
16
100
AcDbVisualStyle
  2
Facepattern
 70
15
 90
2
 40
0.6
 62
7
290
0
291
1
  0
VISUALSTYLE
  5
62
102
{ACAD_REACTORS
330
16
102
}
330
16
100
AcDbVisualStyle
  2
Flat
 70
0
 90
2
 40
0.6
 62
7
290
0
291
1
  0
VISUALSTYLE
  5
63
102
{ACAD_REACTORS
330
16
102
}
330
16
100
AcDbVisualStyle
  2
FlatWithEdges
 70
1
 90
2
 40
0.6
 62
7
290
0
291
1
  0
VISUALSTYLE
  5
64
102
{ACAD_REACTORS
330
16
102
}
330
16
100
AcDbVisualStyle
  2
Gouraud
 70
2
 90
2
 40
0.6
 62
7
290
0
291
1
  0
VISUALSTYLE
  5
65
102
{ACAD_REACTORS
330
16
102
}
330
16
100
AcDbVisualStyle
  2
GouraudWithEdges
 70
3
 90
2
 40
0.6
 62
7
290
0
291
1
  0
VISUALSTYLE
  5
66
102
{ACAD_REACTORS
330
16
102
}
330
16
100
AcDbVisualStyle
  2
Hidden
 70
6
 90
1
 40
0.6
 62
7
290
0
291
0
  0
VISUALSTYLE
  5
67
102
{ACAD_REACTORS
330
16
102
}
330
16
100
AcDbVisualStyle
  2
JitterOff
 70
20
 90
2
 40
0.6
 62
7
290
0
291
1
  0
VISUALSTYLE
  5
68
102
{ACAD_REACTORS
330
16
102
}
330
16
100
AcDbVisualStyle
  2
Linepattern
 70
14
 90
2
 40
0.6
 62
7
290
0
291
1
  0
VISUALSTYLE
  5
69
102
{ACAD_REACTORS
330
16
102
}
330
16
100
AcDbVisualStyle
  2
Modeling
 70
10
 90
2
 40
0.6
 62
7
290
0
291
0
  0
VISUALSTYLE
  5
6A
102
{ACAD_REACTORS
330
16
102
}
330
16
100
AcDbVisualStyle
  2
OverhangOff
 70
21
 90
2
 40
0.6
 62
7
290
0
291
1
  0
VISUALSTYLE
  5
6B
102
{ACAD_REACTORS
330
16
102
}
330
16
100
AcDbVisualStyle
  2
Realistic
 70
8
 90
2
 40
0.6
 62
7
290
0
291
0
  0
VISUALSTYLE
  5
6C
102
{ACAD_REACTORS
330
16
102
}
330
16
100
AcDbVisualStyle
  2
Shaded
 70
27
 90
2
 40
0.6
 62
7
290
0
291
0
  0
VISUALSTYLE
  5
6D
102
{ACAD_REACTORS
330
16
102
}
330
16
100
AcDbVisualStyle
  2
Shaded with edges
 70
26
 90
2
 40
0.6
 62
7
290
0
291
0
  0
VISUALSTYLE
  5
6E
102
{ACAD_REACTORS
330
16
102
}
330
16
100
AcDbVisualStyle
  2
Shades of Gray
 70
23
 90
2
 40
0.6
 62
7
290
0
291
0
  0
VISUALSTYLE
  5
6F
102
{ACAD_REACTORS
330
16
102
}
330
16
100
AcDbVisualStyle
  2
Sketchy
 70
24
 90
1
 40
0.6
 62
7
290
0
291
0
  0
VISUALSTYLE
  5
70
102
{ACAD_REACTORS
330
16
102
}
330
16
100
AcDbVisualStyle
  2
Thicken
 70
13
 90
2
 40
0.6
 62
7
290
0
291
1
  0
VISUALSTYLE
  5
71
102
{ACAD_REACTORS
330
16
102
}
330
16
100
AcDbVisualStyle
  2
Wireframe
 70
5
 90
0
 40
0.6
 62
7
290
0
291
0
  0
VISUALSTYLE
  5
72
102
{ACAD_REACTORS
330
16
102
}
330
16
100
AcDbVisualStyle
  2
X-Ray
 70
25
 90
2
 40
0.5
 62
7
290
0
291
0
  0
DICTIONARYVAR
  5
B8
330
2D
100
DictionaryVariables
280
0
  1
1.3.0 @ 2026-01-06T17:07:13.654723+00:00
  0
ENDSEC
  0
EOF
