  0
SECTION
  2
HEADER
  9
$ACADVER
  1
AC1021
  9
$ACADMAINTVER
 70
25
  9
$DWGCODEPAGE
  3
ANSI_1252
  9
$LASTSAVEDBY
  1
ezdxf
  9
$INSBASE
 10
0.0
 20
0.0
 30
0.0
  9
$EXTMIN
 10
1e+20
 20
1e+20
 30
1e+20
  9
$EXTMAX
 10
-1e+20
 20
-1e+20
 30
-1e+20
  9
$LIMMIN
 10
0.0
 20
0.0
  9
$LIMMAX
 10
420.0
 20
297.0
  9
$ORTHOMODE
 70
0
  9
$REGENMODE
 70
1
  9
$FILLMODE
 70
1
  9
$QTEXTMODE
 70
0
  9
$MIRRTEXT
 70
1
  9
$LTSCALE
 40
1.0
  9
$ATTMODE
 70
1
  9
$TEXTSIZE
 40
2.5
  9
$TRACEWID
 40
1.0
  9
$TEXTSTYLE
  7
OpenSans
  9
$CLAYER
  8
0
  9
$CELTYPE
  6
ByLayer
  9
$CECOLOR
 62
256
  9
$CELTSCALE
 40
1.0
  9
$DISPSILH
 70
0
  9
$DIMSCALE
 40
1.0
  9
$DIMASZ
 40
0.175
  9
$DIMEXO
 40
0.125
  9
$DIMDLI
 40
3.75
  9
$DIMRND
 40
0.0
  9
$DIMDLE
 40
0.0
  9
$DIMEXE
 40
0.375
  9
$DIMTP
 40
0.0
  9
$DIMTM
 40
0.0
  9
$DIMTXT
 40
0.25
  9
$DIMCEN
 40
2.5
  9
$DIMTSZ
 40
0.0
  9
$DIMTOL
 70
0
  9
$DIMLIM
 70
0
  9
$DIMTIH
 70
0
  9
$DIMTOH
 70
0
  9
$DIMSE1
 70
0
  9
$DIMSE2
 70
0
  9
$DIMTAD
 70
1
  9
$DIMZIN
 70
12
  9
$DIMBLK
  1
ARCHTICK
  9
$DIMASO
 70
1
  9
$DIMSHO
 70
1
  9
$DIMPOST
  1

  9
$DIMAPOST
  1

  9
$DIMALT
 70
0
  9
$DIMALTD
 70
3
  9
$DIMALTF
 40
0.03937007874
  9
$DIMLFAC
 40
100.0
  9
$DIMTOFL
 70
1
  9
$DIMTVP
 40
0.0
  9
$DIMTIX
 70
0
  9
$DIMSOXD
 70
0
  9
$DIMSAH
 70
0
  9
$DIMBLK1
  1

  9
$DIMBLK2
  1

  9
$DIMSTYLE
  2
EZDXF
  9
$DIMCLRD
 70
0
  9
$DIMCLRE
 70
0
  9
$DIMCLRT
 70
0
  9
$DIMTFAC
 40
0.5
  9
$DIMGAP
 40
0.1
  9
$DIMJUST
 70
0
  9
$DIMSD1
 70
0
  9
$DIMSD2
 70
0
  9
$DIMTOLJ
 70
0
  9
$DIMTZIN
 70
8
  9
$DIMALTZ
 70
0
  9
$DIMALTTZ
 70
0
  9
$DIMUPT
 70
1
  9
$DIMDEC
 70
2
  9
$DIMTDEC
 70
2
  9
$DIMALTU
 70
2
  9
$DIMALTTD
 70
3
  9
$DIMTXSTY
  7
OpenSansCondensed-Light
  9
$DIMAUNIT
 70
0
  9
$DIMADEC
 70
2
  9
$DIMALTRND
 40
0.0
  9
$DIMAZIN
 70
3
  9
$DIMDSEP
 70
46
  9
$DIMATFIT
 70
3
  9
$DIMFRAC
 70
0
  9
$DIMLDRBLK
  1

  9
$DIMLUNIT
 70
2
  9
$DIMLWD
 70
-2
  9
$DIMLWE
 70
-2
  9
$DIMTMOVE
 70
2
  9
$DIMFXL
 40
1.0
  9
$DIMFXLON
 70
0
  9
$DIMJOGANG
 40
0.785398163397
  9
$DIMTFILL
 70
0
  9
$DIMTFILLCLR
 70
0
  9
$DIMARCSYM
 70
0
  9
$DIMLTYPE
  6

  9
$DIMLTEX1
  6

  9
$DIMLTEX2
  6

  9
$LUNITS
 70
2
  9
$LUPREC
 70
4
  9
$SKETCHINC
 40
1.0
  9
$FILLETRAD
 40
10.0
  9
$AUNITS
 70
0
  9
$AUPREC
 70
2
  9
$MENU
  1
.
  9
$ELEVATION
 40
0.0
  9
$PELEVATION
 40
0.0
  9
$THICKNESS
 40
0.0
  9
$LIMCHECK
 70
0
  9
$CHAMFERA
 40
0.0
  9
$CHAMFERB
 40
0.0
  9
$CHAMFERC
 40
0.0
  9
$CHAMFERD
 40
0.0
  9
$SKPOLY
 70
0
  9
$TDCREATE
 40
2461048.0884722224
  9
$TDUCREATE
 40
2458532.153996898
  9
$TDUPDATE
 40
2461048.0884722224
  9
$TDUUPDATE
 40
2458532.1544311
  9
$TDINDWG
 40
0.0
  9
$TDUSRTIMER
 40
0.0
  9
$USRTIMER
 70
1
  9
$ANGBASE
 50
0.0
  9
$ANGDIR
 70
0
  9
$PDMODE
 70
0
  9
$PDSIZE
 40
0.0
  9
$PLINEWID
 40
0.0
  9
$SPLFRAME
 70
0
  9
$SPLINETYPE
 70
6
  9
$SPLINESEGS
 70
8
  9
$HANDSEED
  5
B9
  9
$SURFTAB1
 70
6
  9
$SURFTAB2
 70
6
  9
$SURFTYPE
 70
6
  9
$SURFU
 70
6
  9
$SURFV
 70
6
  9
$UCSBASE
  2

  9
$UCSNAME
  2

  9
$UCSORG
 10
0.0
 20
0.0
 30
0.0
  9
$UCSXDIR
 10
1.0
 20
0.0
 30
0.0
  9
$UCSYDIR
 10
0.0
 20
1.0
 30
0.0
  9
$UCSORTHOREF
  2

  9
$UCSORTHOVIEW
 70
0
  9
$UCSORGTOP
 10
0.0
 20
0.0
 30
0.0
  9
$UCSORGBOTTOM
 10
0.0
 20
0.0
 30
0.0
  9
$UCSORGLEFT
 10
0.0
 20
0.0
 30
0.0
  9
$UCSORGRIGHT
 10
0.0
 20
0.0
 30
0.0
  9
$UCSORGFRONT
 10
0.0
 20
0.0
 30
0.0
  9
$UCSORGBACK
 10
0.0
 20
0.0
 30
0.0
  9
$PUCSBASE
  2

  9
$PUCSNAME
  2

  9
$PUCSORG
 10
0.0
 20
0.0
 30
0.0
  9
$PUCSXDIR
 10
1.0
 20
0.0
 30
0.0
  9
$PUCSYDIR
 10
0.0
 20
1.0
 30
0.0
  9
$PUCSORTHOREF
  2

  9
$PUCSORTHOVIEW
 70
0
  9
$PUCSORGTOP
 10
0.0
 20
0.0
 30
0.0
  9
$PUCSORGBOTTOM
 10
0.0
 20
0.0
 30
0.0
  9
$PUCSORGLEFT
 10
0.0
 20
0.0
 30
0.0
  9
$PUCSORGRIGHT
 10
0.0
 20
0.0
 30
0.0
  9
$PUCSORGFRONT
 10
0.0
 20
0.0
 30
0.0
  9
$PUCSORGBACK
 10
0.0
 20
0.0
 30
0.0
  9
$USERI1
 70
0
  9
$USERI2
 70
0
  9
$USERI3
 70
0
  9
$USERI4
 70
0
  9
$USERI5
 70
0
  9
$USERR1
 40
0.0
  9
$USERR2
 40
0.0
  9
$USERR3
 40
0.0
  9
$USERR4
 40
0.0
  9
$USERR5
 40
0.0
  9
$WORLDVIEW
 70
1
  9
$SHADEDGE
 70
3
  9
$SHADEDIF
 70
70
  9
$TILEMODE
 70
1
  9
$MAXACTVP
 70
64
  9
$PINSBASE
 10
0.0
 20
0.0
 30
0.0
  9
$PLIMCHECK
 70
0
  9
$PEXTMIN
 10
1e+20
 20
1e+20
 30
1e+20
  9
$PEXTMAX
 10
-1e+20
 20
-1e+20
 30
-1e+20
  9
$PLIMMIN
 10
0.0
 20
0.0
  9
$PLIMMAX
 10
420.0
 20
297.0
  9
$UNITMODE
 70
0
  9
$VISRETAIN
 70
1
  9
$PLINEGEN
 70
0
  9
$PSLTSCALE
 70
1
  9
$TREEDEPTH
 70
3020
  9
$CMLSTYLE
  2
Standard
  9
$CMLJUST
 70
0
  9
$CMLSCALE
 40
20.0
  9
$PROXYGRAPHICS
 70
1
  9
$MEASUREMENT
 70
1
  9
$CELWEIGHT
370
-1
  9
$ENDCAPS
280
0
  9
$JOINSTYLE
280
0
  9
$LWDISPLAY
290
0
  9
$INSUNITS
 70
6
  9
$HYPERLINKBASE
  1

  9
$STYLESHEET
  1

  9
$XEDIT
290
1
  9
$CEPSNTYPE
380
0
  9
$PSTYLEMODE
290
1
  9
$FINGERPRINTGUID
  2
{C6292F19-0D95-491C-912E-7E670435B74B}
  9
$VERSIONGUID
  2
{F32210D0-F80B-4C1B-975F-83000432DE3E}
  9
$EXTNAMES
290
1
  9
$PSVPSCALE
 40
0.0
  9
$OLESTARTUP
290
0
  9
$SORTENTS
280
127
  9
$INDEXCTL
280
0
  9
$HIDETEXT
280
1
  9
$XCLIPFRAME
290
1
  9
$HALOGAP
280
0
  9
$OBSCOLOR
 70
257
  9
$OBSLTYPE
280
0
  9
$INTERSECTIONDISPLAY
280
0
  9
$INTERSECTIONCOLOR
 70
257
  9
$DIMASSOC
280
2
  9
$PROJECTNAME
  1

  9
$CAMERADISPLAY
290
0
  9
$LENSLENGTH
 40
50.0
  9
$CAMERAHEIGHT
 40
0.0
  9
$STEPSPERSEC
 40
24.0
  9
$STEPSIZE
 40
100.0
  9
$3DDWFPREC
 40
2.0
  9
$PSOLWIDTH
 40
0.005
  9
$PSOLHEIGHT
 40
0.08
  9
$LOFTANG1
 40
1.570796326795
  9
$LOFTANG2
 40
1.570796326795
  9
$LOFTMAG1
 40
0.0
  9
$LOFTMAG2
 40
0.0
  9
$LOFTPARAM
 70
7
  9
$LOFTNORMALS
280
1
  9
$LATITUDE
 40
37.795
  9
$LONGITUDE
 40
-122.394
  9
$NORTHDIRECTION
 40
0.0
  9
$TIMEZONE
 70
-8000
  9
$LIGHTGLYPHDISPLAY
280
1
  9
$TILEMODELIGHTSYNCH
280
1
  9
$CMATERIAL
347
20
  9
$SOLIDHIST
280
0
  9
$SHOWHIST
280
1
  9
$DWFFRAME
280
2
  9
$DGNFRAME
280
2
  9
$REALWORLDSCALE
290
1
  9
$INTERFERECOLOR
 62
256
  9
$CSHADOW
280
0
  9
$SHADOWPLANELOCATION
 40
0.0
  0
ENDSEC
  0
SECTION
  2
CLASSES
  0
CLASS
  1
ACDBDICTIONARYWDFLT
  2
AcDbDictionaryWithDefault
  3
ObjectDBX Classes
 90
0
 91
0
280
0
281
0
  0
CLASS
  1
SUN
  2
AcDbSun
  3
SCENEOE
 90
1153
 91
0
280
0
281
0
  0
CLASS
  1
VISUALSTYLE
  2
AcDbVisualStyle
  3
ObjectDBX Classes
 90
4095
 91
0
280
0
281
0
  0
CLASS
  1
MATERIAL
  2
AcDbMaterial
  3
ObjectDBX Classes
 90
1153
 91
0
280
0
281
0
  0
CLASS
  1
SCALE
  2
AcDbScale
  3
ObjectDBX Classes
 90
1153
 91
0
280
0
281
0
  0
CLASS
  1
TABLESTYLE
  2
AcDbTableStyle
  3
ObjectDBX Classes
 90
4095
 91
0
280
0
281
0
  0
CLASS
  1
MLEADERSTYLE
  2
AcDbMLeaderStyle
  3
ACDB_MLEADERSTYLE_CLASS
 90
4095
 91
0
280
0
281
0
  0
CLASS
  1
DICTIONARYVAR
  2
AcDbDictionaryVar
  3
ObjectDBX Classes
 90
0
 91
0
280
0
281
0
  0
CLASS
  1
CELLSTYLEMAP
  2
AcDbCellStyleMap
  3
ObjectDBX Classes
 90
1152
 91
0
280
0
281
0
  0
CLASS
  1
MENTALRAYRENDERSETTINGS
  2
AcDbMentalRayRenderSettings
  3
SCENEOE
 90
1024
 91
0
280
0
281
0
  0
CLASS
  1
ACDBDETAILVIEWSTYLE
  2
AcDbDetailViewStyle
  3
ObjectDBX Classes
 90
1025
 91
0
280
0
281
0
  0
CLASS
  1
ACDBSECTIONVIEWSTYLE
  2
AcDbSectionViewStyle
  3
ObjectDBX Classes
 90
1025
 91
0
280
0
281
0
  0
CLASS
  1
RASTERVARIABLES
  2
AcDbRasterVariables
  3
ISM
 90
0
 91
0
280
0
281
0
  0
CLASS
  1
ACDBPLACEHOLDER
  2
AcDbPlaceHolder
  3
ObjectDBX Classes
 90
0
 91
0
280
0
281
0
  0
CLASS
  1
LAYOUT
  2
AcDbLayout
  3
ObjectDBX Classes
 90
0
 91
0
280
0
281
0
  0
ENDSEC
  0
SECTION
  2
TABLES
  0
TABLE
  2
VPORT
  5
8
330
0
100
AcDbSymbolTable
 70
1
  0
VPORT
  5
23
330
8
100
AcDbSymbolTableRecord
100
AcDbViewportTableRecord
  2
*Active
 70
0
 10
0.0
 20
0.0
 11
1.0
 21
1.0
 12
0.0
 22
0.0
 13
0.0
 23
0.0
 14
0.5
 24
0.5
 15
0.5
 25
0.5
 16
0.0
 26
0.0
 36
1.0
 17
0.0
 27
0.0
 37
0.0
 40
1000.0
 41
1.34
 42
50.0
 43
0.0
 44
0.0
 50
0.0
 51
0.0
 71
0
 72
1000
 73
1
 74
3
 75
0
 76
0
 77
0
 78
0
281
0
 65
0
146
0.0
  0
ENDTAB
  0
TABLE
  2
LTYPE
  5
2
330
0
100
AcDbSymbolTable
 70
21
  0
LTYPE
  5
24
330
2
100
AcDbSymbolTableRecord
100
AcDbLinetypeTableRecord
  2
ByBlock
 70
0
  3

 72
65
 73
0
 40
0.0
  0
LTYPE
  5
25
330
2
100
AcDbSymbolTableRecord
100
AcDbLinetypeTableRecord
  2
ByLayer
 70
0
  3

 72
65
 73
0
 40
0.0
  0
LTYPE
  5
26
330
2
100
AcDbSymbolTableRecord
100
AcDbLinetypeTableRecord
  2
Continuous
 70
0
  3

 72
65
 73
0
 40
0.0
  0
LTYPE
  5
2F
330
2
100
AcDbSymbolTableRecord
100
AcDbLinetypeTableRecord
  2
CENTER
 70
0
  3
Center ____ _ ____ _ ____ _ ____ _ ____ _ ____
 72
65
 73
4
 40
5.08
 49
3.175
 74
0
 49
-0.635
 74
0
 49
0.635
 74
0
 49
-0.635
 74
0
  0
LTYPE
  5
30
330
2
100
AcDbSymbolTableRecord
100
AcDbLinetypeTableRecord
  2
CENTERX2
 70
0
  3
Center (2x) ________  __  ________  __  ________
 72
65
 73
4
 40
8.89
 49
6.35
 74
0
 49
-0.635
 74
0
 49
1.27
 74
0
 49
-0.635
 74
0
  0
LTYPE
  5
31
330
2
100
AcDbSymbolTableRecord
100
AcDbLinetypeTableRecord
  2
CENTER2
 70
0
  3
Center (.5x) ____ _ ____ _ ____ _ ____ _ ____
 72
65
 73
4
 40
2.54
 49
1.587
 74
0
 49
-0.318
 74
0
 49
0.318
 74
0
 49
-0.318
 74
0
  0
LTYPE
  5
32
330
2
100
AcDbSymbolTableRecord
100
AcDbLinetypeTableRecord
  2
DASHED
 70
0
  3
Dashed __ __ __ __ __ __ __ __ __ __ __ __ __ _
 72
65
 73
2
 40
1.524
 49
1.27
 74
0
 49
-0.254
 74
0
  0
LTYPE
  5
33
330
2
100
AcDbSymbolTableRecord
100
AcDbLinetypeTableRecord
  2
DASHEDX2
 70
0
  3
Dashed (2x) ____  ____  ____  ____  ____  ____
 72
65
 73
2
 40
3.048
 49
2.54
 74
0
 49
-0.508
 74
0
  0
LTYPE
  5
34
330
2
100
AcDbSymbolTableRecord
100
AcDbLinetypeTableRecord
  2
DASHED2
 70
0
  3
Dashed (.5x) _ _ _ _ _ _ _ _ _ _ _ _ _ _
 72
65
 73
2
 40
0.762
 49
0.635
 74
0
 49
-0.127
 74
0
  0
LTYPE
  5
35
330
2
100
AcDbSymbolTableRecord
100
AcDbLinetypeTableRecord
  2
PHANTOM
 70
0
  3
Phantom ______  __  __  ______  __  __  ______
 72
65
 73
6
 40
6.35
 49
3.175
 74
0
 49
-0.635
 74
0
 49
0.635
 74
0
 49
-0.635
 74
0
 49
0.635
 74
0
 49
-0.635
 74
0
  0
LTYPE
  5
36
330
2
100
AcDbSymbolTableRecord
100
AcDbLinetypeTableRecord
  2
PHANTOMX2
 70
0
  3
Phantom (2x)____________    ____    ____    ____________
 72
65
 73
6
 40
10.795
 49
6.35
 74
0
 49
-0.635
 74
0
 49
1.27
 74
0
 49
-0.635
 74
0
 49
1.27
 74
0
 49
-0.635
 74
0
  0
LTYPE
  5
37
330
2
100
AcDbSymbolTableRecord
100
AcDbLinetypeTableRecord
  2
PHANTOM2
 70
0
  3
Phantom (.5x) ___ _ _ ___ _ _ ___ _ _ ___ _ _ ___
 72
65
 73
6
 40
3.175
 49
1.587
 74
0
 49
-0.318
 74
0
 49
0.318
 74
0
 49
-0.318
 74
0
 49
0.318
 74
0
 49
-0.318
 74
0
  0
LTYPE
  5
38
330
2
100
AcDbSymbolTableRecord
100
AcDbLinetypeTableRecord
  2
DASHDOT
 70
0
  3
Dash dot __ . __ . __ . __ . __ . __ . __ . __
 72
65
 73
4
 40
3.556
 49
2.54
 74
0
 49
-0.508
 74
0
 49
0.0
 74
0
 49
-0.508
 74
0
  0
LTYPE
  5
39
330
2
100
AcDbSymbolTableRecord
100
AcDbLinetypeTableRecord
  2
DASHDOTX2
 70
0
  3
Dash dot (2x) ____  .  ____  .  ____  .  ____
 72
65
 73
4
 40
6.096
 49
5.08
 74
0
 49
-0.508
 74
0
 49
0.0
 74
0
 49
-0.508
 74
0
  0
LTYPE
  5
3A
330
2
100
AcDbSymbolTableRecord
100
AcDbLinetypeTableRecord
  2
DASHDOT2
 70
0
  3
Dash dot (.5x) _ . _ . _ . _ . _ . _ . _ . _
 72
65
 73
4
 40
1.778
 49
1.27
 74
0
 49
-0.254
 74
0
 49
0.0
 74
0
 49
-0.254
 74
0
  0
LTYPE
  5
3B
330
2
100
AcDbSymbolTableRecord
100
AcDbLinetypeTableRecord
  2
DOT
 70
0
  3
Dot .  .  .  .  .  .  .  .  .  .  .  .  .  .  .  .
 72
65
 73
2
 40
0.508
 49
0.0
 74
0
 49
-0.508
 74
0
  0
LTYPE
  5
3C
330
2
100
AcDbSymbolTableRecord
100
AcDbLinetypeTableRecord
  2
DOTX2
 70
0
  3
Dot (2x) .    .    .    .    .    .    .    . 
 72
65
 73
2
 40
1.016
 49
0.0
 74
0
 49
-1.016
 74
0
  0
LTYPE
  5
3D
330
2
100
AcDbSymbolTableRecord
100
AcDbLinetypeTableRecord
  2
DOT2
 70
0
  3
Dot (.5) . . . . . . . . . . . . . . . . . . . 
 72
65
 73
2
 40
0.254
 49
0.0
 74
0
 49
-0.254
 74
0
  0
LTYPE
  5
3E
330
2
100
AcDbSymbolTableRecord
100
AcDbLinetypeTableRecord
  2
DIVIDE
 70
0
  3
Divide __ . . __ . . __ . . __ . . __ . . __
 72
65
 73
6
 40
4.064
 49
2.54
 74
0
 49
-0.508
 74
0
 49
0.0
 74
0
 49
-0.508
 74
0
 49
0.0
 74
0
 49
-0.508
 74
0
  0
LTYPE
  5
3F
330
2
100
AcDbSymbolTableRecord
100
AcDbLinetypeTableRecord
  2
DIVIDEX2
 70
0
  3
Divide (2x) ____  . .  ____  . .  ____  . .  ____
 72
65
 73
6
 40
6.604
 49
5.08
 74
0
 49
-0.508
 74
0
 49
0.0
 74
0
 49
-0.508
 74
0
 49
0.0
 74
0
 49
-0.508
 74
0
  0
LTYPE
  5
40
330
2
100
AcDbSymbolTableRecord
100
AcDbLinetypeTableRecord
  2
DIVIDE2
 70
0
  3
Divide(.5x) _ . _ . _ . _ . _ . _ . _ . _
 72
65
 73
6
 40
2.032
 49
1.27
 74
0
 49
-0.254
 74
0
 49
0.0
 74
0
 49
-0.254
 74
0
 49
0.0
 74
0
 49
-0.254
 74
0
  0
ENDTAB
  0
TABLE
  2
LAYER
  5
1
330
0
100
AcDbSymbolTable
 70
4
  0
LAYER
  5
27
330
1
100
AcDbSymbolTableRecord
100
AcDbLayerTableRecord
  2
0
 70
0
 62
7
  6
Continuous
370
-3
390
13
347
21
  0
LAYER
  5
28
330
1
100
AcDbSymbolTableRecord
100
AcDbLayerTableRecord
  2
Defpoints
 70
0
 62
7
  6
Continuous
290
0
370
-3
390
13
347
21
  0
LAYER
  5
8A
330
1
100
AcDbSymbolTableRecord
100
AcDbLayerTableRecord
  2
Layer
 70
0
 62
1
  6
Continuous
370
50
390
13
347
21
  0
LAYER
  5
8B
330
1
100
AcDbSymbolTableRecord
100
AcDbLayerTableRecord
  2
NumLabel
 70
0
 62
1
  6
Continuous
370
15
390
13
347
21
  0
ENDTAB
  0
TABLE
  2
STYLE
  5
5
330
0
100
AcDbSymbolTable
 70
26
  0
STYLE
  5
29
330
5
100
AcDbSymbolTableRecord
100
AcDbTextStyleTableRecord
  2
Standard
 70
0
 40
0.0
 41
1.0
 50
0.0
 71
0
 42
2.5
  3
txt
  4

  0
STYLE
  5
41
330
5
100
AcDbSymbolTableRecord
100
AcDbTextStyleTableRecord
  2
OpenSans-Light
 70
0
 40
0.0
 41
1.0
 50
0.0
 71
0
 42
2.5
  3
OpenSans-Light.ttf
  4

  0
STYLE
  5
42
330
5
100
AcDbSymbolTableRecord
100
AcDbTextStyleTableRecord
  2
OpenSans-Light-Italic
 70
0
 40
0.0
 41
1.0
 50
0.0
 71
0
 42
2.5
  3
OpenSans-LightItalic.ttf
  4

  0
STYLE
  5
43
330
5
100
AcDbSymbolTableRecord
100
AcDbTextStyleTableRecord
  2
OpenSans
 70
0
 40
0.0
 41
1.0
 50
0.0
 71
0
 42
2.5
  3
OpenSans-Regular.ttf
  4

  0
STYLE
  5
44
330
5
100
AcDbSymbolTableRecord
100
AcDbTextStyleTableRecord
  2
OpenSans-Italic
 70
0
 40
0.0
 41
1.0
 50
0.0
 71
0
 42
2.5
  3
OpenSans-Italic.ttf
  4

  0
STYLE
  5
45
330
5
100
AcDbSymbolTableRecord
100
AcDbTextStyleTableRecord
  2
OpenSans-SemiBold
 70
0
 40
0.0
 41
1.0
 50
0.0
 71
0
 42
2.5
  3
OpenSans-SemiBold.ttf
  4

  0
STYLE
  5
46
330
5
100
AcDbSymbolTableRecord
100
AcDbTextStyleTableRecord
  2
OpenSans-SemiBoldItalic
 70
0
 40
0.0
 41
1.0
 50
0.0
 71
0
 42
2.5
  3
OpenSans-SemiBoldItalic.ttf
  4

  0
STYLE
  5
47
330
5
100
AcDbSymbolTableRecord
100
AcDbTextStyleTableRecord
  2
OpenSans-Bold
 70
0
 40
0.0
 41
1.0
 50
0.0
 71
0
 42
2.5
  3
OpenSans-Bold.ttf
  4

  0
STYLE
  5
48
330
5
100
AcDbSymbolTableRecord
100
AcDbTextStyleTableRecord
  2
OpenSans-BoldItalic
 70
0
 40
0.0
 41
1.0
 50
0.0
 71
0
 42
2.5
  3
OpenSans-BoldItalic.ttf
  4

  0
STYLE
  5
49
330
5
100
AcDbSymbolTableRecord
100
AcDbTextStyleTableRecord
  2
OpenSans-ExtraBold
 70
0
 40
0.0
 41
1.0
 50
0.0
 71
0
 42
2.5
  3
OpenSans-ExtraBold.ttf
  4

  0
STYLE
  5
4A
330
5
100
AcDbSymbolTableRecord
100
AcDbTextStyleTableRecord
  2
OpenSans-ExtraBoldItalic
 70
0
 40
0.0
 41
1.0
 50
0.0
 71
0
 42
2.5
  3
OpenSans-ExtraBoldItalic.ttf
  4

  0
STYLE
  5
4B
330
5
100
AcDbSymbolTableRecord
100
AcDbTextStyleTableRecord
  2
OpenSansCondensed-Bold
 70
0
 40
0.0
 41
1.0
 50
0.0
 71
0
 42
2.5
  3
OpenSansCondensed-Bold.ttf
  4

  0
STYLE
  5
4C
330
5
100
AcDbSymbolTableRecord
100
AcDbTextStyleTableRecord
  2
OpenSansCondensed-Light
 70
0
 40
0.0
 41
1.0
 50
0.0
 71
0
 42
2.5
  3
OpenSansCondensed-Light.ttf
  4

  0
STYLE
  5
4D
330
5
100
AcDbSymbolTableRecord
100
AcDbTextStyleTableRecord
  2
OpenSansCondensed-Italic
 70
0
 40
0.0
 41
1.0
 50
0.0
 71
0
 42
2.5
  3
OpenSansCondensed-LightItalic.ttf
  4

  0
STYLE
  5
4E
330
5
100
AcDbSymbolTableRecord
100
AcDbTextStyleTableRecord
  2
LiberationSans
 70
0
 40
0.0
 41
1.0
 50
0.0
 71
0
 42
2.5
  3
LiberationSans-Regular.ttf
  4

  0
STYLE
  5
4F
330
5
100
AcDbSymbolTableRecord
100
AcDbTextStyleTableRecord
  2
LiberationSans-Bold
 70
0
 40
0.0
 41
1.0
 50
0.0
 71
0
 42
2.5
  3
LiberationSans-Bold.ttf
  4

  0
STYLE
  5
50
330
5
100
AcDbSymbolTableRecord
100
AcDbTextStyleTableRecord
  2
LiberationSans-BoldItalic
 70
0
 40
0.0
 41
1.0
 50
0.0
 71
0
 42
2.5
  3
LiberationSans-BoldItalic.ttf
  4

  0
STYLE
  5
51
330
5
100
AcDbSymbolTableRecord
100
AcDbTextStyleTableRecord
  2
LiberationSans-Italic
 70
0
 40
0.0
 41
1.0
 50
0.0
 71
0
 42
2.5
  3
LiberationSans-Italic.ttf
  4

  0
STYLE
  5
52
330
5
100
AcDbSymbolTableRecord
100
AcDbTextStyleTableRecord
  2
LiberationSerif
 70
0
 40
0.0
 41
1.0
 50
0.0
 71
0
 42
2.5
  3
LiberationSerif-Regular.ttf
  4

  0
STYLE
  5
53
330
5
100
AcDbSymbolTableRecord
100
AcDbTextStyleTableRecord
  2
LiberationSerif-Bold
 70
0
 40
0.0
 41
1.0
 50
0.0
 71
0
 42
2.5
  3
LiberationSerif-Bold.ttf
  4

  0
STYLE
  5
54
330
5
100
AcDbSymbolTableRecord
100
AcDbTextStyleTableRecord
  2
LiberationSerif-BoldItalic
 70
0
 40
0.0
 41
1.0
 50
0.0
 71
0
 42
2.5
  3
LiberationSerif-BoldItalic.ttf
  4

  0
STYLE
  5
55
330
5
100
AcDbSymbolTableRecord
100
AcDbTextStyleTableRecord
  2
LiberationSerif-Italic
 70
0
 40
0.0
 41
1.0
 50
0.0
 71
0
 42
2.5
  3
LiberationSerif-Italic.ttf
  4

  0
STYLE
  5
56
330
5
100
AcDbSymbolTableRecord
100
AcDbTextStyleTableRecord
  2
LiberationMono
 70
0
 40
0.0
 41
1.0
 50
0.0
 71
0
 42
2.5
  3
LiberationMono-Regular.ttf
  4

  0
STYLE
  5
57
330
5
100
AcDbSymbolTableRecord
100
AcDbTextStyleTableRecord
  2
LiberationMono-Bold
 70
0
 40
0.0
 41
1.0
 50
0.0
 71
0
 42
2.5
  3
LiberationMono-Bold.ttf
  4

  0
STYLE
  5
58
330
5
100
AcDbSymbolTableRecord
100
AcDbTextStyleTableRecord
  2
LiberationMono-BoldItalic
 70
0
 40
0.0
 41
1.0
 50
0.0
 71
0
 42
2.5
  3
LiberationMono-BoldItalic.ttf
  4

  0
STYLE
  5
59
330
5
100
AcDbSymbolTableRecord
100
AcDbTextStyleTableRecord
  2
LiberationMono-Italic
 70
0
 40
0.0
 41
1.0
 50
0.0
 71
0
 42
2.5
  3
LiberationMono-Italic.ttf
  4

  0
ENDTAB
  0
TABLE
  2
VIEW
  5
7
330
0
100
AcDbSymbolTable
 70
0
  0
ENDTAB
  0
TABLE
  2
UCS
  5
6
330
0
100
AcDbSymbolTable
 70
0
  0
ENDTAB
  0
TABLE
  2
APPID
  5
3
330
0
100
AcDbSymbolTable
 70
3
  0
APPID
  5
2A
330
3
100
AcDbSymbolTableRecord
100
AcDbRegAppTableRecord
  2
ACAD
 70
0
  0
APPID
  5
B6
330
3
100
AcDbSymbolTableRecord
100
AcDbRegAppTableRecord
  2
HATCHBACKGROUNDCOLOR
 70
0
  0
APPID
  5
B7
330
3
100
AcDbSymbolTableRecord
100
AcDbRegAppTableRecord
  2
EZDXF
 70
0
  0
ENDTAB
  0
TABLE
  2
DIMSTYLE
  5
4
330
0
100
AcDbSymbolTable
 70
12
100
AcDbDimStyleTable
  0
DIMSTYLE
105
2B
330
4
100
AcDbSymbolTableRecord
100
AcDbDimStyleTableRecord
  2
Standard
 70
0
 40
1.0
 41
2.5
 42
0.625
 43
3.75
 44
1.25
 45
0.0
 46
0.0
 47
0.0
 48
0.0
 49
2.5
140
2.5
141
2.5
142
0.0
143
0.03937007874
144
1.0
145
0.0
146
1.0
147
0.625
148
0.0
 69
0
 70
0
 71
0
 72
0
 73
0
 74
0
 75
0
 76
0
 77
1
 78
8
 79
3
170
0
171
3
172
1
173
0
174
0
175
0
176
0
177
0
178
0
179
2
271
2
272
2
273
2
274
3
275
0
276
0
277
2
278
44
279
0
280
0
281
0
282
0
283
0
284
8
285
0
286
0
288
0
289
3
290
0
371
-2
372
-2
  0
DIMSTYLE
105
73
330
4
100
AcDbSymbolTableRecord
100
AcDbDimStyleTableRecord
  2
EZDXF
 70
0
 40
1.0
 41
0.175
 42
0.125
 43
3.75
 44
0.375
 45
0.0
 46
0.0
 47
0.0
 48
0.0
 49
2.5
140
0.25
141
2.5
142
0.0
143
0.03937007874
144
100.0
145
0.0
146
0.5
147
0.1
148
0.0
 69
0
 70
0
 71
0
 72
0
 73
0
 74
0
 75
0
 76
0
 77
1
 78
12
 79
3
170
0
171
3
172
1
173
0
174
0
175
0
176
0
177
0
178
0
179
2
271
2
272
2
273
2
274
3
275
0
276
0
277
2
278
46
279
2
280
0
281
0
282
0
283
0
284
8
285
0
286
0
288
1
289
3
290
0
340
4C
342
74
371
-2
372
-2
  0
DIMSTYLE
105
7C
330
4
100
AcDbSymbolTableRecord
100
AcDbDimStyleTableRecord
  2
EZ_M_100_H25_CM
 70
0
 40
1.0
 41
0.25
 42
0.125
 43
3.75
 44
0.375
 45
0.0
 46
0.0
 47
0.0
 48
0.0
 49
2.5
140
0.25
141
2.5
142
0.125
143
0.03937007874
144
100.0
145
0.0
146
0.5
147
0.1
148
0.0
 69
0
 70
0
 71
0
 72
0
 73
0
 74
0
 75
0
 76
0
 77
1
 78
12
 79
3
170
0
171
3
172
1
173
0
174
0
175
0
176
0
177
0
178
0
179
2
271
2
272
2
273
2
274
3
275
0
276
0
277
2
278
46
279
2
280
0
281
0
282
0
283
0
284
8
285
0
286
0
288
1
289
3
290
0
340
4C
371
-2
372
-2
  0
DIMSTYLE
105
7D
330
4
100
AcDbSymbolTableRecord
100
AcDbDimStyleTableRecord
  2
EZ_M_50_H25_CM
 70
0
 40
1.0
 41
0.125
 42
0.0625
 43
3.75
 44
0.1875
 45
0.0
 46
0.0
 47
0.0
 48
0.0
 49
2.5
140
0.125
141
2.5
142
0.0625
143
0.03937007874
144
100.0
145
0.0
146
0.5
147
0.05
148
0.0
 69
0
 70
0
 71
0
 72
0
 73
0
 74
0
 75
0
 76
0
 77
1
 78
12
 79
3
170
0
171
3
172
1
173
0
174
0
175
0
176
0
177
0
178
0
179
2
271
2
272
2
273
2
274
3
275
0
276
0
277
2
278
46
279
2
280
0
281
0
282
0
283
0
284
8
285
0
286
0
288
1
289
3
290
0
340
4C
371
-2
372
-2
  0
DIMSTYLE
105
7E
330
4
100
AcDbSymbolTableRecord
100
AcDbDimStyleTableRecord
  2
EZ_M_25_H25_CM
 70
0
 40
1.0
 41
0.0625
 42
0.03125
 43
3.75
 44
0.09375
 45
0.0
 46
0.0
 47
0.0
 48
0.0
 49
2.5
140
0.0625
141
2.5
142
0.03125
143
0.03937007874
144
100.0
145
0.0
146
0.5
147
0.025
148
0.0
 69
0
 70
0
 71
0
 72
0
 73
0
 74
0
 75
0
 76
0
 77
1
 78
12
 79
3
170
0
171
3
172
1
173
0
174
0
175
0
176
0
177
0
178
0
179
2
271
2
272
2
273
2
274
3
275
0
276
0
277
2
278
46
279
2
280
0
281
0
282
0
283
0
284
8
285
0
286
0
288
1
289
3
290
0
340
4C
371
-2
372
-2
  0
DIMSTYLE
105
7F
330
4
100
AcDbSymbolTableRecord
100
AcDbDimStyleTableRecord
  2
EZ_M_20_H25_CM
 70
0
 40
1.0
 41
0.05
 42
0.025
 43
3.75
 44
0.07500000000000001
 45
0.0
 46
0.0
 47
0.0
 48
0.0
 49
2.5
140
0.05
141
2.5
142
0.025
143
0.03937007874
144
100.0
145
0.0
146
0.5
147
0.020000000000000004
148
0.0
 69
0
 70
0
 71
0
 72
0
 73
0
 74
0
 75
0
 76
0
 77
1
 78
12
 79
3
170
0
171
3
172
1
173
0
174
0
175
0
176
0
177
0
178
0
179
2
271
2
272
2
273
2
274
3
275
0
276
0
277
2
278
46
279
2
280
0
281
0
282
0
283
0
284
8
285
0
286
0
288
1
289
3
290
0
340
4C
371
-2
372
-2
  0
DIMSTYLE
105
80
330
4
100
AcDbSymbolTableRecord
100
AcDbDimStyleTableRecord
  2
EZ_M_10_H25_CM
 70
0
 40
1.0
 41
0.025
 42
0.0125
 43
3.75
 44
0.037500000000000006
 45
0.0
 46
0.0
 47
0.0
 48
0.0
 49
2.5
140
0.025
141
2.5
142
0.0125
143
0.03937007874
144
100.0
145
0.0
146
0.5
147
0.010000000000000002
148
0.0
 69
0
 70
0
 71
0
 72
0
 73
0
 74
0
 75
0
 76
0
 77
1
 78
12
 79
3
170
0
171
3
172
1
173
0
174
0
175
0
176
0
177
0
178
0
179
2
271
2
272
2
273
2
274
3
275
0
276
0
277
2
278
46
279
2
280
0
281
0
282
0
283
0
284
8
285
0
286
0
288
1
289
3
290
0
340
4C
371
-2
372
-2
  0
DIMSTYLE
105
81
330
4
100
AcDbSymbolTableRecord
100
AcDbDimStyleTableRecord
  2
EZ_M_5_H25_CM
 70
0
 40
1.0
 41
0.0125
 42
0.00625
 43
3.75
 44
0.018750000000000003
 45
0.0
 46
0.0
 47
0.0
 48
0.0
 49
2.5
140
0.0125
141
2.5
142
0.00625
143
0.03937007874
144
100.0
145
0.0
146
0.5
147
0.005000000000000001
148
0.0
 69
0
 70
0
 71
0
 72
0
 73
0
 74
0
 75
0
 76
0
 77
1
 78
12
 79
3
170
0
171
3
172
1
173
0
174
0
175
0
176
0
177
0
178
0
179
2
271
2
272
2
273
2
274
3
275
0
276
0
277
2
278
46
279
2
280
0
281
0
282
0
283
0
284
8
285
0
286
0
288
1
289
3
290
0
340
4C
371
-2
372
-2
  0
DIMSTYLE
105
82
330
4
100
AcDbSymbolTableRecord
100
AcDbDimStyleTableRecord
  2
EZ_M_1_H25_CM
 70
0
 40
1.0
 41
0.0025
 42
0.00125
 43
3.75
 44
0.00375
 45
0.0
 46
0.0
 47
0.0
 48
0.0
 49
2.5
140
0.0025
141
2.5
142
0.00125
143
0.03937007874
144
100.0
145
0.0
146
0.5
147
0.001
148
0.0
 69
0
 70
0
 71
0
 72
0
 73
0
 74
0
 75
0
 76
0
 77
1
 78
12
 79
3
170
0
171
3
172
1
173
0
174
0
175
0
176
0
177
0
178
0
179
2
271
2
272
2
273
2
274
3
275
0
276
0
277
2
278
46
279
2
280
0
281
0
282
0
283
0
284
8
285
0
286
0
288
1
289
3
290
0
340
4C
371
-2
372
-2
  0
DIMSTYLE
105
83
330
4
100
AcDbSymbolTableRecord
100
AcDbDimStyleTableRecord
  2
EZ_RADIUS
 70
0
 40
1.0
 41
0.25
 42
0.125
 43
3.75
 44
0.375
 45
0.0
 46
0.0
 47
0.0
 48
0.0
 49
2.5
140
0.25
141
0.0
142
0.0
143
0.03937007874
144
100.0
145
0.0
146
0.5
147
0.1
148
0.0
 69
0
 70
0
 71
0
 72
0
 73
0
 74
0
 75
0
 76
0
 77
1
 78
12
 79
3
170
0
171
3
172
0
173
0
174
0
175
0
176
0
177
0
178
0
179
2
271
2
272
2
273
2
274
3
275
0
276
0
277
2
278
46
279
1
280
0
281
0
282
0
283
0
284
8
285
0
286
0
288
1
289
3
290
0
340
4C
342
84
371
-2
372
-2
  0
DIMSTYLE
105
88
330
4
100
AcDbSymbolTableRecord
100
AcDbDimStyleTableRecord
  2
EZ_RADIUS_INSIDE
 70
0
 40
1.0
 41
0.25
 42
0.125
 43
3.75
 44
0.375
 45
0.0
 46
0.0
 47
0.0
 48
0.0
 49
2.5
140
0.25
141
0.0
142
0.0
143
0.03937007874
144
100.0
145
0.0
146
0.5
147
0.1
148
0.0
 69
0
 70
0
 71
0
 72
0
 73
0
 74
0
 75
0
 76
0
 77
0
 78
12
 79
3
170
0
171
3
172
0
173
0
174
1
175
0
176
0
177
0
178
0
179
2
271
2
272
2
273
2
274
3
275
0
276
0
277
2
278
46
279
0
280
0
281
0
282
0
283
0
284
8
285
0
286
0
288
1
289
0
290
0
340
4C
342
84
371
-2
372
-2
  0
DIMSTYLE
105
89
330
4
100
AcDbSymbolTableRecord
100
AcDbDimStyleTableRecord
  2
EZ_CURVED
 70
0
 40
1.0
 41
0.25
 42
0.125
 43
3.75
 44
0.375
 45
0.0
 46
0.0
 47
0.0
 48
0.0
 49
2.5
140
0.25
141
2.5
142
0.0
143
0.03937007874
144
100.0
145
0.0
146
0.5
147
0.1
148
0.0
 69
0
 70
0
 71
0
 72
0
 73
0
 74
0
 75
0
 76
0
 77
1
 78
12
 79
2
 90
2
170
0
171
3
172
1
173
0
174
0
175
0
176
0
177
0
178
0
179
2
271
2
272
2
273
2
274
3
275
0
276
0
277
2
278
46
279
2
280
0
281
0
282
0
283
0
284
8
285
0
286
0
288
1
289
3
290
0
340
4C
371
-2
372
-2
  0
ENDTAB
  0
TABLE
  2
BLOCK_RECORD
  5
9
330
0
100
AcDbSymbolTable
 70
5
  0
BLOCK_RECORD
  5
17
330
9
100
AcDbSymbolTableRecord
100
AcDbBlockTableRecord
  2
*Model_Space
340
1A
 70
0
280
1
281
0
  0
BLOCK_RECORD
  5
1B
330
9
100
AcDbSymbolTableRecord
100
AcDbBlockTableRecord
  2
*Paper_Space
340
1E
 70
0
280
1
281
0
  0
BLOCK_RECORD
  5
74
330
9
100
AcDbSymbolTableRecord
100
AcDbBlockTableRecord
  2
_ARCHTICK
340
0
 70
0
280
1
281
0
  0
BLOCK_RECORD
  5
78
330
9
100
AcDbSymbolTableRecord
100
AcDbBlockTableRecord
  2
_CLOSEDFILLED
340
0
 70
0
280
1
281
0
  0
BLOCK_RECORD
  5
84
330
9
100
AcDbSymbolTableRecord
100
AcDbBlockTableRecord
  2
_CLOSEDBLANK
340
0
 70
0
280
1
281
0
  0
ENDTAB
  0
ENDSEC
  0
SECTION
  2
BLOCKS
  0
BLOCK
  5
18
330
17
100
AcDbEntity
  8
0
100
AcDbBlockBegin
  2
*Model_Space
 70
0
 10
0.0
 20
0.0
 30
0.0
  3
*Model_Space
  1

  0
ENDBLK
  5
19
330
17
100
AcDbEntity
  8
0
100
AcDbBlockEnd
  0
BLOCK
  5
1C
330
1B
100
AcDbEntity
  8
0
100
AcDbBlockBegin
  2
*Paper_Space
 70
0
 10
0.0
 20
0.0
 30
0.0
  3
*Paper_Space
  1

  0
ENDBLK
  5
1D
330
1B
100
AcDbEntity
  8
0
100
AcDbBlockEnd
  0
BLOCK
  5
75
330
74
100
AcDbEntity
  8
0
100
AcDbBlockBegin
  2
_ARCHTICK
 70
0
 10
0.0
 20
0.0
 30
0.0
  3
_ARCHTICK
  1

  0
LWPOLYLINE
  5
77
330
74
100
AcDbEntity
  8
0
  6
BYBLOCK
 62
0
100
AcDbPolyline
 90
2
 70
0
 43
0.15
 10
-0.5
 20
-0.5
 10
0.5
 20
0.5
  0
ENDBLK
  5
76
330
74
100
AcDbEntity
  8
0
100
AcDbBlockEnd
  0
BLOCK
  5
79
330
78
100
AcDbEntity
  8
0
100
AcDbBlockBegin
  2
_CLOSEDFILLED
 70
0
 10
0.0
 20
0.0
 30
0.0
  3
_CLOSEDFILLED
  1

  0
SOLID
  5
7B
330
78
100
AcDbEntity
  8
0
  6
BYBLOCK
 62
0
100
AcDbTrace
 10
-1.0
 20
0.16439898372402537
 30
0.0
 11
0.0
 21
0.0
 31
0.0
 12
-1.0
 22
-0.16439898372402537
 32
0.0
 13
-1.0
 23
-0.16439898372402537
 33
0.0
  0
ENDBLK
  5
7A
330
78
100
AcDbEntity
  8
0
100
AcDbBlockEnd
  0
BLOCK
  5
85
330
84
100
AcDbEntity
  8
0
100
AcDbBlockBegin
  2
_CLOSEDBLANK
 70
0
 10
0.0
 20
0.0
 30
0.0
  3
_CLOSEDBLANK
  1

  0
LWPOLYLINE
  5
87
330
84
100
AcDbEntity
  8
0
  6
BYBLOCK
 62
0
100
AcDbPolyline
 90
3
 70
1
 10
-1.0
 20
0.16439898372402537
 10
0.0
 20
0.0
 10
-1.0
 20
-0.16439898372402537
  0
ENDBLK
  5
86
330
84
100
AcDbEntity
  8
0
100
AcDbBlockEnd
  0
ENDSEC
  0
SECTION
  2
ENTITIES
  0
LWPOLYLINE
  5
8C
330
17
100
AcDbEntity
  8
Layer
100
AcDbPolyline
 90
261
 70
1
 10
586.3290001850717
 20
162.79873817014067
 10
583.6998046325036
 20
163.37776432054466
 10
579.4134660941893
 20
164.33848249557522
 10
574.8032558929337
 20
165.4088920032242
 10
569.9672716579693
 20
166.5554424150338
 10
564.9840900826794
 20
167.75980124803664
 10
559.9147927782429
 20
169.0068774799731
 10
554.7913086489959
 20
170.2942789904685
 10
549.6319772643487
 20
171.6055926880588
 10
544.4602261071713
 20
172.94230481711537
 10
539.274847793817
 20
174.30611771402437
 10
534.0790111988873
 20
175.68409809064852
 10
528.890405719865
 20
177.07699608514073
 10
523.7089307982094
 20
178.4941425421386
 10
518.5280511550053
 20
179.93665406499505
 10
513.3417378006615
 20
181.3900833781782
 10
508.1462006270767
 20
182.84301647220286
 10
502.9515255005864
 20
184.31446081988628
 10
497.7455975954714
 20
185.80185551505247
 10
492.536004530376
 20
187.2935632652809
 10
487.3314914171053
 20
188.78938619962037
 10
482.13652564619326
 20
190.29255231216638
 10
476.9487339107328
 20
191.79980352598463
 10
471.76647970251116
 20
193.29306408937074
 10
466.5826082342902
 20
194.78408424275986
 10
461.39942508955494
 20
196.27824835894546
 10
456.2188698496728
 20
197.75684091900018
 10
451.0346821851882
 20
199.22192783502263
 10
445.85702956663556
 20
200.6757059668138
 10
443.4935551053736
 20
201.3298210462102
 10
443.22682204688124
 20
200.36605059869308
 10
440.42906964734215
 20
201.14037292709128
 10
435.26184544854243
 20
202.54487369017727
 10
430.0981146440631
 20
203.92933537635764
 10
424.9319066770627
 20
205.28785740786313
 10
419.76170024437516
 20
206.62587547414563
 10
414.5968291384242
 20
207.94046046183922
 10
409.43497885302844
 20
209.22483469326883
 10
404.26586977575806
 20
210.4786302808498
 10
399.08721234110396
 20
211.70582810766828
 10
393.89797225968965
 20
212.90901986801657
 10
388.70645523032783
 20
214.0910077252307
 10
383.51710890338745
 20
215.24524841078406
 10
378.32495828819617
 20
216.37026366485637
 10
373.1299059999571
 20
217.46375376366566
 10
367.91803333091855
 20
218.53006087600062
 10
362.71214309250865
 20
219.57660223792027
 10
357.51041137982395
 20
220.58423848870706
 10
352.2892871285776
 20
221.55983821871624
 10
347.05815983040463
 20
222.51341347388185
 10
341.82974520938916
 20
223.44217370754637
 10
336.60136987663645
 20
224.33893079410404
 10
331.3663660121951
 20
225.20345083412573
 10
326.1207775624852
 20
226.03900190389453
 10
320.86707703948593
 20
226.8492558705122
 10
315.6119357425586
 20
227.63434859029647
 10
310.3565536388832
 20
228.38894941221582
 10
305.08829277809355
 20
229.11396179834253
 10
299.81697645281247
 20
229.81709650704352
 10
294.548391932865
 20
230.4924444012588
 10
289.2788542984235
 20
231.1383013865039
 10
284.00947219950234
 20
231.75361428340847
 10
278.73426857970856
 20
232.33599576726664
 10
273.4456153604449
 20
232.89233138668249
 10
268.16669511215355
 20
233.4267377083688
 10
262.8885382751359
 20
233.9236683590781
 10
257.6016768126785
 20
234.3935362502673
 10
252.32308300166326
 20
234.83499436395815
 10
247.0445355177276
 20
235.2410309716397
 10
241.7609433926078
 20
235.61489747396453
 10
236.47901905413505
 20
235.95883282766926
 10
231.1960339968385
 20
236.26883827012983
 10
225.90966824062508
 20
236.54793622164195
 10
220.62842270074015
 20
236.79819463447677
 10
215.35757995006713
 20
237.014129984037
 10
210.08939054989077
 20
237.188692613453
 10
204.81044955141573
 20
237.32821277656134
 10
199.54708181737746
 20
237.43966669587118
 10
194.28410779683654
 20
237.50358465204008
 10
189.01442200603555
 20
237.53743557956955
 10
183.75982077780563
 20
237.53575605284507
 10
178.5091543854443
 20
237.49443827527423
 10
173.27311339370127
 20
237.41433048243158
 10
168.04056772717342
 20
237.28742494735292
 10
162.81188202100145
 20
237.11911961346135
 10
157.5866282212079
 20
236.90843973716224
 10
152.3722220574266
 20
236.6597182565749
 10
147.1721302300105
 20
236.36449473079801
 10
141.97848142520945
 20
236.02232100040368
 10
136.79433700420276
 20
235.6351818715283
 10
131.62108013244344
 20
235.205246204665
 10
126.47625313272893
 20
234.73377194042203
 10
121.36079286250141
 20
234.20698078561554
 10
116.2584349153404
 20
233.6201165522544
 10
111.18109930099597
 20
232.984442258567
 10
106.1309368005412
 20
232.28856398492547
 10
101.1048977412753
 20
231.53167258140542
 10
96.09731610971622
 20
230.71276286336936
 10
91.12084746850044
 20
229.8444533580871
 10
86.19733100843837
 20
228.91923753477948
 10
81.32315090758223
 20
227.92612361530072
 10
76.50304190407212
 20
226.861830038094
 10
71.73309664809065
 20
225.72134457521418
 10
67.0262827318592
 20
224.50387588971134
 10
62.370768370580095
 20
223.20018117621652
 10
57.79788093941923
 20
221.8319228120861
 10
53.31714157147931
 20
220.3699747878294
 10
48.93694236667773
 20
218.829010358568
 10
44.69289898845949
 20
217.20603889704554
 10
40.60044563614892
 20
215.50241051928498
 10
36.70828577762984
 20
213.73761762974974
 10
33.06715927946502
 20
211.92972016025578
 10
29.70669993177333
 20
210.08605047203935
 10
26.68008244198259
 20
208.2799063356495
 10
24.023040207972656
 20
206.53392291077492
 10
21.731234032789246
 20
204.87294854445804
 10
19.77710250768203
 20
203.3164320002562
 10
18.146553406431934
 20
201.90715083751672
 10
16.775770821677924
 20
200.56248742004266
 10
15.626952828099462
 20
199.3519479001268
 10
14.6860859756421
 20
198.25242611723147
 10
13.910704150318821
 20
197.2120556902526
 10
13.26563130363752
 20
196.2288031128002
 10
12.735264292506542
 20
195.32900076505524
 10
12.29870311071113
 20
194.47441615700197
 10
11.93131936766676
 20
193.65322232495848
 10
11.627726969615338
 20
192.91029536532795
 10
11.3834906663958
 20
192.2163202914276
 10
11.187379800015265
 20
191.54978833788851
 10
11.034839975473602
 20
190.94430833162446
 10
10.919786408640988
 20
190.34485836645612
 10
10.831803625009059
 20
189.78129565112184
 10
10.771428668360159
 20
189.30210110658197
 10
10.795876723451897
 20
188.84222798928286
 10
10.818225499600885
 20
188.2567047802736
 10
10.849069126737135
 20
187.7062229252704
 10
10.914248957145475
 20
187.16033008574996
 10
11.038381907923366
 20
186.5884532682863
 10
11.238782323223063
 20
185.97656691081792
 10
11.521147561269117
 20
185.32932574232785
 10
11.892684586986434
 20
184.65054144175434
 10
12.365488966759756
 20
183.94018934003904
 10
12.950681186670636
 20
183.20004046684548
 10
13.658266904280936
 20
182.4349022203544
 10
14.506919658560832
 20
181.64871818412269
 10
15.524267503162122
 20
180.84440520752293
 10
16.750768147517817
 20
180.02012753288113
 10
18.225913281474845
 20
179.16693511645184
 10
19.962717459209983
 20
178.27586728634049
 10
21.981081653721645
 20
177.35566636362017
 10
24.357208776878537
 20
176.43104348150257
 10
27.154779814680097
 20
175.50402804989696
 10
30.372439373977045
 20
174.55876143506256
 10
33.95591878410872
 20
173.6110968831253
 10
37.882751941145614
 20
172.72039949714937
 10
42.11423254773271
 20
171.8807870967648
 10
46.538173069334476
 20
171.09356817259655
 10
51.10963769884722
 20
170.3903526516393
 10
55.82209203661034
 20
169.77473795352623
 10
60.678218959742594
 20
169.21230819886077
 10
65.6033176685821
 20
168.66416263499804
 10
70.51367390288124
 20
168.15273786811173
 10
75.4513398640168
 20
167.72927920472856
 10
80.48577840382288
 20
167.3614270039002
 10
85.56504412923474
 20
166.99587038775493
 10
90.65262156717426
 20
166.6454802245945
 10
95.74408458142398
 20
166.32628354415033
 10
100.84924370959692
 20
166.04954854177572
 10
105.99291318158342
 20
165.81236524516822
 10
111.1799730523622
 20
165.59937860028168
 10
116.40296278644716
 20
165.40240707915052
 10
121.65167483673308
 20
165.21359333342366
 10
123.80746861357926
 20
165.13997031250815
 10
123.77333727395718
 20
164.1405529564173
 10
126.86782935409771
 20
164.0348668356691
 10
132.12086855094344
 20
163.8798846771583
 10
137.3812295601933
 20
163.7295139785611
 10
142.66556237570035
 20
163.61174438384427
 10
147.98601501005672
 20
163.50664581611238
 10
153.33524613462419
 20
163.40078349175366
 10
158.70519785723252
 20
163.30372754399488
 10
164.0892154668271
 20
163.21345003211124
 10
169.47976730609912
 20
163.13046974292087
 10
174.8731456555314
 20
163.0568087418714
 10
180.26995027306435
 20
162.99555676959474
 10
185.67479589910357
 20
162.9475051664801
 10
191.0913389616732
 20
162.90943801138786
 10
196.518038159463
 20
162.87600685123635
 10
201.95028833373686
 20
162.84449476017238
 10
207.38471362885747
 20
162.81365633888132
 10
212.81868353727302
 20
162.78388460795423
 10
218.2501654794538
 20
162.75915070115724
 10
223.6817384512835
 20
162.74239913685412
 10
229.11770431307036
 20
162.73176470031495
 10
234.5557819704732
 20
162.7224394731835
 10
239.99320804627635
 20
162.71589611897656
 10
245.4309029331247
 20
162.71376434150147
 10
250.8671440642721
 20
162.7160391884536
 10
256.3030381806645
 20
162.72544379251775
 10
261.7426042705349
 20
162.7411754016852
 10
267.18435705136153
 20
162.75822146946908
 10
272.6235784958101
 20
162.77187750109138
 10
278.057935811083
 20
162.78703179603804
 10
283.48581968642867
 20
162.80997709553122
 10
288.9113177582188
 20
162.84324914797415
 10
294.33987188553937
 20
162.88699985279519
 10
299.7751138965232
 20
162.93632423170558
 10
305.21279230081194
 20
162.9846355713705
 10
310.64982367360477
 20
163.0289106300164
 10
316.08250290592616
 20
163.07366379345254
 10
321.5069335023502
 20
163.1256963895173
 10
326.9278978100861
 20
163.18924399400123
 10
332.3497350682212
 20
163.26157761433385
 10
337.76942606129353
 20
163.330738757369
 10
343.18898211910505
 20
163.38764027319212
 10
348.6132762526417
 20
163.43799143848565
 10
354.0344558499021
 20
163.49078509571228
 10
359.4519187521079
 20
163.55309868534962
 10
364.8725176748498
 20
163.62628377451418
 10
370.2969997030842
 20
163.70286927118534
 10
375.7168217859616
 20
163.7729333210649
 10
381.1317790987673
 20
163.83462953101804
 10
386.54175939039493
 20
163.90078960526318
 10
391.94967274665777
 20
163.9803145788119
 10
397.36347262730834
 20
164.0713619274641
 10
402.7796544112222
 20
164.162370888759
 10
408.196284274173
 20
164.24458937479707
 10
413.61687236836246
 20
164.31630844576944
 10
419.04361102936764
 20
164.381628401422
 10
424.4728285046423
 20
164.44368709342282
 10
429.8979334441249
 20
164.5043745939947
 10
435.312567784709
 20
164.57134002494632
 10
440.7237520847512
 20
164.64086056270898
 10
446.13023168297025
 20
164.69585115873494
 10
451.54432398608776
 20
164.73476769366007
 10
456.96931746860275
 20
164.7681428830239
 10
462.3988345500735
 20
164.80237430202556
 10
467.8262814556409
 20
164.83608161395614
 10
473.2471730907687
 20
164.86628910933183
 10
478.6604060217087
 20
164.88745839352475
 10
484.0703105290918
 20
164.89541305227743
 10
489.48031986293086
 20
164.89427792707167
 10
494.8828177343481
 20
164.8862014828079
 10
500.2752732768598
 20
164.86155700297886
 10
505.66924270330026
 20
164.82162258593908
 10
511.0628908391194
 20
164.78190502500036
 10
516.4510424536066
 20
164.73893688098786
 10
521.8309730380299
 20
164.67568804713508
 10
527.2079793377738
 20
164.5971071021899
 10
532.5823348305619
 20
164.5030006603805
 10
537.9486238467658
 20
164.4012750199039
 10
543.3000049627466
 20
164.2810324680593
 10
548.6393653358442
 20
164.143502729642
 10
553.9562982681455
 20
163.9924158236938
 10
559.2350669773397
 20
163.8254348108165
 10
564.459520209659
 20
163.63770825264575
 10
569.5966790893082
 20
163.43753608426366
 10
574.5818869128902
 20
163.2274737045526
 10
579.3270464352553
 20
163.00869177615886
 10
583.7247579125764
 20
162.7836947498518
 10
586.4113073738016
 20
162.631957553048
  0
LWPOLYLINE
  5
8D
330
17
100
AcDbEntity
  8
Layer
100
AcDbPolyline
 90
5
 70
0
 10
387.210665475327
 20
210.32595466762896
 10
383.3060813380165
 20
211.19441463484853
 10
384.17454130523606
 20
215.09899877215904
 10
388.07912544254657
 20
214.23053880493947
 10
387.210665475327
 20
210.32595466762896
  0
LWPOLYLINE
  5
8E
330
17
100
AcDbEntity
  8
Layer
100
AcDbPolyline
 90
5
 70
0
 10
169.89585067356833
 20
233.3450889818383
 10
165.89792252388335
 20
233.21636248900737
 10
165.76919603105242
 20
237.21429063869235
 10
169.7671241807374
 20
237.34301713152328
 10
169.89585067356833
 20
233.3450889818383
  0
LWPOLYLINE
  5
8F
330
17
100
AcDbEntity
  8
Layer
100
AcDbPolyline
 90
5
 70
0
 10
72.14335776457509
 20
221.69577986145708
 10
68.27086914417106
 20
220.69386575094597
 10
67.26895503365998
 20
224.56635437135003
 10
71.141443654064
 20
225.56826848186114
 10
72.14335776457509
 20
221.69577986145708
  0
LWPOLYLINE
  5
90
330
17
100
AcDbEntity
  8
Layer
100
AcDbPolyline
 90
5
 70
0
 10
23.65300489580671
 20
200.0590619453724
 10
22.141617137280406
 20
198.74921193740326
 10
18.866992117357476
 20
202.52768133371902
 10
20.37837987588378
 20
203.83753134168816
 10
23.65300489580671
 20
200.0590619453724
  0
LWPOLYLINE
  5
91
330
17
100
AcDbEntity
  8
Layer
100
AcDbPolyline
 90
5
 70
0
 10
17.834964785931533
 20
185.39270432446045
 10
19.40801902731124
 20
184.15759285026985
 10
16.320240341834705
 20
180.22495724682057
 10
14.747186100454996
 20
181.46006872101117
 10
17.834964785931533
 20
185.39270432446045
  0
LWPOLYLINE
  5
92
330
17
100
AcDbEntity
  8
Layer
100
AcDbPolyline
 90
5
 70
0
 10
93.24292152824322
 20
170.49096546783227
 10
97.23508654873294
 20
170.24072868161107
 10
96.98484976251174
 20
166.24856366112135
 10
92.99268474202202
 20
166.49880044734255
 10
93.24292152824322
 20
170.49096546783227
  0
LINE
  5
93
330
17
100
AcDbEntity
  8
Layer
100
AcDbLine
 10
566.8806456346424
 20
167.30143275457985
 30
0.0
 11
566.668689099285
 21
166.32415366081017
 31
0.0
  0
LINE
  5
94
330
17
100
AcDbEntity
  8
Layer
100
AcDbLine
 10
566.4573092569733
 20
164.56052387372262
 30
0.0
 11
566.4323835763722
 21
163.5608345667644
 31
0.0
  0
LINE
  5
95
330
17
100
AcDbEntity
  8
Layer
100
AcDbLine
 10
547.4752278391855
 20
172.16303503753272
 30
0.0
 11
547.247709742505
 21
171.18926118509938
 31
0.0
  0
LINE
  5
96
330
17
100
AcDbEntity
  8
Layer
100
AcDbLine
 10
546.4707662591281
 20
165.19968893227357
 30
0.0
 11
546.4423219644259
 21
164.20009355308315
 31
0.0
  0
LINE
  5
97
330
17
100
AcDbEntity
  8
Layer
100
AcDbLine
 10
470.3995307461368
 20
193.68623518844274
 30
0.0
 11
470.1443314439964
 21
192.7193467170113
 31
0.0
  0
LINE
  5
98
330
17
100
AcDbEntity
  8
Layer
100
AcDbLine
 10
466.4538389992498
 20
165.82735847622158
 30
0.0
 11
466.4391294573164
 21
164.82746666738618
 31
0.0
  0
LWPOLYLINE
  5
99
330
17
100
AcDbEntity
  8
Layer
100
AcDbPolyline
 90
300
 70
1
 10
257.22212155963297
 20
200.0
 10
257.2160110331921
 20
200.58772351117625
 10
257.19768215210587
 20
201.17518750019502
 10
257.1671430098923
 20
201.76213255949662
 10
257.12440709177685
 20
202.34829951066598
 10
257.0694932687378
 20
202.93342951887877
 10
257.0024257891736
 20
203.51726420719544
 10
256.92323426819524
 20
204.09954577065324
 10
256.8319536745489
 20
204.68001709010565
 10
256.7286243151753
 20
205.2584218457589
 10
256.61329181741047
 20
205.8345046303557
 10
256.48600710883886
 20
206.40801106195573
 10
256.34682639480445
 20
206.9786878962637
 10
256.1958111335925
 20
207.54628313845475
 10
256.0330280092911
 20
208.1105461544484
 10
255.85854890234543
 20
208.67122778158142
 10
255.67245085781735
 20
209.22808043863114
 10
255.47481605136437
 20
209.78085823514022
 10
255.26573175295346
 20
210.32931707999506
 10
255.0452902883248
 20
210.87321478920953
 10
254.81358899822345
 20
211.41231119286655
 10
254.5707301954165
 20
211.94636824117052
 10
254.31682111951454
 20
212.47515010956315
 10
254.0519738896176
 20
212.9984233028572
 10
253.7763054548067
 20
213.51595675834125
 10
253.48993754250225
 20
214.02752194781056
 10
253.19299660471273
 20
214.53289297847857
 10
252.88561376219704
 20
215.0318466927249
 10
252.56792474656524
 20
215.5241627666355
 10
252.24006984034335
 20
216.00962380729135
 10
251.90219381502845
 20
216.48801544876324
 10
251.55444586716175
 20
216.95912644676952
 10
251.1969795524475
 20
217.42274877195578
 10
250.82995271794718
 20
217.87867770175475
 10
250.45352743237868
 20
218.32671191078597
 10
250.06786991455132
 20
218.76665355975535
 10
249.67315045996827
 20
219.19830838281564
 10
249.26954336562883
 20
219.6214857733485
 10
248.8572268530639
 20
220.03599886813123
 10
248.43638298963825
 20
220.44166462985015
 10
248.0071976081547
 20
220.8383039279249
 10
247.56986022479566
 20
221.2257416176073
 10
247.12456395543808
 20
221.60380661732034
 10
246.6715054303789
 20
221.97233198420315
 10
246.21088470750865
 20
222.33115498782814
 10
245.7429051839716
 20
222.6801171820582
 10
245.26777350635115
 20
223.019064475012
 10
244.7856994794206
 20
223.34784719710674
 10
244.29689597349935
 20
223.66632016714797
 10
243.80157883045524
 20
223.97434275643752
 10
243.29996676839485
 20
224.2717789508711
 10
242.79228128508387
 20
224.55849741099843
 10
242.27874656013978
 20
224.83437153001898
 10
241.75958935604055
 20
225.099279489688
 10
241.2350389179926
 20
225.3531043141079
 10
240.70532687270267
 20
225.5957339213817
 10
240.170687126098
 20
225.82706117310516
 10
239.63135576003992
 20
226.04698392167603
 10
239.08757092807693
 20
226.2554050553996
 10
238.53957275028264
 20
226.45223254137053
 10
237.9876032072256
 20
226.63737946611192
 10
237.4319060331174
 20
226.81076407395392
 10
236.87272660818664
 20
226.9723098031347
 10
236.31031185032583
 20
227.1219453196079
 10
235.74491010605942
 20
227.2596045485419
 10
235.17677104088096
 20
227.38522670349644
 10
234.60614552900788
 20
227.49875631326432
 10
234.03328554260244
 20
227.60014324636586
 10
233.458444040508
 20
227.68934273318553
 10
232.8818748565494
 20
227.76631538574105
 10
232.3038325874472
 20
227.8310272150759
 10
231.7245724803949
 20
227.88344964626796
 10
231.14435032034893
 20
227.9235595310474
 10
230.56342231708123
 20
227.9513391580182
 10
229.98204499204428
 20
227.96677626047912
 10
229.40047506509836
 20
227.96986402184032
 10
228.81896934115133
 20
227.9606010786333
 10
228.23778459676086
 20
227.93899152111297
 10
227.65717746674903
 20
227.9050448914516
 10
227.07740433087974
 20
227.8587761795253
 10
226.49872120064845
 20
227.80020581629466
 10
225.9213836062349
 20
227.7293596647833
 10
225.3456464836681
 20
227.64626900865727
 10
224.77176406225368
 20
227.5509705384113
 10
224.19998975231346
 20
227.443506335167
 10
223.63057603328667
 20
227.32392385209135
 10
223.06377434224194
 20
227.19227589344246
 10
222.49983496284992
 20
227.04862059125284
 10
221.939006914865
 20
226.89302137965987
 10
221.38153784416525
 20
226.7255469668951
 10
220.82767391339885
 20
226.5462713049446
 10
220.27765969328578
 20
226.35527355689388
 10
219.73173805462204
 20
226.1526380619717
 10
219.190150061035
 20
225.9384542983081
 10
218.6531348625363
 20
225.7128168434237
 10
218.12092958991997
 20
225.47582533246657
 10
217.59376925005222
 20
225.22758441421638
 10
217.07188662209896
 20
224.96820370487436
 10
216.5555121547371
 20
224.69779773965988
 10
216.0448738643949
 20
224.41648592223495
 10
215.54019723456634
 20
224.12439247197892
 10
215.0417051162439
 20
223.8216463691366
 10
214.5496176295139
 20
223.50838129786442
 10
214.06415206635765
 20
223.18473558719904
 10
213.58552279470146
 20
222.85085214997528
 10
213.1139411637577
 20
222.50687841971984
 10
212.64961541069903
 20
222.15296628554873
 10
212.1927505687067
 20
221.7892720250974
 10
211.7435483764337
 20
221.41595623551282
 10
211.30220718892252
 20
221.0331837625384
 10
210.86892189001733
 20
220.64112362772275
 10
210.44388380630866
 20
220.23994895378445
 10
210.02728062264896
 20
219.82983688816597
 10
209.61929629927627
 20
219.41096852481036
 10
209.22011099058255
 20
218.98352882419528
 10
208.82990096556262
 20
218.54770653165957
 10
208.44883852997864
 20
218.1036940940587
 10
208.07709195027485
 20
217.65168757478574
 10
207.71482537927574
 20
217.191886567195
 10
207.36219878370085
 20
216.7244941064676
 10
207.01936787352793
 20
216.24971657995647
 10
206.6864840332358
 20
215.76776363605182
 10
206.36369425495732
 20
215.27884809160616
 10
206.05114107357167
 20
214.7831858379604
 10
205.748962503765
 20
214.28099574561222
 10
205.45729197908707
 20
213.77249956756924
 10
205.1762582930307
 20
213.2579218414289
 10
204.9059855421603
 20
212.73748979022912
 10
204.64659307131404
 20
212.21143322211296
 10
204.39819542090498
 20
211.67998442885178
 10
204.16090227634277
 20
211.1433780832718
 10
203.93481841960002
 20
210.60185113562915
 10
203.72004368294333
 20
210.05564270897932
 10
203.51667290485028
 20
209.50499399358708
 10
203.3247958881313
 20
208.95014814042378
 10
203.14449736027547
 20
208.3913501537986
 10
202.97585693603705
 20
207.82884678317166
 10
202.81894908227994
 20
207.26288641419632
 10
202.67384308509529
 20
206.69371895903905
 10
202.54060301920651
 20
206.12159574602535
 10
202.41928771967585
 20
205.54676940866017
 10
202.3099507559244
 20
204.96949377407205
 10
202.2126404080774
 20
204.39002375093028
 10
202.12739964564506
 20
203.80861521688428
 10
202.05426610854846
 20
203.2255249055754
 10
201.99327209049878
 20
202.64101029327048
 10
201.94444452473732
 20
202.0553294851675
 10
201.9078049721426
 20
201.46874110142377
 10
201.88336961170958
 20
200.88150416295642
 10
201.87114923340556
 20
200.29387797706602
 10
201.87114923340556
 20
199.70612202293398
 10
201.88336961170958
 20
199.1184958370436
 10
201.9078049721426
 20
198.53125889857623
 10
201.94444452473732
 20
197.9446705148325
 10
201.99327209049878
 20
197.35898970672952
 10
202.05426610854846
 20
196.7744750944246
 10
202.12739964564506
 20
196.19138478311572
 10
202.2126404080774
 20
195.60997624906975
 10
202.3099507559244
 20
195.03050622592795
 10
202.41928771967585
 20
194.45323059133983
 10
202.54060301920651
 20
193.87840425397465
 10
202.67384308509529
 20
193.30628104096095
 10
202.81894908227994
 20
192.73711358580368
 10
202.97585693603702
 20
192.17115321682834
 10
203.14449736027547
 20
191.60864984620142
 10
203.3247958881313
 20
191.04985185957625
 10
203.51667290485025
 20
190.49500600641292
 10
203.72004368294333
 20
189.94435729102068
 10
203.93481841960002
 20
189.39814886437082
 10
204.16090227634277
 20
188.8566219167282
 10
204.39819542090495
 20
188.32001557114822
 10
204.64659307131404
 20
187.78856677788704
 10
204.90598554216027
 20
187.26251020977088
 10
205.1762582930307
 20
186.7420781585711
 10
205.45729197908707
 20
186.22750043243076
 10
205.748962503765
 20
185.71900425438778
 10
206.05114107357167
 20
185.2168141620396
 10
206.36369425495732
 20
184.72115190839384
 10
206.6864840332358
 20
184.23223636394818
 10
207.0193678735279
 20
183.75028342004353
 10
207.36219878370085
 20
183.27550589353243
 10
207.71482537927574
 20
182.808113432805
 10
208.07709195027485
 20
182.34831242521426
 10
208.44883852997864
 20
181.89630590594126
 10
208.82990096556262
 20
181.45229346834043
 10
209.22011099058255
 20
181.01647117580472
 10
209.61929629927627
 20
180.58903147518964
 10
210.02728062264896
 20
180.17016311183403
 10
210.44388380630866
 20
179.76005104621555
 10
210.86892189001733
 20
179.35887637227725
 10
211.30220718892252
 20
178.9668162374616
 10
211.7435483764337
 20
178.58404376448718
 10
212.1927505687067
 20
178.2107279749026
 10
212.64961541069903
 20
177.84703371445127
 10
213.1139411637577
 20
177.49312158028016
 10
213.58552279470146
 20
177.14914785002472
 10
214.06415206635765
 20
176.81526441280099
 10
214.54961762951388
 20
176.49161870213558
 10
215.0417051162439
 20
176.1783536308634
 10
215.54019723456634
 20
175.87560752802108
 10
216.0448738643949
 20
175.58351407776505
 10
216.5555121547371
 20
175.30220226034012
 10
217.07188662209896
 20
175.03179629512564
 10
217.59376925005222
 20
174.77241558578362
 10
218.12092958991994
 20
174.52417466753343
 10
218.6531348625363
 20
174.2871831565763
 10
219.190150061035
 20
174.0615457016919
 10
219.73173805462204
 20
173.8473619380283
 10
220.27765969328578
 20
173.64472644310612
 10
220.82767391339885
 20
173.4537286950554
 10
221.38153784416525
 20
173.2744530331049
 10
221.939006914865
 20
173.10697862034013
 10
222.49983496284992
 20
172.95137940874716
 10
223.06377434224194
 20
172.80772410655754
 10
223.63057603328667
 20
172.67607614790865
 10
224.19998975231348
 20
172.556493664833
 10
224.77176406225368
 20
172.4490294615887
 10
225.3456464836681
 20
172.35373099134273
 10
225.92138360623494
 20
172.2706403352167
 10
226.49872120064845
 20
172.19979418370534
 10
227.07740433087972
 20
172.1412238204747
 10
227.65717746674903
 20
172.0949551085484
 10
228.23778459676086
 20
172.06100847888703
 10
228.81896934115133
 20
172.0393989213667
 10
229.40047506509833
 20
172.03013597815968
 10
229.98204499204428
 20
172.03322373952088
 10
230.56342231708123
 20
172.0486608419818
 10
231.14435032034893
 20
172.0764404689526
 10
231.7245724803949
 20
172.11655035373204
 10
232.3038325874472
 20
172.1689727849241
 10
232.8818748565494
 20
172.23368461425895
 10
233.458444040508
 20
172.31065726681447
 10
234.03328554260244
 20
172.39985675363414
 10
234.60614552900788
 20
172.50124368673568
 10
235.17677104088094
 20
172.61477329650356
 10
235.7449101060594
 20
172.7403954514581
 10
236.3103118503258
 20
172.8780546803921
 10
236.8727266081866
 20
173.0276901968653
 10
237.43190603311737
 20
173.18923592604605
 10
237.9876032072256
 20
173.36262053388808
 10
238.53957275028264
 20
173.54776745862947
 10
239.08757092807693
 20
173.7445949446004
 10
239.63135576003992
 20
173.95301607832397
 10
240.170687126098
 20
174.17293882689484
 10
240.70532687270267
 20
174.4042660786183
 10
241.2350389179926
 20
174.6468956858921
 10
241.75958935604055
 20
174.900720510312
 10
242.27874656013978
 20
175.16562846998102
 10
242.79228128508387
 20
175.44150258900157
 10
243.29996676839485
 20
175.7282210491289
 10
243.8015788304552
 20
176.02565724356248
 10
244.29689597349935
 20
176.333679832852
 10
244.7856994794206
 20
176.65215280289326
 10
245.26777350635112
 20
176.98093552498798
 10
245.7429051839716
 20
177.3198828179418
 10
246.21088470750865
 20
177.66884501217183
 10
246.6715054303789
 20
178.02766801579685
 10
247.12456395543808
 20
178.39619338267966
 10
247.56986022479566
 20
178.7742583823927
 10
248.0071976081547
 20
179.1616960720751
 10
248.43638298963825
 20
179.55833537014985
 10
248.8572268530639
 20
179.96400113186877
 10
249.26954336562883
 20
180.3785142266515
 10
249.67315045996827
 20
180.80169161718436
 10
250.0678699145513
 20
181.23334644024462
 10
250.45352743237868
 20
181.67328808921403
 10
250.82995271794715
 20
182.12132229824522
 10
251.1969795524475
 20
182.57725122804422
 10
251.55444586716175
 20
183.04087355323048
 10
251.90219381502845
 20
183.51198455123676
 10
252.24006984034335
 20
183.99037619270865
 10
252.56792474656524
 20
184.4758372333645
 10
252.88561376219704
 20
184.9681533072751
 10
253.19299660471273
 20
185.46710702152143
 10
253.48993754250225
 20
185.97247805218944
 10
253.7763054548067
 20
186.48404324165875
 10
254.0519738896176
 20
187.0015766971428
 10
254.31682111951454
 20
187.52484989043688
 10
254.5707301954165
 20
188.0536317588295
 10
254.81358899822345
 20
188.58768880713342
 10
255.04529028832476
 20
189.12678521079044
 10
255.26573175295346
 20
189.67068292000494
 10
255.47481605136437
 20
190.21914176485976
 10
255.67245085781735
 20
190.77191956136886
 10
255.85854890234543
 20
191.32877221841858
 10
256.0330280092911
 20
191.8894538455516
 10
256.1958111335925
 20
192.45371686154525
 10
256.34682639480445
 20
193.0213121037363
 10
256.48600710883886
 20
193.59198893804427
 10
256.61329181741047
 20
194.1654953696443
 10
256.7286243151753
 20
194.7415781542411
 10
256.8319536745489
 20
195.31998290989438
 10
256.92323426819524
 20
195.90045422934676
 10
257.0024257891736
 20
196.48273579280456
 10
257.0694932687378
 20
197.0665704811212
 10
257.12440709177685
 20
197.651700489334
 10
257.1671430098923
 20
198.23786744050338
 10
257.19768215210587
 20
198.82481249980495
 10
257.2160110331921
 20
199.41227648882375
 10
257.22212155963297
 20
200.0
  0
LINE
  5
9A
330
17
100
AcDbEntity
  8
Layer
 62
7
100
AcDbLine
 10
16.24196283055062
 20
200.00000000000003
 30
0.0
 11
448.26356650094397
 21
199.99999999999997
 31
0.0
  0
LINE
  5
9B
330
17
100
AcDbEntity
  8
Layer
 62
7
100
AcDbLine
 10
100.5462835646293
 20
200.00000000000003
 30
0.0
 11
112.54628356462929
 21
200.00000000000003
 31
0.0
  0
LWPOLYLINE
  5
9C
330
17
100
AcDbEntity
  8
Layer
100
AcDbPolyline
 90
5
 70
0
 10
106.54628356462929
 20
205.00000000000003
 10
111.54628356462929
 20
200.00000000000003
 10
106.54628356462929
 20
195.00000000000003
 10
101.54628356462929
 20
200.00000000000003
 10
106.54628356462929
 20
205.00000000000003
  0
LINE
  5
9D
330
17
100
AcDbEntity
  8
Layer
 62
7
100
AcDbLine
 10
226.2527646657473
 20
200.0
 30
0.0
 11
238.2527646657473
 21
200.0
 31
0.0
  0
LWPOLYLINE
  5
9E
330
17
100
AcDbEntity
  8
Layer
100
AcDbPolyline
 90
5
 70
0
 10
232.2527646657473
 20
205.0
 10
237.2527646657473
 20
200.0
 10
232.2527646657473
 20
195.0
 10
227.2527646657473
 20
200.0
 10
232.2527646657473
 20
205.0
  0
LINE
  5
9F
330
17
100
AcDbEntity
  8
Layer
 62
7
100
AcDbLine
 10
351.9592457668653
 20
199.99999999999997
 30
0.0
 11
363.9592457668653
 21
199.99999999999997
 31
0.0
  0
LWPOLYLINE
  5
A0
330
17
100
AcDbEntity
  8
Layer
100
AcDbPolyline
 90
5
 70
0
 10
357.9592457668653
 20
204.99999999999997
 10
362.9592457668653
 20
199.99999999999997
 10
357.9592457668653
 20
194.99999999999997
 10
352.9592457668653
 20
199.99999999999997
 10
357.9592457668653
 20
204.99999999999997
  0
LINE
  5
A1
330
17
100
AcDbEntity
  8
Layer
 62
7
100
AcDbLine
 10
10.822029233632179
 20
189.7037165473957
 30
0.0
 11
584.7878277394044
 21
163.13814964809342
 31
0.0
  0
LINE
  5
A2
330
17
100
AcDbEntity
  8
Layer
 62
7
100
AcDbLine
 10
123.51743466903073
 20
184.48769611528633
 30
0.0
 11
135.5046019019215
 21
183.93287927099436
 31
0.0
  0
LWPOLYLINE
  5
A3
330
17
100
AcDbEntity
  8
Layer
100
AcDbPolyline
 90
5
 70
0
 10
129.74219197059776
 20
189.20494070684484
 10
134.5056712991806
 20
183.97911400801868
 10
129.27984460035444
 20
179.21563467943585
 10
124.51636527177162
 20
184.441461378262
 10
129.74219197059776
 20
189.20494070684484
  0
LINE
  5
A4
330
17
100
AcDbEntity
  8
Layer
 62
7
100
AcDbLine
 10
263.7623598365659
 20
177.9965672857898
 30
0.0
 11
275.7495270694567
 21
177.44175044149785
 31
0.0
  0
LWPOLYLINE
  5
A5
330
17
100
AcDbEntity
  8
Layer
100
AcDbPolyline
 90
5
 70
0
 10
269.98711713813293
 20
182.71381187734832
 10
274.75059646671576
 20
177.48798517852217
 10
269.52476976788967
 20
172.72450584993933
 10
264.76129043930683
 20
177.9503325487655
 10
269.98711713813293
 20
182.71381187734832
  0
LINE
  5
A6
330
17
100
AcDbEntity
  8
Layer
100
AcDbLine
 10
229.545871559633
 20
227.97024999999994
 30
0.0
 11
229.545871559633
 21
228.97024999999994
 31
0.0
  0
LINE
  5
A7
330
17
100
AcDbEntity
  8
Layer
100
AcDbLine
 10
229.545871559633
 20
172.02975000000006
 30
0.0
 11
229.545871559633
 21
171.02975000000006
 31
0.0
  0
LINE
  5
A8
330
17
100
AcDbEntity
  8
Layer
100
AcDbLine
 10
257.22212155963297
 20
200.0
 30
0.0
 11
258.22212155963297
 21
200.0
 31
0.0
  0
LINE
  5
A9
330
17
100
AcDbEntity
  8
Layer
100
AcDbLine
 10
201.86962155963306
 20
200.0
 30
0.0
 11
200.86962155963306
 21
200.0
 31
0.0
  0
LINE
  5
AA
330
17
100
AcDbEntity
  8
Layer
 62
7
100
AcDbLine
 10
149.545871559633
 20
163.47577595161056
 30
0.0
 11
149.545871559633
 21
236.49925855956712
 31
0.0
  0
LINE
  5
AB
330
17
100
AcDbEntity
  8
Layer
 62
7
100
AcDbLine
 10
149.545871559633
 20
184.98399486439536
 30
0.0
 11
149.545871559633
 21
196.98399486439536
 31
0.0
  0
LWPOLYLINE
  5
AC
330
17
100
AcDbEntity
  8
Layer
100
AcDbPolyline
 90
5
 70
0
 10
144.545871559633
 20
190.98399486439536
 10
149.545871559633
 20
195.98399486439536
 10
154.545871559633
 20
190.98399486439536
 10
149.545871559633
 20
185.98399486439536
 10
144.545871559633
 20
190.98399486439536
  0
LINE
  5
AD
330
17
100
AcDbEntity
  8
Layer
 62
7
100
AcDbLine
 10
149.545871559633
 20
202.99103964678233
 30
0.0
 11
149.545871559633
 21
214.99103964678233
 31
0.0
  0
LWPOLYLINE
  5
AE
330
17
100
AcDbEntity
  8
Layer
100
AcDbPolyline
 90
5
 70
0
 10
144.545871559633
 20
208.99103964678233
 10
149.545871559633
 20
213.99103964678233
 10
154.545871559633
 20
208.99103964678233
 10
149.545871559633
 20
203.99103964678233
 10
144.545871559633
 20
208.99103964678233
  0
LINE
  5
AF
330
17
100
AcDbEntity
  8
Layer
 62
7
100
AcDbLine
 10
359.54587155963304
 20
163.55436716964334
 30
0.0
 11
359.54587155963304
 21
220.1899460535153
 31
0.0
  0
LINE
  5
B0
330
17
100
AcDbEntity
  8
Layer
 62
7
100
AcDbLine
 10
359.54587155963304
 20
179.32681977899853
 30
0.0
 11
359.54587155963304
 21
191.32681977899853
 31
0.0
  0
LWPOLYLINE
  5
B1
330
17
100
AcDbEntity
  8
Layer
100
AcDbPolyline
 90
5
 70
0
 10
354.54587155963304
 20
185.32681977899853
 10
359.54587155963304
 20
190.32681977899853
 10
364.54587155963304
 20
185.32681977899853
 10
359.54587155963304
 20
180.32681977899853
 10
354.54587155963304
 20
185.32681977899853
  0
LINE
  5
B2
330
17
100
AcDbEntity
  8
Layer
 62
7
100
AcDbLine
 10
359.54587155963304
 20
192.41749344416013
 30
0.0
 11
359.54587155963304
 21
204.41749344416013
 31
0.0
  0
LWPOLYLINE
  5
B3
330
17
100
AcDbEntity
  8
Layer
100
AcDbPolyline
 90
5
 70
0
 10
354.54587155963304
 20
198.41749344416013
 10
359.54587155963304
 20
203.41749344416013
 10
364.54587155963304
 20
198.41749344416013
 10
359.54587155963304
 20
193.41749344416013
 10
354.54587155963304
 20
198.41749344416013
  0
LWPOLYLINE
  5
B4
330
17
100
AcDbEntity
  8
NumLabel
 62
1
100
AcDbPolyline
 90
4
 70
0
 10
171.77064220183487
 20
176.11238532110093
 10
171.77064220183487
 20
181.11238532110093
 10
176.77064220183487
 20
181.11238532110093
 10
176.77064220183487
 20
171.11238532110093
  0
LWPOLYLINE
  5
B5
330
17
100
AcDbEntity
  8
NumLabel
 62
1
100
AcDbPolyline
 90
7
 70
0
 10
179.27064220183487
 20
181.11238532110093
 10
184.27064220183487
 20
181.11238532110093
 10
184.27064220183487
 20
176.11238532110093
 10
179.27064220183487
 20
176.11238532110093
 10
184.27064220183487
 20
176.11238532110093
 10
184.27064220183487
 20
171.11238532110093
 10
179.27064220183487
 20
171.11238532110093
  0
ENDSEC
  0
SECTION
  2
OBJECTS
  0
DICTIONARY
  5
A
330
0
100
AcDbDictionary
280
0
281
1
  3
ACAD_COLOR
350
B
  3
ACAD_GROUP
350
C
  3
ACAD_LAYOUT
350
D
  3
ACAD_MATERIAL
350
E
  3
ACAD_MLEADERSTYLE
350
F
  3
ACAD_MLINESTYLE
350
10
  3
ACAD_PLOTSETTINGS
350
11
  3
ACAD_PLOTSTYLENAME
350
12
  3
ACAD_SCALELIST
350
14
  3
ACAD_TABLESTYLE
350
15
  3
ACAD_VISUALSTYLE
350
16
  3
EZDXF_META
350
2D
  0
DICTIONARY
  5
B
330
A
100
AcDbDictionary
280
0
281
1
  0
DICTIONARY
  5
C
330
A
100
AcDbDictionary
280
0
281
1
  0
DICTIONARY
  5
D
330
A
100
AcDbDictionary
280
0
281
1
  3
Model
350
1A
  3
Layout1
350
1E
  0
DICTIONARY
  5
E
330
A
100
AcDbDictionary
280
0
281
1
  3
ByBlock
350
1F
  3
ByLayer
350
20
  3
Global
350
21
  0
DICTIONARY
  5
F
330
A
100
AcDbDictionary
280
0
281
1
  3
Standard
350
2C
  0
DICTIONARY
  5
10
330
A
100
AcDbDictionary
280
0
281
1
  3
Standard
350
22
  0
DICTIONARY
  5
11
330
A
100
AcDbDictionary
280
0
281
1
  0
ACDBDICTIONARYWDFLT
  5
12
330
A
100
AcDbDictionary
280
0
281
1
  3
Normal
350
13
100
AcDbDictionaryWithDefault
340
13
  0
ACDBPLACEHOLDER
  5
13
330
12
  0
DICTIONARY
  5
14
330
A
100
AcDbDictionary
280
0
281
1
  0
DICTIONARY
  5
15
330
A
100
AcDbDictionary
280
0
281
1
  0
DICTIONARY
  5
16
330
A
100
AcDbDictionary
280
0
281
1
  3
2dWireframe
350
5A
  3
Basic
350
5B
  3
Brighten
350
5C
  3
ColorChange
350
5D
  3
Conceptual
350
5E
  3
Dim
350
5F
  3
EdgeColorOff
350
60
  3
Facepattern
350
61
  3
Flat
350
62
  3
FlatWithEdges
350
63
  3
Gouraud
350
64
  3
GouraudWithEdges
350
65
  3
Hidden
350
66
  3
JitterOff
350
67
  3
Linepattern
350
68
  3
Modeling
350
69
  3
OverhangOff
350
6A
  3
Realistic
350
6B
  3
Shaded
350
6C
  3
Shaded with edges
350
6D
  3
Shades of Gray
350
6E
  3
Sketchy
350
6F
  3
Thicken
350
70
  3
Wireframe
350
71
  3
X-Ray
350
72
  0
LAYOUT
  5
1A
330
D
100
AcDbPlotSettings
  1

  2
Adobe PDF
  4
A3
  6

 40
7.5
 41
20.0
 42
7.5
 43
20.0
 44
420.0
 45
297.0
 46
0.0
 47
0.0
 48
0.0
 49
0.0
140
0.0
141
0.0
142
1.0
143
1.0
 70
1024
 72
1
 73
0
 74
5
  7

 75
16
 76
0
 77
2
 78
300
147
1.0
148
0.0
149
0.0
100
AcDbLayout
  1
Model
 70
1
 71
0
 10
0.0
 20
0.0
 11
420.0
 21
297.0
 12
0.0
 22
0.0
 32
0.0
 14
1e+20
 24
1e+20
 34
1e+20
 15
-1e+20
 25
-1e+20
 35
-1e+20
146
0.0
 13
0.0
 23
0.0
 33
0.0
 16
1.0
 26
0.0
 36
0.0
 17
0.0
 27
1.0
 37
0.0
 76
1
330
17
  0
LAYOUT
  5
1E
330
D
100
AcDbPlotSettings
  1

  2
Adobe PDF
  4
A3
  6

 40
7.5
 41
20.0
 42
7.5
 43
20.0
 44
420.0
 45
297.0
 46
0.0
 47
0.0
 48
0.0
 49
0.0
140
0.0
141
0.0
142
1.0
143
1.0
 70
0
 72
1
 73
0
 74
5
  7

 75
16
 76
0
 77
2
 78
300
147
1.0
148
0.0
149
0.0
100
AcDbLayout
  1
Layout1
 70
1
 71
1
 10
0.0
 20
0.0
 11
420.0
 21
297.0
 12
0.0
 22
0.0
 32
0.0
 14
1e+20
 24
1e+20
 34
1e+20
 15
-1e+20
 25
-1e+20
 35
-1e+20
146
0.0
 13
0.0
 23
0.0
 33
0.0
 16
1.0
 26
0.0
 36
0.0
 17
0.0
 27
1.0
 37
0.0
 76
1
330
1B
  0
MATERIAL
  5
1F
102
{ACAD_REACTORS
330
E
102
}
330
E
100
AcDbMaterial
  1
ByBlock
  2

 70
0
 40
1.0
 71
1
 41
1.0
 91
-1023410177
 42
1.0
 72
1
  3

 73
1
 74
1
 75
1
 44
0.5
 73
0
 45
1.0
 46
1.0
 77
1
  4

 78
1
 79
1
170
1
 48
1.0
171
1
  6

172
1
173
1
174
1
140
1.0
141
1.0
175
1
  7

176
1
177
1
178
1
143
1.0
179
1
  8

270
1
271
1
272
1
145
1.0
146
1.0
273
1
  9

274
1
275
1
276
1
 42
1.0
 72
1
  3

 73
1
 74
1
 75
1
 94
63
  0
MATERIAL
  5
20
102
{ACAD_REACTORS
330
E
102
}
330
E
100
AcDbMaterial
  1
ByLayer
  2

 70
0
 40
1.0
 71
1
 41
1.0
 91
-1023410177
 42
1.0
 72
1
  3

 73
1
 74
1
 75
1
 44
0.5
 73
0
 45
1.0
 46
1.0
 77
1
  4

 78
1
 79
1
170
1
 48
1.0
171
1
  6

172
1
173
1
174
1
140
1.0
141
1.0
175
1
  7

176
1
177
1
178
1
143
1.0
179
1
  8

270
1
271
1
272
1
145
1.0
146
1.0
273
1
  9

274
1
275
1
276
1
 42
1.0
 72
1
  3

 73
1
 74
1
 75
1
 94
63
  0
MATERIAL
  5
21
102
{ACAD_REACTORS
330
E
102
}
330
E
100
AcDbMaterial
  1
Global
  2

 70
0
 40
1.0
 71
1
 41
1.0
 91
-1023410177
 42
1.0
 72
1
  3

 73
1
 74
1
 75
1
 44
0.5
 73
0
 45
1.0
 46
1.0
 77
1
  4

 78
1
 79
1
170
1
 48
1.0
171
1
  6

172
1
173
1
174
1
140
1.0
141
1.0
175
1
  7

176
1
177
1
178
1
143
1.0
179
1
  8

270
1
271
1
272
1
145
1.0
146
1.0
273
1
  9

274
1
275
1
276
1
 42
1.0
 72
1
  3

 73
1
 74
1
 75
1
 94
63
  0
MLINESTYLE
  5
22
102
{ACAD_REACTORS
330
10
102
}
330
10
100
AcDbMlineStyle
  2
Standard
 70
0
  3

 62
256
 51
90.0
 52
90.0
 71
2
 49
0.5
 62
256
  6
BYLAYER
 49
-0.5
 62
256
  6
BYLAYER
  0
MLEADERSTYLE
  5
2C
102
{ACAD_REACTORS
330
F
102
}
330
F
100
AcDbMLeaderStyle
179
2
170
2
171
1
172
0
 90
2
 40
0.0
 41
0.0
173
1
 91
-1056964608
 92
-2
290
1
 42
2.0
291
1
 43
8.0
  3
Standard
 44
4.0
300

342
29
174
1
175
1
176
0
178
1
 93
-1056964608
 45
4.0
292
0
297
0
 46
4.0
 94
-1056964608
 47
1.0
 49
1.0
140
1.0
294
1
141
0.0
177
0
142
1.0
295
0
296
0
143
3.75
271
0
272
9
273
9
  0
DICTIONARY
  5
2D
330
A
100
AcDbDictionary
281
1
  3
CREATED_BY_EZDXF
350
2E
  3
WRITTEN_BY_EZDXF
350
B8
  0
DICTIONARYVAR
  5
2E
330
2D
100
DictionaryVariables
280
0
  1
1.3.0 @ 2026-01-06T17:07:24.317532+00:00
  0
VISUALSTYLE
  5
5A
102
{ACAD_REACTORS
330
16
102
}
330
16
100
AcDbVisualStyle
  2
2dWireframe
 70
4
 90
0
 40
0.6
 62
7
290
0
291
0
  0
VISUALSTYLE
  5
5B
102
{ACAD_REACTORS
330
16
102
}
330
16
100
AcDbVisualStyle
  2
Basic
 70
7
 90
1
 40
0.6
 62
7
290
0
291
1
  0
VISUALSTYLE
  5
5C
102
{ACAD_REACTORS
330
16
102
}
330
16
100
AcDbVisualStyle
  2
Brighten
 70
12
 90
2
 40
0.6
 62
7
290
0
291
1
  0
VISUALSTYLE
  5
5D
102
{ACAD_REACTORS
330
16
102
}
330
16
100
AcDbVisualStyle
  2
ColorChange
 70
16
 90
2
 40
0.6
 62
8
290
0
291
1
  0
VISUALSTYLE
  5
5E
102
{ACAD_REACTORS
330
16
102
}
330
16
100
AcDbVisualStyle
  2
Conceptual
 70
9
 90
3
 40
0.6
 62
7
290
0
291
0
  0
VISUALSTYLE
  5
5F
102
{ACAD_REACTORS
330
16
102
}
330
16
100
AcDbVisualStyle
  2
Dim
 70
11
 90
2
 40
0.6
 62
7
290
0
291
1
  0
VISUALSTYLE
  5
60
102
{ACAD_REACTORS
330
16
102
}
330
16
100
AcDbVisualStyle
  2
EdgeColorOff
 70
22
 90
2
 40
0.6
 62
7
290
0
291
1
  0
VISUALSTYLE
  5
61
102
{ACAD_REACTORS
330
16
102
}
330
16
100
AcDbVisualStyle
  2
Facepattern
 70
15
 90
2
 40
0.6
 62
7
290
0
291
1
  0
VISUALSTYLE
  5
62
102
{ACAD_REACTORS
330
16
102
}
330
16
100
AcDbVisualStyle
  2
Flat
 70
0
 90
2
 40
0.6
 62
7
290
0
291
1
  0
VISUALSTYLE
  5
63
102
{ACAD_REACTORS
330
16
102
}
330
16
100
AcDbVisualStyle
  2
FlatWithEdges
 70
1
 90
2
 40
0.6
 62
7
290
0
291
1
  0
VISUALSTYLE
  5
64
102
{ACAD_REACTORS
330
16
102
}
330
16
100
AcDbVisualStyle
  2
Gouraud
 70
2
 90
2
 40
0.6
 62
7
290
0
291
1
  0
VISUALSTYLE
  5
65
102
{ACAD_REACTORS
330
16
102
}
330
16
100
AcDbVisualStyle
  2
GouraudWithEdges
 70
3
 90
2
 40
0.6
 62
7
290
0
291
1
  0
VISUALSTYLE
  5
66
102
{ACAD_REACTORS
330
16
102
}
330
16
100
AcDbVisualStyle
  2
Hidden
 70
6
 90
1
 40
0.6
 62
7
290
0
291
0
  0
VISUALSTYLE
  5
67
102
{ACAD_REACTORS
330
16
102
}
330
16
100
AcDbVisualStyle
  2
JitterOff
 70
20
 90
2
 40
0.6
 62
7
290
0
291
1
  0
VISUALSTYLE
  5
68
102
{ACAD_REACTORS
330
16
102
}
330
16
100
AcDbVisualStyle
  2
Linepattern
 70
14
 90
2
 40
0.6
 62
7
290
0
291
1
  0
VISUALSTYLE
  5
69
102
{ACAD_REACTORS
330
16
102
}
330
16
100
AcDbVisualStyle
  2
Modeling
 70
10
 90
2
 40
0.6
 62
7
290
0
291
0
  0
VISUALSTYLE
  5
6A
102
{ACAD_REACTORS
330
16
102
}
330
16
100
AcDbVisualStyle
  2
OverhangOff
 70
21
 90
2
 40
0.6
 62
7
290
0
291
1
  0
VISUALSTYLE
  5
6B
102
{ACAD_REACTORS
330
16
102
}
330
16
100
AcDbVisualStyle
  2
Realistic
 70
8
 90
2
 40
0.6
 62
7
290
0
291
0
  0
VISUALSTYLE
  5
6C
102
{ACAD_REACTORS
330
16
102
}
330
16
100
AcDbVisualStyle
  2
Shaded
 70
27
 90
2
 40
0.6
 62
7
290
0
291
0
  0
VISUALSTYLE
  5
6D
102
{ACAD_REACTORS
330
16
102
}
330
16
100
AcDbVisualStyle
  2
Shaded with edges
 70
26
 90
2
 40
0.6
 62
7
290
0
291
0
  0
VISUALSTYLE
  5
6E
102
{ACAD_REACTORS
330
16
102
}
330
16
100
AcDbVisualStyle
  2
Shades of Gray
 70
23
 90
2
 40
0.6
 62
7
290
0
291
0
  0
VISUALSTYLE
  5
6F
102
{ACAD_REACTORS
330
16
102
}
330
16
100
AcDbVisualStyle
  2
Sketchy
 70
24
 90
1
 40
0.6
 62
7
290
0
291
0
  0
VISUALSTYLE
  5
70
102
{ACAD_REACTORS
330
16
102
}
330
16
100
AcDbVisualStyle
  2
Thicken
 70
13
 90
2
 40
0.6
 62
7
290
0
291
1
  0
VISUALSTYLE
  5
71
102
{ACAD_REACTORS
330
16
102
}
330
16
100
AcDbVisualStyle
  2
Wireframe
 70
5
 90
0
 40
0.6
 62
7
290
0
291
0
  0
VISUALSTYLE
  5
72
102
{ACAD_REACTORS
330
16
102
}
330
16
100
AcDbVisualStyle
  2
X-Ray
 70
25
 90
2
 40
0.5
 62
7
290
0
291
0
  0
DICTIONARYVAR
  5
B8
330
2D
100
DictionaryVariables
280
0
  1
1.3.0 @ 2026-01-06T17:07:24.379099+00:00
  0
ENDSEC
  0
EOF
