  0
SECTION
  2
HEADER
  9
$ACADVER
  1
AC1021
  9
$ACADMAINTVER
 70
25
  9
$DWGCODEPAGE
  3
ANSI_1252
  9
$LASTSAVEDBY
  1
ezdxf
  9
$INSBASE
 10
0.0
 20
0.0
 30
0.0
  9
$EXTMIN
 10
1e+20
 20
1e+20
 30
1e+20
  9
$EXTMAX
 10
-1e+20
 20
-1e+20
 30
-1e+20
  9
$LIMMIN
 10
0.0
 20
0.0
  9
$LIMMAX
 10
420.0
 20
297.0
  9
$ORTHOMODE
 70
0
  9
$REGENMODE
 70
1
  9
$FILLMODE
 70
1
  9
$QTEXTMODE
 70
0
  9
$MIRRTEXT
 70
1
  9
$LTSCALE
 40
1.0
  9
$ATTMODE
 70
1
  9
$TEXTSIZE
 40
2.5
  9
$TRACEWID
 40
1.0
  9
$TEXTSTYLE
  7
OpenSans
  9
$CLAYER
  8
0
  9
$CELTYPE
  6
ByLayer
  9
$CECOLOR
 62
256
  9
$CELTSCALE
 40
1.0
  9
$DISPSILH
 70
0
  9
$DIMSCALE
 40
1.0
  9
$DIMASZ
 40
0.175
  9
$DIMEXO
 40
0.125
  9
$DIMDLI
 40
3.75
  9
$DIMRND
 40
0.0
  9
$DIMDLE
 40
0.0
  9
$DIMEXE
 40
0.375
  9
$DIMTP
 40
0.0
  9
$DIMTM
 40
0.0
  9
$DIMTXT
 40
0.25
  9
$DIMCEN
 40
2.5
  9
$DIMTSZ
 40
0.0
  9
$DIMTOL
 70
0
  9
$DIMLIM
 70
0
  9
$DIMTIH
 70
0
  9
$DIMTOH
 70
0
  9
$DIMSE1
 70
0
  9
$DIMSE2
 70
0
  9
$DIMTAD
 70
1
  9
$DIMZIN
 70
12
  9
$DIMBLK
  1
ARCHTICK
  9
$DIMASO
 70
1
  9
$DIMSHO
 70
1
  9
$DIMPOST
  1

  9
$DIMAPOST
  1

  9
$DIMALT
 70
0
  9
$DIMALTD
 70
3
  9
$DIMALTF
 40
0.03937007874
  9
$DIMLFAC
 40
100.0
  9
$DIMTOFL
 70
1
  9
$DIMTVP
 40
0.0
  9
$DIMTIX
 70
0
  9
$DIMSOXD
 70
0
  9
$DIMSAH
 70
0
  9
$DIMBLK1
  1

  9
$DIMBLK2
  1

  9
$DIMSTYLE
  2
EZDXF
  9
$DIMCLRD
 70
0
  9
$DIMCLRE
 70
0
  9
$DIMCLRT
 70
0
  9
$DIMTFAC
 40
0.5
  9
$DIMGAP
 40
0.1
  9
$DIMJUST
 70
0
  9
$DIMSD1
 70
0
  9
$DIMSD2
 70
0
  9
$DIMTOLJ
 70
0
  9
$DIMTZIN
 70
8
  9
$DIMALTZ
 70
0
  9
$DIMALTTZ
 70
0
  9
$DIMUPT
 70
1
  9
$DIMDEC
 70
2
  9
$DIMTDEC
 70
2
  9
$DIMALTU
 70
2
  9
$DIMALTTD
 70
3
  9
$DIMTXSTY
  7
OpenSansCondensed-Light
  9
$DIMAUNIT
 70
0
  9
$DIMADEC
 70
2
  9
$DIMALTRND
 40
0.0
  9
$DIMAZIN
 70
3
  9
$DIMDSEP
 70
46
  9
$DIMATFIT
 70
3
  9
$DIMFRAC
 70
0
  9
$DIMLDRBLK
  1

  9
$DIMLUNIT
 70
2
  9
$DIMLWD
 70
-2
  9
$DIMLWE
 70
-2
  9
$DIMTMOVE
 70
2
  9
$DIMFXL
 40
1.0
  9
$DIMFXLON
 70
0
  9
$DIMJOGANG
 40
0.785398163397
  9
$DIMTFILL
 70
0
  9
$DIMTFILLCLR
 70
0
  9
$DIMARCSYM
 70
0
  9
$DIMLTYPE
  6

  9
$DIMLTEX1
  6

  9
$DIMLTEX2
  6

  9
$LUNITS
 70
2
  9
$LUPREC
 70
4
  9
$SKETCHINC
 40
1.0
  9
$FILLETRAD
 40
10.0
  9
$AUNITS
 70
0
  9
$AUPREC
 70
2
  9
$MENU
  1
.
  9
$ELEVATION
 40
0.0
  9
$PELEVATION
 40
0.0
  9
$THICKNESS
 40
0.0
  9
$LIMCHECK
 70
0
  9
$CHAMFERA
 40
0.0
  9
$CHAMFERB
 40
0.0
  9
$CHAMFERC
 40
0.0
  9
$CHAMFERD
 40
0.0
  9
$SKPOLY
 70
0
  9
$TDCREATE
 40
2461048.0884375
  9
$TDUCREATE
 40
2458532.153996898
  9
$TDUPDATE
 40
2461048.0884375
  9
$TDUUPDATE
 40
2458532.1544311
  9
$TDINDWG
 40
0.0
  9
$TDUSRTIMER
 40
0.0
  9
$USRTIMER
 70
1
  9
$ANGBASE
 50
0.0
  9
$ANGDIR
 70
0
  9
$PDMODE
 70
0
  9
$PDSIZE
 40
0.0
  9
$PLINEWID
 40
0.0
  9
$SPLFRAME
 70
0
  9
$SPLINETYPE
 70
6
  9
$SPLINESEGS
 70
8
  9
$HANDSEED
  5
AE
  9
$SURFTAB1
 70
6
  9
$SURFTAB2
 70
6
  9
$SURFTYPE
 70
6
  9
$SURFU
 70
6
  9
$SURFV
 70
6
  9
$UCSBASE
  2

  9
$UCSNAME
  2

  9
$UCSORG
 10
0.0
 20
0.0
 30
0.0
  9
$UCSXDIR
 10
1.0
 20
0.0
 30
0.0
  9
$UCSYDIR
 10
0.0
 20
1.0
 30
0.0
  9
$UCSORTHOREF
  2

  9
$UCSORTHOVIEW
 70
0
  9
$UCSORGTOP
 10
0.0
 20
0.0
 30
0.0
  9
$UCSORGBOTTOM
 10
0.0
 20
0.0
 30
0.0
  9
$UCSORGLEFT
 10
0.0
 20
0.0
 30
0.0
  9
$UCSORGRIGHT
 10
0.0
 20
0.0
 30
0.0
  9
$UCSORGFRONT
 10
0.0
 20
0.0
 30
0.0
  9
$UCSORGBACK
 10
0.0
 20
0.0
 30
0.0
  9
$PUCSBASE
  2

  9
$PUCSNAME
  2

  9
$PUCSORG
 10
0.0
 20
0.0
 30
0.0
  9
$PUCSXDIR
 10
1.0
 20
0.0
 30
0.0
  9
$PUCSYDIR
 10
0.0
 20
1.0
 30
0.0
  9
$PUCSORTHOREF
  2

  9
$PUCSORTHOVIEW
 70
0
  9
$PUCSORGTOP
 10
0.0
 20
0.0
 30
0.0
  9
$PUCSORGBOTTOM
 10
0.0
 20
0.0
 30
0.0
  9
$PUCSORGLEFT
 10
0.0
 20
0.0
 30
0.0
  9
$PUCSORGRIGHT
 10
0.0
 20
0.0
 30
0.0
  9
$PUCSORGFRONT
 10
0.0
 20
0.0
 30
0.0
  9
$PUCSORGBACK
 10
0.0
 20
0.0
 30
0.0
  9
$USERI1
 70
0
  9
$USERI2
 70
0
  9
$USERI3
 70
0
  9
$USERI4
 70
0
  9
$USERI5
 70
0
  9
$USERR1
 40
0.0
  9
$USERR2
 40
0.0
  9
$USERR3
 40
0.0
  9
$USERR4
 40
0.0
  9
$USERR5
 40
0.0
  9
$WORLDVIEW
 70
1
  9
$SHADEDGE
 70
3
  9
$SHADEDIF
 70
70
  9
$TILEMODE
 70
1
  9
$MAXACTVP
 70
64
  9
$PINSBASE
 10
0.0
 20
0.0
 30
0.0
  9
$PLIMCHECK
 70
0
  9
$PEXTMIN
 10
1e+20
 20
1e+20
 30
1e+20
  9
$PEXTMAX
 10
-1e+20
 20
-1e+20
 30
-1e+20
  9
$PLIMMIN
 10
0.0
 20
0.0
  9
$PLIMMAX
 10
420.0
 20
297.0
  9
$UNITMODE
 70
0
  9
$VISRETAIN
 70
1
  9
$PLINEGEN
 70
0
  9
$PSLTSCALE
 70
1
  9
$TREEDEPTH
 70
3020
  9
$CMLSTYLE
  2
Standard
  9
$CMLJUST
 70
0
  9
$CMLSCALE
 40
20.0
  9
$PROXYGRAPHICS
 70
1
  9
$MEASUREMENT
 70
1
  9
$CELWEIGHT
370
-1
  9
$ENDCAPS
280
0
  9
$JOINSTYLE
280
0
  9
$LWDISPLAY
290
0
  9
$INSUNITS
 70
6
  9
$HYPERLINKBASE
  1

  9
$STYLESHEET
  1

  9
$XEDIT
290
1
  9
$CEPSNTYPE
380
0
  9
$PSTYLEMODE
290
1
  9
$FINGERPRINTGUID
  2
{385F3FDA-35B3-489F-9882-D09D07975213}
  9
$VERSIONGUID
  2
{42779C42-FF28-4B6D-9CE5-C6997FA7AFEA}
  9
$EXTNAMES
290
1
  9
$PSVPSCALE
 40
0.0
  9
$OLESTARTUP
290
0
  9
$SORTENTS
280
127
  9
$INDEXCTL
280
0
  9
$HIDETEXT
280
1
  9
$XCLIPFRAME
290
1
  9
$HALOGAP
280
0
  9
$OBSCOLOR
 70
257
  9
$OBSLTYPE
280
0
  9
$INTERSECTIONDISPLAY
280
0
  9
$INTERSECTIONCOLOR
 70
257
  9
$DIMASSOC
280
2
  9
$PROJECTNAME
  1

  9
$CAMERADISPLAY
290
0
  9
$LENSLENGTH
 40
50.0
  9
$CAMERAHEIGHT
 40
0.0
  9
$STEPSPERSEC
 40
24.0
  9
$STEPSIZE
 40
100.0
  9
$3DDWFPREC
 40
2.0
  9
$PSOLWIDTH
 40
0.005
  9
$PSOLHEIGHT
 40
0.08
  9
$LOFTANG1
 40
1.570796326795
  9
$LOFTANG2
 40
1.570796326795
  9
$LOFTMAG1
 40
0.0
  9
$LOFTMAG2
 40
0.0
  9
$LOFTPARAM
 70
7
  9
$LOFTNORMALS
280
1
  9
$LATITUDE
 40
37.795
  9
$LONGITUDE
 40
-122.394
  9
$NORTHDIRECTION
 40
0.0
  9
$TIMEZONE
 70
-8000
  9
$LIGHTGLYPHDISPLAY
280
1
  9
$TILEMODELIGHTSYNCH
280
1
  9
$CMATERIAL
347
20
  9
$SOLIDHIST
280
0
  9
$SHOWHIST
280
1
  9
$DWFFRAME
280
2
  9
$DGNFRAME
280
2
  9
$REALWORLDSCALE
290
1
  9
$INTERFERECOLOR
 62
256
  9
$CSHADOW
280
0
  9
$SHADOWPLANELOCATION
 40
0.0
  0
ENDSEC
  0
SECTION
  2
CLASSES
  0
CLASS
  1
ACDBDICTIONARYWDFLT
  2
AcDbDictionaryWithDefault
  3
ObjectDBX Classes
 90
0
 91
0
280
0
281
0
  0
CLASS
  1
SUN
  2
AcDbSun
  3
SCENEOE
 90
1153
 91
0
280
0
281
0
  0
CLASS
  1
VISUALSTYLE
  2
AcDbVisualStyle
  3
ObjectDBX Classes
 90
4095
 91
0
280
0
281
0
  0
CLASS
  1
MATERIAL
  2
AcDbMaterial
  3
ObjectDBX Classes
 90
1153
 91
0
280
0
281
0
  0
CLASS
  1
SCALE
  2
AcDbScale
  3
ObjectDBX Classes
 90
1153
 91
0
280
0
281
0
  0
CLASS
  1
TABLESTYLE
  2
AcDbTableStyle
  3
ObjectDBX Classes
 90
4095
 91
0
280
0
281
0
  0
CLASS
  1
MLEADERSTYLE
  2
AcDbMLeaderStyle
  3
ACDB_MLEADERSTYLE_CLASS
 90
4095
 91
0
280
0
281
0
  0
CLASS
  1
DICTIONARYVAR
  2
AcDbDictionaryVar
  3
ObjectDBX Classes
 90
0
 91
0
280
0
281
0
  0
CLASS
  1
CELLSTYLEMAP
  2
AcDbCellStyleMap
  3
ObjectDBX Classes
 90
1152
 91
0
280
0
281
0
  0
CLASS
  1
MENTALRAYRENDERSETTINGS
  2
AcDbMentalRayRenderSettings
  3
SCENEOE
 90
1024
 91
0
280
0
281
0
  0
CLASS
  1
ACDBDETAILVIEWSTYLE
  2
AcDbDetailViewStyle
  3
ObjectDBX Classes
 90
1025
 91
0
280
0
281
0
  0
CLASS
  1
ACDBSECTIONVIEWSTYLE
  2
AcDbSectionViewStyle
  3
ObjectDBX Classes
 90
1025
 91
0
280
0
281
0
  0
CLASS
  1
RASTERVARIABLES
  2
AcDbRasterVariables
  3
ISM
 90
0
 91
0
280
0
281
0
  0
CLASS
  1
ACDBPLACEHOLDER
  2
AcDbPlaceHolder
  3
ObjectDBX Classes
 90
0
 91
0
280
0
281
0
  0
CLASS
  1
LAYOUT
  2
AcDbLayout
  3
ObjectDBX Classes
 90
0
 91
0
280
0
281
0
  0
ENDSEC
  0
SECTION
  2
TABLES
  0
TABLE
  2
VPORT
  5
8
330
0
100
AcDbSymbolTable
 70
1
  0
VPORT
  5
23
330
8
100
AcDbSymbolTableRecord
100
AcDbViewportTableRecord
  2
*Active
 70
0
 10
0.0
 20
0.0
 11
1.0
 21
1.0
 12
0.0
 22
0.0
 13
0.0
 23
0.0
 14
0.5
 24
0.5
 15
0.5
 25
0.5
 16
0.0
 26
0.0
 36
1.0
 17
0.0
 27
0.0
 37
0.0
 40
1000.0
 41
1.34
 42
50.0
 43
0.0
 44
0.0
 50
0.0
 51
0.0
 71
0
 72
1000
 73
1
 74
3
 75
0
 76
0
 77
0
 78
0
281
0
 65
0
146
0.0
  0
ENDTAB
  0
TABLE
  2
LTYPE
  5
2
330
0
100
AcDbSymbolTable
 70
21
  0
LTYPE
  5
24
330
2
100
AcDbSymbolTableRecord
100
AcDbLinetypeTableRecord
  2
ByBlock
 70
0
  3

 72
65
 73
0
 40
0.0
  0
LTYPE
  5
25
330
2
100
AcDbSymbolTableRecord
100
AcDbLinetypeTableRecord
  2
ByLayer
 70
0
  3

 72
65
 73
0
 40
0.0
  0
LTYPE
  5
26
330
2
100
AcDbSymbolTableRecord
100
AcDbLinetypeTableRecord
  2
Continuous
 70
0
  3

 72
65
 73
0
 40
0.0
  0
LTYPE
  5
2F
330
2
100
AcDbSymbolTableRecord
100
AcDbLinetypeTableRecord
  2
CENTER
 70
0
  3
Center ____ _ ____ _ ____ _ ____ _ ____ _ ____
 72
65
 73
4
 40
5.08
 49
3.175
 74
0
 49
-0.635
 74
0
 49
0.635
 74
0
 49
-0.635
 74
0
  0
LTYPE
  5
30
330
2
100
AcDbSymbolTableRecord
100
AcDbLinetypeTableRecord
  2
CENTERX2
 70
0
  3
Center (2x) ________  __  ________  __  ________
 72
65
 73
4
 40
8.89
 49
6.35
 74
0
 49
-0.635
 74
0
 49
1.27
 74
0
 49
-0.635
 74
0
  0
LTYPE
  5
31
330
2
100
AcDbSymbolTableRecord
100
AcDbLinetypeTableRecord
  2
CENTER2
 70
0
  3
Center (.5x) ____ _ ____ _ ____ _ ____ _ ____
 72
65
 73
4
 40
2.54
 49
1.587
 74
0
 49
-0.318
 74
0
 49
0.318
 74
0
 49
-0.318
 74
0
  0
LTYPE
  5
32
330
2
100
AcDbSymbolTableRecord
100
AcDbLinetypeTableRecord
  2
DASHED
 70
0
  3
Dashed __ __ __ __ __ __ __ __ __ __ __ __ __ _
 72
65
 73
2
 40
1.524
 49
1.27
 74
0
 49
-0.254
 74
0
  0
LTYPE
  5
33
330
2
100
AcDbSymbolTableRecord
100
AcDbLinetypeTableRecord
  2
DASHEDX2
 70
0
  3
Dashed (2x) ____  ____  ____  ____  ____  ____
 72
65
 73
2
 40
3.048
 49
2.54
 74
0
 49
-0.508
 74
0
  0
LTYPE
  5
34
330
2
100
AcDbSymbolTableRecord
100
AcDbLinetypeTableRecord
  2
DASHED2
 70
0
  3
Dashed (.5x) _ _ _ _ _ _ _ _ _ _ _ _ _ _
 72
65
 73
2
 40
0.762
 49
0.635
 74
0
 49
-0.127
 74
0
  0
LTYPE
  5
35
330
2
100
AcDbSymbolTableRecord
100
AcDbLinetypeTableRecord
  2
PHANTOM
 70
0
  3
Phantom ______  __  __  ______  __  __  ______
 72
65
 73
6
 40
6.35
 49
3.175
 74
0
 49
-0.635
 74
0
 49
0.635
 74
0
 49
-0.635
 74
0
 49
0.635
 74
0
 49
-0.635
 74
0
  0
LTYPE
  5
36
330
2
100
AcDbSymbolTableRecord
100
AcDbLinetypeTableRecord
  2
PHANTOMX2
 70
0
  3
Phantom (2x)____________    ____    ____    ____________
 72
65
 73
6
 40
10.795
 49
6.35
 74
0
 49
-0.635
 74
0
 49
1.27
 74
0
 49
-0.635
 74
0
 49
1.27
 74
0
 49
-0.635
 74
0
  0
LTYPE
  5
37
330
2
100
AcDbSymbolTableRecord
100
AcDbLinetypeTableRecord
  2
PHANTOM2
 70
0
  3
Phantom (.5x) ___ _ _ ___ _ _ ___ _ _ ___ _ _ ___
 72
65
 73
6
 40
3.175
 49
1.587
 74
0
 49
-0.318
 74
0
 49
0.318
 74
0
 49
-0.318
 74
0
 49
0.318
 74
0
 49
-0.318
 74
0
  0
LTYPE
  5
38
330
2
100
AcDbSymbolTableRecord
100
AcDbLinetypeTableRecord
  2
DASHDOT
 70
0
  3
Dash dot __ . __ . __ . __ . __ . __ . __ . __
 72
65
 73
4
 40
3.556
 49
2.54
 74
0
 49
-0.508
 74
0
 49
0.0
 74
0
 49
-0.508
 74
0
  0
LTYPE
  5
39
330
2
100
AcDbSymbolTableRecord
100
AcDbLinetypeTableRecord
  2
DASHDOTX2
 70
0
  3
Dash dot (2x) ____  .  ____  .  ____  .  ____
 72
65
 73
4
 40
6.096
 49
5.08
 74
0
 49
-0.508
 74
0
 49
0.0
 74
0
 49
-0.508
 74
0
  0
LTYPE
  5
3A
330
2
100
AcDbSymbolTableRecord
100
AcDbLinetypeTableRecord
  2
DASHDOT2
 70
0
  3
Dash dot (.5x) _ . _ . _ . _ . _ . _ . _ . _
 72
65
 73
4
 40
1.778
 49
1.27
 74
0
 49
-0.254
 74
0
 49
0.0
 74
0
 49
-0.254
 74
0
  0
LTYPE
  5
3B
330
2
100
AcDbSymbolTableRecord
100
AcDbLinetypeTableRecord
  2
DOT
 70
0
  3
Dot .  .  .  .  .  .  .  .  .  .  .  .  .  .  .  .
 72
65
 73
2
 40
0.508
 49
0.0
 74
0
 49
-0.508
 74
0
  0
LTYPE
  5
3C
330
2
100
AcDbSymbolTableRecord
100
AcDbLinetypeTableRecord
  2
DOTX2
 70
0
  3
Dot (2x) .    .    .    .    .    .    .    . 
 72
65
 73
2
 40
1.016
 49
0.0
 74
0
 49
-1.016
 74
0
  0
LTYPE
  5
3D
330
2
100
AcDbSymbolTableRecord
100
AcDbLinetypeTableRecord
  2
DOT2
 70
0
  3
Dot (.5) . . . . . . . . . . . . . . . . . . . 
 72
65
 73
2
 40
0.254
 49
0.0
 74
0
 49
-0.254
 74
0
  0
LTYPE
  5
3E
330
2
100
AcDbSymbolTableRecord
100
AcDbLinetypeTableRecord
  2
DIVIDE
 70
0
  3
Divide __ . . __ . . __ . . __ . . __ . . __
 72
65
 73
6
 40
4.064
 49
2.54
 74
0
 49
-0.508
 74
0
 49
0.0
 74
0
 49
-0.508
 74
0
 49
0.0
 74
0
 49
-0.508
 74
0
  0
LTYPE
  5
3F
330
2
100
AcDbSymbolTableRecord
100
AcDbLinetypeTableRecord
  2
DIVIDEX2
 70
0
  3
Divide (2x) ____  . .  ____  . .  ____  . .  ____
 72
65
 73
6
 40
6.604
 49
5.08
 74
0
 49
-0.508
 74
0
 49
0.0
 74
0
 49
-0.508
 74
0
 49
0.0
 74
0
 49
-0.508
 74
0
  0
LTYPE
  5
40
330
2
100
AcDbSymbolTableRecord
100
AcDbLinetypeTableRecord
  2
DIVIDE2
 70
0
  3
Divide(.5x) _ . _ . _ . _ . _ . _ . _ . _
 72
65
 73
6
 40
2.032
 49
1.27
 74
0
 49
-0.254
 74
0
 49
0.0
 74
0
 49
-0.254
 74
0
 49
0.0
 74
0
 49
-0.254
 74
0
  0
ENDTAB
  0
TABLE
  2
LAYER
  5
1
330
0
100
AcDbSymbolTable
 70
4
  0
LAYER
  5
27
330
1
100
AcDbSymbolTableRecord
100
AcDbLayerTableRecord
  2
0
 70
0
 62
7
  6
Continuous
370
-3
390
13
347
21
  0
LAYER
  5
28
330
1
100
AcDbSymbolTableRecord
100
AcDbLayerTableRecord
  2
Defpoints
 70
0
 62
7
  6
Continuous
290
0
370
-3
390
13
347
21
  0
LAYER
  5
8A
330
1
100
AcDbSymbolTableRecord
100
AcDbLayerTableRecord
  2
Layer
 70
0
 62
1
  6
Continuous
370
50
390
13
347
21
  0
LAYER
  5
8B
330
1
100
AcDbSymbolTableRecord
100
AcDbLayerTableRecord
  2
NumLabel
 70
0
 62
1
  6
Continuous
370
15
390
13
347
21
  0
ENDTAB
  0
TABLE
  2
STYLE
  5
5
330
0
100
AcDbSymbolTable
 70
26
  0
STYLE
  5
29
330
5
100
AcDbSymbolTableRecord
100
AcDbTextStyleTableRecord
  2
Standard
 70
0
 40
0.0
 41
1.0
 50
0.0
 71
0
 42
2.5
  3
txt
  4

  0
STYLE
  5
41
330
5
100
AcDbSymbolTableRecord
100
AcDbTextStyleTableRecord
  2
OpenSans-Light
 70
0
 40
0.0
 41
1.0
 50
0.0
 71
0
 42
2.5
  3
OpenSans-Light.ttf
  4

  0
STYLE
  5
42
330
5
100
AcDbSymbolTableRecord
100
AcDbTextStyleTableRecord
  2
OpenSans-Light-Italic
 70
0
 40
0.0
 41
1.0
 50
0.0
 71
0
 42
2.5
  3
OpenSans-LightItalic.ttf
  4

  0
STYLE
  5
43
330
5
100
AcDbSymbolTableRecord
100
AcDbTextStyleTableRecord
  2
OpenSans
 70
0
 40
0.0
 41
1.0
 50
0.0
 71
0
 42
2.5
  3
OpenSans-Regular.ttf
  4

  0
STYLE
  5
44
330
5
100
AcDbSymbolTableRecord
100
AcDbTextStyleTableRecord
  2
OpenSans-Italic
 70
0
 40
0.0
 41
1.0
 50
0.0
 71
0
 42
2.5
  3
OpenSans-Italic.ttf
  4

  0
STYLE
  5
45
330
5
100
AcDbSymbolTableRecord
100
AcDbTextStyleTableRecord
  2
OpenSans-SemiBold
 70
0
 40
0.0
 41
1.0
 50
0.0
 71
0
 42
2.5
  3
OpenSans-SemiBold.ttf
  4

  0
STYLE
  5
46
330
5
100
AcDbSymbolTableRecord
100
AcDbTextStyleTableRecord
  2
OpenSans-SemiBoldItalic
 70
0
 40
0.0
 41
1.0
 50
0.0
 71
0
 42
2.5
  3
OpenSans-SemiBoldItalic.ttf
  4

  0
STYLE
  5
47
330
5
100
AcDbSymbolTableRecord
100
AcDbTextStyleTableRecord
  2
OpenSans-Bold
 70
0
 40
0.0
 41
1.0
 50
0.0
 71
0
 42
2.5
  3
OpenSans-Bold.ttf
  4

  0
STYLE
  5
48
330
5
100
AcDbSymbolTableRecord
100
AcDbTextStyleTableRecord
  2
OpenSans-BoldItalic
 70
0
 40
0.0
 41
1.0
 50
0.0
 71
0
 42
2.5
  3
OpenSans-BoldItalic.ttf
  4

  0
STYLE
  5
49
330
5
100
AcDbSymbolTableRecord
100
AcDbTextStyleTableRecord
  2
OpenSans-ExtraBold
 70
0
 40
0.0
 41
1.0
 50
0.0
 71
0
 42
2.5
  3
OpenSans-ExtraBold.ttf
  4

  0
STYLE
  5
4A
330
5
100
AcDbSymbolTableRecord
100
AcDbTextStyleTableRecord
  2
OpenSans-ExtraBoldItalic
 70
0
 40
0.0
 41
1.0
 50
0.0
 71
0
 42
2.5
  3
OpenSans-ExtraBoldItalic.ttf
  4

  0
STYLE
  5
4B
330
5
100
AcDbSymbolTableRecord
100
AcDbTextStyleTableRecord
  2
OpenSansCondensed-Bold
 70
0
 40
0.0
 41
1.0
 50
0.0
 71
0
 42
2.5
  3
OpenSansCondensed-Bold.ttf
  4

  0
STYLE
  5
4C
330
5
100
AcDbSymbolTableRecord
100
AcDbTextStyleTableRecord
  2
OpenSansCondensed-Light
 70
0
 40
0.0
 41
1.0
 50
0.0
 71
0
 42
2.5
  3
OpenSansCondensed-Light.ttf
  4

  0
STYLE
  5
4D
330
5
100
AcDbSymbolTableRecord
100
AcDbTextStyleTableRecord
  2
OpenSansCondensed-Italic
 70
0
 40
0.0
 41
1.0
 50
0.0
 71
0
 42
2.5
  3
OpenSansCondensed-LightItalic.ttf
  4

  0
STYLE
  5
4E
330
5
100
AcDbSymbolTableRecord
100
AcDbTextStyleTableRecord
  2
LiberationSans
 70
0
 40
0.0
 41
1.0
 50
0.0
 71
0
 42
2.5
  3
LiberationSans-Regular.ttf
  4

  0
STYLE
  5
4F
330
5
100
AcDbSymbolTableRecord
100
AcDbTextStyleTableRecord
  2
LiberationSans-Bold
 70
0
 40
0.0
 41
1.0
 50
0.0
 71
0
 42
2.5
  3
LiberationSans-Bold.ttf
  4

  0
STYLE
  5
50
330
5
100
AcDbSymbolTableRecord
100
AcDbTextStyleTableRecord
  2
LiberationSans-BoldItalic
 70
0
 40
0.0
 41
1.0
 50
0.0
 71
0
 42
2.5
  3
LiberationSans-BoldItalic.ttf
  4

  0
STYLE
  5
51
330
5
100
AcDbSymbolTableRecord
100
AcDbTextStyleTableRecord
  2
LiberationSans-Italic
 70
0
 40
0.0
 41
1.0
 50
0.0
 71
0
 42
2.5
  3
LiberationSans-Italic.ttf
  4

  0
STYLE
  5
52
330
5
100
AcDbSymbolTableRecord
100
AcDbTextStyleTableRecord
  2
LiberationSerif
 70
0
 40
0.0
 41
1.0
 50
0.0
 71
0
 42
2.5
  3
LiberationSerif-Regular.ttf
  4

  0
STYLE
  5
53
330
5
100
AcDbSymbolTableRecord
100
AcDbTextStyleTableRecord
  2
LiberationSerif-Bold
 70
0
 40
0.0
 41
1.0
 50
0.0
 71
0
 42
2.5
  3
LiberationSerif-Bold.ttf
  4

  0
STYLE
  5
54
330
5
100
AcDbSymbolTableRecord
100
AcDbTextStyleTableRecord
  2
LiberationSerif-BoldItalic
 70
0
 40
0.0
 41
1.0
 50
0.0
 71
0
 42
2.5
  3
LiberationSerif-BoldItalic.ttf
  4

  0
STYLE
  5
55
330
5
100
AcDbSymbolTableRecord
100
AcDbTextStyleTableRecord
  2
LiberationSerif-Italic
 70
0
 40
0.0
 41
1.0
 50
0.0
 71
0
 42
2.5
  3
LiberationSerif-Italic.ttf
  4

  0
STYLE
  5
56
330
5
100
AcDbSymbolTableRecord
100
AcDbTextStyleTableRecord
  2
LiberationMono
 70
0
 40
0.0
 41
1.0
 50
0.0
 71
0
 42
2.5
  3
LiberationMono-Regular.ttf
  4

  0
STYLE
  5
57
330
5
100
AcDbSymbolTableRecord
100
AcDbTextStyleTableRecord
  2
LiberationMono-Bold
 70
0
 40
0.0
 41
1.0
 50
0.0
 71
0
 42
2.5
  3
LiberationMono-Bold.ttf
  4

  0
STYLE
  5
58
330
5
100
AcDbSymbolTableRecord
100
AcDbTextStyleTableRecord
  2
LiberationMono-BoldItalic
 70
0
 40
0.0
 41
1.0
 50
0.0
 71
0
 42
2.5
  3
LiberationMono-BoldItalic.ttf
  4

  0
STYLE
  5
59
330
5
100
AcDbSymbolTableRecord
100
AcDbTextStyleTableRecord
  2
LiberationMono-Italic
 70
0
 40
0.0
 41
1.0
 50
0.0
 71
0
 42
2.5
  3
LiberationMono-Italic.ttf
  4

  0
ENDTAB
  0
TABLE
  2
VIEW
  5
7
330
0
100
AcDbSymbolTable
 70
0
  0
ENDTAB
  0
TABLE
  2
UCS
  5
6
330
0
100
AcDbSymbolTable
 70
0
  0
ENDTAB
  0
TABLE
  2
APPID
  5
3
330
0
100
AcDbSymbolTable
 70
3
  0
APPID
  5
2A
330
3
100
AcDbSymbolTableRecord
100
AcDbRegAppTableRecord
  2
ACAD
 70
0
  0
APPID
  5
AB
330
3
100
AcDbSymbolTableRecord
100
AcDbRegAppTableRecord
  2
HATCHBACKGROUNDCOLOR
 70
0
  0
APPID
  5
AC
330
3
100
AcDbSymbolTableRecord
100
AcDbRegAppTableRecord
  2
EZDXF
 70
0
  0
ENDTAB
  0
TABLE
  2
DIMSTYLE
  5
4
330
0
100
AcDbSymbolTable
 70
12
100
AcDbDimStyleTable
  0
DIMSTYLE
105
2B
330
4
100
AcDbSymbolTableRecord
100
AcDbDimStyleTableRecord
  2
Standard
 70
0
 40
1.0
 41
2.5
 42
0.625
 43
3.75
 44
1.25
 45
0.0
 46
0.0
 47
0.0
 48
0.0
 49
2.5
140
2.5
141
2.5
142
0.0
143
0.03937007874
144
1.0
145
0.0
146
1.0
147
0.625
148
0.0
 69
0
 70
0
 71
0
 72
0
 73
0
 74
0
 75
0
 76
0
 77
1
 78
8
 79
3
170
0
171
3
172
1
173
0
174
0
175
0
176
0
177
0
178
0
179
2
271
2
272
2
273
2
274
3
275
0
276
0
277
2
278
44
279
0
280
0
281
0
282
0
283
0
284
8
285
0
286
0
288
0
289
3
290
0
371
-2
372
-2
  0
DIMSTYLE
105
73
330
4
100
AcDbSymbolTableRecord
100
AcDbDimStyleTableRecord
  2
EZDXF
 70
0
 40
1.0
 41
0.175
 42
0.125
 43
3.75
 44
0.375
 45
0.0
 46
0.0
 47
0.0
 48
0.0
 49
2.5
140
0.25
141
2.5
142
0.0
143
0.03937007874
144
100.0
145
0.0
146
0.5
147
0.1
148
0.0
 69
0
 70
0
 71
0
 72
0
 73
0
 74
0
 75
0
 76
0
 77
1
 78
12
 79
3
170
0
171
3
172
1
173
0
174
0
175
0
176
0
177
0
178
0
179
2
271
2
272
2
273
2
274
3
275
0
276
0
277
2
278
46
279
2
280
0
281
0
282
0
283
0
284
8
285
0
286
0
288
1
289
3
290
0
340
4C
342
74
371
-2
372
-2
  0
DIMSTYLE
105
7C
330
4
100
AcDbSymbolTableRecord
100
AcDbDimStyleTableRecord
  2
EZ_M_100_H25_CM
 70
0
 40
1.0
 41
0.25
 42
0.125
 43
3.75
 44
0.375
 45
0.0
 46
0.0
 47
0.0
 48
0.0
 49
2.5
140
0.25
141
2.5
142
0.125
143
0.03937007874
144
100.0
145
0.0
146
0.5
147
0.1
148
0.0
 69
0
 70
0
 71
0
 72
0
 73
0
 74
0
 75
0
 76
0
 77
1
 78
12
 79
3
170
0
171
3
172
1
173
0
174
0
175
0
176
0
177
0
178
0
179
2
271
2
272
2
273
2
274
3
275
0
276
0
277
2
278
46
279
2
280
0
281
0
282
0
283
0
284
8
285
0
286
0
288
1
289
3
290
0
340
4C
371
-2
372
-2
  0
DIMSTYLE
105
7D
330
4
100
AcDbSymbolTableRecord
100
AcDbDimStyleTableRecord
  2
EZ_M_50_H25_CM
 70
0
 40
1.0
 41
0.125
 42
0.0625
 43
3.75
 44
0.1875
 45
0.0
 46
0.0
 47
0.0
 48
0.0
 49
2.5
140
0.125
141
2.5
142
0.0625
143
0.03937007874
144
100.0
145
0.0
146
0.5
147
0.05
148
0.0
 69
0
 70
0
 71
0
 72
0
 73
0
 74
0
 75
0
 76
0
 77
1
 78
12
 79
3
170
0
171
3
172
1
173
0
174
0
175
0
176
0
177
0
178
0
179
2
271
2
272
2
273
2
274
3
275
0
276
0
277
2
278
46
279
2
280
0
281
0
282
0
283
0
284
8
285
0
286
0
288
1
289
3
290
0
340
4C
371
-2
372
-2
  0
DIMSTYLE
105
7E
330
4
100
AcDbSymbolTableRecord
100
AcDbDimStyleTableRecord
  2
EZ_M_25_H25_CM
 70
0
 40
1.0
 41
0.0625
 42
0.03125
 43
3.75
 44
0.09375
 45
0.0
 46
0.0
 47
0.0
 48
0.0
 49
2.5
140
0.0625
141
2.5
142
0.03125
143
0.03937007874
144
100.0
145
0.0
146
0.5
147
0.025
148
0.0
 69
0
 70
0
 71
0
 72
0
 73
0
 74
0
 75
0
 76
0
 77
1
 78
12
 79
3
170
0
171
3
172
1
173
0
174
0
175
0
176
0
177
0
178
0
179
2
271
2
272
2
273
2
274
3
275
0
276
0
277
2
278
46
279
2
280
0
281
0
282
0
283
0
284
8
285
0
286
0
288
1
289
3
290
0
340
4C
371
-2
372
-2
  0
DIMSTYLE
105
7F
330
4
100
AcDbSymbolTableRecord
100
AcDbDimStyleTableRecord
  2
EZ_M_20_H25_CM
 70
0
 40
1.0
 41
0.05
 42
0.025
 43
3.75
 44
0.07500000000000001
 45
0.0
 46
0.0
 47
0.0
 48
0.0
 49
2.5
140
0.05
141
2.5
142
0.025
143
0.03937007874
144
100.0
145
0.0
146
0.5
147
0.020000000000000004
148
0.0
 69
0
 70
0
 71
0
 72
0
 73
0
 74
0
 75
0
 76
0
 77
1
 78
12
 79
3
170
0
171
3
172
1
173
0
174
0
175
0
176
0
177
0
178
0
179
2
271
2
272
2
273
2
274
3
275
0
276
0
277
2
278
46
279
2
280
0
281
0
282
0
283
0
284
8
285
0
286
0
288
1
289
3
290
0
340
4C
371
-2
372
-2
  0
DIMSTYLE
105
80
330
4
100
AcDbSymbolTableRecord
100
AcDbDimStyleTableRecord
  2
EZ_M_10_H25_CM
 70
0
 40
1.0
 41
0.025
 42
0.0125
 43
3.75
 44
0.037500000000000006
 45
0.0
 46
0.0
 47
0.0
 48
0.0
 49
2.5
140
0.025
141
2.5
142
0.0125
143
0.03937007874
144
100.0
145
0.0
146
0.5
147
0.010000000000000002
148
0.0
 69
0
 70
0
 71
0
 72
0
 73
0
 74
0
 75
0
 76
0
 77
1
 78
12
 79
3
170
0
171
3
172
1
173
0
174
0
175
0
176
0
177
0
178
0
179
2
271
2
272
2
273
2
274
3
275
0
276
0
277
2
278
46
279
2
280
0
281
0
282
0
283
0
284
8
285
0
286
0
288
1
289
3
290
0
340
4C
371
-2
372
-2
  0
DIMSTYLE
105
81
330
4
100
AcDbSymbolTableRecord
100
AcDbDimStyleTableRecord
  2
EZ_M_5_H25_CM
 70
0
 40
1.0
 41
0.0125
 42
0.00625
 43
3.75
 44
0.018750000000000003
 45
0.0
 46
0.0
 47
0.0
 48
0.0
 49
2.5
140
0.0125
141
2.5
142
0.00625
143
0.03937007874
144
100.0
145
0.0
146
0.5
147
0.005000000000000001
148
0.0
 69
0
 70
0
 71
0
 72
0
 73
0
 74
0
 75
0
 76
0
 77
1
 78
12
 79
3
170
0
171
3
172
1
173
0
174
0
175
0
176
0
177
0
178
0
179
2
271
2
272
2
273
2
274
3
275
0
276
0
277
2
278
46
279
2
280
0
281
0
282
0
283
0
284
8
285
0
286
0
288
1
289
3
290
0
340
4C
371
-2
372
-2
  0
DIMSTYLE
105
82
330
4
100
AcDbSymbolTableRecord
100
AcDbDimStyleTableRecord
  2
EZ_M_1_H25_CM
 70
0
 40
1.0
 41
0.0025
 42
0.00125
 43
3.75
 44
0.00375
 45
0.0
 46
0.0
 47
0.0
 48
0.0
 49
2.5
140
0.0025
141
2.5
142
0.00125
143
0.03937007874
144
100.0
145
0.0
146
0.5
147
0.001
148
0.0
 69
0
 70
0
 71
0
 72
0
 73
0
 74
0
 75
0
 76
0
 77
1
 78
12
 79
3
170
0
171
3
172
1
173
0
174
0
175
0
176
0
177
0
178
0
179
2
271
2
272
2
273
2
274
3
275
0
276
0
277
2
278
46
279
2
280
0
281
0
282
0
283
0
284
8
285
0
286
0
288
1
289
3
290
0
340
4C
371
-2
372
-2
  0
DIMSTYLE
105
83
330
4
100
AcDbSymbolTableRecord
100
AcDbDimStyleTableRecord
  2
EZ_RADIUS
 70
0
 40
1.0
 41
0.25
 42
0.125
 43
3.75
 44
0.375
 45
0.0
 46
0.0
 47
0.0
 48
0.0
 49
2.5
140
0.25
141
0.0
142
0.0
143
0.03937007874
144
100.0
145
0.0
146
0.5
147
0.1
148
0.0
 69
0
 70
0
 71
0
 72
0
 73
0
 74
0
 75
0
 76
0
 77
1
 78
12
 79
3
170
0
171
3
172
0
173
0
174
0
175
0
176
0
177
0
178
0
179
2
271
2
272
2
273
2
274
3
275
0
276
0
277
2
278
46
279
1
280
0
281
0
282
0
283
0
284
8
285
0
286
0
288
1
289
3
290
0
340
4C
342
84
371
-2
372
-2
  0
DIMSTYLE
105
88
330
4
100
AcDbSymbolTableRecord
100
AcDbDimStyleTableRecord
  2
EZ_RADIUS_INSIDE
 70
0
 40
1.0
 41
0.25
 42
0.125
 43
3.75
 44
0.375
 45
0.0
 46
0.0
 47
0.0
 48
0.0
 49
2.5
140
0.25
141
0.0
142
0.0
143
0.03937007874
144
100.0
145
0.0
146
0.5
147
0.1
148
0.0
 69
0
 70
0
 71
0
 72
0
 73
0
 74
0
 75
0
 76
0
 77
0
 78
12
 79
3
170
0
171
3
172
0
173
0
174
1
175
0
176
0
177
0
178
0
179
2
271
2
272
2
273
2
274
3
275
0
276
0
277
2
278
46
279
0
280
0
281
0
282
0
283
0
284
8
285
0
286
0
288
1
289
0
290
0
340
4C
342
84
371
-2
372
-2
  0
DIMSTYLE
105
89
330
4
100
AcDbSymbolTableRecord
100
AcDbDimStyleTableRecord
  2
EZ_CURVED
 70
0
 40
1.0
 41
0.25
 42
0.125
 43
3.75
 44
0.375
 45
0.0
 46
0.0
 47
0.0
 48
0.0
 49
2.5
140
0.25
141
2.5
142
0.0
143
0.03937007874
144
100.0
145
0.0
146
0.5
147
0.1
148
0.0
 69
0
 70
0
 71
0
 72
0
 73
0
 74
0
 75
0
 76
0
 77
1
 78
12
 79
2
 90
2
170
0
171
3
172
1
173
0
174
0
175
0
176
0
177
0
178
0
179
2
271
2
272
2
273
2
274
3
275
0
276
0
277
2
278
46
279
2
280
0
281
0
282
0
283
0
284
8
285
0
286
0
288
1
289
3
290
0
340
4C
371
-2
372
-2
  0
ENDTAB
  0
TABLE
  2
BLOCK_RECORD
  5
9
330
0
100
AcDbSymbolTable
 70
5
  0
BLOCK_RECORD
  5
17
330
9
100
AcDbSymbolTableRecord
100
AcDbBlockTableRecord
  2
*Model_Space
340
1A
 70
0
280
1
281
0
  0
BLOCK_RECORD
  5
1B
330
9
100
AcDbSymbolTableRecord
100
AcDbBlockTableRecord
  2
*Paper_Space
340
1E
 70
0
280
1
281
0
  0
BLOCK_RECORD
  5
74
330
9
100
AcDbSymbolTableRecord
100
AcDbBlockTableRecord
  2
_ARCHTICK
340
0
 70
0
280
1
281
0
  0
BLOCK_RECORD
  5
78
330
9
100
AcDbSymbolTableRecord
100
AcDbBlockTableRecord
  2
_CLOSEDFILLED
340
0
 70
0
280
1
281
0
  0
BLOCK_RECORD
  5
84
330
9
100
AcDbSymbolTableRecord
100
AcDbBlockTableRecord
  2
_CLOSEDBLANK
340
0
 70
0
280
1
281
0
  0
ENDTAB
  0
ENDSEC
  0
SECTION
  2
BLOCKS
  0
BLOCK
  5
18
330
17
100
AcDbEntity
  8
0
100
AcDbBlockBegin
  2
*Model_Space
 70
0
 10
0.0
 20
0.0
 30
0.0
  3
*Model_Space
  1

  0
ENDBLK
  5
19
330
17
100
AcDbEntity
  8
0
100
AcDbBlockEnd
  0
BLOCK
  5
1C
330
1B
100
AcDbEntity
  8
0
100
AcDbBlockBegin
  2
*Paper_Space
 70
0
 10
0.0
 20
0.0
 30
0.0
  3
*Paper_Space
  1

  0
ENDBLK
  5
1D
330
1B
100
AcDbEntity
  8
0
100
AcDbBlockEnd
  0
BLOCK
  5
75
330
74
100
AcDbEntity
  8
0
100
AcDbBlockBegin
  2
_ARCHTICK
 70
0
 10
0.0
 20
0.0
 30
0.0
  3
_ARCHTICK
  1

  0
LWPOLYLINE
  5
77
330
74
100
AcDbEntity
  8
0
  6
BYBLOCK
 62
0
100
AcDbPolyline
 90
2
 70
0
 43
0.15
 10
-0.5
 20
-0.5
 10
0.5
 20
0.5
  0
ENDBLK
  5
76
330
74
100
AcDbEntity
  8
0
100
AcDbBlockEnd
  0
BLOCK
  5
79
330
78
100
AcDbEntity
  8
0
100
AcDbBlockBegin
  2
_CLOSEDFILLED
 70
0
 10
0.0
 20
0.0
 30
0.0
  3
_CLOSEDFILLED
  1

  0
SOLID
  5
7B
330
78
100
AcDbEntity
  8
0
  6
BYBLOCK
 62
0
100
AcDbTrace
 10
-1.0
 20
0.16439898372402537
 30
0.0
 11
0.0
 21
0.0
 31
0.0
 12
-1.0
 22
-0.16439898372402537
 32
0.0
 13
-1.0
 23
-0.16439898372402537
 33
0.0
  0
ENDBLK
  5
7A
330
78
100
AcDbEntity
  8
0
100
AcDbBlockEnd
  0
BLOCK
  5
85
330
84
100
AcDbEntity
  8
0
100
AcDbBlockBegin
  2
_CLOSEDBLANK
 70
0
 10
0.0
 20
0.0
 30
0.0
  3
_CLOSEDBLANK
  1

  0
LWPOLYLINE
  5
87
330
84
100
AcDbEntity
  8
0
  6
BYBLOCK
 62
0
100
AcDbPolyline
 90
3
 70
1
 10
-1.0
 20
0.16439898372402537
 10
0.0
 20
0.0
 10
-1.0
 20
-0.16439898372402537
  0
ENDBLK
  5
86
330
84
100
AcDbEntity
  8
0
100
AcDbBlockEnd
  0
ENDSEC
  0
SECTION
  2
ENTITIES
  0
LWPOLYLINE
  5
8C
330
17
100
AcDbEntity
  8
Layer
100
AcDbPolyline
 90
152
 70
1
 10
319.518348309339
 20
169.0461273416654
 10
319.5183486221419
 20
234.5940301266923
 10
317.47052815958756
 20
234.88156989182318
 10
311.3473582892163
 20
235.69219957979243
 10
305.21442607360666
 20
236.45513421340098
 10
299.0712240700195
 20
237.17170934470505
 10
292.92154445979855
 20
237.84281027760713
 10
286.76675554080913
 20
238.4668890786761
 10
280.6055961762501
 20
239.04382873153077
 10
274.4396879343848
 20
239.57457896324962
 10
268.272153617896
 20
240.05878033350103
 10
262.1044269369713
 20
240.49620200116138
 10
255.939434233434
 20
240.88670918697812
 10
249.7770660301316
 20
241.22885286488875
 10
243.61968328992748
 20
241.5239702799995
 10
237.47227471082417
 20
241.77077984922843
 10
231.33360541303153
 20
241.96708106291692
 10
225.20336629701555
 20
242.11373669246206
 10
219.0858133274774
 20
242.21118662622482
 10
212.98350336575305
 20
242.25767962506254
 10
206.89653757621977
 20
242.2522908043258
 10
200.82615805917212
 20
242.1953480640821
 10
194.77650189985627
 20
242.08635627426835
 10
188.75012138678142
 20
241.92321958596912
 10
182.74578254772464
 20
241.70518923236494
 10
176.76770893172394
 20
241.43323291548597
 10
170.81780964840945
 20
241.104943314945
 10
164.89939017990804
 20
240.72150553833973
 10
159.016053498159
 20
240.2803987214465
 10
153.16813153967138
 20
239.7814270125574
 10
147.3623134708759
 20
239.22495432197513
 10
141.60116470930146
 20
238.60821504407613
 10
135.88612228510272
 20
237.93078049127067
 10
130.2209991457684
 20
237.19337667632377
 10
124.61314730616964
 20
236.39652008219073
 10
119.06693136021352
 20
235.5377594409503
 10
113.5847189538242
 20
234.61795421228504
 10
108.17707383014158
 20
233.64099496698674
 10
102.85622475004979
 20
232.60778606076312
 10
97.63146661832678
 20
231.51790294946636
 10
92.5108649582169
 20
230.3731235037362
 10
87.5069988319124
 20
229.17812564542407
 10
82.63425006626414
 20
227.93636464006278
 10
77.90157157181525
 20
226.64975804433308
 10
73.32100645290208
 20
225.32688705569734
 10
68.90710062748784
 20
223.9753034541763
 10
64.67168557947016
 20
222.6015789703322
 10
60.62415753281681
 20
221.21290473134886
 10
56.77206020021626
 20
219.818392283214
 10
53.121226539178764
 20
218.42443361628386
 10
49.67009436340331
 20
217.03524418551828
 10
46.41639780168032
 20
215.6576990519574
 10
43.354372743857624
 20
214.2968218672094
 10
40.482239857946894
 20
212.958340201145
 10
37.790228801310974
 20
211.63766541919082
 10
35.26860312550022
 20
210.3385316031013
 10
32.91121738995187
 20
209.062152462187
 10
30.710748492574737
 20
207.80864206849378
 10
28.66383269660011
 20
206.57847019304282
 10
26.767185853296724
 20
205.371793348111
 10
25.013849186088095
 20
204.18701631980647
 10
23.404367929182342
 20
203.03455384457556
 10
21.936149428490552
 20
201.9148818777848
 10
20.60208213813533
 20
200.8277331796193
 10
19.390396039634254
 20
199.77081944167458
 10
18.292178116525378
 20
198.74965996861428
 10
17.2879536837074
 20
197.75052838528794
 10
16.36910064894687
 20
196.7887821468056
 10
15.530710366511755
 20
195.86382307343914
 10
14.767386213988601
 20
194.9712877501973
 10
14.076237961907196
 20
194.10914993859475
 10
13.456874591460775
 20
193.2769633137413
 10
12.90504876606471
 20
192.46340776826068
 10
12.413560106964042
 20
191.66045013635122
 10
11.977401848241215
 20
190.8710911206706
 10
11.590992050570463
 20
190.09237094286254
 10
11.249820832806506
 20
189.3269522135483
 10
10.952485532761727
 20
188.5826378394771
 10
10.698339605460006
 20
187.85749134309404
 10
10.48746568397226
 20
187.15525207767368
 10
10.323549514498012
 20
186.49205104694525
 10
10.207013913647131
 20
185.81826641637142
 10
10.128919030354837
 20
185.14284893348702
 10
10.090536237579556
 20
184.50128946602422
 10
10.091707522602576
 20
183.84877691240078
 10
10.13717302214684
 20
183.19313285583377
 10
10.231840567392851
 20
182.53754281788096
 10
10.381077685582937
 20
181.88445310276472
 10
10.59264085030486
 20
181.23194696759597
 10
10.874775415252572
 20
180.57651972425901
 10
11.232297365978013
 20
179.91745544806423
 10
11.665243695799916
 20
179.25774248367378
 10
12.171777716035479
 20
178.60219594466255
 10
12.752501074475077
 20
177.95478200598848
 10
13.413056456286853
 20
177.31693870405618
 10
14.16291967379621
 20
176.68730462224465
 10
15.006398774392977
 20
176.06578422142954
 10
15.94583905009435
 20
175.45430664470905
 10
16.992637751999837
 20
174.85298090400772
 10
18.157914520301944
 20
174.25870514489625
 10
19.440246511946214
 20
173.66955049180382
 10
20.83128474242909
 20
173.089570363915
 10
22.33550995937631
 20
172.52499217584878
 10
23.954291087200033
 20
171.97486290732803
 10
25.67485518020075
 20
171.43955335238985
 10
27.49805225800438
 20
170.9205055534104
 10
29.431329655147778
 20
170.41481654324375
 10
31.482747209524177
 20
169.91517573104866
 10
33.6483313208133
 20
169.4161970514298
 10
35.926081805906534
 20
168.9210851418028
 10
38.339120429251494
 20
168.43499591916046
 10
40.91326055284827
 20
167.95181848773393
 10
43.65535592478952
 20
167.4639951019858
 10
46.57778864343737
 20
166.97290887376982
 10
49.6999759718245
 20
166.48150566862608
 10
53.04495520191335
 20
165.99258003637027
 10
56.63680699120056
 20
165.50625354799502
 10
60.49305418935609
 20
165.02154481296384
 10
64.6255353222916
 20
164.5408165826993
 10
69.04148206728513
 20
164.06796250680532
 10
73.73877142284235
 20
163.60700996525804
 10
78.70938091630762
 20
163.1629508894145
 10
83.93507362722332
 20
162.73866571531119
 10
89.39931192418604
 20
162.34234080579017
 10
95.07820780039108
 20
161.97255056595043
 10
100.94074613482204
 20
161.62937522102584
 10
106.96238525573003
 20
161.31630046768493
 10
113.12182160128674
 20
161.03190846793694
 10
119.3971956163902
 20
160.7749725635852
 10
125.77644144181203
 20
160.5464730932807
 10
131.08930904789668
 20
160.37911127305583
 10
131.04208064023038
 20
158.8798549649119
 10
132.21411644324792
 20
158.84293440526216
 10
138.78314878183315
 20
158.65217796852664
 10
145.39922491816515
 20
158.46946377199976
 10
152.0327041519027
 20
158.30240184621013
 10
158.68687277028027
 20
158.16014781859803
 10
165.38361626748315
 20
158.04158862930439
 10
172.13464105713487
 20
157.936931578312
 10
178.92855175402946
 20
157.8361350983659
 10
185.74352126304098
 20
157.73419092032015
 10
192.5619160040023
 20
157.6331580917874
 10
199.37000475438538
 20
157.54119376267468
 10
206.17946831130425
 20
157.46577649566592
 10
213.01235753372617
 20
157.40527596082924
 10
219.87733451061737
 20
157.3513948304262
 10
226.76387473666364
 20
157.29816814134173
 10
233.6633068238725
 20
157.24545158015368
 10
240.56770920539998
 20
157.19402452196408
 10
247.4697847672169
 20
157.14248688827624
 10
254.976259905058
 20
157.08765704377186
 10
319.518348309339
 20
169.0461273416654
  0
LWPOLYLINE
  5
8D
330
17
100
AcDbEntity
  8
NumLabel
 62
1
100
AcDbPolyline
 90
6
 70
0
 10
188.3302752293578
 20
179.0481651376147
 10
183.3302752293578
 20
179.0481651376147
 10
183.3302752293578
 20
174.0481651376147
 10
188.3302752293578
 20
174.0481651376147
 10
188.3302752293578
 20
169.0481651376147
 10
183.3302752293578
 20
169.0481651376147
  0
LWPOLYLINE
  5
8E
330
17
100
AcDbEntity
  8
NumLabel
 62
1
100
AcDbPolyline
 90
4
 70
0
 10
192.8302752293578
 20
179.0481651376147
 10
190.8302752293578
 20
179.0481651376147
 10
190.8302752293578
 20
169.0481651376147
 10
192.8302752293578
 20
169.0481651376147
  0
LWPOLYLINE
  5
8F
330
17
100
AcDbEntity
  8
NumLabel
 62
1
100
AcDbPolyline
 90
4
 70
0
 10
193.8302752293578
 20
169.0481651376147
 10
195.8302752293578
 20
169.0481651376147
 10
195.8302752293578
 20
179.0481651376147
 10
193.8302752293578
 20
179.0481651376147
  0
LWPOLYLINE
  5
90
330
17
100
AcDbEntity
  8
NumLabel
 62
1
100
AcDbPolyline
 90
2
 70
0
 10
190.8302752293578
 20
174.0481651376147
 10
192.8302752293578
 20
174.0481651376147
  0
LWPOLYLINE
  5
91
330
17
100
AcDbEntity
  8
NumLabel
 62
1
100
AcDbPolyline
 90
2
 70
0
 10
193.8302752293578
 20
174.0481651376147
 10
195.8302752293578
 20
174.0481651376147
  0
LWPOLYLINE
  5
92
330
17
100
AcDbEntity
  8
Layer
100
AcDbPolyline
 90
5
 70
1
 10
181.92877350117467
 20
237.6638729358733
 10
177.93290831065687
 20
237.48204505240128
 10
177.75108042718486
 20
241.47791024291908
 10
181.74694561770266
 20
241.6597381263911
 10
181.92877350117467
 20
237.6638729358733
  0
LWPOLYLINE
  5
93
330
17
100
AcDbEntity
  8
Layer
100
AcDbPolyline
 90
5
 70
1
 10
76.68472611549714
 20
222.13475911997082
 10
72.8418238444099
 20
221.02475815831693
 10
71.73182288275598
 20
224.86766042940414
 10
75.57472515384322
 20
225.97766139105804
 10
76.68472611549714
 20
222.13475911997082
  0
LWPOLYLINE
  5
94
330
17
100
AcDbEntity
  8
Layer
100
AcDbPolyline
 90
5
 70
1
 10
23.96408224932709
 20
197.1255063777747
 10
22.45751207867221
 20
195.81011810015744
 10
19.16904138462904
 20
199.57654352679467
 10
20.675611555283922
 20
200.89193180441194
 10
23.96408224932709
 20
197.1255063777747
  0
LWPOLYLINE
  5
95
330
17
100
AcDbEntity
  8
Layer
100
AcDbPolyline
 90
5
 70
1
 10
17.22413872834373
 20
180.6427844189832
 10
18.837061643395547
 20
179.46021109351844
 10
15.880628329733684
 20
175.42790380588892
 10
14.267705414681865
 20
176.6104771313537
 10
17.22413872834373
 20
180.6427844189832
  0
LWPOLYLINE
  5
96
330
17
100
AcDbEntity
  8
Layer
100
AcDbPolyline
 90
5
 70
1
 10
98.43590379660685
 20
165.78286548452166
 10
102.42906947141097
 20
165.54913937651042
 10
102.19534336339973
 20
161.5559737017063
 10
98.20217768859561
 20
161.78969980971755
 10
98.43590379660685
 20
165.78286548452166
  0
LWPOLYLINE
  5
97
330
17
100
AcDbEntity
  8
Layer
100
AcDbPolyline
 90
300
 70
1
 10
282.4726949541284
 20
200.0
 10
282.4644731622852
 20
200.7886550750923
 10
282.43981141726744
 20
201.57696190230496
 10
282.3987206090074
 20
202.36457238753485
 10
282.34121888204936
 20
203.15113874416386
 10
282.2673316275371
 20
203.93631364663162
 10
282.1770914720023
 20
204.71975038380475
 10
282.0705382629572
 20
205.50110301207482
 10
281.9477190512993
 20
206.28002650811712
 10
281.8086880705351
 20
207.05617692124338
 10
281.6535067128317
 20
207.82921152528073
 10
281.48224350190816
 20
208.5987889699098
 10
281.2949740627772
 20
209.36456943139555
 10
281.09178108835124
 20
210.1262147626438
 10
280.8727543029277
 20
210.88338864251745
 10
280.6379904225692
 20
211.63575672434644
 10
280.38759311239636
 20
212.38298678356588
 10
280.1216729408124
 20
213.124748864417
 10
279.84034733067915
 20
213.86071542564636
 10
279.54374050746645
 20
214.59056148513883
 10
279.23198344439754
 20
215.31396476342053
 10
278.9052138046152
 20
216.0306058259684
 10
278.56357588039333
 20
216.7401682242635
 10
278.2072205294219
 20
217.44233863552574
 10
277.83630510819194
 20
218.1368070010684
 10
277.45099340251187
 20
218.82326666321134
 10
277.05145555518396
 20
219.50141450069242
 10
276.63786799087404
 20
220.1709510625172
 10
276.2104133382077
 20
220.8315807001882
 10
275.76928034912606
 20
221.48301169825496
 10
275.3146638155388
 20
222.12495640312721
 10
274.84676448330913
 20
222.7571313500948
 10
274.3657889636102
 20
223.37925738849756
 10
273.8719496416917
 20
223.99105980499053
 10
273.3654645830958
 20
224.59226844484954
 10
272.8465574373664
 20
225.18261783126388
 10
272.31545733929113
 20
225.7618472825636
 10
271.7723988077223
 20
226.32970102732892
 10
271.2176216420197
 20
226.88592831733192
 10
270.65137081616206
 20
227.43028353825974
 10
270.0738963705735
 20
227.9625263181711
 10
269.4854533017126
 20
228.48242163363756
 10
268.8863014494732
 20
228.98973991352352
 10
268.27670538244655
 20
229.48425714035812
 10
267.6569342810949
 20
229.9657549492553
 10
267.0272618188893
 20
230.4340207243373
 10
266.38796604146324
 20
230.88884769262012
 10
265.73932924383496
 20
231.3300350153184
 10
265.08163784575447
 20
231.7573878765304
 10
264.4151822652284
 20
232.1707175692631
 10
263.74025679027966
 20
232.56984157875985
 10
263.057159448998
 20
232.9545836630939
 10
262.36619187793934
 20
233.32477393099174
 10
261.66765918893157
 20
233.6802489168523
 10
260.9618698343457
 20
234.0208516529289
 10
260.2491354708918
 20
234.34643173864163
 10
259.5297708220006
 20
234.65684540699007
 10
258.8040935388501
 20
234.95195558803684
 10
258.0724240600998
 20
235.23163196943364
 10
257.33508547039435
 20
235.49575105396363
 10
256.59240335769783
 20
235.74419621407438
 10
255.844705669524
 20
235.9768577433772
 10
255.0923225681233
 20
236.1936329050904
 10
254.33558628469297
 20
236.3944259774051
 10
253.57483097267271
 20
236.57914829575304
 10
252.81039256019218
 20
236.74771829195868
 10
252.0426086017345
 20
236.90006153025706
 10
251.2718181290818
 20
237.03611074016283
 10
250.49836150160806
 20
237.1558058461748
 10
249.72258025598632
 20
237.2590939943037
 10
248.94481695537556
 20
237.34592957541105
 10
248.16541503815432
 20
237.41627424534875
 10
247.38471866626824
 20
237.47009694189077
 10
246.60307257325763
 20
237.50737389844954
 10
245.82082191203295
 20
237.52808865457047
 10
245.0383121024649
 20
237.5322320632003
 10
244.25588867885685
 20
237.5198022947265
 10
243.47389713736655
 20
237.4908048377849
 10
242.69268278344478
 20
237.4452524968362
 10
241.91259057935812
 20
237.38316538651173
 10
241.13396499186342
 20
237.30457092273164
 10
240.35714984010093
 20
237.20950381059862
 10
239.5824881437734
 20
237.09800602907313
 10
238.8103219716783
 20
236.9701268124367
 10
238.0409922906599
 20
236.82592262855144
 10
237.2748388150478
 20
236.66545715392544
 10
236.51219985664872
 20
236.48880124559503
 10
235.75341217535754
 20
236.2960329098362
 10
234.9988108304536
 20
236.08723726771947
 10
234.24872903264787
 20
235.8625065175225
 10
233.50349799694663
 20
235.62193989401814
 10
232.76344679639612
 20
235.36564362465515
 10
232.0289022167732
 20
235.093730882651
 10
231.30018861228598
 20
234.8063217370179
 10
230.57762776234807
 20
234.5035430995437
 10
229.86153872948987
 20
234.1855286687511
 10
229.1522377184696
 20
233.85241887086033
 10
228.45003793664603
 20
233.50436079778063
 10
227.7552494556751
 20
233.14150814215893
 10
227.06817907459094
 20
232.76402112951314
 10
226.38913018433203
 20
232.37206644748144
 10
225.71840263377226
 20
231.96581717221738
 10
225.0562925973162
 20
231.54545269196456
 10
224.40309244411682
 20
231.1111586278437
 10
223.75909060897342
 20
230.66312675188766
 10
223.12457146496703
 20
230.20155490236021
 10
222.49981519788918
 20
229.72664689639637
 10
221.8850976825198
 20
229.23861244000233
 10
221.2806903608087
 20
228.73766703545533
 10
220.68686012201437
 20
228.22403188614382
 10
220.10386918485327
 20
227.69793379889035
 10
219.53197498171136
 20
227.1596050837999
 10
218.97143004496928
 20
226.60928345167855
 10
218.4224818954911
 20
226.04721190906685
 10
217.88537293332615
 20
225.47363865093504
 10
217.36034033067185
 20
224.8888169510872
 10
216.84761592714528
 20
224.2930050503225
 10
216.34742612740922
 20
223.68646604240365
 10
215.85999180119836
 20
223.06946775788168
 10
215.38552818578933
 20
222.44228264582983
 10
214.92424479095794
 20
221.80518765353764
 10
214.4763453064657
 20
221.15846410421875
 10
214.04202751211614
 20
220.5023975727865
 10
213.62148319042063
 20
219.83727775975217
 10
213.21489804191287
 20
219.16339836330127
 10
212.82245160314858
 20
218.48105694960486
 10
212.4443171674273
 20
217.79055482142246
 10
212.08066170827092
 20
217.09219688505547
 10
211.7316458056929
 20
216.38629151570905
 10
211.3974235752906
 20
215.67315042132222
 10
211.07814260019225
 20
214.9530885049265
 10
210.77394386588833
 20
214.22642372559366
 10
210.48496169797636
 20
213.49347695803377
 10
210.21132370284647
 20
212.75457185090607
 10
209.95315071133413
 20
212.01003468390488
 10
209.7105567253645
 20
211.26019422368356
 10
209.48364886761252
 20
210.50538157868044
 10
209.27252733420042
 20
209.74593005291075
 10
209.07728535045405
 20
208.98217499878882
 10
208.89800912973715
 20
208.21445366904598
 10
208.73477783538198
 20
207.4431050678092
 10
208.58766354573294
 20
206.66846980090645
 10
208.45673122231892
 20
205.89088992546468
 10
208.34203868116805
 20
205.11070879886714
 10
208.24363656727775
 20
204.32827092713637
 10
208.16156833225142
 20
203.54392181280997
 10
208.0958702151113
 20
202.75800780237648
 10
208.04657122629646
 20
201.9708759333386
 10
208.01369313485253
 20
201.18287378097094
 10
207.99725045881914
 20
200.39434930484086
 10
207.99725045881914
 20
199.60565069515914
 10
208.01369313485253
 20
198.81712621902906
 10
208.04657122629646
 20
198.0291240666614
 10
208.0958702151113
 20
197.24199219762352
 10
208.16156833225142
 20
196.45607818719003
 10
208.24363656727775
 20
195.67172907286366
 10
208.34203868116805
 20
194.88929120113286
 10
208.45673122231892
 20
194.10911007453532
 10
208.58766354573294
 20
193.33153019909358
 10
208.73477783538198
 20
192.5568949321908
 10
208.89800912973715
 20
191.78554633095402
 10
209.07728535045405
 20
191.01782500121118
 10
209.27252733420042
 20
190.25406994708925
 10
209.48364886761252
 20
189.49461842131956
 10
209.7105567253645
 20
188.73980577631647
 10
209.95315071133413
 20
187.98996531609512
 10
210.21132370284647
 20
187.24542814909393
 10
210.48496169797636
 20
186.50652304196623
 10
210.77394386588833
 20
185.77357627440634
 10
211.07814260019228
 20
185.0469114950735
 10
211.3974235752906
 20
184.3268495786778
 10
211.7316458056929
 20
183.61370848429095
 10
212.0806617082709
 20
182.90780311494453
 10
212.44431716742727
 20
182.20944517857754
 10
212.82245160314858
 20
181.51894305039517
 10
213.21489804191287
 20
180.83660163669873
 10
213.62148319042063
 20
180.16272224024783
 10
214.04202751211614
 20
179.4976024272135
 10
214.4763453064657
 20
178.84153589578125
 10
214.9242447909579
 20
178.19481234646236
 10
215.38552818578933
 20
177.55771735417017
 10
215.85999180119836
 20
176.93053224211835
 10
216.34742612740922
 20
176.31353395759635
 10
216.84761592714528
 20
175.70699494967747
 10
217.36034033067185
 20
175.1111830489128
 10
217.88537293332615
 20
174.52636134906496
 10
218.4224818954911
 20
173.95278809093315
 10
218.97143004496928
 20
173.39071654832145
 10
219.53197498171136
 20
172.8403949162001
 10
220.10386918485327
 20
172.30206620110968
 10
220.68686012201437
 20
171.77596811385618
 10
221.2806903608087
 20
171.26233296454467
 10
221.8850976825198
 20
170.76138755999767
 10
222.49981519788918
 20
170.27335310360365
 10
223.12457146496703
 20
169.79844509763979
 10
223.75909060897342
 20
169.33687324811237
 10
224.40309244411682
 20
168.88884137215632
 10
225.0562925973162
 20
168.45454730803544
 10
225.71840263377226
 20
168.03418282778262
 10
226.38913018433203
 20
167.62793355251856
 10
227.06817907459097
 20
167.23597887048683
 10
227.7552494556751
 20
166.85849185784107
 10
228.45003793664603
 20
166.49563920221937
 10
229.1522377184696
 20
166.14758112913967
 10
229.86153872948987
 20
165.8144713312489
 10
230.57762776234804
 20
165.49645690045634
 10
231.30018861228598
 20
165.19367826298213
 10
232.0289022167732
 20
164.90626911734904
 10
232.76344679639612
 20
164.63435637534488
 10
233.50349799694663
 20
164.37806010598186
 10
234.24872903264787
 20
164.1374934824775
 10
234.9988108304536
 20
163.91276273228053
 10
235.75341217535754
 20
163.7039670901638
 10
236.51219985664872
 20
163.51119875440497
 10
237.2748388150478
 20
163.33454284607456
 10
238.0409922906599
 20
163.17407737144856
 10
238.8103219716783
 20
163.0298731875633
 10
239.5824881437734
 20
162.90199397092687
 10
240.35714984010093
 20
162.79049618940138
 10
241.13396499186342
 20
162.69542907726836
 10
241.9125905793581
 20
162.61683461348827
 10
242.69268278344475
 20
162.5547475031638
 10
243.47389713736655
 20
162.5091951622151
 10
244.25588867885685
 20
162.4801977052735
 10
245.0383121024649
 20
162.4677679367997
 10
245.82082191203293
 20
162.47191134542953
 10
246.60307257325763
 20
162.49262610155046
 10
247.38471866626824
 20
162.52990305810923
 10
248.16541503815432
 20
162.58372575465125
 10
248.94481695537556
 20
162.65407042458895
 10
249.72258025598634
 20
162.7409060056963
 10
250.49836150160806
 20
162.8441941538252
 10
251.2718181290818
 20
162.96388925983717
 10
252.04260860173454
 20
163.09993846974294
 10
252.81039256019216
 20
163.25228170804132
 10
253.5748309726727
 20
163.42085170424693
 10
254.33558628469297
 20
163.6055740225949
 10
255.0923225681233
 20
163.8063670949096
 10
255.844705669524
 20
164.0231422566228
 10
256.59240335769783
 20
164.25580378592562
 10
257.33508547039435
 20
164.50424894603637
 10
258.0724240600998
 20
164.76836803056636
 10
258.8040935388501
 20
165.04804441196316
 10
259.5297708220006
 20
165.34315459300993
 10
260.2491354708918
 20
165.65356826135837
 10
260.9618698343457
 20
165.97914834707112
 10
261.66765918893157
 20
166.3197510831477
 10
262.36619187793934
 20
166.6752260690083
 10
263.057159448998
 20
167.0454163369061
 10
263.74025679027966
 20
167.43015842124015
 10
264.4151822652284
 20
167.8292824307369
 10
265.08163784575447
 20
168.2426121234696
 10
265.73932924383496
 20
168.6699649846816
 10
266.38796604146324
 20
169.11115230737988
 10
267.0272618188893
 20
169.56597927566267
 10
267.65693428109483
 20
170.0342450507447
 10
268.2767053824465
 20
170.51574285964185
 10
268.8863014494732
 20
171.01026008647648
 10
269.4854533017126
 20
171.51757836636244
 10
270.0738963705735
 20
172.0374736818289
 10
270.65137081616206
 20
172.56971646174026
 10
271.2176216420197
 20
173.1140716826681
 10
271.7723988077223
 20
173.67029897267108
 10
272.31545733929113
 20
174.2381527174364
 10
272.84655743736636
 20
174.8173821687361
 10
273.3654645830958
 20
175.40773155515046
 10
273.87194964169163
 20
176.00894019500944
 10
274.3657889636102
 20
176.6207426115024
 10
274.8467644833091
 20
177.2428686499052
 10
275.3146638155388
 20
177.87504359687279
 10
275.76928034912606
 20
178.51698830174504
 10
276.2104133382077
 20
179.1684192998118
 10
276.63786799087404
 20
179.8290489374828
 10
277.05145555518396
 20
180.49858549930758
 10
277.45099340251187
 20
181.17673333678866
 10
277.83630510819194
 20
181.8631929989316
 10
278.2072205294219
 20
182.55766136447426
 10
278.56357588039333
 20
183.2598317757365
 10
278.9052138046152
 20
183.9693941740316
 10
279.23198344439754
 20
184.68603523657944
 10
279.54374050746645
 20
185.40943851486117
 10
279.84034733067915
 20
186.1392845743536
 10
280.1216729408124
 20
186.87525113558297
 10
280.38759311239636
 20
187.61701321643412
 10
280.63799042256915
 20
188.36424327565356
 10
280.8727543029277
 20
189.11661135748255
 10
281.09178108835124
 20
189.8737852373562
 10
281.2949740627772
 20
190.63543056860445
 10
281.48224350190816
 20
191.4012110300902
 10
281.6535067128317
 20
192.17078847471927
 10
281.8086880705351
 20
192.94382307875662
 10
281.9477190512993
 20
193.7199734918829
 10
282.0705382629572
 20
194.4988969879252
 10
282.1770914720023
 20
195.28024961619525
 10
282.2673316275371
 20
196.06368635336838
 10
282.34121888204936
 20
196.84886125583614
 10
282.3987206090074
 20
197.63542761246512
 10
282.43981141726744
 20
198.42303809769504
 10
282.4644731622852
 20
199.2113449249077
 10
282.4726949541284
 20
200.0
  0
LWPOLYLINE
  5
98
330
17
100
AcDbEntity
  8
Layer
100
AcDbPolyline
 90
5
 70
1
 10
113.04938696583687
 20
205.00000000000003
 10
118.04938696583687
 20
200.00000000000003
 10
113.04938696583687
 20
195.00000000000003
 10
108.04938696583687
 20
200.00000000000003
 10
113.04938696583687
 20
205.00000000000003
  0
LWPOLYLINE
  5
99
330
17
100
AcDbEntity
  8
Layer
100
AcDbPolyline
 90
5
 70
1
 10
243.3937613951008
 20
205.0
 10
248.3937613951008
 20
200.0
 10
243.3937613951008
 20
195.0
 10
238.3937613951008
 20
200.0
 10
243.3937613951008
 20
205.0
  0
LWPOLYLINE
  5
9A
330
17
100
AcDbEntity
  8
Layer
100
AcDbPolyline
 90
5
 70
1
 10
73.79430907520926
 20
186.30283683544423
 10
78.47511702699362
 20
181.00283335256685
 10
73.17511354411623
 20
176.32202540078248
 10
68.49430559233187
 20
181.62202888365985
 10
73.79430907520926
 20
186.30283683544423
  0
LWPOLYLINE
  5
9B
330
17
100
AcDbEntity
  8
Layer
100
AcDbPolyline
 90
5
 70
1
 10
144.86527756591744
 20
181.89369371436783
 10
149.5460855177018
 20
176.59369023149046
 10
144.24608203482444
 20
171.91288227970608
 10
139.56527408304007
 20
177.21288576258345
 10
144.86527756591744
 20
181.89369371436783
  0
LWPOLYLINE
  5
9C
330
17
100
AcDbEntity
  8
Layer
100
AcDbPolyline
 90
5
 70
1
 10
160.23394495412842
 20
188.93886810818938
 10
165.23394495412842
 20
193.93886810818938
 10
170.23394495412842
 20
188.93886810818938
 10
165.23394495412842
 20
183.93886810818938
 10
160.23394495412842
 20
188.93886810818938
  0
LWPOLYLINE
  5
9D
330
17
100
AcDbEntity
  8
Layer
100
AcDbPolyline
 90
5
 70
1
 10
160.23394495412842
 20
209.8485507056225
 10
165.23394495412842
 20
214.8485507056225
 10
170.23394495412842
 20
209.8485507056225
 10
165.23394495412842
 20
204.8485507056225
 10
160.23394495412842
 20
209.8485507056225
  0
LINE
  5
9E
330
17
100
AcDbEntity
  8
Layer
 62
7
100
AcDbLine
 10
19.653137346327554
 20
200.00000000000003
 30
0.0
 11
319.51834862385317
 21
200.0
 31
0.0
  0
LINE
  5
9F
330
17
100
AcDbEntity
  8
Layer
 62
7
100
AcDbLine
 10
107.04938696583687
 20
200.00000000000003
 30
0.0
 11
119.04938696583687
 21
200.00000000000003
 31
0.0
  0
LINE
  5
A0
330
17
100
AcDbEntity
  8
Layer
 62
7
100
AcDbLine
 10
237.3937613951008
 20
200.0
 30
0.0
 11
249.3937613951008
 21
200.0
 31
0.0
  0
LINE
  5
A1
330
17
100
AcDbEntity
  8
Layer
 62
7
100
AcDbLine
 10
10.140409084566073
 20
185.2422227101849
 30
0.0
 11
307.3993379124591
 21
166.80069603545843
 31
0.0
  0
LINE
  5
A2
330
17
100
AcDbEntity
  8
Layer
 62
7
100
AcDbLine
 10
67.49622444886569
 20
181.68394843676916
 30
0.0
 11
79.4731981704598
 21
180.94091379945752
 31
0.0
  0
LINE
  5
A3
330
17
100
AcDbEntity
  8
Layer
 62
7
100
AcDbLine
 10
138.56719293957389
 20
177.27480531569276
 30
0.0
 11
150.544166661168
 21
176.53177067838112
 31
0.0
  0
LINE
  5
A4
330
17
100
AcDbEntity
  8
Layer
100
AcDbLine
 10
245.23394495412842
 20
237.53274999999996
 30
0.0
 11
245.23394495412842
 21
238.53274999999996
 31
0.0
  0
LINE
  5
A5
330
17
100
AcDbEntity
  8
Layer
100
AcDbLine
 10
245.23394495412842
 20
162.46725000000004
 30
0.0
 11
245.23394495412842
 21
161.46725000000004
 31
0.0
  0
LINE
  5
A6
330
17
100
AcDbEntity
  8
Layer
100
AcDbLine
 10
282.4726949541284
 20
200.0
 30
0.0
 11
283.4726949541284
 21
200.0
 31
0.0
  0
LINE
  5
A7
330
17
100
AcDbEntity
  8
Layer
100
AcDbLine
 10
207.99519495412846
 20
200.0
 30
0.0
 11
206.99519495412846
 21
200.0
 31
0.0
  0
LINE
  5
A8
330
17
100
AcDbEntity
  8
Layer
 62
7
100
AcDbLine
 10
165.23394495412842
 20
158.04423841118407
 30
0.0
 11
165.23394495412842
 21
240.74318040262781
 31
0.0
  0
LINE
  5
A9
330
17
100
AcDbEntity
  8
Layer
 62
7
100
AcDbLine
 10
165.23394495412842
 20
182.93886810818938
 30
0.0
 11
165.23394495412842
 21
194.93886810818938
 31
0.0
  0
LINE
  5
AA
330
17
100
AcDbEntity
  8
Layer
 62
7
100
AcDbLine
 10
165.23394495412842
 20
203.8485507056225
 30
0.0
 11
165.23394495412842
 21
215.8485507056225
 31
0.0
  0
ENDSEC
  0
SECTION
  2
OBJECTS
  0
DICTIONARY
  5
A
330
0
100
AcDbDictionary
280
0
281
1
  3
ACAD_COLOR
350
B
  3
ACAD_GROUP
350
C
  3
ACAD_LAYOUT
350
D
  3
ACAD_MATERIAL
350
E
  3
ACAD_MLEADERSTYLE
350
F
  3
ACAD_MLINESTYLE
350
10
  3
ACAD_PLOTSETTINGS
350
11
  3
ACAD_PLOTSTYLENAME
350
12
  3
ACAD_SCALELIST
350
14
  3
ACAD_TABLESTYLE
350
15
  3
ACAD_VISUALSTYLE
350
16
  3
EZDXF_META
350
2D
  0
DICTIONARY
  5
B
330
A
100
AcDbDictionary
280
0
281
1
  0
DICTIONARY
  5
C
330
A
100
AcDbDictionary
280
0
281
1
  0
DICTIONARY
  5
D
330
A
100
AcDbDictionary
280
0
281
1
  3
Model
350
1A
  3
Layout1
350
1E
  0
DICTIONARY
  5
E
330
A
100
AcDbDictionary
280
0
281
1
  3
ByBlock
350
1F
  3
ByLayer
350
20
  3
Global
350
21
  0
DICTIONARY
  5
F
330
A
100
AcDbDictionary
280
0
281
1
  3
Standard
350
2C
  0
DICTIONARY
  5
10
330
A
100
AcDbDictionary
280
0
281
1
  3
Standard
350
22
  0
DICTIONARY
  5
11
330
A
100
AcDbDictionary
280
0
281
1
  0
ACDBDICTIONARYWDFLT
  5
12
330
A
100
AcDbDictionary
280
0
281
1
  3
Normal
350
13
100
AcDbDictionaryWithDefault
340
13
  0
ACDBPLACEHOLDER
  5
13
330
12
  0
DICTIONARY
  5
14
330
A
100
AcDbDictionary
280
0
281
1
  0
DICTIONARY
  5
15
330
A
100
AcDbDictionary
280
0
281
1
  0
DICTIONARY
  5
16
330
A
100
AcDbDictionary
280
0
281
1
  3
2dWireframe
350
5A
  3
Basic
350
5B
  3
Brighten
350
5C
  3
ColorChange
350
5D
  3
Conceptual
350
5E
  3
Dim
350
5F
  3
EdgeColorOff
350
60
  3
Facepattern
350
61
  3
Flat
350
62
  3
FlatWithEdges
350
63
  3
Gouraud
350
64
  3
GouraudWithEdges
350
65
  3
Hidden
350
66
  3
JitterOff
350
67
  3
Linepattern
350
68
  3
Modeling
350
69
  3
OverhangOff
350
6A
  3
Realistic
350
6B
  3
Shaded
350
6C
  3
Shaded with edges
350
6D
  3
Shades of Gray
350
6E
  3
Sketchy
350
6F
  3
Thicken
350
70
  3
Wireframe
350
71
  3
X-Ray
350
72
  0
LAYOUT
  5
1A
330
D
100
AcDbPlotSettings
  1

  2
Adobe PDF
  4
A3
  6

 40
7.5
 41
20.0
 42
7.5
 43
20.0
 44
420.0
 45
297.0
 46
0.0
 47
0.0
 48
0.0
 49
0.0
140
0.0
141
0.0
142
1.0
143
1.0
 70
1024
 72
1
 73
0
 74
5
  7

 75
16
 76
0
 77
2
 78
300
147
1.0
148
0.0
149
0.0
100
AcDbLayout
  1
Model
 70
1
 71
0
 10
0.0
 20
0.0
 11
420.0
 21
297.0
 12
0.0
 22
0.0
 32
0.0
 14
1e+20
 24
1e+20
 34
1e+20
 15
-1e+20
 25
-1e+20
 35
-1e+20
146
0.0
 13
0.0
 23
0.0
 33
0.0
 16
1.0
 26
0.0
 36
0.0
 17
0.0
 27
1.0
 37
0.0
 76
1
330
17
  0
LAYOUT
  5
1E
330
D
100
AcDbPlotSettings
  1

  2
Adobe PDF
  4
A3
  6

 40
7.5
 41
20.0
 42
7.5
 43
20.0
 44
420.0
 45
297.0
 46
0.0
 47
0.0
 48
0.0
 49
0.0
140
0.0
141
0.0
142
1.0
143
1.0
 70
0
 72
1
 73
0
 74
5
  7

 75
16
 76
0
 77
2
 78
300
147
1.0
148
0.0
149
0.0
100
AcDbLayout
  1
Layout1
 70
1
 71
1
 10
0.0
 20
0.0
 11
420.0
 21
297.0
 12
0.0
 22
0.0
 32
0.0
 14
1e+20
 24
1e+20
 34
1e+20
 15
-1e+20
 25
-1e+20
 35
-1e+20
146
0.0
 13
0.0
 23
0.0
 33
0.0
 16
1.0
 26
0.0
 36
0.0
 17
0.0
 27
1.0
 37
0.0
 76
1
330
1B
  0
MATERIAL
  5
1F
102
{ACAD_REACTORS
330
E
102
}
330
E
100
AcDbMaterial
  1
ByBlock
  2

 70
0
 40
1.0
 71
1
 41
1.0
 91
-1023410177
 42
1.0
 72
1
  3

 73
1
 74
1
 75
1
 44
0.5
 73
0
 45
1.0
 46
1.0
 77
1
  4

 78
1
 79
1
170
1
 48
1.0
171
1
  6

172
1
173
1
174
1
140
1.0
141
1.0
175
1
  7

176
1
177
1
178
1
143
1.0
179
1
  8

270
1
271
1
272
1
145
1.0
146
1.0
273
1
  9

274
1
275
1
276
1
 42
1.0
 72
1
  3

 73
1
 74
1
 75
1
 94
63
  0
MATERIAL
  5
20
102
{ACAD_REACTORS
330
E
102
}
330
E
100
AcDbMaterial
  1
ByLayer
  2

 70
0
 40
1.0
 71
1
 41
1.0
 91
-1023410177
 42
1.0
 72
1
  3

 73
1
 74
1
 75
1
 44
0.5
 73
0
 45
1.0
 46
1.0
 77
1
  4

 78
1
 79
1
170
1
 48
1.0
171
1
  6

172
1
173
1
174
1
140
1.0
141
1.0
175
1
  7

176
1
177
1
178
1
143
1.0
179
1
  8

270
1
271
1
272
1
145
1.0
146
1.0
273
1
  9

274
1
275
1
276
1
 42
1.0
 72
1
  3

 73
1
 74
1
 75
1
 94
63
  0
MATERIAL
  5
21
102
{ACAD_REACTORS
330
E
102
}
330
E
100
AcDbMaterial
  1
Global
  2

 70
0
 40
1.0
 71
1
 41
1.0
 91
-1023410177
 42
1.0
 72
1
  3

 73
1
 74
1
 75
1
 44
0.5
 73
0
 45
1.0
 46
1.0
 77
1
  4

 78
1
 79
1
170
1
 48
1.0
171
1
  6

172
1
173
1
174
1
140
1.0
141
1.0
175
1
  7

176
1
177
1
178
1
143
1.0
179
1
  8

270
1
271
1
272
1
145
1.0
146
1.0
273
1
  9

274
1
275
1
276
1
 42
1.0
 72
1
  3

 73
1
 74
1
 75
1
 94
63
  0
MLINESTYLE
  5
22
102
{ACAD_REACTORS
330
10
102
}
330
10
100
AcDbMlineStyle
  2
Standard
 70
0
  3

 62
256
 51
90.0
 52
90.0
 71
2
 49
0.5
 62
256
  6
BYLAYER
 49
-0.5
 62
256
  6
BYLAYER
  0
MLEADERSTYLE
  5
2C
102
{ACAD_REACTORS
330
F
102
}
330
F
100
AcDbMLeaderStyle
179
2
170
2
171
1
172
0
 90
2
 40
0.0
 41
0.0
173
1
 91
-1056964608
 92
-2
290
1
 42
2.0
291
1
 43
8.0
  3
Standard
 44
4.0
300

342
29
174
1
175
1
176
0
178
1
 93
-1056964608
 45
4.0
292
0
297
0
 46
4.0
 94
-1056964608
 47
1.0
 49
1.0
140
1.0
294
1
141
0.0
177
0
142
1.0
295
0
296
0
143
3.75
271
0
272
9
273
9
  0
DICTIONARY
  5
2D
330
A
100
AcDbDictionary
281
1
  3
CREATED_BY_EZDXF
350
2E
  3
WRITTEN_BY_EZDXF
350
AD
  0
DICTIONARYVAR
  5
2E
330
2D
100
DictionaryVariables
280
0
  1
1.3.0 @ 2026-01-06T17:07:21.457861+00:00
  0
VISUALSTYLE
  5
5A
102
{ACAD_REACTORS
330
16
102
}
330
16
100
AcDbVisualStyle
  2
2dWireframe
 70
4
 90
0
 40
0.6
 62
7
290
0
291
0
  0
VISUALSTYLE
  5
5B
102
{ACAD_REACTORS
330
16
102
}
330
16
100
AcDbVisualStyle
  2
Basic
 70
7
 90
1
 40
0.6
 62
7
290
0
291
1
  0
VISUALSTYLE
  5
5C
102
{ACAD_REACTORS
330
16
102
}
330
16
100
AcDbVisualStyle
  2
Brighten
 70
12
 90
2
 40
0.6
 62
7
290
0
291
1
  0
VISUALSTYLE
  5
5D
102
{ACAD_REACTORS
330
16
102
}
330
16
100
AcDbVisualStyle
  2
ColorChange
 70
16
 90
2
 40
0.6
 62
8
290
0
291
1
  0
VISUALSTYLE
  5
5E
102
{ACAD_REACTORS
330
16
102
}
330
16
100
AcDbVisualStyle
  2
Conceptual
 70
9
 90
3
 40
0.6
 62
7
290
0
291
0
  0
VISUALSTYLE
  5
5F
102
{ACAD_REACTORS
330
16
102
}
330
16
100
AcDbVisualStyle
  2
Dim
 70
11
 90
2
 40
0.6
 62
7
290
0
291
1
  0
VISUALSTYLE
  5
60
102
{ACAD_REACTORS
330
16
102
}
330
16
100
AcDbVisualStyle
  2
EdgeColorOff
 70
22
 90
2
 40
0.6
 62
7
290
0
291
1
  0
VISUALSTYLE
  5
61
102
{ACAD_REACTORS
330
16
102
}
330
16
100
AcDbVisualStyle
  2
Facepattern
 70
15
 90
2
 40
0.6
 62
7
290
0
291
1
  0
VISUALSTYLE
  5
62
102
{ACAD_REACTORS
330
16
102
}
330
16
100
AcDbVisualStyle
  2
Flat
 70
0
 90
2
 40
0.6
 62
7
290
0
291
1
  0
VISUALSTYLE
  5
63
102
{ACAD_REACTORS
330
16
102
}
330
16
100
AcDbVisualStyle
  2
FlatWithEdges
 70
1
 90
2
 40
0.6
 62
7
290
0
291
1
  0
VISUALSTYLE
  5
64
102
{ACAD_REACTORS
330
16
102
}
330
16
100
AcDbVisualStyle
  2
Gouraud
 70
2
 90
2
 40
0.6
 62
7
290
0
291
1
  0
VISUALSTYLE
  5
65
102
{ACAD_REACTORS
330
16
102
}
330
16
100
AcDbVisualStyle
  2
GouraudWithEdges
 70
3
 90
2
 40
0.6
 62
7
290
0
291
1
  0
VISUALSTYLE
  5
66
102
{ACAD_REACTORS
330
16
102
}
330
16
100
AcDbVisualStyle
  2
Hidden
 70
6
 90
1
 40
0.6
 62
7
290
0
291
0
  0
VISUALSTYLE
  5
67
102
{ACAD_REACTORS
330
16
102
}
330
16
100
AcDbVisualStyle
  2
JitterOff
 70
20
 90
2
 40
0.6
 62
7
290
0
291
1
  0
VISUALSTYLE
  5
68
102
{ACAD_REACTORS
330
16
102
}
330
16
100
AcDbVisualStyle
  2
Linepattern
 70
14
 90
2
 40
0.6
 62
7
290
0
291
1
  0
VISUALSTYLE
  5
69
102
{ACAD_REACTORS
330
16
102
}
330
16
100
AcDbVisualStyle
  2
Modeling
 70
10
 90
2
 40
0.6
 62
7
290
0
291
0
  0
VISUALSTYLE
  5
6A
102
{ACAD_REACTORS
330
16
102
}
330
16
100
AcDbVisualStyle
  2
OverhangOff
 70
21
 90
2
 40
0.6
 62
7
290
0
291
1
  0
VISUALSTYLE
  5
6B
102
{ACAD_REACTORS
330
16
102
}
330
16
100
AcDbVisualStyle
  2
Realistic
 70
8
 90
2
 40
0.6
 62
7
290
0
291
0
  0
VISUALSTYLE
  5
6C
102
{ACAD_REACTORS
330
16
102
}
330
16
100
AcDbVisualStyle
  2
Shaded
 70
27
 90
2
 40
0.6
 62
7
290
0
291
0
  0
VISUALSTYLE
  5
6D
102
{ACAD_REACTORS
330
16
102
}
330
16
100
AcDbVisualStyle
  2
Shaded with edges
 70
26
 90
2
 40
0.6
 62
7
290
0
291
0
  0
VISUALSTYLE
  5
6E
102
{ACAD_REACTORS
330
16
102
}
330
16
100
AcDbVisualStyle
  2
Shades of Gray
 70
23
 90
2
 40
0.6
 62
7
290
0
291
0
  0
VISUALSTYLE
  5
6F
102
{ACAD_REACTORS
330
16
102
}
330
16
100
AcDbVisualStyle
  2
Sketchy
 70
24
 90
1
 40
0.6
 62
7
290
0
291
0
  0
VISUALSTYLE
  5
70
102
{ACAD_REACTORS
330
16
102
}
330
16
100
AcDbVisualStyle
  2
Thicken
 70
13
 90
2
 40
0.6
 62
7
290
0
291
1
  0
VISUALSTYLE
  5
71
102
{ACAD_REACTORS
330
16
102
}
330
16
100
AcDbVisualStyle
  2
Wireframe
 70
5
 90
0
 40
0.6
 62
7
290
0
291
0
  0
VISUALSTYLE
  5
72
102
{ACAD_REACTORS
330
16
102
}
330
16
100
AcDbVisualStyle
  2
X-Ray
 70
25
 90
2
 40
0.5
 62
7
290
0
291
0
  0
DICTIONARYVAR
  5
AD
330
2D
100
DictionaryVariables
280
0
  1
1.3.0 @ 2026-01-06T17:07:21.476517+00:00
  0
ENDSEC
  0
EOF
