<?xml version="1.0" encoding="utf-8" standalone="no"?>
<!DOCTYPE svg PUBLIC "-//W3C//DTD SVG 1.1//EN"
  "http://www.w3.org/Graphics/SVG/1.1/DTD/svg11.dtd">
<svg xmlns:xlink="http://www.w3.org/1999/xlink" width="1152pt" height="311.751775pt" viewBox="0 0 1152 311.751775" xmlns="http://www.w3.org/2000/svg" version="1.1">
 <metadata>
  <rdf:RDF xmlns:dc="http://purl.org/dc/elements/1.1/" xmlns:cc="http://creativecommons.org/ns#" xmlns:rdf="http://www.w3.org/1999/02/22-rdf-syntax-ns#">
   <cc:Work>
    <dc:type rdf:resource="http://purl.org/dc/dcmitype/StillImage"/>
    <dc:date>2026-01-07T02:07:22.646237</dc:date>
    <dc:format>image/svg+xml</dc:format>
    <dc:creator>
     <cc:Agent>
      <dc:title>Matplotlib v3.10.1, https://matplotlib.org/</dc:title>
     </cc:Agent>
    </dc:creator>
   </cc:Work>
  </rdf:RDF>
 </metadata>
 <defs>
  <style type="text/css">*{stroke-linejoin: round; stroke-linecap: butt}</style>
 </defs>
 <g id="figure_1">
  <g id="patch_1">
   <path d="M 0 311.751775 
L 1152 311.751775 
L 1152 0 
L 0 0 
z
" style="fill: #ffffff"/>
  </g>
  <g id="axes_1">
   <g id="patch_2">
    <path d="M 0 311.751775 
L 1152 311.751775 
L 1152 0 
L 0 0 
z
" style="fill: #212830"/>
   </g>
   <g id="patch_3">
    <path d="M 1099.636364 39.723225 
L 1089.58158 38.362199 
L 1069.153844 35.752075 
L 1048.689256 33.289057 
L 1028.205037 30.965106 
L 1007.70905 28.788755 
L 987.195204 26.761537 
L 966.668614 24.881623 
L 946.133565 23.151728 
L 925.588645 21.567421 
L 905.058047 20.126029 
L 884.535256 18.84292 
L 864.019921 17.706744 
L 843.537593 16.721979 
L 823.079085 15.899701 
L 802.639947 15.235172 
L 782.236445 14.725545 
L 761.873644 14.378492 
L 741.550219 14.194291 
L 721.275536 14.170535 
L 701.064488 14.312544 
L 680.918501 14.631175 
L 660.824893 15.123756 
L 640.813505 15.782491 
L 620.878901 16.628336 
L 601.025082 17.645034 
L 581.277203 18.843551 
L 561.628307 20.227353 
L 542.103977 21.794805 
L 522.703338 23.55925 
L 503.430472 25.517824 
L 484.295474 27.669326 
L 465.323567 30.009046 
L 446.528924 32.549881 
L 427.912291 35.289748 
L 409.504431 38.216698 
L 391.339733 41.326564 
L 373.45578 44.619388 
L 355.874617 48.100581 
L 338.618834 51.76096 
L 321.736007 55.582544 
L 305.251591 59.568563 
L 289.19577 63.696371 
L 273.603847 67.946392 
L 258.517678 72.290956 
L 243.977945 76.716252 
L 230.002394 81.205733 
L 216.61014 85.744509 
L 203.794728 90.324431 
L 191.559122 94.927631 
L 179.87886 99.547762 
L 168.774284 104.152102 
L 158.223477 108.775917 
L 148.208905 113.396846 
L 138.738581 118.014849 
L 129.804346 122.628653 
L 121.433237 127.222627 
L 113.653761 131.783023 
L 106.465144 136.311669 
L 99.911172 140.724872 
L 94.008107 145.007277 
L 88.732569 149.142596 
L 84.032361 153.123353 
L 79.877868 156.898671 
L 76.161471 160.574504 
L 72.839024 164.052213 
L 69.885771 167.352494 
L 67.253892 170.526254 
L 64.910584 173.578315 
L 62.84571 176.490011 
L 61.031513 179.318512 
L 59.430871 182.092629 
L 58.028161 184.774898 
L 56.804147 187.393731 
L 54.822882 192.417553 
L 53.417087 197.129288 
L 52.943005 199.19846 
L 52.64054 201.43334 
L 52.363636 205.813134 
L 52.417776 207.974678 
L 52.633919 210.160872 
L 53.035335 212.374514 
L 53.640739 214.607599 
L 54.477533 216.863489 
L 55.577831 219.151739 
L 56.963142 221.472179 
L 58.640215 223.81194 
L 60.6167 226.155258 
L 62.914114 228.49075 
L 65.57934 230.819292 
L 68.670434 233.153216 
L 72.205924 235.494952 
L 76.199624 237.828396 
L 80.743469 240.140558 
L 85.92159 242.44211 
L 91.726604 244.747504 
L 98.087713 247.030215 
L 105.010241 249.233484 
L 112.46913 251.362903 
L 120.340413 253.413317 
L 128.596439 255.358397 
L 137.257166 257.204475 
L 155.797939 260.775922 
L 165.534648 262.515204 
L 175.660314 264.165597 
L 197.422744 267.380183 
L 221.20063 270.572095 
L 233.974352 272.116633 
L 261.663579 275.106813 
L 292.433826 277.994423 
L 308.970594 279.38145 
L 326.251861 280.702876 
L 344.224821 281.964892 
L 362.863658 283.125821 
L 401.87603 285.209657 
L 442.680359 286.958601 
L 462.200133 287.660487 
L 462.076803 291.09035 
L 484.693088 291.808711 
L 527.892908 292.945491 
L 571.649324 293.930887 
L 615.697092 294.668038 
L 705.096562 295.800792 
L 749.874491 296.248983 
L 840.113798 296.791941 
L 953.12319 297.304064 
L 1099.636364 297.58124 
L 1099.636364 39.723225 
L 1099.636364 39.723225 
" clip-path="url(#pfff4312875)" style="fill: none; stroke: #ff0000; stroke-width: 0.72; stroke-linejoin: miter"/>
   </g>
   <g id="patch_4">
    <path d="M 655.622927 225.840213 
L 648.758769 225.840213 
" clip-path="url(#pfff4312875)" style="fill: none; stroke: #ff0000; stroke-width: 0.72; stroke-linejoin: miter"/>
   </g>
   <g id="patch_5">
    <path d="M 645.326689 225.840213 
L 638.462531 225.840213 
L 638.462531 260.161005 
L 645.326689 260.161005 
" clip-path="url(#pfff4312875)" style="fill: none; stroke: #ff0000; stroke-width: 0.72; stroke-linejoin: miter"/>
   </g>
   <g id="patch_6">
    <path d="M 648.758769 260.161005 
L 655.622927 260.161005 
L 655.622927 243.000609 
L 648.758769 243.000609 
" clip-path="url(#pfff4312875)" style="fill: none; stroke: #ff0000; stroke-width: 0.72; stroke-linejoin: miter"/>
   </g>
   <g id="patch_7">
    <path d="M 645.326689 243.000609 
L 638.462531 243.000609 
" clip-path="url(#pfff4312875)" style="fill: none; stroke: #ff0000; stroke-width: 0.72; stroke-linejoin: miter"/>
   </g>
   <g id="patch_8">
    <path d="M 672.783323 225.840213 
L 672.783323 260.161005 
" clip-path="url(#pfff4312875)" style="fill: none; stroke: #ff0000; stroke-width: 0.72; stroke-linejoin: miter"/>
   </g>
   <g id="patch_9">
    <path d="M 633.242842 29.844472 
L 619.526873 30.426591 
L 618.944754 16.710621 
L 632.660724 16.128503 
L 633.242842 29.844472 
" clip-path="url(#pfff4312875)" style="fill: none; stroke: #ff0000; stroke-width: 0.72; stroke-linejoin: miter"/>
   </g>
   <g id="patch_10">
    <path d="M 277.266068 81.177992 
L 264.07404 84.977607 
L 260.274425 71.785579 
L 273.466453 67.985964 
L 277.266068 81.177992 
" clip-path="url(#pfff4312875)" style="fill: none; stroke: #ff0000; stroke-width: 0.72; stroke-linejoin: miter"/>
   </g>
   <g id="patch_11">
    <path d="M 99.106555 162.845112 
L 93.870858 167.284047 
L 82.77352 154.194804 
L 88.009217 149.755869 
L 99.106555 162.845112 
" clip-path="url(#pfff4312875)" style="fill: none; stroke: #ff0000; stroke-width: 0.72; stroke-linejoin: miter"/>
   </g>
   <g id="patch_12">
    <path d="M 75.699332 217.232265 
L 81.429274 221.011741 
L 71.980585 235.336595 
L 66.250643 231.55712 
L 75.699332 217.232265 
" clip-path="url(#pfff4312875)" style="fill: none; stroke: #ff0000; stroke-width: 0.72; stroke-linejoin: miter"/>
   </g>
   <g id="patch_13">
    <path d="M 351.630434 268.671199 
L 365.332203 269.524547 
L 364.478856 283.226316 
L 350.777086 282.372968 
L 351.630434 268.671199 
" clip-path="url(#pfff4312875)" style="fill: none; stroke: #ff0000; stroke-width: 0.72; stroke-linejoin: miter"/>
   </g>
   <g id="patch_14">
    <path d="M 969.329488 155.34877 
L 969.222425 150.212296 
L 968.901426 145.084894 
L 968.367057 139.975619 
L 967.620263 134.893494 
L 966.662362 129.847495 
L 965.495046 124.846533 
L 964.120377 119.899441 
L 962.540781 115.014957 
L 960.75905 110.201705 
L 958.77833 105.468187 
L 956.602118 100.822763 
L 954.234259 96.273637 
L 951.678934 91.828843 
L 948.940656 87.496231 
L 946.024261 83.283453 
L 942.9349 79.197949 
L 939.678029 75.246935 
L 936.259399 71.437387 
L 932.685049 67.776035 
L 928.961291 64.269345 
L 925.094702 60.923509 
L 921.092109 57.744437 
L 916.960583 54.737743 
L 912.70742 51.908737 
L 908.340131 49.262416 
L 903.86643 46.803454 
L 899.294217 44.536192 
L 894.631567 42.464636 
L 889.886715 40.592444 
L 885.068042 38.922922 
L 880.184056 37.459018 
L 875.243384 36.203319 
L 870.254751 35.158042 
L 865.226968 34.325033 
L 860.168914 33.705762 
L 855.089522 33.301325 
L 849.997763 33.112434 
L 844.90263 33.139425 
L 839.81312 33.382248 
L 834.738223 33.840476 
L 829.686902 34.513298 
L 824.668076 35.399527 
L 819.69061 36.497597 
L 814.763295 37.80557 
L 809.894833 39.321134 
L 805.093822 41.041615 
L 800.368741 42.963972 
L 795.727934 45.084811 
L 791.179598 47.400386 
L 786.731767 49.906609 
L 782.392294 52.599052 
L 778.168844 55.47296 
L 774.068876 58.523258 
L 770.099631 61.74456 
L 766.268118 65.131174 
L 762.581106 68.677122 
L 759.045105 72.376139 
L 755.66636 76.221694 
L 752.450838 80.206995 
L 749.404219 84.325003 
L 746.531882 88.568445 
L 743.838902 92.929828 
L 741.330033 97.401448 
L 739.009707 101.975409 
L 736.882021 106.643632 
L 734.950733 111.397873 
L 733.219255 116.229735 
L 731.690644 121.130685 
L 730.367599 126.092067 
L 729.252458 131.105119 
L 728.34719 136.160988 
L 727.653393 141.250744 
L 727.172293 146.365398 
L 726.90474 151.495918 
L 726.851206 156.633243 
L 727.011785 161.768299 
L 727.386194 166.892018 
L 727.973772 171.99535 
L 728.773481 177.069282 
L 729.783909 182.104855 
L 731.003271 187.093173 
L 732.429414 192.025428 
L 734.059819 196.892909 
L 735.891606 201.687019 
L 737.921541 206.399291 
L 740.146038 211.021403 
L 742.561169 215.545193 
L 745.162668 219.962669 
L 747.945941 224.266032 
L 750.906072 228.447681 
L 754.037834 232.50023 
L 757.335696 236.416522 
L 760.793832 240.189641 
L 764.406137 243.812924 
L 768.166229 247.27997 
L 772.067469 250.584658 
L 776.102967 253.72115 
L 780.265595 256.683908 
L 784.548002 259.467698 
L 788.942624 262.067605 
L 793.441701 264.479036 
L 798.037287 266.697733 
L 802.721265 268.719778 
L 807.485363 270.541599 
L 812.321168 272.159978 
L 817.220138 273.572059 
L 822.173622 274.775346 
L 827.172871 275.767715 
L 832.209057 276.547412 
L 837.273284 277.113062 
L 842.35661 277.463665 
L 847.450056 277.598602 
L 852.544627 277.517634 
L 857.631325 277.220904 
L 862.701167 276.708937 
L 867.745199 275.982637 
L 872.754513 275.043287 
L 877.720262 273.892544 
L 882.633676 272.532443 
L 887.486077 270.965384 
L 892.268896 269.194136 
L 896.973685 267.221826 
L 901.592137 265.051938 
L 906.116093 262.688304 
L 910.537564 260.135099 
L 914.848742 257.396831 
L 919.042012 254.478337 
L 923.109969 251.384771 
L 927.045429 248.121596 
L 930.841441 244.694577 
L 934.491301 241.109764 
L 937.988563 237.373489 
L 941.327051 233.492351 
L 944.500868 229.473204 
L 947.504409 225.323147 
L 950.332369 221.049509 
L 952.979756 216.659837 
L 955.441891 212.161884 
L 957.714428 207.563593 
L 959.793353 202.873087 
L 961.674994 198.098648 
L 963.356029 193.248709 
L 964.833487 188.331835 
L 966.104761 183.35671 
L 967.167604 178.33212 
L 968.02014 173.26694 
L 968.660863 168.170115 
L 969.088641 163.050646 
L 969.302719 157.917574 
L 969.329488 155.34877 
L 969.329488 155.34877 
" clip-path="url(#pfff4312875)" style="fill: none; stroke: #ff0000; stroke-width: 0.72; stroke-linejoin: miter"/>
   </g>
   <g id="patch_15">
    <path d="M 399.988351 138.188374 
L 417.148747 155.34877 
L 399.988351 172.509166 
L 382.827955 155.34877 
L 399.988351 138.188374 
" clip-path="url(#pfff4312875)" style="fill: none; stroke: #ff0000; stroke-width: 0.72; stroke-linejoin: miter"/>
   </g>
   <g id="patch_16">
    <path d="M 844.132955 138.188374 
L 861.293351 155.34877 
L 844.132955 172.509166 
L 826.972559 155.34877 
L 844.132955 138.188374 
" clip-path="url(#pfff4312875)" style="fill: none; stroke: #ff0000; stroke-width: 0.72; stroke-linejoin: miter"/>
   </g>
   <g id="patch_17">
    <path d="M 483.553826 210.465669 
L 499.675795 228.605141 
L 481.536323 244.727111 
L 465.414353 226.587638 
L 483.553826 210.465669 
" clip-path="url(#pfff4312875)" style="fill: none; stroke: #ff0000; stroke-width: 0.72; stroke-linejoin: miter"/>
   </g>
   <g id="patch_18">
    <path d="M 993.187448 240.475708 
L 1009.309417 258.61518 
L 991.169945 274.73715 
L 975.047975 256.597677 
L 993.187448 240.475708 
" clip-path="url(#pfff4312875)" style="fill: none; stroke: #ff0000; stroke-width: 0.72; stroke-linejoin: miter"/>
   </g>
   <g id="patch_19">
    <path d="M 556.36027 191.171169 
L 573.520666 174.010773 
L 590.681062 191.171169 
L 573.520666 208.331565 
L 556.36027 191.171169 
" clip-path="url(#pfff4312875)" style="fill: none; stroke: #ff0000; stroke-width: 0.72; stroke-linejoin: miter"/>
   </g>
   <g id="patch_20">
    <path d="M 556.36027 122.183705 
L 573.520666 105.023309 
L 590.681062 122.183705 
L 573.520666 139.344101 
L 556.36027 122.183705 
" clip-path="url(#pfff4312875)" style="fill: none; stroke: #ff0000; stroke-width: 0.72; stroke-linejoin: miter"/>
   </g>
   <g id="line2d_1">
    <path d="M 81.583433 155.34877 
L 1099.636364 155.34877 
" clip-path="url(#pfff4312875)" style="fill: none; stroke: #ffffff; stroke-width: 0.72; stroke-linecap: square"/>
   </g>
   <g id="line2d_2">
    <path d="M 379.395876 155.34877 
L 420.580826 155.34877 
" clip-path="url(#pfff4312875)" style="fill: none; stroke: #ffffff; stroke-width: 0.72; stroke-linecap: square"/>
   </g>
   <g id="line2d_3">
    <path d="M 823.54048 155.34877 
L 864.72543 155.34877 
" clip-path="url(#pfff4312875)" style="fill: none; stroke: #ffffff; stroke-width: 0.72; stroke-linecap: square"/>
   </g>
   <g id="line2d_4">
    <path d="M 52.568239 202.276982 
L 1099.636364 263.934129 
" clip-path="url(#pfff4312875)" style="fill: none; stroke: #ffffff; stroke-width: 0.72; stroke-linecap: square"/>
   </g>
   <g id="line2d_5">
    <path d="M 461.988209 226.385888 
L 503.10194 228.806891 
" clip-path="url(#pfff4312875)" style="fill: none; stroke: #ffffff; stroke-width: 0.72; stroke-linecap: square"/>
   </g>
   <g id="line2d_6">
    <path d="M 971.621831 256.395927 
L 1012.735562 258.81693 
" clip-path="url(#pfff4312875)" style="fill: none; stroke: #ffffff; stroke-width: 0.72; stroke-linecap: square"/>
   </g>
   <g id="line2d_7">
    <path d="M 848.087 33.097252 
L 848.087 29.665172 
" clip-path="url(#pfff4312875)" style="fill: none; stroke: #ff0000; stroke-width: 0.72; stroke-linecap: square"/>
   </g>
   <g id="line2d_8">
    <path d="M 848.087 277.600289 
L 848.087 281.032368 
" clip-path="url(#pfff4312875)" style="fill: none; stroke: #ff0000; stroke-width: 0.72; stroke-linecap: square"/>
   </g>
   <g id="line2d_9">
    <path d="M 969.329488 155.34877 
L 972.761567 155.34877 
" clip-path="url(#pfff4312875)" style="fill: none; stroke: #ff0000; stroke-width: 0.72; stroke-linecap: square"/>
   </g>
   <g id="line2d_10">
    <path d="M 726.844513 155.34877 
L 723.412434 155.34877 
" clip-path="url(#pfff4312875)" style="fill: none; stroke: #ff0000; stroke-width: 0.72; stroke-linecap: square"/>
   </g>
   <g id="line2d_11">
    <path d="M 573.520666 293.965058 
L 573.520666 19.389817 
" clip-path="url(#pfff4312875)" style="fill: none; stroke: #ffffff; stroke-width: 0.72; stroke-linecap: square"/>
   </g>
   <g id="line2d_12">
    <path d="M 573.520666 211.763644 
L 573.520666 170.578694 
" clip-path="url(#pfff4312875)" style="fill: none; stroke: #ffffff; stroke-width: 0.72; stroke-linecap: square"/>
   </g>
   <g id="line2d_13">
    <path d="M 573.520666 142.77618 
L 573.520666 101.59123 
" clip-path="url(#pfff4312875)" style="fill: none; stroke: #ffffff; stroke-width: 0.72; stroke-linecap: square"/>
   </g>
  </g>
 </g>
 <defs>
  <clipPath id="pfff4312875">
   <rect x="0" y="0" width="1152" height="311.751775"/>
  </clipPath>
 </defs>
</svg>
