  0
SECTION
  2
HEADER
  9
$ACADVER
  1
AC1021
  9
$ACADMAINTVER
 70
25
  9
$DWGCODEPAGE
  3
ANSI_1252
  9
$LASTSAVEDBY
  1
ezdxf
  9
$INSBASE
 10
0.0
 20
0.0
 30
0.0
  9
$EXTMIN
 10
1e+20
 20
1e+20
 30
1e+20
  9
$EXTMAX
 10
-1e+20
 20
-1e+20
 30
-1e+20
  9
$LIMMIN
 10
0.0
 20
0.0
  9
$LIMMAX
 10
420.0
 20
297.0
  9
$ORTHOMODE
 70
0
  9
$REGENMODE
 70
1
  9
$FILLMODE
 70
1
  9
$QTEXTMODE
 70
0
  9
$MIRRTEXT
 70
1
  9
$LTSCALE
 40
1.0
  9
$ATTMODE
 70
1
  9
$TEXTSIZE
 40
2.5
  9
$TRACEWID
 40
1.0
  9
$TEXTSTYLE
  7
OpenSans
  9
$CLAYER
  8
0
  9
$CELTYPE
  6
ByLayer
  9
$CECOLOR
 62
256
  9
$CELTSCALE
 40
1.0
  9
$DISPSILH
 70
0
  9
$DIMSCALE
 40
1.0
  9
$DIMASZ
 40
0.175
  9
$DIMEXO
 40
0.125
  9
$DIMDLI
 40
3.75
  9
$DIMRND
 40
0.0
  9
$DIMDLE
 40
0.0
  9
$DIMEXE
 40
0.375
  9
$DIMTP
 40
0.0
  9
$DIMTM
 40
0.0
  9
$DIMTXT
 40
0.25
  9
$DIMCEN
 40
2.5
  9
$DIMTSZ
 40
0.0
  9
$DIMTOL
 70
0
  9
$DIMLIM
 70
0
  9
$DIMTIH
 70
0
  9
$DIMTOH
 70
0
  9
$DIMSE1
 70
0
  9
$DIMSE2
 70
0
  9
$DIMTAD
 70
1
  9
$DIMZIN
 70
12
  9
$DIMBLK
  1
ARCHTICK
  9
$DIMASO
 70
1
  9
$DIMSHO
 70
1
  9
$DIMPOST
  1

  9
$DIMAPOST
  1

  9
$DIMALT
 70
0
  9
$DIMALTD
 70
3
  9
$DIMALTF
 40
0.03937007874
  9
$DIMLFAC
 40
100.0
  9
$DIMTOFL
 70
1
  9
$DIMTVP
 40
0.0
  9
$DIMTIX
 70
0
  9
$DIMSOXD
 70
0
  9
$DIMSAH
 70
0
  9
$DIMBLK1
  1

  9
$DIMBLK2
  1

  9
$DIMSTYLE
  2
EZDXF
  9
$DIMCLRD
 70
0
  9
$DIMCLRE
 70
0
  9
$DIMCLRT
 70
0
  9
$DIMTFAC
 40
0.5
  9
$DIMGAP
 40
0.1
  9
$DIMJUST
 70
0
  9
$DIMSD1
 70
0
  9
$DIMSD2
 70
0
  9
$DIMTOLJ
 70
0
  9
$DIMTZIN
 70
8
  9
$DIMALTZ
 70
0
  9
$DIMALTTZ
 70
0
  9
$DIMUPT
 70
1
  9
$DIMDEC
 70
2
  9
$DIMTDEC
 70
2
  9
$DIMALTU
 70
2
  9
$DIMALTTD
 70
3
  9
$DIMTXSTY
  7
OpenSansCondensed-Light
  9
$DIMAUNIT
 70
0
  9
$DIMADEC
 70
2
  9
$DIMALTRND
 40
0.0
  9
$DIMAZIN
 70
3
  9
$DIMDSEP
 70
46
  9
$DIMATFIT
 70
3
  9
$DIMFRAC
 70
0
  9
$DIMLDRBLK
  1

  9
$DIMLUNIT
 70
2
  9
$DIMLWD
 70
-2
  9
$DIMLWE
 70
-2
  9
$DIMTMOVE
 70
2
  9
$DIMFXL
 40
1.0
  9
$DIMFXLON
 70
0
  9
$DIMJOGANG
 40
0.785398163397
  9
$DIMTFILL
 70
0
  9
$DIMTFILLCLR
 70
0
  9
$DIMARCSYM
 70
0
  9
$DIMLTYPE
  6

  9
$DIMLTEX1
  6

  9
$DIMLTEX2
  6

  9
$LUNITS
 70
2
  9
$LUPREC
 70
4
  9
$SKETCHINC
 40
1.0
  9
$FILLETRAD
 40
10.0
  9
$AUNITS
 70
0
  9
$AUPREC
 70
2
  9
$MENU
  1
.
  9
$ELEVATION
 40
0.0
  9
$PELEVATION
 40
0.0
  9
$THICKNESS
 40
0.0
  9
$LIMCHECK
 70
0
  9
$CHAMFERA
 40
0.0
  9
$CHAMFERB
 40
0.0
  9
$CHAMFERC
 40
0.0
  9
$CHAMFERD
 40
0.0
  9
$SKPOLY
 70
0
  9
$TDCREATE
 40
2461048.0884722224
  9
$TDUCREATE
 40
2458532.153996898
  9
$TDUPDATE
 40
2461048.0884722224
  9
$TDUUPDATE
 40
2458532.1544311
  9
$TDINDWG
 40
0.0
  9
$TDUSRTIMER
 40
0.0
  9
$USRTIMER
 70
1
  9
$ANGBASE
 50
0.0
  9
$ANGDIR
 70
0
  9
$PDMODE
 70
0
  9
$PDSIZE
 40
0.0
  9
$PLINEWID
 40
0.0
  9
$SPLFRAME
 70
0
  9
$SPLINETYPE
 70
6
  9
$SPLINESEGS
 70
8
  9
$HANDSEED
  5
B9
  9
$SURFTAB1
 70
6
  9
$SURFTAB2
 70
6
  9
$SURFTYPE
 70
6
  9
$SURFU
 70
6
  9
$SURFV
 70
6
  9
$UCSBASE
  2

  9
$UCSNAME
  2

  9
$UCSORG
 10
0.0
 20
0.0
 30
0.0
  9
$UCSXDIR
 10
1.0
 20
0.0
 30
0.0
  9
$UCSYDIR
 10
0.0
 20
1.0
 30
0.0
  9
$UCSORTHOREF
  2

  9
$UCSORTHOVIEW
 70
0
  9
$UCSORGTOP
 10
0.0
 20
0.0
 30
0.0
  9
$UCSORGBOTTOM
 10
0.0
 20
0.0
 30
0.0
  9
$UCSORGLEFT
 10
0.0
 20
0.0
 30
0.0
  9
$UCSORGRIGHT
 10
0.0
 20
0.0
 30
0.0
  9
$UCSORGFRONT
 10
0.0
 20
0.0
 30
0.0
  9
$UCSORGBACK
 10
0.0
 20
0.0
 30
0.0
  9
$PUCSBASE
  2

  9
$PUCSNAME
  2

  9
$PUCSORG
 10
0.0
 20
0.0
 30
0.0
  9
$PUCSXDIR
 10
1.0
 20
0.0
 30
0.0
  9
$PUCSYDIR
 10
0.0
 20
1.0
 30
0.0
  9
$PUCSORTHOREF
  2

  9
$PUCSORTHOVIEW
 70
0
  9
$PUCSORGTOP
 10
0.0
 20
0.0
 30
0.0
  9
$PUCSORGBOTTOM
 10
0.0
 20
0.0
 30
0.0
  9
$PUCSORGLEFT
 10
0.0
 20
0.0
 30
0.0
  9
$PUCSORGRIGHT
 10
0.0
 20
0.0
 30
0.0
  9
$PUCSORGFRONT
 10
0.0
 20
0.0
 30
0.0
  9
$PUCSORGBACK
 10
0.0
 20
0.0
 30
0.0
  9
$USERI1
 70
0
  9
$USERI2
 70
0
  9
$USERI3
 70
0
  9
$USERI4
 70
0
  9
$USERI5
 70
0
  9
$USERR1
 40
0.0
  9
$USERR2
 40
0.0
  9
$USERR3
 40
0.0
  9
$USERR4
 40
0.0
  9
$USERR5
 40
0.0
  9
$WORLDVIEW
 70
1
  9
$SHADEDGE
 70
3
  9
$SHADEDIF
 70
70
  9
$TILEMODE
 70
1
  9
$MAXACTVP
 70
64
  9
$PINSBASE
 10
0.0
 20
0.0
 30
0.0
  9
$PLIMCHECK
 70
0
  9
$PEXTMIN
 10
1e+20
 20
1e+20
 30
1e+20
  9
$PEXTMAX
 10
-1e+20
 20
-1e+20
 30
-1e+20
  9
$PLIMMIN
 10
0.0
 20
0.0
  9
$PLIMMAX
 10
420.0
 20
297.0
  9
$UNITMODE
 70
0
  9
$VISRETAIN
 70
1
  9
$PLINEGEN
 70
0
  9
$PSLTSCALE
 70
1
  9
$TREEDEPTH
 70
3020
  9
$CMLSTYLE
  2
Standard
  9
$CMLJUST
 70
0
  9
$CMLSCALE
 40
20.0
  9
$PROXYGRAPHICS
 70
1
  9
$MEASUREMENT
 70
1
  9
$CELWEIGHT
370
-1
  9
$ENDCAPS
280
0
  9
$JOINSTYLE
280
0
  9
$LWDISPLAY
290
0
  9
$INSUNITS
 70
6
  9
$HYPERLINKBASE
  1

  9
$STYLESHEET
  1

  9
$XEDIT
290
1
  9
$CEPSNTYPE
380
0
  9
$PSTYLEMODE
290
1
  9
$FINGERPRINTGUID
  2
{58988FF7-45B7-4C01-A4B4-A1BF5FD93925}
  9
$VERSIONGUID
  2
{4E97DE7E-11FB-40BA-BF62-F05A28CA2740}
  9
$EXTNAMES
290
1
  9
$PSVPSCALE
 40
0.0
  9
$OLESTARTUP
290
0
  9
$SORTENTS
280
127
  9
$INDEXCTL
280
0
  9
$HIDETEXT
280
1
  9
$XCLIPFRAME
290
1
  9
$HALOGAP
280
0
  9
$OBSCOLOR
 70
257
  9
$OBSLTYPE
280
0
  9
$INTERSECTIONDISPLAY
280
0
  9
$INTERSECTIONCOLOR
 70
257
  9
$DIMASSOC
280
2
  9
$PROJECTNAME
  1

  9
$CAMERADISPLAY
290
0
  9
$LENSLENGTH
 40
50.0
  9
$CAMERAHEIGHT
 40
0.0
  9
$STEPSPERSEC
 40
24.0
  9
$STEPSIZE
 40
100.0
  9
$3DDWFPREC
 40
2.0
  9
$PSOLWIDTH
 40
0.005
  9
$PSOLHEIGHT
 40
0.08
  9
$LOFTANG1
 40
1.570796326795
  9
$LOFTANG2
 40
1.570796326795
  9
$LOFTMAG1
 40
0.0
  9
$LOFTMAG2
 40
0.0
  9
$LOFTPARAM
 70
7
  9
$LOFTNORMALS
280
1
  9
$LATITUDE
 40
37.795
  9
$LONGITUDE
 40
-122.394
  9
$NORTHDIRECTION
 40
0.0
  9
$TIMEZONE
 70
-8000
  9
$LIGHTGLYPHDISPLAY
280
1
  9
$TILEMODELIGHTSYNCH
280
1
  9
$CMATERIAL
347
20
  9
$SOLIDHIST
280
0
  9
$SHOWHIST
280
1
  9
$DWFFRAME
280
2
  9
$DGNFRAME
280
2
  9
$REALWORLDSCALE
290
1
  9
$INTERFERECOLOR
 62
256
  9
$CSHADOW
280
0
  9
$SHADOWPLANELOCATION
 40
0.0
  0
ENDSEC
  0
SECTION
  2
CLASSES
  0
CLASS
  1
ACDBDICTIONARYWDFLT
  2
AcDbDictionaryWithDefault
  3
ObjectDBX Classes
 90
0
 91
0
280
0
281
0
  0
CLASS
  1
SUN
  2
AcDbSun
  3
SCENEOE
 90
1153
 91
0
280
0
281
0
  0
CLASS
  1
VISUALSTYLE
  2
AcDbVisualStyle
  3
ObjectDBX Classes
 90
4095
 91
0
280
0
281
0
  0
CLASS
  1
MATERIAL
  2
AcDbMaterial
  3
ObjectDBX Classes
 90
1153
 91
0
280
0
281
0
  0
CLASS
  1
SCALE
  2
AcDbScale
  3
ObjectDBX Classes
 90
1153
 91
0
280
0
281
0
  0
CLASS
  1
TABLESTYLE
  2
AcDbTableStyle
  3
ObjectDBX Classes
 90
4095
 91
0
280
0
281
0
  0
CLASS
  1
MLEADERSTYLE
  2
AcDbMLeaderStyle
  3
ACDB_MLEADERSTYLE_CLASS
 90
4095
 91
0
280
0
281
0
  0
CLASS
  1
DICTIONARYVAR
  2
AcDbDictionaryVar
  3
ObjectDBX Classes
 90
0
 91
0
280
0
281
0
  0
CLASS
  1
CELLSTYLEMAP
  2
AcDbCellStyleMap
  3
ObjectDBX Classes
 90
1152
 91
0
280
0
281
0
  0
CLASS
  1
MENTALRAYRENDERSETTINGS
  2
AcDbMentalRayRenderSettings
  3
SCENEOE
 90
1024
 91
0
280
0
281
0
  0
CLASS
  1
ACDBDETAILVIEWSTYLE
  2
AcDbDetailViewStyle
  3
ObjectDBX Classes
 90
1025
 91
0
280
0
281
0
  0
CLASS
  1
ACDBSECTIONVIEWSTYLE
  2
AcDbSectionViewStyle
  3
ObjectDBX Classes
 90
1025
 91
0
280
0
281
0
  0
CLASS
  1
RASTERVARIABLES
  2
AcDbRasterVariables
  3
ISM
 90
0
 91
0
280
0
281
0
  0
CLASS
  1
ACDBPLACEHOLDER
  2
AcDbPlaceHolder
  3
ObjectDBX Classes
 90
0
 91
0
280
0
281
0
  0
CLASS
  1
LAYOUT
  2
AcDbLayout
  3
ObjectDBX Classes
 90
0
 91
0
280
0
281
0
  0
ENDSEC
  0
SECTION
  2
TABLES
  0
TABLE
  2
VPORT
  5
8
330
0
100
AcDbSymbolTable
 70
1
  0
VPORT
  5
23
330
8
100
AcDbSymbolTableRecord
100
AcDbViewportTableRecord
  2
*Active
 70
0
 10
0.0
 20
0.0
 11
1.0
 21
1.0
 12
0.0
 22
0.0
 13
0.0
 23
0.0
 14
0.5
 24
0.5
 15
0.5
 25
0.5
 16
0.0
 26
0.0
 36
1.0
 17
0.0
 27
0.0
 37
0.0
 40
1000.0
 41
1.34
 42
50.0
 43
0.0
 44
0.0
 50
0.0
 51
0.0
 71
0
 72
1000
 73
1
 74
3
 75
0
 76
0
 77
0
 78
0
281
0
 65
0
146
0.0
  0
ENDTAB
  0
TABLE
  2
LTYPE
  5
2
330
0
100
AcDbSymbolTable
 70
21
  0
LTYPE
  5
24
330
2
100
AcDbSymbolTableRecord
100
AcDbLinetypeTableRecord
  2
ByBlock
 70
0
  3

 72
65
 73
0
 40
0.0
  0
LTYPE
  5
25
330
2
100
AcDbSymbolTableRecord
100
AcDbLinetypeTableRecord
  2
ByLayer
 70
0
  3

 72
65
 73
0
 40
0.0
  0
LTYPE
  5
26
330
2
100
AcDbSymbolTableRecord
100
AcDbLinetypeTableRecord
  2
Continuous
 70
0
  3

 72
65
 73
0
 40
0.0
  0
LTYPE
  5
2F
330
2
100
AcDbSymbolTableRecord
100
AcDbLinetypeTableRecord
  2
CENTER
 70
0
  3
Center ____ _ ____ _ ____ _ ____ _ ____ _ ____
 72
65
 73
4
 40
5.08
 49
3.175
 74
0
 49
-0.635
 74
0
 49
0.635
 74
0
 49
-0.635
 74
0
  0
LTYPE
  5
30
330
2
100
AcDbSymbolTableRecord
100
AcDbLinetypeTableRecord
  2
CENTERX2
 70
0
  3
Center (2x) ________  __  ________  __  ________
 72
65
 73
4
 40
8.89
 49
6.35
 74
0
 49
-0.635
 74
0
 49
1.27
 74
0
 49
-0.635
 74
0
  0
LTYPE
  5
31
330
2
100
AcDbSymbolTableRecord
100
AcDbLinetypeTableRecord
  2
CENTER2
 70
0
  3
Center (.5x) ____ _ ____ _ ____ _ ____ _ ____
 72
65
 73
4
 40
2.54
 49
1.587
 74
0
 49
-0.318
 74
0
 49
0.318
 74
0
 49
-0.318
 74
0
  0
LTYPE
  5
32
330
2
100
AcDbSymbolTableRecord
100
AcDbLinetypeTableRecord
  2
DASHED
 70
0
  3
Dashed __ __ __ __ __ __ __ __ __ __ __ __ __ _
 72
65
 73
2
 40
1.524
 49
1.27
 74
0
 49
-0.254
 74
0
  0
LTYPE
  5
33
330
2
100
AcDbSymbolTableRecord
100
AcDbLinetypeTableRecord
  2
DASHEDX2
 70
0
  3
Dashed (2x) ____  ____  ____  ____  ____  ____
 72
65
 73
2
 40
3.048
 49
2.54
 74
0
 49
-0.508
 74
0
  0
LTYPE
  5
34
330
2
100
AcDbSymbolTableRecord
100
AcDbLinetypeTableRecord
  2
DASHED2
 70
0
  3
Dashed (.5x) _ _ _ _ _ _ _ _ _ _ _ _ _ _
 72
65
 73
2
 40
0.762
 49
0.635
 74
0
 49
-0.127
 74
0
  0
LTYPE
  5
35
330
2
100
AcDbSymbolTableRecord
100
AcDbLinetypeTableRecord
  2
PHANTOM
 70
0
  3
Phantom ______  __  __  ______  __  __  ______
 72
65
 73
6
 40
6.35
 49
3.175
 74
0
 49
-0.635
 74
0
 49
0.635
 74
0
 49
-0.635
 74
0
 49
0.635
 74
0
 49
-0.635
 74
0
  0
LTYPE
  5
36
330
2
100
AcDbSymbolTableRecord
100
AcDbLinetypeTableRecord
  2
PHANTOMX2
 70
0
  3
Phantom (2x)____________    ____    ____    ____________
 72
65
 73
6
 40
10.795
 49
6.35
 74
0
 49
-0.635
 74
0
 49
1.27
 74
0
 49
-0.635
 74
0
 49
1.27
 74
0
 49
-0.635
 74
0
  0
LTYPE
  5
37
330
2
100
AcDbSymbolTableRecord
100
AcDbLinetypeTableRecord
  2
PHANTOM2
 70
0
  3
Phantom (.5x) ___ _ _ ___ _ _ ___ _ _ ___ _ _ ___
 72
65
 73
6
 40
3.175
 49
1.587
 74
0
 49
-0.318
 74
0
 49
0.318
 74
0
 49
-0.318
 74
0
 49
0.318
 74
0
 49
-0.318
 74
0
  0
LTYPE
  5
38
330
2
100
AcDbSymbolTableRecord
100
AcDbLinetypeTableRecord
  2
DASHDOT
 70
0
  3
Dash dot __ . __ . __ . __ . __ . __ . __ . __
 72
65
 73
4
 40
3.556
 49
2.54
 74
0
 49
-0.508
 74
0
 49
0.0
 74
0
 49
-0.508
 74
0
  0
LTYPE
  5
39
330
2
100
AcDbSymbolTableRecord
100
AcDbLinetypeTableRecord
  2
DASHDOTX2
 70
0
  3
Dash dot (2x) ____  .  ____  .  ____  .  ____
 72
65
 73
4
 40
6.096
 49
5.08
 74
0
 49
-0.508
 74
0
 49
0.0
 74
0
 49
-0.508
 74
0
  0
LTYPE
  5
3A
330
2
100
AcDbSymbolTableRecord
100
AcDbLinetypeTableRecord
  2
DASHDOT2
 70
0
  3
Dash dot (.5x) _ . _ . _ . _ . _ . _ . _ . _
 72
65
 73
4
 40
1.778
 49
1.27
 74
0
 49
-0.254
 74
0
 49
0.0
 74
0
 49
-0.254
 74
0
  0
LTYPE
  5
3B
330
2
100
AcDbSymbolTableRecord
100
AcDbLinetypeTableRecord
  2
DOT
 70
0
  3
Dot .  .  .  .  .  .  .  .  .  .  .  .  .  .  .  .
 72
65
 73
2
 40
0.508
 49
0.0
 74
0
 49
-0.508
 74
0
  0
LTYPE
  5
3C
330
2
100
AcDbSymbolTableRecord
100
AcDbLinetypeTableRecord
  2
DOTX2
 70
0
  3
Dot (2x) .    .    .    .    .    .    .    . 
 72
65
 73
2
 40
1.016
 49
0.0
 74
0
 49
-1.016
 74
0
  0
LTYPE
  5
3D
330
2
100
AcDbSymbolTableRecord
100
AcDbLinetypeTableRecord
  2
DOT2
 70
0
  3
Dot (.5) . . . . . . . . . . . . . . . . . . . 
 72
65
 73
2
 40
0.254
 49
0.0
 74
0
 49
-0.254
 74
0
  0
LTYPE
  5
3E
330
2
100
AcDbSymbolTableRecord
100
AcDbLinetypeTableRecord
  2
DIVIDE
 70
0
  3
Divide __ . . __ . . __ . . __ . . __ . . __
 72
65
 73
6
 40
4.064
 49
2.54
 74
0
 49
-0.508
 74
0
 49
0.0
 74
0
 49
-0.508
 74
0
 49
0.0
 74
0
 49
-0.508
 74
0
  0
LTYPE
  5
3F
330
2
100
AcDbSymbolTableRecord
100
AcDbLinetypeTableRecord
  2
DIVIDEX2
 70
0
  3
Divide (2x) ____  . .  ____  . .  ____  . .  ____
 72
65
 73
6
 40
6.604
 49
5.08
 74
0
 49
-0.508
 74
0
 49
0.0
 74
0
 49
-0.508
 74
0
 49
0.0
 74
0
 49
-0.508
 74
0
  0
LTYPE
  5
40
330
2
100
AcDbSymbolTableRecord
100
AcDbLinetypeTableRecord
  2
DIVIDE2
 70
0
  3
Divide(.5x) _ . _ . _ . _ . _ . _ . _ . _
 72
65
 73
6
 40
2.032
 49
1.27
 74
0
 49
-0.254
 74
0
 49
0.0
 74
0
 49
-0.254
 74
0
 49
0.0
 74
0
 49
-0.254
 74
0
  0
ENDTAB
  0
TABLE
  2
LAYER
  5
1
330
0
100
AcDbSymbolTable
 70
4
  0
LAYER
  5
27
330
1
100
AcDbSymbolTableRecord
100
AcDbLayerTableRecord
  2
0
 70
0
 62
7
  6
Continuous
370
-3
390
13
347
21
  0
LAYER
  5
28
330
1
100
AcDbSymbolTableRecord
100
AcDbLayerTableRecord
  2
Defpoints
 70
0
 62
7
  6
Continuous
290
0
370
-3
390
13
347
21
  0
LAYER
  5
8A
330
1
100
AcDbSymbolTableRecord
100
AcDbLayerTableRecord
  2
Layer
 70
0
 62
1
  6
Continuous
370
50
390
13
347
21
  0
LAYER
  5
8B
330
1
100
AcDbSymbolTableRecord
100
AcDbLayerTableRecord
  2
NumLabel
 70
0
 62
1
  6
Continuous
370
15
390
13
347
21
  0
ENDTAB
  0
TABLE
  2
STYLE
  5
5
330
0
100
AcDbSymbolTable
 70
26
  0
STYLE
  5
29
330
5
100
AcDbSymbolTableRecord
100
AcDbTextStyleTableRecord
  2
Standard
 70
0
 40
0.0
 41
1.0
 50
0.0
 71
0
 42
2.5
  3
txt
  4

  0
STYLE
  5
41
330
5
100
AcDbSymbolTableRecord
100
AcDbTextStyleTableRecord
  2
OpenSans-Light
 70
0
 40
0.0
 41
1.0
 50
0.0
 71
0
 42
2.5
  3
OpenSans-Light.ttf
  4

  0
STYLE
  5
42
330
5
100
AcDbSymbolTableRecord
100
AcDbTextStyleTableRecord
  2
OpenSans-Light-Italic
 70
0
 40
0.0
 41
1.0
 50
0.0
 71
0
 42
2.5
  3
OpenSans-LightItalic.ttf
  4

  0
STYLE
  5
43
330
5
100
AcDbSymbolTableRecord
100
AcDbTextStyleTableRecord
  2
OpenSans
 70
0
 40
0.0
 41
1.0
 50
0.0
 71
0
 42
2.5
  3
OpenSans-Regular.ttf
  4

  0
STYLE
  5
44
330
5
100
AcDbSymbolTableRecord
100
AcDbTextStyleTableRecord
  2
OpenSans-Italic
 70
0
 40
0.0
 41
1.0
 50
0.0
 71
0
 42
2.5
  3
OpenSans-Italic.ttf
  4

  0
STYLE
  5
45
330
5
100
AcDbSymbolTableRecord
100
AcDbTextStyleTableRecord
  2
OpenSans-SemiBold
 70
0
 40
0.0
 41
1.0
 50
0.0
 71
0
 42
2.5
  3
OpenSans-SemiBold.ttf
  4

  0
STYLE
  5
46
330
5
100
AcDbSymbolTableRecord
100
AcDbTextStyleTableRecord
  2
OpenSans-SemiBoldItalic
 70
0
 40
0.0
 41
1.0
 50
0.0
 71
0
 42
2.5
  3
OpenSans-SemiBoldItalic.ttf
  4

  0
STYLE
  5
47
330
5
100
AcDbSymbolTableRecord
100
AcDbTextStyleTableRecord
  2
OpenSans-Bold
 70
0
 40
0.0
 41
1.0
 50
0.0
 71
0
 42
2.5
  3
OpenSans-Bold.ttf
  4

  0
STYLE
  5
48
330
5
100
AcDbSymbolTableRecord
100
AcDbTextStyleTableRecord
  2
OpenSans-BoldItalic
 70
0
 40
0.0
 41
1.0
 50
0.0
 71
0
 42
2.5
  3
OpenSans-BoldItalic.ttf
  4

  0
STYLE
  5
49
330
5
100
AcDbSymbolTableRecord
100
AcDbTextStyleTableRecord
  2
OpenSans-ExtraBold
 70
0
 40
0.0
 41
1.0
 50
0.0
 71
0
 42
2.5
  3
OpenSans-ExtraBold.ttf
  4

  0
STYLE
  5
4A
330
5
100
AcDbSymbolTableRecord
100
AcDbTextStyleTableRecord
  2
OpenSans-ExtraBoldItalic
 70
0
 40
0.0
 41
1.0
 50
0.0
 71
0
 42
2.5
  3
OpenSans-ExtraBoldItalic.ttf
  4

  0
STYLE
  5
4B
330
5
100
AcDbSymbolTableRecord
100
AcDbTextStyleTableRecord
  2
OpenSansCondensed-Bold
 70
0
 40
0.0
 41
1.0
 50
0.0
 71
0
 42
2.5
  3
OpenSansCondensed-Bold.ttf
  4

  0
STYLE
  5
4C
330
5
100
AcDbSymbolTableRecord
100
AcDbTextStyleTableRecord
  2
OpenSansCondensed-Light
 70
0
 40
0.0
 41
1.0
 50
0.0
 71
0
 42
2.5
  3
OpenSansCondensed-Light.ttf
  4

  0
STYLE
  5
4D
330
5
100
AcDbSymbolTableRecord
100
AcDbTextStyleTableRecord
  2
OpenSansCondensed-Italic
 70
0
 40
0.0
 41
1.0
 50
0.0
 71
0
 42
2.5
  3
OpenSansCondensed-LightItalic.ttf
  4

  0
STYLE
  5
4E
330
5
100
AcDbSymbolTableRecord
100
AcDbTextStyleTableRecord
  2
LiberationSans
 70
0
 40
0.0
 41
1.0
 50
0.0
 71
0
 42
2.5
  3
LiberationSans-Regular.ttf
  4

  0
STYLE
  5
4F
330
5
100
AcDbSymbolTableRecord
100
AcDbTextStyleTableRecord
  2
LiberationSans-Bold
 70
0
 40
0.0
 41
1.0
 50
0.0
 71
0
 42
2.5
  3
LiberationSans-Bold.ttf
  4

  0
STYLE
  5
50
330
5
100
AcDbSymbolTableRecord
100
AcDbTextStyleTableRecord
  2
LiberationSans-BoldItalic
 70
0
 40
0.0
 41
1.0
 50
0.0
 71
0
 42
2.5
  3
LiberationSans-BoldItalic.ttf
  4

  0
STYLE
  5
51
330
5
100
AcDbSymbolTableRecord
100
AcDbTextStyleTableRecord
  2
LiberationSans-Italic
 70
0
 40
0.0
 41
1.0
 50
0.0
 71
0
 42
2.5
  3
LiberationSans-Italic.ttf
  4

  0
STYLE
  5
52
330
5
100
AcDbSymbolTableRecord
100
AcDbTextStyleTableRecord
  2
LiberationSerif
 70
0
 40
0.0
 41
1.0
 50
0.0
 71
0
 42
2.5
  3
LiberationSerif-Regular.ttf
  4

  0
STYLE
  5
53
330
5
100
AcDbSymbolTableRecord
100
AcDbTextStyleTableRecord
  2
LiberationSerif-Bold
 70
0
 40
0.0
 41
1.0
 50
0.0
 71
0
 42
2.5
  3
LiberationSerif-Bold.ttf
  4

  0
STYLE
  5
54
330
5
100
AcDbSymbolTableRecord
100
AcDbTextStyleTableRecord
  2
LiberationSerif-BoldItalic
 70
0
 40
0.0
 41
1.0
 50
0.0
 71
0
 42
2.5
  3
LiberationSerif-BoldItalic.ttf
  4

  0
STYLE
  5
55
330
5
100
AcDbSymbolTableRecord
100
AcDbTextStyleTableRecord
  2
LiberationSerif-Italic
 70
0
 40
0.0
 41
1.0
 50
0.0
 71
0
 42
2.5
  3
LiberationSerif-Italic.ttf
  4

  0
STYLE
  5
56
330
5
100
AcDbSymbolTableRecord
100
AcDbTextStyleTableRecord
  2
LiberationMono
 70
0
 40
0.0
 41
1.0
 50
0.0
 71
0
 42
2.5
  3
LiberationMono-Regular.ttf
  4

  0
STYLE
  5
57
330
5
100
AcDbSymbolTableRecord
100
AcDbTextStyleTableRecord
  2
LiberationMono-Bold
 70
0
 40
0.0
 41
1.0
 50
0.0
 71
0
 42
2.5
  3
LiberationMono-Bold.ttf
  4

  0
STYLE
  5
58
330
5
100
AcDbSymbolTableRecord
100
AcDbTextStyleTableRecord
  2
LiberationMono-BoldItalic
 70
0
 40
0.0
 41
1.0
 50
0.0
 71
0
 42
2.5
  3
LiberationMono-BoldItalic.ttf
  4

  0
STYLE
  5
59
330
5
100
AcDbSymbolTableRecord
100
AcDbTextStyleTableRecord
  2
LiberationMono-Italic
 70
0
 40
0.0
 41
1.0
 50
0.0
 71
0
 42
2.5
  3
LiberationMono-Italic.ttf
  4

  0
ENDTAB
  0
TABLE
  2
VIEW
  5
7
330
0
100
AcDbSymbolTable
 70
0
  0
ENDTAB
  0
TABLE
  2
UCS
  5
6
330
0
100
AcDbSymbolTable
 70
0
  0
ENDTAB
  0
TABLE
  2
APPID
  5
3
330
0
100
AcDbSymbolTable
 70
3
  0
APPID
  5
2A
330
3
100
AcDbSymbolTableRecord
100
AcDbRegAppTableRecord
  2
ACAD
 70
0
  0
APPID
  5
B6
330
3
100
AcDbSymbolTableRecord
100
AcDbRegAppTableRecord
  2
HATCHBACKGROUNDCOLOR
 70
0
  0
APPID
  5
B7
330
3
100
AcDbSymbolTableRecord
100
AcDbRegAppTableRecord
  2
EZDXF
 70
0
  0
ENDTAB
  0
TABLE
  2
DIMSTYLE
  5
4
330
0
100
AcDbSymbolTable
 70
12
100
AcDbDimStyleTable
  0
DIMSTYLE
105
2B
330
4
100
AcDbSymbolTableRecord
100
AcDbDimStyleTableRecord
  2
Standard
 70
0
 40
1.0
 41
2.5
 42
0.625
 43
3.75
 44
1.25
 45
0.0
 46
0.0
 47
0.0
 48
0.0
 49
2.5
140
2.5
141
2.5
142
0.0
143
0.03937007874
144
1.0
145
0.0
146
1.0
147
0.625
148
0.0
 69
0
 70
0
 71
0
 72
0
 73
0
 74
0
 75
0
 76
0
 77
1
 78
8
 79
3
170
0
171
3
172
1
173
0
174
0
175
0
176
0
177
0
178
0
179
2
271
2
272
2
273
2
274
3
275
0
276
0
277
2
278
44
279
0
280
0
281
0
282
0
283
0
284
8
285
0
286
0
288
0
289
3
290
0
371
-2
372
-2
  0
DIMSTYLE
105
73
330
4
100
AcDbSymbolTableRecord
100
AcDbDimStyleTableRecord
  2
EZDXF
 70
0
 40
1.0
 41
0.175
 42
0.125
 43
3.75
 44
0.375
 45
0.0
 46
0.0
 47
0.0
 48
0.0
 49
2.5
140
0.25
141
2.5
142
0.0
143
0.03937007874
144
100.0
145
0.0
146
0.5
147
0.1
148
0.0
 69
0
 70
0
 71
0
 72
0
 73
0
 74
0
 75
0
 76
0
 77
1
 78
12
 79
3
170
0
171
3
172
1
173
0
174
0
175
0
176
0
177
0
178
0
179
2
271
2
272
2
273
2
274
3
275
0
276
0
277
2
278
46
279
2
280
0
281
0
282
0
283
0
284
8
285
0
286
0
288
1
289
3
290
0
340
4C
342
74
371
-2
372
-2
  0
DIMSTYLE
105
7C
330
4
100
AcDbSymbolTableRecord
100
AcDbDimStyleTableRecord
  2
EZ_M_100_H25_CM
 70
0
 40
1.0
 41
0.25
 42
0.125
 43
3.75
 44
0.375
 45
0.0
 46
0.0
 47
0.0
 48
0.0
 49
2.5
140
0.25
141
2.5
142
0.125
143
0.03937007874
144
100.0
145
0.0
146
0.5
147
0.1
148
0.0
 69
0
 70
0
 71
0
 72
0
 73
0
 74
0
 75
0
 76
0
 77
1
 78
12
 79
3
170
0
171
3
172
1
173
0
174
0
175
0
176
0
177
0
178
0
179
2
271
2
272
2
273
2
274
3
275
0
276
0
277
2
278
46
279
2
280
0
281
0
282
0
283
0
284
8
285
0
286
0
288
1
289
3
290
0
340
4C
371
-2
372
-2
  0
DIMSTYLE
105
7D
330
4
100
AcDbSymbolTableRecord
100
AcDbDimStyleTableRecord
  2
EZ_M_50_H25_CM
 70
0
 40
1.0
 41
0.125
 42
0.0625
 43
3.75
 44
0.1875
 45
0.0
 46
0.0
 47
0.0
 48
0.0
 49
2.5
140
0.125
141
2.5
142
0.0625
143
0.03937007874
144
100.0
145
0.0
146
0.5
147
0.05
148
0.0
 69
0
 70
0
 71
0
 72
0
 73
0
 74
0
 75
0
 76
0
 77
1
 78
12
 79
3
170
0
171
3
172
1
173
0
174
0
175
0
176
0
177
0
178
0
179
2
271
2
272
2
273
2
274
3
275
0
276
0
277
2
278
46
279
2
280
0
281
0
282
0
283
0
284
8
285
0
286
0
288
1
289
3
290
0
340
4C
371
-2
372
-2
  0
DIMSTYLE
105
7E
330
4
100
AcDbSymbolTableRecord
100
AcDbDimStyleTableRecord
  2
EZ_M_25_H25_CM
 70
0
 40
1.0
 41
0.0625
 42
0.03125
 43
3.75
 44
0.09375
 45
0.0
 46
0.0
 47
0.0
 48
0.0
 49
2.5
140
0.0625
141
2.5
142
0.03125
143
0.03937007874
144
100.0
145
0.0
146
0.5
147
0.025
148
0.0
 69
0
 70
0
 71
0
 72
0
 73
0
 74
0
 75
0
 76
0
 77
1
 78
12
 79
3
170
0
171
3
172
1
173
0
174
0
175
0
176
0
177
0
178
0
179
2
271
2
272
2
273
2
274
3
275
0
276
0
277
2
278
46
279
2
280
0
281
0
282
0
283
0
284
8
285
0
286
0
288
1
289
3
290
0
340
4C
371
-2
372
-2
  0
DIMSTYLE
105
7F
330
4
100
AcDbSymbolTableRecord
100
AcDbDimStyleTableRecord
  2
EZ_M_20_H25_CM
 70
0
 40
1.0
 41
0.05
 42
0.025
 43
3.75
 44
0.07500000000000001
 45
0.0
 46
0.0
 47
0.0
 48
0.0
 49
2.5
140
0.05
141
2.5
142
0.025
143
0.03937007874
144
100.0
145
0.0
146
0.5
147
0.020000000000000004
148
0.0
 69
0
 70
0
 71
0
 72
0
 73
0
 74
0
 75
0
 76
0
 77
1
 78
12
 79
3
170
0
171
3
172
1
173
0
174
0
175
0
176
0
177
0
178
0
179
2
271
2
272
2
273
2
274
3
275
0
276
0
277
2
278
46
279
2
280
0
281
0
282
0
283
0
284
8
285
0
286
0
288
1
289
3
290
0
340
4C
371
-2
372
-2
  0
DIMSTYLE
105
80
330
4
100
AcDbSymbolTableRecord
100
AcDbDimStyleTableRecord
  2
EZ_M_10_H25_CM
 70
0
 40
1.0
 41
0.025
 42
0.0125
 43
3.75
 44
0.037500000000000006
 45
0.0
 46
0.0
 47
0.0
 48
0.0
 49
2.5
140
0.025
141
2.5
142
0.0125
143
0.03937007874
144
100.0
145
0.0
146
0.5
147
0.010000000000000002
148
0.0
 69
0
 70
0
 71
0
 72
0
 73
0
 74
0
 75
0
 76
0
 77
1
 78
12
 79
3
170
0
171
3
172
1
173
0
174
0
175
0
176
0
177
0
178
0
179
2
271
2
272
2
273
2
274
3
275
0
276
0
277
2
278
46
279
2
280
0
281
0
282
0
283
0
284
8
285
0
286
0
288
1
289
3
290
0
340
4C
371
-2
372
-2
  0
DIMSTYLE
105
81
330
4
100
AcDbSymbolTableRecord
100
AcDbDimStyleTableRecord
  2
EZ_M_5_H25_CM
 70
0
 40
1.0
 41
0.0125
 42
0.00625
 43
3.75
 44
0.018750000000000003
 45
0.0
 46
0.0
 47
0.0
 48
0.0
 49
2.5
140
0.0125
141
2.5
142
0.00625
143
0.03937007874
144
100.0
145
0.0
146
0.5
147
0.005000000000000001
148
0.0
 69
0
 70
0
 71
0
 72
0
 73
0
 74
0
 75
0
 76
0
 77
1
 78
12
 79
3
170
0
171
3
172
1
173
0
174
0
175
0
176
0
177
0
178
0
179
2
271
2
272
2
273
2
274
3
275
0
276
0
277
2
278
46
279
2
280
0
281
0
282
0
283
0
284
8
285
0
286
0
288
1
289
3
290
0
340
4C
371
-2
372
-2
  0
DIMSTYLE
105
82
330
4
100
AcDbSymbolTableRecord
100
AcDbDimStyleTableRecord
  2
EZ_M_1_H25_CM
 70
0
 40
1.0
 41
0.0025
 42
0.00125
 43
3.75
 44
0.00375
 45
0.0
 46
0.0
 47
0.0
 48
0.0
 49
2.5
140
0.0025
141
2.5
142
0.00125
143
0.03937007874
144
100.0
145
0.0
146
0.5
147
0.001
148
0.0
 69
0
 70
0
 71
0
 72
0
 73
0
 74
0
 75
0
 76
0
 77
1
 78
12
 79
3
170
0
171
3
172
1
173
0
174
0
175
0
176
0
177
0
178
0
179
2
271
2
272
2
273
2
274
3
275
0
276
0
277
2
278
46
279
2
280
0
281
0
282
0
283
0
284
8
285
0
286
0
288
1
289
3
290
0
340
4C
371
-2
372
-2
  0
DIMSTYLE
105
83
330
4
100
AcDbSymbolTableRecord
100
AcDbDimStyleTableRecord
  2
EZ_RADIUS
 70
0
 40
1.0
 41
0.25
 42
0.125
 43
3.75
 44
0.375
 45
0.0
 46
0.0
 47
0.0
 48
0.0
 49
2.5
140
0.25
141
0.0
142
0.0
143
0.03937007874
144
100.0
145
0.0
146
0.5
147
0.1
148
0.0
 69
0
 70
0
 71
0
 72
0
 73
0
 74
0
 75
0
 76
0
 77
1
 78
12
 79
3
170
0
171
3
172
0
173
0
174
0
175
0
176
0
177
0
178
0
179
2
271
2
272
2
273
2
274
3
275
0
276
0
277
2
278
46
279
1
280
0
281
0
282
0
283
0
284
8
285
0
286
0
288
1
289
3
290
0
340
4C
342
84
371
-2
372
-2
  0
DIMSTYLE
105
88
330
4
100
AcDbSymbolTableRecord
100
AcDbDimStyleTableRecord
  2
EZ_RADIUS_INSIDE
 70
0
 40
1.0
 41
0.25
 42
0.125
 43
3.75
 44
0.375
 45
0.0
 46
0.0
 47
0.0
 48
0.0
 49
2.5
140
0.25
141
0.0
142
0.0
143
0.03937007874
144
100.0
145
0.0
146
0.5
147
0.1
148
0.0
 69
0
 70
0
 71
0
 72
0
 73
0
 74
0
 75
0
 76
0
 77
0
 78
12
 79
3
170
0
171
3
172
0
173
0
174
1
175
0
176
0
177
0
178
0
179
2
271
2
272
2
273
2
274
3
275
0
276
0
277
2
278
46
279
0
280
0
281
0
282
0
283
0
284
8
285
0
286
0
288
1
289
0
290
0
340
4C
342
84
371
-2
372
-2
  0
DIMSTYLE
105
89
330
4
100
AcDbSymbolTableRecord
100
AcDbDimStyleTableRecord
  2
EZ_CURVED
 70
0
 40
1.0
 41
0.25
 42
0.125
 43
3.75
 44
0.375
 45
0.0
 46
0.0
 47
0.0
 48
0.0
 49
2.5
140
0.25
141
2.5
142
0.0
143
0.03937007874
144
100.0
145
0.0
146
0.5
147
0.1
148
0.0
 69
0
 70
0
 71
0
 72
0
 73
0
 74
0
 75
0
 76
0
 77
1
 78
12
 79
2
 90
2
170
0
171
3
172
1
173
0
174
0
175
0
176
0
177
0
178
0
179
2
271
2
272
2
273
2
274
3
275
0
276
0
277
2
278
46
279
2
280
0
281
0
282
0
283
0
284
8
285
0
286
0
288
1
289
3
290
0
340
4C
371
-2
372
-2
  0
ENDTAB
  0
TABLE
  2
BLOCK_RECORD
  5
9
330
0
100
AcDbSymbolTable
 70
5
  0
BLOCK_RECORD
  5
17
330
9
100
AcDbSymbolTableRecord
100
AcDbBlockTableRecord
  2
*Model_Space
340
1A
 70
0
280
1
281
0
  0
BLOCK_RECORD
  5
1B
330
9
100
AcDbSymbolTableRecord
100
AcDbBlockTableRecord
  2
*Paper_Space
340
1E
 70
0
280
1
281
0
  0
BLOCK_RECORD
  5
74
330
9
100
AcDbSymbolTableRecord
100
AcDbBlockTableRecord
  2
_ARCHTICK
340
0
 70
0
280
1
281
0
  0
BLOCK_RECORD
  5
78
330
9
100
AcDbSymbolTableRecord
100
AcDbBlockTableRecord
  2
_CLOSEDFILLED
340
0
 70
0
280
1
281
0
  0
BLOCK_RECORD
  5
84
330
9
100
AcDbSymbolTableRecord
100
AcDbBlockTableRecord
  2
_CLOSEDBLANK
340
0
 70
0
280
1
281
0
  0
ENDTAB
  0
ENDSEC
  0
SECTION
  2
BLOCKS
  0
BLOCK
  5
18
330
17
100
AcDbEntity
  8
0
100
AcDbBlockBegin
  2
*Model_Space
 70
0
 10
0.0
 20
0.0
 30
0.0
  3
*Model_Space
  1

  0
ENDBLK
  5
19
330
17
100
AcDbEntity
  8
0
100
AcDbBlockEnd
  0
BLOCK
  5
1C
330
1B
100
AcDbEntity
  8
0
100
AcDbBlockBegin
  2
*Paper_Space
 70
0
 10
0.0
 20
0.0
 30
0.0
  3
*Paper_Space
  1

  0
ENDBLK
  5
1D
330
1B
100
AcDbEntity
  8
0
100
AcDbBlockEnd
  0
BLOCK
  5
75
330
74
100
AcDbEntity
  8
0
100
AcDbBlockBegin
  2
_ARCHTICK
 70
0
 10
0.0
 20
0.0
 30
0.0
  3
_ARCHTICK
  1

  0
LWPOLYLINE
  5
77
330
74
100
AcDbEntity
  8
0
  6
BYBLOCK
 62
0
100
AcDbPolyline
 90
2
 70
0
 43
0.15
 10
-0.5
 20
-0.5
 10
0.5
 20
0.5
  0
ENDBLK
  5
76
330
74
100
AcDbEntity
  8
0
100
AcDbBlockEnd
  0
BLOCK
  5
79
330
78
100
AcDbEntity
  8
0
100
AcDbBlockBegin
  2
_CLOSEDFILLED
 70
0
 10
0.0
 20
0.0
 30
0.0
  3
_CLOSEDFILLED
  1

  0
SOLID
  5
7B
330
78
100
AcDbEntity
  8
0
  6
BYBLOCK
 62
0
100
AcDbTrace
 10
-1.0
 20
0.16439898372402537
 30
0.0
 11
0.0
 21
0.0
 31
0.0
 12
-1.0
 22
-0.16439898372402537
 32
0.0
 13
-1.0
 23
-0.16439898372402537
 33
0.0
  0
ENDBLK
  5
7A
330
78
100
AcDbEntity
  8
0
100
AcDbBlockEnd
  0
BLOCK
  5
85
330
84
100
AcDbEntity
  8
0
100
AcDbBlockBegin
  2
_CLOSEDBLANK
 70
0
 10
0.0
 20
0.0
 30
0.0
  3
_CLOSEDBLANK
  1

  0
LWPOLYLINE
  5
87
330
84
100
AcDbEntity
  8
0
  6
BYBLOCK
 62
0
100
AcDbPolyline
 90
3
 70
1
 10
-1.0
 20
0.16439898372402537
 10
0.0
 20
0.0
 10
-1.0
 20
-0.16439898372402537
  0
ENDBLK
  5
86
330
84
100
AcDbEntity
  8
0
100
AcDbBlockEnd
  0
ENDSEC
  0
SECTION
  2
ENTITIES
  0
LWPOLYLINE
  5
8C
330
17
100
AcDbEntity
  8
Layer
100
AcDbPolyline
 90
261
 70
1
 10
511.31372803572117
 20
168.25135764525828
 10
509.0031449426341
 20
168.74444342086673
 10
505.2360208494031
 20
169.56404695905331
 10
501.1885975156779
 20
170.4789306029264
 10
496.95116753699506
 20
171.45913492071756
 10
492.5970744895018
 20
172.48798021808238
 10
488.1810586701233
 20
173.5506044636592
 10
483.72993797324943
 20
174.64507356128667
 10
479.25742565574274
 20
175.75695488270276
 10
474.78278876423747
 20
176.88833618672763
 10
470.3028783783717
 20
178.04145383297455
 10
465.8188828966238
 20
179.20498307991767
 10
461.3457436497083
 20
180.38024374455316
 10
456.8824321260257
 20
181.57619042491334
 10
452.4224632129989
 20
182.7941928617424
 10
447.95938843148247
 20
184.02143099144484
 10
443.48838414765265
 20
185.2478874513981
 10
439.01823912233243
 20
186.49143987432038
 10
434.5373281286146
 20
187.75006609591387
 10
430.05207320267095
 20
189.01331865653046
 10
425.5701173888584
 20
190.2813045446331
 10
421.09561290525534
 20
191.55717095551773
 10
416.62651149921663
 20
192.83797102647156
 10
412.1608039074348
 20
194.10731590441677
 10
407.6918849472782
 20
195.37618705600843
 10
403.22223223042
 20
196.6495756882568
 10
398.7533793404692
 20
197.91041560615508
 10
394.2794407220565
 20
199.160785337417
 10
389.8100968385463
 20
200.4028126953447
 10
387.0177726779758
 20
201.16793629831304
 10
386.7535043506632
 20
200.20348710256482
 10
385.090604965597
 20
200.65915341813428
 10
380.6283671830612
 20
201.860169026942
 10
376.1684971501527
 20
203.04495169308927
 10
371.70526718162813
 20
204.20823634294507
 10
367.2377241133606
 20
205.3549538753126
 10
362.774838823015
 20
206.48234750422682
 10
358.3144022490304
 20
207.58425874762898
 10
353.84688152284286
 20
208.6604196231702
 10
349.3703903154845
 20
209.71446380633498
 10
344.88394486518666
 20
210.74876268610163
 10
340.3955973098531
 20
211.76583732338517
 10
335.9094344230066
 20
212.75973001511966
 10
331.4209970623199
 20
213.7290568170508
 10
326.9300769528163
 20
214.67170125560466
 10
322.42339732777526
 20
215.59174956945355
 10
317.92321897744796
 20
216.49582745971838
 10
313.42710780407464
 20
217.36648659765572
 10
308.91302720873585
 20
218.21006985337596
 10
304.39001645293456
 20
219.03570591359693
 10
299.87005402639727
 20
219.84082361624564
 10
295.35050396197994
 20
220.61885910594924
 10
290.82506991534626
 20
221.36958819564134
 10
286.2899686460926
 20
222.09603480084297
 10
281.7475789436227
 20
222.8016043872904
 10
277.2044386983937
 20
223.48640973156898
 10
272.6616378399864
 20
224.14551354629003
 10
268.1070719515049
 20
224.77973258242926
 10
263.5501978342733
 20
225.3960926744414
 10
258.99620934524427
 20
225.98921701971483
 10
254.441711363301
 20
226.55753550594184
 10
249.8877326616803
 20
227.10000898610372
 10
245.32819422353367
 20
227.6144834884237
 10
240.75589333663535
 20
228.10735263854397
 10
236.19311423779774
 20
228.5823441513639
 10
231.63053270381562
 20
229.0252340240205
 10
227.05956668742556
 20
229.44555636791978
 10
222.4960254035755
 20
229.84210746726046
 10
217.931937393784
 20
230.2085402569465
 10
213.36259040749385
 20
230.54781852530417
 10
208.7942557386527
 20
230.86197282947487
 10
204.22398214387056
 20
231.14741037654943
 10
199.64961782445434
 20
231.4069790688447
 10
195.07929959253624
 20
231.64256072410325
 10
190.51780078432702
 20
231.84909497852348
 10
185.9572715403797
 20
232.02018529842516
 10
181.38522836121635
 20
232.16173311596015
 10
176.82699642257452
 20
232.280114506406
 10
172.26692761434919
 20
232.35746672856556
 10
167.69908090480553
 20
232.4098748666678
 10
163.14350161443215
 20
232.43242615921523
 10
158.58961043483467
 20
232.42131915277386
 10
154.04732398239307
 20
232.3773200907081
 10
149.5056414376204
 20
232.2931505378192
 10
144.9650760335323
 20
232.17383212812337
 10
140.424826030985
 20
232.0184210501776
 10
135.8918621692888
 20
231.83091068621502
 10
131.3688617207002
 20
231.60358555148778
 10
126.84831978348879
 20
231.33597056518758
 10
122.33249770746096
 20
231.02969598769428
 10
117.8220756736834
 20
230.6867172108041
 10
113.33339603188219
 20
230.30825212992139
 10
108.86652939243797
 20
229.88141492742753
 10
104.40516484675062
 20
229.40148961952028
 10
99.96041001333444
 20
228.87878663086593
 10
95.53338909439755
 20
228.30260002837014
 10
91.12061782267828
 20
227.67170967900577
 10
86.71564273901558
 20
226.9847160927883
 10
82.33034732058557
 20
226.25304879804264
 10
77.98451278388394
 20
225.46938516770183
 10
73.67414436444052
 20
224.62301661763976
 10
69.40332008116184
 20
223.71056300426397
 10
65.16844959274474
 20
222.72713291645792
 10
60.981786218909974
 20
221.67166799320924
 10
56.83200606995672
 20
220.53517336958873
 10
52.749773011846486
 20
219.33786673501794
 10
48.74303145891366
 20
218.05262647003806
 10
44.82096918769105
 20
216.69315584881355
 10
41.016692988073885
 20
215.2566172167482
 10
37.34485037265921
 20
213.74429333827604
 10
33.85106819584885
 20
212.1744517884549
 10
30.58279323928329
 20
210.56407230952715
 10
27.566361227077522
 20
208.91932432133146
 10
24.8527087264944
 20
207.30865307820204
 10
22.474433692220543
 20
205.75278384955112
 10
20.427466848509084
 20
204.27454431202966
 10
18.68629133525559
 20
202.89159069538744
 10
17.24165336268547
 20
201.64634367166045
 10
16.029357557998537
 20
200.45726756760237
 10
15.020096544846467
 20
199.39324179761184
 10
14.200660756433336
 20
198.43312983922402
 10
13.5292955331158
 20
197.52578567319443
 10
12.973419549977052
 20
196.66858350232715
 10
12.52052408870506
 20
195.88942548591268
 10
12.149678279197843
 20
195.14985697632622
 10
11.83814177494915
 20
194.4376884996568
 10
11.583445552387985
 20
193.80069629592074
 10
11.380654608930257
 20
193.2091522557448
 10
11.219110359262771
 20
192.6403745691841
 10
11.095621059516333
 20
192.13015497932008
 10
11.003622977775564
 20
191.61990910104078
 10
10.934169854492467
 20
191.1415613429921
 10
10.887083188105635
 20
190.73313532307787
 10
10.915789271124424
 20
190.3722123224232
 10
10.940827897962038
 20
189.86767398513237
 10
10.970040420506592
 20
189.4048386101796
 10
11.026683314282451
 20
188.95135774547407
 10
11.133767665054563
 20
188.47405970847623
 10
11.30811786079866
 20
187.9575900881481
 10
11.554879989222854
 20
187.40674589774443
 10
11.880243688179121
 20
186.82557251249196
 10
12.295211525450384
 20
186.21403725849584
 10
12.809927635183925
 20
185.57389015867744
 10
13.43334526396771
 20
184.90988273275107
 10
14.182901090453726
 20
184.2254509238691
 10
15.08460475084172
 20
183.52286369079198
 10
16.17701549989914
 20
182.79976300569422
 10
17.49734126623659
 20
182.0477608919576
 10
19.055672721800534
 20
181.25968305738203
 10
20.86843345847882
 20
180.44433599573557
 10
23.008080351817597
 20
179.6237290259316
 10
25.53478279386482
 20
178.79966012720374
 10
28.445878478964005
 20
177.95818434130254
 10
31.689186421694814
 20
177.11435048526133
 10
35.2461320292895
 20
176.32227941433698
 10
39.08063916779889
 20
175.57664189112938
 10
43.08764009665805
 20
174.87886432370183
 10
47.2260735931971
 20
174.25803457985432
 10
51.490627799740025
 20
173.71753559256916
 10
55.883657460413986
 20
173.22587172667252
 10
60.334051852660394
 20
172.7474086091742
 10
64.7628779417698
 20
172.30280497845126
 10
69.21057873000348
 20
171.93910514644398
 10
73.7411740798408
 20
171.62665144381455
 10
78.3039356448283
 20
171.31647736001327
 10
82.86411705190757
 20
171.02041081686926
 10
87.41666920715193
 20
170.75312453966632
 10
91.96991434260318
 20
170.5248847744624
 10
96.54604611093961
 20
170.33298123910873
 10
101.14843524269037
 20
170.16322557730652
 10
105.76954044249283
 20
170.00788502894295
 10
109.0290436785369
 20
169.90337834220998
 10
108.99699799299057
 20
168.90389193708089
 10
110.36877932219251
 20
168.85990902124814
 10
114.98446298952962
 20
168.71939136080945
 10
119.58820429394505
 20
168.60027218240913
 10
124.18458412298504
 20
168.48413628170135
 10
128.7906234586732
 20
168.39652828650887
 10
133.41880338658416
 20
168.31907300478883
 10
138.06366113779063
 20
168.23932773031015
 10
142.71922352639132
 20
168.16599492529068
 10
147.3804275398606
 20
168.09728417886893
 10
152.04142166709687
 20
168.0337571394616
 10
156.69943142276392
 20
167.97724378627663
 10
161.3551835346974
 20
167.93083483384245
 10
166.0138487337432
 20
167.8958719599139
 10
170.68093196237177
 20
167.8697051350276
 10
175.35659629778968
 20
167.84698618185678
 10
180.03632520231352
 20
167.82469191903465
 10
184.71572892182073
 20
167.80170438910858
 10
189.3916701727236
 20
167.77890529153385
 10
194.0629081145746
 20
167.76053005587818
 10
198.73311777303874
 20
167.7496031542359
 10
203.4073252840485
 20
167.7443029525137
 10
208.0840807465289
 20
167.7397381290011
 10
212.7601396227538
 20
167.73685710313958
 10
217.43514233204965
 20
167.73724081949678
 10
222.1069879423701
 20
167.7413240615065
 10
226.77734792168675
 20
167.7519664135343
 10
231.45048531122652
 20
167.76844289234037
 10
236.12543945724582
 20
167.78606672535508
 10
240.7981099960362
 20
167.8005510708061
 10
245.4668253322787
 20
167.8163920326371
 10
250.13039512920756
 20
167.839143151356
 10
254.79217987882524
 20
167.87092535522476
 10
259.45678529306014
 20
167.91205911423708
 10
264.12778884097844
 20
167.95852116665012
 10
268.80105582646144
 20
168.0044459106908
 10
273.4736587886958
 20
168.04675702767236
 10
278.1422242656758
 20
168.0891635140983
 10
282.80278119403647
 20
168.13789160139356
 10
287.4600002023226
 20
168.19714607827655
 10
292.1186480246154
 20
168.26455641302084
 10
296.77626645973174
 20
168.32879655115036
 10
301.43422254557936
 20
168.38126556001225
 10
306.0966667370872
 20
168.4274918037264
 10
310.75684422361275
 20
168.4763946190198
 10
315.41373549612683
 20
168.53474450158484
 10
320.07344466191665
 20
168.60347588771322
 10
324.73710543435976
 20
168.6752545177709
 10
329.39770038941606
 20
168.74114158354166
 10
334.05532873901666
 20
168.80004475606182
 10
338.709121228986
 20
168.86400208645753
 10
343.3617804679666
 20
168.94045192577823
 10
348.02143558053757
 20
169.0266190243536
 10
352.68335536707684
 20
169.11147380859367
 10
357.3451418250701
 20
169.1878347806091
 10
362.0106618724342
 20
169.25529694184004
 10
366.6811979547339
 20
169.31798987777827
 10
371.35294187872876
 20
169.37820548475645
 10
376.0210590989931
 20
169.43717994986017
 10
380.68128635345363
 20
169.50236240549137
 10
385.34026247542477
 20
169.5712200589163
 10
389.9947728338452
 20
169.62831774096392
 10
394.6548001538929
 20
169.67152992131463
 10
399.32427521062584
 20
169.70970288176852
 10
403.9991517877265
 20
169.74873978029834
 10
408.6745636231516
 20
169.78831699706828
 10
413.34509362350695
 20
169.826434475997
 10
418.00783215657634
 20
169.85778603283563
 10
422.6663909949823
 20
169.87763731492697
 10
427.32587181246845
 20
169.88918357064298
 10
431.9814943741349
 20
169.89485393837197
 10
436.63101627294054
 20
169.88690416670872
 10
441.28280314860143
 20
169.86722001367093
 10
445.93329488577615
 20
169.84957576762096
 10
450.5783235606375
 20
169.82957960864763
 10
455.21796374529754
 20
169.7911375173002
 10
459.85917750658996
 20
169.73959040021762
 10
464.50208204824287
 20
169.67536524197376
 10
469.1420393234489
 20
169.60551927823263
 10
473.7739170573549
 20
169.51968174440026
 10
478.40223698318187
 20
169.41885126369192
 10
483.01946190300134
 20
169.3066020347491
 10
487.61244149836375
 20
169.18116762993913
 10
492.16702567966047
 20
169.0376866958274
 10
496.65497224110425
 20
168.88247773164002
 10
501.019520036098
 20
168.71685008596057
 10
505.18139404880424
 20
168.54186987371622
 10
509.04164235411156
 20
168.35974433611847
 10
511.39894674397306
 20
168.2356570171972
  0
LWPOLYLINE
  5
8D
330
17
100
AcDbEntity
  8
Layer
100
AcDbPolyline
 90
5
 70
0
 10
338.16724772656113
 20
208.16252360828153
 10
334.2619372747926
 20
209.02771160826026
 10
335.12712527477134
 20
212.93302206002883
 10
339.03243572653986
 20
212.0678340600501
 10
338.16724772656113
 20
208.16252360828153
  0
LWPOLYLINE
  5
8E
330
17
100
AcDbEntity
  8
Layer
100
AcDbPolyline
 90
5
 70
0
 10
149.29181941775417
 20
228.28614746277847
 10
145.29320089679467
 20
228.18102884482906
 10
145.18808227884526
 20
232.17964736578855
 10
149.18670079980475
 20
232.28476598373797
 10
149.29181941775417
 20
228.28614746277847
  0
LWPOLYLINE
  5
8F
330
17
100
AcDbEntity
  8
Layer
100
AcDbPolyline
 90
5
 70
0
 10
64.44394146132886
 20
218.41920040931126
 10
60.56536740033027
 20
217.4411087707881
 10
59.58727576180711
 20
221.31968283178668
 10
63.4658498228057
 20
222.29777447030983
 10
64.44394146132886
 20
218.41920040931126
  0
LWPOLYLINE
  5
90
330
17
100
AcDbEntity
  8
Layer
100
AcDbPolyline
 90
5
 70
0
 10
22.533258926450056
 20
199.60804020361172
 10
21.020433079147626
 20
198.2998513962396
 10
17.749961060717343
 20
202.08191601449568
 10
19.262786908019773
 20
203.3901048218678
 10
22.533258926450056
 20
199.60804020361172
  0
LWPOLYLINE
  5
91
330
17
100
AcDbEntity
  8
Layer
100
AcDbPolyline
 90
5
 70
0
 10
17.2252145898182
 20
188.1934142515767
 10
18.80747994850644
 20
186.97012510558744
 10
15.749257083533244
 20
183.01446170886686
 10
14.166991724845005
 20
184.23775085485613
 10
17.2252145898182
 20
188.1934142515767
  0
LWPOLYLINE
  5
92
330
17
100
AcDbEntity
  8
Layer
100
AcDbPolyline
 90
5
 70
0
 10
82.20302122149091
 20
175.06610190056318
 10
86.19614778171227
 20
174.83170848330337
 10
85.96175436445249
 20
170.83858192308202
 10
81.96862780423113
 20
171.07297534034183
 10
82.20302122149091
 20
175.06610190056318
  0
LINE
  5
93
330
17
100
AcDbEntity
  8
Layer
100
AcDbLine
 10
491.84060423808216
 20
172.6700093735688
 30
0.0
 11
491.633962654162
 21
171.69159266490374
 31
0.0
  0
LINE
  5
94
330
17
100
AcDbEntity
  8
Layer
100
AcDbLine
 10
491.4419691701073
 20
170.06100994291623
 30
0.0
 11
491.4157608998446
 21
169.06135343862596
 31
0.0
  0
LINE
  5
95
330
17
100
AcDbEntity
  8
Layer
100
AcDbLine
 10
472.42492376655514
 20
177.49524469652144
 30
0.0
 11
472.2009720951701
 21
176.5206444457089
 31
0.0
  0
LINE
  5
96
330
17
100
AcDbEntity
  8
Layer
100
AcDbLine
 10
471.4477072444921
 20
170.5629371656783
 30
0.0
 11
471.4220552884916
 21
169.56326623124372
 31
0.0
  0
LINE
  5
97
330
17
100
AcDbEntity
  8
Layer
100
AcDbLine
 10
395.306791192905
 20
198.87366295114643
 30
0.0
 11
395.0539872258048
 21
197.90614542974518
 31
0.0
  0
LINE
  5
98
330
17
100
AcDbEntity
  8
Layer
100
AcDbLine
 10
391.42317948072827
 20
170.6414356016221
 30
0.0
 11
391.4139770646708
 21
169.64147794474923
 31
0.0
  0
LWPOLYLINE
  5
99
330
17
100
AcDbEntity
  8
Layer
100
AcDbPolyline
 90
300
 70
1
 10
226.08138513513433
 20
200.0
 10
226.0758376128007
 20
200.53414176079863
 10
226.05919749542963
 20
201.06804765963238
 10
226.03147213082843
 20
201.60148193868642
 10
225.99267376173762
 20
202.1342090483999
 10
225.9428195204248
 20
202.66599375147803
 10
225.88193142111945
 20
203.1966012267663
 10
225.81003635029217
 20
203.72579717294082
 10
225.72716605478232
 20
204.25334791196926
 10
225.63335712777945
 20
204.77902049229638
 10
225.52865099266495
 20
205.30258279170903
 10
225.4130938847205
 20
205.82380361983465
 10
225.28673683071185
 20
206.34245282022854
 10
225.14963562635697
 20
206.85830137200432
 10
225.00185081168814
 20
207.3711214909633
 10
224.84344764431927
 20
207.88068673017742
 10
224.67449607062974
 20
208.38677207998188
 10
224.4950706948784
 20
208.8891540673331
 10
224.30525074626007
 20
209.38761085448806
 10
224.10512004392046
 20
209.8819223369617
 10
223.89476695994384
 20
210.37187024071883
 10
223.67428438033033
 20
210.85723821855774
 10
223.44376966398033
 20
211.33781194564304
 10
223.2033245997033
 20
211.81337921414558
 10
222.9530553612708
 20
212.28373002694735
 10
222.69307246053316
 20
212.74865669037035
 10
222.42349069862053
 20
213.2079539058882
 10
222.14442911524995
 20
213.6614188607803
 10
221.85601093616074
 20
214.1088513176881
 10
221.55836351870144
 20
214.5500537030344
 10
221.25161829559252
 20
214.98483119426615
 10
220.93591071688928
 20
215.41299180588277
 10
220.6113801901709
 20
215.83434647421132
 10
220.2781700189821
 20
216.2487091408919
 10
219.93642733955426
 20
216.65589683503566
 10
219.5863030558341
 20
217.05572975401975
 10
219.22795177284897
 20
217.44803134288284
 10
218.8615317284374
 20
217.83262837228705
 10
218.48720472337584
 20
218.20935101501104
 10
218.10513604993204
 20
218.57803292094093
 10
217.7154944188765
 20
218.93851129052592
 10
217.31845188498463
 20
219.29062694666587
 10
216.91418377106217
 20
219.6342244049995
 10
216.50286859052767
 20
219.96915194256184
 10
216.08468796858583
 20
220.29526166478092
 10
215.659826562027
 20
220.61240957078377
 10
215.22847197768806
 20
220.92045561698316
 10
214.79081468961024
 20
221.21926377891697
 10
214.34704795493147
 20
221.50870211131266
 10
213.8973677285492
 20
221.78864280635068
 10
213.44197257659238
 20
222.05896225010073
 10
212.98106358874026
 20
222.3195410771063
 10
212.51484428942672
 20
222.57026422309292
 10
212.04352054796973
 20
222.8110209757775
 10
211.56730048766522
 20
223.04170502375564
 10
211.0863943938857
 20
223.26221450344573
 10
210.6010146212241
 20
223.4724520440692
 10
210.11137549972403
 20
223.67232481064647
 10
209.61769324023766
 20
223.86174454499053
 10
209.120185838953
 20
224.04062760467903
 10
208.61907298113312
 20
224.20889499998862
 10
208.1145759441091
 20
224.3664724287744
 10
207.60691749957033
 20
224.51329030927982
 10
207.09632181519473
 20
224.649283810862
 10
206.58301435566267
 20
224.7743928826189
 10
206.06722178309812
 20
224.8885622799065
 10
205.5491718569809
 20
224.9917415887329
 10
205.02909333357476
 20
225.08388524801998
 10
204.50721586491477
 20
225.16495256972172
 10
203.9837698973997
 20
225.234907756791
 10
203.45898657003312
 20
225.2937199189865
 10
202.9330976123592
 20
225.3413630865131
 10
202.40633524213726
 20
225.37781622148916
 10
201.878932062801
 20
225.4030632272365
 10
201.35112096074744
 20
225.4170929553881
 10
200.82313500250075
 20
225.419899210811
 10
200.29520733179666
 20
225.41148075434174
 10
199.76757106663283
 20
225.39184130333376
 10
199.24045919633033
 20
225.36098953001573
 10
198.7141044786523
 20
225.31893905766225
 10
198.1887393370246
 20
225.26570845457815
 10
197.66459575790412
 20
225.2013212258992
 10
197.14190518834016
 20
225.12580580321304
 10
196.6208984337739
 20
225.0391955320045
 10
196.10180555612123
 20
224.94152865693115
 10
195.58485577218386
 20
224.8328483049356
 10
195.0702773524336
 20
224.71320246620178
 10
194.5582975202147
 20
224.58264397296395
 10
194.0491423514082
 20
224.4412304761773
 10
193.54303667460334
 20
224.28902442006114
 10
193.0402039718196
 20
224.126093014525
 10
192.54086627982318
 20
223.9525082054909
 10
192.0452440920819
 20
223.76834664312386
 10
191.55355626140158
 20
223.5736896479855
 10
191.06601990328664
 20
223.36862317512504
 10
190.58285030006812
 20
223.153237776124
 10
190.10426080584105
 20
222.92762855911133
 10
189.6304627522532
 20
222.691895146766
 10
189.1616653551871
 20
222.4461416323268
 10
188.6980756223761
 20
222.19047653362745
 10
188.23989826199562
 20
221.92501274517824
 10
187.7873355922698
 20
221.64986748831507
 10
187.34058745213343
 20
221.3651622594377
 10
186.8998511129887
 20
221.07102277636045
 10
186.46532119159573
 20
220.76757892279863
 10
186.03718956413536
 20
220.45496469101573
 10
185.61564528148182
 20
220.13331812265602
 10
185.20087448572338
 20
219.80278124778943
 10
184.79306032796717
 20
219.4635000221948
 10
184.39238288746483
 20
219.1156242629103
 10
183.99901909209458
 20
218.75930758207807
 10
183.61314264023477
 20
218.39470731911365
 10
183.2349239240637
 20
218.02198447122927
 10
182.86452995431912
 20
217.64130362234198
 10
182.50212428655107
 20
217.252832870398
 10
182.1478669489003
 20
216.85674375314554
 10
181.80191437143435
 20
216.45321117238836
 10
181.4644193170725
 20
216.0424133167543
 10
181.13553081412985
 20
215.62453158301193
 10
180.81539409051072
 20
215.199750495971
 10
180.50415050958006
 20
214.76825762700147
 10
180.20193750774132
 20
214.3302435112073
 10
179.90888853374847
 20
213.88590156329138
 10
179.62513298977876
 20
213.43542799214924
 10
179.35079617429238
 20
212.97902171422845
 10
179.08599922670416
 20
212.51688426569308
 10
178.8308590738918
 20
212.04921971343063
 10
178.58548837856426
 20
211.5762345649421
 10
178.3499954895132
 20
211.098137677154
 10
178.12448439376894
 20
210.615140164193
 10
177.90905467068305
 20
210.1274553041639
 10
177.7038014479566
 20
209.63529844497197
 10
177.5088153596347
 20
209.13888690923147
 10
177.32418250608475
 20
208.638439898302
 10
177.14998441597737
 20
208.13417839549547
 10
176.9862980102852
 20
207.62632506849593
 10
176.83319556831705
 20
207.115104171036
 10
176.6907446958013
 20
206.60074144387247
 10
176.5590082950331
 20
206.08346401510576
 10
176.43804453709848
 20
205.56350029988653
 10
176.32790683618768
 20
205.04107989955378
 10
176.22864382600892
 20
204.51643350024955
 10
176.14029933831316
 20
203.98979277105443
 10
176.0629123835391
 20
203.46139026168885
 10
175.99651713358747
 20
202.93145929982583
 10
175.94114290673156
 20
202.40023388805994
 10
175.8968141546711
 20
201.86794860057844
 10
175.86355045173508
 20
201.33483847957984
 10
175.8413664862383
 20
200.80113893148587
 10
175.83027205399543
 20
200.26708562299274
 10
175.83027205399543
 20
199.73291437700726
 10
175.8413664862383
 20
199.19886106851413
 10
175.86355045173508
 20
198.66516152042016
 10
175.8968141546711
 20
198.13205139942156
 10
175.94114290673156
 20
197.59976611194006
 10
175.99651713358747
 20
197.06854070017417
 10
176.0629123835391
 20
196.53860973831115
 10
176.14029933831316
 20
196.01020722894557
 10
176.22864382600892
 20
195.48356649975045
 10
176.32790683618768
 20
194.95892010044625
 10
176.43804453709848
 20
194.43649970011347
 10
176.5590082950331
 20
193.9165359848942
 10
176.6907446958013
 20
193.39925855612753
 10
176.83319556831705
 20
192.88489582896403
 10
176.9862980102852
 20
192.37367493150407
 10
177.14998441597737
 20
191.86582160450453
 10
177.32418250608475
 20
191.361560101698
 10
177.5088153596347
 20
190.86111309076855
 10
177.7038014479566
 20
190.36470155502803
 10
177.90905467068305
 20
189.8725446958361
 10
178.12448439376894
 20
189.384859835807
 10
178.34999548951316
 20
188.901862322846
 10
178.58548837856426
 20
188.4237654350579
 10
178.8308590738918
 20
187.95078028656937
 10
179.08599922670416
 20
187.48311573430692
 10
179.35079617429238
 20
187.02097828577152
 10
179.62513298977876
 20
186.56457200785076
 10
179.90888853374847
 20
186.11409843670862
 10
180.20193750774132
 20
185.6697564887927
 10
180.50415050958006
 20
185.23174237299853
 10
180.81539409051072
 20
184.800249504029
 10
181.13553081412985
 20
184.3754684169881
 10
181.4644193170725
 20
183.9575866832457
 10
181.80191437143438
 20
183.5467888276116
 10
182.14786694890032
 20
183.14325624685446
 10
182.50212428655107
 20
182.74716712960202
 10
182.86452995431912
 20
182.35869637765805
 10
183.23492392406368
 20
181.97801552877073
 10
183.61314264023477
 20
181.60529268088635
 10
183.99901909209458
 20
181.24069241792193
 10
184.39238288746483
 20
180.8843757370897
 10
184.79306032796717
 20
180.5364999778052
 10
185.20087448572335
 20
180.1972187522106
 10
185.6156452814818
 20
179.86668187734398
 10
186.03718956413533
 20
179.54503530898427
 10
186.46532119159573
 20
179.23242107720137
 10
186.8998511129887
 20
178.92897722363955
 10
187.34058745213343
 20
178.6348377405623
 10
187.7873355922698
 20
178.35013251168493
 10
188.23989826199562
 20
178.07498725482176
 10
188.6980756223761
 20
177.80952346637255
 10
189.16166535518713
 20
177.5538583676732
 10
189.6304627522532
 20
177.308104853234
 10
190.10426080584105
 20
177.07237144088867
 10
190.58285030006812
 20
176.846762223876
 10
191.06601990328662
 20
176.631376824875
 10
191.55355626140155
 20
176.42631035201453
 10
192.0452440920819
 20
176.23165335687614
 10
192.54086627982315
 20
176.0474917945091
 10
193.0402039718196
 20
175.873906985475
 10
193.54303667460334
 20
175.71097557993886
 10
194.0491423514082
 20
175.5587695238227
 10
194.5582975202147
 20
175.41735602703605
 10
195.0702773524336
 20
175.28679753379822
 10
195.58485577218386
 20
175.1671516950644
 10
196.10180555612123
 20
175.05847134306885
 10
196.62089843377393
 20
174.9608044679955
 10
197.1419051883402
 20
174.87419419678696
 10
197.66459575790412
 20
174.7986787741008
 10
198.1887393370246
 20
174.73429154542185
 10
198.7141044786523
 20
174.68106094233775
 10
199.2404591963303
 20
174.63901046998427
 10
199.7675710666328
 20
174.60815869666624
 10
200.29520733179666
 20
174.58851924565826
 10
200.82313500250075
 20
174.580100789189
 10
201.35112096074744
 20
174.5829070446119
 10
201.878932062801
 20
174.5969367727635
 10
202.40633524213726
 20
174.62218377851084
 10
202.9330976123592
 20
174.6586369134869
 10
203.45898657003312
 20
174.7062800810135
 10
203.9837698973997
 20
174.765092243209
 10
204.5072158649148
 20
174.83504743027828
 10
205.02909333357476
 20
174.91611475198002
 10
205.54917185698093
 20
175.0082584112671
 10
206.0672217830981
 20
175.11143772009348
 10
206.58301435566267
 20
175.2256071173811
 10
207.09632181519473
 20
175.350716189138
 10
207.60691749957033
 20
175.48670969072015
 10
208.1145759441091
 20
175.6335275712256
 10
208.61907298113312
 20
175.79110500001138
 10
209.120185838953
 20
175.95937239532097
 10
209.61769324023766
 20
176.13825545500947
 10
210.11137549972403
 20
176.32767518935353
 10
210.6010146212241
 20
176.5275479559308
 10
211.0863943938857
 20
176.73778549655427
 10
211.56730048766525
 20
176.95829497624436
 10
212.04352054796973
 20
177.1889790242225
 10
212.51484428942672
 20
177.42973577690708
 10
212.98106358874026
 20
177.6804589228937
 10
213.44197257659238
 20
177.94103774989924
 10
213.89736772854917
 20
178.21135719364932
 10
214.34704795493147
 20
178.4912978886873
 10
214.79081468961024
 20
178.78073622108303
 10
215.22847197768806
 20
179.07954438301684
 10
215.659826562027
 20
179.38759042921623
 10
216.08468796858583
 20
179.70473833521908
 10
216.50286859052767
 20
180.03084805743816
 10
216.91418377106217
 20
180.3657755950005
 10
217.31845188498463
 20
180.70937305333413
 10
217.71549441887652
 20
181.06148870947408
 10
218.10513604993204
 20
181.42196707905907
 10
218.48720472337584
 20
181.79064898498896
 10
218.8615317284374
 20
182.16737162771295
 10
219.22795177284897
 20
182.55196865711716
 10
219.5863030558341
 20
182.94427024598025
 10
219.93642733955426
 20
183.3441031649643
 10
220.2781700189821
 20
183.7512908591081
 10
220.6113801901709
 20
184.16565352578868
 10
220.93591071688928
 20
184.58700819411723
 10
221.25161829559252
 20
185.01516880573382
 10
221.55836351870144
 20
185.4499462969656
 10
221.85601093616074
 20
185.8911486823119
 10
222.14442911524995
 20
186.3385811392197
 10
222.42349069862053
 20
186.7920460941118
 10
222.69307246053316
 20
187.25134330962965
 10
222.9530553612708
 20
187.71626997305265
 10
223.2033245997033
 20
188.18662078585442
 10
223.44376966398033
 20
188.66218805435696
 10
223.67428438033033
 20
189.1427617814423
 10
223.89476695994384
 20
189.62812975928114
 10
224.10512004392046
 20
190.11807766303826
 10
224.30525074626007
 20
190.61238914551194
 10
224.4950706948784
 20
191.1108459326669
 10
224.67449607062974
 20
191.61322792001812
 10
224.84344764431924
 20
192.11931326982256
 10
225.00185081168814
 20
192.6288785090367
 10
225.14963562635697
 20
193.14169862799568
 10
225.28673683071185
 20
193.65754717977146
 10
225.4130938847205
 20
194.17619638016535
 10
225.52865099266495
 20
194.69741720829097
 10
225.63335712777945
 20
195.22097950770362
 10
225.72716605478232
 20
195.74665208803077
 10
225.81003635029217
 20
196.27420282705918
 10
225.88193142111945
 20
196.8033987732337
 10
225.9428195204248
 20
197.33400624852197
 10
225.99267376173762
 20
197.8657909516001
 10
226.03147213082843
 20
198.39851806131355
 10
226.05919749542963
 20
198.93195234036762
 10
226.0758376128007
 20
199.46585823920137
 10
226.08138513513433
 20
200.0
  0
LINE
  5
9A
330
17
100
AcDbEntity
  8
Layer
 62
7
100
AcDbLine
 10
15.595625272958102
 20
200.00000000000003
 30
0.0
 11
391.2595886268294
 21
199.99999999999997
 31
0.0
  0
LINE
  5
9B
330
17
100
AcDbEntity
  8
Layer
 62
7
100
AcDbLine
 10
88.62841794373236
 20
200.0
 30
0.0
 11
100.62841794373236
 21
200.0
 31
0.0
  0
LWPOLYLINE
  5
9C
330
17
100
AcDbEntity
  8
Layer
100
AcDbPolyline
 90
5
 70
0
 10
94.62841794373236
 20
205.0
 10
99.62841794373236
 20
200.0
 10
94.62841794373236
 20
195.0
 10
89.62841794373236
 20
200.0
 10
94.62841794373236
 20
205.0
  0
LINE
  5
9D
330
17
100
AcDbEntity
  8
Layer
 62
7
100
AcDbLine
 10
197.42760694989374
 20
200.0
 30
0.0
 11
209.42760694989374
 21
200.0
 31
0.0
  0
LWPOLYLINE
  5
9E
330
17
100
AcDbEntity
  8
Layer
100
AcDbPolyline
 90
5
 70
0
 10
203.42760694989374
 20
205.0
 10
208.42760694989374
 20
200.0
 10
203.42760694989374
 20
195.0
 10
198.42760694989374
 20
200.0
 10
203.42760694989374
 20
205.0
  0
LINE
  5
9F
330
17
100
AcDbEntity
  8
Layer
 62
7
100
AcDbLine
 10
306.2267959560551
 20
200.0
 30
0.0
 11
318.2267959560551
 21
199.99999999999997
 31
0.0
  0
LWPOLYLINE
  5
A0
330
17
100
AcDbEntity
  8
Layer
100
AcDbPolyline
 90
5
 70
0
 10
312.2267959560551
 20
205.0
 10
317.2267959560551
 20
200.0
 10
312.2267959560551
 20
195.0
 10
307.2267959560551
 20
200.0
 10
312.2267959560551
 20
205.0
  0
LINE
  5
A1
330
17
100
AcDbEntity
  8
Layer
 62
7
100
AcDbLine
 10
10.939149531189003
 20
191.17585810418785
 30
0.0
 11
509.5884624828617
 21
168.61953479751372
 31
0.0
  0
LINE
  5
A2
330
17
100
AcDbEntity
  8
Layer
 62
7
100
AcDbLine
 10
108.5711573305115
 20
186.75948957463837
 30
0.0
 11
120.55889899343747
 21
186.21722596443652
 31
0.0
  0
LWPOLYLINE
  5
A3
330
17
100
AcDbEntity
  8
Layer
100
AcDbPolyline
 90
5
 70
0
 10
114.79097133289191
 20
191.48325012908992
 10
119.55992052152696
 20
186.26241459861998
 10
114.33908499105705
 20
181.49346540998494
 10
109.570135802422
 20
186.71430094045488
 10
114.79097133289191
 20
191.48325012908992
  0
LINE
  5
A4
330
17
100
AcDbEntity
  8
Layer
 62
7
100
AcDbLine
 10
229.98680553472056
 20
181.26727180906616
 30
0.0
 11
241.9745471976465
 21
180.72500819886432
 31
0.0
  0
LWPOLYLINE
  5
A5
330
17
100
AcDbEntity
  8
Layer
100
AcDbPolyline
 90
5
 70
0
 10
236.20661953710098
 20
185.99103236351772
 10
240.97556872573603
 20
180.77019683304778
 10
235.75473319526608
 20
176.00124764441273
 10
230.98578400663104
 20
181.22208317488267
 10
236.20661953710098
 20
185.99103236351772
  0
LINE
  5
A6
330
17
100
AcDbEntity
  8
Layer
100
AcDbLine
 10
200.95513513513438
 20
225.42024999999992
 30
0.0
 11
200.95513513513438
 21
226.42024999999992
 31
0.0
  0
LINE
  5
A7
330
17
100
AcDbEntity
  8
Layer
100
AcDbLine
 10
200.95513513513438
 20
174.57975000000008
 30
0.0
 11
200.95513513513438
 21
173.57975000000008
 31
0.0
  0
LINE
  5
A8
330
17
100
AcDbEntity
  8
Layer
100
AcDbLine
 10
226.08138513513433
 20
200.0
 30
0.0
 11
227.08138513513433
 21
200.0
 31
0.0
  0
LINE
  5
A9
330
17
100
AcDbEntity
  8
Layer
100
AcDbLine
 10
175.82888513513444
 20
200.0
 30
0.0
 11
174.82888513513444
 21
200.0
 31
0.0
  0
LINE
  5
AA
330
17
100
AcDbEntity
  8
Layer
 62
7
100
AcDbLine
 10
120.95513513513438
 20
168.5657341872148
 30
0.0
 11
120.95513513513438
 21
230.92495941828832
 31
0.0
  0
LINE
  5
AB
330
17
100
AcDbEntity
  8
Layer
 62
7
100
AcDbLine
 10
120.95513513513438
 20
186.3414630180905
 30
0.0
 11
120.95513513513438
 21
198.3414630180905
 31
0.0
  0
LWPOLYLINE
  5
AC
330
17
100
AcDbEntity
  8
Layer
100
AcDbPolyline
 90
5
 70
0
 10
115.95513513513438
 20
192.3414630180905
 10
120.95513513513438
 20
197.3414630180905
 10
125.95513513513438
 20
192.3414630180905
 10
120.95513513513438
 20
187.3414630180905
 10
115.95513513513438
 20
192.3414630180905
  0
LINE
  5
AD
330
17
100
AcDbEntity
  8
Layer
 62
7
100
AcDbLine
 10
120.95513513513438
 20
201.14923058741257
 30
0.0
 11
120.95513513513438
 21
213.14923058741257
 31
0.0
  0
LWPOLYLINE
  5
AE
330
17
100
AcDbEntity
  8
Layer
100
AcDbPolyline
 90
5
 70
0
 10
115.95513513513438
 20
207.14923058741257
 10
120.95513513513438
 20
212.14923058741257
 10
125.95513513513438
 20
207.14923058741257
 10
120.95513513513438
 20
202.14923058741257
 10
115.95513513513438
 20
207.14923058741257
  0
LINE
  5
AF
330
17
100
AcDbEntity
  8
Layer
 62
7
100
AcDbLine
 10
330.95513513513436
 20
168.76083784108522
 30
0.0
 11
330.95513513513436
 21
213.82684126747245
 31
0.0
  0
LINE
  5
B0
330
17
100
AcDbEntity
  8
Layer
 62
7
100
AcDbLine
 10
330.95513513513436
 20
180.48393904032076
 30
0.0
 11
330.95513513513436
 21
192.48393904032076
 31
0.0
  0
LWPOLYLINE
  5
B1
330
17
100
AcDbEntity
  8
Layer
100
AcDbPolyline
 90
5
 70
0
 10
325.95513513513436
 20
186.48393904032076
 10
330.95513513513436
 20
191.48393904032076
 10
335.95513513513436
 20
186.48393904032076
 10
330.95513513513436
 20
181.48393904032076
 10
325.95513513513436
 20
186.48393904032076
  0
LINE
  5
B2
330
17
100
AcDbEntity
  8
Layer
 62
7
100
AcDbLine
 10
330.95513513513436
 20
190.10374006823693
 30
0.0
 11
330.95513513513436
 21
202.10374006823693
 31
0.0
  0
LWPOLYLINE
  5
B3
330
17
100
AcDbEntity
  8
Layer
100
AcDbPolyline
 90
5
 70
0
 10
325.95513513513436
 20
196.10374006823693
 10
330.95513513513436
 20
201.10374006823693
 10
335.95513513513436
 20
196.10374006823693
 10
330.95513513513436
 20
191.10374006823693
 10
325.95513513513436
 20
196.10374006823693
  0
LWPOLYLINE
  5
B4
330
17
100
AcDbEntity
  8
NumLabel
 62
1
100
AcDbPolyline
 90
4
 70
0
 10
150.70378378378322
 20
179.87432432432442
 10
150.70378378378322
 20
184.87432432432442
 10
155.70378378378322
 20
184.87432432432442
 10
155.70378378378322
 20
174.87432432432442
  0
LWPOLYLINE
  5
B5
330
17
100
AcDbEntity
  8
NumLabel
 62
1
100
AcDbPolyline
 90
4
 70
0
 10
158.20378378378322
 20
179.87432432432442
 10
158.20378378378322
 20
184.87432432432442
 10
163.20378378378322
 20
184.87432432432442
 10
163.20378378378322
 20
174.87432432432442
  0
ENDSEC
  0
SECTION
  2
OBJECTS
  0
DICTIONARY
  5
A
330
0
100
AcDbDictionary
280
0
281
1
  3
ACAD_COLOR
350
B
  3
ACAD_GROUP
350
C
  3
ACAD_LAYOUT
350
D
  3
ACAD_MATERIAL
350
E
  3
ACAD_MLEADERSTYLE
350
F
  3
ACAD_MLINESTYLE
350
10
  3
ACAD_PLOTSETTINGS
350
11
  3
ACAD_PLOTSTYLENAME
350
12
  3
ACAD_SCALELIST
350
14
  3
ACAD_TABLESTYLE
350
15
  3
ACAD_VISUALSTYLE
350
16
  3
EZDXF_META
350
2D
  0
DICTIONARY
  5
B
330
A
100
AcDbDictionary
280
0
281
1
  0
DICTIONARY
  5
C
330
A
100
AcDbDictionary
280
0
281
1
  0
DICTIONARY
  5
D
330
A
100
AcDbDictionary
280
0
281
1
  3
Model
350
1A
  3
Layout1
350
1E
  0
DICTIONARY
  5
E
330
A
100
AcDbDictionary
280
0
281
1
  3
ByBlock
350
1F
  3
ByLayer
350
20
  3
Global
350
21
  0
DICTIONARY
  5
F
330
A
100
AcDbDictionary
280
0
281
1
  3
Standard
350
2C
  0
DICTIONARY
  5
10
330
A
100
AcDbDictionary
280
0
281
1
  3
Standard
350
22
  0
DICTIONARY
  5
11
330
A
100
AcDbDictionary
280
0
281
1
  0
ACDBDICTIONARYWDFLT
  5
12
330
A
100
AcDbDictionary
280
0
281
1
  3
Normal
350
13
100
AcDbDictionaryWithDefault
340
13
  0
ACDBPLACEHOLDER
  5
13
330
12
  0
DICTIONARY
  5
14
330
A
100
AcDbDictionary
280
0
281
1
  0
DICTIONARY
  5
15
330
A
100
AcDbDictionary
280
0
281
1
  0
DICTIONARY
  5
16
330
A
100
AcDbDictionary
280
0
281
1
  3
2dWireframe
350
5A
  3
Basic
350
5B
  3
Brighten
350
5C
  3
ColorChange
350
5D
  3
Conceptual
350
5E
  3
Dim
350
5F
  3
EdgeColorOff
350
60
  3
Facepattern
350
61
  3
Flat
350
62
  3
FlatWithEdges
350
63
  3
Gouraud
350
64
  3
GouraudWithEdges
350
65
  3
Hidden
350
66
  3
JitterOff
350
67
  3
Linepattern
350
68
  3
Modeling
350
69
  3
OverhangOff
350
6A
  3
Realistic
350
6B
  3
Shaded
350
6C
  3
Shaded with edges
350
6D
  3
Shades of Gray
350
6E
  3
Sketchy
350
6F
  3
Thicken
350
70
  3
Wireframe
350
71
  3
X-Ray
350
72
  0
LAYOUT
  5
1A
330
D
100
AcDbPlotSettings
  1

  2
Adobe PDF
  4
A3
  6

 40
7.5
 41
20.0
 42
7.5
 43
20.0
 44
420.0
 45
297.0
 46
0.0
 47
0.0
 48
0.0
 49
0.0
140
0.0
141
0.0
142
1.0
143
1.0
 70
1024
 72
1
 73
0
 74
5
  7

 75
16
 76
0
 77
2
 78
300
147
1.0
148
0.0
149
0.0
100
AcDbLayout
  1
Model
 70
1
 71
0
 10
0.0
 20
0.0
 11
420.0
 21
297.0
 12
0.0
 22
0.0
 32
0.0
 14
1e+20
 24
1e+20
 34
1e+20
 15
-1e+20
 25
-1e+20
 35
-1e+20
146
0.0
 13
0.0
 23
0.0
 33
0.0
 16
1.0
 26
0.0
 36
0.0
 17
0.0
 27
1.0
 37
0.0
 76
1
330
17
  0
LAYOUT
  5
1E
330
D
100
AcDbPlotSettings
  1

  2
Adobe PDF
  4
A3
  6

 40
7.5
 41
20.0
 42
7.5
 43
20.0
 44
420.0
 45
297.0
 46
0.0
 47
0.0
 48
0.0
 49
0.0
140
0.0
141
0.0
142
1.0
143
1.0
 70
0
 72
1
 73
0
 74
5
  7

 75
16
 76
0
 77
2
 78
300
147
1.0
148
0.0
149
0.0
100
AcDbLayout
  1
Layout1
 70
1
 71
1
 10
0.0
 20
0.0
 11
420.0
 21
297.0
 12
0.0
 22
0.0
 32
0.0
 14
1e+20
 24
1e+20
 34
1e+20
 15
-1e+20
 25
-1e+20
 35
-1e+20
146
0.0
 13
0.0
 23
0.0
 33
0.0
 16
1.0
 26
0.0
 36
0.0
 17
0.0
 27
1.0
 37
0.0
 76
1
330
1B
  0
MATERIAL
  5
1F
102
{ACAD_REACTORS
330
E
102
}
330
E
100
AcDbMaterial
  1
ByBlock
  2

 70
0
 40
1.0
 71
1
 41
1.0
 91
-1023410177
 42
1.0
 72
1
  3

 73
1
 74
1
 75
1
 44
0.5
 73
0
 45
1.0
 46
1.0
 77
1
  4

 78
1
 79
1
170
1
 48
1.0
171
1
  6

172
1
173
1
174
1
140
1.0
141
1.0
175
1
  7

176
1
177
1
178
1
143
1.0
179
1
  8

270
1
271
1
272
1
145
1.0
146
1.0
273
1
  9

274
1
275
1
276
1
 42
1.0
 72
1
  3

 73
1
 74
1
 75
1
 94
63
  0
MATERIAL
  5
20
102
{ACAD_REACTORS
330
E
102
}
330
E
100
AcDbMaterial
  1
ByLayer
  2

 70
0
 40
1.0
 71
1
 41
1.0
 91
-1023410177
 42
1.0
 72
1
  3

 73
1
 74
1
 75
1
 44
0.5
 73
0
 45
1.0
 46
1.0
 77
1
  4

 78
1
 79
1
170
1
 48
1.0
171
1
  6

172
1
173
1
174
1
140
1.0
141
1.0
175
1
  7

176
1
177
1
178
1
143
1.0
179
1
  8

270
1
271
1
272
1
145
1.0
146
1.0
273
1
  9

274
1
275
1
276
1
 42
1.0
 72
1
  3

 73
1
 74
1
 75
1
 94
63
  0
MATERIAL
  5
21
102
{ACAD_REACTORS
330
E
102
}
330
E
100
AcDbMaterial
  1
Global
  2

 70
0
 40
1.0
 71
1
 41
1.0
 91
-1023410177
 42
1.0
 72
1
  3

 73
1
 74
1
 75
1
 44
0.5
 73
0
 45
1.0
 46
1.0
 77
1
  4

 78
1
 79
1
170
1
 48
1.0
171
1
  6

172
1
173
1
174
1
140
1.0
141
1.0
175
1
  7

176
1
177
1
178
1
143
1.0
179
1
  8

270
1
271
1
272
1
145
1.0
146
1.0
273
1
  9

274
1
275
1
276
1
 42
1.0
 72
1
  3

 73
1
 74
1
 75
1
 94
63
  0
MLINESTYLE
  5
22
102
{ACAD_REACTORS
330
10
102
}
330
10
100
AcDbMlineStyle
  2
Standard
 70
0
  3

 62
256
 51
90.0
 52
90.0
 71
2
 49
0.5
 62
256
  6
BYLAYER
 49
-0.5
 62
256
  6
BYLAYER
  0
MLEADERSTYLE
  5
2C
102
{ACAD_REACTORS
330
F
102
}
330
F
100
AcDbMLeaderStyle
179
2
170
2
171
1
172
0
 90
2
 40
0.0
 41
0.0
173
1
 91
-1056964608
 92
-2
290
1
 42
2.0
291
1
 43
8.0
  3
Standard
 44
4.0
300

342
29
174
1
175
1
176
0
178
1
 93
-1056964608
 45
4.0
292
0
297
0
 46
4.0
 94
-1056964608
 47
1.0
 49
1.0
140
1.0
294
1
141
0.0
177
0
142
1.0
295
0
296
0
143
3.75
271
0
272
9
273
9
  0
DICTIONARY
  5
2D
330
A
100
AcDbDictionary
281
1
  3
CREATED_BY_EZDXF
350
2E
  3
WRITTEN_BY_EZDXF
350
B8
  0
DICTIONARYVAR
  5
2E
330
2D
100
DictionaryVariables
280
0
  1
1.3.0 @ 2026-01-06T17:07:24.680901+00:00
  0
VISUALSTYLE
  5
5A
102
{ACAD_REACTORS
330
16
102
}
330
16
100
AcDbVisualStyle
  2
2dWireframe
 70
4
 90
0
 40
0.6
 62
7
290
0
291
0
  0
VISUALSTYLE
  5
5B
102
{ACAD_REACTORS
330
16
102
}
330
16
100
AcDbVisualStyle
  2
Basic
 70
7
 90
1
 40
0.6
 62
7
290
0
291
1
  0
VISUALSTYLE
  5
5C
102
{ACAD_REACTORS
330
16
102
}
330
16
100
AcDbVisualStyle
  2
Brighten
 70
12
 90
2
 40
0.6
 62
7
290
0
291
1
  0
VISUALSTYLE
  5
5D
102
{ACAD_REACTORS
330
16
102
}
330
16
100
AcDbVisualStyle
  2
ColorChange
 70
16
 90
2
 40
0.6
 62
8
290
0
291
1
  0
VISUALSTYLE
  5
5E
102
{ACAD_REACTORS
330
16
102
}
330
16
100
AcDbVisualStyle
  2
Conceptual
 70
9
 90
3
 40
0.6
 62
7
290
0
291
0
  0
VISUALSTYLE
  5
5F
102
{ACAD_REACTORS
330
16
102
}
330
16
100
AcDbVisualStyle
  2
Dim
 70
11
 90
2
 40
0.6
 62
7
290
0
291
1
  0
VISUALSTYLE
  5
60
102
{ACAD_REACTORS
330
16
102
}
330
16
100
AcDbVisualStyle
  2
EdgeColorOff
 70
22
 90
2
 40
0.6
 62
7
290
0
291
1
  0
VISUALSTYLE
  5
61
102
{ACAD_REACTORS
330
16
102
}
330
16
100
AcDbVisualStyle
  2
Facepattern
 70
15
 90
2
 40
0.6
 62
7
290
0
291
1
  0
VISUALSTYLE
  5
62
102
{ACAD_REACTORS
330
16
102
}
330
16
100
AcDbVisualStyle
  2
Flat
 70
0
 90
2
 40
0.6
 62
7
290
0
291
1
  0
VISUALSTYLE
  5
63
102
{ACAD_REACTORS
330
16
102
}
330
16
100
AcDbVisualStyle
  2
FlatWithEdges
 70
1
 90
2
 40
0.6
 62
7
290
0
291
1
  0
VISUALSTYLE
  5
64
102
{ACAD_REACTORS
330
16
102
}
330
16
100
AcDbVisualStyle
  2
Gouraud
 70
2
 90
2
 40
0.6
 62
7
290
0
291
1
  0
VISUALSTYLE
  5
65
102
{ACAD_REACTORS
330
16
102
}
330
16
100
AcDbVisualStyle
  2
GouraudWithEdges
 70
3
 90
2
 40
0.6
 62
7
290
0
291
1
  0
VISUALSTYLE
  5
66
102
{ACAD_REACTORS
330
16
102
}
330
16
100
AcDbVisualStyle
  2
Hidden
 70
6
 90
1
 40
0.6
 62
7
290
0
291
0
  0
VISUALSTYLE
  5
67
102
{ACAD_REACTORS
330
16
102
}
330
16
100
AcDbVisualStyle
  2
JitterOff
 70
20
 90
2
 40
0.6
 62
7
290
0
291
1
  0
VISUALSTYLE
  5
68
102
{ACAD_REACTORS
330
16
102
}
330
16
100
AcDbVisualStyle
  2
Linepattern
 70
14
 90
2
 40
0.6
 62
7
290
0
291
1
  0
VISUALSTYLE
  5
69
102
{ACAD_REACTORS
330
16
102
}
330
16
100
AcDbVisualStyle
  2
Modeling
 70
10
 90
2
 40
0.6
 62
7
290
0
291
0
  0
VISUALSTYLE
  5
6A
102
{ACAD_REACTORS
330
16
102
}
330
16
100
AcDbVisualStyle
  2
OverhangOff
 70
21
 90
2
 40
0.6
 62
7
290
0
291
1
  0
VISUALSTYLE
  5
6B
102
{ACAD_REACTORS
330
16
102
}
330
16
100
AcDbVisualStyle
  2
Realistic
 70
8
 90
2
 40
0.6
 62
7
290
0
291
0
  0
VISUALSTYLE
  5
6C
102
{ACAD_REACTORS
330
16
102
}
330
16
100
AcDbVisualStyle
  2
Shaded
 70
27
 90
2
 40
0.6
 62
7
290
0
291
0
  0
VISUALSTYLE
  5
6D
102
{ACAD_REACTORS
330
16
102
}
330
16
100
AcDbVisualStyle
  2
Shaded with edges
 70
26
 90
2
 40
0.6
 62
7
290
0
291
0
  0
VISUALSTYLE
  5
6E
102
{ACAD_REACTORS
330
16
102
}
330
16
100
AcDbVisualStyle
  2
Shades of Gray
 70
23
 90
2
 40
0.6
 62
7
290
0
291
0
  0
VISUALSTYLE
  5
6F
102
{ACAD_REACTORS
330
16
102
}
330
16
100
AcDbVisualStyle
  2
Sketchy
 70
24
 90
1
 40
0.6
 62
7
290
0
291
0
  0
VISUALSTYLE
  5
70
102
{ACAD_REACTORS
330
16
102
}
330
16
100
AcDbVisualStyle
  2
Thicken
 70
13
 90
2
 40
0.6
 62
7
290
0
291
1
  0
VISUALSTYLE
  5
71
102
{ACAD_REACTORS
330
16
102
}
330
16
100
AcDbVisualStyle
  2
Wireframe
 70
5
 90
0
 40
0.6
 62
7
290
0
291
0
  0
VISUALSTYLE
  5
72
102
{ACAD_REACTORS
330
16
102
}
330
16
100
AcDbVisualStyle
  2
X-Ray
 70
25
 90
2
 40
0.5
 62
7
290
0
291
0
  0
DICTIONARYVAR
  5
B8
330
2D
100
DictionaryVariables
280
0
  1
1.3.0 @ 2026-01-06T17:07:24.743172+00:00
  0
ENDSEC
  0
EOF
